version 1
nodes
  0 "Bip01" -1
  1 "Bip01 Pelvis" 0
  2 "Bip01 Spine" 1
  3 "Bip01 Spine1" 2
  4 "Bip01 Spine2" 3
  5 "Bip01 Spine3" 4
  6 "Bip01 Neck" 5
  7 "Bip01 L Arm" 6
  8 "Bip01 L Arm1" 7
  9 "Bip01 L Arm2" 8
  10 "Bip01 L Hand" 9
  11 "Bip01 L Finger0" 10
  12 "Bip01 L Finger01" 11
  13 "Bip01 L Finger02" 12
  14 "Bip01 L Finger1" 10
  15 "Bip01 L Finger11" 14
  16 "Bip01 L Finger12" 15
  17 "Bip01 R Arm" 6
  18 "Bip01 R Arm1" 17
  19 "Bip01 R Arm2" 18
  20 "Bip01 R Hand" 19
  21 "Bip01 R Finger0" 20
  22 "Bip01 R Finger01" 21
  23 "Bip01 R Finger02" 22
  24 "Bip01 R Finger1" 20
  25 "Bip01 R Finger11" 24
  26 "Bip01 R Finger12" 25
  27 "Bip01 Head" 6
  28 "Bip01 L Leg" 1
  29 "Bip01 L Leg1" 28
  30 "Bip01 L Foot" 29
  31 "Bip01 R Leg" 1
  32 "Bip01 R Leg1" 31
  33 "Bip01 R Foot" 32
end
skeleton
  time 0
    0 0.000965 0.000151 0.001476 0.000000 0.000000 -1.571017
    1 0.738300 0.000000 9.742485 -1.570795 -1.570787 0.000000
    2 1.293670 0.684478 -0.000001 -0.000004 -0.000001 -0.060206
    3 5.309685 -0.003834 0.000000 0.000000 0.000000 -0.209285
    4 4.826790 -0.004591 0.000000 0.000000 0.000000 0.200583
    5 5.792767 -0.005304 0.000000 0.000000 0.000000 0.000003
    6 6.662322 -0.001452 0.000000 0.000000 -0.000001 0.000003
    7 -2.869899 1.399632 4.140401 -0.000100 -1.283646 -3.142292
    8 4.972048 0.000000 -0.000002 -0.063299 0.364538 -1.220412
    9 11.585358 0.000000 0.000000 0.000000 0.000000 -1.879413
    10 10.127057 -0.000001 0.000001 -2.458754 0.000094 -0.000160
    11 2.162477 0.109716 -1.664490 1.460467 0.573977 0.710725
    12 0.928312 0.000000 0.000000 0.000000 0.000000 0.375130
    13 0.928313 0.000000 -0.000001 0.000000 0.000000 0.375131
    14 3.784085 -0.427338 -0.044205 0.036443 0.088879 0.411651
    15 1.189161 -0.000001 -0.000001 0.000000 0.000000 0.305409
    16 1.302900 -0.000001 0.000001 0.000000 0.000000 0.305321
    17 -2.869899 1.399667 -4.140396 0.000026 1.283590 -3.142315
    18 4.972047 0.000000 0.000000 0.595761 -0.169347 -1.007033
    19 11.585358 0.000000 0.000001 0.000000 0.000000 -1.273779
    20 10.127058 0.000000 0.000001 1.568700 0.165582 -0.000348
    21 2.162477 0.109715 1.664489 2.894817 -0.132148 0.873393
    22 0.928313 0.000000 0.000002 0.000000 0.000000 0.000000
    23 0.928311 0.000000 0.000001 0.000000 0.000000 0.000000
    24 3.784085 -0.427337 0.044204 -0.013864 -0.095075 0.166302
    25 1.189159 0.000000 0.000001 0.000000 0.000000 0.165814
    26 1.302900 0.000000 -0.000001 0.000000 0.000000 0.924954
    27 2.046984 0.000001 0.000000 0.000000 0.000000 0.042693
    28 -0.000005 0.000007 3.713254 -0.213284 -3.060216 5.996947
    29 18.045723 0.000000 0.000000 0.000000 0.000000 -0.671041
    30 17.597597 0.000000 0.000000 0.188035 0.129410 -0.291504
    31 0.000005 -0.000003 -3.713254 0.073269 3.053837 6.087179
    32 18.045721 0.000000 0.000000 0.000000 0.000000 -1.141834
    33 17.597597 0.000000 0.000000 -0.106864 -0.039162 -0.083545
  time 1
    0 0.000965 0.000151 0.001476 0.000000 0.000000 -1.571017
    1 1.171907 0.000000 9.742485 -1.570795 -1.570787 0.000000
    2 1.293670 0.684478 -0.000001 -0.000004 -0.000001 -0.060206
    3 5.309685 -0.003834 0.000000 0.000000 0.000000 -0.218612
    4 4.826790 -0.004591 0.000000 0.000000 0.000000 0.051515
    5 5.792767 -0.005304 0.000000 0.000000 0.000000 0.000003
    6 6.662322 -0.001452 0.000000 0.000000 -0.000001 0.000003
    7 -2.869899 1.399632 4.140401 -0.000100 -1.283646 -3.142292
    8 4.972048 0.000000 -0.000002 0.493683 0.194332 -0.156085
    9 11.585358 0.000000 0.000000 0.000000 0.000000 -0.781672
    10 10.127057 -0.000001 0.000001 -1.933977 0.000094 -0.000160
    11 2.162477 0.109716 -1.664490 1.460843 0.568323 0.711500
    12 0.928312 0.000000 0.000000 0.000000 0.000000 0.380792
    13 0.928313 0.000000 -0.000001 0.000000 0.000000 0.380746
    14 3.784085 -0.427338 -0.044205 0.037006 0.088615 0.417123
    15 1.189161 -0.000001 -0.000001 0.000000 0.000000 0.311009
    16 1.302900 -0.000001 0.000001 0.000000 0.000000 0.310930
    17 -2.869899 1.399667 -4.140396 0.000026 1.283590 -3.142315
    18 4.972047 0.000000 0.000000 -0.105758 -0.181158 0.041746
    19 11.585358 0.000000 0.000001 0.000000 0.000000 -0.568964
    20 10.127058 0.000000 0.000001 1.568700 0.165582 -0.000348
    21 2.162477 0.109715 1.664489 2.894817 -0.132148 0.873393
    22 0.928313 0.000000 0.000002 0.000000 0.000000 0.000000
    23 0.928311 0.000000 0.000001 0.000000 0.000000 0.000000
    24 3.784085 -0.427337 0.044204 -0.013864 -0.095075 0.166302
    25 1.189159 0.000000 0.000001 0.000000 0.000000 0.165814
    26 1.302900 0.000000 -0.000001 0.000000 0.000000 0.924954
    27 2.046984 0.000001 0.000000 0.000000 0.000000 0.201152
    28 -0.000005 0.000007 3.713254 -0.052312 -3.092046 0.445452
    29 18.045723 0.000000 0.000000 0.000000 0.000000 -0.671041
    30 17.597597 0.000000 0.000000 0.067317 0.024549 -0.433951
    31 0.000005 -0.000003 -3.713254 6.180142 3.054604 0.147781
    32 18.045721 0.000000 0.000000 0.000000 0.000000 -1.189065
    33 17.597597 0.000000 0.000000 -0.080593 0.107305 -0.324601
  time 2
    0 0.000965 0.000151 0.001476 0.000000 0.000000 -1.571017
    1 1.386757 0.000000 9.742485 -1.570795 -1.570787 0.000000
    2 1.293670 0.684478 -0.000001 -0.000004 -0.000001 -0.060206
    3 5.309685 -0.003834 0.000000 0.000000 0.000000 -0.209285
    4 4.826790 -0.004591 0.000000 0.000000 0.000000 -0.052333
    5 5.792767 -0.005304 0.000000 0.000000 0.000000 0.000003
    6 6.662322 -0.001452 0.000000 0.000000 -0.000001 0.000003
    7 -2.869899 1.399632 4.140401 -0.000100 -1.283646 -3.142292
    8 4.972048 0.000000 -0.000002 0.638369 -0.153585 0.432878
    9 11.585358 0.000000 0.000000 0.000000 0.000000 -0.017216
    10 10.127057 -0.000001 0.000001 -1.568804 0.000094 -0.000160
    11 2.162477 0.109716 -1.664490 1.460467 0.573977 0.710725
    12 0.928312 0.000000 0.000000 0.000000 0.000000 0.375130
    13 0.928313 0.000000 -0.000001 0.000000 0.000000 0.375131
    14 3.784085 -0.427338 -0.044205 0.036443 0.088879 0.411651
    15 1.189161 -0.000001 -0.000001 0.000000 0.000000 0.305409
    16 1.302900 -0.000001 0.000001 0.000000 0.000000 0.305321
    17 -2.869899 1.399667 -4.140396 0.000026 1.283590 -3.142315
    18 4.972047 0.000000 0.000000 -0.412198 0.146667 0.630095
    19 11.585358 0.000000 0.000001 0.000000 0.000000 -0.078150
    20 10.127058 0.000000 0.000001 1.568700 0.165582 -0.000348
    21 2.162477 0.109715 1.664489 2.894817 -0.132148 0.873393
    22 0.928313 0.000000 0.000002 0.000000 0.000000 0.000000
    23 0.928311 0.000000 0.000001 0.000000 0.000000 0.000000
    24 3.784085 -0.427337 0.044204 -0.013864 -0.095075 0.166302
    25 1.189159 0.000000 0.000001 0.000000 0.000000 0.165814
    26 1.302900 0.000000 -0.000001 0.000000 0.000000 0.924954
    27 2.046984 0.000001 0.000000 0.000000 0.000000 0.295619
    28 -0.000005 0.000007 3.713254 -6.220451 -3.049190 0.867711
    29 18.045723 0.000000 0.000000 0.000000 0.000000 -0.671041
    30 17.597597 0.000000 0.000000 0.059842 -0.093848 -0.493415
    31 0.000005 -0.000003 -3.713254 6.059285 3.023927 0.335110
    32 18.045721 0.000000 0.000000 0.000000 0.000000 -1.141834
    33 17.597597 0.000000 0.000000 -0.123975 0.220064 -0.459378
  time 3
    0 0.000965 0.000151 0.001476 0.000000 0.000000 -1.571017
    1 1.171907 0.000000 9.742485 -1.570795 -1.570787 0.000000
    2 1.293670 0.684478 -0.000001 -0.000004 -0.000001 -0.060206
    3 5.309685 -0.003834 0.000000 0.000000 0.000000 -0.163378
    4 4.826790 -0.004591 0.000000 0.000000 0.000000 -0.070941
    5 5.792767 -0.005304 0.000000 0.000000 0.000000 0.000003
    6 6.662322 -0.001452 0.000000 0.000000 -0.000001 0.000003
    7 -2.869899 1.399632 4.140401 -0.000100 -1.283646 -3.142292
    8 4.972048 0.000000 -0.000002 0.555464 -0.015697 0.584949
    9 11.585358 0.000000 0.000000 0.000000 0.000000 0.153339
    10 10.127057 -0.000001 0.000001 -1.487486 0.000094 -0.000160
    11 2.162477 0.109716 -1.664490 1.458122 0.605778 0.706387
    12 0.928312 0.000000 0.000000 0.000000 0.000000 0.343244
    13 0.928313 0.000000 -0.000001 0.000000 0.000000 0.343237
    14 3.784085 -0.427338 -0.044205 0.033578 0.089945 0.379558
    15 1.189161 -0.000001 -0.000001 0.000000 0.000000 0.273438
    16 1.302900 -0.000001 0.000001 0.000000 0.000000 0.273373
    17 -2.869899 1.399667 -4.140396 0.000026 1.283590 -3.142315
    18 4.972047 0.000000 0.000000 -0.391469 -0.010818 0.740777
    19 11.585358 0.000000 0.000001 0.000000 0.000000 0.031220
    20 10.127058 0.000000 0.000001 1.568700 0.165582 -0.000348
    21 2.162477 0.109715 1.664489 2.894817 -0.132148 0.873393
    22 0.928313 0.000000 0.000002 0.000000 0.000000 0.000000
    23 0.928311 0.000000 0.000001 0.000000 0.000000 0.000000
    24 3.784085 -0.427337 0.044204 -0.013864 -0.095075 0.166302
    25 1.189159 0.000000 0.000001 0.000000 0.000000 0.165814
    26 1.302900 0.000000 -0.000001 0.000000 0.000000 0.924954
    27 2.046984 0.000001 0.000000 0.000000 0.000000 0.268307
    28 -0.000005 0.000007 3.713254 -6.171747 -3.052929 0.712036
    29 18.045723 0.000000 0.000000 0.000000 0.000000 -0.671041
    30 17.597597 0.000000 0.000000 0.022947 -0.140089 -0.390213
    31 0.000005 -0.000003 -3.713254 6.016731 3.026899 0.224572
    32 18.045721 0.000000 0.000000 0.000000 0.000000 -0.896234
    33 17.597597 0.000000 0.000000 -0.032581 0.287479 -0.378133
  time 4
    0 0.000965 0.000151 0.001476 0.000000 0.000000 -1.571017
    1 0.843772 0.000000 9.742485 -1.570795 -1.570787 0.000000
    2 1.293670 0.684478 -0.000001 -0.000004 -0.000001 -0.060206
    3 5.309685 -0.003834 0.000000 0.000000 0.000000 -0.105971
    4 4.826790 -0.004591 0.000000 0.000000 0.000000 -0.064746
    5 5.792767 -0.005304 0.000000 0.000000 0.000000 0.000003
    6 6.662322 -0.001452 0.000000 0.000000 -0.000001 0.000003
    7 -2.869899 1.399632 4.140401 -0.000100 -1.283646 -3.142292
    8 4.972048 0.000000 -0.000002 0.454144 0.286001 0.600373
    9 11.585358 0.000000 0.000000 0.000000 0.000000 0.174640
    10 10.127057 -0.000001 0.000001 -1.477440 0.000094 -0.000160
    11 2.162477 0.109716 -1.664490 1.454557 0.648711 0.700345
    12 0.928312 0.000000 0.000000 0.000000 0.000000 0.299860
    13 0.928313 0.000000 -0.000001 0.000000 0.000000 0.299921
    14 3.784085 -0.427338 -0.044205 0.029648 0.091371 0.335957
    15 1.189161 -0.000001 -0.000001 0.000000 0.000000 0.230100
    16 1.302900 -0.000001 0.000001 0.000000 0.000000 0.230046
    17 -2.869899 1.399667 -4.140396 0.000026 1.283590 -3.142315
    18 4.972047 0.000000 0.000000 -0.316430 -0.343946 0.714754
    19 11.585358 0.000000 0.000001 0.000000 0.000000 0.044942
    20 10.127058 0.000000 0.000001 1.568700 0.165582 -0.000348
    21 2.162477 0.109715 1.664489 2.894817 -0.132148 0.873393
    22 0.928313 0.000000 0.000002 0.000000 0.000000 0.000000
    23 0.928311 0.000000 0.000001 0.000000 0.000000 0.000000
    24 3.784085 -0.427337 0.044204 -0.013864 -0.095075 0.166302
    25 1.189159 0.000000 0.000001 0.000000 0.000000 0.165814
    26 1.302900 0.000000 -0.000001 0.000000 0.000000 0.924954
    27 2.046984 0.000001 0.000000 0.000000 0.000000 0.204741
    28 -0.000005 0.000007 3.713254 -6.141930 -3.086581 0.391387
    29 18.045723 0.000000 0.000000 0.000000 0.000000 -0.671041
    30 17.597597 0.000000 0.000000 -0.044076 -0.144741 -0.231766
    31 0.000005 -0.000003 -3.713254 5.989512 3.046647 0.021808
    32 18.045721 0.000000 0.000000 0.000000 0.000000 -0.579629
    33 17.597597 0.000000 0.000000 0.131016 0.279156 -0.227791
  time 5
    0 0.000965 0.000151 0.001476 0.000000 0.000000 -1.571017
    1 0.453135 0.000000 9.742485 -1.570795 -1.570787 0.000000
    2 1.293670 0.684478 -0.000001 -0.000004 -0.000001 -0.060206
    3 5.309685 -0.003834 0.000000 0.000000 0.000000 -0.045385
    4 4.826790 -0.004591 0.000000 0.000000 0.000000 -0.049268
    5 5.792767 -0.005304 0.000000 0.000000 0.000000 0.000003
    6 6.662322 -0.001452 0.000000 0.000000 -0.000001 0.000003
    7 -2.869899 1.399632 4.140401 -0.000100 -1.283646 -3.142292
    8 4.972048 0.000000 -0.000002 0.305551 0.634515 0.474037
    9 11.585358 0.000000 0.000000 0.000000 0.000000 0.110519
    10 10.127057 -0.000001 0.000001 -1.507958 0.000094 -0.000160
    11 2.162477 0.109716 -1.664490 1.450522 0.691467 0.693838
    12 0.928312 0.000000 0.000000 0.000000 0.000000 0.256911
    13 0.928313 0.000000 -0.000001 0.000000 0.000000 0.256835
    14 3.784085 -0.427338 -0.044205 0.025681 0.092510 0.292790
    15 1.189161 -0.000001 -0.000001 0.000000 0.000000 0.187055
    16 1.302900 -0.000001 0.000001 0.000000 0.000000 0.187039
    17 -2.869899 1.399667 -4.140396 0.000026 1.283590 -3.142315
    18 4.972047 0.000000 0.000000 -0.144028 -0.719580 0.529597
    19 11.585358 0.000000 0.000001 0.000000 0.000000 0.003939
    20 10.127058 0.000000 0.000001 1.568700 0.165582 -0.000348
    21 2.162477 0.109715 1.664489 2.894817 -0.132148 0.873393
    22 0.928313 0.000000 0.000002 0.000000 0.000000 0.000000
    23 0.928311 0.000000 0.000001 0.000000 0.000000 0.000000
    24 3.784085 -0.427337 0.044204 -0.013864 -0.095075 0.166302
    25 1.189159 0.000000 0.000001 0.000000 0.000000 0.165814
    26 1.302900 0.000000 -0.000001 0.000000 0.000000 0.924954
    27 2.046984 0.000001 0.000000 0.000000 0.000000 0.128644
    28 -0.000005 0.000007 3.713254 -6.142218 3.149580 0.008813
    29 18.045723 0.000000 0.000000 0.000000 0.000000 -0.671041
    30 17.597597 0.000000 0.000000 -0.098810 -0.100493 -0.064378
    31 0.000005 -0.000003 -3.713254 5.986541 3.074257 6.075962
    32 18.045721 0.000000 0.000000 0.000000 0.000000 -0.253106
    33 17.597597 0.000000 0.000000 0.257103 0.163260 -0.074354
  time 6
    0 0.000965 0.000151 0.001476 0.000000 0.000000 -1.571017
    1 0.117187 0.000000 9.742485 -1.570795 -1.570787 0.000000
    2 1.293670 0.684478 -0.000001 -0.000004 -0.000001 -0.060206
    3 5.309685 -0.003834 0.000000 0.000000 0.000000 0.010150
    4 4.826790 -0.004591 0.000000 0.000000 0.000000 -0.039963
    5 5.792767 -0.005304 0.000000 0.000000 0.000000 0.000003
    6 6.662322 -0.001452 0.000000 0.000000 -0.000001 0.000003
    7 -2.869899 1.399632 4.140401 -0.000100 -1.283646 -3.142292
    8 4.972048 0.000000 -0.000002 0.058907 0.913871 0.207240
    9 11.585358 0.000000 0.000000 0.000000 0.000000 0.025604
    10 10.127057 -0.000001 0.000001 -1.548333 0.000094 -0.000160
    11 2.162477 0.109716 -1.664490 1.447238 0.722386 0.688828
    12 0.928312 0.000000 0.000000 0.000000 0.000000 0.225810
    13 0.928313 0.000000 -0.000001 0.000000 0.000000 0.225743
    14 3.784085 -0.427338 -0.044205 0.022840 0.093265 0.261609
    15 1.189161 -0.000001 -0.000001 0.000000 0.000000 0.155962
    16 1.302900 -0.000001 0.000001 0.000000 0.000000 0.155893
    17 -2.869899 1.399667 -4.140396 0.000026 1.283590 -3.142315
    18 4.972047 0.000000 0.000000 0.199462 -0.991322 0.149300
    19 11.585358 0.000000 0.000001 0.000000 0.000000 -0.050787
    20 10.127058 0.000000 0.000001 1.568700 0.165582 -0.000348
    21 2.162477 0.109715 1.664489 2.894817 -0.132148 0.873393
    22 0.928313 0.000000 0.000002 0.000000 0.000000 0.000000
    23 0.928311 0.000000 0.000001 0.000000 0.000000 0.000000
    24 3.784085 -0.427337 0.044204 -0.013864 -0.095075 0.166302
    25 1.189159 0.000000 0.000001 0.000000 0.000000 0.165814
    26 1.302900 0.000000 -0.000001 0.000000 0.000000 0.924954
    27 2.046984 0.000001 0.000000 0.000000 0.000000 0.063801
    28 -0.000005 0.000007 3.713254 -6.164940 3.112285 5.947100
    29 18.045723 0.000000 0.000000 0.000000 0.000000 -0.671041
    30 17.597597 0.000000 0.000000 -0.113937 -0.042881 0.070870
    31 0.000005 -0.000003 -3.713254 6.007051 3.095731 5.886524
    32 18.045721 0.000000 0.000000 0.000000 0.000000 0.021541
    33 17.597597 0.000000 0.000000 0.278207 0.026675 0.050862
  time 7
    0 0.000965 0.000151 0.001476 0.000000 0.000000 -1.571017
    1 -0.093757 0.000000 9.742485 -1.570795 -1.570787 0.000000
    2 1.293670 0.684478 -0.000001 -0.000004 -0.000001 -0.060206
    3 5.309685 -0.003834 0.000000 0.000000 0.000000 0.052295
    4 4.826790 -0.004591 0.000000 0.000000 0.000000 -0.052333
    5 5.792767 -0.005304 0.000000 0.000000 0.000000 0.000003
    6 6.662322 -0.001452 0.000000 0.000000 -0.000001 0.000003
    7 -2.869899 1.399632 4.140401 -0.000100 -1.283646 -3.142292
    8 4.972048 0.000000 -0.000002 -0.188774 1.053806 -0.051931
    9 11.585358 0.000000 0.000000 0.000000 0.000000 -0.017216
    10 10.127057 -0.000001 0.000001 -1.568804 0.000094 -0.000160
    11 2.162477 0.109716 -1.664490 1.446488 0.729895 0.687589
    12 0.928312 0.000000 0.000000 0.000000 0.000000 0.218143
    13 0.928313 0.000000 -0.000001 0.000000 0.000000 0.218066
    14 3.784085 -0.427338 -0.044205 0.022133 0.093493 0.253966
    15 1.189161 -0.000001 -0.000001 0.000000 0.000000 0.148314
    16 1.302900 -0.000001 0.000001 0.000000 0.000000 0.148306
    17 -2.869899 1.399667 -4.140396 0.000026 1.283590 -3.142315
    18 4.972047 0.000000 0.000000 0.518659 -1.088465 -0.191863
    19 11.585358 0.000000 0.000001 0.000000 0.000000 -0.078150
    20 10.127058 0.000000 0.000001 1.568700 0.165582 -0.000348
    21 2.162477 0.109715 1.664489 2.894817 -0.132148 0.873393
    22 0.928313 0.000000 0.000002 0.000000 0.000000 0.000000
    23 0.928311 0.000000 0.000001 0.000000 0.000000 0.000000
    24 3.784085 -0.427337 0.044204 -0.013864 -0.095075 0.166302
    25 1.189159 0.000000 0.000001 0.000000 0.000000 0.165814
    26 1.302900 0.000000 -0.000001 0.000000 0.000000 0.924954
    27 2.046984 0.000001 0.000000 0.000000 0.000000 0.033995
    28 -0.000005 0.000007 3.713254 -6.182197 3.094069 5.742728
    29 18.045723 0.000000 0.000000 0.000000 0.000000 -0.671041
    30 17.597597 0.000000 0.000000 -0.110770 -0.010594 0.137853
    31 0.000005 -0.000003 -3.713254 6.044046 3.101963 5.800433
    32 18.045721 0.000000 0.000000 0.000000 0.000000 0.183543
    33 17.597597 0.000000 0.000000 0.238884 -0.040366 0.144532
  time 8
    0 0.000965 0.000151 0.001476 0.000000 0.000000 -1.571017
    1 -0.000004 0.027345 9.742485 -1.570795 -1.570787 0.000000
    2 1.293670 0.684478 -0.000001 -0.000004 -0.000001 -0.060206
    3 5.309685 -0.003834 0.000000 0.000034 0.005046 0.066850
    4 4.826790 -0.004591 0.000000 0.000000 0.000000 -0.119712
    5 5.792767 -0.005304 0.000000 0.000000 0.000000 0.000003
    6 6.662322 -0.001452 0.000000 0.000000 -0.000001 0.000003
    7 -2.869899 1.399632 4.140401 -0.000100 -1.283646 -3.142292
    8 4.972048 0.000000 -0.000002 -0.189092 1.122195 -0.040147
    9 11.585358 0.000000 0.000000 0.000000 0.000000 -0.017216
    10 10.127057 -0.000001 0.000001 -1.568804 0.000094 -0.000160
    11 2.162477 0.109716 -1.664490 1.448552 0.710902 0.690791
    12 0.928312 0.000000 0.000000 0.000000 0.000000 0.237396
    13 0.928313 0.000000 -0.000001 0.000000 0.000000 0.237317
    14 3.784085 -0.427338 -0.044205 0.023919 0.092989 0.273204
    15 1.189161 -0.000001 -0.000001 0.000000 0.000000 0.167496
    16 1.302900 -0.000001 0.000001 0.000000 0.000000 0.167486
    17 -2.869899 1.399667 -4.140396 0.000026 1.283590 -3.142315
    18 4.972047 0.000000 0.000000 0.509842 -1.127193 -0.181348
    19 11.585358 0.000000 0.000001 0.000000 0.000000 -0.078150
    20 10.127058 0.000000 0.000001 1.568700 0.165582 -0.000348
    21 2.162477 0.109715 1.664489 2.894817 -0.132148 0.873393
    22 0.928313 0.000000 0.000002 0.000000 0.000000 0.000000
    23 0.928311 0.000000 0.000001 0.000000 0.000000 0.000000
    24 3.784085 -0.427337 0.044204 -0.013864 -0.095075 0.166302
    25 1.189159 0.000000 0.000001 0.000000 0.000000 0.165814
    26 1.302900 0.000000 -0.000001 0.000000 0.000000 0.924954
    27 2.046984 0.000001 0.000000 0.000000 -0.005075 0.086916
    28 -0.000005 0.000007 3.713254 -6.177691 3.105478 5.851912
    29 18.045723 0.000000 0.000000 0.000000 0.000000 -0.687695
    30 17.597597 0.000000 0.000000 -0.106614 -0.032078 0.068165
    31 0.000005 -0.000003 -3.713254 6.135384 3.085282 5.983352
    32 18.045721 0.000000 0.000000 0.000000 0.000000 0.078061
    33 17.597597 0.000000 0.000000 0.157321 0.012494 0.205824
  time 9
    0 0.000965 0.000151 0.001476 0.000000 0.000000 -1.571017
    1 0.296880 0.050783 9.742485 -1.570795 -1.570787 0.000000
    2 1.293670 0.684478 -0.000001 -0.000004 -0.000001 -0.060206
    3 5.309685 -0.003834 0.000000 0.000034 0.010235 0.059573
    4 4.826790 -0.004591 0.000000 0.000000 0.000000 -0.218643
    5 5.792767 -0.005304 0.000000 0.000000 0.000000 0.000003
    6 6.662322 -0.001452 0.000000 0.000000 -0.000001 0.000003
    7 -2.869899 1.399632 4.140401 -0.000100 -1.283646 -3.142292
    8 4.972048 0.000000 -0.000002 -0.006301 1.157584 0.157503
    9 11.585358 0.000000 0.000000 0.000000 0.000000 -0.017216
    10 10.127057 -0.000001 0.000001 -1.568804 0.000094 -0.000160
    11 2.162477 0.109716 -1.664490 1.452211 0.674329 0.696523
    12 0.928312 0.000000 0.000000 0.000000 0.000000 0.274160
    13 0.928313 0.000000 -0.000001 0.000000 0.000000 0.274139
    14 3.784085 -0.427338 -0.044205 0.027275 0.092114 0.310161
    15 1.189161 -0.000001 -0.000001 0.000000 0.000000 0.204357
    16 1.302900 -0.000001 0.000001 0.000000 0.000000 0.204295
    17 -2.869899 1.399667 -4.140396 0.000026 1.283590 -3.142315
    18 4.972047 0.000000 0.000000 0.336127 -1.157806 -0.000184
    19 11.585358 0.000000 0.000001 0.000000 0.000000 -0.078150
    20 10.127058 0.000000 0.000001 1.568700 0.165582 -0.000348
    21 2.162477 0.109715 1.664489 2.894817 -0.132148 0.873393
    22 0.928313 0.000000 0.000002 0.000000 0.000000 0.000000
    23 0.928311 0.000000 0.000001 0.000000 0.000000 0.000000
    24 3.784085 -0.427337 0.044204 -0.013864 -0.095075 0.166302
    25 1.189159 0.000000 0.000001 0.000000 0.000000 0.165814
    26 1.302900 0.000000 -0.000001 0.000000 0.000000 0.924954
    27 2.046984 0.000001 0.000000 0.000129 -0.010120 0.193062
    28 -0.000005 0.000007 3.713254 -6.171747 3.139513 6.162688
    29 18.045723 0.000000 0.000000 0.000000 0.000000 -0.704644
    30 17.597597 0.000000 0.000000 -0.076891 -0.080534 -0.117882
    31 0.000005 -0.000003 -3.713254 6.272917 3.093047 0.053445
    32 18.045721 0.000000 0.000000 0.000000 0.000000 -0.227602
    33 17.597597 0.000000 0.000000 0.008889 0.048272 0.205685
  time 10
    0 0.000965 0.000151 0.001476 0.000000 0.000000 -1.571017
    1 0.496105 0.000000 9.742485 -1.570795 -1.570787 0.000000
    2 1.293670 0.684478 -0.000001 -0.000004 -0.000001 -0.060206
    3 5.309685 -0.003834 0.000000 0.000000 0.000000 0.052295
    4 4.826790 -0.004591 0.000000 0.000000 0.000000 -0.279077
    5 5.792767 -0.005304 0.000000 0.000000 0.000000 0.000003
    6 6.662322 -0.001452 0.000000 0.000000 -0.000001 0.000003
    7 -2.869899 1.399632 4.140401 -0.000100 -1.283646 -3.142292
    8 4.972048 0.000000 -0.000002 0.126666 1.148886 0.297270
    9 11.585358 0.000000 0.000000 0.000000 0.000000 -0.017216
    10 10.127057 -0.000001 0.000001 -1.568804 0.000094 -0.000160
    11 2.162477 0.109716 -1.664490 1.456433 0.627068 0.703392
    12 0.928312 0.000000 0.000000 0.000000 0.000000 0.321683
    13 0.928313 0.000000 -0.000001 0.000000 0.000000 0.321694
    14 3.784085 -0.427338 -0.044205 0.031697 0.090640 0.357844
    15 1.189161 -0.000001 -0.000001 0.000000 0.000000 0.251915
    16 1.302900 -0.000001 0.000001 0.000000 0.000000 0.251843
    17 -2.869899 1.399667 -4.140396 0.000026 1.283590 -3.142315
    18 4.972047 0.000000 0.000000 0.210249 -1.181509 0.134990
    19 11.585358 0.000000 0.000001 0.000000 0.000000 -0.078150
    20 10.127058 0.000000 0.000001 1.568700 0.165582 -0.000348
    21 2.162477 0.109715 1.664489 2.894817 -0.132148 0.873393
    22 0.928313 0.000000 0.000002 0.000000 0.000000 0.000000
    23 0.928311 0.000000 0.000001 0.000000 0.000000 0.000000
    24 3.784085 -0.427337 0.044204 -0.013864 -0.095075 0.166302
    25 1.189159 0.000000 0.000001 0.000000 0.000000 0.165814
    26 1.302900 0.000000 -0.000001 0.000000 0.000000 0.924954
    27 2.046984 0.000001 0.000000 0.000000 0.000000 0.260764
    28 -0.000005 0.000007 3.713254 -6.173377 -3.122343 0.067287
    29 18.045723 0.000000 0.000000 0.000000 0.000000 -0.671041
    30 17.597597 0.000000 0.000000 -0.043696 -0.102388 -0.322635
    31 0.000005 -0.000003 -3.713254 0.083907 3.122766 0.240007
    32 18.045721 0.000000 0.000000 0.000000 0.000000 -0.461473
    33 17.597597 0.000000 0.000000 -0.084989 -0.010169 0.124994
  time 11
    0 0.000965 0.000151 0.001476 0.000000 0.000000 -1.571017
    1 0.484386 -0.195318 9.742485 -1.570795 -1.570787 0.000000
    2 1.293670 0.684478 -0.000001 -0.000004 -0.000001 -0.060206
    3 5.309685 -0.003834 0.000000 -0.000017 -0.036433 0.052295
    4 4.826790 -0.004591 0.000000 0.000000 0.000000 -0.278019
    5 5.792767 -0.005304 0.000000 0.000000 0.000000 0.000003
    6 6.662322 -0.001452 0.000000 0.000000 -0.000001 0.000003
    7 -2.869899 1.399632 4.140401 -0.000100 -1.283646 -3.142292
    8 4.972048 0.000000 -0.000002 0.109926 1.112389 0.271882
    9 11.585358 0.000000 0.000000 0.000000 0.000000 -0.017216
    10 10.127057 -0.000001 0.000001 -1.568804 0.000094 -0.000160
    11 2.162477 0.109716 -1.664490 1.460373 0.575920 0.710467
    12 0.928312 0.000000 0.000000 0.000000 0.000000 0.373213
    13 0.928313 0.000000 -0.000001 0.000000 0.000000 0.373183
    14 3.784085 -0.427338 -0.044205 0.036323 0.088951 0.409523
    15 1.189161 -0.000001 -0.000001 0.000000 0.000000 0.303361
    16 1.302900 -0.000001 0.000001 0.000000 0.000000 0.303344
    17 -2.869899 1.399667 -4.140396 0.000026 1.283590 -3.142315
    18 4.972047 0.000000 0.000000 0.224882 -1.224496 0.130132
    19 11.585358 0.000000 0.000001 0.000000 0.000000 -0.078150
    20 10.127058 0.000000 0.000001 1.568700 0.165582 -0.000348
    21 2.162477 0.109715 1.664489 2.894817 -0.132148 0.873393
    22 0.928313 0.000000 0.000002 0.000000 0.000000 0.000000
    23 0.928311 0.000000 0.000001 0.000000 0.000000 0.000000
    24 3.784085 -0.427337 0.044204 -0.013864 -0.095075 0.166302
    25 1.189159 0.000000 0.000001 0.000000 0.000000 0.165814
    26 1.302900 0.000000 -0.000001 0.000000 0.000000 0.924954
    27 2.046984 0.000001 0.000000 -0.000517 0.036378 0.259669
    28 -0.000005 0.000007 3.713254 -6.171843 3.147471 6.231898
    29 18.045723 0.000000 0.000000 0.000000 0.000000 -0.534262
    30 17.597597 0.000000 0.000000 -0.046306 -0.101255 -0.552511
    31 0.000005 -0.000003 -3.713254 0.101638 3.111453 0.054212
    32 18.045721 0.000000 0.000000 0.000000 0.000000 -0.517284
    33 17.597597 0.000000 0.000000 -0.100120 -0.033876 -0.093660
  time 12
    0 0.000965 0.000151 0.001476 0.000000 0.000000 -1.571017
    1 0.421884 -0.488296 9.742485 -1.570795 -1.570787 0.000000
    2 1.293670 0.684478 -0.000001 -0.000004 -0.000001 -0.060206
    3 5.309685 -0.003834 0.000000 -0.000034 -0.087679 0.052295
    4 4.826790 -0.004591 0.000000 0.000000 0.000000 -0.249863
    5 5.792767 -0.005304 0.000000 0.000000 0.000000 0.000003
    6 6.662322 -0.001452 0.000000 0.000000 -0.000001 0.000003
    7 -2.869899 1.399632 4.140401 -0.000100 -1.283646 -3.142292
    8 4.972048 0.000000 -0.000002 0.050856 1.056364 0.198229
    9 11.585358 0.000000 0.000000 0.000000 0.000000 -0.017216
    10 10.127057 -0.000001 0.000001 -1.568804 0.000094 -0.000160
    11 2.162477 0.109716 -1.664490 1.463657 0.527775 0.716612
    12 0.928312 0.000000 0.000000 0.000000 0.000000 0.421607
    13 0.928313 0.000000 -0.000001 0.000000 0.000000 0.421578
    14 3.784085 -0.427338 -0.044205 0.040530 0.087033 0.458205
    15 1.189161 -0.000001 -0.000001 0.000000 0.000000 0.351756
    16 1.302900 -0.000001 0.000001 0.000000 0.000000 0.351747
    17 -2.869899 1.399667 -4.140396 0.000026 1.283590 -3.142315
    18 4.972047 0.000000 0.000000 0.303672 -1.275518 0.060115
    19 11.585358 0.000000 0.000001 0.000000 0.000000 -0.078150
    20 10.127058 0.000000 0.000001 1.568700 0.165582 -0.000348
    21 2.162477 0.109715 1.664489 2.894817 -0.132148 0.873393
    22 0.928313 0.000000 0.000002 0.000000 0.000000 0.000000
    23 0.928311 0.000000 0.000001 0.000000 0.000000 0.000000
    24 3.784085 -0.427337 0.044204 -0.013864 -0.095075 0.166302
    25 1.189159 0.000000 0.000001 0.000000 0.000000 0.165814
    26 1.302900 0.000000 -0.000001 0.000000 0.000000 0.924954
    27 2.046984 0.000001 0.000000 -0.001292 0.087625 0.231445
    28 -0.000005 0.000007 3.713254 -6.173377 3.120339 5.990141
    29 18.045723 0.000000 0.000000 0.000000 0.000000 -0.347005
    30 17.597597 0.000000 0.000000 -0.064069 -0.091067 -0.798389
    31 0.000005 -0.000003 -3.713254 0.074515 3.082597 5.988529
    32 18.045721 0.000000 0.000000 0.000000 0.000000 -0.501541
    33 17.597597 0.000000 0.000000 -0.092169 -0.021510 -0.395407
  time 13
    0 0.000965 0.000151 0.001476 0.000000 0.000000 -1.571017
    1 0.324225 -0.753929 9.742485 -1.570795 -1.570787 0.000000
    2 1.293670 0.684478 -0.000001 -0.000004 -0.000001 -0.060206
    3 5.309685 -0.003834 0.000000 -0.000102 -0.135426 0.052313
    4 4.826790 -0.004591 0.000000 0.000000 0.000000 -0.211014
    5 5.792767 -0.005304 0.000000 0.000000 0.000000 0.000003
    6 6.662322 -0.001452 0.000000 0.000000 -0.000001 0.000003
    7 -2.869899 1.399632 4.140401 -0.000100 -1.283646 -3.142292
    8 4.972048 0.000000 -0.000002 -0.010048 0.998889 0.124229
    9 11.585358 0.000000 0.000000 0.000000 0.000000 -0.017216
    10 10.127057 -0.000001 0.000001 -1.568804 0.000094 -0.000160
    11 2.162477 0.109716 -1.664490 1.465909 0.489525 0.721363
    12 0.928312 0.000000 0.000000 0.000000 0.000000 0.460113
    13 0.928313 0.000000 -0.000001 0.000000 0.000000 0.460157
    14 3.784085 -0.427338 -0.044205 0.043921 0.085403 0.496812
    15 1.189161 -0.000001 -0.000001 0.000000 0.000000 0.390288
    16 1.302900 -0.000001 0.000001 0.000000 0.000000 0.390319
    17 -2.869899 1.399667 -4.140396 0.000026 1.283590 -3.142315
    18 4.972047 0.000000 0.000000 0.423359 -1.314648 -0.054826
    19 11.585358 0.000000 0.000001 0.000000 0.000000 -0.078150
    20 10.127058 0.000000 0.000001 1.568700 0.165582 -0.000348
    21 2.162477 0.109715 1.664489 2.894817 -0.132148 0.873393
    22 0.928313 0.000000 0.000002 0.000000 0.000000 0.000000
    23 0.928311 0.000000 0.000001 0.000000 0.000000 0.000000
    24 3.784085 -0.427337 0.044204 -0.013864 -0.095075 0.166302
    25 1.189159 0.000000 0.000001 0.000000 0.000000 0.165814
    26 1.302900 0.000000 -0.000001 0.000000 0.000000 0.924954
    27 2.046984 0.000001 0.000000 -0.002283 0.135362 0.192514
    28 -0.000005 0.000007 3.713254 -6.177883 3.104903 5.846736
    29 18.045723 0.000000 0.000000 0.000000 0.000000 -0.217479
    30 17.597597 0.000000 0.000000 -0.076105 -0.081272 -0.932216
    31 0.000005 -0.000003 -3.713254 0.049117 3.070710 5.773302
    32 18.045721 0.000000 0.000000 0.000000 0.000000 -0.461473
    33 17.597597 0.000000 0.000000 -0.084989 -0.010169 -0.624408
  time 14
    0 0.000965 0.000151 0.001476 0.000000 0.000000 -1.571017
    1 0.230472 -0.902371 9.742485 -1.570795 -1.570787 0.000000
    2 1.293670 0.684478 -0.000001 -0.000004 -0.000001 -0.060206
    3 5.309685 -0.003834 0.000000 -0.000102 -0.161205 0.052313
    4 4.826790 -0.004591 0.000000 0.000000 0.000000 -0.177765
    5 5.792767 -0.005304 0.000000 0.000000 0.000000 0.000003
    6 6.662322 -0.001452 0.000000 0.000000 -0.000001 0.000003
    7 -2.869899 1.399632 4.140401 -0.000100 -1.283646 -3.142292
    8 4.972048 0.000000 -0.000002 -0.052776 0.961795 0.075098
    9 11.585358 0.000000 0.000000 0.000000 0.000000 -0.017216
    10 10.127057 -0.000001 0.000001 -1.568804 0.000094 -0.000160
    11 2.162477 0.109716 -1.664490 1.467035 0.467882 0.723894
    12 0.928312 0.000000 0.000000 0.000000 0.000000 0.481893
    13 0.928313 0.000000 -0.000001 0.000000 0.000000 0.481853
    14 3.784085 -0.427338 -0.044205 0.045755 0.084432 0.518612
    15 1.189161 -0.000001 -0.000001 0.000000 0.000000 0.412019
    16 1.302900 -0.000001 0.000001 0.000000 0.000000 0.412010
    17 -2.869899 1.399667 -4.140396 0.000026 1.283590 -3.142315
    18 4.972047 0.000000 0.000000 0.511999 -1.325897 -0.145008
    19 11.585358 0.000000 0.000001 0.000000 0.000000 -0.078150
    20 10.127058 0.000000 0.000001 1.568700 0.165582 -0.000348
    21 2.162477 0.109715 1.664489 2.894817 -0.132148 0.873393
    22 0.928313 0.000000 0.000002 0.000000 0.000000 0.000000
    23 0.928311 0.000000 0.000001 0.000000 0.000000 0.000000
    24 3.784085 -0.427337 0.044204 -0.013864 -0.095075 0.166302
    25 1.189159 0.000000 0.000001 0.000000 0.000000 0.165814
    26 1.302900 0.000000 -0.000001 0.000000 0.000000 0.924954
    27 2.046984 0.000001 0.000000 -0.002714 0.161118 0.159241
    28 -0.000005 0.000007 3.713254 -6.176349 3.108738 5.883066
    29 18.045723 0.000000 0.000000 0.000000 0.000000 -0.181360
    30 17.597597 0.000000 0.000000 -0.078361 -0.079033 -0.904433
    31 0.000005 -0.000003 -3.713254 0.050650 3.072052 5.798899
    32 18.045721 0.000000 0.000000 0.000000 0.000000 -0.408417
    33 17.597597 0.000000 0.000000 -0.083747 -0.017289 -0.735814
  time 15
    0 0.000965 0.000151 0.001476 0.000000 0.000000 -1.571017
    1 0.167970 -0.859401 9.742485 -1.570795 -1.570787 0.000000
    2 1.293670 0.684478 -0.000001 -0.000004 -0.000001 -0.060206
    3 5.309685 -0.003834 0.000000 -0.000102 -0.151869 0.052313
    4 4.826790 -0.004591 0.000000 0.000000 0.000000 -0.150469
    5 5.792767 -0.005304 0.000000 0.000000 0.000000 0.000003
    6 6.662322 -0.001452 0.000000 0.000000 -0.000001 0.000003
    7 -2.869899 1.399632 4.140401 -0.000100 -1.283646 -3.142292
    8 4.972048 0.000000 -0.000002 -0.091120 0.966229 0.037925
    9 11.585358 0.000000 0.000000 0.000000 0.000000 -0.017216
    10 10.127057 -0.000001 0.000001 -1.568804 0.000094 -0.000160
    11 2.162477 0.109716 -1.664490 1.466941 0.469825 0.723636
    12 0.928312 0.000000 0.000000 0.000000 0.000000 0.479889
    13 0.928313 0.000000 -0.000001 0.000000 0.000000 0.479905
    14 3.784085 -0.427338 -0.044205 0.045599 0.084516 0.516615
    15 1.189161 -0.000001 -0.000001 0.000000 0.000000 0.410055
    16 1.302900 -0.000001 0.000001 0.000000 0.000000 0.410033
    17 -2.869899 1.399667 -4.140396 0.000026 1.283590 -3.142315
    18 4.972047 0.000000 0.000000 0.537043 -1.300346 -0.177687
    19 11.585358 0.000000 0.000001 0.000000 0.000000 -0.078150
    20 10.127058 0.000000 0.000001 1.568700 0.165582 -0.000348
    21 2.162477 0.109715 1.664489 2.894817 -0.132148 0.873393
    22 0.928313 0.000000 0.000002 0.000000 0.000000 0.000000
    23 0.928311 0.000000 0.000001 0.000000 0.000000 0.000000
    24 3.784085 -0.427337 0.044204 -0.013864 -0.095075 0.166302
    25 1.189159 0.000000 0.000001 0.000000 0.000000 0.165814
    26 1.302900 0.000000 -0.000001 0.000000 0.000000 0.924954
    27 2.046984 0.000001 0.000000 -0.002456 0.151736 0.131990
    28 -0.000005 0.000007 3.713254 -6.173377 3.120818 5.993304
    29 18.045723 0.000000 0.000000 0.000000 0.000000 -0.185431
    30 17.597597 0.000000 0.000000 -0.078082 -0.079353 -0.792704
    31 0.000005 -0.000003 -3.713254 0.058893 3.078859 5.924968
    32 18.045721 0.000000 0.000000 0.000000 0.000000 -0.335052
    33 17.597597 0.000000 0.000000 -0.081097 -0.026875 -0.799692
  time 16
    0 0.000965 0.000151 0.001476 0.000000 0.000000 -1.571017
    1 0.093749 -0.648457 9.742485 -1.570795 -1.570787 0.000000
    2 1.293670 0.684478 -0.000001 -0.000004 -0.000001 -0.060206
    3 5.309685 -0.003834 0.000000 -0.000034 -0.114465 0.052313
    4 4.826790 -0.004591 0.000000 0.000000 0.000000 -0.123482
    5 5.792767 -0.005304 0.000000 0.000000 0.000000 0.000003
    6 6.662322 -0.001452 0.000000 0.000000 -0.000001 0.000003
    7 -2.869899 1.399632 4.140401 -0.000100 -1.283646 -3.142292
    8 4.972048 0.000000 -0.000002 -0.132573 0.998889 0.001359
    9 11.585358 0.000000 0.000000 0.000000 0.000000 -0.017216
    10 10.127057 -0.000001 0.000001 -1.568804 0.000094 -0.000160
    11 2.162477 0.109716 -1.664490 1.463751 0.525125 0.716974
    12 0.928312 0.000000 0.000000 0.000000 0.000000 0.424264
    13 0.928313 0.000000 -0.000001 0.000000 0.000000 0.424290
    14 3.784085 -0.427338 -0.044205 0.040829 0.086925 0.460854
    15 1.189161 -0.000001 -0.000001 0.000000 0.000000 0.354472
    16 1.302900 -0.000001 0.000001 0.000000 0.000000 0.354471
    17 -2.869899 1.399667 -4.140396 0.000026 1.283590 -3.142315
    18 4.972047 0.000000 0.000000 0.531415 -1.246512 -0.183011
    19 11.585358 0.000000 0.000001 0.000000 0.000000 -0.078150
    20 10.127058 0.000000 0.000001 1.568700 0.165582 -0.000348
    21 2.162477 0.109715 1.664489 2.894817 -0.132148 0.873393
    22 0.928313 0.000000 0.000002 0.000000 0.000000 0.000000
    23 0.928311 0.000000 0.000001 0.000000 0.000000 0.000000
    24 3.784085 -0.427337 0.044204 -0.013864 -0.095075 0.166302
    25 1.189159 0.000000 0.000001 0.000000 0.000000 0.165814
    26 1.302900 0.000000 -0.000001 0.000000 0.000000 0.924954
    27 2.046984 0.000001 0.000000 -0.001723 0.114355 0.105104
    28 -0.000005 0.000007 3.713254 -6.171843 3.135103 6.120989
    29 18.045723 0.000000 0.000000 0.000000 0.000000 -0.205192
    30 17.597597 0.000000 0.000000 -0.076840 -0.080534 -0.659197
    31 0.000005 -0.000003 -3.713254 0.067998 3.088541 6.077400
    32 18.045721 0.000000 0.000000 0.000000 0.000000 -0.261608
    33 17.597597 0.000000 0.000000 -0.077540 -0.036125 -0.836781
  time 17
    0 0.000965 0.000151 0.001476 0.000000 0.000000 -1.571017
    1 0.042966 -0.343760 9.742485 -1.570795 -1.570787 0.000000
    2 1.293670 0.684478 -0.000001 -0.000004 -0.000001 -0.060206
    3 5.309685 -0.003834 0.000000 -0.000034 -0.061050 0.052295
    4 4.826790 -0.004591 0.000000 0.000000 0.000000 -0.104653
    5 5.792767 -0.005304 0.000000 0.000000 0.000000 0.000003
    6 6.662322 -0.001452 0.000000 0.000000 -0.000001 0.000003
    7 -2.869899 1.399632 4.140401 -0.000100 -1.283646 -3.142292
    8 4.972048 0.000000 -0.000002 -0.152423 1.038712 -0.013632
    9 11.585358 0.000000 0.000000 0.000000 0.000000 -0.017216
    10 10.127057 -0.000001 0.000001 -1.568804 0.000094 -0.000160
    11 2.162477 0.109716 -1.664490 1.455682 0.635107 0.702359
    12 0.928312 0.000000 0.000000 0.000000 0.000000 0.313581
    13 0.928313 0.000000 -0.000001 0.000000 0.000000 0.313634
    14 3.784085 -0.427338 -0.044205 0.030954 0.090904 0.349723
    15 1.189161 -0.000001 -0.000001 0.000000 0.000000 0.243808
    16 1.302900 -0.000001 0.000001 0.000000 0.000000 0.243776
    17 -2.869899 1.399667 -4.140396 0.000026 1.283590 -3.142315
    18 4.972047 0.000000 0.000000 0.499993 -1.178617 -0.162180
    19 11.585358 0.000000 0.000001 0.000000 0.000000 -0.078150
    20 10.127058 0.000000 0.000001 1.568700 0.165582 -0.000348
    21 2.162477 0.109715 1.664489 2.894817 -0.132148 0.873393
    22 0.928313 0.000000 0.000002 0.000000 0.000000 0.000000
    23 0.928311 0.000000 0.000001 0.000000 0.000000 0.000000
    24 3.784085 -0.427337 0.044204 -0.013864 -0.095075 0.166302
    25 1.189159 0.000000 0.000001 0.000000 0.000000 0.165814
    26 1.302900 0.000000 -0.000001 0.000000 0.000000 0.924954
    27 2.046984 0.000001 0.000000 -0.000948 0.060925 0.086308
    28 -0.000005 0.000007 3.713254 -6.171843 3.145170 6.211384
    29 18.045723 0.000000 0.000000 0.000000 0.000000 -0.217479
    30 17.597597 0.000000 0.000000 -0.076105 -0.081272 -0.565991
    31 0.000005 -0.000003 -3.713254 0.072886 3.096019 6.183719
    32 18.045721 0.000000 0.000000 0.000000 0.000000 -0.208631
    33 17.597597 0.000000 0.000000 -0.074219 -0.042515 -0.867773
  time 18
    0 0.000965 0.000151 0.001476 0.000000 0.000000 -1.571017
    1 0.031247 0.156255 9.742485 -1.570795 -1.570787 0.000000
    2 1.293670 0.684478 -0.000001 -0.000004 -0.000001 -0.060206
    3 5.309685 -0.003834 0.000000 0.000000 0.028092 0.052295
    4 4.826790 -0.004591 0.000000 0.000000 0.000000 -0.099229
    5 5.792767 -0.005304 0.000000 0.000000 0.000000 0.000003
    6 6.662322 -0.001452 0.000000 0.000000 -0.000001 0.000003
    7 -2.869899 1.399632 4.140401 -0.000100 -1.283646 -3.142292
    8 4.972048 0.000000 -0.000002 -0.143096 1.110768 0.002312
    9 11.585358 0.000000 0.000000 0.000000 0.000000 -0.017216
    10 10.127057 -0.000001 0.000001 -1.568804 0.000094 -0.000160
    11 2.162477 0.109716 -1.664490 1.442454 0.764170 0.681701
    12 0.928312 0.000000 0.000000 0.000000 0.000000 0.183601
    13 0.928313 0.000000 -0.000001 0.000000 0.000000 0.183574
    14 3.784085 -0.427338 -0.044205 0.018813 0.094212 0.219267
    15 1.189161 -0.000001 -0.000001 0.000000 0.000000 0.113794
    16 1.302900 -0.000001 0.000001 0.000000 0.000000 0.113741
    17 -2.869899 1.399667 -4.140396 0.000026 1.283590 -3.142315
    18 4.972047 0.000000 0.000000 0.442869 -1.078662 -0.117587
    19 11.585358 0.000000 0.000001 0.000000 0.000000 -0.078150
    20 10.127058 0.000000 0.000001 1.568700 0.165582 -0.000348
    21 2.162477 0.109715 1.664489 2.894817 -0.132148 0.873393
    22 0.928313 0.000000 0.000002 0.000000 0.000000 0.000000
    23 0.928311 0.000000 0.000001 0.000000 0.000000 0.000000
    24 3.784085 -0.427337 0.044204 -0.013864 -0.095075 0.166302
    25 1.189159 0.000000 0.000001 0.000000 0.000000 0.165814
    26 1.302900 0.000000 -0.000001 0.000000 0.000000 0.924954
    27 2.046984 0.000001 0.000000 0.000388 -0.027969 0.080894
    28 -0.000005 0.000007 3.713254 -6.171460 3.146321 6.229693
    29 18.045723 0.000000 0.000000 0.000000 0.000000 -0.205637
    30 17.597597 0.000000 0.000000 -0.077119 -0.080854 -0.559251
    31 0.000005 -0.000003 -3.713254 0.074132 3.096498 6.207974
    32 18.045721 0.000000 0.000000 0.000000 0.000000 -0.183047
    33 17.597597 0.000000 0.000000 -0.074219 -0.043817 -0.894285
  time 19
    0 0.000965 0.000151 0.001476 0.000000 0.000000 -1.571017
    1 0.039060 0.757836 9.742485 -1.570795 -1.570787 0.000000
    2 1.293670 0.684478 -0.000001 -0.000004 -0.000001 -0.060206
    3 5.309685 -0.003834 0.000000 0.000085 0.133245 0.052313
    4 4.826790 -0.004591 0.000000 0.000000 0.000000 -0.101941
    5 5.792767 -0.005304 0.000000 0.000000 0.000000 0.000003
    6 6.662322 -0.001452 0.000000 0.000000 -0.000001 0.000003
    7 -2.869899 1.399632 4.140401 -0.000100 -1.283646 -3.142292
    8 4.972048 0.000000 -0.000002 -0.107701 1.198941 0.045117
    9 11.585358 0.000000 0.000000 0.000000 0.000000 -0.017216
    10 10.127057 -0.000001 0.000001 -1.568804 0.000094 -0.000160
    11 2.162477 0.109716 -1.664490 1.425753 0.876714 0.658927
    12 0.928312 0.000000 0.000000 0.000000 0.000000 0.070043
    13 0.928313 0.000000 -0.000001 0.000000 0.000000 0.070015
    14 3.784085 -0.427338 -0.044205 0.008051 0.095674 0.105140
    15 1.189161 -0.000001 -0.000001 0.000000 0.000000 0.000288
    16 1.302900 -0.000001 0.000001 0.000000 0.000000 0.000160
    17 -2.869899 1.399667 -4.140396 0.000026 1.283590 -3.142315
    18 4.972047 0.000000 0.000000 0.394094 -0.966414 -0.081914
    19 11.585358 0.000000 0.000001 0.000000 0.000000 -0.078150
    20 10.127058 0.000000 0.000001 1.568700 0.165582 -0.000348
    21 2.162477 0.109715 1.664489 2.894817 -0.132148 0.873393
    22 0.928313 0.000000 0.000002 0.000000 0.000000 0.000000
    23 0.928311 0.000000 0.000001 0.000000 0.000000 0.000000
    24 3.784085 -0.427337 0.044204 -0.013864 -0.095075 0.166302
    25 1.189159 0.000000 0.000001 0.000000 0.000000 0.165814
    26 1.302900 0.000000 -0.000001 0.000000 0.000000 0.924954
    27 2.046984 0.000001 0.000000 0.002111 -0.133149 0.083449
    28 -0.000005 0.000007 3.713254 -6.170980 3.143636 6.213589
    29 18.045723 0.000000 0.000000 0.000000 0.000000 -0.194312
    30 17.597597 0.000000 0.000000 -0.078234 -0.080436 -0.587493
    31 0.000005 -0.000003 -3.713254 0.073269 3.094197 6.193402
    32 18.045721 0.000000 0.000000 0.000000 0.000000 -0.181315
    33 17.597597 0.000000 0.000000 -0.075896 -0.042318 -0.897888
  time 20
    0 0.000965 0.000151 0.001476 0.000000 0.000000 -1.571017
    1 0.042966 1.035188 9.742485 -1.570795 -1.570787 0.000000
    2 1.293670 0.684478 -0.000001 -0.000004 -0.000001 -0.060206
    3 5.309685 -0.003834 0.000000 0.000102 0.183149 0.052313
    4 4.826790 -0.004591 0.000000 0.000000 0.000000 -0.104653
    5 5.792767 -0.005304 0.000000 0.000000 0.000000 0.000003
    6 6.662322 -0.001452 0.000000 0.000000 -0.000001 0.000003
    7 -2.869899 1.399632 4.140401 -0.000100 -1.283646 -3.142292
    8 4.972048 0.000000 -0.000002 -0.070394 1.236206 0.084890
    9 11.585358 0.000000 0.000000 0.000000 0.000000 -0.017216
    10 10.127057 -0.000001 0.000001 -1.568804 0.000094 -0.000160
    11 2.162477 0.109716 -1.664490 1.414026 0.937314 0.644105
    12 0.928312 0.000000 0.000000 0.000000 0.000000 0.008755
    13 0.928313 0.000000 -0.000001 0.000000 0.000000 0.008709
    14 3.784085 -0.427338 -0.044205 0.002215 0.095986 0.043734
    15 1.189161 -0.000001 -0.000001 0.000000 0.000000 -0.061062
    16 1.302900 -0.000001 0.000001 0.000000 0.000000 -0.061064
    17 -2.869899 1.399667 -4.140396 0.000026 1.283590 -3.142315
    18 4.972047 0.000000 0.000000 0.375147 -0.914026 -0.069335
    19 11.585358 0.000000 0.000001 0.000000 0.000000 -0.078150
    20 10.127058 0.000000 0.000001 1.568700 0.165582 -0.000348
    21 2.162477 0.109715 1.664489 2.894817 -0.132148 0.873393
    22 0.928313 0.000000 0.000002 0.000000 0.000000 0.000000
    23 0.928311 0.000000 0.000001 0.000000 0.000000 0.000000
    24 3.784085 -0.427337 0.044204 -0.013864 -0.095075 0.166302
    25 1.189159 0.000000 0.000001 0.000000 0.000000 0.165814
    26 1.302900 0.000000 -0.000001 0.000000 0.000000 0.924954
    27 2.046984 0.000001 0.000000 0.003145 -0.183098 0.086064
    28 -0.000005 0.000007 3.713254 -6.171843 3.145170 6.211384
    29 18.045723 0.000000 0.000000 0.000000 0.000000 -0.217479
    30 17.597597 0.000000 0.000000 -0.076105 -0.081272 -0.565991
    31 0.000005 -0.000003 -3.713254 0.072886 3.096019 6.183719
    32 18.045721 0.000000 0.000000 0.000000 0.000000 -0.208631
    33 17.597597 0.000000 0.000000 -0.074219 -0.042515 -0.867773
  time 21
    0 0.000965 0.000151 0.001476 0.000000 0.000000 -1.571017
    1 0.042966 0.980499 9.742485 -1.570795 -1.570787 0.000000
    2 1.293670 0.684478 -0.000001 -0.000004 -0.000001 -0.060206
    3 5.309685 -0.003834 0.000000 0.000102 0.173741 0.052313
    4 4.826790 -0.004591 0.000000 0.000000 0.000000 -0.104653
    5 5.792767 -0.005304 0.000000 0.000000 0.000000 0.000003
    6 6.662322 -0.001452 0.000000 0.000000 -0.000001 0.000003
    7 -2.869899 1.399632 4.140401 -0.000100 -1.283646 -3.142292
    8 4.972048 0.000000 -0.000002 -0.061067 1.221198 0.092255
    9 11.585358 0.000000 0.000000 0.000000 0.000000 -0.017216
    10 10.127057 -0.000001 0.000001 -1.568804 0.000094 -0.000160
    11 2.162477 0.109716 -1.664490 1.425003 0.881042 0.658049
    12 0.928312 0.000000 0.000000 0.000000 0.000000 0.065730
    13 0.928313 0.000000 -0.000001 0.000000 0.000000 0.065584
    14 3.784085 -0.427338 -0.044205 0.007656 0.095698 0.100884
    15 1.189161 -0.000001 -0.000001 0.000000 0.000000 -0.004059
    16 1.302900 -0.000001 0.000001 0.000000 0.000000 -0.004007
    17 -2.869899 1.399667 -4.140396 0.000026 1.283590 -3.142315
    18 4.972047 0.000000 0.000000 0.376648 -0.923266 -0.069734
    19 11.585358 0.000000 0.000001 0.000000 0.000000 -0.078150
    20 10.127058 0.000000 0.000001 1.568700 0.165582 -0.000348
    21 2.162477 0.109715 1.664489 2.894817 -0.132148 0.873393
    22 0.928313 0.000000 0.000002 0.000000 0.000000 0.000000
    23 0.928311 0.000000 0.000001 0.000000 0.000000 0.000000
    24 3.784085 -0.427337 0.044204 -0.013864 -0.095075 0.166302
    25 1.189159 0.000000 0.000001 0.000000 0.000000 0.165814
    26 1.302900 0.000000 -0.000001 0.000000 0.000000 0.924954
    27 2.046984 0.000001 0.000000 0.002843 -0.173657 0.086064
    28 -0.000005 0.000007 3.713254 -6.174623 3.154662 6.247044
    29 18.045723 0.000000 0.000000 0.000000 0.000000 -0.278245
    30 17.597597 0.000000 0.000000 -0.070683 -0.083266 -0.469024
    31 0.000005 -0.000003 -3.713254 0.073269 3.103496 6.196949
    32 18.045721 0.000000 0.000000 0.000000 0.000000 -0.259483
    33 17.597597 0.000000 0.000000 -0.068448 -0.045632 -0.803202
  time 22
    0 0.000965 0.000151 0.001476 0.000000 0.000000 -1.571017
    1 0.042966 0.855495 9.742485 -1.570795 -1.570787 0.000000
    2 1.293670 0.684478 -0.000001 -0.000004 -0.000001 -0.060206
    3 5.309685 -0.003834 0.000000 0.000102 0.150766 0.052313
    4 4.826790 -0.004591 0.000000 0.000000 0.000000 -0.104653
    5 5.792767 -0.005304 0.000000 0.000000 0.000000 0.000003
    6 6.662322 -0.001452 0.000000 0.000000 -0.000001 0.000003
    7 -2.869899 1.399632 4.140401 -0.000100 -1.283646 -3.142292
    8 4.972048 0.000000 -0.000002 -0.062980 1.197406 0.088009
    9 11.585358 0.000000 0.000000 0.000000 0.000000 -0.017216
    10 10.127057 -0.000001 0.000001 -1.568804 0.000094 -0.000160
    11 2.162477 0.109716 -1.664490 1.444518 0.746414 0.684852
    12 0.928312 0.000000 0.000000 0.000000 0.000000 0.201504
    13 0.928313 0.000000 -0.000001 0.000000 0.000000 0.201450
    14 3.784085 -0.427338 -0.044205 0.020563 0.093792 0.237116
    15 1.189161 -0.000001 -0.000001 0.000000 0.000000 0.131639
    16 1.302900 -0.000001 0.000001 0.000000 0.000000 0.131638
    17 -2.869899 1.399667 -4.140396 0.000026 1.283590 -3.142315
    18 4.972047 0.000000 0.000000 0.380493 -0.946005 -0.070400
    19 11.585358 0.000000 0.000001 0.000000 0.000000 -0.078150
    20 10.127058 0.000000 0.000001 1.568700 0.165582 -0.000348
    21 2.162477 0.109715 1.664489 2.894817 -0.132148 0.873393
    22 0.928313 0.000000 0.000002 0.000000 0.000000 0.000000
    23 0.928311 0.000000 0.000001 0.000000 0.000000 0.000000
    24 3.784085 -0.427337 0.044204 -0.013864 -0.095075 0.166302
    25 1.189159 0.000000 0.000001 0.000000 0.000000 0.165814
    26 1.302900 0.000000 -0.000001 0.000000 0.000000 0.924954
    27 2.046984 0.000001 0.000000 0.002456 -0.150704 0.086125
    28 -0.000005 0.000007 3.713254 -6.178842 -3.116494 0.017919
    29 18.045723 0.000000 0.000000 0.000000 0.000000 -0.352852
    30 17.597597 0.000000 0.000000 -0.064094 -0.085825 -0.340240
    31 0.000005 -0.000003 -3.713254 0.074132 3.112987 6.218424
    32 18.045721 0.000000 0.000000 0.000000 0.000000 -0.322064
    33 17.597597 0.000000 0.000000 -0.061536 -0.049281 -0.718817
  time 23
    0 0.000965 0.000151 0.001476 0.000000 0.000000 -1.571017
    1 0.042966 0.671896 9.742485 -1.570795 -1.570787 0.000000
    2 1.293670 0.684478 -0.000001 -0.000004 -0.000001 -0.060206
    3 5.309685 -0.003834 0.000000 0.000034 0.118048 0.052313
    4 4.826790 -0.004591 0.000000 0.000000 0.000000 -0.104653
    5 5.792767 -0.005304 0.000000 0.000000 0.000000 0.000003
    6 6.662322 -0.001452 0.000000 0.000000 -0.000001 0.000003
    7 -2.869899 1.399632 4.140401 -0.000100 -1.283646 -3.142292
    8 4.972048 0.000000 -0.000002 -0.068242 1.165002 0.079604
    9 11.585358 0.000000 0.000000 0.000000 0.000000 -0.017216
    10 10.127057 -0.000001 0.000001 -1.568804 0.000094 -0.000160
    11 2.162477 0.109716 -1.664490 1.453994 0.654630 0.699518
    12 0.928312 0.000000 0.000000 0.000000 0.000000 0.293936
    13 0.928313 0.000000 -0.000001 0.000000 0.000000 0.293848
    14 3.784085 -0.427338 -0.044205 0.029156 0.091491 0.330007
    15 1.189161 -0.000001 -0.000001 0.000000 0.000000 0.224124
    16 1.302900 -0.000001 0.000001 0.000000 0.000000 0.224062
    17 -2.869899 1.399667 -4.140396 0.000026 1.283590 -3.142315
    18 4.972047 0.000000 0.000000 0.386309 -0.978386 -0.071931
    19 11.585358 0.000000 0.000001 0.000000 0.000000 -0.078150
    20 10.127058 0.000000 0.000001 1.568700 0.165582 -0.000348
    21 2.162477 0.109715 1.664489 2.894817 -0.132148 0.873393
    22 0.928313 0.000000 0.000002 0.000000 0.000000 0.000000
    23 0.928311 0.000000 0.000001 0.000000 0.000000 0.000000
    24 3.784085 -0.427337 0.044204 -0.013864 -0.095075 0.166302
    25 1.189159 0.000000 0.000001 0.000000 0.000000 0.165814
    26 1.302900 0.000000 -0.000001 0.000000 0.000000 0.924954
    27 2.046984 0.000001 0.000000 0.001982 -0.118043 0.086247
    28 -0.000005 0.000007 3.713254 -6.184019 -3.103551 0.075531
    29 18.045723 0.000000 0.000000 0.000000 0.000000 -0.436266
    30 17.597597 0.000000 0.000000 -0.056974 -0.089172 -0.199031
    31 0.000005 -0.000003 -3.713254 0.074132 3.123533 6.241049
    32 18.045721 0.000000 0.000000 0.000000 0.000000 -0.391808
    33 17.597597 0.000000 0.000000 -0.053853 -0.053738 -0.626163
  time 24
    0 0.000965 0.000151 0.001476 0.000000 0.000000 -1.571017
    1 0.042966 0.453139 9.742485 -1.570795 -1.570787 0.000000
    2 1.293670 0.684478 -0.000001 -0.000004 -0.000001 -0.060206
    3 5.309685 -0.003834 0.000000 0.000034 0.079194 0.052295
    4 4.826790 -0.004591 0.000000 0.000000 0.000000 -0.104653
    5 5.792767 -0.005304 0.000000 0.000000 0.000000 0.000003
    6 6.662322 -0.001452 0.000000 0.000000 -0.000001 0.000003
    7 -2.869899 1.399632 4.140401 -0.000100 -1.283646 -3.142292
    8 4.972048 0.000000 -0.000002 -0.073025 1.126715 0.071459
    9 11.585358 0.000000 0.000000 0.000000 0.000000 -0.017216
    10 10.127057 -0.000001 0.000001 -1.568804 0.000094 -0.000160
    11 2.162477 0.109716 -1.664490 1.456058 0.631750 0.702772
    12 0.928312 0.000000 0.000000 0.000000 0.000000 0.316978
    13 0.928313 0.000000 -0.000001 0.000000 0.000000 0.316995
    14 3.784085 -0.427338 -0.044205 0.031206 0.090796 0.353197
    15 1.189161 -0.000001 -0.000001 0.000000 0.000000 0.247235
    16 1.302900 -0.000001 0.000001 0.000000 0.000000 0.247195
    17 -2.869899 1.399667 -4.140396 0.000026 1.283590 -3.142315
    18 4.972047 0.000000 0.000000 0.393438 -1.016713 -0.074127
    19 11.585358 0.000000 0.000001 0.000000 0.000000 -0.078150
    20 10.127058 0.000000 0.000001 1.568700 0.165582 -0.000348
    21 2.162477 0.109715 1.664489 2.894817 -0.132148 0.873393
    22 0.928313 0.000000 0.000002 0.000000 0.000000 0.000000
    23 0.928311 0.000000 0.000001 0.000000 0.000000 0.000000
    24 3.784085 -0.427337 0.044204 -0.013864 -0.095075 0.166302
    25 1.189159 0.000000 0.000001 0.000000 0.000000 0.165814
    26 1.302900 0.000000 -0.000001 0.000000 0.000000 0.924954
    27 2.046984 0.000001 0.000000 0.001292 -0.079158 0.086308
    28 -0.000005 0.000007 3.713254 -6.189963 -3.091567 0.122023
    29 18.045723 0.000000 0.000000 0.000000 0.000000 -0.523382
    30 17.597597 0.000000 0.000000 -0.049600 -0.093208 -0.064883
    31 0.000005 -0.000003 -3.713254 0.074227 -3.148848 6.257922
    32 18.045721 0.000000 0.000000 0.000000 0.000000 -0.464701
    33 17.597597 0.000000 0.000000 -0.045968 -0.058630 -0.536143
  time 25
    0 0.000965 0.000151 0.001476 0.000000 0.000000 -1.571017
    1 0.042966 0.210944 9.742485 -1.570795 -1.570787 0.000000
    2 1.293670 0.684478 -0.000001 -0.000004 -0.000001 -0.060206
    3 5.309685 -0.003834 0.000000 0.000017 0.037883 0.052295
    4 4.826790 -0.004591 0.000000 0.000000 0.000000 -0.104653
    5 5.792767 -0.005304 0.000000 0.000000 0.000000 0.000003
    6 6.662322 -0.001452 0.000000 0.000000 -0.000001 0.000003
    7 -2.869899 1.399632 4.140401 -0.000100 -1.283646 -3.142292
    8 4.972048 0.000000 -0.000002 -0.077967 1.086892 0.062967
    9 11.585358 0.000000 0.000000 0.000000 0.000000 -0.017216
    10 10.127057 -0.000001 0.000001 -1.568804 0.000094 -0.000160
    11 2.162477 0.109716 -1.664490 1.456808 0.621326 0.704321
    12 0.928312 0.000000 0.000000 0.000000 0.000000 0.327433
    13 0.928313 0.000000 -0.000001 0.000000 0.000000 0.327385
    14 3.784085 -0.427338 -0.044205 0.032212 0.090521 0.363663
    15 1.189161 -0.000001 -0.000001 0.000000 0.000000 0.257599
    16 1.302900 -0.000001 0.000001 0.000000 0.000000 0.257613
    17 -2.869899 1.399667 -4.140396 0.000026 1.283590 -3.142315
    18 4.972047 0.000000 0.000000 0.402067 -1.057691 -0.077321
    19 11.585358 0.000000 0.000001 0.000000 0.000000 -0.078150
    20 10.127058 0.000000 0.000001 1.568700 0.165582 -0.000348
    21 2.162477 0.109715 1.664489 2.894817 -0.132148 0.873393
    22 0.928313 0.000000 0.000002 0.000000 0.000000 0.000000
    23 0.928311 0.000000 0.000001 0.000000 0.000000 0.000000
    24 3.784085 -0.427337 0.044204 -0.013864 -0.095075 0.166302
    25 1.189159 0.000000 0.000001 0.000000 0.000000 0.165814
    26 1.302900 0.000000 -0.000001 0.000000 0.000000 0.924954
    27 2.046984 0.000001 0.000000 0.000517 -0.037823 0.086368
    28 -0.000005 0.000007 3.713254 -6.194661 -3.081788 0.143974
    29 18.045723 0.000000 0.000000 0.000000 0.000000 -0.609461
    30 17.597597 0.000000 0.000000 -0.042454 -0.097736 0.042812
    31 0.000005 -0.000003 -3.713254 0.074227 -3.138782 -0.020662
    32 18.045721 0.000000 0.000000 0.000000 0.000000 -0.535941
    33 17.597597 0.000000 0.000000 -0.038016 -0.063679 -0.460163
  time 26
    0 0.000965 0.000151 0.001476 0.000000 0.000000 -1.571017
    1 0.042966 -0.003906 9.742485 -1.570795 -1.570787 0.000000
    2 1.293670 0.684478 -0.000001 -0.000004 -0.000001 -0.060206
    3 5.309685 -0.003834 0.000000 0.000000 -0.002073 0.052295
    4 4.826790 -0.004591 0.000000 0.000000 0.000000 -0.104653
    5 5.792767 -0.005304 0.000000 0.000000 0.000000 0.000003
    6 6.662322 -0.001452 0.000000 0.000000 -0.000001 0.000003
    7 -2.869899 1.399632 4.140401 -0.000100 -1.283646 -3.142292
    8 4.972048 0.000000 -0.000002 -0.082272 1.048263 0.055342
    9 11.585358 0.000000 0.000000 0.000000 0.000000 -0.017216
    10 10.127057 -0.000001 0.000001 -1.568804 0.000094 -0.000160
    11 2.162477 0.109716 -1.664490 1.456808 0.621768 0.704269
    12 0.928312 0.000000 0.000000 0.000000 0.000000 0.327041
    13 0.928313 0.000000 -0.000001 0.000000 0.000000 0.327003
    14 3.784085 -0.427338 -0.044205 0.032176 0.090533 0.363273
    15 1.189161 -0.000001 -0.000001 0.000000 0.000000 0.257181
    16 1.302900 -0.000001 0.000001 0.000000 0.000000 0.257132
    17 -2.869899 1.399667 -4.140396 0.000026 1.283590 -3.142315
    18 4.972047 0.000000 0.000000 0.411072 -1.097383 -0.081514
    19 11.585358 0.000000 0.000001 0.000000 0.000000 -0.078150
    20 10.127058 0.000000 0.000001 1.568700 0.165582 -0.000348
    21 2.162477 0.109715 1.664489 2.894817 -0.132148 0.873393
    22 0.928313 0.000000 0.000002 0.000000 0.000000 0.000000
    23 0.928311 0.000000 0.000001 0.000000 0.000000 0.000000
    24 3.784085 -0.427337 0.044204 -0.013864 -0.095075 0.166302
    25 1.189159 0.000000 0.000001 0.000000 0.000000 0.165814
    26 1.302900 0.000000 -0.000001 0.000000 0.000000 0.924954
    27 2.046984 0.000001 0.000000 0.000000 0.002124 0.086368
    28 -0.000005 0.000007 3.713254 -6.196770 -3.075843 0.126432
    29 18.045723 0.000000 0.000000 0.000000 0.000000 -0.688731
    30 17.597597 0.000000 0.000000 -0.035663 -0.102215 0.104293
    31 0.000005 -0.000003 -3.713254 0.074419 -3.130825 6.247664
    32 18.045721 0.000000 0.000000 0.000000 0.000000 -0.601355
    33 17.597597 0.000000 0.000000 -0.030400 -0.068570 -0.409171
  time 27
    0 0.000965 0.000151 0.001476 0.000000 0.000000 -1.571017
    1 0.042966 -0.207038 9.742485 -1.570795 -1.570787 0.000000
    2 1.293670 0.684478 -0.000001 -0.000004 -0.000001 -0.060206
    3 5.309685 -0.003834 0.000000 -0.000017 -0.037368 0.052295
    4 4.826790 -0.004591 0.000000 0.000000 0.000000 -0.104653
    5 5.792767 -0.005304 0.000000 0.000000 0.000000 0.000003
    6 6.662322 -0.001452 0.000000 0.000000 -0.000001 0.000003
    7 -2.869899 1.399632 4.140401 -0.000100 -1.283646 -3.142292
    8 4.972048 0.000000 -0.000002 -0.085620 1.014494 0.048757
    9 11.585358 0.000000 0.000000 0.000000 0.000000 -0.017216
    10 10.127057 -0.000001 0.000001 -1.568804 0.000094 -0.000160
    11 2.162477 0.109716 -1.664490 1.456058 0.631132 0.702875
    12 0.928312 0.000000 0.000000 0.000000 0.000000 0.317588
    13 0.928313 0.000000 -0.000001 0.000000 0.000000 0.317568
    14 3.784085 -0.427338 -0.044205 0.031253 0.090772 0.353849
    15 1.189161 -0.000001 -0.000001 0.000000 0.000000 0.247820
    16 1.302900 -0.000001 0.000001 0.000000 0.000000 0.247729
    17 -2.869899 1.399667 -4.140396 0.000026 1.283590 -3.142315
    18 4.972047 0.000000 0.000000 0.420076 -1.132094 -0.085907
    19 11.585358 0.000000 0.000001 0.000000 0.000000 -0.078150
    20 10.127058 0.000000 0.000001 1.568700 0.165582 -0.000348
    21 2.162477 0.109715 1.664489 2.894817 -0.132148 0.873393
    22 0.928313 0.000000 0.000002 0.000000 0.000000 0.000000
    23 0.928311 0.000000 0.000001 0.000000 0.000000 0.000000
    24 3.784085 -0.427337 0.044204 -0.013864 -0.095075 0.166302
    25 1.189159 0.000000 0.000001 0.000000 0.000000 0.165814
    26 1.302900 0.000000 -0.000001 0.000000 0.000000 0.924954
    27 2.046984 0.000001 0.000000 -0.000517 0.037351 0.086368
    28 -0.000005 0.000007 3.713254 -6.190155 -3.081500 6.247906
    29 18.045723 0.000000 0.000000 0.000000 0.000000 -0.792425
    30 17.597597 0.000000 0.000000 -0.027251 -0.106768 0.046296
    31 0.000005 -0.000003 -3.713254 0.075761 -3.127182 6.153712
    32 18.045721 0.000000 0.000000 0.000000 0.000000 -0.688811
    33 17.597597 0.000000 0.000000 -0.021207 -0.073935 -0.415776
  time 28
    0 0.000965 0.000151 0.001476 0.000000 0.000000 -1.571017
    1 0.042966 -0.355480 9.742485 -1.570795 -1.570787 0.000000
    2 1.293670 0.684478 -0.000001 -0.000004 -0.000001 -0.060206
    3 5.309685 -0.003834 0.000000 -0.000034 -0.064046 0.052295
    4 4.826790 -0.004591 0.000000 0.000000 0.000000 -0.104653
    5 5.792767 -0.005304 0.000000 0.000000 0.000000 0.000003
    6 6.662322 -0.001452 0.000000 0.000000 -0.000001 0.000003
    7 -2.869899 1.399632 4.140401 -0.000100 -1.283646 -3.142292
    8 4.972048 0.000000 -0.000002 -0.087852 0.988998 0.043991
    9 11.585358 0.000000 0.000000 0.000000 0.000000 -0.017216
    10 10.127057 -0.000001 0.000001 -1.568804 0.000094 -0.000160
    11 2.162477 0.109716 -1.664490 1.454650 0.647563 0.700500
    12 0.928312 0.000000 0.000000 0.000000 0.000000 0.301036
    13 0.928313 0.000000 -0.000001 0.000000 0.000000 0.301067
    14 3.784085 -0.427338 -0.044205 0.029743 0.091335 0.337129
    15 1.189161 -0.000001 -0.000001 0.000000 0.000000 0.231270
    16 1.302900 -0.000001 0.000001 0.000000 0.000000 0.231221
    17 -2.869899 1.399667 -4.140396 0.000026 1.283590 -3.142315
    18 4.972047 0.000000 0.000000 0.427955 -1.158610 -0.090233
    19 11.585358 0.000000 0.000001 0.000000 0.000000 -0.078150
    20 10.127058 0.000000 0.000001 1.568700 0.165582 -0.000348
    21 2.162477 0.109715 1.664489 2.894817 -0.132148 0.873393
    22 0.928313 0.000000 0.000002 0.000000 0.000000 0.000000
    23 0.928311 0.000000 0.000001 0.000000 0.000000 0.000000
    24 3.784085 -0.427337 0.044204 -0.013864 -0.095075 0.166302
    25 1.189159 0.000000 0.000001 0.000000 0.000000 0.165814
    26 1.302900 0.000000 -0.000001 0.000000 0.000000 0.924954
    27 2.046984 0.000001 0.000000 -0.000948 0.063963 0.086308
    28 -0.000005 0.000007 3.713254 -6.180951 -3.098278 5.986211
    29 18.045723 0.000000 0.000000 0.000000 0.000000 -0.890421
    30 17.597597 0.000000 0.000000 -0.017672 -0.109106 -0.118019
    31 0.000005 -0.000003 -3.713254 0.077774 -3.127182 6.010100
    32 18.045721 0.000000 0.000000 0.000000 0.000000 -0.770363
    33 17.597597 0.000000 0.000000 -0.011108 -0.077998 -0.477668
  time 29
    0 0.000965 0.000151 0.001476 0.000000 0.000000 -1.571017
    1 0.042966 -0.437513 9.742485 -1.570795 -1.570787 0.000000
    2 1.293670 0.684478 -0.000001 -0.000004 -0.000001 -0.060206
    3 5.309685 -0.003834 0.000000 -0.000034 -0.078427 0.052295
    4 4.826790 -0.004591 0.000000 0.000000 0.000000 -0.104653
    5 5.792767 -0.005304 0.000000 0.000000 0.000000 0.000003
    6 6.662322 -0.001452 0.000000 0.000000 -0.000001 0.000003
    7 -2.869899 1.399632 4.140401 -0.000100 -1.283646 -3.142292
    8 4.972048 0.000000 -0.000002 -0.089446 0.976036 0.041131
    9 11.585358 0.000000 0.000000 0.000000 0.000000 -0.017216
    10 10.127057 -0.000001 0.000001 -1.568804 0.000094 -0.000160
    11 2.162477 0.109716 -1.664490 1.452680 0.669294 0.697246
    12 0.928312 0.000000 0.000000 0.000000 0.000000 0.279300
    13 0.928313 0.000000 -0.000001 0.000000 0.000000 0.279219
    14 3.784085 -0.427338 -0.044205 0.027802 0.091971 0.315285
    15 1.189161 -0.000001 -0.000001 0.000000 0.000000 0.209413
    16 1.302900 -0.000001 0.000001 0.000000 0.000000 0.209371
    17 -2.869899 1.399667 -4.140396 0.000026 1.283590 -3.142315
    18 4.972047 0.000000 0.000000 0.432176 -1.172832 -0.092762
    19 11.585358 0.000000 0.000001 0.000000 0.000000 -0.078150
    20 10.127058 0.000000 0.000001 1.568700 0.165582 -0.000348
    21 2.162477 0.109715 1.664489 2.894817 -0.132148 0.873393
    22 0.928313 0.000000 0.000002 0.000000 0.000000 0.000000
    23 0.928311 0.000000 0.000001 0.000000 0.000000 0.000000
    24 3.784085 -0.427337 0.044204 -0.013864 -0.095075 0.166302
    25 1.189159 0.000000 0.000001 0.000000 0.000000 0.165814
    26 1.302900 0.000000 -0.000001 0.000000 0.000000 0.924954
    27 2.046984 0.000001 0.000000 -0.001292 0.078420 0.086308
    28 -0.000005 0.000007 3.713254 -6.177883 -3.109304 5.830919
    29 18.045723 0.000000 0.000000 0.000000 0.000000 -0.888867
    30 17.597597 0.000000 0.000000 -0.011794 -0.108983 -0.275550
    31 0.000005 -0.000003 -3.713254 0.078732 -3.126127 5.942703
    32 18.045721 0.000000 0.000000 0.000000 0.000000 -0.758083
    33 17.597597 0.000000 0.000000 -0.004901 -0.079615 -0.557897
  time 30
    0 0.000965 0.000151 0.001476 0.000000 0.000000 -1.571017
    1 0.042966 -0.363292 9.742485 -1.570795 -1.570787 0.000000
    2 1.293670 0.684478 -0.000001 -0.000004 -0.000001 -0.060206
    3 5.309685 -0.003834 0.000000 -0.000034 -0.064165 0.052295
    4 4.826790 -0.004591 0.000000 0.000000 0.000000 -0.104653
    5 5.792767 -0.005304 0.000000 0.000000 0.000000 0.000003
    6 6.662322 -0.001452 0.000000 0.000000 -0.000001 0.000003
    7 -2.869899 1.399632 4.140401 -0.000100 -1.283646 -3.142292
    8 4.972048 0.000000 -0.000002 -0.089765 0.990532 0.042518
    9 11.585358 0.000000 0.000000 0.000000 0.000000 -0.017216
    10 10.127057 -0.000001 0.000001 -1.568804 0.000094 -0.000160
    11 2.162477 0.109716 -1.664490 1.441891 0.768587 0.680875
    12 0.928312 0.000000 0.000000 0.000000 0.000000 0.179245
    13 0.928313 0.000000 -0.000001 0.000000 0.000000 0.179181
    14 3.784085 -0.427338 -0.044205 0.018466 0.094284 0.214794
    15 1.189161 -0.000001 -0.000001 0.000000 0.000000 0.109406
    16 1.302900 -0.000001 0.000001 0.000000 0.000000 0.109360
    17 -2.869899 1.399667 -4.140396 0.000026 1.283590 -3.142315
    18 4.972047 0.000000 0.000000 0.427955 -1.158610 -0.090233
    19 11.585358 0.000000 0.000001 0.000000 0.000000 -0.078150
    20 10.127058 0.000000 0.000001 1.568700 0.165582 -0.000348
    21 2.162477 0.109715 1.664489 2.894817 -0.132148 0.873393
    22 0.928313 0.000000 0.000002 0.000000 0.000000 0.000000
    23 0.928311 0.000000 0.000001 0.000000 0.000000 0.000000
    24 3.784085 -0.427337 0.044204 -0.013864 -0.095075 0.166302
    25 1.189159 0.000000 0.000001 0.000000 0.000000 0.165814
    26 1.302900 0.000000 -0.000001 0.000000 0.000000 0.924954
    27 2.046984 0.000001 0.000000 -0.000948 0.064081 0.086308
    28 -0.000005 0.000007 3.713254 -6.183731 -3.093580 6.011997
    29 18.045723 0.000000 0.000000 0.000000 0.000000 -0.569049
    30 17.597597 0.000000 0.000000 -0.015138 -0.109106 -0.413687
    31 0.000005 -0.000003 -3.713254 0.075761 -3.115582 6.125335
    32 18.045721 0.000000 0.000000 0.000000 0.000000 -0.428176
    33 17.597597 0.000000 0.000000 -0.008793 -0.079398 -0.704822
  time 31
    0 0.000965 0.000151 0.001476 0.000000 0.000000 -1.571017
    1 0.042966 -0.101566 9.742485 -1.570795 -1.570787 0.000000
    2 1.293670 0.684478 -0.000001 -0.000004 -0.000001 -0.060206
    3 5.309685 -0.003834 0.000000 0.000000 -0.019163 0.052295
    4 4.826790 -0.004591 0.000000 0.000000 0.000000 -0.104653
    5 5.792767 -0.005304 0.000000 0.000000 0.000000 0.000003
    6 6.662322 -0.001452 0.000000 0.000000 -0.000001 0.000003
    7 -2.869899 1.399632 4.140401 -0.000100 -1.283646 -3.142292
    8 4.972048 0.000000 -0.000002 -0.088330 1.034960 0.048150
    9 11.585358 0.000000 0.000000 0.000000 0.000000 -0.017216
    10 10.127057 -0.000001 0.000001 -1.568804 0.000094 -0.000160
    11 2.162477 0.109716 -1.664490 1.431289 0.843940 0.666157
    12 0.928312 0.000000 0.000000 0.000000 0.000000 0.103148
    13 0.928313 0.000000 -0.000001 0.000000 0.000000 0.103093
    14 3.784085 -0.427338 -0.044205 0.011227 0.095362 0.138406
    15 1.189161 -0.000001 -0.000001 0.000000 0.000000 0.033387
    16 1.302900 -0.000001 0.000001 0.000000 0.000000 0.033230
    17 -2.869899 1.399667 -4.140396 0.000026 1.283590 -3.142315
    18 4.972047 0.000000 0.000000 0.415386 -1.114257 -0.083511
    19 11.585358 0.000000 0.000001 0.000000 0.000000 -0.078150
    20 10.127058 0.000000 0.000001 1.568700 0.165582 -0.000348
    21 2.162477 0.109715 1.664489 2.894817 -0.132148 0.873393
    22 0.928313 0.000000 0.000002 0.000000 0.000000 0.000000
    23 0.928311 0.000000 0.000001 0.000000 0.000000 0.000000
    24 3.784085 -0.427337 0.044204 -0.013864 -0.095075 0.166302
    25 1.189159 0.000000 0.000001 0.000000 0.000000 0.165814
    26 1.302900 0.000000 -0.000001 0.000000 0.000000 0.924954
    27 2.046984 0.000001 0.000000 -0.000129 0.019207 0.086368
    28 -0.000005 0.000007 3.713254 -6.192552 -3.081212 6.241772
    29 18.045723 0.000000 0.000000 0.000000 0.000000 -0.273952
    30 17.597597 0.000000 0.000000 -0.024666 -0.105710 -0.478423
    31 0.000005 -0.000003 -3.713254 0.071065 -3.113377 0.027177
    32 18.045721 0.000000 0.000000 0.000000 0.000000 -0.157543
    33 17.597597 0.000000 0.000000 -0.018724 -0.073935 -0.790593
  time 32
    0 0.000965 0.000151 0.001476 0.000000 0.000000 -1.571017
    1 0.042966 0.218757 9.742485 -1.570795 -1.570787 0.000000
    2 1.293670 0.684478 -0.000001 -0.000004 -0.000001 -0.060206
    3 5.309685 -0.003834 0.000000 0.000017 0.038435 0.052295
    4 4.826790 -0.004591 0.000000 0.000000 0.000000 -0.104653
    5 5.792767 -0.005304 0.000000 0.000000 0.000000 0.000003
    6 6.662322 -0.001452 0.000000 0.000000 -0.000001 0.000003
    7 -2.869899 1.399632 4.140401 -0.000100 -1.283646 -3.142292
    8 4.972048 0.000000 -0.000002 -0.085620 1.092179 0.056295
    9 11.585358 0.000000 0.000000 0.000000 0.000000 -0.017216
    10 10.127057 -0.000001 0.000001 -1.568804 0.000094 -0.000160
    11 2.162477 0.109716 -1.664490 1.446957 0.725389 0.688415
    12 0.928312 0.000000 0.000000 0.000000 0.000000 0.222717
    13 0.928313 0.000000 -0.000001 0.000000 0.000000 0.222649
    14 3.784085 -0.427338 -0.044205 0.022493 0.093337 0.258482
    15 1.189161 -0.000001 -0.000001 0.000000 0.000000 0.152869
    16 1.302900 -0.000001 0.000001 0.000000 0.000000 0.152847
    17 -2.869899 1.399667 -4.140396 0.000026 1.283590 -3.142315
    18 4.972047 0.000000 0.000000 0.401879 -1.057209 -0.077321
    19 11.585358 0.000000 0.000001 0.000000 0.000000 -0.078150
    20 10.127058 0.000000 0.000001 1.568700 0.165582 -0.000348
    21 2.162477 0.109715 1.664489 2.894817 -0.132148 0.873393
    22 0.928313 0.000000 0.000002 0.000000 0.000000 0.000000
    23 0.928311 0.000000 0.000001 0.000000 0.000000 0.000000
    24 3.784085 -0.427337 0.044204 -0.013864 -0.095075 0.166302
    25 1.189159 0.000000 0.000001 0.000000 0.000000 0.165814
    26 1.302900 0.000000 -0.000001 0.000000 0.000000 0.924954
    27 2.046984 0.000001 0.000000 0.000517 -0.038354 0.086368
    28 -0.000005 0.000007 3.713254 -6.185553 -3.101921 6.179942
    29 18.045723 0.000000 0.000000 0.000000 0.000000 -0.510873
    30 17.597597 0.000000 0.000000 -0.038020 -0.097958 -0.303425
    31 0.000005 -0.000003 -3.713254 0.071352 -3.140891 6.171160
    32 18.045721 0.000000 0.000000 0.000000 0.000000 -0.520354
    33 17.597597 0.000000 0.000000 -0.032480 -0.063284 -0.566442
  time 33
    0 0.000965 0.000151 0.001476 0.000000 0.000000 -1.571017
    1 0.042966 0.515641 9.742485 -1.570795 -1.570787 0.000000
    2 1.293670 0.684478 -0.000001 -0.000004 -0.000001 -0.060206
    3 5.309685 -0.003834 0.000000 0.000034 0.090675 0.052295
    4 4.826790 -0.004591 0.000000 0.000000 0.000000 -0.104653
    5 5.792767 -0.005304 0.000000 0.000000 0.000000 0.000003
    6 6.662322 -0.001452 0.000000 0.000000 -0.000001 0.000003
    7 -2.869899 1.399632 4.140401 -0.000100 -1.283646 -3.142292
    8 4.972048 0.000000 -0.000002 -0.081554 1.144366 0.065134
    9 11.585358 0.000000 0.000000 0.000000 0.000000 -0.017216
    10 10.127057 -0.000001 0.000001 -1.568804 0.000094 -0.000160
    11 2.162477 0.109716 -1.664490 1.460467 0.573977 0.710725
    12 0.928312 0.000000 0.000000 0.000000 0.000000 0.375130
    13 0.928313 0.000000 -0.000001 0.000000 0.000000 0.375131
    14 3.784085 -0.427338 -0.044205 0.036443 0.088879 0.411651
    15 1.189161 -0.000001 -0.000001 0.000000 0.000000 0.305409
    16 1.302900 -0.000001 0.000001 0.000000 0.000000 0.305321
    17 -2.869899 1.399667 -4.140396 0.000026 1.283590 -3.142315
    18 4.972047 0.000000 0.000000 0.391280 -1.005464 -0.073461
    19 11.585358 0.000000 0.000001 0.000000 0.000000 -0.078150
    20 10.127058 0.000000 0.000001 1.568700 0.165582 -0.000348
    21 2.162477 0.109715 1.664489 2.894817 -0.132148 0.873393
    22 0.928313 0.000000 0.000002 0.000000 0.000000 0.000000
    23 0.928311 0.000000 0.000001 0.000000 0.000000 0.000000
    24 3.784085 -0.427337 0.044204 -0.013864 -0.095075 0.166302
    25 1.189159 0.000000 0.000001 0.000000 0.000000 0.165814
    26 1.302900 0.000000 -0.000001 0.000000 0.000000 0.924954
    27 2.046984 0.000001 0.000000 0.001336 -0.090635 0.086308
    28 -0.000005 0.000007 3.713254 -6.177883 3.155333 6.082837
    29 18.045723 0.000000 0.000000 0.000000 0.000000 -0.757194
    30 17.597597 0.000000 0.000000 -0.053528 -0.091313 -0.154422
    31 0.000005 -0.000003 -3.713254 0.068093 3.111549 6.008470
    32 18.045721 0.000000 0.000000 0.000000 0.000000 -0.875452
    33 17.597597 0.000000 0.000000 -0.049457 -0.054882 -0.374992
  time 34
    0 0.000965 0.000151 0.001476 0.000000 0.000000 -1.571017
    1 0.042966 0.769555 9.742485 -1.570795 -1.570787 0.000000
    2 1.293670 0.684478 -0.000001 -0.000004 -0.000001 -0.060206
    3 5.309685 -0.003834 0.000000 0.000102 0.136301 0.052313
    4 4.826790 -0.004591 0.000000 0.000000 0.000000 -0.104653
    5 5.792767 -0.005304 0.000000 0.000000 0.000000 0.000003
    6 6.662322 -0.001452 0.000000 0.000000 -0.000001 0.000003
    7 -2.869899 1.399632 4.140401 -0.000100 -1.283646 -3.142292
    8 4.972048 0.000000 -0.000002 -0.076771 1.189561 0.074059
    9 11.585358 0.000000 0.000000 0.000000 0.000000 -0.017216
    10 10.127057 -0.000001 0.000001 -1.568804 0.000094 -0.000160
    11 2.162477 0.109716 -1.664490 1.465252 0.500832 0.720021
    12 0.928312 0.000000 0.000000 0.000000 0.000000 0.448788
    13 0.928313 0.000000 -0.000001 0.000000 0.000000 0.448774
    14 3.784085 -0.427338 -0.044205 0.042891 0.085954 0.485390
    15 1.189161 -0.000001 -0.000001 0.000000 0.000000 0.378920
    16 1.302900 -0.000001 0.000001 0.000000 0.000000 0.378886
    17 -2.869899 1.399667 -4.140396 0.000026 1.283590 -3.142315
    18 4.972047 0.000000 0.000000 0.382932 -0.960468 -0.071065
    19 11.585358 0.000000 0.000001 0.000000 0.000000 -0.078150
    20 10.127058 0.000000 0.000001 1.568700 0.165582 -0.000348
    21 2.162477 0.109715 1.664489 2.894817 -0.132148 0.873393
    22 0.928313 0.000000 0.000002 0.000000 0.000000 0.000000
    23 0.928311 0.000000 0.000001 0.000000 0.000000 0.000000
    24 3.784085 -0.427337 0.044204 -0.013864 -0.095075 0.166302
    25 1.189159 0.000000 0.000001 0.000000 0.000000 0.165814
    26 1.302900 0.000000 -0.000001 0.000000 0.000000 0.924954
    27 2.046984 0.000001 0.000000 0.002283 -0.136158 0.086186
    28 -0.000005 0.000007 3.713254 -6.174815 3.147855 6.129137
    29 18.045723 0.000000 0.000000 0.000000 0.000000 -0.551359
    30 17.597597 0.000000 0.000000 -0.065463 -0.086539 -0.314199
    31 0.000005 -0.000003 -3.713254 0.068956 3.101004 6.066183
    32 18.045721 0.000000 0.000000 0.000000 0.000000 -0.628513
    33 17.597597 0.000000 0.000000 -0.062643 -0.049202 -0.564687
  time 35
    0 0.000965 0.000151 0.001476 0.000000 0.000000 -1.571017
    1 0.042966 1.035188 9.742485 -1.570795 -1.570787 0.000000
    2 1.293670 0.684478 -0.000001 -0.000004 -0.000001 -0.060206
    3 5.309685 -0.003834 0.000000 0.000102 0.183149 0.052313
    4 4.826790 -0.004591 0.000000 0.000000 0.000000 -0.104653
    5 5.792767 -0.005304 0.000000 0.000000 0.000000 0.000003
    6 6.662322 -0.001452 0.000000 0.000000 -0.000001 0.000003
    7 -2.869899 1.399632 4.140401 -0.000100 -1.283646 -3.142292
    8 4.972048 0.000000 -0.000002 -0.070394 1.236206 0.084890
    9 11.585358 0.000000 0.000000 0.000000 0.000000 -0.017216
    10 10.127057 -0.000001 0.000001 -1.568804 0.000094 -0.000160
    11 2.162477 0.109716 -1.664490 1.466003 0.487228 0.721518
    12 0.928312 0.000000 0.000000 0.000000 0.000000 0.462465
    13 0.928313 0.000000 -0.000001 0.000000 0.000000 0.462411
    14 3.784085 -0.427338 -0.044205 0.044125 0.085295 0.499070
    15 1.189161 -0.000001 -0.000001 0.000000 0.000000 0.392586
    16 1.302900 -0.000001 0.000001 0.000000 0.000000 0.392617
    17 -2.869899 1.399667 -4.140396 0.000026 1.283590 -3.142315
    18 4.972047 0.000000 0.000000 0.375147 -0.914026 -0.069335
    19 11.585358 0.000000 0.000001 0.000000 0.000000 -0.078150
    20 10.127058 0.000000 0.000001 1.568700 0.165582 -0.000348
    21 2.162477 0.109715 1.664489 2.894817 -0.132148 0.873393
    22 0.928313 0.000000 0.000002 0.000000 0.000000 0.000000
    23 0.928311 0.000000 0.000001 0.000000 0.000000 0.000000
    24 3.784085 -0.427337 0.044204 -0.013864 -0.095075 0.166302
    25 1.189159 0.000000 0.000001 0.000000 0.000000 0.165814
    26 1.302900 0.000000 -0.000001 0.000000 0.000000 0.924954
    27 2.046984 0.000001 0.000000 0.003145 -0.183098 0.086064
    28 -0.000005 0.000007 3.713254 -6.171843 3.145170 6.211384
    29 18.045723 0.000000 0.000000 0.000000 0.000000 -0.217479
    30 17.597597 0.000000 0.000000 -0.076105 -0.081272 -0.565991
    31 0.000005 -0.000003 -3.713254 0.072886 3.096019 6.183719
    32 18.045721 0.000000 0.000000 0.000000 0.000000 -0.208631
    33 17.597597 0.000000 0.000000 -0.074219 -0.042515 -0.867773
end
