version 1
nodes
  0 "Bip01" -1
  1 "Bip01 Pelvis" 0
  2 "Bip01 Spine" 1
  3 "Bip01 Spine1" 2
  4 "Bip01 Spine2" 3
  5 "Bip01 Spine3" 4
  6 "Bip01 Neck" 5
  7 "Bip01 L Arm" 6
  8 "Bip01 L Arm1" 7
  9 "Bip01 L Arm2" 8
  10 "Bip01 L Hand" 9
  11 "Bip01 L Finger0" 10
  12 "Bip01 L Finger01" 11
  13 "Bip01 L Finger02" 12
  14 "Bip01 L Finger1" 10
  15 "Bip01 L Finger11" 14
  16 "Bip01 L Finger12" 15
  17 "Bip01 R Arm" 6
  18 "Bip01 R Arm1" 17
  19 "Bip01 R Arm2" 18
  20 "Bip01 R Hand" 19
  21 "Bip01 R Finger0" 20
  22 "Bip01 R Finger01" 21
  23 "Bip01 R Finger02" 22
  24 "Bip01 R Finger1" 20
  25 "Bip01 R Finger11" 24
  26 "Bip01 R Finger12" 25
  27 "Bip01 Head" 6
  28 "Bip01 L Leg" 1
  29 "Bip01 L Leg1" 28
  30 "Bip01 L Foot" 29
  31 "Bip01 R Leg" 1
  32 "Bip01 R Leg1" 31
  33 "Bip01 R Foot" 32
end
skeleton
  time 0
    0 0.000965 0.000151 0.001476 0.000000 0.000000 -1.571017
    1 0.421884 0.000000 9.742485 -1.570795 -1.570451 0.000000
    2 1.293670 0.684478 -0.000001 -0.000004 -0.000001 0.000798
    3 5.309685 -0.003834 0.000000 0.000000 0.000000 -0.095920
    4 4.826790 -0.004591 0.000000 0.000000 0.000000 -0.156996
    5 5.792767 -0.005304 0.000000 0.000000 0.000000 0.000003
    6 6.662322 -0.001452 0.000000 0.000000 -0.000001 0.000003
    7 -2.869899 1.399632 4.140401 -0.000100 -1.283646 -3.142292
    8 4.972048 0.000000 -0.000002 0.413966 0.556745 0.334703
    9 11.585358 0.000000 0.000000 0.000000 0.000000 -0.910639
    10 10.127057 -0.000001 0.000001 -1.568804 0.000094 -0.000160
    11 2.162477 0.109716 -1.664490 1.460467 0.573977 0.710725
    12 0.928312 0.000000 0.000000 0.000000 0.000000 0.375130
    13 0.928313 0.000000 -0.000001 0.000000 0.000000 0.375131
    14 3.784085 -0.427338 -0.044205 0.064643 0.071034 0.761285
    15 1.189161 -0.000001 -0.000001 0.000000 0.000000 0.654328
    16 1.302900 -0.000001 0.000001 0.000000 0.000000 0.654343
    17 -2.869899 1.399667 -4.140396 0.000026 1.283590 -3.142315
    18 4.972047 0.000000 0.000000 0.268873 -0.760719 -0.709664
    19 11.585358 0.000000 0.000001 0.000000 0.000000 -0.723175
    20 10.127058 0.000000 0.000001 1.568700 0.165582 -0.000348
    21 2.162477 0.109715 1.664489 2.894817 -0.132148 0.873393
    22 0.928313 0.000000 0.000002 0.000000 0.000000 0.000000
    23 0.928311 0.000000 0.000001 0.000000 0.000000 0.000000
    24 3.784085 -0.427337 0.044204 -0.013864 -0.095075 0.166302
    25 1.189159 0.000000 0.000001 0.000000 0.000000 0.165814
    26 1.302900 0.000000 -0.000001 0.000000 0.000000 0.924954
    27 2.046984 0.000001 0.000000 0.000000 0.000000 0.225909
    28 -0.000005 0.000007 3.713254 -0.004279 3.086687 6.108144
    29 18.045723 0.000000 0.000000 0.000000 0.000000 -0.570381
    30 17.597597 0.000000 0.000000 -0.005180 0.054474 0.395513
    31 0.000005 -0.000003 -3.713254 0.014038 -3.109063 5.781547
    32 18.045721 0.000000 0.000000 0.000000 0.000000 -1.194103
    33 17.597597 0.000000 0.000000 0.031335 -0.014843 -0.336148
  time 1
    0 0.000965 0.000151 0.001476 0.000000 0.000000 -1.571017
    1 0.664079 0.000000 9.742485 -1.570795 -1.570787 0.000000
    2 1.293670 0.684478 -0.000001 -0.000004 -0.000001 -0.011054
    3 5.309685 -0.003834 0.000000 0.000000 0.000000 -0.118000
    4 4.826790 -0.004591 0.000000 0.000000 0.000000 -0.156996
    5 5.792767 -0.005304 0.000000 0.000000 0.000000 0.000003
    6 6.662322 -0.001452 0.000000 0.000000 -0.000001 0.000003
    7 -2.869899 1.399632 4.140401 -0.000100 -1.283646 -3.142292
    8 4.972048 0.000000 -0.000002 0.297819 0.636476 0.040352
    9 11.585358 0.000000 0.000000 0.000000 0.000000 -1.198641
    10 10.127057 -0.000001 0.000001 -1.568804 0.000094 -0.000160
    11 2.162477 0.109716 -1.664490 1.460467 0.573977 0.710725
    12 0.928312 0.000000 0.000000 0.000000 0.000000 0.375130
    13 0.928313 0.000000 -0.000001 0.000000 0.000000 0.375131
    14 3.784085 -0.427338 -0.044205 0.064643 0.071034 0.761285
    15 1.189161 -0.000001 -0.000001 0.000000 0.000000 0.654328
    16 1.302900 -0.000001 0.000001 0.000000 0.000000 0.654343
    17 -2.869899 1.399667 -4.140396 0.000026 1.283590 -3.142315
    18 4.972047 0.000000 0.000000 0.289696 -0.703992 -0.741943
    19 11.585358 0.000000 0.000001 0.000000 0.000000 -1.064597
    20 10.127058 0.000000 0.000001 1.568700 0.165582 -0.000348
    21 2.162477 0.109715 1.664489 2.894817 -0.132148 0.873393
    22 0.928313 0.000000 0.000002 0.000000 0.000000 0.000000
    23 0.928311 0.000000 0.000001 0.000000 0.000000 0.000000
    24 3.784085 -0.427337 0.044204 -0.013864 -0.095075 0.166302
    25 1.189159 0.000000 0.000001 0.000000 0.000000 0.165814
    26 1.302900 0.000000 -0.000001 0.000000 0.000000 0.924954
    27 2.046984 0.000001 0.000000 0.000000 0.000000 0.259852
    28 -0.000005 0.000007 3.713254 -0.008114 3.086303 6.055613
    29 18.045723 0.000000 0.000000 0.000000 0.000000 -0.680885
    30 17.597597 0.000000 0.000000 -0.004521 0.055360 0.453876
    31 0.000005 -0.000003 -3.713254 0.015955 -3.110117 5.710028
    32 18.045721 0.000000 0.000000 0.000000 0.000000 -1.323122
    33 17.597597 0.000000 0.000000 0.031335 -0.014843 -0.278182
  time 2
    0 0.000965 0.000151 0.001476 0.000000 0.000000 -1.571017
    1 1.003933 0.000000 9.742485 -1.570795 -1.570787 0.000000
    2 1.293670 0.684478 -0.000001 -0.000004 -0.000001 -0.028197
    3 5.309685 -0.003834 0.000000 0.000000 0.000000 -0.149830
    4 4.826790 -0.004591 0.000000 0.000000 0.000000 -0.156996
    5 5.792767 -0.005304 0.000000 0.000000 0.000000 0.000003
    6 6.662322 -0.001452 0.000000 0.000000 -0.000001 0.000003
    7 -2.869899 1.399632 4.140401 -0.000100 -1.283646 -3.142292
    8 4.972048 0.000000 -0.000002 0.080351 0.711346 -0.429900
    9 11.585358 0.000000 0.000000 0.000000 0.000000 -1.613581
    10 10.127057 -0.000001 0.000001 -1.568804 0.000094 -0.000160
    11 2.162477 0.109716 -1.664490 1.460467 0.573977 0.710725
    12 0.928312 0.000000 0.000000 0.000000 0.000000 0.375130
    13 0.928313 0.000000 -0.000001 0.000000 0.000000 0.375131
    14 3.784085 -0.427338 -0.044205 0.064643 0.071034 0.761285
    15 1.189161 -0.000001 -0.000001 0.000000 0.000000 0.654328
    16 1.302900 -0.000001 0.000001 0.000000 0.000000 0.654343
    17 -2.869899 1.399667 -4.140396 0.000026 1.283590 -3.142315
    18 4.972047 0.000000 0.000000 0.313990 -0.621956 -0.785471
    19 11.585358 0.000000 0.000001 0.000000 0.000000 -1.556636
    20 10.127058 0.000000 0.000001 1.568700 0.165582 -0.000348
    21 2.162477 0.109715 1.664489 2.894817 -0.132148 0.873393
    22 0.928313 0.000000 0.000002 0.000000 0.000000 0.000000
    23 0.928311 0.000000 0.000001 0.000000 0.000000 0.000000
    24 3.784085 -0.427337 0.044204 -0.013864 -0.095075 0.166302
    25 1.189159 0.000000 0.000001 0.000000 0.000000 0.165814
    26 1.302900 0.000000 -0.000001 0.000000 0.000000 0.924954
    27 2.046984 0.000001 0.000000 0.000000 0.000000 0.308819
    28 -0.000005 0.000007 3.713254 -0.012620 3.085536 5.985444
    29 18.045723 0.000000 0.000000 0.000000 0.000000 -0.819367
    30 17.597597 0.000000 0.000000 -0.004318 0.056837 0.522097
    31 0.000005 -0.000003 -3.713254 0.019022 -3.111939 5.607160
    32 18.045721 0.000000 0.000000 0.000000 0.000000 -1.509448
    33 17.597597 0.000000 0.000000 0.031335 -0.014843 -0.194951
  time 3
    0 0.000965 0.000151 0.001476 0.000000 0.000000 -1.571017
    1 1.394570 0.000000 9.742485 -1.570795 -1.570787 0.000000
    2 1.293670 0.684478 -0.000001 -0.000004 -0.000001 -0.047834
    3 5.309685 -0.003834 0.000000 0.000000 0.000000 -0.186252
    4 4.826790 -0.004591 0.000000 0.000000 0.000000 -0.156996
    5 5.792767 -0.005304 0.000000 0.000000 0.000000 0.000003
    6 6.662322 -0.001452 0.000000 0.000000 -0.000001 0.000003
    7 -2.869899 1.399632 4.140401 -0.000100 -1.283646 -3.142292
    8 4.972048 0.000000 -0.000002 -0.211094 0.715525 -1.004392
    9 11.585358 0.000000 0.000000 0.000000 0.000000 -2.088875
    10 10.127057 -0.000001 0.000001 -1.568804 0.000094 -0.000160
    11 2.162477 0.109716 -1.664490 1.460467 0.573977 0.710725
    12 0.928312 0.000000 0.000000 0.000000 0.000000 0.375130
    13 0.928313 0.000000 -0.000001 0.000000 0.000000 0.375131
    14 3.784085 -0.427338 -0.044205 0.064643 0.071034 0.761285
    15 1.189161 -0.000001 -0.000001 0.000000 0.000000 0.654328
    16 1.302900 -0.000001 0.000001 0.000000 0.000000 0.654343
    17 -2.869899 1.399667 -4.140396 0.000026 1.283590 -3.142315
    18 4.972047 0.000000 0.000000 0.282755 -0.620108 -0.762442
    19 11.585358 0.000000 0.000001 0.000000 0.000000 -1.611035
    20 10.127058 0.000000 0.000001 1.568700 0.165582 -0.000348
    21 2.162477 0.109715 1.664489 2.894817 -0.132148 0.873393
    22 0.928313 0.000000 0.000002 0.000000 0.000000 0.000000
    23 0.928311 0.000000 0.000001 0.000000 0.000000 0.000000
    24 3.784085 -0.427337 0.044204 -0.013864 -0.095075 0.166302
    25 1.189159 0.000000 0.000001 0.000000 0.000000 0.165814
    26 1.302900 0.000000 -0.000001 0.000000 0.000000 0.924954
    27 2.046984 0.000001 0.000000 0.000000 0.000000 0.364842
    28 -0.000005 0.000007 3.713254 -0.016455 3.085057 5.925819
    29 18.045723 0.000000 0.000000 0.000000 0.000000 -0.937938
    30 17.597597 0.000000 0.000000 -0.004318 0.058436 0.581377
    31 0.000005 -0.000003 -3.713254 0.022377 -3.114431 5.489529
    32 18.045721 0.000000 0.000000 0.000000 0.000000 -1.722380
    33 17.597597 0.000000 0.000000 0.031335 -0.014843 -0.099896
  time 4
    0 0.000965 0.000151 0.001476 0.000000 0.000000 -1.571017
    1 1.640671 0.000000 9.742485 -1.570795 -1.570787 0.000000
    2 1.293670 0.684478 -0.000001 -0.000004 -0.000001 -0.060206
    3 5.309685 -0.003834 0.000000 0.000000 0.000000 -0.209285
    4 4.826790 -0.004591 0.000000 0.000000 0.000000 -0.156996
    5 5.792767 -0.005304 0.000000 0.000000 0.000000 0.000003
    6 6.662322 -0.001452 0.000000 0.000000 -0.000001 0.000003
    7 -2.869899 1.399632 4.140401 -0.000100 -1.283646 -3.142292
    8 4.972048 0.000000 -0.000002 -0.387747 0.668539 -1.353333
    9 11.585358 0.000000 0.000000 0.000000 0.000000 -2.389267
    10 10.127057 -0.000001 0.000001 -1.568804 0.000094 -0.000160
    11 2.162477 0.109716 -1.664490 1.460467 0.573977 0.710725
    12 0.928312 0.000000 0.000000 0.000000 0.000000 0.375130
    13 0.928313 0.000000 -0.000001 0.000000 0.000000 0.375131
    14 3.784085 -0.427338 -0.044205 0.064643 0.071034 0.761285
    15 1.189161 -0.000001 -0.000001 0.000000 0.000000 0.654328
    16 1.302900 -0.000001 0.000001 0.000000 0.000000 0.654343
    17 -2.869899 1.399667 -4.140396 0.000026 1.283590 -3.142315
    18 4.972047 0.000000 0.000000 0.265403 -0.610385 -0.751594
    19 11.585358 0.000000 0.000001 0.000000 0.000000 -1.630557
    20 10.127058 0.000000 0.000001 1.568700 0.165582 -0.000348
    21 2.162477 0.109715 1.664489 2.894817 -0.132148 0.873393
    22 0.928313 0.000000 0.000002 0.000000 0.000000 0.000000
    23 0.928311 0.000000 0.000001 0.000000 0.000000 0.000000
    24 3.784085 -0.427337 0.044204 -0.013864 -0.095075 0.166302
    25 1.189159 0.000000 0.000001 0.000000 0.000000 0.165814
    26 1.302900 0.000000 -0.000001 0.000000 0.000000 0.924954
    27 2.046984 0.000001 0.000000 0.000000 0.000000 0.400305
    28 -0.000005 0.000007 3.713254 -0.018756 3.084481 5.890160
    29 18.045723 0.000000 0.000000 0.000000 0.000000 -1.011139
    30 17.597597 0.000000 0.000000 -0.004445 0.059568 0.619017
    31 0.000005 -0.000003 -3.713254 0.024677 -3.116157 5.414846
    32 18.045721 0.000000 0.000000 0.000000 0.000000 -1.856910
    33 17.597597 0.000000 0.000000 0.031335 -0.014843 -0.039666
  time 5
    0 0.000965 0.000151 0.001476 0.000000 0.000000 -1.571017
    1 1.425821 0.000000 9.742485 -1.570795 -1.570787 0.000000
    2 1.293670 0.684478 -0.000001 -0.000004 -0.000001 -0.060206
    3 5.309685 -0.003834 0.000000 0.000000 0.000000 -0.209285
    4 4.826790 -0.004591 0.000000 0.000000 0.000000 -0.068384
    5 5.792767 -0.005304 0.000000 0.000000 0.000000 0.000003
    6 6.662322 -0.001452 0.000000 0.000000 -0.000001 0.000003
    7 -2.869899 1.399632 4.140401 -0.000100 -1.283646 -3.142292
    8 4.972048 0.000000 -0.000002 -0.324930 0.546001 -1.413556
    9 11.585358 0.000000 0.000000 0.000000 0.000000 -2.363111
    10 10.127057 -0.000001 0.000001 -1.766034 0.000094 -0.000160
    11 2.162477 0.109716 -1.664490 1.460467 0.573977 0.710725
    12 0.928312 0.000000 0.000000 0.000000 0.000000 0.375130
    13 0.928313 0.000000 -0.000001 0.000000 0.000000 0.375131
    14 3.784085 -0.427338 -0.044205 0.058974 0.075827 0.683810
    15 1.189161 -0.000001 -0.000001 0.000000 0.000000 0.576929
    16 1.302900 -0.000001 0.000001 0.000000 0.000000 0.576931
    17 -2.869899 1.399667 -4.140396 0.000026 1.283590 -3.142315
    18 4.972047 0.000000 0.000000 0.345225 -0.520635 -0.826402
    19 11.585358 0.000000 0.000001 0.000000 0.000000 -1.626881
    20 10.127058 0.000000 0.000001 1.568700 0.165582 -0.000348
    21 2.162477 0.109715 1.664489 2.894817 -0.132148 0.873393
    22 0.928313 0.000000 0.000002 0.000000 0.000000 0.000000
    23 0.928311 0.000000 0.000001 0.000000 0.000000 0.000000
    24 3.784085 -0.427337 0.044204 -0.013864 -0.095075 0.166302
    25 1.189159 0.000000 0.000001 0.000000 0.000000 0.165814
    26 1.302900 0.000000 -0.000001 0.000000 0.000000 0.924954
    27 2.046984 0.000001 0.000000 0.000000 0.000000 0.311739
    28 -0.000005 0.000007 3.713254 -0.075130 3.127817 5.916617
    29 18.045723 0.000000 0.000000 0.000000 0.000000 -0.915216
    30 17.597597 0.000000 0.000000 0.055990 0.051841 0.348657
    31 0.000005 -0.000003 -3.713254 0.030811 -3.153545 5.608694
    32 18.045721 0.000000 0.000000 0.000000 0.000000 -1.654211
    33 17.597597 0.000000 0.000000 -0.007384 -0.031845 -0.048812
  time 6
    0 0.000965 0.000151 0.001476 0.000000 0.000000 -1.571017
    1 1.171907 0.000000 9.742485 -1.570795 -1.570787 0.000000
    2 1.293670 0.684478 -0.000001 -0.000004 -0.000001 -0.060206
    3 5.309685 -0.003834 0.000000 0.000000 0.000000 -0.209285
    4 4.826790 -0.004591 0.000000 0.000000 0.000000 0.033369
    5 5.792767 -0.005304 0.000000 0.000000 0.000000 0.000003
    6 6.662322 -0.001452 0.000000 0.000000 -0.000001 0.000003
    7 -2.869899 1.399632 4.140401 -0.000100 -1.283646 -3.142292
    8 4.972048 0.000000 -0.000002 -0.230386 0.416129 -1.432185
    9 11.585358 0.000000 0.000000 0.000000 0.000000 -2.290658
    10 10.127057 -0.000001 0.000001 -1.991317 0.000094 -0.000160
    11 2.162477 0.109716 -1.664490 1.460467 0.573977 0.710725
    12 0.928312 0.000000 0.000000 0.000000 0.000000 0.375130
    13 0.928313 0.000000 -0.000001 0.000000 0.000000 0.375131
    14 3.784085 -0.427338 -0.044205 0.052047 0.080681 0.595349
    15 1.189161 -0.000001 -0.000001 0.000000 0.000000 0.488582
    16 1.302900 -0.000001 0.000001 0.000000 0.000000 0.488567
    17 -2.869899 1.399667 -4.140396 0.000026 1.283590 -3.142315
    18 4.972047 0.000000 0.000000 0.421858 -0.418350 -0.894688
    19 11.585358 0.000000 0.000001 0.000000 0.000000 -1.611689
    20 10.127058 0.000000 0.000001 1.568700 0.165582 -0.000348
    21 2.162477 0.109715 1.664489 2.894817 -0.132148 0.873393
    22 0.928313 0.000000 0.000002 0.000000 0.000000 0.000000
    23 0.928311 0.000000 0.000001 0.000000 0.000000 0.000000
    24 3.784085 -0.427337 0.044204 -0.013864 -0.095075 0.166302
    25 1.189159 0.000000 0.000001 0.000000 0.000000 0.165814
    26 1.302900 0.000000 -0.000001 0.000000 0.000000 0.924954
    27 2.046984 0.000001 0.000000 0.000000 0.000000 0.209911
    28 -0.000005 0.000007 3.713254 -0.131887 -3.114289 5.947867
    29 18.045723 0.000000 0.000000 0.000000 0.000000 -0.814260
    30 17.597597 0.000000 0.000000 0.115690 0.068132 0.081003
    31 0.000005 -0.000003 -3.713254 0.043845 3.095731 5.806281
    32 18.045721 0.000000 0.000000 0.000000 0.000000 -1.442537
    33 17.597597 0.000000 0.000000 -0.048216 -0.040701 -0.062853
  time 7
    0 0.000965 0.000151 0.001476 0.000000 0.000000 -1.571017
    1 0.898461 0.000000 9.742485 -1.570795 -1.570787 0.000000
    2 1.293670 0.684478 -0.000001 -0.000004 -0.000001 -0.060206
    3 5.309685 -0.003834 0.000000 0.000000 0.000000 -0.209285
    4 4.826790 -0.004591 0.000000 0.000000 0.000000 0.138429
    5 5.792767 -0.005304 0.000000 0.000000 0.000000 0.000003
    6 6.662322 -0.001452 0.000000 0.000000 -0.000001 0.000003
    7 -2.869899 1.399632 4.140401 -0.000100 -1.283646 -3.142292
    8 4.972048 0.000000 -0.000002 -0.128428 0.281908 -1.435218
    9 11.585358 0.000000 0.000000 0.000000 0.000000 -2.199874
    10 10.127057 -0.000001 0.000001 -2.227784 0.000094 -0.000160
    11 2.162477 0.109716 -1.664490 1.460467 0.573977 0.710725
    12 0.928312 0.000000 0.000000 0.000000 0.000000 0.375130
    13 0.928313 0.000000 -0.000001 0.000000 0.000000 0.375131
    14 3.784085 -0.427338 -0.044205 0.044341 0.085187 0.502457
    15 1.189161 -0.000001 -0.000001 0.000000 0.000000 0.395888
    16 1.302900 -0.000001 0.000001 0.000000 0.000000 0.395875
    17 -2.869899 1.399667 -4.140396 0.000026 1.283590 -3.142315
    18 4.972047 0.000000 0.000000 0.490894 -0.309477 -0.952325
    19 11.585358 0.000000 0.000001 0.000000 0.000000 -1.596415
    20 10.127058 0.000000 0.000001 1.568700 0.165582 -0.000348
    21 2.162477 0.109715 1.664489 2.894817 -0.132148 0.873393
    22 0.928313 0.000000 0.000002 0.000000 0.000000 0.000000
    23 0.928311 0.000000 0.000001 0.000000 0.000000 0.000000
    24 3.784085 -0.427337 0.044204 -0.013864 -0.095075 0.166302
    25 1.189159 0.000000 0.000001 0.000000 0.000000 0.165814
    26 1.302900 0.000000 -0.000001 0.000000 0.000000 0.924954
    27 2.046984 0.000001 0.000000 0.000000 0.000000 0.104860
    28 -0.000005 0.000007 3.713254 -0.179728 -3.081692 5.976529
    29 18.045723 0.000000 0.000000 0.000000 0.000000 -0.729513
    30 17.597597 0.000000 0.000000 0.161073 0.099337 -0.140530
    31 0.000005 -0.000003 -3.713254 0.059851 3.069847 5.972423
    32 18.045721 0.000000 0.000000 0.000000 0.000000 -1.264398
    33 17.597597 0.000000 0.000000 -0.083009 -0.041805 -0.075231
  time 8
    0 0.000965 0.000151 0.001476 0.000000 0.000000 -1.571017
    1 0.738300 0.000000 9.742485 -1.570795 -1.570787 0.000000
    2 1.293670 0.684478 -0.000001 -0.000004 -0.000001 -0.060206
    3 5.309685 -0.003834 0.000000 0.000000 0.000000 -0.209285
    4 4.826790 -0.004591 0.000000 0.000000 0.000000 0.200583
    5 5.792767 -0.005304 0.000000 0.000000 0.000000 0.000003
    6 6.662322 -0.001452 0.000000 0.000000 -0.000001 0.000003
    7 -2.869899 1.399632 4.140401 -0.000100 -1.283646 -3.142292
    8 4.972048 0.000000 -0.000002 -0.020332 0.181626 -1.429066
    9 11.585358 0.000000 0.000000 0.000000 0.000000 -2.118364
    10 10.127057 -0.000001 0.000001 -2.458754 0.000094 -0.000160
    11 2.162477 0.109716 -1.664490 1.460467 0.573977 0.710725
    12 0.928312 0.000000 0.000000 0.000000 0.000000 0.375130
    13 0.928313 0.000000 -0.000001 0.000000 0.000000 0.375131
    14 3.784085 -0.427338 -0.044205 0.036443 0.088879 0.411651
    15 1.189161 -0.000001 -0.000001 0.000000 0.000000 0.305409
    16 1.302900 -0.000001 0.000001 0.000000 0.000000 0.305321
    17 -2.869899 1.399667 -4.140396 0.000026 1.283590 -3.142315
    18 4.972047 0.000000 0.000000 0.529445 -0.229609 -0.983140
    19 11.585358 0.000000 0.000001 0.000000 0.000000 -1.592739
    20 10.127058 0.000000 0.000001 1.568700 0.165582 -0.000348
    21 2.162477 0.109715 1.664489 2.894817 -0.132148 0.873393
    22 0.928313 0.000000 0.000002 0.000000 0.000000 0.000000
    23 0.928311 0.000000 0.000001 0.000000 0.000000 0.000000
    24 3.784085 -0.427337 0.044204 -0.013864 -0.095075 0.166302
    25 1.189159 0.000000 0.000001 0.000000 0.000000 0.165814
    26 1.302900 0.000000 -0.000001 0.000000 0.000000 0.924954
    27 2.046984 0.000001 0.000000 0.000000 0.000000 0.042693
    28 -0.000005 0.000007 3.713254 -0.213284 -3.060216 5.996947
    29 18.045723 0.000000 0.000000 0.000000 0.000000 -0.671041
    30 17.597597 0.000000 0.000000 0.188035 0.129410 -0.291504
    31 0.000005 -0.000003 -3.713254 0.073269 3.053837 6.087179
    32 18.045721 0.000000 0.000000 0.000000 0.000000 -1.141834
    33 17.597597 0.000000 0.000000 -0.106864 -0.039162 -0.083545
end
