version 1
nodes
  0 "Bip01" -1
  1 "Bip01 Pelvis" 0
  2 "Bip01 Spine" 1
  3 "Bip01 Spine1" 2
  4 "Bip01 Spine2" 3
  5 "Bip01 Spine3" 4
  6 "Bip01 Neck" 5
  7 "Bip01 L Arm" 6
  8 "Bip01 L Arm1" 7
  9 "Bip01 L Arm2" 8
  10 "Bip01 L Hand" 9
  11 "Bip01 L Finger0" 10
  12 "Bip01 L Finger01" 11
  13 "Bip01 L Finger02" 12
  14 "Bip01 L Finger1" 10
  15 "Bip01 L Finger11" 14
  16 "Bip01 L Finger12" 15
  17 "Bip01 R Arm" 6
  18 "Bip01 R Arm1" 17
  19 "Bip01 R Arm2" 18
  20 "Bip01 R Hand" 19
  21 "Bip01 R Finger0" 20
  22 "Bip01 R Finger01" 21
  23 "Bip01 R Finger02" 22
  24 "Bip01 R Finger1" 20
  25 "Bip01 R Finger11" 24
  26 "Bip01 R Finger12" 25
  27 "Bip01 Head" 6
  28 "Bip01 L Leg" 1
  29 "Bip01 L Leg1" 28
  30 "Bip01 L Foot" 29
  31 "Bip01 R Leg" 1
  32 "Bip01 R Leg1" 31
  33 "Bip01 R Foot" 32
end
skeleton
  time 0
    0 -0.846717 1.761924 -20.600716 0.000000 0.000000 -1.585458
    1 -0.871124 0.175787 0.000000 -1.570795 -1.570787 0.000000
    2 1.293670 0.684478 -0.000001 -0.148018 -0.055993 0.076769
    3 5.309685 -0.003834 0.000000 -0.012678 0.060642 -0.043883
    4 4.826790 -0.004591 0.000000 -0.088448 -0.029470 0.054072
    5 5.792767 -0.005304 0.000000 0.031371 0.122255 0.028469
    6 6.662322 -0.001452 0.000000 0.045326 0.081914 0.160866
    7 -3.108188 1.516823 4.339626 1.238993 -1.024532 -4.799756
    8 4.827512 0.000000 -0.000002 -0.399784 -0.425608 -1.047977
    9 11.140032 0.000000 0.000000 0.070821 -0.105579 -0.701031
    10 10.314563 -0.000001 0.000001 -3.988822 0.203081 -0.504208
    11 1.646836 0.445664 -1.699647 -0.161704 0.581044 -0.283978
    12 0.928312 0.000000 0.000000 0.000000 0.000000 0.000000
    13 0.928313 0.000000 -0.000001 0.000000 0.000000 0.000000
    14 2.979373 -0.388274 -0.044205 -0.000805 -0.043611 0.000046
    15 1.435262 -0.000001 -0.000001 0.000000 0.000000 0.872146
    16 1.482593 -0.000001 0.000001 0.000000 0.000000 0.907041
    17 -2.869899 1.399667 -4.140396 -1.163265 1.764468 -4.903713
    18 4.972047 0.000000 0.000000 1.192695 -0.264722 -1.779142
    19 11.585358 0.000000 0.000001 0.386603 -0.383573 -1.601969
    20 10.127058 0.000000 0.000001 1.960763 0.596700 0.774136
    21 1.537458 0.109715 1.664489 -0.264662 -0.055995 0.783079
    22 0.928313 0.000000 0.000002 0.000000 0.000000 -0.453501
    23 0.928311 0.000000 0.000001 0.000000 0.000000 0.000000
    24 2.686395 -0.427337 0.044204 -0.005762 0.043239 -0.157074
    25 1.435260 0.000000 0.000001 0.000000 0.000000 0.732613
    26 1.482593 0.000000 -0.000001 0.000000 0.000000 1.168644
    27 2.046984 0.000001 0.000000 0.307009 0.468721 -0.566324
    28 -0.000005 0.000007 3.713254 -3.289300 -0.165475 1.249615
    29 18.045723 0.000000 0.000000 0.000000 0.000000 -1.732931
    30 17.597597 0.000000 0.000000 -0.251405 0.197505 -0.164508
    31 0.000005 -0.000003 -3.713254 0.821892 2.312307 5.493555
    32 18.045721 0.000000 0.000000 0.000000 0.000000 -2.673768
    33 17.597597 0.000000 0.000000 0.379969 0.033854 0.755924
  time 1
    0 -0.846717 1.761924 -20.600716 0.000000 0.000000 -1.585458
    1 -0.847686 0.156255 0.000000 -1.570795 -1.570787 0.000000
    2 1.293670 0.684478 -0.000001 -0.148018 -0.055993 0.076769
    3 5.309685 -0.003834 0.000000 -0.013171 0.062284 -0.038266
    4 4.826790 -0.004591 0.000000 -0.087303 -0.031496 0.039609
    5 5.792767 -0.005304 0.000000 0.030993 0.119211 0.011319
    6 6.662322 -0.001452 0.000000 0.045326 0.081914 0.160866
    7 -3.108188 1.516823 4.339626 1.238993 -1.024532 -4.799756
    8 4.827512 0.000000 -0.000002 -0.394842 -0.402754 -1.051617
    9 11.140032 0.000000 0.000000 0.070821 -0.102708 -0.678643
    10 10.314563 -0.000001 0.000001 -3.988822 0.203081 -0.504208
    11 1.646836 0.445664 -1.699647 -0.161704 0.581044 -0.283978
    12 0.928312 0.000000 0.000000 0.000000 0.000000 0.000000
    13 0.928313 0.000000 -0.000001 0.000000 0.000000 0.000000
    14 2.979373 -0.388274 -0.044205 -0.000805 -0.043611 0.000046
    15 1.435262 -0.000001 -0.000001 0.000000 0.000000 0.872146
    16 1.482593 -0.000001 0.000001 0.000000 0.000000 0.907041
    17 -2.869899 1.399667 -4.140396 -1.167086 1.765730 -4.907736
    18 4.972047 0.000000 0.000000 1.181064 -0.281595 -1.775282
    19 11.585358 0.000000 0.000001 0.386603 -0.383732 -1.593147
    20 10.127058 0.000000 0.000001 1.963428 0.597362 0.774786
    21 1.537458 0.109715 1.664489 -0.264662 -0.055995 0.783079
    22 0.928313 0.000000 0.000002 0.000000 0.000000 -0.453501
    23 0.928311 0.000000 0.000001 0.000000 0.000000 0.000000
    24 2.686395 -0.427337 0.044204 -0.005762 0.043239 -0.157074
    25 1.435260 0.000000 0.000001 0.000000 0.000000 0.732613
    26 1.482593 0.000000 -0.000001 0.000000 0.000000 1.168644
    27 2.046984 0.000001 0.000000 0.304338 0.467866 -0.540046
    28 -0.000005 0.000007 3.713254 -3.288629 -0.166050 1.249231
    29 18.045723 0.000000 0.000000 0.000000 0.000000 -1.734411
    30 17.597597 0.000000 0.000000 -0.250721 0.197136 -0.163224
    31 0.000005 -0.000003 -3.713254 0.823042 2.314224 5.497198
    32 18.045721 0.000000 0.000000 0.000000 0.000000 -2.673532
    33 17.597597 0.000000 0.000000 0.378996 0.035136 0.758834
  time 2
    0 -0.846717 1.761924 -20.600716 0.000000 0.000000 -1.585458
    1 -0.820342 0.136723 0.000000 -1.570795 -1.570787 0.000000
    2 1.293670 0.684478 -0.000001 -0.148018 -0.055993 0.076769
    3 5.309685 -0.003834 0.000000 -0.013699 0.064022 -0.032260
    4 4.826790 -0.004591 0.000000 -0.086063 -0.033641 0.024131
    5 5.792767 -0.005304 0.000000 0.030669 0.115999 -0.006516
    6 6.662322 -0.001452 0.000000 0.045326 0.081914 0.160866
    7 -3.108188 1.516823 4.339626 1.238993 -1.024532 -4.799756
    8 4.827512 0.000000 -0.000002 -0.389899 -0.376490 -1.055083
    9 11.140032 0.000000 0.000000 0.070821 -0.100087 -0.658718
    10 10.314563 -0.000001 0.000001 -3.988822 0.203081 -0.504208
    11 1.646836 0.445664 -1.699647 -0.161704 0.581044 -0.283978
    12 0.928312 0.000000 0.000000 0.000000 0.000000 0.000000
    13 0.928313 0.000000 -0.000001 0.000000 0.000000 0.000000
    14 2.979373 -0.388274 -0.044205 -0.000805 -0.043611 0.000046
    15 1.435262 -0.000001 -0.000001 0.000000 0.000000 0.872146
    16 1.482593 -0.000001 0.000001 0.000000 0.000000 0.907041
    17 -2.869899 1.399667 -4.140396 -1.163265 1.764468 -4.903713
    18 4.972047 0.000000 0.000000 1.165306 -0.302165 -1.765299
    19 11.585358 0.000000 0.000001 0.386603 -0.383823 -1.588900
    20 10.127058 0.000000 0.000001 1.970510 0.598875 0.776436
    21 1.537458 0.109715 1.664489 -0.264662 -0.055995 0.783079
    22 0.928313 0.000000 0.000002 0.000000 0.000000 -0.453501
    23 0.928311 0.000000 0.000001 0.000000 0.000000 0.000000
    24 2.686395 -0.427337 0.044204 -0.005762 0.043239 -0.157074
    25 1.435260 0.000000 0.000001 0.000000 0.000000 0.732613
    26 1.482593 0.000000 -0.000001 0.000000 0.000000 1.168644
    27 2.046984 0.000001 0.000000 0.301580 0.466981 -0.512429
    28 -0.000005 0.000007 3.713254 -3.287958 -0.166625 1.248944
    29 18.045723 0.000000 0.000000 0.000000 0.000000 -1.736039
    30 17.597597 0.000000 0.000000 -0.250011 0.196668 -0.161803
    31 0.000005 -0.000003 -3.713254 0.824193 2.316333 5.501129
    32 18.045721 0.000000 0.000000 0.000000 0.000000 -2.673217
    33 17.597597 0.000000 0.000000 0.377922 0.036556 0.761929
  time 3
    0 -0.846717 1.761924 -20.600716 0.000000 0.000000 -1.585458
    1 -0.796903 0.125004 0.000000 -1.570795 -1.570787 0.000000
    2 1.293670 0.684478 -0.000001 -0.148018 -0.055993 0.076769
    3 5.309685 -0.003834 0.000000 -0.014243 0.065759 -0.026237
    4 4.826790 -0.004591 0.000000 -0.084881 -0.035678 0.009116
    5 5.792767 -0.005304 0.000000 0.030399 0.112859 -0.024019
    6 6.662322 -0.001452 0.000000 0.047627 0.085281 0.202734
    7 -3.057405 1.653546 4.331813 1.231708 -1.022580 -4.835592
    8 4.827512 0.000000 -0.000002 -0.385037 -0.348691 -1.055343
    9 11.140032 0.000000 0.000000 0.070821 -0.098514 -0.646474
    10 10.314563 -0.000001 0.000001 -3.988822 0.203081 -0.504208
    11 1.646836 0.445664 -1.699647 -0.161704 0.581044 -0.283978
    12 0.928312 0.000000 0.000000 0.000000 0.000000 0.000000
    13 0.928313 0.000000 -0.000001 0.000000 0.000000 0.000000
    14 2.979373 -0.388274 -0.044205 -0.000805 -0.043611 0.000046
    15 1.435262 -0.000001 -0.000001 0.000000 0.000000 0.872146
    16 1.482593 -0.000001 0.000001 0.000000 0.000000 0.907041
    17 -2.799584 1.501233 -4.148209 -1.132313 1.755477 -4.914440
    18 4.972047 0.000000 0.000000 1.143638 -0.325305 -1.742736
    19 11.585358 0.000000 0.000001 0.386603 -0.383777 -1.590942
    20 10.127058 0.000000 0.000001 1.980538 0.601144 0.778737
    21 1.537458 0.109715 1.664489 -0.264662 -0.055995 0.783079
    22 0.928313 0.000000 0.000002 0.000000 0.000000 -0.453501
    23 0.928311 0.000000 0.000001 0.000000 0.000000 0.000000
    24 2.686395 -0.427337 0.044204 -0.005762 0.043239 -0.157074
    25 1.435260 0.000000 0.000001 0.000000 0.000000 0.732613
    26 1.482593 0.000000 -0.000001 0.000000 0.000000 1.168644
    27 2.046984 0.000001 0.000000 0.296798 0.465505 -0.536578
    28 -0.000005 0.000007 3.713254 -3.287287 -0.167201 1.248560
    29 18.045723 0.000000 0.000000 0.000000 0.000000 -1.737668
    30 17.597597 0.000000 0.000000 -0.249302 0.196275 -0.160474
    31 0.000005 -0.000003 -3.713254 0.825343 2.318346 5.504868
    32 18.045721 0.000000 0.000000 0.000000 0.000000 -2.673217
    33 17.597597 0.000000 0.000000 0.376915 0.037917 0.764839
  time 4
    0 -0.846717 1.761924 -20.600716 0.000000 0.000000 -1.585458
    1 -0.777371 0.113285 0.000000 -1.570795 -1.570787 0.000000
    2 1.293670 0.684478 -0.000001 -0.148018 -0.055993 0.076769
    3 5.309685 -0.003834 0.000000 -0.014737 0.067389 -0.020620
    4 4.826790 -0.004591 0.000000 -0.083813 -0.037440 -0.003694
    5 5.792767 -0.005304 0.000000 0.030237 0.110019 -0.040214
    6 6.662322 -0.001452 0.000000 0.050096 0.088538 0.244687
    7 -3.006622 1.790269 4.312281 1.224519 -1.020747 -4.871237
    8 4.827512 0.000000 -0.000002 -0.380732 -0.323023 -1.053523
    9 11.140032 0.000000 0.000000 0.070821 -0.097765 -0.640677
    10 10.314563 -0.000001 0.000001 -3.988822 0.203081 -0.504208
    11 1.646836 0.445664 -1.699647 -0.161704 0.581044 -0.283978
    12 0.928312 0.000000 0.000000 0.000000 0.000000 0.000000
    13 0.928313 0.000000 -0.000001 0.000000 0.000000 0.000000
    14 2.979373 -0.388274 -0.044205 -0.000805 -0.043611 0.000046
    15 1.435262 -0.000001 -0.000001 0.000000 0.000000 0.872146
    16 1.482593 -0.000001 0.000001 0.000000 0.000000 0.907041
    17 -2.725363 1.606705 -4.163834 -1.094673 1.745303 -4.918176
    18 4.972047 0.000000 0.000000 1.121220 -0.347080 -1.717845
    19 11.585358 0.000000 0.000001 0.386603 -0.383686 -1.596088
    20 10.127058 0.000000 0.000001 1.991968 0.603697 0.781389
    21 1.537458 0.109715 1.664489 -0.264662 -0.055995 0.783079
    22 0.928313 0.000000 0.000002 0.000000 0.000000 -0.453501
    23 0.928311 0.000000 0.000001 0.000000 0.000000 0.000000
    24 2.686395 -0.427337 0.044204 -0.005762 0.043239 -0.157074
    25 1.435260 0.000000 0.000001 0.000000 0.000000 0.732613
    26 1.482593 0.000000 -0.000001 0.000000 0.000000 1.168644
    27 2.046984 0.000001 0.000000 0.292404 0.464148 -0.563769
    28 -0.000005 0.000007 3.713254 -3.286808 -0.167680 1.248368
    29 18.045723 0.000000 0.000000 0.000000 0.000000 -1.738926
    30 17.597597 0.000000 0.000000 -0.248769 0.195930 -0.159419
    31 0.000005 -0.000003 -3.713254 0.826205 2.319976 5.507840
    32 18.045721 0.000000 0.000000 0.000000 0.000000 -2.672981
    33 17.597597 0.000000 0.000000 0.376077 0.039002 0.767240
  time 5
    0 -0.846717 1.761924 -20.600716 0.000000 0.000000 -1.585458
    1 -0.765652 0.105472 0.000000 -1.570795 -1.570787 0.000000
    2 1.293670 0.684478 -0.000001 -0.148018 -0.055993 0.076769
    3 5.309685 -0.003834 0.000000 -0.015111 0.068804 -0.015816
    4 4.826790 -0.004591 0.000000 -0.082992 -0.038650 -0.012800
    5 5.792767 -0.005304 0.000000 0.030129 0.107718 -0.054271
    6 6.662322 -0.001452 0.000000 0.052684 0.091754 0.286640
    7 -2.940214 1.919179 4.300562 1.217139 -1.019032 -4.906785
    8 4.827512 0.000000 -0.000002 -0.376188 -0.299061 -1.048151
    9 11.140032 0.000000 0.000000 0.070821 -0.098439 -0.646039
    10 10.314563 -0.000001 0.000001 -3.988822 0.203081 -0.504208
    11 1.646836 0.445664 -1.699647 -0.161704 0.581044 -0.283978
    12 0.928312 0.000000 0.000000 0.000000 0.000000 0.000000
    13 0.928313 0.000000 -0.000001 0.000000 0.000000 0.000000
    14 2.979373 -0.388274 -0.044205 -0.000805 -0.043611 0.000046
    15 1.435262 -0.000001 -0.000001 0.000000 0.000000 0.872146
    16 1.482593 -0.000001 0.000001 0.000000 0.000000 0.907041
    17 -2.639423 1.712177 -4.171647 -1.051684 1.734813 -4.916643
    18 4.972047 0.000000 0.000000 1.098334 -0.366846 -1.691356
    19 11.585358 0.000000 0.000001 0.386603 -0.383505 -1.605808
    20 10.127058 0.000000 0.000001 2.003469 0.606251 0.784090
    21 1.537458 0.109715 1.664489 -0.264662 -0.055995 0.783079
    22 0.928313 0.000000 0.000002 0.000000 0.000000 -0.453501
    23 0.928311 0.000000 0.000001 0.000000 0.000000 0.000000
    24 2.686395 -0.427337 0.044204 -0.005762 0.043239 -0.157074
    25 1.435260 0.000000 0.000001 0.000000 0.000000 0.732613
    26 1.482593 0.000000 -0.000001 0.000000 0.000000 1.168644
    27 2.046984 0.000001 0.000000 0.288742 0.462821 -0.596190
    28 -0.000005 0.000007 3.713254 -3.286520 -0.167968 1.248177
    29 18.045723 0.000000 0.000000 0.000000 0.000000 -1.739740
    30 17.597597 0.000000 0.000000 -0.248415 0.195709 -0.158777
    31 0.000005 -0.000003 -3.713254 0.826780 2.320935 5.509757
    32 18.045721 0.000000 0.000000 0.000000 0.000000 -2.672902
    33 17.597597 0.000000 0.000000 0.375540 0.039712 0.768672
  time 6
    0 -0.846717 1.761924 -20.600716 0.000000 0.000000 -1.585458
    1 -0.757840 0.093753 0.000000 -1.570795 -1.570787 0.000000
    2 1.293670 0.684478 -0.000001 -0.148018 -0.055993 0.076769
    3 5.309685 -0.003834 0.000000 -0.015434 0.069834 -0.012195
    4 4.826790 -0.004591 0.000000 -0.082573 -0.039369 -0.018158
    5 5.792767 -0.005304 0.000000 0.030201 0.105860 -0.067766
    6 6.662322 -0.001452 0.000000 0.055393 0.094819 0.328536
    7 -2.869899 2.055902 4.288843 1.209662 -1.017495 -4.942238
    8 4.827512 0.000000 -0.000002 -0.372202 -0.278255 -1.042952
    9 11.140032 0.000000 0.000000 0.070821 -0.099238 -0.652125
    10 10.314563 -0.000001 0.000001 -3.988822 0.203081 -0.504208
    11 1.646836 0.445664 -1.699647 -0.161704 0.581044 -0.283978
    12 0.928312 0.000000 0.000000 0.000000 0.000000 0.000000
    13 0.928313 0.000000 -0.000001 0.000000 0.000000 0.000000
    14 2.979373 -0.388274 -0.044205 -0.000805 -0.043611 0.000046
    15 1.435262 -0.000001 -0.000001 0.000000 0.000000 0.872146
    16 1.482593 -0.000001 0.000001 0.000000 0.000000 0.907041
    17 -2.545670 1.809836 -4.187273 -1.006402 1.724980 -4.913004
    18 4.972047 0.000000 0.000000 1.077886 -0.383478 -1.667329
    19 11.585358 0.000000 0.000001 0.386603 -0.383346 -1.613077
    20 10.127058 0.000000 0.000001 2.013496 0.608520 0.786391
    21 1.537458 0.109715 1.664489 -0.264662 -0.055995 0.783079
    22 0.928313 0.000000 0.000002 0.000000 0.000000 -0.453501
    23 0.928311 0.000000 0.000001 0.000000 0.000000 0.000000
    24 2.686395 -0.427337 0.044204 -0.005762 0.043239 -0.157074
    25 1.435260 0.000000 0.000001 0.000000 0.000000 0.732613
    26 1.482593 0.000000 -0.000001 0.000000 0.000000 1.168644
    27 2.046984 0.000001 0.000000 0.285683 0.461522 -0.631775
    28 -0.000005 0.000007 3.713254 -3.286232 -0.168159 1.248081
    29 18.045723 0.000000 0.000000 0.000000 0.000000 -1.740258
    30 17.597597 0.000000 0.000000 -0.248187 0.195561 -0.158365
    31 0.000005 -0.000003 -3.713254 0.827259 2.321606 5.511003
    32 18.045721 0.000000 0.000000 0.000000 0.000000 -2.672744
    33 17.597597 0.000000 0.000000 0.375171 0.040146 0.769688
  time 7
    0 -0.846717 1.761924 -20.600716 0.000000 0.000000 -1.585458
    1 -0.746121 0.093753 0.000000 -1.570795 -1.570787 0.000000
    2 1.293670 0.684478 -0.000001 -0.148018 -0.055993 0.076769
    3 5.309685 -0.003834 0.000000 -0.015639 0.070565 -0.009704
    4 4.826790 -0.004591 0.000000 -0.082344 -0.039741 -0.020826
    5 5.792767 -0.005304 0.000000 0.030363 0.104482 -0.080203
    6 6.662322 -0.001452 0.000000 0.058245 0.097761 0.370546
    7 -2.799584 2.180906 4.269311 1.202090 -1.016046 -4.977499
    8 4.827512 0.000000 -0.000002 -0.368774 -0.262053 -1.037233
    9 11.140032 0.000000 0.000000 0.070821 -0.100162 -0.659153
    10 10.314563 -0.000001 0.000001 -3.988822 0.203081 -0.504208
    11 1.646836 0.445664 -1.699647 -0.161704 0.581044 -0.283978
    12 0.928312 0.000000 0.000000 0.000000 0.000000 0.000000
    13 0.928313 0.000000 -0.000001 0.000000 0.000000 0.000000
    14 2.979373 -0.388274 -0.044205 -0.000805 -0.043611 0.000046
    15 1.435262 -0.000001 -0.000001 0.000000 0.000000 0.872146
    16 1.482593 -0.000001 0.000001 0.000000 0.000000 0.907041
    17 -2.455824 1.907495 -4.198992 -0.963030 1.716383 -4.910992
    18 4.972047 0.000000 0.000000 1.059876 -0.396656 -1.645765
    19 11.585358 0.000000 0.000001 0.386603 -0.383187 -1.620918
    20 10.127058 0.000000 0.000001 2.020509 0.610128 0.788041
    21 1.537458 0.109715 1.664489 -0.264662 -0.055995 0.783079
    22 0.928313 0.000000 0.000002 0.000000 0.000000 -0.453501
    23 0.928311 0.000000 0.000001 0.000000 0.000000 0.000000
    24 2.686395 -0.427337 0.044204 -0.005762 0.043239 -0.157074
    25 1.435260 0.000000 0.000001 0.000000 0.000000 0.732613
    26 1.482593 0.000000 -0.000001 0.000000 0.000000 1.168644
    27 2.046984 0.000001 0.000000 0.283141 0.460106 -0.670097
    28 -0.000005 0.000007 3.713254 -3.286041 -0.168351 1.247985
    29 18.045723 0.000000 0.000000 0.000000 0.000000 -1.740628
    30 17.597597 0.000000 0.000000 -0.247984 0.195438 -0.157998
    31 0.000005 -0.000003 -3.713254 0.827547 2.322085 5.512058
    32 18.045721 0.000000 0.000000 0.000000 0.000000 -2.672744
    33 17.597597 0.000000 0.000000 0.374936 0.040501 0.770474
  time 8
    0 -0.846717 1.761924 -20.600716 0.000000 0.000000 -1.585458
    1 -0.746121 0.093753 0.000000 -1.570795 -1.570787 0.000000
    2 1.293670 0.684478 -0.000001 -0.148018 -0.055993 0.076769
    3 5.309685 -0.003834 0.000000 -0.015775 0.071009 -0.008203
    4 4.826790 -0.004591 0.000000 -0.082344 -0.039741 -0.020826
    5 5.792767 -0.005304 0.000000 0.030525 0.103966 -0.087387
    6 6.662322 -0.001452 0.000000 0.058245 0.097761 0.370546
    7 -2.799584 2.180906 4.269311 1.202090 -1.016046 -4.977499
    8 4.827512 0.000000 -0.000002 -0.366542 -0.253269 -1.032900
    9 11.140032 0.000000 0.000000 0.070821 -0.101061 -0.666036
    10 10.314563 -0.000001 0.000001 -3.988822 0.203081 -0.504208
    11 1.646836 0.445664 -1.699647 -0.161704 0.581044 -0.283978
    12 0.928312 0.000000 0.000000 0.000000 0.000000 0.000000
    13 0.928313 0.000000 -0.000001 0.000000 0.000000 0.000000
    14 2.979373 -0.388274 -0.044205 -0.000805 -0.043611 0.000046
    15 1.435262 -0.000001 -0.000001 0.000000 0.000000 0.872146
    16 1.482593 -0.000001 0.000001 0.000000 0.000000 0.907041
    17 -2.455824 1.903589 -4.198992 -0.940580 1.712571 -4.888101
    18 4.972047 0.000000 0.000000 1.052279 -0.402119 -1.636780
    19 11.585358 0.000000 0.000001 0.386603 -0.383119 -1.624594
    20 10.127058 0.000000 0.000001 2.023244 0.610695 0.788692
    21 1.537458 0.109715 1.664489 -0.264662 -0.055995 0.783079
    22 0.928313 0.000000 0.000002 0.000000 0.000000 -0.453501
    23 0.928311 0.000000 0.000001 0.000000 0.000000 0.000000
    24 2.686395 -0.427337 0.044204 -0.005762 0.043239 -0.157074
    25 1.435260 0.000000 0.000001 0.000000 0.000000 0.732613
    26 1.482593 0.000000 -0.000001 0.000000 0.000000 1.168644
    27 2.046984 0.000001 0.000000 0.283098 0.456713 -0.655073
    28 -0.000005 0.000007 3.713254 -3.286041 -0.168255 1.247985
    29 18.045723 0.000000 0.000000 0.000000 0.000000 -1.740628
    30 17.597597 0.000000 0.000000 -0.248035 0.195438 -0.158044
    31 0.000005 -0.000003 -3.713254 0.827547 2.321989 5.511962
    32 18.045721 0.000000 0.000000 0.000000 0.000000 -2.672744
    33 17.597597 0.000000 0.000000 0.374902 0.040442 0.770381
  time 9
    0 -0.846717 1.761924 -20.600716 0.000000 0.000000 -1.585458
    1 -0.757840 0.101566 0.000000 -1.570795 -1.570787 0.000000
    2 1.293670 0.684478 -0.000001 -0.148018 -0.055993 0.076769
    3 5.309685 -0.003834 0.000000 -0.015775 0.071093 -0.007955
    4 4.826790 -0.004591 0.000000 -0.082573 -0.039369 -0.018158
    5 5.792767 -0.005304 0.000000 0.030597 0.104661 -0.085207
    6 6.662322 -0.001452 0.000000 0.058245 0.097761 0.370546
    7 -2.799584 2.180906 4.269311 1.202090 -1.016046 -4.977499
    8 4.827512 0.000000 -0.000002 -0.366223 -0.256936 -1.029694
    9 11.140032 0.000000 0.000000 0.070821 -0.102234 -0.675093
    10 10.314563 -0.000001 0.000001 -3.988822 0.203081 -0.504208
    11 1.646836 0.445664 -1.699647 -0.161704 0.581044 -0.283978
    12 0.928312 0.000000 0.000000 0.000000 0.000000 0.000000
    13 0.928313 0.000000 -0.000001 0.000000 0.000000 0.000000
    14 2.979373 -0.388274 -0.044205 -0.000805 -0.043611 0.000046
    15 1.435262 -0.000001 -0.000001 0.000000 0.000000 0.872146
    16 1.482593 -0.000001 0.000001 0.000000 0.000000 0.907041
    17 -2.455824 1.903589 -4.198992 -0.926155 1.710336 -4.873446
    18 4.972047 0.000000 0.000000 1.053873 -0.398504 -1.634917
    19 11.585358 0.000000 0.000001 0.386603 -0.383051 -1.627943
    20 10.127058 0.000000 0.000001 2.021981 0.610412 0.788392
    21 1.537458 0.109715 1.664489 -0.264662 -0.055995 0.783079
    22 0.928313 0.000000 0.000002 0.000000 0.000000 -0.453501
    23 0.928311 0.000000 0.000001 0.000000 0.000000 0.000000
    24 2.686395 -0.427337 0.044204 -0.005762 0.043239 -0.157074
    25 1.435260 0.000000 0.000001 0.000000 0.000000 0.732613
    26 1.482593 0.000000 -0.000001 0.000000 0.000000 1.168644
    27 2.046984 0.000001 0.000000 0.283960 0.453557 -0.650997
    28 -0.000005 0.000007 3.713254 -3.286328 -0.168063 1.248081
    29 18.045723 0.000000 0.000000 0.000000 0.000000 -1.739962
    30 17.597597 0.000000 0.000000 -0.248339 0.195586 -0.158594
    31 0.000005 -0.000003 -3.713254 0.827068 2.321127 5.510524
    32 18.045721 0.000000 0.000000 0.000000 0.000000 -2.672902
    33 17.597597 0.000000 0.000000 0.375271 0.039870 0.769180
  time 10
    0 -0.846717 1.761924 -20.600716 0.000000 0.000000 -1.585458
    1 -0.777371 0.113285 0.000000 -1.570795 -1.570787 0.000000
    2 1.293670 0.684478 -0.000001 -0.148018 -0.055993 0.076769
    3 5.309685 -0.003834 0.000000 -0.015690 0.070709 -0.009209
    4 4.826790 -0.004591 0.000000 -0.082992 -0.038650 -0.012800
    5 5.792767 -0.005304 0.000000 0.030615 0.106759 -0.072500
    6 6.662322 -0.001452 0.000000 0.058245 0.097761 0.370546
    7 -2.799584 2.180906 4.269311 1.202090 -1.016046 -4.977499
    8 4.827512 0.000000 -0.000002 -0.367499 -0.272371 -1.026488
    9 11.140032 0.000000 0.000000 0.070821 -0.104206 -0.690163
    10 10.314563 -0.000001 0.000001 -3.988822 0.203081 -0.504208
    11 1.646836 0.445664 -1.699647 -0.161704 0.581044 -0.283978
    12 0.928312 0.000000 0.000000 0.000000 0.000000 0.000000
    13 0.928313 0.000000 -0.000001 0.000000 0.000000 0.000000
    14 2.979373 -0.388274 -0.044205 -0.000805 -0.043611 0.000046
    15 1.435262 -0.000001 -0.000001 0.000000 0.000000 0.872146
    16 1.482593 -0.000001 0.000001 0.000000 0.000000 0.907041
    17 -2.455824 1.903589 -4.202898 -0.916506 1.708838 -4.863581
    18 4.972047 0.000000 0.000000 1.063253 -0.386612 -1.638111
    19 11.585358 0.000000 0.000001 0.386603 -0.382960 -1.632844
    20 10.127058 0.000000 0.000001 2.018615 0.609655 0.787591
    21 1.537458 0.109715 1.664489 -0.264662 -0.055995 0.783079
    22 0.928313 0.000000 0.000002 0.000000 0.000000 -0.453501
    23 0.928311 0.000000 0.000001 0.000000 0.000000 0.000000
    24 2.686395 -0.427337 0.044204 -0.005762 0.043239 -0.157074
    25 1.435260 0.000000 0.000001 0.000000 0.000000 0.732613
    26 1.482593 0.000000 -0.000001 0.000000 0.000000 1.168644
    27 2.046984 0.000001 0.000000 0.285683 0.450577 -0.658783
    28 -0.000005 0.000007 3.713254 -3.286808 -0.167584 1.248368
    29 18.045723 0.000000 0.000000 0.000000 0.000000 -1.738778
    30 17.597597 0.000000 0.000000 -0.248921 0.195881 -0.159557
    31 0.000005 -0.000003 -3.713254 0.826397 2.319497 5.507648
    32 18.045721 0.000000 0.000000 0.000000 0.000000 -2.672981
    33 17.597597 0.000000 0.000000 0.375942 0.038746 0.766871
  time 11
    0 -0.846717 1.761924 -20.600716 0.000000 0.000000 -1.585458
    1 -0.808622 0.132817 0.000000 -1.570795 -1.570787 0.000000
    2 1.293670 0.684478 -0.000001 -0.148018 -0.055993 0.076769
    3 5.309685 -0.003834 0.000000 -0.015434 0.069834 -0.012195
    4 4.826790 -0.004591 0.000000 -0.083889 -0.037284 -0.002658
    5 5.792767 -0.005304 0.000000 0.030669 0.109815 -0.053004
    6 6.662322 -0.001452 0.000000 0.058245 0.097761 0.370546
    7 -2.799584 2.180906 4.269311 1.202090 -1.016046 -4.977499
    8 4.827512 0.000000 -0.000002 -0.370528 -0.297015 -1.022329
    9 11.140032 0.000000 0.000000 0.070821 -0.106928 -0.712189
    10 10.314563 -0.000001 0.000001 -3.988822 0.203081 -0.504208
    11 1.646836 0.445664 -1.699647 -0.161704 0.581044 -0.283978
    12 0.928312 0.000000 0.000000 0.000000 0.000000 0.000000
    13 0.928313 0.000000 -0.000001 0.000000 0.000000 0.000000
    14 2.979373 -0.388274 -0.044205 -0.000805 -0.043611 0.000046
    15 1.435262 -0.000001 -0.000001 0.000000 0.000000 0.872146
    16 1.482593 -0.000001 0.000001 0.000000 0.000000 0.907041
    17 -2.455824 1.907495 -4.202898 -0.912589 1.708207 -4.859654
    18 4.972047 0.000000 0.000000 1.079292 -0.367971 -1.646231
    19 11.585358 0.000000 0.000001 0.386603 -0.382824 -1.639296
    20 10.127058 0.000000 0.000001 2.013496 0.608520 0.786391
    21 1.537458 0.109715 1.664489 -0.264662 -0.055995 0.783079
    22 0.928313 0.000000 0.000002 0.000000 0.000000 -0.453501
    23 0.928311 0.000000 0.000001 0.000000 0.000000 0.000000
    24 2.686395 -0.427337 0.044204 -0.005762 0.043239 -0.157074
    25 1.435260 0.000000 0.000001 0.000000 0.000000 0.732613
    26 1.482593 0.000000 -0.000001 0.000000 0.000000 1.168644
    27 2.046984 0.000001 0.000000 0.288612 0.447980 -0.676667
    28 -0.000005 0.000007 3.713254 -3.287575 -0.166817 1.248752
    29 18.045723 0.000000 0.000000 0.000000 0.000000 -1.736927
    30 17.597597 0.000000 0.000000 -0.249732 0.196373 -0.161161
    31 0.000005 -0.000003 -3.713254 0.825055 2.317004 5.503430
    32 18.045721 0.000000 0.000000 0.000000 0.000000 -2.673217
    33 17.597597 0.000000 0.000000 0.377083 0.037089 0.763407
  time 12
    0 -0.846717 1.761924 -20.600716 0.000000 0.000000 -1.585458
    1 -0.820342 0.144536 0.000000 -1.570795 -1.570787 0.000000
    2 1.293670 0.684478 -0.000001 -0.148018 -0.055993 0.076769
    3 5.309685 -0.003834 0.000000 -0.014652 0.067174 -0.021380
    4 4.826790 -0.004591 0.000000 -0.085148 -0.035259 0.012335
    5 5.792767 -0.005304 0.000000 0.030759 0.113374 -0.029957
    6 6.662322 -0.001452 0.000000 0.058245 0.097761 0.370546
    7 -2.799584 2.180906 4.269311 1.202090 -1.016046 -4.977499
    8 4.827512 0.000000 -0.000002 -0.376029 -0.326349 -1.022416
    9 11.140032 0.000000 0.000000 0.070821 -0.108401 -0.724289
    10 10.314563 -0.000001 0.000001 -3.988822 0.203081 -0.504208
    11 1.646836 0.445664 -1.699647 -0.161704 0.581044 -0.283978
    12 0.928312 0.000000 0.000000 0.000000 0.000000 0.000000
    13 0.928313 0.000000 -0.000001 0.000000 0.000000 0.000000
    14 2.979373 -0.388274 -0.044205 -0.000805 -0.043611 0.000046
    15 1.435262 -0.000001 -0.000001 0.000000 0.000000 0.872146
    16 1.482593 -0.000001 0.000001 0.000000 0.000000 0.907041
    17 -2.455824 1.903589 -4.202898 -0.914978 1.708601 -4.862049
    18 4.972047 0.000000 0.000000 1.099084 -0.346518 -1.658278
    19 11.585358 0.000000 0.000001 0.386603 -0.382779 -1.641583
    20 10.127058 0.000000 0.000001 2.007045 0.607102 0.784890
    21 1.537458 0.109715 1.664489 -0.264662 -0.055995 0.783079
    22 0.928313 0.000000 0.000002 0.000000 0.000000 -0.453501
    23 0.928311 0.000000 0.000001 0.000000 0.000000 0.000000
    24 2.686395 -0.427337 0.044204 -0.005762 0.043239 -0.157074
    25 1.435260 0.000000 0.000001 0.000000 0.000000 0.732613
    26 1.482593 0.000000 -0.000001 0.000000 0.000000 1.168644
    27 2.046984 0.000001 0.000000 0.292361 0.445827 -0.696558
    28 -0.000005 0.000007 3.713254 -3.287958 -0.166529 1.248944
    29 18.045723 0.000000 0.000000 0.000000 0.000000 -1.735965
    30 17.597597 0.000000 0.000000 -0.250163 0.196595 -0.161941
    31 0.000005 -0.000003 -3.713254 0.824480 2.315950 5.501225
    32 18.045721 0.000000 0.000000 0.000000 0.000000 -2.673217
    33 17.597597 0.000000 0.000000 0.377653 0.036280 0.761652
  time 13
    0 -0.846717 1.761924 -20.600716 0.000000 0.000000 -1.585458
    1 -0.820342 0.136723 0.000000 -1.570795 -1.570787 0.000000
    2 1.293670 0.684478 -0.000001 -0.148018 -0.055993 0.076769
    3 5.309685 -0.003834 0.000000 -0.013460 0.063231 -0.034981
    4 4.826790 -0.004591 0.000000 -0.086464 -0.032970 0.028915
    5 5.792767 -0.005304 0.000000 0.030939 0.116934 -0.006516
    6 6.662322 -0.001452 0.000000 0.055393 0.094819 0.328536
    7 -2.869899 2.055902 4.288843 1.209662 -1.017495 -4.942238
    8 4.827512 0.000000 -0.000002 -0.382645 -0.355172 -1.028135
    9 11.140032 0.000000 0.000000 0.070821 -0.108276 -0.723347
    10 10.314563 -0.000001 0.000001 -3.988822 0.203081 -0.504208
    11 1.646836 0.445664 -1.699647 -0.161704 0.581044 -0.283978
    12 0.928312 0.000000 0.000000 0.000000 0.000000 0.000000
    13 0.928313 0.000000 -0.000001 0.000000 0.000000 0.000000
    14 2.979373 -0.388274 -0.044205 -0.000805 -0.043611 0.000046
    15 1.435262 -0.000001 -0.000001 0.000000 0.000000 0.872146
    16 1.482593 -0.000001 0.000001 0.000000 0.000000 0.907041
    17 -2.549577 1.805929 -4.187273 -0.939147 1.712781 -4.844138
    18 4.972047 0.000000 0.000000 1.121033 -0.324502 -1.675981
    19 11.585358 0.000000 0.000001 0.386603 -0.382847 -1.638480
    20 10.127058 0.000000 0.000001 1.999752 0.605494 0.783189
    21 1.537458 0.109715 1.664489 -0.264662 -0.055995 0.783079
    22 0.928313 0.000000 0.000002 0.000000 0.000000 -0.453501
    23 0.928311 0.000000 0.000001 0.000000 0.000000 0.000000
    24 2.686395 -0.427337 0.044204 -0.005762 0.043239 -0.157074
    25 1.435260 0.000000 0.000001 0.000000 0.000000 0.732613
    26 1.482593 0.000000 -0.000001 0.000000 0.000000 1.168644
    27 2.046984 0.000001 0.000000 0.296884 0.451019 -0.681290
    28 -0.000005 0.000007 3.713254 -3.287958 -0.166529 1.248848
    29 18.045723 0.000000 0.000000 0.000000 0.000000 -1.736187
    30 17.597597 0.000000 0.000000 -0.250087 0.196521 -0.161757
    31 0.000005 -0.000003 -3.713254 0.824768 2.316141 5.501704
    32 18.045721 0.000000 0.000000 0.000000 0.000000 -2.673217
    33 17.597597 0.000000 0.000000 0.377519 0.036379 0.762021
  time 14
    0 -0.846717 1.761924 -20.600716 0.000000 0.000000 -1.585458
    1 -0.828154 0.144536 0.000000 -1.570795 -1.570787 0.000000
    2 1.293670 0.684478 -0.000001 -0.148018 -0.055993 0.076769
    3 5.309685 -0.003834 0.000000 -0.012678 0.060642 -0.043883
    4 4.826790 -0.004591 0.000000 -0.087666 -0.030884 0.043930
    5 5.792767 -0.005304 0.000000 0.031155 0.120050 0.014039
    6 6.662322 -0.001452 0.000000 0.052684 0.091754 0.286640
    7 -2.940214 1.919179 4.300562 1.217139 -1.019032 -4.906785
    8 4.827512 0.000000 -0.000002 -0.389341 -0.383994 -1.030994
    9 11.140032 0.000000 0.000000 0.070821 -0.108925 -0.728708
    10 10.314563 -0.000001 0.000001 -3.988822 0.203081 -0.504208
    11 1.646836 0.445664 -1.699647 -0.161704 0.581044 -0.283978
    12 0.928312 0.000000 0.000000 0.000000 0.000000 0.000000
    13 0.928313 0.000000 -0.000001 0.000000 0.000000 0.000000
    14 2.979373 -0.388274 -0.044205 -0.000805 -0.043611 0.000046
    15 1.435262 -0.000001 -0.000001 0.000000 0.000000 0.872146
    16 1.482593 -0.000001 0.000001 0.000000 0.000000 0.907041
    17 -2.639423 1.712177 -4.171647 -0.969813 1.718250 -4.832836
    18 4.972047 0.000000 0.000000 1.142794 -0.302486 -1.694883
    19 11.585358 0.000000 0.000001 0.386603 -0.382870 -1.637908
    20 10.127058 0.000000 0.000001 1.991968 0.603697 0.781389
    21 1.537458 0.109715 1.664489 -0.264662 -0.055995 0.783079
    22 0.928313 0.000000 0.000002 0.000000 0.000000 -0.453501
    23 0.928311 0.000000 0.000001 0.000000 0.000000 0.000000
    24 2.686395 -0.427337 0.044204 -0.005762 0.043239 -0.157074
    25 1.435260 0.000000 0.000001 0.000000 0.000000 0.732613
    26 1.482593 0.000000 -0.000001 0.000000 0.000000 1.168644
    27 2.046984 0.000001 0.000000 0.301150 0.456123 -0.666387
    28 -0.000005 0.000007 3.713254 -3.288150 -0.166242 1.249039
    29 18.045723 0.000000 0.000000 0.000000 0.000000 -1.735299
    30 17.597597 0.000000 0.000000 -0.250442 0.196718 -0.162491
    31 0.000005 -0.000003 -3.713254 0.824193 2.314991 5.499883
    32 18.045721 0.000000 0.000000 0.000000 0.000000 -2.673453
    33 17.597597 0.000000 0.000000 0.377989 0.035629 0.760451
  time 15
    0 -0.846717 1.761924 -20.600716 0.000000 0.000000 -1.585458
    1 -0.859405 0.167974 0.000000 -1.570795 -1.570787 0.000000
    2 1.293670 0.684478 -0.000001 -0.148018 -0.055993 0.076769
    3 5.309685 -0.003834 0.000000 -0.012422 0.059959 -0.046338
    4 4.826790 -0.004591 0.000000 -0.088448 -0.029470 0.054072
    5 5.792767 -0.005304 0.000000 0.031371 0.122255 0.028469
    6 6.662322 -0.001452 0.000000 0.050096 0.088538 0.244687
    7 -3.006622 1.790269 4.312281 1.224519 -1.020747 -4.871237
    8 4.827512 0.000000 -0.000002 -0.394922 -0.407018 -1.031947
    9 11.140032 0.000000 0.000000 0.070821 -0.110023 -0.737765
    10 10.314563 -0.000001 0.000001 -3.988822 0.203081 -0.504208
    11 1.646836 0.445664 -1.699647 -0.161704 0.581044 -0.283978
    12 0.928312 0.000000 0.000000 0.000000 0.000000 0.000000
    13 0.928313 0.000000 -0.000001 0.000000 0.000000 0.000000
    14 2.979373 -0.388274 -0.044205 -0.000805 -0.043611 0.000046
    15 1.435262 -0.000001 -0.000001 0.000000 0.000000 0.872146
    16 1.482593 -0.000001 0.000001 0.000000 0.000000 0.907041
    17 -2.721457 1.610611 -4.163834 -1.016910 1.727267 -4.838678
    18 4.972047 0.000000 0.000000 1.163148 -0.283524 -1.717978
    19 11.585358 0.000000 0.000001 0.386603 -0.382915 -1.634804
    20 10.127058 0.000000 0.000001 1.984255 0.601995 0.779638
    21 1.537458 0.109715 1.664489 -0.264662 -0.055995 0.783079
    22 0.928313 0.000000 0.000002 0.000000 0.000000 -0.453501
    23 0.928311 0.000000 0.000001 0.000000 0.000000 0.000000
    24 2.686395 -0.427337 0.044204 -0.005762 0.043239 -0.157074
    25 1.435260 0.000000 0.000001 0.000000 0.000000 0.732613
    26 1.482593 0.000000 -0.000001 0.000000 0.000000 1.168644
    27 2.046984 0.000001 0.000000 0.304467 0.460873 -0.647104
    28 -0.000005 0.000007 3.713254 -3.288917 -0.165667 1.249423
    29 18.045723 0.000000 0.000000 0.000000 0.000000 -1.733671
    30 17.597597 0.000000 0.000000 -0.251227 0.197161 -0.163820
    31 0.000005 -0.000003 -3.713254 0.823042 2.312882 5.495952
    32 18.045721 0.000000 0.000000 0.000000 0.000000 -2.673532
    33 17.597597 0.000000 0.000000 0.379029 0.034150 0.757356
  time 16
    0 -0.846717 1.761924 -20.600716 0.000000 0.000000 -1.585458
    1 -0.871124 0.175787 0.000000 -1.570795 -1.570787 0.000000
    2 1.293670 0.684478 -0.000001 -0.148018 -0.055993 0.076769
    3 5.309685 -0.003834 0.000000 -0.012354 0.059743 -0.047027
    4 4.826790 -0.004591 0.000000 -0.088772 -0.028883 0.058372
    5 5.792767 -0.005304 0.000000 0.031461 0.123297 0.035113
    6 6.662322 -0.001452 0.000000 0.047627 0.085281 0.202734
    7 -3.057405 1.653546 4.331813 1.231708 -1.022580 -4.835592
    8 4.827512 0.000000 -0.000002 -0.398110 -0.419468 -1.035673
    9 11.140032 0.000000 0.000000 0.070821 -0.109674 -0.734794
    10 10.314563 -0.000001 0.000001 -3.988822 0.203081 -0.504208
    11 1.646836 0.445664 -1.699647 -0.161704 0.581044 -0.283978
    12 0.928312 0.000000 0.000000 0.000000 0.000000 0.000000
    13 0.928313 0.000000 -0.000001 0.000000 0.000000 0.000000
    14 2.979373 -0.388274 -0.044205 -0.000805 -0.043611 0.000046
    15 1.435262 -0.000001 -0.000001 0.000000 0.000000 0.872146
    16 1.482593 -0.000001 0.000001 0.000000 0.000000 0.907041
    17 -2.799584 1.501233 -4.148209 -1.077095 1.740570 -4.857643
    18 4.972047 0.000000 0.000000 1.177969 -0.271953 -1.742537
    19 11.585358 0.000000 0.000001 0.386603 -0.383074 -1.626799
    20 10.127058 0.000000 0.000001 1.976962 0.600388 0.777937
    21 1.537458 0.109715 1.664489 -0.264662 -0.055995 0.783079
    22 0.928313 0.000000 0.000002 0.000000 0.000000 -0.453501
    23 0.928311 0.000000 0.000001 0.000000 0.000000 0.000000
    24 2.686395 -0.427337 0.044204 -0.005762 0.043239 -0.157074
    25 1.435260 0.000000 0.000001 0.000000 0.000000 0.732613
    26 1.482593 0.000000 -0.000001 0.000000 0.000000 1.168644
    27 2.046984 0.000001 0.000000 0.306535 0.465092 -0.615777
    28 -0.000005 0.000007 3.713254 -3.289204 -0.165283 1.249519
    29 18.045723 0.000000 0.000000 0.000000 0.000000 -1.732857
    30 17.597597 0.000000 0.000000 -0.251607 0.197358 -0.164554
    31 0.000005 -0.000003 -3.713254 0.822467 2.311827 5.494035
    32 18.045721 0.000000 0.000000 0.000000 0.000000 -2.673768
    33 17.597597 0.000000 0.000000 0.379532 0.033381 0.755786
  time 17
    0 -0.846717 1.761924 -20.600716 0.000000 0.000000 -1.585458
    1 -0.875031 0.179693 0.000000 -1.570795 -1.570787 0.000000
    2 1.293670 0.684478 -0.000001 -0.148018 -0.055993 0.076769
    3 5.309685 -0.003834 0.000000 -0.012422 0.059899 -0.046533
    4 4.826790 -0.004591 0.000000 -0.088772 -0.028787 0.058901
    5 5.792767 -0.005304 0.000000 0.031479 0.123417 0.035923
    6 6.662322 -0.001452 0.000000 0.045326 0.081914 0.160866
    7 -3.108188 1.516823 4.339626 1.238993 -1.024532 -4.799756
    8 4.827512 0.000000 -0.000002 -0.399944 -0.426375 -1.041999
    9 11.140032 0.000000 0.000000 0.070821 -0.108026 -0.721246
    10 10.314563 -0.000001 0.000001 -3.988822 0.203081 -0.504208
    11 1.646836 0.445664 -1.699647 -0.161704 0.581044 -0.283978
    12 0.928312 0.000000 0.000000 0.000000 0.000000 0.000000
    13 0.928313 0.000000 -0.000001 0.000000 0.000000 0.000000
    14 2.979373 -0.388274 -0.044205 -0.000805 -0.043611 0.000046
    15 1.435262 -0.000001 -0.000001 0.000000 0.000000 0.872146
    16 1.482593 -0.000001 0.000001 0.000000 0.000000 0.907041
    17 -2.869899 1.399667 -4.140396 -1.133077 1.755162 -4.872680
    18 4.972047 0.000000 0.000000 1.188755 -0.265204 -1.765831
    19 11.585358 0.000000 0.000001 0.386603 -0.383323 -1.614956
    20 10.127058 0.000000 0.000001 1.970510 0.598875 0.776436
    21 1.537458 0.109715 1.664489 -0.264662 -0.055995 0.783079
    22 0.928313 0.000000 0.000002 0.000000 0.000000 -0.453501
    23 0.928311 0.000000 0.000001 0.000000 0.000000 0.000000
    24 2.686395 -0.427337 0.044204 -0.005762 0.043239 -0.157074
    25 1.435260 0.000000 0.000001 0.000000 0.000000 0.732613
    26 1.482593 0.000000 -0.000001 0.000000 0.000000 1.168644
    27 2.046984 0.000001 0.000000 0.307957 0.469075 -0.575995
    28 -0.000005 0.000007 3.713254 -3.289300 -0.165187 1.249615
    29 18.045723 0.000000 0.000000 0.000000 0.000000 -1.732561
    30 17.597597 0.000000 0.000000 -0.251734 0.197431 -0.164783
    31 0.000005 -0.000003 -3.713254 0.822467 2.311348 5.493363
    32 18.045721 0.000000 0.000000 0.000000 0.000000 -2.673768
    33 17.597597 0.000000 0.000000 0.379667 0.033144 0.755232
  time 18
    0 -0.846717 1.761924 -20.600716 0.000000 0.000000 -1.585458
    1 -0.871124 0.175787 0.000000 -1.570795 -1.570787 0.000000
    2 1.293670 0.684478 -0.000001 -0.148018 -0.055993 0.076769
    3 5.309685 -0.003834 0.000000 -0.012508 0.060211 -0.045455
    4 4.826790 -0.004591 0.000000 -0.088638 -0.029027 0.057269
    5 5.792767 -0.005304 0.000000 0.031443 0.123022 0.033452
    6 6.662322 -0.001452 0.000000 0.045326 0.081914 0.160866
    7 -3.108188 1.516823 4.339626 1.238993 -1.024532 -4.799756
    8 4.827512 0.000000 -0.000002 -0.400342 -0.428422 -1.046764
    9 11.140032 0.000000 0.000000 0.070821 -0.106478 -0.708421
    10 10.314563 -0.000001 0.000001 -3.988822 0.203081 -0.504208
    11 1.646836 0.445664 -1.699647 -0.161704 0.581044 -0.283978
    12 0.928312 0.000000 0.000000 0.000000 0.000000 0.000000
    13 0.928313 0.000000 -0.000001 0.000000 0.000000 0.000000
    14 2.979373 -0.388274 -0.044205 -0.000805 -0.043611 0.000046
    15 1.435262 -0.000001 -0.000001 0.000000 0.000000 0.872146
    16 1.482593 -0.000001 0.000001 0.000000 0.000000 0.907041
    17 -2.869899 1.399667 -4.140396 -1.163265 1.764468 -4.903713
    18 4.972047 0.000000 0.000000 1.193352 -0.263436 -1.778809
    19 11.585358 0.000000 0.000001 0.386603 -0.383482 -1.605971
    20 10.127058 0.000000 0.000001 1.965391 0.597740 0.775236
    21 1.537458 0.109715 1.664489 -0.264662 -0.055995 0.783079
    22 0.928313 0.000000 0.000002 0.000000 0.000000 -0.453501
    23 0.928311 0.000000 0.000001 0.000000 0.000000 0.000000
    24 2.686395 -0.427337 0.044204 -0.005762 0.043239 -0.157074
    25 1.435260 0.000000 0.000001 0.000000 0.000000 0.732613
    26 1.482593 0.000000 -0.000001 0.000000 0.000000 1.168644
    27 2.046984 0.000001 0.000000 0.307698 0.468957 -0.573015
    28 -0.000005 0.000007 3.713254 -3.289300 -0.165187 1.249615
    29 18.045723 0.000000 0.000000 0.000000 0.000000 -1.732635
    30 17.597597 0.000000 0.000000 -0.251684 0.197382 -0.164737
    31 0.000005 -0.000003 -3.713254 0.822467 2.311444 5.493555
    32 18.045721 0.000000 0.000000 0.000000 0.000000 -2.673768
    33 17.597597 0.000000 0.000000 0.379599 0.033144 0.755370
  time 19
    0 -0.846717 1.761924 -20.600716 0.000000 0.000000 -1.585458
    1 -0.871124 0.175787 0.000000 -1.570795 -1.570787 0.000000
    2 1.293670 0.684478 -0.000001 -0.148018 -0.055993 0.076769
    3 5.309685 -0.003834 0.000000 -0.012610 0.060510 -0.044378
    4 4.826790 -0.004591 0.000000 -0.088505 -0.029314 0.055131
    5 5.792767 -0.005304 0.000000 0.031389 0.122530 0.030130
    6 6.662322 -0.001452 0.000000 0.045326 0.081914 0.160866
    7 -3.108188 1.516823 4.339626 1.238993 -1.024532 -4.799756
    8 4.827512 0.000000 -0.000002 -0.400023 -0.426801 -1.047977
    9 11.140032 0.000000 0.000000 0.070821 -0.105804 -0.702915
    10 10.314563 -0.000001 0.000001 -3.988822 0.203081 -0.504208
    11 1.646836 0.445664 -1.699647 -0.161704 0.581044 -0.283978
    12 0.928312 0.000000 0.000000 0.000000 0.000000 0.000000
    13 0.928313 0.000000 -0.000001 0.000000 0.000000 0.000000
    14 2.979373 -0.388274 -0.044205 -0.000805 -0.043611 0.000046
    15 1.435262 -0.000001 -0.000001 0.000000 0.000000 0.872146
    16 1.482593 -0.000001 0.000001 0.000000 0.000000 0.907041
    17 -2.869899 1.399667 -4.140396 -1.168424 1.766151 -4.908981
    18 4.972047 0.000000 0.000000 1.193539 -0.264079 -1.781139
    19 11.585358 0.000000 0.000001 0.386603 -0.383550 -1.602541
    20 10.127058 0.000000 0.000001 1.961955 0.596983 0.774436
    21 1.537458 0.109715 1.664489 -0.264662 -0.055995 0.783079
    22 0.928313 0.000000 0.000002 0.000000 0.000000 -0.453501
    23 0.928311 0.000000 0.000001 0.000000 0.000000 0.000000
    24 2.686395 -0.427337 0.044204 -0.005762 0.043239 -0.157074
    25 1.435260 0.000000 0.000001 0.000000 0.000000 0.732613
    26 1.482593 0.000000 -0.000001 0.000000 0.000000 1.168644
    27 2.046984 0.000001 0.000000 0.307267 0.468780 -0.568513
    28 -0.000005 0.000007 3.713254 -3.289204 -0.165283 1.249519
    29 18.045723 0.000000 0.000000 0.000000 0.000000 -1.732783
    30 17.597597 0.000000 0.000000 -0.251607 0.197308 -0.164554
    31 0.000005 -0.000003 -3.713254 0.822659 2.311636 5.494130
    32 18.045721 0.000000 0.000000 0.000000 0.000000 -2.673768
    33 17.597597 0.000000 0.000000 0.379432 0.033282 0.755740
  time 20
    0 -0.846717 1.761924 -20.600716 0.000000 0.000000 -1.585458
    1 -0.871124 0.175787 0.000000 -1.570795 -1.570787 0.000000
    2 1.293670 0.684478 -0.000001 -0.148018 -0.055993 0.076769
    3 5.309685 -0.003834 0.000000 -0.012678 0.060642 -0.043883
    4 4.826790 -0.004591 0.000000 -0.088448 -0.029470 0.054072
    5 5.792767 -0.005304 0.000000 0.031371 0.122255 0.028469
    6 6.662322 -0.001452 0.000000 0.045326 0.081914 0.160866
    7 -3.108188 1.516823 4.339626 1.238993 -1.024532 -4.799756
    8 4.827512 0.000000 -0.000002 -0.399784 -0.425608 -1.047977
    9 11.140032 0.000000 0.000000 0.070821 -0.105579 -0.701031
    10 10.314563 -0.000001 0.000001 -3.988822 0.203081 -0.504208
    11 1.646836 0.445664 -1.699647 -0.161704 0.581044 -0.283978
    12 0.928312 0.000000 0.000000 0.000000 0.000000 0.000000
    13 0.928313 0.000000 -0.000001 0.000000 0.000000 0.000000
    14 2.979373 -0.388274 -0.044205 -0.000805 -0.043611 0.000046
    15 1.435262 -0.000001 -0.000001 0.000000 0.000000 0.872146
    16 1.482593 -0.000001 0.000001 0.000000 0.000000 0.907041
    17 -2.869899 1.399667 -4.140396 -1.163265 1.764468 -4.903713
    18 4.972047 0.000000 0.000000 1.192695 -0.264722 -1.779142
    19 11.585358 0.000000 0.000001 0.386603 -0.383573 -1.601969
    20 10.127058 0.000000 0.000001 1.960763 0.596700 0.774136
    21 1.537458 0.109715 1.664489 -0.264662 -0.055995 0.783079
    22 0.928313 0.000000 0.000002 0.000000 0.000000 -0.453501
    23 0.928311 0.000000 0.000001 0.000000 0.000000 0.000000
    24 2.686395 -0.427337 0.044204 -0.005762 0.043239 -0.157074
    25 1.435260 0.000000 0.000001 0.000000 0.000000 0.732613
    26 1.482593 0.000000 -0.000001 0.000000 0.000000 1.168644
    27 2.046984 0.000001 0.000000 0.307009 0.468721 -0.566324
    28 -0.000005 0.000007 3.713254 -3.289300 -0.165475 1.249615
    29 18.045723 0.000000 0.000000 0.000000 0.000000 -1.732931
    30 17.597597 0.000000 0.000000 -0.251405 0.197505 -0.164508
    31 0.000005 -0.000003 -3.713254 0.821892 2.312307 5.493555
    32 18.045721 0.000000 0.000000 0.000000 0.000000 -2.673768
    33 17.597597 0.000000 0.000000 0.379969 0.033854 0.755924
end
