version 1
nodes
  0 "Bip01" -1
  1 "Bip01 Pelvis" 0
  2 "Bip01 Spine" 1
  3 "Bip01 Spine1" 2
  4 "Bip01 Spine2" 3
  5 "Bip01 Spine3" 4
  6 "Bip01 Neck" 5
  7 "Bip01 L Arm" 6
  8 "Bip01 L Arm1" 7
  9 "Bip01 L Arm2" 8
  10 "Bip01 L Hand" 9
  11 "Bip01 L Finger0" 10
  12 "Bip01 L Finger01" 11
  13 "Bip01 L Finger02" 12
  14 "Bip01 L Finger1" 10
  15 "Bip01 L Finger11" 14
  16 "Bip01 L Finger12" 15
  17 "Bip01 R Arm" 6
  18 "Bip01 R Arm1" 17
  19 "Bip01 R Arm2" 18
  20 "Bip01 R Hand" 19
  21 "Bip01 R Finger0" 20
  22 "Bip01 R Finger01" 21
  23 "Bip01 R Finger02" 22
  24 "Bip01 R Finger1" 20
  25 "Bip01 R Finger11" 24
  26 "Bip01 R Finger12" 25
  27 "Bip01 Head" 6
  28 "Bip01 L Leg" 1
  29 "Bip01 L Leg1" 28
  30 "Bip01 L Foot" 29
  31 "Bip01 R Leg" 1
  32 "Bip01 R Leg1" 31
  33 "Bip01 R Foot" 32
end
skeleton
  time 0
    0 -1.542051 -0.800655 -20.585090 0.000000 0.000000 -1.571017
    1 -3.914186 0.093753 0.000000 -1.570795 -1.570787 0.000000
    2 1.293670 0.684478 -0.000001 -0.000004 -0.000001 0.034347
    3 5.309685 -0.003834 0.000000 0.000000 0.000000 -0.134498
    4 4.826790 -0.004591 0.000000 -0.166920 0.050875 -0.093739
    5 5.792767 -0.005304 0.000000 -0.123468 0.068792 -0.167947
    6 6.662322 -0.001452 0.000000 0.000000 -0.000001 0.471000
    7 -3.108188 1.516823 4.339626 1.213017 -1.046029 -4.776281
    8 4.827512 0.000000 -0.000002 0.058349 0.067701 -0.988015
    9 11.140032 0.000000 0.000000 -0.143890 -0.197852 -0.967007
    10 10.314563 -0.000001 0.000001 -3.909874 0.083181 -0.332921
    11 1.646836 0.445664 -1.699647 0.325979 0.616202 0.091573
    12 0.928312 0.000000 0.000000 0.000000 0.000000 0.000000
    13 0.928313 0.000000 -0.000001 0.000000 0.000000 0.000000
    14 2.979373 -0.388274 -0.044205 -0.000805 -0.043611 0.000046
    15 1.435262 -0.000001 -0.000001 0.272733 -0.008065 0.399315
    16 1.482593 -0.000001 0.000001 0.096344 -0.092317 0.394807
    17 -2.869899 1.399667 -4.140396 0.672666 1.317189 -2.956405
    18 4.972047 0.000000 0.000000 -0.011116 -1.071190 -0.701677
    19 11.585358 0.000000 0.000001 0.000000 0.000000 -1.867102
    20 10.127058 0.000000 0.000001 1.716451 0.380621 -0.016205
    21 1.537458 0.109715 1.664489 -0.264662 -0.055995 0.783079
    22 0.928313 0.000000 0.000002 0.000000 0.000000 -0.453501
    23 0.928311 0.000000 0.000001 0.000000 0.000000 0.000000
    24 2.686395 -0.427337 0.044204 -0.005762 0.043239 -0.157074
    25 1.435260 0.000000 0.000001 0.012033 -0.011913 0.044202
    26 1.482593 0.000000 -0.000001 0.000000 0.000000 1.168644
    27 2.046984 0.000001 0.000000 0.306535 -0.047619 -0.620948
    28 -0.000005 0.000007 3.713254 -3.204068 -0.120606 1.238399
    29 18.045723 0.000000 0.000000 0.000000 0.000000 -1.756393
    30 17.597597 0.000000 0.000000 -0.210887 0.105637 -0.141218
    31 0.000005 -0.000003 -3.713254 0.848441 2.461380 5.479079
    32 18.045721 0.000000 0.000000 0.000000 0.000000 -2.603394
    33 17.597597 0.000000 0.000000 0.362388 -0.168095 0.787471
  time 1
    0 -1.542051 -0.800655 -20.585090 0.000000 0.000000 -1.571017
    1 -3.914186 0.093753 0.000000 -1.570795 -1.570787 0.000000
    2 1.293670 0.684478 -0.000001 -0.000004 -0.000001 0.034347
    3 5.309685 -0.003834 0.000000 -0.000136 0.001690 -0.128863
    4 4.826790 -0.004591 0.000000 -0.165718 0.048885 -0.108181
    5 5.792767 -0.005304 0.000000 -0.123486 0.065712 -0.185097
    6 6.662322 -0.001452 0.000000 0.000000 -0.000001 0.471000
    7 -3.108188 1.516823 4.339626 1.213017 -1.046029 -4.776281
    8 4.827512 0.000000 -0.000002 0.060980 0.072817 -0.989402
    9 11.140032 0.000000 0.000000 -0.143890 -0.197228 -0.962660
    10 10.314563 -0.000001 0.000001 -3.911201 0.071753 -0.335185
    11 1.646836 0.445664 -1.699647 0.325979 0.616202 0.091573
    12 0.928312 0.000000 0.000000 0.000000 0.000000 0.000000
    13 0.928313 0.000000 -0.000001 0.000000 0.000000 0.000000
    14 2.979373 -0.388274 -0.044205 -0.000805 -0.043611 0.000046
    15 1.435262 -0.000001 -0.000001 0.272733 -0.008065 0.399315
    16 1.482593 -0.000001 0.000001 0.096344 -0.092317 0.394807
    17 -2.869899 1.399667 -4.140396 0.668844 1.315927 -2.960428
    18 4.972047 0.000000 0.000000 -0.021527 -1.073279 -0.690296
    19 11.585358 0.000000 0.000001 0.000000 0.000000 -1.867020
    20 10.127058 0.000000 0.000001 1.716592 0.380432 -0.015705
    21 1.537458 0.109715 1.664489 -0.264662 -0.055995 0.783079
    22 0.928313 0.000000 0.000002 0.000000 0.000000 -0.453501
    23 0.928311 0.000000 0.000001 0.000000 0.000000 0.000000
    24 2.686395 -0.427337 0.044204 -0.005762 0.043239 -0.157074
    25 1.435260 0.000000 0.000001 0.012033 -0.011913 0.044202
    26 1.482593 0.000000 -0.000001 0.000000 0.000000 1.168644
    27 2.046984 0.000001 0.000000 0.303864 -0.048445 -0.594670
    28 -0.000005 0.000007 3.713254 -3.204068 -0.120606 1.238399
    29 18.045723 0.000000 0.000000 0.000000 0.000000 -1.756393
    30 17.597597 0.000000 0.000000 -0.210887 0.105637 -0.141218
    31 0.000005 -0.000003 -3.713254 0.848441 2.461380 5.479079
    32 18.045721 0.000000 0.000000 0.000000 0.000000 -2.603394
    33 17.597597 0.000000 0.000000 0.362388 -0.168095 0.787471
  time 2
    0 -1.542051 -0.800655 -20.585090 0.000000 0.000000 -1.571017
    1 -3.914186 0.093753 0.000000 -1.570795 -1.570787 0.000000
    2 1.293670 0.684478 -0.000001 -0.000004 -0.000001 0.034347
    3 5.309685 -0.003834 0.000000 -0.000272 0.003500 -0.122787
    4 4.826790 -0.004591 0.000000 -0.164402 0.046812 -0.123703
    5 5.792767 -0.005304 0.000000 -0.123450 0.062500 -0.202870
    6 6.662322 -0.001452 0.000000 0.000000 -0.000001 0.471000
    7 -3.108188 1.516823 4.339626 1.213017 -1.046029 -4.776281
    8 4.827512 0.000000 -0.000002 0.068393 0.087911 -0.992781
    9 11.140032 0.000000 0.000000 -0.143890 -0.195830 -0.952879
    10 10.314563 -0.000001 0.000001 -3.914613 0.043370 -0.340934
    11 1.646836 0.445664 -1.699647 0.325979 0.616202 0.091573
    12 0.928312 0.000000 0.000000 0.000000 0.000000 0.000000
    13 0.928313 0.000000 -0.000001 0.000000 0.000000 0.000000
    14 2.979373 -0.388274 -0.044205 -0.000805 -0.043611 0.000046
    15 1.435262 -0.000001 -0.000001 0.272733 -0.008065 0.399315
    16 1.482593 -0.000001 0.000001 0.096344 -0.092317 0.394807
    17 -2.869899 1.399667 -4.140396 0.672666 1.317189 -2.956405
    18 4.972047 0.000000 0.000000 -0.048823 -1.078823 -0.660346
    19 11.585358 0.000000 0.000001 0.000000 0.000000 -1.867102
    20 10.127058 0.000000 0.000001 1.716451 0.380621 -0.016205
    21 1.537458 0.109715 1.664489 -0.264662 -0.055995 0.783079
    22 0.928313 0.000000 0.000002 0.000000 0.000000 -0.453501
    23 0.928311 0.000000 0.000001 0.000000 0.000000 0.000000
    24 2.686395 -0.427337 0.044204 -0.005762 0.043239 -0.157074
    25 1.435260 0.000000 0.000001 0.012033 -0.011913 0.044202
    26 1.482593 0.000000 -0.000001 0.000000 0.000000 1.168644
    27 2.046984 0.000001 0.000000 0.301020 -0.049330 -0.566993
    28 -0.000005 0.000007 3.713254 -3.204068 -0.120606 1.238399
    29 18.045723 0.000000 0.000000 0.000000 0.000000 -1.756393
    30 17.597597 0.000000 0.000000 -0.210887 0.105637 -0.141218
    31 0.000005 -0.000003 -3.713254 0.848441 2.461380 5.479079
    32 18.045721 0.000000 0.000000 0.000000 0.000000 -2.603394
    33 17.597597 0.000000 0.000000 0.362388 -0.168095 0.787471
  time 3
    0 -1.542051 -0.800655 -20.585090 0.000000 0.000000 -1.571017
    1 -3.914186 0.093753 0.000000 -1.570795 -1.570787 0.000000
    2 1.293670 0.684478 -0.000001 -0.000004 -0.000001 0.034347
    3 5.309685 -0.003834 0.000000 -0.000408 0.005297 -0.116746
    4 4.826790 -0.004591 0.000000 -0.163105 0.044786 -0.138718
    5 5.792767 -0.005304 0.000000 -0.123360 0.059348 -0.220311
    6 6.662322 -0.001452 0.000000 0.002289 0.003353 0.512868
    7 -3.057405 1.653546 4.327907 1.205732 -1.044077 -4.812117
    8 4.827512 0.000000 -0.000002 0.079235 0.110167 -0.998760
    9 11.140032 0.000000 0.000000 -0.143890 -0.193758 -0.938316
    10 10.314563 -0.000001 0.000001 -3.919067 0.006463 -0.348424
    11 1.646836 0.445664 -1.699647 0.325979 0.616202 0.091573
    12 0.928312 0.000000 0.000000 0.000000 0.000000 0.000000
    13 0.928313 0.000000 -0.000001 0.000000 0.000000 0.000000
    14 2.979373 -0.388274 -0.044205 -0.000805 -0.043611 0.000046
    15 1.435262 -0.000001 -0.000001 0.272733 -0.008065 0.399315
    16 1.482593 -0.000001 0.000001 0.096344 -0.092317 0.394807
    17 -2.803491 1.505139 -4.148209 0.703618 1.326181 -2.967133
    18 4.972047 0.000000 0.000000 -0.087561 -1.086697 -0.617951
    19 11.585358 0.000000 0.000001 0.000000 0.000000 -1.867347
    20 10.127058 0.000000 0.000001 1.715680 0.381755 -0.018556
    21 1.537458 0.109715 1.664489 -0.264662 -0.055995 0.783079
    22 0.928313 0.000000 0.000002 0.000000 0.000000 -0.453501
    23 0.928311 0.000000 0.000001 0.000000 0.000000 0.000000
    24 2.686395 -0.427337 0.044204 -0.005762 0.043239 -0.157074
    25 1.435260 0.000000 0.000001 0.012033 -0.011913 0.044202
    26 1.482593 0.000000 -0.000001 0.000000 0.000000 1.168644
    27 2.046984 0.000001 0.000000 0.296238 -0.050805 -0.591142
    28 -0.000005 0.000007 3.713254 -3.204068 -0.120606 1.238399
    29 18.045723 0.000000 0.000000 0.000000 0.000000 -1.756393
    30 17.597597 0.000000 0.000000 -0.210887 0.105637 -0.141218
    31 0.000005 -0.000003 -3.713254 0.848441 2.461380 5.479079
    32 18.045721 0.000000 0.000000 0.000000 0.000000 -2.603394
    33 17.597597 0.000000 0.000000 0.362388 -0.168095 0.787471
  time 4
    0 -1.542051 -0.800655 -20.585090 0.000000 0.000000 -1.571017
    1 -3.914186 0.093753 0.000000 -1.570795 -1.570787 0.000000
    2 1.293670 0.684478 -0.000001 -0.000004 -0.000001 0.034347
    3 5.309685 -0.003834 0.000000 -0.000511 0.007023 -0.111111
    4 4.826790 -0.004591 0.000000 -0.161922 0.043109 -0.151572
    5 5.792767 -0.005304 0.000000 -0.123216 0.056495 -0.236506
    6 6.662322 -0.001452 0.000000 0.004770 0.006624 0.554821
    7 -3.002716 1.790269 4.316188 1.198543 -1.042244 -4.847665
    8 4.827512 0.000000 -0.000002 0.090395 0.134555 -1.006819
    9 11.140032 0.000000 0.000000 -0.143890 -0.191311 -0.921217
    10 10.314563 -0.000001 0.000001 -3.923521 -0.030350 -0.355856
    11 1.646836 0.445664 -1.699647 0.325979 0.616202 0.091573
    12 0.928312 0.000000 0.000000 0.000000 0.000000 0.000000
    13 0.928313 0.000000 -0.000001 0.000000 0.000000 0.000000
    14 2.979373 -0.388274 -0.044205 -0.000805 -0.043611 0.000046
    15 1.435262 -0.000001 -0.000001 0.272733 -0.008065 0.399315
    16 1.482593 -0.000001 0.000001 0.096344 -0.092317 0.394807
    17 -2.725363 1.606705 -4.159928 0.741258 1.336355 -2.970868
    18 4.972047 0.000000 0.000000 -0.131834 -1.095696 -0.569432
    19 11.585358 0.000000 0.000001 0.000000 0.000000 -1.867592
    20 10.127058 0.000000 0.000001 1.714768 0.382985 -0.021407
    21 1.537458 0.109715 1.664489 -0.264662 -0.055995 0.783079
    22 0.928313 0.000000 0.000002 0.000000 0.000000 -0.453501
    23 0.928311 0.000000 0.000001 0.000000 0.000000 0.000000
    24 2.686395 -0.427337 0.044204 -0.005762 0.043239 -0.157074
    25 1.435260 0.000000 0.000001 0.012033 -0.011913 0.044202
    26 1.482593 0.000000 -0.000001 0.000000 0.000000 1.168644
    27 2.046984 0.000001 0.000000 0.291930 -0.052192 -0.618393
    28 -0.000005 0.000007 3.713254 -3.204068 -0.120606 1.238399
    29 18.045723 0.000000 0.000000 0.000000 0.000000 -1.756393
    30 17.597597 0.000000 0.000000 -0.210887 0.105637 -0.141218
    31 0.000005 -0.000003 -3.713254 0.848441 2.461380 5.479079
    32 18.045721 0.000000 0.000000 0.000000 0.000000 -2.603394
    33 17.597597 0.000000 0.000000 0.362388 -0.168095 0.787471
  time 5
    0 -1.542051 -0.800655 -20.585090 0.000000 0.000000 -1.571017
    1 -3.914186 0.093753 0.000000 -1.570795 -1.570787 0.000000
    2 1.293670 0.684478 -0.000001 -0.000004 -0.000001 0.034347
    3 5.309685 -0.003834 0.000000 -0.000613 0.008449 -0.106236
    4 4.826790 -0.004591 0.000000 -0.161121 0.041886 -0.160678
    5 5.792767 -0.005304 0.000000 -0.123018 0.054194 -0.250562
    6 6.662322 -0.001452 0.000000 0.007359 0.009840 0.596774
    7 -2.940214 1.923085 4.300562 1.191162 -1.040559 -4.883310
    8 4.827512 0.000000 -0.000002 0.100599 0.158091 -1.015570
    9 11.140032 0.000000 0.000000 -0.143890 -0.188665 -0.902669
    10 10.314563 -0.000001 0.000001 -3.926933 -0.058732 -0.361604
    11 1.646836 0.445664 -1.699647 0.325979 0.616202 0.091573
    12 0.928312 0.000000 0.000000 0.000000 0.000000 0.000000
    13 0.928313 0.000000 -0.000001 0.000000 0.000000 0.000000
    14 2.979373 -0.388274 -0.044205 -0.000805 -0.043611 0.000046
    15 1.435262 -0.000001 -0.000001 0.272733 -0.008065 0.399315
    16 1.482593 -0.000001 0.000001 0.096344 -0.092317 0.394807
    17 -2.639423 1.712177 -4.171647 0.784151 1.346845 -2.969335
    18 4.972047 0.000000 0.000000 -0.176201 -1.104695 -0.520846
    19 11.585358 0.000000 0.000001 0.000000 0.000000 -1.867918
    20 10.127058 0.000000 0.000001 1.713787 0.384309 -0.024559
    21 1.537458 0.109715 1.664489 -0.264662 -0.055995 0.783079
    22 0.928313 0.000000 0.000002 0.000000 0.000000 -0.453501
    23 0.928311 0.000000 0.000001 0.000000 0.000000 0.000000
    24 2.686395 -0.427337 0.044204 -0.005762 0.043239 -0.157074
    25 1.435260 0.000000 0.000001 0.012033 -0.011913 0.044202
    26 1.482593 0.000000 -0.000001 0.000000 0.000000 1.168644
    27 2.046984 0.000001 0.000000 0.288268 -0.053490 -0.650815
    28 -0.000005 0.000007 3.713254 -3.204068 -0.120606 1.238399
    29 18.045723 0.000000 0.000000 0.000000 0.000000 -1.756393
    30 17.597597 0.000000 0.000000 -0.210887 0.105637 -0.141218
    31 0.000005 -0.000003 -3.713254 0.848441 2.461380 5.479079
    32 18.045721 0.000000 0.000000 0.000000 0.000000 -2.603394
    33 17.597597 0.000000 0.000000 0.362388 -0.168095 0.787471
  time 6
    0 -1.542051 -0.800655 -20.585090 0.000000 0.000000 -1.571017
    1 -3.914186 0.093753 0.000000 -1.570795 -1.570787 0.000000
    2 1.293670 0.684478 -0.000001 -0.000004 -0.000001 0.034347
    3 5.309685 -0.003834 0.000000 -0.000681 0.009564 -0.102615
    4 4.826790 -0.004591 0.000000 -0.160625 0.041191 -0.166035
    5 5.792767 -0.005304 0.000000 -0.122766 0.052373 -0.264058
    6 6.662322 -0.001452 0.000000 0.010055 0.012905 0.638670
    7 -2.869899 2.055902 4.288843 1.183686 -1.038991 -4.918763
    8 4.827512 0.000000 -0.000002 0.108730 0.178130 -1.024495
    9 11.140032 0.000000 0.000000 -0.143890 -0.186218 -0.886946
    10 10.314563 -0.000001 0.000001 -3.928260 -0.070067 -0.363927
    11 1.646836 0.445664 -1.699647 0.325979 0.616202 0.091573
    12 0.928312 0.000000 0.000000 0.000000 0.000000 0.000000
    13 0.928313 0.000000 -0.000001 0.000000 0.000000 0.000000
    14 2.979373 -0.388274 -0.044205 -0.000805 -0.043611 0.000046
    15 1.435262 -0.000001 -0.000001 0.272733 -0.008065 0.399315
    16 1.482593 -0.000001 0.000001 0.096344 -0.092317 0.394807
    17 -2.553483 1.809836 -4.187273 0.829433 1.356677 -2.965600
    18 4.972047 0.000000 0.000000 -0.214846 -1.112570 -0.478451
    19 11.585358 0.000000 0.000001 0.000000 0.000000 -1.868245
    20 10.127058 0.000000 0.000001 1.712875 0.385538 -0.027560
    21 1.537458 0.109715 1.664489 -0.264662 -0.055995 0.783079
    22 0.928313 0.000000 0.000002 0.000000 0.000000 -0.453501
    23 0.928311 0.000000 0.000001 0.000000 0.000000 0.000000
    24 2.686395 -0.427337 0.044204 -0.005762 0.043239 -0.157074
    25 1.435260 0.000000 0.000001 0.012033 -0.011913 0.044202
    26 1.482593 0.000000 -0.000001 0.000000 0.000000 1.168644
    27 2.046984 0.000001 0.000000 0.285209 -0.054788 -0.686399
    28 -0.000005 0.000007 3.713254 -3.204068 -0.120606 1.238399
    29 18.045723 0.000000 0.000000 0.000000 0.000000 -1.756393
    30 17.597597 0.000000 0.000000 -0.210887 0.105637 -0.141218
    31 0.000005 -0.000003 -3.713254 0.848441 2.461380 5.479079
    32 18.045721 0.000000 0.000000 0.000000 0.000000 -2.603394
    33 17.597597 0.000000 0.000000 0.362388 -0.168095 0.787471
  time 7
    0 -1.542051 -0.800655 -20.585090 0.000000 0.000000 -1.571017
    1 -3.914186 0.093753 0.000000 -1.570795 -1.570787 0.000000
    2 1.293670 0.684478 -0.000001 -0.000004 -0.000001 0.034347
    3 5.309685 -0.003834 0.000000 -0.000732 0.010319 -0.100106
    4 4.826790 -0.004591 0.000000 -0.160377 0.040843 -0.168703
    5 5.792767 -0.005304 0.000000 -0.122460 0.051018 -0.276495
    6 6.662322 -0.001452 0.000000 0.012907 0.015846 0.680680
    7 -2.799584 2.180906 4.269311 1.176113 -1.037542 -4.954024
    8 4.827512 0.000000 -0.000002 0.113832 0.191603 -1.031514
    9 11.140032 0.000000 0.000000 -0.143890 -0.184146 -0.873905
    10 10.314563 -0.000001 0.000001 -3.927976 -0.067912 -0.363462
    11 1.646836 0.445664 -1.699647 0.325979 0.616202 0.091573
    12 0.928312 0.000000 0.000000 0.000000 0.000000 0.000000
    13 0.928313 0.000000 -0.000001 0.000000 0.000000 0.000000
    14 2.979373 -0.388274 -0.044205 -0.000805 -0.043611 0.000046
    15 1.435262 -0.000001 -0.000001 0.272733 -0.008065 0.399315
    16 1.482593 -0.000001 0.000001 0.096344 -0.092317 0.394807
    17 -2.455824 1.907495 -4.202898 0.872900 1.365274 -2.963684
    18 4.972047 0.000000 0.000000 -0.242048 -1.118114 -0.448501
    19 11.585358 0.000000 0.000001 0.000000 0.000000 -1.868572
    20 10.127058 0.000000 0.000001 1.712104 0.386673 -0.030111
    21 1.537458 0.109715 1.664489 -0.264662 -0.055995 0.783079
    22 0.928313 0.000000 0.000002 0.000000 0.000000 -0.453501
    23 0.928311 0.000000 0.000001 0.000000 0.000000 0.000000
    24 2.686395 -0.427337 0.044204 -0.005762 0.043239 -0.157074
    25 1.435260 0.000000 0.000001 0.012033 -0.011913 0.044202
    26 1.482593 0.000000 -0.000001 0.000000 0.000000 1.168644
    27 2.046984 0.000001 0.000000 0.282624 -0.056175 -0.724661
    28 -0.000005 0.000007 3.713254 -3.204068 -0.120606 1.238399
    29 18.045723 0.000000 0.000000 0.000000 0.000000 -1.756393
    30 17.597597 0.000000 0.000000 -0.210887 0.105637 -0.141218
    31 0.000005 -0.000003 -3.713254 0.848441 2.461380 5.479079
    32 18.045721 0.000000 0.000000 0.000000 0.000000 -2.603394
    33 17.597597 0.000000 0.000000 0.362388 -0.168095 0.787471
  time 8
    0 -1.542051 -0.800655 -20.585090 0.000000 0.000000 -1.571017
    1 -3.914186 0.093753 0.000000 -1.570795 -1.570787 0.000000
    2 1.293670 0.684478 -0.000001 -0.000004 -0.000001 0.034347
    3 5.309685 -0.003834 0.000000 -0.000766 0.010750 -0.098623
    4 4.826790 -0.004591 0.000000 -0.160377 0.040843 -0.168703
    5 5.792767 -0.005304 0.000000 -0.122263 0.050515 -0.283741
    6 6.662322 -0.001452 0.000000 0.012907 0.015846 0.680680
    7 -2.803491 2.184812 4.269311 1.176113 -1.037542 -4.954024
    8 4.827512 0.000000 -0.000002 0.115984 0.197402 -1.035067
    9 11.140032 0.000000 0.000000 -0.143890 -0.183322 -0.868761
    10 10.314563 -0.000001 0.000001 -3.927218 -0.061636 -0.362185
    11 1.646836 0.445664 -1.699647 0.325979 0.616202 0.091573
    12 0.928312 0.000000 0.000000 0.000000 0.000000 0.000000
    13 0.928313 0.000000 -0.000001 0.000000 0.000000 0.000000
    14 2.979373 -0.388274 -0.044205 -0.000805 -0.043611 0.000046
    15 1.435262 -0.000001 -0.000001 0.272733 -0.008065 0.399315
    16 1.482593 -0.000001 0.000001 0.096344 -0.092317 0.394807
    17 -2.459730 1.911401 -4.202898 0.895255 1.369087 -2.940793
    18 4.972047 0.000000 0.000000 -0.252459 -1.120283 -0.437120
    19 11.585358 0.000000 0.000001 0.000000 0.000000 -1.868735
    20 10.127058 0.000000 0.000001 1.711473 0.387429 -0.031912
    21 1.537458 0.109715 1.664489 -0.264662 -0.055995 0.783079
    22 0.928313 0.000000 0.000002 0.000000 0.000000 -0.453501
    23 0.928311 0.000000 0.000001 0.000000 0.000000 0.000000
    24 2.686395 -0.427337 0.044204 -0.005762 0.043239 -0.157074
    25 1.435260 0.000000 0.000001 0.012033 -0.011913 0.044202
    26 1.482593 0.000000 -0.000001 0.000000 0.000000 1.168644
    27 2.046984 0.000001 0.000000 0.282624 -0.059597 -0.709697
    28 -0.000005 0.000007 3.713254 -3.204068 -0.120606 1.238399
    29 18.045723 0.000000 0.000000 0.000000 0.000000 -1.756393
    30 17.597597 0.000000 0.000000 -0.210887 0.105637 -0.141218
    31 0.000005 -0.000003 -3.713254 0.848441 2.461380 5.479079
    32 18.045721 0.000000 0.000000 0.000000 0.000000 -2.603394
    33 17.597597 0.000000 0.000000 0.362388 -0.168095 0.787471
  time 9
    0 -1.542051 -0.800655 -20.585090 0.000000 0.000000 -1.571017
    1 -3.914186 0.093753 0.000000 -1.570795 -1.570787 0.000000
    2 1.293670 0.684478 -0.000001 -0.000004 -0.000001 0.034347
    3 5.309685 -0.003834 0.000000 -0.000766 0.010822 -0.098358
    4 4.826790 -0.004591 0.000000 -0.160625 0.041191 -0.166035
    5 5.792767 -0.005304 0.000000 -0.122245 0.051222 -0.281561
    6 6.662322 -0.001452 0.000000 0.012907 0.015846 0.680680
    7 -2.799584 2.184812 4.269311 1.176113 -1.037542 -4.954024
    8 4.827512 0.000000 -0.000002 0.113752 0.191603 -1.034373
    9 11.140032 0.000000 0.000000 -0.143890 -0.184096 -0.873615
    10 10.314563 -0.000001 0.000001 -3.926080 -0.051988 -0.360269
    11 1.646836 0.445664 -1.699647 0.325979 0.616202 0.091573
    12 0.928312 0.000000 0.000000 0.000000 0.000000 0.000000
    13 0.928313 0.000000 -0.000001 0.000000 0.000000 0.000000
    14 2.979373 -0.388274 -0.044205 -0.000805 -0.043611 0.000046
    15 1.435262 -0.000001 -0.000001 0.272733 -0.008065 0.399315
    16 1.482593 -0.000001 0.000001 0.096344 -0.092317 0.394807
    17 -2.455824 1.907495 -4.198992 0.909680 1.371321 -2.926043
    18 4.972047 0.000000 0.000000 -0.237733 -1.118435 -0.452561
    19 11.585358 0.000000 0.000001 0.000000 0.000000 -1.868898
    20 10.127058 0.000000 0.000001 1.711192 0.387902 -0.033062
    21 1.537458 0.109715 1.664489 -0.264662 -0.055995 0.783079
    22 0.928313 0.000000 0.000002 0.000000 0.000000 -0.453501
    23 0.928311 0.000000 0.000001 0.000000 0.000000 0.000000
    24 2.686395 -0.427337 0.044204 -0.005762 0.043239 -0.157074
    25 1.435260 0.000000 0.000001 0.012033 -0.011913 0.044202
    26 1.482593 0.000000 -0.000001 0.000000 0.000000 1.168644
    27 2.046984 0.000001 0.000000 0.283399 -0.062754 -0.705621
    28 -0.000005 0.000007 3.713254 -3.204068 -0.120606 1.238399
    29 18.045723 0.000000 0.000000 0.000000 0.000000 -1.756393
    30 17.597597 0.000000 0.000000 -0.210887 0.105637 -0.141218
    31 0.000005 -0.000003 -3.713254 0.848441 2.461380 5.479079
    32 18.045721 0.000000 0.000000 0.000000 0.000000 -2.603394
    33 17.597597 0.000000 0.000000 0.362388 -0.168095 0.787471
  time 10
    0 -1.542051 -0.800655 -20.585090 0.000000 0.000000 -1.571017
    1 -3.914186 0.093753 0.000000 -1.570795 -1.570787 0.000000
    2 1.293670 0.684478 -0.000001 -0.000004 -0.000001 0.034347
    3 5.309685 -0.003834 0.000000 -0.000732 0.010475 -0.099612
    4 4.826790 -0.004591 0.000000 -0.161121 0.041886 -0.160678
    5 5.792767 -0.005304 0.000000 -0.122460 0.053295 -0.268854
    6 6.662322 -0.001452 0.000000 0.012907 0.015846 0.680680
    7 -2.803491 2.180906 4.273217 1.176113 -1.037542 -4.954024
    8 4.827512 0.000000 -0.000002 0.106976 0.174804 -1.031427
    9 11.140032 0.000000 0.000000 -0.143890 -0.185769 -0.884121
    10 10.314563 -0.000001 0.000001 -3.924564 -0.039717 -0.357772
    11 1.646836 0.445664 -1.699647 0.325979 0.616202 0.091573
    12 0.928312 0.000000 0.000000 0.000000 0.000000 0.000000
    13 0.928313 0.000000 -0.000001 0.000000 0.000000 0.000000
    14 2.979373 -0.388274 -0.044205 -0.000805 -0.043611 0.000046
    15 1.435262 -0.000001 -0.000001 0.272733 -0.008065 0.399315
    16 1.482593 -0.000001 0.000001 0.096344 -0.092317 0.394807
    17 -2.455824 1.907495 -4.202898 0.919329 1.372820 -2.916273
    18 4.972047 0.000000 0.000000 -0.200026 -1.113775 -0.492427
    19 11.585358 0.000000 0.000001 0.000000 0.000000 -1.868898
    20 10.127058 0.000000 0.000001 1.710982 0.388186 -0.033813
    21 1.537458 0.109715 1.664489 -0.264662 -0.055995 0.783079
    22 0.928313 0.000000 0.000002 0.000000 0.000000 -0.453501
    23 0.928311 0.000000 0.000001 0.000000 0.000000 0.000000
    24 2.686395 -0.427337 0.044204 -0.005762 0.043239 -0.157074
    25 1.435260 0.000000 0.000001 0.012033 -0.011913 0.044202
    26 1.482593 0.000000 -0.000001 0.000000 0.000000 1.168644
    27 2.046984 0.000001 0.000000 0.285209 -0.065734 -0.713407
    28 -0.000005 0.000007 3.713254 -3.204068 -0.120606 1.238399
    29 18.045723 0.000000 0.000000 0.000000 0.000000 -1.756393
    30 17.597597 0.000000 0.000000 -0.210887 0.105637 -0.141218
    31 0.000005 -0.000003 -3.713254 0.848441 2.461380 5.479079
    32 18.045721 0.000000 0.000000 0.000000 0.000000 -2.603394
    33 17.597597 0.000000 0.000000 0.362388 -0.168095 0.787471
  time 11
    0 -1.542051 -0.800655 -20.585090 0.000000 0.000000 -1.571017
    1 -3.914186 0.093753 0.000000 -1.570795 -1.570787 0.000000
    2 1.293670 0.684478 -0.000001 -0.000004 -0.000001 0.034347
    3 5.309685 -0.003834 0.000000 -0.000681 0.009564 -0.102615
    4 4.826790 -0.004591 0.000000 -0.162056 0.043228 -0.150491
    5 5.792767 -0.005304 0.000000 -0.122766 0.056352 -0.249358
    6 6.662322 -0.001452 0.000000 0.012907 0.015846 0.680680
    7 -2.803491 2.184812 4.269311 1.176113 -1.037542 -4.954024
    8 4.827512 0.000000 -0.000002 0.097251 0.151013 -1.024582
    9 11.140032 0.000000 0.000000 -0.143890 -0.188715 -0.903104
    10 10.314563 -0.000001 0.000001 -3.922858 -0.025385 -0.354869
    11 1.646836 0.445664 -1.699647 0.325979 0.616202 0.091573
    12 0.928312 0.000000 0.000000 0.000000 0.000000 0.000000
    13 0.928313 0.000000 -0.000001 0.000000 0.000000 0.000000
    14 2.979373 -0.388274 -0.044205 -0.000805 -0.043611 0.000046
    15 1.435262 -0.000001 -0.000001 0.272733 -0.008065 0.399315
    16 1.482593 -0.000001 0.000001 0.096344 -0.092317 0.394807
    17 -2.459730 1.907495 -4.202898 0.923246 1.373451 -2.912250
    18 4.972047 0.000000 0.000000 -0.148249 -1.107106 -0.546870
    19 11.585358 0.000000 0.000001 0.000000 0.000000 -1.868980
    20 10.127058 0.000000 0.000001 1.710771 0.388280 -0.034113
    21 1.537458 0.109715 1.664489 -0.264662 -0.055995 0.783079
    22 0.928313 0.000000 0.000002 0.000000 0.000000 -0.453501
    23 0.928311 0.000000 0.000001 0.000000 0.000000 0.000000
    24 2.686395 -0.427337 0.044204 -0.005762 0.043239 -0.157074
    25 1.435260 0.000000 0.000001 0.012033 -0.011913 0.044202
    26 1.482593 0.000000 -0.000001 0.000000 0.000000 1.168644
    27 2.046984 0.000001 0.000000 0.288052 -0.068330 -0.731230
    28 -0.000005 0.000007 3.713254 -3.204068 -0.120606 1.238399
    29 18.045723 0.000000 0.000000 0.000000 0.000000 -1.756393
    30 17.597597 0.000000 0.000000 -0.210887 0.105637 -0.141218
    31 0.000005 -0.000003 -3.713254 0.848441 2.461380 5.479079
    32 18.045721 0.000000 0.000000 0.000000 0.000000 -2.603394
    33 17.597597 0.000000 0.000000 0.362388 -0.168095 0.787471
  time 12
    0 -1.542051 -0.800655 -20.585090 0.000000 0.000000 -1.571017
    1 -3.914186 0.093753 0.000000 -1.570795 -1.570787 0.000000
    2 1.293670 0.684478 -0.000001 -0.000004 -0.000001 0.034347
    3 5.309685 -0.003834 0.000000 -0.000511 0.006759 -0.111853
    4 4.826790 -0.004591 0.000000 -0.163391 0.045242 -0.135499
    5 5.792767 -0.005304 0.000000 -0.123054 0.059899 -0.226290
    6 6.662322 -0.001452 0.000000 0.012907 0.015846 0.680680
    7 -2.799584 2.184812 4.269311 1.176113 -1.037542 -4.954024
    8 4.827512 0.000000 -0.000002 0.085214 0.123640 -1.017823
    9 11.140032 0.000000 0.000000 -0.143890 -0.191436 -0.922231
    10 10.314563 -0.000001 0.000001 -3.921057 -0.009742 -0.351734
    11 1.646836 0.445664 -1.699647 0.325979 0.616202 0.091573
    12 0.928312 0.000000 0.000000 0.000000 0.000000 0.000000
    13 0.928313 0.000000 -0.000001 0.000000 0.000000 0.000000
    14 2.979373 -0.388274 -0.044205 -0.000805 -0.043611 0.000046
    15 1.435262 -0.000001 -0.000001 0.272733 -0.008065 0.399315
    16 1.482593 -0.000001 0.000001 0.096344 -0.092317 0.394807
    17 -2.455824 1.903589 -4.202898 0.920857 1.373030 -2.914741
    18 4.972047 0.000000 0.000000 -0.091876 -1.099312 -0.606237
    19 11.585358 0.000000 0.000001 0.000000 0.000000 -1.868980
    20 10.127058 0.000000 0.000001 1.710912 0.388186 -0.033913
    21 1.537458 0.109715 1.664489 -0.264662 -0.055995 0.783079
    22 0.928313 0.000000 0.000002 0.000000 0.000000 -0.453501
    23 0.928311 0.000000 0.000001 0.000000 0.000000 0.000000
    24 2.686395 -0.427337 0.044204 -0.005762 0.043239 -0.157074
    25 1.435260 0.000000 0.000001 0.012033 -0.011913 0.044202
    26 1.482593 0.000000 -0.000001 0.000000 0.000000 1.168644
    27 2.046984 0.000001 0.000000 0.291887 -0.070484 -0.751182
    28 -0.000005 0.000007 3.713254 -3.204068 -0.120606 1.238399
    29 18.045723 0.000000 0.000000 0.000000 0.000000 -1.756393
    30 17.597597 0.000000 0.000000 -0.210887 0.105637 -0.141218
    31 0.000005 -0.000003 -3.713254 0.848441 2.461380 5.479079
    32 18.045721 0.000000 0.000000 0.000000 0.000000 -2.603394
    33 17.597597 0.000000 0.000000 0.362388 -0.168095 0.787471
  time 13
    0 -1.542051 -0.800655 -20.585090 0.000000 0.000000 -1.571017
    1 -3.914186 0.093753 0.000000 -1.570795 -1.570787 0.000000
    2 1.293670 0.684478 -0.000001 -0.000004 -0.000001 0.034347
    3 5.309685 -0.003834 0.000000 -0.000221 0.002685 -0.125560
    4 4.826790 -0.004591 0.000000 -0.164783 0.047459 -0.118896
    5 5.792767 -0.005304 0.000000 -0.123288 0.063446 -0.202891
    6 6.662322 -0.001452 0.000000 0.010055 0.012905 0.638670
    7 -2.869899 2.055902 4.288843 1.183686 -1.038991 -4.918763
    8 4.827512 0.000000 -0.000002 0.073017 0.097717 -1.012104
    9 11.140032 0.000000 0.000000 -0.143890 -0.193833 -0.938896
    10 10.314563 -0.000001 0.000001 -3.919067 0.006463 -0.348424
    11 1.646836 0.445664 -1.699647 0.325979 0.616202 0.091573
    12 0.928312 0.000000 0.000000 0.000000 0.000000 0.000000
    13 0.928313 0.000000 -0.000001 0.000000 0.000000 0.000000
    14 2.979373 -0.388274 -0.044205 -0.000805 -0.043611 0.000046
    15 1.435262 -0.000001 -0.000001 0.272733 -0.008065 0.399315
    16 1.482593 -0.000001 0.000001 0.096344 -0.092317 0.394807
    17 -2.549577 1.809836 -4.187273 0.896783 1.368850 -2.896926
    18 4.972047 0.000000 0.000000 -0.040193 -1.091438 -0.660679
    19 11.585358 0.000000 0.000001 0.000000 0.000000 -1.868898
    20 10.127058 0.000000 0.000001 1.711122 0.387902 -0.033212
    21 1.537458 0.109715 1.664489 -0.264662 -0.055995 0.783079
    22 0.928313 0.000000 0.000002 0.000000 0.000000 -0.453501
    23 0.928311 0.000000 0.000001 0.000000 0.000000 0.000000
    24 2.686395 -0.427337 0.044204 -0.005762 0.043239 -0.157074
    25 1.435260 0.000000 0.000001 0.012033 -0.011913 0.044202
    26 1.482593 0.000000 -0.000001 0.000000 0.000000 1.168644
    27 2.046984 0.000001 0.000000 0.296324 -0.065262 -0.735914
    28 -0.000005 0.000007 3.713254 -3.204068 -0.120606 1.238399
    29 18.045723 0.000000 0.000000 0.000000 0.000000 -1.756393
    30 17.597597 0.000000 0.000000 -0.210887 0.105637 -0.141218
    31 0.000005 -0.000003 -3.713254 0.848441 2.461380 5.479079
    32 18.045721 0.000000 0.000000 0.000000 0.000000 -2.603394
    33 17.597597 0.000000 0.000000 0.362388 -0.168095 0.787471
  time 14
    0 -1.542051 -0.800655 -20.585090 0.000000 0.000000 -1.571017
    1 -3.914186 0.093753 0.000000 -1.570795 -1.570787 0.000000
    2 1.293670 0.684478 -0.000001 -0.000004 -0.000001 0.034347
    3 5.309685 -0.003834 0.000000 0.000000 0.000000 -0.134498
    4 4.826790 -0.004591 0.000000 -0.166042 0.049460 -0.103881
    5 5.792767 -0.005304 0.000000 -0.123414 0.066574 -0.182398
    6 6.662322 -0.001452 0.000000 0.007359 0.009840 0.596774
    7 -2.940214 1.919179 4.300562 1.191162 -1.040559 -4.883310
    8 4.827512 0.000000 -0.000002 0.063212 0.077337 -1.008118
    9 11.140032 0.000000 0.000000 -0.143890 -0.195331 -0.949401
    10 10.314563 -0.000001 0.000001 -3.917077 0.022762 -0.345114
    11 1.646836 0.445664 -1.699647 0.325979 0.616202 0.091573
    12 0.928312 0.000000 0.000000 0.000000 0.000000 0.000000
    13 0.928313 0.000000 -0.000001 0.000000 0.000000 0.000000
    14 2.979373 -0.388274 -0.044205 -0.000805 -0.043611 0.000046
    15 1.435262 -0.000001 -0.000001 0.272733 -0.008065 0.399315
    16 1.482593 -0.000001 0.000001 0.096344 -0.092317 0.394807
    17 -2.639423 1.712177 -4.171647 0.866022 1.363408 -2.885719
    18 4.972047 0.000000 0.000000 -0.002299 -1.084447 -0.700546
    19 11.585358 0.000000 0.000001 0.000000 0.000000 -1.868735
    20 10.127058 0.000000 0.000001 1.711473 0.387429 -0.031912
    21 1.537458 0.109715 1.664489 -0.264662 -0.055995 0.783079
    22 0.928313 0.000000 0.000002 0.000000 0.000000 -0.453501
    23 0.928311 0.000000 0.000001 0.000000 0.000000 0.000000
    24 2.686395 -0.427337 0.044204 -0.005762 0.043239 -0.157074
    25 1.435260 0.000000 0.000001 0.012033 -0.011913 0.044202
    26 1.482593 0.000000 -0.000001 0.000000 0.000000 1.168644
    27 2.046984 0.000001 0.000000 0.300633 -0.060217 -0.721011
    28 -0.000005 0.000007 3.713254 -3.204068 -0.120606 1.238399
    29 18.045723 0.000000 0.000000 0.000000 0.000000 -1.756393
    30 17.597597 0.000000 0.000000 -0.210887 0.105637 -0.141218
    31 0.000005 -0.000003 -3.713254 0.848441 2.461380 5.479079
    32 18.045721 0.000000 0.000000 0.000000 0.000000 -2.603394
    33 17.597597 0.000000 0.000000 0.362388 -0.168095 0.787471
  time 15
    0 -1.542051 -0.800655 -20.585090 0.000000 0.000000 -1.571017
    1 -3.914186 0.093753 0.000000 -1.570795 -1.570787 0.000000
    2 1.293670 0.684478 -0.000001 -0.000004 -0.000001 0.034347
    3 5.309685 -0.003834 0.000000 0.000051 -0.000707 -0.136953
    4 4.826790 -0.004591 0.000000 -0.166920 0.050875 -0.093739
    5 5.792767 -0.005304 0.000000 -0.123468 0.068792 -0.167947
    6 6.662322 -0.001452 0.000000 0.004770 0.006624 0.554821
    7 -3.006622 1.790269 4.316188 1.198543 -1.042244 -4.847665
    8 4.827512 0.000000 -0.000002 0.058110 0.066933 -1.007945
    9 11.140032 0.000000 0.000000 -0.143890 -0.195555 -0.950850
    10 10.314563 -0.000001 0.000001 -3.915181 0.038406 -0.341921
    11 1.646836 0.445664 -1.699647 0.325979 0.616202 0.091573
    12 0.928312 0.000000 0.000000 0.000000 0.000000 0.000000
    13 0.928313 0.000000 -0.000001 0.000000 0.000000 0.000000
    14 2.979373 -0.388274 -0.044205 -0.000805 -0.043611 0.000046
    15 1.435262 -0.000001 -0.000001 0.272733 -0.008065 0.399315
    16 1.482593 -0.000001 0.000001 0.096344 -0.092317 0.394807
    17 -2.725363 1.610611 -4.163834 0.819021 1.354390 -2.891370
    18 4.972047 0.000000 0.000000 0.012334 -1.079144 -0.715987
    19 11.585358 0.000000 0.000001 0.000000 0.000000 -1.868408
    20 10.127058 0.000000 0.000001 1.712384 0.386200 -0.029060
    21 1.537458 0.109715 1.664489 -0.264662 -0.055995 0.783079
    22 0.928313 0.000000 0.000002 0.000000 0.000000 -0.453501
    23 0.928311 0.000000 0.000001 0.000000 0.000000 0.000000
    24 2.686395 -0.427337 0.044204 -0.005762 0.043239 -0.157074
    25 1.435260 0.000000 0.000001 0.012033 -0.011913 0.044202
    26 1.482593 0.000000 -0.000001 0.000000 0.000000 1.168644
    27 2.046984 0.000001 0.000000 0.303950 -0.055437 -0.701728
    28 -0.000005 0.000007 3.713254 -3.204068 -0.120606 1.238399
    29 18.045723 0.000000 0.000000 0.000000 0.000000 -1.756393
    30 17.597597 0.000000 0.000000 -0.210887 0.105637 -0.141218
    31 0.000005 -0.000003 -3.713254 0.848441 2.461380 5.479079
    32 18.045721 0.000000 0.000000 0.000000 0.000000 -2.603394
    33 17.597597 0.000000 0.000000 0.362388 -0.168095 0.787471
  time 16
    0 -1.542051 -0.800655 -20.585090 0.000000 0.000000 -1.571017
    1 -3.914186 0.093753 0.000000 -1.570795 -1.570787 0.000000
    2 1.293670 0.684478 -0.000001 -0.000004 -0.000001 0.034347
    3 5.309685 -0.003834 0.000000 0.000068 -0.000935 -0.137642
    4 4.826790 -0.004591 0.000000 -0.167263 0.051462 -0.089462
    5 5.792767 -0.005304 0.000000 -0.123486 0.069810 -0.161324
    6 6.662322 -0.001452 0.000000 0.002289 0.003353 0.512868
    7 -3.057405 1.649640 4.327907 1.205732 -1.044077 -4.812117
    8 4.827512 0.000000 -0.000002 0.056914 0.064375 -1.006385
    9 11.140032 0.000000 0.000000 -0.143890 -0.195306 -0.949111
    10 10.314563 -0.000001 0.000001 -3.913475 0.052737 -0.339076
    11 1.646836 0.445664 -1.699647 0.325979 0.616202 0.091573
    12 0.928312 0.000000 0.000000 0.000000 0.000000 0.000000
    13 0.928313 0.000000 -0.000001 0.000000 0.000000 0.000000
    14 2.979373 -0.388274 -0.044205 -0.000805 -0.043611 0.000046
    15 1.435262 -0.000001 -0.000001 0.272721 -0.008065 0.399315
    16 1.482593 -0.000001 0.000001 0.096344 -0.092317 0.394807
    17 -2.799584 1.505139 -4.148209 0.758740 1.341087 -2.910335
    18 4.972047 0.000000 0.000000 0.009895 -1.075689 -0.714523
    19 11.585358 0.000000 0.000001 0.000000 0.000000 -1.868000
    20 10.127058 0.000000 0.000001 1.713787 0.384309 -0.024559
    21 1.537458 0.109715 1.664489 -0.264662 -0.055995 0.783079
    22 0.928313 0.000000 0.000002 0.000000 0.000000 -0.453501
    23 0.928311 0.000000 0.000001 0.000000 0.000000 0.000000
    24 2.686395 -0.427337 0.044204 -0.005762 0.043239 -0.157074
    25 1.435260 0.000000 0.000001 0.012033 -0.011913 0.044202
    26 1.482593 0.000000 -0.000001 0.000000 0.000000 1.168644
    27 2.046984 0.000001 0.000000 0.306018 -0.051218 -0.670401
    28 -0.000005 0.000007 3.713254 -3.204068 -0.120606 1.238399
    29 18.045723 0.000000 0.000000 0.000000 0.000000 -1.756393
    30 17.597597 0.000000 0.000000 -0.210887 0.105637 -0.141218
    31 0.000005 -0.000003 -3.713254 0.848441 2.461380 5.479079
    32 18.045721 0.000000 0.000000 0.000000 0.000000 -2.603394
    33 17.597597 0.000000 0.000000 0.362388 -0.168095 0.787471
  time 17
    0 -1.542051 -0.800655 -20.585090 0.000000 0.000000 -1.571017
    1 -3.914186 0.093753 0.000000 -1.570795 -1.570787 0.000000
    2 1.293670 0.684478 -0.000001 -0.000004 -0.000001 0.034347
    3 5.309685 -0.003834 0.000000 0.000051 -0.000791 -0.137165
    4 4.826790 -0.004591 0.000000 -0.167282 0.051534 -0.088911
    5 5.792767 -0.005304 0.000000 -0.123486 0.069942 -0.160514
    6 6.662322 -0.001452 0.000000 0.000000 -0.000001 0.471000
    7 -3.108188 1.516823 4.339626 1.213017 -1.046029 -4.776281
    8 4.827512 0.000000 -0.000002 0.056117 0.063011 -1.001706
    9 11.140032 0.000000 0.000000 -0.143890 -0.195730 -0.952154
    10 10.314563 -0.000001 0.000001 -3.912054 0.065009 -0.336579
    11 1.646836 0.445664 -1.699647 0.325979 0.616202 0.091573
    12 0.928312 0.000000 0.000000 0.000000 0.000000 0.000000
    13 0.928313 0.000000 -0.000001 0.000000 0.000000 0.000000
    14 2.979373 -0.388274 -0.044205 -0.000805 -0.043611 0.000046
    15 1.435262 -0.000001 -0.000001 0.272733 -0.008065 0.399315
    16 1.482593 -0.000001 0.000001 0.096344 -0.092317 0.394807
    17 -2.869899 1.399667 -4.140396 0.702854 1.326496 -2.925372
    18 4.972047 0.000000 0.000000 0.004080 -1.073439 -0.710929
    19 11.585358 0.000000 0.000001 0.000000 0.000000 -1.867428
    20 10.127058 0.000000 0.000001 1.715329 0.382323 -0.019806
    21 1.537458 0.109715 1.664489 -0.264662 -0.055995 0.783079
    22 0.928313 0.000000 0.000002 0.000000 0.000000 -0.453501
    23 0.928311 0.000000 0.000001 0.000000 0.000000 0.000000
    24 2.686395 -0.427337 0.044204 -0.005762 0.043239 -0.157074
    25 1.435260 0.000000 0.000001 0.012033 -0.011913 0.044202
    26 1.482593 0.000000 -0.000001 0.000000 0.000000 1.168644
    27 2.046984 0.000001 0.000000 0.307483 -0.047265 -0.630619
    28 -0.000005 0.000007 3.713254 -3.204068 -0.120606 1.238399
    29 18.045723 0.000000 0.000000 0.000000 0.000000 -1.756393
    30 17.597597 0.000000 0.000000 -0.210887 0.105637 -0.141218
    31 0.000005 -0.000003 -3.713254 0.848441 2.461380 5.479079
    32 18.045721 0.000000 0.000000 0.000000 0.000000 -2.603394
    33 17.597597 0.000000 0.000000 0.362388 -0.168095 0.787471
  time 18
    0 -1.542051 -0.800655 -20.585090 0.000000 0.000000 -1.571017
    1 -3.914186 0.093753 0.000000 -1.570795 -1.570787 0.000000
    2 1.293670 0.684478 -0.000001 -0.000004 -0.000001 0.034347
    3 5.309685 -0.003834 0.000000 0.000017 -0.000443 -0.136070
    4 4.826790 -0.004591 0.000000 -0.167187 0.051294 -0.090520
    5 5.792767 -0.005304 0.000000 -0.123486 0.069571 -0.162985
    6 6.662322 -0.001452 0.000000 0.000000 -0.000001 0.471000
    7 -3.108188 1.516823 4.339626 1.213017 -1.046029 -4.776281
    8 4.827512 0.000000 -0.000002 0.056356 0.063437 -0.995381
    9 11.140032 0.000000 0.000000 -0.143890 -0.196529 -0.957733
    10 10.314563 -0.000001 0.000001 -3.910916 0.074657 -0.334605
    11 1.646836 0.445664 -1.699647 0.325979 0.616202 0.091573
    12 0.928312 0.000000 0.000000 0.000000 0.000000 0.000000
    13 0.928313 0.000000 -0.000001 0.000000 0.000000 0.000000
    14 2.979373 -0.388274 -0.044205 -0.000805 -0.043611 0.000046
    15 1.435262 -0.000001 -0.000001 0.272733 -0.008065 0.399315
    16 1.482593 -0.000001 0.000001 0.096344 -0.092317 0.394807
    17 -2.869899 1.399667 -4.140396 0.672666 1.317189 -2.956405
    18 4.972047 0.000000 0.000000 -0.002861 -1.071993 -0.706736
    19 11.585358 0.000000 0.000001 0.000000 0.000000 -1.867102
    20 10.127058 0.000000 0.000001 1.716451 0.380621 -0.016205
    21 1.537458 0.109715 1.664489 -0.264662 -0.055995 0.783079
    22 0.928313 0.000000 0.000002 0.000000 0.000000 -0.453501
    23 0.928311 0.000000 0.000001 0.000000 0.000000 0.000000
    24 2.686395 -0.427337 0.044204 -0.005762 0.043239 -0.157074
    25 1.435260 0.000000 0.000001 0.012033 -0.011913 0.044202
    26 1.482593 0.000000 -0.000001 0.000000 0.000000 1.168644
    27 2.046984 0.000001 0.000000 0.307138 -0.047383 -0.627639
    28 -0.000005 0.000007 3.713254 -3.204068 -0.120606 1.238399
    29 18.045723 0.000000 0.000000 0.000000 0.000000 -1.756393
    30 17.597597 0.000000 0.000000 -0.210887 0.105637 -0.141218
    31 0.000005 -0.000003 -3.713254 0.848441 2.461380 5.479079
    32 18.045721 0.000000 0.000000 0.000000 0.000000 -2.603394
    33 17.597597 0.000000 0.000000 0.362388 -0.168095 0.787471
  time 19
    0 -1.542051 -0.800655 -20.585090 0.000000 0.000000 -1.571017
    1 -3.914186 0.093753 0.000000 -1.570795 -1.570787 0.000000
    2 1.293670 0.684478 -0.000001 -0.000004 -0.000001 0.034347
    3 5.309685 -0.003834 0.000000 0.000000 -0.000144 -0.134974
    4 4.826790 -0.004591 0.000000 -0.167015 0.050994 -0.092681
    5 5.792767 -0.005304 0.000000 -0.123468 0.069043 -0.166307
    6 6.662322 -0.001452 0.000000 0.000000 -0.000001 0.471000
    7 -3.108188 1.516823 4.339626 1.213017 -1.046029 -4.776281
    8 4.827512 0.000000 -0.000002 0.057552 0.065995 -0.990182
    9 11.140032 0.000000 0.000000 -0.143890 -0.197403 -0.963819
    10 10.314563 -0.000001 0.000001 -3.910158 0.080933 -0.333385
    11 1.646836 0.445664 -1.699647 0.325979 0.616202 0.091573
    12 0.928312 0.000000 0.000000 0.000000 0.000000 0.000000
    13 0.928313 0.000000 -0.000001 0.000000 0.000000 0.000000
    14 2.979373 -0.388274 -0.044205 -0.000805 -0.043611 0.000046
    15 1.435262 -0.000001 -0.000001 0.272733 -0.008065 0.399315
    16 1.482593 -0.000001 0.000001 0.096344 -0.092317 0.394807
    17 -2.869899 1.399667 -4.140396 0.667507 1.315507 -2.961673
    18 4.972047 0.000000 0.000000 -0.008677 -1.071350 -0.703208
    19 11.585358 0.000000 0.000001 0.000000 0.000000 -1.867020
    20 10.127058 0.000000 0.000001 1.716592 0.380337 -0.015555
    21 1.537458 0.109715 1.664489 -0.264662 -0.055995 0.783079
    22 0.928313 0.000000 0.000002 0.000000 0.000000 -0.453501
    23 0.928311 0.000000 0.000001 0.000000 0.000000 0.000000
    24 2.686395 -0.427337 0.044204 -0.005762 0.043239 -0.157074
    25 1.435260 0.000000 0.000001 0.012033 -0.011913 0.044202
    26 1.482593 0.000000 -0.000001 0.000000 0.000000 1.168644
    27 2.046984 0.000001 0.000000 0.306707 -0.047560 -0.623138
    28 -0.000005 0.000007 3.713254 -3.204068 -0.120606 1.238399
    29 18.045723 0.000000 0.000000 0.000000 0.000000 -1.756393
    30 17.597597 0.000000 0.000000 -0.210887 0.105637 -0.141218
    31 0.000005 -0.000003 -3.713254 0.848441 2.461380 5.479079
    32 18.045721 0.000000 0.000000 0.000000 0.000000 -2.603394
    33 17.597597 0.000000 0.000000 0.362388 -0.168095 0.787471
  time 20
    0 -1.542051 -0.800655 -20.585090 0.000000 0.000000 -1.571017
    1 -3.914186 0.093753 0.000000 -1.570795 -1.570787 0.000000
    2 1.293670 0.684478 -0.000001 -0.000004 -0.000001 0.034347
    3 5.309685 -0.003834 0.000000 0.000000 0.000000 -0.134498
    4 4.826790 -0.004591 0.000000 -0.166920 0.050875 -0.093739
    5 5.792767 -0.005304 0.000000 -0.123468 0.068792 -0.167947
    6 6.662322 -0.001452 0.000000 0.000000 -0.000001 0.471000
    7 -3.108188 1.516823 4.339626 1.213017 -1.046029 -4.776281
    8 4.827512 0.000000 -0.000002 0.058349 0.067701 -0.988015
    9 11.140032 0.000000 0.000000 -0.143890 -0.197852 -0.967007
    10 10.314563 -0.000001 0.000001 -3.909874 0.083181 -0.332921
    11 1.646836 0.445664 -1.699647 0.325979 0.616202 0.091573
    12 0.928312 0.000000 0.000000 0.000000 0.000000 0.000000
    13 0.928313 0.000000 -0.000001 0.000000 0.000000 0.000000
    14 2.979373 -0.388274 -0.044205 -0.000805 -0.043611 0.000046
    15 1.435262 -0.000001 -0.000001 0.272733 -0.008065 0.399315
    16 1.482593 -0.000001 0.000001 0.096344 -0.092317 0.394807
    17 -2.869899 1.399667 -4.140396 0.672666 1.317189 -2.956405
    18 4.972047 0.000000 0.000000 -0.011116 -1.071190 -0.701677
    19 11.585358 0.000000 0.000001 0.000000 0.000000 -1.867102
    20 10.127058 0.000000 0.000001 1.716451 0.380621 -0.016205
    21 1.537458 0.109715 1.664489 -0.264662 -0.055995 0.783079
    22 0.928313 0.000000 0.000002 0.000000 0.000000 -0.453501
    23 0.928311 0.000000 0.000001 0.000000 0.000000 0.000000
    24 2.686395 -0.427337 0.044204 -0.005762 0.043239 -0.157074
    25 1.435260 0.000000 0.000001 0.012033 -0.011913 0.044202
    26 1.482593 0.000000 -0.000001 0.000000 0.000000 1.168644
    27 2.046984 0.000001 0.000000 0.306535 -0.047619 -0.620948
    28 -0.000005 0.000007 3.713254 -3.204068 -0.120606 1.238399
    29 18.045723 0.000000 0.000000 0.000000 0.000000 -1.756393
    30 17.597597 0.000000 0.000000 -0.210887 0.105637 -0.141218
    31 0.000005 -0.000003 -3.713254 0.848441 2.461380 5.479079
    32 18.045721 0.000000 0.000000 0.000000 0.000000 -2.603394
    33 17.597597 0.000000 0.000000 0.362388 -0.168095 0.787471
end
