version 1
nodes
  0 "Bip01" -1
  1 "Bip01 Pelvis" 0
  2 "Bip01 Spine" 1
  3 "Bip01 Spine1" 2
  4 "Bip01 Spine2" 3
  5 "Bip01 Spine3" 4
  6 "Bip01 Neck" 5
  7 "Bip01 L Arm" 6
  8 "Bip01 L Arm1" 7
  9 "Bip01 L Arm2" 8
  10 "Bip01 L Hand" 9
  11 "Bip01 L Finger0" 10
  12 "Bip01 L Finger01" 11
  13 "Bip01 L Finger02" 12
  14 "Bip01 L Finger1" 10
  15 "Bip01 L Finger11" 14
  16 "Bip01 L Finger12" 15
  17 "Bip01 R Arm" 6
  18 "Bip01 R Arm1" 17
  19 "Bip01 R Arm2" 18
  20 "Bip01 R Hand" 19
  21 "Bip01 R Finger0" 20
  22 "Bip01 R Finger01" 21
  23 "Bip01 R Finger02" 22
  24 "Bip01 R Finger1" 20
  25 "Bip01 R Finger11" 24
  26 "Bip01 R Finger12" 25
  27 "Bip01 Head" 6
  28 "Bip01 L Leg" 1
  29 "Bip01 L Leg1" 28
  30 "Bip01 L Foot" 29
  31 "Bip01 R Leg" 1
  32 "Bip01 R Leg1" 31
  33 "Bip01 R Foot" 32
end
skeleton
  time 0
    0 -0.690462 2.168186 -20.600716 0.000000 0.000000 -1.585458
    1 -0.460956 0.019532 0.000000 -1.570795 -1.570787 0.000000
    2 1.293670 0.684478 -0.000001 -0.062363 0.005584 -0.077014
    3 5.309685 -0.003834 0.000000 0.005411 0.003500 0.054274
    4 4.826790 -0.004591 0.000000 0.008450 -0.022291 0.090651
    5 5.792767 -0.005304 0.000000 -0.034267 -0.011421 0.102198
    6 6.662322 -0.001452 0.000000 -0.091910 0.032655 0.231870
    7 -3.518356 0.356631 4.277124 -1.341851 -1.131602 -2.052838
    8 4.827512 0.000000 -0.000002 2.119510 0.703501 0.674719
    9 11.140032 0.000000 0.000000 0.000000 0.000000 -1.741969
    10 10.314563 -0.000001 0.000001 -1.016637 -0.373471 0.774695
    11 1.646836 0.445664 -1.699647 -0.392035 3.352851 -0.875707
    12 0.928312 0.000000 0.000000 0.000000 0.000000 0.593404
    13 0.928313 0.000000 -0.000001 0.000000 0.000000 1.204231
    14 2.979373 -0.388274 -0.044205 -0.030851 -0.030823 0.768363
    15 1.435262 -0.000001 -0.000001 0.000000 0.000000 1.204014
    16 1.482593 -0.000001 0.000001 0.000000 0.000000 1.153221
    17 -2.975371 1.071532 -4.156022 0.466413 1.347660 -2.920871
    18 4.972047 0.000000 0.000000 -1.992422 -0.878672 0.548232
    19 11.585358 0.000000 0.000001 0.000000 0.000000 -1.579834
    20 10.127058 0.000000 0.000001 1.124044 0.670554 1.078517
    21 1.537458 0.109715 1.664489 -3.079588 0.031470 0.928526
    22 0.928313 0.000000 0.000002 0.000000 0.000000 0.061034
    23 0.928311 0.000000 0.000001 0.000000 0.000000 0.671897
    24 2.686395 -0.427337 0.044204 -0.001208 0.043611 -0.052337
    25 1.435260 0.000000 0.000001 0.000000 0.000000 1.186618
    26 1.482593 0.000000 -0.000001 0.000000 0.000000 1.684243
    27 2.046984 0.000001 0.000000 0.154409 0.006786 -0.059620
    28 -0.000005 0.000007 3.713254 -3.289109 -0.165283 1.249519
    29 18.045723 0.000000 0.000000 0.000000 0.000000 -1.732931
    30 17.597597 0.000000 0.000000 -0.251607 0.197234 -0.164508
    31 0.000005 -0.000003 -3.713254 0.821892 2.312307 5.493555
    32 18.045721 0.000000 0.000000 0.000000 0.000000 -2.673768
    33 17.597597 0.000000 0.000000 0.379969 0.033854 0.755924
  time 1
    0 -0.752964 2.566636 -20.600716 0.000000 0.000000 -1.585458
    1 -0.460956 0.019532 0.000000 -1.570795 -1.570787 0.000000
    2 1.293670 0.684478 -0.000001 -0.061403 0.043395 0.106283
    3 5.309685 -0.003834 0.000000 0.003778 -0.033832 -0.006277
    4 4.826790 -0.004591 0.000000 0.011616 -0.047363 -0.090895
    5 5.792767 -0.005304 0.000000 -0.035832 -0.053595 -0.019078
    6 6.662322 -0.001452 0.000000 -0.091910 0.032655 0.231870
    7 -3.518356 0.356631 4.277124 1.492237 -1.968645 -4.857535
    8 4.827512 0.000000 -0.000002 2.309715 0.623259 0.444662
    9 11.140032 0.000000 0.000000 0.000000 0.000000 -1.964256
    10 10.314563 -0.000001 0.000001 -1.023177 -0.372909 0.753386
    11 1.646836 0.445664 -1.699647 -0.410237 3.351791 -0.808777
    12 0.928312 0.000000 0.000000 0.000000 0.000000 0.617012
    13 0.928313 0.000000 -0.000001 0.000000 0.000000 1.227913
    14 2.979373 -0.388274 -0.044205 -0.031965 -0.029697 0.804842
    15 1.435262 -0.000001 -0.000001 0.000000 0.000000 1.204808
    16 1.482593 -0.000001 0.000001 0.000000 0.000000 1.129661
    17 -2.975371 1.071532 -4.156022 -1.430850 1.618819 -4.807358
    18 4.972047 0.000000 0.000000 -2.373901 -0.530438 0.621110
    19 11.585358 0.000000 0.000001 0.000000 0.000000 -2.093191
    20 10.127058 0.000000 0.000001 1.156021 0.673580 1.054106
    21 1.537458 0.109715 1.664489 -3.079588 0.031470 0.928526
    22 0.928313 0.000000 0.000002 0.000000 0.000000 0.061034
    23 0.928311 0.000000 0.000001 0.000000 0.000000 0.671897
    24 2.686395 -0.427337 0.044204 -0.001208 0.043611 -0.052337
    25 1.435260 0.000000 0.000001 0.000000 0.000000 1.186618
    26 1.482593 0.000000 -0.000001 0.000000 0.000000 1.684243
    27 2.046984 0.000001 0.000000 0.179570 0.046645 0.182539
    28 -0.000005 0.000007 3.713254 -3.289013 -0.165187 1.249519
    29 18.045723 0.000000 0.000000 0.000000 0.000000 -1.732931
    30 17.597597 0.000000 0.000000 -0.251658 0.197161 -0.164508
    31 0.000005 -0.000003 -3.713254 0.821892 2.312307 5.493651
    32 18.045721 0.000000 0.000000 0.000000 0.000000 -2.673768
    33 17.597597 0.000000 0.000000 0.379935 0.033795 0.755924
  time 2
    0 -0.784215 2.902583 -20.600716 0.000000 0.000000 -1.585458
    1 -0.460956 0.019532 0.000000 -1.570795 -1.570787 0.000000
    2 1.293670 0.684478 -0.000001 -0.055002 0.068251 0.260217
    3 5.309685 -0.003834 0.000000 0.004237 -0.056184 -0.062412
    4 4.826790 -0.004591 0.000000 0.016156 -0.061817 -0.210507
    5 5.792767 -0.005304 0.000000 -0.032072 -0.080345 -0.137779
    6 6.662322 -0.001452 0.000000 -0.091910 0.032655 0.231870
    7 -3.518356 0.356631 4.277124 -1.990297 -1.167913 -1.349916
    8 4.827512 0.000000 -0.000002 2.515624 0.690881 0.194936
    9 11.140032 0.000000 0.000000 0.000000 0.000000 -2.186325
    10 10.314563 -0.000001 0.000001 -1.029432 -0.372722 0.731844
    11 1.646836 0.445664 -1.699647 -0.428438 3.349582 -0.741951
    12 0.928312 0.000000 0.000000 0.000000 0.000000 0.640709
    13 0.928313 0.000000 -0.000001 0.000000 0.000000 1.251595
    14 2.979373 -0.388274 -0.044205 -0.033032 -0.028486 0.841278
    15 1.435262 -0.000001 -0.000001 0.000000 0.000000 1.205560
    16 1.482593 -0.000001 0.000001 0.000000 0.000000 1.106047
    17 -2.975371 1.071532 -4.156022 3.295206 1.411519 -0.082711
    18 4.972047 0.000000 0.000000 -2.434682 -0.419555 0.471028
    19 11.585358 0.000000 0.000001 0.000000 0.000000 -2.458627
    20 10.127058 0.000000 0.000001 1.268219 0.541853 1.074515
    21 1.537458 0.109715 1.664489 -3.079588 0.031470 0.928526
    22 0.928313 0.000000 0.000002 0.000000 0.000000 0.061034
    23 0.928311 0.000000 0.000001 0.000000 0.000000 0.671897
    24 2.686395 -0.427337 0.044204 -0.001208 0.043611 -0.052337
    25 1.435260 0.000000 0.000001 0.000000 0.000000 1.186618
    26 1.482593 0.000000 -0.000001 0.000000 0.000000 1.684243
    27 2.046984 0.000001 0.000000 0.192925 0.062459 0.383395
    28 -0.000005 0.000007 3.713254 -3.289013 -0.165187 1.249519
    29 18.045723 0.000000 0.000000 0.000000 0.000000 -1.732931
    30 17.597597 0.000000 0.000000 -0.251658 0.197161 -0.164554
    31 0.000005 -0.000003 -3.713254 0.822084 2.312307 5.493651
    32 18.045721 0.000000 0.000000 0.000000 0.000000 -2.673768
    33 17.597597 0.000000 0.000000 0.379935 0.033795 0.755924
  time 3
    0 -0.659211 3.168216 -20.600716 0.000000 0.000000 -1.585458
    1 -0.460956 0.019532 0.000000 -1.570795 -1.570787 0.000000
    2 1.293670 0.684478 -0.000001 -0.052307 0.053426 0.344374
    3 5.309685 -0.003834 0.000000 0.005190 -0.028272 -0.120420
    4 4.826790 -0.004591 0.000000 0.013238 -0.043133 -0.137902
    5 5.792767 -0.005304 0.000000 -0.028439 -0.022255 -0.239745
    6 6.662322 -0.001452 0.000000 -0.091910 0.032655 0.231870
    7 -3.518356 0.356631 4.277124 -2.243349 -1.179297 -1.090823
    8 4.827512 0.000000 -0.000002 2.232708 0.926577 -0.159464
    9 11.140032 0.000000 0.000000 0.000000 0.000000 -2.333478
    10 10.314563 -0.000001 0.000001 -1.147997 -0.271930 0.784217
    11 1.646836 0.445664 -1.699647 -0.392035 3.352851 -0.875707
    12 0.928312 0.000000 0.000000 0.000000 0.000000 0.593404
    13 0.928313 0.000000 -0.000001 0.000000 0.000000 1.204231
    14 2.979373 -0.388274 -0.044205 -0.030851 -0.030823 0.768363
    15 1.435262 -0.000001 -0.000001 0.000000 0.000000 1.204014
    16 1.482593 -0.000001 0.000001 0.000000 0.000000 1.153221
    17 -2.975371 1.071532 -4.156022 -2.257200 1.355389 -5.643232
    18 4.972047 0.000000 0.000000 -1.395770 -0.454025 0.120880
    19 11.585358 0.000000 0.000001 0.000000 0.000000 -2.436165
    20 10.127058 0.000000 0.000001 1.587002 -0.134376 1.087020
    21 1.537458 0.109715 1.664489 -3.079588 0.031470 0.928526
    22 0.928313 0.000000 0.000002 0.000000 0.000000 0.061034
    23 0.928311 0.000000 0.000001 0.000000 0.000000 0.671897
    24 2.686395 -0.427337 0.044204 -0.001208 0.043611 -0.052337
    25 1.435260 0.000000 0.000001 0.000000 0.000000 1.186618
    26 1.482593 0.000000 -0.000001 0.000000 0.000000 1.684243
    27 2.046984 0.000001 0.000000 0.142432 -0.016522 0.431875
    28 -0.000005 0.000007 3.713254 -3.289013 -0.165187 1.249519
    29 18.045723 0.000000 0.000000 0.000000 0.000000 -1.732931
    30 17.597597 0.000000 0.000000 -0.251658 0.197161 -0.164508
    31 0.000005 -0.000003 -3.713254 0.821892 2.312307 5.493651
    32 18.045721 0.000000 0.000000 0.000000 0.000000 -2.673768
    33 17.597597 0.000000 0.000000 0.379935 0.033795 0.755924
  time 4
    0 -0.616241 3.285408 -20.600716 0.000000 0.000000 -1.585458
    1 -0.460956 0.019532 0.000000 -1.570795 -1.570787 0.000000
    2 1.293670 0.684478 -0.000001 -0.054126 0.031495 0.360127
    3 5.309685 -0.003834 0.000000 0.004595 0.004482 -0.143418
    4 4.826790 -0.004591 0.000000 0.010758 -0.021297 -0.015335
    5 5.792767 -0.005304 0.000000 -0.028654 -0.021944 -0.227993
    6 6.662322 -0.001452 0.000000 -0.091910 0.032655 0.231870
    7 -3.518356 0.356631 4.277124 -2.421636 -1.342903 -0.940101
    8 4.827512 0.000000 -0.000002 1.077211 0.519395 -0.480937
    9 11.140032 0.000000 0.000000 0.000000 0.000000 -2.346737
    10 10.314563 -0.000001 0.000001 -1.579893 0.227811 0.940001
    11 1.646836 0.445664 -1.699647 2.933650 -0.147575 1.538619
    12 0.928312 0.000000 0.000000 0.000000 0.000000 0.333836
    13 0.928313 0.000000 -0.000001 0.000000 0.000000 0.944760
    14 2.979373 -0.388274 -0.044205 -0.016433 -0.040411 0.368354
    15 1.435262 -0.000001 -0.000001 0.000000 0.000000 1.195488
    16 1.482593 -0.000001 0.000001 0.000000 0.000000 1.412009
    17 -2.975371 1.071532 -4.156022 -1.779636 1.257063 -5.162990
    18 4.972047 0.000000 0.000000 -0.264184 -0.204138 -0.237254
    19 11.585358 0.000000 0.000001 0.000000 0.000000 -2.153226
    20 10.127058 0.000000 0.000001 1.940708 -0.671027 0.855370
    21 1.537458 0.109715 1.664489 -3.079588 0.031470 0.928526
    22 0.928313 0.000000 0.000002 0.000000 0.000000 0.061034
    23 0.928311 0.000000 0.000001 0.000000 0.000000 0.671897
    24 2.686395 -0.427337 0.044204 -0.001208 0.043611 -0.052337
    25 1.435260 0.000000 0.000001 0.000000 0.000000 1.186618
    26 1.482593 0.000000 -0.000001 0.000000 0.000000 1.684243
    27 2.046984 0.000001 0.000000 0.136099 -0.041364 0.359368
    28 -0.000005 0.000007 3.713254 -3.289109 -0.165187 1.249519
    29 18.045723 0.000000 0.000000 0.000000 0.000000 -1.732931
    30 17.597597 0.000000 0.000000 -0.251607 0.197161 -0.164508
    31 0.000005 -0.000003 -3.713254 0.821892 2.312307 5.493555
    32 18.045721 0.000000 0.000000 0.000000 0.000000 -2.673768
    33 17.597597 0.000000 0.000000 0.379935 0.033834 0.755924
  time 5
    0 -0.616241 3.129153 -20.600716 0.000000 0.000000 -1.585458
    1 -0.460956 0.019532 0.000000 -1.570795 -1.570787 0.000000
    2 1.293670 0.684478 -0.000001 -0.056046 0.024759 0.310306
    3 5.309685 -0.003834 0.000000 0.004765 0.009971 -0.106607
    4 4.826790 -0.004591 0.000000 0.009575 -0.017977 0.056167
    5 5.792767 -0.005304 0.000000 -0.031317 -0.017989 -0.096378
    6 6.662322 -0.001452 0.000000 -0.091910 0.032655 0.231870
    7 -3.518356 0.356631 4.277124 -3.644625 -1.518573 -6.015594
    8 4.827512 0.000000 -0.000002 0.088163 0.080065 -0.180694
    9 11.140032 0.000000 0.000000 0.000000 0.000000 -2.163647
    10 10.314563 -0.000001 0.000001 -1.938053 0.685587 0.858596
    11 1.646836 0.445664 -1.699647 3.031037 0.029368 0.802960
    12 0.928312 0.000000 0.000000 0.000000 0.000000 0.061070
    13 0.928313 0.000000 -0.000001 0.000000 0.000000 0.671882
    14 2.979373 -0.388274 -0.044205 0.001460 -0.043599 -0.052327
    15 1.435262 -0.000001 -0.000001 0.000000 0.000000 1.186628
    16 1.482593 -0.000001 0.000001 0.000000 0.000000 1.684153
    17 -2.975371 1.071532 -4.156022 -1.700632 1.211686 -5.081864
    18 4.972047 0.000000 0.000000 0.198055 -0.202692 -0.617751
    19 11.585358 0.000000 0.000001 0.000000 0.000000 -1.550919
    20 10.127058 0.000000 0.000001 1.777459 -0.374379 0.905842
    21 1.537458 0.109715 1.664489 -3.079588 0.031470 0.928526
    22 0.928313 0.000000 0.000002 0.000000 0.000000 0.061034
    23 0.928311 0.000000 0.000001 0.000000 0.000000 0.671897
    24 2.686395 -0.427337 0.044204 -0.001208 0.043611 -0.052337
    25 1.435260 0.000000 0.000001 0.000000 0.000000 1.186618
    26 1.482593 0.000000 -0.000001 0.000000 0.000000 1.684243
    27 2.046984 0.000001 0.000000 0.142734 -0.036968 0.224815
    28 -0.000005 0.000007 3.713254 -3.289109 -0.165283 1.249519
    29 18.045723 0.000000 0.000000 0.000000 0.000000 -1.732857
    30 17.597597 0.000000 0.000000 -0.251607 0.197234 -0.164508
    31 0.000005 -0.000003 -3.713254 0.821892 2.312307 5.493555
    32 18.045721 0.000000 0.000000 0.000000 0.000000 -2.673768
    33 17.597597 0.000000 0.000000 0.379969 0.033854 0.755924
  time 6
    0 -0.643586 2.801018 -20.600716 0.000000 0.000000 -1.585458
    1 -0.460956 0.019532 0.000000 -1.570795 -1.570787 0.000000
    2 1.293670 0.684478 -0.000001 -0.057966 0.020768 0.232628
    3 5.309685 -0.003834 0.000000 0.005173 0.009060 -0.048847
    4 4.826790 -0.004591 0.000000 0.008202 -0.018996 0.122246
    5 5.792767 -0.005304 0.000000 -0.033367 -0.013722 0.034366
    6 6.662322 -0.001452 0.000000 -0.091910 0.032655 0.231870
    7 -3.518356 0.356631 4.277124 1.665827 -1.440718 -5.044285
    8 4.827512 0.000000 -0.000002 -0.455188 0.262466 -0.365432
    9 11.140032 0.000000 0.000000 0.000000 0.000000 -1.656981
    10 10.314563 -0.000001 0.000001 -1.496111 0.421244 0.874738
    11 1.646836 0.445664 -1.699647 3.033288 0.079544 0.625668
    12 0.928312 0.000000 0.000000 0.000000 0.000000 -0.005445
    13 0.928313 0.000000 -0.000001 0.000000 0.000000 0.605305
    14 2.979373 -0.388274 -0.044205 0.005918 -0.043227 -0.154990
    15 1.435262 -0.000001 -0.000001 0.000000 0.000000 1.184413
    16 1.482593 -0.000001 0.000001 0.000000 0.000000 1.750560
    17 -2.975371 1.071532 -4.156022 -1.603858 1.149456 -4.978517
    18 4.972047 0.000000 0.000000 0.402724 -0.206308 -0.989463
    19 11.585358 0.000000 0.000001 0.000000 0.000000 -0.945998
    20 10.127058 0.000000 0.000001 1.612598 0.045202 0.908844
    21 1.537458 0.109715 1.664489 -3.079588 0.031470 0.928526
    22 0.928313 0.000000 0.000002 0.000000 0.000000 0.061034
    23 0.928311 0.000000 0.000001 0.000000 0.000000 0.671897
    24 2.686395 -0.427337 0.044204 -0.001208 0.043611 -0.052337
    25 1.435260 0.000000 0.000001 0.000000 0.000000 1.186618
    26 1.482593 0.000000 -0.000001 0.000000 0.000000 1.684243
    27 2.046984 0.000001 0.000000 0.149799 -0.027055 0.101941
    28 -0.000005 0.000007 3.713254 -3.289109 -0.165283 1.249615
    29 18.045723 0.000000 0.000000 0.000000 0.000000 -1.732857
    30 17.597597 0.000000 0.000000 -0.251582 0.197284 -0.164508
    31 0.000005 -0.000003 -3.713254 0.821892 2.312307 5.493555
    32 18.045721 0.000000 0.000000 0.000000 0.000000 -2.673768
    33 17.597597 0.000000 0.000000 0.380002 0.033854 0.755924
  time 7
    0 -0.667024 2.426006 -20.600716 0.000000 0.000000 -1.585458
    1 -0.460956 0.019532 0.000000 -1.570795 -1.570787 0.000000
    2 1.293670 0.684478 -0.000001 -0.059516 0.018299 0.152790
    3 5.309685 -0.003834 0.000000 0.005394 0.005609 0.012799
    4 4.826790 -0.004591 0.000000 0.006600 -0.021632 0.181357
    5 5.792767 -0.005304 0.000000 -0.034644 -0.010127 0.140547
    6 6.662322 -0.001452 0.000000 -0.091910 0.032655 0.231870
    7 -3.518356 0.356631 4.277124 1.538821 -1.343494 -4.916655
    8 4.827512 0.000000 -0.000002 -0.804667 0.340406 -0.778668
    9 11.140032 0.000000 0.000000 0.000000 0.000000 -1.100322
    10 10.314563 -0.000001 0.000001 -1.101083 0.077373 0.706296
    11 1.646836 0.445664 -1.699647 3.031037 0.029368 0.802960
    12 0.928312 0.000000 0.000000 0.000000 0.000000 0.061070
    13 0.928313 0.000000 -0.000001 0.000000 0.000000 0.671882
    14 2.979373 -0.388274 -0.044205 0.001460 -0.043599 -0.052327
    15 1.435262 -0.000001 -0.000001 0.000000 0.000000 1.186628
    16 1.482593 -0.000001 0.000001 0.000000 0.000000 1.684153
    17 -2.975371 1.071532 -4.156022 -1.443555 0.932166 -4.781402
    18 4.972047 0.000000 0.000000 0.379368 -0.040708 -0.868199
    19 11.585358 0.000000 0.000001 0.000000 0.000000 -0.707248
    20 10.127058 0.000000 0.000001 1.808875 0.007471 0.724114
    21 1.537458 0.109715 1.664489 -3.079588 0.031470 0.928526
    22 0.928313 0.000000 0.000002 0.000000 0.000000 0.061034
    23 0.928311 0.000000 0.000001 0.000000 0.000000 0.671897
    24 2.686395 -0.427337 0.044204 -0.001208 0.043611 -0.052337
    25 1.435260 0.000000 0.000001 0.000000 0.000000 1.186618
    26 1.482593 0.000000 -0.000001 0.000000 0.000000 1.684243
    27 2.046984 0.000001 0.000000 0.156176 -0.017053 0.007109
    28 -0.000005 0.000007 3.713254 -3.289109 -0.165283 1.249615
    29 18.045723 0.000000 0.000000 0.000000 0.000000 -1.732857
    30 17.597597 0.000000 0.000000 -0.251582 0.197308 -0.164508
    31 0.000005 -0.000003 -3.713254 0.821892 2.312403 5.493555
    32 18.045721 0.000000 0.000000 0.000000 0.000000 -2.673768
    33 17.597597 0.000000 0.000000 0.380036 0.033854 0.755924
  time 8
    0 -0.690462 2.121309 -20.600716 0.000000 0.000000 -1.585458
    1 -0.460956 0.019532 0.000000 -1.570795 -1.570787 0.000000
    2 1.293670 0.684478 -0.000001 -0.060460 0.016262 0.096573
    3 5.309685 -0.003834 0.000000 0.005428 0.003464 0.061145
    4 4.826790 -0.004591 0.000000 0.005188 -0.023250 0.231870
    5 5.792767 -0.005304 0.000000 -0.035274 -0.007742 0.207922
    6 6.662322 -0.001452 0.000000 -0.091910 0.032655 0.231870
    7 -3.518356 0.356631 4.277124 1.422647 -1.194702 -4.792091
    8 4.827512 0.000000 -0.000002 -0.805783 0.172161 -0.785600
    9 11.140032 0.000000 0.000000 0.000000 0.000000 -0.760443
    10 10.314563 -0.000001 0.000001 -1.429483 0.115123 0.514687
    11 1.646836 0.445664 -1.699647 2.943877 -0.138741 1.489868
    12 0.928312 0.000000 0.000000 0.000000 0.000000 0.316151
    13 0.928313 0.000000 -0.000001 0.000000 0.000000 0.926922
    14 2.979373 -0.388274 -0.044205 -0.015307 -0.040867 0.340951
    15 1.435262 -0.000001 -0.000001 0.000000 0.000000 1.194987
    16 1.482593 -0.000001 0.000001 0.000000 0.000000 1.429746
    17 -2.975371 1.071532 -4.156022 -1.395312 0.723683 -4.673936
    18 4.972047 0.000000 0.000000 0.326465 0.106332 -0.660812
    19 11.585358 0.000000 0.000001 0.000000 0.000000 -0.619442
    20 10.127058 0.000000 0.000001 2.058516 -0.077448 0.515274
    21 1.537458 0.109715 1.664489 -3.079588 0.031470 0.928526
    22 0.928313 0.000000 0.000002 0.000000 0.000000 0.061034
    23 0.928311 0.000000 0.000001 0.000000 0.000000 0.671897
    24 2.686395 -0.427337 0.044204 -0.001208 0.043611 -0.052337
    25 1.435260 0.000000 0.000001 0.000000 0.000000 1.186618
    26 1.482593 0.000000 -0.000001 0.000000 0.000000 1.684243
    27 2.046984 0.000001 0.000000 0.160010 -0.010415 -0.058221
    28 -0.000005 0.000007 3.713254 -3.289109 -0.165283 1.249615
    29 18.045723 0.000000 0.000000 0.000000 0.000000 -1.732857
    30 17.597597 0.000000 0.000000 -0.251531 0.197308 -0.164508
    31 0.000005 -0.000003 -3.713254 0.821892 2.312403 5.493459
    32 18.045721 0.000000 0.000000 0.000000 0.000000 -2.673768
    33 17.597597 0.000000 0.000000 0.380036 0.033854 0.755924
  time 9
    0 -0.690462 2.082246 -20.600716 0.000000 0.000000 -1.585458
    1 -0.460956 0.019532 0.000000 -1.570795 -1.570787 0.000000
    2 1.293670 0.684478 -0.000001 -0.060325 0.016801 0.105496
    3 5.309685 -0.003834 0.000000 0.005462 0.003392 0.074340
    4 4.826790 -0.004591 0.000000 0.004673 -0.023382 0.253389
    5 5.792767 -0.005304 0.000000 -0.035454 -0.006903 0.231384
    6 6.662322 -0.001452 0.000000 -0.091910 0.032655 0.231870
    7 -3.518356 0.356631 4.277124 1.379418 -1.057945 -4.734025
    8 4.827512 0.000000 -0.000002 -0.691070 0.035808 -0.699210
    9 11.140032 0.000000 0.000000 0.000000 0.000000 -0.530403
    10 10.314563 -0.000001 0.000001 -1.909620 0.149876 0.321046
    11 1.646836 0.445664 -1.699647 -0.392035 3.352851 -0.875707
    12 0.928312 0.000000 0.000000 0.000000 0.000000 0.593404
    13 0.928313 0.000000 -0.000001 0.000000 0.000000 1.204231
    14 2.979373 -0.388274 -0.044205 -0.030851 -0.030823 0.768363
    15 1.435262 -0.000001 -0.000001 0.000000 0.000000 1.204014
    16 1.482593 -0.000001 0.000001 0.000000 0.000000 1.153221
    17 -2.975371 1.071532 -4.156022 -1.393210 0.696761 -4.662347
    18 4.972047 0.000000 0.000000 0.310707 0.132606 -0.630397
    19 11.585358 0.000000 0.000001 0.000000 0.000000 -0.599104
    20 10.127058 0.000000 0.000001 2.087547 -0.097590 0.484811
    21 1.537458 0.109715 1.664489 -3.079588 0.031470 0.928526
    22 0.928313 0.000000 0.000002 0.000000 0.000000 0.061034
    23 0.928311 0.000000 0.000001 0.000000 0.000000 0.671897
    24 2.686395 -0.427337 0.044204 -0.001208 0.043611 -0.052337
    25 1.435260 0.000000 0.000001 0.000000 0.000000 1.186618
    26 1.482593 0.000000 -0.000001 0.000000 0.000000 1.684243
    27 2.046984 0.000001 0.000000 0.160872 -0.008438 -0.088392
    28 -0.000005 0.000007 3.713254 -3.289109 -0.165283 1.249519
    29 18.045723 0.000000 0.000000 0.000000 0.000000 -1.732931
    30 17.597597 0.000000 0.000000 -0.251582 0.197284 -0.164508
    31 0.000005 -0.000003 -3.713254 0.821892 2.312403 5.493555
    32 18.045721 0.000000 0.000000 0.000000 0.000000 -2.673768
    33 17.597597 0.000000 0.000000 0.380036 0.033854 0.755924
  time 10
    0 -0.690462 2.168186 -20.600716 0.000000 0.000000 -1.585458
    1 -0.460956 0.019532 0.000000 -1.570795 -1.570787 0.000000
    2 1.293670 0.684478 -0.000001 -0.059600 0.019138 0.144336
    3 5.309685 -0.003834 0.000000 0.005462 0.003404 0.072344
    4 4.826790 -0.004591 0.000000 0.004597 -0.023418 0.258769
    5 5.792767 -0.005304 0.000000 -0.035454 -0.006867 0.232443
    6 6.662322 -0.001452 0.000000 -0.091910 0.032655 0.231870
    7 -3.518356 0.356631 4.277124 1.379418 -1.057945 -4.734025
    8 4.827512 0.000000 -0.000002 -0.679112 0.050475 -0.681446
    9 11.140032 0.000000 0.000000 0.000000 0.000000 -0.533591
    10 10.314563 -0.000001 0.000001 -1.909525 0.171139 0.321743
    11 1.646836 0.445664 -1.699647 -0.392035 3.352851 -0.875707
    12 0.928312 0.000000 0.000000 0.000000 0.000000 0.593404
    13 0.928313 0.000000 -0.000001 0.000000 0.000000 1.204231
    14 2.979373 -0.388274 -0.044205 -0.030851 -0.030823 0.768363
    15 1.435262 -0.000001 -0.000001 0.000000 0.000000 1.204014
    16 1.482593 -0.000001 0.000001 0.000000 0.000000 1.153221
    17 -2.975371 1.071532 -4.156022 -1.395312 0.723683 -4.673936
    18 4.972047 0.000000 0.000000 0.294761 0.109466 -0.632726
    19 11.585358 0.000000 0.000001 0.000000 0.000000 -0.619605
    20 10.127058 0.000000 0.000001 2.058867 -0.122271 0.506520
    21 1.537458 0.109715 1.664489 -3.079588 0.031470 0.928526
    22 0.928313 0.000000 0.000002 0.000000 0.000000 0.061034
    23 0.928311 0.000000 0.000001 0.000000 0.000000 0.671897
    24 2.686395 -0.427337 0.044204 -0.001208 0.043611 -0.052337
    25 1.435260 0.000000 0.000001 0.000000 0.000000 1.186618
    26 1.482593 0.000000 -0.000001 0.000000 0.000000 1.684243
    27 2.046984 0.000001 0.000000 0.160527 -0.008822 -0.095144
    28 -0.000005 0.000007 3.713254 -3.289109 -0.165283 1.249519
    29 18.045723 0.000000 0.000000 0.000000 0.000000 -1.732931
    30 17.597597 0.000000 0.000000 -0.251607 0.197234 -0.164508
    31 0.000005 -0.000003 -3.713254 0.821892 2.312307 5.493555
    32 18.045721 0.000000 0.000000 0.000000 0.000000 -2.673768
    33 17.597597 0.000000 0.000000 0.379969 0.033854 0.755924
end
