version 1
nodes
  0 "Bip01" -1
  1 "Bip01 Pelvis" 0
  2 "Bip01 Spine" 1
  3 "Bip01 Spine1" 2
  4 "Bip01 Spine2" 3
  5 "Bip01 Spine3" 4
  6 "Bip01 Neck" 5
  7 "Bip01 L Arm" 6
  8 "Bip01 L Arm1" 7
  9 "Bip01 L Arm2" 8
  10 "Bip01 L Hand" 9
  11 "Bip01 L Finger0" 10
  12 "Bip01 L Finger01" 11
  13 "Bip01 L Finger02" 12
  14 "Bip01 L Finger1" 10
  15 "Bip01 L Finger11" 14
  16 "Bip01 L Finger12" 15
  17 "Bip01 R Arm" 6
  18 "Bip01 R Arm1" 17
  19 "Bip01 R Arm2" 18
  20 "Bip01 R Hand" 19
  21 "Bip01 R Finger0" 20
  22 "Bip01 R Finger01" 21
  23 "Bip01 R Finger02" 22
  24 "Bip01 R Finger1" 20
  25 "Bip01 R Finger11" 24
  26 "Bip01 R Finger12" 25
  27 "Bip01 Head" 6
  28 "Bip01 L Leg" 1
  29 "Bip01 L Leg1" 28
  30 "Bip01 L Foot" 29
  31 "Bip01 R Leg" 1
  32 "Bip01 R Leg1" 31
  33 "Bip01 R Foot" 32
end
skeleton
  time 0
    0 -1.174852 -1.933502 -20.600716 0.000000 0.000000 -1.585458
    1 -4.582175 0.453139 0.000000 -1.570795 -1.570787 0.000000
    2 1.293670 0.684478 -0.000001 -0.013177 -0.128224 0.196032
    3 5.309685 -0.003834 0.000000 -0.248398 0.043696 0.246931
    4 4.826790 -0.004591 0.000000 -0.223017 0.018516 0.467720
    5 5.792767 -0.005304 0.000000 -0.258700 0.010427 0.179145
    6 6.662322 -0.001452 0.000000 0.000000 -0.000001 0.471000
    7 -3.108188 1.516823 4.339626 -1.422847 -1.416264 -2.192158
    8 4.827512 0.000000 -0.000002 -0.892754 -0.252928 -0.425568
    9 11.140032 0.000000 0.000000 0.000000 0.000000 -1.688715
    10 10.314563 -0.000001 0.000001 -1.416878 0.000000 -0.069778
    11 1.646836 0.445664 -1.699647 0.153911 0.442352 0.277231
    12 0.928312 0.000000 0.000000 0.000000 0.000000 0.000000
    13 0.928313 0.000000 -0.000001 0.000000 0.000000 0.000000
    14 2.979373 -0.388274 -0.044205 -0.038161 -0.021140 1.047514
    15 1.435262 -0.000001 -0.000001 0.000000 0.000000 0.924803
    16 1.482593 -0.000001 0.000001 0.000000 0.000000 1.326263
    17 -2.869899 1.399667 -4.140396 1.301170 1.208084 -2.330002
    18 4.972047 0.000000 0.000000 1.679134 -0.495084 -0.985536
    19 11.585358 0.000000 0.000001 0.000000 0.000000 -1.945759
    20 10.127058 0.000000 0.000001 2.690333 0.203597 -0.097640
    21 1.537458 0.109715 1.664489 -0.264662 -0.055995 0.783079
    22 0.928313 0.000000 0.000002 0.000000 0.000000 -0.453501
    23 0.928311 0.000000 0.000001 0.000000 0.000000 0.000000
    24 2.686395 -0.427337 0.044204 0.005971 0.043227 0.113528
    25 1.435260 0.000000 0.000001 0.000000 0.000000 1.090194
    26 1.482593 0.000000 -0.000001 0.000000 0.000000 1.168644
    27 2.046984 0.000001 0.000000 0.772391 -0.084852 -0.635547
    28 -0.000005 0.000007 3.713254 -3.289300 -0.165091 1.249519
    29 18.045723 0.000000 0.000000 0.000000 0.000000 -1.732931
    30 17.597597 0.000000 0.000000 -0.251810 0.197358 -0.164508
    31 0.000005 -0.000003 -3.713254 0.821317 2.311827 5.493076
    32 18.045721 0.000000 0.000000 0.000000 0.000000 -2.673768
    33 17.597597 0.000000 0.000000 0.379801 0.034130 0.755416
  time 1
    0 -1.510800 -1.648337 -20.600716 0.000000 0.000000 -1.585458
    1 -4.582175 0.453139 0.000000 -1.570795 -1.570787 0.000000
    2 1.293670 0.684478 -0.000001 0.015982 -0.130573 0.192282
    3 5.309685 -0.003834 0.000000 -0.162632 0.017737 0.291267
    4 4.826790 -0.004591 0.000000 -0.223017 0.018516 0.467720
    5 5.792767 -0.005304 0.000000 -0.258700 0.010427 0.179145
    6 6.662322 -0.001452 0.000000 0.000000 -0.000001 0.471000
    7 -3.108188 1.516823 4.339626 -1.497420 -1.266940 -2.119336
    8 4.827512 0.000000 -0.000002 -0.909973 0.150757 -0.071774
    9 11.140032 0.000000 0.000000 0.000000 0.000000 -1.832825
    10 10.314563 -0.000001 0.000001 -1.416878 -0.109315 -0.069778
    11 1.646836 0.445664 -1.699647 0.153911 0.442352 0.277231
    12 0.928312 0.000000 0.000000 0.000000 0.000000 0.000000
    13 0.928313 0.000000 -0.000001 0.000000 0.000000 0.000000
    14 2.979373 -0.388274 -0.044205 -0.038161 -0.021140 1.047514
    15 1.435262 -0.000001 -0.000001 0.000000 0.000000 0.924803
    16 1.482593 -0.000001 0.000001 0.000000 0.000000 1.326263
    17 -2.869899 1.399667 -4.140396 1.133225 1.336697 -2.491009
    18 4.972047 0.000000 0.000000 2.842518 -0.698288 -1.053622
    19 11.585358 0.000000 0.000001 0.000000 0.000000 -2.091313
    20 10.127058 0.000000 0.000001 2.696784 0.184306 -0.246754
    21 1.537458 0.109715 1.664489 -0.264662 -0.055995 0.783079
    22 0.928313 0.000000 0.000002 0.000000 0.000000 -0.453501
    23 0.928311 0.000000 0.000001 0.000000 0.000000 0.000000
    24 2.686395 -0.427337 0.044204 0.005971 0.043227 0.113528
    25 1.435260 0.000000 0.000001 0.000000 0.000000 1.090194
    26 1.482593 0.000000 -0.000001 0.000000 0.000000 1.168644
    27 2.046984 0.000001 0.000000 0.768772 -0.134418 -0.471857
    28 -0.000005 0.000007 3.713254 -3.280001 -0.173528 1.250669
    29 18.045723 0.000000 0.000000 0.000000 0.000000 -1.714871
    30 17.597597 0.000000 0.000000 -0.240585 0.191033 -0.180463
    31 0.000005 -0.000003 -3.713254 0.870388 2.335411 5.498349
    32 18.045721 0.000000 0.000000 0.000000 0.000000 -2.667392
    33 17.597597 0.000000 0.000000 0.407045 -0.004390 0.769457
  time 2
    0 -2.178789 -1.339734 -20.600716 0.000000 0.000000 -1.585458
    1 -4.582175 0.453139 0.000000 -1.570795 -1.570787 0.000000
    2 1.293670 0.684478 -0.000001 0.047178 -0.132946 0.188197
    3 5.309685 -0.003834 0.000000 -0.072612 -0.013938 0.335991
    4 4.826790 -0.004591 0.000000 -0.099854 -0.059587 0.466089
    5 5.792767 -0.005304 0.000000 -0.127677 -0.010942 0.173269
    6 6.662322 -0.001452 0.000000 0.000000 -0.000001 0.471000
    7 -3.108188 1.516823 4.339626 -1.523684 -1.117024 -2.094998
    8 4.827512 0.000000 -0.000002 -0.777483 0.393361 0.083330
    9 11.140032 0.000000 0.000000 0.000000 0.000000 -1.976935
    10 10.314563 -0.000001 0.000001 -1.416878 -0.218725 -0.069778
    11 1.646836 0.445664 -1.699647 0.153911 0.442352 0.277231
    12 0.928312 0.000000 0.000000 0.000000 0.000000 0.000000
    13 0.928313 0.000000 -0.000001 0.000000 0.000000 0.000000
    14 2.979373 -0.388274 -0.044205 -0.038161 -0.021140 1.047514
    15 1.435262 -0.000001 -0.000001 0.000000 0.000000 0.924803
    16 1.482593 -0.000001 0.000001 0.000000 0.000000 1.326263
    17 -2.869899 1.399667 -4.140396 0.637415 1.445671 -2.979776
    18 4.972047 0.000000 0.000000 -3.000944 -0.579129 -0.617884
    19 11.585358 0.000000 0.000001 0.000000 0.000000 -1.990438
    20 10.127058 0.000000 0.000001 3.244663 0.513105 -0.059624
    21 1.537458 0.109715 1.664489 -0.264662 -0.055995 0.783079
    22 0.928313 0.000000 0.000002 0.000000 0.000000 -0.453501
    23 0.928311 0.000000 0.000001 0.000000 0.000000 0.000000
    24 2.686395 -0.427337 0.044204 0.005971 0.043227 0.113528
    25 1.435260 0.000000 0.000001 0.000000 0.000000 1.090194
    26 1.482593 0.000000 -0.000001 0.000000 0.000000 1.168644
    27 2.046984 0.000001 0.000000 0.528412 0.038148 -0.313155
    28 -0.000005 0.000007 3.713254 -3.260634 -0.191553 1.250765
    29 18.045723 0.000000 0.000000 0.000000 0.000000 -1.694073
    30 17.597597 0.000000 0.000000 -0.217044 0.178334 -0.199169
    31 0.000005 -0.000003 -3.713254 0.955401 2.388138 5.529027
    32 18.045721 0.000000 0.000000 0.000000 0.000000 -2.652593
    33 17.597597 0.000000 0.000000 0.440093 -0.060562 0.808671
  time 3
    0 -2.901467 -1.226449 -20.600716 0.000000 0.000000 -1.585458
    1 -4.582175 0.453139 0.000000 -1.570795 -1.570787 0.000000
    2 1.293670 0.684478 -0.000001 0.074466 -0.134936 0.184531
    3 5.309685 -0.003834 0.000000 0.005054 -0.044822 0.372555
    4 4.826790 -0.004591 0.000000 0.049441 -0.152037 0.450148
    5 5.792767 -0.005304 0.000000 0.029698 -0.035019 0.159877
    6 6.662322 -0.001452 0.000000 0.000000 -0.000001 0.471000
    7 -3.108188 1.516823 4.339626 -1.534611 -1.003686 -2.085512
    8 4.827512 0.000000 -0.000002 -0.664604 0.479061 0.114958
    9 11.140032 0.000000 0.000000 0.000000 0.000000 -2.085687
    10 10.314563 -0.000001 0.000001 -1.416878 -0.301344 -0.069778
    11 1.646836 0.445664 -1.699647 0.153911 0.442352 0.277231
    12 0.928312 0.000000 0.000000 0.000000 0.000000 0.000000
    13 0.928313 0.000000 -0.000001 0.000000 0.000000 0.000000
    14 2.979373 -0.388274 -0.044205 -0.038161 -0.021140 1.047514
    15 1.435262 -0.000001 -0.000001 0.000000 0.000000 0.924803
    16 1.482593 -0.000001 0.000001 0.000000 0.000000 1.326263
    17 -2.869899 1.399667 -4.140396 -0.365383 1.462996 -3.976943
    18 4.972047 0.000000 0.000000 -3.151210 0.280851 -0.174160
    19 11.585358 0.000000 0.000001 0.000000 0.000000 -1.901162
    20 10.127058 0.000000 0.000001 2.223728 0.303456 -0.292974
    21 1.537458 0.109715 1.664489 -0.264662 -0.055995 0.783079
    22 0.928313 0.000000 0.000002 0.000000 0.000000 -0.453501
    23 0.928311 0.000000 0.000001 0.000000 0.000000 0.000000
    24 2.686395 -0.427337 0.044204 0.005971 0.043227 0.113528
    25 1.435260 0.000000 0.000001 0.000000 0.000000 1.090194
    26 1.482593 0.000000 -0.000001 0.000000 0.000000 1.168644
    27 2.046984 0.000001 0.000000 0.209297 0.324774 -0.350138
    28 -0.000005 0.000007 3.713254 -3.239158 -0.211974 1.248944
    29 18.045723 0.000000 0.000000 0.000000 0.000000 -1.684229
    30 17.597597 0.000000 0.000000 -0.190894 0.164528 -0.208521
    31 0.000005 -0.000003 -3.713254 1.029391 2.448438 5.573702
    32 18.045721 0.000000 0.000000 0.000000 0.000000 -2.634724
    33 17.597597 0.000000 0.000000 0.455392 -0.102475 0.858554
  time 4
    0 -3.460078 -1.277232 -20.600716 0.000000 0.000000 -1.585458
    1 -4.582175 0.453139 0.000000 -1.570795 -1.570787 0.000000
    2 1.293670 0.684478 -0.000001 0.092069 -0.136170 0.182137
    3 5.309685 -0.003834 0.000000 0.054676 -0.065915 0.394440
    4 4.826790 -0.004591 0.000000 0.189904 -0.234502 0.425983
    5 5.792767 -0.005304 0.000000 0.174535 -0.056244 0.151302
    6 6.662322 -0.001452 0.000000 0.000000 -0.000001 0.471000
    7 -3.108188 1.516823 4.339626 -1.537199 -0.970657 -2.083309
    8 4.827512 0.000000 -0.000002 -0.725189 0.386113 -0.127144
    9 11.140032 0.000000 0.000000 0.000000 0.000000 -2.117567
    10 10.314563 -0.000001 0.000001 -1.416878 -0.331506 -0.069778
    11 1.646836 0.445664 -1.699647 0.153911 0.442352 0.277231
    12 0.928312 0.000000 0.000000 0.000000 0.000000 0.000000
    13 0.928313 0.000000 -0.000001 0.000000 0.000000 0.000000
    14 2.979373 -0.388274 -0.044205 -0.038161 -0.021140 1.047514
    15 1.435262 -0.000001 -0.000001 0.000000 0.000000 0.924803
    16 1.482593 -0.000001 0.000001 0.000000 0.000000 1.326263
    17 -2.869899 1.399667 -4.140396 -0.948987 1.399005 -4.555264
    18 4.972047 0.000000 0.000000 -3.227280 0.795489 -0.141082
    19 11.585358 0.000000 0.000001 0.000000 0.000000 -0.814902
    20 10.127058 0.000000 0.000001 1.857050 -0.141941 -0.390216
    21 1.537458 0.109715 1.664489 -0.264662 -0.055995 0.783079
    22 0.928313 0.000000 0.000002 0.000000 0.000000 -0.453501
    23 0.928311 0.000000 0.000001 0.000000 0.000000 0.000000
    24 2.686395 -0.427337 0.044204 0.005971 0.043227 0.113528
    25 1.435260 0.000000 0.000001 0.000000 0.000000 1.090194
    26 1.482593 0.000000 -0.000001 0.000000 0.000000 1.168644
    27 2.046984 0.000001 0.000000 -0.134117 0.526696 -0.512977
    28 -0.000005 0.000007 3.713254 -3.221517 -0.228177 1.246164
    29 18.045723 0.000000 0.000000 0.000000 0.000000 -1.684599
    30 17.597597 0.000000 0.000000 -0.170166 0.153577 -0.209026
    31 0.000005 -0.000003 -3.713254 1.073957 2.497330 5.613392
    32 18.045721 0.000000 0.000000 0.000000 0.000000 -2.620161
    33 17.597597 0.000000 0.000000 0.456164 -0.122613 0.901694
  time 5
    0 -3.737430 -1.351453 -20.600716 0.000000 0.000000 -1.585458
    1 -4.582175 0.453139 0.000000 -1.570795 -1.570787 0.000000
    2 1.293670 0.684478 -0.000001 0.097965 -0.136553 0.181367
    3 5.309685 -0.003834 0.000000 0.071591 -0.072567 0.400481
    4 4.826790 -0.004591 0.000000 0.281709 -0.287115 0.411762
    5 5.792767 -0.005304 0.000000 0.267154 -0.073154 0.162244
    6 6.662322 -0.001452 0.000000 0.000000 -0.000001 0.471000
    7 -3.108188 1.516823 4.339626 -1.534611 -1.003686 -2.085512
    8 4.827512 0.000000 -0.000002 -0.811124 0.232535 -0.435099
    9 11.140032 0.000000 0.000000 0.000000 0.000000 -2.085687
    10 10.314563 -0.000001 0.000001 -1.416878 -0.301344 -0.069778
    11 1.646836 0.445664 -1.699647 0.153911 0.442352 0.277231
    12 0.928312 0.000000 0.000000 0.000000 0.000000 0.000000
    13 0.928313 0.000000 -0.000001 0.000000 0.000000 0.000000
    14 2.979373 -0.388274 -0.044205 -0.038161 -0.021140 1.047514
    15 1.435262 -0.000001 -0.000001 0.000000 0.000000 0.924803
    16 1.482593 -0.000001 0.000001 0.000000 0.000000 1.326263
    17 -2.869899 1.399667 -4.140396 -1.097348 1.352681 -4.700946
    18 4.972047 0.000000 0.000000 2.323155 0.417686 -0.478917
    19 11.585358 0.000000 0.000001 0.000000 0.000000 -0.778881
    20 10.127058 0.000000 0.000001 2.077309 -0.123028 -0.253407
    21 1.537458 0.109715 1.664489 -0.264662 -0.055995 0.783079
    22 0.928313 0.000000 0.000002 0.000000 0.000000 -0.453501
    23 0.928311 0.000000 0.000001 0.000000 0.000000 0.000000
    24 2.686395 -0.427337 0.044204 0.005971 0.043227 0.113528
    25 1.435260 0.000000 0.000001 0.000000 0.000000 1.090194
    26 1.482593 0.000000 -0.000001 0.000000 0.000000 1.168644
    27 2.046984 0.000001 0.000000 -0.395803 0.594288 -0.700755
    28 -0.000005 0.000007 3.713254 -3.212409 -0.236422 1.244247
    29 18.045723 0.000000 0.000000 0.000000 0.000000 -1.687560
    30 17.597597 0.000000 0.000000 -0.159523 0.147868 -0.206963
    31 0.000005 -0.000003 -3.713254 1.091976 2.522639 5.634771
    32 18.045721 0.000000 0.000000 0.000000 0.000000 -2.612683
    33 17.597597 0.000000 0.000000 0.453480 -0.128352 0.924973
  time 6
    0 -3.799932 -1.351453 -20.600716 0.000000 0.000000 -1.585458
    1 -4.582175 0.453139 0.000000 -1.570795 -1.570787 0.000000
    2 1.293670 0.684478 -0.000001 0.095455 -0.136398 0.181685
    3 5.309685 -0.003834 0.000000 0.065022 -0.068216 0.395659
    4 4.826790 -0.004591 0.000000 0.308394 -0.308615 0.427262
    5 5.792767 -0.005304 0.000000 0.294909 -0.090292 0.213881
    6 6.662322 -0.001452 0.000000 0.000000 -0.000001 0.471000
    7 -3.108188 1.516823 4.339626 -1.528189 -1.076544 -2.091070
    8 4.827512 0.000000 -0.000002 -0.843409 0.164230 -0.660823
    9 11.140032 0.000000 0.000000 0.000000 0.000000 -2.015263
    10 10.314563 -0.000001 0.000001 -1.416878 -0.205985 -0.069778
    11 1.646836 0.445664 -1.699647 0.153911 0.442352 0.277231
    12 0.928312 0.000000 0.000000 0.000000 0.000000 0.000000
    13 0.928313 0.000000 -0.000001 0.000000 0.000000 0.000000
    14 2.979373 -0.388274 -0.044205 -0.038161 -0.021140 1.047514
    15 1.435262 -0.000001 -0.000001 0.000000 0.000000 0.924803
    16 1.482593 -0.000001 0.000001 0.000000 0.000000 1.326263
    17 -2.869899 1.399667 -4.140396 -1.193071 1.303308 -4.793949
    18 4.972047 0.000000 0.000000 2.021405 0.304233 -0.693158
    19 11.585358 0.000000 0.000001 0.000000 0.000000 -0.407728
    20 10.127058 0.000000 0.000001 1.816238 -0.135321 -0.200684
    21 1.537458 0.109715 1.664489 -0.264662 -0.055995 0.783079
    22 0.928313 0.000000 0.000002 0.000000 0.000000 -0.453501
    23 0.928311 0.000000 0.000001 0.000000 0.000000 0.000000
    24 2.686395 -0.427337 0.044204 0.005971 0.043227 0.113528
    25 1.435260 0.000000 0.000001 0.000000 0.000000 1.090194
    26 1.482593 0.000000 -0.000001 0.000000 0.000000 1.168644
    27 2.046984 0.000001 0.000000 -0.497220 0.575347 -0.846501
    28 -0.000005 0.000007 3.713254 -3.210588 -0.238148 1.243959
    29 18.045723 0.000000 0.000000 0.000000 0.000000 -1.687190
    30 17.597597 0.000000 0.000000 -0.157344 0.146711 -0.207329
    31 0.000005 -0.000003 -3.713254 1.096384 2.527720 5.638222
    32 18.045721 0.000000 0.000000 0.000000 0.000000 -2.610951
    33 17.597597 0.000000 0.000000 0.453581 -0.130719 0.928853
  time 7
    0 -3.690554 -1.296764 -20.600716 0.000000 0.000000 -1.585458
    1 -4.582175 0.453139 0.000000 -1.570795 -1.570787 0.000000
    2 1.293670 0.684478 -0.000001 0.086460 -0.135762 0.182924
    3 5.309685 -0.003834 0.000000 0.040262 -0.056100 0.382888
    4 4.826790 -0.004591 0.000000 0.290617 -0.309778 0.465560
    5 5.792767 -0.005304 0.000000 0.278252 -0.106387 0.295022
    6 6.662322 -0.001452 0.000000 0.000000 -0.000001 0.471000
    7 -3.108188 1.516823 4.339626 -1.516303 -1.171372 -2.101610
    8 4.827512 0.000000 -0.000002 -0.882550 0.095415 -0.846689
    9 11.140032 0.000000 0.000000 0.000000 0.000000 -1.923537
    10 10.314563 -0.000001 0.000001 -1.416878 -0.083837 -0.069778
    11 1.646836 0.445664 -1.699647 0.153911 0.442352 0.277231
    12 0.928312 0.000000 0.000000 0.000000 0.000000 0.000000
    13 0.928313 0.000000 -0.000001 0.000000 0.000000 0.000000
    14 2.979373 -0.388274 -0.044205 -0.038161 -0.021140 1.047514
    15 1.435262 -0.000001 -0.000001 0.000000 0.000000 0.924803
    16 1.482593 -0.000001 0.000001 0.000000 0.000000 1.326263
    17 -2.869899 1.399667 -4.140396 -1.094960 1.353680 -4.698647
    18 4.972047 0.000000 0.000000 1.476717 0.172219 -0.647302
    19 11.585358 0.000000 0.000001 0.000000 0.000000 -0.684214
    20 10.127058 0.000000 0.000001 2.187544 -0.208892 0.081387
    21 1.537458 0.109715 1.664489 -0.264662 -0.055995 0.783079
    22 0.928313 0.000000 0.000002 0.000000 0.000000 -0.453501
    23 0.928311 0.000000 0.000001 0.000000 0.000000 0.000000
    24 2.686395 -0.427337 0.044204 0.005971 0.043227 0.113528
    25 1.435260 0.000000 0.000001 0.000000 0.000000 1.090194
    26 1.482593 0.000000 -0.000001 0.000000 0.000000 1.168644
    27 2.046984 0.000001 0.000000 -0.477574 0.520146 -0.952525
    28 -0.000005 0.000007 3.713254 -3.214423 -0.234888 1.245109
    29 18.045723 0.000000 0.000000 0.000000 0.000000 -1.684081
    30 17.597597 0.000000 0.000000 -0.161500 0.149049 -0.209713
    31 0.000005 -0.000003 -3.713254 1.091305 2.517462 5.628348
    32 18.045721 0.000000 0.000000 0.000000 0.000000 -2.613548
    33 17.597597 0.000000 0.000000 0.456130 -0.131133 0.918460
  time 8
    0 -3.428827 -1.214730 -20.600716 0.000000 0.000000 -1.585458
    1 -4.582175 0.453139 0.000000 -1.570795 -1.570787 0.000000
    2 1.293670 0.684478 -0.000001 0.072984 -0.134840 0.184732
    3 5.309685 -0.003834 0.000000 0.002416 -0.039561 0.364977
    4 4.826790 -0.004591 0.000000 0.241424 -0.290518 0.508862
    5 5.792767 -0.005304 0.000000 0.228876 -0.111397 0.372135
    6 6.662322 -0.001452 0.000000 0.000000 -0.000001 0.471000
    7 -3.108188 1.516823 4.339626 -1.501446 -1.250559 -2.115695
    8 4.827512 0.000000 -0.000002 -0.937714 -0.020216 -0.947116
    9 11.140032 0.000000 0.000000 0.000000 0.000000 -1.847098
    10 10.314563 -0.000001 0.000001 -1.416878 0.000000 -0.069778
    11 1.646836 0.445664 -1.699647 0.153911 0.442352 0.277231
    12 0.928312 0.000000 0.000000 0.000000 0.000000 0.000000
    13 0.928313 0.000000 -0.000001 0.000000 0.000000 0.000000
    14 2.979373 -0.388274 -0.044205 -0.038161 -0.021140 1.047514
    15 1.435262 -0.000001 -0.000001 0.000000 0.000000 0.924803
    16 1.482593 -0.000001 0.000001 0.000000 0.000000 1.326263
    17 -2.869899 1.399667 -4.140396 -0.941249 1.400819 -4.547602
    18 4.972047 0.000000 0.000000 1.002002 -0.019897 -0.279916
    19 11.585358 0.000000 0.000001 0.000000 0.000000 -1.453557
    20 10.127058 0.000000 0.000001 2.536341 -0.376082 0.325992
    21 1.537458 0.109715 1.664489 -0.264662 -0.055995 0.783079
    22 0.928313 0.000000 0.000002 0.000000 0.000000 -0.453501
    23 0.928311 0.000000 0.000001 0.000000 0.000000 0.000000
    24 2.686395 -0.427337 0.044204 0.005971 0.043227 0.113528
    25 1.435260 0.000000 0.000001 0.000000 0.000000 1.090194
    26 1.482593 0.000000 -0.000001 0.000000 0.000000 1.168644
    27 2.046984 0.000001 0.000000 -0.371849 0.452170 -1.005933
    28 -0.000005 0.000007 3.713254 -3.223147 -0.226930 1.247122
    29 18.045723 0.000000 0.000000 0.000000 0.000000 -1.680454
    30 17.597597 0.000000 0.000000 -0.171686 0.154512 -0.212418
    31 0.000005 -0.000003 -3.713254 1.074532 2.493016 5.606873
    32 18.045721 0.000000 0.000000 0.000000 0.000000 -2.620712
    33 17.597597 0.000000 0.000000 0.459419 -0.126636 0.895459
  time 9
    0 -2.940531 -1.160041 -20.600716 0.000000 0.000000 -1.585458
    1 -4.582175 0.453139 0.000000 -1.570795 -1.570787 0.000000
    2 1.293670 0.684478 -0.000001 0.050328 -0.133210 0.187762
    3 5.309685 -0.003834 0.000000 -0.062351 -0.014609 0.335620
    4 4.826790 -0.004591 0.000000 0.174378 -0.252491 0.537812
    5 5.792767 -0.005304 0.000000 0.160271 -0.099436 0.410027
    6 6.662322 -0.001452 0.000000 0.000000 -0.000001 0.471000
    7 -3.108188 1.516823 4.339626 -1.487452 -1.301920 -2.129110
    8 4.827512 0.000000 -0.000002 -0.989530 -0.143011 -0.937498
    9 11.140032 0.000000 0.000000 0.000000 0.000000 -1.797830
    10 10.314563 -0.000001 0.000001 -1.416878 0.024167 -0.069778
    11 1.646836 0.445664 -1.699647 0.153911 0.442352 0.277231
    12 0.928312 0.000000 0.000000 0.000000 0.000000 0.000000
    13 0.928313 0.000000 -0.000001 0.000000 0.000000 0.000000
    14 2.979373 -0.388274 -0.044205 -0.038161 -0.021140 1.047514
    15 1.435262 -0.000001 -0.000001 0.000000 0.000000 0.924803
    16 1.482593 -0.000001 0.000001 0.000000 0.000000 1.326263
    17 -2.869899 1.399667 -4.140396 -0.253324 1.466756 -3.865360
    18 4.972047 0.000000 0.000000 0.853050 -0.197791 -0.013029
    19 11.585358 0.000000 0.000001 0.000000 0.000000 -1.990111
    20 10.127058 0.000000 0.000001 2.797763 -0.297593 0.089841
    21 1.537458 0.109715 1.664489 -0.264662 -0.055995 0.783079
    22 0.928313 0.000000 0.000002 0.000000 0.000000 -0.453501
    23 0.928311 0.000000 0.000001 0.000000 0.000000 0.000000
    24 2.686395 -0.427337 0.044204 0.005971 0.043227 0.113528
    25 1.435260 0.000000 0.000001 0.000000 0.000000 1.090194
    26 1.482593 0.000000 -0.000001 0.000000 0.000000 1.168644
    27 2.046984 0.000001 0.000000 -0.191719 0.362568 -0.975457
    28 -0.000005 0.000007 3.713254 -3.238583 -0.212645 1.249615
    29 18.045723 0.000000 0.000000 0.000000 0.000000 -1.679714
    30 17.597597 0.000000 0.000000 -0.189956 0.164159 -0.212281
    31 0.000005 -0.000003 -3.713254 1.035333 2.449876 5.571114
    32 18.045721 0.000000 0.000000 0.000000 0.000000 -2.633543
    33 17.597597 0.000000 0.000000 0.459318 -0.109280 0.856938
  time 10
    0 -2.178789 -1.265513 -20.600716 0.000000 0.000000 -1.585458
    1 -4.582175 0.453139 0.000000 -1.570795 -1.570787 0.000000
    2 1.293670 0.684478 -0.000001 0.018542 -0.130789 0.191947
    3 5.309685 -0.003834 0.000000 -0.154719 0.016587 0.292627
    4 4.826790 -0.004591 0.000000 0.069354 -0.179877 0.537922
    5 5.792767 -0.005304 0.000000 0.051607 -0.063375 0.372924
    6 6.662322 -0.001452 0.000000 0.000000 -0.000001 0.471000
    7 -3.108188 1.516823 4.339626 -1.471923 -1.342282 -2.144057
    8 4.827512 0.000000 -0.000002 -1.009619 -0.178484 -0.805530
    9 11.140032 0.000000 0.000000 0.000000 0.000000 -1.759357
    10 10.314563 -0.000001 0.000001 -1.416878 0.021451 -0.069778
    11 1.646836 0.445664 -1.699647 0.153911 0.442352 0.277231
    12 0.928312 0.000000 0.000000 0.000000 0.000000 0.000000
    13 0.928313 0.000000 -0.000001 0.000000 0.000000 0.000000
    14 2.979373 -0.388274 -0.044205 -0.038161 -0.021140 1.047514
    15 1.435262 -0.000001 -0.000001 0.000000 0.000000 0.924803
    16 1.482593 -0.000001 0.000001 0.000000 0.000000 1.326263
    17 -2.869899 1.399667 -4.140396 0.810518 1.425164 -2.808329
    18 4.972047 0.000000 0.000000 0.365486 -1.267564 0.512692
    19 11.585358 0.000000 0.000001 0.000000 0.000000 -2.287753
    20 10.127058 0.000000 0.000001 2.658567 -0.167568 -0.038565
    21 1.537458 0.109715 1.664489 -0.264662 -0.055995 0.783079
    22 0.928313 0.000000 0.000002 0.000000 0.000000 -0.453501
    23 0.928311 0.000000 0.000001 0.000000 0.000000 0.000000
    24 2.686395 -0.427337 0.044204 0.005971 0.043227 0.113528
    25 1.435260 0.000000 0.000001 0.000000 0.000000 1.090194
    26 1.482593 0.000000 -0.000001 0.000000 0.000000 1.168644
    27 2.046984 0.000001 0.000000 0.103399 0.219742 -0.833057
    28 -0.000005 0.000007 3.713254 -3.261018 -0.191361 1.251628
    29 18.045723 0.000000 0.000000 0.000000 0.000000 -1.689114
    30 17.597597 0.000000 0.000000 -0.217196 0.178482 -0.203203
    31 0.000005 -0.000003 -3.713254 0.958851 2.386795 5.523371
    32 18.045721 0.000000 0.000000 0.000000 0.000000 -2.652042
    33 17.597597 0.000000 0.000000 0.444622 -0.066795 0.804376
  time 11
    0 -1.424859 -1.656150 -20.600716 0.000000 0.000000 -1.585458
    1 -4.582175 0.453139 0.000000 -1.570795 -1.570787 0.000000
    2 1.293670 0.684478 -0.000001 -0.013177 -0.128224 0.196032
    3 5.309685 -0.003834 0.000000 -0.248398 0.043696 0.246931
    4 4.826790 -0.004591 0.000000 -0.075649 -0.078104 0.509987
    5 5.792767 -0.005304 0.000000 -0.101829 -0.018948 0.278827
    6 6.662322 -0.001452 0.000000 0.000000 -0.000001 0.471000
    7 -3.108188 1.516823 4.339626 -1.452753 -1.378238 -2.162742
    8 4.827512 0.000000 -0.000002 -0.987617 -0.157337 -0.578506
    9 11.140032 0.000000 0.000000 0.000000 0.000000 -1.725087
    10 10.314563 -0.000001 0.000001 -1.416878 0.007868 -0.069778
    11 1.646836 0.445664 -1.699647 0.153911 0.442352 0.277231
    12 0.928312 0.000000 0.000000 0.000000 0.000000 0.000000
    13 0.928313 0.000000 -0.000001 0.000000 0.000000 0.000000
    14 2.979373 -0.388274 -0.044205 -0.038161 -0.021140 1.047514
    15 1.435262 -0.000001 -0.000001 0.000000 0.000000 0.924803
    16 1.482593 -0.000001 0.000001 0.000000 0.000000 1.326263
    17 -2.869899 1.399667 -4.140396 1.175736 1.313982 -2.449536
    18 4.972047 0.000000 0.000000 1.074321 -1.148084 -0.281114
    19 11.585358 0.000000 0.000001 0.000000 0.000000 -2.151266
    20 10.127058 0.000000 0.000001 2.505837 -0.057117 -0.181926
    21 1.537458 0.109715 1.664489 -0.264662 -0.055995 0.783079
    22 0.928313 0.000000 0.000002 0.000000 0.000000 -0.453501
    23 0.928311 0.000000 0.000001 0.000000 0.000000 0.000000
    24 2.686395 -0.427337 0.044204 0.005971 0.043227 0.113528
    25 1.435260 0.000000 0.000001 0.000000 0.000000 1.090194
    26 1.482593 0.000000 -0.000001 0.000000 0.000000 1.168644
    27 2.046984 0.000001 0.000000 0.477445 0.019207 -0.693030
    28 -0.000005 0.000007 3.713254 -3.282685 -0.171036 1.251053
    29 18.045723 0.000000 0.000000 0.000000 0.000000 -1.715241
    30 17.597597 0.000000 0.000000 -0.243727 0.192829 -0.180004
    31 0.000005 -0.000003 -3.713254 0.860325 2.328029 5.491158
    32 18.045721 0.000000 0.000000 0.000000 0.000000 -2.668730
    33 17.597597 0.000000 0.000000 0.404461 -0.000110 0.762114
  time 12
    0 -1.174852 -1.933502 -20.600716 0.000000 0.000000 -1.585458
    1 -4.582175 0.453139 0.000000 -1.570795 -1.570787 0.000000
    2 1.293670 0.684478 -0.000001 -0.013177 -0.128224 0.196032
    3 5.309685 -0.003834 0.000000 -0.248398 0.043696 0.246931
    4 4.826790 -0.004591 0.000000 -0.223017 0.018516 0.467720
    5 5.792767 -0.005304 0.000000 -0.258700 0.010427 0.179145
    6 6.662322 -0.001452 0.000000 0.000000 -0.000001 0.471000
    7 -3.108188 1.516823 4.339626 -1.422847 -1.416264 -2.192158
    8 4.827512 0.000000 -0.000002 -0.892754 -0.252928 -0.425568
    9 11.140032 0.000000 0.000000 0.000000 0.000000 -1.688715
    10 10.314563 -0.000001 0.000001 -1.416878 0.000000 -0.069778
    11 1.646836 0.445664 -1.699647 0.153911 0.442352 0.277231
    12 0.928312 0.000000 0.000000 0.000000 0.000000 0.000000
    13 0.928313 0.000000 -0.000001 0.000000 0.000000 0.000000
    14 2.979373 -0.388274 -0.044205 -0.038161 -0.021140 1.047514
    15 1.435262 -0.000001 -0.000001 0.000000 0.000000 0.924803
    16 1.482593 -0.000001 0.000001 0.000000 0.000000 1.326263
    17 -2.869899 1.399667 -4.140396 1.301170 1.208084 -2.330002
    18 4.972047 0.000000 0.000000 1.679134 -0.495084 -0.985536
    19 11.585358 0.000000 0.000001 0.000000 0.000000 -1.945759
    20 10.127058 0.000000 0.000001 2.658567 0.096266 -0.312833
    21 1.537458 0.109715 1.664489 -0.264662 -0.055995 0.783079
    22 0.928313 0.000000 0.000002 0.000000 0.000000 -0.453501
    23 0.928311 0.000000 0.000001 0.000000 0.000000 0.000000
    24 2.686395 -0.427337 0.044204 0.005971 0.043227 0.113528
    25 1.435260 0.000000 0.000001 0.000000 0.000000 1.090194
    26 1.482593 0.000000 -0.000001 0.000000 0.000000 1.168644
    27 2.046984 0.000001 0.000000 0.772391 -0.084852 -0.635547
    28 -0.000005 0.000007 3.713254 -3.289300 -0.165091 1.249519
    29 18.045723 0.000000 0.000000 0.000000 0.000000 -1.732931
    30 17.597597 0.000000 0.000000 -0.251810 0.197358 -0.164508
    31 0.000005 -0.000003 -3.713254 0.821317 2.311827 5.493076
    32 18.045721 0.000000 0.000000 0.000000 0.000000 -2.673768
    33 17.597597 0.000000 0.000000 0.379801 0.034130 0.755416
end
