version 1
nodes
  0 "Bip01" -1
  1 "Bip01 Pelvis" 0
  2 "Bip01 Spine" 1
  3 "Bip01 Spine1" 2
  4 "Bip01 Spine2" 3
  5 "Bip01 Spine3" 4
  6 "Bip01 Neck" 5
  7 "Bip01 L Arm" 6
  8 "Bip01 L Arm1" 7
  9 "Bip01 L Arm2" 8
  10 "Bip01 L Hand" 9
  11 "Bip01 L Finger0" 10
  12 "Bip01 L Finger01" 11
  13 "Bip01 L Finger02" 12
  14 "Bip01 L Finger1" 10
  15 "Bip01 L Finger11" 14
  16 "Bip01 L Finger12" 15
  17 "Bip01 R Arm" 6
  18 "Bip01 R Arm1" 17
  19 "Bip01 R Arm2" 18
  20 "Bip01 R Hand" 19
  21 "Bip01 R Finger0" 20
  22 "Bip01 R Finger01" 21
  23 "Bip01 R Finger02" 22
  24 "Bip01 R Finger1" 20
  25 "Bip01 R Finger11" 24
  26 "Bip01 R Finger12" 25
  27 "Bip01 Head" 6
  28 "Bip01 L Leg" 1
  29 "Bip01 L Leg1" 28
  30 "Bip01 L Foot" 29
  31 "Bip01 R Leg" 1
  32 "Bip01 R Leg1" 31
  33 "Bip01 R Foot" 32
end
skeleton
  time 0
    0 0.243160 2.082246 -20.600716 0.000000 0.000000 -1.585458
    1 -0.546896 0.050783 0.000000 -1.570795 -1.570787 0.000000
    2 1.293670 0.684478 -0.000001 -0.000004 0.017485 0.009470
    3 5.309685 -0.003834 0.000000 -0.015537 -0.047375 -0.018871
    4 4.826790 -0.004591 0.000000 -0.091538 0.031915 0.051669
    5 5.792767 -0.005304 0.000000 -0.164912 0.055093 -0.049703
    6 6.662322 -0.001452 0.000000 0.000000 -0.000001 0.209256
    7 -3.393353 0.665235 4.339626 -1.263539 -1.547640 -2.088195
    8 4.827512 0.000000 -0.000002 0.510503 1.009122 -1.386521
    9 11.140032 0.000000 0.000000 0.000000 0.000000 -1.404626
    10 10.314563 -0.000001 0.000001 -3.838507 0.512012 0.727664
    11 1.646836 0.445664 -1.699647 0.153911 0.442352 0.277231
    12 0.928312 0.000000 0.000000 0.000000 0.000000 0.000000
    13 0.928313 0.000000 -0.000001 0.000000 0.000000 0.000000
    14 2.979373 -0.388274 -0.044205 0.001088 -0.043611 -0.043599
    15 1.435262 -0.000001 -0.000001 0.000000 0.000000 1.334445
    16 1.482593 -0.000001 0.000001 0.000000 0.000000 0.793674
    17 -3.131626 0.610580 -4.140396 -2.171221 1.280330 -5.542759
    18 4.972047 0.000000 0.000000 -0.850050 -0.977181 -0.386737
    19 11.585358 0.000000 0.000001 0.000000 0.000000 -1.505587
    20 10.127058 0.000000 0.000001 3.080713 -1.040489 0.774386
    21 1.537458 0.109715 1.664489 -0.264662 -0.055995 0.783079
    22 0.928313 0.000000 0.000002 0.000000 0.000000 -0.453501
    23 0.928311 0.000000 0.000001 0.000000 0.000000 0.000000
    24 2.686395 -0.427337 0.044204 -0.005762 0.043239 -0.157074
    25 1.435260 0.000000 0.000001 0.000000 0.000000 0.732613
    26 1.482593 0.000000 -0.000001 0.000000 0.000000 1.168644
    27 2.046984 0.000001 0.000000 0.042997 -0.290373 0.477619
    28 -0.000005 0.000007 3.713254 -3.289492 -0.165667 1.249615
    29 18.045723 0.000000 0.000000 0.000000 0.000000 -1.732931
    30 17.597597 0.000000 0.000000 -0.251303 0.197727 -0.164416
    31 0.000005 -0.000003 -3.713254 0.821030 2.312882 5.492692
    32 18.045721 0.000000 0.000000 0.000000 0.000000 -2.673768
    33 17.597597 0.000000 0.000000 0.380640 0.034308 0.755924
  time 1
    0 0.211909 1.761924 -20.600716 0.000000 0.000000 -1.585458
    1 -0.769559 -0.144536 0.000000 -1.570795 -1.570787 0.000000
    2 1.293670 0.684478 -0.000001 0.000434 0.016753 0.035167
    3 5.309685 -0.003834 0.000000 -0.034119 -0.043516 -0.002639
    4 4.826790 -0.004591 0.000000 -0.086998 -0.010499 0.004883
    5 5.792767 -0.005304 0.000000 -0.147427 -0.019787 -0.027840
    6 6.662322 -0.001452 0.000000 0.000000 -0.000001 0.209256
    7 -3.393353 0.665235 4.339626 0.386668 -1.542376 -3.738282
    8 4.827512 0.000000 -0.000002 0.802267 0.846676 -0.964880
    9 11.140032 0.000000 0.000000 0.000000 0.000000 -1.755662
    10 10.314563 -0.000001 0.000001 -3.588961 0.232588 1.128997
    11 1.646836 0.445664 -1.699647 0.153911 0.442352 0.277231
    12 0.928312 0.000000 0.000000 0.000000 0.000000 0.000000
    13 0.928313 0.000000 -0.000001 0.000000 0.000000 0.000000
    14 2.979373 -0.388274 -0.044205 0.001088 -0.043611 -0.043599
    15 1.435262 -0.000001 -0.000001 0.000000 0.000000 1.334445
    16 1.482593 -0.000001 0.000001 0.000000 0.000000 0.793674
    17 -3.131626 0.610580 -4.140396 -2.374322 1.331728 -5.740257
    18 4.972047 0.000000 0.000000 -0.583193 -1.077296 -0.595322
    19 11.585358 0.000000 0.000001 0.000000 0.000000 -1.675481
    20 10.127058 0.000000 0.000001 2.899653 -0.670176 1.114882
    21 1.537458 0.109715 1.664489 -0.264662 -0.055995 0.783079
    22 0.928313 0.000000 0.000002 0.000000 0.000000 -0.453501
    23 0.928311 0.000000 0.000001 0.000000 0.000000 0.000000
    24 2.686395 -0.427337 0.044204 -0.005762 0.043239 -0.157074
    25 1.435260 0.000000 0.000001 0.000000 0.000000 0.732613
    26 1.482593 0.000000 -0.000001 0.000000 0.000000 1.168644
    27 2.046984 0.000001 0.000000 0.146482 -0.164954 0.323844
    28 -0.000005 0.000007 3.713254 -3.281439 -0.172953 1.247410
    29 18.045723 0.000000 0.000000 0.000000 0.000000 -1.739000
    30 17.597597 0.000000 0.000000 -0.242105 0.192534 -0.159740
    31 0.000005 -0.000003 -3.713254 0.845278 2.336178 5.522220
    32 18.045721 0.000000 0.000000 0.000000 0.000000 -2.670147
    33 17.597597 0.000000 0.000000 0.382216 0.032000 0.783314
  time 2
    0 0.180658 1.445508 -20.600716 0.000000 0.000000 -1.585458
    1 -0.988315 -0.328135 0.000000 -1.570795 -1.570787 0.000000
    2 1.293670 0.684478 -0.000001 0.000872 0.016130 0.060831
    3 5.309685 -0.003834 0.000000 -0.051953 -0.039861 0.013506
    4 4.826790 -0.004591 0.000000 -0.080551 -0.052672 -0.042168
    5 5.792767 -0.005304 0.000000 -0.131256 -0.066922 -0.009610
    6 6.662322 -0.001452 0.000000 0.000000 -0.000001 0.209256
    7 -3.393353 0.665235 4.339626 0.761549 -1.507810 -4.112260
    8 4.827512 0.000000 -0.000002 0.791027 0.632468 -0.775202
    9 11.140032 0.000000 0.000000 0.000000 0.000000 -1.999975
    10 10.314563 -0.000001 0.000001 -3.311740 0.010398 1.296858
    11 1.646836 0.445664 -1.699647 0.153911 0.442352 0.277231
    12 0.928312 0.000000 0.000000 0.000000 0.000000 0.000000
    13 0.928313 0.000000 -0.000001 0.000000 0.000000 0.000000
    14 2.979373 -0.388274 -0.044205 0.001088 -0.043611 -0.043599
    15 1.435262 -0.000001 -0.000001 0.000000 0.000000 1.334445
    16 1.482593 -0.000001 0.000001 0.000000 0.000000 0.793674
    17 -3.131626 0.610580 -4.140396 3.599188 1.369008 -6.043498
    18 4.972047 0.000000 0.000000 -0.290072 -1.141013 -0.839713
    19 11.585358 0.000000 0.000001 0.000000 0.000000 -1.846028
    20 10.127058 0.000000 0.000001 2.885207 -0.279248 1.332776
    21 1.537458 0.109715 1.664489 -0.264662 -0.055995 0.783079
    22 0.928313 0.000000 0.000002 0.000000 0.000000 -0.453501
    23 0.928311 0.000000 0.000001 0.000000 0.000000 0.000000
    24 2.686395 -0.427337 0.044204 -0.005762 0.043239 -0.157074
    25 1.435260 0.000000 0.000001 0.000000 0.000000 0.732613
    26 1.482593 0.000000 -0.000001 0.000000 0.000000 1.168644
    27 2.046984 0.000001 0.000000 0.202533 -0.044167 0.183269
    28 -0.000005 0.000007 3.713254 -3.274056 -0.179281 1.245397
    29 18.045723 0.000000 0.000000 0.000000 0.000000 -1.745217
    30 17.597597 0.000000 0.000000 -0.233946 0.187858 -0.154834
    31 0.000005 -0.000003 -3.713254 0.864638 2.357268 5.548105
    32 18.045721 0.000000 0.000000 0.000000 0.000000 -2.666762
    33 17.597597 0.000000 0.000000 0.382653 0.031270 0.807655
  time 3
    0 0.145501 1.121279 -20.600716 0.000000 0.000000 -1.585458
    1 -1.273480 -0.367199 0.000000 -1.570795 -1.570787 0.000000
    2 1.293670 0.684478 -0.000001 0.001226 0.015279 0.086495
    3 5.309685 -0.003834 0.000000 -0.071063 -0.034887 0.029580
    4 4.826790 -0.004591 0.000000 -0.071491 -0.073298 -0.066576
    5 5.792767 -0.005304 0.000000 -0.115086 -0.065700 0.004903
    6 6.662322 -0.001452 0.000000 0.000000 -0.000001 0.209256
    7 -3.393353 0.665235 4.339626 0.866220 -1.470760 -4.215457
    8 4.827512 0.000000 -0.000002 0.541434 0.499612 -0.771129
    9 11.140032 0.000000 0.000000 0.000000 0.000000 -2.104380
    10 10.314563 -0.000001 0.000001 -2.994903 -0.078404 1.349406
    11 1.646836 0.445664 -1.699647 0.153911 0.442352 0.277231
    12 0.928312 0.000000 0.000000 0.000000 0.000000 0.000000
    13 0.928313 0.000000 -0.000001 0.000000 0.000000 0.000000
    14 2.979373 -0.388274 -0.044205 0.001088 -0.043611 -0.043599
    15 1.435262 -0.000001 -0.000001 0.000000 0.000000 1.334445
    16 1.482593 -0.000001 0.000001 0.000000 0.000000 0.793674
    17 -3.131626 0.610580 -4.140396 3.390260 1.388831 0.034620
    18 4.972047 0.000000 0.000000 -0.115795 -1.135148 -0.933490
    19 11.585358 0.000000 0.000001 0.000000 0.000000 -1.994277
    20 10.127058 0.000000 0.000001 2.913608 0.047377 1.440172
    21 1.537458 0.109715 1.664489 -0.264662 -0.055995 0.783079
    22 0.928313 0.000000 0.000002 0.000000 0.000000 -0.453501
    23 0.928311 0.000000 0.000001 0.000000 0.000000 0.000000
    24 2.686395 -0.427337 0.044204 -0.005762 0.043239 -0.157074
    25 1.435260 0.000000 0.000001 0.000000 0.000000 0.732613
    26 1.482593 0.000000 -0.000001 0.000000 0.000000 1.168644
    27 2.046984 0.000001 0.000000 0.209297 0.024193 0.017267
    28 -0.000005 0.000007 3.713254 -3.271276 -0.181773 1.244630
    29 18.045723 0.000000 0.000000 0.000000 0.000000 -1.747586
    30 17.597597 0.000000 0.000000 -0.230880 0.186086 -0.152909
    31 0.000005 -0.000003 -3.713254 0.871251 2.365225 5.557596
    32 18.045721 0.000000 0.000000 0.000000 0.000000 -2.665188
    33 17.597597 0.000000 0.000000 0.382586 0.031231 0.816662
  time 4
    0 0.114250 0.808769 -20.600716 0.000000 0.000000 -1.585458
    1 -1.625054 -0.328135 0.000000 -1.570795 -1.570787 0.000000
    2 1.293670 0.684478 -0.000001 0.001428 0.013889 0.112159
    3 5.309685 -0.003834 0.000000 -0.093253 -0.027133 0.045548
    4 4.826790 -0.004591 0.000000 -0.061133 -0.070889 -0.066289
    5 5.792767 -0.005304 0.000000 -0.098645 -0.054542 0.019583
    6 6.662322 -0.001452 0.000000 0.000000 -0.000001 0.209256
    7 -3.393353 0.665235 4.339626 0.914914 -1.433207 -4.262024
    8 4.827512 0.000000 -0.000002 0.345649 0.470363 -0.799724
    9 11.140032 0.000000 0.000000 0.000000 0.000000 -2.127855
    10 10.314563 -0.000001 0.000001 -2.802602 -0.101072 1.406598
    11 1.646836 0.445664 -1.699647 0.153911 0.442352 0.277231
    12 0.928312 0.000000 0.000000 0.000000 0.000000 0.000000
    13 0.928313 0.000000 -0.000001 0.000000 0.000000 0.000000
    14 2.979373 -0.388274 -0.044205 0.001088 -0.043611 -0.043599
    15 1.435262 -0.000001 -0.000001 0.000000 0.000000 1.334445
    16 1.482593 -0.000001 0.000001 0.000000 0.000000 0.793674
    17 -3.131626 0.610580 -4.140396 3.370867 1.398348 0.015943
    18 4.972047 0.000000 0.000000 -0.038692 -1.088625 -0.940811
    19 11.585358 0.000000 0.000001 0.000000 0.000000 -2.052760
    20 10.127058 0.000000 0.000001 2.918376 0.169648 1.449176
    21 1.537458 0.109715 1.664489 -0.264662 -0.055995 0.783079
    22 0.928313 0.000000 0.000002 0.000000 0.000000 -0.453501
    23 0.928311 0.000000 0.000001 0.000000 0.000000 0.000000
    24 2.686395 -0.427337 0.044204 -0.005762 0.043239 -0.157074
    25 1.435260 0.000000 0.000001 0.000000 0.000000 0.732613
    26 1.482593 0.000000 -0.000001 0.000000 0.000000 1.168644
    27 2.046984 0.000001 0.000000 0.199000 0.061810 -0.180183
    28 -0.000005 0.000007 3.713254 -3.272235 -0.180911 1.245013
    29 18.045723 0.000000 0.000000 0.000000 0.000000 -1.745587
    30 17.597597 0.000000 0.000000 -0.231893 0.186677 -0.154559
    31 0.000005 -0.000003 -3.713254 0.870293 2.362349 5.553090
    32 18.045721 0.000000 0.000000 0.000000 0.000000 -2.665739
    33 17.597597 0.000000 0.000000 0.383760 0.029416 0.812921
  time 5
    0 0.082999 0.484541 -20.600716 0.000000 0.000000 -1.585458
    1 -2.046941 -0.187506 0.000000 -1.570795 -1.570787 0.000000
    2 1.293670 0.684478 -0.000001 0.001445 0.011972 0.137807
    3 5.309685 -0.003834 0.000000 -0.133227 -0.009743 0.069765
    4 4.826790 -0.004591 0.000000 -0.050337 -0.060247 -0.057007
    5 5.792767 -0.005304 0.000000 -0.081826 -0.037356 0.034096
    6 6.662322 -0.001452 0.000000 0.000000 -0.000001 0.209256
    7 -3.393353 0.665235 4.339626 0.943574 -1.395536 -4.287799
    8 4.827512 0.000000 -0.000002 0.017215 0.477100 -0.978917
    9 11.140032 0.000000 0.000000 0.000000 0.000000 -2.186615
    10 10.314563 -0.000001 0.000001 0.696444 -2.842671 -1.551031
    11 1.646836 0.445664 -1.699647 0.153911 0.442352 0.277231
    12 0.928312 0.000000 0.000000 0.000000 0.000000 0.000000
    13 0.928313 0.000000 -0.000001 0.000000 0.000000 0.000000
    14 2.979373 -0.388274 -0.044205 0.001088 -0.043611 -0.043599
    15 1.435262 -0.000001 -0.000001 0.000000 0.000000 1.334445
    16 1.482593 -0.000001 0.000001 0.000000 0.000000 0.793674
    17 -3.131626 0.610580 -4.140396 3.644088 1.424454 -5.995129
    18 4.972047 0.000000 0.000000 -0.018150 -1.027479 -0.791793
    19 11.585358 0.000000 0.000001 0.000000 0.000000 -2.180344
    20 10.127058 0.000000 0.000001 2.849865 0.384687 1.308065
    21 1.537458 0.109715 1.664489 -0.264662 -0.055995 0.783079
    22 0.928313 0.000000 0.000002 0.000000 0.000000 -0.453501
    23 0.928311 0.000000 0.000001 0.000000 0.000000 0.000000
    24 2.686395 -0.427337 0.044204 -0.005762 0.043239 -0.157074
    25 1.435260 0.000000 0.000001 0.000000 0.000000 0.732613
    26 1.482593 0.000000 -0.000001 0.000000 0.000000 1.168644
    27 2.046984 0.000001 0.000000 0.204170 0.078863 -0.399105
    28 -0.000005 0.000007 3.713254 -3.276357 -0.177459 1.246547
    29 18.045723 0.000000 0.000000 0.000000 0.000000 -1.739000
    30 17.597597 0.000000 0.000000 -0.236378 0.189261 -0.160061
    31 0.000005 -0.000003 -3.713254 0.862721 2.350174 5.535354
    32 18.045721 0.000000 0.000000 0.000000 0.000000 -2.667392
    33 17.597597 0.000000 0.000000 0.386779 0.025136 0.797263
  time 6
    0 0.051748 0.164219 -20.600716 0.000000 0.000000 -1.585458
    1 -2.468829 -0.019532 0.000000 -1.570795 -1.570787 0.000000
    2 1.293670 0.684478 -0.000001 0.001344 0.009730 0.163454
    3 5.309685 -0.003834 0.000000 -0.173081 0.009720 0.091544
    4 4.826790 -0.004591 0.000000 -0.039160 -0.044487 -0.041749
    5 5.792767 -0.005304 0.000000 -0.064810 -0.018061 0.047841
    6 6.662322 -0.001452 0.000000 0.000000 -0.000001 0.209256
    7 -3.393353 0.665235 4.339626 0.963128 -1.357924 -4.303801
    8 4.827512 0.000000 -0.000002 -0.198898 0.498333 -1.256285
    9 11.140032 0.000000 0.000000 0.000000 0.000000 -2.223928
    10 10.314563 -0.000001 0.000001 0.999634 -2.425736 -1.405118
    11 1.646836 0.445664 -1.699647 0.153911 0.442352 0.277231
    12 0.928312 0.000000 0.000000 0.000000 0.000000 0.000000
    13 0.928313 0.000000 -0.000001 0.000000 0.000000 0.000000
    14 2.979373 -0.388274 -0.044205 0.001088 -0.043611 -0.043599
    15 1.435262 -0.000001 -0.000001 0.000000 0.000000 1.334445
    16 1.482593 -0.000001 0.000001 0.000000 0.000000 0.793674
    17 -3.131626 0.610580 -4.140396 -2.006716 1.411414 -5.363362
    18 4.972047 0.000000 0.000000 -0.006801 -0.958540 -0.571562
    19 11.585358 0.000000 0.000001 0.000000 0.000000 -2.298534
    20 10.127058 0.000000 0.000001 2.658987 0.519157 0.986827
    21 1.537458 0.109715 1.664489 -0.264662 -0.055995 0.783079
    22 0.928313 0.000000 0.000002 0.000000 0.000000 -0.453501
    23 0.928311 0.000000 0.000001 0.000000 0.000000 0.000000
    24 2.686395 -0.427337 0.044204 -0.005762 0.043239 -0.157074
    25 1.435260 0.000000 0.000001 0.000000 0.000000 0.732613
    26 1.482593 0.000000 -0.000001 0.000000 0.000000 1.168644
    27 2.046984 0.000001 0.000000 0.217267 0.090222 -0.619914
    28 -0.000005 0.000007 3.713254 -3.281535 -0.172857 1.248273
    29 18.045723 0.000000 0.000000 0.000000 0.000000 -1.732783
    30 17.597597 0.000000 0.000000 -0.242054 0.192534 -0.165104
    31 0.000005 -0.000003 -3.713254 0.850357 2.335123 5.514742
    32 18.045721 0.000000 0.000000 0.000000 0.000000 -2.669596
    33 17.597597 0.000000 0.000000 0.388491 0.023065 0.778787
  time 7
    0 0.012684 -0.148291 -20.600716 0.000000 0.000000 -1.585458
    1 -2.859466 0.144536 0.000000 -1.570795 -1.570787 0.000000
    2 1.293670 0.684478 -0.000001 0.001108 0.007346 0.189118
    3 5.309685 -0.003834 0.000000 -0.208000 0.028008 0.109508
    4 4.826790 -0.004591 0.000000 -0.027639 -0.026690 -0.023714
    5 5.792767 -0.005304 0.000000 -0.047632 -0.000503 0.060174
    6 6.662322 -0.001452 0.000000 0.000000 -0.000001 0.209256
    7 -3.393353 0.665235 4.339626 0.977506 -1.320223 -4.314245
    8 4.827512 0.000000 -0.000002 -0.236524 0.473092 -1.416675
    9 11.140032 0.000000 0.000000 0.000000 0.000000 -2.212481
    10 10.314563 -0.000001 0.000001 -1.721963 -1.099337 1.440623
    11 1.646836 0.445664 -1.699647 0.153911 0.442352 0.277231
    12 0.928312 0.000000 0.000000 0.000000 0.000000 0.000000
    13 0.928313 0.000000 -0.000001 0.000000 0.000000 0.000000
    14 2.979373 -0.388274 -0.044205 0.001088 -0.043611 -0.043599
    15 1.435262 -0.000001 -0.000001 0.000000 0.000000 1.334445
    16 1.482593 -0.000001 0.000001 0.000000 0.000000 0.793674
    17 -3.131626 0.610580 -4.140396 -1.581312 1.344505 -4.933213
    18 4.972047 0.000000 0.000000 0.108853 -0.888475 -0.448634
    19 11.585358 0.000000 0.000001 0.000000 0.000000 -2.388219
    20 10.127058 0.000000 0.000001 2.412081 0.615045 0.642629
    21 1.537458 0.109715 1.664489 -0.264662 -0.055995 0.783079
    22 0.928313 0.000000 0.000002 0.000000 0.000000 -0.453501
    23 0.928311 0.000000 0.000001 0.000000 0.000000 0.000000
    24 2.686395 -0.427337 0.044204 -0.005762 0.043239 -0.157074
    25 1.435260 0.000000 0.000001 0.000000 0.000000 0.732613
    26 1.482593 0.000000 -0.000001 0.000000 0.000000 1.168644
    27 2.046984 0.000001 0.000000 0.235879 0.087419 -0.751912
    28 -0.000005 0.000007 3.713254 -3.286616 -0.168447 1.249710
    29 18.045723 0.000000 0.000000 0.000000 0.000000 -1.728268
    30 17.597597 0.000000 0.000000 -0.247680 0.195709 -0.168634
    31 0.000005 -0.000003 -3.713254 0.836077 2.320647 5.495760
    32 18.045721 0.000000 0.000000 0.000000 0.000000 -2.671879
    33 17.597597 0.000000 0.000000 0.388524 0.023420 0.761513
  time 8
    0 -0.018567 -0.460801 -20.600716 0.000000 0.000000 -1.585458
    1 -3.218852 0.281259 0.000000 -1.570795 -1.570787 0.000000
    2 1.293670 0.684478 -0.000001 0.000788 0.004853 0.214782
    3 5.309685 -0.003834 0.000000 -0.234461 0.042366 0.122897
    4 4.826790 -0.004591 0.000000 -0.016099 -0.009815 -0.006053
    5 5.792767 -0.005304 0.000000 -0.030597 0.011337 0.070265
    6 6.662322 -0.001452 0.000000 0.000000 -0.000001 0.209256
    7 -3.393353 0.665235 4.339626 0.989296 -1.282611 -4.321240
    8 4.827512 0.000000 -0.000002 -0.305160 0.389097 -1.366764
    9 11.140032 0.000000 0.000000 0.000000 0.000000 -2.159445
    10 10.314563 -0.000001 0.000001 -0.972377 -0.918644 0.463882
    11 1.646836 0.445664 -1.699647 0.153911 0.442352 0.277231
    12 0.928312 0.000000 0.000000 0.000000 0.000000 0.000000
    13 0.928313 0.000000 -0.000001 0.000000 0.000000 0.000000
    14 2.979373 -0.388274 -0.044205 0.001088 -0.043611 -0.043599
    15 1.435262 -0.000001 -0.000001 0.000000 0.000000 1.334445
    16 1.482593 -0.000001 0.000001 0.000000 0.000000 0.793674
    17 -3.131626 0.610580 -4.140396 -1.350316 1.239738 -4.689740
    18 4.972047 0.000000 0.000000 0.406851 -0.804108 -0.511928
    19 11.585358 0.000000 0.000001 0.000000 0.000000 -2.407495
    20 10.127058 0.000000 0.000001 2.067983 0.758404 0.287726
    21 1.537458 0.109715 1.664489 -0.264662 -0.055995 0.783079
    22 0.928313 0.000000 0.000002 0.000000 0.000000 -0.453501
    23 0.928311 0.000000 0.000001 0.000000 0.000000 0.000000
    24 2.686395 -0.427337 0.044204 -0.005762 0.043239 -0.157074
    25 1.435260 0.000000 0.000001 0.000000 0.000000 0.732613
    26 1.482593 0.000000 -0.000001 0.000000 0.000000 1.168644
    27 2.046984 0.000001 0.000000 0.249192 0.091461 -0.873509
    28 -0.000005 0.000007 3.713254 -3.290355 -0.164995 1.250669
    29 18.045723 0.000000 0.000000 0.000000 0.000000 -1.726121
    30 17.597597 0.000000 0.000000 -0.252013 0.198145 -0.170239
    31 0.000005 -0.000003 -3.713254 0.823809 2.309910 5.482434
    32 18.045721 0.000000 0.000000 0.000000 0.000000 -2.673532
    33 17.597597 0.000000 0.000000 0.387081 0.025708 0.749089
  time 9
    0 -0.049818 -0.781123 -20.600716 0.000000 0.000000 -1.585458
    1 -3.515736 0.359386 0.000000 -1.570795 -1.570787 0.000000
    2 1.293670 0.684478 -0.000001 0.000367 0.002372 0.240446
    3 5.309685 -0.003834 0.000000 -0.250729 0.051306 0.131146
    4 4.826790 -0.004591 0.000000 -0.005036 0.003140 0.007837
    5 5.792767 -0.005304 0.000000 -0.014984 0.008976 0.067026
    6 6.662322 -0.001452 0.000000 0.000000 -0.000001 0.209256
    7 -3.393353 0.665235 4.339626 0.999264 -1.245088 -4.326031
    8 4.827512 0.000000 -0.000002 -0.420431 0.294358 -1.325259
    9 11.140032 0.000000 0.000000 0.000000 0.000000 -2.051055
    10 10.314563 -0.000001 0.000001 -0.939869 -0.560722 0.062897
    11 1.646836 0.445664 -1.699647 0.153911 0.442352 0.277231
    12 0.928312 0.000000 0.000000 0.000000 0.000000 0.000000
    13 0.928313 0.000000 -0.000001 0.000000 0.000000 0.000000
    14 2.979373 -0.388274 -0.044205 0.001088 -0.043611 -0.043599
    15 1.435262 -0.000001 -0.000001 0.000000 0.000000 1.334445
    16 1.482593 -0.000001 0.000001 0.000000 0.000000 0.793674
    17 -3.131626 0.610580 -4.140396 -1.254211 1.137520 -4.576049
    18 4.972047 0.000000 0.000000 0.668455 -0.716848 -0.587868
    19 11.585358 0.000000 0.000001 0.000000 0.000000 -2.398592
    20 10.127058 0.000000 0.000001 1.716521 0.812117 -0.042416
    21 1.537458 0.109715 1.664489 -0.264662 -0.055995 0.783079
    22 0.928313 0.000000 0.000002 0.000000 0.000000 -0.453501
    23 0.928311 0.000000 0.000001 0.000000 0.000000 0.000000
    24 2.686395 -0.427337 0.044204 -0.005762 0.043239 -0.157074
    25 1.435260 0.000000 0.000001 0.000000 0.000000 0.732613
    26 1.482593 0.000000 -0.000001 0.000000 0.000000 1.168644
    27 2.046984 0.000001 0.000000 0.245874 0.108573 -0.971504
    28 -0.000005 0.000007 3.713254 -3.291793 -0.163653 1.250765
    29 18.045723 0.000000 0.000000 0.000000 0.000000 -1.727454
    30 17.597597 0.000000 0.000000 -0.253711 0.199129 -0.169001
    31 0.000005 -0.000003 -3.713254 0.817100 2.305980 5.479750
    32 18.045721 0.000000 0.000000 0.000000 0.000000 -2.674319
    33 17.597597 0.000000 0.000000 0.384196 0.029554 0.745671
  time 10
    0 -0.081068 -1.105351 -20.600716 0.000000 0.000000 -1.585458
    1 -3.750118 0.328135 0.000000 -1.570795 -1.570787 0.000000
    2 1.293670 0.684478 -0.000001 -0.000004 -0.000001 0.266110
    3 5.309685 -0.003834 0.000000 -0.256192 0.054338 0.133937
    4 4.826790 -0.004591 0.000000 0.000000 0.000000 0.007484
    5 5.792767 -0.005304 0.000000 0.000000 0.000000 0.055731
    6 6.662322 -0.001452 0.000000 0.000000 -0.000001 0.209256
    7 -3.393353 0.665235 4.339626 1.008275 -1.207595 -4.328810
    8 4.827512 0.000000 -0.000002 -0.472008 0.253512 -1.310355
    9 11.140032 0.000000 0.000000 0.000000 0.000000 -1.932956
    10 10.314563 -0.000001 0.000001 -1.068291 -0.403165 -0.135215
    11 1.646836 0.445664 -1.699647 0.153911 0.442352 0.277231
    12 0.928312 0.000000 0.000000 0.000000 0.000000 0.000000
    13 0.928313 0.000000 -0.000001 0.000000 0.000000 0.000000
    14 2.979373 -0.388274 -0.044205 0.001088 -0.043611 -0.043599
    15 1.435262 -0.000001 -0.000001 0.000000 0.000000 1.334445
    16 1.482593 -0.000001 0.000001 0.000000 0.000000 0.793674
    17 -3.131626 0.610580 -4.140396 -1.212846 1.046082 -4.514462
    18 4.972047 0.000000 0.000000 0.838230 -0.709215 -0.588666
    19 11.585358 0.000000 0.000001 0.000000 0.000000 -2.415418
    20 10.127058 0.000000 0.000001 1.510287 0.765213 -0.200784
    21 1.537458 0.109715 1.664489 -0.264662 -0.055995 0.783079
    22 0.928313 0.000000 0.000002 0.000000 0.000000 -0.453501
    23 0.928311 0.000000 0.000001 0.000000 0.000000 0.000000
    24 2.686395 -0.427337 0.044204 -0.005762 0.043239 -0.157074
    25 1.435260 0.000000 0.000001 0.000000 0.000000 0.732613
    26 1.482593 0.000000 -0.000001 0.000000 0.000000 1.168644
    27 2.046984 0.000001 0.000000 0.221188 0.141174 -1.043099
    28 -0.000005 0.000007 3.713254 -3.289492 -0.165667 1.249615
    29 18.045723 0.000000 0.000000 0.000000 0.000000 -1.732931
    30 17.597597 0.000000 0.000000 -0.251303 0.197727 -0.164416
    31 0.000005 -0.000003 -3.713254 0.821030 2.312882 5.492692
    32 18.045721 0.000000 0.000000 0.000000 0.000000 -2.673768
    33 17.597597 0.000000 0.000000 0.380640 0.034308 0.755924
end
