version 1
nodes
  0 "Bip01" -1
  1 "Bip01 Pelvis" 0
  2 "Bip01 Spine" 1
  3 "Bip01 Spine1" 2
  4 "Bip01 Spine2" 3
  5 "Bip01 Spine3" 4
  6 "Bip01 Neck" 5
  7 "Bip01 L Arm" 6
  8 "Bip01 L Arm1" 7
  9 "Bip01 L Arm2" 8
  10 "Bip01 L Hand" 9
  11 "Bip01 L Finger0" 10
  12 "Bip01 L Finger01" 11
  13 "Bip01 L Finger02" 12
  14 "Bip01 L Finger1" 10
  15 "Bip01 L Finger11" 14
  16 "Bip01 L Finger12" 15
  17 "Bip01 R Arm" 6
  18 "Bip01 R Arm1" 17
  19 "Bip01 R Arm2" 18
  20 "Bip01 R Hand" 19
  21 "Bip01 R Finger0" 20
  22 "Bip01 R Finger01" 21
  23 "Bip01 R Finger02" 22
  24 "Bip01 R Finger1" 20
  25 "Bip01 R Finger11" 24
  26 "Bip01 R Finger12" 25
  27 "Bip01 Head" 6
  28 "Bip01 L Leg" 1
  29 "Bip01 L Leg1" 28
  30 "Bip01 L Foot" 29
  31 "Bip01 R Leg" 1
  32 "Bip01 R Leg1" 31
  33 "Bip01 R Foot" 32
end
skeleton
  time 0
    0 -0.846717 1.761924 -20.600716 0.000000 0.000000 -1.585458
    1 -0.871124 0.175787 0.000000 -1.570795 -1.570787 0.000000
    2 1.293670 0.684478 -0.000001 -0.148018 -0.055993 0.076769
    3 5.309685 -0.003834 0.000000 -0.012678 0.060642 -0.043883
    4 4.826790 -0.004591 0.000000 -0.088448 -0.029470 0.054072
    5 5.792767 -0.005304 0.000000 0.031371 0.122255 0.028469
    6 6.662322 -0.001452 0.000000 0.045326 0.081914 0.160866
    7 -3.108188 1.516823 4.339626 1.238993 -1.024532 -4.799756
    8 4.827512 0.000000 -0.000002 -0.424736 -0.403692 -1.073019
    9 11.140032 0.000000 0.000000 0.070821 -0.093846 -0.610682
    10 10.314563 -0.000001 0.000001 -3.988822 0.203081 -0.504208
    11 1.646836 0.445664 -1.699647 -0.161704 0.581044 -0.283978
    12 0.928312 0.000000 0.000000 0.000000 0.000000 0.000000
    13 0.928313 0.000000 -0.000001 0.000000 0.000000 0.000000
    14 2.979373 -0.388274 -0.044205 -0.000805 -0.043611 0.000046
    15 1.435262 -0.000001 -0.000001 0.000000 0.000000 0.872146
    16 1.482593 -0.000001 0.000001 0.000000 0.000000 0.907041
    17 -2.869899 1.399667 -4.140396 -1.163265 1.764468 -4.903713
    18 4.972047 0.000000 0.000000 1.165869 -0.470417 -1.787994
    19 11.585358 0.000000 0.000001 0.386603 -0.382733 -1.488597
    20 10.127058 0.000000 0.000001 1.825564 0.689183 0.510722
    21 1.537458 0.109715 1.664489 -0.264662 -0.055995 0.783079
    22 0.928313 0.000000 0.000002 0.000000 0.000000 -0.453501
    23 0.928311 0.000000 0.000001 0.000000 0.000000 0.000000
    24 2.686395 -0.427337 0.044204 -0.005762 0.043239 -0.157074
    25 1.435260 0.000000 0.000001 0.000000 0.000000 0.732613
    26 1.482593 0.000000 -0.000001 0.000000 0.000000 1.168644
    27 2.046984 0.000001 0.000000 0.299039 0.451167 -0.503001
    28 -0.000005 0.000007 3.713254 -3.289300 -0.165475 1.249615
    29 18.045723 0.000000 0.000000 0.000000 0.000000 -1.732931
    30 17.597597 0.000000 0.000000 -0.251405 0.197505 -0.164508
    31 0.000005 -0.000003 -3.713254 0.821892 2.312307 5.493555
    32 18.045721 0.000000 0.000000 0.000000 0.000000 -2.673768
    33 17.597597 0.000000 0.000000 0.379969 0.033854 0.755924
  time 1
    0 -0.846717 1.761924 -20.600716 0.000000 0.000000 -1.585458
    1 -0.847686 0.156255 0.000000 -1.570795 -1.570787 0.000000
    2 1.293670 0.684478 -0.000001 -0.148018 -0.055993 0.076769
    3 5.309685 -0.003834 0.000000 -0.013171 0.062284 -0.038266
    4 4.826790 -0.004591 0.000000 -0.087303 -0.031496 0.039609
    5 5.792767 -0.005304 0.000000 0.030993 0.119211 0.011319
    6 6.662322 -0.001452 0.000000 0.045326 0.081914 0.160866
    7 -3.108188 1.516823 4.339626 1.238993 -1.024532 -4.799756
    8 4.827512 0.000000 -0.000002 -0.424736 -0.403692 -1.073019
    9 11.140032 0.000000 0.000000 0.070821 -0.093846 -0.610682
    10 10.314563 -0.000001 0.000001 -3.429074 0.321296 -0.579574
    11 1.646836 0.445664 -1.699647 -0.161704 0.581044 -0.283978
    12 0.928312 0.000000 0.000000 0.000000 0.000000 0.000000
    13 0.928313 0.000000 -0.000001 0.000000 0.000000 0.000000
    14 2.979373 -0.388274 -0.044205 -0.000805 -0.043611 0.000046
    15 1.435262 -0.000001 -0.000001 0.000000 0.000000 0.872146
    16 1.482593 -0.000001 0.000001 0.000000 0.000000 0.907041
    17 -2.869899 1.399667 -4.140396 -1.163265 1.764468 -4.903713
    18 4.972047 0.000000 0.000000 1.165869 -0.470417 -1.787994
    19 11.585358 0.000000 0.000001 0.386603 -0.382733 -1.488597
    20 10.127058 0.000000 0.000001 1.825564 0.689183 0.510722
    21 1.537458 0.109715 1.664489 -0.264662 -0.055995 0.783079
    22 0.928313 0.000000 0.000002 0.000000 0.000000 -0.453501
    23 0.928311 0.000000 0.000001 0.000000 0.000000 0.000000
    24 2.686395 -0.427337 0.044204 -0.005762 0.043239 -0.157074
    25 1.435260 0.000000 0.000001 0.000000 0.000000 0.732613
    26 1.482593 0.000000 -0.000001 0.000000 0.000000 1.168644
    27 2.046984 0.000001 0.000000 0.299039 0.451167 -0.503001
    28 -0.000005 0.000007 3.713254 -3.288629 -0.166050 1.249231
    29 18.045723 0.000000 0.000000 0.000000 0.000000 -1.734411
    30 17.597597 0.000000 0.000000 -0.250721 0.197136 -0.163224
    31 0.000005 -0.000003 -3.713254 0.823042 2.314224 5.497198
    32 18.045721 0.000000 0.000000 0.000000 0.000000 -2.673532
    33 17.597597 0.000000 0.000000 0.378996 0.035136 0.758834
  time 2
    0 -0.846717 1.761924 -20.600716 0.000000 0.000000 -1.585458
    1 -0.820342 0.136723 0.000000 -1.570795 -1.570787 0.000000
    2 1.293670 0.684478 -0.000001 -0.148018 -0.055993 0.076769
    3 5.309685 -0.003834 0.000000 -0.013699 0.064022 -0.032260
    4 4.826790 -0.004591 0.000000 -0.086063 -0.033641 0.024131
    5 5.792767 -0.005304 0.000000 0.030669 0.115999 -0.006516
    6 6.662322 -0.001452 0.000000 0.045326 0.081914 0.160866
    7 -3.108188 1.516823 4.339626 1.238993 -1.024532 -4.799756
    8 4.827512 0.000000 -0.000002 -0.424736 -0.403692 -1.073019
    9 11.140032 0.000000 0.000000 0.070821 -0.093846 -0.610682
    10 10.314563 -0.000001 0.000001 -2.850938 0.439604 -0.654882
    11 1.646836 0.445664 -1.699647 -0.161704 0.581044 -0.283978
    12 0.928312 0.000000 0.000000 0.000000 0.000000 0.000000
    13 0.928313 0.000000 -0.000001 0.000000 0.000000 0.000000
    14 2.979373 -0.388274 -0.044205 -0.000805 -0.043611 0.000046
    15 1.435262 -0.000001 -0.000001 0.000000 0.000000 0.872146
    16 1.482593 -0.000001 0.000001 0.000000 0.000000 0.907041
    17 -2.869899 1.399667 -4.140396 -1.163265 1.764468 -4.903713
    18 4.972047 0.000000 0.000000 1.165869 -0.470417 -1.787994
    19 11.585358 0.000000 0.000001 0.386603 -0.382733 -1.488597
    20 10.127058 0.000000 0.000001 1.825564 0.689183 0.510722
    21 1.537458 0.109715 1.664489 -0.264662 -0.055995 0.783079
    22 0.928313 0.000000 0.000002 0.000000 0.000000 -0.453501
    23 0.928311 0.000000 0.000001 0.000000 0.000000 0.000000
    24 2.686395 -0.427337 0.044204 -0.005762 0.043239 -0.157074
    25 1.435260 0.000000 0.000001 0.000000 0.000000 0.732613
    26 1.482593 0.000000 -0.000001 0.000000 0.000000 1.168644
    27 2.046984 0.000001 0.000000 0.299039 0.451167 -0.503001
    28 -0.000005 0.000007 3.713254 -3.287958 -0.166625 1.248944
    29 18.045723 0.000000 0.000000 0.000000 0.000000 -1.736039
    30 17.597597 0.000000 0.000000 -0.250011 0.196668 -0.161803
    31 0.000005 -0.000003 -3.713254 0.824193 2.316333 5.501129
    32 18.045721 0.000000 0.000000 0.000000 0.000000 -2.673217
    33 17.597597 0.000000 0.000000 0.377922 0.036556 0.761929
  time 3
    0 -0.846717 1.761924 -20.600716 0.000000 0.000000 -1.585458
    1 -0.796903 0.125004 0.000000 -1.570795 -1.570787 0.000000
    2 1.293670 0.684478 -0.000001 -0.148018 -0.055993 0.076769
    3 5.309685 -0.003834 0.000000 -0.014243 0.065759 -0.026237
    4 4.826790 -0.004591 0.000000 -0.084881 -0.035678 0.009116
    5 5.792767 -0.005304 0.000000 0.030399 0.112859 -0.024019
    6 6.662322 -0.001452 0.000000 0.047627 0.085281 0.202734
    7 -3.108188 1.516823 4.339626 1.238993 -1.024532 -4.799756
    8 4.827512 0.000000 -0.000002 -0.418358 -0.373335 -1.071806
    9 11.140032 0.000000 0.000000 0.070821 -0.092123 -0.598220
    10 10.314563 -0.000001 0.000001 -2.815776 0.434827 -0.642631
    11 1.646836 0.445664 -1.699647 -0.161704 0.581044 -0.283978
    12 0.928312 0.000000 0.000000 0.000000 0.000000 0.000000
    13 0.928313 0.000000 -0.000001 0.000000 0.000000 0.000000
    14 2.979373 -0.388274 -0.044205 -0.000805 -0.043611 0.000046
    15 1.435262 -0.000001 -0.000001 0.000000 0.000000 0.872146
    16 1.482593 -0.000001 0.000001 0.000000 0.000000 0.907041
    17 -2.869899 1.399667 -4.140396 -1.163265 1.764468 -4.903713
    18 4.972047 0.000000 0.000000 1.165869 -0.470417 -1.787994
    19 11.585358 0.000000 0.000001 0.386603 -0.382733 -1.488597
    20 10.127058 0.000000 0.000001 1.825564 0.689183 0.510722
    21 1.537458 0.109715 1.664489 -0.264662 -0.055995 0.783079
    22 0.928313 0.000000 0.000002 0.000000 0.000000 -0.453501
    23 0.928311 0.000000 0.000001 0.000000 0.000000 0.000000
    24 2.686395 -0.427337 0.044204 -0.005762 0.043239 -0.157074
    25 1.435260 0.000000 0.000001 0.000000 0.000000 0.732613
    26 1.482593 0.000000 -0.000001 0.000000 0.000000 1.168644
    27 2.046984 0.000001 0.000000 0.299039 0.451167 -0.503001
    28 -0.000005 0.000007 3.713254 -3.287287 -0.167201 1.248560
    29 18.045723 0.000000 0.000000 0.000000 0.000000 -1.737668
    30 17.597597 0.000000 0.000000 -0.249302 0.196275 -0.160474
    31 0.000005 -0.000003 -3.713254 0.825343 2.318346 5.504868
    32 18.045721 0.000000 0.000000 0.000000 0.000000 -2.673217
    33 17.597597 0.000000 0.000000 0.376915 0.037917 0.764839
  time 4
    0 -0.846717 1.761924 -20.600716 0.000000 0.000000 -1.585458
    1 -0.777371 0.113285 0.000000 -1.570795 -1.570787 0.000000
    2 1.293670 0.684478 -0.000001 -0.148018 -0.055993 0.076769
    3 5.309685 -0.003834 0.000000 -0.014737 0.067389 -0.020620
    4 4.826790 -0.004591 0.000000 -0.083813 -0.037440 -0.003694
    5 5.792767 -0.005304 0.000000 0.030237 0.110019 -0.040214
    6 6.662322 -0.001452 0.000000 0.050096 0.088538 0.244687
    7 -3.108188 1.516823 4.339626 1.238993 -1.024532 -4.799756
    8 4.827512 0.000000 -0.000002 -0.406879 -0.315519 -1.087837
    9 11.140032 0.000000 0.000000 0.070821 -0.083610 -0.536707
    10 10.314563 -0.000001 0.000001 -2.784026 0.421900 -0.609767
    11 1.646836 0.445664 -1.699647 -0.161704 0.581044 -0.283978
    12 0.928312 0.000000 0.000000 0.000000 0.000000 0.000000
    13 0.928313 0.000000 -0.000001 0.000000 0.000000 0.000000
    14 2.979373 -0.388274 -0.044205 -0.000805 -0.043611 0.000046
    15 1.435262 -0.000001 -0.000001 0.000000 0.000000 0.872146
    16 1.482593 -0.000001 0.000001 0.000000 0.000000 0.907041
    17 -2.869899 1.399667 -4.140396 -1.163265 1.764468 -4.903713
    18 4.972047 0.000000 0.000000 1.164462 -0.470417 -1.780806
    19 11.585358 0.000000 0.000001 0.386603 -0.382938 -1.501421
    20 10.127058 0.000000 0.000001 1.825564 0.689183 0.510722
    21 1.537458 0.109715 1.664489 -0.264662 -0.055995 0.783079
    22 0.928313 0.000000 0.000002 0.000000 0.000000 -0.453501
    23 0.928311 0.000000 0.000001 0.000000 0.000000 0.000000
    24 2.686395 -0.427337 0.044204 -0.005762 0.043239 -0.157074
    25 1.435260 0.000000 0.000001 0.000000 0.000000 0.732613
    26 1.482593 0.000000 -0.000001 0.000000 0.000000 1.168644
    27 2.046984 0.000001 0.000000 0.299039 0.451167 -0.503001
    28 -0.000005 0.000007 3.713254 -3.286808 -0.167680 1.248368
    29 18.045723 0.000000 0.000000 0.000000 0.000000 -1.738926
    30 17.597597 0.000000 0.000000 -0.248769 0.195930 -0.159419
    31 0.000005 -0.000003 -3.713254 0.826205 2.319976 5.507840
    32 18.045721 0.000000 0.000000 0.000000 0.000000 -2.672981
    33 17.597597 0.000000 0.000000 0.376077 0.039002 0.767240
  time 5
    0 -0.846717 1.761924 -20.600716 0.000000 0.000000 -1.585458
    1 -0.765652 0.105472 0.000000 -1.570795 -1.570787 0.000000
    2 1.293670 0.684478 -0.000001 -0.148018 -0.055993 0.076769
    3 5.309685 -0.003834 0.000000 -0.015111 0.068804 -0.015816
    4 4.826790 -0.004591 0.000000 -0.082992 -0.038650 -0.012800
    5 5.792767 -0.005304 0.000000 0.030129 0.107718 -0.054271
    6 6.662322 -0.001452 0.000000 0.052684 0.091754 0.286640
    7 -3.108188 1.516823 4.339626 1.238993 -1.024532 -4.799756
    8 4.827512 0.000000 -0.000002 -0.405524 -0.276976 -1.148232
    9 11.140032 0.000000 0.000000 0.070821 -0.060442 -0.378903
    10 10.314563 -0.000001 0.000001 -2.755688 0.403165 -0.562213
    11 1.646836 0.445664 -1.699647 -0.161704 0.581044 -0.283978
    12 0.928312 0.000000 0.000000 0.000000 0.000000 0.000000
    13 0.928313 0.000000 -0.000001 0.000000 0.000000 0.000000
    14 2.979373 -0.388274 -0.044205 -0.000805 -0.043611 0.000046
    15 1.435262 -0.000001 -0.000001 0.000000 0.000000 0.872146
    16 1.482593 -0.000001 0.000001 0.000000 0.000000 0.907041
    17 -2.869899 1.399667 -4.140396 -1.163265 1.764468 -4.903713
    18 4.972047 0.000000 0.000000 1.216238 -0.396977 -1.812087
    19 11.585358 0.000000 0.000001 0.386603 -0.379920 -1.433137
    20 10.127058 0.000000 0.000001 1.825564 0.689183 0.510722
    21 1.537458 0.109715 1.664489 -0.264662 -0.055995 0.783079
    22 0.928313 0.000000 0.000002 0.000000 0.000000 -0.453501
    23 0.928311 0.000000 0.000001 0.000000 0.000000 0.000000
    24 2.686395 -0.427337 0.044204 -0.005762 0.043239 -0.157074
    25 1.435260 0.000000 0.000001 0.000000 0.000000 0.732613
    26 1.482593 0.000000 -0.000001 0.000000 0.000000 1.168644
    27 2.046984 0.000001 0.000000 0.299039 0.451167 -0.503001
    28 -0.000005 0.000007 3.713254 -3.286520 -0.167968 1.248177
    29 18.045723 0.000000 0.000000 0.000000 0.000000 -1.739740
    30 17.597597 0.000000 0.000000 -0.248415 0.195709 -0.158777
    31 0.000005 -0.000003 -3.713254 0.826780 2.320935 5.509757
    32 18.045721 0.000000 0.000000 0.000000 0.000000 -2.672902
    33 17.597597 0.000000 0.000000 0.375540 0.039712 0.768672
  time 6
    0 -0.846717 1.761924 -20.600716 0.000000 0.000000 -1.585458
    1 -0.757840 0.093753 0.000000 -1.570795 -1.570787 0.000000
    2 1.293670 0.684478 -0.000001 -0.148018 -0.055993 0.076769
    3 5.309685 -0.003834 0.000000 -0.015434 0.069834 -0.012195
    4 4.826790 -0.004591 0.000000 -0.082573 -0.039369 -0.018158
    5 5.792767 -0.005304 0.000000 0.030201 0.105860 -0.067766
    6 6.662322 -0.001452 0.000000 0.055393 0.094819 0.328536
    7 -3.108188 1.516823 4.339626 1.238993 -1.024532 -4.799756
    8 4.827512 0.000000 -0.000002 -0.328517 0.012699 -0.816274
    9 11.140032 0.000000 0.000000 0.070821 -0.126276 -0.880498
    10 10.314563 -0.000001 0.000001 -2.731141 0.380965 -0.505834
    11 1.646836 0.445664 -1.699647 -0.161704 0.581044 -0.283978
    12 0.928312 0.000000 0.000000 0.000000 0.000000 0.000000
    13 0.928313 0.000000 -0.000001 0.000000 0.000000 0.000000
    14 2.979373 -0.388274 -0.044205 -0.000805 -0.043611 0.000046
    15 1.435262 -0.000001 -0.000001 0.000000 0.000000 0.872146
    16 1.482593 -0.000001 0.000001 0.000000 0.000000 0.907041
    17 -2.869899 1.399667 -4.140396 -1.163265 1.764468 -4.903713
    18 4.972047 0.000000 0.000000 1.303565 -0.252268 -1.861072
    19 11.585358 0.000000 0.000001 0.386603 -0.367508 -1.285623
    20 10.127058 0.000000 0.000001 1.825564 0.689183 0.510722
    21 1.537458 0.109715 1.664489 -0.264662 -0.055995 0.783079
    22 0.928313 0.000000 0.000002 0.000000 0.000000 -0.453501
    23 0.928311 0.000000 0.000001 0.000000 0.000000 0.000000
    24 2.686395 -0.427337 0.044204 -0.005762 0.043239 -0.157074
    25 1.435260 0.000000 0.000001 0.000000 0.000000 0.732613
    26 1.482593 0.000000 -0.000001 0.000000 0.000000 1.168644
    27 2.046984 0.000001 0.000000 0.299039 0.451167 -0.503001
    28 -0.000005 0.000007 3.713254 -3.286232 -0.168159 1.248081
    29 18.045723 0.000000 0.000000 0.000000 0.000000 -1.740258
    30 17.597597 0.000000 0.000000 -0.248187 0.195561 -0.158365
    31 0.000005 -0.000003 -3.713254 0.827259 2.321606 5.511003
    32 18.045721 0.000000 0.000000 0.000000 0.000000 -2.672744
    33 17.597597 0.000000 0.000000 0.375171 0.040146 0.769688
  time 7
    0 -0.846717 1.761924 -20.600716 0.000000 0.000000 -1.585458
    1 -0.746121 0.093753 0.000000 -1.570795 -1.570787 0.000000
    2 1.293670 0.684478 -0.000001 -0.148018 -0.055993 0.076769
    3 5.309685 -0.003834 0.000000 -0.015639 0.070565 -0.009704
    4 4.826790 -0.004591 0.000000 -0.082344 -0.039741 -0.020826
    5 5.792767 -0.005304 0.000000 0.030363 0.104482 -0.080203
    6 6.662322 -0.001452 0.000000 0.058245 0.097761 0.370546
    7 -3.108188 1.516823 4.339626 1.238993 -1.024532 -4.799756
    8 4.827512 0.000000 -0.000002 -0.112006 0.286001 -0.375917
    9 11.140032 0.000000 0.000000 0.070821 -0.157283 -1.285078
    10 10.314563 -0.000001 0.000001 -2.710480 0.357641 -0.446493
    11 1.646836 0.445664 -1.699647 -0.161704 0.581044 -0.283978
    12 0.928312 0.000000 0.000000 0.000000 0.000000 0.000000
    13 0.928313 0.000000 -0.000001 0.000000 0.000000 0.000000
    14 2.979373 -0.388274 -0.044205 -0.000805 -0.043611 0.000046
    15 1.435262 -0.000001 -0.000001 0.000000 0.000000 0.872146
    16 1.482593 -0.000001 0.000001 0.000000 0.000000 0.907041
    17 -2.869899 1.399667 -4.140396 -1.163265 1.764468 -4.903713
    18 4.972047 0.000000 0.000000 1.355060 -0.163482 -1.846163
    19 11.585358 0.000000 0.000001 0.386603 -0.365239 -1.266510
    20 10.127058 0.000000 0.000001 1.825564 0.689183 0.510722
    21 1.537458 0.109715 1.664489 -0.264662 -0.055995 0.783079
    22 0.928313 0.000000 0.000002 0.000000 0.000000 -0.453501
    23 0.928311 0.000000 0.000001 0.000000 0.000000 0.000000
    24 2.686395 -0.427337 0.044204 -0.005762 0.043239 -0.157074
    25 1.435260 0.000000 0.000001 0.000000 0.000000 0.732613
    26 1.482593 0.000000 -0.000001 0.000000 0.000000 1.168644
    27 2.046984 0.000001 0.000000 0.299039 0.451167 -0.503001
    28 -0.000005 0.000007 3.713254 -3.286041 -0.168351 1.247985
    29 18.045723 0.000000 0.000000 0.000000 0.000000 -1.740628
    30 17.597597 0.000000 0.000000 -0.247984 0.195438 -0.157998
    31 0.000005 -0.000003 -3.713254 0.827547 2.322085 5.512058
    32 18.045721 0.000000 0.000000 0.000000 0.000000 -2.672744
    33 17.597597 0.000000 0.000000 0.374936 0.040501 0.770474
  time 8
    0 -0.846717 1.761924 -20.600716 0.000000 0.000000 -1.585458
    1 -0.746121 0.093753 0.000000 -1.570795 -1.570787 0.000000
    2 1.293670 0.684478 -0.000001 -0.148018 -0.055993 0.076769
    3 5.309685 -0.003834 0.000000 -0.015775 0.071009 -0.008203
    4 4.826790 -0.004591 0.000000 -0.082344 -0.039741 -0.020826
    5 5.792767 -0.005304 0.000000 0.030525 0.103966 -0.087387
    6 6.662322 -0.001452 0.000000 0.058245 0.097761 0.370546
    7 -3.108188 1.516823 4.339626 1.238993 -1.024532 -4.799756
    8 4.827512 0.000000 -0.000002 0.277411 0.525791 0.072586
    9 11.140032 0.000000 0.000000 0.070821 -0.164024 -1.560690
    10 10.314563 -0.000001 0.000001 -2.694083 0.335440 -0.390113
    11 1.646836 0.445664 -1.699647 -0.161704 0.581044 -0.283978
    12 0.928312 0.000000 0.000000 0.000000 0.000000 0.000000
    13 0.928313 0.000000 -0.000001 0.000000 0.000000 0.000000
    14 2.979373 -0.388274 -0.044205 -0.000805 -0.043611 0.000046
    15 1.435262 -0.000001 -0.000001 0.000000 0.000000 0.872146
    16 1.482593 -0.000001 0.000001 0.000000 0.000000 0.907041
    17 -2.869899 1.399667 -4.140396 -1.163265 1.764468 -4.903713
    18 4.972047 0.000000 0.000000 1.373726 -0.157937 -1.759242
    19 11.585358 0.000000 0.000001 0.386603 -0.378717 -1.409368
    20 10.127058 0.000000 0.000001 1.825564 0.689183 0.510722
    21 1.537458 0.109715 1.664489 -0.264662 -0.055995 0.783079
    22 0.928313 0.000000 0.000002 0.000000 0.000000 -0.453501
    23 0.928311 0.000000 0.000001 0.000000 0.000000 0.000000
    24 2.686395 -0.427337 0.044204 -0.005762 0.043239 -0.157074
    25 1.435260 0.000000 0.000001 0.000000 0.000000 0.732613
    26 1.482593 0.000000 -0.000001 0.000000 0.000000 1.168644
    27 2.046984 0.000001 0.000000 0.302011 0.445414 -0.480251
    28 -0.000005 0.000007 3.713254 -3.286041 -0.168255 1.247985
    29 18.045723 0.000000 0.000000 0.000000 0.000000 -1.740628
    30 17.597597 0.000000 0.000000 -0.248035 0.195438 -0.158044
    31 0.000005 -0.000003 -3.713254 0.827547 2.321989 5.511962
    32 18.045721 0.000000 0.000000 0.000000 0.000000 -2.672744
    33 17.597597 0.000000 0.000000 0.374902 0.040442 0.770381
  time 9
    0 -0.846717 1.761924 -20.600716 0.000000 0.000000 -1.585458
    1 -0.757840 0.101566 0.000000 -1.570795 -1.570787 0.000000
    2 1.293670 0.684478 -0.000001 -0.148018 -0.055993 0.076769
    3 5.309685 -0.003834 0.000000 -0.015775 0.071093 -0.007955
    4 4.826790 -0.004591 0.000000 -0.082573 -0.039369 -0.018158
    5 5.792767 -0.005304 0.000000 0.030597 0.104661 -0.085207
    6 6.662322 -0.001452 0.000000 0.058245 0.097761 0.370546
    7 -3.108188 1.516823 4.339626 1.238993 -1.024532 -4.799756
    8 4.827512 0.000000 -0.000002 0.826103 0.643639 0.739794
    9 11.140032 0.000000 0.000000 0.062082 -0.136362 -1.419406
    10 10.314563 -0.000001 0.000001 -2.682047 0.316706 -0.342559
    11 1.646836 0.445664 -1.699647 -0.161704 0.581044 -0.283978
    12 0.928312 0.000000 0.000000 0.000000 0.000000 0.000000
    13 0.928313 0.000000 -0.000001 0.000000 0.000000 0.000000
    14 2.979373 -0.388274 -0.044205 -0.000805 -0.043611 0.000046
    15 1.435262 -0.000001 -0.000001 0.000000 0.000000 0.872146
    16 1.482593 -0.000001 0.000001 0.000000 0.000000 0.907041
    17 -2.869899 1.399667 -4.140396 -1.163265 1.764468 -4.903713
    18 4.972047 0.000000 0.000000 1.389297 -0.164205 -1.648161
    19 11.585358 0.000000 0.000001 0.386603 -0.383732 -1.553696
    20 10.127058 0.000000 0.000001 1.825564 0.689183 0.510722
    21 1.537458 0.109715 1.664489 -0.264662 -0.055995 0.783079
    22 0.928313 0.000000 0.000002 0.000000 0.000000 -0.453501
    23 0.928311 0.000000 0.000001 0.000000 0.000000 0.000000
    24 2.686395 -0.427337 0.044204 -0.005762 0.043239 -0.157074
    25 1.435260 0.000000 0.000001 0.000000 0.000000 0.732613
    26 1.482593 0.000000 -0.000001 0.000000 0.000000 1.168644
    27 2.046984 0.000001 0.000000 0.309163 0.430927 -0.425992
    28 -0.000005 0.000007 3.713254 -3.286328 -0.168063 1.248081
    29 18.045723 0.000000 0.000000 0.000000 0.000000 -1.739962
    30 17.597597 0.000000 0.000000 -0.248339 0.195586 -0.158594
    31 0.000005 -0.000003 -3.713254 0.827068 2.321127 5.510524
    32 18.045721 0.000000 0.000000 0.000000 0.000000 -2.672902
    33 17.597597 0.000000 0.000000 0.375271 0.039870 0.769180
  time 10
    0 -0.846717 1.761924 -20.600716 0.000000 0.000000 -1.585458
    1 -0.777371 0.113285 0.000000 -1.570795 -1.570787 0.000000
    2 1.293670 0.684478 -0.000001 -0.148018 -0.055993 0.076769
    3 5.309685 -0.003834 0.000000 -0.015690 0.070709 -0.009209
    4 4.826790 -0.004591 0.000000 -0.082992 -0.038650 -0.012800
    5 5.792767 -0.005304 0.000000 0.030615 0.106759 -0.072500
    6 6.662322 -0.001452 0.000000 0.058245 0.097761 0.370546
    7 -3.108188 1.516823 4.339626 1.238993 -1.024532 -4.799756
    8 4.827512 0.000000 -0.000002 1.385716 0.735223 1.424852
    9 11.140032 0.000000 0.000000 0.045914 -0.085008 -1.156908
    10 10.314563 -0.000001 0.000001 -2.674654 0.303779 -0.309696
    11 1.646836 0.445664 -1.699647 -0.161704 0.581044 -0.283978
    12 0.928312 0.000000 0.000000 0.000000 0.000000 0.000000
    13 0.928313 0.000000 -0.000001 0.000000 0.000000 0.000000
    14 2.979373 -0.388274 -0.044205 -0.000805 -0.043611 0.000046
    15 1.435262 -0.000001 -0.000001 0.000000 0.000000 0.872146
    16 1.482593 -0.000001 0.000001 0.000000 0.000000 0.907041
    17 -2.869899 1.399667 -4.140396 -1.163265 1.764468 -4.903713
    18 4.972047 0.000000 0.000000 1.390141 -0.177221 -1.540208
    19 11.585358 0.000000 0.000001 0.386603 -0.382597 -1.651630
    20 10.127058 0.000000 0.000001 1.825564 0.689183 0.510722
    21 1.537458 0.109715 1.664489 -0.264662 -0.055995 0.783079
    22 0.928313 0.000000 0.000002 0.000000 0.000000 -0.453501
    23 0.928311 0.000000 0.000001 0.000000 0.000000 0.000000
    24 2.686395 -0.427337 0.044204 -0.005762 0.043239 -0.157074
    25 1.435260 0.000000 0.000001 0.000000 0.000000 0.732613
    26 1.482593 0.000000 -0.000001 0.000000 0.000000 1.168644
    27 2.046984 0.000001 0.000000 0.317693 0.411898 -0.361270
    28 -0.000005 0.000007 3.713254 -3.286808 -0.167584 1.248368
    29 18.045723 0.000000 0.000000 0.000000 0.000000 -1.738778
    30 17.597597 0.000000 0.000000 -0.248921 0.195881 -0.159557
    31 0.000005 -0.000003 -3.713254 0.826397 2.319497 5.507648
    32 18.045721 0.000000 0.000000 0.000000 0.000000 -2.672981
    33 17.597597 0.000000 0.000000 0.375942 0.038746 0.766871
  time 11
    0 -0.846717 1.761924 -20.600716 0.000000 0.000000 -1.585458
    1 -0.808622 0.132817 0.000000 -1.570795 -1.570787 0.000000
    2 1.293670 0.684478 -0.000001 -0.148018 -0.055993 0.076769
    3 5.309685 -0.003834 0.000000 -0.015434 0.069834 -0.012195
    4 4.826790 -0.004591 0.000000 -0.083889 -0.037284 -0.002658
    5 5.792767 -0.005304 0.000000 0.030669 0.109815 -0.053004
    6 6.662322 -0.001452 0.000000 0.058245 0.097761 0.370546
    7 -3.108188 1.516823 4.339626 1.238993 -1.024532 -4.799756
    8 4.827512 0.000000 -0.000002 -1.499479 2.369493 -1.401944
    9 11.140032 0.000000 0.000000 0.037174 -0.057346 -1.015551
    10 10.314563 -0.000001 0.000001 -2.672190 0.298908 -0.297444
    11 1.646836 0.445664 -1.699647 -0.161704 0.581044 -0.283978
    12 0.928312 0.000000 0.000000 0.000000 0.000000 0.000000
    13 0.928313 0.000000 -0.000001 0.000000 0.000000 0.000000
    14 2.979373 -0.388274 -0.044205 -0.000805 -0.043611 0.000046
    15 1.435262 -0.000001 -0.000001 0.000000 0.000000 0.872146
    16 1.482593 -0.000001 0.000001 0.000000 0.000000 0.907041
    17 -2.869899 1.399667 -4.140396 -1.163265 1.764468 -4.903713
    18 4.972047 0.000000 0.000000 1.374101 -0.189595 -1.453686
    19 11.585358 0.000000 0.000001 0.386603 -0.380737 -1.693042
    20 10.127058 0.000000 0.000001 1.825564 0.689183 0.510722
    21 1.537458 0.109715 1.664489 -0.264662 -0.055995 0.783079
    22 0.928313 0.000000 0.000002 0.000000 0.000000 -0.453501
    23 0.928311 0.000000 0.000001 0.000000 0.000000 0.000000
    24 2.686395 -0.427337 0.044204 -0.005762 0.043239 -0.157074
    25 1.435260 0.000000 0.000001 0.000000 0.000000 0.732613
    26 1.482593 0.000000 -0.000001 0.000000 0.000000 1.168644
    27 2.046984 0.000001 0.000000 0.324845 0.392543 -0.307011
    28 -0.000005 0.000007 3.713254 -3.287575 -0.166817 1.248752
    29 18.045723 0.000000 0.000000 0.000000 0.000000 -1.736927
    30 17.597597 0.000000 0.000000 -0.249732 0.196373 -0.161161
    31 0.000005 -0.000003 -3.713254 0.825055 2.317004 5.503430
    32 18.045721 0.000000 0.000000 0.000000 0.000000 -2.673217
    33 17.597597 0.000000 0.000000 0.377083 0.037089 0.763407
  time 12
    0 -0.846717 1.761924 -20.600716 0.000000 0.000000 -1.585458
    1 -0.820342 0.144536 0.000000 -1.570795 -1.570787 0.000000
    2 1.293670 0.684478 -0.000001 -0.148018 -0.055993 0.076769
    3 5.309685 -0.003834 0.000000 -0.014652 0.067174 -0.021380
    4 4.826790 -0.004591 0.000000 -0.085148 -0.035259 0.012335
    5 5.792767 -0.005304 0.000000 0.030759 0.113374 -0.029957
    6 6.662322 -0.001452 0.000000 0.058245 0.097761 0.370546
    7 -3.108188 1.516823 4.339626 1.238993 -1.024532 -4.799756
    8 4.827512 0.000000 -0.000002 1.479064 0.703842 1.586455
    9 11.140032 0.000000 0.000000 0.045914 -0.084658 -1.149373
    10 10.314563 -0.000001 0.000001 -2.673896 0.304997 -0.312773
    11 1.646836 0.445664 -1.699647 -0.161704 0.581044 -0.283978
    12 0.928312 0.000000 0.000000 0.000000 0.000000 0.000000
    13 0.928313 0.000000 -0.000001 0.000000 0.000000 0.000000
    14 2.979373 -0.388274 -0.044205 -0.000805 -0.043611 0.000046
    15 1.435262 -0.000001 -0.000001 0.000000 0.000000 0.872146
    16 1.482593 -0.000001 0.000001 0.000000 0.000000 0.907041
    17 -2.869899 1.399667 -4.140396 -1.163265 1.764468 -4.903713
    18 4.972047 0.000000 0.000000 1.354497 -0.196264 -1.398645
    19 11.585358 0.000000 0.000001 0.386603 -0.380464 -1.697779
    20 10.127058 0.000000 0.000001 1.825564 0.689183 0.510722
    21 1.537458 0.109715 1.664489 -0.264662 -0.055995 0.783079
    22 0.928313 0.000000 0.000002 0.000000 0.000000 -0.453501
    23 0.928311 0.000000 0.000001 0.000000 0.000000 0.000000
    24 2.686395 -0.427337 0.044204 -0.005762 0.043239 -0.157074
    25 1.435260 0.000000 0.000001 0.000000 0.000000 0.732613
    26 1.482593 0.000000 -0.000001 0.000000 0.000000 1.168644
    27 2.046984 0.000001 0.000000 0.327818 0.376995 -0.284261
    28 -0.000005 0.000007 3.713254 -3.287958 -0.166529 1.248944
    29 18.045723 0.000000 0.000000 0.000000 0.000000 -1.735965
    30 17.597597 0.000000 0.000000 -0.250163 0.196595 -0.161941
    31 0.000005 -0.000003 -3.713254 0.824480 2.315950 5.501225
    32 18.045721 0.000000 0.000000 0.000000 0.000000 -2.673217
    33 17.597597 0.000000 0.000000 0.377653 0.036280 0.761652
  time 13
    0 -0.846717 1.761924 -20.600716 0.000000 0.000000 -1.585458
    1 -0.820342 0.136723 0.000000 -1.570795 -1.570787 0.000000
    2 1.293670 0.684478 -0.000001 -0.148018 -0.055993 0.076769
    3 5.309685 -0.003834 0.000000 -0.013460 0.063231 -0.034981
    4 4.826790 -0.004591 0.000000 -0.086464 -0.032970 0.028915
    5 5.792767 -0.005304 0.000000 0.030939 0.116934 -0.006516
    6 6.662322 -0.001452 0.000000 0.055393 0.094819 0.328536
    7 -3.108188 1.516823 4.339626 1.238993 -1.024532 -4.799756
    8 4.827512 0.000000 -0.000002 1.116671 0.565784 1.236994
    9 11.140032 0.000000 0.000000 0.062082 -0.135388 -1.433752
    10 10.314563 -0.000001 0.000001 -2.679677 0.320921 -0.353301
    11 1.646836 0.445664 -1.699647 -0.161704 0.581044 -0.283978
    12 0.928312 0.000000 0.000000 0.000000 0.000000 0.000000
    13 0.928313 0.000000 -0.000001 0.000000 0.000000 0.000000
    14 2.979373 -0.388274 -0.044205 -0.000805 -0.043611 0.000046
    15 1.435262 -0.000001 -0.000001 0.000000 0.000000 0.872146
    16 1.482593 -0.000001 0.000001 0.000000 0.000000 0.907041
    17 -2.869899 1.399667 -4.140396 -1.163265 1.764468 -4.903713
    18 4.972047 0.000000 0.000000 1.290245 -0.228404 -1.359710
    19 11.585358 0.000000 0.000001 0.386603 -0.382189 -1.666251
    20 10.127058 0.000000 0.000001 1.825564 0.689183 0.510722
    21 1.537458 0.109715 1.664489 -0.264662 -0.055995 0.783079
    22 0.928313 0.000000 0.000002 0.000000 0.000000 -0.453501
    23 0.928311 0.000000 0.000001 0.000000 0.000000 0.000000
    24 2.686395 -0.427337 0.044204 -0.005762 0.043239 -0.157074
    25 1.435260 0.000000 0.000001 0.000000 0.000000 0.732613
    26 1.482593 0.000000 -0.000001 0.000000 0.000000 1.168644
    27 2.046984 0.000001 0.000000 0.298306 0.364014 -0.287546
    28 -0.000005 0.000007 3.713254 -3.287958 -0.166529 1.248848
    29 18.045723 0.000000 0.000000 0.000000 0.000000 -1.736187
    30 17.597597 0.000000 0.000000 -0.250087 0.196521 -0.161757
    31 0.000005 -0.000003 -3.713254 0.824768 2.316141 5.501704
    32 18.045721 0.000000 0.000000 0.000000 0.000000 -2.673217
    33 17.597597 0.000000 0.000000 0.377519 0.036379 0.762021
  time 14
    0 -0.846717 1.761924 -20.600716 0.000000 0.000000 -1.585458
    1 -0.828154 0.144536 0.000000 -1.570795 -1.570787 0.000000
    2 1.293670 0.684478 -0.000001 -0.148018 -0.055993 0.076769
    3 5.309685 -0.003834 0.000000 -0.012678 0.060642 -0.043883
    4 4.826790 -0.004591 0.000000 -0.087666 -0.030884 0.043930
    5 5.792767 -0.005304 0.000000 0.031155 0.120050 0.014039
    6 6.662322 -0.001452 0.000000 0.052684 0.091754 0.286640
    7 -3.108188 1.516823 4.339626 1.238993 -1.024532 -4.799756
    8 4.827512 0.000000 -0.000002 0.744393 0.458254 0.855385
    9 11.140032 0.000000 0.000000 0.070821 -0.162701 -1.693063
    10 10.314563 -0.000001 0.000001 -2.690387 0.343402 -0.410552
    11 1.646836 0.445664 -1.699647 -0.161704 0.581044 -0.283978
    12 0.928312 0.000000 0.000000 0.000000 0.000000 0.000000
    13 0.928313 0.000000 -0.000001 0.000000 0.000000 0.000000
    14 2.979373 -0.388274 -0.044205 -0.000805 -0.043611 0.000046
    15 1.435262 -0.000001 -0.000001 0.000000 0.000000 0.872146
    16 1.482593 -0.000001 0.000001 0.000000 0.000000 0.907041
    17 -2.869899 1.399667 -4.140396 -1.163265 1.764468 -4.903713
    18 4.972047 0.000000 0.000000 1.196541 -0.282559 -1.338612
    19 11.585358 0.000000 0.000001 0.386603 -0.383641 -1.598702
    20 10.127058 0.000000 0.000001 1.825564 0.689183 0.510722
    21 1.537458 0.109715 1.664489 -0.264662 -0.055995 0.783079
    22 0.928313 0.000000 0.000002 0.000000 0.000000 -0.453501
    23 0.928311 0.000000 0.000001 0.000000 0.000000 0.000000
    24 2.686395 -0.427337 0.044204 -0.005762 0.043239 -0.157074
    25 1.435260 0.000000 0.000001 0.000000 0.000000 0.732613
    26 1.482593 0.000000 -0.000001 0.000000 0.000000 1.168644
    27 2.046984 0.000001 0.000000 0.224548 0.350442 -0.296609
    28 -0.000005 0.000007 3.713254 -3.288150 -0.166242 1.249039
    29 18.045723 0.000000 0.000000 0.000000 0.000000 -1.735299
    30 17.597597 0.000000 0.000000 -0.250442 0.196718 -0.162491
    31 0.000005 -0.000003 -3.713254 0.824193 2.314991 5.499883
    32 18.045721 0.000000 0.000000 0.000000 0.000000 -2.673453
    33 17.597597 0.000000 0.000000 0.377989 0.035629 0.760451
  time 15
    0 -0.846717 1.761924 -20.600716 0.000000 0.000000 -1.585458
    1 -0.859405 0.167974 0.000000 -1.570795 -1.570787 0.000000
    2 1.293670 0.684478 -0.000001 -0.148018 -0.055993 0.076769
    3 5.309685 -0.003834 0.000000 -0.012422 0.059959 -0.046338
    4 4.826790 -0.004591 0.000000 -0.088448 -0.029470 0.054072
    5 5.792767 -0.005304 0.000000 0.031371 0.122255 0.028469
    6 6.662322 -0.001452 0.000000 0.050096 0.088538 0.244687
    7 -3.108188 1.516823 4.339626 1.238993 -1.024532 -4.799756
    8 4.827512 0.000000 -0.000002 0.386304 0.434804 0.368150
    9 11.140032 0.000000 0.000000 0.070821 -0.160728 -1.768704
    10 10.314563 -0.000001 0.000001 -2.707068 0.369256 -0.476163
    11 1.646836 0.445664 -1.699647 -0.161704 0.581044 -0.283978
    12 0.928312 0.000000 0.000000 0.000000 0.000000 0.000000
    13 0.928313 0.000000 -0.000001 0.000000 0.000000 0.000000
    14 2.979373 -0.388274 -0.044205 -0.000805 -0.043611 0.000046
    15 1.435262 -0.000001 -0.000001 0.000000 0.000000 0.872146
    16 1.482593 -0.000001 0.000001 0.000000 0.000000 0.907041
    17 -2.869899 1.399667 -4.140396 -1.163265 1.764468 -4.903713
    18 4.972047 0.000000 0.000000 1.146358 -0.319118 -1.353654
    19 11.585358 0.000000 0.000001 0.386603 -0.383369 -1.530091
    20 10.127058 0.000000 0.000001 1.825564 0.689183 0.510722
    21 1.537458 0.109715 1.664489 -0.264662 -0.055995 0.783079
    22 0.928313 0.000000 0.000002 0.000000 0.000000 -0.453501
    23 0.928311 0.000000 0.000001 0.000000 0.000000 0.000000
    24 2.686395 -0.427337 0.044204 -0.005762 0.043239 -0.157074
    25 1.435260 0.000000 0.000001 0.000000 0.000000 0.732613
    26 1.482593 0.000000 -0.000001 0.000000 0.000000 1.168644
    27 2.046984 0.000001 0.000000 0.128603 0.337608 -0.310174
    28 -0.000005 0.000007 3.713254 -3.288917 -0.165667 1.249423
    29 18.045723 0.000000 0.000000 0.000000 0.000000 -1.733671
    30 17.597597 0.000000 0.000000 -0.251227 0.197161 -0.163820
    31 0.000005 -0.000003 -3.713254 0.823042 2.312882 5.495952
    32 18.045721 0.000000 0.000000 0.000000 0.000000 -2.673532
    33 17.597597 0.000000 0.000000 0.379029 0.034150 0.757356
  time 16
    0 -0.846717 1.761924 -20.600716 0.000000 0.000000 -1.585458
    1 -0.871124 0.175787 0.000000 -1.570795 -1.570787 0.000000
    2 1.293670 0.684478 -0.000001 -0.148018 -0.055993 0.076769
    3 5.309685 -0.003834 0.000000 -0.012354 0.059743 -0.047027
    4 4.826790 -0.004591 0.000000 -0.088772 -0.028883 0.058372
    5 5.792767 -0.005304 0.000000 0.031461 0.123297 0.035113
    6 6.662322 -0.001452 0.000000 0.047627 0.085281 0.202734
    7 -3.108188 1.516823 4.339626 1.238993 -1.024532 -4.799756
    8 4.827512 0.000000 -0.000002 -0.087374 0.275513 -0.395413
    9 11.140032 0.000000 0.000000 0.070821 -0.163874 -1.539389
    10 10.314563 -0.000001 0.000001 -2.730477 0.395109 -0.541775
    11 1.646836 0.445664 -1.699647 -0.161704 0.581044 -0.283978
    12 0.928312 0.000000 0.000000 0.000000 0.000000 0.000000
    13 0.928313 0.000000 -0.000001 0.000000 0.000000 0.000000
    14 2.979373 -0.388274 -0.044205 -0.000805 -0.043611 0.000046
    15 1.435262 -0.000001 -0.000001 0.000000 0.000000 0.872146
    16 1.482593 -0.000001 0.000001 0.000000 0.000000 0.907041
    17 -2.869899 1.399667 -4.140396 -1.163265 1.764468 -4.903713
    18 4.972047 0.000000 0.000000 1.138667 -0.370140 -1.436914
    19 11.585358 0.000000 0.000001 0.386603 -0.383891 -1.564069
    20 10.127058 0.000000 0.000001 1.825564 0.689183 0.510722
    21 1.537458 0.109715 1.664489 -0.264662 -0.055995 0.783079
    22 0.928313 0.000000 0.000002 0.000000 0.000000 -0.453501
    23 0.928311 0.000000 0.000001 0.000000 0.000000 0.000000
    24 2.686395 -0.427337 0.044204 -0.005762 0.043239 -0.157074
    25 1.435260 0.000000 0.000001 0.000000 0.000000 0.732613
    26 1.482593 0.000000 -0.000001 0.000000 0.000000 1.168644
    27 2.046984 0.000001 0.000000 0.032700 0.326780 -0.327023
    28 -0.000005 0.000007 3.713254 -3.289204 -0.165283 1.249519
    29 18.045723 0.000000 0.000000 0.000000 0.000000 -1.732857
    30 17.597597 0.000000 0.000000 -0.251607 0.197358 -0.164554
    31 0.000005 -0.000003 -3.713254 0.822467 2.311827 5.494035
    32 18.045721 0.000000 0.000000 0.000000 0.000000 -2.673768
    33 17.597597 0.000000 0.000000 0.379532 0.033381 0.755786
  time 17
    0 -0.846717 1.761924 -20.600716 0.000000 0.000000 -1.585458
    1 -0.875031 0.179693 0.000000 -1.570795 -1.570787 0.000000
    2 1.293670 0.684478 -0.000001 -0.148018 -0.055993 0.076769
    3 5.309685 -0.003834 0.000000 -0.012422 0.059899 -0.046533
    4 4.826790 -0.004591 0.000000 -0.088772 -0.028787 0.058901
    5 5.792767 -0.005304 0.000000 0.031479 0.123417 0.035923
    6 6.662322 -0.001452 0.000000 0.045326 0.081914 0.160866
    7 -3.108188 1.516823 4.339626 1.238993 -1.024532 -4.799756
    8 4.827512 0.000000 -0.000002 -0.339518 -0.056969 -0.956908
    9 11.140032 0.000000 0.000000 0.070821 -0.130195 -0.919695
    10 10.314563 -0.000001 0.000001 -2.761754 0.417591 -0.599025
    11 1.646836 0.445664 -1.699647 -0.161704 0.581044 -0.283978
    12 0.928312 0.000000 0.000000 0.000000 0.000000 0.000000
    13 0.928313 0.000000 -0.000001 0.000000 0.000000 0.000000
    14 2.979373 -0.388274 -0.044205 -0.000805 -0.043611 0.000046
    15 1.435262 -0.000001 -0.000001 0.000000 0.000000 0.872146
    16 1.482593 -0.000001 0.000001 0.000000 0.000000 0.907041
    17 -2.869899 1.399667 -4.140396 -1.163265 1.764468 -4.903713
    18 4.972047 0.000000 0.000000 1.140449 -0.436750 -1.585133
    19 11.585358 0.000000 0.000001 0.386603 -0.382960 -1.632517
    20 10.127058 0.000000 0.000001 1.825564 0.689183 0.510722
    21 1.537458 0.109715 1.664489 -0.264662 -0.055995 0.783079
    22 0.928313 0.000000 0.000002 0.000000 0.000000 -0.453501
    23 0.928311 0.000000 0.000001 0.000000 0.000000 0.000000
    24 2.686395 -0.427337 0.044204 -0.005762 0.043239 -0.157074
    25 1.435260 0.000000 0.000001 0.000000 0.000000 0.732613
    26 1.482593 0.000000 -0.000001 0.000000 0.000000 1.168644
    27 2.046984 0.000001 0.000000 -0.041058 0.319316 -0.346002
    28 -0.000005 0.000007 3.713254 -3.289300 -0.165187 1.249615
    29 18.045723 0.000000 0.000000 0.000000 0.000000 -1.732561
    30 17.597597 0.000000 0.000000 -0.251734 0.197431 -0.164783
    31 0.000005 -0.000003 -3.713254 0.822467 2.311348 5.493363
    32 18.045721 0.000000 0.000000 0.000000 0.000000 -2.673768
    33 17.597597 0.000000 0.000000 0.379667 0.033144 0.755232
  time 18
    0 -0.846717 1.761924 -20.600716 0.000000 0.000000 -1.585458
    1 -0.871124 0.175787 0.000000 -1.570795 -1.570787 0.000000
    2 1.293670 0.684478 -0.000001 -0.148018 -0.055993 0.076769
    3 5.309685 -0.003834 0.000000 -0.012508 0.060211 -0.045455
    4 4.826790 -0.004591 0.000000 -0.088638 -0.029027 0.057269
    5 5.792767 -0.005304 0.000000 0.031443 0.123022 0.033452
    6 6.662322 -0.001452 0.000000 0.045326 0.081914 0.160866
    7 -3.108188 1.516823 4.339626 1.238993 -1.024532 -4.799756
    8 4.827512 0.000000 -0.000002 -0.405843 -0.401134 -1.316160
    9 11.140032 0.000000 0.000000 0.070821 -0.019598 -0.120390
    10 10.314563 -0.000001 0.000001 -2.801560 0.433609 -0.639553
    11 1.646836 0.445664 -1.699647 -0.161704 0.581044 -0.283978
    12 0.928312 0.000000 0.000000 0.000000 0.000000 0.000000
    13 0.928313 0.000000 -0.000001 0.000000 0.000000 0.000000
    14 2.979373 -0.388274 -0.044205 -0.000805 -0.043611 0.000046
    15 1.435262 -0.000001 -0.000001 0.000000 0.000000 0.872146
    16 1.482593 -0.000001 0.000001 0.000000 0.000000 0.907041
    17 -2.869899 1.399667 -4.140396 -1.163265 1.764468 -4.903713
    18 4.972047 0.000000 0.000000 1.147015 -0.465355 -1.689425
    19 11.585358 0.000000 0.000001 0.386603 -0.383028 -1.629903
    20 10.127058 0.000000 0.000001 1.825564 0.689183 0.510722
    21 1.537458 0.109715 1.664489 -0.264662 -0.055995 0.783079
    22 0.928313 0.000000 0.000002 0.000000 0.000000 -0.453501
    23 0.928311 0.000000 0.000001 0.000000 0.000000 0.000000
    24 2.686395 -0.427337 0.044204 -0.005762 0.043239 -0.157074
    25 1.435260 0.000000 0.000001 0.000000 0.000000 0.732613
    26 1.482593 0.000000 -0.000001 0.000000 0.000000 1.168644
    27 2.046984 0.000001 0.000000 -0.070570 0.316542 -0.365893
    28 -0.000005 0.000007 3.713254 -3.289300 -0.165187 1.249615
    29 18.045723 0.000000 0.000000 0.000000 0.000000 -1.732635
    30 17.597597 0.000000 0.000000 -0.251684 0.197382 -0.164737
    31 0.000005 -0.000003 -3.713254 0.822467 2.311444 5.493555
    32 18.045721 0.000000 0.000000 0.000000 0.000000 -2.673768
    33 17.597597 0.000000 0.000000 0.379599 0.033144 0.755370
  time 19
    0 -0.846717 1.761924 -20.600716 0.000000 0.000000 -1.585458
    1 -0.871124 0.175787 0.000000 -1.570795 -1.570787 0.000000
    2 1.293670 0.684478 -0.000001 -0.148018 -0.055993 0.076769
    3 5.309685 -0.003834 0.000000 -0.012610 0.060510 -0.044378
    4 4.826790 -0.004591 0.000000 -0.088505 -0.029314 0.055131
    5 5.792767 -0.005304 0.000000 0.031389 0.122530 0.030130
    6 6.662322 -0.001452 0.000000 0.045326 0.081914 0.160866
    7 -3.108188 1.516823 4.339626 1.238993 -1.024532 -4.799756
    8 4.827512 0.000000 -0.000002 -0.405364 -0.495276 -1.334184
    9 11.140032 0.000000 0.000000 0.070821 0.000000 -0.000045
    10 10.314563 -0.000001 0.000001 -2.850938 0.439604 -0.654882
    11 1.646836 0.445664 -1.699647 -0.161704 0.581044 -0.283978
    12 0.928312 0.000000 0.000000 0.000000 0.000000 0.000000
    13 0.928313 0.000000 -0.000001 0.000000 0.000000 0.000000
    14 2.979373 -0.388274 -0.044205 -0.000805 -0.043611 0.000046
    15 1.435262 -0.000001 -0.000001 0.000000 0.000000 0.872146
    16 1.482593 -0.000001 0.000001 0.000000 0.000000 0.907041
    17 -2.869899 1.399667 -4.140396 -1.163265 1.764468 -4.903713
    18 4.972047 0.000000 0.000000 1.152174 -0.467203 -1.719908
    19 11.585358 0.000000 0.000001 0.386603 -0.383891 -1.585551
    20 10.127058 0.000000 0.000001 1.825564 0.689183 0.510722
    21 1.537458 0.109715 1.664489 -0.264662 -0.055995 0.783079
    22 0.928313 0.000000 0.000002 0.000000 0.000000 -0.453501
    23 0.928311 0.000000 0.000001 0.000000 0.000000 0.000000
    24 2.686395 -0.427337 0.044204 -0.005762 0.043239 -0.157074
    25 1.435260 0.000000 0.000001 0.000000 0.000000 0.732613
    26 1.482593 0.000000 -0.000001 0.000000 0.000000 1.168644
    27 2.046984 0.000001 0.000000 -0.032097 0.330557 -0.392840
    28 -0.000005 0.000007 3.713254 -3.289204 -0.165283 1.249519
    29 18.045723 0.000000 0.000000 0.000000 0.000000 -1.732783
    30 17.597597 0.000000 0.000000 -0.251607 0.197308 -0.164554
    31 0.000005 -0.000003 -3.713254 0.822659 2.311636 5.494130
    32 18.045721 0.000000 0.000000 0.000000 0.000000 -2.673768
    33 17.597597 0.000000 0.000000 0.379432 0.033282 0.755740
  time 20
    0 -0.846717 1.761924 -20.600716 0.000000 0.000000 -1.585458
    1 -0.871124 0.175787 0.000000 -1.570795 -1.570787 0.000000
    2 1.293670 0.684478 -0.000001 -0.148018 -0.055993 0.076769
    3 5.309685 -0.003834 0.000000 -0.012678 0.060642 -0.043883
    4 4.826790 -0.004591 0.000000 -0.088448 -0.029470 0.054072
    5 5.792767 -0.005304 0.000000 0.031371 0.122255 0.028469
    6 6.662322 -0.001452 0.000000 0.045326 0.081914 0.160866
    7 -3.108188 1.516823 4.339626 1.238993 -1.024532 -4.799756
    8 4.827512 0.000000 -0.000002 -0.412619 -0.464151 -1.234449
    9 11.140032 0.000000 0.000000 0.070821 -0.034053 -0.210087
    10 10.314563 -0.000001 0.000001 -3.059351 0.402697 -0.631366
    11 1.646836 0.445664 -1.699647 -0.161704 0.581044 -0.283978
    12 0.928312 0.000000 0.000000 0.000000 0.000000 0.000000
    13 0.928313 0.000000 -0.000001 0.000000 0.000000 0.000000
    14 2.979373 -0.388274 -0.044205 -0.000805 -0.043611 0.000046
    15 1.435262 -0.000001 -0.000001 0.000000 0.000000 0.872146
    16 1.482593 -0.000001 0.000001 0.000000 0.000000 0.907041
    17 -2.869899 1.399667 -4.140396 -1.163265 1.764468 -4.903713
    18 4.972047 0.000000 0.000000 1.157239 -0.468810 -1.746996
    19 11.585358 0.000000 0.000001 0.386603 -0.383641 -1.546917
    20 10.127058 0.000000 0.000001 1.825564 0.689183 0.510722
    21 1.537458 0.109715 1.664489 -0.264662 -0.055995 0.783079
    22 0.928313 0.000000 0.000002 0.000000 0.000000 -0.453501
    23 0.928311 0.000000 0.000001 0.000000 0.000000 0.000000
    24 2.686395 -0.427337 0.044204 -0.005762 0.043239 -0.157074
    25 1.435260 0.000000 0.000001 0.000000 0.000000 0.732613
    26 1.482593 0.000000 -0.000001 0.000000 0.000000 1.168644
    27 2.046984 0.000001 0.000000 0.059498 0.363925 -0.428486
    28 -0.000005 0.000007 3.713254 -3.289300 -0.165475 1.249615
    29 18.045723 0.000000 0.000000 0.000000 0.000000 -1.732931
    30 17.597597 0.000000 0.000000 -0.251405 0.197505 -0.164508
    31 0.000005 -0.000003 -3.713254 0.821892 2.312307 5.493555
    32 18.045721 0.000000 0.000000 0.000000 0.000000 -2.673768
    33 17.597597 0.000000 0.000000 0.379969 0.033854 0.755924
  time 21
    0 -0.846717 1.761924 -20.600716 0.000000 0.000000 -1.585458
    1 -0.871124 0.175787 0.000000 -1.570795 -1.570787 0.000000
    2 1.293670 0.684478 -0.000001 -0.148018 -0.055993 0.076769
    3 5.309685 -0.003834 0.000000 -0.012678 0.060642 -0.043883
    4 4.826790 -0.004591 0.000000 -0.088448 -0.029470 0.054072
    5 5.792767 -0.005304 0.000000 0.031371 0.122255 0.028469
    6 6.662322 -0.001452 0.000000 0.045326 0.081914 0.160866
    7 -3.108188 1.516823 4.339626 1.238993 -1.024532 -4.799756
    8 4.827512 0.000000 -0.000002 -0.418677 -0.431150 -1.149532
    9 11.140032 0.000000 0.000000 0.070821 -0.064761 -0.407450
    10 10.314563 -0.000001 0.000001 -3.447081 0.321296 -0.579574
    11 1.646836 0.445664 -1.699647 -0.161704 0.581044 -0.283978
    12 0.928312 0.000000 0.000000 0.000000 0.000000 0.000000
    13 0.928313 0.000000 -0.000001 0.000000 0.000000 0.000000
    14 2.979373 -0.388274 -0.044205 -0.000805 -0.043611 0.000046
    15 1.435262 -0.000001 -0.000001 0.000000 0.000000 0.872146
    16 1.482593 -0.000001 0.000001 0.000000 0.000000 0.907041
    17 -2.869899 1.399667 -4.140396 -1.163265 1.764468 -4.903713
    18 4.972047 0.000000 0.000000 1.161929 -0.469934 -1.768759
    19 11.585358 0.000000 0.000001 0.386603 -0.383165 -1.516205
    20 10.127058 0.000000 0.000001 1.825564 0.689183 0.510722
    21 1.537458 0.109715 1.664489 -0.264662 -0.055995 0.783079
    22 0.928313 0.000000 0.000002 0.000000 0.000000 -0.453501
    23 0.928311 0.000000 0.000001 0.000000 0.000000 0.000000
    24 2.686395 -0.427337 0.044204 -0.005762 0.043239 -0.157074
    25 1.435260 0.000000 0.000001 0.000000 0.000000 0.732613
    26 1.482593 0.000000 -0.000001 0.000000 0.000000 1.168644
    27 2.046984 0.000001 0.000000 0.168928 0.403784 -0.464253
    28 -0.000005 0.000007 3.713254 -3.289300 -0.165475 1.249615
    29 18.045723 0.000000 0.000000 0.000000 0.000000 -1.732931
    30 17.597597 0.000000 0.000000 -0.251405 0.197505 -0.164508
    31 0.000005 -0.000003 -3.713254 0.821892 2.312307 5.493555
    32 18.045721 0.000000 0.000000 0.000000 0.000000 -2.673768
    33 17.597597 0.000000 0.000000 0.379969 0.033854 0.755924
  time 22
    0 -0.846717 1.761924 -20.600716 0.000000 0.000000 -1.585458
    1 -0.871124 0.175787 0.000000 -1.570795 -1.570787 0.000000
    2 1.293670 0.684478 -0.000001 -0.148018 -0.055993 0.076769
    3 5.309685 -0.003834 0.000000 -0.012678 0.060642 -0.043883
    4 4.826790 -0.004591 0.000000 -0.088448 -0.029470 0.054072
    5 5.792767 -0.005304 0.000000 0.031371 0.122255 0.028469
    6 6.662322 -0.001452 0.000000 0.045326 0.081914 0.160866
    7 -3.108188 1.516823 4.339626 1.238993 -1.024532 -4.799756
    8 4.827512 0.000000 -0.000002 -0.422902 -0.410344 -1.093036
    9 11.140032 0.000000 0.000000 0.070821 -0.086006 -0.554023
    10 10.314563 -0.000001 0.000001 -3.821163 0.239988 -0.527723
    11 1.646836 0.445664 -1.699647 -0.161704 0.581044 -0.283978
    12 0.928312 0.000000 0.000000 0.000000 0.000000 0.000000
    13 0.928313 0.000000 -0.000001 0.000000 0.000000 0.000000
    14 2.979373 -0.388274 -0.044205 -0.000805 -0.043611 0.000046
    15 1.435262 -0.000001 -0.000001 0.000000 0.000000 0.872146
    16 1.482593 -0.000001 0.000001 0.000000 0.000000 0.907041
    17 -2.869899 1.399667 -4.140396 -1.163265 1.764468 -4.903713
    18 4.972047 0.000000 0.000000 1.165024 -0.470417 -1.783002
    19 11.585358 0.000000 0.000001 0.386603 -0.382847 -1.495948
    20 10.127058 0.000000 0.000001 1.825564 0.689183 0.510722
    21 1.537458 0.109715 1.664489 -0.264662 -0.055995 0.783079
    22 0.928313 0.000000 0.000002 0.000000 0.000000 -0.453501
    23 0.928311 0.000000 0.000001 0.000000 0.000000 0.000000
    24 2.686395 -0.427337 0.044204 -0.005762 0.043239 -0.157074
    25 1.435260 0.000000 0.000001 0.000000 0.000000 0.732613
    26 1.482593 0.000000 -0.000001 0.000000 0.000000 1.168644
    27 2.046984 0.000001 0.000000 0.260609 0.437153 -0.491930
    28 -0.000005 0.000007 3.713254 -3.289300 -0.165475 1.249615
    29 18.045723 0.000000 0.000000 0.000000 0.000000 -1.732931
    30 17.597597 0.000000 0.000000 -0.251405 0.197505 -0.164508
    31 0.000005 -0.000003 -3.713254 0.821892 2.312307 5.493555
    32 18.045721 0.000000 0.000000 0.000000 0.000000 -2.673768
    33 17.597597 0.000000 0.000000 0.379969 0.033854 0.755924
  time 23
    0 -0.846717 1.761924 -20.600716 0.000000 0.000000 -1.585458
    1 -0.871124 0.175787 0.000000 -1.570795 -1.570787 0.000000
    2 1.293670 0.684478 -0.000001 -0.148018 -0.055993 0.076769
    3 5.309685 -0.003834 0.000000 -0.012678 0.060642 -0.043883
    4 4.826790 -0.004591 0.000000 -0.088448 -0.029470 0.054072
    5 5.792767 -0.005304 0.000000 0.031371 0.122255 0.028469
    6 6.662322 -0.001452 0.000000 0.045326 0.081914 0.160866
    7 -3.108188 1.516823 4.339626 1.238993 -1.024532 -4.799756
    8 4.827512 0.000000 -0.000002 -0.424736 -0.403692 -1.073019
    9 11.140032 0.000000 0.000000 0.070821 -0.093846 -0.610682
    10 10.314563 -0.000001 0.000001 -3.988822 0.203081 -0.504208
    11 1.646836 0.445664 -1.699647 -0.161704 0.581044 -0.283978
    12 0.928312 0.000000 0.000000 0.000000 0.000000 0.000000
    13 0.928313 0.000000 -0.000001 0.000000 0.000000 0.000000
    14 2.979373 -0.388274 -0.044205 -0.000805 -0.043611 0.000046
    15 1.435262 -0.000001 -0.000001 0.000000 0.000000 0.872146
    16 1.482593 -0.000001 0.000001 0.000000 0.000000 0.907041
    17 -2.869899 1.399667 -4.140396 -1.163265 1.764468 -4.903713
    18 4.972047 0.000000 0.000000 1.165869 -0.470417 -1.787994
    19 11.585358 0.000000 0.000001 0.386603 -0.382733 -1.488597
    20 10.127058 0.000000 0.000001 1.825564 0.689183 0.510722
    21 1.537458 0.109715 1.664489 -0.264662 -0.055995 0.783079
    22 0.928313 0.000000 0.000002 0.000000 0.000000 -0.453501
    23 0.928311 0.000000 0.000001 0.000000 0.000000 0.000000
    24 2.686395 -0.427337 0.044204 -0.005762 0.043239 -0.157074
    25 1.435260 0.000000 0.000001 0.000000 0.000000 0.732613
    26 1.482593 0.000000 -0.000001 0.000000 0.000000 1.168644
    27 2.046984 0.000001 0.000000 0.299039 0.451167 -0.503001
    28 -0.000005 0.000007 3.713254 -3.289300 -0.165475 1.249615
    29 18.045723 0.000000 0.000000 0.000000 0.000000 -1.732931
    30 17.597597 0.000000 0.000000 -0.251405 0.197505 -0.164508
    31 0.000005 -0.000003 -3.713254 0.821892 2.312307 5.493555
    32 18.045721 0.000000 0.000000 0.000000 0.000000 -2.673768
    33 17.597597 0.000000 0.000000 0.379969 0.033854 0.755924
end
