version 1
nodes
  0 "Bip01" -1
  1 "Bip01 Pelvis" 0
  2 "Bip01 Spine" 1
  3 "Bip01 Spine1" 2
  4 "Bip01 Spine2" 3
  5 "Bip01 Spine3" 4
  6 "Bip01 Neck" 5
  7 "Bip01 L Arm" 6
  8 "Bip01 L Arm1" 7
  9 "Bip01 L Arm2" 8
  10 "Bip01 L Hand" 9
  11 "Bip01 L Finger0" 10
  12 "Bip01 L Finger01" 11
  13 "Bip01 L Finger02" 12
  14 "Bip01 L Finger1" 10
  15 "Bip01 L Finger11" 14
  16 "Bip01 L Finger12" 15
  17 "Bip01 R Arm" 6
  18 "Bip01 R Arm1" 17
  19 "Bip01 R Arm2" 18
  20 "Bip01 R Hand" 19
  21 "Bip01 R Finger0" 20
  22 "Bip01 R Finger01" 21
  23 "Bip01 R Finger02" 22
  24 "Bip01 R Finger1" 20
  25 "Bip01 R Finger11" 24
  26 "Bip01 R Finger12" 25
  27 "Bip01 Head" 6
  28 "Bip01 L Leg" 1
  29 "Bip01 L Leg1" 28
  30 "Bip01 L Foot" 29
  31 "Bip01 R Leg" 1
  32 "Bip01 R Leg1" 31
  33 "Bip01 R Foot" 32
end
skeleton
  time 0
    0 0.450198 3.097902 -20.639779 0.000000 0.000000 -1.571017
    1 -0.000004 0.000000 0.000000 -1.570795 -1.570787 0.000000
    2 1.293670 0.684478 -0.000001 -0.015333 -0.019248 0.165212
    3 5.309685 -0.003834 0.000000 -0.040552 -0.044535 0.232129
    4 4.826790 -0.004591 0.000000 -0.183476 0.001486 0.256299
    5 5.792767 -0.005304 0.000000 -0.197595 0.002709 0.199970
    6 6.662322 -0.001452 0.000000 -0.129194 0.000013 0.320191
    7 -3.299600 0.473822 4.433379 2.077707 -0.921129 -5.614499
    8 4.827512 0.000000 -0.000002 -1.071559 0.658733 -0.768357
    9 11.140032 0.000000 0.000000 0.000000 0.000000 -1.084962
    10 10.314563 -0.000001 0.000001 -3.718331 0.017704 0.351994
    11 1.646836 0.445664 -1.699647 1.049811 0.782103 0.524138
    12 0.928312 0.000000 0.000000 0.000000 0.000000 0.126060
    13 0.928313 0.000000 -0.000001 0.000000 0.000000 -0.007563
    14 2.979373 -0.388274 -0.044205 0.012725 -0.159646 0.533030
    15 1.435262 -0.000001 -0.000001 0.000000 0.000000 0.451638
    16 1.482593 -0.000001 0.000001 0.000000 0.000000 0.623036
    17 -3.045686 1.469982 -3.984141 -0.840463 1.216287 -4.279513
    18 4.972047 0.000000 0.000000 0.281442 -0.381229 -1.331158
    19 11.585358 0.000000 0.000001 0.000000 0.000000 -1.861629
    20 10.127058 0.000000 0.000001 2.612706 0.025721 1.415862
    21 1.537458 0.109715 1.664489 -0.283426 -0.440989 0.285820
    22 0.928313 0.000000 0.000002 0.000000 0.000000 0.425276
    23 0.928311 0.000000 0.000001 0.000000 0.000000 0.536770
    24 2.686395 -0.427337 0.044204 -0.081493 -0.128620 -0.228511
    25 1.435260 0.000000 0.000001 0.000000 0.000000 0.259343
    26 1.482593 0.000000 -0.000001 0.000000 0.000000 0.566486
    27 2.046984 0.000001 0.000000 0.687173 0.356874 -0.101166
    28 -0.000005 0.000007 3.713254 -3.293902 -0.161448 1.264185
    29 18.045723 0.000000 0.000000 0.000000 0.000000 -1.669796
    30 17.597597 0.000000 0.000000 -0.254040 0.198982 -0.213244
    31 0.000005 -0.000003 -3.713254 0.821892 2.312307 5.493555
    32 18.045721 0.000000 0.000000 0.000000 0.000000 -2.673768
    33 17.597597 0.000000 0.000000 0.379969 0.033854 0.755924
  time 1
    0 0.450198 3.097902 -20.639779 0.000000 0.000000 -1.571017
    1 -0.000004 0.000000 0.000000 -1.570795 -1.570787 0.000000
    2 1.293670 0.684478 -0.000001 -0.015333 -0.019248 0.165212
    3 5.309685 -0.003834 0.000000 -0.109879 -0.037847 0.233330
    4 4.826790 -0.004591 0.000000 -0.303320 0.008857 0.258725
    5 5.792767 -0.005304 0.000000 -0.334050 -0.011517 0.208607
    6 6.662322 -0.001452 0.000000 -0.129194 0.000013 0.320191
    7 -3.299600 0.473822 4.433379 2.077707 -0.921129 -5.614499
    8 4.827512 0.000000 -0.000002 -0.875934 0.935019 -0.258939
    9 11.140032 0.000000 0.000000 0.000000 0.000000 -1.730666
    10 10.314563 -0.000001 0.000001 -3.704020 0.016955 0.768366
    11 1.646836 0.445664 -1.699647 1.049811 0.782103 0.524138
    12 0.928312 0.000000 0.000000 0.000000 0.000000 0.126060
    13 0.928313 0.000000 -0.000001 0.000000 0.000000 -0.007563
    14 2.979373 -0.388274 -0.044205 0.012725 -0.159646 0.533030
    15 1.435262 -0.000001 -0.000001 0.000000 0.000000 0.451638
    16 1.482593 -0.000001 0.000001 0.000000 0.000000 0.623036
    17 -3.045686 1.469982 -3.984141 0.242104 1.323157 -3.222674
    18 4.972047 0.000000 0.000000 0.320181 -0.383961 -1.774284
    19 11.585358 0.000000 0.000001 0.000000 0.000000 -1.819074
    20 10.127058 0.000000 0.000001 2.579958 -0.187426 1.292959
    21 1.537458 0.109715 1.664489 -0.283426 -0.440989 0.285820
    22 0.928313 0.000000 0.000002 0.000000 0.000000 0.425276
    23 0.928311 0.000000 0.000001 0.000000 0.000000 0.536770
    24 2.686395 -0.427337 0.044204 -0.081493 -0.128620 -0.228511
    25 1.435260 0.000000 0.000001 0.000000 0.000000 0.259343
    26 1.482593 0.000000 -0.000001 0.000000 0.000000 0.566486
    27 2.046984 0.000001 0.000000 0.893195 0.270960 -0.117529
    28 -0.000005 0.000007 3.713254 -3.293902 -0.161448 1.264185
    29 18.045723 0.000000 0.000000 0.000000 0.000000 -1.669796
    30 17.597597 0.000000 0.000000 -0.254040 0.198982 -0.213244
    31 0.000005 -0.000003 -3.713254 0.821892 2.312307 5.493555
    32 18.045721 0.000000 0.000000 0.000000 0.000000 -2.673768
    33 17.597597 0.000000 0.000000 0.379969 0.033854 0.755924
  time 2
    0 0.450198 3.097902 -20.639779 0.000000 0.000000 -1.571017
    1 -0.000004 0.000000 0.000000 -1.570795 -1.570787 0.000000
    2 1.293670 0.684478 -0.000001 -0.015333 -0.019248 0.165212
    3 5.309685 -0.003834 0.000000 -0.104825 -0.038363 0.233241
    4 4.826790 -0.004591 0.000000 -0.271333 0.006843 0.258151
    5 5.792767 -0.005304 0.000000 -0.300953 -0.008162 0.206344
    6 6.662322 -0.001452 0.000000 -0.129194 0.000013 0.320191
    7 -3.299600 0.473822 4.433379 2.077707 -0.921129 -5.614499
    8 4.827512 0.000000 -0.000002 -0.949114 0.858444 -0.380249
    9 11.140032 0.000000 0.000000 0.000000 0.000000 -1.639085
    10 10.314563 -0.000001 0.000001 -3.693120 0.010679 0.705600
    11 1.646836 0.445664 -1.699647 1.049811 0.782103 0.524138
    12 0.928312 0.000000 0.000000 0.000000 0.000000 0.126060
    13 0.928313 0.000000 -0.000001 0.000000 0.000000 -0.007563
    14 2.979373 -0.388274 -0.044205 0.012725 -0.159646 0.533030
    15 1.435262 -0.000001 -0.000001 0.000000 0.000000 0.451638
    16 1.482593 -0.000001 0.000001 0.000000 0.000000 0.623036
    17 -3.045686 1.469982 -3.984141 0.147718 1.327600 -3.315294
    18 4.972047 0.000000 0.000000 0.316241 -0.381550 -1.728227
    19 11.585358 0.000000 0.000001 0.000000 0.000000 -1.819074
    20 10.127058 0.000000 0.000001 2.574418 -0.114044 1.287957
    21 1.537458 0.109715 1.664489 -0.283426 -0.440989 0.285820
    22 0.928313 0.000000 0.000002 0.000000 0.000000 0.425276
    23 0.928311 0.000000 0.000001 0.000000 0.000000 0.536770
    24 2.686395 -0.427337 0.044204 -0.081493 -0.128620 -0.228511
    25 1.435260 0.000000 0.000001 0.000000 0.000000 0.259343
    26 1.482593 0.000000 -0.000001 0.000000 0.000000 0.566486
    27 2.046984 0.000001 0.000000 0.763343 0.300375 -0.162239
    28 -0.000005 0.000007 3.713254 -3.293902 -0.161448 1.264185
    29 18.045723 0.000000 0.000000 0.000000 0.000000 -1.669796
    30 17.597597 0.000000 0.000000 -0.254040 0.198982 -0.213244
    31 0.000005 -0.000003 -3.713254 0.821892 2.312307 5.493555
    32 18.045721 0.000000 0.000000 0.000000 0.000000 -2.673768
    33 17.597597 0.000000 0.000000 0.379969 0.033854 0.755924
  time 3
    0 0.450198 3.097902 -20.639779 0.000000 0.000000 -1.571017
    1 -0.000004 0.000000 0.000000 -1.570795 -1.570787 0.000000
    2 1.293670 0.684478 -0.000001 -0.015333 -0.019248 0.165212
    3 5.309685 -0.003834 0.000000 -0.083894 -0.040352 0.232924
    4 4.826790 -0.004591 0.000000 -0.218497 0.003595 0.257115
    5 5.792767 -0.005304 0.000000 -0.243140 -0.002145 0.202648
    6 6.662322 -0.001452 0.000000 -0.129194 0.000013 0.320191
    7 -3.299600 0.473822 4.433379 2.077707 -0.921129 -5.614499
    8 4.827512 0.000000 -0.000002 -1.033454 0.740766 -0.578332
    9 11.140032 0.000000 0.000000 0.000000 0.000000 -1.419841
    10 10.314563 -0.000001 0.000001 -3.683927 0.003466 0.556029
    11 1.646836 0.445664 -1.699647 1.049811 0.782103 0.524138
    12 0.928312 0.000000 0.000000 0.000000 0.000000 0.126060
    13 0.928313 0.000000 -0.000001 0.000000 0.000000 -0.007563
    14 2.979373 -0.388274 -0.044205 0.012725 -0.159646 0.533030
    15 1.435262 -0.000001 -0.000001 0.000000 0.000000 0.451638
    16 1.482593 -0.000001 0.000001 0.000000 0.000000 0.623036
    17 -3.045686 1.469982 -3.984141 -0.252082 1.322526 -3.707322
    18 4.972047 0.000000 0.000000 0.301796 -0.378497 -1.583802
    19 11.585358 0.000000 0.000001 0.000000 0.000000 -1.829610
    20 10.127058 0.000000 0.000001 2.577714 -0.007660 1.314518
    21 1.537458 0.109715 1.664489 -0.283426 -0.440989 0.285820
    22 0.928313 0.000000 0.000002 0.000000 0.000000 0.425276
    23 0.928311 0.000000 0.000001 0.000000 0.000000 0.536770
    24 2.686395 -0.427337 0.044204 -0.081493 -0.128620 -0.228511
    25 1.435260 0.000000 0.000001 0.000000 0.000000 0.259343
    26 1.482593 0.000000 -0.000001 0.000000 0.000000 0.566486
    27 2.046984 0.000001 0.000000 0.665459 0.329288 -0.164307
    28 -0.000005 0.000007 3.713254 -3.293902 -0.161448 1.264185
    29 18.045723 0.000000 0.000000 0.000000 0.000000 -1.669796
    30 17.597597 0.000000 0.000000 -0.254040 0.198982 -0.213244
    31 0.000005 -0.000003 -3.713254 0.821892 2.312307 5.493555
    32 18.045721 0.000000 0.000000 0.000000 0.000000 -2.673768
    33 17.597597 0.000000 0.000000 0.379969 0.033854 0.755924
  time 4
    0 0.450198 3.097902 -20.639779 0.000000 0.000000 -1.571017
    1 -0.000004 0.000000 0.000000 -1.570795 -1.570787 0.000000
    2 1.293670 0.684478 -0.000001 -0.015333 -0.019248 0.165212
    3 5.309685 -0.003834 0.000000 -0.063303 -0.042354 0.232588
    4 4.826790 -0.004591 0.000000 -0.197858 0.002373 0.256674
    5 5.792767 -0.005304 0.000000 -0.217580 0.000527 0.201112
    6 6.662322 -0.001452 0.000000 -0.129194 0.000013 0.320191
    7 -3.299600 0.473822 4.433379 2.077707 -0.921129 -5.614499
    8 4.827512 0.000000 -0.000002 -1.055934 0.696679 -0.678327
    9 11.140032 0.000000 0.000000 0.000000 0.000000 -1.259502
    10 10.314563 -0.000001 0.000001 -3.696437 0.006744 0.455289
    11 1.646836 0.445664 -1.699647 1.049811 0.782103 0.524138
    12 0.928312 0.000000 0.000000 0.000000 0.000000 0.126060
    13 0.928313 0.000000 -0.000001 0.000000 0.000000 -0.007563
    14 2.979373 -0.388274 -0.044205 0.012725 -0.159646 0.533030
    15 1.435262 -0.000001 -0.000001 0.000000 0.000000 0.451638
    16 1.482593 -0.000001 0.000001 0.000000 0.000000 0.623036
    17 -3.045686 1.469982 -3.984141 -0.583769 1.284195 -4.031347
    18 4.972047 0.000000 0.000000 0.290447 -0.379059 -1.460874
    19 11.585358 0.000000 0.000001 0.000000 0.000000 -1.844231
    20 10.127058 0.000000 0.000001 2.592861 0.018440 1.360138
    21 1.537458 0.109715 1.664489 -0.283426 -0.440989 0.285820
    22 0.928313 0.000000 0.000002 0.000000 0.000000 0.425276
    23 0.928311 0.000000 0.000001 0.000000 0.000000 0.536770
    24 2.686395 -0.427337 0.044204 -0.081493 -0.128620 -0.228511
    25 1.435260 0.000000 0.000001 0.000000 0.000000 0.259343
    26 1.482593 0.000000 -0.000001 0.000000 0.000000 0.566486
    27 2.046984 0.000001 0.000000 0.670672 0.343096 -0.133649
    28 -0.000005 0.000007 3.713254 -3.293902 -0.161448 1.264185
    29 18.045723 0.000000 0.000000 0.000000 0.000000 -1.669796
    30 17.597597 0.000000 0.000000 -0.254040 0.198982 -0.213244
    31 0.000005 -0.000003 -3.713254 0.821892 2.312307 5.493555
    32 18.045721 0.000000 0.000000 0.000000 0.000000 -2.673768
    33 17.597597 0.000000 0.000000 0.379969 0.033854 0.755924
  time 5
    0 0.450198 3.097902 -20.639779 0.000000 0.000000 -1.571017
    1 -0.000004 0.000000 0.000000 -1.570795 -1.570787 0.000000
    2 1.293670 0.684478 -0.000001 -0.015333 -0.019248 0.165212
    3 5.309685 -0.003834 0.000000 -0.040552 -0.044535 0.232129
    4 4.826790 -0.004591 0.000000 -0.183476 0.001486 0.256299
    5 5.792767 -0.005304 0.000000 -0.197595 0.002709 0.199970
    6 6.662322 -0.001452 0.000000 -0.129194 0.000013 0.320191
    7 -3.299600 0.473822 4.433379 2.077707 -0.921129 -5.614499
    8 4.827512 0.000000 -0.000002 -1.071559 0.658733 -0.768357
    9 11.140032 0.000000 0.000000 0.000000 0.000000 -1.084962
    10 10.314563 -0.000001 0.000001 -3.718331 0.017704 0.351994
    11 1.646836 0.445664 -1.699647 1.049811 0.782103 0.524138
    12 0.928312 0.000000 0.000000 0.000000 0.000000 0.126060
    13 0.928313 0.000000 -0.000001 0.000000 0.000000 -0.007563
    14 2.979373 -0.388274 -0.044205 0.012725 -0.159646 0.533030
    15 1.435262 -0.000001 -0.000001 0.000000 0.000000 0.451638
    16 1.482593 -0.000001 0.000001 0.000000 0.000000 0.623036
    17 -3.045686 1.469982 -3.984141 -0.840463 1.216287 -4.279513
    18 4.972047 0.000000 0.000000 0.281442 -0.381229 -1.331158
    19 11.585358 0.000000 0.000001 0.000000 0.000000 -1.861629
    20 10.127058 0.000000 0.000001 2.612706 0.025721 1.415862
    21 1.537458 0.109715 1.664489 -0.283426 -0.440989 0.285820
    22 0.928313 0.000000 0.000002 0.000000 0.000000 0.425276
    23 0.928311 0.000000 0.000001 0.000000 0.000000 0.536770
    24 2.686395 -0.427337 0.044204 -0.081493 -0.128620 -0.228511
    25 1.435260 0.000000 0.000001 0.000000 0.000000 0.259343
    26 1.482593 0.000000 -0.000001 0.000000 0.000000 0.566486
    27 2.046984 0.000001 0.000000 0.687173 0.356874 -0.101166
    28 -0.000005 0.000007 3.713254 -3.293902 -0.161448 1.264185
    29 18.045723 0.000000 0.000000 0.000000 0.000000 -1.669796
    30 17.597597 0.000000 0.000000 -0.254040 0.198982 -0.213244
    31 0.000005 -0.000003 -3.713254 0.821892 2.312307 5.493555
    32 18.045721 0.000000 0.000000 0.000000 0.000000 -2.673768
    33 17.597597 0.000000 0.000000 0.379969 0.033854 0.755924
end
