version 1
nodes
  0 "Bip01" -1
  1 "Bip01 Pelvis" 0
  2 "Bip01 Spine" 1
  3 "Bip01 Spine1" 2
  4 "Bip01 Spine2" 3
  5 "Bip01 Spine3" 4
  6 "Bip01 Neck" 5
  7 "Bip01 L Arm" 6
  8 "Bip01 L Arm1" 7
  9 "Bip01 L Arm2" 8
  10 "Bip01 L Hand" 9
  11 "Bip01 L Finger0" 10
  12 "Bip01 L Finger01" 11
  13 "Bip01 L Finger02" 12
  14 "Bip01 L Finger1" 10
  15 "Bip01 L Finger11" 14
  16 "Bip01 L Finger12" 15
  17 "Bip01 R Arm" 6
  18 "Bip01 R Arm1" 17
  19 "Bip01 R Arm2" 18
  20 "Bip01 R Hand" 19
  21 "Bip01 R Finger0" 20
  22 "Bip01 R Finger01" 21
  23 "Bip01 R Finger02" 22
  24 "Bip01 R Finger1" 20
  25 "Bip01 R Finger11" 24
  26 "Bip01 R Finger12" 25
  27 "Bip01 Head" 6
  28 "Bip01 L Leg" 1
  29 "Bip01 L Leg1" 28
  30 "Bip01 L Foot" 29
  31 "Bip01 R Leg" 1
  32 "Bip01 R Leg1" 31
  33 "Bip01 R Foot" 32
end
skeleton
  time 0
    0 0.012684 0.918148 -20.600716 0.000000 0.000000 -1.585458
    1 -1.718806 0.261727 0.000000 -1.570795 -1.570787 0.000000
    2 1.293670 0.684478 -0.000001 0.014129 0.072434 0.239927
    3 5.309685 -0.003834 0.000000 -0.005309 -0.074592 0.005787
    4 4.826790 -0.004591 0.000000 -0.173882 0.013890 -0.017673
    5 5.792767 -0.005304 0.000000 -0.138775 -0.014382 -0.086038
    6 6.662322 -0.001452 0.000000 -0.016179 0.004411 0.589853
    7 -2.928495 1.801988 4.351345 1.009329 -1.216554 -4.710550
    8 4.827512 0.000000 -0.000002 0.242336 0.215309 -1.659729
    9 11.140032 0.000000 0.000000 0.000000 0.000000 -1.586846
    10 10.314563 -0.000001 0.000001 -0.504277 -0.357079 0.237841
    11 1.646836 0.445664 -1.699647 -0.161704 0.581044 -0.283978
    12 0.928312 0.000000 0.000000 0.000000 0.000000 0.000000
    13 0.928313 0.000000 -0.000001 0.000000 0.000000 0.000000
    14 2.979373 -0.388274 -0.044205 -0.041673 -0.012835 1.254620
    15 1.435262 -0.000001 -0.000001 0.000000 0.000000 0.872146
    16 1.482593 -0.000001 0.000001 0.000000 0.000000 0.907041
    17 -2.670674 1.786398 -4.128677 0.802780 1.264871 -2.951903
    18 4.972047 0.000000 0.000000 -1.244379 -0.583709 0.313891
    19 11.585358 0.000000 0.000001 0.000000 0.000000 -1.915374
    20 10.127058 0.000000 0.000001 1.272637 0.452395 -1.380993
    21 1.537458 0.109715 1.664489 -0.264662 -0.055995 0.783079
    22 0.928313 0.000000 0.000002 0.000000 0.000000 -0.453501
    23 0.928311 0.000000 0.000001 0.000000 0.000000 0.000000
    24 2.686395 -0.427337 0.044204 -0.005762 0.043239 -0.157074
    25 1.435260 0.000000 0.000001 0.000000 0.000000 0.732613
    26 1.482593 0.000000 -0.000001 0.000000 0.000000 1.168644
    27 2.046984 0.000001 0.000000 0.240489 0.319493 -1.288604
    28 -0.000005 0.000007 3.713254 -3.293902 -0.161448 1.264185
    29 18.045723 0.000000 0.000000 0.000000 0.000000 -1.669796
    30 17.597597 0.000000 0.000000 -0.254040 0.198982 -0.213244
    31 0.000005 -0.000003 -3.713254 0.821892 2.312307 5.493555
    32 18.045721 0.000000 0.000000 0.000000 0.000000 -2.673768
    33 17.597597 0.000000 0.000000 0.379969 0.033854 0.755924
  time 1
    0 0.012684 0.918148 -20.600716 0.000000 0.000000 -1.585458
    1 -1.687555 0.261727 0.000000 -1.570795 -1.570787 0.000000
    2 1.293670 0.684478 -0.000001 0.014129 0.072434 0.239927
    3 5.309685 -0.003834 0.000000 -0.005718 -0.072950 0.011439
    4 4.826790 -0.004591 0.000000 -0.172299 0.012224 -0.032180
    5 5.792767 -0.005304 0.000000 -0.138146 -0.017402 -0.103209
    6 6.662322 -0.001452 0.000000 -0.016179 0.004411 0.589853
    7 -2.928495 1.801988 4.351345 1.009329 -1.216554 -4.710550
    8 4.827512 0.000000 -0.000002 0.235081 0.242597 -1.657303
    9 11.140032 0.000000 0.000000 0.000000 0.000000 -1.582716
    10 10.314563 -0.000001 0.000001 -0.500107 -0.362605 0.231222
    11 1.646836 0.445664 -1.699647 -0.161704 0.581044 -0.283978
    12 0.928312 0.000000 0.000000 0.000000 0.000000 0.000000
    13 0.928313 0.000000 -0.000001 0.000000 0.000000 0.000000
    14 2.979373 -0.388274 -0.044205 -0.041673 -0.012835 1.254620
    15 1.435262 -0.000001 -0.000001 0.000000 0.000000 0.872146
    16 1.482593 -0.000001 0.000001 0.000000 0.000000 0.907041
    17 -2.670674 1.786398 -4.128677 0.799150 1.263715 -2.955735
    18 4.972047 0.000000 0.000000 -1.267078 -0.567559 0.332992
    19 11.585358 0.000000 0.000001 0.000000 0.000000 -1.915374
    20 10.127058 0.000000 0.000001 1.272847 0.452489 -1.380493
    21 1.537458 0.109715 1.664489 -0.264662 -0.055995 0.783079
    22 0.928313 0.000000 0.000002 0.000000 0.000000 -0.453501
    23 0.928311 0.000000 0.000001 0.000000 0.000000 0.000000
    24 2.686395 -0.427337 0.044204 -0.005762 0.043239 -0.157074
    25 1.435260 0.000000 0.000001 0.000000 0.000000 0.732613
    26 1.482593 0.000000 -0.000001 0.000000 0.000000 1.168644
    27 2.046984 0.000001 0.000000 0.240920 0.316454 -1.262691
    28 -0.000005 0.000007 3.713254 -3.293615 -0.161640 1.263802
    29 18.045723 0.000000 0.000000 0.000000 0.000000 -1.672017
    30 17.597597 0.000000 0.000000 -0.253837 0.198859 -0.211410
    31 0.000005 -0.000003 -3.713254 0.821221 2.313265 5.496815
    32 18.045721 0.000000 0.000000 0.000000 0.000000 -2.673768
    33 17.597597 0.000000 0.000000 0.377989 0.036497 0.758049
  time 2
    0 0.012684 0.918148 -20.600716 0.000000 0.000000 -1.585458
    1 -1.656305 0.261727 0.000000 -1.570795 -1.570787 0.000000
    2 1.293670 0.684478 -0.000001 0.014129 0.072434 0.239927
    3 5.309685 -0.003834 0.000000 -0.006177 -0.071176 0.017551
    4 4.826790 -0.004591 0.000000 -0.170563 0.010475 -0.047769
    5 5.792767 -0.005304 0.000000 -0.137354 -0.020542 -0.120961
    6 6.662322 -0.001452 0.000000 -0.016179 0.004411 0.589853
    7 -2.928495 1.801988 4.351345 1.009329 -1.216554 -4.710550
    8 4.827512 0.000000 -0.000002 0.226711 0.271249 -1.656610
    9 11.140032 0.000000 0.000000 0.000000 0.000000 -1.578007
    10 10.314563 -0.000001 0.000001 -0.496221 -0.368132 0.225358
    11 1.646836 0.445664 -1.699647 -0.161704 0.581044 -0.283978
    12 0.928312 0.000000 0.000000 0.000000 0.000000 0.000000
    13 0.928313 0.000000 -0.000001 0.000000 0.000000 0.000000
    14 2.979373 -0.388274 -0.044205 -0.041673 -0.012835 1.254620
    15 1.435262 -0.000001 -0.000001 0.000000 0.000000 0.872146
    16 1.482593 -0.000001 0.000001 0.000000 0.000000 0.907041
    17 -2.670674 1.786398 -4.128677 0.802780 1.264871 -2.951903
    18 4.972047 0.000000 0.000000 -1.292404 -0.552052 0.353558
    19 11.585358 0.000000 0.000001 0.000000 0.000000 -1.915374
    20 10.127058 0.000000 0.000001 1.272637 0.452395 -1.380993
    21 1.537458 0.109715 1.664489 -0.264662 -0.055995 0.783079
    22 0.928313 0.000000 0.000002 0.000000 0.000000 -0.453501
    23 0.928311 0.000000 0.000001 0.000000 0.000000 0.000000
    24 2.686395 -0.427337 0.044204 -0.005762 0.043239 -0.157074
    25 1.435260 0.000000 0.000001 0.000000 0.000000 0.732613
    26 1.482593 0.000000 -0.000001 0.000000 0.000000 1.168644
    27 2.046984 0.000001 0.000000 0.241351 0.313209 -1.235378
    28 -0.000005 0.000007 3.713254 -3.293423 -0.161832 1.263322
    29 18.045723 0.000000 0.000000 0.000000 0.000000 -1.674311
    30 17.597597 0.000000 0.000000 -0.253609 0.198711 -0.209530
    31 0.000005 -0.000003 -3.713254 0.820359 2.314224 5.500170
    32 18.045721 0.000000 0.000000 0.000000 0.000000 -2.673768
    33 17.597597 0.000000 0.000000 0.375909 0.039318 0.760312
  time 3
    0 0.012684 0.918148 -20.600716 0.000000 0.000000 -1.585458
    1 -1.621147 0.253914 0.000000 -1.570795 -1.570787 0.000000
    2 1.293670 0.684478 -0.000001 0.014129 0.072434 0.239927
    3 5.309685 -0.003834 0.000000 -0.006637 -0.069439 0.023610
    4 4.826790 -0.004591 0.000000 -0.168827 0.008797 -0.062805
    5 5.792767 -0.005304 0.000000 -0.136599 -0.023586 -0.138464
    6 6.662322 -0.001452 0.000000 -0.013507 0.007490 0.631806
    7 -2.862086 1.934805 4.339626 1.002236 -1.214159 -4.745906
    8 4.827512 0.000000 -0.000002 0.216667 0.298537 -1.658690
    9 11.140032 0.000000 0.000000 0.000000 0.000000 -1.573515
    10 10.314563 -0.000001 0.000001 -0.493567 -0.373097 0.222222
    11 1.646836 0.445664 -1.699647 -0.161704 0.581044 -0.283978
    12 0.928312 0.000000 0.000000 0.000000 0.000000 0.000000
    13 0.928313 0.000000 -0.000001 0.000000 0.000000 0.000000
    14 2.979373 -0.388274 -0.044205 -0.041673 -0.012835 1.254620
    15 1.435262 -0.000001 -0.000001 0.000000 0.000000 0.872146
    16 1.482593 -0.000001 0.000001 0.000000 0.000000 0.907041
    17 -2.588640 1.891870 -4.140396 0.830580 1.272154 -2.965696
    18 4.972047 0.000000 0.000000 -1.320262 -0.539758 0.375322
    19 11.585358 0.000000 0.000001 0.000000 0.000000 -1.915619
    20 10.127058 0.000000 0.000001 1.271655 0.451544 -1.383594
    21 1.537458 0.109715 1.664489 -0.264662 -0.055995 0.783079
    22 0.928313 0.000000 0.000002 0.000000 0.000000 -0.453501
    23 0.928311 0.000000 0.000001 0.000000 0.000000 0.000000
    24 2.686395 -0.427337 0.044204 -0.005762 0.043239 -0.157074
    25 1.435260 0.000000 0.000001 0.000000 0.000000 0.732613
    26 1.482593 0.000000 -0.000001 0.000000 0.000000 1.168644
    27 2.046984 0.000001 0.000000 0.240101 0.307249 -1.260866
    28 -0.000005 0.000007 3.713254 -3.293135 -0.162023 1.262939
    29 18.045723 0.000000 0.000000 0.000000 0.000000 -1.676457
    30 17.597597 0.000000 0.000000 -0.253407 0.198563 -0.207696
    31 0.000005 -0.000003 -3.713254 0.819305 2.315087 5.503430
    32 18.045721 0.000000 0.000000 0.000000 0.000000 -2.673768
    33 17.597597 0.000000 0.000000 0.373896 0.042020 0.762391
  time 4
    0 0.012684 0.918148 -20.600716 0.000000 0.000000 -1.585458
    1 -1.593803 0.253914 0.000000 -1.570795 -1.570787 0.000000
    2 1.293670 0.684478 -0.000001 0.014129 0.072434 0.239927
    3 5.309685 -0.003834 0.000000 -0.007011 -0.067785 0.029315
    4 4.826790 -0.004591 0.000000 -0.167358 0.007383 -0.075704
    5 5.792767 -0.005304 0.000000 -0.135789 -0.026294 -0.154659
    6 6.662322 -0.001452 0.000000 -0.010654 0.010444 0.673702
    7 -2.795678 2.063715 4.339626 0.994759 -1.211823 -4.780976
    8 4.827512 0.000000 -0.000002 0.206941 0.322328 -1.661982
    9 11.140032 0.000000 0.000000 0.000000 0.000000 -1.569602
    10 10.314563 -0.000001 0.000001 -0.491672 -0.377312 0.220539
    11 1.646836 0.445664 -1.699647 -0.161704 0.581044 -0.283978
    12 0.928312 0.000000 0.000000 0.000000 0.000000 0.000000
    13 0.928313 0.000000 -0.000001 0.000000 0.000000 0.000000
    14 2.979373 -0.388274 -0.044205 -0.041673 -0.012835 1.254620
    15 1.435262 -0.000001 -0.000001 0.000000 0.000000 0.872146
    16 1.482593 -0.000001 0.000001 0.000000 0.000000 0.907041
    17 -2.490981 1.985622 -4.140396 0.864112 1.280514 -2.973550
    18 4.972047 0.000000 0.000000 -1.346432 -0.530036 0.394955
    19 11.585358 0.000000 0.000001 0.000000 0.000000 -1.915946
    20 10.127058 0.000000 0.000001 1.270393 0.450504 -1.386745
    21 1.537458 0.109715 1.664489 -0.264662 -0.055995 0.783079
    22 0.928313 0.000000 0.000002 0.000000 0.000000 -0.453501
    23 0.928311 0.000000 0.000001 0.000000 0.000000 0.000000
    24 2.686395 -0.427337 0.044204 -0.005762 0.043239 -0.157074
    25 1.435260 0.000000 0.000001 0.000000 0.000000 0.732613
    26 1.482593 0.000000 -0.000001 0.000000 0.000000 1.168644
    27 2.046984 0.000001 0.000000 0.239024 0.301732 -1.289334
    28 -0.000005 0.000007 3.713254 -3.293039 -0.162215 1.262651
    29 18.045723 0.000000 0.000000 0.000000 0.000000 -1.678234
    30 17.597597 0.000000 0.000000 -0.253280 0.198490 -0.206229
    31 0.000005 -0.000003 -3.713254 0.818538 2.315854 5.505922
    32 18.045721 0.000000 0.000000 0.000000 0.000000 -2.673768
    33 17.597597 0.000000 0.000000 0.372252 0.044288 0.764053
  time 5
    0 0.012684 0.918148 -20.600716 0.000000 0.000000 -1.585458
    1 -1.578177 0.253914 0.000000 -1.570795 -1.570787 0.000000
    2 1.293670 0.684478 -0.000001 0.014129 0.072434 0.239927
    3 5.309685 -0.003834 0.000000 -0.007368 -0.066359 0.034155
    4 4.826790 -0.004591 0.000000 -0.166309 0.006388 -0.084832
    5 5.792767 -0.005304 0.000000 -0.135142 -0.028499 -0.168757
    6 6.662322 -0.001452 0.000000 -0.007706 0.013290 0.715684
    7 -2.713644 2.188719 4.324000 0.987283 -1.209605 -4.815950
    8 4.827512 0.000000 -0.000002 0.198332 0.340491 -1.665882
    9 11.140032 0.000000 0.000000 0.000000 0.000000 -1.566704
    10 10.314563 -0.000001 0.000001 -0.490724 -0.380309 0.220771
    11 1.646836 0.445664 -1.699647 -0.161704 0.581044 -0.283978
    12 0.928312 0.000000 0.000000 0.000000 0.000000 0.000000
    13 0.928313 0.000000 -0.000001 0.000000 0.000000 0.000000
    14 2.979373 -0.388274 -0.044205 -0.041673 -0.012835 1.254620
    15 1.435262 -0.000001 -0.000001 0.000000 0.000000 0.872146
    16 1.482593 -0.000001 0.000001 0.000000 0.000000 0.907041
    17 -2.397228 2.079375 -4.156022 0.901273 1.289058 -2.977573
    18 4.972047 0.000000 0.000000 -1.368662 -0.523528 0.410862
    19 11.585358 0.000000 0.000001 0.000000 0.000000 -1.916191
    20 10.127058 0.000000 0.000001 1.269060 0.449463 -1.390097
    21 1.537458 0.109715 1.664489 -0.264662 -0.055995 0.783079
    22 0.928313 0.000000 0.000002 0.000000 0.000000 -0.453501
    23 0.928311 0.000000 0.000001 0.000000 0.000000 0.000000
    24 2.686395 -0.427337 0.044204 -0.005762 0.043239 -0.157074
    25 1.435260 0.000000 0.000001 0.000000 0.000000 0.732613
    26 1.482593 0.000000 -0.000001 0.000000 0.000000 1.168644
    27 2.046984 0.000001 0.000000 0.237947 0.296982 -1.322972
    28 -0.000005 0.000007 3.713254 -3.292848 -0.162311 1.262364
    29 18.045723 0.000000 0.000000 0.000000 0.000000 -1.679344
    30 17.597597 0.000000 0.000000 -0.253204 0.198416 -0.205312
    31 0.000005 -0.000003 -3.713254 0.818154 2.316237 5.507648
    32 18.045721 0.000000 0.000000 0.000000 0.000000 -2.673768
    33 17.597597 0.000000 0.000000 0.371178 0.045728 0.765023
  time 6
    0 0.012684 0.918148 -20.600716 0.000000 0.000000 -1.585458
    1 -1.562552 0.253914 0.000000 -1.570795 -1.570787 0.000000
    2 1.293670 0.684478 -0.000001 0.014129 0.072434 0.239927
    3 5.309685 -0.003834 0.000000 -0.007624 -0.065268 0.037829
    4 4.826790 -0.004591 0.000000 -0.165718 0.005801 -0.090211
    5 5.792767 -0.005304 0.000000 -0.134440 -0.030237 -0.182232
    6 6.662322 -0.001452 0.000000 -0.004638 0.016025 0.757637
    7 -2.627704 2.309816 4.312281 0.979615 -1.207476 -4.850636
    8 4.827512 0.000000 -0.000002 0.190759 0.355585 -1.669694
    9 11.140032 0.000000 0.000000 0.000000 0.000000 -1.564675
    10 10.314563 -0.000001 0.000001 -0.490250 -0.382745 0.221932
    11 1.646836 0.445664 -1.699647 -0.161704 0.581044 -0.283978
    12 0.928312 0.000000 0.000000 0.000000 0.000000 0.000000
    13 0.928313 0.000000 -0.000001 0.000000 0.000000 0.000000
    14 2.979373 -0.388274 -0.044205 -0.041673 -0.012835 1.254620
    15 1.435262 -0.000001 -0.000001 0.000000 0.000000 0.872146
    16 1.482593 -0.000001 0.000001 0.000000 0.000000 0.907041
    17 -2.295663 2.165315 -4.163834 0.939200 1.297130 -2.980925
    18 4.972047 0.000000 0.000000 -1.388078 -0.518787 0.424173
    19 11.585358 0.000000 0.000001 0.000000 0.000000 -1.916518
    20 10.127058 0.000000 0.000001 1.267798 0.448518 -1.393398
    21 1.537458 0.109715 1.664489 -0.264662 -0.055995 0.783079
    22 0.928313 0.000000 0.000002 0.000000 0.000000 -0.453501
    23 0.928311 0.000000 0.000001 0.000000 0.000000 0.000000
    24 2.686395 -0.427337 0.044204 -0.005762 0.043239 -0.157074
    25 1.435260 0.000000 0.000001 0.000000 0.000000 0.732613
    26 1.482593 0.000000 -0.000001 0.000000 0.000000 1.168644
    27 2.046984 0.000001 0.000000 0.237085 0.292822 -1.359530
    28 -0.000005 0.000007 3.713254 -3.292752 -0.162311 1.262268
    29 18.045723 0.000000 0.000000 0.000000 0.000000 -1.680158
    30 17.597597 0.000000 0.000000 -0.253128 0.198366 -0.204670
    31 0.000005 -0.000003 -3.713254 0.817675 2.316525 5.508703
    32 18.045721 0.000000 0.000000 0.000000 0.000000 -2.673768
    33 17.597597 0.000000 0.000000 0.370440 0.046734 0.765762
  time 7
    0 0.012684 0.918148 -20.600716 0.000000 0.000000 -1.585458
    1 -1.558645 0.253914 0.000000 -1.570795 -1.570787 0.000000
    2 1.293670 0.684478 -0.000001 0.014129 0.072434 0.239927
    3 5.309685 -0.003834 0.000000 -0.007777 -0.064561 0.040319
    4 4.826790 -0.004591 0.000000 -0.165394 0.005513 -0.092901
    5 5.792767 -0.005304 0.000000 -0.133883 -0.031496 -0.194731
    6 6.662322 -0.001452 0.000000 -0.001450 0.018608 0.799590
    7 -2.541764 2.427007 4.300562 0.971659 -1.205436 -4.885226
    8 4.827512 0.000000 -0.000002 0.184302 0.368035 -1.673073
    9 11.140032 0.000000 0.000000 0.000000 0.000000 -1.563226
    10 10.314563 -0.000001 0.000001 -0.489871 -0.384806 0.223326
    11 1.646836 0.445664 -1.699647 -0.161704 0.581044 -0.283978
    12 0.928312 0.000000 0.000000 0.000000 0.000000 0.000000
    13 0.928313 0.000000 -0.000001 0.000000 0.000000 0.000000
    14 2.979373 -0.388274 -0.044205 -0.041673 -0.012835 1.254620
    15 1.435262 -0.000001 -0.000001 0.000000 0.000000 0.872146
    16 1.482593 -0.000001 0.000001 0.000000 0.000000 0.907041
    17 -2.198004 2.251256 -4.171647 0.974737 1.304070 -2.986672
    18 4.972047 0.000000 0.000000 -1.404305 -0.514609 0.434955
    19 11.585358 0.000000 0.000001 0.000000 0.000000 -1.916763
    20 10.127058 0.000000 0.000001 1.266676 0.447667 -1.396149
    21 1.537458 0.109715 1.664489 -0.264662 -0.055995 0.783079
    22 0.928313 0.000000 0.000002 0.000000 0.000000 -0.453501
    23 0.928311 0.000000 0.000001 0.000000 0.000000 0.000000
    24 2.686395 -0.427337 0.044204 -0.005762 0.043239 -0.157074
    25 1.435260 0.000000 0.000001 0.000000 0.000000 0.732613
    26 1.482593 0.000000 -0.000001 0.000000 0.000000 1.168644
    27 2.046984 0.000001 0.000000 0.236396 0.289016 -1.398582
    28 -0.000005 0.000007 3.713254 -3.292656 -0.162407 1.262172
    29 18.045723 0.000000 0.000000 0.000000 0.000000 -1.680676
    30 17.597597 0.000000 0.000000 -0.253103 0.198342 -0.204166
    31 0.000005 -0.000003 -3.713254 0.817579 2.316717 5.509565
    32 18.045721 0.000000 0.000000 0.000000 0.000000 -2.673768
    33 17.597597 0.000000 0.000000 0.369903 0.047424 0.766270
  time 8
    0 0.012684 0.918148 -20.600716 0.000000 0.000000 -1.585458
    1 -1.558645 0.253914 0.000000 -1.570795 -1.570787 0.000000
    2 1.293670 0.684478 -0.000001 0.014129 0.072434 0.239927
    3 5.309685 -0.003834 0.000000 -0.007862 -0.064130 0.041838
    4 4.826790 -0.004591 0.000000 -0.165394 0.005513 -0.092901
    5 5.792767 -0.005304 0.000000 -0.133559 -0.031951 -0.201936
    6 6.662322 -0.001452 0.000000 -0.001450 0.018608 0.799590
    7 -2.541764 2.427007 4.300562 0.971659 -1.205436 -4.885226
    8 4.827512 0.000000 -0.000002 0.180714 0.373407 -1.675586
    9 11.140032 0.000000 0.000000 0.000000 0.000000 -1.562791
    10 10.314563 -0.000001 0.000001 -0.490060 -0.385649 0.225068
    11 1.646836 0.445664 -1.699647 -0.161704 0.581044 -0.283978
    12 0.928312 0.000000 0.000000 0.000000 0.000000 0.000000
    13 0.928313 0.000000 -0.000001 0.000000 0.000000 0.000000
    14 2.979373 -0.388274 -0.044205 -0.041673 -0.012835 1.254620
    15 1.435262 -0.000001 -0.000001 0.000000 0.000000 0.872146
    16 1.482593 -0.000001 0.000001 0.000000 0.000000 0.907041
    17 -2.198004 2.251256 -4.171647 0.993080 1.307357 -2.967611
    18 4.972047 0.000000 0.000000 -1.413122 -0.513725 0.440413
    19 11.585358 0.000000 0.000001 0.000000 0.000000 -1.917008
    20 10.127058 0.000000 0.000001 1.265905 0.446910 -1.398100
    21 1.537458 0.109715 1.664489 -0.264662 -0.055995 0.783079
    22 0.928313 0.000000 0.000002 0.000000 0.000000 -0.453501
    23 0.928311 0.000000 0.000001 0.000000 0.000000 0.000000
    24 2.686395 -0.427337 0.044204 -0.005762 0.043239 -0.157074
    25 1.435260 0.000000 0.000001 0.000000 0.000000 0.732613
    26 1.482593 0.000000 -0.000001 0.000000 0.000000 1.168644
    27 2.046984 0.000001 0.000000 0.239498 0.288190 -1.382584
    28 -0.000005 0.000007 3.713254 -3.292656 -0.162407 1.262172
    29 18.045723 0.000000 0.000000 0.000000 0.000000 -1.680676
    30 17.597597 0.000000 0.000000 -0.253128 0.198342 -0.204258
    31 0.000005 -0.000003 -3.713254 0.817579 2.316621 5.509565
    32 18.045721 0.000000 0.000000 0.000000 0.000000 -2.673768
    33 17.597597 0.000000 0.000000 0.369870 0.047384 0.766224
  time 9
    0 0.012684 0.918148 -20.600716 0.000000 0.000000 -1.585458
    1 -1.570364 0.253914 0.000000 -1.570795 -1.570787 0.000000
    2 1.293670 0.684478 -0.000001 0.014129 0.072434 0.239927
    3 5.309685 -0.003834 0.000000 -0.007879 -0.064046 0.042103
    4 4.826790 -0.004591 0.000000 -0.165718 0.005801 -0.090211
    5 5.792767 -0.005304 0.000000 -0.133703 -0.031256 -0.199797
    6 6.662322 -0.001452 0.000000 -0.001450 0.018608 0.799590
    7 -2.541764 2.427007 4.300562 0.971659 -1.205436 -4.885226
    8 4.827512 0.000000 -0.000002 0.181352 0.367864 -1.677233
    9 11.140032 0.000000 0.000000 0.000000 0.000000 -1.563588
    10 10.314563 -0.000001 0.000001 -0.491292 -0.384712 0.227738
    11 1.646836 0.445664 -1.699647 -0.161704 0.581044 -0.283978
    12 0.928312 0.000000 0.000000 0.000000 0.000000 0.000000
    13 0.928313 0.000000 -0.000001 0.000000 0.000000 0.000000
    14 2.979373 -0.388274 -0.044205 -0.041673 -0.012835 1.254620
    15 1.435262 -0.000001 -0.000001 0.000000 0.000000 0.872146
    16 1.482593 -0.000001 0.000001 0.000000 0.000000 0.907041
    17 -2.198004 2.251256 -4.171647 1.004925 1.309355 -2.955543
    18 4.972047 0.000000 0.000000 -1.411247 -0.518948 0.438616
    19 11.585358 0.000000 0.000001 0.000000 0.000000 -1.917171
    20 10.127058 0.000000 0.000001 1.265414 0.446626 -1.399351
    21 1.537458 0.109715 1.664489 -0.264662 -0.055995 0.783079
    22 0.928313 0.000000 0.000002 0.000000 0.000000 -0.453501
    23 0.928311 0.000000 0.000001 0.000000 0.000000 0.000000
    24 2.686395 -0.427337 0.044204 -0.005762 0.043239 -0.157074
    25 1.435260 0.000000 0.000001 0.000000 0.000000 0.732613
    26 1.482593 0.000000 -0.000001 0.000000 0.000000 1.168644
    27 2.046984 0.000001 0.000000 0.242643 0.288308 -1.377413
    28 -0.000005 0.000007 3.713254 -3.292848 -0.162215 1.262364
    29 18.045723 0.000000 0.000000 0.000000 0.000000 -1.679862
    30 17.597597 0.000000 0.000000 -0.253280 0.198416 -0.204899
    31 0.000005 -0.000003 -3.713254 0.817675 2.316141 5.508223
    32 18.045721 0.000000 0.000000 0.000000 0.000000 -2.674004
    33 17.597597 0.000000 0.000000 0.370507 0.046418 0.765301
  time 10
    0 0.012684 0.918148 -20.600716 0.000000 0.000000 -1.585458
    1 -1.593803 0.261727 0.000000 -1.570795 -1.570787 0.000000
    2 1.293670 0.684478 -0.000001 0.014129 0.072434 0.239927
    3 5.309685 -0.003834 0.000000 -0.007811 -0.064393 0.040867
    4 4.826790 -0.004591 0.000000 -0.166309 0.006388 -0.084832
    5 5.792767 -0.005304 0.000000 -0.134350 -0.029254 -0.187049
    6 6.662322 -0.001452 0.000000 -0.001450 0.018608 0.799590
    7 -2.541764 2.427007 4.300562 0.971659 -1.205436 -4.885226
    8 4.827512 0.000000 -0.000002 0.186295 0.350212 -1.678446
    9 11.140032 0.000000 0.000000 0.000000 0.000000 -1.565907
    10 10.314563 -0.000001 0.000001 -0.493851 -0.381621 0.231919
    11 1.646836 0.445664 -1.699647 -0.161704 0.581044 -0.283978
    12 0.928312 0.000000 0.000000 0.000000 0.000000 0.000000
    13 0.928313 0.000000 -0.000001 0.000000 0.000000 0.000000
    14 2.979373 -0.388274 -0.044205 -0.041673 -0.012835 1.254620
    15 1.435262 -0.000001 -0.000001 0.000000 0.000000 0.872146
    16 1.482593 -0.000001 0.000001 0.000000 0.000000 0.907041
    17 -2.198004 2.251256 -4.171647 1.012568 1.310669 -2.947498
    18 4.972047 0.000000 0.000000 -1.398584 -0.531161 0.429165
    19 11.585358 0.000000 0.000001 0.000000 0.000000 -1.917253
    20 10.127058 0.000000 0.000001 1.265063 0.446248 -1.400151
    21 1.537458 0.109715 1.664489 -0.264662 -0.055995 0.783079
    22 0.928313 0.000000 0.000002 0.000000 0.000000 -0.453501
    23 0.928311 0.000000 0.000001 0.000000 0.000000 0.000000
    24 2.686395 -0.427337 0.044204 -0.005762 0.043239 -0.157074
    25 1.435260 0.000000 0.000001 0.000000 0.000000 0.732613
    26 1.482593 0.000000 -0.000001 0.000000 0.000000 1.168644
    27 2.046984 0.000001 0.000000 0.245745 0.289370 -1.383983
    28 -0.000005 0.000007 3.713254 -3.293039 -0.162023 1.262651
    29 18.045723 0.000000 0.000000 0.000000 0.000000 -1.678308
    30 17.597597 0.000000 0.000000 -0.253533 0.198514 -0.206183
    31 0.000005 -0.000003 -3.713254 0.818154 2.315087 5.505731
    32 18.045721 0.000000 0.000000 0.000000 0.000000 -2.674004
    33 17.597597 0.000000 0.000000 0.371816 0.044505 0.763545
  time 11
    0 0.012684 0.918148 -20.600716 0.000000 0.000000 -1.585458
    1 -1.625054 0.261727 0.000000 -1.570795 -1.570787 0.000000
    2 1.293670 0.684478 -0.000001 0.014129 0.072434 0.239927
    3 5.309685 -0.003834 0.000000 -0.007624 -0.065268 0.037829
    4 4.826790 -0.004591 0.000000 -0.167530 0.007466 -0.074645
    5 5.792767 -0.005304 0.000000 -0.135358 -0.026354 -0.167532
    6 6.662322 -0.001452 0.000000 -0.001450 0.018608 0.799590
    7 -2.541764 2.427007 4.300562 0.971659 -1.205436 -4.885226
    8 4.827512 0.000000 -0.000002 0.194745 0.322328 -1.679399
    9 11.140032 0.000000 0.000000 0.000000 0.000000 -1.569457
    10 10.314563 -0.000001 0.000001 -0.497737 -0.376375 0.237609
    11 1.646836 0.445664 -1.699647 -0.161704 0.581044 -0.283978
    12 0.928312 0.000000 0.000000 0.000000 0.000000 0.000000
    13 0.928313 0.000000 -0.000001 0.000000 0.000000 0.000000
    14 2.979373 -0.388274 -0.044205 -0.041673 -0.012835 1.254620
    15 1.435262 -0.000001 -0.000001 0.000000 0.000000 0.872146
    16 1.482593 -0.000001 0.000001 0.000000 0.000000 0.907041
    17 -2.198004 2.251256 -4.171647 1.015721 1.311195 -2.944337
    18 4.972047 0.000000 0.000000 -1.376447 -0.549320 0.412659
    19 11.585358 0.000000 0.000001 0.000000 0.000000 -1.917253
    20 10.127058 0.000000 0.000001 1.264923 0.446248 -1.400451
    21 1.537458 0.109715 1.664489 -0.264662 -0.055995 0.783079
    22 0.928313 0.000000 0.000002 0.000000 0.000000 -0.453501
    23 0.928311 0.000000 0.000001 0.000000 0.000000 0.000000
    24 2.686395 -0.427337 0.044204 -0.005762 0.043239 -0.157074
    25 1.435260 0.000000 0.000001 0.000000 0.000000 0.732613
    26 1.482593 0.000000 -0.000001 0.000000 0.000000 1.168644
    27 2.046984 0.000001 0.000000 0.248718 0.291701 -1.400346
    28 -0.000005 0.000007 3.713254 -3.293423 -0.161640 1.263131
    29 18.045723 0.000000 0.000000 0.000000 0.000000 -1.675865
    30 17.597597 0.000000 0.000000 -0.253863 0.198711 -0.208200
    31 0.000005 -0.000003 -3.713254 0.818730 2.313841 5.501896
    32 18.045721 0.000000 0.000000 0.000000 0.000000 -2.674004
    33 17.597597 0.000000 0.000000 0.373896 0.041507 0.760866
  time 12
    0 0.012684 0.918148 -20.600716 0.000000 0.000000 -1.585458
    1 -1.652398 0.261727 0.000000 -1.570795 -1.570787 0.000000
    2 1.293670 0.684478 -0.000001 0.014129 0.072434 0.239927
    3 5.309685 -0.003834 0.000000 -0.006960 -0.068013 0.028538
    4 4.826790 -0.004591 0.000000 -0.169228 0.009132 -0.059564
    5 5.792767 -0.005304 0.000000 -0.136437 -0.022974 -0.144423
    6 6.662322 -0.001452 0.000000 -0.001450 0.018608 0.799590
    7 -2.541764 2.427007 4.300562 0.971659 -1.205436 -4.885226
    8 4.827512 0.000000 -0.000002 0.204311 0.292312 -1.679746
    9 11.140032 0.000000 0.000000 0.000000 0.000000 -1.573877
    10 10.314563 -0.000001 0.000001 -0.502002 -0.370286 0.243706
    11 1.646836 0.445664 -1.699647 -0.161704 0.581044 -0.283978
    12 0.928312 0.000000 0.000000 0.000000 0.000000 0.000000
    13 0.928313 0.000000 -0.000001 0.000000 0.000000 0.000000
    14 2.979373 -0.388274 -0.044205 -0.041673 -0.012835 1.254620
    15 1.435262 -0.000001 -0.000001 0.000000 0.000000 0.872146
    16 1.482593 -0.000001 0.000001 0.000000 0.000000 0.907041
    17 -2.198004 2.251256 -4.171647 1.013905 1.310880 -2.946348
    18 4.972047 0.000000 0.000000 -1.351403 -0.567880 0.393757
    19 11.585358 0.000000 0.000001 0.000000 0.000000 -1.917253
    20 10.127058 0.000000 0.000001 1.264993 0.446248 -1.400251
    21 1.537458 0.109715 1.664489 -0.264662 -0.055995 0.783079
    22 0.928313 0.000000 0.000002 0.000000 0.000000 -0.453501
    23 0.928311 0.000000 0.000001 0.000000 0.000000 0.000000
    24 2.686395 -0.427337 0.044204 -0.005762 0.043239 -0.157074
    25 1.435260 0.000000 0.000001 0.000000 0.000000 0.732613
    26 1.482593 0.000000 -0.000001 0.000000 0.000000 1.168644
    27 2.046984 0.000001 0.000000 0.251475 0.294946 -1.418534
    28 -0.000005 0.000007 3.713254 -3.293423 -0.161544 1.263322
    29 18.045723 0.000000 0.000000 0.000000 0.000000 -1.674459
    30 17.597597 0.000000 0.000000 -0.253913 0.198711 -0.209392
    31 0.000005 -0.000003 -3.713254 0.819880 2.313457 5.500266
    32 18.045721 0.000000 0.000000 0.000000 0.000000 -2.673768
    33 17.597597 0.000000 0.000000 0.375271 0.039574 0.759850
  time 13
    0 0.012684 0.918148 -20.600716 0.000000 0.000000 -1.585458
    1 -1.652398 0.253914 0.000000 -1.570795 -1.570787 0.000000
    2 1.293670 0.684478 -0.000001 0.014129 0.072434 0.239927
    3 5.309685 -0.003834 0.000000 -0.005956 -0.071979 0.014778
    4 4.826790 -0.004591 0.000000 -0.171116 0.011026 -0.042918
    5 5.792767 -0.005304 0.000000 -0.137408 -0.019571 -0.121044
    6 6.662322 -0.001452 0.000000 -0.004638 0.016025 0.757637
    7 -2.627704 2.309816 4.312281 0.979615 -1.207476 -4.850636
    8 4.827512 0.000000 -0.000002 0.213319 0.265195 -1.679399
    9 11.140032 0.000000 0.000000 0.000000 0.000000 -1.578369
    10 10.314563 -0.000001 0.000001 -0.505888 -0.364479 0.248932
    11 1.646836 0.445664 -1.699647 -0.161704 0.581044 -0.283978
    12 0.928312 0.000000 0.000000 0.000000 0.000000 0.000000
    13 0.928313 0.000000 -0.000001 0.000000 0.000000 0.000000
    14 2.979373 -0.388274 -0.044205 -0.041673 -0.012835 1.254620
    15 1.435262 -0.000001 -0.000001 0.000000 0.000000 0.872146
    16 1.482593 -0.000001 0.000001 0.000000 0.000000 0.907041
    17 -2.295663 2.165315 -4.163834 0.995181 1.307751 -2.922882
    18 4.972047 0.000000 0.000000 -1.327391 -0.583709 0.374989
    19 11.585358 0.000000 0.000001 0.000000 0.000000 -1.917171
    20 10.127058 0.000000 0.000001 1.265414 0.446437 -1.399501
    21 1.537458 0.109715 1.664489 -0.264662 -0.055995 0.783079
    22 0.928313 0.000000 0.000002 0.000000 0.000000 -0.453501
    23 0.928311 0.000000 0.000001 0.000000 0.000000 0.000000
    24 2.686395 -0.427337 0.044204 -0.005762 0.043239 -0.157074
    25 1.435260 0.000000 0.000001 0.000000 0.000000 0.732613
    26 1.482593 0.000000 -0.000001 0.000000 0.000000 1.168644
    27 2.046984 0.000001 0.000000 0.249149 0.301555 -1.402901
    28 -0.000005 0.000007 3.713254 -3.293231 -0.161832 1.263322
    29 18.045723 0.000000 0.000000 0.000000 0.000000 -1.674311
    30 17.597597 0.000000 0.000000 -0.253635 0.198563 -0.209530
    31 0.000005 -0.000003 -3.713254 0.820934 2.314032 5.500841
    32 18.045721 0.000000 0.000000 0.000000 0.000000 -2.673768
    33 17.597597 0.000000 0.000000 0.375607 0.039061 0.760497
  time 14
    0 0.012684 0.918148 -20.600716 0.000000 0.000000 -1.585458
    1 -1.668024 0.253914 0.000000 -1.570795 -1.570787 0.000000
    2 1.293670 0.684478 -0.000001 0.014129 0.072434 0.239927
    3 5.309685 -0.003834 0.000000 -0.005309 -0.074592 0.005787
    4 4.826790 -0.004591 0.000000 -0.172737 0.012740 -0.027903
    5 5.792767 -0.005304 0.000000 -0.138272 -0.016551 -0.100489
    6 6.662322 -0.001452 0.000000 -0.007706 0.013290 0.715684
    7 -2.713644 2.188719 4.324000 0.987283 -1.209605 -4.815950
    8 4.827512 0.000000 -0.000002 0.222725 0.237822 -1.678792
    9 11.140032 0.000000 0.000000 0.000000 0.000000 -1.582499
    10 10.314563 -0.000001 0.000001 -0.509300 -0.358765 0.253054
    11 1.646836 0.445664 -1.699647 -0.161704 0.581044 -0.283978
    12 0.928312 0.000000 0.000000 0.000000 0.000000 0.000000
    13 0.928313 0.000000 -0.000001 0.000000 0.000000 0.000000
    14 2.979373 -0.388274 -0.044205 -0.041673 -0.012835 1.254620
    15 1.435262 -0.000001 -0.000001 0.000000 0.000000 0.872146
    16 1.482593 -0.000001 0.000001 0.000000 0.000000 0.907041
    17 -2.397228 2.079375 -4.156022 0.970916 1.303597 -2.905067
    18 4.972047 0.000000 0.000000 -1.300939 -0.598092 0.354423
    19 11.585358 0.000000 0.000001 0.000000 0.000000 -1.917008
    20 10.127058 0.000000 0.000001 1.265905 0.446910 -1.398100
    21 1.537458 0.109715 1.664489 -0.264662 -0.055995 0.783079
    22 0.928313 0.000000 0.000002 0.000000 0.000000 -0.453501
    23 0.928311 0.000000 0.000001 0.000000 0.000000 0.000000
    24 2.686395 -0.427337 0.044204 -0.005762 0.043239 -0.157074
    25 1.435260 0.000000 0.000001 0.000000 0.000000 0.732613
    26 1.482593 0.000000 -0.000001 0.000000 0.000000 1.168644
    27 2.046984 0.000001 0.000000 0.246736 0.307957 -1.387998
    28 -0.000005 0.000007 3.713254 -3.293231 -0.161736 1.263514
    29 18.045723 0.000000 0.000000 0.000000 0.000000 -1.672979
    30 17.597597 0.000000 0.000000 -0.253635 0.198514 -0.210630
    31 0.000005 -0.000003 -3.713254 0.821892 2.313841 5.499307
    32 18.045721 0.000000 0.000000 0.000000 0.000000 -2.673768
    33 17.597597 0.000000 0.000000 0.376848 0.037227 0.759527
  time 15
    0 0.012684 0.918148 -20.600716 0.000000 0.000000 -1.585458
    1 -1.707087 0.261727 0.000000 -1.570795 -1.570787 0.000000
    2 1.293670 0.684478 -0.000001 0.014129 0.072434 0.239927
    3 5.309685 -0.003834 0.000000 -0.005105 -0.075311 0.003279
    4 4.826790 -0.004591 0.000000 -0.173882 0.013890 -0.017673
    5 5.792767 -0.005304 0.000000 -0.138775 -0.014382 -0.086038
    6 6.662322 -0.001452 0.000000 -0.010654 0.010444 0.673702
    7 -2.795678 2.063715 4.339626 0.994759 -1.211823 -4.780976
    8 4.827512 0.000000 -0.000002 0.231733 0.215139 -1.676453
    9 11.140032 0.000000 0.000000 0.000000 0.000000 -1.585542
    10 10.314563 -0.000001 0.000001 -0.511101 -0.354643 0.253751
    11 1.646836 0.445664 -1.699647 -0.161704 0.581044 -0.283978
    12 0.928312 0.000000 0.000000 0.000000 0.000000 0.000000
    13 0.928313 0.000000 -0.000001 0.000000 0.000000 0.000000
    14 2.979373 -0.388274 -0.044205 -0.041673 -0.012835 1.254620
    15 1.435262 -0.000001 -0.000001 0.000000 0.000000 0.872146
    16 1.482593 -0.000001 0.000001 0.000000 0.000000 0.907041
    17 -2.490981 1.985622 -4.140396 0.932321 1.296236 -2.902768
    18 4.972047 0.000000 0.000000 -1.274019 -0.606368 0.333991
    19 11.585358 0.000000 0.000001 0.000000 0.000000 -1.916681
    20 10.127058 0.000000 0.000001 1.267097 0.447950 -1.394999
    21 1.537458 0.109715 1.664489 -0.264662 -0.055995 0.783079
    22 0.928313 0.000000 0.000002 0.000000 0.000000 -0.453501
    23 0.928311 0.000000 0.000001 0.000000 0.000000 0.000000
    24 2.686395 -0.427337 0.044204 -0.005762 0.043239 -0.157074
    25 1.435260 0.000000 0.000001 0.000000 0.000000 0.732613
    26 1.482593 0.000000 -0.000001 0.000000 0.000000 1.168644
    27 2.046984 0.000001 0.000000 0.244237 0.313445 -1.368837
    28 -0.000005 0.000007 3.713254 -3.293615 -0.161448 1.263994
    29 18.045723 0.000000 0.000000 0.000000 0.000000 -1.670758
    30 17.597597 0.000000 0.000000 -0.253939 0.198711 -0.212464
    31 0.000005 -0.000003 -3.713254 0.822467 2.312594 5.495760
    32 18.045721 0.000000 0.000000 0.000000 0.000000 -2.673768
    33 17.597597 0.000000 0.000000 0.378794 0.034505 0.757125
  time 16
    0 0.012684 0.918148 -20.600716 0.000000 0.000000 -1.585458
    1 -1.726619 0.261727 0.000000 -1.570795 -1.570787 0.000000
    2 1.293670 0.684478 -0.000001 0.014129 0.072434 0.239927
    3 5.309685 -0.003834 0.000000 -0.005054 -0.075539 0.002608
    4 4.826790 -0.004591 0.000000 -0.174359 0.014393 -0.013395
    5 5.792767 -0.005304 0.000000 -0.139009 -0.013399 -0.079456
    6 6.662322 -0.001452 0.000000 -0.013507 0.007490 0.631806
    7 -2.862086 1.934805 4.339626 1.002236 -1.214159 -4.745906
    8 4.827512 0.000000 -0.000002 0.238270 0.205332 -1.671340
    9 11.140032 0.000000 0.000000 0.000000 0.000000 -1.587281
    10 10.314563 -0.000001 0.000001 -0.510153 -0.353613 0.249977
    11 1.646836 0.445664 -1.699647 -0.161704 0.581044 -0.283978
    12 0.928312 0.000000 0.000000 0.000000 0.000000 0.000000
    13 0.928313 0.000000 -0.000001 0.000000 0.000000 0.000000
    14 2.979373 -0.388274 -0.044205 -0.041673 -0.012835 1.254620
    15 1.435262 -0.000001 -0.000001 0.000000 0.000000 0.872146
    16 1.482593 -0.000001 0.000001 0.000000 0.000000 0.907041
    17 -2.588640 1.891870 -4.140396 0.880925 1.285246 -2.913304
    18 4.972047 0.000000 0.000000 -1.254884 -0.604118 0.319681
    19 11.585358 0.000000 0.000001 0.000000 0.000000 -1.916191
    20 10.127058 0.000000 0.000001 1.269060 0.449463 -1.390147
    21 1.537458 0.109715 1.664489 -0.264662 -0.055995 0.783079
    22 0.928313 0.000000 0.000002 0.000000 0.000000 -0.453501
    23 0.928311 0.000000 0.000001 0.000000 0.000000 0.000000
    24 2.686395 -0.427337 0.044204 -0.005762 0.043239 -0.157074
    25 1.435260 0.000000 0.000001 0.000000 0.000000 0.732613
    26 1.482593 0.000000 -0.000001 0.000000 0.000000 1.168644
    27 2.046984 0.000001 0.000000 0.242126 0.317428 -1.337631
    28 -0.000005 0.000007 3.713254 -3.293710 -0.161256 1.264185
    29 18.045723 0.000000 0.000000 0.000000 0.000000 -1.669648
    30 17.597597 0.000000 0.000000 -0.254116 0.198785 -0.213427
    31 0.000005 -0.000003 -3.713254 0.822755 2.311923 5.494035
    32 18.045721 0.000000 0.000000 0.000000 0.000000 -2.673768
    33 17.597597 0.000000 0.000000 0.379734 0.033164 0.755832
  time 17
    0 0.012684 0.918148 -20.600716 0.000000 0.000000 -1.585458
    1 -1.730526 0.261727 0.000000 -1.570795 -1.570787 0.000000
    2 1.293670 0.684478 -0.000001 0.014129 0.072434 0.239927
    3 5.309685 -0.003834 0.000000 -0.005088 -0.075371 0.003084
    4 4.826790 -0.004591 0.000000 -0.174416 0.014453 -0.012866
    5 5.792767 -0.005304 0.000000 -0.139027 -0.013279 -0.078605
    6 6.662322 -0.001452 0.000000 -0.016179 0.004411 0.589853
    7 -2.928495 1.801988 4.351345 1.009329 -1.216554 -4.710550
    8 4.827512 0.000000 -0.000002 0.242415 0.204394 -1.665362
    9 11.140032 0.000000 0.000000 0.000000 0.000000 -1.587860
    10 10.314563 -0.000001 0.000001 -0.507689 -0.354268 0.244403
    11 1.646836 0.445664 -1.699647 -0.161704 0.581044 -0.283978
    12 0.928312 0.000000 0.000000 0.000000 0.000000 0.000000
    13 0.928313 0.000000 -0.000001 0.000000 0.000000 0.000000
    14 2.979373 -0.388274 -0.044205 -0.041673 -0.012835 1.254620
    15 1.435262 -0.000001 -0.000001 0.000000 0.000000 0.872146
    16 1.482593 -0.000001 0.000001 0.000000 0.000000 0.907041
    17 -2.670674 1.786398 -4.128677 0.831058 1.273126 -2.922403
    18 4.972047 0.000000 0.000000 -1.243066 -0.596163 0.311561
    19 11.585358 0.000000 0.000001 0.000000 0.000000 -1.915701
    20 10.127058 0.000000 0.000001 1.271094 0.451165 -1.384995
    21 1.537458 0.109715 1.664489 -0.264662 -0.055995 0.783079
    22 0.928313 0.000000 0.000002 0.000000 0.000000 -0.453501
    23 0.928311 0.000000 0.000001 0.000000 0.000000 0.000000
    24 2.686395 -0.427337 0.044204 -0.005762 0.043239 -0.157074
    25 1.435260 0.000000 0.000001 0.000000 0.000000 0.732613
    26 1.482593 0.000000 -0.000001 0.000000 0.000000 1.168644
    27 2.046984 0.000001 0.000000 0.240187 0.320614 -1.298154
    28 -0.000005 0.000007 3.713254 -3.293806 -0.161160 1.264281
    29 18.045723 0.000000 0.000000 0.000000 0.000000 -1.669278
    30 17.597597 0.000000 0.000000 -0.254192 0.198785 -0.213656
    31 0.000005 -0.000003 -3.713254 0.822947 2.311732 5.493459
    32 18.045721 0.000000 0.000000 0.000000 0.000000 -2.673768
    33 17.597597 0.000000 0.000000 0.379969 0.032730 0.755416
  time 18
    0 0.012684 0.918148 -20.600716 0.000000 0.000000 -1.585458
    1 -1.726619 0.261727 0.000000 -1.570795 -1.570787 0.000000
    2 1.293670 0.684478 -0.000001 0.014129 0.072434 0.239927
    3 5.309685 -0.003834 0.000000 -0.005173 -0.075048 0.004180
    4 4.826790 -0.004591 0.000000 -0.174206 0.014286 -0.014454
    5 5.792767 -0.005304 0.000000 -0.138955 -0.013626 -0.081055
    6 6.662322 -0.001452 0.000000 -0.016179 0.004411 0.589853
    7 -2.928495 1.801988 4.351345 1.009329 -1.216554 -4.710550
    8 4.827512 0.000000 -0.000002 0.244249 0.208402 -1.660249
    9 11.140032 0.000000 0.000000 0.000000 0.000000 -1.587860
    10 10.314563 -0.000001 0.000001 -0.505319 -0.355767 0.239177
    11 1.646836 0.445664 -1.699647 -0.161704 0.581044 -0.283978
    12 0.928312 0.000000 0.000000 0.000000 0.000000 0.000000
    13 0.928313 0.000000 -0.000001 0.000000 0.000000 0.000000
    14 2.979373 -0.388274 -0.044205 -0.041673 -0.012835 1.254620
    15 1.435262 -0.000001 -0.000001 0.000000 0.000000 0.872146
    16 1.482593 -0.000001 0.000001 0.000000 0.000000 0.907041
    17 -2.670674 1.786398 -4.128677 0.802780 1.264871 -2.951903
    18 4.972047 0.000000 0.000000 -1.238282 -0.587566 0.308766
    19 11.585358 0.000000 0.000001 0.000000 0.000000 -1.915374
    20 10.127058 0.000000 0.000001 1.272637 0.452395 -1.380993
    21 1.537458 0.109715 1.664489 -0.264662 -0.055995 0.783079
    22 0.928313 0.000000 0.000002 0.000000 0.000000 -0.453501
    23 0.928311 0.000000 0.000001 0.000000 0.000000 0.000000
    24 2.686395 -0.427337 0.044204 -0.005762 0.043239 -0.157074
    25 1.435260 0.000000 0.000001 0.000000 0.000000 0.732613
    26 1.482593 0.000000 -0.000001 0.000000 0.000000 1.168644
    27 2.046984 0.000001 0.000000 0.240360 0.320260 -1.295234
    28 -0.000005 0.000007 3.713254 -3.293806 -0.161160 1.264281
    29 18.045723 0.000000 0.000000 0.000000 0.000000 -1.669352
    30 17.597597 0.000000 0.000000 -0.254217 0.198785 -0.213610
    31 0.000005 -0.000003 -3.713254 0.822755 2.311732 5.493651
    32 18.045721 0.000000 0.000000 0.000000 0.000000 -2.673768
    33 17.597597 0.000000 0.000000 0.379834 0.032868 0.755509
  time 19
    0 0.012684 0.918148 -20.600716 0.000000 0.000000 -1.585458
    1 -1.718806 0.261727 0.000000 -1.570795 -1.570787 0.000000
    2 1.293670 0.684478 -0.000001 0.014129 0.072434 0.239927
    3 5.309685 -0.003834 0.000000 -0.005258 -0.074760 0.005275
    4 4.826790 -0.004591 0.000000 -0.173958 0.014046 -0.016614
    5 5.792767 -0.005304 0.000000 -0.138829 -0.014142 -0.084377
    6 6.662322 -0.001452 0.000000 -0.016179 0.004411 0.589853
    7 -2.928495 1.801988 4.351345 1.009329 -1.216554 -4.710550
    8 4.827512 0.000000 -0.000002 0.243531 0.213007 -1.659123
    9 11.140032 0.000000 0.000000 0.000000 0.000000 -1.587208
    10 10.314563 -0.000001 0.000001 -0.504277 -0.356798 0.237435
    11 1.646836 0.445664 -1.699647 -0.161704 0.581044 -0.283978
    12 0.928312 0.000000 0.000000 0.000000 0.000000 0.000000
    13 0.928313 0.000000 -0.000001 0.000000 0.000000 0.000000
    14 2.979373 -0.388274 -0.044205 -0.041673 -0.012835 1.254620
    15 1.435262 -0.000001 -0.000001 0.000000 0.000000 0.872146
    16 1.482593 -0.000001 0.000001 0.000000 0.000000 0.907041
    17 -2.670674 1.786398 -4.128677 0.797908 1.263320 -2.957076
    18 4.972047 0.000000 0.000000 -1.241002 -0.583870 0.311229
    19 11.585358 0.000000 0.000001 0.000000 0.000000 -1.915293
    20 10.127058 0.000000 0.000001 1.272917 0.452489 -1.380292
    21 1.537458 0.109715 1.664489 -0.264662 -0.055995 0.783079
    22 0.928313 0.000000 0.000002 0.000000 0.000000 -0.453501
    23 0.928311 0.000000 0.000001 0.000000 0.000000 0.000000
    24 2.686395 -0.427337 0.044204 -0.005762 0.043239 -0.157074
    25 1.435260 0.000000 0.000001 0.000000 0.000000 0.732613
    26 1.482593 0.000000 -0.000001 0.000000 0.000000 1.168644
    27 2.046984 0.000001 0.000000 0.240446 0.319729 -1.290793
    28 -0.000005 0.000007 3.713254 -3.293710 -0.161160 1.264185
    29 18.045723 0.000000 0.000000 0.000000 0.000000 -1.669648
    30 17.597597 0.000000 0.000000 -0.254192 0.198760 -0.213381
    31 0.000005 -0.000003 -3.713254 0.822755 2.311732 5.494035
    32 18.045721 0.000000 0.000000 0.000000 0.000000 -2.673768
    33 17.597597 0.000000 0.000000 0.379566 0.033223 0.755786
  time 20
    0 0.012684 0.918148 -20.600716 0.000000 0.000000 -1.585458
    1 -1.718806 0.261727 0.000000 -1.570795 -1.570787 0.000000
    2 1.293670 0.684478 -0.000001 0.014129 0.072434 0.239927
    3 5.309685 -0.003834 0.000000 -0.005309 -0.074592 0.005787
    4 4.826790 -0.004591 0.000000 -0.173882 0.013890 -0.017673
    5 5.792767 -0.005304 0.000000 -0.138775 -0.014382 -0.086038
    6 6.662322 -0.001452 0.000000 -0.016179 0.004411 0.589853
    7 -2.928495 1.801988 4.351345 1.009329 -1.216554 -4.710550
    8 4.827512 0.000000 -0.000002 0.242336 0.215309 -1.659729
    9 11.140032 0.000000 0.000000 0.000000 0.000000 -1.586846
    10 10.314563 -0.000001 0.000001 -0.504277 -0.357079 0.237841
    11 1.646836 0.445664 -1.699647 -0.161704 0.581044 -0.283978
    12 0.928312 0.000000 0.000000 0.000000 0.000000 0.000000
    13 0.928313 0.000000 -0.000001 0.000000 0.000000 0.000000
    14 2.979373 -0.388274 -0.044205 -0.041673 -0.012835 1.254620
    15 1.435262 -0.000001 -0.000001 0.000000 0.000000 0.872146
    16 1.482593 -0.000001 0.000001 0.000000 0.000000 0.907041
    17 -2.670674 1.786398 -4.128677 0.802780 1.264871 -2.951903
    18 4.972047 0.000000 0.000000 -1.244379 -0.583709 0.313891
    19 11.585358 0.000000 0.000001 0.000000 0.000000 -1.915374
    20 10.127058 0.000000 0.000001 1.272637 0.452395 -1.380993
    21 1.537458 0.109715 1.664489 -0.264662 -0.055995 0.783079
    22 0.928313 0.000000 0.000002 0.000000 0.000000 -0.453501
    23 0.928311 0.000000 0.000001 0.000000 0.000000 0.000000
    24 2.686395 -0.427337 0.044204 -0.005762 0.043239 -0.157074
    25 1.435260 0.000000 0.000001 0.000000 0.000000 0.732613
    26 1.482593 0.000000 -0.000001 0.000000 0.000000 1.168644
    27 2.046984 0.000001 0.000000 0.240489 0.319493 -1.288604
    28 -0.000005 0.000007 3.713254 -3.293902 -0.161448 1.264185
    29 18.045723 0.000000 0.000000 0.000000 0.000000 -1.669796
    30 17.597597 0.000000 0.000000 -0.254040 0.198982 -0.213244
    31 0.000005 -0.000003 -3.713254 0.821892 2.312307 5.493555
    32 18.045721 0.000000 0.000000 0.000000 0.000000 -2.673768
    33 17.597597 0.000000 0.000000 0.379969 0.033854 0.755924
end
