version 1
nodes
  0 "Bip01" -1
  1 "Bip01 Pelvis" 0
  2 "Bip01 Spine" 1
  3 "Bip01 Spine1" 2
  4 "Bip01 Spine2" 3
  5 "Bip01 Spine3" 4
  6 "Bip01 Neck" 5
  7 "Bip01 L Arm" 6
  8 "Bip01 L Arm1" 7
  9 "Bip01 L Arm2" 8
  10 "Bip01 L Hand" 9
  11 "Bip01 L Finger0" 10
  12 "Bip01 L Finger01" 11
  13 "Bip01 L Finger02" 12
  14 "Bip01 L Finger1" 10
  15 "Bip01 L Finger11" 14
  16 "Bip01 L Finger12" 15
  17 "Bip01 R Arm" 6
  18 "Bip01 R Arm1" 17
  19 "Bip01 R Arm2" 18
  20 "Bip01 R Hand" 19
  21 "Bip01 R Finger0" 20
  22 "Bip01 R Finger01" 21
  23 "Bip01 R Finger02" 22
  24 "Bip01 R Finger1" 20
  25 "Bip01 R Finger11" 24
  26 "Bip01 R Finger12" 25
  27 "Bip01 Head" 6
  28 "Bip01 L Leg" 1
  29 "Bip01 L Leg1" 28
  30 "Bip01 L Foot" 29
  31 "Bip01 R Leg" 1
  32 "Bip01 R Leg1" 31
  33 "Bip01 R Foot" 32
end
skeleton
  time 0
    0 0.250973 2.082246 -20.600716 0.000000 0.000000 -1.585458
    1 -0.546896 0.039064 0.000000 -1.570795 -1.570787 0.000000
    2 1.293670 0.684478 -0.000001 0.002860 0.017245 0.175993
    3 5.309685 -0.003834 0.000000 -0.015537 -0.047375 -0.018871
    4 4.826790 -0.004591 0.000000 -0.091538 0.031915 0.051669
    5 5.792767 -0.005304 0.000000 -0.164912 0.055093 -0.049703
    6 6.662322 -0.001452 0.000000 0.000000 -0.000001 0.209256
    7 -3.393353 0.665235 4.339626 -0.854150 -1.218269 -2.528959
    8 4.827512 0.000000 -0.000002 0.276773 0.893662 -0.022730
    9 11.140032 0.000000 0.000000 0.000000 0.000000 -1.681108
    10 10.314563 -0.000001 0.000001 -1.972551 0.013957 0.005995
    11 1.646836 0.445664 -1.699647 0.153911 0.442352 0.277231
    12 0.928312 0.000000 0.000000 0.000000 0.000000 0.000000
    13 0.928313 0.000000 -0.000001 0.000000 0.000000 0.000000
    14 2.979373 -0.388274 -0.044205 0.001088 -0.043611 -0.043599
    15 1.435262 -0.000001 -0.000001 0.000000 0.000000 1.334445
    16 1.482593 -0.000001 0.000001 0.000000 0.000000 0.793674
    17 -3.131626 0.610580 -4.140396 -2.171221 1.280330 -5.542759
    18 4.972047 0.000000 0.000000 -1.032957 -0.937809 -0.219617
    19 11.585358 0.000000 0.000001 0.000000 0.000000 -1.667884
    20 10.127058 0.000000 0.000001 3.106519 -0.477360 0.738520
    21 1.537458 0.109715 1.664489 -0.264662 -0.055995 0.783079
    22 0.928313 0.000000 0.000002 0.000000 0.000000 -0.453501
    23 0.928311 0.000000 0.000001 0.000000 0.000000 0.000000
    24 2.686395 -0.427337 0.044204 -0.005762 0.043239 -0.157074
    25 1.435260 0.000000 0.000001 0.000000 0.000000 0.732613
    26 1.482593 0.000000 -0.000001 0.000000 0.000000 1.168644
    27 2.046984 0.000001 0.000000 0.074318 -0.256680 0.308941
    28 -0.000005 0.000007 3.713254 -3.293902 -0.161448 1.264185
    29 18.045723 0.000000 0.000000 0.000000 0.000000 -1.669796
    30 17.597597 0.000000 0.000000 -0.254040 0.198982 -0.213244
    31 0.000005 -0.000003 -3.713254 0.821892 2.312307 5.493555
    32 18.045721 0.000000 0.000000 0.000000 0.000000 -2.673768
    33 17.597597 0.000000 0.000000 0.379969 0.033854 0.755924
  time 1
    0 0.008778 1.988493 -20.600716 0.000000 0.000000 -1.585458
    1 -0.546896 0.039064 0.000000 -1.570795 -1.570787 0.000000
    2 1.293670 0.684478 -0.000001 0.002657 0.016562 0.170837
    3 5.309685 -0.003834 0.000000 -0.054761 -0.046344 -0.018871
    4 4.826790 -0.004591 0.000000 -0.115953 -0.010762 -0.040096
    5 5.792767 -0.005304 0.000000 -0.164264 -0.017725 -0.026781
    6 6.662322 -0.001452 0.000000 -0.001414 -0.018294 0.205069
    7 -3.315225 0.645703 4.398221 -0.766445 -1.276757 -2.606572
    8 4.827512 0.000000 -0.000002 0.369484 0.805489 0.015743
    9 11.140032 0.000000 0.000000 0.000000 0.000000 -1.798120
    10 10.314563 -0.000001 0.000001 -1.937010 -0.045244 0.037755
    11 1.646836 0.445664 -1.699647 0.207671 0.426892 0.375146
    12 0.928312 0.000000 0.000000 0.000000 0.000000 0.000000
    13 0.928313 0.000000 -0.000001 0.000000 0.000000 0.000000
    14 2.979373 -0.388274 -0.044205 -0.001237 -0.043611 0.010425
    15 1.435262 -0.000001 -0.000001 0.000000 0.000000 1.268456
    16 1.482593 -0.000001 0.000001 0.000000 0.000000 0.786622
    17 -3.205847 0.606674 -4.081801 3.778215 1.378367 -5.863143
    18 4.972047 0.000000 0.000000 -0.796866 -1.041782 -0.492228
    19 11.585358 0.000000 0.000001 0.000000 0.000000 -1.710521
    20 10.127058 0.000000 0.000001 2.967884 -0.237261 0.702555
    21 1.537458 0.109715 1.664489 -0.264662 -0.055995 0.783079
    22 0.928313 0.000000 0.000002 0.000000 0.000000 -0.453501
    23 0.928311 0.000000 0.000001 0.000000 0.000000 0.000000
    24 2.686395 -0.427337 0.044204 -0.005762 0.043239 -0.157074
    25 1.435260 0.000000 0.000001 0.000000 0.000000 0.732613
    26 1.482593 0.000000 -0.000001 0.000000 0.000000 1.168644
    27 2.046984 0.000001 0.000000 0.168239 -0.161089 0.241360
    28 -0.000005 0.000007 3.713254 -3.283452 -0.165283 1.261597
    29 18.045723 0.000000 0.000000 0.000000 0.000000 -1.675643
    30 17.597597 0.000000 0.000000 -0.247477 0.190565 -0.209301
    31 0.000005 -0.000003 -3.713254 0.855533 2.328988 5.531615
    32 18.045721 0.000000 0.000000 0.000000 0.000000 -2.670147
    33 17.597597 0.000000 0.000000 0.374063 0.025787 0.782021
  time 2
    0 -0.190447 1.890834 -20.600716 0.000000 0.000000 -1.585458
    1 -0.546896 0.039064 0.000000 -1.570795 -1.570787 0.000000
    2 1.293670 0.684478 -0.000001 0.002523 0.015950 0.165664
    3 5.309685 -0.003834 0.000000 -0.093305 -0.046536 -0.018730
    4 4.826790 -0.004591 0.000000 -0.133940 -0.054602 -0.132081
    5 5.792767 -0.005304 0.000000 -0.163347 -0.063087 -0.007451
    6 6.662322 -0.001452 0.000000 -0.002565 -0.036629 0.200911
    7 -3.233191 0.626171 4.456817 -0.638193 -1.332199 -2.724045
    8 4.827512 0.000000 -0.000002 0.451433 0.765581 0.042258
    9 11.140032 0.000000 0.000000 0.000000 0.000000 -1.904844
    10 10.314563 -0.000001 0.000001 -1.903554 -0.101072 0.057729
    11 1.646836 0.445664 -1.699647 0.256458 0.406839 0.471720
    12 0.928312 0.000000 0.000000 0.000000 0.000000 0.000000
    13 0.928313 0.000000 -0.000001 0.000000 0.000000 0.000000
    14 2.979373 -0.388274 -0.044205 -0.003586 -0.043479 0.064536
    15 1.435262 -0.000001 -0.000001 0.000000 0.000000 1.202425
    16 1.482593 -0.000001 0.000001 0.000000 0.000000 0.779517
    17 -3.287881 0.598861 -4.023205 3.046059 1.424980 -0.295535
    18 4.972047 0.000000 0.000000 -0.547643 -1.095776 -0.785737
    19 11.585358 0.000000 0.000001 0.000000 0.000000 -1.754955
    20 10.127058 0.000000 0.000001 2.806108 0.037353 0.844016
    21 1.537458 0.109715 1.664489 -0.264662 -0.055995 0.783079
    22 0.928313 0.000000 0.000002 0.000000 0.000000 -0.453501
    23 0.928311 0.000000 0.000001 0.000000 0.000000 0.000000
    24 2.686395 -0.427337 0.044204 -0.005762 0.043239 -0.157074
    25 1.435260 0.000000 0.000001 0.000000 0.000000 0.732613
    26 1.482593 0.000000 -0.000001 0.000000 0.000000 1.168644
    27 2.046984 0.000001 0.000000 0.227478 -0.078863 0.182539
    28 -0.000005 0.000007 3.713254 -3.274440 -0.168735 1.259201
    29 18.045723 0.000000 0.000000 0.000000 0.000000 -1.681490
    30 17.597597 0.000000 0.000000 -0.241750 0.183232 -0.205083
    31 0.000005 -0.000003 -3.713254 0.882752 2.343847 5.564978
    32 18.045721 0.000000 0.000000 0.000000 0.000000 -2.666841
    33 17.597597 0.000000 0.000000 0.367387 0.020265 0.804838
  time 3
    0 -0.276387 1.859583 -20.600716 0.000000 0.000000 -1.585458
    1 -0.546896 0.039064 0.000000 -1.570795 -1.570787 0.000000
    2 1.293670 0.684478 -0.000001 0.002321 0.015160 0.160491
    3 5.309685 -0.003834 0.000000 -0.116295 -0.045062 -0.009386
    4 4.826790 -0.004591 0.000000 -0.149543 -0.074197 -0.178162
    5 5.792767 -0.005304 0.000000 -0.161890 -0.060330 0.008246
    6 6.662322 -0.001452 0.000000 -0.003380 -0.054964 0.196667
    7 -3.151158 0.610545 4.519319 -0.439778 -1.381875 -2.910699
    8 4.827512 0.000000 -0.000002 0.475906 0.799008 -0.000027
    9 11.140032 0.000000 0.000000 0.000000 0.000000 -1.961865
    10 10.314563 -0.000001 0.000001 -1.872183 -0.163739 0.070271
    11 1.646836 0.445664 -1.699647 0.299991 0.382811 0.566588
    12 0.928312 0.000000 0.000000 0.000000 0.000000 0.000000
    13 0.928313 0.000000 -0.000001 0.000000 0.000000 0.000000
    14 2.979373 -0.388274 -0.044205 -0.005935 -0.043227 0.118690
    15 1.435262 -0.000001 -0.000001 0.000000 0.000000 1.136478
    16 1.482593 -0.000001 0.000001 0.000000 0.000000 0.772518
    17 -3.362102 0.587142 -3.960703 2.405709 1.407471 -0.920884
    18 4.972047 0.000000 0.000000 -0.392594 -1.061869 -0.925570
    19 11.585358 0.000000 0.000001 0.000000 0.000000 -1.788035
    20 10.127058 0.000000 0.000001 2.622523 0.182887 0.723764
    21 1.537458 0.109715 1.664489 -0.264662 -0.055995 0.783079
    22 0.928313 0.000000 0.000002 0.000000 0.000000 -0.453501
    23 0.928311 0.000000 0.000001 0.000000 0.000000 0.000000
    24 2.686395 -0.427337 0.044204 -0.005762 0.043239 -0.157074
    25 1.435260 0.000000 0.000001 0.000000 0.000000 0.732613
    26 1.482593 0.000000 -0.000001 0.000000 0.000000 1.168644
    27 2.046984 0.000001 0.000000 0.236525 -0.036968 0.068546
    28 -0.000005 0.000007 3.713254 -3.271468 -0.169885 1.258434
    29 18.045723 0.000000 0.000000 0.000000 0.000000 -1.683489
    30 17.597597 0.000000 0.000000 -0.239799 0.180746 -0.203707
    31 0.000005 -0.000003 -3.713254 0.891665 2.349024 5.576099
    32 18.045721 0.000000 0.000000 0.000000 0.000000 -2.665739
    33 17.597597 0.000000 0.000000 0.365005 0.018509 0.812505
  time 4
    0 -0.256855 1.890834 -20.600716 0.000000 0.000000 -1.585458
    1 -0.546896 0.039064 0.000000 -1.570795 -1.570787 0.000000
    2 1.293670 0.684478 -0.000001 0.002001 0.013817 0.155368
    3 5.309685 -0.003834 0.000000 -0.125535 -0.039825 0.009019
    4 4.826790 -0.004591 0.000000 -0.167587 -0.068049 -0.175979
    5 5.792767 -0.005304 0.000000 -0.160487 -0.047926 0.024213
    6 6.662322 -0.001452 0.000000 -0.003859 -0.073284 0.192452
    7 -3.080843 0.591014 4.574008 -0.124517 -1.420049 -3.213293
    8 4.827512 0.000000 -0.000002 0.423213 0.836358 -0.124371
    9 11.140032 0.000000 0.000000 0.000000 0.000000 -1.984832
    10 10.314563 -0.000001 0.000001 -1.844129 -0.244110 0.078167
    11 1.646836 0.445664 -1.699647 0.338082 0.355426 0.659546
    12 0.928312 0.000000 0.000000 0.000000 0.000000 0.000000
    13 0.928313 0.000000 -0.000001 0.000000 0.000000 0.000000
    14 2.979373 -0.388274 -0.044205 -0.008260 -0.042832 0.172800
    15 1.435262 -0.000001 -0.000001 0.000000 0.000000 1.070447
    16 1.482593 -0.000001 0.000001 0.000000 0.000000 0.765466
    17 -3.436323 0.575423 -3.898201 2.082142 1.379866 -1.232936
    18 4.972047 0.000000 0.000000 -0.320838 -0.993652 -0.947799
    19 11.585358 0.000000 0.000001 0.000000 0.000000 -1.757569
    20 10.127058 0.000000 0.000001 2.427719 0.057022 0.544587
    21 1.537458 0.109715 1.664489 -0.264662 -0.055995 0.783079
    22 0.928313 0.000000 0.000002 0.000000 0.000000 -0.453501
    23 0.928311 0.000000 0.000001 0.000000 0.000000 0.000000
    24 2.686395 -0.427337 0.044204 -0.005762 0.043239 -0.157074
    25 1.435260 0.000000 0.000001 0.000000 0.000000 0.732613
    26 1.482593 0.000000 -0.000001 0.000000 0.000000 1.168644
    27 2.046984 0.000001 0.000000 0.226616 -0.005488 -0.105181
    28 -0.000005 0.000007 3.713254 -3.273002 -0.169214 1.259105
    29 18.045723 0.000000 0.000000 0.000000 0.000000 -1.680898
    30 17.597597 0.000000 0.000000 -0.240863 0.182001 -0.205679
    31 0.000005 -0.000003 -3.713254 0.887640 2.346340 5.567950
    32 18.045721 0.000000 0.000000 0.000000 0.000000 -2.666290
    33 17.597597 0.000000 0.000000 0.368225 0.017622 0.807470
  time 5
    0 -0.190447 1.945523 -20.600716 0.000000 0.000000 -1.585458
    1 -0.546896 0.039064 0.000000 -1.570795 -1.570787 0.000000
    2 1.293670 0.684478 -0.000001 0.001664 0.011948 0.150195
    3 5.309685 -0.003834 0.000000 -0.133090 -0.031496 0.029916
    4 4.826790 -0.004591 0.000000 -0.186757 -0.053272 -0.157900
    5 5.792767 -0.005304 0.000000 -0.159173 -0.029806 0.040055
    6 6.662322 -0.001452 0.000000 -0.004063 -0.091633 0.188151
    7 -3.002716 0.579294 4.632603 0.323596 -1.436134 -3.647829
    8 4.827512 0.000000 -0.000002 0.341185 0.836699 -0.269684
    9 11.140032 0.000000 0.000000 0.000000 0.000000 -2.027870
    10 10.314563 -0.000001 0.000001 -1.820814 -0.352208 0.080722
    11 1.646836 0.445664 -1.699647 0.369982 0.325303 0.750749
    12 0.928312 0.000000 0.000000 0.000000 0.000000 0.000000
    13 0.928313 0.000000 -0.000001 0.000000 0.000000 0.000000
    14 2.979373 -0.388274 -0.044205 -0.010561 -0.042341 0.226911
    15 1.435262 -0.000001 -0.000001 0.000000 0.000000 1.004458
    16 1.482593 -0.000001 0.000001 0.000000 0.000000 0.758361
    17 -3.510544 0.563704 -3.835699 1.759531 1.380917 -1.550926
    18 4.972047 0.000000 0.000000 -0.393438 -0.930498 -0.758582
    19 11.585358 0.000000 0.000001 0.000000 0.000000 -1.817195
    20 10.127058 0.000000 0.000001 2.024786 0.270832 0.605713
    21 1.537458 0.109715 1.664489 -0.264662 -0.055995 0.783079
    22 0.928313 0.000000 0.000002 0.000000 0.000000 -0.453501
    23 0.928311 0.000000 0.000001 0.000000 0.000000 0.000000
    24 2.686395 -0.427337 0.044204 -0.005762 0.043239 -0.157074
    25 1.435260 0.000000 0.000001 0.000000 0.000000 0.732613
    26 1.482593 0.000000 -0.000001 0.000000 0.000000 1.168644
    27 2.046984 0.000001 0.000000 0.229546 0.028471 -0.297157
    28 -0.000005 0.000007 3.713254 -3.276933 -0.167680 1.260255
    29 18.045723 0.000000 0.000000 0.000000 0.000000 -1.676976
    30 17.597597 0.000000 0.000000 -0.243321 0.185077 -0.208613
    31 0.000005 -0.000003 -3.713254 0.876906 2.340012 5.551748
    32 18.045721 0.000000 0.000000 0.000000 0.000000 -2.667628
    33 17.597597 0.000000 0.000000 0.372923 0.018213 0.796847
  time 6
    0 -0.084975 2.008025 -20.600716 0.000000 0.000000 -1.585458
    1 -0.546896 0.039064 0.000000 -1.570795 -1.570787 0.000000
    2 1.293670 0.684478 -0.000001 0.001259 0.009730 0.145039
    3 5.309685 -0.003834 0.000000 -0.138536 -0.020973 0.052437
    4 4.826790 -0.004591 0.000000 -0.206270 -0.033185 -0.128906
    5 5.792767 -0.005304 0.000000 -0.158094 -0.009791 0.055191
    6 6.662322 -0.001452 0.000000 -0.003931 -0.109954 0.183765
    7 -2.920682 0.559763 4.687293 0.781199 -1.422799 -4.091180
    8 4.827512 0.000000 -0.000002 0.386384 0.759100 -0.231124
    9 11.140032 0.000000 0.000000 0.000000 0.000000 -2.235883
    10 10.314563 -0.000001 0.000001 -1.813232 -0.602968 0.083683
    11 1.646836 0.445664 -1.699647 0.396064 0.293059 0.840091
    12 0.928312 0.000000 0.000000 0.000000 0.000000 0.000000
    13 0.928313 0.000000 -0.000001 0.000000 0.000000 0.000000
    14 2.979373 -0.388274 -0.044205 -0.012838 -0.041681 0.281021
    15 1.435262 -0.000001 -0.000001 0.000000 0.000000 0.938469
    16 1.482593 -0.000001 0.000001 0.000000 0.000000 0.751362
    17 -3.576952 0.544172 -3.769291 1.319321 1.401240 -1.992952
    18 4.972047 0.000000 0.000000 -0.531604 -0.938292 -0.509798
    19 11.585358 0.000000 0.000001 0.000000 0.000000 -2.017883
    20 10.127058 0.000000 0.000001 1.698780 0.390266 0.251760
    21 1.537458 0.109715 1.664489 -0.264662 -0.055995 0.783079
    22 0.928313 0.000000 0.000002 0.000000 0.000000 -0.453501
    23 0.928311 0.000000 0.000001 0.000000 0.000000 0.000000
    24 2.686395 -0.427337 0.044204 -0.005762 0.043239 -0.157074
    25 1.435260 0.000000 0.000001 0.000000 0.000000 0.732613
    26 1.482593 0.000000 -0.000001 0.000000 0.000000 1.168644
    27 2.046984 0.000001 0.000000 0.248804 0.082374 -0.497101
    28 -0.000005 0.000007 3.713254 -3.282206 -0.165667 1.261789
    29 18.045723 0.000000 0.000000 0.000000 0.000000 -1.672683
    30 17.597597 0.000000 0.000000 -0.246666 0.189310 -0.211868
    31 0.000005 -0.000003 -3.713254 0.861283 2.331480 5.530848
    32 18.045721 0.000000 0.000000 0.000000 0.000000 -2.669596
    33 17.597597 0.000000 0.000000 0.378023 0.020403 0.782944
  time 7
    0 0.032216 2.066620 -20.600716 0.000000 0.000000 -1.585458
    1 -0.546896 0.039064 0.000000 -1.570795 -1.570787 0.000000
    2 1.293670 0.684478 -0.000001 0.000906 0.007370 0.139866
    3 5.309685 -0.003834 0.000000 -0.142535 -0.008713 0.075753
    4 4.826790 -0.004591 0.000000 -0.225669 -0.011110 -0.094136
    5 5.792767 -0.005304 0.000000 -0.157285 0.008114 0.068936
    6 6.662322 -0.001452 0.000000 -0.003476 -0.128274 0.179379
    7 -2.838648 0.548043 4.741982 1.111413 -1.386281 -4.406039
    8 4.827512 0.000000 -0.000002 0.411973 0.634430 -0.260325
    9 11.140032 0.000000 0.000000 0.000000 0.000000 -2.451432
    10 10.314563 -0.000001 0.000001 -1.803944 -0.844830 0.055174
    11 1.646836 0.445664 -1.699647 0.416329 0.259314 0.927937
    12 0.928312 0.000000 0.000000 0.000000 0.000000 0.000000
    13 0.928313 0.000000 -0.000001 0.000000 0.000000 0.000000
    14 2.979373 -0.388274 -0.044205 -0.015091 -0.040926 0.335219
    15 1.435262 -0.000001 -0.000001 0.000000 0.000000 0.872522
    16 1.482593 -0.000001 0.000001 0.000000 0.000000 0.744310
    17 -3.651173 0.532453 -3.706789 0.822842 1.387227 -2.491105
    18 4.972047 0.000000 0.000000 -0.559931 -0.950344 -0.337753
    19 11.585358 0.000000 0.000001 0.000000 0.000000 -2.183039
    20 10.127058 0.000000 0.000001 2.010271 0.118583 0.071483
    21 1.537458 0.109715 1.664489 -0.264662 -0.055995 0.783079
    22 0.928313 0.000000 0.000002 0.000000 0.000000 -0.453501
    23 0.928311 0.000000 0.000001 0.000000 0.000000 0.000000
    24 2.686395 -0.427337 0.044204 -0.005762 0.043239 -0.157074
    25 1.435260 0.000000 0.000001 0.000000 0.000000 0.732613
    26 1.482593 0.000000 -0.000001 0.000000 0.000000 1.168644
    27 2.046984 0.000001 0.000000 0.299814 0.130612 -0.618515
    28 -0.000005 0.000007 3.713254 -3.287958 -0.163366 1.263418
    29 18.045723 0.000000 0.000000 0.000000 0.000000 -1.668686
    30 17.597597 0.000000 0.000000 -0.250366 0.194011 -0.214711
    31 0.000005 -0.000003 -3.713254 0.842882 2.322085 5.508415
    32 18.045721 0.000000 0.000000 0.000000 0.000000 -2.671564
    33 17.597597 0.000000 0.000000 0.382518 0.024071 0.767749
  time 8
    0 0.137688 2.105684 -20.600716 0.000000 0.000000 -1.585458
    1 -0.546896 0.039064 0.000000 -1.570795 -1.570787 0.000000
    2 1.293670 0.684478 -0.000001 0.000569 0.004889 0.134693
    3 5.309685 -0.003834 0.000000 -0.145853 0.004854 0.099157
    4 4.826790 -0.004591 0.000000 -0.244648 0.009708 -0.058462
    5 5.792767 -0.005304 0.000000 -0.156637 0.020134 0.080501
    6 6.662322 -0.001452 0.000000 -0.002697 -0.146582 0.174936
    7 -2.748802 0.536324 4.792765 1.320564 -1.337226 -4.599209
    8 4.827512 0.000000 -0.000002 0.320299 0.321646 -0.662037
    9 11.140032 0.000000 0.000000 0.000000 0.000000 -2.455272
    10 10.314563 -0.000001 0.000001 -1.766602 -0.850450 0.001756
    11 1.646836 0.445664 -1.699647 0.430590 0.224685 1.014388
    12 0.928312 0.000000 0.000000 0.000000 0.000000 0.000000
    13 0.928313 0.000000 -0.000001 0.000000 0.000000 0.000000
    14 2.979373 -0.388274 -0.044205 -0.017272 -0.040076 0.389286
    15 1.435262 -0.000001 -0.000001 0.000000 0.000000 0.806533
    16 1.482593 -0.000001 0.000001 0.000000 0.000000 0.737258
    17 -3.721488 0.512921 -3.644287 0.391993 1.333016 -2.923553
    18 4.972047 0.000000 0.000000 -0.349541 -0.967217 -0.353127
    19 11.585358 0.000000 0.000001 0.000000 0.000000 -2.183529
    20 10.127058 0.000000 0.000001 1.848775 0.054942 0.008506
    21 1.537458 0.109715 1.664489 -0.264662 -0.055995 0.783079
    22 0.928313 0.000000 0.000002 0.000000 0.000000 -0.453501
    23 0.928311 0.000000 0.000001 0.000000 0.000000 0.000000
    24 2.686395 -0.427337 0.044204 -0.005762 0.043239 -0.157074
    25 1.435260 0.000000 0.000001 0.000000 0.000000 0.732613
    26 1.482593 0.000000 -0.000001 0.000000 0.000000 1.168644
    27 2.046984 0.000001 0.000000 0.345956 0.207380 -0.728250
    28 -0.000005 0.000007 3.713254 -3.293615 -0.161256 1.264856
    29 18.045723 0.000000 0.000000 0.000000 0.000000 -1.665651
    30 17.597597 0.000000 0.000000 -0.253913 0.198637 -0.216682
    31 0.000005 -0.000003 -3.713254 0.824193 2.313074 5.487515
    32 18.045721 0.000000 0.000000 0.000000 0.000000 -2.673217
    33 17.597597 0.000000 0.000000 0.385505 0.028805 0.753523
  time 9
    0 0.223628 2.113497 -20.600716 0.000000 0.000000 -1.585458
    1 -0.546896 0.039064 0.000000 -1.570795 -1.570787 0.000000
    2 1.293670 0.684478 -0.000001 0.000249 0.002396 0.129520
    3 5.309685 -0.003834 0.000000 -0.149172 0.019151 0.121908
    4 4.826790 -0.004591 0.000000 -0.263474 0.026019 -0.027043
    5 5.792767 -0.005304 0.000000 -0.156619 0.017653 0.078840
    6 6.662322 -0.001452 0.000000 -0.001582 -0.164889 0.170407
    7 -2.666768 0.528512 4.839641 1.456004 -1.281991 -4.717448
    8 4.827512 0.000000 -0.000002 0.368129 0.036235 -0.985762
    9 11.140032 0.000000 0.000000 0.000000 0.000000 -2.338839
    10 10.314563 -0.000001 0.000001 -1.734378 -0.778135 -0.029598
    11 1.646836 0.445664 -1.699647 0.439128 0.189791 1.099858
    12 0.928312 0.000000 0.000000 0.000000 0.000000 0.000000
    13 0.928313 0.000000 -0.000001 0.000000 0.000000 0.000000
    14 2.979373 -0.388274 -0.044205 -0.019405 -0.039081 0.443396
    15 1.435262 -0.000001 -0.000001 0.000000 0.000000 0.740460
    16 1.482593 -0.000001 0.000001 0.000000 0.000000 0.730206
    17 -3.787896 0.493389 -3.570066 0.181154 1.260060 -3.133120
    18 4.972047 0.000000 0.000000 -0.134742 -0.993974 -0.416155
    19 11.585358 0.000000 0.000001 0.000000 0.000000 -2.145957
    20 10.127058 0.000000 0.000001 1.660773 0.034610 0.018360
    21 1.537458 0.109715 1.664489 -0.264662 -0.055995 0.783079
    22 0.928313 0.000000 0.000002 0.000000 0.000000 -0.453501
    23 0.928311 0.000000 0.000001 0.000000 0.000000 0.000000
    24 2.686395 -0.427337 0.044204 -0.005762 0.043239 -0.157074
    25 1.435260 0.000000 0.000001 0.000000 0.000000 0.732613
    26 1.482593 0.000000 -0.000001 0.000000 0.000000 1.168644
    27 2.046984 0.000001 0.000000 0.373012 0.310406 -0.812376
    28 -0.000005 0.000007 3.713254 -3.298025 -0.159722 1.265719
    29 18.045723 0.000000 0.000000 0.000000 0.000000 -1.664689
    30 17.597597 0.000000 0.000000 -0.256675 0.202181 -0.217141
    31 0.000005 -0.000003 -3.713254 0.808954 2.306171 5.473423
    32 18.045721 0.000000 0.000000 0.000000 0.000000 -2.674870
    33 17.597597 0.000000 0.000000 0.385907 0.034051 0.743454
  time 10
    0 0.250973 2.082246 -20.600716 0.000000 0.000000 -1.585458
    1 -0.546896 0.039064 0.000000 -1.570795 -1.570787 0.000000
    2 1.293670 0.684478 -0.000001 -0.000004 -0.000001 0.124364
    3 5.309685 -0.003834 0.000000 -0.153358 0.033593 0.143369
    4 4.826790 -0.004591 0.000000 -0.286764 0.024952 -0.012337
    5 5.792767 -0.005304 0.000000 -0.156745 0.008269 0.069123
    6 6.662322 -0.001452 0.000000 -0.000144 -0.183155 0.165793
    7 -2.576921 0.516793 4.886517 1.549269 -1.223473 -4.792666
    8 4.827512 0.000000 -0.000002 0.091192 0.416555 -0.929266
    9 11.140032 0.000000 0.000000 0.000000 0.000000 -1.951649
    10 10.314563 -0.000001 0.000001 -1.711158 -0.704790 -0.038714
    11 1.646836 0.445664 -1.699647 0.441755 0.155162 1.184501
    12 0.928312 0.000000 0.000000 0.000000 0.000000 0.000000
    13 0.928313 0.000000 -0.000001 0.000000 0.000000 0.000000
    14 2.979373 -0.388274 -0.044205 -0.021491 -0.037954 0.497507
    15 1.435262 -0.000001 -0.000001 0.000000 0.000000 0.674555
    16 1.482593 -0.000001 0.000001 0.000000 0.000000 0.723154
    17 -3.854304 0.473858 -3.507564 0.080655 1.189023 -3.230528
    18 4.972047 0.000000 0.000000 -0.134836 -1.021453 -0.300548
    19 11.585358 0.000000 0.000001 0.000000 0.000000 -2.130437
    20 10.127058 0.000000 0.000001 1.569752 0.000000 0.121254
    21 1.537458 0.109715 1.664489 -0.264662 -0.055995 0.783079
    22 0.928313 0.000000 0.000002 0.000000 0.000000 -0.453501
    23 0.928311 0.000000 0.000001 0.000000 0.000000 0.000000
    24 2.686395 -0.427337 0.044204 -0.005762 0.043239 -0.157074
    25 1.435260 0.000000 0.000001 0.000000 0.000000 0.732613
    26 1.482593 0.000000 -0.000001 0.000000 0.000000 1.168644
    27 2.046984 0.000001 0.000000 0.377191 0.430072 -0.867426
    28 -0.000005 0.000007 3.713254 -3.299559 -0.159243 1.265719
    29 18.045723 0.000000 0.000000 0.000000 0.000000 -1.666539
    30 17.597597 0.000000 0.000000 -0.257613 0.203535 -0.215444
    31 0.000005 -0.000003 -3.713254 0.802724 2.303583 5.471985
    32 18.045721 0.000000 0.000000 0.000000 0.000000 -2.675500
    33 17.597597 0.000000 0.000000 0.383089 0.038371 0.741467
end
