version 1
nodes
  0 "Bip01" -1
  1 "Bip01 Pelvis" 0
  2 "Bip01 Spine" 1
  3 "Bip01 Spine1" 2
  4 "Bip01 Spine2" 3
  5 "Bip01 Spine3" 4
  6 "Bip01 Neck" 5
  7 "Bip01 L Arm" 6
  8 "Bip01 L Arm1" 7
  9 "Bip01 L Arm2" 8
  10 "Bip01 L Hand" 9
  11 "Bip01 L Finger0" 10
  12 "Bip01 L Finger01" 11
  13 "Bip01 L Finger02" 12
  14 "Bip01 L Finger1" 10
  15 "Bip01 L Finger11" 14
  16 "Bip01 L Finger12" 15
  17 "Bip01 R Arm" 6
  18 "Bip01 R Arm1" 17
  19 "Bip01 R Arm2" 18
  20 "Bip01 R Hand" 19
  21 "Bip01 R Finger0" 20
  22 "Bip01 R Finger01" 21
  23 "Bip01 R Finger02" 22
  24 "Bip01 R Finger1" 20
  25 "Bip01 R Finger11" 24
  26 "Bip01 R Finger12" 25
  27 "Bip01 Head" 6
  28 "Bip01 L Leg" 1
  29 "Bip01 L Leg1" 28
  30 "Bip01 L Foot" 29
  31 "Bip01 R Leg" 1
  32 "Bip01 R Leg1" 31
  33 "Bip01 R Foot" 32
end
skeleton
  time 0
    0 -1.280324 2.218969 -20.585090 0.000000 0.000000 -1.571017
    1 -0.871124 0.058596 0.000000 -1.570795 -1.570787 0.000000
    2 1.293670 0.684478 -0.000001 -0.050791 -0.006976 0.322209
    3 5.309685 -0.003834 0.000000 -0.048720 0.013111 0.163294
    4 4.826790 -0.004591 0.000000 -0.085663 -0.048010 0.206691
    5 5.792767 -0.005304 0.000000 -0.264671 0.011038 0.222726
    6 6.662322 -0.001452 0.000000 -0.091910 0.032655 0.231870
    7 -3.518356 0.356631 4.277124 1.458497 -1.524960 -4.835017
    8 4.827512 0.000000 -0.000002 0.092069 0.004854 -0.903271
    9 11.140032 0.000000 0.000000 0.000000 0.000000 -1.197192
    10 10.314563 -0.000001 0.000001 -4.479005 0.032504 -0.132835
    11 1.646836 0.445664 -1.699647 -0.392035 3.352851 -0.875707
    12 0.928312 0.000000 0.000000 0.000000 0.000000 0.593404
    13 0.928313 0.000000 -0.000001 0.000000 0.000000 1.204231
    14 2.979373 -0.388274 -0.044205 -0.030851 -0.030823 0.768363
    15 1.435262 -0.000001 -0.000001 0.000000 0.000000 0.418706
    16 1.482593 -0.000001 0.000001 0.000000 0.000000 0.794048
    17 -2.975371 1.071532 -4.156022 -1.357004 0.873827 -4.662921
    18 4.972047 0.000000 0.000000 0.523349 -0.129574 -1.418279
    19 11.585358 0.000000 0.000001 0.000000 0.000000 -0.684622
    20 10.127058 0.000000 0.000001 2.455418 0.254283 0.642379
    21 1.537458 0.109715 1.664489 -3.079588 0.031470 0.928526
    22 0.928313 0.000000 0.000002 0.000000 0.000000 0.061034
    23 0.928311 0.000000 0.000001 0.000000 0.000000 0.671897
    24 2.686395 -0.427337 0.044204 -0.001208 0.043611 -0.052337
    25 1.435260 0.000000 0.000001 0.000000 0.000000 1.186618
    26 1.482593 0.000000 -0.000001 0.000000 0.000000 1.684243
    27 2.046984 0.000001 0.000000 0.520140 -0.084203 -0.106154
    28 -0.000005 0.000007 3.713254 -3.289109 -0.165283 1.249519
    29 18.045723 0.000000 0.000000 0.000000 0.000000 -1.732931
    30 17.597597 0.000000 0.000000 -0.251607 0.197234 -0.164508
    31 0.000005 -0.000003 -3.713254 0.821892 2.312307 5.493555
    32 18.045721 0.000000 0.000000 0.000000 0.000000 -2.673768
    33 17.597597 0.000000 0.000000 0.379969 0.033854 0.755924
  time 1
    0 -1.206103 2.133029 -20.585090 0.000000 0.000000 -1.571682
    1 -0.871124 0.058596 0.000000 -1.570795 -1.570787 0.000000
    2 1.293670 0.684478 -0.000001 -0.050555 -0.005670 0.276640
    3 5.309685 -0.003834 0.000000 -0.014192 0.018984 0.161192
    4 4.826790 -0.004591 0.000000 -0.051711 -0.054841 0.187112
    5 5.792767 -0.005304 0.000000 -0.188673 0.024916 0.219051
    6 6.662322 -0.001452 0.000000 -0.091910 0.032655 0.231870
    7 -3.518356 0.356631 4.277124 1.852453 -1.455709 -5.231801
    8 4.827512 0.000000 -0.000002 0.121883 0.024382 -0.921555
    9 11.140032 0.000000 0.000000 0.000000 0.000000 -1.354343
    10 10.314563 -0.000001 0.000001 -3.812823 0.090487 -0.212788
    11 1.646836 0.445664 -1.699647 -0.392035 3.352851 -0.875707
    12 0.928312 0.000000 0.000000 0.000000 0.000000 0.593404
    13 0.928313 0.000000 -0.000001 0.000000 0.000000 1.204231
    14 2.979373 -0.388274 -0.044205 -0.030863 -0.030811 0.768711
    15 1.435262 -0.000001 -0.000001 0.000000 0.000000 0.455274
    16 1.482593 -0.000001 0.000001 0.000000 0.000000 0.814937
    17 -2.975371 1.071532 -4.156022 -1.238449 0.998023 -4.551146
    18 4.972047 0.000000 0.000000 0.385934 -0.297665 -1.212889
    19 11.585358 0.000000 0.000001 0.000000 0.000000 -1.131738
    20 10.127058 0.000000 0.000001 2.333612 0.219672 0.750475
    21 1.537458 0.109715 1.664489 -3.079588 0.031470 0.928526
    22 0.928313 0.000000 0.000002 0.000000 0.000000 0.061034
    23 0.928311 0.000000 0.000001 0.000000 0.000000 0.671897
    24 2.686395 -0.427337 0.044204 -0.001208 0.043611 -0.052337
    25 1.435260 0.000000 0.000001 0.000000 0.000000 1.186618
    26 1.482593 0.000000 -0.000001 0.000000 0.000000 1.684243
    27 2.046984 0.000001 0.000000 0.374606 -0.084793 -0.035958
    28 -0.000005 0.000007 3.713254 -3.290547 -0.164995 1.249135
    29 18.045723 0.000000 0.000000 0.000000 0.000000 -1.737298
    30 17.597597 0.000000 0.000000 -0.252393 0.198514 -0.160611
    31 0.000005 -0.000003 -3.713254 0.815567 2.309814 5.497102
    32 18.045721 0.000000 0.000000 0.000000 0.000000 -2.674555
    33 17.597597 0.000000 0.000000 0.373728 0.040955 0.756155
  time 2
    0 -1.143601 2.039276 -20.588997 0.000000 0.000000 -1.572347
    1 -0.871124 0.058596 0.000000 -1.570795 -1.570787 0.000000
    2 1.293670 0.684478 -0.000001 -0.050471 -0.004459 0.225965
    3 5.309685 -0.003834 0.000000 0.021152 0.025228 0.159408
    4 4.826790 -0.004591 0.000000 -0.016671 -0.061301 0.167158
    5 5.792767 -0.005304 0.000000 -0.111146 0.039381 0.216601
    6 6.662322 -0.001452 0.000000 -0.091910 0.032655 0.231870
    7 -3.518356 0.356631 4.277124 1.946197 -1.380899 -5.330590
    8 4.827512 0.000000 -0.000002 0.153451 0.039646 -0.947810
    9 11.140032 0.000000 0.000000 0.000000 0.000000 -1.515479
    10 10.314563 -0.000001 0.000001 -3.126168 0.176760 -0.226143
    11 1.646836 0.445664 -1.699647 -0.392035 3.352851 -0.875707
    12 0.928312 0.000000 0.000000 0.000000 0.000000 0.593404
    13 0.928313 0.000000 -0.000001 0.000000 0.000000 1.204231
    14 2.979373 -0.388274 -0.044205 -0.030887 -0.030787 0.769319
    15 1.435262 -0.000001 -0.000001 0.000000 0.000000 0.492468
    16 1.482593 -0.000001 0.000001 0.000000 0.000000 0.836681
    17 -2.975371 1.071532 -4.156022 -1.058276 1.110389 -4.381902
    18 4.972047 0.000000 0.000000 0.193740 -0.427430 -0.966035
    19 11.585358 0.000000 0.000001 0.000000 0.000000 -1.578935
    20 10.127058 0.000000 0.000001 2.210404 0.194140 0.861823
    21 1.537458 0.109715 1.664489 -3.079588 0.031470 0.928526
    22 0.928313 0.000000 0.000002 0.000000 0.000000 0.061034
    23 0.928311 0.000000 0.000001 0.000000 0.000000 0.671897
    24 2.686395 -0.427337 0.044204 -0.001208 0.043611 -0.052337
    25 1.435260 0.000000 0.000001 0.000000 0.000000 1.186618
    26 1.482593 0.000000 -0.000001 0.000000 0.000000 1.684243
    27 2.046984 0.000001 0.000000 0.227650 -0.070012 0.040139
    28 -0.000005 0.000007 3.713254 -3.292368 -0.164612 1.248848
    29 18.045723 0.000000 0.000000 0.000000 0.000000 -1.741664
    30 17.597597 0.000000 0.000000 -0.253407 0.200114 -0.156577
    31 0.000005 -0.000003 -3.713254 0.808187 2.306651 5.499691
    32 18.045721 0.000000 0.000000 0.000000 0.000000 -2.675185
    33 17.597597 0.000000 0.000000 0.367286 0.048607 0.755740
  time 3
    0 -1.057661 1.953336 -20.588997 0.000000 0.000000 -1.573012
    1 -0.871124 0.058596 0.000000 -1.570795 -1.570787 0.000000
    2 1.293670 0.684478 -0.000001 -0.050605 -0.003297 0.178069
    3 5.309685 -0.003834 0.000000 0.054710 0.031316 0.157677
    4 4.826790 -0.004591 0.000000 0.016671 -0.066383 0.147601
    5 5.792767 -0.005304 0.000000 -0.036857 0.053787 0.214504
    6 6.662322 -0.001452 0.000000 -0.091910 0.032655 0.231870
    7 -3.518356 0.356631 4.277124 1.979745 -1.308159 -5.371504
    8 4.827512 0.000000 -0.000002 0.178961 0.045700 -0.979437
    9 11.140032 0.000000 0.000000 0.000000 0.000000 -1.668646
    10 10.314563 -0.000001 0.000001 -2.458185 0.235398 -0.178124
    11 1.646836 0.445664 -1.699647 -0.392035 3.352851 -0.875707
    12 0.928312 0.000000 0.000000 0.000000 0.000000 0.593404
    13 0.928313 0.000000 -0.000001 0.000000 0.000000 1.204231
    14 2.979373 -0.388274 -0.044205 -0.030887 -0.030787 0.769405
    15 1.435262 -0.000001 -0.000001 0.000000 0.000000 0.528451
    16 1.482593 -0.000001 0.000001 0.000000 0.000000 0.856662
    17 -2.975371 1.071532 -4.156022 -0.829381 1.191021 -4.165822
    18 4.972047 0.000000 0.000000 -0.005300 -0.487611 -0.718582
    19 11.585358 0.000000 0.000001 0.000000 0.000000 -1.969365
    20 10.127058 0.000000 0.000001 2.093858 0.181563 0.957665
    21 1.537458 0.109715 1.664489 -3.079588 0.031470 0.928526
    22 0.928313 0.000000 0.000002 0.000000 0.000000 0.061034
    23 0.928311 0.000000 0.000001 0.000000 0.000000 0.671897
    24 2.686395 -0.427337 0.044204 -0.001208 0.043611 -0.052337
    25 1.435260 0.000000 0.000001 0.000000 0.000000 1.186618
    26 1.482593 0.000000 -0.000001 0.000000 0.000000 1.684243
    27 2.046984 0.000001 0.000000 0.091077 -0.039181 0.107598
    28 -0.000005 0.000007 3.713254 -3.294286 -0.164133 1.248656
    29 18.045723 0.000000 0.000000 0.000000 0.000000 -1.745809
    30 17.597597 0.000000 0.000000 -0.254572 0.201910 -0.152817
    31 0.000005 -0.000003 -3.713254 0.800136 2.303295 5.501321
    32 18.045721 0.000000 0.000000 0.000000 0.000000 -2.676051
    33 17.597597 0.000000 0.000000 0.361146 0.056319 0.754539
  time 4
    0 -0.983440 1.879115 -20.588997 0.000000 0.000000 -1.573582
    1 -0.871124 0.058596 0.000000 -1.570795 -1.570787 0.000000
    2 1.293670 0.684478 -0.000001 -0.050925 -0.001966 0.140837
    3 5.309685 -0.003834 0.000000 0.083741 0.036673 0.155769
    4 4.826790 -0.004591 0.000000 0.045912 -0.069139 0.129279
    5 5.792767 -0.005304 0.000000 0.029518 0.067401 0.211784
    6 6.662322 -0.001452 0.000000 -0.091910 0.032655 0.231870
    7 -3.518356 0.356631 4.277124 1.988564 -1.241895 -5.389039
    8 4.827512 0.000000 -0.000002 0.190121 0.040925 -1.011931
    9 11.140032 0.000000 0.000000 0.000000 0.000000 -1.802540
    10 10.314563 -0.000001 0.000001 -1.862706 0.241393 -0.113616
    11 1.646836 0.445664 -1.699647 -0.392035 3.352851 -0.875707
    12 0.928312 0.000000 0.000000 0.000000 0.000000 0.593404
    13 0.928313 0.000000 -0.000001 0.000000 0.000000 1.204231
    14 2.979373 -0.388274 -0.044205 -0.030851 -0.030823 0.768363
    15 1.435262 -0.000001 -0.000001 0.000000 0.000000 0.561466
    16 1.482593 -0.000001 0.000001 0.000000 0.000000 0.872208
    17 -2.975371 1.071532 -4.156022 -0.812759 1.208058 -4.152413
    18 4.972047 0.000000 0.000000 0.003329 -0.475961 -0.629398
    19 11.585358 0.000000 0.000001 0.000000 0.000000 -2.057824
    20 10.127058 0.000000 0.000001 2.016652 0.188561 0.956664
    21 1.537458 0.109715 1.664489 -3.079588 0.031470 0.928526
    22 0.928313 0.000000 0.000002 0.000000 0.000000 0.061034
    23 0.928311 0.000000 0.000001 0.000000 0.000000 0.671897
    24 2.686395 -0.427337 0.044204 -0.001208 0.043611 -0.052337
    25 1.435260 0.000000 0.000001 0.000000 0.000000 1.186618
    26 1.482593 0.000000 -0.000001 0.000000 0.000000 1.684243
    27 2.046984 0.000001 0.000000 -0.026065 -0.000384 0.152733
    28 -0.000005 0.000007 3.713254 -3.296395 -0.163557 1.248560
    29 18.045723 0.000000 0.000000 0.000000 0.000000 -1.749436
    30 17.597597 0.000000 0.000000 -0.255738 0.203707 -0.149425
    31 0.000005 -0.000003 -3.713254 0.791894 2.299844 5.501992
    32 18.045721 0.000000 0.000000 0.000000 0.000000 -2.676917
    33 17.597597 0.000000 0.000000 0.355610 0.063459 0.752830
  time 5
    0 -0.944376 1.836145 -20.592903 0.000000 0.000000 -1.574152
    1 -0.871124 0.058596 0.000000 -1.570795 -1.570787 0.000000
    2 1.293670 0.684478 -0.000001 -0.051262 -0.002482 0.126038
    3 5.309685 -0.003834 0.000000 0.080627 0.035570 0.150788
    4 4.826790 -0.004591 0.000000 0.044119 -0.060330 0.120636
    5 5.792767 -0.005304 0.000000 0.039321 0.074149 0.197520
    6 6.662322 -0.001452 0.000000 -0.091910 0.032655 0.231870
    7 -3.518356 0.356631 4.277124 1.947060 -1.221137 -5.348603
    8 4.827512 0.000000 -0.000002 0.131051 0.063352 -1.012971
    9 11.140032 0.000000 0.000000 0.000000 0.000000 -1.798265
    10 10.314563 -0.000001 0.000001 -1.834083 0.250761 -0.091552
    11 1.646836 0.445664 -1.699647 -0.392035 3.352851 -0.875707
    12 0.928312 0.000000 0.000000 0.000000 0.000000 0.593404
    13 0.928313 0.000000 -0.000001 0.000000 0.000000 1.204231
    14 2.979373 -0.388274 -0.044205 -0.030575 -0.031111 0.758766
    15 1.435262 -0.000001 -0.000001 0.000000 0.000000 0.573085
    16 1.482593 -0.000001 0.000001 0.000000 0.000000 0.856394
    17 -2.975371 1.071532 -4.156022 -0.900552 1.196306 -4.238423
    18 4.972047 0.000000 0.000000 0.068238 -0.436670 -0.676386
    19 11.585358 0.000000 0.000001 0.000000 0.000000 -1.971897
    20 10.127058 0.000000 0.000001 1.971773 0.201327 0.925951
    21 1.537458 0.109715 1.664489 -3.079588 0.031470 0.928526
    22 0.928313 0.000000 0.000002 0.000000 0.000000 0.061034
    23 0.928311 0.000000 0.000001 0.000000 0.000000 0.671897
    24 2.686395 -0.427337 0.044204 -0.001208 0.043611 -0.052337
    25 1.435260 0.000000 0.000001 0.000000 0.000000 1.186618
    26 1.482593 0.000000 -0.000001 0.000000 0.000000 1.684243
    27 2.046984 0.000001 0.000000 -0.034251 -0.011182 0.159120
    28 -0.000005 0.000007 3.713254 -3.297066 -0.163461 1.248560
    29 18.045723 0.000000 0.000000 0.000000 0.000000 -1.750546
    30 17.597597 0.000000 0.000000 -0.256169 0.204297 -0.148462
    31 0.000005 -0.000003 -3.713254 0.789306 2.298694 5.501896
    32 18.045721 0.000000 0.000000 0.000000 0.000000 -2.677153
    33 17.597597 0.000000 0.000000 0.354000 0.065668 0.752091
  time 6
    0 -0.995159 1.804894 -20.592903 0.000000 0.000000 -1.574817
    1 -0.871124 0.058596 0.000000 -1.570795 -1.570787 0.000000
    2 1.293670 0.684478 -0.000001 -0.051683 -0.002182 0.122539
    3 5.309685 -0.003834 0.000000 0.077036 0.034947 0.146213
    4 4.826790 -0.004591 0.000000 0.010281 -0.068312 0.115609
    5 5.792767 -0.005304 0.000000 -0.002680 0.043133 0.179394
    6 6.662322 -0.001452 0.000000 -0.091910 0.032655 0.231870
    7 -3.518356 0.356631 4.277124 1.984730 -1.229210 -5.386739
    8 4.827512 0.000000 -0.000002 0.162061 0.147346 -0.983770
    9 11.140032 0.000000 0.000000 0.000000 0.000000 -2.147128
    10 10.314563 -0.000001 0.000001 -1.778165 0.234181 -0.028553
    11 1.646836 0.445664 -1.699647 -0.392035 3.352851 -0.875707
    12 0.928312 0.000000 0.000000 0.000000 0.000000 0.593404
    13 0.928313 0.000000 -0.000001 0.000000 0.000000 1.204231
    14 2.979373 -0.388274 -0.044205 -0.031546 -0.030116 0.791032
    15 1.435262 -0.000001 -0.000001 0.000000 0.000000 0.615879
    16 1.482593 -0.000001 0.000001 0.000000 0.000000 0.857142
    17 -2.975371 1.071532 -4.156022 -0.964845 1.173275 -4.298957
    18 4.972047 0.000000 0.000000 0.127143 -0.398182 -0.826402
    19 11.585358 0.000000 0.000001 0.000000 0.000000 -1.774967
    20 10.127058 0.000000 0.000001 1.928576 0.202178 0.915797
    21 1.537458 0.109715 1.664489 -3.079588 0.031470 0.928526
    22 0.928313 0.000000 0.000002 0.000000 0.000000 0.061034
    23 0.928311 0.000000 0.000001 0.000000 0.000000 0.671897
    24 2.686395 -0.427337 0.044204 -0.001208 0.043611 -0.052337
    25 1.435260 0.000000 0.000001 0.000000 0.000000 1.186618
    26 1.482593 0.000000 -0.000001 0.000000 0.000000 1.684243
    27 2.046984 0.000001 0.000000 0.055706 -0.008025 0.149813
    28 -0.000005 0.000007 3.713254 -3.293615 -0.164612 1.247793
    29 18.045723 0.000000 0.000000 0.000000 0.000000 -1.751730
    30 17.597597 0.000000 0.000000 -0.253989 0.201492 -0.147774
    31 0.000005 -0.000003 -3.713254 0.800711 2.303966 5.513208
    32 18.045721 0.000000 0.000000 0.000000 0.000000 -2.676051
    33 17.597597 0.000000 0.000000 0.353429 0.062256 0.760081
  time 7
    0 -1.038129 1.797081 -20.592903 0.000000 0.000000 -1.575482
    1 -0.871124 0.050783 0.000000 -1.570795 -1.570787 0.000000
    2 1.293670 0.684478 -0.000001 -0.052206 -0.001667 0.120162
    3 5.309685 -0.003834 0.000000 0.072952 0.034731 0.141974
    4 4.826790 -0.004591 0.000000 -0.025026 -0.076186 0.118718
    5 5.792767 -0.005304 0.000000 -0.050743 0.015029 0.171338
    6 6.662322 -0.001452 0.000000 -0.091910 0.032655 0.231870
    7 -3.518356 0.356631 4.277124 2.021921 -1.239766 -5.423725
    8 4.827512 0.000000 -0.000002 0.213319 0.232194 -0.993648
    9 11.140032 0.000000 0.000000 0.000000 0.000000 -2.347461
    10 10.314563 -0.000001 0.000001 -1.755134 0.238958 -0.044230
    11 1.646836 0.445664 -1.699647 -0.392035 3.352851 -0.875707
    12 0.928312 0.000000 0.000000 0.000000 0.000000 0.593404
    13 0.928313 0.000000 -0.000001 0.000000 0.000000 1.204231
    14 2.979373 -0.388274 -0.044205 -0.030287 -0.031411 0.749907
    15 1.435262 -0.000001 -0.000001 0.000000 0.000000 0.622399
    16 1.482593 -0.000001 0.000001 0.000000 0.000000 0.824660
    17 -2.975371 1.071532 -4.156022 -0.988633 1.161418 -4.320986
    18 4.972047 0.000000 0.000000 0.170197 -0.361945 -0.948265
    19 11.585358 0.000000 0.000001 0.000000 0.000000 -1.629577
    20 10.127058 0.000000 0.000001 1.892392 0.197261 0.911245
    21 1.537458 0.109715 1.664489 -3.079588 0.031470 0.928526
    22 0.928313 0.000000 0.000002 0.000000 0.000000 0.061034
    23 0.928311 0.000000 0.000001 0.000000 0.000000 0.671897
    24 2.686395 -0.427337 0.044204 -0.001208 0.043611 -0.052337
    25 1.435260 0.000000 0.000001 0.000000 0.000000 1.186618
    26 1.482593 0.000000 -0.000001 0.000000 0.000000 1.684243
    27 2.046984 0.000001 0.000000 0.139761 -0.008084 0.146710
    28 -0.000005 0.000007 3.713254 -3.290738 -0.165571 1.247410
    29 18.045723 0.000000 0.000000 0.000000 0.000000 -1.750768
    30 17.597597 0.000000 0.000000 -0.252190 0.199080 -0.148874
    31 0.000005 -0.000003 -3.713254 0.810775 2.308568 5.519440
    32 18.045721 0.000000 0.000000 0.000000 0.000000 -2.675185
    33 17.597597 0.000000 0.000000 0.355442 0.057148 0.765439
  time 8
    0 -1.026410 1.847864 -20.592903 0.000000 0.000000 -1.576147
    1 -0.871124 0.050783 0.000000 -1.570795 -1.570787 0.000000
    2 1.293670 0.684478 -0.000001 -0.052795 -0.000888 0.118471
    3 5.309685 -0.003834 0.000000 0.068289 0.035007 0.138176
    4 4.826790 -0.004591 0.000000 -0.054095 -0.078164 0.136026
    5 5.792767 -0.005304 0.000000 -0.094723 0.006316 0.181138
    6 6.662322 -0.001452 0.000000 -0.091910 0.032655 0.231870
    7 -3.518356 0.356631 4.277124 2.015690 -1.243196 -5.416634
    8 4.827512 0.000000 -0.000002 0.275737 0.310390 -1.118598
    9 11.140032 0.000000 0.000000 0.000000 0.000000 -2.044534
    10 10.314563 -0.000001 0.000001 -1.835789 0.300501 -0.275032
    11 1.646836 0.445664 -1.699647 -0.392035 3.352851 -0.875707
    12 0.928312 0.000000 0.000000 0.000000 0.000000 0.593404
    13 0.928313 0.000000 -0.000001 0.000000 0.000000 1.204231
    14 2.979373 -0.388274 -0.044205 -0.021035 -0.038242 0.485217
    15 1.435262 -0.000001 -0.000001 0.000000 0.000000 0.509561
    16 1.482593 -0.000001 0.000001 0.000000 0.000000 0.692809
    17 -2.975371 1.071532 -4.156022 -0.967138 1.171882 -4.301064
    18 4.972047 0.000000 0.000000 0.189801 -0.328037 -0.999978
    19 11.585358 0.000000 0.000001 0.000000 0.000000 -1.604419
    20 10.127058 0.000000 0.000001 1.865605 0.188088 0.907493
    21 1.537458 0.109715 1.664489 -3.079588 0.031470 0.928526
    22 0.928313 0.000000 0.000002 0.000000 0.000000 0.061034
    23 0.928311 0.000000 0.000001 0.000000 0.000000 0.671897
    24 2.686395 -0.427337 0.044204 -0.001208 0.043611 -0.052337
    25 1.435260 0.000000 0.000001 0.000000 0.000000 1.186618
    26 1.482593 0.000000 -0.000001 0.000000 0.000000 1.684243
    27 2.046984 0.000001 0.000000 0.189091 -0.025993 0.141236
    28 -0.000005 0.000007 3.713254 -3.290451 -0.165475 1.247985
    29 18.045723 0.000000 0.000000 0.000000 0.000000 -1.746105
    30 17.597597 0.000000 0.000000 -0.252114 0.198637 -0.152909
    31 0.000005 -0.000003 -3.713254 0.813554 2.309527 5.512633
    32 18.045721 0.000000 0.000000 0.000000 0.000000 -2.674870
    33 17.597597 0.000000 0.000000 0.361784 0.051092 0.762991
  time 9
    0 -1.006878 1.922085 -20.596809 0.000000 0.000000 -1.576812
    1 -0.871124 0.050783 0.000000 -1.570795 -1.570787 0.000000
    2 1.293670 0.684478 -0.000001 -0.053418 0.000023 0.118153
    3 5.309685 -0.003834 0.000000 0.063491 0.035367 0.134467
    4 4.826790 -0.004591 0.000000 -0.084919 -0.079338 0.159397
    5 5.792767 -0.005304 0.000000 -0.142751 0.001474 0.197582
    6 6.662322 -0.001452 0.000000 -0.091910 0.032655 0.231870
    7 -3.518356 0.356631 4.277124 1.994411 -1.244881 -5.394500
    8 4.827512 0.000000 -0.000002 0.338953 0.404702 -1.265123
    9 11.140032 0.000000 0.000000 0.000000 0.000000 -1.568008
    10 10.314563 -0.000001 0.000001 -1.972172 0.338344 -0.590548
    11 1.646836 0.445664 -1.699647 -0.392035 3.352851 -0.875707
    12 0.928312 0.000000 0.000000 0.000000 0.000000 0.593404
    13 0.928313 0.000000 -0.000001 0.000000 0.000000 1.204231
    14 2.979373 -0.388274 -0.044205 -0.007469 -0.043000 0.154430
    15 1.435262 -0.000001 -0.000001 0.000000 0.000000 0.362538
    16 1.482593 -0.000001 0.000001 0.000000 0.000000 0.531360
    17 -2.975371 1.071532 -4.156022 -0.935708 1.186684 -4.272234
    18 4.972047 0.000000 0.000000 0.210999 -0.287300 -1.047432
    19 11.585358 0.000000 0.000001 0.000000 0.000000 -1.602132
    20 10.127058 0.000000 0.000001 1.840501 0.178159 0.904342
    21 1.537458 0.109715 1.664489 -3.079588 0.031470 0.928526
    22 0.928313 0.000000 0.000002 0.000000 0.000000 0.061034
    23 0.928311 0.000000 0.000001 0.000000 0.000000 0.671897
    24 2.686395 -0.427337 0.044204 -0.001208 0.043611 -0.052337
    25 1.435260 0.000000 0.000001 0.000000 0.000000 1.186618
    26 1.482593 0.000000 -0.000001 0.000000 0.000000 1.684243
    27 2.046984 0.000001 0.000000 0.233854 -0.049684 0.134119
    28 -0.000005 0.000007 3.713254 -3.290643 -0.165091 1.248848
    29 18.045723 0.000000 0.000000 0.000000 0.000000 -1.739962
    30 17.597597 0.000000 0.000000 -0.252393 0.198662 -0.158227
    31 0.000005 -0.000003 -3.713254 0.814512 2.309431 5.501416
    32 18.045721 0.000000 0.000000 0.000000 0.000000 -2.674634
    33 17.597597 0.000000 0.000000 0.370037 0.044209 0.758049
  time 10
    0 -0.971721 1.996306 -20.596809 0.000000 0.000000 -1.577477
    1 -0.871124 0.050783 0.000000 -1.570795 -1.570787 0.000000
    2 1.293670 0.684478 -0.000001 -0.054059 0.001042 0.119040
    3 5.309685 -0.003834 0.000000 0.058590 0.035798 0.130845
    4 4.826790 -0.004591 0.000000 -0.113092 -0.078487 0.182790
    5 5.792767 -0.005304 0.000000 -0.187540 0.000575 0.214732
    6 6.662322 -0.001452 0.000000 -0.091910 0.032655 0.231870
    7 -3.518356 0.356631 4.277124 1.974953 -1.248045 -5.373899
    8 4.827512 0.000000 -0.000002 0.367491 0.474456 -1.339903
    9 11.140032 0.000000 0.000000 0.000000 0.000000 -1.220449
    10 10.314563 -0.000001 0.000001 -2.056049 0.328134 -0.799750
    11 1.646836 0.445664 -1.699647 -0.392035 3.352851 -0.875707
    12 0.928312 0.000000 0.000000 0.000000 0.000000 0.593404
    13 0.928313 0.000000 -0.000001 0.000000 0.000000 1.204231
    14 2.979373 -0.388274 -0.044205 -0.000530 -0.043611 -0.006512
    15 1.435262 -0.000001 -0.000001 0.000000 0.000000 0.312597
    16 1.482593 -0.000001 0.000001 0.000000 0.000000 0.443904
    17 -2.975371 1.071532 -4.156022 -0.894438 1.203772 -4.233730
    18 4.972047 0.000000 0.000000 0.229571 -0.247929 -1.081176
    19 11.585358 0.000000 0.000001 0.000000 0.000000 -1.614384
    20 10.127058 0.000000 0.000001 1.816799 0.167379 0.901690
    21 1.537458 0.109715 1.664489 -3.079588 0.031470 0.928526
    22 0.928313 0.000000 0.000002 0.000000 0.000000 0.061034
    23 0.928311 0.000000 0.000001 0.000000 0.000000 0.671897
    24 2.686395 -0.427337 0.044204 -0.001208 0.043611 -0.052337
    25 1.435260 0.000000 0.000001 0.000000 0.000000 1.186618
    26 1.482593 0.000000 -0.000001 0.000000 0.000000 1.684243
    27 2.046984 0.000001 0.000000 0.267717 -0.076532 0.127732
    28 -0.000005 0.000007 3.713254 -3.291410 -0.164516 1.249806
    29 18.045723 0.000000 0.000000 0.000000 0.000000 -1.733893
    30 17.597597 0.000000 0.000000 -0.253052 0.199203 -0.163408
    31 0.000005 -0.000003 -3.713254 0.813554 2.308568 5.488762
    32 18.045721 0.000000 0.000000 0.000000 0.000000 -2.674634
    33 17.597597 0.000000 0.000000 0.378123 0.038292 0.751814
  time 11
    0 -0.920938 2.047088 -20.596809 0.000000 0.000000 -1.578142
    1 -0.871124 0.050783 0.000000 -1.570795 -1.570787 0.000000
    2 1.293670 0.684478 -0.000001 -0.054699 0.002108 0.121066
    3 5.309685 -0.003834 0.000000 0.053672 0.036193 0.127260
    4 4.826790 -0.004591 0.000000 -0.133997 -0.075036 0.200120
    5 5.792767 -0.005304 0.000000 -0.221951 0.002816 0.226754
    6 6.662322 -0.001452 0.000000 -0.091910 0.032655 0.231870
    7 -3.518356 0.356631 4.277124 1.958083 -1.251120 -5.355886
    8 4.827512 0.000000 -0.000002 0.349954 0.501488 -1.329851
    9 11.140032 0.000000 0.000000 0.000000 0.000000 -1.085614
    10 10.314563 -0.000001 0.000001 -2.042875 0.306121 -0.853343
    11 1.646836 0.445664 -1.699647 -0.392035 3.352851 -0.875707
    12 0.928312 0.000000 0.000000 0.000000 0.000000 0.593404
    13 0.928313 0.000000 -0.000001 0.000000 0.000000 1.204231
    14 2.979373 -0.388274 -0.044205 -0.004497 -0.043395 0.085468
    15 1.435262 -0.000001 -0.000001 0.000000 0.000000 0.405625
    16 1.482593 -0.000001 0.000001 0.000000 0.000000 0.467678
    17 -2.975371 1.071532 -4.156022 -0.843042 1.220887 -4.185457
    18 4.972047 0.000000 0.000000 0.240077 -0.217637 -1.091758
    19 11.585358 0.000000 0.000001 0.000000 0.000000 -1.633089
    20 10.127058 0.000000 0.000001 1.794289 0.155842 0.899490
    21 1.537458 0.109715 1.664489 -3.079588 0.031470 0.928526
    22 0.928313 0.000000 0.000002 0.000000 0.000000 0.061034
    23 0.928311 0.000000 0.000001 0.000000 0.000000 0.671897
    24 2.686395 -0.427337 0.044204 -0.001208 0.043611 -0.052337
    25 1.435260 0.000000 0.000001 0.000000 0.000000 1.186618
    26 1.482593 0.000000 -0.000001 0.000000 0.000000 1.684243
    27 2.046984 0.000001 0.000000 0.284821 -0.103351 0.125725
    28 -0.000005 0.000007 3.713254 -3.292656 -0.163845 1.250573
    29 18.045723 0.000000 0.000000 0.000000 0.000000 -1.729452
    30 17.597597 0.000000 0.000000 -0.253913 0.200040 -0.167121
    31 0.000005 -0.000003 -3.713254 0.810775 2.307130 5.477928
    32 18.045721 0.000000 0.000000 0.000000 0.000000 -2.674634
    33 17.597597 0.000000 0.000000 0.383961 0.034860 0.745948
  time 12
    0 -0.877968 2.047088 -20.596809 0.000000 0.000000 -1.578902
    1 -0.871124 0.050783 0.000000 -1.570795 -1.570787 0.000000
    2 1.293670 0.684478 -0.000001 -0.055356 0.003259 0.124213
    3 5.309685 -0.003834 0.000000 0.048771 0.036577 0.123639
    4 4.826790 -0.004591 0.000000 -0.143229 -0.068564 0.205456
    5 5.792767 -0.005304 0.000000 -0.238697 0.006939 0.227979
    6 6.662322 -0.001452 0.000000 -0.091910 0.032655 0.231870
    7 -3.518356 0.356631 4.277124 1.939200 -1.253397 -5.336147
    8 4.827512 0.000000 -0.000002 0.301326 0.517093 -1.309142
    9 11.140032 0.000000 0.000000 0.000000 0.000000 -1.030477
    10 10.314563 -0.000001 0.000001 -1.986294 0.282984 -0.841846
    11 1.646836 0.445664 -1.699647 -0.392035 3.352851 -0.875707
    12 0.928312 0.000000 0.000000 0.000000 0.000000 0.593404
    13 0.928313 0.000000 -0.000001 0.000000 0.000000 1.204231
    14 2.979373 -0.388274 -0.044205 -0.013665 -0.041442 0.301041
    15 1.435262 -0.000001 -0.000001 0.000000 0.000000 0.569281
    16 1.482593 -0.000001 0.000001 0.000000 0.000000 0.545624
    17 -2.975371 1.071532 -4.156022 -0.782666 1.235794 -4.127702
    18 4.972047 0.000000 0.000000 0.235012 -0.202371 -1.069529
    19 11.585358 0.000000 0.000001 0.000000 0.000000 -1.650405
    20 10.127058 0.000000 0.000001 1.772550 0.143170 0.897639
    21 1.537458 0.109715 1.664489 -3.079588 0.031470 0.928526
    22 0.928313 0.000000 0.000002 0.000000 0.000000 0.061034
    23 0.928311 0.000000 0.000001 0.000000 0.000000 0.671897
    24 2.686395 -0.427337 0.044204 -0.001208 0.043611 -0.052337
    25 1.435260 0.000000 0.000001 0.000000 0.000000 1.186618
    26 1.482593 0.000000 -0.000001 0.000000 0.000000 1.684243
    27 2.046984 0.000001 0.000000 0.279694 -0.126924 0.133085
    28 -0.000005 0.000007 3.713254 -3.293902 -0.163366 1.250957
    29 18.045723 0.000000 0.000000 0.000000 0.000000 -1.728120
    30 17.597597 0.000000 0.000000 -0.254699 0.200975 -0.168268
    31 0.000005 -0.000003 -3.713254 0.806749 2.305213 5.472080
    32 18.045721 0.000000 0.000000 0.000000 0.000000 -2.674870
    33 17.597597 0.000000 0.000000 0.385605 0.035057 0.742345
  time 13
    0 -0.795934 1.910366 -20.600716 0.000000 0.000000 -1.579567
    1 -0.871124 0.050783 0.000000 -1.570795 -1.570787 0.000000
    2 1.293670 0.684478 -0.000001 -0.056013 0.004325 0.128817
    3 5.309685 -0.003834 0.000000 0.043853 0.037680 0.120283
    4 4.826790 -0.004591 0.000000 -0.120893 -0.052061 0.175911
    5 5.792767 -0.005304 0.000000 -0.208874 0.020182 0.197956
    6 6.662322 -0.001452 0.000000 -0.091910 0.032655 0.231870
    7 -3.518356 0.356631 4.277124 1.926068 -1.259814 -5.321870
    8 4.827512 0.000000 -0.000002 0.208934 0.553505 -1.374823
    9 11.140032 0.000000 0.000000 0.000000 0.000000 -1.033085
    10 10.314563 -0.000001 0.000001 -1.919003 0.262189 -0.780183
    11 1.646836 0.445664 -1.699647 -0.392035 3.352851 -0.875707
    12 0.928312 0.000000 0.000000 0.000000 0.000000 0.593404
    13 0.928313 0.000000 -0.000001 0.000000 0.000000 1.204231
    14 2.979373 -0.388274 -0.044205 -0.023696 -0.036648 0.556264
    15 1.435262 -0.000001 -0.000001 0.000000 0.000000 0.755380
    16 1.482593 -0.000001 0.000001 0.000000 0.000000 0.640079
    17 -2.975371 1.071532 -4.156022 -0.716080 1.246363 -4.063625
    18 4.972047 0.000000 0.000000 0.179952 -0.210004 -0.954255
    19 11.585358 0.000000 0.000001 0.000000 0.000000 -1.658165
    20 10.127058 0.000000 0.000001 1.751443 0.129647 0.896038
    21 1.537458 0.109715 1.664489 -3.079588 0.031470 0.928526
    22 0.928313 0.000000 0.000002 0.000000 0.000000 0.061034
    23 0.928311 0.000000 0.000001 0.000000 0.000000 0.671897
    24 2.686395 -0.427337 0.044204 -0.001208 0.043611 -0.052337
    25 1.435260 0.000000 0.000001 0.000000 0.000000 1.186618
    26 1.482593 0.000000 -0.000001 0.000000 0.000000 1.684243
    27 2.046984 0.000001 0.000000 0.198268 -0.150055 0.188561
    28 -0.000005 0.000007 3.713254 -3.295820 -0.163078 1.250286
    29 18.045723 0.000000 0.000000 0.000000 0.000000 -1.735373
    30 17.597597 0.000000 0.000000 -0.255713 0.202747 -0.161757
    31 0.000005 -0.000003 -3.713254 0.798123 2.301857 5.479271
    32 18.045721 0.000000 0.000000 0.000000 0.000000 -2.676051
    33 17.597597 0.000000 0.000000 0.375171 0.046024 0.743823
  time 14
    0 -0.690462 1.687702 -20.600716 0.000000 0.000000 -1.580232
    1 -0.871124 0.050783 0.000000 -1.570795 -1.570787 0.000000
    2 1.293670 0.684478 -0.000001 -0.056653 0.005464 0.134057
    3 5.309685 -0.003834 0.000000 0.038935 0.038722 0.116927
    4 4.826790 -0.004591 0.000000 -0.075515 -0.027181 0.125619
    5 5.792767 -0.005304 0.000000 -0.144406 0.042054 0.149537
    6 6.662322 -0.001452 0.000000 -0.091910 0.032655 0.231870
    7 -3.518356 0.356631 4.277124 1.926643 -1.275426 -5.320529
    8 4.827512 0.000000 -0.000002 0.107056 0.593839 -1.526634
    9 11.140032 0.000000 0.000000 0.000000 0.000000 -1.070833
    10 10.314563 -0.000001 0.000001 -1.871046 0.249449 -0.680604
    11 1.646836 0.445664 -1.699647 -0.392035 3.352851 -0.875707
    12 0.928312 0.000000 0.000000 0.000000 0.000000 0.593404
    13 0.928313 0.000000 -0.000001 0.000000 0.000000 1.204231
    14 2.979373 -0.388274 -0.044205 -0.030827 -0.030847 0.767364
    15 1.435262 -0.000001 -0.000001 0.000000 0.000000 0.916027
    16 1.482593 -0.000001 0.000001 0.000000 0.000000 0.713591
    17 -2.975371 1.071532 -4.156022 -0.610613 1.244969 -3.959607
    18 4.972047 0.000000 0.000000 0.038035 -0.256044 -0.772426
    19 11.585358 0.000000 0.000001 0.000000 0.000000 -1.650813
    20 10.127058 0.000000 0.000001 1.733982 0.110073 0.896738
    21 1.537458 0.109715 1.664489 -3.079588 0.031470 0.928526
    22 0.928313 0.000000 0.000002 0.000000 0.000000 0.061034
    23 0.928311 0.000000 0.000001 0.000000 0.000000 0.671897
    24 2.686395 -0.427337 0.044204 -0.001208 0.043611 -0.052337
    25 1.435260 0.000000 0.000001 0.000000 0.000000 1.186618
    26 1.482593 0.000000 -0.000001 0.000000 0.000000 1.684243
    27 2.046984 0.000001 0.000000 0.065831 -0.160617 0.272991
    28 -0.000005 0.000007 3.713254 -3.298696 -0.162790 1.249135
    29 18.045723 0.000000 0.000000 0.000000 0.000000 -1.748104
    30 17.597597 0.000000 0.000000 -0.257182 0.205479 -0.150479
    31 0.000005 -0.000003 -3.713254 0.784706 2.296489 5.493459
    32 18.045721 0.000000 0.000000 0.000000 0.000000 -2.677468
    33 17.597597 0.000000 0.000000 0.356818 0.064899 0.747149
  time 15
    0 -0.616241 1.554886 -20.600716 0.000000 0.000000 -1.580897
    1 -0.871124 0.050783 0.000000 -1.570795 -1.570787 0.000000
    2 1.293670 0.684478 -0.000001 -0.057192 0.006842 0.138058
    3 5.309685 -0.003834 0.000000 0.034238 0.037440 0.112617
    4 4.826790 -0.004591 0.000000 -0.043051 -0.010570 0.102491
    5 5.792767 -0.005304 0.000000 -0.098069 0.054254 0.125120
    6 6.662322 -0.001452 0.000000 -0.091910 0.032655 0.231870
    7 -3.518356 0.356631 4.277124 2.070902 -1.355618 -5.459178
    8 4.827512 0.000000 -0.000002 0.234045 0.458595 -1.569873
    9 11.140032 0.000000 0.000000 0.000000 0.000000 -1.459835
    10 10.314563 -0.000001 0.000001 -1.882514 0.327103 -0.213833
    11 1.646836 0.445664 -1.699647 -0.392035 3.352851 -0.875707
    12 0.928312 0.000000 0.000000 0.000000 0.000000 0.593404
    13 0.928313 0.000000 -0.000001 0.000000 0.000000 1.204231
    14 2.979373 -0.388274 -0.044205 -0.031821 -0.029853 0.800065
    15 1.435262 -0.000001 -0.000001 0.000000 0.000000 0.971903
    16 1.482593 -0.000001 0.000001 0.000000 0.000000 0.696068
    17 -2.975371 1.071532 -4.156022 -0.516228 1.230641 -3.865838
    18 4.972047 0.000000 0.000000 -0.084091 -0.297183 -0.641045
    19 11.585358 0.000000 0.000001 0.000000 0.000000 -1.630720
    20 10.127058 0.000000 0.000001 1.723744 0.085675 0.895138
    21 1.537458 0.109715 1.664489 -3.079588 0.031470 0.928526
    22 0.928313 0.000000 0.000002 0.000000 0.000000 0.061034
    23 0.928311 0.000000 0.000001 0.000000 0.000000 0.671897
    24 2.686395 -0.427337 0.044204 -0.001208 0.043611 -0.052337
    25 1.435260 0.000000 0.000001 0.000000 0.000000 1.186618
    26 1.482593 0.000000 -0.000001 0.000000 0.000000 1.684243
    27 2.046984 0.000001 0.000000 -0.000689 -0.154156 0.297626
    28 -0.000005 0.000007 3.713254 -3.300230 -0.162599 1.248560
    29 18.045723 0.000000 0.000000 0.000000 0.000000 -1.754987
    30 17.597597 0.000000 0.000000 -0.257968 0.207004 -0.144244
    31 0.000005 -0.000003 -3.713254 0.777134 2.293517 5.501033
    32 18.045721 0.000000 0.000000 0.000000 0.000000 -2.678255
    33 17.597597 0.000000 0.000000 0.346887 0.075333 0.748673
  time 16
    0 -0.604522 1.550980 -20.600716 0.000000 0.000000 -1.581562
    1 -0.871124 0.050783 0.000000 -1.570795 -1.570787 0.000000
    2 1.293670 0.684478 -0.000001 -0.057613 0.008508 0.140519
    3 5.309685 -0.003834 0.000000 0.029865 0.033737 0.107318
    4 4.826790 -0.004591 0.000000 -0.030309 -0.006963 0.112589
    5 5.792767 -0.005304 0.000000 -0.080693 0.051594 0.129854
    6 6.662322 -0.001452 0.000000 -0.091910 0.032655 0.231870
    7 -3.518356 0.356631 4.277124 2.238070 -1.419162 -5.621206
    8 4.827512 0.000000 -0.000002 0.268483 0.239612 -1.476204
    9 11.140032 0.000000 0.000000 0.000000 0.000000 -1.847026
    10 10.314563 -0.000001 0.000001 -1.857777 0.409441 0.284873
    11 1.646836 0.445664 -1.699647 -0.392035 3.352851 -0.875707
    12 0.928312 0.000000 0.000000 0.000000 0.000000 0.593404
    13 0.928313 0.000000 -0.000001 0.000000 0.000000 1.204231
    14 2.979373 -0.388274 -0.044205 -0.030851 -0.030823 0.768363
    15 1.435262 -0.000001 -0.000001 0.000000 0.000000 0.989789
    16 1.482593 -0.000001 0.000001 0.000000 0.000000 0.681857
    17 -2.975371 1.071532 -4.156022 -0.552530 1.206033 -3.896871
    18 4.972047 0.000000 0.000000 -0.075461 -0.292442 -0.625671
    19 11.585358 0.000000 0.000001 0.000000 0.000000 -1.582202
    20 10.127058 0.000000 0.000001 1.731668 0.057968 0.878030
    21 1.537458 0.109715 1.664489 -3.079588 0.031470 0.928526
    22 0.928313 0.000000 0.000002 0.000000 0.000000 0.061034
    23 0.928311 0.000000 0.000001 0.000000 0.000000 0.671897
    24 2.686395 -0.427337 0.044204 -0.001208 0.043611 -0.052337
    25 1.435260 0.000000 0.000001 0.000000 0.000000 1.186618
    26 1.482593 0.000000 -0.000001 0.000000 0.000000 1.684243
    27 2.046984 0.000001 0.000000 0.030460 -0.143446 0.237163
    28 -0.000005 0.000007 3.713254 -3.299655 -0.162790 1.248560
    29 18.045723 0.000000 0.000000 0.000000 0.000000 -1.754395
    30 17.597597 0.000000 0.000000 -0.257664 0.206561 -0.144886
    31 0.000005 -0.000003 -3.713254 0.779147 2.294380 5.501416
    32 18.045721 0.000000 0.000000 0.000000 0.000000 -2.678019
    33 17.597597 0.000000 0.000000 0.347927 0.073834 0.749366
  time 17
    0 -0.612335 1.562699 -20.600716 0.000000 0.000000 -1.582227
    1 -0.871124 0.050783 0.000000 -1.570795 -1.570787 0.000000
    2 1.293670 0.684478 -0.000001 -0.057966 0.010282 0.142578
    3 5.309685 -0.003834 0.000000 0.025628 0.029314 0.101736
    4 4.826790 -0.004591 0.000000 -0.021020 -0.006580 0.130205
    5 5.792767 -0.005304 0.000000 -0.068227 0.045254 0.141066
    6 6.662322 -0.001452 0.000000 -0.091910 0.032655 0.231870
    7 -3.518356 0.356631 4.277124 1.911211 -1.390716 -5.294466
    8 4.827512 0.000000 -0.000002 -0.139110 0.242938 -1.267376
    9 11.140032 0.000000 0.000000 0.000000 0.000000 -1.830941
    10 10.314563 -0.000001 0.000001 -1.856545 0.381808 0.373013
    11 1.646836 0.445664 -1.699647 -0.392035 3.352851 -0.875707
    12 0.928312 0.000000 0.000000 0.000000 0.000000 0.593404
    13 0.928313 0.000000 -0.000001 0.000000 0.000000 1.204231
    14 2.979373 -0.388274 -0.044205 -0.030743 -0.030931 0.764846
    15 1.435262 -0.000001 -0.000001 0.000000 0.000000 1.023557
    16 1.482593 -0.000001 0.000001 0.000000 0.000000 0.759696
    17 -2.975371 1.071532 -4.156022 -0.868645 1.134997 -4.192545
    18 4.972047 0.000000 0.000000 0.176012 -0.088274 -0.706935
    19 11.585358 0.000000 0.000001 0.000000 0.000000 -1.488434
    20 10.127058 0.000000 0.000001 1.785243 0.027991 0.818004
    21 1.537458 0.109715 1.664489 -3.079588 0.031470 0.928526
    22 0.928313 0.000000 0.000002 0.000000 0.000000 0.061034
    23 0.928311 0.000000 0.000001 0.000000 0.000000 0.671897
    24 2.686395 -0.427337 0.044204 -0.001208 0.043611 -0.052337
    25 1.435260 0.000000 0.000001 0.000000 0.000000 1.186618
    26 1.482593 0.000000 -0.000001 0.000000 0.000000 1.684243
    27 2.046984 0.000001 0.000000 0.092370 -0.128901 0.148353
    28 -0.000005 0.000007 3.713254 -3.298504 -0.162982 1.248560
    29 18.045723 0.000000 0.000000 0.000000 0.000000 -1.752174
    30 17.597597 0.000000 0.000000 -0.256979 0.205528 -0.146949
    31 0.000005 -0.000003 -3.713254 0.783843 2.296297 5.500745
    32 18.045721 0.000000 0.000000 0.000000 0.000000 -2.677704
    33 17.597597 0.000000 0.000000 0.351316 0.069554 0.750197
  time 18
    0 -0.624054 1.593950 -20.600716 0.000000 0.000000 -1.582893
    1 -0.871124 0.050783 0.000000 -1.570795 -1.570787 0.000000
    2 1.293670 0.684478 -0.000001 -0.058320 0.012067 0.144135
    3 5.309685 -0.003834 0.000000 0.021441 0.024425 0.095960
    4 4.826790 -0.004591 0.000000 -0.014344 -0.008521 0.153224
    5 5.792767 -0.005304 0.000000 -0.059503 0.036181 0.157053
    6 6.662322 -0.001452 0.000000 -0.091910 0.032655 0.231870
    7 -3.518356 0.356631 4.277124 1.662472 -1.326936 -5.043901
    8 4.827512 0.000000 -0.000002 -0.622434 0.322413 -1.074752
    9 11.140032 0.000000 0.000000 0.000000 0.000000 -1.734578
    10 10.314563 -0.000001 0.000001 -1.866212 0.333848 0.383174
    11 1.646836 0.445664 -1.699647 -0.392035 3.352851 -0.875707
    12 0.928312 0.000000 0.000000 0.000000 0.000000 0.593404
    13 0.928313 0.000000 -0.000001 0.000000 0.000000 1.204231
    14 2.979373 -0.388274 -0.044205 -0.030803 -0.030871 0.766583
    15 1.435262 -0.000001 -0.000001 0.000000 0.000000 1.060250
    16 1.482593 -0.000001 0.000001 0.000000 0.000000 0.854525
    17 -2.975371 1.071532 -4.156022 -1.121900 1.018872 -4.426536
    18 4.972047 0.000000 0.000000 0.362859 0.158479 -0.730363
    19 11.585358 0.000000 0.000001 0.000000 0.000000 -1.316253
    20 10.127058 0.000000 0.000001 1.851089 0.000567 0.744473
    21 1.537458 0.109715 1.664489 -3.079588 0.031470 0.928526
    22 0.928313 0.000000 0.000002 0.000000 0.000000 0.061034
    23 0.928311 0.000000 0.000001 0.000000 0.000000 0.671897
    24 2.686395 -0.427337 0.044204 -0.001208 0.043611 -0.052337
    25 1.435260 0.000000 0.000001 0.000000 0.000000 1.186618
    26 1.482593 0.000000 -0.000001 0.000000 0.000000 1.684243
    27 2.046984 0.000001 0.000000 0.151695 -0.108750 0.066356
    28 -0.000005 0.000007 3.713254 -3.296874 -0.163366 1.248752
    29 18.045723 0.000000 0.000000 0.000000 0.000000 -1.748770
    30 17.597597 0.000000 0.000000 -0.256093 0.204125 -0.149975
    31 0.000005 -0.000003 -3.713254 0.790360 2.299077 5.499307
    32 18.045721 0.000000 0.000000 0.000000 0.000000 -2.676917
    33 17.597597 0.000000 0.000000 0.356415 0.063321 0.751259
  time 19
    0 -0.647492 1.636920 -20.600716 0.000000 0.000000 -1.583558
    1 -0.871124 0.050783 0.000000 -1.570795 -1.570787 0.000000
    2 1.293670 0.684478 -0.000001 -0.058640 0.013877 0.145106
    3 5.309685 -0.003834 0.000000 0.017391 0.019163 0.090078
    4 4.826790 -0.004591 0.000000 -0.009366 -0.012045 0.179637
    5 5.792767 -0.005304 0.000000 -0.053262 0.025443 0.175906
    6 6.662322 -0.001452 0.000000 -0.091910 0.032655 0.231870
    7 -3.518356 0.356631 4.277124 1.528278 -1.255230 -4.905636
    8 4.827512 0.000000 -0.000002 -0.980283 0.372128 -0.941224
    9 11.140032 0.000000 0.000000 0.000000 0.000000 -1.562791
    10 10.314563 -0.000001 0.000001 -1.877775 0.287012 0.381316
    11 1.646836 0.445664 -1.699647 -0.392035 3.352851 -0.875707
    12 0.928312 0.000000 0.000000 0.000000 0.000000 0.593404
    13 0.928313 0.000000 -0.000001 0.000000 0.000000 1.204231
    14 2.979373 -0.388274 -0.044205 -0.030851 -0.030823 0.768363
    15 1.435262 -0.000001 -0.000001 0.000000 0.000000 1.096943
    16 1.482593 -0.000001 0.000001 0.000000 0.000000 0.944812
    17 -2.975371 1.071532 -4.156022 -1.297965 0.867675 -4.587064
    18 4.972047 0.000000 0.000000 0.368206 0.286395 -0.739680
    19 11.585358 0.000000 0.000001 0.000000 0.000000 -0.903443
    20 10.127058 0.000000 0.000001 1.927104 -0.025059 0.656635
    21 1.537458 0.109715 1.664489 -3.079588 0.031470 0.928526
    22 0.928313 0.000000 0.000002 0.000000 0.000000 0.061034
    23 0.928311 0.000000 0.000001 0.000000 0.000000 0.671897
    24 2.686395 -0.427337 0.044204 -0.001208 0.043611 -0.052337
    25 1.435260 0.000000 0.000001 0.000000 0.000000 1.186618
    26 1.482593 0.000000 -0.000001 0.000000 0.000000 1.684243
    27 2.046984 0.000001 0.000000 0.164146 -0.095090 0.068911
    28 -0.000005 0.000007 3.713254 -3.294957 -0.163845 1.248944
    29 18.045723 0.000000 0.000000 0.000000 0.000000 -1.744699
    30 17.597597 0.000000 0.000000 -0.255003 0.202402 -0.153642
    31 0.000005 -0.000003 -3.713254 0.798123 2.302241 5.497582
    32 18.045721 0.000000 0.000000 0.000000 0.000000 -2.676287
    33 17.597597 0.000000 0.000000 0.362488 0.055885 0.752322
  time 20
    0 -0.674837 1.687702 -20.600716 0.000000 0.000000 -1.584128
    1 -0.871124 0.039064 0.000000 -1.570795 -1.570787 0.000000
    2 1.293670 0.684478 -0.000001 -0.058960 0.015711 0.145541
    3 5.309685 -0.003834 0.000000 0.013392 0.013794 0.084108
    4 4.826790 -0.004591 0.000000 -0.005169 -0.016215 0.207330
    5 5.792767 -0.005304 0.000000 -0.048045 0.014058 0.196025
    6 6.662322 -0.001452 0.000000 -0.091910 0.032655 0.231870
    7 -3.518356 0.356631 4.277124 1.455908 -1.189824 -4.827544
    8 4.827512 0.000000 -0.000002 -0.966173 0.288986 -0.821560
    9 11.140032 0.000000 0.000000 0.000000 0.000000 -1.218710
    10 10.314563 -0.000001 0.000001 -1.890380 0.249449 0.371329
    11 1.646836 0.445664 -1.699647 -0.392035 3.352851 -0.875707
    12 0.928312 0.000000 0.000000 0.000000 0.000000 0.593404
    13 0.928313 0.000000 -0.000001 0.000000 0.000000 1.204231
    14 2.979373 -0.388274 -0.044205 -0.030851 -0.030823 0.768363
    15 1.435262 -0.000001 -0.000001 0.000000 0.000000 1.132633
    16 1.482593 -0.000001 0.000001 0.000000 0.000000 1.018057
    17 -2.975371 1.071532 -4.156022 -1.391204 0.737143 -4.672212
    18 4.972047 0.000000 0.000000 0.314834 0.314678 -0.740146
    19 11.585358 0.000000 0.000001 0.000000 0.000000 -0.534495
    20 10.127058 0.000000 0.000001 1.996106 -0.049268 0.576400
    21 1.537458 0.109715 1.664489 -3.079588 0.031470 0.928526
    22 0.928313 0.000000 0.000002 0.000000 0.000000 0.061034
    23 0.928311 0.000000 0.000001 0.000000 0.000000 0.671897
    24 2.686395 -0.427337 0.044204 -0.001208 0.043611 -0.052337
    25 1.435260 0.000000 0.000001 0.000000 0.000000 1.186618
    26 1.482593 0.000000 -0.000001 0.000000 0.000000 1.684243
    27 2.046984 0.000001 0.000000 0.168325 -0.066678 0.017754
    28 -0.000005 0.000007 3.713254 -3.293039 -0.164324 1.249135
    29 18.045723 0.000000 0.000000 0.000000 0.000000 -1.740406
    30 17.597597 0.000000 0.000000 -0.253837 0.200606 -0.157631
    31 0.000005 -0.000003 -3.713254 0.806462 2.305788 5.495856
    32 18.045721 0.000000 0.000000 0.000000 0.000000 -2.675500
    33 17.597597 0.000000 0.000000 0.368863 0.048016 0.753523
  time 21
    0 -0.698275 1.730673 -20.600716 0.000000 0.000000 -1.584793
    1 -0.871124 0.039064 0.000000 -1.570795 -1.570787 0.000000
    2 1.293670 0.684478 -0.000001 -0.059280 0.017473 0.145307
    3 5.309685 -0.003834 0.000000 0.009410 0.008473 0.078173
    4 4.826790 -0.004591 0.000000 -0.000858 -0.020302 0.234383
    5 5.792767 -0.005304 0.000000 -0.042649 0.002924 0.215459
    6 6.662322 -0.001452 0.000000 -0.091910 0.032655 0.231870
    7 -3.518356 0.356631 4.277124 1.410378 -1.124210 -4.774652
    8 4.827512 0.000000 -0.000002 -0.798449 0.148455 -0.729364
    9 11.140032 0.000000 0.000000 0.000000 0.000000 -0.807175
    10 10.314563 -0.000001 0.000001 -1.903175 0.211137 0.345723
    11 1.646836 0.445664 -1.699647 -0.392035 3.352851 -0.875707
    12 0.928312 0.000000 0.000000 0.000000 0.000000 0.593404
    13 0.928313 0.000000 -0.000001 0.000000 0.000000 1.204231
    14 2.979373 -0.388274 -0.044205 -0.030851 -0.030823 0.768363
    15 1.435262 -0.000001 -0.000001 0.000000 0.000000 1.168323
    16 1.482593 -0.000001 0.000001 0.000000 0.000000 1.085799
    17 -2.975371 1.071532 -4.156022 -1.403623 0.712430 -4.682748
    18 4.972047 0.000000 0.000000 0.303485 0.235775 -0.694822
    19 11.585358 0.000000 0.000001 0.000000 0.000000 -0.522815
    20 10.127058 0.000000 0.000001 2.032360 -0.083784 0.535833
    21 1.537458 0.109715 1.664489 -3.079588 0.031470 0.928526
    22 0.928313 0.000000 0.000002 0.000000 0.000000 0.061034
    23 0.928311 0.000000 0.000001 0.000000 0.000000 0.671897
    24 2.686395 -0.427337 0.044204 -0.001208 0.043611 -0.052337
    25 1.435260 0.000000 0.000001 0.000000 0.000000 1.186618
    26 1.482593 0.000000 -0.000001 0.000000 0.000000 1.684243
    27 2.046984 0.000001 0.000000 0.167377 -0.036319 -0.041311
    28 -0.000005 0.000007 3.713254 -3.291026 -0.164804 1.249327
    29 18.045723 0.000000 0.000000 0.000000 0.000000 -1.736335
    30 17.597597 0.000000 0.000000 -0.252697 0.198834 -0.161345
    31 0.000005 -0.000003 -3.713254 0.814512 2.309239 5.494322
    32 18.045721 0.000000 0.000000 0.000000 0.000000 -2.674634
    33 17.597597 0.000000 0.000000 0.374902 0.040442 0.754723
  time 22
    0 -0.721713 1.761924 -20.600716 0.000000 0.000000 -1.585458
    1 -0.871124 0.039064 0.000000 -1.570795 -1.570787 0.000000
    2 1.293670 0.684478 -0.000001 -0.059600 0.019138 0.144336
    3 5.309685 -0.003834 0.000000 0.005462 0.003404 0.072344
    4 4.826790 -0.004591 0.000000 0.004597 -0.023418 0.258769
    5 5.792767 -0.005304 0.000000 -0.035454 -0.006867 0.232443
    6 6.662322 -0.001452 0.000000 -0.091910 0.032655 0.231870
    7 -3.518356 0.356631 4.277124 1.379418 -1.057945 -4.734025
    8 4.827512 0.000000 -0.000002 -0.679112 0.050475 -0.681446
    9 11.140032 0.000000 0.000000 0.000000 0.000000 -0.533591
    10 10.314563 -0.000001 0.000001 -1.909525 0.171139 0.321743
    11 1.646836 0.445664 -1.699647 -0.392035 3.352851 -0.875707
    12 0.928312 0.000000 0.000000 0.000000 0.000000 0.593404
    13 0.928313 0.000000 -0.000001 0.000000 0.000000 1.204231
    14 2.979373 -0.388274 -0.044205 -0.030851 -0.030823 0.768363
    15 1.435262 -0.000001 -0.000001 0.000000 0.000000 1.204014
    16 1.482593 -0.000001 0.000001 0.000000 0.000000 1.153221
    17 -2.975371 1.071532 -4.156022 -1.395312 0.723683 -4.673936
    18 4.972047 0.000000 0.000000 0.294761 0.109466 -0.632726
    19 11.585358 0.000000 0.000001 0.000000 0.000000 -0.619605
    20 10.127058 0.000000 0.000001 2.058867 -0.122271 0.506520
    21 1.537458 0.109715 1.664489 -3.079588 0.031470 0.928526
    22 0.928313 0.000000 0.000002 0.000000 0.000000 0.061034
    23 0.928311 0.000000 0.000001 0.000000 0.000000 0.671897
    24 2.686395 -0.427337 0.044204 -0.001208 0.043611 -0.052337
    25 1.435260 0.000000 0.000001 0.000000 0.000000 1.186618
    26 1.482593 0.000000 -0.000001 0.000000 0.000000 1.684243
    27 2.046984 0.000001 0.000000 0.160527 -0.008822 -0.095144
    28 -0.000005 0.000007 3.713254 -3.289109 -0.165283 1.249519
    29 18.045723 0.000000 0.000000 0.000000 0.000000 -1.732931
    30 17.597597 0.000000 0.000000 -0.251607 0.197234 -0.164508
    31 0.000005 -0.000003 -3.713254 0.821892 2.312307 5.493555
    32 18.045721 0.000000 0.000000 0.000000 0.000000 -2.673768
    33 17.597597 0.000000 0.000000 0.379969 0.033854 0.755924
end
