version 1
nodes
  0 "Bip01" -1
  1 "Bip01 Pelvis" 0
  2 "Bip01 Spine" 1
  3 "Bip01 Spine1" 2
  4 "Bip01 Spine2" 3
  5 "Bip01 Spine3" 4
  6 "Bip01 Neck" 5
  7 "Bip01 L Arm" 6
  8 "Bip01 L Arm1" 7
  9 "Bip01 L Arm2" 8
  10 "Bip01 L Hand" 9
  11 "Bip01 L Finger0" 10
  12 "Bip01 L Finger01" 11
  13 "Bip01 L Finger02" 12
  14 "Bip01 L Finger1" 10
  15 "Bip01 L Finger11" 14
  16 "Bip01 L Finger12" 15
  17 "Bip01 R Arm" 6
  18 "Bip01 R Arm1" 17
  19 "Bip01 R Arm2" 18
  20 "Bip01 R Hand" 19
  21 "Bip01 R Finger0" 20
  22 "Bip01 R Finger01" 21
  23 "Bip01 R Finger02" 22
  24 "Bip01 R Finger1" 20
  25 "Bip01 R Finger11" 24
  26 "Bip01 R Finger12" 25
  27 "Bip01 Head" 6
  28 "Bip01 L Leg" 1
  29 "Bip01 L Leg1" 28
  30 "Bip01 L Foot" 29
  31 "Bip01 R Leg" 1
  32 "Bip01 R Leg1" 31
  33 "Bip01 R Foot" 32
end
skeleton
  time 0
    0 -1.756901 -2.027255 -20.585090 0.000000 0.000000 -1.571017
    1 -5.132973 0.316416 0.000000 -1.570795 -1.570787 0.000000
    2 1.293670 0.684478 -0.000001 -0.000004 -0.000001 0.266227
    3 5.309685 -0.003834 0.000000 0.000000 0.000000 0.223103
    4 4.826790 -0.004591 0.000000 -0.159252 0.071488 0.223800
    5 5.792767 -0.005304 0.000000 -0.048747 0.011457 0.339433
    6 6.662322 -0.001452 0.000000 0.029374 -0.043790 0.501019
    7 -3.108188 1.516823 4.339626 1.238993 -1.024532 -4.799756
    8 4.827512 0.000000 -0.000002 -0.392689 0.500891 -0.537087
    9 11.140032 0.000000 0.000000 0.070821 -0.156734 -1.274282
    10 10.314563 -0.000001 0.000001 -3.988822 0.203081 -0.504208
    11 1.646836 0.445664 -1.699647 -0.161704 0.581044 -0.283978
    12 0.928312 0.000000 0.000000 0.000000 0.000000 0.000000
    13 0.928313 0.000000 -0.000001 0.000000 0.000000 0.000000
    14 2.979373 -0.388274 -0.044205 -0.000805 -0.043611 0.000046
    15 1.435262 -0.000001 -0.000001 0.000000 0.000000 0.872146
    16 1.482593 -0.000001 0.000001 0.000000 0.000000 0.907041
    17 -2.869899 1.399667 -4.140396 -1.163265 1.764468 -4.903713
    18 4.972047 0.000000 0.000000 1.052372 -0.815276 -1.911254
    19 11.585358 0.000000 0.000001 0.386603 -0.383641 -1.547243
    20 10.127058 0.000000 0.000001 1.960763 0.596700 0.774136
    21 1.537458 0.109715 1.664489 -0.264662 -0.055995 0.783079
    22 0.928313 0.000000 0.000002 0.000000 0.000000 -0.453501
    23 0.928311 0.000000 0.000001 0.000000 0.000000 0.000000
    24 2.686395 -0.427337 0.044204 -0.005762 0.043239 -0.157074
    25 1.435260 0.000000 0.000001 0.000000 0.000000 0.732613
    26 1.482593 0.000000 -0.000001 0.000000 0.000000 1.168644
    27 2.046984 0.000001 0.000000 0.254835 0.315598 -0.043866
    28 -0.000005 0.000007 3.713254 -3.204068 -0.120606 1.238399
    29 18.045723 0.000000 0.000000 0.000000 0.000000 -1.756393
    30 17.597597 0.000000 0.000000 -0.210887 0.105637 -0.141218
    31 0.000005 -0.000003 -3.713254 0.848441 2.461380 5.479079
    32 18.045721 0.000000 0.000000 0.000000 0.000000 -2.603394
    33 17.597597 0.000000 0.000000 0.362388 -0.168095 0.787471
  time 1
    0 -1.756901 -2.027255 -20.585090 0.000000 0.000000 -1.571017
    1 -5.117348 0.316416 0.000000 -1.570795 -1.570787 0.000000
    2 1.293670 0.684478 -0.000001 -0.000004 -0.000001 0.266227
    3 5.309685 -0.003834 0.000000 0.000000 0.000000 0.223103
    4 4.826790 -0.004591 0.000000 -0.159252 0.071488 0.223800
    5 5.792767 -0.005304 0.000000 -0.049304 0.011733 0.338603
    6 6.662322 -0.001452 0.000000 0.029159 -0.043473 0.500820
    7 -3.108188 1.516823 4.339626 1.238993 -1.024532 -4.799756
    8 4.827512 0.000000 -0.000002 -0.392849 0.499953 -0.533881
    9 11.140032 0.000000 0.000000 0.070821 -0.157258 -1.284788
    10 10.314563 -0.000001 0.000001 -3.988822 0.203081 -0.504208
    11 1.646836 0.445664 -1.699647 -0.161704 0.581044 -0.283978
    12 0.928312 0.000000 0.000000 0.000000 0.000000 0.000000
    13 0.928313 0.000000 -0.000001 0.000000 0.000000 0.000000
    14 2.979373 -0.388274 -0.044205 -0.000805 -0.043611 0.000046
    15 1.435262 -0.000001 -0.000001 0.000000 0.000000 0.872146
    16 1.482593 -0.000001 0.000001 0.000000 0.000000 0.907041
    17 -2.869899 1.399667 -4.140396 -1.163265 1.764468 -4.903713
    18 4.972047 0.000000 0.000000 1.050872 -0.815759 -1.909524
    19 11.585358 0.000000 0.000001 0.386603 -0.383732 -1.553859
    20 10.127058 0.000000 0.000001 1.960763 0.596700 0.774136
    21 1.537458 0.109715 1.664489 -0.264662 -0.055995 0.783079
    22 0.928313 0.000000 0.000002 0.000000 0.000000 -0.453501
    23 0.928311 0.000000 0.000001 0.000000 0.000000 0.000000
    24 2.686395 -0.427337 0.044204 -0.005762 0.043239 -0.157074
    25 1.435260 0.000000 0.000001 0.000000 0.000000 0.732613
    26 1.482593 0.000000 -0.000001 0.000000 0.000000 1.168644
    27 2.046984 0.000001 0.000000 0.254835 0.315598 -0.043866
    28 -0.000005 0.000007 3.713254 -3.203877 -0.120701 1.238207
    29 18.045723 0.000000 0.000000 0.000000 0.000000 -1.757133
    30 17.597597 0.000000 0.000000 -0.210684 0.105514 -0.140530
    31 0.000005 -0.000003 -3.713254 0.848345 2.461955 5.480229
    32 18.045721 0.000000 0.000000 0.000000 0.000000 -2.603394
    33 17.597597 0.000000 0.000000 0.361884 -0.167385 0.788579
  time 2
    0 -1.756901 -2.027255 -20.585090 0.000000 0.000000 -1.571017
    1 -5.105629 0.312510 0.000000 -1.570795 -1.570787 0.000000
    2 1.293670 0.684478 -0.000001 -0.000004 -0.000001 0.266227
    3 5.309685 -0.003834 0.000000 0.000000 0.000000 0.223103
    4 4.826790 -0.004591 0.000000 -0.159252 0.071488 0.223800
    5 5.792767 -0.005304 0.000000 -0.050905 0.012536 0.336236
    6 6.662322 -0.001452 0.000000 0.028559 -0.042566 0.500193
    7 -3.108188 1.516823 4.339626 1.238993 -1.024532 -4.799756
    8 4.827512 0.000000 -0.000002 -0.396356 0.494154 -0.532148
    9 11.140032 0.000000 0.000000 0.070821 -0.158332 -1.306162
    10 10.314563 -0.000001 0.000001 -3.988822 0.203081 -0.504208
    11 1.646836 0.445664 -1.699647 -0.161704 0.581044 -0.283978
    12 0.928312 0.000000 0.000000 0.000000 0.000000 0.000000
    13 0.928313 0.000000 -0.000001 0.000000 0.000000 0.000000
    14 2.979373 -0.388274 -0.044205 -0.000805 -0.043611 0.000046
    15 1.435262 -0.000001 -0.000001 0.000000 0.000000 0.872146
    16 1.482593 -0.000001 0.000001 0.000000 0.000000 0.907041
    17 -2.869899 1.399667 -4.140396 -1.163265 1.764468 -4.903713
    18 4.972047 0.000000 0.000000 1.047401 -0.815518 -1.902802
    19 11.585358 0.000000 0.000001 0.386603 -0.384004 -1.571094
    20 10.127058 0.000000 0.000001 1.960763 0.596700 0.774136
    21 1.537458 0.109715 1.664489 -0.264662 -0.055995 0.783079
    22 0.928313 0.000000 0.000002 0.000000 0.000000 -0.453501
    23 0.928311 0.000000 0.000001 0.000000 0.000000 0.000000
    24 2.686395 -0.427337 0.044204 -0.005762 0.043239 -0.157074
    25 1.435260 0.000000 0.000001 0.000000 0.000000 0.732613
    26 1.482593 0.000000 -0.000001 0.000000 0.000000 1.168644
    27 2.046984 0.000001 0.000000 0.254835 0.315598 -0.043866
    28 -0.000005 0.000007 3.713254 -3.203685 -0.120893 1.238112
    29 18.045723 0.000000 0.000000 0.000000 0.000000 -1.758022
    30 17.597597 0.000000 0.000000 -0.210532 0.105391 -0.139751
    31 0.000005 -0.000003 -3.713254 0.848345 2.462530 5.481571
    32 18.045721 0.000000 0.000000 0.000000 0.000000 -2.603394
    33 17.597597 0.000000 0.000000 0.361280 -0.166596 0.789780
  time 3
    0 -1.756901 -2.027255 -20.585090 0.000000 0.000000 -1.571017
    1 -5.093909 0.312510 0.000000 -1.570795 -1.570787 0.000000
    2 1.293670 0.684478 -0.000001 -0.000004 -0.000001 0.266227
    3 5.309685 -0.003834 0.000000 0.000000 0.000000 0.223103
    4 4.826790 -0.004591 0.000000 -0.159252 0.071488 0.223800
    5 5.792767 -0.005304 0.000000 -0.053406 0.013782 0.332519
    6 6.662322 -0.001452 0.000000 0.027589 -0.041137 0.499197
    7 -3.108188 1.516823 4.339626 1.238993 -1.024532 -4.799756
    8 4.827512 0.000000 -0.000002 -0.404248 0.482898 -0.533101
    9 11.140032 0.000000 0.000000 0.070821 -0.159305 -1.332897
    10 10.314563 -0.000001 0.000001 -3.988822 0.203081 -0.504208
    11 1.646836 0.445664 -1.699647 -0.161704 0.581044 -0.283978
    12 0.928312 0.000000 0.000000 0.000000 0.000000 0.000000
    13 0.928313 0.000000 -0.000001 0.000000 0.000000 0.000000
    14 2.979373 -0.388274 -0.044205 -0.000805 -0.043611 0.000046
    15 1.435262 -0.000001 -0.000001 0.000000 0.000000 0.872146
    16 1.482593 -0.000001 0.000001 0.000000 0.000000 0.907041
    17 -2.869899 1.399667 -4.140396 -1.163265 1.764468 -4.903713
    18 4.972047 0.000000 0.000000 1.043743 -0.813268 -1.893817
    19 11.585358 0.000000 0.000001 0.386603 -0.383732 -1.594046
    20 10.127058 0.000000 0.000001 1.960763 0.596700 0.774136
    21 1.537458 0.109715 1.664489 -0.264662 -0.055995 0.783079
    22 0.928313 0.000000 0.000002 0.000000 0.000000 -0.453501
    23 0.928311 0.000000 0.000001 0.000000 0.000000 0.000000
    24 2.686395 -0.427337 0.044204 -0.005762 0.043239 -0.157074
    25 1.435260 0.000000 0.000001 0.000000 0.000000 0.732613
    26 1.482593 0.000000 -0.000001 0.000000 0.000000 1.168644
    27 2.046984 0.000001 0.000000 0.254835 0.315598 -0.043866
    28 -0.000005 0.000007 3.713254 -3.203493 -0.120989 1.238016
    29 18.045723 0.000000 0.000000 0.000000 0.000000 -1.758836
    30 17.597597 0.000000 0.000000 -0.210380 0.105293 -0.139017
    31 0.000005 -0.000003 -3.713254 0.848153 2.463105 5.482818
    32 18.045721 0.000000 0.000000 0.000000 0.000000 -2.603394
    33 17.597597 0.000000 0.000000 0.360710 -0.165748 0.790981
  time 4
    0 -1.756901 -2.027255 -20.585090 0.000000 0.000000 -1.571017
    1 -5.086097 0.304697 0.000000 -1.570795 -1.570787 0.000000
    2 1.293670 0.684478 -0.000001 -0.000004 -0.000001 0.266227
    3 5.309685 -0.003834 0.000000 0.000000 0.000000 0.223103
    4 4.826790 -0.004591 0.000000 -0.159252 0.071488 0.223800
    5 5.792767 -0.005304 0.000000 -0.056715 0.015436 0.327598
    6 6.662322 -0.001452 0.000000 0.026318 -0.039240 0.497915
    7 -3.108188 1.516823 4.339626 1.238993 -1.024532 -4.799756
    8 4.827512 0.000000 -0.000002 -0.417242 0.465844 -0.540206
    9 11.140032 0.000000 0.000000 0.070821 -0.160279 -1.360067
    10 10.314563 -0.000001 0.000001 -3.988822 0.203081 -0.504208
    11 1.646836 0.445664 -1.699647 -0.161704 0.581044 -0.283978
    12 0.928312 0.000000 0.000000 0.000000 0.000000 0.000000
    13 0.928313 0.000000 -0.000001 0.000000 0.000000 0.000000
    14 2.979373 -0.388274 -0.044205 -0.000805 -0.043611 0.000046
    15 1.435262 -0.000001 -0.000001 0.000000 0.000000 0.872146
    16 1.482593 -0.000001 0.000001 0.000000 0.000000 0.907041
    17 -2.869899 1.399667 -4.140396 -1.163265 1.764468 -4.903713
    18 4.972047 0.000000 0.000000 1.040085 -0.809090 -1.881504
    19 11.585358 0.000000 0.000001 0.386603 -0.383165 -1.622144
    20 10.127058 0.000000 0.000001 1.960763 0.596700 0.774136
    21 1.537458 0.109715 1.664489 -0.264662 -0.055995 0.783079
    22 0.928313 0.000000 0.000002 0.000000 0.000000 -0.453501
    23 0.928311 0.000000 0.000001 0.000000 0.000000 0.000000
    24 2.686395 -0.427337 0.044204 -0.005762 0.043239 -0.157074
    25 1.435260 0.000000 0.000001 0.000000 0.000000 0.732613
    26 1.482593 0.000000 -0.000001 0.000000 0.000000 1.168644
    27 2.046984 0.000001 0.000000 0.254835 0.315598 -0.043866
    28 -0.000005 0.000007 3.713254 -3.203301 -0.121085 1.237920
    29 18.045723 0.000000 0.000000 0.000000 0.000000 -1.759502
    30 17.597597 0.000000 0.000000 -0.210253 0.105170 -0.138421
    31 0.000005 -0.000003 -3.713254 0.848057 2.463585 5.483872
    32 18.045721 0.000000 0.000000 0.000000 0.000000 -2.603394
    33 17.597597 0.000000 0.000000 0.360207 -0.165097 0.791905
  time 5
    0 -1.756901 -2.027255 -20.585090 0.000000 0.000000 -1.571017
    1 -5.074378 0.304697 0.000000 -1.570795 -1.570787 0.000000
    2 1.293670 0.684478 -0.000001 -0.000004 -0.000001 0.266227
    3 5.309685 -0.003834 0.000000 0.000000 0.000000 0.223103
    4 4.826790 -0.004591 0.000000 -0.159252 0.071488 0.223800
    5 5.792767 -0.005304 0.000000 -0.060727 0.017438 0.321639
    6 6.662322 -0.001452 0.000000 0.024784 -0.036945 0.496320
    7 -3.108188 1.516823 4.339626 1.238993 -1.024532 -4.799756
    8 4.827512 0.000000 -0.000002 -0.434621 0.443758 -0.552944
    9 11.140032 0.000000 0.000000 0.070821 -0.161178 -1.385281
    10 10.314563 -0.000001 0.000001 -3.988822 0.203081 -0.504208
    11 1.646836 0.445664 -1.699647 -0.161704 0.581044 -0.283978
    12 0.928312 0.000000 0.000000 0.000000 0.000000 0.000000
    13 0.928313 0.000000 -0.000001 0.000000 0.000000 0.000000
    14 2.979373 -0.388274 -0.044205 -0.000805 -0.043611 0.000046
    15 1.435262 -0.000001 -0.000001 0.000000 0.000000 0.872146
    16 1.482593 -0.000001 0.000001 0.000000 0.000000 0.907041
    17 -2.869899 1.399667 -4.140396 -1.163265 1.764468 -4.903713
    18 4.972047 0.000000 0.000000 1.037552 -0.802501 -1.867794
    19 11.585358 0.000000 0.000001 0.386603 -0.382575 -1.652120
    20 10.127058 0.000000 0.000001 1.960763 0.596700 0.774136
    21 1.537458 0.109715 1.664489 -0.264662 -0.055995 0.783079
    22 0.928313 0.000000 0.000002 0.000000 0.000000 -0.453501
    23 0.928311 0.000000 0.000001 0.000000 0.000000 0.000000
    24 2.686395 -0.427337 0.044204 -0.005762 0.043239 -0.157074
    25 1.435260 0.000000 0.000001 0.000000 0.000000 0.732613
    26 1.482593 0.000000 -0.000001 0.000000 0.000000 1.168644
    27 2.046984 0.000001 0.000000 0.254835 0.315598 -0.043866
    28 -0.000005 0.000007 3.713254 -3.203301 -0.121085 1.237824
    29 18.045723 0.000000 0.000000 0.000000 0.000000 -1.759946
    30 17.597597 0.000000 0.000000 -0.210228 0.105145 -0.138100
    31 0.000005 -0.000003 -3.713254 0.847866 2.463777 5.484448
    32 18.045721 0.000000 0.000000 0.000000 0.000000 -2.603394
    33 17.597597 0.000000 0.000000 0.359905 -0.164683 0.792321
  time 6
    0 -1.756901 -2.027255 -20.585090 0.000000 0.000000 -1.571017
    1 -5.070471 0.304697 0.000000 -1.570795 -1.570787 0.000000
    2 1.293670 0.684478 -0.000001 -0.000004 -0.000001 0.266227
    3 5.309685 -0.003834 0.000000 0.000000 0.000000 0.223103
    4 4.826790 -0.004591 0.000000 -0.159252 0.071488 0.223800
    5 5.792767 -0.005304 0.000000 -0.065313 0.019727 0.314829
    6 6.662322 -0.001452 0.000000 0.023034 -0.034334 0.494526
    7 -3.108188 1.516823 4.339626 1.238993 -1.024532 -4.799756
    8 4.827512 0.000000 -0.000002 -0.456782 0.415703 -0.574520
    9 11.140032 0.000000 0.000000 0.070821 -0.161677 -1.401003
    10 10.314563 -0.000001 0.000001 -3.988822 0.203081 -0.504208
    11 1.646836 0.445664 -1.699647 -0.161704 0.581044 -0.283978
    12 0.928312 0.000000 0.000000 0.000000 0.000000 0.000000
    13 0.928313 0.000000 -0.000001 0.000000 0.000000 0.000000
    14 2.979373 -0.388274 -0.044205 -0.000805 -0.043611 0.000046
    15 1.435262 -0.000001 -0.000001 0.000000 0.000000 0.872146
    16 1.482593 -0.000001 0.000001 0.000000 0.000000 0.907041
    17 -2.869899 1.399667 -4.140396 -1.163265 1.764468 -4.903713
    18 4.972047 0.000000 0.000000 1.037458 -0.792779 -1.853418
    19 11.585358 0.000000 0.000001 0.386603 -0.381417 -1.680463
    20 10.127058 0.000000 0.000001 1.960763 0.596700 0.774136
    21 1.537458 0.109715 1.664489 -0.264662 -0.055995 0.783079
    22 0.928313 0.000000 0.000002 0.000000 0.000000 -0.453501
    23 0.928311 0.000000 0.000001 0.000000 0.000000 0.000000
    24 2.686395 -0.427337 0.044204 -0.005762 0.043239 -0.157074
    25 1.435260 0.000000 0.000001 0.000000 0.000000 0.732613
    26 1.482593 0.000000 -0.000001 0.000000 0.000000 1.168644
    27 2.046984 0.000001 0.000000 0.254835 0.315598 -0.043866
    28 -0.000005 0.000007 3.713254 -3.203206 -0.121085 1.237824
    29 18.045723 0.000000 0.000000 0.000000 0.000000 -1.760168
    30 17.597597 0.000000 0.000000 -0.210177 0.105096 -0.137917
    31 0.000005 -0.000003 -3.713254 0.847866 2.463872 5.484831
    32 18.045721 0.000000 0.000000 0.000000 0.000000 -2.603394
    33 17.597597 0.000000 0.000000 0.359670 -0.164466 0.792690
  time 7
    0 -1.756901 -2.027255 -20.585090 0.000000 0.000000 -1.571017
    1 -5.070471 0.304697 0.000000 -1.570795 -1.570787 0.000000
    2 1.293670 0.684478 -0.000001 -0.000004 -0.000001 0.266227
    3 5.309685 -0.003834 0.000000 0.000000 0.000000 0.223103
    4 4.826790 -0.004591 0.000000 -0.159252 0.071488 0.223800
    5 5.792767 -0.005304 0.000000 -0.070350 0.022243 0.307355
    6 6.662322 -0.001452 0.000000 0.021105 -0.031461 0.492560
    7 -3.108188 1.516823 4.339626 1.238993 -1.024532 -4.799756
    8 4.827512 0.000000 -0.000002 -0.481654 0.383213 -0.602594
    9 11.140032 0.000000 0.000000 0.070821 -0.161827 -1.407669
    10 10.314563 -0.000001 0.000001 -3.988822 0.203081 -0.504208
    11 1.646836 0.445664 -1.699647 -0.161704 0.581044 -0.283978
    12 0.928312 0.000000 0.000000 0.000000 0.000000 0.000000
    13 0.928313 0.000000 -0.000001 0.000000 0.000000 0.000000
    14 2.979373 -0.388274 -0.044205 -0.000805 -0.043611 0.000046
    15 1.435262 -0.000001 -0.000001 0.000000 0.000000 0.872146
    16 1.482593 -0.000001 0.000001 0.000000 0.000000 0.907041
    17 -2.869899 1.399667 -4.140396 -1.163265 1.764468 -4.903713
    18 4.972047 0.000000 0.000000 1.039428 -0.781048 -1.838643
    19 11.585358 0.000000 0.000001 0.386603 -0.379965 -1.707091
    20 10.127058 0.000000 0.000001 1.960763 0.596700 0.774136
    21 1.537458 0.109715 1.664489 -0.264662 -0.055995 0.783079
    22 0.928313 0.000000 0.000002 0.000000 0.000000 -0.453501
    23 0.928311 0.000000 0.000001 0.000000 0.000000 0.000000
    24 2.686395 -0.427337 0.044204 -0.005762 0.043239 -0.157074
    25 1.435260 0.000000 0.000001 0.000000 0.000000 0.732613
    26 1.482593 0.000000 -0.000001 0.000000 0.000000 1.168644
    27 2.046984 0.000001 0.000000 0.254835 0.315598 -0.043866
    28 -0.000005 0.000007 3.713254 -3.203206 -0.121085 1.237728
    29 18.045723 0.000000 0.000000 0.000000 0.000000 -1.760316
    30 17.597597 0.000000 0.000000 -0.210177 0.105022 -0.137825
    31 0.000005 -0.000003 -3.713254 0.847866 2.463968 5.485119
    32 18.045721 0.000000 0.000000 0.000000 0.000000 -2.603394
    33 17.597597 0.000000 0.000000 0.359536 -0.164328 0.792921
  time 8
    0 -1.756901 -2.027255 -20.585090 0.000000 0.000000 -1.571017
    1 -5.070471 0.304697 0.000000 -1.570795 -1.570787 0.000000
    2 1.293670 0.684478 -0.000001 -0.000004 -0.000001 0.266227
    3 5.309685 -0.003834 0.000000 0.000000 0.000000 0.223103
    4 4.826790 -0.004591 0.000000 -0.159252 0.071488 0.223800
    5 5.792767 -0.005304 0.000000 -0.075728 0.024928 0.299340
    6 6.662322 -0.001452 0.000000 0.019032 -0.028383 0.490453
    7 -3.108188 1.516823 4.339626 1.238993 -1.024532 -4.799756
    8 4.827512 0.000000 -0.000002 -0.507562 0.346801 -0.637428
    9 11.140032 0.000000 0.000000 0.070821 -0.161677 -1.400496
    10 10.314563 -0.000001 0.000001 -3.988822 0.203081 -0.504208
    11 1.646836 0.445664 -1.699647 -0.161704 0.581044 -0.283978
    12 0.928312 0.000000 0.000000 0.000000 0.000000 0.000000
    13 0.928313 0.000000 -0.000001 0.000000 0.000000 0.000000
    14 2.979373 -0.388274 -0.044205 -0.000805 -0.043611 0.000046
    15 1.435262 -0.000001 -0.000001 0.000000 0.000000 0.872146
    16 1.482593 -0.000001 0.000001 0.000000 0.000000 0.907041
    17 -2.869899 1.399667 -4.140396 -1.163265 1.764468 -4.903713
    18 4.972047 0.000000 0.000000 1.044399 -0.766665 -1.824333
    19 11.585358 0.000000 0.000001 0.386603 -0.378785 -1.728573
    20 10.127058 0.000000 0.000001 1.960763 0.596700 0.774136
    21 1.537458 0.109715 1.664489 -0.264662 -0.055995 0.783079
    22 0.928313 0.000000 0.000002 0.000000 0.000000 -0.453501
    23 0.928311 0.000000 0.000001 0.000000 0.000000 0.000000
    24 2.686395 -0.427337 0.044204 -0.005762 0.043239 -0.157074
    25 1.435260 0.000000 0.000001 0.000000 0.000000 0.732613
    26 1.482593 0.000000 -0.000001 0.000000 0.000000 1.168644
    27 2.046984 0.000001 0.000000 0.254835 0.315598 -0.043866
    28 -0.000005 0.000007 3.713254 -3.203206 -0.121085 1.237824
    29 18.045723 0.000000 0.000000 0.000000 0.000000 -1.760168
    30 17.597597 0.000000 0.000000 -0.210228 0.105022 -0.137871
    31 0.000005 -0.000003 -3.713254 0.848057 2.463777 5.484927
    32 18.045721 0.000000 0.000000 0.000000 0.000000 -2.603394
    33 17.597597 0.000000 0.000000 0.359536 -0.164466 0.792736
  time 9
    0 -1.756901 -2.027255 -20.585090 0.000000 0.000000 -1.571017
    1 -5.082190 0.304697 0.000000 -1.570795 -1.570787 0.000000
    2 1.293670 0.684478 -0.000001 -0.000004 -0.000001 0.266227
    3 5.309685 -0.003834 0.000000 0.000000 0.000000 0.223103
    4 4.826790 -0.004591 0.000000 -0.159252 0.071488 0.223800
    5 5.792767 -0.005304 0.000000 -0.081341 0.027732 0.291014
    6 6.662322 -0.001452 0.000000 0.016886 -0.025180 0.488260
    7 -3.108188 1.516823 4.339626 1.238993 -1.024532 -4.799756
    8 4.827512 0.000000 -0.000002 -0.532593 0.307234 -0.678327
    9 11.140032 0.000000 0.000000 0.070821 -0.160878 -1.376514
    10 10.314563 -0.000001 0.000001 -3.988822 0.203081 -0.504208
    11 1.646836 0.445664 -1.699647 -0.161704 0.581044 -0.283978
    12 0.928312 0.000000 0.000000 0.000000 0.000000 0.000000
    13 0.928313 0.000000 -0.000001 0.000000 0.000000 0.000000
    14 2.979373 -0.388274 -0.044205 -0.000805 -0.043611 0.000046
    15 1.435262 -0.000001 -0.000001 0.000000 0.000000 0.872146
    16 1.482593 -0.000001 0.000001 0.000000 0.000000 0.907041
    17 -2.869899 1.399667 -4.140396 -1.163265 1.764468 -4.903713
    18 4.972047 0.000000 0.000000 1.052185 -0.750193 -1.810556
    19 11.585358 0.000000 0.000001 0.386603 -0.377991 -1.743275
    20 10.127058 0.000000 0.000001 1.960763 0.596700 0.774136
    21 1.537458 0.109715 1.664489 -0.264662 -0.055995 0.783079
    22 0.928313 0.000000 0.000002 0.000000 0.000000 -0.453501
    23 0.928311 0.000000 0.000001 0.000000 0.000000 0.000000
    24 2.686395 -0.427337 0.044204 -0.005762 0.043239 -0.157074
    25 1.435260 0.000000 0.000001 0.000000 0.000000 0.732613
    26 1.482593 0.000000 -0.000001 0.000000 0.000000 1.168644
    27 2.046984 0.000001 0.000000 0.254835 0.315598 -0.043866
    28 -0.000005 0.000007 3.713254 -3.203301 -0.120893 1.237824
    29 18.045723 0.000000 0.000000 0.000000 0.000000 -1.759724
    30 17.597597 0.000000 0.000000 -0.210380 0.105096 -0.138284
    31 0.000005 -0.000003 -3.713254 0.848057 2.463297 5.484256
    32 18.045721 0.000000 0.000000 0.000000 0.000000 -2.603394
    33 17.597597 0.000000 0.000000 0.359771 -0.164959 0.791997
  time 10
    0 -1.756901 -2.027255 -20.585090 0.000000 0.000000 -1.571017
    1 -5.093909 0.316416 0.000000 -1.570795 -1.570787 0.000000
    2 1.293670 0.684478 -0.000001 -0.000004 -0.000001 0.266227
    3 5.309685 -0.003834 0.000000 0.000000 0.000000 0.223103
    4 4.826790 -0.004591 0.000000 -0.159252 0.071488 0.223800
    5 5.792767 -0.005304 0.000000 -0.087079 0.030585 0.282502
    6 6.662322 -0.001452 0.000000 0.014693 -0.021895 0.486010
    7 -3.108188 1.516823 4.339626 1.238993 -1.024532 -4.799756
    8 4.827512 0.000000 -0.000002 -0.554355 0.266985 -0.722605
    9 11.140032 0.000000 0.000000 0.070821 -0.159455 -1.337027
    10 10.314563 -0.000001 0.000001 -3.988822 0.203081 -0.504208
    11 1.646836 0.445664 -1.699647 -0.161704 0.581044 -0.283978
    12 0.928312 0.000000 0.000000 0.000000 0.000000 0.000000
    13 0.928313 0.000000 -0.000001 0.000000 0.000000 0.000000
    14 2.979373 -0.388274 -0.044205 -0.000805 -0.043611 0.000046
    15 1.435262 -0.000001 -0.000001 0.000000 0.000000 0.872146
    16 1.482593 -0.000001 0.000001 0.000000 0.000000 0.907041
    17 -2.869899 1.399667 -4.140396 -1.163265 1.764468 -4.903713
    18 4.972047 0.000000 0.000000 1.062034 -0.732597 -1.797644
    19 11.585358 0.000000 0.000001 0.386603 -0.377583 -1.750381
    20 10.127058 0.000000 0.000001 1.960763 0.596700 0.774136
    21 1.537458 0.109715 1.664489 -0.264662 -0.055995 0.783079
    22 0.928313 0.000000 0.000002 0.000000 0.000000 -0.453501
    23 0.928311 0.000000 0.000001 0.000000 0.000000 0.000000
    24 2.686395 -0.427337 0.044204 -0.005762 0.043239 -0.157074
    25 1.435260 0.000000 0.000001 0.000000 0.000000 0.732613
    26 1.482593 0.000000 -0.000001 0.000000 0.000000 1.168644
    27 2.046984 0.000001 0.000000 0.254835 0.315598 -0.043866
    28 -0.000005 0.000007 3.713254 -3.203493 -0.120701 1.238016
    29 18.045723 0.000000 0.000000 0.000000 0.000000 -1.758836
    30 17.597597 0.000000 0.000000 -0.210608 0.105219 -0.139017
    31 0.000005 -0.000003 -3.713254 0.848153 2.462530 5.483010
    32 18.045721 0.000000 0.000000 0.000000 0.000000 -2.603394
    33 17.597597 0.000000 0.000000 0.360207 -0.165768 0.790796
  time 11
    0 -1.756901 -2.027255 -20.585090 0.000000 0.000000 -1.571017
    1 -5.113441 0.316416 0.000000 -1.570795 -1.570787 0.000000
    2 1.293670 0.684478 -0.000001 -0.000004 -0.000001 0.266227
    3 5.309685 -0.003834 0.000000 0.000000 0.000000 0.223103
    4 4.826790 -0.004591 0.000000 -0.159252 0.071488 0.223800
    5 5.792767 -0.005304 0.000000 -0.092799 0.033449 0.273989
    6 6.662322 -0.001452 0.000000 0.012488 -0.018624 0.483760
    7 -3.108188 1.516823 4.339626 1.238993 -1.024532 -4.799756
    8 4.827512 0.000000 -0.000002 -0.571574 0.227504 -0.768530
    9 11.140032 0.000000 0.000000 0.070821 -0.157133 -1.282107
    10 10.314563 -0.000001 0.000001 -3.988822 0.203081 -0.504208
    11 1.646836 0.445664 -1.699647 -0.161704 0.581044 -0.283978
    12 0.928312 0.000000 0.000000 0.000000 0.000000 0.000000
    13 0.928313 0.000000 -0.000001 0.000000 0.000000 0.000000
    14 2.979373 -0.388274 -0.044205 -0.000805 -0.043611 0.000046
    15 1.435262 -0.000001 -0.000001 0.000000 0.000000 0.872146
    16 1.482593 -0.000001 0.000001 0.000000 0.000000 0.907041
    17 -2.869899 1.399667 -4.140396 -1.163265 1.764468 -4.903713
    18 4.972047 0.000000 0.000000 1.073196 -0.715000 -1.785931
    19 11.585358 0.000000 0.000001 0.386603 -0.377651 -1.749483
    20 10.127058 0.000000 0.000001 1.960763 0.596700 0.774136
    21 1.537458 0.109715 1.664489 -0.264662 -0.055995 0.783079
    22 0.928313 0.000000 0.000002 0.000000 0.000000 -0.453501
    23 0.928311 0.000000 0.000001 0.000000 0.000000 0.000000
    24 2.686395 -0.427337 0.044204 -0.005762 0.043239 -0.157074
    25 1.435260 0.000000 0.000001 0.000000 0.000000 0.732613
    26 1.482593 0.000000 -0.000001 0.000000 0.000000 1.168644
    27 2.046984 0.000001 0.000000 0.254835 0.315598 -0.043866
    28 -0.000005 0.000007 3.713254 -3.203781 -0.120510 1.238207
    29 18.045723 0.000000 0.000000 0.000000 0.000000 -1.757652
    30 17.597597 0.000000 0.000000 -0.210912 0.105367 -0.140118
    31 0.000005 -0.000003 -3.713254 0.848345 2.461572 5.481188
    32 18.045721 0.000000 0.000000 0.000000 0.000000 -2.603630
    33 17.597597 0.000000 0.000000 0.360878 -0.166971 0.789041
  time 12
    0 -1.756901 -2.027255 -20.585090 0.000000 0.000000 -1.571017
    1 -5.117348 0.316416 0.000000 -1.570795 -1.570787 0.000000
    2 1.293670 0.684478 -0.000001 -0.000004 -0.000001 0.266227
    3 5.309685 -0.003834 0.000000 0.000000 0.000000 0.223103
    4 4.826790 -0.004591 0.000000 -0.159252 0.071488 0.223800
    5 5.792767 -0.005304 0.000000 -0.098411 0.036253 0.265642
    6 6.662322 -0.001452 0.000000 0.010343 -0.015422 0.481567
    7 -3.108188 1.516823 4.339626 1.238993 -1.024532 -4.799756
    8 4.827512 0.000000 -0.000002 -0.583293 0.192712 -0.810815
    9 11.140032 0.000000 0.000000 0.070821 -0.154063 -1.220739
    10 10.314563 -0.000001 0.000001 -3.988822 0.203081 -0.504208
    11 1.646836 0.445664 -1.699647 -0.161704 0.581044 -0.283978
    12 0.928312 0.000000 0.000000 0.000000 0.000000 0.000000
    13 0.928313 0.000000 -0.000001 0.000000 0.000000 0.000000
    14 2.979373 -0.388274 -0.044205 -0.000805 -0.043611 0.000046
    15 1.435262 -0.000001 -0.000001 0.000000 0.000000 0.872146
    16 1.482593 -0.000001 0.000001 0.000000 0.000000 0.907041
    17 -2.869899 1.399667 -4.140396 -1.163265 1.764468 -4.903713
    18 4.972047 0.000000 0.000000 1.083795 -0.698930 -1.776413
    19 11.585358 0.000000 0.000001 0.386603 -0.378037 -1.742213
    20 10.127058 0.000000 0.000001 1.960763 0.596700 0.774136
    21 1.537458 0.109715 1.664489 -0.264662 -0.055995 0.783079
    22 0.928313 0.000000 0.000002 0.000000 0.000000 -0.453501
    23 0.928311 0.000000 0.000001 0.000000 0.000000 0.000000
    24 2.686395 -0.427337 0.044204 -0.005762 0.043239 -0.157074
    25 1.435260 0.000000 0.000001 0.000000 0.000000 0.732613
    26 1.482593 0.000000 -0.000001 0.000000 0.000000 1.168644
    27 2.046984 0.000001 0.000000 0.254835 0.315598 -0.043866
    28 -0.000005 0.000007 3.713254 -3.203685 -0.120510 1.238207
    29 18.045723 0.000000 0.000000 0.000000 0.000000 -1.757430
    30 17.597597 0.000000 0.000000 -0.210912 0.105318 -0.140301
    31 0.000005 -0.000003 -3.713254 0.848632 2.461476 5.480996
    32 18.045721 0.000000 0.000000 0.000000 0.000000 -2.603394
    33 17.597597 0.000000 0.000000 0.361045 -0.167326 0.788764
  time 13
    0 -1.756901 -2.027255 -20.585090 0.000000 0.000000 -1.571017
    1 -5.101722 0.312510 0.000000 -1.570795 -1.570787 0.000000
    2 1.293670 0.684478 -0.000001 -0.000004 -0.000001 0.266227
    3 5.309685 -0.003834 0.000000 0.000000 0.000000 0.223103
    4 4.826790 -0.004591 0.000000 -0.159252 0.071488 0.223800
    5 5.792767 -0.005304 0.000000 -0.103807 0.038938 0.257649
    6 6.662322 -0.001452 0.000000 0.008281 -0.012343 0.479459
    7 -3.108188 1.516823 4.339626 1.238993 -1.024532 -4.799756
    8 4.827512 0.000000 -0.000002 -0.590069 0.163975 -0.849201
    9 11.140032 0.000000 0.000000 0.070821 -0.150068 -1.157705
    10 10.314563 -0.000001 0.000001 -3.988822 0.203081 -0.504208
    11 1.646836 0.445664 -1.699647 -0.161704 0.581044 -0.283978
    12 0.928312 0.000000 0.000000 0.000000 0.000000 0.000000
    13 0.928313 0.000000 -0.000001 0.000000 0.000000 0.000000
    14 2.979373 -0.388274 -0.044205 -0.000805 -0.043611 0.000046
    15 1.435262 -0.000001 -0.000001 0.000000 0.000000 0.872146
    16 1.482593 -0.000001 0.000001 0.000000 0.000000 0.907041
    17 -2.869899 1.399667 -4.140396 -1.163265 1.764468 -4.903713
    18 4.972047 0.000000 0.000000 1.091955 -0.686476 -1.766962
    19 11.585358 0.000000 0.000001 0.386603 -0.378558 -1.732575
    20 10.127058 0.000000 0.000001 1.960763 0.596700 0.774136
    21 1.537458 0.109715 1.664489 -0.264662 -0.055995 0.783079
    22 0.928313 0.000000 0.000002 0.000000 0.000000 -0.453501
    23 0.928311 0.000000 0.000001 0.000000 0.000000 0.000000
    24 2.686395 -0.427337 0.044204 -0.005762 0.043239 -0.157074
    25 1.435260 0.000000 0.000001 0.000000 0.000000 0.732613
    26 1.482593 0.000000 -0.000001 0.000000 0.000000 1.168644
    27 2.046984 0.000001 0.000000 0.254835 0.315598 -0.043866
    28 -0.000005 0.000007 3.713254 -3.203493 -0.120701 1.238112
    29 18.045723 0.000000 0.000000 0.000000 0.000000 -1.758096
    30 17.597597 0.000000 0.000000 -0.210608 0.105145 -0.139705
    31 0.000005 -0.000003 -3.713254 0.848920 2.462243 5.482434
    32 18.045721 0.000000 0.000000 0.000000 0.000000 -2.603394
    33 17.597597 0.000000 0.000000 0.360643 -0.166813 0.790057
  time 14
    0 -1.756901 -2.027255 -20.585090 0.000000 0.000000 -1.571017
    1 -5.105629 0.312510 0.000000 -1.570795 -1.570787 0.000000
    2 1.293670 0.684478 -0.000001 -0.000004 -0.000001 0.266227
    3 5.309685 -0.003834 0.000000 0.000000 0.000000 0.223103
    4 4.826790 -0.004591 0.000000 -0.159252 0.071488 0.223800
    5 5.792767 -0.005304 0.000000 -0.108844 0.041455 0.250153
    6 6.662322 -0.001452 0.000000 0.006352 -0.009471 0.477465
    7 -3.108188 1.516823 4.339626 1.238993 -1.024532 -4.799756
    8 4.827512 0.000000 -0.000002 -0.592062 0.140780 -0.886721
    9 11.140032 0.000000 0.000000 0.070821 -0.144825 -1.084672
    10 10.314563 -0.000001 0.000001 -3.988822 0.203081 -0.504208
    11 1.646836 0.445664 -1.699647 -0.161704 0.581044 -0.283978
    12 0.928312 0.000000 0.000000 0.000000 0.000000 0.000000
    13 0.928313 0.000000 -0.000001 0.000000 0.000000 0.000000
    14 2.979373 -0.388274 -0.044205 -0.000805 -0.043611 0.000046
    15 1.435262 -0.000001 -0.000001 0.000000 0.000000 0.872146
    16 1.482593 -0.000001 0.000001 0.000000 0.000000 0.907041
    17 -2.869899 1.399667 -4.140396 -1.163265 1.764468 -4.903713
    18 4.972047 0.000000 0.000000 1.097865 -0.676834 -1.757512
    19 11.585358 0.000000 0.000001 0.386603 -0.379443 -1.716566
    20 10.127058 0.000000 0.000001 1.960763 0.596700 0.774136
    21 1.537458 0.109715 1.664489 -0.264662 -0.055995 0.783079
    22 0.928313 0.000000 0.000002 0.000000 0.000000 -0.453501
    23 0.928311 0.000000 0.000001 0.000000 0.000000 0.000000
    24 2.686395 -0.427337 0.044204 -0.005762 0.043239 -0.157074
    25 1.435260 0.000000 0.000001 0.000000 0.000000 0.732613
    26 1.482593 0.000000 -0.000001 0.000000 0.000000 1.168644
    27 2.046984 0.000001 0.000000 0.254835 0.315598 -0.043866
    28 -0.000005 0.000007 3.713254 -3.203493 -0.120701 1.238112
    29 18.045723 0.000000 0.000000 0.000000 0.000000 -1.758022
    30 17.597597 0.000000 0.000000 -0.210608 0.105096 -0.139797
    31 0.000005 -0.000003 -3.713254 0.849207 2.462243 5.482434
    32 18.045721 0.000000 0.000000 0.000000 0.000000 -2.603394
    33 17.597597 0.000000 0.000000 0.360744 -0.167030 0.790011
  time 15
    0 -1.756901 -2.027255 -20.585090 0.000000 0.000000 -1.571017
    1 -5.125160 0.316416 0.000000 -1.570795 -1.570787 0.000000
    2 1.293670 0.684478 -0.000001 -0.000004 -0.000001 0.266227
    3 5.309685 -0.003834 0.000000 0.000000 0.000000 0.223103
    4 4.826790 -0.004591 0.000000 -0.159252 0.071488 0.223800
    5 5.792767 -0.005304 0.000000 -0.113413 0.043744 0.243343
    6 6.662322 -0.001452 0.000000 0.004590 -0.006846 0.475671
    7 -3.108188 1.516823 4.339626 1.238993 -1.024532 -4.799756
    8 4.827512 0.000000 -0.000002 -0.589829 0.124322 -0.923028
    9 11.140032 0.000000 0.000000 0.070821 -0.138135 -1.003886
    10 10.314563 -0.000001 0.000001 -3.988822 0.203081 -0.504208
    11 1.646836 0.445664 -1.699647 -0.161704 0.581044 -0.283978
    12 0.928312 0.000000 0.000000 0.000000 0.000000 0.000000
    13 0.928313 0.000000 -0.000001 0.000000 0.000000 0.000000
    14 2.979373 -0.388274 -0.044205 -0.000805 -0.043611 0.000046
    15 1.435262 -0.000001 -0.000001 0.000000 0.000000 0.872146
    16 1.482593 -0.000001 0.000001 0.000000 0.000000 0.907041
    17 -2.869899 1.399667 -4.140396 -1.163265 1.764468 -4.903713
    18 4.972047 0.000000 0.000000 1.101335 -0.671290 -1.748327
    19 11.585358 0.000000 0.000001 0.386603 -0.380601 -1.695492
    20 10.127058 0.000000 0.000001 1.960763 0.596700 0.774136
    21 1.537458 0.109715 1.664489 -0.264662 -0.055995 0.783079
    22 0.928313 0.000000 0.000002 0.000000 0.000000 -0.453501
    23 0.928311 0.000000 0.000001 0.000000 0.000000 0.000000
    24 2.686395 -0.427337 0.044204 -0.005762 0.043239 -0.157074
    25 1.435260 0.000000 0.000001 0.000000 0.000000 0.732613
    26 1.482593 0.000000 -0.000001 0.000000 0.000000 1.168644
    27 2.046984 0.000001 0.000000 0.254835 0.315598 -0.043866
    28 -0.000005 0.000007 3.713254 -3.203589 -0.120510 1.238207
    29 18.045723 0.000000 0.000000 0.000000 0.000000 -1.756985
    30 17.597597 0.000000 0.000000 -0.210887 0.105219 -0.140668
    31 0.000005 -0.000003 -3.713254 0.849207 2.461380 5.480900
    32 18.045721 0.000000 0.000000 0.000000 0.000000 -2.603394
    33 17.597597 0.000000 0.000000 0.361247 -0.168016 0.788579
  time 16
    0 -1.756901 -2.027255 -20.585090 0.000000 0.000000 -1.571017
    1 -5.132973 0.316416 0.000000 -1.570795 -1.570787 0.000000
    2 1.293670 0.684478 -0.000001 -0.000004 -0.000001 0.266227
    3 5.309685 -0.003834 0.000000 0.000000 0.000000 0.223103
    4 4.826790 -0.004591 0.000000 -0.159252 0.071488 0.223800
    5 5.792767 -0.005304 0.000000 -0.117424 0.045733 0.237405
    6 6.662322 -0.001452 0.000000 0.003056 -0.004564 0.474104
    7 -3.108188 1.516823 4.339626 1.238993 -1.024532 -4.799756
    8 4.827512 0.000000 -0.000002 -0.584409 0.118353 -0.952835
    9 11.140032 0.000000 0.000000 0.070821 -0.131294 -0.930563
    10 10.314563 -0.000001 0.000001 -3.988822 0.203081 -0.504208
    11 1.646836 0.445664 -1.699647 -0.161704 0.581044 -0.283978
    12 0.928312 0.000000 0.000000 0.000000 0.000000 0.000000
    13 0.928313 0.000000 -0.000001 0.000000 0.000000 0.000000
    14 2.979373 -0.388274 -0.044205 -0.000805 -0.043611 0.000046
    15 1.435262 -0.000001 -0.000001 0.000000 0.000000 0.872146
    16 1.482593 -0.000001 0.000001 0.000000 0.000000 0.907041
    17 -2.869899 1.399667 -4.140396 -1.163265 1.764468 -4.903713
    18 4.972047 0.000000 0.000000 1.100116 -0.672174 -1.739076
    19 11.585358 0.000000 0.000001 0.386603 -0.381690 -1.675399
    20 10.127058 0.000000 0.000001 1.960763 0.596700 0.774136
    21 1.537458 0.109715 1.664489 -0.264662 -0.055995 0.783079
    22 0.928313 0.000000 0.000002 0.000000 0.000000 -0.453501
    23 0.928311 0.000000 0.000001 0.000000 0.000000 0.000000
    24 2.686395 -0.427337 0.044204 -0.005762 0.043239 -0.157074
    25 1.435260 0.000000 0.000001 0.000000 0.000000 0.732613
    26 1.482593 0.000000 -0.000001 0.000000 0.000000 1.168644
    27 2.046984 0.000001 0.000000 0.254835 0.315598 -0.043866
    28 -0.000005 0.000007 3.713254 -3.203781 -0.120318 1.238303
    29 18.045723 0.000000 0.000000 0.000000 0.000000 -1.756467
    30 17.597597 0.000000 0.000000 -0.211039 0.105293 -0.141080
    31 0.000005 -0.000003 -3.713254 0.849303 2.460901 5.480133
    32 18.045721 0.000000 0.000000 0.000000 0.000000 -2.603394
    33 17.597597 0.000000 0.000000 0.361515 -0.168509 0.787748
  time 17
    0 -1.756901 -2.027255 -20.585090 0.000000 0.000000 -1.571017
    1 -5.132973 0.316416 0.000000 -1.570795 -1.570787 0.000000
    2 1.293670 0.684478 -0.000001 -0.000004 -0.000001 0.266227
    3 5.309685 -0.003834 0.000000 0.000000 0.000000 0.223103
    4 4.826790 -0.004591 0.000000 -0.159252 0.071488 0.223800
    5 5.792767 -0.005304 0.000000 -0.120734 0.047387 0.232463
    6 6.662322 -0.001452 0.000000 0.001786 -0.002667 0.472823
    7 -3.108188 1.516823 4.339626 1.238993 -1.024532 -4.799756
    8 4.827512 0.000000 -0.000002 -0.571973 0.135067 -0.976404
    9 11.140032 0.000000 0.000000 0.070821 -0.123979 -0.858907
    10 10.314563 -0.000001 0.000001 -3.988822 0.203081 -0.504208
    11 1.646836 0.445664 -1.699647 -0.161704 0.581044 -0.283978
    12 0.928312 0.000000 0.000000 0.000000 0.000000 0.000000
    13 0.928313 0.000000 -0.000001 0.000000 0.000000 0.000000
    14 2.979373 -0.388274 -0.044205 -0.000805 -0.043611 0.000046
    15 1.435262 -0.000001 -0.000001 0.000000 0.000000 0.872146
    16 1.482593 -0.000001 0.000001 0.000000 0.000000 0.907041
    17 -2.869899 1.399667 -4.140396 -1.163265 1.764468 -4.903713
    18 4.972047 0.000000 0.000000 1.087265 -0.687762 -1.725498
    19 11.585358 0.000000 0.000001 0.386603 -0.382552 -1.653917
    20 10.127058 0.000000 0.000001 1.960763 0.596700 0.774136
    21 1.537458 0.109715 1.664489 -0.264662 -0.055995 0.783079
    22 0.928313 0.000000 0.000002 0.000000 0.000000 -0.453501
    23 0.928311 0.000000 0.000001 0.000000 0.000000 0.000000
    24 2.686395 -0.427337 0.044204 -0.005762 0.043239 -0.157074
    25 1.435260 0.000000 0.000001 0.000000 0.000000 0.732613
    26 1.482593 0.000000 -0.000001 0.000000 0.000000 1.168644
    27 2.046984 0.000001 0.000000 0.254835 0.315598 -0.043866
    28 -0.000005 0.000007 3.713254 -3.203781 -0.120222 1.238399
    29 18.045723 0.000000 0.000000 0.000000 0.000000 -1.756319
    30 17.597597 0.000000 0.000000 -0.211115 0.105293 -0.141264
    31 0.000005 -0.000003 -3.713254 0.849303 2.460613 5.479846
    32 18.045721 0.000000 0.000000 0.000000 0.000000 -2.603394
    33 17.597597 0.000000 0.000000 0.361582 -0.168726 0.787471
  time 18
    0 -1.756901 -2.027255 -20.585090 0.000000 0.000000 -1.571017
    1 -5.132973 0.324229 0.000000 -1.570795 -1.570787 0.000000
    2 1.293670 0.684478 -0.000001 -0.000004 -0.000001 0.266227
    3 5.309685 -0.003834 0.000000 0.000000 0.000000 0.223103
    4 4.826790 -0.004591 0.000000 -0.159252 0.071488 0.223800
    5 5.792767 -0.005304 0.000000 -0.123252 0.048645 0.228747
    6 6.662322 -0.001452 0.000000 0.000827 -0.001238 0.471826
    7 -3.108188 1.516823 4.339626 1.238993 -1.024532 -4.799756
    8 4.827512 0.000000 -0.000002 -0.556189 0.171820 -0.993908
    9 11.140032 0.000000 0.000000 0.070821 -0.116315 -0.790076
    10 10.314563 -0.000001 0.000001 -3.988822 0.203081 -0.504208
    11 1.646836 0.445664 -1.699647 -0.161704 0.581044 -0.283978
    12 0.928312 0.000000 0.000000 0.000000 0.000000 0.000000
    13 0.928313 0.000000 -0.000001 0.000000 0.000000 0.000000
    14 2.979373 -0.388274 -0.044205 -0.000805 -0.043611 0.000046
    15 1.435262 -0.000001 -0.000001 0.000000 0.000000 0.872146
    16 1.482593 -0.000001 0.000001 0.000000 0.000000 0.907041
    17 -2.869899 1.399667 -4.140396 -1.163265 1.764468 -4.903713
    18 4.972047 0.000000 0.000000 1.065410 -0.716286 -1.710457
    19 11.585358 0.000000 0.000001 0.386603 -0.383006 -1.630557
    20 10.127058 0.000000 0.000001 1.960763 0.596700 0.774136
    21 1.537458 0.109715 1.664489 -0.264662 -0.055995 0.783079
    22 0.928313 0.000000 0.000002 0.000000 0.000000 -0.453501
    23 0.928311 0.000000 0.000001 0.000000 0.000000 0.000000
    24 2.686395 -0.427337 0.044204 -0.005762 0.043239 -0.157074
    25 1.435260 0.000000 0.000001 0.000000 0.000000 0.732613
    26 1.482593 0.000000 -0.000001 0.000000 0.000000 1.168644
    27 2.046984 0.000001 0.000000 0.254835 0.315598 -0.043866
    28 -0.000005 0.000007 3.713254 -3.203781 -0.120222 1.238399
    29 18.045723 0.000000 0.000000 0.000000 0.000000 -1.756245
    30 17.597597 0.000000 0.000000 -0.211115 0.105293 -0.141355
    31 0.000005 -0.000003 -3.713254 0.849495 2.460613 5.479846
    32 18.045721 0.000000 0.000000 0.000000 0.000000 -2.603394
    33 17.597597 0.000000 0.000000 0.361515 -0.168746 0.787471
  time 19
    0 -1.756901 -2.027255 -20.585090 0.000000 0.000000 -1.571017
    1 -5.132973 0.316416 0.000000 -1.570795 -1.570787 0.000000
    2 1.293670 0.684478 -0.000001 -0.000004 -0.000001 0.266227
    3 5.309685 -0.003834 0.000000 0.000000 0.000000 0.223103
    4 4.826790 -0.004591 0.000000 -0.159252 0.071488 0.223800
    5 5.792767 -0.005304 0.000000 -0.124835 0.049436 0.226380
    6 6.662322 -0.001452 0.000000 0.000216 -0.000331 0.471199
    7 -3.108188 1.516823 4.339626 1.238993 -1.024532 -4.799756
    8 4.827512 0.000000 -0.000002 -0.545108 0.206015 -1.009158
    9 11.140032 0.000000 0.000000 0.070821 -0.109100 -0.729940
    10 10.314563 -0.000001 0.000001 -3.988822 0.203081 -0.504208
    11 1.646836 0.445664 -1.699647 -0.161704 0.581044 -0.283978
    12 0.928312 0.000000 0.000000 0.000000 0.000000 0.000000
    13 0.928313 0.000000 -0.000001 0.000000 0.000000 0.000000
    14 2.979373 -0.388274 -0.044205 -0.000805 -0.043611 0.000046
    15 1.435262 -0.000001 -0.000001 0.000000 0.000000 0.872146
    16 1.482593 -0.000001 0.000001 0.000000 0.000000 0.907041
    17 -2.869899 1.399667 -4.140396 -1.163265 1.764468 -4.903713
    18 4.972047 0.000000 0.000000 1.045244 -0.743123 -1.697945
    19 11.585358 0.000000 0.000001 0.386603 -0.383391 -1.611035
    20 10.127058 0.000000 0.000001 1.960763 0.596700 0.774136
    21 1.537458 0.109715 1.664489 -0.264662 -0.055995 0.783079
    22 0.928313 0.000000 0.000002 0.000000 0.000000 -0.453501
    23 0.928311 0.000000 0.000001 0.000000 0.000000 0.000000
    24 2.686395 -0.427337 0.044204 -0.005762 0.043239 -0.157074
    25 1.435260 0.000000 0.000001 0.000000 0.000000 0.732613
    26 1.482593 0.000000 -0.000001 0.000000 0.000000 1.168644
    27 2.046984 0.000001 0.000000 0.254835 0.315598 -0.043866
    28 -0.000005 0.000007 3.713254 -3.203781 -0.120222 1.238303
    29 18.045723 0.000000 0.000000 0.000000 0.000000 -1.756319
    30 17.597597 0.000000 0.000000 -0.211115 0.105244 -0.141218
    31 0.000005 -0.000003 -3.713254 0.849495 2.460613 5.480038
    32 18.045721 0.000000 0.000000 0.000000 0.000000 -2.603394
    33 17.597597 0.000000 0.000000 0.361448 -0.168746 0.787563
  time 20
    0 -1.756901 -2.027255 -20.585090 0.000000 0.000000 -1.571017
    1 -5.132973 0.316416 0.000000 -1.570795 -1.570787 0.000000
    2 1.293670 0.684478 -0.000001 -0.000004 -0.000001 0.266227
    3 5.309685 -0.003834 0.000000 0.000000 0.000000 0.223103
    4 4.826790 -0.004591 0.000000 -0.159252 0.071488 0.223800
    5 5.792767 -0.005304 0.000000 -0.125392 0.049712 0.225549
    6 6.662322 -0.001452 0.000000 0.000000 -0.000015 0.471000
    7 -3.108188 1.516823 4.339626 1.238993 -1.024532 -4.799756
    8 4.827512 0.000000 -0.000002 -0.541441 0.220341 -1.017043
    9 11.140032 0.000000 0.000000 0.070821 -0.105579 -0.701031
    10 10.314563 -0.000001 0.000001 -3.988822 0.203081 -0.504208
    11 1.646836 0.445664 -1.699647 -0.161704 0.581044 -0.283978
    12 0.928312 0.000000 0.000000 0.000000 0.000000 0.000000
    13 0.928313 0.000000 -0.000001 0.000000 0.000000 0.000000
    14 2.979373 -0.388274 -0.044205 -0.000805 -0.043611 0.000046
    15 1.435262 -0.000001 -0.000001 0.000000 0.000000 0.872146
    16 1.482593 -0.000001 0.000001 0.000000 0.000000 0.907041
    17 -2.869899 1.399667 -4.140396 -1.163265 1.764468 -4.903713
    18 4.972047 0.000000 0.000000 1.036708 -0.754693 -1.693019
    19 11.585358 0.000000 0.000001 0.386603 -0.383573 -1.601969
    20 10.127058 0.000000 0.000001 1.960763 0.596700 0.774136
    21 1.537458 0.109715 1.664489 -0.264662 -0.055995 0.783079
    22 0.928313 0.000000 0.000002 0.000000 0.000000 -0.453501
    23 0.928311 0.000000 0.000001 0.000000 0.000000 0.000000
    24 2.686395 -0.427337 0.044204 -0.005762 0.043239 -0.157074
    25 1.435260 0.000000 0.000001 0.000000 0.000000 0.732613
    26 1.482593 0.000000 -0.000001 0.000000 0.000000 1.168644
    27 2.046984 0.000001 0.000000 0.254835 0.315598 -0.043866
    28 -0.000005 0.000007 3.713254 -3.204068 -0.120606 1.238399
    29 18.045723 0.000000 0.000000 0.000000 0.000000 -1.756393
    30 17.597597 0.000000 0.000000 -0.210887 0.105637 -0.141218
    31 0.000005 -0.000003 -3.713254 0.848441 2.461380 5.479079
    32 18.045721 0.000000 0.000000 0.000000 0.000000 -2.603394
    33 17.597597 0.000000 0.000000 0.362388 -0.168095 0.787471
end
