version 1
nodes
  0 "Bip01" -1
  1 "Bip01 Pelvis" 0
  2 "Bip01 Spine" 1
  3 "Bip01 Spine1" 2
  4 "Bip01 Spine2" 3
  5 "Bip01 Spine3" 4
  6 "Bip01 Neck" 5
  7 "Bip01 L Arm" 6
  8 "Bip01 L Arm1" 7
  9 "Bip01 L Arm2" 8
  10 "Bip01 L Hand" 9
  11 "Bip01 L Finger0" 10
  12 "Bip01 L Finger01" 11
  13 "Bip01 L Finger02" 12
  14 "Bip01 L Finger1" 10
  15 "Bip01 L Finger11" 14
  16 "Bip01 L Finger12" 15
  17 "Bip01 R Arm" 6
  18 "Bip01 R Arm1" 17
  19 "Bip01 R Arm2" 18
  20 "Bip01 R Hand" 19
  21 "Bip01 R Finger0" 20
  22 "Bip01 R Finger01" 21
  23 "Bip01 R Finger02" 22
  24 "Bip01 R Finger1" 20
  25 "Bip01 R Finger11" 24
  26 "Bip01 R Finger12" 25
  27 "Bip01 Head" 6
  28 "Bip01 L Leg" 1
  29 "Bip01 L Leg1" 28
  30 "Bip01 L Foot" 29
  31 "Bip01 R Leg" 1
  32 "Bip01 R Leg1" 31
  33 "Bip01 R Foot" 32
end
skeleton
  time 0
    0 0.075186 0.250159 -20.600716 0.000000 0.000000 -1.585458
    1 -2.269605 0.335948 0.000000 -1.570795 -1.570787 0.000000
    2 1.293670 0.684478 -0.000001 -0.003929 -0.031281 0.152857
    3 5.309685 -0.003834 0.000000 -0.156693 0.048022 -0.003645
    4 4.826790 -0.004591 0.000000 -0.106206 0.052828 0.108157
    5 5.792767 -0.005304 0.000000 -0.109689 0.094295 0.109029
    6 6.662322 -0.001452 0.000000 0.000000 -0.000001 0.296580
    7 -3.319131 0.962119 4.339626 0.438716 -1.383649 -3.870990
    8 4.827512 0.000000 -0.000002 -0.567270 0.717913 -0.573220
    9 11.140032 0.000000 0.000000 0.000000 0.000000 -1.821885
    10 10.314563 -0.000001 0.000001 -1.258886 0.224345 0.070619
    11 1.646836 0.445664 -1.699647 0.441755 0.155162 1.184501
    12 0.928312 0.000000 0.000000 0.000000 0.000000 0.000000
    13 0.928313 0.000000 -0.000001 0.000000 0.000000 0.000000
    14 2.979373 -0.388274 -0.044205 -0.021491 -0.037954 0.497507
    15 1.435262 -0.000001 -0.000001 0.000000 0.000000 0.889615
    16 1.482593 -0.000001 0.000001 0.000000 0.000000 1.116358
    17 -3.065217 0.884026 -4.140396 0.000026 1.370769 -3.439042
    18 4.972047 0.000000 0.000000 -0.808122 -0.857701 0.566868
    19 11.585358 0.000000 0.000001 0.000000 0.000000 -0.728730
    20 10.127058 0.000000 0.000001 1.569752 0.000000 -0.069778
    21 1.537458 0.109715 1.664489 -0.264662 -0.055995 0.783079
    22 0.928313 0.000000 0.000002 0.000000 0.000000 -0.453501
    23 0.928311 0.000000 0.000001 0.000000 0.000000 0.000000
    24 2.686395 -0.427337 0.044204 -0.005762 0.043239 -0.157074
    25 1.435260 0.000000 0.000001 0.000000 0.000000 0.732613
    26 1.482593 0.000000 -0.000001 0.000000 0.000000 1.168644
    27 2.046984 0.000001 0.000000 -0.352849 0.181476 -0.110473
    28 -0.000005 0.000007 3.713254 -3.293327 -0.162119 1.249327
    29 18.045723 0.000000 0.000000 0.000000 0.000000 -1.739814
    30 17.597597 0.000000 0.000000 -0.256093 0.200188 -0.158227
    31 0.000005 -0.000003 -3.713254 0.801286 2.302337 5.490775
    32 18.045721 0.000000 0.000000 0.000000 0.000000 -2.676051
    33 17.597597 0.000000 0.000000 0.368460 0.049238 0.749181
  time 1
    0 -0.104507 0.250159 -20.600716 0.000000 0.000000 -1.585458
    1 -2.269605 0.335948 0.000000 -1.570795 -1.570787 0.000000
    2 1.293670 0.684478 -0.000001 0.000266 -0.007372 0.142193
    3 5.309685 -0.003834 0.000000 -0.174033 0.024928 0.009125
    4 4.826790 -0.004591 0.000000 -0.116315 0.004926 0.114573
    5 5.792767 -0.005304 0.000000 -0.108700 0.000503 0.107285
    6 6.662322 -0.001452 0.000000 0.000000 -0.000001 0.296580
    7 -3.319131 0.962119 4.339626 0.600612 -1.373359 -4.030336
    8 4.827512 0.000000 -0.000002 -0.320865 0.631019 -0.445324
    9 11.140032 0.000000 0.000000 0.000000 0.000000 -1.853547
    10 10.314563 -0.000001 0.000001 -1.459338 0.129174 -0.033837
    11 1.646836 0.445664 -1.699647 0.441755 0.155162 1.184501
    12 0.928312 0.000000 0.000000 0.000000 0.000000 0.000000
    13 0.928313 0.000000 -0.000001 0.000000 0.000000 0.000000
    14 2.979373 -0.388274 -0.044205 -0.021491 -0.037954 0.497507
    15 1.435262 -0.000001 -0.000001 0.000000 0.000000 0.889615
    16 1.482593 -0.000001 0.000001 0.000000 0.000000 1.116358
    17 -3.065217 0.884026 -4.140396 0.000026 1.398611 -3.439042
    18 4.972047 0.000000 0.000000 -0.827820 -1.032220 0.584438
    19 11.585358 0.000000 0.000001 0.000000 0.000000 -0.844633
    20 10.127058 0.000000 0.000001 1.569542 0.000189 -0.072529
    21 1.537458 0.109715 1.664489 -0.264662 -0.055995 0.783079
    22 0.928313 0.000000 0.000002 0.000000 0.000000 -0.453501
    23 0.928311 0.000000 0.000001 0.000000 0.000000 0.000000
    24 2.686395 -0.427337 0.044204 -0.005762 0.043239 -0.157074
    25 1.435260 0.000000 0.000001 0.000000 0.000000 0.732613
    26 1.482593 0.000000 -0.000001 0.000000 0.000000 1.168644
    27 2.046984 0.000001 0.000000 -0.267243 0.273556 0.026513
    28 -0.000005 0.000007 3.713254 -3.287575 -0.167009 1.248368
    29 18.045723 0.000000 0.000000 0.000000 0.000000 -1.739962
    30 17.597597 0.000000 0.000000 -0.249656 0.196521 -0.158456
    31 0.000005 -0.000003 -3.713254 0.822467 2.317963 5.506785
    32 18.045721 0.000000 0.000000 0.000000 0.000000 -2.673453
    33 17.597597 0.000000 0.000000 0.374298 0.041645 0.765670
  time 2
    0 -0.213885 0.238440 -20.600716 0.000000 0.000000 -1.585458
    1 -2.269605 0.335948 0.000000 -1.570795 -1.570787 0.000000
    2 1.293670 0.684478 -0.000001 0.003736 0.014716 0.131981
    3 5.309685 -0.003834 0.000000 -0.190455 0.004338 0.022921
    4 4.826790 -0.004591 0.000000 -0.124422 -0.028799 0.119710
    5 5.792767 -0.005304 0.000000 -0.106343 -0.069043 0.103257
    6 6.662322 -0.001452 0.000000 0.000000 -0.000001 0.296580
    7 -3.319131 0.962119 4.339626 0.743241 -1.358575 -4.170805
    8 4.827512 0.000000 -0.000002 -0.113282 0.567490 -0.347149
    9 11.140032 0.000000 0.000000 0.000000 0.000000 -1.885354
    10 10.314563 -0.000001 0.000001 -1.647279 0.020608 -0.123661
    11 1.646836 0.445664 -1.699647 0.441755 0.155162 1.184501
    12 0.928312 0.000000 0.000000 0.000000 0.000000 0.000000
    13 0.928313 0.000000 -0.000001 0.000000 0.000000 0.000000
    14 2.979373 -0.388274 -0.044205 -0.021491 -0.037954 0.497507
    15 1.435262 -0.000001 -0.000001 0.000000 0.000000 0.889615
    16 1.482593 -0.000001 0.000001 0.000000 0.000000 1.116358
    17 -3.065217 0.884026 -4.140396 0.000026 1.456791 -3.439042
    18 4.972047 0.000000 0.000000 -0.465007 -1.264912 0.314490
    19 11.585358 0.000000 0.000001 0.000000 0.000000 -1.125857
    20 10.127058 0.000000 0.000001 1.568910 0.000567 -0.078432
    21 1.537458 0.109715 1.664489 -0.264662 -0.055995 0.783079
    22 0.928313 0.000000 0.000002 0.000000 0.000000 -0.453501
    23 0.928311 0.000000 0.000001 0.000000 0.000000 0.000000
    24 2.686395 -0.427337 0.044204 -0.005762 0.043239 -0.157074
    25 1.435260 0.000000 0.000001 0.000000 0.000000 0.732613
    26 1.482593 0.000000 -0.000001 0.000000 0.000000 1.168644
    27 2.046984 0.000001 0.000000 -0.182155 0.315156 0.159120
    28 -0.000005 0.000007 3.713254 -3.283931 -0.170269 1.247602
    29 18.045723 0.000000 0.000000 0.000000 0.000000 -1.740850
    30 17.597597 0.000000 0.000000 -0.245501 0.194158 -0.157998
    31 0.000005 -0.000003 -3.713254 0.834639 2.328125 5.517810
    32 18.045721 0.000000 0.000000 0.000000 0.000000 -2.671564
    33 17.597597 0.000000 0.000000 0.376982 0.037937 0.776663
  time 3
    0 -0.170915 0.175938 -20.600716 0.000000 0.000000 -1.585458
    1 -2.269605 0.335948 0.000000 -1.570795 -1.570787 0.000000
    2 1.293670 0.684478 -0.000001 0.006885 0.037043 0.121819
    3 5.309685 -0.003834 0.000000 -0.207710 -0.015772 0.036928
    4 4.826790 -0.004591 0.000000 -0.129896 -0.031004 0.121033
    5 5.792767 -0.005304 0.000000 -0.100210 -0.087404 0.093540
    6 6.662322 -0.001452 0.000000 0.000000 -0.000001 0.296580
    7 -3.319131 0.962119 4.339626 0.865358 -1.340123 -4.290961
    8 4.827512 0.000000 -0.000002 -0.023201 0.565017 -0.324447
    9 11.140032 0.000000 0.000000 0.000000 0.000000 -1.943027
    10 10.314563 -0.000001 0.000001 -1.763949 -0.094609 -0.212207
    11 1.646836 0.445664 -1.699647 0.441755 0.155162 1.184501
    12 0.928312 0.000000 0.000000 0.000000 0.000000 0.000000
    13 0.928313 0.000000 -0.000001 0.000000 0.000000 0.000000
    14 2.979373 -0.388274 -0.044205 -0.021491 -0.037954 0.497507
    15 1.435262 -0.000001 -0.000001 0.000000 0.000000 0.889615
    16 1.482593 -0.000001 0.000001 0.000000 0.000000 1.116358
    17 -3.065217 0.884026 -4.140396 0.000026 1.510555 -3.439042
    18 4.972047 0.000000 0.000000 0.223568 -1.349359 -0.282245
    19 11.585358 0.000000 0.000001 0.000000 0.000000 -1.399648
    20 10.127058 0.000000 0.000001 1.568139 0.000851 -0.084334
    21 1.537458 0.109715 1.664489 -0.264662 -0.055995 0.783079
    22 0.928313 0.000000 0.000002 0.000000 0.000000 -0.453501
    23 0.928311 0.000000 0.000001 0.000000 0.000000 0.000000
    24 2.686395 -0.427337 0.044204 -0.005762 0.043239 -0.157074
    25 1.435260 0.000000 0.000001 0.000000 0.000000 0.732613
    26 1.482593 0.000000 -0.000001 0.000000 0.000000 1.168644
    27 2.046984 0.000001 0.000000 0.065529 0.228003 0.127428
    28 -0.000005 0.000007 3.713254 -3.285082 -0.169310 1.247218
    29 18.045723 0.000000 0.000000 0.000000 0.000000 -1.744847
    30 17.597597 0.000000 0.000000 -0.246818 0.194946 -0.154376
    31 0.000005 -0.000003 -3.713254 0.827355 2.325728 5.519536
    32 18.045721 0.000000 0.000000 0.000000 0.000000 -2.672430
    33 17.597597 0.000000 0.000000 0.371883 0.045373 0.776247
  time 4
    0 -0.073256 0.101717 -20.600716 0.000000 0.000000 -1.585458
    1 -2.269605 0.335948 0.000000 -1.570795 -1.570787 0.000000
    2 1.293670 0.684478 -0.000001 0.009395 0.057801 0.112025
    3 5.309685 -0.003834 0.000000 -0.224183 -0.033629 0.051712
    4 4.826790 -0.004591 0.000000 -0.133215 -0.020685 0.120702
    5 5.792767 -0.005304 0.000000 -0.092817 -0.084192 0.081809
    6 6.662322 -0.001452 0.000000 0.000000 -0.000001 0.296580
    7 -3.319131 0.962119 4.339626 0.968112 -1.318804 -4.391954
    8 4.827512 0.000000 -0.000002 -0.301573 0.522977 -0.523223
    9 11.140032 0.000000 0.000000 0.000000 0.000000 -2.139520
    10 10.314563 -0.000001 0.000001 -1.541983 -0.167486 -0.371765
    11 1.646836 0.445664 -1.699647 0.441755 0.155162 1.184501
    12 0.928312 0.000000 0.000000 0.000000 0.000000 0.000000
    13 0.928313 0.000000 -0.000001 0.000000 0.000000 0.000000
    14 2.979373 -0.388274 -0.044205 -0.021491 -0.037954 0.497507
    15 1.435262 -0.000001 -0.000001 0.000000 0.000000 0.889615
    16 1.482593 -0.000001 0.000001 0.000000 0.000000 1.116358
    17 -3.065217 0.884026 -4.140396 -0.000069 1.546337 -3.439138
    18 4.972047 0.000000 0.000000 0.399722 -1.402952 -0.458817
    19 11.585358 0.000000 0.000001 0.000000 0.000000 -1.596006
    20 10.127058 0.000000 0.000001 1.567648 0.001229 -0.088736
    21 1.537458 0.109715 1.664489 -0.264662 -0.055995 0.783079
    22 0.928313 0.000000 0.000002 0.000000 0.000000 -0.453501
    23 0.928311 0.000000 0.000001 0.000000 0.000000 0.000000
    24 2.686395 -0.427337 0.044204 -0.005762 0.043239 -0.157074
    25 1.435260 0.000000 0.000001 0.000000 0.000000 0.732613
    26 1.482593 0.000000 -0.000001 0.000000 0.000000 1.168644
    27 2.046984 0.000001 0.000000 0.288182 0.109222 0.064713
    28 -0.000005 0.000007 3.713254 -3.287958 -0.166817 1.247122
    29 18.045723 0.000000 0.000000 0.000000 0.000000 -1.749806
    30 17.597597 0.000000 0.000000 -0.250163 0.196816 -0.149975
    31 0.000005 -0.000003 -3.713254 0.812979 2.318730 5.517714
    32 18.045721 0.000000 0.000000 0.000000 0.000000 -2.674083
    33 17.597597 0.000000 0.000000 0.363964 0.056516 0.771397
  time 5
    0 -0.010754 0.058747 -20.600716 0.000000 0.000000 -1.585458
    1 -2.269605 0.335948 0.000000 -1.570795 -1.570787 0.000000
    2 1.293670 0.684478 -0.000001 0.009867 0.065627 0.104341
    3 5.309685 -0.003834 0.000000 -0.228879 -0.037668 0.070665
    4 4.826790 -0.004591 0.000000 -0.128485 -0.009899 0.120195
    5 5.792767 -0.005304 0.000000 -0.087456 -0.072171 0.071739
    6 6.662322 -0.001452 0.000000 0.000000 -0.000001 0.296580
    7 -3.319131 0.962119 4.339626 1.052367 -1.295385 -4.474549
    8 4.827512 0.000000 -0.000002 -0.477110 0.443331 -0.626943
    9 11.140032 0.000000 0.000000 0.000000 0.000000 -1.985847
    10 10.314563 -0.000001 0.000001 -1.321817 -0.273523 -0.401784
    11 1.646836 0.445664 -1.699647 0.441755 0.155162 1.184501
    12 0.928312 0.000000 0.000000 0.000000 0.000000 0.000000
    13 0.928313 0.000000 -0.000001 0.000000 0.000000 0.000000
    14 2.979373 -0.388274 -0.044205 -0.021491 -0.037954 0.497507
    15 1.435262 -0.000001 -0.000001 0.000000 0.000000 0.889615
    16 1.482593 -0.000001 0.000001 0.000000 0.000000 1.116358
    17 -3.065217 0.884026 -4.140396 -0.000547 1.566607 -3.439712
    18 4.972047 0.000000 0.000000 0.325152 -1.457269 -0.428933
    19 11.585358 0.000000 0.000001 0.000000 0.000000 -1.750789
    20 10.127058 0.000000 0.000001 1.567087 0.001513 -0.092988
    21 1.537458 0.109715 1.664489 -0.264662 -0.055995 0.783079
    22 0.928313 0.000000 0.000002 0.000000 0.000000 -0.453501
    23 0.928311 0.000000 0.000001 0.000000 0.000000 0.000000
    24 2.686395 -0.427337 0.044204 -0.005762 0.043239 -0.157074
    25 1.435260 0.000000 0.000001 0.000000 0.000000 0.732613
    26 1.482593 0.000000 -0.000001 0.000000 0.000000 1.168644
    27 2.046984 0.000001 0.000000 0.354443 0.022364 -0.055423
    28 -0.000005 0.000007 3.713254 -3.289780 -0.165091 1.247122
    29 18.045723 0.000000 0.000000 0.000000 0.000000 -1.752174
    30 17.597597 0.000000 0.000000 -0.252418 0.198120 -0.147774
    31 0.000005 -0.000003 -3.713254 0.803874 2.313841 5.515222
    32 18.045721 0.000000 0.000000 0.000000 0.000000 -2.674949
    33 17.597597 0.000000 0.000000 0.359469 0.062611 0.767471
  time 6
    0 -0.022473 0.101717 -20.600716 0.000000 0.000000 -1.585458
    1 -2.269605 0.335948 0.000000 -1.570795 -1.570787 0.000000
    2 1.293670 0.684478 -0.000001 0.007206 0.050442 0.100591
    3 5.309685 -0.003834 0.000000 -0.210926 -0.018600 0.097126
    4 4.826790 -0.004591 0.000000 -0.108857 -0.001858 0.119865
    5 5.792767 -0.005304 0.000000 -0.085801 -0.050946 0.060112
    6 6.662322 -0.001452 0.000000 0.000000 -0.000001 0.296580
    7 -3.319131 0.962119 4.339626 1.127708 -1.269985 -4.548617
    8 4.827512 0.000000 -0.000002 -0.407756 0.414338 -0.688378
    9 11.140032 0.000000 0.000000 0.000000 0.000000 -1.811017
    10 10.314563 -0.000001 0.000001 -1.344374 -0.508547 0.013775
    11 1.646836 0.445664 -1.699647 0.441755 0.155162 1.184501
    12 0.928312 0.000000 0.000000 0.000000 0.000000 0.000000
    13 0.928313 0.000000 -0.000001 0.000000 0.000000 0.000000
    14 2.979373 -0.388274 -0.044205 -0.021491 -0.037954 0.497507
    15 1.435262 -0.000001 -0.000001 0.000000 0.000000 0.889615
    16 1.482593 -0.000001 0.000001 0.000000 0.000000 1.116358
    17 -3.065217 0.884026 -4.140396 0.000026 1.534821 -3.439138
    18 4.972047 0.000000 0.000000 0.180702 -1.399015 -0.388202
    19 11.585358 0.000000 0.000001 0.000000 0.000000 -1.763123
    20 10.127058 0.000000 0.000001 1.566667 0.001891 -0.097190
    21 1.537458 0.109715 1.664489 -0.264662 -0.055995 0.783079
    22 0.928313 0.000000 0.000002 0.000000 0.000000 -0.453501
    23 0.928311 0.000000 0.000001 0.000000 0.000000 0.000000
    24 2.686395 -0.427337 0.044204 -0.005762 0.043239 -0.157074
    25 1.435260 0.000000 0.000001 0.000000 0.000000 0.732613
    26 1.482593 0.000000 -0.000001 0.000000 0.000000 1.168644
    27 2.046984 0.000001 0.000000 0.398517 -0.058417 -0.186387
    28 -0.000005 0.000007 3.713254 -3.289492 -0.165379 1.247410
    29 18.045723 0.000000 0.000000 0.000000 0.000000 -1.749732
    30 17.597597 0.000000 0.000000 -0.252038 0.197899 -0.149929
    31 0.000005 -0.000003 -3.713254 0.807037 2.314128 5.513113
    32 18.045721 0.000000 0.000000 0.000000 0.000000 -2.674870
    33 17.597597 0.000000 0.000000 0.362253 0.058607 0.766640
  time 7
    0 -0.065443 0.187657 -20.600716 0.000000 0.000000 -1.585458
    1 -2.269605 0.335948 0.000000 -1.570795 -1.570787 0.000000
    2 1.293670 0.684478 -0.000001 0.003079 0.022302 0.099168
    3 5.309685 -0.003834 0.000000 -0.179105 0.012056 0.128638
    4 4.826790 -0.004591 0.000000 -0.081161 0.006639 0.119644
    5 5.792767 -0.005304 0.000000 -0.086395 -0.021033 0.050104
    6 6.662322 -0.001452 0.000000 0.000000 -0.000001 0.296580
    7 -3.319131 0.962119 4.339626 1.175634 -1.244733 -4.594993
    8 4.827512 0.000000 -0.000002 -0.332663 0.412889 -0.775549
    9 11.140032 0.000000 0.000000 0.000000 0.000000 -1.592642
    10 10.314563 -0.000001 0.000001 -1.495068 -0.694861 0.523803
    11 1.646836 0.445664 -1.699647 0.441755 0.155162 1.184501
    12 0.928312 0.000000 0.000000 0.000000 0.000000 0.000000
    13 0.928313 0.000000 -0.000001 0.000000 0.000000 0.000000
    14 2.979373 -0.388274 -0.044205 -0.021491 -0.037954 0.497507
    15 1.435262 -0.000001 -0.000001 0.000000 0.000000 0.889615
    16 1.482593 -0.000001 0.000001 0.000000 0.000000 1.116358
    17 -3.065217 0.884026 -4.140396 0.000026 1.484843 -3.439042
    18 4.972047 0.000000 0.000000 0.089905 -1.315934 -0.371496
    19 11.585358 0.000000 0.000001 0.000000 0.000000 -1.596741
    20 10.127058 0.000000 0.000001 1.566176 0.002080 -0.100841
    21 1.537458 0.109715 1.664489 -0.264662 -0.055995 0.783079
    22 0.928313 0.000000 0.000002 0.000000 0.000000 -0.453501
    23 0.928311 0.000000 0.000001 0.000000 0.000000 0.000000
    24 2.686395 -0.427337 0.044204 -0.005762 0.043239 -0.157074
    25 1.435260 0.000000 0.000001 0.000000 0.000000 0.732613
    26 1.482593 0.000000 -0.000001 0.000000 0.000000 1.168644
    27 2.046984 0.000001 0.000000 0.329197 -0.116185 -0.100072
    28 -0.000005 0.000007 3.713254 -3.288533 -0.166242 1.247889
    29 18.045723 0.000000 0.000000 0.000000 0.000000 -1.744181
    30 17.597597 0.000000 0.000000 -0.250721 0.197161 -0.154697
    31 0.000005 -0.000003 -3.713254 0.815567 2.316237 5.509469
    32 18.045721 0.000000 0.000000 0.000000 0.000000 -2.674083
    33 17.597597 0.000000 0.000000 0.368997 0.049140 0.766040
  time 8
    0 -0.096694 0.273597 -20.600716 0.000000 0.000000 -1.585458
    1 -2.269605 0.335948 0.000000 -1.570795 -1.570787 0.000000
    2 1.293670 0.684478 -0.000001 -0.000004 -0.000001 0.096573
    3 5.309685 -0.003834 0.000000 -0.152864 0.035906 0.158312
    4 4.826790 -0.004591 0.000000 -0.059588 0.013111 0.119820
    5 5.792767 -0.005304 0.000000 -0.087151 0.003272 0.054070
    6 6.662322 -0.001452 0.000000 0.000000 -0.000001 0.296580
    7 -3.319131 0.962119 4.339626 1.141990 -1.226755 -4.557624
    8 4.827512 0.000000 -0.000002 -0.432867 0.475650 -0.958901
    9 11.140032 0.000000 0.000000 0.000000 0.000000 -1.177557
    10 10.314563 -0.000001 0.000001 -1.296417 -0.721370 0.602247
    11 1.646836 0.445664 -1.699647 0.441755 0.155162 1.184501
    12 0.928312 0.000000 0.000000 0.000000 0.000000 0.000000
    13 0.928313 0.000000 -0.000001 0.000000 0.000000 0.000000
    14 2.979373 -0.388274 -0.044205 -0.021491 -0.037954 0.497507
    15 1.435262 -0.000001 -0.000001 0.000000 0.000000 0.889615
    16 1.482593 -0.000001 0.000001 0.000000 0.000000 1.116358
    17 -3.065217 0.884026 -4.140396 0.000026 1.445487 -3.439042
    18 4.972047 0.000000 0.000000 -0.036347 -1.265876 -0.227138
    19 11.585358 0.000000 0.000001 0.000000 0.000000 -1.435750
    20 10.127058 0.000000 0.000001 1.567228 0.001418 -0.092038
    21 1.537458 0.109715 1.664489 -0.264662 -0.055995 0.783079
    22 0.928313 0.000000 0.000002 0.000000 0.000000 -0.453501
    23 0.928311 0.000000 0.000001 0.000000 0.000000 0.000000
    24 2.686395 -0.427337 0.044204 -0.005762 0.043239 -0.157074
    25 1.435260 0.000000 0.000001 0.000000 0.000000 0.732613
    26 1.482593 0.000000 -0.000001 0.000000 0.000000 1.168644
    27 2.046984 0.000001 0.000000 0.265908 -0.159024 -0.021298
    28 -0.000005 0.000007 3.713254 -3.287958 -0.166817 1.248560
    29 18.045723 0.000000 0.000000 0.000000 0.000000 -1.738778
    30 17.597597 0.000000 0.000000 -0.249935 0.196668 -0.159511
    31 0.000005 -0.000003 -3.713254 0.822467 2.317100 5.504772
    32 18.045721 0.000000 0.000000 0.000000 0.000000 -2.673532
    33 17.597597 0.000000 0.000000 0.375238 0.040304 0.764100
  time 9
    0 -0.084975 0.324380 -20.600716 0.000000 0.000000 -1.585458
    1 -2.269605 0.335948 0.000000 -1.570795 -1.570787 0.000000
    2 1.293670 0.684478 -0.000001 -0.000391 -0.003285 0.090245
    3 5.309685 -0.003834 0.000000 -0.148116 0.041742 0.179509
    4 4.826790 -0.004591 0.000000 -0.056155 0.014322 0.120658
    5 5.792767 -0.005304 0.000000 -0.086881 0.010499 0.093021
    6 6.662322 -0.001452 0.000000 0.000000 -0.000001 0.296580
    7 -3.319131 0.962119 4.339626 1.087737 -1.210256 -4.498887
    8 4.827512 0.000000 -0.000002 -0.577473 0.494069 -1.168768
    9 11.140032 0.000000 0.000000 0.000000 0.000000 -0.802828
    10 10.314563 -0.000001 0.000001 -0.993322 -0.728021 0.530713
    11 1.646836 0.445664 -1.699647 0.441755 0.155162 1.184501
    12 0.928312 0.000000 0.000000 0.000000 0.000000 0.000000
    13 0.928313 0.000000 -0.000001 0.000000 0.000000 0.000000
    14 2.979373 -0.388274 -0.044205 -0.021491 -0.037954 0.497507
    15 1.435262 -0.000001 -0.000001 0.000000 0.000000 0.889615
    16 1.482593 -0.000001 0.000001 0.000000 0.000000 1.116358
    17 -3.065217 0.884026 -4.140396 0.000026 1.407970 -3.439042
    18 4.972047 0.000000 0.000000 0.020963 -1.224898 -0.275257
    19 11.585358 0.000000 0.000001 0.000000 0.000000 -1.382413
    20 10.127058 0.000000 0.000001 1.568560 0.000757 -0.081083
    21 1.537458 0.109715 1.664489 -0.264662 -0.055995 0.783079
    22 0.928313 0.000000 0.000002 0.000000 0.000000 -0.453501
    23 0.928311 0.000000 0.000001 0.000000 0.000000 0.000000
    24 2.686395 -0.427337 0.044204 -0.005762 0.043239 -0.157074
    25 1.435260 0.000000 0.000001 0.000000 0.000000 0.732613
    26 1.482593 0.000000 -0.000001 0.000000 0.000000 1.168644
    27 2.046984 0.000001 0.000000 0.235233 -0.187347 0.032231
    28 -0.000005 0.000007 3.713254 -3.288533 -0.166338 1.249039
    29 18.045723 0.000000 0.000000 0.000000 0.000000 -1.735521
    30 17.597597 0.000000 0.000000 -0.250442 0.196964 -0.162308
    31 0.000005 -0.000003 -3.713254 0.823330 2.315087 5.499403
    32 18.045721 0.000000 0.000000 0.000000 0.000000 -2.673532
    33 17.597597 0.000000 0.000000 0.378090 0.036280 0.760358
  time 10
    0 -0.065443 0.363443 -20.600716 0.000000 0.000000 -1.585458
    1 -2.269605 0.335948 0.000000 -1.570795 -1.570787 0.000000
    2 1.293670 0.684478 -0.000001 -0.000004 -0.000001 0.082494
    3 5.309685 -0.003834 0.000000 -0.151333 0.041862 0.197420
    4 4.826790 -0.004591 0.000000 -0.059550 0.013243 0.121673
    5 5.792767 -0.005304 0.000000 -0.086431 0.011397 0.147772
    6 6.662322 -0.001452 0.000000 0.000000 -0.000001 0.296580
    7 -3.319131 0.962119 4.339626 1.034634 -1.193017 -4.440821
    8 4.827512 0.000000 -0.000002 -0.711398 0.474456 -1.381408
    9 11.140032 0.000000 0.000000 0.000000 0.000000 -0.435490
    10 10.314563 -0.000001 0.000001 -0.676296 -0.708724 0.439902
    11 1.646836 0.445664 -1.699647 0.441755 0.155162 1.184501
    12 0.928312 0.000000 0.000000 0.000000 0.000000 0.000000
    13 0.928313 0.000000 -0.000001 0.000000 0.000000 0.000000
    14 2.979373 -0.388274 -0.044205 -0.021491 -0.037954 0.497507
    15 1.435262 -0.000001 -0.000001 0.000000 0.000000 0.889615
    16 1.482593 -0.000001 0.000001 0.000000 0.000000 1.116358
    17 -3.065217 0.884026 -4.140396 0.000026 1.370769 -3.439042
    18 4.972047 0.000000 0.000000 0.107727 -1.185929 -0.363110
    19 11.585358 0.000000 0.000001 0.000000 0.000000 -1.348516
    20 10.127058 0.000000 0.000001 1.569752 0.000000 -0.069778
    21 1.537458 0.109715 1.664489 -0.264662 -0.055995 0.783079
    22 0.928313 0.000000 0.000002 0.000000 0.000000 -0.453501
    23 0.928311 0.000000 0.000001 0.000000 0.000000 0.000000
    24 2.686395 -0.427337 0.044204 -0.005762 0.043239 -0.157074
    25 1.435260 0.000000 0.000001 0.000000 0.000000 0.732613
    26 1.482593 0.000000 -0.000001 0.000000 0.000000 1.168644
    27 2.046984 0.000001 0.000000 0.215630 -0.210832 0.073473
    28 -0.000005 0.000007 3.713254 -3.289300 -0.165475 1.249615
    29 18.045723 0.000000 0.000000 0.000000 0.000000 -1.732931
    30 17.597597 0.000000 0.000000 -0.251405 0.197530 -0.164508
    31 0.000005 -0.000003 -3.713254 0.822084 2.312211 5.493747
    32 18.045721 0.000000 0.000000 0.000000 0.000000 -2.673768
    33 17.597597 0.000000 0.000000 0.379868 0.033736 0.755924
end
