version 1
nodes
  0 "Bip01" -1
  1 "Bip01 Pelvis" 0
  2 "Bip01 Spine" 1
  3 "Bip01 Spine1" 2
  4 "Bip01 Spine2" 3
  5 "Bip01 Spine3" 4
  6 "Bip01 Neck" 5
  7 "Bip01 L Arm" 6
  8 "Bip01 L Arm1" 7
  9 "Bip01 L Arm2" 8
  10 "Bip01 L Hand" 9
  11 "Bip01 L Finger0" 10
  12 "Bip01 L Finger01" 11
  13 "Bip01 L Finger02" 12
  14 "Bip01 L Finger1" 10
  15 "Bip01 L Finger11" 14
  16 "Bip01 L Finger12" 15
  17 "Bip01 R Arm" 6
  18 "Bip01 R Arm1" 17
  19 "Bip01 R Arm2" 18
  20 "Bip01 R Hand" 19
  21 "Bip01 R Finger0" 20
  22 "Bip01 R Finger01" 21
  23 "Bip01 R Finger02" 22
  24 "Bip01 R Finger1" 20
  25 "Bip01 R Finger11" 24
  26 "Bip01 R Finger12" 25
  27 "Bip01 Head" 6
  28 "Bip01 L Leg" 1
  29 "Bip01 L Leg1" 28
  30 "Bip01 L Foot" 29
  31 "Bip01 R Leg" 1
  32 "Bip01 R Leg1" 31
  33 "Bip01 R Foot" 32
end
skeleton
  time 0
    0 0.020497 2.105684 -20.600716 0.000000 0.000000 -1.585458
    1 -0.531270 0.273446 0.000000 -1.570795 -1.570787 0.000000
    2 1.293670 0.684478 -0.000001 -0.053385 0.067976 0.130240
    3 5.309685 -0.003834 0.000000 -0.369696 -0.065795 0.016050
    4 4.826790 -0.004591 0.000000 -0.291284 -0.134108 0.004728
    5 5.792767 -0.005304 0.000000 -0.336407 -0.038794 -0.071753
    6 6.662322 -0.001452 0.000000 0.000000 -0.000001 0.724513
    7 -2.639423 2.243408 4.339626 1.172183 -1.089466 -4.993980
    8 4.827512 0.000000 -0.000002 -0.023600 0.525109 0.796810
    9 11.140032 0.000000 0.000000 0.000000 0.000000 -2.166908
    10 10.314563 -0.000001 0.000001 -1.426355 0.153529 0.005588
    11 1.646836 0.445664 -1.699647 0.153911 0.442352 0.277231
    12 0.928312 0.000000 0.000000 0.000000 0.000000 0.000000
    13 0.928313 0.000000 -0.000001 0.000000 0.000000 0.000000
    14 2.979373 -0.388274 -0.044205 -0.018183 -0.039656 0.411911
    15 1.435262 -0.000001 -0.000001 0.000000 0.000000 0.570828
    16 1.482593 -0.000001 0.000001 0.000000 0.000000 0.530452
    17 -2.432386 2.063750 -4.140396 2.754400 1.358202 -1.104782
    18 4.972047 0.000000 0.000000 2.153004 0.609079 -0.083910
    19 11.585358 0.000000 0.000001 0.000000 0.000000 -2.647144
    20 10.127058 0.000000 0.000001 2.152482 -0.397075 0.344801
    21 1.537458 0.109715 1.664489 -0.344506 -0.327833 0.740676
    22 0.928313 0.000000 0.000002 0.000000 0.000000 0.000000
    23 0.928311 0.000000 0.000001 0.000000 0.000000 0.000000
    24 2.686395 -0.427337 0.044204 0.001045 0.043611 0.000046
    25 1.435260 0.000000 0.000001 0.000000 0.000000 1.037856
    26 1.482593 0.000000 -0.000001 0.000000 0.000000 1.142584
    27 2.046984 0.000001 0.000000 1.078150 -0.094795 -0.444788
    28 -0.000005 0.000007 3.713254 -3.289300 -0.165475 1.249615
    29 18.045723 0.000000 0.000000 0.000000 0.000000 -1.732931
    30 17.597597 0.000000 0.000000 -0.251405 0.197505 -0.164508
    31 0.000005 -0.000003 -3.713254 0.821892 2.312307 5.493555
    32 18.045721 0.000000 0.000000 0.000000 0.000000 -2.673768
    33 17.597597 0.000000 0.000000 0.379969 0.033854 0.755924
  time 1
    0 0.043935 2.113497 -20.600716 0.000000 0.000000 -1.585458
    1 -0.531270 0.273446 0.000000 -1.570795 -1.570787 0.000000
    2 1.293670 0.684478 -0.000001 -0.057613 0.047051 0.136384
    3 5.309685 -0.003834 0.000000 -0.327017 -0.043864 0.018929
    4 4.826790 -0.004591 0.000000 -0.248920 -0.117557 0.020493
    5 5.792767 -0.005304 0.000000 -0.288487 0.004207 -0.021528
    6 6.662322 -0.001452 0.000000 0.000000 -0.000001 0.686946
    7 -2.717551 2.145748 4.339626 1.106620 -1.145559 -4.897683
    8 4.827512 0.000000 -0.000002 -0.280687 0.572606 0.385134
    9 11.140032 0.000000 0.000000 0.000000 0.000000 -2.124885
    10 10.314563 -0.000001 0.000001 -1.432137 0.025947 0.002337
    11 1.646836 0.445664 -1.699647 0.153911 0.442352 0.277231
    12 0.928312 0.000000 0.000000 0.000000 0.000000 0.000000
    13 0.928313 0.000000 -0.000001 0.000000 0.000000 0.000000
    14 2.979373 -0.388274 -0.044205 -0.018483 -0.039512 0.419945
    15 1.435262 -0.000001 -0.000001 0.000000 0.000000 0.491173
    16 1.482593 -0.000001 0.000001 0.000000 0.000000 0.466503
    17 -2.514419 1.977810 -4.140396 2.716569 1.393984 -1.106889
    18 4.972047 0.000000 0.000000 1.840655 0.579992 -0.266139
    19 11.585358 0.000000 0.000001 0.000000 0.000000 -2.424730
    20 10.127058 0.000000 0.000001 2.180251 -0.215512 0.554041
    21 1.537458 0.109715 1.664489 -0.344506 -0.327833 0.740676
    22 0.928313 0.000000 0.000002 0.000000 0.000000 0.000000
    23 0.928311 0.000000 0.000001 0.000000 0.000000 0.000000
    24 2.686395 -0.427337 0.044204 0.001045 0.043611 0.000046
    25 1.435260 0.000000 0.000001 0.000000 0.000000 1.037856
    26 1.482593 0.000000 -0.000001 0.000000 0.000000 1.142584
    27 2.046984 0.000001 0.000000 0.937829 -0.077447 -0.415773
    28 -0.000005 0.000007 3.713254 -3.291601 -0.166146 1.249998
    29 18.045723 0.000000 0.000000 0.000000 0.000000 -1.732635
    30 17.597597 0.000000 0.000000 -0.251455 0.199720 -0.164508
    31 0.000005 -0.000003 -3.713254 0.818154 2.310485 5.489912
    32 18.045721 0.000000 0.000000 0.000000 0.000000 -2.674083
    33 17.597597 0.000000 0.000000 0.380103 0.035077 0.753292
  time 2
    0 0.071280 2.168186 -20.600716 0.000000 0.000000 -1.585458
    1 -0.531270 0.273446 0.000000 -1.570795 -1.570787 0.000000
    2 1.293670 0.684478 -0.000001 -0.062447 0.024519 0.142712
    3 5.309685 -0.003834 0.000000 -0.281258 -0.020554 0.023292
    4 4.826790 -0.004591 0.000000 -0.203123 -0.100742 0.035839
    5 5.792767 -0.005304 0.000000 -0.234074 0.046249 0.033058
    6 6.662322 -0.001452 0.000000 0.000000 -0.000001 0.647642
    7 -2.799584 2.032464 4.339626 1.022940 -1.199581 -4.781168
    8 4.827512 0.000000 -0.000002 -0.555711 0.554699 -0.043179
    9 11.140032 0.000000 0.000000 0.000000 0.000000 -2.092208
    10 10.314563 -0.000001 0.000001 -1.440856 -0.101541 -0.002541
    11 1.646836 0.445664 -1.699647 0.153911 0.442352 0.277231
    12 0.928312 0.000000 0.000000 0.000000 0.000000 0.000000
    13 0.928313 0.000000 -0.000001 0.000000 0.000000 0.000000
    14 2.979373 -0.388274 -0.044205 -0.019022 -0.039285 0.433321
    15 1.435262 -0.000001 -0.000001 0.000000 0.000000 0.411643
    16 1.482593 -0.000001 0.000001 0.000000 0.000000 0.398974
    17 -2.588640 1.872338 -4.140396 2.659537 1.429476 -1.126428
    18 4.972047 0.000000 0.000000 1.571922 0.478832 -0.384874
    19 11.585358 0.000000 0.000001 0.000000 0.000000 -2.202479
    20 10.127058 0.000000 0.000001 2.253320 -0.047944 0.762430
    21 1.537458 0.109715 1.664489 -0.344506 -0.327833 0.740676
    22 0.928313 0.000000 0.000002 0.000000 0.000000 0.000000
    23 0.928311 0.000000 0.000001 0.000000 0.000000 0.000000
    24 2.686395 -0.427337 0.044204 0.001045 0.043611 0.000046
    25 1.435260 0.000000 0.000001 0.000000 0.000000 1.037856
    26 1.482593 0.000000 -0.000001 0.000000 0.000000 1.142584
    27 2.046984 0.000001 0.000000 0.794621 -0.045524 -0.395577
    28 -0.000005 0.000007 3.713254 -3.293327 -0.165954 1.250765
    29 18.045723 0.000000 0.000000 0.000000 0.000000 -1.729008
    30 17.597597 0.000000 0.000000 -0.252089 0.201270 -0.167442
    31 0.000005 -0.000003 -3.713254 0.814129 2.308664 5.479654
    32 18.045721 0.000000 0.000000 0.000000 0.000000 -2.674319
    33 17.597597 0.000000 0.000000 0.384934 0.033006 0.747657
  time 3
    0 0.082999 2.261939 -20.600716 0.000000 0.000000 -1.585458
    1 -0.531270 0.273446 0.000000 -1.570795 -1.570787 0.000000
    2 1.293670 0.684478 -0.000001 -0.067400 0.002803 0.149107
    3 5.309685 -0.003834 0.000000 -0.237099 0.002121 0.028326
    4 4.826790 -0.004591 0.000000 -0.159233 -0.085043 0.049839
    5 5.792767 -0.005304 0.000000 -0.179733 0.083401 0.087830
    6 6.662322 -0.001452 0.000000 0.000000 -0.000001 0.607825
    7 -2.877712 1.926992 4.339626 0.913188 -1.250499 -4.638207
    8 4.827512 0.000000 -0.000002 -0.774773 0.466696 -0.444024
    9 11.140032 0.000000 0.000000 0.000000 0.000000 -2.040839
    10 10.314563 -0.000001 0.000001 -1.452514 -0.231183 -0.009276
    11 1.646836 0.445664 -1.699647 0.153911 0.442352 0.277231
    12 0.928312 0.000000 0.000000 0.000000 0.000000 0.000000
    13 0.928313 0.000000 -0.000001 0.000000 0.000000 0.000000
    14 2.979373 -0.388274 -0.044205 -0.019118 -0.039225 0.435970
    15 1.435262 -0.000001 -0.000001 0.000000 0.000000 0.331863
    16 1.482593 -0.000001 0.000001 0.000000 0.000000 0.338551
    17 -2.662861 1.766866 -4.140396 2.519965 1.474800 -1.228338
    18 4.972047 0.000000 0.000000 1.337989 0.400170 -0.479050
    19 11.585358 0.000000 0.000001 0.000000 0.000000 -2.086739
    20 10.127058 0.000000 0.000001 2.354509 0.030166 0.971771
    21 1.537458 0.109715 1.664489 -0.344506 -0.327833 0.740676
    22 0.928313 0.000000 0.000002 0.000000 0.000000 0.000000
    23 0.928311 0.000000 0.000001 0.000000 0.000000 0.000000
    24 2.686395 -0.427337 0.044204 0.001045 0.043611 0.000046
    25 1.435260 0.000000 0.000001 0.000000 0.000000 1.037856
    26 1.482593 0.000000 -0.000001 0.000000 0.000000 1.142584
    27 2.046984 0.000001 0.000000 0.665071 -0.006019 -0.383716
    28 -0.000005 0.000007 3.713254 -3.294286 -0.165187 1.251819
    29 18.045723 0.000000 0.000000 0.000000 0.000000 -1.722939
    30 17.597597 0.000000 0.000000 -0.252900 0.201861 -0.172531
    31 0.000005 -0.000003 -3.713254 0.811829 2.307993 5.466041
    32 18.045721 0.000000 0.000000 0.000000 0.000000 -2.674083
    33 17.597597 0.000000 0.000000 0.393423 0.027878 0.740913
  time 4
    0 0.082999 2.367411 -20.600716 0.000000 0.000000 -1.585458
    1 -0.531270 0.273446 0.000000 -1.570795 -1.570787 0.000000
    2 1.293670 0.684478 -0.000001 -0.071846 -0.015665 0.155385
    3 5.309685 -0.003834 0.000000 -0.199202 0.022279 0.032848
    4 4.826790 -0.004591 0.000000 -0.122705 -0.071608 0.061437
    5 5.792767 -0.005304 0.000000 -0.132857 0.113051 0.137453
    6 6.662322 -0.001452 0.000000 0.000000 -0.000001 0.568976
    7 -2.951933 1.809801 4.339626 0.766054 -1.296568 -4.458548
    8 4.827512 0.000000 -0.000002 -0.878803 0.328553 -0.788113
    9 11.140032 0.000000 0.000000 0.000000 0.000000 -1.942737
    10 10.314563 -0.000001 0.000001 -1.467773 -0.364853 -0.018102
    11 1.646836 0.445664 -1.699647 0.153911 0.442352 0.277231
    12 0.928312 0.000000 0.000000 0.000000 0.000000 0.000000
    13 0.928313 0.000000 -0.000001 0.000000 0.000000 0.000000
    14 2.979373 -0.388274 -0.044205 -0.018183 -0.039656 0.411911
    15 1.435262 -0.000001 -0.000001 0.000000 0.000000 0.252083
    16 1.482593 -0.000001 0.000001 0.000000 0.000000 0.295865
    17 -2.725363 1.669207 -4.140396 -1.334362 1.614140 -5.045468
    18 4.972047 0.000000 0.000000 1.066911 0.362968 -0.620280
    19 11.585358 0.000000 0.000001 0.000000 0.000000 -2.118757
    20 10.127058 0.000000 0.000001 2.455347 -0.004255 1.181161
    21 1.537458 0.109715 1.664489 -0.344506 -0.327833 0.740676
    22 0.928313 0.000000 0.000002 0.000000 0.000000 0.000000
    23 0.928311 0.000000 0.000001 0.000000 0.000000 0.000000
    24 2.686395 -0.427337 0.044204 0.001045 0.043611 0.000046
    25 1.435260 0.000000 0.000001 0.000000 0.000000 1.037856
    26 1.482593 0.000000 -0.000001 0.000000 0.000000 1.142584
    27 2.046984 0.000001 0.000000 0.563395 0.033103 -0.373071
    28 -0.000005 0.000007 3.713254 -3.294190 -0.164324 1.252778
    29 18.045723 0.000000 0.000000 0.000000 0.000000 -1.716351
    30 17.597597 0.000000 0.000000 -0.253559 0.201344 -0.178171
    31 0.000005 -0.000003 -3.713254 0.811829 2.308472 5.453290
    32 18.045721 0.000000 0.000000 0.000000 0.000000 -2.673768
    33 17.597597 0.000000 0.000000 0.402951 0.021409 0.735232
  time 5
    0 0.063467 2.429913 -20.600716 0.000000 0.000000 -1.585458
    1 -0.531270 0.273446 0.000000 -1.570795 -1.570787 0.000000
    2 1.293670 0.684478 -0.000001 -0.075131 -0.028488 0.161328
    3 5.309685 -0.003834 0.000000 -0.172298 0.038015 0.035374
    4 4.826790 -0.004591 0.000000 -0.099034 -0.061673 0.069749
    5 5.792767 -0.005304 0.000000 -0.101541 0.133832 0.176051
    6 6.662322 -0.001452 0.000000 0.000000 -0.000001 0.532292
    7 -3.014435 1.704329 4.339626 0.567255 -1.334890 -4.229446
    8 4.827512 0.000000 -0.000002 -0.727819 0.160137 -1.117904
    9 11.140032 0.000000 0.000000 0.000000 0.000000 -1.682992
    10 10.314563 -0.000001 0.000001 -1.491562 -0.535805 -0.035985
    11 1.646836 0.445664 -1.699647 0.153911 0.442352 0.277231
    12 0.928312 0.000000 0.000000 0.000000 0.000000 0.000000
    13 0.928313 0.000000 -0.000001 0.000000 0.000000 0.000000
    14 2.979373 -0.388274 -0.044205 -0.012514 -0.041789 0.272900
    15 1.435262 -0.000001 -0.000001 0.000000 0.000000 0.124409
    16 1.482593 -0.000001 0.000001 0.000000 0.000000 0.295063
    17 -2.783959 1.563735 -4.140396 0.360945 1.496490 -3.314623
    18 4.972047 0.000000 0.000000 0.751654 0.296599 -0.797983
    19 11.585358 0.000000 0.000001 0.000000 0.000000 -2.229842
    20 10.127058 0.000000 0.000001 2.535569 -0.107992 1.381397
    21 1.537458 0.109715 1.664489 -0.344506 -0.327833 0.740676
    22 0.928313 0.000000 0.000002 0.000000 0.000000 0.000000
    23 0.928311 0.000000 0.000001 0.000000 0.000000 0.000000
    24 2.686395 -0.427337 0.044204 0.001045 0.043611 0.000046
    25 1.435260 0.000000 0.000001 0.000000 0.000000 1.037856
    26 1.482593 0.000000 -0.000001 0.000000 0.000000 1.142584
    27 2.046984 0.000001 0.000000 0.502519 0.064908 -0.351477
    28 -0.000005 0.000007 3.713254 -3.293135 -0.163461 1.253257
    29 18.045723 0.000000 0.000000 0.000000 0.000000 -1.711836
    30 17.597597 0.000000 0.000000 -0.253913 0.200065 -0.182113
    31 0.000005 -0.000003 -3.713254 0.813554 2.309718 5.446100
    32 18.045721 0.000000 0.000000 0.000000 0.000000 -2.673217
    33 17.597597 0.000000 0.000000 0.409595 0.016359 0.732368
  time 6
    0 0.051748 2.433819 -20.600716 0.000000 0.000000 -1.585458
    1 -0.531270 0.273446 0.000000 -1.570795 -1.570787 0.000000
    2 1.293670 0.684478 -0.000001 -0.076799 -0.034097 0.166752
    3 5.309685 -0.003834 0.000000 -0.159501 0.048082 0.034649
    4 4.826790 -0.004591 0.000000 -0.091843 -0.055932 0.074599
    5 5.792767 -0.005304 0.000000 -0.091324 0.145924 0.199596
    6 6.662322 -0.001452 0.000000 0.000000 -0.000001 0.499197
    7 -3.069124 1.598857 4.339626 0.307110 -1.361265 -3.942470
    8 4.827512 0.000000 -0.000002 -0.441715 0.050134 -1.381928
    9 11.140032 0.000000 0.000000 0.000000 0.000000 -1.382745
    10 10.314563 -0.000001 0.000001 -1.513550 -0.661045 -0.044520
    11 1.646836 0.445664 -1.699647 0.153911 0.442352 0.277231
    12 0.928312 0.000000 0.000000 0.000000 0.000000 0.000000
    13 0.928313 0.000000 -0.000001 0.000000 0.000000 0.000000
    14 2.979373 -0.388274 -0.044205 -0.007505 -0.043000 0.155299
    15 1.435262 -0.000001 -0.000001 0.000000 0.000000 0.089973
    16 1.482593 -0.000001 0.000001 0.000000 0.000000 0.348541
    17 -2.834742 1.469982 -4.140396 0.076547 1.425480 -3.565951
    18 4.972047 0.000000 0.000000 0.448966 0.179852 -0.954055
    19 11.585358 0.000000 0.000001 0.000000 0.000000 -2.362653
    20 10.127058 0.000000 0.000001 2.581921 -0.236127 1.552971
    21 1.537458 0.109715 1.664489 -0.344506 -0.327833 0.740676
    22 0.928313 0.000000 0.000002 0.000000 0.000000 0.000000
    23 0.928311 0.000000 0.000001 0.000000 0.000000 0.000000
    24 2.686395 -0.427337 0.044204 0.001045 0.043611 0.000046
    25 1.435260 0.000000 0.000001 0.000000 0.000000 1.037923
    26 1.482593 0.000000 -0.000001 0.000000 0.000000 1.142584
    27 2.046984 0.000001 0.000000 0.489422 0.083790 -0.308227
    28 -0.000005 0.000007 3.713254 -3.291793 -0.162886 1.253066
    29 18.045723 0.000000 0.000000 0.000000 0.000000 -1.711614
    30 17.597597 0.000000 0.000000 -0.254040 0.198662 -0.182480
    31 0.000005 -0.000003 -3.713254 0.815663 2.310869 5.447250
    32 18.045721 0.000000 0.000000 0.000000 0.000000 -2.672981
    33 17.597597 0.000000 0.000000 0.410198 0.015294 0.733523
  time 7
    0 0.040029 2.379130 -20.600716 0.000000 0.000000 -1.585458
    1 -0.531270 0.273446 0.000000 -1.570795 -1.570787 0.000000
    2 1.293670 0.684478 -0.000001 -0.077035 -0.033917 0.171741
    3 5.309685 -0.003834 0.000000 -0.157714 0.053811 0.031735
    4 4.826790 -0.004591 0.000000 -0.097394 -0.053260 0.078855
    5 5.792767 -0.005304 0.000000 -0.097008 0.152839 0.212739
    6 6.662322 -0.001452 0.000000 0.000000 -0.000001 0.471000
    7 -3.108188 1.516823 4.339626 -0.000100 -1.370787 -3.613335
    8 4.827512 0.000000 -0.000002 -0.280607 0.051925 -1.393799
    9 11.140032 0.000000 0.000000 0.000000 0.000000 -1.308045
    10 10.314563 -0.000001 0.000001 -1.491562 -0.502645 0.003498
    11 1.646836 0.445664 -1.699647 0.153911 0.442352 0.277231
    12 0.928312 0.000000 0.000000 0.000000 0.000000 0.000000
    13 0.928313 0.000000 -0.000001 0.000000 0.000000 0.000000
    14 2.979373 -0.388274 -0.044205 -0.018183 -0.039656 0.411911
    15 1.435262 -0.000001 -0.000001 0.000000 0.000000 0.570828
    16 1.482593 -0.000001 0.000001 0.000000 0.000000 0.530452
    17 -2.869899 1.399667 -4.140396 0.000026 1.370769 -3.613362
    18 4.972047 0.000000 0.000000 0.221411 0.050730 -1.041642
    19 11.585358 0.000000 0.000001 0.000000 0.000000 -2.459852
    20 10.127058 0.000000 0.000001 -0.539787 -2.798909 -1.457926
    21 1.537458 0.109715 1.664489 -0.344506 -0.327833 0.740676
    22 0.928313 0.000000 0.000002 0.000000 0.000000 0.000000
    23 0.928311 0.000000 0.000001 0.000000 0.000000 0.000000
    24 2.686395 -0.427337 0.044204 0.001045 0.043611 0.000046
    25 1.435260 0.000000 0.000001 0.000000 0.000000 1.037923
    26 1.482593 0.000000 -0.000001 0.000000 0.000000 1.142584
    27 2.046984 0.000001 0.000000 0.509628 0.086062 -0.251353
    28 -0.000005 0.000007 3.713254 -3.290643 -0.162790 1.252299
    29 18.045723 0.000000 0.000000 0.000000 0.000000 -1.715167
    30 17.597597 0.000000 0.000000 -0.253913 0.197579 -0.179546
    31 0.000005 -0.000003 -3.713254 0.817292 2.311348 5.455399
    32 18.045721 0.000000 0.000000 0.000000 0.000000 -2.672981
    33 17.597597 0.000000 0.000000 0.405233 0.018056 0.737680
  time 8
    0 0.032216 2.293190 -20.600716 0.000000 0.000000 -1.585458
    1 -0.531270 0.273446 0.000000 -1.570795 -1.570787 0.000000
    2 1.293670 0.684478 -0.000001 -0.076176 -0.029447 0.176395
    3 5.309685 -0.003834 0.000000 -0.162105 0.057574 0.031117
    4 4.826790 -0.004591 0.000000 -0.108838 -0.051234 0.095898
    5 5.792767 -0.005304 0.000000 -0.104797 0.160126 0.231820
    6 6.662322 -0.001452 0.000000 0.000000 -0.000001 0.459778
    7 -3.119907 1.485572 4.339626 -0.000100 -1.370787 -3.602220
    8 4.827512 0.000000 -0.000002 -0.249358 0.035041 -1.339556
    9 11.140032 0.000000 0.000000 0.000000 0.000000 -1.343982
    10 10.314563 -0.000001 0.000001 -1.527671 -0.540395 0.043852
    11 1.646836 0.445664 -1.699647 0.153911 0.442352 0.277231
    12 0.928312 0.000000 0.000000 0.000000 0.000000 0.000000
    13 0.928313 0.000000 -0.000001 0.000000 0.000000 0.000000
    14 2.979373 -0.388274 -0.044205 -0.018183 -0.039656 0.411911
    15 1.435262 -0.000001 -0.000001 0.000000 0.000000 0.570828
    16 1.482593 -0.000001 0.000001 0.000000 0.000000 0.530452
    17 -2.877712 1.368416 -4.140396 -0.016310 1.353155 -3.618055
    18 4.972047 0.000000 0.000000 0.137086 0.014010 -1.066534
    19 11.585358 0.000000 0.000001 0.000000 0.000000 -2.495465
    20 10.127058 0.000000 0.000001 -0.544906 -2.744819 -1.399401
    21 1.537458 0.109715 1.664489 -0.344506 -0.327833 0.740676
    22 0.928313 0.000000 0.000002 0.000000 0.000000 0.000000
    23 0.928311 0.000000 0.000001 0.000000 0.000000 0.000000
    24 2.686395 -0.427337 0.044204 0.001045 0.043611 0.000046
    25 1.435260 0.000000 0.000001 0.000000 0.000000 1.037856
    26 1.482593 0.000000 -0.000001 0.000000 0.000000 1.142584
    27 2.046984 0.000001 0.000000 0.529575 0.054552 -0.228968
    28 -0.000005 0.000007 3.713254 -3.289780 -0.163078 1.251340
    29 18.045723 0.000000 0.000000 0.000000 0.000000 -1.721088
    30 17.597597 0.000000 0.000000 -0.253533 0.196939 -0.174732
    31 0.000005 -0.000003 -3.713254 0.818730 2.311540 5.467862
    32 18.045721 0.000000 0.000000 0.000000 0.000000 -2.673453
    33 17.597597 0.000000 0.000000 0.396878 0.023263 0.743731
  time 9
    0 0.032216 2.187718 -20.600716 0.000000 0.000000 -1.585458
    1 -0.531270 0.273446 0.000000 -1.570795 -1.570787 0.000000
    2 1.293670 0.684478 -0.000001 -0.074761 -0.023011 0.180898
    3 5.309685 -0.003834 0.000000 -0.167992 0.061397 0.034278
    4 4.826790 -0.004591 0.000000 -0.119882 -0.048226 0.127648
    5 5.792767 -0.005304 0.000000 -0.106290 0.170289 0.263130
    6 6.662322 -0.001452 0.000000 0.000000 -0.000001 0.465389
    7 -3.116000 1.505104 4.339626 -0.000100 -1.370787 -3.607777
    8 4.827512 0.000000 -0.000002 -0.230784 -0.012883 -1.288259
    9 11.140032 0.000000 0.000000 0.000000 0.000000 -1.379992
    10 10.314563 -0.000001 0.000001 -1.565203 -0.578051 0.085716
    11 1.646836 0.445664 -1.699647 0.153911 0.442352 0.277231
    12 0.928312 0.000000 0.000000 0.000000 0.000000 0.000000
    13 0.928313 0.000000 -0.000001 0.000000 0.000000 0.000000
    14 2.979373 -0.388274 -0.044205 -0.018183 -0.039656 0.411911
    15 1.435262 -0.000001 -0.000001 0.000000 0.000000 0.570828
    16 1.482593 -0.000001 0.000001 0.000000 0.000000 0.530452
    17 -2.877712 1.384042 -4.140396 -0.008476 1.361988 -3.615948
    18 4.972047 0.000000 0.000000 0.163350 0.073710 -1.066534
    19 11.585358 0.000000 0.000001 0.000000 0.000000 -2.501509
    20 10.127058 0.000000 0.000001 -0.569660 -2.724487 -1.395399
    21 1.537458 0.109715 1.664489 -0.344506 -0.327833 0.740676
    22 0.928313 0.000000 0.000002 0.000000 0.000000 0.000000
    23 0.928311 0.000000 0.000001 0.000000 0.000000 0.000000
    24 2.686395 -0.427337 0.044204 0.001045 0.043611 0.000046
    25 1.435260 0.000000 0.000001 0.000000 0.000000 1.037923
    26 1.482593 0.000000 -0.000001 0.000000 0.000000 1.142584
    27 2.046984 0.000001 0.000000 0.529101 -0.003924 -0.254759
    28 -0.000005 0.000007 3.713254 -3.289300 -0.164037 1.250286
    29 18.045723 0.000000 0.000000 0.000000 0.000000 -1.727528
    30 17.597597 0.000000 0.000000 -0.252697 0.196890 -0.169185
    31 0.000005 -0.000003 -3.713254 0.820167 2.311827 5.481667
    32 18.045721 0.000000 0.000000 0.000000 0.000000 -2.673532
    33 17.597597 0.000000 0.000000 0.387618 0.029120 0.750289
  time 10
    0 0.020497 2.105684 -20.600716 0.000000 0.000000 -1.585458
    1 -0.531270 0.273446 0.000000 -1.570795 -1.570787 0.000000
    2 1.293670 0.684478 -0.000001 -0.073699 -0.018158 0.185502
    3 5.309685 -0.003834 0.000000 -0.170766 0.066610 0.038518
    4 4.826790 -0.004591 0.000000 -0.126291 -0.043959 0.160874
    5 5.792767 -0.005304 0.000000 -0.101703 0.182058 0.298697
    6 6.662322 -0.001452 0.000000 0.000000 -0.000001 0.471000
    7 -3.108188 1.516823 4.339626 -0.000100 -1.370787 -3.613335
    8 4.827512 0.000000 -0.000002 -0.220899 -0.066264 -1.244241
    9 11.140032 0.000000 0.000000 0.000000 0.000000 -1.415928
    10 10.314563 -0.000001 0.000001 -1.604061 -0.615427 0.129147
    11 1.646836 0.445664 -1.699647 0.153911 0.442352 0.277231
    12 0.928312 0.000000 0.000000 0.000000 0.000000 0.000000
    13 0.928313 0.000000 -0.000001 0.000000 0.000000 0.000000
    14 2.979373 -0.388274 -0.044205 -0.018183 -0.039656 0.411911
    15 1.435262 -0.000001 -0.000001 0.000000 0.000000 0.570828
    16 1.482593 -0.000001 0.000001 0.000000 0.000000 0.530452
    17 -2.869899 1.399667 -4.140396 0.000026 1.370769 -3.613362
    18 4.972047 0.000000 0.000000 0.199744 0.138632 -1.054088
    19 11.585358 0.000000 0.000001 0.000000 0.000000 -2.507717
    20 10.127058 0.000000 0.000001 -0.596237 -2.705385 -1.389797
    21 1.537458 0.109715 1.664489 -0.344506 -0.327833 0.740676
    22 0.928313 0.000000 0.000002 0.000000 0.000000 0.000000
    23 0.928311 0.000000 0.000001 0.000000 0.000000 0.000000
    24 2.686395 -0.427337 0.044204 0.001045 0.043611 0.000046
    25 1.435260 0.000000 0.000001 0.000000 0.000000 1.037923
    26 1.482593 0.000000 -0.000001 0.000000 0.000000 1.142584
    27 2.046984 0.000001 0.000000 0.513462 -0.057650 -0.288580
    28 -0.000005 0.000007 3.713254 -3.289300 -0.165475 1.249615
    29 18.045723 0.000000 0.000000 0.000000 0.000000 -1.732931
    30 17.597597 0.000000 0.000000 -0.251405 0.197505 -0.164508
    31 0.000005 -0.000003 -3.713254 0.821892 2.312307 5.493555
    32 18.045721 0.000000 0.000000 0.000000 0.000000 -2.673768
    33 17.597597 0.000000 0.000000 0.379969 0.033854 0.755924
end
