version 1
nodes
  0 "Bip01" -1
  1 "Bip01 Pelvis" 0
  2 "Bip01 Spine" 1
  3 "Bip01 Spine1" 2
  4 "Bip01 Spine2" 3
  5 "Bip01 Spine3" 4
  6 "Bip01 Neck" 5
  7 "Bip01 L Arm" 6
  8 "Bip01 L Arm1" 7
  9 "Bip01 L Arm2" 8
  10 "Bip01 L Hand" 9
  11 "Bip01 L Finger0" 10
  12 "Bip01 L Finger01" 11
  13 "Bip01 L Finger02" 12
  14 "Bip01 L Finger1" 10
  15 "Bip01 L Finger11" 14
  16 "Bip01 L Finger12" 15
  17 "Bip01 R Arm" 6
  18 "Bip01 R Arm1" 17
  19 "Bip01 R Arm2" 18
  20 "Bip01 R Hand" 19
  21 "Bip01 R Finger0" 20
  22 "Bip01 R Finger01" 21
  23 "Bip01 R Finger02" 22
  24 "Bip01 R Finger1" 20
  25 "Bip01 R Finger11" 24
  26 "Bip01 R Finger12" 25
  27 "Bip01 Head" 6
  28 "Bip01 L Leg" 1
  29 "Bip01 L Leg1" 28
  30 "Bip01 L Foot" 29
  31 "Bip01 R Leg" 1
  32 "Bip01 R Leg1" 31
  33 "Bip01 R Foot" 32
end
skeleton
  time 0
    0 -0.073256 -1.296764 -20.600716 0.000000 0.000000 -1.585458
    1 -3.757931 0.242195 0.000000 -1.570795 -1.570787 0.000000
    2 1.293670 0.684478 -0.000001 -0.000004 -0.000001 0.326143
    3 5.309685 -0.003834 0.000000 0.000000 0.000000 0.075488
    4 4.826790 -0.004591 0.000000 -0.167282 0.049484 0.188258
    5 5.792767 -0.005304 0.000000 -0.191030 0.036373 0.237426
    6 6.662322 -0.001452 0.000000 0.000000 -0.000001 0.471000
    7 -3.108188 1.516823 4.339626 1.021694 -1.200350 -4.603233
    8 4.827512 0.000000 -0.000002 -0.134407 0.361469 -1.236269
    9 11.140032 0.000000 0.000000 0.000000 0.000000 -0.683497
    10 10.314563 -0.000001 0.000001 -3.935369 0.130485 -0.152576
    11 1.646836 0.445664 -1.699647 -0.161704 0.581044 -0.283978
    12 0.928312 0.000000 0.000000 0.000000 0.000000 0.000000
    13 0.928313 0.000000 -0.000001 0.000000 0.000000 0.000000
    14 2.979373 -0.388274 -0.044205 -0.000805 -0.043611 0.000046
    15 1.435262 -0.000001 -0.000001 0.000000 0.000000 0.706400
    16 1.482593 -0.000001 0.000001 0.000000 0.000000 0.732610
    17 -2.869899 1.399667 -4.140396 0.820358 1.281881 -2.814267
    18 4.972047 0.000000 0.000000 -0.112043 -1.067815 -0.694822
    19 11.585358 0.000000 0.000001 0.000000 0.000000 -1.695819
    20 10.127058 0.000000 0.000001 1.766029 0.320667 0.209342
    21 1.537458 0.109715 1.664489 -0.264662 -0.055995 0.783079
    22 0.928313 0.000000 0.000002 0.000000 0.000000 -0.453501
    23 0.928311 0.000000 0.000001 0.000000 0.000000 0.000000
    24 2.686395 -0.427337 0.044204 -0.005762 0.043239 -0.157074
    25 1.435260 0.000000 0.000001 0.000000 0.000000 0.732613
    26 1.482593 0.000000 -0.000001 0.000000 0.000000 1.168644
    27 2.046984 0.000001 0.000000 0.321054 -0.173451 -0.345455
    28 -0.000005 0.000007 3.713254 -3.285753 -0.168639 1.247314
    29 18.045723 0.000000 0.000000 0.000000 0.000000 -1.745217
    30 17.597597 0.000000 0.000000 -0.247756 0.195364 -0.154009
    31 0.000005 -0.000003 -3.713254 0.823905 2.323907 5.517523
    32 18.045721 0.000000 0.000000 0.000000 0.000000 -2.672902
    33 17.597597 0.000000 0.000000 0.371010 0.047148 0.774307
  time 1
    0 -0.073256 -1.296764 -20.600716 0.000000 0.000000 -1.585458
    1 -3.730587 0.238289 0.000000 -1.570795 -1.570787 0.000000
    2 1.293670 0.684478 -0.000001 -0.000004 -0.000001 0.326143
    3 5.309685 -0.003834 0.000000 -0.000306 0.001666 0.081158
    4 4.826790 -0.004591 0.000000 -0.166080 0.047555 0.173817
    5 5.792767 -0.005304 0.000000 -0.191318 0.033317 0.220255
    6 6.662322 -0.001452 0.000000 0.000000 -0.000001 0.471000
    7 -3.108188 1.516823 4.339626 1.021694 -1.200350 -4.603233
    8 4.827512 0.000000 -0.000002 -0.138313 0.390120 -1.242334
    9 11.140032 0.000000 0.000000 0.000000 0.000000 -0.664080
    10 10.314563 -0.000001 0.000001 -3.933283 0.127207 -0.165002
    11 1.646836 0.445664 -1.699647 -0.161704 0.581044 -0.283978
    12 0.928312 0.000000 0.000000 0.000000 0.000000 0.000000
    13 0.928313 0.000000 -0.000001 0.000000 0.000000 0.000000
    14 2.979373 -0.388274 -0.044205 -0.000805 -0.043611 0.000046
    15 1.435262 -0.000001 -0.000001 0.000000 0.000000 0.706400
    16 1.482593 -0.000001 0.000001 0.000000 0.000000 0.732610
    17 -2.869899 1.399667 -4.140396 0.816346 1.280777 -2.818386
    18 4.972047 0.000000 0.000000 -0.161662 -1.074966 -0.644040
    19 11.585358 0.000000 0.000001 0.000000 0.000000 -1.695737
    20 10.127058 0.000000 0.000001 1.766169 0.320383 0.209842
    21 1.537458 0.109715 1.664489 -0.264662 -0.055995 0.783079
    22 0.928313 0.000000 0.000002 0.000000 0.000000 -0.453501
    23 0.928311 0.000000 0.000001 0.000000 0.000000 0.000000
    24 2.686395 -0.427337 0.044204 -0.005762 0.043239 -0.157074
    25 1.435260 0.000000 0.000001 0.000000 0.000000 0.732613
    26 1.482593 0.000000 -0.000001 0.000000 0.000000 1.168644
    27 2.046984 0.000001 0.000000 0.318124 -0.175782 -0.319237
    28 -0.000005 0.000007 3.713254 -3.285561 -0.168830 1.247122
    29 18.045723 0.000000 0.000000 0.000000 0.000000 -1.746549
    30 17.597597 0.000000 0.000000 -0.247528 0.195290 -0.152909
    31 0.000005 -0.000003 -3.713254 0.823617 2.324674 5.519728
    32 18.045721 0.000000 0.000000 0.000000 0.000000 -2.672902
    33 17.597597 0.000000 0.000000 0.369836 0.048805 0.775878
  time 2
    0 -0.073256 -1.296764 -20.600716 0.000000 0.000000 -1.585458
    1 -3.707148 0.230476 0.000000 -1.570795 -1.570787 0.000000
    2 1.293670 0.684478 -0.000001 -0.000004 -0.000001 0.326143
    3 5.309685 -0.003834 0.000000 -0.000613 0.003464 0.087199
    4 4.826790 -0.004591 0.000000 -0.164745 0.045470 0.158273
    5 5.792767 -0.005304 0.000000 -0.191605 0.030093 0.202482
    6 6.662322 -0.001452 0.000000 0.000000 -0.000001 0.471000
    7 -3.108188 1.516823 4.339626 1.021694 -1.200350 -4.603233
    8 4.827512 0.000000 -0.000002 -0.143574 0.420137 -1.250393
    9 11.140032 0.000000 0.000000 0.000000 0.000000 -0.642344
    10 10.314563 -0.000001 0.000001 -3.931293 0.123366 -0.178531
    11 1.646836 0.445664 -1.699647 -0.161704 0.581044 -0.283978
    12 0.928312 0.000000 0.000000 0.000000 0.000000 0.000000
    13 0.928313 0.000000 -0.000001 0.000000 0.000000 0.000000
    14 2.979373 -0.388274 -0.044205 -0.000805 -0.043611 0.000046
    15 1.435262 -0.000001 -0.000001 0.000000 0.000000 0.706400
    16 1.482593 -0.000001 0.000001 0.000000 0.000000 0.732610
    17 -2.869899 1.399667 -4.140396 0.820358 1.281881 -2.814267
    18 4.972047 0.000000 0.000000 -0.214283 -1.083563 -0.589731
    19 11.585358 0.000000 0.000001 0.000000 0.000000 -1.695819
    20 10.127058 0.000000 0.000001 1.766029 0.320667 0.209342
    21 1.537458 0.109715 1.664489 -0.264662 -0.055995 0.783079
    22 0.928313 0.000000 0.000002 0.000000 0.000000 -0.453501
    23 0.928311 0.000000 0.000001 0.000000 0.000000 0.000000
    24 2.686395 -0.427337 0.044204 -0.005762 0.043239 -0.157074
    25 1.435260 0.000000 0.000001 0.000000 0.000000 0.732613
    26 1.482593 0.000000 -0.000001 0.000000 0.000000 1.168644
    27 2.046984 0.000001 0.000000 0.315195 -0.178201 -0.291804
    28 -0.000005 0.000007 3.713254 -3.285369 -0.169022 1.246835
    29 18.045723 0.000000 0.000000 0.000000 0.000000 -1.748030
    30 17.597597 0.000000 0.000000 -0.247325 0.195118 -0.151625
    31 0.000005 -0.000003 -3.713254 0.823330 2.325536 5.522220
    32 18.045721 0.000000 0.000000 0.000000 0.000000 -2.672744
    33 17.597597 0.000000 0.000000 0.368494 0.050659 0.777448
  time 3
    0 -0.073256 -1.296764 -20.600716 0.000000 0.000000 -1.585458
    1 -3.687617 0.230476 0.000000 -1.570795 -1.570787 0.000000
    2 1.293670 0.684478 -0.000001 -0.000004 -0.000001 0.326143
    3 5.309685 -0.003834 0.000000 -0.000919 0.005225 0.093240
    4 4.826790 -0.004591 0.000000 -0.163429 0.043456 0.143258
    5 5.792767 -0.005304 0.000000 -0.191821 0.026953 0.185000
    6 6.662322 -0.001452 0.000000 0.002289 0.003353 0.512868
    7 -3.057405 1.653546 4.331813 1.012876 -1.197807 -4.636961
    8 4.827512 0.000000 -0.000002 -0.149792 0.449812 -1.260531
    9 11.140032 0.000000 0.000000 0.000000 0.000000 -0.620753
    10 10.314563 -0.000001 0.000001 -3.929492 0.119057 -0.191479
    11 1.646836 0.445664 -1.699647 -0.161704 0.581044 -0.283978
    12 0.928312 0.000000 0.000000 0.000000 0.000000 0.000000
    13 0.928313 0.000000 -0.000001 0.000000 0.000000 0.000000
    14 2.979373 -0.388274 -0.044205 -0.000805 -0.043611 0.000046
    15 1.435262 -0.000001 -0.000001 0.000000 0.000000 0.706400
    16 1.482593 -0.000001 0.000001 0.000000 0.000000 0.732610
    17 -2.799584 1.501233 -4.148209 0.851501 1.289637 -2.824707
    18 4.972047 0.000000 0.000000 -0.265497 -1.095535 -0.535755
    19 11.585358 0.000000 0.000001 0.000000 0.000000 -1.696064
    20 10.127058 0.000000 0.000001 1.765187 0.321518 0.206991
    21 1.537458 0.109715 1.664489 -0.264662 -0.055995 0.783079
    22 0.928313 0.000000 0.000002 0.000000 0.000000 -0.453501
    23 0.928311 0.000000 0.000001 0.000000 0.000000 0.000000
    24 2.686395 -0.427337 0.044204 -0.005762 0.043239 -0.157074
    25 1.435260 0.000000 0.000001 0.000000 0.000000 0.732613
    26 1.482593 0.000000 -0.000001 0.000000 0.000000 1.168644
    27 2.046984 0.000001 0.000000 0.310714 -0.180650 -0.315648
    28 -0.000005 0.000007 3.713254 -3.285082 -0.169214 1.246643
    29 18.045723 0.000000 0.000000 0.000000 0.000000 -1.749436
    30 17.597597 0.000000 0.000000 -0.247122 0.194970 -0.150433
    31 0.000005 -0.000003 -3.713254 0.822755 2.326303 5.524521
    32 18.045721 0.000000 0.000000 0.000000 0.000000 -2.672744
    33 17.597597 0.000000 0.000000 0.367219 0.052453 0.779065
  time 4
    0 -0.073256 -1.296764 -20.600716 0.000000 0.000000 -1.585458
    1 -3.668085 0.230476 0.000000 -1.570795 -1.570787 0.000000
    2 1.293670 0.684478 -0.000001 -0.000004 -0.000001 0.326143
    3 5.309685 -0.003834 0.000000 -0.001225 0.006903 0.098910
    4 4.826790 -0.004591 0.000000 -0.162304 0.041766 0.130426
    5 5.792767 -0.005304 0.000000 -0.191965 0.024137 0.168805
    6 6.662322 -0.001452 0.000000 0.004770 0.006624 0.554821
    7 -3.006622 1.790269 4.312281 1.003865 -1.195323 -4.670402
    8 4.827512 0.000000 -0.000002 -0.156329 0.476332 -1.270409
    9 11.140032 0.000000 0.000000 0.000000 0.000000 -0.601408
    10 10.314563 -0.000001 0.000001 -3.927976 0.114842 -0.202859
    11 1.646836 0.445664 -1.699647 -0.161704 0.581044 -0.283978
    12 0.928312 0.000000 0.000000 0.000000 0.000000 0.000000
    13 0.928313 0.000000 -0.000001 0.000000 0.000000 0.000000
    14 2.979373 -0.388274 -0.044205 -0.000805 -0.043611 0.000046
    15 1.435262 -0.000001 -0.000001 0.000000 0.000000 0.706400
    16 1.482593 -0.000001 0.000001 0.000000 0.000000 0.732610
    17 -2.725363 1.606705 -4.163834 0.888854 1.298365 -2.828539
    18 4.972047 0.000000 0.000000 -0.312772 -1.107106 -0.485838
    19 11.585358 0.000000 0.000001 0.000000 0.000000 -1.696391
    20 10.127058 0.000000 0.000001 1.764206 0.322747 0.204040
    21 1.537458 0.109715 1.664489 -0.264662 -0.055995 0.783079
    22 0.928313 0.000000 0.000002 0.000000 0.000000 -0.453501
    23 0.928311 0.000000 0.000001 0.000000 0.000000 0.000000
    24 2.686395 -0.427337 0.044204 -0.005762 0.043239 -0.157074
    25 1.435260 0.000000 0.000001 0.000000 0.000000 0.732613
    26 1.482593 0.000000 -0.000001 0.000000 0.000000 1.168644
    27 2.046984 0.000001 0.000000 0.306664 -0.182833 -0.342839
    28 -0.000005 0.000007 3.713254 -3.284890 -0.169310 1.246451
    29 18.045723 0.000000 0.000000 0.000000 0.000000 -1.750694
    30 17.597597 0.000000 0.000000 -0.246970 0.194872 -0.149379
    31 0.000005 -0.000003 -3.713254 0.822467 2.326879 5.526438
    32 18.045721 0.000000 0.000000 0.000000 0.000000 -2.672744
    33 17.597597 0.000000 0.000000 0.366145 0.053972 0.780265
  time 5
    0 -0.073256 -1.296764 -20.600716 0.000000 0.000000 -1.585458
    1 -3.656366 0.230476 0.000000 -1.570795 -1.570787 0.000000
    2 1.293670 0.684478 -0.000001 -0.000004 -0.000001 0.326143
    3 5.309685 -0.003834 0.000000 -0.001463 0.008341 0.103732
    4 4.826790 -0.004591 0.000000 -0.161445 0.040592 0.121298
    5 5.792767 -0.005304 0.000000 -0.192001 0.021836 0.154727
    6 6.662322 -0.001452 0.000000 0.007359 0.009840 0.596774
    7 -2.940214 1.919179 4.300562 0.994664 -1.192987 -4.703746
    8 4.827512 0.000000 -0.000002 -0.161909 0.497309 -1.278814
    9 11.140032 0.000000 0.000000 0.000000 0.000000 -0.587134
    10 10.314563 -0.000001 0.000001 -3.926839 0.111283 -0.211162
    11 1.646836 0.445664 -1.699647 -0.161704 0.581044 -0.283978
    12 0.928312 0.000000 0.000000 0.000000 0.000000 0.000000
    13 0.928313 0.000000 -0.000001 0.000000 0.000000 0.000000
    14 2.979373 -0.388274 -0.044205 -0.000805 -0.043611 0.000046
    15 1.435262 -0.000001 -0.000001 0.000000 0.000000 0.706400
    16 1.482593 -0.000001 0.000001 0.000000 0.000000 0.732610
    17 -2.639423 1.712177 -4.171647 0.930697 1.307251 -2.828060
    18 4.972047 0.000000 0.000000 -0.351135 -1.117632 -0.445373
    19 11.585358 0.000000 0.000001 0.000000 0.000000 -1.696717
    20 10.127058 0.000000 0.000001 1.763014 0.323882 0.200889
    21 1.537458 0.109715 1.664489 -0.264662 -0.055995 0.783079
    22 0.928313 0.000000 0.000002 0.000000 0.000000 -0.453501
    23 0.928311 0.000000 0.000001 0.000000 0.000000 0.000000
    24 2.686395 -0.427337 0.044204 -0.005762 0.043239 -0.157074
    25 1.435260 0.000000 0.000001 0.000000 0.000000 0.732613
    26 1.482593 0.000000 -0.000001 0.000000 0.000000 1.168644
    27 2.046984 0.000001 0.000000 0.303433 -0.184633 -0.375139
    28 -0.000005 0.000007 3.713254 -3.284794 -0.169406 1.246355
    29 18.045723 0.000000 0.000000 0.000000 0.000000 -1.751434
    30 17.597597 0.000000 0.000000 -0.246894 0.194823 -0.148783
    31 0.000005 -0.000003 -3.713254 0.822180 2.327166 5.527493
    32 18.045721 0.000000 0.000000 0.000000 0.000000 -2.672744
    33 17.597597 0.000000 0.000000 0.365474 0.054939 0.781005
  time 6
    0 -0.073256 -1.296764 -20.600716 0.000000 0.000000 -1.585458
    1 -3.648553 0.218757 0.000000 -1.570795 -1.570787 0.000000
    2 1.293670 0.684478 -0.000001 -0.000004 -0.000001 0.326143
    3 5.309685 -0.003834 0.000000 -0.001634 0.009456 0.107371
    4 4.826790 -0.004591 0.000000 -0.160949 0.039897 0.115940
    5 5.792767 -0.005304 0.000000 -0.191929 0.019954 0.141232
    6 6.662322 -0.001452 0.000000 0.010055 0.012905 0.638670
    7 -2.869899 2.055902 4.288843 0.985270 -1.190799 -4.737091
    8 4.827512 0.000000 -0.000002 -0.166772 0.515132 -1.285486
    9 11.140032 0.000000 0.000000 0.000000 0.000000 -0.576411
    10 10.314563 -0.000001 0.000001 -3.925891 0.108098 -0.217317
    11 1.646836 0.445664 -1.699647 -0.161704 0.581044 -0.283978
    12 0.928312 0.000000 0.000000 0.000000 0.000000 0.000000
    13 0.928313 0.000000 -0.000001 0.000000 0.000000 0.000000
    14 2.979373 -0.388274 -0.044205 -0.000805 -0.043611 0.000046
    15 1.435262 -0.000001 -0.000001 0.000000 0.000000 0.706400
    16 1.482593 -0.000001 0.000001 0.000000 0.000000 0.732610
    17 -2.549577 1.805929 -4.187273 0.973687 1.315586 -2.826336
    18 4.972047 0.000000 0.000000 -0.384715 -1.126791 -0.410165
    19 11.585358 0.000000 0.000001 0.000000 0.000000 -1.697044
    20 10.127058 0.000000 0.000001 1.762032 0.325112 0.197837
    21 1.537458 0.109715 1.664489 -0.264662 -0.055995 0.783079
    22 0.928313 0.000000 0.000002 0.000000 0.000000 -0.453501
    23 0.928311 0.000000 0.000001 0.000000 0.000000 0.000000
    24 2.686395 -0.427337 0.044204 -0.005762 0.043239 -0.157074
    25 1.435260 0.000000 0.000001 0.000000 0.000000 0.732613
    26 1.482593 0.000000 -0.000001 0.000000 0.000000 1.168644
    27 2.046984 0.000001 0.000000 0.300848 -0.186285 -0.410663
    28 -0.000005 0.000007 3.713254 -3.284698 -0.169406 1.246260
    29 18.045723 0.000000 0.000000 0.000000 0.000000 -1.751878
    30 17.597597 0.000000 0.000000 -0.246818 0.194798 -0.148324
    31 0.000005 -0.000003 -3.713254 0.821892 2.327454 5.528260
    32 18.045721 0.000000 0.000000 0.000000 0.000000 -2.672744
    33 17.597597 0.000000 0.000000 0.365005 0.055570 0.781466
  time 7
    0 -0.073256 -1.296764 -20.600716 0.000000 0.000000 -1.585458
    1 -3.644646 0.218757 0.000000 -1.570795 -1.570787 0.000000
    2 1.293670 0.684478 -0.000001 -0.000004 -0.000001 0.326143
    3 5.309685 -0.003834 0.000000 -0.001770 0.010187 0.109879
    4 4.826790 -0.004591 0.000000 -0.160701 0.039525 0.113294
    5 5.792767 -0.005304 0.000000 -0.191767 0.018576 0.128816
    6 6.662322 -0.001452 0.000000 0.012907 0.015846 0.680680
    7 -2.799584 2.180906 4.269311 0.975876 -1.188670 -4.770149
    8 4.827512 0.000000 -0.000002 -0.170837 0.529799 -1.290859
    9 11.140032 0.000000 0.000000 0.000000 0.000000 -0.568007
    10 10.314563 -0.000001 0.000001 -3.925038 0.105381 -0.222136
    11 1.646836 0.445664 -1.699647 -0.161704 0.581044 -0.283978
    12 0.928312 0.000000 0.000000 0.000000 0.000000 0.000000
    13 0.928313 0.000000 -0.000001 0.000000 0.000000 0.000000
    14 2.979373 -0.388274 -0.044205 -0.000805 -0.043611 0.000046
    15 1.435262 -0.000001 -0.000001 0.000000 0.000000 0.706400
    16 1.482593 -0.000001 0.000001 0.000000 0.000000 0.732610
    17 -2.455824 1.903589 -4.202898 1.014383 1.322815 -2.827102
    18 4.972047 0.000000 0.000000 -0.413793 -1.134264 -0.380082
    19 11.585358 0.000000 0.000001 0.000000 0.000000 -1.697289
    20 10.127058 0.000000 0.000001 1.761120 0.326057 0.195236
    21 1.537458 0.109715 1.664489 -0.264662 -0.055995 0.783079
    22 0.928313 0.000000 0.000002 0.000000 0.000000 -0.453501
    23 0.928311 0.000000 0.000001 0.000000 0.000000 0.000000
    24 2.686395 -0.427337 0.044204 -0.005762 0.043239 -0.157074
    25 1.435260 0.000000 0.000001 0.000000 0.000000 0.732613
    26 1.482593 0.000000 -0.000001 0.000000 0.000000 1.168644
    27 2.046984 0.000001 0.000000 0.298780 -0.187760 -0.448803
    28 -0.000005 0.000007 3.713254 -3.284698 -0.169502 1.246260
    29 18.045723 0.000000 0.000000 0.000000 0.000000 -1.752248
    30 17.597597 0.000000 0.000000 -0.246768 0.194749 -0.148095
    31 0.000005 -0.000003 -3.713254 0.821892 2.327646 5.528835
    32 18.045721 0.000000 0.000000 0.000000 0.000000 -2.672744
    33 17.597597 0.000000 0.000000 0.364669 0.056004 0.781790
  time 8
    0 -0.073256 -1.296764 -20.600716 0.000000 0.000000 -1.585458
    1 -3.644646 0.218757 0.000000 -1.570795 -1.570787 0.000000
    2 1.293670 0.684478 -0.000001 -0.000004 -0.000001 0.326143
    3 5.309685 -0.003834 0.000000 -0.001804 0.010618 0.111362
    4 4.826790 -0.004591 0.000000 -0.160701 0.039525 0.113294
    5 5.792767 -0.005304 0.000000 -0.191587 0.018073 0.121611
    6 6.662322 -0.001452 0.000000 0.012907 0.015846 0.680680
    7 -2.799584 2.180906 4.269311 0.975876 -1.188670 -4.770149
    8 4.827512 0.000000 -0.000002 -0.172910 0.536962 -1.293371
    9 11.140032 0.000000 0.000000 0.000000 0.000000 -0.564891
    10 10.314563 -0.000001 0.000001 -3.924754 0.103695 -0.223878
    11 1.646836 0.445664 -1.699647 -0.161704 0.581044 -0.283978
    12 0.928312 0.000000 0.000000 0.000000 0.000000 0.000000
    13 0.928313 0.000000 -0.000001 0.000000 0.000000 0.000000
    14 2.979373 -0.388274 -0.044205 -0.000805 -0.043611 0.000046
    15 1.435262 -0.000001 -0.000001 0.000000 0.000000 0.706400
    16 1.482593 -0.000001 0.000001 0.000000 0.000000 0.732610
    17 -2.455824 1.903589 -4.202898 1.034540 1.325918 -2.806126
    18 4.972047 0.000000 0.000000 -0.427394 -1.139165 -0.365906
    19 11.585358 0.000000 0.000001 0.000000 0.000000 -1.697453
    20 10.127058 0.000000 0.000001 1.760419 0.326814 0.193385
    21 1.537458 0.109715 1.664489 -0.264662 -0.055995 0.783079
    22 0.928313 0.000000 0.000002 0.000000 0.000000 -0.453501
    23 0.928311 0.000000 0.000001 0.000000 0.000000 0.000000
    24 2.686395 -0.427337 0.044204 -0.005762 0.043239 -0.157074
    25 1.435260 0.000000 0.000001 0.000000 0.000000 0.732613
    26 1.482593 0.000000 -0.000001 0.000000 0.000000 1.168644
    27 2.046984 0.000001 0.000000 0.298565 -0.192156 -0.433839
    28 -0.000005 0.000007 3.713254 -3.284698 -0.169406 1.246260
    29 18.045723 0.000000 0.000000 0.000000 0.000000 -1.752174
    30 17.597597 0.000000 0.000000 -0.246818 0.194749 -0.148095
    31 0.000005 -0.000003 -3.713254 0.821892 2.327550 5.528739
    32 18.045721 0.000000 0.000000 0.000000 0.000000 -2.672744
    33 17.597597 0.000000 0.000000 0.364703 0.055905 0.781697
  time 9
    0 -0.073256 -1.296764 -20.600716 0.000000 0.000000 -1.585458
    1 -3.656366 0.230476 0.000000 -1.570795 -1.570787 0.000000
    2 1.293670 0.684478 -0.000001 -0.000004 -0.000001 0.326143
    3 5.309685 -0.003834 0.000000 -0.001838 0.010690 0.111627
    4 4.826790 -0.004591 0.000000 -0.160949 0.039897 0.115940
    5 5.792767 -0.005304 0.000000 -0.191515 0.018792 0.123729
    6 6.662322 -0.001452 0.000000 0.012907 0.015846 0.680680
    7 -2.799584 2.180906 4.269311 0.975876 -1.188670 -4.770149
    8 4.827512 0.000000 -0.000002 -0.171634 0.531931 -1.292505
    9 11.140032 0.000000 0.000000 0.000000 0.000000 -0.569601
    10 10.314563 -0.000001 0.000001 -3.925038 0.103789 -0.220801
    11 1.646836 0.445664 -1.699647 -0.161704 0.581044 -0.283978
    12 0.928312 0.000000 0.000000 0.000000 0.000000 0.000000
    13 0.928313 0.000000 -0.000001 0.000000 0.000000 0.000000
    14 2.979373 -0.388274 -0.044205 -0.000805 -0.043611 0.000046
    15 1.435262 -0.000001 -0.000001 0.000000 0.000000 0.706400
    16 1.482593 -0.000001 0.000001 0.000000 0.000000 0.732610
    17 -2.455824 1.903589 -4.202898 1.047437 1.327784 -2.792813
    18 4.972047 0.000000 0.000000 -0.415575 -1.141576 -0.377287
    19 11.585358 0.000000 0.000001 0.000000 0.000000 -1.697616
    20 10.127058 0.000000 0.000001 1.760068 0.327286 0.192285
    21 1.537458 0.109715 1.664489 -0.264662 -0.055995 0.783079
    22 0.928313 0.000000 0.000002 0.000000 0.000000 -0.453501
    23 0.928311 0.000000 0.000001 0.000000 0.000000 0.000000
    24 2.686395 -0.427337 0.044204 -0.005762 0.043239 -0.157074
    25 1.435260 0.000000 0.000001 0.000000 0.000000 0.732613
    26 1.482593 0.000000 -0.000001 0.000000 0.000000 1.168644
    27 2.046984 0.000001 0.000000 0.299254 -0.195726 -0.430189
    28 -0.000005 0.000007 3.713254 -3.284794 -0.169310 1.246355
    29 18.045723 0.000000 0.000000 0.000000 0.000000 -1.751582
    30 17.597597 0.000000 0.000000 -0.246970 0.194823 -0.148645
    31 0.000005 -0.000003 -3.713254 0.821892 2.326974 5.527589
    32 18.045721 0.000000 0.000000 0.000000 0.000000 -2.672744
    33 17.597597 0.000000 0.000000 0.365172 0.055156 0.780912
  time 10
    0 -0.073256 -1.296764 -20.600716 0.000000 0.000000 -1.585458
    1 -3.675897 0.230476 0.000000 -1.570795 -1.570787 0.000000
    2 1.293670 0.684478 -0.000001 -0.000004 -0.000001 0.326143
    3 5.309685 -0.003834 0.000000 -0.001770 0.010343 0.110409
    4 4.826790 -0.004591 0.000000 -0.161445 0.040592 0.121298
    5 5.792767 -0.005304 0.000000 -0.191533 0.020853 0.136498
    6 6.662322 -0.001452 0.000000 0.012907 0.015846 0.680680
    7 -2.799584 2.180906 4.269311 0.975876 -1.188670 -4.770149
    8 4.827512 0.000000 -0.000002 -0.167330 0.514279 -1.288346
    9 11.140032 0.000000 0.000000 0.000000 0.000000 -0.582425
    10 10.314563 -0.000001 0.000001 -3.926270 0.105475 -0.212730
    11 1.646836 0.445664 -1.699647 -0.161704 0.581044 -0.283978
    12 0.928312 0.000000 0.000000 0.000000 0.000000 0.000000
    13 0.928313 0.000000 -0.000001 0.000000 0.000000 0.000000
    14 2.979373 -0.388274 -0.044205 -0.000805 -0.043611 0.000046
    15 1.435262 -0.000001 -0.000001 0.000000 0.000000 0.706400
    16 1.482593 -0.000001 0.000001 0.000000 0.000000 0.732610
    17 -2.455824 1.903589 -4.202898 1.056131 1.329046 -2.784097
    18 4.972047 0.000000 0.000000 -0.375898 -1.141736 -0.416288
    19 11.585358 0.000000 0.000001 0.000000 0.000000 -1.697616
    20 10.127058 0.000000 0.000001 1.759788 0.327476 0.191535
    21 1.537458 0.109715 1.664489 -0.264662 -0.055995 0.783079
    22 0.928313 0.000000 0.000002 0.000000 0.000000 -0.453501
    23 0.928311 0.000000 0.000001 0.000000 0.000000 0.000000
    24 2.686395 -0.427337 0.044204 -0.005762 0.043239 -0.157074
    25 1.435260 0.000000 0.000001 0.000000 0.000000 0.732613
    26 1.482593 0.000000 -0.000001 0.000000 0.000000 1.168644
    27 2.046984 0.000001 0.000000 0.301150 -0.198470 -0.438157
    28 -0.000005 0.000007 3.713254 -3.285082 -0.169022 1.246547
    29 18.045723 0.000000 0.000000 0.000000 0.000000 -1.750398
    30 17.597597 0.000000 0.000000 -0.247249 0.194946 -0.149700
    31 0.000005 -0.000003 -3.713254 0.821892 2.326112 5.525480
    32 18.045721 0.000000 0.000000 0.000000 0.000000 -2.672902
    33 17.597597 0.000000 0.000000 0.366145 0.053735 0.779388
  time 11
    0 -0.073256 -1.296764 -20.600716 0.000000 0.000000 -1.585458
    1 -3.699336 0.242195 0.000000 -1.570795 -1.570787 0.000000
    2 1.293670 0.684478 -0.000001 -0.000004 -0.000001 0.326143
    3 5.309685 -0.003834 0.000000 -0.001634 0.009456 0.107371
    4 4.826790 -0.004591 0.000000 -0.162399 0.041898 0.131506
    5 5.792767 -0.005304 0.000000 -0.191533 0.023921 0.155952
    6 6.662322 -0.001452 0.000000 0.012907 0.015846 0.680680
    7 -2.799584 2.180906 4.269311 0.975876 -1.188670 -4.770149
    8 4.827512 0.000000 -0.000002 -0.160155 0.485456 -1.280720
    9 11.140032 0.000000 0.000000 0.000000 0.000000 -0.603002
    10 10.314563 -0.000001 0.000001 -3.928355 0.108753 -0.199724
    11 1.646836 0.445664 -1.699647 -0.161704 0.581044 -0.283978
    12 0.928312 0.000000 0.000000 0.000000 0.000000 0.000000
    13 0.928313 0.000000 -0.000001 0.000000 0.000000 0.000000
    14 2.979373 -0.388274 -0.044205 -0.000805 -0.043611 0.000046
    15 1.435262 -0.000001 -0.000001 0.000000 0.000000 0.706400
    16 1.482593 -0.000001 0.000001 0.000000 0.000000 0.732610
    17 -2.455824 1.903589 -4.202898 1.059570 1.329493 -2.780361
    18 4.972047 0.000000 0.000000 -0.313522 -1.139004 -0.478251
    19 11.585358 0.000000 0.000001 0.000000 0.000000 -1.697616
    20 10.127058 0.000000 0.000001 1.759648 0.327665 0.191234
    21 1.537458 0.109715 1.664489 -0.264662 -0.055995 0.783079
    22 0.928313 0.000000 0.000002 0.000000 0.000000 -0.453501
    23 0.928311 0.000000 0.000001 0.000000 0.000000 0.000000
    24 2.686395 -0.427337 0.044204 -0.005762 0.043239 -0.157074
    25 1.435260 0.000000 0.000001 0.000000 0.000000 0.732613
    26 1.482593 0.000000 -0.000001 0.000000 0.000000 1.168644
    27 2.046984 0.000001 0.000000 0.304295 -0.200240 -0.456224
    28 -0.000005 0.000007 3.713254 -3.285465 -0.168735 1.246835
    29 18.045723 0.000000 0.000000 0.000000 0.000000 -1.748548
    30 17.597597 0.000000 0.000000 -0.247629 0.195167 -0.151213
    31 0.000005 -0.000003 -3.713254 0.822180 2.324961 5.522508
    32 18.045721 0.000000 0.000000 0.000000 0.000000 -2.672981
    33 17.597597 0.000000 0.000000 0.367588 0.051586 0.777263
  time 12
    0 -0.073256 -1.296764 -20.600716 0.000000 0.000000 -1.585458
    1 -3.711055 0.242195 0.000000 -1.570795 -1.570787 0.000000
    2 1.293670 0.684478 -0.000001 -0.000004 -0.000001 0.326143
    3 5.309685 -0.003834 0.000000 -0.001174 0.006675 0.098115
    4 4.826790 -0.004591 0.000000 -0.163715 0.043900 0.146477
    5 5.792767 -0.005304 0.000000 -0.191479 0.027493 0.179041
    6 6.662322 -0.001452 0.000000 0.012907 0.015846 0.680680
    7 -2.799584 2.180906 4.269311 0.975876 -1.188670 -4.770149
    8 4.827512 0.000000 -0.000002 -0.152502 0.453990 -1.271276
    9 11.140032 0.000000 0.000000 0.000000 0.000000 -0.626477
    10 10.314563 -0.000001 0.000001 -3.930630 0.112781 -0.185034
    11 1.646836 0.445664 -1.699647 -0.161704 0.581044 -0.283978
    12 0.928312 0.000000 0.000000 0.000000 0.000000 0.000000
    13 0.928313 0.000000 -0.000001 0.000000 0.000000 0.000000
    14 2.979373 -0.388274 -0.044205 -0.000805 -0.043611 0.000046
    15 1.435262 -0.000001 -0.000001 0.000000 0.000000 0.706400
    16 1.482593 -0.000001 0.000001 0.000000 0.000000 0.732610
    17 -2.455824 1.903589 -4.202898 1.057468 1.329178 -2.782660
    18 4.972047 0.000000 0.000000 -0.248051 -1.133701 -0.543875
    19 11.585358 0.000000 0.000001 0.000000 0.000000 -1.697616
    20 10.127058 0.000000 0.000001 1.759788 0.327476 0.191384
    21 1.537458 0.109715 1.664489 -0.264662 -0.055995 0.783079
    22 0.928313 0.000000 0.000002 0.000000 0.000000 -0.453501
    23 0.928311 0.000000 0.000001 0.000000 0.000000 0.000000
    24 2.686395 -0.427337 0.044204 -0.005762 0.043239 -0.157074
    25 1.435260 0.000000 0.000001 0.000000 0.000000 0.732613
    26 1.482593 0.000000 -0.000001 0.000000 0.000000 1.168644
    27 2.046984 0.000001 0.000000 0.308086 -0.201332 -0.476358
    28 -0.000005 0.000007 3.713254 -3.285465 -0.168735 1.246931
    29 18.045723 0.000000 0.000000 0.000000 0.000000 -1.747734
    30 17.597597 0.000000 0.000000 -0.247629 0.195167 -0.151854
    31 0.000005 -0.000003 -3.713254 0.822947 2.324770 5.521549
    32 18.045721 0.000000 0.000000 0.000000 0.000000 -2.672981
    33 17.597597 0.000000 0.000000 0.368360 0.050461 0.776663
  time 13
    0 -0.073256 -1.296764 -20.600716 0.000000 0.000000 -1.585458
    1 -3.707148 0.230476 0.000000 -1.570795 -1.570787 0.000000
    2 1.293670 0.684478 -0.000001 -0.000004 -0.000001 0.326143
    3 5.309685 -0.003834 0.000000 -0.000476 0.002649 0.084461
    4 4.826790 -0.004591 0.000000 -0.165203 0.046117 0.163079
    5 5.792767 -0.005304 0.000000 -0.191353 0.031040 0.202420
    6 6.662322 -0.001452 0.000000 0.010055 0.012905 0.638670
    7 -2.869899 2.055902 4.288843 0.985270 -1.190799 -4.737091
    8 4.827512 0.000000 -0.000002 -0.145647 0.424912 -1.262004
    9 11.140032 0.000000 0.000000 0.000000 0.000000 -0.648140
    10 10.314563 -0.000001 0.000001 -3.932810 0.116903 -0.171505
    11 1.646836 0.445664 -1.699647 -0.161704 0.581044 -0.283978
    12 0.928312 0.000000 0.000000 0.000000 0.000000 0.000000
    13 0.928313 0.000000 -0.000001 0.000000 0.000000 0.000000
    14 2.979373 -0.388274 -0.044205 -0.000805 -0.043611 0.000046
    15 1.435262 -0.000001 -0.000001 0.000000 0.000000 0.706400
    16 1.482593 -0.000001 0.000001 0.000000 0.000000 0.732610
    17 -2.549577 1.805929 -4.187273 1.035591 1.325655 -2.762546
    18 4.972047 0.000000 0.000000 -0.190834 -1.126229 -0.601977
    19 11.585358 0.000000 0.000001 0.000000 0.000000 -1.697616
    20 10.127058 0.000000 0.000001 1.759998 0.327286 0.192135
    21 1.537458 0.109715 1.664489 -0.264662 -0.055995 0.783079
    22 0.928313 0.000000 0.000002 0.000000 0.000000 -0.453501
    23 0.928311 0.000000 0.000001 0.000000 0.000000 0.000000
    24 2.686395 -0.427337 0.044204 -0.005762 0.043239 -0.157074
    25 1.435260 0.000000 0.000001 0.000000 0.000000 0.732613
    26 1.482593 0.000000 -0.000001 0.000000 0.000000 1.168644
    27 2.046984 0.000001 0.000000 0.312222 -0.194428 -0.460847
    28 -0.000005 0.000007 3.713254 -3.285274 -0.168926 1.246835
    29 18.045723 0.000000 0.000000 0.000000 0.000000 -1.748104
    30 17.597597 0.000000 0.000000 -0.247325 0.194946 -0.151625
    31 0.000005 -0.000003 -3.713254 0.823617 2.325536 5.522699
    32 18.045721 0.000000 0.000000 0.000000 0.000000 -2.672744
    33 17.597597 0.000000 0.000000 0.368259 0.050580 0.777679
  time 14
    0 -0.073256 -1.296764 -20.600716 0.000000 0.000000 -1.585458
    1 -3.718867 0.230476 0.000000 -1.570795 -1.570787 0.000000
    2 1.293670 0.684478 -0.000001 -0.000004 -0.000001 0.326143
    3 5.309685 -0.003834 0.000000 0.000000 0.000000 0.075488
    4 4.826790 -0.004591 0.000000 -0.166481 0.048106 0.178094
    5 5.792767 -0.005304 0.000000 -0.191192 0.034156 0.222975
    6 6.662322 -0.001452 0.000000 0.007359 0.009840 0.596774
    7 -2.940214 1.919179 4.300562 0.994664 -1.192987 -4.703746
    8 4.827512 0.000000 -0.000002 -0.139987 0.395152 -1.253859
    9 11.140032 0.000000 0.000000 0.000000 0.000000 -0.668065
    10 10.314563 -0.000001 0.000001 -3.934895 0.121306 -0.159021
    11 1.646836 0.445664 -1.699647 -0.161704 0.581044 -0.283978
    12 0.928312 0.000000 0.000000 0.000000 0.000000 0.000000
    13 0.928313 0.000000 -0.000001 0.000000 0.000000 0.000000
    14 2.979373 -0.388274 -0.044205 -0.000805 -0.043611 0.000046
    15 1.435262 -0.000001 -0.000001 0.000000 0.000000 0.706400
    16 1.482593 -0.000001 0.000001 0.000000 0.000000 0.732610
    17 -2.639423 1.712177 -4.171647 1.007409 1.321133 -2.748658
    18 4.972047 0.000000 0.000000 -0.135868 -1.115703 -0.658350
    19 11.585358 0.000000 0.000001 0.000000 0.000000 -1.697453
    20 10.127058 0.000000 0.000001 1.760419 0.326814 0.193385
    21 1.537458 0.109715 1.664489 -0.264662 -0.055995 0.783079
    22 0.928313 0.000000 0.000002 0.000000 0.000000 -0.453501
    23 0.928311 0.000000 0.000001 0.000000 0.000000 0.000000
    24 2.686395 -0.427337 0.044204 -0.005762 0.043239 -0.157074
    25 1.435260 0.000000 0.000001 0.000000 0.000000 0.732613
    26 1.482593 0.000000 -0.000001 0.000000 0.000000 1.168644
    27 2.046984 0.000001 0.000000 0.316056 -0.187701 -0.445883
    28 -0.000005 0.000007 3.713254 -3.285274 -0.168926 1.246931
    29 18.045723 0.000000 0.000000 0.000000 0.000000 -1.747438
    30 17.597597 0.000000 0.000000 -0.247325 0.194946 -0.152175
    31 0.000005 -0.000003 -3.713254 0.824193 2.325441 5.521933
    32 18.045721 0.000000 0.000000 0.000000 0.000000 -2.672744
    33 17.597597 0.000000 0.000000 0.368897 0.049613 0.777263
  time 15
    0 -0.073256 -1.296764 -20.600716 0.000000 0.000000 -1.585458
    1 -3.742306 0.238289 0.000000 -1.570795 -1.570787 0.000000
    2 1.293670 0.684478 -0.000001 -0.000004 -0.000001 0.326143
    3 5.309685 -0.003834 0.000000 0.000102 -0.000695 0.073032
    4 4.826790 -0.004591 0.000000 -0.167282 0.049484 0.188258
    5 5.792767 -0.005304 0.000000 -0.191030 0.036373 0.237426
    6 6.662322 -0.001452 0.000000 0.004770 0.006624 0.554821
    7 -3.006622 1.790269 4.312281 1.003865 -1.195323 -4.670402
    8 4.827512 0.000000 -0.000002 -0.136160 0.369143 -1.246840
    9 11.140032 0.000000 0.000000 0.000000 0.000000 -0.682556
    10 10.314563 -0.000001 0.000001 -3.936411 0.125521 -0.150138
    11 1.646836 0.445664 -1.699647 -0.161704 0.581044 -0.283978
    12 0.928312 0.000000 0.000000 0.000000 0.000000 0.000000
    13 0.928313 0.000000 -0.000001 0.000000 0.000000 0.000000
    14 2.979373 -0.388274 -0.044205 -0.000805 -0.043611 0.000046
    15 1.435262 -0.000001 -0.000001 0.000000 0.000000 0.706400
    16 1.482593 -0.000001 0.000001 0.000000 0.000000 0.732610
    17 -2.725363 1.606705 -4.163834 0.963465 1.313535 -2.751148
    18 4.972047 0.000000 0.000000 -0.095065 -1.100838 -0.701611
    19 11.585358 0.000000 0.000001 0.000000 0.000000 -1.697207
    20 10.127058 0.000000 0.000001 1.761471 0.325584 0.196287
    21 1.537458 0.109715 1.664489 -0.264662 -0.055995 0.783079
    22 0.928313 0.000000 0.000002 0.000000 0.000000 -0.453501
    23 0.928311 0.000000 0.000001 0.000000 0.000000 0.000000
    24 2.686395 -0.427337 0.044204 -0.005762 0.043239 -0.157074
    25 1.435260 0.000000 0.000001 0.000000 0.000000 0.732613
    26 1.482593 0.000000 -0.000001 0.000000 0.000000 1.168644
    27 2.046984 0.000001 0.000000 0.319287 -0.181594 -0.426418
    28 -0.000005 0.000007 3.713254 -3.285465 -0.168639 1.247218
    29 18.045723 0.000000 0.000000 0.000000 0.000000 -1.745957
    30 17.597597 0.000000 0.000000 -0.247629 0.195093 -0.153413
    31 0.000005 -0.000003 -3.713254 0.824480 2.324386 5.519248
    32 18.045721 0.000000 0.000000 0.000000 0.000000 -2.672902
    33 17.597597 0.000000 0.000000 0.370171 0.047799 0.775323
  time 16
    0 -0.073256 -1.296764 -20.600716 0.000000 0.000000 -1.585458
    1 -3.757931 0.238289 0.000000 -1.570795 -1.570787 0.000000
    2 1.293670 0.684478 -0.000001 -0.000004 -0.000001 0.326143
    3 5.309685 -0.003834 0.000000 0.000153 -0.000923 0.072344
    4 4.826790 -0.004591 0.000000 -0.167683 0.050096 0.192580
    5 5.792767 -0.005304 0.000000 -0.190940 0.037416 0.243987
    6 6.662322 -0.001452 0.000000 0.002289 0.003353 0.512868
    7 -3.057405 1.653546 4.331813 1.012876 -1.197807 -4.636961
    8 4.827512 0.000000 -0.000002 -0.134327 0.356182 -1.241468
    9 11.140032 0.000000 0.000000 0.000000 0.000000 -0.688931
    10 10.314563 -0.000001 0.000001 -3.936790 0.128612 -0.147118
    11 1.646836 0.445664 -1.699647 -0.161704 0.581044 -0.283978
    12 0.928312 0.000000 0.000000 0.000000 0.000000 0.000000
    13 0.928313 0.000000 -0.000001 0.000000 0.000000 0.000000
    14 2.979373 -0.388274 -0.044205 -0.000805 -0.043611 0.000046
    15 1.435262 -0.000001 -0.000001 0.000000 0.000000 0.706400
    16 1.482593 -0.000001 0.000001 0.000000 0.000000 0.732610
    17 -2.799584 1.501233 -4.148209 0.906050 1.302440 -2.767718
    18 4.972047 0.000000 0.000000 -0.082965 -1.085893 -0.717451
    19 11.585358 0.000000 0.000001 0.000000 0.000000 -1.696717
    20 10.127058 0.000000 0.000001 1.763014 0.323882 0.200839
    21 1.537458 0.109715 1.664489 -0.264662 -0.055995 0.783079
    22 0.928313 0.000000 0.000002 0.000000 0.000000 -0.453501
    23 0.928311 0.000000 0.000001 0.000000 0.000000 0.000000
    24 2.686395 -0.427337 0.044204 -0.005762 0.043239 -0.157074
    25 1.435260 0.000000 0.000001 0.000000 0.000000 0.732613
    26 1.482593 0.000000 -0.000001 0.000000 0.000000 1.168644
    27 2.046984 0.000001 0.000000 0.321054 -0.176667 -0.395152
    28 -0.000005 0.000007 3.713254 -3.285561 -0.168543 1.247314
    29 18.045723 0.000000 0.000000 0.000000 0.000000 -1.745143
    30 17.597597 0.000000 0.000000 -0.247781 0.195192 -0.154101
    31 0.000005 -0.000003 -3.713254 0.824480 2.323811 5.518002
    32 18.045721 0.000000 0.000000 0.000000 0.000000 -2.672902
    33 17.597597 0.000000 0.000000 0.370775 0.046872 0.774400
  time 17
    0 -0.073256 -1.296764 -20.600716 0.000000 0.000000 -1.585458
    1 -3.761838 0.242195 0.000000 -1.570795 -1.570787 0.000000
    2 1.293670 0.684478 -0.000001 -0.000004 -0.000001 0.326143
    3 5.309685 -0.003834 0.000000 0.000136 -0.000779 0.072856
    4 4.826790 -0.004591 0.000000 -0.167721 0.050156 0.193109
    5 5.792767 -0.005304 0.000000 -0.190922 0.037548 0.244859
    6 6.662322 -0.001452 0.000000 0.000000 -0.000001 0.471000
    7 -3.108188 1.516823 4.339626 1.021694 -1.200350 -4.603233
    8 4.827512 0.000000 -0.000002 -0.133609 0.352174 -1.237309
    9 11.140032 0.000000 0.000000 0.000000 0.000000 -0.690018
    10 10.314563 -0.000001 0.000001 -3.936411 0.130579 -0.147525
    11 1.646836 0.445664 -1.699647 -0.161704 0.581044 -0.283978
    12 0.928312 0.000000 0.000000 0.000000 0.000000 0.000000
    13 0.928313 0.000000 -0.000001 0.000000 0.000000 0.000000
    14 2.979373 -0.388274 -0.044205 -0.000805 -0.043611 0.000046
    15 1.435262 -0.000001 -0.000001 0.000000 0.000000 0.706400
    16 1.482593 -0.000001 0.000001 0.000000 0.000000 0.732610
    17 -2.869899 1.399667 -4.140396 0.850833 1.289952 -2.782468
    18 4.972047 0.000000 0.000000 -0.087843 -1.073359 -0.716386
    19 11.585358 0.000000 0.000001 0.000000 0.000000 -1.696227
    20 10.127058 0.000000 0.000001 1.764767 0.322085 0.205691
    21 1.537458 0.109715 1.664489 -0.264662 -0.055995 0.783079
    22 0.928313 0.000000 0.000002 0.000000 0.000000 -0.453501
    23 0.928311 0.000000 0.000001 0.000000 0.000000 0.000000
    24 2.686395 -0.427337 0.044204 -0.005762 0.043239 -0.157074
    25 1.435260 0.000000 0.000001 0.000000 0.000000 0.732613
    26 1.482593 0.000000 -0.000001 0.000000 0.000000 1.168644
    27 2.046984 0.000001 0.000000 0.322045 -0.172507 -0.355248
    28 -0.000005 0.000007 3.713254 -3.285657 -0.168447 1.247314
    29 18.045723 0.000000 0.000000 0.000000 0.000000 -1.744921
    30 17.597597 0.000000 0.000000 -0.247857 0.195241 -0.154330
    31 0.000005 -0.000003 -3.713254 0.824480 2.323523 5.517523
    32 18.045721 0.000000 0.000000 0.000000 0.000000 -2.672902
    33 17.597597 0.000000 0.000000 0.370977 0.046536 0.774030
  time 18
    0 -0.073256 -1.296764 -20.600716 0.000000 0.000000 -1.585458
    1 -3.761838 0.242195 0.000000 -1.570795 -1.570787 0.000000
    2 1.293670 0.684478 -0.000001 -0.000004 -0.000001 0.326143
    3 5.309685 -0.003834 0.000000 0.000068 -0.000431 0.073916
    4 4.826790 -0.004591 0.000000 -0.167549 0.049952 0.191477
    5 5.792767 -0.005304 0.000000 -0.190958 0.037140 0.242326
    6 6.662322 -0.001452 0.000000 0.000000 -0.000001 0.471000
    7 -3.108188 1.516823 4.339626 1.021694 -1.200350 -4.603233
    8 4.827512 0.000000 -0.000002 -0.133530 0.354306 -1.234796
    9 11.140032 0.000000 0.000000 0.000000 0.000000 -0.688207
    10 10.314563 -0.000001 0.000001 -3.935937 0.131422 -0.149557
    11 1.646836 0.445664 -1.699647 -0.161704 0.581044 -0.283978
    12 0.928312 0.000000 0.000000 0.000000 0.000000 0.000000
    13 0.928313 0.000000 -0.000001 0.000000 0.000000 0.000000
    14 2.979373 -0.388274 -0.044205 -0.000805 -0.043611 0.000046
    15 1.435262 -0.000001 -0.000001 0.000000 0.000000 0.706400
    16 1.482593 -0.000001 0.000001 0.000000 0.000000 0.732610
    17 -2.869899 1.399667 -4.140396 0.820358 1.281881 -2.814267
    18 4.972047 0.000000 0.000000 -0.099755 -1.065485 -0.707335
    19 11.585358 0.000000 0.000001 0.000000 0.000000 -1.695819
    20 10.127058 0.000000 0.000001 1.766029 0.320667 0.209342
    21 1.537458 0.109715 1.664489 -0.264662 -0.055995 0.783079
    22 0.928313 0.000000 0.000002 0.000000 0.000000 -0.453501
    23 0.928311 0.000000 0.000001 0.000000 0.000000 0.000000
    24 2.686395 -0.427337 0.044204 -0.005762 0.043239 -0.157074
    25 1.435260 0.000000 0.000001 0.000000 0.000000 0.732613
    26 1.482593 0.000000 -0.000001 0.000000 0.000000 1.168644
    27 2.046984 0.000001 0.000000 0.321657 -0.172802 -0.352207
    28 -0.000005 0.000007 3.713254 -3.285657 -0.168447 1.247314
    29 18.045723 0.000000 0.000000 0.000000 0.000000 -1.744921
    30 17.597597 0.000000 0.000000 -0.247908 0.195192 -0.154330
    31 0.000005 -0.000003 -3.713254 0.824480 2.323523 5.517523
    32 18.045721 0.000000 0.000000 0.000000 0.000000 -2.672902
    33 17.597597 0.000000 0.000000 0.370910 0.046596 0.774030
  time 19
    0 -0.073256 -1.296764 -20.600716 0.000000 0.000000 -1.585458
    1 -3.757931 0.242195 0.000000 -1.570795 -1.570787 0.000000
    2 1.293670 0.684478 -0.000001 -0.000004 -0.000001 0.326143
    3 5.309685 -0.003834 0.000000 0.000000 -0.000144 0.075011
    4 4.826790 -0.004591 0.000000 -0.167416 0.049628 0.189339
    5 5.792767 -0.005304 0.000000 -0.191012 0.036649 0.239066
    6 6.662322 -0.001452 0.000000 0.000000 -0.000001 0.471000
    7 -3.108188 1.516823 4.339626 1.021694 -1.200350 -4.603233
    8 4.827512 0.000000 -0.000002 -0.134008 0.358910 -1.235142
    9 11.140032 0.000000 0.000000 0.000000 0.000000 -0.685164
    10 10.314563 -0.000001 0.000001 -3.935463 0.131047 -0.151705
    11 1.646836 0.445664 -1.699647 -0.161704 0.581044 -0.283978
    12 0.928312 0.000000 0.000000 0.000000 0.000000 0.000000
    13 0.928313 0.000000 -0.000001 0.000000 0.000000 0.000000
    14 2.979373 -0.388274 -0.044205 -0.000805 -0.043611 0.000046
    15 1.435262 -0.000001 -0.000001 0.000000 0.000000 0.706400
    16 1.482593 -0.000001 0.000001 0.000000 0.000000 0.732610
    17 -2.869899 1.399667 -4.140396 0.815008 1.280383 -2.819727
    18 4.972047 0.000000 0.000000 -0.108854 -1.065324 -0.698483
    19 11.585358 0.000000 0.000001 0.000000 0.000000 -1.695737
    20 10.127058 0.000000 0.000001 1.766239 0.320383 0.209993
    21 1.537458 0.109715 1.664489 -0.264662 -0.055995 0.783079
    22 0.928313 0.000000 0.000002 0.000000 0.000000 -0.453501
    23 0.928311 0.000000 0.000001 0.000000 0.000000 0.000000
    24 2.686395 -0.427337 0.044204 -0.005762 0.043239 -0.157074
    25 1.435260 0.000000 0.000001 0.000000 0.000000 0.732613
    26 1.482593 0.000000 -0.000001 0.000000 0.000000 1.168644
    27 2.046984 0.000001 0.000000 0.321183 -0.173215 -0.347827
    28 -0.000005 0.000007 3.713254 -3.285657 -0.168447 1.247314
    29 18.045723 0.000000 0.000000 0.000000 0.000000 -1.745069
    30 17.597597 0.000000 0.000000 -0.247857 0.195167 -0.154147
    31 0.000005 -0.000003 -3.713254 0.824480 2.323619 5.517810
    32 18.045721 0.000000 0.000000 0.000000 0.000000 -2.672902
    33 17.597597 0.000000 0.000000 0.370742 0.046793 0.774215
  time 20
    0 -0.073256 -1.296764 -20.600716 0.000000 0.000000 -1.585458
    1 -3.757931 0.242195 0.000000 -1.570795 -1.570787 0.000000
    2 1.293670 0.684478 -0.000001 -0.000004 -0.000001 0.326143
    3 5.309685 -0.003834 0.000000 0.000000 0.000000 0.075488
    4 4.826790 -0.004591 0.000000 -0.167282 0.049484 0.188258
    5 5.792767 -0.005304 0.000000 -0.191030 0.036373 0.237426
    6 6.662322 -0.001452 0.000000 0.000000 -0.000001 0.471000
    7 -3.108188 1.516823 4.339626 1.021694 -1.200350 -4.603233
    8 4.827512 0.000000 -0.000002 -0.134407 0.361469 -1.236269
    9 11.140032 0.000000 0.000000 0.000000 0.000000 -0.683497
    10 10.314563 -0.000001 0.000001 -3.935369 0.130485 -0.152576
    11 1.646836 0.445664 -1.699647 -0.161704 0.581044 -0.283978
    12 0.928312 0.000000 0.000000 0.000000 0.000000 0.000000
    13 0.928313 0.000000 -0.000001 0.000000 0.000000 0.000000
    14 2.979373 -0.388274 -0.044205 -0.000805 -0.043611 0.000046
    15 1.435262 -0.000001 -0.000001 0.000000 0.000000 0.706400
    16 1.482593 -0.000001 0.000001 0.000000 0.000000 0.732610
    17 -2.869899 1.399667 -4.140396 0.820358 1.281881 -2.814267
    18 4.972047 0.000000 0.000000 -0.112043 -1.067815 -0.694822
    19 11.585358 0.000000 0.000001 0.000000 0.000000 -1.695819
    20 10.127058 0.000000 0.000001 1.766029 0.320667 0.209342
    21 1.537458 0.109715 1.664489 -0.264662 -0.055995 0.783079
    22 0.928313 0.000000 0.000002 0.000000 0.000000 -0.453501
    23 0.928311 0.000000 0.000001 0.000000 0.000000 0.000000
    24 2.686395 -0.427337 0.044204 -0.005762 0.043239 -0.157074
    25 1.435260 0.000000 0.000001 0.000000 0.000000 0.732613
    26 1.482593 0.000000 -0.000001 0.000000 0.000000 1.168644
    27 2.046984 0.000001 0.000000 0.321054 -0.173451 -0.345455
    28 -0.000005 0.000007 3.713254 -3.285753 -0.168639 1.247314
    29 18.045723 0.000000 0.000000 0.000000 0.000000 -1.745217
    30 17.597597 0.000000 0.000000 -0.247756 0.195364 -0.154009
    31 0.000005 -0.000003 -3.713254 0.823905 2.323907 5.517523
    32 18.045721 0.000000 0.000000 0.000000 0.000000 -2.672902
    33 17.597597 0.000000 0.000000 0.371010 0.047148 0.774307
end
