version 1
nodes
  0 "Bip01" -1
  1 "Bip01 Pelvis" 0
  2 "Bip01 Spine" 1
  3 "Bip01 Spine1" 2
  4 "Bip01 Spine2" 3
  5 "Bip01 Spine3" 4
  6 "Bip01 Neck" 5
  7 "Bip01 L Arm" 6
  8 "Bip01 L Arm1" 7
  9 "Bip01 L Arm2" 8
  10 "Bip01 L Hand" 9
  11 "Bip01 L Finger0" 10
  12 "Bip01 L Finger01" 11
  13 "Bip01 L Finger02" 12
  14 "Bip01 L Finger1" 10
  15 "Bip01 L Finger11" 14
  16 "Bip01 L Finger12" 15
  17 "Bip01 R Arm" 6
  18 "Bip01 R Arm1" 17
  19 "Bip01 R Arm2" 18
  20 "Bip01 R Hand" 19
  21 "Bip01 R Finger0" 20
  22 "Bip01 R Finger01" 21
  23 "Bip01 R Finger02" 22
  24 "Bip01 R Finger1" 20
  25 "Bip01 R Finger11" 24
  26 "Bip01 R Finger12" 25
  27 "Bip01 Head" 6
  28 "Bip01 L Leg" 1
  29 "Bip01 L Leg1" 28
  30 "Bip01 L Foot" 29
  31 "Bip01 R Leg" 1
  32 "Bip01 R Leg1" 31
  33 "Bip01 R Foot" 32
end
skeleton
  time 0
    0 -1.756901 -2.027255 -20.585090 0.000000 0.000000 -1.571017
    1 -5.132973 0.316416 0.000000 -1.570795 -1.570787 0.000000
    2 1.293670 0.684478 -0.000001 -0.162437 -0.054878 0.077556
    3 5.309685 -0.003834 0.000000 0.047988 0.053751 0.026771
    4 4.826790 -0.004591 0.000000 -0.027505 -0.034779 0.205235
    5 5.792767 -0.005304 0.000000 0.108016 0.084000 0.142353
    6 6.662322 -0.001452 0.000000 0.074700 0.038125 0.190914
    7 -3.108188 1.516823 4.339626 1.238993 -1.024532 -4.799756
    8 4.827512 0.000000 -0.000002 0.069031 0.359422 -0.646699
    9 11.140032 0.000000 0.000000 0.095760 -0.317962 -1.024608
    10 10.314563 -0.000001 0.000001 -3.988822 0.203081 -0.504208
    11 1.646836 0.445664 -1.699647 -0.161704 0.581044 -0.283978
    12 0.928312 0.000000 0.000000 0.000000 0.000000 0.000000
    13 0.928313 0.000000 -0.000001 0.000000 0.000000 0.000000
    14 2.979373 -0.388274 -0.044205 -0.000805 -0.043611 0.000046
    15 1.435262 -0.000001 -0.000001 0.000000 0.000000 0.872146
    16 1.482593 -0.000001 0.000001 0.000000 0.000000 0.907041
    17 -2.869899 1.399667 -4.140396 -1.163265 1.764468 -4.903713
    18 4.972047 0.000000 0.000000 1.348776 -0.926802 -2.044698
    19 11.585358 0.000000 0.000001 0.386603 -0.383641 -1.547243
    20 10.127058 0.000000 0.000001 2.076117 0.623650 0.835762
    21 1.537458 0.109715 1.664489 -0.264662 -0.055995 0.783079
    22 0.928313 0.000000 0.000002 0.000000 0.000000 -0.453501
    23 0.928311 0.000000 0.000001 0.000000 0.000000 0.000000
    24 2.686395 -0.427337 0.044204 -0.005762 0.043239 -0.157074
    25 1.435260 0.000000 0.000001 0.000000 0.000000 0.732613
    26 1.482593 0.000000 -0.000001 0.000000 0.000000 1.168644
    27 2.046984 0.000001 0.000000 0.307009 0.468721 -0.566324
    28 -0.000005 0.000007 3.713254 -3.204068 -0.120606 1.238399
    29 18.045723 0.000000 0.000000 0.000000 0.000000 -1.756393
    30 17.597597 0.000000 0.000000 -0.210887 0.105637 -0.141218
    31 0.000005 -0.000003 -3.713254 0.848441 2.461380 5.479079
    32 18.045721 0.000000 0.000000 0.000000 0.000000 -2.603394
    33 17.597597 0.000000 0.000000 0.362388 -0.168095 0.787471
  time 1
    0 -1.756901 -2.027255 -20.585090 0.000000 0.000000 -1.571017
    1 -5.117348 0.316416 0.000000 -1.570795 -1.570787 0.000000
    2 1.293670 0.684478 -0.000001 -0.162437 -0.054878 0.077556
    3 5.309685 -0.003834 0.000000 0.047546 0.053799 0.026259
    4 4.826790 -0.004591 0.000000 -0.027944 -0.034743 0.204133
    5 5.792767 -0.005304 0.000000 0.107459 0.084276 0.141522
    6 6.662322 -0.001452 0.000000 0.074484 0.038441 0.190686
    7 -3.108188 1.516823 4.339626 1.238993 -1.024532 -4.799756
    8 4.827512 0.000000 -0.000002 0.063291 0.349445 -0.649212
    9 11.140032 0.000000 0.000000 0.095729 -0.317063 -1.024535
    10 10.314563 -0.000001 0.000001 -3.988822 0.203081 -0.504208
    11 1.646836 0.445664 -1.699647 -0.161704 0.581044 -0.283978
    12 0.928312 0.000000 0.000000 0.000000 0.000000 0.000000
    13 0.928313 0.000000 -0.000001 0.000000 0.000000 0.000000
    14 2.979373 -0.388274 -0.044205 -0.000805 -0.043611 0.000046
    15 1.435262 -0.000001 -0.000001 0.000000 0.000000 0.872146
    16 1.482593 -0.000001 0.000001 0.000000 0.000000 0.907041
    17 -2.869899 1.399667 -4.140396 -1.163265 1.764468 -4.903713
    18 4.972047 0.000000 0.000000 1.348119 -0.919972 -2.042768
    19 11.585358 0.000000 0.000001 0.386603 -0.383618 -1.548714
    20 10.127058 0.000000 0.000001 2.073593 0.623840 0.832861
    21 1.537458 0.109715 1.664489 -0.264662 -0.055995 0.783079
    22 0.928313 0.000000 0.000002 0.000000 0.000000 -0.453501
    23 0.928311 0.000000 0.000001 0.000000 0.000000 0.000000
    24 2.686395 -0.427337 0.044204 -0.005762 0.043239 -0.157074
    25 1.435260 0.000000 0.000001 0.000000 0.000000 0.732613
    26 1.482593 0.000000 -0.000001 0.000000 0.000000 1.168644
    27 2.046984 0.000001 0.000000 0.307009 0.468721 -0.566324
    28 -0.000005 0.000007 3.713254 -3.203877 -0.120701 1.238207
    29 18.045723 0.000000 0.000000 0.000000 0.000000 -1.757133
    30 17.597597 0.000000 0.000000 -0.210684 0.105514 -0.140530
    31 0.000005 -0.000003 -3.713254 0.848345 2.461955 5.480229
    32 18.045721 0.000000 0.000000 0.000000 0.000000 -2.603394
    33 17.597597 0.000000 0.000000 0.361884 -0.167385 0.788579
  time 2
    0 -1.756901 -2.027255 -20.585090 0.000000 0.000000 -1.571017
    1 -5.105629 0.312510 0.000000 -1.570795 -1.570787 0.000000
    2 1.293670 0.684478 -0.000001 -0.162437 -0.054878 0.077556
    3 5.309685 -0.003834 0.000000 0.046286 0.053943 0.024793
    4 4.826790 -0.004591 0.000000 -0.029222 -0.034635 0.201002
    5 5.792767 -0.005304 0.000000 0.105858 0.085067 0.139155
    6 6.662322 -0.001452 0.000000 0.073873 0.039348 0.190060
    7 -3.108188 1.516823 4.339626 1.238993 -1.024532 -4.799756
    8 4.827512 0.000000 -0.000002 0.047029 0.321305 -0.656578
    9 11.140032 0.000000 0.000000 0.095666 -0.314342 -1.024101
    10 10.314563 -0.000001 0.000001 -3.988822 0.203081 -0.504208
    11 1.646836 0.445664 -1.699647 -0.161704 0.581044 -0.283978
    12 0.928312 0.000000 0.000000 0.000000 0.000000 0.000000
    13 0.928313 0.000000 -0.000001 0.000000 0.000000 0.000000
    14 2.979373 -0.388274 -0.044205 -0.000805 -0.043611 0.000046
    15 1.435262 -0.000001 -0.000001 0.000000 0.000000 0.872146
    16 1.482593 -0.000001 0.000001 0.000000 0.000000 0.907041
    17 -2.869899 1.399667 -4.140396 -1.163265 1.764468 -4.903713
    18 4.972047 0.000000 0.000000 1.346056 -0.900768 -2.037310
    19 11.585358 0.000000 0.000001 0.386603 -0.383550 -1.552798
    20 10.127058 0.000000 0.000001 2.066510 0.624596 0.824707
    21 1.537458 0.109715 1.664489 -0.264662 -0.055995 0.783079
    22 0.928313 0.000000 0.000002 0.000000 0.000000 -0.453501
    23 0.928311 0.000000 0.000001 0.000000 0.000000 0.000000
    24 2.686395 -0.427337 0.044204 -0.005762 0.043239 -0.157074
    25 1.435260 0.000000 0.000001 0.000000 0.000000 0.732613
    26 1.482593 0.000000 -0.000001 0.000000 0.000000 1.168644
    27 2.046984 0.000001 0.000000 0.307009 0.468721 -0.566324
    28 -0.000005 0.000007 3.713254 -3.203685 -0.120893 1.238112
    29 18.045723 0.000000 0.000000 0.000000 0.000000 -1.758022
    30 17.597597 0.000000 0.000000 -0.210532 0.105391 -0.139751
    31 0.000005 -0.000003 -3.713254 0.848345 2.462530 5.481571
    32 18.045721 0.000000 0.000000 0.000000 0.000000 -2.603394
    33 17.597597 0.000000 0.000000 0.361280 -0.166596 0.789780
  time 3
    0 -1.756901 -2.027255 -20.585090 0.000000 0.000000 -1.571017
    1 -5.093909 0.312510 0.000000 -1.570795 -1.570787 0.000000
    2 1.293670 0.684478 -0.000001 -0.162437 -0.054878 0.077556
    3 5.309685 -0.003834 0.000000 0.044312 0.054170 0.022479
    4 4.826790 -0.004591 0.000000 -0.031206 -0.034456 0.196041
    5 5.792767 -0.005304 0.000000 0.103358 0.086325 0.135439
    6 6.662322 -0.001452 0.000000 0.072914 0.040778 0.189091
    7 -3.108188 1.516823 4.339626 1.238993 -1.024532 -4.799756
    8 4.827512 0.000000 -0.000002 0.021759 0.277559 -0.668189
    9 11.140032 0.000000 0.000000 0.095510 -0.309723 -1.023014
    10 10.314563 -0.000001 0.000001 -3.988822 0.203081 -0.504208
    11 1.646836 0.445664 -1.699647 -0.161704 0.581044 -0.283978
    12 0.928312 0.000000 0.000000 0.000000 0.000000 0.000000
    13 0.928313 0.000000 -0.000001 0.000000 0.000000 0.000000
    14 2.979373 -0.388274 -0.044205 -0.000805 -0.043611 0.000046
    15 1.435262 -0.000001 -0.000001 0.000000 0.000000 0.872146
    16 1.482593 -0.000001 0.000001 0.000000 0.000000 0.907041
    17 -2.869899 1.399667 -4.140396 -1.163265 1.764468 -4.903713
    18 4.972047 0.000000 0.000000 1.342773 -0.870878 -2.028658
    19 11.585358 0.000000 0.000001 0.386603 -0.383459 -1.559087
    20 10.127058 0.000000 0.000001 2.055431 0.625731 0.812002
    21 1.537458 0.109715 1.664489 -0.264662 -0.055995 0.783079
    22 0.928313 0.000000 0.000002 0.000000 0.000000 -0.453501
    23 0.928311 0.000000 0.000001 0.000000 0.000000 0.000000
    24 2.686395 -0.427337 0.044204 -0.005762 0.043239 -0.157074
    25 1.435260 0.000000 0.000001 0.000000 0.000000 0.732613
    26 1.482593 0.000000 -0.000001 0.000000 0.000000 1.168644
    27 2.046984 0.000001 0.000000 0.307009 0.468721 -0.566324
    28 -0.000005 0.000007 3.713254 -3.203493 -0.120989 1.238016
    29 18.045723 0.000000 0.000000 0.000000 0.000000 -1.758836
    30 17.597597 0.000000 0.000000 -0.210380 0.105293 -0.139017
    31 0.000005 -0.000003 -3.713254 0.848153 2.463105 5.482818
    32 18.045721 0.000000 0.000000 0.000000 0.000000 -2.603394
    33 17.597597 0.000000 0.000000 0.360710 -0.165748 0.790981
  time 4
    0 -1.756901 -2.027255 -20.585090 0.000000 0.000000 -1.571017
    1 -5.086097 0.304697 0.000000 -1.570795 -1.570787 0.000000
    2 1.293670 0.684478 -0.000001 -0.162437 -0.054878 0.077556
    3 5.309685 -0.003834 0.000000 0.041675 0.054470 0.019423
    4 4.826790 -0.004591 0.000000 -0.033838 -0.034228 0.189515
    5 5.792767 -0.005304 0.000000 0.100030 0.087979 0.130497
    6 6.662322 -0.001452 0.000000 0.071644 0.042674 0.187781
    7 -3.108188 1.516823 4.339626 1.238993 -1.024532 -4.799756
    8 4.827512 0.000000 -0.000002 -0.010925 0.220852 -0.683613
    9 11.140032 0.000000 0.000000 0.095261 -0.303107 -1.020913
    10 10.314563 -0.000001 0.000001 -3.988822 0.203081 -0.504208
    11 1.646836 0.445664 -1.699647 -0.161704 0.581044 -0.283978
    12 0.928312 0.000000 0.000000 0.000000 0.000000 0.000000
    13 0.928313 0.000000 -0.000001 0.000000 0.000000 0.000000
    14 2.979373 -0.388274 -0.044205 -0.000805 -0.043611 0.000046
    15 1.435262 -0.000001 -0.000001 0.000000 0.000000 0.872146
    16 1.482593 -0.000001 0.000001 0.000000 0.000000 0.907041
    17 -2.869899 1.399667 -4.140396 -1.163265 1.764468 -4.903713
    18 4.972047 0.000000 0.000000 1.338458 -0.832070 -2.017277
    19 11.585358 0.000000 0.000001 0.386603 -0.383346 -1.567255
    20 10.127058 0.000000 0.000001 2.041125 0.627244 0.795545
    21 1.537458 0.109715 1.664489 -0.264662 -0.055995 0.783079
    22 0.928313 0.000000 0.000002 0.000000 0.000000 -0.453501
    23 0.928311 0.000000 0.000001 0.000000 0.000000 0.000000
    24 2.686395 -0.427337 0.044204 -0.005762 0.043239 -0.157074
    25 1.435260 0.000000 0.000001 0.000000 0.000000 0.732613
    26 1.482593 0.000000 -0.000001 0.000000 0.000000 1.168644
    27 2.046984 0.000001 0.000000 0.307009 0.468721 -0.566324
    28 -0.000005 0.000007 3.713254 -3.203301 -0.121085 1.237920
    29 18.045723 0.000000 0.000000 0.000000 0.000000 -1.759502
    30 17.597597 0.000000 0.000000 -0.210253 0.105170 -0.138421
    31 0.000005 -0.000003 -3.713254 0.848057 2.463585 5.483872
    32 18.045721 0.000000 0.000000 0.000000 0.000000 -2.603394
    33 17.597597 0.000000 0.000000 0.360207 -0.165097 0.791905
  time 5
    0 -1.756901 -2.027255 -20.585090 0.000000 0.000000 -1.571017
    1 -5.074378 0.304697 0.000000 -1.570795 -1.570787 0.000000
    2 1.293670 0.684478 -0.000001 -0.162437 -0.054878 0.077556
    3 5.309685 -0.003834 0.000000 0.038510 0.054830 0.015732
    4 4.826790 -0.004591 0.000000 -0.037023 -0.033952 0.181622
    5 5.792767 -0.005304 0.000000 0.096036 0.089980 0.124559
    6 6.662322 -0.001452 0.000000 0.070110 0.044970 0.186215
    7 -3.108188 1.516823 4.339626 1.238993 -1.024532 -4.799756
    8 4.827512 0.000000 -0.000002 -0.049667 0.153657 -0.702329
    9 11.140032 0.000000 0.000000 0.094886 -0.294419 -1.017507
    10 10.314563 -0.000001 0.000001 -3.988822 0.203081 -0.504208
    11 1.646836 0.445664 -1.699647 -0.161704 0.581044 -0.283978
    12 0.928312 0.000000 0.000000 0.000000 0.000000 0.000000
    13 0.928313 0.000000 -0.000001 0.000000 0.000000 0.000000
    14 2.979373 -0.388274 -0.044205 -0.000805 -0.043611 0.000046
    15 1.435262 -0.000001 -0.000001 0.000000 0.000000 0.872146
    16 1.482593 -0.000001 0.000001 0.000000 0.000000 0.907041
    17 -2.869899 1.399667 -4.140396 -1.163265 1.764468 -4.903713
    18 4.972047 0.000000 0.000000 1.333205 -0.786270 -2.003500
    19 11.585358 0.000000 0.000001 0.386603 -0.383187 -1.576975
    20 10.127058 0.000000 0.000001 2.024155 0.628946 0.776086
    21 1.537458 0.109715 1.664489 -0.264662 -0.055995 0.783079
    22 0.928313 0.000000 0.000002 0.000000 0.000000 -0.453501
    23 0.928311 0.000000 0.000001 0.000000 0.000000 0.000000
    24 2.686395 -0.427337 0.044204 -0.005762 0.043239 -0.157074
    25 1.435260 0.000000 0.000001 0.000000 0.000000 0.732613
    26 1.482593 0.000000 -0.000001 0.000000 0.000000 1.168644
    27 2.046984 0.000001 0.000000 0.307009 0.468721 -0.566324
    28 -0.000005 0.000007 3.713254 -3.203301 -0.121085 1.237824
    29 18.045723 0.000000 0.000000 0.000000 0.000000 -1.759946
    30 17.597597 0.000000 0.000000 -0.210228 0.105145 -0.138100
    31 0.000005 -0.000003 -3.713254 0.847866 2.463777 5.484448
    32 18.045721 0.000000 0.000000 0.000000 0.000000 -2.603394
    33 17.597597 0.000000 0.000000 0.359905 -0.164683 0.792321
  time 6
    0 -1.756901 -2.027255 -20.585090 0.000000 0.000000 -1.571017
    1 -5.070471 0.304697 0.000000 -1.570795 -1.570787 0.000000
    2 1.293670 0.684478 -0.000001 -0.162437 -0.054878 0.077556
    3 5.309685 -0.003834 0.000000 0.034885 0.055237 0.011510
    4 4.826790 -0.004591 0.000000 -0.040666 -0.033641 0.172582
    5 5.792767 -0.005304 0.000000 0.091450 0.092257 0.117749
    6 6.662322 -0.001452 0.000000 0.068348 0.047581 0.184420
    7 -3.108188 1.516823 4.339626 1.238993 -1.024532 -4.799756
    8 4.827512 0.000000 -0.000002 -0.092954 0.078786 -0.723818
    9 11.140032 0.000000 0.000000 0.094387 -0.283634 -1.012436
    10 10.314563 -0.000001 0.000001 -3.988822 0.203081 -0.504208
    11 1.646836 0.445664 -1.699647 -0.161704 0.581044 -0.283978
    12 0.928312 0.000000 0.000000 0.000000 0.000000 0.000000
    13 0.928313 0.000000 -0.000001 0.000000 0.000000 0.000000
    14 2.979373 -0.388274 -0.044205 -0.000805 -0.043611 0.000046
    15 1.435262 -0.000001 -0.000001 0.000000 0.000000 0.872146
    16 1.482593 -0.000001 0.000001 0.000000 0.000000 0.907041
    17 -2.869899 1.399667 -4.140396 -1.163265 1.764468 -4.903713
    18 4.972047 0.000000 0.000000 1.327108 -0.735088 -1.987793
    19 11.585358 0.000000 0.000001 0.386603 -0.383028 -1.587756
    20 10.127058 0.000000 0.000001 2.005292 0.630932 0.754327
    21 1.537458 0.109715 1.664489 -0.264662 -0.055995 0.783079
    22 0.928313 0.000000 0.000002 0.000000 0.000000 -0.453501
    23 0.928311 0.000000 0.000001 0.000000 0.000000 0.000000
    24 2.686395 -0.427337 0.044204 -0.005762 0.043239 -0.157074
    25 1.435260 0.000000 0.000001 0.000000 0.000000 0.732613
    26 1.482593 0.000000 -0.000001 0.000000 0.000000 1.168644
    27 2.046984 0.000001 0.000000 0.307009 0.468721 -0.566324
    28 -0.000005 0.000007 3.713254 -3.203206 -0.121085 1.237824
    29 18.045723 0.000000 0.000000 0.000000 0.000000 -1.760168
    30 17.597597 0.000000 0.000000 -0.210177 0.105096 -0.137917
    31 0.000005 -0.000003 -3.713254 0.847866 2.463872 5.484831
    32 18.045721 0.000000 0.000000 0.000000 0.000000 -2.603394
    33 17.597597 0.000000 0.000000 0.359670 -0.164466 0.792690
  time 7
    0 -1.756901 -2.027255 -20.585090 0.000000 0.000000 -1.571017
    1 -5.070471 0.304697 0.000000 -1.570795 -1.570787 0.000000
    2 1.293670 0.684478 -0.000001 -0.162437 -0.054878 0.077556
    3 5.309685 -0.003834 0.000000 0.030886 0.055692 0.006864
    4 4.826790 -0.004591 0.000000 -0.044672 -0.033293 0.162638
    5 5.792767 -0.005304 0.000000 0.086413 0.094774 0.110254
    6 6.662322 -0.001452 0.000000 0.066419 0.050453 0.182455
    7 -3.108188 1.516823 4.339626 1.238993 -1.024532 -4.799756
    8 4.827512 0.000000 -0.000002 -0.139190 -0.001371 -0.747561
    9 11.140032 0.000000 0.000000 0.093731 -0.270627 -1.005408
    10 10.314563 -0.000001 0.000001 -3.988822 0.203081 -0.504208
    11 1.646836 0.445664 -1.699647 -0.161704 0.581044 -0.283978
    12 0.928312 0.000000 0.000000 0.000000 0.000000 0.000000
    13 0.928313 0.000000 -0.000001 0.000000 0.000000 0.000000
    14 2.979373 -0.388274 -0.044205 -0.000805 -0.043611 0.000046
    15 1.435262 -0.000001 -0.000001 0.000000 0.000000 0.872146
    16 1.482593 -0.000001 0.000001 0.000000 0.000000 0.907041
    17 -2.869899 1.399667 -4.140396 -1.163265 1.764468 -4.903713
    18 4.972047 0.000000 0.000000 1.320449 -0.680289 -1.970555
    19 11.585358 0.000000 0.000001 0.386603 -0.382847 -1.599355
    20 10.127058 0.000000 0.000001 1.985026 0.633012 0.731067
    21 1.537458 0.109715 1.664489 -0.264662 -0.055995 0.783079
    22 0.928313 0.000000 0.000002 0.000000 0.000000 -0.453501
    23 0.928311 0.000000 0.000001 0.000000 0.000000 0.000000
    24 2.686395 -0.427337 0.044204 -0.005762 0.043239 -0.157074
    25 1.435260 0.000000 0.000001 0.000000 0.000000 0.732613
    26 1.482593 0.000000 -0.000001 0.000000 0.000000 1.168644
    27 2.046984 0.000001 0.000000 0.307009 0.468721 -0.566324
    28 -0.000005 0.000007 3.713254 -3.203206 -0.121085 1.237728
    29 18.045723 0.000000 0.000000 0.000000 0.000000 -1.760316
    30 17.597597 0.000000 0.000000 -0.210177 0.105022 -0.137825
    31 0.000005 -0.000003 -3.713254 0.847866 2.463968 5.485119
    32 18.045721 0.000000 0.000000 0.000000 0.000000 -2.603394
    33 17.597597 0.000000 0.000000 0.359536 -0.164328 0.792921
  time 8
    0 -1.756901 -2.027255 -20.585090 0.000000 0.000000 -1.571017
    1 -5.070471 0.304697 0.000000 -1.570795 -1.570787 0.000000
    2 1.293670 0.684478 -0.000001 -0.162437 -0.054878 0.077556
    3 5.309685 -0.003834 0.000000 0.026632 0.056184 0.001901
    4 4.826790 -0.004591 0.000000 -0.048945 -0.032910 0.152033
    5 5.792767 -0.005304 0.000000 0.081035 0.097459 0.102260
    6 6.662322 -0.001452 0.000000 0.064357 0.053532 0.180319
    7 -3.108188 1.516823 4.339626 1.238993 -1.024532 -4.799756
    8 4.827512 0.000000 -0.000002 -0.186860 -0.084086 -0.773209
    9 11.140032 0.000000 0.000000 0.092920 -0.255323 -0.996134
    10 10.314563 -0.000001 0.000001 -3.988822 0.203081 -0.504208
    11 1.646836 0.445664 -1.699647 -0.161704 0.581044 -0.283978
    12 0.928312 0.000000 0.000000 0.000000 0.000000 0.000000
    13 0.928313 0.000000 -0.000001 0.000000 0.000000 0.000000
    14 2.979373 -0.388274 -0.044205 -0.000805 -0.043611 0.000046
    15 1.435262 -0.000001 -0.000001 0.000000 0.000000 0.872146
    16 1.482593 -0.000001 0.000001 0.000000 0.000000 0.907041
    17 -2.869899 1.399667 -4.140396 -1.163265 1.764468 -4.903713
    18 4.972047 0.000000 0.000000 1.313132 -0.623804 -1.952119
    19 11.585358 0.000000 0.000001 0.386603 -0.382665 -1.611280
    20 10.127058 0.000000 0.000001 1.964129 0.635187 0.707057
    21 1.537458 0.109715 1.664489 -0.264662 -0.055995 0.783079
    22 0.928313 0.000000 0.000002 0.000000 0.000000 -0.453501
    23 0.928311 0.000000 0.000001 0.000000 0.000000 0.000000
    24 2.686395 -0.427337 0.044204 -0.005762 0.043239 -0.157074
    25 1.435260 0.000000 0.000001 0.000000 0.000000 0.732613
    26 1.482593 0.000000 -0.000001 0.000000 0.000000 1.168644
    27 2.046984 0.000001 0.000000 0.307009 0.468721 -0.566324
    28 -0.000005 0.000007 3.713254 -3.203206 -0.121085 1.237824
    29 18.045723 0.000000 0.000000 0.000000 0.000000 -1.760168
    30 17.597597 0.000000 0.000000 -0.210228 0.105022 -0.137871
    31 0.000005 -0.000003 -3.713254 0.848057 2.463777 5.484927
    32 18.045721 0.000000 0.000000 0.000000 0.000000 -2.603394
    33 17.597597 0.000000 0.000000 0.359536 -0.164466 0.792736
  time 9
    0 -1.756901 -2.027255 -20.585090 0.000000 0.000000 -1.571017
    1 -5.082190 0.304697 0.000000 -1.570795 -1.570787 0.000000
    2 1.293670 0.684478 -0.000001 -0.162437 -0.054878 0.077556
    3 5.309685 -0.003834 0.000000 0.022173 0.056687 -0.003292
    4 4.826790 -0.004591 0.000000 -0.053408 -0.032526 0.140965
    5 5.792767 -0.005304 0.000000 0.075423 0.100263 0.093913
    6 6.662322 -0.001452 0.000000 0.062200 0.056748 0.178126
    7 -3.108188 1.516823 4.339626 1.238993 -1.024532 -4.799756
    8 4.827512 0.000000 -0.000002 -0.234611 -0.166802 -0.800157
    9 11.140032 0.000000 0.000000 0.087114 -0.235276 -0.984541
    10 10.314563 -0.000001 0.000001 -3.988822 0.203081 -0.504208
    11 1.646836 0.445664 -1.699647 -0.161704 0.581044 -0.283978
    12 0.928312 0.000000 0.000000 0.000000 0.000000 0.000000
    13 0.928313 0.000000 -0.000001 0.000000 0.000000 0.000000
    14 2.979373 -0.388274 -0.044205 -0.000805 -0.043611 0.000046
    15 1.435262 -0.000001 -0.000001 0.000000 0.000000 0.872146
    16 1.482593 -0.000001 0.000001 0.000000 0.000000 0.907041
    17 -2.869899 1.399667 -4.140396 -1.163265 1.764468 -4.903713
    18 4.972047 0.000000 0.000000 1.305441 -0.567318 -1.933018
    19 11.585358 0.000000 0.000001 0.386603 -0.382484 -1.623287
    20 10.127058 0.000000 0.000001 1.943302 0.637362 0.683046
    21 1.537458 0.109715 1.664489 -0.264662 -0.055995 0.783079
    22 0.928313 0.000000 0.000002 0.000000 0.000000 -0.453501
    23 0.928311 0.000000 0.000001 0.000000 0.000000 0.000000
    24 2.686395 -0.427337 0.044204 -0.005762 0.043239 -0.157074
    25 1.435260 0.000000 0.000001 0.000000 0.000000 0.732613
    26 1.482593 0.000000 -0.000001 0.000000 0.000000 1.168644
    27 2.046984 0.000001 0.000000 0.307009 0.468721 -0.566324
    28 -0.000005 0.000007 3.713254 -3.203301 -0.120893 1.237824
    29 18.045723 0.000000 0.000000 0.000000 0.000000 -1.759724
    30 17.597597 0.000000 0.000000 -0.210380 0.105096 -0.138284
    31 0.000005 -0.000003 -3.713254 0.848057 2.463297 5.484256
    32 18.045721 0.000000 0.000000 0.000000 0.000000 -2.603394
    33 17.597597 0.000000 0.000000 0.359771 -0.164959 0.791997
  time 10
    0 -1.756901 -2.027255 -20.585090 0.000000 0.000000 -1.571017
    1 -5.093909 0.316416 0.000000 -1.570795 -1.570787 0.000000
    2 1.293670 0.684478 -0.000001 -0.162437 -0.054878 0.077556
    3 5.309685 -0.003834 0.000000 0.017647 0.057202 -0.008574
    4 4.826790 -0.004591 0.000000 -0.057967 -0.032131 0.129654
    5 5.792767 -0.005304 0.000000 0.069684 0.103127 0.085401
    6 6.662322 -0.001452 0.000000 0.060007 0.060019 0.175876
    7 -3.108188 1.516823 4.339626 1.238993 -1.024532 -4.799756
    8 4.827512 0.000000 -0.000002 -0.280847 -0.246959 -0.827885
    9 11.140032 0.000000 0.000000 0.073381 -0.209461 -0.971137
    10 10.314563 -0.000001 0.000001 -3.988822 0.203081 -0.504208
    11 1.646836 0.445664 -1.699647 -0.161704 0.581044 -0.283978
    12 0.928312 0.000000 0.000000 0.000000 0.000000 0.000000
    13 0.928313 0.000000 -0.000001 0.000000 0.000000 0.000000
    14 2.979373 -0.388274 -0.044205 -0.000805 -0.043611 0.000046
    15 1.435262 -0.000001 -0.000001 0.000000 0.000000 0.872146
    16 1.482593 -0.000001 0.000001 0.000000 0.000000 0.907041
    17 -2.869899 1.399667 -4.140396 -1.163265 1.764468 -4.903713
    18 4.972047 0.000000 0.000000 1.297562 -0.512600 -1.913451
    19 11.585358 0.000000 0.000001 0.386603 -0.382302 -1.634804
    20 10.127058 0.000000 0.000001 1.923037 0.639443 0.659836
    21 1.537458 0.109715 1.664489 -0.264662 -0.055995 0.783079
    22 0.928313 0.000000 0.000002 0.000000 0.000000 -0.453501
    23 0.928311 0.000000 0.000001 0.000000 0.000000 0.000000
    24 2.686395 -0.427337 0.044204 -0.005762 0.043239 -0.157074
    25 1.435260 0.000000 0.000001 0.000000 0.000000 0.732613
    26 1.482593 0.000000 -0.000001 0.000000 0.000000 1.168644
    27 2.046984 0.000001 0.000000 0.307009 0.468721 -0.566324
    28 -0.000005 0.000007 3.713254 -3.203493 -0.120701 1.238016
    29 18.045723 0.000000 0.000000 0.000000 0.000000 -1.758836
    30 17.597597 0.000000 0.000000 -0.210608 0.105219 -0.139017
    31 0.000005 -0.000003 -3.713254 0.848153 2.462530 5.483010
    32 18.045721 0.000000 0.000000 0.000000 0.000000 -2.603394
    33 17.597597 0.000000 0.000000 0.360207 -0.165768 0.790796
  time 11
    0 -1.756901 -2.027255 -20.585090 0.000000 0.000000 -1.571017
    1 -5.113441 0.316416 0.000000 -1.570795 -1.570787 0.000000
    2 1.293670 0.684478 -0.000001 -0.162437 -0.054878 0.077556
    3 5.309685 -0.003834 0.000000 0.013103 0.057718 -0.013855
    4 4.826790 -0.004591 0.000000 -0.062526 -0.031735 0.118365
    5 5.792767 -0.005304 0.000000 0.063964 0.105980 0.076888
    6 6.662322 -0.001452 0.000000 0.057814 0.063290 0.173654
    7 -3.108188 1.516823 4.339626 1.238993 -1.024532 -4.799756
    8 4.827512 0.000000 -0.000002 -0.324053 -0.321915 -0.855960
    9 11.140032 0.000000 0.000000 0.054403 -0.180077 -0.955850
    10 10.314563 -0.000001 0.000001 -3.988822 0.203081 -0.504208
    11 1.646836 0.445664 -1.699647 -0.161704 0.581044 -0.283978
    12 0.928312 0.000000 0.000000 0.000000 0.000000 0.000000
    13 0.928313 0.000000 -0.000001 0.000000 0.000000 0.000000
    14 2.979373 -0.388274 -0.044205 -0.000805 -0.043611 0.000046
    15 1.435262 -0.000001 -0.000001 0.000000 0.000000 0.872146
    16 1.482593 -0.000001 0.000001 0.000000 0.000000 0.907041
    17 -2.869899 1.399667 -4.140396 -1.163265 1.764468 -4.903713
    18 4.972047 0.000000 0.000000 1.289401 -0.461337 -1.894017
    19 11.585358 0.000000 0.000001 0.386603 -0.382143 -1.645667
    20 10.127058 0.000000 0.000001 1.904103 0.641429 0.638077
    21 1.537458 0.109715 1.664489 -0.264662 -0.055995 0.783079
    22 0.928313 0.000000 0.000002 0.000000 0.000000 -0.453501
    23 0.928311 0.000000 0.000001 0.000000 0.000000 0.000000
    24 2.686395 -0.427337 0.044204 -0.005762 0.043239 -0.157074
    25 1.435260 0.000000 0.000001 0.000000 0.000000 0.732613
    26 1.482593 0.000000 -0.000001 0.000000 0.000000 1.168644
    27 2.046984 0.000001 0.000000 0.307009 0.468721 -0.566324
    28 -0.000005 0.000007 3.713254 -3.203781 -0.120510 1.238207
    29 18.045723 0.000000 0.000000 0.000000 0.000000 -1.757652
    30 17.597597 0.000000 0.000000 -0.210912 0.105367 -0.140118
    31 0.000005 -0.000003 -3.713254 0.848345 2.461572 5.481188
    32 18.045721 0.000000 0.000000 0.000000 0.000000 -2.603630
    33 17.597597 0.000000 0.000000 0.360878 -0.166971 0.789041
  time 12
    0 -1.756901 -2.027255 -20.585090 0.000000 0.000000 -1.571017
    1 -5.117348 0.316416 0.000000 -1.570795 -1.570787 0.000000
    2 1.293670 0.684478 -0.000001 -0.162437 -0.054878 0.077556
    3 5.309685 -0.003834 0.000000 0.008662 0.058221 -0.019030
    4 4.826790 -0.004591 0.000000 -0.066989 -0.031340 0.107297
    5 5.792767 -0.005304 0.000000 0.058334 0.108784 0.068562
    6 6.662322 -0.001452 0.000000 0.055668 0.066493 0.171433
    7 -3.108188 1.516823 4.339626 1.238993 -1.024532 -4.799756
    8 4.827512 0.000000 -0.000002 -0.362796 -0.389025 -0.883862
    9 11.140032 0.000000 0.000000 0.032867 -0.149244 -0.938896
    10 10.314563 -0.000001 0.000001 -3.988822 0.203081 -0.504208
    11 1.646836 0.445664 -1.699647 -0.161704 0.581044 -0.283978
    12 0.928312 0.000000 0.000000 0.000000 0.000000 0.000000
    13 0.928313 0.000000 -0.000001 0.000000 0.000000 0.000000
    14 2.979373 -0.388274 -0.044205 -0.000805 -0.043611 0.000046
    15 1.435262 -0.000001 -0.000001 0.000000 0.000000 0.872146
    16 1.482593 -0.000001 0.000001 0.000000 0.000000 0.907041
    17 -2.869899 1.399667 -4.140396 -1.163265 1.764468 -4.903713
    18 4.972047 0.000000 0.000000 1.281335 -0.415538 -1.874982
    19 11.585358 0.000000 0.000001 0.386603 -0.382007 -1.655387
    20 10.127058 0.000000 0.000001 1.887203 0.643131 0.618619
    21 1.537458 0.109715 1.664489 -0.264662 -0.055995 0.783079
    22 0.928313 0.000000 0.000002 0.000000 0.000000 -0.453501
    23 0.928311 0.000000 0.000001 0.000000 0.000000 0.000000
    24 2.686395 -0.427337 0.044204 -0.005762 0.043239 -0.157074
    25 1.435260 0.000000 0.000001 0.000000 0.000000 0.732613
    26 1.482593 0.000000 -0.000001 0.000000 0.000000 1.168644
    27 2.046984 0.000001 0.000000 0.307009 0.468721 -0.566324
    28 -0.000005 0.000007 3.713254 -3.203685 -0.120510 1.238207
    29 18.045723 0.000000 0.000000 0.000000 0.000000 -1.757430
    30 17.597597 0.000000 0.000000 -0.210912 0.105318 -0.140301
    31 0.000005 -0.000003 -3.713254 0.848632 2.461476 5.480996
    32 18.045721 0.000000 0.000000 0.000000 0.000000 -2.603394
    33 17.597597 0.000000 0.000000 0.361045 -0.167326 0.788764
  time 13
    0 -1.756901 -2.027255 -20.585090 0.000000 0.000000 -1.571017
    1 -5.101722 0.312510 0.000000 -1.570795 -1.570787 0.000000
    2 1.293670 0.684478 -0.000001 -0.162437 -0.054878 0.077556
    3 5.309685 -0.003834 0.000000 0.004390 0.058701 -0.023994
    4 4.826790 -0.004591 0.000000 -0.071262 -0.030968 0.096670
    5 5.792767 -0.005304 0.000000 0.052956 0.111481 0.060548
    6 6.662322 -0.001452 0.000000 0.053595 0.069571 0.169325
    7 -3.108188 1.516823 4.339626 1.238993 -1.024532 -4.799756
    8 4.827512 0.000000 -0.000002 -0.395559 -0.445732 -0.911070
    9 11.140032 0.000000 0.000000 0.011424 -0.119111 -0.920347
    10 10.314563 -0.000001 0.000001 -3.988822 0.203081 -0.504208
    11 1.646836 0.445664 -1.699647 -0.161704 0.581044 -0.283978
    12 0.928312 0.000000 0.000000 0.000000 0.000000 0.000000
    13 0.928313 0.000000 -0.000001 0.000000 0.000000 0.000000
    14 2.979373 -0.388274 -0.044205 -0.000805 -0.043611 0.000046
    15 1.435262 -0.000001 -0.000001 0.000000 0.000000 0.872146
    16 1.482593 -0.000001 0.000001 0.000000 0.000000 0.907041
    17 -2.869899 1.399667 -4.140396 -1.163265 1.764468 -4.903713
    18 4.972047 0.000000 0.000000 1.273362 -0.376729 -1.856812
    19 11.585358 0.000000 0.000001 0.386603 -0.381871 -1.663555
    20 10.127058 0.000000 0.000001 1.872828 0.644644 0.602111
    21 1.537458 0.109715 1.664489 -0.264662 -0.055995 0.783079
    22 0.928313 0.000000 0.000002 0.000000 0.000000 -0.453501
    23 0.928311 0.000000 0.000001 0.000000 0.000000 0.000000
    24 2.686395 -0.427337 0.044204 -0.005762 0.043239 -0.157074
    25 1.435260 0.000000 0.000001 0.000000 0.000000 0.732613
    26 1.482593 0.000000 -0.000001 0.000000 0.000000 1.168644
    27 2.046984 0.000001 0.000000 0.307009 0.468721 -0.566324
    28 -0.000005 0.000007 3.713254 -3.203493 -0.120701 1.238112
    29 18.045723 0.000000 0.000000 0.000000 0.000000 -1.758096
    30 17.597597 0.000000 0.000000 -0.210608 0.105145 -0.139705
    31 0.000005 -0.000003 -3.713254 0.848920 2.462243 5.482434
    32 18.045721 0.000000 0.000000 0.000000 0.000000 -2.603394
    33 17.597597 0.000000 0.000000 0.360643 -0.166813 0.790057
  time 14
    0 -1.756901 -2.027255 -20.585090 0.000000 0.000000 -1.571017
    1 -5.105629 0.312510 0.000000 -1.570795 -1.570787 0.000000
    2 1.293670 0.684478 -0.000001 -0.162437 -0.054878 0.077556
    3 5.309685 -0.003834 0.000000 0.000408 0.059156 -0.028639
    4 4.826790 -0.004591 0.000000 -0.075267 -0.030621 0.086726
    5 5.792767 -0.005304 0.000000 0.047919 0.113985 0.053073
    6 6.662322 -0.001452 0.000000 0.051666 0.072444 0.167360
    7 -3.108188 1.516823 4.339626 1.238993 -1.024532 -4.799756
    8 4.827512 0.000000 -0.000002 -0.420750 -0.489478 -0.937152
    9 11.140032 0.000000 0.000000 -0.007179 -0.091873 -0.900205
    10 10.314563 -0.000001 0.000001 -3.988822 0.203081 -0.504208
    11 1.646836 0.445664 -1.699647 -0.161704 0.581044 -0.283978
    12 0.928312 0.000000 0.000000 0.000000 0.000000 0.000000
    13 0.928313 0.000000 -0.000001 0.000000 0.000000 0.000000
    14 2.979373 -0.388274 -0.044205 -0.000805 -0.043611 0.000046
    15 1.435262 -0.000001 -0.000001 0.000000 0.000000 0.872146
    16 1.482593 -0.000001 0.000001 0.000000 0.000000 0.907041
    17 -2.869899 1.399667 -4.140396 -1.163265 1.764468 -4.903713
    18 4.972047 0.000000 0.000000 1.265670 -0.346839 -1.839907
    19 11.585358 0.000000 0.000001 0.386603 -0.381780 -1.669845
    20 10.127058 0.000000 0.000001 1.861818 0.645778 0.589456
    21 1.537458 0.109715 1.664489 -0.264662 -0.055995 0.783079
    22 0.928313 0.000000 0.000002 0.000000 0.000000 -0.453501
    23 0.928311 0.000000 0.000001 0.000000 0.000000 0.000000
    24 2.686395 -0.427337 0.044204 -0.005762 0.043239 -0.157074
    25 1.435260 0.000000 0.000001 0.000000 0.000000 0.732613
    26 1.482593 0.000000 -0.000001 0.000000 0.000000 1.168644
    27 2.046984 0.000001 0.000000 0.307009 0.468721 -0.566324
    28 -0.000005 0.000007 3.713254 -3.203493 -0.120701 1.238112
    29 18.045723 0.000000 0.000000 0.000000 0.000000 -1.758022
    30 17.597597 0.000000 0.000000 -0.210608 0.105096 -0.139797
    31 0.000005 -0.000003 -3.713254 0.849207 2.462243 5.482434
    32 18.045721 0.000000 0.000000 0.000000 0.000000 -2.603394
    33 17.597597 0.000000 0.000000 0.360744 -0.167030 0.790011
  time 15
    0 -1.756901 -2.027255 -20.585090 0.000000 0.000000 -1.571017
    1 -5.125160 0.316416 0.000000 -1.570795 -1.570787 0.000000
    2 1.293670 0.684478 -0.000001 -0.162437 -0.054878 0.077556
    3 5.309685 -0.003834 0.000000 -0.003199 0.059575 -0.032861
    4 4.826790 -0.004591 0.000000 -0.078911 -0.030309 0.077708
    5 5.792767 -0.005304 0.000000 0.043332 0.116275 0.046263
    6 6.662322 -0.001452 0.000000 0.049916 0.075069 0.165566
    7 -3.108188 1.516823 4.339626 1.238993 -1.024532 -4.799756
    8 4.827512 0.000000 -0.000002 -0.437012 -0.517618 -0.961587
    9 11.140032 0.000000 0.000000 -0.020319 -0.069629 -0.878614
    10 10.314563 -0.000001 0.000001 -3.988822 0.203081 -0.504208
    11 1.646836 0.445664 -1.699647 -0.161704 0.581044 -0.283978
    12 0.928312 0.000000 0.000000 0.000000 0.000000 0.000000
    13 0.928313 0.000000 -0.000001 0.000000 0.000000 0.000000
    14 2.979373 -0.388274 -0.044205 -0.000805 -0.043611 0.000046
    15 1.435262 -0.000001 -0.000001 0.000000 0.000000 0.872146
    16 1.482593 -0.000001 0.000001 0.000000 0.000000 0.907041
    17 -2.869899 1.399667 -4.140396 -1.163265 1.764468 -4.903713
    18 4.972047 0.000000 0.000000 1.258354 -0.327636 -1.824666
    19 11.585358 0.000000 0.000001 0.386603 -0.381712 -1.673929
    20 10.127058 0.000000 0.000001 1.854736 0.646535 0.581252
    21 1.537458 0.109715 1.664489 -0.264662 -0.055995 0.783079
    22 0.928313 0.000000 0.000002 0.000000 0.000000 -0.453501
    23 0.928311 0.000000 0.000001 0.000000 0.000000 0.000000
    24 2.686395 -0.427337 0.044204 -0.005762 0.043239 -0.157074
    25 1.435260 0.000000 0.000001 0.000000 0.000000 0.732613
    26 1.482593 0.000000 -0.000001 0.000000 0.000000 1.168644
    27 2.046984 0.000001 0.000000 0.307009 0.468721 -0.566324
    28 -0.000005 0.000007 3.713254 -3.203589 -0.120510 1.238207
    29 18.045723 0.000000 0.000000 0.000000 0.000000 -1.756985
    30 17.597597 0.000000 0.000000 -0.210887 0.105219 -0.140668
    31 0.000005 -0.000003 -3.713254 0.849207 2.461380 5.480900
    32 18.045721 0.000000 0.000000 0.000000 0.000000 -2.603394
    33 17.597597 0.000000 0.000000 0.361247 -0.168016 0.788579
  time 16
    0 -1.756901 -2.027255 -20.585090 0.000000 0.000000 -1.571017
    1 -5.132973 0.316416 0.000000 -1.570795 -1.570787 0.000000
    2 1.293670 0.684478 -0.000001 -0.162437 -0.054878 0.077556
    3 5.309685 -0.003834 0.000000 -0.006381 0.059935 -0.036553
    4 4.826790 -0.004591 0.000000 -0.082096 -0.030033 0.069815
    5 5.792767 -0.005304 0.000000 0.039339 0.118276 0.040304
    6 6.662322 -0.001452 0.000000 0.048382 0.077351 0.163999
    7 -3.108188 1.516823 4.339626 1.238993 -1.024532 -4.799756
    8 4.827512 0.000000 -0.000002 -0.442752 -0.527595 -0.983770
    9 11.140032 0.000000 0.000000 -0.025313 -0.054600 -0.855719
    10 10.314563 -0.000001 0.000001 -3.988822 0.203081 -0.504208
    11 1.646836 0.445664 -1.699647 -0.161704 0.581044 -0.283978
    12 0.928312 0.000000 0.000000 0.000000 0.000000 0.000000
    13 0.928313 0.000000 -0.000001 0.000000 0.000000 0.000000
    14 2.979373 -0.388274 -0.044205 -0.000805 -0.043611 0.000046
    15 1.435262 -0.000001 -0.000001 0.000000 0.000000 0.872146
    16 1.482593 -0.000001 0.000001 0.000000 0.000000 0.907041
    17 -2.869899 1.399667 -4.140396 -1.163265 1.764468 -4.903713
    18 4.972047 0.000000 0.000000 1.251600 -0.320806 -1.811488
    19 11.585358 0.000000 0.000001 0.386603 -0.381690 -1.675399
    20 10.127058 0.000000 0.000001 1.852211 0.646724 0.578351
    21 1.537458 0.109715 1.664489 -0.264662 -0.055995 0.783079
    22 0.928313 0.000000 0.000002 0.000000 0.000000 -0.453501
    23 0.928311 0.000000 0.000001 0.000000 0.000000 0.000000
    24 2.686395 -0.427337 0.044204 -0.005762 0.043239 -0.157074
    25 1.435260 0.000000 0.000001 0.000000 0.000000 0.732613
    26 1.482593 0.000000 -0.000001 0.000000 0.000000 1.168644
    27 2.046984 0.000001 0.000000 0.307009 0.468721 -0.566324
    28 -0.000005 0.000007 3.713254 -3.203781 -0.120318 1.238303
    29 18.045723 0.000000 0.000000 0.000000 0.000000 -1.756467
    30 17.597597 0.000000 0.000000 -0.211039 0.105293 -0.141080
    31 0.000005 -0.000003 -3.713254 0.849303 2.460901 5.480133
    32 18.045721 0.000000 0.000000 0.000000 0.000000 -2.603394
    33 17.597597 0.000000 0.000000 0.361515 -0.168509 0.787748
  time 17
    0 -1.756901 -2.027255 -20.585090 0.000000 0.000000 -1.571017
    1 -5.132973 0.316416 0.000000 -1.570795 -1.570787 0.000000
    2 1.293670 0.684478 -0.000001 -0.162437 -0.054878 0.077556
    3 5.309685 -0.003834 0.000000 -0.009002 0.060223 -0.039609
    4 4.826790 -0.004591 0.000000 -0.084728 -0.029794 0.063267
    5 5.792767 -0.005304 0.000000 0.036029 0.119930 0.035383
    6 6.662322 -0.001452 0.000000 0.047111 0.079247 0.162689
    7 -3.108188 1.516823 4.339626 1.238993 -1.024532 -4.799756
    8 4.827512 0.000000 -0.000002 -0.430316 -0.510881 -1.007338
    9 11.140032 0.000000 0.000000 -0.025313 -0.047260 -0.784063
    10 10.314563 -0.000001 0.000001 -3.988822 0.203081 -0.504208
    11 1.646836 0.445664 -1.699647 -0.161704 0.581044 -0.283978
    12 0.928312 0.000000 0.000000 0.000000 0.000000 0.000000
    13 0.928313 0.000000 -0.000001 0.000000 0.000000 0.000000
    14 2.979373 -0.388274 -0.044205 -0.000805 -0.043611 0.000046
    15 1.435262 -0.000001 -0.000001 0.000000 0.000000 0.872146
    16 1.482593 -0.000001 0.000001 0.000000 0.000000 0.907041
    17 -2.869899 1.399667 -4.140396 -1.163265 1.764468 -4.903713
    18 4.972047 0.000000 0.000000 1.238656 -0.336474 -1.797844
    19 11.585358 0.000000 0.000001 0.386603 -0.382552 -1.653917
    20 10.127058 0.000000 0.000001 1.852211 0.646724 0.578351
    21 1.537458 0.109715 1.664489 -0.264662 -0.055995 0.783079
    22 0.928313 0.000000 0.000002 0.000000 0.000000 -0.453501
    23 0.928311 0.000000 0.000001 0.000000 0.000000 0.000000
    24 2.686395 -0.427337 0.044204 -0.005762 0.043239 -0.157074
    25 1.435260 0.000000 0.000001 0.000000 0.000000 0.732613
    26 1.482593 0.000000 -0.000001 0.000000 0.000000 1.168644
    27 2.046984 0.000001 0.000000 0.307009 0.468721 -0.566324
    28 -0.000005 0.000007 3.713254 -3.203781 -0.120222 1.238399
    29 18.045723 0.000000 0.000000 0.000000 0.000000 -1.756319
    30 17.597597 0.000000 0.000000 -0.211115 0.105293 -0.141264
    31 0.000005 -0.000003 -3.713254 0.849303 2.460613 5.479846
    32 18.045721 0.000000 0.000000 0.000000 0.000000 -2.603394
    33 17.597597 0.000000 0.000000 0.361582 -0.168726 0.787471
  time 18
    0 -1.756901 -2.027255 -20.585090 0.000000 0.000000 -1.571017
    1 -5.132973 0.324229 0.000000 -1.570795 -1.570787 0.000000
    2 1.293670 0.684478 -0.000001 -0.162437 -0.054878 0.077556
    3 5.309685 -0.003834 0.000000 -0.010993 0.060450 -0.041922
    4 4.826790 -0.004591 0.000000 -0.086731 -0.029626 0.058328
    5 5.792767 -0.005304 0.000000 0.033511 0.121176 0.031667
    6 6.662322 -0.001452 0.000000 0.046141 0.080677 0.161721
    7 -3.108188 1.516823 4.339626 1.238993 -1.024532 -4.799756
    8 4.827512 0.000000 -0.000002 -0.414532 -0.474043 -1.024842
    9 11.140032 0.000000 0.000000 -0.025313 -0.039620 -0.715232
    10 10.314563 -0.000001 0.000001 -3.988822 0.203081 -0.504208
    11 1.646836 0.445664 -1.699647 -0.161704 0.581044 -0.283978
    12 0.928312 0.000000 0.000000 0.000000 0.000000 0.000000
    13 0.928313 0.000000 -0.000001 0.000000 0.000000 0.000000
    14 2.979373 -0.388274 -0.044205 -0.000805 -0.043611 0.000046
    15 1.435262 -0.000001 -0.000001 0.000000 0.000000 0.872146
    16 1.482593 -0.000001 0.000001 0.000000 0.000000 0.907041
    17 -2.869899 1.399667 -4.140396 -1.163265 1.764468 -4.903713
    18 4.972047 0.000000 0.000000 1.216895 -0.364918 -1.782803
    19 11.585358 0.000000 0.000001 0.386603 -0.383006 -1.630557
    20 10.127058 0.000000 0.000001 1.852211 0.646724 0.578351
    21 1.537458 0.109715 1.664489 -0.264662 -0.055995 0.783079
    22 0.928313 0.000000 0.000002 0.000000 0.000000 -0.453501
    23 0.928311 0.000000 0.000001 0.000000 0.000000 0.000000
    24 2.686395 -0.427337 0.044204 -0.005762 0.043239 -0.157074
    25 1.435260 0.000000 0.000001 0.000000 0.000000 0.732613
    26 1.482593 0.000000 -0.000001 0.000000 0.000000 1.168644
    27 2.046984 0.000001 0.000000 0.307009 0.468721 -0.566324
    28 -0.000005 0.000007 3.713254 -3.203781 -0.120222 1.238399
    29 18.045723 0.000000 0.000000 0.000000 0.000000 -1.756245
    30 17.597597 0.000000 0.000000 -0.211115 0.105293 -0.141355
    31 0.000005 -0.000003 -3.713254 0.849495 2.460613 5.479846
    32 18.045721 0.000000 0.000000 0.000000 0.000000 -2.603394
    33 17.597597 0.000000 0.000000 0.361515 -0.168746 0.787471
  time 19
    0 -1.756901 -2.027255 -20.585090 0.000000 0.000000 -1.571017
    1 -5.132973 0.316416 0.000000 -1.570795 -1.570787 0.000000
    2 1.293670 0.684478 -0.000001 -0.162437 -0.054878 0.077556
    3 5.309685 -0.003834 0.000000 -0.012252 0.060594 -0.043389
    4 4.826790 -0.004591 0.000000 -0.087990 -0.029518 0.055197
    5 5.792767 -0.005304 0.000000 0.031928 0.121979 0.029300
    6 6.662322 -0.001452 0.000000 0.045529 0.081584 0.161094
    7 -3.108188 1.516823 4.339626 1.238993 -1.024532 -4.799756
    8 4.827512 0.000000 -0.000002 -0.403451 -0.439848 -1.040092
    9 11.140032 0.000000 0.000000 -0.025313 -0.032380 -0.655168
    10 10.314563 -0.000001 0.000001 -3.988822 0.203081 -0.504208
    11 1.646836 0.445664 -1.699647 -0.161704 0.581044 -0.283978
    12 0.928312 0.000000 0.000000 0.000000 0.000000 0.000000
    13 0.928313 0.000000 -0.000001 0.000000 0.000000 0.000000
    14 2.979373 -0.388274 -0.044205 -0.000805 -0.043611 0.000046
    15 1.435262 -0.000001 -0.000001 0.000000 0.000000 0.872146
    16 1.482593 -0.000001 0.000001 0.000000 0.000000 0.907041
    17 -2.869899 1.399667 -4.140396 -1.163265 1.764468 -4.903713
    18 4.972047 0.000000 0.000000 1.196728 -0.391754 -1.770290
    19 11.585358 0.000000 0.000001 0.386603 -0.383391 -1.611035
    20 10.127058 0.000000 0.000001 1.852211 0.646724 0.578351
    21 1.537458 0.109715 1.664489 -0.264662 -0.055995 0.783079
    22 0.928313 0.000000 0.000002 0.000000 0.000000 -0.453501
    23 0.928311 0.000000 0.000001 0.000000 0.000000 0.000000
    24 2.686395 -0.427337 0.044204 -0.005762 0.043239 -0.157074
    25 1.435260 0.000000 0.000001 0.000000 0.000000 0.732613
    26 1.482593 0.000000 -0.000001 0.000000 0.000000 1.168644
    27 2.046984 0.000001 0.000000 0.307009 0.468721 -0.566324
    28 -0.000005 0.000007 3.713254 -3.203781 -0.120222 1.238303
    29 18.045723 0.000000 0.000000 0.000000 0.000000 -1.756319
    30 17.597597 0.000000 0.000000 -0.211115 0.105244 -0.141218
    31 0.000005 -0.000003 -3.713254 0.849495 2.460613 5.480038
    32 18.045721 0.000000 0.000000 0.000000 0.000000 -2.603394
    33 17.597597 0.000000 0.000000 0.361448 -0.168746 0.787563
  time 20
    0 -1.756901 -2.027255 -20.585090 0.000000 0.000000 -1.571017
    1 -5.132973 0.316416 0.000000 -1.570795 -1.570787 0.000000
    2 1.293670 0.684478 -0.000001 -0.162437 -0.054878 0.077556
    3 5.309685 -0.003834 0.000000 -0.012695 0.060642 -0.043901
    4 4.826790 -0.004591 0.000000 -0.088429 -0.029470 0.054095
    5 5.792767 -0.005304 0.000000 0.031371 0.122255 0.028469
    6 6.662322 -0.001452 0.000000 0.045326 0.081900 0.160866
    7 -3.108188 1.516823 4.339626 1.238993 -1.024532 -4.799756
    8 4.827512 0.000000 -0.000002 -0.399784 -0.425608 -1.047977
    9 11.140032 0.000000 0.000000 -0.025313 -0.028885 -0.626187
    10 10.314563 -0.000001 0.000001 -3.988822 0.203081 -0.504208
    11 1.646836 0.445664 -1.699647 -0.161704 0.581044 -0.283978
    12 0.928312 0.000000 0.000000 0.000000 0.000000 0.000000
    13 0.928313 0.000000 -0.000001 0.000000 0.000000 0.000000
    14 2.979373 -0.388274 -0.044205 -0.000805 -0.043611 0.000046
    15 1.435262 -0.000001 -0.000001 0.000000 0.000000 0.872146
    16 1.482593 -0.000001 0.000001 0.000000 0.000000 0.907041
    17 -2.869899 1.399667 -4.140396 -1.163265 1.764468 -4.903713
    18 4.972047 0.000000 0.000000 1.188193 -0.403325 -1.765432
    19 11.585358 0.000000 0.000001 0.386603 -0.383573 -1.601969
    20 10.127058 0.000000 0.000001 1.852211 0.646724 0.578351
    21 1.537458 0.109715 1.664489 -0.264662 -0.055995 0.783079
    22 0.928313 0.000000 0.000002 0.000000 0.000000 -0.453501
    23 0.928311 0.000000 0.000001 0.000000 0.000000 0.000000
    24 2.686395 -0.427337 0.044204 -0.005762 0.043239 -0.157074
    25 1.435260 0.000000 0.000001 0.000000 0.000000 0.732613
    26 1.482593 0.000000 -0.000001 0.000000 0.000000 1.168644
    27 2.046984 0.000001 0.000000 0.307009 0.468721 -0.566324
    28 -0.000005 0.000007 3.713254 -3.204068 -0.120606 1.238399
    29 18.045723 0.000000 0.000000 0.000000 0.000000 -1.756393
    30 17.597597 0.000000 0.000000 -0.210887 0.105637 -0.141218
    31 0.000005 -0.000003 -3.713254 0.848441 2.461380 5.479079
    32 18.045721 0.000000 0.000000 0.000000 0.000000 -2.603394
    33 17.597597 0.000000 0.000000 0.362388 -0.168095 0.787471
end
