version 1
nodes
  0 "Bip01" -1
  1 "Bip01 Pelvis" 0
  2 "Bip01 Spine" 1
  3 "Bip01 Spine1" 2
  4 "Bip01 Spine2" 3
  5 "Bip01 Spine3" 4
  6 "Bip01 Neck" 5
  7 "Bip01 L Arm" 6
  8 "Bip01 L Arm1" 7
  9 "Bip01 L Arm2" 8
  10 "Bip01 L Hand" 9
  11 "Bip01 L Finger0" 10
  12 "Bip01 L Finger01" 11
  13 "Bip01 L Finger02" 12
  14 "Bip01 L Finger1" 10
  15 "Bip01 L Finger11" 14
  16 "Bip01 L Finger12" 15
  17 "Bip01 R Arm" 6
  18 "Bip01 R Arm1" 17
  19 "Bip01 R Arm2" 18
  20 "Bip01 R Hand" 19
  21 "Bip01 R Finger0" 20
  22 "Bip01 R Finger01" 21
  23 "Bip01 R Finger02" 22
  24 "Bip01 R Finger1" 20
  25 "Bip01 R Finger11" 24
  26 "Bip01 R Finger12" 25
  27 "Bip01 Head" 6
  28 "Bip01 L Leg" 1
  29 "Bip01 L Leg1" 28
  30 "Bip01 L Foot" 29
  31 "Bip01 R Leg" 1
  32 "Bip01 R Leg1" 31
  33 "Bip01 R Foot" 32
end
skeleton
  time 0
    0 -0.081068 -1.105351 -20.600716 0.000000 0.000000 -1.585458
    1 -3.750118 0.328135 0.000000 -1.570795 -1.570787 0.000000
    2 1.293670 0.684478 -0.000001 -0.000004 -0.000001 0.266110
    3 5.309685 -0.003834 0.000000 -0.256192 0.054338 0.133937
    4 4.826790 -0.004591 0.000000 0.000000 0.000000 0.007484
    5 5.792767 -0.005304 0.000000 0.000000 0.000000 0.055731
    6 6.662322 -0.001452 0.000000 0.000000 -0.000001 0.209256
    7 -3.393353 0.665235 4.339626 1.008275 -1.207595 -4.328810
    8 4.827512 0.000000 -0.000002 -0.472008 0.253512 -1.310355
    9 11.140032 0.000000 0.000000 0.000000 0.000000 -1.932956
    10 10.314563 -0.000001 0.000001 -1.068291 -0.403165 -0.135215
    11 1.646836 0.445664 -1.699647 0.153911 0.442352 0.277231
    12 0.928312 0.000000 0.000000 0.000000 0.000000 0.000000
    13 0.928313 0.000000 -0.000001 0.000000 0.000000 0.000000
    14 2.979373 -0.388274 -0.044205 0.001088 -0.043611 -0.043599
    15 1.435262 -0.000001 -0.000001 0.000000 0.000000 1.334445
    16 1.482593 -0.000001 0.000001 0.000000 0.000000 0.793674
    17 -3.131626 0.610580 -4.140396 -1.212846 1.046082 -4.514462
    18 4.972047 0.000000 0.000000 0.838230 -0.709215 -0.588666
    19 11.585358 0.000000 0.000001 0.000000 0.000000 -2.415418
    20 10.127058 0.000000 0.000001 1.510287 0.765213 -0.200784
    21 1.537458 0.109715 1.664489 -0.264662 -0.055995 0.783079
    22 0.928313 0.000000 0.000002 0.000000 0.000000 -0.453501
    23 0.928311 0.000000 0.000001 0.000000 0.000000 0.000000
    24 2.686395 -0.427337 0.044204 -0.005762 0.043239 -0.157074
    25 1.435260 0.000000 0.000001 0.000000 0.000000 0.732613
    26 1.482593 0.000000 -0.000001 0.000000 0.000000 1.168644
    27 2.046984 0.000001 0.000000 0.221188 0.141174 -1.043099
    28 -0.000005 0.000007 3.713254 -3.289492 -0.165667 1.249615
    29 18.045723 0.000000 0.000000 0.000000 0.000000 -1.732931
    30 17.597597 0.000000 0.000000 -0.251303 0.197727 -0.164416
    31 0.000005 -0.000003 -3.713254 0.821030 2.312882 5.492692
    32 18.045721 0.000000 0.000000 0.000000 0.000000 -2.673768
    33 17.597597 0.000000 0.000000 0.380640 0.034308 0.755924
  time 1
    0 -0.081068 -1.105351 -20.600716 0.000000 0.000000 -1.585458
    1 -3.890748 0.355480 0.000000 -1.570795 -1.570787 0.000000
    2 1.293670 0.684478 -0.000001 -0.000004 -0.000001 0.266110
    3 5.309685 -0.003834 0.000000 -0.254677 0.061145 0.160026
    4 4.826790 -0.004591 0.000000 0.043833 -0.004554 0.007352
    5 5.792767 -0.005304 0.000000 0.002572 0.000899 0.060008
    6 6.662322 -0.001452 0.000000 0.000000 -0.000001 0.209256
    7 -3.393353 0.665235 4.339626 1.066553 -1.173531 -4.383139
    8 4.827512 0.000000 -0.000002 -0.577314 -0.371032 -1.069813
    9 11.140032 0.000000 0.000000 0.000000 0.000000 -1.701757
    10 10.314563 -0.000001 0.000001 -1.267889 -0.391550 -0.183814
    11 1.646836 0.445664 -1.699647 0.153911 0.442352 0.277231
    12 0.928312 0.000000 0.000000 0.000000 0.000000 0.000000
    13 0.928313 0.000000 -0.000001 0.000000 0.000000 0.000000
    14 2.979373 -0.388274 -0.044205 0.001088 -0.043611 -0.043599
    15 1.435262 -0.000001 -0.000001 0.000000 0.000000 1.334445
    16 1.482593 -0.000001 0.000001 0.000000 0.000000 0.793674
    17 -3.131626 0.610580 -4.140396 -1.207592 1.052155 -4.509865
    18 4.972047 0.000000 0.000000 1.045244 -0.258374 -1.134354
    19 11.585358 0.000000 0.000001 0.000000 0.000000 -1.852154
    20 10.127058 0.000000 0.000001 1.604954 0.699302 -0.117399
    21 1.537458 0.109715 1.664489 -0.264662 -0.055995 0.783079
    22 0.928313 0.000000 0.000002 0.000000 0.000000 -0.453501
    23 0.928311 0.000000 0.000001 0.000000 0.000000 0.000000
    24 2.686395 -0.427337 0.044204 -0.005762 0.043239 -0.157074
    25 1.435260 0.000000 0.000001 0.000000 0.000000 0.732613
    26 1.482593 0.000000 -0.000001 0.000000 0.000000 1.168644
    27 2.046984 0.000001 0.000000 0.186291 0.110048 -1.078684
    28 -0.000005 0.000007 3.713254 -3.291122 -0.164324 1.251148
    29 18.045723 0.000000 0.000000 0.000000 0.000000 -1.723753
    30 17.597597 0.000000 0.000000 -0.252748 0.198563 -0.172210
    31 0.000005 -0.000003 -3.713254 0.823042 2.307609 5.477449
    32 18.045721 0.000000 0.000000 0.000000 0.000000 -2.673532
    33 17.597597 0.000000 0.000000 0.388893 0.023341 0.745255
  time 2
    0 -0.081068 -1.105351 -20.600716 0.000000 0.000000 -1.585458
    1 -4.047003 0.378918 0.000000 -1.570795 -1.570787 0.000000
    2 1.293670 0.684478 -0.000001 -0.000004 -0.000001 0.266110
    3 5.309685 -0.003834 0.000000 -0.252873 0.068408 0.188076
    4 4.826790 -0.004591 0.000000 0.090851 -0.009492 0.007044
    5 5.792767 -0.005304 0.000000 0.006925 0.002373 0.067192
    6 6.662322 -0.001452 0.000000 0.000000 -0.000001 0.209256
    7 -3.393353 0.665235 4.339626 1.115055 -1.139053 -4.427694
    8 4.827512 0.000000 -0.000002 -0.722957 -0.776850 -0.805356
    9 11.140032 0.000000 0.000000 0.000000 0.000000 -1.365356
    10 10.314563 -0.000001 0.000001 -1.459622 -0.480820 -0.244084
    11 1.646836 0.445664 -1.699647 0.153911 0.442352 0.277231
    12 0.928312 0.000000 0.000000 0.000000 0.000000 0.000000
    13 0.928313 0.000000 -0.000001 0.000000 0.000000 0.000000
    14 2.979373 -0.388274 -0.044205 0.001088 -0.043611 -0.043599
    15 1.435262 -0.000001 -0.000001 0.000000 0.000000 1.334445
    16 1.482593 -0.000001 0.000001 0.000000 0.000000 0.793674
    17 -3.131626 0.610580 -4.140396 -1.212846 1.046082 -4.514462
    18 4.972047 0.000000 0.000000 0.965140 0.314839 -1.316715
    19 11.585358 0.000000 0.000001 0.000000 0.000000 -1.362974
    20 10.127058 0.000000 0.000001 1.686508 0.629608 -0.047618
    21 1.537458 0.109715 1.664489 -0.264662 -0.055995 0.783079
    22 0.928313 0.000000 0.000002 0.000000 0.000000 -0.453501
    23 0.928311 0.000000 0.000001 0.000000 0.000000 0.000000
    24 2.686395 -0.427337 0.044204 -0.005762 0.043239 -0.157074
    25 1.435260 0.000000 0.000001 0.000000 0.000000 0.732613
    26 1.482593 0.000000 -0.000001 0.000000 0.000000 1.168644
    27 2.046984 0.000001 0.000000 0.150489 0.072992 -1.118040
    28 -0.000005 0.000007 3.713254 -3.292656 -0.162886 1.252874
    29 18.045723 0.000000 0.000000 0.000000 0.000000 -1.713835
    30 17.597597 0.000000 0.000000 -0.254344 0.199449 -0.180463
    31 0.000005 -0.000003 -3.713254 0.824768 2.302049 5.460960
    32 18.045721 0.000000 0.000000 0.000000 0.000000 -2.673453
    33 17.597597 0.000000 0.000000 0.397952 0.011783 0.733615
  time 3
    0 -0.081068 -1.105351 -20.600716 0.000000 0.000000 -1.585458
    1 -4.175913 0.398450 0.000000 -1.570795 -1.570787 0.000000
    2 1.293670 0.684478 -0.000001 -0.000004 -0.000001 0.266110
    3 5.309685 -0.003834 0.000000 -0.251138 0.074628 0.212328
    4 4.826790 -0.004591 0.000000 0.131537 -0.013686 0.006580
    5 5.792767 -0.005304 0.000000 0.007825 0.002661 0.068583
    6 6.662322 -0.001452 0.000000 0.000000 -0.000001 0.209256
    7 -3.393353 0.665235 4.339626 1.153300 -1.107148 -4.461901
    8 4.827512 0.000000 -0.000002 -0.433584 -1.112743 -1.014964
    9 11.140032 0.000000 0.000000 0.000000 0.000000 -0.724361
    10 10.314563 -0.000001 0.000001 -1.643298 -0.394454 -0.277703
    11 1.646836 0.445664 -1.699647 0.153911 0.442352 0.277231
    12 0.928312 0.000000 0.000000 0.000000 0.000000 0.000000
    13 0.928313 0.000000 -0.000001 0.000000 0.000000 0.000000
    14 2.979373 -0.388274 -0.044205 0.001088 -0.043611 -0.043599
    15 1.435262 -0.000001 -0.000001 0.000000 0.000000 1.334445
    16 1.482593 -0.000001 0.000001 0.000000 0.000000 0.793674
    17 -3.131626 0.610580 -4.140396 -1.268446 0.972837 -4.561682
    18 4.972047 0.000000 0.000000 0.814593 0.690794 -1.405500
    19 11.585358 0.000000 0.000001 0.000000 0.000000 -0.843245
    20 10.127058 0.000000 0.000001 1.751443 0.563319 0.006605
    21 1.537458 0.109715 1.664489 -0.264662 -0.055995 0.783079
    22 0.928313 0.000000 0.000002 0.000000 0.000000 -0.453501
    23 0.928311 0.000000 0.000001 0.000000 0.000000 0.000000
    24 2.686395 -0.427337 0.044204 -0.005762 0.043239 -0.157074
    25 1.435260 0.000000 0.000001 0.000000 0.000000 0.732613
    26 1.482593 0.000000 -0.000001 0.000000 0.000000 1.168644
    27 2.046984 0.000001 0.000000 0.122269 0.042131 -1.146082
    28 -0.000005 0.000007 3.713254 -3.293902 -0.161832 1.254312
    29 18.045723 0.000000 0.000000 0.000000 0.000000 -1.705693
    30 17.597597 0.000000 0.000000 -0.255586 0.200114 -0.187294
    31 0.000005 -0.000003 -3.713254 0.826205 2.297831 5.447346
    32 18.045721 0.000000 0.000000 0.000000 0.000000 -2.672981
    33 17.597597 0.000000 0.000000 0.405669 0.002415 0.724147
  time 4
    0 -0.081068 -1.105351 -20.600716 0.000000 0.000000 -1.585458
    1 -4.230602 0.398450 0.000000 -1.570795 -1.570787 0.000000
    2 1.293670 0.684478 -0.000001 -0.000004 -0.000001 0.266110
    3 5.309685 -0.003834 0.000000 -0.250015 0.078379 0.227024
    4 4.826790 -0.004591 0.000000 0.156143 -0.016239 0.006206
    5 5.792767 -0.005304 0.000000 0.000000 0.000000 0.055731
    6 6.662322 -0.001452 0.000000 0.000000 -0.000001 0.209256
    7 -3.393353 0.665235 4.339626 1.167103 -1.094374 -4.474262
    8 4.827512 0.000000 -0.000002 -0.240590 -1.168171 -1.204208
    9 11.140032 0.000000 0.000000 0.000000 0.000000 -0.541127
    10 10.314563 -0.000001 0.000001 -1.722626 -0.399231 -0.297096
    11 1.646836 0.445664 -1.699647 0.153911 0.442352 0.277231
    12 0.928312 0.000000 0.000000 0.000000 0.000000 0.000000
    13 0.928313 0.000000 -0.000001 0.000000 0.000000 0.000000
    14 2.979373 -0.388274 -0.044205 0.001088 -0.043611 -0.043599
    15 1.435262 -0.000001 -0.000001 0.000000 0.000000 1.334445
    16 1.482593 -0.000001 0.000001 0.000000 0.000000 0.793674
    17 -3.131626 0.610580 -4.140396 -1.304079 0.915051 -4.590416
    18 4.972047 0.000000 0.000000 0.706068 0.838316 -1.463470
    19 11.585358 0.000000 0.000001 0.000000 0.000000 -0.605393
    20 10.127058 0.000000 0.000001 1.781246 0.529370 0.030815
    21 1.537458 0.109715 1.664489 -0.264662 -0.055995 0.783079
    22 0.928313 0.000000 0.000002 0.000000 0.000000 -0.453501
    23 0.928311 0.000000 0.000001 0.000000 0.000000 0.000000
    24 2.686395 -0.427337 0.044204 -0.005762 0.043239 -0.157074
    25 1.435260 0.000000 0.000001 0.000000 0.000000 0.732613
    26 1.482593 0.000000 -0.000001 0.000000 0.000000 1.168644
    27 2.046984 0.000001 0.000000 0.108569 0.031215 -1.148637
    28 -0.000005 0.000007 3.713254 -3.294382 -0.161352 1.254983
    29 18.045723 0.000000 0.000000 0.000000 0.000000 -1.701696
    30 17.597597 0.000000 0.000000 -0.256042 0.200409 -0.190687
    31 0.000005 -0.000003 -3.713254 0.827068 2.295914 5.440923
    32 18.045721 0.000000 0.000000 0.000000 0.000000 -2.672902
    33 17.597597 0.000000 0.000000 0.409595 -0.002240 0.719620
  time 5
    0 -0.081068 -1.105351 -20.600716 0.000000 0.000000 -1.585458
    1 -4.226695 0.398450 0.000000 -1.570795 -1.570787 0.000000
    2 1.293670 0.684478 -0.000001 -0.000004 -0.000001 0.266110
    3 5.309685 -0.003834 0.000000 -0.249640 0.079614 0.231775
    4 4.826790 -0.004591 0.000000 0.164135 -0.017066 0.006051
    5 5.792767 -0.005304 0.000000 -0.021729 -0.007994 0.019832
    6 6.662322 -0.001452 0.000000 0.000000 -0.000001 0.209256
    7 -3.393353 0.665235 4.339626 1.163173 -1.098071 -4.470716
    8 4.827512 0.000000 -0.000002 -0.345975 -1.077184 -1.098755
    9 11.140032 0.000000 0.000000 0.000000 0.000000 -0.620391
    10 10.314563 -0.000001 0.000001 -1.719593 -0.377780 -0.290535
    11 1.646836 0.445664 -1.699647 0.153911 0.442352 0.277231
    12 0.928312 0.000000 0.000000 0.000000 0.000000 0.000000
    13 0.928313 0.000000 -0.000001 0.000000 0.000000 0.000000
    14 2.979373 -0.388274 -0.044205 0.001088 -0.043611 -0.043599
    15 1.435262 -0.000001 -0.000001 0.000000 0.000000 1.334445
    16 1.482593 -0.000001 0.000001 0.000000 0.000000 0.793674
    17 -3.131626 0.610580 -4.140396 -1.301500 0.919573 -4.588309
    18 4.972047 0.000000 0.000000 0.877532 0.541183 -1.190660
    19 11.585358 0.000000 0.000001 0.000000 0.000000 -0.848636
    20 10.127058 0.000000 0.000001 1.747937 0.379675 -0.029161
    21 1.537458 0.109715 1.664489 -0.264662 -0.055995 0.783079
    22 0.928313 0.000000 0.000002 0.000000 0.000000 -0.453501
    23 0.928311 0.000000 0.000001 0.000000 0.000000 0.000000
    24 2.686395 -0.427337 0.044204 -0.005762 0.043239 -0.157074
    25 1.435260 0.000000 0.000001 0.000000 0.000000 0.732613
    26 1.482593 0.000000 -0.000001 0.000000 0.000000 1.168644
    27 2.046984 0.000001 0.000000 0.110551 0.047088 -1.117432
    28 -0.000005 0.000007 3.713254 -3.294190 -0.161640 1.254887
    29 18.045723 0.000000 0.000000 0.000000 0.000000 -1.702363
    30 17.597597 0.000000 0.000000 -0.255713 0.200188 -0.190091
    31 0.000005 -0.000003 -3.713254 0.827930 2.296968 5.442840
    32 18.045721 0.000000 0.000000 0.000000 0.000000 -2.672744
    33 17.597597 0.000000 0.000000 0.409158 -0.001806 0.721098
  time 6
    0 -0.081068 -1.105351 -20.600716 0.000000 0.000000 -1.585458
    1 -4.164194 0.367199 0.000000 -1.570795 -1.570787 0.000000
    2 1.293670 0.684478 -0.000001 -0.000004 -0.000001 0.266110
    3 5.309685 -0.003834 0.000000 -0.249725 0.079386 0.230875
    4 4.826790 -0.004591 0.000000 0.162609 -0.016910 0.006095
    5 5.792767 -0.005304 0.000000 -0.053154 -0.021129 -0.032449
    6 6.662322 -0.001452 0.000000 0.000000 -0.000001 0.209256
    7 -3.393353 0.665235 4.339626 1.148987 -1.110963 -4.458164
    8 4.827512 0.000000 -0.000002 -0.584967 -0.813859 -0.873464
    9 11.140032 0.000000 0.000000 0.000000 0.000000 -0.892163
    10 10.314563 -0.000001 0.000001 -1.705851 -0.296754 -0.266903
    11 1.646836 0.445664 -1.699647 0.153911 0.442352 0.277231
    12 0.928312 0.000000 0.000000 0.000000 0.000000 0.000000
    13 0.928313 0.000000 -0.000001 0.000000 0.000000 0.000000
    14 2.979373 -0.388274 -0.044205 0.001088 -0.043611 -0.043599
    15 1.435262 -0.000001 -0.000001 0.000000 0.000000 1.334445
    16 1.482593 -0.000001 0.000001 0.000000 0.000000 0.793674
    17 -3.131626 0.610580 -4.140396 -1.291946 0.935899 -4.580742
    18 4.972047 0.000000 0.000000 0.942628 0.112760 -0.992990
    19 11.585358 0.000000 0.000001 0.000000 0.000000 -1.181889
    20 10.127058 0.000000 0.000001 1.717223 0.207852 -0.093738
    21 1.537458 0.109715 1.664489 -0.264662 -0.055995 0.783079
    22 0.928313 0.000000 0.000002 0.000000 0.000000 -0.453501
    23 0.928311 0.000000 0.000001 0.000000 0.000000 0.000000
    24 2.686395 -0.427337 0.044204 -0.005762 0.043239 -0.157074
    25 1.435260 0.000000 0.000001 0.000000 0.000000 0.732613
    26 1.482593 0.000000 -0.000001 0.000000 0.000000 1.168644
    27 2.046984 0.000001 0.000000 0.123476 0.080161 -1.062990
    28 -0.000005 0.000007 3.713254 -3.293135 -0.162407 1.254120
    29 18.045723 0.000000 0.000000 0.000000 0.000000 -1.706063
    30 17.597597 0.000000 0.000000 -0.254699 0.199646 -0.187111
    31 0.000005 -0.000003 -3.713254 0.828985 2.299940 5.450126
    32 18.045721 0.000000 0.000000 0.000000 0.000000 -2.672744
    33 17.597597 0.000000 0.000000 0.406005 0.001764 0.726641
  time 7
    0 -0.081068 -1.105351 -20.600716 0.000000 0.000000 -1.585458
    1 -4.086066 0.347667 0.000000 -1.570795 -1.570787 0.000000
    2 1.293670 0.684478 -0.000001 -0.000004 -0.000001 0.266110
    3 5.309685 -0.003834 0.000000 -0.250134 0.078008 0.225452
    4 4.826790 -0.004591 0.000000 0.153472 -0.015963 0.006250
    5 5.792767 -0.005304 0.000000 -0.085298 -0.036625 -0.086827
    6 6.662322 -0.001452 0.000000 0.000000 -0.000001 0.209256
    7 -3.393353 0.665235 4.339626 1.124736 -1.131484 -4.436222
    8 4.827512 0.000000 -0.000002 -0.762895 -0.407359 -0.722432
    9 11.140032 0.000000 0.000000 0.000000 0.000000 -1.312755
    10 10.314563 -0.000001 0.000001 -1.667656 -0.187625 -0.227478
    11 1.646836 0.445664 -1.699647 0.153911 0.442352 0.277231
    12 0.928312 0.000000 0.000000 0.000000 0.000000 0.000000
    13 0.928313 0.000000 -0.000001 0.000000 0.000000 0.000000
    14 2.979373 -0.388274 -0.044205 0.001088 -0.043611 -0.043599
    15 1.435262 -0.000001 -0.000001 0.000000 0.000000 1.334445
    16 1.482593 -0.000001 0.000001 0.000000 0.000000 0.793674
    17 -3.131626 0.610580 -4.140396 -1.281056 0.953724 -4.571834
    18 4.972047 0.000000 0.000000 0.938782 -0.280229 -0.847633
    19 11.585358 0.000000 0.000001 0.000000 0.000000 -1.509426
    20 10.127058 0.000000 0.000001 1.696045 0.057306 -0.148362
    21 1.537458 0.109715 1.664489 -0.264662 -0.055995 0.783079
    22 0.928313 0.000000 0.000002 0.000000 0.000000 -0.453501
    23 0.928311 0.000000 0.000001 0.000000 0.000000 0.000000
    24 2.686395 -0.427337 0.044204 -0.005762 0.043239 -0.157074
    25 1.435260 0.000000 0.000001 0.000000 0.000000 0.732613
    26 1.482593 0.000000 -0.000001 0.000000 0.000000 1.168644
    27 2.046984 0.000001 0.000000 0.144199 0.119725 -1.000215
    28 -0.000005 0.000007 3.713254 -3.291793 -0.163653 1.253066
    29 18.045723 0.000000 0.000000 0.000000 0.000000 -1.711392
    30 17.597597 0.000000 0.000000 -0.253280 0.198859 -0.182664
    31 0.000005 -0.000003 -3.713254 0.830135 2.304254 5.460576
    32 18.045721 0.000000 0.000000 0.000000 0.000000 -2.672744
    33 17.597597 0.000000 0.000000 0.401509 0.007129 0.734447
  time 8
    0 -0.081068 -1.105351 -20.600716 0.000000 0.000000 -1.585458
    1 -3.996220 0.316416 0.000000 -1.570795 -1.570787 0.000000
    2 1.293670 0.684478 -0.000001 -0.000004 -0.000001 0.266110
    3 5.309685 -0.003834 0.000000 -0.250797 0.075767 0.216655
    4 4.826790 -0.004591 0.000000 0.138804 -0.014441 0.006448
    5 5.792767 -0.005304 0.000000 -0.110031 -0.050072 -0.129432
    6 6.662322 -0.001452 0.000000 0.000000 -0.000001 0.209256
    7 -3.393353 0.665235 4.339626 1.097514 -1.152300 -4.411597
    8 4.827512 0.000000 -0.000002 -0.829299 -0.007170 -0.705708
    9 11.140032 0.000000 0.000000 0.000000 0.000000 -1.705452
    10 10.314563 -0.000001 0.000001 -1.597806 -0.154840 -0.187182
    11 1.646836 0.445664 -1.699647 0.153911 0.442352 0.277231
    12 0.928312 0.000000 0.000000 0.000000 0.000000 0.000000
    13 0.928313 0.000000 -0.000001 0.000000 0.000000 0.000000
    14 2.979373 -0.388274 -0.044205 0.001088 -0.043611 -0.043599
    15 1.435262 -0.000001 -0.000001 0.000000 0.000000 1.334445
    16 1.482593 -0.000001 0.000001 0.000000 0.000000 0.793674
    17 -3.131626 0.610580 -4.140396 -1.269496 0.971312 -4.562544
    18 4.972047 0.000000 0.000000 1.006692 -0.535018 -0.749997
    19 11.585358 0.000000 0.000001 0.000000 0.000000 -1.817685
    20 10.127058 0.000000 0.000001 1.682020 -0.082649 -0.197833
    21 1.537458 0.109715 1.664489 -0.264662 -0.055995 0.783079
    22 0.928313 0.000000 0.000002 0.000000 0.000000 -0.453501
    23 0.928311 0.000000 0.000001 0.000000 0.000000 0.000000
    24 2.686395 -0.427337 0.044204 -0.005762 0.043239 -0.157074
    25 1.435260 0.000000 0.000001 0.000000 0.000000 0.732613
    26 1.482593 0.000000 -0.000001 0.000000 0.000000 1.168644
    27 2.046984 0.000001 0.000000 0.167765 0.155631 -0.944861
    28 -0.000005 0.000007 3.713254 -3.290355 -0.164995 1.252011
    29 18.045723 0.000000 0.000000 0.000000 0.000000 -1.717017
    30 17.597597 0.000000 0.000000 -0.251760 0.197997 -0.177896
    31 0.000005 -0.000003 -3.713254 0.831093 2.308760 5.471601
    32 18.045721 0.000000 0.000000 0.000000 0.000000 -2.672744
    33 17.597597 0.000000 0.000000 0.396744 0.012987 0.742715
  time 9
    0 -0.081068 -1.105351 -20.600716 0.000000 0.000000 -1.585458
    1 -3.921999 0.292978 0.000000 -1.570795 -1.570787 0.000000
    2 1.293670 0.684478 -0.000001 -0.000004 -0.000001 0.266110
    3 5.309685 -0.003834 0.000000 -0.251631 0.072938 0.205722
    4 4.826790 -0.004591 0.000000 0.120416 -0.012572 0.006735
    5 5.792767 -0.005304 0.000000 -0.119870 -0.055800 -0.146603
    6 6.662322 -0.001452 0.000000 0.000000 -0.000001 0.209256
    7 -3.393353 0.665235 4.339626 1.077193 -1.166405 -4.393008
    8 4.827512 0.000000 -0.000002 -0.799405 0.269117 -0.872077
    9 11.140032 0.000000 0.000000 0.000000 0.000000 -1.911799
    10 10.314563 -0.000001 0.000001 -1.488150 -0.349304 -0.185382
    11 1.646836 0.445664 -1.699647 0.153911 0.442352 0.277231
    12 0.928312 0.000000 0.000000 0.000000 0.000000 0.000000
    13 0.928313 0.000000 -0.000001 0.000000 0.000000 0.000000
    14 2.979373 -0.388274 -0.044205 0.001088 -0.043611 -0.043599
    15 1.435262 -0.000001 -0.000001 0.000000 0.000000 1.334445
    16 1.482593 -0.000001 0.000001 0.000000 0.000000 0.793674
    17 -3.131626 0.610580 -4.140396 -1.256313 0.990636 -4.551337
    18 4.972047 0.000000 0.000000 1.070194 -0.689369 -0.696353
    19 11.585358 0.000000 0.000001 0.000000 0.000000 -2.070076
    20 10.127058 0.000000 0.000001 1.658739 -0.090120 -0.222394
    21 1.537458 0.109715 1.664489 -0.264662 -0.055995 0.783079
    22 0.928313 0.000000 0.000002 0.000000 0.000000 -0.453501
    23 0.928311 0.000000 0.000001 0.000000 0.000000 0.000000
    24 2.686395 -0.427337 0.044204 -0.005762 0.043239 -0.157074
    25 1.435260 0.000000 0.000001 0.000000 0.000000 0.732613
    26 1.482593 0.000000 -0.000001 0.000000 0.000000 1.168644
    27 2.046984 0.000001 0.000000 0.187325 0.178791 -0.913595
    28 -0.000005 0.000007 3.713254 -3.289204 -0.165954 1.251148
    29 18.045723 0.000000 0.000000 0.000000 0.000000 -1.721828
    30 17.597597 0.000000 0.000000 -0.250645 0.197382 -0.173999
    31 0.000005 -0.000003 -3.713254 0.831381 2.312307 5.480325
    32 18.045721 0.000000 0.000000 0.000000 0.000000 -2.672666
    33 17.597597 0.000000 0.000000 0.392752 0.018056 0.749089
  time 10
    0 -0.081068 -1.105351 -20.600716 0.000000 0.000000 -1.585458
    1 -3.867310 0.292978 0.000000 -1.570795 -1.570787 0.000000
    2 1.293670 0.684478 -0.000001 -0.000004 -0.000001 0.266110
    3 5.309685 -0.003834 0.000000 -0.252942 0.068192 0.187228
    4 4.826790 -0.004591 0.000000 0.089478 -0.009348 0.007066
    5 5.792767 -0.005304 0.000000 -0.098573 -0.043672 -0.109645
    6 6.662322 -0.001452 0.000000 0.000000 -0.000001 0.209256
    7 -3.393353 0.665235 4.339626 1.055818 -1.180332 -4.373173
    8 4.827512 0.000000 -0.000002 -0.757076 0.431222 -1.115565
    9 11.140032 0.000000 0.000000 0.000000 0.000000 -2.023160
    10 10.314563 -0.000001 0.000001 -1.330347 -0.557537 -0.215981
    11 1.646836 0.445664 -1.699647 0.153911 0.442352 0.277231
    12 0.928312 0.000000 0.000000 0.000000 0.000000 0.000000
    13 0.928313 0.000000 -0.000001 0.000000 0.000000 0.000000
    14 2.979373 -0.388274 -0.044205 0.001088 -0.043611 -0.043599
    15 1.435262 -0.000001 -0.000001 0.000000 0.000000 1.334445
    16 1.482593 -0.000001 0.000001 0.000000 0.000000 0.793674
    17 -3.131626 0.610580 -4.140396 -1.242747 1.009144 -4.539940
    18 4.972047 0.000000 0.000000 1.012320 -0.745694 -0.655089
    19 11.585358 0.000000 0.000001 0.000000 0.000000 -2.214649
    20 10.127058 0.000000 0.000001 1.614982 0.130215 -0.210589
    21 1.537458 0.109715 1.664489 -0.264662 -0.055995 0.783079
    22 0.928313 0.000000 0.000002 0.000000 0.000000 -0.453501
    23 0.928311 0.000000 0.000001 0.000000 0.000000 0.000000
    24 2.686395 -0.427337 0.044204 -0.005762 0.043239 -0.157074
    25 1.435260 0.000000 0.000001 0.000000 0.000000 0.732613
    26 1.482593 0.000000 -0.000001 0.000000 0.000000 1.168644
    27 2.046984 0.000001 0.000000 0.198914 0.179086 -0.932087
    28 -0.000005 0.000007 3.713254 -3.288917 -0.166242 1.250573
    29 18.045723 0.000000 0.000000 0.000000 0.000000 -1.725381
    30 17.597597 0.000000 0.000000 -0.250366 0.197234 -0.170973
    31 0.000005 -0.000003 -3.713254 0.829656 2.313649 5.485502
    32 18.045721 0.000000 0.000000 0.000000 0.000000 -2.672744
    33 17.597597 0.000000 0.000000 0.389262 0.022691 0.752553
  time 11
    0 -0.081068 -1.105351 -20.600716 0.000000 0.000000 -1.585458
    1 -3.812620 0.304697 0.000000 -1.570795 -1.570787 0.000000
    2 1.293670 0.684478 -0.000001 -0.000004 -0.000001 0.266110
    3 5.309685 -0.003834 0.000000 -0.254643 0.061289 0.160556
    4 4.826790 -0.004591 0.000000 0.044691 -0.004674 0.007352
    5 5.792767 -0.005304 0.000000 -0.050186 -0.019799 -0.027404
    6 6.662322 -0.001452 0.000000 0.000000 -0.000001 0.209256
    7 -3.393353 0.665235 4.339626 1.032717 -1.194081 -4.351806
    8 4.827512 0.000000 -0.000002 -0.637341 0.372298 -1.230377
    9 11.140032 0.000000 0.000000 0.000000 0.000000 -2.003453
    10 10.314563 -0.000001 0.000001 -1.195670 -0.512481 -0.192234
    11 1.646836 0.445664 -1.699647 0.153911 0.442352 0.277231
    12 0.928312 0.000000 0.000000 0.000000 0.000000 0.000000
    13 0.928313 0.000000 -0.000001 0.000000 0.000000 0.000000
    14 2.979373 -0.388274 -0.044205 0.001088 -0.043611 -0.043599
    15 1.435262 -0.000001 -0.000001 0.000000 0.000000 1.334445
    16 1.482593 -0.000001 0.000001 0.000000 0.000000 0.793674
    17 -3.131626 0.610580 -4.140396 -1.228322 1.027679 -4.527680
    18 4.972047 0.000000 0.000000 0.926401 -0.729624 -0.624606
    19 11.585358 0.000000 0.000001 0.000000 0.000000 -2.315034
    20 10.127058 0.000000 0.000001 1.565965 0.447667 -0.196783
    21 1.537458 0.109715 1.664489 -0.264662 -0.055995 0.783079
    22 0.928313 0.000000 0.000002 0.000000 0.000000 -0.453501
    23 0.928311 0.000000 0.000001 0.000000 0.000000 0.000000
    24 2.686395 -0.427337 0.044204 -0.005762 0.043239 -0.157074
    25 1.435260 0.000000 0.000001 0.000000 0.000000 0.732613
    26 1.482593 0.000000 -0.000001 0.000000 0.000000 1.168644
    27 2.046984 0.000001 0.000000 0.208435 0.161443 -0.988171
    28 -0.000005 0.000007 3.713254 -3.289204 -0.166050 1.250094
    29 18.045723 0.000000 0.000000 0.000000 0.000000 -1.729008
    30 17.597597 0.000000 0.000000 -0.250797 0.197456 -0.167901
    31 0.000005 -0.000003 -3.713254 0.825630 2.313361 5.489049
    32 18.045721 0.000000 0.000000 0.000000 0.000000 -2.673217
    33 17.597597 0.000000 0.000000 0.385135 0.028193 0.754262
  time 12
    0 -0.081068 -1.105351 -20.600716 0.000000 0.000000 -1.585458
    1 -3.750118 0.328135 0.000000 -1.570795 -1.570787 0.000000
    2 1.293670 0.684478 -0.000001 -0.000004 -0.000001 0.266110
    3 5.309685 -0.003834 0.000000 -0.256192 0.054338 0.133937
    4 4.826790 -0.004591 0.000000 0.000000 0.000000 0.007484
    5 5.792767 -0.005304 0.000000 0.000000 0.000000 0.055731
    6 6.662322 -0.001452 0.000000 0.000000 -0.000001 0.209256
    7 -3.393353 0.665235 4.339626 1.008275 -1.207595 -4.328810
    8 4.827512 0.000000 -0.000002 -0.472008 0.253512 -1.310355
    9 11.140032 0.000000 0.000000 0.000000 0.000000 -1.932956
    10 10.314563 -0.000001 0.000001 -1.068291 -0.403165 -0.135215
    11 1.646836 0.445664 -1.699647 0.153911 0.442352 0.277231
    12 0.928312 0.000000 0.000000 0.000000 0.000000 0.000000
    13 0.928313 0.000000 -0.000001 0.000000 0.000000 0.000000
    14 2.979373 -0.388274 -0.044205 0.001088 -0.043611 -0.043599
    15 1.435262 -0.000001 -0.000001 0.000000 0.000000 1.334445
    16 1.482593 -0.000001 0.000001 0.000000 0.000000 0.793674
    17 -3.131626 0.610580 -4.140396 -1.212846 1.046082 -4.514462
    18 4.972047 0.000000 0.000000 0.838230 -0.709215 -0.588666
    19 11.585358 0.000000 0.000001 0.000000 0.000000 -2.415418
    20 10.127058 0.000000 0.000001 1.510287 0.765213 -0.200784
    21 1.537458 0.109715 1.664489 -0.264662 -0.055995 0.783079
    22 0.928313 0.000000 0.000002 0.000000 0.000000 -0.453501
    23 0.928311 0.000000 0.000001 0.000000 0.000000 0.000000
    24 2.686395 -0.427337 0.044204 -0.005762 0.043239 -0.157074
    25 1.435260 0.000000 0.000001 0.000000 0.000000 0.732613
    26 1.482593 0.000000 -0.000001 0.000000 0.000000 1.168644
    27 2.046984 0.000001 0.000000 0.221188 0.141174 -1.043099
    28 -0.000005 0.000007 3.713254 -3.289492 -0.165667 1.249615
    29 18.045723 0.000000 0.000000 0.000000 0.000000 -1.732931
    30 17.597597 0.000000 0.000000 -0.251303 0.197727 -0.164416
    31 0.000005 -0.000003 -3.713254 0.821030 2.312882 5.492692
    32 18.045721 0.000000 0.000000 0.000000 0.000000 -2.673768
    33 17.597597 0.000000 0.000000 0.380640 0.034308 0.755924
end
