version 1
nodes
  0 "Bip01" -1
  1 "Bip01 Pelvis" 0
  2 "Bip01 Spine" 1
  3 "Bip01 Spine1" 2
  4 "Bip01 Spine2" 3
  5 "Bip01 Spine3" 4
  6 "Bip01 Neck" 5
  7 "Bip01 L Arm" 6
  8 "Bip01 L Arm1" 7
  9 "Bip01 L Arm2" 8
  10 "Bip01 L Hand" 9
  11 "Bip01 L Finger0" 10
  12 "Bip01 L Finger01" 11
  13 "Bip01 L Finger02" 12
  14 "Bip01 L Finger1" 10
  15 "Bip01 L Finger11" 14
  16 "Bip01 L Finger12" 15
  17 "Bip01 R Arm" 6
  18 "Bip01 R Arm1" 17
  19 "Bip01 R Arm2" 18
  20 "Bip01 R Hand" 19
  21 "Bip01 R Finger0" 20
  22 "Bip01 R Finger01" 21
  23 "Bip01 R Finger02" 22
  24 "Bip01 R Finger1" 20
  25 "Bip01 R Finger11" 24
  26 "Bip01 R Finger12" 25
  27 "Bip01 Head" 6
  28 "Bip01 L Leg" 1
  29 "Bip01 L Leg1" 28
  30 "Bip01 L Foot" 29
  31 "Bip01 R Leg" 1
  32 "Bip01 R Leg1" 31
  33 "Bip01 R Foot" 32
end
skeleton
  time 0
    0 -0.209979 2.261939 -20.600716 0.000000 0.000000 -1.585458
    1 -0.375015 0.507828 0.000000 -1.570795 -1.570787 0.000000
    2 1.293670 0.684478 -0.000001 -0.073699 -0.018158 0.185502
    3 5.309685 -0.003834 0.000000 -0.170766 0.066610 0.038518
    4 4.826790 -0.004591 0.000000 -0.126291 -0.043959 0.160874
    5 5.792767 -0.005304 0.000000 -0.101703 0.182058 0.298697
    6 6.662322 -0.001452 0.000000 0.000000 -0.000001 0.471000
    7 -3.108188 1.516823 4.339626 -0.000100 -1.370787 -3.613335
    8 4.827512 0.000000 -0.000002 -0.220899 -0.066264 -1.244241
    9 11.140032 0.000000 0.000000 0.000000 0.000000 -1.415928
    10 10.314563 -0.000001 0.000001 -1.604061 -0.615427 0.129147
    11 1.646836 0.445664 -1.699647 0.153911 0.442352 0.277231
    12 0.928312 0.000000 0.000000 0.000000 0.000000 0.000000
    13 0.928313 0.000000 -0.000001 0.000000 0.000000 0.000000
    14 2.979373 -0.388274 -0.044205 -0.018183 -0.039656 0.411911
    15 1.435262 -0.000001 -0.000001 0.000000 0.000000 0.570828
    16 1.482593 -0.000001 0.000001 0.000000 0.000000 0.530452
    17 -2.869899 1.399667 -4.140396 0.000026 1.370769 -3.613362
    18 4.972047 0.000000 0.000000 0.199744 0.138632 -1.054088
    19 11.585358 0.000000 0.000001 0.000000 0.000000 -2.507717
    20 10.127058 0.000000 0.000001 -0.596237 -2.705385 -1.389797
    21 1.537458 0.109715 1.664489 -0.344506 -0.327833 0.740676
    22 0.928313 0.000000 0.000002 0.000000 0.000000 0.000000
    23 0.928311 0.000000 0.000001 0.000000 0.000000 0.000000
    24 2.686395 -0.427337 0.044204 0.001045 0.043611 0.000046
    25 1.435260 0.000000 0.000001 0.000000 0.000000 1.037856
    26 1.482593 0.000000 -0.000001 0.000000 0.000000 1.142584
    27 2.046984 0.000001 0.000000 0.513462 -0.057650 -0.288580
    28 -0.000005 0.000007 3.713254 -3.289300 -0.165475 1.249615
    29 18.045723 0.000000 0.000000 0.000000 0.000000 -1.732931
    30 17.597597 0.000000 0.000000 -0.251405 0.197505 -0.164508
    31 0.000005 -0.000003 -3.713254 0.821892 2.312307 5.493555
    32 18.045721 0.000000 0.000000 0.000000 0.000000 -2.673768
    33 17.597597 0.000000 0.000000 0.379969 0.033854 0.755924
  time 1
    0 -0.338889 2.133029 -20.600716 0.000000 0.000000 -1.585458
    1 -0.375015 0.507828 0.000000 -1.570795 -1.570787 0.000000
    2 1.293670 0.684478 -0.000001 -0.072015 -0.020051 0.130374
    3 5.309685 -0.003834 0.000000 -0.124293 0.050347 0.050176
    4 4.826790 -0.004591 0.000000 -0.100636 0.007059 0.074996
    5 5.792767 -0.005304 0.000000 -0.103573 0.143492 0.197873
    6 6.662322 -0.001452 0.000000 0.000000 -0.000001 0.471000
    7 -3.108188 1.516823 4.339626 -0.000100 -1.370787 -3.613335
    8 4.827512 0.000000 -0.000002 0.110564 0.384066 -1.309662
    9 11.140032 0.000000 0.000000 0.000000 0.000000 -1.269138
    10 10.314563 -0.000001 0.000001 -1.477156 -0.528030 0.014298
    11 1.646836 0.445664 -1.699647 0.153911 0.442352 0.277231
    12 0.928312 0.000000 0.000000 0.000000 0.000000 0.000000
    13 0.928313 0.000000 -0.000001 0.000000 0.000000 0.000000
    14 2.979373 -0.388274 -0.044205 -0.018183 -0.039656 0.411911
    15 1.435262 -0.000001 -0.000001 0.000000 0.000000 0.570828
    16 1.482593 -0.000001 0.000001 0.000000 0.000000 0.530452
    17 -2.869899 1.399667 -4.140396 -0.007139 1.370769 -3.620449
    18 4.972047 0.000000 0.000000 0.159692 0.025581 -0.867733
    19 11.585358 0.000000 0.000001 0.000000 0.000000 -2.499058
    20 10.127058 0.000000 0.000001 -0.551919 -2.797585 -1.451773
    21 1.537458 0.109715 1.664489 -0.344506 -0.327833 0.740676
    22 0.928313 0.000000 0.000002 0.000000 0.000000 0.000000
    23 0.928311 0.000000 0.000001 0.000000 0.000000 0.000000
    24 2.686395 -0.427337 0.044204 0.001045 0.043611 0.000046
    25 1.435260 0.000000 0.000001 0.000000 0.000000 1.037856
    26 1.482593 0.000000 -0.000001 0.000000 0.000000 1.142584
    27 2.046984 0.000001 0.000000 0.344793 -0.108042 -0.104695
    28 -0.000005 0.000007 3.713254 -3.282397 -0.167968 1.247218
    29 18.045723 0.000000 0.000000 0.000000 0.000000 -1.741590
    30 17.597597 0.000000 0.000000 -0.247249 0.191968 -0.157539
    31 0.000005 -0.000003 -3.713254 0.841732 2.322181 5.526534
    32 18.045721 0.000000 0.000000 0.000000 0.000000 -2.671879
    33 17.597597 0.000000 0.000000 0.369165 0.034722 0.776062
  time 2
    0 -0.475612 1.965055 -20.600716 0.000000 0.000000 -1.585458
    1 -0.375015 0.507828 0.000000 -1.570795 -1.570787 0.000000
    2 1.293670 0.684478 -0.000001 -0.070617 -0.019560 0.090446
    3 5.309685 -0.003834 0.000000 -0.075471 0.039765 0.057259
    4 4.826790 -0.004591 0.000000 -0.079998 0.033054 -0.002658
    5 5.792767 -0.005304 0.000000 -0.108826 0.094774 0.113763
    6 6.662322 -0.001452 0.000000 0.000000 -0.000001 0.471000
    7 -3.108188 1.516823 4.339626 -0.000100 -1.370787 -3.613335
    8 4.827512 0.000000 -0.000002 0.523577 0.789287 -1.188784
    9 11.140032 0.000000 0.000000 0.000000 0.000000 -1.123724
    10 10.314563 -0.000001 0.000001 -1.359538 -0.421525 -0.089055
    11 1.646836 0.445664 -1.699647 0.153911 0.442352 0.277231
    12 0.928312 0.000000 0.000000 0.000000 0.000000 0.000000
    13 0.928313 0.000000 -0.000001 0.000000 0.000000 0.000000
    14 2.979373 -0.388274 -0.044205 -0.018183 -0.039656 0.411911
    15 1.435262 -0.000001 -0.000001 0.000000 0.000000 0.570828
    16 1.482593 -0.000001 0.000001 0.000000 0.000000 0.530452
    17 -2.869899 1.399667 -4.140396 -0.018985 1.370769 -3.631847
    18 4.972047 0.000000 0.000000 0.115231 -0.064571 -0.628533
    19 11.585358 0.000000 0.000001 0.000000 0.000000 -2.508207
    20 10.127058 0.000000 0.000001 -0.512088 -2.899620 -1.511949
    21 1.537458 0.109715 1.664489 -0.344506 -0.327833 0.740676
    22 0.928313 0.000000 0.000002 0.000000 0.000000 0.000000
    23 0.928311 0.000000 0.000001 0.000000 0.000000 0.000000
    24 2.686395 -0.427337 0.044204 0.001045 0.043611 0.000046
    25 1.435260 0.000000 0.000001 0.000000 0.000000 1.037923
    26 1.482593 0.000000 -0.000001 0.000000 0.000000 1.142584
    27 2.046984 0.000001 0.000000 0.224031 -0.142384 0.061064
    28 -0.000005 0.000007 3.713254 -3.275399 -0.170460 1.244822
    29 18.045723 0.000000 0.000000 0.000000 0.000000 -1.752100
    30 17.597597 0.000000 0.000000 -0.242992 0.186357 -0.149058
    31 0.000005 -0.000003 -3.713254 0.860421 2.332151 5.562294
    32 18.045721 0.000000 0.000000 0.000000 0.000000 -2.669911
    33 17.597597 0.000000 0.000000 0.355543 0.038075 0.797263
  time 3
    0 -0.573271 1.793174 -20.600716 0.000000 0.000000 -1.585458
    1 -0.375015 0.507828 0.000000 -1.570795 -1.570787 0.000000
    2 1.293670 0.684478 -0.000001 -0.069640 -0.017487 0.065870
    3 5.309685 -0.003834 0.000000 -0.031056 0.034611 0.060633
    4 4.826790 -0.004591 0.000000 -0.063518 0.039621 -0.065032
    5 5.792767 -0.005304 0.000000 -0.114312 0.050791 0.051433
    6 6.662322 -0.001452 0.000000 0.000000 -0.000001 0.471000
    7 -3.108188 1.516823 4.339626 -0.000100 -1.370787 -3.613335
    8 4.827512 0.000000 -0.000002 0.839974 1.007928 -0.987929
    9 11.140032 0.000000 0.000000 0.000000 0.000000 -1.049314
    10 10.314563 -0.000001 0.000001 -1.272913 -0.323450 -0.162737
    11 1.646836 0.445664 -1.699647 0.153911 0.442352 0.277231
    12 0.928312 0.000000 0.000000 0.000000 0.000000 0.000000
    13 0.928313 0.000000 -0.000001 0.000000 0.000000 0.000000
    14 2.979373 -0.388274 -0.044205 -0.018183 -0.039656 0.411911
    15 1.435262 -0.000001 -0.000001 0.000000 0.000000 0.570828
    16 1.482593 -0.000001 0.000001 0.000000 0.000000 0.530452
    17 -2.869899 1.399667 -4.140396 -0.030257 1.370690 -3.642958
    18 4.972047 0.000000 0.000000 0.050229 -0.107639 -0.409632
    19 11.585358 0.000000 0.000001 0.000000 0.000000 -2.522827
    20 10.127058 0.000000 0.000001 -0.483828 -2.988227 -1.558969
    21 1.537458 0.109715 1.664489 -0.344506 -0.327833 0.740676
    22 0.928313 0.000000 0.000002 0.000000 0.000000 0.000000
    23 0.928311 0.000000 0.000001 0.000000 0.000000 0.000000
    24 2.686395 -0.427337 0.044204 0.001045 0.043611 0.000046
    25 1.435260 0.000000 0.000001 0.000000 0.000000 1.037856
    26 1.482593 0.000000 -0.000001 0.000000 0.000000 1.142584
    27 2.046984 0.000001 0.000000 0.154754 -0.168347 0.194218
    28 -0.000005 0.000007 3.713254 -3.269838 -0.172570 1.242617
    29 18.045723 0.000000 0.000000 0.000000 0.000000 -1.762759
    30 17.597597 0.000000 0.000000 -0.239571 0.182001 -0.140163
    31 0.000005 -0.000003 -3.713254 0.873551 2.339821 5.594218
    32 18.045721 0.000000 0.000000 0.000000 0.000000 -2.668179
    33 17.597597 0.000000 0.000000 0.341351 0.044012 0.815045
  time 4
    0 -0.616241 1.656452 -20.600716 0.000000 0.000000 -1.585458
    1 -0.375015 0.507828 0.000000 -1.570795 -1.570787 0.000000
    2 1.293670 0.684478 -0.000001 -0.069033 -0.014682 0.056964
    3 5.309685 -0.003834 0.000000 0.001872 0.034755 0.061304
    4 4.826790 -0.004591 0.000000 -0.052378 0.032298 -0.105006
    5 5.792767 -0.005304 0.000000 -0.119942 0.027073 0.014807
    6 6.662322 -0.001452 0.000000 0.000000 -0.000001 0.471000
    7 -3.108188 1.516823 4.339626 -0.000100 -1.370047 -3.613335
    8 4.827512 0.000000 -0.000002 0.862055 1.097210 -0.956648
    9 11.140032 0.000000 0.000000 0.000000 0.000000 -1.034462
    10 10.314563 -0.000001 0.000001 -1.228747 -0.266029 -0.199259
    11 1.646836 0.445664 -1.699647 0.153911 0.442352 0.277231
    12 0.928312 0.000000 0.000000 0.000000 0.000000 0.000000
    13 0.928313 0.000000 -0.000001 0.000000 0.000000 0.000000
    14 2.979373 -0.388274 -0.044205 -0.018183 -0.039656 0.411911
    15 1.435262 -0.000001 -0.000001 0.000000 0.000000 0.570828
    16 1.482593 -0.000001 0.000001 0.000000 0.000000 0.530452
    17 -2.869899 1.399667 -4.140396 -0.036467 1.370690 -3.649088
    18 4.972047 0.000000 0.000000 -0.006332 -0.120254 -0.287570
    19 11.585358 0.000000 0.000001 0.000000 0.000000 -2.530750
    20 10.127058 0.000000 0.000001 2.671399 -0.102980 1.557323
    21 1.537458 0.109715 1.664489 -0.344506 -0.327833 0.740676
    22 0.928313 0.000000 0.000002 0.000000 0.000000 0.000000
    23 0.928311 0.000000 0.000001 0.000000 0.000000 0.000000
    24 2.686395 -0.427337 0.044204 0.001045 0.043611 0.000046
    25 1.435260 0.000000 0.000001 0.000000 0.000000 1.037923
    26 1.482593 0.000000 -0.000001 0.000000 0.000000 1.142584
    27 2.046984 0.000001 0.000000 0.120718 -0.184810 0.275971
    28 -0.000005 0.000007 3.713254 -3.267153 -0.173624 1.241083
    29 18.045723 0.000000 0.000000 0.000000 0.000000 -1.771270
    30 17.597597 0.000000 0.000000 -0.237848 0.179885 -0.132874
    31 0.000005 -0.000003 -3.713254 0.878727 2.343176 5.615501
    32 18.045721 0.000000 0.000000 0.000000 0.000000 -2.667155
    33 17.597597 0.000000 0.000000 0.329708 0.051231 0.825668
  time 5
    0 -0.542020 1.582231 -20.600716 0.000000 0.000000 -1.585458
    1 -0.375015 0.507828 0.000000 -1.570795 -1.570787 0.000000
    2 1.293670 0.684478 -0.000001 -0.068865 -0.013508 0.055926
    3 5.309685 -0.003834 0.000000 0.015383 0.035810 0.061145
    4 4.826790 -0.004591 0.000000 -0.041334 0.036877 -0.120594
    5 5.792767 -0.005304 0.000000 -0.111218 0.060594 -0.005686
    6 6.662322 -0.001452 0.000000 0.000000 -0.000001 0.471000
    7 -3.108188 1.516823 4.339626 -0.000100 -1.370787 -3.613335
    8 4.827512 0.000000 -0.000002 0.720558 1.151359 -1.086970
    9 11.140032 0.000000 0.000000 0.000000 0.000000 -1.031274
    10 10.314563 -0.000001 0.000001 -1.211687 -0.242330 -0.213136
    11 1.646836 0.445664 -1.699647 0.153911 0.442352 0.277231
    12 0.928312 0.000000 0.000000 0.000000 0.000000 0.000000
    13 0.928313 0.000000 -0.000001 0.000000 0.000000 0.000000
    14 2.979373 -0.388274 -0.044205 -0.018183 -0.039656 0.411911
    15 1.435262 -0.000001 -0.000001 0.000000 0.000000 0.570828
    16 1.482593 -0.000001 0.000001 0.000000 0.000000 0.530452
    17 -2.869899 1.399667 -4.140396 -0.038091 1.370664 -3.650716
    18 4.972047 0.000000 0.000000 -0.069833 -0.098318 -0.272595
    19 11.585358 0.000000 0.000001 0.000000 0.000000 -2.528137
    20 10.127058 0.000000 0.000001 2.676659 -0.082460 1.547419
    21 1.537458 0.109715 1.664489 -0.344506 -0.327833 0.740676
    22 0.928313 0.000000 0.000002 0.000000 0.000000 0.000000
    23 0.928311 0.000000 0.000001 0.000000 0.000000 0.000000
    24 2.686395 -0.427337 0.044204 0.001045 0.043611 0.000046
    25 1.435260 0.000000 0.000001 0.000000 0.000000 1.037856
    26 1.482593 0.000000 -0.000001 0.000000 0.000000 1.142584
    27 2.046984 0.000001 0.000000 0.064280 -0.216231 0.296106
    28 -0.000005 0.000007 3.713254 -3.269838 -0.173049 1.240987
    29 18.045723 0.000000 0.000000 0.000000 0.000000 -1.776081
    30 17.597597 0.000000 0.000000 -0.239444 0.182419 -0.128427
    31 0.000005 -0.000003 -3.713254 0.869238 2.337807 5.617418
    32 18.045721 0.000000 0.000000 0.000000 0.000000 -2.668179
    33 17.597597 0.000000 0.000000 0.322428 0.060520 0.823128
  time 6
    0 -0.420923 1.574418 -20.600716 0.000000 0.000000 -1.585458
    1 -0.375015 0.507828 0.000000 -1.570795 -1.570787 0.000000
    2 1.293670 0.684478 -0.000001 -0.068932 -0.014287 0.054754
    3 5.309685 -0.003834 0.000000 0.012269 0.034827 0.061357
    4 4.826790 -0.004591 0.000000 -0.031206 0.057047 -0.117044
    5 5.792767 -0.005304 0.000000 -0.093212 0.128715 -0.014365
    6 6.662322 -0.001452 0.000000 0.000000 -0.000001 0.471000
    7 -3.108188 1.516823 4.339626 -0.000100 -1.389179 -3.613335
    8 4.827512 0.000000 -0.000002 0.512656 1.157072 -1.260618
    9 11.140032 0.000000 0.000000 0.000000 0.000000 -1.182049
    10 10.314563 -0.000001 0.000001 -1.137382 -0.202051 -0.235142
    11 1.646836 0.445664 -1.699647 0.153911 0.442352 0.277231
    12 0.928312 0.000000 0.000000 0.000000 0.000000 0.000000
    13 0.928313 0.000000 -0.000001 0.000000 0.000000 0.000000
    14 2.979373 -0.388274 -0.044205 -0.018183 -0.039656 0.411911
    15 1.435262 -0.000001 -0.000001 0.000000 0.000000 0.570828
    16 1.482593 -0.000001 0.000001 0.000000 0.000000 0.530452
    17 -2.869899 1.399667 -4.140396 -0.038951 1.370664 -3.651482
    18 4.972047 0.000000 0.000000 -0.143841 -0.060233 -0.311663
    19 11.585358 0.000000 0.000001 0.000000 0.000000 -2.522256
    20 10.127058 0.000000 0.000001 2.680516 -0.066857 1.539965
    21 1.537458 0.109715 1.664489 -0.344506 -0.327833 0.740676
    22 0.928313 0.000000 0.000002 0.000000 0.000000 0.000000
    23 0.928311 0.000000 0.000001 0.000000 0.000000 0.000000
    24 2.686395 -0.427337 0.044204 0.001045 0.043611 0.000046
    25 1.435260 0.000000 0.000001 0.000000 0.000000 1.037923
    26 1.482593 0.000000 -0.000001 0.000000 0.000000 1.142584
    27 2.046984 0.000001 0.000000 0.001336 -0.267567 0.258879
    28 -0.000005 0.000007 3.713254 -3.275974 -0.171323 1.241946
    29 18.045723 0.000000 0.000000 0.000000 0.000000 -1.776377
    30 17.597597 0.000000 0.000000 -0.242916 0.187415 -0.127601
    31 0.000005 -0.000003 -3.713254 0.852083 2.327837 5.604188
    32 18.045721 0.000000 0.000000 0.000000 0.000000 -2.670462
    33 17.597597 0.000000 0.000000 0.320717 0.067956 0.811673
  time 7
    0 -0.370140 1.644732 -20.600716 0.000000 0.000000 -1.585458
    1 -0.375015 0.507828 0.000000 -1.570795 -1.570787 0.000000
    2 1.293670 0.684478 -0.000001 -0.069017 -0.015078 0.053532
    3 5.309685 -0.003834 0.000000 0.001838 0.033832 0.061586
    4 4.826790 -0.004591 0.000000 -0.032579 0.065436 -0.098678
    5 5.792767 -0.005304 0.000000 -0.092781 0.156830 -0.002468
    6 6.662322 -0.001452 0.000000 0.000000 -0.000001 0.471000
    7 -3.108188 1.516823 4.339626 -0.000100 -1.422267 -3.613335
    8 4.827512 0.000000 -0.000002 0.444737 1.077171 -1.245974
    9 11.140032 0.000000 0.000000 0.000000 0.000000 -1.441794
    10 10.314563 -0.000001 0.000001 -1.068101 -0.165613 -0.250819
    11 1.646836 0.445664 -1.699647 0.153911 0.442352 0.277231
    12 0.928312 0.000000 0.000000 0.000000 0.000000 0.000000
    13 0.928313 0.000000 -0.000001 0.000000 0.000000 0.000000
    14 2.979373 -0.388274 -0.044205 -0.018183 -0.039656 0.411911
    15 1.435262 -0.000001 -0.000001 0.000000 0.000000 0.570828
    16 1.482593 -0.000001 0.000001 0.000000 0.000000 0.530452
    17 -2.869899 1.399667 -4.140396 -0.039237 1.370664 -3.651865
    18 4.972047 0.000000 0.000000 -0.167947 -0.059188 -0.383942
    19 11.585358 0.000000 0.000001 0.000000 0.000000 -2.516701
    20 10.127058 0.000000 0.000001 2.683250 -0.055604 1.534713
    21 1.537458 0.109715 1.664489 -0.344506 -0.327833 0.740676
    22 0.928313 0.000000 0.000002 0.000000 0.000000 0.000000
    23 0.928311 0.000000 0.000001 0.000000 0.000000 0.000000
    24 2.686395 -0.427337 0.044204 0.001045 0.043611 0.000046
    25 1.435260 0.000000 0.000001 0.000000 0.000000 1.037856
    26 1.482593 0.000000 -0.000001 0.000000 0.000000 1.142584
    27 2.046984 0.000001 0.000000 0.021283 -0.296333 0.160154
    28 -0.000005 0.000007 3.713254 -3.278467 -0.170364 1.242809
    29 18.045723 0.000000 0.000000 0.000000 0.000000 -1.772158
    30 17.597597 0.000000 0.000000 -0.244436 0.189409 -0.131086
    31 0.000005 -0.000003 -3.713254 0.846045 2.324290 5.590863
    32 18.045721 0.000000 0.000000 0.000000 0.000000 -2.671328
    33 17.597597 0.000000 0.000000 0.326085 0.065767 0.804237
  time 8
    0 -0.436548 1.777549 -20.600716 0.000000 0.000000 -1.585458
    1 -0.375015 0.507828 0.000000 -1.570795 -1.570787 0.000000
    2 1.293670 0.684478 -0.000001 -0.069017 -0.015197 0.052310
    3 5.309685 -0.003834 0.000000 -0.012184 0.033473 0.061745
    4 4.826790 -0.004591 0.000000 -0.047800 0.054530 -0.068009
    5 5.792767 -0.005304 0.000000 -0.117244 0.125371 0.030753
    6 6.662322 -0.001452 0.000000 0.000000 -0.000001 0.471000
    7 -3.108188 1.516823 4.339626 -0.000100 -1.445833 -3.613335
    8 4.827512 0.000000 -0.000002 0.429910 0.915747 -1.145979
    9 11.140032 0.000000 0.000000 0.000000 0.000000 -1.546345
    10 10.314563 -0.000001 0.000001 -1.184676 -0.203081 -0.234736
    11 1.646836 0.445664 -1.699647 0.153911 0.442352 0.277231
    12 0.928312 0.000000 0.000000 0.000000 0.000000 0.000000
    13 0.928313 0.000000 -0.000001 0.000000 0.000000 0.000000
    14 2.979373 -0.388274 -0.044205 -0.018183 -0.039656 0.411911
    15 1.435262 -0.000001 -0.000001 0.000000 0.000000 0.570828
    16 1.482593 -0.000001 0.000001 0.000000 0.000000 0.530452
    17 -2.869899 1.399667 -4.140396 -0.038855 1.370664 -3.651482
    18 4.972047 0.000000 0.000000 -0.138775 -0.118807 -0.508001
    19 11.585358 0.000000 0.000001 0.000000 0.000000 -2.511964
    20 10.127058 0.000000 0.000001 2.684723 -0.048606 1.532062
    21 1.537458 0.109715 1.664489 -0.344506 -0.327833 0.740676
    22 0.928313 0.000000 0.000002 0.000000 0.000000 0.000000
    23 0.928311 0.000000 0.000001 0.000000 0.000000 0.000000
    24 2.686395 -0.427337 0.044204 0.001045 0.043611 0.000046
    25 1.435260 0.000000 0.000001 0.000000 0.000000 1.037856
    26 1.482593 0.000000 -0.000001 0.000000 0.000000 1.142584
    27 2.046984 0.000001 0.000000 0.133557 -0.271845 0.011002
    28 -0.000005 0.000007 3.713254 -3.276070 -0.170748 1.243480
    29 18.045723 0.000000 0.000000 0.000000 0.000000 -1.763647
    30 17.597597 0.000000 0.000000 -0.243195 0.187194 -0.138880
    31 0.000005 -0.000003 -3.713254 0.855437 2.329371 5.581276
    32 18.045721 0.000000 0.000000 0.000000 0.000000 -2.670462
    33 17.597597 0.000000 0.000000 0.338901 0.052513 0.803544
  time 9
    0 -0.538114 1.972867 -20.600716 0.000000 0.000000 -1.585458
    1 -0.375015 0.507828 0.000000 -1.570795 -1.570787 0.000000
    2 1.293670 0.684478 -0.000001 -0.069017 -0.015317 0.051138
    3 5.309685 -0.003834 0.000000 -0.030733 0.033137 0.061887
    4 4.826790 -0.004591 0.000000 -0.069946 0.037560 -0.027749
    5 5.792767 -0.005304 0.000000 -0.153687 0.072914 0.077698
    6 6.662322 -0.001452 0.000000 0.000000 -0.000001 0.471000
    7 -3.108188 1.516823 4.339626 -0.000100 -1.451865 -3.613335
    8 4.827512 0.000000 -0.000002 0.347961 0.684315 -1.107680
    9 11.140032 0.000000 0.000000 0.000000 0.000000 -1.387092
    10 10.314563 -0.000001 0.000001 -1.587380 -0.369350 -0.117854
    11 1.646836 0.445664 -1.699647 0.153911 0.442352 0.277231
    12 0.928312 0.000000 0.000000 0.000000 0.000000 0.000000
    13 0.928313 0.000000 -0.000001 0.000000 0.000000 0.000000
    14 2.979373 -0.388274 -0.044205 -0.018183 -0.039656 0.411911
    15 1.435262 -0.000001 -0.000001 0.000000 0.000000 0.570828
    16 1.482593 -0.000001 0.000001 0.000000 0.000000 0.530452
    17 -2.869899 1.399667 -4.140396 -0.038282 1.370664 -3.650908
    18 4.972047 0.000000 0.000000 -0.094596 -0.208156 -0.695355
    19 11.585358 0.000000 0.000001 0.000000 0.000000 -2.507390
    20 10.127058 0.000000 0.000001 2.685214 -0.045391 1.531912
    21 1.537458 0.109715 1.664489 -0.344506 -0.327833 0.740676
    22 0.928313 0.000000 0.000002 0.000000 0.000000 0.000000
    23 0.928311 0.000000 0.000001 0.000000 0.000000 0.000000
    24 2.686395 -0.427337 0.044204 0.001045 0.043611 0.000046
    25 1.435260 0.000000 0.000001 0.000000 0.000000 1.037856
    26 1.482593 0.000000 -0.000001 0.000000 0.000000 1.142584
    27 2.046984 0.000001 0.000000 0.269484 -0.210124 -0.146301
    28 -0.000005 0.000007 3.713254 -3.272618 -0.171323 1.244438
    29 18.045723 0.000000 0.000000 0.000000 0.000000 -1.751582
    30 17.597597 0.000000 0.000000 -0.241320 0.183994 -0.149791
    31 0.000005 -0.000003 -3.713254 0.868951 2.336945 5.568237
    32 18.045721 0.000000 0.000000 0.000000 0.000000 -2.668730
    33 17.597597 0.000000 0.000000 0.356885 0.033913 0.802482
  time 10
    0 -0.635773 2.187718 -20.600716 0.000000 0.000000 -1.585458
    1 -0.375015 0.507828 0.000000 -1.570795 -1.570787 0.000000
    2 1.293670 0.684478 -0.000001 -0.069000 -0.015413 0.050251
    3 5.309685 -0.003834 0.000000 -0.050949 0.032934 0.062046
    4 4.826790 -0.004591 0.000000 -0.096402 0.018396 0.016480
    5 5.792767 -0.005304 0.000000 -0.198063 0.012500 0.132221
    6 6.662322 -0.001452 0.000000 0.000000 -0.000001 0.471000
    7 -3.108188 1.516823 4.339626 -0.000100 -1.451185 -3.613335
    8 4.827512 0.000000 -0.000002 0.262345 0.404702 -1.080125
    9 11.140032 0.000000 0.000000 0.000000 0.000000 -1.105466
    10 10.314563 -0.000001 0.000001 -2.222666 -0.501240 0.167353
    11 1.646836 0.445664 -1.699647 0.153911 0.442352 0.277231
    12 0.928312 0.000000 0.000000 0.000000 0.000000 0.000000
    13 0.928313 0.000000 -0.000001 0.000000 0.000000 0.000000
    14 2.979373 -0.388274 -0.044205 -0.018183 -0.039656 0.411911
    15 1.435262 -0.000001 -0.000001 0.000000 0.000000 0.570828
    16 1.482593 -0.000001 0.000001 0.000000 0.000000 0.530452
    17 -2.869899 1.399667 -4.140396 -0.037422 1.370690 -3.650141
    18 4.972047 0.000000 0.000000 -0.029782 -0.286256 -0.916585
    19 11.585358 0.000000 0.000001 0.000000 0.000000 -2.504204
    20 10.127058 0.000000 0.000001 2.684863 -0.046242 1.533262
    21 1.537458 0.109715 1.664489 -0.344506 -0.327833 0.740676
    22 0.928313 0.000000 0.000002 0.000000 0.000000 0.000000
    23 0.928311 0.000000 0.000001 0.000000 0.000000 0.000000
    24 2.686395 -0.427337 0.044204 0.001045 0.043611 0.000046
    25 1.435260 0.000000 0.000001 0.000000 0.000000 1.037856
    26 1.482593 0.000000 -0.000001 0.000000 0.000000 1.142584
    27 2.046984 0.000001 0.000000 0.398000 -0.128783 -0.279638
    28 -0.000005 0.000007 3.713254 -3.269167 -0.171803 1.245684
    29 18.045723 0.000000 0.000000 0.000000 0.000000 -1.737446
    30 17.597597 0.000000 0.000000 -0.239520 0.180820 -0.162308
    31 0.000005 -0.000003 -3.713254 0.882369 2.344518 5.551269
    32 18.045721 0.000000 0.000000 0.000000 0.000000 -2.666762
    33 17.597597 0.000000 0.000000 0.377653 0.013559 0.799295
  time 11
    0 -0.717807 2.410381 -20.600716 0.000000 0.000000 -1.585458
    1 -0.375015 0.507828 0.000000 -1.570795 -1.570787 0.000000
    2 1.293670 0.684478 -0.000001 -0.069000 -0.015473 0.049715
    3 5.309685 -0.003834 0.000000 -0.070110 0.032862 0.062099
    4 4.826790 -0.004591 0.000000 -0.124117 0.000551 0.058879
    5 5.792767 -0.005304 0.000000 -0.244759 -0.043876 0.186848
    6 6.662322 -0.001452 0.000000 0.000000 -0.000001 0.471000
    7 -3.108188 1.516823 4.339626 -0.000100 -1.447844 -3.613335
    8 4.827512 0.000000 -0.000002 0.197614 0.122105 -1.048237
    9 11.140032 0.000000 0.000000 0.000000 0.000000 -0.811522
    10 10.314563 -0.000001 0.000001 -2.879750 -0.417216 0.438044
    11 1.646836 0.445664 -1.699647 0.153911 0.442352 0.277231
    12 0.928312 0.000000 0.000000 0.000000 0.000000 0.000000
    13 0.928313 0.000000 -0.000001 0.000000 0.000000 0.000000
    14 2.979373 -0.388274 -0.044205 -0.018183 -0.039656 0.411911
    15 1.435262 -0.000001 -0.000001 0.000000 0.000000 0.570828
    16 1.482593 -0.000001 0.000001 0.000000 0.000000 0.530452
    17 -2.869899 1.399667 -4.140396 -0.036754 1.370690 -3.649567
    18 4.972047 0.000000 0.000000 0.043100 -0.327555 -1.129628
    19 11.585358 0.000000 0.000001 0.000000 0.000000 -2.503224
    20 10.127058 0.000000 0.000001 2.683741 -0.051159 1.535263
    21 1.537458 0.109715 1.664489 -0.344506 -0.327833 0.740676
    22 0.928313 0.000000 0.000002 0.000000 0.000000 0.000000
    23 0.928311 0.000000 0.000001 0.000000 0.000000 0.000000
    24 2.686395 -0.427337 0.044204 0.001045 0.043611 0.000046
    25 1.435260 0.000000 0.000001 0.000000 0.000000 1.037856
    26 1.482593 0.000000 -0.000001 0.000000 0.000000 1.142584
    27 2.046984 0.000001 0.000000 0.501270 -0.066029 -0.345759
    28 -0.000005 0.000007 3.713254 -3.267058 -0.171994 1.247314
    29 18.045723 0.000000 0.000000 0.000000 0.000000 -1.723531
    30 17.597597 0.000000 0.000000 -0.238279 0.178556 -0.174549
    31 0.000005 -0.000003 -3.713254 0.892336 2.350462 5.532191
    32 18.045721 0.000000 0.000000 0.000000 0.000000 -2.664636
    33 17.597597 0.000000 0.000000 0.398053 -0.004824 0.793521
  time 12
    0 -0.760777 2.578355 -20.600716 0.000000 0.000000 -1.585458
    1 -0.375015 0.507828 0.000000 -1.570795 -1.570787 0.000000
    2 1.293670 0.684478 -0.000001 -0.069000 -0.015461 0.049648
    3 5.309685 -0.003834 0.000000 -0.085426 0.032970 0.062099
    4 4.826790 -0.004591 0.000000 -0.149581 -0.013075 0.093385
    5 5.792767 -0.005304 0.000000 -0.286257 -0.085498 0.232671
    6 6.662322 -0.001452 0.000000 0.000000 -0.000001 0.471000
    7 -3.108188 1.516823 4.339626 -0.000100 -1.445833 -3.613335
    8 4.827512 0.000000 -0.000002 0.155444 -0.110862 -1.000840
    9 11.140032 0.000000 0.000000 0.000000 0.000000 -0.615609
    10 10.314563 -0.000001 0.000001 -3.298756 -0.236241 0.458947
    11 1.646836 0.445664 -1.699647 0.153911 0.442352 0.277231
    12 0.928312 0.000000 0.000000 0.000000 0.000000 0.000000
    13 0.928313 0.000000 -0.000001 0.000000 0.000000 0.000000
    14 2.979373 -0.388274 -0.044205 -0.018183 -0.039656 0.411911
    15 1.435262 -0.000001 -0.000001 0.000000 0.000000 0.570828
    16 1.482593 -0.000001 0.000001 0.000000 0.000000 0.530452
    17 -2.869899 1.399667 -4.140396 -0.036467 1.370690 -3.649088
    18 4.972047 0.000000 0.000000 0.102850 -0.331653 -1.281308
    19 11.585358 0.000000 0.000001 0.000000 0.000000 -2.505348
    20 10.127058 0.000000 0.000001 2.682058 -0.060521 1.536964
    21 1.537458 0.109715 1.664489 -0.344506 -0.327833 0.740676
    22 0.928313 0.000000 0.000002 0.000000 0.000000 0.000000
    23 0.928311 0.000000 0.000001 0.000000 0.000000 0.000000
    24 2.686395 -0.427337 0.044204 0.001045 0.043611 0.000046
    25 1.435260 0.000000 0.000001 0.000000 0.000000 1.037856
    26 1.482593 0.000000 -0.000001 0.000000 0.000000 1.142584
    27 2.046984 0.000001 0.000000 0.585152 -0.004101 -0.414678
    28 -0.000005 0.000007 3.713254 -3.266099 -0.171898 1.248944
    29 18.045723 0.000000 0.000000 0.000000 0.000000 -1.712058
    30 17.597597 0.000000 0.000000 -0.237848 0.177473 -0.184222
    31 0.000005 -0.000003 -3.713254 0.897704 2.353817 5.514646
    32 18.045721 0.000000 0.000000 0.000000 0.000000 -2.663141
    33 17.597597 0.000000 0.000000 0.414560 -0.018236 0.786686
  time 13
    0 -0.772496 2.629137 -20.600716 0.000000 0.000000 -1.585458
    1 -0.375015 0.507828 0.000000 -1.570795 -1.570787 0.000000
    2 1.293670 0.684478 -0.000001 -0.068916 -0.014742 0.050100
    3 5.309685 -0.003834 0.000000 -0.085783 0.033892 0.061834
    4 4.826790 -0.004591 0.000000 -0.175484 -0.022183 0.101564
    5 5.792767 -0.005304 0.000000 -0.316278 -0.102037 0.246624
    6 6.662322 -0.001452 0.000000 0.000000 -0.000001 0.471000
    7 -3.108188 1.516823 4.339626 -0.000100 -1.446543 -3.613335
    8 4.827512 0.000000 -0.000002 0.153770 -0.199377 -0.886981
    9 11.140032 0.000000 0.000000 0.000000 0.000000 -0.711030
    10 10.314563 -0.000001 0.000001 -3.262836 -0.074469 -0.011366
    11 1.646836 0.445664 -1.699647 0.153911 0.442352 0.277231
    12 0.928312 0.000000 0.000000 0.000000 0.000000 0.000000
    13 0.928313 0.000000 -0.000001 0.000000 0.000000 0.000000
    14 2.979373 -0.388274 -0.044205 -0.018183 -0.039656 0.411911
    15 1.435262 -0.000001 -0.000001 0.000000 0.000000 0.570828
    16 1.482593 -0.000001 0.000001 0.000000 0.000000 0.530452
    17 -2.869899 1.399667 -4.140396 -0.036467 1.370690 -3.649088
    18 4.972047 0.000000 0.000000 0.118233 -0.334063 -1.295418
    19 11.585358 0.000000 0.000001 0.000000 0.000000 -2.514251
    20 10.127058 0.000000 0.000001 2.682689 -0.086337 1.513504
    21 1.537458 0.109715 1.664489 -0.344506 -0.327833 0.740676
    22 0.928313 0.000000 0.000002 0.000000 0.000000 0.000000
    23 0.928311 0.000000 0.000001 0.000000 0.000000 0.000000
    24 2.686395 -0.427337 0.044204 0.001045 0.043611 0.000046
    25 1.435260 0.000000 0.000001 0.000000 0.000000 1.037856
    26 1.482593 0.000000 -0.000001 0.000000 0.000000 1.142584
    27 2.046984 0.000001 0.000000 0.643573 0.084616 -0.523074
    28 -0.000005 0.000007 3.713254 -3.265715 -0.171994 1.249327
    29 18.045723 0.000000 0.000000 0.000000 0.000000 -1.709098
    30 17.597597 0.000000 0.000000 -0.237544 0.177030 -0.186790
    31 0.000005 -0.000003 -3.713254 0.899716 2.355159 5.510716
    32 18.045721 0.000000 0.000000 0.000000 0.000000 -2.662590
    33 17.597597 0.000000 0.000000 0.418922 -0.022082 0.785346
  time 14
    0 -0.741245 2.586167 -20.600716 0.000000 0.000000 -1.585458
    1 -0.375015 0.507828 0.000000 -1.570795 -1.570787 0.000000
    2 1.293670 0.684478 -0.000001 -0.069000 -0.015209 0.051339
    3 5.309685 -0.003834 0.000000 -0.085375 0.033880 0.061692
    4 4.826790 -0.004591 0.000000 -0.185326 -0.016527 0.094774
    5 5.792767 -0.005304 0.000000 -0.312465 -0.085510 0.235059
    6 6.662322 -0.001452 0.000000 0.000000 -0.000001 0.471000
    7 -3.108188 1.516823 4.339626 -0.000100 -1.445833 -3.613335
    8 4.827512 0.000000 -0.000002 0.147791 -0.170042 -0.806223
    9 11.140032 0.000000 0.000000 0.000000 0.000000 -0.877020
    10 10.314563 -0.000001 0.000001 -3.073662 0.146972 -0.536491
    11 1.646836 0.445664 -1.699647 0.153911 0.442352 0.277231
    12 0.928312 0.000000 0.000000 0.000000 0.000000 0.000000
    13 0.928313 0.000000 -0.000001 0.000000 0.000000 0.000000
    14 2.979373 -0.388274 -0.044205 -0.018183 -0.039656 0.411911
    15 1.435262 -0.000001 -0.000001 0.000000 0.000000 0.570828
    16 1.482593 -0.000001 0.000001 0.000000 0.000000 0.530452
    17 -2.869899 1.399667 -4.140396 -0.036467 1.370690 -3.649088
    18 4.972047 0.000000 0.000000 0.076305 -0.331894 -1.220676
    19 11.585358 0.000000 0.000001 0.000000 0.000000 -2.525931
    20 10.127058 0.000000 0.000001 2.683040 -0.116030 1.489043
    21 1.537458 0.109715 1.664489 -0.344506 -0.327833 0.740676
    22 0.928313 0.000000 0.000002 0.000000 0.000000 0.000000
    23 0.928311 0.000000 0.000001 0.000000 0.000000 0.000000
    24 2.686395 -0.427337 0.044204 0.001045 0.043611 0.000046
    25 1.435260 0.000000 0.000001 0.000000 0.000000 1.037856
    26 1.482593 0.000000 -0.000001 0.000000 0.000000 1.142584
    27 2.046984 0.000001 0.000000 0.647536 0.144154 -0.634452
    28 -0.000005 0.000007 3.713254 -3.266482 -0.171803 1.249039
    29 18.045723 0.000000 0.000000 0.000000 0.000000 -1.712058
    30 17.597597 0.000000 0.000000 -0.238127 0.177891 -0.184177
    31 0.000005 -0.000003 -3.713254 0.896362 2.353146 5.513592
    32 18.045721 0.000000 0.000000 0.000000 0.000000 -2.663456
    33 17.597597 0.000000 0.000000 0.414560 -0.017664 0.785808
  time 15
    0 -0.667024 2.535385 -20.600716 0.000000 0.000000 -1.585458
    1 -0.375015 0.507828 0.000000 -1.570795 -1.570787 0.000000
    2 1.293670 0.684478 -0.000001 -0.069387 -0.017954 0.053549
    3 5.309685 -0.003834 0.000000 -0.098052 0.031987 0.061922
    4 4.826790 -0.004591 0.000000 -0.173119 0.005489 0.093429
    5 5.792767 -0.005304 0.000000 -0.274763 -0.043995 0.221314
    6 6.662322 -0.001452 0.000000 0.000000 -0.000001 0.471000
    7 -3.108188 1.516823 4.339626 -0.000100 -1.437376 -3.613335
    8 4.827512 0.000000 -0.000002 0.072857 -0.053303 -0.921555
    9 11.140032 0.000000 0.000000 0.000000 0.000000 -0.701756
    10 10.314563 -0.000001 0.000001 -2.826486 0.124490 -0.405036
    11 1.646836 0.445664 -1.699647 0.153911 0.442352 0.277231
    12 0.928312 0.000000 0.000000 0.000000 0.000000 0.000000
    13 0.928313 0.000000 -0.000001 0.000000 0.000000 0.000000
    14 2.979373 -0.388274 -0.044205 -0.018183 -0.039656 0.411911
    15 1.435262 -0.000001 -0.000001 0.000000 0.000000 0.570828
    16 1.482593 -0.000001 0.000001 0.000000 0.000000 0.530452
    17 -2.869899 1.399667 -4.140396 -0.036467 1.370690 -3.649088
    18 4.972047 0.000000 0.000000 -0.003049 -0.309236 -1.146334
    19 11.585358 0.000000 0.000001 0.000000 0.000000 -2.543819
    20 10.127058 0.000000 0.000001 2.678482 -0.132863 1.497097
    21 1.537458 0.109715 1.664489 -0.344506 -0.327833 0.740676
    22 0.928313 0.000000 0.000002 0.000000 0.000000 0.000000
    23 0.928311 0.000000 0.000001 0.000000 0.000000 0.000000
    24 2.686395 -0.427337 0.044204 0.001045 0.043611 0.000046
    25 1.435260 0.000000 0.000001 0.000000 0.000000 1.037923
    26 1.482593 0.000000 -0.000001 0.000000 0.000000 1.142584
    27 2.046984 0.000001 0.000000 0.613673 0.137280 -0.730622
    28 -0.000005 0.000007 3.713254 -3.269742 -0.170940 1.248944
    29 18.045723 0.000000 0.000000 0.000000 0.000000 -1.715241
    30 17.597597 0.000000 0.000000 -0.240002 0.180648 -0.181197
    31 0.000005 -0.000003 -3.713254 0.886107 2.347298 5.511291
    32 18.045721 0.000000 0.000000 0.000000 0.000000 -2.664873
    33 17.597597 0.000000 0.000000 0.409595 -0.010248 0.781928
  time 16
    0 -0.581084 2.480695 -20.600716 0.000000 0.000000 -1.585458
    1 -0.375015 0.507828 0.000000 -1.570795 -1.570787 0.000000
    2 1.293670 0.684478 -0.000001 -0.069909 -0.020782 0.059542
    3 5.309685 -0.003834 0.000000 -0.113317 0.030920 0.061569
    4 4.826790 -0.004591 0.000000 -0.156791 0.027373 0.094333
    5 5.792767 -0.005304 0.000000 -0.230081 0.006508 0.210289
    6 6.662322 -0.001452 0.000000 0.000000 -0.000001 0.471000
    7 -3.108188 1.516823 4.339626 -0.000100 -1.426938 -3.613335
    8 4.827512 0.000000 -0.000002 -0.069517 -0.077435 -0.897292
    9 11.140032 0.000000 0.000000 0.000000 0.000000 -0.681903
    10 10.314563 -0.000001 0.000001 -2.575802 -0.051332 -0.127493
    11 1.646836 0.445664 -1.699647 0.153911 0.442352 0.277231
    12 0.928312 0.000000 0.000000 0.000000 0.000000 0.000000
    13 0.928313 0.000000 -0.000001 0.000000 0.000000 0.000000
    14 2.979373 -0.388274 -0.044205 -0.018183 -0.039656 0.411911
    15 1.435262 -0.000001 -0.000001 0.000000 0.000000 0.570828
    16 1.482593 -0.000001 0.000001 0.000000 0.000000 0.530452
    17 -2.869899 1.399667 -4.140396 -0.029493 1.370690 -3.642287
    18 4.972047 0.000000 0.000000 0.021808 -0.204540 -1.125369
    19 11.585358 0.000000 0.000001 0.000000 0.000000 -2.517927
    20 10.127058 0.000000 0.000001 2.670348 -0.151019 1.520357
    21 1.537458 0.109715 1.664489 -0.344506 -0.327833 0.740676
    22 0.928313 0.000000 0.000002 0.000000 0.000000 0.000000
    23 0.928311 0.000000 0.000001 0.000000 0.000000 0.000000
    24 2.686395 -0.427337 0.044204 0.001045 0.043611 0.000046
    25 1.435260 0.000000 0.000001 0.000000 0.000000 1.037856
    26 1.482593 0.000000 -0.000001 0.000000 0.000000 1.142584
    27 2.046984 0.000001 0.000000 0.577354 0.033221 -0.740902
    28 -0.000005 0.000007 3.713254 -3.273673 -0.169789 1.249039
    29 18.045723 0.000000 0.000000 0.000000 0.000000 -1.719090
    30 17.597597 0.000000 0.000000 -0.242333 0.184068 -0.177666
    31 0.000005 -0.000003 -3.713254 0.873455 2.340108 5.508319
    32 18.045721 0.000000 0.000000 0.000000 0.000000 -2.666841
    33 17.597597 0.000000 0.000000 0.403522 -0.001175 0.777079
  time 17
    0 -0.475612 2.418194 -20.600716 0.000000 0.000000 -1.585458
    1 -0.375015 0.507828 0.000000 -1.570795 -1.570787 0.000000
    2 1.293670 0.684478 -0.000001 -0.070600 -0.023179 0.071127
    3 5.309685 -0.003834 0.000000 -0.129670 0.031795 0.060209
    4 4.826790 -0.004591 0.000000 -0.139548 0.043264 0.098919
    5 5.792767 -0.005304 0.000000 -0.184194 0.060798 0.206593
    6 6.662322 -0.001452 0.000000 0.000000 -0.000001 0.471000
    7 -3.108188 1.516823 4.339626 -0.000100 -1.415998 -3.613335
    8 4.827512 0.000000 -0.000002 -0.238278 -0.078458 -0.884988
    9 11.140032 0.000000 0.000000 0.000000 0.000000 -0.764428
    10 10.314563 -0.000001 0.000001 -2.381795 -0.265373 0.091174
    11 1.646836 0.445664 -1.699647 0.153911 0.442352 0.277231
    12 0.928312 0.000000 0.000000 0.000000 0.000000 0.000000
    13 0.928313 0.000000 -0.000001 0.000000 0.000000 0.000000
    14 2.979373 -0.388274 -0.044205 -0.018183 -0.039656 0.411911
    15 1.435262 -0.000001 -0.000001 0.000000 0.000000 0.570828
    16 1.482593 -0.000001 0.000001 0.000000 0.000000 0.530452
    17 -2.869899 1.399667 -4.140396 -0.017743 1.370769 -3.630698
    18 4.972047 0.000000 0.000000 0.108571 -0.048019 -1.139279
    19 11.585358 0.000000 0.000001 0.000000 0.000000 -2.470307
    20 10.127058 0.000000 0.000001 2.658146 -0.175322 1.556873
    21 1.537458 0.109715 1.664489 -0.344506 -0.327833 0.740676
    22 0.928313 0.000000 0.000002 0.000000 0.000000 0.000000
    23 0.928311 0.000000 0.000001 0.000000 0.000000 0.000000
    24 2.686395 -0.427337 0.044204 0.001045 0.043611 0.000046
    25 1.435260 0.000000 0.000001 0.000000 0.000000 1.037923
    26 1.482593 0.000000 -0.000001 0.000000 0.000000 1.142584
    27 2.046984 0.000001 0.000000 0.531859 -0.068153 -0.685365
    28 -0.000005 0.000007 3.713254 -3.277987 -0.168639 1.249135
    29 18.045723 0.000000 0.000000 0.000000 0.000000 -1.723161
    30 17.597597 0.000000 0.000000 -0.244867 0.187784 -0.173815
    31 0.000005 -0.000003 -3.713254 0.859462 2.332343 5.504772
    32 18.045721 0.000000 0.000000 0.000000 0.000000 -2.669045
    33 17.597597 0.000000 0.000000 0.396912 0.008687 0.771536
  time 18
    0 -0.370140 2.355692 -20.600716 0.000000 0.000000 -1.585458
    1 -0.375015 0.507828 0.000000 -1.570795 -1.570787 0.000000
    2 1.293670 0.684478 -0.000001 -0.071409 -0.024989 0.087098
    3 5.309685 -0.003834 0.000000 -0.145734 0.034372 0.057895
    4 4.826790 -0.004591 0.000000 -0.123144 0.052145 0.106195
    5 5.792767 -0.005304 0.000000 -0.140178 0.113362 0.210372
    6 6.662322 -0.001452 0.000000 0.000000 -0.000001 0.471000
    7 -3.108188 1.516823 4.339626 -0.000100 -1.404939 -3.613335
    8 4.827512 0.000000 -0.000002 -0.484523 -0.006146 -1.062795
    9 11.140032 0.000000 0.000000 0.000000 0.000000 -1.057791
    10 10.314563 -0.000001 0.000001 -2.175562 -0.367383 0.140760
    11 1.646836 0.445664 -1.699647 0.153911 0.442352 0.277231
    12 0.928312 0.000000 0.000000 0.000000 0.000000 0.000000
    13 0.928313 0.000000 -0.000001 0.000000 0.000000 0.000000
    14 2.979373 -0.388274 -0.044205 -0.018183 -0.039656 0.411911
    15 1.435262 -0.000001 -0.000001 0.000000 0.000000 0.570828
    16 1.482593 -0.000001 0.000001 0.000000 0.000000 0.530452
    17 -2.869899 1.399667 -4.140396 -0.006088 1.370769 -3.619396
    18 4.972047 0.000000 0.000000 0.188957 0.104886 -1.149395
    19 11.585358 0.000000 0.000001 0.000000 0.000000 -2.427670
    20 10.127058 0.000000 0.000001 -0.497923 -2.934325 -1.543863
    21 1.537458 0.109715 1.664489 -0.344506 -0.327833 0.740676
    22 0.928313 0.000000 0.000002 0.000000 0.000000 0.000000
    23 0.928311 0.000000 0.000001 0.000000 0.000000 0.000000
    24 2.686395 -0.427337 0.044204 0.001045 0.043611 0.000046
    25 1.435260 0.000000 0.000001 0.000000 0.000000 1.037856
    26 1.482593 0.000000 -0.000001 0.000000 0.000000 1.142584
    27 2.046984 0.000001 0.000000 0.491964 -0.069599 -0.593332
    28 -0.000005 0.000007 3.713254 -3.282301 -0.167392 1.249231
    29 18.045723 0.000000 0.000000 0.000000 0.000000 -1.727009
    30 17.597597 0.000000 0.000000 -0.247350 0.191451 -0.170147
    31 0.000005 -0.000003 -3.713254 0.845182 2.324674 5.500745
    32 18.045721 0.000000 0.000000 0.000000 0.000000 -2.670776
    33 17.597597 0.000000 0.000000 0.390403 0.018411 0.765762
  time 19
    0 -0.284200 2.304909 -20.600716 0.000000 0.000000 -1.585458
    1 -0.375015 0.507828 0.000000 -1.570795 -1.570787 0.000000
    2 1.293670 0.684478 -0.000001 -0.072268 -0.025960 0.106082
    3 5.309685 -0.003834 0.000000 -0.160165 0.038375 0.054751
    4 4.826790 -0.004591 0.000000 -0.109811 0.052960 0.115301
    5 5.792767 -0.005304 0.000000 -0.101577 0.159071 0.221044
    6 6.662322 -0.001452 0.000000 0.000000 -0.000001 0.471000
    7 -3.108188 1.516823 4.339626 -0.000100 -1.393673 -3.613335
    8 4.827512 0.000000 -0.000002 -0.664205 0.015087 -1.278987
    9 11.140032 0.000000 0.000000 0.000000 0.000000 -1.346083
    10 10.314563 -0.000001 0.000001 -1.951227 -0.422930 0.123457
    11 1.646836 0.445664 -1.699647 0.153911 0.442352 0.277231
    12 0.928312 0.000000 0.000000 0.000000 0.000000 0.000000
    13 0.928313 0.000000 -0.000001 0.000000 0.000000 0.000000
    14 2.979373 -0.388274 -0.044205 -0.018183 -0.039656 0.411911
    15 1.435262 -0.000001 -0.000001 0.000000 0.000000 0.570828
    16 1.482593 -0.000001 0.000001 0.000000 0.000000 0.530452
    17 -2.869899 1.399667 -4.140396 0.000026 1.370769 -3.613362
    18 4.972047 0.000000 0.000000 0.210812 0.193190 -1.130161
    19 11.585358 0.000000 0.000001 0.000000 0.000000 -2.416398
    20 10.127058 0.000000 0.000001 -0.514402 -2.893190 -1.508348
    21 1.537458 0.109715 1.664489 -0.344506 -0.327833 0.740676
    22 0.928313 0.000000 0.000002 0.000000 0.000000 0.000000
    23 0.928311 0.000000 0.000001 0.000000 0.000000 0.000000
    24 2.686395 -0.427337 0.044204 0.001045 0.043611 0.000046
    25 1.435260 0.000000 0.000001 0.000000 0.000000 1.037856
    26 1.482593 0.000000 -0.000001 0.000000 0.000000 1.142584
    27 2.046984 0.000001 0.000000 0.471413 -0.029769 -0.484205
    28 -0.000005 0.000007 3.713254 -3.286232 -0.166338 1.249423
    29 18.045723 0.000000 0.000000 0.000000 0.000000 -1.730340
    30 17.597597 0.000000 0.000000 -0.249656 0.194872 -0.166938
    31 0.000005 -0.000003 -3.713254 0.832243 2.317771 5.496815
    32 18.045721 0.000000 0.000000 0.000000 0.000000 -2.672430
    33 17.597597 0.000000 0.000000 0.384599 0.027069 0.760358
  time 20
    0 -0.209979 2.261939 -20.600716 0.000000 0.000000 -1.585458
    1 -0.375015 0.507828 0.000000 -1.570795 -1.570787 0.000000
    2 1.293670 0.684478 -0.000001 -0.073110 -0.025984 0.126741
    3 5.309685 -0.003834 0.000000 -0.171515 0.043660 0.050953
    4 4.826790 -0.004591 0.000000 -0.101590 0.044894 0.125531
    5 5.792767 -0.005304 0.000000 -0.072634 0.193275 0.236969
    6 6.662322 -0.001452 0.000000 0.000000 -0.000001 0.471000
    7 -3.108188 1.516823 4.339626 -0.000100 -1.380781 -3.613335
    8 4.827512 0.000000 -0.000002 -0.585844 0.004001 -1.357753
    9 11.140032 0.000000 0.000000 0.000000 0.000000 -1.390642
    10 10.314563 -0.000001 0.000001 -1.684242 -0.484941 0.071026
    11 1.646836 0.445664 -1.699647 0.153911 0.442352 0.277231
    12 0.928312 0.000000 0.000000 0.000000 0.000000 0.000000
    13 0.928313 0.000000 -0.000001 0.000000 0.000000 0.000000
    14 2.979373 -0.388274 -0.044205 -0.018183 -0.039656 0.411911
    15 1.435262 -0.000001 -0.000001 0.000000 0.000000 0.570828
    16 1.482593 -0.000001 0.000001 0.000000 0.000000 0.530452
    17 -2.869899 1.399667 -4.140396 0.000981 1.370769 -3.612404
    18 4.972047 0.000000 0.000000 0.186612 0.216170 -1.088630
    19 11.585358 0.000000 0.000001 0.000000 0.000000 -2.434123
    20 10.127058 0.000000 0.000001 -0.532775 -2.845151 -1.478535
    21 1.537458 0.109715 1.664489 -0.344506 -0.327833 0.740676
    22 0.928313 0.000000 0.000002 0.000000 0.000000 0.000000
    23 0.928311 0.000000 0.000001 0.000000 0.000000 0.000000
    24 2.686395 -0.427337 0.044204 0.001045 0.043611 0.000046
    25 1.435260 0.000000 0.000001 0.000000 0.000000 1.037856
    26 1.482593 0.000000 -0.000001 0.000000 0.000000 1.142584
    27 2.046984 0.000001 0.000000 0.467062 -0.008704 -0.394482
    28 -0.000005 0.000007 3.713254 -3.289300 -0.165475 1.249615
    29 18.045723 0.000000 0.000000 0.000000 0.000000 -1.732931
    30 17.597597 0.000000 0.000000 -0.251405 0.197505 -0.164508
    31 0.000005 -0.000003 -3.713254 0.821892 2.312307 5.493555
    32 18.045721 0.000000 0.000000 0.000000 0.000000 -2.673768
    33 17.597597 0.000000 0.000000 0.379969 0.033854 0.755924
  time 21
    0 -0.182634 2.250220 -20.600716 0.000000 0.000000 -1.585458
    1 -0.375015 0.507828 0.000000 -1.570795 -1.570787 0.000000
    2 1.293670 0.684478 -0.000001 -0.073582 -0.024210 0.147684
    3 5.309685 -0.003834 0.000000 -0.175531 0.050779 0.046661
    4 4.826790 -0.004591 0.000000 -0.104165 0.021620 0.136952
    5 5.792767 -0.005304 0.000000 -0.068120 0.202731 0.257130
    6 6.662322 -0.001452 0.000000 0.000000 -0.000001 0.471000
    7 -3.108188 1.516823 4.339626 -0.000100 -1.370787 -3.613335
    8 4.827512 0.000000 -0.000002 -0.415807 -0.015612 -1.351774
    9 11.140032 0.000000 0.000000 0.000000 0.000000 -1.368327
    10 10.314563 -0.000001 0.000001 -1.480094 -0.530372 0.017027
    11 1.646836 0.445664 -1.699647 0.153911 0.442352 0.277231
    12 0.928312 0.000000 0.000000 0.000000 0.000000 0.000000
    13 0.928313 0.000000 -0.000001 0.000000 0.000000 0.000000
    14 2.979373 -0.388274 -0.044205 -0.018183 -0.039656 0.411911
    15 1.435262 -0.000001 -0.000001 0.000000 0.000000 0.570828
    16 1.482593 -0.000001 0.000001 0.000000 0.000000 0.530452
    17 -2.869899 1.399667 -4.140396 0.000886 1.370769 -3.612595
    18 4.972047 0.000000 0.000000 0.179858 0.205564 -1.062873
    19 11.585358 0.000000 0.000001 0.000000 0.000000 -2.458627
    20 10.127058 0.000000 0.000001 -0.553041 -2.795883 -1.448772
    21 1.537458 0.109715 1.664489 -0.344506 -0.327833 0.740676
    22 0.928313 0.000000 0.000002 0.000000 0.000000 0.000000
    23 0.928311 0.000000 0.000001 0.000000 0.000000 0.000000
    24 2.686395 -0.427337 0.044204 0.001045 0.043611 0.000046
    25 1.435260 0.000000 0.000001 0.000000 0.000000 1.037856
    26 1.482593 0.000000 -0.000001 0.000000 0.000000 1.142584
    27 2.046984 0.000001 0.000000 0.475248 -0.020387 -0.343326
    28 -0.000005 0.000007 3.713254 -3.290547 -0.165187 1.249615
    29 18.045723 0.000000 0.000000 0.000000 0.000000 -1.733819
    30 17.597597 0.000000 0.000000 -0.252089 0.198490 -0.163591
    31 0.000005 -0.000003 -3.713254 0.818154 2.310389 5.492309
    32 18.045721 0.000000 0.000000 0.000000 0.000000 -2.674083
    33 17.597597 0.000000 0.000000 0.378291 0.036300 0.754308
  time 22
    0 -0.190447 2.261939 -20.600716 0.000000 0.000000 -1.585458
    1 -0.375015 0.507828 0.000000 -1.570795 -1.570787 0.000000
    2 1.293670 0.684478 -0.000001 -0.073683 -0.021034 0.167706
    3 5.309685 -0.003834 0.000000 -0.173115 0.059120 0.042351
    4 4.826790 -0.004591 0.000000 -0.115457 -0.012835 0.149365
    5 5.792767 -0.005304 0.000000 -0.085280 0.191933 0.278993
    6 6.662322 -0.001452 0.000000 0.000000 -0.000001 0.471000
    7 -3.108188 1.516823 4.339626 -0.000100 -1.369367 -3.613335
    8 4.827512 0.000000 -0.000002 -0.304204 -0.042132 -1.302643
    9 11.140032 0.000000 0.000000 0.000000 0.000000 -1.391874
    10 10.314563 -0.000001 0.000001 -1.502840 -0.577864 0.053897
    11 1.646836 0.445664 -1.699647 0.153911 0.442352 0.277231
    12 0.928312 0.000000 0.000000 0.000000 0.000000 0.000000
    13 0.928313 0.000000 -0.000001 0.000000 0.000000 0.000000
    14 2.979373 -0.388274 -0.044205 -0.018183 -0.039656 0.411911
    15 1.435262 -0.000001 -0.000001 0.000000 0.000000 0.570828
    16 1.482593 -0.000001 0.000001 0.000000 0.000000 0.530452
    17 -2.869899 1.399667 -4.140396 0.000313 1.370769 -3.613074
    18 4.972047 0.000000 0.000000 0.190270 0.170772 -1.056617
    19 11.585358 0.000000 0.000001 0.000000 0.000000 -2.484601
    20 10.127058 0.000000 0.000001 -0.574569 -2.748318 -1.419059
    21 1.537458 0.109715 1.664489 -0.344506 -0.327833 0.740676
    22 0.928313 0.000000 0.000002 0.000000 0.000000 0.000000
    23 0.928311 0.000000 0.000001 0.000000 0.000000 0.000000
    24 2.686395 -0.427337 0.044204 0.001045 0.043611 0.000046
    25 1.435260 0.000000 0.000001 0.000000 0.000000 1.037856
    26 1.482593 0.000000 -0.000001 0.000000 0.000000 1.142584
    27 2.046984 0.000001 0.000000 0.496186 -0.038443 -0.314554
    28 -0.000005 0.000007 3.713254 -3.289876 -0.165379 1.249615
    29 18.045723 0.000000 0.000000 0.000000 0.000000 -1.733375
    30 17.597597 0.000000 0.000000 -0.251734 0.197997 -0.164004
    31 0.000005 -0.000003 -3.713254 0.820071 2.311348 5.492980
    32 18.045721 0.000000 0.000000 0.000000 0.000000 -2.674004
    33 17.597597 0.000000 0.000000 0.379163 0.035077 0.755139
  time 23
    0 -0.209979 2.261939 -20.600716 0.000000 0.000000 -1.585458
    1 -0.375015 0.507828 0.000000 -1.570795 -1.570787 0.000000
    2 1.293670 0.684478 -0.000001 -0.073699 -0.018158 0.185502
    3 5.309685 -0.003834 0.000000 -0.170766 0.066610 0.038518
    4 4.826790 -0.004591 0.000000 -0.126291 -0.043959 0.160874
    5 5.792767 -0.005304 0.000000 -0.101703 0.182058 0.298697
    6 6.662322 -0.001452 0.000000 0.000000 -0.000001 0.471000
    7 -3.108188 1.516823 4.339626 -0.000100 -1.370787 -3.613335
    8 4.827512 0.000000 -0.000002 -0.220899 -0.066264 -1.244241
    9 11.140032 0.000000 0.000000 0.000000 0.000000 -1.415928
    10 10.314563 -0.000001 0.000001 -1.604061 -0.615427 0.129147
    11 1.646836 0.445664 -1.699647 0.153911 0.442352 0.277231
    12 0.928312 0.000000 0.000000 0.000000 0.000000 0.000000
    13 0.928313 0.000000 -0.000001 0.000000 0.000000 0.000000
    14 2.979373 -0.388274 -0.044205 -0.018183 -0.039656 0.411911
    15 1.435262 -0.000001 -0.000001 0.000000 0.000000 0.570828
    16 1.482593 -0.000001 0.000001 0.000000 0.000000 0.530452
    17 -2.869899 1.399667 -4.140396 0.000026 1.370769 -3.613362
    18 4.972047 0.000000 0.000000 0.199744 0.138632 -1.054088
    19 11.585358 0.000000 0.000001 0.000000 0.000000 -2.507717
    20 10.127058 0.000000 0.000001 -0.596237 -2.705385 -1.389797
    21 1.537458 0.109715 1.664489 -0.344506 -0.327833 0.740676
    22 0.928313 0.000000 0.000002 0.000000 0.000000 0.000000
    23 0.928311 0.000000 0.000001 0.000000 0.000000 0.000000
    24 2.686395 -0.427337 0.044204 0.001045 0.043611 0.000046
    25 1.435260 0.000000 0.000001 0.000000 0.000000 1.037856
    26 1.482593 0.000000 -0.000001 0.000000 0.000000 1.142584
    27 2.046984 0.000001 0.000000 0.513462 -0.057650 -0.288580
    28 -0.000005 0.000007 3.713254 -3.289300 -0.165475 1.249615
    29 18.045723 0.000000 0.000000 0.000000 0.000000 -1.732931
    30 17.597597 0.000000 0.000000 -0.251405 0.197505 -0.164508
    31 0.000005 -0.000003 -3.713254 0.821892 2.312307 5.493555
    32 18.045721 0.000000 0.000000 0.000000 0.000000 -2.673768
    33 17.597597 0.000000 0.000000 0.379969 0.033854 0.755924
end
