version 1
nodes
  0 "Bip01" -1
  1 "Bip01 Pelvis" 0
  2 "Bip01 Spine" 1
  3 "Bip01 Spine1" 2
  4 "Bip01 Spine2" 3
  5 "Bip01 Spine3" 4
  6 "Bip01 Neck" 5
  7 "Bip01 L Arm" 6
  8 "Bip01 L Arm1" 7
  9 "Bip01 L Arm2" 8
  10 "Bip01 L Hand" 9
  11 "Bip01 L Finger0" 10
  12 "Bip01 L Finger01" 11
  13 "Bip01 L Finger02" 12
  14 "Bip01 L Finger1" 10
  15 "Bip01 L Finger11" 14
  16 "Bip01 L Finger12" 15
  17 "Bip01 R Arm" 6
  18 "Bip01 R Arm1" 17
  19 "Bip01 R Arm2" 18
  20 "Bip01 R Hand" 19
  21 "Bip01 R Finger0" 20
  22 "Bip01 R Finger01" 21
  23 "Bip01 R Finger02" 22
  24 "Bip01 R Finger1" 20
  25 "Bip01 R Finger11" 24
  26 "Bip01 R Finger12" 25
  27 "Bip01 Head" 6
  28 "Bip01 L Leg" 1
  29 "Bip01 L Leg1" 28
  30 "Bip01 L Foot" 29
  31 "Bip01 R Leg" 1
  32 "Bip01 R Leg1" 31
  33 "Bip01 R Foot" 32
end
skeleton
  time 0
    0 0.368164 -0.546741 -20.600716 0.000000 0.000000 -1.585458
    1 -3.187601 -0.105472 0.000000 -1.570795 -1.570787 0.000000
    2 1.293670 0.684478 -0.000001 0.005437 0.021967 0.240379
    3 5.309685 -0.003834 0.000000 -0.008202 -0.021596 0.118287
    4 4.826790 -0.004591 0.000000 -0.178097 -0.047627 -0.064878
    5 5.792767 -0.005304 0.000000 -0.188296 -0.030992 0.017050
    6 6.662322 -0.001452 0.000000 0.000000 -0.000001 0.471000
    7 -3.108188 1.516823 4.339626 0.881461 -1.530697 -4.494575
    8 4.827512 0.000000 -0.000002 0.188208 0.591537 -1.451422
    9 11.140032 0.000000 0.000000 0.000000 0.000000 -0.986135
    10 10.314563 -0.000001 0.000001 -1.539424 0.267903 0.634066
    11 1.646836 0.445664 -1.699647 0.153911 0.442352 0.277231
    12 0.928312 0.000000 0.000000 0.000000 0.000000 0.000000
    13 0.928313 0.000000 -0.000001 0.000000 0.000000 0.000000
    14 2.979373 -0.388274 -0.044205 -0.038161 -0.021140 1.047514
    15 1.435262 -0.000001 -0.000001 0.000000 0.000000 0.924803
    16 1.482593 -0.000001 0.000001 0.000000 0.000000 1.326263
    17 -2.869899 1.399667 -4.140396 -0.677008 1.367325 -4.280279
    18 4.972047 0.000000 0.000000 0.134835 -0.827329 -1.104337
    19 11.585358 0.000000 0.000001 0.000000 0.000000 -0.904750
    20 10.127058 0.000000 0.000001 2.342518 -0.472348 -0.363755
    21 1.537458 0.109715 1.664489 -0.264662 -0.055995 0.783079
    22 0.928313 0.000000 0.000002 0.000000 0.000000 -0.453501
    23 0.928311 0.000000 0.000001 0.000000 0.000000 0.000000
    24 2.686395 -0.427337 0.044204 0.005971 0.043227 0.113528
    25 1.435260 0.000000 0.000001 0.000000 0.000000 1.090194
    26 1.482593 0.000000 -0.000001 0.000000 0.000000 1.168644
    27 2.046984 0.000001 0.000000 0.243979 0.287777 -1.114147
    28 -0.000005 0.000007 3.713254 -3.289300 -0.165475 1.249615
    29 18.045723 0.000000 0.000000 0.000000 0.000000 -1.732931
    30 17.597597 0.000000 0.000000 -0.251405 0.197505 -0.164508
    31 0.000005 -0.000003 -3.713254 0.821892 2.312307 5.493555
    32 18.045721 0.000000 0.000000 0.000000 0.000000 -2.673768
    33 17.597597 0.000000 0.000000 0.379969 0.033854 0.755924
  time 1
    0 0.368164 -0.546741 -20.600716 0.000000 0.000000 -1.585458
    1 -3.156350 -0.105472 0.000000 -1.570795 -1.570787 0.000000
    2 1.293670 0.684478 -0.000001 0.005437 0.021967 0.240379
    3 5.309685 -0.003834 0.000000 -0.008457 -0.019918 0.123939
    4 4.826790 -0.004591 0.000000 -0.176476 -0.049221 -0.079474
    5 5.792767 -0.005304 0.000000 -0.187936 -0.034036 -0.000101
    6 6.662322 -0.001452 0.000000 0.000000 -0.000001 0.471000
    7 -3.108188 1.516823 4.339626 0.881461 -1.530697 -4.494575
    8 4.827512 0.000000 -0.000002 0.185498 0.618995 -1.455321
    9 11.140032 0.000000 0.000000 0.000000 0.000000 -0.977441
    10 10.314563 -0.000001 0.000001 -1.539234 0.266685 0.628201
    11 1.646836 0.445664 -1.699647 0.153911 0.442352 0.277231
    12 0.928312 0.000000 0.000000 0.000000 0.000000 0.000000
    13 0.928313 0.000000 -0.000001 0.000000 0.000000 0.000000
    14 2.979373 -0.388274 -0.044205 -0.038161 -0.021140 1.047514
    15 1.435262 -0.000001 -0.000001 0.000000 0.000000 0.924803
    16 1.482593 -0.000001 0.000001 0.000000 0.000000 1.326263
    17 -2.869899 1.399667 -4.140396 -0.672231 1.366063 -4.275395
    18 4.972047 0.000000 0.000000 0.115794 -0.848782 -1.085768
    19 11.585358 0.000000 0.000001 0.000000 0.000000 -0.904750
    20 10.127058 0.000000 0.000001 2.342799 -0.472348 -0.363404
    21 1.537458 0.109715 1.664489 -0.264662 -0.055995 0.783079
    22 0.928313 0.000000 0.000002 0.000000 0.000000 -0.453501
    23 0.928311 0.000000 0.000001 0.000000 0.000000 0.000000
    24 2.686395 -0.427337 0.044204 0.005971 0.043227 0.113528
    25 1.435260 0.000000 0.000001 0.000000 0.000000 1.090194
    26 1.482593 0.000000 -0.000001 0.000000 0.000000 1.168644
    27 2.046984 0.000001 0.000000 0.245659 0.284738 -1.087930
    28 -0.000005 0.000007 3.713254 -3.289109 -0.165762 1.249231
    29 18.045723 0.000000 0.000000 0.000000 0.000000 -1.734929
    30 17.597597 0.000000 0.000000 -0.251177 0.197382 -0.162674
    31 0.000005 -0.000003 -3.713254 0.821221 2.313265 5.496815
    32 18.045721 0.000000 0.000000 0.000000 0.000000 -2.673768
    33 17.597597 0.000000 0.000000 0.378056 0.036438 0.758049
  time 2
    0 0.368164 -0.546741 -20.600716 0.000000 0.000000 -1.585458
    1 -3.125099 -0.105472 0.000000 -1.570795 -1.570787 0.000000
    2 1.293670 0.684478 -0.000001 0.005437 0.021967 0.240379
    3 5.309685 -0.003834 0.000000 -0.008696 -0.018133 0.129998
    4 4.826790 -0.004591 0.000000 -0.174645 -0.050899 -0.095172
    5 5.792767 -0.005304 0.000000 -0.187486 -0.037236 -0.017936
    6 6.662322 -0.001452 0.000000 0.000000 -0.000001 0.471000
    7 -3.108188 1.516823 4.339626 0.881461 -1.530697 -4.494575
    8 4.827512 0.000000 -0.000002 0.182389 0.648756 -1.460000
    9 11.140032 0.000000 0.000000 0.000000 0.000000 -0.968964
    10 10.314563 -0.000001 0.000001 -1.539803 0.264718 0.623208
    11 1.646836 0.445664 -1.699647 0.153911 0.442352 0.277231
    12 0.928312 0.000000 0.000000 0.000000 0.000000 0.000000
    13 0.928313 0.000000 -0.000001 0.000000 0.000000 0.000000
    14 2.979373 -0.388274 -0.044205 -0.038161 -0.021140 1.047514
    15 1.435262 -0.000001 -0.000001 0.000000 0.000000 0.924803
    16 1.482593 -0.000001 0.000001 0.000000 0.000000 1.326263
    17 -2.869899 1.399667 -4.140396 -0.677008 1.367325 -4.280279
    18 4.972047 0.000000 0.000000 0.097316 -0.873530 -1.066733
    19 11.585358 0.000000 0.000001 0.000000 0.000000 -0.904750
    20 10.127058 0.000000 0.000001 2.342518 -0.472348 -0.363755
    21 1.537458 0.109715 1.664489 -0.264662 -0.055995 0.783079
    22 0.928313 0.000000 0.000002 0.000000 0.000000 -0.453501
    23 0.928311 0.000000 0.000001 0.000000 0.000000 0.000000
    24 2.686395 -0.427337 0.044204 0.005971 0.043227 0.113528
    25 1.435260 0.000000 0.000001 0.000000 0.000000 1.090194
    26 1.482593 0.000000 -0.000001 0.000000 0.000000 1.168644
    27 2.046984 0.000001 0.000000 0.247296 0.281463 -1.060313
    28 -0.000005 0.000007 3.713254 -3.288821 -0.165954 1.248944
    29 18.045723 0.000000 0.000000 0.000000 0.000000 -1.737149
    30 17.597597 0.000000 0.000000 -0.250949 0.197234 -0.160840
    31 0.000005 -0.000003 -3.713254 0.820455 2.314224 5.500170
    32 18.045721 0.000000 0.000000 0.000000 0.000000 -2.673768
    33 17.597597 0.000000 0.000000 0.375976 0.039219 0.760312
  time 3
    0 0.368164 -0.546741 -20.600716 0.000000 0.000000 -1.585458
    1 -3.086036 -0.105472 0.000000 -1.570795 -1.570787 0.000000
    2 1.293670 0.684478 -0.000001 0.005437 0.021967 0.240379
    3 5.309685 -0.003834 0.000000 -0.008951 -0.016299 0.136039
    4 4.826790 -0.004591 0.000000 -0.172871 -0.052493 -0.110297
    5 5.792767 -0.005304 0.000000 -0.187018 -0.040352 -0.035377
    6 6.662322 -0.001452 0.000000 0.002289 0.003353 0.512868
    7 -3.057405 1.653546 4.331813 0.813405 -1.527740 -4.468417
    8 4.827512 0.000000 -0.000002 0.179280 0.678772 -1.465286
    9 11.140032 0.000000 0.000000 0.000000 0.000000 -0.962878
    10 10.314563 -0.000001 0.000001 -1.541793 0.261814 0.621059
    11 1.646836 0.445664 -1.699647 0.153911 0.442352 0.277231
    12 0.928312 0.000000 0.000000 0.000000 0.000000 0.000000
    13 0.928313 0.000000 -0.000001 0.000000 0.000000 0.000000
    14 2.979373 -0.388274 -0.044205 -0.038161 -0.021140 1.047514
    15 1.435262 -0.000001 -0.000001 0.000000 0.000000 0.924803
    16 1.482593 -0.000001 0.000001 0.000000 0.000000 1.326263
    17 -2.799584 1.501233 -4.148209 -0.713406 1.376658 -4.358819
    18 4.972047 0.000000 0.000000 0.083246 -0.902054 -1.050960
    19 11.585358 0.000000 0.000001 0.000000 0.000000 -0.904995
    20 10.127058 0.000000 0.000001 2.341256 -0.471970 -0.365255
    21 1.537458 0.109715 1.664489 -0.264662 -0.055995 0.783079
    22 0.928313 0.000000 0.000002 0.000000 0.000000 -0.453501
    23 0.928311 0.000000 0.000001 0.000000 0.000000 0.000000
    24 2.686395 -0.427337 0.044204 0.005971 0.043227 0.113528
    25 1.435260 0.000000 0.000001 0.000000 0.000000 1.090194
    26 1.482593 0.000000 -0.000001 0.000000 0.000000 1.168644
    27 2.046984 0.000001 0.000000 0.246865 0.275356 -1.085132
    28 -0.000005 0.000007 3.713254 -3.288533 -0.166146 1.248560
    29 18.045723 0.000000 0.000000 0.000000 0.000000 -1.739222
    30 17.597597 0.000000 0.000000 -0.250746 0.197087 -0.159098
    31 0.000005 -0.000003 -3.713254 0.819592 2.315183 5.503430
    32 18.045721 0.000000 0.000000 0.000000 0.000000 -2.673768
    33 17.597597 0.000000 0.000000 0.373996 0.041862 0.762391
  time 4
    0 0.368164 -0.546741 -20.600716 0.000000 0.000000 -1.585458
    1 -3.062597 -0.113285 0.000000 -1.570795 -1.570787 0.000000
    2 1.293670 0.684478 -0.000001 0.005437 0.021967 0.240379
    3 5.309685 -0.003834 0.000000 -0.009155 -0.014609 0.141709
    4 4.826790 -0.004591 0.000000 -0.171326 -0.053847 -0.123284
    5 5.792767 -0.005304 0.000000 -0.186569 -0.043157 -0.051634
    6 6.662322 -0.001452 0.000000 0.004770 0.006624 0.554821
    7 -3.006622 1.790269 4.312281 0.751388 -1.524724 -4.448391
    8 4.827512 0.000000 -0.000002 0.176330 0.705974 -1.470225
    9 11.140032 0.000000 0.000000 0.000000 0.000000 -0.958675
    10 10.314563 -0.000001 0.000001 -1.544068 0.258816 0.620537
    11 1.646836 0.445664 -1.699647 0.153911 0.442352 0.277231
    12 0.928312 0.000000 0.000000 0.000000 0.000000 0.000000
    13 0.928313 0.000000 -0.000001 0.000000 0.000000 0.000000
    14 2.979373 -0.388274 -0.044205 -0.038161 -0.021140 1.047514
    15 1.435262 -0.000001 -0.000001 0.000000 0.000000 0.924803
    16 1.482593 -0.000001 0.000001 0.000000 0.000000 1.326263
    17 -2.725363 1.606705 -4.163834 -0.760980 1.386912 -4.448661
    18 4.972047 0.000000 0.000000 0.071990 -0.929212 -1.037915
    19 11.585358 0.000000 0.000001 0.000000 0.000000 -0.905321
    20 10.127058 0.000000 0.000001 2.339573 -0.471497 -0.367106
    21 1.537458 0.109715 1.664489 -0.264662 -0.055995 0.783079
    22 0.928313 0.000000 0.000002 0.000000 0.000000 -0.453501
    23 0.928311 0.000000 0.000001 0.000000 0.000000 0.000000
    24 2.686395 -0.427337 0.044204 0.005971 0.043227 0.113528
    25 1.435260 0.000000 0.000001 0.000000 0.000000 1.090194
    26 1.482593 0.000000 -0.000001 0.000000 0.000000 1.168644
    27 2.046984 0.000001 0.000000 0.246305 0.269632 -1.113174
    28 -0.000005 0.000007 3.713254 -3.288342 -0.166338 1.248273
    29 18.045723 0.000000 0.000000 0.000000 0.000000 -1.740924
    30 17.597597 0.000000 0.000000 -0.250594 0.196964 -0.157539
    31 0.000005 -0.000003 -3.713254 0.818730 2.315854 5.505922
    32 18.045721 0.000000 0.000000 0.000000 0.000000 -2.673768
    33 17.597597 0.000000 0.000000 0.372352 0.044091 0.764100
  time 5
    0 0.368164 -0.546741 -20.600716 0.000000 0.000000 -1.585458
    1 -3.043066 -0.113285 0.000000 -1.570795 -1.570787 0.000000
    2 1.293670 0.684478 -0.000001 0.005437 0.021967 0.240379
    3 5.309685 -0.003834 0.000000 -0.009359 -0.013171 0.146531
    4 4.826790 -0.004591 0.000000 -0.170239 -0.054782 -0.132456
    5 5.792767 -0.005304 0.000000 -0.186065 -0.045446 -0.065649
    6 6.662322 -0.001452 0.000000 0.007359 0.009840 0.596774
    7 -2.940214 1.919179 4.300562 0.694739 -1.521619 -4.433635
    8 4.827512 0.000000 -0.000002 0.174337 0.727804 -1.474211
    9 11.140032 0.000000 0.000000 0.000000 0.000000 -0.957009
    10 10.314563 -0.000001 0.000001 -1.546532 0.255913 0.621698
    11 1.646836 0.445664 -1.699647 0.153911 0.442352 0.277231
    12 0.928312 0.000000 0.000000 0.000000 0.000000 0.000000
    13 0.928313 0.000000 -0.000001 0.000000 0.000000 0.000000
    14 2.979373 -0.388274 -0.044205 -0.038161 -0.021140 1.047514
    15 1.435262 -0.000001 -0.000001 0.000000 0.000000 0.924803
    16 1.482593 -0.000001 0.000001 0.000000 0.000000 1.326263
    17 -2.639423 1.712177 -4.171647 -0.817631 1.397086 -4.547698
    18 4.972047 0.000000 0.000000 0.064955 -0.952513 -1.029329
    19 11.585358 0.000000 0.000001 0.000000 0.000000 -0.905566
    20 10.127058 0.000000 0.000001 2.337890 -0.471024 -0.369157
    21 1.537458 0.109715 1.664489 -0.264662 -0.055995 0.783079
    22 0.928313 0.000000 0.000002 0.000000 0.000000 -0.453501
    23 0.928311 0.000000 0.000001 0.000000 0.000000 0.000000
    24 2.686395 -0.427337 0.044204 0.005971 0.043227 0.113528
    25 1.435260 0.000000 0.000001 0.000000 0.000000 1.090194
    26 1.482593 0.000000 -0.000001 0.000000 0.000000 1.168644
    27 2.046984 0.000001 0.000000 0.245616 0.264646 -1.146204
    28 -0.000005 0.000007 3.713254 -3.288246 -0.166338 1.248177
    29 18.045723 0.000000 0.000000 0.000000 0.000000 -1.742034
    30 17.597597 0.000000 0.000000 -0.250518 0.196939 -0.156623
    31 0.000005 -0.000003 -3.713254 0.818250 2.316333 5.507648
    32 18.045721 0.000000 0.000000 0.000000 0.000000 -2.673768
    33 17.597597 0.000000 0.000000 0.371279 0.045590 0.765162
  time 6
    0 0.368164 -0.546741 -20.600716 0.000000 0.000000 -1.585458
    1 -3.031347 -0.113285 0.000000 -1.570795 -1.570787 0.000000
    2 1.293670 0.684478 -0.000001 0.005437 0.021967 0.240379
    3 5.309685 -0.003834 0.000000 -0.009461 -0.012080 0.150169
    4 4.826790 -0.004591 0.000000 -0.169571 -0.055333 -0.137880
    5 5.792767 -0.005304 0.000000 -0.185579 -0.047207 -0.079207
    6 6.662322 -0.001452 0.000000 0.010055 0.012905 0.638670
    7 -2.869899 2.055902 4.288843 0.642020 -1.518514 -4.422999
    8 4.827512 0.000000 -0.000002 0.172982 0.745968 -1.477244
    9 11.140032 0.000000 0.000000 0.000000 0.000000 -0.956647
    10 10.314563 -0.000001 0.000001 -1.548996 0.253290 0.623614
    11 1.646836 0.445664 -1.699647 0.153911 0.442352 0.277231
    12 0.928312 0.000000 0.000000 0.000000 0.000000 0.000000
    13 0.928313 0.000000 -0.000001 0.000000 0.000000 0.000000
    14 2.979373 -0.388274 -0.044205 -0.038161 -0.021140 1.047514
    15 1.435262 -0.000001 -0.000001 0.000000 0.000000 0.924803
    16 1.482593 -0.000001 0.000001 0.000000 0.000000 1.326263
    17 -2.549577 1.805929 -4.187273 -0.880300 1.406288 -4.652481
    18 4.972047 0.000000 0.000000 0.059984 -0.973244 -1.023007
    19 11.585358 0.000000 0.000001 0.000000 0.000000 -0.905893
    20 10.127058 0.000000 0.000001 2.336207 -0.470646 -0.371058
    21 1.537458 0.109715 1.664489 -0.264662 -0.055995 0.783079
    22 0.928313 0.000000 0.000002 0.000000 0.000000 -0.453501
    23 0.928311 0.000000 0.000001 0.000000 0.000000 0.000000
    24 2.686395 -0.427337 0.044204 0.005971 0.043227 0.113528
    25 1.435260 0.000000 0.000001 0.000000 0.000000 1.090194
    26 1.482593 0.000000 -0.000001 0.000000 0.000000 1.168644
    27 2.046984 0.000001 0.000000 0.244711 0.260191 -1.182336
    28 -0.000005 0.000007 3.713254 -3.288150 -0.166434 1.248081
    29 18.045723 0.000000 0.000000 0.000000 0.000000 -1.742775
    30 17.597597 0.000000 0.000000 -0.250442 0.196865 -0.155981
    31 0.000005 -0.000003 -3.713254 0.817867 2.316621 5.508798
    32 18.045721 0.000000 0.000000 0.000000 0.000000 -2.673768
    33 17.597597 0.000000 0.000000 0.370541 0.046536 0.765809
  time 7
    0 0.368164 -0.546741 -20.600716 0.000000 0.000000 -1.585458
    1 -3.023534 -0.113285 0.000000 -1.570795 -1.570787 0.000000
    2 1.293670 0.684478 -0.000001 0.005437 0.021967 0.240379
    3 5.309685 -0.003834 0.000000 -0.009547 -0.011337 0.152678
    4 4.826790 -0.004591 0.000000 -0.169247 -0.055597 -0.140592
    5 5.792767 -0.005304 0.000000 -0.185166 -0.048538 -0.091644
    6 6.662322 -0.001452 0.000000 0.012907 0.015846 0.680680
    7 -2.799584 2.180906 4.269311 0.593039 -1.515380 -4.415908
    8 4.827512 0.000000 -0.000002 0.171786 0.761317 -1.479410
    9 11.140032 0.000000 0.000000 0.000000 0.000000 -0.956864
    10 10.314563 -0.000001 0.000001 -1.550986 0.251042 0.625646
    11 1.646836 0.445664 -1.699647 0.153911 0.442352 0.277231
    12 0.928312 0.000000 0.000000 0.000000 0.000000 0.000000
    13 0.928313 0.000000 -0.000001 0.000000 0.000000 0.000000
    14 2.979373 -0.388274 -0.044205 -0.038161 -0.021140 1.047514
    15 1.435262 -0.000001 -0.000001 0.000000 0.000000 0.924803
    16 1.482593 -0.000001 0.000001 0.000000 0.000000 1.326263
    17 -2.455824 1.903589 -4.202898 -0.943064 1.413780 -4.757648
    18 4.972047 0.000000 0.000000 0.055857 -0.990358 -1.017882
    19 11.585358 0.000000 0.000001 0.000000 0.000000 -0.906138
    20 10.127058 0.000000 0.000001 2.334734 -0.470267 -0.372759
    21 1.537458 0.109715 1.664489 -0.264662 -0.055995 0.783079
    22 0.928313 0.000000 0.000002 0.000000 0.000000 -0.453501
    23 0.928311 0.000000 0.000001 0.000000 0.000000 0.000000
    24 2.686395 -0.427337 0.044204 0.005971 0.043227 0.113528
    25 1.435260 0.000000 0.000001 0.000000 0.000000 1.090194
    26 1.482593 0.000000 -0.000001 0.000000 0.000000 1.168644
    27 2.046984 0.000001 0.000000 0.244022 0.256149 -1.221023
    28 -0.000005 0.000007 3.713254 -3.288054 -0.166529 1.247985
    29 18.045723 0.000000 0.000000 0.000000 0.000000 -1.743367
    30 17.597597 0.000000 0.000000 -0.250391 0.196816 -0.155476
    31 0.000005 -0.000003 -3.713254 0.817867 2.316813 5.509661
    32 18.045721 0.000000 0.000000 0.000000 0.000000 -2.673768
    33 17.597597 0.000000 0.000000 0.369970 0.047227 0.766363
  time 8
    0 0.368164 -0.546741 -20.600716 0.000000 0.000000 -1.585458
    1 -3.023534 -0.113285 0.000000 -1.570795 -1.570787 0.000000
    2 1.293670 0.684478 -0.000001 0.005437 0.021967 0.240379
    3 5.309685 -0.003834 0.000000 -0.009598 -0.010906 0.154197
    4 4.826790 -0.004591 0.000000 -0.169247 -0.055597 -0.140592
    5 5.792767 -0.005304 0.000000 -0.184878 -0.049017 -0.098911
    6 6.662322 -0.001452 0.000000 0.012907 0.015846 0.680680
    7 -2.799584 2.180906 4.269311 0.593039 -1.515380 -4.415908
    8 4.827512 0.000000 -0.000002 0.171308 0.768736 -1.480796
    9 11.140032 0.000000 0.000000 0.000000 0.000000 -0.957661
    10 10.314563 -0.000001 0.000001 -1.552408 0.249543 0.627504
    11 1.646836 0.445664 -1.699647 0.153911 0.442352 0.277231
    12 0.928312 0.000000 0.000000 0.000000 0.000000 0.000000
    13 0.928313 0.000000 -0.000001 0.000000 0.000000 0.000000
    14 2.979373 -0.388274 -0.044205 -0.038161 -0.021140 1.047514
    15 1.435262 -0.000001 -0.000001 0.000000 0.000000 0.924803
    16 1.482593 -0.000001 0.000001 0.000000 0.000000 1.326263
    17 -2.455824 1.903589 -4.202898 -0.974399 1.417224 -4.789256
    18 4.972047 0.000000 0.000000 0.055669 -0.999839 -1.017083
    19 11.585358 0.000000 0.000001 0.000000 0.000000 -0.906383
    20 10.127058 0.000000 0.000001 2.333753 -0.469984 -0.373909
    21 1.537458 0.109715 1.664489 -0.264662 -0.055995 0.783079
    22 0.928313 0.000000 0.000002 0.000000 0.000000 -0.453501
    23 0.928311 0.000000 0.000001 0.000000 0.000000 0.000000
    24 2.686395 -0.427337 0.044204 0.005971 0.043227 0.113528
    25 1.435260 0.000000 0.000001 0.000000 0.000000 1.090194
    26 1.482593 0.000000 -0.000001 0.000000 0.000000 1.168644
    27 2.046984 0.000001 0.000000 0.248158 0.254792 -1.205147
    28 -0.000005 0.000007 3.713254 -3.288054 -0.166434 1.247985
    29 18.045723 0.000000 0.000000 0.000000 0.000000 -1.743367
    30 17.597597 0.000000 0.000000 -0.250442 0.196816 -0.155476
    31 0.000005 -0.000003 -3.713254 0.817675 2.316717 5.509661
    32 18.045721 0.000000 0.000000 0.000000 0.000000 -2.673768
    33 17.597597 0.000000 0.000000 0.369970 0.047227 0.766363
  time 9
    0 0.368164 -0.546741 -20.600716 0.000000 0.000000 -1.585458
    1 -3.039159 -0.105472 0.000000 -1.570795 -1.570787 0.000000
    2 1.293670 0.684478 -0.000001 0.005437 0.021967 0.240379
    3 5.309685 -0.003834 0.000000 -0.009598 -0.010798 0.154462
    4 4.826790 -0.004591 0.000000 -0.169571 -0.055333 -0.137880
    5 5.792767 -0.005304 0.000000 -0.184968 -0.048310 -0.096731
    6 6.662322 -0.001452 0.000000 0.012907 0.015846 0.680680
    7 -2.799584 2.180906 4.269311 0.593039 -1.515380 -4.415908
    8 4.827512 0.000000 -0.000002 0.171866 0.764301 -1.480623
    9 11.140032 0.000000 0.000000 0.000000 0.000000 -0.959979
    10 10.314563 -0.000001 0.000001 -1.553261 0.249074 0.629711
    11 1.646836 0.445664 -1.699647 0.153911 0.442352 0.277231
    12 0.928312 0.000000 0.000000 0.000000 0.000000 0.000000
    13 0.928313 0.000000 -0.000001 0.000000 0.000000 0.000000
    14 2.979373 -0.388274 -0.044205 -0.038161 -0.021140 1.047514
    15 1.435262 -0.000001 -0.000001 0.000000 0.000000 0.924803
    16 1.482593 -0.000001 0.000001 0.000000 0.000000 1.326263
    17 -2.455824 1.903589 -4.202898 -0.994556 1.419301 -4.809657
    18 4.972047 0.000000 0.000000 0.063642 -0.998152 -1.024205
    19 11.585358 0.000000 0.000001 0.000000 0.000000 -0.906465
    20 10.127058 0.000000 0.000001 2.333192 -0.469795 -0.374659
    21 1.537458 0.109715 1.664489 -0.264662 -0.055995 0.783079
    22 0.928313 0.000000 0.000002 0.000000 0.000000 -0.453501
    23 0.928311 0.000000 0.000001 0.000000 0.000000 0.000000
    24 2.686395 -0.427337 0.044204 0.005971 0.043227 0.113528
    25 1.435260 0.000000 0.000001 0.000000 0.000000 1.090194
    26 1.482593 0.000000 -0.000001 0.000000 0.000000 1.168644
    27 2.046984 0.000001 0.000000 0.251863 0.254497 -1.200402
    28 -0.000005 0.000007 3.713254 -3.288246 -0.166338 1.248081
    29 18.045723 0.000000 0.000000 0.000000 0.000000 -1.742553
    30 17.597597 0.000000 0.000000 -0.250594 0.196890 -0.156210
    31 0.000005 -0.000003 -3.713254 0.817867 2.316237 5.508415
    32 18.045721 0.000000 0.000000 0.000000 0.000000 -2.673768
    33 17.597597 0.000000 0.000000 0.370574 0.046280 0.765393
  time 10
    0 0.368164 -0.546741 -20.600716 0.000000 0.000000 -1.585458
    1 -3.062597 -0.105472 0.000000 -1.570795 -1.570787 0.000000
    2 1.293670 0.684478 -0.000001 0.005437 0.021967 0.240379
    3 5.309685 -0.003834 0.000000 -0.009564 -0.011206 0.153208
    4 4.826790 -0.004591 0.000000 -0.170239 -0.054782 -0.132456
    5 5.792767 -0.005304 0.000000 -0.185436 -0.046261 -0.084003
    6 6.662322 -0.001452 0.000000 0.012907 0.015846 0.680680
    7 -2.799584 2.180906 4.269311 0.593039 -1.515380 -4.415908
    8 4.827512 0.000000 -0.000002 0.173540 0.746906 -1.479323
    9 11.140032 0.000000 0.000000 0.000000 0.000000 -0.963892
    10 10.314563 -0.000001 0.000001 -1.553735 0.249355 0.632730
    11 1.646836 0.445664 -1.699647 0.153911 0.442352 0.277231
    12 0.928312 0.000000 0.000000 0.000000 0.000000 0.000000
    13 0.928313 0.000000 -0.000001 0.000000 0.000000 0.000000
    14 2.979373 -0.388274 -0.044205 -0.038161 -0.021140 1.047514
    15 1.435262 -0.000001 -0.000001 0.000000 0.000000 0.924803
    16 1.482593 -0.000001 0.000001 0.000000 0.000000 1.326263
    17 -2.455824 1.903589 -4.202898 -1.008026 1.420616 -4.823353
    18 4.972047 0.000000 0.000000 0.080807 -0.985376 -1.040244
    19 11.585358 0.000000 0.000001 0.000000 0.000000 -0.906547
    20 10.127058 0.000000 0.000001 2.332701 -0.469606 -0.375110
    21 1.537458 0.109715 1.664489 -0.264662 -0.055995 0.783079
    22 0.928313 0.000000 0.000002 0.000000 0.000000 -0.453501
    23 0.928311 0.000000 0.000001 0.000000 0.000000 0.000000
    24 2.686395 -0.427337 0.044204 0.005971 0.043227 0.113528
    25 1.435260 0.000000 0.000001 0.000000 0.000000 1.090194
    26 1.482593 0.000000 -0.000001 0.000000 0.000000 1.168644
    27 2.046984 0.000001 0.000000 0.255094 0.255323 -1.207276
    28 -0.000005 0.000007 3.713254 -3.288533 -0.166050 1.248368
    29 18.045723 0.000000 0.000000 0.000000 0.000000 -1.740998
    30 17.597597 0.000000 0.000000 -0.250873 0.197062 -0.157494
    31 0.000005 -0.000003 -3.713254 0.818250 2.315183 5.505826
    32 18.045721 0.000000 0.000000 0.000000 0.000000 -2.674004
    33 17.597597 0.000000 0.000000 0.371883 0.044367 0.763638
  time 11
    0 0.368164 -0.546741 -20.600716 0.000000 0.000000 -1.585458
    1 -3.101661 -0.101566 0.000000 -1.570795 -1.570787 0.000000
    2 1.293670 0.684478 -0.000001 0.005437 0.021967 0.240379
    3 5.309685 -0.003834 0.000000 -0.009461 -0.012080 0.150169
    4 4.826790 -0.004591 0.000000 -0.171421 -0.053727 -0.122181
    5 5.792767 -0.005304 0.000000 -0.186065 -0.043252 -0.064486
    6 6.662322 -0.001452 0.000000 0.012907 0.015846 0.680680
    7 -2.799584 2.180906 4.269311 0.593039 -1.515380 -4.415908
    8 4.827512 0.000000 -0.000002 0.176649 0.718680 -1.476030
    9 11.140032 0.000000 0.000000 0.000000 0.000000 -0.970340
    10 10.314563 -0.000001 0.000001 -1.553735 0.250667 0.636969
    11 1.646836 0.445664 -1.699647 0.153911 0.442352 0.277231
    12 0.928312 0.000000 0.000000 0.000000 0.000000 0.000000
    13 0.928313 0.000000 -0.000001 0.000000 0.000000 0.000000
    14 2.979373 -0.388274 -0.044205 -0.038161 -0.021140 1.047514
    15 1.435262 -0.000001 -0.000001 0.000000 0.000000 0.924803
    16 1.482593 -0.000001 0.000001 0.000000 0.000000 1.326263
    17 -2.455824 1.903589 -4.202898 -1.013758 1.421142 -4.829004
    18 4.972047 0.000000 0.000000 0.104726 -0.962718 -1.062674
    19 11.585358 0.000000 0.000001 0.000000 0.000000 -0.906547
    20 10.127058 0.000000 0.000001 2.332560 -0.469606 -0.375310
    21 1.537458 0.109715 1.664489 -0.264662 -0.055995 0.783079
    22 0.928313 0.000000 0.000002 0.000000 0.000000 -0.453501
    23 0.928311 0.000000 0.000001 0.000000 0.000000 0.000000
    24 2.686395 -0.427337 0.044204 0.005971 0.043227 0.113528
    25 1.435260 0.000000 0.000001 0.000000 0.000000 1.090194
    26 1.482593 0.000000 -0.000001 0.000000 0.000000 1.168644
    27 2.046984 0.000001 0.000000 0.257808 0.257477 -1.224003
    28 -0.000005 0.000007 3.713254 -3.288821 -0.165762 1.248656
    29 18.045723 0.000000 0.000000 0.000000 0.000000 -1.738704
    30 17.597597 0.000000 0.000000 -0.251227 0.197234 -0.159511
    31 0.000005 -0.000003 -3.713254 0.819017 2.313841 5.501992
    32 18.045721 0.000000 0.000000 0.000000 0.000000 -2.674004
    33 17.597597 0.000000 0.000000 0.373896 0.041428 0.760913
  time 12
    0 0.368164 -0.546741 -20.600716 0.000000 0.000000 -1.585458
    1 -3.117287 -0.101566 0.000000 -1.570795 -1.570787 0.000000
    2 1.293670 0.684478 -0.000001 0.005437 0.021967 0.240379
    3 5.309685 -0.003834 0.000000 -0.009138 -0.014873 0.140914
    4 4.826790 -0.004591 0.000000 -0.173214 -0.052157 -0.107034
    5 5.792767 -0.005304 0.000000 -0.186821 -0.039801 -0.041398
    6 6.662322 -0.001452 0.000000 0.012907 0.015846 0.680680
    7 -2.799584 2.180906 4.269311 0.593039 -1.515380 -4.415908
    8 4.827512 0.000000 -0.000002 0.180874 0.687640 -1.470745
    9 11.140032 0.000000 0.000000 0.000000 0.000000 -0.978600
    10 10.314563 -0.000001 0.000001 -1.553356 0.252728 0.642136
    11 1.646836 0.445664 -1.699647 0.153911 0.442352 0.277231
    12 0.928312 0.000000 0.000000 0.000000 0.000000 0.000000
    13 0.928313 0.000000 -0.000001 0.000000 0.000000 0.000000
    14 2.979373 -0.388274 -0.044205 -0.038161 -0.021140 1.047514
    15 1.435262 -0.000001 -0.000001 0.000000 0.000000 0.924803
    16 1.482593 -0.000001 0.000001 0.000000 0.000000 1.326263
    17 -2.455824 1.903589 -4.202898 -1.010319 1.420800 -4.825460
    18 4.972047 0.000000 0.000000 0.127988 -0.937408 -1.084970
    19 11.585358 0.000000 0.000001 0.000000 0.000000 -0.906547
    20 10.127058 0.000000 0.000001 2.332631 -0.469606 -0.375210
    21 1.537458 0.109715 1.664489 -0.264662 -0.055995 0.783079
    22 0.928313 0.000000 0.000002 0.000000 0.000000 -0.453501
    23 0.928311 0.000000 0.000001 0.000000 0.000000 0.000000
    24 2.686395 -0.427337 0.044204 0.005971 0.043227 0.113528
    25 1.435260 0.000000 0.000001 0.000000 0.000000 1.090194
    26 1.482593 0.000000 -0.000001 0.000000 0.000000 1.168644
    27 2.046984 0.000001 0.000000 0.260393 0.260545 -1.242739
    28 -0.000005 0.000007 3.713254 -3.288917 -0.165667 1.248848
    29 18.045723 0.000000 0.000000 0.000000 0.000000 -1.737298
    30 17.597597 0.000000 0.000000 -0.251253 0.197234 -0.160657
    31 0.000005 -0.000003 -3.713254 0.819880 2.313457 5.500266
    32 18.045721 0.000000 0.000000 0.000000 0.000000 -2.673768
    33 17.597597 0.000000 0.000000 0.375271 0.039456 0.759897
  time 13
    0 0.368164 -0.546741 -20.600716 0.000000 0.000000 -1.585458
    1 -3.125099 -0.105472 0.000000 -1.570795 -1.570787 0.000000
    2 1.293670 0.684478 -0.000001 0.005437 0.021967 0.240379
    3 5.309685 -0.003834 0.000000 -0.008611 -0.018948 0.127224
    4 4.826790 -0.004591 0.000000 -0.175217 -0.050359 -0.090300
    5 5.792767 -0.005304 0.000000 -0.187450 -0.036265 -0.017957
    6 6.662322 -0.001452 0.000000 0.010055 0.012905 0.638670
    7 -2.869899 2.055902 4.288843 0.642020 -1.518514 -4.422999
    8 4.827512 0.000000 -0.000002 0.185099 0.658733 -1.464853
    9 11.140032 0.000000 0.000000 0.000000 0.000000 -0.987149
    10 10.314563 -0.000001 0.000001 -1.552597 0.255069 0.646956
    11 1.646836 0.445664 -1.699647 0.153911 0.442352 0.277231
    12 0.928312 0.000000 0.000000 0.000000 0.000000 0.000000
    13 0.928313 0.000000 -0.000001 0.000000 0.000000 0.000000
    14 2.979373 -0.388274 -0.044205 -0.038161 -0.021140 1.047514
    15 1.435262 -0.000001 -0.000001 0.000000 0.000000 0.924803
    16 1.482593 -0.000001 0.000001 0.000000 0.000000 1.326263
    17 -2.549577 1.805929 -4.187273 -0.973730 1.417540 -4.747112
    18 4.972047 0.000000 0.000000 0.146560 -0.913222 -1.103272
    19 11.585358 0.000000 0.000001 0.000000 0.000000 -0.906465
    20 10.127058 0.000000 0.000001 2.333121 -0.469795 -0.374759
    21 1.537458 0.109715 1.664489 -0.264662 -0.055995 0.783079
    22 0.928313 0.000000 0.000002 0.000000 0.000000 -0.453501
    23 0.928311 0.000000 0.000001 0.000000 0.000000 0.000000
    24 2.686395 -0.427337 0.044204 0.005971 0.043227 0.113528
    25 1.435260 0.000000 0.000001 0.000000 0.000000 1.090194
    26 1.482593 0.000000 -0.000001 0.000000 0.000000 1.168644
    27 2.046984 0.000001 0.000000 0.256645 0.267744 -1.227532
    28 -0.000005 0.000007 3.713254 -3.288629 -0.165858 1.248848
    29 18.045723 0.000000 0.000000 0.000000 0.000000 -1.737149
    30 17.597597 0.000000 0.000000 -0.250949 0.197087 -0.160840
    31 0.000005 -0.000003 -3.713254 0.821030 2.314032 5.500841
    32 18.045721 0.000000 0.000000 0.000000 0.000000 -2.673768
    33 17.597597 0.000000 0.000000 0.375640 0.038864 0.760497
  time 14
    0 0.368164 -0.546741 -20.600716 0.000000 0.000000 -1.585458
    1 -3.140725 -0.113285 0.000000 -1.570795 -1.570787 0.000000
    2 1.293670 0.684478 -0.000001 0.005437 0.021967 0.240379
    3 5.309685 -0.003834 0.000000 -0.008202 -0.021596 0.118287
    4 4.826790 -0.004591 0.000000 -0.176972 -0.048717 -0.075175
    5 5.792767 -0.005304 0.000000 -0.187990 -0.033185 0.002557
    6 6.662322 -0.001452 0.000000 0.007359 0.009840 0.596774
    7 -2.940214 1.919179 4.300562 0.694739 -1.521619 -4.433635
    8 4.827512 0.000000 -0.000002 0.188447 0.629143 -1.459654
    9 11.140032 0.000000 0.000000 0.000000 0.000000 -0.994395
    10 10.314563 -0.000001 0.000001 -1.551365 0.257786 0.650614
    11 1.646836 0.445664 -1.699647 0.153911 0.442352 0.277231
    12 0.928312 0.000000 0.000000 0.000000 0.000000 0.000000
    13 0.928313 0.000000 -0.000001 0.000000 0.000000 0.000000
    14 2.979373 -0.388274 -0.044205 -0.038161 -0.021140 1.047514
    15 1.435262 -0.000001 -0.000001 0.000000 0.000000 0.924803
    16 1.482593 -0.000001 0.000001 0.000000 0.000000 1.326263
    17 -2.639423 1.712177 -4.171647 -0.929881 1.412834 -4.661389
    18 4.972047 0.000000 0.000000 0.162412 -0.886707 -1.119046
    19 11.585358 0.000000 0.000001 0.000000 0.000000 -0.906383
    20 10.127058 0.000000 0.000001 2.333753 -0.469984 -0.373909
    21 1.537458 0.109715 1.664489 -0.264662 -0.055995 0.783079
    22 0.928313 0.000000 0.000002 0.000000 0.000000 -0.453501
    23 0.928311 0.000000 0.000001 0.000000 0.000000 0.000000
    24 2.686395 -0.427337 0.044204 0.005971 0.043227 0.113528
    25 1.435260 0.000000 0.000001 0.000000 0.000000 1.090194
    26 1.482593 0.000000 -0.000001 0.000000 0.000000 1.168644
    27 2.046984 0.000001 0.000000 0.252595 0.274766 -1.212872
    28 -0.000005 0.000007 3.713254 -3.288629 -0.165858 1.249039
    29 18.045723 0.000000 0.000000 0.000000 0.000000 -1.735891
    30 17.597597 0.000000 0.000000 -0.250974 0.197062 -0.161941
    31 0.000005 -0.000003 -3.713254 0.822084 2.313841 5.499307
    32 18.045721 0.000000 0.000000 0.000000 0.000000 -2.673768
    33 17.597597 0.000000 0.000000 0.376882 0.037069 0.759527
  time 15
    0 0.368164 -0.546741 -20.600716 0.000000 0.000000 -1.585458
    1 -3.171976 -0.105472 0.000000 -1.570795 -1.570787 0.000000
    2 1.293670 0.684478 -0.000001 0.005437 0.021967 0.240379
    3 5.309685 -0.003834 0.000000 -0.008100 -0.022327 0.115814
    4 4.826790 -0.004591 0.000000 -0.178097 -0.047627 -0.064878
    5 5.792767 -0.005304 0.000000 -0.188296 -0.030992 0.017050
    6 6.662322 -0.001452 0.000000 0.004770 0.006624 0.554821
    7 -3.006622 1.790269 4.312281 0.751388 -1.524724 -4.448391
    8 4.827512 0.000000 -0.000002 0.190041 0.603219 -1.455668
    9 11.140032 0.000000 0.000000 0.000000 0.000000 -0.997728
    10 10.314563 -0.000001 0.000001 -1.549091 0.260784 0.650614
    11 1.646836 0.445664 -1.699647 0.153911 0.442352 0.277231
    12 0.928312 0.000000 0.000000 0.000000 0.000000 0.000000
    13 0.928313 0.000000 -0.000001 0.000000 0.000000 0.000000
    14 2.979373 -0.388274 -0.044205 -0.038161 -0.021140 1.047514
    15 1.435262 -0.000001 -0.000001 0.000000 0.000000 0.924803
    16 1.482593 -0.000001 0.000001 0.000000 0.000000 1.326263
    17 -2.725363 1.606705 -4.163834 -0.865015 1.404342 -4.554211
    18 4.972047 0.000000 0.000000 0.169071 -0.860272 -1.127499
    19 11.585358 0.000000 0.000001 0.000000 0.000000 -0.906057
    20 10.127058 0.000000 0.000001 2.335365 -0.470267 -0.372058
    21 1.537458 0.109715 1.664489 -0.264662 -0.055995 0.783079
    22 0.928313 0.000000 0.000002 0.000000 0.000000 -0.453501
    23 0.928311 0.000000 0.000001 0.000000 0.000000 0.000000
    24 2.686395 -0.427337 0.044204 0.005971 0.043227 0.113528
    25 1.435260 0.000000 0.000001 0.000000 0.000000 1.090194
    26 1.482593 0.000000 -0.000001 0.000000 0.000000 1.168644
    27 2.046984 0.000001 0.000000 0.248847 0.280755 -1.194076
    28 -0.000005 0.000007 3.713254 -3.289013 -0.165571 1.249423
    29 18.045723 0.000000 0.000000 0.000000 0.000000 -1.733745
    30 17.597597 0.000000 0.000000 -0.251303 0.197234 -0.163775
    31 0.000005 -0.000003 -3.713254 0.822659 2.312594 5.495856
    32 18.045721 0.000000 0.000000 0.000000 0.000000 -2.673768
    33 17.597597 0.000000 0.000000 0.378761 0.034426 0.757079
  time 16
    0 0.368164 -0.546741 -20.600716 0.000000 0.000000 -1.585458
    1 -3.191508 -0.105472 0.000000 -1.570795 -1.570787 0.000000
    2 1.293670 0.684478 -0.000001 0.005437 0.021967 0.240379
    3 5.309685 -0.003834 0.000000 -0.008083 -0.022531 0.115125
    4 4.826790 -0.004591 0.000000 -0.178574 -0.047123 -0.060557
    5 5.792767 -0.005304 0.000000 -0.188404 -0.029973 0.023611
    6 6.662322 -0.001452 0.000000 0.002289 0.003353 0.512868
    7 -3.057405 1.653546 4.331813 0.813405 -1.527740 -4.468417
    8 4.827512 0.000000 -0.000002 0.190121 0.589149 -1.453068
    9 11.140032 0.000000 0.000000 0.000000 0.000000 -0.996134
    10 10.314563 -0.000001 0.000001 -1.545584 0.263875 0.646375
    11 1.646836 0.445664 -1.699647 0.153911 0.442352 0.277231
    12 0.928312 0.000000 0.000000 0.000000 0.000000 0.000000
    13 0.928313 0.000000 -0.000001 0.000000 0.000000 0.000000
    14 2.979373 -0.388274 -0.044205 -0.038161 -0.021140 1.047514
    15 1.435262 -0.000001 -0.000001 0.000000 0.000000 0.924803
    16 1.482593 -0.000001 0.000001 0.000000 0.000000 1.326263
    17 -2.799584 1.501233 -4.148209 -0.785723 1.391302 -4.432474
    18 4.972047 0.000000 0.000000 0.162974 -0.840426 -1.125036
    19 11.585358 0.000000 0.000001 0.000000 0.000000 -0.905566
    20 10.127058 0.000000 0.000001 2.337890 -0.471024 -0.369157
    21 1.537458 0.109715 1.664489 -0.264662 -0.055995 0.783079
    22 0.928313 0.000000 0.000002 0.000000 0.000000 -0.453501
    23 0.928311 0.000000 0.000001 0.000000 0.000000 0.000000
    24 2.686395 -0.427337 0.044204 0.005971 0.043227 0.113528
    25 1.435260 0.000000 0.000001 0.000000 0.000000 1.090194
    26 1.482593 0.000000 -0.000001 0.000000 0.000000 1.168644
    27 2.046984 0.000001 0.000000 0.245745 0.285269 -1.163175
    28 -0.000005 0.000007 3.713254 -3.289204 -0.165379 1.249615
    29 18.045723 0.000000 0.000000 0.000000 0.000000 -1.732709
    30 17.597597 0.000000 0.000000 -0.251481 0.197308 -0.164692
    31 0.000005 -0.000003 -3.713254 0.822947 2.311923 5.494035
    32 18.045721 0.000000 0.000000 0.000000 0.000000 -2.673768
    33 17.597597 0.000000 0.000000 0.379700 0.033144 0.755832
  time 17
    0 0.368164 -0.546741 -20.600716 0.000000 0.000000 -1.585458
    1 -3.199320 -0.101566 0.000000 -1.570795 -1.570787 0.000000
    2 1.293670 0.684478 -0.000001 0.005437 0.021967 0.240379
    3 5.309685 -0.003834 0.000000 -0.008100 -0.022387 0.115602
    4 4.826790 -0.004591 0.000000 -0.178650 -0.047063 -0.060005
    5 5.792767 -0.005304 0.000000 -0.188421 -0.029866 0.024400
    6 6.662322 -0.001452 0.000000 0.000000 -0.000001 0.471000
    7 -3.108188 1.516823 4.339626 0.881461 -1.530697 -4.494575
    8 4.827512 0.000000 -0.000002 0.189643 0.583777 -1.451422
    9 11.140032 0.000000 0.000000 0.000000 0.000000 -0.992366
    10 10.314563 -0.000001 0.000001 -1.542077 0.266498 0.640569
    11 1.646836 0.445664 -1.699647 0.153911 0.442352 0.277231
    12 0.928312 0.000000 0.000000 0.000000 0.000000 0.000000
    13 0.928313 0.000000 -0.000001 0.000000 0.000000 0.000000
    14 2.979373 -0.388274 -0.044205 -0.038161 -0.021140 1.047514
    15 1.435262 -0.000001 -0.000001 0.000000 0.000000 0.924803
    16 1.482593 -0.000001 0.000001 0.000000 0.000000 1.326263
    17 -2.869899 1.399667 -4.140396 -0.715507 1.376553 -4.319358
    18 4.972047 0.000000 0.000000 0.150968 -0.827650 -1.117182
    19 11.585358 0.000000 0.000001 0.000000 0.000000 -0.905158
    20 10.127058 0.000000 0.000001 2.340484 -0.471686 -0.366106
    21 1.537458 0.109715 1.664489 -0.264662 -0.055995 0.783079
    22 0.928313 0.000000 0.000002 0.000000 0.000000 -0.453501
    23 0.928311 0.000000 0.000001 0.000000 0.000000 0.000000
    24 2.686395 -0.427337 0.044204 0.005971 0.043227 0.113528
    25 1.435260 0.000000 0.000001 0.000000 0.000000 1.090194
    26 1.482593 0.000000 -0.000001 0.000000 0.000000 1.168644
    27 2.046984 0.000001 0.000000 0.243246 0.288898 -1.123819
    28 -0.000005 0.000007 3.713254 -3.289204 -0.165283 1.249615
    29 18.045723 0.000000 0.000000 0.000000 0.000000 -1.732413
    30 17.597597 0.000000 0.000000 -0.251582 0.197382 -0.164921
    31 0.000005 -0.000003 -3.713254 0.822947 2.311636 5.493555
    32 18.045721 0.000000 0.000000 0.000000 0.000000 -2.673768
    33 17.597597 0.000000 0.000000 0.379935 0.032710 0.755416
  time 18
    0 0.368164 -0.546741 -20.600716 0.000000 0.000000 -1.585458
    1 -3.191508 -0.101566 0.000000 -1.570795 -1.570787 0.000000
    2 1.293670 0.684478 -0.000001 0.005437 0.021967 0.240379
    3 5.309685 -0.003834 0.000000 -0.008151 -0.022088 0.116697
    4 4.826790 -0.004591 0.000000 -0.178498 -0.047243 -0.061659
    5 5.792767 -0.005304 0.000000 -0.188404 -0.030225 0.021950
    6 6.662322 -0.001452 0.000000 0.000000 -0.000001 0.471000
    7 -3.108188 1.516823 4.339626 0.881461 -1.530697 -4.494575
    8 4.827512 0.000000 -0.000002 0.188846 0.584459 -1.450555
    9 11.140032 0.000000 0.000000 0.000000 0.000000 -0.988236
    10 10.314563 -0.000001 0.000001 -1.539424 0.268277 0.635343
    11 1.646836 0.445664 -1.699647 0.153911 0.442352 0.277231
    12 0.928312 0.000000 0.000000 0.000000 0.000000 0.000000
    13 0.928313 0.000000 -0.000001 0.000000 0.000000 0.000000
    14 2.979373 -0.388274 -0.044205 -0.038161 -0.021140 1.047514
    15 1.435262 -0.000001 -0.000001 0.000000 0.000000 0.924803
    16 1.482593 -0.000001 0.000001 0.000000 0.000000 1.326263
    17 -2.869899 1.399667 -4.140396 -0.677008 1.367325 -4.280279
    18 4.972047 0.000000 0.000000 0.139150 -0.821544 -1.108730
    19 11.585358 0.000000 0.000001 0.000000 0.000000 -0.904750
    20 10.127058 0.000000 0.000001 2.342518 -0.472348 -0.363755
    21 1.537458 0.109715 1.664489 -0.264662 -0.055995 0.783079
    22 0.928313 0.000000 0.000002 0.000000 0.000000 -0.453501
    23 0.928311 0.000000 0.000001 0.000000 0.000000 0.000000
    24 2.686395 -0.427337 0.044204 0.005971 0.043227 0.113528
    25 1.435260 0.000000 0.000001 0.000000 0.000000 1.090194
    26 1.482593 0.000000 -0.000001 0.000000 0.000000 1.168644
    27 2.046984 0.000001 0.000000 0.243548 0.288544 -1.120838
    28 -0.000005 0.000007 3.713254 -3.289204 -0.165283 1.249615
    29 18.045723 0.000000 0.000000 0.000000 0.000000 -1.732487
    30 17.597597 0.000000 0.000000 -0.251607 0.197358 -0.164875
    31 0.000005 -0.000003 -3.713254 0.822947 2.311636 5.493747
    32 18.045721 0.000000 0.000000 0.000000 0.000000 -2.673768
    33 17.597597 0.000000 0.000000 0.379801 0.032848 0.755509
  time 19
    0 0.368164 -0.546741 -20.600716 0.000000 0.000000 -1.585458
    1 -3.187601 -0.101566 0.000000 -1.570795 -1.570787 0.000000
    2 1.293670 0.684478 -0.000001 0.005437 0.021967 0.240379
    3 5.309685 -0.003834 0.000000 -0.008185 -0.021740 0.117774
    4 4.826790 -0.004591 0.000000 -0.178250 -0.047507 -0.063820
    5 5.792767 -0.005304 0.000000 -0.188332 -0.030728 0.018607
    6 6.662322 -0.001452 0.000000 0.000000 -0.000001 0.471000
    7 -3.108188 1.516823 4.339626 0.881461 -1.530697 -4.494575
    8 4.827512 0.000000 -0.000002 0.188367 0.588638 -1.450902
    9 11.140032 0.000000 0.000000 0.000000 0.000000 -0.986208
    10 10.314563 -0.000001 0.000001 -1.538950 0.268371 0.633659
    11 1.646836 0.445664 -1.699647 0.153911 0.442352 0.277231
    12 0.928312 0.000000 0.000000 0.000000 0.000000 0.000000
    13 0.928313 0.000000 -0.000001 0.000000 0.000000 0.000000
    14 2.979373 -0.388274 -0.044205 -0.038161 -0.021140 1.047514
    15 1.435262 -0.000001 -0.000001 0.000000 0.000000 0.924803
    16 1.482593 -0.000001 0.000001 0.000000 0.000000 1.326263
    17 -2.869899 1.399667 -4.140396 -0.670512 1.365643 -4.273766
    18 4.972047 0.000000 0.000000 0.134554 -0.823794 -1.104737
    19 11.585358 0.000000 0.000001 0.000000 0.000000 -0.904668
    20 10.127058 0.000000 0.000001 2.342869 -0.472348 -0.363304
    21 1.537458 0.109715 1.664489 -0.264662 -0.055995 0.783079
    22 0.928313 0.000000 0.000002 0.000000 0.000000 -0.453501
    23 0.928311 0.000000 0.000001 0.000000 0.000000 0.000000
    24 2.686395 -0.427337 0.044204 0.005971 0.043227 0.113528
    25 1.435260 0.000000 0.000001 0.000000 0.000000 1.090194
    26 1.482593 0.000000 -0.000001 0.000000 0.000000 1.168644
    27 2.046984 0.000001 0.000000 0.243720 0.288072 -1.116398
    28 -0.000005 0.000007 3.713254 -3.289204 -0.165283 1.249519
    29 18.045723 0.000000 0.000000 0.000000 0.000000 -1.732783
    30 17.597597 0.000000 0.000000 -0.251582 0.197308 -0.164600
    31 0.000005 -0.000003 -3.713254 0.822755 2.311732 5.494130
    32 18.045721 0.000000 0.000000 0.000000 0.000000 -2.673768
    33 17.597597 0.000000 0.000000 0.379499 0.033164 0.755786
  time 20
    0 0.368164 -0.546741 -20.600716 0.000000 0.000000 -1.585458
    1 -3.187601 -0.105472 0.000000 -1.570795 -1.570787 0.000000
    2 1.293670 0.684478 -0.000001 0.005437 0.021967 0.240379
    3 5.309685 -0.003834 0.000000 -0.008202 -0.021596 0.118287
    4 4.826790 -0.004591 0.000000 -0.178097 -0.047627 -0.064878
    5 5.792767 -0.005304 0.000000 -0.188296 -0.030992 0.017050
    6 6.662322 -0.001452 0.000000 0.000000 -0.000001 0.471000
    7 -3.108188 1.516823 4.339626 0.881461 -1.530697 -4.494575
    8 4.827512 0.000000 -0.000002 0.188208 0.591537 -1.451422
    9 11.140032 0.000000 0.000000 0.000000 0.000000 -0.986135
    10 10.314563 -0.000001 0.000001 -1.539424 0.267903 0.634066
    11 1.646836 0.445664 -1.699647 0.153911 0.442352 0.277231
    12 0.928312 0.000000 0.000000 0.000000 0.000000 0.000000
    13 0.928313 0.000000 -0.000001 0.000000 0.000000 0.000000
    14 2.979373 -0.388274 -0.044205 -0.038161 -0.021140 1.047514
    15 1.435262 -0.000001 -0.000001 0.000000 0.000000 0.924803
    16 1.482593 -0.000001 0.000001 0.000000 0.000000 1.326263
    17 -2.869899 1.399667 -4.140396 -0.677008 1.367325 -4.280279
    18 4.972047 0.000000 0.000000 0.134835 -0.827329 -1.104337
    19 11.585358 0.000000 0.000001 0.000000 0.000000 -0.904750
    20 10.127058 0.000000 0.000001 2.342518 -0.472348 -0.363755
    21 1.537458 0.109715 1.664489 -0.264662 -0.055995 0.783079
    22 0.928313 0.000000 0.000002 0.000000 0.000000 -0.453501
    23 0.928311 0.000000 0.000001 0.000000 0.000000 0.000000
    24 2.686395 -0.427337 0.044204 0.005971 0.043227 0.113528
    25 1.435260 0.000000 0.000001 0.000000 0.000000 1.090194
    26 1.482593 0.000000 -0.000001 0.000000 0.000000 1.168644
    27 2.046984 0.000001 0.000000 0.243979 0.287777 -1.114147
    28 -0.000005 0.000007 3.713254 -3.289300 -0.165475 1.249615
    29 18.045723 0.000000 0.000000 0.000000 0.000000 -1.732931
    30 17.597597 0.000000 0.000000 -0.251405 0.197505 -0.164508
    31 0.000005 -0.000003 -3.713254 0.821892 2.312307 5.493555
    32 18.045721 0.000000 0.000000 0.000000 0.000000 -2.673768
    33 17.597597 0.000000 0.000000 0.379969 0.033854 0.755924
end
