version 1
nodes
  0 "Bip01" -1
  1 "Bip01 Pelvis" 0
  2 "Bip01 Spine" 1
  3 "Bip01 Spine1" 2
  4 "Bip01 Spine2" 3
  5 "Bip01 Spine3" 4
  6 "Bip01 Neck" 5
  7 "Bip01 L Arm" 6
  8 "Bip01 L Arm1" 7
  9 "Bip01 L Arm2" 8
  10 "Bip01 L Hand" 9
  11 "Bip01 L Finger0" 10
  12 "Bip01 L Finger01" 11
  13 "Bip01 L Finger02" 12
  14 "Bip01 L Finger1" 10
  15 "Bip01 L Finger11" 14
  16 "Bip01 L Finger12" 15
  17 "Bip01 R Arm" 6
  18 "Bip01 R Arm1" 17
  19 "Bip01 R Arm2" 18
  20 "Bip01 R Hand" 19
  21 "Bip01 R Finger0" 20
  22 "Bip01 R Finger01" 21
  23 "Bip01 R Finger02" 22
  24 "Bip01 R Finger1" 20
  25 "Bip01 R Finger11" 24
  26 "Bip01 R Finger12" 25
  27 "Bip01 Head" 6
  28 "Bip01 L Leg" 1
  29 "Bip01 L Leg1" 28
  30 "Bip01 L Foot" 29
  31 "Bip01 R Leg" 1
  32 "Bip01 R Leg1" 31
  33 "Bip01 R Foot" 32
end
skeleton
  time 0
    0 0.086905 -1.964753 -20.600716 0.000000 0.000000 -1.585458
    1 -4.605613 0.156255 0.000000 -1.570795 -1.570787 0.000000
    2 1.293670 0.684478 -0.000001 0.009884 0.020589 0.259447
    3 5.309685 -0.003834 0.000000 -0.010142 -0.021093 0.160361
    4 4.826790 -0.004591 0.000000 -0.186223 0.009827 0.239719
    5 5.792767 -0.005304 0.000000 -0.191623 0.013686 0.246624
    6 6.662322 -0.001452 0.000000 0.000000 -0.000001 0.471000
    7 -3.108188 1.516823 4.339626 0.881461 -1.530697 -4.494575
    8 4.827512 0.000000 -0.000002 0.007888 -0.253440 -1.363732
    9 11.140032 0.000000 0.000000 0.000000 0.000000 -1.698497
    10 10.314563 -0.000001 0.000001 -1.539424 0.267903 0.634066
    11 1.646836 0.445664 -1.699647 0.153911 0.442352 0.277231
    12 0.928312 0.000000 0.000000 0.000000 0.000000 0.000000
    13 0.928313 0.000000 -0.000001 0.000000 0.000000 0.000000
    14 2.979373 -0.388274 -0.044205 -0.038161 -0.021140 1.047514
    15 1.435262 -0.000001 -0.000001 0.000000 0.000000 0.924803
    16 1.482593 -0.000001 0.000001 0.000000 0.000000 1.326263
    17 -2.869899 1.399667 -4.140396 -0.677008 1.367325 -4.280279
    18 4.972047 0.000000 0.000000 0.306674 -0.340411 -1.011626
    19 11.585358 0.000000 0.000001 0.000000 0.000000 -1.622634
    20 10.127058 0.000000 0.000001 2.342518 -0.472348 -0.363755
    21 1.537458 0.109715 1.664489 -0.264662 -0.055995 0.783079
    22 0.928313 0.000000 0.000002 0.000000 0.000000 -0.453501
    23 0.928311 0.000000 0.000001 0.000000 0.000000 0.000000
    24 2.686395 -0.427337 0.044204 0.005971 0.043227 0.113528
    25 1.435260 0.000000 0.000001 0.000000 0.000000 1.090194
    26 1.482593 0.000000 -0.000001 0.000000 0.000000 1.168644
    27 2.046984 0.000001 0.000000 0.366119 -0.078568 -0.447343
    28 -0.000005 0.000007 3.713254 -3.289300 -0.165475 1.249615
    29 18.045723 0.000000 0.000000 0.000000 0.000000 -1.732931
    30 17.597597 0.000000 0.000000 -0.251405 0.197505 -0.164508
    31 0.000005 -0.000003 -3.713254 0.821892 2.312307 5.493555
    32 18.045721 0.000000 0.000000 0.000000 0.000000 -2.673768
    33 17.597597 0.000000 0.000000 0.379969 0.033854 0.755924
  time 1
    0 0.086905 -1.964753 -20.600716 0.000000 0.000000 -1.585458
    1 -4.586081 0.144536 0.000000 -1.570795 -1.570787 0.000000
    2 1.293670 0.684478 -0.000001 0.009884 0.020589 0.259447
    3 5.309685 -0.003834 0.000000 -0.010312 -0.019379 0.166014
    4 4.826790 -0.004591 0.000000 -0.185078 0.007838 0.225189
    5 5.792767 -0.005304 0.000000 -0.191965 0.010642 0.229453
    6 6.662322 -0.001452 0.000000 0.000000 -0.000001 0.471000
    7 -3.108188 1.516823 4.339626 0.881461 -1.530697 -4.494575
    8 4.827512 0.000000 -0.000002 0.011954 -0.225300 -1.364945
    9 11.140032 0.000000 0.000000 0.000000 0.000000 -1.695598
    10 10.314563 -0.000001 0.000001 -1.538381 0.264905 0.630988
    11 1.646836 0.445664 -1.699647 0.153911 0.442352 0.277231
    12 0.928312 0.000000 0.000000 0.000000 0.000000 0.000000
    13 0.928313 0.000000 -0.000001 0.000000 0.000000 0.000000
    14 2.979373 -0.388274 -0.044205 -0.038161 -0.021140 1.047514
    15 1.435262 -0.000001 -0.000001 0.000000 0.000000 0.924803
    16 1.482593 -0.000001 0.000001 0.000000 0.000000 1.326263
    17 -2.869899 1.399667 -4.140396 -0.672231 1.366063 -4.275395
    18 4.972047 0.000000 0.000000 0.291854 -0.360820 -1.000910
    19 11.585358 0.000000 0.000001 0.000000 0.000000 -1.622552
    20 10.127058 0.000000 0.000001 2.342799 -0.472348 -0.363404
    21 1.537458 0.109715 1.664489 -0.264662 -0.055995 0.783079
    22 0.928313 0.000000 0.000002 0.000000 0.000000 -0.453501
    23 0.928311 0.000000 0.000001 0.000000 0.000000 0.000000
    24 2.686395 -0.427337 0.044204 0.005971 0.043227 0.113528
    25 1.435260 0.000000 0.000001 0.000000 0.000000 1.090194
    26 1.482593 0.000000 -0.000001 0.000000 0.000000 1.168644
    27 2.046984 0.000001 0.000000 0.364223 -0.081223 -0.421369
    28 -0.000005 0.000007 3.713254 -3.289109 -0.165762 1.249327
    29 18.045723 0.000000 0.000000 0.000000 0.000000 -1.734115
    30 17.597597 0.000000 0.000000 -0.251177 0.197382 -0.163408
    31 0.000005 -0.000003 -3.713254 0.821892 2.313170 5.495760
    32 18.045721 0.000000 0.000000 0.000000 0.000000 -2.673768
    33 17.597597 0.000000 0.000000 0.378895 0.035235 0.757495
  time 2
    0 0.086905 -1.964753 -20.600716 0.000000 0.000000 -1.585458
    1 -4.566550 0.144536 0.000000 -1.570795 -1.570787 0.000000
    2 1.293670 0.684478 -0.000001 0.009884 0.020589 0.259447
    3 5.309685 -0.003834 0.000000 -0.010500 -0.017569 0.172072
    4 4.826790 -0.004591 0.000000 -0.183896 0.005693 0.209601
    5 5.792767 -0.005304 0.000000 -0.192325 0.007430 0.211701
    6 6.662322 -0.001452 0.000000 0.000000 -0.000001 0.471000
    7 -3.108188 1.516823 4.339626 0.881461 -1.530697 -4.494575
    8 4.827512 0.000000 -0.000002 0.016338 -0.195454 -1.366764
    9 11.140032 0.000000 0.000000 0.000000 0.000000 -1.691976
    10 10.314563 -0.000001 0.000001 -1.537718 0.261439 0.628201
    11 1.646836 0.445664 -1.699647 0.153911 0.442352 0.277231
    12 0.928312 0.000000 0.000000 0.000000 0.000000 0.000000
    13 0.928313 0.000000 -0.000001 0.000000 0.000000 0.000000
    14 2.979373 -0.388274 -0.044205 -0.038161 -0.021140 1.047514
    15 1.435262 -0.000001 -0.000001 0.000000 0.000000 0.924803
    16 1.482593 -0.000001 0.000001 0.000000 0.000000 1.326263
    17 -2.869899 1.399667 -4.140396 -0.677008 1.367325 -4.280279
    18 4.972047 0.000000 0.000000 0.277596 -0.384684 -0.989463
    19 11.585358 0.000000 0.000001 0.000000 0.000000 -1.622634
    20 10.127058 0.000000 0.000001 2.342518 -0.472348 -0.363755
    21 1.537458 0.109715 1.664489 -0.264662 -0.055995 0.783079
    22 0.928313 0.000000 0.000002 0.000000 0.000000 -0.453501
    23 0.928311 0.000000 0.000001 0.000000 0.000000 0.000000
    24 2.686395 -0.427337 0.044204 0.005971 0.043227 0.113528
    25 1.435260 0.000000 0.000001 0.000000 0.000000 1.090194
    26 1.482593 0.000000 -0.000001 0.000000 0.000000 1.168644
    27 2.046984 0.000001 0.000000 0.362241 -0.084144 -0.394057
    28 -0.000005 0.000007 3.713254 -3.288821 -0.165954 1.249135
    29 18.045723 0.000000 0.000000 0.000000 0.000000 -1.735447
    30 17.597597 0.000000 0.000000 -0.250949 0.197210 -0.162308
    31 0.000005 -0.000003 -3.713254 0.821796 2.314032 5.498157
    32 18.045721 0.000000 0.000000 0.000000 0.000000 -2.673532
    33 17.597597 0.000000 0.000000 0.377687 0.036813 0.759158
  time 3
    0 0.086905 -1.964753 -20.600716 0.000000 0.000000 -1.585458
    1 -4.543111 0.144536 0.000000 -1.570795 -1.570787 0.000000
    2 1.293670 0.684478 -0.000001 0.009884 0.020589 0.259447
    3 5.309685 -0.003834 0.000000 -0.010670 -0.015772 0.178149
    4 4.826790 -0.004591 0.000000 -0.182675 0.003607 0.194564
    5 5.792767 -0.005304 0.000000 -0.192577 0.004290 0.194198
    6 6.662322 -0.001452 0.000000 0.002289 0.003353 0.512868
    7 -3.057405 1.653546 4.331813 0.813405 -1.527740 -4.468417
    8 4.827512 0.000000 -0.000002 0.021201 -0.166290 -1.369624
    9 11.140032 0.000000 0.000000 0.000000 0.000000 -1.688136
    10 10.314563 -0.000001 0.000001 -1.537718 0.257318 0.626459
    11 1.646836 0.445664 -1.699647 0.153911 0.442352 0.277231
    12 0.928312 0.000000 0.000000 0.000000 0.000000 0.000000
    13 0.928313 0.000000 -0.000001 0.000000 0.000000 0.000000
    14 2.979373 -0.388274 -0.044205 -0.038161 -0.021140 1.047514
    15 1.435262 -0.000001 -0.000001 0.000000 0.000000 0.924803
    16 1.482593 -0.000001 0.000001 0.000000 0.000000 1.326263
    17 -2.799584 1.501233 -4.148209 -0.713406 1.376658 -4.358819
    18 4.972047 0.000000 0.000000 0.266528 -0.412645 -0.978215
    19 11.585358 0.000000 0.000001 0.000000 0.000000 -1.622879
    20 10.127058 0.000000 0.000001 2.341256 -0.471970 -0.365255
    21 1.537458 0.109715 1.664489 -0.264662 -0.055995 0.783079
    22 0.928313 0.000000 0.000002 0.000000 0.000000 -0.453501
    23 0.928311 0.000000 0.000001 0.000000 0.000000 0.000000
    24 2.686395 -0.427337 0.044204 0.005971 0.043227 0.113528
    25 1.435260 0.000000 0.000001 0.000000 0.000000 1.090194
    26 1.482593 0.000000 -0.000001 0.000000 0.000000 1.168644
    27 2.046984 0.000001 0.000000 0.358407 -0.086711 -0.418267
    28 -0.000005 0.000007 3.713254 -3.288533 -0.166146 1.248944
    29 18.045723 0.000000 0.000000 0.000000 0.000000 -1.736779
    30 17.597597 0.000000 0.000000 -0.250721 0.197062 -0.161207
    31 0.000005 -0.000003 -3.713254 0.821605 2.314799 5.500362
    32 18.045721 0.000000 0.000000 0.000000 0.000000 -2.673532
    33 17.597597 0.000000 0.000000 0.376580 0.038351 0.760682
  time 4
    0 0.086905 -1.964753 -20.600716 0.000000 0.000000 -1.585458
    1 -4.527486 0.136723 0.000000 -1.570795 -1.570787 0.000000
    2 1.293670 0.684478 -0.000001 0.009884 0.020589 0.259447
    3 5.309685 -0.003834 0.000000 -0.010806 -0.014082 0.183783
    4 4.826790 -0.004591 0.000000 -0.181607 0.001882 0.181644
    5 5.792767 -0.005304 0.000000 -0.192739 0.001450 0.178003
    6 6.662322 -0.001452 0.000000 0.004770 0.006624 0.554821
    7 -3.006622 1.790269 4.312281 0.751388 -1.524724 -4.448391
    8 4.827512 0.000000 -0.000002 0.025585 -0.140197 -1.372483
    9 11.140032 0.000000 0.000000 0.000000 0.000000 -1.684658
    10 10.314563 -0.000001 0.000001 -1.538002 0.253477 0.625530
    11 1.646836 0.445664 -1.699647 0.153911 0.442352 0.277231
    12 0.928312 0.000000 0.000000 0.000000 0.000000 0.000000
    13 0.928313 0.000000 -0.000001 0.000000 0.000000 0.000000
    14 2.979373 -0.388274 -0.044205 -0.038161 -0.021140 1.047514
    15 1.435262 -0.000001 -0.000001 0.000000 0.000000 0.924803
    16 1.482593 -0.000001 0.000001 0.000000 0.000000 1.326263
    17 -2.725363 1.606705 -4.163834 -0.760980 1.386912 -4.448661
    18 4.972047 0.000000 0.000000 0.257711 -0.439402 -0.968365
    19 11.585358 0.000000 0.000001 0.000000 0.000000 -1.623206
    20 10.127058 0.000000 0.000001 2.339573 -0.471497 -0.367106
    21 1.537458 0.109715 1.664489 -0.264662 -0.055995 0.783079
    22 0.928313 0.000000 0.000002 0.000000 0.000000 -0.453501
    23 0.928311 0.000000 0.000001 0.000000 0.000000 0.000000
    24 2.686395 -0.427337 0.044204 0.005971 0.043227 0.113528
    25 1.435260 0.000000 0.000001 0.000000 0.000000 1.090194
    26 1.482593 0.000000 -0.000001 0.000000 0.000000 1.168644
    27 2.046984 0.000001 0.000000 0.354745 -0.089012 -0.445274
    28 -0.000005 0.000007 3.713254 -3.288342 -0.166242 1.248752
    29 18.045723 0.000000 0.000000 0.000000 0.000000 -1.737890
    30 17.597597 0.000000 0.000000 -0.250518 0.196939 -0.160290
    31 0.000005 -0.000003 -3.713254 0.821317 2.315375 5.502183
    32 18.045721 0.000000 0.000000 0.000000 0.000000 -2.673532
    33 17.597597 0.000000 0.000000 0.375573 0.039633 0.761975
  time 5
    0 0.086905 -1.964753 -20.600716 0.000000 0.000000 -1.585458
    1 -4.519673 0.136723 0.000000 -1.570795 -1.570787 0.000000
    2 1.293670 0.684478 -0.000001 0.009884 0.020589 0.259447
    3 5.309685 -0.003834 0.000000 -0.010925 -0.012620 0.188641
    4 4.826790 -0.004591 0.000000 -0.180844 0.000635 0.172516
    5 5.792767 -0.005304 0.000000 -0.192793 -0.000827 0.163988
    6 6.662322 -0.001452 0.000000 0.007359 0.009840 0.596774
    7 -2.940214 1.919179 4.300562 0.694739 -1.521619 -4.433635
    8 4.827512 0.000000 -0.000002 0.029093 -0.119646 -1.374996
    9 11.140032 0.000000 0.000000 0.000000 0.000000 -1.681977
    10 10.314563 -0.000001 0.000001 -1.538665 0.250386 0.625530
    11 1.646836 0.445664 -1.699647 0.153911 0.442352 0.277231
    12 0.928312 0.000000 0.000000 0.000000 0.000000 0.000000
    13 0.928313 0.000000 -0.000001 0.000000 0.000000 0.000000
    14 2.979373 -0.388274 -0.044205 -0.038161 -0.021140 1.047514
    15 1.435262 -0.000001 -0.000001 0.000000 0.000000 0.924803
    16 1.482593 -0.000001 0.000001 0.000000 0.000000 1.326263
    17 -2.639423 1.712177 -4.171647 -0.817631 1.397086 -4.547698
    18 4.972047 0.000000 0.000000 0.252083 -0.462623 -0.960910
    19 11.585358 0.000000 0.000001 0.000000 0.000000 -1.623532
    20 10.127058 0.000000 0.000001 2.337890 -0.471024 -0.369157
    21 1.537458 0.109715 1.664489 -0.264662 -0.055995 0.783079
    22 0.928313 0.000000 0.000002 0.000000 0.000000 -0.453501
    23 0.928311 0.000000 0.000001 0.000000 0.000000 0.000000
    24 2.686395 -0.427337 0.044204 0.005971 0.043227 0.113528
    25 1.435260 0.000000 0.000001 0.000000 0.000000 1.090194
    26 1.482593 0.000000 -0.000001 0.000000 0.000000 1.168644
    27 2.046984 0.000001 0.000000 0.351600 -0.090812 -0.477757
    28 -0.000005 0.000007 3.713254 -3.288246 -0.166338 1.248656
    29 18.045723 0.000000 0.000000 0.000000 0.000000 -1.738482
    30 17.597597 0.000000 0.000000 -0.250442 0.196865 -0.159740
    31 0.000005 -0.000003 -3.713254 0.821317 2.315758 5.503334
    32 18.045721 0.000000 0.000000 0.000000 0.000000 -2.673532
    33 17.597597 0.000000 0.000000 0.374969 0.040422 0.762714
  time 6
    0 0.086905 -1.964753 -20.600716 0.000000 0.000000 -1.585458
    1 -4.511860 0.136723 0.000000 -1.570795 -1.570787 0.000000
    2 1.293670 0.684478 -0.000001 0.009884 0.020589 0.259447
    3 5.309685 -0.003834 0.000000 -0.011010 -0.011505 0.192280
    4 4.826790 -0.004591 0.000000 -0.180367 -0.000060 0.167136
    5 5.792767 -0.005304 0.000000 -0.192757 -0.002673 0.150513
    6 6.662322 -0.001452 0.000000 0.010055 0.012905 0.638670
    7 -2.869899 2.055902 4.288843 0.642020 -1.518514 -4.422999
    8 4.827512 0.000000 -0.000002 0.032042 -0.102591 -1.377336
    9 11.140032 0.000000 0.000000 0.000000 0.000000 -1.680238
    10 10.314563 -0.000001 0.000001 -1.539329 0.247669 0.626169
    11 1.646836 0.445664 -1.699647 0.153911 0.442352 0.277231
    12 0.928312 0.000000 0.000000 0.000000 0.000000 0.000000
    13 0.928313 0.000000 -0.000001 0.000000 0.000000 0.000000
    14 2.979373 -0.388274 -0.044205 -0.038161 -0.021140 1.047514
    15 1.435262 -0.000001 -0.000001 0.000000 0.000000 0.924803
    16 1.482593 -0.000001 0.000001 0.000000 0.000000 1.326263
    17 -2.549577 1.805929 -4.187273 -0.880300 1.406288 -4.652481
    18 4.972047 0.000000 0.000000 0.247862 -0.483112 -0.955120
    19 11.585358 0.000000 0.000001 0.000000 0.000000 -1.623859
    20 10.127058 0.000000 0.000001 2.336207 -0.470646 -0.371058
    21 1.537458 0.109715 1.664489 -0.264662 -0.055995 0.783079
    22 0.928313 0.000000 0.000002 0.000000 0.000000 -0.453501
    23 0.928311 0.000000 0.000001 0.000000 0.000000 0.000000
    24 2.686395 -0.427337 0.044204 0.005971 0.043227 0.113528
    25 1.435260 0.000000 0.000001 0.000000 0.000000 1.090194
    26 1.482593 0.000000 -0.000001 0.000000 0.000000 1.168644
    27 2.046984 0.000001 0.000000 0.348972 -0.092228 -0.513098
    28 -0.000005 0.000007 3.713254 -3.288150 -0.166434 1.248560
    29 18.045723 0.000000 0.000000 0.000000 0.000000 -1.738926
    30 17.597597 0.000000 0.000000 -0.250366 0.196791 -0.159327
    31 0.000005 -0.000003 -3.713254 0.821221 2.316046 5.504101
    32 18.045721 0.000000 0.000000 0.000000 0.000000 -2.673532
    33 17.597597 0.000000 0.000000 0.374567 0.040915 0.763222
  time 7
    0 0.086905 -1.964753 -20.600716 0.000000 0.000000 -1.585458
    1 -4.504048 0.136723 0.000000 -1.570795 -1.570787 0.000000
    2 1.293670 0.684478 -0.000001 0.009884 0.020589 0.259447
    3 5.309685 -0.003834 0.000000 -0.011044 -0.010762 0.194752
    4 4.826790 -0.004591 0.000000 -0.180119 -0.000384 0.164446
    5 5.792767 -0.005304 0.000000 -0.192595 -0.004063 0.138055
    6 6.662322 -0.001452 0.000000 0.012907 0.015846 0.680680
    7 -2.799584 2.180906 4.269311 0.593039 -1.515380 -4.415908
    8 4.827512 0.000000 -0.000002 0.034434 -0.088606 -1.378982
    9 11.140032 0.000000 0.000000 0.000000 0.000000 -1.678934
    10 10.314563 -0.000001 0.000001 -1.540087 0.245421 0.627098
    11 1.646836 0.445664 -1.699647 0.153911 0.442352 0.277231
    12 0.928312 0.000000 0.000000 0.000000 0.000000 0.000000
    13 0.928313 0.000000 -0.000001 0.000000 0.000000 0.000000
    14 2.979373 -0.388274 -0.044205 -0.038161 -0.021140 1.047514
    15 1.435262 -0.000001 -0.000001 0.000000 0.000000 0.924803
    16 1.482593 -0.000001 0.000001 0.000000 0.000000 1.326263
    17 -2.455824 1.903589 -4.202898 -0.943064 1.413780 -4.757648
    18 4.972047 0.000000 0.000000 0.244298 -0.500226 -0.950461
    19 11.585358 0.000000 0.000001 0.000000 0.000000 -1.624104
    20 10.127058 0.000000 0.000001 2.334734 -0.470267 -0.372759
    21 1.537458 0.109715 1.664489 -0.264662 -0.055995 0.783079
    22 0.928313 0.000000 0.000002 0.000000 0.000000 -0.453501
    23 0.928311 0.000000 0.000001 0.000000 0.000000 0.000000
    24 2.686395 -0.427337 0.044204 0.005971 0.043227 0.113528
    25 1.435260 0.000000 0.000001 0.000000 0.000000 1.090194
    26 1.482593 0.000000 -0.000001 0.000000 0.000000 1.168644
    27 2.046984 0.000001 0.000000 0.346645 -0.093526 -0.551299
    28 -0.000005 0.000007 3.713254 -3.288054 -0.166434 1.248464
    29 18.045723 0.000000 0.000000 0.000000 0.000000 -1.739222
    30 17.597597 0.000000 0.000000 -0.250290 0.196742 -0.159098
    31 0.000005 -0.000003 -3.713254 0.821317 2.316237 5.504676
    32 18.045721 0.000000 0.000000 0.000000 0.000000 -2.673532
    33 17.597597 0.000000 0.000000 0.374298 0.041231 0.763638
  time 8
    0 0.086905 -1.964753 -20.600716 0.000000 0.000000 -1.585458
    1 -4.511860 0.136723 0.000000 -1.570795 -1.570787 0.000000
    2 1.293670 0.684478 -0.000001 0.009884 0.020589 0.259447
    3 5.309685 -0.003834 0.000000 -0.011095 -0.010331 0.196272
    4 4.826790 -0.004591 0.000000 -0.180119 -0.000384 0.164446
    5 5.792767 -0.005304 0.000000 -0.192433 -0.004566 0.130830
    6 6.662322 -0.001452 0.000000 0.012907 0.015846 0.680680
    7 -2.799584 2.180906 4.269311 0.593039 -1.515380 -4.415908
    8 4.827512 0.000000 -0.000002 0.035630 -0.082040 -1.380195
    9 11.140032 0.000000 0.000000 0.000000 0.000000 -1.678499
    10 10.314563 -0.000001 0.000001 -1.540656 0.244110 0.627911
    11 1.646836 0.445664 -1.699647 0.153911 0.442352 0.277231
    12 0.928312 0.000000 0.000000 0.000000 0.000000 0.000000
    13 0.928313 0.000000 -0.000001 0.000000 0.000000 0.000000
    14 2.979373 -0.388274 -0.044205 -0.038161 -0.021140 1.047514
    15 1.435262 -0.000001 -0.000001 0.000000 0.000000 0.924803
    16 1.482593 -0.000001 0.000001 0.000000 0.000000 1.326263
    17 -2.455824 1.903589 -4.202898 -0.974399 1.417224 -4.789256
    18 4.972047 0.000000 0.000000 0.243641 -0.509627 -0.948598
    19 11.585358 0.000000 0.000001 0.000000 0.000000 -1.624267
    20 10.127058 0.000000 0.000001 2.333753 -0.469984 -0.373909
    21 1.537458 0.109715 1.664489 -0.264662 -0.055995 0.783079
    22 0.928313 0.000000 0.000002 0.000000 0.000000 -0.453501
    23 0.928311 0.000000 0.000001 0.000000 0.000000 0.000000
    24 2.686395 -0.427337 0.044204 0.005971 0.043227 0.113528
    25 1.435260 0.000000 0.000001 0.000000 0.000000 1.090194
    26 1.482593 0.000000 -0.000001 0.000000 0.000000 1.168644
    27 2.046984 0.000001 0.000000 0.347421 -0.098276 -0.536822
    28 -0.000005 0.000007 3.713254 -3.288054 -0.166434 1.248464
    29 18.045723 0.000000 0.000000 0.000000 0.000000 -1.739148
    30 17.597597 0.000000 0.000000 -0.250315 0.196742 -0.159144
    31 0.000005 -0.000003 -3.713254 0.821317 2.316141 5.504580
    32 18.045721 0.000000 0.000000 0.000000 0.000000 -2.673532
    33 17.597597 0.000000 0.000000 0.374298 0.041132 0.763499
  time 9
    0 0.086905 -1.964753 -20.600716 0.000000 0.000000 -1.585458
    1 -4.519673 0.136723 0.000000 -1.570795 -1.570787 0.000000
    2 1.293670 0.684478 -0.000001 0.009884 0.020589 0.259447
    3 5.309685 -0.003834 0.000000 -0.011095 -0.010247 0.196519
    4 4.826790 -0.004591 0.000000 -0.180367 -0.000060 0.167136
    5 5.792767 -0.005304 0.000000 -0.192343 -0.003847 0.133010
    6 6.662322 -0.001452 0.000000 0.012907 0.015846 0.680680
    7 -2.799584 2.180906 4.269311 0.593039 -1.515380 -4.415908
    8 4.827512 0.000000 -0.000002 0.035231 -0.087156 -1.380715
    9 11.140032 0.000000 0.000000 0.000000 0.000000 -1.678717
    10 10.314563 -0.000001 0.000001 -1.541130 0.244016 0.628956
    11 1.646836 0.445664 -1.699647 0.153911 0.442352 0.277231
    12 0.928312 0.000000 0.000000 0.000000 0.000000 0.000000
    13 0.928313 0.000000 -0.000001 0.000000 0.000000 0.000000
    14 2.979373 -0.388274 -0.044205 -0.038161 -0.021140 1.047514
    15 1.435262 -0.000001 -0.000001 0.000000 0.000000 0.924803
    16 1.482593 -0.000001 0.000001 0.000000 0.000000 1.326263
    17 -2.455824 1.903589 -4.202898 -0.994556 1.419301 -4.809657
    18 4.972047 0.000000 0.000000 0.248706 -0.508181 -0.951260
    19 11.585358 0.000000 0.000001 0.000000 0.000000 -1.624431
    20 10.127058 0.000000 0.000001 2.333192 -0.469795 -0.374659
    21 1.537458 0.109715 1.664489 -0.264662 -0.055995 0.783079
    22 0.928313 0.000000 0.000002 0.000000 0.000000 -0.453501
    23 0.928311 0.000000 0.000001 0.000000 0.000000 0.000000
    24 2.686395 -0.427337 0.044204 0.005971 0.043227 0.113528
    25 1.435260 0.000000 0.000001 0.000000 0.000000 1.090194
    26 1.482593 0.000000 -0.000001 0.000000 0.000000 1.168644
    27 2.046984 0.000001 0.000000 0.348713 -0.102023 -0.533233
    28 -0.000005 0.000007 3.713254 -3.288246 -0.166338 1.248656
    29 18.045723 0.000000 0.000000 0.000000 0.000000 -1.738556
    30 17.597597 0.000000 0.000000 -0.250493 0.196816 -0.159694
    31 0.000005 -0.000003 -3.713254 0.821317 2.315662 5.503526
    32 18.045721 0.000000 0.000000 0.000000 0.000000 -2.673532
    33 17.597597 0.000000 0.000000 0.374768 0.040422 0.762622
  time 10
    0 0.086905 -1.964753 -20.600716 0.000000 0.000000 -1.585458
    1 -4.535299 0.144536 0.000000 -1.570795 -1.570787 0.000000
    2 1.293670 0.684478 -0.000001 0.009884 0.020589 0.259447
    3 5.309685 -0.003834 0.000000 -0.011078 -0.010606 0.195282
    4 4.826790 -0.004591 0.000000 -0.180844 0.000635 0.172516
    5 5.792767 -0.005304 0.000000 -0.192343 -0.001774 0.145696
    6 6.662322 -0.001452 0.000000 0.012907 0.015846 0.680680
    7 -2.799584 2.180906 4.269311 0.593039 -1.515380 -4.415908
    8 4.827512 0.000000 -0.000002 0.033238 -0.104808 -1.380888
    9 11.140032 0.000000 0.000000 0.000000 0.000000 -1.679514
    10 10.314563 -0.000001 0.000001 -1.541793 0.245047 0.630233
    11 1.646836 0.445664 -1.699647 0.153911 0.442352 0.277231
    12 0.928312 0.000000 0.000000 0.000000 0.000000 0.000000
    13 0.928313 0.000000 -0.000001 0.000000 0.000000 0.000000
    14 2.979373 -0.388274 -0.044205 -0.038161 -0.021140 1.047514
    15 1.435262 -0.000001 -0.000001 0.000000 0.000000 0.924803
    16 1.482593 -0.000001 0.000001 0.000000 0.000000 1.326263
    17 -2.455824 1.903589 -4.202898 -1.008026 1.420616 -4.823353
    18 4.972047 0.000000 0.000000 0.260525 -0.496048 -0.958781
    19 11.585358 0.000000 0.000001 0.000000 0.000000 -1.624512
    20 10.127058 0.000000 0.000001 2.332701 -0.469606 -0.375110
    21 1.537458 0.109715 1.664489 -0.264662 -0.055995 0.783079
    22 0.928313 0.000000 0.000002 0.000000 0.000000 -0.453501
    23 0.928311 0.000000 0.000001 0.000000 0.000000 0.000000
    24 2.686395 -0.427337 0.044204 0.005971 0.043227 0.113528
    25 1.435260 0.000000 0.000001 0.000000 0.000000 1.090194
    26 1.482593 0.000000 -0.000001 0.000000 0.000000 1.168644
    27 2.046984 0.000001 0.000000 0.350824 -0.104767 -0.541445
    28 -0.000005 0.000007 3.713254 -3.288533 -0.166050 1.248848
    29 18.045723 0.000000 0.000000 0.000000 0.000000 -1.737446
    30 17.597597 0.000000 0.000000 -0.250746 0.196964 -0.160657
    31 0.000005 -0.000003 -3.713254 0.821317 2.314703 5.501512
    32 18.045721 0.000000 0.000000 0.000000 0.000000 -2.673768
    33 17.597597 0.000000 0.000000 0.375640 0.039101 0.761190
  time 11
    0 0.086905 -1.964753 -20.600716 0.000000 0.000000 -1.585458
    1 -4.558737 0.144536 0.000000 -1.570795 -1.570787 0.000000
    2 1.293670 0.684478 -0.000001 0.009884 0.020589 0.259447
    3 5.309685 -0.003834 0.000000 -0.011010 -0.011505 0.192280
    4 4.826790 -0.004591 0.000000 -0.181664 0.002001 0.182746
    5 5.792767 -0.005304 0.000000 -0.192307 0.001246 0.165213
    6 6.662322 -0.001452 0.000000 0.012907 0.015846 0.680680
    7 -2.799584 2.180906 4.269311 0.593039 -1.515380 -4.415908
    8 4.827512 0.000000 -0.000002 0.029890 -0.133460 -1.380542
    9 11.140032 0.000000 0.000000 0.000000 0.000000 -1.681253
    10 10.314563 -0.000001 0.000001 -1.542551 0.247576 0.632033
    11 1.646836 0.445664 -1.699647 0.153911 0.442352 0.277231
    12 0.928312 0.000000 0.000000 0.000000 0.000000 0.000000
    13 0.928313 0.000000 -0.000001 0.000000 0.000000 0.000000
    14 2.979373 -0.388274 -0.044205 -0.038161 -0.021140 1.047514
    15 1.435262 -0.000001 -0.000001 0.000000 0.000000 0.924803
    16 1.482593 -0.000001 0.000001 0.000000 0.000000 1.326263
    17 -2.455824 1.903589 -4.202898 -1.013758 1.421142 -4.829004
    18 4.972047 0.000000 0.000000 0.277409 -0.474675 -0.970361
    19 11.585358 0.000000 0.000001 0.000000 0.000000 -1.624512
    20 10.127058 0.000000 0.000001 2.332560 -0.469606 -0.375310
    21 1.537458 0.109715 1.664489 -0.264662 -0.055995 0.783079
    22 0.928313 0.000000 0.000002 0.000000 0.000000 -0.453501
    23 0.928311 0.000000 0.000001 0.000000 0.000000 0.000000
    24 2.686395 -0.427337 0.044204 0.005971 0.043227 0.113528
    25 1.435260 0.000000 0.000001 0.000000 0.000000 1.090194
    26 1.482593 0.000000 -0.000001 0.000000 0.000000 1.168644
    27 2.046984 0.000001 0.000000 0.353840 -0.106419 -0.559450
    28 -0.000005 0.000007 3.713254 -3.288821 -0.165762 1.249135
    29 18.045723 0.000000 0.000000 0.000000 0.000000 -1.735743
    30 17.597597 0.000000 0.000000 -0.251151 0.197161 -0.162078
    31 0.000005 -0.000003 -3.713254 0.821509 2.313553 5.498540
    32 18.045721 0.000000 0.000000 0.000000 0.000000 -2.673768
    33 17.597597 0.000000 0.000000 0.377016 0.037168 0.758973
  time 12
    0 0.086905 -1.964753 -20.600716 0.000000 0.000000 -1.585458
    1 -4.574362 0.144536 0.000000 -1.570795 -1.570787 0.000000
    2 1.293670 0.684478 -0.000001 0.009884 0.020589 0.259447
    3 5.309685 -0.003834 0.000000 -0.010806 -0.014310 0.183024
    4 4.826790 -0.004591 0.000000 -0.182923 0.004075 0.197783
    5 5.792767 -0.005304 0.000000 -0.192235 0.004818 0.188239
    6 6.662322 -0.001452 0.000000 0.012907 0.015846 0.680680
    7 -2.799584 2.180906 4.269311 0.593039 -1.515380 -4.415908
    8 4.827512 0.000000 -0.000002 0.025904 -0.164670 -1.378982
    9 11.140032 0.000000 0.000000 0.000000 0.000000 -1.684441
    10 10.314563 -0.000001 0.000001 -1.543499 0.251042 0.634704
    11 1.646836 0.445664 -1.699647 0.153911 0.442352 0.277231
    12 0.928312 0.000000 0.000000 0.000000 0.000000 0.000000
    13 0.928313 0.000000 -0.000001 0.000000 0.000000 0.000000
    14 2.979373 -0.388274 -0.044205 -0.038161 -0.021140 1.047514
    15 1.435262 -0.000001 -0.000001 0.000000 0.000000 0.924803
    16 1.482593 -0.000001 0.000001 0.000000 0.000000 1.326263
    17 -2.455824 1.903589 -4.202898 -1.010319 1.420800 -4.825460
    18 4.972047 0.000000 0.000000 0.294480 -0.450570 -0.982807
    19 11.585358 0.000000 0.000001 0.000000 0.000000 -1.624512
    20 10.127058 0.000000 0.000001 2.332631 -0.469606 -0.375210
    21 1.537458 0.109715 1.664489 -0.264662 -0.055995 0.783079
    22 0.928313 0.000000 0.000002 0.000000 0.000000 -0.453501
    23 0.928311 0.000000 0.000001 0.000000 0.000000 0.000000
    24 2.686395 -0.427337 0.044204 0.005971 0.043227 0.113528
    25 1.435260 0.000000 0.000001 0.000000 0.000000 1.090194
    26 1.482593 0.000000 -0.000001 0.000000 0.000000 1.168644
    27 2.046984 0.000001 0.000000 0.357847 -0.107570 -0.579463
    28 -0.000005 0.000007 3.713254 -3.288917 -0.165667 1.249231
    29 18.045723 0.000000 0.000000 0.000000 0.000000 -1.735151
    30 17.597597 0.000000 0.000000 -0.251227 0.197210 -0.162628
    31 0.000005 -0.000003 -3.713254 0.821892 2.313170 5.497582
    32 18.045721 0.000000 0.000000 0.000000 0.000000 -2.673768
    33 17.597597 0.000000 0.000000 0.377586 0.036280 0.758372
  time 13
    0 0.086905 -1.964753 -20.600716 0.000000 0.000000 -1.585458
    1 -4.566550 0.144536 0.000000 -1.570795 -1.570787 0.000000
    2 1.293670 0.684478 -0.000001 0.009884 0.020589 0.259447
    3 5.309685 -0.003834 0.000000 -0.010414 -0.018384 0.169335
    4 4.826790 -0.004591 0.000000 -0.184239 0.006352 0.214452
    5 5.792767 -0.005304 0.000000 -0.192019 0.008365 0.211618
    6 6.662322 -0.001452 0.000000 0.010055 0.012905 0.638670
    7 -2.869899 2.055902 4.288843 0.642020 -1.518514 -4.422999
    8 4.827512 0.000000 -0.000002 0.021918 -0.193407 -1.376382
    9 11.140032 0.000000 0.000000 0.000000 0.000000 -1.688498
    10 10.314563 -0.000001 0.000001 -1.544162 0.254788 0.637782
    11 1.646836 0.445664 -1.699647 0.153911 0.442352 0.277231
    12 0.928312 0.000000 0.000000 0.000000 0.000000 0.000000
    13 0.928313 0.000000 -0.000001 0.000000 0.000000 0.000000
    14 2.979373 -0.388274 -0.044205 -0.038161 -0.021140 1.047514
    15 1.435262 -0.000001 -0.000001 0.000000 0.000000 0.924803
    16 1.482593 -0.000001 0.000001 0.000000 0.000000 1.326263
    17 -2.549577 1.805929 -4.187273 -0.973730 1.417540 -4.747112
    18 4.972047 0.000000 0.000000 0.308644 -0.427189 -0.994188
    19 11.585358 0.000000 0.000001 0.000000 0.000000 -1.624431
    20 10.127058 0.000000 0.000001 2.333121 -0.469795 -0.374759
    21 1.537458 0.109715 1.664489 -0.264662 -0.055995 0.783079
    22 0.928313 0.000000 0.000002 0.000000 0.000000 -0.453501
    23 0.928311 0.000000 0.000001 0.000000 0.000000 0.000000
    24 2.686395 -0.427337 0.044204 0.005971 0.043227 0.113528
    25 1.435260 0.000000 0.000001 0.000000 0.000000 1.090194
    26 1.482593 0.000000 -0.000001 0.000000 0.000000 1.168644
    27 2.046984 0.000001 0.000000 0.361035 -0.100607 -0.563525
    28 -0.000005 0.000007 3.713254 -3.288629 -0.165858 1.249135
    29 18.045723 0.000000 0.000000 0.000000 0.000000 -1.735595
    30 17.597597 0.000000 0.000000 -0.250949 0.197062 -0.162170
    31 0.000005 -0.000003 -3.713254 0.822372 2.313937 5.498828
    32 18.045721 0.000000 0.000000 0.000000 0.000000 -2.673532
    33 17.597597 0.000000 0.000000 0.377318 0.036635 0.759388
  time 14
    0 0.086905 -1.964753 -20.600716 0.000000 0.000000 -1.585458
    1 -4.574362 0.144536 0.000000 -1.570795 -1.570787 0.000000
    2 1.293670 0.684478 -0.000001 0.009884 0.020589 0.259447
    3 5.309685 -0.003834 0.000000 -0.010142 -0.021093 0.160361
    4 4.826790 -0.004591 0.000000 -0.185441 0.008413 0.229511
    5 5.792767 -0.005304 0.000000 -0.191821 0.011481 0.232173
    6 6.662322 -0.001452 0.000000 0.007359 0.009840 0.596774
    7 -2.940214 1.919179 4.300562 0.694739 -1.521619 -4.433635
    8 4.827512 0.000000 -0.000002 0.017693 -0.222656 -1.374043
    9 11.140032 0.000000 0.000000 0.000000 0.000000 -1.691903
    10 10.314563 -0.000001 0.000001 -1.544636 0.258723 0.639872
    11 1.646836 0.445664 -1.699647 0.153911 0.442352 0.277231
    12 0.928312 0.000000 0.000000 0.000000 0.000000 0.000000
    13 0.928313 0.000000 -0.000001 0.000000 0.000000 0.000000
    14 2.979373 -0.388274 -0.044205 -0.038161 -0.021140 1.047514
    15 1.435262 -0.000001 -0.000001 0.000000 0.000000 0.924803
    16 1.482593 -0.000001 0.000001 0.000000 0.000000 1.326263
    17 -2.639423 1.712177 -4.171647 -0.929881 1.412834 -4.661389
    18 4.972047 0.000000 0.000000 0.321588 -0.401718 -1.004770
    19 11.585358 0.000000 0.000001 0.000000 0.000000 -1.624267
    20 10.127058 0.000000 0.000001 2.333753 -0.469984 -0.373909
    21 1.537458 0.109715 1.664489 -0.264662 -0.055995 0.783079
    22 0.928313 0.000000 0.000002 0.000000 0.000000 -0.453501
    23 0.928311 0.000000 0.000001 0.000000 0.000000 0.000000
    24 2.686395 -0.427337 0.044204 0.005971 0.043227 0.113528
    25 1.435260 0.000000 0.000001 0.000000 0.000000 1.090194
    26 1.482593 0.000000 -0.000001 0.000000 0.000000 1.168644
    27 2.046984 0.000001 0.000000 0.363706 -0.093585 -0.548197
    28 -0.000005 0.000007 3.713254 -3.288725 -0.165762 1.249135
    29 18.045723 0.000000 0.000000 0.000000 0.000000 -1.735077
    30 17.597597 0.000000 0.000000 -0.251025 0.197062 -0.162674
    31 0.000005 -0.000003 -3.713254 0.822659 2.313649 5.498157
    32 18.045721 0.000000 0.000000 0.000000 0.000000 -2.673532
    33 17.597597 0.000000 0.000000 0.377754 0.035925 0.758834
  time 15
    0 0.086905 -1.964753 -20.600716 0.000000 0.000000 -1.585458
    1 -4.597801 0.144536 0.000000 -1.570795 -1.570787 0.000000
    2 1.293670 0.684478 -0.000001 0.009884 0.020589 0.259447
    3 5.309685 -0.003834 0.000000 -0.010057 -0.021836 0.157888
    4 4.826790 -0.004591 0.000000 -0.186223 0.009827 0.239719
    5 5.792767 -0.005304 0.000000 -0.191623 0.013686 0.246624
    6 6.662322 -0.001452 0.000000 0.004770 0.006624 0.554821
    7 -3.006622 1.790269 4.312281 0.751388 -1.524724 -4.448391
    8 4.827512 0.000000 -0.000002 0.013389 -0.247556 -1.371443
    9 11.140032 0.000000 0.000000 0.000000 0.000000 -1.694512
    10 10.314563 -0.000001 0.000001 -1.544257 0.262563 0.639930
    11 1.646836 0.445664 -1.699647 0.153911 0.442352 0.277231
    12 0.928312 0.000000 0.000000 0.000000 0.000000 0.000000
    13 0.928313 0.000000 -0.000001 0.000000 0.000000 0.000000
    14 2.979373 -0.388274 -0.044205 -0.038161 -0.021140 1.047514
    15 1.435262 -0.000001 -0.000001 0.000000 0.000000 0.924803
    16 1.482593 -0.000001 0.000001 0.000000 0.000000 1.326263
    17 -2.725363 1.606705 -4.163834 -0.865015 1.404342 -4.554211
    18 4.972047 0.000000 0.000000 0.328717 -0.375604 -1.012557
    19 11.585358 0.000000 0.000001 0.000000 0.000000 -1.624022
    20 10.127058 0.000000 0.000001 2.335365 -0.470267 -0.372058
    21 1.537458 0.109715 1.664489 -0.264662 -0.055995 0.783079
    22 0.928313 0.000000 0.000002 0.000000 0.000000 -0.453501
    23 0.928311 0.000000 0.000001 0.000000 0.000000 0.000000
    24 2.686395 -0.427337 0.044204 0.005971 0.043227 0.113528
    25 1.435260 0.000000 0.000001 0.000000 0.000000 1.090194
    26 1.482593 0.000000 -0.000001 0.000000 0.000000 1.168644
    27 2.046984 0.000001 0.000000 0.365386 -0.087065 -0.528549
    28 -0.000005 0.000007 3.713254 -3.289013 -0.165475 1.249423
    29 18.045723 0.000000 0.000000 0.000000 0.000000 -1.733671
    30 17.597597 0.000000 0.000000 -0.251329 0.197234 -0.163866
    31 0.000005 -0.000003 -3.713254 0.822755 2.312594 5.495664
    32 18.045721 0.000000 0.000000 0.000000 0.000000 -2.673768
    33 17.597597 0.000000 0.000000 0.378895 0.034288 0.756987
  time 16
    0 0.086905 -1.964753 -20.600716 0.000000 0.000000 -1.585458
    1 -4.605613 0.156255 0.000000 -1.570795 -1.570787 0.000000
    2 1.293670 0.684478 -0.000001 0.009884 0.020589 0.259447
    3 5.309685 -0.003834 0.000000 -0.010057 -0.022040 0.157200
    4 4.826790 -0.004591 0.000000 -0.186509 0.010463 0.244040
    5 5.792767 -0.005304 0.000000 -0.191515 0.014705 0.253247
    6 6.662322 -0.001452 0.000000 0.002289 0.003353 0.512868
    7 -3.057405 1.653546 4.331813 0.813405 -1.527740 -4.468417
    8 4.827512 0.000000 -0.000002 0.010041 -0.259665 -1.368151
    9 11.140032 0.000000 0.000000 0.000000 0.000000 -1.696685
    10 10.314563 -0.000001 0.000001 -1.542836 0.265467 0.638595
    11 1.646836 0.445664 -1.699647 0.153911 0.442352 0.277231
    12 0.928312 0.000000 0.000000 0.000000 0.000000 0.000000
    13 0.928313 0.000000 -0.000001 0.000000 0.000000 0.000000
    14 2.979373 -0.388274 -0.044205 -0.038161 -0.021140 1.047514
    15 1.435262 -0.000001 -0.000001 0.000000 0.000000 0.924803
    16 1.482593 -0.000001 0.000001 0.000000 0.000000 1.326263
    17 -2.799584 1.501233 -4.148209 -0.785723 1.391302 -4.432474
    18 4.972047 0.000000 0.000000 0.325996 -0.355356 -1.015552
    19 11.585358 0.000000 0.000001 0.000000 0.000000 -1.623532
    20 10.127058 0.000000 0.000001 2.337890 -0.471024 -0.369157
    21 1.537458 0.109715 1.664489 -0.264662 -0.055995 0.783079
    22 0.928313 0.000000 0.000002 0.000000 0.000000 -0.453501
    23 0.928311 0.000000 0.000001 0.000000 0.000000 0.000000
    24 2.686395 -0.427337 0.044204 0.005971 0.043227 0.113528
    25 1.435260 0.000000 0.000001 0.000000 0.000000 1.090194
    26 1.482593 0.000000 -0.000001 0.000000 0.000000 1.168644
    27 2.046984 0.000001 0.000000 0.366291 -0.081843 -0.496796
    28 -0.000005 0.000007 3.713254 -3.289204 -0.165379 1.249519
    29 18.045723 0.000000 0.000000 0.000000 0.000000 -1.732931
    30 17.597597 0.000000 0.000000 -0.251531 0.197308 -0.164508
    31 0.000005 -0.000003 -3.713254 0.822755 2.311923 5.494322
    32 18.045721 0.000000 0.000000 0.000000 0.000000 -2.673768
    33 17.597597 0.000000 0.000000 0.379465 0.033440 0.755971
  time 17
    0 0.086905 -1.964753 -20.600716 0.000000 0.000000 -1.585458
    1 -4.613426 0.156255 0.000000 -1.570795 -1.570787 0.000000
    2 1.293670 0.684478 -0.000001 0.009884 0.020589 0.259447
    3 5.309685 -0.003834 0.000000 -0.010057 -0.021896 0.157712
    4 4.826790 -0.004591 0.000000 -0.186547 0.010510 0.244570
    5 5.792767 -0.005304 0.000000 -0.191515 0.014861 0.254057
    6 6.662322 -0.001452 0.000000 0.000000 -0.000001 0.471000
    7 -3.108188 1.516823 4.339626 0.881461 -1.530697 -4.494575
    8 4.827512 0.000000 -0.000002 0.007729 -0.262991 -1.365291
    9 11.140032 0.000000 0.000000 0.000000 0.000000 -1.698424
    10 10.314563 -0.000001 0.000001 -1.541130 0.267622 0.636678
    11 1.646836 0.445664 -1.699647 0.153911 0.442352 0.277231
    12 0.928312 0.000000 0.000000 0.000000 0.000000 0.000000
    13 0.928313 0.000000 -0.000001 0.000000 0.000000 0.000000
    14 2.979373 -0.388274 -0.044205 -0.038161 -0.021140 1.047514
    15 1.435262 -0.000001 -0.000001 0.000000 0.000000 0.924803
    16 1.482593 -0.000001 0.000001 0.000000 0.000000 1.326263
    17 -2.869899 1.399667 -4.140396 -0.715507 1.376553 -4.319358
    18 4.972047 0.000000 0.000000 0.318305 -0.341697 -1.015686
    19 11.585358 0.000000 0.000001 0.000000 0.000000 -1.623042
    20 10.127058 0.000000 0.000001 2.340484 -0.471686 -0.366106
    21 1.537458 0.109715 1.664489 -0.264662 -0.055995 0.783079
    22 0.928313 0.000000 0.000002 0.000000 0.000000 -0.453501
    23 0.928311 0.000000 0.000001 0.000000 0.000000 0.000000
    24 2.686395 -0.427337 0.044204 0.005971 0.043227 0.113528
    25 1.435260 0.000000 0.000001 0.000000 0.000000 1.090194
    26 1.482593 0.000000 -0.000001 0.000000 0.000000 1.168644
    27 2.046984 0.000001 0.000000 0.366808 -0.077565 -0.456954
    28 -0.000005 0.000007 3.713254 -3.289204 -0.165283 1.249615
    29 18.045723 0.000000 0.000000 0.000000 0.000000 -1.732635
    30 17.597597 0.000000 0.000000 -0.251607 0.197358 -0.164737
    31 0.000005 -0.000003 -3.713254 0.822755 2.311732 5.493843
    32 18.045721 0.000000 0.000000 0.000000 0.000000 -2.673768
    33 17.597597 0.000000 0.000000 0.379633 0.033144 0.755647
  time 18
    0 0.086905 -1.964753 -20.600716 0.000000 0.000000 -1.585458
    1 -4.613426 0.156255 0.000000 -1.570795 -1.570787 0.000000
    2 1.293670 0.684478 -0.000001 0.009884 0.020589 0.259447
    3 5.309685 -0.003834 0.000000 -0.010091 -0.021548 0.158807
    4 4.826790 -0.004591 0.000000 -0.186471 0.010307 0.242938
    5 5.792767 -0.005304 0.000000 -0.191551 0.014453 0.251586
    6 6.662322 -0.001452 0.000000 0.000000 -0.000001 0.471000
    7 -3.108188 1.516823 4.339626 0.881461 -1.530697 -4.494575
    8 4.827512 0.000000 -0.000002 0.006772 -0.260518 -1.363212
    9 11.140032 0.000000 0.000000 0.000000 0.000000 -1.699366
    10 10.314563 -0.000001 0.000001 -1.539708 0.268746 0.634762
    11 1.646836 0.445664 -1.699647 0.153911 0.442352 0.277231
    12 0.928312 0.000000 0.000000 0.000000 0.000000 0.000000
    13 0.928313 0.000000 -0.000001 0.000000 0.000000 0.000000
    14 2.979373 -0.388274 -0.044205 -0.038161 -0.021140 1.047514
    15 1.435262 -0.000001 -0.000001 0.000000 0.000000 0.924803
    16 1.482593 -0.000001 0.000001 0.000000 0.000000 1.326263
    17 -2.869899 1.399667 -4.140396 -0.677008 1.367325 -4.280279
    18 4.972047 0.000000 0.000000 0.310144 -0.334947 -1.014221
    19 11.585358 0.000000 0.000001 0.000000 0.000000 -1.622634
    20 10.127058 0.000000 0.000001 2.342518 -0.472348 -0.363755
    21 1.537458 0.109715 1.664489 -0.264662 -0.055995 0.783079
    22 0.928313 0.000000 0.000002 0.000000 0.000000 -0.453501
    23 0.928311 0.000000 0.000001 0.000000 0.000000 0.000000
    24 2.686395 -0.427337 0.044204 0.005971 0.043227 0.113528
    25 1.435260 0.000000 0.000001 0.000000 0.000000 1.090194
    26 1.482593 0.000000 -0.000001 0.000000 0.000000 1.168644
    27 2.046984 0.000001 0.000000 0.366463 -0.077860 -0.453790
    28 -0.000005 0.000007 3.713254 -3.289204 -0.165283 1.249615
    29 18.045723 0.000000 0.000000 0.000000 0.000000 -1.732709
    30 17.597597 0.000000 0.000000 -0.251607 0.197308 -0.164692
    31 0.000005 -0.000003 -3.713254 0.822755 2.311636 5.493939
    32 18.045721 0.000000 0.000000 0.000000 0.000000 -2.673768
    33 17.597597 0.000000 0.000000 0.379599 0.033144 0.755647
  time 19
    0 0.086905 -1.964753 -20.600716 0.000000 0.000000 -1.585458
    1 -4.605613 0.156255 0.000000 -1.570795 -1.570787 0.000000
    2 1.293670 0.684478 -0.000001 0.009884 0.020589 0.259447
    3 5.309685 -0.003834 0.000000 -0.010142 -0.021249 0.159867
    4 4.826790 -0.004591 0.000000 -0.186261 0.009983 0.240799
    5 5.792767 -0.005304 0.000000 -0.191605 0.013950 0.248285
    6 6.662322 -0.001452 0.000000 0.000000 -0.000001 0.471000
    7 -3.108188 1.516823 4.339626 0.881461 -1.530697 -4.494575
    8 4.827512 0.000000 -0.000002 0.007250 -0.255998 -1.363212
    9 11.140032 0.000000 0.000000 0.000000 0.000000 -1.699076
    10 10.314563 -0.000001 0.000001 -1.539234 0.268465 0.633949
    11 1.646836 0.445664 -1.699647 0.153911 0.442352 0.277231
    12 0.928312 0.000000 0.000000 0.000000 0.000000 0.000000
    13 0.928313 0.000000 -0.000001 0.000000 0.000000 0.000000
    14 2.979373 -0.388274 -0.044205 -0.038161 -0.021140 1.047514
    15 1.435262 -0.000001 -0.000001 0.000000 0.000000 0.924803
    16 1.482593 -0.000001 0.000001 0.000000 0.000000 1.326263
    17 -2.869899 1.399667 -4.140396 -0.670512 1.365643 -4.273766
    18 4.972047 0.000000 0.000000 0.306674 -0.336795 -1.012424
    19 11.585358 0.000000 0.000001 0.000000 0.000000 -1.622552
    20 10.127058 0.000000 0.000001 2.342869 -0.472348 -0.363304
    21 1.537458 0.109715 1.664489 -0.264662 -0.055995 0.783079
    22 0.928313 0.000000 0.000002 0.000000 0.000000 -0.453501
    23 0.928311 0.000000 0.000001 0.000000 0.000000 0.000000
    24 2.686395 -0.427337 0.044204 0.005971 0.043227 0.113528
    25 1.435260 0.000000 0.000001 0.000000 0.000000 1.090194
    26 1.482593 0.000000 -0.000001 0.000000 0.000000 1.168644
    27 2.046984 0.000001 0.000000 0.366248 -0.078332 -0.449472
    28 -0.000005 0.000007 3.713254 -3.289204 -0.165283 1.249519
    29 18.045723 0.000000 0.000000 0.000000 0.000000 -1.732857
    30 17.597597 0.000000 0.000000 -0.251582 0.197308 -0.164554
    31 0.000005 -0.000003 -3.713254 0.822755 2.311732 5.494226
    32 18.045721 0.000000 0.000000 0.000000 0.000000 -2.673768
    33 17.597597 0.000000 0.000000 0.379432 0.033282 0.755832
  time 20
    0 0.086905 -1.964753 -20.600716 0.000000 0.000000 -1.585458
    1 -4.605613 0.156255 0.000000 -1.570795 -1.570787 0.000000
    2 1.293670 0.684478 -0.000001 0.009884 0.020589 0.259447
    3 5.309685 -0.003834 0.000000 -0.010142 -0.021093 0.160361
    4 4.826790 -0.004591 0.000000 -0.186223 0.009827 0.239719
    5 5.792767 -0.005304 0.000000 -0.191623 0.013686 0.246624
    6 6.662322 -0.001452 0.000000 0.000000 -0.000001 0.471000
    7 -3.108188 1.516823 4.339626 0.881461 -1.530697 -4.494575
    8 4.827512 0.000000 -0.000002 0.007888 -0.253440 -1.363732
    9 11.140032 0.000000 0.000000 0.000000 0.000000 -1.698497
    10 10.314563 -0.000001 0.000001 -1.539424 0.267903 0.634066
    11 1.646836 0.445664 -1.699647 0.153911 0.442352 0.277231
    12 0.928312 0.000000 0.000000 0.000000 0.000000 0.000000
    13 0.928313 0.000000 -0.000001 0.000000 0.000000 0.000000
    14 2.979373 -0.388274 -0.044205 -0.038161 -0.021140 1.047514
    15 1.435262 -0.000001 -0.000001 0.000000 0.000000 0.924803
    16 1.482593 -0.000001 0.000001 0.000000 0.000000 1.326263
    17 -2.869899 1.399667 -4.140396 -0.677008 1.367325 -4.280279
    18 4.972047 0.000000 0.000000 0.306674 -0.340411 -1.011626
    19 11.585358 0.000000 0.000001 0.000000 0.000000 -1.622634
    20 10.127058 0.000000 0.000001 2.342518 -0.472348 -0.363755
    21 1.537458 0.109715 1.664489 -0.264662 -0.055995 0.783079
    22 0.928313 0.000000 0.000002 0.000000 0.000000 -0.453501
    23 0.928311 0.000000 0.000001 0.000000 0.000000 0.000000
    24 2.686395 -0.427337 0.044204 0.005971 0.043227 0.113528
    25 1.435260 0.000000 0.000001 0.000000 0.000000 1.090194
    26 1.482593 0.000000 -0.000001 0.000000 0.000000 1.168644
    27 2.046984 0.000001 0.000000 0.366119 -0.078568 -0.447343
    28 -0.000005 0.000007 3.713254 -3.289300 -0.165475 1.249615
    29 18.045723 0.000000 0.000000 0.000000 0.000000 -1.732931
    30 17.597597 0.000000 0.000000 -0.251405 0.197505 -0.164508
    31 0.000005 -0.000003 -3.713254 0.821892 2.312307 5.493555
    32 18.045721 0.000000 0.000000 0.000000 0.000000 -2.673768
    33 17.597597 0.000000 0.000000 0.379969 0.033854 0.755924
end
