version 1
nodes
  0 "Bip01" -1
  1 "Bip01 Pelvis" 0
  2 "Bip01 Spine" 1
  3 "Bip01 Spine1" 2
  4 "Bip01 Spine2" 3
  5 "Bip01 Spine3" 4
  6 "Bip01 Neck" 5
  7 "Bip01 L Arm" 6
  8 "Bip01 L Arm1" 7
  9 "Bip01 L Arm2" 8
  10 "Bip01 L Hand" 9
  11 "Bip01 L Finger0" 10
  12 "Bip01 L Finger01" 11
  13 "Bip01 L Finger02" 12
  14 "Bip01 L Finger1" 10
  15 "Bip01 L Finger11" 14
  16 "Bip01 L Finger12" 15
  17 "Bip01 R Arm" 6
  18 "Bip01 R Arm1" 17
  19 "Bip01 R Arm2" 18
  20 "Bip01 R Hand" 19
  21 "Bip01 R Finger0" 20
  22 "Bip01 R Finger01" 21
  23 "Bip01 R Finger02" 22
  24 "Bip01 R Finger1" 20
  25 "Bip01 R Finger11" 24
  26 "Bip01 R Finger12" 25
  27 "Bip01 Head" 6
  28 "Bip01 L Leg" 1
  29 "Bip01 L Leg1" 28
  30 "Bip01 L Foot" 29
  31 "Bip01 R Leg" 1
  32 "Bip01 R Leg1" 31
  33 "Bip01 R Foot" 32
end
skeleton
  time 0
    0 0.051748 0.906429 -20.600716 0.000000 0.000000 -1.585458
    1 -1.531301 0.144536 0.000000 -1.570795 -1.570787 0.000000
    2 1.293670 0.684478 -0.000001 -0.000004 -0.000001 0.117182
    3 5.309685 -0.003834 0.000000 0.000000 0.000000 0.078738
    4 4.826790 -0.004591 0.000000 -0.155036 0.024532 0.059033
    5 5.792767 -0.005304 0.000000 -0.138452 0.036074 0.192267
    6 6.662322 -0.001452 0.000000 0.000000 -0.000001 0.471000
    7 -3.108188 1.516823 4.339626 1.374338 -0.766068 -4.904773
    8 4.827512 0.000000 -0.000002 -0.203123 -0.283371 -0.736383
    9 11.140032 0.000000 0.000000 0.000000 0.000000 -1.544895
    10 10.314563 -0.000001 0.000001 -3.801923 -0.060793 -0.190724
    11 1.646836 0.445664 -1.699647 -0.161704 0.581044 -0.283978
    12 0.928312 0.000000 0.000000 0.000000 0.000000 0.000000
    13 0.928313 0.000000 -0.000001 0.000000 0.000000 0.000000
    14 2.979373 -0.388274 -0.044205 -0.001932 -0.043575 0.026189
    15 1.435262 -0.000001 -0.000001 0.000000 0.000000 0.784927
    16 1.482593 -0.000001 0.000001 0.000000 0.000000 0.540709
    17 -2.869899 1.399667 -4.140396 1.265154 0.977859 -2.406148
    18 4.972047 0.000000 0.000000 -0.053513 -0.805715 -1.221475
    19 11.585358 0.000000 0.000001 0.000000 0.000000 -1.788362
    20 10.127058 0.000000 0.000001 1.696045 0.711028 -0.497462
    21 1.537458 0.109715 1.664489 -0.264662 -0.055995 0.783079
    22 0.928313 0.000000 0.000002 0.000000 0.000000 -0.453501
    23 0.928311 0.000000 0.000001 0.000000 0.000000 0.000000
    24 2.686395 -0.427337 0.044204 -0.005762 0.043239 -0.157074
    25 1.435260 0.000000 0.000001 0.000000 0.000000 0.732613
    26 1.482593 0.000000 -0.000001 0.000000 0.000000 1.168644
    27 2.046984 0.000001 0.000000 0.248373 0.169350 -1.364274
    28 -0.000005 0.000007 3.713254 -3.285561 -0.168351 1.247314
    29 18.045723 0.000000 0.000000 0.000000 0.000000 -1.745217
    30 17.597597 0.000000 0.000000 -0.247908 0.195093 -0.154101
    31 0.000005 -0.000003 -3.713254 0.823905 2.323907 5.517523
    32 18.045721 0.000000 0.000000 0.000000 0.000000 -2.672902
    33 17.597597 0.000000 0.000000 0.371010 0.047148 0.774307
  time 1
    0 0.051748 0.906429 -20.600716 0.000000 0.000000 -1.585458
    1 -1.507863 0.144536 0.000000 -1.570795 -1.570787 0.000000
    2 1.293670 0.684478 -0.000001 -0.000004 -0.000001 0.117182
    3 5.309685 -0.003834 0.000000 -0.000272 0.001666 0.084372
    4 4.826790 -0.004591 0.000000 -0.153625 0.022771 0.044570
    5 5.792767 -0.005304 0.000000 -0.138595 0.033006 0.175117
    6 6.662322 -0.001452 0.000000 0.000000 -0.000001 0.471000
    7 -3.108188 1.516823 4.339626 1.374338 -0.766068 -4.904773
    8 4.827512 0.000000 -0.000002 -0.196267 -0.248494 -0.732743
    9 11.140032 0.000000 0.000000 0.000000 0.000000 -1.547721
    10 10.314563 -0.000001 0.000001 -3.792351 -0.066695 -0.192640
    11 1.646836 0.445664 -1.699647 -0.161704 0.581044 -0.283978
    12 0.928312 0.000000 0.000000 0.000000 0.000000 0.000000
    13 0.928313 0.000000 -0.000001 0.000000 0.000000 0.000000
    14 2.979373 -0.388274 -0.044205 -0.001932 -0.043575 0.026189
    15 1.435262 -0.000001 -0.000001 0.000000 0.000000 0.784927
    16 1.482593 -0.000001 0.000001 0.000000 0.000000 0.540709
    17 -2.869899 1.399667 -4.140396 1.262766 0.977333 -2.408925
    18 4.972047 0.000000 0.000000 -0.085592 -0.818490 -1.191924
    19 11.585358 0.000000 0.000001 0.000000 0.000000 -1.788362
    20 10.127058 0.000000 0.000001 1.696466 0.711028 -0.496812
    21 1.537458 0.109715 1.664489 -0.264662 -0.055995 0.783079
    22 0.928313 0.000000 0.000002 0.000000 0.000000 -0.453501
    23 0.928311 0.000000 0.000001 0.000000 0.000000 0.000000
    24 2.686395 -0.427337 0.044204 -0.005762 0.043239 -0.157074
    25 1.435260 0.000000 0.000001 0.000000 0.000000 0.732613
    26 1.482593 0.000000 -0.000001 0.000000 0.000000 1.168644
    27 2.046984 0.000001 0.000000 0.247985 0.166547 -1.338361
    28 -0.000005 0.000007 3.713254 -3.285465 -0.168639 1.247026
    29 18.045723 0.000000 0.000000 0.000000 0.000000 -1.747067
    30 17.597597 0.000000 0.000000 -0.247680 0.195020 -0.152496
    31 0.000005 -0.000003 -3.713254 0.823330 2.324865 5.520494
    32 18.045721 0.000000 0.000000 0.000000 0.000000 -2.672902
    33 17.597597 0.000000 0.000000 0.369266 0.049574 0.776247
  time 2
    0 0.051748 0.906429 -20.600716 0.000000 0.000000 -1.585458
    1 -1.476612 0.144536 0.000000 -1.570795 -1.570787 0.000000
    2 1.293670 0.684478 -0.000001 -0.000004 -0.000001 0.117182
    3 5.309685 -0.003834 0.000000 -0.000596 0.003464 0.090413
    4 4.826790 -0.004591 0.000000 -0.152023 0.020853 0.028982
    5 5.792767 -0.005304 0.000000 -0.138739 0.029782 0.157344
    6 6.662322 -0.001452 0.000000 0.000000 -0.000001 0.471000
    7 -3.108188 1.516823 4.339626 1.374338 -0.766068 -4.904773
    8 4.827512 0.000000 -0.000002 -0.188614 -0.211485 -0.729624
    9 11.140032 0.000000 0.000000 0.000000 0.000000 -1.550185
    10 10.314563 -0.000001 0.000001 -3.782115 -0.073345 -0.194440
    11 1.646836 0.445664 -1.699647 -0.161704 0.581044 -0.283978
    12 0.928312 0.000000 0.000000 0.000000 0.000000 0.000000
    13 0.928313 0.000000 -0.000001 0.000000 0.000000 0.000000
    14 2.979373 -0.388274 -0.044205 -0.001932 -0.043575 0.026189
    15 1.435262 -0.000001 -0.000001 0.000000 0.000000 0.784927
    16 1.482593 -0.000001 0.000001 0.000000 0.000000 0.540709
    17 -2.869899 1.399667 -4.140396 1.265154 0.977859 -2.406148
    18 4.972047 0.000000 0.000000 -0.117765 -0.832793 -1.161109
    19 11.585358 0.000000 0.000001 0.000000 0.000000 -1.788362
    20 10.127058 0.000000 0.000001 1.696045 0.711028 -0.497462
    21 1.537458 0.109715 1.664489 -0.264662 -0.055995 0.783079
    22 0.928313 0.000000 0.000002 0.000000 0.000000 -0.453501
    23 0.928311 0.000000 0.000001 0.000000 0.000000 0.000000
    24 2.686395 -0.427337 0.044204 -0.005762 0.043239 -0.157074
    25 1.435260 0.000000 0.000001 0.000000 0.000000 0.732613
    26 1.482593 0.000000 -0.000001 0.000000 0.000000 1.168644
    27 2.046984 0.000001 0.000000 0.247727 0.163656 -1.311293
    28 -0.000005 0.000007 3.713254 -3.285082 -0.168830 1.246739
    29 18.045723 0.000000 0.000000 0.000000 0.000000 -1.749066
    30 17.597597 0.000000 0.000000 -0.247401 0.194897 -0.150708
    31 0.000005 -0.000003 -3.713254 0.822467 2.325824 5.523658
    32 18.045721 0.000000 0.000000 0.000000 0.000000 -2.672902
    33 17.597597 0.000000 0.000000 0.367387 0.052177 0.778279
  time 3
    0 0.051748 0.906429 -20.600716 0.000000 0.000000 -1.585458
    1 -1.445361 0.144536 0.000000 -1.570795 -1.570787 0.000000
    2 1.293670 0.684478 -0.000001 -0.000004 -0.000001 0.117182
    3 5.309685 -0.003834 0.000000 -0.000919 0.005237 0.096490
    4 4.826790 -0.004591 0.000000 -0.150420 0.019044 0.013945
    5 5.792767 -0.005304 0.000000 -0.138811 0.026642 0.139903
    6 6.662322 -0.001452 0.000000 0.002289 0.003353 0.512868
    7 -3.057405 1.653546 4.331813 1.368970 -0.764619 -4.943005
    8 4.827512 0.000000 -0.000002 -0.180642 -0.175756 -0.727458
    9 11.140032 0.000000 0.000000 0.000000 0.000000 -1.552865
    10 10.314563 -0.000001 0.000001 -3.772164 -0.080464 -0.194963
    11 1.646836 0.445664 -1.699647 -0.161704 0.581044 -0.283978
    12 0.928312 0.000000 0.000000 0.000000 0.000000 0.000000
    13 0.928313 0.000000 -0.000001 0.000000 0.000000 0.000000
    14 2.979373 -0.388274 -0.044205 -0.001932 -0.043575 0.026189
    15 1.435262 -0.000001 -0.000001 0.000000 0.000000 0.784927
    16 1.482593 -0.000001 0.000001 0.000000 0.000000 0.540709
    17 -2.799584 1.501233 -4.148209 1.283401 0.981224 -2.428943
    18 4.972047 0.000000 0.000000 -0.145904 -0.848622 -1.132956
    19 11.585358 0.000000 0.000001 0.000000 0.000000 -1.788607
    20 10.127058 0.000000 0.000001 1.694503 0.711122 -0.500614
    21 1.537458 0.109715 1.664489 -0.264662 -0.055995 0.783079
    22 0.928313 0.000000 0.000002 0.000000 0.000000 -0.453501
    23 0.928311 0.000000 0.000001 0.000000 0.000000 0.000000
    24 2.686395 -0.427337 0.044204 -0.005762 0.043239 -0.157074
    25 1.435260 0.000000 0.000001 0.000000 0.000000 0.732613
    26 1.482593 0.000000 -0.000001 0.000000 0.000000 1.168644
    27 2.046984 0.000001 0.000000 0.247339 0.158434 -1.336537
    28 -0.000005 0.000007 3.713254 -3.284890 -0.169118 1.246451
    29 18.045723 0.000000 0.000000 0.000000 0.000000 -1.751064
    30 17.597597 0.000000 0.000000 -0.247173 0.194823 -0.149058
    31 0.000005 -0.000003 -3.713254 0.821796 2.326687 5.526630
    32 18.045721 0.000000 0.000000 0.000000 0.000000 -2.672902
    33 17.597597 0.000000 0.000000 0.365608 0.054682 0.780219
  time 4
    0 0.051748 0.906429 -20.600716 0.000000 0.000000 -1.585458
    1 -1.414110 0.136723 0.000000 -1.570795 -1.570787 0.000000
    2 1.293670 0.684478 -0.000001 -0.000004 -0.000001 0.117182
    3 5.309685 -0.003834 0.000000 -0.001191 0.006915 0.102124
    4 4.826790 -0.004591 0.000000 -0.149066 0.017509 0.001068
    5 5.792767 -0.005304 0.000000 -0.138829 0.023765 0.123646
    6 6.662322 -0.001452 0.000000 0.004770 0.006624 0.554821
    7 -3.006622 1.790269 4.312281 1.363602 -0.763289 -4.981140
    8 4.827512 0.000000 -0.000002 -0.173308 -0.143778 -0.725638
    9 11.140032 0.000000 0.000000 0.000000 0.000000 -1.555329
    10 10.314563 -0.000001 0.000001 -3.763255 -0.087209 -0.194963
    11 1.646836 0.445664 -1.699647 -0.161704 0.581044 -0.283978
    12 0.928312 0.000000 0.000000 0.000000 0.000000 0.000000
    13 0.928313 0.000000 -0.000001 0.000000 0.000000 0.000000
    14 2.979373 -0.388274 -0.044205 -0.001932 -0.043575 0.026189
    15 1.435262 -0.000001 -0.000001 0.000000 0.000000 0.784927
    16 1.482593 -0.000001 0.000001 0.000000 0.000000 0.540709
    17 -2.725363 1.606705 -4.163834 1.304227 0.984983 -2.448195
    18 4.972047 0.000000 0.000000 -0.169917 -0.863406 -1.108397
    19 11.585358 0.000000 0.000001 0.000000 0.000000 -1.789016
    20 10.127058 0.000000 0.000001 1.692539 0.711501 -0.504515
    21 1.537458 0.109715 1.664489 -0.264662 -0.055995 0.783079
    22 0.928313 0.000000 0.000002 0.000000 0.000000 -0.453501
    23 0.928311 0.000000 0.000001 0.000000 0.000000 0.000000
    24 2.686395 -0.427337 0.044204 -0.005762 0.043239 -0.157074
    25 1.435260 0.000000 0.000001 0.000000 0.000000 0.732613
    26 1.482593 0.000000 -0.000001 0.000000 0.000000 1.168644
    27 2.046984 0.000001 0.000000 0.247253 0.153595 -1.364579
    28 -0.000005 0.000007 3.713254 -3.284698 -0.169310 1.246164
    29 18.045723 0.000000 0.000000 0.000000 0.000000 -1.752693
    30 17.597597 0.000000 0.000000 -0.246970 0.194749 -0.147728
    31 0.000005 -0.000003 -3.713254 0.821030 2.327358 5.529123
    32 18.045721 0.000000 0.000000 0.000000 0.000000 -2.672744
    33 17.597597 0.000000 0.000000 0.364099 0.056793 0.781790
  time 5
    0 0.051748 0.906429 -20.600716 0.000000 0.000000 -1.585458
    1 -1.402391 0.136723 0.000000 -1.570795 -1.570787 0.000000
    2 1.293670 0.684478 -0.000001 -0.000004 -0.000001 0.117182
    3 5.309685 -0.003834 0.000000 -0.001429 0.008353 0.106982
    4 4.826790 -0.004591 0.000000 -0.148093 0.016467 -0.008060
    5 5.792767 -0.005304 0.000000 -0.138775 0.021464 0.109631
    6 6.662322 -0.001452 0.000000 0.007359 0.009840 0.596774
    7 -2.940214 1.919179 4.300562 1.358234 -0.762106 -5.019372
    8 4.827512 0.000000 -0.000002 -0.167409 -0.118793 -0.724338
    9 11.140032 0.000000 0.000000 0.000000 0.000000 -1.557647
    10 10.314563 -0.000001 0.000001 -3.756336 -0.092829 -0.194092
    11 1.646836 0.445664 -1.699647 -0.161704 0.581044 -0.283978
    12 0.928312 0.000000 0.000000 0.000000 0.000000 0.000000
    13 0.928313 0.000000 -0.000001 0.000000 0.000000 0.000000
    14 2.979373 -0.388274 -0.044205 -0.001932 -0.043575 0.026189
    15 1.435262 -0.000001 -0.000001 0.000000 0.000000 0.784927
    16 1.482593 -0.000001 0.000001 0.000000 0.000000 0.540709
    17 -2.639423 1.712177 -4.171647 1.326486 0.988822 -2.466010
    18 4.972047 0.000000 0.000000 -0.187457 -0.876262 -1.090161
    19 11.585358 0.000000 0.000001 0.000000 0.000000 -1.789342
    20 10.127058 0.000000 0.000001 1.690435 0.711690 -0.508667
    21 1.537458 0.109715 1.664489 -0.264662 -0.055995 0.783079
    22 0.928313 0.000000 0.000002 0.000000 0.000000 -0.453501
    23 0.928311 0.000000 0.000001 0.000000 0.000000 0.000000
    24 2.686395 -0.427337 0.044204 -0.005762 0.043239 -0.157074
    25 1.435260 0.000000 0.000001 0.000000 0.000000 0.732613
    26 1.482593 0.000000 -0.000001 0.000000 0.000000 1.168644
    27 2.046984 0.000001 0.000000 0.247296 0.149435 -1.397669
    28 -0.000005 0.000007 3.713254 -3.284698 -0.169406 1.246068
    29 18.045723 0.000000 0.000000 0.000000 0.000000 -1.753655
    30 17.597597 0.000000 0.000000 -0.246894 0.194749 -0.146765
    31 0.000005 -0.000003 -3.713254 0.820646 2.327741 5.530561
    32 18.045721 0.000000 0.000000 0.000000 0.000000 -2.672744
    33 17.597597 0.000000 0.000000 0.363126 0.058154 0.782713
  time 6
    0 0.051748 0.906429 -20.600716 0.000000 0.000000 -1.585458
    1 -1.390671 0.136723 0.000000 -1.570795 -1.570787 0.000000
    2 1.293670 0.684478 -0.000001 -0.000004 -0.000001 0.117182
    3 5.309685 -0.003834 0.000000 -0.001600 0.009456 0.110621
    4 4.826790 -0.004591 0.000000 -0.147521 0.015844 -0.013417
    5 5.792767 -0.005304 0.000000 -0.138613 0.019643 0.096156
    6 6.662322 -0.001452 0.000000 0.010055 0.012905 0.638670
    7 -2.869899 2.055902 4.288843 1.352771 -0.761101 -5.057507
    8 4.827512 0.000000 -0.000002 -0.162308 -0.098157 -0.723125
    9 11.140032 0.000000 0.000000 0.000000 0.000000 -1.560111
    10 10.314563 -0.000001 0.000001 -3.750650 -0.097700 -0.192814
    11 1.646836 0.445664 -1.699647 -0.161704 0.581044 -0.283978
    12 0.928312 0.000000 0.000000 0.000000 0.000000 0.000000
    13 0.928313 0.000000 -0.000001 0.000000 0.000000 0.000000
    14 2.979373 -0.388274 -0.044205 -0.001932 -0.043575 0.026189
    15 1.435262 -0.000001 -0.000001 0.000000 0.000000 0.784927
    16 1.482593 -0.000001 0.000001 0.000000 0.000000 0.540709
    17 -2.549577 1.805929 -4.187273 1.348267 0.992424 -2.484496
    18 4.972047 0.000000 0.000000 -0.201433 -0.887430 -1.075386
    19 11.585358 0.000000 0.000001 0.000000 0.000000 -1.789751
    20 10.127058 0.000000 0.000001 1.688402 0.711973 -0.512719
    21 1.537458 0.109715 1.664489 -0.264662 -0.055995 0.783079
    22 0.928313 0.000000 0.000002 0.000000 0.000000 -0.453501
    23 0.928311 0.000000 0.000001 0.000000 0.000000 0.000000
    24 2.686395 -0.427337 0.044204 -0.005762 0.043239 -0.157074
    25 1.435260 0.000000 0.000001 0.000000 0.000000 0.732613
    26 1.482593 0.000000 -0.000001 0.000000 0.000000 1.168644
    27 2.046984 0.000001 0.000000 0.247684 0.145836 -1.433923
    28 -0.000005 0.000007 3.713254 -3.284698 -0.169502 1.245972
    29 18.045723 0.000000 0.000000 0.000000 0.000000 -1.754395
    30 17.597597 0.000000 0.000000 -0.246768 0.194749 -0.146215
    31 0.000005 -0.000003 -3.713254 0.820167 2.328029 5.531615
    32 18.045721 0.000000 0.000000 0.000000 0.000000 -2.672744
    33 17.597597 0.000000 0.000000 0.362455 0.059021 0.783314
  time 7
    0 0.051748 0.906429 -20.600716 0.000000 0.000000 -1.585458
    1 -1.378952 0.136723 0.000000 -1.570795 -1.570787 0.000000
    2 1.293670 0.684478 -0.000001 -0.000004 -0.000001 0.117182
    3 5.309685 -0.003834 0.000000 -0.001719 0.010199 0.113094
    4 4.826790 -0.004591 0.000000 -0.147254 0.015508 -0.016107
    5 5.792767 -0.005304 0.000000 -0.138416 0.018265 0.083719
    6 6.662322 -0.001452 0.000000 0.012907 0.015846 0.680680
    7 -2.799584 2.180906 4.269311 1.347307 -0.760214 -5.095643
    8 4.827512 0.000000 -0.000002 -0.158242 -0.081017 -0.721999
    9 11.140032 0.000000 0.000000 0.000000 0.000000 -1.562357
    10 10.314563 -0.000001 0.000001 -3.745911 -0.101728 -0.191595
    11 1.646836 0.445664 -1.699647 -0.161704 0.581044 -0.283978
    12 0.928312 0.000000 0.000000 0.000000 0.000000 0.000000
    13 0.928313 0.000000 -0.000001 0.000000 0.000000 0.000000
    14 2.979373 -0.388274 -0.044205 -0.001932 -0.043575 0.026189
    15 1.435262 -0.000001 -0.000001 0.000000 0.000000 0.784927
    16 1.482593 -0.000001 0.000001 0.000000 0.000000 0.540709
    17 -2.455824 1.903589 -4.202898 1.368137 0.995631 -2.505280
    18 4.972047 0.000000 0.000000 -0.213345 -0.896751 -1.063073
    19 11.585358 0.000000 0.000001 0.000000 0.000000 -1.789996
    20 10.127058 0.000000 0.000001 1.686649 0.712163 -0.516170
    21 1.537458 0.109715 1.664489 -0.264662 -0.055995 0.783079
    22 0.928313 0.000000 0.000002 0.000000 0.000000 -0.453501
    23 0.928311 0.000000 0.000001 0.000000 0.000000 0.000000
    24 2.686395 -0.427337 0.044204 -0.005762 0.043239 -0.157074
    25 1.435260 0.000000 0.000001 0.000000 0.000000 0.732613
    26 1.482593 0.000000 -0.000001 0.000000 0.000000 1.168644
    27 2.046984 0.000001 0.000000 0.248244 0.142620 -1.472793
    28 -0.000005 0.000007 3.713254 -3.284698 -0.169597 1.245876
    29 18.045723 0.000000 0.000000 0.000000 0.000000 -1.754839
    30 17.597597 0.000000 0.000000 -0.246742 0.194749 -0.145803
    31 0.000005 -0.000003 -3.713254 0.820071 2.328221 5.532382
    32 18.045721 0.000000 0.000000 0.000000 0.000000 -2.672744
    33 17.597597 0.000000 0.000000 0.361985 0.059672 0.783822
  time 8
    0 0.051748 0.906429 -20.600716 0.000000 0.000000 -1.585458
    1 -1.382859 0.136723 0.000000 -1.570795 -1.570787 0.000000
    2 1.293670 0.684478 -0.000001 -0.000004 -0.000001 0.117182
    3 5.309685 -0.003834 0.000000 -0.001804 0.010618 0.114613
    4 4.826790 -0.004591 0.000000 -0.147254 0.015508 -0.016107
    5 5.792767 -0.005304 0.000000 -0.138218 0.017725 0.076473
    6 6.662322 -0.001452 0.000000 0.012907 0.015846 0.680680
    7 -2.799584 2.180906 4.269311 1.347307 -0.760214 -5.095643
    8 4.827512 0.000000 -0.000002 -0.156249 -0.073001 -0.721479
    9 11.140032 0.000000 0.000000 0.000000 0.000000 -1.563878
    10 10.314563 -0.000001 0.000001 -3.743636 -0.103976 -0.190259
    11 1.646836 0.445664 -1.699647 -0.161704 0.581044 -0.283978
    12 0.928312 0.000000 0.000000 0.000000 0.000000 0.000000
    13 0.928313 0.000000 -0.000001 0.000000 0.000000 0.000000
    14 2.979373 -0.388274 -0.044205 -0.001932 -0.043575 0.026189
    15 1.435262 -0.000001 -0.000001 0.000000 0.000000 0.784927
    16 1.482593 -0.000001 0.000001 0.000000 0.000000 0.540709
    17 -2.455824 1.903589 -4.202898 1.377213 0.996761 -2.494457
    18 4.972047 0.000000 0.000000 -0.217472 -0.901893 -1.058547
    19 11.585358 0.000000 0.000001 0.000000 0.000000 -1.790241
    20 10.127058 0.000000 0.000001 1.685457 0.712163 -0.518571
    21 1.537458 0.109715 1.664489 -0.264662 -0.055995 0.783079
    22 0.928313 0.000000 0.000002 0.000000 0.000000 -0.453501
    23 0.928311 0.000000 0.000001 0.000000 0.000000 0.000000
    24 2.686395 -0.427337 0.044204 -0.005762 0.043239 -0.157074
    25 1.435260 0.000000 0.000001 0.000000 0.000000 0.732613
    26 1.482593 0.000000 -0.000001 0.000000 0.000000 1.168644
    27 2.046984 0.000001 0.000000 0.250915 0.141440 -1.457282
    28 -0.000005 0.000007 3.713254 -3.284698 -0.169597 1.245876
    29 18.045723 0.000000 0.000000 0.000000 0.000000 -1.754839
    30 17.597597 0.000000 0.000000 -0.246742 0.194798 -0.145803
    31 0.000005 -0.000003 -3.713254 0.820071 2.328125 5.532286
    32 18.045721 0.000000 0.000000 0.000000 0.000000 -2.672902
    33 17.597597 0.000000 0.000000 0.361951 0.059653 0.783730
  time 9
    0 0.051748 0.906429 -20.600716 0.000000 0.000000 -1.585458
    1 -1.398484 0.144536 0.000000 -1.570795 -1.570787 0.000000
    2 1.293670 0.684478 -0.000001 -0.000004 -0.000001 0.117182
    3 5.309685 -0.003834 0.000000 -0.001804 0.010702 0.114878
    4 4.826790 -0.004591 0.000000 -0.147521 0.015844 -0.013417
    5 5.792767 -0.005304 0.000000 -0.138182 0.018444 0.078653
    6 6.662322 -0.001452 0.000000 0.012907 0.015846 0.680680
    7 -2.799584 2.180906 4.269311 1.347307 -0.760214 -5.095643
    8 4.827512 0.000000 -0.000002 -0.157604 -0.079652 -0.722605
    9 11.140032 0.000000 0.000000 0.000000 0.000000 -1.564530
    10 10.314563 -0.000001 0.000001 -3.745437 -0.103414 -0.188343
    11 1.646836 0.445664 -1.699647 -0.161704 0.581044 -0.283978
    12 0.928312 0.000000 0.000000 0.000000 0.000000 0.000000
    13 0.928313 0.000000 -0.000001 0.000000 0.000000 0.000000
    14 2.979373 -0.388274 -0.044205 -0.001932 -0.043575 0.026189
    15 1.435262 -0.000001 -0.000001 0.000000 0.000000 0.784927
    16 1.482593 -0.000001 0.000001 0.000000 0.000000 0.540709
    17 -2.455824 1.903589 -4.202898 1.382849 0.997471 -2.487753
    18 4.972047 0.000000 0.000000 -0.207530 -0.901331 -1.067000
    19 11.585358 0.000000 0.000001 0.000000 0.000000 -1.790322
    20 10.127058 0.000000 0.000001 1.684685 0.712352 -0.520072
    21 1.537458 0.109715 1.664489 -0.264662 -0.055995 0.783079
    22 0.928313 0.000000 0.000002 0.000000 0.000000 -0.453501
    23 0.928311 0.000000 0.000001 0.000000 0.000000 0.000000
    24 2.686395 -0.427337 0.044204 -0.005762 0.043239 -0.157074
    25 1.435260 0.000000 0.000001 0.000000 0.000000 0.732613
    26 1.482593 0.000000 -0.000001 0.000000 0.000000 1.168644
    27 2.046984 0.000001 0.000000 0.253715 0.141115 -1.452415
    28 -0.000005 0.000007 3.713254 -3.284794 -0.169502 1.246068
    29 18.045723 0.000000 0.000000 0.000000 0.000000 -1.754099
    30 17.597597 0.000000 0.000000 -0.246844 0.194897 -0.146399
    31 0.000005 -0.000003 -3.713254 0.820167 2.327550 5.531040
    32 18.045721 0.000000 0.000000 0.000000 0.000000 -2.672902
    33 17.597597 0.000000 0.000000 0.362555 0.058686 0.782806
  time 10
    0 0.051748 0.906429 -20.600716 0.000000 0.000000 -1.585458
    1 -1.421922 0.144536 0.000000 -1.570795 -1.570787 0.000000
    2 1.293670 0.684478 -0.000001 -0.000004 -0.000001 0.117182
    3 5.309685 -0.003834 0.000000 -0.001753 0.010355 0.113606
    4 4.826790 -0.004591 0.000000 -0.148093 0.016467 -0.008060
    5 5.792767 -0.005304 0.000000 -0.138290 0.020554 0.091339
    6 6.662322 -0.001452 0.000000 0.012907 0.015846 0.680680
    7 -2.799584 2.180906 4.269311 1.347307 -0.760214 -5.095643
    8 4.827512 0.000000 -0.000002 -0.162387 -0.101909 -0.725638
    9 11.140032 0.000000 0.000000 0.000000 0.000000 -1.564096
    10 10.314563 -0.000001 0.000001 -3.751313 -0.100136 -0.185614
    11 1.646836 0.445664 -1.699647 -0.161704 0.581044 -0.283978
    12 0.928312 0.000000 0.000000 0.000000 0.000000 0.000000
    13 0.928313 0.000000 -0.000001 0.000000 0.000000 0.000000
    14 2.979373 -0.388274 -0.044205 -0.001932 -0.043575 0.026189
    15 1.435262 -0.000001 -0.000001 0.000000 0.000000 0.784927
    16 1.482593 -0.000001 0.000001 0.000000 0.000000 0.540709
    17 -2.455824 1.903589 -4.202898 1.386575 0.997918 -2.483251
    18 4.972047 0.000000 0.000000 -0.182017 -0.894983 -1.089828
    19 11.585358 0.000000 0.000001 0.000000 0.000000 -1.790404
    20 10.127058 0.000000 0.000001 1.684124 0.712352 -0.521072
    21 1.537458 0.109715 1.664489 -0.264662 -0.055995 0.783079
    22 0.928313 0.000000 0.000002 0.000000 0.000000 -0.453501
    23 0.928311 0.000000 0.000001 0.000000 0.000000 0.000000
    24 2.686395 -0.427337 0.044204 -0.005762 0.043239 -0.157074
    25 1.435260 0.000000 0.000001 0.000000 0.000000 0.732613
    26 1.482593 0.000000 -0.000001 0.000000 0.000000 1.168644
    27 2.046984 0.000001 0.000000 0.256947 0.141794 -1.459411
    28 -0.000005 0.000007 3.713254 -3.285082 -0.169310 1.246260
    29 18.045723 0.000000 0.000000 0.000000 0.000000 -1.752619
    30 17.597597 0.000000 0.000000 -0.247122 0.195093 -0.147728
    31 0.000005 -0.000003 -3.713254 0.820455 2.326495 5.528547
    32 18.045721 0.000000 0.000000 0.000000 0.000000 -2.672981
    33 17.597597 0.000000 0.000000 0.363763 0.056871 0.781097
  time 11
    0 0.051748 0.906429 -20.600716 0.000000 0.000000 -1.585458
    1 -1.453173 0.156255 0.000000 -1.570795 -1.570787 0.000000
    2 1.293670 0.684478 -0.000001 -0.000004 -0.000001 0.117182
    3 5.309685 -0.003834 0.000000 -0.001600 0.009456 0.110621
    4 4.826790 -0.004591 0.000000 -0.149219 0.017641 0.002171
    5 5.792767 -0.005304 0.000000 -0.138416 0.023610 0.110877
    6 6.662322 -0.001452 0.000000 0.012907 0.015846 0.680680
    7 -2.799584 2.180906 4.269311 1.347307 -0.760214 -5.095643
    8 4.827512 0.000000 -0.000002 -0.169960 -0.137809 -0.729537
    9 11.140032 0.000000 0.000000 0.000000 0.000000 -1.562574
    10 10.314563 -0.000001 0.000001 -3.761170 -0.094234 -0.182479
    11 1.646836 0.445664 -1.699647 -0.161704 0.581044 -0.283978
    12 0.928312 0.000000 0.000000 0.000000 0.000000 0.000000
    13 0.928313 0.000000 -0.000001 0.000000 0.000000 0.000000
    14 2.979373 -0.388274 -0.044205 -0.001932 -0.043575 0.026189
    15 1.435262 -0.000001 -0.000001 0.000000 0.000000 0.784927
    16 1.482593 -0.000001 0.000001 0.000000 0.000000 0.540709
    17 -2.455824 1.903589 -4.202898 1.388008 0.998129 -2.481335
    18 4.972047 0.000000 0.000000 -0.144310 -0.883011 -1.123838
    19 11.585358 0.000000 0.000001 0.000000 0.000000 -1.790404
    20 10.127058 0.000000 0.000001 1.683914 0.712352 -0.521473
    21 1.537458 0.109715 1.664489 -0.264662 -0.055995 0.783079
    22 0.928313 0.000000 0.000002 0.000000 0.000000 -0.453501
    23 0.928311 0.000000 0.000001 0.000000 0.000000 0.000000
    24 2.686395 -0.427337 0.044204 -0.005762 0.043239 -0.157074
    25 1.435260 0.000000 0.000001 0.000000 0.000000 0.732613
    26 1.482593 0.000000 -0.000001 0.000000 0.000000 1.168644
    27 2.046984 0.000001 0.000000 0.260264 0.143741 -1.476078
    28 -0.000005 0.000007 3.713254 -3.285561 -0.169022 1.246643
    29 18.045723 0.000000 0.000000 0.000000 0.000000 -1.750398
    30 17.597597 0.000000 0.000000 -0.247477 0.195340 -0.149608
    31 0.000005 -0.000003 -3.713254 0.821221 2.325249 5.525000
    32 18.045721 0.000000 0.000000 0.000000 0.000000 -2.672981
    33 17.597597 0.000000 0.000000 0.365642 0.054031 0.778557
  time 12
    0 0.051748 0.906429 -20.600716 0.000000 0.000000 -1.585458
    1 -1.472705 0.144536 0.000000 -1.570795 -1.570787 0.000000
    2 1.293670 0.684478 -0.000001 -0.000004 -0.000001 0.117182
    3 5.309685 -0.003834 0.000000 -0.001174 0.006687 0.101365
    4 4.826790 -0.004591 0.000000 -0.150802 0.019451 0.017164
    5 5.792767 -0.005304 0.000000 -0.138524 0.027133 0.133882
    6 6.662322 -0.001452 0.000000 0.012907 0.015846 0.680680
    7 -2.799584 2.180906 4.269311 1.347307 -0.760214 -5.095643
    8 4.827512 0.000000 -0.000002 -0.177932 -0.176779 -0.733436
    9 11.140032 0.000000 0.000000 0.000000 0.000000 -1.560038
    10 10.314563 -0.000001 0.000001 -3.772259 -0.087209 -0.179866
    11 1.646836 0.445664 -1.699647 -0.161704 0.581044 -0.283978
    12 0.928312 0.000000 0.000000 0.000000 0.000000 0.000000
    13 0.928313 0.000000 -0.000001 0.000000 0.000000 0.000000
    14 2.979373 -0.388274 -0.044205 -0.001932 -0.043575 0.026189
    15 1.435262 -0.000001 -0.000001 0.000000 0.000000 0.784927
    16 1.482593 -0.000001 0.000001 0.000000 0.000000 0.540709
    17 -2.455824 1.903589 -4.202898 1.387148 0.997997 -2.482580
    18 4.972047 0.000000 0.000000 -0.106134 -0.869352 -1.158780
    19 11.585358 0.000000 0.000001 0.000000 0.000000 -1.790404
    20 10.127058 0.000000 0.000001 1.684054 0.712352 -0.521222
    21 1.537458 0.109715 1.664489 -0.264662 -0.055995 0.783079
    22 0.928313 0.000000 0.000002 0.000000 0.000000 -0.453501
    23 0.928311 0.000000 0.000001 0.000000 0.000000 0.000000
    24 2.686395 -0.427337 0.044204 -0.005762 0.043239 -0.157074
    25 1.435260 0.000000 0.000001 0.000000 0.000000 0.732613
    26 1.482593 0.000000 -0.000001 0.000000 0.000000 1.168644
    27 2.046984 0.000001 0.000000 0.263323 0.146426 -1.494570
    28 -0.000005 0.000007 3.713254 -3.285561 -0.168926 1.246739
    29 18.045723 0.000000 0.000000 0.000000 0.000000 -1.749140
    30 17.597597 0.000000 0.000000 -0.247452 0.195364 -0.150662
    31 0.000005 -0.000003 -3.713254 0.822180 2.324961 5.523466
    32 18.045721 0.000000 0.000000 0.000000 0.000000 -2.672981
    33 17.597597 0.000000 0.000000 0.366816 0.052296 0.777679
  time 13
    0 0.051748 0.906429 -20.600716 0.000000 0.000000 -1.585458
    1 -1.472705 0.144536 0.000000 -1.570795 -1.570787 0.000000
    2 1.293670 0.684478 -0.000001 -0.000004 -0.000001 0.117182
    3 5.309685 -0.003834 0.000000 -0.000459 0.002649 0.087676
    4 4.826790 -0.004591 0.000000 -0.152480 0.021440 0.033810
    5 5.792767 -0.005304 0.000000 -0.138542 0.030717 0.157261
    6 6.662322 -0.001452 0.000000 0.010055 0.012905 0.638670
    7 -2.869899 2.055902 4.288843 1.352771 -0.761101 -5.057507
    8 4.827512 0.000000 -0.000002 -0.184947 -0.212509 -0.736903
    9 11.140032 0.000000 0.000000 0.000000 0.000000 -1.556995
    10 10.314563 -0.000001 0.000001 -3.782684 -0.080371 -0.178356
    11 1.646836 0.445664 -1.699647 -0.161704 0.581044 -0.283978
    12 0.928312 0.000000 0.000000 0.000000 0.000000 0.000000
    13 0.928313 0.000000 -0.000001 0.000000 0.000000 0.000000
    14 2.979373 -0.388274 -0.044205 -0.001932 -0.043575 0.026189
    15 1.435262 -0.000001 -0.000001 0.000000 0.000000 0.784927
    16 1.482593 -0.000001 0.000001 0.000000 0.000000 0.540709
    17 -2.549577 1.805929 -4.187273 1.376449 0.996314 -2.450973
    18 4.972047 0.000000 0.000000 -0.073679 -0.855933 -1.188929
    19 11.585358 0.000000 0.000001 0.000000 0.000000 -1.790322
    20 10.127058 0.000000 0.000001 1.684615 0.712352 -0.520272
    21 1.537458 0.109715 1.664489 -0.264662 -0.055995 0.783079
    22 0.928313 0.000000 0.000002 0.000000 0.000000 -0.453501
    23 0.928311 0.000000 0.000001 0.000000 0.000000 0.000000
    24 2.686395 -0.427337 0.044204 -0.005762 0.043239 -0.157074
    25 1.435260 0.000000 0.000001 0.000000 0.000000 0.732613
    26 1.482593 0.000000 -0.000001 0.000000 0.000000 1.168644
    27 2.046984 0.000001 0.000000 0.260178 0.152533 -1.478997
    28 -0.000005 0.000007 3.713254 -3.285465 -0.169214 1.246739
    29 18.045723 0.000000 0.000000 0.000000 0.000000 -1.749140
    30 17.597597 0.000000 0.000000 -0.247122 0.195241 -0.150662
    31 0.000005 -0.000003 -3.713254 0.823234 2.325728 5.524329
    32 18.045721 0.000000 0.000000 0.000000 0.000000 -2.672902
    33 17.597597 0.000000 0.000000 0.367018 0.051901 0.778510
  time 14
    0 0.051748 0.906429 -20.600716 0.000000 0.000000 -1.585458
    1 -1.488331 0.136723 0.000000 -1.570795 -1.570787 0.000000
    2 1.293670 0.684478 -0.000001 -0.000004 -0.000001 0.117182
    3 5.309685 -0.003834 0.000000 0.000000 0.000000 0.078738
    4 4.826790 -0.004591 0.000000 -0.154006 0.023274 0.048825
    5 5.792767 -0.005304 0.000000 -0.138524 0.033844 0.177816
    6 6.662322 -0.001452 0.000000 0.007359 0.009840 0.596774
    7 -2.940214 1.919179 4.300562 1.358234 -0.762106 -5.019372
    8 4.827512 0.000000 -0.000002 -0.192201 -0.248665 -0.739935
    9 11.140032 0.000000 0.000000 0.000000 0.000000 -1.553228
    10 10.314563 -0.000001 0.000001 -3.792920 -0.073252 -0.178008
    11 1.646836 0.445664 -1.699647 -0.161704 0.581044 -0.283978
    12 0.928312 0.000000 0.000000 0.000000 0.000000 0.000000
    13 0.928313 0.000000 -0.000001 0.000000 0.000000 0.000000
    14 2.979373 -0.388274 -0.044205 -0.001932 -0.043575 0.026189
    15 1.435262 -0.000001 -0.000001 0.000000 0.000000 0.784927
    16 1.482593 -0.000001 0.000001 0.000000 0.000000 0.540709
    17 -2.639423 1.712177 -4.171647 1.362883 0.994264 -2.422622
    18 4.972047 0.000000 0.000000 -0.043476 -0.840587 -1.217348
    19 11.585358 0.000000 0.000001 0.000000 0.000000 -1.790241
    20 10.127058 0.000000 0.000001 1.685457 0.712163 -0.518571
    21 1.537458 0.109715 1.664489 -0.264662 -0.055995 0.783079
    22 0.928313 0.000000 0.000002 0.000000 0.000000 -0.453501
    23 0.928311 0.000000 0.000001 0.000000 0.000000 0.000000
    24 2.686395 -0.427337 0.044204 -0.005762 0.043239 -0.157074
    25 1.435260 0.000000 0.000001 0.000000 0.000000 0.732613
    26 1.482593 0.000000 -0.000001 0.000000 0.000000 1.168644
    27 2.046984 0.000001 0.000000 0.257162 0.158493 -1.463912
    28 -0.000005 0.000007 3.713254 -3.285465 -0.169310 1.246931
    29 18.045723 0.000000 0.000000 0.000000 0.000000 -1.748030
    30 17.597597 0.000000 0.000000 -0.247097 0.195290 -0.151625
    31 0.000005 -0.000003 -3.713254 0.824097 2.325441 5.522987
    32 18.045721 0.000000 0.000000 0.000000 0.000000 -2.672744
    33 17.597597 0.000000 0.000000 0.368125 0.050304 0.777725
  time 15
    0 0.051748 0.906429 -20.600716 0.000000 0.000000 -1.585458
    1 -1.519582 0.144536 0.000000 -1.570795 -1.570787 0.000000
    2 1.293670 0.684478 -0.000001 -0.000004 -0.000001 0.117182
    3 5.309685 -0.003834 0.000000 0.000102 -0.000695 0.076265
    4 4.826790 -0.004591 0.000000 -0.155036 0.024532 0.059033
    5 5.792767 -0.005304 0.000000 -0.138452 0.036074 0.192267
    6 6.662322 -0.001452 0.000000 0.004770 0.006624 0.554821
    7 -3.006622 1.790269 4.312281 1.363602 -0.763289 -4.981140
    8 4.827512 0.000000 -0.000002 -0.198738 -0.278937 -0.741668
    9 11.140032 0.000000 0.000000 0.000000 0.000000 -1.549098
    10 10.314563 -0.000001 0.000001 -3.801165 -0.066695 -0.179692
    11 1.646836 0.445664 -1.699647 -0.161704 0.581044 -0.283978
    12 0.928312 0.000000 0.000000 0.000000 0.000000 0.000000
    13 0.928313 0.000000 -0.000001 0.000000 0.000000 0.000000
    14 2.979373 -0.388274 -0.044205 -0.001932 -0.043575 0.026189
    15 1.435262 -0.000001 -0.000001 0.000000 0.000000 0.784927
    16 1.482593 -0.000001 0.000001 0.000000 0.000000 0.540709
    17 -2.725363 1.606705 -4.163834 1.341484 0.991162 -2.403657
    18 4.972047 0.000000 0.000000 -0.023872 -0.824517 -1.237448
    19 11.585358 0.000000 0.000001 0.000000 0.000000 -1.789914
    20 10.127058 0.000000 0.000001 1.687350 0.711973 -0.514720
    21 1.537458 0.109715 1.664489 -0.264662 -0.055995 0.783079
    22 0.928313 0.000000 0.000002 0.000000 0.000000 -0.453501
    23 0.928311 0.000000 0.000001 0.000000 0.000000 0.000000
    24 2.686395 -0.427337 0.044204 -0.005762 0.043239 -0.157074
    25 1.435260 0.000000 0.000001 0.000000 0.000000 0.732613
    26 1.482593 0.000000 -0.000001 0.000000 0.000000 1.168644
    27 2.046984 0.000001 0.000000 0.254405 0.163597 -1.444447
    28 -0.000005 0.000007 3.713254 -3.285753 -0.169022 1.247218
    29 18.045723 0.000000 0.000000 0.000000 0.000000 -1.746031
    30 17.597597 0.000000 0.000000 -0.247401 0.195487 -0.153276
    31 0.000005 -0.000003 -3.713254 0.824672 2.324194 5.519728
    32 18.045721 0.000000 0.000000 0.000000 0.000000 -2.672902
    33 17.597597 0.000000 0.000000 0.369836 0.047779 0.775462
  time 16
    0 0.051748 0.906429 -20.600716 0.000000 0.000000 -1.585458
    1 -1.539113 0.144536 0.000000 -1.570795 -1.570787 0.000000
    2 1.293670 0.684478 -0.000001 -0.000004 -0.000001 0.117182
    3 5.309685 -0.003834 0.000000 0.000153 -0.000923 0.075576
    4 4.826790 -0.004591 0.000000 -0.155475 0.025084 0.063333
    5 5.792767 -0.005304 0.000000 -0.138398 0.037080 0.198890
    6 6.662322 -0.001452 0.000000 0.002289 0.003353 0.512868
    7 -3.057405 1.653546 4.331813 1.368970 -0.764619 -4.943005
    8 4.827512 0.000000 -0.000002 -0.202565 -0.293178 -0.741148
    9 11.140032 0.000000 0.000000 0.000000 0.000000 -1.546200
    10 10.314563 -0.000001 0.000001 -3.804767 -0.062386 -0.183234
    11 1.646836 0.445664 -1.699647 -0.161704 0.581044 -0.283978
    12 0.928312 0.000000 0.000000 0.000000 0.000000 0.000000
    13 0.928313 0.000000 -0.000001 0.000000 0.000000 0.000000
    14 2.979373 -0.388274 -0.044205 -0.001932 -0.043575 0.026189
    15 1.435262 -0.000001 -0.000001 0.000000 0.000000 0.784927
    16 1.482593 -0.000001 0.000001 0.000000 0.000000 0.540709
    17 -2.799584 1.501233 -4.148209 1.312347 0.986587 -2.394079
    18 4.972047 0.000000 0.000000 -0.023309 -0.812786 -1.241774
    19 11.585358 0.000000 0.000001 0.000000 0.000000 -1.789342
    20 10.127058 0.000000 0.000001 1.690435 0.711690 -0.508717
    21 1.537458 0.109715 1.664489 -0.264662 -0.055995 0.783079
    22 0.928313 0.000000 0.000002 0.000000 0.000000 -0.453501
    23 0.928311 0.000000 0.000001 0.000000 0.000000 0.000000
    24 2.686395 -0.427337 0.044204 -0.005762 0.043239 -0.157074
    25 1.435260 0.000000 0.000001 0.000000 0.000000 0.732613
    26 1.482593 0.000000 -0.000001 0.000000 0.000000 1.168644
    27 2.046984 0.000001 0.000000 0.251475 0.167344 -1.413242
    28 -0.000005 0.000007 3.713254 -3.286041 -0.168926 1.247410
    29 18.045723 0.000000 0.000000 0.000000 0.000000 -1.745069
    30 17.597597 0.000000 0.000000 -0.247553 0.195635 -0.154147
    31 0.000005 -0.000003 -3.713254 0.824959 2.323523 5.518098
    32 18.045721 0.000000 0.000000 0.000000 0.000000 -2.672902
    33 17.597597 0.000000 0.000000 0.370675 0.046517 0.774307
  time 17
    0 0.051748 0.906429 -20.600716 0.000000 0.000000 -1.585458
    1 -1.539113 0.144536 0.000000 -1.570795 -1.570787 0.000000
    2 1.293670 0.684478 -0.000001 -0.000004 -0.000001 0.117182
    3 5.309685 -0.003834 0.000000 0.000136 -0.000779 0.076071
    4 4.826790 -0.004591 0.000000 -0.155513 0.025156 0.063884
    5 5.792767 -0.005304 0.000000 -0.138398 0.037200 0.199700
    6 6.662322 -0.001452 0.000000 0.000000 -0.000001 0.471000
    7 -3.108188 1.516823 4.339626 1.374338 -0.766068 -4.904773
    8 4.827512 0.000000 -0.000002 -0.204478 -0.295992 -0.739415
    9 11.140032 0.000000 0.000000 0.000000 0.000000 -1.544461
    10 10.314563 -0.000001 0.000001 -3.805525 -0.060044 -0.187240
    11 1.646836 0.445664 -1.699647 -0.161704 0.581044 -0.283978
    12 0.928312 0.000000 0.000000 0.000000 0.000000 0.000000
    13 0.928313 0.000000 -0.000001 0.000000 0.000000 0.000000
    14 2.979373 -0.388274 -0.044205 -0.001932 -0.043575 0.026189
    15 1.435262 -0.000001 -0.000001 0.000000 0.000000 0.784927
    16 1.482593 -0.000001 0.000001 0.000000 0.000000 0.540709
    17 -2.869899 1.399667 -4.140396 1.282254 0.981382 -2.385459
    18 4.972047 0.000000 0.000000 -0.033158 -0.805474 -1.236982
    19 11.585358 0.000000 0.000001 0.000000 0.000000 -1.788771
    20 10.127058 0.000000 0.000001 1.693591 0.711311 -0.502314
    21 1.537458 0.109715 1.664489 -0.264662 -0.055995 0.783079
    22 0.928313 0.000000 0.000002 0.000000 0.000000 -0.453501
    23 0.928311 0.000000 0.000001 0.000000 0.000000 0.000000
    24 2.686395 -0.427337 0.044204 -0.005762 0.043239 -0.157074
    25 1.435260 0.000000 0.000001 0.000000 0.000000 0.732613
    26 1.482593 0.000000 -0.000001 0.000000 0.000000 1.168644
    27 2.046984 0.000001 0.000000 0.248416 0.170353 -1.373825
    28 -0.000005 0.000007 3.713254 -3.286041 -0.168830 1.247410
    29 18.045723 0.000000 0.000000 0.000000 0.000000 -1.744699
    30 17.597597 0.000000 0.000000 -0.247604 0.195709 -0.154376
    31 0.000005 -0.000003 -3.713254 0.824959 2.323236 5.517618
    32 18.045721 0.000000 0.000000 0.000000 0.000000 -2.672902
    33 17.597597 0.000000 0.000000 0.370910 0.046142 0.773892
  time 18
    0 0.051748 0.906429 -20.600716 0.000000 0.000000 -1.585458
    1 -1.539113 0.144536 0.000000 -1.570795 -1.570787 0.000000
    2 1.293670 0.684478 -0.000001 -0.000004 -0.000001 0.117182
    3 5.309685 -0.003834 0.000000 0.000068 -0.000431 0.077130
    4 4.826790 -0.004591 0.000000 -0.155399 0.024952 0.062252
    5 5.792767 -0.005304 0.000000 -0.138416 0.036841 0.197250
    6 6.662322 -0.001452 0.000000 0.000000 -0.000001 0.471000
    7 -3.108188 1.516823 4.339626 1.374338 -0.766068 -4.904773
    8 4.827512 0.000000 -0.000002 -0.204717 -0.292410 -0.737422
    9 11.140032 0.000000 0.000000 0.000000 0.000000 -1.543954
    10 10.314563 -0.000001 0.000001 -3.804388 -0.059201 -0.190376
    11 1.646836 0.445664 -1.699647 -0.161704 0.581044 -0.283978
    12 0.928312 0.000000 0.000000 0.000000 0.000000 0.000000
    13 0.928313 0.000000 -0.000001 0.000000 0.000000 0.000000
    14 2.979373 -0.388274 -0.044205 -0.001932 -0.043575 0.026189
    15 1.435262 -0.000001 -0.000001 0.000000 0.000000 0.784927
    16 1.482593 -0.000001 0.000001 0.000000 0.000000 0.540709
    17 -2.869899 1.399667 -4.140396 1.265154 0.977859 -2.406148
    18 4.972047 0.000000 0.000000 -0.045821 -0.802260 -1.228663
    19 11.585358 0.000000 0.000001 0.000000 0.000000 -1.788362
    20 10.127058 0.000000 0.000001 1.696045 0.711028 -0.497462
    21 1.537458 0.109715 1.664489 -0.264662 -0.055995 0.783079
    22 0.928313 0.000000 0.000002 0.000000 0.000000 -0.453501
    23 0.928311 0.000000 0.000001 0.000000 0.000000 0.000000
    24 2.686395 -0.427337 0.044204 -0.005762 0.043239 -0.157074
    25 1.435260 0.000000 0.000001 0.000000 0.000000 0.732613
    26 1.482593 0.000000 -0.000001 0.000000 0.000000 1.168644
    27 2.046984 0.000001 0.000000 0.248373 0.169999 -1.370844
    28 -0.000005 0.000007 3.713254 -3.286041 -0.168830 1.247410
    29 18.045723 0.000000 0.000000 0.000000 0.000000 -1.744773
    30 17.597597 0.000000 0.000000 -0.247604 0.195733 -0.154330
    31 0.000005 -0.000003 -3.713254 0.824959 2.323236 5.517714
    32 18.045721 0.000000 0.000000 0.000000 0.000000 -2.672902
    33 17.597597 0.000000 0.000000 0.370775 0.046221 0.773938
  time 19
    0 0.051748 0.906429 -20.600716 0.000000 0.000000 -1.585458
    1 -1.539113 0.144536 0.000000 -1.570795 -1.570787 0.000000
    2 1.293670 0.684478 -0.000001 -0.000004 -0.000001 0.117182
    3 5.309685 -0.003834 0.000000 0.000000 -0.000144 0.078226
    4 4.826790 -0.004591 0.000000 -0.155189 0.024664 0.060092
    5 5.792767 -0.005304 0.000000 -0.138434 0.036313 0.193928
    6 6.662322 -0.001452 0.000000 0.000000 -0.000001 0.471000
    7 -3.108188 1.516823 4.339626 1.374338 -0.766068 -4.904773
    8 4.827512 0.000000 -0.000002 -0.203840 -0.286526 -0.736383
    9 11.140032 0.000000 0.000000 0.000000 0.000000 -1.544316
    10 10.314563 -0.000001 0.000001 -3.802871 -0.059950 -0.191188
    11 1.646836 0.445664 -1.699647 -0.161704 0.581044 -0.283978
    12 0.928312 0.000000 0.000000 0.000000 0.000000 0.000000
    13 0.928313 0.000000 -0.000001 0.000000 0.000000 0.000000
    14 2.979373 -0.388274 -0.044205 -0.001932 -0.043575 0.026189
    15 1.435262 -0.000001 -0.000001 0.000000 0.000000 0.784927
    16 1.482593 -0.000001 0.000001 0.000000 0.000000 0.540709
    17 -2.869899 1.399667 -4.140396 1.262002 0.977175 -2.409979
    18 4.972047 0.000000 0.000000 -0.052575 -0.803706 -1.223005
    19 11.585358 0.000000 0.000001 0.000000 0.000000 -1.788362
    20 10.127058 0.000000 0.000001 1.696536 0.710839 -0.496562
    21 1.537458 0.109715 1.664489 -0.264662 -0.055995 0.783079
    22 0.928313 0.000000 0.000002 0.000000 0.000000 -0.453501
    23 0.928311 0.000000 0.000001 0.000000 0.000000 0.000000
    24 2.686395 -0.427337 0.044204 -0.005762 0.043239 -0.157074
    25 1.435260 0.000000 0.000001 0.000000 0.000000 0.732613
    26 1.482593 0.000000 -0.000001 0.000000 0.000000 1.168644
    27 2.046984 0.000001 0.000000 0.248373 0.169527 -1.366403
    28 -0.000005 0.000007 3.713254 -3.286041 -0.168926 1.247410
    29 18.045723 0.000000 0.000000 0.000000 0.000000 -1.745069
    30 17.597597 0.000000 0.000000 -0.247553 0.195733 -0.154147
    31 0.000005 -0.000003 -3.713254 0.824768 2.323332 5.518098
    32 18.045721 0.000000 0.000000 0.000000 0.000000 -2.672902
    33 17.597597 0.000000 0.000000 0.370507 0.046517 0.774122
  time 20
    0 0.051748 0.906429 -20.600716 0.000000 0.000000 -1.585458
    1 -1.531301 0.144536 0.000000 -1.570795 -1.570787 0.000000
    2 1.293670 0.684478 -0.000001 -0.000004 -0.000001 0.117182
    3 5.309685 -0.003834 0.000000 0.000000 0.000000 0.078738
    4 4.826790 -0.004591 0.000000 -0.155036 0.024532 0.059033
    5 5.792767 -0.005304 0.000000 -0.138452 0.036074 0.192267
    6 6.662322 -0.001452 0.000000 0.000000 -0.000001 0.471000
    7 -3.108188 1.516823 4.339626 1.374338 -0.766068 -4.904773
    8 4.827512 0.000000 -0.000002 -0.203123 -0.283371 -0.736383
    9 11.140032 0.000000 0.000000 0.000000 0.000000 -1.544895
    10 10.314563 -0.000001 0.000001 -3.801923 -0.060793 -0.190724
    11 1.646836 0.445664 -1.699647 -0.161704 0.581044 -0.283978
    12 0.928312 0.000000 0.000000 0.000000 0.000000 0.000000
    13 0.928313 0.000000 -0.000001 0.000000 0.000000 0.000000
    14 2.979373 -0.388274 -0.044205 -0.001932 -0.043575 0.026189
    15 1.435262 -0.000001 -0.000001 0.000000 0.000000 0.784927
    16 1.482593 -0.000001 0.000001 0.000000 0.000000 0.540709
    17 -2.869899 1.399667 -4.140396 1.265154 0.977859 -2.406148
    18 4.972047 0.000000 0.000000 -0.053513 -0.805715 -1.221475
    19 11.585358 0.000000 0.000001 0.000000 0.000000 -1.788362
    20 10.127058 0.000000 0.000001 1.696045 0.711028 -0.497462
    21 1.537458 0.109715 1.664489 -0.264662 -0.055995 0.783079
    22 0.928313 0.000000 0.000002 0.000000 0.000000 -0.453501
    23 0.928311 0.000000 0.000001 0.000000 0.000000 0.000000
    24 2.686395 -0.427337 0.044204 -0.005762 0.043239 -0.157074
    25 1.435260 0.000000 0.000001 0.000000 0.000000 0.732613
    26 1.482593 0.000000 -0.000001 0.000000 0.000000 1.168644
    27 2.046984 0.000001 0.000000 0.248373 0.169350 -1.364274
    28 -0.000005 0.000007 3.713254 -3.285561 -0.168351 1.247314
    29 18.045723 0.000000 0.000000 0.000000 0.000000 -1.745217
    30 17.597597 0.000000 0.000000 -0.247908 0.195093 -0.154101
    31 0.000005 -0.000003 -3.713254 0.823905 2.323907 5.517523
    32 18.045721 0.000000 0.000000 0.000000 0.000000 -2.672902
    33 17.597597 0.000000 0.000000 0.371010 0.047148 0.774307
end
