version 1
nodes
  0 "Bip01" -1
  1 "Bip01 Pelvis" 0
  2 "Bip01 Spine" 1
  3 "Bip01 Spine1" 2
  4 "Bip01 Spine2" 3
  5 "Bip01 Spine3" 4
  6 "Bip01 Neck" 5
  7 "Bip01 L Arm" 6
  8 "Bip01 L Arm1" 7
  9 "Bip01 L Arm2" 8
  10 "Bip01 L Hand" 9
  11 "Bip01 L Finger0" 10
  12 "Bip01 L Finger01" 11
  13 "Bip01 L Finger02" 12
  14 "Bip01 L Finger1" 10
  15 "Bip01 L Finger11" 14
  16 "Bip01 L Finger12" 15
  17 "Bip01 R Arm" 6
  18 "Bip01 R Arm1" 17
  19 "Bip01 R Arm2" 18
  20 "Bip01 R Hand" 19
  21 "Bip01 R Finger0" 20
  22 "Bip01 R Finger01" 21
  23 "Bip01 R Finger02" 22
  24 "Bip01 R Finger1" 20
  25 "Bip01 R Finger11" 24
  26 "Bip01 R Finger12" 25
  27 "Bip01 Head" 6
  28 "Bip01 L Leg" 1
  29 "Bip01 L Leg1" 28
  30 "Bip01 L Foot" 29
  31 "Bip01 R Leg" 1
  32 "Bip01 R Leg1" 31
  33 "Bip01 R Foot" 32
end
skeleton
  time 0
    0 -0.659211 2.640857 -20.600716 0.000000 0.000000 -1.585458
    1 -0.000004 0.000000 0.000000 -1.570795 -1.570787 0.000000
    2 1.293670 0.684478 -0.000001 -0.003744 -0.042331 0.123008
    3 5.309685 -0.003834 0.000000 0.055374 0.008521 0.069606
    4 4.826790 -0.004591 0.000000 -0.062068 0.005669 0.166298
    5 5.792767 -0.005304 0.000000 0.080387 0.008833 0.344541
    6 6.662322 -0.001452 0.000000 0.000000 -0.000001 0.095957
    7 -3.444135 0.282410 4.339626 -0.257753 -1.364193 -2.985821
    8 4.827512 0.000000 -0.000002 0.208775 0.536621 -1.254205
    9 11.140032 0.000000 0.000000 0.000000 0.000000 -1.756387
    10 10.314563 -0.000001 0.000001 -1.091132 -0.249637 0.038684
    11 1.646836 0.445664 -1.699647 0.400567 0.460373 0.766655
    12 0.928312 0.000000 0.000000 0.000000 0.000000 -0.636658
    13 0.928313 0.000000 -0.000001 0.000000 0.000000 0.000000
    14 2.979373 -0.388274 -0.044205 -0.009075 -0.042664 0.191865
    15 1.435262 -0.000001 -0.000001 0.000000 0.000000 0.391834
    16 1.482593 -0.000001 0.000001 0.000000 0.000000 0.357089
    17 -3.182409 0.251194 -4.140396 -1.183900 1.077657 -4.375964
    18 4.972047 0.000000 0.000000 -0.529634 -0.531000 -0.723907
    19 11.585358 0.000000 0.000001 0.000000 0.000000 -1.865958
    20 10.127058 0.000000 0.000001 1.537144 -0.014847 -0.019606
    21 1.537458 0.109715 1.664489 -0.264662 -0.055995 0.783079
    22 0.928313 0.000000 0.000002 0.000000 0.000000 -0.453501
    23 0.928311 0.000000 0.000001 0.000000 0.000000 0.000000
    24 2.686395 -0.427337 0.044204 -0.005762 0.043239 -0.157074
    25 1.435260 0.000000 0.000001 0.000000 0.000000 0.732613
    26 1.482593 0.000000 -0.000001 0.000000 0.000000 1.168644
    27 2.046984 0.000001 0.000000 -0.053035 -0.001092 -0.459326
    28 -0.000005 0.000007 3.713254 -3.289300 -0.165475 1.249615
    29 18.045723 0.000000 0.000000 0.000000 0.000000 -1.732931
    30 17.597597 0.000000 0.000000 -0.251405 0.197505 -0.164508
    31 0.000005 -0.000003 -3.713254 0.821892 2.312307 5.493555
    32 18.045721 0.000000 0.000000 0.000000 0.000000 -2.673768
    33 17.597597 0.000000 0.000000 0.379969 0.033854 0.755924
  time 1
    0 -0.659211 2.640857 -20.600716 0.000000 0.000000 -1.585458
    1 -0.000004 0.000000 0.000000 -1.570795 -1.570787 0.000000
    2 1.293670 0.684478 -0.000001 -0.003390 -0.039275 0.151886
    3 5.309685 -0.003834 0.000000 0.061772 0.009540 0.136039
    4 4.826790 -0.004591 0.000000 -0.132052 0.005825 0.123899
    5 5.792767 -0.005304 0.000000 0.009677 0.014214 0.370806
    6 6.662322 -0.001452 0.000000 0.000000 -0.000001 0.220990
    7 -3.381633 0.708205 4.339626 -0.257753 -1.364193 -3.110864
    8 4.827512 0.000000 -0.000002 0.435490 0.196293 -0.687512
    9 11.140032 0.000000 0.000000 0.000000 0.000000 -2.068299
    10 10.314563 -0.000001 0.000001 -1.141079 -0.208421 0.010001
    11 1.646836 0.445664 -1.699647 0.400567 0.460373 0.766655
    12 0.928312 0.000000 0.000000 0.000000 0.000000 -0.636658
    13 0.928313 0.000000 -0.000001 0.000000 0.000000 0.000000
    14 2.979373 -0.388274 -0.044205 -0.010537 -0.042353 0.226389
    15 1.435262 -0.000001 -0.000001 0.000000 0.000000 0.521054
    16 1.482593 -0.000001 0.000001 0.000000 0.000000 0.443316
    17 -3.119907 0.649644 -4.140396 -1.074994 1.168017 -4.402495
    18 4.972047 0.000000 0.000000 -0.766288 -0.401155 -0.167504
    19 11.585358 0.000000 0.000001 0.000000 0.000000 -2.195128
    20 10.127058 0.000000 0.000001 1.537144 -0.014847 -0.019606
    21 1.537458 0.109715 1.664489 -0.264662 -0.055995 0.783079
    22 0.928313 0.000000 0.000002 0.000000 0.000000 -0.453501
    23 0.928311 0.000000 0.000001 0.000000 0.000000 0.000000
    24 2.686395 -0.427337 0.044204 -0.005762 0.043239 -0.157074
    25 1.435260 0.000000 0.000001 0.000000 0.000000 0.732613
    26 1.482593 0.000000 -0.000001 0.000000 0.000000 1.168644
    27 2.046984 0.000001 0.000000 0.079790 0.005547 -0.501359
    28 -0.000005 0.000007 3.713254 -3.289300 -0.165475 1.249615
    29 18.045723 0.000000 0.000000 0.000000 0.000000 -1.732931
    30 17.597597 0.000000 0.000000 -0.251405 0.197505 -0.164508
    31 0.000005 -0.000003 -3.713254 0.821892 2.312307 5.493555
    32 18.045721 0.000000 0.000000 0.000000 0.000000 -2.673768
    33 17.597597 0.000000 0.000000 0.379969 0.033854 0.755924
  time 2
    0 -0.659211 2.640857 -20.600716 0.000000 0.000000 -1.585458
    1 -0.000004 0.000000 0.000000 -1.570795 -1.570787 0.000000
    2 1.293670 0.684478 -0.000001 -0.002884 -0.036254 0.180781
    3 5.309685 -0.003834 0.000000 0.068426 0.010594 0.187917
    4 4.826790 -0.004591 0.000000 -0.157669 0.008629 0.102645
    5 5.792767 -0.005304 0.000000 -0.031335 0.020709 0.382620
    6 6.662322 -0.001452 0.000000 0.000000 -0.000001 0.345995
    7 -3.268349 1.122280 4.339626 -0.257753 -1.364193 -3.235811
    8 4.827512 0.000000 -0.000002 0.501814 -0.165523 -0.233637
    9 11.140032 0.000000 0.000000 0.000000 0.000000 -2.380283
    10 10.314563 -0.000001 0.000001 -1.191689 -0.168704 -0.020482
    11 1.646836 0.445664 -1.699647 0.400567 0.460373 0.766655
    12 0.928312 0.000000 0.000000 0.000000 0.000000 -0.636658
    13 0.928313 0.000000 -0.000001 0.000000 0.000000 0.000000
    14 2.979373 -0.388274 -0.044205 -0.012011 -0.041933 0.260827
    15 1.435262 -0.000001 -0.000001 0.000000 0.000000 0.650357
    16 1.482593 -0.000001 0.000001 0.000000 0.000000 0.529490
    17 -3.018341 1.032468 -4.140396 -0.909915 1.251805 -4.373090
    18 4.972047 0.000000 0.000000 -0.741337 -0.299513 0.206737
    19 11.585358 0.000000 0.000001 0.000000 0.000000 -2.407087
    20 10.127058 0.000000 0.000001 1.537144 -0.014847 -0.019606
    21 1.537458 0.109715 1.664489 -0.264662 -0.055995 0.783079
    22 0.928313 0.000000 0.000002 0.000000 0.000000 -0.453501
    23 0.928311 0.000000 0.000001 0.000000 0.000000 0.000000
    24 2.686395 -0.427337 0.044204 -0.005762 0.043239 -0.157074
    25 1.435260 0.000000 0.000001 0.000000 0.000000 0.732613
    26 1.482593 0.000000 -0.000001 0.000000 0.000000 1.168644
    27 2.046984 0.000001 0.000000 0.138727 -0.012067 -0.539620
    28 -0.000005 0.000007 3.713254 -3.289300 -0.165475 1.249615
    29 18.045723 0.000000 0.000000 0.000000 0.000000 -1.732931
    30 17.597597 0.000000 0.000000 -0.251405 0.197505 -0.164508
    31 0.000005 -0.000003 -3.713254 0.821892 2.312307 5.493555
    32 18.045721 0.000000 0.000000 0.000000 0.000000 -2.673768
    33 17.597597 0.000000 0.000000 0.379969 0.033854 0.755924
  time 3
    0 -0.659211 2.640857 -20.600716 0.000000 0.000000 -1.585458
    1 -0.000004 0.000000 0.000000 -1.570795 -1.570787 0.000000
    2 1.293670 0.684478 -0.000001 -0.002295 -0.033306 0.209676
    3 5.309685 -0.003834 0.000000 0.075352 0.012464 0.211657
    4 4.826790 -0.004591 0.000000 -0.097222 0.020482 0.122621
    5 5.792767 -0.005304 0.000000 -0.015236 0.026666 0.366965
    6 6.662322 -0.001452 0.000000 0.000000 -0.000001 0.471000
    7 -3.108188 1.516823 4.339626 -0.257753 -1.364193 -3.360853
    8 4.827512 0.000000 -0.000002 0.463231 -0.281580 -0.007393
    9 11.140032 0.000000 0.000000 0.000000 0.000000 -2.448099
    10 10.314563 -0.000001 0.000001 -1.262866 -0.116716 -0.065365
    11 1.646836 0.445664 -1.699647 0.400567 0.460373 0.766655
    12 0.928312 0.000000 0.000000 0.000000 0.000000 -0.636658
    13 0.928313 0.000000 -0.000001 0.000000 0.000000 0.000000
    14 2.979373 -0.388274 -0.044205 -0.013964 -0.041346 0.308337
    15 1.435262 -0.000001 -0.000001 0.000000 0.000000 0.828139
    16 1.482593 -0.000001 0.000001 0.000000 0.000000 0.647986
    17 -2.869899 1.399667 -4.140396 -0.645100 1.322342 -4.243596
    18 4.972047 0.000000 0.000000 -0.454220 -0.508904 0.178717
    19 11.585358 0.000000 0.000001 0.000000 0.000000 -2.300168
    20 10.127058 0.000000 0.000001 1.537144 -0.014847 -0.019606
    21 1.537458 0.109715 1.664489 -0.264662 -0.055995 0.783079
    22 0.928313 0.000000 0.000002 0.000000 0.000000 -0.453501
    23 0.928311 0.000000 0.000001 0.000000 0.000000 0.000000
    24 2.686395 -0.427337 0.044204 -0.005762 0.043239 -0.157074
    25 1.435260 0.000000 0.000001 0.000000 0.000000 0.732613
    26 1.482593 0.000000 -0.000001 0.000000 0.000000 1.168644
    27 2.046984 0.000001 0.000000 0.052303 -0.027468 -0.563708
    28 -0.000005 0.000007 3.713254 -3.289300 -0.165475 1.249615
    29 18.045723 0.000000 0.000000 0.000000 0.000000 -1.732931
    30 17.597597 0.000000 0.000000 -0.251405 0.197505 -0.164508
    31 0.000005 -0.000003 -3.713254 0.821892 2.312307 5.493555
    32 18.045721 0.000000 0.000000 0.000000 0.000000 -2.673768
    33 17.597597 0.000000 0.000000 0.379969 0.033854 0.755924
  time 4
    0 -0.659211 2.640857 -20.600716 0.000000 0.000000 -1.585458
    1 -0.000004 0.000000 0.000000 -1.570795 -1.570787 0.000000
    2 1.293670 0.684478 -0.000001 -0.001537 -0.030418 0.238571
    3 5.309685 -0.003834 0.000000 0.082380 0.014513 0.226317
    4 4.826790 -0.004591 0.000000 -0.008622 0.032730 0.157016
    5 5.792767 -0.005304 0.000000 0.019139 0.033042 0.342797
    6 6.662322 -0.001452 0.000000 0.000000 -0.000001 0.471000
    7 -3.108188 1.516823 4.339626 -0.257753 -1.364193 -3.360853
    8 4.827512 0.000000 -0.000002 0.431504 0.008180 -0.044392
    9 11.140032 0.000000 0.000000 0.000000 0.000000 -2.109452
    10 10.314563 -0.000001 0.000001 -1.369869 -0.047117 -0.136551
    11 1.646836 0.445664 -1.699647 0.400567 0.460373 0.766655
    12 0.928312 0.000000 0.000000 0.000000 0.000000 -0.636658
    13 0.928313 0.000000 -0.000001 0.000000 0.000000 0.000000
    14 2.979373 -0.388274 -0.044205 -0.016781 -0.040255 0.377300
    15 1.435262 -0.000001 -0.000001 0.000000 0.000000 1.086704
    16 1.482593 -0.000001 0.000001 0.000000 0.000000 0.820386
    17 -2.869899 1.399667 -4.140396 -0.230588 1.365537 -3.839307
    18 4.972047 0.000000 0.000000 0.031844 -0.741516 -0.161048
    19 11.585358 0.000000 0.000001 0.000000 0.000000 -2.010368
    20 10.127058 0.000000 0.000001 1.537144 -0.014847 -0.019606
    21 1.537458 0.109715 1.664489 -0.264662 -0.055995 0.783079
    22 0.928313 0.000000 0.000002 0.000000 0.000000 -0.453501
    23 0.928311 0.000000 0.000001 0.000000 0.000000 0.000000
    24 2.686395 -0.427337 0.044204 -0.005762 0.043239 -0.157074
    25 1.435260 0.000000 0.000001 0.000000 0.000000 0.732613
    26 1.482593 0.000000 -0.000001 0.000000 0.000000 1.168644
    27 2.046984 0.000001 0.000000 -0.076343 -0.029710 -0.617420
    28 -0.000005 0.000007 3.713254 -3.289300 -0.165475 1.249615
    29 18.045723 0.000000 0.000000 0.000000 0.000000 -1.732931
    30 17.597597 0.000000 0.000000 -0.251405 0.197505 -0.164508
    31 0.000005 -0.000003 -3.713254 0.821892 2.312307 5.493555
    32 18.045721 0.000000 0.000000 0.000000 0.000000 -2.673768
    33 17.597597 0.000000 0.000000 0.379969 0.033854 0.755924
  time 5
    0 -0.659211 2.640857 -20.600716 0.000000 0.000000 -1.585458
    1 -0.000004 0.000000 0.000000 -1.570795 -1.570787 0.000000
    2 1.293670 0.684478 -0.000001 -0.000695 -0.027530 0.267466
    3 5.309685 -0.003834 0.000000 0.089476 0.016683 0.237375
    4 4.826790 -0.004591 0.000000 0.091595 0.041946 0.197915
    5 5.792767 -0.005304 0.000000 0.060745 0.040508 0.315390
    6 6.662322 -0.001452 0.000000 0.000000 -0.000001 0.471000
    7 -3.108188 1.516823 4.339626 -0.257753 -1.364193 -3.360853
    8 4.827512 0.000000 -0.000002 0.394117 0.534574 -0.267864
    9 11.140032 0.000000 0.000000 0.000000 0.000000 -1.526855
    10 10.314563 -0.000001 0.000001 -1.502840 0.024636 -0.230207
    11 1.646836 0.445664 -1.699647 0.400567 0.460373 0.766655
    12 0.928312 0.000000 0.000000 0.000000 0.000000 -0.636658
    13 0.928313 0.000000 -0.000001 0.000000 0.000000 0.000000
    14 2.979373 -0.388274 -0.044205 -0.020017 -0.038745 0.459204
    15 1.435262 -0.000001 -0.000001 0.000000 0.000000 1.393748
    16 1.482593 -0.000001 0.000001 0.000000 0.000000 1.025056
    17 -2.869899 1.399667 -4.140396 0.271050 1.363434 -3.347763
    18 4.972047 0.000000 0.000000 0.628872 -0.837292 -0.619282
    19 11.585358 0.000000 0.000001 0.000000 0.000000 -1.582366
    20 10.127058 0.000000 0.000001 1.537144 -0.014847 -0.019606
    21 1.537458 0.109715 1.664489 -0.264662 -0.055995 0.783079
    22 0.928313 0.000000 0.000002 0.000000 0.000000 -0.453501
    23 0.928311 0.000000 0.000001 0.000000 0.000000 0.000000
    24 2.686395 -0.427337 0.044204 -0.005762 0.043239 -0.157074
    25 1.435260 0.000000 0.000001 0.000000 0.000000 0.732613
    26 1.482593 0.000000 -0.000001 0.000000 0.000000 1.168644
    27 2.046984 0.000001 0.000000 -0.222523 -0.047973 -0.668577
    28 -0.000005 0.000007 3.713254 -3.289300 -0.165475 1.249615
    29 18.045723 0.000000 0.000000 0.000000 0.000000 -1.732931
    30 17.597597 0.000000 0.000000 -0.251405 0.197505 -0.164508
    31 0.000005 -0.000003 -3.713254 0.821892 2.312307 5.493555
    32 18.045721 0.000000 0.000000 0.000000 0.000000 -2.673768
    33 17.597597 0.000000 0.000000 0.379969 0.033854 0.755924
  time 6
    0 -0.659211 2.640857 -20.600716 0.000000 0.000000 -1.585458
    1 -0.000004 0.000000 0.000000 -1.570795 -1.570787 0.000000
    2 1.293670 0.684478 -0.000001 0.000215 -0.024653 0.296361
    3 5.309685 -0.003834 0.000000 0.096606 0.018624 0.250287
    4 4.826790 -0.004591 0.000000 0.186509 0.047267 0.236787
    5 5.792767 -0.005304 0.000000 0.098465 0.048861 0.289997
    6 6.662322 -0.001452 0.000000 0.000000 -0.000001 0.471000
    7 -3.108188 1.516823 4.339626 -0.257753 -1.364193 -3.360853
    8 4.827512 0.000000 -0.000002 0.244010 1.057046 -0.600082
    9 11.140032 0.000000 0.000000 0.000000 0.000000 -0.944185
    10 10.314563 -0.000001 0.000001 -1.642256 0.083181 -0.332921
    11 1.646836 0.445664 -1.699647 0.400567 0.460373 0.766655
    12 0.928312 0.000000 0.000000 0.000000 0.000000 -0.636658
    13 0.928313 0.000000 -0.000001 0.000000 0.000000 0.000000
    14 2.979373 -0.388274 -0.044205 -0.023121 -0.037007 0.541151
    15 1.435262 -0.000001 -0.000001 0.000000 0.000000 1.700791
    16 1.482593 -0.000001 0.000001 0.000000 0.000000 1.229725
    17 -2.869899 1.399667 -4.140396 0.672666 1.317189 -2.956405
    18 4.972047 0.000000 0.000000 1.207796 -0.711465 -1.102806
    19 11.585358 0.000000 0.000001 0.000000 0.000000 -1.088856
    20 10.127058 0.000000 0.000001 1.537144 -0.014847 -0.019606
    21 1.537458 0.109715 1.664489 -0.264662 -0.055995 0.783079
    22 0.928313 0.000000 0.000002 0.000000 0.000000 -0.453501
    23 0.928311 0.000000 0.000001 0.000000 0.000000 0.000000
    24 2.686395 -0.427337 0.044204 -0.005762 0.043239 -0.157074
    25 1.435260 0.000000 0.000001 0.000000 0.000000 0.732613
    26 1.482593 0.000000 -0.000001 0.000000 0.000000 1.168644
    27 2.046984 0.000001 0.000000 -0.357459 -0.082610 -0.717118
    28 -0.000005 0.000007 3.713254 -3.289300 -0.165475 1.249615
    29 18.045723 0.000000 0.000000 0.000000 0.000000 -1.732931
    30 17.597597 0.000000 0.000000 -0.251405 0.197505 -0.164508
    31 0.000005 -0.000003 -3.713254 0.821892 2.312307 5.493555
    32 18.045721 0.000000 0.000000 0.000000 0.000000 -2.673768
    33 17.597597 0.000000 0.000000 0.379969 0.033854 0.755924
end
