version 1
nodes
  0 "Bip01" -1
  1 "Bip01 Pelvis" 0
  2 "Bip01 Spine" 1
  3 "Bip01 Spine1" 2
  4 "Bip01 Spine2" 3
  5 "Bip01 Spine3" 4
  6 "Bip01 Neck" 5
  7 "Bip01 L Arm" 6
  8 "Bip01 L Arm1" 7
  9 "Bip01 L Arm2" 8
  10 "Bip01 L Hand" 9
  11 "Bip01 L Finger0" 10
  12 "Bip01 L Finger01" 11
  13 "Bip01 L Finger02" 12
  14 "Bip01 L Finger1" 10
  15 "Bip01 L Finger11" 14
  16 "Bip01 L Finger12" 15
  17 "Bip01 R Arm" 6
  18 "Bip01 R Arm1" 17
  19 "Bip01 R Arm2" 18
  20 "Bip01 R Hand" 19
  21 "Bip01 R Finger0" 20
  22 "Bip01 R Finger01" 21
  23 "Bip01 R Finger02" 22
  24 "Bip01 R Finger1" 20
  25 "Bip01 R Finger11" 24
  26 "Bip01 R Finger12" 25
  27 "Bip01 Head" 6
  28 "Bip01 L Leg" 1
  29 "Bip01 L Leg1" 28
  30 "Bip01 L Foot" 29
  31 "Bip01 R Leg" 1
  32 "Bip01 R Leg1" 31
  33 "Bip01 R Foot" 32
end
skeleton
  time 0
    0 -0.338889 2.789299 -20.600716 0.000000 0.000000 -1.585458
    1 0.148438 -0.312510 0.000000 -1.570795 -1.570787 0.000000
    2 1.293670 0.684478 -0.000001 0.000282 0.059910 0.010424
    3 5.309685 -0.003834 0.000000 -0.073735 -0.061805 -0.006012
    4 4.826790 -0.004591 0.000000 -0.424595 -0.136984 0.019016
    5 5.792767 -0.005304 0.000000 -0.403411 -0.109575 0.026580
    6 6.662322 -0.001452 0.000000 0.000072 0.095988 0.471000
    7 -3.506637 1.516823 4.031023 1.069046 -1.466561 -4.689949
    8 4.827512 0.000000 -0.000002 0.746466 0.815295 0.062967
    9 11.140032 0.000000 0.000000 0.000000 0.000000 -1.359342
    10 10.314563 -0.000001 0.000001 -2.374592 -0.055454 -0.193801
    11 1.646836 0.445664 -1.699647 0.993049 1.047208 -0.378175
    12 0.928312 0.000000 0.000000 0.000000 0.000000 1.029733
    13 0.928313 0.000000 -0.000001 0.000000 0.000000 0.410081
    14 2.979373 -0.388274 -0.044205 -0.270039 -0.127227 0.519437
    15 1.435262 -0.000001 -0.000001 0.000000 0.000000 0.767708
    16 1.482593 -0.000001 0.000001 0.000000 0.000000 0.495031
    17 -2.471449 1.399667 -4.390404 1.479910 1.231798 -2.170816
    18 4.972047 0.000000 0.000000 -1.688421 -0.784181 -0.330897
    19 11.585358 0.000000 0.000001 0.000000 0.000000 -1.711501
    20 10.127058 0.000000 0.000001 1.993581 -0.773535 -0.408824
    21 1.537458 0.109715 1.664489 -3.078535 -0.186288 0.914916
    22 0.928313 0.000000 0.000002 0.000000 0.000000 0.061034
    23 0.928311 0.000000 0.000001 0.000000 0.000000 0.671897
    24 2.686395 -0.427337 0.044204 0.006330 0.043192 0.122300
    25 1.435260 0.000000 0.000001 0.000000 0.000000 1.186618
    26 1.482593 0.000000 -0.000001 0.000000 0.000000 1.404984
    27 2.046984 0.000001 0.000000 -0.353668 -0.160086 0.325912
    28 -0.000005 0.000007 3.713254 -3.289300 -0.165475 1.249615
    29 18.045723 0.000000 0.000000 0.000000 0.000000 -1.732931
    30 17.597597 0.000000 0.000000 -0.251405 0.197505 -0.164508
    31 0.000005 -0.000003 -3.713254 0.821892 2.312307 5.493555
    32 18.045721 0.000000 0.000000 0.000000 0.000000 -2.673768
    33 17.597597 0.000000 0.000000 0.379969 0.033854 0.755924
  time 1
    0 -0.436548 2.832269 -20.600716 0.000000 0.000000 -1.585458
    1 0.148438 -0.312510 0.000000 -1.570795 -1.570787 0.000000
    2 1.293670 0.684478 -0.000001 -0.025877 0.055068 0.015145
    3 5.309685 -0.003834 0.000000 -0.081325 -0.071884 0.009549
    4 4.826790 -0.004591 0.000000 -0.351121 -0.122495 0.042497
    5 5.792767 -0.005304 0.000000 -0.286491 -0.129937 0.067192
    6 6.662322 -0.001452 0.000000 0.000060 0.086367 0.471000
    7 -3.467574 1.516823 4.062274 0.977602 -1.426199 -4.597005
    8 4.827512 0.000000 -0.000002 0.585198 0.652508 -0.021170
    9 11.140032 0.000000 0.000000 0.000000 0.000000 -1.509973
    10 10.314563 -0.000001 0.000001 -2.458375 -0.006744 -0.057759
    11 1.646836 0.445664 -1.699647 1.042493 0.878215 -0.128944
    12 0.928312 0.000000 0.000000 0.000000 0.000000 0.796737
    13 0.928313 0.000000 -0.000001 0.000000 0.000000 0.369134
    14 2.979373 -0.388274 -0.044205 -0.244392 -0.119629 0.508363
    15 1.435262 -0.000001 -0.000001 0.000000 0.000000 0.814808
    16 1.482593 -0.000001 0.000001 0.000000 0.000000 0.567635
    17 -2.506607 1.399667 -4.370872 1.278051 1.348291 -2.360556
    18 4.972047 0.000000 0.000000 -1.372508 -0.429197 -0.530963
    19 11.585358 0.000000 0.000001 0.000000 0.000000 -1.954009
    20 10.127058 0.000000 0.000001 1.733702 -0.762660 0.016959
    21 1.537458 0.109715 1.664489 -2.818899 -0.255053 0.927230
    22 0.928313 0.000000 0.000002 0.000000 0.000000 0.054966
    23 0.928311 0.000000 0.000001 0.000000 0.000000 0.604703
    24 2.686395 -0.427337 0.044204 0.005827 0.043239 0.110092
    25 1.435260 0.000000 0.000001 0.000000 0.000000 1.144728
    26 1.482593 0.000000 -0.000001 0.000000 0.000000 1.386634
    27 2.046984 0.000001 0.000000 -0.059239 -0.012834 0.226214
    28 -0.000005 0.000007 3.713254 -3.286712 -0.166242 1.249231
    29 18.045723 0.000000 0.000000 0.000000 0.000000 -1.731894
    30 17.597597 0.000000 0.000000 -0.249859 0.195241 -0.165654
    31 0.000005 -0.000003 -3.713254 0.830710 2.316908 5.498540
    32 18.045721 0.000000 0.000000 0.000000 0.000000 -2.672744
    33 17.597597 0.000000 0.000000 0.382216 0.029219 0.760589
  time 2
    0 -0.510769 2.851801 -20.600716 0.000000 0.000000 -1.585458
    1 0.148438 -0.312510 0.000000 -1.570795 -1.570787 0.000000
    2 1.293670 0.684478 -0.000001 -0.052172 0.049615 0.019916
    3 5.309685 -0.003834 0.000000 -0.089016 -0.081064 0.025182
    4 4.826790 -0.004591 0.000000 -0.279802 -0.107490 0.066442
    5 5.792767 -0.005304 0.000000 -0.172844 -0.147063 0.104108
    6 6.662322 -0.001452 0.000000 0.000060 0.076773 0.471000
    7 -3.424603 1.516823 4.093524 0.927471 -1.385216 -4.543922
    8 4.827512 0.000000 -0.000002 0.408785 0.536024 -0.124024
    9 11.140032 0.000000 0.000000 0.000000 0.000000 -1.652416
    10 10.314563 -0.000001 0.000001 -2.529457 0.059669 0.073406
    11 1.646836 0.445664 -1.699647 1.028232 0.707191 0.069470
    12 0.928312 0.000000 0.000000 0.000000 0.000000 0.563740
    13 0.928313 0.000000 -0.000001 0.000000 0.000000 0.328111
    14 2.979373 -0.388274 -0.044205 -0.218853 -0.111755 0.497507
    15 1.435262 -0.000001 -0.000001 0.000000 0.000000 0.861949
    16 1.482593 -0.000001 0.000001 0.000000 0.000000 0.640239
    17 -2.549577 1.399667 -4.347434 0.740780 1.440123 -2.884091
    18 4.972047 0.000000 0.000000 -1.210049 0.030080 -0.572626
    19 11.585358 0.000000 0.000001 0.000000 0.000000 -2.221265
    20 10.127058 0.000000 0.000001 1.504957 -0.673202 0.401275
    21 1.537458 0.109715 1.664489 -2.554572 -0.324553 0.920795
    22 0.928313 0.000000 0.000002 0.000000 0.000000 0.048854
    23 0.928311 0.000000 0.000001 0.000000 0.000000 0.537508
    24 2.686395 -0.427337 0.044204 0.005288 0.043311 0.097855
    25 1.435260 0.000000 0.000001 0.000000 0.000000 1.102804
    26 1.482593 0.000000 -0.000001 0.000000 0.000000 1.368335
    27 2.046984 0.000001 0.000000 0.201757 0.077034 0.096953
    28 -0.000005 0.000007 3.713254 -3.284890 -0.166817 1.248848
    29 18.045723 0.000000 0.000000 0.000000 0.000000 -1.732709
    30 17.597597 0.000000 0.000000 -0.248845 0.193789 -0.165104
    31 0.000005 -0.000003 -3.713254 0.835789 2.319497 5.504293
    32 18.045721 0.000000 0.000000 0.000000 0.000000 -2.672193
    33 17.597597 0.000000 0.000000 0.381545 0.027917 0.764654
  time 3
    0 -0.499050 2.812737 -20.600716 0.000000 0.000000 -1.585458
    1 0.148438 -0.312510 0.000000 -1.570795 -1.570787 0.000000
    2 1.293670 0.684478 -0.000001 -0.078517 0.041741 0.024704
    3 5.309685 -0.003834 0.000000 -0.096640 -0.087559 0.040673
    4 4.826790 -0.004591 0.000000 -0.210886 -0.080393 0.086792
    5 5.792767 -0.005304 0.000000 -0.055294 -0.139225 0.131577
    6 6.662322 -0.001452 0.000000 0.000048 0.067166 0.471000
    7 -3.385540 1.516823 4.124775 0.896702 -1.344027 -4.509044
    8 4.827512 0.000000 -0.000002 0.211724 0.493984 -0.248627
    9 11.140032 0.000000 0.000000 0.000000 0.000000 -1.762545
    10 10.314563 -0.000001 0.000001 -2.585470 0.141164 0.199926
    11 1.646836 0.445664 -1.699647 0.976818 0.541114 0.247794
    12 0.928312 0.000000 0.000000 0.000000 0.000000 0.330700
    13 0.928313 0.000000 -0.000001 0.000000 0.000000 0.287011
    14 2.979373 -0.388274 -0.044205 -0.193410 -0.103630 0.486823
    15 1.435262 -0.000001 -0.000001 0.000000 0.000000 0.909048
    16 1.482593 -0.000001 0.000001 0.000000 0.000000 0.712843
    17 -2.596453 1.399667 -4.316183 -0.171262 1.440097 -3.782893
    18 4.972047 0.000000 0.000000 -1.096365 0.445407 -0.505605
    19 11.585358 0.000000 0.000001 0.000000 0.000000 -2.425547
    20 10.127058 0.000000 0.000001 1.370179 -0.526628 0.685597
    21 1.537458 0.109715 1.664489 -2.282968 -0.389975 0.894780
    22 0.928313 0.000000 0.000002 0.000000 0.000000 0.042742
    23 0.928311 0.000000 0.000001 0.000000 0.000000 0.470313
    24 2.686395 -0.427337 0.044204 0.004736 0.043371 0.085619
    25 1.435260 0.000000 0.000001 0.000000 0.000000 1.060914
    26 1.482593 0.000000 -0.000001 0.000000 0.000000 1.349985
    27 2.046984 0.000001 0.000000 0.211322 0.103587 -0.101957
    28 -0.000005 0.000007 3.713254 -3.286616 -0.166529 1.248560
    29 18.045723 0.000000 0.000000 0.000000 0.000000 -1.736705
    30 17.597597 0.000000 0.000000 -0.249732 0.195290 -0.161391
    31 0.000005 -0.000003 -3.713254 0.829943 2.316333 5.507360
    32 18.045721 0.000000 0.000000 0.000000 0.000000 -2.672981
    33 17.597597 0.000000 0.000000 0.375305 0.034564 0.764331
  time 4
    0 -0.444361 2.769767 -20.600716 0.000000 0.000000 -1.585458
    1 0.148438 -0.312510 0.000000 -1.570795 -1.570787 0.000000
    2 1.293670 0.684478 -0.000001 -0.104929 0.033760 0.029559
    3 5.309685 -0.003834 0.000000 -0.104332 -0.093708 0.056270
    4 4.826790 -0.004591 0.000000 -0.149314 -0.052361 0.108113
    5 5.792767 -0.005304 0.000000 0.048657 -0.120134 0.158839
    6 6.662322 -0.001452 0.000000 0.000036 0.057587 0.471000
    7 -3.350382 1.516823 4.156026 0.876764 -1.302778 -4.483556
    8 4.827512 0.000000 -0.000002 -0.051501 0.566722 -0.442551
    9 11.140032 0.000000 0.000000 0.000000 0.000000 -1.726246
    10 10.314563 -0.000001 0.000001 -2.624517 0.234555 0.323020
    11 1.646836 0.445664 -1.699647 0.898384 0.384931 0.421161
    12 0.928312 0.000000 0.000000 0.000000 0.000000 0.097703
    13 0.928313 0.000000 -0.000001 0.000000 0.000000 0.246064
    14 2.979373 -0.388274 -0.044205 -0.168110 -0.095217 0.476401
    15 1.435262 -0.000001 -0.000001 0.000000 0.000000 0.956105
    16 1.482593 -0.000001 0.000001 0.000000 0.000000 0.785393
    17 -2.631611 1.399667 -4.296651 -0.305294 1.391249 -3.912004
    18 4.972047 0.000000 0.000000 -0.548112 0.374619 -0.179950
    19 11.585358 0.000000 0.000001 0.000000 0.000000 -2.434368
    20 10.127058 0.000000 0.000001 1.462603 -0.370124 0.667890
    21 1.537458 0.109715 1.664489 -2.002271 -0.446231 0.849646
    22 0.928313 0.000000 0.000002 0.000000 0.000000 0.036608
    23 0.928311 0.000000 0.000001 0.000000 0.000000 0.403143
    24 2.686395 -0.427337 0.044204 0.004233 0.043419 0.073410
    25 1.435260 0.000000 0.000001 0.000000 0.000000 1.019024
    26 1.482593 0.000000 -0.000001 0.000000 0.000000 1.331635
    27 2.046984 0.000001 0.000000 0.209383 0.052546 -0.304943
    28 -0.000005 0.000007 3.713254 -3.290067 -0.165667 1.248560
    29 18.045723 0.000000 0.000000 0.000000 0.000000 -1.741146
    30 17.597597 0.000000 0.000000 -0.251684 0.198342 -0.157264
    31 0.000005 -0.000003 -3.713254 0.817675 2.310102 5.506402
    32 18.045721 0.000000 0.000000 0.000000 0.000000 -2.674319
    33 17.597597 0.000000 0.000000 0.367991 0.044012 0.760497
  time 5
    0 -0.393578 2.758048 -20.600716 0.000000 0.000000 -1.585458
    1 0.148438 -0.312510 0.000000 -1.570795 -1.570787 0.000000
    2 1.293670 0.684478 -0.000001 -0.131359 0.029062 0.034414
    3 5.309685 -0.003834 0.000000 -0.112245 -0.102936 0.072185
    4 4.826790 -0.004591 0.000000 -0.121885 -0.031304 0.132322
    5 5.792767 -0.005304 0.000000 0.081484 -0.074029 0.190315
    6 6.662322 -0.001452 0.000000 0.000036 0.047980 0.471000
    7 -3.311319 1.516823 4.187277 0.863345 -1.261588 -4.463338
    8 4.827512 0.000000 -0.000002 -0.421148 0.650887 -0.666716
    9 11.140032 0.000000 0.000000 0.000000 0.000000 -1.586556
    10 10.314563 -0.000001 0.000001 -2.644705 0.336658 0.445360
    11 1.646836 0.445664 -1.699647 0.797150 0.243236 0.598297
    12 0.928312 0.000000 0.000000 0.000000 0.000000 -0.135251
    13 0.928313 0.000000 -0.000001 0.000000 0.000000 0.204964
    14 2.979373 -0.388274 -0.044205 -0.142883 -0.086540 0.466239
    15 1.435262 -0.000001 -0.000001 0.000000 0.000000 1.003288
    16 1.482593 -0.000001 0.000001 0.000000 0.000000 0.858051
    17 -2.674581 1.399667 -4.269306 -0.214825 1.347160 -3.821396
    18 4.972047 0.000000 0.000000 -0.035972 -0.019335 -0.315989
    19 11.585358 0.000000 0.000001 0.000000 0.000000 -2.138279
    20 10.127058 0.000000 0.000001 1.643593 -0.215512 0.585854
    21 1.537458 0.109715 1.664489 -1.711903 -0.488630 0.787477
    22 0.928313 0.000000 0.000002 0.000000 0.000000 0.030495
    23 0.928311 0.000000 0.000001 0.000000 0.000000 0.335949
    24 2.686395 -0.427337 0.044204 0.003706 0.043467 0.061173
    25 1.435260 0.000000 0.000001 0.000000 0.000000 0.977167
    26 1.482593 0.000000 -0.000001 0.000000 0.000000 1.313285
    27 2.046984 0.000001 0.000000 0.306363 -0.079335 -0.506894
    28 -0.000005 0.000007 3.713254 -3.294286 -0.164612 1.248944
    29 18.045723 0.000000 0.000000 0.000000 0.000000 -1.743885
    30 17.597597 0.000000 0.000000 -0.254065 0.202009 -0.154514
    31 0.000005 -0.000003 -3.713254 0.803778 2.303008 5.500649
    32 18.045721 0.000000 0.000000 0.000000 0.000000 -2.675972
    33 17.597597 0.000000 0.000000 0.362689 0.052473 0.753892
  time 6
    0 -0.338889 2.746329 -20.600716 0.000000 0.000000 -1.585458
    1 0.148438 -0.312510 0.000000 -1.570795 -1.570787 0.000000
    2 1.293670 0.684478 -0.000001 -0.157872 0.021967 0.039319
    3 5.309685 -0.003834 0.000000 -0.120055 -0.109467 0.088029
    4 4.826790 -0.004591 0.000000 -0.118032 0.000144 0.154282
    5 5.792767 -0.005304 0.000000 0.014498 -0.023957 0.216414
    6 6.662322 -0.001452 0.000000 0.000024 0.038372 0.471000
    7 -3.268349 1.516823 4.218528 0.854718 -1.220487 -4.446379
    8 4.827512 0.000000 -0.000002 -0.815827 0.661888 -0.813761
    9 11.140032 0.000000 0.000000 0.000000 0.000000 -1.420855
    10 10.314563 -0.000001 0.000001 -2.643662 0.444100 0.570951
    11 1.646836 0.445664 -1.699647 0.674713 0.121240 0.784678
    12 0.928312 0.000000 0.000000 0.000000 0.000000 -0.368204
    13 0.928313 0.000000 -0.000001 0.000000 0.000000 0.163979
    14 2.979373 -0.388274 -0.044205 -0.117799 -0.077587 0.456294
    15 1.435262 -0.000001 -0.000001 0.000000 0.000000 1.050387
    16 1.482593 -0.000001 0.000001 0.000000 0.000000 0.930601
    17 -2.717551 1.399667 -4.245868 -0.130757 1.304044 -3.738546
    18 4.972047 0.000000 0.000000 0.242985 -0.166133 -0.958714
    19 11.585358 0.000000 0.000001 0.000000 0.000000 -1.682913
    20 10.127058 0.000000 0.000001 1.824863 -0.093335 0.609665
    21 1.537458 0.109715 1.664489 -1.413590 -0.513095 0.712948
    22 0.928313 0.000000 0.000002 0.000000 0.000000 0.024427
    23 0.928311 0.000000 0.000001 0.000000 0.000000 0.268754
    24 2.686395 -0.427337 0.044204 0.003142 0.043515 0.048937
    25 1.435260 0.000000 0.000001 0.000000 0.000000 0.935277
    26 1.482593 0.000000 -0.000001 0.000000 0.000000 1.294935
    27 2.046984 0.000001 0.000000 0.393993 -0.159024 -0.492052
    28 -0.000005 0.000007 3.713254 -3.298025 -0.163653 1.249231
    29 18.045723 0.000000 0.000000 0.000000 0.000000 -1.746401
    30 17.597597 0.000000 0.000000 -0.256143 0.205183 -0.151992
    31 0.000005 -0.000003 -3.713254 0.791223 2.296776 5.495760
    32 18.045721 0.000000 0.000000 0.000000 0.000000 -2.677153
    33 17.597597 0.000000 0.000000 0.357724 0.060086 0.748165
  time 7
    0 -0.299825 2.734609 -20.600716 0.000000 0.000000 -1.585458
    1 0.148438 -0.312510 0.000000 -1.570795 -1.570787 0.000000
    2 1.293670 0.684478 -0.000001 -0.184487 0.014632 0.044291
    3 5.309685 -0.003834 0.000000 -0.127849 -0.115555 0.103891
    4 4.826790 -0.004591 0.000000 -0.116926 0.033377 0.175713
    5 5.792767 -0.005304 0.000000 -0.067220 0.031268 0.236284
    6 6.662322 -0.001452 0.000000 0.000012 0.028793 0.471000
    7 -3.225379 1.516823 4.249779 0.849063 -1.179563 -4.431239
    8 4.827512 0.000000 -0.000002 -1.130310 0.581134 -0.900845
    9 11.140032 0.000000 0.000000 0.000000 0.000000 -1.263776
    10 10.314563 -0.000001 0.000001 -2.618073 0.553416 0.704671
    11 1.646836 0.445664 -1.699647 0.532949 0.024509 0.982834
    12 0.928312 0.000000 0.000000 0.000000 0.000000 -0.601201
    13 0.928313 0.000000 -0.000001 0.000000 0.000000 0.123032
    14 2.979373 -0.388274 -0.044205 -0.092811 -0.068419 0.446523
    15 1.435262 -0.000001 -0.000001 0.000000 0.000000 1.097445
    16 1.482593 -0.000001 0.000001 0.000000 0.000000 1.003205
    17 -2.756614 1.399667 -4.218524 -0.084615 1.263452 -3.693626
    18 4.972047 0.000000 0.000000 0.144965 -0.200362 -1.409826
    19 11.585358 0.000000 0.000001 0.000000 0.000000 -1.394584
    20 10.127058 0.000000 0.000001 1.972825 -0.019386 0.753076
    21 1.537458 0.109715 1.664489 -1.111734 -0.517111 0.632864
    22 0.928313 0.000000 0.000002 0.000000 0.000000 0.018315
    23 0.928311 0.000000 0.000001 0.000000 0.000000 0.201559
    24 2.686395 -0.427337 0.044204 0.002639 0.043551 0.036728
    25 1.435260 0.000000 0.000001 0.000000 0.000000 0.893420
    26 1.482593 0.000000 -0.000001 0.000000 0.000000 1.276688
    27 2.046984 0.000001 0.000000 0.499417 -0.253907 -0.487490
    28 -0.000005 0.000007 3.713254 -3.301476 -0.162790 1.249519
    29 18.045723 0.000000 0.000000 0.000000 0.000000 -1.748992
    30 17.597597 0.000000 0.000000 -0.258044 0.208161 -0.149333
    31 0.000005 -0.000003 -3.713254 0.779434 2.291024 5.491638
    32 18.045721 0.000000 0.000000 0.000000 0.000000 -2.678333
    33 17.597597 0.000000 0.000000 0.352658 0.067443 0.742945
  time 8
    0 -0.276387 2.726797 -20.600716 0.000000 0.000000 -1.585458
    1 0.148438 -0.312510 0.000000 -1.570795 -1.570787 0.000000
    2 1.293670 0.684478 -0.000001 -0.211085 0.009659 0.049213
    3 5.309685 -0.003834 0.000000 -0.135966 -0.123717 0.120071
    4 4.826790 -0.004591 0.000000 -0.113874 0.059923 0.198775
    5 5.792767 -0.005304 0.000000 -0.126903 0.078235 0.254929
    6 6.662322 -0.001452 0.000000 0.000012 0.019186 0.471000
    7 -3.190221 1.516823 4.281030 0.845900 -1.138905 -4.417058
    8 4.827512 0.000000 -0.000002 -1.362287 0.461921 -0.955868
    9 11.140032 0.000000 0.000000 0.000000 0.000000 -1.106190
    10 10.314563 -0.000001 0.000001 -2.562818 0.660296 0.853371
    11 1.646836 0.445664 -1.699647 0.374954 -0.041568 1.192764
    12 0.928312 0.000000 0.000000 0.000000 0.000000 -0.834241
    13 0.928313 0.000000 -0.000001 0.000000 0.000000 0.082009
    14 2.979373 -0.388274 -0.044205 -0.067919 -0.059011 0.437012
    15 1.435262 -0.000001 -0.000001 0.000000 0.000000 1.144586
    16 1.482593 -0.000001 0.000001 0.000000 0.000000 1.075862
    17 -2.799584 1.399667 -4.183366 -0.050033 1.223674 -3.660007
    18 4.972047 0.000000 0.000000 0.008019 -0.236921 -1.560574
    19 11.585358 0.000000 0.000001 0.000000 0.000000 -1.389846
    20 10.127058 0.000000 0.000001 2.131445 0.012766 0.921099
    21 1.537458 0.109715 1.664489 -0.811506 -0.500341 0.555280
    22 0.928313 0.000000 0.000002 0.000000 0.000000 0.012203
    23 0.928311 0.000000 0.000001 0.000000 0.000000 0.134365
    24 2.686395 -0.427337 0.044204 0.002100 0.043575 0.024491
    25 1.435260 0.000000 0.000001 0.000000 0.000000 0.851496
    26 1.482593 0.000000 -0.000001 0.000000 0.000000 1.258338
    27 2.046984 0.000001 0.000000 0.583041 -0.340588 -0.492173
    28 -0.000005 0.000007 3.713254 -3.303969 -0.162215 1.249710
    29 18.045723 0.000000 0.000000 0.000000 0.000000 -1.751138
    30 17.597597 0.000000 0.000000 -0.259412 0.210351 -0.147316
    31 0.000005 -0.000003 -3.713254 0.770808 2.286902 5.488953
    32 18.045721 0.000000 0.000000 0.000000 0.000000 -2.679121
    33 17.597597 0.000000 0.000000 0.348699 0.072966 0.739297
  time 9
    0 -0.299825 2.754141 -20.600716 0.000000 0.000000 -1.585458
    1 0.148438 -0.312510 0.000000 -1.570795 -1.570787 0.000000
    2 1.293670 0.684478 -0.000001 -0.237446 0.010378 0.054202
    3 5.309685 -0.003834 0.000000 -0.145002 -0.137272 0.136833
    4 4.826790 -0.004591 0.000000 -0.108533 0.068672 0.226225
    5 5.792767 -0.005304 0.000000 -0.130735 0.094007 0.283893
    6 6.662322 -0.001452 0.000000 0.000000 0.009579 0.471000
    7 -3.147251 1.516823 4.312281 0.844941 -1.098514 -4.403548
    8 4.827512 0.000000 -0.000002 -1.499958 0.334266 -1.012451
    9 11.140032 0.000000 0.000000 0.000000 0.000000 -0.959327
    10 10.314563 -0.000001 0.000001 -2.471359 0.759120 1.025470
    11 1.646836 0.445664 -1.699647 0.206170 -0.072487 1.410957
    12 0.928312 0.000000 0.000000 0.000000 0.000000 -1.067238
    13 0.928313 0.000000 -0.000001 0.000000 0.000000 0.040947
    14 2.979373 -0.388274 -0.044205 -0.043135 -0.049388 0.427762
    15 1.435262 -0.000001 -0.000001 0.000000 0.000000 1.191685
    16 1.482593 -0.000001 0.000001 0.000000 0.000000 1.148413
    17 -2.834742 1.399667 -4.163834 -0.022424 1.184002 -3.634050
    18 4.972047 0.000000 0.000000 -0.110636 -0.227118 -1.547529
    19 11.585358 0.000000 0.000001 0.000000 0.000000 -1.517593
    20 10.127058 0.000000 0.000001 2.305773 -0.007187 1.095774
    21 1.537458 0.109715 1.664489 -0.517692 -0.464442 0.487742
    22 0.928313 0.000000 0.000002 0.000000 0.000000 0.006069
    23 0.928311 0.000000 0.000001 0.000000 0.000000 0.067170
    24 2.686395 -0.427337 0.044204 0.001548 0.043599 0.012227
    25 1.435260 0.000000 0.000001 0.000000 0.000000 0.809606
    26 1.482593 0.000000 -0.000001 0.000000 0.000000 1.239988
    27 2.046984 0.000001 0.000000 0.612079 -0.383309 -0.494728
    28 -0.000005 0.000007 3.713254 -3.304544 -0.162119 1.249710
    29 18.045723 0.000000 0.000000 0.000000 0.000000 -1.751434
    30 17.597597 0.000000 0.000000 -0.259691 0.210745 -0.146949
    31 0.000005 -0.000003 -3.713254 0.769275 2.286135 5.488282
    32 18.045721 0.000000 0.000000 0.000000 0.000000 -2.679121
    33 17.597597 0.000000 0.000000 0.348027 0.073952 0.738511
  time 10
    0 -0.338889 2.789299 -20.600716 0.000000 0.000000 -1.585458
    1 0.148438 -0.312510 0.000000 -1.570795 -1.570787 0.000000
    2 1.293670 0.684478 -0.000001 -0.263690 0.013637 0.059224
    3 5.309685 -0.003834 0.000000 -0.154753 -0.153043 0.154038
    4 4.826790 -0.004591 0.000000 -0.103574 0.069666 0.255506
    5 5.792767 -0.005304 0.000000 -0.113341 0.094247 0.318463
    6 6.662322 -0.001452 0.000000 0.000000 -0.000001 0.471000
    7 -3.108188 1.516823 4.339626 0.845420 -1.058477 -4.390229
    8 4.827512 0.000000 -0.000002 -1.586291 0.234922 -1.023889
    9 11.140032 0.000000 0.000000 0.000000 0.000000 -0.883903
    10 10.314563 -0.000001 0.000001 -2.336682 0.842675 1.229447
    11 1.646836 0.445664 -1.699647 0.034758 -0.065773 1.631422
    12 0.928312 0.000000 0.000000 0.000000 0.000000 -1.300235
    13 0.928313 0.000000 -0.000001 0.000000 0.000000 0.000000
    14 2.979373 -0.388274 -0.044205 -0.018435 -0.039524 0.418816
    15 1.435262 -0.000001 -0.000001 0.000000 0.000000 1.238742
    16 1.482593 -0.000001 0.000001 0.000000 0.000000 1.221017
    17 -2.869899 1.399667 -4.140396 0.000026 1.143962 -3.613362
    18 4.972047 0.000000 0.000000 -0.190271 -0.191443 -1.543403
    19 11.585358 0.000000 0.000001 0.000000 0.000000 -1.643054
    20 10.127058 0.000000 0.000001 2.488376 -0.074895 1.235434
    21 1.537458 0.109715 1.664489 -0.233165 -0.412999 0.435664
    22 0.928313 0.000000 0.000002 0.000000 0.000000 0.000000
    23 0.928311 0.000000 0.000001 0.000000 0.000000 0.000000
    24 2.686395 -0.427337 0.044204 0.001045 0.043611 0.000046
    25 1.435260 0.000000 0.000001 0.000000 0.000000 0.767749
    26 1.482593 0.000000 -0.000001 0.000000 0.000000 1.221638
    27 2.046984 0.000001 0.000000 0.621988 -0.408741 -0.497101
    28 -0.000005 0.000007 3.713254 -3.304065 -0.162215 1.249710
    29 18.045723 0.000000 0.000000 0.000000 0.000000 -1.750990
    30 17.597597 0.000000 0.000000 -0.259437 0.210376 -0.147361
    31 0.000005 -0.000003 -3.713254 0.770808 2.286806 5.488570
    32 18.045721 0.000000 0.000000 0.000000 0.000000 -2.679121
    33 17.597597 0.000000 0.000000 0.348833 0.072907 0.739066
end
