version 1
nodes
  0 "Bip01" -1
  1 "Bip01 Pelvis" 0
  2 "Bip01 Spine" 1
  3 "Bip01 Spine1" 2
  4 "Bip01 Spine2" 3
  5 "Bip01 Spine3" 4
  6 "Bip01 Neck" 5
  7 "Bip01 L Arm" 6
  8 "Bip01 L Arm1" 7
  9 "Bip01 L Arm2" 8
  10 "Bip01 L Hand" 9
  11 "Bip01 L Finger0" 10
  12 "Bip01 L Finger01" 11
  13 "Bip01 L Finger02" 12
  14 "Bip01 L Finger1" 10
  15 "Bip01 L Finger11" 14
  16 "Bip01 L Finger12" 15
  17 "Bip01 R Arm" 6
  18 "Bip01 R Arm1" 17
  19 "Bip01 R Arm2" 18
  20 "Bip01 R Hand" 19
  21 "Bip01 R Finger0" 20
  22 "Bip01 R Finger01" 21
  23 "Bip01 R Finger02" 22
  24 "Bip01 R Finger1" 20
  25 "Bip01 R Finger11" 24
  26 "Bip01 R Finger12" 25
  27 "Bip01 Head" 6
  28 "Bip01 L Leg" 1
  29 "Bip01 L Leg1" 28
  30 "Bip01 L Foot" 29
  31 "Bip01 R Leg" 1
  32 "Bip01 R Leg1" 31
  33 "Bip01 R Foot" 32
end
skeleton
  time 0
    0 -1.182665 -1.933502 -20.600716 0.000000 0.000000 -1.585458
    1 -4.582175 0.453139 0.000000 -1.570795 -1.570787 0.000000
    2 1.293670 0.684478 -0.000001 -0.013177 -0.128224 0.196032
    3 5.309685 -0.003834 0.000000 -0.248415 0.044499 0.249580
    4 4.826790 -0.004591 0.000000 -0.222865 0.017773 0.462914
    5 5.792767 -0.005304 0.000000 -0.258736 0.009240 0.171691
    6 6.662322 -0.001452 0.000000 0.000000 -0.000001 0.471000
    7 -3.108188 1.516823 4.339626 -1.406743 -1.415880 -2.208639
    8 4.827512 0.000000 -0.000002 -0.883746 -0.252673 -0.428427
    9 11.140032 0.000000 0.000000 0.000000 0.000000 -1.688788
    10 10.314563 -0.000001 0.000001 -1.416878 0.000000 -0.069778
    11 1.646836 0.445664 -1.699647 0.153911 0.442352 0.277231
    12 0.928312 0.000000 0.000000 0.000000 0.000000 0.000000
    13 0.928313 0.000000 -0.000001 0.000000 0.000000 0.000000
    14 2.979373 -0.388274 -0.044205 -0.038161 -0.021140 1.047514
    15 1.435262 -0.000001 -0.000001 0.000000 0.000000 0.924803
    16 1.482593 -0.000001 0.000001 0.000000 0.000000 1.326263
    17 -2.869899 1.399667 -4.140396 1.270791 1.204745 -2.362472
    18 4.972047 0.000000 0.000000 1.663564 -0.494361 -0.979014
    19 11.585358 0.000000 0.000001 0.000000 0.000000 -1.945351
    20 10.127058 0.000000 0.000001 2.692016 0.202556 -0.094038
    21 1.537458 0.109715 1.664489 -0.264662 -0.055995 0.783079
    22 0.928313 0.000000 0.000002 0.000000 0.000000 -0.453501
    23 0.928311 0.000000 0.000001 0.000000 0.000000 0.000000
    24 2.686395 -0.427337 0.044204 0.005971 0.043227 0.113528
    25 1.435260 0.000000 0.000001 0.000000 0.000000 1.090194
    26 1.482593 0.000000 -0.000001 0.000000 0.000000 1.168644
    27 2.046984 0.000001 0.000000 0.772261 -0.086062 -0.625997
    28 -0.000005 0.000007 3.713254 -3.289109 -0.165283 1.249519
    29 18.045723 0.000000 0.000000 0.000000 0.000000 -1.732931
    30 17.597597 0.000000 0.000000 -0.251607 0.197234 -0.164508
    31 0.000005 -0.000003 -3.713254 0.821892 2.312307 5.493555
    32 18.045721 0.000000 0.000000 0.000000 0.000000 -2.673768
    33 17.597597 0.000000 0.000000 0.379969 0.033854 0.755924
  time 1
    0 -1.206103 -1.941314 -20.600716 0.000000 0.000000 -1.585458
    1 -4.582175 0.453139 0.000000 -1.570795 -1.570787 0.000000
    2 1.293670 0.684478 -0.000001 -0.013177 -0.128224 0.196032
    3 5.309685 -0.003834 0.000000 -0.248415 0.046201 0.255233
    4 4.826790 -0.004591 0.000000 -0.222178 0.015580 0.448406
    5 5.792767 -0.005304 0.000000 -0.258807 0.006172 0.154541
    6 6.662322 -0.001452 0.000000 0.000000 -0.000001 0.471000
    7 -3.108188 1.516823 4.339626 -1.406743 -1.415880 -2.208639
    8 4.827512 0.000000 -0.000002 -0.859034 -0.241928 -0.434579
    9 11.140032 0.000000 0.000000 0.000000 0.000000 -1.688788
    10 10.314563 -0.000001 0.000001 -1.416878 0.000000 -0.069778
    11 1.646836 0.445664 -1.699647 0.153911 0.442352 0.277231
    12 0.928312 0.000000 0.000000 0.000000 0.000000 0.000000
    13 0.928313 0.000000 -0.000001 0.000000 0.000000 0.000000
    14 2.979373 -0.388274 -0.044205 -0.038161 -0.021140 1.047514
    15 1.435262 -0.000001 -0.000001 0.000000 0.000000 0.924803
    16 1.482593 -0.000001 0.000001 0.000000 0.000000 1.326263
    17 -2.869899 1.399667 -4.140396 1.266874 1.204219 -2.366686
    18 4.972047 0.000000 0.000000 1.636550 -0.505529 -0.963040
    19 11.585358 0.000000 0.000001 0.000000 0.000000 -1.945351
    20 10.127058 0.000000 0.000001 2.692226 0.202367 -0.093538
    21 1.537458 0.109715 1.664489 -0.264662 -0.055995 0.783079
    22 0.928313 0.000000 0.000002 0.000000 0.000000 -0.453501
    23 0.928311 0.000000 0.000001 0.000000 0.000000 0.000000
    24 2.686395 -0.427337 0.044204 0.005971 0.043227 0.113528
    25 1.435260 0.000000 0.000001 0.000000 0.000000 1.090194
    26 1.482593 0.000000 -0.000001 0.000000 0.000000 1.168644
    27 2.046984 0.000001 0.000000 0.772089 -0.089779 -0.600023
    28 -0.000005 0.000007 3.713254 -3.288533 -0.165858 1.249327
    29 18.045723 0.000000 0.000000 0.000000 0.000000 -1.733375
    30 17.597597 0.000000 0.000000 -0.250873 0.196791 -0.164187
    31 0.000005 -0.000003 -3.713254 0.823905 2.314128 5.495952
    32 18.045721 0.000000 0.000000 0.000000 0.000000 -2.673532
    33 17.597597 0.000000 0.000000 0.380170 0.033578 0.758141
  time 2
    0 -1.225635 -1.949127 -20.600716 0.000000 0.000000 -1.585458
    1 -4.582175 0.453139 0.000000 -1.570795 -1.570787 0.000000
    2 1.293670 0.684478 -0.000001 -0.013177 -0.128224 0.196032
    3 5.309685 -0.003834 0.000000 -0.248449 0.047998 0.261291
    4 4.826790 -0.004591 0.000000 -0.221472 0.013195 0.432818
    5 5.792767 -0.005304 0.000000 -0.258897 0.002948 0.136768
    6 6.662322 -0.001452 0.000000 0.000000 -0.000001 0.471000
    7 -3.108188 1.516823 4.339626 -1.481509 -1.417388 -2.133038
    8 4.827512 0.000000 -0.000002 -0.832807 -0.215067 -0.438305
    9 11.140032 0.000000 0.000000 0.000000 0.000000 -1.688063
    10 10.314563 -0.000001 0.000001 -1.416878 0.000000 -0.069778
    11 1.646836 0.445664 -1.699647 0.153911 0.442352 0.277231
    12 0.928312 0.000000 0.000000 0.000000 0.000000 0.000000
    13 0.928313 0.000000 -0.000001 0.000000 0.000000 0.000000
    14 2.979373 -0.388274 -0.044205 -0.038161 -0.021140 1.047514
    15 1.435262 -0.000001 -0.000001 0.000000 0.000000 0.924803
    16 1.482593 -0.000001 0.000001 0.000000 0.000000 1.326263
    17 -2.869899 1.399667 -4.140396 1.270791 1.204745 -2.362472
    18 4.972047 0.000000 0.000000 1.609348 -0.518385 -0.945935
    19 11.585358 0.000000 0.000001 0.000000 0.000000 -1.945351
    20 10.127058 0.000000 0.000001 2.692016 0.202556 -0.094038
    21 1.537458 0.109715 1.664489 -0.264662 -0.055995 0.783079
    22 0.928313 0.000000 0.000002 0.000000 0.000000 -0.453501
    23 0.928311 0.000000 0.000001 0.000000 0.000000 0.000000
    24 2.686395 -0.427337 0.044204 0.005971 0.043227 0.113528
    25 1.435260 0.000000 0.000001 0.000000 0.000000 1.090194
    26 1.482593 0.000000 -0.000001 0.000000 0.000000 1.168644
    27 2.046984 0.000001 0.000000 0.771744 -0.093762 -0.572771
    28 -0.000005 0.000007 3.713254 -3.287766 -0.166434 1.249135
    29 18.045723 0.000000 0.000000 0.000000 0.000000 -1.733893
    30 17.597597 0.000000 0.000000 -0.250087 0.196373 -0.163775
    31 0.000005 -0.000003 -3.713254 0.826109 2.316237 5.498444
    32 18.045721 0.000000 0.000000 0.000000 0.000000 -2.673217
    33 17.597597 0.000000 0.000000 0.380304 0.033420 0.760497
  time 3
    0 -1.245166 -1.953034 -20.600716 0.000000 0.000000 -1.585458
    1 -4.582175 0.453139 0.000000 -1.570795 -1.570787 0.000000
    2 1.293670 0.684478 -0.000001 -0.013177 -0.128224 0.196032
    3 5.309685 -0.003834 0.000000 -0.248449 0.049844 0.267368
    4 4.826790 -0.004591 0.000000 -0.220786 0.010942 0.417737
    5 5.792767 -0.005304 0.000000 -0.258915 -0.000168 0.119327
    6 6.662322 -0.001452 0.000000 0.002289 0.003353 0.512868
    7 -3.057405 1.653546 4.331813 -1.526080 -1.418186 -2.129110
    8 4.827512 0.000000 -0.000002 -0.807536 -0.189314 -0.441685
    9 11.140032 0.000000 0.000000 0.000000 0.000000 -1.687411
    10 10.314563 -0.000001 0.000001 -1.416878 0.000000 -0.069778
    11 1.646836 0.445664 -1.699647 0.153911 0.442352 0.277231
    12 0.928312 0.000000 0.000000 0.000000 0.000000 0.000000
    13 0.928313 0.000000 -0.000001 0.000000 0.000000 0.000000
    14 2.979373 -0.388274 -0.044205 -0.038161 -0.021140 1.047514
    15 1.435262 -0.000001 -0.000001 0.000000 0.000000 0.924803
    16 1.482593 -0.000001 0.000001 0.000000 0.000000 1.326263
    17 -2.799584 1.501233 -4.148209 1.301743 1.207768 -2.372816
    18 4.972047 0.000000 0.000000 1.585429 -0.533330 -0.929629
    19 11.585358 0.000000 0.000001 0.000000 0.000000 -1.945596
    20 10.127058 0.000000 0.000001 2.690964 0.203218 -0.096339
    21 1.537458 0.109715 1.664489 -0.264662 -0.055995 0.783079
    22 0.928313 0.000000 0.000002 0.000000 0.000000 -0.453501
    23 0.928311 0.000000 0.000001 0.000000 0.000000 0.000000
    24 2.686395 -0.427337 0.044204 0.005971 0.043227 0.113528
    25 1.435260 0.000000 0.000001 0.000000 0.000000 1.090194
    26 1.482593 0.000000 -0.000001 0.000000 0.000000 1.168644
    27 2.046984 0.000001 0.000000 0.770021 -0.094264 -0.594731
    28 -0.000005 0.000007 3.713254 -3.287191 -0.167009 1.248944
    29 18.045723 0.000000 0.000000 0.000000 0.000000 -1.734411
    30 17.597597 0.000000 0.000000 -0.249352 0.195930 -0.163316
    31 0.000005 -0.000003 -3.713254 0.828218 2.318059 5.501033
    32 18.045721 0.000000 0.000000 0.000000 0.000000 -2.672902
    33 17.597597 0.000000 0.000000 0.380438 0.033223 0.762714
  time 4
    0 -1.256886 -1.960846 -20.600716 0.000000 0.000000 -1.585458
    1 -4.582175 0.453139 0.000000 -1.570795 -1.570787 0.000000
    2 1.293670 0.684478 -0.000001 -0.013177 -0.128224 0.196032
    3 5.309685 -0.003834 0.000000 -0.248415 0.051546 0.273020
    4 4.826790 -0.004591 0.000000 -0.220118 0.008976 0.404861
    5 5.792767 -0.005304 0.000000 -0.258861 -0.002984 0.103132
    6 6.662322 -0.001452 0.000000 0.004770 0.006624 0.554821
    7 -3.006622 1.790269 4.312281 -1.563367 -1.418511 -2.132559
    8 4.827512 0.000000 -0.000002 -0.785295 -0.166546 -0.444371
    9 11.140032 0.000000 0.000000 0.000000 0.000000 -1.686759
    10 10.314563 -0.000001 0.000001 -1.416878 0.000000 -0.069778
    11 1.646836 0.445664 -1.699647 0.153911 0.442352 0.277231
    12 0.928312 0.000000 0.000000 0.000000 0.000000 0.000000
    13 0.928313 0.000000 -0.000001 0.000000 0.000000 0.000000
    14 2.979373 -0.388274 -0.044205 -0.038161 -0.021140 1.047514
    15 1.435262 -0.000001 -0.000001 0.000000 0.000000 0.924803
    16 1.482593 -0.000001 0.000001 0.000000 0.000000 1.326263
    17 -2.725363 1.606705 -4.163834 1.337567 1.211081 -2.377893
    18 4.972047 0.000000 0.000000 1.565169 -0.547632 -0.915187
    19 11.585358 0.000000 0.000001 0.000000 0.000000 -1.945923
    20 10.127058 0.000000 0.000001 2.689632 0.203880 -0.099191
    21 1.537458 0.109715 1.664489 -0.264662 -0.055995 0.783079
    22 0.928313 0.000000 0.000002 0.000000 0.000000 -0.453501
    23 0.928311 0.000000 0.000001 0.000000 0.000000 0.000000
    24 2.686395 -0.427337 0.044204 0.005971 0.043227 0.113528
    25 1.435260 0.000000 0.000001 0.000000 0.000000 1.090194
    26 1.482593 0.000000 -0.000001 0.000000 0.000000 1.168644
    27 2.046984 0.000001 0.000000 0.768341 -0.094205 -0.619549
    28 -0.000005 0.000007 3.713254 -3.286616 -0.167584 1.248848
    29 18.045723 0.000000 0.000000 0.000000 0.000000 -1.734781
    30 17.597597 0.000000 0.000000 -0.248693 0.195561 -0.163041
    31 0.000005 -0.000003 -3.713254 0.829943 2.319784 5.503046
    32 18.045721 0.000000 0.000000 0.000000 0.000000 -2.672666
    33 17.597597 0.000000 0.000000 0.380606 0.033006 0.764654
  time 5
    0 -1.268605 -1.964753 -20.600716 0.000000 0.000000 -1.585458
    1 -4.582175 0.453139 0.000000 -1.570795 -1.570787 0.000000
    2 1.293670 0.684478 -0.000001 -0.013177 -0.128224 0.196032
    3 5.309685 -0.003834 0.000000 -0.248415 0.053008 0.277860
    4 4.826790 -0.004591 0.000000 -0.219622 0.007610 0.395711
    5 5.792767 -0.005304 0.000000 -0.258772 -0.005285 0.089076
    6 6.662322 -0.001452 0.000000 0.007359 0.009840 0.596774
    7 -2.940214 1.919179 4.300562 1.551282 -1.723014 -5.288429
    8 4.827512 0.000000 -0.000002 -0.767758 -0.148127 -0.446017
    9 11.140032 0.000000 0.000000 0.000000 0.000000 -1.686107
    10 10.314563 -0.000001 0.000001 -1.416878 0.000000 -0.069778
    11 1.646836 0.445664 -1.699647 0.153911 0.442352 0.277231
    12 0.928312 0.000000 0.000000 0.000000 0.000000 0.000000
    13 0.928313 0.000000 -0.000001 0.000000 0.000000 0.000000
    14 2.979373 -0.388274 -0.044205 -0.038161 -0.021140 1.047514
    15 1.435262 -0.000001 -0.000001 0.000000 0.000000 0.924803
    16 1.482593 -0.000001 0.000001 0.000000 0.000000 1.326263
    17 -2.639423 1.712177 -4.171647 1.375780 1.214183 -2.380479
    18 4.972047 0.000000 0.000000 1.550443 -0.560247 -0.904139
    19 11.585358 0.000000 0.000001 0.000000 0.000000 -1.946249
    20 10.127058 0.000000 0.000001 2.688229 0.204731 -0.102292
    21 1.537458 0.109715 1.664489 -0.264662 -0.055995 0.783079
    22 0.928313 0.000000 0.000002 0.000000 0.000000 -0.453501
    23 0.928311 0.000000 0.000001 0.000000 0.000000 0.000000
    24 2.686395 -0.427337 0.044204 0.005971 0.043227 0.113528
    25 1.435260 0.000000 0.000001 0.000000 0.000000 1.090194
    26 1.482593 0.000000 -0.000001 0.000000 0.000000 1.168644
    27 2.046984 0.000001 0.000000 0.766790 -0.093290 -0.649416
    28 -0.000005 0.000007 3.713254 -3.286136 -0.167872 1.248752
    29 18.045723 0.000000 0.000000 0.000000 0.000000 -1.734929
    30 17.597597 0.000000 0.000000 -0.248263 0.195315 -0.162904
    31 0.000005 -0.000003 -3.713254 0.831285 2.320839 5.504388
    32 18.045721 0.000000 0.000000 0.000000 0.000000 -2.672430
    33 17.597597 0.000000 0.000000 0.380807 0.032710 0.765947
  time 6
    0 -1.280324 -1.964753 -20.600716 0.000000 0.000000 -1.585458
    1 -4.582175 0.453139 0.000000 -1.570795 -1.570787 0.000000
    2 1.293670 0.684478 -0.000001 -0.013177 -0.128224 0.196032
    3 5.309685 -0.003834 0.000000 -0.248398 0.054074 0.281499
    4 4.826790 -0.004591 0.000000 -0.219355 0.006807 0.390353
    5 5.792767 -0.005304 0.000000 -0.258592 -0.007155 0.075601
    6 6.662322 -0.001452 0.000000 0.010055 0.012905 0.638670
    7 -2.869899 2.055902 4.288843 1.538246 -1.723221 -5.316504
    8 4.827512 0.000000 -0.000002 -0.753409 -0.133801 -0.447404
    9 11.140032 0.000000 0.000000 0.000000 0.000000 -1.685672
    10 10.314563 -0.000001 0.000001 -1.416878 0.000000 -0.069778
    11 1.646836 0.445664 -1.699647 0.153911 0.442352 0.277231
    12 0.928312 0.000000 0.000000 0.000000 0.000000 0.000000
    13 0.928313 0.000000 -0.000001 0.000000 0.000000 0.000000
    14 2.979373 -0.388274 -0.044205 -0.038161 -0.021140 1.047514
    15 1.435262 -0.000001 -0.000001 0.000000 0.000000 0.924803
    16 1.482593 -0.000001 0.000001 0.000000 0.000000 1.326263
    17 -2.549577 1.805929 -4.187273 1.413706 1.216918 -2.383352
    18 4.972047 0.000000 0.000000 1.538436 -0.571335 -0.895154
    19 11.585358 0.000000 0.000001 0.000000 0.000000 -1.946576
    20 10.127058 0.000000 0.000001 2.686897 0.205582 -0.105293
    21 1.537458 0.109715 1.664489 -0.264662 -0.055995 0.783079
    22 0.928313 0.000000 0.000002 0.000000 0.000000 -0.453501
    23 0.928311 0.000000 0.000001 0.000000 0.000000 0.000000
    24 2.686395 -0.427337 0.044204 0.005971 0.043227 0.113528
    25 1.435260 0.000000 0.000001 0.000000 0.000000 1.090194
    26 1.482593 0.000000 -0.000001 0.000000 0.000000 1.168644
    27 2.046984 0.000001 0.000000 0.765325 -0.091933 -0.682446
    28 -0.000005 0.000007 3.713254 -3.285945 -0.168159 1.248656
    29 18.045723 0.000000 0.000000 0.000000 0.000000 -1.735003
    30 17.597597 0.000000 0.000000 -0.247908 0.195118 -0.162858
    31 0.000005 -0.000003 -3.713254 0.832147 2.321702 5.505251
    32 18.045721 0.000000 0.000000 0.000000 0.000000 -2.672193
    33 17.597597 0.000000 0.000000 0.381009 0.032434 0.766732
  time 7
    0 -1.288137 -1.964753 -20.600716 0.000000 0.000000 -1.585458
    1 -4.582175 0.453139 0.000000 -1.570795 -1.570787 0.000000
    2 1.293670 0.684478 -0.000001 -0.013177 -0.128224 0.196032
    3 5.309685 -0.003834 0.000000 -0.248398 0.054830 0.283971
    4 4.826790 -0.004591 0.000000 -0.219183 0.006424 0.387663
    5 5.792767 -0.005304 0.000000 -0.258322 -0.008497 0.063143
    6 6.662322 -0.001452 0.000000 0.012907 0.015846 0.680680
    7 -2.799584 2.180906 4.269311 1.540451 -1.723517 -5.359814
    8 4.827512 0.000000 -0.000002 -0.741531 -0.123483 -0.448617
    9 11.140032 0.000000 0.000000 0.000000 0.000000 -1.685455
    10 10.314563 -0.000001 0.000001 -1.416878 0.000000 -0.069778
    11 1.646836 0.445664 -1.699647 0.153911 0.442352 0.277231
    12 0.928312 0.000000 0.000000 0.000000 0.000000 0.000000
    13 0.928313 0.000000 -0.000001 0.000000 0.000000 0.000000
    14 2.979373 -0.388274 -0.044205 -0.038161 -0.021140 1.047514
    15 1.435262 -0.000001 -0.000001 0.000000 0.000000 0.924803
    16 1.482593 -0.000001 0.000001 0.000000 0.000000 1.326263
    17 -2.455824 1.903589 -4.202898 1.448193 1.219047 -2.390152
    18 4.972047 0.000000 0.000000 1.528494 -0.580254 -0.887766
    19 11.585358 0.000000 0.000001 0.000000 0.000000 -1.946821
    20 10.127058 0.000000 0.000001 2.685775 0.206339 -0.107844
    21 1.537458 0.109715 1.664489 -0.264662 -0.055995 0.783079
    22 0.928313 0.000000 0.000002 0.000000 0.000000 -0.453501
    23 0.928311 0.000000 0.000001 0.000000 0.000000 0.000000
    24 2.686395 -0.427337 0.044204 0.005971 0.043227 0.113528
    25 1.435260 0.000000 0.000001 0.000000 0.000000 1.090194
    26 1.482593 0.000000 -0.000001 0.000000 0.000000 1.168644
    27 2.046984 0.000001 0.000000 0.764119 -0.090399 -0.718213
    28 -0.000005 0.000007 3.713254 -3.285561 -0.168351 1.248656
    29 18.045723 0.000000 0.000000 0.000000 0.000000 -1.735077
    30 17.597597 0.000000 0.000000 -0.247680 0.194970 -0.162858
    31 0.000005 -0.000003 -3.713254 0.832818 2.322277 5.505922
    32 18.045721 0.000000 0.000000 0.000000 0.000000 -2.672193
    33 17.597597 0.000000 0.000000 0.381143 0.032217 0.767471
  time 8
    0 -1.288137 -1.964753 -20.600716 0.000000 0.000000 -1.585458
    1 -4.582175 0.453139 0.000000 -1.570795 -1.570787 0.000000
    2 1.293670 0.684478 -0.000001 -0.013177 -0.128224 0.196032
    3 5.309685 -0.003834 0.000000 -0.248364 0.055309 0.285491
    4 4.826790 -0.004591 0.000000 -0.219183 0.006424 0.387663
    5 5.792767 -0.005304 0.000000 -0.258124 -0.009012 0.055897
    6 6.662322 -0.001452 0.000000 0.012907 0.015846 0.680680
    7 -2.799584 2.180906 4.269311 1.532016 -1.723576 -5.351382
    8 4.827512 0.000000 -0.000002 -0.736190 -0.119475 -0.449223
    9 11.140032 0.000000 0.000000 0.000000 0.000000 -1.685383
    10 10.314563 -0.000001 0.000001 -1.416878 0.000000 -0.069778
    11 1.646836 0.445664 -1.699647 0.153911 0.442352 0.277231
    12 0.928312 0.000000 0.000000 0.000000 0.000000 0.000000
    13 0.928313 0.000000 -0.000001 0.000000 0.000000 0.000000
    14 2.979373 -0.388274 -0.044205 -0.038161 -0.021140 1.047514
    15 1.435262 -0.000001 -0.000001 0.000000 0.000000 0.924803
    16 1.482593 -0.000001 0.000001 0.000000 0.000000 1.326263
    17 -2.455824 1.903589 -4.202898 1.464338 1.219731 -2.372816
    18 4.972047 0.000000 0.000000 1.524929 -0.585397 -0.884638
    19 11.585358 0.000000 0.000001 0.000000 0.000000 -1.947066
    20 10.127058 0.000000 0.000001 2.684933 0.206906 -0.109595
    21 1.537458 0.109715 1.664489 -0.264662 -0.055995 0.783079
    22 0.928313 0.000000 0.000002 0.000000 0.000000 -0.453501
    23 0.928311 0.000000 0.000001 0.000000 0.000000 0.000000
    24 2.686395 -0.427337 0.044204 0.005971 0.043227 0.113528
    25 1.435260 0.000000 0.000001 0.000000 0.000000 1.090194
    26 1.482593 0.000000 -0.000001 0.000000 0.000000 1.168644
    27 2.046984 0.000001 0.000000 0.765282 -0.098424 -0.706169
    28 -0.000005 0.000007 3.713254 -3.285561 -0.168351 1.248656
    29 18.045723 0.000000 0.000000 0.000000 0.000000 -1.734929
    30 17.597597 0.000000 0.000000 -0.247629 0.194946 -0.162995
    31 0.000005 -0.000003 -3.713254 0.833106 2.322373 5.505826
    32 18.045721 0.000000 0.000000 0.000000 0.000000 -2.672193
    33 17.597597 0.000000 0.000000 0.381344 0.031941 0.767425
  time 9
    0 -1.280324 -1.953034 -20.600716 0.000000 0.000000 -1.585458
    1 -4.582175 0.453139 0.000000 -1.570795 -1.570787 0.000000
    2 1.293670 0.684478 -0.000001 -0.013177 -0.128224 0.196032
    3 5.309685 -0.003834 0.000000 -0.248364 0.055381 0.285738
    4 4.826790 -0.004591 0.000000 -0.219355 0.006807 0.390353
    5 5.792767 -0.005304 0.000000 -0.258106 -0.008293 0.058098
    6 6.662322 -0.001452 0.000000 0.012907 0.015846 0.680680
    7 -2.799584 2.180906 4.269311 1.530578 -1.723576 -5.349945
    8 4.827512 0.000000 -0.000002 -0.740893 -0.121522 -0.448443
    9 11.140032 0.000000 0.000000 0.000000 0.000000 -1.685310
    10 10.314563 -0.000001 0.000001 -1.416878 0.000000 -0.069778
    11 1.646836 0.445664 -1.699647 0.153911 0.442352 0.277231
    12 0.928312 0.000000 0.000000 0.000000 0.000000 0.000000
    13 0.928313 0.000000 -0.000001 0.000000 0.000000 0.000000
    14 2.979373 -0.388274 -0.044205 -0.038161 -0.021140 1.047514
    15 1.435262 -0.000001 -0.000001 0.000000 0.000000 0.924803
    16 1.482593 -0.000001 0.000001 0.000000 0.000000 1.326263
    17 -2.455824 1.903589 -4.202898 1.474560 1.220072 -2.361993
    18 4.972047 0.000000 0.000000 1.532339 -0.585397 -0.888831
    19 11.585358 0.000000 0.000001 0.000000 0.000000 -1.947148
    20 10.127058 0.000000 0.000001 2.684442 0.207190 -0.110746
    21 1.537458 0.109715 1.664489 -0.264662 -0.055995 0.783079
    22 0.928313 0.000000 0.000002 0.000000 0.000000 -0.453501
    23 0.928311 0.000000 0.000001 0.000000 0.000000 0.000000
    24 2.686395 -0.427337 0.044204 0.005971 0.043227 0.113528
    25 1.435260 0.000000 0.000001 0.000000 0.000000 1.090194
    26 1.482593 0.000000 -0.000001 0.000000 0.000000 1.168644
    27 2.046984 0.000001 0.000000 0.766790 -0.104885 -0.704831
    28 -0.000005 0.000007 3.713254 -3.285753 -0.168159 1.248752
    29 18.045723 0.000000 0.000000 0.000000 0.000000 -1.734485
    30 17.597597 0.000000 0.000000 -0.247857 0.195093 -0.163316
    31 0.000005 -0.000003 -3.713254 0.832722 2.321702 5.504676
    32 18.045721 0.000000 0.000000 0.000000 0.000000 -2.672193
    33 17.597597 0.000000 0.000000 0.381579 0.031645 0.766501
  time 10
    0 -1.268605 -1.949127 -20.600716 0.000000 0.000000 -1.585458
    1 -4.582175 0.453139 0.000000 -1.570795 -1.570787 0.000000
    2 1.293670 0.684478 -0.000001 -0.013177 -0.128224 0.196032
    3 5.309685 -0.003834 0.000000 -0.248364 0.054985 0.284501
    4 4.826790 -0.004591 0.000000 -0.219622 0.007610 0.395711
    5 5.792767 -0.005304 0.000000 -0.258250 -0.006232 0.070784
    6 6.662322 -0.001452 0.000000 0.012907 0.015846 0.680680
    7 -2.799584 2.180906 4.269311 1.530482 -1.723576 -5.349753
    8 4.827512 0.000000 -0.000002 -0.756358 -0.128685 -0.445670
    9 11.140032 0.000000 0.000000 0.000000 0.000000 -1.685310
    10 10.314563 -0.000001 0.000001 -1.416878 0.000000 -0.069778
    11 1.646836 0.445664 -1.699647 0.153911 0.442352 0.277231
    12 0.928312 0.000000 0.000000 0.000000 0.000000 0.000000
    13 0.928313 0.000000 -0.000001 0.000000 0.000000 0.000000
    14 2.979373 -0.388274 -0.044205 -0.038161 -0.021140 1.047514
    15 1.435262 -0.000001 -0.000001 0.000000 0.000000 0.924803
    16 1.482593 -0.000001 0.000001 0.000000 0.000000 1.326263
    17 -2.455824 1.903589 -4.202898 1.481056 1.220335 -2.355001
    18 4.972047 0.000000 0.000000 1.552225 -0.579933 -0.900545
    19 11.585358 0.000000 0.000001 0.000000 0.000000 -1.947229
    20 10.127058 0.000000 0.000001 2.684022 0.207379 -0.111446
    21 1.537458 0.109715 1.664489 -0.264662 -0.055995 0.783079
    22 0.928313 0.000000 0.000002 0.000000 0.000000 -0.453501
    23 0.928311 0.000000 0.000001 0.000000 0.000000 0.000000
    24 2.686395 -0.427337 0.044204 0.005971 0.043227 0.113528
    25 1.435260 0.000000 0.000001 0.000000 0.000000 1.090194
    26 1.482593 0.000000 -0.000001 0.000000 0.000000 1.168644
    27 2.046984 0.000001 0.000000 0.768556 -0.109753 -0.715476
    28 -0.000005 0.000007 3.713254 -3.286232 -0.167776 1.248944
    29 18.045723 0.000000 0.000000 0.000000 0.000000 -1.733819
    30 17.597597 0.000000 0.000000 -0.248415 0.195413 -0.163866
    31 0.000005 -0.000003 -3.713254 0.831572 2.320168 5.502471
    32 18.045721 0.000000 0.000000 0.000000 0.000000 -2.672430
    33 17.597597 0.000000 0.000000 0.381814 0.031310 0.764608
  time 11
    0 -1.249073 -1.933502 -20.600716 0.000000 0.000000 -1.585458
    1 -4.582175 0.453139 0.000000 -1.570795 -1.570787 0.000000
    2 1.293670 0.684478 -0.000001 -0.013177 -0.128224 0.196032
    3 5.309685 -0.003834 0.000000 -0.248398 0.054074 0.281499
    4 4.826790 -0.004591 0.000000 -0.220137 0.009132 0.405919
    5 5.792767 -0.005304 0.000000 -0.258448 -0.003188 0.090301
    6 6.662322 -0.001452 0.000000 0.012907 0.015846 0.680680
    7 -2.799584 2.180906 4.269311 1.531153 -1.723576 -5.350424
    8 4.827512 0.000000 -0.000002 -0.780831 -0.140367 -0.441165
    9 11.140032 0.000000 0.000000 0.000000 0.000000 -1.685310
    10 10.314563 -0.000001 0.000001 -1.416878 0.000000 -0.069778
    11 1.646836 0.445664 -1.699647 0.153911 0.442352 0.277231
    12 0.928312 0.000000 0.000000 0.000000 0.000000 0.000000
    13 0.928313 0.000000 -0.000001 0.000000 0.000000 0.000000
    14 2.979373 -0.388274 -0.044205 -0.038161 -0.021140 1.047514
    15 1.435262 -0.000001 -0.000001 0.000000 0.000000 0.924803
    16 1.482593 -0.000001 0.000001 0.000000 0.000000 1.326263
    17 -2.455824 1.903589 -4.202898 1.483731 1.220388 -2.352128
    18 4.972047 0.000000 0.000000 1.581959 -0.569728 -0.918448
    19 11.585358 0.000000 0.000001 0.000000 0.000000 -1.947229
    20 10.127058 0.000000 0.000001 2.683952 0.207568 -0.111746
    21 1.537458 0.109715 1.664489 -0.264662 -0.055995 0.783079
    22 0.928313 0.000000 0.000002 0.000000 0.000000 -0.453501
    23 0.928311 0.000000 0.000001 0.000000 0.000000 0.000000
    24 2.686395 -0.427337 0.044204 0.005971 0.043227 0.113528
    25 1.435260 0.000000 0.000001 0.000000 0.000000 1.090194
    26 1.482593 0.000000 -0.000001 0.000000 0.000000 1.168644
    27 2.046984 0.000001 0.000000 0.770840 -0.112969 -0.735671
    28 -0.000005 0.000007 3.713254 -3.286999 -0.167105 1.249231
    29 18.045723 0.000000 0.000000 0.000000 0.000000 -1.732931
    30 17.597597 0.000000 0.000000 -0.249226 0.195856 -0.164692
    31 0.000005 -0.000003 -3.713254 0.829656 2.318059 5.499403
    32 18.045721 0.000000 0.000000 0.000000 0.000000 -2.672744
    33 17.597597 0.000000 0.000000 0.382082 0.030974 0.761929
  time 12
    0 -1.225635 -1.933502 -20.600716 0.000000 0.000000 -1.585458
    1 -4.582175 0.453139 0.000000 -1.570795 -1.570787 0.000000
    2 1.293670 0.684478 -0.000001 -0.013177 -0.128224 0.196032
    3 5.309685 -0.003834 0.000000 -0.248415 0.051294 0.272243
    4 4.826790 -0.004591 0.000000 -0.220900 0.011397 0.420978
    5 5.792767 -0.005304 0.000000 -0.258628 0.000348 0.113327
    6 6.662322 -0.001452 0.000000 0.012907 0.015846 0.680680
    7 -2.799584 2.180906 4.269311 1.531824 -1.723576 -5.351190
    8 4.827512 0.000000 -0.000002 -0.807696 -0.151709 -0.435792
    9 11.140032 0.000000 0.000000 0.000000 0.000000 -1.685383
    10 10.314563 -0.000001 0.000001 -1.416878 0.000000 -0.069778
    11 1.646836 0.445664 -1.699647 0.153911 0.442352 0.277231
    12 0.928312 0.000000 0.000000 0.000000 0.000000 0.000000
    13 0.928313 0.000000 -0.000001 0.000000 0.000000 0.000000
    14 2.979373 -0.388274 -0.044205 -0.038161 -0.021140 1.047514
    15 1.435262 -0.000001 -0.000001 0.000000 0.000000 0.924803
    16 1.482593 -0.000001 0.000001 0.000000 0.000000 1.326263
    17 -2.455824 1.903589 -4.202898 1.482203 1.220362 -2.353852
    18 4.972047 0.000000 0.000000 1.612350 -0.556712 -0.936817
    19 11.585358 0.000000 0.000001 0.000000 0.000000 -1.947229
    20 10.127058 0.000000 0.000001 2.684022 0.207379 -0.111596
    21 1.537458 0.109715 1.664489 -0.264662 -0.055995 0.783079
    22 0.928313 0.000000 0.000002 0.000000 0.000000 -0.453501
    23 0.928311 0.000000 0.000001 0.000000 0.000000 0.000000
    24 2.686395 -0.427337 0.044204 0.005971 0.043227 0.113528
    25 1.435260 0.000000 0.000001 0.000000 0.000000 1.090194
    26 1.482593 0.000000 -0.000001 0.000000 0.000000 1.168644
    27 2.046984 0.000001 0.000000 0.773080 -0.116834 -0.758360
    28 -0.000005 0.000007 3.713254 -3.287575 -0.166625 1.249231
    29 18.045723 0.000000 0.000000 0.000000 0.000000 -1.733005
    30 17.597597 0.000000 0.000000 -0.249859 0.196225 -0.164554
    31 0.000005 -0.000003 -3.713254 0.827643 2.316621 5.497965
    32 18.045721 0.000000 0.000000 0.000000 0.000000 -2.672981
    33 17.597597 0.000000 0.000000 0.381445 0.031842 0.760405
  time 13
    0 -1.213916 -1.953034 -20.600716 0.000000 0.000000 -1.585458
    1 -4.582175 0.453139 0.000000 -1.570795 -1.570787 0.000000
    2 1.293670 0.684478 -0.000001 -0.013177 -0.128224 0.196032
    3 5.309685 -0.003834 0.000000 -0.248449 0.047171 0.258536
    4 4.826790 -0.004591 0.000000 -0.221701 0.013926 0.437646
    5 5.792767 -0.005304 0.000000 -0.258736 0.003919 0.136747
    6 6.662322 -0.001452 0.000000 0.010055 0.012905 0.638670
    7 -2.869899 2.055902 4.288843 1.505081 -1.723458 -5.282968
    8 4.827512 0.000000 -0.000002 -0.832886 -0.161259 -0.430593
    9 11.140032 0.000000 0.000000 0.000000 0.000000 -1.685383
    10 10.314563 -0.000001 0.000001 -1.416878 0.000000 -0.069778
    11 1.646836 0.445664 -1.699647 0.153911 0.442352 0.277231
    12 0.928312 0.000000 0.000000 0.000000 0.000000 0.000000
    13 0.928313 0.000000 -0.000001 0.000000 0.000000 0.000000
    14 2.979373 -0.388274 -0.044205 -0.038161 -0.021140 1.047514
    15 1.435262 -0.000001 -0.000001 0.000000 0.000000 0.924803
    16 1.482593 -0.000001 0.000001 0.000000 0.000000 1.326263
    17 -2.549577 1.805929 -4.187273 1.464147 1.219363 -2.329715
    18 4.972047 0.000000 0.000000 1.638144 -0.542570 -0.952458
    19 11.585358 0.000000 0.000001 0.000000 0.000000 -1.947148
    20 10.127058 0.000000 0.000001 2.684372 0.207190 -0.110896
    21 1.537458 0.109715 1.664489 -0.264662 -0.055995 0.783079
    22 0.928313 0.000000 0.000002 0.000000 0.000000 -0.453501
    23 0.928311 0.000000 0.000001 0.000000 0.000000 0.000000
    24 2.686395 -0.427337 0.044204 0.005971 0.043227 0.113528
    25 1.435260 0.000000 0.000001 0.000000 0.000000 1.090194
    26 1.482593 0.000000 -0.000001 0.000000 0.000000 1.168644
    27 2.046984 0.000001 0.000000 0.773123 -0.110638 -0.742788
    28 -0.000005 0.000007 3.713254 -3.287766 -0.166434 1.249135
    29 18.045723 0.000000 0.000000 0.000000 0.000000 -1.734115
    30 17.597597 0.000000 0.000000 -0.250163 0.196373 -0.163545
    31 0.000005 -0.000003 -3.713254 0.825822 2.316141 5.498636
    32 18.045721 0.000000 0.000000 0.000000 0.000000 -2.673217
    33 17.597597 0.000000 0.000000 0.380036 0.033795 0.760497
  time 14
    0 -1.206103 -1.953034 -20.600716 0.000000 0.000000 -1.585458
    1 -4.582175 0.453139 0.000000 -1.570795 -1.570787 0.000000
    2 1.293670 0.684478 -0.000001 -0.013177 -0.128224 0.196032
    3 5.309685 -0.003834 0.000000 -0.248415 0.044499 0.249580
    4 4.826790 -0.004591 0.000000 -0.222407 0.016215 0.452683
    5 5.792767 -0.005304 0.000000 -0.258754 0.007059 0.157261
    6 6.662322 -0.001452 0.000000 0.007359 0.009840 0.596774
    7 -2.940214 1.919179 4.300562 -1.559246 -1.418541 -2.177977
    8 4.827512 0.000000 -0.000002 -0.858874 -0.192896 -0.427734
    9 11.140032 0.000000 0.000000 0.000000 0.000000 -1.686469
    10 10.314563 -0.000001 0.000001 -1.416878 0.000000 -0.069778
    11 1.646836 0.445664 -1.699647 0.153911 0.442352 0.277231
    12 0.928312 0.000000 0.000000 0.000000 0.000000 0.000000
    13 0.928313 0.000000 -0.000001 0.000000 0.000000 0.000000
    14 2.979373 -0.388274 -0.044205 -0.038161 -0.021140 1.047514
    15 1.435262 -0.000001 -0.000001 0.000000 0.000000 0.924803
    16 1.482593 -0.000001 0.000001 0.000000 0.000000 1.326263
    17 -2.639423 1.712177 -4.171647 1.440933 1.218153 -2.311038
    18 4.972047 0.000000 0.000000 1.663564 -0.528107 -0.968032
    19 11.585358 0.000000 0.000001 0.000000 0.000000 -1.947066
    20 10.127058 0.000000 0.000001 2.684933 0.206906 -0.109595
    21 1.537458 0.109715 1.664489 -0.264662 -0.055995 0.783079
    22 0.928313 0.000000 0.000002 0.000000 0.000000 -0.453501
    23 0.928311 0.000000 0.000001 0.000000 0.000000 0.000000
    24 2.686395 -0.427337 0.044204 0.005971 0.043227 0.113528
    25 1.435260 0.000000 0.000001 0.000000 0.000000 1.090194
    26 1.482593 0.000000 -0.000001 0.000000 0.000000 1.168644
    27 2.046984 0.000001 0.000000 0.773123 -0.103233 -0.727520
    28 -0.000005 0.000007 3.713254 -3.288246 -0.165954 1.249231
    29 18.045723 0.000000 0.000000 0.000000 0.000000 -1.734337
    30 17.597597 0.000000 0.000000 -0.250670 0.196718 -0.163316
    31 0.000005 -0.000003 -3.713254 0.823905 2.314799 5.497582
    32 18.045721 0.000000 0.000000 0.000000 0.000000 -2.673453
    33 17.597597 0.000000 0.000000 0.379331 0.034722 0.759296
  time 15
    0 -1.182665 -1.941314 -20.600716 0.000000 0.000000 -1.585458
    1 -4.582175 0.453139 0.000000 -1.570795 -1.570787 0.000000
    2 1.293670 0.684478 -0.000001 -0.013177 -0.128224 0.196032
    3 5.309685 -0.003834 0.000000 -0.248398 0.043756 0.247143
    4 4.826790 -0.004591 0.000000 -0.222865 0.017773 0.462914
    5 5.792767 -0.005304 0.000000 -0.258736 0.009240 0.171691
    6 6.662322 -0.001452 0.000000 0.004770 0.006624 0.554821
    7 -3.006622 1.790269 4.312281 -1.491382 -1.418038 -2.205573
    8 4.827512 0.000000 -0.000002 -0.880398 -0.222145 -0.425134
    9 11.140032 0.000000 0.000000 0.000000 0.000000 -1.687411
    10 10.314563 -0.000001 0.000001 -1.416878 0.000000 -0.069778
    11 1.646836 0.445664 -1.699647 0.153911 0.442352 0.277231
    12 0.928312 0.000000 0.000000 0.000000 0.000000 0.000000
    13 0.928313 0.000000 -0.000001 0.000000 0.000000 0.000000
    14 2.979373 -0.388274 -0.044205 -0.038161 -0.021140 1.047514
    15 1.435262 -0.000001 -0.000001 0.000000 0.000000 0.924803
    16 1.482593 -0.000001 0.000001 0.000000 0.000000 1.326263
    17 -2.725363 1.606705 -4.163834 1.403962 1.216129 -2.307015
    18 4.972047 0.000000 0.000000 1.681854 -0.514046 -0.980544
    19 11.585358 0.000000 0.000001 0.000000 0.000000 -1.946739
    20 10.127058 0.000000 0.000001 2.686196 0.206055 -0.106794
    21 1.537458 0.109715 1.664489 -0.264662 -0.055995 0.783079
    22 0.928313 0.000000 0.000002 0.000000 0.000000 -0.453501
    23 0.928311 0.000000 0.000001 0.000000 0.000000 0.000000
    24 2.686395 -0.427337 0.044204 0.005971 0.043227 0.113528
    25 1.435260 0.000000 0.000001 0.000000 0.000000 1.090194
    26 1.482593 0.000000 -0.000001 0.000000 0.000000 1.168644
    27 2.046984 0.000001 0.000000 0.773037 -0.095326 -0.707507
    28 -0.000005 0.000007 3.713254 -3.288917 -0.165475 1.249423
    29 18.045723 0.000000 0.000000 0.000000 0.000000 -1.733523
    30 17.597597 0.000000 0.000000 -0.251379 0.197087 -0.164004
    31 0.000005 -0.000003 -3.713254 0.822180 2.312978 5.494897
    32 18.045721 0.000000 0.000000 0.000000 0.000000 -2.673532
    33 17.597597 0.000000 0.000000 0.379532 0.034485 0.756987
  time 16
    0 -1.182665 -1.933502 -20.600716 0.000000 0.000000 -1.585458
    1 -4.582175 0.453139 0.000000 -1.570795 -1.570787 0.000000
    2 1.293670 0.684478 -0.000001 -0.013177 -0.128224 0.196032
    3 5.309685 -0.003834 0.000000 -0.248398 0.043528 0.246454
    4 4.826790 -0.004591 0.000000 -0.222998 0.018432 0.467191
    5 5.792767 -0.005304 0.000000 -0.258700 0.010295 0.178272
    6 6.662322 -0.001452 0.000000 0.002289 0.003353 0.512868
    7 -3.057405 1.653546 4.331813 -1.443647 -1.417092 -2.212663
    8 4.827512 0.000000 -0.000002 -0.890601 -0.242013 -0.424788
    9 11.140032 0.000000 0.000000 0.000000 0.000000 -1.688136
    10 10.314563 -0.000001 0.000001 -1.416878 0.000000 -0.069778
    11 1.646836 0.445664 -1.699647 0.153911 0.442352 0.277231
    12 0.928312 0.000000 0.000000 0.000000 0.000000 0.000000
    13 0.928313 0.000000 -0.000001 0.000000 0.000000 0.000000
    14 2.979373 -0.388274 -0.044205 -0.038161 -0.021140 1.047514
    15 1.435262 -0.000001 -0.000001 0.000000 0.000000 0.924803
    16 1.482593 -0.000001 0.000001 0.000000 0.000000 1.326263
    17 -2.799584 1.501233 -4.148209 1.353235 1.212632 -2.317934
    18 4.972047 0.000000 0.000000 1.685043 -0.502878 -0.985469
    19 11.585358 0.000000 0.000001 0.000000 0.000000 -1.946249
    20 10.127058 0.000000 0.000001 2.688229 0.204731 -0.102342
    21 1.537458 0.109715 1.664489 -0.264662 -0.055995 0.783079
    22 0.928313 0.000000 0.000002 0.000000 0.000000 -0.453501
    23 0.928311 0.000000 0.000001 0.000000 0.000000 0.000000
    24 2.686395 -0.427337 0.044204 0.005971 0.043227 0.113528
    25 1.435260 0.000000 0.000001 0.000000 0.000000 1.090194
    26 1.482593 0.000000 -0.000001 0.000000 0.000000 1.168644
    27 2.046984 0.000001 0.000000 0.772606 -0.089425 -0.675694
    28 -0.000005 0.000007 3.713254 -3.289204 -0.165187 1.249519
    29 18.045723 0.000000 0.000000 0.000000 0.000000 -1.733153
    30 17.597597 0.000000 0.000000 -0.251734 0.197308 -0.164325
    31 0.000005 -0.000003 -3.713254 0.821317 2.312115 5.493555
    32 18.045721 0.000000 0.000000 0.000000 0.000000 -2.673768
    33 17.597597 0.000000 0.000000 0.379667 0.034288 0.755832
  time 17
    0 -1.174852 -1.933502 -20.600716 0.000000 0.000000 -1.585458
    1 -4.582175 0.453139 0.000000 -1.570795 -1.570787 0.000000
    2 1.293670 0.684478 -0.000001 -0.013177 -0.128224 0.196032
    3 5.309685 -0.003834 0.000000 -0.248398 0.043696 0.246931
    4 4.826790 -0.004591 0.000000 -0.223017 0.018516 0.467720
    5 5.792767 -0.005304 0.000000 -0.258700 0.010427 0.179145
    6 6.662322 -0.001452 0.000000 0.000000 -0.000001 0.471000
    7 -3.108188 1.516823 4.339626 -1.422847 -1.416264 -2.192158
    8 4.827512 0.000000 -0.000002 -0.892754 -0.252928 -0.425568
    9 11.140032 0.000000 0.000000 0.000000 0.000000 -1.688715
    10 10.314563 -0.000001 0.000001 -1.416878 0.000000 -0.069778
    11 1.646836 0.445664 -1.699647 0.153911 0.442352 0.277231
    12 0.928312 0.000000 0.000000 0.000000 0.000000 0.000000
    13 0.928313 0.000000 -0.000001 0.000000 0.000000 0.000000
    14 2.979373 -0.388274 -0.044205 -0.038161 -0.021140 1.047514
    15 1.435262 -0.000001 -0.000001 0.000000 0.000000 0.924803
    16 1.482593 -0.000001 0.000001 0.000000 0.000000 1.326263
    17 -2.869899 1.399667 -4.140396 1.301170 1.208084 -2.330002
    18 4.972047 0.000000 0.000000 1.679134 -0.495084 -0.985536
    19 11.585358 0.000000 0.000001 0.000000 0.000000 -1.945759
    20 10.127058 0.000000 0.000001 2.690333 0.203597 -0.097640
    21 1.537458 0.109715 1.664489 -0.264662 -0.055995 0.783079
    22 0.928313 0.000000 0.000002 0.000000 0.000000 -0.453501
    23 0.928311 0.000000 0.000001 0.000000 0.000000 0.000000
    24 2.686395 -0.427337 0.044204 0.005971 0.043227 0.113528
    25 1.435260 0.000000 0.000001 0.000000 0.000000 1.090194
    26 1.482593 0.000000 -0.000001 0.000000 0.000000 1.168644
    27 2.046984 0.000001 0.000000 0.772391 -0.084852 -0.635547
    28 -0.000005 0.000007 3.713254 -3.289300 -0.165091 1.249519
    29 18.045723 0.000000 0.000000 0.000000 0.000000 -1.732931
    30 17.597597 0.000000 0.000000 -0.251810 0.197358 -0.164508
    31 0.000005 -0.000003 -3.713254 0.821317 2.311827 5.493076
    32 18.045721 0.000000 0.000000 0.000000 0.000000 -2.673768
    33 17.597597 0.000000 0.000000 0.379801 0.034130 0.755416
  time 18
    0 -1.182665 -1.933502 -20.600716 0.000000 0.000000 -1.585458
    1 -4.582175 0.453139 0.000000 -1.570795 -1.570787 0.000000
    2 1.293670 0.684478 -0.000001 -0.013177 -0.128224 0.196032
    3 5.309685 -0.003834 0.000000 -0.248398 0.043995 0.248026
    4 4.826790 -0.004591 0.000000 -0.222960 0.018277 0.466133
    5 5.792767 -0.005304 0.000000 -0.258718 0.010007 0.176674
    6 6.662322 -0.001452 0.000000 0.000000 -0.000001 0.471000
    7 -3.108188 1.516823 4.339626 -1.406743 -1.415880 -2.208639
    8 4.827512 0.000000 -0.000002 -0.889964 -0.255316 -0.426867
    9 11.140032 0.000000 0.000000 0.000000 0.000000 -1.688788
    10 10.314563 -0.000001 0.000001 -1.416878 0.000000 -0.069778
    11 1.646836 0.445664 -1.699647 0.153911 0.442352 0.277231
    12 0.928312 0.000000 0.000000 0.000000 0.000000 0.000000
    13 0.928313 0.000000 -0.000001 0.000000 0.000000 0.000000
    14 2.979373 -0.388274 -0.044205 -0.038161 -0.021140 1.047514
    15 1.435262 -0.000001 -0.000001 0.000000 0.000000 0.924803
    16 1.482593 -0.000001 0.000001 0.000000 0.000000 1.326263
    17 -2.869899 1.399667 -4.140396 1.270791 1.204745 -2.362472
    18 4.972047 0.000000 0.000000 1.670223 -0.491227 -0.983007
    19 11.585358 0.000000 0.000001 0.000000 0.000000 -1.945351
    20 10.127058 0.000000 0.000001 2.692016 0.202556 -0.094038
    21 1.537458 0.109715 1.664489 -0.264662 -0.055995 0.783079
    22 0.928313 0.000000 0.000002 0.000000 0.000000 -0.453501
    23 0.928311 0.000000 0.000001 0.000000 0.000000 0.000000
    24 2.686395 -0.427337 0.044204 0.005971 0.043227 0.113528
    25 1.435260 0.000000 0.000001 0.000000 0.000000 1.090194
    26 1.482593 0.000000 -0.000001 0.000000 0.000000 1.168644
    27 2.046984 0.000001 0.000000 0.772391 -0.085206 -0.632444
    28 -0.000005 0.000007 3.713254 -3.289204 -0.165091 1.249519
    29 18.045723 0.000000 0.000000 0.000000 0.000000 -1.732857
    30 17.597597 0.000000 0.000000 -0.251760 0.197308 -0.164554
    31 0.000005 -0.000003 -3.713254 0.821509 2.311923 5.493076
    32 18.045721 0.000000 0.000000 0.000000 0.000000 -2.673768
    33 17.597597 0.000000 0.000000 0.379868 0.033953 0.755509
  time 19
    0 -1.182665 -1.933502 -20.600716 0.000000 0.000000 -1.585458
    1 -4.582175 0.453139 0.000000 -1.570795 -1.570787 0.000000
    2 1.293670 0.684478 -0.000001 -0.013177 -0.128224 0.196032
    3 5.309685 -0.003834 0.000000 -0.248415 0.044355 0.249103
    4 4.826790 -0.004591 0.000000 -0.222903 0.017965 0.463972
    5 5.792767 -0.005304 0.000000 -0.258718 0.009528 0.173352
    6 6.662322 -0.001452 0.000000 0.000000 -0.000001 0.471000
    7 -3.108188 1.516823 4.339626 -1.406456 -1.415850 -2.208926
    8 4.827512 0.000000 -0.000002 -0.885818 -0.253696 -0.427907
    9 11.140032 0.000000 0.000000 0.000000 0.000000 -1.688788
    10 10.314563 -0.000001 0.000001 -1.416878 0.000000 -0.069778
    11 1.646836 0.445664 -1.699647 0.153911 0.442352 0.277231
    12 0.928312 0.000000 0.000000 0.000000 0.000000 0.000000
    13 0.928313 0.000000 -0.000001 0.000000 0.000000 0.000000
    14 2.979373 -0.388274 -0.044205 -0.038161 -0.021140 1.047514
    15 1.435262 -0.000001 -0.000001 0.000000 0.000000 0.924803
    16 1.482593 -0.000001 0.000001 0.000000 0.000000 1.326263
    17 -2.869899 1.399667 -4.140396 1.265441 1.204114 -2.368123
    18 4.972047 0.000000 0.000000 1.664783 -0.492352 -0.980212
    19 11.585358 0.000000 0.000001 0.000000 0.000000 -1.945269
    20 10.127058 0.000000 0.000001 2.692296 0.202367 -0.093388
    21 1.537458 0.109715 1.664489 -0.264662 -0.055995 0.783079
    22 0.928313 0.000000 0.000002 0.000000 0.000000 -0.453501
    23 0.928311 0.000000 0.000001 0.000000 0.000000 0.000000
    24 2.686395 -0.427337 0.044204 0.005971 0.043227 0.113528
    25 1.435260 0.000000 0.000001 0.000000 0.000000 1.090194
    26 1.482593 0.000000 -0.000001 0.000000 0.000000 1.168644
    27 2.046984 0.000001 0.000000 0.772261 -0.085767 -0.628126
    28 -0.000005 0.000007 3.713254 -3.289109 -0.165187 1.249519
    29 18.045723 0.000000 0.000000 0.000000 0.000000 -1.732857
    30 17.597597 0.000000 0.000000 -0.251684 0.197234 -0.164554
    31 0.000005 -0.000003 -3.713254 0.821796 2.312211 5.493363
    32 18.045721 0.000000 0.000000 0.000000 0.000000 -2.673768
    33 17.597597 0.000000 0.000000 0.379969 0.033874 0.755786
  time 20
    0 -1.182665 -1.933502 -20.600716 0.000000 0.000000 -1.585458
    1 -4.582175 0.453139 0.000000 -1.570795 -1.570787 0.000000
    2 1.293670 0.684478 -0.000001 -0.013177 -0.128224 0.196032
    3 5.309685 -0.003834 0.000000 -0.248415 0.044499 0.249580
    4 4.826790 -0.004591 0.000000 -0.222865 0.017773 0.462914
    5 5.792767 -0.005304 0.000000 -0.258736 0.009240 0.171691
    6 6.662322 -0.001452 0.000000 0.000000 -0.000001 0.471000
    7 -3.108188 1.516823 4.339626 -1.406743 -1.415880 -2.208639
    8 4.827512 0.000000 -0.000002 -0.883746 -0.252673 -0.428427
    9 11.140032 0.000000 0.000000 0.000000 0.000000 -1.688788
    10 10.314563 -0.000001 0.000001 -1.416878 0.000000 -0.069778
    11 1.646836 0.445664 -1.699647 0.153911 0.442352 0.277231
    12 0.928312 0.000000 0.000000 0.000000 0.000000 0.000000
    13 0.928313 0.000000 -0.000001 0.000000 0.000000 0.000000
    14 2.979373 -0.388274 -0.044205 -0.038161 -0.021140 1.047514
    15 1.435262 -0.000001 -0.000001 0.000000 0.000000 0.924803
    16 1.482593 -0.000001 0.000001 0.000000 0.000000 1.326263
    17 -2.869899 1.399667 -4.140396 1.270791 1.204745 -2.362472
    18 4.972047 0.000000 0.000000 1.663564 -0.494361 -0.979014
    19 11.585358 0.000000 0.000001 0.000000 0.000000 -1.945351
    20 10.127058 0.000000 0.000001 2.692016 0.202556 -0.094038
    21 1.537458 0.109715 1.664489 -0.264662 -0.055995 0.783079
    22 0.928313 0.000000 0.000002 0.000000 0.000000 -0.453501
    23 0.928311 0.000000 0.000001 0.000000 0.000000 0.000000
    24 2.686395 -0.427337 0.044204 0.005971 0.043227 0.113528
    25 1.435260 0.000000 0.000001 0.000000 0.000000 1.090194
    26 1.482593 0.000000 -0.000001 0.000000 0.000000 1.168644
    27 2.046984 0.000001 0.000000 0.772261 -0.086062 -0.625997
    28 -0.000005 0.000007 3.713254 -3.289109 -0.165283 1.249519
    29 18.045723 0.000000 0.000000 0.000000 0.000000 -1.732931
    30 17.597597 0.000000 0.000000 -0.251607 0.197234 -0.164508
    31 0.000005 -0.000003 -3.713254 0.821892 2.312307 5.493555
    32 18.045721 0.000000 0.000000 0.000000 0.000000 -2.673768
    33 17.597597 0.000000 0.000000 0.379969 0.033854 0.755924
end
