version 1
nodes
  0 "Bip01" -1
  1 "Bip01 Pelvis" 0
  2 "Bip01 Spine" 1
  3 "Bip01 Spine1" 2
  4 "Bip01 Spine2" 3
  5 "Bip01 Spine3" 4
  6 "Bip01 Neck" 5
  7 "Bip01 L Arm" 6
  8 "Bip01 L Arm1" 7
  9 "Bip01 L Arm2" 8
  10 "Bip01 L Hand" 9
  11 "Bip01 L Finger0" 10
  12 "Bip01 L Finger01" 11
  13 "Bip01 L Finger02" 12
  14 "Bip01 L Finger1" 10
  15 "Bip01 L Finger11" 14
  16 "Bip01 L Finger12" 15
  17 "Bip01 R Arm" 6
  18 "Bip01 R Arm1" 17
  19 "Bip01 R Arm2" 18
  20 "Bip01 R Hand" 19
  21 "Bip01 R Finger0" 20
  22 "Bip01 R Finger01" 21
  23 "Bip01 R Finger02" 22
  24 "Bip01 R Finger1" 20
  25 "Bip01 R Finger11" 24
  26 "Bip01 R Finger12" 25
  27 "Bip01 Head" 6
  28 "Bip01 L Leg" 1
  29 "Bip01 L Leg1" 28
  30 "Bip01 L Foot" 29
  31 "Bip01 R Leg" 1
  32 "Bip01 R Leg1" 31
  33 "Bip01 R Foot" 32
end
skeleton
  time 0
    0 -0.975627 0.195469 -20.585090 0.000000 0.000000 -1.571017
    1 -2.894624 -0.230476 0.000000 -1.570795 -1.570787 0.000000
    2 1.293670 0.684478 -0.000001 -0.048803 -0.015713 0.147885
    3 5.309685 -0.003834 0.000000 -0.049673 0.008845 0.076159
    4 4.826790 -0.004591 0.000000 -0.085663 -0.048010 0.206691
    5 5.792767 -0.005304 0.000000 -0.258825 -0.057071 -0.030103
    6 6.662322 -0.001452 0.000000 -0.091910 0.032655 0.231870
    7 -3.518356 0.356631 4.277124 -3.478511 -0.849542 0.020190
    8 4.827512 0.000000 -0.000002 -1.174792 -0.272115 -0.705188
    9 11.140032 0.000000 0.000000 0.000000 0.000000 -1.236969
    10 10.314563 -0.000001 0.000001 -4.113927 0.347618 0.795075
    11 1.646836 0.445664 -1.699647 -0.392035 3.352851 -0.875707
    12 0.928312 0.000000 0.000000 0.000000 0.000000 0.593404
    13 0.928313 0.000000 -0.000001 0.000000 0.000000 1.204231
    14 2.979373 -0.388274 -0.044205 -0.030851 -0.030823 0.768363
    15 1.435262 -0.000001 -0.000001 0.000000 0.000000 0.418706
    16 1.482593 -0.000001 0.000001 0.000000 0.000000 0.794048
    17 -2.975371 1.071532 -4.156022 -1.569180 0.892704 -4.936661
    18 4.972047 0.000000 0.000000 1.124972 0.711042 -1.582937
    19 11.585358 0.000000 0.000001 0.000000 0.000000 -0.719091
    20 10.127058 0.000000 0.000001 1.865675 0.354616 0.425335
    21 1.537458 0.109715 1.664489 -3.079588 0.031470 0.928526
    22 0.928313 0.000000 0.000002 0.000000 0.000000 0.061034
    23 0.928311 0.000000 0.000001 0.000000 0.000000 0.671897
    24 2.686395 -0.427337 0.044204 -0.001208 0.043611 -0.052337
    25 1.435260 0.000000 0.000001 0.000000 0.000000 1.186618
    26 1.482593 0.000000 -0.000001 0.000000 0.000000 1.684243
    27 2.046984 0.000001 0.000000 0.177674 0.573075 -1.030142
    28 -0.000005 0.000007 3.713254 -3.289109 -0.165283 1.249519
    29 18.045723 0.000000 0.000000 0.000000 0.000000 -1.732931
    30 17.597597 0.000000 0.000000 -0.251607 0.197234 -0.164508
    31 0.000005 -0.000003 -3.713254 0.821892 2.312307 5.493555
    32 18.045721 0.000000 0.000000 0.000000 0.000000 -2.673768
    33 17.597597 0.000000 0.000000 0.379969 0.033854 0.755924
  time 1
    0 -0.963908 0.304848 -20.585090 0.000000 0.000000 -1.571682
    1 -2.281324 -0.093753 0.000000 -1.570795 -1.570787 0.000000
    2 1.293670 0.684478 -0.000001 -0.052088 -0.011338 0.092706
    3 5.309685 -0.003834 0.000000 -0.036212 0.015940 0.063830
    4 4.826790 -0.004591 0.000000 -0.053923 -0.042857 0.183099
    5 5.792767 -0.005304 0.000000 -0.168383 -0.018828 0.018358
    6 6.662322 -0.001452 0.000000 -0.091910 0.032655 0.231870
    7 -3.518356 0.356631 4.277124 -3.621237 -0.995909 0.174170
    8 4.827512 0.000000 -0.000002 -0.996147 -0.080249 -0.923461
    9 11.140032 0.000000 0.000000 0.000000 0.000000 -1.262038
    10 10.314563 -0.000001 0.000001 -3.454189 0.014800 0.833920
    11 1.646836 0.445664 -1.699647 -0.392035 3.352851 -0.875707
    12 0.928312 0.000000 0.000000 0.000000 0.000000 0.593404
    13 0.928313 0.000000 -0.000001 0.000000 0.000000 1.204231
    14 2.979373 -0.388274 -0.044205 -0.030863 -0.030811 0.768711
    15 1.435262 -0.000001 -0.000001 0.000000 0.000000 0.623235
    16 1.482593 -0.000001 0.000001 0.000000 0.000000 0.741692
    17 -2.975371 1.071532 -4.156022 -1.423589 0.979173 -4.763491
    18 4.972047 0.000000 0.000000 0.818439 0.158639 -1.531490
    19 11.585358 0.000000 0.000001 0.000000 0.000000 -1.023267
    20 10.127058 0.000000 0.000001 1.907749 0.256931 0.546738
    21 1.537458 0.109715 1.664489 -3.079588 0.031470 0.928526
    22 0.928313 0.000000 0.000002 0.000000 0.000000 0.061034
    23 0.928311 0.000000 0.000001 0.000000 0.000000 0.671897
    24 2.686395 -0.427337 0.044204 -0.001208 0.043611 -0.052337
    25 1.435260 0.000000 0.000001 0.000000 0.000000 1.186618
    26 1.482593 0.000000 -0.000001 0.000000 0.000000 1.684243
    27 2.046984 0.000001 0.000000 0.272198 0.319611 -0.665718
    28 -0.000005 0.000007 3.713254 -3.291218 -0.163461 1.245780
    29 18.045723 0.000000 0.000000 0.000000 0.000000 -1.764757
    30 17.597597 0.000000 0.000000 -0.255383 0.199056 -0.136633
    31 0.000005 -0.000003 -3.713254 0.786047 2.310006 5.525096
    32 18.045721 0.000000 0.000000 0.000000 0.000000 -2.676287
    33 17.597597 0.000000 0.000000 0.343766 0.083360 0.769457
  time 2
    0 -0.952189 0.418133 -20.588997 0.000000 0.000000 -1.572347
    1 -1.644585 0.027345 0.000000 -1.570795 -1.570787 0.000000
    2 1.293670 0.684478 -0.000001 -0.055676 -0.007072 0.036021
    3 5.309685 -0.003834 0.000000 -0.022360 0.023442 0.051324
    4 4.826790 -0.004591 0.000000 -0.021459 -0.036937 0.159088
    5 5.792767 -0.005304 0.000000 -0.073948 0.015436 0.071490
    6 6.662322 -0.001452 0.000000 -0.091910 0.032655 0.231870
    7 -3.518356 0.356631 4.277124 -3.858569 -1.124003 -5.854524
    8 4.827512 0.000000 -0.000002 -0.801478 0.151781 -1.093902
    9 11.140032 0.000000 0.000000 0.000000 0.000000 -1.287324
    10 10.314563 -0.000001 0.000001 -2.759479 -0.278300 0.651543
    11 1.646836 0.445664 -1.699647 -0.392035 3.352851 -0.875707
    12 0.928312 0.000000 0.000000 0.000000 0.000000 0.593404
    13 0.928313 0.000000 -0.000001 0.000000 0.000000 1.204231
    14 2.979373 -0.388274 -0.044205 -0.030887 -0.030787 0.769319
    15 1.435262 -0.000001 -0.000001 0.000000 0.000000 0.833363
    16 1.482593 -0.000001 0.000001 0.000000 0.000000 0.689069
    17 -2.975371 1.071532 -4.156022 -1.222877 1.045793 -4.544537
    18 4.972047 0.000000 0.000000 0.476355 -0.312289 -1.242107
    19 11.585358 0.000000 0.000001 0.000000 0.000000 -1.327361
    20 10.127058 0.000000 0.000001 1.936781 0.155180 0.661387
    21 1.537458 0.109715 1.664489 -3.079588 0.031470 0.928526
    22 0.928313 0.000000 0.000002 0.000000 0.000000 0.061034
    23 0.928311 0.000000 0.000001 0.000000 0.000000 0.671897
    24 2.686395 -0.427337 0.044204 -0.001208 0.043611 -0.052337
    25 1.435260 0.000000 0.000001 0.000000 0.000000 1.186618
    26 1.482593 0.000000 -0.000001 0.000000 0.000000 1.684243
    27 2.046984 0.000001 0.000000 0.226013 0.092464 -0.307072
    28 -0.000005 0.000007 3.713254 -3.293327 -0.161927 1.242617
    29 18.045723 0.000000 0.000000 0.000000 0.000000 -1.797768
    30 17.597597 0.000000 0.000000 -0.258981 0.200852 -0.107154
    31 0.000005 -0.000003 -3.713254 0.749052 2.309143 5.559609
    32 18.045721 0.000000 0.000000 0.000000 0.000000 -2.676917
    33 17.597597 0.000000 0.000000 0.306994 0.136535 0.782159
  time 3
    0 -0.932657 0.527511 -20.588997 0.000000 0.000000 -1.573012
    1 -1.043005 0.136723 0.000000 -1.570795 -1.570787 0.000000
    2 1.293670 0.684478 -0.000001 -0.059331 -0.003249 -0.017818
    3 5.309685 -0.003834 0.000000 -0.009564 0.030669 0.039472
    4 4.826790 -0.004591 0.000000 0.008965 -0.030273 0.136467
    5 5.792767 -0.005304 0.000000 0.017628 0.043528 0.124788
    6 6.662322 -0.001452 0.000000 -0.091910 0.032655 0.231870
    7 -3.518356 0.356631 4.277124 2.064192 -1.204786 -5.473071
    8 4.827512 0.000000 -0.000002 -0.583612 0.406578 -1.176653
    9 11.140032 0.000000 0.000000 0.000000 0.000000 -1.312393
    10 10.314563 -0.000001 0.000001 -2.018707 -0.370755 0.319769
    11 1.646836 0.445664 -1.699647 -0.392035 3.352851 -0.875707
    12 0.928312 0.000000 0.000000 0.000000 0.000000 0.593404
    13 0.928313 0.000000 -0.000001 0.000000 0.000000 1.204231
    14 2.979373 -0.388274 -0.044205 -0.030887 -0.030787 0.769405
    15 1.435262 -0.000001 -0.000001 0.000000 0.000000 1.032500
    16 1.482593 -0.000001 0.000001 0.000000 0.000000 0.637034
    17 -2.975371 1.071532 -4.156022 -1.010319 1.083204 -4.324817
    18 4.972047 0.000000 0.000000 0.047884 -0.583147 -0.759980
    19 11.585358 0.000000 0.000001 0.000000 0.000000 -1.591187
    20 10.127058 0.000000 0.000001 1.944424 0.073098 0.756728
    21 1.537458 0.109715 1.664489 -3.079588 0.031470 0.928526
    22 0.928313 0.000000 0.000002 0.000000 0.000000 0.061034
    23 0.928311 0.000000 0.000001 0.000000 0.000000 0.671897
    24 2.686395 -0.427337 0.044204 -0.001208 0.043611 -0.052337
    25 1.435260 0.000000 0.000001 0.000000 0.000000 1.186618
    26 1.482593 0.000000 -0.000001 0.000000 0.000000 1.684243
    27 2.046984 0.000001 0.000000 0.096506 -0.031156 0.045066
    28 -0.000005 0.000007 3.713254 -3.295244 -0.160489 1.240412
    29 18.045723 0.000000 0.000000 0.000000 0.000000 -1.827670
    30 17.597597 0.000000 0.000000 -0.262047 0.202402 -0.079600
    31 0.000005 -0.000003 -3.713254 0.715507 2.309623 5.592109
    32 18.045721 0.000000 0.000000 0.000000 0.000000 -2.675500
    33 17.597597 0.000000 0.000000 0.274550 0.186297 0.792090
  time 4
    0 -0.920938 0.640796 -20.588997 0.000000 0.000000 -1.573582
    1 -0.535177 0.218757 0.000000 -1.570795 -1.570787 0.000000
    2 1.293670 0.684478 -0.000001 -0.062632 -0.000193 -0.064358
    3 5.309685 -0.003834 0.000000 0.000698 0.036913 0.029068
    4 4.826790 -0.004591 0.000000 0.034582 -0.023070 0.117042
    5 5.792767 -0.005304 0.000000 0.098915 0.064693 0.173269
    6 6.662322 -0.001452 0.000000 -0.091910 0.032655 0.231870
    7 -3.518356 0.356631 4.277124 1.661897 -1.219984 -5.047830
    8 4.827512 0.000000 -0.000002 -0.327640 0.645259 -1.140693
    9 11.140032 0.000000 0.000000 0.000000 0.000000 -1.336737
    10 10.314563 -0.000001 0.000001 -1.392805 -0.250854 0.045304
    11 1.646836 0.445664 -1.699647 -0.392035 3.352851 -0.875707
    12 0.928312 0.000000 0.000000 0.000000 0.000000 0.593404
    13 0.928313 0.000000 -0.000001 0.000000 0.000000 1.204231
    14 2.979373 -0.388274 -0.044205 -0.030851 -0.030823 0.768363
    15 1.435262 -0.000001 -0.000001 0.000000 0.000000 1.204014
    16 1.482593 -0.000001 0.000001 0.000000 0.000000 0.586654
    17 -2.975371 1.071532 -4.156022 -0.997040 1.107444 -4.317059
    18 4.972047 0.000000 0.000000 -0.016462 -0.708492 -0.525106
    19 11.585358 0.000000 0.000001 0.000000 0.000000 -1.639950
    20 10.127058 0.000000 0.000001 1.898002 0.109032 0.769233
    21 1.537458 0.109715 1.664489 -3.079588 0.031470 0.928526
    22 0.928313 0.000000 0.000002 0.000000 0.000000 0.061034
    23 0.928311 0.000000 0.000001 0.000000 0.000000 0.671897
    24 2.686395 -0.427337 0.044204 -0.001208 0.043611 -0.052337
    25 1.435260 0.000000 0.000001 0.000000 0.000000 1.186618
    26 1.482593 0.000000 -0.000001 0.000000 0.000000 1.684243
    27 2.046984 0.000001 0.000000 -0.036534 -0.044403 0.332360
    28 -0.000005 0.000007 3.713254 -3.296874 -0.159339 1.239262
    29 18.045723 0.000000 0.000000 0.000000 0.000000 -1.851206
    30 17.597597 0.000000 0.000000 -0.264556 0.203707 -0.057410
    31 0.000005 -0.000003 -3.713254 0.688863 2.310581 5.617994
    32 18.045721 0.000000 0.000000 0.000000 0.000000 -2.673217
    33 17.597597 0.000000 0.000000 0.249587 0.226198 0.798556
  time 5
    0 -0.909219 0.750174 -20.592903 0.000000 0.000000 -1.574152
    1 -0.546896 0.218757 0.000000 -1.570795 -1.570787 0.000000
    2 1.293670 0.684478 -0.000001 -0.062296 -0.001367 -0.059453
    3 5.309685 -0.003834 0.000000 -0.005956 0.035175 0.028379
    4 4.826790 -0.004591 0.000000 0.026666 -0.016623 0.118498
    5 5.792767 -0.005304 0.000000 0.097098 0.070002 0.170902
    6 6.662322 -0.001452 0.000000 -0.091910 0.032655 0.231870
    7 -3.518356 0.356631 4.277124 1.661801 -1.219984 -5.047734
    8 4.827512 0.000000 -0.000002 -0.321183 0.701966 -1.103174
    9 11.140032 0.000000 0.000000 0.000000 0.000000 -1.356662
    10 10.314563 -0.000001 0.000001 -1.510232 -0.208514 0.070271
    11 1.646836 0.445664 -1.699647 -0.392035 3.352851 -0.875707
    12 0.928312 0.000000 0.000000 0.000000 0.000000 0.593404
    13 0.928313 0.000000 -0.000001 0.000000 0.000000 1.204231
    14 2.979373 -0.388274 -0.044205 -0.030575 -0.031111 0.758766
    15 1.435262 -0.000001 -0.000001 0.000000 0.000000 1.179983
    16 1.482593 -0.000001 0.000001 0.000000 0.000000 0.547601
    17 -2.975371 1.071532 -4.156022 -1.054454 1.096954 -4.374527
    18 4.972047 0.000000 0.000000 0.051073 -0.725124 -0.574224
    19 11.585358 0.000000 0.000001 0.000000 0.000000 -1.550184
    20 10.127058 0.000000 0.000001 1.879490 0.138726 0.746674
    21 1.537458 0.109715 1.664489 -3.079588 0.031470 0.928526
    22 0.928313 0.000000 0.000002 0.000000 0.000000 0.061034
    23 0.928311 0.000000 0.000001 0.000000 0.000000 0.671897
    24 2.686395 -0.427337 0.044204 -0.001208 0.043611 -0.052337
    25 1.435260 0.000000 0.000001 0.000000 0.000000 1.186618
    26 1.482593 0.000000 -0.000001 0.000000 0.000000 1.684243
    27 2.046984 0.000001 0.000000 -0.034337 -0.063993 0.437715
    28 -0.000005 0.000007 3.713254 -3.297450 -0.158859 1.239645
    29 18.045723 0.000000 0.000000 0.000000 0.000000 -1.844101
    30 17.597597 0.000000 0.000000 -0.265747 0.204027 -0.064195
    31 0.000005 -0.000003 -3.713254 0.691930 2.305692 5.606010
    32 18.045721 0.000000 0.000000 0.000000 0.000000 -2.674634
    33 17.597597 0.000000 0.000000 0.254285 0.214679 0.791766
  time 6
    0 -0.889687 0.863459 -20.592903 0.000000 0.000000 -1.574817
    1 -0.542989 0.144536 0.000000 -1.570795 -1.570787 0.000000
    2 1.293670 0.684478 -0.000001 -0.062077 -0.002122 -0.056356
    3 5.309685 -0.003834 0.000000 -0.010210 0.034060 0.027973
    4 4.826790 -0.004591 0.000000 -0.010815 -0.026810 0.121320
    5 5.792767 -0.005304 0.000000 0.046930 0.037188 0.163739
    6 6.662322 -0.001452 0.000000 -0.091910 0.032655 0.231870
    7 -3.518356 0.356631 4.277124 1.711165 -1.246478 -5.098614
    8 4.827512 0.000000 -0.000002 -0.210457 0.814187 -0.984549
    9 11.140032 0.000000 0.000000 0.000000 0.000000 -1.725449
    10 10.314563 -0.000001 0.000001 -1.562833 -0.199241 0.114631
    11 1.646836 0.445664 -1.699647 -0.392035 3.352851 -0.875707
    12 0.928312 0.000000 0.000000 0.000000 0.000000 0.593404
    13 0.928313 0.000000 -0.000001 0.000000 0.000000 1.204231
    14 2.979373 -0.388274 -0.044205 -0.031546 -0.030116 0.791032
    15 1.435262 -0.000001 -0.000001 0.000000 0.000000 1.187046
    16 1.482593 -0.000001 0.000001 0.000000 0.000000 0.541030
    17 -2.975371 1.071532 -4.156022 -1.093336 1.077289 -4.410828
    18 4.972047 0.000000 0.000000 0.111667 -0.748426 -0.741012
    19 11.585358 0.000000 0.000001 0.000000 0.000000 -1.356276
    20 10.127058 0.000000 0.000001 1.866587 0.154045 0.744973
    21 1.537458 0.109715 1.664489 -3.079588 0.031470 0.928526
    22 0.928313 0.000000 0.000002 0.000000 0.000000 0.061034
    23 0.928311 0.000000 0.000001 0.000000 0.000000 0.671897
    24 2.686395 -0.427337 0.044204 -0.001208 0.043611 -0.052337
    25 1.435260 0.000000 0.000001 0.000000 0.000000 1.186618
    26 1.482593 0.000000 -0.000001 0.000000 0.000000 1.684243
    27 2.046984 0.000001 0.000000 0.063375 -0.082492 0.429746
    28 -0.000005 0.000007 3.713254 -3.295149 -0.160585 1.239549
    29 18.045723 0.000000 0.000000 0.000000 0.000000 -1.838106
    30 17.597597 0.000000 0.000000 -0.264049 0.202476 -0.069972
    31 0.000005 -0.000003 -3.713254 0.702856 2.308568 5.601600
    32 18.045721 0.000000 0.000000 0.000000 0.000000 -2.674949
    33 17.597597 0.000000 0.000000 0.262236 0.202096 0.793383
  time 7
    0 -0.877968 0.976743 -20.592903 0.000000 0.000000 -1.575482
    1 -0.535177 0.093753 0.000000 -1.570795 -1.570787 0.000000
    2 1.293670 0.684478 -0.000001 -0.061976 -0.002506 -0.054933
    3 5.309685 -0.003834 0.000000 -0.012150 0.033581 0.027814
    4 4.826790 -0.004591 0.000000 -0.047686 -0.036721 0.129654
    5 5.792767 -0.005304 0.000000 -0.006871 0.008329 0.163967
    6 6.662322 -0.001452 0.000000 -0.091910 0.032655 0.231870
    7 -3.518356 0.356631 4.277124 1.761776 -1.268891 -5.150068
    8 4.827512 0.000000 -0.000002 -0.080279 0.911484 -0.902925
    9 11.140032 0.000000 0.000000 0.000000 0.000000 -1.943317
    10 10.314563 -0.000001 0.000001 -1.615434 -0.167299 0.088445
    11 1.646836 0.445664 -1.699647 -0.392035 3.352851 -0.875707
    12 0.928312 0.000000 0.000000 0.000000 0.000000 0.593404
    13 0.928313 0.000000 -0.000001 0.000000 0.000000 1.204231
    14 2.979373 -0.388274 -0.044205 -0.030287 -0.031411 0.749907
    15 1.435262 -0.000001 -0.000001 0.000000 0.000000 1.157917
    16 1.482593 -0.000001 0.000001 0.000000 0.000000 0.511700
    17 -2.975371 1.071532 -4.156022 -1.103940 1.070795 -4.420693
    18 4.972047 0.000000 0.000000 0.145247 -0.746578 -0.876718
    19 11.585358 0.000000 0.000001 0.000000 0.000000 -1.222239
    20 10.127058 0.000000 0.000001 1.860205 0.161043 0.747724
    21 1.537458 0.109715 1.664489 -3.079588 0.031470 0.928526
    22 0.928313 0.000000 0.000002 0.000000 0.000000 0.061034
    23 0.928311 0.000000 0.000001 0.000000 0.000000 0.671897
    24 2.686395 -0.427337 0.044204 -0.001208 0.043611 -0.052337
    25 1.435260 0.000000 0.000001 0.000000 0.000000 1.186618
    26 1.482593 0.000000 -0.000001 0.000000 0.000000 1.684243
    27 2.046984 0.000001 0.000000 0.148593 -0.102820 0.411194
    28 -0.000005 0.000007 3.713254 -3.293615 -0.161832 1.239645
    29 18.045723 0.000000 0.000000 0.000000 0.000000 -1.831962
    30 17.597597 0.000000 0.000000 -0.262985 0.201393 -0.075932
    31 0.000005 -0.000003 -3.713254 0.711770 2.309814 5.595752
    32 18.045721 0.000000 0.000000 0.000000 0.000000 -2.675500
    33 17.597597 0.000000 0.000000 0.269349 0.189946 0.793106
  time 8
    0 -0.866249 1.086122 -20.592903 0.000000 0.000000 -1.576147
    1 -0.542989 0.070315 0.000000 -1.570795 -1.570787 0.000000
    2 1.293670 0.684478 -0.000001 -0.061992 -0.002362 -0.055502
    3 5.309685 -0.003834 0.000000 -0.011401 0.033773 0.027867
    4 4.826790 -0.004591 0.000000 -0.075458 -0.040772 0.149079
    5 5.792767 -0.005304 0.000000 -0.053783 -0.000024 0.178335
    6 6.662322 -0.001452 0.000000 -0.091910 0.032655 0.231870
    7 -3.518356 0.356631 4.277124 1.772319 -1.273061 -5.160704
    8 4.827512 0.000000 -0.000002 0.021281 0.985757 -0.979437
    9 11.140032 0.000000 0.000000 0.000000 0.000000 -1.654735
    10 10.314563 -0.000001 0.000001 -1.726796 -0.073252 -0.120990
    11 1.646836 0.445664 -1.699647 -0.392035 3.352851 -0.875707
    12 0.928312 0.000000 0.000000 0.000000 0.000000 0.593404
    13 0.928313 0.000000 -0.000001 0.000000 0.000000 1.204231
    14 2.979373 -0.388274 -0.044205 -0.021035 -0.038242 0.485217
    15 1.435262 -0.000001 -0.000001 0.000000 0.000000 1.009348
    16 1.482593 -0.000001 0.000001 0.000000 0.000000 0.396036
    17 -2.975371 1.071532 -4.156022 -1.081681 1.088200 -4.401154
    18 4.972047 0.000000 0.000000 0.130145 -0.709938 -0.922508
    19 11.585358 0.000000 0.000001 0.000000 0.000000 -1.217502
    20 10.127058 0.000000 0.000001 1.861818 0.160759 0.749625
    21 1.537458 0.109715 1.664489 -3.079588 0.031470 0.928526
    22 0.928313 0.000000 0.000002 0.000000 0.000000 0.061034
    23 0.928311 0.000000 0.000001 0.000000 0.000000 0.671897
    24 2.686395 -0.427337 0.044204 -0.001208 0.043611 -0.052337
    25 1.435260 0.000000 0.000001 0.000000 0.000000 1.186618
    26 1.482593 0.000000 -0.000001 0.000000 0.000000 1.684243
    27 2.046984 0.000001 0.000000 0.184955 -0.138873 0.411498
    28 -0.000005 0.000007 3.713254 -3.293615 -0.161736 1.240029
    29 18.045723 0.000000 0.000000 0.000000 0.000000 -1.825079
    30 17.597597 0.000000 0.000000 -0.263694 0.201344 -0.082442
    31 0.000005 -0.000003 -3.713254 0.716274 2.306459 5.585110
    32 18.045721 0.000000 0.000000 0.000000 0.000000 -2.676602
    33 17.597597 0.000000 0.000000 0.274952 0.178368 0.787563
  time 9
    0 -0.846717 1.191594 -20.596809 0.000000 0.000000 -1.576812
    1 -0.554708 0.070315 0.000000 -1.570795 -1.570787 0.000000
    2 1.293670 0.684478 -0.000001 -0.062077 -0.002074 -0.056590
    3 5.309685 -0.003834 0.000000 -0.009904 0.034144 0.028008
    4 4.826790 -0.004591 0.000000 -0.104318 -0.043936 0.174192
    5 5.792767 -0.005304 0.000000 -0.103879 -0.004051 0.198662
    6 6.662322 -0.001452 0.000000 -0.091910 0.032655 0.231870
    7 -3.518356 0.356631 4.277124 1.767048 -1.270961 -5.155338
    8 4.827512 0.000000 -0.000002 0.110564 1.054061 -1.098755
    9 11.140032 0.000000 0.000000 0.000000 0.000000 -1.191323
    10 10.314563 -0.000001 0.000001 -1.874173 0.005527 -0.402365
    11 1.646836 0.445664 -1.699647 -0.392035 3.352851 -0.875707
    12 0.928312 0.000000 0.000000 0.000000 0.000000 0.593404
    13 0.928313 0.000000 -0.000001 0.000000 0.000000 1.204231
    14 2.979373 -0.388274 -0.044205 -0.007469 -0.043000 0.154430
    15 1.435262 -0.000001 -0.000001 0.000000 0.000000 0.826676
    16 1.482593 -0.000001 0.000001 0.000000 0.000000 0.256918
    17 -2.975371 1.071532 -4.156022 -1.051493 1.110231 -4.374719
    18 4.972047 0.000000 0.000000 0.113824 -0.660363 -0.963706
    19 11.585358 0.000000 0.000001 0.000000 0.000000 -1.237432
    20 10.127058 0.000000 0.000001 1.865114 0.159246 0.751826
    21 1.537458 0.109715 1.664489 -3.079588 0.031470 0.928526
    22 0.928313 0.000000 0.000002 0.000000 0.000000 0.061034
    23 0.928311 0.000000 0.000001 0.000000 0.000000 0.671897
    24 2.686395 -0.427337 0.044204 -0.001208 0.043611 -0.052337
    25 1.435260 0.000000 0.000001 0.000000 0.000000 1.186618
    26 1.482593 0.000000 -0.000001 0.000000 0.000000 1.684243
    27 2.046984 0.000001 0.000000 0.213174 -0.179440 0.403712
    28 -0.000005 0.000007 3.713254 -3.293998 -0.161352 1.240604
    29 18.045723 0.000000 0.000000 0.000000 0.000000 -1.818122
    30 17.597597 0.000000 0.000000 -0.264708 0.201566 -0.088815
    31 0.000005 -0.000003 -3.713254 0.719629 2.302433 5.573606
    32 18.045721 0.000000 0.000000 0.000000 0.000000 -2.677704
    33 17.597597 0.000000 0.000000 0.280186 0.167343 0.781097
  time 10
    0 -0.834998 1.308785 -20.596809 0.000000 0.000000 -1.577477
    1 -0.535177 0.070315 0.000000 -1.570795 -1.570787 0.000000
    2 1.293670 0.684478 -0.000001 -0.062195 -0.001751 -0.058013
    3 5.309685 -0.003834 0.000000 -0.007947 0.034647 0.028220
    4 4.826790 -0.004591 0.000000 -0.129973 -0.045218 0.198599
    5 5.792767 -0.005304 0.000000 -0.150305 -0.003919 0.218760
    6 6.662322 -0.001452 0.000000 -0.091910 0.032655 0.231870
    7 -3.518356 0.356631 4.277124 1.761776 -1.268891 -5.150068
    8 4.827512 0.000000 -0.000002 0.144124 1.085357 -1.187571
    9 11.140032 0.000000 0.000000 0.000000 0.000000 -0.857820
    10 10.314563 -0.000001 0.000001 -1.970561 0.028102 -0.601115
    11 1.646836 0.445664 -1.699647 -0.392035 3.352851 -0.875707
    12 0.928312 0.000000 0.000000 0.000000 0.000000 0.593404
    13 0.928313 0.000000 -0.000001 0.000000 0.000000 1.204231
    14 2.979373 -0.388274 -0.044205 -0.000530 -0.043611 -0.006512
    15 1.435262 -0.000001 -0.000001 0.000000 0.000000 0.740878
    16 1.482593 -0.000001 0.000001 0.000000 0.000000 0.194999
    17 -2.975371 1.071532 -4.156022 -1.012707 1.134734 -4.339855
    18 4.972047 0.000000 0.000000 0.095815 -0.608136 -0.991592
    19 11.585358 0.000000 0.000001 0.000000 0.000000 -1.273452
    20 10.127058 0.000000 0.000001 1.869532 0.156315 0.754177
    21 1.537458 0.109715 1.664489 -3.079588 0.031470 0.928526
    22 0.928313 0.000000 0.000002 0.000000 0.000000 0.061034
    23 0.928311 0.000000 0.000001 0.000000 0.000000 0.671897
    24 2.686395 -0.427337 0.044204 -0.001208 0.043611 -0.052337
    25 1.435260 0.000000 0.000001 0.000000 0.000000 1.186618
    26 1.482593 0.000000 -0.000001 0.000000 0.000000 1.684243
    27 2.046984 0.000001 0.000000 0.230192 -0.218326 0.392702
    28 -0.000005 0.000007 3.713254 -3.294573 -0.160969 1.241083
    29 18.045723 0.000000 0.000000 0.000000 0.000000 -1.812348
    30 17.597597 0.000000 0.000000 -0.265874 0.201836 -0.094225
    31 0.000005 -0.000003 -3.713254 0.721450 2.298502 5.563348
    32 18.045721 0.000000 0.000000 0.000000 0.000000 -2.678570
    33 17.597597 0.000000 0.000000 0.284313 0.158349 0.774861
  time 11
    0 -0.823279 1.414257 -20.596809 0.000000 0.000000 -1.578142
    1 -0.500019 0.070315 0.000000 -1.570795 -1.570787 0.000000
    2 1.293670 0.684478 -0.000001 -0.062296 -0.001367 -0.059503
    3 5.309685 -0.003834 0.000000 -0.005922 0.035187 0.028396
    4 4.826790 -0.004591 0.000000 -0.148284 -0.044067 0.216061
    5 5.792767 -0.005304 0.000000 -0.186173 -0.000647 0.232360
    6 6.662322 -0.001452 0.000000 -0.091910 0.032655 0.231870
    7 -3.518356 0.356631 4.277124 1.758996 -1.265668 -5.147385
    8 4.827512 0.000000 -0.000002 0.099722 1.076403 -1.235836
    9 11.140032 0.000000 0.000000 0.000000 0.000000 -0.738055
    10 10.314563 -0.000001 0.000001 -1.970845 0.015175 -0.675727
    11 1.646836 0.445664 -1.699647 -0.392035 3.352851 -0.875707
    12 0.928312 0.000000 0.000000 0.000000 0.000000 0.593404
    13 0.928313 0.000000 -0.000001 0.000000 0.000000 1.204231
    14 2.979373 -0.388274 -0.044205 -0.004497 -0.043395 0.085468
    15 1.435262 -0.000001 -0.000001 0.000000 0.000000 0.798342
    16 1.482593 -0.000001 0.000001 0.000000 0.000000 0.246661
    17 -2.975371 1.071532 -4.156022 -0.964654 1.159552 -4.295892
    18 4.972047 0.000000 0.000000 0.073022 -0.562577 -0.995985
    19 11.585358 0.000000 0.000001 0.000000 0.000000 -1.316661
    20 10.127058 0.000000 0.000001 1.874511 0.152532 0.756478
    21 1.537458 0.109715 1.664489 -3.079588 0.031470 0.928526
    22 0.928313 0.000000 0.000002 0.000000 0.000000 0.061034
    23 0.928311 0.000000 0.000001 0.000000 0.000000 0.671897
    24 2.686395 -0.427337 0.044204 -0.001208 0.043611 -0.052337
    25 1.435260 0.000000 0.000001 0.000000 0.000000 1.186618
    26 1.482593 0.000000 -0.000001 0.000000 0.000000 1.684243
    27 2.046984 0.000001 0.000000 0.232949 -0.249865 0.384672
    28 -0.000005 0.000007 3.713254 -3.294957 -0.160585 1.241467
    29 18.045723 0.000000 0.000000 0.000000 0.000000 -1.808278
    30 17.597597 0.000000 0.000000 -0.266938 0.202058 -0.097938
    31 0.000005 -0.000003 -3.713254 0.722025 2.295147 5.555487
    32 18.045721 0.000000 0.000000 0.000000 0.000000 -2.679121
    33 17.597597 0.000000 0.000000 0.286930 0.152038 0.769781
  time 12
    0 -0.803747 1.531448 -20.596809 0.000000 0.000000 -1.578902
    1 -0.425798 0.070315 0.000000 -1.570795 -1.570787 0.000000
    2 1.293670 0.684478 -0.000001 -0.062397 -0.001056 -0.060809
    3 5.309685 -0.003834 0.000000 -0.004067 0.035642 0.028591
    4 4.826790 -0.004591 0.000000 -0.155036 -0.040280 0.220250
    5 5.792767 -0.005304 0.000000 -0.204718 0.004171 0.233481
    6 6.662322 -0.001452 0.000000 -0.091910 0.032655 0.231870
    7 -3.518356 0.356631 4.277124 1.754682 -1.260287 -5.143265
    8 4.827512 0.000000 -0.000002 0.004460 1.057643 -1.298224
    9 11.140032 0.000000 0.000000 0.000000 0.000000 -0.698568
    10 10.314563 -0.000001 0.000001 -1.921656 -0.008712 -0.698430
    11 1.646836 0.445664 -1.699647 -0.392035 3.352851 -0.875707
    12 0.928312 0.000000 0.000000 0.000000 0.000000 0.593404
    13 0.928313 0.000000 -0.000001 0.000000 0.000000 1.204231
    14 2.979373 -0.388274 -0.044205 -0.013665 -0.041442 0.301041
    15 1.435262 -0.000001 -0.000001 0.000000 0.000000 0.926224
    16 1.482593 -0.000001 0.000001 0.000000 0.000000 0.354952
    17 -2.975371 1.071532 -4.156022 -0.906858 1.182293 -4.241967
    18 4.972047 0.000000 0.000000 0.038973 -0.531562 -0.965436
    19 11.585358 0.000000 0.000001 0.000000 0.000000 -1.358399
    20 10.127058 0.000000 0.000001 1.879419 0.147804 0.758479
    21 1.537458 0.109715 1.664489 -3.079588 0.031470 0.928526
    22 0.928313 0.000000 0.000002 0.000000 0.000000 0.061034
    23 0.928311 0.000000 0.000001 0.000000 0.000000 0.671897
    24 2.686395 -0.427337 0.044204 -0.001208 0.043611 -0.052337
    25 1.435260 0.000000 0.000001 0.000000 0.000000 1.186618
    26 1.482593 0.000000 -0.000001 0.000000 0.000000 1.684243
    27 2.046984 0.000001 0.000000 0.218344 -0.269396 0.386741
    28 -0.000005 0.000007 3.713254 -3.295149 -0.160393 1.241562
    29 18.045723 0.000000 0.000000 0.000000 0.000000 -1.806057
    30 17.597597 0.000000 0.000000 -0.267774 0.202181 -0.100001
    31 0.000005 -0.000003 -3.713254 0.721737 2.292750 5.550502
    32 18.045721 0.000000 0.000000 0.000000 0.000000 -2.679672
    33 17.597597 0.000000 0.000000 0.288071 0.148408 0.766455
  time 13
    0 -0.792028 1.636920 -20.600716 0.000000 0.000000 -1.579567
    1 -0.289075 0.070315 0.000000 -1.570795 -1.570787 0.000000
    2 1.293670 0.684478 -0.000001 -0.062515 -0.001068 -0.065245
    3 5.309685 -0.003834 0.000000 -0.002331 0.036877 0.028909
    4 4.826790 -0.004591 0.000000 -0.130144 -0.027337 0.187707
    5 5.792767 -0.005304 0.000000 -0.176711 0.017665 0.202586
    6 6.662322 -0.001452 0.000000 -0.091910 0.032655 0.231870
    7 -3.518356 0.356631 4.277124 1.753724 -1.259222 -5.142498
    8 4.827512 0.000000 -0.000002 -0.166054 1.063612 -1.488162
    9 11.140032 0.000000 0.000000 0.000000 0.000000 -0.717261
    10 10.314563 -0.000001 0.000001 -1.858061 -0.030912 -0.674508
    11 1.646836 0.445664 -1.699647 -0.392035 3.352851 -0.875707
    12 0.928312 0.000000 0.000000 0.000000 0.000000 0.593404
    13 0.928313 0.000000 -0.000001 0.000000 0.000000 1.204231
    14 2.979373 -0.388274 -0.044205 -0.023696 -0.036648 0.556264
    15 1.435262 -0.000001 -0.000001 0.000000 0.000000 1.076674
    16 1.482593 -0.000001 0.000001 0.000000 0.000000 0.480179
    17 -2.975371 1.071532 -4.156022 -0.840845 1.200723 -4.179231
    18 4.972047 0.000000 0.000000 -0.045446 -0.526581 -0.823540
    19 11.585358 0.000000 0.000001 0.000000 0.000000 -1.390010
    20 10.127058 0.000000 0.000001 1.883697 0.142603 0.759979
    21 1.537458 0.109715 1.664489 -3.079588 0.031470 0.928526
    22 0.928313 0.000000 0.000002 0.000000 0.000000 0.061034
    23 0.928311 0.000000 0.000001 0.000000 0.000000 0.671897
    24 2.686395 -0.427337 0.044204 -0.001208 0.043611 -0.052337
    25 1.435260 0.000000 0.000001 0.000000 0.000000 1.186618
    26 1.482593 0.000000 -0.000001 0.000000 0.000000 1.684243
    27 2.046984 0.000001 0.000000 0.130714 -0.268216 0.450307
    28 -0.000005 0.000007 3.713254 -3.295244 -0.160393 1.241467
    29 18.045723 0.000000 0.000000 0.000000 0.000000 -1.807612
    30 17.597597 0.000000 0.000000 -0.268534 0.202230 -0.098672
    31 0.000005 -0.000003 -3.713254 0.718862 2.291600 5.550885
    32 18.045721 0.000000 0.000000 0.000000 0.000000 -2.679908
    33 17.597597 0.000000 0.000000 0.285622 0.150539 0.765670
  time 14
    0 -0.772496 1.754111 -20.600716 0.000000 0.000000 -1.580232
    1 -0.152352 0.082034 0.000000 -1.570795 -1.570787 0.000000
    2 1.293670 0.684478 -0.000001 -0.062616 -0.001068 -0.069598
    3 5.309685 -0.003834 0.000000 -0.000562 0.038075 0.029209
    4 4.826790 -0.004591 0.000000 -0.082096 -0.006388 0.130911
    5 5.792767 -0.005304 0.000000 -0.114222 0.039274 0.149475
    6 6.662322 -0.001452 0.000000 -0.091910 0.032655 0.231870
    7 -3.518356 0.356631 4.277124 1.761871 -1.268862 -5.150164
    8 4.827512 0.000000 -0.000002 -0.365506 1.067790 -1.785026
    9 11.140032 0.000000 0.000000 0.000000 0.000000 -0.772035
    10 10.314563 -0.000001 0.000001 -1.814938 -0.039998 -0.606457
    11 1.646836 0.445664 -1.699647 -0.392035 3.352851 -0.875707
    12 0.928312 0.000000 0.000000 0.000000 0.000000 0.593404
    13 0.928313 0.000000 -0.000001 0.000000 0.000000 1.204231
    14 2.979373 -0.388274 -0.044205 -0.030827 -0.030847 0.767364
    15 1.435262 -0.000001 -0.000001 0.000000 0.000000 1.201631
    16 1.482593 -0.000001 0.000001 0.000000 0.000000 0.582754
    17 -2.975371 1.071532 -4.156022 -0.734232 1.208478 -4.074639
    18 4.972047 0.000000 0.000000 -0.204528 -0.540401 -0.598450
    19 11.585358 0.000000 0.000001 0.000000 0.000000 -1.406754
    20 10.127058 0.000000 0.000001 1.886151 0.132201 0.761030
    21 1.537458 0.109715 1.664489 -3.079588 0.031470 0.928526
    22 0.928313 0.000000 0.000002 0.000000 0.000000 0.061034
    23 0.928311 0.000000 0.000001 0.000000 0.000000 0.671897
    24 2.686395 -0.427337 0.044204 -0.001208 0.043611 -0.052337
    25 1.435260 0.000000 0.000001 0.000000 0.000000 1.186618
    26 1.482593 0.000000 -0.000001 0.000000 0.000000 1.684243
    27 2.046984 0.000001 0.000000 0.003576 -0.238270 0.530600
    28 -0.000005 0.000007 3.713254 -3.295436 -0.160298 1.241275
    29 18.045723 0.000000 0.000000 0.000000 0.000000 -1.809462
    30 17.597597 0.000000 0.000000 -0.269345 0.202304 -0.097113
    31 0.000005 -0.000003 -3.713254 0.715507 2.290353 5.551460
    32 18.045721 0.000000 0.000000 0.000000 0.000000 -2.679908
    33 17.597597 0.000000 0.000000 0.282803 0.153122 0.764839
  time 15
    0 -0.764683 1.859583 -20.600716 0.000000 0.000000 -1.580897
    1 -0.097663 0.070315 0.000000 -1.570795 -1.570787 0.000000
    2 1.293670 0.684478 -0.000001 -0.062632 -0.000193 -0.064358
    3 5.309685 -0.003834 0.000000 0.000698 0.036913 0.029068
    4 4.826790 -0.004591 0.000000 -0.047686 0.006807 0.096207
    5 5.792767 -0.005304 0.000000 -0.070908 0.050982 0.110440
    6 6.662322 -0.001452 0.000000 -0.091910 0.032655 0.231870
    7 -3.518356 0.356631 4.277124 1.864722 -1.353518 -5.250006
    8 4.827512 0.000000 -0.000002 -0.152502 0.926321 -1.767609
    9 11.140032 0.000000 0.000000 0.000000 0.000000 -1.184368
    10 10.314563 -0.000001 0.000001 -1.841097 0.047023 -0.150254
    11 1.646836 0.445664 -1.699647 -0.392035 3.352851 -0.875707
    12 0.928312 0.000000 0.000000 0.000000 0.000000 0.593404
    13 0.928313 0.000000 -0.000001 0.000000 0.000000 1.204231
    14 2.979373 -0.388274 -0.044205 -0.031821 -0.029853 0.800065
    15 1.435262 -0.000001 -0.000001 0.000000 0.000000 1.221859
    16 1.482593 -0.000001 0.000001 0.000000 0.000000 0.584998
    17 -2.975371 1.071532 -4.156022 -0.629720 1.202405 -3.971101
    18 4.972047 0.000000 0.000000 -0.314460 -0.535580 -0.460614
    19 11.585358 0.000000 0.000001 0.000000 0.000000 -1.411001
    20 10.127058 0.000000 0.000001 1.890429 0.117732 0.757578
    21 1.537458 0.109715 1.664489 -3.079588 0.031470 0.928526
    22 0.928313 0.000000 0.000002 0.000000 0.000000 0.061034
    23 0.928311 0.000000 0.000001 0.000000 0.000000 0.671897
    24 2.686395 -0.427337 0.044204 -0.001208 0.043611 -0.052337
    25 1.435260 0.000000 0.000001 0.000000 0.000000 1.186618
    26 1.482593 0.000000 -0.000001 0.000000 0.000000 1.684243
    27 2.046984 0.000001 0.000000 -0.041317 -0.206790 0.495016
    28 -0.000005 0.000007 3.713254 -3.295244 -0.160393 1.241467
    29 18.045723 0.000000 0.000000 0.000000 0.000000 -1.806353
    30 17.597597 0.000000 0.000000 -0.269903 0.202230 -0.099910
    31 0.000005 -0.000003 -3.713254 0.716849 2.288628 5.546092
    32 18.045721 0.000000 0.000000 0.000000 0.000000 -2.680459
    33 17.597597 0.000000 0.000000 0.285118 0.147955 0.761698
  time 16
    0 -0.749058 1.972867 -20.600716 0.000000 0.000000 -1.581562
    1 -0.089850 0.050783 0.000000 -1.570795 -1.570787 0.000000
    2 1.293670 0.684478 -0.000001 -0.062548 0.001509 -0.049425
    3 5.309685 -0.003834 0.000000 0.001549 0.033269 0.028449
    4 4.826790 -0.004591 0.000000 -0.033800 0.007610 0.090959
    5 5.792767 -0.005304 0.000000 -0.057381 0.047735 0.091858
    6 6.662322 -0.001452 0.000000 -0.091910 0.032655 0.231870
    7 -3.518356 0.356631 4.277124 1.982429 -1.422887 -5.364030
    8 4.827512 0.000000 -0.000002 -0.065691 0.677408 -1.673420
    9 11.140032 0.000000 0.000000 0.000000 0.000000 -1.600322
    10 10.314563 -0.000001 0.000001 -1.838158 0.134513 0.330046
    11 1.646836 0.445664 -1.699647 -0.392035 3.352851 -0.875707
    12 0.928312 0.000000 0.000000 0.000000 0.000000 0.593404
    13 0.928313 0.000000 -0.000001 0.000000 0.000000 1.204231
    14 2.979373 -0.388274 -0.044205 -0.030851 -0.030823 0.768363
    15 1.435262 -0.000001 -0.000001 0.000000 0.000000 1.204014
    16 1.482593 -0.000001 0.000001 0.000000 0.000000 0.586654
    17 -2.975371 1.071532 -4.156022 -0.642903 1.181136 -3.979625
    18 4.972047 0.000000 0.000000 -0.241297 -0.488013 -0.513459
    19 11.585358 0.000000 0.000001 0.000000 0.000000 -1.385272
    20 10.127058 0.000000 0.000001 1.905926 0.103453 0.736619
    21 1.537458 0.109715 1.664489 -3.079588 0.031470 0.928526
    22 0.928313 0.000000 0.000002 0.000000 0.000000 0.061034
    23 0.928311 0.000000 0.000001 0.000000 0.000000 0.671897
    24 2.686395 -0.427337 0.044204 -0.001208 0.043611 -0.052337
    25 1.435260 0.000000 0.000001 0.000000 0.000000 1.186618
    26 1.482593 0.000000 -0.000001 0.000000 0.000000 1.684243
    27 2.046984 0.000001 0.000000 0.030115 -0.177729 0.284366
    28 -0.000005 0.000007 3.713254 -3.294957 -0.160489 1.241850
    29 18.045723 0.000000 0.000000 0.000000 0.000000 -1.800284
    30 17.597597 0.000000 0.000000 -0.270207 0.202009 -0.105549
    31 0.000005 -0.000003 -3.713254 0.721450 2.286806 5.537080
    32 18.045721 0.000000 0.000000 0.000000 0.000000 -2.680774
    33 17.597597 0.000000 0.000000 0.290956 0.137659 0.757356
  time 17
    0 -0.733432 2.082246 -20.600716 0.000000 0.000000 -1.582227
    1 -0.078131 0.031251 0.000000 -1.570795 -1.570787 0.000000
    2 1.293670 0.684478 -0.000001 -0.062413 0.003510 -0.031663
    3 5.309685 -0.003834 0.000000 0.002280 0.028991 0.027708
    4 4.826790 -0.004591 0.000000 -0.023538 0.005453 0.091753
    5 5.792767 -0.005304 0.000000 -0.048945 0.040820 0.076888
    6 6.662322 -0.001452 0.000000 -0.091910 0.032655 0.231870
    7 -3.518356 0.356631 4.277124 1.740113 -1.384655 -5.121322
    8 4.827512 0.000000 -0.000002 -0.426968 0.456804 -1.463033
    9 11.140032 0.000000 0.000000 0.000000 0.000000 -1.621044
    10 10.314563 -0.000001 0.000001 -1.851522 0.105662 0.408257
    11 1.646836 0.445664 -1.699647 -0.392035 3.352851 -0.875707
    12 0.928312 0.000000 0.000000 0.000000 0.000000 0.593404
    13 0.928313 0.000000 -0.000001 0.000000 0.000000 1.204231
    14 2.979373 -0.388274 -0.044205 -0.030743 -0.030931 0.764846
    15 1.435262 -0.000001 -0.000001 0.000000 0.000000 1.202049
    16 1.482593 -0.000001 0.000001 0.000000 0.000000 0.680361
    17 -2.975371 1.071532 -4.156022 -0.917271 1.107602 -4.235167
    18 4.972047 0.000000 0.000000 0.115888 -0.192327 -0.736020
    19 11.585358 0.000000 0.000001 0.000000 0.000000 -1.317233
    20 10.127058 0.000000 0.000001 1.955784 0.092105 0.671992
    21 1.537458 0.109715 1.664489 -3.079588 0.031470 0.928526
    22 0.928313 0.000000 0.000002 0.000000 0.000000 0.061034
    23 0.928311 0.000000 0.000001 0.000000 0.000000 0.671897
    24 2.686395 -0.427337 0.044204 -0.001208 0.043611 -0.052337
    25 1.435260 0.000000 0.000001 0.000000 0.000000 1.186618
    26 1.482593 0.000000 -0.000001 0.000000 0.000000 1.684243
    27 2.046984 0.000001 0.000000 0.126922 -0.120758 -0.000008
    28 -0.000005 0.000007 3.713254 -3.294861 -0.160681 1.242329
    29 18.045723 0.000000 0.000000 0.000000 0.000000 -1.794215
    30 17.597597 0.000000 0.000000 -0.270587 0.201787 -0.111096
    31 0.000005 -0.000003 -3.713254 0.725763 2.284697 5.527972
    32 18.045721 0.000000 0.000000 0.000000 0.000000 -2.681325
    33 17.597597 0.000000 0.000000 0.296761 0.127600 0.752691
  time 18
    0 -0.717807 2.195530 -20.600716 0.000000 0.000000 -1.582893
    1 -0.066412 0.019532 0.000000 -1.570795 -1.570787 0.000000
    2 1.293670 0.684478 -0.000001 -0.062211 0.005704 -0.011925
    3 5.309685 -0.003834 0.000000 0.002944 0.024173 0.026860
    4 4.826790 -0.004591 0.000000 -0.015889 0.001043 0.096912
    5 5.792767 -0.005304 0.000000 -0.044178 0.031172 0.064534
    6 6.662322 -0.001452 0.000000 -0.091910 0.032655 0.231870
    7 -3.518356 0.356631 4.277124 1.569111 -1.316941 -4.948179
    8 4.827512 0.000000 -0.000002 -0.858077 0.290436 -1.165909
    9 11.140032 0.000000 0.000000 0.000000 0.000000 -1.563009
    10 10.314563 -0.000001 0.000001 -1.872467 0.055548 0.410464
    11 1.646836 0.445664 -1.699647 -0.392035 3.352851 -0.875707
    12 0.928312 0.000000 0.000000 0.000000 0.000000 0.593404
    13 0.928313 0.000000 -0.000001 0.000000 0.000000 1.204231
    14 2.979373 -0.388274 -0.044205 -0.030803 -0.030871 0.766583
    15 1.435262 -0.000001 -0.000001 0.000000 0.000000 1.203094
    16 1.482593 -0.000001 0.000001 0.000000 0.000000 0.791110
    17 -2.975371 1.071532 -4.156022 -1.143872 0.993843 -4.443872
    18 4.972047 0.000000 0.000000 0.370175 0.200260 -0.835187
    19 11.585358 0.000000 0.000001 0.000000 0.000000 -1.171598
    20 10.127058 0.000000 0.000001 2.012725 0.083689 0.595659
    21 1.537458 0.109715 1.664489 -3.079588 0.031470 0.928526
    22 0.928313 0.000000 0.000002 0.000000 0.000000 0.061034
    23 0.928311 0.000000 0.000001 0.000000 0.000000 0.671897
    24 2.686395 -0.427337 0.044204 -0.001208 0.043611 -0.052337
    25 1.435260 0.000000 0.000001 0.000000 0.000000 1.186618
    26 1.482593 0.000000 -0.000001 0.000000 0.000000 1.684243
    27 2.046984 0.000001 0.000000 0.183749 -0.050510 -0.245026
    28 -0.000005 0.000007 3.713254 -3.294669 -0.160681 1.242809
    29 18.045723 0.000000 0.000000 0.000000 0.000000 -1.788442
    30 17.597597 0.000000 0.000000 -0.271119 0.201689 -0.116369
    31 0.000005 -0.000003 -3.713254 0.729213 2.282588 5.519056
    32 18.045721 0.000000 0.000000 0.000000 0.000000 -2.681640
    33 17.597597 0.000000 0.000000 0.302129 0.118231 0.747980
  time 19
    0 -0.698275 2.304909 -20.600716 0.000000 0.000000 -1.583558
    1 -0.039068 0.007813 0.000000 -1.570795 -1.570787 0.000000
    2 1.293670 0.684478 -0.000001 -0.061942 0.007993 0.009135
    3 5.309685 -0.003834 0.000000 0.003506 0.019044 0.025977
    4 4.826790 -0.004591 0.000000 -0.009957 -0.004794 0.104806
    5 5.792767 -0.005304 0.000000 -0.041624 0.019787 0.053800
    6 6.662322 -0.001452 0.000000 -0.091910 0.032655 0.231870
    7 -3.518356 0.356631 4.277124 1.477763 -1.245798 -4.852456
    8 4.827512 0.000000 -0.000002 -1.187707 0.138222 -0.889061
    9 11.140032 0.000000 0.000000 0.000000 0.000000 -1.430492
    10 10.314563 -0.000001 0.000001 -1.893129 0.004965 0.400709
    11 1.646836 0.445664 -1.699647 -0.392035 3.352851 -0.875707
    12 0.928312 0.000000 0.000000 0.000000 0.000000 0.593404
    13 0.928313 0.000000 -0.000001 0.000000 0.000000 1.204231
    14 2.979373 -0.388274 -0.044205 -0.030851 -0.030823 0.768363
    15 1.435262 -0.000001 -0.000001 0.000000 0.000000 1.204014
    16 1.482593 -0.000001 0.000001 0.000000 0.000000 0.897157
    17 -2.975371 1.071532 -4.156022 -1.307136 0.847852 -4.592810
    18 4.972047 0.000000 0.000000 0.500649 0.488474 -0.891160
    19 11.585358 0.000000 0.000001 0.000000 0.000000 -0.787539
    20 10.127058 0.000000 0.000001 2.079974 0.073382 0.498717
    21 1.537458 0.109715 1.664489 -3.079588 0.031470 0.928526
    22 0.928313 0.000000 0.000002 0.000000 0.000000 0.061034
    23 0.928311 0.000000 0.000001 0.000000 0.000000 0.671897
    24 2.686395 -0.427337 0.044204 -0.001208 0.043611 -0.052337
    25 1.435260 0.000000 0.000001 0.000000 0.000000 1.186618
    26 1.482593 0.000000 -0.000001 0.000000 0.000000 1.684243
    27 2.046984 0.000001 0.000000 0.190556 0.006137 -0.418206
    28 -0.000005 0.000007 3.713254 -3.294669 -0.160585 1.243384
    29 18.045723 0.000000 0.000000 0.000000 0.000000 -1.783039
    30 17.597597 0.000000 0.000000 -0.271752 0.201640 -0.121229
    31 0.000005 -0.000003 -3.713254 0.731897 2.280287 5.510141
    32 18.045721 0.000000 0.000000 0.000000 0.000000 -2.682112
    33 17.597597 0.000000 0.000000 0.307095 0.109632 0.742992
  time 20
    0 -0.690462 2.418194 -20.600716 0.000000 0.000000 -1.584128
    1 -0.015629 0.000000 0.000000 -1.570795 -1.570787 0.000000
    2 1.293670 0.684478 -0.000001 -0.061622 0.010318 0.030647
    3 5.309685 -0.003834 0.000000 0.004067 0.013770 0.025023
    4 4.826790 -0.004591 0.000000 -0.004673 -0.011242 0.113757
    5 5.792767 -0.005304 0.000000 -0.039879 0.007682 0.043730
    6 6.662322 -0.001452 0.000000 -0.091910 0.032655 0.231870
    7 -3.518356 0.356631 4.277124 1.429453 -1.182875 -4.798798
    8 4.827512 0.000000 -0.000002 -1.200940 -0.153670 -0.755012
    9 11.140032 0.000000 0.000000 0.000000 0.000000 -1.127347
    10 10.314563 -0.000001 0.000001 -1.915117 -0.055079 0.390896
    11 1.646836 0.445664 -1.699647 -0.392035 3.352851 -0.875707
    12 0.928312 0.000000 0.000000 0.000000 0.000000 0.593404
    13 0.928313 0.000000 -0.000001 0.000000 0.000000 1.204231
    14 2.979373 -0.388274 -0.044205 -0.030851 -0.030823 0.768363
    15 1.435262 -0.000001 -0.000001 0.000000 0.000000 1.204014
    16 1.482593 -0.000001 0.000001 0.000000 0.000000 0.986376
    17 -2.975371 1.071532 -4.156022 -1.395312 0.723683 -4.673936
    18 4.972047 0.000000 0.000000 0.559555 0.708632 -0.928698
    19 11.585358 0.000000 0.000001 0.000000 0.000000 -0.446444
    20 10.127058 0.000000 0.000001 2.124853 0.069788 0.428687
    21 1.537458 0.109715 1.664489 -3.079588 0.031470 0.928526
    22 0.928313 0.000000 0.000002 0.000000 0.000000 0.061034
    23 0.928311 0.000000 0.000001 0.000000 0.000000 0.671897
    24 2.686395 -0.427337 0.044204 -0.001208 0.043611 -0.052337
    25 1.435260 0.000000 0.000001 0.000000 0.000000 1.186618
    26 1.482593 0.000000 -0.000001 0.000000 0.000000 1.684243
    27 2.046984 0.000001 0.000000 0.173021 0.052133 -0.565046
    28 -0.000005 0.000007 3.713254 -3.294957 -0.160489 1.243863
    29 18.045723 0.000000 0.000000 0.000000 0.000000 -1.777710
    30 17.597597 0.000000 0.000000 -0.272538 0.201689 -0.126043
    31 0.000005 -0.000003 -3.713254 0.734005 2.277603 5.501033
    32 18.045721 0.000000 0.000000 0.000000 0.000000 -2.682427
    33 17.597597 0.000000 0.000000 0.311792 0.101427 0.737588
  time 21
    0 -0.667024 2.527572 -20.600716 0.000000 0.000000 -1.584793
    1 -0.000004 0.000000 0.000000 -1.570795 -1.570787 0.000000
    2 1.293670 0.684478 -0.000001 -0.061234 0.012607 0.051925
    3 5.309685 -0.003834 0.000000 0.004646 0.008605 0.024122
    4 4.826790 -0.004591 0.000000 0.000763 -0.017462 0.122113
    5 5.792767 -0.005304 0.000000 -0.037522 -0.003979 0.033328
    6 6.662322 -0.001452 0.000000 -0.091910 0.032655 0.231870
    7 -3.518356 0.356631 4.277124 1.399739 -1.120513 -4.762483
    8 4.827512 0.000000 -0.000002 -1.075066 -0.508579 -0.737422
    9 11.140032 0.000000 0.000000 0.000000 0.000000 -0.759284
    10 10.314563 -0.000001 0.000001 -1.927533 -0.084773 0.354549
    11 1.646836 0.445664 -1.699647 -0.392035 3.352851 -0.875707
    12 0.928312 0.000000 0.000000 0.000000 0.000000 0.593404
    13 0.928313 0.000000 -0.000001 0.000000 0.000000 1.204231
    14 2.979373 -0.388274 -0.044205 -0.030851 -0.030823 0.768363
    15 1.435262 -0.000001 -0.000001 0.000000 0.000000 1.204014
    16 1.482593 -0.000001 0.000001 0.000000 0.000000 1.069932
    17 -2.975371 1.071532 -4.156022 -1.405438 0.705674 -4.683514
    18 4.972047 0.000000 0.000000 0.622775 0.825781 -0.894155
    19 11.585358 0.000000 0.000001 0.000000 0.000000 -0.457879
    20 10.127058 0.000000 0.000001 2.099328 0.073098 0.451447
    21 1.537458 0.109715 1.664489 -3.079588 0.031470 0.928526
    22 0.928313 0.000000 0.000002 0.000000 0.000000 0.061034
    23 0.928311 0.000000 0.000001 0.000000 0.000000 0.671897
    24 2.686395 -0.427337 0.044204 -0.001208 0.043611 -0.052337
    25 1.435260 0.000000 0.000001 0.000000 0.000000 1.186618
    26 1.482593 0.000000 -0.000001 0.000000 0.000000 1.684243
    27 2.046984 0.000001 0.000000 0.141441 0.087419 -0.700877
    28 -0.000005 0.000007 3.713254 -3.295149 -0.160106 1.244534
    29 18.045723 0.000000 0.000000 0.000000 0.000000 -1.772158
    30 17.597597 0.000000 0.000000 -0.273425 0.201836 -0.131040
    31 0.000005 -0.000003 -3.713254 0.735826 2.274631 5.491158
    32 18.045721 0.000000 0.000000 0.000000 0.000000 -2.682742
    33 17.597597 0.000000 0.000000 0.316724 0.093064 0.731537
  time 22
    0 -0.659211 2.640857 -20.600716 0.000000 0.000000 -1.585458
    1 -0.000004 0.000000 0.000000 -1.570795 -1.570787 0.000000
    2 1.293670 0.684478 -0.000001 -0.060847 0.014800 0.072215
    3 5.309685 -0.003834 0.000000 0.005309 0.003643 0.023239
    4 4.826790 -0.004591 0.000000 0.007592 -0.022615 0.128265
    5 5.792767 -0.005304 0.000000 -0.033187 -0.014166 0.021514
    6 6.662322 -0.001452 0.000000 -0.091910 0.032655 0.231870
    7 -3.518356 0.356631 4.277124 1.379418 -1.057945 -4.734025
    8 4.827512 0.000000 -0.000002 -1.088698 -0.771648 -0.689591
    9 11.140032 0.000000 0.000000 0.000000 0.000000 -0.536345
    10 10.314563 -0.000001 0.000001 -1.905924 0.061074 0.256422
    11 1.646836 0.445664 -1.699647 -0.392035 3.352851 -0.875707
    12 0.928312 0.000000 0.000000 0.000000 0.000000 0.593404
    13 0.928313 0.000000 -0.000001 0.000000 0.000000 1.204231
    14 2.979373 -0.388274 -0.044205 -0.030851 -0.030823 0.768363
    15 1.435262 -0.000001 -0.000001 0.000000 0.000000 1.204014
    16 1.482593 -0.000001 0.000001 0.000000 0.000000 1.153221
    17 -2.975371 1.071532 -4.156022 -1.395312 0.723683 -4.673936
    18 4.972047 0.000000 0.000000 0.705130 0.890221 -0.822941
    19 11.585358 0.000000 0.000001 0.000000 0.000000 -0.576397
    20 10.127058 0.000000 0.000001 2.050522 0.080190 0.504419
    21 1.537458 0.109715 1.664489 -3.079588 0.031470 0.928526
    22 0.928313 0.000000 0.000002 0.000000 0.000000 0.061034
    23 0.928311 0.000000 0.000001 0.000000 0.000000 0.671897
    24 2.686395 -0.427337 0.044204 -0.001208 0.043611 -0.052337
    25 1.435260 0.000000 0.000001 0.000000 0.000000 1.186618
    26 1.482593 0.000000 -0.000001 0.000000 0.000000 1.684243
    27 2.046984 0.000001 0.000000 0.104088 0.112969 -0.840114
    28 -0.000005 0.000007 3.713254 -3.295628 -0.159722 1.245301
    29 18.045723 0.000000 0.000000 0.000000 0.000000 -1.765867
    30 17.597597 0.000000 0.000000 -0.274514 0.202009 -0.136587
    31 0.000005 -0.000003 -3.713254 0.737647 2.271180 5.479942
    32 18.045721 0.000000 0.000000 0.000000 0.000000 -2.683057
    33 17.597597 0.000000 0.000000 0.322394 0.083853 0.724609
end
