version 1
nodes
  0 "Bip01" -1
  1 "Bip01 Pelvis" 0
  2 "Bip01 Spine" 1
  3 "Bip01 Spine1" 2
  4 "Bip01 Spine2" 3
  5 "Bip01 Spine3" 4
  6 "Bip01 Neck" 5
  7 "Bip01 L Arm" 6
  8 "Bip01 L Arm1" 7
  9 "Bip01 L Arm2" 8
  10 "Bip01 L Hand" 9
  11 "Bip01 L Finger0" 10
  12 "Bip01 L Finger01" 11
  13 "Bip01 L Finger02" 12
  14 "Bip01 L Finger1" 10
  15 "Bip01 L Finger11" 14
  16 "Bip01 L Finger12" 15
  17 "Bip01 R Arm" 6
  18 "Bip01 R Arm1" 17
  19 "Bip01 R Arm2" 18
  20 "Bip01 R Hand" 19
  21 "Bip01 R Finger0" 20
  22 "Bip01 R Finger01" 21
  23 "Bip01 R Finger02" 22
  24 "Bip01 R Finger1" 20
  25 "Bip01 R Finger11" 24
  26 "Bip01 R Finger12" 25
  27 "Bip01 Head" 6
  28 "Bip01 L Leg" 1
  29 "Bip01 L Leg1" 28
  30 "Bip01 L Foot" 29
  31 "Bip01 R Leg" 1
  32 "Bip01 R Leg1" 31
  33 "Bip01 R Foot" 32
end
skeleton
  time 0
    0 -1.006878 0.609545 -20.600716 0.000000 0.000000 -1.585458
    1 -2.023503 0.312510 0.000000 -1.570795 -1.570787 0.000000
    2 1.293670 0.684478 -0.000001 -0.263690 0.013637 0.059224
    3 5.309685 -0.003834 0.000000 -0.154753 -0.153043 0.154038
    4 4.826790 -0.004591 0.000000 -0.103574 0.069666 0.255506
    5 5.792767 -0.005304 0.000000 -0.113341 0.094247 0.318463
    6 6.662322 -0.001452 0.000000 0.000000 -0.000001 0.471000
    7 -3.108188 1.516823 4.339626 0.845420 -1.058477 -4.390229
    8 4.827512 0.000000 -0.000002 -1.586291 0.234922 -1.023889
    9 11.140032 0.000000 0.000000 0.000000 0.000000 -0.883903
    10 10.314563 -0.000001 0.000001 -2.336682 0.842675 1.229447
    11 1.646836 0.445664 -1.699647 0.034758 -0.065773 1.631422
    12 0.928312 0.000000 0.000000 0.000000 0.000000 -1.300235
    13 0.928313 0.000000 -0.000001 0.000000 0.000000 0.000000
    14 2.979373 -0.388274 -0.044205 -0.018435 -0.039524 0.418816
    15 1.435262 -0.000001 -0.000001 0.000000 0.000000 1.238742
    16 1.482593 -0.000001 0.000001 0.000000 0.000000 1.221017
    17 -2.869899 1.399667 -4.140396 0.000026 1.143962 -3.613362
    18 4.972047 0.000000 0.000000 -0.190271 -0.191443 -1.543403
    19 11.585358 0.000000 0.000001 0.000000 0.000000 -1.643054
    20 10.127058 0.000000 0.000001 2.499245 -0.000567 1.180661
    21 1.537458 0.109715 1.664489 -0.233165 -0.412999 0.435664
    22 0.928313 0.000000 0.000002 0.000000 0.000000 0.000000
    23 0.928311 0.000000 0.000001 0.000000 0.000000 0.000000
    24 2.686395 -0.427337 0.044204 0.001045 0.043611 0.000046
    25 1.435260 0.000000 0.000001 0.000000 0.000000 0.767749
    26 1.482593 0.000000 -0.000001 0.000000 0.000000 1.221638
    27 2.046984 0.000001 0.000000 0.621988 -0.408741 -0.497101
    28 -0.000005 0.000007 3.713254 -3.289300 -0.165475 1.249615
    29 18.045723 0.000000 0.000000 0.000000 0.000000 -1.732931
    30 17.597597 0.000000 0.000000 -0.251405 0.197505 -0.164508
    31 0.000005 -0.000003 -3.713254 0.821892 2.312307 5.493555
    32 18.045721 0.000000 0.000000 0.000000 0.000000 -2.673768
    33 17.597597 0.000000 0.000000 0.379969 0.033854 0.755924
  time 1
    0 -1.006878 0.609545 -20.600716 0.000000 0.000000 -1.585458
    1 -2.023503 0.316416 0.000000 -1.570795 -1.570787 0.000000
    2 1.293670 0.684478 -0.000001 -0.263690 0.013637 0.059224
    3 5.309685 -0.003834 0.000000 -0.154753 -0.153043 0.154038
    4 4.826790 -0.004591 0.000000 -0.103574 0.069666 0.255506
    5 5.792767 -0.005304 0.000000 -0.161620 0.097555 0.318484
    6 6.662322 -0.001452 0.000000 0.000000 -0.000001 0.471000
    7 -3.108188 1.516823 4.339626 0.845420 -1.058477 -4.390229
    8 4.827512 0.000000 -0.000002 -1.617859 0.566978 -0.940878
    9 11.140032 0.000000 0.000000 0.000000 0.000000 -1.614958
    10 10.314563 -0.000001 0.000001 -2.495148 0.817852 1.405669
    11 1.646836 0.445664 -1.699647 0.034758 -0.065773 1.631422
    12 0.928312 0.000000 0.000000 0.000000 0.000000 -1.300235
    13 0.928313 0.000000 -0.000001 0.000000 0.000000 0.000000
    14 2.979373 -0.388274 -0.044205 -0.018435 -0.039524 0.418816
    15 1.435262 -0.000001 -0.000001 0.000000 0.000000 1.238742
    16 1.482593 -0.000001 0.000001 0.000000 0.000000 1.221017
    17 -2.869899 1.399667 -4.140396 0.449026 1.159368 -3.197484
    18 4.972047 0.000000 0.000000 -0.174325 -0.264883 -1.615815
    19 11.585358 0.000000 0.000001 0.000000 0.000000 -1.881722
    20 10.127058 0.000000 0.000001 2.409697 -0.022033 1.115433
    21 1.537458 0.109715 1.664489 -0.233165 -0.412999 0.435664
    22 0.928313 0.000000 0.000002 0.000000 0.000000 0.000000
    23 0.928311 0.000000 0.000001 0.000000 0.000000 0.000000
    24 2.686395 -0.427337 0.044204 0.001045 0.043611 0.000046
    25 1.435260 0.000000 0.000001 0.000000 0.000000 0.767749
    26 1.482593 0.000000 -0.000001 0.000000 0.000000 1.221638
    27 2.046984 0.000001 0.000000 0.544956 -0.403165 -0.523926
    28 -0.000005 0.000007 3.713254 -3.289300 -0.165475 1.249615
    29 18.045723 0.000000 0.000000 0.000000 0.000000 -1.732931
    30 17.597597 0.000000 0.000000 -0.251405 0.197505 -0.164508
    31 0.000005 -0.000003 -3.713254 0.821892 2.312307 5.493555
    32 18.045721 0.000000 0.000000 0.000000 0.000000 -2.673768
    33 17.597597 0.000000 0.000000 0.379969 0.033854 0.755924
  time 2
    0 -1.006878 0.609545 -20.600716 0.000000 0.000000 -1.585458
    1 -2.023503 0.316416 0.000000 -1.570795 -1.570787 0.000000
    2 1.293670 0.684478 -0.000001 -0.263690 0.013637 0.059224
    3 5.309685 -0.003834 0.000000 -0.154753 -0.153043 0.154038
    4 4.826790 -0.004591 0.000000 -0.103574 0.069666 0.255506
    5 5.792767 -0.005304 0.000000 -0.190544 0.099520 0.318484
    6 6.662322 -0.001452 0.000000 0.000000 -0.000001 0.471000
    7 -3.108188 1.516823 4.339626 0.845420 -1.058477 -4.390229
    8 4.827512 0.000000 -0.000002 -1.629976 0.537729 -0.912370
    9 11.140032 0.000000 0.000000 0.000000 0.000000 -1.611553
    10 10.314563 -0.000001 0.000001 -2.462640 0.835837 1.443178
    11 1.646836 0.445664 -1.699647 0.034758 -0.065773 1.631422
    12 0.928312 0.000000 0.000000 0.000000 0.000000 -1.300235
    13 0.928313 0.000000 -0.000001 0.000000 0.000000 0.000000
    14 2.979373 -0.388274 -0.044205 -0.018435 -0.039524 0.418816
    15 1.435262 -0.000001 -0.000001 0.000000 0.000000 1.238742
    16 1.482593 -0.000001 0.000001 0.000000 0.000000 1.221017
    17 -2.869899 1.399667 -4.140396 0.434887 1.160051 -3.210702
    18 4.972047 0.000000 0.000000 -0.167103 -0.271632 -1.658011
    19 11.585358 0.000000 0.000001 0.000000 0.000000 -1.843251
    20 10.127058 0.000000 0.000001 2.412432 -0.011631 1.109180
    21 1.537458 0.109715 1.664489 -0.233165 -0.412999 0.435664
    22 0.928313 0.000000 0.000002 0.000000 0.000000 0.000000
    23 0.928311 0.000000 0.000001 0.000000 0.000000 0.000000
    24 2.686395 -0.427337 0.044204 0.001045 0.043611 0.000046
    25 1.435260 0.000000 0.000001 0.000000 0.000000 0.767749
    26 1.482593 0.000000 -0.000001 0.000000 0.000000 1.221638
    27 2.046984 0.000001 0.000000 0.585885 -0.403932 -0.536153
    28 -0.000005 0.000007 3.713254 -3.289300 -0.165475 1.249615
    29 18.045723 0.000000 0.000000 0.000000 0.000000 -1.732931
    30 17.597597 0.000000 0.000000 -0.251405 0.197505 -0.164508
    31 0.000005 -0.000003 -3.713254 0.821892 2.312307 5.493555
    32 18.045721 0.000000 0.000000 0.000000 0.000000 -2.673768
    33 17.597597 0.000000 0.000000 0.379969 0.033854 0.755924
  time 3
    0 -1.006878 0.609545 -20.600716 0.000000 0.000000 -1.585458
    1 -2.023503 0.316416 0.000000 -1.570795 -1.570787 0.000000
    2 1.293670 0.684478 -0.000001 -0.263690 0.013637 0.059224
    3 5.309685 -0.003834 0.000000 -0.154753 -0.153043 0.154038
    4 4.826790 -0.004591 0.000000 -0.103574 0.069666 0.255506
    5 5.792767 -0.005304 0.000000 -0.182144 0.098957 0.318484
    6 6.662322 -0.001452 0.000000 0.000000 -0.000001 0.471000
    7 -3.108188 1.516823 4.339626 0.845420 -1.058477 -4.390229
    8 4.827512 0.000000 -0.000002 -1.618895 0.433354 -0.934205
    9 11.140032 0.000000 0.000000 0.000000 0.000000 -1.421870
    10 10.314563 -0.000001 0.000001 -2.412977 0.843893 1.408514
    11 1.646836 0.445664 -1.699647 0.034758 -0.065773 1.631422
    12 0.928312 0.000000 0.000000 0.000000 0.000000 -1.300235
    13 0.928313 0.000000 -0.000001 0.000000 0.000000 0.000000
    14 2.979373 -0.388274 -0.044205 -0.018435 -0.039524 0.418816
    15 1.435262 -0.000001 -0.000001 0.000000 0.000000 1.238742
    16 1.482593 -0.000001 0.000001 0.000000 0.000000 1.221017
    17 -2.869899 1.399667 -4.140396 0.331904 1.162786 -3.306961
    18 4.972047 0.000000 0.000000 -0.161006 -0.255000 -1.661672
    19 11.585358 0.000000 0.000001 0.000000 0.000000 -1.753812
    20 10.127058 0.000000 0.000001 2.432487 0.004634 1.114482
    21 1.537458 0.109715 1.664489 -0.233165 -0.412999 0.435664
    22 0.928313 0.000000 0.000002 0.000000 0.000000 0.000000
    23 0.928311 0.000000 0.000001 0.000000 0.000000 0.000000
    24 2.686395 -0.427337 0.044204 0.001045 0.043611 0.000046
    25 1.435260 0.000000 0.000001 0.000000 0.000000 0.767749
    26 1.482593 0.000000 -0.000001 0.000000 0.000000 1.221638
    27 2.046984 0.000001 0.000000 0.600533 -0.405171 -0.531530
    28 -0.000005 0.000007 3.713254 -3.289300 -0.165475 1.249615
    29 18.045723 0.000000 0.000000 0.000000 0.000000 -1.732931
    30 17.597597 0.000000 0.000000 -0.251405 0.197505 -0.164508
    31 0.000005 -0.000003 -3.713254 0.821892 2.312307 5.493555
    32 18.045721 0.000000 0.000000 0.000000 0.000000 -2.673768
    33 17.597597 0.000000 0.000000 0.379969 0.033854 0.755924
  time 4
    0 -1.006878 0.609545 -20.600716 0.000000 0.000000 -1.585458
    1 -2.023503 0.316416 0.000000 -1.570795 -1.570787 0.000000
    2 1.293670 0.684478 -0.000001 -0.263690 0.013637 0.059224
    3 5.309685 -0.003834 0.000000 -0.154753 -0.153043 0.154038
    4 4.826790 -0.004591 0.000000 -0.103574 0.069666 0.255506
    5 5.792767 -0.005304 0.000000 -0.161620 0.097555 0.318484
    6 6.662322 -0.001452 0.000000 0.000000 -0.000001 0.471000
    7 -3.108188 1.516823 4.339626 0.845420 -1.058477 -4.390229
    8 4.827512 0.000000 -0.000002 -1.604786 0.330258 -0.967912
    9 11.140032 0.000000 0.000000 0.000000 0.000000 -1.203278
    10 10.314563 -0.000001 0.000001 -2.370801 0.847265 1.348303
    11 1.646836 0.445664 -1.699647 0.034758 -0.065773 1.631422
    12 0.928312 0.000000 0.000000 0.000000 0.000000 -1.300235
    13 0.928313 0.000000 -0.000001 0.000000 0.000000 0.000000
    14 2.979373 -0.388274 -0.044205 -0.018435 -0.039524 0.418816
    15 1.435262 -0.000001 -0.000001 0.000000 0.000000 1.238742
    16 1.482593 -0.000001 0.000001 0.000000 0.000000 1.221017
    17 -2.869899 1.399667 -4.140396 0.218698 1.161182 -3.412223
    18 4.972047 0.000000 0.000000 -0.160818 -0.233305 -1.644234
    19 11.585358 0.000000 0.000001 0.000000 0.000000 -1.677849
    20 10.127058 0.000000 0.000001 2.454576 0.015887 1.126337
    21 1.537458 0.109715 1.664489 -0.233165 -0.412999 0.435664
    22 0.928313 0.000000 0.000002 0.000000 0.000000 0.000000
    23 0.928311 0.000000 0.000001 0.000000 0.000000 0.000000
    24 2.686395 -0.427337 0.044204 0.001045 0.043611 0.000046
    25 1.435260 0.000000 0.000001 0.000000 0.000000 0.767749
    26 1.482593 0.000000 -0.000001 0.000000 0.000000 1.221638
    27 2.046984 0.000001 0.000000 0.610356 -0.406676 -0.521128
    28 -0.000005 0.000007 3.713254 -3.289300 -0.165475 1.249615
    29 18.045723 0.000000 0.000000 0.000000 0.000000 -1.732931
    30 17.597597 0.000000 0.000000 -0.251405 0.197505 -0.164508
    31 0.000005 -0.000003 -3.713254 0.821892 2.312307 5.493555
    32 18.045721 0.000000 0.000000 0.000000 0.000000 -2.673768
    33 17.597597 0.000000 0.000000 0.379969 0.033854 0.755924
  time 5
    0 -1.006878 0.609545 -20.600716 0.000000 0.000000 -1.585458
    1 -2.023503 0.316416 0.000000 -1.570795 -1.570787 0.000000
    2 1.293670 0.684478 -0.000001 -0.263690 0.013637 0.059224
    3 5.309685 -0.003834 0.000000 -0.154753 -0.153043 0.154038
    4 4.826790 -0.004591 0.000000 -0.103574 0.069666 0.255506
    5 5.792767 -0.005304 0.000000 -0.136221 0.095817 0.318484
    6 6.662322 -0.001452 0.000000 0.000000 -0.000001 0.471000
    7 -3.108188 1.516823 4.339626 0.845420 -1.058477 -4.390229
    8 4.827512 0.000000 -0.000002 -1.593944 0.276877 -0.999020
    9 11.140032 0.000000 0.000000 0.000000 0.000000 -1.038881
    10 10.314563 -0.000001 0.000001 -2.352225 0.844830 1.287394
    11 1.646836 0.445664 -1.699647 0.034758 -0.065773 1.631422
    12 0.928312 0.000000 0.000000 0.000000 0.000000 -1.300235
    13 0.928313 0.000000 -0.000001 0.000000 0.000000 0.000000
    14 2.979373 -0.388274 -0.044205 -0.018435 -0.039524 0.418816
    15 1.435262 -0.000001 -0.000001 0.000000 0.000000 1.238742
    16 1.482593 -0.000001 0.000001 0.000000 0.000000 1.221017
    17 -2.869899 1.399667 -4.140396 0.112563 1.155214 -3.510302
    18 4.972047 0.000000 0.000000 -0.173106 -0.212575 -1.598178
    19 11.585358 0.000000 0.000001 0.000000 0.000000 -1.652937
    20 10.127058 0.000000 0.000001 2.475964 0.010969 1.150147
    21 1.537458 0.109715 1.664489 -0.233165 -0.412999 0.435664
    22 0.928313 0.000000 0.000002 0.000000 0.000000 0.000000
    23 0.928311 0.000000 0.000001 0.000000 0.000000 0.000000
    24 2.686395 -0.427337 0.044204 0.001045 0.043611 0.000046
    25 1.435260 0.000000 0.000001 0.000000 0.000000 0.767749
    26 1.482593 0.000000 -0.000001 0.000000 0.000000 1.221638
    27 2.046984 0.000001 0.000000 0.616861 -0.407915 -0.508415
    28 -0.000005 0.000007 3.713254 -3.289300 -0.165475 1.249615
    29 18.045723 0.000000 0.000000 0.000000 0.000000 -1.732931
    30 17.597597 0.000000 0.000000 -0.251405 0.197505 -0.164508
    31 0.000005 -0.000003 -3.713254 0.821892 2.312307 5.493555
    32 18.045721 0.000000 0.000000 0.000000 0.000000 -2.673768
    33 17.597597 0.000000 0.000000 0.379969 0.033854 0.755924
  time 6
    0 -1.006878 0.609545 -20.600716 0.000000 0.000000 -1.585458
    1 -2.023503 0.312510 0.000000 -1.570795 -1.570787 0.000000
    2 1.293670 0.684478 -0.000001 -0.263690 0.013637 0.059224
    3 5.309685 -0.003834 0.000000 -0.154753 -0.153043 0.154038
    4 4.826790 -0.004591 0.000000 -0.103574 0.069666 0.255506
    5 5.792767 -0.005304 0.000000 -0.113341 0.094247 0.318463
    6 6.662322 -0.001452 0.000000 0.000000 -0.000001 0.471000
    7 -3.108188 1.516823 4.339626 0.845420 -1.058477 -4.390229
    8 4.827512 0.000000 -0.000002 -1.586291 0.234922 -1.023889
    9 11.140032 0.000000 0.000000 0.000000 0.000000 -0.883903
    10 10.314563 -0.000001 0.000001 -2.336682 0.842675 1.229447
    11 1.646836 0.445664 -1.699647 0.034758 -0.065773 1.631422
    12 0.928312 0.000000 0.000000 0.000000 0.000000 -1.300235
    13 0.928313 0.000000 -0.000001 0.000000 0.000000 0.000000
    14 2.979373 -0.388274 -0.044205 -0.018435 -0.039524 0.418816
    15 1.435262 -0.000001 -0.000001 0.000000 0.000000 1.238742
    16 1.482593 -0.000001 0.000001 0.000000 0.000000 1.221017
    17 -2.869899 1.399667 -4.140396 0.000026 1.143962 -3.613362
    18 4.972047 0.000000 0.000000 -0.190271 -0.191443 -1.543403
    19 11.585358 0.000000 0.000001 0.000000 0.000000 -1.643054
    20 10.127058 0.000000 0.000001 2.499245 -0.000567 1.180661
    21 1.537458 0.109715 1.664489 -0.233165 -0.412999 0.435664
    22 0.928313 0.000000 0.000002 0.000000 0.000000 0.000000
    23 0.928311 0.000000 0.000001 0.000000 0.000000 0.000000
    24 2.686395 -0.427337 0.044204 0.001045 0.043611 0.000046
    25 1.435260 0.000000 0.000001 0.000000 0.000000 0.767749
    26 1.482593 0.000000 -0.000001 0.000000 0.000000 1.221638
    27 2.046984 0.000001 0.000000 0.621988 -0.408741 -0.497101
    28 -0.000005 0.000007 3.713254 -3.289300 -0.165475 1.249615
    29 18.045723 0.000000 0.000000 0.000000 0.000000 -1.732931
    30 17.597597 0.000000 0.000000 -0.251405 0.197505 -0.164508
    31 0.000005 -0.000003 -3.713254 0.821892 2.312307 5.493555
    32 18.045721 0.000000 0.000000 0.000000 0.000000 -2.673768
    33 17.597597 0.000000 0.000000 0.379969 0.033854 0.755924
end
