version 1
nodes
  0 "Bip01" -1
  1 "Bip01 Pelvis" 0
  2 "Bip01 Spine" 1
  3 "Bip01 Spine1" 2
  4 "Bip01 Spine2" 3
  5 "Bip01 Spine3" 4
  6 "Bip01 Neck" 5
  7 "Bip01 L Arm" 6
  8 "Bip01 L Arm1" 7
  9 "Bip01 L Arm2" 8
  10 "Bip01 L Hand" 9
  11 "Bip01 L Finger0" 10
  12 "Bip01 L Finger01" 11
  13 "Bip01 L Finger02" 12
  14 "Bip01 L Finger1" 10
  15 "Bip01 L Finger11" 14
  16 "Bip01 L Finger12" 15
  17 "Bip01 R Arm" 6
  18 "Bip01 R Arm1" 17
  19 "Bip01 R Arm2" 18
  20 "Bip01 R Hand" 19
  21 "Bip01 R Finger0" 20
  22 "Bip01 R Finger01" 21
  23 "Bip01 R Finger02" 22
  24 "Bip01 R Finger1" 20
  25 "Bip01 R Finger11" 24
  26 "Bip01 R Finger12" 25
  27 "Bip01 Head" 6
  28 "Bip01 L Leg" 1
  29 "Bip01 L Leg1" 28
  30 "Bip01 L Foot" 29
  31 "Bip01 R Leg" 1
  32 "Bip01 R Leg1" 31
  33 "Bip01 R Foot" 32
end
skeleton
  time 0
    0 -0.092788 -3.699181 -2.607979 0.000000 0.000000 -1.585458
    1 -6.343948 0.292978 0.000000 -1.570795 -1.570787 0.000000
    2 1.293670 0.684478 -0.000001 -0.000004 -0.000001 0.358403
    3 5.309685 -0.003834 0.000000 -0.030767 0.016383 0.418392
    4 4.826790 -0.004591 0.000000 -0.138976 0.051809 0.258041
    5 5.792767 -0.005304 0.000000 0.000000 0.000000 0.122068
    6 6.662322 -0.001452 0.000000 0.000000 -0.000001 0.471000
    7 -3.108188 1.516823 4.339626 -0.041892 -1.370639 -3.572324
    8 4.827512 0.000000 -0.000002 -0.942577 0.699749 -0.809602
    9 11.140032 0.000000 0.000000 0.000000 0.000000 -1.026347
    10 10.314563 -0.000001 0.000001 -1.626997 0.320734 -0.018740
    11 1.646836 0.445664 -1.699647 0.449636 0.128837 1.240121
    12 0.928312 0.000000 0.000000 0.000000 0.000000 0.000000
    13 0.928313 0.000000 -0.000001 0.000000 0.000000 0.000000
    14 2.979373 -0.388274 -0.044205 -0.037766 -0.021799 1.029709
    15 1.435262 -0.000001 -0.000001 0.000000 0.000000 1.256253
    16 1.482593 -0.000001 0.000001 0.000000 0.000000 1.666042
    17 -2.869899 1.399667 -4.140396 0.000026 1.370769 -3.613362
    18 4.972047 0.000000 0.000000 0.872842 0.049043 -1.402505
    19 11.585358 0.000000 0.000001 0.000000 0.000000 -1.370080
    20 10.127058 0.000000 0.000001 2.180532 0.000000 -0.069778
    21 1.537458 0.109715 1.664489 -0.233165 -0.412999 0.435664
    22 0.928313 0.000000 0.000002 0.000000 0.000000 0.000000
    23 0.928311 0.000000 0.000001 0.000000 0.000000 0.000000
    24 2.686395 -0.427337 0.044204 0.001045 0.043611 0.000046
    25 1.435260 0.000000 0.000001 0.000000 0.000000 0.767749
    26 1.482593 0.000000 -0.000001 0.000000 0.000000 1.221638
    27 2.046984 0.000001 0.000000 0.178105 0.032159 -1.202409
    28 -0.000005 0.000007 3.713254 -3.293902 -0.161448 1.264185
    29 18.045723 0.000000 0.000000 0.000000 0.000000 -1.669796
    30 17.597597 0.000000 0.000000 -0.254040 0.198982 -0.213244
    31 0.000005 -0.000003 -3.713254 0.821892 2.312307 5.493555
    32 18.045721 0.000000 0.000000 0.000000 0.000000 -2.673768
    33 17.597597 0.000000 0.000000 0.379969 0.033854 0.755924
  time 1
    0 -0.092788 -3.699181 -2.647043 0.000000 0.000000 -1.585458
    1 -6.351760 0.304697 0.000000 -1.570795 -1.570787 0.000000
    2 1.293670 0.684478 -0.000001 -0.000004 -0.000001 0.358403
    3 5.309685 -0.003834 0.000000 -0.030767 0.016383 0.418392
    4 4.826790 -0.004591 0.000000 -0.138976 0.051809 0.258041
    5 5.792767 -0.005304 0.000000 0.000000 0.000000 0.128899
    6 6.662322 -0.001452 0.000000 0.000000 -0.000001 0.471000
    7 -3.108188 1.516823 4.339626 0.010828 -1.370787 -3.623970
    8 4.827512 0.000000 -0.000002 -0.950469 0.693439 -0.805703
    9 11.140032 0.000000 0.000000 0.000000 0.000000 -1.026347
    10 10.314563 -0.000001 0.000001 -1.626997 0.320734 -0.018740
    11 1.646836 0.445664 -1.699647 0.449636 0.128837 1.240121
    12 0.928312 0.000000 0.000000 0.000000 0.000000 0.000000
    13 0.928313 0.000000 -0.000001 0.000000 0.000000 0.000000
    14 2.979373 -0.388274 -0.044205 -0.037766 -0.021799 1.029709
    15 1.435262 -0.000001 -0.000001 0.000000 0.000000 1.256253
    16 1.482593 -0.000001 0.000001 0.000000 0.000000 1.666042
    17 -2.869899 1.399667 -4.140396 -0.068184 1.370349 -3.680216
    18 4.972047 0.000000 0.000000 0.874530 0.058203 -1.390392
    19 11.585358 0.000000 0.000001 0.000000 0.000000 -1.370080
    20 10.127058 0.000000 0.000001 2.180532 0.000000 -0.069778
    21 1.537458 0.109715 1.664489 -0.233165 -0.412999 0.435664
    22 0.928313 0.000000 0.000002 0.000000 0.000000 0.000000
    23 0.928311 0.000000 0.000001 0.000000 0.000000 0.000000
    24 2.686395 -0.427337 0.044204 0.001045 0.043611 0.000046
    25 1.435260 0.000000 0.000001 0.000000 0.000000 0.767749
    26 1.482593 0.000000 -0.000001 0.000000 0.000000 1.221638
    27 2.046984 0.000001 0.000000 0.178105 0.032159 -1.209344
    28 -0.000005 0.000007 3.713254 -3.293806 -0.161448 1.261980
    29 18.045723 0.000000 0.000000 0.000000 0.000000 -1.671128
    30 17.597597 0.000000 0.000000 -0.254370 0.199154 -0.214161
    31 0.000005 -0.000003 -3.713254 0.822659 2.312499 5.493076
    32 18.045721 0.000000 0.000000 0.000000 0.000000 -2.676051
    33 17.597597 0.000000 0.000000 0.380640 0.032927 0.758234
  time 2
    0 -0.092788 -3.699181 -2.690013 0.000000 0.000000 -1.585458
    1 -6.351760 0.304697 0.000000 -1.570795 -1.570787 0.000000
    2 1.293670 0.684478 -0.000001 -0.000004 -0.000001 0.358403
    3 5.309685 -0.003834 0.000000 -0.030767 0.016383 0.418392
    4 4.826790 -0.004591 0.000000 -0.138976 0.051809 0.258041
    5 5.792767 -0.005304 0.000000 0.000000 0.000000 0.136332
    6 6.662322 -0.001452 0.000000 0.000000 -0.000001 0.471000
    7 -3.108188 1.516823 4.339626 0.068915 -1.370343 -3.680791
    8 4.827512 0.000000 -0.000002 -0.959078 0.686532 -0.801370
    9 11.140032 0.000000 0.000000 0.000000 0.000000 -1.026347
    10 10.314563 -0.000001 0.000001 -1.626997 0.320734 -0.018740
    11 1.646836 0.445664 -1.699647 0.449636 0.128837 1.240121
    12 0.928312 0.000000 0.000000 0.000000 0.000000 0.000000
    13 0.928313 0.000000 -0.000001 0.000000 0.000000 0.000000
    14 2.979373 -0.388274 -0.044205 -0.037766 -0.021799 1.029709
    15 1.435262 -0.000001 -0.000001 0.000000 0.000000 1.256253
    16 1.482593 -0.000001 0.000001 0.000000 0.000000 1.666042
    17 -2.869899 1.399667 -4.140396 -0.142507 1.368797 -3.753105
    18 4.972047 0.000000 0.000000 0.876219 0.068407 -1.377148
    19 11.585358 0.000000 0.000001 0.000000 0.000000 -1.370080
    20 10.127058 0.000000 0.000001 2.180532 0.000000 -0.069778
    21 1.537458 0.109715 1.664489 -0.233165 -0.412999 0.435664
    22 0.928313 0.000000 0.000002 0.000000 0.000000 0.000000
    23 0.928311 0.000000 0.000001 0.000000 0.000000 0.000000
    24 2.686395 -0.427337 0.044204 0.001045 0.043611 0.000046
    25 1.435260 0.000000 0.000001 0.000000 0.000000 0.767749
    26 1.482593 0.000000 -0.000001 0.000000 0.000000 1.221638
    27 2.046984 0.000001 0.000000 0.178105 0.032159 -1.216826
    28 -0.000005 0.000007 3.713254 -3.293710 -0.161544 1.259488
    29 18.045723 0.000000 0.000000 0.000000 0.000000 -1.672609
    30 17.597597 0.000000 0.000000 -0.254800 0.199375 -0.215215
    31 0.000005 -0.000003 -3.713254 0.823522 2.312594 5.492596
    32 18.045721 0.000000 0.000000 0.000000 0.000000 -2.678570
    33 17.597597 0.000000 0.000000 0.381378 0.031941 0.760728
  time 3
    0 -0.092788 -3.699181 -2.744702 0.000000 0.000000 -1.585458
    1 -6.355667 0.304697 0.000000 -1.570795 -1.570787 0.000000
    2 1.293670 0.684478 -0.000001 -0.000004 -0.000001 0.358403
    3 5.309685 -0.003834 0.000000 -0.030767 0.016383 0.418392
    4 4.826790 -0.004591 0.000000 -0.138976 0.051809 0.258041
    5 5.792767 -0.005304 0.000000 0.000000 0.000000 0.144367
    6 6.662322 -0.001452 0.000000 0.000000 -0.000001 0.471000
    7 -3.108188 1.516823 4.339626 0.130356 -1.369160 -3.741252
    8 4.827512 0.000000 -0.000002 -0.968166 0.679028 -0.796605
    9 11.140032 0.000000 0.000000 0.000000 0.000000 -1.026347
    10 10.314563 -0.000001 0.000001 -1.626997 0.320734 -0.018740
    11 1.646836 0.445664 -1.699647 0.449636 0.128837 1.240121
    12 0.928312 0.000000 0.000000 0.000000 0.000000 0.000000
    13 0.928313 0.000000 -0.000001 0.000000 0.000000 0.000000
    14 2.979373 -0.388274 -0.044205 -0.037766 -0.021799 1.029709
    15 1.435262 -0.000001 -0.000001 0.000000 0.000000 1.256253
    16 1.482593 -0.000001 0.000001 0.000000 0.000000 1.666042
    17 -2.869899 1.399667 -4.140396 -0.220366 1.365984 -3.829442
    18 4.972047 0.000000 0.000000 0.878095 0.079174 -1.362971
    19 11.585358 0.000000 0.000001 0.000000 0.000000 -1.370080
    20 10.127058 0.000000 0.000001 2.180532 0.000000 -0.069778
    21 1.537458 0.109715 1.664489 -0.233165 -0.412999 0.435664
    22 0.928313 0.000000 0.000002 0.000000 0.000000 0.000000
    23 0.928311 0.000000 0.000001 0.000000 0.000000 0.000000
    24 2.686395 -0.427337 0.044204 0.001045 0.043611 0.000046
    25 1.435260 0.000000 0.000001 0.000000 0.000000 0.767749
    26 1.482593 0.000000 -0.000001 0.000000 0.000000 1.221638
    27 2.046984 0.000001 0.000000 0.178105 0.032159 -1.224673
    28 -0.000005 0.000007 3.713254 -3.293710 -0.161640 1.256804
    29 18.045723 0.000000 0.000000 0.000000 0.000000 -1.674163
    30 17.597597 0.000000 0.000000 -0.255231 0.199622 -0.216315
    31 0.000005 -0.000003 -3.713254 0.824384 2.312786 5.492117
    32 18.045721 0.000000 0.000000 0.000000 0.000000 -2.681325
    33 17.597597 0.000000 0.000000 0.382149 0.030876 0.763407
  time 4
    0 -0.092788 -3.699181 -2.795485 0.000000 0.000000 -1.585458
    1 -6.363479 0.304697 0.000000 -1.570795 -1.570787 0.000000
    2 1.293670 0.684478 -0.000001 -0.000004 -0.000001 0.358403
    3 5.309685 -0.003834 0.000000 -0.030767 0.016383 0.418392
    4 4.826790 -0.004591 0.000000 -0.138976 0.051809 0.258041
    5 5.792767 -0.005304 0.000000 0.000000 0.000000 0.152693
    6 6.662322 -0.001452 0.000000 0.000000 -0.000001 0.471000
    7 -3.108188 1.516823 4.339626 0.193619 -1.367091 -3.803055
    8 4.827512 0.000000 -0.000002 -0.977493 0.671183 -0.791492
    9 11.140032 0.000000 0.000000 0.000000 0.000000 -1.026347
    10 10.314563 -0.000001 0.000001 -1.626997 0.320734 -0.018740
    11 1.646836 0.445664 -1.699647 0.449636 0.128837 1.240121
    12 0.928312 0.000000 0.000000 0.000000 0.000000 0.000000
    13 0.928313 0.000000 -0.000001 0.000000 0.000000 0.000000
    14 2.979373 -0.388274 -0.044205 -0.037766 -0.021799 1.029709
    15 1.435262 -0.000001 -0.000001 0.000000 0.000000 1.256253
    16 1.482593 -0.000001 0.000001 0.000000 0.000000 1.666042
    17 -2.869899 1.399667 -4.140396 -0.298893 1.361804 -3.906162
    18 4.972047 0.000000 0.000000 0.880158 0.090583 -1.348063
    19 11.585358 0.000000 0.000001 0.000000 0.000000 -1.370080
    20 10.127058 0.000000 0.000001 2.180532 0.000000 -0.069778
    21 1.537458 0.109715 1.664489 -0.233165 -0.412999 0.435664
    22 0.928313 0.000000 0.000002 0.000000 0.000000 0.000000
    23 0.928311 0.000000 0.000001 0.000000 0.000000 0.000000
    24 2.686395 -0.427337 0.044204 0.001045 0.043611 0.000046
    25 1.435260 0.000000 0.000001 0.000000 0.000000 0.767749
    26 1.482593 0.000000 -0.000001 0.000000 0.000000 1.221638
    27 2.046984 0.000001 0.000000 0.178105 0.032159 -1.233128
    28 -0.000005 0.000007 3.713254 -3.293615 -0.161736 1.254024
    29 18.045723 0.000000 0.000000 0.000000 0.000000 -1.675791
    30 17.597597 0.000000 0.000000 -0.255662 0.199843 -0.217507
    31 0.000005 -0.000003 -3.713254 0.825343 2.312978 5.491638
    32 18.045721 0.000000 0.000000 0.000000 0.000000 -2.684395
    33 17.597597 0.000000 0.000000 0.382955 0.029771 0.766224
  time 5
    0 -0.092788 -3.699181 -2.850174 0.000000 0.000000 -1.585458
    1 -6.367386 0.304697 0.000000 -1.570795 -1.570787 0.000000
    2 1.293670 0.684478 -0.000001 -0.000004 -0.000001 0.358403
    3 5.309685 -0.003834 0.000000 -0.030767 0.016383 0.418392
    4 4.826790 -0.004591 0.000000 -0.138976 0.051809 0.258041
    5 5.792767 -0.005304 0.000000 0.000000 0.000000 0.161185
    6 6.662322 -0.001452 0.000000 0.000000 -0.000001 0.471000
    7 -3.108188 1.516823 4.339626 0.256499 -1.364252 -3.864570
    8 4.827512 0.000000 -0.000002 -0.986979 0.663082 -0.786120
    9 11.140032 0.000000 0.000000 0.000000 0.000000 -1.026347
    10 10.314563 -0.000001 0.000001 -1.626997 0.320734 -0.018740
    11 1.646836 0.445664 -1.699647 0.449636 0.128837 1.240121
    12 0.928312 0.000000 0.000000 0.000000 0.000000 0.000000
    13 0.928313 0.000000 -0.000001 0.000000 0.000000 0.000000
    14 2.979373 -0.388274 -0.044205 -0.037766 -0.021799 1.029709
    15 1.435262 -0.000001 -0.000001 0.000000 0.000000 1.256253
    16 1.482593 -0.000001 0.000001 0.000000 0.000000 1.666042
    17 -2.869899 1.399667 -4.140396 -0.375510 1.356257 -3.980966
    18 4.972047 0.000000 0.000000 0.882316 0.102154 -1.332955
    19 11.585358 0.000000 0.000001 0.000000 0.000000 -1.370080
    20 10.127058 0.000000 0.000001 2.180532 0.000000 -0.069778
    21 1.537458 0.109715 1.664489 -0.233165 -0.412999 0.435664
    22 0.928313 0.000000 0.000002 0.000000 0.000000 0.000000
    23 0.928311 0.000000 0.000001 0.000000 0.000000 0.000000
    24 2.686395 -0.427337 0.044204 0.001045 0.043611 0.000046
    25 1.435260 0.000000 0.000001 0.000000 0.000000 0.767749
    26 1.482593 0.000000 -0.000001 0.000000 0.000000 1.221638
    27 2.046984 0.000001 0.000000 0.178105 0.032159 -1.241644
    28 -0.000005 0.000007 3.713254 -3.293615 -0.161736 1.251244
    29 18.045723 0.000000 0.000000 0.000000 0.000000 -1.677420
    30 17.597597 0.000000 0.000000 -0.256093 0.200065 -0.218654
    31 0.000005 -0.000003 -3.713254 0.826397 2.313265 5.491158
    32 18.045721 0.000000 0.000000 0.000000 0.000000 -2.687229
    33 17.597597 0.000000 0.000000 0.383793 0.028627 0.769180
  time 6
    0 -0.092788 -3.699181 -2.904863 0.000000 0.000000 -1.585458
    1 -6.367386 0.312510 0.000000 -1.570795 -1.570787 0.000000
    2 1.293670 0.684478 -0.000001 -0.000004 -0.000001 0.358403
    3 5.309685 -0.003834 0.000000 -0.030767 0.016383 0.418392
    4 4.826790 -0.004591 0.000000 -0.138976 0.051809 0.258041
    5 5.792767 -0.005304 0.000000 0.000000 0.000000 0.169677
    6 6.662322 -0.001452 0.000000 0.000000 -0.000001 0.471000
    7 -3.108188 1.516823 4.339626 0.317557 -1.360556 -3.924265
    8 4.827512 0.000000 -0.000002 -0.996306 0.655066 -0.780661
    9 11.140032 0.000000 0.000000 0.000000 0.000000 -1.026347
    10 10.314563 -0.000001 0.000001 -1.626997 0.320734 -0.018740
    11 1.646836 0.445664 -1.699647 0.449636 0.128837 1.240121
    12 0.928312 0.000000 0.000000 0.000000 0.000000 0.000000
    13 0.928313 0.000000 -0.000001 0.000000 0.000000 0.000000
    14 2.979373 -0.388274 -0.044205 -0.037766 -0.021799 1.029709
    15 1.435262 -0.000001 -0.000001 0.000000 0.000000 1.256253
    16 1.482593 -0.000001 0.000001 0.000000 0.000000 1.666042
    17 -2.869899 1.399667 -4.140396 -0.447923 1.349605 -4.051652
    18 4.972047 0.000000 0.000000 0.884379 0.113644 -1.317647
    19 11.585358 0.000000 0.000001 0.000000 0.000000 -1.370080
    20 10.127058 0.000000 0.000001 2.180532 0.000000 -0.069778
    21 1.537458 0.109715 1.664489 -0.233165 -0.412999 0.435664
    22 0.928313 0.000000 0.000002 0.000000 0.000000 0.000000
    23 0.928311 0.000000 0.000001 0.000000 0.000000 0.000000
    24 2.686395 -0.427337 0.044204 0.001045 0.043611 0.000046
    25 1.435260 0.000000 0.000001 0.000000 0.000000 0.767749
    26 1.482593 0.000000 -0.000001 0.000000 0.000000 1.221638
    27 2.046984 0.000001 0.000000 0.178105 0.032159 -1.250160
    28 -0.000005 0.000007 3.713254 -3.293423 -0.161832 1.248368
    29 18.045723 0.000000 0.000000 0.000000 0.000000 -1.679122
    30 17.597597 0.000000 0.000000 -0.256549 0.200335 -0.219846
    31 0.000005 -0.000003 -3.713254 0.827355 2.313457 5.490679
    32 18.045721 0.000000 0.000000 0.000000 0.000000 -2.690299
    33 17.597597 0.000000 0.000000 0.384632 0.027424 0.772090
  time 7
    0 -0.092788 -3.699181 -2.955646 0.000000 0.000000 -1.585458
    1 -6.367386 0.312510 0.000000 -1.570795 -1.570787 0.000000
    2 1.293670 0.684478 -0.000001 -0.000004 -0.000001 0.358403
    3 5.309685 -0.003834 0.000000 -0.030767 0.016383 0.418392
    4 4.826790 -0.004591 0.000000 -0.138976 0.051809 0.258041
    5 5.792767 -0.005304 0.000000 0.000000 0.000000 0.178003
    6 6.662322 -0.001452 0.000000 0.000000 -0.000001 0.471000
    7 -3.108188 1.516823 4.339626 0.375069 -1.356268 -3.980702
    8 4.827512 0.000000 -0.000002 -1.005394 0.647135 -0.775202
    9 11.140032 0.000000 0.000000 0.000000 0.000000 -1.026347
    10 10.314563 -0.000001 0.000001 -1.626997 0.320734 -0.018740
    11 1.646836 0.445664 -1.699647 0.449636 0.128837 1.240121
    12 0.928312 0.000000 0.000000 0.000000 0.000000 0.000000
    13 0.928313 0.000000 -0.000001 0.000000 0.000000 0.000000
    14 2.979373 -0.388274 -0.044205 -0.037766 -0.021799 1.029709
    15 1.435262 -0.000001 -0.000001 0.000000 0.000000 1.256253
    16 1.482593 -0.000001 0.000001 0.000000 0.000000 1.666042
    17 -2.869899 1.399667 -4.140396 -0.514413 1.342007 -4.116591
    18 4.972047 0.000000 0.000000 0.886536 0.124893 -1.302672
    19 11.585358 0.000000 0.000001 0.000000 0.000000 -1.370080
    20 10.127058 0.000000 0.000001 2.180532 0.000000 -0.069778
    21 1.537458 0.109715 1.664489 -0.233165 -0.412999 0.435664
    22 0.928313 0.000000 0.000002 0.000000 0.000000 0.000000
    23 0.928311 0.000000 0.000001 0.000000 0.000000 0.000000
    24 2.686395 -0.427337 0.044204 0.001045 0.043611 0.000046
    25 1.435260 0.000000 0.000001 0.000000 0.000000 0.767749
    26 1.482593 0.000000 -0.000001 0.000000 0.000000 1.221638
    27 2.046984 0.000001 0.000000 0.178105 0.032159 -1.258433
    28 -0.000005 0.000007 3.713254 -3.293327 -0.161927 1.245684
    29 18.045723 0.000000 0.000000 0.000000 0.000000 -1.680676
    30 17.597597 0.000000 0.000000 -0.257030 0.200557 -0.220992
    31 0.000005 -0.000003 -3.713254 0.828505 2.313745 5.490200
    32 18.045721 0.000000 0.000000 0.000000 0.000000 -2.693054
    33 17.597597 0.000000 0.000000 0.385471 0.026280 0.774908
  time 8
    0 -0.092788 -3.699181 -3.006429 0.000000 0.000000 -1.585458
    1 -6.375199 0.312510 0.000000 -1.570795 -1.570787 0.000000
    2 1.293670 0.684478 -0.000001 -0.000004 -0.000001 0.358403
    3 5.309685 -0.003834 0.000000 -0.030767 0.016383 0.418392
    4 4.826790 -0.004591 0.000000 -0.138976 0.051809 0.258041
    5 5.792767 -0.005304 0.000000 0.000000 0.000000 0.186017
    6 6.662322 -0.001452 0.000000 0.000000 -0.000001 0.471000
    7 -3.108188 1.516823 4.339626 0.427980 -1.351537 -4.032348
    8 4.827512 0.000000 -0.000002 -1.014003 0.639461 -0.769916
    9 11.140032 0.000000 0.000000 0.000000 0.000000 -1.026347
    10 10.314563 -0.000001 0.000001 -1.626997 0.320734 -0.018740
    11 1.646836 0.445664 -1.699647 0.449636 0.128837 1.240121
    12 0.928312 0.000000 0.000000 0.000000 0.000000 0.000000
    13 0.928313 0.000000 -0.000001 0.000000 0.000000 0.000000
    14 2.979373 -0.388274 -0.044205 -0.037766 -0.021799 1.029709
    15 1.435262 -0.000001 -0.000001 0.000000 0.000000 1.256253
    16 1.482593 -0.000001 0.000001 0.000000 0.000000 1.666042
    17 -2.869899 1.399667 -4.140396 -0.574025 1.333910 -4.174538
    18 4.972047 0.000000 0.000000 0.888506 0.135660 -1.288363
    19 11.585358 0.000000 0.000001 0.000000 0.000000 -1.370080
    20 10.127058 0.000000 0.000001 2.180532 0.000000 -0.069778
    21 1.537458 0.109715 1.664489 -0.233165 -0.412999 0.435664
    22 0.928313 0.000000 0.000002 0.000000 0.000000 0.000000
    23 0.928311 0.000000 0.000001 0.000000 0.000000 0.000000
    24 2.686395 -0.427337 0.044204 0.001045 0.043611 0.000046
    25 1.435260 0.000000 0.000001 0.000000 0.000000 0.767749
    26 1.482593 0.000000 -0.000001 0.000000 0.000000 1.221638
    27 2.046984 0.000001 0.000000 0.178105 0.032159 -1.266462
    28 -0.000005 0.000007 3.713254 -3.293231 -0.162023 1.243000
    29 18.045723 0.000000 0.000000 0.000000 0.000000 -1.682231
    30 17.597597 0.000000 0.000000 -0.257461 0.200778 -0.222138
    31 0.000005 -0.000003 -3.713254 0.829560 2.314032 5.489816
    32 18.045721 0.000000 0.000000 0.000000 0.000000 -2.695888
    33 17.597597 0.000000 0.000000 0.386243 0.025195 0.777725
  time 9
    0 -0.092788 -3.699181 -3.049399 0.000000 0.000000 -1.585458
    1 -6.375199 0.316416 0.000000 -1.570795 -1.570787 0.000000
    2 1.293670 0.684478 -0.000001 -0.000004 -0.000001 0.358403
    3 5.309685 -0.003834 0.000000 -0.030767 0.016383 0.418392
    4 4.826790 -0.004591 0.000000 -0.138976 0.051809 0.258041
    5 5.792767 -0.005304 0.000000 0.000000 0.000000 0.193492
    6 6.662322 -0.001452 0.000000 0.000000 -0.000001 0.471000
    7 -3.108188 1.516823 4.339626 0.475523 -1.346629 -4.078724
    8 4.827512 0.000000 -0.000002 -1.021895 0.632383 -0.764631
    9 11.140032 0.000000 0.000000 0.000000 0.000000 -1.026347
    10 10.314563 -0.000001 0.000001 -1.626997 0.320734 -0.018740
    11 1.646836 0.445664 -1.699647 0.449636 0.128837 1.240121
    12 0.928312 0.000000 0.000000 0.000000 0.000000 0.000000
    13 0.928313 0.000000 -0.000001 0.000000 0.000000 0.000000
    14 2.979373 -0.388274 -0.044205 -0.037766 -0.021799 1.029709
    15 1.435262 -0.000001 -0.000001 0.000000 0.000000 1.256253
    16 1.482593 -0.000001 0.000001 0.000000 0.000000 1.666042
    17 -2.869899 1.399667 -4.140396 -0.626185 1.325655 -4.225206
    18 4.972047 0.000000 0.000000 0.890570 0.145703 -1.274985
    19 11.585358 0.000000 0.000001 0.000000 0.000000 -1.370080
    20 10.127058 0.000000 0.000001 2.180532 0.000000 -0.069778
    21 1.537458 0.109715 1.664489 -0.233165 -0.412999 0.435664
    22 0.928313 0.000000 0.000002 0.000000 0.000000 0.000000
    23 0.928311 0.000000 0.000001 0.000000 0.000000 0.000000
    24 2.686395 -0.427337 0.044204 0.001045 0.043611 0.000046
    25 1.435260 0.000000 0.000001 0.000000 0.000000 0.767749
    26 1.482593 0.000000 -0.000001 0.000000 0.000000 1.221638
    27 2.046984 0.000001 0.000000 0.178105 0.032159 -1.273944
    28 -0.000005 0.000007 3.713254 -3.293135 -0.162023 1.240508
    29 18.045723 0.000000 0.000000 0.000000 0.000000 -1.683711
    30 17.597597 0.000000 0.000000 -0.257841 0.200975 -0.223192
    31 0.000005 -0.000003 -3.713254 0.830422 2.314128 5.489529
    32 18.045721 0.000000 0.000000 0.000000 0.000000 -2.698328
    33 17.597597 0.000000 0.000000 0.387014 0.024130 0.780404
  time 10
    0 -0.092788 -3.699181 -3.092369 0.000000 0.000000 -1.585458
    1 -6.383011 0.316416 0.000000 -1.570795 -1.570787 0.000000
    2 1.293670 0.684478 -0.000001 -0.000004 -0.000001 0.358403
    3 5.309685 -0.003834 0.000000 -0.030767 0.016383 0.418392
    4 4.826790 -0.004591 0.000000 -0.138976 0.051809 0.258041
    5 5.792767 -0.005304 0.000000 0.000000 0.000000 0.200239
    6 6.662322 -0.001452 0.000000 0.000000 -0.000001 0.471000
    7 -3.108188 1.516823 4.339626 0.517028 -1.341691 -4.119063
    8 4.827512 0.000000 -0.000002 -1.029070 0.625732 -0.759952
    9 11.140032 0.000000 0.000000 0.000000 0.000000 -1.026347
    10 10.314563 -0.000001 0.000001 -1.626997 0.320734 -0.018740
    11 1.646836 0.445664 -1.699647 0.449636 0.128837 1.240121
    12 0.928312 0.000000 0.000000 0.000000 0.000000 0.000000
    13 0.928313 0.000000 -0.000001 0.000000 0.000000 0.000000
    14 2.979373 -0.388274 -0.044205 -0.037766 -0.021799 1.029709
    15 1.435262 -0.000001 -0.000001 0.000000 0.000000 1.256253
    16 1.482593 -0.000001 0.000001 0.000000 0.000000 1.666042
    17 -2.869899 1.399667 -4.140396 -0.670607 1.317610 -4.268403
    18 4.972047 0.000000 0.000000 0.892352 0.154783 -1.262672
    19 11.585358 0.000000 0.000001 0.000000 0.000000 -1.370080
    20 10.127058 0.000000 0.000001 2.180532 0.000000 -0.069778
    21 1.537458 0.109715 1.664489 -0.233165 -0.412999 0.435664
    22 0.928313 0.000000 0.000002 0.000000 0.000000 0.000000
    23 0.928311 0.000000 0.000001 0.000000 0.000000 0.000000
    24 2.686395 -0.427337 0.044204 0.001045 0.043611 0.000046
    25 1.435260 0.000000 0.000001 0.000000 0.000000 0.767749
    26 1.482593 0.000000 -0.000001 0.000000 0.000000 1.221638
    27 2.046984 0.000001 0.000000 0.178105 0.032159 -1.280757
    28 -0.000005 0.000007 3.713254 -3.293135 -0.162119 1.238207
    29 18.045723 0.000000 0.000000 0.000000 0.000000 -1.684969
    30 17.597597 0.000000 0.000000 -0.258196 0.201147 -0.224247
    31 0.000005 -0.000003 -3.713254 0.831381 2.314416 5.489241
    32 18.045721 0.000000 0.000000 0.000000 0.000000 -2.700847
    33 17.597597 0.000000 0.000000 0.387652 0.023184 0.782806
  time 11
    0 -0.092788 -3.699181 -3.131433 0.000000 0.000000 -1.585458
    1 -6.383011 0.316416 0.000000 -1.570795 -1.570787 0.000000
    2 1.293670 0.684478 -0.000001 -0.000004 -0.000001 0.358403
    3 5.309685 -0.003834 0.000000 -0.030767 0.016383 0.418392
    4 4.826790 -0.004591 0.000000 -0.138976 0.051809 0.258041
    5 5.792767 -0.005304 0.000000 0.000000 0.000000 0.206178
    6 6.662322 -0.001452 0.000000 0.000000 -0.000001 0.471000
    7 -3.108188 1.516823 4.339626 0.551535 -1.337137 -4.152696
    8 4.827512 0.000000 -0.000002 -1.035288 0.619933 -0.755706
    9 11.140032 0.000000 0.000000 0.000000 0.000000 -1.026347
    10 10.314563 -0.000001 0.000001 -1.626997 0.320734 -0.018740
    11 1.646836 0.445664 -1.699647 0.449636 0.128837 1.240121
    12 0.928312 0.000000 0.000000 0.000000 0.000000 0.000000
    13 0.928313 0.000000 -0.000001 0.000000 0.000000 0.000000
    14 2.979373 -0.388274 -0.044205 -0.037766 -0.021799 1.029709
    15 1.435262 -0.000001 -0.000001 0.000000 0.000000 1.256253
    16 1.482593 -0.000001 0.000001 0.000000 0.000000 1.666042
    17 -2.869899 1.399667 -4.140396 -0.707196 1.310222 -4.303650
    18 4.972047 0.000000 0.000000 0.893947 0.162818 -1.251957
    19 11.585358 0.000000 0.000001 0.000000 0.000000 -1.370080
    20 10.127058 0.000000 0.000001 2.180532 0.000000 -0.069778
    21 1.537458 0.109715 1.664489 -0.233165 -0.412999 0.435664
    22 0.928313 0.000000 0.000002 0.000000 0.000000 0.000000
    23 0.928311 0.000000 0.000001 0.000000 0.000000 0.000000
    24 2.686395 -0.427337 0.044204 0.001045 0.043611 0.000046
    25 1.435260 0.000000 0.000001 0.000000 0.000000 0.767749
    26 1.482593 0.000000 -0.000001 0.000000 0.000000 1.221638
    27 2.046984 0.000001 0.000000 0.178105 0.032159 -1.286535
    28 -0.000005 0.000007 3.713254 -3.293039 -0.162119 1.236290
    29 18.045723 0.000000 0.000000 0.000000 0.000000 -1.686153
    30 17.597597 0.000000 0.000000 -0.258551 0.201344 -0.225026
    31 0.000005 -0.000003 -3.713254 0.832147 2.314608 5.488953
    32 18.045721 0.000000 0.000000 0.000000 0.000000 -2.702815
    33 17.597597 0.000000 0.000000 0.388289 0.022336 0.784930
  time 12
    0 -0.092788 -3.699181 -3.154871 0.000000 0.000000 -1.585458
    1 -6.383011 0.316416 0.000000 -1.570795 -1.570787 0.000000
    2 1.293670 0.684478 -0.000001 -0.000004 -0.000001 0.358403
    3 5.309685 -0.003834 0.000000 -0.030767 0.016383 0.418392
    4 4.826790 -0.004591 0.000000 -0.138976 0.051809 0.258041
    5 5.792767 -0.005304 0.000000 0.000000 0.000000 0.211140
    6 6.662322 -0.001452 0.000000 0.000000 -0.000001 0.471000
    7 -3.108188 1.516823 4.339626 0.579236 -1.333116 -4.179716
    8 4.827512 0.000000 -0.000002 -1.040390 0.615243 -0.752326
    9 11.140032 0.000000 0.000000 0.000000 0.000000 -1.026347
    10 10.314563 -0.000001 0.000001 -1.626997 0.320734 -0.018740
    11 1.646836 0.445664 -1.699647 0.449636 0.128837 1.240121
    12 0.928312 0.000000 0.000000 0.000000 0.000000 0.000000
    13 0.928313 0.000000 -0.000001 0.000000 0.000000 0.000000
    14 2.979373 -0.388274 -0.044205 -0.037766 -0.021799 1.029709
    15 1.435262 -0.000001 -0.000001 0.000000 0.000000 1.256253
    16 1.482593 -0.000001 0.000001 0.000000 0.000000 1.666042
    17 -2.869899 1.399667 -4.140396 -0.735951 1.303860 -4.331330
    18 4.972047 0.000000 0.000000 0.895260 0.169487 -1.242972
    19 11.585358 0.000000 0.000001 0.000000 0.000000 -1.370080
    20 10.127058 0.000000 0.000001 2.180532 0.000000 -0.069778
    21 1.537458 0.109715 1.664489 -0.233165 -0.412999 0.435664
    22 0.928313 0.000000 0.000002 0.000000 0.000000 0.000000
    23 0.928311 0.000000 0.000001 0.000000 0.000000 0.000000
    24 2.686395 -0.427337 0.044204 0.001045 0.043611 0.000046
    25 1.435260 0.000000 0.000001 0.000000 0.000000 0.767749
    26 1.482593 0.000000 -0.000001 0.000000 0.000000 1.221638
    27 2.046984 0.000001 0.000000 0.178105 0.032159 -1.291463
    28 -0.000005 0.000007 3.713254 -3.293039 -0.162215 1.234661
    29 18.045723 0.000000 0.000000 0.000000 0.000000 -1.687116
    30 17.597597 0.000000 0.000000 -0.258779 0.201467 -0.225806
    31 0.000005 -0.000003 -3.713254 0.832818 2.314799 5.488762
    32 18.045721 0.000000 0.000000 0.000000 0.000000 -2.704468
    33 17.597597 0.000000 0.000000 0.388759 0.021626 0.786639
  time 13
    0 -0.092788 -3.699181 -3.186122 0.000000 0.000000 -1.585458
    1 -6.383011 0.316416 0.000000 -1.570795 -1.570787 0.000000
    2 1.293670 0.684478 -0.000001 -0.000004 -0.000001 0.358403
    3 5.309685 -0.003834 0.000000 -0.030767 0.016383 0.418392
    4 4.826790 -0.004591 0.000000 -0.138976 0.051809 0.258041
    5 5.792767 -0.005304 0.000000 0.000000 0.000000 0.214836
    6 6.662322 -0.001452 0.000000 0.000000 -0.000001 0.471000
    7 -3.108188 1.516823 4.339626 0.599653 -1.330011 -4.199359
    8 4.827512 0.000000 -0.000002 -1.044216 0.611576 -0.749467
    9 11.140032 0.000000 0.000000 0.000000 0.000000 -1.026347
    10 10.314563 -0.000001 0.000001 -1.626997 0.320734 -0.018740
    11 1.646836 0.445664 -1.699647 0.449636 0.128837 1.240121
    12 0.928312 0.000000 0.000000 0.000000 0.000000 0.000000
    13 0.928313 0.000000 -0.000001 0.000000 0.000000 0.000000
    14 2.979373 -0.388274 -0.044205 -0.037766 -0.021799 1.029709
    15 1.435262 -0.000001 -0.000001 0.000000 0.000000 1.256253
    16 1.482593 -0.000001 0.000001 0.000000 0.000000 1.666042
    17 -2.869899 1.399667 -4.140396 -0.756873 1.298891 -4.351540
    18 4.972047 0.000000 0.000000 0.896292 0.174549 -1.236250
    19 11.585358 0.000000 0.000001 0.000000 0.000000 -1.370080
    20 10.127058 0.000000 0.000001 2.180532 0.000000 -0.069778
    21 1.537458 0.109715 1.664489 -0.233165 -0.412999 0.435664
    22 0.928313 0.000000 0.000002 0.000000 0.000000 0.000000
    23 0.928311 0.000000 0.000001 0.000000 0.000000 0.000000
    24 2.686395 -0.427337 0.044204 0.001045 0.043611 0.000046
    25 1.435260 0.000000 0.000001 0.000000 0.000000 0.767749
    26 1.482593 0.000000 -0.000001 0.000000 0.000000 1.221638
    27 2.046984 0.000001 0.000000 0.178105 0.032159 -1.295295
    28 -0.000005 0.000007 3.713254 -3.293039 -0.162215 1.233414
    29 18.045723 0.000000 0.000000 0.000000 0.000000 -1.687782
    30 17.597597 0.000000 0.000000 -0.258981 0.201566 -0.226310
    31 0.000005 -0.000003 -3.713254 0.833393 2.314991 5.488666
    32 18.045721 0.000000 0.000000 0.000000 0.000000 -2.705885
    33 17.597597 0.000000 0.000000 0.389128 0.021073 0.787979
  time 14
    0 -0.092788 -3.699181 -3.197841 0.000000 0.000000 -1.585458
    1 -6.383011 0.316416 0.000000 -1.570795 -1.570787 0.000000
    2 1.293670 0.684478 -0.000001 -0.000004 -0.000001 0.358403
    3 5.309685 -0.003834 0.000000 -0.030767 0.016383 0.418392
    4 4.826790 -0.004591 0.000000 -0.138976 0.051809 0.258041
    5 5.792767 -0.005304 0.000000 0.000000 0.000000 0.217203
    6 6.662322 -0.001452 0.000000 0.000000 -0.000001 0.471000
    7 -3.108188 1.516823 4.339626 0.612402 -1.327941 -4.211720
    8 4.827512 0.000000 -0.000002 -1.046687 0.609444 -0.747820
    9 11.140032 0.000000 0.000000 0.000000 0.000000 -1.026347
    10 10.314563 -0.000001 0.000001 -1.626997 0.320734 -0.018740
    11 1.646836 0.445664 -1.699647 0.449636 0.128837 1.240121
    12 0.928312 0.000000 0.000000 0.000000 0.000000 0.000000
    13 0.928313 0.000000 -0.000001 0.000000 0.000000 0.000000
    14 2.979373 -0.388274 -0.044205 -0.037766 -0.021799 1.029709
    15 1.435262 -0.000001 -0.000001 0.000000 0.000000 1.256253
    16 1.482593 -0.000001 0.000001 0.000000 0.000000 1.666042
    17 -2.869899 1.399667 -4.140396 -0.769769 1.295710 -4.363896
    18 4.972047 0.000000 0.000000 0.897042 0.177682 -1.231924
    19 11.585358 0.000000 0.000001 0.000000 0.000000 -1.370080
    20 10.127058 0.000000 0.000001 2.180532 0.000000 -0.069778
    21 1.537458 0.109715 1.664489 -0.233165 -0.412999 0.435664
    22 0.928313 0.000000 0.000002 0.000000 0.000000 0.000000
    23 0.928311 0.000000 0.000001 0.000000 0.000000 0.000000
    24 2.686395 -0.427337 0.044204 0.001045 0.043611 0.000046
    25 1.435260 0.000000 0.000001 0.000000 0.000000 0.767749
    26 1.482593 0.000000 -0.000001 0.000000 0.000000 1.221638
    27 2.046984 0.000001 0.000000 0.178105 0.032159 -1.297545
    28 -0.000005 0.000007 3.713254 -3.293039 -0.162215 1.232648
    29 18.045723 0.000000 0.000000 0.000000 0.000000 -1.688226
    30 17.597597 0.000000 0.000000 -0.259133 0.201640 -0.226677
    31 0.000005 -0.000003 -3.713254 0.833681 2.315087 5.488570
    32 18.045721 0.000000 0.000000 0.000000 0.000000 -2.706515
    33 17.597597 0.000000 0.000000 0.389397 0.020718 0.788856
  time 15
    0 -0.092788 -3.699181 -3.205654 0.000000 0.000000 -1.585458
    1 -6.383011 0.316416 0.000000 -1.570795 -1.570787 0.000000
    2 1.293670 0.684478 -0.000001 -0.000004 -0.000001 0.358403
    3 5.309685 -0.003834 0.000000 -0.030767 0.016383 0.418392
    4 4.826790 -0.004591 0.000000 -0.138976 0.051809 0.258041
    5 5.792767 -0.005304 0.000000 0.000000 0.000000 0.218054
    6 6.662322 -0.001452 0.000000 0.000000 -0.000001 0.471000
    7 -3.108188 1.516823 4.339626 0.616715 -1.327231 -4.216031
    8 4.827512 0.000000 -0.000002 -1.047484 0.608677 -0.747127
    9 11.140032 0.000000 0.000000 0.000000 0.000000 -1.026347
    10 10.314563 -0.000001 0.000001 -1.626997 0.320734 -0.018740
    11 1.646836 0.445664 -1.699647 0.449636 0.128837 1.240121
    12 0.928312 0.000000 0.000000 0.000000 0.000000 0.000000
    13 0.928313 0.000000 -0.000001 0.000000 0.000000 0.000000
    14 2.979373 -0.388274 -0.044205 -0.037766 -0.021799 1.029709
    15 1.435262 -0.000001 -0.000001 0.000000 0.000000 1.256253
    16 1.482593 -0.000001 0.000001 0.000000 0.000000 1.666042
    17 -2.869899 1.399667 -4.140396 -0.774068 1.294553 -4.368301
    18 4.972047 0.000000 0.000000 0.897230 0.178807 -1.230460
    19 11.585358 0.000000 0.000001 0.000000 0.000000 -1.370080
    20 10.127058 0.000000 0.000001 2.180532 0.000000 -0.069778
    21 1.537458 0.109715 1.664489 -0.233165 -0.412999 0.435664
    22 0.928313 0.000000 0.000002 0.000000 0.000000 0.000000
    23 0.928311 0.000000 0.000001 0.000000 0.000000 0.000000
    24 2.686395 -0.427337 0.044204 0.001045 0.043611 0.000046
    25 1.435260 0.000000 0.000001 0.000000 0.000000 0.767749
    26 1.482593 0.000000 -0.000001 0.000000 0.000000 1.221638
    27 2.046984 0.000001 0.000000 0.178105 0.032159 -1.298519
    28 -0.000005 0.000007 3.713254 -3.293039 -0.162215 1.232360
    29 18.045723 0.000000 0.000000 0.000000 0.000000 -1.688448
    30 17.597597 0.000000 0.000000 -0.259184 0.201640 -0.226723
    31 0.000005 -0.000003 -3.713254 0.833873 2.315087 5.488474
    32 18.045721 0.000000 0.000000 0.000000 0.000000 -2.706987
    33 17.597597 0.000000 0.000000 0.389464 0.020620 0.789134
  time 16
    0 -0.092788 -3.699181 -3.197841 0.000000 0.000000 -1.585458
    1 -6.383011 0.316416 0.000000 -1.570795 -1.570787 0.000000
    2 1.293670 0.684478 -0.000001 -0.000004 -0.000001 0.358403
    3 5.309685 -0.003834 0.000000 -0.030767 0.016383 0.418392
    4 4.826790 -0.004591 0.000000 -0.138976 0.051809 0.258041
    5 5.792767 -0.005304 0.000000 0.000000 0.000000 0.217203
    6 6.662322 -0.001452 0.000000 0.000000 -0.000001 0.471000
    7 -3.108188 1.516823 4.339626 0.612402 -1.327941 -4.211720
    8 4.827512 0.000000 -0.000002 -1.046687 0.609444 -0.747820
    9 11.140032 0.000000 0.000000 0.000000 0.000000 -1.026347
    10 10.314563 -0.000001 0.000001 -1.626997 0.320734 -0.018740
    11 1.646836 0.445664 -1.699647 0.449636 0.128837 1.240121
    12 0.928312 0.000000 0.000000 0.000000 0.000000 0.000000
    13 0.928313 0.000000 -0.000001 0.000000 0.000000 0.000000
    14 2.979373 -0.388274 -0.044205 -0.037766 -0.021799 1.029709
    15 1.435262 -0.000001 -0.000001 0.000000 0.000000 1.256253
    16 1.482593 -0.000001 0.000001 0.000000 0.000000 1.666042
    17 -2.869899 1.399667 -4.140396 -0.769769 1.295710 -4.363896
    18 4.972047 0.000000 0.000000 0.897042 0.177682 -1.231924
    19 11.585358 0.000000 0.000001 0.000000 0.000000 -1.370080
    20 10.127058 0.000000 0.000001 2.180532 0.000000 -0.069778
    21 1.537458 0.109715 1.664489 -0.233165 -0.412999 0.435664
    22 0.928313 0.000000 0.000002 0.000000 0.000000 0.000000
    23 0.928311 0.000000 0.000001 0.000000 0.000000 0.000000
    24 2.686395 -0.427337 0.044204 0.001045 0.043611 0.000046
    25 1.435260 0.000000 0.000001 0.000000 0.000000 0.767749
    26 1.482593 0.000000 -0.000001 0.000000 0.000000 1.221638
    27 2.046984 0.000001 0.000000 0.178105 0.032159 -1.297545
    28 -0.000005 0.000007 3.713254 -3.293039 -0.162215 1.232648
    29 18.045723 0.000000 0.000000 0.000000 0.000000 -1.688226
    30 17.597597 0.000000 0.000000 -0.259133 0.201640 -0.226677
    31 0.000005 -0.000003 -3.713254 0.833681 2.315087 5.488570
    32 18.045721 0.000000 0.000000 0.000000 0.000000 -2.706515
    33 17.597597 0.000000 0.000000 0.389397 0.020718 0.788856
  time 17
    0 -0.092788 -3.699181 -3.186122 0.000000 0.000000 -1.585458
    1 -6.383011 0.316416 0.000000 -1.570795 -1.570787 0.000000
    2 1.293670 0.684478 -0.000001 -0.000004 -0.000001 0.358403
    3 5.309685 -0.003834 0.000000 -0.030767 0.016383 0.418392
    4 4.826790 -0.004591 0.000000 -0.138976 0.051809 0.258041
    5 5.792767 -0.005304 0.000000 0.000000 0.000000 0.214836
    6 6.662322 -0.001452 0.000000 0.000000 -0.000001 0.471000
    7 -3.108188 1.516823 4.339626 0.599653 -1.330011 -4.199359
    8 4.827512 0.000000 -0.000002 -1.044216 0.611576 -0.749467
    9 11.140032 0.000000 0.000000 0.000000 0.000000 -1.026347
    10 10.314563 -0.000001 0.000001 -1.626997 0.320734 -0.018740
    11 1.646836 0.445664 -1.699647 0.449636 0.128837 1.240121
    12 0.928312 0.000000 0.000000 0.000000 0.000000 0.000000
    13 0.928313 0.000000 -0.000001 0.000000 0.000000 0.000000
    14 2.979373 -0.388274 -0.044205 -0.037766 -0.021799 1.029709
    15 1.435262 -0.000001 -0.000001 0.000000 0.000000 1.256253
    16 1.482593 -0.000001 0.000001 0.000000 0.000000 1.666042
    17 -2.869899 1.399667 -4.140396 -0.756873 1.298891 -4.351540
    18 4.972047 0.000000 0.000000 0.896292 0.174549 -1.236250
    19 11.585358 0.000000 0.000001 0.000000 0.000000 -1.370080
    20 10.127058 0.000000 0.000001 2.180532 0.000000 -0.069778
    21 1.537458 0.109715 1.664489 -0.233165 -0.412999 0.435664
    22 0.928313 0.000000 0.000002 0.000000 0.000000 0.000000
    23 0.928311 0.000000 0.000001 0.000000 0.000000 0.000000
    24 2.686395 -0.427337 0.044204 0.001045 0.043611 0.000046
    25 1.435260 0.000000 0.000001 0.000000 0.000000 0.767749
    26 1.482593 0.000000 -0.000001 0.000000 0.000000 1.221638
    27 2.046984 0.000001 0.000000 0.178105 0.032159 -1.295295
    28 -0.000005 0.000007 3.713254 -3.293039 -0.162215 1.233414
    29 18.045723 0.000000 0.000000 0.000000 0.000000 -1.687782
    30 17.597597 0.000000 0.000000 -0.258981 0.201566 -0.226310
    31 0.000005 -0.000003 -3.713254 0.833393 2.314991 5.488666
    32 18.045721 0.000000 0.000000 0.000000 0.000000 -2.705885
    33 17.597597 0.000000 0.000000 0.389128 0.021073 0.787979
  time 18
    0 -0.092788 -3.699181 -3.154871 0.000000 0.000000 -1.585458
    1 -6.383011 0.316416 0.000000 -1.570795 -1.570787 0.000000
    2 1.293670 0.684478 -0.000001 -0.000004 -0.000001 0.358403
    3 5.309685 -0.003834 0.000000 -0.030767 0.016383 0.418392
    4 4.826790 -0.004591 0.000000 -0.138976 0.051809 0.258041
    5 5.792767 -0.005304 0.000000 0.000000 0.000000 0.211140
    6 6.662322 -0.001452 0.000000 0.000000 -0.000001 0.471000
    7 -3.108188 1.516823 4.339626 0.579236 -1.333116 -4.179716
    8 4.827512 0.000000 -0.000002 -1.040390 0.615243 -0.752326
    9 11.140032 0.000000 0.000000 0.000000 0.000000 -1.026347
    10 10.314563 -0.000001 0.000001 -1.626997 0.320734 -0.018740
    11 1.646836 0.445664 -1.699647 0.449636 0.128837 1.240121
    12 0.928312 0.000000 0.000000 0.000000 0.000000 0.000000
    13 0.928313 0.000000 -0.000001 0.000000 0.000000 0.000000
    14 2.979373 -0.388274 -0.044205 -0.037766 -0.021799 1.029709
    15 1.435262 -0.000001 -0.000001 0.000000 0.000000 1.256253
    16 1.482593 -0.000001 0.000001 0.000000 0.000000 1.666042
    17 -2.869899 1.399667 -4.140396 -0.735951 1.303860 -4.331330
    18 4.972047 0.000000 0.000000 0.895260 0.169487 -1.242972
    19 11.585358 0.000000 0.000001 0.000000 0.000000 -1.370080
    20 10.127058 0.000000 0.000001 2.180532 0.000000 -0.069778
    21 1.537458 0.109715 1.664489 -0.233165 -0.412999 0.435664
    22 0.928313 0.000000 0.000002 0.000000 0.000000 0.000000
    23 0.928311 0.000000 0.000001 0.000000 0.000000 0.000000
    24 2.686395 -0.427337 0.044204 0.001045 0.043611 0.000046
    25 1.435260 0.000000 0.000001 0.000000 0.000000 0.767749
    26 1.482593 0.000000 -0.000001 0.000000 0.000000 1.221638
    27 2.046984 0.000001 0.000000 0.178105 0.032159 -1.291463
    28 -0.000005 0.000007 3.713254 -3.293039 -0.162215 1.234661
    29 18.045723 0.000000 0.000000 0.000000 0.000000 -1.687116
    30 17.597597 0.000000 0.000000 -0.258779 0.201467 -0.225806
    31 0.000005 -0.000003 -3.713254 0.832818 2.314799 5.488762
    32 18.045721 0.000000 0.000000 0.000000 0.000000 -2.704468
    33 17.597597 0.000000 0.000000 0.388759 0.021626 0.786639
  time 19
    0 -0.092788 -3.699181 -3.131433 0.000000 0.000000 -1.585458
    1 -6.383011 0.316416 0.000000 -1.570795 -1.570787 0.000000
    2 1.293670 0.684478 -0.000001 -0.000004 -0.000001 0.358403
    3 5.309685 -0.003834 0.000000 -0.030767 0.016383 0.418392
    4 4.826790 -0.004591 0.000000 -0.138976 0.051809 0.258041
    5 5.792767 -0.005304 0.000000 0.000000 0.000000 0.206178
    6 6.662322 -0.001452 0.000000 0.000000 -0.000001 0.471000
    7 -3.108188 1.516823 4.339626 0.551535 -1.337137 -4.152696
    8 4.827512 0.000000 -0.000002 -1.035288 0.619933 -0.755706
    9 11.140032 0.000000 0.000000 0.000000 0.000000 -1.026347
    10 10.314563 -0.000001 0.000001 -1.626997 0.320734 -0.018740
    11 1.646836 0.445664 -1.699647 0.449636 0.128837 1.240121
    12 0.928312 0.000000 0.000000 0.000000 0.000000 0.000000
    13 0.928313 0.000000 -0.000001 0.000000 0.000000 0.000000
    14 2.979373 -0.388274 -0.044205 -0.037766 -0.021799 1.029709
    15 1.435262 -0.000001 -0.000001 0.000000 0.000000 1.256253
    16 1.482593 -0.000001 0.000001 0.000000 0.000000 1.666042
    17 -2.869899 1.399667 -4.140396 -0.707196 1.310222 -4.303650
    18 4.972047 0.000000 0.000000 0.893947 0.162818 -1.251957
    19 11.585358 0.000000 0.000001 0.000000 0.000000 -1.370080
    20 10.127058 0.000000 0.000001 2.180532 0.000000 -0.069778
    21 1.537458 0.109715 1.664489 -0.233165 -0.412999 0.435664
    22 0.928313 0.000000 0.000002 0.000000 0.000000 0.000000
    23 0.928311 0.000000 0.000001 0.000000 0.000000 0.000000
    24 2.686395 -0.427337 0.044204 0.001045 0.043611 0.000046
    25 1.435260 0.000000 0.000001 0.000000 0.000000 0.767749
    26 1.482593 0.000000 -0.000001 0.000000 0.000000 1.221638
    27 2.046984 0.000001 0.000000 0.178105 0.032159 -1.286535
    28 -0.000005 0.000007 3.713254 -3.293039 -0.162119 1.236290
    29 18.045723 0.000000 0.000000 0.000000 0.000000 -1.686153
    30 17.597597 0.000000 0.000000 -0.258551 0.201344 -0.225026
    31 0.000005 -0.000003 -3.713254 0.832147 2.314608 5.488953
    32 18.045721 0.000000 0.000000 0.000000 0.000000 -2.702815
    33 17.597597 0.000000 0.000000 0.388289 0.022336 0.784930
  time 20
    0 -0.092788 -3.699181 -3.092369 0.000000 0.000000 -1.585458
    1 -6.383011 0.316416 0.000000 -1.570795 -1.570787 0.000000
    2 1.293670 0.684478 -0.000001 -0.000004 -0.000001 0.358403
    3 5.309685 -0.003834 0.000000 -0.030767 0.016383 0.418392
    4 4.826790 -0.004591 0.000000 -0.138976 0.051809 0.258041
    5 5.792767 -0.005304 0.000000 0.000000 0.000000 0.200239
    6 6.662322 -0.001452 0.000000 0.000000 -0.000001 0.471000
    7 -3.108188 1.516823 4.339626 0.517028 -1.341691 -4.119063
    8 4.827512 0.000000 -0.000002 -1.029070 0.625732 -0.759952
    9 11.140032 0.000000 0.000000 0.000000 0.000000 -1.026347
    10 10.314563 -0.000001 0.000001 -1.626997 0.320734 -0.018740
    11 1.646836 0.445664 -1.699647 0.449636 0.128837 1.240121
    12 0.928312 0.000000 0.000000 0.000000 0.000000 0.000000
    13 0.928313 0.000000 -0.000001 0.000000 0.000000 0.000000
    14 2.979373 -0.388274 -0.044205 -0.037766 -0.021799 1.029709
    15 1.435262 -0.000001 -0.000001 0.000000 0.000000 1.256253
    16 1.482593 -0.000001 0.000001 0.000000 0.000000 1.666042
    17 -2.869899 1.399667 -4.140396 -0.670607 1.317610 -4.268403
    18 4.972047 0.000000 0.000000 0.892352 0.154783 -1.262672
    19 11.585358 0.000000 0.000001 0.000000 0.000000 -1.370080
    20 10.127058 0.000000 0.000001 2.180532 0.000000 -0.069778
    21 1.537458 0.109715 1.664489 -0.233165 -0.412999 0.435664
    22 0.928313 0.000000 0.000002 0.000000 0.000000 0.000000
    23 0.928311 0.000000 0.000001 0.000000 0.000000 0.000000
    24 2.686395 -0.427337 0.044204 0.001045 0.043611 0.000046
    25 1.435260 0.000000 0.000001 0.000000 0.000000 0.767749
    26 1.482593 0.000000 -0.000001 0.000000 0.000000 1.221638
    27 2.046984 0.000001 0.000000 0.178105 0.032159 -1.280757
    28 -0.000005 0.000007 3.713254 -3.293135 -0.162119 1.238207
    29 18.045723 0.000000 0.000000 0.000000 0.000000 -1.684969
    30 17.597597 0.000000 0.000000 -0.258196 0.201147 -0.224247
    31 0.000005 -0.000003 -3.713254 0.831381 2.314416 5.489241
    32 18.045721 0.000000 0.000000 0.000000 0.000000 -2.700847
    33 17.597597 0.000000 0.000000 0.387652 0.023184 0.782806
  time 21
    0 -0.092788 -3.699181 -3.049399 0.000000 0.000000 -1.585458
    1 -6.375199 0.316416 0.000000 -1.570795 -1.570787 0.000000
    2 1.293670 0.684478 -0.000001 -0.000004 -0.000001 0.358403
    3 5.309685 -0.003834 0.000000 -0.030767 0.016383 0.418392
    4 4.826790 -0.004591 0.000000 -0.138976 0.051809 0.258041
    5 5.792767 -0.005304 0.000000 0.000000 0.000000 0.193492
    6 6.662322 -0.001452 0.000000 0.000000 -0.000001 0.471000
    7 -3.108188 1.516823 4.339626 0.475523 -1.346629 -4.078724
    8 4.827512 0.000000 -0.000002 -1.021895 0.632383 -0.764631
    9 11.140032 0.000000 0.000000 0.000000 0.000000 -1.026347
    10 10.314563 -0.000001 0.000001 -1.626997 0.320734 -0.018740
    11 1.646836 0.445664 -1.699647 0.449636 0.128837 1.240121
    12 0.928312 0.000000 0.000000 0.000000 0.000000 0.000000
    13 0.928313 0.000000 -0.000001 0.000000 0.000000 0.000000
    14 2.979373 -0.388274 -0.044205 -0.037766 -0.021799 1.029709
    15 1.435262 -0.000001 -0.000001 0.000000 0.000000 1.256253
    16 1.482593 -0.000001 0.000001 0.000000 0.000000 1.666042
    17 -2.869899 1.399667 -4.140396 -0.626185 1.325655 -4.225206
    18 4.972047 0.000000 0.000000 0.890570 0.145703 -1.274985
    19 11.585358 0.000000 0.000001 0.000000 0.000000 -1.370080
    20 10.127058 0.000000 0.000001 2.180532 0.000000 -0.069778
    21 1.537458 0.109715 1.664489 -0.233165 -0.412999 0.435664
    22 0.928313 0.000000 0.000002 0.000000 0.000000 0.000000
    23 0.928311 0.000000 0.000001 0.000000 0.000000 0.000000
    24 2.686395 -0.427337 0.044204 0.001045 0.043611 0.000046
    25 1.435260 0.000000 0.000001 0.000000 0.000000 0.767749
    26 1.482593 0.000000 -0.000001 0.000000 0.000000 1.221638
    27 2.046984 0.000001 0.000000 0.178105 0.032159 -1.273944
    28 -0.000005 0.000007 3.713254 -3.293135 -0.162023 1.240508
    29 18.045723 0.000000 0.000000 0.000000 0.000000 -1.683711
    30 17.597597 0.000000 0.000000 -0.257841 0.200975 -0.223192
    31 0.000005 -0.000003 -3.713254 0.830422 2.314128 5.489529
    32 18.045721 0.000000 0.000000 0.000000 0.000000 -2.698328
    33 17.597597 0.000000 0.000000 0.387014 0.024130 0.780404
  time 22
    0 -0.092788 -3.699181 -3.006429 0.000000 0.000000 -1.585458
    1 -6.375199 0.312510 0.000000 -1.570795 -1.570787 0.000000
    2 1.293670 0.684478 -0.000001 -0.000004 -0.000001 0.358403
    3 5.309685 -0.003834 0.000000 -0.030767 0.016383 0.418392
    4 4.826790 -0.004591 0.000000 -0.138976 0.051809 0.258041
    5 5.792767 -0.005304 0.000000 0.000000 0.000000 0.186017
    6 6.662322 -0.001452 0.000000 0.000000 -0.000001 0.471000
    7 -3.108188 1.516823 4.339626 0.427980 -1.351537 -4.032348
    8 4.827512 0.000000 -0.000002 -1.014003 0.639461 -0.769916
    9 11.140032 0.000000 0.000000 0.000000 0.000000 -1.026347
    10 10.314563 -0.000001 0.000001 -1.626997 0.320734 -0.018740
    11 1.646836 0.445664 -1.699647 0.449636 0.128837 1.240121
    12 0.928312 0.000000 0.000000 0.000000 0.000000 0.000000
    13 0.928313 0.000000 -0.000001 0.000000 0.000000 0.000000
    14 2.979373 -0.388274 -0.044205 -0.037766 -0.021799 1.029709
    15 1.435262 -0.000001 -0.000001 0.000000 0.000000 1.256253
    16 1.482593 -0.000001 0.000001 0.000000 0.000000 1.666042
    17 -2.869899 1.399667 -4.140396 -0.574025 1.333910 -4.174538
    18 4.972047 0.000000 0.000000 0.888506 0.135660 -1.288363
    19 11.585358 0.000000 0.000001 0.000000 0.000000 -1.370080
    20 10.127058 0.000000 0.000001 2.180532 0.000000 -0.069778
    21 1.537458 0.109715 1.664489 -0.233165 -0.412999 0.435664
    22 0.928313 0.000000 0.000002 0.000000 0.000000 0.000000
    23 0.928311 0.000000 0.000001 0.000000 0.000000 0.000000
    24 2.686395 -0.427337 0.044204 0.001045 0.043611 0.000046
    25 1.435260 0.000000 0.000001 0.000000 0.000000 0.767749
    26 1.482593 0.000000 -0.000001 0.000000 0.000000 1.221638
    27 2.046984 0.000001 0.000000 0.178105 0.032159 -1.266462
    28 -0.000005 0.000007 3.713254 -3.293231 -0.162023 1.243000
    29 18.045723 0.000000 0.000000 0.000000 0.000000 -1.682231
    30 17.597597 0.000000 0.000000 -0.257461 0.200778 -0.222138
    31 0.000005 -0.000003 -3.713254 0.829560 2.314032 5.489816
    32 18.045721 0.000000 0.000000 0.000000 0.000000 -2.695888
    33 17.597597 0.000000 0.000000 0.386243 0.025195 0.777725
  time 23
    0 -0.092788 -3.699181 -2.955646 0.000000 0.000000 -1.585458
    1 -6.367386 0.312510 0.000000 -1.570795 -1.570787 0.000000
    2 1.293670 0.684478 -0.000001 -0.000004 -0.000001 0.358403
    3 5.309685 -0.003834 0.000000 -0.030767 0.016383 0.418392
    4 4.826790 -0.004591 0.000000 -0.138976 0.051809 0.258041
    5 5.792767 -0.005304 0.000000 0.000000 0.000000 0.178003
    6 6.662322 -0.001452 0.000000 0.000000 -0.000001 0.471000
    7 -3.108188 1.516823 4.339626 0.375069 -1.356268 -3.980702
    8 4.827512 0.000000 -0.000002 -1.005394 0.647135 -0.775202
    9 11.140032 0.000000 0.000000 0.000000 0.000000 -1.026347
    10 10.314563 -0.000001 0.000001 -1.626997 0.320734 -0.018740
    11 1.646836 0.445664 -1.699647 0.449636 0.128837 1.240121
    12 0.928312 0.000000 0.000000 0.000000 0.000000 0.000000
    13 0.928313 0.000000 -0.000001 0.000000 0.000000 0.000000
    14 2.979373 -0.388274 -0.044205 -0.037766 -0.021799 1.029709
    15 1.435262 -0.000001 -0.000001 0.000000 0.000000 1.256253
    16 1.482593 -0.000001 0.000001 0.000000 0.000000 1.666042
    17 -2.869899 1.399667 -4.140396 -0.514413 1.342007 -4.116591
    18 4.972047 0.000000 0.000000 0.886536 0.124893 -1.302672
    19 11.585358 0.000000 0.000001 0.000000 0.000000 -1.370080
    20 10.127058 0.000000 0.000001 2.180532 0.000000 -0.069778
    21 1.537458 0.109715 1.664489 -0.233165 -0.412999 0.435664
    22 0.928313 0.000000 0.000002 0.000000 0.000000 0.000000
    23 0.928311 0.000000 0.000001 0.000000 0.000000 0.000000
    24 2.686395 -0.427337 0.044204 0.001045 0.043611 0.000046
    25 1.435260 0.000000 0.000001 0.000000 0.000000 0.767749
    26 1.482593 0.000000 -0.000001 0.000000 0.000000 1.221638
    27 2.046984 0.000001 0.000000 0.178105 0.032159 -1.258433
    28 -0.000005 0.000007 3.713254 -3.293327 -0.161927 1.245684
    29 18.045723 0.000000 0.000000 0.000000 0.000000 -1.680676
    30 17.597597 0.000000 0.000000 -0.257030 0.200557 -0.220992
    31 0.000005 -0.000003 -3.713254 0.828505 2.313745 5.490200
    32 18.045721 0.000000 0.000000 0.000000 0.000000 -2.693054
    33 17.597597 0.000000 0.000000 0.385471 0.026280 0.774908
  time 24
    0 -0.092788 -3.699181 -2.904863 0.000000 0.000000 -1.585458
    1 -6.367386 0.312510 0.000000 -1.570795 -1.570787 0.000000
    2 1.293670 0.684478 -0.000001 -0.000004 -0.000001 0.358403
    3 5.309685 -0.003834 0.000000 -0.030767 0.016383 0.418392
    4 4.826790 -0.004591 0.000000 -0.138976 0.051809 0.258041
    5 5.792767 -0.005304 0.000000 0.000000 0.000000 0.169677
    6 6.662322 -0.001452 0.000000 0.000000 -0.000001 0.471000
    7 -3.108188 1.516823 4.339626 0.317557 -1.360556 -3.924265
    8 4.827512 0.000000 -0.000002 -0.996306 0.655066 -0.780661
    9 11.140032 0.000000 0.000000 0.000000 0.000000 -1.026347
    10 10.314563 -0.000001 0.000001 -1.626997 0.320734 -0.018740
    11 1.646836 0.445664 -1.699647 0.449636 0.128837 1.240121
    12 0.928312 0.000000 0.000000 0.000000 0.000000 0.000000
    13 0.928313 0.000000 -0.000001 0.000000 0.000000 0.000000
    14 2.979373 -0.388274 -0.044205 -0.037766 -0.021799 1.029709
    15 1.435262 -0.000001 -0.000001 0.000000 0.000000 1.256253
    16 1.482593 -0.000001 0.000001 0.000000 0.000000 1.666042
    17 -2.869899 1.399667 -4.140396 -0.447923 1.349605 -4.051652
    18 4.972047 0.000000 0.000000 0.884379 0.113644 -1.317647
    19 11.585358 0.000000 0.000001 0.000000 0.000000 -1.370080
    20 10.127058 0.000000 0.000001 2.180532 0.000000 -0.069778
    21 1.537458 0.109715 1.664489 -0.233165 -0.412999 0.435664
    22 0.928313 0.000000 0.000002 0.000000 0.000000 0.000000
    23 0.928311 0.000000 0.000001 0.000000 0.000000 0.000000
    24 2.686395 -0.427337 0.044204 0.001045 0.043611 0.000046
    25 1.435260 0.000000 0.000001 0.000000 0.000000 0.767749
    26 1.482593 0.000000 -0.000001 0.000000 0.000000 1.221638
    27 2.046984 0.000001 0.000000 0.178105 0.032159 -1.250160
    28 -0.000005 0.000007 3.713254 -3.293423 -0.161832 1.248368
    29 18.045723 0.000000 0.000000 0.000000 0.000000 -1.679122
    30 17.597597 0.000000 0.000000 -0.256549 0.200335 -0.219846
    31 0.000005 -0.000003 -3.713254 0.827355 2.313457 5.490679
    32 18.045721 0.000000 0.000000 0.000000 0.000000 -2.690299
    33 17.597597 0.000000 0.000000 0.384632 0.027424 0.772090
  time 25
    0 -0.092788 -3.699181 -2.850174 0.000000 0.000000 -1.585458
    1 -6.367386 0.304697 0.000000 -1.570795 -1.570787 0.000000
    2 1.293670 0.684478 -0.000001 -0.000004 -0.000001 0.358403
    3 5.309685 -0.003834 0.000000 -0.030767 0.016383 0.418392
    4 4.826790 -0.004591 0.000000 -0.138976 0.051809 0.258041
    5 5.792767 -0.005304 0.000000 0.000000 0.000000 0.161185
    6 6.662322 -0.001452 0.000000 0.000000 -0.000001 0.471000
    7 -3.108188 1.516823 4.339626 0.256499 -1.364252 -3.864570
    8 4.827512 0.000000 -0.000002 -0.986979 0.663082 -0.786120
    9 11.140032 0.000000 0.000000 0.000000 0.000000 -1.026347
    10 10.314563 -0.000001 0.000001 -1.626997 0.320734 -0.018740
    11 1.646836 0.445664 -1.699647 0.449636 0.128837 1.240121
    12 0.928312 0.000000 0.000000 0.000000 0.000000 0.000000
    13 0.928313 0.000000 -0.000001 0.000000 0.000000 0.000000
    14 2.979373 -0.388274 -0.044205 -0.037766 -0.021799 1.029709
    15 1.435262 -0.000001 -0.000001 0.000000 0.000000 1.256253
    16 1.482593 -0.000001 0.000001 0.000000 0.000000 1.666042
    17 -2.869899 1.399667 -4.140396 -0.375510 1.356257 -3.980966
    18 4.972047 0.000000 0.000000 0.882316 0.102154 -1.332955
    19 11.585358 0.000000 0.000001 0.000000 0.000000 -1.370080
    20 10.127058 0.000000 0.000001 2.180532 0.000000 -0.069778
    21 1.537458 0.109715 1.664489 -0.233165 -0.412999 0.435664
    22 0.928313 0.000000 0.000002 0.000000 0.000000 0.000000
    23 0.928311 0.000000 0.000001 0.000000 0.000000 0.000000
    24 2.686395 -0.427337 0.044204 0.001045 0.043611 0.000046
    25 1.435260 0.000000 0.000001 0.000000 0.000000 0.767749
    26 1.482593 0.000000 -0.000001 0.000000 0.000000 1.221638
    27 2.046984 0.000001 0.000000 0.178105 0.032159 -1.241644
    28 -0.000005 0.000007 3.713254 -3.293615 -0.161736 1.251244
    29 18.045723 0.000000 0.000000 0.000000 0.000000 -1.677420
    30 17.597597 0.000000 0.000000 -0.256093 0.200065 -0.218654
    31 0.000005 -0.000003 -3.713254 0.826397 2.313265 5.491158
    32 18.045721 0.000000 0.000000 0.000000 0.000000 -2.687229
    33 17.597597 0.000000 0.000000 0.383793 0.028627 0.769180
  time 26
    0 -0.092788 -3.699181 -2.795485 0.000000 0.000000 -1.585458
    1 -6.363479 0.304697 0.000000 -1.570795 -1.570787 0.000000
    2 1.293670 0.684478 -0.000001 -0.000004 -0.000001 0.358403
    3 5.309685 -0.003834 0.000000 -0.030767 0.016383 0.418392
    4 4.826790 -0.004591 0.000000 -0.138976 0.051809 0.258041
    5 5.792767 -0.005304 0.000000 0.000000 0.000000 0.152693
    6 6.662322 -0.001452 0.000000 0.000000 -0.000001 0.471000
    7 -3.108188 1.516823 4.339626 0.193619 -1.367091 -3.803055
    8 4.827512 0.000000 -0.000002 -0.977493 0.671183 -0.791492
    9 11.140032 0.000000 0.000000 0.000000 0.000000 -1.026347
    10 10.314563 -0.000001 0.000001 -1.626997 0.320734 -0.018740
    11 1.646836 0.445664 -1.699647 0.449636 0.128837 1.240121
    12 0.928312 0.000000 0.000000 0.000000 0.000000 0.000000
    13 0.928313 0.000000 -0.000001 0.000000 0.000000 0.000000
    14 2.979373 -0.388274 -0.044205 -0.037766 -0.021799 1.029709
    15 1.435262 -0.000001 -0.000001 0.000000 0.000000 1.256253
    16 1.482593 -0.000001 0.000001 0.000000 0.000000 1.666042
    17 -2.869899 1.399667 -4.140396 -0.298893 1.361804 -3.906162
    18 4.972047 0.000000 0.000000 0.880158 0.090583 -1.348063
    19 11.585358 0.000000 0.000001 0.000000 0.000000 -1.370080
    20 10.127058 0.000000 0.000001 2.180532 0.000000 -0.069778
    21 1.537458 0.109715 1.664489 -0.233165 -0.412999 0.435664
    22 0.928313 0.000000 0.000002 0.000000 0.000000 0.000000
    23 0.928311 0.000000 0.000001 0.000000 0.000000 0.000000
    24 2.686395 -0.427337 0.044204 0.001045 0.043611 0.000046
    25 1.435260 0.000000 0.000001 0.000000 0.000000 0.767749
    26 1.482593 0.000000 -0.000001 0.000000 0.000000 1.221638
    27 2.046984 0.000001 0.000000 0.178105 0.032159 -1.233128
    28 -0.000005 0.000007 3.713254 -3.293615 -0.161736 1.254024
    29 18.045723 0.000000 0.000000 0.000000 0.000000 -1.675791
    30 17.597597 0.000000 0.000000 -0.255662 0.199843 -0.217507
    31 0.000005 -0.000003 -3.713254 0.825343 2.312978 5.491638
    32 18.045721 0.000000 0.000000 0.000000 0.000000 -2.684395
    33 17.597597 0.000000 0.000000 0.382955 0.029771 0.766224
  time 27
    0 -0.092788 -3.699181 -2.744702 0.000000 0.000000 -1.585458
    1 -6.355667 0.304697 0.000000 -1.570795 -1.570787 0.000000
    2 1.293670 0.684478 -0.000001 -0.000004 -0.000001 0.358403
    3 5.309685 -0.003834 0.000000 -0.030767 0.016383 0.418392
    4 4.826790 -0.004591 0.000000 -0.138976 0.051809 0.258041
    5 5.792767 -0.005304 0.000000 0.000000 0.000000 0.144367
    6 6.662322 -0.001452 0.000000 0.000000 -0.000001 0.471000
    7 -3.108188 1.516823 4.339626 0.130356 -1.369160 -3.741252
    8 4.827512 0.000000 -0.000002 -0.968166 0.679028 -0.796605
    9 11.140032 0.000000 0.000000 0.000000 0.000000 -1.026347
    10 10.314563 -0.000001 0.000001 -1.626997 0.320734 -0.018740
    11 1.646836 0.445664 -1.699647 0.449636 0.128837 1.240121
    12 0.928312 0.000000 0.000000 0.000000 0.000000 0.000000
    13 0.928313 0.000000 -0.000001 0.000000 0.000000 0.000000
    14 2.979373 -0.388274 -0.044205 -0.037766 -0.021799 1.029709
    15 1.435262 -0.000001 -0.000001 0.000000 0.000000 1.256253
    16 1.482593 -0.000001 0.000001 0.000000 0.000000 1.666042
    17 -2.869899 1.399667 -4.140396 -0.220366 1.365984 -3.829442
    18 4.972047 0.000000 0.000000 0.878095 0.079174 -1.362971
    19 11.585358 0.000000 0.000001 0.000000 0.000000 -1.370080
    20 10.127058 0.000000 0.000001 2.180532 0.000000 -0.069778
    21 1.537458 0.109715 1.664489 -0.233165 -0.412999 0.435664
    22 0.928313 0.000000 0.000002 0.000000 0.000000 0.000000
    23 0.928311 0.000000 0.000001 0.000000 0.000000 0.000000
    24 2.686395 -0.427337 0.044204 0.001045 0.043611 0.000046
    25 1.435260 0.000000 0.000001 0.000000 0.000000 0.767749
    26 1.482593 0.000000 -0.000001 0.000000 0.000000 1.221638
    27 2.046984 0.000001 0.000000 0.178105 0.032159 -1.224673
    28 -0.000005 0.000007 3.713254 -3.293710 -0.161640 1.256804
    29 18.045723 0.000000 0.000000 0.000000 0.000000 -1.674163
    30 17.597597 0.000000 0.000000 -0.255231 0.199622 -0.216315
    31 0.000005 -0.000003 -3.713254 0.824384 2.312786 5.492117
    32 18.045721 0.000000 0.000000 0.000000 0.000000 -2.681325
    33 17.597597 0.000000 0.000000 0.382149 0.030876 0.763407
  time 28
    0 -0.092788 -3.699181 -2.690013 0.000000 0.000000 -1.585458
    1 -6.351760 0.304697 0.000000 -1.570795 -1.570787 0.000000
    2 1.293670 0.684478 -0.000001 -0.000004 -0.000001 0.358403
    3 5.309685 -0.003834 0.000000 -0.030767 0.016383 0.418392
    4 4.826790 -0.004591 0.000000 -0.138976 0.051809 0.258041
    5 5.792767 -0.005304 0.000000 0.000000 0.000000 0.136332
    6 6.662322 -0.001452 0.000000 0.000000 -0.000001 0.471000
    7 -3.108188 1.516823 4.339626 0.068915 -1.370343 -3.680791
    8 4.827512 0.000000 -0.000002 -0.959078 0.686532 -0.801370
    9 11.140032 0.000000 0.000000 0.000000 0.000000 -1.026347
    10 10.314563 -0.000001 0.000001 -1.626997 0.320734 -0.018740
    11 1.646836 0.445664 -1.699647 0.449636 0.128837 1.240121
    12 0.928312 0.000000 0.000000 0.000000 0.000000 0.000000
    13 0.928313 0.000000 -0.000001 0.000000 0.000000 0.000000
    14 2.979373 -0.388274 -0.044205 -0.037766 -0.021799 1.029709
    15 1.435262 -0.000001 -0.000001 0.000000 0.000000 1.256253
    16 1.482593 -0.000001 0.000001 0.000000 0.000000 1.666042
    17 -2.869899 1.399667 -4.140396 -0.142507 1.368797 -3.753105
    18 4.972047 0.000000 0.000000 0.876219 0.068407 -1.377148
    19 11.585358 0.000000 0.000001 0.000000 0.000000 -1.370080
    20 10.127058 0.000000 0.000001 2.180532 0.000000 -0.069778
    21 1.537458 0.109715 1.664489 -0.233165 -0.412999 0.435664
    22 0.928313 0.000000 0.000002 0.000000 0.000000 0.000000
    23 0.928311 0.000000 0.000001 0.000000 0.000000 0.000000
    24 2.686395 -0.427337 0.044204 0.001045 0.043611 0.000046
    25 1.435260 0.000000 0.000001 0.000000 0.000000 0.767749
    26 1.482593 0.000000 -0.000001 0.000000 0.000000 1.221638
    27 2.046984 0.000001 0.000000 0.178105 0.032159 -1.216826
    28 -0.000005 0.000007 3.713254 -3.293710 -0.161544 1.259488
    29 18.045723 0.000000 0.000000 0.000000 0.000000 -1.672609
    30 17.597597 0.000000 0.000000 -0.254800 0.199375 -0.215215
    31 0.000005 -0.000003 -3.713254 0.823522 2.312594 5.492596
    32 18.045721 0.000000 0.000000 0.000000 0.000000 -2.678570
    33 17.597597 0.000000 0.000000 0.381378 0.031941 0.760728
  time 29
    0 -0.092788 -3.699181 -2.647043 0.000000 0.000000 -1.585458
    1 -6.351760 0.304697 0.000000 -1.570795 -1.570787 0.000000
    2 1.293670 0.684478 -0.000001 -0.000004 -0.000001 0.358403
    3 5.309685 -0.003834 0.000000 -0.030767 0.016383 0.418392
    4 4.826790 -0.004591 0.000000 -0.138976 0.051809 0.258041
    5 5.792767 -0.005304 0.000000 0.000000 0.000000 0.128899
    6 6.662322 -0.001452 0.000000 0.000000 -0.000001 0.471000
    7 -3.108188 1.516823 4.339626 0.010828 -1.370787 -3.623970
    8 4.827512 0.000000 -0.000002 -0.950469 0.693439 -0.805703
    9 11.140032 0.000000 0.000000 0.000000 0.000000 -1.026347
    10 10.314563 -0.000001 0.000001 -1.626997 0.320734 -0.018740
    11 1.646836 0.445664 -1.699647 0.449636 0.128837 1.240121
    12 0.928312 0.000000 0.000000 0.000000 0.000000 0.000000
    13 0.928313 0.000000 -0.000001 0.000000 0.000000 0.000000
    14 2.979373 -0.388274 -0.044205 -0.037766 -0.021799 1.029709
    15 1.435262 -0.000001 -0.000001 0.000000 0.000000 1.256253
    16 1.482593 -0.000001 0.000001 0.000000 0.000000 1.666042
    17 -2.869899 1.399667 -4.140396 -0.068184 1.370349 -3.680216
    18 4.972047 0.000000 0.000000 0.874530 0.058203 -1.390392
    19 11.585358 0.000000 0.000001 0.000000 0.000000 -1.370080
    20 10.127058 0.000000 0.000001 2.180532 0.000000 -0.069778
    21 1.537458 0.109715 1.664489 -0.233165 -0.412999 0.435664
    22 0.928313 0.000000 0.000002 0.000000 0.000000 0.000000
    23 0.928311 0.000000 0.000001 0.000000 0.000000 0.000000
    24 2.686395 -0.427337 0.044204 0.001045 0.043611 0.000046
    25 1.435260 0.000000 0.000001 0.000000 0.000000 0.767749
    26 1.482593 0.000000 -0.000001 0.000000 0.000000 1.221638
    27 2.046984 0.000001 0.000000 0.178105 0.032159 -1.209344
    28 -0.000005 0.000007 3.713254 -3.293806 -0.161448 1.261980
    29 18.045723 0.000000 0.000000 0.000000 0.000000 -1.671128
    30 17.597597 0.000000 0.000000 -0.254370 0.199154 -0.214161
    31 0.000005 -0.000003 -3.713254 0.822659 2.312499 5.493076
    32 18.045721 0.000000 0.000000 0.000000 0.000000 -2.676051
    33 17.597597 0.000000 0.000000 0.380640 0.032927 0.758234
  time 30
    0 -0.092788 -3.699181 -2.607979 0.000000 0.000000 -1.585458
    1 -6.343948 0.292978 0.000000 -1.570795 -1.570787 0.000000
    2 1.293670 0.684478 -0.000001 -0.000004 -0.000001 0.358403
    3 5.309685 -0.003834 0.000000 -0.030767 0.016383 0.418392
    4 4.826790 -0.004591 0.000000 -0.138976 0.051809 0.258041
    5 5.792767 -0.005304 0.000000 0.000000 0.000000 0.122068
    6 6.662322 -0.001452 0.000000 0.000000 -0.000001 0.471000
    7 -3.108188 1.516823 4.339626 -0.041892 -1.370639 -3.572324
    8 4.827512 0.000000 -0.000002 -0.942577 0.699749 -0.809602
    9 11.140032 0.000000 0.000000 0.000000 0.000000 -1.026347
    10 10.314563 -0.000001 0.000001 -1.626997 0.320734 -0.018740
    11 1.646836 0.445664 -1.699647 0.449636 0.128837 1.240121
    12 0.928312 0.000000 0.000000 0.000000 0.000000 0.000000
    13 0.928313 0.000000 -0.000001 0.000000 0.000000 0.000000
    14 2.979373 -0.388274 -0.044205 -0.037766 -0.021799 1.029709
    15 1.435262 -0.000001 -0.000001 0.000000 0.000000 1.256253
    16 1.482593 -0.000001 0.000001 0.000000 0.000000 1.666042
    17 -2.869899 1.399667 -4.140396 0.000026 1.370769 -3.613362
    18 4.972047 0.000000 0.000000 0.872842 0.049043 -1.402505
    19 11.585358 0.000000 0.000001 0.000000 0.000000 -1.370080
    20 10.127058 0.000000 0.000001 2.180532 0.000000 -0.069778
    21 1.537458 0.109715 1.664489 -0.233165 -0.412999 0.435664
    22 0.928313 0.000000 0.000002 0.000000 0.000000 0.000000
    23 0.928311 0.000000 0.000001 0.000000 0.000000 0.000000
    24 2.686395 -0.427337 0.044204 0.001045 0.043611 0.000046
    25 1.435260 0.000000 0.000001 0.000000 0.000000 0.767749
    26 1.482593 0.000000 -0.000001 0.000000 0.000000 1.221638
    27 2.046984 0.000001 0.000000 0.178105 0.032159 -1.202409
    28 -0.000005 0.000007 3.713254 -3.293902 -0.161448 1.264185
    29 18.045723 0.000000 0.000000 0.000000 0.000000 -1.669796
    30 17.597597 0.000000 0.000000 -0.254040 0.198982 -0.213244
    31 0.000005 -0.000003 -3.713254 0.821892 2.312307 5.493555
    32 18.045721 0.000000 0.000000 0.000000 0.000000 -2.673768
    33 17.597597 0.000000 0.000000 0.379969 0.033854 0.755924
end
