version 1
nodes
  0 "Bip01" -1
  1 "Bip01 Pelvis" 0
  2 "Bip01 Spine" 1
  3 "Bip01 Spine1" 2
  4 "Bip01 Spine2" 3
  5 "Bip01 Spine3" 4
  6 "Bip01 Neck" 5
  7 "Bip01 L Arm" 6
  8 "Bip01 L Arm1" 7
  9 "Bip01 L Arm2" 8
  10 "Bip01 L Hand" 9
  11 "Bip01 L Finger0" 10
  12 "Bip01 L Finger01" 11
  13 "Bip01 L Finger02" 12
  14 "Bip01 L Finger1" 10
  15 "Bip01 L Finger11" 14
  16 "Bip01 L Finger12" 15
  17 "Bip01 R Arm" 6
  18 "Bip01 R Arm1" 17
  19 "Bip01 R Arm2" 18
  20 "Bip01 R Hand" 19
  21 "Bip01 R Finger0" 20
  22 "Bip01 R Finger01" 21
  23 "Bip01 R Finger02" 22
  24 "Bip01 R Finger1" 20
  25 "Bip01 R Finger11" 24
  26 "Bip01 R Finger12" 25
  27 "Bip01 Head" 6
  28 "Bip01 L Leg" 1
  29 "Bip01 L Leg1" 28
  30 "Bip01 L Foot" 29
  31 "Bip01 R Leg" 1
  32 "Bip01 R Leg1" 31
  33 "Bip01 R Foot" 32
end
skeleton
  time 0
    0 0.672861 2.613512 -20.600716 0.000000 0.000000 -1.585458
    1 -0.000004 0.000000 0.000000 -1.570795 -1.570787 0.000000
    2 1.293670 0.684478 -0.000001 -0.020959 0.048573 0.182924
    3 5.309685 -0.003834 0.000000 -0.007828 -0.030764 0.219588
    4 4.826790 -0.004591 0.000000 -0.005684 0.033557 0.047811
    5 5.792767 -0.005304 0.000000 -0.162609 -0.007023 0.075580
    6 6.662322 -0.001452 0.000000 -0.016647 0.002267 0.459408
    7 -3.131626 1.411351 4.351345 1.822546 -1.010102 -5.464256
    8 4.827512 0.000000 -0.000002 -0.796057 0.234667 -1.267030
    9 11.140032 0.000000 0.000000 0.000000 0.000000 -1.823261
    10 10.314563 -0.000001 0.000001 -3.128159 0.193714 0.382361
    11 1.646836 0.445664 -1.699647 -0.161704 0.581044 -0.283978
    12 0.928312 0.000000 0.000000 0.000000 0.000000 0.000000
    13 0.928313 0.000000 -0.000001 0.000000 0.000000 0.000000
    14 2.979373 -0.388274 -0.044205 -0.015642 -0.040747 0.348855
    15 1.435262 -0.000001 -0.000001 0.000000 0.000000 0.649480
    16 1.482593 -0.000001 0.000001 0.000000 0.000000 0.499946
    17 -2.869899 1.427012 -4.132583 0.838987 1.273547 -2.783809
    18 4.972047 0.000000 0.000000 -0.560400 -1.124783 -0.239916
    19 11.585358 0.000000 0.000001 0.000000 0.000000 -1.839004
    20 10.127058 0.000000 0.000001 1.220394 0.333906 -1.186659
    21 1.537458 0.109715 1.664489 -0.499886 0.546206 0.269294
    22 0.928313 0.000000 0.000002 0.000000 0.000000 -0.715299
    23 0.928311 0.000000 0.000001 0.000000 0.000000 -0.261715
    24 2.686395 -0.427337 0.044204 -0.191308 -0.016216 -0.252816
    25 1.435260 0.000000 0.000001 0.000000 0.000000 0.470891
    26 1.482593 0.000000 -0.000001 0.000000 0.000000 0.907015
    27 2.046984 0.000001 0.000000 0.150532 0.150940 -1.351318
    28 -0.000005 0.000007 3.713254 -3.301572 -0.154641 1.251436
    29 18.045723 0.000000 0.000000 0.000000 0.000000 -1.733893
    30 17.597597 0.000000 0.000000 -0.265443 0.205479 -0.162812
    31 0.000005 -0.000003 -3.713254 0.773684 2.278849 5.458755
    32 18.045721 0.000000 0.000000 0.000000 0.000000 -2.679121
    33 17.597597 0.000000 0.000000 0.365608 0.052158 0.720683
  time 1
    0 0.672861 2.613512 -20.600716 0.000000 0.000000 -1.585458
    1 -0.000004 0.000000 0.000000 -1.570795 -1.570787 0.000000
    2 1.293670 0.684478 -0.000001 -0.020959 0.048573 0.182924
    3 5.309685 -0.003834 0.000000 -0.034732 -0.029159 0.219005
    4 4.826790 -0.004591 0.000000 -0.032484 0.074269 0.044702
    5 5.792767 -0.005304 0.000000 -0.230225 0.021812 0.067545
    6 6.662322 -0.001452 0.000000 -0.016647 0.002267 0.459408
    7 -3.131626 1.411351 4.351345 1.822546 -1.010102 -5.464256
    8 4.827512 0.000000 -0.000002 -0.534745 0.301180 -1.406017
    9 11.140032 0.000000 0.000000 0.000000 0.000000 -2.192629
    10 10.314563 -0.000001 0.000001 -2.947326 -0.255257 0.879732
    11 1.646836 0.445664 -1.699647 -0.161704 0.581044 -0.283978
    12 0.928312 0.000000 0.000000 0.000000 0.000000 0.000000
    13 0.928313 0.000000 -0.000001 0.000000 0.000000 0.000000
    14 2.979373 -0.388274 -0.044205 -0.015642 -0.040747 0.348855
    15 1.435262 -0.000001 -0.000001 0.000000 0.000000 0.649480
    16 1.482593 -0.000001 0.000001 0.000000 0.000000 0.499946
    17 -2.869899 1.430918 -4.128677 1.102177 0.973074 -2.577211
    18 4.972047 0.000000 0.000000 -0.982024 -0.816080 -0.218153
    19 11.585358 0.000000 0.000001 0.000000 0.000000 -1.824791
    20 10.127058 0.000000 0.000001 1.220815 0.287380 -1.461227
    21 1.537458 0.109715 1.664489 -0.499886 0.546206 0.269294
    22 0.928313 0.000000 0.000002 0.000000 0.000000 -0.715299
    23 0.928311 0.000000 0.000001 0.000000 0.000000 -0.261715
    24 2.686395 -0.427337 0.044204 -0.191308 -0.016216 -0.252816
    25 1.435260 0.000000 0.000001 0.000000 0.000000 0.470891
    26 1.482593 0.000000 -0.000001 0.000000 0.000000 0.907015
    27 2.046984 0.000001 0.000000 0.195424 0.082787 -1.215487
    28 -0.000005 0.000007 3.713254 -3.301572 -0.154641 1.251436
    29 18.045723 0.000000 0.000000 0.000000 0.000000 -1.733893
    30 17.597597 0.000000 0.000000 -0.265443 0.205479 -0.162812
    31 0.000005 -0.000003 -3.713254 0.773684 2.278849 5.458755
    32 18.045721 0.000000 0.000000 0.000000 0.000000 -2.679121
    33 17.597597 0.000000 0.000000 0.365608 0.052158 0.720683
  time 2
    0 0.672861 2.613512 -20.600716 0.000000 0.000000 -1.585458
    1 -0.000004 0.000000 0.000000 -1.570795 -1.570787 0.000000
    2 1.293670 0.684478 -0.000001 -0.020959 0.048573 0.182924
    3 5.309685 -0.003834 0.000000 -0.050864 -0.028176 0.218651
    4 4.826790 -0.004591 0.000000 -0.048640 0.098621 0.042321
    5 5.792767 -0.005304 0.000000 -0.270877 0.038818 0.061773
    6 6.662322 -0.001452 0.000000 -0.016647 0.002267 0.459408
    7 -3.131626 1.411351 4.351345 1.822546 -1.010102 -5.464256
    8 4.827512 0.000000 -0.000002 -0.588235 0.201836 -1.384094
    9 11.140032 0.000000 0.000000 0.000000 0.000000 -2.226174
    10 10.314563 -0.000001 0.000001 -2.929981 -0.214228 1.054038
    11 1.646836 0.445664 -1.699647 -0.161704 0.581044 -0.283978
    12 0.928312 0.000000 0.000000 0.000000 0.000000 0.000000
    13 0.928313 0.000000 -0.000001 0.000000 0.000000 0.000000
    14 2.979373 -0.388274 -0.044205 -0.015642 -0.040747 0.348855
    15 1.435262 -0.000001 -0.000001 0.000000 0.000000 0.649480
    16 1.482593 -0.000001 0.000001 0.000000 0.000000 0.499946
    17 -2.869899 1.427012 -4.132583 1.066543 1.077499 -2.588322
    18 4.972047 0.000000 0.000000 -0.821066 -0.886868 -0.370298
    19 11.585358 0.000000 0.000001 0.000000 0.000000 -1.813846
    20 10.127058 0.000000 0.000001 1.277826 0.302132 -1.423261
    21 1.537458 0.109715 1.664489 -0.499886 0.546206 0.269294
    22 0.928313 0.000000 0.000002 0.000000 0.000000 -0.715299
    23 0.928311 0.000000 0.000001 0.000000 0.000000 -0.261715
    24 2.686395 -0.427337 0.044204 -0.191308 -0.016216 -0.252816
    25 1.435260 0.000000 0.000001 0.000000 0.000000 0.470891
    26 1.482593 0.000000 -0.000001 0.000000 0.000000 0.907015
    27 2.046984 0.000001 0.000000 0.292619 0.114090 -1.227167
    28 -0.000005 0.000007 3.713254 -3.301572 -0.154641 1.251436
    29 18.045723 0.000000 0.000000 0.000000 0.000000 -1.733893
    30 17.597597 0.000000 0.000000 -0.265443 0.205479 -0.162812
    31 0.000005 -0.000003 -3.713254 0.773684 2.278849 5.458755
    32 18.045721 0.000000 0.000000 0.000000 0.000000 -2.679121
    33 17.597597 0.000000 0.000000 0.365608 0.052158 0.720683
  time 3
    0 0.672861 2.613512 -20.600716 0.000000 0.000000 -1.585458
    1 -0.000004 0.000000 0.000000 -1.570795 -1.570787 0.000000
    2 1.293670 0.684478 -0.000001 -0.020959 0.048573 0.182924
    3 5.309685 -0.003834 0.000000 -0.047324 -0.028380 0.218740
    4 4.826790 -0.004591 0.000000 -0.044977 0.093012 0.042916
    5 5.792767 -0.005304 0.000000 -0.261542 0.034552 0.063309
    6 6.662322 -0.001452 0.000000 -0.016647 0.002267 0.459408
    7 -3.131626 1.411351 4.351345 1.822546 -1.010102 -5.464256
    8 4.827512 0.000000 -0.000002 -0.730689 0.147687 -1.330544
    9 11.140032 0.000000 0.000000 0.000000 0.000000 -2.145896
    10 10.314563 -0.000001 0.000001 -2.894725 -0.028851 1.008400
    11 1.646836 0.445664 -1.699647 -0.161704 0.581044 -0.283978
    12 0.928312 0.000000 0.000000 0.000000 0.000000 0.000000
    13 0.928313 0.000000 -0.000001 0.000000 0.000000 0.000000
    14 2.979373 -0.388274 -0.044205 -0.015642 -0.040747 0.348855
    15 1.435262 -0.000001 -0.000001 0.000000 0.000000 0.649480
    16 1.482593 -0.000001 0.000001 0.000000 0.000000 0.499946
    17 -2.869899 1.430918 -4.128677 0.981329 1.217890 -2.648663
    18 4.972047 0.000000 0.000000 -0.569967 -1.003616 -0.484241
    19 11.585358 0.000000 0.000001 0.000000 0.000000 -1.804535
    20 10.127058 0.000000 0.000001 1.341779 0.310832 -1.332272
    21 1.537458 0.109715 1.664489 -0.499886 0.546206 0.269294
    22 0.928313 0.000000 0.000002 0.000000 0.000000 -0.715299
    23 0.928311 0.000000 0.000001 0.000000 0.000000 -0.261715
    24 2.686395 -0.427337 0.044204 -0.191308 -0.016216 -0.252816
    25 1.435260 0.000000 0.000001 0.000000 0.000000 0.470891
    26 1.482593 0.000000 -0.000001 0.000000 0.000000 0.907015
    27 2.046984 0.000001 0.000000 0.303476 0.148196 -1.264698
    28 -0.000005 0.000007 3.713254 -3.301572 -0.154641 1.251436
    29 18.045723 0.000000 0.000000 0.000000 0.000000 -1.733893
    30 17.597597 0.000000 0.000000 -0.265443 0.205479 -0.162812
    31 0.000005 -0.000003 -3.713254 0.773684 2.278849 5.458755
    32 18.045721 0.000000 0.000000 0.000000 0.000000 -2.679121
    33 17.597597 0.000000 0.000000 0.365608 0.052158 0.720683
  time 4
    0 0.672861 2.613512 -20.600716 0.000000 0.000000 -1.585458
    1 -0.000004 0.000000 0.000000 -1.570795 -1.570787 0.000000
    2 1.293670 0.684478 -0.000001 -0.020959 0.048573 0.182924
    3 5.309685 -0.003834 0.000000 -0.038527 -0.028919 0.218952
    4 4.826790 -0.004591 0.000000 -0.036070 0.079194 0.044305
    5 5.792767 -0.005304 0.000000 -0.238445 0.024065 0.066756
    6 6.662322 -0.001452 0.000000 -0.016647 0.002267 0.459408
    7 -3.131626 1.411351 4.351345 1.822546 -1.010102 -5.464256
    8 4.827512 0.000000 -0.000002 -0.776606 0.170541 -1.290165
    9 11.140032 0.000000 0.000000 0.000000 0.000000 -2.099019
    10 10.314563 -0.000001 0.000001 -2.909225 0.020327 0.941337
    11 1.646836 0.445664 -1.699647 -0.161704 0.581044 -0.283978
    12 0.928312 0.000000 0.000000 0.000000 0.000000 0.000000
    13 0.928313 0.000000 -0.000001 0.000000 0.000000 0.000000
    14 2.979373 -0.388274 -0.044205 -0.015642 -0.040747 0.348855
    15 1.435262 -0.000001 -0.000001 0.000000 0.000000 0.649480
    16 1.482593 -0.000001 0.000001 0.000000 0.000000 0.499946
    17 -2.869899 1.430918 -4.128677 0.933277 1.253540 -2.691669
    18 4.972047 0.000000 0.000000 -0.510218 -1.048692 -0.468268
    19 11.585358 0.000000 0.000001 0.000000 0.000000 -1.796448
    20 10.127058 0.000000 0.000001 1.396335 0.290217 -1.276398
    21 1.537458 0.109715 1.664489 -0.499886 0.546206 0.269294
    22 0.928313 0.000000 0.000002 0.000000 0.000000 -0.715299
    23 0.928311 0.000000 0.000001 0.000000 0.000000 -0.261715
    24 2.686395 -0.427337 0.044204 -0.191308 -0.016216 -0.252816
    25 1.435260 0.000000 0.000001 0.000000 0.000000 0.470891
    26 1.482593 0.000000 -0.000001 0.000000 0.000000 0.907015
    27 2.046984 0.000001 0.000000 0.286717 0.176844 -1.308373
    28 -0.000005 0.000007 3.713254 -3.301572 -0.154641 1.251436
    29 18.045723 0.000000 0.000000 0.000000 0.000000 -1.733893
    30 17.597597 0.000000 0.000000 -0.265443 0.205479 -0.162812
    31 0.000005 -0.000003 -3.713254 0.773684 2.278849 5.458755
    32 18.045721 0.000000 0.000000 0.000000 0.000000 -2.679121
    33 17.597597 0.000000 0.000000 0.365608 0.052158 0.720683
  time 5
    0 0.672861 2.613512 -20.600716 0.000000 0.000000 -1.585458
    1 -0.000004 0.000000 0.000000 -1.570795 -1.570787 0.000000
    2 1.293670 0.684478 -0.000001 -0.020959 0.048573 0.182924
    3 5.309685 -0.003834 0.000000 -0.027176 -0.029614 0.219199
    4 4.826790 -0.004591 0.000000 -0.024625 0.061685 0.045893
    5 5.792767 -0.005304 0.000000 -0.209251 0.011146 0.070701
    6 6.662322 -0.001452 0.000000 -0.016647 0.002267 0.459408
    7 -3.131626 1.411351 4.351345 1.822546 -1.010102 -5.464256
    8 4.827512 0.000000 -0.000002 -0.795977 0.212836 -1.247880
    9 11.140032 0.000000 0.000000 0.000000 0.000000 -2.050185
    10 10.314563 -0.000001 0.000001 -2.947989 0.044213 0.857435
    11 1.646836 0.445664 -1.699647 -0.161704 0.581044 -0.283978
    12 0.928312 0.000000 0.000000 0.000000 0.000000 0.000000
    13 0.928313 0.000000 -0.000001 0.000000 0.000000 0.000000
    14 2.979373 -0.388274 -0.044205 -0.015642 -0.040747 0.348855
    15 1.435262 -0.000001 -0.000001 0.000000 0.000000 0.649480
    16 1.482593 -0.000001 0.000001 0.000000 0.000000 0.499946
    17 -2.869899 1.430918 -4.132583 0.893249 1.267132 -2.730076
    18 4.972047 0.000000 0.000000 -0.507591 -1.086617 -0.401845
    19 11.585358 0.000000 0.000001 0.000000 0.000000 -1.788771
    20 10.127058 0.000000 0.000001 1.448578 0.259011 -1.223425
    21 1.537458 0.109715 1.664489 -0.499886 0.546206 0.269294
    22 0.928313 0.000000 0.000002 0.000000 0.000000 -0.715299
    23 0.928311 0.000000 0.000001 0.000000 0.000000 -0.261715
    24 2.686395 -0.427337 0.044204 -0.191308 -0.016216 -0.252816
    25 1.435260 0.000000 0.000001 0.000000 0.000000 0.470891
    26 1.482593 0.000000 -0.000001 0.000000 0.000000 0.907015
    27 2.046984 0.000001 0.000000 0.243979 0.182066 -1.338970
    28 -0.000005 0.000007 3.713254 -3.301572 -0.154641 1.251436
    29 18.045723 0.000000 0.000000 0.000000 0.000000 -1.733893
    30 17.597597 0.000000 0.000000 -0.265443 0.205479 -0.162812
    31 0.000005 -0.000003 -3.713254 0.773684 2.278849 5.458755
    32 18.045721 0.000000 0.000000 0.000000 0.000000 -2.679121
    33 17.597597 0.000000 0.000000 0.365608 0.052158 0.720683
  time 6
    0 0.672861 2.613512 -20.600716 0.000000 0.000000 -1.585458
    1 -0.000004 0.000000 0.000000 -1.570795 -1.570787 0.000000
    2 1.293670 0.684478 -0.000001 -0.020959 0.048573 0.182924
    3 5.309685 -0.003834 0.000000 -0.016047 -0.030261 0.219429
    4 4.826790 -0.004591 0.000000 -0.013581 0.044930 0.047149
    5 5.792767 -0.005304 0.000000 -0.181496 -0.000479 0.073940
    6 6.662322 -0.001452 0.000000 -0.016647 0.002267 0.459408
    7 -3.131626 1.411351 4.351345 1.822546 -1.010102 -5.464256
    8 4.827512 0.000000 -0.000002 -0.795180 0.253938 -1.210880
    9 11.140032 0.000000 0.000000 0.000000 0.000000 -2.003308
    10 10.314563 -0.000001 0.000001 -2.995093 0.052644 0.780501
    11 1.646836 0.445664 -1.699647 -0.161704 0.581044 -0.283978
    12 0.928312 0.000000 0.000000 0.000000 0.000000 0.000000
    13 0.928313 0.000000 -0.000001 0.000000 0.000000 0.000000
    14 2.979373 -0.388274 -0.044205 -0.015642 -0.040747 0.348855
    15 1.435262 -0.000001 -0.000001 0.000000 0.000000 0.649480
    16 1.482593 -0.000001 0.000001 0.000000 0.000000 0.499946
    17 -2.869899 1.427012 -4.128677 0.863347 1.270051 -2.759960
    18 4.972047 0.000000 0.000000 -0.535731 -1.116587 -0.316455
    19 11.585358 0.000000 0.000001 0.000000 0.000000 -1.782073
    20 10.127058 0.000000 0.000001 1.492616 0.226103 -1.178956
    21 1.537458 0.109715 1.664489 -0.499886 0.546206 0.269294
    22 0.928313 0.000000 0.000002 0.000000 0.000000 -0.715299
    23 0.928311 0.000000 0.000001 0.000000 0.000000 -0.261715
    24 2.686395 -0.427337 0.044204 -0.191308 -0.016216 -0.252816
    25 1.435260 0.000000 0.000001 0.000000 0.000000 0.470891
    26 1.482593 0.000000 -0.000001 0.000000 0.000000 0.907015
    27 2.046984 0.000001 0.000000 0.192581 0.170117 -1.353204
    28 -0.000005 0.000007 3.713254 -3.301572 -0.154641 1.251436
    29 18.045723 0.000000 0.000000 0.000000 0.000000 -1.733893
    30 17.597597 0.000000 0.000000 -0.265443 0.205479 -0.162812
    31 0.000005 -0.000003 -3.713254 0.773684 2.278849 5.458755
    32 18.045721 0.000000 0.000000 0.000000 0.000000 -2.679121
    33 17.597597 0.000000 0.000000 0.365608 0.052158 0.720683
  time 7
    0 0.672861 2.613512 -20.600716 0.000000 0.000000 -1.585458
    1 -0.000004 0.000000 0.000000 -1.570795 -1.570787 0.000000
    2 1.293670 0.684478 -0.000001 -0.020959 0.048573 0.182924
    3 5.309685 -0.003834 0.000000 -0.007828 -0.030764 0.219588
    4 4.826790 -0.004591 0.000000 -0.005684 0.033557 0.047811
    5 5.792767 -0.005304 0.000000 -0.162609 -0.007023 0.075580
    6 6.662322 -0.001452 0.000000 -0.016647 0.002267 0.459408
    7 -3.131626 1.411351 4.351345 1.822546 -1.010102 -5.464256
    8 4.827512 0.000000 -0.000002 -0.788883 0.281311 -1.185058
    9 11.140032 0.000000 0.000000 0.000000 0.000000 -1.968385
    10 10.314563 -0.000001 0.000001 -3.029781 0.055735 0.729464
    11 1.646836 0.445664 -1.699647 -0.161704 0.581044 -0.283978
    12 0.928312 0.000000 0.000000 0.000000 0.000000 0.000000
    13 0.928313 0.000000 -0.000001 0.000000 0.000000 0.000000
    14 2.979373 -0.388274 -0.044205 -0.015642 -0.040747 0.348855
    15 1.435262 -0.000001 -0.000001 0.000000 0.000000 0.649480
    16 1.482593 -0.000001 0.000001 0.000000 0.000000 0.499946
    17 -2.869899 1.427012 -4.132583 0.838987 1.273547 -2.783809
    18 4.972047 0.000000 0.000000 -0.556179 -1.136835 -0.255024
    19 11.585358 0.000000 0.000001 0.000000 0.000000 -1.777090
    20 10.127058 0.000000 0.000001 1.524101 0.200949 -1.147092
    21 1.537458 0.109715 1.664489 -0.499886 0.546206 0.269294
    22 0.928313 0.000000 0.000002 0.000000 0.000000 -0.715299
    23 0.928311 0.000000 0.000001 0.000000 0.000000 -0.261715
    24 2.686395 -0.427337 0.044204 -0.191308 -0.016216 -0.252816
    25 1.435260 0.000000 0.000001 0.000000 0.000000 0.470891
    26 1.482593 0.000000 -0.000001 0.000000 0.000000 0.907015
    27 2.046984 0.000001 0.000000 0.158071 0.159555 -1.362145
    28 -0.000005 0.000007 3.713254 -3.301572 -0.154641 1.251436
    29 18.045723 0.000000 0.000000 0.000000 0.000000 -1.733893
    30 17.597597 0.000000 0.000000 -0.265443 0.205479 -0.162812
    31 0.000005 -0.000003 -3.713254 0.773684 2.278849 5.458755
    32 18.045721 0.000000 0.000000 0.000000 0.000000 -2.679121
    33 17.597597 0.000000 0.000000 0.365608 0.052158 0.720683
  time 8
    0 0.672861 2.613512 -20.600716 0.000000 0.000000 -1.585458
    1 -0.000004 0.000000 0.000000 -1.570795 -1.570787 0.000000
    2 1.293670 0.684478 -0.000001 -0.020959 0.048573 0.182924
    3 5.309685 -0.003834 0.000000 -0.004220 -0.030980 0.219676
    4 4.826790 -0.004591 0.000000 -0.003224 0.032275 0.047568
    5 5.792767 -0.005304 0.000000 -0.160523 -0.001618 0.074292
    6 6.662322 -0.001452 0.000000 -0.016647 0.002267 0.459408
    7 -3.131626 1.411351 4.351345 1.822546 -1.010102 -5.464256
    8 4.827512 0.000000 -0.000002 -0.787288 0.306979 -1.164782
    9 11.140032 0.000000 0.000000 0.000000 0.000000 -1.968530
    10 10.314563 -0.000001 0.000001 -3.044376 0.051520 0.705019
    11 1.646836 0.445664 -1.699647 -0.161704 0.581044 -0.283978
    12 0.928312 0.000000 0.000000 0.000000 0.000000 0.000000
    13 0.928313 0.000000 -0.000001 0.000000 0.000000 0.000000
    14 2.979373 -0.388274 -0.044205 -0.015642 -0.040747 0.348855
    15 1.435262 -0.000001 -0.000001 0.000000 0.000000 0.649480
    16 1.482593 -0.000001 0.000001 0.000000 0.000000 0.499946
    17 -2.869899 1.427012 -4.128677 0.828287 1.276860 -2.794153
    18 4.972047 0.000000 0.000000 -0.555241 -1.135951 -0.244908
    19 11.585358 0.000000 0.000001 0.000000 0.000000 -1.777254
    20 10.127058 0.000000 0.000001 1.533498 0.192343 -1.125483
    21 1.537458 0.109715 1.664489 -0.499886 0.546206 0.269294
    22 0.928313 0.000000 0.000002 0.000000 0.000000 -0.715299
    23 0.928311 0.000000 0.000001 0.000000 0.000000 -0.261715
    24 2.686395 -0.427337 0.044204 -0.191308 -0.016216 -0.252816
    25 1.435260 0.000000 0.000001 0.000000 0.000000 0.470891
    26 1.482593 0.000000 -0.000001 0.000000 0.000000 0.907015
    27 2.046984 0.000001 0.000000 0.157425 0.152946 -1.364214
    28 -0.000005 0.000007 3.713254 -3.301572 -0.154641 1.251436
    29 18.045723 0.000000 0.000000 0.000000 0.000000 -1.733893
    30 17.597597 0.000000 0.000000 -0.265443 0.205479 -0.162812
    31 0.000005 -0.000003 -3.713254 0.773684 2.278849 5.458755
    32 18.045721 0.000000 0.000000 0.000000 0.000000 -2.679121
    33 17.597597 0.000000 0.000000 0.365608 0.052158 0.720683
  time 9
    0 0.672861 2.613512 -20.600716 0.000000 0.000000 -1.585458
    1 -0.000004 0.000000 0.000000 -1.570795 -1.570787 0.000000
    2 1.293670 0.684478 -0.000001 -0.020959 0.048573 0.182924
    3 5.309685 -0.003834 0.000000 -0.003659 -0.031016 0.219676
    4 4.826790 -0.004591 0.000000 -0.004254 0.037452 0.046775
    5 5.792767 -0.005304 0.000000 -0.169121 0.011182 0.071220
    6 6.662322 -0.001452 0.000000 -0.016647 0.002267 0.459408
    7 -3.131626 1.411351 4.351345 1.822546 -1.010102 -5.464256
    8 4.827512 0.000000 -0.000002 -0.783223 0.337762 -1.155251
    9 11.140032 0.000000 0.000000 0.000000 0.000000 -1.996570
    10 10.314563 -0.000001 0.000001 -3.038690 0.037094 0.700780
    11 1.646836 0.445664 -1.699647 -0.161704 0.581044 -0.283978
    12 0.928312 0.000000 0.000000 0.000000 0.000000 0.000000
    13 0.928313 0.000000 -0.000001 0.000000 0.000000 0.000000
    14 2.979373 -0.388274 -0.044205 -0.015642 -0.040747 0.348855
    15 1.435262 -0.000001 -0.000001 0.000000 0.000000 0.649480
    16 1.482593 -0.000001 0.000001 0.000000 0.000000 0.499946
    17 -2.869899 1.427012 -4.132583 0.833637 1.275177 -2.788981
    18 4.972047 0.000000 0.000000 -0.555804 -1.117873 -0.256688
    19 11.585358 0.000000 0.000001 0.000000 0.000000 -1.780031
    20 10.127058 0.000000 0.000001 1.526976 0.195559 -1.120130
    21 1.537458 0.109715 1.664489 -0.499886 0.546206 0.269294
    22 0.928313 0.000000 0.000002 0.000000 0.000000 -0.715299
    23 0.928311 0.000000 0.000001 0.000000 0.000000 -0.261715
    24 2.686395 -0.427337 0.044204 -0.191308 -0.016216 -0.252816
    25 1.435260 0.000000 0.000001 0.000000 0.000000 0.470891
    26 1.482593 0.000000 -0.000001 0.000000 0.000000 0.907015
    27 2.046984 0.000001 0.000000 0.178019 0.148963 -1.361355
    28 -0.000005 0.000007 3.713254 -3.301572 -0.154641 1.251436
    29 18.045723 0.000000 0.000000 0.000000 0.000000 -1.733893
    30 17.597597 0.000000 0.000000 -0.265443 0.205479 -0.162812
    31 0.000005 -0.000003 -3.713254 0.773684 2.278849 5.458755
    32 18.045721 0.000000 0.000000 0.000000 0.000000 -2.679121
    33 17.597597 0.000000 0.000000 0.365608 0.052158 0.720683
  time 10
    0 0.672861 2.613512 -20.600716 0.000000 0.000000 -1.585458
    1 -0.000004 0.000000 0.000000 -1.570795 -1.570787 0.000000
    2 1.293670 0.684478 -0.000001 -0.020959 0.048573 0.182924
    3 5.309685 -0.003834 0.000000 -0.003999 -0.030992 0.219676
    4 4.826790 -0.004591 0.000000 -0.005360 0.040963 0.046311
    5 5.792767 -0.005304 0.000000 -0.175003 0.018312 0.069372
    6 6.662322 -0.001452 0.000000 -0.016647 0.002267 0.459408
    7 -3.131626 1.411351 4.351345 1.822546 -1.010102 -5.464256
    8 4.827512 0.000000 -0.000002 -0.767917 0.357205 -1.179339
    9 11.140032 0.000000 0.000000 0.000000 0.000000 -2.018088
    10 10.314563 -0.000001 0.000001 -3.005613 0.020608 0.723541
    11 1.646836 0.445664 -1.699647 -0.161704 0.581044 -0.283978
    12 0.928312 0.000000 0.000000 0.000000 0.000000 0.000000
    13 0.928313 0.000000 -0.000001 0.000000 0.000000 0.000000
    14 2.979373 -0.388274 -0.044205 -0.015642 -0.040747 0.348855
    15 1.435262 -0.000001 -0.000001 0.000000 0.000000 0.649480
    16 1.482593 -0.000001 0.000001 0.000000 0.000000 0.499946
    17 -2.869899 1.427012 -4.128677 0.838987 1.273547 -2.783809
    18 4.972047 0.000000 0.000000 -0.565653 -1.104294 -0.255157
    19 11.585358 0.000000 0.000001 0.000000 0.000000 -1.777090
    20 10.127058 0.000000 0.000001 1.524101 0.200949 -1.147092
    21 1.537458 0.109715 1.664489 -0.499886 0.546206 0.269294
    22 0.928313 0.000000 0.000002 0.000000 0.000000 -0.715299
    23 0.928311 0.000000 0.000001 0.000000 0.000000 -0.261715
    24 2.686395 -0.427337 0.044204 -0.191308 -0.016216 -0.252816
    25 1.435260 0.000000 0.000001 0.000000 0.000000 0.470891
    26 1.482593 0.000000 -0.000001 0.000000 0.000000 0.907015
    27 2.046984 0.000001 0.000000 0.190685 0.147075 -1.358557
    28 -0.000005 0.000007 3.713254 -3.301572 -0.154641 1.251436
    29 18.045723 0.000000 0.000000 0.000000 0.000000 -1.733893
    30 17.597597 0.000000 0.000000 -0.265443 0.205479 -0.162812
    31 0.000005 -0.000003 -3.713254 0.773684 2.278849 5.458755
    32 18.045721 0.000000 0.000000 0.000000 0.000000 -2.679121
    33 17.597597 0.000000 0.000000 0.365608 0.052158 0.720683
  time 11
    0 0.672861 2.613512 -20.600716 0.000000 0.000000 -1.585458
    1 -0.000004 0.000000 0.000000 -1.570795 -1.570787 0.000000
    2 1.293670 0.684478 -0.000001 -0.020959 0.048573 0.182924
    3 5.309685 -0.003834 0.000000 -0.004135 -0.030992 0.219676
    4 4.826790 -0.004591 0.000000 -0.005360 0.040700 0.046356
    5 5.792767 -0.005304 0.000000 -0.174535 0.017378 0.069642
    6 6.662322 -0.001452 0.000000 -0.016647 0.002267 0.459408
    7 -3.131626 1.411351 4.351345 1.822546 -1.010102 -5.464256
    8 4.827512 0.000000 -0.000002 -0.667474 0.450153 -1.317547
    9 11.140032 0.000000 0.000000 0.000000 0.000000 -2.027145
    10 10.314563 -0.000001 0.000001 -2.858520 -0.034378 0.811507
    11 1.646836 0.445664 -1.699647 -0.161704 0.581044 -0.283978
    12 0.928312 0.000000 0.000000 0.000000 0.000000 0.000000
    13 0.928313 0.000000 -0.000001 0.000000 0.000000 0.000000
    14 2.979373 -0.388274 -0.044205 -0.015642 -0.040747 0.348855
    15 1.435262 -0.000001 -0.000001 0.000000 0.000000 0.649480
    16 1.482593 -0.000001 0.000001 0.000000 0.000000 0.499946
    17 -2.869899 1.430918 -4.128677 0.838987 1.273547 -2.783809
    18 4.972047 0.000000 0.000000 -0.612833 -1.093928 -0.199584
    19 11.585358 0.000000 0.000001 0.000000 0.000000 -1.753648
    20 10.127058 0.000000 0.000001 1.548995 0.207757 -1.277548
    21 1.537458 0.109715 1.664489 -0.499886 0.546206 0.269294
    22 0.928313 0.000000 0.000002 0.000000 0.000000 -0.715299
    23 0.928311 0.000000 0.000001 0.000000 0.000000 -0.261715
    24 2.686395 -0.427337 0.044204 -0.191308 -0.016216 -0.252816
    25 1.435260 0.000000 0.000001 0.000000 0.000000 0.470891
    26 1.482593 0.000000 -0.000001 0.000000 0.000000 0.907015
    27 2.046984 0.000001 0.000000 0.188445 0.146308 -1.357218
    28 -0.000005 0.000007 3.713254 -3.301572 -0.154641 1.251436
    29 18.045723 0.000000 0.000000 0.000000 0.000000 -1.733893
    30 17.597597 0.000000 0.000000 -0.265443 0.205479 -0.162812
    31 0.000005 -0.000003 -3.713254 0.773684 2.278849 5.458755
    32 18.045721 0.000000 0.000000 0.000000 0.000000 -2.679121
    33 17.597597 0.000000 0.000000 0.365608 0.052158 0.720683
  time 12
    0 0.672861 2.613512 -20.600716 0.000000 0.000000 -1.585458
    1 -0.000004 0.000000 0.000000 -1.570795 -1.570787 0.000000
    2 1.293670 0.684478 -0.000001 -0.020959 0.048573 0.182924
    3 5.309685 -0.003834 0.000000 -0.004510 -0.030968 0.219676
    4 4.826790 -0.004591 0.000000 -0.005379 0.039945 0.046488
    5 5.792767 -0.005304 0.000000 -0.173258 0.014789 0.070265
    6 6.662322 -0.001452 0.000000 -0.016647 0.002267 0.459408
    7 -3.131626 1.411351 4.351345 1.822546 -1.010102 -5.464256
    8 4.827512 0.000000 -0.000002 -0.558899 0.594010 -1.411823
    9 11.140032 0.000000 0.000000 0.000000 0.000000 -1.989542
    10 10.314563 -0.000001 0.000001 -2.738912 -0.072596 0.810404
    11 1.646836 0.445664 -1.699647 -0.161704 0.581044 -0.283978
    12 0.928312 0.000000 0.000000 0.000000 0.000000 0.000000
    13 0.928313 0.000000 -0.000001 0.000000 0.000000 0.000000
    14 2.979373 -0.388274 -0.044205 -0.015642 -0.040747 0.348855
    15 1.435262 -0.000001 -0.000001 0.000000 0.000000 0.649480
    16 1.482593 -0.000001 0.000001 0.000000 0.000000 0.499946
    17 -2.869899 1.430918 -4.128677 0.838987 1.273547 -2.783809
    18 4.972047 0.000000 0.000000 -0.644725 -1.087742 -0.160383
    19 11.585358 0.000000 0.000001 0.000000 0.000000 -1.733310
    20 10.127058 0.000000 0.000001 1.548224 0.219200 -1.389797
    21 1.537458 0.109715 1.664489 -0.499886 0.546206 0.269294
    22 0.928313 0.000000 0.000002 0.000000 0.000000 -0.715299
    23 0.928311 0.000000 0.000001 0.000000 0.000000 -0.261715
    24 2.686395 -0.427337 0.044204 -0.191308 -0.016216 -0.252816
    25 1.435260 0.000000 0.000001 0.000000 0.000000 0.470891
    26 1.482593 0.000000 -0.000001 0.000000 0.000000 0.907015
    27 2.046984 0.000001 0.000000 0.183706 0.145954 -1.355698
    28 -0.000005 0.000007 3.713254 -3.301572 -0.154641 1.251436
    29 18.045723 0.000000 0.000000 0.000000 0.000000 -1.733893
    30 17.597597 0.000000 0.000000 -0.265443 0.205479 -0.162812
    31 0.000005 -0.000003 -3.713254 0.773684 2.278849 5.458755
    32 18.045721 0.000000 0.000000 0.000000 0.000000 -2.679121
    33 17.597597 0.000000 0.000000 0.365608 0.052158 0.720683
  time 13
    0 0.672861 2.613512 -20.600716 0.000000 0.000000 -1.585458
    1 -0.000004 0.000000 0.000000 -1.570795 -1.570787 0.000000
    2 1.293670 0.684478 -0.000001 -0.020959 0.048573 0.182924
    3 5.309685 -0.003834 0.000000 -0.005088 -0.030932 0.219641
    4 4.826790 -0.004591 0.000000 -0.005417 0.038818 0.046752
    5 5.792767 -0.005304 0.000000 -0.171387 0.011026 0.071220
    6 6.662322 -0.001452 0.000000 -0.016647 0.002267 0.459408
    7 -3.131626 1.411351 4.351345 1.822546 -1.010102 -5.464256
    8 4.827512 0.000000 -0.000002 -0.555790 0.594010 -1.374476
    9 11.140032 0.000000 0.000000 0.000000 0.000000 -2.002366
    10 10.314563 -0.000001 0.000001 -2.747821 -0.025385 0.744618
    11 1.646836 0.445664 -1.699647 -0.161704 0.581044 -0.283978
    12 0.928312 0.000000 0.000000 0.000000 0.000000 0.000000
    13 0.928313 0.000000 -0.000001 0.000000 0.000000 0.000000
    14 2.979373 -0.388274 -0.044205 -0.015642 -0.040747 0.348855
    15 1.435262 -0.000001 -0.000001 0.000000 0.000000 0.649480
    16 1.482593 -0.000001 0.000001 0.000000 0.000000 0.499946
    17 -2.869899 1.427012 -4.128677 0.838987 1.273547 -2.783809
    18 4.972047 0.000000 0.000000 -0.618836 -1.098428 -0.188070
    19 11.585358 0.000000 0.000001 0.000000 0.000000 -1.732248
    20 10.127058 0.000000 0.000001 1.490512 0.224306 -1.378242
    21 1.537458 0.109715 1.664489 -0.499886 0.546206 0.269294
    22 0.928313 0.000000 0.000002 0.000000 0.000000 -0.715299
    23 0.928311 0.000000 0.000001 0.000000 0.000000 -0.261715
    24 2.686395 -0.427337 0.044204 -0.191308 -0.016216 -0.252816
    25 1.435260 0.000000 0.000001 0.000000 0.000000 0.470891
    26 1.482593 0.000000 -0.000001 0.000000 0.000000 0.907015
    27 2.046984 0.000001 0.000000 0.177243 0.146072 -1.353934
    28 -0.000005 0.000007 3.713254 -3.301572 -0.154641 1.251436
    29 18.045723 0.000000 0.000000 0.000000 0.000000 -1.733893
    30 17.597597 0.000000 0.000000 -0.265443 0.205479 -0.162812
    31 0.000005 -0.000003 -3.713254 0.773684 2.278849 5.458755
    32 18.045721 0.000000 0.000000 0.000000 0.000000 -2.679121
    33 17.597597 0.000000 0.000000 0.365608 0.052158 0.720683
  time 14
    0 0.672861 2.613512 -20.600716 0.000000 0.000000 -1.585458
    1 -0.000004 0.000000 0.000000 -1.570795 -1.570787 0.000000
    2 1.293670 0.684478 -0.000001 -0.020959 0.048573 0.182924
    3 5.309685 -0.003834 0.000000 -0.005769 -0.030884 0.219641
    4 4.826790 -0.004591 0.000000 -0.005474 0.037524 0.046995
    5 5.792767 -0.005304 0.000000 -0.169211 0.006508 0.072341
    6 6.662322 -0.001452 0.000000 -0.016647 0.002267 0.459408
    7 -3.131626 1.411351 4.351345 1.822546 -1.010102 -5.464256
    8 4.827512 0.000000 -0.000002 -0.657031 0.443928 -1.315294
    9 11.140032 0.000000 0.000000 0.000000 0.000000 -2.022581
    10 10.314563 -0.000001 0.000001 -2.848000 0.036907 0.693581
    11 1.646836 0.445664 -1.699647 -0.161704 0.581044 -0.283978
    12 0.928312 0.000000 0.000000 0.000000 0.000000 0.000000
    13 0.928313 0.000000 -0.000001 0.000000 0.000000 0.000000
    14 2.979373 -0.388274 -0.044205 -0.015642 -0.040747 0.348855
    15 1.435262 -0.000001 -0.000001 0.000000 0.000000 0.649480
    16 1.482593 -0.000001 0.000001 0.000000 0.000000 0.499946
    17 -2.869899 1.427012 -4.132583 0.838987 1.273547 -2.783809
    18 4.972047 0.000000 0.000000 -0.571750 -1.114176 -0.239251
    19 11.585358 0.000000 0.000001 0.000000 0.000000 -1.735352
    20 10.127058 0.000000 0.000001 1.414848 0.230453 -1.332722
    21 1.537458 0.109715 1.664489 -0.499886 0.546206 0.269294
    22 0.928313 0.000000 0.000002 0.000000 0.000000 -0.715299
    23 0.928311 0.000000 0.000001 0.000000 0.000000 -0.261715
    24 2.686395 -0.427337 0.044204 -0.191308 -0.016216 -0.252816
    25 1.435260 0.000000 0.000001 0.000000 0.000000 0.470891
    26 1.482593 0.000000 -0.000001 0.000000 0.000000 0.907015
    27 2.046984 0.000001 0.000000 0.169962 0.146603 -1.352535
    28 -0.000005 0.000007 3.713254 -3.301572 -0.154641 1.251436
    29 18.045723 0.000000 0.000000 0.000000 0.000000 -1.733893
    30 17.597597 0.000000 0.000000 -0.265443 0.205479 -0.162812
    31 0.000005 -0.000003 -3.713254 0.773684 2.278849 5.458755
    32 18.045721 0.000000 0.000000 0.000000 0.000000 -2.679121
    33 17.597597 0.000000 0.000000 0.365608 0.052158 0.720683
  time 15
    0 0.672861 2.613512 -20.600716 0.000000 0.000000 -1.585458
    1 -0.000004 0.000000 0.000000 -1.570795 -1.570787 0.000000
    2 1.293670 0.684478 -0.000001 -0.020959 0.048573 0.182924
    3 5.309685 -0.003834 0.000000 -0.006501 -0.030836 0.219623
    4 4.826790 -0.004591 0.000000 -0.005589 0.036110 0.047282
    5 5.792767 -0.005304 0.000000 -0.166836 0.001702 0.073504
    6 6.662322 -0.001452 0.000000 -0.016647 0.002267 0.459408
    7 -3.131626 1.411351 4.351345 1.822546 -1.010102 -5.464256
    8 4.827512 0.000000 -0.000002 -0.762895 0.304847 -1.239995
    9 11.140032 0.000000 0.000000 0.000000 0.000000 -1.987296
    10 10.314563 -0.000001 0.000001 -2.986468 0.090487 0.587673
    11 1.646836 0.445664 -1.699647 -0.161704 0.581044 -0.283978
    12 0.928312 0.000000 0.000000 0.000000 0.000000 0.000000
    13 0.928313 0.000000 -0.000001 0.000000 0.000000 0.000000
    14 2.979373 -0.388274 -0.044205 -0.015642 -0.040747 0.348855
    15 1.435262 -0.000001 -0.000001 0.000000 0.000000 0.649480
    16 1.482593 -0.000001 0.000001 0.000000 0.000000 0.499946
    17 -2.869899 1.427012 -4.128677 0.838987 1.273547 -2.783809
    18 4.972047 0.000000 0.000000 -0.519973 -1.128961 -0.295024
    19 11.585358 0.000000 0.000001 0.000000 0.000000 -1.744500
    20 10.127058 0.000000 0.000001 1.334135 0.243597 -1.274147
    21 1.537458 0.109715 1.664489 -0.499886 0.546206 0.269294
    22 0.928313 0.000000 0.000002 0.000000 0.000000 -0.715299
    23 0.928311 0.000000 0.000001 0.000000 0.000000 -0.261715
    24 2.686395 -0.427337 0.044204 -0.191308 -0.016216 -0.252816
    25 1.435260 0.000000 0.000001 0.000000 0.000000 0.470891
    26 1.482593 0.000000 -0.000001 0.000000 0.000000 0.907015
    27 2.046984 0.000001 0.000000 0.162595 0.147606 -1.351440
    28 -0.000005 0.000007 3.713254 -3.301572 -0.154641 1.251436
    29 18.045723 0.000000 0.000000 0.000000 0.000000 -1.733893
    30 17.597597 0.000000 0.000000 -0.265443 0.205479 -0.162812
    31 0.000005 -0.000003 -3.713254 0.773684 2.278849 5.458755
    32 18.045721 0.000000 0.000000 0.000000 0.000000 -2.679121
    33 17.597597 0.000000 0.000000 0.365608 0.052158 0.720683
  time 16
    0 0.672861 2.613512 -20.600716 0.000000 0.000000 -1.585458
    1 -0.000004 0.000000 0.000000 -1.570795 -1.570787 0.000000
    2 1.293670 0.684478 -0.000001 -0.020959 0.048573 0.182924
    3 5.309685 -0.003834 0.000000 -0.007198 -0.030800 0.219623
    4 4.826790 -0.004591 0.000000 -0.005627 0.034719 0.047590
    5 5.792767 -0.005304 0.000000 -0.164606 -0.002924 0.074625
    6 6.662322 -0.001452 0.000000 -0.016647 0.002267 0.459408
    7 -3.131626 1.411351 4.351345 1.822546 -1.010102 -5.464256
    8 4.827512 0.000000 -0.000002 -0.795021 0.285319 -1.195110
    9 11.140032 0.000000 0.000000 0.000000 0.000000 -1.945708
    10 10.314563 -0.000001 0.000001 -3.076980 0.135918 0.455289
    11 1.646836 0.445664 -1.699647 -0.161704 0.581044 -0.283978
    12 0.928312 0.000000 0.000000 0.000000 0.000000 0.000000
    13 0.928313 0.000000 -0.000001 0.000000 0.000000 0.000000
    14 2.979373 -0.388274 -0.044205 -0.015642 -0.040747 0.348855
    15 1.435262 -0.000001 -0.000001 0.000000 0.000000 0.649480
    16 1.482593 -0.000001 0.000001 0.000000 0.000000 0.499946
    17 -2.869899 1.427012 -4.132583 0.838987 1.273547 -2.783809
    18 4.972047 0.000000 0.000000 -0.483860 -1.138844 -0.332295
    19 11.585358 0.000000 0.000001 0.000000 0.000000 -1.761326
    20 10.127058 0.000000 0.000001 1.260996 0.266387 -1.223625
    21 1.537458 0.109715 1.664489 -0.499886 0.546206 0.269294
    22 0.928313 0.000000 0.000002 0.000000 0.000000 -0.715299
    23 0.928311 0.000000 0.000001 0.000000 0.000000 -0.261715
    24 2.686395 -0.427337 0.044204 -0.191308 -0.016216 -0.252816
    25 1.435260 0.000000 0.000001 0.000000 0.000000 0.470891
    26 1.482593 0.000000 -0.000001 0.000000 0.000000 0.907015
    27 2.046984 0.000001 0.000000 0.155874 0.149022 -1.350831
    28 -0.000005 0.000007 3.713254 -3.301572 -0.154641 1.251436
    29 18.045723 0.000000 0.000000 0.000000 0.000000 -1.733893
    30 17.597597 0.000000 0.000000 -0.265443 0.205479 -0.162812
    31 0.000005 -0.000003 -3.713254 0.773684 2.278849 5.458755
    32 18.045721 0.000000 0.000000 0.000000 0.000000 -2.679121
    33 17.597597 0.000000 0.000000 0.365608 0.052158 0.720683
  time 17
    0 0.672861 2.613512 -20.600716 0.000000 0.000000 -1.585458
    1 -0.000004 0.000000 0.000000 -1.570795 -1.570787 0.000000
    2 1.293670 0.684478 -0.000001 -0.020959 0.048573 0.182924
    3 5.309685 -0.003834 0.000000 -0.007828 -0.030764 0.219588
    4 4.826790 -0.004591 0.000000 -0.005684 0.033557 0.047811
    5 5.792767 -0.005304 0.000000 -0.162609 -0.007023 0.075580
    6 6.662322 -0.001452 0.000000 -0.016647 0.002267 0.459408
    7 -3.131626 1.411351 4.351345 1.822546 -1.010102 -5.464256
    8 4.827512 0.000000 -0.000002 -0.797652 0.235775 -1.268243
    9 11.140032 0.000000 0.000000 0.000000 0.000000 -1.823261
    10 10.314563 -0.000001 0.000001 -3.126358 0.194838 0.382651
    11 1.646836 0.445664 -1.699647 -0.161704 0.581044 -0.283978
    12 0.928312 0.000000 0.000000 0.000000 0.000000 0.000000
    13 0.928313 0.000000 -0.000001 0.000000 0.000000 0.000000
    14 2.979373 -0.388274 -0.044205 -0.015642 -0.040747 0.348855
    15 1.435262 -0.000001 -0.000001 0.000000 0.000000 0.649480
    16 1.482593 -0.000001 0.000001 0.000000 0.000000 0.499946
    17 -2.869899 1.427012 -4.132583 0.838987 1.273547 -2.783809
    18 4.972047 0.000000 0.000000 -0.560400 -1.124783 -0.239916
    19 11.585358 0.000000 0.000001 0.000000 0.000000 -1.839004
    20 10.127058 0.000000 0.000001 1.220394 0.333906 -1.186659
    21 1.537458 0.109715 1.664489 -0.499886 0.546206 0.269294
    22 0.928313 0.000000 0.000002 0.000000 0.000000 -0.715299
    23 0.928311 0.000000 0.000001 0.000000 0.000000 -0.261715
    24 2.686395 -0.427337 0.044204 -0.191308 -0.016216 -0.252816
    25 1.435260 0.000000 0.000001 0.000000 0.000000 0.470891
    26 1.482593 0.000000 -0.000001 0.000000 0.000000 0.907015
    27 2.046984 0.000001 0.000000 0.150532 0.150940 -1.351318
    28 -0.000005 0.000007 3.713254 -3.301572 -0.154641 1.251436
    29 18.045723 0.000000 0.000000 0.000000 0.000000 -1.733893
    30 17.597597 0.000000 0.000000 -0.265443 0.205479 -0.162812
    31 0.000005 -0.000003 -3.713254 0.773684 2.278849 5.458755
    32 18.045721 0.000000 0.000000 0.000000 0.000000 -2.679121
    33 17.597597 0.000000 0.000000 0.365608 0.052158 0.720683
end
