version 1
nodes
  0 "Bip01" -1
  1 "Bip01 Pelvis" 0
  2 "Bip01 Spine" 1
  3 "Bip01 Spine1" 2
  4 "Bip01 Spine2" 3
  5 "Bip01 Spine3" 4
  6 "Bip01 Neck" 5
  7 "Bip01 L Arm" 6
  8 "Bip01 L Arm1" 7
  9 "Bip01 L Arm2" 8
  10 "Bip01 L Hand" 9
  11 "Bip01 L Finger0" 10
  12 "Bip01 L Finger01" 11
  13 "Bip01 L Finger02" 12
  14 "Bip01 L Finger1" 10
  15 "Bip01 L Finger11" 14
  16 "Bip01 L Finger12" 15
  17 "Bip01 R Arm" 6
  18 "Bip01 R Arm1" 17
  19 "Bip01 R Arm2" 18
  20 "Bip01 R Hand" 19
  21 "Bip01 R Finger0" 20
  22 "Bip01 R Finger01" 21
  23 "Bip01 R Finger02" 22
  24 "Bip01 R Finger1" 20
  25 "Bip01 R Finger11" 24
  26 "Bip01 R Finger12" 25
  27 "Bip01 Head" 6
  28 "Bip01 L Leg" 1
  29 "Bip01 L Leg1" 28
  30 "Bip01 L Foot" 29
  31 "Bip01 R Leg" 1
  32 "Bip01 R Leg1" 31
  33 "Bip01 R Foot" 32
end
skeleton
  time 0
    0 -0.667024 0.757987 -20.600716 0.000000 0.000000 -1.585458
    1 -1.867248 -0.019532 0.000000 -1.570795 -1.570787 0.000000
    2 1.293670 0.684478 -0.000001 0.000215 -0.024653 0.296361
    3 5.309685 -0.003834 0.000000 0.096606 0.018624 0.250287
    4 4.826790 -0.004591 0.000000 0.186509 0.047267 0.236787
    5 5.792767 -0.005304 0.000000 0.098465 0.048861 0.289997
    6 6.662322 -0.001452 0.000000 0.000000 -0.000001 0.471000
    7 -3.108188 1.516823 4.339626 -0.257753 -1.364193 -3.360853
    8 4.827512 0.000000 -0.000002 0.244010 1.057046 -0.600082
    9 11.140032 0.000000 0.000000 0.000000 0.000000 -0.944185
    10 10.314563 -0.000001 0.000001 -1.642256 0.083181 -0.332921
    11 1.646836 0.445664 -1.699647 0.400567 0.460373 0.766655
    12 0.928312 0.000000 0.000000 0.000000 0.000000 -0.636658
    13 0.928313 0.000000 -0.000001 0.000000 0.000000 0.000000
    14 2.979373 -0.388274 -0.044205 -0.023121 -0.037007 0.541151
    15 1.435262 -0.000001 -0.000001 0.000000 0.000000 1.700791
    16 1.482593 -0.000001 0.000001 0.000000 0.000000 1.229725
    17 -2.869899 1.399667 -4.140396 0.672666 1.317189 -2.956405
    18 4.972047 0.000000 0.000000 1.207796 -0.711465 -1.102806
    19 11.585358 0.000000 0.000001 0.000000 0.000000 -1.088856
    20 10.127058 0.000000 0.000001 1.537144 -0.014847 -0.019606
    21 1.537458 0.109715 1.664489 -0.264662 -0.055995 0.783079
    22 0.928313 0.000000 0.000002 0.000000 0.000000 -0.453501
    23 0.928311 0.000000 0.000001 0.000000 0.000000 0.000000
    24 2.686395 -0.427337 0.044204 -0.005762 0.043239 -0.157074
    25 1.435260 0.000000 0.000001 0.000000 0.000000 0.732613
    26 1.482593 0.000000 -0.000001 0.000000 0.000000 1.168644
    27 2.046984 0.000001 0.000000 -0.357459 -0.082610 -0.717118
    28 -0.000005 0.000007 3.713254 -3.289300 -0.165475 1.249615
    29 18.045723 0.000000 0.000000 0.000000 0.000000 -1.732931
    30 17.597597 0.000000 0.000000 -0.251405 0.197505 -0.164508
    31 0.000005 -0.000003 -3.713254 0.821892 2.312307 5.493555
    32 18.045721 0.000000 0.000000 0.000000 0.000000 -2.673768
    33 17.597597 0.000000 0.000000 0.379969 0.033854 0.755924
  time 1
    0 -0.655305 0.734548 -20.600716 0.000000 0.000000 -1.585458
    1 -1.867248 -0.019532 0.000000 -1.570795 -1.570787 0.000000
    2 1.293670 0.684478 -0.000001 0.000215 -0.024653 0.296361
    3 5.309685 -0.003834 0.000000 0.096572 0.020350 0.255922
    4 4.826790 -0.004591 0.000000 0.187634 0.045278 0.222323
    5 5.792767 -0.005304 0.000000 0.097943 0.045829 0.272785
    6 6.662322 -0.001452 0.000000 0.000000 -0.000001 0.471000
    7 -3.108188 1.516823 4.339626 -0.257753 -1.364193 -3.360853
    8 4.827512 0.000000 -0.000002 0.284825 1.064294 -0.566288
    9 11.140032 0.000000 0.000000 0.000000 0.000000 -0.936287
    10 10.314563 -0.000001 0.000001 -1.642256 0.083181 -0.332921
    11 1.646836 0.445664 -1.699647 0.400567 0.460373 0.766655
    12 0.928312 0.000000 0.000000 0.000000 0.000000 -0.636658
    13 0.928313 0.000000 -0.000001 0.000000 0.000000 0.000000
    14 2.979373 -0.388274 -0.044205 -0.023121 -0.037007 0.541151
    15 1.435262 -0.000001 -0.000001 0.000000 0.000000 1.700791
    16 1.482593 -0.000001 0.000001 0.000000 0.000000 1.229725
    17 -2.869899 1.399667 -4.140396 0.668844 1.315927 -2.960428
    18 4.972047 0.000000 0.000000 1.194852 -0.734043 -1.087099
    19 11.585358 0.000000 0.000001 0.000000 0.000000 -1.088774
    20 10.127058 0.000000 0.000001 1.537285 -0.015036 -0.019206
    21 1.537458 0.109715 1.664489 -0.264662 -0.055995 0.783079
    22 0.928313 0.000000 0.000002 0.000000 0.000000 -0.453501
    23 0.928311 0.000000 0.000001 0.000000 0.000000 0.000000
    24 2.686395 -0.427337 0.044204 -0.005762 0.043239 -0.157074
    25 1.435260 0.000000 0.000001 0.000000 0.000000 0.732613
    26 1.482593 0.000000 -0.000001 0.000000 0.000000 1.168644
    27 2.046984 0.000001 0.000000 -0.361250 -0.075824 -0.691387
    28 -0.000005 0.000007 3.713254 -3.289588 -0.165475 1.249327
    29 18.045723 0.000000 0.000000 0.000000 0.000000 -1.734781
    30 17.597597 0.000000 0.000000 -0.251582 0.197776 -0.162858
    31 0.000005 -0.000003 -3.713254 0.820742 2.311540 5.496239
    32 18.045721 0.000000 0.000000 0.000000 0.000000 -2.674004
    33 17.597597 0.000000 0.000000 0.377184 0.036221 0.756710
  time 2
    0 -0.647492 0.703297 -20.600716 0.000000 0.000000 -1.585458
    1 -1.867248 -0.019532 0.000000 -1.570795 -1.570787 0.000000
    2 1.293670 0.684478 -0.000001 0.000215 -0.024653 0.296361
    3 5.309685 -0.003834 0.000000 0.096555 0.022160 0.261963
    4 4.826790 -0.004591 0.000000 0.188874 0.043133 0.206757
    5 5.792767 -0.005304 0.000000 0.097494 0.042629 0.255012
    6 6.662322 -0.001452 0.000000 0.000000 -0.000001 0.471000
    7 -3.108188 1.516823 4.339626 -0.266667 -1.370994 -3.351655
    8 4.827512 0.000000 -0.000002 0.330104 1.077171 -0.525302
    9 11.140032 0.000000 0.000000 0.000000 0.000000 -0.924622
    10 10.314563 -0.000001 0.000001 -1.642256 0.083181 -0.332921
    11 1.646836 0.445664 -1.699647 0.400567 0.460373 0.766655
    12 0.928312 0.000000 0.000000 0.000000 0.000000 -0.636658
    13 0.928313 0.000000 -0.000001 0.000000 0.000000 0.000000
    14 2.979373 -0.388274 -0.044205 -0.023121 -0.037007 0.541151
    15 1.435262 -0.000001 -0.000001 0.000000 0.000000 1.700791
    16 1.482593 -0.000001 0.000001 0.000000 0.000000 1.229725
    17 -2.869899 1.399667 -4.140396 0.672666 1.317189 -2.956405
    18 4.972047 0.000000 0.000000 1.183784 -0.760558 -1.071659
    19 11.585358 0.000000 0.000001 0.000000 0.000000 -1.088856
    20 10.127058 0.000000 0.000001 1.537144 -0.014847 -0.019606
    21 1.537458 0.109715 1.664489 -0.264662 -0.055995 0.783079
    22 0.928313 0.000000 0.000002 0.000000 0.000000 -0.453501
    23 0.928311 0.000000 0.000001 0.000000 0.000000 0.000000
    24 2.686395 -0.427337 0.044204 -0.005762 0.043239 -0.157074
    25 1.435260 0.000000 0.000001 0.000000 0.000000 0.732613
    26 1.482593 0.000000 -0.000001 0.000000 0.000000 1.168644
    27 2.046984 0.000001 0.000000 -0.365214 -0.068537 -0.664623
    28 -0.000005 0.000007 3.713254 -3.289876 -0.165475 1.249135
    29 18.045723 0.000000 0.000000 0.000000 0.000000 -1.736705
    30 17.597597 0.000000 0.000000 -0.251734 0.198120 -0.161070
    31 0.000005 -0.000003 -3.713254 0.819305 2.310773 5.499020
    32 18.045721 0.000000 0.000000 0.000000 0.000000 -2.674083
    33 17.597597 0.000000 0.000000 0.374198 0.038785 0.757541
  time 3
    0 -0.635773 0.672047 -20.600716 0.000000 0.000000 -1.585458
    1 -1.867248 -0.019532 0.000000 -1.570795 -1.570787 0.000000
    2 1.293670 0.684478 -0.000001 0.000215 -0.024653 0.296361
    3 5.309685 -0.003834 0.000000 0.096555 0.023969 0.268039
    4 4.826790 -0.004591 0.000000 0.190114 0.041047 0.191764
    5 5.792767 -0.005304 0.000000 0.097134 0.039501 0.237571
    6 6.662322 -0.001452 0.000000 0.002289 0.003353 0.512868
    7 -3.057405 1.653546 4.331813 -0.270214 -1.374956 -3.389886
    8 4.827512 0.000000 -0.000002 0.374666 1.090473 -0.485356
    9 11.140032 0.000000 0.000000 0.000000 0.000000 -0.911291
    10 10.314563 -0.000001 0.000001 -1.642256 0.083181 -0.332921
    11 1.646836 0.445664 -1.699647 0.400567 0.460373 0.766655
    12 0.928312 0.000000 0.000000 0.000000 0.000000 -0.636658
    13 0.928313 0.000000 -0.000001 0.000000 0.000000 0.000000
    14 2.979373 -0.388274 -0.044205 -0.023121 -0.037007 0.541151
    15 1.435262 -0.000001 -0.000001 0.000000 0.000000 1.700791
    16 1.482593 -0.000001 0.000001 0.000000 0.000000 1.229725
    17 -2.799584 1.501233 -4.148209 0.703618 1.326181 -2.967133
    18 4.972047 0.000000 0.000000 1.178344 -0.791493 -1.059213
    19 11.585358 0.000000 0.000001 0.000000 0.000000 -1.089101
    20 10.127058 0.000000 0.000001 1.536163 -0.014185 -0.021707
    21 1.537458 0.109715 1.664489 -0.264662 -0.055995 0.783079
    22 0.928313 0.000000 0.000002 0.000000 0.000000 -0.453501
    23 0.928311 0.000000 0.000001 0.000000 0.000000 0.000000
    24 2.686395 -0.427337 0.044204 -0.005762 0.043239 -0.157074
    25 1.435260 0.000000 0.000001 0.000000 0.000000 0.732613
    26 1.482593 0.000000 -0.000001 0.000000 0.000000 1.168644
    27 2.046984 0.000001 0.000000 -0.369910 -0.068596 -0.689745
    28 -0.000005 0.000007 3.713254 -3.290355 -0.165475 1.248944
    29 18.045723 0.000000 0.000000 0.000000 0.000000 -1.738630
    30 17.597597 0.000000 0.000000 -0.251886 0.198416 -0.159419
    31 0.000005 -0.000003 -3.713254 0.817867 2.309910 5.501608
    32 18.045721 0.000000 0.000000 0.000000 0.000000 -2.674319
    33 17.597597 0.000000 0.000000 0.371279 0.041290 0.758234
  time 4
    0 -0.624054 0.644702 -20.600716 0.000000 0.000000 -1.585458
    1 -1.867248 -0.019532 0.000000 -1.570795 -1.570787 0.000000
    2 1.293670 0.684478 -0.000001 0.000215 -0.024653 0.296361
    3 5.309685 -0.003834 0.000000 0.096572 0.025695 0.273674
    4 4.826790 -0.004591 0.000000 0.191163 0.039309 0.178888
    5 5.792767 -0.005304 0.000000 0.096846 0.036697 0.221314
    6 6.662322 -0.001452 0.000000 0.004770 0.006624 0.554821
    7 -3.006622 1.790269 4.312281 -0.275390 -1.379243 -3.426202
    8 4.827512 0.000000 -0.000002 0.414285 1.103094 -0.449743
    9 11.140032 0.000000 0.000000 0.000000 0.000000 -0.897597
    10 10.314563 -0.000001 0.000001 -1.642256 0.083181 -0.332921
    11 1.646836 0.445664 -1.699647 0.400567 0.460373 0.766655
    12 0.928312 0.000000 0.000000 0.000000 0.000000 -0.636658
    13 0.928313 0.000000 -0.000001 0.000000 0.000000 0.000000
    14 2.979373 -0.388274 -0.044205 -0.023121 -0.037007 0.541151
    15 1.435262 -0.000001 -0.000001 0.000000 0.000000 1.700791
    16 1.482593 -0.000001 0.000001 0.000000 0.000000 1.229725
    17 -2.725363 1.606705 -4.163834 0.741258 1.336355 -2.970868
    18 4.972047 0.000000 0.000000 1.175155 -0.821062 -1.049096
    19 11.585358 0.000000 0.000001 0.000000 0.000000 -1.089346
    20 10.127058 0.000000 0.000001 1.534970 -0.013334 -0.024308
    21 1.537458 0.109715 1.664489 -0.264662 -0.055995 0.783079
    22 0.928313 0.000000 0.000002 0.000000 0.000000 -0.453501
    23 0.928311 0.000000 0.000001 0.000000 0.000000 0.000000
    24 2.686395 -0.427337 0.044204 -0.005762 0.043239 -0.157074
    25 1.435260 0.000000 0.000001 0.000000 0.000000 0.732613
    26 1.482593 0.000000 -0.000001 0.000000 0.000000 1.168644
    27 2.046984 0.000001 0.000000 -0.374003 -0.069717 -0.717605
    28 -0.000005 0.000007 3.713254 -3.290547 -0.165475 1.248752
    29 18.045723 0.000000 0.000000 0.000000 0.000000 -1.740184
    30 17.597597 0.000000 0.000000 -0.252089 0.198785 -0.158044
    31 0.000005 -0.000003 -3.713254 0.816525 2.309047 5.503621
    32 18.045721 0.000000 0.000000 0.000000 0.000000 -2.674634
    33 17.597597 0.000000 0.000000 0.368897 0.043440 0.758649
  time 5
    0 -0.612335 0.632983 -20.600716 0.000000 0.000000 -1.585458
    1 -1.867248 -0.019532 0.000000 -1.570795 -1.570787 0.000000
    2 1.293670 0.684478 -0.000001 0.000215 -0.024653 0.296361
    3 5.309685 -0.003834 0.000000 0.096606 0.027133 0.278513
    4 4.826790 -0.004591 0.000000 0.191926 0.038075 0.169804
    5 5.792767 -0.005304 0.000000 0.096648 0.034408 0.207320
    6 6.662322 -0.001452 0.000000 0.007359 0.009840 0.596774
    7 -2.940214 1.919179 4.300562 -0.281524 -1.383413 -3.461654
    8 4.827512 0.000000 -0.000002 0.444896 1.115032 -0.422362
    9 11.140032 0.000000 0.000000 0.000000 0.000000 -0.884483
    10 10.314563 -0.000001 0.000001 -1.642256 0.083181 -0.332921
    11 1.646836 0.445664 -1.699647 0.400567 0.460373 0.766655
    12 0.928312 0.000000 0.000000 0.000000 0.000000 -0.636658
    13 0.928313 0.000000 -0.000001 0.000000 0.000000 0.000000
    14 2.979373 -0.388274 -0.044205 -0.023121 -0.037007 0.541151
    15 1.435262 -0.000001 -0.000001 0.000000 0.000000 1.700791
    16 1.482593 -0.000001 0.000001 0.000000 0.000000 1.229725
    17 -2.639423 1.712177 -4.171647 0.784151 1.346845 -2.969335
    18 4.972047 0.000000 0.000000 1.174592 -0.846613 -1.042241
    19 11.585358 0.000000 0.000001 0.000000 0.000000 -1.089673
    20 10.127058 0.000000 0.000001 1.533638 -0.012293 -0.027110
    21 1.537458 0.109715 1.664489 -0.264662 -0.055995 0.783079
    22 0.928313 0.000000 0.000002 0.000000 0.000000 -0.453501
    23 0.928311 0.000000 0.000001 0.000000 0.000000 0.000000
    24 2.686395 -0.427337 0.044204 -0.005762 0.043239 -0.157074
    25 1.435260 0.000000 0.000001 0.000000 0.000000 0.732613
    26 1.482593 0.000000 -0.000001 0.000000 0.000000 1.168644
    27 2.046984 0.000001 0.000000 -0.377191 -0.072608 -0.750574
    28 -0.000005 0.000007 3.713254 -3.291026 -0.165379 1.248752
    29 18.045723 0.000000 0.000000 0.000000 0.000000 -1.741146
    30 17.597597 0.000000 0.000000 -0.252241 0.199080 -0.157127
    31 0.000005 -0.000003 -3.713254 0.815279 2.308280 5.504580
    32 18.045721 0.000000 0.000000 0.000000 0.000000 -2.674634
    33 17.597597 0.000000 0.000000 0.367320 0.044998 0.758649
  time 6
    0 -0.604522 0.621264 -20.600716 0.000000 0.000000 -1.585458
    1 -1.867248 -0.019532 0.000000 -1.570795 -1.570787 0.000000
    2 1.293670 0.684478 -0.000001 0.000215 -0.024653 0.296361
    3 5.309685 -0.003834 0.000000 0.096606 0.028248 0.282170
    4 4.826790 -0.004591 0.000000 0.192422 0.037380 0.164402
    5 5.792767 -0.005304 0.000000 0.096630 0.032526 0.193824
    6 6.662322 -0.001452 0.000000 0.010055 0.012905 0.638670
    7 -2.869899 2.055902 4.288843 -0.287850 -1.386961 -3.496724
    8 4.827512 0.000000 -0.000002 0.471203 1.125862 -0.398359
    9 11.140032 0.000000 0.000000 0.000000 0.000000 -0.873035
    10 10.314563 -0.000001 0.000001 -1.642256 0.083181 -0.332921
    11 1.646836 0.445664 -1.699647 0.400567 0.460373 0.766655
    12 0.928312 0.000000 0.000000 0.000000 0.000000 -0.636658
    13 0.928313 0.000000 -0.000001 0.000000 0.000000 0.000000
    14 2.979373 -0.388274 -0.044205 -0.023121 -0.037007 0.541151
    15 1.435262 -0.000001 -0.000001 0.000000 0.000000 1.700791
    16 1.482593 -0.000001 0.000001 0.000000 0.000000 1.229725
    17 -2.549577 1.805929 -4.187273 0.829433 1.356677 -2.965696
    18 4.972047 0.000000 0.000000 1.174404 -0.868789 -1.036784
    19 11.585358 0.000000 0.000001 0.000000 0.000000 -1.090000
    20 10.127058 0.000000 0.000001 1.532376 -0.011442 -0.029811
    21 1.537458 0.109715 1.664489 -0.264662 -0.055995 0.783079
    22 0.928313 0.000000 0.000002 0.000000 0.000000 -0.453501
    23 0.928311 0.000000 0.000001 0.000000 0.000000 0.000000
    24 2.686395 -0.427337 0.044204 -0.005762 0.043239 -0.157074
    25 1.435260 0.000000 0.000001 0.000000 0.000000 0.732613
    26 1.482593 0.000000 -0.000001 0.000000 0.000000 1.168644
    27 2.046984 0.000001 0.000000 -0.379776 -0.076768 -0.786402
    28 -0.000005 0.000007 3.713254 -3.291218 -0.165283 1.248656
    29 18.045723 0.000000 0.000000 0.000000 0.000000 -1.741812
    30 17.597597 0.000000 0.000000 -0.252418 0.199351 -0.156577
    31 0.000005 -0.000003 -3.713254 0.814129 2.307801 5.504964
    32 18.045721 0.000000 0.000000 0.000000 0.000000 -2.674870
    33 17.597597 0.000000 0.000000 0.366212 0.046102 0.758465
  time 7
    0 -0.600616 0.613451 -20.600716 0.000000 0.000000 -1.585458
    1 -1.867248 -0.019532 0.000000 -1.570795 -1.570787 0.000000
    2 1.293670 0.684478 -0.000001 0.000215 -0.024653 0.296361
    3 5.309685 -0.003834 0.000000 0.096640 0.029003 0.284643
    4 4.826790 -0.004591 0.000000 0.192651 0.036996 0.161734
    5 5.792767 -0.005304 0.000000 0.096720 0.031160 0.181325
    6 6.662322 -0.001452 0.000000 0.012907 0.015846 0.680680
    7 -2.799584 2.180906 4.269311 -0.293889 -1.389504 -3.532560
    8 4.827512 0.000000 -0.000002 0.495118 1.135157 -0.376177
    9 11.140032 0.000000 0.000000 0.000000 0.000000 -0.864631
    10 10.314563 -0.000001 0.000001 -1.642256 0.083181 -0.332921
    11 1.646836 0.445664 -1.699647 0.400567 0.460373 0.766655
    12 0.928312 0.000000 0.000000 0.000000 0.000000 -0.636658
    13 0.928313 0.000000 -0.000001 0.000000 0.000000 0.000000
    14 2.979373 -0.388274 -0.044205 -0.023121 -0.037007 0.541151
    15 1.435262 -0.000001 -0.000001 0.000000 0.000000 1.700791
    16 1.482593 -0.000001 0.000001 0.000000 0.000000 1.229725
    17 -2.455824 1.903589 -4.202898 0.872900 1.365274 -2.963684
    18 4.972047 0.000000 0.000000 1.173748 -0.887189 -1.032125
    19 11.585358 0.000000 0.000001 0.000000 0.000000 -1.090326
    20 10.127058 0.000000 0.000001 1.531324 -0.010591 -0.032112
    21 1.537458 0.109715 1.664489 -0.264662 -0.055995 0.783079
    22 0.928313 0.000000 0.000002 0.000000 0.000000 -0.453501
    23 0.928311 0.000000 0.000001 0.000000 0.000000 0.000000
    24 2.686395 -0.427337 0.044204 -0.005762 0.043239 -0.157074
    25 1.435260 0.000000 0.000001 0.000000 0.000000 0.732613
    26 1.482593 0.000000 -0.000001 0.000000 0.000000 1.168644
    27 2.046984 0.000001 0.000000 -0.381672 -0.081843 -0.824785
    28 -0.000005 0.000007 3.713254 -3.291601 -0.165187 1.248656
    29 18.045723 0.000000 0.000000 0.000000 0.000000 -1.742331
    30 17.597597 0.000000 0.000000 -0.252596 0.199622 -0.156072
    31 0.000005 -0.000003 -3.713254 0.813267 2.307226 5.505251
    32 18.045721 0.000000 0.000000 0.000000 0.000000 -2.674870
    33 17.597597 0.000000 0.000000 0.365407 0.046990 0.758280
  time 8
    0 -0.592803 0.613451 -20.600716 0.000000 0.000000 -1.585458
    1 -1.867248 -0.019532 0.000000 -1.570795 -1.570787 0.000000
    2 1.293670 0.684478 -0.000001 0.000215 -0.024653 0.296361
    3 5.309685 -0.003834 0.000000 0.096640 0.029434 0.286162
    4 4.826790 -0.004591 0.000000 0.192651 0.036996 0.161734
    5 5.792767 -0.005304 0.000000 0.096900 0.030621 0.174141
    6 6.662322 -0.001452 0.000000 0.012907 0.015846 0.680680
    7 -2.799584 2.180906 4.269311 -0.302516 -1.394531 -3.523745
    8 4.827512 0.000000 -0.000002 0.506916 1.141637 -0.364739
    9 11.140032 0.000000 0.000000 0.000000 0.000000 -0.860139
    10 10.314563 -0.000001 0.000001 -1.642256 0.083181 -0.332921
    11 1.646836 0.445664 -1.699647 0.400567 0.460373 0.766655
    12 0.928312 0.000000 0.000000 0.000000 0.000000 -0.636658
    13 0.928313 0.000000 -0.000001 0.000000 0.000000 0.000000
    14 2.979373 -0.388274 -0.044205 -0.023121 -0.037007 0.541151
    15 1.435262 -0.000001 -0.000001 0.000000 0.000000 1.700791
    16 1.482593 -0.000001 0.000001 0.000000 0.000000 1.229725
    17 -2.455824 1.903589 -4.202898 0.895255 1.369087 -2.940793
    18 4.972047 0.000000 0.000000 1.174592 -0.897153 -1.030594
    19 11.585358 0.000000 0.000001 0.000000 0.000000 -1.090490
    20 10.127058 0.000000 0.000001 1.530553 -0.010024 -0.033712
    21 1.537458 0.109715 1.664489 -0.264662 -0.055995 0.783079
    22 0.928313 0.000000 0.000002 0.000000 0.000000 -0.453501
    23 0.928311 0.000000 0.000001 0.000000 0.000000 0.000000
    24 2.686395 -0.427337 0.044204 -0.005762 0.043239 -0.157074
    25 1.435260 0.000000 0.000001 0.000000 0.000000 0.732613
    26 1.482593 0.000000 -0.000001 0.000000 0.000000 1.168644
    27 2.046984 0.000001 0.000000 -0.380896 -0.078627 -0.809578
    28 -0.000005 0.000007 3.713254 -3.291793 -0.165187 1.248656
    29 18.045723 0.000000 0.000000 0.000000 0.000000 -1.742257
    30 17.597597 0.000000 0.000000 -0.252697 0.199794 -0.156164
    31 0.000005 -0.000003 -3.713254 0.812691 2.306842 5.504676
    32 18.045721 0.000000 0.000000 0.000000 0.000000 -2.674949
    33 17.597597 0.000000 0.000000 0.365407 0.047168 0.757772
  time 9
    0 -0.592803 0.629076 -20.600716 0.000000 0.000000 -1.585458
    1 -1.867248 -0.019532 0.000000 -1.570795 -1.570787 0.000000
    2 1.293670 0.684478 -0.000001 0.000215 -0.024653 0.296361
    3 5.309685 -0.003834 0.000000 0.096640 0.029506 0.286427
    4 4.826790 -0.004591 0.000000 0.192422 0.037380 0.164402
    5 5.792767 -0.005304 0.000000 0.097008 0.031328 0.176321
    6 6.662322 -0.001452 0.000000 0.012907 0.015846 0.680680
    7 -2.799584 2.180906 4.269311 -0.308651 -1.397961 -3.517516
    8 4.827512 0.000000 -0.000002 0.499901 1.143769 -0.369158
    9 11.140032 0.000000 0.000000 0.000000 0.000000 -0.862602
    10 10.314563 -0.000001 0.000001 -1.642256 0.083181 -0.332921
    11 1.646836 0.445664 -1.699647 0.400567 0.460373 0.766655
    12 0.928312 0.000000 0.000000 0.000000 0.000000 -0.636658
    13 0.928313 0.000000 -0.000001 0.000000 0.000000 0.000000
    14 2.979373 -0.388274 -0.044205 -0.023121 -0.037007 0.541151
    15 1.435262 -0.000001 -0.000001 0.000000 0.000000 1.700791
    16 1.482593 -0.000001 0.000001 0.000000 0.000000 1.229725
    17 -2.455824 1.903589 -4.202898 0.909680 1.371321 -2.926139
    18 4.972047 0.000000 0.000000 1.180783 -0.895465 -1.035852
    19 11.585358 0.000000 0.000001 0.000000 0.000000 -1.090571
    20 10.127058 0.000000 0.000001 1.530132 -0.009646 -0.034713
    21 1.537458 0.109715 1.664489 -0.264662 -0.055995 0.783079
    22 0.928313 0.000000 0.000002 0.000000 0.000000 -0.453501
    23 0.928311 0.000000 0.000001 0.000000 0.000000 0.000000
    24 2.686395 -0.427337 0.044204 -0.005762 0.043239 -0.157074
    25 1.435260 0.000000 0.000001 0.000000 0.000000 0.732613
    26 1.482593 0.000000 -0.000001 0.000000 0.000000 1.168644
    27 2.046984 0.000001 0.000000 -0.379087 -0.077801 -0.805320
    28 -0.000005 0.000007 3.713254 -3.291793 -0.165091 1.248848
    29 18.045723 0.000000 0.000000 0.000000 0.000000 -1.741516
    30 17.597597 0.000000 0.000000 -0.252773 0.199818 -0.156760
    31 0.000005 -0.000003 -3.713254 0.812500 2.306747 5.503046
    32 18.045721 0.000000 0.000000 0.000000 0.000000 -2.674949
    33 17.597597 0.000000 0.000000 0.366447 0.046438 0.757079
  time 10
    0 -0.600616 0.652515 -20.600716 0.000000 0.000000 -1.585458
    1 -1.867248 -0.019532 0.000000 -1.570795 -1.570787 0.000000
    2 1.293670 0.684478 -0.000001 0.000215 -0.024653 0.296361
    3 5.309685 -0.003834 0.000000 0.096640 0.029159 0.285173
    4 4.826790 -0.004591 0.000000 0.191926 0.038075 0.169804
    5 5.792767 -0.005304 0.000000 0.097116 0.033401 0.189028
    6 6.662322 -0.001452 0.000000 0.012907 0.015846 0.680680
    7 -2.799584 2.180906 4.269311 -0.312197 -1.399912 -3.513875
    8 4.827512 0.000000 -0.000002 0.472080 1.141467 -0.391774
    9 11.140032 0.000000 0.000000 0.000000 0.000000 -0.872238
    10 10.314563 -0.000001 0.000001 -1.642256 0.083181 -0.332921
    11 1.646836 0.445664 -1.699647 0.400567 0.460373 0.766655
    12 0.928312 0.000000 0.000000 0.000000 0.000000 -0.636658
    13 0.928313 0.000000 -0.000001 0.000000 0.000000 0.000000
    14 2.979373 -0.388274 -0.044205 -0.023121 -0.037007 0.541151
    15 1.435262 -0.000001 -0.000001 0.000000 0.000000 1.700791
    16 1.482593 -0.000001 0.000001 0.000000 0.000000 1.229725
    17 -2.455824 1.903589 -4.202898 0.919329 1.372820 -2.916273
    18 4.972047 0.000000 0.000000 1.193727 -0.882127 -1.048830
    19 11.585358 0.000000 0.000001 0.000000 0.000000 -1.090735
    20 10.127058 0.000000 0.000001 1.529711 -0.009551 -0.035363
    21 1.537458 0.109715 1.664489 -0.264662 -0.055995 0.783079
    22 0.928313 0.000000 0.000002 0.000000 0.000000 -0.453501
    23 0.928311 0.000000 0.000001 0.000000 0.000000 0.000000
    24 2.686395 -0.427337 0.044204 -0.005762 0.043239 -0.157074
    25 1.435260 0.000000 0.000001 0.000000 0.000000 0.732613
    26 1.482593 0.000000 -0.000001 0.000000 0.000000 1.168644
    27 2.046984 0.000001 0.000000 -0.375769 -0.079394 -0.812558
    28 -0.000005 0.000007 3.713254 -3.291793 -0.164995 1.249039
    29 18.045723 0.000000 0.000000 0.000000 0.000000 -1.740036
    30 17.597597 0.000000 0.000000 -0.252824 0.199720 -0.158044
    31 0.000005 -0.000003 -3.713254 0.812979 2.307034 5.500554
    32 18.045721 0.000000 0.000000 0.000000 0.000000 -2.674870
    33 17.597597 0.000000 0.000000 0.368527 0.044722 0.756063
  time 11
    0 -0.604522 0.683766 -20.600716 0.000000 0.000000 -1.585458
    1 -1.867248 -0.019532 0.000000 -1.570795 -1.570787 0.000000
    2 1.293670 0.684478 -0.000001 0.000215 -0.024653 0.296361
    3 5.309685 -0.003834 0.000000 0.096606 0.028248 0.282170
    4 4.826790 -0.004591 0.000000 0.191106 0.039453 0.179990
    5 5.792767 -0.005304 0.000000 0.097260 0.036457 0.208545
    6 6.662322 -0.001452 0.000000 0.012907 0.015846 0.680680
    7 -2.799584 2.180906 4.269311 -0.312485 -1.400090 -3.513588
    8 4.827512 0.000000 -0.000002 0.424648 1.135583 -0.431633
    9 11.140032 0.000000 0.000000 0.000000 0.000000 -0.885570
    10 10.314563 -0.000001 0.000001 -1.642256 0.083181 -0.332921
    11 1.646836 0.445664 -1.699647 0.400567 0.460373 0.766655
    12 0.928312 0.000000 0.000000 0.000000 0.000000 -0.636658
    13 0.928313 0.000000 -0.000001 0.000000 0.000000 0.000000
    14 2.979373 -0.388274 -0.044205 -0.023121 -0.037007 0.541151
    15 1.435262 -0.000001 -0.000001 0.000000 0.000000 1.700791
    16 1.482593 -0.000001 0.000001 0.000000 0.000000 1.229725
    17 -2.455824 1.903589 -4.202898 0.923246 1.373451 -2.912346
    18 4.972047 0.000000 0.000000 1.210423 -0.858585 -1.066867
    19 11.585358 0.000000 0.000001 0.000000 0.000000 -1.090735
    20 10.127058 0.000000 0.000001 1.529641 -0.009362 -0.035663
    21 1.537458 0.109715 1.664489 -0.264662 -0.055995 0.783079
    22 0.928313 0.000000 0.000002 0.000000 0.000000 -0.453501
    23 0.928311 0.000000 0.000001 0.000000 0.000000 0.000000
    24 2.686395 -0.427337 0.044204 -0.005762 0.043239 -0.157074
    25 1.435260 0.000000 0.000001 0.000000 0.000000 0.732613
    26 1.482593 0.000000 -0.000001 0.000000 0.000000 1.168644
    27 2.046984 0.000001 0.000000 -0.371289 -0.083436 -0.829469
    28 -0.000005 0.000007 3.713254 -3.291697 -0.164995 1.249231
    29 18.045723 0.000000 0.000000 0.000000 0.000000 -1.737816
    30 17.597597 0.000000 0.000000 -0.252748 0.199523 -0.159969
    31 0.000005 -0.000003 -3.713254 0.813842 2.307609 5.497006
    32 18.045721 0.000000 0.000000 0.000000 0.000000 -2.674870
    33 17.597597 0.000000 0.000000 0.371782 0.042059 0.754816
  time 12
    0 -0.624054 0.703297 -20.600716 0.000000 0.000000 -1.585458
    1 -1.867248 -0.019532 0.000000 -1.570795 -1.570787 0.000000
    2 1.293670 0.684478 -0.000001 0.000215 -0.024653 0.296361
    3 5.309685 -0.003834 0.000000 0.096572 0.025443 0.272896
    4 4.826790 -0.004591 0.000000 0.189847 0.041515 0.194983
    5 5.792767 -0.005304 0.000000 0.097494 0.040017 0.231571
    6 6.662322 -0.001452 0.000000 0.012907 0.015846 0.680680
    7 -2.799584 2.180906 4.269311 -0.309417 -1.398375 -3.516846
    8 4.827512 0.000000 -0.000002 0.373151 1.125606 -0.474785
    9 11.140032 0.000000 0.000000 0.000000 0.000000 -0.899336
    10 10.314563 -0.000001 0.000001 -1.642256 0.083181 -0.332921
    11 1.646836 0.445664 -1.699647 0.400567 0.460373 0.766655
    12 0.928312 0.000000 0.000000 0.000000 0.000000 -0.636658
    13 0.928313 0.000000 -0.000001 0.000000 0.000000 0.000000
    14 2.979373 -0.388274 -0.044205 -0.023121 -0.037007 0.541151
    15 1.435262 -0.000001 -0.000001 0.000000 0.000000 1.700791
    16 1.482593 -0.000001 0.000001 0.000000 0.000000 1.229725
    17 -2.455824 1.903589 -4.202898 0.920857 1.373030 -2.914741
    18 4.972047 0.000000 0.000000 1.227776 -0.831989 -1.086966
    19 11.585358 0.000000 0.000001 0.000000 0.000000 -1.090735
    20 10.127058 0.000000 0.000001 1.529711 -0.009362 -0.035463
    21 1.537458 0.109715 1.664489 -0.264662 -0.055995 0.783079
    22 0.928313 0.000000 0.000002 0.000000 0.000000 -0.453501
    23 0.928311 0.000000 0.000001 0.000000 0.000000 0.000000
    24 2.686395 -0.427337 0.044204 -0.005762 0.043239 -0.157074
    25 1.435260 0.000000 0.000001 0.000000 0.000000 0.732613
    26 1.482593 0.000000 -0.000001 0.000000 0.000000 1.168644
    27 2.046984 0.000001 0.000000 -0.365559 -0.086239 -0.849360
    28 -0.000005 0.000007 3.713254 -3.290834 -0.165091 1.249327
    29 18.045723 0.000000 0.000000 0.000000 0.000000 -1.736705
    30 17.597597 0.000000 0.000000 -0.252393 0.198859 -0.161024
    31 0.000005 -0.000003 -3.713254 0.816429 2.308856 5.496719
    32 18.045721 0.000000 0.000000 0.000000 0.000000 -2.674555
    33 17.597597 0.000000 0.000000 0.373661 0.039791 0.755416
  time 13
    0 -0.647492 0.703297 -20.600716 0.000000 0.000000 -1.585458
    1 -1.867248 -0.019532 0.000000 -1.570795 -1.570787 0.000000
    2 1.293670 0.684478 -0.000001 0.000215 -0.024653 0.296361
    3 5.309685 -0.003834 0.000000 0.096572 0.021345 0.259225
    4 4.826790 -0.004591 0.000000 0.188512 0.043792 0.211607
    5 5.792767 -0.005304 0.000000 0.097781 0.043576 0.255012
    6 6.662322 -0.001452 0.000000 0.010055 0.012905 0.638670
    7 -2.869899 2.055902 4.288843 -0.307692 -1.398552 -3.476794
    8 4.827512 0.000000 -0.000002 0.325480 1.112644 -0.515077
    9 11.140032 0.000000 0.000000 0.000000 0.000000 -0.910566
    10 10.314563 -0.000001 0.000001 -1.642256 0.083181 -0.332921
    11 1.646836 0.445664 -1.699647 0.400567 0.460373 0.766655
    12 0.928312 0.000000 0.000000 0.000000 0.000000 -0.636658
    13 0.928313 0.000000 -0.000001 0.000000 0.000000 0.000000
    14 2.979373 -0.388274 -0.044205 -0.023121 -0.037007 0.541151
    15 1.435262 -0.000001 -0.000001 0.000000 0.000000 1.700791
    16 1.482593 -0.000001 0.000001 0.000000 0.000000 1.229725
    17 -2.549577 1.805929 -4.187273 0.896783 1.368850 -2.896926
    18 4.972047 0.000000 0.000000 1.242690 -0.806277 -1.105735
    19 11.585358 0.000000 0.000001 0.000000 0.000000 -1.090735
    20 10.127058 0.000000 0.000001 1.530062 -0.009646 -0.034863
    21 1.537458 0.109715 1.664489 -0.264662 -0.055995 0.783079
    22 0.928313 0.000000 0.000002 0.000000 0.000000 -0.453501
    23 0.928311 0.000000 0.000001 0.000000 0.000000 0.000000
    24 2.686395 -0.427337 0.044204 -0.005762 0.043239 -0.157074
    25 1.435260 0.000000 0.000001 0.000000 0.000000 0.732613
    26 1.482593 0.000000 -0.000001 0.000000 0.000000 1.168644
    27 2.046984 0.000001 0.000000 -0.361681 -0.085885 -0.834456
    28 -0.000005 0.000007 3.713254 -3.289780 -0.165379 1.249135
    29 18.045723 0.000000 0.000000 0.000000 0.000000 -1.736779
    30 17.597597 0.000000 0.000000 -0.251734 0.197850 -0.161070
    31 0.000005 -0.000003 -3.713254 0.820167 2.310677 5.499883
    32 18.045721 0.000000 0.000000 0.000000 0.000000 -2.674083
    33 17.597597 0.000000 0.000000 0.373829 0.038371 0.757772
  time 14
    0 -0.667024 0.715017 -20.600716 0.000000 0.000000 -1.585458
    1 -1.867248 -0.019532 0.000000 -1.570795 -1.570787 0.000000
    2 1.293670 0.684478 -0.000001 0.000215 -0.024653 0.296361
    3 5.309685 -0.003834 0.000000 0.096606 0.018624 0.250287
    4 4.826790 -0.004591 0.000000 0.187310 0.045853 0.226578
    5 5.792767 -0.005304 0.000000 0.098141 0.046692 0.275505
    6 6.662322 -0.001452 0.000000 0.007359 0.009840 0.596774
    7 -2.940214 1.919179 4.300562 -0.300982 -1.395299 -3.442012
    8 4.827512 0.000000 -0.000002 0.276056 1.098745 -0.559702
    9 11.140032 0.000000 0.000000 0.000000 0.000000 -0.918898
    10 10.314563 -0.000001 0.000001 -1.642256 0.083181 -0.332921
    11 1.646836 0.445664 -1.699647 0.400567 0.460373 0.766655
    12 0.928312 0.000000 0.000000 0.000000 0.000000 -0.636658
    13 0.928313 0.000000 -0.000001 0.000000 0.000000 0.000000
    14 2.979373 -0.388274 -0.044205 -0.023121 -0.037007 0.541151
    15 1.435262 -0.000001 -0.000001 0.000000 0.000000 1.700791
    16 1.482593 -0.000001 0.000001 0.000000 0.000000 1.229725
    17 -2.639423 1.712177 -4.171647 0.866022 1.363408 -2.885719
    18 4.972047 0.000000 0.000000 1.252445 -0.778396 -1.119911
    19 11.585358 0.000000 0.000001 0.000000 0.000000 -1.090490
    20 10.127058 0.000000 0.000001 1.530553 -0.010024 -0.033712
    21 1.537458 0.109715 1.664489 -0.264662 -0.055995 0.783079
    22 0.928313 0.000000 0.000002 0.000000 0.000000 -0.453501
    23 0.928311 0.000000 0.000001 0.000000 0.000000 0.000000
    24 2.686395 -0.427337 0.044204 -0.005762 0.043239 -0.157074
    25 1.435260 0.000000 0.000001 0.000000 0.000000 0.732613
    26 1.482593 0.000000 -0.000001 0.000000 0.000000 1.168644
    27 2.046984 0.000001 0.000000 -0.358321 -0.087183 -0.819371
    28 -0.000005 0.000007 3.713254 -3.289013 -0.165571 1.249135
    29 18.045723 0.000000 0.000000 0.000000 0.000000 -1.735743
    30 17.597597 0.000000 0.000000 -0.251379 0.197284 -0.162078
    31 0.000005 -0.000003 -3.713254 0.822659 2.311827 5.499787
    32 18.045721 0.000000 0.000000 0.000000 0.000000 -2.673768
    33 17.597597 0.000000 0.000000 0.375473 0.036359 0.758372
  time 15
    0 -0.667024 0.746268 -20.600716 0.000000 0.000000 -1.585458
    1 -1.867248 -0.019532 0.000000 -1.570795 -1.570787 0.000000
    2 1.293670 0.684478 -0.000001 0.000215 -0.024653 0.296361
    3 5.309685 -0.003834 0.000000 0.096606 0.017905 0.247814
    4 4.826790 -0.004591 0.000000 0.186509 0.047267 0.236787
    5 5.792767 -0.005304 0.000000 0.098465 0.048861 0.289997
    6 6.662322 -0.001452 0.000000 0.004770 0.006624 0.554821
    7 -3.006622 1.790269 4.312281 -0.289863 -1.388735 -3.411350
    8 4.827512 0.000000 -0.000002 0.237712 1.084504 -0.596529
    9 11.140032 0.000000 0.000000 0.000000 0.000000 -0.926796
    10 10.314563 -0.000001 0.000001 -1.642256 0.083181 -0.332921
    11 1.646836 0.445664 -1.699647 0.400567 0.460373 0.766655
    12 0.928312 0.000000 0.000000 0.000000 0.000000 -0.636658
    13 0.928313 0.000000 -0.000001 0.000000 0.000000 0.000000
    14 2.979373 -0.388274 -0.044205 -0.023121 -0.037007 0.541151
    15 1.435262 -0.000001 -0.000001 0.000000 0.000000 1.700791
    16 1.482593 -0.000001 0.000001 0.000000 0.000000 1.229725
    17 -2.725363 1.606705 -4.163834 0.819021 1.354390 -2.891466
    18 4.972047 0.000000 0.000000 1.251507 -0.749551 -1.125502
    19 11.585358 0.000000 0.000001 0.000000 0.000000 -1.090163
    20 10.127058 0.000000 0.000001 1.531745 -0.010969 -0.031161
    21 1.537458 0.109715 1.664489 -0.264662 -0.055995 0.783079
    22 0.928313 0.000000 0.000002 0.000000 0.000000 -0.453501
    23 0.928311 0.000000 0.000001 0.000000 0.000000 0.000000
    24 2.686395 -0.427337 0.044204 -0.005762 0.043239 -0.157074
    25 1.435260 0.000000 0.000001 0.000000 0.000000 0.732613
    26 1.482593 0.000000 -0.000001 0.000000 0.000000 1.168644
    27 2.046984 0.000001 0.000000 -0.355951 -0.089130 -0.798933
    28 -0.000005 0.000007 3.713254 -3.288917 -0.165475 1.249423
    29 18.045723 0.000000 0.000000 0.000000 0.000000 -1.733745
    30 17.597597 0.000000 0.000000 -0.251379 0.197161 -0.163820
    31 0.000005 -0.000003 -3.713254 0.823330 2.312211 5.496431
    32 18.045721 0.000000 0.000000 0.000000 0.000000 -2.673768
    33 17.597597 0.000000 0.000000 0.378325 0.034071 0.757079
  time 16
    0 -0.667024 0.765799 -20.600716 0.000000 0.000000 -1.585458
    1 -1.867248 -0.019532 0.000000 -1.570795 -1.570787 0.000000
    2 1.293670 0.684478 -0.000001 0.000215 -0.024653 0.296361
    3 5.309685 -0.003834 0.000000 0.096606 0.017677 0.247107
    4 4.826790 -0.004591 0.000000 0.186223 0.047866 0.241064
    5 5.792767 -0.005304 0.000000 0.098609 0.049904 0.296600
    6 6.662322 -0.001452 0.000000 0.002289 0.003353 0.512868
    7 -3.057405 1.653546 4.331813 -0.278553 -1.380722 -3.381359
    8 4.827512 0.000000 -0.000002 0.224957 1.072054 -0.610480
    9 11.140032 0.000000 0.000000 0.000000 0.000000 -0.934186
    10 10.314563 -0.000001 0.000001 -1.642256 0.083181 -0.332921
    11 1.646836 0.445664 -1.699647 0.400567 0.460373 0.766655
    12 0.928312 0.000000 0.000000 0.000000 0.000000 -0.636658
    13 0.928313 0.000000 -0.000001 0.000000 0.000000 0.000000
    14 2.979373 -0.388274 -0.044205 -0.023121 -0.037007 0.541151
    15 1.435262 -0.000001 -0.000001 0.000000 0.000000 1.700791
    16 1.482593 -0.000001 0.000001 0.000000 0.000000 1.229725
    17 -2.799584 1.501233 -4.148209 0.758740 1.341087 -2.910335
    18 4.972047 0.000000 0.000000 1.239969 -0.727615 -1.122174
    19 11.585358 0.000000 0.000001 0.000000 0.000000 -1.089673
    20 10.127058 0.000000 0.000001 1.533638 -0.012293 -0.027110
    21 1.537458 0.109715 1.664489 -0.264662 -0.055995 0.783079
    22 0.928313 0.000000 0.000002 0.000000 0.000000 -0.453501
    23 0.928311 0.000000 0.000001 0.000000 0.000000 0.000000
    24 2.686395 -0.427337 0.044204 -0.005762 0.043239 -0.157074
    25 1.435260 0.000000 0.000001 0.000000 0.000000 0.732613
    26 1.482593 0.000000 -0.000001 0.000000 0.000000 1.168644
    27 2.046984 0.000001 0.000000 -0.355391 -0.087950 -0.766937
    28 -0.000005 0.000007 3.713254 -3.288917 -0.165379 1.249519
    29 18.045723 0.000000 0.000000 0.000000 0.000000 -1.732783
    30 17.597597 0.000000 0.000000 -0.251379 0.197136 -0.164600
    31 0.000005 -0.000003 -3.713254 0.823522 2.312307 5.494610
    32 18.045721 0.000000 0.000000 0.000000 0.000000 -2.673532
    33 17.597597 0.000000 0.000000 0.379734 0.033006 0.756340
  time 17
    0 -0.667024 0.769706 -20.600716 0.000000 0.000000 -1.585458
    1 -1.867248 -0.019532 0.000000 -1.570795 -1.570787 0.000000
    2 1.293670 0.684478 -0.000001 0.000215 -0.024653 0.296361
    3 5.309685 -0.003834 0.000000 0.096606 0.017821 0.247620
    4 4.826790 -0.004591 0.000000 0.186185 0.047938 0.241593
    5 5.792767 -0.005304 0.000000 0.098627 0.050024 0.297451
    6 6.662322 -0.001452 0.000000 0.000000 -0.000001 0.471000
    7 -3.108188 1.516823 4.339626 -0.269543 -1.373152 -3.348780
    8 4.827512 0.000000 -0.000002 0.228226 1.062418 -0.609960
    9 11.140032 0.000000 0.000000 0.000000 0.000000 -0.940562
    10 10.314563 -0.000001 0.000001 -1.642256 0.083181 -0.332921
    11 1.646836 0.445664 -1.699647 0.400567 0.460373 0.766655
    12 0.928312 0.000000 0.000000 0.000000 0.000000 -0.636658
    13 0.928313 0.000000 -0.000001 0.000000 0.000000 0.000000
    14 2.979373 -0.388274 -0.044205 -0.023121 -0.037007 0.541151
    15 1.435262 -0.000001 -0.000001 0.000000 0.000000 1.700791
    16 1.482593 -0.000001 0.000001 0.000000 0.000000 1.229725
    17 -2.869899 1.399667 -4.140396 0.702854 1.326496 -2.925372
    18 4.972047 0.000000 0.000000 1.224399 -0.712751 -1.114587
    19 11.585358 0.000000 0.000001 0.000000 0.000000 -1.089183
    20 10.127058 0.000000 0.000001 1.535602 -0.013806 -0.022908
    21 1.537458 0.109715 1.664489 -0.264662 -0.055995 0.783079
    22 0.928313 0.000000 0.000002 0.000000 0.000000 -0.453501
    23 0.928311 0.000000 0.000001 0.000000 0.000000 0.000000
    24 2.686395 -0.427337 0.044204 -0.005762 0.043239 -0.157074
    25 1.435260 0.000000 0.000001 0.000000 0.000000 0.732613
    26 1.482593 0.000000 -0.000001 0.000000 0.000000 1.168644
    27 2.046984 0.000001 0.000000 -0.355908 -0.084675 -0.726790
    28 -0.000005 0.000007 3.713254 -3.289013 -0.165379 1.249615
    29 18.045723 0.000000 0.000000 0.000000 0.000000 -1.732487
    30 17.597597 0.000000 0.000000 -0.251455 0.197161 -0.164921
    31 0.000005 -0.000003 -3.713254 0.823330 2.312211 5.493939
    32 18.045721 0.000000 0.000000 0.000000 0.000000 -2.673532
    33 17.597597 0.000000 0.000000 0.380170 0.032710 0.755971
  time 18
    0 -0.667024 0.769706 -20.600716 0.000000 0.000000 -1.585458
    1 -1.867248 -0.019532 0.000000 -1.570795 -1.570787 0.000000
    2 1.293670 0.684478 -0.000001 0.000215 -0.024653 0.296361
    3 5.309685 -0.003834 0.000000 0.096606 0.018181 0.248680
    4 4.826790 -0.004591 0.000000 0.186280 0.047747 0.240006
    5 5.792767 -0.005304 0.000000 0.098573 0.049628 0.294939
    6 6.662322 -0.001452 0.000000 0.000000 -0.000001 0.471000
    7 -3.108188 1.516823 4.339626 -0.257753 -1.364193 -3.360853
    8 4.827512 0.000000 -0.000002 0.239386 1.055767 -0.601728
    9 11.140032 0.000000 0.000000 0.000000 0.000000 -0.945996
    10 10.314563 -0.000001 0.000001 -1.642256 0.083181 -0.332921
    11 1.646836 0.445664 -1.699647 0.400567 0.460373 0.766655
    12 0.928312 0.000000 0.000000 0.000000 0.000000 -0.636658
    13 0.928313 0.000000 -0.000001 0.000000 0.000000 0.000000
    14 2.979373 -0.388274 -0.044205 -0.023121 -0.037007 0.541151
    15 1.435262 -0.000001 -0.000001 0.000000 0.000000 1.700791
    16 1.482593 -0.000001 0.000001 0.000000 0.000000 1.229725
    17 -2.869899 1.399667 -4.140396 0.672666 1.317189 -2.956405
    18 4.972047 0.000000 0.000000 1.210798 -0.705439 -1.106667
    19 11.585358 0.000000 0.000001 0.000000 0.000000 -1.088856
    20 10.127058 0.000000 0.000001 1.537144 -0.014847 -0.019606
    21 1.537458 0.109715 1.664489 -0.264662 -0.055995 0.783079
    22 0.928313 0.000000 0.000002 0.000000 0.000000 -0.453501
    23 0.928311 0.000000 0.000001 0.000000 0.000000 0.000000
    24 2.686395 -0.427337 0.044204 -0.005762 0.043239 -0.157074
    25 1.435260 0.000000 0.000001 0.000000 0.000000 0.732613
    26 1.482593 0.000000 -0.000001 0.000000 0.000000 1.168644
    27 2.046984 0.000001 0.000000 -0.356425 -0.084085 -0.723627
    28 -0.000005 0.000007 3.713254 -3.289109 -0.165379 1.249615
    29 18.045723 0.000000 0.000000 0.000000 0.000000 -1.732561
    30 17.597597 0.000000 0.000000 -0.251481 0.197234 -0.164783
    31 0.000005 -0.000003 -3.713254 0.823042 2.312115 5.493939
    32 18.045721 0.000000 0.000000 0.000000 0.000000 -2.673532
    33 17.597597 0.000000 0.000000 0.379969 0.032868 0.755878
  time 19
    0 -0.667024 0.765799 -20.600716 0.000000 0.000000 -1.585458
    1 -1.867248 -0.019532 0.000000 -1.570795 -1.570787 0.000000
    2 1.293670 0.684478 -0.000001 0.000215 -0.024653 0.296361
    3 5.309685 -0.003834 0.000000 0.096606 0.018480 0.249775
    4 4.826790 -0.004591 0.000000 0.186471 0.047447 0.237845
    5 5.792767 -0.005304 0.000000 0.098501 0.049137 0.291658
    6 6.662322 -0.001452 0.000000 0.000000 -0.000001 0.471000
    7 -3.108188 1.516823 4.339626 -0.255548 -1.362359 -3.363153
    8 4.827512 0.000000 -0.000002 0.245843 1.055255 -0.597049
    9 11.140032 0.000000 0.000000 0.000000 0.000000 -0.946431
    10 10.314563 -0.000001 0.000001 -1.642256 0.083181 -0.332921
    11 1.646836 0.445664 -1.699647 0.400567 0.460373 0.766655
    12 0.928312 0.000000 0.000000 0.000000 0.000000 -0.636658
    13 0.928313 0.000000 -0.000001 0.000000 0.000000 0.000000
    14 2.979373 -0.388274 -0.044205 -0.023121 -0.037007 0.541151
    15 1.435262 -0.000001 -0.000001 0.000000 0.000000 1.700791
    16 1.482593 -0.000001 0.000001 0.000000 0.000000 1.229725
    17 -2.869899 1.399667 -4.140396 0.667507 1.315507 -2.961673
    18 4.972047 0.000000 0.000000 1.206577 -0.707608 -1.103073
    19 11.585358 0.000000 0.000001 0.000000 0.000000 -1.088774
    20 10.127058 0.000000 0.000001 1.537355 -0.015225 -0.019056
    21 1.537458 0.109715 1.664489 -0.264662 -0.055995 0.783079
    22 0.928313 0.000000 0.000002 0.000000 0.000000 -0.453501
    23 0.928311 0.000000 0.000001 0.000000 0.000000 0.000000
    24 2.686395 -0.427337 0.044204 -0.005762 0.043239 -0.157074
    25 1.435260 0.000000 0.000001 0.000000 0.000000 0.732613
    26 1.482593 0.000000 -0.000001 0.000000 0.000000 1.168644
    27 2.046984 0.000001 0.000000 -0.357071 -0.083141 -0.719369
    28 -0.000005 0.000007 3.713254 -3.289109 -0.165283 1.249519
    29 18.045723 0.000000 0.000000 0.000000 0.000000 -1.732783
    30 17.597597 0.000000 0.000000 -0.251531 0.197284 -0.164600
    31 0.000005 -0.000003 -3.713254 0.822947 2.311923 5.494226
    32 18.045721 0.000000 0.000000 0.000000 0.000000 -2.673768
    33 17.597597 0.000000 0.000000 0.379599 0.033203 0.755878
  time 20
    0 -0.667024 0.757987 -20.600716 0.000000 0.000000 -1.585458
    1 -1.867248 -0.019532 0.000000 -1.570795 -1.570787 0.000000
    2 1.293670 0.684478 -0.000001 0.000215 -0.024653 0.296361
    3 5.309685 -0.003834 0.000000 0.096606 0.018624 0.250287
    4 4.826790 -0.004591 0.000000 0.186509 0.047267 0.236787
    5 5.792767 -0.005304 0.000000 0.098465 0.048861 0.289997
    6 6.662322 -0.001452 0.000000 0.000000 -0.000001 0.471000
    7 -3.108188 1.516823 4.339626 -0.257753 -1.364193 -3.360853
    8 4.827512 0.000000 -0.000002 0.244010 1.057046 -0.600082
    9 11.140032 0.000000 0.000000 0.000000 0.000000 -0.944185
    10 10.314563 -0.000001 0.000001 -1.642256 0.083181 -0.332921
    11 1.646836 0.445664 -1.699647 0.400567 0.460373 0.766655
    12 0.928312 0.000000 0.000000 0.000000 0.000000 -0.636658
    13 0.928313 0.000000 -0.000001 0.000000 0.000000 0.000000
    14 2.979373 -0.388274 -0.044205 -0.023121 -0.037007 0.541151
    15 1.435262 -0.000001 -0.000001 0.000000 0.000000 1.700791
    16 1.482593 -0.000001 0.000001 0.000000 0.000000 1.229725
    17 -2.869899 1.399667 -4.140396 0.672666 1.317189 -2.956405
    18 4.972047 0.000000 0.000000 1.207796 -0.711465 -1.102806
    19 11.585358 0.000000 0.000001 0.000000 0.000000 -1.088856
    20 10.127058 0.000000 0.000001 1.537144 -0.014847 -0.019606
    21 1.537458 0.109715 1.664489 -0.264662 -0.055995 0.783079
    22 0.928313 0.000000 0.000002 0.000000 0.000000 -0.453501
    23 0.928311 0.000000 0.000001 0.000000 0.000000 0.000000
    24 2.686395 -0.427337 0.044204 -0.005762 0.043239 -0.157074
    25 1.435260 0.000000 0.000001 0.000000 0.000000 0.732613
    26 1.482593 0.000000 -0.000001 0.000000 0.000000 1.168644
    27 2.046984 0.000001 0.000000 -0.357459 -0.082610 -0.717118
    28 -0.000005 0.000007 3.713254 -3.289300 -0.165475 1.249615
    29 18.045723 0.000000 0.000000 0.000000 0.000000 -1.732931
    30 17.597597 0.000000 0.000000 -0.251405 0.197505 -0.164508
    31 0.000005 -0.000003 -3.713254 0.821892 2.312307 5.493555
    32 18.045721 0.000000 0.000000 0.000000 0.000000 -2.673768
    33 17.597597 0.000000 0.000000 0.379969 0.033854 0.755924
end
