version 1
nodes
  0 "Bip01" -1
  1 "Bip01 Pelvis" 0
  2 "Bip01 Spine" 1
  3 "Bip01 Spine1" 2
  4 "Bip01 Spine2" 3
  5 "Bip01 Spine3" 4
  6 "Bip01 Neck" 5
  7 "Bip01 L Arm" 6
  8 "Bip01 L Arm1" 7
  9 "Bip01 L Arm2" 8
  10 "Bip01 L Hand" 9
  11 "Bip01 L Finger0" 10
  12 "Bip01 L Finger01" 11
  13 "Bip01 L Finger02" 12
  14 "Bip01 L Finger1" 10
  15 "Bip01 L Finger11" 14
  16 "Bip01 L Finger12" 15
  17 "Bip01 R Arm" 6
  18 "Bip01 R Arm1" 17
  19 "Bip01 R Arm2" 18
  20 "Bip01 R Hand" 19
  21 "Bip01 R Finger0" 20
  22 "Bip01 R Finger01" 21
  23 "Bip01 R Finger02" 22
  24 "Bip01 R Finger1" 20
  25 "Bip01 R Finger11" 24
  26 "Bip01 R Finger12" 25
  27 "Bip01 Head" 6
  28 "Bip01 L Leg" 1
  29 "Bip01 L Leg1" 28
  30 "Bip01 L Foot" 29
  31 "Bip01 R Leg" 1
  32 "Bip01 R Leg1" 31
  33 "Bip01 R Foot" 32
end
skeleton
  time 0
    0 0.075186 0.250159 -20.600716 0.000000 0.000000 -1.585458
    1 -2.269605 0.335948 0.000000 -1.570795 -1.570787 0.000000
    2 1.293670 0.684478 -0.000001 -0.003929 -0.031281 0.152857
    3 5.309685 -0.003834 0.000000 -0.156693 0.048022 -0.003645
    4 4.826790 -0.004591 0.000000 -0.106206 0.052828 0.108157
    5 5.792767 -0.005304 0.000000 -0.109689 0.094295 0.109029
    6 6.662322 -0.001452 0.000000 0.000000 -0.000001 0.296580
    7 -3.319131 0.962119 4.339626 0.438716 -1.383649 -3.870990
    8 4.827512 0.000000 -0.000002 -0.567270 0.717913 -0.573220
    9 11.140032 0.000000 0.000000 0.000000 0.000000 -1.821885
    10 10.314563 -0.000001 0.000001 -1.258886 0.224345 0.070619
    11 1.646836 0.445664 -1.699647 0.441755 0.155162 1.184501
    12 0.928312 0.000000 0.000000 0.000000 0.000000 0.000000
    13 0.928313 0.000000 -0.000001 0.000000 0.000000 0.000000
    14 2.979373 -0.388274 -0.044205 -0.021491 -0.037954 0.497507
    15 1.435262 -0.000001 -0.000001 0.000000 0.000000 0.889615
    16 1.482593 -0.000001 0.000001 0.000000 0.000000 1.116358
    17 -3.065217 0.884026 -4.140396 0.000026 1.370769 -3.439042
    18 4.972047 0.000000 0.000000 -0.808122 -0.857701 0.566868
    19 11.585358 0.000000 0.000001 0.000000 0.000000 -0.728730
    20 10.127058 0.000000 0.000001 1.569752 0.000000 -0.069778
    21 1.537458 0.109715 1.664489 -0.264662 -0.055995 0.783079
    22 0.928313 0.000000 0.000002 0.000000 0.000000 -0.453501
    23 0.928311 0.000000 0.000001 0.000000 0.000000 0.000000
    24 2.686395 -0.427337 0.044204 -0.005762 0.043239 -0.157074
    25 1.435260 0.000000 0.000001 0.000000 0.000000 0.732613
    26 1.482593 0.000000 -0.000001 0.000000 0.000000 1.168644
    27 2.046984 0.000001 0.000000 -0.352849 0.181476 -0.110473
    28 -0.000005 0.000007 3.713254 -3.293327 -0.162119 1.249327
    29 18.045723 0.000000 0.000000 0.000000 0.000000 -1.739814
    30 17.597597 0.000000 0.000000 -0.256093 0.200188 -0.158227
    31 0.000005 -0.000003 -3.713254 0.801286 2.302337 5.490775
    32 18.045721 0.000000 0.000000 0.000000 0.000000 -2.676051
    33 17.597597 0.000000 0.000000 0.368460 0.049238 0.749181
  time 1
    0 -0.104507 0.250159 -20.600716 0.000000 0.000000 -1.585458
    1 -2.269605 0.335948 0.000000 -1.570795 -1.570787 0.000000
    2 1.293670 0.684478 -0.000001 0.000266 -0.007372 0.144587
    3 5.309685 -0.003834 0.000000 -0.174493 0.021488 -0.010269
    4 4.826790 -0.004591 0.000000 -0.116411 0.002876 0.097287
    5 5.792767 -0.005304 0.000000 -0.108682 -0.001522 0.088204
    6 6.662322 -0.001452 0.000000 0.000000 -0.000001 0.296580
    7 -3.319131 0.962119 4.339626 0.600612 -1.373359 -4.030336
    8 4.827512 0.000000 -0.000002 -0.292565 0.557342 -0.447404
    9 11.140032 0.000000 0.000000 0.000000 0.000000 -1.973167
    10 10.314563 -0.000001 0.000001 -1.415646 0.133951 -0.055204
    11 1.646836 0.445664 -1.699647 0.441755 0.155162 1.184501
    12 0.928312 0.000000 0.000000 0.000000 0.000000 0.000000
    13 0.928313 0.000000 -0.000001 0.000000 0.000000 0.000000
    14 2.979373 -0.388274 -0.044205 -0.021491 -0.037954 0.497507
    15 1.435262 -0.000001 -0.000001 0.000000 0.000000 0.889615
    16 1.482593 -0.000001 0.000001 0.000000 0.000000 1.116358
    17 -3.065217 0.884026 -4.140396 0.000026 1.398611 -3.439042
    18 4.972047 0.000000 0.000000 -0.790675 -1.068940 0.529197
    19 11.585358 0.000000 0.000001 0.000000 0.000000 -0.896418
    20 10.127058 0.000000 0.000001 1.569542 0.000189 -0.072529
    21 1.537458 0.109715 1.664489 -0.264662 -0.055995 0.783079
    22 0.928313 0.000000 0.000002 0.000000 0.000000 -0.453501
    23 0.928311 0.000000 0.000001 0.000000 0.000000 0.000000
    24 2.686395 -0.427337 0.044204 -0.005762 0.043239 -0.157074
    25 1.435260 0.000000 0.000001 0.000000 0.000000 0.732613
    26 1.482593 0.000000 -0.000001 0.000000 0.000000 1.168644
    27 2.046984 0.000001 0.000000 -0.301365 0.231632 -0.050070
    28 -0.000005 0.000007 3.713254 -3.287575 -0.167009 1.248368
    29 18.045723 0.000000 0.000000 0.000000 0.000000 -1.739962
    30 17.597597 0.000000 0.000000 -0.249656 0.196521 -0.158456
    31 0.000005 -0.000003 -3.713254 0.822467 2.317963 5.506785
    32 18.045721 0.000000 0.000000 0.000000 0.000000 -2.673453
    33 17.597597 0.000000 0.000000 0.374298 0.041645 0.765670
  time 2
    0 -0.213885 0.238440 -20.600716 0.000000 0.000000 -1.585458
    1 -2.269605 0.335948 0.000000 -1.570795 -1.570787 0.000000
    2 1.293670 0.684478 -0.000001 0.003837 0.014692 0.136702
    3 5.309685 -0.003834 0.000000 -0.190455 -0.003056 -0.015763
    4 4.826790 -0.004591 0.000000 -0.123373 -0.033077 0.085072
    5 5.792767 -0.005304 0.000000 -0.103627 -0.073070 0.064991
    6 6.662322 -0.001452 0.000000 0.000000 -0.000001 0.296580
    7 -3.319131 0.962119 4.339626 0.743241 -1.358575 -4.170805
    8 4.827512 0.000000 -0.000002 -0.074938 0.433525 -0.400006
    9 11.140032 0.000000 0.000000 0.000000 0.000000 -2.124450
    10 10.314563 -0.000001 0.000001 -1.554967 0.023605 -0.166163
    11 1.646836 0.445664 -1.699647 0.441755 0.155162 1.184501
    12 0.928312 0.000000 0.000000 0.000000 0.000000 0.000000
    13 0.928313 0.000000 -0.000001 0.000000 0.000000 0.000000
    14 2.979373 -0.388274 -0.044205 -0.021491 -0.037954 0.497507
    15 1.435262 -0.000001 -0.000001 0.000000 0.000000 0.889615
    16 1.482593 -0.000001 0.000001 0.000000 0.000000 1.116358
    17 -3.065217 0.884026 -4.140396 0.000026 1.456791 -3.439042
    18 4.972047 0.000000 0.000000 -0.202183 -1.296811 0.019982
    19 11.585358 0.000000 0.000001 0.000000 0.000000 -1.229672
    20 10.127058 0.000000 0.000001 1.568910 0.000567 -0.078432
    21 1.537458 0.109715 1.664489 -0.264662 -0.055995 0.783079
    22 0.928313 0.000000 0.000002 0.000000 0.000000 -0.453501
    23 0.928311 0.000000 0.000001 0.000000 0.000000 0.000000
    24 2.686395 -0.427337 0.044204 -0.005762 0.043239 -0.157074
    25 1.435260 0.000000 0.000001 0.000000 0.000000 0.732613
    26 1.482593 0.000000 -0.000001 0.000000 0.000000 1.168644
    27 2.046984 0.000001 0.000000 -0.254620 0.245882 0.000417
    28 -0.000005 0.000007 3.713254 -3.283931 -0.170269 1.247602
    29 18.045723 0.000000 0.000000 0.000000 0.000000 -1.740850
    30 17.597597 0.000000 0.000000 -0.245501 0.194158 -0.157998
    31 0.000005 -0.000003 -3.713254 0.834639 2.328125 5.517810
    32 18.045721 0.000000 0.000000 0.000000 0.000000 -2.671564
    33 17.597597 0.000000 0.000000 0.376982 0.037937 0.776663
  time 3
    0 -0.170915 0.175938 -20.600716 0.000000 0.000000 -1.585458
    1 -2.269605 0.335948 0.000000 -1.570795 -1.570787 0.000000
    2 1.293670 0.684478 -0.000001 0.007172 0.036995 0.128867
    3 5.309685 -0.003834 0.000000 -0.206468 -0.027900 -0.020920
    4 4.826790 -0.004591 0.000000 -0.128103 -0.037739 0.069087
    5 5.792767 -0.005304 0.000000 -0.094993 -0.092988 0.036006
    6 6.662322 -0.001452 0.000000 0.000000 -0.000001 0.296580
    7 -3.319131 0.962119 4.339626 0.865358 -1.340123 -4.290961
    8 4.827512 0.000000 -0.000002 0.022078 0.383384 -0.434319
    9 11.140032 0.000000 0.000000 0.000000 0.000000 -2.301671
    10 10.314563 -0.000001 0.000001 -1.617330 -0.094890 -0.275322
    11 1.646836 0.445664 -1.699647 0.441755 0.155162 1.184501
    12 0.928312 0.000000 0.000000 0.000000 0.000000 0.000000
    13 0.928313 0.000000 -0.000001 0.000000 0.000000 0.000000
    14 2.979373 -0.388274 -0.044205 -0.021491 -0.037954 0.497507
    15 1.435262 -0.000001 -0.000001 0.000000 0.000000 0.889615
    16 1.482593 -0.000001 0.000001 0.000000 0.000000 1.116358
    17 -3.065217 0.884026 -4.140396 0.000026 1.510555 -3.439042
    18 4.972047 0.000000 0.000000 0.657293 -1.284919 -0.762709
    19 11.585358 0.000000 0.000001 0.000000 0.000000 -1.555248
    20 10.127058 0.000000 0.000001 1.568139 0.000851 -0.084334
    21 1.537458 0.109715 1.664489 -0.264662 -0.055995 0.783079
    22 0.928313 0.000000 0.000002 0.000000 0.000000 -0.453501
    23 0.928311 0.000000 0.000001 0.000000 0.000000 0.000000
    24 2.686395 -0.427337 0.044204 -0.005762 0.043239 -0.157074
    25 1.435260 0.000000 0.000001 0.000000 0.000000 0.732613
    26 1.482593 0.000000 -0.000001 0.000000 0.000000 1.168644
    27 2.046984 0.000001 0.000000 -0.018698 0.219034 -0.113636
    28 -0.000005 0.000007 3.713254 -3.285082 -0.169310 1.247218
    29 18.045723 0.000000 0.000000 0.000000 0.000000 -1.744847
    30 17.597597 0.000000 0.000000 -0.246818 0.194946 -0.154376
    31 0.000005 -0.000003 -3.713254 0.827355 2.325728 5.519536
    32 18.045721 0.000000 0.000000 0.000000 0.000000 -2.672430
    33 17.597597 0.000000 0.000000 0.371883 0.045373 0.776247
  time 4
    0 -0.073256 0.101717 -20.600716 0.000000 0.000000 -1.585458
    1 -2.269605 0.335948 0.000000 -1.570795 -1.570787 0.000000
    2 1.293670 0.684478 -0.000001 0.009985 0.057717 0.121384
    3 5.309685 -0.003834 0.000000 -0.220915 -0.051006 -0.025177
    4 4.826790 -0.004591 0.000000 -0.131499 -0.029926 0.051515
    5 5.792767 -0.005304 0.000000 -0.086071 -0.091047 0.005152
    6 6.662322 -0.001452 0.000000 0.000000 -0.000001 0.296580
    7 -3.319131 0.962119 4.339626 0.968112 -1.318804 -4.391954
    8 4.827512 0.000000 -0.000002 -0.208782 0.260334 -0.577812
    9 11.140032 0.000000 0.000000 0.000000 0.000000 -2.617785
    10 10.314563 -0.000001 0.000001 -1.341152 -0.146222 -0.452299
    11 1.646836 0.445664 -1.699647 0.441755 0.155162 1.184501
    12 0.928312 0.000000 0.000000 0.000000 0.000000 0.000000
    13 0.928313 0.000000 -0.000001 0.000000 0.000000 0.000000
    14 2.979373 -0.388274 -0.044205 -0.021491 -0.037954 0.497507
    15 1.435262 -0.000001 -0.000001 0.000000 0.000000 0.889615
    16 1.482593 -0.000001 0.000001 0.000000 0.000000 1.116358
    17 -3.065217 0.884026 -4.140396 -0.000069 1.546337 -3.439138
    18 4.972047 0.000000 0.000000 0.955760 -1.281625 -1.065935
    19 11.585358 0.000000 0.000001 0.000000 0.000000 -1.803473
    20 10.127058 0.000000 0.000001 1.567648 0.001229 -0.088736
    21 1.537458 0.109715 1.664489 -0.264662 -0.055995 0.783079
    22 0.928313 0.000000 0.000002 0.000000 0.000000 -0.453501
    23 0.928311 0.000000 0.000001 0.000000 0.000000 0.000000
    24 2.686395 -0.427337 0.044204 -0.005762 0.043239 -0.157074
    25 1.435260 0.000000 0.000001 0.000000 0.000000 0.732613
    26 1.482593 0.000000 -0.000001 0.000000 0.000000 1.168644
    27 2.046984 0.000001 0.000000 0.211580 0.218975 -0.233226
    28 -0.000005 0.000007 3.713254 -3.287958 -0.166817 1.247122
    29 18.045723 0.000000 0.000000 0.000000 0.000000 -1.749806
    30 17.597597 0.000000 0.000000 -0.250163 0.196816 -0.149975
    31 0.000005 -0.000003 -3.713254 0.812979 2.318730 5.517714
    32 18.045721 0.000000 0.000000 0.000000 0.000000 -2.674083
    33 17.597597 0.000000 0.000000 0.363964 0.056516 0.771397
  time 5
    0 -0.010754 0.058747 -20.600716 0.000000 0.000000 -1.585458
    1 -2.269605 0.335948 0.000000 -1.570795 -1.570787 0.000000
    2 1.293670 0.684478 -0.000001 0.010642 0.065507 0.116077
    3 5.309685 -0.003834 0.000000 -0.224183 -0.059779 -0.025389
    4 4.826790 -0.004591 0.000000 -0.127092 -0.021045 0.033678
    5 5.792767 -0.005304 0.000000 -0.080153 -0.080237 -0.024144
    6 6.662322 -0.001452 0.000000 0.000000 -0.000001 0.296580
    7 -3.319131 0.962119 4.339626 1.052367 -1.295385 -4.474549
    8 4.827512 0.000000 -0.000002 -0.339518 0.110679 -0.631276
    9 11.140032 0.000000 0.000000 0.000000 0.000000 -2.583515
    10 10.314563 -0.000001 0.000001 -1.063552 -0.222659 -0.491840
    11 1.646836 0.445664 -1.699647 0.441755 0.155162 1.184501
    12 0.928312 0.000000 0.000000 0.000000 0.000000 0.000000
    13 0.928313 0.000000 -0.000001 0.000000 0.000000 0.000000
    14 2.979373 -0.388274 -0.044205 -0.021491 -0.037954 0.497507
    15 1.435262 -0.000001 -0.000001 0.000000 0.000000 0.889615
    16 1.482593 -0.000001 0.000001 0.000000 0.000000 1.116358
    17 -3.065217 0.884026 -4.140396 -0.000547 1.566607 -3.439712
    18 4.972047 0.000000 0.000000 1.165775 -1.296088 -1.316050
    19 11.585358 0.000000 0.000001 0.000000 0.000000 -2.010205
    20 10.127058 0.000000 0.000001 1.567087 0.001513 -0.092988
    21 1.537458 0.109715 1.664489 -0.264662 -0.055995 0.783079
    22 0.928313 0.000000 0.000002 0.000000 0.000000 -0.453501
    23 0.928311 0.000000 0.000001 0.000000 0.000000 0.000000
    24 2.686395 -0.427337 0.044204 -0.005762 0.043239 -0.157074
    25 1.435260 0.000000 0.000001 0.000000 0.000000 0.732613
    26 1.482593 0.000000 -0.000001 0.000000 0.000000 1.168644
    27 2.046984 0.000001 0.000000 0.291973 0.212189 -0.409386
    28 -0.000005 0.000007 3.713254 -3.289780 -0.165091 1.247122
    29 18.045723 0.000000 0.000000 0.000000 0.000000 -1.752174
    30 17.597597 0.000000 0.000000 -0.252418 0.198120 -0.147774
    31 0.000005 -0.000003 -3.713254 0.803874 2.313841 5.515222
    32 18.045721 0.000000 0.000000 0.000000 0.000000 -2.674949
    33 17.597597 0.000000 0.000000 0.359469 0.062611 0.767471
  time 6
    0 -0.022473 0.101717 -20.600716 0.000000 0.000000 -1.585458
    1 -2.269605 0.335948 0.000000 -1.570795 -1.570787 0.000000
    2 1.293670 0.684478 -0.000001 0.007930 0.050334 0.114654
    3 5.309685 -0.003834 0.000000 -0.207336 -0.043168 -0.018500
    4 4.826790 -0.004591 0.000000 -0.108056 -0.013171 0.015819
    5 5.792767 -0.005304 0.000000 -0.079434 -0.060462 -0.054707
    6 6.662322 -0.001452 0.000000 0.000000 -0.000001 0.296580
    7 -3.319131 0.962119 4.339626 1.127708 -1.269985 -4.548617
    8 4.827512 0.000000 -0.000002 -0.277977 0.044080 -0.755359
    9 11.140032 0.000000 0.000000 0.000000 0.000000 -2.528233
    10 10.314563 -0.000001 0.000001 -1.007823 -0.445130 -0.099506
    11 1.646836 0.445664 -1.699647 0.441755 0.155162 1.184501
    12 0.928312 0.000000 0.000000 0.000000 0.000000 0.000000
    13 0.928313 0.000000 -0.000001 0.000000 0.000000 0.000000
    14 2.979373 -0.388274 -0.044205 -0.021491 -0.037954 0.497507
    15 1.435262 -0.000001 -0.000001 0.000000 0.000000 0.889615
    16 1.482593 -0.000001 0.000001 0.000000 0.000000 1.116358
    17 -3.065217 0.884026 -4.140396 0.000026 1.534821 -3.439138
    18 4.972047 0.000000 0.000000 1.139980 -1.250690 -1.405966
    19 11.585358 0.000000 0.000001 0.000000 0.000000 -2.074405
    20 10.127058 0.000000 0.000001 1.566667 0.001891 -0.097190
    21 1.537458 0.109715 1.664489 -0.264662 -0.055995 0.783079
    22 0.928313 0.000000 0.000002 0.000000 0.000000 -0.453501
    23 0.928311 0.000000 0.000001 0.000000 0.000000 0.000000
    24 2.686395 -0.427337 0.044204 -0.005762 0.043239 -0.157074
    25 1.435260 0.000000 0.000001 0.000000 0.000000 0.732613
    26 1.482593 0.000000 -0.000001 0.000000 0.000000 1.168644
    27 2.046984 0.000001 0.000000 0.353065 0.217175 -0.593088
    28 -0.000005 0.000007 3.713254 -3.289492 -0.165379 1.247410
    29 18.045723 0.000000 0.000000 0.000000 0.000000 -1.749732
    30 17.597597 0.000000 0.000000 -0.252038 0.197899 -0.149929
    31 0.000005 -0.000003 -3.713254 0.807037 2.314128 5.513113
    32 18.045721 0.000000 0.000000 0.000000 0.000000 -2.674870
    33 17.597597 0.000000 0.000000 0.362253 0.058607 0.766640
  time 7
    0 -0.065443 0.187657 -20.600716 0.000000 0.000000 -1.585458
    1 -2.269605 0.335948 0.000000 -1.570795 -1.570787 0.000000
    2 1.293670 0.684478 -0.000001 0.003415 0.022242 0.115558
    3 5.309685 -0.003834 0.000000 -0.179071 -0.012512 -0.007001
    4 4.826790 -0.004591 0.000000 -0.081371 -0.003260 -0.002084
    5 5.792767 -0.005304 0.000000 -0.082834 -0.032382 -0.083754
    6 6.662322 -0.001452 0.000000 0.000000 -0.000001 0.296580
    7 -3.319131 0.962119 4.339626 1.175634 -1.244733 -4.594993
    8 4.827512 0.000000 -0.000002 -0.236683 0.015257 -0.915402
    9 11.140032 0.000000 0.000000 0.000000 0.000000 -2.429334
    10 10.314563 -0.000001 0.000001 -1.067248 -0.632569 0.369819
    11 1.646836 0.445664 -1.699647 0.441755 0.155162 1.184501
    12 0.928312 0.000000 0.000000 0.000000 0.000000 0.000000
    13 0.928313 0.000000 -0.000001 0.000000 0.000000 0.000000
    14 2.979373 -0.388274 -0.044205 -0.021491 -0.037954 0.497507
    15 1.435262 -0.000001 -0.000001 0.000000 0.000000 0.889615
    16 1.482593 -0.000001 0.000001 0.000000 0.000000 1.116358
    17 -3.065217 0.884026 -4.140396 0.000026 1.484843 -3.439042
    18 4.972047 0.000000 0.000000 1.060814 -1.195972 -1.417014
    19 11.585358 0.000000 0.000001 0.000000 0.000000 -1.959808
    20 10.127058 0.000000 0.000001 1.566176 0.002080 -0.100841
    21 1.537458 0.109715 1.664489 -0.264662 -0.055995 0.783079
    22 0.928313 0.000000 0.000002 0.000000 0.000000 -0.453501
    23 0.928311 0.000000 0.000001 0.000000 0.000000 0.000000
    24 2.686395 -0.427337 0.044204 -0.005762 0.043239 -0.157074
    25 1.435260 0.000000 0.000001 0.000000 0.000000 0.732613
    26 1.482593 0.000000 -0.000001 0.000000 0.000000 1.168644
    27 2.046984 0.000001 0.000000 0.315755 0.163774 -0.588952
    28 -0.000005 0.000007 3.713254 -3.288533 -0.166242 1.247889
    29 18.045723 0.000000 0.000000 0.000000 0.000000 -1.744181
    30 17.597597 0.000000 0.000000 -0.250721 0.197161 -0.154697
    31 0.000005 -0.000003 -3.713254 0.815567 2.316237 5.509469
    32 18.045721 0.000000 0.000000 0.000000 0.000000 -2.674083
    33 17.597597 0.000000 0.000000 0.368997 0.049140 0.766040
  time 8
    0 -0.096694 0.273597 -20.600716 0.000000 0.000000 -1.585458
    1 -2.269605 0.335948 0.000000 -1.570795 -1.570787 0.000000
    2 1.293670 0.684478 -0.000001 -0.000004 -0.000001 0.115307
    3 5.309685 -0.003834 0.000000 -0.156540 0.011553 0.002608
    4 4.826790 -0.004591 0.000000 -0.060828 0.004710 -0.019459
    5 5.792767 -0.005304 0.000000 -0.086629 -0.010043 -0.098807
    6 6.662322 -0.001452 0.000000 0.000000 -0.000001 0.296580
    7 -3.319131 0.962119 4.339626 1.141990 -1.226755 -4.557624
    8 4.827512 0.000000 -0.000002 -0.368456 0.016110 -1.022416
    9 11.140032 0.000000 0.000000 0.000000 0.000000 -2.133724
    10 10.314563 -0.000001 0.000001 -0.822915 -0.621328 0.454766
    11 1.646836 0.445664 -1.699647 0.441755 0.155162 1.184501
    12 0.928312 0.000000 0.000000 0.000000 0.000000 0.000000
    13 0.928313 0.000000 -0.000001 0.000000 0.000000 0.000000
    14 2.979373 -0.388274 -0.044205 -0.021491 -0.037954 0.497507
    15 1.435262 -0.000001 -0.000001 0.000000 0.000000 0.889615
    16 1.482593 -0.000001 0.000001 0.000000 0.000000 1.116358
    17 -3.065217 0.884026 -4.140396 0.000026 1.445487 -3.439042
    18 4.972047 0.000000 0.000000 0.967203 -1.169216 -1.323504
    19 11.585358 0.000000 0.000001 0.000000 0.000000 -1.850602
    20 10.127058 0.000000 0.000001 1.567228 0.001418 -0.092038
    21 1.537458 0.109715 1.664489 -0.264662 -0.055995 0.783079
    22 0.928313 0.000000 0.000002 0.000000 0.000000 -0.453501
    23 0.928311 0.000000 0.000001 0.000000 0.000000 0.000000
    24 2.686395 -0.427337 0.044204 -0.005762 0.043239 -0.157074
    25 1.435260 0.000000 0.000001 0.000000 0.000000 0.732613
    26 1.482593 0.000000 -0.000001 0.000000 0.000000 1.168644
    27 2.046984 0.000001 0.000000 0.288268 0.120286 -0.594001
    28 -0.000005 0.000007 3.713254 -3.287958 -0.166817 1.248560
    29 18.045723 0.000000 0.000000 0.000000 0.000000 -1.738778
    30 17.597597 0.000000 0.000000 -0.249884 0.196668 -0.159511
    31 0.000005 -0.000003 -3.713254 0.822467 2.317100 5.504772
    32 18.045721 0.000000 0.000000 0.000000 0.000000 -2.673532
    33 17.597597 0.000000 0.000000 0.375238 0.040304 0.764100
  time 9
    0 -0.084975 0.324380 -20.600716 0.000000 0.000000 -1.585458
    1 -2.269605 0.335948 0.000000 -1.570795 -1.570787 0.000000
    2 1.293670 0.684478 -0.000001 -0.000476 -0.003273 0.111339
    3 5.309685 -0.003834 0.000000 -0.153102 0.015101 0.004215
    4 4.826790 -0.004591 0.000000 -0.057719 0.005345 -0.036083
    5 5.792767 -0.005304 0.000000 -0.087348 -0.004506 -0.078958
    6 6.662322 -0.001452 0.000000 0.000000 -0.000001 0.296580
    7 -3.319131 0.962119 4.339626 1.087737 -1.210256 -4.498887
    8 4.827512 0.000000 -0.000002 -0.534825 -0.027806 -1.084544
    9 11.140032 0.000000 0.000000 0.000000 0.000000 -1.878543
    10 10.314563 -0.000001 0.000001 -0.497832 -0.582267 0.424341
    11 1.646836 0.445664 -1.699647 0.441755 0.155162 1.184501
    12 0.928312 0.000000 0.000000 0.000000 0.000000 0.000000
    13 0.928313 0.000000 -0.000001 0.000000 0.000000 0.000000
    14 2.979373 -0.388274 -0.044205 -0.021491 -0.037954 0.497507
    15 1.435262 -0.000001 -0.000001 0.000000 0.000000 0.889615
    16 1.482593 -0.000001 0.000001 0.000000 0.000000 1.116358
    17 -3.065217 0.884026 -4.140396 0.000026 1.407970 -3.439042
    18 4.972047 0.000000 0.000000 0.968141 -1.101803 -1.332955
    19 11.585358 0.000000 0.000001 0.000000 0.000000 -1.849214
    20 10.127058 0.000000 0.000001 1.568560 0.000757 -0.081083
    21 1.537458 0.109715 1.664489 -0.264662 -0.055995 0.783079
    22 0.928313 0.000000 0.000002 0.000000 0.000000 -0.453501
    23 0.928311 0.000000 0.000001 0.000000 0.000000 0.000000
    24 2.686395 -0.427337 0.044204 -0.005762 0.043239 -0.157074
    25 1.435260 0.000000 0.000001 0.000000 0.000000 0.732613
    26 1.482593 0.000000 -0.000001 0.000000 0.000000 1.168644
    27 2.046984 0.000001 0.000000 0.281676 0.111730 -0.617785
    28 -0.000005 0.000007 3.713254 -3.288533 -0.166338 1.249039
    29 18.045723 0.000000 0.000000 0.000000 0.000000 -1.735521
    30 17.597597 0.000000 0.000000 -0.250442 0.196964 -0.162308
    31 0.000005 -0.000003 -3.713254 0.823330 2.315087 5.499403
    32 18.045721 0.000000 0.000000 0.000000 0.000000 -2.673532
    33 17.597597 0.000000 0.000000 0.378090 0.036280 0.760358
  time 10
    0 -0.065443 0.363443 -20.600716 0.000000 0.000000 -1.585458
    1 -2.269605 0.335948 0.000000 -1.570795 -1.570787 0.000000
    2 1.293670 0.684478 -0.000001 -0.000004 -0.000001 0.106015
    3 5.309685 -0.003834 0.000000 -0.156540 0.011565 0.002767
    4 4.826790 -0.004591 0.000000 -0.060981 0.002709 -0.052421
    5 5.792767 -0.005304 0.000000 -0.087061 -0.005213 -0.043329
    6 6.662322 -0.001452 0.000000 0.000000 -0.000001 0.296580
    7 -3.319131 0.962119 4.339626 1.034634 -1.193017 -4.440821
    8 4.827512 0.000000 -0.000002 -0.703267 -0.095428 -1.114872
    9 11.140032 0.000000 0.000000 0.000000 0.000000 -1.630825
    10 10.314563 -0.000001 0.000001 -0.172465 -0.528686 0.398503
    11 1.646836 0.445664 -1.699647 0.441755 0.155162 1.184501
    12 0.928312 0.000000 0.000000 0.000000 0.000000 0.000000
    13 0.928313 0.000000 -0.000001 0.000000 0.000000 0.000000
    14 2.979373 -0.388274 -0.044205 -0.021491 -0.037954 0.497507
    15 1.435262 -0.000001 -0.000001 0.000000 0.000000 0.889615
    16 1.482593 -0.000001 0.000001 0.000000 0.000000 1.116358
    17 -3.065217 0.884026 -4.140396 0.000026 1.370769 -3.439042
    18 4.972047 0.000000 0.000000 0.991778 -1.023462 -1.374153
    19 11.585358 0.000000 0.000001 0.000000 0.000000 -1.867102
    20 10.127058 0.000000 0.000001 1.569752 0.000000 -0.069778
    21 1.537458 0.109715 1.664489 -0.264662 -0.055995 0.783079
    22 0.928313 0.000000 0.000002 0.000000 0.000000 -0.453501
    23 0.928311 0.000000 0.000001 0.000000 0.000000 0.000000
    24 2.686395 -0.427337 0.044204 -0.005762 0.043239 -0.157074
    25 1.435260 0.000000 0.000001 0.000000 0.000000 0.732613
    26 1.482593 0.000000 -0.000001 0.000000 0.000000 1.168644
    27 2.046984 0.000001 0.000000 0.282452 0.117188 -0.651484
    28 -0.000005 0.000007 3.713254 -3.289300 -0.165475 1.249615
    29 18.045723 0.000000 0.000000 0.000000 0.000000 -1.732931
    30 17.597597 0.000000 0.000000 -0.251405 0.197530 -0.164508
    31 0.000005 -0.000003 -3.713254 0.822084 2.312211 5.493747
    32 18.045721 0.000000 0.000000 0.000000 0.000000 -2.673768
    33 17.597597 0.000000 0.000000 0.379868 0.033736 0.755924
end
