version 1
nodes
  0 "Bip01" -1
  1 "Bip01 Pelvis" 0
  2 "Bip01 Spine" 1
  3 "Bip01 Spine1" 2
  4 "Bip01 Spine2" 3
  5 "Bip01 Spine3" 4
  6 "Bip01 Neck" 5
  7 "Bip01 L Arm" 6
  8 "Bip01 L Arm1" 7
  9 "Bip01 L Arm2" 8
  10 "Bip01 L Hand" 9
  11 "Bip01 L Finger0" 10
  12 "Bip01 L Finger01" 11
  13 "Bip01 L Finger02" 12
  14 "Bip01 L Finger1" 10
  15 "Bip01 L Finger11" 14
  16 "Bip01 L Finger12" 15
  17 "Bip01 R Arm" 6
  18 "Bip01 R Arm1" 17
  19 "Bip01 R Arm2" 18
  20 "Bip01 R Hand" 19
  21 "Bip01 R Finger0" 20
  22 "Bip01 R Finger01" 21
  23 "Bip01 R Finger02" 22
  24 "Bip01 R Finger1" 20
  25 "Bip01 R Finger11" 24
  26 "Bip01 R Finger12" 25
  27 "Bip01 Head" 6
  28 "Bip01 L Leg" 1
  29 "Bip01 L Leg1" 28
  30 "Bip01 L Foot" 29
  31 "Bip01 R Leg" 1
  32 "Bip01 R Leg1" 31
  33 "Bip01 R Foot" 32
end
skeleton
  time 0
    0 -1.542051 -0.800655 -20.585090 0.000000 0.000000 -1.571017
    1 -3.914186 0.093753 0.000000 -1.570795 -1.570787 0.000000
    2 1.293670 0.684478 -0.000001 -0.000004 -0.000001 0.034347
    3 5.309685 -0.003834 0.000000 0.000000 0.000000 0.109667
    4 4.826790 -0.004591 0.000000 -0.166920 0.050875 0.084323
    5 5.792767 -0.005304 0.000000 -0.143128 0.007790 0.196980
    6 6.662322 -0.001452 0.000000 0.000000 -0.000001 0.471000
    7 -3.108188 1.516823 4.339626 -0.497002 -1.183969 -3.211090
    8 4.827512 0.000000 -0.000002 0.039456 1.174041 0.008984
    9 11.140032 0.000000 0.000000 0.117328 -0.174784 -0.425636
    10 10.314563 -0.000001 0.000001 1.463469 -0.267060 -1.032526
    11 1.646836 0.445664 -1.699647 0.325979 0.616202 0.091573
    12 0.928312 0.000000 0.000000 0.000000 0.000000 0.000000
    13 0.928313 0.000000 -0.000001 0.000000 0.000000 0.000000
    14 2.979373 -0.388274 -0.044205 -0.000805 -0.043611 0.000046
    15 1.435262 -0.000001 -0.000001 0.272733 -0.008065 0.399315
    16 1.482593 -0.000001 0.000001 0.096344 -0.092317 0.394807
    17 -2.869899 1.399667 -4.140396 -1.945289 0.772320 -5.597736
    18 4.972047 0.000000 0.000000 1.385545 -0.274846 -1.774749
    19 11.585358 0.000000 0.000001 -0.437744 -0.684464 0.252490
    20 10.127058 0.000000 0.000001 1.088211 -0.180334 0.214144
    21 1.537458 0.109715 1.664489 -0.264662 -0.055995 0.783079
    22 0.928313 0.000000 0.000002 0.000000 0.000000 -0.453501
    23 0.928311 0.000000 0.000001 0.000000 0.000000 0.000000
    24 2.686395 -0.427337 0.044204 -0.005762 0.043239 -0.157074
    25 1.435260 0.000000 0.000001 0.012033 -0.011913 0.044202
    26 1.482593 0.000000 -0.000001 0.000000 0.000000 1.168644
    27 2.046984 0.000001 0.000000 0.306535 -0.047619 -0.620948
    28 -0.000005 0.000007 3.713254 -3.204068 -0.120606 1.238399
    29 18.045723 0.000000 0.000000 0.000000 0.000000 -1.756393
    30 17.597597 0.000000 0.000000 -0.210887 0.105637 -0.141218
    31 0.000005 -0.000003 -3.713254 0.848441 2.461380 5.479079
    32 18.045721 0.000000 0.000000 0.000000 0.000000 -2.603394
    33 17.597597 0.000000 0.000000 0.362388 -0.168095 0.787471
  time 1
    0 -1.542051 -0.800655 -20.585090 0.000000 0.000000 -1.571017
    1 -3.914186 0.093753 0.000000 -1.570795 -1.570787 0.000000
    2 1.293670 0.684478 -0.000001 -0.000004 -0.000001 0.034347
    3 5.309685 -0.003834 0.000000 0.000000 0.000000 0.107883
    4 4.826790 -0.004591 0.000000 -0.166920 0.050875 0.083044
    5 5.792767 -0.005304 0.000000 -0.142984 0.008221 0.194343
    6 6.662322 -0.001452 0.000000 0.000000 -0.000001 0.471000
    7 -3.108188 1.516823 4.339626 -0.484637 -1.182964 -3.222396
    8 4.827512 0.000000 -0.000002 0.267606 1.130211 0.126915
    9 11.140032 0.000000 0.000000 0.180252 -0.238097 -0.573586
    10 10.314563 -0.000001 0.000001 1.317039 -0.391737 -0.920986
    11 1.646836 0.445664 -1.699647 0.325979 0.616202 0.091573
    12 0.928312 0.000000 0.000000 0.000000 0.000000 0.000000
    13 0.928313 0.000000 -0.000001 0.000000 0.000000 0.000000
    14 2.979373 -0.388274 -0.044205 -0.000805 -0.043611 0.000046
    15 1.435262 -0.000001 -0.000001 0.272733 -0.008065 0.399315
    16 1.482593 -0.000001 0.000001 0.096344 -0.092317 0.394807
    17 -2.869899 1.399667 -4.140396 -1.949205 0.779944 -5.601376
    18 4.972047 0.000000 0.000000 1.375414 -0.280631 -1.766962
    19 11.585358 0.000000 0.000001 -0.406496 -0.693676 0.195151
    20 10.127058 0.000000 0.000001 1.101114 -0.161705 0.199438
    21 1.537458 0.109715 1.664489 -0.264662 -0.055995 0.783079
    22 0.928313 0.000000 0.000002 0.000000 0.000000 -0.453501
    23 0.928311 0.000000 0.000001 0.000000 0.000000 0.000000
    24 2.686395 -0.427337 0.044204 -0.005762 0.043239 -0.157074
    25 1.435260 0.000000 0.000001 0.012033 -0.011913 0.044202
    26 1.482593 0.000000 -0.000001 0.000000 0.000000 1.168644
    27 2.046984 0.000001 0.000000 0.306535 -0.047619 -0.620948
    28 -0.000005 0.000007 3.713254 -3.204068 -0.120606 1.238399
    29 18.045723 0.000000 0.000000 0.000000 0.000000 -1.756393
    30 17.597597 0.000000 0.000000 -0.210887 0.105637 -0.141218
    31 0.000005 -0.000003 -3.713254 0.848441 2.461380 5.479079
    32 18.045721 0.000000 0.000000 0.000000 0.000000 -2.603394
    33 17.597597 0.000000 0.000000 0.362388 -0.168095 0.787471
  time 2
    0 -1.542051 -0.800655 -20.585090 0.000000 0.000000 -1.571017
    1 -3.914186 0.093753 0.000000 -1.570795 -1.570787 0.000000
    2 1.293670 0.684478 -0.000001 -0.000004 -0.000001 0.034347
    3 5.309685 -0.003834 0.000000 0.000000 0.000000 0.102831
    4 4.826790 -0.004591 0.000000 -0.166920 0.050875 0.079340
    5 5.792767 -0.005304 0.000000 -0.142589 0.009504 0.186744
    6 6.662322 -0.001452 0.000000 0.000000 -0.000001 0.471000
    7 -3.108188 1.516823 4.339626 -0.449171 -1.180125 -3.254878
    8 4.827512 0.000000 -0.000002 0.621709 1.041100 0.244847
    9 11.140032 0.000000 0.000000 0.243145 -0.360103 -0.776093
    10 10.314563 -0.000001 0.000001 1.114882 -0.561097 -0.757016
    11 1.646836 0.445664 -1.699647 0.325979 0.616202 0.091573
    12 0.928312 0.000000 0.000000 0.000000 0.000000 0.000000
    13 0.928313 0.000000 -0.000001 0.000000 0.000000 0.000000
    14 2.979373 -0.388274 -0.044205 -0.000805 -0.043611 0.000046
    15 1.435262 -0.000001 -0.000001 0.272733 -0.008065 0.399315
    16 1.482593 -0.000001 0.000001 0.096344 -0.092317 0.394807
    17 -2.869899 1.399667 -4.140396 -1.960000 0.801765 -5.611720
    18 4.972047 0.000000 0.000000 1.346431 -0.297103 -1.744733
    19 11.585358 0.000000 0.000001 -0.329103 -0.713961 0.051068
    20 10.127058 0.000000 0.000001 1.134563 -0.135132 0.179029
    21 1.537458 0.109715 1.664489 -0.264662 -0.055995 0.783079
    22 0.928313 0.000000 0.000002 0.000000 0.000000 -0.453501
    23 0.928311 0.000000 0.000001 0.000000 0.000000 0.000000
    24 2.686395 -0.427337 0.044204 -0.005762 0.043239 -0.157074
    25 1.435260 0.000000 0.000001 0.012033 -0.011913 0.044202
    26 1.482593 0.000000 -0.000001 0.000000 0.000000 1.168644
    27 2.046984 0.000001 0.000000 0.306535 -0.047619 -0.620948
    28 -0.000005 0.000007 3.713254 -3.204068 -0.120606 1.238399
    29 18.045723 0.000000 0.000000 0.000000 0.000000 -1.756393
    30 17.597597 0.000000 0.000000 -0.210887 0.105637 -0.141218
    31 0.000005 -0.000003 -3.713254 0.848441 2.461380 5.479079
    32 18.045721 0.000000 0.000000 0.000000 0.000000 -2.603394
    33 17.597597 0.000000 0.000000 0.362388 -0.168095 0.787471
  time 3
    0 -1.542051 -0.800655 -20.585090 0.000000 0.000000 -1.571017
    1 -3.914186 0.093753 0.000000 -1.570795 -1.570787 0.000000
    2 1.293670 0.684478 -0.000001 -0.000004 -0.000001 0.034347
    3 5.309685 -0.003834 0.000000 0.000000 0.000000 0.094847
    4 4.826790 -0.004591 0.000000 -0.166920 0.050875 0.073519
    5 5.792767 -0.005304 0.000000 -0.141923 0.011481 0.174784
    6 6.662322 -0.001452 0.000000 0.000000 -0.000001 0.471000
    7 -3.108188 1.516823 4.339626 -0.393097 -1.175601 -3.306141
    8 4.827512 0.000000 -0.000002 0.896971 0.940818 0.241900
    9 11.140032 0.000000 0.000000 0.206283 -0.531442 -0.819637
    10 10.314563 -0.000001 0.000001 1.038208 -0.614677 -0.680604
    11 1.646836 0.445664 -1.699647 0.325979 0.616202 0.091573
    12 0.928312 0.000000 0.000000 0.000000 0.000000 0.000000
    13 0.928313 0.000000 -0.000001 0.000000 0.000000 0.000000
    14 2.979373 -0.388274 -0.044205 -0.000805 -0.043611 0.000046
    15 1.435262 -0.000001 -0.000001 0.272733 -0.008065 0.399315
    16 1.482593 -0.000001 0.000001 0.096344 -0.092317 0.394807
    17 -2.869899 1.399667 -4.140396 -1.977196 0.836232 -5.628099
    18 4.972047 0.000000 0.000000 1.300657 -0.323136 -1.709525
    19 11.585358 0.000000 0.000001 -0.230242 -0.734245 -0.138266
    20 10.127058 0.000000 0.000001 1.181195 -0.128040 0.170976
    21 1.537458 0.109715 1.664489 -0.264662 -0.055995 0.783079
    22 0.928313 0.000000 0.000002 0.000000 0.000000 -0.453501
    23 0.928311 0.000000 0.000001 0.000000 0.000000 0.000000
    24 2.686395 -0.427337 0.044204 -0.005762 0.043239 -0.157074
    25 1.435260 0.000000 0.000001 0.012033 -0.011913 0.044202
    26 1.482593 0.000000 -0.000001 0.000000 0.000000 1.168644
    27 2.046984 0.000001 0.000000 0.306535 -0.047619 -0.620948
    28 -0.000005 0.000007 3.713254 -3.204068 -0.120606 1.238399
    29 18.045723 0.000000 0.000000 0.000000 0.000000 -1.756393
    30 17.597597 0.000000 0.000000 -0.210887 0.105637 -0.141218
    31 0.000005 -0.000003 -3.713254 0.848441 2.461380 5.479079
    32 18.045721 0.000000 0.000000 0.000000 0.000000 -2.603394
    33 17.597597 0.000000 0.000000 0.362388 -0.168095 0.787471
  time 4
    0 -1.542051 -0.800655 -20.585090 0.000000 0.000000 -1.571017
    1 -3.914186 0.093753 0.000000 -1.570795 -1.570787 0.000000
    2 1.293670 0.684478 -0.000001 -0.000004 -0.000001 0.034347
    3 5.309685 -0.003834 0.000000 0.000000 0.000000 0.084266
    4 4.826790 -0.004591 0.000000 -0.166920 0.050875 0.065802
    5 5.792767 -0.005304 0.000000 -0.141096 0.014130 0.159005
    6 6.662322 -0.001452 0.000000 0.000000 -0.000001 0.471000
    7 -3.108188 1.516823 4.339626 -0.319099 -1.169628 -3.373885
    8 4.827512 0.000000 -0.000002 1.046361 0.811969 0.225264
    9 11.140032 0.000000 0.000000 0.169453 -0.644087 -0.862240
    10 10.314563 -0.000001 0.000001 1.017357 -0.623670 -0.612786
    11 1.646836 0.445664 -1.699647 0.325979 0.616202 0.091573
    12 0.928312 0.000000 0.000000 0.000000 0.000000 0.000000
    13 0.928313 0.000000 -0.000001 0.000000 0.000000 0.000000
    14 2.979373 -0.388274 -0.044205 -0.000805 -0.043611 0.000046
    15 1.435262 -0.000001 -0.000001 0.272733 -0.008065 0.399315
    16 1.482593 -0.000001 0.000001 0.096344 -0.092317 0.394807
    17 -2.869899 1.399667 -4.140396 -1.999742 0.881714 -5.649841
    18 4.972047 0.000000 0.000000 1.240251 -0.357606 -1.663136
    19 11.585358 0.000000 0.000001 -0.134469 -0.743503 -0.331030
    20 10.127058 0.000000 0.000001 1.252651 -0.116881 0.168625
    21 1.537458 0.109715 1.664489 -0.264662 -0.055995 0.783079
    22 0.928313 0.000000 0.000002 0.000000 0.000000 -0.453501
    23 0.928311 0.000000 0.000001 0.000000 0.000000 0.000000
    24 2.686395 -0.427337 0.044204 -0.005762 0.043239 -0.157074
    25 1.435260 0.000000 0.000001 0.012033 -0.011913 0.044202
    26 1.482593 0.000000 -0.000001 0.000000 0.000000 1.168644
    27 2.046984 0.000001 0.000000 0.306535 -0.047619 -0.620948
    28 -0.000005 0.000007 3.713254 -3.204068 -0.120606 1.238399
    29 18.045723 0.000000 0.000000 0.000000 0.000000 -1.756393
    30 17.597597 0.000000 0.000000 -0.210887 0.105637 -0.141218
    31 0.000005 -0.000003 -3.713254 0.848441 2.461380 5.479079
    32 18.045721 0.000000 0.000000 0.000000 0.000000 -2.603394
    33 17.597597 0.000000 0.000000 0.362388 -0.168095 0.787471
  time 5
    0 -1.542051 -0.800655 -20.585090 0.000000 0.000000 -1.571017
    1 -3.914186 0.093753 0.000000 -1.570795 -1.570787 0.000000
    2 1.293670 0.684478 -0.000001 -0.000004 -0.000001 0.034347
    3 5.309685 -0.003834 0.000000 0.000000 0.000000 0.071496
    4 4.826790 -0.004591 0.000000 -0.166920 0.050875 0.056498
    5 5.792767 -0.005304 0.000000 -0.140052 0.017318 0.139944
    6 6.662322 -0.001452 0.000000 0.000000 -0.000001 0.471000
    7 -3.108188 1.516823 4.339626 -0.229764 -1.162443 -3.455618
    8 4.827512 0.000000 -0.000002 0.981312 0.603475 0.143812
    9 11.140032 0.000000 0.000000 0.277042 -0.577878 -1.027071
    10 10.314563 -0.000001 0.000001 1.078108 -0.508266 -0.506414
    11 1.646836 0.445664 -1.699647 0.325979 0.616202 0.091573
    12 0.928312 0.000000 0.000000 0.000000 0.000000 0.000000
    13 0.928313 0.000000 -0.000001 0.000000 0.000000 0.000000
    14 2.979373 -0.388274 -0.044205 -0.000805 -0.043611 0.000046
    15 1.435262 -0.000001 -0.000001 0.272733 -0.008065 0.399315
    16 1.482593 -0.000001 0.000001 0.096344 -0.092317 0.394807
    17 -2.869899 1.399667 -4.140396 -2.027064 0.936688 -5.675893
    18 4.972047 0.000000 0.000000 1.167276 -0.399307 -1.607030
    19 11.585358 0.000000 0.000001 -0.025919 -0.737241 -0.549524
    20 10.127058 0.000000 0.000001 1.353630 -0.089269 0.196137
    21 1.537458 0.109715 1.664489 -0.264662 -0.055995 0.783079
    22 0.928313 0.000000 0.000002 0.000000 0.000000 -0.453501
    23 0.928311 0.000000 0.000001 0.000000 0.000000 0.000000
    24 2.686395 -0.427337 0.044204 -0.005762 0.043239 -0.157074
    25 1.435260 0.000000 0.000001 0.012033 -0.011913 0.044202
    26 1.482593 0.000000 -0.000001 0.000000 0.000000 1.168644
    27 2.046984 0.000001 0.000000 0.306535 -0.047619 -0.620948
    28 -0.000005 0.000007 3.713254 -3.204068 -0.120606 1.238399
    29 18.045723 0.000000 0.000000 0.000000 0.000000 -1.756393
    30 17.597597 0.000000 0.000000 -0.210887 0.105637 -0.141218
    31 0.000005 -0.000003 -3.713254 0.848441 2.461380 5.479079
    32 18.045721 0.000000 0.000000 0.000000 0.000000 -2.603394
    33 17.597597 0.000000 0.000000 0.362388 -0.168095 0.787471
  time 6
    0 -1.542051 -0.800655 -20.585090 0.000000 0.000000 -1.571017
    1 -3.914186 0.093753 0.000000 -1.570795 -1.570787 0.000000
    2 1.293670 0.684478 -0.000001 -0.000004 -0.000001 0.034347
    3 5.309685 -0.003834 0.000000 0.000000 0.000000 0.056906
    4 4.826790 -0.004591 0.000000 -0.166920 0.050875 0.045871
    5 5.792767 -0.005304 0.000000 -0.138865 0.020961 0.118123
    6 6.662322 -0.001452 0.000000 0.000000 -0.000001 0.471000
    7 -3.108188 1.516823 4.339626 -0.127584 -1.154193 -3.549232
    8 4.827512 0.000000 -0.000002 0.861258 0.451347 0.038099
    9 11.140032 0.000000 0.000000 0.384663 -0.511645 -1.205017
    10 10.314563 -0.000001 0.000001 1.203592 -0.323450 -0.405965
    11 1.646836 0.445664 -1.699647 0.325979 0.616202 0.091573
    12 0.928312 0.000000 0.000000 0.000000 0.000000 0.000000
    13 0.928313 0.000000 -0.000001 0.000000 0.000000 0.000000
    14 2.979373 -0.388274 -0.044205 -0.000805 -0.043611 0.000046
    15 1.435262 -0.000001 -0.000001 0.272733 -0.008065 0.399315
    16 1.482593 -0.000001 0.000001 0.096344 -0.092317 0.394807
    17 -2.869899 1.399667 -4.140396 -2.058494 0.999548 -5.705777
    18 4.972047 0.000000 0.000000 1.083795 -0.446794 -1.542937
    19 11.585358 0.000000 0.000001 0.100981 -0.718884 -0.804855
    20 10.127058 0.000000 0.000001 1.468563 -0.055131 0.247259
    21 1.537458 0.109715 1.664489 -0.264662 -0.055995 0.783079
    22 0.928313 0.000000 0.000002 0.000000 0.000000 -0.453501
    23 0.928311 0.000000 0.000001 0.000000 0.000000 0.000000
    24 2.686395 -0.427337 0.044204 -0.005762 0.043239 -0.157074
    25 1.435260 0.000000 0.000001 0.012033 -0.011913 0.044202
    26 1.482593 0.000000 -0.000001 0.000000 0.000000 1.168644
    27 2.046984 0.000001 0.000000 0.306535 -0.047619 -0.620948
    28 -0.000005 0.000007 3.713254 -3.204068 -0.120606 1.238399
    29 18.045723 0.000000 0.000000 0.000000 0.000000 -1.756393
    30 17.597597 0.000000 0.000000 -0.210887 0.105637 -0.141218
    31 0.000005 -0.000003 -3.713254 0.848441 2.461380 5.479079
    32 18.045721 0.000000 0.000000 0.000000 0.000000 -2.603394
    33 17.597597 0.000000 0.000000 0.362388 -0.168095 0.787471
  time 7
    0 -1.542051 -0.800655 -20.585090 0.000000 0.000000 -1.571017
    1 -3.914186 0.093753 0.000000 -1.570795 -1.570787 0.000000
    2 1.293670 0.684478 -0.000001 -0.000004 -0.000001 0.034347
    3 5.309685 -0.003834 0.000000 0.000000 0.000000 0.040867
    4 4.826790 -0.004591 0.000000 -0.166920 0.050875 0.034163
    5 5.792767 -0.005304 0.000000 -0.137570 0.024976 0.094142
    6 6.662322 -0.001452 0.000000 0.000000 -0.000001 0.471000
    7 -3.108188 1.516823 4.339626 -0.015244 -1.145115 -3.651949
    8 4.827512 0.000000 -0.000002 0.747741 0.430114 0.004045
    9 11.140032 0.000000 0.000000 0.363470 -0.512194 -1.333694
    10 10.314563 -0.000001 0.000001 1.331540 -0.197742 -0.338785
    11 1.646836 0.445664 -1.699647 0.325979 0.616202 0.091573
    12 0.928312 0.000000 0.000000 0.000000 0.000000 0.000000
    13 0.928313 0.000000 -0.000001 0.000000 0.000000 0.000000
    14 2.979373 -0.388274 -0.044205 -0.000805 -0.043611 0.000046
    15 1.435262 -0.000001 -0.000001 0.272733 -0.008065 0.399315
    16 1.482593 -0.000001 0.000001 0.096344 -0.092317 0.394807
    17 -2.869899 1.399667 -4.140396 -2.092885 1.068745 -5.738629
    18 4.972047 0.000000 0.000000 0.991966 -0.499182 -1.472455
    19 11.585358 0.000000 0.000001 0.206382 -0.688888 -1.038950
    20 10.127058 0.000000 0.000001 1.587283 -0.015981 0.274770
    21 1.537458 0.109715 1.664489 -0.264662 -0.055995 0.783079
    22 0.928313 0.000000 0.000002 0.000000 0.000000 -0.453501
    23 0.928311 0.000000 0.000001 0.000000 0.000000 0.000000
    24 2.686395 -0.427337 0.044204 -0.005762 0.043239 -0.157074
    25 1.435260 0.000000 0.000001 0.012033 -0.011913 0.044202
    26 1.482593 0.000000 -0.000001 0.000000 0.000000 1.168644
    27 2.046984 0.000001 0.000000 0.306535 -0.047619 -0.620948
    28 -0.000005 0.000007 3.713254 -3.204068 -0.120606 1.238399
    29 18.045723 0.000000 0.000000 0.000000 0.000000 -1.756393
    30 17.597597 0.000000 0.000000 -0.210887 0.105637 -0.141218
    31 0.000005 -0.000003 -3.713254 0.848441 2.461380 5.479079
    32 18.045721 0.000000 0.000000 0.000000 0.000000 -2.603394
    33 17.597597 0.000000 0.000000 0.362388 -0.168095 0.787471
  time 8
    0 -1.542051 -0.800655 -20.585090 0.000000 0.000000 -1.571017
    1 -3.914186 0.093753 0.000000 -1.570795 -1.570787 0.000000
    2 1.293670 0.684478 -0.000001 -0.000004 -0.000001 0.034347
    3 5.309685 -0.003834 0.000000 0.000000 0.000000 0.023716
    4 4.826790 -0.004591 0.000000 -0.166920 0.050875 0.021639
    5 5.792767 -0.005304 0.000000 -0.136203 0.029254 0.068500
    6 6.662322 -0.001452 0.000000 0.000000 -0.000001 0.471000
    7 -3.108188 1.516823 4.339626 0.104860 -1.135446 -3.761949
    8 4.827512 0.000000 -0.000002 0.607678 0.426021 -0.077320
    9 11.140032 0.000000 0.000000 0.226291 -0.514590 -1.395786
    10 10.314563 -0.000001 0.000001 1.535688 -0.068849 -0.309521
    11 1.646836 0.445664 -1.699647 0.325979 0.616202 0.091573
    12 0.928312 0.000000 0.000000 0.000000 0.000000 0.000000
    13 0.928313 0.000000 -0.000001 0.000000 0.000000 0.000000
    14 2.979373 -0.388274 -0.044205 -0.000805 -0.043611 0.000046
    15 1.435262 -0.000001 -0.000001 0.272733 -0.008065 0.399315
    16 1.482593 -0.000001 0.000001 0.096344 -0.092317 0.394807
    17 -2.869899 1.399667 -4.140396 -2.129569 1.142647 -5.773876
    18 4.972047 0.000000 0.000000 0.893853 -0.555185 -1.397048
    19 11.585358 0.000000 0.000001 0.250408 -0.647820 -1.193815
    20 10.127058 0.000000 0.000001 1.722201 0.046904 0.249309
    21 1.537458 0.109715 1.664489 -0.264662 -0.055995 0.783079
    22 0.928313 0.000000 0.000002 0.000000 0.000000 -0.453501
    23 0.928311 0.000000 0.000001 0.000000 0.000000 0.000000
    24 2.686395 -0.427337 0.044204 -0.005762 0.043239 -0.157074
    25 1.435260 0.000000 0.000001 0.012033 -0.011913 0.044202
    26 1.482593 0.000000 -0.000001 0.000000 0.000000 1.168644
    27 2.046984 0.000001 0.000000 0.306535 -0.047619 -0.620948
    28 -0.000005 0.000007 3.713254 -3.204068 -0.120606 1.238399
    29 18.045723 0.000000 0.000000 0.000000 0.000000 -1.756393
    30 17.597597 0.000000 0.000000 -0.210887 0.105637 -0.141218
    31 0.000005 -0.000003 -3.713254 0.848441 2.461380 5.479079
    32 18.045721 0.000000 0.000000 0.000000 0.000000 -2.603394
    33 17.597597 0.000000 0.000000 0.362388 -0.168095 0.787471
  time 9
    0 -1.542051 -0.800655 -20.585090 0.000000 0.000000 -1.571017
    1 -3.914186 0.093753 0.000000 -1.570795 -1.570787 0.000000
    2 1.293670 0.684478 -0.000001 -0.000004 -0.000001 0.034347
    3 5.309685 -0.003834 0.000000 0.000000 0.000000 0.005805
    4 4.826790 -0.004591 0.000000 -0.166920 0.050875 0.008609
    5 5.792767 -0.005304 0.000000 -0.134746 0.033737 0.041778
    6 6.662322 -0.001452 0.000000 0.000000 -0.000001 0.471000
    7 -3.108188 1.516823 4.339626 0.230139 -1.125333 -3.876643
    8 4.827512 0.000000 -0.000002 0.374985 0.508395 -0.466380
    9 11.140032 0.000000 0.000000 -0.216178 -0.667280 -1.049894
    10 10.314563 -0.000001 0.000001 -4.278459 0.129549 -0.424545
    11 1.646836 0.445664 -1.699647 0.325979 0.616202 0.091573
    12 0.928312 0.000000 0.000000 0.000000 0.000000 0.000000
    13 0.928313 0.000000 -0.000001 0.000000 0.000000 0.000000
    14 2.979373 -0.388274 -0.044205 -0.000805 -0.043611 0.000046
    15 1.435262 -0.000001 -0.000001 0.272733 -0.008065 0.399315
    16 1.482593 -0.000001 0.000001 0.096344 -0.092317 0.394807
    17 -2.869899 1.399667 -4.140396 -2.167973 1.219704 -5.810464
    18 4.972047 0.000000 0.000000 0.791612 -0.613519 -1.318446
    19 11.585358 0.000000 0.000001 0.245472 -0.596019 -1.287828
    20 10.127058 0.000000 0.000001 1.830403 0.185535 0.109949
    21 1.537458 0.109715 1.664489 -0.264662 -0.055995 0.783079
    22 0.928313 0.000000 0.000002 0.000000 0.000000 -0.453501
    23 0.928311 0.000000 0.000001 0.000000 0.000000 0.000000
    24 2.686395 -0.427337 0.044204 -0.005762 0.043239 -0.157074
    25 1.435260 0.000000 0.000001 0.012033 -0.011913 0.044202
    26 1.482593 0.000000 -0.000001 0.000000 0.000000 1.168644
    27 2.046984 0.000001 0.000000 0.306535 -0.047619 -0.620948
    28 -0.000005 0.000007 3.713254 -3.204068 -0.120606 1.238399
    29 18.045723 0.000000 0.000000 0.000000 0.000000 -1.756393
    30 17.597597 0.000000 0.000000 -0.210887 0.105637 -0.141218
    31 0.000005 -0.000003 -3.713254 0.848441 2.461380 5.479079
    32 18.045721 0.000000 0.000000 0.000000 0.000000 -2.603394
    33 17.597597 0.000000 0.000000 0.362388 -0.168095 0.787471
  time 10
    0 -1.542051 -0.800655 -20.585090 0.000000 0.000000 -1.571017
    1 -3.914186 0.093753 0.000000 -1.570795 -1.570787 0.000000
    2 1.293670 0.684478 -0.000001 -0.000004 -0.000001 0.034347
    3 5.309685 -0.003834 0.000000 0.000000 0.000000 -0.012424
    4 4.826790 -0.004591 0.000000 -0.166920 0.050875 -0.004708
    5 5.792767 -0.005304 0.000000 -0.133289 0.038291 0.014516
    6 6.662322 -0.001452 0.000000 0.000000 -0.000001 0.471000
    7 -3.108188 1.516823 4.339626 0.357912 -1.115014 -3.993637
    8 4.827512 0.000000 -0.000002 0.209652 0.590769 -0.776328
    9 11.140032 0.000000 0.000000 -0.542785 -0.818072 -0.704074
    10 10.314563 -0.000001 0.000001 -3.950722 0.255538 -0.539568
    11 1.646836 0.445664 -1.699647 0.325979 0.616202 0.091573
    12 0.928312 0.000000 0.000000 0.000000 0.000000 0.000000
    13 0.928313 0.000000 -0.000001 0.000000 0.000000 0.000000
    14 2.979373 -0.388274 -0.044205 -0.000805 -0.043611 0.000046
    15 1.435262 -0.000001 -0.000001 0.272733 -0.008065 0.399315
    16 1.482593 -0.000001 0.000001 0.096344 -0.092317 0.394807
    17 -2.869899 1.399667 -4.140396 -2.207046 1.298365 -5.847914
    18 4.972047 0.000000 0.000000 0.687215 -0.672978 -1.238180
    19 11.585358 0.000000 0.000001 0.231846 -0.535278 -1.377022
    20 10.127058 0.000000 0.000001 1.965391 0.312818 0.015559
    21 1.537458 0.109715 1.664489 -0.264662 -0.055995 0.783079
    22 0.928313 0.000000 0.000002 0.000000 0.000000 -0.453501
    23 0.928311 0.000000 0.000001 0.000000 0.000000 0.000000
    24 2.686395 -0.427337 0.044204 -0.005762 0.043239 -0.157074
    25 1.435260 0.000000 0.000001 0.012033 -0.011913 0.044202
    26 1.482593 0.000000 -0.000001 0.000000 0.000000 1.168644
    27 2.046984 0.000001 0.000000 0.306535 -0.047619 -0.620948
    28 -0.000005 0.000007 3.713254 -3.204068 -0.120606 1.238399
    29 18.045723 0.000000 0.000000 0.000000 0.000000 -1.756393
    30 17.597597 0.000000 0.000000 -0.210887 0.105637 -0.141218
    31 0.000005 -0.000003 -3.713254 0.848441 2.461380 5.479079
    32 18.045721 0.000000 0.000000 0.000000 0.000000 -2.603394
    33 17.597597 0.000000 0.000000 0.362388 -0.168095 0.787471
  time 11
    0 -1.542051 -0.800655 -20.585090 0.000000 0.000000 -1.571017
    1 -3.914186 0.093753 0.000000 -1.570795 -1.570787 0.000000
    2 1.293670 0.684478 -0.000001 -0.000004 -0.000001 0.034347
    3 5.309685 -0.003834 0.000000 0.000000 0.000000 -0.030688
    4 4.826790 -0.004591 0.000000 -0.166920 0.050875 -0.018025
    5 5.792767 -0.005304 0.000000 -0.131814 0.042857 -0.012766
    6 6.662322 -0.001452 0.000000 0.000000 -0.000001 0.471000
    7 -3.108188 1.516823 4.339626 0.485684 -1.104694 -4.110631
    8 4.827512 0.000000 -0.000002 0.195940 0.322840 -0.781008
    9 11.140032 0.000000 0.000000 -0.362190 -0.590686 -0.877890
    10 10.314563 -0.000001 0.000001 -4.092413 0.186408 -0.399403
    11 1.646836 0.445664 -1.699647 0.325979 0.616202 0.091573
    12 0.928312 0.000000 0.000000 0.000000 0.000000 0.000000
    13 0.928313 0.000000 -0.000001 0.000000 0.000000 0.000000
    14 2.979373 -0.388274 -0.044205 -0.000805 -0.043611 0.000046
    15 1.435262 -0.000001 -0.000001 0.272733 -0.008065 0.399315
    16 1.482593 -0.000001 0.000001 0.096344 -0.092317 0.394807
    17 -2.869899 1.399667 -4.140396 -2.246214 1.376947 -5.885269
    18 4.972047 0.000000 0.000000 0.582817 -0.732517 -1.157981
    19 11.585358 0.000000 0.000001 0.211287 -0.468184 -1.461071
    20 10.127058 0.000000 0.000001 2.066019 0.430740 -0.071979
    21 1.537458 0.109715 1.664489 -0.264662 -0.055995 0.783079
    22 0.928313 0.000000 0.000002 0.000000 0.000000 -0.453501
    23 0.928311 0.000000 0.000001 0.000000 0.000000 0.000000
    24 2.686395 -0.427337 0.044204 -0.005762 0.043239 -0.157074
    25 1.435260 0.000000 0.000001 0.012033 -0.011913 0.044202
    26 1.482593 0.000000 -0.000001 0.000000 0.000000 1.168644
    27 2.046984 0.000001 0.000000 0.306535 -0.047619 -0.620948
    28 -0.000005 0.000007 3.713254 -3.204068 -0.120606 1.238399
    29 18.045723 0.000000 0.000000 0.000000 0.000000 -1.756393
    30 17.597597 0.000000 0.000000 -0.210887 0.105637 -0.141218
    31 0.000005 -0.000003 -3.713254 0.848441 2.461380 5.479079
    32 18.045721 0.000000 0.000000 0.000000 0.000000 -2.603394
    33 17.597597 0.000000 0.000000 0.362388 -0.168095 0.787471
  time 12
    0 -1.542051 -0.800655 -20.585090 0.000000 0.000000 -1.571017
    1 -3.914186 0.093753 0.000000 -1.570795 -1.570787 0.000000
    2 1.293670 0.684478 -0.000001 -0.000004 -0.000001 0.034347
    3 5.309685 -0.003834 0.000000 0.000000 0.000000 -0.048599
    4 4.826790 -0.004591 0.000000 -0.166920 0.050875 -0.031056
    5 5.792767 -0.005304 0.000000 -0.130375 0.047315 -0.039488
    6 6.662322 -0.001452 0.000000 0.000000 -0.000001 0.471000
    7 -3.108188 1.516823 4.339626 0.611060 -1.094581 -4.225326
    8 4.827512 0.000000 -0.000002 0.188367 0.054142 -0.785860
    9 11.140032 0.000000 0.000000 -0.178223 -0.338433 -1.051633
    10 10.314563 -0.000001 0.000001 -4.234009 0.115030 -0.259239
    11 1.646836 0.445664 -1.699647 0.325979 0.616202 0.091573
    12 0.928312 0.000000 0.000000 0.000000 0.000000 0.000000
    13 0.928313 0.000000 -0.000001 0.000000 0.000000 0.000000
    14 2.979373 -0.388274 -0.044205 -0.000805 -0.043611 0.000046
    15 1.435262 -0.000001 -0.000001 0.272733 -0.008065 0.399315
    16 1.482593 -0.000001 0.000001 0.096344 -0.092317 0.394807
    17 -2.869899 1.399667 -4.140396 -2.284522 1.454031 -5.921857
    18 4.972047 0.000000 0.000000 0.480483 -0.790850 -1.079379
    19 11.585358 0.000000 0.000001 0.185489 -0.397255 -1.539075
    20 10.127058 0.000000 0.000001 2.082709 0.513672 -0.170371
    21 1.537458 0.109715 1.664489 -0.264662 -0.055995 0.783079
    22 0.928313 0.000000 0.000002 0.000000 0.000000 -0.453501
    23 0.928311 0.000000 0.000001 0.000000 0.000000 0.000000
    24 2.686395 -0.427337 0.044204 -0.005762 0.043239 -0.157074
    25 1.435260 0.000000 0.000001 0.012033 -0.011913 0.044202
    26 1.482593 0.000000 -0.000001 0.000000 0.000000 1.168644
    27 2.046984 0.000001 0.000000 0.306535 -0.047619 -0.620948
    28 -0.000005 0.000007 3.713254 -3.204068 -0.120606 1.238399
    29 18.045723 0.000000 0.000000 0.000000 0.000000 -1.756393
    30 17.597597 0.000000 0.000000 -0.210887 0.105637 -0.141218
    31 0.000005 -0.000003 -3.713254 0.848441 2.461380 5.479079
    32 18.045721 0.000000 0.000000 0.000000 0.000000 -2.603394
    33 17.597597 0.000000 0.000000 0.362388 -0.168095 0.787471
  time 13
    0 -1.542051 -0.800655 -20.585090 0.000000 0.000000 -1.571017
    1 -3.914186 0.093753 0.000000 -1.570795 -1.570787 0.000000
    2 1.293670 0.684478 -0.000001 -0.000004 -0.000001 0.034347
    3 5.309685 -0.003834 0.000000 0.000000 0.000000 -0.065733
    4 4.826790 -0.004591 0.000000 -0.166920 0.050875 -0.043557
    5 5.792767 -0.005304 0.000000 -0.128990 0.051606 -0.065130
    6 6.662322 -0.001452 0.000000 0.000000 -0.000001 0.471000
    7 -3.108188 1.516823 4.339626 0.731163 -1.084912 -4.335229
    8 4.827512 0.000000 -0.000002 0.170670 0.052863 -0.826759
    9 11.140032 0.000000 0.000000 -0.173292 -0.301160 -1.032578
    10 10.314563 -0.000001 0.000001 -4.208229 0.112219 -0.264348
    11 1.646836 0.445664 -1.699647 0.325979 0.616202 0.091573
    12 0.928312 0.000000 0.000000 0.000000 0.000000 0.000000
    13 0.928313 0.000000 -0.000001 0.000000 0.000000 0.000000
    14 2.979373 -0.388274 -0.044205 -0.000805 -0.043611 0.000046
    15 1.435262 -0.000001 -0.000001 0.272733 -0.008065 0.399315
    16 1.482593 -0.000001 0.000001 0.096344 -0.092317 0.394807
    17 -2.869899 1.399667 -4.140396 -2.321302 1.527933 -5.957104
    18 4.972047 0.000000 0.000000 0.382369 -0.846854 -1.004038
    19 11.585358 0.000000 0.000001 0.156209 -0.325056 -1.610463
    20 10.127058 0.000000 0.000001 2.049190 0.511119 -0.190030
    21 1.537458 0.109715 1.664489 -0.264662 -0.055995 0.783079
    22 0.928313 0.000000 0.000002 0.000000 0.000000 -0.453501
    23 0.928311 0.000000 0.000001 0.000000 0.000000 0.000000
    24 2.686395 -0.427337 0.044204 -0.005762 0.043239 -0.157074
    25 1.435260 0.000000 0.000001 0.012033 -0.011913 0.044202
    26 1.482593 0.000000 -0.000001 0.000000 0.000000 1.168644
    27 2.046984 0.000001 0.000000 0.306535 -0.047619 -0.620948
    28 -0.000005 0.000007 3.713254 -3.204068 -0.120606 1.238399
    29 18.045723 0.000000 0.000000 0.000000 0.000000 -1.756393
    30 17.597597 0.000000 0.000000 -0.210887 0.105637 -0.141218
    31 0.000005 -0.000003 -3.713254 0.848441 2.461380 5.479079
    32 18.045721 0.000000 0.000000 0.000000 0.000000 -2.603394
    33 17.597597 0.000000 0.000000 0.362388 -0.168095 0.787471
  time 14
    0 -1.542051 -0.800655 -20.585090 0.000000 0.000000 -1.571017
    1 -3.914186 0.093753 0.000000 -1.570795 -1.570787 0.000000
    2 1.293670 0.684478 -0.000001 -0.000004 -0.000001 0.034347
    3 5.309685 -0.003834 0.000000 0.000000 0.000000 -0.081772
    4 4.826790 -0.004591 0.000000 -0.166920 0.050875 -0.055265
    5 5.792767 -0.005304 0.000000 -0.127713 0.055609 -0.089111
    6 6.662322 -0.001452 0.000000 0.000000 -0.000001 0.471000
    7 -3.108188 1.516823 4.339626 0.843599 -1.075835 -4.438234
    8 4.827512 0.000000 -0.000002 0.150980 0.052096 -0.900065
    9 11.140032 0.000000 0.000000 -0.170795 -0.281986 -0.990627
    10 10.314563 -0.000001 0.000001 -4.147478 0.111095 -0.276425
    11 1.646836 0.445664 -1.699647 0.325979 0.616202 0.091573
    12 0.928312 0.000000 0.000000 0.000000 0.000000 0.000000
    13 0.928313 0.000000 -0.000001 0.000000 0.000000 0.000000
    14 2.979373 -0.388274 -0.044205 -0.000805 -0.043611 0.000046
    15 1.435262 -0.000001 -0.000001 0.272733 -0.008065 0.399315
    16 1.482593 -0.000001 0.000001 0.096344 -0.092317 0.394807
    17 -2.869899 1.399667 -4.140396 0.785680 1.544444 -2.848461
    18 4.972047 0.000000 0.000000 0.290447 -0.899161 -0.933490
    19 11.585358 0.000000 0.000001 0.125204 -0.254218 -1.674500
    20 10.127058 0.000000 0.000001 1.992389 0.500339 -0.194132
    21 1.537458 0.109715 1.664489 -0.264662 -0.055995 0.783079
    22 0.928313 0.000000 0.000002 0.000000 0.000000 -0.453501
    23 0.928311 0.000000 0.000001 0.000000 0.000000 0.000000
    24 2.686395 -0.427337 0.044204 -0.005762 0.043239 -0.157074
    25 1.435260 0.000000 0.000001 0.012033 -0.011913 0.044202
    26 1.482593 0.000000 -0.000001 0.000000 0.000000 1.168644
    27 2.046984 0.000001 0.000000 0.306535 -0.047619 -0.620948
    28 -0.000005 0.000007 3.713254 -3.204068 -0.120606 1.238399
    29 18.045723 0.000000 0.000000 0.000000 0.000000 -1.756393
    30 17.597597 0.000000 0.000000 -0.210887 0.105637 -0.141218
    31 0.000005 -0.000003 -3.713254 0.848441 2.461380 5.479079
    32 18.045721 0.000000 0.000000 0.000000 0.000000 -2.603394
    33 17.597597 0.000000 0.000000 0.362388 -0.168095 0.787471
  time 15
    0 -1.542051 -0.800655 -20.585090 0.000000 0.000000 -1.571017
    1 -3.914186 0.093753 0.000000 -1.570795 -1.570787 0.000000
    2 1.293670 0.684478 -0.000001 -0.000004 -0.000001 0.034347
    3 5.309685 -0.003834 0.000000 0.000000 0.000000 -0.096362
    4 4.826790 -0.004591 0.000000 -0.166920 0.050875 -0.065914
    5 5.792767 -0.005304 0.000000 -0.126544 0.059264 -0.110911
    6 6.662322 -0.001452 0.000000 0.000000 -0.000001 0.471000
    7 -3.108188 1.516823 4.339626 0.945778 -1.067585 -4.531657
    8 4.827512 0.000000 -0.000002 0.131131 0.051584 -0.970252
    9 11.140032 0.000000 0.000000 -0.168891 -0.270852 -0.948677
    10 10.314563 -0.000001 0.000001 -4.076585 0.110065 -0.290825
    11 1.646836 0.445664 -1.699647 0.325979 0.616202 0.091573
    12 0.928312 0.000000 0.000000 0.000000 0.000000 0.000000
    13 0.928313 0.000000 -0.000001 0.000000 0.000000 0.000000
    14 2.979373 -0.388274 -0.044205 -0.000805 -0.043611 0.000046
    15 1.435262 -0.000001 -0.000001 0.272733 -0.008065 0.399315
    16 1.482593 -0.000001 0.000001 0.096344 -0.092317 0.394807
    17 -2.869899 1.399667 -4.140396 0.754441 1.481583 -2.878344
    18 4.972047 0.000000 0.000000 0.207060 -0.946728 -0.869397
    19 11.585358 0.000000 0.000001 0.094168 -0.187192 -1.730533
    20 10.127058 0.000000 0.000001 1.944845 0.475185 -0.150513
    21 1.537458 0.109715 1.664489 -0.264662 -0.055995 0.783079
    22 0.928313 0.000000 0.000002 0.000000 0.000000 -0.453501
    23 0.928311 0.000000 0.000001 0.000000 0.000000 0.000000
    24 2.686395 -0.427337 0.044204 -0.005762 0.043239 -0.157074
    25 1.435260 0.000000 0.000001 0.012033 -0.011913 0.044202
    26 1.482593 0.000000 -0.000001 0.000000 0.000000 1.168644
    27 2.046984 0.000001 0.000000 0.306535 -0.047619 -0.620948
    28 -0.000005 0.000007 3.713254 -3.204068 -0.120606 1.238399
    29 18.045723 0.000000 0.000000 0.000000 0.000000 -1.756393
    30 17.597597 0.000000 0.000000 -0.210887 0.105637 -0.141218
    31 0.000005 -0.000003 -3.713254 0.848441 2.461380 5.479079
    32 18.045721 0.000000 0.000000 0.000000 0.000000 -2.603394
    33 17.597597 0.000000 0.000000 0.362388 -0.168095 0.787471
  time 16
    0 -1.542051 -0.800655 -20.585090 0.000000 0.000000 -1.571017
    1 -3.914186 0.093753 0.000000 -1.570795 -1.570787 0.000000
    2 1.293670 0.684478 -0.000001 -0.000004 -0.000001 0.034347
    3 5.309685 -0.003834 0.000000 0.000000 0.000000 -0.109115
    4 4.826790 -0.004591 0.000000 -0.166920 0.050875 -0.075219
    5 5.792767 -0.005304 0.000000 -0.125500 0.062452 -0.129972
    6 6.662322 -0.001452 0.000000 0.000000 -0.000001 0.471000
    7 -3.108188 1.516823 4.339626 1.035114 -1.060399 -4.613486
    8 4.827512 0.000000 -0.000002 0.113274 0.051413 -1.001619
    9 11.140032 0.000000 0.000000 -0.165801 -0.257670 -0.929621
    10 10.314563 -0.000001 0.000001 -4.020383 0.107348 -0.302844
    11 1.646836 0.445664 -1.699647 0.325979 0.616202 0.091573
    12 0.928312 0.000000 0.000000 0.000000 0.000000 0.000000
    13 0.928313 0.000000 -0.000001 0.000000 0.000000 0.000000
    14 2.979373 -0.388274 -0.044205 -0.000805 -0.043611 0.000046
    15 1.435262 -0.000001 -0.000001 0.272733 -0.008065 0.399315
    16 1.482593 -0.000001 0.000001 0.096344 -0.092317 0.394807
    17 -2.869899 1.399667 -4.140396 0.727023 1.426610 -2.904588
    18 4.972047 0.000000 0.000000 0.134085 -0.988349 -0.813291
    19 11.585358 0.000000 0.000001 0.064888 -0.126610 -1.777907
    20 10.127058 0.000000 0.000001 1.897441 0.448234 -0.092038
    21 1.537458 0.109715 1.664489 -0.264662 -0.055995 0.783079
    22 0.928313 0.000000 0.000002 0.000000 0.000000 -0.453501
    23 0.928311 0.000000 0.000001 0.000000 0.000000 0.000000
    24 2.686395 -0.427337 0.044204 -0.005762 0.043239 -0.157074
    25 1.435260 0.000000 0.000001 0.012033 -0.011913 0.044202
    26 1.482593 0.000000 -0.000001 0.000000 0.000000 1.168644
    27 2.046984 0.000001 0.000000 0.306535 -0.047619 -0.620948
    28 -0.000005 0.000007 3.713254 -3.204068 -0.120606 1.238399
    29 18.045723 0.000000 0.000000 0.000000 0.000000 -1.756393
    30 17.597597 0.000000 0.000000 -0.210887 0.105637 -0.141218
    31 0.000005 -0.000003 -3.713254 0.848441 2.461380 5.479079
    32 18.045721 0.000000 0.000000 0.000000 0.000000 -2.603394
    33 17.597597 0.000000 0.000000 0.362388 -0.168095 0.787471
  time 17
    0 -1.542051 -0.800655 -20.585090 0.000000 0.000000 -1.571017
    1 -3.914186 0.093753 0.000000 -1.570795 -1.570787 0.000000
    2 1.293670 0.684478 -0.000001 -0.000004 -0.000001 0.034347
    3 5.309685 -0.003834 0.000000 0.000000 0.000000 -0.119678
    4 4.826790 -0.004591 0.000000 -0.166920 0.050875 -0.082913
    5 5.792767 -0.005304 0.000000 -0.124655 0.065076 -0.145793
    6 6.662322 -0.001452 0.000000 0.000000 -0.000001 0.471000
    7 -3.108188 1.516823 4.339626 1.109112 -1.054426 -4.681229
    8 4.827512 0.000000 -0.000002 0.095657 0.053972 -0.999540
    9 11.140032 0.000000 0.000000 -0.159964 -0.238421 -0.935490
    10 10.314563 -0.000001 0.000001 -3.980387 0.101353 -0.312715
    11 1.646836 0.445664 -1.699647 0.325979 0.616202 0.091573
    12 0.928312 0.000000 0.000000 0.000000 0.000000 0.000000
    13 0.928313 0.000000 -0.000001 0.000000 0.000000 0.000000
    14 2.979373 -0.388274 -0.044205 -0.000805 -0.043611 0.000046
    15 1.435262 -0.000001 -0.000001 0.272733 -0.008065 0.399315
    16 1.482593 -0.000001 0.000001 0.096344 -0.092317 0.394807
    17 -2.869899 1.399667 -4.140396 0.704478 1.381101 -2.926139
    18 4.972047 0.000000 0.000000 0.073678 -1.022739 -0.766902
    19 11.585358 0.000000 0.000001 0.039090 -0.075081 -1.815970
    20 10.127058 0.000000 0.000001 1.843306 0.426484 -0.063575
    21 1.537458 0.109715 1.664489 -0.264662 -0.055995 0.783079
    22 0.928313 0.000000 0.000002 0.000000 0.000000 -0.453501
    23 0.928311 0.000000 0.000001 0.000000 0.000000 0.000000
    24 2.686395 -0.427337 0.044204 -0.005762 0.043239 -0.157074
    25 1.435260 0.000000 0.000001 0.012033 -0.011913 0.044202
    26 1.482593 0.000000 -0.000001 0.000000 0.000000 1.168644
    27 2.046984 0.000001 0.000000 0.306535 -0.047619 -0.620948
    28 -0.000005 0.000007 3.713254 -3.204068 -0.120606 1.238399
    29 18.045723 0.000000 0.000000 0.000000 0.000000 -1.756393
    30 17.597597 0.000000 0.000000 -0.210887 0.105637 -0.141218
    31 0.000005 -0.000003 -3.713254 0.848441 2.461380 5.479079
    32 18.045721 0.000000 0.000000 0.000000 0.000000 -2.603394
    33 17.597597 0.000000 0.000000 0.362388 -0.168095 0.787471
  time 18
    0 -1.542051 -0.800655 -20.585090 0.000000 0.000000 -1.571017
    1 -3.914186 0.093753 0.000000 -1.570795 -1.570787 0.000000
    2 1.293670 0.684478 -0.000001 -0.000004 -0.000001 0.034347
    3 5.309685 -0.003834 0.000000 0.000000 0.000000 -0.127662
    4 4.826790 -0.004591 0.000000 -0.166920 0.050875 -0.088756
    5 5.792767 -0.005304 0.000000 -0.123989 0.067090 -0.157732
    6 6.662322 -0.001452 0.000000 0.000000 -0.000001 0.471000
    7 -3.108188 1.516823 4.339626 1.165090 -1.049902 -4.732492
    8 4.827512 0.000000 -0.000002 0.077720 0.059600 -0.994774
    9 11.140032 0.000000 0.000000 -0.152692 -0.218973 -0.948314
    10 10.314563 -0.000001 0.000001 -3.944846 0.093298 -0.322470
    11 1.646836 0.445664 -1.699647 0.325979 0.616202 0.091573
    12 0.928312 0.000000 0.000000 0.000000 0.000000 0.000000
    13 0.928313 0.000000 -0.000001 0.000000 0.000000 0.000000
    14 2.979373 -0.388274 -0.044205 -0.000805 -0.043611 0.000046
    15 1.435262 -0.000001 -0.000001 0.272733 -0.008065 0.399315
    16 1.482593 -0.000001 0.000001 0.096344 -0.092317 0.394807
    17 -2.869899 1.399667 -4.140396 0.687378 1.346661 -2.942421
    18 4.972047 0.000000 0.000000 0.027998 -1.048933 -0.731760
    19 11.585358 0.000000 0.000001 0.018531 -0.035079 -1.843904
    20 10.127058 0.000000 0.000001 1.783911 0.404451 -0.039315
    21 1.537458 0.109715 1.664489 -0.264662 -0.055995 0.783079
    22 0.928313 0.000000 0.000002 0.000000 0.000000 -0.453501
    23 0.928311 0.000000 0.000001 0.000000 0.000000 0.000000
    24 2.686395 -0.427337 0.044204 -0.005762 0.043239 -0.157074
    25 1.435260 0.000000 0.000001 0.012033 -0.011913 0.044202
    26 1.482593 0.000000 -0.000001 0.000000 0.000000 1.168644
    27 2.046984 0.000001 0.000000 0.306535 -0.047619 -0.620948
    28 -0.000005 0.000007 3.713254 -3.204068 -0.120606 1.238399
    29 18.045723 0.000000 0.000000 0.000000 0.000000 -1.756393
    30 17.597597 0.000000 0.000000 -0.210887 0.105637 -0.141218
    31 0.000005 -0.000003 -3.713254 0.848441 2.461380 5.479079
    32 18.045721 0.000000 0.000000 0.000000 0.000000 -2.603394
    33 17.597597 0.000000 0.000000 0.362388 -0.168095 0.787471
  time 19
    0 -1.542051 -0.800655 -20.585090 0.000000 0.000000 -1.571017
    1 -3.914186 0.093753 0.000000 -1.570795 -1.570787 0.000000
    2 1.293670 0.684478 -0.000001 -0.000004 -0.000001 0.034347
    3 5.309685 -0.003834 0.000000 0.000000 0.000000 -0.132749
    4 4.826790 -0.004591 0.000000 -0.166920 0.050875 -0.092438
    5 5.792767 -0.005304 0.000000 -0.123612 0.068348 -0.165310
    6 6.662322 -0.001452 0.000000 0.000000 -0.000001 0.471000
    7 -3.108188 1.516823 4.339626 1.200556 -1.047034 -4.764974
    8 4.827512 0.000000 -0.000002 0.063929 0.065142 -0.990182
    9 11.140032 0.000000 0.000000 -0.146511 -0.203894 -0.961139
    10 10.314563 -0.000001 0.000001 -3.919541 0.086178 -0.329902
    11 1.646836 0.445664 -1.699647 0.325979 0.616202 0.091573
    12 0.928312 0.000000 0.000000 0.000000 0.000000 0.000000
    13 0.928313 0.000000 -0.000001 0.000000 0.000000 0.000000
    14 2.979373 -0.388274 -0.044205 -0.000805 -0.043611 0.000046
    15 1.435262 -0.000001 -0.000001 0.272733 -0.008065 0.399315
    16 1.482593 -0.000001 0.000001 0.096344 -0.092317 0.394807
    17 -2.869899 1.399667 -4.140396 0.676487 1.324813 -2.952861
    18 4.972047 0.000000 0.000000 -0.001079 -1.065404 -0.709464
    19 11.585358 0.000000 0.000001 0.004905 -0.009167 -1.861221
    20 10.127058 0.000000 0.000001 1.736086 0.387524 -0.022508
    21 1.537458 0.109715 1.664489 -0.264662 -0.055995 0.783079
    22 0.928313 0.000000 0.000002 0.000000 0.000000 -0.453501
    23 0.928311 0.000000 0.000001 0.000000 0.000000 0.000000
    24 2.686395 -0.427337 0.044204 -0.005762 0.043239 -0.157074
    25 1.435260 0.000000 0.000001 0.012033 -0.011913 0.044202
    26 1.482593 0.000000 -0.000001 0.000000 0.000000 1.168644
    27 2.046984 0.000001 0.000000 0.306535 -0.047619 -0.620948
    28 -0.000005 0.000007 3.713254 -3.204068 -0.120606 1.238399
    29 18.045723 0.000000 0.000000 0.000000 0.000000 -1.756393
    30 17.597597 0.000000 0.000000 -0.210887 0.105637 -0.141218
    31 0.000005 -0.000003 -3.713254 0.848441 2.461380 5.479079
    32 18.045721 0.000000 0.000000 0.000000 0.000000 -2.603394
    33 17.597597 0.000000 0.000000 0.362388 -0.168095 0.787471
  time 20
    0 -1.542051 -0.800655 -20.585090 0.000000 0.000000 -1.571017
    1 -3.914186 0.093753 0.000000 -1.570795 -1.570787 0.000000
    2 1.293670 0.684478 -0.000001 -0.000004 -0.000001 0.034347
    3 5.309685 -0.003834 0.000000 0.000000 0.000000 -0.134498
    4 4.826790 -0.004591 0.000000 -0.166920 0.050875 -0.093739
    5 5.792767 -0.005304 0.000000 -0.123468 0.068792 -0.167947
    6 6.662322 -0.001452 0.000000 0.000000 -0.000001 0.471000
    7 -3.108188 1.516823 4.339626 1.213017 -1.046029 -4.776281
    8 4.827512 0.000000 -0.000002 0.058349 0.067701 -0.988015
    9 11.140032 0.000000 0.000000 -0.143890 -0.197852 -0.967007
    10 10.314563 -0.000001 0.000001 -3.909874 0.083181 -0.332921
    11 1.646836 0.445664 -1.699647 0.325979 0.616202 0.091573
    12 0.928312 0.000000 0.000000 0.000000 0.000000 0.000000
    13 0.928313 0.000000 -0.000001 0.000000 0.000000 0.000000
    14 2.979373 -0.388274 -0.044205 -0.000805 -0.043611 0.000046
    15 1.435262 -0.000001 -0.000001 0.272733 -0.008065 0.399315
    16 1.482593 -0.000001 0.000001 0.096344 -0.092317 0.394807
    17 -2.869899 1.399667 -4.140396 0.672666 1.317189 -2.956405
    18 4.972047 0.000000 0.000000 -0.011116 -1.071190 -0.701677
    19 11.585358 0.000000 0.000001 0.000000 0.000000 -1.867102
    20 10.127058 0.000000 0.000001 1.716451 0.380621 -0.016205
    21 1.537458 0.109715 1.664489 -0.264662 -0.055995 0.783079
    22 0.928313 0.000000 0.000002 0.000000 0.000000 -0.453501
    23 0.928311 0.000000 0.000001 0.000000 0.000000 0.000000
    24 2.686395 -0.427337 0.044204 -0.005762 0.043239 -0.157074
    25 1.435260 0.000000 0.000001 0.012033 -0.011913 0.044202
    26 1.482593 0.000000 -0.000001 0.000000 0.000000 1.168644
    27 2.046984 0.000001 0.000000 0.306535 -0.047619 -0.620948
    28 -0.000005 0.000007 3.713254 -3.204068 -0.120606 1.238399
    29 18.045723 0.000000 0.000000 0.000000 0.000000 -1.756393
    30 17.597597 0.000000 0.000000 -0.210887 0.105637 -0.141218
    31 0.000005 -0.000003 -3.713254 0.848441 2.461380 5.479079
    32 18.045721 0.000000 0.000000 0.000000 0.000000 -2.603394
    33 17.597597 0.000000 0.000000 0.362388 -0.168095 0.787471
end
