version 1
nodes
  0 "Bip01" -1
  1 "Bip01 Pelvis" 0
  2 "Bip01 Spine" 1
  3 "Bip01 Spine1" 2
  4 "Bip01 Spine2" 3
  5 "Bip01 Spine3" 4
  6 "Bip01 Neck" 5
  7 "Bip01 L Arm" 6
  8 "Bip01 L Arm1" 7
  9 "Bip01 L Arm2" 8
  10 "Bip01 L Hand" 9
  11 "Bip01 L Finger0" 10
  12 "Bip01 L Finger01" 11
  13 "Bip01 L Finger02" 12
  14 "Bip01 L Finger1" 10
  15 "Bip01 L Finger11" 14
  16 "Bip01 L Finger12" 15
  17 "Bip01 R Arm" 6
  18 "Bip01 R Arm1" 17
  19 "Bip01 R Arm2" 18
  20 "Bip01 R Hand" 19
  21 "Bip01 R Finger0" 20
  22 "Bip01 R Finger01" 21
  23 "Bip01 R Finger02" 22
  24 "Bip01 R Finger1" 20
  25 "Bip01 R Finger11" 24
  26 "Bip01 R Finger12" 25
  27 "Bip01 Head" 6
  28 "Bip01 L Leg" 1
  29 "Bip01 L Leg1" 28
  30 "Bip01 L Foot" 29
  31 "Bip01 R Leg" 1
  32 "Bip01 R Leg1" 31
  33 "Bip01 R Foot" 32
end
skeleton
  time 0
    0 0.418947 3.222906 -20.600716 0.000000 0.000000 -1.585458
    1 0.578139 -0.105472 0.000000 -1.570795 -1.570787 0.000000
    2 1.293670 0.684478 -0.000001 0.006346 0.067820 0.184531
    3 5.309685 -0.003834 0.000000 -0.009461 -0.100359 0.061569
    4 4.826790 -0.004591 0.000000 -0.302653 0.088758 0.065361
    5 5.792767 -0.005304 0.000000 -0.304982 -0.035067 0.138595
    6 6.662322 -0.001452 0.000000 -0.016179 0.004411 0.589853
    7 -2.928495 1.801988 4.351345 1.260560 -0.999457 -4.935627
    8 4.827512 0.000000 -0.000002 -0.031891 0.321902 -0.118912
    9 11.140032 0.000000 0.000000 0.000000 0.000000 -2.016350
    10 10.314563 -0.000001 0.000001 -1.356600 -0.601376 0.094309
    11 1.646836 0.445664 -1.699647 -0.161704 0.581044 -0.283978
    12 0.928312 0.000000 0.000000 0.000000 0.000000 0.000000
    13 0.928313 0.000000 -0.000001 0.000000 0.000000 0.000000
    14 2.979373 -0.388274 -0.044205 -0.041673 -0.012835 1.254620
    15 1.435262 -0.000001 -0.000001 0.000000 0.000000 0.872146
    16 1.482593 -0.000001 0.000001 0.000000 0.000000 0.907041
    17 -2.670674 1.786398 -4.128677 2.418032 1.348317 -1.301131
    18 4.972047 0.000000 0.000000 -1.207891 -0.419957 0.045074
    19 11.585358 0.000000 0.000001 0.000000 0.000000 -2.088536
    20 10.127058 0.000000 0.000001 1.863151 0.120948 0.801297
    21 1.537458 0.109715 1.664489 -0.264662 -0.055995 0.783079
    22 0.928313 0.000000 0.000002 0.000000 0.000000 -0.453501
    23 0.928311 0.000000 0.000001 0.000000 0.000000 0.000000
    24 2.686395 -0.427337 0.044204 -0.005762 0.043239 -0.157074
    25 1.435260 0.000000 0.000001 0.000000 0.000000 0.732613
    26 1.482593 0.000000 -0.000001 0.000000 0.000000 1.168644
    27 2.046984 0.000001 0.000000 0.037741 -0.071251 -0.071117
    28 -0.000005 0.000007 3.713254 -3.293902 -0.161448 1.264185
    29 18.045723 0.000000 0.000000 0.000000 0.000000 -1.669796
    30 17.597597 0.000000 0.000000 -0.254040 0.198982 -0.213244
    31 0.000005 -0.000003 -3.713254 0.821892 2.312307 5.493555
    32 18.045721 0.000000 0.000000 0.000000 0.000000 -2.673768
    33 17.597597 0.000000 0.000000 0.379969 0.033854 0.755924
  time 1
    0 0.254879 3.371348 -20.600716 0.000000 0.000000 -1.585458
    1 0.578139 -0.105472 0.000000 -1.570795 -1.570787 0.000000
    2 1.293670 0.684478 -0.000001 0.005892 0.065890 0.182974
    3 5.309685 -0.003834 0.000000 -0.009308 -0.099556 0.060244
    4 4.826790 -0.004591 0.000000 -0.253193 0.053212 0.075658
    5 5.792767 -0.005304 0.000000 -0.254652 -0.045146 0.190419
    6 6.662322 -0.001452 0.000000 -0.016179 0.004411 0.589853
    7 -2.928495 1.801988 4.351345 1.142181 -0.942833 -4.785671
    8 4.827512 0.000000 -0.000002 0.072220 0.169773 -0.313009
    9 11.140032 0.000000 0.000000 0.000000 0.000000 -1.772834
    10 10.314563 -0.000001 0.000001 -1.292057 -0.549013 -0.030876
    11 1.646836 0.445664 -1.699647 -0.161704 0.581044 -0.283978
    12 0.928312 0.000000 0.000000 0.000000 0.000000 0.000000
    13 0.928313 0.000000 -0.000001 0.000000 0.000000 0.000000
    14 2.979373 -0.388274 -0.044205 -0.041673 -0.012835 1.254620
    15 1.435262 -0.000001 -0.000001 0.000000 0.000000 0.872146
    16 1.482593 -0.000001 0.000001 0.000000 0.000000 0.907041
    17 -2.670674 1.786398 -4.128677 -1.188199 1.724454 -4.915494
    18 4.972047 0.000000 0.000000 -0.900232 -0.598333 0.031696
    19 11.585358 0.000000 0.000001 0.000000 0.000000 -1.960543
    20 10.127058 0.000000 0.000001 1.814765 0.123028 0.810201
    21 1.537458 0.109715 1.664489 -0.264662 -0.055995 0.783079
    22 0.928313 0.000000 0.000002 0.000000 0.000000 -0.453501
    23 0.928311 0.000000 0.000001 0.000000 0.000000 0.000000
    24 2.686395 -0.427337 0.044204 -0.005762 0.043239 -0.157074
    25 1.435260 0.000000 0.000001 0.000000 0.000000 0.732613
    26 1.482593 0.000000 -0.000001 0.000000 0.000000 1.168644
    27 2.046984 0.000001 0.000000 0.083107 0.026052 -0.180730
    28 -0.000005 0.000007 3.713254 -3.287383 -0.163174 1.264952
    29 18.045723 0.000000 0.000000 0.000000 0.000000 -1.659656
    30 17.597597 0.000000 0.000000 -0.250087 0.193248 -0.222092
    31 0.000005 -0.000003 -3.713254 0.847770 2.323715 5.495760
    32 18.045721 0.000000 0.000000 0.000000 0.000000 -2.670462
    33 17.597597 0.000000 0.000000 0.394295 0.013125 0.762622
  time 2
    0 0.094718 3.480726 -20.600716 0.000000 0.000000 -1.585458
    1 0.578139 -0.105472 0.000000 -1.570795 -1.570787 0.000000
    2 1.293670 0.684478 -0.000001 0.005471 0.064236 0.180329
    3 5.309685 -0.003834 0.000000 -0.009053 -0.099161 0.058001
    4 4.826790 -0.004591 0.000000 -0.222235 0.025887 0.080552
    5 5.792767 -0.005304 0.000000 -0.219954 -0.058101 0.223162
    6 6.662322 -0.001452 0.000000 -0.016179 0.004411 0.589853
    7 -2.928495 1.801988 4.351345 1.041823 -0.864829 -4.644531
    8 4.827512 0.000000 -0.000002 0.211645 0.068724 -0.466033
    9 11.140032 0.000000 0.000000 0.000000 0.000000 -1.507437
    10 10.314563 -0.000001 0.000001 -1.234149 -0.480539 -0.166628
    11 1.646836 0.445664 -1.699647 -0.161704 0.581044 -0.283978
    12 0.928312 0.000000 0.000000 0.000000 0.000000 0.000000
    13 0.928313 0.000000 -0.000001 0.000000 0.000000 0.000000
    14 2.979373 -0.388274 -0.044205 -0.041673 -0.012835 1.254620
    15 1.435262 -0.000001 -0.000001 0.000000 0.000000 0.872146
    16 1.482593 -0.000001 0.000001 0.000000 0.000000 0.907041
    17 -2.670674 1.786398 -4.128677 1.257225 1.425138 -2.477312
    18 4.972047 0.000000 0.000000 -0.578784 -0.680370 -0.133428
    19 11.585358 0.000000 0.000001 0.000000 0.000000 -1.824791
    20 10.127058 0.000000 0.000001 1.853333 0.135038 0.743072
    21 1.537458 0.109715 1.664489 -0.264662 -0.055995 0.783079
    22 0.928313 0.000000 0.000002 0.000000 0.000000 -0.453501
    23 0.928311 0.000000 0.000001 0.000000 0.000000 0.000000
    24 2.686395 -0.427337 0.044204 -0.005762 0.043239 -0.157074
    25 1.435260 0.000000 0.000001 0.000000 0.000000 0.732613
    26 1.482593 0.000000 -0.000001 0.000000 0.000000 1.168644
    27 2.046984 0.000001 0.000000 0.111197 0.078096 -0.290405
    28 -0.000005 0.000007 3.713254 -3.281055 -0.165187 1.265240
    29 18.045723 0.000000 0.000000 0.000000 0.000000 -1.652403
    30 17.597597 0.000000 0.000000 -0.246083 0.187686 -0.228556
    31 0.000005 -0.000003 -3.713254 0.872401 2.335027 5.502567
    32 18.045721 0.000000 0.000000 0.000000 0.000000 -2.667392
    33 17.597597 0.000000 0.000000 0.404293 -0.004232 0.771074
  time 3
    0 -0.002941 3.519790 -20.600716 0.000000 0.000000 -1.585458
    1 0.578139 -0.105472 0.000000 -1.570795 -1.570787 0.000000
    2 1.293670 0.684478 -0.000001 0.005033 0.062115 0.179810
    3 5.309685 -0.003834 0.000000 -0.009019 -0.097998 0.057541
    4 4.826790 -0.004591 0.000000 -0.245525 0.031987 0.087013
    5 5.792767 -0.005304 0.000000 -0.228534 -0.105668 0.205825
    6 6.662322 -0.001452 0.000000 -0.016179 0.004411 0.589853
    7 -2.928495 1.801988 4.351345 0.976356 -0.808056 -4.547371
    8 4.827512 0.000000 -0.000002 0.347562 0.012273 -0.534227
    9 11.140032 0.000000 0.000000 0.000000 0.000000 -1.286020
    10 10.314563 -0.000001 0.000001 -1.194817 -0.423680 -0.255639
    11 1.646836 0.445664 -1.699647 -0.161704 0.581044 -0.283978
    12 0.928312 0.000000 0.000000 0.000000 0.000000 0.000000
    13 0.928313 0.000000 -0.000001 0.000000 0.000000 0.000000
    14 2.979373 -0.388274 -0.044205 -0.041673 -0.012835 1.254620
    15 1.435262 -0.000001 -0.000001 0.000000 0.000000 0.872146
    16 1.482593 -0.000001 0.000001 0.000000 0.000000 0.907041
    17 -2.670674 1.786398 -4.128677 0.726832 1.360306 -3.015789
    18 4.972047 0.000000 0.000000 -0.472135 -0.619143 -0.608966
    19 11.585358 0.000000 0.000001 0.000000 0.000000 -1.592086
    20 10.127058 0.000000 0.000001 2.222115 0.285300 0.376164
    21 1.537458 0.109715 1.664489 -0.264662 -0.055995 0.783079
    22 0.928313 0.000000 0.000002 0.000000 0.000000 -0.453501
    23 0.928311 0.000000 0.000001 0.000000 0.000000 0.000000
    24 2.686395 -0.427337 0.044204 -0.006649 0.043144 -0.177720
    25 1.435260 0.000000 0.000001 0.000000 0.000000 0.721034
    26 1.482593 0.000000 -0.000001 0.000000 0.000000 1.168644
    27 2.046984 0.000001 0.000000 0.160010 0.056765 -0.443815
    28 -0.000005 0.000007 3.713254 -3.277220 -0.166529 1.265144
    29 18.045723 0.000000 0.000000 0.000000 0.000000 -1.649590
    30 17.597597 0.000000 0.000000 -0.243626 0.184339 -0.231170
    31 0.000005 -0.000003 -3.713254 0.886586 2.341738 5.509182
    32 18.045721 0.000000 0.000000 0.000000 0.000000 -2.665424
    33 17.597597 0.000000 0.000000 0.407984 -0.012910 0.777263
  time 4
    0 -0.096694 3.476820 -20.600716 0.000000 0.000000 -1.585458
    1 0.578139 -0.105472 0.000000 -1.570795 -1.570787 0.000000
    2 1.293670 0.684478 -0.000001 0.004494 0.059371 0.184464
    3 5.309685 -0.003834 0.000000 -0.009461 -0.095122 0.061516
    4 4.826790 -0.004591 0.000000 -0.275605 0.037428 0.082735
    5 5.792767 -0.005304 0.000000 -0.248590 -0.161432 0.168639
    6 6.662322 -0.001452 0.000000 -0.016179 0.004411 0.589853
    7 -2.928495 1.801988 4.351345 0.937823 -0.817371 -4.511056
    8 4.827512 0.000000 -0.000002 0.502930 -0.011092 -0.598868
    9 11.140032 0.000000 0.000000 0.000000 0.000000 -1.174224
    10 10.314563 -0.000001 0.000001 -1.171597 -0.413376 -0.250819
    11 1.646836 0.445664 -1.699647 -0.161704 0.581044 -0.283978
    12 0.928312 0.000000 0.000000 0.000000 0.000000 0.000000
    13 0.928313 0.000000 -0.000001 0.000000 0.000000 0.000000
    14 2.979373 -0.388274 -0.044205 -0.041673 -0.012835 1.254620
    15 1.435262 -0.000001 -0.000001 0.000000 0.000000 0.872146
    16 1.482593 -0.000001 0.000001 0.000000 0.000000 0.907041
    17 -2.670674 1.786398 -4.128677 0.616398 1.325129 -3.129384
    18 4.972047 0.000000 0.000000 -0.576158 -0.631357 -0.885636
    19 11.585358 0.000000 0.000001 0.000000 0.000000 -1.506567
    20 10.127058 0.000000 0.000001 2.477086 0.510930 0.142764
    21 1.537458 0.109715 1.664489 -0.264662 -0.055995 0.783079
    22 0.928313 0.000000 0.000002 0.000000 0.000000 -0.453501
    23 0.928311 0.000000 0.000001 0.000000 0.000000 0.000000
    24 2.686395 -0.427337 0.044204 -0.005762 0.043239 -0.157074
    25 1.435260 0.000000 0.000001 0.000000 0.000000 0.732613
    26 1.482593 0.000000 -0.000001 0.000000 0.000000 1.168644
    27 2.046984 0.000001 0.000000 0.212528 0.045170 -0.645827
    28 -0.000005 0.000007 3.713254 -3.272810 -0.168255 1.263994
    29 18.045723 0.000000 0.000000 0.000000 0.000000 -1.652255
    30 17.597597 0.000000 0.000000 -0.240863 0.180869 -0.229382
    31 0.000005 -0.000003 -3.713254 0.900004 2.348832 5.525096
    32 18.045721 0.000000 0.000000 0.000000 0.000000 -2.664007
    33 17.597597 0.000000 0.000000 0.404595 -0.016125 0.788164
  time 5
    0 -0.284200 3.254157 -20.600716 0.000000 0.000000 -1.585458
    1 0.578139 -0.105472 0.000000 -1.570795 -1.570787 0.000000
    2 1.293670 0.684478 -0.000001 0.004123 0.056998 0.193320
    3 5.309685 -0.003834 0.000000 -0.010227 -0.091430 0.069040
    4 4.826790 -0.004591 0.000000 -0.274556 0.001031 0.036412
    5 5.792767 -0.005304 0.000000 -0.255282 -0.179074 0.114967
    6 6.662322 -0.001452 0.000000 -0.016179 0.004411 0.589853
    7 -2.928495 1.801988 4.351345 1.070867 -1.045408 -4.737283
    8 4.827512 0.000000 -0.000002 0.744792 0.108717 -0.750507
    9 11.140032 0.000000 0.000000 0.000000 0.000000 -1.358763
    10 10.314563 -0.000001 0.000001 -1.465214 -0.577115 0.102089
    11 1.646836 0.445664 -1.699647 -0.161704 0.581044 -0.283978
    12 0.928312 0.000000 0.000000 0.000000 0.000000 0.000000
    13 0.928313 0.000000 -0.000001 0.000000 0.000000 0.000000
    14 2.979373 -0.388274 -0.044205 -0.041673 -0.012835 1.254620
    15 1.435262 -0.000001 -0.000001 0.000000 0.000000 0.872146
    16 1.482593 -0.000001 0.000001 0.000000 0.000000 0.907041
    17 -2.670674 1.786398 -4.128677 0.813480 1.376974 -2.927480
    18 4.972047 0.000000 0.000000 -0.658044 -0.789163 -0.754323
    19 11.585358 0.000000 0.000001 0.000000 0.000000 -1.702272
    20 10.127058 0.000000 0.000001 2.371760 0.455799 0.128958
    21 1.537458 0.109715 1.664489 -0.264662 -0.055995 0.783079
    22 0.928313 0.000000 0.000002 0.000000 0.000000 -0.453501
    23 0.928311 0.000000 0.000001 0.000000 0.000000 0.000000
    24 2.686395 -0.427337 0.044204 -0.002083 0.043575 -0.071949
    25 1.435260 0.000000 0.000001 0.000000 0.000000 0.780426
    26 1.482593 0.000000 -0.000001 0.000000 0.000000 1.168644
    27 2.046984 0.000001 0.000000 0.235879 0.008822 -0.670341
    28 -0.000005 0.000007 3.713254 -3.263414 -0.172090 1.259967
    29 18.045723 0.000000 0.000000 0.000000 0.000000 -1.667132
    30 17.597597 0.000000 0.000000 -0.234934 0.173708 -0.217920
    31 0.000005 -0.000003 -3.713254 0.923389 2.363596 5.571880
    32 18.045721 0.000000 0.000000 0.000000 0.000000 -2.661252
    33 17.597597 0.000000 0.000000 0.385404 -0.011609 0.817678
  time 6
    0 -0.456080 3.019774 -20.600716 0.000000 0.000000 -1.585458
    1 0.578139 -0.105472 0.000000 -1.570795 -1.570787 0.000000
    2 1.293670 0.684478 -0.000001 0.003719 0.054349 0.203147
    3 5.309685 -0.003834 0.000000 -0.011010 -0.087404 0.077378
    4 4.826790 -0.004591 0.000000 -0.261338 -0.040975 -0.008170
    5 5.792767 -0.005304 0.000000 -0.259347 -0.172051 0.066403
    6 6.662322 -0.001452 0.000000 -0.016179 0.004411 0.589853
    7 -2.928495 1.801988 4.351345 1.607740 -1.286722 -5.339980
    8 4.827512 0.000000 -0.000002 0.844517 0.149734 -1.044511
    9 11.140032 0.000000 0.000000 0.000000 0.000000 -1.672993
    10 10.314563 -0.000001 0.000001 -1.913032 -0.639969 0.610434
    11 1.646836 0.445664 -1.699647 -0.161704 0.581044 -0.283978
    12 0.928312 0.000000 0.000000 0.000000 0.000000 0.000000
    13 0.928313 0.000000 -0.000001 0.000000 0.000000 0.000000
    14 2.979373 -0.388274 -0.044205 -0.041673 -0.012835 1.254620
    15 1.435262 -0.000001 -0.000001 0.000000 0.000000 0.872146
    16 1.482593 -0.000001 0.000001 0.000000 0.000000 0.907041
    17 -2.670674 1.786398 -4.128677 1.270886 1.424165 -2.463616
    18 4.972047 0.000000 0.000000 -0.849393 -0.957495 -0.431263
    19 11.585358 0.000000 0.000001 0.000000 0.000000 -1.949843
    20 10.127058 0.000000 0.000001 2.156129 0.355467 0.180730
    21 1.537458 0.109715 1.664489 -0.264662 -0.055995 0.783079
    22 0.928313 0.000000 0.000002 0.000000 0.000000 -0.453501
    23 0.928311 0.000000 0.000001 0.000000 0.000000 0.000000
    24 2.686395 -0.427337 0.044204 0.001824 0.043587 0.017898
    25 1.435260 0.000000 0.000001 0.000000 0.000000 0.830867
    26 1.482593 0.000000 -0.000001 0.000000 0.000000 1.168644
    27 2.046984 0.000001 0.000000 0.261298 -0.007730 -0.635060
    28 -0.000005 0.000007 3.713254 -3.254498 -0.175733 1.256229
    29 18.045723 0.000000 0.000000 0.000000 0.000000 -1.682083
    30 17.597597 0.000000 0.000000 -0.229283 0.166817 -0.206137
    31 0.000005 -0.000003 -3.713254 0.942845 2.378072 5.616268
    32 18.045721 0.000000 0.000000 0.000000 0.000000 -2.658182
    33 17.597597 0.000000 0.000000 0.366145 -0.004942 0.845437
  time 7
    0 -0.549833 2.957272 -20.600716 0.000000 0.000000 -1.585458
    1 0.578139 -0.105472 0.000000 -1.570795 -1.570787 0.000000
    2 1.293670 0.684478 -0.000001 0.003264 0.051245 0.213744
    3 5.309685 -0.003834 0.000000 -0.011776 -0.082826 0.086404
    4 4.826790 -0.004591 0.000000 -0.245830 -0.067869 -0.007354
    5 5.792767 -0.005304 0.000000 -0.271147 -0.154637 0.057475
    6 6.662322 -0.001452 0.000000 -0.016179 0.004411 0.589853
    7 -2.928495 1.801988 4.351345 1.942555 -1.445626 -5.676877
    8 4.827512 0.000000 -0.000002 0.785367 -0.034884 -1.324912
    9 11.140032 0.000000 0.000000 0.000000 0.000000 -1.799497
    10 10.314563 -0.000001 0.000001 -2.120023 -0.534868 0.720232
    11 1.646836 0.445664 -1.699647 -0.161704 0.581044 -0.283978
    12 0.928312 0.000000 0.000000 0.000000 0.000000 0.000000
    13 0.928313 0.000000 -0.000001 0.000000 0.000000 0.000000
    14 2.979373 -0.388274 -0.044205 -0.041673 -0.012835 1.254620
    15 1.435262 -0.000001 -0.000001 0.000000 0.000000 0.872146
    16 1.482593 -0.000001 0.000001 0.000000 0.000000 0.907041
    17 -2.670674 1.786398 -4.128677 -1.285832 1.716488 -5.014435
    18 4.972047 0.000000 0.000000 -1.066631 -1.065886 -0.060017
    19 11.585358 0.000000 0.000001 0.000000 0.000000 -2.184183
    20 10.127058 0.000000 0.000001 1.924719 0.290123 0.268218
    21 1.537458 0.109715 1.664489 -0.264662 -0.055995 0.783079
    22 0.928313 0.000000 0.000002 0.000000 0.000000 -0.453501
    23 0.928311 0.000000 0.000001 0.000000 0.000000 0.000000
    24 2.686395 -0.427337 0.044204 0.005887 0.043227 0.111712
    25 1.435260 0.000000 0.000001 0.000000 0.000000 0.883571
    26 1.482593 0.000000 -0.000001 0.000000 0.000000 1.168644
    27 2.046984 0.000001 0.000000 0.297186 0.029002 -0.598319
    28 -0.000005 0.000007 3.713254 -3.249992 -0.177459 1.254983
    29 18.045723 0.000000 0.000000 0.000000 0.000000 -1.685561
    30 17.597597 0.000000 0.000000 -0.226420 0.163273 -0.203524
    31 0.000005 -0.000003 -3.713254 0.953771 2.385837 5.632086
    32 18.045721 0.000000 0.000000 0.000000 0.000000 -2.656214
    33 17.597597 0.000000 0.000000 0.361448 -0.006185 0.856430
  time 8
    0 -0.553739 3.000243 -20.600716 0.000000 0.000000 -1.585458
    1 0.578139 -0.105472 0.000000 -1.570795 -1.570787 0.000000
    2 1.293670 0.684478 -0.000001 0.002102 0.045481 0.224994
    3 5.309685 -0.003834 0.000000 -0.012456 -0.076462 0.095907
    4 4.826790 -0.004591 0.000000 -0.224124 -0.071200 0.019148
    5 5.792767 -0.005304 0.000000 -0.275158 -0.121224 0.070701
    6 6.662322 -0.001452 0.000000 -0.016179 0.004411 0.589853
    7 -2.928495 1.801988 4.351345 1.575246 -1.544535 -5.307402
    8 4.827512 0.000000 -0.000002 0.720478 -0.187865 -1.523775
    9 11.140032 0.000000 0.000000 0.000000 0.000000 -1.727261
    10 10.314563 -0.000001 0.000001 -2.179164 -0.453842 0.659904
    11 1.646836 0.445664 -1.699647 -0.161704 0.581044 -0.283978
    12 0.928312 0.000000 0.000000 0.000000 0.000000 0.000000
    13 0.928313 0.000000 -0.000001 0.000000 0.000000 0.000000
    14 2.979373 -0.388274 -0.044205 -0.041673 -0.012835 1.254620
    15 1.435262 -0.000001 -0.000001 0.000000 0.000000 0.872146
    16 1.482593 -0.000001 0.000001 0.000000 0.000000 0.907041
    17 -2.670674 1.786398 -4.128677 -0.991881 1.737994 -4.716750
    18 4.972047 0.000000 0.000000 -1.206859 -1.094491 0.207802
    19 11.585358 0.000000 0.000001 0.000000 0.000000 -2.340028
    20 10.127058 0.000000 0.000001 1.774794 0.289650 0.316789
    21 1.537458 0.109715 1.664489 -0.264662 -0.055995 0.783079
    22 0.928313 0.000000 0.000002 0.000000 0.000000 -0.453501
    23 0.928311 0.000000 0.000001 0.000000 0.000000 0.000000
    24 2.686395 -0.427337 0.044204 0.010021 0.042460 0.208767
    25 1.435260 0.000000 0.000001 0.000000 0.000000 0.938005
    26 1.482593 0.000000 -0.000001 0.000000 0.000000 1.168644
    27 2.046984 0.000001 0.000000 0.329929 0.072992 -0.568818
    28 -0.000005 0.000007 3.713254 -3.249992 -0.177363 1.255366
    29 18.045723 0.000000 0.000000 0.000000 0.000000 -1.683119
    30 17.597597 0.000000 0.000000 -0.226395 0.163126 -0.205587
    31 0.000005 -0.000003 -3.713254 0.955209 2.386124 5.628731
    32 18.045721 0.000000 0.000000 0.000000 0.000000 -2.656135
    33 17.597597 0.000000 0.000000 0.364401 -0.009321 0.855044
  time 9
    0 -0.432642 3.136965 -20.600716 0.000000 0.000000 -1.585458
    1 0.578139 -0.105472 0.000000 -1.570795 -1.570787 0.000000
    2 1.293670 0.684478 -0.000001 -0.000577 0.033820 0.237901
    3 5.309685 -0.003834 0.000000 -0.012831 -0.066299 0.105834
    4 4.826790 -0.004591 0.000000 -0.189351 -0.033533 0.070322
    5 5.792767 -0.005304 0.000000 -0.254760 -0.066946 0.104046
    6 6.662322 -0.001452 0.000000 -0.016179 0.004411 0.589853
    7 -2.928495 1.801988 4.351345 1.068566 -1.478891 -4.798607
    8 4.827512 0.000000 -0.000002 0.698476 -0.224362 -1.587636
    9 11.140032 0.000000 0.000000 0.000000 0.000000 -1.544316
    10 10.314563 -0.000001 0.000001 -2.122013 -0.450938 0.548190
    11 1.646836 0.445664 -1.699647 -0.161704 0.581044 -0.283978
    12 0.928312 0.000000 0.000000 0.000000 0.000000 0.000000
    13 0.928313 0.000000 -0.000001 0.000000 0.000000 0.000000
    14 2.979373 -0.388274 -0.044205 -0.041673 -0.012835 1.254620
    15 1.435262 -0.000001 -0.000001 0.000000 0.000000 0.872146
    16 1.482593 -0.000001 0.000001 0.000000 0.000000 0.907041
    17 -2.670674 1.786398 -4.128677 -1.010414 1.736101 -4.735714
    18 4.972047 0.000000 0.000000 -1.124317 -1.053111 0.238950
    19 11.585358 0.000000 0.000001 0.000000 0.000000 -2.374333
    20 10.127058 0.000000 0.000001 1.740013 0.334284 0.268968
    21 1.537458 0.109715 1.664489 -0.264662 -0.055995 0.783079
    22 0.928313 0.000000 0.000002 0.000000 0.000000 -0.453501
    23 0.928311 0.000000 0.000001 0.000000 0.000000 0.000000
    24 2.686395 -0.427337 0.044204 0.014192 0.041250 0.308280
    25 1.435260 0.000000 0.000001 0.000000 0.000000 0.993903
    26 1.482593 0.000000 -0.000001 0.000000 0.000000 1.168644
    27 2.046984 0.000001 0.000000 0.333548 0.086239 -0.584451
    28 -0.000005 0.000007 3.713254 -3.256224 -0.174966 1.257763
    29 18.045723 0.000000 0.000000 0.000000 0.000000 -1.674459
    30 17.597597 0.000000 0.000000 -0.230373 0.168023 -0.212327
    31 0.000005 -0.000003 -3.713254 0.941408 2.375579 5.600929
    32 18.045721 0.000000 0.000000 0.000000 0.000000 -2.658418
    33 17.597597 0.000000 0.000000 0.375607 -0.012121 0.837031
  time 10
    0 -0.264668 3.316658 -20.600716 0.000000 0.000000 -1.585458
    1 0.578139 -0.105472 0.000000 -1.570795 -1.570787 0.000000
    2 1.293670 0.684478 -0.000001 -0.004030 0.020301 0.251160
    3 5.309685 -0.003834 0.000000 -0.012984 -0.054818 0.115990
    4 4.826790 -0.004591 0.000000 -0.146930 0.017306 0.133160
    5 5.792767 -0.005304 0.000000 -0.224091 -0.007550 0.147710
    6 6.662322 -0.001452 0.000000 -0.016179 0.004411 0.589853
    7 -2.928495 1.801988 4.351345 1.079302 -1.360526 -4.801194
    8 4.827512 0.000000 -0.000002 0.697360 -0.240734 -1.594655
    9 11.140032 0.000000 0.000000 0.000000 0.000000 -1.407162
    10 10.314563 -0.000001 0.000001 -2.008566 -0.454029 0.402277
    11 1.646836 0.445664 -1.699647 -0.161704 0.581044 -0.283978
    12 0.928312 0.000000 0.000000 0.000000 0.000000 0.000000
    13 0.928313 0.000000 -0.000001 0.000000 0.000000 0.000000
    14 2.979373 -0.388274 -0.044205 -0.041673 -0.012835 1.254620
    15 1.435262 -0.000001 -0.000001 0.000000 0.000000 0.872146
    16 1.482593 -0.000001 0.000001 0.000000 0.000000 0.907041
    17 -2.670674 1.786398 -4.128677 -1.241123 1.718855 -4.969227
    18 4.972047 0.000000 0.000000 -0.970956 -0.973002 0.181645
    19 11.585358 0.000000 0.000001 0.000000 0.000000 -2.326714
    20 10.127058 0.000000 0.000001 1.764486 0.392914 0.161722
    21 1.537458 0.109715 1.664489 -0.264662 -0.055995 0.783079
    22 0.928313 0.000000 0.000002 0.000000 0.000000 -0.453501
    23 0.928311 0.000000 0.000001 0.000000 0.000000 0.000000
    24 2.686395 -0.427337 0.044204 0.018315 0.039596 0.409526
    25 1.435260 0.000000 0.000001 0.000000 0.000000 1.050766
    26 1.482593 0.000000 -0.000001 0.000000 0.000000 1.168644
    27 2.046984 0.000001 0.000000 0.325750 0.075883 -0.632019
    28 -0.000005 0.000007 3.713254 -3.264757 -0.171515 1.261022
    29 18.045723 0.000000 0.000000 0.000000 0.000000 -1.662765
    30 17.597597 0.000000 0.000000 -0.235796 0.174643 -0.221358
    31 0.000005 -0.000003 -3.713254 0.920993 2.361582 5.561910
    32 18.045721 0.000000 0.000000 0.000000 0.000000 -2.661488
    33 17.597597 0.000000 0.000000 0.390940 -0.014981 0.811997
  time 11
    0 -0.151383 3.394786 -20.600716 0.000000 0.000000 -1.585458
    1 0.578139 -0.105472 0.000000 -1.570795 -1.570787 0.000000
    2 1.293670 0.684478 -0.000001 -0.006742 0.010270 0.261255
    3 5.309685 -0.003834 0.000000 -0.013035 -0.045470 0.126377
    4 4.826790 -0.004591 0.000000 -0.113111 0.050815 0.176440
    5 5.792767 -0.005304 0.000000 -0.205132 0.029135 0.174764
    6 6.662322 -0.001452 0.000000 -0.016179 0.004411 0.589853
    7 -2.928495 1.801988 4.351345 1.102115 -1.238228 -4.809626
    8 4.827512 0.000000 -0.000002 0.718405 -0.204834 -1.560081
    9 11.140032 0.000000 0.000000 0.000000 0.000000 -1.277760
    10 10.314563 -0.000001 0.000001 -1.889432 -0.441477 0.263680
    11 1.646836 0.445664 -1.699647 -0.161704 0.581044 -0.283978
    12 0.928312 0.000000 0.000000 0.000000 0.000000 0.000000
    13 0.928313 0.000000 -0.000001 0.000000 0.000000 0.000000
    14 2.979373 -0.388274 -0.044205 -0.041673 -0.012835 1.254620
    15 1.435262 -0.000001 -0.000001 0.000000 0.000000 0.872146
    16 1.482593 -0.000001 0.000001 0.000000 0.000000 0.907041
    17 -2.670674 1.786398 -4.128677 -1.563066 1.711073 -5.294688
    18 4.972047 0.000000 0.000000 -0.900701 -0.887912 0.152228
    19 11.585358 0.000000 0.000001 0.000000 0.000000 -2.255571
    20 10.127058 0.000000 0.000001 1.816238 0.442087 0.057277
    21 1.537458 0.109715 1.664489 -0.264662 -0.055995 0.783079
    22 0.928313 0.000000 0.000002 0.000000 0.000000 -0.453501
    23 0.928311 0.000000 0.000001 0.000000 0.000000 0.000000
    24 2.686395 -0.427337 0.044204 0.022258 0.037547 0.511721
    25 1.435260 0.000000 0.000001 0.000000 0.000000 1.108161
    26 1.482593 0.000000 -0.000001 0.000000 0.000000 1.168644
    27 2.046984 0.000001 0.000000 0.330446 0.057945 -0.658297
    28 -0.000005 0.000007 3.713254 -3.269934 -0.169406 1.262651
    29 18.045723 0.000000 0.000000 0.000000 0.000000 -1.657732
    30 17.597597 0.000000 0.000000 -0.239064 0.178728 -0.225072
    31 0.000005 -0.000003 -3.713254 0.906904 2.353242 5.541011
    32 18.045721 0.000000 0.000000 0.000000 0.000000 -2.663141
    33 17.597597 0.000000 0.000000 0.397482 -0.013758 0.797956
  time 12
    0 -0.139664 3.308846 -20.600716 0.000000 0.000000 -1.585458
    1 0.578139 -0.105472 0.000000 -1.570795 -1.570787 0.000000
    2 1.293670 0.684478 -0.000001 -0.007972 0.005500 0.266947
    3 5.309685 -0.003834 0.000000 -0.013103 -0.039417 0.136816
    4 4.826790 -0.004591 0.000000 -0.096459 0.059072 0.188192
    5 5.792767 -0.005304 0.000000 -0.207632 0.036505 0.174328
    6 6.662322 -0.001452 0.000000 -0.016179 0.004411 0.589853
    7 -2.928495 1.801988 4.351345 1.106332 -1.156943 -4.800235
    8 4.827512 0.000000 -0.000002 0.740248 -0.136615 -1.508698
    9 11.140032 0.000000 0.000000 0.000000 0.000000 -1.193642
    10 10.314563 -0.000001 0.000001 -1.820530 -0.414687 0.175249
    11 1.646836 0.445664 -1.699647 -0.161704 0.581044 -0.283978
    12 0.928312 0.000000 0.000000 0.000000 0.000000 0.000000
    13 0.928313 0.000000 -0.000001 0.000000 0.000000 0.000000
    14 2.979373 -0.388274 -0.044205 -0.041673 -0.012835 1.254620
    15 1.435262 -0.000001 -0.000001 0.000000 0.000000 0.872146
    16 1.482593 -0.000001 0.000001 0.000000 0.000000 0.907041
    17 -2.670674 1.786398 -4.128677 1.405395 1.428214 -2.327704
    18 4.972047 0.000000 0.000000 -0.926120 -0.841711 0.171063
    19 11.585358 0.000000 0.000001 0.000000 0.000000 -2.219223
    20 10.127058 0.000000 0.000001 1.866727 0.464404 0.017159
    21 1.537458 0.109715 1.664489 -0.264662 -0.055995 0.783079
    22 0.928313 0.000000 0.000002 0.000000 0.000000 -0.453501
    23 0.928311 0.000000 0.000001 0.000000 0.000000 0.000000
    24 2.686395 -0.427337 0.044204 0.025973 0.035054 0.614168
    25 1.435260 0.000000 0.000001 0.000000 0.000000 1.165723
    26 1.482593 0.000000 -0.000001 0.000000 0.000000 1.168644
    27 2.046984 0.000001 0.000000 0.343759 0.036673 -0.642177
    28 -0.000005 0.000007 3.713254 -3.270221 -0.169597 1.261597
    29 18.045723 0.000000 0.000000 0.000000 0.000000 -1.663505
    30 17.597597 0.000000 0.000000 -0.239140 0.179097 -0.220350
    31 0.000005 -0.000003 -3.713254 0.904029 2.352475 5.549159
    32 18.045721 0.000000 0.000000 0.000000 0.000000 -2.663771
    33 17.597597 0.000000 0.000000 0.390235 -0.006895 0.801604
  time 13
    0 -0.159196 3.140872 -20.600716 0.000000 0.000000 -1.585458
    1 0.578139 -0.105472 0.000000 -1.570795 -1.570787 0.000000
    2 1.293670 0.684478 -0.000001 -0.008511 0.003175 0.270111
    3 5.309685 -0.003834 0.000000 -0.013188 -0.035019 0.147202
    4 4.826790 -0.004591 0.000000 -0.088658 0.056963 0.184598
    5 5.792767 -0.005304 0.000000 -0.220332 0.030669 0.160313
    6 6.662322 -0.001452 0.000000 -0.016179 0.004411 0.589853
    7 -2.928495 1.801988 4.351345 1.086203 -1.147954 -4.777431
    8 4.827512 0.000000 -0.000002 0.746306 -0.095513 -1.493534
    9 11.140032 0.000000 0.000000 0.000000 0.000000 -1.175456
    10 10.314563 -0.000001 0.000001 -1.838727 -0.390332 0.164856
    11 1.646836 0.445664 -1.699647 -0.161704 0.581044 -0.283978
    12 0.928312 0.000000 0.000000 0.000000 0.000000 0.000000
    13 0.928313 0.000000 -0.000001 0.000000 0.000000 0.000000
    14 2.979373 -0.388274 -0.044205 -0.041673 -0.012835 1.254620
    15 1.435262 -0.000001 -0.000001 0.000000 0.000000 0.872146
    16 1.482593 -0.000001 0.000001 0.000000 0.000000 0.907041
    17 -2.670674 1.786398 -4.128677 1.503411 1.429633 -2.228763
    18 4.972047 0.000000 0.000000 -0.946100 -0.854407 0.182444
    19 11.585358 0.000000 0.000001 0.000000 0.000000 -2.239235
    20 10.127058 0.000000 0.000001 1.918549 0.445303 0.094493
    21 1.537458 0.109715 1.664489 -0.264662 -0.055995 0.783079
    22 0.928313 0.000000 0.000002 0.000000 0.000000 -0.453501
    23 0.928311 0.000000 0.000001 0.000000 0.000000 0.000000
    24 2.686395 -0.427337 0.044204 0.029413 0.032250 0.716112
    25 1.435260 0.000000 0.000001 0.000000 0.000000 1.222985
    26 1.482593 0.000000 -0.000001 0.000000 0.000000 1.168644
    27 2.046984 0.000001 0.000000 0.351040 0.005016 -0.604342
    28 -0.000005 0.000007 3.713254 -3.268208 -0.170748 1.259392
    29 18.045723 0.000000 0.000000 0.000000 0.000000 -1.674533
    30 17.597597 0.000000 0.000000 -0.237823 0.177744 -0.211364
    31 0.000005 -0.000003 -3.713254 0.905754 2.355159 5.571018
    32 18.045721 0.000000 0.000000 0.000000 0.000000 -2.663771
    33 17.597597 0.000000 0.000000 0.376244 0.003401 0.813290
  time 14
    0 -0.202166 2.941647 -20.600716 0.000000 0.000000 -1.585458
    1 0.578139 -0.105472 0.000000 -1.570795 -1.570787 0.000000
    2 1.293670 0.684478 -0.000001 -0.008645 0.001869 0.272120
    3 5.309685 -0.003834 0.000000 -0.013273 -0.031304 0.157359
    4 4.826790 -0.004591 0.000000 -0.084614 0.050563 0.174632
    5 5.792767 -0.005304 0.000000 -0.236719 0.020494 0.140526
    6 6.662322 -0.001452 0.000000 -0.016179 0.004411 0.589853
    7 -2.928495 1.801988 4.351345 1.050258 -1.182816 -4.746673
    8 4.827512 0.000000 -0.000002 0.741523 -0.073598 -1.502112
    9 11.140032 0.000000 0.000000 0.000000 0.000000 -1.192192
    10 10.314563 -0.000001 0.000001 -1.911041 -0.373097 0.201320
    11 1.646836 0.445664 -1.699647 -0.161704 0.581044 -0.283978
    12 0.928312 0.000000 0.000000 0.000000 0.000000 0.000000
    13 0.928313 0.000000 -0.000001 0.000000 0.000000 0.000000
    14 2.979373 -0.388274 -0.044205 -0.041673 -0.012835 1.254620
    15 1.435262 -0.000001 -0.000001 0.000000 0.000000 0.872146
    16 1.482593 -0.000001 0.000001 0.000000 0.000000 0.907041
    17 -2.670674 1.786398 -4.128677 -1.398273 1.713912 -5.127934
    18 4.972047 0.000000 0.000000 -0.941222 -0.900929 0.167868
    19 11.585358 0.000000 0.000001 0.000000 0.000000 -2.280402
    20 10.127058 0.000000 0.000001 1.976190 0.394522 0.243507
    21 1.537458 0.109715 1.664489 -0.264662 -0.055995 0.783079
    22 0.928313 0.000000 0.000002 0.000000 0.000000 -0.453501
    23 0.928311 0.000000 0.000001 0.000000 0.000000 0.000000
    24 2.686395 -0.427337 0.044204 0.032493 0.029134 0.816799
    25 1.435260 0.000000 0.000001 0.000000 0.000000 1.279582
    26 1.482593 0.000000 -0.000001 0.000000 0.000000 1.168644
    27 2.046984 0.000001 0.000000 0.354012 -0.032749 -0.556044
    28 -0.000005 0.000007 3.713254 -3.265140 -0.172282 1.256804
    29 18.045723 0.000000 0.000000 0.000000 0.000000 -1.687634
    30 17.597597 0.000000 0.000000 -0.235897 0.175750 -0.200681
    31 0.000005 -0.000003 -3.713254 0.908917 2.359377 5.598245
    32 18.045721 0.000000 0.000000 0.000000 0.000000 -2.663220
    33 17.597597 0.000000 0.000000 0.359871 0.015432 0.827793
  time 15
    0 -0.233417 2.758048 -20.600716 0.000000 0.000000 -1.585458
    1 0.578139 -0.105472 0.000000 -1.570795 -1.570787 0.000000
    2 1.293670 0.684478 -0.000001 -0.008915 0.000131 0.274179
    3 5.309685 -0.003834 0.000000 -0.013222 -0.027445 0.167215
    4 4.826790 -0.004591 0.000000 -0.079101 0.045889 0.167290
    5 5.792767 -0.005304 0.000000 -0.250353 0.014969 0.122836
    6 6.662322 -0.001452 0.000000 -0.016179 0.004411 0.589853
    7 -2.928495 1.801988 4.351345 1.009329 -1.216554 -4.710550
    8 4.827512 0.000000 -0.000002 0.734668 -0.056799 -1.515716
    9 11.140032 0.000000 0.000000 0.000000 0.000000 -1.202916
    10 10.314563 -0.000001 0.000001 -1.986010 -0.357079 0.237841
    11 1.646836 0.445664 -1.699647 -0.161704 0.581044 -0.283978
    12 0.928312 0.000000 0.000000 0.000000 0.000000 0.000000
    13 0.928313 0.000000 -0.000001 0.000000 0.000000 0.000000
    14 2.979373 -0.388274 -0.044205 -0.041673 -0.012835 1.254620
    15 1.435262 -0.000001 -0.000001 0.000000 0.000000 0.872146
    16 1.482593 -0.000001 0.000001 0.000000 0.000000 0.907041
    17 -2.670674 1.786398 -4.128677 -1.190396 1.722746 -4.917793
    18 4.972047 0.000000 0.000000 -0.925933 -0.946005 0.148102
    19 11.585358 0.000000 0.000001 0.000000 0.000000 -2.315769
    20 10.127058 0.000000 0.000001 2.022472 0.337878 0.382467
    21 1.537458 0.109715 1.664489 -0.264662 -0.055995 0.783079
    22 0.928313 0.000000 0.000002 0.000000 0.000000 -0.453501
    23 0.928311 0.000000 0.000001 0.000000 0.000000 0.000000
    24 2.686395 -0.427337 0.044204 0.035177 0.025790 0.915446
    25 1.435260 0.000000 0.000001 0.000000 0.000000 1.335014
    26 1.482593 0.000000 -0.000001 0.000000 0.000000 1.168644
    27 2.046984 0.000001 0.000000 0.354874 -0.072933 -0.508110
    28 -0.000005 0.000007 3.713254 -3.262647 -0.173528 1.254503
    29 18.045723 0.000000 0.000000 0.000000 0.000000 -1.699624
    30 17.597597 0.000000 0.000000 -0.234225 0.174052 -0.190824
    31 0.000005 -0.000003 -3.713254 0.910834 2.363020 5.622308
    32 18.045721 0.000000 0.000000 0.000000 0.000000 -2.662590
    33 17.597597 0.000000 0.000000 0.345108 0.027148 0.840264
end
