version 1
nodes
  0 "Bip01" -1
  1 "Bip01 Pelvis" 0
  2 "Bip01 Spine" 1
  3 "Bip01 Spine1" 2
  4 "Bip01 Spine2" 3
  5 "Bip01 Spine3" 4
  6 "Bip01 Neck" 5
  7 "Bip01 L Arm" 6
  8 "Bip01 L Arm1" 7
  9 "Bip01 L Arm2" 8
  10 "Bip01 L Hand" 9
  11 "Bip01 L Finger0" 10
  12 "Bip01 L Finger01" 11
  13 "Bip01 L Finger02" 12
  14 "Bip01 L Finger1" 10
  15 "Bip01 L Finger11" 14
  16 "Bip01 L Finger12" 15
  17 "Bip01 R Arm" 6
  18 "Bip01 R Arm1" 17
  19 "Bip01 R Arm2" 18
  20 "Bip01 R Hand" 19
  21 "Bip01 R Finger0" 20
  22 "Bip01 R Finger01" 21
  23 "Bip01 R Finger02" 22
  24 "Bip01 R Finger1" 20
  25 "Bip01 R Finger11" 24
  26 "Bip01 R Finger12" 25
  27 "Bip01 Head" 6
  28 "Bip01 L Leg" 1
  29 "Bip01 L Leg1" 28
  30 "Bip01 L Foot" 29
  31 "Bip01 R Leg" 1
  32 "Bip01 R Leg1" 31
  33 "Bip01 R Foot" 32
end
skeleton
  time 0
    0 -0.698275 1.879115 -20.600716 0.000000 0.000000 -1.585458
    1 -0.753933 0.031251 0.000000 -1.570795 -1.570787 0.000000
    2 1.293670 0.684478 -0.000001 -0.059600 0.019138 0.144336
    3 5.309685 -0.003834 0.000000 0.005462 0.003404 0.072344
    4 4.826790 -0.004591 0.000000 0.004597 -0.023418 0.258769
    5 5.792767 -0.005304 0.000000 -0.035454 -0.006867 0.232443
    6 6.662322 -0.001452 0.000000 -0.091910 0.032655 0.231870
    7 -3.518356 0.356631 4.277124 1.379418 -1.057945 -4.734025
    8 4.827512 0.000000 -0.000002 -0.679112 0.050475 -0.681446
    9 11.140032 0.000000 0.000000 0.000000 0.000000 -0.533591
    10 10.314563 -0.000001 0.000001 -1.909525 0.171139 0.321743
    11 1.646836 0.445664 -1.699647 -0.392035 3.352851 -0.875707
    12 0.928312 0.000000 0.000000 0.000000 0.000000 0.593404
    13 0.928313 0.000000 -0.000001 0.000000 0.000000 1.204231
    14 2.979373 -0.388274 -0.044205 -0.030851 -0.030823 0.768363
    15 1.435262 -0.000001 -0.000001 0.000000 0.000000 1.204014
    16 1.482593 -0.000001 0.000001 0.000000 0.000000 1.153221
    17 -2.975371 1.071532 -4.156022 -1.395312 0.723683 -4.673936
    18 4.972047 0.000000 0.000000 0.294761 0.109466 -0.632726
    19 11.585358 0.000000 0.000001 0.000000 0.000000 -0.619605
    20 10.127058 0.000000 0.000001 2.058867 -0.122271 0.506520
    21 1.537458 0.109715 1.664489 -3.079588 0.031470 0.928526
    22 0.928313 0.000000 0.000002 0.000000 0.000000 0.061034
    23 0.928311 0.000000 0.000001 0.000000 0.000000 0.671897
    24 2.686395 -0.427337 0.044204 -0.001208 0.043611 -0.052337
    25 1.435260 0.000000 0.000001 0.000000 0.000000 1.186618
    26 1.482593 0.000000 -0.000001 0.000000 0.000000 1.684243
    27 2.046984 0.000001 0.000000 0.160527 -0.008822 -0.095144
    28 -0.000005 0.000007 3.713254 -3.289109 -0.165283 1.249519
    29 18.045723 0.000000 0.000000 0.000000 0.000000 -1.732931
    30 17.597597 0.000000 0.000000 -0.251607 0.197234 -0.164508
    31 0.000005 -0.000003 -3.713254 0.821892 2.312307 5.493555
    32 18.045721 0.000000 0.000000 0.000000 0.000000 -2.673768
    33 17.597597 0.000000 0.000000 0.379969 0.033854 0.755924
  time 1
    0 -0.698275 1.761924 -20.600716 0.000000 0.000000 -1.585458
    1 -0.753933 0.031251 0.000000 -1.570795 -1.570787 0.000000
    2 1.293670 0.684478 -0.000001 -0.059600 0.019162 0.144336
    3 5.309685 -0.003834 0.000000 0.010823 0.003020 0.072344
    4 4.826790 -0.004591 0.000000 -0.013409 -0.019775 0.222698
    5 5.792767 -0.005304 0.000000 0.016998 -0.004290 0.227169
    6 6.662322 -0.001452 0.000000 -0.091910 0.032655 0.231870
    7 -3.518356 0.356631 4.277124 1.337818 -1.124476 -4.694644
    8 4.827512 0.000000 -0.000002 -0.644436 0.057894 -0.698863
    9 11.140032 0.000000 0.000000 0.000000 0.000000 -1.018015
    10 10.314563 -0.000001 0.000001 -2.092728 0.022388 0.163578
    11 1.646836 0.445664 -1.699647 -0.392035 3.352851 -0.875707
    12 0.928312 0.000000 0.000000 0.000000 0.000000 0.593404
    13 0.928313 0.000000 -0.000001 0.000000 0.000000 1.204231
    14 2.979373 -0.388274 -0.044205 -0.030851 -0.030823 0.768363
    15 1.435262 -0.000001 -0.000001 0.000000 0.000000 1.204014
    16 1.482593 -0.000001 0.000001 0.000000 0.000000 1.153221
    17 -2.975371 1.071532 -4.156022 -1.393401 0.728678 -4.672787
    18 4.972047 0.000000 0.000000 0.160254 0.148998 -0.627734
    19 11.585358 0.000000 0.000001 0.000000 0.000000 -1.095227
    20 10.127058 0.000000 0.000001 1.841623 -0.146291 0.814353
    21 1.537458 0.109715 1.664489 -3.079588 0.031470 0.928526
    22 0.928313 0.000000 0.000002 0.000000 0.000000 0.061034
    23 0.928311 0.000000 0.000001 0.000000 0.000000 0.671897
    24 2.686395 -0.427337 0.044204 -0.001208 0.043611 -0.052337
    25 1.435260 0.000000 0.000001 0.000000 0.000000 1.186618
    26 1.482593 0.000000 -0.000001 0.000000 0.000000 1.684243
    27 2.046984 0.000001 0.000000 0.170565 -0.031864 -0.084134
    28 -0.000005 0.000007 3.713254 -3.289109 -0.165283 1.249519
    29 18.045723 0.000000 0.000000 0.000000 0.000000 -1.732931
    30 17.597597 0.000000 0.000000 -0.251607 0.197234 -0.164508
    31 0.000005 -0.000003 -3.713254 0.821892 2.312307 5.493555
    32 18.045721 0.000000 0.000000 0.000000 0.000000 -2.673768
    33 17.597597 0.000000 0.000000 0.379969 0.033854 0.755924
  time 2
    0 -0.690462 1.613481 -20.600716 0.000000 0.000000 -1.585458
    1 -0.753933 0.031251 0.000000 -1.570795 -1.570787 0.000000
    2 1.293670 0.684478 -0.000001 -0.059584 0.019198 0.144336
    3 5.309685 -0.003834 0.000000 0.017766 0.002601 0.072344
    4 4.826790 -0.004591 0.000000 -0.036680 -0.015975 0.176220
    5 5.792767 -0.005304 0.000000 0.084344 -0.000491 0.220442
    6 6.662322 -0.001452 0.000000 -0.091910 0.032655 0.231870
    7 -3.518356 0.356631 4.277124 1.280114 -1.189824 -4.639261
    8 4.827512 0.000000 -0.000002 -0.598678 0.076825 -0.726245
    9 11.140032 0.000000 0.000000 0.000000 0.000000 -1.507654
    10 10.314563 -0.000001 0.000001 -2.254795 -0.153622 0.030381
    11 1.646836 0.445664 -1.699647 -0.392035 3.352851 -0.875707
    12 0.928312 0.000000 0.000000 0.000000 0.000000 0.593404
    13 0.928313 0.000000 -0.000001 0.000000 0.000000 1.204231
    14 2.979373 -0.388274 -0.044205 -0.030851 -0.030823 0.768363
    15 1.435262 -0.000001 -0.000001 0.000000 0.000000 1.204014
    16 1.482593 -0.000001 0.000001 0.000000 0.000000 1.153221
    17 -2.975371 1.071532 -4.156022 -1.391682 0.733095 -4.671637
    18 4.972047 0.000000 0.000000 0.078837 0.240837 -0.692692
    19 11.585358 0.000000 0.000001 0.000000 0.000000 -1.487535
    20 10.127058 0.000000 0.000001 1.614772 -0.123784 1.082368
    21 1.537458 0.109715 1.664489 -3.079588 0.031470 0.928526
    22 0.928313 0.000000 0.000002 0.000000 0.000000 0.061034
    23 0.928311 0.000000 0.000001 0.000000 0.000000 0.671897
    24 2.686395 -0.427337 0.044204 -0.001208 0.043611 -0.052337
    25 1.435260 0.000000 0.000001 0.000000 0.000000 1.186618
    26 1.482593 0.000000 -0.000001 0.000000 0.000000 1.684243
    27 2.046984 0.000001 0.000000 0.169488 -0.053195 -0.059620
    28 -0.000005 0.000007 3.713254 -3.289109 -0.165283 1.249519
    29 18.045723 0.000000 0.000000 0.000000 0.000000 -1.732931
    30 17.597597 0.000000 0.000000 -0.251607 0.197234 -0.164508
    31 0.000005 -0.000003 -3.713254 0.821892 2.312307 5.493555
    32 18.045721 0.000000 0.000000 0.000000 0.000000 -2.673768
    33 17.597597 0.000000 0.000000 0.379969 0.033854 0.755924
  time 3
    0 -0.678743 1.500197 -20.600716 0.000000 0.000000 -1.585458
    1 -0.753933 0.031251 0.000000 -1.570795 -1.570787 0.000000
    2 1.293670 0.684478 -0.000001 -0.059600 0.019138 0.144336
    3 5.309685 -0.003834 0.000000 0.022820 0.002421 0.072344
    4 4.826790 -0.004591 0.000000 -0.052340 -0.013303 0.142199
    5 5.792767 -0.005304 0.000000 0.131526 0.003200 0.215023
    6 6.662322 -0.001452 0.000000 -0.091910 0.032655 0.231870
    7 -3.518356 0.356631 4.277124 1.229887 -1.249376 -4.592597
    8 4.827512 0.000000 -0.000002 -0.562327 0.099337 -0.743921
    9 11.140032 0.000000 0.000000 0.000000 0.000000 -1.902815
    10 10.314563 -0.000001 0.000001 -2.365304 -0.303030 -0.044288
    11 1.646836 0.445664 -1.699647 -0.392035 3.352851 -0.875707
    12 0.928312 0.000000 0.000000 0.000000 0.000000 0.593404
    13 0.928313 0.000000 -0.000001 0.000000 0.000000 1.204231
    14 2.979373 -0.388274 -0.044205 -0.030851 -0.030823 0.768363
    15 1.435262 -0.000001 -0.000001 0.000000 0.000000 1.204014
    16 1.482593 -0.000001 0.000001 0.000000 0.000000 1.153221
    17 -2.975371 1.071532 -4.156022 -1.390344 0.736696 -4.670775
    18 4.972047 0.000000 0.000000 0.015336 0.337658 -0.786203
    19 11.585358 0.000000 0.000001 0.000000 0.000000 -1.815725
    20 10.127058 0.000000 0.000001 1.426559 -0.059197 1.291808
    21 1.537458 0.109715 1.664489 -3.079588 0.031470 0.928526
    22 0.928313 0.000000 0.000002 0.000000 0.000000 0.061034
    23 0.928311 0.000000 0.000001 0.000000 0.000000 0.671897
    24 2.686395 -0.427337 0.044204 -0.001208 0.043611 -0.052337
    25 1.435260 0.000000 0.000001 0.000000 0.000000 1.186618
    26 1.482593 0.000000 -0.000001 0.000000 0.000000 1.684243
    27 2.046984 0.000001 0.000000 0.183533 -0.071546 -0.047941
    28 -0.000005 0.000007 3.713254 -3.289109 -0.165283 1.249519
    29 18.045723 0.000000 0.000000 0.000000 0.000000 -1.732931
    30 17.597597 0.000000 0.000000 -0.251607 0.197234 -0.164508
    31 0.000005 -0.000003 -3.713254 0.821892 2.312307 5.493555
    32 18.045721 0.000000 0.000000 0.000000 0.000000 -2.673768
    33 17.597597 0.000000 0.000000 0.379969 0.033854 0.755924
  time 4
    0 -0.647492 1.425976 -20.600716 0.000000 0.000000 -1.585458
    1 -0.753933 0.031251 0.000000 -1.570795 -1.570787 0.000000
    2 1.293670 0.684478 -0.000001 -0.059870 0.018144 0.144386
    3 5.309685 -0.003834 0.000000 0.025526 0.003799 0.072450
    4 4.826790 -0.004591 0.000000 -0.044920 -0.005489 0.124451
    5 5.792767 -0.005304 0.000000 0.134188 0.012284 0.204517
    6 6.662322 -0.001452 0.000000 -0.091910 0.032655 0.231870
    7 -3.518356 0.356631 4.277124 1.215701 -1.274894 -4.580333
    8 4.827512 0.000000 -0.000002 -0.549413 0.133447 -0.751806
    9 11.140032 0.000000 0.000000 0.000000 0.000000 -2.042505
    10 10.314563 -0.000001 0.000001 -2.399234 -0.353987 -0.059269
    11 1.646836 0.445664 -1.699647 -0.392035 3.352851 -0.875707
    12 0.928312 0.000000 0.000000 0.000000 0.000000 0.593404
    13 0.928313 0.000000 -0.000001 0.000000 0.000000 1.204231
    14 2.979373 -0.388274 -0.044205 -0.030851 -0.030823 0.768363
    15 1.435262 -0.000001 -0.000001 0.000000 0.000000 1.204014
    16 1.482593 -0.000001 0.000001 0.000000 0.000000 1.153221
    17 -2.975371 1.071532 -4.156022 -1.390344 0.736696 -4.670775
    18 4.972047 0.000000 0.000000 0.027436 0.390930 -0.835387
    19 11.585358 0.000000 0.000001 0.000000 0.000000 -1.904511
    20 10.127058 0.000000 0.000001 1.383012 -0.028086 1.299162
    21 1.537458 0.109715 1.664489 -3.079588 0.031470 0.928526
    22 0.928313 0.000000 0.000002 0.000000 0.000000 0.061034
    23 0.928311 0.000000 0.000001 0.000000 0.000000 0.671897
    24 2.686395 -0.427337 0.044204 -0.001208 0.043611 -0.052337
    25 1.435260 0.000000 0.000001 0.000000 0.000000 1.186618
    26 1.482593 0.000000 -0.000001 0.000000 0.000000 1.684243
    27 2.046984 0.000001 0.000000 0.219852 -0.098955 -0.048732
    28 -0.000005 0.000007 3.713254 -3.289109 -0.165283 1.249519
    29 18.045723 0.000000 0.000000 0.000000 0.000000 -1.732931
    30 17.597597 0.000000 0.000000 -0.251607 0.197234 -0.164508
    31 0.000005 -0.000003 -3.713254 0.821892 2.312307 5.493555
    32 18.045721 0.000000 0.000000 0.000000 0.000000 -2.673768
    33 17.597597 0.000000 0.000000 0.379969 0.033854 0.755924
  time 5
    0 -0.616241 1.402538 -20.600716 0.000000 0.000000 -1.585458
    1 -0.753933 0.031251 0.000000 -1.570795 -1.570787 0.000000
    2 1.293670 0.684478 -0.000001 -0.060055 0.017293 0.144453
    3 5.309685 -0.003834 0.000000 0.026734 0.005046 0.072538
    4 4.826790 -0.004591 0.000000 -0.031549 0.004866 0.118983
    5 5.792767 -0.005304 0.000000 0.121147 0.021249 0.198475
    6 6.662322 -0.001452 0.000000 -0.091910 0.032655 0.231870
    7 -3.518356 0.356631 4.277124 1.305419 -1.353075 -4.677780
    8 4.827512 0.000000 -0.000002 -0.583691 0.210364 -0.738202
    9 11.140032 0.000000 0.000000 0.000000 0.000000 -2.230956
    10 10.314563 -0.000001 0.000001 -2.407290 -0.382464 0.002685
    11 1.646836 0.445664 -1.699647 -0.392035 3.352851 -0.875707
    12 0.928312 0.000000 0.000000 0.000000 0.000000 0.593404
    13 0.928313 0.000000 -0.000001 0.000000 0.000000 1.204231
    14 2.979373 -0.388274 -0.044205 -0.030851 -0.030823 0.768363
    15 1.435262 -0.000001 -0.000001 0.000000 0.000000 1.204014
    16 1.482593 -0.000001 0.000001 0.000000 0.000000 1.153221
    17 -2.975371 1.071532 -4.156022 -1.326720 0.847037 -4.617617
    18 4.972047 0.000000 0.000000 -0.023591 0.373735 -0.925037
    19 11.585358 0.000000 0.000001 0.000000 0.000000 -1.784360
    20 10.127058 0.000000 0.000001 1.357627 0.033665 0.830860
    21 1.537458 0.109715 1.664489 -3.079588 0.031470 0.928526
    22 0.928313 0.000000 0.000002 0.000000 0.000000 0.061034
    23 0.928311 0.000000 0.000001 0.000000 0.000000 0.671897
    24 2.686395 -0.427337 0.044204 -0.001208 0.043611 -0.052337
    25 1.435260 0.000000 0.000001 0.000000 0.000000 1.186618
    26 1.482593 0.000000 -0.000001 0.000000 0.000000 1.684243
    27 2.046984 0.000001 0.000000 0.138253 -0.117070 -0.014911
    28 -0.000005 0.000007 3.713254 -3.289109 -0.165283 1.249519
    29 18.045723 0.000000 0.000000 0.000000 0.000000 -1.732931
    30 17.597597 0.000000 0.000000 -0.251607 0.197234 -0.164508
    31 0.000005 -0.000003 -3.713254 0.821892 2.312307 5.493555
    32 18.045721 0.000000 0.000000 0.000000 0.000000 -2.673768
    33 17.597597 0.000000 0.000000 0.379969 0.033854 0.755924
  time 6
    0 -0.592803 1.383006 -20.600716 0.000000 0.000000 -1.585458
    1 -0.753933 0.031251 0.000000 -1.570795 -1.570787 0.000000
    2 1.293670 0.684478 -0.000001 -0.059600 0.019138 0.144336
    3 5.309685 -0.003834 0.000000 0.022820 0.002421 0.072344
    4 4.826790 -0.004591 0.000000 -0.025960 0.009720 0.115411
    5 5.792767 -0.005304 0.000000 0.095101 0.024508 0.193741
    6 6.662322 -0.001452 0.000000 -0.091910 0.032655 0.231870
    7 -3.518356 0.356631 4.277124 1.462618 -1.400533 -4.838946
    8 4.827512 0.000000 -0.000002 -0.588953 0.275513 -0.725465
    9 11.140032 0.000000 0.000000 0.000000 0.000000 -2.267256
    10 10.314563 -0.000001 0.000001 -2.380374 -0.361762 0.076600
    11 1.646836 0.445664 -1.699647 -0.392035 3.352851 -0.875707
    12 0.928312 0.000000 0.000000 0.000000 0.000000 0.593404
    13 0.928313 0.000000 -0.000001 0.000000 0.000000 1.204231
    14 2.979373 -0.388274 -0.044205 -0.030851 -0.030823 0.768363
    15 1.435262 -0.000001 -0.000001 0.000000 0.000000 1.204014
    16 1.482593 -0.000001 0.000001 0.000000 0.000000 1.153221
    17 -2.975371 1.071532 -4.156022 -1.260899 0.933559 -4.560820
    18 4.972047 0.000000 0.000000 -0.065800 0.351157 -1.022008
    19 11.585358 0.000000 0.000001 0.000000 0.000000 -1.686344
    20 10.127058 0.000000 0.000001 1.319620 0.070639 0.451046
    21 1.537458 0.109715 1.664489 -3.079588 0.031470 0.928526
    22 0.928313 0.000000 0.000002 0.000000 0.000000 0.061034
    23 0.928311 0.000000 0.000001 0.000000 0.000000 0.671897
    24 2.686395 -0.427337 0.044204 -0.001208 0.043611 -0.052337
    25 1.435260 0.000000 0.000001 0.000000 0.000000 1.186618
    26 1.482593 0.000000 -0.000001 0.000000 0.000000 1.684243
    27 2.046984 0.000001 0.000000 0.083624 -0.130612 0.013435
    28 -0.000005 0.000007 3.713254 -3.289109 -0.165283 1.249519
    29 18.045723 0.000000 0.000000 0.000000 0.000000 -1.732931
    30 17.597597 0.000000 0.000000 -0.251607 0.197234 -0.164508
    31 0.000005 -0.000003 -3.713254 0.821892 2.312307 5.493555
    32 18.045721 0.000000 0.000000 0.000000 0.000000 -2.673768
    33 17.597597 0.000000 0.000000 0.379969 0.033854 0.755924
  time 7
    0 -0.635773 1.371287 -20.600716 0.000000 0.000000 -1.585458
    1 -0.753933 0.031251 0.000000 -1.570795 -1.570787 0.000000
    2 1.293670 0.684478 -0.000001 -0.056737 0.030931 0.143666
    3 5.309685 -0.003834 0.000000 0.002672 -0.014609 0.071407
    4 4.826790 -0.004591 0.000000 -0.049002 -0.005836 0.113537
    5 5.792767 -0.005304 0.000000 0.034698 0.006807 0.192869
    6 6.662322 -0.001452 0.000000 -0.091910 0.032655 0.231870
    7 -3.518356 0.356631 4.277124 1.287207 -1.386636 -4.660628
    8 4.827512 0.000000 -0.000002 -0.341113 0.183161 -0.804663
    9 11.140032 0.000000 0.000000 0.000000 0.000000 -2.144664
    10 10.314563 -0.000001 0.000001 -2.364736 -0.401105 0.060284
    11 1.646836 0.445664 -1.699647 -0.392035 3.352851 -0.875707
    12 0.928312 0.000000 0.000000 0.000000 0.000000 0.593404
    13 0.928313 0.000000 -0.000001 0.000000 0.000000 1.204231
    14 2.979373 -0.388274 -0.044205 -0.030851 -0.030823 0.768363
    15 1.435262 -0.000001 -0.000001 0.000000 0.000000 1.204014
    16 1.482593 -0.000001 0.000001 0.000000 0.000000 1.153221
    17 -2.975371 1.071532 -4.156022 -1.188963 1.006252 -4.497413
    18 4.972047 0.000000 0.000000 -0.058859 0.309938 -1.169695
    19 11.585358 0.000000 0.000001 0.000000 0.000000 -1.608912
    20 10.127058 0.000000 0.000001 1.278317 0.089363 0.129208
    21 1.537458 0.109715 1.664489 -3.079588 0.031470 0.928526
    22 0.928313 0.000000 0.000002 0.000000 0.000000 0.061034
    23 0.928311 0.000000 0.000001 0.000000 0.000000 0.671897
    24 2.686395 -0.427337 0.044204 -0.001208 0.043611 -0.052337
    25 1.435260 0.000000 0.000001 0.000000 0.000000 1.186618
    26 1.482593 0.000000 -0.000001 0.000000 0.000000 1.684243
    27 2.046984 0.000001 0.000000 0.116238 -0.129963 0.028703
    28 -0.000005 0.000007 3.713254 -3.289109 -0.165283 1.249519
    29 18.045723 0.000000 0.000000 0.000000 0.000000 -1.732931
    30 17.597597 0.000000 0.000000 -0.251607 0.197234 -0.164508
    31 0.000005 -0.000003 -3.713254 0.821892 2.312307 5.493555
    32 18.045721 0.000000 0.000000 0.000000 0.000000 -2.673768
    33 17.597597 0.000000 0.000000 0.379969 0.033854 0.755924
  time 8
    0 -0.709994 1.375193 -20.600716 0.000000 0.000000 -1.585458
    1 -0.753933 0.031251 0.000000 -1.570795 -1.570787 0.000000
    2 1.293670 0.684478 -0.000001 -0.052206 0.049615 0.142645
    3 5.309685 -0.003834 0.000000 -0.028946 -0.041646 0.070665
    4 4.826790 -0.004591 0.000000 -0.087189 -0.032167 0.112214
    5 5.792767 -0.005304 0.000000 -0.057093 -0.022411 0.194800
    6 6.662322 -0.001452 0.000000 -0.091910 0.032655 0.231870
    7 -3.518356 0.356631 4.277124 1.026487 -1.344411 -4.393199
    8 4.827512 0.000000 -0.000002 0.162459 0.145726 -1.013664
    9 11.140032 0.000000 0.000000 0.000000 0.000000 -1.899555
    10 10.314563 -0.000001 0.000001 -2.335165 -0.467424 0.026026
    11 1.646836 0.445664 -1.699647 -0.392035 3.352851 -0.875707
    12 0.928312 0.000000 0.000000 0.000000 0.000000 0.593404
    13 0.928313 0.000000 -0.000001 0.000000 0.000000 1.204231
    14 2.979373 -0.388274 -0.044205 -0.030851 -0.030823 0.768363
    15 1.435262 -0.000001 -0.000001 0.000000 0.000000 1.204014
    16 1.482593 -0.000001 0.000001 0.000000 0.000000 1.153221
    17 -2.975371 1.071532 -4.156022 -1.125339 1.059858 -4.441094
    18 4.972047 0.000000 0.000000 0.082120 0.216089 -1.270992
    19 11.585358 0.000000 0.000001 0.000000 0.000000 -1.603684
    20 10.127058 0.000000 0.000001 1.250407 0.096077 -0.041166
    21 1.537458 0.109715 1.664489 -3.079588 0.031470 0.928526
    22 0.928313 0.000000 0.000002 0.000000 0.000000 0.061034
    23 0.928311 0.000000 0.000001 0.000000 0.000000 0.671897
    24 2.686395 -0.427337 0.044204 -0.001208 0.043611 -0.052337
    25 1.435260 0.000000 0.000001 0.000000 0.000000 1.186618
    26 1.482593 0.000000 -0.000001 0.000000 0.000000 1.684243
    27 2.046984 0.000001 0.000000 0.210719 -0.129019 0.037280
    28 -0.000005 0.000007 3.713254 -3.289109 -0.165283 1.249519
    29 18.045723 0.000000 0.000000 0.000000 0.000000 -1.732931
    30 17.597597 0.000000 0.000000 -0.251607 0.197234 -0.164508
    31 0.000005 -0.000003 -3.713254 0.821892 2.312307 5.493555
    32 18.045721 0.000000 0.000000 0.000000 0.000000 -2.673768
    33 17.597597 0.000000 0.000000 0.379969 0.033854 0.755924
  time 9
    0 -0.772496 1.394725 -20.600716 0.000000 0.000000 -1.585458
    1 -0.753933 0.031251 0.000000 -1.570795 -1.570787 0.000000
    2 1.293670 0.684478 -0.000001 -0.048112 0.066418 0.141791
    3 5.309685 -0.003834 0.000000 -0.059781 -0.065795 0.070612
    4 4.826790 -0.004591 0.000000 -0.125128 -0.057394 0.111949
    5 5.792767 -0.005304 0.000000 -0.146330 -0.048370 0.198973
    6 6.662322 -0.001452 0.000000 -0.091910 0.032655 0.231870
    7 -3.518356 0.356631 4.277124 0.859415 -1.306799 -4.220439
    8 4.827512 0.000000 -0.000002 0.644986 0.282249 -1.181072
    9 11.140032 0.000000 0.000000 0.000000 0.000000 -1.670167
    10 10.314563 -0.000001 0.000001 -2.321897 -0.487377 0.018130
    11 1.646836 0.445664 -1.699647 -0.392035 3.352851 -0.875707
    12 0.928312 0.000000 0.000000 0.000000 0.000000 0.593404
    13 0.928313 0.000000 -0.000001 0.000000 0.000000 1.204231
    14 2.979373 -0.388274 -0.044205 -0.030851 -0.030823 0.768363
    15 1.435262 -0.000001 -0.000001 0.000000 0.000000 1.204014
    16 1.482593 -0.000001 0.000001 0.000000 0.000000 1.153221
    17 -2.975371 1.071532 -4.156022 -1.089610 1.090461 -4.410253
    18 4.972047 0.000000 0.000000 0.325434 0.047838 -1.283438
    19 11.585358 0.000000 0.000001 0.000000 0.000000 -1.683812
    20 10.127058 0.000000 0.000001 1.245008 0.100805 -0.021757
    21 1.537458 0.109715 1.664489 -3.079588 0.031470 0.928526
    22 0.928313 0.000000 0.000002 0.000000 0.000000 0.061034
    23 0.928311 0.000000 0.000001 0.000000 0.000000 0.671897
    24 2.686395 -0.427337 0.044204 -0.001208 0.043611 -0.052337
    25 1.435260 0.000000 0.000001 0.000000 0.000000 1.186618
    26 1.482593 0.000000 -0.000001 0.000000 0.000000 1.684243
    27 2.046984 0.000001 0.000000 0.300288 -0.135303 0.043910
    28 -0.000005 0.000007 3.713254 -3.289109 -0.165283 1.249519
    29 18.045723 0.000000 0.000000 0.000000 0.000000 -1.732931
    30 17.597597 0.000000 0.000000 -0.251607 0.197234 -0.164508
    31 0.000005 -0.000003 -3.713254 0.821892 2.312307 5.493555
    32 18.045721 0.000000 0.000000 0.000000 0.000000 -2.673768
    33 17.597597 0.000000 0.000000 0.379969 0.033854 0.755924
  time 10
    0 -0.803747 1.406444 -20.600716 0.000000 0.000000 -1.585458
    1 -0.753933 0.031251 0.000000 -1.570795 -1.570787 0.000000
    2 1.293670 0.684478 -0.000001 -0.046647 0.072542 0.141490
    3 5.309685 -0.003834 0.000000 -0.077445 -0.074173 0.070507
    4 4.826790 -0.004591 0.000000 -0.147292 -0.069846 0.111619
    5 5.792767 -0.005304 0.000000 -0.198603 -0.056603 0.200925
    6 6.662322 -0.001452 0.000000 -0.091910 0.032655 0.231870
    7 -3.518356 0.356631 4.277124 0.792030 -1.312713 -4.153366
    8 4.827512 0.000000 -0.000002 0.843641 0.376818 -1.242854
    9 11.140032 0.000000 0.000000 0.000000 0.000000 -1.586194
    10 10.314563 -0.000001 0.000001 -2.344169 -0.422274 0.062026
    11 1.646836 0.445664 -1.699647 -0.392035 3.352851 -0.875707
    12 0.928312 0.000000 0.000000 0.000000 0.000000 0.593404
    13 0.928313 0.000000 -0.000001 0.000000 0.000000 1.204231
    14 2.979373 -0.388274 -0.044205 -0.030851 -0.030823 0.768363
    15 1.435262 -0.000001 -0.000001 0.000000 0.000000 1.204014
    16 1.482593 -0.000001 0.000001 0.000000 0.000000 1.153221
    17 -2.975371 1.071532 -4.156022 -1.072414 1.108101 -4.396365
    18 4.972047 0.000000 0.000000 0.538450 -0.143555 -1.247431
    19 11.585358 0.000000 0.000001 0.000000 0.000000 -1.788607
    20 10.127058 0.000000 0.000001 1.249917 0.105628 0.073684
    21 1.537458 0.109715 1.664489 -3.079588 0.031470 0.928526
    22 0.928313 0.000000 0.000002 0.000000 0.000000 0.061034
    23 0.928311 0.000000 0.000001 0.000000 0.000000 0.671897
    24 2.686395 -0.427337 0.044204 -0.001208 0.043611 -0.052337
    25 1.435260 0.000000 0.000001 0.000000 0.000000 1.186618
    26 1.482593 0.000000 -0.000001 0.000000 0.000000 1.684243
    27 2.046984 0.000001 0.000000 0.317909 -0.153595 0.054008
    28 -0.000005 0.000007 3.713254 -3.289109 -0.165283 1.249519
    29 18.045723 0.000000 0.000000 0.000000 0.000000 -1.732931
    30 17.597597 0.000000 0.000000 -0.251607 0.197234 -0.164508
    31 0.000005 -0.000003 -3.713254 0.821892 2.312307 5.493555
    32 18.045721 0.000000 0.000000 0.000000 0.000000 -2.673768
    33 17.597597 0.000000 0.000000 0.379969 0.033854 0.755924
  time 11
    0 -0.764683 1.371287 -20.600716 0.000000 0.000000 -1.585458
    1 -0.753933 0.031251 0.000000 -1.570795 -1.570787 0.000000
    2 1.293670 0.684478 -0.000001 -0.049847 0.059275 0.142126
    3 5.309685 -0.003834 0.000000 -0.081376 -0.052768 0.068705
    4 4.826790 -0.004591 0.000000 -0.155036 -0.063722 0.108642
    5 5.792767 -0.005304 0.000000 -0.214342 -0.031328 0.195755
    6 6.662322 -0.001452 0.000000 -0.091910 0.032655 0.231870
    7 -3.518356 0.356631 4.277124 0.781486 -1.329331 -4.144839
    8 4.827512 0.000000 -0.000002 0.804818 0.373918 -1.270236
    9 11.140032 0.000000 0.000000 0.000000 0.000000 -1.593367
    10 10.314563 -0.000001 0.000001 -2.361324 -0.369162 0.093670
    11 1.646836 0.445664 -1.699647 -0.392035 3.352851 -0.875707
    12 0.928312 0.000000 0.000000 0.000000 0.000000 0.593404
    13 0.928313 0.000000 -0.000001 0.000000 0.000000 1.204231
    14 2.979373 -0.388274 -0.044205 -0.030851 -0.030823 0.768363
    15 1.435262 -0.000001 -0.000001 0.000000 0.000000 1.204014
    16 1.482593 -0.000001 0.000001 0.000000 0.000000 1.153221
    17 -2.975371 1.071532 -4.156022 -1.057607 1.121378 -4.383722
    18 4.972047 0.000000 0.000000 0.624370 -0.262151 -1.192390
    19 11.585358 0.000000 0.000001 0.000000 0.000000 -1.857953
    20 10.127058 0.000000 0.000001 1.251600 0.109222 0.131059
    21 1.537458 0.109715 1.664489 -3.079588 0.031470 0.928526
    22 0.928313 0.000000 0.000002 0.000000 0.000000 0.061034
    23 0.928311 0.000000 0.000001 0.000000 0.000000 0.671897
    24 2.686395 -0.427337 0.044204 -0.001208 0.043611 -0.052337
    25 1.435260 0.000000 0.000001 0.000000 0.000000 1.186618
    26 1.482593 0.000000 -0.000001 0.000000 0.000000 1.684243
    27 2.046984 0.000001 0.000000 0.370944 -0.168878 0.004250
    28 -0.000005 0.000007 3.713254 -3.289109 -0.165283 1.249519
    29 18.045723 0.000000 0.000000 0.000000 0.000000 -1.732931
    30 17.597597 0.000000 0.000000 -0.251607 0.197234 -0.164508
    31 0.000005 -0.000003 -3.713254 0.821892 2.312307 5.493555
    32 18.045721 0.000000 0.000000 0.000000 0.000000 -2.673768
    33 17.597597 0.000000 0.000000 0.379969 0.033854 0.755924
  time 12
    0 -0.678743 1.300972 -20.600716 0.000000 0.000000 -1.585458
    1 -0.753933 0.031251 0.000000 -1.570795 -1.570787 0.000000
    2 1.293670 0.684478 -0.000001 -0.056349 0.032465 0.143549
    3 5.309685 -0.003834 0.000000 -0.080389 -0.010355 0.065561
    4 4.826790 -0.004591 0.000000 -0.158966 -0.047135 0.103461
    5 5.792767 -0.005304 0.000000 -0.218911 0.017989 0.185166
    6 6.662322 -0.001452 0.000000 -0.091910 0.032655 0.231870
    7 -3.518356 0.356631 4.277124 0.780911 -1.448731 -4.154420
    8 4.827512 0.000000 -0.000002 0.597794 0.258032 -1.379502
    9 11.140032 0.000000 0.000000 0.000000 0.000000 -1.735158
    10 10.314563 -0.000001 0.000001 -2.427288 -0.030631 0.259209
    11 1.646836 0.445664 -1.699647 -0.392035 3.352851 -0.875707
    12 0.928312 0.000000 0.000000 0.000000 0.000000 0.593404
    13 0.928313 0.000000 -0.000001 0.000000 0.000000 1.204231
    14 2.979373 -0.388274 -0.044205 -0.030851 -0.030823 0.768363
    15 1.435262 -0.000001 -0.000001 0.000000 0.000000 1.204014
    16 1.482593 -0.000001 0.000001 0.000000 0.000000 1.153221
    17 -2.975371 1.071532 -4.156022 -1.046143 1.129213 -4.373474
    18 4.972047 0.000000 0.000000 0.590790 -0.262151 -1.146933
    19 11.585358 0.000000 0.000001 0.000000 0.000000 -1.875106
    20 10.127058 0.000000 0.000001 1.264012 0.109694 0.130708
    21 1.537458 0.109715 1.664489 -3.079588 0.031470 0.928526
    22 0.928313 0.000000 0.000002 0.000000 0.000000 0.061034
    23 0.928311 0.000000 0.000001 0.000000 0.000000 0.671897
    24 2.686395 -0.427337 0.044204 -0.001208 0.043611 -0.052337
    25 1.435260 0.000000 0.000001 0.000000 0.000000 1.186618
    26 1.482593 0.000000 -0.000001 0.000000 0.000000 1.684243
    27 2.046984 0.000001 0.000000 0.399034 -0.217470 -0.047272
    28 -0.000005 0.000007 3.713254 -3.289109 -0.165283 1.249519
    29 18.045723 0.000000 0.000000 0.000000 0.000000 -1.732931
    30 17.597597 0.000000 0.000000 -0.251607 0.197234 -0.164508
    31 0.000005 -0.000003 -3.713254 0.821892 2.312307 5.493555
    32 18.045721 0.000000 0.000000 0.000000 0.000000 -2.673768
    33 17.597597 0.000000 0.000000 0.379969 0.033854 0.755924
  time 13
    0 -0.600616 1.234564 -20.600716 0.000000 0.000000 -1.585458
    1 -0.753933 0.031251 0.000000 -1.570795 -1.570787 0.000000
    2 1.293670 0.684478 -0.000001 -0.063020 0.005236 0.145173
    3 5.309685 -0.003834 0.000000 -0.076134 0.032095 0.062576
    4 4.826790 -0.004591 0.000000 -0.157230 -0.029147 0.098897
    5 5.792767 -0.005304 0.000000 -0.214378 0.067102 0.173788
    6 6.662322 -0.001452 0.000000 -0.091910 0.032655 0.231870
    7 -3.518356 0.356631 4.277124 1.207937 -1.566564 -4.584165
    8 4.827512 0.000000 -0.000002 0.365738 0.121423 -1.430192
    9 11.140032 0.000000 0.000000 0.000000 0.000000 -1.884122
    10 10.314563 -0.000001 0.000001 -2.442357 0.303966 0.408896
    11 1.646836 0.445664 -1.699647 -0.392035 3.352851 -0.875707
    12 0.928312 0.000000 0.000000 0.000000 0.000000 0.593404
    13 0.928313 0.000000 -0.000001 0.000000 0.000000 1.204231
    14 2.979373 -0.388274 -0.044205 -0.030851 -0.030823 0.768363
    15 1.435262 -0.000001 -0.000001 0.000000 0.000000 1.204014
    16 1.482593 -0.000001 0.000001 0.000000 0.000000 1.153221
    17 -2.975371 1.071532 -4.156022 -1.047385 1.128319 -4.374527
    18 4.972047 0.000000 0.000000 0.529727 -0.195380 -1.107266
    19 11.585358 0.000000 0.000001 0.000000 0.000000 -1.872411
    20 10.127058 0.000000 0.000001 1.288555 0.107709 0.129958
    21 1.537458 0.109715 1.664489 -3.079588 0.031470 0.928526
    22 0.928313 0.000000 0.000002 0.000000 0.000000 0.061034
    23 0.928311 0.000000 0.000001 0.000000 0.000000 0.671897
    24 2.686395 -0.427337 0.044204 -0.001208 0.043611 -0.052337
    25 1.435260 0.000000 0.000001 0.000000 0.000000 1.186618
    26 1.482593 0.000000 -0.000001 0.000000 0.000000 1.684243
    27 2.046984 0.000001 0.000000 0.414759 -0.261578 -0.094110
    28 -0.000005 0.000007 3.713254 -3.289109 -0.165283 1.249519
    29 18.045723 0.000000 0.000000 0.000000 0.000000 -1.732931
    30 17.597597 0.000000 0.000000 -0.251607 0.197234 -0.164508
    31 0.000005 -0.000003 -3.713254 0.821892 2.312307 5.493555
    32 18.045721 0.000000 0.000000 0.000000 0.000000 -2.673768
    33 17.597597 0.000000 0.000000 0.379969 0.033854 0.755924
  time 14
    0 -0.561552 1.203313 -20.600716 0.000000 0.000000 -1.585458
    1 -0.753933 0.031251 0.000000 -1.570795 -1.570787 0.000000
    2 1.293670 0.684478 -0.000001 -0.066608 -0.009277 0.146144
    3 5.309685 -0.003834 0.000000 -0.070059 0.053463 0.061056
    4 4.826790 -0.004591 0.000000 -0.147960 -0.018768 0.097971
    5 5.792767 -0.005304 0.000000 -0.202002 0.091742 0.165919
    6 6.662322 -0.001452 0.000000 -0.091910 0.032655 0.231870
    7 -3.518356 0.356631 4.277124 -1.940645 -1.557723 -1.435481
    8 4.827512 0.000000 -0.000002 0.184142 0.030521 -1.392326
    9 11.140032 0.000000 0.000000 0.000000 0.000000 -1.914915
    10 10.314563 -0.000001 0.000001 -2.468421 0.350334 0.457960
    11 1.646836 0.445664 -1.699647 -0.392035 3.352851 -0.875707
    12 0.928312 0.000000 0.000000 0.000000 0.000000 0.593404
    13 0.928313 0.000000 -0.000001 0.000000 0.000000 1.204231
    14 2.979373 -0.388274 -0.044205 -0.030851 -0.030823 0.768363
    15 1.435262 -0.000001 -0.000001 0.000000 0.000000 1.204014
    16 1.482593 -0.000001 0.000001 0.000000 0.000000 1.153221
    17 -2.975371 1.071532 -4.156022 -1.053881 1.123981 -4.380370
    18 4.972047 0.000000 0.000000 0.496991 -0.118968 -1.082973
    19 11.585358 0.000000 0.000001 0.000000 0.000000 -1.862201
    20 10.127058 0.000000 0.000001 1.291851 0.108560 0.129908
    21 1.537458 0.109715 1.664489 -3.079588 0.031470 0.928526
    22 0.928313 0.000000 0.000002 0.000000 0.000000 0.061034
    23 0.928311 0.000000 0.000001 0.000000 0.000000 0.671897
    24 2.686395 -0.427337 0.044204 -0.001208 0.043611 -0.052337
    25 1.435260 0.000000 0.000001 0.000000 0.000000 1.186618
    26 1.482593 0.000000 -0.000001 0.000000 0.000000 1.684243
    27 2.046984 0.000001 0.000000 0.402955 -0.295979 -0.092955
    28 -0.000005 0.000007 3.713254 -3.289109 -0.165283 1.249519
    29 18.045723 0.000000 0.000000 0.000000 0.000000 -1.732931
    30 17.597597 0.000000 0.000000 -0.251607 0.197234 -0.164508
    31 0.000005 -0.000003 -3.713254 0.821892 2.312307 5.493555
    32 18.045721 0.000000 0.000000 0.000000 0.000000 -2.673768
    33 17.597597 0.000000 0.000000 0.379969 0.033854 0.755924
  time 15
    0 -0.592803 1.222845 -20.600716 0.000000 0.000000 -1.585458
    1 -0.753933 0.031251 0.000000 -1.570795 -1.570787 0.000000
    2 1.293670 0.684478 -0.000001 -0.066675 -0.009673 0.146144
    3 5.309685 -0.003834 0.000000 -0.057313 0.049496 0.061145
    4 4.826790 -0.004591 0.000000 -0.120207 -0.016419 0.102689
    5 5.792767 -0.005304 0.000000 -0.169265 0.086972 0.159088
    6 6.662322 -0.001452 0.000000 -0.091910 0.032655 0.231870
    7 -3.518356 0.356631 4.277124 0.327047 -1.499176 -3.702733
    8 4.827512 0.000000 -0.000002 -0.166692 -0.101823 -1.196843
    9 11.140032 0.000000 0.000000 0.000000 0.000000 -1.862024
    10 10.314563 -0.000001 0.000001 -2.575329 0.135825 0.466843
    11 1.646836 0.445664 -1.699647 -0.392035 3.352851 -0.875707
    12 0.928312 0.000000 0.000000 0.000000 0.000000 0.593404
    13 0.928313 0.000000 -0.000001 0.000000 0.000000 1.204231
    14 2.979373 -0.388274 -0.044205 -0.030851 -0.030823 0.768363
    15 1.435262 -0.000001 -0.000001 0.000000 0.000000 1.204014
    16 1.482593 -0.000001 0.000001 0.000000 0.000000 1.153221
    17 -2.975371 1.071532 -4.156022 -1.057607 1.121378 -4.383722
    18 4.972047 0.000000 0.000000 0.518846 -0.073169 -1.032324
    19 11.585358 0.000000 0.000001 0.000000 0.000000 -1.856483
    20 10.127058 0.000000 0.000001 1.240730 0.117260 0.131609
    21 1.537458 0.109715 1.664489 -3.079588 0.031470 0.928526
    22 0.928313 0.000000 0.000002 0.000000 0.000000 0.061034
    23 0.928311 0.000000 0.000001 0.000000 0.000000 0.671897
    24 2.686395 -0.427337 0.044204 -0.001208 0.043611 -0.052337
    25 1.435260 0.000000 0.000001 0.000000 0.000000 1.186618
    26 1.482593 0.000000 -0.000001 0.000000 0.000000 1.684243
    27 2.046984 0.000001 0.000000 0.353668 -0.270960 -0.068137
    28 -0.000005 0.000007 3.713254 -3.289109 -0.165283 1.249519
    29 18.045723 0.000000 0.000000 0.000000 0.000000 -1.732931
    30 17.597597 0.000000 0.000000 -0.251607 0.197234 -0.164508
    31 0.000005 -0.000003 -3.713254 0.821892 2.312307 5.493555
    32 18.045721 0.000000 0.000000 0.000000 0.000000 -2.673768
    33 17.597597 0.000000 0.000000 0.379969 0.033854 0.755924
  time 16
    0 -0.655305 1.254096 -20.600716 0.000000 0.000000 -1.585458
    1 -0.753933 0.031251 0.000000 -1.570795 -1.570787 0.000000
    2 1.293670 0.684478 -0.000001 -0.065479 -0.004795 0.145859
    3 5.309685 -0.003834 0.000000 -0.036127 0.034120 0.061675
    4 4.826790 -0.004591 0.000000 -0.072864 -0.016167 0.111663
    5 5.792767 -0.005304 0.000000 -0.112963 0.069307 0.149018
    6 6.662322 -0.001452 0.000000 -0.091910 0.032655 0.231870
    7 -3.518356 0.356631 4.277124 0.457311 -1.396246 -3.828255
    8 4.827512 0.000000 -0.000002 -0.454948 -0.146933 -1.069034
    9 11.140032 0.000000 0.000000 0.000000 0.000000 -1.775225
    10 10.314563 -0.000001 0.000001 -2.668873 -0.170577 0.463243
    11 1.646836 0.445664 -1.699647 -0.392035 3.352851 -0.875707
    12 0.928312 0.000000 0.000000 0.000000 0.000000 0.593404
    13 0.928313 0.000000 -0.000001 0.000000 0.000000 1.204231
    14 2.979373 -0.388274 -0.044205 -0.030851 -0.030823 0.768363
    15 1.435262 -0.000001 -0.000001 0.000000 0.000000 1.204014
    16 1.482593 -0.000001 0.000001 0.000000 0.000000 1.153221
    17 -2.975371 1.071532 -4.156022 -1.054072 1.123744 -4.380561
    18 4.972047 0.000000 0.000000 0.560587 -0.072606 -0.943939
    19 11.585358 0.000000 0.000001 0.000000 0.000000 -1.861629
    20 10.127058 0.000000 0.000001 1.038984 0.138915 0.106848
    21 1.537458 0.109715 1.664489 -3.079588 0.031470 0.928526
    22 0.928313 0.000000 0.000002 0.000000 0.000000 0.061034
    23 0.928311 0.000000 0.000001 0.000000 0.000000 0.671897
    24 2.686395 -0.427337 0.044204 -0.001208 0.043611 -0.052337
    25 1.435260 0.000000 0.000001 0.000000 0.000000 1.186618
    26 1.482593 0.000000 -0.000001 0.000000 0.000000 1.684243
    27 2.046984 0.000001 0.000000 0.259876 -0.208678 -0.031700
    28 -0.000005 0.000007 3.713254 -3.289109 -0.165283 1.249519
    29 18.045723 0.000000 0.000000 0.000000 0.000000 -1.732931
    30 17.597597 0.000000 0.000000 -0.251607 0.197234 -0.164508
    31 0.000005 -0.000003 -3.713254 0.821892 2.312307 5.493555
    32 18.045721 0.000000 0.000000 0.000000 0.000000 -2.673768
    33 17.597597 0.000000 0.000000 0.379969 0.033854 0.755924
  time 17
    0 -0.752964 1.289253 -20.600716 0.000000 0.000000 -1.585458
    1 -0.753933 0.031251 0.000000 -1.570795 -1.570787 0.000000
    2 1.293670 0.684478 -0.000001 -0.063677 0.002588 0.145357
    3 5.309685 -0.003834 0.000000 -0.012133 0.013722 0.061922
    4 4.826790 -0.004591 0.000000 -0.018750 -0.017569 0.122290
    5 5.792767 -0.005304 0.000000 -0.048315 0.046464 0.137038
    6 6.662322 -0.001452 0.000000 -0.091910 0.032655 0.231870
    7 -3.518356 0.356631 4.277124 0.487697 -1.347309 -3.854701
    8 4.827512 0.000000 -0.000002 -0.525020 -0.140197 -1.114178
    9 11.140032 0.000000 0.000000 0.000000 0.000000 -1.729362
    10 10.314563 -0.000001 0.000001 -2.702992 -0.341716 0.460979
    11 1.646836 0.445664 -1.699647 -0.392035 3.352851 -0.875707
    12 0.928312 0.000000 0.000000 0.000000 0.000000 0.593404
    13 0.928313 0.000000 -0.000001 0.000000 0.000000 1.204231
    14 2.979373 -0.388274 -0.044205 -0.030851 -0.030823 0.768363
    15 1.435262 -0.000001 -0.000001 0.000000 0.000000 1.204014
    16 1.482593 -0.000001 0.000001 0.000000 0.000000 1.153221
    17 -2.975371 1.071532 -4.156022 -1.050728 1.126137 -4.377592
    18 4.972047 0.000000 0.000000 0.601014 -0.094461 -0.859746
    19 11.585358 0.000000 0.000001 0.000000 0.000000 -1.868163
    20 10.127058 0.000000 0.000001 0.758067 0.164258 0.076635
    21 1.537458 0.109715 1.664489 -3.079588 0.031470 0.928526
    22 0.928313 0.000000 0.000002 0.000000 0.000000 0.061034
    23 0.928311 0.000000 0.000001 0.000000 0.000000 0.671897
    24 2.686395 -0.427337 0.044204 -0.001208 0.043611 -0.052337
    25 1.435260 0.000000 0.000001 0.000000 0.000000 1.186618
    26 1.482593 0.000000 -0.000001 0.000000 0.000000 1.684243
    27 2.046984 0.000001 0.000000 0.154625 -0.128045 -0.003536
    28 -0.000005 0.000007 3.713254 -3.289109 -0.165283 1.249519
    29 18.045723 0.000000 0.000000 0.000000 0.000000 -1.732931
    30 17.597597 0.000000 0.000000 -0.251607 0.197234 -0.164508
    31 0.000005 -0.000003 -3.713254 0.821892 2.312307 5.493555
    32 18.045721 0.000000 0.000000 0.000000 0.000000 -2.673768
    33 17.597597 0.000000 0.000000 0.379969 0.033854 0.755924
  time 18
    0 -0.827185 1.316597 -20.600716 0.000000 0.000000 -1.585458
    1 -0.753933 0.031251 0.000000 -1.570795 -1.570787 0.000000
    2 1.293670 0.684478 -0.000001 -0.061925 0.009719 0.144905
    3 5.309685 -0.003834 0.000000 0.009104 -0.005237 0.061569
    4 4.826790 -0.004591 0.000000 0.029203 -0.019727 0.132079
    5 5.792767 -0.005304 0.000000 0.009246 0.025815 0.125743
    6 6.662322 -0.001452 0.000000 -0.091910 0.032655 0.231870
    7 -3.518356 0.356631 4.277124 0.494119 -1.339769 -3.860258
    8 4.827512 0.000000 -0.000002 -0.483248 -0.125103 -1.230377
    9 11.140032 0.000000 0.000000 0.000000 0.000000 -1.720885
    10 10.314563 -0.000001 0.000001 -2.704983 -0.380216 0.458366
    11 1.646836 0.445664 -1.699647 -0.392035 3.352851 -0.875707
    12 0.928312 0.000000 0.000000 0.000000 0.000000 0.593404
    13 0.928313 0.000000 -0.000001 0.000000 0.000000 1.204231
    14 2.979373 -0.388274 -0.044205 -0.030851 -0.030823 0.768363
    15 1.435262 -0.000001 -0.000001 0.000000 0.000000 1.204014
    16 1.482593 -0.000001 0.000001 0.000000 0.000000 1.153221
    17 -2.975371 1.071532 -4.156022 -1.057607 1.121378 -4.383722
    18 4.972047 0.000000 0.000000 0.647350 -0.104344 -0.810961
    19 11.585358 0.000000 0.000001 0.000000 0.000000 -1.864569
    20 10.127058 0.000000 0.000001 0.620694 0.209081 0.120204
    21 1.537458 0.109715 1.664489 -3.079588 0.031470 0.928526
    22 0.928313 0.000000 0.000002 0.000000 0.000000 0.061034
    23 0.928311 0.000000 0.000001 0.000000 0.000000 0.671897
    24 2.686395 -0.427337 0.044204 -0.001208 0.043611 -0.052337
    25 1.435260 0.000000 0.000001 0.000000 0.000000 1.186618
    26 1.482593 0.000000 -0.000001 0.000000 0.000000 1.684243
    27 2.046984 0.000001 0.000000 0.064883 -0.052841 0.006683
    28 -0.000005 0.000007 3.713254 -3.289109 -0.165283 1.249519
    29 18.045723 0.000000 0.000000 0.000000 0.000000 -1.732931
    30 17.597597 0.000000 0.000000 -0.251607 0.197234 -0.164508
    31 0.000005 -0.000003 -3.713254 0.821892 2.312307 5.493555
    32 18.045721 0.000000 0.000000 0.000000 0.000000 -2.673768
    33 17.597597 0.000000 0.000000 0.379969 0.033854 0.755924
  time 19
    0 -0.877968 1.320504 -20.600716 0.000000 0.000000 -1.585458
    1 -0.753933 0.031251 0.000000 -1.570795 -1.570787 0.000000
    2 1.293670 0.684478 -0.000001 -0.060897 0.013853 0.144654
    3 5.309685 -0.003834 0.000000 0.022054 -0.016515 0.060739
    4 4.826790 -0.004591 0.000000 0.058310 -0.021165 0.138716
    5 5.792767 -0.005304 0.000000 0.044340 0.013866 0.119099
    6 6.662322 -0.001452 0.000000 -0.091910 0.032655 0.231870
    7 -3.518356 0.356631 4.277124 0.508689 -1.328858 -3.873577
    8 4.827512 0.000000 -0.000002 -0.449129 -0.104893 -1.301950
    9 11.140032 0.000000 0.000000 0.000000 0.000000 -1.705597
    10 10.314563 -0.000001 0.000001 -2.701286 -0.470609 0.444953
    11 1.646836 0.445664 -1.699647 -0.392035 3.352851 -0.875707
    12 0.928312 0.000000 0.000000 0.000000 0.000000 0.593404
    13 0.928313 0.000000 -0.000001 0.000000 0.000000 1.204231
    14 2.979373 -0.388274 -0.044205 -0.030851 -0.030823 0.768363
    15 1.435262 -0.000001 -0.000001 0.000000 0.000000 1.204014
    16 1.482593 -0.000001 0.000001 0.000000 0.000000 1.153221
    17 -2.975371 1.071532 -4.156022 -1.071650 1.110599 -4.396078
    18 4.972047 0.000000 0.000000 0.684776 -0.095988 -0.809630
    19 11.585358 0.000000 0.000001 0.000000 0.000000 -1.849132
    20 10.127058 0.000000 0.000001 0.641731 0.271872 0.233052
    21 1.537458 0.109715 1.664489 -3.079588 0.031470 0.928526
    22 0.928313 0.000000 0.000002 0.000000 0.000000 0.061034
    23 0.928311 0.000000 0.000001 0.000000 0.000000 0.671897
    24 2.686395 -0.427337 0.044204 -0.001208 0.043611 -0.052337
    25 1.435260 0.000000 0.000001 0.000000 0.000000 1.186618
    26 1.482593 0.000000 -0.000001 0.000000 0.000000 1.684243
    27 2.046984 0.000001 0.000000 0.016113 -0.007612 -0.001772
    28 -0.000005 0.000007 3.713254 -3.289109 -0.165283 1.249519
    29 18.045723 0.000000 0.000000 0.000000 0.000000 -1.732931
    30 17.597597 0.000000 0.000000 -0.251607 0.197234 -0.164508
    31 0.000005 -0.000003 -3.713254 0.821892 2.312307 5.493555
    32 18.045721 0.000000 0.000000 0.000000 0.000000 -2.673768
    33 17.597597 0.000000 0.000000 0.379969 0.033854 0.755924
  time 20
    0 -0.897500 1.332223 -20.600716 0.000000 0.000000 -1.585458
    1 -0.753933 0.031251 0.000000 -1.570795 -1.570787 0.000000
    2 1.293670 0.684478 -0.000001 -0.060712 0.014632 0.144587
    3 5.309685 -0.003834 0.000000 0.025168 -0.018792 0.058266
    4 4.826790 -0.004591 0.000000 0.064662 -0.022315 0.144845
    5 5.792767 -0.005304 0.000000 0.052650 0.011158 0.124414
    6 6.662322 -0.001452 0.000000 -0.091910 0.032655 0.231870
    7 -3.518356 0.356631 4.277124 0.522587 -1.320253 -3.886512
    8 4.827512 0.000000 -0.000002 -0.423540 -0.098583 -1.325605
    9 11.140032 0.000000 0.000000 0.000000 0.000000 -1.692193
    10 10.314563 -0.000001 0.000001 -2.693041 -0.560160 0.426141
    11 1.646836 0.445664 -1.699647 -0.392035 3.352851 -0.875707
    12 0.928312 0.000000 0.000000 0.000000 0.000000 0.593404
    13 0.928313 0.000000 -0.000001 0.000000 0.000000 1.204231
    14 2.979373 -0.388274 -0.044205 -0.030851 -0.030823 0.768363
    15 1.435262 -0.000001 -0.000001 0.000000 0.000000 1.204014
    16 1.482593 -0.000001 0.000001 0.000000 0.000000 1.153221
    17 -2.975371 1.071532 -4.156022 -1.084260 1.099873 -4.406901
    18 4.972047 0.000000 0.000000 0.699971 -0.081204 -0.854821
    19 11.585358 0.000000 0.000001 0.000000 0.000000 -1.829202
    20 10.127058 0.000000 0.000001 0.680370 0.330407 0.351203
    21 1.537458 0.109715 1.664489 -3.079588 0.031470 0.928526
    22 0.928313 0.000000 0.000002 0.000000 0.000000 0.061034
    23 0.928311 0.000000 0.000001 0.000000 0.000000 0.671897
    24 2.686395 -0.427337 0.044204 -0.001208 0.043611 -0.052337
    25 1.435260 0.000000 0.000001 0.000000 0.000000 1.186618
    26 1.482593 0.000000 -0.000001 0.000000 0.000000 1.684243
    27 2.046984 0.000001 0.000000 0.016070 0.004042 -0.032248
    28 -0.000005 0.000007 3.713254 -3.289109 -0.165283 1.249519
    29 18.045723 0.000000 0.000000 0.000000 0.000000 -1.732931
    30 17.597597 0.000000 0.000000 -0.251607 0.197234 -0.164508
    31 0.000005 -0.000003 -3.713254 0.821892 2.312307 5.493555
    32 18.045721 0.000000 0.000000 0.000000 0.000000 -2.673768
    33 17.597597 0.000000 0.000000 0.379969 0.033854 0.755924
  time 21
    0 -0.889687 1.351755 -20.600716 0.000000 0.000000 -1.585458
    1 -0.753933 0.031251 0.000000 -1.570795 -1.570787 0.000000
    2 1.293670 0.684478 -0.000001 -0.060796 0.014261 0.144637
    3 5.309685 -0.003834 0.000000 0.023722 -0.017509 0.054468
    4 4.826790 -0.004591 0.000000 0.060637 -0.023334 0.151857
    5 5.792767 -0.005304 0.000000 0.048693 0.011877 0.135813
    6 6.662322 -0.001452 0.000000 -0.091910 0.032655 0.231870
    7 -3.518356 0.356631 4.277124 0.540416 -1.311471 -3.903089
    8 4.827512 0.000000 -0.000002 -0.401299 -0.101312 -1.327338
    9 11.140032 0.000000 0.000000 0.000000 0.000000 -1.675384
    10 10.314563 -0.000001 0.000001 -2.671147 -0.657766 0.400651
    11 1.646836 0.445664 -1.699647 -0.392035 3.352851 -0.875707
    12 0.928312 0.000000 0.000000 0.000000 0.000000 0.593404
    13 0.928313 0.000000 -0.000001 0.000000 0.000000 1.204231
    14 2.979373 -0.388274 -0.044205 -0.030851 -0.030823 0.768363
    15 1.435262 -0.000001 -0.000001 0.000000 0.000000 1.204014
    16 1.482593 -0.000001 0.000001 0.000000 0.000000 1.153221
    17 -2.975371 1.071532 -4.156022 -1.097635 1.089356 -4.418395
    18 4.972047 0.000000 0.000000 0.704192 -0.057501 -0.920045
    19 11.585358 0.000000 0.000001 0.000000 0.000000 -1.806740
    20 10.127058 0.000000 0.000001 0.731771 0.377973 0.468804
    21 1.537458 0.109715 1.664489 -3.079588 0.031470 0.928526
    22 0.928313 0.000000 0.000002 0.000000 0.000000 0.061034
    23 0.928311 0.000000 0.000001 0.000000 0.000000 0.671897
    24 2.686395 -0.427337 0.044204 -0.001208 0.043611 -0.052337
    25 1.435260 0.000000 0.000001 0.000000 0.000000 1.186618
    26 1.482593 0.000000 -0.000001 0.000000 0.000000 1.684243
    27 2.046984 0.000001 0.000000 0.032743 0.002685 -0.098429
    28 -0.000005 0.000007 3.713254 -3.289109 -0.165283 1.249519
    29 18.045723 0.000000 0.000000 0.000000 0.000000 -1.732931
    30 17.597597 0.000000 0.000000 -0.251607 0.197234 -0.164508
    31 0.000005 -0.000003 -3.713254 0.821892 2.312307 5.493555
    32 18.045721 0.000000 0.000000 0.000000 0.000000 -2.673768
    33 17.597597 0.000000 0.000000 0.379969 0.033854 0.755924
  time 22
    0 -0.877968 1.351755 -20.600716 0.000000 0.000000 -1.585458
    1 -0.753933 0.031251 0.000000 -1.570795 -1.570787 0.000000
    2 1.293670 0.684478 -0.000001 -0.060897 0.013853 0.144654
    3 5.309685 -0.003834 0.000000 0.022190 -0.016287 0.052013
    4 4.826790 -0.004591 0.000000 0.057967 -0.022160 0.155825
    5 5.792767 -0.005304 0.000000 0.044592 0.013015 0.138346
    6 6.662322 -0.001452 0.000000 -0.091910 0.032655 0.231870
    7 -3.518356 0.356631 4.277124 0.564763 -1.300087 -3.925894
    8 4.827512 0.000000 -0.000002 -0.383363 -0.094831 -1.326645
    9 11.140032 0.000000 0.000000 0.000000 0.000000 -1.649736
    10 10.314563 -0.000001 0.000001 -2.623570 -0.771485 0.363374
    11 1.646836 0.445664 -1.699647 -0.392035 3.352851 -0.875707
    12 0.928312 0.000000 0.000000 0.000000 0.000000 0.593404
    13 0.928313 0.000000 -0.000001 0.000000 0.000000 1.204231
    14 2.979373 -0.388274 -0.044205 -0.030851 -0.030823 0.768363
    15 1.435262 -0.000001 -0.000001 0.000000 0.000000 1.204014
    16 1.482593 -0.000001 0.000001 0.000000 0.000000 1.153221
    17 -2.975371 1.071532 -4.156022 -1.113111 1.079208 -4.432666
    18 4.972047 0.000000 0.000000 0.700628 -0.030985 -0.978481
    19 11.585358 0.000000 0.000001 0.000000 0.000000 -1.783053
    20 10.127058 0.000000 0.000001 0.788922 0.409746 0.577801
    21 1.537458 0.109715 1.664489 -3.079588 0.031470 0.928526
    22 0.928313 0.000000 0.000002 0.000000 0.000000 0.061034
    23 0.928311 0.000000 0.000001 0.000000 0.000000 0.671897
    24 2.686395 -0.427337 0.044204 -0.001208 0.043611 -0.052337
    25 1.435260 0.000000 0.000001 0.000000 0.000000 1.186618
    26 1.482593 0.000000 -0.000001 0.000000 0.000000 1.684243
    27 2.046984 0.000001 0.000000 0.039636 0.000325 -0.183529
    28 -0.000005 0.000007 3.713254 -3.289109 -0.165283 1.249519
    29 18.045723 0.000000 0.000000 0.000000 0.000000 -1.732931
    30 17.597597 0.000000 0.000000 -0.251607 0.197234 -0.164508
    31 0.000005 -0.000003 -3.713254 0.821892 2.312307 5.493555
    32 18.045721 0.000000 0.000000 0.000000 0.000000 -2.673768
    33 17.597597 0.000000 0.000000 0.379969 0.033854 0.755924
  time 23
    0 -0.858436 1.320504 -20.600716 0.000000 0.000000 -1.585458
    1 -0.753933 0.031251 0.000000 -1.570795 -1.570787 0.000000
    2 1.293670 0.684478 -0.000001 -0.060897 0.013853 0.144654
    3 5.309685 -0.003834 0.000000 0.022190 -0.016467 0.051606
    4 4.826790 -0.004591 0.000000 0.063327 -0.014130 0.156553
    5 5.792767 -0.005304 0.000000 0.044232 0.013291 0.114115
    6 6.662322 -0.001452 0.000000 -0.091910 0.032655 0.231870
    7 -3.518356 0.356631 4.277124 0.686208 -1.275485 -4.042888
    8 4.827512 0.000000 -0.000002 -0.412140 -0.125188 -1.331238
    9 11.140032 0.000000 0.000000 0.000000 0.000000 -1.512436
    10 10.314563 -0.000001 0.000001 -2.205796 -0.887825 0.225126
    11 1.646836 0.445664 -1.699647 -0.392035 3.352851 -0.875707
    12 0.928312 0.000000 0.000000 0.000000 0.000000 0.593404
    13 0.928313 0.000000 -0.000001 0.000000 0.000000 1.204231
    14 2.979373 -0.388274 -0.044205 -0.030851 -0.030823 0.768363
    15 1.435262 -0.000001 -0.000001 0.000000 0.000000 1.204014
    16 1.482593 -0.000001 0.000001 0.000000 0.000000 1.153221
    17 -2.975371 1.071532 -4.156022 -1.151324 1.082337 -4.474330
    18 4.972047 0.000000 0.000000 0.668080 0.106894 -0.968232
    19 11.585358 0.000000 0.000001 0.000000 0.000000 -1.778642
    20 10.127058 0.000000 0.000001 0.808486 0.298539 0.444594
    21 1.537458 0.109715 1.664489 -3.079588 0.031470 0.928526
    22 0.928313 0.000000 0.000002 0.000000 0.000000 0.061034
    23 0.928311 0.000000 0.000001 0.000000 0.000000 0.671897
    24 2.686395 -0.427337 0.044204 -0.001208 0.043611 -0.052337
    25 1.435260 0.000000 0.000001 0.000000 0.000000 1.186618
    26 1.482593 0.000000 -0.000001 0.000000 0.000000 1.684243
    27 2.046984 0.000001 0.000000 0.029124 -0.006137 -0.241620
    28 -0.000005 0.000007 3.713254 -3.289109 -0.165283 1.249519
    29 18.045723 0.000000 0.000000 0.000000 0.000000 -1.732931
    30 17.597597 0.000000 0.000000 -0.251607 0.197234 -0.164508
    31 0.000005 -0.000003 -3.713254 0.821892 2.312307 5.493555
    32 18.045721 0.000000 0.000000 0.000000 0.000000 -2.673768
    33 17.597597 0.000000 0.000000 0.379969 0.033854 0.755924
  time 24
    0 -0.815466 1.269721 -20.600716 0.000000 0.000000 -1.585458
    1 -0.753933 0.031251 0.000000 -1.570795 -1.570787 0.000000
    2 1.293670 0.684478 -0.000001 -0.060897 0.013853 0.144654
    3 5.309685 -0.003834 0.000000 0.022190 -0.016635 0.051801
    4 4.826790 -0.004591 0.000000 0.071605 -0.001366 0.155230
    5 5.792767 -0.005304 0.000000 0.043620 0.014202 0.074978
    6 6.662322 -0.001452 0.000000 -0.091910 0.032655 0.231870
    7 -3.518356 0.356631 4.277124 0.820978 -1.243432 -4.172626
    8 4.827512 0.000000 -0.000002 -0.466826 -0.167740 -1.327772
    9 11.140032 0.000000 0.000000 0.000000 0.000000 -1.340505
    10 10.314563 -0.000001 0.000001 -1.597806 -0.909745 0.005646
    11 1.646836 0.445664 -1.699647 -0.392035 3.352851 -0.875707
    12 0.928312 0.000000 0.000000 0.000000 0.000000 0.593404
    13 0.928313 0.000000 -0.000001 0.000000 0.000000 1.204231
    14 2.979373 -0.388274 -0.044205 -0.030851 -0.030823 0.768363
    15 1.435262 -0.000001 -0.000001 0.000000 0.000000 1.204014
    16 1.482593 -0.000001 0.000001 0.000000 0.000000 1.153221
    17 -2.975371 1.071532 -4.156022 -1.214948 1.099031 -4.546836
    18 4.972047 0.000000 0.000000 0.614052 0.364575 -0.904804
    19 11.585358 0.000000 0.000001 0.000000 0.000000 -1.800124
    20 10.127058 0.000000 0.000001 0.872720 0.043216 0.063529
    21 1.537458 0.109715 1.664489 -3.079588 0.031470 0.928526
    22 0.928313 0.000000 0.000002 0.000000 0.000000 0.061034
    23 0.928311 0.000000 0.000001 0.000000 0.000000 0.671897
    24 2.686395 -0.427337 0.044204 -0.001208 0.043611 -0.052337
    25 1.435260 0.000000 0.000001 0.000000 0.000000 1.186618
    26 1.482593 0.000000 -0.000001 0.000000 0.000000 1.684243
    27 2.046984 0.000001 0.000000 0.017449 -0.019325 -0.254881
    28 -0.000005 0.000007 3.713254 -3.289109 -0.165283 1.249519
    29 18.045723 0.000000 0.000000 0.000000 0.000000 -1.732931
    30 17.597597 0.000000 0.000000 -0.251607 0.197234 -0.164508
    31 0.000005 -0.000003 -3.713254 0.821892 2.312307 5.493555
    32 18.045721 0.000000 0.000000 0.000000 0.000000 -2.673768
    33 17.597597 0.000000 0.000000 0.379969 0.033854 0.755924
  time 25
    0 -0.784215 1.222845 -20.600716 0.000000 0.000000 -1.585458
    1 -0.753933 0.031251 0.000000 -1.570795 -1.570787 0.000000
    2 1.293670 0.684478 -0.000001 -0.060897 0.013853 0.144654
    3 5.309685 -0.003834 0.000000 0.022190 -0.016287 0.052013
    4 4.826790 -0.004591 0.000000 0.076965 0.007550 0.149718
    5 5.792767 -0.005304 0.000000 0.043243 0.016886 0.050208
    6 6.662322 -0.001452 0.000000 -0.091910 0.032655 0.231870
    7 -3.518356 0.356631 4.277124 0.881365 -1.224804 -4.230308
    8 4.827512 0.000000 -0.000002 -0.499670 -0.172515 -1.316507
    9 11.140032 0.000000 0.000000 0.000000 0.000000 -1.269283
    10 10.314563 -0.000001 0.000001 -1.288361 -0.885109 -0.102816
    11 1.646836 0.445664 -1.699647 -0.392035 3.352851 -0.875707
    12 0.928312 0.000000 0.000000 0.000000 0.000000 0.593404
    13 0.928313 0.000000 -0.000001 0.000000 0.000000 1.204231
    14 2.979373 -0.388274 -0.044205 -0.030851 -0.030823 0.768363
    15 1.435262 -0.000001 -0.000001 0.000000 0.000000 1.204014
    16 1.482593 -0.000001 0.000001 0.000000 0.000000 1.153221
    17 -2.975371 1.071532 -4.156022 -1.275515 1.112282 -4.615319
    18 4.972047 0.000000 0.000000 0.570998 0.583527 -0.859480
    19 11.585358 0.000000 0.000001 0.000000 0.000000 -1.827323
    20 10.127058 0.000000 0.000001 1.043752 -0.147615 -0.291073
    21 1.537458 0.109715 1.664489 -3.079588 0.031470 0.928526
    22 0.928313 0.000000 0.000002 0.000000 0.000000 0.061034
    23 0.928311 0.000000 0.000001 0.000000 0.000000 0.671897
    24 2.686395 -0.427337 0.044204 -0.001208 0.043611 -0.052337
    25 1.435260 0.000000 0.000001 0.000000 0.000000 1.186618
    26 1.482593 0.000000 -0.000001 0.000000 0.000000 1.684243
    27 2.046984 0.000001 0.000000 0.010728 -0.030094 -0.245635
    28 -0.000005 0.000007 3.713254 -3.289109 -0.165283 1.249519
    29 18.045723 0.000000 0.000000 0.000000 0.000000 -1.732931
    30 17.597597 0.000000 0.000000 -0.251607 0.197234 -0.164508
    31 0.000005 -0.000003 -3.713254 0.821892 2.312307 5.493555
    32 18.045721 0.000000 0.000000 0.000000 0.000000 -2.673768
    33 17.597597 0.000000 0.000000 0.379969 0.033854 0.755924
  time 26
    0 -0.749058 1.148624 -20.600716 0.000000 0.000000 -1.585458
    1 -0.753933 0.031251 0.000000 -1.570795 -1.570787 0.000000
    2 1.293670 0.684478 -0.000001 -0.060897 0.013853 0.144654
    3 5.309685 -0.003834 0.000000 0.022309 -0.014298 0.052066
    4 4.826790 -0.004591 0.000000 0.077690 0.012608 0.127273
    5 5.792767 -0.005304 0.000000 0.043189 0.027169 0.048734
    6 6.662322 -0.001452 0.000000 -0.091910 0.032655 0.231870
    7 -3.518356 0.356631 4.277124 0.913859 -1.214011 -4.261354
    8 4.827512 0.000000 -0.000002 -0.525179 -0.152817 -1.296924
    9 11.140032 0.000000 0.000000 0.000000 0.000000 -1.245518
    10 10.314563 -0.000001 0.000001 -1.126578 -0.856445 -0.146073
    11 1.646836 0.445664 -1.699647 -0.392035 3.352851 -0.875707
    12 0.928312 0.000000 0.000000 0.000000 0.000000 0.593404
    13 0.928313 0.000000 -0.000001 0.000000 0.000000 1.204231
    14 2.979373 -0.388274 -0.044205 -0.030851 -0.030823 0.768363
    15 1.435262 -0.000001 -0.000001 0.000000 0.000000 1.204014
    16 1.482593 -0.000001 0.000001 0.000000 0.000000 1.153221
    17 -2.975371 1.071532 -4.156022 -1.280769 1.113044 -4.620970
    18 4.972047 0.000000 0.000000 0.527663 0.449826 -0.828732
    19 11.585358 0.000000 0.000001 0.000000 0.000000 -1.887685
    20 10.127058 0.000000 0.000001 1.319900 -0.141657 -0.282370
    21 1.537458 0.109715 1.664489 -3.079588 0.031470 0.928526
    22 0.928313 0.000000 0.000002 0.000000 0.000000 0.061034
    23 0.928311 0.000000 0.000001 0.000000 0.000000 0.671897
    24 2.686395 -0.427337 0.044204 -0.001184 0.043611 -0.051778
    25 1.435260 0.000000 0.000001 0.000000 0.000000 1.186618
    26 1.482593 0.000000 -0.000001 0.000000 0.000000 1.684243
    27 2.046984 0.000001 0.000000 0.006893 -0.044167 -0.224284
    28 -0.000005 0.000007 3.713254 -3.289109 -0.165283 1.249519
    29 18.045723 0.000000 0.000000 0.000000 0.000000 -1.732931
    30 17.597597 0.000000 0.000000 -0.251607 0.197234 -0.164508
    31 0.000005 -0.000003 -3.713254 0.821892 2.312307 5.493555
    32 18.045721 0.000000 0.000000 0.000000 0.000000 -2.673768
    33 17.597597 0.000000 0.000000 0.379969 0.033854 0.755924
  time 27
    0 -0.698275 1.047058 -20.600716 0.000000 0.000000 -1.585458
    1 -0.753933 0.031251 0.000000 -1.570795 -1.570787 0.000000
    2 1.293670 0.684478 -0.000001 -0.060897 0.013853 0.144654
    3 5.309685 -0.003834 0.000000 0.022497 -0.011134 0.052119
    4 4.826790 -0.004591 0.000000 0.076908 0.017641 0.093142
    5 5.792767 -0.005304 0.000000 0.043243 0.042893 0.054859
    6 6.662322 -0.001452 0.000000 -0.091910 0.032655 0.231870
    7 -3.518356 0.356631 4.277124 0.900344 -1.214898 -4.247843
    8 4.827512 0.000000 -0.000002 -0.523346 -0.075985 -1.286526
    9 11.140032 0.000000 0.000000 0.000000 0.000000 -1.284933
    10 10.314563 -0.000001 0.000001 -1.069807 -0.867311 -0.186892
    11 1.646836 0.445664 -1.699647 -0.392035 3.352851 -0.875707
    12 0.928312 0.000000 0.000000 0.000000 0.000000 0.593404
    13 0.928313 0.000000 -0.000001 0.000000 0.000000 1.204231
    14 2.979373 -0.388274 -0.044205 -0.030851 -0.030823 0.768363
    15 1.435262 -0.000001 -0.000001 0.000000 0.000000 1.204014
    16 1.482593 -0.000001 0.000001 0.000000 0.000000 1.153221
    17 -2.975371 1.071532 -4.156022 -1.278285 1.112702 -4.618192
    18 4.972047 0.000000 0.000000 0.471197 0.267593 -0.788532
    19 11.585358 0.000000 0.000001 0.000000 0.000000 -1.955561
    20 10.127058 0.000000 0.000001 1.610424 -0.131539 -0.220893
    21 1.537458 0.109715 1.664489 -3.079588 0.031470 0.928526
    22 0.928313 0.000000 0.000002 0.000000 0.000000 0.061034
    23 0.928311 0.000000 0.000001 0.000000 0.000000 0.671897
    24 2.686395 -0.427337 0.044204 -0.001160 0.043611 -0.051219
    25 1.435260 0.000000 0.000001 0.000000 0.000000 1.186618
    26 1.482593 0.000000 -0.000001 0.000000 0.000000 1.684243
    27 2.046984 0.000001 0.000000 0.001637 -0.063639 -0.180548
    28 -0.000005 0.000007 3.713254 -3.289109 -0.165283 1.249519
    29 18.045723 0.000000 0.000000 0.000000 0.000000 -1.732931
    30 17.597597 0.000000 0.000000 -0.251607 0.197234 -0.164508
    31 0.000005 -0.000003 -3.713254 0.821892 2.312307 5.493555
    32 18.045721 0.000000 0.000000 0.000000 0.000000 -2.673768
    33 17.597597 0.000000 0.000000 0.379969 0.033854 0.755924
  time 28
    0 -0.667024 0.992369 -20.600716 0.000000 0.000000 -1.585458
    1 -0.753933 0.031251 0.000000 -1.570795 -1.570787 0.000000
    2 1.293670 0.684478 -0.000001 -0.060897 0.013853 0.144654
    3 5.309685 -0.003834 0.000000 0.022599 -0.008988 0.052172
    4 4.826790 -0.004591 0.000000 0.076183 0.020649 0.072328
    5 5.792767 -0.005304 0.000000 0.043476 0.053295 0.061233
    6 6.662322 -0.001452 0.000000 -0.091910 0.032655 0.231870
    7 -3.518356 0.356631 4.277124 0.913859 -1.214011 -4.261354
    8 4.827512 0.000000 -0.000002 -0.525657 -0.002650 -1.245714
    9 11.140032 0.000000 0.000000 0.000000 0.000000 -1.315146
    10 10.314563 -0.000001 0.000001 -1.141932 -0.846516 -0.144564
    11 1.646836 0.445664 -1.699647 -0.392035 3.352851 -0.875707
    12 0.928312 0.000000 0.000000 0.000000 0.000000 0.593404
    13 0.928313 0.000000 -0.000001 0.000000 0.000000 1.204231
    14 2.979373 -0.388274 -0.044205 -0.030851 -0.030823 0.768363
    15 1.435262 -0.000001 -0.000001 0.000000 0.000000 1.204014
    16 1.482593 -0.000001 0.000001 0.000000 0.000000 1.153221
    17 -2.975371 1.071532 -4.156022 -1.275515 1.112282 -4.615319
    18 4.972047 0.000000 0.000000 0.431707 0.119509 -0.751261
    19 11.585358 0.000000 0.000001 0.000000 0.000000 -2.004895
    20 10.127058 0.000000 0.000001 1.864763 -0.139766 -0.162368
    21 1.537458 0.109715 1.664489 -3.079588 0.031470 0.928526
    22 0.928313 0.000000 0.000002 0.000000 0.000000 0.061034
    23 0.928311 0.000000 0.000001 0.000000 0.000000 0.671897
    24 2.686395 -0.427337 0.044204 -0.001208 0.043611 -0.052337
    25 1.435260 0.000000 0.000001 0.000000 0.000000 1.186618
    26 1.482593 0.000000 -0.000001 0.000000 0.000000 1.684243
    27 2.046984 0.000001 0.000000 -0.004481 -0.074880 -0.131763
    28 -0.000005 0.000007 3.713254 -3.289109 -0.165283 1.249519
    29 18.045723 0.000000 0.000000 0.000000 0.000000 -1.732931
    30 17.597597 0.000000 0.000000 -0.251607 0.197234 -0.164508
    31 0.000005 -0.000003 -3.713254 0.821892 2.312307 5.493555
    32 18.045721 0.000000 0.000000 0.000000 0.000000 -2.673768
    33 17.597597 0.000000 0.000000 0.379969 0.033854 0.755924
  time 29
    0 -0.667024 1.023620 -20.600716 0.000000 0.000000 -1.585458
    1 -0.753933 0.031251 0.000000 -1.570795 -1.570787 0.000000
    2 1.293670 0.684478 -0.000001 -0.060931 0.013721 0.144654
    3 5.309685 -0.003834 0.000000 0.023058 -0.009072 0.051695
    4 4.826790 -0.004591 0.000000 0.078148 0.021153 0.080641
    5 5.792767 -0.005304 0.000000 0.046031 0.055549 0.069559
    6 6.662322 -0.001452 0.000000 -0.091910 0.032655 0.231870
    7 -3.518356 0.356631 4.277124 1.034155 -1.191746 -4.381031
    8 4.827512 0.000000 -0.000002 -0.595410 0.003916 -1.107853
    9 11.140032 0.000000 0.000000 0.000000 0.000000 -1.271601
    10 10.314563 -0.000001 0.000001 -1.338593 -0.684838 0.034678
    11 1.646836 0.445664 -1.699647 -0.392035 3.352851 -0.875707
    12 0.928312 0.000000 0.000000 0.000000 0.000000 0.593404
    13 0.928313 0.000000 -0.000001 0.000000 0.000000 1.204231
    14 2.979373 -0.388274 -0.044205 -0.030851 -0.030823 0.768363
    15 1.435262 -0.000001 -0.000001 0.000000 0.000000 1.204014
    16 1.482593 -0.000001 0.000001 0.000000 0.000000 1.153221
    17 -2.975371 1.071532 -4.156022 -1.267872 1.128450 -4.609476
    18 4.972047 0.000000 0.000000 0.520628 0.183307 -0.815886
    19 11.585358 0.000000 0.000001 0.000000 0.000000 -1.963484
    20 10.127058 0.000000 0.000001 1.828299 -0.159246 -0.178525
    21 1.537458 0.109715 1.664489 -3.079588 0.031470 0.928526
    22 0.928313 0.000000 0.000002 0.000000 0.000000 0.061034
    23 0.928311 0.000000 0.000001 0.000000 0.000000 0.671897
    24 2.686395 -0.427337 0.044204 -0.001735 0.043599 -0.064518
    25 1.435260 0.000000 0.000001 0.000000 0.000000 1.186618
    26 1.482593 0.000000 -0.000001 0.000000 0.000000 1.684243
    27 2.046984 0.000001 0.000000 -0.013356 -0.072608 -0.096361
    28 -0.000005 0.000007 3.713254 -3.289109 -0.165283 1.249519
    29 18.045723 0.000000 0.000000 0.000000 0.000000 -1.732931
    30 17.597597 0.000000 0.000000 -0.251607 0.197234 -0.164508
    31 0.000005 -0.000003 -3.713254 0.821892 2.312307 5.493555
    32 18.045721 0.000000 0.000000 0.000000 0.000000 -2.673768
    33 17.597597 0.000000 0.000000 0.379969 0.033854 0.755924
  time 30
    0 -0.678743 1.105653 -20.600716 0.000000 0.000000 -1.585458
    1 -0.753933 0.031251 0.000000 -1.570795 -1.570787 0.000000
    2 1.293670 0.684478 -0.000001 -0.060897 0.013853 0.144654
    3 5.309685 -0.003834 0.000000 0.022599 -0.008988 0.052172
    4 4.826790 -0.004591 0.000000 0.076717 0.018432 0.101146
    5 5.792767 -0.005304 0.000000 0.044718 0.052313 0.084259
    6 6.662322 -0.001452 0.000000 -0.091910 0.032655 0.231870
    7 -3.518356 0.356631 4.277124 1.172279 -1.154222 -4.519775
    8 4.827512 0.000000 -0.000002 -0.678714 0.001443 -0.956648
    9 11.140032 0.000000 0.000000 0.000000 0.000000 -1.149373
    10 10.314563 -0.000001 0.000001 -1.525302 -0.439885 0.192842
    11 1.646836 0.445664 -1.699647 -0.392035 3.352851 -0.875707
    12 0.928312 0.000000 0.000000 0.000000 0.000000 0.593404
    13 0.928313 0.000000 -0.000001 0.000000 0.000000 1.204231
    14 2.979373 -0.388274 -0.044205 -0.030851 -0.030823 0.768363
    15 1.435262 -0.000001 -0.000001 0.000000 0.000000 1.204014
    16 1.482593 -0.000001 0.000001 0.000000 0.000000 1.153221
    17 -2.975371 1.071532 -4.156022 -1.275515 1.112282 -4.615319
    18 4.972047 0.000000 0.000000 0.595386 0.293064 -0.872525
    19 11.585358 0.000000 0.000001 0.000000 0.000000 -1.790731
    20 10.127058 0.000000 0.000001 1.696115 -0.162745 -0.155315
    21 1.537458 0.109715 1.664489 -3.079588 0.031470 0.928526
    22 0.928313 0.000000 0.000002 0.000000 0.000000 0.061034
    23 0.928311 0.000000 0.000001 0.000000 0.000000 0.671897
    24 2.686395 -0.427337 0.044204 -0.002239 0.043575 -0.075413
    25 1.435260 0.000000 0.000001 0.000000 0.000000 1.186618
    26 1.482593 0.000000 -0.000001 0.000000 0.000000 1.684243
    27 2.046984 0.000001 0.000000 -0.012106 -0.063521 -0.068501
    28 -0.000005 0.000007 3.713254 -3.289109 -0.165283 1.249519
    29 18.045723 0.000000 0.000000 0.000000 0.000000 -1.732931
    30 17.597597 0.000000 0.000000 -0.251607 0.197234 -0.164508
    31 0.000005 -0.000003 -3.713254 0.821892 2.312307 5.493555
    32 18.045721 0.000000 0.000000 0.000000 0.000000 -2.673768
    33 17.597597 0.000000 0.000000 0.379969 0.033854 0.755924
  time 31
    0 -0.690462 1.258002 -20.600716 0.000000 0.000000 -1.585458
    1 -0.753933 0.031251 0.000000 -1.570795 -1.570787 0.000000
    2 1.293670 0.684478 -0.000001 -0.060662 0.014848 0.144587
    3 5.309685 -0.003834 0.000000 0.019416 -0.006723 0.055899
    4 4.826790 -0.004591 0.000000 0.063937 0.009755 0.131572
    5 5.792767 -0.005304 0.000000 0.030633 0.040460 0.112538
    6 6.662322 -0.001452 0.000000 -0.091910 0.032655 0.231870
    7 -3.518356 0.356631 4.277124 1.298326 -1.103541 -4.648651
    8 4.827512 0.000000 -0.000002 -0.722478 -0.006829 -0.871384
    9 11.140032 0.000000 0.000000 0.000000 0.000000 -0.860211
    10 10.314563 -0.000001 0.000001 -1.690213 -0.139665 0.307343
    11 1.646836 0.445664 -1.699647 -0.392035 3.352851 -0.875707
    12 0.928312 0.000000 0.000000 0.000000 0.000000 0.593404
    13 0.928313 0.000000 -0.000001 0.000000 0.000000 1.204231
    14 2.979373 -0.388274 -0.044205 -0.030851 -0.030823 0.768363
    15 1.435262 -0.000001 -0.000001 0.000000 0.000000 1.204014
    16 1.482593 -0.000001 0.000001 0.000000 0.000000 1.153221
    17 -2.975371 1.071532 -4.156022 -1.307996 1.033410 -4.637540
    18 4.972047 0.000000 0.000000 0.544266 0.261889 -0.842974
    19 11.585358 0.000000 0.000001 0.000000 0.000000 -1.532949
    20 10.127058 0.000000 0.000001 1.750461 -0.136361 -0.021607
    21 1.537458 0.109715 1.664489 -3.079588 0.031470 0.928526
    22 0.928313 0.000000 0.000002 0.000000 0.000000 0.061034
    23 0.928311 0.000000 0.000001 0.000000 0.000000 0.671897
    24 2.686395 -0.427337 0.044204 -0.002131 0.043575 -0.072871
    25 1.435260 0.000000 0.000001 0.000000 0.000000 1.186618
    26 1.482593 0.000000 -0.000001 0.000000 0.000000 1.684243
    27 2.046984 0.000001 0.000000 0.018483 -0.049448 -0.059256
    28 -0.000005 0.000007 3.713254 -3.289109 -0.165283 1.249519
    29 18.045723 0.000000 0.000000 0.000000 0.000000 -1.732931
    30 17.597597 0.000000 0.000000 -0.251607 0.197234 -0.164508
    31 0.000005 -0.000003 -3.713254 0.821892 2.312307 5.493555
    32 18.045721 0.000000 0.000000 0.000000 0.000000 -2.673768
    33 17.597597 0.000000 0.000000 0.379969 0.033854 0.755924
  time 32
    0 -0.698275 1.480665 -20.600716 0.000000 0.000000 -1.585458
    1 -0.753933 0.031251 0.000000 -1.570795 -1.570787 0.000000
    2 1.293670 0.684478 -0.000001 -0.060274 0.016382 0.144520
    3 5.309685 -0.003834 0.000000 0.014430 -0.003152 0.061781
    4 4.826790 -0.004591 0.000000 0.043318 -0.002900 0.177058
    5 5.792767 -0.005304 0.000000 0.007753 0.022675 0.155247
    6 6.662322 -0.001452 0.000000 -0.091910 0.032655 0.231870
    7 -3.518356 0.356631 4.277124 1.379418 -1.057945 -4.734025
    8 4.827512 0.000000 -0.000002 -0.737146 -0.023713 -0.801370
    9 11.140032 0.000000 0.000000 0.000000 0.000000 -0.585323
    10 10.314563 -0.000001 0.000001 -1.813043 0.119526 0.359252
    11 1.646836 0.445664 -1.699647 -0.392035 3.352851 -0.875707
    12 0.928312 0.000000 0.000000 0.000000 0.000000 0.593404
    13 0.928313 0.000000 -0.000001 0.000000 0.000000 1.204231
    14 2.979373 -0.388274 -0.044205 -0.030851 -0.030823 0.768363
    15 1.435262 -0.000001 -0.000001 0.000000 0.000000 1.204014
    16 1.482593 -0.000001 0.000001 0.000000 0.000000 1.153221
    17 -2.975371 1.071532 -4.156022 -1.340477 0.934216 -4.655834
    18 4.972047 0.000000 0.000000 0.469414 0.220107 -0.795121
    19 11.585358 0.000000 0.000001 0.000000 0.000000 -1.236860
    20 10.127058 0.000000 0.000001 1.844568 -0.114233 0.147015
    21 1.537458 0.109715 1.664489 -3.079588 0.031470 0.928526
    22 0.928313 0.000000 0.000002 0.000000 0.000000 0.061034
    23 0.928311 0.000000 0.000001 0.000000 0.000000 0.671897
    24 2.686395 -0.427337 0.044204 -0.001843 0.043587 -0.066753
    25 1.435260 0.000000 0.000001 0.000000 0.000000 1.186618
    26 1.482593 0.000000 -0.000001 0.000000 0.000000 1.684243
    27 2.046984 0.000001 0.000000 0.069536 -0.032218 -0.076653
    28 -0.000005 0.000007 3.713254 -3.289109 -0.165283 1.249519
    29 18.045723 0.000000 0.000000 0.000000 0.000000 -1.732931
    30 17.597597 0.000000 0.000000 -0.251607 0.197234 -0.164508
    31 0.000005 -0.000003 -3.713254 0.821892 2.312307 5.493555
    32 18.045721 0.000000 0.000000 0.000000 0.000000 -2.673768
    33 17.597597 0.000000 0.000000 0.379969 0.033854 0.755924
  time 33
    0 -0.698275 1.711141 -20.600716 0.000000 0.000000 -1.585458
    1 -0.753933 0.031251 0.000000 -1.570795 -1.570787 0.000000
    2 1.293670 0.684478 -0.000001 -0.059904 0.017988 0.144386
    3 5.309685 -0.003834 0.000000 0.009240 0.000587 0.067910
    4 4.826790 -0.004591 0.000000 0.021115 -0.015137 0.224043
    5 5.792767 -0.005304 0.000000 -0.016872 0.005165 0.199617
    6 6.662322 -0.001452 0.000000 -0.091910 0.032655 0.231870
    7 -3.518356 0.356631 4.277124 1.389386 -1.051322 -4.744948
    8 4.827512 0.000000 -0.000002 -0.716261 -0.006232 -0.734303
    9 11.140032 0.000000 0.000000 0.000000 0.000000 -0.527650
    10 10.314563 -0.000001 0.000001 -1.870477 0.178727 0.347523
    11 1.646836 0.445664 -1.699647 -0.392035 3.352851 -0.875707
    12 0.928312 0.000000 0.000000 0.000000 0.000000 0.593404
    13 0.928313 0.000000 -0.000001 0.000000 0.000000 1.204231
    14 2.979373 -0.388274 -0.044205 -0.030851 -0.030823 0.768363
    15 1.435262 -0.000001 -0.000001 0.000000 0.000000 1.204014
    16 1.482593 -0.000001 0.000001 0.000000 0.000000 1.153221
    17 -2.975371 1.071532 -4.156022 -1.369805 0.826873 -4.667806
    18 4.972047 0.000000 0.000000 0.381900 0.169808 -0.724705
    19 11.585358 0.000000 0.000001 0.000000 0.000000 -0.924843
    20 10.127058 0.000000 0.000001 1.955784 -0.108843 0.330344
    21 1.537458 0.109715 1.664489 -3.079588 0.031470 0.928526
    22 0.928313 0.000000 0.000002 0.000000 0.000000 0.061034
    23 0.928311 0.000000 0.000001 0.000000 0.000000 0.671897
    24 2.686395 -0.427337 0.044204 -0.001532 0.043599 -0.059181
    25 1.435260 0.000000 0.000001 0.000000 0.000000 1.186618
    26 1.482593 0.000000 -0.000001 0.000000 0.000000 1.684243
    27 2.046984 0.000001 0.000000 0.122571 -0.016876 -0.096544
    28 -0.000005 0.000007 3.713254 -3.289109 -0.165283 1.249519
    29 18.045723 0.000000 0.000000 0.000000 0.000000 -1.732931
    30 17.597597 0.000000 0.000000 -0.251607 0.197234 -0.164508
    31 0.000005 -0.000003 -3.713254 0.821892 2.312307 5.493555
    32 18.045721 0.000000 0.000000 0.000000 0.000000 -2.673768
    33 17.597597 0.000000 0.000000 0.379969 0.033854 0.755924
  time 34
    0 -0.698275 1.879115 -20.600716 0.000000 0.000000 -1.585458
    1 -0.753933 0.031251 0.000000 -1.570795 -1.570787 0.000000
    2 1.293670 0.684478 -0.000001 -0.059600 0.019138 0.144336
    3 5.309685 -0.003834 0.000000 0.005462 0.003404 0.072344
    4 4.826790 -0.004591 0.000000 0.004597 -0.023418 0.258769
    5 5.792767 -0.005304 0.000000 -0.035454 -0.006867 0.232443
    6 6.662322 -0.001452 0.000000 -0.091910 0.032655 0.231870
    7 -3.518356 0.356631 4.277124 1.379418 -1.057945 -4.734025
    8 4.827512 0.000000 -0.000002 -0.679112 0.050475 -0.681446
    9 11.140032 0.000000 0.000000 0.000000 0.000000 -0.533591
    10 10.314563 -0.000001 0.000001 -1.909525 0.171139 0.321743
    11 1.646836 0.445664 -1.699647 -0.392035 3.352851 -0.875707
    12 0.928312 0.000000 0.000000 0.000000 0.000000 0.593404
    13 0.928313 0.000000 -0.000001 0.000000 0.000000 1.204231
    14 2.979373 -0.388274 -0.044205 -0.030851 -0.030823 0.768363
    15 1.435262 -0.000001 -0.000001 0.000000 0.000000 1.204014
    16 1.482593 -0.000001 0.000001 0.000000 0.000000 1.153221
    17 -2.975371 1.071532 -4.156022 -1.395312 0.723683 -4.673936
    18 4.972047 0.000000 0.000000 0.294761 0.109466 -0.632726
    19 11.585358 0.000000 0.000001 0.000000 0.000000 -0.619605
    20 10.127058 0.000000 0.000001 2.058867 -0.122271 0.506520
    21 1.537458 0.109715 1.664489 -3.079588 0.031470 0.928526
    22 0.928313 0.000000 0.000002 0.000000 0.000000 0.061034
    23 0.928311 0.000000 0.000001 0.000000 0.000000 0.671897
    24 2.686395 -0.427337 0.044204 -0.001208 0.043611 -0.052337
    25 1.435260 0.000000 0.000001 0.000000 0.000000 1.186618
    26 1.482593 0.000000 -0.000001 0.000000 0.000000 1.684243
    27 2.046984 0.000001 0.000000 0.160527 -0.008822 -0.095144
    28 -0.000005 0.000007 3.713254 -3.289109 -0.165283 1.249519
    29 18.045723 0.000000 0.000000 0.000000 0.000000 -1.732931
    30 17.597597 0.000000 0.000000 -0.251607 0.197234 -0.164508
    31 0.000005 -0.000003 -3.713254 0.821892 2.312307 5.493555
    32 18.045721 0.000000 0.000000 0.000000 0.000000 -2.673768
    33 17.597597 0.000000 0.000000 0.379969 0.033854 0.755924
end
