version 1
nodes
  0 "Bip01" -1
  1 "Bip01 Pelvis" 0
  2 "Bip01 Spine" 1
  3 "Bip01 Spine1" 2
  4 "Bip01 Spine2" 3
  5 "Bip01 Spine3" 4
  6 "Bip01 Neck" 5
  7 "Bip01 L Arm" 6
  8 "Bip01 L Arm1" 7
  9 "Bip01 L Arm2" 8
  10 "Bip01 L Hand" 9
  11 "Bip01 L Finger0" 10
  12 "Bip01 L Finger01" 11
  13 "Bip01 L Finger02" 12
  14 "Bip01 L Finger1" 10
  15 "Bip01 L Finger11" 14
  16 "Bip01 L Finger12" 15
  17 "Bip01 R Arm" 6
  18 "Bip01 R Arm1" 17
  19 "Bip01 R Arm2" 18
  20 "Bip01 R Hand" 19
  21 "Bip01 R Finger0" 20
  22 "Bip01 R Finger01" 21
  23 "Bip01 R Finger02" 22
  24 "Bip01 R Finger1" 20
  25 "Bip01 R Finger11" 24
  26 "Bip01 R Finger12" 25
  27 "Bip01 Head" 6
  28 "Bip01 L Leg" 1
  29 "Bip01 L Leg1" 28
  30 "Bip01 L Foot" 29
  31 "Bip01 R Leg" 1
  32 "Bip01 R Leg1" 31
  33 "Bip01 R Foot" 32
end
skeleton
  time 0
    0 -1.006878 0.609545 -20.600716 0.000000 0.000000 -1.585458
    1 -2.023503 0.312510 0.000000 -1.570795 -1.570787 0.000000
    2 1.293670 0.684478 -0.000001 -0.263690 0.013637 0.059224
    3 5.309685 -0.003834 0.000000 -0.154753 -0.153043 0.154038
    4 4.826790 -0.004591 0.000000 -0.103574 0.069666 0.255506
    5 5.792767 -0.005304 0.000000 -0.113341 0.094247 0.318463
    6 6.662322 -0.001452 0.000000 0.000000 -0.000001 0.471000
    7 -3.108188 1.516823 4.339626 0.845420 -1.058477 -4.390229
    8 4.827512 0.000000 -0.000002 -1.586291 0.234922 -1.023889
    9 11.140032 0.000000 0.000000 0.000000 0.000000 -0.883903
    10 10.314563 -0.000001 0.000001 -2.336682 0.842675 1.229447
    11 1.646836 0.445664 -1.699647 0.034758 -0.065773 1.631422
    12 0.928312 0.000000 0.000000 0.000000 0.000000 -1.300235
    13 0.928313 0.000000 -0.000001 0.000000 0.000000 0.000000
    14 2.979373 -0.388274 -0.044205 -0.018435 -0.039524 0.418816
    15 1.435262 -0.000001 -0.000001 0.000000 0.000000 1.238742
    16 1.482593 -0.000001 0.000001 0.000000 0.000000 1.221017
    17 -2.869899 1.399667 -4.140396 0.000026 1.143962 -3.613362
    18 4.972047 0.000000 0.000000 -0.190271 -0.191443 -1.543403
    19 11.585358 0.000000 0.000001 0.000000 0.000000 -1.643054
    20 10.127058 0.000000 0.000001 2.499245 -0.000567 1.180661
    21 1.537458 0.109715 1.664489 -0.233165 -0.412999 0.435664
    22 0.928313 0.000000 0.000002 0.000000 0.000000 0.000000
    23 0.928311 0.000000 0.000001 0.000000 0.000000 0.000000
    24 2.686395 -0.427337 0.044204 0.001045 0.043611 0.000046
    25 1.435260 0.000000 0.000001 0.000000 0.000000 0.767749
    26 1.482593 0.000000 -0.000001 0.000000 0.000000 1.221638
    27 2.046984 0.000001 0.000000 0.621988 -0.408741 -0.497101
    28 -0.000005 0.000007 3.713254 -3.289300 -0.165475 1.249615
    29 18.045723 0.000000 0.000000 0.000000 0.000000 -1.732931
    30 17.597597 0.000000 0.000000 -0.251405 0.197505 -0.164508
    31 0.000005 -0.000003 -3.713254 0.821892 2.312307 5.493555
    32 18.045721 0.000000 0.000000 0.000000 0.000000 -2.673768
    33 17.597597 0.000000 0.000000 0.379969 0.033854 0.755924
  time 1
    0 -1.006878 0.609545 -20.600716 0.000000 0.000000 -1.585458
    1 -2.007878 0.292978 0.000000 -1.570795 -1.570787 0.000000
    2 1.293670 0.684478 -0.000001 -0.263690 0.013637 0.059224
    3 5.309685 -0.003834 0.000000 -0.154923 -0.151353 0.159708
    4 4.826790 -0.004591 0.000000 -0.102506 0.067629 0.241064
    5 5.792767 -0.005304 0.000000 -0.113862 0.091227 0.301230
    6 6.662322 -0.001452 0.000000 0.000000 -0.000001 0.471000
    7 -3.108188 1.516823 4.339626 0.845420 -1.058477 -4.390229
    8 4.827512 0.000000 -0.000002 -1.580233 0.253597 -1.018170
    9 11.140032 0.000000 0.000000 0.000000 0.000000 -0.868688
    10 10.314563 -0.000001 0.000001 -2.336871 0.842207 1.220215
    11 1.646836 0.445664 -1.699647 0.034758 -0.065773 1.631422
    12 0.928312 0.000000 0.000000 0.000000 0.000000 -1.300235
    13 0.928313 0.000000 -0.000001 0.000000 0.000000 0.000000
    14 2.979373 -0.388274 -0.044205 -0.018435 -0.039524 0.418816
    15 1.435262 -0.000001 -0.000001 0.000000 0.000000 1.238742
    16 1.482593 -0.000001 0.000001 0.000000 0.000000 1.221017
    17 -2.869899 1.399667 -4.140396 0.000026 1.142332 -3.613362
    18 4.972047 0.000000 0.000000 -0.190834 -0.213057 -1.529426
    19 11.585358 0.000000 0.000001 0.000000 0.000000 -1.642972
    20 10.127058 0.000000 0.000001 2.499175 -0.000757 1.181111
    21 1.537458 0.109715 1.664489 -0.233165 -0.412999 0.435664
    22 0.928313 0.000000 0.000002 0.000000 0.000000 0.000000
    23 0.928311 0.000000 0.000001 0.000000 0.000000 0.000000
    24 2.686395 -0.427337 0.044204 0.001045 0.043611 0.000046
    25 1.435260 0.000000 0.000001 0.000000 0.000000 0.767749
    26 1.482593 0.000000 -0.000001 0.000000 0.000000 1.221638
    27 2.046984 0.000001 0.000000 0.617637 -0.407443 -0.469363
    28 -0.000005 0.000007 3.713254 -3.288629 -0.166146 1.249327
    29 18.045723 0.000000 0.000000 0.000000 0.000000 -1.733893
    30 17.597597 0.000000 0.000000 -0.250645 0.197062 -0.163637
    31 0.000005 -0.000003 -3.713254 0.823905 2.314416 5.496815
    32 18.045721 0.000000 0.000000 0.000000 0.000000 -2.673532
    33 17.597597 0.000000 0.000000 0.379633 0.034229 0.758696
  time 2
    0 -1.006878 0.609545 -20.600716 0.000000 0.000000 -1.585458
    1 -1.992252 0.273446 0.000000 -1.570795 -1.570787 0.000000
    2 1.293670 0.684478 -0.000001 -0.263690 0.013637 0.059224
    3 5.309685 -0.003834 0.000000 -0.155128 -0.149568 0.165766
    4 4.826790 -0.004591 0.000000 -0.101304 0.065484 0.225564
    5 5.792767 -0.005304 0.000000 -0.114456 0.088039 0.283436
    6 6.662322 -0.001452 0.000000 0.000000 -0.000001 0.471000
    7 -3.108188 1.516823 4.339626 0.845420 -1.058477 -4.390229
    8 4.827512 0.000000 -0.000002 -1.573616 0.273551 -1.012451
    9 11.140032 0.000000 0.000000 0.000000 0.000000 -0.851879
    10 10.314563 -0.000001 0.000001 -2.338198 0.841551 1.208951
    11 1.646836 0.445664 -1.699647 0.034758 -0.065773 1.631422
    12 0.928312 0.000000 0.000000 0.000000 0.000000 -1.300235
    13 0.928313 0.000000 -0.000001 0.000000 0.000000 0.000000
    14 2.979373 -0.388274 -0.044205 -0.018435 -0.039524 0.418816
    15 1.435262 -0.000001 -0.000001 0.000000 0.000000 1.238742
    16 1.482593 -0.000001 0.000001 0.000000 0.000000 1.221017
    17 -2.869899 1.399667 -4.140396 0.000026 1.143962 -3.613362
    18 4.972047 0.000000 0.000000 -0.189427 -0.236198 -1.513985
    19 11.585358 0.000000 0.000001 0.000000 0.000000 -1.643054
    20 10.127058 0.000000 0.000001 2.499245 -0.000567 1.180661
    21 1.537458 0.109715 1.664489 -0.233165 -0.412999 0.435664
    22 0.928313 0.000000 0.000002 0.000000 0.000000 0.000000
    23 0.928311 0.000000 0.000001 0.000000 0.000000 0.000000
    24 2.686395 -0.427337 0.044204 0.001045 0.043611 0.000046
    25 1.435260 0.000000 0.000001 0.000000 0.000000 0.767749
    26 1.482593 0.000000 -0.000001 0.000000 0.000000 1.221638
    27 2.046984 0.000001 0.000000 0.612941 -0.405997 -0.440530
    28 -0.000005 0.000007 3.713254 -3.287766 -0.166817 1.249039
    29 18.045723 0.000000 0.000000 0.000000 0.000000 -1.735003
    30 17.597597 0.000000 0.000000 -0.249783 0.196570 -0.162812
    31 0.000005 -0.000003 -3.713254 0.825822 2.316717 5.500362
    32 18.045721 0.000000 0.000000 0.000000 0.000000 -2.673217
    33 17.597597 0.000000 0.000000 0.379230 0.034722 0.761652
  time 3
    0 -1.006878 0.609545 -20.600716 0.000000 0.000000 -1.585458
    1 -1.980533 0.253914 0.000000 -1.570795 -1.570787 0.000000
    2 1.293670 0.684478 -0.000001 -0.263690 0.013637 0.059224
    3 5.309685 -0.003834 0.000000 -0.155298 -0.147722 0.171860
    4 4.826790 -0.004591 0.000000 -0.100083 0.063387 0.210593
    5 5.792767 -0.005304 0.000000 -0.114924 0.084923 0.265933
    6 6.662322 -0.001452 0.000000 0.002289 0.003353 0.512868
    7 -3.057405 1.653546 4.331813 0.840053 -1.055314 -4.427598
    8 4.827512 0.000000 -0.000002 -1.567079 0.293846 -1.007512
    9 11.140032 0.000000 0.000000 0.000000 0.000000 -0.834780
    10 10.314563 -0.000001 0.000001 -2.341515 0.840240 1.195538
    11 1.646836 0.445664 -1.699647 0.034758 -0.065773 1.631422
    12 0.928312 0.000000 0.000000 0.000000 0.000000 -1.300235
    13 0.928313 0.000000 -0.000001 0.000000 0.000000 0.000000
    14 2.979373 -0.388274 -0.044205 -0.018435 -0.039524 0.418816
    15 1.435262 -0.000001 -0.000001 0.000000 0.000000 1.238742
    16 1.482593 -0.000001 0.000001 0.000000 0.000000 1.221017
    17 -2.799584 1.501233 -4.148209 0.000886 1.155819 -3.654356
    18 4.972047 0.000000 0.000000 -0.183893 -0.260544 -1.498678
    19 11.585358 0.000000 0.000001 0.000000 0.000000 -1.643299
    20 10.127058 0.000000 0.000001 2.499526 0.000567 1.178560
    21 1.537458 0.109715 1.664489 -0.233165 -0.412999 0.435664
    22 0.928313 0.000000 0.000002 0.000000 0.000000 0.000000
    23 0.928311 0.000000 0.000001 0.000000 0.000000 0.000000
    24 2.686395 -0.427337 0.044204 0.001045 0.043611 0.000046
    25 1.435260 0.000000 0.000001 0.000000 0.000000 0.767749
    26 1.482593 0.000000 -0.000001 0.000000 0.000000 1.221638
    27 2.046984 0.000001 0.000000 0.608589 -0.402752 -0.462246
    28 -0.000005 0.000007 3.713254 -3.287191 -0.167488 1.248752
    29 18.045723 0.000000 0.000000 0.000000 0.000000 -1.736039
    30 17.597597 0.000000 0.000000 -0.248998 0.196078 -0.161941
    31 0.000005 -0.000003 -3.713254 0.827643 2.318826 5.503621
    32 18.045721 0.000000 0.000000 0.000000 0.000000 -2.672981
    33 17.597597 0.000000 0.000000 0.378861 0.035215 0.764469
  time 4
    0 -1.006878 0.609545 -20.600716 0.000000 0.000000 -1.585458
    1 -1.961001 0.238289 0.000000 -1.570795 -1.570787 0.000000
    2 1.293670 0.684478 -0.000001 -0.263690 0.013637 0.059224
    3 5.309685 -0.003834 0.000000 -0.155451 -0.146032 0.177530
    4 4.826790 -0.004591 0.000000 -0.099053 0.061649 0.197717
    5 5.792767 -0.005304 0.000000 -0.115265 0.082082 0.249676
    6 6.662322 -0.001452 0.000000 0.004770 0.006624 0.554821
    7 -3.006622 1.790269 4.312281 0.834589 -1.052238 -4.464680
    8 4.827512 0.000000 -0.000002 -1.561260 0.312436 -1.003179
    9 11.140032 0.000000 0.000000 0.000000 0.000000 -0.819855
    10 10.314563 -0.000001 0.000001 -2.345117 0.839022 1.182822
    11 1.646836 0.445664 -1.699647 0.034758 -0.065773 1.631422
    12 0.928312 0.000000 0.000000 0.000000 0.000000 -1.300235
    13 0.928313 0.000000 -0.000001 0.000000 0.000000 0.000000
    14 2.979373 -0.388274 -0.044205 -0.018435 -0.039524 0.418816
    15 1.435262 -0.000001 -0.000001 0.000000 0.000000 1.238742
    16 1.482593 -0.000001 0.000001 0.000000 0.000000 1.221017
    17 -2.725363 1.606705 -4.163834 0.001268 1.169516 -3.695924
    18 4.972047 0.000000 0.000000 -0.177420 -0.282801 -1.485100
    19 11.585358 0.000000 0.000001 0.000000 0.000000 -1.643707
    20 10.127058 0.000000 0.000001 2.500016 0.001891 1.175959
    21 1.537458 0.109715 1.664489 -0.233165 -0.412999 0.435664
    22 0.928313 0.000000 0.000002 0.000000 0.000000 0.000000
    23 0.928311 0.000000 0.000001 0.000000 0.000000 0.000000
    24 2.686395 -0.427337 0.044204 0.001045 0.043611 0.000046
    25 1.435260 0.000000 0.000001 0.000000 0.000000 0.767749
    26 1.482593 0.000000 -0.000001 0.000000 0.000000 1.221638
    27 2.046984 0.000001 0.000000 0.604884 -0.399654 -0.487490
    28 -0.000005 0.000007 3.713254 -3.286520 -0.167968 1.248560
    29 18.045723 0.000000 0.000000 0.000000 0.000000 -1.736853
    30 17.597597 0.000000 0.000000 -0.248339 0.195659 -0.161207
    31 0.000005 -0.000003 -3.713254 0.829080 2.320551 5.506306
    32 18.045721 0.000000 0.000000 0.000000 0.000000 -2.672744
    33 17.597597 0.000000 0.000000 0.378526 0.035629 0.766732
  time 5
    0 -1.006878 0.609545 -20.600716 0.000000 0.000000 -1.585458
    1 -1.953189 0.218757 0.000000 -1.570795 -1.570787 0.000000
    2 1.293670 0.684478 -0.000001 -0.263690 0.013637 0.059224
    3 5.309685 -0.003834 0.000000 -0.155587 -0.144582 0.182406
    4 4.826790 -0.004591 0.000000 -0.098309 0.060378 0.188633
    5 5.792767 -0.005304 0.000000 -0.115499 0.079793 0.235661
    6 6.662322 -0.001452 0.000000 0.007359 0.009840 0.596774
    7 -2.940214 1.919179 4.300562 0.829029 -1.049281 -4.501666
    8 4.827512 0.000000 -0.000002 -1.556637 0.327615 -1.000146
    9 11.140032 0.000000 0.000000 0.000000 0.000000 -0.808479
    10 10.314563 -0.000001 0.000001 -2.348908 0.837804 1.172313
    11 1.646836 0.445664 -1.699647 0.034758 -0.065773 1.631422
    12 0.928312 0.000000 0.000000 0.000000 0.000000 -1.300235
    13 0.928313 0.000000 -0.000001 0.000000 0.000000 0.000000
    14 2.979373 -0.388274 -0.044205 -0.018435 -0.039524 0.418816
    15 1.435262 -0.000001 -0.000001 0.000000 0.000000 1.238742
    16 1.482593 -0.000001 0.000001 0.000000 0.000000 1.221017
    17 -2.639423 1.712177 -4.171647 0.001364 1.183897 -3.737589
    18 4.972047 0.000000 0.000000 -0.170667 -0.301201 -1.474585
    19 11.585358 0.000000 0.000001 0.000000 0.000000 -1.644034
    20 10.127058 0.000000 0.000001 2.500367 0.003404 1.173157
    21 1.537458 0.109715 1.664489 -0.233165 -0.412999 0.435664
    22 0.928313 0.000000 0.000002 0.000000 0.000000 0.000000
    23 0.928311 0.000000 0.000001 0.000000 0.000000 0.000000
    24 2.686395 -0.427337 0.044204 0.001045 0.043611 0.000046
    25 1.435260 0.000000 0.000001 0.000000 0.000000 0.767749
    26 1.482593 0.000000 -0.000001 0.000000 0.000000 1.221638
    27 2.046984 0.000001 0.000000 0.602213 -0.396910 -0.518026
    28 -0.000005 0.000007 3.713254 -3.286041 -0.168351 1.248368
    29 18.045723 0.000000 0.000000 0.000000 0.000000 -1.737372
    30 17.597597 0.000000 0.000000 -0.247908 0.195413 -0.160840
    31 0.000005 -0.000003 -3.713254 0.830135 2.321702 5.508031
    32 18.045721 0.000000 0.000000 0.000000 0.000000 -2.672430
    33 17.597597 0.000000 0.000000 0.378358 0.035767 0.768210
  time 6
    0 -1.006878 0.609545 -20.600716 0.000000 0.000000 -1.585458
    1 -1.953189 0.218757 0.000000 -1.570795 -1.570787 0.000000
    2 1.293670 0.684478 -0.000001 -0.263690 0.013637 0.059224
    3 5.309685 -0.003834 0.000000 -0.155672 -0.143492 0.186062
    4 4.826790 -0.004591 0.000000 -0.097890 0.059647 0.183297
    5 5.792767 -0.005304 0.000000 -0.115571 0.077960 0.222103
    6 6.662322 -0.001452 0.000000 0.010055 0.012905 0.638670
    7 -2.869899 2.055902 4.288843 0.823087 -1.046413 -4.538460
    8 4.827512 0.000000 -0.000002 -1.553049 0.341173 -0.997200
    9 11.140032 0.000000 0.000000 0.000000 0.000000 -0.799930
    10 10.314563 -0.000001 0.000001 -2.352130 0.836680 1.163429
    11 1.646836 0.445664 -1.699647 0.034758 -0.065773 1.631422
    12 0.928312 0.000000 0.000000 0.000000 0.000000 -1.300235
    13 0.928313 0.000000 -0.000001 0.000000 0.000000 0.000000
    14 2.979373 -0.388274 -0.044205 -0.018435 -0.039524 0.418816
    15 1.435262 -0.000001 -0.000001 0.000000 0.000000 1.238742
    16 1.482593 -0.000001 0.000001 0.000000 0.000000 1.221017
    17 -2.549577 1.805929 -4.187273 0.001077 1.197962 -3.779924
    18 4.972047 0.000000 0.000000 -0.164476 -0.317029 -1.466332
    19 11.585358 0.000000 0.000001 0.000000 0.000000 -1.644361
    20 10.127058 0.000000 0.000001 2.500788 0.004917 1.170456
    21 1.537458 0.109715 1.664489 -0.233165 -0.412999 0.435664
    22 0.928313 0.000000 0.000002 0.000000 0.000000 0.000000
    23 0.928311 0.000000 0.000001 0.000000 0.000000 0.000000
    24 2.686395 -0.427337 0.044204 0.001045 0.043611 0.000046
    25 1.435260 0.000000 0.000001 0.000000 0.000000 0.767749
    26 1.482593 0.000000 -0.000001 0.000000 0.000000 1.221638
    27 2.046984 0.000001 0.000000 0.600274 -0.394550 -0.552090
    28 -0.000005 0.000007 3.713254 -3.285753 -0.168543 1.248368
    29 18.045723 0.000000 0.000000 0.000000 0.000000 -1.737668
    30 17.597597 0.000000 0.000000 -0.247629 0.195241 -0.160611
    31 0.000005 -0.000003 -3.713254 0.830997 2.322469 5.509182
    32 18.045721 0.000000 0.000000 0.000000 0.000000 -2.672430
    33 17.597597 0.000000 0.000000 0.378291 0.035807 0.769180
  time 7
    0 -1.006878 0.609545 -20.600716 0.000000 0.000000 -1.585458
    1 -1.949282 0.210944 0.000000 -1.570795 -1.570787 0.000000
    2 1.293670 0.684478 -0.000001 -0.263690 0.013637 0.059224
    3 5.309685 -0.003834 0.000000 -0.155723 -0.142736 0.188553
    4 4.826790 -0.004591 0.000000 -0.097680 0.059312 0.180608
    5 5.792767 -0.005304 0.000000 -0.115517 0.076570 0.209687
    6 6.662322 -0.001452 0.000000 0.012907 0.015846 0.680680
    7 -2.799584 2.180906 4.269311 0.817048 -1.043663 -4.575158
    8 4.827512 0.000000 -0.000002 -1.550339 0.353026 -0.994861
    9 11.140032 0.000000 0.000000 0.000000 0.000000 -0.793554
    10 10.314563 -0.000001 0.000001 -2.354879 0.835931 1.156287
    11 1.646836 0.445664 -1.699647 0.034758 -0.065773 1.631422
    12 0.928312 0.000000 0.000000 0.000000 0.000000 -1.300235
    13 0.928313 0.000000 -0.000001 0.000000 0.000000 0.000000
    14 2.979373 -0.388274 -0.044205 -0.018435 -0.039524 0.418816
    15 1.435262 -0.000001 -0.000001 0.000000 0.000000 1.238742
    16 1.482593 -0.000001 0.000001 0.000000 0.000000 1.221017
    17 -2.455824 1.903589 -4.202898 0.000122 1.210529 -3.822737
    18 4.972047 0.000000 0.000000 -0.159505 -0.330608 -1.459610
    19 11.585358 0.000000 0.000001 0.000000 0.000000 -1.644606
    20 10.127058 0.000000 0.000001 2.501138 0.006147 1.168155
    21 1.537458 0.109715 1.664489 -0.233165 -0.412999 0.435664
    22 0.928313 0.000000 0.000002 0.000000 0.000000 0.000000
    23 0.928311 0.000000 0.000001 0.000000 0.000000 0.000000
    24 2.686395 -0.427337 0.044204 0.001045 0.043611 0.000046
    25 1.435260 0.000000 0.000001 0.000000 0.000000 0.767749
    26 1.482593 0.000000 -0.000001 0.000000 0.000000 1.221638
    27 2.046984 0.000001 0.000000 0.599068 -0.392632 -0.589013
    28 -0.000005 0.000007 3.713254 -3.285561 -0.168735 1.248273
    29 18.045723 0.000000 0.000000 0.000000 0.000000 -1.737890
    30 17.597597 0.000000 0.000000 -0.247401 0.195118 -0.160428
    31 0.000005 -0.000003 -3.713254 0.831572 2.323044 5.509949
    32 18.045721 0.000000 0.000000 0.000000 0.000000 -2.672193
    33 17.597597 0.000000 0.000000 0.378190 0.035866 0.769873
  time 8
    0 -1.006878 0.609545 -20.600716 0.000000 0.000000 -1.585458
    1 -1.949282 0.210944 0.000000 -1.570795 -1.570787 0.000000
    2 1.293670 0.684478 -0.000001 -0.263690 0.013637 0.059224
    3 5.309685 -0.003834 0.000000 -0.155757 -0.142281 0.190072
    4 4.826790 -0.004591 0.000000 -0.097680 0.059312 0.180608
    5 5.792767 -0.005304 0.000000 -0.115391 0.076006 0.202482
    6 6.662322 -0.001452 0.000000 0.012907 0.015846 0.680680
    7 -2.799584 2.180906 4.269311 0.817048 -1.043663 -4.575158
    8 4.827512 0.000000 -0.000002 -1.549382 0.359081 -0.993994
    9 11.140032 0.000000 0.000000 0.000000 0.000000 -0.790801
    10 10.314563 -0.000001 0.000001 -2.356585 0.835463 1.152223
    11 1.646836 0.445664 -1.699647 0.034758 -0.065773 1.631422
    12 0.928312 0.000000 0.000000 0.000000 0.000000 -1.300235
    13 0.928313 0.000000 -0.000001 0.000000 0.000000 0.000000
    14 2.979373 -0.388274 -0.044205 -0.018435 -0.039524 0.418816
    15 1.435262 -0.000001 -0.000001 0.000000 0.000000 1.238742
    16 1.482593 -0.000001 0.000001 0.000000 0.000000 1.221017
    17 -2.455824 1.903589 -4.202898 0.000122 1.216523 -3.822737
    18 4.972047 0.000000 0.000000 -0.155941 -0.337358 -1.456548
    19 11.585358 0.000000 0.000001 0.000000 0.000000 -1.644769
    20 10.127058 0.000000 0.000001 2.501349 0.007092 1.166505
    21 1.537458 0.109715 1.664489 -0.233165 -0.412999 0.435664
    22 0.928313 0.000000 0.000002 0.000000 0.000000 0.000000
    23 0.928311 0.000000 0.000001 0.000000 0.000000 0.000000
    24 2.686395 -0.427337 0.044204 0.001045 0.043611 0.000046
    25 1.435260 0.000000 0.000001 0.000000 0.000000 0.767749
    26 1.482593 0.000000 -0.000001 0.000000 0.000000 1.221638
    27 2.046984 0.000001 0.000000 0.597474 -0.398415 -0.574840
    28 -0.000005 0.000007 3.713254 -3.285561 -0.168639 1.248273
    29 18.045723 0.000000 0.000000 0.000000 0.000000 -1.737816
    30 17.597597 0.000000 0.000000 -0.247452 0.195093 -0.160474
    31 0.000005 -0.000003 -3.713254 0.831572 2.322948 5.509853
    32 18.045721 0.000000 0.000000 0.000000 0.000000 -2.672193
    33 17.597597 0.000000 0.000000 0.378257 0.035708 0.769781
  time 9
    0 -1.006878 0.609545 -20.600716 0.000000 0.000000 -1.585458
    1 -1.961001 0.218757 0.000000 -1.570795 -1.570787 0.000000
    2 1.293670 0.684478 -0.000001 -0.263690 0.013637 0.059224
    3 5.309685 -0.003834 0.000000 -0.155774 -0.142209 0.190337
    4 4.826790 -0.004591 0.000000 -0.097890 0.059647 0.183297
    5 5.792767 -0.005304 0.000000 -0.115247 0.076713 0.204662
    6 6.662322 -0.001452 0.000000 0.012907 0.015846 0.680680
    7 -2.799584 2.180906 4.269311 0.817048 -1.043663 -4.575158
    8 4.827512 0.000000 -0.000002 -1.550658 0.356182 -0.995814
    9 11.140032 0.000000 0.000000 0.000000 0.000000 -0.793264
    10 10.314563 -0.000001 0.000001 -2.357627 0.835182 1.152513
    11 1.646836 0.445664 -1.699647 0.034758 -0.065773 1.631422
    12 0.928312 0.000000 0.000000 0.000000 0.000000 -1.300235
    13 0.928313 0.000000 -0.000001 0.000000 0.000000 0.000000
    14 2.979373 -0.388274 -0.044205 -0.018435 -0.039524 0.418816
    15 1.435262 -0.000001 -0.000001 0.000000 0.000000 1.238742
    16 1.482593 -0.000001 0.000001 0.000000 0.000000 1.221017
    17 -2.455824 1.903589 -4.202898 0.000122 1.220283 -3.822737
    18 4.972047 0.000000 0.000000 -0.153033 -0.333903 -1.459011
    19 11.585358 0.000000 0.000001 0.000000 0.000000 -1.644932
    20 10.127058 0.000000 0.000001 2.501489 0.007660 1.165504
    21 1.537458 0.109715 1.664489 -0.233165 -0.412999 0.435664
    22 0.928313 0.000000 0.000002 0.000000 0.000000 0.000000
    23 0.928311 0.000000 0.000001 0.000000 0.000000 0.000000
    24 2.686395 -0.427337 0.044204 0.001045 0.043611 0.000046
    25 1.435260 0.000000 0.000001 0.000000 0.000000 0.767749
    26 1.482593 0.000000 -0.000001 0.000000 0.000000 1.221638
    27 2.046984 0.000001 0.000000 0.597345 -0.404463 -0.571920
    28 -0.000005 0.000007 3.713254 -3.285945 -0.168447 1.248368
    29 18.045723 0.000000 0.000000 0.000000 0.000000 -1.737224
    30 17.597597 0.000000 0.000000 -0.247756 0.195290 -0.160978
    31 0.000005 -0.000003 -3.713254 0.830997 2.321989 5.508511
    32 18.045721 0.000000 0.000000 0.000000 0.000000 -2.672430
    33 17.597597 0.000000 0.000000 0.378526 0.035274 0.768580
  time 10
    0 -1.006878 0.609545 -20.600716 0.000000 0.000000 -1.585458
    1 -1.972720 0.230476 0.000000 -1.570795 -1.570787 0.000000
    2 1.293670 0.684478 -0.000001 -0.263690 0.013637 0.059224
    3 5.309685 -0.003834 0.000000 -0.155757 -0.142605 0.189065
    4 4.826790 -0.004591 0.000000 -0.098309 0.060378 0.188633
    5 5.792767 -0.005304 0.000000 -0.115086 0.078823 0.217390
    6 6.662322 -0.001452 0.000000 0.012907 0.015846 0.680680
    7 -2.799584 2.180906 4.269311 0.817048 -1.043663 -4.575158
    8 4.827512 0.000000 -0.000002 -1.554564 0.343476 -1.000840
    9 11.140032 0.000000 0.000000 0.000000 0.000000 -0.801307
    10 10.314563 -0.000001 0.000001 -2.358101 0.835182 1.156868
    11 1.646836 0.445664 -1.699647 0.034758 -0.065773 1.631422
    12 0.928312 0.000000 0.000000 0.000000 0.000000 -1.300235
    13 0.928313 0.000000 -0.000001 0.000000 0.000000 0.000000
    14 2.979373 -0.388274 -0.044205 -0.018435 -0.039524 0.418816
    15 1.435262 -0.000001 -0.000001 0.000000 0.000000 1.238742
    16 1.482593 -0.000001 0.000001 0.000000 0.000000 1.221017
    17 -2.455824 1.903589 -4.202898 0.000122 1.222701 -3.822737
    18 4.972047 0.000000 0.000000 -0.150219 -0.319520 -1.467264
    19 11.585358 0.000000 0.000001 0.000000 0.000000 -1.645014
    20 10.127058 0.000000 0.000001 2.501629 0.008133 1.164854
    21 1.537458 0.109715 1.664489 -0.233165 -0.412999 0.435664
    22 0.928313 0.000000 0.000002 0.000000 0.000000 0.000000
    23 0.928311 0.000000 0.000001 0.000000 0.000000 0.000000
    24 2.686395 -0.427337 0.044204 0.001045 0.043611 0.000046
    25 1.435260 0.000000 0.000001 0.000000 0.000000 0.767749
    26 1.482593 0.000000 -0.000001 0.000000 0.000000 1.221638
    27 2.046984 0.000001 0.000000 0.598896 -0.410895 -0.581287
    28 -0.000005 0.000007 3.713254 -3.286520 -0.167968 1.248656
    29 18.045723 0.000000 0.000000 0.000000 0.000000 -1.736261
    30 17.597597 0.000000 0.000000 -0.248339 0.195586 -0.161757
    31 0.000005 -0.000003 -3.713254 0.829943 2.320264 5.505922
    32 18.045721 0.000000 0.000000 0.000000 0.000000 -2.672666
    33 17.597597 0.000000 0.000000 0.378962 0.034564 0.766363
  time 11
    0 -1.006878 0.609545 -20.600716 0.000000 0.000000 -1.585458
    1 -1.992252 0.253914 0.000000 -1.570795 -1.570787 0.000000
    2 1.293670 0.684478 -0.000001 -0.263690 0.013637 0.059224
    3 5.309685 -0.003834 0.000000 -0.155672 -0.143492 0.186062
    4 4.826790 -0.004591 0.000000 -0.099168 0.061793 0.198797
    5 5.792767 -0.005304 0.000000 -0.114888 0.081879 0.236907
    6 6.662322 -0.001452 0.000000 0.012907 0.015846 0.680680
    7 -2.799584 2.180906 4.269311 0.817048 -1.043663 -4.575158
    8 4.827512 0.000000 -0.000002 -1.560383 0.323095 -1.007858
    9 11.140032 0.000000 0.000000 0.000000 0.000000 -0.815000
    10 10.314563 -0.000001 0.000001 -2.358101 0.835369 1.165403
    11 1.646836 0.445664 -1.699647 0.034758 -0.065773 1.631422
    12 0.928312 0.000000 0.000000 0.000000 0.000000 -1.300235
    13 0.928313 0.000000 -0.000001 0.000000 0.000000 0.000000
    14 2.979373 -0.388274 -0.044205 -0.018435 -0.039524 0.418816
    15 1.435262 -0.000001 -0.000001 0.000000 0.000000 1.238742
    16 1.482593 -0.000001 0.000001 0.000000 0.000000 1.221017
    17 -2.455824 1.903589 -4.202898 0.000122 1.223700 -3.822737
    18 4.972047 0.000000 0.000000 -0.147780 -0.296219 -1.480641
    19 11.585358 0.000000 0.000001 0.000000 0.000000 -1.645014
    20 10.127058 0.000000 0.000001 2.501629 0.008133 1.164604
    21 1.537458 0.109715 1.664489 -0.233165 -0.412999 0.435664
    22 0.928313 0.000000 0.000002 0.000000 0.000000 0.000000
    23 0.928311 0.000000 0.000001 0.000000 0.000000 0.000000
    24 2.686395 -0.427337 0.044204 0.001045 0.043611 0.000046
    25 1.435260 0.000000 0.000001 0.000000 0.000000 0.767749
    26 1.482593 0.000000 -0.000001 0.000000 0.000000 1.221638
    27 2.046984 0.000001 0.000000 0.602213 -0.417710 -0.601361
    28 -0.000005 0.000007 3.713254 -3.287287 -0.167201 1.248944
    29 18.045723 0.000000 0.000000 0.000000 0.000000 -1.734855
    30 17.597597 0.000000 0.000000 -0.249276 0.196078 -0.162904
    31 0.000005 -0.000003 -3.713254 0.828218 2.317867 5.501992
    32 18.045721 0.000000 0.000000 0.000000 0.000000 -2.672981
    33 17.597597 0.000000 0.000000 0.379633 0.033598 0.762991
  time 12
    0 -1.006878 0.609545 -20.600716 0.000000 0.000000 -1.585458
    1 -2.003971 0.261727 0.000000 -1.570795 -1.570787 0.000000
    2 1.293670 0.684478 -0.000001 -0.263690 0.013637 0.059224
    3 5.309685 -0.003834 0.000000 -0.155417 -0.146284 0.176771
    4 4.826790 -0.004591 0.000000 -0.100350 0.063854 0.213790
    5 5.792767 -0.005304 0.000000 -0.114546 0.085378 0.259995
    6 6.662322 -0.001452 0.000000 0.012907 0.015846 0.680680
    7 -2.799584 2.180906 4.269311 0.817048 -1.043663 -4.575158
    8 4.827512 0.000000 -0.000002 -1.567319 0.302630 -1.014184
    9 11.140032 0.000000 0.000000 0.000000 0.000000 -0.832969
    10 10.314563 -0.000001 0.000001 -2.357059 0.836025 1.176551
    11 1.646836 0.445664 -1.699647 0.034758 -0.065773 1.631422
    12 0.928312 0.000000 0.000000 0.000000 0.000000 -1.300235
    13 0.928313 0.000000 -0.000001 0.000000 0.000000 0.000000
    14 2.979373 -0.388274 -0.044205 -0.018435 -0.039524 0.418816
    15 1.435262 -0.000001 -0.000001 0.000000 0.000000 1.238742
    16 1.482593 -0.000001 0.000001 0.000000 0.000000 1.221017
    17 -2.455824 1.903589 -4.202898 0.000122 1.223070 -3.822737
    18 4.972047 0.000000 0.000000 -0.147499 -0.271150 -1.495550
    19 11.585358 0.000000 0.000001 0.000000 0.000000 -1.645014
    20 10.127058 0.000000 0.000001 2.501629 0.008133 1.164754
    21 1.537458 0.109715 1.664489 -0.233165 -0.412999 0.435664
    22 0.928313 0.000000 0.000002 0.000000 0.000000 0.000000
    23 0.928311 0.000000 0.000001 0.000000 0.000000 0.000000
    24 2.686395 -0.427337 0.044204 0.001045 0.043611 0.000046
    25 1.435260 0.000000 0.000001 0.000000 0.000000 0.767749
    26 1.482593 0.000000 -0.000001 0.000000 0.000000 1.221638
    27 2.046984 0.000001 0.000000 0.606866 -0.425263 -0.623807
    28 -0.000005 0.000007 3.713254 -3.287670 -0.166721 1.249039
    29 18.045723 0.000000 0.000000 0.000000 0.000000 -1.734411
    30 17.597597 0.000000 0.000000 -0.249783 0.196373 -0.163224
    31 0.000005 -0.000003 -3.713254 0.826780 2.316525 5.500170
    32 18.045721 0.000000 0.000000 0.000000 0.000000 -2.672981
    33 17.597597 0.000000 0.000000 0.379532 0.033657 0.761421
  time 13
    0 -1.006878 0.609545 -20.600716 0.000000 0.000000 -1.585458
    1 -1.992252 0.273446 0.000000 -1.570795 -1.570787 0.000000
    2 1.293670 0.684478 -0.000001 -0.263690 0.013637 0.059224
    3 5.309685 -0.003834 0.000000 -0.155042 -0.150383 0.163029
    4 4.826790 -0.004591 0.000000 -0.101647 0.066155 0.230393
    5 5.792767 -0.005304 0.000000 -0.114078 0.088962 0.283374
    6 6.662322 -0.001452 0.000000 0.010055 0.012905 0.638670
    7 -2.869899 2.055902 4.288843 0.823087 -1.046413 -4.538460
    8 4.827512 0.000000 -0.000002 -1.574413 0.285319 -1.018863
    9 11.140032 0.000000 0.000000 0.000000 0.000000 -0.851372
    10 10.314563 -0.000001 0.000001 -2.355258 0.837055 1.188222
    11 1.646836 0.445664 -1.699647 0.034758 -0.065773 1.631422
    12 0.928312 0.000000 0.000000 0.000000 0.000000 -1.300235
    13 0.928313 0.000000 -0.000001 0.000000 0.000000 0.000000
    14 2.979373 -0.388274 -0.044205 -0.018435 -0.039524 0.418816
    15 1.435262 -0.000001 -0.000001 0.000000 0.000000 1.238742
    16 1.482593 -0.000001 0.000001 0.000000 0.000000 1.221017
    17 -2.549577 1.805929 -4.187273 0.001077 1.216655 -3.779828
    18 4.972047 0.000000 0.000000 -0.149844 -0.248090 -1.509659
    19 11.585358 0.000000 0.000001 0.000000 0.000000 -1.644932
    20 10.127058 0.000000 0.000001 2.501559 0.007660 1.165404
    21 1.537458 0.109715 1.664489 -0.233165 -0.412999 0.435664
    22 0.928313 0.000000 0.000002 0.000000 0.000000 0.000000
    23 0.928311 0.000000 0.000001 0.000000 0.000000 0.000000
    24 2.686395 -0.427337 0.044204 0.001045 0.043611 0.000046
    25 1.435260 0.000000 0.000001 0.000000 0.000000 0.767749
    26 1.482593 0.000000 -0.000001 0.000000 0.000000 1.221638
    27 2.046984 0.000001 0.000000 0.612596 -0.423404 -0.609999
    28 -0.000005 0.000007 3.713254 -3.287766 -0.166721 1.249039
    29 18.045723 0.000000 0.000000 0.000000 0.000000 -1.735151
    30 17.597597 0.000000 0.000000 -0.249884 0.196447 -0.162674
    31 0.000005 -0.000003 -3.713254 0.826109 2.316429 5.500937
    32 18.045721 0.000000 0.000000 0.000000 0.000000 -2.673217
    33 17.597597 0.000000 0.000000 0.378727 0.034722 0.761698
  time 14
    0 -1.006878 0.609545 -20.600716 0.000000 0.000000 -1.585458
    1 -1.992252 0.285165 0.000000 -1.570795 -1.570787 0.000000
    2 1.293670 0.684478 -0.000001 -0.263690 0.013637 0.059224
    3 5.309685 -0.003834 0.000000 -0.154753 -0.153043 0.154038
    4 4.826790 -0.004591 0.000000 -0.102830 0.068228 0.245363
    5 5.792767 -0.005304 0.000000 -0.113646 0.092054 0.303950
    6 6.662322 -0.001452 0.000000 0.007359 0.009840 0.596774
    7 -2.940214 1.919179 4.300562 0.829029 -1.049281 -4.501666
    8 4.827512 0.000000 -0.000002 -1.580870 0.265450 -1.023889
    9 11.140032 0.000000 0.000000 0.000000 0.000000 -0.867891
    10 10.314563 -0.000001 0.000001 -2.353173 0.837992 1.200009
    11 1.646836 0.445664 -1.699647 0.034758 -0.065773 1.631422
    12 0.928312 0.000000 0.000000 0.000000 0.000000 -1.300235
    13 0.928313 0.000000 -0.000001 0.000000 0.000000 0.000000
    14 2.979373 -0.388274 -0.044205 -0.018435 -0.039524 0.418816
    15 1.435262 -0.000001 -0.000001 0.000000 0.000000 1.238742
    16 1.482593 -0.000001 0.000001 0.000000 0.000000 1.221017
    17 -2.639423 1.712177 -4.171647 0.001555 1.208347 -3.737493
    18 4.972047 0.000000 0.000000 -0.153033 -0.224065 -1.523769
    19 11.585358 0.000000 0.000001 0.000000 0.000000 -1.644769
    20 10.127058 0.000000 0.000001 2.501349 0.007092 1.166505
    21 1.537458 0.109715 1.664489 -0.233165 -0.412999 0.435664
    22 0.928313 0.000000 0.000002 0.000000 0.000000 0.000000
    23 0.928311 0.000000 0.000001 0.000000 0.000000 0.000000
    24 2.686395 -0.427337 0.044204 0.001045 0.043611 0.000046
    25 1.435260 0.000000 0.000001 0.000000 0.000000 0.767749
    26 1.482593 0.000000 -0.000001 0.000000 0.000000 1.221638
    27 2.046984 0.000001 0.000000 0.617852 -0.420867 -0.596495
    28 -0.000005 0.000007 3.713254 -3.288150 -0.166338 1.249135
    29 18.045723 0.000000 0.000000 0.000000 0.000000 -1.734855
    30 17.597597 0.000000 0.000000 -0.250366 0.196718 -0.162858
    31 0.000005 -0.000003 -3.713254 0.824768 2.315087 5.499403
    32 18.045721 0.000000 0.000000 0.000000 0.000000 -2.673453
    33 17.597597 0.000000 0.000000 0.378526 0.034880 0.760266
  time 15
    0 -1.006878 0.609545 -20.600716 0.000000 0.000000 -1.585458
    1 -2.015691 0.304697 0.000000 -1.570795 -1.570787 0.000000
    2 1.293670 0.684478 -0.000001 -0.263690 0.013637 0.059224
    3 5.309685 -0.003834 0.000000 -0.154668 -0.153786 0.151565
    4 4.826790 -0.004591 0.000000 -0.103574 0.069666 0.255506
    5 5.792767 -0.005304 0.000000 -0.113341 0.094247 0.318463
    6 6.662322 -0.001452 0.000000 0.004770 0.006624 0.554821
    7 -3.006622 1.790269 4.312281 0.834589 -1.052238 -4.464680
    8 4.827512 0.000000 -0.000002 -1.585335 0.245923 -1.027875
    9 11.140032 0.000000 0.000000 0.000000 0.000000 -0.879991
    10 10.314563 -0.000001 0.000001 -2.349951 0.839022 1.211389
    11 1.646836 0.445664 -1.699647 0.034758 -0.065773 1.631422
    12 0.928312 0.000000 0.000000 0.000000 0.000000 -1.300235
    13 0.928313 0.000000 -0.000001 0.000000 0.000000 0.000000
    14 2.979373 -0.388274 -0.044205 -0.018435 -0.039524 0.418816
    15 1.435262 -0.000001 -0.000001 0.000000 0.000000 1.238742
    16 1.482593 -0.000001 0.000001 0.000000 0.000000 1.221017
    17 -2.725363 1.606705 -4.163834 0.001364 1.194807 -3.695829
    18 4.972047 0.000000 0.000000 -0.159693 -0.202692 -1.536282
    19 11.585358 0.000000 0.000001 0.000000 0.000000 -1.644524
    20 10.127058 0.000000 0.000001 2.500998 0.005768 1.169106
    21 1.537458 0.109715 1.664489 -0.233165 -0.412999 0.435664
    22 0.928313 0.000000 0.000002 0.000000 0.000000 0.000000
    23 0.928311 0.000000 0.000001 0.000000 0.000000 0.000000
    24 2.686395 -0.427337 0.044204 0.001045 0.043611 0.000046
    25 1.435260 0.000000 0.000001 0.000000 0.000000 0.767749
    26 1.482593 0.000000 -0.000001 0.000000 0.000000 1.221638
    27 2.046984 0.000001 0.000000 0.621514 -0.417297 -0.578246
    28 -0.000005 0.000007 3.713254 -3.288917 -0.165571 1.249423
    29 18.045723 0.000000 0.000000 0.000000 0.000000 -1.733597
    30 17.597597 0.000000 0.000000 -0.251227 0.197161 -0.163866
    31 0.000005 -0.000003 -3.713254 0.823042 2.312882 5.495856
    32 18.045721 0.000000 0.000000 0.000000 0.000000 -2.673532
    33 17.597597 0.000000 0.000000 0.379063 0.034091 0.757264
  time 16
    0 -1.006878 0.609545 -20.600716 0.000000 0.000000 -1.585458
    1 -2.023503 0.316416 0.000000 -1.570795 -1.570787 0.000000
    2 1.293670 0.684478 -0.000001 -0.263690 0.013637 0.059224
    3 5.309685 -0.003834 0.000000 -0.154634 -0.154014 0.150841
    4 4.826790 -0.004591 0.000000 -0.103898 0.070302 0.259805
    5 5.792767 -0.005304 0.000000 -0.113161 0.095254 0.325045
    6 6.662322 -0.001452 0.000000 0.002289 0.003353 0.512868
    7 -3.057405 1.653546 4.331813 0.840053 -1.055314 -4.427598
    8 4.827512 0.000000 -0.000002 -1.587646 0.234752 -1.028741
    9 11.140032 0.000000 0.000000 0.000000 0.000000 -0.886149
    10 10.314563 -0.000001 0.000001 -2.345117 0.840427 1.220854
    11 1.646836 0.445664 -1.699647 0.034758 -0.065773 1.631422
    12 0.928312 0.000000 0.000000 0.000000 0.000000 -1.300235
    13 0.928313 0.000000 -0.000001 0.000000 0.000000 0.000000
    14 2.979373 -0.388274 -0.044205 -0.018435 -0.039524 0.418816
    15 1.435262 -0.000001 -0.000001 0.000000 0.000000 1.238742
    16 1.482593 -0.000001 0.000001 0.000000 0.000000 1.221017
    17 -2.799584 1.501233 -4.148209 0.000886 1.175852 -3.654356
    18 4.972047 0.000000 0.000000 -0.170386 -0.190640 -1.543403
    19 11.585358 0.000000 0.000001 0.000000 0.000000 -1.644034
    20 10.127058 0.000000 0.000001 2.500367 0.003404 1.173107
    21 1.537458 0.109715 1.664489 -0.233165 -0.412999 0.435664
    22 0.928313 0.000000 0.000002 0.000000 0.000000 0.000000
    23 0.928311 0.000000 0.000001 0.000000 0.000000 0.000000
    24 2.686395 -0.427337 0.044204 0.001045 0.043611 0.000046
    25 1.435260 0.000000 0.000001 0.000000 0.000000 0.767749
    26 1.482593 0.000000 -0.000001 0.000000 0.000000 1.221638
    27 2.046984 0.000001 0.000000 0.623281 -0.413373 -0.547163
    28 -0.000005 0.000007 3.713254 -3.289204 -0.165283 1.249519
    29 18.045723 0.000000 0.000000 0.000000 0.000000 -1.733005
    30 17.597597 0.000000 0.000000 -0.251607 0.197382 -0.164371
    31 0.000005 -0.000003 -3.713254 0.822180 2.311732 5.494130
    32 18.045721 0.000000 0.000000 0.000000 0.000000 -2.673768
    33 17.597597 0.000000 0.000000 0.379297 0.033657 0.755786
  time 17
    0 -1.006878 0.609545 -20.600716 0.000000 0.000000 -1.585458
    1 -2.027410 0.316416 0.000000 -1.570795 -1.570787 0.000000
    2 1.293670 0.684478 -0.000001 -0.263690 0.013637 0.059224
    3 5.309685 -0.003834 0.000000 -0.154668 -0.153846 0.151353
    4 4.826790 -0.004591 0.000000 -0.103898 0.070374 0.260334
    5 5.792767 -0.005304 0.000000 -0.113143 0.095349 0.325917
    6 6.662322 -0.001452 0.000000 0.000000 -0.000001 0.471000
    7 -3.108188 1.516823 4.339626 0.845420 -1.058477 -4.390229
    8 4.827512 0.000000 -0.000002 -1.588204 0.230232 -1.027355
    9 11.140032 0.000000 0.000000 0.000000 0.000000 -0.888323
    10 10.314563 -0.000001 0.000001 -2.340189 0.841832 1.227879
    11 1.646836 0.445664 -1.699647 0.034758 -0.065773 1.631422
    12 0.928312 0.000000 0.000000 0.000000 0.000000 -1.300235
    13 0.928313 0.000000 -0.000001 0.000000 0.000000 0.000000
    14 2.979373 -0.388274 -0.044205 -0.018435 -0.039524 0.418816
    15 1.435262 -0.000001 -0.000001 0.000000 0.000000 1.238742
    16 1.482593 -0.000001 0.000001 0.000000 0.000000 1.221017
    17 -2.869899 1.399667 -4.140396 0.000026 1.155976 -3.613362
    18 4.972047 0.000000 0.000000 -0.181829 -0.185658 -1.546864
    19 11.585358 0.000000 0.000001 0.000000 0.000000 -1.643544
    20 10.127058 0.000000 0.000001 2.499806 0.001040 1.177409
    21 1.537458 0.109715 1.664489 -0.233165 -0.412999 0.435664
    22 0.928313 0.000000 0.000002 0.000000 0.000000 0.000000
    23 0.928311 0.000000 0.000001 0.000000 0.000000 0.000000
    24 2.686395 -0.427337 0.044204 0.001045 0.043611 0.000046
    25 1.435260 0.000000 0.000001 0.000000 0.000000 0.767749
    26 1.482593 0.000000 -0.000001 0.000000 0.000000 1.221638
    27 2.046984 0.000001 0.000000 0.623625 -0.409213 -0.507320
    28 -0.000005 0.000007 3.713254 -3.289396 -0.165187 1.249615
    29 18.045723 0.000000 0.000000 0.000000 0.000000 -1.732783
    30 17.597597 0.000000 0.000000 -0.251734 0.197431 -0.164600
    31 0.000005 -0.000003 -3.713254 0.822180 2.311348 5.493555
    32 18.045721 0.000000 0.000000 0.000000 0.000000 -2.673768
    33 17.597597 0.000000 0.000000 0.379432 0.033440 0.755232
  time 18
    0 -1.006878 0.609545 -20.600716 0.000000 0.000000 -1.585458
    1 -2.027410 0.316416 0.000000 -1.570795 -1.570787 0.000000
    2 1.293670 0.684478 -0.000001 -0.263690 0.013637 0.059224
    3 5.309685 -0.003834 0.000000 -0.154685 -0.153547 0.152430
    4 4.826790 -0.004591 0.000000 -0.103822 0.070146 0.258725
    5 5.792767 -0.005304 0.000000 -0.113197 0.095002 0.323384
    6 6.662322 -0.001452 0.000000 0.000000 -0.000001 0.471000
    7 -3.108188 1.516823 4.339626 0.845420 -1.058477 -4.390229
    8 4.827512 0.000000 -0.000002 -1.587726 0.230147 -1.025362
    9 11.140032 0.000000 0.000000 0.000000 0.000000 -0.887671
    10 10.314563 -0.000001 0.000001 -2.336492 0.842769 1.231886
    11 1.646836 0.445664 -1.699647 0.034758 -0.065773 1.631422
    12 0.928312 0.000000 0.000000 0.000000 0.000000 -1.300235
    13 0.928313 0.000000 -0.000001 0.000000 0.000000 0.000000
    14 2.979373 -0.388274 -0.044205 -0.018435 -0.039524 0.418816
    15 1.435262 -0.000001 -0.000001 0.000000 0.000000 1.238742
    16 1.482593 -0.000001 0.000001 0.000000 0.000000 1.221017
    17 -2.869899 1.399667 -4.140396 0.000026 1.143962 -3.613362
    18 4.972047 0.000000 0.000000 -0.190458 -0.185819 -1.547064
    19 11.585358 0.000000 0.000001 0.000000 0.000000 -1.643054
    20 10.127058 0.000000 0.000001 2.499245 -0.000567 1.180661
    21 1.537458 0.109715 1.664489 -0.233165 -0.412999 0.435664
    22 0.928313 0.000000 0.000002 0.000000 0.000000 0.000000
    23 0.928311 0.000000 0.000001 0.000000 0.000000 0.000000
    24 2.686395 -0.427337 0.044204 0.001045 0.043611 0.000046
    25 1.435260 0.000000 0.000001 0.000000 0.000000 0.767749
    26 1.482593 0.000000 -0.000001 0.000000 0.000000 1.221638
    27 2.046984 0.000001 0.000000 0.623065 -0.409036 -0.504157
    28 -0.000005 0.000007 3.713254 -3.289300 -0.165187 1.249615
    29 18.045723 0.000000 0.000000 0.000000 0.000000 -1.732709
    30 17.597597 0.000000 0.000000 -0.251734 0.197382 -0.164600
    31 0.000005 -0.000003 -3.713254 0.822372 2.311444 5.493651
    32 18.045721 0.000000 0.000000 0.000000 0.000000 -2.673768
    33 17.597597 0.000000 0.000000 0.379432 0.033361 0.755416
  time 19
    0 -1.006878 0.609545 -20.600716 0.000000 0.000000 -1.585458
    1 -2.023503 0.316416 0.000000 -1.570795 -1.570787 0.000000
    2 1.293670 0.684478 -0.000001 -0.263690 0.013637 0.059224
    3 5.309685 -0.003834 0.000000 -0.154719 -0.153187 0.153526
    4 4.826790 -0.004591 0.000000 -0.103650 0.069822 0.256608
    5 5.792767 -0.005304 0.000000 -0.113287 0.094498 0.320061
    6 6.662322 -0.001452 0.000000 0.000000 -0.000001 0.471000
    7 -3.108188 1.516823 4.339626 0.845420 -1.058477 -4.390229
    8 4.827512 0.000000 -0.000002 -1.586770 0.232961 -1.024062
    9 11.140032 0.000000 0.000000 0.000000 0.000000 -0.885352
    10 10.314563 -0.000001 0.000001 -2.335829 0.842863 1.231189
    11 1.646836 0.445664 -1.699647 0.034758 -0.065773 1.631422
    12 0.928312 0.000000 0.000000 0.000000 0.000000 -1.300235
    13 0.928313 0.000000 -0.000001 0.000000 0.000000 0.000000
    14 2.979373 -0.388274 -0.044205 -0.018435 -0.039524 0.418816
    15 1.435262 -0.000001 -0.000001 0.000000 0.000000 1.238742
    16 1.482593 -0.000001 0.000001 0.000000 0.000000 1.221017
    17 -2.869899 1.399667 -4.140396 0.000026 1.141753 -3.613362
    18 4.972047 0.000000 0.000000 -0.191865 -0.189193 -1.545000
    19 11.585358 0.000000 0.000001 0.000000 0.000000 -1.642972
    20 10.127058 0.000000 0.000001 2.499175 -0.000851 1.181261
    21 1.537458 0.109715 1.664489 -0.233165 -0.412999 0.435664
    22 0.928313 0.000000 0.000002 0.000000 0.000000 0.000000
    23 0.928311 0.000000 0.000001 0.000000 0.000000 0.000000
    24 2.686395 -0.427337 0.044204 0.001045 0.043611 0.000046
    25 1.435260 0.000000 0.000001 0.000000 0.000000 0.767749
    26 1.482593 0.000000 -0.000001 0.000000 0.000000 1.221638
    27 2.046984 0.000001 0.000000 0.622419 -0.408859 -0.499473
    28 -0.000005 0.000007 3.713254 -3.289204 -0.165283 1.249519
    29 18.045723 0.000000 0.000000 0.000000 0.000000 -1.732857
    30 17.597597 0.000000 0.000000 -0.251607 0.197308 -0.164554
    31 0.000005 -0.000003 -3.713254 0.822659 2.311636 5.494130
    32 18.045721 0.000000 0.000000 0.000000 0.000000 -2.673768
    33 17.597597 0.000000 0.000000 0.379398 0.033361 0.755740
  time 20
    0 -1.006878 0.609545 -20.600716 0.000000 0.000000 -1.585458
    1 -2.023503 0.312510 0.000000 -1.570795 -1.570787 0.000000
    2 1.293670 0.684478 -0.000001 -0.263690 0.013637 0.059224
    3 5.309685 -0.003834 0.000000 -0.154753 -0.153043 0.154038
    4 4.826790 -0.004591 0.000000 -0.103574 0.069666 0.255506
    5 5.792767 -0.005304 0.000000 -0.113341 0.094247 0.318463
    6 6.662322 -0.001452 0.000000 0.000000 -0.000001 0.471000
    7 -3.108188 1.516823 4.339626 0.845420 -1.058477 -4.390229
    8 4.827512 0.000000 -0.000002 -1.586291 0.234922 -1.023889
    9 11.140032 0.000000 0.000000 0.000000 0.000000 -0.883903
    10 10.314563 -0.000001 0.000001 -2.336682 0.842675 1.229447
    11 1.646836 0.445664 -1.699647 0.034758 -0.065773 1.631422
    12 0.928312 0.000000 0.000000 0.000000 0.000000 -1.300235
    13 0.928313 0.000000 -0.000001 0.000000 0.000000 0.000000
    14 2.979373 -0.388274 -0.044205 -0.018435 -0.039524 0.418816
    15 1.435262 -0.000001 -0.000001 0.000000 0.000000 1.238742
    16 1.482593 -0.000001 0.000001 0.000000 0.000000 1.221017
    17 -2.869899 1.399667 -4.140396 0.000026 1.143962 -3.613362
    18 4.972047 0.000000 0.000000 -0.190271 -0.191443 -1.543403
    19 11.585358 0.000000 0.000001 0.000000 0.000000 -1.643054
    20 10.127058 0.000000 0.000001 2.499245 -0.000567 1.180661
    21 1.537458 0.109715 1.664489 -0.233165 -0.412999 0.435664
    22 0.928313 0.000000 0.000002 0.000000 0.000000 0.000000
    23 0.928311 0.000000 0.000001 0.000000 0.000000 0.000000
    24 2.686395 -0.427337 0.044204 0.001045 0.043611 0.000046
    25 1.435260 0.000000 0.000001 0.000000 0.000000 0.767749
    26 1.482593 0.000000 -0.000001 0.000000 0.000000 1.221638
    27 2.046984 0.000001 0.000000 0.621988 -0.408741 -0.497101
    28 -0.000005 0.000007 3.713254 -3.289300 -0.165475 1.249615
    29 18.045723 0.000000 0.000000 0.000000 0.000000 -1.732931
    30 17.597597 0.000000 0.000000 -0.251405 0.197505 -0.164508
    31 0.000005 -0.000003 -3.713254 0.821892 2.312307 5.493555
    32 18.045721 0.000000 0.000000 0.000000 0.000000 -2.673768
    33 17.597597 0.000000 0.000000 0.379969 0.033854 0.755924
end
