version 1
nodes
  0 "Bip01" -1
  1 "Bip01 Pelvis" 0
  2 "Bip01 Spine" 1
  3 "Bip01 Spine1" 2
  4 "Bip01 Spine2" 3
  5 "Bip01 Spine3" 4
  6 "Bip01 Neck" 5
  7 "Bip01 L Arm" 6
  8 "Bip01 L Arm1" 7
  9 "Bip01 L Arm2" 8
  10 "Bip01 L Hand" 9
  11 "Bip01 L Finger0" 10
  12 "Bip01 L Finger01" 11
  13 "Bip01 L Finger02" 12
  14 "Bip01 L Finger1" 10
  15 "Bip01 L Finger11" 14
  16 "Bip01 L Finger12" 15
  17 "Bip01 R Arm" 6
  18 "Bip01 R Arm1" 17
  19 "Bip01 R Arm2" 18
  20 "Bip01 R Hand" 19
  21 "Bip01 R Finger0" 20
  22 "Bip01 R Finger01" 21
  23 "Bip01 R Finger02" 22
  24 "Bip01 R Finger1" 20
  25 "Bip01 R Finger11" 24
  26 "Bip01 R Finger12" 25
  27 "Bip01 Head" 6
  28 "Bip01 L Leg" 1
  29 "Bip01 L Leg1" 28
  30 "Bip01 L Foot" 29
  31 "Bip01 R Leg" 1
  32 "Bip01 R Leg1" 31
  33 "Bip01 R Foot" 32
end
skeleton
  time 0
    0 -0.209979 2.261939 -20.600716 0.000000 0.000000 -1.585458
    1 -0.375015 0.507828 0.000000 -1.570795 -1.570787 0.000000
    2 1.293670 0.684478 -0.000001 -0.080303 -0.071333 0.178387
    3 5.309685 -0.003834 0.000000 -0.174493 0.111013 -0.018465
    4 4.826790 -0.004591 0.000000 -0.094704 0.081495 -0.043822
    5 5.792767 -0.005304 0.000000 -0.162483 0.277767 -0.074743
    6 6.662322 -0.001452 0.000000 0.000000 -0.000001 0.471000
    7 -3.108188 1.516823 4.339626 -0.000100 -1.370787 -3.613335
    8 4.827512 0.000000 -0.000002 -0.966412 -0.651156 -1.640666
    9 11.140032 0.000000 0.000000 0.000000 0.000000 -0.985411
    10 10.314563 -0.000001 0.000001 -0.756950 0.076718 -0.129119
    11 1.646836 0.445664 -1.699647 0.153911 0.442352 0.277231
    12 0.928312 0.000000 0.000000 0.000000 0.000000 0.000000
    13 0.928313 0.000000 -0.000001 0.000000 0.000000 0.000000
    14 2.979373 -0.388274 -0.044205 -0.018183 -0.039656 0.411911
    15 1.435262 -0.000001 -0.000001 0.000000 0.000000 0.570828
    16 1.482593 -0.000001 0.000001 0.000000 0.000000 0.530452
    17 -2.869899 1.399667 -4.140396 0.000026 1.370769 -3.613362
    18 4.972047 0.000000 0.000000 0.318117 0.356540 -1.359843
    19 11.585358 0.000000 0.000001 0.000000 0.000000 -2.122269
    20 10.127058 0.000000 0.000001 2.693629 0.093051 1.200769
    21 1.537458 0.109715 1.664489 -0.344506 -0.327833 0.740676
    22 0.928313 0.000000 0.000002 0.000000 0.000000 0.000000
    23 0.928311 0.000000 0.000001 0.000000 0.000000 0.000000
    24 2.686395 -0.427337 0.044204 0.001045 0.043611 0.000046
    25 1.435260 0.000000 0.000001 0.000000 0.000000 1.037923
    26 1.482593 0.000000 -0.000001 0.000000 0.000000 1.142584
    27 2.046984 0.000001 0.000000 0.671318 0.235231 -0.919191
    28 -0.000005 0.000007 3.713254 -3.289300 -0.165475 1.249615
    29 18.045723 0.000000 0.000000 0.000000 0.000000 -1.732931
    30 17.597597 0.000000 0.000000 -0.251405 0.197505 -0.164508
    31 0.000005 -0.000003 -3.713254 0.821892 2.312307 5.493555
    32 18.045721 0.000000 0.000000 0.000000 0.000000 -2.673768
    33 17.597597 0.000000 0.000000 0.379969 0.033854 0.755924
  time 1
    0 -0.338889 2.133029 -20.600716 0.000000 0.000000 -1.585458
    1 -0.375015 0.507828 0.000000 -1.570795 -1.570787 0.000000
    2 1.293670 0.684478 -0.000001 -0.074980 -0.050396 0.126172
    3 5.309685 -0.003834 0.000000 -0.125739 0.077145 0.019088
    4 4.826790 -0.004591 0.000000 -0.081734 0.079650 -0.040074
    5 5.792767 -0.005304 0.000000 -0.125392 0.197422 -0.011998
    6 6.662322 -0.001452 0.000000 0.000000 -0.000001 0.471000
    7 -3.108188 1.516823 4.339626 -0.000100 -1.370787 -3.613335
    8 4.827512 0.000000 -0.000002 -0.663647 0.005877 -1.980422
    9 11.140032 0.000000 0.000000 0.000000 0.000000 -0.961066
    10 10.314563 -0.000001 0.000001 -0.892860 -0.016767 -0.165350
    11 1.646836 0.445664 -1.699647 0.153911 0.442352 0.277231
    12 0.928312 0.000000 0.000000 0.000000 0.000000 0.000000
    13 0.928313 0.000000 -0.000001 0.000000 0.000000 0.000000
    14 2.979373 -0.388274 -0.044205 -0.018183 -0.039656 0.411911
    15 1.435262 -0.000001 -0.000001 0.000000 0.000000 0.570828
    16 1.482593 -0.000001 0.000001 0.000000 0.000000 0.530452
    17 -2.869899 1.399667 -4.140396 -0.007139 1.370769 -3.620449
    18 4.972047 0.000000 0.000000 0.307049 0.295635 -1.091891
    19 11.585358 0.000000 0.000001 0.000000 0.000000 -2.223226
    20 10.127058 0.000000 0.000001 2.694470 0.036502 1.301863
    21 1.537458 0.109715 1.664489 -0.344506 -0.327833 0.740676
    22 0.928313 0.000000 0.000002 0.000000 0.000000 0.000000
    23 0.928311 0.000000 0.000001 0.000000 0.000000 0.000000
    24 2.686395 -0.427337 0.044204 0.001045 0.043611 0.000046
    25 1.435260 0.000000 0.000001 0.000000 0.000000 1.037856
    26 1.482593 0.000000 -0.000001 0.000000 0.000000 1.142584
    27 2.046984 0.000001 0.000000 0.553357 0.045052 -0.676363
    28 -0.000005 0.000007 3.713254 -3.282397 -0.167968 1.247218
    29 18.045723 0.000000 0.000000 0.000000 0.000000 -1.741590
    30 17.597597 0.000000 0.000000 -0.247249 0.191968 -0.157539
    31 0.000005 -0.000003 -3.713254 0.841732 2.322181 5.526534
    32 18.045721 0.000000 0.000000 0.000000 0.000000 -2.671879
    33 17.597597 0.000000 0.000000 0.369165 0.034722 0.776062
  time 2
    0 -0.475612 1.965055 -20.600716 0.000000 0.000000 -1.585458
    1 -0.375015 0.507828 0.000000 -1.570795 -1.570787 0.000000
    2 1.293670 0.684478 -0.000001 -0.071712 -0.033246 0.088504
    3 5.309685 -0.003834 0.000000 -0.075879 0.052493 0.043870
    4 4.826790 -0.004591 0.000000 -0.070518 0.066299 -0.053942
    5 5.792767 -0.005304 0.000000 -0.112675 0.118168 0.019749
    6 6.662322 -0.001452 0.000000 0.000000 -0.000001 0.471000
    7 -3.108188 1.516823 4.339626 -0.000100 -1.370787 -3.613335
    8 4.827512 0.000000 -0.000002 -0.298863 0.736587 -1.948622
    9 11.140032 0.000000 0.000000 0.000000 0.000000 -0.948097
    10 10.314563 -0.000001 0.000001 -1.036825 -0.122336 -0.190201
    11 1.646836 0.445664 -1.699647 0.153911 0.442352 0.277231
    12 0.928312 0.000000 0.000000 0.000000 0.000000 0.000000
    13 0.928313 0.000000 -0.000001 0.000000 0.000000 0.000000
    14 2.979373 -0.388274 -0.044205 -0.018183 -0.039656 0.411911
    15 1.435262 -0.000001 -0.000001 0.000000 0.000000 0.570828
    16 1.482593 -0.000001 0.000001 0.000000 0.000000 0.530452
    17 -2.869899 1.399667 -4.140396 -0.018985 1.370769 -3.631847
    18 4.972047 0.000000 0.000000 0.242797 0.141846 -0.763773
    19 11.585358 0.000000 0.000001 0.000000 0.000000 -2.350973
    20 10.127058 0.000000 0.000001 2.689001 -0.023925 1.411060
    21 1.537458 0.109715 1.664489 -0.344506 -0.327833 0.740676
    22 0.928313 0.000000 0.000002 0.000000 0.000000 0.000000
    23 0.928311 0.000000 0.000001 0.000000 0.000000 0.000000
    24 2.686395 -0.427337 0.044204 0.001045 0.043611 0.000046
    25 1.435260 0.000000 0.000001 0.000000 0.000000 1.037856
    26 1.482593 0.000000 -0.000001 0.000000 0.000000 1.142584
    27 2.046984 0.000001 0.000000 0.388134 -0.095739 -0.321671
    28 -0.000005 0.000007 3.713254 -3.275399 -0.170460 1.244822
    29 18.045723 0.000000 0.000000 0.000000 0.000000 -1.752100
    30 17.597597 0.000000 0.000000 -0.242992 0.186357 -0.149058
    31 0.000005 -0.000003 -3.713254 0.860421 2.332151 5.562294
    32 18.045721 0.000000 0.000000 0.000000 0.000000 -2.669911
    33 17.597597 0.000000 0.000000 0.355543 0.038075 0.797263
  time 3
    0 -0.573271 1.793174 -20.600716 0.000000 0.000000 -1.585458
    1 -0.375015 0.507828 0.000000 -1.570795 -1.570787 0.000000
    2 1.293670 0.684478 -0.000001 -0.069876 -0.021022 0.065368
    3 5.309685 -0.003834 0.000000 -0.031141 0.038027 0.057365
    4 4.826790 -0.004591 0.000000 -0.060790 0.048310 -0.078085
    5 5.792767 -0.005304 0.000000 -0.114060 0.056507 0.027286
    6 6.662322 -0.001452 0.000000 0.000000 -0.000001 0.471000
    7 -3.108188 1.516823 4.339626 -0.000100 -1.370787 -3.613335
    8 4.827512 0.000000 -0.000002 0.426641 1.086210 -1.369797
    9 11.140032 0.000000 0.000000 0.000000 0.000000 -0.986135
    10 10.314563 -0.000001 0.000001 -1.159181 -0.214135 -0.199201
    11 1.646836 0.445664 -1.699647 0.153911 0.442352 0.277231
    12 0.928312 0.000000 0.000000 0.000000 0.000000 0.000000
    13 0.928313 0.000000 -0.000001 0.000000 0.000000 0.000000
    14 2.979373 -0.388274 -0.044205 -0.018183 -0.039656 0.411911
    15 1.435262 -0.000001 -0.000001 0.000000 0.000000 0.570828
    16 1.482593 -0.000001 0.000001 0.000000 0.000000 0.530452
    17 -2.869899 1.399667 -4.140396 -0.030257 1.370690 -3.642958
    18 4.972047 0.000000 0.000000 0.117670 -0.025522 -0.468268
    19 11.585358 0.000000 0.000001 0.000000 0.000000 -2.466305
    20 10.127058 0.000000 0.000001 2.679043 -0.074800 1.504450
    21 1.537458 0.109715 1.664489 -0.344506 -0.327833 0.740676
    22 0.928313 0.000000 0.000002 0.000000 0.000000 0.000000
    23 0.928311 0.000000 0.000001 0.000000 0.000000 0.000000
    24 2.686395 -0.427337 0.044204 0.001045 0.043611 0.000046
    25 1.435260 0.000000 0.000001 0.000000 0.000000 1.037856
    26 1.482593 0.000000 -0.000001 0.000000 0.000000 1.142584
    27 2.046984 0.000001 0.000000 0.226530 -0.162948 0.037584
    28 -0.000005 0.000007 3.713254 -3.269838 -0.172570 1.242617
    29 18.045723 0.000000 0.000000 0.000000 0.000000 -1.762759
    30 17.597597 0.000000 0.000000 -0.239571 0.182001 -0.140163
    31 0.000005 -0.000003 -3.713254 0.873551 2.339821 5.594218
    32 18.045721 0.000000 0.000000 0.000000 0.000000 -2.668179
    33 17.597597 0.000000 0.000000 0.341351 0.044012 0.815045
  time 4
    0 -0.616241 1.656452 -20.600716 0.000000 0.000000 -1.585458
    1 -0.375015 0.507828 0.000000 -1.570795 -1.570787 0.000000
    2 1.293670 0.684478 -0.000001 -0.069033 -0.014682 0.056964
    3 5.309685 -0.003834 0.000000 0.001872 0.034755 0.061304
    4 4.826790 -0.004591 0.000000 -0.052378 0.032298 -0.105006
    5 5.792767 -0.005304 0.000000 -0.119942 0.027073 0.014807
    6 6.662322 -0.001452 0.000000 0.000000 -0.000001 0.471000
    7 -3.108188 1.516823 4.339626 -0.000100 -1.370047 -3.613335
    8 4.827512 0.000000 -0.000002 0.862055 1.097210 -0.956648
    9 11.140032 0.000000 0.000000 0.000000 0.000000 -1.034462
    10 10.314563 -0.000001 0.000001 -1.228747 -0.266029 -0.199259
    11 1.646836 0.445664 -1.699647 0.153911 0.442352 0.277231
    12 0.928312 0.000000 0.000000 0.000000 0.000000 0.000000
    13 0.928313 0.000000 -0.000001 0.000000 0.000000 0.000000
    14 2.979373 -0.388274 -0.044205 -0.018183 -0.039656 0.411911
    15 1.435262 -0.000001 -0.000001 0.000000 0.000000 0.570828
    16 1.482593 -0.000001 0.000001 0.000000 0.000000 0.530452
    17 -2.869899 1.399667 -4.140396 -0.036467 1.370690 -3.649088
    18 4.972047 0.000000 0.000000 -0.006332 -0.120254 -0.287570
    19 11.585358 0.000000 0.000001 0.000000 0.000000 -2.530750
    20 10.127058 0.000000 0.000001 2.671399 -0.102980 1.557323
    21 1.537458 0.109715 1.664489 -0.344506 -0.327833 0.740676
    22 0.928313 0.000000 0.000002 0.000000 0.000000 0.000000
    23 0.928311 0.000000 0.000001 0.000000 0.000000 0.000000
    24 2.686395 -0.427337 0.044204 0.001045 0.043611 0.000046
    25 1.435260 0.000000 0.000001 0.000000 0.000000 1.037923
    26 1.482593 0.000000 -0.000001 0.000000 0.000000 1.142584
    27 2.046984 0.000001 0.000000 0.120718 -0.184810 0.275971
    28 -0.000005 0.000007 3.713254 -3.267153 -0.173624 1.241083
    29 18.045723 0.000000 0.000000 0.000000 0.000000 -1.771270
    30 17.597597 0.000000 0.000000 -0.237848 0.179885 -0.132874
    31 0.000005 -0.000003 -3.713254 0.878727 2.343176 5.615501
    32 18.045721 0.000000 0.000000 0.000000 0.000000 -2.667155
    33 17.597597 0.000000 0.000000 0.329708 0.051231 0.825668
  time 5
    0 -0.542020 1.582231 -20.600716 0.000000 0.000000 -1.585458
    1 -0.375015 0.507828 0.000000 -1.570795 -1.570787 0.000000
    2 1.293670 0.684478 -0.000001 -0.068831 -0.013292 0.055926
    3 5.309685 -0.003834 0.000000 0.015417 0.035570 0.061357
    4 4.826790 -0.004591 0.000000 -0.041544 0.036313 -0.119800
    5 5.792767 -0.005304 0.000000 -0.111218 0.060271 -0.004212
    6 6.662322 -0.001452 0.000000 0.000000 -0.000001 0.471000
    7 -3.108188 1.516823 4.339626 -0.000100 -1.370787 -3.613335
    8 4.827512 0.000000 -0.000002 0.905182 1.119040 -0.918435
    9 11.140032 0.000000 0.000000 0.000000 0.000000 -1.056850
    10 10.314563 -0.000001 0.000001 -1.257180 -0.287012 -0.198156
    11 1.646836 0.445664 -1.699647 0.153911 0.442352 0.277231
    12 0.928312 0.000000 0.000000 0.000000 0.000000 0.000000
    13 0.928313 0.000000 -0.000001 0.000000 0.000000 0.000000
    14 2.979373 -0.388274 -0.044205 -0.018183 -0.039656 0.411911
    15 1.435262 -0.000001 -0.000001 0.000000 0.000000 0.570828
    16 1.482593 -0.000001 0.000001 0.000000 0.000000 0.530452
    17 -2.869899 1.399667 -4.140396 -0.038091 1.370664 -3.650716
    18 4.972047 0.000000 0.000000 -0.113168 -0.125878 -0.237920
    19 11.585358 0.000000 0.000001 0.000000 0.000000 -2.551007
    20 10.127058 0.000000 0.000001 -0.473450 -3.027282 -1.562521
    21 1.537458 0.109715 1.664489 -0.344506 -0.327833 0.740676
    22 0.928313 0.000000 0.000002 0.000000 0.000000 0.000000
    23 0.928311 0.000000 0.000001 0.000000 0.000000 0.000000
    24 2.686395 -0.427337 0.044204 0.001045 0.043611 0.000046
    25 1.435260 0.000000 0.000001 0.000000 0.000000 1.037856
    26 1.482593 0.000000 -0.000001 0.000000 0.000000 1.142584
    27 2.046984 0.000001 0.000000 0.025290 -0.212071 0.374331
    28 -0.000005 0.000007 3.713254 -3.269838 -0.173049 1.240987
    29 18.045723 0.000000 0.000000 0.000000 0.000000 -1.776081
    30 17.597597 0.000000 0.000000 -0.239444 0.182419 -0.128427
    31 0.000005 -0.000003 -3.713254 0.869238 2.337807 5.617418
    32 18.045721 0.000000 0.000000 0.000000 0.000000 -2.668179
    33 17.597597 0.000000 0.000000 0.322428 0.060520 0.823128
  time 6
    0 -0.420923 1.574418 -20.600716 0.000000 0.000000 -1.585458
    1 -0.375015 0.507828 0.000000 -1.570795 -1.570787 0.000000
    2 1.293670 0.684478 -0.000001 -0.068916 -0.013735 0.054838
    3 5.309685 -0.003834 0.000000 0.012286 0.034324 0.061834
    4 4.826790 -0.004591 0.000000 -0.031549 0.055668 -0.115126
    5 5.792767 -0.005304 0.000000 -0.093015 0.127792 -0.010773
    6 6.662322 -0.001452 0.000000 0.000000 -0.000001 0.471000
    7 -3.108188 1.516823 4.339626 -0.000100 -1.389179 -3.613335
    8 4.827512 0.000000 -0.000002 0.852170 1.113327 -0.949109
    9 11.140032 0.000000 0.000000 0.000000 0.000000 -1.227260
    10 10.314563 -0.000001 0.000001 -1.215668 -0.282422 -0.214065
    11 1.646836 0.445664 -1.699647 0.153911 0.442352 0.277231
    12 0.928312 0.000000 0.000000 0.000000 0.000000 0.000000
    13 0.928313 0.000000 -0.000001 0.000000 0.000000 0.000000
    14 2.979373 -0.388274 -0.044205 -0.018183 -0.039656 0.411911
    15 1.435262 -0.000001 -0.000001 0.000000 0.000000 0.570828
    16 1.482593 -0.000001 0.000001 0.000000 0.000000 0.530452
    17 -2.869899 1.399667 -4.140396 -0.038951 1.370664 -3.651482
    18 4.972047 0.000000 0.000000 -0.216910 -0.103219 -0.247370
    19 11.585358 0.000000 0.000001 0.000000 0.000000 -2.562687
    20 10.127058 0.000000 0.000001 -0.476325 -3.018582 -1.546014
    21 1.537458 0.109715 1.664489 -0.344506 -0.327833 0.740676
    22 0.928313 0.000000 0.000002 0.000000 0.000000 0.000000
    23 0.928311 0.000000 0.000001 0.000000 0.000000 0.000000
    24 2.686395 -0.427337 0.044204 0.001045 0.043611 0.000046
    25 1.435260 0.000000 0.000001 0.000000 0.000000 1.037923
    26 1.482593 0.000000 -0.000001 0.000000 0.000000 1.142584
    27 2.046984 0.000001 0.000000 -0.073026 -0.248803 0.395622
    28 -0.000005 0.000007 3.713254 -3.275974 -0.171323 1.241946
    29 18.045723 0.000000 0.000000 0.000000 0.000000 -1.776377
    30 17.597597 0.000000 0.000000 -0.242916 0.187415 -0.127601
    31 0.000005 -0.000003 -3.713254 0.852083 2.327837 5.604188
    32 18.045721 0.000000 0.000000 0.000000 0.000000 -2.670462
    33 17.597597 0.000000 0.000000 0.320717 0.067956 0.811673
  time 7
    0 -0.370140 1.644732 -20.600716 0.000000 0.000000 -1.585458
    1 -0.375015 0.507828 0.000000 -1.570795 -1.570787 0.000000
    2 1.293670 0.684478 -0.000001 -0.068949 -0.014179 0.053666
    3 5.309685 -0.003834 0.000000 0.001872 0.032946 0.062417
    4 4.826790 -0.004591 0.000000 -0.033266 0.063135 -0.095503
    5 5.792767 -0.005304 0.000000 -0.092169 0.155260 0.003699
    6 6.662322 -0.001452 0.000000 0.000000 -0.000001 0.471000
    7 -3.108188 1.516823 4.339626 -0.000100 -1.422267 -3.613335
    8 4.827512 0.000000 -0.000002 0.822595 1.024642 -0.896946
    9 11.140032 0.000000 0.000000 0.000000 0.000000 -1.500771
    10 10.314563 -0.000001 0.000001 -1.168185 -0.272118 -0.229917
    11 1.646836 0.445664 -1.699647 0.153911 0.442352 0.277231
    12 0.928312 0.000000 0.000000 0.000000 0.000000 0.000000
    13 0.928313 0.000000 -0.000001 0.000000 0.000000 0.000000
    14 2.979373 -0.388274 -0.044205 -0.018183 -0.039656 0.411911
    15 1.435262 -0.000001 -0.000001 0.000000 0.000000 0.570828
    16 1.482593 -0.000001 0.000001 0.000000 0.000000 0.530452
    17 -2.869899 1.399667 -4.140396 -0.039237 1.370664 -3.651865
    18 4.972047 0.000000 0.000000 -0.261183 -0.112540 -0.299217
    19 11.585358 0.000000 0.000001 0.000000 0.000000 -2.569630
    20 10.127058 0.000000 0.000001 -0.478499 -3.012530 -1.534309
    21 1.537458 0.109715 1.664489 -0.344506 -0.327833 0.740676
    22 0.928313 0.000000 0.000002 0.000000 0.000000 0.000000
    23 0.928311 0.000000 0.000001 0.000000 0.000000 0.000000
    24 2.686395 -0.427337 0.044204 0.001045 0.043611 0.000046
    25 1.435260 0.000000 0.000001 0.000000 0.000000 1.037923
    26 1.482593 0.000000 -0.000001 0.000000 0.000000 1.142584
    27 2.046984 0.000001 0.000000 -0.080177 -0.272376 0.337773
    28 -0.000005 0.000007 3.713254 -3.278467 -0.170364 1.242809
    29 18.045723 0.000000 0.000000 0.000000 0.000000 -1.772158
    30 17.597597 0.000000 0.000000 -0.244436 0.189409 -0.131086
    31 0.000005 -0.000003 -3.713254 0.846045 2.324290 5.590863
    32 18.045721 0.000000 0.000000 0.000000 0.000000 -2.671328
    33 17.597597 0.000000 0.000000 0.326085 0.065767 0.804237
  time 8
    0 -0.436548 1.777549 -20.600716 0.000000 0.000000 -1.585458
    1 -0.375015 0.507828 0.000000 -1.570795 -1.570787 0.000000
    2 1.293670 0.684478 -0.000001 -0.068916 -0.013915 0.052494
    3 5.309685 -0.003834 0.000000 -0.012150 0.032215 0.062929
    4 4.826790 -0.004591 0.000000 -0.048773 0.051342 -0.063335
    5 5.792767 -0.005304 0.000000 -0.116722 0.123333 0.039536
    6 6.662322 -0.001452 0.000000 0.000000 -0.000001 0.471000
    7 -3.108188 1.516823 4.339626 -0.000100 -1.445833 -3.613335
    8 4.827512 0.000000 -0.000002 0.759220 0.859808 -0.831871
    9 11.140032 0.000000 0.000000 0.000000 0.000000 -1.613654
    10 10.314563 -0.000001 0.000001 -1.304189 -0.321202 -0.195137
    11 1.646836 0.445664 -1.699647 0.153911 0.442352 0.277231
    12 0.928312 0.000000 0.000000 0.000000 0.000000 0.000000
    13 0.928313 0.000000 -0.000001 0.000000 0.000000 0.000000
    14 2.979373 -0.388274 -0.044205 -0.018183 -0.039656 0.411911
    15 1.435262 -0.000001 -0.000001 0.000000 0.000000 0.570828
    16 1.482593 -0.000001 0.000001 0.000000 0.000000 0.530452
    17 -2.869899 1.399667 -4.140396 -0.038855 1.370664 -3.651482
    18 4.972047 0.000000 0.000000 -0.248707 -0.180917 -0.413959
    19 11.585358 0.000000 0.000001 0.000000 0.000000 -2.572325
    20 10.127058 0.000000 0.000001 -0.479831 -3.009220 -1.526606
    21 1.537458 0.109715 1.664489 -0.344506 -0.327833 0.740676
    22 0.928313 0.000000 0.000002 0.000000 0.000000 0.000000
    23 0.928311 0.000000 0.000001 0.000000 0.000000 0.000000
    24 2.686395 -0.427337 0.044204 0.001045 0.043611 0.000046
    25 1.435260 0.000000 0.000001 0.000000 0.000000 1.037856
    26 1.482593 0.000000 -0.000001 0.000000 0.000000 1.142584
    27 2.046984 0.000001 0.000000 0.021197 -0.265059 0.211676
    28 -0.000005 0.000007 3.713254 -3.276070 -0.170748 1.243480
    29 18.045723 0.000000 0.000000 0.000000 0.000000 -1.763647
    30 17.597597 0.000000 0.000000 -0.243195 0.187194 -0.138880
    31 0.000005 -0.000003 -3.713254 0.855437 2.329371 5.581276
    32 18.045721 0.000000 0.000000 0.000000 0.000000 -2.670462
    33 17.597597 0.000000 0.000000 0.338901 0.052513 0.803544
  time 9
    0 -0.538114 1.972867 -20.600716 0.000000 0.000000 -1.585458
    1 -0.375015 0.507828 0.000000 -1.570795 -1.570787 0.000000
    2 1.293670 0.684478 -0.000001 -0.068916 -0.013711 0.051406
    3 5.309685 -0.003834 0.000000 -0.030682 0.031567 0.063406
    4 4.826790 -0.004591 0.000000 -0.071281 0.033677 -0.021752
    5 5.792767 -0.005304 0.000000 -0.153579 0.070793 0.088868
    6 6.662322 -0.001452 0.000000 0.000000 -0.000001 0.471000
    7 -3.108188 1.516823 4.339626 -0.000100 -1.451865 -3.613335
    8 4.827512 0.000000 -0.000002 0.603852 0.646965 -0.839323
    9 11.140032 0.000000 0.000000 0.000000 0.000000 -1.457879
    10 10.314563 -0.000001 0.000001 -1.740634 -0.466300 -0.022689
    11 1.646836 0.445664 -1.699647 0.153911 0.442352 0.277231
    12 0.928312 0.000000 0.000000 0.000000 0.000000 0.000000
    13 0.928313 0.000000 -0.000001 0.000000 0.000000 0.000000
    14 2.979373 -0.388274 -0.044205 -0.018183 -0.039656 0.411911
    15 1.435262 -0.000001 -0.000001 0.000000 0.000000 0.570828
    16 1.482593 -0.000001 0.000001 0.000000 0.000000 0.530452
    17 -2.869899 1.399667 -4.140396 -0.038282 1.370664 -3.650908
    18 4.972047 0.000000 0.000000 -0.215784 -0.274203 -0.600447
    19 11.585358 0.000000 0.000001 0.000000 0.000000 -2.570855
    20 10.127058 0.000000 0.000001 -0.480462 -3.008369 -1.522704
    21 1.537458 0.109715 1.664489 -0.344506 -0.327833 0.740676
    22 0.928313 0.000000 0.000002 0.000000 0.000000 0.000000
    23 0.928311 0.000000 0.000001 0.000000 0.000000 0.000000
    24 2.686395 -0.427337 0.044204 0.001045 0.043611 0.000046
    25 1.435260 0.000000 0.000001 0.000000 0.000000 1.037856
    26 1.482593 0.000000 -0.000001 0.000000 0.000000 1.142584
    27 2.046984 0.000001 0.000000 0.163112 -0.231042 0.057110
    28 -0.000005 0.000007 3.713254 -3.272618 -0.171323 1.244438
    29 18.045723 0.000000 0.000000 0.000000 0.000000 -1.751582
    30 17.597597 0.000000 0.000000 -0.241320 0.183994 -0.149791
    31 0.000005 -0.000003 -3.713254 0.868951 2.336945 5.568237
    32 18.045721 0.000000 0.000000 0.000000 0.000000 -2.668730
    33 17.597597 0.000000 0.000000 0.356885 0.033913 0.802482
  time 10
    0 -0.635773 2.187718 -20.600716 0.000000 0.000000 -1.585458
    1 -0.375015 0.507828 0.000000 -1.570795 -1.570787 0.000000
    2 1.293670 0.684478 -0.000001 -0.068899 -0.013592 0.050502
    3 5.309685 -0.003834 0.000000 -0.050915 0.031172 0.063777
    4 4.826790 -0.004591 0.000000 -0.098023 0.014130 0.023469
    5 5.792767 -0.005304 0.000000 -0.198692 0.010582 0.145094
    6 6.662322 -0.001452 0.000000 0.000000 -0.000001 0.471000
    7 -3.108188 1.516823 4.339626 -0.000100 -1.451185 -3.613335
    8 4.827512 0.000000 -0.000002 0.438200 0.390803 -0.855614
    9 11.140032 0.000000 0.000000 0.000000 0.000000 -1.174731
    10 10.314563 -0.000001 0.000001 -2.405395 -0.525127 0.311234
    11 1.646836 0.445664 -1.699647 0.153911 0.442352 0.277231
    12 0.928312 0.000000 0.000000 0.000000 0.000000 0.000000
    13 0.928313 0.000000 -0.000001 0.000000 0.000000 0.000000
    14 2.979373 -0.388274 -0.044205 -0.018183 -0.039656 0.411911
    15 1.435262 -0.000001 -0.000001 0.000000 0.000000 0.570828
    16 1.482593 -0.000001 0.000001 0.000000 0.000000 0.530452
    17 -2.869899 1.399667 -4.140396 -0.037422 1.370690 -3.650141
    18 4.972047 0.000000 0.000000 -0.152658 -0.352222 -0.829197
    19 11.585358 0.000000 0.000001 0.000000 0.000000 -2.566199
    20 10.127058 0.000000 0.000001 -0.480182 -3.009409 -1.523154
    21 1.537458 0.109715 1.664489 -0.344506 -0.327833 0.740676
    22 0.928313 0.000000 0.000002 0.000000 0.000000 0.000000
    23 0.928311 0.000000 0.000001 0.000000 0.000000 0.000000
    24 2.686395 -0.427337 0.044204 0.001045 0.043611 0.000046
    25 1.435260 0.000000 0.000001 0.000000 0.000000 1.037856
    26 1.482593 0.000000 -0.000001 0.000000 0.000000 1.142584
    27 2.046984 0.000001 0.000000 0.309680 -0.175605 -0.091616
    28 -0.000005 0.000007 3.713254 -3.269167 -0.171803 1.245684
    29 18.045723 0.000000 0.000000 0.000000 0.000000 -1.737446
    30 17.597597 0.000000 0.000000 -0.239520 0.180820 -0.162308
    31 0.000005 -0.000003 -3.713254 0.882369 2.344518 5.551269
    32 18.045721 0.000000 0.000000 0.000000 0.000000 -2.666762
    33 17.597597 0.000000 0.000000 0.377653 0.013559 0.799295
  time 11
    0 -0.717807 2.410381 -20.600716 0.000000 0.000000 -1.585458
    1 -0.375015 0.507828 0.000000 -1.570795 -1.570787 0.000000
    2 1.293670 0.684478 -0.000001 -0.068882 -0.013544 0.049983
    3 5.309685 -0.003834 0.000000 -0.070059 0.031016 0.063989
    4 4.826790 -0.004591 0.000000 -0.125967 -0.003715 0.066375
    5 5.792767 -0.005304 0.000000 -0.246216 -0.045218 0.200572
    6 6.662322 -0.001452 0.000000 0.000000 -0.000001 0.471000
    7 -3.108188 1.516823 4.339626 -0.000100 -1.447844 -3.613335
    8 4.827512 0.000000 -0.000002 0.302602 0.125090 -0.859773
    9 11.140032 0.000000 0.000000 0.000000 0.000000 -0.874702
    10 10.314563 -0.000001 0.000001 -3.025421 -0.366258 0.551325
    11 1.646836 0.445664 -1.699647 0.153911 0.442352 0.277231
    12 0.928312 0.000000 0.000000 0.000000 0.000000 0.000000
    13 0.928313 0.000000 -0.000001 0.000000 0.000000 0.000000
    14 2.979373 -0.388274 -0.044205 -0.018183 -0.039656 0.411911
    15 1.435262 -0.000001 -0.000001 0.000000 0.000000 0.570828
    16 1.482593 -0.000001 0.000001 0.000000 0.000000 0.530452
    17 -2.869899 1.399667 -4.140396 -0.036754 1.370690 -3.649567
    18 4.972047 0.000000 0.000000 -0.069740 -0.389103 -1.056218
    19 11.585358 0.000000 0.000001 0.000000 0.000000 -2.559828
    20 10.127058 0.000000 0.000001 -0.479340 -3.011868 -1.528506
    21 1.537458 0.109715 1.664489 -0.344506 -0.327833 0.740676
    22 0.928313 0.000000 0.000002 0.000000 0.000000 0.000000
    23 0.928311 0.000000 0.000001 0.000000 0.000000 0.000000
    24 2.686395 -0.427337 0.044204 0.001045 0.043611 0.000046
    25 1.435260 0.000000 0.000001 0.000000 0.000000 1.037856
    26 1.482593 0.000000 -0.000001 0.000000 0.000000 1.142584
    27 2.046984 0.000001 0.000000 0.431777 -0.127337 -0.184563
    28 -0.000005 0.000007 3.713254 -3.267058 -0.171994 1.247314
    29 18.045723 0.000000 0.000000 0.000000 0.000000 -1.723531
    30 17.597597 0.000000 0.000000 -0.238279 0.178556 -0.174503
    31 0.000005 -0.000003 -3.713254 0.892336 2.350462 5.532191
    32 18.045721 0.000000 0.000000 0.000000 0.000000 -2.664636
    33 17.597597 0.000000 0.000000 0.398053 -0.004824 0.793521
  time 12
    0 -0.760777 2.578355 -20.600716 0.000000 0.000000 -1.585458
    1 -0.375015 0.507828 0.000000 -1.570795 -1.570787 0.000000
    2 1.293670 0.684478 -0.000001 -0.068882 -0.013604 0.049916
    3 5.309685 -0.003834 0.000000 -0.085375 0.031256 0.063936
    4 4.826790 -0.004591 0.000000 -0.151508 -0.017042 0.100705
    5 5.792767 -0.005304 0.000000 -0.288181 -0.086253 0.245835
    6 6.662322 -0.001452 0.000000 0.000000 -0.000001 0.471000
    7 -3.108188 1.516823 4.339626 -0.000100 -1.445833 -3.613335
    8 4.827512 0.000000 -0.000002 0.207818 -0.099947 -0.845216
    9 11.140032 0.000000 0.000000 0.000000 0.000000 -0.668644
    10 10.314563 -0.000001 0.000001 -3.397703 -0.162990 0.524558
    11 1.646836 0.445664 -1.699647 0.153911 0.442352 0.277231
    12 0.928312 0.000000 0.000000 0.000000 0.000000 0.000000
    13 0.928313 0.000000 -0.000001 0.000000 0.000000 0.000000
    14 2.979373 -0.388274 -0.044205 -0.018183 -0.039656 0.411911
    15 1.435262 -0.000001 -0.000001 0.000000 0.000000 0.570828
    16 1.482593 -0.000001 0.000001 0.000000 0.000000 0.530452
    17 -2.869899 1.399667 -4.140396 -0.036467 1.370690 -3.649088
    18 4.972047 0.000000 0.000000 0.010270 -0.383639 -1.225535
    19 11.585358 0.000000 0.000001 0.000000 0.000000 -2.552804
    20 10.127058 0.000000 0.000001 -0.477517 -3.015178 -1.539361
    21 1.537458 0.109715 1.664489 -0.344506 -0.327833 0.740676
    22 0.928313 0.000000 0.000002 0.000000 0.000000 0.000000
    23 0.928311 0.000000 0.000001 0.000000 0.000000 0.000000
    24 2.686395 -0.427337 0.044204 0.001045 0.043611 0.000046
    25 1.435260 0.000000 0.000001 0.000000 0.000000 1.037923
    26 1.482593 0.000000 -0.000001 0.000000 0.000000 1.142584
    27 2.046984 0.000001 0.000000 0.536296 -0.067386 -0.288580
    28 -0.000005 0.000007 3.713254 -3.266099 -0.171898 1.248944
    29 18.045723 0.000000 0.000000 0.000000 0.000000 -1.712058
    30 17.597597 0.000000 0.000000 -0.237848 0.177473 -0.184222
    31 0.000005 -0.000003 -3.713254 0.897704 2.353817 5.514646
    32 18.045721 0.000000 0.000000 0.000000 0.000000 -2.663141
    33 17.597597 0.000000 0.000000 0.414560 -0.018236 0.786686
  time 13
    0 -0.772496 2.629137 -20.600716 0.000000 0.000000 -1.585458
    1 -0.375015 0.507828 0.000000 -1.570795 -1.570787 0.000000
    2 1.293670 0.684478 -0.000001 -0.068798 -0.013184 0.050301
    3 5.309685 -0.003834 0.000000 -0.085749 0.032466 0.063353
    4 4.826790 -0.004591 0.000000 -0.177086 -0.025311 0.107672
    5 5.792767 -0.005304 0.000000 -0.318077 -0.102312 0.257628
    6 6.662322 -0.001452 0.000000 0.000000 -0.000001 0.471000
    7 -3.108188 1.516823 4.339626 -0.000100 -1.446543 -3.613335
    8 4.827512 0.000000 -0.000002 0.180555 -0.191020 -0.771476
    9 11.140032 0.000000 0.000000 0.000000 0.000000 -0.749792
    10 10.314563 -0.000001 0.000001 -3.328326 -0.023324 0.038452
    11 1.646836 0.445664 -1.699647 0.153911 0.442352 0.277231
    12 0.928312 0.000000 0.000000 0.000000 0.000000 0.000000
    13 0.928313 0.000000 -0.000001 0.000000 0.000000 0.000000
    14 2.979373 -0.388274 -0.044205 -0.018183 -0.039656 0.411911
    15 1.435262 -0.000001 -0.000001 0.000000 0.000000 0.570828
    16 1.482593 -0.000001 0.000001 0.000000 0.000000 0.530452
    17 -2.869899 1.399667 -4.140396 -0.036467 1.370690 -3.649088
    18 4.972047 0.000000 0.000000 0.052667 -0.371988 -1.257082
    19 11.585358 0.000000 0.000001 0.000000 0.000000 -2.549047
    20 10.127058 0.000000 0.000001 2.668665 -0.134659 1.561124
    21 1.537458 0.109715 1.664489 -0.344506 -0.327833 0.740676
    22 0.928313 0.000000 0.000002 0.000000 0.000000 0.000000
    23 0.928311 0.000000 0.000001 0.000000 0.000000 0.000000
    24 2.686395 -0.427337 0.044204 0.001045 0.043611 0.000046
    25 1.435260 0.000000 0.000001 0.000000 0.000000 1.037856
    26 1.482593 0.000000 -0.000001 0.000000 0.000000 1.142584
    27 2.046984 0.000001 0.000000 0.616861 0.032631 -0.435968
    28 -0.000005 0.000007 3.713254 -3.265715 -0.171994 1.249327
    29 18.045723 0.000000 0.000000 0.000000 0.000000 -1.709098
    30 17.597597 0.000000 0.000000 -0.237544 0.177030 -0.186790
    31 0.000005 -0.000003 -3.713254 0.899716 2.355159 5.510716
    32 18.045721 0.000000 0.000000 0.000000 0.000000 -2.662590
    33 17.597597 0.000000 0.000000 0.418922 -0.022082 0.785346
  time 14
    0 -0.741245 2.586167 -20.600716 0.000000 0.000000 -1.585458
    1 -0.375015 0.507828 0.000000 -1.570795 -1.570787 0.000000
    2 1.293670 0.684478 -0.000001 -0.068916 -0.014287 0.051473
    3 5.309685 -0.003834 0.000000 -0.085341 0.033030 0.062629
    4 4.826790 -0.004591 0.000000 -0.186280 -0.018372 0.098522
    5 5.792767 -0.005304 0.000000 -0.313418 -0.085738 0.241724
    6 6.662322 -0.001452 0.000000 0.000000 -0.000001 0.471000
    7 -3.108188 1.516823 4.339626 -0.000100 -1.445833 -3.613335
    8 4.827512 0.000000 -0.000002 0.163416 -0.165523 -0.744268
    9 11.140032 0.000000 0.000000 0.000000 0.000000 -0.897959
    10 10.314563 -0.000001 0.000001 -3.102853 0.168610 -0.504150
    11 1.646836 0.445664 -1.699647 0.153911 0.442352 0.277231
    12 0.928312 0.000000 0.000000 0.000000 0.000000 0.000000
    13 0.928313 0.000000 -0.000001 0.000000 0.000000 0.000000
    14 2.979373 -0.388274 -0.044205 -0.018183 -0.039656 0.411911
    15 1.435262 -0.000001 -0.000001 0.000000 0.000000 0.570828
    16 1.482593 -0.000001 0.000001 0.000000 0.000000 0.530452
    17 -2.869899 1.399667 -4.140396 -0.036467 1.370690 -3.649088
    18 4.972047 0.000000 0.000000 0.042256 -0.351580 -1.200044
    19 11.585358 0.000000 0.000001 0.000000 0.000000 -2.544718
    20 10.127058 0.000000 0.000001 2.675046 -0.142319 1.514805
    21 1.537458 0.109715 1.664489 -0.344506 -0.327833 0.740676
    22 0.928313 0.000000 0.000002 0.000000 0.000000 0.000000
    23 0.928311 0.000000 0.000001 0.000000 0.000000 0.000000
    24 2.686395 -0.427337 0.044204 0.001045 0.043611 0.000046
    25 1.435260 0.000000 0.000001 0.000000 0.000000 1.037923
    26 1.482593 0.000000 -0.000001 0.000000 0.000000 1.142584
    27 2.046984 0.000001 0.000000 0.636593 0.116185 -0.587979
    28 -0.000005 0.000007 3.713254 -3.266482 -0.171803 1.249039
    29 18.045723 0.000000 0.000000 0.000000 0.000000 -1.712058
    30 17.597597 0.000000 0.000000 -0.238127 0.177891 -0.184177
    31 0.000005 -0.000003 -3.713254 0.896362 2.353146 5.513592
    32 18.045721 0.000000 0.000000 0.000000 0.000000 -2.663456
    33 17.597597 0.000000 0.000000 0.414560 -0.017664 0.785808
  time 15
    0 -0.667024 2.535385 -20.600716 0.000000 0.000000 -1.585458
    1 -0.375015 0.507828 0.000000 -1.570795 -1.570787 0.000000
    2 1.293670 0.684478 -0.000001 -0.069387 -0.017954 0.053549
    3 5.309685 -0.003834 0.000000 -0.098052 0.031987 0.061922
    4 4.826790 -0.004591 0.000000 -0.173119 0.005489 0.093429
    5 5.792767 -0.005304 0.000000 -0.274763 -0.043995 0.221314
    6 6.662322 -0.001452 0.000000 0.000000 -0.000001 0.471000
    7 -3.108188 1.516823 4.339626 -0.000100 -1.437376 -3.613335
    8 4.827512 0.000000 -0.000002 0.072857 -0.053303 -0.921555
    9 11.140032 0.000000 0.000000 0.000000 0.000000 -0.701756
    10 10.314563 -0.000001 0.000001 -2.826486 0.124490 -0.405036
    11 1.646836 0.445664 -1.699647 0.153911 0.442352 0.277231
    12 0.928312 0.000000 0.000000 0.000000 0.000000 0.000000
    13 0.928313 0.000000 -0.000001 0.000000 0.000000 0.000000
    14 2.979373 -0.388274 -0.044205 -0.018183 -0.039656 0.411911
    15 1.435262 -0.000001 -0.000001 0.000000 0.000000 0.570828
    16 1.482593 -0.000001 0.000001 0.000000 0.000000 0.530452
    17 -2.869899 1.399667 -4.140396 -0.036467 1.370690 -3.649088
    18 4.972047 0.000000 0.000000 -0.003049 -0.309236 -1.146334
    19 11.585358 0.000000 0.000001 0.000000 0.000000 -2.543819
    20 10.127058 0.000000 0.000001 2.678482 -0.132863 1.497097
    21 1.537458 0.109715 1.664489 -0.344506 -0.327833 0.740676
    22 0.928313 0.000000 0.000002 0.000000 0.000000 0.000000
    23 0.928311 0.000000 0.000001 0.000000 0.000000 0.000000
    24 2.686395 -0.427337 0.044204 0.001045 0.043611 0.000046
    25 1.435260 0.000000 0.000001 0.000000 0.000000 1.037923
    26 1.482593 0.000000 -0.000001 0.000000 0.000000 1.142584
    27 2.046984 0.000001 0.000000 0.613673 0.137280 -0.730622
    28 -0.000005 0.000007 3.713254 -3.269742 -0.170940 1.248944
    29 18.045723 0.000000 0.000000 0.000000 0.000000 -1.715241
    30 17.597597 0.000000 0.000000 -0.240002 0.180672 -0.181197
    31 0.000005 -0.000003 -3.713254 0.886107 2.347298 5.511291
    32 18.045721 0.000000 0.000000 0.000000 0.000000 -2.664873
    33 17.597597 0.000000 0.000000 0.409595 -0.010248 0.781928
  time 16
    0 -0.581084 2.480695 -20.600716 0.000000 0.000000 -1.585458
    1 -0.375015 0.507828 0.000000 -1.570795 -1.570787 0.000000
    2 1.293670 0.684478 -0.000001 -0.070095 -0.023203 0.059174
    3 5.309685 -0.003834 0.000000 -0.113368 0.033089 0.059113
    4 4.826790 -0.004591 0.000000 -0.154788 0.032454 0.084830
    5 5.792767 -0.005304 0.000000 -0.229182 0.008485 0.193325
    6 6.662322 -0.001452 0.000000 0.000000 -0.000001 0.471000
    7 -3.108188 1.516823 4.339626 -0.000100 -1.426938 -3.613335
    8 4.827512 0.000000 -0.000002 -0.100607 -0.091591 -0.975884
    9 11.140032 0.000000 0.000000 0.000000 0.000000 -0.651980
    10 10.314563 -0.000001 0.000001 -2.523865 -0.055079 -0.182072
    11 1.646836 0.445664 -1.699647 0.153911 0.442352 0.277231
    12 0.928312 0.000000 0.000000 0.000000 0.000000 0.000000
    13 0.928313 0.000000 -0.000001 0.000000 0.000000 0.000000
    14 2.979373 -0.388274 -0.044205 -0.018183 -0.039656 0.411911
    15 1.435262 -0.000001 -0.000001 0.000000 0.000000 0.570828
    16 1.482593 -0.000001 0.000001 0.000000 0.000000 0.530452
    17 -2.869899 1.399667 -4.140396 -0.029493 1.370690 -3.642287
    18 4.972047 0.000000 0.000000 0.054168 -0.184051 -1.148929
    19 11.585358 0.000000 0.000001 0.000000 0.000000 -2.490972
    20 10.127058 0.000000 0.000001 2.681427 -0.113855 1.483591
    21 1.537458 0.109715 1.664489 -0.344506 -0.327833 0.740676
    22 0.928313 0.000000 0.000002 0.000000 0.000000 0.000000
    23 0.928311 0.000000 0.000001 0.000000 0.000000 0.000000
    24 2.686395 -0.427337 0.044204 0.001045 0.043611 0.000046
    25 1.435260 0.000000 0.000001 0.000000 0.000000 1.037856
    26 1.482593 0.000000 -0.000001 0.000000 0.000000 1.142584
    27 2.046984 0.000001 0.000000 0.599757 0.061810 -0.796804
    28 -0.000005 0.000007 3.713254 -3.273673 -0.169789 1.249039
    29 18.045723 0.000000 0.000000 0.000000 0.000000 -1.719090
    30 17.597597 0.000000 0.000000 -0.242333 0.184068 -0.177666
    31 0.000005 -0.000003 -3.713254 0.873455 2.340108 5.508319
    32 18.045721 0.000000 0.000000 0.000000 0.000000 -2.666841
    33 17.597597 0.000000 0.000000 0.403522 -0.001175 0.777079
  time 17
    0 -0.475612 2.418194 -20.600716 0.000000 0.000000 -1.585458
    1 -0.375015 0.507828 0.000000 -1.570795 -1.570787 0.000000
    2 1.293670 0.684478 -0.000001 -0.071088 -0.030298 0.070139
    3 5.309685 -0.003834 0.000000 -0.129823 0.038027 0.052914
    4 4.826790 -0.004591 0.000000 -0.134436 0.058784 0.071292
    5 5.792767 -0.005304 0.000000 -0.184248 0.069055 0.157136
    6 6.662322 -0.001452 0.000000 0.000000 -0.000001 0.471000
    7 -3.108188 1.516823 4.339626 -0.000100 -1.415998 -3.613335
    8 4.827512 0.000000 -0.000002 -0.311617 -0.133716 -1.050577
    9 11.140032 0.000000 0.000000 0.000000 0.000000 -0.691830
    10 10.314563 -0.000001 0.000001 -2.228447 -0.243267 -0.043011
    11 1.646836 0.445664 -1.699647 0.153911 0.442352 0.277231
    12 0.928312 0.000000 0.000000 0.000000 0.000000 0.000000
    13 0.928313 0.000000 -0.000001 0.000000 0.000000 0.000000
    14 2.979373 -0.388274 -0.044205 -0.018183 -0.039656 0.411911
    15 1.435262 -0.000001 -0.000001 0.000000 0.000000 0.570828
    16 1.482593 -0.000001 0.000001 0.000000 0.000000 0.530452
    17 -2.869899 1.399667 -4.140396 -0.017743 1.370769 -3.630698
    18 4.972047 0.000000 0.000000 0.163162 -0.001336 -1.188463
    19 11.585358 0.000000 0.000001 0.000000 0.000000 -2.405290
    20 10.127058 0.000000 0.000001 2.684092 -0.085013 1.467534
    21 1.537458 0.109715 1.664489 -0.344506 -0.327833 0.740676
    22 0.928313 0.000000 0.000002 0.000000 0.000000 0.000000
    23 0.928311 0.000000 0.000001 0.000000 0.000000 0.000000
    24 2.686395 -0.427337 0.044204 0.001045 0.043611 0.000046
    25 1.435260 0.000000 0.000001 0.000000 0.000000 1.037856
    26 1.482593 0.000000 -0.000001 0.000000 0.000000 1.142584
    27 2.046984 0.000001 0.000000 0.600102 -0.010946 -0.809821
    28 -0.000005 0.000007 3.713254 -3.277987 -0.168639 1.249135
    29 18.045723 0.000000 0.000000 0.000000 0.000000 -1.723161
    30 17.597597 0.000000 0.000000 -0.244867 0.187784 -0.173815
    31 0.000005 -0.000003 -3.713254 0.859462 2.332343 5.504772
    32 18.045721 0.000000 0.000000 0.000000 0.000000 -2.669045
    33 17.597597 0.000000 0.000000 0.396912 0.008687 0.771536
  time 18
    0 -0.370140 2.355692 -20.600716 0.000000 0.000000 -1.585458
    1 -0.375015 0.507828 0.000000 -1.570795 -1.570787 0.000000
    2 1.293670 0.684478 -0.000001 -0.072453 -0.038496 0.085223
    3 5.309685 -0.003834 0.000000 -0.146125 0.045997 0.043817
    4 4.826790 -0.004591 0.000000 -0.114770 0.082730 0.054095
    5 5.792767 -0.005304 0.000000 -0.145719 0.133472 0.116628
    6 6.662322 -0.001452 0.000000 0.000000 -0.000001 0.471000
    7 -3.108188 1.516823 4.339626 -0.000100 -1.404939 -3.613335
    8 4.827512 0.000000 -0.000002 -0.653284 -0.159127 -1.255245
    9 11.140032 0.000000 0.000000 0.000000 0.000000 -0.932882
    10 10.314563 -0.000001 0.000001 -1.899479 -0.274085 -0.075236
    11 1.646836 0.445664 -1.699647 0.153911 0.442352 0.277231
    12 0.928312 0.000000 0.000000 0.000000 0.000000 0.000000
    13 0.928313 0.000000 -0.000001 0.000000 0.000000 0.000000
    14 2.979373 -0.388274 -0.044205 -0.018183 -0.039656 0.411911
    15 1.435262 -0.000001 -0.000001 0.000000 0.000000 0.570828
    16 1.482593 -0.000001 0.000001 0.000000 0.000000 0.530452
    17 -2.869899 1.399667 -4.140396 -0.006088 1.370769 -3.619396
    18 4.972047 0.000000 0.000000 0.253021 0.182182 -1.232989
    19 11.585358 0.000000 0.000001 0.000000 0.000000 -2.315851
    20 10.127058 0.000000 0.000001 2.686686 -0.051916 1.443024
    21 1.537458 0.109715 1.664489 -0.344506 -0.327833 0.740676
    22 0.928313 0.000000 0.000002 0.000000 0.000000 0.000000
    23 0.928311 0.000000 0.000001 0.000000 0.000000 0.000000
    24 2.686395 -0.427337 0.044204 0.001045 0.043611 0.000046
    25 1.435260 0.000000 0.000001 0.000000 0.000000 1.037856
    26 1.482593 0.000000 -0.000001 0.000000 0.000000 1.142584
    27 2.046984 0.000001 0.000000 0.596397 0.014044 -0.796925
    28 -0.000005 0.000007 3.713254 -3.282301 -0.167392 1.249231
    29 18.045723 0.000000 0.000000 0.000000 0.000000 -1.727009
    30 17.597597 0.000000 0.000000 -0.247350 0.191476 -0.170147
    31 0.000005 -0.000003 -3.713254 0.845182 2.324674 5.500745
    32 18.045721 0.000000 0.000000 0.000000 0.000000 -2.670776
    33 17.597597 0.000000 0.000000 0.390403 0.018411 0.765762
  time 19
    0 -0.284200 2.304909 -20.600716 0.000000 0.000000 -1.585458
    1 -0.375015 0.507828 0.000000 -1.570795 -1.570787 0.000000
    2 1.293670 0.684478 -0.000001 -0.074087 -0.047100 0.103169
    3 5.309685 -0.003834 0.000000 -0.160862 0.056244 0.032477
    4 4.826790 -0.004591 0.000000 -0.098309 0.102217 0.034405
    5 5.792767 -0.005304 0.000000 -0.117964 0.196260 0.074542
    6 6.662322 -0.001452 0.000000 0.000000 -0.000001 0.471000
    7 -3.108188 1.516823 4.339626 -0.000100 -1.393673 -3.613335
    8 4.827512 0.000000 -0.000002 -0.969840 -0.260091 -1.419188
    9 11.140032 0.000000 0.000000 0.000000 0.000000 -1.162052
    10 10.314563 -0.000001 0.000001 -1.558189 -0.210575 -0.141602
    11 1.646836 0.445664 -1.699647 0.153911 0.442352 0.277231
    12 0.928312 0.000000 0.000000 0.000000 0.000000 0.000000
    13 0.928313 0.000000 -0.000001 0.000000 0.000000 0.000000
    14 2.979373 -0.388274 -0.044205 -0.018183 -0.039656 0.411911
    15 1.435262 -0.000001 -0.000001 0.000000 0.000000 0.570828
    16 1.482593 -0.000001 0.000001 0.000000 0.000000 0.530452
    17 -2.869899 1.399667 -4.140396 0.000026 1.370769 -3.613362
    18 4.972047 0.000000 0.000000 0.275908 0.299251 -1.263538
    19 11.585358 0.000000 0.000001 0.000000 0.000000 -2.251487
    20 10.127058 0.000000 0.000001 2.689491 -0.020048 1.404207
    21 1.537458 0.109715 1.664489 -0.344506 -0.327833 0.740676
    22 0.928313 0.000000 0.000002 0.000000 0.000000 0.000000
    23 0.928311 0.000000 0.000001 0.000000 0.000000 0.000000
    24 2.686395 -0.427337 0.044204 0.001045 0.043611 0.000046
    25 1.435260 0.000000 0.000001 0.000000 0.000000 1.037856
    26 1.482593 0.000000 -0.000001 0.000000 0.000000 1.142584
    27 2.046984 0.000001 0.000000 0.582524 0.078922 -0.777277
    28 -0.000005 0.000007 3.713254 -3.286232 -0.166338 1.249423
    29 18.045723 0.000000 0.000000 0.000000 0.000000 -1.730340
    30 17.597597 0.000000 0.000000 -0.249656 0.194872 -0.166938
    31 0.000005 -0.000003 -3.713254 0.832243 2.317771 5.496815
    32 18.045721 0.000000 0.000000 0.000000 0.000000 -2.672430
    33 17.597597 0.000000 0.000000 0.384599 0.027069 0.760358
  time 20
    0 -0.209979 2.261939 -20.600716 0.000000 0.000000 -1.585458
    1 -0.375015 0.507828 0.000000 -1.570795 -1.570787 0.000000
    2 1.293670 0.684478 -0.000001 -0.075889 -0.055442 0.122723
    3 5.309685 -0.003834 0.000000 -0.172757 0.068168 0.019600
    4 4.826790 -0.004591 0.000000 -0.087227 0.114956 0.013393
    5 5.792767 -0.005304 0.000000 -0.104347 0.250730 0.032518
    6 6.662322 -0.001452 0.000000 0.000000 -0.000001 0.471000
    7 -3.108188 1.516823 4.339626 -0.000100 -1.380781 -3.613335
    8 4.827512 0.000000 -0.000002 -1.028831 -0.366172 -1.522128
    9 11.140032 0.000000 0.000000 0.000000 0.000000 -1.143504
    10 10.314563 -0.000001 0.000001 -1.188656 -0.114748 -0.174292
    11 1.646836 0.445664 -1.699647 0.153911 0.442352 0.277231
    12 0.928312 0.000000 0.000000 0.000000 0.000000 0.000000
    13 0.928313 0.000000 -0.000001 0.000000 0.000000 0.000000
    14 2.979373 -0.388274 -0.044205 -0.018183 -0.039656 0.411911
    15 1.435262 -0.000001 -0.000001 0.000000 0.000000 0.570828
    16 1.482593 -0.000001 0.000001 0.000000 0.000000 0.530452
    17 -2.869899 1.399667 -4.140396 0.000981 1.370769 -3.612404
    18 4.972047 0.000000 0.000000 0.250582 0.346014 -1.283438
    19 11.585358 0.000000 0.000001 0.000000 0.000000 -2.213016
    20 10.127058 0.000000 0.000001 2.692437 0.009362 1.353785
    21 1.537458 0.109715 1.664489 -0.344506 -0.327833 0.740676
    22 0.928313 0.000000 0.000002 0.000000 0.000000 0.000000
    23 0.928311 0.000000 0.000001 0.000000 0.000000 0.000000
    24 2.686395 -0.427337 0.044204 0.001045 0.043611 0.000046
    25 1.435260 0.000000 0.000001 0.000000 0.000000 1.037856
    26 1.482593 0.000000 -0.000001 0.000000 0.000000 1.142584
    27 2.046984 0.000001 0.000000 0.574640 0.127750 -0.783969
    28 -0.000005 0.000007 3.713254 -3.289300 -0.165475 1.249615
    29 18.045723 0.000000 0.000000 0.000000 0.000000 -1.732931
    30 17.597597 0.000000 0.000000 -0.251405 0.197505 -0.164508
    31 0.000005 -0.000003 -3.713254 0.821892 2.312307 5.493555
    32 18.045721 0.000000 0.000000 0.000000 0.000000 -2.673768
    33 17.597597 0.000000 0.000000 0.379969 0.033854 0.755924
  time 21
    0 -0.182634 2.250220 -20.600716 0.000000 0.000000 -1.585458
    1 -0.375015 0.507828 0.000000 -1.570795 -1.570787 0.000000
    2 1.293670 0.684478 -0.000001 -0.077591 -0.062093 0.142578
    3 5.309685 -0.003834 0.000000 -0.177454 0.082178 0.006105
    4 4.826790 -0.004591 0.000000 -0.085453 0.112296 -0.007420
    5 5.792767 -0.005304 0.000000 -0.113754 0.277983 -0.006932
    6 6.662322 -0.001452 0.000000 0.000000 -0.000001 0.471000
    7 -3.108188 1.516823 4.339626 -0.000100 -1.370787 -3.613335
    8 4.827512 0.000000 -0.000002 -0.981638 -0.462190 -1.614151
    9 11.140032 0.000000 0.000000 0.000000 0.000000 -1.057212
    10 10.314563 -0.000001 0.000001 -0.889353 -0.014332 -0.164595
    11 1.646836 0.445664 -1.699647 0.153911 0.442352 0.277231
    12 0.928312 0.000000 0.000000 0.000000 0.000000 0.000000
    13 0.928313 0.000000 -0.000001 0.000000 0.000000 0.000000
    14 2.979373 -0.388274 -0.044205 -0.018183 -0.039656 0.411911
    15 1.435262 -0.000001 -0.000001 0.000000 0.000000 0.570828
    16 1.482593 -0.000001 0.000001 0.000000 0.000000 0.530452
    17 -2.869899 1.399667 -4.140396 0.000886 1.370769 -3.612595
    18 4.972047 0.000000 0.000000 0.251051 0.360959 -1.310193
    19 11.585358 0.000000 0.000001 0.000000 0.000000 -2.179935
    20 10.127058 0.000000 0.000001 2.694120 0.038677 1.300762
    21 1.537458 0.109715 1.664489 -0.344506 -0.327833 0.740676
    22 0.928313 0.000000 0.000002 0.000000 0.000000 0.000000
    23 0.928311 0.000000 0.000001 0.000000 0.000000 0.000000
    24 2.686395 -0.427337 0.044204 0.001045 0.043611 0.000046
    25 1.435260 0.000000 0.000001 0.000000 0.000000 1.037856
    26 1.482593 0.000000 -0.000001 0.000000 0.000000 1.142584
    27 2.046984 0.000001 0.000000 0.597000 0.156398 -0.822777
    28 -0.000005 0.000007 3.713254 -3.290547 -0.165187 1.249615
    29 18.045723 0.000000 0.000000 0.000000 0.000000 -1.733819
    30 17.597597 0.000000 0.000000 -0.252089 0.198490 -0.163591
    31 0.000005 -0.000003 -3.713254 0.818154 2.310389 5.492309
    32 18.045721 0.000000 0.000000 0.000000 0.000000 -2.674083
    33 17.597597 0.000000 0.000000 0.378291 0.036300 0.754308
  time 22
    0 -0.190447 2.261939 -20.600716 0.000000 0.000000 -1.585458
    1 -0.375015 0.507828 0.000000 -1.570795 -1.570787 0.000000
    2 1.293670 0.684478 -0.000001 -0.078989 -0.067043 0.161512
    3 5.309685 -0.003834 0.000000 -0.175922 0.097375 -0.006895
    4 4.826790 -0.004591 0.000000 -0.090393 0.096344 -0.026712
    5 5.792767 -0.005304 0.000000 -0.139351 0.278822 -0.042727
    6 6.662322 -0.001452 0.000000 0.000000 -0.000001 0.471000
    7 -3.108188 1.516823 4.339626 -0.000100 -1.369367 -3.613335
    8 4.827512 0.000000 -0.000002 -0.970159 -0.560596 -1.637287
    9 11.140032 0.000000 0.000000 0.000000 0.000000 -1.018594
    10 10.314563 -0.000001 0.000001 -0.788037 0.038780 -0.143983
    11 1.646836 0.445664 -1.699647 0.153911 0.442352 0.277231
    12 0.928312 0.000000 0.000000 0.000000 0.000000 0.000000
    13 0.928313 0.000000 -0.000001 0.000000 0.000000 0.000000
    14 2.979373 -0.388274 -0.044205 -0.018183 -0.039656 0.411911
    15 1.435262 -0.000001 -0.000001 0.000000 0.000000 0.570828
    16 1.482593 -0.000001 0.000001 0.000000 0.000000 0.530452
    17 -2.869899 1.399667 -4.140396 0.000313 1.370769 -3.613074
    18 4.972047 0.000000 0.000000 0.283224 0.356942 -1.336749
    19 11.585358 0.000000 0.000001 0.000000 0.000000 -2.150367
    20 10.127058 0.000000 0.000001 2.694610 0.066857 1.248640
    21 1.537458 0.109715 1.664489 -0.344506 -0.327833 0.740676
    22 0.928313 0.000000 0.000002 0.000000 0.000000 0.000000
    23 0.928311 0.000000 0.000001 0.000000 0.000000 0.000000
    24 2.686395 -0.427337 0.044204 0.001045 0.043611 0.000046
    25 1.435260 0.000000 0.000001 0.000000 0.000000 1.037923
    26 1.482593 0.000000 -0.000001 0.000000 0.000000 1.142584
    27 2.046984 0.000001 0.000000 0.637067 0.194959 -0.873022
    28 -0.000005 0.000007 3.713254 -3.289876 -0.165379 1.249615
    29 18.045723 0.000000 0.000000 0.000000 0.000000 -1.733375
    30 17.597597 0.000000 0.000000 -0.251734 0.197997 -0.164004
    31 0.000005 -0.000003 -3.713254 0.820071 2.311348 5.492980
    32 18.045721 0.000000 0.000000 0.000000 0.000000 -2.674004
    33 17.597597 0.000000 0.000000 0.379163 0.035077 0.755139
  time 23
    0 -0.209979 2.261939 -20.600716 0.000000 0.000000 -1.585458
    1 -0.375015 0.507828 0.000000 -1.570795 -1.570787 0.000000
    2 1.293670 0.684478 -0.000001 -0.080303 -0.071333 0.178387
    3 5.309685 -0.003834 0.000000 -0.174493 0.111013 -0.018465
    4 4.826790 -0.004591 0.000000 -0.094704 0.081495 -0.043822
    5 5.792767 -0.005304 0.000000 -0.162483 0.277767 -0.074743
    6 6.662322 -0.001452 0.000000 0.000000 -0.000001 0.471000
    7 -3.108188 1.516823 4.339626 -0.000100 -1.370787 -3.613335
    8 4.827512 0.000000 -0.000002 -0.966412 -0.651156 -1.640666
    9 11.140032 0.000000 0.000000 0.000000 0.000000 -0.985411
    10 10.314563 -0.000001 0.000001 -0.756950 0.076718 -0.129119
    11 1.646836 0.445664 -1.699647 0.153911 0.442352 0.277231
    12 0.928312 0.000000 0.000000 0.000000 0.000000 0.000000
    13 0.928313 0.000000 -0.000001 0.000000 0.000000 0.000000
    14 2.979373 -0.388274 -0.044205 -0.018183 -0.039656 0.411911
    15 1.435262 -0.000001 -0.000001 0.000000 0.000000 0.570828
    16 1.482593 -0.000001 0.000001 0.000000 0.000000 0.530452
    17 -2.869899 1.399667 -4.140396 0.000026 1.370769 -3.613362
    18 4.972047 0.000000 0.000000 0.318117 0.356540 -1.359843
    19 11.585358 0.000000 0.000001 0.000000 0.000000 -2.122269
    20 10.127058 0.000000 0.000001 2.693629 0.093051 1.200769
    21 1.537458 0.109715 1.664489 -0.344506 -0.327833 0.740676
    22 0.928313 0.000000 0.000002 0.000000 0.000000 0.000000
    23 0.928311 0.000000 0.000001 0.000000 0.000000 0.000000
    24 2.686395 -0.427337 0.044204 0.001045 0.043611 0.000046
    25 1.435260 0.000000 0.000001 0.000000 0.000000 1.037923
    26 1.482593 0.000000 -0.000001 0.000000 0.000000 1.142584
    27 2.046984 0.000001 0.000000 0.671318 0.235231 -0.919191
    28 -0.000005 0.000007 3.713254 -3.289300 -0.165475 1.249615
    29 18.045723 0.000000 0.000000 0.000000 0.000000 -1.732931
    30 17.597597 0.000000 0.000000 -0.251405 0.197505 -0.164508
    31 0.000005 -0.000003 -3.713254 0.821892 2.312307 5.493555
    32 18.045721 0.000000 0.000000 0.000000 0.000000 -2.673768
    33 17.597597 0.000000 0.000000 0.379969 0.033854 0.755924
end
