version 1
nodes
  0 "Bip01" -1
  1 "Bip01 Pelvis" 0
  2 "Bip01 Spine" 1
  3 "Bip01 Spine1" 2
  4 "Bip01 Spine2" 3
  5 "Bip01 Spine3" 4
  6 "Bip01 Neck" 5
  7 "Bip01 L Arm" 6
  8 "Bip01 L Arm1" 7
  9 "Bip01 L Arm2" 8
  10 "Bip01 L Hand" 9
  11 "Bip01 L Finger0" 10
  12 "Bip01 L Finger01" 11
  13 "Bip01 L Finger02" 12
  14 "Bip01 L Finger1" 10
  15 "Bip01 L Finger11" 14
  16 "Bip01 L Finger12" 15
  17 "Bip01 R Arm" 6
  18 "Bip01 R Arm1" 17
  19 "Bip01 R Arm2" 18
  20 "Bip01 R Hand" 19
  21 "Bip01 R Finger0" 20
  22 "Bip01 R Finger01" 21
  23 "Bip01 R Finger02" 22
  24 "Bip01 R Finger1" 20
  25 "Bip01 R Finger11" 24
  26 "Bip01 R Finger12" 25
  27 "Bip01 Head" 6
  28 "Bip01 L Leg" 1
  29 "Bip01 L Leg1" 28
  30 "Bip01 L Foot" 29
  31 "Bip01 R Leg" 1
  32 "Bip01 R Leg1" 31
  33 "Bip01 R Foot" 32
end
skeleton
  time 0
    0 -0.690462 2.168186 -20.600716 0.000000 0.000000 -1.585458
    1 -0.460956 0.019532 0.000000 -1.570795 -1.570787 0.000000
    2 1.293670 0.684478 -0.000001 -0.062363 0.005584 -0.077014
    3 5.309685 -0.003834 0.000000 0.005411 0.003500 0.054274
    4 4.826790 -0.004591 0.000000 0.008450 -0.022291 0.090673
    5 5.792767 -0.005304 0.000000 -0.034267 -0.011421 0.102198
    6 6.662322 -0.001452 0.000000 -0.091910 0.032655 0.231870
    7 -3.518356 0.356631 4.277124 -1.341851 -1.131602 -2.052838
    8 4.827512 0.000000 -0.000002 2.119510 0.703501 0.674719
    9 11.140032 0.000000 0.000000 0.000000 0.000000 -1.741969
    10 10.314563 -0.000001 0.000001 -1.016637 -0.373471 0.774695
    11 1.646836 0.445664 -1.699647 -0.392035 3.352851 -0.875707
    12 0.928312 0.000000 0.000000 0.000000 0.000000 0.593404
    13 0.928313 0.000000 -0.000001 0.000000 0.000000 1.204231
    14 2.979373 -0.388274 -0.044205 -0.030851 -0.030823 0.768363
    15 1.435262 -0.000001 -0.000001 0.000000 0.000000 1.204014
    16 1.482593 -0.000001 0.000001 0.000000 0.000000 1.153221
    17 -2.975371 1.071532 -4.156022 0.466413 1.347660 -2.920871
    18 4.972047 0.000000 0.000000 -1.992422 -0.878672 0.548232
    19 11.585358 0.000000 0.000001 0.000000 0.000000 -1.579834
    20 10.127058 0.000000 0.000001 1.124044 0.670554 1.078517
    21 1.537458 0.109715 1.664489 -3.079588 0.031470 0.928526
    22 0.928313 0.000000 0.000002 0.000000 0.000000 0.061034
    23 0.928311 0.000000 0.000001 0.000000 0.000000 0.671897
    24 2.686395 -0.427337 0.044204 -0.001208 0.043611 -0.052337
    25 1.435260 0.000000 0.000001 0.000000 0.000000 1.186618
    26 1.482593 0.000000 -0.000001 0.000000 0.000000 1.684243
    27 2.046984 0.000001 0.000000 0.154409 0.006786 -0.059620
    28 -0.000005 0.000007 3.713254 -3.289109 -0.165283 1.249519
    29 18.045723 0.000000 0.000000 0.000000 0.000000 -1.732931
    30 17.597597 0.000000 0.000000 -0.251607 0.197234 -0.164508
    31 0.000005 -0.000003 -3.713254 0.821892 2.312307 5.493555
    32 18.045721 0.000000 0.000000 0.000000 0.000000 -2.673768
    33 17.597597 0.000000 0.000000 0.379969 0.033854 0.755924
  time 1
    0 -0.752964 2.566636 -20.600716 0.000000 0.000000 -1.585458
    1 -0.460956 0.019532 0.000000 -1.570795 -1.570787 0.000000
    2 1.293670 0.684478 -0.000001 -0.061723 0.042976 0.099034
    3 5.309685 -0.003834 0.000000 0.003948 -0.033821 -0.011170
    4 4.826790 -0.004591 0.000000 0.012570 -0.047231 -0.103881
    5 5.792767 -0.005304 0.000000 -0.034159 -0.054494 -0.042457
    6 6.662322 -0.001452 0.000000 -0.091910 0.032655 0.231870
    7 -3.518356 0.356631 4.277124 1.492237 -1.968645 -4.857535
    8 4.827512 0.000000 -0.000002 2.390229 0.726952 0.545350
    9 11.140032 0.000000 0.000000 0.000000 0.000000 -1.964545
    10 10.314563 -0.000001 0.000001 -1.017490 -0.373846 0.739509
    11 1.646836 0.445664 -1.699647 -0.410237 3.351791 -0.808777
    12 0.928312 0.000000 0.000000 0.000000 0.000000 0.617012
    13 0.928313 0.000000 -0.000001 0.000000 0.000000 1.227913
    14 2.979373 -0.388274 -0.044205 -0.031965 -0.029697 0.804842
    15 1.435262 -0.000001 -0.000001 0.000000 0.000000 1.204808
    16 1.482593 -0.000001 0.000001 0.000000 0.000000 1.129661
    17 -2.975371 1.071532 -4.156022 -1.430850 1.618819 -4.807358
    18 4.972047 0.000000 0.000000 -2.376996 -0.634490 0.642608
    19 11.585358 0.000000 0.000001 0.000000 0.000000 -2.088944
    20 10.127058 0.000000 0.000001 1.140663 0.683510 1.033547
    21 1.537458 0.109715 1.664489 -3.079588 0.031470 0.928526
    22 0.928313 0.000000 0.000002 0.000000 0.000000 0.061034
    23 0.928311 0.000000 0.000001 0.000000 0.000000 0.671897
    24 2.686395 -0.427337 0.044204 -0.001208 0.043611 -0.052337
    25 1.435260 0.000000 0.000001 0.000000 0.000000 1.186618
    26 1.482593 0.000000 -0.000001 0.000000 0.000000 1.684243
    27 2.046984 0.000001 0.000000 0.171298 0.064377 0.100846
    28 -0.000005 0.000007 3.713254 -3.288054 -0.164228 1.253066
    29 18.045723 0.000000 0.000000 0.000000 0.000000 -1.707470
    30 17.597597 0.000000 0.000000 -0.251582 0.195512 -0.186377
    31 0.000005 -0.000003 -3.713254 0.832722 2.315758 5.453578
    32 18.045721 0.000000 0.000000 0.000000 0.000000 -2.671249
    33 17.597597 0.000000 0.000000 0.414829 0.003835 0.738234
  time 2
    0 -0.784215 2.894771 -20.600716 0.000000 0.000000 -1.585458
    1 -0.460956 0.019532 0.000000 -1.570795 -1.570787 0.000000
    2 1.293670 0.684478 -0.000001 -0.055979 0.067448 0.245736
    3 5.309685 -0.003834 0.000000 0.004816 -0.056136 -0.072216
    4 4.826790 -0.004591 0.000000 0.017739 -0.061349 -0.236634
    5 5.792767 -0.005304 0.000000 -0.028313 -0.081759 -0.184599
    6 6.662322 -0.001452 0.000000 -0.091910 0.032655 0.231870
    7 -3.518356 0.356631 4.277124 -1.990297 -1.167913 -1.349916
    8 4.827512 0.000000 -0.000002 2.711488 0.885134 0.467451
    9 11.140032 0.000000 0.000000 0.000000 0.000000 -2.186905
    10 10.314563 -0.000001 0.000001 -1.017680 -0.374221 0.703916
    11 1.646836 0.445664 -1.699647 -0.428438 3.349582 -0.741951
    12 0.928312 0.000000 0.000000 0.000000 0.000000 0.640709
    13 0.928313 0.000000 -0.000001 0.000000 0.000000 1.251595
    14 2.979373 -0.388274 -0.044205 -0.033032 -0.028486 0.841278
    15 1.435262 -0.000001 -0.000001 0.000000 0.000000 1.205560
    16 1.482593 -0.000001 0.000001 0.000000 0.000000 1.106047
    17 -2.975371 1.071532 -4.156022 3.295206 1.411519 -0.082711
    18 4.972047 0.000000 0.000000 -2.420331 -0.624446 0.487667
    19 11.585358 0.000000 0.000001 0.000000 0.000000 -2.449887
    20 10.127058 0.000000 0.000001 1.244938 0.565304 1.034848
    21 1.537458 0.109715 1.664489 -3.079588 0.031470 0.928526
    22 0.928313 0.000000 0.000002 0.000000 0.000000 0.061034
    23 0.928311 0.000000 0.000001 0.000000 0.000000 0.671897
    24 2.686395 -0.427337 0.044204 -0.001208 0.043611 -0.052337
    25 1.435260 0.000000 0.000001 0.000000 0.000000 1.186618
    26 1.482593 0.000000 -0.000001 0.000000 0.000000 1.684243
    27 2.046984 0.000001 0.000000 0.171341 0.099250 0.219340
    28 -0.000005 0.000007 3.713254 -3.288533 -0.162982 1.256612
    29 18.045723 0.000000 0.000000 0.000000 0.000000 -1.685783
    30 17.597597 0.000000 0.000000 -0.252241 0.195167 -0.204487
    31 0.000005 -0.000003 -3.713254 0.836652 2.317100 5.416284
    32 18.045721 0.000000 0.000000 0.000000 0.000000 -2.668494
    33 17.597597 0.000000 0.000000 0.444522 -0.018236 0.719482
  time 3
    0 -0.659211 3.160404 -20.600716 0.000000 0.000000 -1.585458
    1 -0.460956 0.019532 0.000000 -1.570795 -1.570787 0.000000
    2 1.293670 0.684478 -0.000001 -0.053435 0.052312 0.322711
    3 5.309685 -0.003834 0.000000 0.005599 -0.028188 -0.135169
    4 4.826790 -0.004591 0.000000 0.014611 -0.042545 -0.177082
    5 5.792767 -0.005304 0.000000 -0.026802 -0.024209 -0.309757
    6 6.662322 -0.001452 0.000000 -0.091910 0.032655 0.231870
    7 -3.518356 0.356631 4.277124 -2.243349 -1.179297 -1.090823
    8 4.827512 0.000000 -0.000002 2.519769 1.294960 0.182805
    9 11.140032 0.000000 0.000000 0.000000 0.000000 -2.334202
    10 10.314563 -0.000001 0.000001 -1.133876 -0.277832 0.742644
    11 1.646836 0.445664 -1.699647 -0.392035 3.352851 -0.875707
    12 0.928312 0.000000 0.000000 0.000000 0.000000 0.593404
    13 0.928313 0.000000 -0.000001 0.000000 0.000000 1.204231
    14 2.979373 -0.388274 -0.044205 -0.030851 -0.030823 0.768363
    15 1.435262 -0.000001 -0.000001 0.000000 0.000000 1.204014
    16 1.482593 -0.000001 0.000001 0.000000 0.000000 1.153221
    17 -2.975371 1.071532 -4.156022 -2.257200 1.355389 -5.643232
    18 4.972047 0.000000 0.000000 -1.211831 -0.592307 -0.245507
    19 11.585358 0.000000 0.000001 0.000000 0.000000 -2.423341
    20 10.127058 0.000000 0.000001 1.590649 -0.082460 1.043351
    21 1.537458 0.109715 1.664489 -3.079588 0.031470 0.928526
    22 0.928313 0.000000 0.000002 0.000000 0.000000 0.061034
    23 0.928311 0.000000 0.000001 0.000000 0.000000 0.671897
    24 2.686395 -0.427337 0.044204 -0.001208 0.043611 -0.052337
    25 1.435260 0.000000 0.000001 0.000000 0.000000 1.186618
    26 1.482593 0.000000 -0.000001 0.000000 0.000000 1.684243
    27 2.046984 0.000001 0.000000 0.135065 0.024783 0.184363
    28 -0.000005 0.000007 3.713254 -3.295149 -0.159818 1.260638
    29 18.045723 0.000000 0.000000 0.000000 0.000000 -1.668242
    30 17.597597 0.000000 0.000000 -0.256650 0.199991 -0.218562
    31 0.000005 -0.000003 -3.713254 0.816142 2.309143 5.367295
    32 18.045721 0.000000 0.000000 0.000000 0.000000 -2.668179
    33 17.597597 0.000000 0.000000 0.468008 -0.025395 0.690291
  time 4
    0 -0.616241 3.277595 -20.600716 0.000000 0.000000 -1.585458
    1 -0.460956 0.019532 0.000000 -1.570795 -1.570787 0.000000
    2 1.293670 0.684478 -0.000001 -0.055019 0.029913 0.331199
    3 5.309685 -0.003834 0.000000 0.004510 0.004566 -0.163060
    4 4.826790 -0.004591 0.000000 0.011807 -0.020673 -0.067546
    5 5.792767 -0.005304 0.000000 -0.026532 -0.024497 -0.321301
    6 6.662322 -0.001452 0.000000 -0.091910 0.032655 0.231870
    7 -3.518356 0.356631 4.277124 -2.421636 -1.342903 -0.940101
    8 4.827512 0.000000 -0.000002 0.734508 0.726014 -1.065394
    9 11.140032 0.000000 0.000000 0.000000 0.000000 -2.347824
    10 10.314563 -0.000001 0.000001 -1.585295 0.198398 0.892796
    11 1.646836 0.445664 -1.699647 2.933650 -0.147575 1.538619
    12 0.928312 0.000000 0.000000 0.000000 0.000000 0.333836
    13 0.928313 0.000000 -0.000001 0.000000 0.000000 0.944760
    14 2.979373 -0.388274 -0.044205 -0.016433 -0.040411 0.368354
    15 1.435262 -0.000001 -0.000001 0.000000 0.000000 1.195488
    16 1.482593 -0.000001 0.000001 0.000000 0.000000 1.412009
    17 -2.975371 1.071532 -4.156022 -1.779636 1.257063 -5.162990
    18 4.972047 0.000000 0.000000 -0.172449 -0.000372 -0.634856
    19 11.585358 0.000000 0.000001 0.000000 0.000000 -2.135828
    20 10.127058 0.000000 0.000001 1.950245 -0.591499 0.831610
    21 1.537458 0.109715 1.664489 -3.079588 0.031470 0.928526
    22 0.928313 0.000000 0.000002 0.000000 0.000000 0.061034
    23 0.928311 0.000000 0.000001 0.000000 0.000000 0.671897
    24 2.686395 -0.427337 0.044204 -0.001208 0.043611 -0.052337
    25 1.435260 0.000000 0.000001 0.000000 0.000000 1.186618
    26 1.482593 0.000000 -0.000001 0.000000 0.000000 1.684243
    27 2.046984 0.000001 0.000000 0.136056 0.012067 0.029433
    28 -0.000005 0.000007 3.713254 -3.297737 -0.158572 1.262460
    29 18.045723 0.000000 0.000000 0.000000 0.000000 -1.660470
    30 17.597597 0.000000 0.000000 -0.258322 0.201910 -0.224659
    31 0.000005 -0.000003 -3.713254 0.807899 2.306555 5.346683
    32 18.045721 0.000000 0.000000 0.000000 0.000000 -2.667864
    33 17.597597 0.000000 0.000000 0.478409 -0.028531 0.678144
  time 5
    0 -0.616241 3.097902 -20.600716 0.000000 0.000000 -1.585458
    1 -0.460956 0.019532 0.000000 -1.570795 -1.570787 0.000000
    2 1.293670 0.684478 -0.000001 -0.056905 0.022746 0.274179
    3 5.309685 -0.003834 0.000000 0.004510 0.010079 -0.131177
    4 4.826790 -0.004591 0.000000 0.010853 -0.017330 -0.009074
    5 5.792767 -0.005304 0.000000 -0.028726 -0.021860 -0.225128
    6 6.662322 -0.001452 0.000000 -0.091910 0.032655 0.231870
    7 -3.518356 0.356631 4.277124 -3.644625 -1.518573 -6.015594
    8 4.827512 0.000000 -0.000002 0.112078 -0.147701 -0.740975
    9 11.140032 0.000000 0.000000 0.000000 0.000000 -2.165096
    10 10.314563 -0.000001 0.000001 -1.961083 0.630039 0.812552
    11 1.646836 0.445664 -1.699647 3.031037 0.029368 0.802960
    12 0.928312 0.000000 0.000000 0.000000 0.000000 0.061070
    13 0.928313 0.000000 -0.000001 0.000000 0.000000 0.671882
    14 2.979373 -0.388274 -0.044205 0.001460 -0.043599 -0.052327
    15 1.435262 -0.000001 -0.000001 0.000000 0.000000 1.186628
    16 1.482593 -0.000001 0.000001 0.000000 0.000000 1.684153
    17 -2.975371 1.071532 -4.156022 -1.700632 1.211686 -5.081864
    18 4.972047 0.000000 0.000000 0.356293 0.157916 -0.864871
    19 11.585358 0.000000 0.000001 0.000000 0.000000 -1.529274
    20 10.127058 0.000000 0.000001 1.780755 -0.283125 0.873178
    21 1.537458 0.109715 1.664489 -3.079588 0.031470 0.928526
    22 0.928313 0.000000 0.000002 0.000000 0.000000 0.061034
    23 0.928311 0.000000 0.000001 0.000000 0.000000 0.671897
    24 2.686395 -0.427337 0.044204 -0.001208 0.043611 -0.052337
    25 1.435260 0.000000 0.000001 0.000000 0.000000 1.186618
    26 1.482593 0.000000 -0.000001 0.000000 0.000000 1.684243
    27 2.046984 0.000001 0.000000 0.137736 0.030448 -0.174283
    28 -0.000005 0.000007 3.713254 -3.296778 -0.159722 1.260159
    29 18.045723 0.000000 0.000000 0.000000 0.000000 -1.672683
    30 17.597597 0.000000 0.000000 -0.257385 0.201566 -0.214711
    31 0.000005 -0.000003 -3.713254 0.809816 2.306747 5.370267
    32 18.045721 0.000000 0.000000 0.000000 0.000000 -2.669360
    33 17.597597 0.000000 0.000000 0.461734 -0.018808 0.691307
  time 6
    0 -0.643586 2.758048 -20.600716 0.000000 0.000000 -1.585458
    1 -0.460956 0.019532 0.000000 -1.570795 -1.570787 0.000000
    2 1.293670 0.684478 -0.000001 -0.058826 0.018264 0.189319
    3 5.309685 -0.003834 0.000000 0.004901 0.009204 -0.078292
    4 4.826790 -0.004591 0.000000 0.009804 -0.018288 0.043974
    5 5.792767 -0.005304 0.000000 -0.030741 -0.018912 -0.126317
    6 6.662322 -0.001452 0.000000 -0.091910 0.032655 0.231870
    7 -3.518356 0.356631 4.277124 1.665827 -1.440718 -5.044285
    8 4.827512 0.000000 -0.000002 -0.516809 -0.238602 -0.647913
    9 11.140032 0.000000 0.000000 0.000000 0.000000 -1.658647
    10 10.314563 -0.000001 0.000001 -1.517530 0.379185 0.802856
    11 1.646836 0.445664 -1.699647 3.033288 0.079544 0.625668
    12 0.928312 0.000000 0.000000 0.000000 0.000000 -0.005445
    13 0.928313 0.000000 -0.000001 0.000000 0.000000 0.605305
    14 2.979373 -0.388274 -0.044205 0.005918 -0.043227 -0.154990
    15 1.435262 -0.000001 -0.000001 0.000000 0.000000 1.184413
    16 1.482593 -0.000001 0.000001 0.000000 0.000000 1.750560
    17 -2.975371 1.071532 -4.156022 -1.603858 1.149456 -4.978517
    18 4.972047 0.000000 0.000000 0.660201 0.240435 -1.104204
    19 11.585358 0.000000 0.000001 0.000000 0.000000 -0.920024
    20 10.127058 0.000000 0.000001 1.600186 0.150452 0.845916
    21 1.537458 0.109715 1.664489 -3.079588 0.031470 0.928526
    22 0.928313 0.000000 0.000002 0.000000 0.000000 0.061034
    23 0.928311 0.000000 0.000001 0.000000 0.000000 0.671897
    24 2.686395 -0.427337 0.044204 -0.001208 0.043611 -0.052337
    25 1.435260 0.000000 0.000001 0.000000 0.000000 1.186618
    26 1.482593 0.000000 -0.000001 0.000000 0.000000 1.684243
    27 2.046984 0.000001 0.000000 0.134893 0.054375 -0.368509
    28 -0.000005 0.000007 3.713254 -3.294190 -0.161832 1.256037
    29 18.045723 0.000000 0.000000 0.000000 0.000000 -1.695035
    30 17.597597 0.000000 0.000000 -0.255282 0.200188 -0.196280
    31 0.000005 -0.000003 -3.713254 0.814800 2.308185 5.415613
    32 18.045721 0.000000 0.000000 0.000000 0.000000 -2.671800
    33 17.597597 0.000000 0.000000 0.431269 -0.000623 0.715925
  time 7
    0 -0.667024 2.375223 -20.600716 0.000000 0.000000 -1.585458
    1 -0.460956 0.019532 0.000000 -1.570795 -1.570787 0.000000
    2 1.293670 0.684478 -0.000001 -0.060358 0.015267 0.102332
    3 5.309685 -0.003834 0.000000 0.005190 0.005789 -0.021592
    4 4.826790 -0.004591 0.000000 0.008622 -0.020949 0.090011
    5 5.792767 -0.005304 0.000000 -0.032162 -0.016371 -0.045779
    6 6.662322 -0.001452 0.000000 -0.091910 0.032655 0.231870
    7 -3.518356 0.356631 4.277124 1.538821 -1.343494 -4.916655
    8 4.827512 0.000000 -0.000002 -0.962905 -0.240052 -0.765237
    9 11.140032 0.000000 0.000000 0.000000 0.000000 -1.102205
    10 10.314563 -0.000001 0.000001 -1.099851 0.061355 0.616008
    11 1.646836 0.445664 -1.699647 3.031037 0.029368 0.802960
    12 0.928312 0.000000 0.000000 0.000000 0.000000 0.061070
    13 0.928313 0.000000 -0.000001 0.000000 0.000000 0.671882
    14 2.979373 -0.388274 -0.044205 0.001460 -0.043599 -0.052327
    15 1.435262 -0.000001 -0.000001 0.000000 0.000000 1.186628
    16 1.482593 -0.000001 0.000001 0.000000 0.000000 1.684153
    17 -2.975371 1.071532 -4.156022 -1.443555 0.932166 -4.781402
    18 4.972047 0.000000 0.000000 0.683275 0.476823 -0.982009
    19 11.585358 0.000000 0.000001 0.000000 0.000000 -0.677026
    20 10.127058 0.000000 0.000001 1.798707 0.145629 0.676543
    21 1.537458 0.109715 1.664489 -3.079588 0.031470 0.928526
    22 0.928313 0.000000 0.000002 0.000000 0.000000 0.061034
    23 0.928311 0.000000 0.000001 0.000000 0.000000 0.671897
    24 2.686395 -0.427337 0.044204 -0.001208 0.043611 -0.052337
    25 1.435260 0.000000 0.000001 0.000000 0.000000 1.186618
    26 1.482593 0.000000 -0.000001 0.000000 0.000000 1.684243
    27 2.046984 0.000001 0.000000 0.127870 0.077978 -0.539316
    28 -0.000005 0.000007 3.713254 -3.291122 -0.164228 1.251724
    29 18.045723 0.000000 0.000000 0.000000 0.000000 -1.719756
    30 17.597597 0.000000 0.000000 -0.252824 0.198440 -0.175557
    31 0.000005 -0.000003 -3.713254 0.819784 2.310773 5.466520
    32 18.045721 0.000000 0.000000 0.000000 0.000000 -2.673217
    33 17.597597 0.000000 0.000000 0.397684 0.021409 0.742391
  time 8
    0 -0.698275 2.078339 -20.600716 0.000000 0.000000 -1.585458
    1 -0.460956 0.019532 0.000000 -1.570795 -1.570787 0.000000
    2 1.293670 0.684478 -0.000001 -0.061302 0.012763 0.038817
    3 5.309685 -0.003834 0.000000 0.005309 0.003655 0.021861
    4 4.826790 -0.004591 0.000000 0.007611 -0.022603 0.127449
    5 5.792767 -0.005304 0.000000 -0.032972 -0.014705 0.004716
    6 6.662322 -0.001452 0.000000 -0.091910 0.032655 0.231870
    7 -3.518356 0.356631 4.277124 1.422647 -1.194702 -4.792091
    8 4.827512 0.000000 -0.000002 -1.070204 -0.469609 -0.740975
    9 11.140032 0.000000 0.000000 0.000000 0.000000 -0.762689
    10 10.314563 -0.000001 0.000001 -1.429293 0.062198 0.426489
    11 1.646836 0.445664 -1.699647 2.943877 -0.138741 1.489868
    12 0.928312 0.000000 0.000000 0.000000 0.000000 0.316151
    13 0.928313 0.000000 -0.000001 0.000000 0.000000 0.926922
    14 2.979373 -0.388274 -0.044205 -0.015307 -0.040867 0.340951
    15 1.435262 -0.000001 -0.000001 0.000000 0.000000 1.194987
    16 1.482593 -0.000001 0.000001 0.000000 0.000000 1.429746
    17 -2.975371 1.071532 -4.156022 -1.395312 0.723683 -4.673936
    18 4.972047 0.000000 0.000000 0.651290 0.699391 -0.815620
    19 11.585358 0.000000 0.000001 0.000000 0.000000 -0.584891
    20 10.127058 0.000000 0.000001 2.051013 0.085013 0.507271
    21 1.537458 0.109715 1.664489 -3.079588 0.031470 0.928526
    22 0.928313 0.000000 0.000002 0.000000 0.000000 0.061034
    23 0.928311 0.000000 0.000001 0.000000 0.000000 0.671897
    24 2.686395 -0.427337 0.044204 -0.001208 0.043611 -0.052337
    25 1.435260 0.000000 0.000001 0.000000 0.000000 1.186618
    26 1.482593 0.000000 -0.000001 0.000000 0.000000 1.684243
    27 2.046984 0.000001 0.000000 0.118392 0.096919 -0.685852
    28 -0.000005 0.000007 3.713254 -3.288533 -0.165954 1.248656
    29 18.045723 0.000000 0.000000 0.000000 0.000000 -1.738852
    30 17.597597 0.000000 0.000000 -0.250873 0.197013 -0.159327
    31 0.000005 -0.000003 -3.713254 0.822467 2.313170 5.505635
    32 18.045721 0.000000 0.000000 0.000000 0.000000 -2.673768
    33 17.597597 0.000000 0.000000 0.372084 0.039850 0.761929
  time 9
    0 -0.698275 2.058808 -20.600716 0.000000 0.000000 -1.585458
    1 -0.460956 0.019532 0.000000 -1.570795 -1.570787 0.000000
    2 1.293670 0.684478 -0.000001 -0.061285 0.012846 0.040541
    3 5.309685 -0.003834 0.000000 0.005309 0.003607 0.030127
    4 4.826790 -0.004591 0.000000 0.007420 -0.022675 0.135916
    5 5.792767 -0.005304 0.000000 -0.033187 -0.014166 0.021514
    6 6.662322 -0.001452 0.000000 -0.091910 0.032655 0.231870
    7 -3.518356 0.356631 4.277124 1.379418 -1.057945 -4.734025
    8 4.827512 0.000000 -0.000002 -1.035607 -0.690127 -0.721132
    9 11.140032 0.000000 0.000000 0.000000 0.000000 -0.532867
    10 10.314563 -0.000001 0.000001 -1.905734 0.051145 0.260022
    11 1.646836 0.445664 -1.699647 -0.392035 3.352851 -0.875707
    12 0.928312 0.000000 0.000000 0.000000 0.000000 0.593404
    13 0.928313 0.000000 -0.000001 0.000000 0.000000 1.204231
    14 2.979373 -0.388274 -0.044205 -0.030851 -0.030823 0.768363
    15 1.435262 -0.000001 -0.000001 0.000000 0.000000 1.204014
    16 1.482593 -0.000001 0.000001 0.000000 0.000000 1.153221
    17 -2.975371 1.071532 -4.156022 -1.393210 0.696761 -4.662347
    18 4.972047 0.000000 0.000000 0.673239 0.817184 -0.805836
    19 11.585358 0.000000 0.000001 0.000000 0.000000 -0.560224
    20 10.127058 0.000000 0.000001 2.079623 0.083784 0.484711
    21 1.537458 0.109715 1.664489 -3.079588 0.031470 0.928526
    22 0.928313 0.000000 0.000002 0.000000 0.000000 0.061034
    23 0.928311 0.000000 0.000001 0.000000 0.000000 0.671897
    24 2.686395 -0.427337 0.044204 -0.001208 0.043611 -0.052337
    25 1.435260 0.000000 0.000001 0.000000 0.000000 1.186618
    26 1.482593 0.000000 -0.000001 0.000000 0.000000 1.684243
    27 2.046984 0.000001 0.000000 0.110982 0.106478 -0.774419
    28 -0.000005 0.000007 3.713254 -3.288342 -0.166050 1.248464
    29 18.045723 0.000000 0.000000 0.000000 0.000000 -1.739814
    30 17.597597 0.000000 0.000000 -0.250822 0.196865 -0.158548
    31 0.000005 -0.000003 -3.713254 0.822659 2.313265 5.507648
    32 18.045721 0.000000 0.000000 0.000000 0.000000 -2.673768
    33 17.597597 0.000000 0.000000 0.370742 0.040797 0.762853
  time 10
    0 -0.690462 2.168186 -20.600716 0.000000 0.000000 -1.585458
    1 -0.460956 0.019532 0.000000 -1.570795 -1.570787 0.000000
    2 1.293670 0.684478 -0.000001 -0.060847 0.014800 0.072215
    3 5.309685 -0.003834 0.000000 0.005309 0.003643 0.023239
    4 4.826790 -0.004591 0.000000 0.007592 -0.022615 0.128265
    5 5.792767 -0.005304 0.000000 -0.033187 -0.014166 0.021514
    6 6.662322 -0.001452 0.000000 -0.091910 0.032655 0.231870
    7 -3.518356 0.356631 4.277124 1.379418 -1.057945 -4.734025
    8 4.827512 0.000000 -0.000002 -1.088698 -0.771648 -0.689591
    9 11.140032 0.000000 0.000000 0.000000 0.000000 -0.536345
    10 10.314563 -0.000001 0.000001 -1.905924 0.061074 0.256422
    11 1.646836 0.445664 -1.699647 -0.392035 3.352851 -0.875707
    12 0.928312 0.000000 0.000000 0.000000 0.000000 0.593404
    13 0.928313 0.000000 -0.000001 0.000000 0.000000 1.204231
    14 2.979373 -0.388274 -0.044205 -0.030851 -0.030823 0.768363
    15 1.435262 -0.000001 -0.000001 0.000000 0.000000 1.204014
    16 1.482593 -0.000001 0.000001 0.000000 0.000000 1.153221
    17 -2.975371 1.071532 -4.156022 -1.395312 0.723683 -4.673936
    18 4.972047 0.000000 0.000000 0.705130 0.890221 -0.822941
    19 11.585358 0.000000 0.000001 0.000000 0.000000 -0.576397
    20 10.127058 0.000000 0.000001 2.050522 0.080190 0.504419
    21 1.537458 0.109715 1.664489 -3.079588 0.031470 0.928526
    22 0.928313 0.000000 0.000002 0.000000 0.000000 0.061034
    23 0.928311 0.000000 0.000001 0.000000 0.000000 0.671897
    24 2.686395 -0.427337 0.044204 -0.001208 0.043611 -0.052337
    25 1.435260 0.000000 0.000001 0.000000 0.000000 1.186618
    26 1.482593 0.000000 -0.000001 0.000000 0.000000 1.684243
    27 2.046984 0.000001 0.000000 0.104088 0.112969 -0.840114
    28 -0.000005 0.000007 3.713254 -3.289109 -0.165283 1.249519
    29 18.045723 0.000000 0.000000 0.000000 0.000000 -1.732931
    30 17.597597 0.000000 0.000000 -0.251607 0.197234 -0.164508
    31 0.000005 -0.000003 -3.713254 0.821892 2.312307 5.493555
    32 18.045721 0.000000 0.000000 0.000000 0.000000 -2.673768
    33 17.597597 0.000000 0.000000 0.379969 0.033854 0.755924
end
