version 1
nodes
  0 "Bip01" -1
  1 "Bip01 Pelvis" 0
  2 "Bip01 Spine" 1
  3 "Bip01 Spine1" 2
  4 "Bip01 Spine2" 3
  5 "Bip01 Spine3" 4
  6 "Bip01 Neck" 5
  7 "Bip01 L Arm" 6
  8 "Bip01 L Arm1" 7
  9 "Bip01 L Arm2" 8
  10 "Bip01 L Hand" 9
  11 "Bip01 L Finger0" 10
  12 "Bip01 L Finger01" 11
  13 "Bip01 L Finger02" 12
  14 "Bip01 L Finger1" 10
  15 "Bip01 L Finger11" 14
  16 "Bip01 L Finger12" 15
  17 "Bip01 R Arm" 6
  18 "Bip01 R Arm1" 17
  19 "Bip01 R Arm2" 18
  20 "Bip01 R Hand" 19
  21 "Bip01 R Finger0" 20
  22 "Bip01 R Finger01" 21
  23 "Bip01 R Finger02" 22
  24 "Bip01 R Finger1" 20
  25 "Bip01 R Finger11" 24
  26 "Bip01 R Finger12" 25
  27 "Bip01 Head" 6
  28 "Bip01 L Leg" 1
  29 "Bip01 L Leg1" 28
  30 "Bip01 L Foot" 29
  31 "Bip01 R Leg" 1
  32 "Bip01 R Leg1" 31
  33 "Bip01 R Foot" 32
end
skeleton
  time 0
    0 0.305662 2.640857 -20.600716 0.000000 0.000000 -1.585458
    1 -0.000004 0.000000 0.000000 -1.570795 -1.570787 0.000000
    2 1.293670 0.684478 -0.000001 -0.000004 -0.000001 0.124364
    3 5.309685 -0.003834 0.000000 -0.153358 0.033593 0.143369
    4 4.826790 -0.004591 0.000000 -0.286764 0.024952 -0.012337
    5 5.792767 -0.005304 0.000000 -0.156745 0.008269 0.069123
    6 6.662322 -0.001452 0.000000 -0.000144 -0.183155 0.165793
    7 -2.576921 0.516793 4.886517 1.549269 -1.223473 -4.792666
    8 4.827512 0.000000 -0.000002 0.091192 0.416555 -0.929266
    9 11.140032 0.000000 0.000000 0.000000 0.000000 -1.951649
    10 10.314563 -0.000001 0.000001 -1.711158 -0.704790 -0.038714
    11 1.646836 0.445664 -1.699647 0.441755 0.155162 1.184501
    12 0.928312 0.000000 0.000000 0.000000 0.000000 0.000000
    13 0.928313 0.000000 -0.000001 0.000000 0.000000 0.000000
    14 2.979373 -0.388274 -0.044205 -0.021491 -0.037954 0.497507
    15 1.435262 -0.000001 -0.000001 0.000000 0.000000 0.674555
    16 1.482593 -0.000001 0.000001 0.000000 0.000000 0.723154
    17 -3.854304 0.473858 -3.507564 0.080655 1.189023 -3.230528
    18 4.972047 0.000000 0.000000 -0.134836 -1.021453 -0.300548
    19 11.585358 0.000000 0.000001 0.000000 0.000000 -2.130437
    20 10.127058 0.000000 0.000001 1.569752 0.000000 0.121254
    21 1.537458 0.109715 1.664489 -0.264662 -0.055995 0.783079
    22 0.928313 0.000000 0.000002 0.000000 0.000000 -0.453501
    23 0.928311 0.000000 0.000001 0.000000 0.000000 0.000000
    24 2.686395 -0.427337 0.044204 -0.005762 0.043239 -0.157074
    25 1.435260 0.000000 0.000001 0.000000 0.000000 0.732613
    26 1.482593 0.000000 -0.000001 0.000000 0.000000 1.168644
    27 2.046984 0.000001 0.000000 0.377191 0.430072 -0.867426
    28 -0.000005 0.000007 3.713254 -3.293902 -0.161448 1.264185
    29 18.045723 0.000000 0.000000 0.000000 0.000000 -1.669796
    30 17.597597 0.000000 0.000000 -0.254040 0.198982 -0.213244
    31 0.000005 -0.000003 -3.713254 0.821892 2.312307 5.493555
    32 18.045721 0.000000 0.000000 0.000000 0.000000 -2.673768
    33 17.597597 0.000000 0.000000 0.379969 0.033854 0.755924
  time 1
    0 0.305662 2.640857 -20.600716 0.000000 0.000000 -1.585458
    1 -0.000004 0.000000 0.000000 -1.570795 -1.570787 0.000000
    2 1.293670 0.684478 -0.000001 -0.000004 -0.000001 0.124364
    3 5.309685 -0.003834 0.000000 -0.082567 0.026007 0.165060
    4 4.826790 -0.004591 0.000000 -0.108514 0.031364 0.016194
    5 5.792767 -0.005304 0.000000 0.099886 0.016730 0.066922
    6 6.662322 -0.001452 0.000000 -0.000144 -0.183155 0.165793
    7 -2.576921 0.516793 4.886517 1.524731 -1.302482 -4.783755
    8 4.827512 0.000000 -0.000002 -0.064734 0.291288 -1.129342
    9 11.140032 0.000000 0.000000 0.000000 0.000000 -2.012944
    10 10.314563 -0.000001 0.000001 -1.697700 -0.571588 -0.061185
    11 1.646836 0.445664 -1.699647 0.441755 0.155162 1.184501
    12 0.928312 0.000000 0.000000 0.000000 0.000000 0.000000
    13 0.928313 0.000000 -0.000001 0.000000 0.000000 0.000000
    14 2.979373 -0.388274 -0.044205 -0.021491 -0.037954 0.497507
    15 1.435262 -0.000001 -0.000001 0.000000 0.000000 0.674555
    16 1.482593 -0.000001 0.000001 0.000000 0.000000 0.723154
    17 -3.854304 0.473858 -3.507564 0.007000 1.245364 -3.303992
    18 4.972047 0.000000 0.000000 -0.639284 -1.069181 0.701509
    19 11.585358 0.000000 0.000001 0.000000 0.000000 -1.937101
    20 10.127058 0.000000 0.000001 1.938814 0.000000 0.121254
    21 1.537458 0.109715 1.664489 -0.264662 -0.055995 0.783079
    22 0.928313 0.000000 0.000002 0.000000 0.000000 -0.453501
    23 0.928311 0.000000 0.000001 0.000000 0.000000 0.000000
    24 2.686395 -0.427337 0.044204 -0.005762 0.043239 -0.157074
    25 1.435260 0.000000 0.000001 0.000000 0.000000 0.732613
    26 1.482593 0.000000 -0.000001 0.000000 0.000000 1.168644
    27 2.046984 0.000001 0.000000 -0.014174 0.107570 -0.846501
    28 -0.000005 0.000007 3.713254 -3.293902 -0.161448 1.264185
    29 18.045723 0.000000 0.000000 0.000000 0.000000 -1.669796
    30 17.597597 0.000000 0.000000 -0.254040 0.198982 -0.213244
    31 0.000005 -0.000003 -3.713254 0.821892 2.312307 5.493555
    32 18.045721 0.000000 0.000000 0.000000 0.000000 -2.673768
    33 17.597597 0.000000 0.000000 0.379969 0.033854 0.755924
  time 2
    0 0.305662 2.640857 -20.600716 0.000000 0.000000 -1.585458
    1 -0.000004 0.000000 0.000000 -1.570795 -1.570787 0.000000
    2 1.293670 0.684478 -0.000001 -0.000004 -0.000001 0.124364
    3 5.309685 -0.003834 0.000000 -0.018549 0.023562 0.184508
    4 4.826790 -0.004591 0.000000 0.039770 0.027708 0.042674
    5 5.792767 -0.005304 0.000000 0.295323 0.016335 0.065012
    6 6.662322 -0.001452 0.000000 -0.000144 -0.183155 0.165793
    7 -2.576921 0.516793 4.886517 1.486773 -1.381343 -4.761142
    8 4.827512 0.000000 -0.000002 -0.281963 0.221193 -1.234622
    9 11.140032 0.000000 0.000000 0.000000 0.000000 -2.074022
    10 10.314563 -0.000001 0.000001 -1.688601 -0.438199 -0.079823
    11 1.646836 0.445664 -1.699647 0.441755 0.155162 1.184501
    12 0.928312 0.000000 0.000000 0.000000 0.000000 0.000000
    13 0.928313 0.000000 -0.000001 0.000000 0.000000 0.000000
    14 2.979373 -0.388274 -0.044205 -0.021491 -0.037954 0.497507
    15 1.435262 -0.000001 -0.000001 0.000000 0.000000 0.674555
    16 1.482593 -0.000001 0.000001 0.000000 0.000000 0.723154
    17 -3.854304 0.473858 -3.507564 -0.084233 1.294448 -3.396324
    18 4.972047 0.000000 0.000000 0.529914 -1.295847 -0.213161
    19 11.585358 0.000000 0.000001 0.000000 0.000000 -1.493335
    20 10.127058 0.000000 0.000001 2.273867 0.000000 0.121254
    21 1.537458 0.109715 1.664489 -0.264662 -0.055995 0.783079
    22 0.928313 0.000000 0.000002 0.000000 0.000000 -0.453501
    23 0.928311 0.000000 0.000001 0.000000 0.000000 0.000000
    24 2.686395 -0.427337 0.044204 -0.005762 0.043239 -0.157074
    25 1.435260 0.000000 0.000001 0.000000 0.000000 0.732613
    26 1.482593 0.000000 -0.000001 0.000000 0.000000 1.168644
    27 2.046984 0.000001 0.000000 -0.351729 -0.105298 -0.737739
    28 -0.000005 0.000007 3.713254 -3.293902 -0.161448 1.264185
    29 18.045723 0.000000 0.000000 0.000000 0.000000 -1.669796
    30 17.597597 0.000000 0.000000 -0.254040 0.198982 -0.213244
    31 0.000005 -0.000003 -3.713254 0.821892 2.312307 5.493555
    32 18.045721 0.000000 0.000000 0.000000 0.000000 -2.673768
    33 17.597597 0.000000 0.000000 0.379969 0.033854 0.755924
  time 3
    0 0.305662 2.640857 -20.600716 0.000000 0.000000 -1.585458
    1 -0.000004 0.000000 0.000000 -1.570795 -1.570787 0.000000
    2 1.293670 0.684478 -0.000001 -0.000004 -0.000001 0.124364
    3 5.309685 -0.003834 0.000000 0.039582 0.038483 0.203549
    4 4.826790 -0.004591 0.000000 0.139567 0.005825 0.065383
    5 5.792767 -0.005304 0.000000 0.371249 -0.010211 0.056769
    6 6.662322 -0.001452 0.000000 -0.000144 -0.183155 0.165793
    7 -2.576921 0.516793 4.886517 1.439134 -1.436401 -4.724252
    8 4.827512 0.000000 -0.000002 -0.434939 0.198596 -1.253339
    9 11.140032 0.000000 0.000000 0.000000 0.000000 -2.116987
    10 10.314563 -0.000001 0.000001 -1.684052 -0.344807 -0.091668
    11 1.646836 0.445664 -1.699647 0.441755 0.155162 1.184501
    12 0.928312 0.000000 0.000000 0.000000 0.000000 0.000000
    13 0.928313 0.000000 -0.000001 0.000000 0.000000 0.000000
    14 2.979373 -0.388274 -0.044205 -0.021491 -0.037954 0.497507
    15 1.435262 -0.000001 -0.000001 0.000000 0.000000 0.674555
    16 1.482593 -0.000001 0.000001 0.000000 0.000000 0.723154
    17 -3.854304 0.473858 -3.507564 -0.217404 1.333016 -3.531949
    18 4.972047 0.000000 0.000000 1.372225 -0.980877 -0.902142
    19 11.585358 0.000000 0.000001 0.000000 0.000000 -1.206312
    20 10.127058 0.000000 0.000001 2.563268 0.000000 0.121254
    21 1.537458 0.109715 1.664489 -0.264662 -0.055995 0.783079
    22 0.928313 0.000000 0.000002 0.000000 0.000000 -0.453501
    23 0.928311 0.000000 0.000001 0.000000 0.000000 0.000000
    24 2.686395 -0.427337 0.044204 -0.005762 0.043239 -0.157074
    25 1.435260 0.000000 0.000001 0.000000 0.000000 0.732613
    26 1.482593 0.000000 -0.000001 0.000000 0.000000 1.168644
    27 2.046984 0.000001 0.000000 -0.576880 -0.186226 -0.674599
    28 -0.000005 0.000007 3.713254 -3.293902 -0.161448 1.264185
    29 18.045723 0.000000 0.000000 0.000000 0.000000 -1.669796
    30 17.597597 0.000000 0.000000 -0.254040 0.198982 -0.213244
    31 0.000005 -0.000003 -3.713254 0.821892 2.312307 5.493555
    32 18.045721 0.000000 0.000000 0.000000 0.000000 -2.673768
    33 17.597597 0.000000 0.000000 0.379969 0.033854 0.755924
  time 4
    0 0.305662 2.640857 -20.600716 0.000000 0.000000 -1.585458
    1 -0.000004 0.000000 0.000000 -1.570795 -1.570787 0.000000
    2 1.293670 0.684478 -0.000001 -0.000004 -0.000001 0.124364
    3 5.309685 -0.003834 0.000000 0.092301 0.058389 0.222202
    4 4.826790 -0.004591 0.000000 0.212183 -0.021788 0.083705
    5 5.792767 -0.005304 0.000000 0.393068 -0.044691 0.046097
    6 6.662322 -0.001452 0.000000 -0.000144 -0.183155 0.165793
    7 -2.576921 0.516793 4.886517 1.407599 -1.458755 -4.697327
    8 4.827512 0.000000 -0.000002 -0.478305 0.188704 -1.312348
    9 11.140032 0.000000 0.000000 0.000000 0.000000 -2.134449
    10 10.314563 -0.000001 0.000001 -1.682536 -0.306683 -0.096313
    11 1.646836 0.445664 -1.699647 0.441755 0.155162 1.184501
    12 0.928312 0.000000 0.000000 0.000000 0.000000 0.000000
    13 0.928313 0.000000 -0.000001 0.000000 0.000000 0.000000
    14 2.979373 -0.388274 -0.044205 -0.021491 -0.037954 0.497507
    15 1.435262 -0.000001 -0.000001 0.000000 0.000000 0.674555
    16 1.482593 -0.000001 0.000001 0.000000 0.000000 0.723154
    17 -3.854304 0.473858 -3.507564 -0.386687 1.364065 -3.704353
    18 4.972047 0.000000 0.000000 1.536279 -0.577201 -0.962774
    19 11.585358 0.000000 0.000001 0.000000 0.000000 -0.958250
    20 10.127058 0.000000 0.000001 2.836611 0.000000 0.121254
    21 1.537458 0.109715 1.664489 -0.264662 -0.055995 0.783079
    22 0.928313 0.000000 0.000002 0.000000 0.000000 -0.453501
    23 0.928311 0.000000 0.000001 0.000000 0.000000 0.000000
    24 2.686395 -0.427337 0.044204 -0.005762 0.043239 -0.157074
    25 1.435260 0.000000 0.000001 0.000000 0.000000 0.732613
    26 1.482593 0.000000 -0.000001 0.000000 0.000000 1.168644
    27 2.046984 0.000001 0.000000 -0.728446 -0.236028 -0.660426
    28 -0.000005 0.000007 3.713254 -3.293902 -0.161448 1.264185
    29 18.045723 0.000000 0.000000 0.000000 0.000000 -1.669796
    30 17.597597 0.000000 0.000000 -0.254040 0.198982 -0.213244
    31 0.000005 -0.000003 -3.713254 0.821892 2.312307 5.493555
    32 18.045721 0.000000 0.000000 0.000000 0.000000 -2.673768
    33 17.597597 0.000000 0.000000 0.379969 0.033854 0.755924
  time 5
    0 0.305662 2.640857 -20.600716 0.000000 0.000000 -1.585458
    1 -0.000004 0.000000 0.000000 -1.570795 -1.570787 0.000000
    2 1.293670 0.684478 -0.000001 -0.000004 -0.000001 0.124364
    3 5.309685 -0.003834 0.000000 0.118149 0.067833 0.231669
    4 4.826790 -0.004591 0.000000 0.228568 -0.035702 0.092260
    5 5.792767 -0.005304 0.000000 0.361823 -0.061805 0.042692
    6 6.662322 -0.001452 0.000000 -0.000144 -0.183155 0.165793
    7 -2.576921 0.516793 4.886517 1.409516 -1.457631 -4.698956
    8 4.827512 0.000000 -0.000002 -0.461166 0.170370 -1.329851
    9 11.140032 0.000000 0.000000 0.000000 0.000000 -2.133507
    10 10.314563 -0.000001 0.000001 -1.682631 -0.308556 -0.096081
    11 1.646836 0.445664 -1.699647 0.441755 0.155162 1.184501
    12 0.928312 0.000000 0.000000 0.000000 0.000000 0.000000
    13 0.928313 0.000000 -0.000001 0.000000 0.000000 0.000000
    14 2.979373 -0.388274 -0.044205 -0.021491 -0.037954 0.497507
    15 1.435262 -0.000001 -0.000001 0.000000 0.000000 0.674555
    16 1.482593 -0.000001 0.000001 0.000000 0.000000 0.723154
    17 -3.854304 0.473858 -3.507564 -0.429389 1.385203 -3.747837
    18 4.972047 0.000000 0.000000 1.534403 -0.309959 -0.984804
    19 11.585358 0.000000 0.000001 0.000000 0.000000 -0.860643
    20 10.127058 0.000000 0.000001 2.989412 0.000000 0.121254
    21 1.537458 0.109715 1.664489 -0.264662 -0.055995 0.783079
    22 0.928313 0.000000 0.000002 0.000000 0.000000 -0.453501
    23 0.928311 0.000000 0.000001 0.000000 0.000000 0.000000
    24 2.686395 -0.427337 0.044204 -0.005762 0.043239 -0.157074
    25 1.435260 0.000000 0.000001 0.000000 0.000000 0.732613
    26 1.482593 0.000000 -0.000001 0.000000 0.000000 1.168644
    27 2.046984 0.000001 0.000000 -0.745722 -0.245410 -0.688772
    28 -0.000005 0.000007 3.713254 -3.293902 -0.161448 1.264185
    29 18.045723 0.000000 0.000000 0.000000 0.000000 -1.669796
    30 17.597597 0.000000 0.000000 -0.254040 0.198982 -0.213244
    31 0.000005 -0.000003 -3.713254 0.821892 2.312307 5.493555
    32 18.045721 0.000000 0.000000 0.000000 0.000000 -2.673768
    33 17.597597 0.000000 0.000000 0.379969 0.033854 0.755924
  time 6
    0 0.305662 2.640857 -20.600716 0.000000 0.000000 -1.585458
    1 -0.000004 0.000000 0.000000 -1.570795 -1.570787 0.000000
    2 1.293670 0.684478 -0.000001 -0.000004 -0.000001 0.124364
    3 5.309685 -0.003834 0.000000 0.080440 0.046476 0.217168
    4 4.826790 -0.004591 0.000000 0.108266 -0.009240 0.080729
    5 5.792767 -0.005304 0.000000 0.202938 -0.025144 0.058077
    6 6.662322 -0.001452 0.000000 -0.000144 -0.183155 0.165793
    7 -2.576921 0.516793 4.886517 1.439134 -1.436401 -4.724252
    8 4.827512 0.000000 -0.000002 -0.445462 0.133106 -1.106466
    9 11.140032 0.000000 0.000000 0.000000 0.000000 -2.116987
    10 10.314563 -0.000001 0.000001 -1.684052 -0.344807 -0.091668
    11 1.646836 0.445664 -1.699647 0.441755 0.155162 1.184501
    12 0.928312 0.000000 0.000000 0.000000 0.000000 0.000000
    13 0.928313 0.000000 -0.000001 0.000000 0.000000 0.000000
    14 2.979373 -0.388274 -0.044205 -0.021491 -0.037954 0.497507
    15 1.435262 -0.000001 -0.000001 0.000000 0.000000 0.674555
    16 1.482593 -0.000001 0.000001 0.000000 0.000000 0.723154
    17 -3.854304 0.473858 -3.507564 0.041965 1.382968 -3.268361
    18 4.972047 0.000000 0.000000 1.343335 -0.357526 -1.202972
    19 11.585358 0.000000 0.000001 0.000000 0.000000 -1.153546
    20 10.127058 0.000000 0.000001 2.861435 0.000000 0.121254
    21 1.537458 0.109715 1.664489 -0.264662 -0.055995 0.783079
    22 0.928313 0.000000 0.000002 0.000000 0.000000 -0.453501
    23 0.928311 0.000000 0.000001 0.000000 0.000000 0.000000
    24 2.686395 -0.427337 0.044204 -0.005762 0.043239 -0.157074
    25 1.435260 0.000000 0.000001 0.000000 0.000000 0.732613
    26 1.482593 0.000000 -0.000001 0.000000 0.000000 1.168644
    27 2.046984 0.000001 0.000000 -0.447028 -0.126629 -0.812741
    28 -0.000005 0.000007 3.713254 -3.293902 -0.161448 1.264185
    29 18.045723 0.000000 0.000000 0.000000 0.000000 -1.669796
    30 17.597597 0.000000 0.000000 -0.254040 0.198982 -0.213244
    31 0.000005 -0.000003 -3.713254 0.821892 2.312307 5.493555
    32 18.045721 0.000000 0.000000 0.000000 0.000000 -2.673768
    33 17.597597 0.000000 0.000000 0.379969 0.033854 0.755924
  time 7
    0 0.305662 2.640857 -20.600716 0.000000 0.000000 -1.585458
    1 -0.000004 0.000000 0.000000 -1.570795 -1.570787 0.000000
    2 1.293670 0.684478 -0.000001 -0.000004 -0.000001 0.124364
    3 5.309685 -0.003834 0.000000 0.006756 0.021057 0.192121
    4 4.826790 -0.004591 0.000000 -0.066131 0.023957 0.051339
    5 5.792767 -0.005304 0.000000 0.008544 0.022028 0.068583
    6 6.662322 -0.001452 0.000000 -0.000144 -0.183155 0.165793
    7 -2.576921 0.516793 4.886517 1.476517 -1.396157 -4.753955
    8 4.827512 0.000000 -0.000002 -0.383841 0.138393 -0.829445
    9 11.140032 0.000000 0.000000 0.000000 0.000000 -2.085615
    10 10.314563 -0.000001 0.000001 -1.687180 -0.413188 -0.083191
    11 1.646836 0.445664 -1.699647 0.441755 0.155162 1.184501
    12 0.928312 0.000000 0.000000 0.000000 0.000000 0.000000
    13 0.928313 0.000000 -0.000001 0.000000 0.000000 0.000000
    14 2.979373 -0.388274 -0.044205 -0.021491 -0.037954 0.497507
    15 1.435262 -0.000001 -0.000001 0.000000 0.000000 0.674555
    16 1.482593 -0.000001 0.000001 0.000000 0.000000 0.723154
    17 -3.854304 0.473858 -3.507564 0.379096 1.320633 -2.925755
    18 4.972047 0.000000 0.000000 1.037177 -0.589896 -1.378013
    19 11.585358 0.000000 0.000001 0.000000 0.000000 -1.566356
    20 10.127058 0.000000 0.000001 2.562567 0.000000 0.121254
    21 1.537458 0.109715 1.664489 -0.264662 -0.055995 0.783079
    22 0.928313 0.000000 0.000002 0.000000 0.000000 -0.453501
    23 0.928311 0.000000 0.000001 0.000000 0.000000 0.000000
    24 2.686395 -0.427337 0.044204 -0.005762 0.043239 -0.157074
    25 1.435260 0.000000 0.000001 0.000000 0.000000 0.732613
    26 1.482593 0.000000 -0.000001 0.000000 0.000000 1.168644
    27 2.046984 0.000001 0.000000 -0.060015 0.093703 -0.885127
    28 -0.000005 0.000007 3.713254 -3.293902 -0.161448 1.264185
    29 18.045723 0.000000 0.000000 0.000000 0.000000 -1.669796
    30 17.597597 0.000000 0.000000 -0.254040 0.198982 -0.213244
    31 0.000005 -0.000003 -3.713254 0.821892 2.312307 5.493555
    32 18.045721 0.000000 0.000000 0.000000 0.000000 -2.673768
    33 17.597597 0.000000 0.000000 0.379969 0.033854 0.755924
  time 8
    0 0.305662 2.640857 -20.600716 0.000000 0.000000 -1.585458
    1 -0.000004 0.000000 0.000000 -1.570795 -1.570787 0.000000
    2 1.293670 0.684478 -0.000001 -0.000004 -0.000001 0.124364
    3 5.309685 -0.003834 0.000000 -0.070059 0.024281 0.168840
    4 4.826790 -0.004591 0.000000 -0.181168 0.029027 0.020228
    5 5.792767 -0.005304 0.000000 -0.085766 0.021488 0.069040
    6 6.662322 -0.001452 0.000000 -0.000144 -0.183155 0.165793
    7 -2.576921 0.516793 4.886517 1.508628 -1.341543 -4.775323
    8 4.827512 0.000000 -0.000002 -0.226081 0.195100 -0.755012
    9 11.140032 0.000000 0.000000 0.000000 0.000000 -2.043157
    10 10.314563 -0.000001 0.000001 -1.692772 -0.505643 -0.070649
    11 1.646836 0.445664 -1.699647 0.441755 0.155162 1.184501
    12 0.928312 0.000000 0.000000 0.000000 0.000000 0.000000
    13 0.928313 0.000000 -0.000001 0.000000 0.000000 0.000000
    14 2.979373 -0.388274 -0.044205 -0.021491 -0.037954 0.497507
    15 1.435262 -0.000001 -0.000001 0.000000 0.000000 0.674555
    16 1.482593 -0.000001 0.000001 0.000000 0.000000 0.723154
    17 -3.854304 0.473858 -3.507564 0.315854 1.277727 -2.991269
    18 4.972047 0.000000 0.000000 0.789830 -0.833114 -1.309860
    19 11.585358 0.000000 0.000001 0.000000 0.000000 -1.783625
    20 10.127058 0.000000 0.000001 2.252479 0.000000 0.121254
    21 1.537458 0.109715 1.664489 -0.264662 -0.055995 0.783079
    22 0.928313 0.000000 0.000002 0.000000 0.000000 -0.453501
    23 0.928311 0.000000 0.000001 0.000000 0.000000 0.000000
    24 2.686395 -0.427337 0.044204 -0.005762 0.043239 -0.157074
    25 1.435260 0.000000 0.000001 0.000000 0.000000 0.732613
    26 1.482593 0.000000 -0.000001 0.000000 0.000000 1.168644
    27 2.046984 0.000001 0.000000 0.173710 0.260604 -0.878010
    28 -0.000005 0.000007 3.713254 -3.293902 -0.161448 1.264185
    29 18.045723 0.000000 0.000000 0.000000 0.000000 -1.669796
    30 17.597597 0.000000 0.000000 -0.254040 0.198982 -0.213244
    31 0.000005 -0.000003 -3.713254 0.821892 2.312307 5.493555
    32 18.045721 0.000000 0.000000 0.000000 0.000000 -2.673768
    33 17.597597 0.000000 0.000000 0.379969 0.033854 0.755924
  time 9
    0 0.305662 2.640857 -20.600716 0.000000 0.000000 -1.585458
    1 -0.000004 0.000000 0.000000 -1.570795 -1.570787 0.000000
    2 1.293670 0.684478 -0.000001 -0.000004 -0.000001 0.124364
    3 5.309685 -0.003834 0.000000 -0.153358 0.033593 0.143369
    4 4.826790 -0.004591 0.000000 -0.286764 0.024952 -0.012337
    5 5.792767 -0.005304 0.000000 -0.156745 0.008269 0.069123
    6 6.662322 -0.001452 0.000000 -0.000144 -0.183155 0.165793
    7 -2.576921 0.516793 4.886517 1.532303 -1.281103 -4.787013
    8 4.827512 0.000000 -0.000002 -0.066009 0.301606 -0.725465
    9 11.140032 0.000000 0.000000 0.000000 0.000000 -1.996280
    10 10.314563 -0.000001 0.000001 -1.700828 -0.607745 -0.055552
    11 1.646836 0.445664 -1.699647 0.441755 0.155162 1.184501
    12 0.928312 0.000000 0.000000 0.000000 0.000000 0.000000
    13 0.928313 0.000000 -0.000001 0.000000 0.000000 0.000000
    14 2.979373 -0.388274 -0.044205 -0.021491 -0.037954 0.497507
    15 1.435262 -0.000001 -0.000001 0.000000 0.000000 0.674555
    16 1.482593 -0.000001 0.000001 0.000000 0.000000 0.723154
    17 -3.854304 0.473858 -3.507564 0.183161 1.235689 -3.126798
    18 4.972047 0.000000 0.000000 0.336502 -1.037443 -0.951460
    19 11.585358 0.000000 0.000001 0.000000 0.000000 -1.957113
    20 10.127058 0.000000 0.000001 1.911115 0.000000 0.121254
    21 1.537458 0.109715 1.664489 -0.264662 -0.055995 0.783079
    22 0.928313 0.000000 0.000002 0.000000 0.000000 -0.453501
    23 0.928311 0.000000 0.000001 0.000000 0.000000 0.000000
    24 2.686395 -0.427337 0.044204 -0.005762 0.043239 -0.157074
    25 1.435260 0.000000 0.000001 0.000000 0.000000 0.732613
    26 1.482593 0.000000 -0.000001 0.000000 0.000000 1.168644
    27 2.046984 0.000001 0.000000 0.391753 0.417002 -0.831962
    28 -0.000005 0.000007 3.713254 -3.293902 -0.161448 1.264185
    29 18.045723 0.000000 0.000000 0.000000 0.000000 -1.669796
    30 17.597597 0.000000 0.000000 -0.254040 0.198982 -0.213244
    31 0.000005 -0.000003 -3.713254 0.821892 2.312307 5.493555
    32 18.045721 0.000000 0.000000 0.000000 0.000000 -2.673768
    33 17.597597 0.000000 0.000000 0.379969 0.033854 0.755924
  time 10
    0 0.305662 2.640857 -20.600716 0.000000 0.000000 -1.585458
    1 -0.000004 0.000000 0.000000 -1.570795 -1.570787 0.000000
    2 1.293670 0.684478 -0.000001 -0.000004 -0.000001 0.124364
    3 5.309685 -0.003834 0.000000 -0.153358 0.033593 0.143369
    4 4.826790 -0.004591 0.000000 -0.286764 0.024952 -0.012337
    5 5.792767 -0.005304 0.000000 -0.156745 0.008269 0.069123
    6 6.662322 -0.001452 0.000000 -0.000144 -0.183155 0.165793
    7 -2.576921 0.516793 4.886517 1.549269 -1.223473 -4.792666
    8 4.827512 0.000000 -0.000002 0.091192 0.416555 -0.929266
    9 11.140032 0.000000 0.000000 0.000000 0.000000 -1.951649
    10 10.314563 -0.000001 0.000001 -1.711158 -0.704790 -0.038714
    11 1.646836 0.445664 -1.699647 0.441755 0.155162 1.184501
    12 0.928312 0.000000 0.000000 0.000000 0.000000 0.000000
    13 0.928313 0.000000 -0.000001 0.000000 0.000000 0.000000
    14 2.979373 -0.388274 -0.044205 -0.021491 -0.037954 0.497507
    15 1.435262 -0.000001 -0.000001 0.000000 0.000000 0.674555
    16 1.482593 -0.000001 0.000001 0.000000 0.000000 0.723154
    17 -3.854304 0.473858 -3.507564 0.080655 1.189023 -3.230528
    18 4.972047 0.000000 0.000000 -0.134836 -1.021453 -0.300548
    19 11.585358 0.000000 0.000001 0.000000 0.000000 -2.130437
    20 10.127058 0.000000 0.000001 1.569752 0.000000 0.121254
    21 1.537458 0.109715 1.664489 -0.264662 -0.055995 0.783079
    22 0.928313 0.000000 0.000002 0.000000 0.000000 -0.453501
    23 0.928311 0.000000 0.000001 0.000000 0.000000 0.000000
    24 2.686395 -0.427337 0.044204 -0.005762 0.043239 -0.157074
    25 1.435260 0.000000 0.000001 0.000000 0.000000 0.732613
    26 1.482593 0.000000 -0.000001 0.000000 0.000000 1.168644
    27 2.046984 0.000001 0.000000 0.377191 0.430072 -0.867426
    28 -0.000005 0.000007 3.713254 -3.293902 -0.161448 1.264185
    29 18.045723 0.000000 0.000000 0.000000 0.000000 -1.669796
    30 17.597597 0.000000 0.000000 -0.254040 0.198982 -0.213244
    31 0.000005 -0.000003 -3.713254 0.821892 2.312307 5.493555
    32 18.045721 0.000000 0.000000 0.000000 0.000000 -2.673768
    33 17.597597 0.000000 0.000000 0.379969 0.033854 0.755924
end
