version 1
nodes
  0 "Bip01" -1
  1 "Bip01 Pelvis" 0
  2 "Bip01 Spine" 1
  3 "Bip01 Spine1" 2
  4 "Bip01 Spine2" 3
  5 "Bip01 Spine3" 4
  6 "Bip01 Neck" 5
  7 "Bip01 L Arm" 6
  8 "Bip01 L Arm1" 7
  9 "Bip01 L Arm2" 8
  10 "Bip01 L Hand" 9
  11 "Bip01 L Finger0" 10
  12 "Bip01 L Finger01" 11
  13 "Bip01 L Finger02" 12
  14 "Bip01 L Finger1" 10
  15 "Bip01 L Finger11" 14
  16 "Bip01 L Finger12" 15
  17 "Bip01 R Arm" 6
  18 "Bip01 R Arm1" 17
  19 "Bip01 R Arm2" 18
  20 "Bip01 R Hand" 19
  21 "Bip01 R Finger0" 20
  22 "Bip01 R Finger01" 21
  23 "Bip01 R Finger02" 22
  24 "Bip01 R Finger1" 20
  25 "Bip01 R Finger11" 24
  26 "Bip01 R Finger12" 25
  27 "Bip01 Head" 6
  28 "Bip01 L Leg" 1
  29 "Bip01 L Leg1" 28
  30 "Bip01 L Foot" 29
  31 "Bip01 R Leg" 1
  32 "Bip01 R Leg1" 31
  33 "Bip01 R Foot" 32
end
skeleton
  time 0
    0 -0.846717 1.761924 -20.600716 0.000000 0.000000 -1.585458
    1 -0.871124 0.175787 0.000000 -1.570795 -1.570787 0.000000
    2 1.293670 0.684478 -0.000001 -0.264853 -0.089130 0.087031
    3 5.309685 -0.003834 0.000000 -0.108603 0.062955 -0.043442
    4 4.826790 -0.004591 0.000000 -0.104833 0.067797 0.237404
    5 5.792767 -0.005304 0.000000 -0.183511 0.131950 0.251337
    6 6.662322 -0.001452 0.000000 0.000000 -0.000001 0.471000
    7 -3.108188 1.516823 4.339626 1.420155 -1.402633 -5.031253
    8 4.827512 0.000000 -0.000002 -1.509604 -1.001205 -1.333491
    9 11.140032 0.000000 0.000000 0.000000 0.000000 -0.809711
    10 10.314563 -0.000001 0.000001 -2.574096 0.411970 0.936808
    11 1.646836 0.445664 -1.699647 0.034758 -0.065773 1.631422
    12 0.928312 0.000000 0.000000 0.000000 0.000000 -1.300235
    13 0.928313 0.000000 -0.000001 0.000000 0.000000 0.000000
    14 2.979373 -0.388274 -0.044205 -0.018435 -0.039524 0.418816
    15 1.435262 -0.000001 -0.000001 0.000000 0.000000 1.238742
    16 1.482593 -0.000001 0.000001 0.000000 0.000000 1.221017
    17 -2.869899 1.399667 -4.140396 -2.128041 1.187630 -5.775983
    18 4.972047 0.000000 0.000000 0.724359 0.231195 -1.459344
    19 11.585358 0.000000 0.000001 0.000000 0.000000 -1.973040
    20 10.127058 0.000000 0.000001 2.382138 0.479724 1.084869
    21 1.537458 0.109715 1.664489 -0.233165 -0.412999 0.435664
    22 0.928313 0.000000 0.000002 0.000000 0.000000 0.000000
    23 0.928311 0.000000 0.000001 0.000000 0.000000 0.000000
    24 2.686395 -0.427337 0.044204 0.001045 0.043611 0.000046
    25 1.435260 0.000000 0.000001 0.000000 0.000000 0.767749
    26 1.482593 0.000000 -0.000001 0.000000 0.000000 1.221638
    27 2.046984 0.000001 0.000000 0.853688 0.564342 -1.151496
    28 -0.000005 0.000007 3.713254 -3.289300 -0.165475 1.249615
    29 18.045723 0.000000 0.000000 0.000000 0.000000 -1.732931
    30 17.597597 0.000000 0.000000 -0.251405 0.197505 -0.164508
    31 0.000005 -0.000003 -3.713254 0.821892 2.312307 5.493555
    32 18.045721 0.000000 0.000000 0.000000 0.000000 -2.673768
    33 17.597597 0.000000 0.000000 0.379969 0.033854 0.755924
  time 1
    0 -0.846717 1.761924 -20.600716 0.000000 0.000000 -1.585458
    1 -0.847686 0.156255 0.000000 -1.570795 -1.570787 0.000000
    2 1.293670 0.684478 -0.000001 -0.264853 -0.089130 0.087031
    3 5.309685 -0.003834 0.000000 -0.109113 0.064609 -0.037825
    4 4.826790 -0.004591 0.000000 -0.103669 0.065759 0.222940
    5 5.792767 -0.005304 0.000000 -0.183889 0.128906 0.234166
    6 6.662322 -0.001452 0.000000 0.000000 -0.000001 0.471000
    7 -3.108188 1.516823 4.339626 1.420155 -1.402633 -5.031253
    8 4.827512 0.000000 -0.000002 -1.508328 -0.973662 -1.338083
    9 11.140032 0.000000 0.000000 0.000000 0.000000 -0.809711
    10 10.314563 -0.000001 0.000001 -2.574286 0.411783 0.935066
    11 1.646836 0.445664 -1.699647 0.034758 -0.065773 1.631422
    12 0.928312 0.000000 0.000000 0.000000 0.000000 -1.300235
    13 0.928313 0.000000 -0.000001 0.000000 0.000000 0.000000
    14 2.979373 -0.388274 -0.044205 -0.018435 -0.039524 0.418816
    15 1.435262 -0.000001 -0.000001 0.000000 0.000000 1.238742
    16 1.482593 -0.000001 0.000001 0.000000 0.000000 1.221017
    17 -2.869899 1.399667 -4.140396 -2.124697 1.188471 -5.772248
    18 4.972047 0.000000 0.000000 0.727267 0.206206 -1.459943
    19 11.585358 0.000000 0.000001 0.000000 0.000000 -1.972877
    20 10.127058 0.000000 0.000001 2.382068 0.479346 1.085320
    21 1.537458 0.109715 1.664489 -0.233165 -0.412999 0.435664
    22 0.928313 0.000000 0.000002 0.000000 0.000000 0.000000
    23 0.928311 0.000000 0.000001 0.000000 0.000000 0.000000
    24 2.686395 -0.427337 0.044204 0.001045 0.043611 0.000046
    25 1.435260 0.000000 0.000001 0.000000 0.000000 0.767749
    26 1.482593 0.000000 -0.000001 0.000000 0.000000 1.221638
    27 2.046984 0.000001 0.000000 0.850026 0.561185 -1.127894
    28 -0.000005 0.000007 3.713254 -3.288629 -0.166050 1.249231
    29 18.045723 0.000000 0.000000 0.000000 0.000000 -1.734411
    30 17.597597 0.000000 0.000000 -0.250721 0.197136 -0.163224
    31 0.000005 -0.000003 -3.713254 0.823042 2.314224 5.497198
    32 18.045721 0.000000 0.000000 0.000000 0.000000 -2.673532
    33 17.597597 0.000000 0.000000 0.378996 0.035136 0.758834
  time 2
    0 -0.846717 1.761924 -20.600716 0.000000 0.000000 -1.585458
    1 -0.820342 0.136723 0.000000 -1.570795 -1.570787 0.000000
    2 1.293670 0.684478 -0.000001 -0.264853 -0.089130 0.087031
    3 5.309685 -0.003834 0.000000 -0.109641 0.066347 -0.031801
    4 4.826790 -0.004591 0.000000 -0.102448 0.063614 0.207462
    5 5.792767 -0.005304 0.000000 -0.184194 0.125694 0.216331
    6 6.662322 -0.001452 0.000000 0.000000 -0.000001 0.471000
    7 -3.108188 1.516823 4.339626 1.420155 -1.402633 -5.031253
    8 4.827512 0.000000 -0.000002 -1.508408 -0.944413 -1.341462
    9 11.140032 0.000000 0.000000 0.000000 0.000000 -0.809421
    10 10.314563 -0.000001 0.000001 -2.574286 0.411596 0.932859
    11 1.646836 0.445664 -1.699647 0.034758 -0.065773 1.631422
    12 0.928312 0.000000 0.000000 0.000000 0.000000 -1.300235
    13 0.928313 0.000000 -0.000001 0.000000 0.000000 0.000000
    14 2.979373 -0.388274 -0.044205 -0.018435 -0.039524 0.418816
    15 1.435262 -0.000001 -0.000001 0.000000 0.000000 1.238742
    16 1.482593 -0.000001 0.000001 0.000000 0.000000 1.221017
    17 -2.869899 1.399667 -4.140396 -2.128041 1.187630 -5.775983
    18 4.972047 0.000000 0.000000 0.732801 0.178245 -1.459610
    19 11.585358 0.000000 0.000001 0.000000 0.000000 -1.973040
    20 10.127058 0.000000 0.000001 2.382138 0.479724 1.084869
    21 1.537458 0.109715 1.664489 -0.233165 -0.412999 0.435664
    22 0.928313 0.000000 0.000002 0.000000 0.000000 0.000000
    23 0.928311 0.000000 0.000001 0.000000 0.000000 0.000000
    24 2.686395 -0.427337 0.044204 0.001045 0.043611 0.000046
    25 1.435260 0.000000 0.000001 0.000000 0.000000 0.767749
    26 1.482593 0.000000 -0.000001 0.000000 0.000000 1.221638
    27 2.046984 0.000001 0.000000 0.846192 0.557881 -1.103137
    28 -0.000005 0.000007 3.713254 -3.287958 -0.166625 1.248944
    29 18.045723 0.000000 0.000000 0.000000 0.000000 -1.736039
    30 17.597597 0.000000 0.000000 -0.250011 0.196668 -0.161803
    31 0.000005 -0.000003 -3.713254 0.824193 2.316333 5.501129
    32 18.045721 0.000000 0.000000 0.000000 0.000000 -2.673217
    33 17.597597 0.000000 0.000000 0.377922 0.036556 0.761929
  time 3
    0 -0.846717 1.761924 -20.600716 0.000000 0.000000 -1.585458
    1 -0.796903 0.125004 0.000000 -1.570795 -1.570787 0.000000
    2 1.293670 0.684478 -0.000001 -0.264853 -0.089130 0.087031
    3 5.309685 -0.003834 0.000000 -0.110185 0.068072 -0.025796
    4 4.826790 -0.004591 0.000000 -0.101266 0.061589 0.192447
    5 5.792767 -0.005304 0.000000 -0.184464 0.122554 0.198828
    6 6.662322 -0.001452 0.000000 0.002289 0.003353 0.512868
    7 -3.057405 1.653546 4.331813 1.396288 -1.401627 -5.049842
    8 4.827512 0.000000 -0.000002 -1.510720 -0.915164 -1.342589
    9 11.140032 0.000000 0.000000 0.000000 0.000000 -0.809132
    10 10.314563 -0.000001 0.000001 -2.574002 0.411408 0.930479
    11 1.646836 0.445664 -1.699647 0.034758 -0.065773 1.631422
    12 0.928312 0.000000 0.000000 0.000000 0.000000 -1.300235
    13 0.928313 0.000000 -0.000001 0.000000 0.000000 0.000000
    14 2.979373 -0.388274 -0.044205 -0.018435 -0.039524 0.418816
    15 1.435262 -0.000001 -0.000001 0.000000 0.000000 1.238742
    16 1.482593 -0.000001 0.000001 0.000000 0.000000 1.221017
    17 -2.799584 1.501233 -4.148209 -2.153739 1.181373 -5.843892
    18 4.972047 0.000000 0.000000 0.742931 0.148515 -1.458012
    19 11.585358 0.000000 0.000001 0.000000 0.000000 -1.973285
    20 10.127058 0.000000 0.000001 2.382348 0.480859 1.082868
    21 1.537458 0.109715 1.664489 -0.233165 -0.412999 0.435664
    22 0.928313 0.000000 0.000002 0.000000 0.000000 0.000000
    23 0.928311 0.000000 0.000001 0.000000 0.000000 0.000000
    24 2.686395 -0.427337 0.044204 0.001045 0.043611 0.000046
    25 1.435260 0.000000 0.000001 0.000000 0.000000 0.767749
    26 1.482593 0.000000 -0.000001 0.000000 0.000000 1.221638
    27 2.046984 0.000001 0.000000 0.842185 0.556258 -1.129354
    28 -0.000005 0.000007 3.713254 -3.287287 -0.167201 1.248560
    29 18.045723 0.000000 0.000000 0.000000 0.000000 -1.737668
    30 17.597597 0.000000 0.000000 -0.249302 0.196275 -0.160474
    31 0.000005 -0.000003 -3.713254 0.825343 2.318346 5.504868
    32 18.045721 0.000000 0.000000 0.000000 0.000000 -2.673217
    33 17.597597 0.000000 0.000000 0.376915 0.037917 0.764839
  time 4
    0 -0.846717 1.761924 -20.600716 0.000000 0.000000 -1.585458
    1 -0.777371 0.113285 0.000000 -1.570795 -1.570787 0.000000
    2 1.293670 0.684478 -0.000001 -0.264853 -0.089130 0.087031
    3 5.309685 -0.003834 0.000000 -0.110679 0.069702 -0.020179
    4 4.826790 -0.004591 0.000000 -0.100198 0.059815 0.179637
    5 5.792767 -0.005304 0.000000 -0.184626 0.119714 0.182633
    6 6.662322 -0.001452 0.000000 0.004770 0.006624 0.554821
    7 -3.006622 1.790269 4.312281 1.372612 -1.400681 -5.068527
    8 4.827512 0.000000 -0.000002 -1.513510 -0.888900 -1.342589
    9 11.140032 0.000000 0.000000 0.000000 0.000000 -0.809132
    10 10.314563 -0.000001 0.000001 -2.573623 0.411315 0.928563
    11 1.646836 0.445664 -1.699647 0.034758 -0.065773 1.631422
    12 0.928312 0.000000 0.000000 0.000000 0.000000 -1.300235
    13 0.928313 0.000000 -0.000001 0.000000 0.000000 0.000000
    14 2.979373 -0.388274 -0.044205 -0.018435 -0.039524 0.418816
    15 1.435262 -0.000001 -0.000001 0.000000 0.000000 1.238742
    16 1.482593 -0.000001 0.000001 0.000000 0.000000 1.221017
    17 -2.725363 1.606705 -4.159928 -2.181730 1.173722 -5.914769
    18 4.972047 0.000000 0.000000 0.753812 0.120714 -1.456681
    19 11.585358 0.000000 0.000001 0.000000 0.000000 -1.973612
    20 10.127058 0.000000 0.000001 2.382629 0.482372 1.080417
    21 1.537458 0.109715 1.664489 -0.233165 -0.412999 0.435664
    22 0.928313 0.000000 0.000002 0.000000 0.000000 0.000000
    23 0.928311 0.000000 0.000001 0.000000 0.000000 0.000000
    24 2.686395 -0.427337 0.044204 0.001045 0.043611 0.000046
    25 1.435260 0.000000 0.000001 0.000000 0.000000 0.767749
    26 1.482593 0.000000 -0.000001 0.000000 0.000000 1.221638
    27 2.046984 0.000001 0.000000 0.838781 0.555078 -1.158187
    28 -0.000005 0.000007 3.713254 -3.286808 -0.167680 1.248368
    29 18.045723 0.000000 0.000000 0.000000 0.000000 -1.738926
    30 17.597597 0.000000 0.000000 -0.248769 0.195930 -0.159419
    31 0.000005 -0.000003 -3.713254 0.826205 2.319976 5.507840
    32 18.045721 0.000000 0.000000 0.000000 0.000000 -2.672981
    33 17.597597 0.000000 0.000000 0.376077 0.039002 0.767240
  time 5
    0 -0.846717 1.761924 -20.600716 0.000000 0.000000 -1.585458
    1 -0.765652 0.105472 0.000000 -1.570795 -1.570787 0.000000
    2 1.293670 0.684478 -0.000001 -0.264853 -0.089130 0.087031
    3 5.309685 -0.003834 0.000000 -0.111053 0.071129 -0.015356
    4 4.826790 -0.004591 0.000000 -0.099377 0.058617 0.170532
    5 5.792767 -0.005304 0.000000 -0.184752 0.117413 0.168555
    6 6.662322 -0.001452 0.000000 0.007359 0.009840 0.596774
    7 -2.940214 1.919179 4.300562 1.349128 -1.399794 -5.087211
    8 4.827512 0.000000 -0.000002 -1.516619 -0.867922 -1.341636
    9 11.140032 0.000000 0.000000 0.000000 0.000000 -0.809639
    10 10.314563 -0.000001 0.000001 -2.573243 0.411127 0.927402
    11 1.646836 0.445664 -1.699647 0.034758 -0.065773 1.631422
    12 0.928312 0.000000 0.000000 0.000000 0.000000 -1.300235
    13 0.928313 0.000000 -0.000001 0.000000 0.000000 0.000000
    14 2.979373 -0.388274 -0.044205 -0.018435 -0.039524 0.418816
    15 1.435262 -0.000001 -0.000001 0.000000 0.000000 1.238742
    16 1.482593 -0.000001 0.000001 0.000000 0.000000 1.221017
    17 -2.639423 1.712177 -4.171647 -2.209625 1.165152 -5.985646
    18 4.972047 0.000000 0.000000 0.764317 0.097815 -1.455816
    19 11.585358 0.000000 0.000001 0.000000 0.000000 -1.973857
    20 10.127058 0.000000 0.000001 2.382909 0.483979 1.077766
    21 1.537458 0.109715 1.664489 -0.233165 -0.412999 0.435664
    22 0.928313 0.000000 0.000002 0.000000 0.000000 0.000000
    23 0.928311 0.000000 0.000001 0.000000 0.000000 0.000000
    24 2.686395 -0.427337 0.044204 0.001045 0.043611 0.000046
    25 1.435260 0.000000 0.000001 0.000000 0.000000 0.767749
    26 1.482593 0.000000 -0.000001 0.000000 0.000000 1.221638
    27 2.046984 0.000001 0.000000 0.836369 0.554547 -1.191521
    28 -0.000005 0.000007 3.713254 -3.286520 -0.167968 1.248177
    29 18.045723 0.000000 0.000000 0.000000 0.000000 -1.739740
    30 17.597597 0.000000 0.000000 -0.248415 0.195709 -0.158777
    31 0.000005 -0.000003 -3.713254 0.826780 2.320935 5.509757
    32 18.045721 0.000000 0.000000 0.000000 0.000000 -2.672902
    33 17.597597 0.000000 0.000000 0.375540 0.039712 0.768672
  time 6
    0 -0.846717 1.761924 -20.600716 0.000000 0.000000 -1.585458
    1 -0.757840 0.093753 0.000000 -1.570795 -1.570787 0.000000
    2 1.293670 0.684478 -0.000001 -0.264853 -0.089130 0.087031
    3 5.309685 -0.003834 0.000000 -0.111377 0.072147 -0.011735
    4 4.826790 -0.004591 0.000000 -0.098958 0.057898 0.165174
    5 5.792767 -0.005304 0.000000 -0.184662 0.115555 0.155060
    6 6.662322 -0.001452 0.000000 0.010055 0.012905 0.638670
    7 -2.869899 2.055902 4.288843 1.325548 -1.399025 -5.105800
    8 4.827512 0.000000 -0.000002 -1.519807 -0.850100 -1.340076
    9 11.140032 0.000000 0.000000 0.000000 0.000000 -0.810798
    10 10.314563 -0.000001 0.000001 -2.572864 0.411034 0.926995
    11 1.646836 0.445664 -1.699647 0.034758 -0.065773 1.631422
    12 0.928312 0.000000 0.000000 0.000000 0.000000 -1.300235
    13 0.928313 0.000000 -0.000001 0.000000 0.000000 0.000000
    14 2.979373 -0.388274 -0.044205 -0.018435 -0.039524 0.418816
    15 1.435262 -0.000001 -0.000001 0.000000 0.000000 1.238742
    16 1.482593 -0.000001 0.000001 0.000000 0.000000 1.221017
    17 -2.549577 1.809836 -4.183366 -2.235514 1.156371 0.228479
    18 4.972047 0.000000 0.000000 0.773791 0.078129 -1.455284
    19 11.585358 0.000000 0.000001 0.000000 0.000000 -1.974184
    20 10.127058 0.000000 0.000001 2.383260 0.485492 1.075165
    21 1.537458 0.109715 1.664489 -0.233165 -0.412999 0.435664
    22 0.928313 0.000000 0.000002 0.000000 0.000000 0.000000
    23 0.928311 0.000000 0.000001 0.000000 0.000000 0.000000
    24 2.686395 -0.427337 0.044204 0.001045 0.043611 0.000046
    25 1.435260 0.000000 0.000001 0.000000 0.000000 0.767749
    26 1.482593 0.000000 -0.000001 0.000000 0.000000 1.221638
    27 2.046984 0.000001 0.000000 0.834688 0.554311 -1.227471
    28 -0.000005 0.000007 3.713254 -3.286232 -0.168159 1.248081
    29 18.045723 0.000000 0.000000 0.000000 0.000000 -1.740258
    30 17.597597 0.000000 0.000000 -0.248187 0.195561 -0.158365
    31 0.000005 -0.000003 -3.713254 0.827259 2.321606 5.511003
    32 18.045721 0.000000 0.000000 0.000000 0.000000 -2.672744
    33 17.597597 0.000000 0.000000 0.375171 0.040146 0.769688
  time 7
    0 -0.846717 1.761924 -20.600716 0.000000 0.000000 -1.585458
    1 -0.746121 0.093753 0.000000 -1.570795 -1.570787 0.000000
    2 1.293670 0.684478 -0.000001 -0.264853 -0.089130 0.087031
    3 5.309685 -0.003834 0.000000 -0.111581 0.072878 -0.009262
    4 4.826790 -0.004591 0.000000 -0.098729 0.057514 0.162506
    5 5.792767 -0.005304 0.000000 -0.184500 0.114177 0.142644
    6 6.662322 -0.001452 0.000000 0.012907 0.015846 0.680680
    7 -2.799584 2.180906 4.269311 1.301873 -1.398286 -5.124484
    8 4.827512 0.000000 -0.000002 -1.522597 -0.834836 -1.338603
    9 11.140032 0.000000 0.000000 0.000000 0.000000 -0.812827
    10 10.314563 -0.000001 0.000001 -2.572390 0.411034 0.927285
    11 1.646836 0.445664 -1.699647 0.034758 -0.065773 1.631422
    12 0.928312 0.000000 0.000000 0.000000 0.000000 -1.300235
    13 0.928313 0.000000 -0.000001 0.000000 0.000000 0.000000
    14 2.979373 -0.388274 -0.044205 -0.018435 -0.039524 0.418816
    15 1.435262 -0.000001 -0.000001 0.000000 0.000000 1.238742
    16 1.482593 -0.000001 0.000001 0.000000 0.000000 1.221017
    17 -2.455824 1.903589 -4.202898 -2.257487 1.148142 0.163923
    18 4.972047 0.000000 0.000000 0.781764 0.061738 -1.455417
    19 11.585358 0.000000 0.000001 0.000000 0.000000 -1.974429
    20 10.127058 0.000000 0.000001 2.383470 0.486911 1.072964
    21 1.537458 0.109715 1.664489 -0.233165 -0.412999 0.435664
    22 0.928313 0.000000 0.000002 0.000000 0.000000 0.000000
    23 0.928311 0.000000 0.000001 0.000000 0.000000 0.000000
    24 2.686395 -0.427337 0.044204 0.001045 0.043611 0.000046
    25 1.435260 0.000000 0.000001 0.000000 0.000000 0.767749
    26 1.482593 0.000000 -0.000001 0.000000 0.000000 1.221638
    27 2.046984 0.000001 0.000000 0.833654 0.554311 -1.265732
    28 -0.000005 0.000007 3.713254 -3.286041 -0.168351 1.247985
    29 18.045723 0.000000 0.000000 0.000000 0.000000 -1.740628
    30 17.597597 0.000000 0.000000 -0.247984 0.195438 -0.157998
    31 0.000005 -0.000003 -3.713254 0.827547 2.322085 5.512058
    32 18.045721 0.000000 0.000000 0.000000 0.000000 -2.672744
    33 17.597597 0.000000 0.000000 0.374936 0.040501 0.770474
  time 8
    0 -0.846717 1.761924 -20.600716 0.000000 0.000000 -1.585458
    1 -0.746121 0.093753 0.000000 -1.570795 -1.570787 0.000000
    2 1.293670 0.684478 -0.000001 -0.264853 -0.089130 0.087031
    3 5.309685 -0.003834 0.000000 -0.111700 0.073334 -0.007743
    4 4.826790 -0.004591 0.000000 -0.098729 0.057514 0.162506
    5 5.792767 -0.005304 0.000000 -0.184338 0.113674 0.135460
    6 6.662322 -0.001452 0.000000 0.012907 0.015846 0.680680
    7 -2.799584 2.180906 4.269311 1.301873 -1.398286 -5.124484
    8 4.827512 0.000000 -0.000002 -1.524750 -0.827247 -1.336870
    9 11.140032 0.000000 0.000000 0.000000 0.000000 -0.814855
    10 10.314563 -0.000001 0.000001 -2.572106 0.410940 0.927982
    11 1.646836 0.445664 -1.699647 0.034758 -0.065773 1.631422
    12 0.928312 0.000000 0.000000 0.000000 0.000000 -1.300235
    13 0.928313 0.000000 -0.000001 0.000000 0.000000 0.000000
    14 2.979373 -0.388274 -0.044205 -0.018435 -0.039524 0.418816
    15 1.435262 -0.000001 -0.000001 0.000000 0.000000 1.238742
    16 1.482593 -0.000001 0.000001 0.000000 0.000000 1.221017
    17 -2.455824 1.903589 -4.202898 -2.267804 1.144356 0.152717
    18 4.972047 0.000000 0.000000 0.786735 0.053221 -1.455550
    19 11.585358 0.000000 0.000001 0.000000 0.000000 -1.974592
    20 10.127058 0.000000 0.000001 2.383611 0.487762 1.071464
    21 1.537458 0.109715 1.664489 -0.233165 -0.412999 0.435664
    22 0.928313 0.000000 0.000002 0.000000 0.000000 0.000000
    23 0.928311 0.000000 0.000001 0.000000 0.000000 0.000000
    24 2.686395 -0.427337 0.044204 0.001045 0.043611 0.000046
    25 1.435260 0.000000 0.000001 0.000000 0.000000 0.767749
    26 1.482593 0.000000 -0.000001 0.000000 0.000000 1.221638
    27 2.046984 0.000001 0.000000 0.834990 0.548056 -1.251133
    28 -0.000005 0.000007 3.713254 -3.286041 -0.168255 1.247985
    29 18.045723 0.000000 0.000000 0.000000 0.000000 -1.740628
    30 17.597597 0.000000 0.000000 -0.248035 0.195438 -0.158044
    31 0.000005 -0.000003 -3.713254 0.827547 2.321989 5.511962
    32 18.045721 0.000000 0.000000 0.000000 0.000000 -2.672744
    33 17.597597 0.000000 0.000000 0.374902 0.040442 0.770381
  time 9
    0 -0.846717 1.761924 -20.600716 0.000000 0.000000 -1.585458
    1 -0.757840 0.101566 0.000000 -1.570795 -1.570787 0.000000
    2 1.293670 0.684478 -0.000001 -0.264853 -0.089130 0.087031
    3 5.309685 -0.003834 0.000000 -0.111700 0.073418 -0.007496
    4 4.826790 -0.004591 0.000000 -0.098958 0.057898 0.165174
    5 5.792767 -0.005304 0.000000 -0.184266 0.114381 0.137640
    6 6.662322 -0.001452 0.000000 0.012907 0.015846 0.680680
    7 -2.799584 2.180906 4.269311 1.301873 -1.398286 -5.124484
    8 4.827512 0.000000 -0.000002 -1.526344 -0.831510 -1.334704
    9 11.140032 0.000000 0.000000 0.000000 0.000000 -0.816304
    10 10.314563 -0.000001 0.000001 -2.572011 0.410940 0.928911
    11 1.646836 0.445664 -1.699647 0.034758 -0.065773 1.631422
    12 0.928312 0.000000 0.000000 0.000000 0.000000 -1.300235
    13 0.928313 0.000000 -0.000001 0.000000 0.000000 0.000000
    14 2.979373 -0.388274 -0.044205 -0.018435 -0.039524 0.418816
    15 1.435262 -0.000001 -0.000001 0.000000 0.000000 1.238742
    16 1.482593 -0.000001 0.000001 0.000000 0.000000 1.221017
    17 -2.455824 1.903589 -4.198992 -2.274014 1.141937 0.145916
    18 4.972047 0.000000 0.000000 0.788423 0.056515 -1.454685
    19 11.585358 0.000000 0.000001 0.000000 0.000000 -1.974756
    20 10.127058 0.000000 0.000001 2.383751 0.488235 1.070463
    21 1.537458 0.109715 1.664489 -0.233165 -0.412999 0.435664
    22 0.928313 0.000000 0.000002 0.000000 0.000000 0.000000
    23 0.928311 0.000000 0.000001 0.000000 0.000000 0.000000
    24 2.686395 -0.427337 0.044204 0.001045 0.043611 0.000046
    25 1.435260 0.000000 0.000001 0.000000 0.000000 0.767749
    26 1.482593 0.000000 -0.000001 0.000000 0.000000 1.221638
    27 2.046984 0.000001 0.000000 0.837963 0.543129 -1.246328
    28 -0.000005 0.000007 3.713254 -3.286328 -0.168063 1.248081
    29 18.045723 0.000000 0.000000 0.000000 0.000000 -1.739962
    30 17.597597 0.000000 0.000000 -0.248339 0.195586 -0.158594
    31 0.000005 -0.000003 -3.713254 0.827068 2.321127 5.510524
    32 18.045721 0.000000 0.000000 0.000000 0.000000 -2.672902
    33 17.597597 0.000000 0.000000 0.375271 0.039870 0.769180
  time 10
    0 -0.846717 1.761924 -20.600716 0.000000 0.000000 -1.585458
    1 -0.777371 0.113285 0.000000 -1.570795 -1.570787 0.000000
    2 1.293670 0.684478 -0.000001 -0.264853 -0.089130 0.087031
    3 5.309685 -0.003834 0.000000 -0.111632 0.073022 -0.008750
    4 4.826790 -0.004591 0.000000 -0.099377 0.058617 0.170532
    5 5.792767 -0.005304 0.000000 -0.184248 0.116454 0.150347
    6 6.662322 -0.001452 0.000000 0.012907 0.015846 0.680680
    7 -2.799584 2.180906 4.269311 1.301873 -1.398286 -5.124484
    8 4.827512 0.000000 -0.000002 -1.527699 -0.848480 -1.331584
    9 11.140032 0.000000 0.000000 0.000000 0.000000 -0.816956
    10 10.314563 -0.000001 0.000001 -2.571822 0.411034 0.929898
    11 1.646836 0.445664 -1.699647 0.034758 -0.065773 1.631422
    12 0.928312 0.000000 0.000000 0.000000 0.000000 -1.300235
    13 0.928313 0.000000 -0.000001 0.000000 0.000000 0.000000
    14 2.979373 -0.388274 -0.044205 -0.018435 -0.039524 0.418816
    15 1.435262 -0.000001 -0.000001 0.000000 0.000000 1.238742
    16 1.482593 -0.000001 0.000001 0.000000 0.000000 1.221017
    17 -2.455824 1.907495 -4.202898 -2.278026 1.140307 0.141415
    18 4.972047 0.000000 0.000000 0.787579 0.072103 -1.452888
    19 11.585358 0.000000 0.000001 0.000000 0.000000 -1.974837
    20 10.127058 0.000000 0.000001 2.383821 0.488613 1.069863
    21 1.537458 0.109715 1.664489 -0.233165 -0.412999 0.435664
    22 0.928313 0.000000 0.000002 0.000000 0.000000 0.000000
    23 0.928311 0.000000 0.000001 0.000000 0.000000 0.000000
    24 2.686395 -0.427337 0.044204 0.001045 0.043611 0.000046
    25 1.435260 0.000000 0.000001 0.000000 0.000000 0.767749
    26 1.482593 0.000000 -0.000001 0.000000 0.000000 1.221638
    27 2.046984 0.000001 0.000000 0.842486 0.539618 -1.252350
    28 -0.000005 0.000007 3.713254 -3.286808 -0.167584 1.248368
    29 18.045723 0.000000 0.000000 0.000000 0.000000 -1.738778
    30 17.597597 0.000000 0.000000 -0.248921 0.195881 -0.159557
    31 0.000005 -0.000003 -3.713254 0.826397 2.319497 5.507648
    32 18.045721 0.000000 0.000000 0.000000 0.000000 -2.672981
    33 17.597597 0.000000 0.000000 0.375942 0.038746 0.766871
  time 11
    0 -0.846717 1.761924 -20.600716 0.000000 0.000000 -1.585458
    1 -0.808622 0.132817 0.000000 -1.570795 -1.570787 0.000000
    2 1.293670 0.684478 -0.000001 -0.264853 -0.089130 0.087031
    3 5.309685 -0.003834 0.000000 -0.111377 0.072147 -0.011735
    4 4.826790 -0.004591 0.000000 -0.100274 0.059983 0.180674
    5 5.792767 -0.005304 0.000000 -0.184194 0.119510 0.169843
    6 6.662322 -0.001452 0.000000 0.012907 0.015846 0.680680
    7 -2.799584 2.180906 4.269311 1.301873 -1.398286 -5.124484
    8 4.827512 0.000000 -0.000002 -1.528656 -0.876450 -1.327338
    9 11.140032 0.000000 0.000000 0.000000 0.000000 -0.816667
    10 10.314563 -0.000001 0.000001 -2.571727 0.411127 0.931176
    11 1.646836 0.445664 -1.699647 0.034758 -0.065773 1.631422
    12 0.928312 0.000000 0.000000 0.000000 0.000000 -1.300235
    13 0.928313 0.000000 -0.000001 0.000000 0.000000 0.000000
    14 2.979373 -0.388274 -0.044205 -0.018435 -0.039524 0.418816
    15 1.435262 -0.000001 -0.000001 0.000000 0.000000 1.238742
    16 1.482593 -0.000001 0.000001 0.000000 0.000000 1.221017
    17 -2.455824 1.907495 -4.202898 -2.279746 1.139703 0.139691
    18 4.972047 0.000000 0.000000 0.784484 0.097976 -1.450225
    19 11.585358 0.000000 0.000001 0.000000 0.000000 -1.974837
    20 10.127058 0.000000 0.000001 2.383821 0.488897 1.069613
    21 1.537458 0.109715 1.664489 -0.233165 -0.412999 0.435664
    22 0.928313 0.000000 0.000002 0.000000 0.000000 0.000000
    23 0.928311 0.000000 0.000001 0.000000 0.000000 0.000000
    24 2.686395 -0.427337 0.044204 0.001045 0.043611 0.000046
    25 1.435260 0.000000 0.000001 0.000000 0.000000 0.767749
    26 1.482593 0.000000 -0.000001 0.000000 0.000000 1.221638
    27 2.046984 0.000001 0.000000 0.848475 0.537435 -1.267192
    28 -0.000005 0.000007 3.713254 -3.287575 -0.166817 1.248752
    29 18.045723 0.000000 0.000000 0.000000 0.000000 -1.736927
    30 17.597597 0.000000 0.000000 -0.249732 0.196373 -0.161161
    31 0.000005 -0.000003 -3.713254 0.825055 2.317004 5.503430
    32 18.045721 0.000000 0.000000 0.000000 0.000000 -2.673217
    33 17.597597 0.000000 0.000000 0.377083 0.037089 0.763407
  time 12
    0 -0.846717 1.761924 -20.600716 0.000000 0.000000 -1.585458
    1 -0.820342 0.144536 0.000000 -1.570795 -1.570787 0.000000
    2 1.293670 0.684478 -0.000001 -0.264853 -0.089130 0.087031
    3 5.309685 -0.003834 0.000000 -0.110594 0.069499 -0.020920
    4 4.826790 -0.004591 0.000000 -0.101533 0.061996 0.195667
    5 5.792767 -0.005304 0.000000 -0.184104 0.123082 0.192869
    6 6.662322 -0.001452 0.000000 0.012907 0.015846 0.680680
    7 -2.799584 2.180906 4.269311 1.301873 -1.398286 -5.124484
    8 4.827512 0.000000 -0.000002 -1.529054 -0.907489 -1.323959
    9 11.140032 0.000000 0.000000 0.000000 0.000000 -0.814566
    10 10.314563 -0.000001 0.000001 -2.571632 0.411315 0.931408
    11 1.646836 0.445664 -1.699647 0.034758 -0.065773 1.631422
    12 0.928312 0.000000 0.000000 0.000000 0.000000 -1.300235
    13 0.928313 0.000000 -0.000001 0.000000 0.000000 0.000000
    14 2.979373 -0.388274 -0.044205 -0.018435 -0.039524 0.418816
    15 1.435262 -0.000001 -0.000001 0.000000 0.000000 1.238742
    16 1.482593 -0.000001 0.000001 0.000000 0.000000 1.221017
    17 -2.455824 1.903589 -4.202898 -2.278695 1.140123 0.140648
    18 4.972047 0.000000 0.000000 0.780169 0.126580 -1.447497
    19 11.585358 0.000000 0.000001 0.000000 0.000000 -1.974837
    20 10.127058 0.000000 0.000001 2.383821 0.488707 1.069763
    21 1.537458 0.109715 1.664489 -0.233165 -0.412999 0.435664
    22 0.928313 0.000000 0.000002 0.000000 0.000000 0.000000
    23 0.928311 0.000000 0.000001 0.000000 0.000000 0.000000
    24 2.686395 -0.427337 0.044204 0.001045 0.043611 0.000046
    25 1.435260 0.000000 0.000001 0.000000 0.000000 0.767749
    26 1.482593 0.000000 -0.000001 0.000000 0.000000 1.221638
    27 2.046984 0.000001 0.000000 0.854205 0.535635 -1.284224
    28 -0.000005 0.000007 3.713254 -3.287958 -0.166529 1.248944
    29 18.045723 0.000000 0.000000 0.000000 0.000000 -1.735965
    30 17.597597 0.000000 0.000000 -0.250163 0.196595 -0.161941
    31 0.000005 -0.000003 -3.713254 0.824480 2.315950 5.501225
    32 18.045721 0.000000 0.000000 0.000000 0.000000 -2.673217
    33 17.597597 0.000000 0.000000 0.377653 0.036280 0.761652
  time 13
    0 -0.846717 1.761924 -20.600716 0.000000 0.000000 -1.585458
    1 -0.820342 0.136723 0.000000 -1.570795 -1.570787 0.000000
    2 1.293670 0.684478 -0.000001 -0.264853 -0.089130 0.087031
    3 5.309685 -0.003834 0.000000 -0.109403 0.065556 -0.034521
    4 4.826790 -0.004591 0.000000 -0.102868 0.064285 0.212247
    5 5.792767 -0.005304 0.000000 -0.183943 0.126629 0.216331
    6 6.662322 -0.001452 0.000000 0.010055 0.012905 0.638670
    7 -2.869899 2.055902 4.288843 1.325548 -1.399025 -5.105800
    8 4.827512 0.000000 -0.000002 -1.528496 -0.936397 -1.321966
    9 11.140032 0.000000 0.000000 0.000000 0.000000 -0.811522
    10 10.314563 -0.000001 0.000001 -2.571727 0.411408 0.930711
    11 1.646836 0.445664 -1.699647 0.034758 -0.065773 1.631422
    12 0.928312 0.000000 0.000000 0.000000 0.000000 -1.300235
    13 0.928313 0.000000 -0.000001 0.000000 0.000000 0.000000
    14 2.979373 -0.388274 -0.044205 -0.018435 -0.039524 0.418816
    15 1.435262 -0.000001 -0.000001 0.000000 0.000000 1.238742
    16 1.482593 -0.000001 0.000001 0.000000 0.000000 1.221017
    17 -2.549577 1.809836 -4.183366 -2.267995 1.144619 0.192944
    18 4.972047 0.000000 0.000000 0.775104 0.153658 -1.445034
    19 11.585358 0.000000 0.000001 0.000000 0.000000 -1.974756
    20 10.127058 0.000000 0.000001 2.383751 0.488424 1.070363
    21 1.537458 0.109715 1.664489 -0.233165 -0.412999 0.435664
    22 0.928313 0.000000 0.000002 0.000000 0.000000 0.000000
    23 0.928311 0.000000 0.000001 0.000000 0.000000 0.000000
    24 2.686395 -0.427337 0.044204 0.001045 0.043611 0.000046
    25 1.435260 0.000000 0.000001 0.000000 0.000000 0.767749
    26 1.482593 0.000000 -0.000001 0.000000 0.000000 1.221638
    27 2.046984 0.000001 0.000000 0.854851 0.542539 -1.267861
    28 -0.000005 0.000007 3.713254 -3.287958 -0.166529 1.248848
    29 18.045723 0.000000 0.000000 0.000000 0.000000 -1.736187
    30 17.597597 0.000000 0.000000 -0.250087 0.196521 -0.161757
    31 0.000005 -0.000003 -3.713254 0.824768 2.316141 5.501704
    32 18.045721 0.000000 0.000000 0.000000 0.000000 -2.673217
    33 17.597597 0.000000 0.000000 0.377519 0.036379 0.762021
  time 14
    0 -0.846717 1.761924 -20.600716 0.000000 0.000000 -1.585458
    1 -0.828154 0.144536 0.000000 -1.570795 -1.570787 0.000000
    2 1.293670 0.684478 -0.000001 -0.264853 -0.089130 0.087031
    3 5.309685 -0.003834 0.000000 -0.108603 0.062955 -0.043442
    4 4.826790 -0.004591 0.000000 -0.104051 0.066383 0.227262
    5 5.792767 -0.005304 0.000000 -0.183727 0.129745 0.236886
    6 6.662322 -0.001452 0.000000 0.007359 0.009840 0.596774
    7 -2.940214 1.919179 4.300562 1.349128 -1.399794 -5.087211
    8 4.827512 0.000000 -0.000002 -1.527620 -0.965816 -1.319886
    9 11.140032 0.000000 0.000000 0.000000 0.000000 -0.809059
    10 10.314563 -0.000001 0.000001 -2.571822 0.411502 0.931001
    11 1.646836 0.445664 -1.699647 0.034758 -0.065773 1.631422
    12 0.928312 0.000000 0.000000 0.000000 0.000000 -1.300235
    13 0.928313 0.000000 -0.000001 0.000000 0.000000 0.000000
    14 2.979373 -0.388274 -0.044205 -0.018435 -0.039524 0.418816
    15 1.435262 -0.000001 -0.000001 0.000000 0.000000 1.238742
    16 1.482593 -0.000001 0.000001 0.000000 0.000000 1.221017
    17 -2.639423 1.712177 -4.167741 -2.253665 1.150166 -6.033632
    18 4.972047 0.000000 0.000000 0.768632 0.181860 -1.443903
    19 11.585358 0.000000 0.000001 0.000000 0.000000 -1.974592
    20 10.127058 0.000000 0.000001 2.383611 0.487762 1.071464
    21 1.537458 0.109715 1.664489 -0.233165 -0.412999 0.435664
    22 0.928313 0.000000 0.000002 0.000000 0.000000 0.000000
    23 0.928311 0.000000 0.000001 0.000000 0.000000 0.000000
    24 2.686395 -0.427337 0.044204 0.001045 0.043611 0.000046
    25 1.435260 0.000000 0.000001 0.000000 0.000000 0.767749
    26 1.482593 0.000000 -0.000001 0.000000 0.000000 1.221638
    27 2.046984 0.000001 0.000000 0.856058 0.549738 -1.251376
    28 -0.000005 0.000007 3.713254 -3.288150 -0.166242 1.249039
    29 18.045723 0.000000 0.000000 0.000000 0.000000 -1.735299
    30 17.597597 0.000000 0.000000 -0.250442 0.196718 -0.162491
    31 0.000005 -0.000003 -3.713254 0.824193 2.314991 5.499883
    32 18.045721 0.000000 0.000000 0.000000 0.000000 -2.673453
    33 17.597597 0.000000 0.000000 0.377989 0.035629 0.760451
  time 15
    0 -0.846717 1.761924 -20.600716 0.000000 0.000000 -1.585458
    1 -0.859405 0.167974 0.000000 -1.570795 -1.570787 0.000000
    2 1.293670 0.684478 -0.000001 -0.264853 -0.089130 0.087031
    3 5.309685 -0.003834 0.000000 -0.108365 0.062284 -0.045879
    4 4.826790 -0.004591 0.000000 -0.104833 0.067797 0.237404
    5 5.792767 -0.005304 0.000000 -0.183511 0.131950 0.251337
    6 6.662322 -0.001452 0.000000 0.004770 0.006624 0.554821
    7 -3.006622 1.790269 4.312281 1.372612 -1.400681 -5.068527
    8 4.827512 0.000000 -0.000002 -1.525069 -0.991398 -1.319280
    9 11.140032 0.000000 0.000000 0.000000 0.000000 -0.808190
    10 10.314563 -0.000001 0.000001 -2.572106 0.411689 0.932743
    11 1.646836 0.445664 -1.699647 0.034758 -0.065773 1.631422
    12 0.928312 0.000000 0.000000 0.000000 0.000000 -1.300235
    13 0.928313 0.000000 -0.000001 0.000000 0.000000 0.000000
    14 2.979373 -0.388274 -0.044205 -0.018435 -0.039524 0.418816
    15 1.435262 -0.000001 -0.000001 0.000000 0.000000 1.238742
    16 1.482593 -0.000001 0.000001 0.000000 0.000000 1.221017
    17 -2.725363 1.606705 -4.163834 -2.229305 1.158711 -5.966490
    18 4.972047 0.000000 0.000000 0.758220 0.208536 -1.445567
    19 11.585358 0.000000 0.000001 0.000000 0.000000 -1.974347
    20 10.127058 0.000000 0.000001 2.383400 0.486249 1.073865
    21 1.537458 0.109715 1.664489 -0.233165 -0.412999 0.435664
    22 0.928313 0.000000 0.000002 0.000000 0.000000 0.000000
    23 0.928311 0.000000 0.000001 0.000000 0.000000 0.000000
    24 2.686395 -0.427337 0.044204 0.001045 0.043611 0.000046
    25 1.435260 0.000000 0.000001 0.000000 0.000000 0.767749
    26 1.482593 0.000000 -0.000001 0.000000 0.000000 1.221638
    27 2.046984 0.000001 0.000000 0.857178 0.556435 -1.230695
    28 -0.000005 0.000007 3.713254 -3.288917 -0.165667 1.249423
    29 18.045723 0.000000 0.000000 0.000000 0.000000 -1.733671
    30 17.597597 0.000000 0.000000 -0.251227 0.197161 -0.163820
    31 0.000005 -0.000003 -3.713254 0.823042 2.312882 5.495952
    32 18.045721 0.000000 0.000000 0.000000 0.000000 -2.673532
    33 17.597597 0.000000 0.000000 0.379029 0.034150 0.757356
  time 16
    0 -0.846717 1.761924 -20.600716 0.000000 0.000000 -1.585458
    1 -0.871124 0.175787 0.000000 -1.570795 -1.570787 0.000000
    2 1.293670 0.684478 -0.000001 -0.264853 -0.089130 0.087031
    3 5.309685 -0.003834 0.000000 -0.108297 0.062056 -0.046586
    4 4.826790 -0.004591 0.000000 -0.105157 0.068372 0.241703
    5 5.792767 -0.005304 0.000000 -0.183421 0.133005 0.257981
    6 6.662322 -0.001452 0.000000 0.002289 0.003353 0.512868
    7 -3.057405 1.653546 4.331813 1.396288 -1.401598 -5.049842
    8 4.827512 0.000000 -0.000002 -1.520046 -1.004957 -1.322659
    9 11.140032 0.000000 0.000000 0.000000 0.000000 -0.808335
    10 10.314563 -0.000001 0.000001 -2.572770 0.411783 0.934485
    11 1.646836 0.445664 -1.699647 0.034758 -0.065773 1.631422
    12 0.928312 0.000000 0.000000 0.000000 0.000000 -1.300235
    13 0.928313 0.000000 -0.000001 0.000000 0.000000 0.000000
    14 2.979373 -0.388274 -0.044205 -0.018435 -0.039524 0.418816
    15 1.435262 -0.000001 -0.000001 0.000000 0.000000 1.238742
    16 1.482593 -0.000001 0.000001 0.000000 0.000000 1.221017
    17 -2.799584 1.505139 -4.148209 -2.193194 1.170042 -5.886801
    18 4.972047 0.000000 0.000000 0.745088 0.225651 -1.449826
    19 11.585358 0.000000 0.000001 0.000000 0.000000 -1.973857
    20 10.127058 0.000000 0.000001 2.382909 0.483979 1.077716
    21 1.537458 0.109715 1.664489 -0.233165 -0.412999 0.435664
    22 0.928313 0.000000 0.000002 0.000000 0.000000 0.000000
    23 0.928311 0.000000 0.000001 0.000000 0.000000 0.000000
    24 2.686395 -0.427337 0.044204 0.001045 0.043611 0.000046
    25 1.435260 0.000000 0.000001 0.000000 0.000000 0.767749
    26 1.482593 0.000000 -0.000001 0.000000 0.000000 1.221638
    27 2.046984 0.000001 0.000000 0.856531 0.561539 -1.199368
    28 -0.000005 0.000007 3.713254 -3.289204 -0.165283 1.249519
    29 18.045723 0.000000 0.000000 0.000000 0.000000 -1.732857
    30 17.597597 0.000000 0.000000 -0.251607 0.197358 -0.164554
    31 0.000005 -0.000003 -3.713254 0.822467 2.311827 5.494035
    32 18.045721 0.000000 0.000000 0.000000 0.000000 -2.673768
    33 17.597597 0.000000 0.000000 0.379532 0.033381 0.755786
  time 17
    0 -0.846717 1.761924 -20.600716 0.000000 0.000000 -1.585458
    1 -0.875031 0.179693 0.000000 -1.570795 -1.570787 0.000000
    2 1.293670 0.684478 -0.000001 -0.264853 -0.089130 0.087031
    3 5.309685 -0.003834 0.000000 -0.108365 0.062224 -0.046073
    4 4.826790 -0.004591 0.000000 -0.105176 0.068480 0.242233
    5 5.792767 -0.005304 0.000000 -0.183403 0.133125 0.258791
    6 6.662322 -0.001452 0.000000 0.000000 -0.000001 0.471000
    7 -3.108188 1.516823 4.339626 1.420155 -1.402633 -5.031253
    8 4.827512 0.000000 -0.000002 -1.514307 -1.009647 -1.327945
    9 11.140032 0.000000 0.000000 0.000000 0.000000 -0.808769
    10 10.314563 -0.000001 0.000001 -2.573528 0.411877 0.935995
    11 1.646836 0.445664 -1.699647 0.034758 -0.065773 1.631422
    12 0.928312 0.000000 0.000000 0.000000 0.000000 -1.300235
    13 0.928313 0.000000 -0.000001 0.000000 0.000000 0.000000
    14 2.979373 -0.388274 -0.044205 -0.018435 -0.039524 0.418816
    15 1.435262 -0.000001 -0.000001 0.000000 0.000000 1.238742
    16 1.482593 -0.000001 0.000001 0.000000 0.000000 1.221017
    17 -2.869899 1.399667 -4.140396 -2.153070 1.181110 -5.802706
    18 4.972047 0.000000 0.000000 0.732519 0.234971 -1.455017
    19 11.585358 0.000000 0.000001 0.000000 0.000000 -1.973449
    20 10.127058 0.000000 0.000001 2.382489 0.481521 1.081768
    21 1.537458 0.109715 1.664489 -0.233165 -0.412999 0.435664
    22 0.928313 0.000000 0.000002 0.000000 0.000000 0.000000
    23 0.928311 0.000000 0.000001 0.000000 0.000000 0.000000
    24 2.686395 -0.427337 0.044204 0.001045 0.043611 0.000046
    25 1.435260 0.000000 0.000001 0.000000 0.000000 0.767749
    26 1.482593 0.000000 -0.000001 0.000000 0.000000 1.221638
    27 2.046984 0.000001 0.000000 0.854851 0.565581 -1.160316
    28 -0.000005 0.000007 3.713254 -3.289300 -0.165187 1.249615
    29 18.045723 0.000000 0.000000 0.000000 0.000000 -1.732561
    30 17.597597 0.000000 0.000000 -0.251734 0.197431 -0.164783
    31 0.000005 -0.000003 -3.713254 0.822467 2.311348 5.493363
    32 18.045721 0.000000 0.000000 0.000000 0.000000 -2.673768
    33 17.597597 0.000000 0.000000 0.379667 0.033144 0.755232
  time 18
    0 -0.846717 1.761924 -20.600716 0.000000 0.000000 -1.585458
    1 -0.871124 0.175787 0.000000 -1.570795 -1.570787 0.000000
    2 1.293670 0.684478 -0.000001 -0.264853 -0.089130 0.087031
    3 5.309685 -0.003834 0.000000 -0.108450 0.062536 -0.045014
    4 4.826790 -0.004591 0.000000 -0.105023 0.068228 0.240601
    5 5.792767 -0.005304 0.000000 -0.183439 0.132717 0.256320
    6 6.662322 -0.001452 0.000000 0.000000 -0.000001 0.471000
    7 -3.108188 1.516823 4.339626 1.420155 -1.402633 -5.031253
    8 4.827512 0.000000 -0.000002 -1.509683 -1.008283 -1.332537
    9 11.140032 0.000000 0.000000 0.000000 0.000000 -0.809349
    10 10.314563 -0.000001 0.000001 -2.574096 0.411970 0.937040
    11 1.646836 0.445664 -1.699647 0.034758 -0.065773 1.631422
    12 0.928312 0.000000 0.000000 0.000000 0.000000 -1.300235
    13 0.928313 0.000000 -0.000001 0.000000 0.000000 0.000000
    14 2.979373 -0.388274 -0.044205 -0.018435 -0.039524 0.418816
    15 1.435262 -0.000001 -0.000001 0.000000 0.000000 1.238742
    16 1.482593 -0.000001 0.000001 0.000000 0.000000 1.221017
    17 -2.869899 1.399667 -4.140396 -2.128041 1.187630 -5.775983
    18 4.972047 0.000000 0.000000 0.723421 0.237703 -1.459277
    19 11.585358 0.000000 0.000001 0.000000 0.000000 -1.973040
    20 10.127058 0.000000 0.000001 2.382138 0.479724 1.084869
    21 1.537458 0.109715 1.664489 -0.233165 -0.412999 0.435664
    22 0.928313 0.000000 0.000002 0.000000 0.000000 0.000000
    23 0.928311 0.000000 0.000001 0.000000 0.000000 0.000000
    24 2.686395 -0.427337 0.044204 0.001045 0.043611 0.000046
    25 1.435260 0.000000 0.000001 0.000000 0.000000 0.767749
    26 1.482593 0.000000 -0.000001 0.000000 0.000000 1.221638
    27 2.046984 0.000001 0.000000 0.854550 0.565227 -1.157518
    28 -0.000005 0.000007 3.713254 -3.289300 -0.165187 1.249615
    29 18.045723 0.000000 0.000000 0.000000 0.000000 -1.732635
    30 17.597597 0.000000 0.000000 -0.251684 0.197382 -0.164737
    31 0.000005 -0.000003 -3.713254 0.822467 2.311444 5.493555
    32 18.045721 0.000000 0.000000 0.000000 0.000000 -2.673768
    33 17.597597 0.000000 0.000000 0.379599 0.033144 0.755370
  time 19
    0 -0.846717 1.761924 -20.600716 0.000000 0.000000 -1.585458
    1 -0.871124 0.175787 0.000000 -1.570795 -1.570787 0.000000
    2 1.293670 0.684478 -0.000001 -0.264853 -0.089130 0.087031
    3 5.309685 -0.003834 0.000000 -0.108535 0.062823 -0.043918
    4 4.826790 -0.004591 0.000000 -0.104909 0.067953 0.238462
    5 5.792767 -0.005304 0.000000 -0.183493 0.132238 0.252998
    6 6.662322 -0.001452 0.000000 0.000000 -0.000001 0.471000
    7 -3.108188 1.516823 4.339626 1.420155 -1.402633 -5.031253
    8 4.827512 0.000000 -0.000002 -1.508886 -1.003934 -1.334010
    9 11.140032 0.000000 0.000000 0.000000 0.000000 -0.809639
    10 10.314563 -0.000001 0.000001 -2.574191 0.411970 0.937040
    11 1.646836 0.445664 -1.699647 0.034758 -0.065773 1.631422
    12 0.928312 0.000000 0.000000 0.000000 0.000000 -1.300235
    13 0.928313 0.000000 -0.000001 0.000000 0.000000 0.000000
    14 2.979373 -0.388274 -0.044205 -0.018435 -0.039524 0.418816
    15 1.435262 -0.000001 -0.000001 0.000000 0.000000 1.238742
    16 1.482593 -0.000001 0.000001 0.000000 0.000000 1.221017
    17 -2.869899 1.399667 -4.140396 -2.123646 1.188734 -5.770907
    18 4.972047 0.000000 0.000000 0.722201 0.234409 -1.460009
    19 11.585358 0.000000 0.000001 0.000000 0.000000 -1.972877
    20 10.127058 0.000000 0.000001 2.382068 0.479346 1.085420
    21 1.537458 0.109715 1.664489 -0.233165 -0.412999 0.435664
    22 0.928313 0.000000 0.000002 0.000000 0.000000 0.000000
    23 0.928311 0.000000 0.000001 0.000000 0.000000 0.000000
    24 2.686395 -0.427337 0.044204 0.001045 0.043611 0.000046
    25 1.435260 0.000000 0.000001 0.000000 0.000000 0.767749
    26 1.482593 0.000000 -0.000001 0.000000 0.000000 1.221638
    27 2.046984 0.000001 0.000000 0.853990 0.564637 -1.153503
    28 -0.000005 0.000007 3.713254 -3.289204 -0.165283 1.249519
    29 18.045723 0.000000 0.000000 0.000000 0.000000 -1.732783
    30 17.597597 0.000000 0.000000 -0.251607 0.197308 -0.164554
    31 0.000005 -0.000003 -3.713254 0.822659 2.311636 5.494130
    32 18.045721 0.000000 0.000000 0.000000 0.000000 -2.673768
    33 17.597597 0.000000 0.000000 0.379432 0.033282 0.755740
  time 20
    0 -0.846717 1.761924 -20.600716 0.000000 0.000000 -1.585458
    1 -0.871124 0.175787 0.000000 -1.570795 -1.570787 0.000000
    2 1.293670 0.684478 -0.000001 -0.264853 -0.089130 0.087031
    3 5.309685 -0.003834 0.000000 -0.108603 0.062955 -0.043442
    4 4.826790 -0.004591 0.000000 -0.104833 0.067797 0.237404
    5 5.792767 -0.005304 0.000000 -0.183511 0.131950 0.251337
    6 6.662322 -0.001452 0.000000 0.000000 -0.000001 0.471000
    7 -3.108188 1.516823 4.339626 1.420155 -1.402633 -5.031253
    8 4.827512 0.000000 -0.000002 -1.509604 -1.001205 -1.333491
    9 11.140032 0.000000 0.000000 0.000000 0.000000 -0.809711
    10 10.314563 -0.000001 0.000001 -2.574096 0.411970 0.936808
    11 1.646836 0.445664 -1.699647 0.034758 -0.065773 1.631422
    12 0.928312 0.000000 0.000000 0.000000 0.000000 -1.300235
    13 0.928313 0.000000 -0.000001 0.000000 0.000000 0.000000
    14 2.979373 -0.388274 -0.044205 -0.018435 -0.039524 0.418816
    15 1.435262 -0.000001 -0.000001 0.000000 0.000000 1.238742
    16 1.482593 -0.000001 0.000001 0.000000 0.000000 1.221017
    17 -2.869899 1.399667 -4.140396 -2.128041 1.187630 -5.775983
    18 4.972047 0.000000 0.000000 0.724359 0.231195 -1.459344
    19 11.585358 0.000000 0.000001 0.000000 0.000000 -1.973040
    20 10.127058 0.000000 0.000001 2.382138 0.479724 1.084869
    21 1.537458 0.109715 1.664489 -0.233165 -0.412999 0.435664
    22 0.928313 0.000000 0.000002 0.000000 0.000000 0.000000
    23 0.928311 0.000000 0.000001 0.000000 0.000000 0.000000
    24 2.686395 -0.427337 0.044204 0.001045 0.043611 0.000046
    25 1.435260 0.000000 0.000001 0.000000 0.000000 0.767749
    26 1.482593 0.000000 -0.000001 0.000000 0.000000 1.221638
    27 2.046984 0.000001 0.000000 0.853688 0.564342 -1.151496
    28 -0.000005 0.000007 3.713254 -3.289300 -0.165475 1.249615
    29 18.045723 0.000000 0.000000 0.000000 0.000000 -1.732931
    30 17.597597 0.000000 0.000000 -0.251405 0.197505 -0.164508
    31 0.000005 -0.000003 -3.713254 0.821892 2.312307 5.493555
    32 18.045721 0.000000 0.000000 0.000000 0.000000 -2.673768
    33 17.597597 0.000000 0.000000 0.379969 0.033854 0.755924
end
