version 1
nodes
  0 "Bip01" -1
  1 "Bip01 Pelvis" 0
  2 "Bip01 Spine" 1
  3 "Bip01 Spine1" 2
  4 "Bip01 Spine2" 3
  5 "Bip01 Spine3" 4
  6 "Bip01 Neck" 5
  7 "Bip01 L Arm" 6
  8 "Bip01 L Arm1" 7
  9 "Bip01 L Arm2" 8
  10 "Bip01 L Hand" 9
  11 "Bip01 L Finger0" 10
  12 "Bip01 L Finger01" 11
  13 "Bip01 L Finger02" 12
  14 "Bip01 L Finger1" 10
  15 "Bip01 L Finger11" 14
  16 "Bip01 L Finger12" 15
  17 "Bip01 R Arm" 6
  18 "Bip01 R Arm1" 17
  19 "Bip01 R Arm2" 18
  20 "Bip01 R Hand" 19
  21 "Bip01 R Finger0" 20
  22 "Bip01 R Finger01" 21
  23 "Bip01 R Finger02" 22
  24 "Bip01 R Finger1" 20
  25 "Bip01 R Finger11" 24
  26 "Bip01 R Finger12" 25
  27 "Bip01 Head" 6
  28 "Bip01 L Leg" 1
  29 "Bip01 L Leg1" 28
  30 "Bip01 L Foot" 29
  31 "Bip01 R Leg" 1
  32 "Bip01 R Leg1" 31
  33 "Bip01 R Foot" 32
end
skeleton
  time 0
    0 0.250973 2.082246 -20.600716 0.000000 0.000000 -1.585458
    1 -0.546896 0.039064 0.000000 -1.570795 -1.570787 0.000000
    2 1.293670 0.684478 -0.000001 0.002860 0.017245 0.175993
    3 5.309685 -0.003834 0.000000 -0.015537 -0.047375 -0.018871
    4 4.826790 -0.004591 0.000000 -0.091538 0.031915 0.051669
    5 5.792767 -0.005304 0.000000 -0.164912 0.055093 -0.049703
    6 6.662322 -0.001452 0.000000 0.023729 -0.001527 0.337878
    7 -3.268349 1.204314 4.324000 -0.793284 -1.230097 -2.714943
    8 4.827512 0.000000 -0.000002 0.276773 0.893662 -0.022730
    9 11.140032 0.000000 0.000000 0.000000 0.000000 -1.681108
    10 10.314563 -0.000001 0.000001 -1.972551 0.013957 0.005995
    11 1.646836 0.445664 -1.699647 0.153911 0.442352 0.277231
    12 0.928312 0.000000 0.000000 0.000000 0.000000 0.000000
    13 0.928313 0.000000 -0.000001 0.000000 0.000000 0.000000
    14 2.979373 -0.388274 -0.044205 0.001088 -0.043611 -0.043599
    15 1.435262 -0.000001 -0.000001 0.000000 0.000000 1.334445
    16 1.482593 -0.000001 0.000001 0.000000 0.000000 0.793674
    17 -3.033967 0.915277 -4.156022 -2.239240 1.294632 -5.736905
    18 4.972047 0.000000 0.000000 -1.032957 -0.937809 -0.219617
    19 11.585358 0.000000 0.000001 0.000000 0.000000 -1.667884
    20 10.127058 0.000000 0.000001 3.106519 -0.477360 0.738520
    21 1.537458 0.109715 1.664489 -0.264662 -0.055995 0.783079
    22 0.928313 0.000000 0.000002 0.000000 0.000000 -0.453501
    23 0.928311 0.000000 0.000001 0.000000 0.000000 0.000000
    24 2.686395 -0.427337 0.044204 -0.005762 0.043239 -0.157074
    25 1.435260 0.000000 0.000001 0.000000 0.000000 0.732613
    26 1.482593 0.000000 -0.000001 0.000000 0.000000 1.168644
    27 2.046984 0.000001 0.000000 -0.234113 -0.103882 1.547960
    28 -0.000005 0.000007 3.713254 -3.293902 -0.161448 1.264185
    29 18.045723 0.000000 0.000000 0.000000 0.000000 -1.669796
    30 17.597597 0.000000 0.000000 -0.254040 0.198982 -0.213244
    31 0.000005 -0.000003 -3.713254 0.821892 2.312307 5.493555
    32 18.045721 0.000000 0.000000 0.000000 0.000000 -2.673768
    33 17.597597 0.000000 0.000000 0.379969 0.033854 0.755924
  time 1
    0 0.008778 1.988493 -20.600716 0.000000 0.000000 -1.585458
    1 -0.546896 0.039064 0.000000 -1.570795 -1.570787 0.000000
    2 1.293670 0.684478 -0.000001 0.002759 0.016550 0.175742
    3 5.309685 -0.003834 0.000000 -0.054999 -0.046069 -0.013413
    4 4.826790 -0.004591 0.000000 -0.116106 -0.009252 -0.027109
    5 5.792767 -0.005304 0.000000 -0.164570 -0.014501 -0.007451
    6 6.662322 -0.001452 0.000000 0.019954 -0.019518 0.333748
    7 -3.194128 1.173063 4.378689 -0.690817 -1.286781 -2.807982
    8 4.827512 0.000000 -0.000002 0.311929 0.802163 -0.037547
    9 11.140032 0.000000 0.000000 0.000000 0.000000 -1.803337
    10 10.314563 -0.000001 0.000001 -1.943076 -0.052644 0.042052
    11 1.646836 0.445664 -1.699647 0.207671 0.426892 0.375146
    12 0.928312 0.000000 0.000000 0.000000 0.000000 0.000000
    13 0.928313 0.000000 -0.000001 0.000000 0.000000 0.000000
    14 2.979373 -0.388274 -0.044205 -0.001237 -0.043611 0.010425
    15 1.435262 -0.000001 -0.000001 0.000000 0.000000 1.275728
    16 1.482593 -0.000001 0.000001 0.000000 0.000000 0.778929
    17 -3.112094 0.915277 -4.109145 3.657080 1.385334 0.172160
    18 4.972047 0.000000 0.000000 -0.759534 -1.009963 -0.509931
    19 11.585358 0.000000 0.000001 0.000000 0.000000 -1.694267
    20 10.127058 0.000000 0.000001 2.968585 -0.218443 0.699203
    21 1.537458 0.109715 1.664489 -0.264662 -0.055995 0.783079
    22 0.928313 0.000000 0.000002 0.000000 0.000000 -0.453501
    23 0.928311 0.000000 0.000001 0.000000 0.000000 0.000000
    24 2.686395 -0.427337 0.044204 -0.005762 0.043239 -0.157074
    25 1.435260 0.000000 0.000001 0.000000 0.000000 0.732613
    26 1.482593 0.000000 -0.000001 0.000000 0.000000 1.168644
    27 2.046984 0.000001 0.000000 -0.117832 -0.174395 1.438530
    28 -0.000005 0.000007 3.713254 -3.283068 -0.165667 1.261405
    29 18.045723 0.000000 0.000000 0.000000 0.000000 -1.675939
    30 17.597597 0.000000 0.000000 -0.247046 0.190270 -0.209026
    31 0.000005 -0.000003 -3.713254 0.857258 2.329850 5.533724
    32 18.045721 0.000000 0.000000 0.000000 0.000000 -2.669911
    33 17.597597 0.000000 0.000000 0.373761 0.025353 0.783406
  time 2
    0 -0.190447 1.890834 -20.600716 0.000000 0.000000 -1.585458
    1 -0.546896 0.039064 0.000000 -1.570795 -1.570787 0.000000
    2 1.293670 0.684478 -0.000001 0.002641 0.015939 0.175424
    3 5.309685 -0.003834 0.000000 -0.093832 -0.045517 -0.007849
    4 4.826790 -0.004591 0.000000 -0.135352 -0.051066 -0.106130
    5 5.792767 -0.005304 0.000000 -0.165631 -0.056627 0.031376
    6 6.662322 -0.001452 0.000000 0.016503 -0.037550 0.329618
    7 -3.119907 1.141812 4.441191 -0.540711 -1.339384 -2.947302
    8 4.827512 0.000000 -0.000002 0.341982 0.753386 -0.059990
    9 11.140032 0.000000 0.000000 0.000000 0.000000 -1.915205
    10 10.314563 -0.000001 0.000001 -1.916254 -0.115966 0.065742
    11 1.646836 0.445664 -1.699647 0.256458 0.406839 0.471720
    12 0.928312 0.000000 0.000000 0.000000 0.000000 0.000000
    13 0.928313 0.000000 -0.000001 0.000000 0.000000 0.000000
    14 2.979373 -0.388274 -0.044205 -0.003586 -0.043479 0.064536
    15 1.435262 -0.000001 -0.000001 0.000000 0.000000 1.217053
    16 1.482593 -0.000001 0.000001 0.000000 0.000000 0.764237
    17 -3.186315 0.915277 -4.046643 2.901806 1.415042 -0.566976
    18 4.972047 0.000000 0.000000 -0.493615 -1.031899 -0.800113
    19 11.585358 0.000000 0.000001 0.000000 0.000000 -1.722365
    20 10.127058 0.000000 0.000001 2.805476 0.073571 0.831460
    21 1.537458 0.109715 1.664489 -0.264662 -0.055995 0.783079
    22 0.928313 0.000000 0.000002 0.000000 0.000000 -0.453501
    23 0.928311 0.000000 0.000001 0.000000 0.000000 0.000000
    24 2.686395 -0.427337 0.044204 -0.005762 0.043239 -0.157074
    25 1.435260 0.000000 0.000001 0.000000 0.000000 0.732613
    26 1.482593 0.000000 -0.000001 0.000000 0.000000 1.168644
    27 2.046984 0.000001 0.000000 -0.019215 -0.209563 1.323259
    28 -0.000005 0.000007 3.713254 -3.273481 -0.169310 1.258913
    29 18.045723 0.000000 0.000000 0.000000 0.000000 -1.682083
    30 17.597597 0.000000 0.000000 -0.240889 0.182518 -0.204670
    31 0.000005 -0.000003 -3.713254 0.886107 2.345764 5.569004
    32 18.045721 0.000000 0.000000 0.000000 0.000000 -2.666604
    33 17.597597 0.000000 0.000000 0.366649 0.019436 0.807563
  time 3
    0 -0.276387 1.859583 -20.600716 0.000000 0.000000 -1.585458
    1 -0.546896 0.039064 0.000000 -1.570795 -1.570787 0.000000
    2 1.293670 0.684478 -0.000001 0.002540 0.015148 0.175156
    3 5.309685 -0.003834 0.000000 -0.117009 -0.043157 0.006900
    4 4.826790 -0.004591 0.000000 -0.152309 -0.068276 -0.139247
    5 5.792767 -0.005304 0.000000 -0.165091 -0.050755 0.066486
    6 6.662322 -0.001452 0.000000 0.013339 -0.055610 0.325517
    7 -3.049592 1.118373 4.495880 -0.312581 -1.384448 -3.164043
    8 4.827512 0.000000 -0.000002 0.302841 0.782891 -0.158251
    9 11.140032 0.000000 0.000000 0.000000 0.000000 -1.961865
    10 10.314563 -0.000001 0.000001 -1.872183 -0.163739 0.070271
    11 1.646836 0.445664 -1.699647 0.299991 0.382811 0.566588
    12 0.928312 0.000000 0.000000 0.000000 0.000000 0.000000
    13 0.928313 0.000000 -0.000001 0.000000 0.000000 0.000000
    14 2.979373 -0.388274 -0.044205 -0.005935 -0.043227 0.118690
    15 1.435262 -0.000001 -0.000001 0.000000 0.000000 1.136478
    16 1.482593 -0.000001 0.000001 0.000000 0.000000 0.772518
    17 -3.260536 0.923090 -3.984141 2.333391 1.387148 -1.120777
    18 4.972047 0.000000 0.000000 -0.325059 -0.972681 -0.930894
    19 11.585358 0.000000 0.000001 0.000000 0.000000 -1.739518
    20 10.127058 0.000000 0.000001 2.616562 0.232628 0.694601
    21 1.537458 0.109715 1.664489 -0.264662 -0.055995 0.783079
    22 0.928313 0.000000 0.000002 0.000000 0.000000 -0.453501
    23 0.928311 0.000000 0.000001 0.000000 0.000000 0.000000
    24 2.686395 -0.427337 0.044204 -0.005762 0.043239 -0.157074
    25 1.435260 0.000000 0.000001 0.000000 0.000000 0.732613
    26 1.482593 0.000000 -0.000001 0.000000 0.000000 1.168644
    27 2.046984 0.000001 0.000000 0.025548 -0.202453 1.157623
    28 -0.000005 0.000007 3.713254 -3.269838 -0.170748 1.258050
    29 18.045723 0.000000 0.000000 0.000000 0.000000 -1.684377
    30 17.597597 0.000000 0.000000 -0.238583 0.179540 -0.203020
    31 0.000005 -0.000003 -3.713254 0.896649 2.351900 5.581947
    32 18.045721 0.000000 0.000000 0.000000 0.000000 -2.665109
    33 17.597597 0.000000 0.000000 0.363897 0.017346 0.816662
  time 4
    0 -0.256855 1.890834 -20.600716 0.000000 0.000000 -1.585458
    1 -0.546896 0.039064 0.000000 -1.570795 -1.570787 0.000000
    2 1.293670 0.684478 -0.000001 0.002304 0.013769 0.174888
    3 5.309685 -0.003834 0.000000 -0.126369 -0.037056 0.030710
    4 4.826790 -0.004591 0.000000 -0.170887 -0.059240 -0.124298
    5 5.792767 -0.005304 0.000000 -0.163688 -0.035259 0.101845
    6 6.662322 -0.001452 0.000000 0.010487 -0.073738 0.321387
    7 -2.975371 1.091029 4.558382 0.028081 -1.415081 -3.492795
    8 4.827512 0.000000 -0.000002 0.191078 0.803271 -0.339524
    9 11.140032 0.000000 0.000000 0.000000 0.000000 -1.947809
    10 10.314563 -0.000001 0.000001 -1.807546 -0.201770 0.059297
    11 1.646836 0.445664 -1.699647 0.338082 0.355426 0.659546
    12 0.928312 0.000000 0.000000 0.000000 0.000000 0.000000
    13 0.928313 0.000000 -0.000001 0.000000 0.000000 0.000000
    14 2.979373 -0.388274 -0.044205 -0.008260 -0.042832 0.172800
    15 1.435262 -0.000001 -0.000001 0.000000 0.000000 1.030703
    16 1.482593 -0.000001 0.000001 0.000000 0.000000 0.807351
    17 -3.342570 0.915277 -3.917733 2.051763 1.356914 -1.391260
    18 4.972047 0.000000 0.000000 -0.229760 -0.886305 -0.949263
    19 11.585358 0.000000 0.000001 0.000000 0.000000 -1.692633
    20 10.127058 0.000000 0.000001 2.423371 0.114895 0.494315
    21 1.537458 0.109715 1.664489 -0.264662 -0.055995 0.783079
    22 0.928313 0.000000 0.000002 0.000000 0.000000 -0.453501
    23 0.928311 0.000000 0.000001 0.000000 0.000000 0.000000
    24 2.686395 -0.427337 0.044204 -0.005762 0.043239 -0.157074
    25 1.435260 0.000000 0.000001 0.000000 0.000000 0.732613
    26 1.482593 0.000000 -0.000001 0.000000 0.000000 1.168644
    27 2.046984 0.000001 0.000000 0.051269 -0.178201 0.936085
    28 -0.000005 0.000007 3.713254 -3.270797 -0.170173 1.258530
    29 18.045723 0.000000 0.000000 0.000000 0.000000 -1.682083
    30 17.597597 0.000000 0.000000 -0.239343 0.180303 -0.204899
    31 0.000005 -0.000003 -3.713254 0.894349 2.350174 5.575715
    32 18.045721 0.000000 0.000000 0.000000 0.000000 -2.665424
    33 17.597597 0.000000 0.000000 0.366716 0.016004 0.812921
  time 5
    0 -0.190447 1.945523 -20.600716 0.000000 0.000000 -1.585458
    1 -0.546896 0.039064 0.000000 -1.570795 -1.570787 0.000000
    2 1.293670 0.684478 -0.000001 0.001967 0.011900 0.174587
    3 5.309685 -0.003834 0.000000 -0.133873 -0.027840 0.057012
    4 4.826790 -0.004591 0.000000 -0.189790 -0.041023 -0.093651
    5 5.792767 -0.005304 0.000000 -0.161350 -0.014118 0.137038
    6 6.662322 -0.001452 0.000000 0.007934 -0.091908 0.317314
    7 -2.897244 1.067591 4.609165 0.459132 -1.421941 -3.910754
    8 4.827512 0.000000 -0.000002 0.081068 0.767798 -0.519063
    9 11.140032 0.000000 0.000000 0.000000 0.000000 -1.934043
    10 10.314563 -0.000001 0.000001 -1.735421 -0.253945 0.041704
    11 1.646836 0.445664 -1.699647 0.369982 0.325303 0.750749
    12 0.928312 0.000000 0.000000 0.000000 0.000000 0.000000
    13 0.928313 0.000000 -0.000001 0.000000 0.000000 0.000000
    14 2.979373 -0.388274 -0.044205 -0.010561 -0.042341 0.226911
    15 1.435262 -0.000001 -0.000001 0.000000 0.000000 0.914063
    16 1.482593 -0.000001 0.000001 0.000000 0.000000 0.853723
    17 -3.416791 0.915277 -3.855231 -1.376970 1.784370 -4.815978
    18 4.972047 0.000000 0.000000 -0.247394 -0.824918 -0.787334
    19 11.585358 0.000000 0.000001 0.000000 0.000000 -1.736087
    20 10.127058 0.000000 0.000001 1.998911 0.311778 0.515624
    21 1.537458 0.109715 1.664489 -0.264662 -0.055995 0.783079
    22 0.928313 0.000000 0.000002 0.000000 0.000000 -0.453501
    23 0.928311 0.000000 0.000001 0.000000 0.000000 0.000000
    24 2.686395 -0.427337 0.044204 -0.005762 0.043239 -0.157074
    25 1.435260 0.000000 0.000001 0.000000 0.000000 0.732613
    26 1.482593 0.000000 -0.000001 0.000000 0.000000 1.168644
    27 2.046984 0.000001 0.000000 0.078885 -0.166429 0.695994
    28 -0.000005 0.000007 3.713254 -3.274056 -0.168735 1.259584
    29 18.045723 0.000000 0.000000 0.000000 0.000000 -1.678530
    30 17.597597 0.000000 0.000000 -0.241522 0.182789 -0.207604
    31 0.000005 -0.000003 -3.713254 0.885340 2.344710 5.561622
    32 18.045721 0.000000 0.000000 0.000000 0.000000 -2.666604
    33 17.597597 0.000000 0.000000 0.371111 0.016182 0.803821
  time 6
    0 -0.084975 2.008025 -20.600716 0.000000 0.000000 -1.585458
    1 -0.546896 0.039064 0.000000 -1.570795 -1.570787 0.000000
    2 1.293670 0.684478 -0.000001 0.001563 0.009719 0.174319
    3 5.309685 -0.003834 0.000000 -0.139114 -0.016455 0.084902
    4 4.826790 -0.004591 0.000000 -0.208235 -0.017030 -0.052134
    5 5.792767 -0.005304 0.000000 -0.158166 0.008761 0.171608
    6 6.662322 -0.001452 0.000000 0.005693 -0.110105 0.313213
    7 -2.819116 1.044152 4.667761 0.856348 -1.402130 -4.293932
    8 4.827512 0.000000 -0.000002 0.100599 0.694718 -0.489862
    9 11.140032 0.000000 0.000000 0.000000 0.000000 -2.076486
    10 10.314563 -0.000001 0.000001 -1.661685 -0.440447 0.021265
    11 1.646836 0.445664 -1.699647 0.396064 0.293059 0.840091
    12 0.928312 0.000000 0.000000 0.000000 0.000000 0.000000
    13 0.928313 0.000000 -0.000001 0.000000 0.000000 0.000000
    14 2.979373 -0.388274 -0.044205 -0.012838 -0.041681 0.281021
    15 1.435262 -0.000001 -0.000001 0.000000 0.000000 0.791070
    16 1.482593 -0.000001 0.000001 0.000000 0.000000 0.906774
    17 -3.483199 0.915277 -3.788823 1.377977 1.379866 -2.063829
    18 4.972047 0.000000 0.000000 -0.321964 -0.843158 -0.595987
    19 11.585358 0.000000 0.000001 0.000000 0.000000 -1.920520
    20 10.127058 0.000000 0.000001 1.650956 0.402465 0.128157
    21 1.537458 0.109715 1.664489 -0.264662 -0.055995 0.783079
    22 0.928313 0.000000 0.000002 0.000000 0.000000 -0.453501
    23 0.928311 0.000000 0.000001 0.000000 0.000000 0.000000
    24 2.686395 -0.427337 0.044204 -0.005762 0.043239 -0.157074
    25 1.435260 0.000000 0.000001 0.000000 0.000000 0.732613
    26 1.482593 0.000000 -0.000001 0.000000 0.000000 1.168644
    27 2.046984 0.000001 0.000000 0.126879 -0.167403 0.442460
    28 -0.000005 0.000007 3.713254 -3.278562 -0.166817 1.261022
    29 18.045723 0.000000 0.000000 0.000000 0.000000 -1.674533
    30 17.597597 0.000000 0.000000 -0.244563 0.186406 -0.210584
    31 0.000005 -0.000003 -3.713254 0.871826 2.337040 5.543024
    32 18.045721 0.000000 0.000000 0.000000 0.000000 -2.668179
    33 17.597597 0.000000 0.000000 0.375942 0.017858 0.791304
  time 7
    0 0.032216 2.066620 -20.600716 0.000000 0.000000 -1.585458
    1 -0.546896 0.039064 0.000000 -1.570795 -1.570787 0.000000
    2 1.293670 0.684478 -0.000001 0.001141 0.007334 0.174001
    3 5.309685 -0.003834 0.000000 -0.142773 -0.003272 0.113606
    4 4.826790 -0.004591 0.000000 -0.225764 0.009384 -0.004885
    5 5.792767 -0.005304 0.000000 -0.154694 0.029506 0.204870
    6 6.662322 -0.001452 0.000000 0.003739 -0.128316 0.309083
    7 -2.733176 1.024621 4.718544 1.139114 -1.363158 -4.562031
    8 4.827512 0.000000 -0.000002 0.114470 0.587785 -0.489169
    9 11.140032 0.000000 0.000000 0.000000 0.000000 -2.229435
    10 10.314563 -0.000001 0.000001 -1.576860 -0.614209 -0.031805
    11 1.646836 0.445664 -1.699647 0.416329 0.259314 0.927937
    12 0.928312 0.000000 0.000000 0.000000 0.000000 0.000000
    13 0.928313 0.000000 -0.000001 0.000000 0.000000 0.000000
    14 2.979373 -0.388274 -0.044205 -0.015091 -0.040926 0.335219
    15 1.435262 -0.000001 -0.000001 0.000000 0.000000 0.666322
    16 1.482593 -0.000001 0.000001 0.000000 0.000000 0.961694
    17 -3.557420 0.907465 -3.718508 0.924106 1.373030 -2.520509
    18 4.972047 0.000000 0.000000 -0.300297 -0.870878 -0.481579
    19 11.585358 0.000000 0.000001 0.000000 0.000000 -2.069341
    20 10.127058 0.000000 0.000001 1.992319 0.174565 -0.051270
    21 1.537458 0.109715 1.664489 -0.264662 -0.055995 0.783079
    22 0.928313 0.000000 0.000002 0.000000 0.000000 -0.453501
    23 0.928311 0.000000 0.000001 0.000000 0.000000 0.000000
    24 2.686395 -0.427337 0.044204 -0.005762 0.043239 -0.157074
    25 1.435260 0.000000 0.000001 0.000000 0.000000 0.732613
    26 1.482593 0.000000 -0.000001 0.000000 0.000000 1.168644
    27 2.046984 0.000001 0.000000 0.179914 -0.200417 0.261798
    28 -0.000005 0.000007 3.713254 -3.283835 -0.164708 1.262460
    29 18.045723 0.000000 0.000000 0.000000 0.000000 -1.670906
    30 17.597597 0.000000 0.000000 -0.247984 0.190639 -0.213198
    31 0.000005 -0.000003 -3.713254 0.855533 2.328508 5.522891
    32 18.045721 0.000000 0.000000 0.000000 0.000000 -2.670147
    33 17.597597 0.000000 0.000000 0.380136 0.020994 0.777679
  time 8
    0 0.137688 2.105684 -20.600716 0.000000 0.000000 -1.585458
    1 -0.546896 0.039064 0.000000 -1.570795 -1.570787 0.000000
    2 1.293670 0.684478 -0.000001 0.000720 0.004853 0.173733
    3 5.309685 -0.003834 0.000000 -0.145462 0.011206 0.142397
    4 4.826790 -0.004591 0.000000 -0.242378 0.034947 0.043159
    5 5.792767 -0.005304 0.000000 -0.151655 0.044343 0.235931
    6 6.662322 -0.001452 0.000000 0.002109 -0.146582 0.305010
    7 -2.651142 1.001182 4.773233 1.325165 -1.313423 -4.732300
    8 4.827512 0.000000 -0.000002 0.100200 0.261869 -0.773989
    9 11.140032 0.000000 0.000000 0.000000 0.000000 -2.184586
    10 10.314563 -0.000001 0.000001 -1.496395 -0.553135 -0.083016
    11 1.646836 0.445664 -1.699647 0.430590 0.224685 1.014388
    12 0.928312 0.000000 0.000000 0.000000 0.000000 0.000000
    13 0.928313 0.000000 -0.000001 0.000000 0.000000 0.000000
    14 2.979373 -0.388274 -0.044205 -0.017272 -0.040076 0.389286
    15 1.435262 -0.000001 -0.000001 0.000000 0.000000 0.544457
    16 1.482593 -0.000001 0.000001 0.000000 0.000000 1.013569
    17 -3.627735 0.903558 -3.656006 0.490104 1.328205 -2.956788
    18 4.972047 0.000000 0.000000 -0.068427 -0.887270 -0.539815
    19 11.585358 0.000000 0.000001 0.000000 0.000000 -2.053658
    20 10.127058 0.000000 0.000001 1.837555 0.096266 -0.139008
    21 1.537458 0.109715 1.664489 -0.264662 -0.055995 0.783079
    22 0.928313 0.000000 0.000002 0.000000 0.000000 -0.453501
    23 0.928311 0.000000 0.000001 0.000000 0.000000 0.000000
    24 2.686395 -0.427337 0.044204 -0.005762 0.043239 -0.157074
    25 1.435260 0.000000 0.000001 0.000000 0.000000 0.732613
    26 1.482593 0.000000 -0.000001 0.000000 0.000000 1.168644
    27 2.046984 0.000001 0.000000 0.258756 -0.219801 0.082050
    28 -0.000005 0.000007 3.713254 -3.288917 -0.162790 1.263706
    29 18.045723 0.000000 0.000000 0.000000 0.000000 -1.668242
    30 17.597597 0.000000 0.000000 -0.251227 0.194749 -0.214894
    31 0.000005 -0.000003 -3.713254 0.838952 2.320168 5.504484
    32 18.045721 0.000000 0.000000 0.000000 0.000000 -2.671879
    33 17.597597 0.000000 0.000000 0.382888 0.025255 0.765023
  time 9
    0 0.223628 2.113497 -20.600716 0.000000 0.000000 -1.585458
    1 -0.546896 0.039064 0.000000 -1.570795 -1.570787 0.000000
    2 1.293670 0.684478 -0.000001 0.000350 0.002384 0.173465
    3 5.309685 -0.003834 0.000000 -0.148065 0.026462 0.170536
    4 4.826790 -0.004591 0.000000 -0.258763 0.056435 0.086814
    5 5.792767 -0.005304 0.000000 -0.151169 0.044846 0.253704
    6 6.662322 -0.001452 0.000000 0.000839 -0.164847 0.300795
    7 -2.573015 0.981650 4.824015 1.450732 -1.258247 -4.841054
    8 4.827512 0.000000 -0.000002 -0.036116 0.417493 -0.976837
    9 11.140032 0.000000 0.000000 0.000000 0.000000 -2.038955
    10 10.314563 -0.000001 0.000001 -1.431094 -0.414687 -0.103048
    11 1.646836 0.445664 -1.699647 0.439128 0.189791 1.099858
    12 0.928312 0.000000 0.000000 0.000000 0.000000 0.000000
    13 0.928313 0.000000 -0.000001 0.000000 0.000000 0.000000
    14 2.979373 -0.388274 -0.044205 -0.019405 -0.039081 0.443396
    15 1.435262 -0.000001 -0.000001 0.000000 0.000000 0.422885
    16 1.482593 -0.000001 0.000001 0.000000 0.000000 1.065177
    17 -3.701956 0.895745 -3.589598 0.259204 1.260481 -3.187619
    18 4.972047 0.000000 0.000000 0.162693 -0.904304 -0.650297
    19 11.585358 0.000000 0.000001 0.000000 0.000000 -2.000076
    20 10.127058 0.000000 0.000001 1.653550 0.049646 -0.153014
    21 1.537458 0.109715 1.664489 -0.264662 -0.055995 0.783079
    22 0.928313 0.000000 0.000002 0.000000 0.000000 -0.453501
    23 0.928311 0.000000 0.000001 0.000000 0.000000 0.000000
    24 2.686395 -0.427337 0.044204 -0.005762 0.043239 -0.157074
    25 1.435260 0.000000 0.000001 0.000000 0.000000 0.732613
    26 1.482593 0.000000 -0.000001 0.000000 0.000000 1.168644
    27 2.046984 0.000001 0.000000 0.354745 -0.209209 -0.076713
    28 -0.000005 0.000007 3.713254 -3.292752 -0.161544 1.264377
    29 18.045723 0.000000 0.000000 0.000000 0.000000 -1.667650
    30 17.597597 0.000000 0.000000 -0.253559 0.197924 -0.215123
    31 0.000005 -0.000003 -3.713254 0.826109 2.314032 5.492788
    32 18.045721 0.000000 0.000000 0.000000 0.000000 -2.673217
    33 17.597597 0.000000 0.000000 0.383089 0.029949 0.756432
  time 10
    0 0.250973 2.082246 -20.600716 0.000000 0.000000 -1.585458
    1 -0.546896 0.039064 0.000000 -1.570795 -1.570787 0.000000
    2 1.293670 0.684478 -0.000001 -0.000004 -0.000001 0.173164
    3 5.309685 -0.003834 0.000000 -0.151333 0.041862 0.197420
    4 4.826790 -0.004591 0.000000 -0.281289 0.061661 0.113360
    5 5.792767 -0.005304 0.000000 -0.152158 0.038602 0.263338
    6 6.662322 -0.001452 0.000000 -0.000144 -0.183155 0.296580
    7 -2.483168 0.962119 4.870892 1.539780 -1.199877 -4.912439
    8 4.827512 0.000000 -0.000002 -0.208224 0.562288 -1.079085
    9 11.140032 0.000000 0.000000 0.000000 0.000000 -1.785296
    10 10.314563 -0.000001 0.000001 -1.373375 -0.276239 -0.099913
    11 1.646836 0.445664 -1.699647 0.441755 0.155162 1.184501
    12 0.928312 0.000000 0.000000 0.000000 0.000000 0.000000
    13 0.928313 0.000000 -0.000001 0.000000 0.000000 0.000000
    14 2.979373 -0.388274 -0.044205 -0.021491 -0.037954 0.497507
    15 1.435262 -0.000001 -0.000001 0.000000 0.000000 0.301731
    16 1.482593 -0.000001 0.000001 0.000000 0.000000 1.116358
    17 -3.768364 0.884026 -3.515377 0.144375 1.191889 -3.300160
    18 4.972047 0.000000 0.000000 0.211375 -0.949621 -0.613225
    19 11.585358 0.000000 0.000001 0.000000 0.000000 -1.968303
    20 10.127058 0.000000 0.000001 1.569752 0.000000 -0.069778
    21 1.537458 0.109715 1.664489 -0.264662 -0.055995 0.783079
    22 0.928313 0.000000 0.000002 0.000000 0.000000 -0.453501
    23 0.928311 0.000000 0.000001 0.000000 0.000000 0.000000
    24 2.686395 -0.427337 0.044204 -0.005762 0.043239 -0.157074
    25 1.435260 0.000000 0.000001 0.000000 0.000000 0.732613
    26 1.482593 0.000000 -0.000001 0.000000 0.000000 1.168644
    27 2.046984 0.000001 0.000000 0.455430 -0.167049 -0.200926
    28 -0.000005 0.000007 3.713254 -3.293902 -0.161448 1.264185
    29 18.045723 0.000000 0.000000 0.000000 0.000000 -1.669796
    30 17.597597 0.000000 0.000000 -0.254040 0.198982 -0.213244
    31 0.000005 -0.000003 -3.713254 0.821892 2.312307 5.493555
    32 18.045721 0.000000 0.000000 0.000000 0.000000 -2.673768
    33 17.597597 0.000000 0.000000 0.379969 0.033854 0.755924
end
