version 1
nodes
  0 "Bip01" -1
  1 "Bip01 Pelvis" 0
  2 "Bip01 Spine" 1
  3 "Bip01 Spine1" 2
  4 "Bip01 Spine2" 3
  5 "Bip01 Spine3" 4
  6 "Bip01 Neck" 5
  7 "Bip01 L Arm" 6
  8 "Bip01 L Arm1" 7
  9 "Bip01 L Arm2" 8
  10 "Bip01 L Hand" 9
  11 "Bip01 L Finger0" 10
  12 "Bip01 L Finger01" 11
  13 "Bip01 L Finger02" 12
  14 "Bip01 L Finger1" 10
  15 "Bip01 L Finger11" 14
  16 "Bip01 L Finger12" 15
  17 "Bip01 R Arm" 6
  18 "Bip01 R Arm1" 17
  19 "Bip01 R Arm2" 18
  20 "Bip01 R Hand" 19
  21 "Bip01 R Finger0" 20
  22 "Bip01 R Finger01" 21
  23 "Bip01 R Finger02" 22
  24 "Bip01 R Finger1" 20
  25 "Bip01 R Finger11" 24
  26 "Bip01 R Finger12" 25
  27 "Bip01 Head" 6
  28 "Bip01 L Leg" 1
  29 "Bip01 L Leg1" 28
  30 "Bip01 L Foot" 29
  31 "Bip01 R Leg" 1
  32 "Bip01 R Leg1" 31
  33 "Bip01 R Foot" 32
end
skeleton
  time 0
    0 0.450198 3.097902 -20.639779 0.000000 0.000000 -1.571017
    1 -0.000004 0.000000 0.000000 -1.570795 -1.570787 0.000000
    2 1.293670 0.684478 -0.000001 -0.015333 -0.019248 0.165212
    3 5.309685 -0.003834 0.000000 -0.040552 -0.044535 0.232129
    4 4.826790 -0.004591 0.000000 -0.183476 0.001486 0.256299
    5 5.792767 -0.005304 0.000000 -0.197595 0.002709 0.199970
    6 6.662322 -0.001452 0.000000 -0.129194 0.000013 0.320191
    7 -3.299600 0.473822 4.433379 2.160141 -0.881181 -5.719708
    8 4.827512 0.000000 -0.000002 -1.121063 -0.802858 -0.874417
    9 11.140032 0.000000 0.000000 0.000000 0.000000 -0.716826
    10 10.314563 -0.000001 0.000001 -3.263689 0.192590 0.410464
    11 1.646836 0.445664 -1.699647 1.049811 0.782103 0.524138
    12 0.928312 0.000000 0.000000 0.000000 0.000000 0.126060
    13 0.928313 0.000000 -0.000001 0.000000 0.000000 -0.007563
    14 2.979373 -0.388274 -0.044205 0.012725 -0.159646 0.533030
    15 1.435262 -0.000001 -0.000001 0.000000 0.000000 0.451638
    16 1.482593 -0.000001 0.000001 0.000000 0.000000 0.623036
    17 -3.045686 1.469982 -3.984141 -0.840463 1.216287 -4.279513
    18 4.972047 0.000000 0.000000 0.716480 0.138391 -1.580208
    19 11.585358 0.000000 0.000001 0.000000 0.000000 -2.043040
    20 10.127058 0.000000 0.000001 2.329054 0.478022 1.128888
    21 1.537458 0.109715 1.664489 -0.283426 -0.440989 0.285820
    22 0.928313 0.000000 0.000002 0.000000 0.000000 0.425276
    23 0.928311 0.000000 0.000001 0.000000 0.000000 0.536770
    24 2.686395 -0.427337 0.044204 -0.081493 -0.128620 -0.228511
    25 1.435260 0.000000 0.000001 0.000000 0.000000 0.259343
    26 1.482593 0.000000 -0.000001 0.000000 0.000000 0.566486
    27 2.046984 0.000001 0.000000 -0.096678 0.780573 -1.543537
    28 -0.000005 0.000007 3.713254 -3.293902 -0.161448 1.264185
    29 18.045723 0.000000 0.000000 0.000000 0.000000 -1.669796
    30 17.597597 0.000000 0.000000 -0.254040 0.198982 -0.213244
    31 0.000005 -0.000003 -3.713254 0.821892 2.312307 5.493555
    32 18.045721 0.000000 0.000000 0.000000 0.000000 -2.673768
    33 17.597597 0.000000 0.000000 0.379969 0.033854 0.755924
  time 1
    0 0.450198 3.097902 -20.639779 0.000000 0.000000 -1.571017
    1 -0.000004 0.000000 0.000000 -1.570795 -1.570787 0.000000
    2 1.293670 0.684478 -0.000001 -0.015333 -0.019248 0.165212
    3 5.309685 -0.003834 0.000000 -0.123561 -0.018492 0.229991
    4 4.826790 -0.004591 0.000000 -0.299677 0.037200 0.247524
    5 5.792767 -0.005304 0.000000 -0.352937 0.123993 0.156015
    6 6.662322 -0.001452 0.000000 -0.129194 0.000013 0.320191
    7 -3.299600 0.473822 4.433379 2.160141 -0.881181 -5.719708
    8 4.827512 0.000000 -0.000002 -1.431880 -0.615000 -0.262492
    9 11.140032 0.000000 0.000000 0.000000 0.000000 -1.328912
    10 10.314563 -0.000001 0.000001 -3.211562 0.320546 0.980065
    11 1.646836 0.445664 -1.699647 1.049811 0.782103 0.524138
    12 0.928312 0.000000 0.000000 0.000000 0.000000 0.126060
    13 0.928313 0.000000 -0.000001 0.000000 0.000000 -0.007563
    14 2.979373 -0.388274 -0.044205 0.012725 -0.159646 0.533030
    15 1.435262 -0.000001 -0.000001 0.000000 0.000000 0.451638
    16 1.482593 -0.000001 0.000001 0.000000 0.000000 0.623036
    17 -3.045686 1.469982 -3.984141 0.012732 1.330150 -3.447470
    18 4.972047 0.000000 0.000000 0.674646 -0.006238 -2.077377
    19 11.585358 0.000000 0.000001 0.000000 0.000000 -1.937510
    20 10.127058 0.000000 0.000001 2.342448 0.301943 0.967569
    21 1.537458 0.109715 1.664489 -0.283426 -0.440989 0.285820
    22 0.928313 0.000000 0.000002 0.000000 0.000000 0.425276
    23 0.928311 0.000000 0.000001 0.000000 0.000000 0.536770
    24 2.686395 -0.427337 0.044204 -0.081493 -0.128620 -0.228511
    25 1.435260 0.000000 0.000001 0.000000 0.000000 0.259343
    26 1.482593 0.000000 -0.000001 0.000000 0.000000 0.566486
    27 2.046984 0.000001 0.000000 0.469776 0.945202 -1.170413
    28 -0.000005 0.000007 3.713254 -3.293902 -0.161448 1.264185
    29 18.045723 0.000000 0.000000 0.000000 0.000000 -1.669796
    30 17.597597 0.000000 0.000000 -0.254040 0.198982 -0.213244
    31 0.000005 -0.000003 -3.713254 0.821892 2.312307 5.493555
    32 18.045721 0.000000 0.000000 0.000000 0.000000 -2.673768
    33 17.597597 0.000000 0.000000 0.379969 0.033854 0.755924
  time 2
    0 0.450198 3.097902 -20.639779 0.000000 0.000000 -1.571017
    1 -0.000004 0.000000 0.000000 -1.570795 -1.570787 0.000000
    2 1.293670 0.684478 -0.000001 -0.015333 -0.019248 0.165212
    3 5.309685 -0.003834 0.000000 -0.117503 -0.020398 0.230239
    4 4.826790 -0.004591 0.000000 -0.267289 0.027373 0.250390
    5 5.792767 -0.005304 0.000000 -0.291041 0.110774 0.162306
    6 6.662322 -0.001452 0.000000 -0.129194 0.000013 0.320191
    7 -3.299600 0.473822 4.433379 2.160141 -0.881181 -5.719708
    8 4.827512 0.000000 -0.000002 -1.395847 -0.669320 -0.394287
    9 11.140032 0.000000 0.000000 0.000000 0.000000 -1.237621
    10 10.314563 -0.000001 0.000001 -3.221513 0.276427 0.872590
    11 1.646836 0.445664 -1.699647 1.049811 0.782103 0.524138
    12 0.928312 0.000000 0.000000 0.000000 0.000000 0.126060
    13 0.928313 0.000000 -0.000001 0.000000 0.000000 -0.007563
    14 2.979373 -0.388274 -0.044205 0.012725 -0.159646 0.533030
    15 1.435262 -0.000001 -0.000001 0.000000 0.000000 0.451638
    16 1.482593 -0.000001 0.000001 0.000000 0.000000 0.623036
    17 -3.045686 1.469982 -3.984141 -0.067993 1.329625 -3.526872
    18 4.972047 0.000000 0.000000 0.658981 0.039079 -2.000306
    19 11.585358 0.000000 0.000001 0.000000 0.000000 -1.962340
    20 10.127058 0.000000 0.000001 2.326951 0.361992 0.997382
    21 1.537458 0.109715 1.664489 -0.283426 -0.440989 0.285820
    22 0.928313 0.000000 0.000002 0.000000 0.000000 0.425276
    23 0.928311 0.000000 0.000001 0.000000 0.000000 0.536770
    24 2.686395 -0.427337 0.044204 -0.081493 -0.128620 -0.228511
    25 1.435260 0.000000 0.000001 0.000000 0.000000 0.259343
    26 1.482593 0.000000 -0.000001 0.000000 0.000000 0.566486
    27 2.046984 0.000001 0.000000 0.328895 0.890444 -1.273336
    28 -0.000005 0.000007 3.713254 -3.293902 -0.161448 1.264185
    29 18.045723 0.000000 0.000000 0.000000 0.000000 -1.669796
    30 17.597597 0.000000 0.000000 -0.254040 0.198982 -0.213244
    31 0.000005 -0.000003 -3.713254 0.821892 2.312307 5.493555
    32 18.045721 0.000000 0.000000 0.000000 0.000000 -2.673768
    33 17.597597 0.000000 0.000000 0.379969 0.033854 0.755924
  time 3
    0 0.450198 3.097902 -20.639779 0.000000 0.000000 -1.571017
    1 -0.000004 0.000000 0.000000 -1.570795 -1.570787 0.000000
    2 1.293670 0.684478 -0.000001 -0.015333 -0.019248 0.165212
    3 5.309685 -0.003834 0.000000 -0.092437 -0.028248 0.231069
    4 4.826790 -0.004591 0.000000 -0.215063 0.011301 0.254337
    5 5.792767 -0.005304 0.000000 -0.207920 0.070601 0.176944
    6 6.662322 -0.001452 0.000000 -0.129194 0.000013 0.320191
    7 -3.299600 0.473822 4.433379 2.160141 -0.881181 -5.719708
    8 4.827512 0.000000 -0.000002 -1.293491 -0.746151 -0.637255
    9 11.140032 0.000000 0.000000 0.000000 0.000000 -1.036200
    10 10.314563 -0.000001 0.000001 -3.233645 0.216196 0.658917
    11 1.646836 0.445664 -1.699647 1.049811 0.782103 0.524138
    12 0.928312 0.000000 0.000000 0.000000 0.000000 0.126060
    13 0.928313 0.000000 -0.000001 0.000000 0.000000 -0.007563
    14 2.979373 -0.388274 -0.044205 0.012725 -0.159646 0.533030
    15 1.435262 -0.000001 -0.000001 0.000000 0.000000 0.451638
    16 1.482593 -0.000001 0.000001 0.000000 0.000000 0.623036
    17 -3.045686 1.469982 -3.984141 -0.384489 1.311826 -3.836817
    18 4.972047 0.000000 0.000000 0.656449 0.108180 -1.820074
    19 11.585358 0.000000 0.000001 0.000000 0.000000 -2.006611
    20 10.127058 0.000000 0.000001 2.313837 0.449463 1.058558
    21 1.537458 0.109715 1.664489 -0.283426 -0.440989 0.285820
    22 0.928313 0.000000 0.000002 0.000000 0.000000 0.425276
    23 0.928311 0.000000 0.000001 0.000000 0.000000 0.536770
    24 2.686395 -0.427337 0.044204 -0.081493 -0.128620 -0.228511
    25 1.435260 0.000000 0.000001 0.000000 0.000000 0.259343
    26 1.482593 0.000000 -0.000001 0.000000 0.000000 0.566486
    27 2.046984 0.000001 0.000000 0.104562 0.804825 -1.422427
    28 -0.000005 0.000007 3.713254 -3.293902 -0.161448 1.264185
    29 18.045723 0.000000 0.000000 0.000000 0.000000 -1.669796
    30 17.597597 0.000000 0.000000 -0.254040 0.198982 -0.213244
    31 0.000005 -0.000003 -3.713254 0.821892 2.312307 5.493555
    32 18.045721 0.000000 0.000000 0.000000 0.000000 -2.673768
    33 17.597597 0.000000 0.000000 0.379969 0.033854 0.755924
  time 4
    0 0.450198 3.097902 -20.639779 0.000000 0.000000 -1.571017
    1 -0.000004 0.000000 0.000000 -1.570795 -1.570787 0.000000
    2 1.293670 0.684478 -0.000001 -0.015333 -0.019248 0.165212
    3 5.309685 -0.003834 0.000000 -0.067796 -0.035978 0.231669
    4 4.826790 -0.004591 0.000000 -0.196008 0.005369 0.255572
    5 5.792767 -0.005304 0.000000 -0.194250 0.037464 0.188052
    6 6.662322 -0.001452 0.000000 -0.129194 0.000013 0.320191
    7 -3.299600 0.473822 4.433379 2.160141 -0.881181 -5.719708
    8 4.827512 0.000000 -0.000002 -1.211064 -0.774718 -0.761338
    9 11.140032 0.000000 0.000000 0.000000 0.000000 -0.888758
    10 10.314563 -0.000001 0.000001 -3.246629 0.198960 0.534487
    11 1.646836 0.445664 -1.699647 1.049811 0.782103 0.524138
    12 0.928312 0.000000 0.000000 0.000000 0.000000 0.126060
    13 0.928313 0.000000 -0.000001 0.000000 0.000000 -0.007563
    14 2.979373 -0.388274 -0.044205 0.012725 -0.159646 0.533030
    15 1.435262 -0.000001 -0.000001 0.000000 0.000000 0.451638
    16 1.482593 -0.000001 0.000001 0.000000 0.000000 0.623036
    17 -3.045686 1.469982 -3.984141 -0.636407 1.273889 -4.082493
    18 4.972047 0.000000 0.000000 0.680649 0.129312 -1.698544
    19 11.585358 0.000000 0.000001 0.000000 0.000000 -2.026867
    20 10.127058 0.000000 0.000001 2.319027 0.471308 1.095024
    21 1.537458 0.109715 1.664489 -0.283426 -0.440989 0.285820
    22 0.928313 0.000000 0.000002 0.000000 0.000000 0.425276
    23 0.928311 0.000000 0.000001 0.000000 0.000000 0.536770
    24 2.686395 -0.427337 0.044204 -0.081493 -0.128620 -0.228511
    25 1.435260 0.000000 0.000001 0.000000 0.000000 0.259343
    26 1.482593 0.000000 -0.000001 0.000000 0.000000 0.566486
    27 2.046984 0.000001 0.000000 -0.002714 0.785028 -1.488122
    28 -0.000005 0.000007 3.713254 -3.293902 -0.161448 1.264185
    29 18.045723 0.000000 0.000000 0.000000 0.000000 -1.669796
    30 17.597597 0.000000 0.000000 -0.254040 0.198982 -0.213244
    31 0.000005 -0.000003 -3.713254 0.821892 2.312307 5.493555
    32 18.045721 0.000000 0.000000 0.000000 0.000000 -2.673768
    33 17.597597 0.000000 0.000000 0.379969 0.033854 0.755924
  time 5
    0 0.450198 3.097902 -20.639779 0.000000 0.000000 -1.571017
    1 -0.000004 0.000000 0.000000 -1.570795 -1.570787 0.000000
    2 1.293670 0.684478 -0.000001 -0.015333 -0.019248 0.165212
    3 5.309685 -0.003834 0.000000 -0.040552 -0.044535 0.232129
    4 4.826790 -0.004591 0.000000 -0.183476 0.001486 0.256299
    5 5.792767 -0.005304 0.000000 -0.197595 0.002709 0.199970
    6 6.662322 -0.001452 0.000000 -0.129194 0.000013 0.320191
    7 -3.299600 0.473822 4.433379 2.160141 -0.881181 -5.719708
    8 4.827512 0.000000 -0.000002 -1.121063 -0.802858 -0.874417
    9 11.140032 0.000000 0.000000 0.000000 0.000000 -0.716826
    10 10.314563 -0.000001 0.000001 -3.263689 0.192590 0.410464
    11 1.646836 0.445664 -1.699647 1.049811 0.782103 0.524138
    12 0.928312 0.000000 0.000000 0.000000 0.000000 0.126060
    13 0.928313 0.000000 -0.000001 0.000000 0.000000 -0.007563
    14 2.979373 -0.388274 -0.044205 0.012725 -0.159646 0.533030
    15 1.435262 -0.000001 -0.000001 0.000000 0.000000 0.451638
    16 1.482593 -0.000001 0.000001 0.000000 0.000000 0.623036
    17 -3.045686 1.469982 -3.984141 -0.840463 1.216287 -4.279513
    18 4.972047 0.000000 0.000000 0.716480 0.138391 -1.580208
    19 11.585358 0.000000 0.000001 0.000000 0.000000 -2.043040
    20 10.127058 0.000000 0.000001 2.329054 0.478022 1.128888
    21 1.537458 0.109715 1.664489 -0.283426 -0.440989 0.285820
    22 0.928313 0.000000 0.000002 0.000000 0.000000 0.425276
    23 0.928311 0.000000 0.000001 0.000000 0.000000 0.536770
    24 2.686395 -0.427337 0.044204 -0.081493 -0.128620 -0.228511
    25 1.435260 0.000000 0.000001 0.000000 0.000000 0.259343
    26 1.482593 0.000000 -0.000001 0.000000 0.000000 0.566486
    27 2.046984 0.000001 0.000000 -0.096678 0.780573 -1.543537
    28 -0.000005 0.000007 3.713254 -3.293902 -0.161448 1.264185
    29 18.045723 0.000000 0.000000 0.000000 0.000000 -1.669796
    30 17.597597 0.000000 0.000000 -0.254040 0.198982 -0.213244
    31 0.000005 -0.000003 -3.713254 0.821892 2.312307 5.493555
    32 18.045721 0.000000 0.000000 0.000000 0.000000 -2.673768
    33 17.597597 0.000000 0.000000 0.379969 0.033854 0.755924
end
