version 1
nodes
  0 "Bip01" -1
  1 "Bip01 Pelvis" 0
  2 "Bip01 Spine" 1
  3 "Bip01 Spine1" 2
  4 "Bip01 Spine2" 3
  5 "Bip01 Spine3" 4
  6 "Bip01 Neck" 5
  7 "Bip01 L Arm" 6
  8 "Bip01 L Arm1" 7
  9 "Bip01 L Arm2" 8
  10 "Bip01 L Hand" 9
  11 "Bip01 L Finger0" 10
  12 "Bip01 L Finger01" 11
  13 "Bip01 L Finger02" 12
  14 "Bip01 L Finger1" 10
  15 "Bip01 L Finger11" 14
  16 "Bip01 L Finger12" 15
  17 "Bip01 R Arm" 6
  18 "Bip01 R Arm1" 17
  19 "Bip01 R Arm2" 18
  20 "Bip01 R Hand" 19
  21 "Bip01 R Finger0" 20
  22 "Bip01 R Finger01" 21
  23 "Bip01 R Finger02" 22
  24 "Bip01 R Finger1" 20
  25 "Bip01 R Finger11" 24
  26 "Bip01 R Finger12" 25
  27 "Bip01 Head" 6
  28 "Bip01 L Leg" 1
  29 "Bip01 L Leg1" 28
  30 "Bip01 L Foot" 29
  31 "Bip01 R Leg" 1
  32 "Bip01 R Leg1" 31
  33 "Bip01 R Foot" 32
end
skeleton
  time 0
    0 -1.471736 2.707265 -20.585090 0.000000 0.000000 -1.571017
    1 -0.382828 0.253914 0.000000 -1.570795 -1.570787 0.000000
    2 1.293670 0.684478 -0.000001 0.005487 0.023980 0.229129
    3 5.309685 -0.003834 0.000000 -0.010551 0.011949 0.007341
    4 4.826790 -0.004591 0.000000 0.144755 -0.018408 0.131969
    5 5.792767 -0.005304 0.000000 0.296096 0.025971 0.110171
    6 6.662322 -0.001452 0.000000 -0.091910 0.032655 0.231870
    7 -3.518356 0.356631 4.277124 -1.914669 -1.369929 -1.453016
    8 4.827512 0.000000 -0.000002 -0.863737 0.465758 -1.597168
    9 11.140032 0.000000 0.000000 0.000000 0.000000 -1.220377
    10 10.314563 -0.000001 0.000001 -1.446922 0.185565 -0.202046
    11 1.646836 0.445664 -1.699647 -0.392035 3.352851 -0.875707
    12 0.928312 0.000000 0.000000 0.000000 0.000000 0.593404
    13 0.928313 0.000000 -0.000001 0.000000 0.000000 1.204231
    14 2.979373 -0.388274 -0.044205 -0.030851 -0.030823 0.768363
    15 1.435262 -0.000001 -0.000001 0.000000 0.000000 1.204014
    16 1.482593 -0.000001 0.000001 0.000000 0.000000 0.445026
    17 -2.975371 1.071532 -4.156022 -1.200618 0.657615 -4.369930
    18 4.972047 0.000000 0.000000 -0.814782 -0.252589 -0.755787
    19 11.585358 0.000000 0.000001 0.000000 0.000000 -1.772353
    20 10.127058 0.000000 0.000001 2.053748 -0.253716 0.274320
    21 1.537458 0.109715 1.664489 -3.079588 0.031470 0.928526
    22 0.928313 0.000000 0.000002 0.000000 0.000000 0.061034
    23 0.928311 0.000000 0.000001 0.000000 0.000000 0.671897
    24 2.686395 -0.427337 0.044204 -0.001208 0.043611 -0.052337
    25 1.435260 0.000000 0.000001 0.000000 0.000000 1.186618
    26 1.482593 0.000000 -0.000001 0.000000 0.000000 1.684243
    27 2.046984 0.000001 0.000000 -0.019732 0.318962 0.180653
    28 -0.000005 0.000007 3.713254 -3.211451 -0.114278 1.238974
    29 18.045723 0.000000 0.000000 0.000000 0.000000 -1.756985
    30 17.597597 0.000000 0.000000 -0.219173 0.110535 -0.140439
    31 0.000005 -0.000003 -3.713254 0.827643 2.444220 5.464986
    32 18.045721 0.000000 0.000000 0.000000 0.000000 -2.608117
    33 17.597597 0.000000 0.000000 0.356013 -0.157405 0.773060
  time 1
    0 -1.514706 2.672108 -20.585090 0.000000 0.000000 -1.571017
    1 -0.382828 0.253914 0.000000 -1.570795 -1.570787 0.000000
    2 1.293670 0.684478 -0.000001 0.006751 0.018443 0.220156
    3 5.309685 -0.003834 0.000000 0.018957 0.015856 0.016085
    4 4.826790 -0.004591 0.000000 0.055049 -0.044115 0.132520
    5 5.792767 -0.005304 0.000000 0.120140 -0.001186 0.069206
    6 6.662322 -0.001452 0.000000 -0.091910 0.032655 0.231870
    7 -3.518356 0.356631 4.277124 -2.311117 -1.377735 -1.054412
    8 4.827512 0.000000 -0.000002 -0.820451 0.419881 -1.311221
    9 11.140032 0.000000 0.000000 0.000000 0.000000 -1.214943
    10 10.314563 -0.000001 0.000001 -1.734947 0.183410 -0.130280
    11 1.646836 0.445664 -1.699647 -0.392035 3.352851 -0.875707
    12 0.928312 0.000000 0.000000 0.000000 0.000000 0.593404
    13 0.928313 0.000000 -0.000001 0.000000 0.000000 1.204231
    14 2.979373 -0.388274 -0.044205 -0.030851 -0.030823 0.768363
    15 1.435262 -0.000001 -0.000001 0.000000 0.000000 1.125487
    16 1.482593 -0.000001 0.000001 0.000000 0.000000 0.479912
    17 -2.975371 1.071532 -4.156022 -1.201764 0.940421 -4.493582
    18 4.972047 0.000000 0.000000 -0.557774 -0.363954 -1.219012
    19 11.585358 0.000000 0.000001 0.000000 0.000000 -1.699658
    20 10.127058 0.000000 0.000001 2.020509 -0.353575 0.375414
    21 1.537458 0.109715 1.664489 -3.079588 0.031470 0.928526
    22 0.928313 0.000000 0.000002 0.000000 0.000000 0.061034
    23 0.928311 0.000000 0.000001 0.000000 0.000000 0.671897
    24 2.686395 -0.427337 0.044204 -0.001208 0.043611 -0.052337
    25 1.435260 0.000000 0.000001 0.000000 0.000000 1.186618
    26 1.482593 0.000000 -0.000001 0.000000 0.000000 1.684243
    27 2.046984 0.000001 0.000000 0.118866 0.225377 0.123535
    28 -0.000005 0.000007 3.713254 -3.209533 -0.115237 1.238495
    29 18.045723 0.000000 0.000000 0.000000 0.000000 -1.759428
    30 17.597597 0.000000 0.000000 -0.217728 0.109132 -0.138375
    31 0.000005 -0.000003 -3.713254 0.832531 2.446904 5.473135
    32 18.045721 0.000000 0.000000 0.000000 0.000000 -2.607330
    33 17.597597 0.000000 0.000000 0.353161 -0.157819 0.778972
  time 2
    0 -1.577208 2.640857 -20.585090 0.000000 0.000000 -1.571017
    1 -0.382828 0.253914 0.000000 -1.570795 -1.570787 0.000000
    2 1.293670 0.684478 -0.000001 0.008081 0.012930 0.211216
    3 5.309685 -0.003834 0.000000 0.048635 0.019044 0.024722
    4 4.826790 -0.004591 0.000000 -0.035402 -0.067497 0.136202
    5 5.792767 -0.005304 0.000000 -0.055078 -0.034456 0.035300
    6 6.662322 -0.001452 0.000000 -0.091910 0.032655 0.231870
    7 -3.518356 0.356631 4.277124 -2.680726 -1.355381 -0.685224
    8 4.827512 0.000000 -0.000002 -0.754365 0.389438 -1.023195
    9 11.140032 0.000000 0.000000 0.000000 0.000000 -1.209581
    10 10.314563 -0.000001 0.000001 -2.017949 0.183785 -0.046320
    11 1.646836 0.445664 -1.699647 -0.392035 3.352851 -0.875707
    12 0.928312 0.000000 0.000000 0.000000 0.000000 0.593404
    13 0.928313 0.000000 -0.000001 0.000000 0.000000 1.204231
    14 2.979373 -0.388274 -0.044205 -0.030851 -0.030823 0.768363
    15 1.435262 -0.000001 -0.000001 0.000000 0.000000 1.047002
    16 1.482593 -0.000001 0.000001 0.000000 0.000000 0.514798
    17 -2.975371 1.071532 -4.156022 -1.357577 1.228538 -4.717420
    18 4.972047 0.000000 0.000000 -0.185956 -0.350857 -1.698410
    19 11.585358 0.000000 0.000001 0.000000 0.000000 -1.626963
    20 10.127058 0.000000 0.000001 1.974017 -0.449463 0.484411
    21 1.537458 0.109715 1.664489 -3.079588 0.031470 0.928526
    22 0.928313 0.000000 0.000002 0.000000 0.000000 0.061034
    23 0.928311 0.000000 0.000001 0.000000 0.000000 0.671897
    24 2.686395 -0.427337 0.044204 -0.001208 0.043611 -0.052337
    25 1.435260 0.000000 0.000001 0.000000 0.000000 1.186618
    26 1.482593 0.000000 -0.000001 0.000000 0.000000 1.684243
    27 2.046984 0.000001 0.000000 0.267545 0.169999 0.044822
    28 -0.000005 0.000007 3.713254 -3.206849 -0.116195 1.238016
    29 18.045723 0.000000 0.000000 0.000000 0.000000 -1.761352
    30 17.597597 0.000000 0.000000 -0.215980 0.106991 -0.136771
    31 0.000005 -0.000003 -3.713254 0.839240 2.450451 5.481763
    32 18.045721 0.000000 0.000000 0.000000 0.000000 -2.606228
    33 17.597597 0.000000 0.000000 0.350946 -0.159575 0.785346
  time 3
    0 -1.600646 2.633044 -20.585090 0.000000 0.000000 -1.571017
    1 -0.382828 0.253914 0.000000 -1.570795 -1.570787 0.000000
    2 1.293670 0.684478 -0.000001 0.005471 0.009035 0.202628
    3 5.309685 -0.003834 0.000000 0.058420 0.019008 0.032159
    4 4.826790 -0.004591 0.000000 -0.092396 -0.078691 0.143456
    5 5.792767 -0.005304 0.000000 -0.167052 -0.056975 0.016032
    6 6.662322 -0.001452 0.000000 -0.091910 0.032655 0.231870
    7 -3.518356 0.356631 4.277124 -2.990236 -1.311915 -0.380426
    8 4.827512 0.000000 -0.000002 -0.731566 0.365647 -0.875716
    9 11.140032 0.000000 0.000000 0.000000 0.000000 -1.182484
    10 10.314563 -0.000001 0.000001 -2.330521 0.175542 0.057671
    11 1.646836 0.445664 -1.699647 -0.392035 3.352851 -0.875707
    12 0.928312 0.000000 0.000000 0.000000 0.000000 0.593404
    13 0.928313 0.000000 -0.000001 0.000000 0.000000 1.204231
    14 2.979373 -0.388274 -0.044205 -0.030851 -0.030823 0.768363
    15 1.435262 -0.000001 -0.000001 0.000000 0.000000 0.968392
    16 1.482593 -0.000001 0.000001 0.000000 0.000000 0.549738
    17 -2.975371 1.071532 -4.156022 -1.860934 1.383941 -5.240189
    18 4.972047 0.000000 0.000000 0.119452 -0.196907 -1.974016
    19 11.585358 0.000000 0.000001 0.000000 0.000000 -1.526170
    20 10.127058 0.000000 0.000001 1.981310 -0.468754 0.547988
    21 1.537458 0.109715 1.664489 -3.079588 0.031470 0.928526
    22 0.928313 0.000000 0.000002 0.000000 0.000000 0.061034
    23 0.928311 0.000000 0.000001 0.000000 0.000000 0.671897
    24 2.686395 -0.427337 0.044204 -0.001208 0.043611 -0.052337
    25 1.435260 0.000000 0.000001 0.000000 0.000000 1.186618
    26 1.482593 0.000000 -0.000001 0.000000 0.000000 1.684243
    27 2.046984 0.000001 0.000000 0.356985 0.174336 -0.092590
    28 -0.000005 0.000007 3.713254 -3.205698 -0.116579 1.237824
    29 18.045723 0.000000 0.000000 0.000000 0.000000 -1.761648
    30 17.597597 0.000000 0.000000 -0.215245 0.105982 -0.136587
    31 0.000005 -0.000003 -3.713254 0.842115 2.451985 5.484639
    32 18.045721 0.000000 0.000000 0.000000 0.000000 -2.605677
    33 17.597597 0.000000 0.000000 0.350644 -0.160817 0.787563
  time 4
    0 -1.577208 2.644763 -20.585090 0.000000 0.000000 -1.571017
    1 -0.382828 0.253914 0.000000 -1.570795 -1.570787 0.000000
    2 1.293670 0.684478 -0.000001 -0.001571 0.006938 0.194609
    3 5.309685 -0.003834 0.000000 0.045963 0.015999 0.038412
    4 4.826790 -0.004591 0.000000 -0.113664 -0.078427 0.152276
    5 5.792767 -0.005304 0.000000 -0.212093 -0.064273 0.006813
    6 6.662322 -0.001452 0.000000 -0.091910 0.032655 0.231870
    7 -3.518356 0.356631 4.277124 -3.272715 -1.249819 -0.110602
    8 4.827512 0.000000 -0.000002 -0.792151 0.354306 -0.920775
    9 11.140032 0.000000 0.000000 0.000000 0.000000 -1.097641
    10 10.314563 -0.000001 0.000001 -2.711522 0.174699 0.211597
    11 1.646836 0.445664 -1.699647 -0.392035 3.352851 -0.875707
    12 0.928312 0.000000 0.000000 0.000000 0.000000 0.593404
    13 0.928313 0.000000 -0.000001 0.000000 0.000000 1.204231
    14 2.979373 -0.388274 -0.044205 -0.030851 -0.030823 0.768363
    15 1.435262 -0.000001 -0.000001 0.000000 0.000000 0.889865
    16 1.482593 -0.000001 0.000001 0.000000 0.000000 0.584624
    17 -2.975371 1.071532 -4.156022 -2.079797 1.373319 -5.462686
    18 4.972047 0.000000 0.000000 0.332281 0.002922 -1.982535
    19 11.585358 0.000000 0.000001 0.000000 0.000000 -1.371632
    20 10.127058 0.000000 0.000001 2.129692 -0.363883 0.524578
    21 1.537458 0.109715 1.664489 -3.079588 0.031470 0.928526
    22 0.928313 0.000000 0.000002 0.000000 0.000000 0.061034
    23 0.928311 0.000000 0.000001 0.000000 0.000000 0.671897
    24 2.686395 -0.427337 0.044204 -0.001208 0.043611 -0.052337
    25 1.435260 0.000000 0.000001 0.000000 0.000000 1.186618
    26 1.482593 0.000000 -0.000001 0.000000 0.000000 1.684243
    27 2.046984 0.000001 0.000000 0.374520 0.241309 -0.314919
    28 -0.000005 0.000007 3.713254 -3.206369 -0.116195 1.238016
    29 18.045723 0.000000 0.000000 0.000000 0.000000 -1.760834
    30 17.597597 0.000000 0.000000 -0.215803 0.106499 -0.137275
    31 0.000005 -0.000003 -3.713254 0.840390 2.451026 5.481859
    32 18.045721 0.000000 0.000000 0.000000 0.000000 -2.605913
    33 17.597597 0.000000 0.000000 0.351617 -0.160600 0.785485
  time 5
    0 -1.557676 2.660388 -20.585090 0.000000 0.000000 -1.571017
    1 -0.382828 0.253914 0.000000 -1.570795 -1.570787 0.000000
    2 1.293670 0.684478 -0.000001 -0.010313 0.005524 0.186724
    3 5.309685 -0.003834 0.000000 0.024913 0.012296 0.044453
    4 4.826790 -0.004591 0.000000 -0.122438 -0.074257 0.161470
    5 5.792767 -0.005304 0.000000 -0.233553 -0.065747 0.000688
    6 6.662322 -0.001452 0.000000 -0.091910 0.032655 0.231870
    7 -3.518356 0.356631 4.277124 -3.481770 -1.169243 0.079022
    8 4.827512 0.000000 -0.000002 -0.897457 0.316956 -1.039486
    9 11.140032 0.000000 0.000000 0.000000 0.000000 -0.990917
    10 10.314563 -0.000001 0.000001 -3.111857 0.219006 0.395890
    11 1.646836 0.445664 -1.699647 -0.392035 3.352851 -0.875707
    12 0.928312 0.000000 0.000000 0.000000 0.000000 0.593404
    13 0.928313 0.000000 -0.000001 0.000000 0.000000 1.204231
    14 2.979373 -0.388274 -0.044205 -0.030851 -0.030823 0.768363
    15 1.435262 -0.000001 -0.000001 0.000000 0.000000 0.811381
    16 1.482593 -0.000001 0.000001 0.000000 0.000000 0.619510
    17 -2.975371 1.071532 -4.156022 -1.887874 1.299101 -5.272658
    18 4.972047 0.000000 0.000000 0.521473 0.194636 -1.859474
    19 11.585358 0.000000 0.000001 0.000000 0.000000 -1.189159
    20 10.127058 0.000000 0.000001 2.322813 -0.178159 0.488713
    21 1.537458 0.109715 1.664489 -3.079588 0.031470 0.928526
    22 0.928313 0.000000 0.000002 0.000000 0.000000 0.061034
    23 0.928311 0.000000 0.000001 0.000000 0.000000 0.671897
    24 2.686395 -0.427337 0.044204 -0.001208 0.043611 -0.052337
    25 1.435260 0.000000 0.000001 0.000000 0.000000 1.186618
    26 1.482593 0.000000 -0.000001 0.000000 0.000000 1.684243
    27 2.046984 0.000001 0.000000 0.352289 0.340647 -0.570460
    28 -0.000005 0.000007 3.713254 -3.207520 -0.115716 1.238303
    29 18.045723 0.000000 0.000000 0.000000 0.000000 -1.759872
    30 17.597597 0.000000 0.000000 -0.216639 0.107360 -0.138054
    31 0.000005 -0.000003 -3.713254 0.837419 2.449492 5.477737
    32 18.045721 0.000000 0.000000 0.000000 0.000000 -2.606542
    33 17.597597 0.000000 0.000000 0.352792 -0.159949 0.782529
  time 6
    0 -1.526425 2.676014 -20.585090 0.000000 0.000000 -1.571017
    1 -0.382828 0.253914 0.000000 -1.570795 -1.570787 0.000000
    2 1.293670 0.684478 -0.000001 -0.020083 0.004242 0.178973
    3 5.309685 -0.003834 0.000000 -0.001191 0.008629 0.050529
    4 4.826790 -0.004591 0.000000 -0.122381 -0.067785 0.170774
    5 5.792767 -0.005304 0.000000 -0.239273 -0.063351 -0.003776
    6 6.662322 -0.001452 0.000000 -0.091910 0.032655 0.231870
    7 -3.518356 0.356631 4.277124 -3.582033 -1.087692 0.158551
    8 4.827512 0.000000 -0.000002 -0.989530 0.219999 -1.099101
    9 11.140032 0.000000 0.000000 0.000000 0.000000 -0.949111
    10 10.314563 -0.000001 0.000001 -3.441394 0.290478 0.548190
    11 1.646836 0.445664 -1.699647 -0.392035 3.352851 -0.875707
    12 0.928312 0.000000 0.000000 0.000000 0.000000 0.593404
    13 0.928313 0.000000 -0.000001 0.000000 0.000000 1.204231
    14 2.979373 -0.388274 -0.044205 -0.030851 -0.030823 0.768363
    15 1.435262 -0.000001 -0.000001 0.000000 0.000000 0.732771
    16 1.482593 -0.000001 0.000001 0.000000 0.000000 0.654396
    17 -2.975371 1.071532 -4.156022 -1.745245 1.204614 -5.129754
    18 4.972047 0.000000 0.000000 0.705880 0.348907 -1.728227
    19 11.585358 0.000000 0.000001 0.000000 0.000000 -1.027923
    20 10.127058 0.000000 0.000001 2.405419 -0.003593 0.488212
    21 1.537458 0.109715 1.664489 -3.079588 0.031470 0.928526
    22 0.928313 0.000000 0.000002 0.000000 0.000000 0.061034
    23 0.928311 0.000000 0.000001 0.000000 0.000000 0.671897
    24 2.686395 -0.427337 0.044204 -0.001208 0.043611 -0.052337
    25 1.435260 0.000000 0.000001 0.000000 0.000000 1.186618
    26 1.482593 0.000000 -0.000001 0.000000 0.000000 1.684243
    27 2.046984 0.000001 0.000000 0.310542 0.420336 -0.772411
    28 -0.000005 0.000007 3.713254 -3.208766 -0.115045 1.238495
    29 18.045723 0.000000 0.000000 0.000000 0.000000 -1.758910
    30 17.597597 0.000000 0.000000 -0.217627 0.108320 -0.138834
    31 0.000005 -0.000003 -3.713254 0.833968 2.447671 5.473327
    32 18.045721 0.000000 0.000000 0.000000 0.000000 -2.607094
    33 17.597597 0.000000 0.000000 0.353899 -0.159003 0.779296
  time 7
    0 -1.502987 2.695546 -20.585090 0.000000 0.000000 -1.571017
    1 -0.382828 0.253914 0.000000 -1.570795 -1.570787 0.000000
    2 1.293670 0.684478 -0.000001 -0.030156 0.002660 0.171339
    3 5.309685 -0.003834 0.000000 -0.028810 0.005561 0.056747
    4 4.826790 -0.004591 0.000000 -0.117155 -0.060486 0.180145
    5 5.792767 -0.005304 0.000000 -0.237222 -0.059036 -0.007617
    6 6.662322 -0.001452 0.000000 -0.091910 0.032655 0.231870
    7 -3.518356 0.356631 4.277124 -3.595740 -1.018884 0.156922
    8 4.827512 0.000000 -0.000002 -1.046926 0.078957 -1.029088
    9 11.140032 0.000000 0.000000 0.000000 0.000000 -1.032868
    10 10.314563 -0.000001 0.000001 -3.674070 0.333942 0.646491
    11 1.646836 0.445664 -1.699647 -0.392035 3.352851 -0.875707
    12 0.928312 0.000000 0.000000 0.000000 0.000000 0.593404
    13 0.928313 0.000000 -0.000001 0.000000 0.000000 1.204231
    14 2.979373 -0.388274 -0.044205 -0.030851 -0.030823 0.768363
    15 1.435262 -0.000001 -0.000001 0.000000 0.000000 0.654328
    16 1.482593 -0.000001 0.000001 0.000000 0.000000 0.689336
    17 -2.975371 1.071532 -4.156022 -1.662419 1.101503 -5.044510
    18 4.972047 0.000000 0.000000 0.873874 0.467342 -1.652687
    19 11.585358 0.000000 0.000001 0.000000 0.000000 -0.905811
    20 10.127058 0.000000 0.000001 2.295675 0.127000 0.494815
    21 1.537458 0.109715 1.664489 -3.079588 0.031470 0.928526
    22 0.928313 0.000000 0.000002 0.000000 0.000000 0.061034
    23 0.928311 0.000000 0.000001 0.000000 0.000000 0.671897
    24 2.686395 -0.427337 0.044204 -0.001208 0.043611 -0.052337
    25 1.435260 0.000000 0.000001 0.000000 0.000000 1.186618
    26 1.482593 0.000000 -0.000001 0.000000 0.000000 1.684243
    27 2.046984 0.000001 0.000000 0.281418 0.469400 -0.881660
    28 -0.000005 0.000007 3.713254 -3.209917 -0.114565 1.238687
    29 18.045723 0.000000 0.000000 0.000000 0.000000 -1.758096
    30 17.597597 0.000000 0.000000 -0.218489 0.109206 -0.139567
    31 0.000005 -0.000003 -3.713254 0.830806 2.446041 5.469492
    32 18.045721 0.000000 0.000000 0.000000 0.000000 -2.607566
    33 17.597597 0.000000 0.000000 0.354838 -0.158095 0.776386
  time 8
    0 -1.483455 2.703358 -20.585090 0.000000 0.000000 -1.571017
    1 -0.382828 0.253914 0.000000 -1.570795 -1.570787 0.000000
    2 1.293670 0.684478 -0.000001 -0.039808 0.000371 0.163655
    3 5.309685 -0.003834 0.000000 -0.054250 0.003500 0.063211
    4 4.826790 -0.004591 0.000000 -0.110536 -0.053583 0.189449
    5 5.792767 -0.005304 0.000000 -0.235459 -0.054913 -0.011790
    6 6.662322 -0.001452 0.000000 -0.091910 0.032655 0.231870
    7 -3.518356 0.356631 4.277124 -3.575131 -0.958149 0.124632
    8 4.827512 0.000000 -0.000002 -1.098503 -0.066861 -0.882302
    9 11.140032 0.000000 0.000000 0.000000 0.000000 -1.181614
    10 10.314563 -0.000001 0.000001 -3.858221 0.351646 0.718199
    11 1.646836 0.445664 -1.699647 -0.392035 3.352851 -0.875707
    12 0.928312 0.000000 0.000000 0.000000 0.000000 0.593404
    13 0.928313 0.000000 -0.000001 0.000000 0.000000 1.204231
    14 2.979373 -0.388274 -0.044205 -0.030851 -0.030823 0.768363
    15 1.435262 -0.000001 -0.000001 0.000000 0.000000 0.575717
    16 1.482593 -0.000001 0.000001 0.000000 0.000000 0.724222
    17 -2.975371 1.071532 -4.156022 -1.595738 0.979883 -4.970184
    18 4.972047 0.000000 0.000000 1.006130 0.579992 -1.615283
    19 11.585358 0.000000 0.000001 0.000000 0.000000 -0.805100
    20 10.127058 0.000000 0.000001 2.080745 0.244543 0.475407
    21 1.537458 0.109715 1.664489 -3.079588 0.031470 0.928526
    22 0.928313 0.000000 0.000002 0.000000 0.000000 0.061034
    23 0.928311 0.000000 0.000001 0.000000 0.000000 0.671897
    24 2.686395 -0.427337 0.044204 -0.001208 0.043611 -0.052337
    25 1.435260 0.000000 0.000001 0.000000 0.000000 1.186618
    26 1.482593 0.000000 -0.000001 0.000000 0.000000 1.684243
    27 2.046984 0.000001 0.000000 0.264443 0.511000 -0.940907
    28 -0.000005 0.000007 3.713254 -3.210684 -0.114182 1.238878
    29 18.045723 0.000000 0.000000 0.000000 0.000000 -1.757504
    30 17.597597 0.000000 0.000000 -0.219021 0.109920 -0.140072
    31 0.000005 -0.000003 -3.713254 0.828793 2.444891 5.466712
    32 18.045721 0.000000 0.000000 0.000000 0.000000 -2.607881
    33 17.597597 0.000000 0.000000 0.355543 -0.157543 0.774307
  time 9
    0 -1.483455 2.707265 -20.585090 0.000000 0.000000 -1.571017
    1 -0.382828 0.253914 0.000000 -1.570795 -1.570787 0.000000
    2 1.293670 0.684478 -0.000001 -0.048298 -0.002997 0.155971
    3 5.309685 -0.003834 0.000000 -0.073905 0.002792 0.069871
    4 4.826790 -0.004591 0.000000 -0.106435 -0.047986 0.198555
    5 5.792767 -0.005304 0.000000 -0.241989 -0.052996 -0.017064
    6 6.662322 -0.001452 0.000000 -0.091910 0.032655 0.231870
    7 -3.518356 0.356631 4.277124 -3.547909 -0.899662 0.087646
    8 4.827512 0.000000 -0.000002 -1.146971 -0.184454 -0.726245
    9 11.140032 0.000000 0.000000 0.000000 0.000000 -1.300148
    10 10.314563 -0.000001 0.000001 -4.021425 0.375064 0.780850
    11 1.646836 0.445664 -1.699647 -0.392035 3.352851 -0.875707
    12 0.928312 0.000000 0.000000 0.000000 0.000000 0.593404
    13 0.928313 0.000000 -0.000001 0.000000 0.000000 1.204231
    14 2.979373 -0.388274 -0.044205 -0.030851 -0.030823 0.768363
    15 1.435262 -0.000001 -0.000001 0.000000 0.000000 0.497191
    16 1.482593 -0.000001 0.000001 0.000000 0.000000 0.759162
    17 -2.975371 1.071532 -4.156022 -1.561919 0.877482 -4.926796
    18 4.972047 0.000000 0.000000 1.112685 0.683482 -1.598178
    19 11.585358 0.000000 0.000001 0.000000 0.000000 -0.721297
    20 10.127058 0.000000 0.000001 1.884468 0.340998 0.435890
    21 1.537458 0.109715 1.664489 -3.079588 0.031470 0.928526
    22 0.928313 0.000000 0.000002 0.000000 0.000000 0.061034
    23 0.928311 0.000000 0.000001 0.000000 0.000000 0.671897
    24 2.686395 -0.427337 0.044204 -0.001208 0.043611 -0.052337
    25 1.435260 0.000000 0.000001 0.000000 0.000000 1.186618
    26 1.482593 0.000000 -0.000001 0.000000 0.000000 1.684243
    27 2.046984 0.000001 0.000000 0.254706 0.555963 -0.975032
    28 -0.000005 0.000007 3.713254 -3.211163 -0.114182 1.238974
    29 18.045723 0.000000 0.000000 0.000000 0.000000 -1.757059
    30 17.597597 0.000000 0.000000 -0.219147 0.110166 -0.140439
    31 0.000005 -0.000003 -3.713254 0.828218 2.444603 5.465561
    32 18.045721 0.000000 0.000000 0.000000 0.000000 -2.607959
    33 17.597597 0.000000 0.000000 0.356046 -0.157661 0.773430
  time 10
    0 -1.471736 2.707265 -20.585090 0.000000 0.000000 -1.571017
    1 -0.382828 0.253914 0.000000 -1.570795 -1.570787 0.000000
    2 1.293670 0.684478 -0.000001 -0.048803 -0.015713 0.147885
    3 5.309685 -0.003834 0.000000 -0.049673 0.008845 0.076159
    4 4.826790 -0.004591 0.000000 -0.085663 -0.048010 0.206691
    5 5.792767 -0.005304 0.000000 -0.258825 -0.057071 -0.030103
    6 6.662322 -0.001452 0.000000 -0.091910 0.032655 0.231870
    7 -3.518356 0.356631 4.277124 -3.478511 -0.849542 0.020190
    8 4.827512 0.000000 -0.000002 -1.174792 -0.272115 -0.705188
    9 11.140032 0.000000 0.000000 0.000000 0.000000 -1.236969
    10 10.314563 -0.000001 0.000001 -4.113927 0.347618 0.795075
    11 1.646836 0.445664 -1.699647 -0.392035 3.352851 -0.875707
    12 0.928312 0.000000 0.000000 0.000000 0.000000 0.593404
    13 0.928313 0.000000 -0.000001 0.000000 0.000000 1.204231
    14 2.979373 -0.388274 -0.044205 -0.030851 -0.030823 0.768363
    15 1.435262 -0.000001 -0.000001 0.000000 0.000000 0.418706
    16 1.482593 -0.000001 0.000001 0.000000 0.000000 0.794048
    17 -2.975371 1.071532 -4.156022 -1.569180 0.892704 -4.936661
    18 4.972047 0.000000 0.000000 1.124972 0.711042 -1.582937
    19 11.585358 0.000000 0.000001 0.000000 0.000000 -0.719091
    20 10.127058 0.000000 0.000001 1.865675 0.354616 0.425335
    21 1.537458 0.109715 1.664489 -3.079588 0.031470 0.928526
    22 0.928313 0.000000 0.000002 0.000000 0.000000 0.061034
    23 0.928311 0.000000 0.000001 0.000000 0.000000 0.671897
    24 2.686395 -0.427337 0.044204 -0.001208 0.043611 -0.052337
    25 1.435260 0.000000 0.000001 0.000000 0.000000 1.186618
    26 1.482593 0.000000 -0.000001 0.000000 0.000000 1.684243
    27 2.046984 0.000001 0.000000 0.177674 0.573075 -1.030142
    28 -0.000005 0.000007 3.713254 -3.211451 -0.114278 1.238974
    29 18.045723 0.000000 0.000000 0.000000 0.000000 -1.756985
    30 17.597597 0.000000 0.000000 -0.219173 0.110535 -0.140439
    31 0.000005 -0.000003 -3.713254 0.827643 2.444220 5.464986
    32 18.045721 0.000000 0.000000 0.000000 0.000000 -2.608117
    33 17.597597 0.000000 0.000000 0.356013 -0.157405 0.773060
end
