version 1
nodes
  0 "Bip01" -1
  1 "Bip01 Pelvis" 0
  2 "Bip01 Spine" 1
  3 "Bip01 Spine1" 2
  4 "Bip01 Spine2" 3
  5 "Bip01 Spine3" 4
  6 "Bip01 Neck" 5
  7 "Bip01 L Arm" 6
  8 "Bip01 L Arm1" 7
  9 "Bip01 L Arm2" 8
  10 "Bip01 L Hand" 9
  11 "Bip01 L Finger0" 10
  12 "Bip01 L Finger01" 11
  13 "Bip01 L Finger02" 12
  14 "Bip01 L Finger1" 10
  15 "Bip01 L Finger11" 14
  16 "Bip01 L Finger12" 15
  17 "Bip01 R Arm" 6
  18 "Bip01 R Arm1" 17
  19 "Bip01 R Arm2" 18
  20 "Bip01 R Hand" 19
  21 "Bip01 R Finger0" 20
  22 "Bip01 R Finger01" 21
  23 "Bip01 R Finger02" 22
  24 "Bip01 R Finger1" 20
  25 "Bip01 R Finger11" 24
  26 "Bip01 R Finger12" 25
  27 "Bip01 Head" 6
  28 "Bip01 L Leg" 1
  29 "Bip01 L Leg1" 28
  30 "Bip01 L Foot" 29
  31 "Bip01 R Leg" 1
  32 "Bip01 R Leg1" 31
  33 "Bip01 R Foot" 32
end
skeleton
  time 0
    0 0.704112 -0.839718 -20.600716 0.000000 0.000000 -1.585458
    1 -3.187601 -0.105472 0.000000 -1.570795 -1.570787 0.000000
    2 1.293670 0.684478 -0.000001 0.005437 0.021967 0.240379
    3 5.309685 -0.003834 0.000000 -0.268904 0.001942 0.114966
    4 4.826790 -0.004591 0.000000 -0.337387 0.036122 -0.095944
    5 5.792767 -0.005304 0.000000 -0.539038 0.123429 -0.074743
    6 6.662322 -0.001452 0.000000 0.000000 -0.000001 0.471000
    7 -3.108188 1.516823 4.339626 -0.629183 -1.325132 -2.998565
    8 4.827512 0.000000 -0.000002 -0.761540 0.271590 -0.091010
    9 11.140032 0.000000 0.000000 0.000000 0.000000 -1.091845
    10 10.314563 -0.000001 0.000001 -1.721678 0.223596 -0.085107
    11 1.646836 0.445664 -1.699647 0.153911 0.442352 0.277231
    12 0.928312 0.000000 0.000000 0.000000 0.000000 0.000000
    13 0.928313 0.000000 -0.000001 0.000000 0.000000 0.000000
    14 2.979373 -0.388274 -0.044205 -0.038161 -0.021140 1.047514
    15 1.435262 -0.000001 -0.000001 0.000000 0.000000 0.924803
    16 1.482593 -0.000001 0.000001 0.000000 0.000000 1.326263
    17 -2.869899 1.399667 -4.140396 2.176146 1.283800 -1.417600
    18 4.972047 0.000000 0.000000 1.716560 -1.169216 -0.426271
    19 11.585358 0.000000 0.000001 0.000000 0.000000 -1.422927
    20 10.127058 0.000000 0.000001 1.920372 0.264118 0.270318
    21 1.537458 0.109715 1.664489 -0.264662 -0.055995 0.783079
    22 0.928313 0.000000 0.000002 0.000000 0.000000 -0.453501
    23 0.928311 0.000000 0.000001 0.000000 0.000000 0.000000
    24 2.686395 -0.427337 0.044204 0.005971 0.043227 0.113528
    25 1.435260 0.000000 0.000001 0.000000 0.000000 1.090194
    26 1.482593 0.000000 -0.000001 0.000000 0.000000 1.168644
    27 2.046984 0.000001 0.000000 0.976862 0.373219 -0.837985
    28 -0.000005 0.000007 3.713254 -3.300901 -0.158284 1.249135
    29 18.045723 0.000000 0.000000 0.000000 0.000000 -1.751286
    30 17.597597 0.000000 0.000000 -0.262250 0.206192 -0.147591
    31 0.000005 -0.000003 -3.713254 0.769083 2.286806 5.487899
    32 18.045721 0.000000 0.000000 0.000000 0.000000 -2.679121
    33 17.597597 0.000000 0.000000 0.348766 0.073952 0.738789
  time 1
    0 0.567389 -0.617055 -20.600716 0.000000 0.000000 -1.585458
    1 -3.187601 -0.105472 0.000000 -1.570795 -1.570787 0.000000
    2 1.293670 0.684478 -0.000001 0.006229 0.024687 0.244514
    3 5.309685 -0.003834 0.000000 -0.234699 -0.009899 0.116450
    4 4.826790 -0.004591 0.000000 -0.249264 0.002685 -0.071691
    5 5.792767 -0.005304 0.000000 -0.373084 0.054841 -0.037640
    6 6.662322 -0.001452 0.000000 0.000000 -0.000001 0.471000
    7 -3.108188 1.516823 4.339626 -0.526141 -1.324629 -3.100515
    8 4.827512 0.000000 -0.000002 -0.970558 0.133958 -0.498441
    9 11.140032 0.000000 0.000000 0.000000 0.000000 -0.867022
    10 10.314563 -0.000001 0.000001 -1.721678 0.223596 -0.085107
    11 1.646836 0.445664 -1.699647 0.153911 0.442352 0.277231
    12 0.928312 0.000000 0.000000 0.000000 0.000000 0.000000
    13 0.928313 0.000000 -0.000001 0.000000 0.000000 0.000000
    14 2.979373 -0.388274 -0.044205 -0.038161 -0.021140 1.047514
    15 1.435262 -0.000001 -0.000001 0.000000 0.000000 0.924803
    16 1.482593 -0.000001 0.000001 0.000000 0.000000 1.326263
    17 -2.869899 1.399667 -4.140396 2.417459 1.286824 -1.175563
    18 4.972047 0.000000 0.000000 1.886804 -0.816803 -0.211497
    19 11.585358 0.000000 0.000001 0.000000 0.000000 -1.245926
    20 10.127058 0.000000 0.000001 1.938183 0.432820 0.294429
    21 1.537458 0.109715 1.664489 -0.264662 -0.055995 0.783079
    22 0.928313 0.000000 0.000002 0.000000 0.000000 -0.453501
    23 0.928311 0.000000 0.000001 0.000000 0.000000 0.000000
    24 2.686395 -0.427337 0.044204 0.005971 0.043227 0.113528
    25 1.435260 0.000000 0.000001 0.000000 0.000000 1.090194
    26 1.482593 0.000000 -0.000001 0.000000 0.000000 1.168644
    27 2.046984 0.000001 0.000000 0.782472 0.325748 -0.900151
    28 -0.000005 0.000007 3.713254 -3.296970 -0.161256 1.250286
    29 18.045723 0.000000 0.000000 0.000000 0.000000 -1.737001
    30 17.597597 0.000000 0.000000 -0.257892 0.203313 -0.160290
    31 0.000005 -0.000003 -3.713254 0.794769 2.294955 5.480709
    32 18.045721 0.000000 0.000000 0.000000 0.000000 -2.676917
    33 17.597597 0.000000 0.000000 0.368393 0.048292 0.740128
  time 2
    0 0.286130 -0.355329 -20.600716 0.000000 0.000000 -1.585458
    1 -3.187601 -0.105472 0.000000 -1.570795 -1.570787 0.000000
    2 1.293670 0.684478 -0.000001 0.007542 0.029014 0.251043
    3 5.309685 -0.003834 0.000000 -0.181079 -0.028595 0.117969
    4 4.826790 -0.004591 0.000000 -0.118814 -0.048669 -0.040426
    5 5.792767 -0.005304 0.000000 -0.132390 -0.052217 -0.005686
    6 6.662322 -0.001452 0.000000 0.000000 -0.000001 0.471000
    7 -3.108188 1.516823 4.339626 -0.295039 -1.313718 -3.327605
    8 4.827512 0.000000 -0.000002 -1.054659 0.023699 -0.995814
    9 11.140032 0.000000 0.000000 0.000000 0.000000 -0.722984
    10 10.314563 -0.000001 0.000001 -1.721678 0.223596 -0.085107
    11 1.646836 0.445664 -1.699647 0.153911 0.442352 0.277231
    12 0.928312 0.000000 0.000000 0.000000 0.000000 0.000000
    13 0.928313 0.000000 -0.000001 0.000000 0.000000 0.000000
    14 2.979373 -0.388274 -0.044205 -0.038161 -0.021140 1.047514
    15 1.435262 -0.000001 -0.000001 0.000000 0.000000 0.924803
    16 1.482593 -0.000001 0.000001 0.000000 0.000000 1.326263
    17 -2.869899 1.399667 -4.140396 2.740452 1.270866 -0.856807
    18 4.972047 0.000000 0.000000 1.796851 -0.303370 0.220381
    19 11.585358 0.000000 0.000001 0.000000 0.000000 -1.096534
    20 10.127058 0.000000 0.000001 1.965742 0.648994 0.324642
    21 1.537458 0.109715 1.664489 -0.264662 -0.055995 0.783079
    22 0.928313 0.000000 0.000002 0.000000 0.000000 -0.453501
    23 0.928311 0.000000 0.000001 0.000000 0.000000 0.000000
    24 2.686395 -0.427337 0.044204 0.005971 0.043227 0.113528
    25 1.435260 0.000000 0.000001 0.000000 0.000000 1.090194
    26 1.482593 0.000000 -0.000001 0.000000 0.000000 1.168644
    27 2.046984 0.000001 0.000000 0.501528 0.246059 -0.942245
    28 -0.000005 0.000007 3.713254 -3.288629 -0.168255 1.251148
    29 18.045723 0.000000 0.000000 0.000000 0.000000 -1.720718
    30 17.597597 0.000000 0.000000 -0.248288 0.197579 -0.174915
    31 0.000005 -0.000003 -3.713254 0.839815 2.314895 5.485406
    32 18.045721 0.000000 0.000000 0.000000 0.000000 -2.671879
    33 17.597597 0.000000 0.000000 0.393590 0.013342 0.752506
  time 3
    0 0.012684 -0.218606 -20.600716 0.000000 0.000000 -1.585458
    1 -3.187601 -0.105472 0.000000 -1.570795 -1.570787 0.000000
    2 1.293670 0.684478 -0.000001 0.009176 0.034179 0.258928
    3 5.309685 -0.003834 0.000000 -0.116158 -0.051342 0.118481
    4 4.826790 -0.004591 0.000000 0.012837 -0.087955 -0.012602
    5 5.792767 -0.005304 0.000000 0.076790 -0.131099 -0.003070
    6 6.662322 -0.001452 0.000000 0.000000 -0.000001 0.471000
    7 -3.108188 1.516823 4.339626 0.085497 -1.256384 -3.694493
    8 4.827512 0.000000 -0.000002 -0.812160 0.146238 -1.143813
    9 11.140032 0.000000 0.000000 0.000000 0.000000 -1.099525
    10 10.314563 -0.000001 0.000001 -1.721678 0.223596 -0.085107
    11 1.646836 0.445664 -1.699647 0.153911 0.442352 0.277231
    12 0.928312 0.000000 0.000000 0.000000 0.000000 0.000000
    13 0.928313 0.000000 -0.000001 0.000000 0.000000 0.000000
    14 2.979373 -0.388274 -0.044205 -0.038161 -0.021140 1.047514
    15 1.435262 -0.000001 -0.000001 0.000000 0.000000 0.924803
    16 1.482593 -0.000001 0.000001 0.000000 0.000000 1.326263
    17 -2.869899 1.399667 -4.140396 3.012240 1.266712 -0.595327
    18 4.972047 0.000000 0.000000 1.319042 -0.018772 0.154291
    19 11.585358 0.000000 0.000001 0.000000 0.000000 -1.375226
    20 10.127058 0.000000 0.000001 1.950034 0.744598 0.287326
    21 1.537458 0.109715 1.664489 -0.264662 -0.055995 0.783079
    22 0.928313 0.000000 0.000002 0.000000 0.000000 -0.453501
    23 0.928311 0.000000 0.000001 0.000000 0.000000 0.000000
    24 2.686395 -0.427337 0.044204 0.005971 0.043227 0.113528
    25 1.435260 0.000000 0.000001 0.000000 0.000000 1.090194
    26 1.482593 0.000000 -0.000001 0.000000 0.000000 1.168644
    27 2.046984 0.000001 0.000000 0.244883 0.159201 -0.932330
    28 -0.000005 0.000007 3.713254 -3.280576 -0.175350 1.251244
    29 18.045723 0.000000 0.000000 0.000000 0.000000 -1.711466
    30 17.597597 0.000000 0.000000 -0.238862 0.192116 -0.183214
    31 0.000005 -0.000003 -3.713254 0.877864 2.335507 5.498540
    32 18.045721 0.000000 0.000000 0.000000 0.000000 -2.666604
    33 17.597597 0.000000 0.000000 0.409360 -0.011352 0.768903
  time 4
    0 -0.065443 -0.117040 -20.600716 0.000000 0.000000 -1.585458
    1 -3.187601 -0.105472 0.000000 -1.570795 -1.570787 0.000000
    2 1.293670 0.684478 -0.000001 0.011754 0.042077 0.270948
    3 5.309685 -0.003834 0.000000 -0.017357 -0.085798 0.116397
    4 4.826790 -0.004591 0.000000 0.155170 -0.086373 0.018773
    5 5.792767 -0.005304 0.000000 0.197074 -0.113854 -0.024580
    6 6.662322 -0.001452 0.000000 0.000000 -0.000001 0.471000
    7 -3.108188 1.516823 4.339626 0.313723 -1.178942 -3.904622
    8 4.827512 0.000000 -0.000002 -0.578191 0.323436 -1.159237
    9 11.140032 0.000000 0.000000 0.000000 0.000000 -1.522073
    10 10.314563 -0.000001 0.000001 -1.721678 0.223596 -0.085107
    11 1.646836 0.445664 -1.699647 0.153911 0.442352 0.277231
    12 0.928312 0.000000 0.000000 0.000000 0.000000 0.000000
    13 0.928313 0.000000 -0.000001 0.000000 0.000000 0.000000
    14 2.979373 -0.388274 -0.044205 -0.038161 -0.021140 1.047514
    15 1.435262 -0.000001 -0.000001 0.000000 0.000000 0.924803
    16 1.482593 -0.000001 0.000001 0.000000 0.000000 1.326263
    17 -2.869899 1.399667 -4.140396 3.333227 1.328310 -0.285669
    18 4.972047 0.000000 0.000000 0.375710 0.538612 -0.706403
    19 11.585358 0.000000 0.000001 0.000000 0.000000 -0.910631
    20 10.127058 0.000000 0.000001 1.846601 0.547337 0.109249
    21 1.537458 0.109715 1.664489 -0.264662 -0.055995 0.783079
    22 0.928313 0.000000 0.000002 0.000000 0.000000 -0.453501
    23 0.928311 0.000000 0.000001 0.000000 0.000000 0.000000
    24 2.686395 -0.427337 0.044204 0.005971 0.043227 0.113528
    25 1.435260 0.000000 0.000001 0.000000 0.000000 1.090194
    26 1.482593 0.000000 -0.000001 0.000000 0.000000 1.168644
    27 2.046984 0.000001 0.000000 -0.008143 0.011241 -0.896806
    28 -0.000005 0.000007 3.713254 -3.278467 -0.177172 1.251819
    29 18.045723 0.000000 0.000000 0.000000 0.000000 -1.705027
    30 17.597597 0.000000 0.000000 -0.236378 0.190467 -0.188853
    31 0.000005 -0.000003 -3.713254 0.890899 2.340779 5.497390
    32 18.045721 0.000000 0.000000 0.000000 0.000000 -2.664558
    33 17.597597 0.000000 0.000000 0.417513 -0.023246 0.770243
  time 5
    0 -0.065443 0.027496 -20.600716 0.000000 0.000000 -1.585458
    1 -3.187601 -0.105472 0.000000 -1.570795 -1.570787 0.000000
    2 1.293670 0.684478 -0.000001 0.014129 0.049064 0.281679
    3 5.309685 -0.003834 0.000000 0.071131 -0.116251 0.111663
    4 4.826790 -0.004591 0.000000 0.263016 -0.070134 0.056189
    5 5.792767 -0.005304 0.000000 0.252674 -0.063207 -0.028857
    6 6.662322 -0.001452 0.000000 0.000000 -0.000001 0.471000
    7 -3.108188 1.516823 4.339626 0.335099 -1.155080 -3.921869
    8 4.827512 0.000000 -0.000002 -0.617810 0.425594 -1.339383
    9 11.140032 0.000000 0.000000 0.000000 0.000000 -1.591121
    10 10.314563 -0.000001 0.000001 -1.727270 0.219755 -0.110422
    11 1.646836 0.445664 -1.699647 0.153911 0.442352 0.277231
    12 0.928312 0.000000 0.000000 0.000000 0.000000 0.000000
    13 0.928313 0.000000 -0.000001 0.000000 0.000000 0.000000
    14 2.979373 -0.388274 -0.044205 -0.038161 -0.021140 1.047514
    15 1.435262 -0.000001 -0.000001 0.000000 0.000000 0.924803
    16 1.482593 -0.000001 0.000001 0.000000 0.000000 1.326263
    17 -2.869899 1.399667 -4.140396 3.833050 1.367273 0.209419
    18 4.972047 0.000000 0.000000 -0.147311 0.124411 -0.559582
    19 11.585358 0.000000 0.000001 0.000000 0.000000 -1.466870
    20 10.127058 0.000000 0.000001 1.792396 0.282274 -0.043217
    21 1.537458 0.109715 1.664489 -0.264662 -0.055995 0.783079
    22 0.928313 0.000000 0.000002 0.000000 0.000000 -0.453501
    23 0.928311 0.000000 0.000001 0.000000 0.000000 0.000000
    24 2.686395 -0.427337 0.044204 0.005971 0.043227 0.113528
    25 1.435260 0.000000 0.000001 0.000000 0.000000 1.090194
    26 1.482593 0.000000 -0.000001 0.000000 0.000000 1.168644
    27 2.046984 0.000001 0.000000 -0.255008 -0.152297 -0.925700
    28 -0.000005 0.000007 3.713254 -3.279138 -0.176213 1.253545
    29 18.045723 0.000000 0.000000 0.000000 0.000000 -1.695405
    30 17.597597 0.000000 0.000000 -0.237240 0.190762 -0.196968
    31 0.000005 -0.000003 -3.713254 0.895403 2.337520 5.483776
    32 18.045721 0.000000 0.000000 0.000000 0.000000 -2.663771
    33 17.597597 0.000000 0.000000 0.427176 -0.035001 0.760682
  time 6
    0 -0.061537 0.207189 -20.600716 0.000000 0.000000 -1.585458
    1 -3.187601 -0.105472 0.000000 -1.570795 -1.570787 0.000000
    2 1.293670 0.684478 -0.000001 0.014685 0.050682 0.284190
    3 5.309685 -0.003834 0.000000 0.084303 -0.122566 0.110568
    4 4.826790 -0.004591 0.000000 0.260327 -0.059420 0.094443
    5 5.792767 -0.005304 0.000000 0.250317 -0.047699 0.026746
    6 6.662322 -0.001452 0.000000 0.000000 -0.000001 0.471000
    7 -3.108188 1.516823 4.339626 0.313723 -1.178942 -3.904622
    8 4.827512 0.000000 -0.000002 -0.663727 0.352259 -1.482962
    9 11.140032 0.000000 0.000000 0.000000 0.000000 -1.522073
    10 10.314563 -0.000001 0.000001 -1.721678 0.223596 -0.085107
    11 1.646836 0.445664 -1.699647 0.153911 0.442352 0.277231
    12 0.928312 0.000000 0.000000 0.000000 0.000000 0.000000
    13 0.928313 0.000000 -0.000001 0.000000 0.000000 0.000000
    14 2.979373 -0.388274 -0.044205 -0.038161 -0.021140 1.047514
    15 1.435262 -0.000001 -0.000001 0.000000 0.000000 0.924803
    16 1.482593 -0.000001 0.000001 0.000000 0.000000 1.326263
    17 -2.869899 1.399667 -4.140396 -1.940416 1.354653 -5.561723
    18 4.972047 0.000000 0.000000 -0.343444 0.060693 -0.580547
    19 11.585358 0.000000 0.000001 0.000000 0.000000 -1.514980
    20 10.127058 0.000000 0.000001 1.793938 0.026951 -0.162468
    21 1.537458 0.109715 1.664489 -0.264662 -0.055995 0.783079
    22 0.928313 0.000000 0.000002 0.000000 0.000000 -0.453501
    23 0.928311 0.000000 0.000001 0.000000 0.000000 0.000000
    24 2.686395 -0.427337 0.044204 0.005971 0.043227 0.113528
    25 1.435260 0.000000 0.000001 0.000000 0.000000 1.090194
    26 1.482593 0.000000 -0.000001 0.000000 0.000000 1.168644
    27 2.046984 0.000001 0.000000 -0.336305 -0.235172 -1.099670
    28 -0.000005 0.000007 3.713254 -3.280096 -0.175158 1.255654
    29 18.045723 0.000000 0.000000 0.000000 0.000000 -1.683341
    30 17.597597 0.000000 0.000000 -0.238076 0.191033 -0.206917
    31 0.000005 -0.000003 -3.713254 0.901154 2.333877 5.467383
    32 18.045721 0.000000 0.000000 0.000000 0.000000 -2.662590
    33 17.597597 0.000000 0.000000 0.439221 -0.049340 0.748950
  time 7
    0 0.020497 0.343911 -20.600716 0.000000 0.000000 -1.585458
    1 -3.187601 -0.105472 0.000000 -1.570795 -1.570787 0.000000
    2 1.293670 0.684478 -0.000001 0.014129 0.049064 0.281679
    3 5.309685 -0.003834 0.000000 0.071131 -0.116251 0.111663
    4 4.826790 -0.004591 0.000000 0.213976 -0.041563 0.124605
    5 5.792767 -0.005304 0.000000 0.203675 -0.030573 0.076099
    6 6.662322 -0.001452 0.000000 0.000000 -0.000001 0.471000
    7 -3.108188 1.516823 4.339626 0.322158 -1.237312 -3.918995
    8 4.827512 0.000000 -0.000002 -0.558501 0.252745 -1.579838
    9 11.140032 0.000000 0.000000 0.000000 0.000000 -1.434549
    10 10.314563 -0.000001 0.000001 -1.695046 0.239426 0.030846
    11 1.646836 0.445664 -1.699647 0.153911 0.442352 0.277231
    12 0.928312 0.000000 0.000000 0.000000 0.000000 0.000000
    13 0.928313 0.000000 -0.000001 0.000000 0.000000 0.000000
    14 2.979373 -0.388274 -0.044205 -0.038161 -0.021140 1.047514
    15 1.435262 -0.000001 -0.000001 0.000000 0.000000 0.924803
    16 1.482593 -0.000001 0.000001 0.000000 0.000000 1.326263
    17 -2.869899 1.399667 -4.140396 -1.644172 1.361068 -5.259249
    18 4.972047 0.000000 0.000000 -0.095253 -0.243108 -0.500015
    19 11.585358 0.000000 0.000001 0.000000 0.000000 -1.515633
    20 10.127058 0.000000 0.000001 1.888816 -0.135038 -0.213890
    21 1.537458 0.109715 1.664489 -0.264662 -0.055995 0.783079
    22 0.928313 0.000000 0.000002 0.000000 0.000000 -0.453501
    23 0.928311 0.000000 0.000001 0.000000 0.000000 0.000000
    24 2.686395 -0.427337 0.044204 0.005971 0.043227 0.113528
    25 1.435260 0.000000 0.000001 0.000000 0.000000 1.090194
    26 1.482593 0.000000 -0.000001 0.000000 0.000000 1.168644
    27 2.046984 0.000001 0.000000 -0.328421 -0.259719 -1.302108
    28 -0.000005 0.000007 3.713254 -3.283452 -0.171994 1.257667
    29 18.045723 0.000000 0.000000 0.000000 0.000000 -1.674533
    30 17.597597 0.000000 0.000000 -0.241801 0.192903 -0.213977
    31 0.000005 -0.000003 -3.713254 0.894828 2.324386 5.446963
    32 18.045721 0.000000 0.000000 0.000000 0.000000 -2.662905
    33 17.597597 0.000000 0.000000 0.446904 -0.055592 0.732738
  time 8
    0 0.231441 0.343911 -20.600716 0.000000 0.000000 -1.585458
    1 -3.187601 -0.105472 0.000000 -1.570795 -1.570787 0.000000
    2 1.293670 0.684478 -0.000001 0.012596 0.044582 0.274815
    3 5.309685 -0.003834 0.000000 0.063593 -0.101006 0.113041
    4 4.826790 -0.004591 0.000000 0.179337 -0.009060 0.144845
    5 5.792767 -0.005304 0.000000 0.121255 0.009767 0.046180
    6 6.662322 -0.001452 0.000000 0.000000 -0.000001 0.471000
    7 -3.108188 1.516823 4.339626 0.339124 -1.307124 -3.941608
    8 4.827512 0.000000 -0.000002 -0.436295 0.247799 -1.648898
    9 11.140032 0.000000 0.000000 0.000000 0.000000 -1.329709
    10 10.314563 -0.000001 0.000001 -1.660832 0.254133 0.170662
    11 1.646836 0.445664 -1.699647 0.153911 0.442352 0.277231
    12 0.928312 0.000000 0.000000 0.000000 0.000000 0.000000
    13 0.928313 0.000000 -0.000001 0.000000 0.000000 0.000000
    14 2.979373 -0.388274 -0.044205 -0.038161 -0.021140 1.047514
    15 1.435262 -0.000001 -0.000001 0.000000 0.000000 0.924803
    16 1.482593 -0.000001 0.000001 0.000000 0.000000 1.326263
    17 -2.869899 1.399667 -4.140396 -1.344107 1.380497 -4.953327
    18 4.972047 0.000000 0.000000 0.206403 -0.567720 -0.405839
    19 11.585358 0.000000 0.000001 0.000000 0.000000 -1.552716
    20 10.127058 0.000000 0.000001 2.025978 -0.257876 -0.248405
    21 1.537458 0.109715 1.664489 -0.264662 -0.055995 0.783079
    22 0.928313 0.000000 0.000002 0.000000 0.000000 -0.453501
    23 0.928311 0.000000 0.000001 0.000000 0.000000 0.000000
    24 2.686395 -0.427337 0.044204 0.005971 0.043227 0.113528
    25 1.435260 0.000000 0.000001 0.000000 0.000000 1.090194
    26 1.482593 0.000000 -0.000001 0.000000 0.000000 1.168644
    27 2.046984 0.000001 0.000000 -0.281935 -0.253553 -1.404056
    28 -0.000005 0.000007 3.713254 -3.289780 -0.165762 1.258721
    29 18.045723 0.000000 0.000000 0.000000 0.000000 -1.674237
    30 17.597597 0.000000 0.000000 -0.249580 0.196939 -0.213840
    31 0.000005 -0.000003 -3.713254 0.867897 2.306842 5.424913
    32 18.045721 0.000000 0.000000 0.000000 0.000000 -2.666290
    33 17.597597 0.000000 0.000000 0.443448 -0.045553 0.713385
  time 9
    0 0.430666 0.199376 -20.600716 0.000000 0.000000 -1.585458
    1 -3.187601 -0.105472 0.000000 -1.570795 -1.570787 0.000000
    2 1.293670 0.684478 -0.000001 0.010457 0.038050 0.264854
    3 5.309685 -0.003834 0.000000 0.048941 -0.078679 0.114966
    4 4.826790 -0.004591 0.000000 0.113721 0.016035 0.130315
    5 5.792767 -0.005304 0.000000 0.017466 0.033964 0.001664
    6 6.662322 -0.001452 0.000000 0.000000 -0.000001 0.471000
    7 -3.108188 1.516823 4.339626 0.374303 -1.383324 -3.981756
    8 4.827512 0.000000 -0.000002 -0.278854 0.298110 -1.663975
    9 11.140032 0.000000 0.000000 0.000000 0.000000 -1.215233
    10 10.314563 -0.000001 0.000001 -1.621216 0.264811 0.324646
    11 1.646836 0.445664 -1.699647 0.153911 0.442352 0.277231
    12 0.928312 0.000000 0.000000 0.000000 0.000000 0.000000
    13 0.928313 0.000000 -0.000001 0.000000 0.000000 0.000000
    14 2.979373 -0.388274 -0.044205 -0.038161 -0.021140 1.047514
    15 1.435262 -0.000001 -0.000001 0.000000 0.000000 0.924803
    16 1.482593 -0.000001 0.000001 0.000000 0.000000 1.326263
    17 -2.869899 1.399667 -4.140396 -1.000479 1.384466 -4.605836
    18 4.972047 0.000000 0.000000 0.180515 -0.607252 -0.508134
    19 11.585358 0.000000 0.000001 0.000000 0.000000 -1.353499
    20 10.127058 0.000000 0.000001 2.177236 -0.369746 -0.296276
    21 1.537458 0.109715 1.664489 -0.264662 -0.055995 0.783079
    22 0.928313 0.000000 0.000002 0.000000 0.000000 -0.453501
    23 0.928311 0.000000 0.000001 0.000000 0.000000 0.000000
    24 2.686395 -0.427337 0.044204 0.005971 0.043227 0.113528
    25 1.435260 0.000000 0.000001 0.000000 0.000000 1.090194
    26 1.482593 0.000000 -0.000001 0.000000 0.000000 1.168644
    27 2.046984 0.000001 0.000000 -0.119512 -0.146426 -1.356367
    28 -0.000005 0.000007 3.713254 -3.295149 -0.160489 1.258050
    29 18.045723 0.000000 0.000000 0.000000 0.000000 -1.683785
    30 17.597597 0.000000 0.000000 -0.256523 0.200557 -0.205587
    31 0.000005 -0.000003 -3.713254 0.836652 2.292558 5.416764
    32 18.045721 0.000000 0.000000 0.000000 0.000000 -2.670776
    33 17.597597 0.000000 0.000000 0.428887 -0.024251 0.703917
  time 10
    0 0.450198 -0.148291 -20.600716 0.000000 0.000000 -1.585458
    1 -3.187601 -0.105472 0.000000 -1.570795 -1.570787 0.000000
    2 1.293670 0.684478 -0.000001 0.007964 0.030356 0.253052
    3 5.309685 -0.003834 0.000000 0.022497 -0.051390 0.116962
    4 4.826790 -0.004591 0.000000 -0.021802 -0.001354 0.042718
    5 5.792767 -0.005304 0.000000 -0.084129 0.008509 0.001664
    6 6.662322 -0.001452 0.000000 0.000000 -0.000001 0.471000
    7 -3.108188 1.516823 4.339626 0.463638 -1.460736 -4.074700
    8 4.827512 0.000000 -0.000002 -0.044884 0.416982 -1.582524
    9 11.140032 0.000000 0.000000 0.000000 0.000000 -1.098220
    10 10.314563 -0.000001 0.000001 -1.579514 0.269495 0.482578
    11 1.646836 0.445664 -1.699647 0.153911 0.442352 0.277231
    12 0.928312 0.000000 0.000000 0.000000 0.000000 0.000000
    13 0.928313 0.000000 -0.000001 0.000000 0.000000 0.000000
    14 2.979373 -0.388274 -0.044205 -0.038161 -0.021140 1.047514
    15 1.435262 -0.000001 -0.000001 0.000000 0.000000 0.924803
    16 1.482593 -0.000001 0.000001 0.000000 0.000000 1.326263
    17 -2.869899 1.399667 -4.140396 -0.677008 1.367325 -4.280279
    18 4.972047 0.000000 0.000000 0.190739 -0.675468 -0.863407
    19 11.585358 0.000000 0.000001 0.000000 0.000000 -0.904750
    20 10.127058 0.000000 0.000001 2.342518 -0.472348 -0.363755
    21 1.537458 0.109715 1.664489 -0.264662 -0.055995 0.783079
    22 0.928313 0.000000 0.000002 0.000000 0.000000 -0.453501
    23 0.928311 0.000000 0.000001 0.000000 0.000000 0.000000
    24 2.686395 -0.427337 0.044204 0.005971 0.043227 0.113528
    25 1.435260 0.000000 0.000001 0.000000 0.000000 1.090194
    26 1.482593 0.000000 -0.000001 0.000000 0.000000 1.168644
    27 2.046984 0.000001 0.000000 0.039593 0.063403 -1.259832
    28 -0.000005 0.000007 3.713254 -3.294190 -0.161256 1.254216
    29 18.045723 0.000000 0.000000 0.000000 0.000000 -1.706729
    30 17.597597 0.000000 0.000000 -0.256245 0.200261 -0.186515
    31 0.000005 -0.000003 -3.713254 0.823330 2.296681 5.447058
    32 18.045721 0.000000 0.000000 0.000000 0.000000 -2.673453
    33 17.597597 0.000000 0.000000 0.404159 0.004525 0.723454
  time 11
    0 0.368164 -0.546741 -20.600716 0.000000 0.000000 -1.585458
    1 -3.187601 -0.105472 0.000000 -1.570795 -1.570787 0.000000
    2 1.293670 0.684478 -0.000001 0.005437 0.021967 0.240379
    3 5.309685 -0.003834 0.000000 -0.008202 -0.021596 0.118287
    4 4.826790 -0.004591 0.000000 -0.178097 -0.047627 -0.064878
    5 5.792767 -0.005304 0.000000 -0.188296 -0.030992 0.017050
    6 6.662322 -0.001452 0.000000 0.000000 -0.000001 0.471000
    7 -3.108188 1.516823 4.339626 0.881461 -1.530697 -4.494575
    8 4.827512 0.000000 -0.000002 0.188208 0.591537 -1.451422
    9 11.140032 0.000000 0.000000 0.000000 0.000000 -0.986135
    10 10.314563 -0.000001 0.000001 -1.539424 0.267903 0.634066
    11 1.646836 0.445664 -1.699647 0.153911 0.442352 0.277231
    12 0.928312 0.000000 0.000000 0.000000 0.000000 0.000000
    13 0.928313 0.000000 -0.000001 0.000000 0.000000 0.000000
    14 2.979373 -0.388274 -0.044205 -0.038161 -0.021140 1.047514
    15 1.435262 -0.000001 -0.000001 0.000000 0.000000 0.924803
    16 1.482593 -0.000001 0.000001 0.000000 0.000000 1.326263
    17 -2.869899 1.399667 -4.140396 -0.677008 1.367325 -4.280279
    18 4.972047 0.000000 0.000000 0.134835 -0.827329 -1.104337
    19 11.585358 0.000000 0.000001 0.000000 0.000000 -0.904750
    20 10.127058 0.000000 0.000001 2.342518 -0.472348 -0.363755
    21 1.537458 0.109715 1.664489 -0.264662 -0.055995 0.783079
    22 0.928313 0.000000 0.000002 0.000000 0.000000 -0.453501
    23 0.928311 0.000000 0.000001 0.000000 0.000000 0.000000
    24 2.686395 -0.427337 0.044204 0.005971 0.043227 0.113528
    25 1.435260 0.000000 0.000001 0.000000 0.000000 1.090194
    26 1.482593 0.000000 -0.000001 0.000000 0.000000 1.168644
    27 2.046984 0.000001 0.000000 0.243979 0.287777 -1.114147
    28 -0.000005 0.000007 3.713254 -3.289300 -0.165475 1.249615
    29 18.045723 0.000000 0.000000 0.000000 0.000000 -1.732931
    30 17.597597 0.000000 0.000000 -0.251455 0.197505 -0.164508
    31 0.000005 -0.000003 -3.713254 0.821892 2.312307 5.493555
    32 18.045721 0.000000 0.000000 0.000000 0.000000 -2.673768
    33 17.597597 0.000000 0.000000 0.379969 0.033834 0.755924
end
