version 1
nodes
  0 "Bip01" -1
  1 "Bip01 Pelvis" 0
  2 "Bip01 Spine" 1
  3 "Bip01 Spine1" 2
  4 "Bip01 Spine2" 3
  5 "Bip01 Spine3" 4
  6 "Bip01 Neck" 5
  7 "Bip01 L Arm" 6
  8 "Bip01 L Arm1" 7
  9 "Bip01 L Arm2" 8
  10 "Bip01 L Hand" 9
  11 "Bip01 L Finger0" 10
  12 "Bip01 L Finger01" 11
  13 "Bip01 L Finger02" 12
  14 "Bip01 L Finger1" 10
  15 "Bip01 L Finger11" 14
  16 "Bip01 L Finger12" 15
  17 "Bip01 R Arm" 6
  18 "Bip01 R Arm1" 17
  19 "Bip01 R Arm2" 18
  20 "Bip01 R Hand" 19
  21 "Bip01 R Finger0" 20
  22 "Bip01 R Finger01" 21
  23 "Bip01 R Finger02" 22
  24 "Bip01 R Finger1" 20
  25 "Bip01 R Finger11" 24
  26 "Bip01 R Finger12" 25
  27 "Bip01 Head" 6
  28 "Bip01 L Leg" 1
  29 "Bip01 L Leg1" 28
  30 "Bip01 L Foot" 29
  31 "Bip01 R Leg" 1
  32 "Bip01 R Leg1" 31
  33 "Bip01 R Foot" 32
end
skeleton
  time 0
    0 -0.073256 -1.296764 -20.600716 0.000000 0.000000 -1.585458
    1 -3.757931 0.242195 0.000000 -1.570795 -1.570787 0.000000
    2 1.293670 0.684478 -0.000001 -0.000004 -0.000001 0.326143
    3 5.309685 -0.003834 0.000000 0.000000 0.000000 0.075488
    4 4.826790 -0.004591 0.000000 -0.167282 0.049484 0.188258
    5 5.792767 -0.005304 0.000000 -0.191030 0.036373 0.237426
    6 6.662322 -0.001452 0.000000 0.000000 -0.000001 0.471000
    7 -3.108188 1.516823 4.339626 1.021694 -1.200350 -4.603233
    8 4.827512 0.000000 -0.000002 -0.134407 0.361469 -1.236269
    9 11.140032 0.000000 0.000000 0.000000 0.000000 -0.683497
    10 10.314563 -0.000001 0.000001 -3.846658 0.217507 -0.462460
    11 1.646836 0.445664 -1.699647 -0.161704 0.581044 -0.283978
    12 0.928312 0.000000 0.000000 0.000000 0.000000 0.000000
    13 0.928313 0.000000 -0.000001 0.000000 0.000000 0.000000
    14 2.979373 -0.388274 -0.044205 -0.000805 -0.043611 0.000046
    15 1.435262 -0.000001 -0.000001 0.000000 0.000000 0.706400
    16 1.482593 -0.000001 0.000001 0.000000 0.000000 0.732610
    17 -2.869899 1.399667 -4.140396 0.820358 1.281881 -2.814267
    18 4.972047 0.000000 0.000000 -0.112043 -1.067815 -0.694822
    19 11.585358 0.000000 0.000001 0.000000 0.000000 -1.695819
    20 10.127058 0.000000 0.000001 1.766029 0.320667 0.209342
    21 1.537458 0.109715 1.664489 -0.264662 -0.055995 0.783079
    22 0.928313 0.000000 0.000002 0.000000 0.000000 -0.453501
    23 0.928311 0.000000 0.000001 0.000000 0.000000 0.000000
    24 2.686395 -0.427337 0.044204 -0.005762 0.043239 -0.157074
    25 1.435260 0.000000 0.000001 0.000000 0.000000 0.732613
    26 1.482593 0.000000 -0.000001 0.000000 0.000000 1.168644
    27 2.046984 0.000001 0.000000 0.321054 -0.173451 -0.345455
    28 -0.000005 0.000007 3.713254 -3.285753 -0.168639 1.247314
    29 18.045723 0.000000 0.000000 0.000000 0.000000 -1.745217
    30 17.597597 0.000000 0.000000 -0.247756 0.195364 -0.154009
    31 0.000005 -0.000003 -3.713254 0.823905 2.323907 5.517523
    32 18.045721 0.000000 0.000000 0.000000 0.000000 -2.672902
    33 17.597597 0.000000 0.000000 0.371010 0.047148 0.774307
  time 1
    0 -0.073256 -1.296764 -20.600716 0.000000 0.000000 -1.585458
    1 -3.836059 0.007813 0.000000 -1.570795 -1.570787 0.000000
    2 1.293670 0.684478 -0.000001 -0.000004 -0.000001 0.326143
    3 5.309685 -0.003834 0.000000 0.000000 0.000000 0.075488
    4 4.826790 -0.004591 0.000000 -0.273717 -0.000419 0.202457
    5 5.792767 -0.005304 0.000000 -0.397457 -0.060498 0.278038
    6 6.662322 -0.001452 0.000000 0.000000 -0.000001 0.471000
    7 -3.108188 1.516823 4.339626 1.021694 -1.200350 -4.603233
    8 4.827512 0.000000 -0.000002 0.225834 0.663508 -1.012104
    9 11.140032 0.000000 0.000000 0.000000 0.000000 -1.296960
    10 10.314563 -0.000001 0.000001 -3.353063 -0.533744 -0.267774
    11 1.646836 0.445664 -1.699647 -0.161704 0.581044 -0.283978
    12 0.928312 0.000000 0.000000 0.000000 0.000000 0.000000
    13 0.928313 0.000000 -0.000001 0.000000 0.000000 0.000000
    14 2.979373 -0.388274 -0.044205 -0.000805 -0.043611 0.000046
    15 1.435262 -0.000001 -0.000001 0.000000 0.000000 0.706400
    16 1.482593 -0.000001 0.000001 0.000000 0.000000 0.732610
    17 -2.869899 1.399667 -4.140396 1.314449 0.896174 -2.366303
    18 4.972047 0.000000 0.000000 -0.843390 -0.660845 -0.685371
    19 11.585358 0.000000 0.000001 0.000000 0.000000 -1.611770
    20 10.127058 0.000000 0.000001 1.454047 0.566817 -0.529976
    21 1.537458 0.109715 1.664489 -0.264662 -0.055995 0.783079
    22 0.928313 0.000000 0.000002 0.000000 0.000000 -0.453501
    23 0.928311 0.000000 0.000001 0.000000 0.000000 0.000000
    24 2.686395 -0.427337 0.044204 -0.005762 0.043239 -0.157074
    25 1.435260 0.000000 0.000001 0.000000 0.000000 0.732613
    26 1.482593 0.000000 -0.000001 0.000000 0.000000 1.168644
    27 2.046984 0.000001 0.000000 0.370556 -0.173923 -0.448498
    28 -0.000005 0.000007 3.713254 -3.278850 -0.174871 1.246931
    29 18.045723 0.000000 0.000000 0.000000 0.000000 -1.739740
    30 17.597597 0.000000 0.000000 -0.239597 0.190762 -0.159282
    31 0.000005 -0.000003 -3.713254 0.853520 2.342313 5.530081
    32 18.045721 0.000000 0.000000 0.000000 0.000000 -2.669045
    33 17.597597 0.000000 0.000000 0.383055 0.029416 0.790381
  time 2
    0 -0.073256 -1.296764 -20.600716 0.000000 0.000000 -1.585458
    1 -3.843871 0.000000 0.000000 -1.570795 -1.570787 0.000000
    2 1.293670 0.684478 -0.000001 -0.000004 -0.000001 0.326143
    3 5.309685 -0.003834 0.000000 0.000000 0.000000 0.075488
    4 4.826790 -0.004591 0.000000 -0.264409 -0.002373 0.202920
    5 5.792767 -0.005304 0.000000 -0.377958 -0.063650 0.279076
    6 6.662322 -0.001452 0.000000 0.000000 -0.000001 0.471000
    7 -3.108188 1.516823 4.339626 1.021694 -1.200350 -4.603233
    8 4.827512 0.000000 -0.000002 0.178961 0.565102 -0.994514
    9 11.140032 0.000000 0.000000 0.000000 0.000000 -1.364849
    10 10.314563 -0.000001 0.000001 -3.369364 -0.430611 -0.158789
    11 1.646836 0.445664 -1.699647 -0.161704 0.581044 -0.283978
    12 0.928312 0.000000 0.000000 0.000000 0.000000 0.000000
    13 0.928313 0.000000 -0.000001 0.000000 0.000000 0.000000
    14 2.979373 -0.388274 -0.044205 -0.000805 -0.043611 0.000046
    15 1.435262 -0.000001 -0.000001 0.000000 0.000000 0.706400
    16 1.482593 -0.000001 0.000001 0.000000 0.000000 0.732610
    17 -2.869899 1.399667 -4.140396 1.325053 0.875799 -2.358066
    18 4.972047 0.000000 0.000000 -0.719670 -0.710501 -0.831793
    19 11.585358 0.000000 0.000001 0.000000 0.000000 -1.542179
    20 10.127058 0.000000 0.000001 1.511409 0.589513 -0.567642
    21 1.537458 0.109715 1.664489 -0.264662 -0.055995 0.783079
    22 0.928313 0.000000 0.000002 0.000000 0.000000 -0.453501
    23 0.928311 0.000000 0.000001 0.000000 0.000000 0.000000
    24 2.686395 -0.427337 0.044204 -0.005762 0.043239 -0.157074
    25 1.435260 0.000000 0.000001 0.000000 0.000000 0.732613
    26 1.482593 0.000000 -0.000001 0.000000 0.000000 1.168644
    27 2.046984 0.000001 0.000000 0.414113 -0.140230 -0.431649
    28 -0.000005 0.000007 3.713254 -3.278467 -0.175158 1.246835
    29 18.045723 0.000000 0.000000 0.000000 0.000000 -1.739518
    30 17.597597 0.000000 0.000000 -0.239140 0.190541 -0.159419
    31 0.000005 -0.000003 -3.713254 0.855150 2.343464 5.530848
    32 18.045721 0.000000 0.000000 0.000000 0.000000 -2.668730
    33 17.597597 0.000000 0.000000 0.383559 0.028627 0.791304
  time 3
    0 -0.073256 -1.296764 -20.600716 0.000000 0.000000 -1.585458
    1 -3.836059 0.007813 0.000000 -1.570795 -1.570787 0.000000
    2 1.293670 0.684478 -0.000001 -0.000004 -0.000001 0.326143
    3 5.309685 -0.003834 0.000000 0.000000 0.000000 0.075488
    4 4.826790 -0.004591 0.000000 -0.241615 0.000384 0.201774
    5 5.792767 -0.005304 0.000000 -0.331856 -0.057730 0.275131
    6 6.662322 -0.001452 0.000000 0.000000 -0.000001 0.471000
    7 -3.108188 1.516823 4.339626 1.021694 -1.200350 -4.603233
    8 4.827512 0.000000 -0.000002 0.057392 0.406237 -1.001706
    9 11.140032 0.000000 0.000000 0.000000 0.000000 -1.355213
    10 10.314563 -0.000001 0.000001 -3.453905 -0.181537 -0.070823
    11 1.646836 0.445664 -1.699647 -0.161704 0.581044 -0.283978
    12 0.928312 0.000000 0.000000 0.000000 0.000000 0.000000
    13 0.928313 0.000000 -0.000001 0.000000 0.000000 0.000000
    14 2.979373 -0.388274 -0.044205 -0.000805 -0.043611 0.000046
    15 1.435262 -0.000001 -0.000001 0.000000 0.000000 0.706400
    16 1.482593 -0.000001 0.000001 0.000000 0.000000 0.732610
    17 -2.869899 1.399667 -4.140396 1.306806 0.910161 -2.372337
    18 4.972047 0.000000 0.000000 -0.470635 -0.806117 -1.011160
    19 11.585358 0.000000 0.000001 0.000000 0.000000 -1.471689
    20 10.127058 0.000000 0.000001 1.643593 0.594052 -0.492810
    21 1.537458 0.109715 1.664489 -0.264662 -0.055995 0.783079
    22 0.928313 0.000000 0.000002 0.000000 0.000000 -0.453501
    23 0.928311 0.000000 0.000001 0.000000 0.000000 0.000000
    24 2.686395 -0.427337 0.044204 -0.005762 0.043239 -0.157074
    25 1.435260 0.000000 0.000001 0.000000 0.000000 0.732613
    26 1.482593 0.000000 -0.000001 0.000000 0.000000 1.168644
    27 2.046984 0.000001 0.000000 0.416655 -0.115654 -0.407561
    28 -0.000005 0.000007 3.713254 -3.278562 -0.175062 1.246835
    29 18.045723 0.000000 0.000000 0.000000 0.000000 -1.739962
    30 17.597597 0.000000 0.000000 -0.239368 0.190639 -0.159098
    31 0.000005 -0.000003 -3.713254 0.854095 2.342888 5.530848
    32 18.045721 0.000000 0.000000 0.000000 0.000000 -2.668966
    33 17.597597 0.000000 0.000000 0.382988 0.029495 0.791074
  time 4
    0 -0.073256 -1.296764 -20.600716 0.000000 0.000000 -1.585458
    1 -3.824339 0.031251 0.000000 -1.570795 -1.570787 0.000000
    2 1.293670 0.684478 -0.000001 -0.000004 -0.000001 0.326143
    3 5.309685 -0.003834 0.000000 0.000000 0.000000 0.075488
    4 4.826790 -0.004591 0.000000 -0.212717 0.006232 0.199768
    5 5.792767 -0.005304 0.000000 -0.273917 -0.045817 0.268840
    6 6.662322 -0.001452 0.000000 0.000000 -0.000001 0.471000
    7 -3.108188 1.516823 4.339626 1.021694 -1.200350 -4.603233
    8 4.827512 0.000000 -0.000002 -0.078047 0.235690 -1.068254
    9 11.140032 0.000000 0.000000 0.000000 0.000000 -1.223492
    10 10.314563 -0.000001 0.000001 -3.531527 0.093953 -0.070475
    11 1.646836 0.445664 -1.699647 -0.161704 0.581044 -0.283978
    12 0.928312 0.000000 0.000000 0.000000 0.000000 0.000000
    13 0.928313 0.000000 -0.000001 0.000000 0.000000 0.000000
    14 2.979373 -0.388274 -0.044205 -0.000805 -0.043611 0.000046
    15 1.435262 -0.000001 -0.000001 0.000000 0.000000 0.706400
    16 1.482593 -0.000001 0.000001 0.000000 0.000000 0.732610
    17 -2.869899 1.399667 -4.140396 1.270886 0.969078 -2.401263
    18 4.972047 0.000000 0.000000 -0.150125 -0.859388 -1.221807
    19 11.585358 0.000000 0.000001 0.000000 0.000000 -1.409449
    20 10.127058 0.000000 0.000001 1.787767 0.573531 -0.374109
    21 1.537458 0.109715 1.664489 -0.264662 -0.055995 0.783079
    22 0.928313 0.000000 0.000002 0.000000 0.000000 -0.453501
    23 0.928311 0.000000 0.000001 0.000000 0.000000 0.000000
    24 2.686395 -0.427337 0.044204 -0.005762 0.043239 -0.157074
    25 1.435260 0.000000 0.000001 0.000000 0.000000 0.732613
    26 1.482593 0.000000 -0.000001 0.000000 0.000000 1.168644
    27 2.046984 0.000001 0.000000 0.400542 -0.095621 -0.382743
    28 -0.000005 0.000007 3.713254 -3.279138 -0.174487 1.246835
    29 18.045723 0.000000 0.000000 0.000000 0.000000 -1.740702
    30 17.597597 0.000000 0.000000 -0.240154 0.191033 -0.158411
    31 0.000005 -0.000003 -3.713254 0.851220 2.341259 5.529986
    32 18.045721 0.000000 0.000000 0.000000 0.000000 -2.669281
    33 17.597597 0.000000 0.000000 0.381680 0.031448 0.789780
  time 5
    0 -0.073256 -1.296764 -20.600716 0.000000 0.000000 -1.585458
    1 -3.812620 0.058596 0.000000 -1.570795 -1.570787 0.000000
    2 1.293670 0.684478 -0.000001 -0.000004 -0.000001 0.326143
    3 5.309685 -0.003834 0.000000 0.000000 0.000000 0.075488
    4 4.826790 -0.004591 0.000000 -0.185250 0.013303 0.197629
    5 5.792767 -0.005304 0.000000 -0.219181 -0.031472 0.262466
    6 6.662322 -0.001452 0.000000 0.000000 -0.000001 0.471000
    7 -3.108188 1.516823 4.339626 1.021694 -1.200350 -4.603233
    8 4.827512 0.000000 -0.000002 -0.159836 0.116562 -1.180553
    9 11.140032 0.000000 0.000000 0.000000 0.000000 -1.001640
    10 10.314563 -0.000001 0.000001 -3.575787 0.278488 -0.154725
    11 1.646836 0.445664 -1.699647 -0.161704 0.581044 -0.283978
    12 0.928312 0.000000 0.000000 0.000000 0.000000 0.000000
    13 0.928313 0.000000 -0.000001 0.000000 0.000000 0.000000
    14 2.979373 -0.388274 -0.044205 -0.000805 -0.043611 0.000046
    15 1.435262 -0.000001 -0.000001 0.000000 0.000000 0.706400
    16 1.482593 -0.000001 0.000001 0.000000 0.000000 0.732610
    17 -2.869899 1.399667 -4.140396 1.232291 1.022605 -2.433732
    18 4.972047 0.000000 0.000000 0.092438 -0.856656 -1.359511
    19 11.585358 0.000000 0.000001 0.000000 0.000000 -1.364525
    20 10.127058 0.000000 0.000001 1.881172 0.541285 -0.279318
    21 1.537458 0.109715 1.664489 -0.264662 -0.055995 0.783079
    22 0.928313 0.000000 0.000002 0.000000 0.000000 -0.453501
    23 0.928311 0.000000 0.000001 0.000000 0.000000 0.000000
    24 2.686395 -0.427337 0.044204 -0.005762 0.043239 -0.157074
    25 1.435260 0.000000 0.000001 0.000000 0.000000 0.732613
    26 1.482593 0.000000 -0.000001 0.000000 0.000000 1.168644
    27 2.046984 0.000001 0.000000 0.388436 -0.077506 -0.361027
    28 -0.000005 0.000007 3.713254 -3.280096 -0.173624 1.246835
    29 18.045723 0.000000 0.000000 0.000000 0.000000 -1.741516
    30 17.597597 0.000000 0.000000 -0.241168 0.191623 -0.157677
    31 0.000005 -0.000003 -3.713254 0.847482 2.338958 5.528547
    32 18.045721 0.000000 0.000000 0.000000 0.000000 -2.669832
    33 17.597597 0.000000 0.000000 0.380103 0.033854 0.787887
  time 6
    0 -0.073256 -1.296764 -20.600716 0.000000 0.000000 -1.585458
    1 -3.804808 0.082034 0.000000 -1.570795 -1.570787 0.000000
    2 1.293670 0.684478 -0.000001 -0.000004 -0.000001 0.326143
    3 5.309685 -0.003834 0.000000 0.000000 0.000000 0.075488
    4 4.826790 -0.004591 0.000000 -0.166557 0.019799 0.195865
    5 5.792767 -0.005304 0.000000 -0.182414 -0.018420 0.257462
    6 6.662322 -0.001452 0.000000 0.000000 -0.000001 0.471000
    7 -3.108188 1.516823 4.339626 1.021694 -1.200350 -4.603233
    8 4.827512 0.000000 -0.000002 -0.167091 0.098740 -1.270756
    9 11.140032 0.000000 0.000000 0.000000 0.000000 -0.776817
    10 10.314563 -0.000001 0.000001 -3.627251 0.327291 -0.304122
    11 1.646836 0.445664 -1.699647 -0.161704 0.581044 -0.283978
    12 0.928312 0.000000 0.000000 0.000000 0.000000 0.000000
    13 0.928313 0.000000 -0.000001 0.000000 0.000000 0.000000
    14 2.979373 -0.388274 -0.044205 -0.000805 -0.043611 0.000046
    15 1.435262 -0.000001 -0.000001 0.000000 0.000000 0.706400
    16 1.482593 -0.000001 0.000001 0.000000 0.000000 0.732610
    17 -2.869899 1.399667 -4.140396 1.190830 1.070348 -2.469554
    18 4.972047 0.000000 0.000000 0.192990 -0.880842 -1.371890
    19 11.585358 0.000000 0.000001 0.000000 0.000000 -1.338796
    20 10.127058 0.000000 0.000001 1.889307 0.506486 -0.220193
    21 1.537458 0.109715 1.664489 -0.264662 -0.055995 0.783079
    22 0.928313 0.000000 0.000002 0.000000 0.000000 -0.453501
    23 0.928311 0.000000 0.000001 0.000000 0.000000 0.000000
    24 2.686395 -0.427337 0.044204 -0.005762 0.043239 -0.157074
    25 1.435260 0.000000 0.000001 0.000000 0.000000 0.732613
    26 1.482593 0.000000 -0.000001 0.000000 0.000000 1.168644
    27 2.046984 0.000001 0.000000 0.330360 -0.086593 -0.353241
    28 -0.000005 0.000007 3.713254 -3.281055 -0.172857 1.246931
    29 18.045723 0.000000 0.000000 0.000000 0.000000 -1.742108
    30 17.597597 0.000000 0.000000 -0.242181 0.192239 -0.156989
    31 0.000005 -0.000003 -3.713254 0.843744 2.336561 5.526918
    32 18.045721 0.000000 0.000000 0.000000 0.000000 -2.670383
    33 17.597597 0.000000 0.000000 0.378626 0.036024 0.785808
  time 7
    0 -0.073256 -1.296764 -20.600716 0.000000 0.000000 -1.585458
    1 -3.793089 0.113285 0.000000 -1.570795 -1.570787 0.000000
    2 1.293670 0.684478 -0.000001 -0.000004 -0.000001 0.326143
    3 5.309685 -0.003834 0.000000 0.000000 0.000000 0.075488
    4 4.826790 -0.004591 0.000000 -0.160015 0.026174 0.194211
    5 5.792767 -0.005304 0.000000 -0.170434 -0.006196 0.253164
    6 6.662322 -0.001452 0.000000 0.000000 -0.000001 0.471000
    7 -3.108188 1.516823 4.339626 1.021694 -1.200350 -4.603233
    8 4.827512 0.000000 -0.000002 -0.143893 0.153998 -1.280027
    9 11.140032 0.000000 0.000000 0.000000 0.000000 -0.647126
    10 10.314563 -0.000001 0.000001 -3.697859 0.305934 -0.437029
    11 1.646836 0.445664 -1.699647 -0.161704 0.581044 -0.283978
    12 0.928312 0.000000 0.000000 0.000000 0.000000 0.000000
    13 0.928313 0.000000 -0.000001 0.000000 0.000000 0.000000
    14 2.979373 -0.388274 -0.044205 -0.000805 -0.043611 0.000046
    15 1.435262 -0.000001 -0.000001 0.000000 0.000000 0.706400
    16 1.482593 -0.000001 0.000001 0.000000 0.000000 0.732610
    17 -2.869899 1.399667 -4.140396 1.131696 1.125795 -2.522425
    18 4.972047 0.000000 0.000000 0.220285 -0.951469 -1.321507
    19 11.585358 0.000000 0.000001 0.000000 0.000000 -1.338470
    20 10.127058 0.000000 0.000001 1.847934 0.464688 -0.156966
    21 1.537458 0.109715 1.664489 -0.264662 -0.055995 0.783079
    22 0.928313 0.000000 0.000002 0.000000 0.000000 -0.453501
    23 0.928311 0.000000 0.000001 0.000000 0.000000 0.000000
    24 2.686395 -0.427337 0.044204 -0.005762 0.043239 -0.157074
    25 1.435260 0.000000 0.000001 0.000000 0.000000 0.732613
    26 1.482593 0.000000 -0.000001 0.000000 0.000000 1.168644
    27 2.046984 0.000001 0.000000 0.308215 -0.101610 -0.349226
    28 -0.000005 0.000007 3.713254 -3.281918 -0.171994 1.247026
    29 18.045723 0.000000 0.000000 0.000000 0.000000 -1.742775
    30 17.597597 0.000000 0.000000 -0.243347 0.192903 -0.156393
    31 0.000005 -0.000003 -3.713254 0.839719 2.333973 5.525000
    32 18.045721 0.000000 0.000000 0.000000 0.000000 -2.670776
    33 17.597597 0.000000 0.000000 0.377117 0.038292 0.783406
  time 8
    0 -0.073256 -1.296764 -20.600716 0.000000 0.000000 -1.585458
    1 -3.781369 0.156255 0.000000 -1.570795 -1.570787 0.000000
    2 1.293670 0.684478 -0.000001 -0.000004 -0.000001 0.326143
    3 5.309685 -0.003834 0.000000 0.000000 0.000000 0.075488
    4 4.826790 -0.004591 0.000000 -0.160892 0.033749 0.192315
    5 5.792767 -0.005304 0.000000 -0.174067 0.007658 0.248160
    6 6.662322 -0.001452 0.000000 0.000000 -0.000001 0.471000
    7 -3.108188 1.516823 4.339626 1.021694 -1.200350 -4.603233
    8 4.827512 0.000000 -0.000002 -0.126833 0.225372 -1.239475
    9 11.140032 0.000000 0.000000 0.000000 0.000000 -0.623578
    10 10.314563 -0.000001 0.000001 -3.756336 0.276520 -0.495324
    11 1.646836 0.445664 -1.699647 -0.161704 0.581044 -0.283978
    12 0.928312 0.000000 0.000000 0.000000 0.000000 0.000000
    13 0.928313 0.000000 -0.000001 0.000000 0.000000 0.000000
    14 2.979373 -0.388274 -0.044205 -0.000805 -0.043611 0.000046
    15 1.435262 -0.000001 -0.000001 0.000000 0.000000 0.706400
    16 1.482593 -0.000001 0.000001 0.000000 0.000000 0.732610
    17 -2.869899 1.399667 -4.140396 1.055271 1.180584 -2.592249
    18 4.972047 0.000000 0.000000 0.198993 -1.019846 -1.228463
    19 11.585358 0.000000 0.000001 0.000000 0.000000 -1.378901
    20 10.127058 0.000000 0.000001 1.808314 0.421283 -0.073129
    21 1.537458 0.109715 1.664489 -0.264662 -0.055995 0.783079
    22 0.928313 0.000000 0.000002 0.000000 0.000000 -0.453501
    23 0.928311 0.000000 0.000001 0.000000 0.000000 0.000000
    24 2.686395 -0.427337 0.044204 -0.005762 0.043239 -0.157074
    25 1.435260 0.000000 0.000001 0.000000 0.000000 0.732613
    26 1.482593 0.000000 -0.000001 0.000000 0.000000 1.168644
    27 2.046984 0.000001 0.000000 0.308086 -0.124062 -0.347219
    28 -0.000005 0.000007 3.713254 -3.283164 -0.170940 1.247122
    29 18.045723 0.000000 0.000000 0.000000 0.000000 -1.743515
    30 17.597597 0.000000 0.000000 -0.244740 0.193666 -0.155660
    31 0.000005 -0.000003 -3.713254 0.834639 2.330713 5.522508
    32 18.045721 0.000000 0.000000 0.000000 0.000000 -2.671564
    33 17.597597 0.000000 0.000000 0.375238 0.041093 0.780496
  time 9
    0 -0.073256 -1.296764 -20.600716 0.000000 0.000000 -1.585458
    1 -3.769650 0.199225 0.000000 -1.570795 -1.570787 0.000000
    2 1.293670 0.684478 -0.000001 -0.000004 -0.000001 0.326143
    3 5.309685 -0.003834 0.000000 0.000000 0.000000 0.075488
    4 4.826790 -0.004591 0.000000 -0.164879 0.041718 0.190265
    5 5.792767 -0.005304 0.000000 -0.184050 0.022195 0.242762
    6 6.662322 -0.001452 0.000000 0.000000 -0.000001 0.471000
    7 -3.108188 1.516823 4.339626 1.021694 -1.200350 -4.603233
    8 4.827512 0.000000 -0.000002 -0.126594 0.292312 -1.217206
    9 11.140032 0.000000 0.000000 0.000000 0.000000 -0.659515
    10 10.314563 -0.000001 0.000001 -3.801544 0.251416 -0.481563
    11 1.646836 0.445664 -1.699647 -0.161704 0.581044 -0.283978
    12 0.928312 0.000000 0.000000 0.000000 0.000000 0.000000
    13 0.928313 0.000000 -0.000001 0.000000 0.000000 0.000000
    14 2.979373 -0.388274 -0.044205 -0.000805 -0.043611 0.000046
    15 1.435262 -0.000001 -0.000001 0.000000 0.000000 0.706400
    16 1.482593 -0.000001 0.000001 0.000000 0.000000 0.732610
    17 -2.869899 1.399667 -4.140396 0.956013 1.232797 -2.685156
    18 4.972047 0.000000 0.000000 0.075648 -1.057450 -1.007300
    19 11.585358 0.000000 0.000001 0.000000 0.000000 -1.514326
    20 10.127058 0.000000 0.000001 1.789100 0.371921 0.057877
    21 1.537458 0.109715 1.664489 -0.264662 -0.055995 0.783079
    22 0.928313 0.000000 0.000002 0.000000 0.000000 -0.453501
    23 0.928311 0.000000 0.000001 0.000000 0.000000 0.000000
    24 2.686395 -0.427337 0.044204 -0.005762 0.043239 -0.157074
    25 1.435260 0.000000 0.000001 0.000000 0.000000 0.732613
    26 1.482593 0.000000 -0.000001 0.000000 0.000000 1.168644
    27 2.046984 0.000001 0.000000 0.316789 -0.149494 -0.346549
    28 -0.000005 0.000007 3.713254 -3.284507 -0.169789 1.247218
    29 18.045723 0.000000 0.000000 0.000000 0.000000 -1.744329
    30 17.597597 0.000000 0.000000 -0.246261 0.194577 -0.154880
    31 0.000005 -0.000003 -3.713254 0.829368 2.327262 5.519919
    32 18.045721 0.000000 0.000000 0.000000 0.000000 -2.672193
    33 17.597597 0.000000 0.000000 0.373090 0.044150 0.777309
  time 10
    0 -0.073256 -1.296764 -20.600716 0.000000 0.000000 -1.585458
    1 -3.757931 0.242195 0.000000 -1.570795 -1.570787 0.000000
    2 1.293670 0.684478 -0.000001 -0.000004 -0.000001 0.326143
    3 5.309685 -0.003834 0.000000 0.000000 0.000000 0.075488
    4 4.826790 -0.004591 0.000000 -0.167282 0.049484 0.188258
    5 5.792767 -0.005304 0.000000 -0.191030 0.036373 0.237426
    6 6.662322 -0.001452 0.000000 0.000000 -0.000001 0.471000
    7 -3.108188 1.516823 4.339626 1.021694 -1.200350 -4.603233
    8 4.827512 0.000000 -0.000002 -0.134407 0.361469 -1.236269
    9 11.140032 0.000000 0.000000 0.000000 0.000000 -0.683497
    10 10.314563 -0.000001 0.000001 -3.846658 0.217507 -0.462460
    11 1.646836 0.445664 -1.699647 -0.161704 0.581044 -0.283978
    12 0.928312 0.000000 0.000000 0.000000 0.000000 0.000000
    13 0.928313 0.000000 -0.000001 0.000000 0.000000 0.000000
    14 2.979373 -0.388274 -0.044205 -0.000805 -0.043611 0.000046
    15 1.435262 -0.000001 -0.000001 0.000000 0.000000 0.706400
    16 1.482593 -0.000001 0.000001 0.000000 0.000000 0.732610
    17 -2.869899 1.399667 -4.140396 0.820358 1.281881 -2.814267
    18 4.972047 0.000000 0.000000 -0.112043 -1.067815 -0.694822
    19 11.585358 0.000000 0.000001 0.000000 0.000000 -1.695819
    20 10.127058 0.000000 0.000001 1.766029 0.320667 0.209342
    21 1.537458 0.109715 1.664489 -0.264662 -0.055995 0.783079
    22 0.928313 0.000000 0.000002 0.000000 0.000000 -0.453501
    23 0.928311 0.000000 0.000001 0.000000 0.000000 0.000000
    24 2.686395 -0.427337 0.044204 -0.005762 0.043239 -0.157074
    25 1.435260 0.000000 0.000001 0.000000 0.000000 0.732613
    26 1.482593 0.000000 -0.000001 0.000000 0.000000 1.168644
    27 2.046984 0.000001 0.000000 0.321054 -0.173451 -0.345455
    28 -0.000005 0.000007 3.713254 -3.285753 -0.168639 1.247314
    29 18.045723 0.000000 0.000000 0.000000 0.000000 -1.745217
    30 17.597597 0.000000 0.000000 -0.247756 0.195364 -0.154009
    31 0.000005 -0.000003 -3.713254 0.823905 2.323907 5.517523
    32 18.045721 0.000000 0.000000 0.000000 0.000000 -2.672902
    33 17.597597 0.000000 0.000000 0.371010 0.047148 0.774307
end
