version 1
nodes
  0 "Bip01" -1
  1 "Bip01 Pelvis" 0
  2 "Bip01 Spine" 1
  3 "Bip01 Spine1" 2
  4 "Bip01 Spine2" 3
  5 "Bip01 Spine3" 4
  6 "Bip01 Neck" 5
  7 "Bip01 L Arm" 6
  8 "Bip01 L Arm1" 7
  9 "Bip01 L Arm2" 8
  10 "Bip01 L Hand" 9
  11 "Bip01 L Finger0" 10
  12 "Bip01 L Finger01" 11
  13 "Bip01 L Finger02" 12
  14 "Bip01 L Finger1" 10
  15 "Bip01 L Finger11" 14
  16 "Bip01 L Finger12" 15
  17 "Bip01 R Arm" 6
  18 "Bip01 R Arm1" 17
  19 "Bip01 R Arm2" 18
  20 "Bip01 R Hand" 19
  21 "Bip01 R Finger0" 20
  22 "Bip01 R Finger01" 21
  23 "Bip01 R Finger02" 22
  24 "Bip01 R Finger1" 20
  25 "Bip01 R Finger11" 24
  26 "Bip01 R Finger12" 25
  27 "Bip01 Head" 6
  28 "Bip01 L Leg" 1
  29 "Bip01 L Leg1" 28
  30 "Bip01 L Foot" 29
  31 "Bip01 R Leg" 1
  32 "Bip01 R Leg1" 31
  33 "Bip01 R Foot" 32
end
skeleton
  time 0
    0 -0.975627 0.195469 -20.585090 0.000000 0.000000 -1.571017
    1 -2.894624 -0.230476 0.000000 -1.570795 -1.570787 0.000000
    2 1.293670 0.684478 -0.000001 -0.048803 -0.015713 0.147885
    3 5.309685 -0.003834 0.000000 -0.049673 0.008845 0.076159
    4 4.826790 -0.004591 0.000000 -0.085663 -0.048010 0.206691
    5 5.792767 -0.005304 0.000000 -0.258825 -0.057071 -0.030103
    6 6.662322 -0.001452 0.000000 -0.091910 0.032655 0.231870
    7 -3.518356 0.356631 4.277124 -3.478511 -0.849542 0.020190
    8 4.827512 0.000000 -0.000002 -1.174792 -0.272115 -0.705188
    9 11.140032 0.000000 0.000000 0.000000 0.000000 -1.236969
    10 10.314563 -0.000001 0.000001 -4.113927 0.347618 0.795075
    11 1.646836 0.445664 -1.699647 -0.392035 3.352851 -0.875707
    12 0.928312 0.000000 0.000000 0.000000 0.000000 0.593404
    13 0.928313 0.000000 -0.000001 0.000000 0.000000 1.204231
    14 2.979373 -0.388274 -0.044205 -0.030851 -0.030823 0.768363
    15 1.435262 -0.000001 -0.000001 0.000000 0.000000 0.418706
    16 1.482593 -0.000001 0.000001 0.000000 0.000000 0.794048
    17 -2.975371 1.071532 -4.156022 -1.569180 0.892704 -4.936661
    18 4.972047 0.000000 0.000000 1.124972 0.711042 -1.582937
    19 11.585358 0.000000 0.000001 0.000000 0.000000 -0.719091
    20 10.127058 0.000000 0.000001 1.865675 0.354616 0.425335
    21 1.537458 0.109715 1.664489 -3.079588 0.031470 0.928526
    22 0.928313 0.000000 0.000002 0.000000 0.000000 0.061034
    23 0.928311 0.000000 0.000001 0.000000 0.000000 0.671897
    24 2.686395 -0.427337 0.044204 -0.001208 0.043611 -0.052337
    25 1.435260 0.000000 0.000001 0.000000 0.000000 1.186618
    26 1.482593 0.000000 -0.000001 0.000000 0.000000 1.684243
    27 2.046984 0.000001 0.000000 0.177674 0.573075 -1.030142
    28 -0.000005 0.000007 3.713254 -3.211451 -0.114278 1.238974
    29 18.045723 0.000000 0.000000 0.000000 0.000000 -1.756985
    30 17.597597 0.000000 0.000000 -0.219173 0.110535 -0.140439
    31 0.000005 -0.000003 -3.713254 0.827643 2.444220 5.464986
    32 18.045721 0.000000 0.000000 0.000000 0.000000 -2.608117
    33 17.597597 0.000000 0.000000 0.356013 -0.157405 0.773060
  time 1
    0 -0.975627 0.195469 -20.585090 0.000000 0.000000 -1.571017
    1 -2.863373 -0.242195 0.000000 -1.570795 -1.570787 0.000000
    2 1.293670 0.684478 -0.000001 -0.048803 -0.015713 0.147885
    3 5.309685 -0.003834 0.000000 -0.049996 0.010499 0.081794
    4 4.826790 -0.004591 0.000000 -0.084442 -0.050012 0.192117
    5 5.792767 -0.005304 0.000000 -0.258358 -0.060103 -0.047274
    6 6.662322 -0.001452 0.000000 -0.091910 0.032655 0.231870
    7 -3.518356 0.356631 4.277124 -3.478511 -0.849542 0.020190
    8 4.827512 0.000000 -0.000002 -1.166502 -0.249432 -0.723472
    9 11.140032 0.000000 0.000000 0.000000 0.000000 -1.235085
    10 10.314563 -0.000001 0.000001 -4.114211 0.344526 0.791824
    11 1.646836 0.445664 -1.699647 -0.392035 3.352851 -0.875707
    12 0.928312 0.000000 0.000000 0.000000 0.000000 0.593404
    13 0.928313 0.000000 -0.000001 0.000000 0.000000 1.204231
    14 2.979373 -0.388274 -0.044205 -0.030851 -0.030823 0.768363
    15 1.435262 -0.000001 -0.000001 0.000000 0.000000 0.418706
    16 1.482593 -0.000001 0.000001 0.000000 0.000000 0.794048
    17 -2.975371 1.071532 -4.156022 -1.567174 0.892704 -4.934171
    18 4.972047 0.000000 0.000000 1.137354 0.688062 -1.574950
    19 11.585358 0.000000 0.000001 0.000000 0.000000 -0.719091
    20 10.127058 0.000000 0.000001 1.865745 0.354426 0.425785
    21 1.537458 0.109715 1.664489 -3.079588 0.031470 0.928526
    22 0.928313 0.000000 0.000002 0.000000 0.000000 0.061034
    23 0.928311 0.000000 0.000001 0.000000 0.000000 0.671897
    24 2.686395 -0.427337 0.044204 -0.001208 0.043611 -0.052337
    25 1.435260 0.000000 0.000001 0.000000 0.000000 1.186618
    26 1.482593 0.000000 -0.000001 0.000000 0.000000 1.684243
    27 2.046984 0.000001 0.000000 0.183232 0.568561 -1.001918
    28 -0.000005 0.000007 3.713254 -3.211163 -0.114565 1.238687
    29 18.045723 0.000000 0.000000 0.000000 0.000000 -1.758836
    30 17.597597 0.000000 0.000000 -0.218843 0.110338 -0.138834
    31 0.000005 -0.000003 -3.713254 0.827355 2.445562 5.467766
    32 18.045721 0.000000 0.000000 0.000000 0.000000 -2.607959
    33 17.597597 0.000000 0.000000 0.354805 -0.155531 0.775554
  time 2
    0 -0.975627 0.195469 -20.585090 0.000000 0.000000 -1.571017
    1 -2.832122 -0.242195 0.000000 -1.570795 -1.570787 0.000000
    2 1.293670 0.684478 -0.000001 -0.048803 -0.015713 0.147885
    3 5.309685 -0.003834 0.000000 -0.050336 0.012284 0.087835
    4 4.826790 -0.004591 0.000000 -0.083145 -0.052121 0.176440
    5 5.792767 -0.005304 0.000000 -0.257746 -0.063279 -0.065047
    6 6.662322 -0.001452 0.000000 -0.091910 0.032655 0.231870
    7 -3.518356 0.356631 4.277124 -3.478511 -0.849542 0.020190
    8 4.827512 0.000000 -0.000002 -1.158052 -0.224703 -0.742448
    9 11.140032 0.000000 0.000000 0.000000 0.000000 -1.231824
    10 10.314563 -0.000001 0.000001 -4.114970 0.341061 0.786830
    11 1.646836 0.445664 -1.699647 -0.392035 3.352851 -0.875707
    12 0.928312 0.000000 0.000000 0.000000 0.000000 0.593404
    13 0.928313 0.000000 -0.000001 0.000000 0.000000 1.204231
    14 2.979373 -0.388274 -0.044205 -0.030851 -0.030823 0.768363
    15 1.435262 -0.000001 -0.000001 0.000000 0.000000 0.418706
    16 1.482593 -0.000001 0.000001 0.000000 0.000000 0.794048
    17 -2.975371 1.071532 -4.156022 -1.569180 0.892704 -4.936661
    18 4.972047 0.000000 0.000000 1.154050 0.662350 -1.564501
    19 11.585358 0.000000 0.000001 0.000000 0.000000 -0.719091
    20 10.127058 0.000000 0.000001 1.865675 0.354616 0.425335
    21 1.537458 0.109715 1.664489 -3.079588 0.031470 0.928526
    22 0.928313 0.000000 0.000002 0.000000 0.000000 0.061034
    23 0.928311 0.000000 0.000001 0.000000 0.000000 0.671897
    24 2.686395 -0.427337 0.044204 -0.001208 0.043611 -0.052337
    25 1.435260 0.000000 0.000001 0.000000 0.000000 1.186618
    26 1.482593 0.000000 -0.000001 0.000000 0.000000 1.684243
    27 2.046984 0.000001 0.000000 0.188746 0.563752 -0.972173
    28 -0.000005 0.000007 3.713254 -3.210780 -0.114853 1.238399
    29 18.045723 0.000000 0.000000 0.000000 0.000000 -1.760834
    30 17.597597 0.000000 0.000000 -0.218489 0.110116 -0.137092
    31 0.000005 -0.000003 -3.713254 0.826972 2.446904 5.470642
    32 18.045721 0.000000 0.000000 0.000000 0.000000 -2.607959
    33 17.597597 0.000000 0.000000 0.353463 -0.153519 0.778279
  time 3
    0 -0.975627 0.195469 -20.585090 0.000000 0.000000 -1.571017
    1 -2.808683 -0.253914 0.000000 -1.570795 -1.570787 0.000000
    2 1.293670 0.684478 -0.000001 -0.048803 -0.015713 0.147885
    3 5.309685 -0.003834 0.000000 -0.050626 0.014106 0.093875
    4 4.826790 -0.004591 0.000000 -0.081867 -0.054110 0.161293
    5 5.792767 -0.005304 0.000000 -0.257171 -0.066371 -0.082550
    6 6.662322 -0.001452 0.000000 -0.090460 0.036490 0.273880
    7 -3.498824 0.497261 4.277124 -3.478511 -0.849542 -0.021970
    8 4.827512 0.000000 -0.000002 -1.150160 -0.198865 -0.760558
    9 11.140032 0.000000 0.000000 0.000000 0.000000 -1.227260
    10 10.314563 -0.000001 0.000001 -4.116202 0.337220 0.778992
    11 1.646836 0.445664 -1.699647 -0.392035 3.352851 -0.875707
    12 0.928312 0.000000 0.000000 0.000000 0.000000 0.593404
    13 0.928313 0.000000 -0.000001 0.000000 0.000000 1.204231
    14 2.979373 -0.388274 -0.044205 -0.030851 -0.030823 0.768363
    15 1.435262 -0.000001 -0.000001 0.000000 0.000000 0.418706
    16 1.482593 -0.000001 0.000001 0.000000 0.000000 0.794048
    17 -2.932401 1.192629 -4.156022 -1.579020 0.892704 -4.991256
    18 4.972047 0.000000 0.000000 1.177124 0.634389 -1.550924
    19 11.585358 0.000000 0.000001 0.000000 0.000000 -0.719336
    20 10.127058 0.000000 0.000001 1.865044 0.355656 0.422984
    21 1.537458 0.109715 1.664489 -3.079588 0.031470 0.928526
    22 0.928313 0.000000 0.000002 0.000000 0.000000 0.061034
    23 0.928311 0.000000 0.000001 0.000000 0.000000 0.671897
    24 2.686395 -0.427337 0.044204 -0.001208 0.043611 -0.052337
    25 1.435260 0.000000 0.000001 0.000000 0.000000 1.186618
    26 1.482593 0.000000 -0.000001 0.000000 0.000000 1.684243
    27 2.046984 0.000001 0.000000 0.188014 0.560182 -0.997295
    28 -0.000005 0.000007 3.713254 -3.210492 -0.115141 1.238207
    29 18.045723 0.000000 0.000000 0.000000 0.000000 -1.762685
    30 17.597597 0.000000 0.000000 -0.218134 0.109944 -0.135441
    31 0.000005 -0.000003 -3.713254 0.826493 2.448150 5.473327
    32 18.045721 0.000000 0.000000 0.000000 0.000000 -2.607959
    33 17.597597 0.000000 0.000000 0.352255 -0.151587 0.780774
  time 4
    0 -0.975627 0.195469 -20.585090 0.000000 0.000000 -1.571017
    1 -2.777433 -0.253914 0.000000 -1.570795 -1.570787 0.000000
    2 1.293670 0.684478 -0.000001 -0.048803 -0.015713 0.147885
    3 5.309685 -0.003834 0.000000 -0.050915 0.015772 0.099546
    4 4.826790 -0.004591 0.000000 -0.080780 -0.055824 0.148329
    5 5.792767 -0.005304 0.000000 -0.256505 -0.069127 -0.098828
    6 6.662322 -0.001452 0.000000 -0.088854 0.040242 0.315833
    7 -3.475386 0.645703 4.277124 -3.478511 -0.849542 -0.063939
    8 4.827512 0.000000 -0.000002 -1.143464 -0.175329 -0.776068
    9 11.140032 0.000000 0.000000 0.000000 0.000000 -1.222478
    10 10.314563 -0.000001 0.000001 -4.117529 0.333661 0.770805
    11 1.646836 0.445664 -1.699647 -0.392035 3.352851 -0.875707
    12 0.928312 0.000000 0.000000 0.000000 0.000000 0.593404
    13 0.928313 0.000000 -0.000001 0.000000 0.000000 1.204231
    14 2.979373 -0.388274 -0.044205 -0.030851 -0.030823 0.768363
    15 1.435262 -0.000001 -0.000001 0.000000 0.000000 0.418706
    16 1.482593 -0.000001 0.000001 0.000000 0.000000 0.794048
    17 -2.877712 1.317633 -4.156022 -1.590865 0.892520 -5.048533
    18 4.972047 0.000000 0.000000 1.199824 0.608195 -1.538212
    19 11.585358 0.000000 0.000001 0.000000 0.000000 -0.719663
    20 10.127058 0.000000 0.000001 1.864343 0.356980 0.420133
    21 1.537458 0.109715 1.664489 -3.079588 0.031470 0.928526
    22 0.928313 0.000000 0.000002 0.000000 0.000000 0.061034
    23 0.928311 0.000000 0.000001 0.000000 0.000000 0.671897
    24 2.686395 -0.427337 0.044204 -0.001208 0.043611 -0.052337
    25 1.435260 0.000000 0.000001 0.000000 0.000000 1.186618
    26 1.482593 0.000000 -0.000001 0.000000 0.000000 1.684243
    27 2.046984 0.000001 0.000000 0.186506 0.557114 -1.025459
    28 -0.000005 0.000007 3.713254 -3.210204 -0.115332 1.237920
    29 18.045723 0.000000 0.000000 0.000000 0.000000 -1.764239
    30 17.597597 0.000000 0.000000 -0.217906 0.109797 -0.134112
    31 0.000005 -0.000003 -3.713254 0.826109 2.449109 5.475628
    32 18.045721 0.000000 0.000000 0.000000 0.000000 -2.607959
    33 17.597597 0.000000 0.000000 0.351181 -0.149949 0.782806
  time 5
    0 -0.975627 0.195469 -20.585090 0.000000 0.000000 -1.571017
    1 -2.765713 -0.261727 0.000000 -1.570795 -1.570787 0.000000
    2 1.293670 0.684478 -0.000001 -0.048803 -0.015713 0.147885
    3 5.309685 -0.003834 0.000000 -0.051170 0.017222 0.104368
    4 4.826790 -0.004591 0.000000 -0.079979 -0.057059 0.139157
    5 5.792767 -0.005304 0.000000 -0.255947 -0.071356 -0.112905
    6 6.662322 -0.001452 0.000000 -0.087056 0.043953 0.357843
    7 -3.444135 0.794145 4.277124 -3.478511 -0.849512 -0.106194
    8 4.827512 0.000000 -0.000002 -1.138521 -0.156228 -0.787940
    9 11.140032 0.000000 0.000000 0.000000 0.000000 -1.218203
    10 10.314563 -0.000001 0.000001 -4.118855 0.330757 0.763373
    11 1.646836 0.445664 -1.699647 -0.392035 3.352851 -0.875707
    12 0.928312 0.000000 0.000000 0.000000 0.000000 0.593404
    13 0.928313 0.000000 -0.000001 0.000000 0.000000 1.204231
    14 2.979373 -0.388274 -0.044205 -0.030851 -0.030823 0.768363
    15 1.435262 -0.000001 -0.000001 0.000000 0.000000 0.418706
    16 1.482593 -0.000001 0.000001 0.000000 0.000000 0.794048
    17 -2.830835 1.427012 -4.156022 -1.603762 0.892257 -5.107246
    18 4.972047 0.000000 0.000000 1.220178 0.586179 -1.527430
    19 11.585358 0.000000 0.000001 0.000000 0.000000 -0.720072
    20 10.127058 0.000000 0.000001 1.863501 0.358304 0.417032
    21 1.537458 0.109715 1.664489 -3.079588 0.031470 0.928526
    22 0.928313 0.000000 0.000002 0.000000 0.000000 0.061034
    23 0.928311 0.000000 0.000001 0.000000 0.000000 0.671897
    24 2.686395 -0.427337 0.044204 -0.001208 0.043611 -0.052337
    25 1.435260 0.000000 0.000001 0.000000 0.000000 1.186618
    26 1.482593 0.000000 -0.000001 0.000000 0.000000 1.684243
    27 2.046984 0.000001 0.000000 0.184093 0.554901 -1.059462
    28 -0.000005 0.000007 3.713254 -3.210013 -0.115428 1.237824
    29 18.045723 0.000000 0.000000 0.000000 0.000000 -1.765275
    30 17.597597 0.000000 0.000000 -0.217779 0.109698 -0.133195
    31 0.000005 -0.000003 -3.713254 0.825630 2.449780 5.476970
    32 18.045721 0.000000 0.000000 0.000000 0.000000 -2.607959
    33 17.597597 0.000000 0.000000 0.350510 -0.148865 0.784099
  time 6
    0 -0.975627 0.195469 -20.585090 0.000000 0.000000 -1.571017
    1 -2.753994 -0.261727 0.000000 -1.570795 -1.570787 0.000000
    2 1.293670 0.684478 -0.000001 -0.048803 -0.015713 0.147885
    3 5.309685 -0.003834 0.000000 -0.051323 0.018277 0.108006
    4 4.826790 -0.004591 0.000000 -0.079502 -0.057766 0.133755
    5 5.792767 -0.005304 0.000000 -0.255408 -0.073154 -0.126401
    6 6.662322 -0.001452 0.000000 -0.085163 0.047581 0.399825
    7 -3.405072 0.938680 4.277124 -3.478511 -0.849512 -0.148355
    8 4.827512 0.000000 -0.000002 -1.134535 -0.139770 -0.797644
    9 11.140032 0.000000 0.000000 0.000000 0.000000 -1.214653
    10 10.314563 -0.000001 0.000001 -4.119993 0.328228 0.756753
    11 1.646836 0.445664 -1.699647 -0.392035 3.352851 -0.875707
    12 0.928312 0.000000 0.000000 0.000000 0.000000 0.593404
    13 0.928313 0.000000 -0.000001 0.000000 0.000000 1.204231
    14 2.979373 -0.388274 -0.044205 -0.030851 -0.030823 0.768363
    15 1.435262 -0.000001 -0.000001 0.000000 0.000000 0.418706
    16 1.482593 -0.000001 0.000001 0.000000 0.000000 0.794048
    17 -2.768333 1.544203 -4.156022 -1.615990 0.891836 -5.165097
    18 4.972047 0.000000 0.000000 1.238187 0.567217 -1.518578
    19 11.585358 0.000000 0.000001 0.000000 0.000000 -0.720480
    20 10.127058 0.000000 0.000001 1.862660 0.359722 0.414080
    21 1.537458 0.109715 1.664489 -3.079588 0.031470 0.928526
    22 0.928313 0.000000 0.000002 0.000000 0.000000 0.061034
    23 0.928311 0.000000 0.000001 0.000000 0.000000 0.671897
    24 2.686395 -0.427337 0.044204 -0.001208 0.043611 -0.052337
    25 1.435260 0.000000 0.000001 0.000000 0.000000 1.186618
    26 1.482593 0.000000 -0.000001 0.000000 0.000000 1.684243
    27 2.046984 0.000001 0.000000 0.181250 0.553131 -1.096567
    28 -0.000005 0.000007 3.713254 -3.209917 -0.115524 1.237728
    29 18.045723 0.000000 0.000000 0.000000 0.000000 -1.765941
    30 17.597597 0.000000 0.000000 -0.217652 0.109649 -0.132553
    31 0.000005 -0.000003 -3.713254 0.825534 2.450068 5.478024
    32 18.045721 0.000000 0.000000 0.000000 0.000000 -2.607959
    33 17.597597 0.000000 0.000000 0.350074 -0.148095 0.784930
  time 7
    0 -0.975627 0.195469 -20.585090 0.000000 0.000000 -1.571017
    1 -2.746182 -0.261727 0.000000 -1.570795 -1.570787 0.000000
    2 1.293670 0.684478 -0.000001 -0.048803 -0.015713 0.147885
    3 5.309685 -0.003834 0.000000 -0.051443 0.019044 0.110515
    4 4.826790 -0.004591 0.000000 -0.079254 -0.058089 0.131043
    5 5.792767 -0.005304 0.000000 -0.254850 -0.074412 -0.138900
    6 6.662322 -0.001452 0.000000 -0.083065 0.051127 0.441835
    7 -3.362102 1.079310 4.277124 -3.478511 -0.849512 -0.190419
    8 4.827512 0.000000 -0.000002 -1.131586 -0.125871 -0.805356
    9 11.140032 0.000000 0.000000 0.000000 0.000000 -1.212190
    10 10.314563 -0.000001 0.000001 -4.121035 0.326167 0.751528
    11 1.646836 0.445664 -1.699647 -0.392035 3.352851 -0.875707
    12 0.928312 0.000000 0.000000 0.000000 0.000000 0.593404
    13 0.928313 0.000000 -0.000001 0.000000 0.000000 1.204231
    14 2.979373 -0.388274 -0.044205 -0.030851 -0.030823 0.768363
    15 1.435262 -0.000001 -0.000001 0.000000 0.000000 0.418706
    16 1.482593 -0.000001 0.000001 0.000000 0.000000 0.794048
    17 -2.701925 1.661394 -4.156022 -1.626594 0.891416 -5.220745
    18 4.972047 0.000000 0.000000 1.252914 0.551066 -1.511856
    19 11.585358 0.000000 0.000001 0.000000 0.000000 -0.720725
    20 10.127058 0.000000 0.000001 1.862029 0.360951 0.411529
    21 1.537458 0.109715 1.664489 -3.079588 0.031470 0.928526
    22 0.928313 0.000000 0.000002 0.000000 0.000000 0.061034
    23 0.928311 0.000000 0.000001 0.000000 0.000000 0.671897
    24 2.686395 -0.427337 0.044204 -0.001208 0.043611 -0.052337
    25 1.435260 0.000000 0.000001 0.000000 0.000000 1.186618
    26 1.482593 0.000000 -0.000001 0.000000 0.000000 1.684243
    27 2.046984 0.000001 0.000000 0.177846 0.551685 -1.136593
    28 -0.000005 0.000007 3.713254 -3.209917 -0.115524 1.237632
    29 18.045723 0.000000 0.000000 0.000000 0.000000 -1.766459
    30 17.597597 0.000000 0.000000 -0.217627 0.109624 -0.132140
    31 0.000005 -0.000003 -3.713254 0.825343 2.450355 5.478695
    32 18.045721 0.000000 0.000000 0.000000 0.000000 -2.607959
    33 17.597597 0.000000 0.000000 0.349671 -0.147523 0.785531
  time 8
    0 -0.975627 0.195469 -20.585090 0.000000 0.000000 -1.571017
    1 -2.746182 -0.261727 0.000000 -1.570795 -1.570787 0.000000
    2 1.293670 0.684478 -0.000001 -0.048803 -0.015713 0.147885
    3 5.309685 -0.003834 0.000000 -0.051528 0.019487 0.111998
    4 4.826790 -0.004591 0.000000 -0.079254 -0.058089 0.131043
    5 5.792767 -0.005304 0.000000 -0.254544 -0.074904 -0.146167
    6 6.662322 -0.001452 0.000000 -0.083065 0.051127 0.441835
    7 -3.362102 1.079310 4.277124 -3.478511 -0.849512 -0.190419
    8 4.827512 0.000000 -0.000002 -1.130310 -0.118537 -0.808562
    9 11.140032 0.000000 0.000000 0.000000 0.000000 -1.211175
    10 10.314563 -0.000001 0.000001 -4.121604 0.324855 0.748450
    11 1.646836 0.445664 -1.699647 -0.392035 3.352851 -0.875707
    12 0.928312 0.000000 0.000000 0.000000 0.000000 0.593404
    13 0.928313 0.000000 -0.000001 0.000000 0.000000 1.204231
    14 2.979373 -0.388274 -0.044205 -0.030851 -0.030823 0.768363
    15 1.435262 -0.000001 -0.000001 0.000000 0.000000 0.418706
    16 1.482593 -0.000001 0.000001 0.000000 0.000000 0.794048
    17 -2.701925 1.661394 -4.156022 -1.633950 0.891100 -5.230324
    18 4.972047 0.000000 0.000000 1.261543 0.542710 -1.507862
    19 11.585358 0.000000 0.000001 0.000000 0.000000 -0.720970
    20 10.127058 0.000000 0.000001 1.861538 0.361802 0.409729
    21 1.537458 0.109715 1.664489 -3.079588 0.031470 0.928526
    22 0.928313 0.000000 0.000002 0.000000 0.000000 0.061034
    23 0.928311 0.000000 0.000001 0.000000 0.000000 0.671897
    24 2.686395 -0.427337 0.044204 -0.001208 0.043611 -0.052337
    25 1.435260 0.000000 0.000001 0.000000 0.000000 1.186618
    26 1.482593 0.000000 -0.000001 0.000000 0.000000 1.684243
    27 2.046984 0.000001 0.000000 0.185300 0.549207 -1.119074
    28 -0.000005 0.000007 3.713254 -3.209917 -0.115524 1.237632
    29 18.045723 0.000000 0.000000 0.000000 0.000000 -1.766459
    30 17.597597 0.000000 0.000000 -0.217627 0.109649 -0.132140
    31 0.000005 -0.000003 -3.713254 0.825247 2.450259 5.478600
    32 18.045721 0.000000 0.000000 0.000000 0.000000 -2.607959
    33 17.597597 0.000000 0.000000 0.349638 -0.147504 0.785485
  time 9
    0 -0.975627 0.195469 -20.585090 0.000000 0.000000 -1.571017
    1 -2.757901 -0.253914 0.000000 -1.570795 -1.570787 0.000000
    2 1.293670 0.684478 -0.000001 -0.048803 -0.015713 0.147885
    3 5.309685 -0.003834 0.000000 -0.051528 0.019571 0.112281
    4 4.826790 -0.004591 0.000000 -0.079502 -0.057766 0.133755
    5 5.792767 -0.005304 0.000000 -0.254652 -0.074197 -0.143987
    6 6.662322 -0.001452 0.000000 -0.083065 0.051127 0.441835
    7 -3.362102 1.079310 4.277124 -3.478511 -0.849512 -0.190419
    8 4.827512 0.000000 -0.000002 -1.131506 -0.121607 -0.805010
    9 11.140032 0.000000 0.000000 0.000000 0.000000 -1.211755
    10 10.314563 -0.000001 0.000001 -4.121983 0.324949 0.747928
    11 1.646836 0.445664 -1.699647 -0.392035 3.352851 -0.875707
    12 0.928312 0.000000 0.000000 0.000000 0.000000 0.593404
    13 0.928313 0.000000 -0.000001 0.000000 0.000000 1.204231
    14 2.979373 -0.388274 -0.044205 -0.030851 -0.030823 0.768363
    15 1.435262 -0.000001 -0.000001 0.000000 0.000000 0.418706
    16 1.482593 -0.000001 0.000001 0.000000 0.000000 0.794048
    17 -2.701925 1.661394 -4.156022 -1.638536 0.890864 -5.236262
    18 4.972047 0.000000 0.000000 1.263138 0.545602 -1.506864
    19 11.585358 0.000000 0.000001 0.000000 0.000000 -0.721052
    20 10.127058 0.000000 0.000001 1.861257 0.362275 0.408578
    21 1.537458 0.109715 1.664489 -3.079588 0.031470 0.928526
    22 0.928313 0.000000 0.000002 0.000000 0.000000 0.061034
    23 0.928311 0.000000 0.000001 0.000000 0.000000 0.671897
    24 2.686395 -0.427337 0.044204 -0.001208 0.043611 -0.052337
    25 1.435260 0.000000 0.000001 0.000000 0.000000 1.186618
    26 1.482593 0.000000 -0.000001 0.000000 0.000000 1.684243
    27 2.046984 0.000001 0.000000 0.190470 0.548676 -1.113174
    28 -0.000005 0.000007 3.713254 -3.210108 -0.115428 1.237728
    29 18.045723 0.000000 0.000000 0.000000 0.000000 -1.765719
    30 17.597597 0.000000 0.000000 -0.217830 0.109772 -0.132736
    31 0.000005 -0.000003 -3.713254 0.825247 2.449780 5.477449
    32 18.045721 0.000000 0.000000 0.000000 0.000000 -2.607959
    33 17.597597 0.000000 0.000000 0.350108 -0.148174 0.784422
  time 10
    0 -0.975627 0.195469 -20.585090 0.000000 0.000000 -1.571017
    1 -2.777433 -0.253914 0.000000 -1.570795 -1.570787 0.000000
    2 1.293670 0.684478 -0.000001 -0.048803 -0.015713 0.147885
    3 5.309685 -0.003834 0.000000 -0.051460 0.019175 0.111027
    4 4.826790 -0.004591 0.000000 -0.079979 -0.057059 0.139157
    5 5.792767 -0.005304 0.000000 -0.255264 -0.072147 -0.131197
    6 6.662322 -0.001452 0.000000 -0.083065 0.051127 0.441835
    7 -3.362102 1.079310 4.277124 -3.478511 -0.849512 -0.190419
    8 4.827512 0.000000 -0.000002 -1.135333 -0.135336 -0.793832
    9 11.140032 0.000000 0.000000 0.000000 0.000000 -1.213711
    10 10.314563 -0.000001 0.000001 -4.122078 0.326260 0.749612
    11 1.646836 0.445664 -1.699647 -0.392035 3.352851 -0.875707
    12 0.928312 0.000000 0.000000 0.000000 0.000000 0.593404
    13 0.928313 0.000000 -0.000001 0.000000 0.000000 1.204231
    14 2.979373 -0.388274 -0.044205 -0.030851 -0.030823 0.768363
    15 1.435262 -0.000001 -0.000001 0.000000 0.000000 0.418706
    16 1.482593 -0.000001 0.000001 0.000000 0.000000 0.794048
    17 -2.701925 1.661394 -4.156022 -1.641497 0.890680 -5.240093
    18 4.972047 0.000000 0.000000 1.258354 0.560146 -1.508328
    19 11.585358 0.000000 0.000001 0.000000 0.000000 -0.721133
    20 10.127058 0.000000 0.000001 1.861047 0.362653 0.407878
    21 1.537458 0.109715 1.664489 -3.079588 0.031470 0.928526
    22 0.928313 0.000000 0.000002 0.000000 0.000000 0.061034
    23 0.928311 0.000000 0.000001 0.000000 0.000000 0.671897
    24 2.686395 -0.427337 0.044204 -0.001208 0.043611 -0.052337
    25 1.435260 0.000000 0.000001 0.000000 0.000000 1.186618
    26 1.482593 0.000000 -0.000001 0.000000 0.000000 1.684243
    27 2.046984 0.000001 0.000000 0.193270 0.550328 -1.119926
    28 -0.000005 0.000007 3.713254 -3.210492 -0.115141 1.237920
    29 18.045723 0.000000 0.000000 0.000000 0.000000 -1.764313
    30 17.597597 0.000000 0.000000 -0.218134 0.109944 -0.134020
    31 0.000005 -0.000003 -3.713254 0.825343 2.448630 5.475244
    32 18.045721 0.000000 0.000000 0.000000 0.000000 -2.608117
    33 17.597597 0.000000 0.000000 0.350980 -0.149594 0.782436
  time 11
    0 -0.975627 0.195469 -20.585090 0.000000 0.000000 -1.571017
    1 -2.812590 -0.242195 0.000000 -1.570795 -1.570787 0.000000
    2 1.293670 0.684478 -0.000001 -0.048803 -0.015713 0.147885
    3 5.309685 -0.003834 0.000000 -0.051323 0.018277 0.108006
    4 4.826790 -0.004591 0.000000 -0.080837 -0.055680 0.149431
    5 5.792767 -0.005304 0.000000 -0.256037 -0.069223 -0.111680
    6 6.662322 -0.001452 0.000000 -0.083065 0.051127 0.441835
    7 -3.362102 1.079310 4.277124 -3.478511 -0.849512 -0.190419
    8 4.827512 0.000000 -0.000002 -1.141710 -0.158445 -0.776415
    9 11.140032 0.000000 0.000000 0.000000 0.000000 -1.216682
    10 10.314563 -0.000001 0.000001 -4.121888 0.328790 0.753095
    11 1.646836 0.445664 -1.699647 -0.392035 3.352851 -0.875707
    12 0.928312 0.000000 0.000000 0.000000 0.000000 0.593404
    13 0.928313 0.000000 -0.000001 0.000000 0.000000 1.204231
    14 2.979373 -0.388274 -0.044205 -0.030851 -0.030823 0.768363
    15 1.435262 -0.000001 -0.000001 0.000000 0.000000 0.418706
    16 1.482593 -0.000001 0.000001 0.000000 0.000000 0.794048
    17 -2.701925 1.661394 -4.156022 -1.642644 0.890574 -5.241626
    18 4.972047 0.000000 0.000000 1.247848 0.584572 -1.512322
    19 11.585358 0.000000 0.000001 0.000000 0.000000 -0.721133
    20 10.127058 0.000000 0.000001 1.860977 0.362843 0.407578
    21 1.537458 0.109715 1.664489 -3.079588 0.031470 0.928526
    22 0.928313 0.000000 0.000002 0.000000 0.000000 0.061034
    23 0.928311 0.000000 0.000001 0.000000 0.000000 0.671897
    24 2.686395 -0.427337 0.044204 -0.001208 0.043611 -0.052337
    25 1.435260 0.000000 0.000001 0.000000 0.000000 1.186618
    26 1.482593 0.000000 -0.000001 0.000000 0.000000 1.684243
    27 2.046984 0.000001 0.000000 0.194175 0.553839 -1.137262
    28 -0.000005 0.000007 3.713254 -3.210780 -0.114757 1.238303
    29 18.045723 0.000000 0.000000 0.000000 0.000000 -1.762166
    30 17.597597 0.000000 0.000000 -0.218565 0.110190 -0.135900
    31 0.000005 -0.000003 -3.713254 0.825822 2.447000 5.471985
    32 18.045721 0.000000 0.000000 0.000000 0.000000 -2.608196
    33 17.597597 0.000000 0.000000 0.352389 -0.151803 0.779388
  time 12
    0 -0.975627 0.195469 -20.585090 0.000000 0.000000 -1.571017
    1 -2.832122 -0.242195 0.000000 -1.570795 -1.570787 0.000000
    2 1.293670 0.684478 -0.000001 -0.048803 -0.015713 0.147885
    3 5.309685 -0.003834 0.000000 -0.050864 0.015520 0.098786
    4 4.826790 -0.004591 0.000000 -0.082153 -0.053715 0.164534
    5 5.792767 -0.005304 0.000000 -0.256973 -0.065759 -0.088592
    6 6.662322 -0.001452 0.000000 -0.083065 0.051127 0.441835
    7 -3.362102 1.079310 4.277124 -3.478511 -0.849512 -0.190419
    8 4.827512 0.000000 -0.000002 -1.148884 -0.184709 -0.757352
    9 11.140032 0.000000 0.000000 0.000000 0.000000 -1.219000
    10 10.314563 -0.000001 0.000001 -4.121414 0.332255 0.757334
    11 1.646836 0.445664 -1.699647 -0.392035 3.352851 -0.875707
    12 0.928312 0.000000 0.000000 0.000000 0.000000 0.593404
    13 0.928313 0.000000 -0.000001 0.000000 0.000000 1.204231
    14 2.979373 -0.388274 -0.044205 -0.030851 -0.030823 0.768363
    15 1.435262 -0.000001 -0.000001 0.000000 0.000000 0.418706
    16 1.482593 -0.000001 0.000001 0.000000 0.000000 0.794048
    17 -2.701925 1.661394 -4.156022 -1.641879 0.890653 -5.240572
    18 4.972047 0.000000 0.000000 1.234904 0.611971 -1.518112
    19 11.585358 0.000000 0.000001 0.000000 0.000000 -0.721133
    20 10.127058 0.000000 0.000001 1.861047 0.362653 0.407778
    21 1.537458 0.109715 1.664489 -3.079588 0.031470 0.928526
    22 0.928313 0.000000 0.000002 0.000000 0.000000 0.061034
    23 0.928311 0.000000 0.000001 0.000000 0.000000 0.671897
    24 2.686395 -0.427337 0.044204 -0.001208 0.043611 -0.052337
    25 1.435260 0.000000 0.000001 0.000000 0.000000 1.186618
    26 1.482593 0.000000 -0.000001 0.000000 0.000000 1.684243
    27 2.046984 0.000001 0.000000 0.194347 0.558235 -1.156788
    28 -0.000005 0.000007 3.713254 -3.210875 -0.114661 1.238399
    29 18.045723 0.000000 0.000000 0.000000 0.000000 -1.760908
    30 17.597597 0.000000 0.000000 -0.218666 0.110264 -0.136954
    31 0.000005 -0.000003 -3.713254 0.826397 2.446520 5.470451
    32 18.045721 0.000000 0.000000 0.000000 0.000000 -2.608117
    33 17.597597 0.000000 0.000000 0.353262 -0.153164 0.777956
  time 13
    0 -0.975627 0.195469 -20.585090 0.000000 0.000000 -1.571017
    1 -2.832122 -0.250008 0.000000 -1.570795 -1.570787 0.000000
    2 1.293670 0.684478 -0.000001 -0.048803 -0.015713 0.147885
    3 5.309685 -0.003834 0.000000 -0.050166 0.011469 0.085097
    4 4.826790 -0.004591 0.000000 -0.083603 -0.051474 0.181313
    5 5.792767 -0.005304 0.000000 -0.257746 -0.062308 -0.065130
    6 6.662322 -0.001452 0.000000 -0.085163 0.047581 0.399825
    7 -3.405072 0.938680 4.277124 -3.478511 -0.849512 -0.148355
    8 4.827512 0.000000 -0.000002 -1.155740 -0.209695 -0.739762
    9 11.140032 0.000000 0.000000 0.000000 0.000000 -1.220812
    10 10.314563 -0.000001 0.000001 -4.120846 0.335909 0.761805
    11 1.646836 0.445664 -1.699647 -0.392035 3.352851 -0.875707
    12 0.928312 0.000000 0.000000 0.000000 0.000000 0.593404
    13 0.928313 0.000000 -0.000001 0.000000 0.000000 1.204231
    14 2.979373 -0.388274 -0.044205 -0.030851 -0.030823 0.768363
    15 1.435262 -0.000001 -0.000001 0.000000 0.000000 0.418706
    16 1.482593 -0.000001 0.000001 0.000000 0.000000 0.794048
    17 -2.768333 1.544203 -4.156022 -1.639109 0.890811 -5.194885
    18 4.972047 0.000000 0.000000 1.221022 0.637683 -1.524967
    19 11.585358 0.000000 0.000001 0.000000 0.000000 -0.721052
    20 10.127058 0.000000 0.000001 1.861187 0.362464 0.408478
    21 1.537458 0.109715 1.664489 -3.079588 0.031470 0.928526
    22 0.928313 0.000000 0.000002 0.000000 0.000000 0.061034
    23 0.928311 0.000000 0.000001 0.000000 0.000000 0.671897
    24 2.686395 -0.427337 0.044204 -0.001208 0.043611 -0.052337
    25 1.435260 0.000000 0.000001 0.000000 0.000000 1.186618
    26 1.482593 0.000000 -0.000001 0.000000 0.000000 1.684243
    27 2.046984 0.000001 0.000000 0.188919 0.563870 -1.142676
    28 -0.000005 0.000007 3.713254 -3.210684 -0.114853 1.238399
    29 18.045723 0.000000 0.000000 0.000000 0.000000 -1.760908
    30 17.597597 0.000000 0.000000 -0.218438 0.110116 -0.137000
    31 0.000005 -0.000003 -3.713254 0.826972 2.447000 5.470738
    32 18.045721 0.000000 0.000000 0.000000 0.000000 -2.607959
    33 17.597597 0.000000 0.000000 0.353463 -0.153519 0.778372
  time 14
    0 -0.975627 0.195469 -20.585090 0.000000 0.000000 -1.571017
    1 -2.851654 -0.242195 0.000000 -1.570795 -1.570787 0.000000
    2 1.293670 0.684478 -0.000001 -0.048803 -0.015713 0.147885
    3 5.309685 -0.003834 0.000000 -0.049673 0.008845 0.076159
    4 4.826790 -0.004591 0.000000 -0.084843 -0.049412 0.196416
    5 5.792767 -0.005304 0.000000 -0.258430 -0.059252 -0.044554
    6 6.662322 -0.001452 0.000000 -0.087056 0.043953 0.357843
    7 -3.444135 0.794145 4.277124 -3.478511 -0.849542 -0.106194
    8 4.827512 0.000000 -0.000002 -1.163473 -0.235021 -0.721652
    9 11.140032 0.000000 0.000000 0.000000 0.000000 -1.222913
    10 10.314563 -0.000001 0.000001 -4.119898 0.339656 0.767089
    11 1.646836 0.445664 -1.699647 -0.392035 3.352851 -0.875707
    12 0.928312 0.000000 0.000000 0.000000 0.000000 0.593404
    13 0.928313 0.000000 -0.000001 0.000000 0.000000 1.204231
    14 2.979373 -0.388274 -0.044205 -0.030851 -0.030823 0.768363
    15 1.435262 -0.000001 -0.000001 0.000000 0.000000 0.418706
    16 1.482593 -0.000001 0.000001 0.000000 0.000000 0.794048
    17 -2.830835 1.427012 -4.156022 -1.633950 0.891100 -5.145941
    18 4.972047 0.000000 0.000000 1.203857 0.664680 -1.534085
    19 11.585358 0.000000 0.000001 0.000000 0.000000 -0.720970
    20 10.127058 0.000000 0.000001 1.861538 0.361802 0.409729
    21 1.537458 0.109715 1.664489 -3.079588 0.031470 0.928526
    22 0.928313 0.000000 0.000002 0.000000 0.000000 0.061034
    23 0.928311 0.000000 0.000001 0.000000 0.000000 0.671897
    24 2.686395 -0.427337 0.044204 -0.001208 0.043611 -0.052337
    25 1.435260 0.000000 0.000001 0.000000 0.000000 1.186618
    26 1.482593 0.000000 -0.000001 0.000000 0.000000 1.684243
    27 2.046984 0.000001 0.000000 0.183232 0.569063 -1.129476
    28 -0.000005 0.000007 3.713254 -3.210780 -0.114757 1.238591
    29 18.045723 0.000000 0.000000 0.000000 0.000000 -1.759798
    30 17.597597 0.000000 0.000000 -0.218565 0.110190 -0.138009
    31 0.000005 -0.000003 -3.713254 0.827355 2.446425 5.469396
    32 18.045721 0.000000 0.000000 0.000000 0.000000 -2.607959
    33 17.597597 0.000000 0.000000 0.354302 -0.154742 0.777079
  time 15
    0 -0.975627 0.195469 -20.585090 0.000000 0.000000 -1.571017
    1 -2.882904 -0.238289 0.000000 -1.570795 -1.570787 0.000000
    2 1.293670 0.684478 -0.000001 -0.048803 -0.015713 0.147885
    3 5.309685 -0.003834 0.000000 -0.049537 0.008114 0.073686
    4 4.826790 -0.004591 0.000000 -0.085663 -0.048010 0.206691
    5 5.792767 -0.005304 0.000000 -0.258825 -0.057071 -0.030103
    6 6.662322 -0.001452 0.000000 -0.088854 0.040242 0.315833
    7 -3.475386 0.645703 4.277124 -3.478511 -0.849542 -0.063939
    8 4.827512 0.000000 -0.000002 -1.170966 -0.257789 -0.706488
    9 11.140032 0.000000 0.000000 0.000000 0.000000 -1.226390
    10 10.314563 -0.000001 0.000001 -4.118571 0.343121 0.774230
    11 1.646836 0.445664 -1.699647 -0.392035 3.352851 -0.875707
    12 0.928312 0.000000 0.000000 0.000000 0.000000 0.593404
    13 0.928313 0.000000 -0.000001 0.000000 0.000000 1.204231
    14 2.979373 -0.388274 -0.044205 -0.030851 -0.030823 0.768363
    15 1.435262 -0.000001 -0.000001 0.000000 0.000000 0.418706
    16 1.482593 -0.000001 0.000001 0.000000 0.000000 0.794048
    17 -2.877712 1.317633 -4.156022 -1.622104 0.891652 -5.088952
    18 4.972047 0.000000 0.000000 1.181158 0.689669 -1.547064
    19 11.585358 0.000000 0.000001 0.000000 0.000000 -0.720643
    20 10.127058 0.000000 0.000001 1.862309 0.360478 0.412580
    21 1.537458 0.109715 1.664489 -3.079588 0.031470 0.928526
    22 0.928313 0.000000 0.000002 0.000000 0.000000 0.061034
    23 0.928311 0.000000 0.000001 0.000000 0.000000 0.671897
    24 2.686395 -0.427337 0.044204 -0.001208 0.043611 -0.052337
    25 1.435260 0.000000 0.000001 0.000000 0.000000 1.186618
    26 1.482593 0.000000 -0.000001 0.000000 0.000000 1.684243
    27 2.046984 0.000001 0.000000 0.178234 0.572839 -1.111653
    28 -0.000005 0.000007 3.713254 -3.211163 -0.114470 1.238878
    29 18.045723 0.000000 0.000000 0.000000 0.000000 -1.757800
    30 17.597597 0.000000 0.000000 -0.218945 0.110412 -0.139705
    31 0.000005 -0.000003 -3.713254 0.827643 2.444987 5.466328
    32 18.045721 0.000000 0.000000 0.000000 0.000000 -2.607959
    33 17.597597 0.000000 0.000000 0.355543 -0.156675 0.774307
  time 16
    0 -0.975627 0.195469 -20.585090 0.000000 0.000000 -1.571017
    1 -2.902436 -0.230476 0.000000 -1.570795 -1.570787 0.000000
    2 1.293670 0.684478 -0.000001 -0.048803 -0.015713 0.147885
    3 5.309685 -0.003834 0.000000 -0.049520 0.007910 0.072979
    4 4.826790 -0.004591 0.000000 -0.085968 -0.047447 0.210990
    5 5.792767 -0.005304 0.000000 -0.259005 -0.056064 -0.023459
    6 6.662322 -0.001452 0.000000 -0.090460 0.036490 0.273880
    7 -3.498824 0.497261 4.277124 -3.478511 -0.849542 -0.021970
    8 4.827512 0.000000 -0.000002 -1.175350 -0.271177 -0.699556
    9 11.140032 0.000000 0.000000 0.000000 0.000000 -1.230520
    10 10.314563 -0.000001 0.000001 -4.116865 0.345744 0.782650
    11 1.646836 0.445664 -1.699647 -0.392035 3.352851 -0.875707
    12 0.928312 0.000000 0.000000 0.000000 0.000000 0.593404
    13 0.928313 0.000000 -0.000001 0.000000 0.000000 1.204231
    14 2.979373 -0.388274 -0.044205 -0.030851 -0.030823 0.768363
    15 1.435262 -0.000001 -0.000001 0.000000 0.000000 0.418706
    16 1.482593 -0.000001 0.000001 0.000000 0.000000 0.794048
    17 -2.932401 1.192629 -4.156022 -1.603858 0.892257 -5.023151
    18 4.972047 0.000000 0.000000 1.156864 0.705900 -1.562105
    19 11.585358 0.000000 0.000001 0.000000 0.000000 -0.720072
    20 10.127058 0.000000 0.000001 1.863501 0.358493 0.417032
    21 1.537458 0.109715 1.664489 -3.079588 0.031470 0.928526
    22 0.928313 0.000000 0.000002 0.000000 0.000000 0.061034
    23 0.928311 0.000000 0.000001 0.000000 0.000000 0.671897
    24 2.686395 -0.427337 0.044204 -0.001208 0.043611 -0.052337
    25 1.435260 0.000000 0.000001 0.000000 0.000000 1.186618
    26 1.482593 0.000000 -0.000001 0.000000 0.000000 1.684243
    27 2.046984 0.000001 0.000000 0.176037 0.574521 -1.080752
    28 -0.000005 0.000007 3.713254 -3.211451 -0.114278 1.238974
    29 18.045723 0.000000 0.000000 0.000000 0.000000 -1.756837
    30 17.597597 0.000000 0.000000 -0.219147 0.110535 -0.140530
    31 0.000005 -0.000003 -3.713254 0.827835 2.444220 5.464890
    32 18.045721 0.000000 0.000000 0.000000 0.000000 -2.607959
    33 17.597597 0.000000 0.000000 0.356180 -0.157602 0.772922
  time 17
    0 -0.975627 0.195469 -20.585090 0.000000 0.000000 -1.571017
    1 -2.906343 -0.230476 0.000000 -1.570795 -1.570787 0.000000
    2 1.293670 0.684478 -0.000001 -0.048803 -0.015713 0.147885
    3 5.309685 -0.003834 0.000000 -0.049537 0.008054 0.073492
    4 4.826790 -0.004591 0.000000 -0.086006 -0.047351 0.211541
    5 5.792767 -0.005304 0.000000 -0.259023 -0.055908 -0.022670
    6 6.662322 -0.001452 0.000000 -0.091910 0.032655 0.231870
    7 -3.518356 0.356631 4.277124 -3.478511 -0.849542 0.020190
    8 4.827512 0.000000 -0.000002 -1.177104 -0.277317 -0.698343
    9 11.140032 0.000000 0.000000 0.000000 0.000000 -1.234505
    10 10.314563 -0.000001 0.000001 -4.115064 0.347618 0.790488
    11 1.646836 0.445664 -1.699647 -0.392035 3.352851 -0.875707
    12 0.928312 0.000000 0.000000 0.000000 0.000000 0.593404
    13 0.928313 0.000000 -0.000001 0.000000 0.000000 1.204231
    14 2.979373 -0.388274 -0.044205 -0.030851 -0.030823 0.768363
    15 1.435262 -0.000001 -0.000001 0.000000 0.000000 0.418706
    16 1.482593 -0.000001 0.000001 0.000000 0.000000 0.794048
    17 -2.975371 1.071532 -4.156022 -1.584274 0.892599 -4.956009
    18 4.972047 0.000000 0.000000 1.135384 0.714497 -1.576082
    19 11.585358 0.000000 0.000001 0.000000 0.000000 -0.719500
    20 10.127058 0.000000 0.000001 1.864693 0.356318 0.421734
    21 1.537458 0.109715 1.664489 -3.079588 0.031470 0.928526
    22 0.928313 0.000000 0.000002 0.000000 0.000000 0.061034
    23 0.928311 0.000000 0.000001 0.000000 0.000000 0.671897
    24 2.686395 -0.427337 0.044204 -0.001208 0.043611 -0.052337
    25 1.435260 0.000000 0.000001 0.000000 0.000000 1.186618
    26 1.482593 0.000000 -0.000001 0.000000 0.000000 1.684243
    27 2.046984 0.000001 0.000000 0.175606 0.574816 -1.040727
    28 -0.000005 0.000007 3.713254 -3.211451 -0.114182 1.239070
    29 18.045723 0.000000 0.000000 0.000000 0.000000 -1.756541
    30 17.597597 0.000000 0.000000 -0.219249 0.110609 -0.140851
    31 0.000005 -0.000003 -3.713254 0.827835 2.443932 5.464315
    32 18.045721 0.000000 0.000000 0.000000 0.000000 -2.607959
    33 17.597597 0.000000 0.000000 0.356348 -0.157898 0.772506
  time 18
    0 -0.975627 0.195469 -20.585090 0.000000 0.000000 -1.571017
    1 -2.906343 -0.230476 0.000000 -1.570795 -1.570787 0.000000
    2 1.293670 0.684478 -0.000001 -0.048803 -0.015713 0.147885
    3 5.309685 -0.003834 0.000000 -0.049588 0.008353 0.074587
    4 4.826790 -0.004591 0.000000 -0.085911 -0.047591 0.209910
    5 5.792767 -0.005304 0.000000 -0.258951 -0.056316 -0.025120
    6 6.662322 -0.001452 0.000000 -0.091910 0.032655 0.231870
    7 -3.518356 0.356631 4.277124 -3.478511 -0.849542 0.020190
    8 4.827512 0.000000 -0.000002 -1.177024 -0.278084 -0.700423
    9 11.140032 0.000000 0.000000 0.000000 0.000000 -1.237331
    10 10.314563 -0.000001 0.000001 -4.113832 0.348461 0.796004
    11 1.646836 0.445664 -1.699647 -0.392035 3.352851 -0.875707
    12 0.928312 0.000000 0.000000 0.000000 0.000000 0.593404
    13 0.928313 0.000000 -0.000001 0.000000 0.000000 1.204231
    14 2.979373 -0.388274 -0.044205 -0.030851 -0.030823 0.768363
    15 1.435262 -0.000001 -0.000001 0.000000 0.000000 0.418706
    16 1.482593 -0.000001 0.000001 0.000000 0.000000 0.794048
    17 -2.975371 1.071532 -4.156022 -1.569180 0.892704 -4.936661
    18 4.972047 0.000000 0.000000 1.121220 0.716988 -1.585399
    19 11.585358 0.000000 0.000001 0.000000 0.000000 -0.719091
    20 10.127058 0.000000 0.000001 1.865675 0.354616 0.425335
    21 1.537458 0.109715 1.664489 -3.079588 0.031470 0.928526
    22 0.928313 0.000000 0.000002 0.000000 0.000000 0.061034
    23 0.928311 0.000000 0.000001 0.000000 0.000000 0.671897
    24 2.686395 -0.427337 0.044204 -0.001208 0.043611 -0.052337
    25 1.435260 0.000000 0.000001 0.000000 0.000000 1.186618
    26 1.482593 0.000000 -0.000001 0.000000 0.000000 1.684243
    27 2.046984 0.000001 0.000000 0.176209 0.574226 -1.037442
    28 -0.000005 0.000007 3.713254 -3.211451 -0.114182 1.239070
    29 18.045723 0.000000 0.000000 0.000000 0.000000 -1.756615
    30 17.597597 0.000000 0.000000 -0.219223 0.110609 -0.140714
    31 0.000005 -0.000003 -3.713254 0.827835 2.443932 5.464507
    32 18.045721 0.000000 0.000000 0.000000 0.000000 -2.608117
    33 17.597597 0.000000 0.000000 0.356281 -0.157799 0.772598
  time 19
    0 -0.975627 0.195469 -20.585090 0.000000 0.000000 -1.571017
    1 -2.902436 -0.230476 0.000000 -1.570795 -1.570787 0.000000
    2 1.293670 0.684478 -0.000001 -0.048803 -0.015713 0.147885
    3 5.309685 -0.003834 0.000000 -0.049639 0.008689 0.075647
    4 4.826790 -0.004591 0.000000 -0.085701 -0.047866 0.207749
    5 5.792767 -0.005304 0.000000 -0.258861 -0.056819 -0.028463
    6 6.662322 -0.001452 0.000000 -0.091910 0.032655 0.231870
    7 -3.518356 0.356631 4.277124 -3.478511 -0.849542 0.020190
    8 4.827512 0.000000 -0.000002 -1.175669 -0.274673 -0.703629
    9 11.140032 0.000000 0.000000 0.000000 0.000000 -1.237621
    10 10.314563 -0.000001 0.000001 -4.113643 0.348086 0.796469
    11 1.646836 0.445664 -1.699647 -0.392035 3.352851 -0.875707
    12 0.928312 0.000000 0.000000 0.000000 0.000000 0.593404
    13 0.928313 0.000000 -0.000001 0.000000 0.000000 1.204231
    14 2.979373 -0.388274 -0.044205 -0.030851 -0.030823 0.768363
    15 1.435262 -0.000001 -0.000001 0.000000 0.000000 0.418706
    16 1.482593 -0.000001 0.000001 0.000000 0.000000 0.794048
    17 -2.975371 1.071532 -4.156022 -1.566600 0.892704 -4.933309
    18 4.972047 0.000000 0.000000 1.120845 0.713935 -1.585599
    19 11.585358 0.000000 0.000001 0.000000 0.000000 -0.719010
    20 10.127058 0.000000 0.000001 1.865815 0.354237 0.425986
    21 1.537458 0.109715 1.664489 -3.079588 0.031470 0.928526
    22 0.928313 0.000000 0.000002 0.000000 0.000000 0.061034
    23 0.928311 0.000000 0.000001 0.000000 0.000000 0.671897
    24 2.686395 -0.427337 0.044204 -0.001208 0.043611 -0.052337
    25 1.435260 0.000000 0.000001 0.000000 0.000000 1.186618
    26 1.482593 0.000000 -0.000001 0.000000 0.000000 1.684243
    27 2.046984 0.000001 0.000000 0.177157 0.573429 -1.032576
    28 -0.000005 0.000007 3.713254 -3.211451 -0.114278 1.238974
    29 18.045723 0.000000 0.000000 0.000000 0.000000 -1.756837
    30 17.597597 0.000000 0.000000 -0.219223 0.110559 -0.140484
    31 0.000005 -0.000003 -3.713254 0.827643 2.444124 5.464794
    32 18.045721 0.000000 0.000000 0.000000 0.000000 -2.608117
    33 17.597597 0.000000 0.000000 0.356113 -0.157543 0.772922
  time 20
    0 -0.975627 0.195469 -20.585090 0.000000 0.000000 -1.571017
    1 -2.894624 -0.230476 0.000000 -1.570795 -1.570787 0.000000
    2 1.293670 0.684478 -0.000001 -0.048803 -0.015713 0.147885
    3 5.309685 -0.003834 0.000000 -0.049673 0.008845 0.076159
    4 4.826790 -0.004591 0.000000 -0.085663 -0.048010 0.206691
    5 5.792767 -0.005304 0.000000 -0.258825 -0.057071 -0.030103
    6 6.662322 -0.001452 0.000000 -0.091910 0.032655 0.231870
    7 -3.518356 0.356631 4.277124 -3.478511 -0.849542 0.020190
    8 4.827512 0.000000 -0.000002 -1.174792 -0.272115 -0.705188
    9 11.140032 0.000000 0.000000 0.000000 0.000000 -1.236969
    10 10.314563 -0.000001 0.000001 -4.113927 0.347618 0.795075
    11 1.646836 0.445664 -1.699647 -0.392035 3.352851 -0.875707
    12 0.928312 0.000000 0.000000 0.000000 0.000000 0.593404
    13 0.928313 0.000000 -0.000001 0.000000 0.000000 1.204231
    14 2.979373 -0.388274 -0.044205 -0.030851 -0.030823 0.768363
    15 1.435262 -0.000001 -0.000001 0.000000 0.000000 0.418706
    16 1.482593 -0.000001 0.000001 0.000000 0.000000 0.794048
    17 -2.975371 1.071532 -4.156022 -1.569180 0.892704 -4.936661
    18 4.972047 0.000000 0.000000 1.124972 0.711042 -1.582937
    19 11.585358 0.000000 0.000001 0.000000 0.000000 -0.719091
    20 10.127058 0.000000 0.000001 1.865675 0.354616 0.425335
    21 1.537458 0.109715 1.664489 -3.079588 0.031470 0.928526
    22 0.928313 0.000000 0.000002 0.000000 0.000000 0.061034
    23 0.928311 0.000000 0.000001 0.000000 0.000000 0.671897
    24 2.686395 -0.427337 0.044204 -0.001208 0.043611 -0.052337
    25 1.435260 0.000000 0.000001 0.000000 0.000000 1.186618
    26 1.482593 0.000000 -0.000001 0.000000 0.000000 1.684243
    27 2.046984 0.000001 0.000000 0.177674 0.573075 -1.030142
    28 -0.000005 0.000007 3.713254 -3.211451 -0.114278 1.238974
    29 18.045723 0.000000 0.000000 0.000000 0.000000 -1.756985
    30 17.597597 0.000000 0.000000 -0.219173 0.110535 -0.140439
    31 0.000005 -0.000003 -3.713254 0.827643 2.444220 5.464986
    32 18.045721 0.000000 0.000000 0.000000 0.000000 -2.608117
    33 17.597597 0.000000 0.000000 0.356013 -0.157405 0.773060
end
