version 1
nodes
  0 "Bip01" -1
  1 "Bip01 Pelvis" 0
  2 "Bip01 Spine" 1
  3 "Bip01 Spine1" 2
  4 "Bip01 Spine2" 3
  5 "Bip01 Spine3" 4
  6 "Bip01 Neck" 5
  7 "Bip01 L Arm" 6
  8 "Bip01 L Arm1" 7
  9 "Bip01 L Arm2" 8
  10 "Bip01 L Hand" 9
  11 "Bip01 L Finger0" 10
  12 "Bip01 L Finger01" 11
  13 "Bip01 L Finger02" 12
  14 "Bip01 L Finger1" 10
  15 "Bip01 L Finger11" 14
  16 "Bip01 L Finger12" 15
  17 "Bip01 R Arm" 6
  18 "Bip01 R Arm1" 17
  19 "Bip01 R Arm2" 18
  20 "Bip01 R Hand" 19
  21 "Bip01 R Finger0" 20
  22 "Bip01 R Finger01" 21
  23 "Bip01 R Finger02" 22
  24 "Bip01 R Finger1" 20
  25 "Bip01 R Finger11" 24
  26 "Bip01 R Finger12" 25
  27 "Bip01 Head" 6
  28 "Bip01 L Leg" 1
  29 "Bip01 L Leg1" 28
  30 "Bip01 L Foot" 29
  31 "Bip01 R Leg" 1
  32 "Bip01 R Leg1" 31
  33 "Bip01 R Foot" 32
end
skeleton
  time 0
    0 -0.889687 -0.683464 -20.600716 0.000000 0.000000 -1.585458
    1 -3.234478 0.187506 0.000000 -1.570795 -1.570787 0.000000
    2 1.293670 0.684478 -0.000001 -0.059600 0.019138 0.144336
    3 5.309685 -0.003834 0.000000 0.003642 0.013722 0.107247
    4 4.826790 -0.004591 0.000000 0.009766 -0.032718 0.191389
    5 5.792767 -0.005304 0.000000 -0.035904 -0.022387 0.131577
    6 6.662322 -0.001452 0.000000 -0.083065 0.051127 0.441835
    7 -3.362102 1.079310 4.277124 1.472395 -1.065544 -5.051088
    8 4.827512 0.000000 -0.000002 -0.639971 0.243876 -0.657964
    9 11.140032 0.000000 0.000000 0.000000 0.000000 -0.528447
    10 10.314563 -0.000001 0.000001 -1.909525 0.171139 0.321743
    11 1.646836 0.445664 -1.699647 -0.392035 3.352851 -0.875707
    12 0.928312 0.000000 0.000000 0.000000 0.000000 0.593404
    13 0.928313 0.000000 -0.000001 0.000000 0.000000 1.204231
    14 2.979373 -0.388274 -0.044205 -0.030851 -0.030823 0.768363
    15 1.435262 -0.000001 -0.000001 0.000000 0.000000 1.204014
    16 1.482593 -0.000001 0.000001 0.000000 0.000000 1.153221
    17 -2.701925 1.661394 -4.156022 -1.446708 0.732411 -4.961756
    18 4.972047 0.000000 0.000000 0.301046 -0.092292 -0.606104
    19 11.585358 0.000000 0.000001 0.000000 0.000000 -0.621402
    20 10.127058 0.000000 0.000001 2.055150 -0.114044 0.491114
    21 1.537458 0.109715 1.664489 -3.079588 0.031470 0.928526
    22 0.928313 0.000000 0.000002 0.000000 0.000000 0.061034
    23 0.928311 0.000000 0.000001 0.000000 0.000000 0.671897
    24 2.686395 -0.427337 0.044204 -0.001208 0.043611 -0.052337
    25 1.435260 0.000000 0.000001 0.000000 0.000000 1.186618
    26 1.482593 0.000000 -0.000001 0.000000 0.000000 1.684243
    27 2.046984 0.000001 0.000000 0.153246 -0.006373 -0.190220
    28 -0.000005 0.000007 3.713254 -3.288821 -0.165475 1.248656
    29 18.045723 0.000000 0.000000 0.000000 0.000000 -1.739222
    30 17.597597 0.000000 0.000000 -0.251481 0.197161 -0.159098
    31 0.000005 -0.000003 -3.713254 0.817867 2.313649 5.502088
    32 18.045721 0.000000 0.000000 0.000000 0.000000 -2.674083
    33 17.597597 0.000000 0.000000 0.373292 0.042434 0.760866
  time 1
    0 -0.897500 -0.718621 -20.600716 0.000000 0.000000 -1.585458
    1 -3.234478 0.187506 0.000000 -1.570795 -1.570787 0.000000
    2 1.293670 0.684478 -0.000001 -0.059600 0.019138 0.144336
    3 5.309685 -0.003834 0.000000 0.003642 0.013722 0.107247
    4 4.826790 -0.004591 0.000000 0.009976 -0.032670 0.183408
    5 5.792767 -0.005304 0.000000 -0.035760 -0.022915 0.116815
    6 6.662322 -0.001452 0.000000 -0.083065 0.051127 0.441835
    7 -3.362102 1.079310 4.277124 1.447186 -1.159574 -5.027229
    8 4.827512 0.000000 -0.000002 -0.546942 0.356693 -0.619838
    9 11.140032 0.000000 0.000000 0.000000 0.000000 -0.841011
    10 10.314563 -0.000001 0.000001 -1.908388 0.135544 0.219784
    11 1.646836 0.445664 -1.699647 -0.392035 3.352851 -0.875707
    12 0.928312 0.000000 0.000000 0.000000 0.000000 0.593404
    13 0.928313 0.000000 -0.000001 0.000000 0.000000 1.204231
    14 2.979373 -0.388274 -0.044205 -0.030851 -0.030823 0.768363
    15 1.435262 -0.000001 -0.000001 0.000000 0.000000 1.204014
    16 1.482593 -0.000001 0.000001 0.000000 0.000000 1.153221
    17 -2.701925 1.661394 -4.156022 -1.410501 0.852453 -4.937332
    18 4.972047 0.000000 0.000000 0.231260 -0.161794 -0.612626
    19 11.585358 0.000000 0.000001 0.000000 0.000000 -0.876162
    20 10.127058 0.000000 0.000001 2.046174 -0.069977 0.406927
    21 1.537458 0.109715 1.664489 -3.079588 0.031470 0.928526
    22 0.928313 0.000000 0.000002 0.000000 0.000000 0.061034
    23 0.928311 0.000000 0.000001 0.000000 0.000000 0.671897
    24 2.686395 -0.427337 0.044204 -0.001208 0.043611 -0.052337
    25 1.435260 0.000000 0.000001 0.000000 0.000000 1.186618
    26 1.482593 0.000000 -0.000001 0.000000 0.000000 1.684243
    27 2.046984 0.000001 0.000000 0.153074 -0.005665 -0.187665
    28 -0.000005 0.000007 3.713254 -3.288629 -0.165667 1.248273
    29 18.045723 0.000000 0.000000 0.000000 0.000000 -1.741442
    30 17.597597 0.000000 0.000000 -0.251303 0.197013 -0.157127
    31 0.000005 -0.000003 -3.713254 0.817004 2.314512 5.505443
    32 18.045721 0.000000 0.000000 0.000000 0.000000 -2.674083
    33 17.597597 0.000000 0.000000 0.371245 0.045294 0.763037
  time 2
    0 -0.897500 -0.749872 -20.600716 0.000000 0.000000 -1.585458
    1 -3.234478 0.187506 0.000000 -1.570795 -1.570787 0.000000
    2 1.293670 0.684478 -0.000001 -0.059600 0.019138 0.144336
    3 5.309685 -0.003834 0.000000 0.003642 0.013722 0.107247
    4 4.826790 -0.004591 0.000000 0.010167 -0.032586 0.175492
    5 5.792767 -0.005304 0.000000 -0.035652 -0.023202 0.107970
    6 6.662322 -0.001452 0.000000 -0.083065 0.051127 0.441835
    7 -3.362102 1.079310 4.277124 1.455908 -1.130863 -5.035565
    8 4.827512 0.000000 -0.000002 -0.568146 0.345437 -0.628676
    9 11.140032 0.000000 0.000000 0.000000 0.000000 -0.745517
    10 10.314563 -0.000001 0.000001 -1.909146 0.146410 0.250906
    11 1.646836 0.445664 -1.699647 -0.392035 3.352851 -0.875707
    12 0.928312 0.000000 0.000000 0.000000 0.000000 0.593404
    13 0.928313 0.000000 -0.000001 0.000000 0.000000 1.204231
    14 2.979373 -0.388274 -0.044205 -0.030851 -0.030823 0.768363
    15 1.435262 -0.000001 -0.000001 0.000000 0.000000 1.204014
    16 1.482593 -0.000001 0.000001 0.000000 0.000000 1.153221
    17 -2.701925 1.661394 -4.156022 -1.413558 0.843804 -4.939439
    18 4.972047 0.000000 0.000000 0.230228 -0.174329 -0.609498
    19 11.585358 0.000000 0.000001 0.000000 0.000000 -0.857702
    20 10.127058 0.000000 0.000001 2.046946 -0.073098 0.412980
    21 1.537458 0.109715 1.664489 -3.079588 0.031470 0.928526
    22 0.928313 0.000000 0.000002 0.000000 0.000000 0.061034
    23 0.928311 0.000000 0.000001 0.000000 0.000000 0.671897
    24 2.686395 -0.427337 0.044204 -0.001208 0.043611 -0.052337
    25 1.435260 0.000000 0.000001 0.000000 0.000000 1.186618
    26 1.482593 0.000000 -0.000001 0.000000 0.000000 1.684243
    27 2.046984 0.000001 0.000000 0.152815 -0.004426 -0.190950
    28 -0.000005 0.000007 3.713254 -3.288533 -0.165858 1.247985
    29 18.045723 0.000000 0.000000 0.000000 0.000000 -1.743293
    30 17.597597 0.000000 0.000000 -0.251101 0.196939 -0.155522
    31 0.000005 -0.000003 -3.713254 0.816142 2.315279 5.508319
    32 18.045721 0.000000 0.000000 0.000000 0.000000 -2.674083
    33 17.597597 0.000000 0.000000 0.369433 0.047739 0.764931
  time 3
    0 -0.897500 -0.757685 -20.600716 0.000000 0.000000 -1.585458
    1 -3.234478 0.187506 0.000000 -1.570795 -1.570787 0.000000
    2 1.293670 0.684478 -0.000001 -0.059600 0.019138 0.144336
    3 5.309685 -0.003834 0.000000 0.003642 0.013722 0.107247
    4 4.826790 -0.004591 0.000000 0.010243 -0.032562 0.171876
    5 5.792767 -0.005304 0.000000 -0.035688 -0.023106 0.110586
    6 6.662322 -0.001452 0.000000 -0.083065 0.051127 0.441835
    7 -3.362102 1.079310 4.277124 1.463097 -1.104694 -5.042177
    8 4.827512 0.000000 -0.000002 -0.592620 0.321475 -0.638814
    9 11.140032 0.000000 0.000000 0.000000 0.000000 -0.658501
    10 10.314563 -0.000001 0.000001 -1.909525 0.156245 0.279183
    11 1.646836 0.445664 -1.699647 -0.392035 3.352851 -0.875707
    12 0.928312 0.000000 0.000000 0.000000 0.000000 0.593404
    13 0.928313 0.000000 -0.000001 0.000000 0.000000 1.204231
    14 2.979373 -0.388274 -0.044205 -0.030851 -0.030823 0.768363
    15 1.435262 -0.000001 -0.000001 0.000000 0.000000 1.204014
    16 1.482593 -0.000001 0.000001 0.000000 0.000000 1.153221
    17 -2.701925 1.661394 -4.156022 -1.420628 0.821746 -4.944324
    18 4.972047 0.000000 0.000000 0.242234 -0.167097 -0.607967
    19 11.585358 0.000000 0.000001 0.000000 0.000000 -0.810981
    20 10.127058 0.000000 0.000001 2.048839 -0.081231 0.428487
    21 1.537458 0.109715 1.664489 -3.079588 0.031470 0.928526
    22 0.928313 0.000000 0.000002 0.000000 0.000000 0.061034
    23 0.928311 0.000000 0.000001 0.000000 0.000000 0.671897
    24 2.686395 -0.427337 0.044204 -0.001208 0.043611 -0.052337
    25 1.435260 0.000000 0.000001 0.000000 0.000000 1.186618
    26 1.482593 0.000000 -0.000001 0.000000 0.000000 1.684243
    27 2.046984 0.000001 0.000000 0.152858 -0.003275 -0.198432
    28 -0.000005 0.000007 3.713254 -3.288342 -0.165858 1.247985
    29 18.045723 0.000000 0.000000 0.000000 0.000000 -1.743737
    30 17.597597 0.000000 0.000000 -0.251075 0.196890 -0.155110
    31 0.000005 -0.000003 -3.713254 0.815854 2.315470 5.509086
    32 18.045721 0.000000 0.000000 0.000000 0.000000 -2.674083
    33 17.597597 0.000000 0.000000 0.368964 0.048371 0.765347
  time 4
    0 -0.897500 -0.745966 -20.600716 0.000000 0.000000 -1.585458
    1 -3.234478 0.187506 0.000000 -1.570795 -1.570787 0.000000
    2 1.293670 0.684478 -0.000001 -0.059600 0.019138 0.144336
    3 5.309685 -0.003834 0.000000 0.003642 0.013722 0.107247
    4 4.826790 -0.004591 0.000000 0.010167 -0.032586 0.175492
    5 5.792767 -0.005304 0.000000 -0.035760 -0.022915 0.116815
    6 6.662322 -0.001452 0.000000 -0.083065 0.051127 0.441835
    7 -3.362102 1.079310 4.277124 1.468178 -1.083759 -5.047255
    8 4.827512 0.000000 -0.000002 -0.614940 0.291459 -0.647913
    9 11.140032 0.000000 0.000000 0.000000 0.000000 -0.589091
    10 10.314563 -0.000001 0.000001 -1.909620 0.164207 0.301943
    11 1.646836 0.445664 -1.699647 -0.392035 3.352851 -0.875707
    12 0.928312 0.000000 0.000000 0.000000 0.000000 0.593404
    13 0.928313 0.000000 -0.000001 0.000000 0.000000 1.204231
    14 2.979373 -0.388274 -0.044205 -0.030851 -0.030823 0.768363
    15 1.435262 -0.000001 -0.000001 0.000000 0.000000 1.204014
    16 1.482593 -0.000001 0.000001 0.000000 0.000000 1.153221
    17 -2.701925 1.661394 -4.156022 -1.429894 0.792012 -4.950741
    18 4.972047 0.000000 0.000000 0.261838 -0.146287 -0.607435
    19 11.585358 0.000000 0.000001 0.000000 0.000000 -0.747761
    20 10.127058 0.000000 0.000001 2.051223 -0.092105 0.449346
    21 1.537458 0.109715 1.664489 -3.079588 0.031470 0.928526
    22 0.928313 0.000000 0.000002 0.000000 0.000000 0.061034
    23 0.928311 0.000000 0.000001 0.000000 0.000000 0.671897
    24 2.686395 -0.427337 0.044204 -0.001208 0.043611 -0.052337
    25 1.435260 0.000000 0.000001 0.000000 0.000000 1.186618
    26 1.482593 0.000000 -0.000001 0.000000 0.000000 1.684243
    27 2.046984 0.000001 0.000000 0.153160 -0.000856 -0.216863
    28 -0.000005 0.000007 3.713254 -3.288533 -0.165762 1.248081
    29 18.045723 0.000000 0.000000 0.000000 0.000000 -1.742775
    30 17.597597 0.000000 0.000000 -0.251177 0.196939 -0.156026
    31 0.000005 -0.000003 -3.713254 0.816429 2.315087 5.507648
    32 18.045721 0.000000 0.000000 0.000000 0.000000 -2.674083
    33 17.597597 0.000000 0.000000 0.369870 0.047089 0.764423
  time 5
    0 -0.897500 -0.714715 -20.600716 0.000000 0.000000 -1.585458
    1 -3.234478 0.187506 0.000000 -1.570795 -1.570787 0.000000
    2 1.293670 0.684478 -0.000001 -0.059600 0.019138 0.144336
    3 5.309685 -0.003834 0.000000 0.003642 0.013722 0.107247
    4 4.826790 -0.004591 0.000000 0.009976 -0.032670 0.183408
    5 5.792767 -0.005304 0.000000 -0.035850 -0.022651 0.124580
    6 6.662322 -0.001452 0.000000 -0.083065 0.051127 0.441835
    7 -3.362102 1.079310 4.277124 1.471341 -1.070216 -5.050034
    8 4.827512 0.000000 -0.000002 -0.631521 0.262892 -0.654498
    9 11.140032 0.000000 0.000000 0.000000 0.000000 -0.544097
    10 10.314563 -0.000001 0.000001 -1.909620 0.169359 0.316691
    11 1.646836 0.445664 -1.699647 -0.392035 3.352851 -0.875707
    12 0.928312 0.000000 0.000000 0.000000 0.000000 0.593404
    13 0.928313 0.000000 -0.000001 0.000000 0.000000 1.204231
    14 2.979373 -0.388274 -0.044205 -0.030851 -0.030823 0.768363
    15 1.435262 -0.000001 -0.000001 0.000000 0.000000 1.204014
    16 1.482593 -0.000001 0.000001 0.000000 0.000000 1.153221
    17 -2.701925 1.661394 -4.156022 -1.439065 0.760305 -4.956967
    18 4.972047 0.000000 0.000000 0.283130 -0.118486 -0.606969
    19 11.585358 0.000000 0.000001 0.000000 0.000000 -0.680457
    20 10.127058 0.000000 0.000001 2.053467 -0.103831 0.471555
    21 1.537458 0.109715 1.664489 -3.079588 0.031470 0.928526
    22 0.928313 0.000000 0.000002 0.000000 0.000000 0.061034
    23 0.928311 0.000000 0.000001 0.000000 0.000000 0.671897
    24 2.686395 -0.427337 0.044204 -0.001208 0.043611 -0.052337
    25 1.435260 0.000000 0.000001 0.000000 0.000000 1.186618
    26 1.482593 0.000000 -0.000001 0.000000 0.000000 1.684243
    27 2.046984 0.000001 0.000000 0.153246 -0.003570 -0.203785
    28 -0.000005 0.000007 3.713254 -3.288629 -0.165667 1.248368
    29 18.045723 0.000000 0.000000 0.000000 0.000000 -1.740998
    30 17.597597 0.000000 0.000000 -0.251329 0.197087 -0.157539
    31 0.000005 -0.000003 -3.713254 0.817292 2.314224 5.504868
    32 18.045721 0.000000 0.000000 0.000000 0.000000 -2.674083
    33 17.597597 0.000000 0.000000 0.371547 0.044663 0.762622
  time 6
    0 -0.889687 -0.683464 -20.600716 0.000000 0.000000 -1.585458
    1 -3.234478 0.187506 0.000000 -1.570795 -1.570787 0.000000
    2 1.293670 0.684478 -0.000001 -0.059600 0.019138 0.144336
    3 5.309685 -0.003834 0.000000 0.003642 0.013722 0.107247
    4 4.826790 -0.004591 0.000000 0.009766 -0.032718 0.191389
    5 5.792767 -0.005304 0.000000 -0.035904 -0.022387 0.131577
    6 6.662322 -0.001452 0.000000 -0.083065 0.051127 0.441835
    7 -3.362102 1.079310 4.277124 1.472395 -1.065544 -5.051088
    8 4.827512 0.000000 -0.000002 -0.639971 0.243876 -0.657964
    9 11.140032 0.000000 0.000000 0.000000 0.000000 -0.528447
    10 10.314563 -0.000001 0.000001 -1.909525 0.171139 0.321743
    11 1.646836 0.445664 -1.699647 -0.392035 3.352851 -0.875707
    12 0.928312 0.000000 0.000000 0.000000 0.000000 0.593404
    13 0.928313 0.000000 -0.000001 0.000000 0.000000 1.204231
    14 2.979373 -0.388274 -0.044205 -0.030851 -0.030823 0.768363
    15 1.435262 -0.000001 -0.000001 0.000000 0.000000 1.204014
    16 1.482593 -0.000001 0.000001 0.000000 0.000000 1.153221
    17 -2.701925 1.661394 -4.156022 -1.446708 0.732411 -4.961756
    18 4.972047 0.000000 0.000000 0.301046 -0.092292 -0.606104
    19 11.585358 0.000000 0.000001 0.000000 0.000000 -0.621402
    20 10.127058 0.000000 0.000001 2.055150 -0.114044 0.491114
    21 1.537458 0.109715 1.664489 -3.079588 0.031470 0.928526
    22 0.928313 0.000000 0.000002 0.000000 0.000000 0.061034
    23 0.928311 0.000000 0.000001 0.000000 0.000000 0.671897
    24 2.686395 -0.427337 0.044204 -0.001208 0.043611 -0.052337
    25 1.435260 0.000000 0.000001 0.000000 0.000000 1.186618
    26 1.482593 0.000000 -0.000001 0.000000 0.000000 1.684243
    27 2.046984 0.000001 0.000000 0.153246 -0.006373 -0.190220
    28 -0.000005 0.000007 3.713254 -3.288821 -0.165475 1.248656
    29 18.045723 0.000000 0.000000 0.000000 0.000000 -1.739222
    30 17.597597 0.000000 0.000000 -0.251531 0.197161 -0.159098
    31 0.000005 -0.000003 -3.713254 0.817963 2.313553 5.502279
    32 18.045721 0.000000 0.000000 0.000000 0.000000 -2.674083
    33 17.597597 0.000000 0.000000 0.373191 0.042375 0.760866
end
