version 1
nodes
  0 "Bip01" -1
  1 "Bip01 Pelvis" 0
  2 "Bip01 Spine" 1
  3 "Bip01 Spine1" 2
  4 "Bip01 Spine2" 3
  5 "Bip01 Spine3" 4
  6 "Bip01 Neck" 5
  7 "Bip01 L Arm" 6
  8 "Bip01 L Arm1" 7
  9 "Bip01 L Arm2" 8
  10 "Bip01 L Hand" 9
  11 "Bip01 L Finger0" 10
  12 "Bip01 L Finger01" 11
  13 "Bip01 L Finger02" 12
  14 "Bip01 L Finger1" 10
  15 "Bip01 L Finger11" 14
  16 "Bip01 L Finger12" 15
  17 "Bip01 R Arm" 6
  18 "Bip01 R Arm1" 17
  19 "Bip01 R Arm2" 18
  20 "Bip01 R Hand" 19
  21 "Bip01 R Finger0" 20
  22 "Bip01 R Finger01" 21
  23 "Bip01 R Finger02" 22
  24 "Bip01 R Finger1" 20
  25 "Bip01 R Finger11" 24
  26 "Bip01 R Finger12" 25
  27 "Bip01 Head" 6
  28 "Bip01 L Leg" 1
  29 "Bip01 L Leg1" 28
  30 "Bip01 L Foot" 29
  31 "Bip01 R Leg" 1
  32 "Bip01 R Leg1" 31
  33 "Bip01 R Foot" 32
end
skeleton
  time 0
    0 -0.647492 2.863520 -20.600716 0.000000 0.000000 -1.585458
    1 0.218753 -0.007813 0.000000 -1.570795 -1.570787 0.000000
    2 1.293670 0.684478 -0.000001 -0.060847 0.014800 0.072215
    3 5.309685 -0.003834 0.000000 0.005309 0.003643 0.023239
    4 4.826790 -0.004591 0.000000 0.007592 -0.022615 0.128265
    5 5.792767 -0.005304 0.000000 -0.033187 -0.014166 0.021514
    6 6.662322 -0.001452 0.000000 -0.091910 0.032655 0.231870
    7 -3.518356 0.356631 4.277124 1.379418 -1.057945 -4.734025
    8 4.827512 0.000000 -0.000002 -1.088698 -0.771648 -0.689591
    9 11.140032 0.000000 0.000000 0.000000 0.000000 -0.536345
    10 10.314563 -0.000001 0.000001 -1.905924 0.061074 0.256422
    11 1.646836 0.445664 -1.699647 -0.392035 3.352851 -0.875707
    12 0.928312 0.000000 0.000000 0.000000 0.000000 0.593404
    13 0.928313 0.000000 -0.000001 0.000000 0.000000 1.204231
    14 2.979373 -0.388274 -0.044205 -0.030851 -0.030823 0.768363
    15 1.435262 -0.000001 -0.000001 0.000000 0.000000 1.204014
    16 1.482593 -0.000001 0.000001 0.000000 0.000000 1.153221
    17 -2.975371 1.071532 -4.156022 -1.395312 0.723683 -4.673936
    18 4.972047 0.000000 0.000000 0.705130 0.890221 -0.822941
    19 11.585358 0.000000 0.000001 0.000000 0.000000 -0.576397
    20 10.127058 0.000000 0.000001 2.050522 0.080190 0.504419
    21 1.537458 0.109715 1.664489 -3.079588 0.031470 0.928526
    22 0.928313 0.000000 0.000002 0.000000 0.000000 0.061034
    23 0.928311 0.000000 0.000001 0.000000 0.000000 0.671897
    24 2.686395 -0.427337 0.044204 -0.001208 0.043611 -0.052337
    25 1.435260 0.000000 0.000001 0.000000 0.000000 1.186618
    26 1.482593 0.000000 -0.000001 0.000000 0.000000 1.684243
    27 2.046984 0.000001 0.000000 0.104088 0.112969 -0.840114
    28 -0.000005 0.000007 3.713254 -3.289109 -0.165283 1.249519
    29 18.045723 0.000000 0.000000 0.000000 0.000000 -1.732931
    30 17.597597 0.000000 0.000000 -0.251607 0.197234 -0.164508
    31 0.000005 -0.000003 -3.713254 0.821892 2.312307 5.493555
    32 18.045721 0.000000 0.000000 0.000000 0.000000 -2.673768
    33 17.597597 0.000000 0.000000 0.379969 0.033854 0.755924
  time 1
    0 -0.627960 3.011962 -20.600716 0.000000 0.000000 -1.585458
    1 0.218753 -0.007813 0.000000 -1.570795 -1.570787 0.000000
    2 1.293670 0.684478 -0.000001 -0.060847 0.014836 0.072215
    3 5.309685 -0.003834 0.000000 0.010670 0.003547 0.023239
    4 4.826790 -0.004591 0.000000 -0.011845 -0.019319 0.154921
    5 5.792767 -0.005304 0.000000 0.018132 -0.005046 0.075933
    6 6.662322 -0.001452 0.000000 -0.091910 0.032655 0.231870
    7 -3.518356 0.356631 4.277124 1.337818 -1.124476 -4.694644
    8 4.827512 0.000000 -0.000002 -0.927829 -0.450166 -0.735689
    9 11.140032 0.000000 0.000000 0.000000 0.000000 -0.977875
    10 10.314563 -0.000001 0.000001 -2.135756 -0.062854 0.071432
    11 1.646836 0.445664 -1.699647 -0.392035 3.352851 -0.875707
    12 0.928312 0.000000 0.000000 0.000000 0.000000 0.593404
    13 0.928313 0.000000 -0.000001 0.000000 0.000000 1.204231
    14 2.979373 -0.388274 -0.044205 -0.030851 -0.030823 0.768363
    15 1.435262 -0.000001 -0.000001 0.000000 0.000000 1.204014
    16 1.482593 -0.000001 0.000001 0.000000 0.000000 1.153221
    17 -2.975371 1.071532 -4.156022 -1.393401 0.728678 -4.672787
    18 4.972047 0.000000 0.000000 0.395595 0.594535 -0.958381
    19 11.585358 0.000000 0.000001 0.000000 0.000000 -1.028086
    20 10.127058 0.000000 0.000001 1.909993 0.060521 0.793744
    21 1.537458 0.109715 1.664489 -3.079588 0.031470 0.928526
    22 0.928313 0.000000 0.000002 0.000000 0.000000 0.061034
    23 0.928311 0.000000 0.000001 0.000000 0.000000 0.671897
    24 2.686395 -0.427337 0.044204 -0.001208 0.043611 -0.052337
    25 1.435260 0.000000 0.000001 0.000000 0.000000 1.186618
    26 1.482593 0.000000 -0.000001 0.000000 0.000000 1.684243
    27 2.046984 0.000001 0.000000 0.153418 0.070012 -0.660426
    28 -0.000005 0.000007 3.713254 -3.289109 -0.165283 1.249519
    29 18.045723 0.000000 0.000000 0.000000 0.000000 -1.732931
    30 17.597597 0.000000 0.000000 -0.251607 0.197234 -0.164508
    31 0.000005 -0.000003 -3.713254 0.821892 2.312307 5.493555
    32 18.045721 0.000000 0.000000 0.000000 0.000000 -2.673768
    33 17.597597 0.000000 0.000000 0.379969 0.033854 0.755924
  time 2
    0 -0.592803 3.203374 -20.600716 0.000000 0.000000 -1.585458
    1 0.218753 -0.007813 0.000000 -1.570795 -1.570787 0.000000
    2 1.293670 0.684478 -0.000001 -0.060813 0.014872 0.072215
    3 5.309685 -0.003834 0.000000 0.017596 0.003476 0.023239
    4 4.826790 -0.004591 0.000000 -0.036680 -0.014310 0.189096
    5 5.792767 -0.005304 0.000000 0.084596 0.002529 0.146402
    6 6.662322 -0.001452 0.000000 -0.091910 0.032655 0.231870
    7 -3.518356 0.356631 4.277124 1.280114 -1.189824 -4.639261
    8 4.827512 0.000000 -0.000002 -0.777483 -0.152135 -0.744788
    9 11.140032 0.000000 0.000000 0.000000 0.000000 -1.424188
    10 10.314563 -0.000001 0.000001 -2.346728 -0.226687 -0.087255
    11 1.646836 0.445664 -1.699647 -0.392035 3.352851 -0.875707
    12 0.928312 0.000000 0.000000 0.000000 0.000000 0.593404
    13 0.928313 0.000000 -0.000001 0.000000 0.000000 1.204231
    14 2.979373 -0.388274 -0.044205 -0.030851 -0.030823 0.768363
    15 1.435262 -0.000001 -0.000001 0.000000 0.000000 1.204014
    16 1.482593 -0.000001 0.000001 0.000000 0.000000 1.153221
    17 -2.975371 1.071532 -4.156022 -1.391682 0.733095 -4.671637
    18 4.972047 0.000000 0.000000 0.175825 0.413829 -0.947666
    19 11.585358 0.000000 0.000001 0.000000 0.000000 -1.394829
    20 10.127058 0.000000 0.000001 1.760559 0.088417 1.046103
    21 1.537458 0.109715 1.664489 -3.079588 0.031470 0.928526
    22 0.928313 0.000000 0.000002 0.000000 0.000000 0.061034
    23 0.928311 0.000000 0.000001 0.000000 0.000000 0.671897
    24 2.686395 -0.427337 0.044204 -0.001208 0.043611 -0.052337
    25 1.435260 0.000000 0.000001 0.000000 0.000000 1.186618
    26 1.482593 0.000000 -0.000001 0.000000 0.000000 1.684243
    27 2.046984 0.000001 0.000000 0.177760 0.015342 -0.504887
    28 -0.000005 0.000007 3.713254 -3.289109 -0.165283 1.249519
    29 18.045723 0.000000 0.000000 0.000000 0.000000 -1.732931
    30 17.597597 0.000000 0.000000 -0.251607 0.197234 -0.164508
    31 0.000005 -0.000003 -3.713254 0.821892 2.312307 5.493555
    32 18.045721 0.000000 0.000000 0.000000 0.000000 -2.673768
    33 17.597597 0.000000 0.000000 0.379969 0.033854 0.755924
  time 3
    0 -0.573271 3.340097 -20.600716 0.000000 0.000000 -1.585458
    1 0.218753 -0.007813 0.000000 -1.570795 -1.570787 0.000000
    2 1.293670 0.684478 -0.000001 -0.060847 0.014800 0.072215
    3 5.309685 -0.003834 0.000000 0.022684 0.003511 0.023239
    4 4.826790 -0.004591 0.000000 -0.053122 -0.009516 0.213945
    5 5.792767 -0.005304 0.000000 0.131454 0.005525 0.197437
    6 6.662322 -0.001452 0.000000 -0.091910 0.032655 0.231870
    7 -3.518356 0.356631 4.277124 1.229887 -1.249376 -4.592597
    8 4.827512 0.000000 -0.000002 -0.646030 0.088422 -0.716280
    9 11.140032 0.000000 0.000000 0.000000 0.000000 -1.785586
    10 10.314563 -0.000001 0.000001 -2.496096 -0.373378 -0.178589
    11 1.646836 0.445664 -1.699647 -0.392035 3.352851 -0.875707
    12 0.928312 0.000000 0.000000 0.000000 0.000000 0.593404
    13 0.928313 0.000000 -0.000001 0.000000 0.000000 1.204231
    14 2.979373 -0.388274 -0.044205 -0.030851 -0.030823 0.768363
    15 1.435262 -0.000001 -0.000001 0.000000 0.000000 1.204014
    16 1.482593 -0.000001 0.000001 0.000000 0.000000 1.153221
    17 -2.975371 1.071532 -4.156022 -1.390344 0.736696 -4.670775
    18 4.972047 0.000000 0.000000 0.011959 0.261246 -0.882974
    19 11.585358 0.000000 0.000001 0.000000 0.000000 -1.698596
    20 10.127058 0.000000 0.000001 1.640367 0.145629 1.248540
    21 1.537458 0.109715 1.664489 -3.079588 0.031470 0.928526
    22 0.928313 0.000000 0.000002 0.000000 0.000000 0.061034
    23 0.928311 0.000000 0.000001 0.000000 0.000000 0.671897
    24 2.686395 -0.427337 0.044204 -0.001208 0.043611 -0.052337
    25 1.435260 0.000000 0.000001 0.000000 0.000000 1.186618
    26 1.482593 0.000000 -0.000001 0.000000 0.000000 1.684243
    27 2.046984 0.000001 0.000000 0.198095 -0.035847 -0.318751
    28 -0.000005 0.000007 3.713254 -3.289109 -0.165283 1.249519
    29 18.045723 0.000000 0.000000 0.000000 0.000000 -1.732931
    30 17.597597 0.000000 0.000000 -0.251607 0.197234 -0.164508
    31 0.000005 -0.000003 -3.713254 0.821892 2.312307 5.493555
    32 18.045721 0.000000 0.000000 0.000000 0.000000 -2.673768
    33 17.597597 0.000000 0.000000 0.379969 0.033854 0.755924
  time 4
    0 -0.538114 3.394786 -20.600716 0.000000 0.000000 -1.585458
    1 0.218753 -0.007813 0.000000 -1.570795 -1.570787 0.000000
    2 1.293670 0.684478 -0.000001 -0.060999 0.013745 0.072282
    3 5.309685 -0.003834 0.000000 0.025287 0.005057 0.023345
    4 4.826790 -0.004591 0.000000 -0.045244 -0.000875 0.226292
    5 5.792767 -0.005304 0.000000 0.134314 0.010810 0.215376
    6 6.662322 -0.001452 0.000000 -0.091910 0.032655 0.231870
    7 -3.518356 0.356631 4.277124 1.215701 -1.274894 -4.580333
    8 4.827512 0.000000 -0.000002 -0.607447 0.173866 -0.703802
    9 11.140032 0.000000 0.000000 0.000000 0.000000 -1.914480
    10 10.314563 -0.000001 0.000001 -2.543294 -0.424054 -0.198562
    11 1.646836 0.445664 -1.699647 -0.392035 3.352851 -0.875707
    12 0.928312 0.000000 0.000000 0.000000 0.000000 0.593404
    13 0.928313 0.000000 -0.000001 0.000000 0.000000 1.204231
    14 2.979373 -0.388274 -0.044205 -0.030851 -0.030823 0.768363
    15 1.435262 -0.000001 -0.000001 0.000000 0.000000 1.204014
    16 1.482593 -0.000001 0.000001 0.000000 0.000000 1.153221
    17 -2.975371 1.071532 -4.156022 -1.390344 0.736696 -4.670775
    18 4.972047 0.000000 0.000000 -0.020964 0.227419 -0.830063
    19 11.585358 0.000000 0.000001 0.000000 0.000000 -1.771863
    20 10.127058 0.000000 0.000001 1.628235 0.177686 1.263346
    21 1.537458 0.109715 1.664489 -3.079588 0.031470 0.928526
    22 0.928313 0.000000 0.000002 0.000000 0.000000 0.061034
    23 0.928311 0.000000 0.000001 0.000000 0.000000 0.671897
    24 2.686395 -0.427337 0.044204 -0.001208 0.043611 -0.052337
    25 1.435260 0.000000 0.000001 0.000000 0.000000 1.186618
    26 1.482593 0.000000 -0.000001 0.000000 0.000000 1.684243
    27 2.046984 0.000001 0.000000 0.223385 -0.090163 -0.086993
    28 -0.000005 0.000007 3.713254 -3.289109 -0.165283 1.249519
    29 18.045723 0.000000 0.000000 0.000000 0.000000 -1.732931
    30 17.597597 0.000000 0.000000 -0.251607 0.197234 -0.164508
    31 0.000005 -0.000003 -3.713254 0.821892 2.312307 5.493555
    32 18.045721 0.000000 0.000000 0.000000 0.000000 -2.673768
    33 17.597597 0.000000 0.000000 0.379969 0.033854 0.755924
  time 5
    0 -0.499050 3.410411 -20.600716 0.000000 0.000000 -1.585458
    1 0.218753 -0.007813 0.000000 -1.570795 -1.570787 0.000000
    2 1.293670 0.684478 -0.000001 -0.061167 0.012882 0.072349
    3 5.309685 -0.003834 0.000000 0.026479 0.006376 0.023451
    4 4.826790 -0.004591 0.000000 -0.030786 0.008233 0.229797
    5 5.792767 -0.005304 0.000000 0.121579 0.018840 0.217909
    6 6.662322 -0.001452 0.000000 -0.091910 0.032655 0.231870
    7 -3.518356 0.356631 4.277124 1.305419 -1.353075 -4.677780
    8 4.827512 0.000000 -0.000002 -0.591982 0.331196 -0.669575
    9 11.140032 0.000000 0.000000 0.000000 0.000000 -2.092353
    10 10.314563 -0.000001 0.000001 -2.562439 -0.449814 -0.144099
    11 1.646836 0.445664 -1.699647 -0.392035 3.352851 -0.875707
    12 0.928312 0.000000 0.000000 0.000000 0.000000 0.593404
    13 0.928313 0.000000 -0.000001 0.000000 0.000000 1.204231
    14 2.979373 -0.388274 -0.044205 -0.030851 -0.030823 0.768363
    15 1.435262 -0.000001 -0.000001 0.000000 0.000000 1.204014
    16 1.482593 -0.000001 0.000001 0.000000 0.000000 1.153221
    17 -2.975371 1.071532 -4.156022 -1.326720 0.847037 -4.617617
    18 4.972047 0.000000 0.000000 -0.074336 0.189172 -0.871926
    19 11.585358 0.000000 0.000001 0.000000 0.000000 -1.641257
    20 10.127058 0.000000 0.000001 1.610494 0.236316 0.794294
    21 1.537458 0.109715 1.664489 -3.079588 0.031470 0.928526
    22 0.928313 0.000000 0.000002 0.000000 0.000000 0.061034
    23 0.928311 0.000000 0.000001 0.000000 0.000000 0.671897
    24 2.686395 -0.427337 0.044204 -0.001208 0.043611 -0.052337
    25 1.435260 0.000000 0.000001 0.000000 0.000000 1.186618
    26 1.482593 0.000000 -0.000001 0.000000 0.000000 1.684243
    27 2.046984 0.000001 0.000000 0.138899 -0.108219 -0.040094
    28 -0.000005 0.000007 3.713254 -3.289109 -0.165283 1.249519
    29 18.045723 0.000000 0.000000 0.000000 0.000000 -1.732931
    30 17.597597 0.000000 0.000000 -0.251607 0.197234 -0.164508
    31 0.000005 -0.000003 -3.713254 0.821892 2.312307 5.493555
    32 18.045721 0.000000 0.000000 0.000000 0.000000 -2.673768
    33 17.597597 0.000000 0.000000 0.379969 0.033854 0.755924
  time 6
    0 -0.479518 3.414318 -20.600716 0.000000 0.000000 -1.585458
    1 0.218753 -0.007813 0.000000 -1.570795 -1.570787 0.000000
    2 1.293670 0.684478 -0.000001 -0.060847 0.014800 0.072215
    3 5.309685 -0.003834 0.000000 0.022684 0.003511 0.023239
    4 4.826790 -0.004591 0.000000 -0.024625 0.012716 0.232465
    5 5.792767 -0.005304 0.000000 0.095731 0.022112 0.219113
    6 6.662322 -0.001452 0.000000 -0.091910 0.032655 0.231870
    7 -3.518356 0.356631 4.277124 1.462618 -1.400533 -4.838946
    8 4.827512 0.000000 -0.000002 -0.620600 0.375624 -0.659524
    9 11.140032 0.000000 0.000000 0.000000 0.000000 -2.130681
    10 10.314563 -0.000001 0.000001 -2.533153 -0.426209 -0.073436
    11 1.646836 0.445664 -1.699647 -0.392035 3.352851 -0.875707
    12 0.928312 0.000000 0.000000 0.000000 0.000000 0.593404
    13 0.928313 0.000000 -0.000001 0.000000 0.000000 1.204231
    14 2.979373 -0.388274 -0.044205 -0.030851 -0.030823 0.768363
    15 1.435262 -0.000001 -0.000001 0.000000 0.000000 1.204014
    16 1.482593 -0.000001 0.000001 0.000000 0.000000 1.153221
    17 -2.975371 1.071532 -4.156022 -1.260899 0.933559 -4.560820
    18 4.972047 0.000000 0.000000 -0.118703 0.156309 -0.931027
    19 11.585358 0.000000 0.000001 0.000000 0.000000 -1.533603
    20 10.127058 0.000000 0.000001 1.577746 0.273196 0.410229
    21 1.537458 0.109715 1.664489 -3.079588 0.031470 0.928526
    22 0.928313 0.000000 0.000002 0.000000 0.000000 0.061034
    23 0.928311 0.000000 0.000001 0.000000 0.000000 0.671897
    24 2.686395 -0.427337 0.044204 -0.001208 0.043611 -0.052337
    25 1.435260 0.000000 0.000001 0.000000 0.000000 1.186618
    26 1.482593 0.000000 -0.000001 0.000000 0.000000 1.684243
    27 2.046984 0.000001 0.000000 0.081039 -0.121112 0.006744
    28 -0.000005 0.000007 3.713254 -3.289109 -0.165283 1.249519
    29 18.045723 0.000000 0.000000 0.000000 0.000000 -1.732931
    30 17.597597 0.000000 0.000000 -0.251607 0.197234 -0.164508
    31 0.000005 -0.000003 -3.713254 0.821892 2.312307 5.493555
    32 18.045721 0.000000 0.000000 0.000000 0.000000 -2.673768
    33 17.597597 0.000000 0.000000 0.379969 0.033854 0.755924
  time 7
    0 -0.510769 3.426037 -20.600716 0.000000 0.000000 -1.585458
    1 0.218753 -0.007813 0.000000 -1.570795 -1.570787 0.000000
    2 1.293670 0.684478 -0.000001 -0.058826 0.026785 0.071495
    3 5.309685 -0.003834 0.000000 0.003369 -0.014453 0.022285
    4 4.826790 -0.004591 0.000000 -0.049479 0.000348 0.235464
    5 5.792767 -0.005304 0.000000 0.034734 0.006172 0.223079
    6 6.662322 -0.001452 0.000000 -0.091910 0.032655 0.231870
    7 -3.518356 0.356631 4.277124 1.287207 -1.386636 -4.660628
    8 4.827512 0.000000 -0.000002 -0.365825 0.260590 -0.688378
    9 11.140032 0.000000 0.000000 0.000000 0.000000 -2.005771
    10 10.314563 -0.000001 0.000001 -2.512871 -0.461617 -0.096429
    11 1.646836 0.445664 -1.699647 -0.392035 3.352851 -0.875707
    12 0.928312 0.000000 0.000000 0.000000 0.000000 0.593404
    13 0.928313 0.000000 -0.000001 0.000000 0.000000 1.204231
    14 2.979373 -0.388274 -0.044205 -0.030851 -0.030823 0.768363
    15 1.435262 -0.000001 -0.000001 0.000000 0.000000 1.204014
    16 1.482593 -0.000001 0.000001 0.000000 0.000000 1.153221
    17 -2.975371 1.071532 -4.156022 -1.188963 1.006252 -4.497413
    18 4.972047 0.000000 0.000000 -0.127989 0.102716 -1.057682
    19 11.585358 0.000000 0.000001 0.000000 0.000000 -1.446450
    20 10.127058 0.000000 0.000001 1.540370 0.293149 0.082938
    21 1.537458 0.109715 1.664489 -3.079588 0.031470 0.928526
    22 0.928313 0.000000 0.000002 0.000000 0.000000 0.061034
    23 0.928311 0.000000 0.000001 0.000000 0.000000 0.671897
    24 2.686395 -0.427337 0.044204 -0.001208 0.043611 -0.052337
    25 1.435260 0.000000 0.000001 0.000000 0.000000 1.186618
    26 1.482593 0.000000 -0.000001 0.000000 0.000000 1.684243
    27 2.046984 0.000001 0.000000 0.110422 -0.128783 0.043058
    28 -0.000005 0.000007 3.713254 -3.289109 -0.165283 1.249519
    29 18.045723 0.000000 0.000000 0.000000 0.000000 -1.732931
    30 17.597597 0.000000 0.000000 -0.251607 0.197234 -0.164508
    31 0.000005 -0.000003 -3.713254 0.821892 2.312307 5.493555
    32 18.045721 0.000000 0.000000 0.000000 0.000000 -2.673768
    33 17.597597 0.000000 0.000000 0.379969 0.033854 0.755924
  time 8
    0 -0.573271 3.457288 -20.600716 0.000000 0.000000 -1.585458
    1 0.218753 -0.007813 0.000000 -1.570795 -1.570787 0.000000
    2 1.293670 0.684478 -0.000001 -0.055642 0.045708 0.070407
    3 5.309685 -0.003834 0.000000 -0.026853 -0.043049 0.021543
    4 4.826790 -0.004591 0.000000 -0.090775 -0.020422 0.240248
    5 5.792767 -0.005304 0.000000 -0.058082 -0.019691 0.231114
    6 6.662322 -0.001452 0.000000 -0.091910 0.032655 0.231870
    7 -3.518356 0.356631 4.277124 1.026487 -1.344411 -4.393199
    8 4.827512 0.000000 -0.000002 0.155285 0.145897 -0.819740
    9 11.140032 0.000000 0.000000 0.000000 0.000000 -1.756387
    10 10.314563 -0.000001 0.000001 -2.475055 -0.520724 -0.143228
    11 1.646836 0.445664 -1.699647 -0.392035 3.352851 -0.875707
    12 0.928312 0.000000 0.000000 0.000000 0.000000 0.593404
    13 0.928313 0.000000 -0.000001 0.000000 0.000000 1.204231
    14 2.979373 -0.388274 -0.044205 -0.030851 -0.030823 0.768363
    15 1.435262 -0.000001 -0.000001 0.000000 0.000000 1.204014
    16 1.482593 -0.000001 0.000001 0.000000 0.000000 1.153221
    17 -2.975371 1.071532 -4.156022 -1.125339 1.059858 -4.441094
    18 4.972047 0.000000 0.000000 -0.019651 -0.018210 -1.177149
    19 11.585358 0.000000 0.000001 0.000000 0.000000 -1.431911
    20 10.127058 0.000000 0.000001 1.516879 0.301754 -0.090037
    21 1.537458 0.109715 1.664489 -3.079588 0.031470 0.928526
    22 0.928313 0.000000 0.000002 0.000000 0.000000 0.061034
    23 0.928311 0.000000 0.000001 0.000000 0.000000 0.671897
    24 2.686395 -0.427337 0.044204 -0.001208 0.043611 -0.052337
    25 1.435260 0.000000 0.000001 0.000000 0.000000 1.186618
    26 1.482593 0.000000 -0.000001 0.000000 0.000000 1.684243
    27 2.046984 0.000001 0.000000 0.201154 -0.146603 0.067147
    28 -0.000005 0.000007 3.713254 -3.289109 -0.165283 1.249519
    29 18.045723 0.000000 0.000000 0.000000 0.000000 -1.732931
    30 17.597597 0.000000 0.000000 -0.251607 0.197234 -0.164508
    31 0.000005 -0.000003 -3.713254 0.821892 2.312307 5.493555
    32 18.045721 0.000000 0.000000 0.000000 0.000000 -2.673768
    33 17.597597 0.000000 0.000000 0.379969 0.033854 0.755924
  time 9
    0 -0.624054 3.496351 -20.600716 0.000000 0.000000 -1.585458
    1 0.218753 -0.007813 0.000000 -1.570795 -1.570787 0.000000
    2 1.293670 0.684478 -0.000001 -0.052778 0.062750 0.069503
    3 5.309685 -0.003834 0.000000 -0.056480 -0.068672 0.021490
    4 4.826790 -0.004591 0.000000 -0.131766 -0.039957 0.245606
    5 5.792767 -0.005304 0.000000 -0.148399 -0.041754 0.240748
    6 6.662322 -0.001452 0.000000 -0.091910 0.032655 0.231870
    7 -3.518356 0.356631 4.277124 0.859415 -1.306799 -4.220439
    8 4.827512 0.000000 -0.000002 0.675597 0.180603 -0.943824
    9 11.140032 0.000000 0.000000 0.000000 0.000000 -1.522362
    10 10.314563 -0.000001 0.000001 -2.462829 -0.536742 -0.158325
    11 1.646836 0.445664 -1.699647 -0.392035 3.352851 -0.875707
    12 0.928312 0.000000 0.000000 0.000000 0.000000 0.593404
    13 0.928313 0.000000 -0.000001 0.000000 0.000000 1.204231
    14 2.979373 -0.388274 -0.044205 -0.030851 -0.030823 0.768363
    15 1.435262 -0.000001 -0.000001 0.000000 0.000000 1.204014
    16 1.482593 -0.000001 0.000001 0.000000 0.000000 1.153221
    17 -2.975371 1.071532 -4.156022 -1.089610 1.090461 -4.410253
    18 4.972047 0.000000 0.000000 0.195710 -0.216512 -1.244436
    19 11.585358 0.000000 0.000001 0.000000 0.000000 -1.502973
    20 10.127058 0.000000 0.000001 1.516949 0.307144 -0.068928
    21 1.537458 0.109715 1.664489 -3.079588 0.031470 0.928526
    22 0.928313 0.000000 0.000002 0.000000 0.000000 0.061034
    23 0.928311 0.000000 0.000001 0.000000 0.000000 0.671897
    24 2.686395 -0.427337 0.044204 -0.001208 0.043611 -0.052337
    25 1.435260 0.000000 0.000001 0.000000 0.000000 1.186618
    26 1.482593 0.000000 -0.000001 0.000000 0.000000 1.684243
    27 2.046984 0.000001 0.000000 0.285381 -0.175841 0.085578
    28 -0.000005 0.000007 3.713254 -3.289109 -0.165283 1.249519
    29 18.045723 0.000000 0.000000 0.000000 0.000000 -1.732931
    30 17.597597 0.000000 0.000000 -0.251607 0.197234 -0.164508
    31 0.000005 -0.000003 -3.713254 0.821892 2.312307 5.493555
    32 18.045721 0.000000 0.000000 0.000000 0.000000 -2.673768
    33 17.597597 0.000000 0.000000 0.379969 0.033854 0.755924
  time 10
    0 -0.635773 3.519790 -20.600716 0.000000 0.000000 -1.585458
    1 0.218753 -0.007813 0.000000 -1.570795 -1.570787 0.000000
    2 1.293670 0.684478 -0.000001 -0.051768 0.068958 0.069168
    3 5.309685 -0.003834 0.000000 -0.073701 -0.077888 0.021384
    4 4.826790 -0.004591 0.000000 -0.155475 -0.048897 0.248957
    5 5.792767 -0.005304 0.000000 -0.200959 -0.047483 0.246167
    6 6.662322 -0.001452 0.000000 -0.091910 0.032655 0.231870
    7 -3.518356 0.356631 4.277124 0.792030 -1.312713 -4.153366
    8 4.827512 0.000000 -0.000002 0.895217 0.228186 -0.989748
    9 11.140032 0.000000 0.000000 0.000000 0.000000 -1.435781
    10 10.314563 -0.000001 0.000001 -2.501782 -0.475387 -0.109493
    11 1.646836 0.445664 -1.699647 -0.392035 3.352851 -0.875707
    12 0.928312 0.000000 0.000000 0.000000 0.000000 0.593404
    13 0.928313 0.000000 -0.000001 0.000000 0.000000 1.204231
    14 2.979373 -0.388274 -0.044205 -0.030851 -0.030823 0.768363
    15 1.435262 -0.000001 -0.000001 0.000000 0.000000 1.204014
    16 1.482593 -0.000001 0.000001 0.000000 0.000000 1.153221
    17 -2.975371 1.071532 -4.156022 -1.072414 1.108101 -4.396365
    18 4.972047 0.000000 0.000000 0.407976 -0.425983 -1.263471
    19 11.585358 0.000000 0.000001 0.000000 0.000000 -1.599355
    20 10.127058 0.000000 0.000001 1.527397 0.311116 0.030365
    21 1.537458 0.109715 1.664489 -3.079588 0.031470 0.928526
    22 0.928313 0.000000 0.000002 0.000000 0.000000 0.061034
    23 0.928311 0.000000 0.000001 0.000000 0.000000 0.671897
    24 2.686395 -0.427337 0.044204 -0.001208 0.043611 -0.052337
    25 1.435260 0.000000 0.000001 0.000000 0.000000 1.186618
    26 1.482593 0.000000 -0.000001 0.000000 0.000000 1.684243
    27 2.046984 0.000001 0.000000 0.294558 -0.210714 0.113194
    28 -0.000005 0.000007 3.713254 -3.289109 -0.165283 1.249519
    29 18.045723 0.000000 0.000000 0.000000 0.000000 -1.732931
    30 17.597597 0.000000 0.000000 -0.251607 0.197234 -0.164508
    31 0.000005 -0.000003 -3.713254 0.821892 2.312307 5.493555
    32 18.045721 0.000000 0.000000 0.000000 0.000000 -2.673768
    33 17.597597 0.000000 0.000000 0.379969 0.033854 0.755924
  time 11
    0 -0.592803 3.496351 -20.600716 0.000000 0.000000 -1.585458
    1 0.218753 -0.007813 0.000000 -1.570795 -1.570787 0.000000
    2 1.293670 0.684478 -0.000001 -0.054008 0.055524 0.069888
    3 5.309685 -0.003834 0.000000 -0.078687 -0.056699 0.019671
    4 4.826790 -0.004591 0.000000 -0.162380 -0.041395 0.248604
    5 5.792767 -0.005304 0.000000 -0.215421 -0.021045 0.243468
    6 6.662322 -0.001452 0.000000 -0.091910 0.032655 0.231870
    7 -3.518356 0.356631 4.277124 0.781486 -1.329331 -4.144839
    8 4.827512 0.000000 -0.000002 0.858229 0.231597 -1.010458
    9 11.140032 0.000000 0.000000 0.000000 0.000000 -1.442519
    10 10.314563 -0.000001 0.000001 -2.529931 -0.425647 -0.072971
    11 1.646836 0.445664 -1.699647 -0.392035 3.352851 -0.875707
    12 0.928312 0.000000 0.000000 0.000000 0.000000 0.593404
    13 0.928313 0.000000 -0.000001 0.000000 0.000000 1.204231
    14 2.979373 -0.388274 -0.044205 -0.030851 -0.030823 0.768363
    15 1.435262 -0.000001 -0.000001 0.000000 0.000000 1.204014
    16 1.482593 -0.000001 0.000001 0.000000 0.000000 1.153221
    17 -2.975371 1.071532 -4.156022 -1.057607 1.121378 -4.383722
    18 4.972047 0.000000 0.000000 0.503088 -0.555989 -1.226999
    19 11.585358 0.000000 0.000001 0.000000 0.000000 -1.660778
    20 10.127058 0.000000 0.000001 1.533568 0.313953 0.090391
    21 1.537458 0.109715 1.664489 -3.079588 0.031470 0.928526
    22 0.928313 0.000000 0.000002 0.000000 0.000000 0.061034
    23 0.928311 0.000000 0.000001 0.000000 0.000000 0.671897
    24 2.686395 -0.427337 0.044204 -0.001208 0.043611 -0.052337
    25 1.435260 0.000000 0.000001 0.000000 0.000000 1.186618
    26 1.482593 0.000000 -0.000001 0.000000 0.000000 1.684243
    27 2.046984 0.000001 0.000000 0.341777 -0.236205 0.070188
    28 -0.000005 0.000007 3.713254 -3.289109 -0.165283 1.249519
    29 18.045723 0.000000 0.000000 0.000000 0.000000 -1.732931
    30 17.597597 0.000000 0.000000 -0.251607 0.197234 -0.164508
    31 0.000005 -0.000003 -3.713254 0.821892 2.312307 5.493555
    32 18.045721 0.000000 0.000000 0.000000 0.000000 -2.673768
    33 17.597597 0.000000 0.000000 0.379969 0.033854 0.755924
  time 12
    0 -0.499050 3.437756 -20.600716 0.000000 0.000000 -1.585458
    1 0.218753 -0.007813 0.000000 -1.570795 -1.570787 0.000000
    2 1.293670 0.684478 -0.000001 -0.058573 0.028331 0.071395
    3 5.309685 -0.003834 0.000000 -0.079793 -0.014286 0.016579
    4 4.826790 -0.004591 0.000000 -0.163944 -0.023873 0.246422
    5 5.792767 -0.005304 0.000000 -0.217508 0.029087 0.235931
    6 6.662322 -0.001452 0.000000 -0.091910 0.032655 0.231870
    7 -3.518356 0.356631 4.277124 0.780911 -1.448731 -4.154420
    8 4.827512 0.000000 -0.000002 0.637174 0.170967 -1.094595
    9 11.140032 0.000000 0.000000 0.000000 0.000000 -1.582789
    10 10.314563 -0.000001 0.000001 -2.653424 -0.100979 0.109870
    11 1.646836 0.445664 -1.699647 -0.392035 3.352851 -0.875707
    12 0.928312 0.000000 0.000000 0.000000 0.000000 0.593404
    13 0.928313 0.000000 -0.000001 0.000000 0.000000 1.204231
    14 2.979373 -0.388274 -0.044205 -0.030851 -0.030823 0.768363
    15 1.435262 -0.000001 -0.000001 0.000000 0.000000 1.204014
    16 1.482593 -0.000001 0.000001 0.000000 0.000000 1.153221
    17 -2.975371 1.071532 -4.156022 -1.046143 1.129213 -4.373474
    18 4.972047 0.000000 0.000000 0.465100 -0.564908 -1.156716
    19 11.585358 0.000000 0.000001 0.000000 0.000000 -1.670825
    20 10.127058 0.000000 0.000001 1.549907 0.315371 0.094543
    21 1.537458 0.109715 1.664489 -3.079588 0.031470 0.928526
    22 0.928313 0.000000 0.000002 0.000000 0.000000 0.061034
    23 0.928311 0.000000 0.000001 0.000000 0.000000 0.671897
    24 2.686395 -0.427337 0.044204 -0.001208 0.043611 -0.052337
    25 1.435260 0.000000 0.000001 0.000000 0.000000 1.186618
    26 1.482593 0.000000 -0.000001 0.000000 0.000000 1.684243
    27 2.046984 0.000001 0.000000 0.356727 -0.290137 0.028338
    28 -0.000005 0.000007 3.713254 -3.289109 -0.165283 1.249519
    29 18.045723 0.000000 0.000000 0.000000 0.000000 -1.732931
    30 17.597597 0.000000 0.000000 -0.251607 0.197234 -0.164508
    31 0.000005 -0.000003 -3.713254 0.821892 2.312307 5.493555
    32 18.045721 0.000000 0.000000 0.000000 0.000000 -2.673768
    33 17.597597 0.000000 0.000000 0.379969 0.033854 0.755924
  time 13
    0 -0.413110 3.383067 -20.600716 0.000000 0.000000 -1.585458
    1 0.218753 -0.007813 0.000000 -1.570795 -1.570787 0.000000
    2 1.293670 0.684478 -0.000001 -0.063239 0.000682 0.073119
    3 5.309685 -0.003834 0.000000 -0.077649 0.028308 0.013577
    4 4.826790 -0.004591 0.000000 -0.159729 -0.005825 0.244614
    5 5.792767 -0.005304 0.000000 -0.210367 0.078523 0.227335
    6 6.662322 -0.001452 0.000000 -0.091910 0.032655 0.231870
    7 -3.518356 0.356631 4.277124 1.207937 -1.566564 -4.584165
    8 4.827512 0.000000 -0.000002 0.380087 0.104539 -1.136534
    9 11.140032 0.000000 0.000000 0.000000 0.000000 -1.730304
    10 10.314563 -0.000001 0.000001 -2.720715 0.228092 0.255783
    11 1.646836 0.445664 -1.699647 -0.392035 3.352851 -0.875707
    12 0.928312 0.000000 0.000000 0.000000 0.000000 0.593404
    13 0.928313 0.000000 -0.000001 0.000000 0.000000 1.204231
    14 2.979373 -0.388274 -0.044205 -0.030851 -0.030823 0.768363
    15 1.435262 -0.000001 -0.000001 0.000000 0.000000 1.204014
    16 1.482593 -0.000001 0.000001 0.000000 0.000000 1.153221
    17 -2.975371 1.071532 -4.156022 -1.047385 1.128319 -4.374527
    18 4.972047 0.000000 0.000000 0.401223 -0.503842 -1.086767
    19 11.585358 0.000000 0.000001 0.000000 0.000000 -1.661922
    20 10.127058 0.000000 0.000001 1.577956 0.314331 0.100395
    21 1.537458 0.109715 1.664489 -3.079588 0.031470 0.928526
    22 0.928313 0.000000 0.000002 0.000000 0.000000 0.061034
    23 0.928311 0.000000 0.000001 0.000000 0.000000 0.671897
    24 2.686395 -0.427337 0.044204 -0.001208 0.043611 -0.052337
    25 1.435260 0.000000 0.000001 0.000000 0.000000 1.186618
    26 1.482593 0.000000 -0.000001 0.000000 0.000000 1.684243
    27 2.046984 0.000001 0.000000 0.358364 -0.337608 -0.006517
    28 -0.000005 0.000007 3.713254 -3.289109 -0.165283 1.249519
    29 18.045723 0.000000 0.000000 0.000000 0.000000 -1.732931
    30 17.597597 0.000000 0.000000 -0.251607 0.197234 -0.164508
    31 0.000005 -0.000003 -3.713254 0.821892 2.312307 5.493555
    32 18.045721 0.000000 0.000000 0.000000 0.000000 -2.673768
    33 17.597597 0.000000 0.000000 0.379969 0.033854 0.755924
  time 14
    0 -0.381859 3.363535 -20.600716 0.000000 0.000000 -1.585458
    1 0.218753 -0.007813 0.000000 -1.570795 -1.570787 0.000000
    2 1.293670 0.684478 -0.000001 -0.065766 -0.014095 0.074040
    3 5.309685 -0.003834 0.000000 -0.072578 0.049988 0.012005
    4 4.826790 -0.004591 0.000000 -0.149066 0.003308 0.245341
    5 5.792767 -0.005304 0.000000 -0.196678 0.102864 0.221065
    6 6.662322 -0.001452 0.000000 -0.091910 0.032655 0.231870
    7 -3.518356 0.356631 4.277124 -1.940645 -1.557723 -1.435481
    8 4.827512 0.000000 -0.000002 0.179598 0.072902 -1.111406
    9 11.140032 0.000000 0.000000 0.000000 0.000000 -1.760517
    10 10.314563 -0.000001 0.000001 -2.754266 0.270525 0.303976
    11 1.646836 0.445664 -1.699647 -0.392035 3.352851 -0.875707
    12 0.928312 0.000000 0.000000 0.000000 0.000000 0.593404
    13 0.928313 0.000000 -0.000001 0.000000 0.000000 1.204231
    14 2.979373 -0.388274 -0.044205 -0.030851 -0.030823 0.768363
    15 1.435262 -0.000001 -0.000001 0.000000 0.000000 1.204014
    16 1.482593 -0.000001 0.000001 0.000000 0.000000 1.153221
    17 -2.975371 1.071532 -4.156022 -1.053881 1.123981 -4.380370
    18 4.972047 0.000000 0.000000 0.372708 -0.433777 -1.048298
    19 11.585358 0.000000 0.000001 0.000000 0.000000 -1.646321
    20 10.127058 0.000000 0.000001 1.583216 0.315371 0.102046
    21 1.537458 0.109715 1.664489 -3.079588 0.031470 0.928526
    22 0.928313 0.000000 0.000002 0.000000 0.000000 0.061034
    23 0.928311 0.000000 0.000001 0.000000 0.000000 0.671897
    24 2.686395 -0.427337 0.044204 -0.001208 0.043611 -0.052337
    25 1.435260 0.000000 0.000001 0.000000 0.000000 1.186618
    26 1.482593 0.000000 -0.000001 0.000000 0.000000 1.684243
    27 2.046984 0.000001 0.000000 0.339881 -0.366433 -0.005361
    28 -0.000005 0.000007 3.713254 -3.289109 -0.165283 1.249519
    29 18.045723 0.000000 0.000000 0.000000 0.000000 -1.732931
    30 17.597597 0.000000 0.000000 -0.251607 0.197234 -0.164508
    31 0.000005 -0.000003 -3.713254 0.821892 2.312307 5.493555
    32 18.045721 0.000000 0.000000 0.000000 0.000000 -2.673768
    33 17.597597 0.000000 0.000000 0.379969 0.033854 0.755924
  time 15
    0 -0.424829 3.383067 -20.600716 0.000000 0.000000 -1.585458
    1 0.218753 -0.007813 0.000000 -1.570795 -1.570787 0.000000
    2 1.293670 0.684478 -0.000001 -0.065799 -0.014442 0.074090
    3 5.309685 -0.003834 0.000000 -0.059696 0.046620 0.012058
    4 4.826790 -0.004591 0.000000 -0.121313 0.001618 0.250875
    5 5.792767 -0.005304 0.000000 -0.164156 0.096332 0.214815
    6 6.662322 -0.001452 0.000000 -0.091910 0.032655 0.231870
    7 -3.518356 0.356631 4.277124 0.327047 -1.499176 -3.702733
    8 4.827512 0.000000 -0.000002 -0.196347 0.048088 -0.977531
    9 11.140032 0.000000 0.000000 0.000000 0.000000 -1.706756
    10 10.314563 -0.000001 0.000001 -2.827718 0.043370 0.326040
    11 1.646836 0.445664 -1.699647 -0.392035 3.352851 -0.875707
    12 0.928312 0.000000 0.000000 0.000000 0.000000 0.593404
    13 0.928313 0.000000 -0.000001 0.000000 0.000000 1.204231
    14 2.979373 -0.388274 -0.044205 -0.030851 -0.030823 0.768363
    15 1.435262 -0.000001 -0.000001 0.000000 0.000000 1.204014
    16 1.482593 -0.000001 0.000001 0.000000 0.000000 1.153221
    17 -2.975371 1.071532 -4.156022 -1.057607 1.121378 -4.383722
    18 4.972047 0.000000 0.000000 0.406288 -0.398584 -1.008897
    19 11.585358 0.000000 0.000001 0.000000 0.000000 -1.636356
    20 10.127058 0.000000 0.000001 1.530833 0.322369 0.093342
    21 1.537458 0.109715 1.664489 -3.079588 0.031470 0.928526
    22 0.928313 0.000000 0.000002 0.000000 0.000000 0.061034
    23 0.928311 0.000000 0.000001 0.000000 0.000000 0.671897
    24 2.686395 -0.427337 0.044204 -0.001208 0.043611 -0.052337
    25 1.435260 0.000000 0.000001 0.000000 0.000000 1.186618
    26 1.482593 0.000000 -0.000001 0.000000 0.000000 1.684243
    27 2.046984 0.000001 0.000000 0.297100 -0.331088 0.021343
    28 -0.000005 0.000007 3.713254 -3.289109 -0.165283 1.249519
    29 18.045723 0.000000 0.000000 0.000000 0.000000 -1.732931
    30 17.597597 0.000000 0.000000 -0.251607 0.197234 -0.164508
    31 0.000005 -0.000003 -3.713254 0.821892 2.312307 5.493555
    32 18.045721 0.000000 0.000000 0.000000 0.000000 -2.673768
    33 17.597597 0.000000 0.000000 0.379969 0.033854 0.755924
  time 16
    0 -0.510769 3.422130 -20.600716 0.000000 0.000000 -1.585458
    1 0.218753 -0.007813 0.000000 -1.570795 -1.570787 0.000000
    2 1.293670 0.684478 -0.000001 -0.064974 -0.009505 0.073755
    3 5.309685 -0.003834 0.000000 -0.037795 0.032310 0.012570
    4 4.826790 -0.004591 0.000000 -0.074428 -0.005117 0.260268
    5 5.792767 -0.005304 0.000000 -0.108952 0.075575 0.204787
    6 6.662322 -0.001452 0.000000 -0.091910 0.032655 0.231870
    7 -3.518356 0.356631 4.277124 0.457311 -1.396246 -3.828255
    8 4.827512 0.000000 -0.000002 -0.482212 0.060708 -0.926667
    9 11.140032 0.000000 0.000000 0.000000 0.000000 -1.619885
    10 10.314563 -0.000001 0.000001 -2.878992 -0.272961 0.327085
    11 1.646836 0.445664 -1.699647 -0.392035 3.352851 -0.875707
    12 0.928312 0.000000 0.000000 0.000000 0.000000 0.593404
    13 0.928313 0.000000 -0.000001 0.000000 0.000000 1.204231
    14 2.979373 -0.388274 -0.044205 -0.030851 -0.030823 0.768363
    15 1.435262 -0.000001 -0.000001 0.000000 0.000000 1.204014
    16 1.482593 -0.000001 0.000001 0.000000 0.000000 1.153221
    17 -2.975371 1.071532 -4.156022 -1.054072 1.123744 -4.380561
    18 4.972047 0.000000 0.000000 0.462755 -0.408869 -0.942142
    19 11.585358 0.000000 0.000001 0.000000 0.000000 -1.638480
    20 10.127058 0.000000 0.000001 1.319129 0.332582 0.026263
    21 1.537458 0.109715 1.664489 -3.079588 0.031470 0.928526
    22 0.928313 0.000000 0.000002 0.000000 0.000000 0.061034
    23 0.928311 0.000000 0.000001 0.000000 0.000000 0.671897
    24 2.686395 -0.427337 0.044204 -0.001208 0.043611 -0.052337
    25 1.435260 0.000000 0.000001 0.000000 0.000000 1.186618
    26 1.482593 0.000000 -0.000001 0.000000 0.000000 1.684243
    27 2.046984 0.000001 0.000000 0.218818 -0.250278 0.061064
    28 -0.000005 0.000007 3.713254 -3.289109 -0.165283 1.249519
    29 18.045723 0.000000 0.000000 0.000000 0.000000 -1.732931
    30 17.597597 0.000000 0.000000 -0.251607 0.197234 -0.164508
    31 0.000005 -0.000003 -3.713254 0.821892 2.312307 5.493555
    32 18.045721 0.000000 0.000000 0.000000 0.000000 -2.673768
    33 17.597597 0.000000 0.000000 0.379969 0.033854 0.755924
  time 17
    0 -0.616241 3.457288 -20.600716 0.000000 0.000000 -1.585458
    1 0.218753 -0.007813 0.000000 -1.570795 -1.570787 0.000000
    2 1.293670 0.684478 -0.000001 -0.063694 -0.001978 0.073253
    3 5.309685 -0.003834 0.000000 -0.012780 0.013111 0.012782
    4 4.826790 -0.004591 0.000000 -0.021173 -0.014549 0.270675
    5 5.792767 -0.005304 0.000000 -0.045707 0.049161 0.192433
    6 6.662322 -0.001452 0.000000 -0.091910 0.032655 0.231870
    7 -3.518356 0.356631 4.277124 0.487697 -1.347309 -3.854701
    8 4.827512 0.000000 -0.000002 -0.540724 0.068127 -0.992608
    9 11.140032 0.000000 0.000000 0.000000 0.000000 -1.574819
    10 10.314563 -0.000001 0.000001 -2.888280 -0.447098 0.320814
    11 1.646836 0.445664 -1.699647 -0.392035 3.352851 -0.875707
    12 0.928312 0.000000 0.000000 0.000000 0.000000 0.593404
    13 0.928313 0.000000 -0.000001 0.000000 0.000000 1.204231
    14 2.979373 -0.388274 -0.044205 -0.030851 -0.030823 0.768363
    15 1.435262 -0.000001 -0.000001 0.000000 0.000000 1.204014
    16 1.482593 -0.000001 0.000001 0.000000 0.000000 1.153221
    17 -2.975371 1.071532 -4.156022 -1.050728 1.126137 -4.377592
    18 4.972047 0.000000 0.000000 0.519597 -0.436509 -0.882641
    19 11.585358 0.000000 0.000001 0.000000 0.000000 -1.643217
    20 10.127058 0.000000 0.000001 1.023977 0.327948 -0.057623
    21 1.537458 0.109715 1.664489 -3.079588 0.031470 0.928526
    22 0.928313 0.000000 0.000002 0.000000 0.000000 0.061034
    23 0.928311 0.000000 0.000001 0.000000 0.000000 0.671897
    24 2.686395 -0.427337 0.044204 -0.001208 0.043611 -0.052337
    25 1.435260 0.000000 0.000001 0.000000 0.000000 1.186618
    26 1.482593 0.000000 -0.000001 0.000000 0.000000 1.684243
    27 2.046984 0.000001 0.000000 0.134031 -0.148668 0.091600
    28 -0.000005 0.000007 3.713254 -3.289109 -0.165283 1.249519
    29 18.045723 0.000000 0.000000 0.000000 0.000000 -1.732931
    30 17.597597 0.000000 0.000000 -0.251607 0.197234 -0.164508
    31 0.000005 -0.000003 -3.713254 0.821892 2.312307 5.493555
    32 18.045721 0.000000 0.000000 0.000000 0.000000 -2.673768
    33 17.597597 0.000000 0.000000 0.379969 0.033854 0.755924
  time 18
    0 -0.709994 3.476820 -20.600716 0.000000 0.000000 -1.585458
    1 0.218753 -0.007813 0.000000 -1.570795 -1.570787 0.000000
    2 1.293670 0.684478 -0.000001 -0.062447 0.005212 0.072801
    3 5.309685 -0.003834 0.000000 0.009359 -0.004806 0.012429
    4 4.826790 -0.004591 0.000000 0.025960 -0.023741 0.279648
    5 5.792767 -0.005304 0.000000 0.010649 0.025287 0.180370
    6 6.662322 -0.001452 0.000000 -0.091910 0.032655 0.231870
    7 -3.518356 0.356631 4.277124 0.494119 -1.339769 -3.860258
    8 4.827512 0.000000 -0.000002 -0.484842 0.070600 -1.094422
    9 11.140032 0.000000 0.000000 0.000000 0.000000 -1.566631
    10 10.314563 -0.000001 0.000001 -2.884015 -0.485597 0.316169
    11 1.646836 0.445664 -1.699647 -0.392035 3.352851 -0.875707
    12 0.928312 0.000000 0.000000 0.000000 0.000000 0.593404
    13 0.928313 0.000000 -0.000001 0.000000 0.000000 1.204231
    14 2.979373 -0.388274 -0.044205 -0.030851 -0.030823 0.768363
    15 1.435262 -0.000001 -0.000001 0.000000 0.000000 1.204014
    16 1.482593 -0.000001 0.000001 0.000000 0.000000 1.153221
    17 -2.975371 1.071532 -4.156022 -1.057607 1.121378 -4.383722
    18 4.972047 0.000000 0.000000 0.584787 -0.440928 -0.861410
    19 11.585358 0.000000 0.000001 0.000000 0.000000 -1.639378
    20 10.127058 0.000000 0.000001 0.873491 0.351400 -0.038765
    21 1.537458 0.109715 1.664489 -3.079588 0.031470 0.928526
    22 0.928313 0.000000 0.000002 0.000000 0.000000 0.061034
    23 0.928311 0.000000 0.000001 0.000000 0.000000 0.671897
    24 2.686395 -0.427337 0.044204 -0.001208 0.043611 -0.052337
    25 1.435260 0.000000 0.000001 0.000000 0.000000 1.186618
    26 1.482593 0.000000 -0.000001 0.000000 0.000000 1.684243
    27 2.046984 0.000001 0.000000 0.063375 -0.055142 0.102184
    28 -0.000005 0.000007 3.713254 -3.289109 -0.165283 1.249519
    29 18.045723 0.000000 0.000000 0.000000 0.000000 -1.732931
    30 17.597597 0.000000 0.000000 -0.251607 0.197234 -0.164508
    31 0.000005 -0.000003 -3.713254 0.821892 2.312307 5.493555
    32 18.045721 0.000000 0.000000 0.000000 0.000000 -2.673768
    33 17.597597 0.000000 0.000000 0.379969 0.033854 0.755924
  time 19
    0 -0.772496 3.480726 -20.600716 0.000000 0.000000 -1.585458
    1 0.218753 -0.007813 0.000000 -1.570795 -1.570787 0.000000
    2 1.293670 0.684478 -0.000001 -0.061757 0.009443 0.072533
    3 5.309685 -0.003834 0.000000 0.022854 -0.015376 0.011634
    4 4.826790 -0.004591 0.000000 0.054629 -0.029434 0.285205
    5 5.792767 -0.005304 0.000000 0.044969 0.011469 0.172833
    6 6.662322 -0.001452 0.000000 -0.091910 0.032655 0.231870
    7 -3.518356 0.356631 4.277124 0.508689 -1.328858 -3.873577
    8 4.827512 0.000000 -0.000002 -0.444426 0.072902 -1.160016
    9 11.140032 0.000000 0.000000 0.000000 0.000000 -1.552576
    10 10.314563 -0.000001 0.000001 -2.864017 -0.574679 0.296544
    11 1.646836 0.445664 -1.699647 -0.392035 3.352851 -0.875707
    12 0.928312 0.000000 0.000000 0.000000 0.000000 0.593404
    13 0.928313 0.000000 -0.000001 0.000000 0.000000 1.204231
    14 2.979373 -0.388274 -0.044205 -0.030851 -0.030823 0.768363
    15 1.435262 -0.000001 -0.000001 0.000000 0.000000 1.204014
    16 1.482593 -0.000001 0.000001 0.000000 0.000000 1.153221
    17 -2.975371 1.071532 -4.156022 -1.071650 1.110599 -4.396078
    18 4.972047 0.000000 0.000000 0.634312 -0.417788 -0.880512
    19 11.585358 0.000000 0.000001 0.000000 0.000000 -1.626963
    20 10.127058 0.000000 0.000001 0.881626 0.414853 0.072333
    21 1.537458 0.109715 1.664489 -3.079588 0.031470 0.928526
    22 0.928313 0.000000 0.000002 0.000000 0.000000 0.061034
    23 0.928311 0.000000 0.000001 0.000000 0.000000 0.671897
    24 2.686395 -0.427337 0.044204 -0.001208 0.043611 -0.052337
    25 1.435260 0.000000 0.000001 0.000000 0.000000 1.186618
    26 1.482593 0.000000 -0.000001 0.000000 0.000000 1.684243
    27 2.046984 0.000001 0.000000 0.025979 0.000384 0.091539
    28 -0.000005 0.000007 3.713254 -3.289109 -0.165283 1.249519
    29 18.045723 0.000000 0.000000 0.000000 0.000000 -1.732931
    30 17.597597 0.000000 0.000000 -0.251607 0.197234 -0.164508
    31 0.000005 -0.000003 -3.713254 0.821892 2.312307 5.493555
    32 18.045721 0.000000 0.000000 0.000000 0.000000 -2.673768
    33 17.597597 0.000000 0.000000 0.379969 0.033854 0.755924
  time 20
    0 -0.784215 3.480726 -20.600716 0.000000 0.000000 -1.585458
    1 0.218753 -0.007813 0.000000 -1.570795 -1.570787 0.000000
    2 1.293670 0.684478 -0.000001 -0.061622 0.010234 0.072483
    3 5.309685 -0.003834 0.000000 0.026070 -0.017498 0.009161
    4 4.826790 -0.004591 0.000000 0.060790 -0.031436 0.289041
    5 5.792767 -0.005304 0.000000 0.053190 0.008389 0.175968
    6 6.662322 -0.001452 0.000000 -0.091910 0.032655 0.231870
    7 -3.518356 0.356631 4.277124 0.522587 -1.320253 -3.886512
    8 4.827512 0.000000 -0.000002 -0.420112 0.066336 -1.182632
    9 11.140032 0.000000 0.000000 0.000000 0.000000 -1.540548
    10 10.314563 -0.000001 0.000001 -2.837385 -0.662169 0.268963
    11 1.646836 0.445664 -1.699647 -0.392035 3.352851 -0.875707
    12 0.928312 0.000000 0.000000 0.000000 0.000000 0.593404
    13 0.928313 0.000000 -0.000001 0.000000 0.000000 1.204231
    14 2.979373 -0.388274 -0.044205 -0.030851 -0.030823 0.768363
    15 1.435262 -0.000001 -0.000001 0.000000 0.000000 1.204014
    16 1.482593 -0.000001 0.000001 0.000000 0.000000 1.153221
    17 -2.975371 1.071532 -4.156022 -1.084260 1.099873 -4.406901
    18 4.972047 0.000000 0.000000 0.647069 -0.388701 -0.933357
    19 11.585358 0.000000 0.000001 0.000000 0.000000 -1.614629
    20 10.127058 0.000000 0.000001 0.908623 0.477171 0.190934
    21 1.537458 0.109715 1.664489 -3.079588 0.031470 0.928526
    22 0.928313 0.000000 0.000002 0.000000 0.000000 0.061034
    23 0.928311 0.000000 0.000001 0.000000 0.000000 0.671897
    24 2.686395 -0.427337 0.044204 -0.001208 0.043611 -0.052337
    25 1.435260 0.000000 0.000001 0.000000 0.000000 1.186618
    26 1.482593 0.000000 -0.000001 0.000000 0.000000 1.684243
    27 2.046984 0.000001 0.000000 0.028047 0.012598 0.058266
    28 -0.000005 0.000007 3.713254 -3.289109 -0.165283 1.249519
    29 18.045723 0.000000 0.000000 0.000000 0.000000 -1.732931
    30 17.597597 0.000000 0.000000 -0.251607 0.197234 -0.164508
    31 0.000005 -0.000003 -3.713254 0.821892 2.312307 5.493555
    32 18.045721 0.000000 0.000000 0.000000 0.000000 -2.673768
    33 17.597597 0.000000 0.000000 0.379969 0.033854 0.755924
  time 21
    0 -0.784215 3.480726 -20.600716 0.000000 0.000000 -1.585458
    1 0.218753 -0.007813 0.000000 -1.570795 -1.570787 0.000000
    2 1.293670 0.684478 -0.000001 -0.061672 0.009814 0.072533
    3 5.309685 -0.003834 0.000000 0.024539 -0.016347 0.005345
    4 4.826790 -0.004591 0.000000 0.056765 -0.031603 0.292392
    5 5.792767 -0.005304 0.000000 0.049160 0.009516 0.183837
    6 6.662322 -0.001452 0.000000 -0.091910 0.032655 0.231870
    7 -3.518356 0.356631 4.277124 0.540416 -1.311471 -3.903089
    8 4.827512 0.000000 -0.000002 -0.403053 0.053034 -1.185578
    9 11.140032 0.000000 0.000000 0.000000 0.000000 -1.525406
    10 10.314563 -0.000001 0.000001 -2.791798 -0.755654 0.229248
    11 1.646836 0.445664 -1.699647 -0.392035 3.352851 -0.875707
    12 0.928312 0.000000 0.000000 0.000000 0.000000 0.593404
    13 0.928313 0.000000 -0.000001 0.000000 0.000000 1.204231
    14 2.979373 -0.388274 -0.044205 -0.030851 -0.030823 0.768363
    15 1.435262 -0.000001 -0.000001 0.000000 0.000000 1.204014
    16 1.482593 -0.000001 0.000001 0.000000 0.000000 1.153221
    17 -2.975371 1.071532 -4.156022 -1.097635 1.089356 -4.418395
    18 4.972047 0.000000 0.000000 0.640784 -0.352624 -1.001376
    19 11.585358 0.000000 0.000001 0.000000 0.000000 -1.602867
    20 10.127058 0.000000 0.000001 0.951118 0.530694 0.311386
    21 1.537458 0.109715 1.664489 -3.079588 0.031470 0.928526
    22 0.928313 0.000000 0.000002 0.000000 0.000000 0.061034
    23 0.928311 0.000000 0.000001 0.000000 0.000000 0.671897
    24 2.686395 -0.427337 0.044204 -0.001208 0.043611 -0.052337
    25 1.435260 0.000000 0.000001 0.000000 0.000000 1.186618
    26 1.482593 0.000000 -0.000001 0.000000 0.000000 1.684243
    27 2.046984 0.000001 0.000000 0.043083 0.008645 -0.013451
    28 -0.000005 0.000007 3.713254 -3.289109 -0.165283 1.249519
    29 18.045723 0.000000 0.000000 0.000000 0.000000 -1.732931
    30 17.597597 0.000000 0.000000 -0.251607 0.197234 -0.164508
    31 0.000005 -0.000003 -3.713254 0.821892 2.312307 5.493555
    32 18.045721 0.000000 0.000000 0.000000 0.000000 -2.673768
    33 17.597597 0.000000 0.000000 0.379969 0.033854 0.755924
  time 22
    0 -0.776402 3.465100 -20.600716 0.000000 0.000000 -1.585458
    1 0.218753 -0.007813 0.000000 -1.570795 -1.570787 0.000000
    2 1.293670 0.684478 -0.000001 -0.061757 0.009443 0.072533
    3 5.309685 -0.003834 0.000000 0.022956 -0.015184 0.002908
    4 4.826790 -0.004591 0.000000 0.054381 -0.029890 0.293098
    5 5.792767 -0.005304 0.000000 0.045095 0.011026 0.183256
    6 6.662322 -0.001452 0.000000 -0.091910 0.032655 0.231870
    7 -3.518356 0.356631 4.277124 0.564763 -1.300087 -3.925894
    8 4.827512 0.000000 -0.000002 -0.389262 0.046297 -1.188958
    9 11.140032 0.000000 0.000000 0.000000 0.000000 -1.501786
    10 10.314563 -0.000001 0.000001 -2.708584 -0.861035 0.166540
    11 1.646836 0.445664 -1.699647 -0.392035 3.352851 -0.875707
    12 0.928312 0.000000 0.000000 0.000000 0.000000 0.593404
    13 0.928313 0.000000 -0.000001 0.000000 0.000000 1.204231
    14 2.979373 -0.388274 -0.044205 -0.030851 -0.030823 0.768363
    15 1.435262 -0.000001 -0.000001 0.000000 0.000000 1.204014
    16 1.482593 -0.000001 0.000001 0.000000 0.000000 1.153221
    17 -2.975371 1.071532 -4.156022 -1.113111 1.079208 -4.432666
    18 4.972047 0.000000 0.000000 0.625401 -0.311726 -1.062674
    19 11.585358 0.000000 0.000001 0.000000 0.000000 -1.592331
    20 10.127058 0.000000 0.000001 1.002309 0.569654 0.425435
    21 1.537458 0.109715 1.664489 -3.079588 0.031470 0.928526
    22 0.928313 0.000000 0.000002 0.000000 0.000000 0.061034
    23 0.928311 0.000000 0.000001 0.000000 0.000000 0.671897
    24 2.686395 -0.427337 0.044204 -0.001208 0.043611 -0.052337
    25 1.435260 0.000000 0.000001 0.000000 0.000000 1.186618
    26 1.482593 0.000000 -0.000001 0.000000 0.000000 1.684243
    27 2.046984 0.000001 0.000000 0.047951 0.006255 -0.111264
    28 -0.000005 0.000007 3.713254 -3.289109 -0.165283 1.249519
    29 18.045723 0.000000 0.000000 0.000000 0.000000 -1.732931
    30 17.597597 0.000000 0.000000 -0.251607 0.197234 -0.164508
    31 0.000005 -0.000003 -3.713254 0.821892 2.312307 5.493555
    32 18.045721 0.000000 0.000000 0.000000 0.000000 -2.673768
    33 17.597597 0.000000 0.000000 0.379969 0.033854 0.755924
  time 23
    0 -0.752964 3.426037 -20.600716 0.000000 0.000000 -1.585458
    1 0.218753 -0.007813 0.000000 -1.570795 -1.570787 0.000000
    2 1.293670 0.684478 -0.000001 -0.061757 0.009443 0.072533
    3 5.309685 -0.003834 0.000000 0.022973 -0.015340 0.002502
    4 4.826790 -0.004591 0.000000 0.060809 -0.022351 0.289570
    5 5.792767 -0.005304 0.000000 0.044718 0.011445 0.155060
    6 6.662322 -0.001452 0.000000 -0.091910 0.032655 0.231870
    7 -3.518356 0.356631 4.277124 0.686208 -1.275485 -4.042888
    8 4.827512 0.000000 -0.000002 -0.425134 0.006645 -1.209754
    9 11.140032 0.000000 0.000000 0.000000 0.000000 -1.366878
    10 10.314563 -0.000001 0.000001 -2.230722 -0.911806 -0.029888
    11 1.646836 0.445664 -1.699647 -0.392035 3.352851 -0.875707
    12 0.928312 0.000000 0.000000 0.000000 0.000000 0.593404
    13 0.928313 0.000000 -0.000001 0.000000 0.000000 1.204231
    14 2.979373 -0.388274 -0.044205 -0.030851 -0.030823 0.768363
    15 1.435262 -0.000001 -0.000001 0.000000 0.000000 1.204014
    16 1.482593 -0.000001 0.000001 0.000000 0.000000 1.153221
    17 -2.975371 1.071532 -4.156022 -1.151324 1.082337 -4.474330
    18 4.972047 0.000000 0.000000 0.580472 -0.157937 -1.047898
    19 11.585358 0.000000 0.000001 0.000000 0.000000 -1.603357
    20 10.127058 0.000000 0.000001 1.036319 0.461946 0.301732
    21 1.537458 0.109715 1.664489 -3.079588 0.031470 0.928526
    22 0.928313 0.000000 0.000002 0.000000 0.000000 0.061034
    23 0.928311 0.000000 0.000001 0.000000 0.000000 0.671897
    24 2.686395 -0.427337 0.044204 -0.001208 0.043611 -0.052337
    25 1.435260 0.000000 0.000001 0.000000 0.000000 1.186618
    26 1.482593 0.000000 -0.000001 0.000000 0.000000 1.684243
    27 2.046984 0.000001 0.000000 0.034897 0.002980 -0.184563
    28 -0.000005 0.000007 3.713254 -3.289109 -0.165283 1.249519
    29 18.045723 0.000000 0.000000 0.000000 0.000000 -1.732931
    30 17.597597 0.000000 0.000000 -0.251607 0.197234 -0.164508
    31 0.000005 -0.000003 -3.713254 0.821892 2.312307 5.493555
    32 18.045721 0.000000 0.000000 0.000000 0.000000 -2.673768
    33 17.597597 0.000000 0.000000 0.379969 0.033854 0.755924
  time 24
    0 -0.709994 3.347909 -20.600716 0.000000 0.000000 -1.585458
    1 0.218753 -0.007813 0.000000 -1.570795 -1.570787 0.000000
    2 1.293670 0.684478 -0.000001 -0.061757 0.009443 0.072533
    3 5.309685 -0.003834 0.000000 0.022956 -0.015508 0.002714
    4 4.826790 -0.004591 0.000000 0.070823 -0.010451 0.282294
    5 5.792767 -0.005304 0.000000 0.044160 0.012644 0.110254
    6 6.662322 -0.001452 0.000000 -0.091910 0.032655 0.231870
    7 -3.518356 0.356631 4.277124 0.820978 -1.243432 -4.172626
    8 4.827512 0.000000 -0.000002 -0.488270 -0.043837 -1.227517
    9 11.140032 0.000000 0.000000 0.000000 0.000000 -1.197699
    10 10.314563 -0.000001 0.000001 -1.645952 -0.843237 -0.217898
    11 1.646836 0.445664 -1.699647 -0.392035 3.352851 -0.875707
    12 0.928312 0.000000 0.000000 0.000000 0.000000 0.593404
    13 0.928313 0.000000 -0.000001 0.000000 0.000000 1.204231
    14 2.979373 -0.388274 -0.044205 -0.030851 -0.030823 0.768363
    15 1.435262 -0.000001 -0.000001 0.000000 0.000000 1.204014
    16 1.482593 -0.000001 0.000001 0.000000 0.000000 1.153221
    17 -2.975371 1.071532 -4.156022 -1.214948 1.099031 -4.546836
    18 4.972047 0.000000 0.000000 0.515282 0.115251 -0.973556
    19 11.585358 0.000000 0.000001 0.000000 0.000000 -1.640848
    20 10.127058 0.000000 0.000001 1.132178 0.215512 -0.059123
    21 1.537458 0.109715 1.664489 -3.079588 0.031470 0.928526
    22 0.928313 0.000000 0.000002 0.000000 0.000000 0.061034
    23 0.928311 0.000000 0.000001 0.000000 0.000000 0.671897
    24 2.686395 -0.427337 0.044204 -0.001208 0.043611 -0.052337
    25 1.435260 0.000000 0.000001 0.000000 0.000000 1.186618
    26 1.482593 0.000000 -0.000001 0.000000 0.000000 1.684243
    27 2.046984 0.000001 0.000000 0.019904 -0.007435 -0.212361
    28 -0.000005 0.000007 3.713254 -3.289109 -0.165283 1.249519
    29 18.045723 0.000000 0.000000 0.000000 0.000000 -1.732931
    30 17.597597 0.000000 0.000000 -0.251607 0.197234 -0.164508
    31 0.000005 -0.000003 -3.713254 0.821892 2.312307 5.493555
    32 18.045721 0.000000 0.000000 0.000000 0.000000 -2.673768
    33 17.597597 0.000000 0.000000 0.379969 0.033854 0.755924
  time 25
    0 -0.678743 3.285408 -20.600716 0.000000 0.000000 -1.585458
    1 0.218753 -0.007813 0.000000 -1.570795 -1.570787 0.000000
    2 1.293670 0.684478 -0.000001 -0.061757 0.009443 0.072533
    3 5.309685 -0.003834 0.000000 0.022956 -0.015184 0.002908
    4 4.826790 -0.004591 0.000000 0.077308 -0.001870 0.271843
    5 5.792767 -0.005304 0.000000 0.043728 0.015580 0.080812
    6 6.662322 -0.001452 0.000000 -0.091910 0.032655 0.231870
    7 -3.518356 0.356631 4.277124 0.881365 -1.224804 -4.230308
    8 4.827512 0.000000 -0.000002 -0.529005 -0.064900 -1.232456
    9 11.140032 0.000000 0.000000 0.000000 0.000000 -1.129593
    10 10.314563 -0.000001 0.000001 -1.373375 -0.783849 -0.278400
    11 1.646836 0.445664 -1.699647 -0.392035 3.352851 -0.875707
    12 0.928312 0.000000 0.000000 0.000000 0.000000 0.593404
    13 0.928313 0.000000 -0.000001 0.000000 0.000000 1.204231
    14 2.979373 -0.388274 -0.044205 -0.030851 -0.030823 0.768363
    15 1.435262 -0.000001 -0.000001 0.000000 0.000000 1.204014
    16 1.482593 -0.000001 0.000001 0.000000 0.000000 1.153221
    17 -2.975371 1.071532 -4.156022 -1.275515 1.112282 -4.615319
    18 4.972047 0.000000 0.000000 0.463505 0.352603 -0.922242
    19 11.585358 0.000000 0.000001 0.000000 0.000000 -1.683975
    20 10.127058 0.000000 0.000001 1.318428 0.040379 -0.382012
    21 1.537458 0.109715 1.664489 -3.079588 0.031470 0.928526
    22 0.928313 0.000000 0.000002 0.000000 0.000000 0.061034
    23 0.928311 0.000000 0.000001 0.000000 0.000000 0.671897
    24 2.686395 -0.427337 0.044204 -0.001208 0.043611 -0.052337
    25 1.435260 0.000000 0.000001 0.000000 0.000000 1.186618
    26 1.482593 0.000000 -0.000001 0.000000 0.000000 1.684243
    27 2.046984 0.000001 0.000000 0.011417 -0.017142 -0.204514
    28 -0.000005 0.000007 3.713254 -3.289109 -0.165283 1.249519
    29 18.045723 0.000000 0.000000 0.000000 0.000000 -1.732931
    30 17.597597 0.000000 0.000000 -0.251607 0.197234 -0.164508
    31 0.000005 -0.000003 -3.713254 0.821892 2.312307 5.493555
    32 18.045721 0.000000 0.000000 0.000000 0.000000 -2.673768
    33 17.597597 0.000000 0.000000 0.379969 0.033854 0.755924
  time 26
    0 -0.635773 3.183842 -20.600716 0.000000 0.000000 -1.585458
    1 0.218753 -0.007813 0.000000 -1.570795 -1.570787 0.000000
    2 1.293670 0.684478 -0.000001 -0.061757 0.009443 0.072533
    3 5.309685 -0.003834 0.000000 0.022973 -0.013159 0.002961
    4 4.826790 -0.004591 0.000000 0.078586 0.003416 0.244371
    5 5.792767 -0.005304 0.000000 0.043782 0.026055 0.074542
    6 6.662322 -0.001452 0.000000 -0.091910 0.032655 0.231870
    7 -3.518356 0.356631 4.277124 0.913859 -1.214011 -4.261354
    8 4.827512 0.000000 -0.000002 -0.563363 -0.066691 -1.226911
    9 11.140032 0.000000 0.000000 0.000000 0.000000 -1.109306
    10 10.314563 -0.000001 0.000001 -1.231590 -0.742446 -0.291928
    11 1.646836 0.445664 -1.699647 -0.392035 3.352851 -0.875707
    12 0.928312 0.000000 0.000000 0.000000 0.000000 0.593404
    13 0.928313 0.000000 -0.000001 0.000000 0.000000 1.204231
    14 2.979373 -0.388274 -0.044205 -0.030851 -0.030823 0.768363
    15 1.435262 -0.000001 -0.000001 0.000000 0.000000 1.204014
    16 1.482593 -0.000001 0.000001 0.000000 0.000000 1.153221
    17 -2.975371 1.071532 -4.156022 -1.280769 1.113044 -4.620970
    18 4.972047 0.000000 0.000000 0.427393 0.238748 -0.895420
    19 11.585358 0.000000 0.000001 0.000000 0.000000 -1.759366
    20 10.127058 0.000000 0.000001 1.585109 0.063169 -0.322037
    21 1.537458 0.109715 1.664489 -3.079588 0.031470 0.928526
    22 0.928313 0.000000 0.000002 0.000000 0.000000 0.061034
    23 0.928311 0.000000 0.000001 0.000000 0.000000 0.671897
    24 2.686395 -0.427337 0.044204 -0.001184 0.043611 -0.051778
    25 1.435260 0.000000 0.000001 0.000000 0.000000 1.186618
    26 1.482593 0.000000 -0.000001 0.000000 0.000000 1.684243
    27 2.046984 0.000001 0.000000 0.006549 -0.031097 -0.176351
    28 -0.000005 0.000007 3.713254 -3.289109 -0.165283 1.249519
    29 18.045723 0.000000 0.000000 0.000000 0.000000 -1.732931
    30 17.597597 0.000000 0.000000 -0.251607 0.197234 -0.164508
    31 0.000005 -0.000003 -3.713254 0.821892 2.312307 5.493555
    32 18.045721 0.000000 0.000000 0.000000 0.000000 -2.673768
    33 17.597597 0.000000 0.000000 0.379969 0.033854 0.755924
  time 27
    0 -0.584990 3.054932 -20.600716 0.000000 0.000000 -1.585458
    1 0.218753 -0.007813 0.000000 -1.570795 -1.570787 0.000000
    2 1.293670 0.684478 -0.000001 -0.061757 0.009443 0.072533
    3 5.309685 -0.003834 0.000000 0.023007 -0.009983 0.003014
    4 4.826790 -0.004591 0.000000 0.078338 0.009072 0.203053
    5 5.792767 -0.005304 0.000000 0.044034 0.042066 0.073753
    6 6.662322 -0.001452 0.000000 -0.091910 0.032655 0.231870
    7 -3.518356 0.356631 4.277124 0.900344 -1.214898 -4.247843
    8 4.827512 0.000000 -0.000002 -0.565994 -0.000177 -1.224224
    9 11.140032 0.000000 0.000000 0.000000 0.000000 -1.151184
    10 10.314563 -0.000001 0.000001 -1.175672 -0.751345 -0.324850
    11 1.646836 0.445664 -1.699647 -0.392035 3.352851 -0.875707
    12 0.928312 0.000000 0.000000 0.000000 0.000000 0.593404
    13 0.928313 0.000000 -0.000001 0.000000 0.000000 1.204231
    14 2.979373 -0.388274 -0.044205 -0.030851 -0.030823 0.768363
    15 1.435262 -0.000001 -0.000001 0.000000 0.000000 1.204014
    16 1.482593 -0.000001 0.000001 0.000000 0.000000 1.153221
    17 -2.975371 1.071532 -4.156022 -1.278285 1.112702 -4.618192
    18 4.972047 0.000000 0.000000 0.383589 0.072023 -0.859746
    19 11.585358 0.000000 0.000001 0.000000 0.000000 -1.840311
    20 10.127058 0.000000 0.000001 1.867428 0.076597 -0.203836
    21 1.537458 0.109715 1.664489 -3.079588 0.031470 0.928526
    22 0.928313 0.000000 0.000002 0.000000 0.000000 0.061034
    23 0.928311 0.000000 0.000001 0.000000 0.000000 0.671897
    24 2.686395 -0.427337 0.044204 -0.001160 0.043611 -0.051219
    25 1.435260 0.000000 0.000001 0.000000 0.000000 1.186618
    26 1.482593 0.000000 -0.000001 0.000000 0.000000 1.684243
    27 2.046984 0.000001 0.000000 0.000560 -0.051100 -0.147335
    28 -0.000005 0.000007 3.713254 -3.289109 -0.165283 1.249519
    29 18.045723 0.000000 0.000000 0.000000 0.000000 -1.732931
    30 17.597597 0.000000 0.000000 -0.251607 0.197234 -0.164508
    31 0.000005 -0.000003 -3.713254 0.821892 2.312307 5.493555
    32 18.045721 0.000000 0.000000 0.000000 0.000000 -2.673768
    33 17.597597 0.000000 0.000000 0.379969 0.033854 0.755924
  time 28
    0 -0.553739 2.957272 -20.600716 0.000000 0.000000 -1.585458
    1 0.218753 -0.007813 0.000000 -1.570795 -1.570787 0.000000
    2 1.293670 0.684478 -0.000001 -0.061757 0.009443 0.072533
    3 5.309685 -0.003834 0.000000 0.023041 -0.007886 0.003067
    4 4.826790 -0.004591 0.000000 0.077900 0.012812 0.173971
    5 5.792767 -0.005304 0.000000 0.044106 0.052816 0.072258
    6 6.662322 -0.001452 0.000000 -0.091910 0.032655 0.231870
    7 -3.518356 0.356631 4.277124 0.913859 -1.214011 -4.261354
    8 4.827512 0.000000 -0.000002 -0.581619 0.036235 -1.197016
    9 11.140032 0.000000 0.000000 0.000000 0.000000 -1.187121
    10 10.314563 -0.000001 0.000001 -1.233201 -0.742352 -0.292451
    11 1.646836 0.445664 -1.699647 -0.392035 3.352851 -0.875707
    12 0.928312 0.000000 0.000000 0.000000 0.000000 0.593404
    13 0.928313 0.000000 -0.000001 0.000000 0.000000 1.204231
    14 2.979373 -0.388274 -0.044205 -0.030851 -0.030823 0.768363
    15 1.435262 -0.000001 -0.000001 0.000000 0.000000 1.204014
    16 1.482593 -0.000001 0.000001 0.000000 0.000000 1.153221
    17 -2.975371 1.071532 -4.156022 -1.275515 1.112282 -4.615319
    18 4.972047 0.000000 0.000000 0.366142 -0.043922 -0.834455
    19 11.585358 0.000000 0.000001 0.000000 0.000000 -1.900509
    20 10.127058 0.000000 0.000001 2.110197 0.059197 -0.098640
    21 1.537458 0.109715 1.664489 -3.079588 0.031470 0.928526
    22 0.928313 0.000000 0.000002 0.000000 0.000000 0.061034
    23 0.928311 0.000000 0.000001 0.000000 0.000000 0.671897
    24 2.686395 -0.427337 0.044204 -0.001208 0.043611 -0.052337
    25 1.435260 0.000000 0.000001 0.000000 0.000000 1.186618
    26 1.482593 0.000000 -0.000001 0.000000 0.000000 1.684243
    27 2.046984 0.000001 0.000000 -0.001853 -0.063875 -0.170998
    28 -0.000005 0.000007 3.713254 -3.289109 -0.165283 1.249519
    29 18.045723 0.000000 0.000000 0.000000 0.000000 -1.732931
    30 17.597597 0.000000 0.000000 -0.251607 0.197234 -0.164508
    31 0.000005 -0.000003 -3.713254 0.821892 2.312307 5.493555
    32 18.045721 0.000000 0.000000 0.000000 0.000000 -2.673768
    33 17.597597 0.000000 0.000000 0.379969 0.033854 0.755924
  time 29
    0 -0.549833 2.902583 -20.600716 0.000000 0.000000 -1.585458
    1 0.218753 -0.007813 0.000000 -1.570795 -1.570787 0.000000
    2 1.293670 0.684478 -0.000001 -0.061757 0.009287 0.072533
    3 5.309685 -0.003834 0.000000 0.023467 -0.007958 0.002555
    4 4.826790 -0.004591 0.000000 0.079502 0.014981 0.161117
    5 5.792767 -0.005304 0.000000 0.045329 0.056172 0.060278
    6 6.662322 -0.001452 0.000000 -0.091910 0.032655 0.231870
    7 -3.518356 0.356631 4.277124 1.034155 -1.191746 -4.381031
    8 4.827512 0.000000 -0.000002 -0.680308 -0.028659 -1.080991
    9 11.140032 0.000000 0.000000 0.000000 0.000000 -1.155024
    10 10.314563 -0.000001 0.000001 -1.425408 -0.615239 -0.116693
    11 1.646836 0.445664 -1.699647 -0.392035 3.352851 -0.875707
    12 0.928312 0.000000 0.000000 0.000000 0.000000 0.593404
    13 0.928313 0.000000 -0.000001 0.000000 0.000000 1.204231
    14 2.979373 -0.388274 -0.044205 -0.030851 -0.030823 0.768363
    15 1.435262 -0.000001 -0.000001 0.000000 0.000000 1.204014
    16 1.482593 -0.000001 0.000001 0.000000 0.000000 1.153221
    17 -2.975371 1.071532 -4.156022 -1.267872 1.128450 -4.609476
    18 4.972047 0.000000 0.000000 0.478700 0.096529 -0.919912
    19 11.585358 0.000000 0.000001 0.000000 0.000000 -1.868408
    20 10.127058 0.000000 0.000001 2.054449 0.047944 -0.132955
    21 1.537458 0.109715 1.664489 -3.079588 0.031470 0.928526
    22 0.928313 0.000000 0.000002 0.000000 0.000000 0.061034
    23 0.928311 0.000000 0.000001 0.000000 0.000000 0.671897
    24 2.686395 -0.427337 0.044204 -0.001735 0.043599 -0.064518
    25 1.435260 0.000000 0.000001 0.000000 0.000000 1.186618
    26 1.482593 0.000000 -0.000001 0.000000 0.000000 1.684243
    27 2.046984 0.000001 0.000000 -0.003188 -0.066914 -0.244236
    28 -0.000005 0.000007 3.713254 -3.289109 -0.165283 1.249519
    29 18.045723 0.000000 0.000000 0.000000 0.000000 -1.732931
    30 17.597597 0.000000 0.000000 -0.251607 0.197234 -0.164508
    31 0.000005 -0.000003 -3.713254 0.821892 2.312307 5.493555
    32 18.045721 0.000000 0.000000 0.000000 0.000000 -2.673768
    33 17.597597 0.000000 0.000000 0.379969 0.033854 0.755924
  time 30
    0 -0.553739 2.863520 -20.600716 0.000000 0.000000 -1.585458
    1 0.218753 -0.007813 0.000000 -1.570795 -1.570787 0.000000
    2 1.293670 0.684478 -0.000001 -0.061757 0.009443 0.072533
    3 5.309685 -0.003834 0.000000 0.023041 -0.007886 0.003067
    4 4.826790 -0.004591 0.000000 0.077614 0.014429 0.153003
    5 5.792767 -0.005304 0.000000 0.042775 0.053919 0.047592
    6 6.662322 -0.001452 0.000000 -0.091910 0.032655 0.231870
    7 -3.518356 0.356631 4.277124 1.172279 -1.154222 -4.519775
    8 4.827512 0.000000 -0.000002 -0.808732 -0.139855 -0.944690
    9 11.140032 0.000000 0.000000 0.000000 0.000000 -1.049314
    10 10.314563 -0.000001 0.000001 -1.619794 -0.412533 0.053548
    11 1.646836 0.445664 -1.699647 -0.392035 3.352851 -0.875707
    12 0.928312 0.000000 0.000000 0.000000 0.000000 0.593404
    13 0.928313 0.000000 -0.000001 0.000000 0.000000 1.204231
    14 2.979373 -0.388274 -0.044205 -0.030851 -0.030823 0.768363
    15 1.435262 -0.000001 -0.000001 0.000000 0.000000 1.204014
    16 1.482593 -0.000001 0.000001 0.000000 0.000000 1.153221
    17 -2.975371 1.071532 -4.156022 -1.275515 1.112282 -4.615319
    18 4.972047 0.000000 0.000000 0.601389 0.353487 -0.986135
    19 11.585358 0.000000 0.000001 0.000000 0.000000 -1.705457
    20 10.127058 0.000000 0.000001 1.890359 0.046715 -0.152764
    21 1.537458 0.109715 1.664489 -3.079588 0.031470 0.928526
    22 0.928313 0.000000 0.000002 0.000000 0.000000 0.061034
    23 0.928311 0.000000 0.000001 0.000000 0.000000 0.671897
    24 2.686395 -0.427337 0.044204 -0.002239 0.043575 -0.075413
    25 1.435260 0.000000 0.000001 0.000000 0.000000 1.186618
    26 1.482593 0.000000 -0.000001 0.000000 0.000000 1.684243
    27 2.046984 0.000001 0.000000 0.004739 -0.062341 -0.342596
    28 -0.000005 0.000007 3.713254 -3.289109 -0.165283 1.249519
    29 18.045723 0.000000 0.000000 0.000000 0.000000 -1.732931
    30 17.597597 0.000000 0.000000 -0.251607 0.197234 -0.164508
    31 0.000005 -0.000003 -3.713254 0.821892 2.312307 5.493555
    32 18.045721 0.000000 0.000000 0.000000 0.000000 -2.673768
    33 17.597597 0.000000 0.000000 0.379969 0.033854 0.755924
  time 31
    0 -0.561552 2.855707 -20.600716 0.000000 0.000000 -1.585458
    1 0.218753 -0.007813 0.000000 -1.570795 -1.570787 0.000000
    2 1.293670 0.684478 -0.000001 -0.061571 0.010438 0.072466
    3 5.309685 -0.003834 0.000000 0.019757 -0.005777 0.006794
    4 4.826790 -0.004591 0.000000 0.064605 0.007826 0.147072
    5 5.792767 -0.005304 0.000000 0.028547 0.041563 0.040989
    6 6.662322 -0.001452 0.000000 -0.091910 0.032655 0.231870
    7 -3.518356 0.356631 4.277124 1.298326 -1.103541 -4.648651
    8 4.827512 0.000000 -0.000002 -0.924880 -0.318674 -0.860986
    9 11.140032 0.000000 0.000000 0.000000 0.000000 -0.784425
    10 10.314563 -0.000001 0.000001 -1.784420 -0.156526 0.185294
    11 1.646836 0.445664 -1.699647 -0.392035 3.352851 -0.875707
    12 0.928312 0.000000 0.000000 0.000000 0.000000 0.593404
    13 0.928313 0.000000 -0.000001 0.000000 0.000000 1.204231
    14 2.979373 -0.388274 -0.044205 -0.030851 -0.030823 0.768363
    15 1.435262 -0.000001 -0.000001 0.000000 0.000000 1.204014
    16 1.482593 -0.000001 0.000001 0.000000 0.000000 1.153221
    17 -2.975371 1.071532 -4.156022 -1.307996 1.033410 -4.637540
    18 4.972047 0.000000 0.000000 0.639846 0.500848 -0.965370
    19 11.585358 0.000000 0.000001 0.000000 0.000000 -1.457804
    20 10.127058 0.000000 0.000001 1.899615 0.061561 -0.025059
    21 1.537458 0.109715 1.664489 -3.079588 0.031470 0.928526
    22 0.928313 0.000000 0.000002 0.000000 0.000000 0.061034
    23 0.928311 0.000000 0.000001 0.000000 0.000000 0.671897
    24 2.686395 -0.427337 0.044204 -0.002131 0.043575 -0.072871
    25 1.435260 0.000000 0.000001 0.000000 0.000000 1.186618
    26 1.482593 0.000000 -0.000001 0.000000 0.000000 1.684243
    27 2.046984 0.000001 0.000000 0.034940 -0.038325 -0.465348
    28 -0.000005 0.000007 3.713254 -3.289109 -0.165283 1.249519
    29 18.045723 0.000000 0.000000 0.000000 0.000000 -1.732931
    30 17.597597 0.000000 0.000000 -0.251607 0.197234 -0.164508
    31 0.000005 -0.000003 -3.713254 0.821892 2.312307 5.493555
    32 18.045721 0.000000 0.000000 0.000000 0.000000 -2.673768
    33 17.597597 0.000000 0.000000 0.379969 0.033854 0.755924
  time 32
    0 -0.592803 2.855707 -20.600716 0.000000 0.000000 -1.585458
    1 0.218753 -0.007813 0.000000 -1.570795 -1.570787 0.000000
    2 1.293670 0.684478 -0.000001 -0.061319 0.011996 0.072399
    3 5.309685 -0.003834 0.000000 0.014584 -0.002433 0.012676
    4 4.826790 -0.004591 0.000000 0.044195 -0.002840 0.139884
    5 5.792767 -0.005304 0.000000 0.006386 0.021848 0.033307
    6 6.662322 -0.001452 0.000000 -0.091910 0.032655 0.231870
    7 -3.518356 0.356631 4.277124 1.379418 -1.057945 -4.734025
    8 4.827512 0.000000 -0.000002 -1.013366 -0.508408 -0.781874
    9 11.140032 0.000000 0.000000 0.000000 0.000000 -0.536634
    10 10.314563 -0.000001 0.000001 -1.892844 0.061917 0.258918
    11 1.646836 0.445664 -1.699647 -0.392035 3.352851 -0.875707
    12 0.928312 0.000000 0.000000 0.000000 0.000000 0.593404
    13 0.928313 0.000000 -0.000001 0.000000 0.000000 1.204231
    14 2.979373 -0.388274 -0.044205 -0.030851 -0.030823 0.768363
    15 1.435262 -0.000001 -0.000001 0.000000 0.000000 1.204014
    16 1.482593 -0.000001 0.000001 0.000000 0.000000 1.153221
    17 -2.975371 1.071532 -4.156022 -1.340477 0.934216 -4.655834
    18 4.972047 0.000000 0.000000 0.664609 0.629246 -0.929496
    19 11.585358 0.000000 0.000001 0.000000 0.000000 -1.171761
    20 10.127058 0.000000 0.000001 1.942180 0.076597 0.142964
    21 1.537458 0.109715 1.664489 -3.079588 0.031470 0.928526
    22 0.928313 0.000000 0.000002 0.000000 0.000000 0.061034
    23 0.928311 0.000000 0.000001 0.000000 0.000000 0.671897
    24 2.686395 -0.427337 0.044204 -0.001843 0.043587 -0.066753
    25 1.435260 0.000000 0.000001 0.000000 0.000000 1.186618
    26 1.482593 0.000000 -0.000001 0.000000 0.000000 1.684243
    27 2.046984 0.000001 0.000000 0.071690 0.006963 -0.592237
    28 -0.000005 0.000007 3.713254 -3.289109 -0.165283 1.249519
    29 18.045723 0.000000 0.000000 0.000000 0.000000 -1.732931
    30 17.597597 0.000000 0.000000 -0.251607 0.197234 -0.164508
    31 0.000005 -0.000003 -3.713254 0.821892 2.312307 5.493555
    32 18.045721 0.000000 0.000000 0.000000 0.000000 -2.673768
    33 17.597597 0.000000 0.000000 0.379969 0.033854 0.755924
  time 33
    0 -0.627960 2.863520 -20.600716 0.000000 0.000000 -1.585458
    1 0.218753 -0.007813 0.000000 -1.570795 -1.570787 0.000000
    2 1.293670 0.684478 -0.000001 -0.061032 0.013602 0.072282
    3 5.309685 -0.003834 0.000000 0.009223 0.001067 0.018770
    4 4.826790 -0.004591 0.000000 0.023061 -0.014226 0.133138
    5 5.792767 -0.005304 0.000000 -0.016531 0.001103 0.026393
    6 6.662322 -0.001452 0.000000 -0.091910 0.032655 0.231870
    7 -3.518356 0.356631 4.277124 1.389386 -1.051322 -4.744948
    8 4.827512 0.000000 -0.000002 -1.054260 -0.646381 -0.724165
    9 11.140032 0.000000 0.000000 0.000000 0.000000 -0.504465
    10 10.314563 -0.000001 0.000001 -1.912368 0.092736 0.266176
    11 1.646836 0.445664 -1.699647 -0.392035 3.352851 -0.875707
    12 0.928312 0.000000 0.000000 0.000000 0.000000 0.593404
    13 0.928313 0.000000 -0.000001 0.000000 0.000000 1.204231
    14 2.979373 -0.388274 -0.044205 -0.030851 -0.030823 0.768363
    15 1.435262 -0.000001 -0.000001 0.000000 0.000000 1.204014
    16 1.482593 -0.000001 0.000001 0.000000 0.000000 1.153221
    17 -2.975371 1.071532 -4.156022 -1.369805 0.826873 -4.667806
    18 4.972047 0.000000 0.000000 0.684025 0.754431 -0.881510
    19 11.585358 0.000000 0.000001 0.000000 0.000000 -0.870117
    20 10.127058 0.000000 0.000001 1.999401 0.082933 0.327643
    21 1.537458 0.109715 1.664489 -3.079588 0.031470 0.928526
    22 0.928313 0.000000 0.000002 0.000000 0.000000 0.061034
    23 0.928311 0.000000 0.000001 0.000000 0.000000 0.671897
    24 2.686395 -0.427337 0.044204 -0.001532 0.043599 -0.059181
    25 1.435260 0.000000 0.000001 0.000000 0.000000 1.186618
    26 1.482593 0.000000 -0.000001 0.000000 0.000000 1.684243
    27 2.046984 0.000001 0.000000 0.097971 0.063344 -0.718274
    28 -0.000005 0.000007 3.713254 -3.289109 -0.165283 1.249519
    29 18.045723 0.000000 0.000000 0.000000 0.000000 -1.732931
    30 17.597597 0.000000 0.000000 -0.251607 0.197234 -0.164508
    31 0.000005 -0.000003 -3.713254 0.821892 2.312307 5.493555
    32 18.045721 0.000000 0.000000 0.000000 0.000000 -2.673768
    33 17.597597 0.000000 0.000000 0.379969 0.033854 0.755924
  time 34
    0 -0.647492 2.863520 -20.600716 0.000000 0.000000 -1.585458
    1 0.218753 -0.007813 0.000000 -1.570795 -1.570787 0.000000
    2 1.293670 0.684478 -0.000001 -0.060847 0.014800 0.072215
    3 5.309685 -0.003834 0.000000 0.005309 0.003643 0.023239
    4 4.826790 -0.004591 0.000000 0.007592 -0.022615 0.128265
    5 5.792767 -0.005304 0.000000 -0.033187 -0.014166 0.021514
    6 6.662322 -0.001452 0.000000 -0.091910 0.032655 0.231870
    7 -3.518356 0.356631 4.277124 1.379418 -1.057945 -4.734025
    8 4.827512 0.000000 -0.000002 -1.088698 -0.771648 -0.689591
    9 11.140032 0.000000 0.000000 0.000000 0.000000 -0.536345
    10 10.314563 -0.000001 0.000001 -1.905924 0.061074 0.256422
    11 1.646836 0.445664 -1.699647 -0.392035 3.352851 -0.875707
    12 0.928312 0.000000 0.000000 0.000000 0.000000 0.593404
    13 0.928313 0.000000 -0.000001 0.000000 0.000000 1.204231
    14 2.979373 -0.388274 -0.044205 -0.030851 -0.030823 0.768363
    15 1.435262 -0.000001 -0.000001 0.000000 0.000000 1.204014
    16 1.482593 -0.000001 0.000001 0.000000 0.000000 1.153221
    17 -2.975371 1.071532 -4.156022 -1.395312 0.723683 -4.673936
    18 4.972047 0.000000 0.000000 0.705130 0.890221 -0.822941
    19 11.585358 0.000000 0.000001 0.000000 0.000000 -0.576397
    20 10.127058 0.000000 0.000001 2.050522 0.080190 0.504419
    21 1.537458 0.109715 1.664489 -3.079588 0.031470 0.928526
    22 0.928313 0.000000 0.000002 0.000000 0.000000 0.061034
    23 0.928311 0.000000 0.000001 0.000000 0.000000 0.671897
    24 2.686395 -0.427337 0.044204 -0.001208 0.043611 -0.052337
    25 1.435260 0.000000 0.000001 0.000000 0.000000 1.186618
    26 1.482593 0.000000 -0.000001 0.000000 0.000000 1.684243
    27 2.046984 0.000001 0.000000 0.104088 0.112969 -0.840114
    28 -0.000005 0.000007 3.713254 -3.289109 -0.165283 1.249519
    29 18.045723 0.000000 0.000000 0.000000 0.000000 -1.732931
    30 17.597597 0.000000 0.000000 -0.251607 0.197234 -0.164508
    31 0.000005 -0.000003 -3.713254 0.821892 2.312307 5.493555
    32 18.045721 0.000000 0.000000 0.000000 0.000000 -2.673768
    33 17.597597 0.000000 0.000000 0.379969 0.033854 0.755924
end
