version 1
nodes
  0 "Bip01" -1
  1 "Bip01 Pelvis" 0
  2 "Bip01 Spine" 1
  3 "Bip01 Spine1" 2
  4 "Bip01 Spine2" 3
  5 "Bip01 Spine3" 4
  6 "Bip01 Neck" 5
  7 "Bip01 L Arm" 6
  8 "Bip01 L Arm1" 7
  9 "Bip01 L Arm2" 8
  10 "Bip01 L Hand" 9
  11 "Bip01 L Finger0" 10
  12 "Bip01 L Finger01" 11
  13 "Bip01 L Finger02" 12
  14 "Bip01 L Finger1" 10
  15 "Bip01 L Finger11" 14
  16 "Bip01 L Finger12" 15
  17 "Bip01 R Arm" 6
  18 "Bip01 R Arm1" 17
  19 "Bip01 R Arm2" 18
  20 "Bip01 R Hand" 19
  21 "Bip01 R Finger0" 20
  22 "Bip01 R Finger01" 21
  23 "Bip01 R Finger02" 22
  24 "Bip01 R Finger1" 20
  25 "Bip01 R Finger11" 24
  26 "Bip01 R Finger12" 25
  27 "Bip01 Head" 6
  28 "Bip01 L Leg" 1
  29 "Bip01 L Leg1" 28
  30 "Bip01 L Foot" 29
  31 "Bip01 R Leg" 1
  32 "Bip01 R Leg1" 31
  33 "Bip01 R Foot" 32
end
skeleton
  time 0
    0 0.223628 -0.980348 -20.600716 0.000000 0.000000 -1.585458
    1 -3.601676 0.398450 0.000000 -1.570795 -1.570787 0.000000
    2 1.293670 0.684478 -0.000001 -0.020959 0.048573 0.182924
    3 5.309685 -0.003834 0.000000 -0.007828 -0.030764 0.219588
    4 4.826790 -0.004591 0.000000 -0.005684 0.033557 0.047811
    5 5.792767 -0.005304 0.000000 -0.162609 -0.007023 0.075580
    6 6.662322 -0.001452 0.000000 -0.016647 0.002267 0.459408
    7 -3.131626 1.411351 4.351345 1.822546 -1.010102 -5.464256
    8 4.827512 0.000000 -0.000002 -0.796057 0.234667 -1.267030
    9 11.140032 0.000000 0.000000 0.000000 0.000000 -1.823261
    10 10.314563 -0.000001 0.000001 -3.128159 0.193714 0.382361
    11 1.646836 0.445664 -1.699647 -0.161704 0.581044 -0.283978
    12 0.928312 0.000000 0.000000 0.000000 0.000000 0.000000
    13 0.928313 0.000000 -0.000001 0.000000 0.000000 0.000000
    14 2.979373 -0.388274 -0.044205 -0.015642 -0.040747 0.348855
    15 1.435262 -0.000001 -0.000001 0.000000 0.000000 0.649480
    16 1.482593 -0.000001 0.000001 0.000000 0.000000 0.499946
    17 -2.869899 1.427012 -4.132583 0.838987 1.273547 -2.783809
    18 4.972047 0.000000 0.000000 -0.560400 -1.124783 -0.239916
    19 11.585358 0.000000 0.000001 0.000000 0.000000 -1.839004
    20 10.127058 0.000000 0.000001 1.220394 0.333906 -1.186709
    21 1.537458 0.109715 1.664489 -0.499886 0.546206 0.269294
    22 0.928313 0.000000 0.000002 0.000000 0.000000 -0.715299
    23 0.928311 0.000000 0.000001 0.000000 0.000000 -0.261715
    24 2.686395 -0.427337 0.044204 -0.191308 -0.016216 -0.252816
    25 1.435260 0.000000 0.000001 0.000000 0.000000 0.470891
    26 1.482593 0.000000 -0.000001 0.000000 0.000000 0.907015
    27 2.046984 0.000001 0.000000 0.150532 0.150940 -1.351318
    28 -0.000005 0.000007 3.713254 -3.301572 -0.154641 1.251436
    29 18.045723 0.000000 0.000000 0.000000 0.000000 -1.733893
    30 17.597597 0.000000 0.000000 -0.265443 0.205479 -0.162812
    31 0.000005 -0.000003 -3.713254 0.773684 2.278849 5.458755
    32 18.045721 0.000000 0.000000 0.000000 0.000000 -2.679121
    33 17.597597 0.000000 0.000000 0.365608 0.052158 0.720683
  time 1
    0 0.223628 -0.980348 -20.600716 0.000000 0.000000 -1.585458
    1 -3.570425 0.398450 0.000000 -1.570795 -1.570787 0.000000
    2 1.293670 0.684478 -0.000001 -0.020959 0.048573 0.182924
    3 5.309685 -0.003834 0.000000 -0.007879 -0.029087 0.225258
    4 4.826790 -0.004591 0.000000 -0.004235 0.031759 0.033325
    5 5.792767 -0.005304 0.000000 -0.162429 -0.010067 0.058430
    6 6.662322 -0.001452 0.000000 -0.016647 0.002267 0.459408
    7 -3.131626 1.411351 4.351345 1.822546 -1.010102 -5.464256
    8 4.827512 0.000000 -0.000002 -0.799166 0.267667 -1.270582
    9 11.140032 0.000000 0.000000 0.000000 0.000000 -1.822319
    10 10.314563 -0.000001 0.000001 -3.124936 0.189499 0.373652
    11 1.646836 0.445664 -1.699647 -0.161704 0.581044 -0.283978
    12 0.928312 0.000000 0.000000 0.000000 0.000000 0.000000
    13 0.928313 0.000000 -0.000001 0.000000 0.000000 0.000000
    14 2.979373 -0.388274 -0.044205 -0.015642 -0.040747 0.348855
    15 1.435262 -0.000001 -0.000001 0.000000 0.000000 0.649480
    16 1.482593 -0.000001 0.000001 0.000000 0.000000 0.499946
    17 -2.869899 1.430918 -4.128677 0.835070 1.272469 -2.787928
    18 4.972047 0.000000 0.000000 -0.618180 -1.121649 -0.181281
    19 11.585358 0.000000 0.000001 0.000000 0.000000 -1.839004
    20 10.127058 0.000000 0.000001 1.220605 0.333906 -1.186159
    21 1.537458 0.109715 1.664489 -0.499886 0.546206 0.269294
    22 0.928313 0.000000 0.000002 0.000000 0.000000 -0.715299
    23 0.928311 0.000000 0.000001 0.000000 0.000000 -0.261715
    24 2.686395 -0.427337 0.044204 -0.191308 -0.016216 -0.252816
    25 1.435260 0.000000 0.000001 0.000000 0.000000 0.470891
    26 1.482593 0.000000 -0.000001 0.000000 0.000000 0.907015
    27 2.046984 0.000001 0.000000 0.150489 0.148727 -1.325162
    28 -0.000005 0.000007 3.713254 -3.301476 -0.154833 1.251244
    29 18.045723 0.000000 0.000000 0.000000 0.000000 -1.735743
    30 17.597597 0.000000 0.000000 -0.265342 0.205405 -0.161207
    31 0.000005 -0.000003 -3.713254 0.772821 2.279424 5.461631
    32 18.045721 0.000000 0.000000 0.000000 0.000000 -2.679121
    33 17.597597 0.000000 0.000000 0.363662 0.054524 0.722392
  time 2
    0 0.223628 -0.980348 -20.600716 0.000000 0.000000 -1.585458
    1 -3.539175 0.398450 0.000000 -1.570795 -1.570787 0.000000
    2 1.293670 0.684478 -0.000001 -0.020959 0.048573 0.182924
    3 5.309685 -0.003834 0.000000 -0.007947 -0.027265 0.231298
    4 4.826790 -0.004591 0.000000 -0.002594 0.029914 0.017803
    5 5.792767 -0.005304 0.000000 -0.162195 -0.013315 0.040678
    6 6.662322 -0.001452 0.000000 -0.016647 0.002267 0.459408
    7 -3.131626 1.411351 4.351345 1.822546 -1.010102 -5.464256
    8 4.827512 0.000000 -0.000002 -0.802753 0.301777 -1.275261
    9 11.140032 0.000000 0.000000 0.000000 0.000000 -1.820870
    10 10.314563 -0.000001 0.000001 -3.121904 0.184815 0.364594
    11 1.646836 0.445664 -1.699647 -0.161704 0.581044 -0.283978
    12 0.928312 0.000000 0.000000 0.000000 0.000000 0.000000
    13 0.928313 0.000000 -0.000001 0.000000 0.000000 0.000000
    14 2.979373 -0.388274 -0.044205 -0.015642 -0.040747 0.348855
    15 1.435262 -0.000001 -0.000001 0.000000 0.000000 0.649480
    16 1.482593 -0.000001 0.000001 0.000000 0.000000 0.499946
    17 -2.869899 1.427012 -4.128677 0.838987 1.273547 -2.783809
    18 4.972047 0.000000 0.000000 -0.679618 -1.119480 -0.118719
    19 11.585358 0.000000 0.000001 0.000000 0.000000 -1.839004
    20 10.127058 0.000000 0.000001 1.220394 0.333906 -1.186709
    21 1.537458 0.109715 1.664489 -0.499886 0.546206 0.269294
    22 0.928313 0.000000 0.000002 0.000000 0.000000 -0.715299
    23 0.928311 0.000000 0.000001 0.000000 0.000000 -0.261715
    24 2.686395 -0.427337 0.044204 -0.191308 -0.016216 -0.252816
    25 1.435260 0.000000 0.000001 0.000000 0.000000 0.470891
    26 1.482593 0.000000 -0.000001 0.000000 0.000000 0.907015
    27 2.046984 0.000001 0.000000 0.150446 0.146367 -1.297728
    28 -0.000005 0.000007 3.713254 -3.301285 -0.154929 1.250861
    29 18.045723 0.000000 0.000000 0.000000 0.000000 -1.737742
    30 17.597597 0.000000 0.000000 -0.265215 0.205331 -0.159419
    31 0.000005 -0.000003 -3.713254 0.771959 2.280096 5.464698
    32 18.045721 0.000000 0.000000 0.000000 0.000000 -2.679121
    33 17.597597 0.000000 0.000000 0.361582 0.057148 0.724147
  time 3
    0 0.223628 -0.980348 -20.600716 0.000000 0.000000 -1.585458
    1 -3.515736 0.398450 0.000000 -1.570795 -1.570787 0.000000
    2 1.293670 0.684478 -0.000001 -0.020959 0.048573 0.182924
    3 5.309685 -0.003834 0.000000 -0.008032 -0.025419 0.237375
    4 4.826790 -0.004591 0.000000 -0.001011 0.028128 0.002766
    5 5.792767 -0.005304 0.000000 -0.161944 -0.016455 0.023175
    6 6.662322 -0.001452 0.000000 -0.014370 0.005662 0.501276
    7 -3.088656 1.548074 4.339626 1.816124 -1.010516 -5.500859
    8 4.827512 0.000000 -0.000002 -0.806420 0.333755 -1.281760
    9 11.140032 0.000000 0.000000 0.000000 0.000000 -1.818842
    10 10.314563 -0.000001 0.000001 -3.119439 0.179570 0.356523
    11 1.646836 0.445664 -1.699647 -0.161704 0.581044 -0.283978
    12 0.928312 0.000000 0.000000 0.000000 0.000000 0.000000
    13 0.928313 0.000000 -0.000001 0.000000 0.000000 0.000000
    14 2.979373 -0.388274 -0.044205 -0.015642 -0.040747 0.348855
    15 1.435262 -0.000001 -0.000001 0.000000 0.000000 0.649480
    16 1.482593 -0.000001 0.000001 0.000000 0.000000 0.499946
    17 -2.811303 1.544203 -4.140396 0.868602 1.280514 -2.795878
    18 4.972047 0.000000 0.000000 -0.742557 -1.120444 -0.054227
    19 11.585358 0.000000 0.000001 0.000000 0.000000 -1.839330
    20 10.127058 0.000000 0.000001 1.219132 0.333528 -1.189260
    21 1.537458 0.109715 1.664489 -0.499886 0.546206 0.269294
    22 0.928313 0.000000 0.000002 0.000000 0.000000 -0.715299
    23 0.928311 0.000000 0.000001 0.000000 0.000000 -0.261715
    24 2.686395 -0.427337 0.044204 -0.191308 -0.016216 -0.252816
    25 1.435260 0.000000 0.000001 0.000000 0.000000 0.470891
    26 1.482593 0.000000 -0.000001 0.000000 0.000000 0.907015
    27 2.046984 0.000001 0.000000 0.150015 0.141115 -1.322728
    28 -0.000005 0.000007 3.713254 -3.301285 -0.155024 1.250669
    29 18.045723 0.000000 0.000000 0.000000 0.000000 -1.739666
    30 17.597597 0.000000 0.000000 -0.265139 0.205257 -0.157815
    31 0.000005 -0.000003 -3.713254 0.771096 2.280671 5.467670
    32 18.045721 0.000000 0.000000 0.000000 0.000000 -2.679357
    33 17.597597 0.000000 0.000000 0.359536 0.059653 0.725856
  time 4
    0 0.223628 -0.980348 -20.600716 0.000000 0.000000 -1.585458
    1 -3.484485 0.398450 0.000000 -1.570795 -1.570787 0.000000
    2 1.293670 0.684478 -0.000001 -0.020959 0.048573 0.182924
    3 5.309685 -0.003834 0.000000 -0.008049 -0.023718 0.243009
    4 4.826790 -0.004591 0.000000 0.000267 0.026606 -0.010066
    5 5.792767 -0.005304 0.000000 -0.161620 -0.019259 0.007021
    6 6.662322 -0.001452 0.000000 -0.011949 0.008988 0.543229
    7 -3.030060 1.684797 4.339626 1.809606 -1.011049 -5.537270
    8 4.827512 0.000000 -0.000002 -0.809928 0.361810 -1.288259
    9 11.140032 0.000000 0.000000 0.000000 0.000000 -1.817103
    10 10.314563 -0.000001 0.000001 -3.117449 0.174605 0.349788
    11 1.646836 0.445664 -1.699647 -0.161704 0.581044 -0.283978
    12 0.928312 0.000000 0.000000 0.000000 0.000000 0.000000
    13 0.928313 0.000000 -0.000001 0.000000 0.000000 0.000000
    14 2.979373 -0.388274 -0.044205 -0.015642 -0.040747 0.348855
    15 1.435262 -0.000001 -0.000001 0.000000 0.000000 0.649480
    16 1.482593 -0.000001 0.000001 0.000000 0.000000 0.499946
    17 -2.733176 1.645768 -4.140396 0.904235 1.288454 -2.801624
    18 4.972047 0.000000 0.000000 -0.800806 -1.121649 0.005074
    19 11.585358 0.000000 0.000001 0.000000 0.000000 -1.839657
    20 10.127058 0.000000 0.000001 1.217660 0.333055 -1.192462
    21 1.537458 0.109715 1.664489 -0.499886 0.546206 0.269294
    22 0.928313 0.000000 0.000002 0.000000 0.000000 -0.715299
    23 0.928311 0.000000 0.000001 0.000000 0.000000 -0.261715
    24 2.686395 -0.427337 0.044204 -0.191308 -0.016216 -0.252816
    25 1.435260 0.000000 0.000001 0.000000 0.000000 0.470891
    26 1.482593 0.000000 -0.000001 0.000000 0.000000 0.907015
    27 2.046984 0.000001 0.000000 0.149713 0.136129 -1.350710
    28 -0.000005 0.000007 3.713254 -3.301189 -0.155120 1.250381
    29 18.045723 0.000000 0.000000 0.000000 0.000000 -1.741220
    30 17.597597 0.000000 0.000000 -0.265063 0.205233 -0.156393
    31 0.000005 -0.000003 -3.713254 0.770233 2.280958 5.470067
    32 18.045721 0.000000 0.000000 0.000000 0.000000 -2.679357
    33 17.597597 0.000000 0.000000 0.357825 0.061763 0.727149
  time 5
    0 0.223628 -0.980348 -20.600716 0.000000 0.000000 -1.585458
    1 -3.472766 0.398450 0.000000 -1.570795 -1.570787 0.000000
    2 1.293670 0.684478 -0.000001 -0.020959 0.048573 0.182924
    3 5.309685 -0.003834 0.000000 -0.008083 -0.022255 0.247867
    4 4.826790 -0.004591 0.000000 0.001278 0.025527 -0.019216
    5 5.792767 -0.005304 0.000000 -0.161296 -0.021536 -0.007015
    6 6.662322 -0.001452 0.000000 -0.009396 0.012190 0.585125
    7 -2.975371 1.813707 4.324000 1.803280 -1.011669 -5.573776
    8 4.827512 0.000000 -0.000002 -0.813037 0.383299 -1.294238
    9 11.140032 0.000000 0.000000 0.000000 0.000000 -1.815799
    10 10.314563 -0.000001 0.000001 -3.115933 0.170296 0.345084
    11 1.646836 0.445664 -1.699647 -0.161704 0.581044 -0.283978
    12 0.928312 0.000000 0.000000 0.000000 0.000000 0.000000
    13 0.928313 0.000000 -0.000001 0.000000 0.000000 0.000000
    14 2.979373 -0.388274 -0.044205 -0.015642 -0.040747 0.348855
    15 1.435262 -0.000001 -0.000001 0.000000 0.000000 0.649480
    16 1.482593 -0.000001 0.000001 0.000000 0.000000 0.499946
    17 -2.651142 1.751240 -4.156022 0.943499 1.296578 -2.803444
    18 4.972047 0.000000 0.000000 -0.848830 -1.123658 0.053726
    19 11.585358 0.000000 0.000001 0.000000 0.000000 -1.839984
    20 10.127058 0.000000 0.000001 1.215977 0.332488 -1.195913
    21 1.537458 0.109715 1.664489 -0.499886 0.546206 0.269294
    22 0.928313 0.000000 0.000002 0.000000 0.000000 -0.715299
    23 0.928311 0.000000 0.000001 0.000000 0.000000 -0.261715
    24 2.686395 -0.427337 0.044204 -0.191308 -0.016216 -0.252816
    25 1.435260 0.000000 0.000001 0.000000 0.000000 0.470891
    26 1.482593 0.000000 -0.000001 0.000000 0.000000 0.907015
    27 2.046984 0.000001 0.000000 0.149799 0.131556 -1.383800
    28 -0.000005 0.000007 3.713254 -3.300997 -0.155120 1.250286
    29 18.045723 0.000000 0.000000 0.000000 0.000000 -1.742257
    30 17.597597 0.000000 0.000000 -0.265063 0.205233 -0.155522
    31 0.000005 -0.000003 -3.713254 0.769658 2.281150 5.471409
    32 18.045721 0.000000 0.000000 0.000000 0.000000 -2.679357
    33 17.597597 0.000000 0.000000 0.356684 0.063222 0.727888
  time 6
    0 0.223628 -0.980348 -20.600716 0.000000 0.000000 -1.585458
    1 -3.461047 0.398450 0.000000 -1.570795 -1.570787 0.000000
    2 1.293670 0.684478 -0.000001 -0.020959 0.048573 0.182924
    3 5.309685 -0.003834 0.000000 -0.008100 -0.021189 0.251506
    4 4.826790 -0.004591 0.000000 0.001850 0.024928 -0.024552
    5 5.792767 -0.005304 0.000000 -0.160882 -0.023382 -0.020490
    6 6.662322 -0.001452 0.000000 -0.006675 0.015269 0.627078
    7 -2.901150 1.950430 4.312281 1.796858 -1.012468 -5.610475
    8 4.827512 0.000000 -0.000002 -0.815827 0.401121 -1.299437
    9 11.140032 0.000000 0.000000 0.000000 0.000000 -1.815364
    10 10.314563 -0.000001 0.000001 -3.114606 0.166268 0.341833
    11 1.646836 0.445664 -1.699647 -0.161704 0.581044 -0.283978
    12 0.928312 0.000000 0.000000 0.000000 0.000000 0.000000
    13 0.928313 0.000000 -0.000001 0.000000 0.000000 0.000000
    14 2.979373 -0.388274 -0.044205 -0.015642 -0.040747 0.348855
    15 1.435262 -0.000001 -0.000001 0.000000 0.000000 0.649480
    16 1.482593 -0.000001 0.000001 0.000000 0.000000 0.499946
    17 -2.565202 1.852806 -4.163834 0.983813 1.304149 -2.804306
    18 4.972047 0.000000 0.000000 -0.890196 -1.125104 0.095190
    19 11.585358 0.000000 0.000001 0.000000 0.000000 -1.840311
    20 10.127058 0.000000 0.000001 1.214364 0.332015 -1.199215
    21 1.537458 0.109715 1.664489 -0.499886 0.546206 0.269294
    22 0.928313 0.000000 0.000002 0.000000 0.000000 -0.715299
    23 0.928311 0.000000 0.000001 0.000000 0.000000 -0.261715
    24 2.686395 -0.427337 0.044204 -0.191308 -0.016216 -0.252816
    25 1.435260 0.000000 0.000001 0.000000 0.000000 0.470891
    26 1.482593 0.000000 -0.000001 0.000000 0.000000 0.907015
    27 2.046984 0.000001 0.000000 0.150230 0.127337 -1.420054
    28 -0.000005 0.000007 3.713254 -3.300997 -0.155120 1.250190
    29 18.045723 0.000000 0.000000 0.000000 0.000000 -1.742997
    30 17.597597 0.000000 0.000000 -0.265139 0.205233 -0.154880
    31 0.000005 -0.000003 -3.713254 0.769083 2.281150 5.472368
    32 18.045721 0.000000 0.000000 0.000000 0.000000 -2.679357
    33 17.597597 0.000000 0.000000 0.355845 0.064228 0.728350
  time 7
    0 0.223628 -0.980348 -20.600716 0.000000 0.000000 -1.585458
    1 -3.453234 0.410169 0.000000 -1.570795 -1.570787 0.000000
    2 1.293670 0.684478 -0.000001 -0.020959 0.048573 0.182924
    3 5.309685 -0.003834 0.000000 -0.008100 -0.020434 0.253979
    4 4.826790 -0.004591 0.000000 0.002136 0.024592 -0.027242
    5 5.792767 -0.005304 0.000000 -0.160541 -0.024688 -0.032989
    6 6.662322 -0.001452 0.000000 -0.003895 0.018265 0.669060
    7 -2.838648 2.075434 4.300562 1.790436 -1.013384 -5.646886
    8 4.827512 0.000000 -0.000002 -0.818219 0.416129 -1.303856
    9 11.140032 0.000000 0.000000 0.000000 0.000000 -1.815291
    10 10.314563 -0.000001 0.000001 -3.113374 0.162802 0.339336
    11 1.646836 0.445664 -1.699647 -0.161704 0.581044 -0.283978
    12 0.928312 0.000000 0.000000 0.000000 0.000000 0.000000
    13 0.928313 0.000000 -0.000001 0.000000 0.000000 0.000000
    14 2.979373 -0.388274 -0.044205 -0.015642 -0.040747 0.348855
    15 1.435262 -0.000001 -0.000001 0.000000 0.000000 0.649480
    16 1.482593 -0.000001 0.000001 0.000000 0.000000 0.499946
    17 -2.471449 1.946559 -4.171647 1.021548 1.310643 -2.808137
    18 4.972047 0.000000 0.000000 -0.924995 -1.125747 0.129533
    19 11.585358 0.000000 0.000001 0.000000 0.000000 -1.840637
    20 10.127058 0.000000 0.000001 1.213031 0.331636 -1.202016
    21 1.537458 0.109715 1.664489 -0.499886 0.546206 0.269294
    22 0.928313 0.000000 0.000002 0.000000 0.000000 -0.715299
    23 0.928311 0.000000 0.000001 0.000000 0.000000 -0.261715
    24 2.686395 -0.427337 0.044204 -0.191308 -0.016216 -0.252816
    25 1.435260 0.000000 0.000001 0.000000 0.000000 0.470891
    26 1.482593 0.000000 -0.000001 0.000000 0.000000 0.907015
    27 2.046984 0.000001 0.000000 0.151049 0.123413 -1.458985
    28 -0.000005 0.000007 3.713254 -3.300997 -0.155120 1.250094
    29 18.045723 0.000000 0.000000 0.000000 0.000000 -1.743515
    30 17.597597 0.000000 0.000000 -0.265139 0.205233 -0.154468
    31 0.000005 -0.000003 -3.713254 0.768700 2.281150 5.473039
    32 18.045721 0.000000 0.000000 0.000000 0.000000 -2.679357
    33 17.597597 0.000000 0.000000 0.355174 0.064958 0.728673
  time 8
    0 0.223628 -0.980348 -20.600716 0.000000 0.000000 -1.585458
    1 -3.453234 0.410169 0.000000 -1.570795 -1.570787 0.000000
    2 1.293670 0.684478 -0.000001 -0.020959 0.048573 0.182924
    3 5.309685 -0.003834 0.000000 -0.008100 -0.019954 0.255498
    4 4.826790 -0.004591 0.000000 0.002136 0.024592 -0.027242
    5 5.792767 -0.005304 0.000000 -0.160289 -0.025204 -0.040173
    6 6.662322 -0.001452 0.000000 -0.003895 0.018265 0.669060
    7 -2.838648 2.075434 4.300562 1.790436 -1.013384 -5.646886
    8 4.827512 0.000000 -0.000002 -0.819494 0.422866 -1.306369
    9 11.140032 0.000000 0.000000 0.000000 0.000000 -1.815654
    10 10.314563 -0.000001 0.000001 -3.112805 0.160648 0.338581
    11 1.646836 0.445664 -1.699647 -0.161704 0.581044 -0.283978
    12 0.928312 0.000000 0.000000 0.000000 0.000000 0.000000
    13 0.928313 0.000000 -0.000001 0.000000 0.000000 0.000000
    14 2.979373 -0.388274 -0.044205 -0.015642 -0.040747 0.348855
    15 1.435262 -0.000001 -0.000001 0.000000 0.000000 0.649480
    16 1.482593 -0.000001 0.000001 0.000000 0.000000 0.499946
    17 -2.471449 1.946559 -4.171647 1.041037 1.313719 -2.788024
    18 4.972047 0.000000 0.000000 -0.942629 -1.127113 0.146837
    19 11.585358 0.000000 0.000001 0.000000 0.000000 -1.840882
    20 10.127058 0.000000 0.000001 1.212050 0.331164 -1.204017
    21 1.537458 0.109715 1.664489 -0.499886 0.546206 0.269294
    22 0.928313 0.000000 0.000002 0.000000 0.000000 -0.715299
    23 0.928311 0.000000 0.000001 0.000000 0.000000 -0.261715
    24 2.686395 -0.427337 0.044204 -0.191308 -0.016216 -0.252816
    25 1.435260 0.000000 0.000001 0.000000 0.000000 0.470891
    26 1.482593 0.000000 -0.000001 0.000000 0.000000 0.907015
    27 2.046984 0.000001 0.000000 0.153806 0.122823 -1.443413
    28 -0.000005 0.000007 3.713254 -3.301189 -0.155024 1.250094
    29 18.045723 0.000000 0.000000 0.000000 0.000000 -1.743515
    30 17.597597 0.000000 0.000000 -0.265215 0.205257 -0.154468
    31 0.000005 -0.000003 -3.713254 0.768508 2.280958 5.472847
    32 18.045721 0.000000 0.000000 0.000000 0.000000 -2.679357
    33 17.597597 0.000000 0.000000 0.355073 0.065037 0.728489
  time 9
    0 0.223628 -0.980348 -20.600716 0.000000 0.000000 -1.585458
    1 -3.464953 0.410169 0.000000 -1.570795 -1.570787 0.000000
    2 1.293670 0.684478 -0.000001 -0.020959 0.048573 0.182924
    3 5.309685 -0.003834 0.000000 -0.008100 -0.019882 0.255763
    4 4.826790 -0.004591 0.000000 0.001850 0.024928 -0.024552
    5 5.792767 -0.005304 0.000000 -0.160325 -0.024485 -0.038055
    6 6.662322 -0.001452 0.000000 -0.003895 0.018265 0.669060
    7 -2.838648 2.075434 4.300562 1.790436 -1.013384 -5.646886
    8 4.827512 0.000000 -0.000002 -0.818617 0.416299 -1.306196
    9 11.140032 0.000000 0.000000 0.000000 0.000000 -1.816306
    10 10.314563 -0.000001 0.000001 -3.113374 0.160554 0.340788
    11 1.646836 0.445664 -1.699647 -0.161704 0.581044 -0.283978
    12 0.928312 0.000000 0.000000 0.000000 0.000000 0.000000
    13 0.928313 0.000000 -0.000001 0.000000 0.000000 0.000000
    14 2.979373 -0.388274 -0.044205 -0.015642 -0.040747 0.348855
    15 1.435262 -0.000001 -0.000001 0.000000 0.000000 0.649480
    16 1.482593 -0.000001 0.000001 0.000000 0.000000 0.499946
    17 -2.471449 1.946559 -4.171647 1.053265 1.315586 -2.775093
    18 4.972047 0.000000 0.000000 -0.935219 -1.131371 0.139516
    19 11.585358 0.000000 0.000001 0.000000 0.000000 -1.840964
    20 10.127058 0.000000 0.000001 1.211489 0.330974 -1.205267
    21 1.537458 0.109715 1.664489 -0.499886 0.546206 0.269294
    22 0.928313 0.000000 0.000002 0.000000 0.000000 -0.715299
    23 0.928311 0.000000 0.000001 0.000000 0.000000 -0.261715
    24 2.686395 -0.427337 0.044204 -0.191308 -0.016216 -0.252816
    25 1.435260 0.000000 0.000001 0.000000 0.000000 0.470891
    26 1.482593 0.000000 -0.000001 0.000000 0.000000 0.907015
    27 2.046984 0.000001 0.000000 0.156477 0.123059 -1.438729
    28 -0.000005 0.000007 3.713254 -3.301285 -0.154929 1.250190
    29 18.045723 0.000000 0.000000 0.000000 0.000000 -1.742775
    30 17.597597 0.000000 0.000000 -0.265367 0.205306 -0.155064
    31 0.000005 -0.000003 -3.713254 0.768508 2.280575 5.471601
    32 18.045721 0.000000 0.000000 0.000000 0.000000 -2.679357
    33 17.597597 0.000000 0.000000 0.355744 0.064149 0.727565
  time 10
    0 0.223628 -0.980348 -20.600716 0.000000 0.000000 -1.585458
    1 -3.484485 0.410169 0.000000 -1.570795 -1.570787 0.000000
    2 1.293670 0.684478 -0.000001 -0.020959 0.048573 0.182924
    3 5.309685 -0.003834 0.000000 -0.008100 -0.020278 0.254509
    4 4.826790 -0.004591 0.000000 0.001278 0.025527 -0.019216
    5 5.792767 -0.005304 0.000000 -0.160630 -0.022399 -0.025307
    6 6.662322 -0.001452 0.000000 -0.003895 0.018265 0.669060
    7 -2.838648 2.075434 4.300562 1.790436 -1.013384 -5.646886
    8 4.827512 0.000000 -0.000002 -0.815747 0.395237 -1.303336
    9 11.140032 0.000000 0.000000 0.000000 0.000000 -1.817030
    10 10.314563 -0.000001 0.000001 -3.115459 0.162521 0.346246
    11 1.646836 0.445664 -1.699647 -0.161704 0.581044 -0.283978
    12 0.928312 0.000000 0.000000 0.000000 0.000000 0.000000
    13 0.928313 0.000000 -0.000001 0.000000 0.000000 0.000000
    14 2.979373 -0.388274 -0.044205 -0.015642 -0.040747 0.348855
    15 1.435262 -0.000001 -0.000001 0.000000 0.000000 0.649480
    16 1.482593 -0.000001 0.000001 0.000000 0.000000 0.499946
    17 -2.471449 1.946559 -4.171647 1.061576 1.316742 -2.766760
    18 4.972047 0.000000 0.000000 -0.900982 -1.139406 0.105972
    19 11.585358 0.000000 0.000001 0.000000 0.000000 -1.841046
    20 10.127058 0.000000 0.000001 1.211068 0.330974 -1.206067
    21 1.537458 0.109715 1.664489 -0.499886 0.546206 0.269294
    22 0.928313 0.000000 0.000002 0.000000 0.000000 -0.715299
    23 0.928311 0.000000 0.000001 0.000000 0.000000 -0.261715
    24 2.686395 -0.427337 0.044204 -0.191308 -0.016216 -0.252816
    25 1.435260 0.000000 0.000001 0.000000 0.000000 0.470891
    26 1.482593 0.000000 -0.000001 0.000000 0.000000 0.907015
    27 2.046984 0.000001 0.000000 0.158976 0.124210 -1.445846
    28 -0.000005 0.000007 3.713254 -3.301380 -0.154737 1.250477
    29 18.045723 0.000000 0.000000 0.000000 0.000000 -1.741294
    30 17.597597 0.000000 0.000000 -0.265570 0.205405 -0.156393
    31 0.000005 -0.000003 -3.713254 0.768987 2.279808 5.469108
    32 18.045721 0.000000 0.000000 0.000000 0.000000 -2.679357
    33 17.597597 0.000000 0.000000 0.357120 0.062295 0.726041
  time 11
    0 0.223628 -0.980348 -20.600716 0.000000 0.000000 -1.585458
    1 -3.519643 0.417982 0.000000 -1.570795 -1.570787 0.000000
    2 1.293670 0.684478 -0.000001 -0.020959 0.048573 0.182924
    3 5.309685 -0.003834 0.000000 -0.008100 -0.021189 0.251506
    4 4.826790 -0.004591 0.000000 0.000191 0.026738 -0.009030
    5 5.792767 -0.005304 0.000000 -0.161134 -0.019379 -0.005790
    6 6.662322 -0.001452 0.000000 -0.003895 0.018265 0.669060
    7 -2.838648 2.075434 4.300562 1.790436 -1.013384 -5.646886
    8 4.827512 0.000000 -0.000002 -0.811124 0.362065 -1.298570
    9 11.140032 0.000000 0.000000 0.000000 0.000000 -1.818045
    10 10.314563 -0.000001 0.000001 -3.118776 0.166456 0.354607
    11 1.646836 0.445664 -1.699647 -0.161704 0.581044 -0.283978
    12 0.928312 0.000000 0.000000 0.000000 0.000000 0.000000
    13 0.928313 0.000000 -0.000001 0.000000 0.000000 0.000000
    14 2.979373 -0.388274 -0.044205 -0.015642 -0.040747 0.348855
    15 1.435262 -0.000001 -0.000001 0.000000 0.000000 0.649480
    16 1.482593 -0.000001 0.000001 0.000000 0.000000 0.499946
    17 -2.471449 1.946559 -4.171647 1.064824 1.317242 -2.763312
    18 4.972047 0.000000 0.000000 -0.841889 -1.149370 0.047536
    19 11.585358 0.000000 0.000001 0.000000 0.000000 -1.841127
    20 10.127058 0.000000 0.000001 1.210928 0.330974 -1.206418
    21 1.537458 0.109715 1.664489 -0.499886 0.546206 0.269294
    22 0.928313 0.000000 0.000002 0.000000 0.000000 -0.715299
    23 0.928311 0.000000 0.000001 0.000000 0.000000 -0.261715
    24 2.686395 -0.427337 0.044204 -0.191308 -0.016216 -0.252816
    25 1.435260 0.000000 0.000001 0.000000 0.000000 0.470891
    26 1.482593 0.000000 -0.000001 0.000000 0.000000 0.907015
    27 2.046984 0.000001 0.000000 0.161432 0.126393 -1.462695
    28 -0.000005 0.000007 3.713254 -3.301668 -0.154449 1.250765
    29 18.045723 0.000000 0.000000 0.000000 0.000000 -1.739074
    30 17.597597 0.000000 0.000000 -0.265798 0.205528 -0.158227
    31 0.000005 -0.000003 -3.713254 0.769658 2.278849 5.465561
    32 18.045721 0.000000 0.000000 0.000000 0.000000 -2.679357
    33 17.597597 0.000000 0.000000 0.359267 0.059455 0.723777
  time 12
    0 0.223628 -0.980348 -20.600716 0.000000 0.000000 -1.585458
    1 -3.539175 0.410169 0.000000 -1.570795 -1.570787 0.000000
    2 1.293670 0.684478 -0.000001 -0.020959 0.048573 0.182924
    3 5.309685 -0.003834 0.000000 -0.008049 -0.023945 0.242250
    4 4.826790 -0.004591 0.000000 -0.001354 0.028475 0.005985
    5 5.792767 -0.005304 0.000000 -0.161692 -0.015892 0.017236
    6 6.662322 -0.001452 0.000000 -0.003895 0.018265 0.669060
    7 -2.838648 2.075434 4.300562 1.790436 -1.013384 -5.646886
    8 4.827512 0.000000 -0.000002 -0.806181 0.325568 -1.293025
    9 11.140032 0.000000 0.000000 0.000000 0.000000 -1.818914
    10 10.314563 -0.000001 0.000001 -3.122662 0.171795 0.364245
    11 1.646836 0.445664 -1.699647 -0.161704 0.581044 -0.283978
    12 0.928312 0.000000 0.000000 0.000000 0.000000 0.000000
    13 0.928313 0.000000 -0.000001 0.000000 0.000000 0.000000
    14 2.979373 -0.388274 -0.044205 -0.015642 -0.040747 0.348855
    15 1.435262 -0.000001 -0.000001 0.000000 0.000000 0.649480
    16 1.482593 -0.000001 0.000001 0.000000 0.000000 0.499946
    17 -2.471449 1.946559 -4.171647 1.062913 1.316979 -2.765324
    18 4.972047 0.000000 0.000000 -0.774917 -1.157967 -0.019485
    19 11.585358 0.000000 0.000001 0.000000 0.000000 -1.841046
    20 10.127058 0.000000 0.000001 1.211068 0.330974 -1.206218
    21 1.537458 0.109715 1.664489 -0.499886 0.546206 0.269294
    22 0.928313 0.000000 0.000002 0.000000 0.000000 -0.715299
    23 0.928311 0.000000 0.000001 0.000000 0.000000 -0.261715
    24 2.686395 -0.427337 0.044204 -0.191308 -0.016216 -0.252816
    25 1.435260 0.000000 0.000001 0.000000 0.000000 0.470891
    26 1.482593 0.000000 -0.000001 0.000000 0.000000 0.907015
    27 2.046984 0.000001 0.000000 0.163500 0.129845 -1.481735
    28 -0.000005 0.000007 3.713254 -3.301572 -0.154545 1.250957
    29 18.045723 0.000000 0.000000 0.000000 0.000000 -1.737816
    30 17.597597 0.000000 0.000000 -0.265671 0.205454 -0.159327
    31 0.000005 -0.000003 -3.713254 0.771000 2.278849 5.464219
    32 18.045721 0.000000 0.000000 0.000000 0.000000 -2.679357
    33 17.597597 0.000000 0.000000 0.360744 0.057522 0.723223
  time 13
    0 0.223628 -0.980348 -20.600716 0.000000 0.000000 -1.585458
    1 -3.539175 0.398450 0.000000 -1.570795 -1.570787 0.000000
    2 1.293670 0.684478 -0.000001 -0.020959 0.048573 0.182924
    3 5.309685 -0.003834 0.000000 -0.007913 -0.028092 0.228561
    4 4.826790 -0.004591 0.000000 -0.003090 0.030489 0.022610
    5 5.792767 -0.005304 0.000000 -0.162087 -0.012320 0.040574
    6 6.662322 -0.001452 0.000000 -0.006675 0.015269 0.627078
    7 -2.901150 1.950430 4.312281 1.796858 -1.012468 -5.610475
    8 4.827512 0.000000 -0.000002 -0.801877 0.291885 -1.287566
    9 11.140032 0.000000 0.000000 0.000000 0.000000 -1.819639
    10 10.314563 -0.000001 0.000001 -3.126358 0.177509 0.373594
    11 1.646836 0.445664 -1.699647 -0.161704 0.581044 -0.283978
    12 0.928312 0.000000 0.000000 0.000000 0.000000 0.000000
    13 0.928313 0.000000 -0.000001 0.000000 0.000000 0.000000
    14 2.979373 -0.388274 -0.044205 -0.015642 -0.040747 0.348855
    15 1.435262 -0.000001 -0.000001 0.000000 0.000000 0.649480
    16 1.482593 -0.000001 0.000001 0.000000 0.000000 0.499946
    17 -2.565202 1.852806 -4.163834 1.043138 1.314061 -2.742911
    18 4.972047 0.000000 0.000000 -0.711040 -1.163591 -0.084044
    19 11.585358 0.000000 0.000001 0.000000 0.000000 -1.840964
    20 10.127058 0.000000 0.000001 1.211419 0.330974 -1.205417
    21 1.537458 0.109715 1.664489 -0.499886 0.546206 0.269294
    22 0.928313 0.000000 0.000002 0.000000 0.000000 -0.715299
    23 0.928311 0.000000 0.000001 0.000000 0.000000 -0.261715
    24 2.686395 -0.427337 0.044204 -0.191308 -0.016216 -0.252816
    25 1.435260 0.000000 0.000001 0.000000 0.000000 0.470891
    26 1.482593 0.000000 -0.000001 0.000000 0.000000 0.907015
    27 2.046984 0.000001 0.000000 0.160398 0.136129 -1.466223
    28 -0.000005 0.000007 3.713254 -3.301189 -0.154833 1.250861
    29 18.045723 0.000000 0.000000 0.000000 0.000000 -1.737742
    30 17.597597 0.000000 0.000000 -0.265215 0.205183 -0.159419
    31 0.000005 -0.000003 -3.713254 0.772725 2.279904 5.465370
    32 18.045721 0.000000 0.000000 0.000000 0.000000 -2.679121
    33 17.597597 0.000000 0.000000 0.361247 0.056812 0.724332
  time 14
    0 0.223628 -0.980348 -20.600716 0.000000 0.000000 -1.585458
    1 -3.562613 0.390637 0.000000 -1.570795 -1.570787 0.000000
    2 1.293670 0.684478 -0.000001 -0.020959 0.048573 0.182924
    3 5.309685 -0.003834 0.000000 -0.007828 -0.030764 0.219588
    4 4.826790 -0.004591 0.000000 -0.004635 0.032286 0.037647
    5 5.792767 -0.005304 0.000000 -0.162411 -0.009216 0.061150
    6 6.662322 -0.001452 0.000000 -0.009396 0.012190 0.585125
    7 -2.975371 1.813707 4.324000 1.803280 -1.011669 -5.573776
    8 4.827512 0.000000 -0.000002 -0.798050 0.258373 -1.282280
    9 11.140032 0.000000 0.000000 0.000000 0.000000 -1.820146
    10 10.314563 -0.000001 0.000001 -3.129675 0.183223 0.381780
    11 1.646836 0.445664 -1.699647 -0.161704 0.581044 -0.283978
    12 0.928312 0.000000 0.000000 0.000000 0.000000 0.000000
    13 0.928313 0.000000 -0.000001 0.000000 0.000000 0.000000
    14 2.979373 -0.388274 -0.044205 -0.015642 -0.040747 0.348855
    15 1.435262 -0.000001 -0.000001 0.000000 0.000000 0.649480
    16 1.482593 -0.000001 0.000001 0.000000 0.000000 0.499946
    17 -2.651142 1.751240 -4.156022 1.017631 1.310196 -2.726724
    18 4.972047 0.000000 0.000000 -0.643318 -1.165439 -0.152329
    19 11.585358 0.000000 0.000001 0.000000 0.000000 -1.840882
    20 10.127058 0.000000 0.000001 1.212050 0.331164 -1.204017
    21 1.537458 0.109715 1.664489 -0.499886 0.546206 0.269294
    22 0.928313 0.000000 0.000002 0.000000 0.000000 -0.715299
    23 0.928311 0.000000 0.000001 0.000000 0.000000 -0.261715
    24 2.686395 -0.427337 0.044204 -0.191308 -0.016216 -0.252816
    25 1.435260 0.000000 0.000001 0.000000 0.000000 0.470891
    26 1.482593 0.000000 -0.000001 0.000000 0.000000 0.907015
    27 2.046984 0.000001 0.000000 0.157511 0.141735 -1.451199
    28 -0.000005 0.000007 3.713254 -3.300997 -0.154929 1.251053
    29 18.045723 0.000000 0.000000 0.000000 0.000000 -1.736631
    30 17.597597 0.000000 0.000000 -0.265088 0.205085 -0.160428
    31 0.000005 -0.000003 -3.713254 0.773971 2.280000 5.464219
    32 18.045721 0.000000 0.000000 0.000000 0.000000 -2.679121
    33 17.597597 0.000000 0.000000 0.362555 0.055096 0.723824
  time 15
    0 0.223628 -0.980348 -20.600716 0.000000 0.000000 -1.585458
    1 -3.593864 0.398450 0.000000 -1.570795 -1.570787 0.000000
    2 1.293670 0.684478 -0.000001 -0.020959 0.048573 0.182924
    3 5.309685 -0.003834 0.000000 -0.007777 -0.031507 0.217150
    4 4.826790 -0.004591 0.000000 -0.005684 0.033557 0.047811
    5 5.792767 -0.005304 0.000000 -0.162609 -0.007023 0.075580
    6 6.662322 -0.001452 0.000000 -0.011949 0.008988 0.543229
    7 -3.030060 1.684797 4.339626 1.809606 -1.011049 -5.537270
    8 4.827512 0.000000 -0.000002 -0.795419 0.231853 -1.276908
    9 11.140032 0.000000 0.000000 0.000000 0.000000 -1.820581
    10 10.314563 -0.000001 0.000001 -3.131476 0.188281 0.386832
    11 1.646836 0.445664 -1.699647 -0.161704 0.581044 -0.283978
    12 0.928312 0.000000 0.000000 0.000000 0.000000 0.000000
    13 0.928313 0.000000 -0.000001 0.000000 0.000000 0.000000
    14 2.979373 -0.388274 -0.044205 -0.015642 -0.040747 0.348855
    15 1.435262 -0.000001 -0.000001 0.000000 0.000000 0.649480
    16 1.482593 -0.000001 0.000001 0.000000 0.000000 0.499946
    17 -2.733176 1.645768 -4.140396 0.976457 1.303387 -2.726245
    18 4.972047 0.000000 0.000000 -0.583474 -1.159815 -0.212961
    19 11.585358 0.000000 0.000001 0.000000 0.000000 -1.840474
    20 10.127058 0.000000 0.000001 1.213592 0.331826 -1.200865
    21 1.537458 0.109715 1.664489 -0.499886 0.546206 0.269294
    22 0.928313 0.000000 0.000002 0.000000 0.000000 -0.715299
    23 0.928311 0.000000 0.000001 0.000000 0.000000 -0.261715
    24 2.686395 -0.427337 0.044204 -0.191308 -0.016216 -0.252816
    25 1.435260 0.000000 0.000001 0.000000 0.000000 0.470891
    26 1.482593 0.000000 -0.000001 0.000000 0.000000 0.907015
    27 2.046984 0.000001 0.000000 0.155012 0.146013 -1.432038
    28 -0.000005 0.000007 3.713254 -3.301285 -0.154737 1.251340
    29 18.045723 0.000000 0.000000 0.000000 0.000000 -1.734707
    30 17.597597 0.000000 0.000000 -0.265367 0.205183 -0.162124
    31 0.000005 -0.000003 -3.713254 0.774546 2.279137 5.461055
    32 18.045721 0.000000 0.000000 0.000000 0.000000 -2.679121
    33 17.597597 0.000000 0.000000 0.364468 0.052651 0.721791
  time 16
    0 0.223628 -0.980348 -20.600716 0.000000 0.000000 -1.585458
    1 -3.601676 0.398450 0.000000 -1.570795 -1.570787 0.000000
    2 1.293670 0.684478 -0.000001 -0.020959 0.048573 0.182924
    3 5.309685 -0.003834 0.000000 -0.007777 -0.031711 0.216443
    4 4.826790 -0.004591 0.000000 -0.006142 0.034060 0.052110
    5 5.792767 -0.005304 0.000000 -0.162681 -0.005980 0.082162
    6 6.662322 -0.001452 0.000000 -0.014370 0.005662 0.501276
    7 -3.088656 1.548074 4.339626 1.816124 -1.010516 -5.500859
    8 4.827512 0.000000 -0.000002 -0.794463 0.221023 -1.272229
    9 11.140032 0.000000 0.000000 0.000000 0.000000 -1.821522
    10 10.314563 -0.000001 0.000001 -3.131476 0.191841 0.387935
    11 1.646836 0.445664 -1.699647 -0.161704 0.581044 -0.283978
    12 0.928312 0.000000 0.000000 0.000000 0.000000 0.000000
    13 0.928313 0.000000 -0.000001 0.000000 0.000000 0.000000
    14 2.979373 -0.388274 -0.044205 -0.015642 -0.040747 0.348855
    15 1.435262 -0.000001 -0.000001 0.000000 0.000000 0.649480
    16 1.482593 -0.000001 0.000001 0.000000 0.000000 0.499946
    17 -2.811303 1.544203 -4.140396 0.922004 1.293028 -2.740133
    18 4.972047 0.000000 0.000000 -0.552521 -1.148084 -0.245241
    19 11.585358 0.000000 0.000001 0.000000 0.000000 -1.839984
    20 10.127058 0.000000 0.000001 1.215906 0.332488 -1.195913
    21 1.537458 0.109715 1.664489 -0.499886 0.546206 0.269294
    22 0.928313 0.000000 0.000002 0.000000 0.000000 -0.715299
    23 0.928311 0.000000 0.000001 0.000000 0.000000 -0.261715
    24 2.686395 -0.427337 0.044204 -0.191308 -0.016216 -0.252816
    25 1.435260 0.000000 0.000001 0.000000 0.000000 0.470891
    26 1.482593 0.000000 -0.000001 0.000000 0.000000 0.907015
    27 2.046984 0.000001 0.000000 0.152686 0.149199 -1.400711
    28 -0.000005 0.000007 3.713254 -3.301380 -0.154545 1.251436
    29 18.045723 0.000000 0.000000 0.000000 0.000000 -1.733745
    30 17.597597 0.000000 0.000000 -0.265494 0.205257 -0.162904
    31 0.000005 -0.000003 -3.713254 0.774738 2.278562 5.459426
    32 18.045721 0.000000 0.000000 0.000000 0.000000 -2.679121
    33 17.597597 0.000000 0.000000 0.365374 0.051448 0.720683
  time 17
    0 0.223628 -0.980348 -20.600716 0.000000 0.000000 -1.585458
    1 -3.613396 0.398450 0.000000 -1.570795 -1.570787 0.000000
    2 1.293670 0.684478 -0.000001 -0.020959 0.048573 0.182924
    3 5.309685 -0.003834 0.000000 -0.007777 -0.031555 0.216938
    4 4.826790 -0.004591 0.000000 -0.006161 0.034132 0.052661
    5 5.792767 -0.005304 0.000000 -0.162681 -0.005848 0.083034
    6 6.662322 -0.001452 0.000000 -0.016647 0.002267 0.459408
    7 -3.131626 1.411351 4.351345 1.822546 -1.010102 -5.464256
    8 4.827512 0.000000 -0.000002 -0.794622 0.220852 -1.268589
    9 11.140032 0.000000 0.000000 0.000000 0.000000 -1.822537
    10 10.314563 -0.000001 0.000001 -3.130244 0.194089 0.386658
    11 1.646836 0.445664 -1.699647 -0.161704 0.581044 -0.283978
    12 0.928312 0.000000 0.000000 0.000000 0.000000 0.000000
    13 0.928313 0.000000 -0.000001 0.000000 0.000000 0.000000
    14 2.979373 -0.388274 -0.044205 -0.015642 -0.040747 0.348855
    15 1.435262 -0.000001 -0.000001 0.000000 0.000000 0.649480
    16 1.482593 -0.000001 0.000001 0.000000 0.000000 0.499946
    17 -2.869899 1.430918 -4.128677 0.869079 1.281461 -2.752393
    18 4.972047 0.000000 0.000000 -0.542578 -1.135148 -0.256821
    19 11.585358 0.000000 0.000001 0.000000 0.000000 -1.839412
    20 10.127058 0.000000 0.000001 1.218431 0.333339 -1.190711
    21 1.537458 0.109715 1.664489 -0.499886 0.546206 0.269294
    22 0.928313 0.000000 0.000002 0.000000 0.000000 -0.715299
    23 0.928311 0.000000 0.000001 0.000000 0.000000 -0.261715
    24 2.686395 -0.427337 0.044204 -0.191308 -0.016216 -0.252816
    25 1.435260 0.000000 0.000001 0.000000 0.000000 0.470891
    26 1.482593 0.000000 -0.000001 0.000000 0.000000 0.907015
    27 2.046984 0.000001 0.000000 0.150273 0.151825 -1.360990
    28 -0.000005 0.000007 3.713254 -3.301476 -0.154449 1.251532
    29 18.045723 0.000000 0.000000 0.000000 0.000000 -1.733375
    30 17.597597 0.000000 0.000000 -0.265570 0.205306 -0.163224
    31 0.000005 -0.000003 -3.713254 0.774738 2.278370 5.458850
    32 18.045721 0.000000 0.000000 0.000000 0.000000 -2.679121
    33 17.597597 0.000000 0.000000 0.365608 0.051073 0.720313
  time 18
    0 0.223628 -0.980348 -20.600716 0.000000 0.000000 -1.585458
    1 -3.609489 0.398450 0.000000 -1.570795 -1.570787 0.000000
    2 1.293670 0.684478 -0.000001 -0.020959 0.048573 0.182924
    3 5.309685 -0.003834 0.000000 -0.007777 -0.031256 0.218015
    4 4.826790 -0.004591 0.000000 -0.006047 0.033928 0.051030
    5 5.792767 -0.005304 0.000000 -0.162663 -0.006256 0.080501
    6 6.662322 -0.001452 0.000000 -0.016647 0.002267 0.459408
    7 -3.131626 1.411351 4.351345 1.822546 -1.010102 -5.464256
    8 4.827512 0.000000 -0.000002 -0.795260 0.226310 -1.266163
    9 11.140032 0.000000 0.000000 0.000000 0.000000 -1.823334
    10 10.314563 -0.000001 0.000001 -3.128917 0.195026 0.384393
    11 1.646836 0.445664 -1.699647 -0.161704 0.581044 -0.283978
    12 0.928312 0.000000 0.000000 0.000000 0.000000 0.000000
    13 0.928313 0.000000 -0.000001 0.000000 0.000000 0.000000
    14 2.979373 -0.388274 -0.044205 -0.015642 -0.040747 0.348855
    15 1.435262 -0.000001 -0.000001 0.000000 0.000000 0.649480
    16 1.482593 -0.000001 0.000001 0.000000 0.000000 0.499946
    17 -2.869899 1.427012 -4.128677 0.838987 1.273547 -2.783809
    18 4.972047 0.000000 0.000000 -0.545486 -1.125104 -0.255024
    19 11.585358 0.000000 0.000001 0.000000 0.000000 -1.839004
    20 10.127058 0.000000 0.000001 1.220394 0.333906 -1.186709
    21 1.537458 0.109715 1.664489 -0.499886 0.546206 0.269294
    22 0.928313 0.000000 0.000002 0.000000 0.000000 -0.715299
    23 0.928311 0.000000 0.000001 0.000000 0.000000 -0.261715
    24 2.686395 -0.427337 0.044204 -0.191308 -0.016216 -0.252816
    25 1.435260 0.000000 0.000001 0.000000 0.000000 0.470891
    26 1.482593 0.000000 -0.000001 0.000000 0.000000 0.907015
    27 2.046984 0.000001 0.000000 0.150446 0.151530 -1.357887
    28 -0.000005 0.000007 3.713254 -3.301476 -0.154449 1.251532
    29 18.045723 0.000000 0.000000 0.000000 0.000000 -1.733523
    30 17.597597 0.000000 0.000000 -0.265570 0.205306 -0.163087
    31 0.000005 -0.000003 -3.713254 0.774546 2.278274 5.458946
    32 18.045721 0.000000 0.000000 0.000000 0.000000 -2.679121
    33 17.597597 0.000000 0.000000 0.365474 0.051171 0.720313
  time 19
    0 0.223628 -0.980348 -20.600716 0.000000 0.000000 -1.585458
    1 -3.601676 0.398450 0.000000 -1.570795 -1.570787 0.000000
    2 1.293670 0.684478 -0.000001 -0.020959 0.048573 0.182924
    3 5.309685 -0.003834 0.000000 -0.007811 -0.030908 0.219111
    4 4.826790 -0.004591 0.000000 -0.005818 0.033689 0.048891
    5 5.792767 -0.005304 0.000000 -0.162627 -0.006747 0.077241
    6 6.662322 -0.001452 0.000000 -0.016647 0.002267 0.459408
    7 -3.131626 1.411351 4.351345 1.822546 -1.010102 -5.464256
    8 4.827512 0.000000 -0.000002 -0.795818 0.232194 -1.266336
    9 11.140032 0.000000 0.000000 0.000000 0.000000 -1.823406
    10 10.314563 -0.000001 0.000001 -3.128254 0.194464 0.382709
    11 1.646836 0.445664 -1.699647 -0.161704 0.581044 -0.283978
    12 0.928312 0.000000 0.000000 0.000000 0.000000 0.000000
    13 0.928313 0.000000 -0.000001 0.000000 0.000000 0.000000
    14 2.979373 -0.388274 -0.044205 -0.015642 -0.040747 0.348855
    15 1.435262 -0.000001 -0.000001 0.000000 0.000000 0.649480
    16 1.482593 -0.000001 0.000001 0.000000 0.000000 0.499946
    17 -2.869899 1.427012 -4.132583 0.833732 1.272075 -2.789460
    18 4.972047 0.000000 0.000000 -0.554584 -1.123176 -0.246039
    19 11.585358 0.000000 0.000001 0.000000 0.000000 -1.839004
    20 10.127058 0.000000 0.000001 1.220815 0.333906 -1.185959
    21 1.537458 0.109715 1.664489 -0.499886 0.546206 0.269294
    22 0.928313 0.000000 0.000002 0.000000 0.000000 -0.715299
    23 0.928311 0.000000 0.000001 0.000000 0.000000 -0.261715
    24 2.686395 -0.427337 0.044204 -0.191308 -0.016216 -0.252816
    25 1.435260 0.000000 0.000001 0.000000 0.000000 0.470891
    26 1.482593 0.000000 -0.000001 0.000000 0.000000 0.907015
    27 2.046984 0.000001 0.000000 0.150489 0.151117 -1.353569
    28 -0.000005 0.000007 3.713254 -3.301476 -0.154449 1.251436
    29 18.045723 0.000000 0.000000 0.000000 0.000000 -1.733745
    30 17.597597 0.000000 0.000000 -0.265570 0.205257 -0.162904
    31 0.000005 -0.000003 -3.713254 0.774546 2.278274 5.459330
    32 18.045721 0.000000 0.000000 0.000000 0.000000 -2.679121
    33 17.597597 0.000000 0.000000 0.365172 0.051507 0.720498
  time 20
    0 0.223628 -0.980348 -20.600716 0.000000 0.000000 -1.585458
    1 -3.601676 0.398450 0.000000 -1.570795 -1.570787 0.000000
    2 1.293670 0.684478 -0.000001 -0.020959 0.048573 0.182924
    3 5.309685 -0.003834 0.000000 -0.007828 -0.030764 0.219588
    4 4.826790 -0.004591 0.000000 -0.005684 0.033557 0.047811
    5 5.792767 -0.005304 0.000000 -0.162609 -0.007023 0.075580
    6 6.662322 -0.001452 0.000000 -0.016647 0.002267 0.459408
    7 -3.131626 1.411351 4.351345 1.822546 -1.010102 -5.464256
    8 4.827512 0.000000 -0.000002 -0.796057 0.234667 -1.267030
    9 11.140032 0.000000 0.000000 0.000000 0.000000 -1.823261
    10 10.314563 -0.000001 0.000001 -3.128159 0.193714 0.382361
    11 1.646836 0.445664 -1.699647 -0.161704 0.581044 -0.283978
    12 0.928312 0.000000 0.000000 0.000000 0.000000 0.000000
    13 0.928313 0.000000 -0.000001 0.000000 0.000000 0.000000
    14 2.979373 -0.388274 -0.044205 -0.015642 -0.040747 0.348855
    15 1.435262 -0.000001 -0.000001 0.000000 0.000000 0.649480
    16 1.482593 -0.000001 0.000001 0.000000 0.000000 0.499946
    17 -2.869899 1.427012 -4.132583 0.838987 1.273547 -2.783809
    18 4.972047 0.000000 0.000000 -0.560400 -1.124783 -0.239916
    19 11.585358 0.000000 0.000001 0.000000 0.000000 -1.839004
    20 10.127058 0.000000 0.000001 1.220394 0.333906 -1.186709
    21 1.537458 0.109715 1.664489 -0.499886 0.546206 0.269294
    22 0.928313 0.000000 0.000002 0.000000 0.000000 -0.715299
    23 0.928311 0.000000 0.000001 0.000000 0.000000 -0.261715
    24 2.686395 -0.427337 0.044204 -0.191308 -0.016216 -0.252816
    25 1.435260 0.000000 0.000001 0.000000 0.000000 0.470891
    26 1.482593 0.000000 -0.000001 0.000000 0.000000 0.907015
    27 2.046984 0.000001 0.000000 0.150532 0.150940 -1.351318
    28 -0.000005 0.000007 3.713254 -3.301572 -0.154641 1.251436
    29 18.045723 0.000000 0.000000 0.000000 0.000000 -1.733893
    30 17.597597 0.000000 0.000000 -0.265443 0.205479 -0.162812
    31 0.000005 -0.000003 -3.713254 0.773684 2.278849 5.458755
    32 18.045721 0.000000 0.000000 0.000000 0.000000 -2.679121
    33 17.597597 0.000000 0.000000 0.365608 0.052158 0.720683
end
