version 1
nodes
  0 "Bip01" -1
  1 "Bip01 Pelvis" 0
  2 "Bip01 Spine" 1
  3 "Bip01 Spine1" 2
  4 "Bip01 Spine2" 3
  5 "Bip01 Spine3" 4
  6 "Bip01 Neck" 5
  7 "Bip01 L Arm" 6
  8 "Bip01 L Arm1" 7
  9 "Bip01 L Arm2" 8
  10 "Bip01 L Hand" 9
  11 "Bip01 L Finger0" 10
  12 "Bip01 L Finger01" 11
  13 "Bip01 L Finger02" 12
  14 "Bip01 L Finger1" 10
  15 "Bip01 L Finger11" 14
  16 "Bip01 L Finger12" 15
  17 "Bip01 R Arm" 6
  18 "Bip01 R Arm1" 17
  19 "Bip01 R Arm2" 18
  20 "Bip01 R Hand" 19
  21 "Bip01 R Finger0" 20
  22 "Bip01 R Finger01" 21
  23 "Bip01 R Finger02" 22
  24 "Bip01 R Finger1" 20
  25 "Bip01 R Finger11" 24
  26 "Bip01 R Finger12" 25
  27 "Bip01 Head" 6
  28 "Bip01 L Leg" 1
  29 "Bip01 L Leg1" 28
  30 "Bip01 L Foot" 29
  31 "Bip01 R Leg" 1
  32 "Bip01 R Leg1" 31
  33 "Bip01 R Foot" 32
end
skeleton
  time 0
    0 -0.975627 0.195469 -20.585090 0.000000 0.000000 -1.571017
    1 -2.894624 -0.230476 0.000000 -1.570795 -1.570787 0.000000
    2 1.293670 0.684478 -0.000001 -0.048803 -0.015713 0.147885
    3 5.309685 -0.003834 0.000000 -0.049673 0.008845 0.076159
    4 4.826790 -0.004591 0.000000 -0.085663 -0.048010 0.206691
    5 5.792767 -0.005304 0.000000 -0.258825 -0.057071 -0.030103
    6 6.662322 -0.001452 0.000000 -0.091910 0.032655 0.231870
    7 -3.518356 0.356631 4.277124 -3.478511 -0.849542 0.020190
    8 4.827512 0.000000 -0.000002 -1.174792 -0.272115 -0.705188
    9 11.140032 0.000000 0.000000 0.000000 0.000000 -1.236969
    10 10.314563 -0.000001 0.000001 -4.113927 0.347618 0.795075
    11 1.646836 0.445664 -1.699647 -0.392035 3.352851 -0.875707
    12 0.928312 0.000000 0.000000 0.000000 0.000000 0.593404
    13 0.928313 0.000000 -0.000001 0.000000 0.000000 1.204231
    14 2.979373 -0.388274 -0.044205 -0.030851 -0.030823 0.768363
    15 1.435262 -0.000001 -0.000001 0.000000 0.000000 0.418706
    16 1.482593 -0.000001 0.000001 0.000000 0.000000 0.794048
    17 -2.975371 1.071532 -4.156022 -1.569180 0.892704 -4.936661
    18 4.972047 0.000000 0.000000 1.124972 0.711042 -1.582937
    19 11.585358 0.000000 0.000001 0.000000 0.000000 -0.719091
    20 10.127058 0.000000 0.000001 1.865675 0.354616 0.425335
    21 1.537458 0.109715 1.664489 -3.079588 0.031470 0.928526
    22 0.928313 0.000000 0.000002 0.000000 0.000000 0.061034
    23 0.928311 0.000000 0.000001 0.000000 0.000000 0.671897
    24 2.686395 -0.427337 0.044204 -0.001208 0.043611 -0.052337
    25 1.435260 0.000000 0.000001 0.000000 0.000000 1.186618
    26 1.482593 0.000000 -0.000001 0.000000 0.000000 1.684243
    27 2.046984 0.000001 0.000000 0.177674 0.573075 -1.030142
    28 -0.000005 0.000007 3.713254 -3.211451 -0.114278 1.238974
    29 18.045723 0.000000 0.000000 0.000000 0.000000 -1.756985
    30 17.597597 0.000000 0.000000 -0.219173 0.110535 -0.140439
    31 0.000005 -0.000003 -3.713254 0.827643 2.444220 5.464986
    32 18.045721 0.000000 0.000000 0.000000 0.000000 -2.608117
    33 17.597597 0.000000 0.000000 0.356013 -0.157405 0.773060
  time 1
    0 -0.975627 0.195469 -20.585090 0.000000 0.000000 -1.571017
    1 -2.882904 -0.156255 0.000000 -1.570795 -1.570787 0.000000
    2 1.293670 0.684478 -0.000001 -0.048500 -0.015761 0.147818
    3 5.309685 -0.003834 0.000000 -0.053178 0.009264 0.075788
    4 4.826790 -0.004591 0.000000 -0.083069 -0.037763 0.205169
    5 5.792767 -0.005304 0.000000 -0.284026 -0.024029 -0.029750
    6 6.662322 -0.001452 0.000000 -0.091910 0.032655 0.231870
    7 -3.518356 0.356631 4.277124 -3.478511 -0.849542 0.020190
    8 4.827512 0.000000 -0.000002 -1.128796 -0.093125 -0.682486
    9 11.140032 0.000000 0.000000 0.000000 0.000000 -1.659082
    10 10.314563 -0.000001 0.000001 -3.952902 -0.008993 0.823236
    11 1.646836 0.445664 -1.699647 -0.392035 3.352851 -0.875707
    12 0.928312 0.000000 0.000000 0.000000 0.000000 0.593404
    13 0.928313 0.000000 -0.000001 0.000000 0.000000 1.204231
    14 2.979373 -0.388274 -0.044205 -0.030851 -0.030823 0.768363
    15 1.435262 -0.000001 -0.000001 0.000000 0.000000 0.418706
    16 1.482593 -0.000001 0.000001 0.000000 0.000000 0.794048
    17 -2.975371 1.071532 -4.156022 -1.567938 0.965581 -4.936470
    18 4.972047 0.000000 0.000000 1.113717 0.413669 -1.610491
    19 11.585358 0.000000 0.000001 0.000000 0.000000 -1.256055
    20 10.127058 0.000000 0.000001 1.639525 0.482372 0.213244
    21 1.537458 0.109715 1.664489 -3.079588 0.031470 0.928526
    22 0.928313 0.000000 0.000002 0.000000 0.000000 0.061034
    23 0.928311 0.000000 0.000001 0.000000 0.000000 0.671897
    24 2.686395 -0.427337 0.044204 -0.001208 0.043611 -0.052337
    25 1.435260 0.000000 0.000001 0.000000 0.000000 1.186618
    26 1.482593 0.000000 -0.000001 0.000000 0.000000 1.684243
    27 2.046984 0.000001 0.000000 0.219249 0.566850 -1.043586
    28 -0.000005 0.000007 3.713254 -3.211355 -0.114278 1.238974
    29 18.045723 0.000000 0.000000 0.000000 0.000000 -1.756985
    30 17.597597 0.000000 0.000000 -0.219223 0.110535 -0.140439
    31 0.000005 -0.000003 -3.713254 0.827835 2.444124 5.465178
    32 18.045721 0.000000 0.000000 0.000000 0.000000 -2.608117
    33 17.597597 0.000000 0.000000 0.355946 -0.157444 0.773106
  time 2
    0 -0.975627 0.195469 -20.585090 0.000000 0.000000 -1.571017
    1 -2.875092 -0.136723 0.000000 -1.570795 -1.570787 0.000000
    2 1.293670 0.684478 -0.000001 -0.048197 -0.015809 0.147818
    3 5.309685 -0.003834 0.000000 -0.056701 0.009720 0.075399
    4 4.826790 -0.004591 0.000000 -0.081524 -0.031615 0.204265
    5 5.792767 -0.005304 0.000000 -0.282659 -0.025839 -0.029750
    6 6.662322 -0.001452 0.000000 -0.091910 0.032655 0.231870
    7 -3.518356 0.356631 4.277124 -3.478511 -0.849542 0.020190
    8 4.827512 0.000000 -0.000002 -1.117316 -0.065070 -0.686039
    9 11.140032 0.000000 0.000000 0.000000 0.000000 -1.686614
    10 10.314563 -0.000001 0.000001 -3.952713 -0.034940 0.822888
    11 1.646836 0.445664 -1.699647 -0.392035 3.352851 -0.875707
    12 0.928312 0.000000 0.000000 0.000000 0.000000 0.593404
    13 0.928313 0.000000 -0.000001 0.000000 0.000000 1.204231
    14 2.979373 -0.388274 -0.044205 -0.030851 -0.030823 0.768363
    15 1.435262 -0.000001 -0.000001 0.000000 0.000000 0.418706
    16 1.482593 -0.000001 0.000001 0.000000 0.000000 0.794048
    17 -2.975371 1.071532 -4.156022 -1.567938 0.969682 -4.936470
    18 4.972047 0.000000 0.000000 1.108089 0.386028 -1.610957
    19 11.585358 0.000000 0.000001 0.000000 0.000000 -1.276801
    20 10.127058 0.000000 0.000001 1.625501 0.488235 0.199938
    21 1.537458 0.109715 1.664489 -3.079588 0.031470 0.928526
    22 0.928313 0.000000 0.000002 0.000000 0.000000 0.061034
    23 0.928311 0.000000 0.000001 0.000000 0.000000 0.671897
    24 2.686395 -0.427337 0.044204 -0.001208 0.043611 -0.052337
    25 1.435260 0.000000 0.000001 0.000000 0.000000 1.186618
    26 1.482593 0.000000 -0.000001 0.000000 0.000000 1.684243
    27 2.046984 0.000001 0.000000 0.208478 0.567676 -1.071263
    28 -0.000005 0.000007 3.713254 -3.211355 -0.114182 1.238974
    29 18.045723 0.000000 0.000000 0.000000 0.000000 -1.756985
    30 17.597597 0.000000 0.000000 -0.219223 0.110486 -0.140439
    31 0.000005 -0.000003 -3.713254 0.827930 2.444124 5.465274
    32 18.045721 0.000000 0.000000 0.000000 0.000000 -2.608117
    33 17.597597 0.000000 0.000000 0.355845 -0.157523 0.773106
  time 3
    0 -0.975627 0.195469 -20.585090 0.000000 0.000000 -1.571017
    1 -2.875092 -0.144536 0.000000 -1.570795 -1.570787 0.000000
    2 1.293670 0.684478 -0.000001 -0.048062 -0.015833 0.147801
    3 5.309685 -0.003834 0.000000 -0.058300 0.009911 0.075240
    4 4.826790 -0.004591 0.000000 -0.082039 -0.033689 0.204552
    5 5.792767 -0.005304 0.000000 -0.279134 -0.030513 -0.029750
    6 6.662322 -0.001452 0.000000 -0.091910 0.032655 0.231870
    7 -3.518356 0.356631 4.277124 -3.478511 -0.849542 0.020190
    8 4.827512 0.000000 -0.000002 -1.112932 -0.056884 -0.689071
    9 11.140032 0.000000 0.000000 0.000000 0.000000 -1.655097
    10 10.314563 -0.000001 0.000001 -3.986074 -0.014894 0.810114
    11 1.646836 0.445664 -1.699647 -0.392035 3.352851 -0.875707
    12 0.928312 0.000000 0.000000 0.000000 0.000000 0.593404
    13 0.928313 0.000000 -0.000001 0.000000 0.000000 1.204231
    14 2.979373 -0.388274 -0.044205 -0.030851 -0.030823 0.768363
    15 1.435262 -0.000001 -0.000001 0.000000 0.000000 0.418706
    16 1.482593 -0.000001 0.000001 0.000000 0.000000 0.794048
    17 -2.975371 1.071532 -4.156022 -1.568129 0.964635 -4.936566
    18 4.972047 0.000000 0.000000 1.111372 0.395670 -1.606830
    19 11.585358 0.000000 0.000001 0.000000 0.000000 -1.227385
    20 10.127058 0.000000 0.000001 1.642751 0.481048 0.216245
    21 1.537458 0.109715 1.664489 -3.079588 0.031470 0.928526
    22 0.928313 0.000000 0.000002 0.000000 0.000000 0.061034
    23 0.928311 0.000000 0.000001 0.000000 0.000000 0.671897
    24 2.686395 -0.427337 0.044204 -0.001208 0.043611 -0.052337
    25 1.435260 0.000000 0.000001 0.000000 0.000000 1.186618
    26 1.482593 0.000000 -0.000001 0.000000 0.000000 1.684243
    27 2.046984 0.000001 0.000000 0.186118 0.573931 -1.101555
    28 -0.000005 0.000007 3.713254 -3.211355 -0.114182 1.238974
    29 18.045723 0.000000 0.000000 0.000000 0.000000 -1.756985
    30 17.597597 0.000000 0.000000 -0.219223 0.110461 -0.140439
    31 0.000005 -0.000003 -3.713254 0.827930 2.444028 5.465370
    32 18.045721 0.000000 0.000000 0.000000 0.000000 -2.608117
    33 17.597597 0.000000 0.000000 0.355744 -0.157582 0.773106
  time 4
    0 -0.975627 0.195469 -20.585090 0.000000 0.000000 -1.571017
    1 -2.882904 -0.175787 0.000000 -1.570795 -1.570787 0.000000
    2 1.293670 0.684478 -0.000001 -0.048096 -0.015833 0.147801
    3 5.309685 -0.003834 0.000000 -0.054438 0.009444 0.075647
    4 4.826790 -0.004591 0.000000 -0.083202 -0.038471 0.205280
    5 5.792767 -0.005304 0.000000 -0.274133 -0.036996 -0.029771
    6 6.662322 -0.001452 0.000000 -0.091910 0.032655 0.231870
    7 -3.518356 0.356631 4.277124 -3.478511 -0.849542 0.020190
    8 4.827512 0.000000 -0.000002 -1.113729 -0.067629 -0.698516
    9 11.140032 0.000000 0.000000 0.000000 0.000000 -1.584238
    10 10.314563 -0.000001 0.000001 -4.031472 0.030724 0.786888
    11 1.646836 0.445664 -1.699647 -0.392035 3.352851 -0.875707
    12 0.928312 0.000000 0.000000 0.000000 0.000000 0.593404
    13 0.928313 0.000000 -0.000001 0.000000 0.000000 1.204231
    14 2.979373 -0.388274 -0.044205 -0.030851 -0.030823 0.768363
    15 1.435262 -0.000001 -0.000001 0.000000 0.000000 0.418706
    16 1.482593 -0.000001 0.000001 0.000000 0.000000 0.794048
    17 -2.975371 1.071532 -4.156022 -1.568224 0.954460 -4.936566
    18 4.972047 0.000000 0.000000 1.119532 0.428855 -1.595715
    19 11.585358 0.000000 0.000001 0.000000 0.000000 -1.142111
    20 10.127058 0.000000 0.000001 1.676901 0.465918 0.248509
    21 1.537458 0.109715 1.664489 -3.079588 0.031470 0.928526
    22 0.928313 0.000000 0.000002 0.000000 0.000000 0.061034
    23 0.928311 0.000000 0.000001 0.000000 0.000000 0.671897
    24 2.686395 -0.427337 0.044204 -0.001208 0.043611 -0.052337
    25 1.435260 0.000000 0.000001 0.000000 0.000000 1.186618
    26 1.482593 0.000000 -0.000001 0.000000 0.000000 1.684243
    27 2.046984 0.000001 0.000000 0.185429 0.572485 -1.077285
    28 -0.000005 0.000007 3.713254 -3.211355 -0.114182 1.238974
    29 18.045723 0.000000 0.000000 0.000000 0.000000 -1.756985
    30 17.597597 0.000000 0.000000 -0.219249 0.110412 -0.140439
    31 0.000005 -0.000003 -3.713254 0.828122 2.443932 5.465465
    32 18.045721 0.000000 0.000000 0.000000 0.000000 -2.608117
    33 17.597597 0.000000 0.000000 0.355677 -0.157642 0.773106
  time 5
    0 -0.975627 0.195469 -20.585090 0.000000 0.000000 -1.571017
    1 -2.894624 -0.207038 0.000000 -1.570795 -1.570787 0.000000
    2 1.293670 0.684478 -0.000001 -0.048230 -0.015809 0.147818
    3 5.309685 -0.003834 0.000000 -0.049673 0.008845 0.076159
    4 4.826790 -0.004591 0.000000 -0.084614 -0.043936 0.206073
    5 5.792767 -0.005304 0.000000 -0.268593 -0.044295 -0.029854
    6 6.662322 -0.001452 0.000000 -0.091910 0.032655 0.231870
    7 -3.518356 0.356631 4.277124 -3.478511 -0.849542 0.020190
    8 4.827512 0.000000 -0.000002 -1.117476 -0.096281 -0.710041
    9 11.140032 0.000000 0.000000 0.000000 0.000000 -1.502220
    10 10.314563 -0.000001 0.000001 -4.069003 0.086085 0.764766
    11 1.646836 0.445664 -1.699647 -0.392035 3.352851 -0.875707
    12 0.928312 0.000000 0.000000 0.000000 0.000000 0.593404
    13 0.928313 0.000000 -0.000001 0.000000 0.000000 1.204231
    14 2.979373 -0.388274 -0.044205 -0.030851 -0.030823 0.768363
    15 1.435262 -0.000001 -0.000001 0.000000 0.000000 0.418706
    16 1.482593 -0.000001 0.000001 0.000000 0.000000 0.794048
    17 -2.975371 1.071532 -4.156022 -1.568415 0.943208 -4.936566
    18 4.972047 0.000000 0.000000 1.129944 0.472645 -1.582538
    19 11.585358 0.000000 0.000001 0.000000 0.000000 -1.054959
    20 10.127058 0.000000 0.000001 1.713576 0.447950 0.283074
    21 1.537458 0.109715 1.664489 -3.079588 0.031470 0.928526
    22 0.928313 0.000000 0.000002 0.000000 0.000000 0.061034
    23 0.928311 0.000000 0.000001 0.000000 0.000000 0.671897
    24 2.686395 -0.427337 0.044204 -0.001208 0.043611 -0.052337
    25 1.435260 0.000000 0.000001 0.000000 0.000000 1.186618
    26 1.482593 0.000000 -0.000001 0.000000 0.000000 1.684243
    27 2.046984 0.000001 0.000000 0.182327 0.571600 -1.053866
    28 -0.000005 0.000007 3.713254 -3.211259 -0.114182 1.238974
    29 18.045723 0.000000 0.000000 0.000000 0.000000 -1.756985
    30 17.597597 0.000000 0.000000 -0.219249 0.110387 -0.140439
    31 0.000005 -0.000003 -3.713254 0.828218 2.443932 5.465465
    32 18.045721 0.000000 0.000000 0.000000 0.000000 -2.608117
    33 17.597597 0.000000 0.000000 0.355610 -0.157681 0.773106
  time 6
    0 -0.975627 0.195469 -20.585090 0.000000 0.000000 -1.571017
    1 -2.894624 -0.230476 0.000000 -1.570795 -1.570787 0.000000
    2 1.293670 0.684478 -0.000001 -0.048416 -0.015773 0.147818
    3 5.309685 -0.003834 0.000000 -0.048924 0.008737 0.076230
    4 4.826790 -0.004591 0.000000 -0.085663 -0.048010 0.206691
    5 5.792767 -0.005304 0.000000 -0.263196 -0.051354 -0.029999
    6 6.662322 -0.001452 0.000000 -0.091910 0.032655 0.231870
    7 -3.518356 0.356631 4.277124 -3.478511 -0.849542 0.020190
    8 4.827512 0.000000 -0.000002 -1.130549 -0.146080 -0.713767
    9 11.140032 0.000000 0.000000 0.000000 0.000000 -1.414987
    10 10.314563 -0.000001 0.000001 -4.094403 0.159711 0.757973
    11 1.646836 0.445664 -1.699647 -0.392035 3.352851 -0.875707
    12 0.928312 0.000000 0.000000 0.000000 0.000000 0.593404
    13 0.928313 0.000000 -0.000001 0.000000 0.000000 1.204231
    14 2.979373 -0.388274 -0.044205 -0.030851 -0.030823 0.768363
    15 1.435262 -0.000001 -0.000001 0.000000 0.000000 0.418706
    16 1.482593 -0.000001 0.000001 0.000000 0.000000 0.794048
    17 -2.975371 1.071532 -4.156022 -1.568607 0.929221 -4.936566
    18 4.972047 0.000000 0.000000 1.137354 0.537407 -1.575216
    19 11.585358 0.000000 0.000001 0.000000 0.000000 -0.958658
    20 10.127058 0.000000 0.000001 1.757754 0.424120 0.324542
    21 1.537458 0.109715 1.664489 -3.079588 0.031470 0.928526
    22 0.928313 0.000000 0.000002 0.000000 0.000000 0.061034
    23 0.928311 0.000000 0.000001 0.000000 0.000000 0.671897
    24 2.686395 -0.427337 0.044204 -0.001208 0.043611 -0.052337
    25 1.435260 0.000000 0.000001 0.000000 0.000000 1.186618
    26 1.482593 0.000000 -0.000001 0.000000 0.000000 1.684243
    27 2.046984 0.000001 0.000000 0.184740 0.571954 -1.028257
    28 -0.000005 0.000007 3.713254 -3.211259 -0.114086 1.238974
    29 18.045723 0.000000 0.000000 0.000000 0.000000 -1.756985
    30 17.597597 0.000000 0.000000 -0.219299 0.110387 -0.140439
    31 0.000005 -0.000003 -3.713254 0.828218 2.443932 5.465561
    32 18.045721 0.000000 0.000000 0.000000 0.000000 -2.608117
    33 17.597597 0.000000 0.000000 0.355509 -0.157740 0.773153
  time 7
    0 -0.975627 0.195469 -20.585090 0.000000 0.000000 -1.571017
    1 -2.894624 -0.238289 0.000000 -1.570795 -1.570787 0.000000
    2 1.293670 0.684478 -0.000001 -0.048618 -0.015749 0.147868
    3 5.309685 -0.003834 0.000000 -0.049298 0.008797 0.076177
    4 4.826790 -0.004591 0.000000 -0.085835 -0.048693 0.206779
    5 5.792767 -0.005304 0.000000 -0.258825 -0.057071 -0.030103
    6 6.662322 -0.001452 0.000000 -0.091910 0.032655 0.231870
    7 -3.518356 0.356631 4.277124 -3.478511 -0.849542 0.020190
    8 4.827512 0.000000 -0.000002 -1.152312 -0.212935 -0.712554
    9 11.140032 0.000000 0.000000 0.000000 0.000000 -1.316885
    10 10.314563 -0.000001 0.000001 -4.109852 0.254507 0.767263
    11 1.646836 0.445664 -1.699647 -0.392035 3.352851 -0.875707
    12 0.928312 0.000000 0.000000 0.000000 0.000000 0.593404
    13 0.928313 0.000000 -0.000001 0.000000 0.000000 1.204231
    14 2.979373 -0.388274 -0.044205 -0.030851 -0.030823 0.768363
    15 1.435262 -0.000001 -0.000001 0.000000 0.000000 0.418706
    16 1.482593 -0.000001 0.000001 0.000000 0.000000 0.794048
    17 -2.975371 1.071532 -4.156022 -1.568989 0.910923 -4.936661
    18 4.972047 0.000000 0.000000 1.136791 0.625309 -1.573619
    19 11.585358 0.000000 0.000001 0.000000 0.000000 -0.838997
    20 10.127058 0.000000 0.000001 1.813012 0.390550 0.376314
    21 1.537458 0.109715 1.664489 -3.079588 0.031470 0.928526
    22 0.928313 0.000000 0.000002 0.000000 0.000000 0.061034
    23 0.928311 0.000000 0.000001 0.000000 0.000000 0.671897
    24 2.686395 -0.427337 0.044204 -0.001208 0.043611 -0.052337
    25 1.435260 0.000000 0.000001 0.000000 0.000000 1.186618
    26 1.482593 0.000000 -0.000001 0.000000 0.000000 1.684243
    27 2.046984 0.000001 0.000000 0.176640 0.573341 -1.030447
    28 -0.000005 0.000007 3.713254 -3.211259 -0.114086 1.238974
    29 18.045723 0.000000 0.000000 0.000000 0.000000 -1.756985
    30 17.597597 0.000000 0.000000 -0.219299 0.110338 -0.140439
    31 0.000005 -0.000003 -3.713254 0.828218 2.443836 5.465657
    32 18.045721 0.000000 0.000000 0.000000 0.000000 -2.608117
    33 17.597597 0.000000 0.000000 0.355409 -0.157799 0.773153
  time 8
    0 -0.975627 0.195469 -20.585090 0.000000 0.000000 -1.571017
    1 -2.894624 -0.230476 0.000000 -1.570795 -1.570787 0.000000
    2 1.293670 0.684478 -0.000001 -0.048803 -0.015713 0.147885
    3 5.309685 -0.003834 0.000000 -0.049673 0.008845 0.076159
    4 4.826790 -0.004591 0.000000 -0.085663 -0.048010 0.206691
    5 5.792767 -0.005304 0.000000 -0.258825 -0.057071 -0.030103
    6 6.662322 -0.001452 0.000000 -0.091910 0.032655 0.231870
    7 -3.518356 0.356631 4.277124 -3.478511 -0.849542 0.020190
    8 4.827512 0.000000 -0.000002 -1.174792 -0.272115 -0.705188
    9 11.140032 0.000000 0.000000 0.000000 0.000000 -1.236969
    10 10.314563 -0.000001 0.000001 -4.113927 0.347618 0.795075
    11 1.646836 0.445664 -1.699647 -0.392035 3.352851 -0.875707
    12 0.928312 0.000000 0.000000 0.000000 0.000000 0.593404
    13 0.928313 0.000000 -0.000001 0.000000 0.000000 1.204231
    14 2.979373 -0.388274 -0.044205 -0.030851 -0.030823 0.768363
    15 1.435262 -0.000001 -0.000001 0.000000 0.000000 0.418706
    16 1.482593 -0.000001 0.000001 0.000000 0.000000 0.794048
    17 -2.975371 1.071532 -4.156022 -1.569180 0.892704 -4.936661
    18 4.972047 0.000000 0.000000 1.124972 0.711042 -1.582937
    19 11.585358 0.000000 0.000001 0.000000 0.000000 -0.719091
    20 10.127058 0.000000 0.000001 1.865675 0.354616 0.425335
    21 1.537458 0.109715 1.664489 -3.079588 0.031470 0.928526
    22 0.928313 0.000000 0.000002 0.000000 0.000000 0.061034
    23 0.928311 0.000000 0.000001 0.000000 0.000000 0.671897
    24 2.686395 -0.427337 0.044204 -0.001208 0.043611 -0.052337
    25 1.435260 0.000000 0.000001 0.000000 0.000000 1.186618
    26 1.482593 0.000000 -0.000001 0.000000 0.000000 1.684243
    27 2.046984 0.000001 0.000000 0.177674 0.573075 -1.030142
    28 -0.000005 0.000007 3.713254 -3.211259 -0.114086 1.238974
    29 18.045723 0.000000 0.000000 0.000000 0.000000 -1.756985
    30 17.597597 0.000000 0.000000 -0.219299 0.110338 -0.140439
    31 0.000005 -0.000003 -3.713254 0.828410 2.443740 5.465753
    32 18.045721 0.000000 0.000000 0.000000 0.000000 -2.608117
    33 17.597597 0.000000 0.000000 0.355342 -0.157859 0.773153
end
