version 1
nodes
  0 "Bip01" -1
  1 "Bip01 Pelvis" 0
  2 "Bip01 Spine" 1
  3 "Bip01 Spine1" 2
  4 "Bip01 Spine2" 3
  5 "Bip01 Spine3" 4
  6 "Bip01 Neck" 5
  7 "Bip01 L Arm" 6
  8 "Bip01 L Arm1" 7
  9 "Bip01 L Arm2" 8
  10 "Bip01 L Hand" 9
  11 "Bip01 L Finger0" 10
  12 "Bip01 L Finger01" 11
  13 "Bip01 L Finger02" 12
  14 "Bip01 L Finger1" 10
  15 "Bip01 L Finger11" 14
  16 "Bip01 L Finger12" 15
  17 "Bip01 R Arm" 6
  18 "Bip01 R Arm1" 17
  19 "Bip01 R Arm2" 18
  20 "Bip01 R Hand" 19
  21 "Bip01 R Finger0" 20
  22 "Bip01 R Finger01" 21
  23 "Bip01 R Finger02" 22
  24 "Bip01 R Finger1" 20
  25 "Bip01 R Finger11" 24
  26 "Bip01 R Finger12" 25
  27 "Bip01 Head" 6
  28 "Bip01 L Leg" 1
  29 "Bip01 L Leg1" 28
  30 "Bip01 L Foot" 29
  31 "Bip01 R Leg" 1
  32 "Bip01 R Leg1" 31
  33 "Bip01 R Foot" 32
end
skeleton
  time 0
    0 -1.245166 -1.941314 -20.585090 0.000000 0.000000 -1.571017
    1 -5.043127 0.019532 0.000000 -1.570795 -1.570787 0.000000
    2 1.293670 0.684478 -0.000001 -0.050791 -0.006976 0.322209
    3 5.309685 -0.003834 0.000000 -0.048720 0.013111 0.163294
    4 4.826790 -0.004591 0.000000 -0.085663 -0.048010 0.206691
    5 5.792767 -0.005304 0.000000 -0.264671 0.011038 0.222726
    6 6.662322 -0.001452 0.000000 -0.091910 0.032655 0.231870
    7 -3.518356 0.356631 4.277124 1.458497 -1.524960 -4.835017
    8 4.827512 0.000000 -0.000002 0.092069 0.004854 -0.903271
    9 11.140032 0.000000 0.000000 0.000000 0.000000 -1.197192
    10 10.314563 -0.000001 0.000001 -4.479005 0.032504 -0.132835
    11 1.646836 0.445664 -1.699647 -0.392035 3.352851 -0.875707
    12 0.928312 0.000000 0.000000 0.000000 0.000000 0.593404
    13 0.928313 0.000000 -0.000001 0.000000 0.000000 1.204231
    14 2.979373 -0.388274 -0.044205 -0.030851 -0.030823 0.768363
    15 1.435262 -0.000001 -0.000001 0.000000 0.000000 0.418706
    16 1.482593 -0.000001 0.000001 0.000000 0.000000 0.794048
    17 -2.975371 1.071532 -4.156022 -1.357004 0.873827 -4.662921
    18 4.972047 0.000000 0.000000 0.523349 -0.129574 -1.418279
    19 11.585358 0.000000 0.000001 0.000000 0.000000 -0.684622
    20 10.127058 0.000000 0.000001 2.455418 0.254283 0.642379
    21 1.537458 0.109715 1.664489 -3.079588 0.031470 0.928526
    22 0.928313 0.000000 0.000002 0.000000 0.000000 0.061034
    23 0.928311 0.000000 0.000001 0.000000 0.000000 0.671897
    24 2.686395 -0.427337 0.044204 -0.001208 0.043611 -0.052337
    25 1.435260 0.000000 0.000001 0.000000 0.000000 1.186618
    26 1.482593 0.000000 -0.000001 0.000000 0.000000 1.684243
    27 2.046984 0.000001 0.000000 0.520140 -0.084203 -0.106154
    28 -0.000005 0.000007 3.713254 -3.211451 -0.114278 1.238974
    29 18.045723 0.000000 0.000000 0.000000 0.000000 -1.756985
    30 17.597597 0.000000 0.000000 -0.219173 0.110535 -0.140439
    31 0.000005 -0.000003 -3.713254 0.827643 2.444220 5.464986
    32 18.045721 0.000000 0.000000 0.000000 0.000000 -2.608117
    33 17.597597 0.000000 0.000000 0.356013 -0.157405 0.773060
  time 1
    0 -1.245166 -1.941314 -20.585090 0.000000 0.000000 -1.571017
    1 -5.019688 0.070315 0.000000 -1.570795 -1.570787 0.000000
    2 1.293670 0.684478 -0.000001 -0.054075 -0.005694 0.322343
    3 5.309685 -0.003834 0.000000 -0.052225 0.013579 0.163029
    4 4.826790 -0.004591 0.000000 -0.240566 -0.043888 0.214297
    5 5.792767 -0.005304 0.000000 -0.339375 0.003068 0.170383
    6 6.662322 -0.001452 0.000000 -0.091910 0.032655 0.231870
    7 -3.518356 0.356631 4.277124 1.458497 -1.524960 -4.835017
    8 4.827512 0.000000 -0.000002 -0.073981 -0.003588 -0.738549
    9 11.140032 0.000000 0.000000 0.000000 0.000000 -2.574603
    10 10.314563 -0.000001 0.000001 -0.316241 3.069264 -1.552773
    11 1.646836 0.445664 -1.699647 -0.392035 3.352851 -0.875707
    12 0.928312 0.000000 0.000000 0.000000 0.000000 0.593404
    13 0.928313 0.000000 -0.000001 0.000000 0.000000 1.204231
    14 2.979373 -0.388274 -0.044205 -0.030851 -0.030823 0.768363
    15 1.435262 -0.000001 -0.000001 0.000000 0.000000 0.418706
    16 1.482593 -0.000001 0.000001 0.000000 0.000000 0.794048
    17 -2.975371 1.071532 -4.156022 0.118390 1.390908 -3.259837
    18 4.972047 0.000000 0.000000 0.406007 -0.576960 -1.965430
    19 11.585358 0.000000 0.000001 0.000000 0.000000 -1.681035
    20 10.127058 0.000000 0.000001 2.382629 0.897319 0.333146
    21 1.537458 0.109715 1.664489 -3.079588 0.031470 0.928526
    22 0.928313 0.000000 0.000002 0.000000 0.000000 0.061034
    23 0.928311 0.000000 0.000001 0.000000 0.000000 0.671897
    24 2.686395 -0.427337 0.044204 -0.001208 0.043611 -0.052337
    25 1.435260 0.000000 0.000001 0.000000 0.000000 1.186618
    26 1.482593 0.000000 -0.000001 0.000000 0.000000 1.684243
    27 2.046984 0.000001 0.000000 0.639695 -0.123059 -0.099402
    28 -0.000005 0.000007 3.713254 -3.211355 -0.114182 1.238974
    29 18.045723 0.000000 0.000000 0.000000 0.000000 -1.756985
    30 17.597597 0.000000 0.000000 -0.219223 0.110461 -0.140439
    31 0.000005 -0.000003 -3.713254 0.827835 2.444124 5.465178
    32 18.045721 0.000000 0.000000 0.000000 0.000000 -2.608117
    33 17.597597 0.000000 0.000000 0.355946 -0.157444 0.773106
  time 2
    0 -1.245166 -1.941314 -20.585090 0.000000 0.000000 -1.571017
    1 -5.019688 0.093753 0.000000 -1.570795 -1.570787 0.000000
    2 1.293670 0.684478 -0.000001 -0.057394 -0.004363 0.322460
    3 5.309685 -0.003834 0.000000 -0.055748 0.014010 0.162746
    4 4.826790 -0.004591 0.000000 -0.220480 -0.044487 0.213349
    5 5.792767 -0.005304 0.000000 -0.333331 0.003847 0.174577
    6 6.662322 -0.001452 0.000000 -0.091910 0.032655 0.231870
    7 -3.518356 0.356631 4.277124 1.458497 -1.524960 -4.835017
    8 4.827512 0.000000 -0.000002 -0.025673 -0.013650 -0.535874
    9 11.140032 0.000000 0.000000 0.000000 0.000000 -2.424697
    10 10.314563 -0.000001 0.000001 -3.633411 0.031380 1.166216
    11 1.646836 0.445664 -1.699647 -0.392035 3.352851 -0.875707
    12 0.928312 0.000000 0.000000 0.000000 0.000000 0.593404
    13 0.928313 0.000000 -0.000001 0.000000 0.000000 1.204231
    14 2.979373 -0.388274 -0.044205 -0.030851 -0.030823 0.768363
    15 1.435262 -0.000001 -0.000001 0.000000 0.000000 0.418706
    16 1.482593 -0.000001 0.000001 0.000000 0.000000 0.794048
    17 -2.975371 1.071532 -4.156022 -0.524253 1.365274 -3.890262
    18 4.972047 0.000000 0.000000 0.433114 -0.501110 -1.896146
    19 11.585358 0.000000 0.000001 0.000000 0.000000 -1.500032
    20 10.127058 0.000000 0.000001 2.402123 0.820155 0.369461
    21 1.537458 0.109715 1.664489 -3.079588 0.031470 0.928526
    22 0.928313 0.000000 0.000002 0.000000 0.000000 0.061034
    23 0.928311 0.000000 0.000001 0.000000 0.000000 0.671897
    24 2.686395 -0.427337 0.044204 -0.001208 0.043611 -0.052337
    25 1.435260 0.000000 0.000001 0.000000 0.000000 1.186618
    26 1.482593 0.000000 -0.000001 0.000000 0.000000 1.684243
    27 2.046984 0.000001 0.000000 0.671620 -0.137634 -0.101896
    28 -0.000005 0.000007 3.713254 -3.211259 -0.114086 1.238974
    29 18.045723 0.000000 0.000000 0.000000 0.000000 -1.756985
    30 17.597597 0.000000 0.000000 -0.219299 0.110387 -0.140439
    31 0.000005 -0.000003 -3.713254 0.827930 2.444124 5.465274
    32 18.045721 0.000000 0.000000 0.000000 0.000000 -2.608117
    33 17.597597 0.000000 0.000000 0.355845 -0.157523 0.773106
  time 3
    0 -1.245166 -1.941314 -20.585090 0.000000 0.000000 -1.571017
    1 -5.023595 0.093753 0.000000 -1.570795 -1.570787 0.000000
    2 1.293670 0.684478 -0.000001 -0.058893 -0.003764 0.322510
    3 5.309685 -0.003834 0.000000 -0.057347 0.014214 0.162605
    4 4.826790 -0.004591 0.000000 -0.174187 -0.045781 0.211122
    5 5.792767 -0.005304 0.000000 -0.318257 0.005741 0.185166
    6 6.662322 -0.001452 0.000000 -0.091910 0.032655 0.231870
    7 -3.518356 0.356631 4.277124 1.458497 -1.524960 -4.835017
    8 4.827512 0.000000 -0.000002 0.041449 -0.010495 -0.508145
    9 11.140032 0.000000 0.000000 0.000000 0.000000 -1.963893
    10 10.314563 -0.000001 0.000001 -3.978587 -0.016393 0.516604
    11 1.646836 0.445664 -1.699647 -0.392035 3.352851 -0.875707
    12 0.928312 0.000000 0.000000 0.000000 0.000000 0.593404
    13 0.928313 0.000000 -0.000001 0.000000 0.000000 1.204231
    14 2.979373 -0.388274 -0.044205 -0.030851 -0.030823 0.768363
    15 1.435262 -0.000001 -0.000001 0.000000 0.000000 0.418706
    16 1.482593 -0.000001 0.000001 0.000000 0.000000 0.794048
    17 -2.975371 1.071532 -4.156022 -1.149413 1.156765 -4.487644
    18 4.972047 0.000000 0.000000 0.480764 -0.333099 -1.718444
    19 11.585358 0.000000 0.000001 0.000000 0.000000 -1.104293
    20 10.127058 0.000000 0.000001 2.439289 0.610601 0.467954
    21 1.537458 0.109715 1.664489 -3.079588 0.031470 0.928526
    22 0.928313 0.000000 0.000002 0.000000 0.000000 0.061034
    23 0.928311 0.000000 0.000001 0.000000 0.000000 0.671897
    24 2.686395 -0.427337 0.044204 -0.001208 0.043611 -0.052337
    25 1.435260 0.000000 0.000001 0.000000 0.000000 1.186618
    26 1.482593 0.000000 -0.000001 0.000000 0.000000 1.684243
    27 2.046984 0.000001 0.000000 0.666924 -0.139522 -0.100984
    28 -0.000005 0.000007 3.713254 -3.211259 -0.114086 1.238974
    29 18.045723 0.000000 0.000000 0.000000 0.000000 -1.756985
    30 17.597597 0.000000 0.000000 -0.219350 0.110313 -0.140439
    31 0.000005 -0.000003 -3.713254 0.827930 2.444028 5.465370
    32 18.045721 0.000000 0.000000 0.000000 0.000000 -2.608117
    33 17.597597 0.000000 0.000000 0.355744 -0.157582 0.773106
  time 4
    0 -1.245166 -1.941314 -20.585090 0.000000 0.000000 -1.571017
    1 -5.031408 0.062502 0.000000 -1.570795 -1.570787 0.000000
    2 1.293670 0.684478 -0.000001 -0.058287 -0.004016 0.322460
    3 5.309685 -0.003834 0.000000 -0.048720 0.013111 0.163294
    4 4.826790 -0.004591 0.000000 -0.122324 -0.047135 0.208521
    5 5.792767 -0.005304 0.000000 -0.298686 0.007910 0.198828
    6 6.662322 -0.001452 0.000000 -0.091910 0.032655 0.231870
    7 -3.518356 0.356631 4.277124 1.458497 -1.524960 -4.835017
    8 4.827512 0.000000 -0.000002 0.063132 -0.012968 -0.709521
    9 11.140032 0.000000 0.000000 0.000000 0.000000 -1.502873
    10 10.314563 -0.000001 0.000001 -4.239221 0.003279 0.092915
    11 1.646836 0.445664 -1.699647 -0.392035 3.352851 -0.875707
    12 0.928312 0.000000 0.000000 0.000000 0.000000 0.593404
    13 0.928313 0.000000 -0.000001 0.000000 0.000000 1.204231
    14 2.979373 -0.388274 -0.044205 -0.030851 -0.030823 0.768363
    15 1.435262 -0.000001 -0.000001 0.000000 0.000000 0.418706
    16 1.482593 -0.000001 0.000001 0.000000 0.000000 0.794048
    17 -2.975371 1.071532 -4.156022 -1.310002 0.965502 -4.626238
    18 4.972047 0.000000 0.000000 0.513593 -0.191925 -1.546864
    19 11.585358 0.000000 0.000001 0.000000 0.000000 -0.807877
    20 10.127058 0.000000 0.000001 2.450719 0.440101 0.537233
    21 1.537458 0.109715 1.664489 -3.079588 0.031470 0.928526
    22 0.928313 0.000000 0.000002 0.000000 0.000000 0.061034
    23 0.928311 0.000000 0.000001 0.000000 0.000000 0.671897
    24 2.686395 -0.427337 0.044204 -0.001208 0.043611 -0.052337
    25 1.435260 0.000000 0.000001 0.000000 0.000000 1.186618
    26 1.482593 0.000000 -0.000001 0.000000 0.000000 1.684243
    27 2.046984 0.000001 0.000000 0.591313 -0.112379 -0.097273
    28 -0.000005 0.000007 3.713254 -3.211163 -0.113990 1.238974
    29 18.045723 0.000000 0.000000 0.000000 0.000000 -1.756985
    30 17.597597 0.000000 0.000000 -0.219376 0.110239 -0.140439
    31 0.000005 -0.000003 -3.713254 0.828122 2.443932 5.465465
    32 18.045721 0.000000 0.000000 0.000000 0.000000 -2.608117
    33 17.597597 0.000000 0.000000 0.355677 -0.157642 0.773106
  time 5
    0 -1.245166 -1.941314 -20.585090 0.000000 0.000000 -1.571017
    1 -5.039220 0.050783 0.000000 -1.570795 -1.570787 0.000000
    2 1.293670 0.684478 -0.000001 -0.056804 -0.004591 0.322443
    3 5.309685 -0.003834 0.000000 -0.047733 0.012991 0.163400
    4 4.826790 -0.004591 0.000000 -0.085663 -0.048010 0.206691
    5 5.792767 -0.005304 0.000000 -0.279313 0.009767 0.212490
    6 6.662322 -0.001452 0.000000 -0.091910 0.032655 0.231870
    7 -3.518356 0.356631 4.277124 1.458497 -1.524960 -4.835017
    8 4.827512 0.000000 -0.000002 0.071423 -0.017488 -0.855960
    9 11.140032 0.000000 0.000000 0.000000 0.000000 -1.264284
    10 10.314563 -0.000001 0.000001 -4.344613 0.019109 -0.085513
    11 1.646836 0.445664 -1.699647 -0.392035 3.352851 -0.875707
    12 0.928312 0.000000 0.000000 0.000000 0.000000 0.593404
    13 0.928313 0.000000 -0.000001 0.000000 0.000000 1.204231
    14 2.979373 -0.388274 -0.044205 -0.030851 -0.030823 0.768363
    15 1.435262 -0.000001 -0.000001 0.000000 0.000000 0.418706
    16 1.482593 -0.000001 0.000001 0.000000 0.000000 0.794048
    17 -2.975371 1.071532 -4.156022 -1.343916 0.901932 -4.652769
    18 4.972047 0.000000 0.000000 0.524380 -0.135359 -1.459210
    19 11.585358 0.000000 0.000001 0.000000 0.000000 -0.714272
    20 10.127058 0.000000 0.000001 2.452963 0.367760 0.570398
    21 1.537458 0.109715 1.664489 -3.079588 0.031470 0.928526
    22 0.928313 0.000000 0.000002 0.000000 0.000000 0.061034
    23 0.928311 0.000000 0.000001 0.000000 0.000000 0.671897
    24 2.686395 -0.427337 0.044204 -0.001208 0.043611 -0.052337
    25 1.435260 0.000000 0.000001 0.000000 0.000000 1.186618
    26 1.482593 0.000000 -0.000001 0.000000 0.000000 1.684243
    27 2.046984 0.000001 0.000000 0.536598 -0.092995 -0.100072
    28 -0.000005 0.000007 3.713254 -3.211163 -0.113894 1.238974
    29 18.045723 0.000000 0.000000 0.000000 0.000000 -1.756985
    30 17.597597 0.000000 0.000000 -0.219452 0.110116 -0.140439
    31 0.000005 -0.000003 -3.713254 0.828218 2.443932 5.465465
    32 18.045721 0.000000 0.000000 0.000000 0.000000 -2.608117
    33 17.597597 0.000000 0.000000 0.355610 -0.157681 0.773106
  time 6
    0 -1.245166 -1.941314 -20.585090 0.000000 0.000000 -1.571017
    1 -5.043127 0.039064 0.000000 -1.570795 -1.570787 0.000000
    2 1.293670 0.684478 -0.000001 -0.054800 -0.005382 0.322343
    3 5.309685 -0.003834 0.000000 -0.047852 0.013003 0.163382
    4 4.826790 -0.004591 0.000000 -0.075821 -0.048262 0.206184
    5 5.792767 -0.005304 0.000000 -0.264671 0.011038 0.222726
    6 6.662322 -0.001452 0.000000 -0.091910 0.032655 0.231870
    7 -3.518356 0.356631 4.277124 1.458497 -1.524960 -4.835017
    8 4.827512 0.000000 -0.000002 0.077401 -0.016806 -0.918782
    9 11.140032 0.000000 0.000000 0.000000 0.000000 -1.172050
    10 10.314563 -0.000001 0.000001 -4.400152 0.026416 -0.147757
    11 1.646836 0.445664 -1.699647 -0.392035 3.352851 -0.875707
    12 0.928312 0.000000 0.000000 0.000000 0.000000 0.593404
    13 0.928313 0.000000 -0.000001 0.000000 0.000000 1.204231
    14 2.979373 -0.388274 -0.044205 -0.030851 -0.030823 0.768363
    15 1.435262 -0.000001 -0.000001 0.000000 0.000000 0.418706
    16 1.482593 -0.000001 0.000001 0.000000 0.000000 0.794048
    17 -2.975371 1.071532 -4.156022 -1.352514 0.883502 -4.659473
    18 4.972047 0.000000 0.000000 0.525881 -0.117361 -1.423271
    19 11.585358 0.000000 0.000001 0.000000 0.000000 -0.690422
    20 10.127058 0.000000 0.000001 2.454436 0.324260 0.596059
    21 1.537458 0.109715 1.664489 -3.079588 0.031470 0.928526
    22 0.928313 0.000000 0.000002 0.000000 0.000000 0.061034
    23 0.928311 0.000000 0.000001 0.000000 0.000000 0.671897
    24 2.686395 -0.427337 0.044204 -0.001208 0.043611 -0.052337
    25 1.435260 0.000000 0.000001 0.000000 0.000000 1.186618
    26 1.482593 0.000000 -0.000001 0.000000 0.000000 1.684243
    27 2.046984 0.000001 0.000000 0.512299 -0.083731 -0.106094
    28 -0.000005 0.000007 3.713254 -3.211163 -0.113798 1.238974
    29 18.045723 0.000000 0.000000 0.000000 0.000000 -1.756985
    30 17.597597 0.000000 0.000000 -0.219452 0.110043 -0.140484
    31 0.000005 -0.000003 -3.713254 0.828218 2.443932 5.465561
    32 18.045721 0.000000 0.000000 0.000000 0.000000 -2.608117
    33 17.597597 0.000000 0.000000 0.355509 -0.157740 0.773153
  time 7
    0 -1.245166 -1.941314 -20.585090 0.000000 0.000000 -1.571017
    1 -5.043127 0.031251 0.000000 -1.570795 -1.570787 0.000000
    2 1.293670 0.684478 -0.000001 -0.052644 -0.006257 0.322276
    3 5.309685 -0.003834 0.000000 -0.048397 0.013075 0.163347
    4 4.826790 -0.004591 0.000000 -0.080742 -0.048118 0.206426
    5 5.792767 -0.005304 0.000000 -0.262009 0.011242 0.224636
    6 6.662322 -0.001452 0.000000 -0.091910 0.032655 0.231870
    7 -3.518356 0.356631 4.277124 1.458497 -1.524960 -4.835017
    8 4.827512 0.000000 -0.000002 0.084018 -0.007852 -0.914189
    9 11.140032 0.000000 0.000000 0.000000 0.000000 -1.184875
    10 10.314563 -0.000001 0.000001 -4.435124 0.028945 -0.136899
    11 1.646836 0.445664 -1.699647 -0.392035 3.352851 -0.875707
    12 0.928312 0.000000 0.000000 0.000000 0.000000 0.593404
    13 0.928313 0.000000 -0.000001 0.000000 0.000000 1.204231
    14 2.979373 -0.388274 -0.044205 -0.030851 -0.030823 0.768363
    15 1.435262 -0.000001 -0.000001 0.000000 0.000000 0.418706
    16 1.482593 -0.000001 0.000001 0.000000 0.000000 0.794048
    17 -2.975371 1.071532 -4.156022 -1.352800 0.883187 -4.659569
    18 4.972047 0.000000 0.000000 0.523817 -0.124110 -1.420741
    19 11.585358 0.000000 0.000001 0.000000 0.000000 -0.694424
    20 10.127058 0.000000 0.000001 2.455558 0.292203 0.618719
    21 1.537458 0.109715 1.664489 -3.079588 0.031470 0.928526
    22 0.928313 0.000000 0.000002 0.000000 0.000000 0.061034
    23 0.928311 0.000000 0.000001 0.000000 0.000000 0.671897
    24 2.686395 -0.427337 0.044204 -0.001208 0.043611 -0.052337
    25 1.435260 0.000000 0.000001 0.000000 0.000000 1.186618
    26 1.482593 0.000000 -0.000001 0.000000 0.000000 1.684243
    27 2.046984 0.000001 0.000000 0.513764 -0.083141 -0.107675
    28 -0.000005 0.000007 3.713254 -3.211067 -0.113798 1.238974
    29 18.045723 0.000000 0.000000 0.000000 0.000000 -1.756985
    30 17.597597 0.000000 0.000000 -0.219528 0.109993 -0.140484
    31 0.000005 -0.000003 -3.713254 0.828218 2.443836 5.465657
    32 18.045721 0.000000 0.000000 0.000000 0.000000 -2.608117
    33 17.597597 0.000000 0.000000 0.355409 -0.157799 0.773153
  time 8
    0 -1.245166 -1.941314 -20.585090 0.000000 0.000000 -1.571017
    1 -5.043127 0.019532 0.000000 -1.570795 -1.570787 0.000000
    2 1.293670 0.684478 -0.000001 -0.050791 -0.006976 0.322209
    3 5.309685 -0.003834 0.000000 -0.048720 0.013111 0.163294
    4 4.826790 -0.004591 0.000000 -0.085663 -0.048010 0.206691
    5 5.792767 -0.005304 0.000000 -0.264671 0.011038 0.222726
    6 6.662322 -0.001452 0.000000 -0.091910 0.032655 0.231870
    7 -3.518356 0.356631 4.277124 1.458497 -1.524960 -4.835017
    8 4.827512 0.000000 -0.000002 0.092069 0.004854 -0.903271
    9 11.140032 0.000000 0.000000 0.000000 0.000000 -1.197192
    10 10.314563 -0.000001 0.000001 -4.479005 0.032504 -0.132835
    11 1.646836 0.445664 -1.699647 -0.392035 3.352851 -0.875707
    12 0.928312 0.000000 0.000000 0.000000 0.000000 0.593404
    13 0.928313 0.000000 -0.000001 0.000000 0.000000 1.204231
    14 2.979373 -0.388274 -0.044205 -0.030851 -0.030823 0.768363
    15 1.435262 -0.000001 -0.000001 0.000000 0.000000 0.418706
    16 1.482593 -0.000001 0.000001 0.000000 0.000000 0.794048
    17 -2.975371 1.071532 -4.156022 -1.357004 0.873827 -4.662921
    18 4.972047 0.000000 0.000000 0.523349 -0.129574 -1.418279
    19 11.585358 0.000000 0.000001 0.000000 0.000000 -0.684622
    20 10.127058 0.000000 0.000001 2.455418 0.254283 0.642379
    21 1.537458 0.109715 1.664489 -3.079588 0.031470 0.928526
    22 0.928313 0.000000 0.000002 0.000000 0.000000 0.061034
    23 0.928311 0.000000 0.000001 0.000000 0.000000 0.671897
    24 2.686395 -0.427337 0.044204 -0.001208 0.043611 -0.052337
    25 1.435260 0.000000 0.000001 0.000000 0.000000 1.186618
    26 1.482593 0.000000 -0.000001 0.000000 0.000000 1.684243
    27 2.046984 0.000001 0.000000 0.520140 -0.084203 -0.106154
    28 -0.000005 0.000007 3.713254 -3.210875 -0.113703 1.238974
    29 18.045723 0.000000 0.000000 0.000000 0.000000 -1.756985
    30 17.597597 0.000000 0.000000 -0.219578 0.109920 -0.140484
    31 0.000005 -0.000003 -3.713254 0.828410 2.443740 5.465753
    32 18.045721 0.000000 0.000000 0.000000 0.000000 -2.608117
    33 17.597597 0.000000 0.000000 0.355342 -0.157859 0.773153
end
