version 1
nodes
  0 "Bip01" -1
  1 "Bip01 Pelvis" 0
  2 "Bip01 Spine" 1
  3 "Bip01 Spine1" 2
  4 "Bip01 Spine2" 3
  5 "Bip01 Spine3" 4
  6 "Bip01 Neck" 5
  7 "Bip01 L Arm" 6
  8 "Bip01 L Arm1" 7
  9 "Bip01 L Arm2" 8
  10 "Bip01 L Hand" 9
  11 "Bip01 L Finger0" 10
  12 "Bip01 L Finger01" 11
  13 "Bip01 L Finger02" 12
  14 "Bip01 L Finger1" 10
  15 "Bip01 L Finger11" 14
  16 "Bip01 L Finger12" 15
  17 "Bip01 R Arm" 6
  18 "Bip01 R Arm1" 17
  19 "Bip01 R Arm2" 18
  20 "Bip01 R Hand" 19
  21 "Bip01 R Finger0" 20
  22 "Bip01 R Finger01" 21
  23 "Bip01 R Finger02" 22
  24 "Bip01 R Finger1" 20
  25 "Bip01 R Finger11" 24
  26 "Bip01 R Finger12" 25
  27 "Bip01 Head" 6
  28 "Bip01 L Leg" 1
  29 "Bip01 L Leg1" 28
  30 "Bip01 L Foot" 29
  31 "Bip01 R Leg" 1
  32 "Bip01 R Leg1" 31
  33 "Bip01 R Foot" 32
end
skeleton
  time 0
    0 0.235347 0.367350 2.884376 0.000000 0.000000 -1.571017
    1 0.675798 -0.007813 0.000000 -1.570795 -1.570787 0.000000
    2 1.293670 0.684478 -0.000001 -0.069775 0.000634 0.009520
    3 5.309685 -0.003834 0.000000 0.000000 0.000000 -0.069778
    4 4.826790 -0.004591 0.000000 -0.078491 0.000060 -0.000012
    5 5.792767 -0.005304 0.000000 0.000000 0.000000 0.017444
    6 6.662322 -0.001452 0.000000 0.000000 -0.000001 0.471000
    7 -3.108188 1.516823 4.339626 -0.000100 -1.370787 -3.613335
    8 4.827512 0.000000 -0.000002 0.484037 1.160483 0.758597
    9 11.140032 0.000000 0.000000 0.000000 0.000000 -0.287177
    10 10.314563 -0.000001 0.000001 -1.569942 0.000000 -0.069778
    11 1.646836 0.445664 -1.699647 0.153911 0.442352 0.277231
    12 0.928312 0.000000 0.000000 0.000000 0.000000 0.000000
    13 0.928313 0.000000 -0.000001 0.000000 0.000000 0.000000
    14 2.979373 -0.388274 -0.044205 -0.000805 -0.043611 0.000046
    15 1.435262 -0.000001 -0.000001 0.000000 0.000000 0.793619
    16 1.482593 -0.000001 0.000001 0.000000 0.000000 1.465220
    17 -2.869899 1.399667 -4.140396 0.000026 1.370769 -3.613362
    18 4.972047 0.000000 0.000000 -0.592760 -1.258886 0.836883
    19 11.585358 0.000000 0.000001 0.000000 0.000000 -1.290197
    20 10.127058 0.000000 0.000001 1.569752 0.000000 -0.069778
    21 1.537458 0.109715 1.664489 -0.233165 -0.412999 0.435664
    22 0.928313 0.000000 0.000002 0.000000 0.000000 0.000000
    23 0.928311 0.000000 0.000001 0.000000 0.000000 0.000000
    24 2.686395 -0.427337 0.044204 0.001045 0.043611 0.000046
    25 1.435260 0.000000 0.000001 0.000000 0.000000 1.098945
    26 1.482593 0.000000 -0.000001 0.000000 0.000000 1.308248
    27 2.046984 0.000001 0.000000 0.158502 -0.045229 -0.152263
    28 -0.000005 0.000007 3.713254 -0.055284 -3.106619 6.073155
    29 18.045723 0.000000 0.000000 0.000000 0.000000 -0.234872
    30 17.597597 0.000000 0.000000 -0.095566 -0.022579 0.023281
    31 0.000005 -0.000003 -3.713254 0.257957 3.091130 0.080576
    32 18.045721 0.000000 0.000000 0.000000 0.000000 -0.127551
    33 17.597597 0.000000 0.000000 -0.018087 0.069120 0.192706
  time 1
    0 0.243160 1.297066 4.876624 0.000000 -0.510156 -1.571017
    1 2.546949 -0.179693 0.000000 -1.570795 -1.570787 0.000000
    2 1.293670 0.684478 -0.000001 -0.069488 -0.005993 -0.086205
    3 5.309685 -0.003834 0.000000 0.000000 0.000000 -0.170054
    4 4.826790 -0.004591 0.000000 -0.078129 -0.007418 -0.095657
    5 5.792767 -0.005304 0.000000 0.000000 0.000000 -0.091561
    6 6.662322 -0.001452 0.000000 0.000000 -0.000001 0.117802
    7 -3.436323 0.356631 4.339626 -0.000100 -1.370787 -3.260148
    8 4.827512 0.000000 -0.000002 0.975572 0.483836 1.210739
    9 11.140032 0.000000 0.000000 0.000000 0.000000 -0.287177
    10 10.314563 -0.000001 0.000001 -1.569942 0.000000 -0.069778
    11 1.646836 0.445664 -1.699647 0.153911 0.442352 0.277231
    12 0.928312 0.000000 0.000000 0.000000 0.000000 0.000000
    13 0.928313 0.000000 -0.000001 0.000000 0.000000 0.000000
    14 2.979373 -0.388274 -0.044205 -0.000805 -0.043611 0.000046
    15 1.435262 -0.000001 -0.000001 0.000000 0.000000 0.793619
    16 1.482593 -0.000001 0.000001 0.000000 0.000000 1.465220
    17 -3.174596 0.321509 -4.140396 0.000026 1.370769 -3.260124
    18 4.972047 0.000000 0.000000 -1.003223 -0.472104 1.135384
    19 11.585358 0.000000 0.000001 0.000000 0.000000 -0.928110
    20 10.127058 0.000000 0.000001 1.569752 0.000000 -0.069778
    21 1.537458 0.109715 1.664489 -0.233165 -0.412999 0.435664
    22 0.928313 0.000000 0.000002 0.000000 0.000000 0.000000
    23 0.928311 0.000000 0.000001 0.000000 0.000000 0.000000
    24 2.686395 -0.427337 0.044204 0.001045 0.043611 0.000046
    25 1.435260 0.000000 0.000001 0.000000 0.000000 1.098945
    26 1.482593 0.000000 -0.000001 0.000000 0.000000 1.308248
    27 2.046984 0.000001 0.000000 0.157425 0.043046 -0.031213
    28 -0.000005 0.000007 3.713254 -0.036972 -3.087732 -0.012756
    29 18.045723 0.000000 0.000000 0.000000 0.000000 -0.796274
    30 17.597597 0.000000 0.000000 -0.044760 -0.091461 -0.564982
    31 0.000005 -0.000003 -3.713254 0.182817 3.030733 0.244896
    32 18.045721 0.000000 0.000000 0.000000 0.000000 -0.804606
    33 17.597597 0.000000 0.000000 -0.030434 0.056871 -0.446491
  time 2
    0 0.243160 3.394786 6.282917 0.000000 -1.020407 -1.571017
    1 4.246219 -0.328135 0.000000 -1.570795 -1.570787 0.000000
    2 1.293670 0.684478 -0.000001 -0.068595 -0.012645 -0.181930
    3 5.309685 -0.003834 0.000000 0.000000 0.000000 -0.270348
    4 4.826790 -0.004591 0.000000 -0.077022 -0.014885 -0.191303
    5 5.792767 -0.005304 0.000000 0.000000 0.000000 -0.200607
    6 6.662322 -0.001452 0.000000 0.000000 -0.000001 -0.235481
    7 -3.346476 -0.858249 4.339626 -0.000100 -1.370787 -2.906962
    8 4.827512 0.000000 -0.000002 1.175502 -0.233230 1.270614
    9 11.140032 0.000000 0.000000 0.000000 0.000000 -0.287177
    10 10.314563 -0.000001 0.000001 -1.569942 0.000000 -0.069778
    11 1.646836 0.445664 -1.699647 0.153911 0.442352 0.277231
    12 0.928312 0.000000 0.000000 0.000000 0.000000 0.000000
    13 0.928313 0.000000 -0.000001 0.000000 0.000000 0.000000
    14 2.979373 -0.388274 -0.044205 -0.000805 -0.043611 0.000046
    15 1.435262 -0.000001 -0.000001 0.000000 0.000000 0.793619
    16 1.482593 -0.000001 0.000001 0.000000 0.000000 1.465220
    17 -3.088656 -0.795712 -4.140396 0.000026 1.370769 -2.906983
    18 4.972047 0.000000 0.000000 -1.265953 0.301822 1.062905
    19 11.585358 0.000000 0.000001 0.000000 0.000000 -0.566187
    20 10.127058 0.000000 0.000001 1.569752 0.000000 -0.069778
    21 1.537458 0.109715 1.664489 -0.233165 -0.412999 0.435664
    22 0.928313 0.000000 0.000002 0.000000 0.000000 0.000000
    23 0.928311 0.000000 0.000001 0.000000 0.000000 0.000000
    24 2.686395 -0.427337 0.044204 0.001045 0.043611 0.000046
    25 1.435260 0.000000 0.000001 0.000000 0.000000 1.098945
    26 1.482593 0.000000 -0.000001 0.000000 0.000000 1.308248
    27 2.046984 0.000001 0.000000 0.109991 0.116185 0.085882
    28 -0.000005 0.000007 3.713254 -0.031507 -3.079487 0.155190
    29 18.045723 0.000000 0.000000 0.000000 0.000000 -0.979313
    30 17.597597 0.000000 0.000000 0.035693 -0.107137 -0.825347
    31 0.000005 -0.000003 -3.713254 0.155502 3.020284 0.402410
    32 18.045721 0.000000 0.000000 0.000000 0.000000 -1.186940
    33 17.597597 0.000000 0.000000 -0.107233 0.058114 -0.546581
  time 3
    0 0.239254 5.582353 6.654022 0.000000 -1.341476 -1.571017
    1 3.523541 -0.261727 0.000000 -1.570795 -1.570787 0.000000
    2 1.293670 0.684478 -0.000001 -0.069017 -0.010176 -0.146188
    3 5.309685 -0.003834 0.000000 0.000000 0.000000 -0.215786
    4 4.826790 -0.004591 0.000000 -0.077652 -0.011409 -0.146743
    5 5.792767 -0.005304 0.000000 0.000000 0.000000 -0.157981
    6 6.662322 -0.001452 0.000000 0.000000 -0.000001 -0.176496
    7 -3.385540 -0.659025 4.339626 -0.000100 -1.370787 -2.965891
    8 4.827512 0.000000 -0.000002 1.126955 0.105647 1.132840
    9 11.140032 0.000000 0.000000 0.000000 0.000000 -0.287177
    10 10.314563 -0.000001 0.000001 -1.569942 0.000000 -0.069778
    11 1.646836 0.445664 -1.699647 0.153911 0.442352 0.277231
    12 0.928312 0.000000 0.000000 0.000000 0.000000 0.000000
    13 0.928313 0.000000 -0.000001 0.000000 0.000000 0.000000
    14 2.979373 -0.388274 -0.044205 -0.000805 -0.043611 0.000046
    15 1.435262 -0.000001 -0.000001 0.000000 0.000000 0.793619
    16 1.482593 -0.000001 0.000001 0.000000 0.000000 1.465220
    17 -3.131626 -0.608207 -4.140396 0.000026 1.370769 -2.965792
    18 4.972047 0.000000 0.000000 -1.210236 -0.062402 0.955817
    19 11.585358 0.000000 0.000001 0.000000 0.000000 -0.566187
    20 10.127058 0.000000 0.000001 1.569752 0.000000 -0.069778
    21 1.537458 0.109715 1.664489 -0.233165 -0.412999 0.435664
    22 0.928313 0.000000 0.000002 0.000000 0.000000 0.000000
    23 0.928311 0.000000 0.000001 0.000000 0.000000 0.000000
    24 2.686395 -0.427337 0.044204 0.001045 0.043611 0.000046
    25 1.435260 0.000000 0.000001 0.000000 0.000000 1.098945
    26 1.482593 0.000000 -0.000001 0.000000 0.000000 1.308248
    27 2.046984 0.000001 0.000000 0.137176 0.085442 0.148110
    28 -0.000005 0.000007 3.713254 -0.029398 -3.074597 0.271179
    29 18.045723 0.000000 0.000000 0.000000 0.000000 -1.069833
    30 17.597597 0.000000 0.000000 0.085384 -0.093356 -1.010294
    31 0.000005 -0.000003 -3.713254 0.140838 3.016929 0.513523
    32 18.045721 0.000000 0.000000 0.000000 0.000000 -1.447733
    33 17.597597 0.000000 0.000000 -0.150783 0.037582 -0.546443
  time 4
    0 0.239254 7.508193 5.298512 0.000000 -1.614750 -1.571017
    1 2.601638 -0.187506 0.000000 -1.570795 -1.570787 0.000000
    2 1.293670 0.684478 -0.000001 -0.069387 -0.007132 -0.102310
    3 5.309685 -0.003834 0.000000 0.000000 0.000000 -0.151437
    4 4.826790 -0.004591 0.000000 -0.078148 -0.007263 -0.093408
    5 5.792767 -0.005304 0.000000 0.000000 0.000000 -0.105991
    6 6.662322 -0.001452 0.000000 0.000000 -0.000001 -0.093131
    7 -3.436323 -0.373860 4.339626 -0.000100 -1.370787 -3.049252
    8 4.827512 0.000000 -0.000002 0.982667 0.473603 0.920720
    9 11.140032 0.000000 0.000000 0.000000 0.000000 -0.287177
    10 10.314563 -0.000001 0.000001 -1.569942 0.000000 -0.069778
    11 1.646836 0.445664 -1.699647 0.153911 0.442352 0.277231
    12 0.928312 0.000000 0.000000 0.000000 0.000000 0.000000
    13 0.928313 0.000000 -0.000001 0.000000 0.000000 0.000000
    14 2.979373 -0.388274 -0.044205 -0.000805 -0.043611 0.000046
    15 1.435262 -0.000001 -0.000001 0.000000 0.000000 0.793619
    16 1.482593 -0.000001 0.000001 0.000000 0.000000 1.465220
    17 -3.166783 -0.346480 -4.140396 0.000026 1.370769 -3.049216
    18 4.972047 0.000000 0.000000 -1.069538 -0.470336 0.778115
    19 11.585358 0.000000 0.000001 0.000000 0.000000 -0.566187
    20 10.127058 0.000000 0.000001 1.569752 0.000000 -0.069778
    21 1.537458 0.109715 1.664489 -0.233165 -0.412999 0.435664
    22 0.928313 0.000000 0.000002 0.000000 0.000000 0.000000
    23 0.928311 0.000000 0.000001 0.000000 0.000000 0.000000
    24 2.686395 -0.427337 0.044204 0.001045 0.043611 0.000046
    25 1.435260 0.000000 0.000001 0.000000 0.000000 1.098945
    26 1.482593 0.000000 -0.000001 0.000000 0.000000 1.308248
    27 2.046984 0.000001 0.000000 0.158330 0.039594 0.212284
    28 -0.000005 0.000007 3.713254 -0.029398 -3.074597 0.271179
    29 18.045723 0.000000 0.000000 0.000000 0.000000 -1.069833
    30 17.597597 0.000000 0.000000 0.072410 -0.071970 -1.399260
    31 0.000005 -0.000003 -3.713254 0.140838 3.016929 0.513523
    32 18.045721 0.000000 0.000000 0.000000 0.000000 -1.651613
    33 17.597597 0.000000 0.000000 -0.092403 0.014190 -0.629720
  time 5
    0 0.239254 9.508254 3.286732 0.000000 -1.814100 -1.571017
    1 1.734424 -0.105472 0.000000 -1.570795 -1.570787 0.000000
    2 1.293670 0.684478 -0.000001 -0.069640 -0.004387 -0.063136
    3 5.309685 -0.003834 0.000000 0.000000 0.000000 -0.094525
    4 4.826790 -0.004591 0.000000 -0.078415 -0.003523 -0.046071
    5 5.792767 -0.005304 0.000000 0.000000 0.000000 -0.059607
    6 6.662322 -0.001452 0.000000 0.000000 -0.000001 -0.015975
    7 -3.448042 -0.108227 4.339626 -0.000100 -1.370787 -3.126482
    8 4.827512 0.000000 -0.000002 0.720797 0.747332 0.609818
    9 11.140032 0.000000 0.000000 0.000000 0.000000 -0.287177
    10 10.314563 -0.000001 0.000001 -1.569942 0.000000 -0.069778
    11 1.646836 0.445664 -1.699647 0.153911 0.442352 0.277231
    12 0.928312 0.000000 0.000000 0.000000 0.000000 0.000000
    13 0.928313 0.000000 -0.000001 0.000000 0.000000 0.000000
    14 2.979373 -0.388274 -0.044205 -0.000805 -0.043611 0.000046
    15 1.435262 -0.000001 -0.000001 0.000000 0.000000 0.793619
    16 1.482593 -0.000001 0.000001 0.000000 0.000000 1.465220
    17 -3.186315 -0.100379 -4.140396 0.000026 1.370769 -3.126415
    18 4.972047 0.000000 0.000000 -0.809904 -0.782012 0.480013
    19 11.585358 0.000000 0.000001 0.000000 0.000000 -0.566187
    20 10.127058 0.000000 0.000001 1.569752 0.000000 -0.069778
    21 1.537458 0.109715 1.664489 -0.233165 -0.412999 0.435664
    22 0.928313 0.000000 0.000002 0.000000 0.000000 0.000000
    23 0.928311 0.000000 0.000001 0.000000 0.000000 0.000000
    24 2.686395 -0.427337 0.044204 0.001045 0.043611 0.000046
    25 1.435260 0.000000 0.000001 0.000000 0.000000 1.098945
    26 1.482593 0.000000 -0.000001 0.000000 0.000000 1.308248
    27 2.046984 0.000001 0.000000 0.164146 -0.004780 0.262772
    28 -0.000005 0.000007 3.713254 -0.029398 -3.074597 0.271179
    29 18.045723 0.000000 0.000000 0.000000 0.000000 -1.069833
    30 17.597597 0.000000 0.000000 0.032779 -0.088385 -1.297709
    31 0.000005 -0.000003 -3.713254 0.140838 3.016929 0.513523
    32 18.045721 0.000000 0.000000 0.000000 0.000000 -1.612254
    33 17.597597 0.000000 0.000000 -0.037211 0.053499 -0.435499
  time 6
    0 0.239254 11.539566 1.099165 0.000000 -1.973636 -1.571017
    1 0.960963 -0.039064 0.000000 -1.570795 -1.570787 0.000000
    2 1.293670 0.684478 -0.000001 -0.069741 -0.002026 -0.029336
    3 5.309685 -0.003834 0.000000 0.000000 0.000000 -0.045667
    4 4.826790 -0.004591 0.000000 -0.078491 -0.000348 -0.005348
    5 5.792767 -0.005304 0.000000 0.000000 0.000000 -0.019535
    6 6.662322 -0.001452 0.000000 0.000000 -0.000001 0.051640
    7 -3.448042 0.126156 4.339626 -0.000100 -1.370787 -3.194034
    8 4.827512 0.000000 -0.000002 0.331938 0.891189 0.181332
    9 11.140032 0.000000 0.000000 0.000000 0.000000 -0.287177
    10 10.314563 -0.000001 0.000001 -1.569942 0.000000 -0.069778
    11 1.646836 0.445664 -1.699647 0.153911 0.442352 0.277231
    12 0.928312 0.000000 0.000000 0.000000 0.000000 0.000000
    13 0.928313 0.000000 -0.000001 0.000000 0.000000 0.000000
    14 2.979373 -0.388274 -0.044205 -0.000805 -0.043611 0.000046
    15 1.435262 -0.000001 -0.000001 0.000000 0.000000 0.793619
    16 1.482593 -0.000001 0.000001 0.000000 0.000000 1.465220
    17 -3.186315 0.110565 -4.140396 0.000026 1.370769 -3.194132
    18 4.972047 0.000000 0.000000 -0.388467 -0.950746 0.018052
    19 11.585358 0.000000 0.000001 0.000000 0.000000 -0.566187
    20 10.127058 0.000000 0.000001 1.569752 0.000000 -0.069778
    21 1.537458 0.109715 1.664489 -0.233165 -0.412999 0.435664
    22 0.928313 0.000000 0.000002 0.000000 0.000000 0.000000
    23 0.928311 0.000000 0.000001 0.000000 0.000000 0.000000
    24 2.686395 -0.427337 0.044204 0.001045 0.043611 0.000046
    25 1.435260 0.000000 0.000001 0.000000 0.000000 1.098945
    26 1.482593 0.000000 -0.000001 0.000000 0.000000 1.308248
    27 2.046984 0.000001 0.000000 0.159105 -0.042721 0.301824
    28 -0.000005 0.000007 3.713254 -0.118944 -3.058107 6.159141
    29 18.045723 0.000000 0.000000 0.000000 0.000000 -0.900931
    30 17.597597 0.000000 0.000000 -0.061789 0.009980 -1.049172
    31 0.000005 -0.000003 -3.713254 0.209461 2.988935 0.330220
    32 18.045721 0.000000 0.000000 0.000000 0.000000 -1.416482
    33 17.597597 0.000000 0.000000 0.010700 0.003815 -0.248806
  time 7
    0 0.235347 13.559159 -1.197780 0.000000 -2.120250 -1.571017
    1 0.242191 0.019532 0.000000 -1.570795 -1.570787 0.000000
    2 1.293670 0.684478 -0.000001 -0.069775 0.000155 0.002405
    3 5.309685 -0.003834 0.000000 0.000000 0.000000 -0.000024
    4 4.826790 -0.004591 0.000000 -0.078453 0.002637 0.032818
    5 5.792767 -0.005304 0.000000 0.000000 0.000000 0.017922
    6 6.662322 -0.001452 0.000000 0.000000 -0.000001 0.115552
    7 -3.436323 0.348819 4.339626 -0.000100 -1.370787 -3.257945
    8 4.827512 0.000000 -0.000002 -0.124522 0.889227 -0.312835
    9 11.140032 0.000000 0.000000 0.000000 0.000000 -0.287177
    10 10.314563 -0.000001 0.000001 -1.569942 0.000000 -0.069778
    11 1.646836 0.445664 -1.699647 0.153911 0.442352 0.277231
    12 0.928312 0.000000 0.000000 0.000000 0.000000 0.000000
    13 0.928313 0.000000 -0.000001 0.000000 0.000000 0.000000
    14 2.979373 -0.388274 -0.044205 -0.000805 -0.043611 0.000046
    15 1.435262 -0.000001 -0.000001 0.000000 0.000000 0.793619
    16 1.482593 -0.000001 0.000001 0.000000 0.000000 1.465220
    17 -3.174596 0.313696 -4.140396 0.000026 1.370769 -3.257921
    18 4.972047 0.000000 0.000000 0.124329 -0.946166 -0.541212
    19 11.585358 0.000000 0.000001 0.000000 0.000000 -0.566187
    20 10.127058 0.000000 0.000001 1.569752 0.000000 -0.069778
    21 1.537458 0.109715 1.664489 -0.233165 -0.412999 0.435664
    22 0.928313 0.000000 0.000002 0.000000 0.000000 0.000000
    23 0.928311 0.000000 0.000001 0.000000 0.000000 0.000000
    24 2.686395 -0.427337 0.044204 0.001045 0.043611 0.000046
    25 1.435260 0.000000 0.000001 0.000000 0.000000 1.098945
    26 1.482593 0.000000 -0.000001 0.000000 0.000000 1.308248
    27 2.046984 0.000001 0.000000 0.146783 -0.075824 0.334610
    28 -0.000005 0.000007 3.713254 -0.210887 -2.994638 5.693936
    29 18.045723 0.000000 0.000000 0.000000 0.000000 -0.698353
    30 17.597597 0.000000 0.000000 0.036478 0.164036 -0.715314
    31 0.000005 -0.000003 -3.713254 0.279330 2.944453 0.132825
    32 18.045721 0.000000 0.000000 0.000000 0.000000 -1.188042
    33 17.597597 0.000000 0.000000 -0.027548 -0.059793 -0.047611
  time 8
    0 0.235347 15.520156 -3.693950 0.000000 -2.249096 -1.571017
    1 -0.503926 0.082034 0.000000 -1.570795 -1.570787 0.000000
    2 1.293670 0.684478 -0.000001 -0.069707 0.002492 0.035686
    3 5.309685 -0.003834 0.000000 0.000000 0.000000 0.047968
    4 4.826790 -0.004591 0.000000 -0.078243 0.005789 0.072858
    5 5.792767 -0.005304 0.000000 0.000000 0.000000 0.057309
    6 6.662322 -0.001452 0.000000 0.000000 -0.000001 0.182939
    7 -3.405072 0.579294 4.339626 -0.000100 -1.370787 -3.325401
    8 4.827512 0.000000 -0.000002 -0.518563 0.737355 -0.750507
    9 11.140032 0.000000 0.000000 0.000000 0.000000 -0.287177
    10 10.314563 -0.000001 0.000001 -1.569942 0.000000 -0.069778
    11 1.646836 0.445664 -1.699647 0.153911 0.442352 0.277231
    12 0.928312 0.000000 0.000000 0.000000 0.000000 0.000000
    13 0.928313 0.000000 -0.000001 0.000000 0.000000 0.000000
    14 2.979373 -0.388274 -0.044205 -0.000805 -0.043611 0.000046
    15 1.435262 -0.000001 -0.000001 0.000000 0.000000 0.793619
    16 1.482593 -0.000001 0.000001 0.000000 0.000000 1.465220
    17 -3.143345 0.532453 -4.140396 0.000026 1.370769 -3.325351
    18 4.972047 0.000000 0.000000 0.524662 -0.770040 -1.001110
    19 11.585358 0.000000 0.000001 0.000000 0.000000 -0.566187
    20 10.127058 0.000000 0.000001 1.569752 0.000000 -0.069778
    21 1.537458 0.109715 1.664489 -0.233165 -0.412999 0.435664
    22 0.928313 0.000000 0.000002 0.000000 0.000000 0.000000
    23 0.928311 0.000000 0.000001 0.000000 0.000000 0.000000
    24 2.686395 -0.427337 0.044204 0.001045 0.043611 0.000046
    25 1.435260 0.000000 0.000001 0.000000 0.000000 1.098945
    26 1.482593 0.000000 -0.000001 0.000000 0.000000 1.308248
    27 2.046984 0.000001 0.000000 0.126793 -0.105947 0.363565
    28 -0.000005 0.000007 3.713254 -0.281354 -2.901064 5.320277
    29 18.045723 0.000000 0.000000 0.000000 0.000000 -0.511687
    30 17.597597 0.000000 0.000000 0.273252 0.140386 -0.373892
    31 0.000005 -0.000003 -3.713254 0.334151 2.890480 6.222067
    32 18.045721 0.000000 0.000000 0.000000 0.000000 -0.965742
    33 17.597597 0.000000 0.000000 -0.126123 -0.064369 0.131230
  time 9
    0 0.235347 17.383494 -6.404970 0.000000 -2.364544 -1.571017
    1 -1.316450 0.156255 0.000000 -1.570795 -1.570787 0.000000
    2 1.293670 0.684478 -0.000001 -0.069572 0.005021 0.071947
    3 5.309685 -0.003834 0.000000 0.000000 0.000000 0.100164
    4 4.826790 -0.004591 0.000000 -0.077957 0.009168 0.116381
    5 5.792767 -0.005304 0.000000 0.000000 0.000000 0.100163
    6 6.662322 -0.001452 0.000000 0.000000 -0.000001 0.256307
    7 -3.358195 0.825396 4.339626 -0.000100 -1.370787 -3.398798
    8 4.827512 0.000000 -0.000002 -0.781389 0.454843 -1.070507
    9 11.140032 0.000000 0.000000 0.000000 0.000000 -0.287177
    10 10.314563 -0.000001 0.000001 -1.569942 0.000000 -0.069778
    11 1.646836 0.445664 -1.699647 0.153911 0.442352 0.277231
    12 0.928312 0.000000 0.000000 0.000000 0.000000 0.000000
    13 0.928313 0.000000 -0.000001 0.000000 0.000000 0.000000
    14 2.979373 -0.388274 -0.044205 -0.000805 -0.043611 0.000046
    15 1.435262 -0.000001 -0.000001 0.000000 0.000000 0.793619
    16 1.482593 -0.000001 0.000001 0.000000 0.000000 1.465220
    17 -3.100375 0.759022 -4.140396 0.000026 1.370769 -3.398718
    18 4.972047 0.000000 0.000000 0.742462 -0.465274 -1.299877
    19 11.585358 0.000000 0.000001 0.000000 0.000000 -0.566187
    20 10.127058 0.000000 0.000001 1.569752 0.000000 -0.069778
    21 1.537458 0.109715 1.664489 -0.233165 -0.412999 0.435664
    22 0.928313 0.000000 0.000002 0.000000 0.000000 0.000000
    23 0.928311 0.000000 0.000001 0.000000 0.000000 0.000000
    24 2.686395 -0.427337 0.044204 0.001045 0.043611 0.000046
    25 1.435260 0.000000 0.000001 0.000000 0.000000 1.098945
    26 1.482593 0.000000 -0.000001 0.000000 0.000000 1.308248
    27 2.046984 0.000001 0.000000 0.099737 -0.131438 0.383152
    28 -0.000005 0.000007 3.713254 -0.401484 -2.826857 5.376546
    29 18.045723 0.000000 0.000000 0.000000 0.000000 -0.405328
    30 17.597597 0.000000 0.000000 0.427595 0.018864 -0.092758
    31 0.000005 -0.000003 -3.713254 0.371530 2.827591 6.011825
    32 18.045721 0.000000 0.000000 0.000000 0.000000 -0.738719
    33 17.597597 0.000000 0.000000 -0.227918 0.012770 0.276676
  time 10
    0 0.235347 19.094484 -8.889421 0.000000 -2.473150 -1.571017
    1 -2.035222 0.218757 0.000000 -1.570795 -1.570787 0.000000
    2 1.293670 0.684478 -0.000001 -0.069370 0.007334 0.105245
    3 5.309685 -0.003834 0.000000 0.000000 0.000000 0.148262
    4 4.826790 -0.004591 0.000000 -0.077480 0.012296 0.156487
    5 5.792767 -0.005304 0.000000 0.000000 0.000000 0.139550
    6 6.662322 -0.001452 0.000000 0.000000 -0.000001 0.322754
    7 -3.295693 1.048059 4.339626 -0.000100 -1.370787 -3.465200
    8 4.827512 0.000000 -0.000002 -0.930221 0.104113 -1.292505
    9 11.140032 0.000000 0.000000 0.000000 0.000000 -0.287177
    10 10.314563 -0.000001 0.000001 -1.569942 0.000000 -0.069778
    11 1.646836 0.445664 -1.699647 0.153911 0.442352 0.277231
    12 0.928312 0.000000 0.000000 0.000000 0.000000 0.000000
    13 0.928313 0.000000 -0.000001 0.000000 0.000000 0.000000
    14 2.979373 -0.388274 -0.044205 -0.000805 -0.043611 0.000046
    15 1.435262 -0.000001 -0.000001 0.000000 0.000000 0.793619
    16 1.482593 -0.000001 0.000001 0.000000 0.000000 1.465220
    17 -3.037873 0.966060 -4.140396 0.000026 1.370769 -3.465190
    18 4.972047 0.000000 0.000000 0.819564 -0.111254 -1.469260
    19 11.585358 0.000000 0.000001 0.000000 0.000000 -0.566187
    20 10.127058 0.000000 0.000001 1.569752 0.000000 -0.069778
    21 1.537458 0.109715 1.664489 -0.233165 -0.412999 0.435664
    22 0.928313 0.000000 0.000002 0.000000 0.000000 0.000000
    23 0.928311 0.000000 0.000001 0.000000 0.000000 0.000000
    24 2.686395 -0.427337 0.044204 0.001045 0.043611 0.000046
    25 1.435260 0.000000 0.000001 0.000000 0.000000 1.098945
    26 1.482593 0.000000 -0.000001 0.000000 0.000000 1.308248
    27 2.046984 0.000001 0.000000 0.075309 -0.146190 0.368188
    28 -0.000005 0.000007 3.713254 -0.496783 -2.802313 5.503655
    29 18.045723 0.000000 0.000000 0.000000 0.000000 -0.354702
    30 17.597597 0.000000 0.000000 0.481416 -0.080977 0.097874
    31 0.000005 -0.000003 -3.713254 0.377664 2.763457 5.765920
    32 18.045721 0.000000 0.000000 0.000000 0.000000 -0.513270
    33 17.597597 0.000000 0.000000 -0.276333 0.137028 0.352610
  time 11
    0 0.235347 20.344522 -10.655100 0.000000 -2.580616 -1.571017
    1 -2.035222 0.218757 0.000000 -1.570795 -1.570787 0.000000
    2 1.293670 0.684478 -0.000001 -0.069370 0.007334 0.105245
    3 5.309685 -0.003834 0.000000 0.000000 0.000000 0.148262
    4 4.826790 -0.004591 0.000000 -0.077480 0.012296 0.156487
    5 5.792767 -0.005304 0.000000 0.000000 0.000000 0.139550
    6 6.662322 -0.001452 0.000000 0.000000 -0.000001 0.322754
    7 -3.295693 1.048059 4.339626 -0.000100 -1.370787 -3.465200
    8 4.827512 0.000000 -0.000002 -1.041506 -0.197756 -1.470052
    9 11.140032 0.000000 0.000000 0.000000 0.000000 -0.287177
    10 10.314563 -0.000001 0.000001 -1.569942 0.000000 -0.069778
    11 1.646836 0.445664 -1.699647 0.153911 0.442352 0.277231
    12 0.928312 0.000000 0.000000 0.000000 0.000000 0.000000
    13 0.928313 0.000000 -0.000001 0.000000 0.000000 0.000000
    14 2.979373 -0.388274 -0.044205 -0.000805 -0.043611 0.000046
    15 1.435262 -0.000001 -0.000001 0.000000 0.000000 0.793619
    16 1.482593 -0.000001 0.000001 0.000000 0.000000 1.465220
    17 -3.037873 0.966060 -4.140396 0.000026 1.370769 -3.465190
    18 4.972047 0.000000 0.000000 0.825192 0.156631 -1.483303
    19 11.585358 0.000000 0.000001 0.000000 0.000000 -0.550259
    20 10.127058 0.000000 0.000001 1.569752 -0.042838 -0.069778
    21 1.537458 0.109715 1.664489 -0.233165 -0.412999 0.435664
    22 0.928313 0.000000 0.000002 0.000000 0.000000 0.000000
    23 0.928311 0.000000 0.000001 0.000000 0.000000 0.000000
    24 2.686395 -0.427337 0.044204 0.001045 0.043611 0.000046
    25 1.435260 0.000000 0.000001 0.000000 0.000000 1.098945
    26 1.482593 0.000000 -0.000001 0.000000 0.000000 1.308248
    27 2.046984 0.000001 0.000000 0.078454 -0.144567 0.346959
    28 -0.000005 0.000007 3.713254 -0.461885 -2.781413 5.298900
    29 18.045723 0.000000 0.000000 0.000000 0.000000 -0.304150
    30 17.597597 0.000000 0.000000 0.457521 -0.175207 0.203827
    31 0.000005 -0.000003 -3.713254 0.317283 2.731916 5.424817
    32 18.045721 0.000000 0.000000 0.000000 0.000000 -0.290734
    33 17.597597 0.000000 0.000000 -0.267777 0.195804 0.280417
  time 12
    0 0.235347 21.133608 -10.912920 0.000000 -2.687228 -1.571017
    1 -2.035222 0.218757 0.000000 -1.570795 -1.570787 0.000000
    2 1.293670 0.684478 -0.000001 -0.069370 0.007334 0.105245
    3 5.309685 -0.003834 0.000000 0.000000 0.000000 0.148262
    4 4.826790 -0.004591 0.000000 -0.077480 0.012296 0.156487
    5 5.792767 -0.005304 0.000000 0.000000 0.000000 0.139550
    6 6.662322 -0.001452 0.000000 0.000000 -0.000001 0.322754
    7 -3.295693 1.048059 4.339626 -0.000100 -1.370787 -3.465200
    8 4.827512 0.000000 -0.000002 -1.228362 -0.662413 -1.639020
    9 11.140032 0.000000 0.000000 0.000000 0.000000 -0.287177
    10 10.314563 -0.000001 0.000001 -1.569942 0.000000 -0.069778
    11 1.646836 0.445664 -1.699647 0.153911 0.442352 0.277231
    12 0.928312 0.000000 0.000000 0.000000 0.000000 0.000000
    13 0.928313 0.000000 -0.000001 0.000000 0.000000 0.000000
    14 2.979373 -0.388274 -0.044205 -0.000805 -0.043611 0.000046
    15 1.435262 -0.000001 -0.000001 0.000000 0.000000 0.793619
    16 1.482593 -0.000001 0.000001 0.000000 0.000000 1.465220
    17 -3.037873 0.966060 -4.140396 0.000026 1.370769 -3.465190
    18 4.972047 0.000000 0.000000 0.876594 0.523747 -1.301541
    19 11.585358 0.000000 0.000001 0.000000 0.000000 -0.515954
    20 10.127058 0.000000 0.000001 1.569752 -0.136078 -0.069778
    21 1.537458 0.109715 1.664489 -0.233165 -0.412999 0.435664
    22 0.928313 0.000000 0.000002 0.000000 0.000000 0.000000
    23 0.928311 0.000000 0.000001 0.000000 0.000000 0.000000
    24 2.686395 -0.427337 0.044204 0.001045 0.043611 0.000046
    25 1.435260 0.000000 0.000001 0.000000 0.000000 1.098945
    26 1.482593 0.000000 -0.000001 0.000000 0.000000 1.308248
    27 2.046984 0.000001 0.000000 0.129895 -0.100961 -0.067102
    28 -0.000005 0.000007 3.713254 -0.385665 -2.777961 5.020237
    29 18.045723 0.000000 0.000000 0.000000 0.000000 -0.265292
    30 17.597597 0.000000 0.000000 0.406791 -0.228413 0.267554
    31 0.000005 -0.000003 -3.713254 0.211473 2.766237 5.024274
    32 18.045721 0.000000 0.000000 0.000000 0.000000 -0.097087
    33 17.597597 0.000000 0.000000 -0.260631 0.144543 0.054511
  time 13
    0 0.235347 21.887538 -10.850418 0.000000 -2.782151 -1.571017
    1 -2.035222 0.218757 0.000000 -1.570795 -1.570787 0.000000
    2 1.293670 0.684478 -0.000001 -0.069370 0.007334 0.105245
    3 5.309685 -0.003834 0.000000 0.000000 0.000000 0.148262
    4 4.826790 -0.004591 0.000000 -0.077480 0.012296 0.156487
    5 5.792767 -0.005304 0.000000 0.000000 0.000000 0.139550
    6 6.662322 -0.001452 0.000000 0.000000 -0.000001 0.322754
    7 -3.295693 1.048059 4.339626 -0.000100 -1.370787 -3.465200
    8 4.827512 0.000000 -0.000002 -1.483935 -1.102766 -1.678619
    9 11.140032 0.000000 0.000000 0.000000 0.000000 -0.287177
    10 10.314563 -0.000001 0.000001 -1.569942 0.000000 -0.069778
    11 1.646836 0.445664 -1.699647 0.153911 0.442352 0.277231
    12 0.928312 0.000000 0.000000 0.000000 0.000000 0.000000
    13 0.928313 0.000000 -0.000001 0.000000 0.000000 0.000000
    14 2.979373 -0.388274 -0.044205 -0.000805 -0.043611 0.000046
    15 1.435262 -0.000001 -0.000001 0.000000 0.000000 0.793619
    16 1.482593 -0.000001 0.000001 0.000000 0.000000 1.465220
    17 -3.037873 0.966060 -4.140396 0.000026 1.370769 -3.465190
    18 4.972047 0.000000 0.000000 1.036802 0.848761 -0.946268
    19 11.585358 0.000000 0.000001 0.000000 0.000000 -0.474460
    20 10.127058 0.000000 0.000001 1.569752 -0.226670 -0.069778
    21 1.537458 0.109715 1.664489 -0.233165 -0.412999 0.435664
    22 0.928313 0.000000 0.000002 0.000000 0.000000 0.000000
    23 0.928311 0.000000 0.000001 0.000000 0.000000 0.000000
    24 2.686395 -0.427337 0.044204 0.001045 0.043611 0.000046
    25 1.435260 0.000000 0.000001 0.000000 0.000000 1.098945
    26 1.482593 0.000000 -0.000001 0.000000 0.000000 1.308248
    27 2.046984 0.000001 0.000000 0.159536 -0.039358 -0.484022
    28 -0.000005 0.000007 3.713254 -0.315198 -2.767223 4.781356
    29 18.045723 0.000000 0.000000 0.000000 0.000000 -0.241238
    30 17.597597 0.000000 0.000000 0.370860 -0.252482 0.250224
    31 0.000005 -0.000003 -3.713254 0.134800 2.803625 4.719026
    32 18.045721 0.000000 0.000000 0.000000 0.000000 0.018629
    33 17.597597 0.000000 0.000000 -0.262677 0.097620 -0.159340
  time 14
    0 0.235347 22.645373 -14.377869 0.000000 -2.782151 -1.571017
    1 -2.363357 0.273446 0.000000 -1.570795 -1.570787 0.000000
    2 1.293670 0.684478 -0.000001 -0.069370 0.007334 0.105245
    3 5.309685 -0.003834 0.000000 0.000000 0.000000 0.148262
    4 4.826790 -0.004591 0.000000 -0.076507 0.017414 0.222499
    5 5.792767 -0.005304 0.000000 0.000000 0.000000 0.302808
    6 6.662322 -0.001452 0.000000 0.000000 -0.000001 0.322754
    7 -3.295693 1.048059 4.339626 -0.000100 -1.370787 -3.465200
    8 4.827512 0.000000 -0.000002 -1.494457 -1.124767 -1.752012
    9 11.140032 0.000000 0.000000 0.000000 0.000000 -0.287177
    10 10.314563 -0.000001 0.000001 -1.569942 0.000000 -0.069778
    11 1.646836 0.445664 -1.699647 0.153911 0.442352 0.277231
    12 0.928312 0.000000 0.000000 0.000000 0.000000 0.000000
    13 0.928313 0.000000 -0.000001 0.000000 0.000000 0.000000
    14 2.979373 -0.388274 -0.044205 -0.000805 -0.043611 0.000046
    15 1.435262 -0.000001 -0.000001 0.000000 0.000000 0.793619
    16 1.482593 -0.000001 0.000001 0.000000 0.000000 1.465220
    17 -3.037873 0.966060 -4.140396 0.000026 1.370769 -3.465190
    18 4.972047 0.000000 0.000000 1.040178 1.099371 -0.738815
    19 11.585358 0.000000 0.000001 0.000000 0.000000 -0.438766
    20 10.127058 0.000000 0.000001 1.569752 -0.138442 -0.069778
    21 1.537458 0.109715 1.664489 -0.233165 -0.412999 0.435664
    22 0.928313 0.000000 0.000002 0.000000 0.000000 0.000000
    23 0.928311 0.000000 0.000001 0.000000 0.000000 0.000000
    24 2.686395 -0.427337 0.044204 0.001045 0.043611 0.000046
    25 1.435260 0.000000 0.000001 0.000000 0.000000 1.098945
    26 1.482593 0.000000 -0.000001 0.000000 0.000000 1.308248
    27 2.046984 0.000001 0.000000 0.059153 -0.153418 0.247504
    28 -0.000005 0.000007 3.713254 -3.383257 -0.424720 1.370110
    29 18.045723 0.000000 0.000000 0.000000 0.000000 -0.241238
    30 17.597597 0.000000 0.000000 0.400634 -0.228635 -0.009224
    31 0.000005 -0.000003 -3.713254 3.207596 0.336106 1.276739
    32 18.045721 0.000000 0.000000 0.000000 0.000000 0.018629
    33 17.597597 0.000000 0.000000 -0.284050 0.059948 -0.443166
  time 15
    0 0.235347 22.852411 -15.936511 0.000000 -2.782151 -1.571017
    1 -2.734462 0.335948 0.000000 -1.570795 -1.570787 0.000000
    2 1.293670 0.684478 -0.000001 -0.069370 0.007334 0.105245
    3 5.309685 -0.003834 0.000000 0.000000 0.000000 0.148262
    4 4.826790 -0.004591 0.000000 -0.074638 0.024317 0.313515
    5 5.792767 -0.005304 0.000000 0.000000 0.000000 0.528894
    6 6.662322 -0.001452 0.000000 0.000000 -0.000001 0.322754
    7 -3.295693 1.048059 4.339626 -0.000100 -1.370787 -3.465200
    8 4.827512 0.000000 -0.000002 -1.128796 -1.393038 -2.148958
    9 11.140032 0.000000 0.000000 0.000000 0.000000 -0.287177
    10 10.314563 -0.000001 0.000001 -1.569942 0.000000 -0.069778
    11 1.646836 0.445664 -1.699647 0.153911 0.442352 0.277231
    12 0.928312 0.000000 0.000000 0.000000 0.000000 0.000000
    13 0.928313 0.000000 -0.000001 0.000000 0.000000 0.000000
    14 2.979373 -0.388274 -0.044205 -0.000805 -0.043611 0.000046
    15 1.435262 -0.000001 -0.000001 0.000000 0.000000 0.793619
    16 1.482593 -0.000001 0.000001 0.000000 0.000000 1.465220
    17 -3.037873 0.966060 -4.140396 0.000026 1.370769 -3.465190
    18 4.972047 0.000000 0.000000 1.746482 1.299682 -0.393193
    19 11.585358 0.000000 0.000001 0.000000 0.000000 -0.409198
    20 10.127058 0.000000 0.000001 1.569752 0.000000 -0.069778
    21 1.537458 0.109715 1.664489 -0.233165 -0.412999 0.435664
    22 0.928313 0.000000 0.000002 0.000000 0.000000 0.000000
    23 0.928311 0.000000 0.000001 0.000000 0.000000 0.000000
    24 2.686395 -0.427337 0.044204 0.001045 0.043611 0.000046
    25 1.435260 0.000000 0.000001 0.000000 0.000000 1.098945
    26 1.482593 0.000000 -0.000001 0.000000 0.000000 1.308248
    27 2.046984 0.000001 0.000000 0.007066 -0.164187 0.256385
    28 -0.000005 0.000007 3.713254 -3.283835 -0.477738 1.074767
    29 18.045723 0.000000 0.000000 0.000000 0.000000 -0.241238
    30 17.597597 0.000000 0.000000 0.429420 -0.218151 -0.286415
    31 0.000005 -0.000003 -3.713254 3.132168 0.336969 0.989227
    32 18.045721 0.000000 0.000000 0.000000 0.000000 0.018629
    33 17.597597 0.000000 0.000000 -0.297303 0.043578 -0.714983
  time 16
    0 0.235347 22.965696 -17.163111 0.000000 -2.782151 -1.571017
    1 -2.906343 0.359386 0.000000 -1.570795 -1.570787 0.000000
    2 1.293670 0.684478 -0.000001 -0.069370 0.007334 0.105245
    3 5.309685 -0.003834 0.000000 0.000000 0.000000 0.148262
    4 4.826790 -0.004591 0.000000 -0.073284 0.028128 0.365086
    5 5.792767 -0.005304 0.000000 0.000000 0.000000 0.672157
    6 6.662322 -0.001452 0.000000 0.000000 -0.000001 0.322754
    7 -3.295693 1.048059 4.339626 -0.000100 -1.370787 -3.465200
    8 4.827512 0.000000 -0.000002 0.225914 -1.465861 2.770879
    9 11.140032 0.000000 0.000000 0.000000 0.000000 -0.287177
    10 10.314563 -0.000001 0.000001 -1.569942 0.000000 -0.069778
    11 1.646836 0.445664 -1.699647 0.153911 0.442352 0.277231
    12 0.928312 0.000000 0.000000 0.000000 0.000000 0.000000
    13 0.928313 0.000000 -0.000001 0.000000 0.000000 0.000000
    14 2.979373 -0.388274 -0.044205 -0.000805 -0.043611 0.000046
    15 1.435262 -0.000001 -0.000001 0.000000 0.000000 0.793619
    16 1.482593 -0.000001 0.000001 0.000000 0.000000 1.465220
    17 -3.037873 0.966060 -4.140396 0.000026 1.370769 -3.465190
    18 4.972047 0.000000 0.000000 2.419392 1.366935 0.509031
    19 11.585358 0.000000 0.000001 0.000000 0.000000 -0.448894
    20 10.127058 0.000000 0.000001 1.569752 -0.177308 -0.069778
    21 1.537458 0.109715 1.664489 -0.233165 -0.412999 0.435664
    22 0.928313 0.000000 0.000002 0.000000 0.000000 0.000000
    23 0.928311 0.000000 0.000001 0.000000 0.000000 0.000000
    24 2.686395 -0.427337 0.044204 0.001045 0.043611 0.000046
    25 1.435260 0.000000 0.000001 0.000000 0.000000 1.098945
    26 1.482593 0.000000 -0.000001 0.000000 0.000000 1.308248
    27 2.046984 0.000001 0.000000 -0.018181 -0.163361 0.216663
    28 -0.000005 0.000007 3.713254 -3.195152 -0.494037 0.914587
    29 18.045723 0.000000 0.000000 0.000000 0.000000 -0.241238
    30 17.597597 0.000000 0.000000 0.419056 -0.227847 -0.426753
    31 0.000005 -0.000003 -3.713254 3.082522 0.342146 0.897288
    32 18.045721 0.000000 0.000000 0.000000 0.000000 0.018629
    33 17.597597 0.000000 0.000000 -0.288814 0.062315 -0.801124
  time 17
    0 0.235347 23.106325 -18.225643 0.000000 -2.782151 -1.571017
    1 -2.914155 0.367199 0.000000 -1.570795 -1.570787 0.000000
    2 1.293670 0.684478 -0.000001 -0.069370 0.007334 0.105245
    3 5.309685 -0.003834 0.000000 0.000000 0.000000 0.148262
    4 4.826790 -0.004591 0.000000 -0.073284 0.028140 0.365284
    5 5.792767 -0.005304 0.000000 0.000000 0.000000 0.697778
    6 6.662322 -0.001452 0.000000 0.000000 -0.000001 0.322754
    7 -3.295693 1.048059 4.339626 -0.000100 -1.370787 -3.465200
    8 4.827512 0.000000 -0.000002 0.292956 -1.461939 2.712563
    9 11.140032 0.000000 0.000000 0.000000 0.000000 -0.287177
    10 10.314563 -0.000001 0.000001 -1.569942 0.000000 -0.069778
    11 1.646836 0.445664 -1.699647 0.153911 0.442352 0.277231
    12 0.928312 0.000000 0.000000 0.000000 0.000000 0.000000
    13 0.928313 0.000000 -0.000001 0.000000 0.000000 0.000000
    14 2.979373 -0.388274 -0.044205 -0.000805 -0.043611 0.000046
    15 1.435262 -0.000001 -0.000001 0.000000 0.000000 0.793619
    16 1.482593 -0.000001 0.000001 0.000000 0.000000 1.465220
    17 -3.037873 0.966060 -4.140396 0.000026 1.370769 -3.465190
    18 4.972047 0.000000 0.000000 2.230294 1.297352 0.446735
    19 11.585358 0.000000 0.000001 0.000000 0.000000 -0.487447
    20 10.127058 0.000000 0.000001 1.569752 -0.279721 -0.069778
    21 1.537458 0.109715 1.664489 -0.233165 -0.412999 0.435664
    22 0.928313 0.000000 0.000002 0.000000 0.000000 0.000000
    23 0.928311 0.000000 0.000001 0.000000 0.000000 0.000000
    24 2.686395 -0.427337 0.044204 0.001045 0.043611 0.000046
    25 1.435260 0.000000 0.000001 0.000000 0.000000 1.098945
    26 1.482593 0.000000 -0.000001 0.000000 0.000000 1.308248
    27 2.046984 0.000001 0.000000 -0.014002 -0.163774 0.165507
    28 -0.000005 0.000007 3.713254 -3.148941 -0.484545 0.927144
    29 18.045723 0.000000 0.000000 0.000000 0.000000 -0.241238
    30 17.597597 0.000000 0.000000 0.370860 -0.252482 -0.403830
    31 0.000005 -0.000003 -3.713254 3.068817 0.355855 0.983091
    32 18.045721 0.000000 0.000000 0.000000 0.000000 0.018629
    33 17.597597 0.000000 0.000000 -0.262677 0.097620 -0.717616
  time 18
    0 0.235347 22.813347 -18.991292 0.000000 -2.729131 -1.571017
    1 -3.011815 0.398450 0.000000 -1.570795 -1.570787 0.000000
    2 1.293670 0.684478 -0.000001 -0.069236 0.008640 0.124029
    3 5.309685 -0.003834 0.000000 0.000000 0.006064 0.148262
    4 4.826790 -0.004591 0.000000 -0.073875 0.026558 0.343765
    5 5.792767 -0.005304 0.000000 0.000000 0.000000 0.670413
    6 6.662322 -0.001452 0.000000 0.000000 -0.000001 0.216490
    7 -3.385540 0.688673 4.339626 -0.000100 -1.370787 -3.358841
    8 4.827512 0.000000 -0.000002 0.085054 -1.491784 2.895396
    9 11.140032 0.000000 0.000000 0.000000 0.000000 -0.405711
    10 10.314563 -0.000001 0.000001 -1.569942 0.000000 -0.069778
    11 1.646836 0.445664 -1.699647 0.153911 0.442352 0.277231
    12 0.928312 0.000000 0.000000 0.000000 0.000000 0.000000
    13 0.928313 0.000000 -0.000001 0.000000 0.000000 0.000000
    14 2.979373 -0.388274 -0.044205 -0.000805 -0.043611 0.000046
    15 1.435262 -0.000001 -0.000001 0.000000 0.000000 0.793619
    16 1.482593 -0.000001 0.000001 0.000000 0.000000 1.465220
    17 -3.123813 0.637925 -4.140396 0.000026 1.370769 -3.358969
    18 4.972047 0.000000 0.000000 2.130118 1.225038 0.329997
    19 11.585358 0.000000 0.000001 0.000000 0.000000 -0.495534
    20 10.127058 0.000000 0.000001 1.569752 -0.261943 -0.069778
    21 1.537458 0.109715 1.664489 -0.233165 -0.412999 0.435664
    22 0.928313 0.000000 0.000002 0.000000 0.000000 0.000000
    23 0.928311 0.000000 0.000001 0.000000 0.000000 0.000000
    24 2.686395 -0.427337 0.044204 0.001045 0.043611 0.000046
    25 1.435260 0.000000 0.000001 0.000000 0.000000 1.098945
    26 1.482593 0.000000 -0.000001 0.000000 0.000000 1.308248
    27 2.046984 0.000001 0.000000 0.018698 -0.163951 0.073108
    28 -0.000005 0.000007 3.713254 -3.128136 -0.467863 1.036520
    29 18.045723 0.000000 0.000000 0.000000 0.000000 -0.323690
    30 17.597597 0.000000 0.000000 0.390625 -0.186405 -0.420105
    31 0.000005 -0.000003 -3.713254 3.073992 0.372823 1.132839
    32 18.045721 0.000000 0.000000 0.000000 0.000000 0.005955
    33 17.597597 0.000000 0.000000 -0.246573 0.090204 -0.731749
  time 19
    0 0.235347 22.438336 -19.612404 0.000000 -2.668699 -1.571017
    1 -3.105568 0.433607 0.000000 -1.570795 -1.570787 0.000000
    2 1.293670 0.684478 -0.000001 -0.069017 0.010126 0.145541
    3 5.309685 -0.003834 0.000000 0.000000 0.013015 0.148262
    4 4.826790 -0.004591 0.000000 -0.074638 0.024305 0.313471
    5 5.792767 -0.005304 0.000000 0.000000 0.000000 0.623676
    6 6.662322 -0.001452 0.000000 0.000000 -0.000001 0.071890
    7 -3.448042 0.192564 4.339626 -0.000100 -1.370787 -3.214347
    8 4.827512 0.000000 -0.000002 -0.590786 -1.528367 -2.753864
    9 11.140032 0.000000 0.000000 0.000000 0.000000 -0.557573
    10 10.314563 -0.000001 0.000001 -1.569942 0.000000 -0.069778
    11 1.646836 0.445664 -1.699647 0.153911 0.442352 0.277231
    12 0.928312 0.000000 0.000000 0.000000 0.000000 0.000000
    13 0.928313 0.000000 -0.000001 0.000000 0.000000 0.000000
    14 2.979373 -0.388274 -0.044205 -0.000805 -0.043611 0.000046
    15 1.435262 -0.000001 -0.000001 0.000000 0.000000 0.793619
    16 1.482593 -0.000001 0.000001 0.000000 0.000000 1.465220
    17 -3.186315 0.176973 -4.140396 0.000026 1.370769 -3.214246
    18 4.972047 0.000000 0.000000 2.016621 1.150393 0.204407
    19 11.585358 0.000000 0.000001 0.000000 0.000000 -0.503048
    20 10.127058 0.000000 0.000001 1.569752 -0.238585 -0.069778
    21 1.537458 0.109715 1.664489 -0.233165 -0.412999 0.435664
    22 0.928313 0.000000 0.000002 0.000000 0.000000 0.000000
    23 0.928311 0.000000 0.000001 0.000000 0.000000 0.000000
    24 2.686395 -0.427337 0.044204 0.001045 0.043611 0.000046
    25 1.435260 0.000000 0.000001 0.000000 0.000000 1.098945
    26 1.482593 0.000000 -0.000001 0.000000 0.000000 1.308248
    27 2.046984 0.000001 0.000000 0.068847 -0.151294 -0.072516
    28 -0.000005 0.000007 3.713254 -3.113564 -0.450318 1.187498
    29 18.045723 0.000000 0.000000 0.000000 0.000000 -0.418207
    30 17.597597 0.000000 0.000000 0.401647 -0.115874 -0.415337
    31 0.000005 -0.000003 -3.713254 3.088560 0.391134 1.317963
    32 18.045721 0.000000 0.000000 0.000000 0.000000 -0.008293
    33 17.597597 0.000000 0.000000 -0.228086 0.086338 -0.733597
  time 20
    0 0.235347 22.075043 -20.178828 0.000000 -2.609217 -1.571017
    1 -3.187601 0.464858 0.000000 -1.570795 -1.570787 0.000000
    2 1.293670 0.684478 -0.000001 -0.068798 0.011564 0.166702
    3 5.309685 -0.003834 0.000000 0.000000 0.019858 0.148262
    4 4.826790 -0.004591 0.000000 -0.075382 0.021884 0.281148
    5 5.792767 -0.005304 0.000000 0.000000 0.000000 0.570980
    6 6.662322 -0.001452 0.000000 0.000000 -0.000001 -0.058412
    7 -3.444135 -0.256669 4.339626 -0.000100 -1.370787 -3.083939
    8 4.827512 0.000000 -0.000002 -1.550339 -1.478823 -1.809721
    9 11.140032 0.000000 0.000000 0.000000 0.000000 -0.719652
    10 10.314563 -0.000001 0.000001 -1.569942 0.000000 -0.069778
    11 1.646836 0.445664 -1.699647 0.153911 0.442352 0.277231
    12 0.928312 0.000000 0.000000 0.000000 0.000000 0.000000
    13 0.928313 0.000000 -0.000001 0.000000 0.000000 0.000000
    14 2.979373 -0.388274 -0.044205 -0.000805 -0.043611 0.000046
    15 1.435262 -0.000001 -0.000001 0.000000 0.000000 0.793619
    16 1.482593 -0.000001 0.000001 0.000000 0.000000 1.465220
    17 -3.182409 -0.237102 -4.140396 0.000026 1.370769 -3.084080
    18 4.972047 0.000000 0.000000 1.920947 1.081292 0.105706
    19 11.585358 0.000000 0.000001 0.000000 0.000000 -0.509338
    20 10.127058 0.000000 0.000001 1.569752 -0.216268 -0.069778
    21 1.537458 0.109715 1.664489 -0.233165 -0.412999 0.435664
    22 0.928313 0.000000 0.000002 0.000000 0.000000 0.000000
    23 0.928311 0.000000 0.000001 0.000000 0.000000 0.000000
    24 2.686395 -0.427337 0.044204 0.001045 0.043611 0.000046
    25 1.435260 0.000000 0.000001 0.000000 0.000000 1.098945
    26 1.482593 0.000000 -0.000001 0.000000 0.000000 1.308248
    27 2.046984 0.000001 0.000000 0.113265 -0.123767 -0.223371
    28 -0.000005 0.000007 3.713254 -3.101388 -0.434307 1.346720
    29 18.045723 0.000000 0.000000 0.000000 0.000000 -0.511762
    30 17.597597 0.000000 0.000000 0.400760 -0.050043 -0.403509
    31 0.000005 -0.000003 -3.713254 3.108495 0.405993 1.505771
    32 18.045721 0.000000 0.000000 0.000000 0.000000 -0.022147
    33 17.597597 0.000000 0.000000 -0.210270 0.086200 -0.730040
  time 21
    0 0.235347 21.793785 -20.772596 0.000000 -2.553441 -1.571017
    1 -3.254010 0.496109 0.000000 -1.570795 -1.570787 0.000000
    2 1.293670 0.684478 -0.000001 -0.068562 0.012930 0.186473
    3 5.309685 -0.003834 0.000000 0.000000 0.026258 0.148262
    4 4.826790 -0.004591 0.000000 -0.075992 0.019487 0.249597
    5 5.792767 -0.005304 0.000000 0.000000 0.000000 0.518284
    6 6.662322 -0.001452 0.000000 0.000000 -0.000001 -0.144768
    7 -3.405072 -0.553553 4.339626 -0.000100 -1.370787 -2.997606
    8 4.827512 0.000000 -0.000002 -1.567239 -1.351339 -1.762237
    9 11.140032 0.000000 0.000000 0.000000 0.000000 -0.876731
    10 10.314563 -0.000001 0.000001 -1.569942 0.000000 -0.069778
    11 1.646836 0.445664 -1.699647 0.153911 0.442352 0.277231
    12 0.928312 0.000000 0.000000 0.000000 0.000000 0.000000
    13 0.928313 0.000000 -0.000001 0.000000 0.000000 0.000000
    14 2.979373 -0.388274 -0.044205 -0.000805 -0.043611 0.000046
    15 1.435262 -0.000001 -0.000001 0.000000 0.000000 0.793619
    16 1.482593 -0.000001 0.000001 0.000000 0.000000 1.465220
    17 -3.143345 -0.514454 -4.140396 0.000026 1.370769 -2.997591
    18 4.972047 0.000000 0.000000 1.841968 1.020629 0.031696
    19 11.585358 0.000000 0.000001 0.000000 0.000000 -0.514402
    20 10.127058 0.000000 0.000001 1.569752 -0.196599 -0.069778
    21 1.537458 0.109715 1.664489 -0.233165 -0.412999 0.435664
    22 0.928313 0.000000 0.000002 0.000000 0.000000 0.000000
    23 0.928311 0.000000 0.000001 0.000000 0.000000 0.000000
    24 2.686395 -0.427337 0.044204 0.001045 0.043611 0.000046
    25 1.435260 0.000000 0.000001 0.000000 0.000000 1.098945
    26 1.482593 0.000000 -0.000001 0.000000 0.000000 1.308248
    27 2.046984 0.000001 0.000000 0.141786 -0.092936 -0.349043
    28 -0.000005 0.000007 3.713254 -3.089979 -0.420214 1.504217
    29 18.045723 0.000000 0.000000 0.000000 0.000000 -0.601541
    30 17.597597 0.000000 0.000000 0.389535 0.007790 -0.391405
    31 0.000005 -0.000003 -3.713254 6.272821 2.725685 4.825441
    32 18.045721 0.000000 0.000000 0.000000 0.000000 -0.034821
    33 17.597597 0.000000 0.000000 -0.194266 0.088863 -0.724082
  time 22
    0 0.235347 21.688313 -21.428866 0.000000 -2.501561 -1.571017
    1 -3.308699 0.515641 0.000000 -1.570795 -1.570787 0.000000
    2 1.293670 0.684478 -0.000001 -0.068292 0.014225 0.204955
    3 5.309685 -0.003834 0.000000 0.000000 0.032251 0.148262
    4 4.826790 -0.004591 0.000000 -0.076545 0.017186 0.219457
    5 5.792767 -0.005304 0.000000 0.000000 0.000000 0.467083
    6 6.662322 -0.001452 0.000000 0.000000 -0.000001 -0.174417
    7 -3.393353 -0.655118 4.339626 -0.000100 -1.370787 -2.967999
    8 4.827512 0.000000 -0.000002 -1.439692 -1.155380 -1.808595
    9 11.140032 0.000000 0.000000 0.000000 0.000000 -1.019753
    10 10.314563 -0.000001 0.000001 -1.569942 0.000000 -0.069778
    11 1.646836 0.445664 -1.699647 0.153911 0.442352 0.277231
    12 0.928312 0.000000 0.000000 0.000000 0.000000 0.000000
    13 0.928313 0.000000 -0.000001 0.000000 0.000000 0.000000
    14 2.979373 -0.388274 -0.044205 -0.000805 -0.043611 0.000046
    15 1.435262 -0.000001 -0.000001 0.000000 0.000000 0.793619
    16 1.482593 -0.000001 0.000001 0.000000 0.000000 1.465220
    17 -3.131626 -0.600394 -4.140396 0.000026 1.370769 -2.967899
    18 4.972047 0.000000 0.000000 1.774621 0.966794 -0.024809
    19 11.585358 0.000000 0.000001 0.000000 0.000000 -0.518731
    20 10.127058 0.000000 0.000001 1.569752 -0.179672 -0.069778
    21 1.537458 0.109715 1.664489 -0.233165 -0.412999 0.435664
    22 0.928313 0.000000 0.000002 0.000000 0.000000 0.000000
    23 0.928311 0.000000 0.000001 0.000000 0.000000 0.000000
    24 2.686395 -0.427337 0.044204 0.001045 0.043611 0.000046
    25 1.435260 0.000000 0.000001 0.000000 0.000000 1.098945
    26 1.482593 0.000000 -0.000001 0.000000 0.000000 1.308248
    27 2.046984 0.000001 0.000000 0.155917 -0.071133 -0.432805
    28 -0.000005 0.000007 3.713254 -6.220068 -2.733955 4.802733
    29 18.045723 0.000000 0.000000 0.000000 0.000000 -0.689545
    30 17.597597 0.000000 0.000000 0.369694 0.057698 -0.381640
    31 0.000005 -0.000003 -3.713254 0.012793 2.720221 4.992733
    32 18.045721 0.000000 0.000000 0.000000 0.000000 -0.046550
    33 17.597597 0.000000 0.000000 -0.180174 0.093636 -0.717200
  time 23
    0 0.235347 21.719564 -22.104668 0.000000 -2.451771 -1.571017
    1 -3.359482 0.546892 0.000000 -1.570795 -1.570787 0.000000
    2 1.293670 0.684478 -0.000001 -0.068040 0.015399 0.222667
    3 5.309685 -0.003834 0.000000 0.000000 0.037955 0.148262
    4 4.826790 -0.004591 0.000000 -0.077022 0.014921 0.190088
    5 5.792767 -0.005304 0.000000 0.000000 0.000000 0.416775
    6 6.662322 -0.001452 0.000000 0.000000 -0.000001 -0.152401
    7 -3.405072 -0.580897 4.339626 -0.000100 -1.370787 -2.989941
    8 4.827512 0.000000 -0.000002 -1.294208 -0.886341 -1.823412
    9 11.140032 0.000000 0.000000 0.000000 0.000000 -1.154299
    10 10.314563 -0.000001 0.000001 -1.609084 0.000000 -0.069778
    11 1.646836 0.445664 -1.699647 0.153911 0.442352 0.277231
    12 0.928312 0.000000 0.000000 0.000000 0.000000 0.000000
    13 0.928313 0.000000 -0.000001 0.000000 0.000000 0.000000
    14 2.979373 -0.388274 -0.044205 -0.000805 -0.043611 0.000046
    15 1.435262 -0.000001 -0.000001 0.000000 0.000000 0.752789
    16 1.482593 -0.000001 0.000001 0.000000 0.000000 1.347526
    17 -3.143345 -0.533986 -4.140396 0.000026 1.370769 -2.989928
    18 4.972047 0.000000 0.000000 1.715434 0.916415 -0.069335
    19 11.585358 0.000000 0.000001 0.000000 0.000000 -0.522488
    20 10.127058 0.000000 0.000001 1.569752 -0.164163 -0.069778
    21 1.537458 0.109715 1.664489 -0.233165 -0.412999 0.435664
    22 0.928313 0.000000 0.000002 0.000000 0.000000 0.000000
    23 0.928311 0.000000 0.000001 0.000000 0.000000 0.000000
    24 2.686395 -0.427337 0.044204 0.001045 0.043611 0.000046
    25 1.435260 0.000000 0.000001 0.000000 0.000000 1.098945
    26 1.482593 0.000000 -0.000001 0.000000 0.000000 1.308248
    27 2.046984 0.000001 0.000000 0.162595 -0.060453 -0.486699
    28 -0.000005 0.000007 3.713254 -6.207412 -2.745364 4.965310
    29 18.045723 0.000000 0.000000 0.000000 0.000000 -0.779695
    30 17.597597 0.000000 0.000000 0.341669 0.100199 -0.375542
    31 0.000005 -0.000003 -3.713254 0.036466 2.718783 5.155136
    32 18.045721 0.000000 0.000000 0.000000 0.000000 -0.057885
    33 17.597597 0.000000 0.000000 -0.167525 0.100145 -0.709533
  time 24
    0 0.235347 21.844568 -22.796095 0.000000 -2.401791 -1.571017
    1 -3.398545 0.578143 0.000000 -1.570795 -1.570787 0.000000
    2 1.293670 0.684478 -0.000001 -0.067736 0.016634 0.240446
    3 5.309685 -0.003834 0.000000 0.000017 0.043720 0.148262
    4 4.826790 -0.004591 0.000000 -0.077480 0.012608 0.160257
    5 5.792767 -0.005304 0.000000 0.000000 0.000000 0.365283
    6 6.662322 -0.001452 0.000000 0.000000 -0.000001 -0.106318
    7 -3.424603 -0.416830 4.339626 -0.000100 -1.370787 -3.036125
    8 4.827512 0.000000 -0.000002 -1.161958 -0.583876 -1.796984
    9 11.140032 0.000000 0.000000 0.000000 0.000000 -1.281817
    10 10.314563 -0.000001 0.000001 -1.655051 0.000000 -0.069778
    11 1.646836 0.445664 -1.699647 0.153911 0.442352 0.277231
    12 0.928312 0.000000 0.000000 0.000000 0.000000 0.000000
    13 0.928313 0.000000 -0.000001 0.000000 0.000000 0.000000
    14 2.979373 -0.388274 -0.044205 -0.000805 -0.043611 0.000046
    15 1.435262 -0.000001 -0.000001 0.000000 0.000000 0.704854
    16 1.482593 -0.000001 0.000001 0.000000 0.000000 1.209744
    17 -3.162877 -0.385544 -4.140396 0.000026 1.370769 -3.036190
    18 4.972047 0.000000 0.000000 1.661969 0.864590 -0.104410
    19 11.585358 0.000000 0.000001 0.000000 0.000000 -0.526245
    20 10.127058 0.000000 0.000001 1.569752 -0.148466 -0.069778
    21 1.537458 0.109715 1.664489 -0.233165 -0.412999 0.435664
    22 0.928313 0.000000 0.000002 0.000000 0.000000 0.000000
    23 0.928311 0.000000 0.000001 0.000000 0.000000 0.000000
    24 2.686395 -0.427337 0.044204 0.001045 0.043611 0.000046
    25 1.435260 0.000000 0.000001 0.000000 0.000000 1.098945
    26 1.482593 0.000000 -0.000001 0.000000 0.000000 1.308248
    27 2.046984 0.000001 0.000000 0.166817 -0.055555 -0.524778
    28 -0.000005 0.000007 3.713254 -6.192935 -2.755622 5.140541
    29 18.045723 0.000000 0.000000 0.000000 0.000000 -0.876136
    30 17.597597 0.000000 0.000000 0.305509 0.134234 -0.374763
    31 0.000005 -0.000003 -3.713254 0.060714 2.721179 5.321470
    32 18.045721 0.000000 0.000000 0.000000 0.000000 -0.069378
    33 17.597597 0.000000 0.000000 -0.155782 0.108527 -0.701034
  time 25
    0 0.235347 22.000822 -23.620339 0.000000 -2.349056 -1.571017
    1 -3.433703 0.601581 0.000000 -1.570795 -1.570787 0.000000
    2 1.293670 0.684478 -0.000001 -0.067416 0.017904 0.259179
    3 5.309685 -0.003834 0.000000 0.000017 0.049784 0.148262
    4 4.826790 -0.004591 0.000000 -0.077804 0.010139 0.128419
    5 5.792767 -0.005304 0.000000 0.000000 0.000000 0.310075
    6 6.662322 -0.001452 0.000000 0.000000 -0.000001 -0.050523
    7 -3.444135 -0.225418 4.339626 -0.000100 -1.370787 -3.091892
    8 4.827512 0.000000 -0.000002 -1.033693 -0.274247 -1.743434
    9 11.140032 0.000000 0.000000 0.000000 0.000000 -1.400786
    10 10.314563 -0.000001 0.000001 -1.702249 0.000000 -0.069778
    11 1.646836 0.445664 -1.699647 0.153911 0.442352 0.277231
    12 0.928312 0.000000 0.000000 0.000000 0.000000 0.000000
    13 0.928313 0.000000 -0.000001 0.000000 0.000000 0.000000
    14 2.979373 -0.388274 -0.044205 -0.000805 -0.043611 0.000046
    15 1.435262 -0.000001 -0.000001 0.000000 0.000000 0.655623
    16 1.482593 -0.000001 0.000001 0.000000 0.000000 1.067955
    17 -3.182409 -0.213663 -4.140396 0.000026 1.370769 -3.091934
    18 4.972047 0.000000 0.000000 1.613475 0.806256 -0.130566
    19 11.585358 0.000000 0.000001 0.000000 0.000000 -0.530329
    20 10.127058 0.000000 0.000001 1.569752 -0.130877 -0.069778
    21 1.537458 0.109715 1.664489 -0.233165 -0.412999 0.435664
    22 0.928313 0.000000 0.000002 0.000000 0.000000 0.000000
    23 0.928311 0.000000 0.000001 0.000000 0.000000 0.000000
    24 2.686395 -0.427337 0.044204 0.001045 0.043611 0.000046
    25 1.435260 0.000000 0.000001 0.000000 0.000000 1.098945
    26 1.482593 0.000000 -0.000001 0.000000 0.000000 1.308248
    27 2.046984 0.000001 0.000000 0.170264 -0.054139 -0.547223
    28 -0.000005 0.000007 3.713254 -6.175870 -2.764155 5.331588
    29 18.045723 0.000000 0.000000 0.000000 0.000000 -0.981163
    30 17.597597 0.000000 0.000000 0.262533 0.156309 -0.380906
    31 0.000005 -0.000003 -3.713254 0.086591 2.728369 5.501416
    32 18.045721 0.000000 0.000000 0.000000 0.000000 -0.081737
    33 17.597597 0.000000 0.000000 -0.144643 0.119395 -0.691058
  time 26
    0 0.235347 22.129733 -24.569587 0.000000 -2.291284 -1.571017
    1 -3.464953 0.632832 0.000000 -1.570795 -1.570787 0.000000
    2 1.293670 0.684478 -0.000001 -0.067063 0.019258 0.279720
    3 5.309685 -0.003834 0.000000 0.000017 0.056387 0.148262
    4 4.826790 -0.004591 0.000000 -0.078148 0.007383 0.093296
    5 5.792767 -0.005304 0.000000 0.000000 0.000000 0.248887
    6 6.662322 -0.001452 0.000000 0.000000 -0.000001 0.011880
    7 -3.455854 -0.010567 4.339626 -0.000100 -1.370787 -3.154173
    8 4.827512 0.000000 -0.000002 -0.888369 0.043653 -1.662329
    9 11.140032 0.000000 0.000000 0.000000 0.000000 -1.516928
    10 10.314563 -0.000001 0.000001 -1.751154 0.000000 -0.069778
    11 1.646836 0.445664 -1.699647 0.153911 0.442352 0.277231
    12 0.928312 0.000000 0.000000 0.000000 0.000000 0.000000
    13 0.928313 0.000000 -0.000001 0.000000 0.000000 0.000000
    14 2.979373 -0.388274 -0.044205 -0.000805 -0.043611 0.000046
    15 1.435262 -0.000001 -0.000001 0.000000 0.000000 0.604595
    16 1.482593 -0.000001 0.000001 0.000000 0.000000 0.921198
    17 -3.186315 -0.014439 -4.140396 0.000026 1.370769 -3.154287
    18 4.972047 0.000000 0.000000 1.569953 0.737557 -0.146273
    19 11.585358 0.000000 0.000001 0.000000 0.000000 -0.535230
    20 10.127058 0.000000 0.000001 1.569752 -0.110073 -0.069778
    21 1.537458 0.109715 1.664489 -0.233165 -0.412999 0.435664
    22 0.928313 0.000000 0.000002 0.000000 0.000000 0.000000
    23 0.928311 0.000000 0.000001 0.000000 0.000000 0.000000
    24 2.686395 -0.427337 0.044204 0.001045 0.043611 0.000046
    25 1.435260 0.000000 0.000001 0.000000 0.000000 1.098945
    26 1.482593 0.000000 -0.000001 0.000000 0.000000 1.308248
    27 2.046984 0.000001 0.000000 0.173452 -0.054965 -0.557017
    28 -0.000005 0.000007 3.713254 -6.156312 -2.769812 5.531550
    29 18.045723 0.000000 0.000000 0.000000 0.000000 -1.091371
    30 17.597597 0.000000 0.000000 0.218341 0.162190 -0.396815
    31 0.000005 -0.000003 -3.713254 0.113427 2.741791 5.703989
    32 18.045721 0.000000 0.000000 0.000000 0.000000 -0.095906
    33 17.597597 0.000000 0.000000 -0.134242 0.133576 -0.679095
  time 27
    0 0.235347 22.176609 -26.011037 0.000000 -2.227051 -1.571017
    1 -3.496204 0.664083 0.000000 -1.570795 -1.570787 0.000000
    2 1.293670 0.684478 -0.000001 -0.066591 0.020792 0.302555
    3 5.309685 -0.003834 0.000000 0.000017 0.063794 0.148262
    4 4.826790 -0.004591 0.000000 -0.078338 0.004278 0.054028
    5 5.792767 -0.005304 0.000000 0.000000 0.000000 0.180183
    6 6.662322 -0.001452 0.000000 0.000000 -0.000001 0.082599
    7 -3.444135 0.231628 4.339626 -0.000100 -1.370787 -3.225079
    8 4.827512 0.000000 -0.000002 -0.689715 0.374856 -1.530967
    9 11.140032 0.000000 0.000000 0.000000 0.000000 -1.637998
    10 10.314563 -0.000001 0.000001 -1.804134 0.000000 -0.069778
    11 1.646836 0.445664 -1.699647 0.153911 0.442352 0.277231
    12 0.928312 0.000000 0.000000 0.000000 0.000000 0.000000
    13 0.928313 0.000000 -0.000001 0.000000 0.000000 0.000000
    14 2.979373 -0.388274 -0.044205 -0.000805 -0.043611 0.000046
    15 1.435262 -0.000001 -0.000001 0.000000 0.000000 0.549389
    16 1.482593 -0.000001 0.000001 0.000000 0.000000 0.762367
    17 -3.182409 0.216037 -4.140396 0.000026 1.370769 -3.225069
    18 4.972047 0.000000 0.000000 1.530651 0.656967 -0.149401
    19 11.585358 0.000000 0.000001 0.000000 0.000000 -0.541111
    20 10.127058 0.000000 0.000001 1.569752 -0.085297 -0.069778
    21 1.537458 0.109715 1.664489 -0.233165 -0.412999 0.435664
    22 0.928313 0.000000 0.000002 0.000000 0.000000 0.000000
    23 0.928311 0.000000 0.000001 0.000000 0.000000 0.000000
    24 2.686395 -0.427337 0.044204 0.001045 0.043611 0.000046
    25 1.435260 0.000000 0.000001 0.000000 0.000000 1.098945
    26 1.482593 0.000000 -0.000001 0.000000 0.000000 1.308248
    27 2.046984 0.000001 0.000000 0.176769 -0.057473 -0.557808
    28 -0.000005 0.000007 3.713254 -6.136178 -2.770579 5.710903
    29 18.045723 0.000000 0.000000 0.000000 0.000000 -1.192623
    30 17.597597 0.000000 0.000000 0.183575 0.153011 -0.426341
    31 0.000005 -0.000003 -3.713254 0.139975 2.763457 5.934267
    32 18.045721 0.000000 0.000000 0.000000 0.000000 -0.111807
    33 17.597597 0.000000 0.000000 -0.125552 0.151742 -0.664684
  time 28
    0 0.235347 22.090669 -26.589180 0.000000 -2.156928 -1.571017
    1 -3.515736 0.695334 0.000000 -1.570795 -1.570787 0.000000
    2 1.293670 0.684478 -0.000001 -0.066052 0.022446 0.327499
    3 5.309685 -0.003834 0.000000 0.000017 0.071860 0.148262
    4 4.826790 -0.004591 0.000000 -0.078491 0.000923 0.010990
    5 5.792767 -0.005304 0.000000 0.000000 0.000000 0.104918
    6 6.662322 -0.001452 0.000000 0.000000 -0.000001 0.163486
    7 -3.416791 0.508980 4.339626 -0.000100 -1.370787 -3.305950
    8 4.827512 0.000000 -0.000002 -0.359766 0.699067 -1.281587
    9 11.140032 0.000000 0.000000 0.000000 0.000000 -1.769139
    10 10.314563 -0.000001 0.000001 -1.862895 0.000000 -0.069778
    11 1.646836 0.445664 -1.699647 0.153911 0.442352 0.277231
    12 0.928312 0.000000 0.000000 0.000000 0.000000 0.000000
    13 0.928313 0.000000 -0.000001 0.000000 0.000000 0.000000
    14 2.979373 -0.388274 -0.044205 -0.000805 -0.043611 0.000046
    15 1.435262 -0.000001 -0.000001 0.000000 0.000000 0.488038
    16 1.482593 -0.000001 0.000001 0.000000 0.000000 0.585853
    17 -3.151158 0.469951 -4.140396 0.000026 1.370769 -3.306003
    18 4.972047 0.000000 0.000000 1.493225 0.568743 -0.138619
    19 11.585358 0.000000 0.000001 0.000000 0.000000 -0.547809
    20 10.127058 0.000000 0.000001 1.569752 -0.057495 -0.069778
    21 1.537458 0.109715 1.664489 -0.233165 -0.412999 0.435664
    22 0.928313 0.000000 0.000002 0.000000 0.000000 0.000000
    23 0.928311 0.000000 0.000001 0.000000 0.000000 0.000000
    24 2.686395 -0.427337 0.044204 0.001045 0.043611 0.000046
    25 1.435260 0.000000 0.000001 0.000000 0.000000 1.098945
    26 1.482593 0.000000 -0.000001 0.000000 0.000000 1.308248
    27 2.046984 0.000001 0.000000 0.180431 -0.061456 -0.554158
    28 -0.000005 0.000007 3.713254 -6.114415 -2.766935 5.884504
    29 18.045723 0.000000 0.000000 0.000000 0.000000 -1.293283
    30 17.597597 0.000000 0.000000 0.141916 0.127392 -0.503409
    31 0.000005 -0.000003 -3.713254 0.161827 2.794134 6.189279
    32 18.045721 0.000000 0.000000 0.000000 0.000000 -0.129598
    33 17.597597 0.000000 0.000000 -0.120318 0.173773 -0.647826
  time 29
    0 0.235347 22.028167 -27.104820 0.000000 -2.085283 -1.571017
    1 -3.531362 0.726585 0.000000 -1.570795 -1.570787 0.000000
    2 1.293670 0.684478 -0.000001 -0.065446 0.024148 0.352979
    3 5.309685 -0.003834 0.000000 0.000017 0.080069 0.148262
    4 4.826790 -0.004591 0.000000 -0.078453 -0.002505 -0.032754
    5 5.792767 -0.005304 0.000000 0.000000 0.000000 0.028511
    6 6.662322 -0.001452 0.000000 0.000000 -0.000001 0.250554
    7 -3.362102 0.805864 4.339626 -0.000100 -1.370787 -3.392953
    8 4.827512 0.000000 -0.000002 0.230378 0.916344 -0.789759
    9 11.140032 0.000000 0.000000 0.000000 0.000000 -1.907669
    10 10.314563 -0.000001 0.000001 -1.925732 0.000000 -0.069778
    11 1.646836 0.445664 -1.699647 0.153911 0.442352 0.277231
    12 0.928312 0.000000 0.000000 0.000000 0.000000 0.000000
    13 0.928313 0.000000 -0.000001 0.000000 0.000000 0.000000
    14 2.979373 -0.388274 -0.044205 -0.000805 -0.043611 0.000046
    15 1.435262 -0.000001 -0.000001 0.000000 0.000000 0.422760
    16 1.482593 -0.000001 0.000001 0.000000 0.000000 0.397906
    17 -3.100375 0.743397 -4.140396 0.000026 1.370769 -3.393067
    18 4.972047 0.000000 0.000000 1.452798 0.488474 -0.117787
    19 11.585358 0.000000 0.000001 0.000000 0.000000 -0.554343
    20 10.127058 0.000000 0.000001 1.569752 -0.031774 -0.069778
    21 1.537458 0.109715 1.664489 -0.233165 -0.412999 0.435664
    22 0.928313 0.000000 0.000002 0.000000 0.000000 0.000000
    23 0.928311 0.000000 0.000001 0.000000 0.000000 0.000000
    24 2.686395 -0.427337 0.044204 0.001045 0.043611 0.000046
    25 1.435260 0.000000 0.000001 0.000000 0.000000 1.098945
    26 1.482593 0.000000 -0.000001 0.000000 0.000000 1.308248
    27 2.046984 0.000001 0.000000 0.184266 -0.066560 -0.548562
    28 -0.000005 0.000007 3.713254 -6.103485 -2.765401 5.988320
    29 18.045723 0.000000 0.000000 0.000000 0.000000 -1.351903
    30 17.597597 0.000000 0.000000 0.074310 0.078518 -0.646085
    31 0.000005 -0.000003 -3.713254 0.174287 2.830372 0.167817
    32 18.045721 0.000000 0.000000 0.000000 0.000000 -0.148254
    33 17.597597 0.000000 0.000000 -0.120318 0.197875 -0.630366
  time 30
    0 0.235347 22.278175 -28.011098 0.000000 -2.023426 -1.571017
    1 -3.546987 0.750023 0.000000 -1.570795 -1.570787 0.000000
    2 1.293670 0.684478 -0.000001 -0.064906 0.025562 0.375010
    3 5.309685 -0.003834 0.000000 0.000051 0.087212 0.148262
    4 4.826790 -0.004591 0.000000 -0.078262 -0.005369 -0.069574
    5 5.792767 -0.005304 0.000000 0.000000 0.000000 -0.034837
    6 6.662322 -0.001452 0.000000 0.000000 -0.000001 0.322754
    7 -3.295693 1.048059 4.339626 -0.000100 -1.370787 -3.465200
    8 4.827512 0.000000 -0.000002 0.878317 0.901848 -0.241522
    9 11.140032 0.000000 0.000000 0.000000 0.000000 -2.031492
    10 10.314563 -0.000001 0.000001 -1.979849 0.000000 -0.069778
    11 1.646836 0.445664 -1.699647 0.153911 0.442352 0.277231
    12 0.928312 0.000000 0.000000 0.000000 0.000000 0.000000
    13 0.928313 0.000000 -0.000001 0.000000 0.000000 0.000000
    14 2.979373 -0.388274 -0.044205 -0.000805 -0.043611 0.000046
    15 1.435262 -0.000001 -0.000001 0.000000 0.000000 0.366299
    16 1.482593 -0.000001 0.000001 0.000000 0.000000 0.235442
    17 -3.037873 0.966060 -4.140396 0.000026 1.370769 -3.465190
    18 4.972047 0.000000 0.000000 1.458989 0.420980 -0.001116
    19 11.585358 0.000000 0.000001 0.000000 0.000000 -0.566187
    20 10.127058 0.000000 0.000001 1.569752 0.000000 -0.069778
    21 1.537458 0.109715 1.664489 -0.233165 -0.412999 0.435664
    22 0.928313 0.000000 0.000002 0.000000 0.000000 0.000000
    23 0.928311 0.000000 0.000001 0.000000 0.000000 0.000000
    24 2.686395 -0.427337 0.044204 0.001045 0.043611 0.000046
    25 1.435260 0.000000 0.000001 0.000000 0.000000 1.098945
    26 1.482593 0.000000 -0.000001 0.000000 0.000000 1.308248
    27 2.046984 0.000001 0.000000 0.187497 -0.071546 -0.540897
    28 -0.000005 0.000007 3.713254 -6.102335 -2.764826 6.037591
    29 18.045723 0.000000 0.000000 0.000000 0.000000 -1.375143
    30 17.597597 0.000000 0.000000 0.022922 0.029963 -0.759098
    31 0.000005 -0.000003 -3.713254 0.175628 2.861720 0.390426
    32 18.045721 0.000000 0.000000 0.000000 0.000000 -0.164234
    33 17.597597 0.000000 0.000000 -0.125552 0.219827 -0.617018
  time 31
    0 0.235347 22.211766 -27.612648 0.000000 -2.023426 -1.571017
    1 -3.211039 0.726585 0.000000 -1.570795 -1.570787 0.000000
    2 1.293670 0.684478 -0.000001 -0.064906 0.025562 0.375010
    3 5.309685 -0.003834 0.000000 0.000051 0.087212 0.082641
    4 4.826790 -0.004591 0.000000 -0.078262 -0.005369 -0.069574
    5 5.792767 -0.005304 0.000000 0.000000 0.000000 -0.034837
    6 6.662322 -0.001452 0.000000 0.000000 -0.000001 0.322754
    7 -3.295693 1.048059 4.339626 -0.000100 -1.370787 -3.465200
    8 4.827512 0.000000 -0.000002 0.980355 0.920011 -0.152965
    9 11.140032 0.000000 0.000000 0.000000 0.000000 -2.031492
    10 10.314563 -0.000001 0.000001 -1.979849 0.000000 -0.069778
    11 1.646836 0.445664 -1.699647 0.153911 0.442352 0.277231
    12 0.928312 0.000000 0.000000 0.000000 0.000000 0.000000
    13 0.928313 0.000000 -0.000001 0.000000 0.000000 0.000000
    14 2.979373 -0.388274 -0.044205 -0.000805 -0.043611 0.000046
    15 1.435262 -0.000001 -0.000001 0.000000 0.000000 0.366299
    16 1.482593 -0.000001 0.000001 0.000000 0.000000 0.235442
    17 -3.037873 0.966060 -4.140396 0.000026 1.370769 -3.465190
    18 4.972047 0.000000 0.000000 1.389953 0.426284 -0.011565
    19 11.585358 0.000000 0.000001 0.000000 0.000000 -0.777411
    20 10.127058 0.000000 0.000001 1.569752 0.000000 -0.069778
    21 1.537458 0.109715 1.664489 -0.233165 -0.412999 0.435664
    22 0.928313 0.000000 0.000002 0.000000 0.000000 0.000000
    23 0.928311 0.000000 0.000001 0.000000 0.000000 0.000000
    24 2.686395 -0.427337 0.044204 0.001045 0.043611 0.000046
    25 1.435260 0.000000 0.000001 0.000000 0.000000 1.098945
    26 1.482593 0.000000 -0.000001 0.000000 0.000000 1.308248
    27 2.046984 0.000001 0.000000 0.174443 -0.096742 -0.372037
    28 -0.000005 0.000007 3.713254 -6.111922 -2.759170 6.089259
    29 18.045723 0.000000 0.000000 0.000000 0.000000 -1.375143
    30 17.597597 0.000000 0.000000 0.025456 0.020390 -0.710775
    31 0.000005 -0.000003 -3.713254 0.134800 2.863158 0.415352
    32 18.045721 0.000000 0.000000 0.000000 0.000000 -0.164234
    33 17.597597 0.000000 0.000000 -0.091867 0.254521 -0.585194
  time 32
    0 0.235347 22.125826 -27.526708 0.000000 -2.023426 -1.571017
    1 -2.820403 0.695334 0.000000 -1.570795 -1.570787 0.000000
    2 1.293670 0.684478 -0.000001 -0.064906 0.025562 0.375010
    3 5.309685 -0.003834 0.000000 0.000051 0.087212 0.008701
    4 4.826790 -0.004591 0.000000 -0.078262 -0.005369 -0.069574
    5 5.792767 -0.005304 0.000000 0.000000 0.000000 -0.034837
    6 6.662322 -0.001452 0.000000 0.000000 -0.000001 0.322754
    7 -3.295693 1.048059 4.339626 -0.000100 -1.370787 -3.465200
    8 4.827512 0.000000 -0.000002 1.100489 0.933911 -0.047858
    9 11.140032 0.000000 0.000000 0.000000 0.000000 -2.031492
    10 10.314563 -0.000001 0.000001 -1.979849 0.000000 -0.069778
    11 1.646836 0.445664 -1.699647 0.153911 0.442352 0.277231
    12 0.928312 0.000000 0.000000 0.000000 0.000000 0.000000
    13 0.928313 0.000000 -0.000001 0.000000 0.000000 0.000000
    14 2.979373 -0.388274 -0.044205 -0.000805 -0.043611 0.000046
    15 1.435262 -0.000001 -0.000001 0.000000 0.000000 0.366299
    16 1.482593 -0.000001 0.000001 0.000000 0.000000 0.235442
    17 -3.037873 0.966060 -4.140396 0.000026 1.370769 -3.465190
    18 4.972047 0.000000 0.000000 1.311913 0.431506 -0.023678
    19 11.585358 0.000000 0.000001 0.000000 0.000000 -0.888985
    20 10.127058 0.000000 0.000001 1.569752 0.000000 -0.069778
    21 1.537458 0.109715 1.664489 -0.233165 -0.412999 0.435664
    22 0.928313 0.000000 0.000002 0.000000 0.000000 0.000000
    23 0.928311 0.000000 0.000001 0.000000 0.000000 0.000000
    24 2.686395 -0.427337 0.044204 0.001045 0.043611 0.000046
    25 1.435260 0.000000 0.000001 0.000000 0.000000 1.098945
    26 1.482593 0.000000 -0.000001 0.000000 0.000000 1.308248
    27 2.046984 0.000001 0.000000 0.152729 -0.125626 -0.159380
    28 -0.000005 0.000007 3.713254 -6.122947 -2.756006 6.093094
    29 18.045723 0.000000 0.000000 0.000000 0.000000 -1.375143
    30 17.597597 0.000000 0.000000 0.022922 0.029963 -0.706787
    31 0.000005 -0.000003 -3.713254 0.194893 2.874566 0.461657
    32 18.045721 0.000000 0.000000 0.000000 0.000000 -0.164234
    33 17.597597 0.000000 0.000000 -0.125552 0.219827 -0.547274
  time 33
    0 0.235347 22.153171 -27.663431 0.000000 -2.023426 -1.571017
    1 -3.007908 0.714866 0.000000 -1.570795 -1.570787 0.000000
    2 1.293670 0.684478 -0.000001 -0.064906 0.025562 0.375010
    3 5.309685 -0.003834 0.000000 0.000051 0.087212 0.044665
    4 4.826790 -0.004591 0.000000 -0.078262 -0.005369 -0.069574
    5 5.792767 -0.005304 0.000000 0.000000 0.000000 -0.034837
    6 6.662322 -0.001452 0.000000 0.000000 -0.000001 0.322754
    7 -3.295693 1.048059 4.339626 -0.000100 -1.370787 -3.465200
    8 4.827512 0.000000 -0.000002 1.041498 0.928112 -0.099502
    9 11.140032 0.000000 0.000000 0.000000 0.000000 -2.031492
    10 10.314563 -0.000001 0.000001 -1.979849 0.000000 -0.069778
    11 1.646836 0.445664 -1.699647 0.153911 0.442352 0.277231
    12 0.928312 0.000000 0.000000 0.000000 0.000000 0.000000
    13 0.928313 0.000000 -0.000001 0.000000 0.000000 0.000000
    14 2.979373 -0.388274 -0.044205 -0.000805 -0.043611 0.000046
    15 1.435262 -0.000001 -0.000001 0.000000 0.000000 0.366299
    16 1.482593 -0.000001 0.000001 0.000000 0.000000 0.235442
    17 -3.037873 0.966060 -4.140396 0.000026 1.370769 -3.465190
    18 4.972047 0.000000 0.000000 1.349901 0.429015 -0.017688
    19 11.585358 0.000000 0.000001 0.000000 0.000000 -0.805754
    20 10.127058 0.000000 0.000001 1.569752 0.000000 -0.069778
    21 1.537458 0.109715 1.664489 -0.233165 -0.412999 0.435664
    22 0.928313 0.000000 0.000002 0.000000 0.000000 0.000000
    23 0.928311 0.000000 0.000001 0.000000 0.000000 0.000000
    24 2.686395 -0.427337 0.044204 0.001045 0.043611 0.000046
    25 1.435260 0.000000 0.000001 0.000000 0.000000 1.098945
    26 1.482593 0.000000 -0.000001 0.000000 0.000000 1.308248
    27 2.046984 0.000001 0.000000 0.163457 -0.112910 -0.258105
    28 -0.000005 0.000007 3.713254 -6.117579 -2.758211 6.078811
    29 18.045723 0.000000 0.000000 0.000000 0.000000 -1.375143
    30 17.597597 0.000000 0.000000 0.022922 0.029963 -0.720266
    31 0.000005 -0.000003 -3.713254 0.191730 2.870252 0.437594
    32 18.045721 0.000000 0.000000 0.000000 0.000000 -0.164234
    33 17.597597 0.000000 0.000000 -0.127968 0.217322 -0.571430
  time 34
    0 0.235347 22.164890 -27.905626 0.000000 -2.023426 -1.571017
    1 -3.320418 0.726585 0.000000 -1.570795 -1.570787 0.000000
    2 1.293670 0.684478 -0.000001 -0.064906 0.025562 0.375010
    3 5.309685 -0.003834 0.000000 0.000051 0.087212 0.104474
    4 4.826790 -0.004591 0.000000 -0.078262 -0.005369 -0.069574
    5 5.792767 -0.005304 0.000000 0.000000 0.000000 -0.034837
    6 6.662322 -0.001452 0.000000 0.000000 -0.000001 0.322754
    7 -3.295693 1.048059 4.339626 -0.000100 -1.370787 -3.465200
    8 4.827512 0.000000 -0.000002 0.945838 0.914639 -0.182946
    9 11.140032 0.000000 0.000000 0.000000 0.000000 -2.031492
    10 10.314563 -0.000001 0.000001 -1.979849 0.000000 -0.069778
    11 1.646836 0.445664 -1.699647 0.153911 0.442352 0.277231
    12 0.928312 0.000000 0.000000 0.000000 0.000000 0.000000
    13 0.928313 0.000000 -0.000001 0.000000 0.000000 0.000000
    14 2.979373 -0.388274 -0.044205 -0.000805 -0.043611 0.000046
    15 1.435262 -0.000001 -0.000001 0.000000 0.000000 0.366299
    16 1.482593 -0.000001 0.000001 0.000000 0.000000 0.235442
    17 -3.037873 0.966060 -4.140396 0.000026 1.370769 -3.465190
    18 4.972047 0.000000 0.000000 1.412934 0.424596 -0.008037
    19 11.585358 0.000000 0.000001 0.000000 0.000000 -0.667388
    20 10.127058 0.000000 0.000001 1.569752 0.000000 -0.069778
    21 1.537458 0.109715 1.664489 -0.233165 -0.412999 0.435664
    22 0.928313 0.000000 0.000002 0.000000 0.000000 0.000000
    23 0.928311 0.000000 0.000001 0.000000 0.000000 0.000000
    24 2.686395 -0.427337 0.044204 0.001045 0.043611 0.000046
    25 1.435260 0.000000 0.000001 0.000000 0.000000 1.098945
    26 1.482593 0.000000 -0.000001 0.000000 0.000000 1.308248
    27 2.046984 0.000001 0.000000 0.178622 -0.089779 -0.421673
    28 -0.000005 0.000007 3.713254 -6.108662 -2.762046 6.054942
    29 18.045723 0.000000 0.000000 0.000000 0.000000 -1.375143
    30 17.597597 0.000000 0.000000 0.022922 0.029963 -0.742685
    31 0.000005 -0.000003 -3.713254 0.182337 2.865171 0.409984
    32 18.045721 0.000000 0.000000 0.000000 0.000000 -0.164234
    33 17.597597 0.000000 0.000000 -0.126626 0.218743 -0.598127
  time 35
    0 0.235347 22.164890 -28.085319 0.000000 -2.023426 -1.571017
    1 -3.546987 0.750023 0.000000 -1.570795 -1.570787 0.000000
    2 1.293670 0.684478 -0.000001 -0.064906 0.025562 0.375010
    3 5.309685 -0.003834 0.000000 0.000051 0.087212 0.148262
    4 4.826790 -0.004591 0.000000 -0.078262 -0.005369 -0.069574
    5 5.792767 -0.005304 0.000000 0.000000 0.000000 -0.034837
    6 6.662322 -0.001452 0.000000 0.000000 -0.000001 0.322754
    7 -3.295693 1.048059 4.339626 -0.000100 -1.370787 -3.465200
    8 4.827512 0.000000 -0.000002 0.878317 0.901848 -0.241522
    9 11.140032 0.000000 0.000000 0.000000 0.000000 -2.031492
    10 10.314563 -0.000001 0.000001 -1.979849 0.000000 -0.069778
    11 1.646836 0.445664 -1.699647 0.153911 0.442352 0.277231
    12 0.928312 0.000000 0.000000 0.000000 0.000000 0.000000
    13 0.928313 0.000000 -0.000001 0.000000 0.000000 0.000000
    14 2.979373 -0.388274 -0.044205 -0.000805 -0.043611 0.000046
    15 1.435262 -0.000001 -0.000001 0.000000 0.000000 0.366299
    16 1.482593 -0.000001 0.000001 0.000000 0.000000 0.235442
    17 -3.037873 0.966060 -4.140396 0.000026 1.370769 -3.465190
    18 4.972047 0.000000 0.000000 1.458989 0.420980 -0.001116
    19 11.585358 0.000000 0.000001 0.000000 0.000000 -0.566187
    20 10.127058 0.000000 0.000001 1.569752 0.000000 -0.069778
    21 1.537458 0.109715 1.664489 -0.233165 -0.412999 0.435664
    22 0.928313 0.000000 0.000002 0.000000 0.000000 0.000000
    23 0.928311 0.000000 0.000001 0.000000 0.000000 0.000000
    24 2.686395 -0.427337 0.044204 0.001045 0.043611 0.000046
    25 1.435260 0.000000 0.000001 0.000000 0.000000 1.098945
    26 1.482593 0.000000 -0.000001 0.000000 0.000000 1.308248
    27 2.046984 0.000001 0.000000 0.187497 -0.071546 -0.540897
    28 -0.000005 0.000007 3.713254 -6.102335 -2.764826 6.037591
    29 18.045723 0.000000 0.000000 0.000000 0.000000 -1.375143
    30 17.597597 0.000000 0.000000 0.022922 0.029963 -0.759098
    31 0.000005 -0.000003 -3.713254 0.175628 2.861720 0.390426
    32 18.045721 0.000000 0.000000 0.000000 0.000000 -0.164234
    33 17.597597 0.000000 0.000000 -0.125552 0.219827 -0.617018
end
