version 1
nodes
  0 "Bip01" -1
  1 "Bip01 Pelvis" 0
  2 "Bip01 Spine" 1
  3 "Bip01 Spine1" 2
  4 "Bip01 Spine2" 3
  5 "Bip01 Spine3" 4
  6 "Bip01 Neck" 5
  7 "Bip01 L Arm" 6
  8 "Bip01 L Arm1" 7
  9 "Bip01 L Arm2" 8
  10 "Bip01 L Hand" 9
  11 "Bip01 L Finger0" 10
  12 "Bip01 L Finger01" 11
  13 "Bip01 L Finger02" 12
  14 "Bip01 L Finger1" 10
  15 "Bip01 L Finger11" 14
  16 "Bip01 L Finger12" 15
  17 "Bip01 R Arm" 6
  18 "Bip01 R Arm1" 17
  19 "Bip01 R Arm2" 18
  20 "Bip01 R Hand" 19
  21 "Bip01 R Finger0" 20
  22 "Bip01 R Finger01" 21
  23 "Bip01 R Finger02" 22
  24 "Bip01 R Finger1" 20
  25 "Bip01 R Finger11" 24
  26 "Bip01 R Finger12" 25
  27 "Bip01 Head" 6
  28 "Bip01 L Leg" 1
  29 "Bip01 L Leg1" 28
  30 "Bip01 L Foot" 29
  31 "Bip01 R Leg" 1
  32 "Bip01 R Leg1" 31
  33 "Bip01 R Foot" 32
end
skeleton
  time 0
    0 0.243160 1.425976 -0.744641 0.000000 -0.235457 -1.571017
    1 2.328192 -0.167974 0.000000 -1.570795 -1.570787 0.000000
    2 1.293670 0.684478 -0.000001 -0.069775 0.000634 0.009520
    3 5.309685 -0.003834 0.000000 0.000000 0.000000 -0.279092
    4 4.826790 -0.004591 0.000000 -0.077919 -0.009480 -0.121696
    5 5.792767 -0.005304 0.000000 0.000000 0.000000 -0.087180
    6 6.662322 -0.001452 0.000000 0.000000 -0.000001 -0.462278
    7 -3.069124 -1.588740 4.339626 -0.000100 -1.370787 -2.680161
    8 4.827512 0.000000 -0.000002 0.766395 0.641934 0.981635
    9 11.140032 0.000000 0.000000 0.000000 0.000000 -0.540112
    10 10.314563 -0.000001 0.000001 -1.569942 0.000000 -0.069778
    11 1.646836 0.445664 -1.699647 0.153911 0.442352 0.277231
    12 0.928312 0.000000 0.000000 0.000000 0.000000 0.000000
    13 0.928313 0.000000 -0.000001 0.000000 0.000000 0.000000
    14 2.979373 -0.388274 -0.044205 -0.000805 -0.043611 0.000046
    15 1.435262 -0.000001 -0.000001 0.000000 0.000000 0.793619
    16 1.482593 -0.000001 0.000001 0.000000 0.000000 1.465220
    17 -2.842554 -1.467608 -4.140396 0.000026 1.370769 -2.680271
    18 4.972047 0.000000 0.000000 -0.767507 -0.680370 0.961275
    19 11.585358 0.000000 0.000001 0.000000 0.000000 -1.290197
    20 10.127058 0.000000 0.000001 1.569752 0.000000 -0.069778
    21 1.537458 0.109715 1.664489 -0.233165 -0.412999 0.435664
    22 0.928313 0.000000 0.000002 0.000000 0.000000 0.000000
    23 0.928311 0.000000 0.000001 0.000000 0.000000 0.000000
    24 2.686395 -0.427337 0.044204 0.001045 0.043611 0.000046
    25 1.435260 0.000000 0.000001 0.000000 0.000000 1.098945
    26 1.482593 0.000000 -0.000001 0.000000 0.000000 1.308248
    27 2.046984 0.000001 0.000000 0.138813 0.085442 0.294098
    28 -0.000005 0.000007 3.713254 -0.042629 -3.081788 5.991195
    29 18.045723 0.000000 0.000000 0.000000 0.000000 -0.875692
    30 17.597597 0.000000 0.000000 -0.089992 -0.030060 0.345907
    31 0.000005 -0.000003 -3.713254 0.227096 3.008396 0.006565
    32 18.045721 0.000000 0.000000 0.000000 0.000000 -0.832551
    33 17.597597 0.000000 0.000000 -0.016543 0.074958 0.579070
  time 1
    0 0.243160 2.410381 -3.061118 0.000000 -0.320023 -1.571017
    1 2.019589 -0.132817 0.000000 -1.570795 -1.570787 0.000000
    2 1.293670 0.684478 -0.000001 -0.069775 0.000634 0.009520
    3 5.309685 -0.003834 0.000000 0.000000 0.000000 -0.260563
    4 4.826790 -0.004591 0.000000 -0.078338 -0.004063 -0.052509
    5 5.792767 -0.005304 0.000000 0.000000 0.000000 -0.078605
    6 6.662322 -0.001452 0.000000 0.000000 -0.000001 -0.462278
    7 -3.069124 -1.588740 4.339626 -0.000100 -1.370787 -2.680161
    8 4.827512 0.000000 -0.000002 0.694251 0.717913 0.916820
    9 11.140032 0.000000 0.000000 0.000000 0.000000 -0.540112
    10 10.314563 -0.000001 0.000001 -1.569942 0.000000 -0.069778
    11 1.646836 0.445664 -1.699647 0.153911 0.442352 0.277231
    12 0.928312 0.000000 0.000000 0.000000 0.000000 0.000000
    13 0.928313 0.000000 -0.000001 0.000000 0.000000 0.000000
    14 2.979373 -0.388274 -0.044205 -0.000805 -0.043611 0.000046
    15 1.435262 -0.000001 -0.000001 0.000000 0.000000 0.793619
    16 1.482593 -0.000001 0.000001 0.000000 0.000000 1.465220
    17 -2.842554 -1.467608 -4.140396 0.000026 1.370769 -2.680271
    18 4.972047 0.000000 0.000000 -0.693688 -0.757023 0.893522
    19 11.585358 0.000000 0.000001 0.000000 0.000000 -1.290197
    20 10.127058 0.000000 0.000001 1.569752 0.000000 -0.069778
    21 1.537458 0.109715 1.664489 -0.233165 -0.412999 0.435664
    22 0.928313 0.000000 0.000002 0.000000 0.000000 0.000000
    23 0.928311 0.000000 0.000001 0.000000 0.000000 0.000000
    24 2.686395 -0.427337 0.044204 0.001045 0.043611 0.000046
    25 1.435260 0.000000 0.000001 0.000000 0.000000 1.098945
    26 1.482593 0.000000 -0.000001 0.000000 0.000000 1.308248
    27 2.046984 0.000001 0.000000 0.148076 0.068714 0.323479
    28 -0.000005 0.000007 3.713254 -0.033616 -3.074118 5.873384
    29 18.045723 0.000000 0.000000 0.000000 0.000000 -1.170123
    30 17.597597 0.000000 0.000000 -0.086849 -0.027796 0.438151
    31 0.000005 -0.000003 -3.713254 0.199685 2.968132 6.174324
    32 18.045721 0.000000 0.000000 0.000000 0.000000 -1.177179
    33 17.597597 0.000000 0.000000 -0.018590 0.071329 0.721699
  time 2
    0 0.243160 3.426037 -4.963520 0.000000 -0.379505 -1.571017
    1 1.437540 -0.062502 0.000000 -1.570795 -1.570787 0.000000
    2 1.293670 0.684478 -0.000001 -0.069775 0.000634 0.009520
    3 5.309685 -0.003834 0.000000 0.000000 0.000000 -0.211741
    4 4.826790 -0.004591 0.000000 -0.078434 0.003152 0.039344
    5 5.792767 -0.005304 0.000000 0.000000 0.000000 -0.054977
    6 6.662322 -0.001452 0.000000 0.000000 -0.000001 -0.462278
    7 -3.069124 -1.588740 4.339626 -0.000100 -1.370787 -2.680161
    8 4.827512 0.000000 -0.000002 0.540397 0.836358 0.775580
    9 11.140032 0.000000 0.000000 0.000000 0.000000 -0.540112
    10 10.314563 -0.000001 0.000001 -1.569942 0.000000 -0.069778
    11 1.646836 0.445664 -1.699647 0.153911 0.442352 0.277231
    12 0.928312 0.000000 0.000000 0.000000 0.000000 0.000000
    13 0.928313 0.000000 -0.000001 0.000000 0.000000 0.000000
    14 2.979373 -0.388274 -0.044205 -0.000805 -0.043611 0.000046
    15 1.435262 -0.000001 -0.000001 0.000000 0.000000 0.793619
    16 1.482593 -0.000001 0.000001 0.000000 0.000000 1.465220
    17 -2.842554 -1.467608 -4.140396 -0.353537 1.357966 -3.026516
    18 4.972047 0.000000 0.000000 -0.391656 -0.937086 0.642741
    19 11.585358 0.000000 0.000001 0.000000 0.000000 -1.290197
    20 10.127058 0.000000 0.000001 1.569752 0.000000 -0.069778
    21 1.537458 0.109715 1.664489 -0.233165 -0.412999 0.435664
    22 0.928313 0.000000 0.000002 0.000000 0.000000 0.000000
    23 0.928311 0.000000 0.000001 0.000000 0.000000 0.000000
    24 2.686395 -0.427337 0.044204 0.001045 0.043611 0.000046
    25 1.435260 0.000000 0.000001 0.000000 0.000000 1.098945
    26 1.482593 0.000000 -0.000001 0.000000 0.000000 1.308248
    27 2.046984 0.000001 0.000000 0.160699 0.031392 0.421839
    28 -0.000005 0.000007 3.713254 -0.024892 -3.070474 5.741003
    29 18.045723 0.000000 0.000000 0.000000 0.000000 -1.394313
    30 17.597597 0.000000 0.000000 -0.085278 -0.023022 0.470886
    31 0.000005 -0.000003 -3.713254 0.170165 2.938509 6.045667
    32 18.045721 0.000000 0.000000 0.000000 0.000000 -1.450252
    33 17.597597 0.000000 0.000000 -0.020905 0.064169 0.807655
  time 3
    0 0.239254 4.437786 -6.553412 0.000000 -0.440507 -1.571017
    1 0.832053 0.000000 0.000000 -1.570795 -1.570787 0.000000
    2 1.293670 0.684478 -0.000001 -0.069775 0.000634 0.009520
    3 5.309685 -0.003834 0.000000 0.000000 0.000000 -0.161911
    4 4.826790 -0.004591 0.000000 -0.077747 0.010499 0.133270
    5 5.792767 -0.005304 0.000000 0.000000 0.000000 -0.030809
    6 6.662322 -0.001452 0.000000 0.000000 -0.000001 -0.462278
    7 -3.069124 -1.588740 4.339626 0.005843 -1.370787 -2.686197
    8 4.827512 0.000000 -0.000002 0.039297 0.976633 0.223964
    9 11.140032 0.000000 0.000000 0.000000 0.000000 -0.540112
    10 10.314563 -0.000001 0.000001 -1.569942 0.000000 -0.069778
    11 1.646836 0.445664 -1.699647 0.153911 0.442352 0.277231
    12 0.928312 0.000000 0.000000 0.000000 0.000000 0.000000
    13 0.928313 0.000000 -0.000001 0.000000 0.000000 0.000000
    14 2.979373 -0.388274 -0.044205 -0.000805 -0.043611 0.000046
    15 1.435262 -0.000001 -0.000001 0.000000 0.000000 0.793619
    16 1.482593 -0.000001 0.000001 0.000000 0.000000 1.465220
    17 -2.842554 -1.467608 -4.140396 -0.669652 1.317794 -3.334258
    18 4.972047 0.000000 0.000000 0.111479 -1.017677 0.199283
    19 11.585358 0.000000 0.000001 0.000000 0.000000 -1.290197
    20 10.127058 0.000000 0.000001 1.569752 0.000000 -0.069778
    21 1.537458 0.109715 1.664489 -0.233165 -0.412999 0.435664
    22 0.928313 0.000000 0.000002 0.000000 0.000000 0.000000
    23 0.928311 0.000000 0.000001 0.000000 0.000000 0.000000
    24 2.686395 -0.427337 0.044204 0.001045 0.043611 0.000046
    25 1.435260 0.000000 0.000001 0.000000 0.000000 1.098945
    26 1.482593 0.000000 -0.000001 0.000000 0.000000 1.308248
    27 2.046984 0.000001 0.000000 0.164017 -0.008763 0.521294
    28 -0.000005 0.000007 3.713254 -0.019140 -3.069707 5.641980
    29 18.045723 0.000000 0.000000 0.000000 0.000000 -1.537014
    30 17.597597 0.000000 0.000000 -0.084544 -0.016795 0.454014
    31 0.000005 -0.000003 -3.713254 0.144959 2.918857 5.944525
    32 18.045721 0.000000 0.000000 0.000000 0.000000 -1.641616
    33 17.597597 0.000000 0.000000 -0.024093 0.053952 0.839155
  time 4
    0 0.239254 5.406566 -8.037832 0.000000 -0.502840 -1.571017
    1 0.218753 0.062502 0.000000 -1.570795 -1.570787 0.000000
    2 1.293670 0.684478 -0.000001 -0.069775 0.000634 0.009520
    3 5.309685 -0.003834 0.000000 0.000000 0.000000 -0.111182
    4 4.826790 -0.004591 0.000000 -0.076431 0.017917 0.229070
    5 5.792767 -0.005304 0.000000 0.000000 0.000000 -0.006226
    6 6.662322 -0.001452 0.000000 0.000000 -0.000001 -0.462278
    7 -3.069124 -1.588740 4.339626 0.012745 -1.370787 -2.692904
    8 4.827512 0.000000 -0.000002 -0.568465 0.886499 -0.436832
    9 11.140032 0.000000 0.000000 0.000000 0.000000 -0.540112
    10 10.314563 -0.000001 0.000001 -1.569942 0.000000 -0.069778
    11 1.646836 0.445664 -1.699647 0.153911 0.442352 0.277231
    12 0.928312 0.000000 0.000000 0.000000 0.000000 0.000000
    13 0.928313 0.000000 -0.000001 0.000000 0.000000 0.000000
    14 2.979373 -0.388274 -0.044205 -0.000805 -0.043611 0.000046
    15 1.435262 -0.000001 -0.000001 0.000000 0.000000 0.793619
    16 1.482593 -0.000001 0.000001 0.000000 0.000000 1.465220
    17 -2.842554 -1.467608 -4.140396 -0.869409 1.266449 -3.526298
    18 4.972047 0.000000 0.000000 0.603077 -0.942309 -0.232262
    19 11.585358 0.000000 0.000001 0.000000 0.000000 -1.290197
    20 10.127058 0.000000 0.000001 1.569752 0.000000 -0.069778
    21 1.537458 0.109715 1.664489 -0.233165 -0.412999 0.435664
    22 0.928313 0.000000 0.000002 0.000000 0.000000 0.000000
    23 0.928311 0.000000 0.000001 0.000000 0.000000 0.000000
    24 2.686395 -0.427337 0.044204 0.001045 0.043611 0.000046
    25 1.435260 0.000000 0.000001 0.000000 0.000000 1.098945
    26 1.482593 0.000000 -0.000001 0.000000 0.000000 1.308248
    27 2.046984 0.000001 0.000000 0.157037 -0.049330 0.622938
    28 -0.000005 0.000007 3.713254 -0.015880 -3.070379 5.572099
    29 18.045723 0.000000 0.000000 0.000000 0.000000 -1.627312
    30 17.597597 0.000000 0.000000 -0.084746 -0.009880 0.412431
    31 0.000005 -0.000003 -3.713254 0.124065 2.905435 5.866679
    32 18.045721 0.000000 0.000000 0.000000 0.000000 -1.777326
    33 17.597597 0.000000 0.000000 -0.027448 0.042355 0.837677
  time 5
    0 0.239254 6.320656 -9.725384 0.000000 -0.573154 -1.571017
    1 -0.449236 0.136723 0.000000 -1.570795 -1.570787 0.000000
    2 1.293670 0.684478 -0.000001 -0.069775 0.000634 0.009520
    3 5.309685 -0.003834 0.000000 0.000000 0.000000 -0.054888
    4 4.826790 -0.004591 0.000000 -0.074066 0.025983 0.336026
    5 5.792767 -0.005304 0.000000 0.000000 0.000000 0.020974
    6 6.662322 -0.001452 0.000000 0.000000 -0.000001 -0.462278
    7 -3.069124 -1.588740 4.339626 0.018688 -1.370757 -2.698749
    8 4.827512 0.000000 -0.000002 -0.921611 0.623600 -0.828232
    9 11.140032 0.000000 0.000000 0.000000 0.000000 -0.540112
    10 10.314563 -0.000001 0.000001 -1.569942 0.000000 -0.069778
    11 1.646836 0.445664 -1.699647 0.153911 0.442352 0.277231
    12 0.928312 0.000000 0.000000 0.000000 0.000000 0.000000
    13 0.928313 0.000000 -0.000001 0.000000 0.000000 0.000000
    14 2.979373 -0.388274 -0.044205 -0.000805 -0.043611 0.000046
    15 1.435262 -0.000001 -0.000001 0.000000 0.000000 0.793619
    16 1.482593 -0.000001 0.000001 0.000000 0.000000 1.465220
    17 -2.842554 -1.467608 -4.140396 -0.991976 1.215945 -3.642192
    18 4.972047 0.000000 0.000000 0.934468 -0.759434 -0.504208
    19 11.585358 0.000000 0.000001 0.000000 0.000000 -1.290197
    20 10.127058 0.000000 0.000001 1.569752 0.000000 -0.069778
    21 1.537458 0.109715 1.664489 -0.233165 -0.412999 0.435664
    22 0.928313 0.000000 0.000002 0.000000 0.000000 0.000000
    23 0.928311 0.000000 0.000001 0.000000 0.000000 0.000000
    24 2.686395 -0.427337 0.044204 0.001045 0.043611 0.000046
    25 1.435260 0.000000 0.000001 0.000000 0.000000 1.098945
    26 1.482593 0.000000 -0.000001 0.000000 0.000000 1.308248
    27 2.046984 0.000001 0.000000 0.137693 -0.090930 0.736810
    28 -0.000005 0.000007 3.713254 -0.014633 -3.071625 5.532222
    29 18.045723 0.000000 0.000000 0.000000 0.000000 -1.691630
    30 17.597597 0.000000 0.000000 -0.085506 -0.002792 0.366721
    31 0.000005 -0.000003 -3.713254 0.106430 2.893931 5.816635
    32 18.045721 0.000000 0.000000 0.000000 0.000000 -1.880683
    33 17.597597 0.000000 0.000000 -0.031876 0.031783 0.823405
  time 6
    0 0.239254 7.137088 -12.334838 0.000000 -0.610496 -1.571017
    1 -0.789091 0.179693 0.000000 -1.570795 -1.570787 0.000000
    2 1.293670 0.684478 -0.000001 -0.069775 0.000634 0.009520
    3 5.309685 -0.003834 0.000000 0.000000 0.000000 -0.026184
    4 4.826790 -0.004591 0.000000 -0.072521 0.030021 0.391389
    5 5.792767 -0.005304 0.000000 0.000000 0.000000 0.034885
    6 6.662322 -0.001452 0.000000 0.000000 -0.000001 -0.462278
    7 -3.069124 -1.588740 4.339626 0.023768 -1.370757 -2.703636
    8 4.827512 0.000000 -0.000002 -1.041904 0.401462 -0.988622
    9 11.140032 0.000000 0.000000 0.000000 0.000000 -0.540112
    10 10.314563 -0.000001 0.000001 -1.569942 0.000000 -0.069778
    11 1.646836 0.445664 -1.699647 0.153911 0.442352 0.277231
    12 0.928312 0.000000 0.000000 0.000000 0.000000 0.000000
    13 0.928313 0.000000 -0.000001 0.000000 0.000000 0.000000
    14 2.979373 -0.388274 -0.044205 -0.000805 -0.043611 0.000046
    15 1.435262 -0.000001 -0.000001 0.000000 0.000000 0.793619
    16 1.482593 -0.000001 0.000001 0.000000 0.000000 1.465220
    17 -2.842554 -1.467608 -4.140396 -1.073943 1.168675 -3.718528
    18 4.972047 0.000000 0.000000 1.065035 -0.611189 -0.586071
    19 11.585358 0.000000 0.000001 0.000000 0.000000 -1.290197
    20 10.127058 0.000000 0.000001 1.569752 0.000000 -0.069778
    21 1.537458 0.109715 1.664489 -0.233165 -0.412999 0.435664
    22 0.928313 0.000000 0.000002 0.000000 0.000000 0.000000
    23 0.928311 0.000000 0.000001 0.000000 0.000000 0.000000
    24 2.686395 -0.427337 0.044204 0.001045 0.043611 0.000046
    25 1.435260 0.000000 0.000001 0.000000 0.000000 1.098945
    26 1.482593 0.000000 -0.000001 0.000000 0.000000 1.308248
    27 2.046984 0.000001 0.000000 0.123519 -0.109694 0.795144
    28 -0.000005 0.000007 3.713254 -6.273182 -3.004704 5.261036
    29 18.045723 0.000000 0.000000 0.000000 0.000000 -1.608956
    30 17.597597 0.000000 0.000000 -0.019953 -0.000135 0.235736
    31 0.000005 -0.000003 -3.713254 0.213486 2.965448 5.570922
    32 18.045721 0.000000 0.000000 0.000000 0.000000 -1.907211
    33 17.597597 0.000000 0.000000 0.003923 0.016419 0.624519
  time 7
    0 0.239254 7.797264 -16.225582 0.000000 -0.746943 -1.571017
    1 -1.421922 0.218757 0.000000 -1.570795 -1.570787 0.000000
    2 1.293670 0.684478 -0.000001 -0.069775 0.000634 0.009520
    3 5.309685 -0.003834 0.000000 0.000000 0.000000 0.091191
    4 4.826790 -0.004591 0.000000 -0.072521 0.030021 0.391389
    5 5.792767 -0.005304 0.000000 0.000000 0.000000 0.034885
    6 6.662322 -0.001452 0.000000 0.000000 -0.000001 -0.124005
    7 -3.416791 -0.479332 4.339626 0.028273 -1.370757 -3.046282
    8 4.827512 0.000000 -0.000002 -1.115005 0.168238 -1.094075
    9 11.140032 0.000000 0.000000 0.000000 0.000000 -0.540112
    10 10.314563 -0.000001 0.000001 -1.569942 0.000000 -0.069778
    11 1.646836 0.445664 -1.699647 0.153911 0.442352 0.277231
    12 0.928312 0.000000 0.000000 0.000000 0.000000 0.000000
    13 0.928313 0.000000 -0.000001 0.000000 0.000000 0.000000
    14 2.979373 -0.388274 -0.044205 -0.000805 -0.043611 0.000046
    15 1.435262 -0.000001 -0.000001 0.000000 0.000000 0.793619
    16 1.482593 -0.000001 0.000001 0.000000 0.000000 1.465220
    17 -3.155064 -0.448046 -4.140396 -1.135561 1.122561 -4.112856
    18 4.972047 0.000000 0.000000 1.173185 -0.446713 -0.642975
    19 11.585358 0.000000 0.000001 0.000000 0.000000 -1.290197
    20 10.127058 0.000000 0.000001 1.569752 0.000000 -0.069778
    21 1.537458 0.109715 1.664489 -0.233165 -0.412999 0.435664
    22 0.928313 0.000000 0.000002 0.000000 0.000000 0.000000
    23 0.928311 0.000000 0.000001 0.000000 0.000000 0.000000
    24 2.686395 -0.427337 0.044204 0.001045 0.043611 0.000046
    25 1.435260 0.000000 0.000001 0.000000 0.000000 1.098945
    26 1.482593 0.000000 -0.000001 0.000000 0.000000 1.308248
    27 2.046984 0.000001 0.000000 0.109732 -0.123531 0.513203
    28 -0.000005 0.000007 3.713254 -6.230422 -2.945837 4.986303
    29 18.045723 0.000000 0.000000 0.000000 0.000000 -1.522729
    30 17.597597 0.000000 0.000000 0.046006 -0.010963 0.109474
    31 0.000005 -0.000003 -3.713254 0.333481 3.011848 5.323962
    32 18.045721 0.000000 0.000000 0.000000 0.000000 -1.925867
    33 17.597597 0.000000 0.000000 0.079984 0.012908 0.437688
  time 8
    0 0.239254 8.301186 -21.663248 0.000000 -0.881300 -1.571017
    1 -1.996159 0.261727 0.000000 -1.570795 -1.570787 0.000000
    2 1.293670 0.684478 -0.000001 -0.069775 0.000634 0.009520
    3 5.309685 -0.003834 0.000000 0.000000 0.000000 0.201659
    4 4.826790 -0.004591 0.000000 -0.072521 0.030021 0.391389
    5 5.792767 -0.005304 0.000000 0.000000 0.000000 0.034885
    6 6.662322 -0.001452 0.000000 0.000000 -0.000001 0.226117
    7 -3.381633 0.727736 4.339626 0.032682 -1.370698 -3.400618
    8 4.827512 0.000000 -0.000002 -1.156856 -0.050830 -1.168248
    9 11.140032 0.000000 0.000000 0.000000 0.000000 -0.540112
    10 10.314563 -0.000001 0.000001 -1.569942 0.000000 -0.069778
    11 1.646836 0.445664 -1.699647 0.153911 0.442352 0.277231
    12 0.928312 0.000000 0.000000 0.000000 0.000000 0.000000
    13 0.928313 0.000000 -0.000001 0.000000 0.000000 0.000000
    14 2.979373 -0.388274 -0.044205 -0.000805 -0.043611 0.000046
    15 1.435262 -0.000001 -0.000001 0.000000 0.000000 0.793619
    16 1.482593 -0.000001 0.000001 0.000000 0.000000 1.465220
    17 -3.119907 0.669176 -4.140396 -1.186384 1.075054 -4.508236
    18 4.972047 0.000000 0.000000 1.251507 -0.283845 -0.665937
    19 11.585358 0.000000 0.000001 0.000000 0.000000 -1.290197
    20 10.127058 0.000000 0.000001 1.569752 0.000000 -0.069778
    21 1.537458 0.109715 1.664489 -0.233165 -0.412999 0.435664
    22 0.928313 0.000000 0.000002 0.000000 0.000000 0.000000
    23 0.928311 0.000000 0.000001 0.000000 0.000000 0.000000
    24 2.686395 -0.427337 0.044204 0.001045 0.043611 0.000046
    25 1.435260 0.000000 0.000001 0.000000 0.000000 1.098945
    26 1.482593 0.000000 -0.000001 0.000000 0.000000 1.308248
    27 2.046984 0.000001 0.000000 0.094007 -0.135303 0.224450
    28 -0.000005 0.000007 3.713254 -6.186895 -2.910268 4.764677
    29 18.045723 0.000000 0.000000 0.000000 0.000000 -1.445383
    30 17.597597 0.000000 0.000000 0.094582 -0.026787 0.001641
    31 0.000005 -0.000003 -3.713254 0.446574 3.019709 5.123212
    32 18.045721 0.000000 0.000000 0.000000 0.000000 -1.939328
    33 17.597597 0.000000 0.000000 0.163226 0.022848 0.292611
  time 9
    0 0.239254 8.691822 -27.511083 0.000000 -0.983255 -1.571017
    1 -2.398515 0.292978 0.000000 -1.570795 -1.570787 0.000000
    2 1.293670 0.684478 -0.000001 -0.069775 0.000634 0.009520
    3 5.309685 -0.003834 0.000000 0.000000 0.000000 0.282700
    4 4.826790 -0.004591 0.000000 -0.072521 0.030021 0.391389
    5 5.792767 -0.005304 0.000000 0.000000 0.000000 0.034885
    6 6.662322 -0.001452 0.000000 0.000000 -0.000001 0.500564
    7 -3.069124 1.606670 4.339626 0.036996 -1.370698 -3.679258
    8 4.827512 0.000000 -0.000002 -1.174553 -0.226920 -1.220672
    9 11.140032 0.000000 0.000000 0.000000 0.000000 -0.540112
    10 10.314563 -0.000001 0.000001 -1.569942 0.000000 -0.069778
    11 1.646836 0.445664 -1.699647 0.153911 0.442352 0.277231
    12 0.928312 0.000000 0.000000 0.000000 0.000000 0.000000
    13 0.928313 0.000000 -0.000001 0.000000 0.000000 0.000000
    14 2.979373 -0.388274 -0.044205 -0.000805 -0.043611 0.000046
    15 1.435262 -0.000001 -0.000001 0.000000 0.000000 0.793619
    16 1.482593 -0.000001 0.000001 0.000000 0.000000 1.465220
    17 -2.834742 1.477794 -4.140396 -1.229755 1.025812 -4.820288
    18 4.972047 0.000000 0.000000 1.301783 -0.150304 -0.658350
    19 11.585358 0.000000 0.000001 0.000000 0.000000 -1.290197
    20 10.127058 0.000000 0.000001 1.569752 0.000000 -0.069778
    21 1.537458 0.109715 1.664489 -0.233165 -0.412999 0.435664
    22 0.928313 0.000000 0.000002 0.000000 0.000000 0.000000
    23 0.928311 0.000000 0.000001 0.000000 0.000000 0.000000
    24 2.686395 -0.427337 0.044204 0.001045 0.043611 0.000046
    25 1.435260 0.000000 0.000001 0.000000 0.000000 1.098945
    26 1.482593 0.000000 -0.000001 0.000000 0.000000 1.308248
    27 2.046984 0.000001 0.000000 0.083667 -0.141174 -0.020264
    28 -0.000005 0.000007 3.713254 -3.005993 -0.250899 1.433377
    29 18.045723 0.000000 0.000000 0.000000 0.000000 -1.364189
    30 17.597597 0.000000 0.000000 0.130590 -0.042340 -0.104907
    31 0.000005 -0.000003 -3.713254 0.563502 2.992962 4.947675
    32 18.045721 0.000000 0.000000 0.000000 0.000000 -1.951608
    33 17.597597 0.000000 0.000000 0.252104 0.043716 0.166887
  time 10
    0 0.239254 9.035583 -31.823714 0.000000 -1.055279 -1.571017
    1 -2.593833 0.304697 0.000000 -1.570795 -1.570787 0.000000
    2 1.293670 0.684478 -0.000001 -0.069775 0.000634 0.009520
    3 5.309685 -0.003834 0.000000 0.000000 0.000000 0.322708
    4 4.826790 -0.004591 0.000000 -0.072521 0.030021 0.391389
    5 5.792767 -0.005304 0.000000 0.000000 0.000000 0.034885
    6 6.662322 -0.001452 0.000000 0.000000 -0.000001 0.716510
    7 -2.651142 2.223876 4.339626 0.040830 -1.370639 -3.898873
    8 4.827512 0.000000 -0.000002 -1.179655 -0.311852 -1.243894
    9 11.140032 0.000000 0.000000 0.000000 0.000000 -0.540112
    10 10.314563 -0.000001 0.000001 -1.569942 0.000000 -0.069778
    11 1.646836 0.445664 -1.699647 0.153911 0.442352 0.277231
    12 0.928312 0.000000 0.000000 0.000000 0.000000 0.000000
    13 0.928313 0.000000 -0.000001 0.000000 0.000000 0.000000
    14 2.979373 -0.388274 -0.044205 -0.000805 -0.043611 0.000046
    15 1.435262 -0.000001 -0.000001 0.000000 0.000000 0.793619
    16 1.482593 -0.000001 0.000001 0.000000 0.000000 1.465220
    17 -2.451918 2.048124 -4.140396 -1.262714 0.981224 -5.064241
    18 4.972047 0.000000 0.000000 1.327577 -0.080320 -0.630064
    19 11.585358 0.000000 0.000001 0.000000 0.000000 -1.290197
    20 10.127058 0.000000 0.000001 1.569752 0.000000 -0.069778
    21 1.537458 0.109715 1.664489 -0.233165 -0.412999 0.435664
    22 0.928313 0.000000 0.000002 0.000000 0.000000 0.000000
    23 0.928311 0.000000 0.000001 0.000000 0.000000 0.000000
    24 2.686395 -0.427337 0.044204 0.001045 0.043611 0.000046
    25 1.435260 0.000000 0.000001 0.000000 0.000000 1.098945
    26 1.482593 0.000000 -0.000001 0.000000 0.000000 1.308248
    27 2.046984 0.000001 0.000000 0.079445 -0.143151 -0.228238
    28 -0.000005 0.000007 3.713254 -2.989599 -0.251954 1.313936
    29 18.045723 0.000000 0.000000 0.000000 0.000000 -1.266416
    30 17.597597 0.000000 0.000000 0.145363 -0.044284 -0.215077
    31 0.000005 -0.000003 -3.713254 0.692889 2.916172 4.822469
    32 18.045721 0.000000 0.000000 0.000000 0.000000 -1.963022
    33 17.597597 0.000000 0.000000 0.333399 0.076043 0.055897
  time 11
    0 0.239254 8.828545 -34.292540 0.000000 -1.085685 -1.571017
    1 -1.464892 0.199225 0.000000 -1.570795 -1.570787 0.000000
    2 1.293670 0.684478 -0.000001 -0.069690 -0.002865 -0.041423
    3 5.309685 -0.003834 0.000000 0.000000 0.000000 0.248203
    4 4.826790 -0.004591 0.000000 -0.075592 0.021141 0.271446
    5 5.792767 -0.005304 0.000000 0.000000 0.000000 0.034885
    6 6.662322 -0.001452 0.000000 0.000000 -0.000001 0.846043
    7 -2.342539 2.544198 4.339626 0.040830 -1.370639 -4.028515
    8 4.827512 0.000000 -0.000002 -1.109664 -0.005891 -1.175180
    9 11.140032 0.000000 0.000000 0.000000 0.000000 -0.551777
    10 10.314563 -0.000001 0.000001 -1.569942 0.000000 -0.069778
    11 1.646836 0.445664 -1.699647 0.153911 0.442352 0.277231
    12 0.928312 0.000000 0.000000 0.000000 0.000000 0.000000
    13 0.928313 0.000000 -0.000001 0.000000 0.000000 0.000000
    14 2.979373 -0.388274 -0.044205 -0.000805 -0.043611 0.000046
    15 1.435262 -0.000001 -0.000001 0.000000 0.000000 0.793619
    16 1.482593 -0.000001 0.000001 0.000000 0.000000 1.465220
    17 -2.162846 2.345008 -4.140396 -1.262714 0.981224 -5.193640
    18 4.972047 0.000000 0.000000 1.217927 -0.337679 -0.549199
    19 11.585358 0.000000 0.000001 0.000000 0.000000 -1.232367
    20 10.127058 0.000000 0.000001 1.569752 0.000000 -0.069778
    21 1.537458 0.109715 1.664489 -0.233165 -0.412999 0.435664
    22 0.928313 0.000000 0.000002 0.000000 0.000000 0.000000
    23 0.928311 0.000000 0.000001 0.000000 0.000000 0.000000
    24 2.686395 -0.427337 0.044204 0.001045 0.043611 0.000046
    25 1.435260 0.000000 0.000001 0.000000 0.000000 1.098945
    26 1.482593 0.000000 -0.000001 0.000000 0.000000 1.308248
    27 2.046984 0.000001 0.000000 0.081642 -0.143151 -0.183529
    28 -0.000005 0.000007 3.713254 -3.055656 -0.209769 1.440470
    29 18.045723 0.000000 0.000000 0.000000 0.000000 -1.136224
    30 17.597597 0.000000 0.000000 0.094734 0.009857 -0.318554
    31 0.000005 -0.000003 -3.713254 0.865884 2.762306 4.881908
    32 18.045721 0.000000 0.000000 0.000000 0.000000 -1.963022
    33 17.597597 0.000000 0.000000 0.345847 0.105569 -0.046317
  time 12
    0 0.239254 8.711354 -35.519140 0.000000 -1.089011 -1.571017
    1 0.789083 0.000000 0.000000 -1.570795 -1.570787 0.000000
    2 1.293670 0.684478 -0.000001 -0.069236 -0.008570 -0.122968
    3 5.309685 -0.003834 0.000000 0.000000 0.000000 0.080433
    4 4.826790 -0.004591 0.000000 -0.078224 0.006508 0.081986
    5 5.792767 -0.005304 0.000000 0.000000 0.000000 0.034885
    6 6.662322 -0.001452 0.000000 0.000000 -0.000001 0.758520
    7 -2.557389 2.337161 4.339626 0.040830 -1.370639 -3.940937
    8 4.827512 0.000000 -0.000002 -0.865889 0.569451 -0.899805
    9 11.140032 0.000000 0.000000 0.000000 0.000000 -0.570035
    10 10.314563 -0.000001 0.000001 -1.569942 0.000000 -0.069778
    11 1.646836 0.445664 -1.699647 0.153911 0.442352 0.277231
    12 0.928312 0.000000 0.000000 0.000000 0.000000 0.000000
    13 0.928313 0.000000 -0.000001 0.000000 0.000000 0.000000
    14 2.979373 -0.388274 -0.044205 -0.000805 -0.043611 0.000046
    15 1.435262 -0.000001 -0.000001 0.000000 0.000000 0.793619
    16 1.482593 -0.000001 0.000001 0.000000 0.000000 1.465220
    17 -2.365977 2.145784 -4.140396 -1.262714 0.981224 -5.106288
    18 4.972047 0.000000 0.000000 0.862805 -0.793502 -0.218619
    19 11.585358 0.000000 0.000001 0.000000 0.000000 -1.137292
    20 10.127058 0.000000 0.000001 1.569752 0.000000 -0.069778
    21 1.537458 0.109715 1.664489 -0.233165 -0.412999 0.435664
    22 0.928313 0.000000 0.000002 0.000000 0.000000 0.000000
    23 0.928311 0.000000 0.000001 0.000000 0.000000 0.000000
    24 2.686395 -0.427337 0.044204 0.001045 0.043611 0.000046
    25 1.435260 0.000000 0.000001 0.000000 0.000000 1.098945
    26 1.482593 0.000000 -0.000001 0.000000 0.000000 1.308248
    27 2.046984 0.000001 0.000000 0.113050 -0.120404 -0.010775
    28 -0.000005 0.000007 3.713254 -0.032754 -3.053505 4.954190
    29 18.045723 0.000000 0.000000 0.000000 0.000000 -0.976722
    30 17.597597 0.000000 0.000000 -0.041644 0.098501 -0.416392
    31 0.000005 -0.000003 -3.713254 1.142197 2.593772 5.196264
    32 18.045721 0.000000 0.000000 0.000000 0.000000 -1.963022
    33 17.597597 0.000000 0.000000 0.276026 0.105549 -0.147192
  time 13
    0 0.239254 8.594163 -35.710552 0.000000 -1.082169 -1.571017
    1 3.054777 -0.207038 0.000000 -1.570795 -1.570787 0.000000
    2 1.293670 0.684478 -0.000001 -0.068141 -0.015030 -0.216718
    3 5.309685 -0.003834 0.000000 0.000000 0.000000 -0.069778
    4 4.826790 -0.004591 0.000000 -0.078129 -0.007418 -0.095657
    5 5.792767 -0.005304 0.000000 0.000000 0.000000 0.034885
    6 6.662322 -0.001452 0.000000 0.000000 -0.000001 0.489969
    7 -3.080843 1.575419 4.339626 0.040830 -1.370639 -3.672454
    8 4.827512 0.000000 -0.000002 -0.039783 0.956679 -0.007566
    9 11.140032 0.000000 0.000000 0.000000 0.000000 -0.594597
    10 10.314563 -0.000001 0.000001 -1.569942 0.000000 -0.069778
    11 1.646836 0.445664 -1.699647 0.153911 0.442352 0.277231
    12 0.928312 0.000000 0.000000 0.000000 0.000000 0.000000
    13 0.928313 0.000000 -0.000001 0.000000 0.000000 0.000000
    14 2.979373 -0.388274 -0.044205 -0.000805 -0.043611 0.000046
    15 1.435262 -0.000001 -0.000001 0.000000 0.000000 0.793619
    16 1.482593 -0.000001 0.000001 0.000000 0.000000 1.465220
    17 -2.854274 1.446543 -4.140396 -1.262714 0.981224 -4.837625
    18 4.972047 0.000000 0.000000 -0.044039 -1.011329 0.695786
    19 11.585358 0.000000 0.000001 0.000000 0.000000 -1.007911
    20 10.127058 0.000000 0.000001 1.569752 0.000000 -0.069778
    21 1.537458 0.109715 1.664489 -0.233165 -0.412999 0.435664
    22 0.928313 0.000000 0.000002 0.000000 0.000000 0.000000
    23 0.928311 0.000000 0.000001 0.000000 0.000000 0.000000
    24 2.686395 -0.427337 0.044204 0.001045 0.043611 0.000046
    25 1.435260 0.000000 0.000001 0.000000 0.000000 1.098945
    26 1.482593 0.000000 -0.000001 0.000000 0.000000 1.308248
    27 2.046984 0.000001 0.000000 0.153246 -0.054670 0.090991
    28 -0.000005 0.000007 3.713254 -0.092004 3.089371 5.311937
    29 18.045723 0.000000 0.000000 0.000000 0.000000 -0.847788
    30 17.597597 0.000000 0.000000 -0.178655 0.144004 -0.466778
    31 0.000005 -0.000003 -3.713254 1.426369 2.531459 5.593068
    32 18.045721 0.000000 0.000000 0.000000 0.000000 -1.963022
    33 17.597597 0.000000 0.000000 0.167688 0.076339 -0.231440
  time 14
    0 0.239254 8.457440 -33.120629 0.000000 -1.076563 -1.571017
    1 4.625137 -0.335948 0.000000 -1.570795 -1.570787 0.000000
    2 1.293670 0.684478 -0.000001 -0.065311 -0.024545 -0.359234
    3 5.309685 -0.003834 0.000000 0.000000 0.000000 -0.069778
    4 4.826790 -0.004591 0.000000 -0.076946 -0.015496 -0.199461
    5 5.792767 -0.005304 0.000000 0.000000 0.000000 -0.004357
    6 6.662322 -0.001452 0.000000 0.000000 -0.000001 0.134492
    7 -3.428510 0.411321 4.339626 0.040830 -1.370639 -3.317065
    8 4.827512 0.000000 -0.000002 0.771098 0.678090 0.903390
    9 11.140032 0.000000 0.000000 0.000000 0.000000 -0.622057
    10 10.314563 -0.000001 0.000001 -1.569942 0.000000 -0.069778
    11 1.646836 0.445664 -1.699647 0.153911 0.442352 0.277231
    12 0.928312 0.000000 0.000000 0.000000 0.000000 0.000000
    13 0.928313 0.000000 -0.000001 0.000000 0.000000 0.000000
    14 2.979373 -0.388274 -0.044205 -0.000805 -0.043611 0.000046
    15 1.435262 -0.000001 -0.000001 0.000000 0.000000 0.793619
    16 1.482593 -0.000001 0.000001 0.000000 0.000000 1.465220
    17 -3.162877 0.376198 -4.140396 -1.262714 0.981224 -4.482088
    18 4.972047 0.000000 0.000000 -0.714042 -0.770361 1.405798
    19 11.585358 0.000000 0.000001 0.000000 0.000000 -0.860561
    20 10.127058 0.000000 0.000001 1.569752 0.000000 -0.069778
    21 1.537458 0.109715 1.664489 -0.233165 -0.412999 0.435664
    22 0.928313 0.000000 0.000002 0.000000 0.000000 0.000000
    23 0.928311 0.000000 0.000001 0.000000 0.000000 0.000000
    24 2.686395 -0.427337 0.044204 0.001045 0.043611 0.000046
    25 1.435260 0.000000 0.000001 0.000000 0.000000 1.098945
    26 1.482593 0.000000 -0.000001 0.000000 0.000000 1.308248
    27 2.046984 0.000001 0.000000 0.154280 0.043695 0.051514
    28 -0.000005 0.000007 3.713254 -0.088648 3.053993 5.486017
    29 18.045723 0.000000 0.000000 0.000000 0.000000 -0.847788
    30 17.597597 0.000000 0.000000 -0.194163 0.158868 -0.292972
    31 0.000005 -0.000003 -3.713254 1.491638 2.531267 5.889496
    32 18.045721 0.000000 0.000000 0.000000 0.000000 -1.963022
    33 17.597597 0.000000 0.000000 -0.090088 0.022217 -0.217214
  time 15
    0 0.239254 8.308998 -30.765088 0.000000 -1.090626 -1.571017
    1 5.351722 -0.398450 0.000000 -1.570795 -1.570787 0.000000
    2 1.293670 0.684478 -0.000001 -0.063273 -0.029375 -0.434384
    3 5.309685 -0.003834 0.000000 0.000000 0.000000 -0.069778
    4 4.826790 -0.004591 0.000000 -0.076355 -0.018229 -0.234760
    5 5.792767 -0.005304 0.000000 0.000000 0.000000 -0.043599
    6 6.662322 -0.001452 0.000000 0.000000 -0.000001 -0.113353
    7 -3.424603 -0.444174 4.339626 0.040830 -1.370639 -3.069278
    8 4.827512 0.000000 -0.000002 0.966086 0.332646 1.191069
    9 11.140032 0.000000 0.000000 0.000000 0.000000 -0.644735
    10 10.314563 -0.000001 0.000001 -1.569942 0.000000 -0.069778
    11 1.646836 0.445664 -1.699647 0.153911 0.442352 0.277231
    12 0.928312 0.000000 0.000000 0.000000 0.000000 0.000000
    13 0.928313 0.000000 -0.000001 0.000000 0.000000 0.000000
    14 2.979373 -0.388274 -0.044205 -0.000805 -0.043611 0.000046
    15 1.435262 -0.000001 -0.000001 0.000000 0.000000 0.793619
    16 1.482593 -0.000001 0.000001 0.000000 0.000000 1.465220
    17 -3.162877 -0.408982 -4.140396 -1.262714 0.981224 -4.234209
    18 4.972047 0.000000 0.000000 -0.896574 -0.538231 1.623700
    19 11.585358 0.000000 0.000001 0.000000 0.000000 -0.740573
    20 10.127058 0.000000 0.000001 1.569752 0.000000 -0.069778
    21 1.537458 0.109715 1.664489 -0.233165 -0.412999 0.435664
    22 0.928313 0.000000 0.000002 0.000000 0.000000 0.000000
    23 0.928311 0.000000 0.000001 0.000000 0.000000 0.000000
    24 2.686395 -0.427337 0.044204 0.001045 0.043611 0.000046
    25 1.435260 0.000000 0.000001 0.000000 0.000000 1.098945
    26 1.482593 0.000000 -0.000001 0.000000 0.000000 1.308248
    27 2.046984 0.000001 0.000000 0.121020 0.102879 -0.013816
    28 -0.000005 0.000007 3.713254 -0.075993 3.067991 5.564430
    29 18.045723 0.000000 0.000000 0.000000 0.000000 -0.847788
    30 17.597597 0.000000 0.000000 -0.178655 0.144004 -0.213840
    31 0.000005 -0.000003 -3.713254 1.446879 2.528487 6.063211
    32 18.045721 0.000000 0.000000 0.000000 0.000000 -1.963022
    33 17.597597 0.000000 0.000000 -0.289183 0.059830 -0.213749
  time 16
    0 0.239254 8.551193 -31.554175 0.000000 -1.155049 -1.571017
    1 4.355598 -0.335948 0.000000 -1.570795 -1.570787 0.000000
    2 1.293670 0.684478 -0.000001 -0.065614 -0.023719 -0.346561
    3 5.309685 -0.003834 0.000000 0.000000 0.000000 -0.015215
    4 4.826790 -0.004591 0.000000 -0.076450 -0.017641 -0.227418
    5 5.792767 -0.005304 0.000000 0.000000 0.000000 -0.043599
    6 6.662322 -0.001452 0.000000 0.000000 -0.000001 0.129992
    7 -3.428510 0.399601 4.339626 0.040830 -1.370639 -3.312657
    8 4.827512 0.000000 -0.000002 0.834154 0.577893 1.014735
    9 11.140032 0.000000 0.000000 0.000000 0.000000 -0.644735
    10 10.314563 -0.000001 0.000001 -1.569942 0.000000 -0.069778
    11 1.646836 0.445664 -1.699647 0.153911 0.442352 0.277231
    12 0.928312 0.000000 0.000000 0.000000 0.000000 0.000000
    13 0.928313 0.000000 -0.000001 0.000000 0.000000 0.000000
    14 2.979373 -0.388274 -0.044205 -0.000805 -0.043611 0.000046
    15 1.435262 -0.000001 -0.000001 0.000000 0.000000 0.793619
    16 1.482593 -0.000001 0.000001 0.000000 0.000000 1.465220
    17 -3.166783 0.364479 -4.140396 -1.262714 0.981224 -4.477778
    18 4.972047 0.000000 0.000000 -0.691343 -0.797680 1.370590
    19 11.585358 0.000000 0.000001 0.000000 0.000000 -0.740573
    20 10.127058 0.000000 0.000001 1.569752 0.000000 -0.069778
    21 1.537458 0.109715 1.664489 -0.233165 -0.412999 0.435664
    22 0.928313 0.000000 0.000002 0.000000 0.000000 0.000000
    23 0.928311 0.000000 0.000001 0.000000 0.000000 0.000000
    24 2.686395 -0.427337 0.044204 0.001045 0.043611 0.000046
    25 1.435260 0.000000 0.000001 0.000000 0.000000 1.098945
    26 1.482593 0.000000 -0.000001 0.000000 0.000000 1.308248
    27 2.046984 0.000001 0.000000 0.155271 0.044698 0.083327
    28 -0.000005 0.000007 3.713254 -0.073596 3.065498 5.597118
    29 18.045723 0.000000 0.000000 0.000000 0.000000 -0.847788
    30 17.597597 0.000000 0.000000 -0.178655 0.144004 -0.181197
    31 0.000005 -0.000003 -3.713254 1.471607 2.528774 6.097916
    32 18.045721 0.000000 0.000000 0.000000 0.000000 -1.963022
    33 17.597597 0.000000 0.000000 -0.309683 0.039949 -0.211163
  time 17
    0 0.239254 8.801201 -32.960468 0.000000 -1.258239 -1.571017
    1 2.800863 -0.218757 0.000000 -1.570795 -1.570787 0.000000
    2 1.293670 0.684478 -0.000001 -0.068141 -0.014970 -0.215981
    3 5.309685 -0.003834 0.000000 0.000000 0.000000 0.047879
    4 4.826790 -0.004591 0.000000 -0.076927 -0.015580 -0.200188
    5 5.792767 -0.005304 0.000000 0.000000 0.000000 -0.043599
    6 6.662322 -0.001452 0.000000 0.000000 -0.000001 0.479687
    7 -3.100375 1.536355 4.339626 0.040830 -1.370639 -3.662106
    8 4.827512 0.000000 -0.000002 0.322212 0.907305 0.407836
    9 11.140032 0.000000 0.000000 0.000000 0.000000 -0.644735
    10 10.314563 -0.000001 0.000001 -1.569942 0.000000 -0.069778
    11 1.646836 0.445664 -1.699647 0.153911 0.442352 0.277231
    12 0.928312 0.000000 0.000000 0.000000 0.000000 0.000000
    13 0.928313 0.000000 -0.000001 0.000000 0.000000 0.000000
    14 2.979373 -0.388274 -0.044205 -0.000805 -0.043611 0.000046
    15 1.435262 -0.000001 -0.000001 0.000000 0.000000 0.793619
    16 1.482593 -0.000001 0.000001 0.000000 0.000000 1.465220
    17 -2.865993 1.415293 -4.140396 -1.262714 0.981224 -4.827280
    18 4.972047 0.000000 0.000000 -0.012992 -1.017114 0.630162
    19 11.585358 0.000000 0.000001 0.000000 0.000000 -0.740573
    20 10.127058 0.000000 0.000001 1.569752 0.000000 -0.069778
    21 1.537458 0.109715 1.664489 -0.233165 -0.412999 0.435664
    22 0.928313 0.000000 0.000002 0.000000 0.000000 0.000000
    23 0.928311 0.000000 0.000001 0.000000 0.000000 0.000000
    24 2.686395 -0.427337 0.044204 0.001045 0.043611 0.000046
    25 1.435260 0.000000 0.000001 0.000000 0.000000 1.098945
    26 1.482593 0.000000 -0.000001 0.000000 0.000000 1.308248
    27 2.046984 0.000001 0.000000 0.149756 -0.067150 0.300425
    28 -0.000005 0.000007 3.713254 -0.073021 3.064923 5.605075
    29 18.045723 0.000000 0.000000 0.000000 0.000000 -0.847788
    30 17.597597 0.000000 0.000000 -0.178655 0.144004 -0.173219
    31 0.000005 -0.000003 -3.713254 1.497963 2.528774 6.079509
    32 18.045721 0.000000 0.000000 0.000000 0.000000 -1.963022
    33 17.597597 0.000000 0.000000 -0.276333 0.018056 -0.211532
  time 18
    0 0.239254 8.914486 -33.862839 0.000000 -1.334349 -1.571017
    1 1.628952 -0.132817 0.000000 -1.570795 -1.570787 0.000000
    2 1.293670 0.684478 -0.000001 -0.069236 -0.008414 -0.120993
    3 5.309685 -0.003834 0.000000 0.000000 0.000000 0.087199
    4 4.826790 -0.004591 0.000000 -0.077270 -0.013543 -0.173885
    5 5.792767 -0.005304 0.000000 0.000000 0.000000 -0.043599
    6 6.662322 -0.001452 0.000000 0.000000 -0.000001 0.146141
    7 -3.424603 0.454291 4.339626 0.040830 -1.370639 -3.328659
    8 4.827512 0.000000 -0.000002 0.367890 0.889654 0.547083
    9 11.140032 0.000000 0.000000 0.000000 0.000000 -0.605393
    10 10.314563 -0.000001 0.000001 -1.569942 0.000000 -0.069778
    11 1.646836 0.445664 -1.699647 0.153911 0.442352 0.277231
    12 0.928312 0.000000 0.000000 0.000000 0.000000 0.000000
    13 0.928313 0.000000 -0.000001 0.000000 0.000000 0.000000
    14 2.979373 -0.388274 -0.044205 -0.000805 -0.043611 0.000046
    15 1.435262 -0.000001 -0.000001 0.000000 0.000000 0.793619
    16 1.482593 -0.000001 0.000001 0.000000 0.000000 1.465220
    17 -3.162877 0.415262 -4.140396 -1.262714 0.981224 -4.493869
    18 4.972047 0.000000 0.000000 -0.125268 -1.036157 0.829429
    19 11.585358 0.000000 0.000001 0.000000 0.000000 -0.683969
    20 10.127058 0.000000 0.000001 1.569752 0.000000 -0.069778
    21 1.537458 0.109715 1.664489 -0.233165 -0.412999 0.435664
    22 0.928313 0.000000 0.000002 0.000000 0.000000 0.000000
    23 0.928311 0.000000 0.000001 0.000000 0.000000 0.000000
    24 2.686395 -0.427337 0.044204 0.001045 0.043611 0.000046
    25 1.435260 0.000000 0.000001 0.000000 0.000000 1.098945
    26 1.482593 0.000000 -0.000001 0.000000 0.000000 1.308248
    27 2.046984 0.000001 0.000000 0.164706 0.009412 0.062159
    28 -0.000005 0.000007 3.713254 -0.071966 3.064060 5.616769
    29 18.045723 0.000000 0.000000 0.000000 0.000000 -0.847788
    30 17.597597 0.000000 0.000000 -0.178655 0.144004 -0.161528
    31 0.000005 -0.000003 -3.713254 1.516557 2.528487 6.063211
    32 18.045721 0.000000 0.000000 0.000000 0.000000 -1.963022
    33 17.597597 0.000000 0.000000 -0.249458 0.002474 -0.212456
  time 19
    0 0.239254 8.914486 -33.835495 0.000000 -1.334349 -1.571017
    1 1.593795 -0.125004 0.000000 -1.570795 -1.570787 0.000000
    2 1.293670 0.684478 -0.000001 -0.069236 -0.008414 -0.120993
    3 5.309685 -0.003834 0.000000 0.000000 0.000000 0.080734
    4 4.826790 -0.004591 0.000000 -0.077556 -0.011793 -0.151329
    5 5.792767 -0.005304 0.000000 0.000000 0.000000 -0.043599
    6 6.662322 -0.001452 0.000000 0.000000 -0.000001 -0.261627
    7 -3.319131 -0.944190 4.339626 0.040830 -1.370639 -2.920952
    8 4.827512 0.000000 -0.000002 0.634224 0.755859 0.915434
    9 11.140032 0.000000 0.000000 0.000000 0.000000 -0.566123
    10 10.314563 -0.000001 0.000001 -1.569942 0.000000 -0.069778
    11 1.646836 0.445664 -1.699647 0.153911 0.442352 0.277231
    12 0.928312 0.000000 0.000000 0.000000 0.000000 0.000000
    13 0.928313 0.000000 -0.000001 0.000000 0.000000 0.000000
    14 2.979373 -0.388274 -0.044205 -0.000805 -0.043611 0.000046
    15 1.435262 -0.000001 -0.000001 0.000000 0.000000 0.793619
    16 1.482593 -0.000001 0.000001 0.000000 0.000000 1.465220
    17 -3.065217 -0.873840 -4.140396 -1.262809 0.981224 -4.085941
    18 4.972047 0.000000 0.000000 -0.547643 -0.938693 1.337978
    19 11.585358 0.000000 0.000001 0.000000 0.000000 -0.627283
    20 10.127058 0.000000 0.000001 1.569752 0.000000 -0.069778
    21 1.537458 0.109715 1.664489 -0.233165 -0.412999 0.435664
    22 0.928313 0.000000 0.000002 0.000000 0.000000 0.000000
    23 0.928311 0.000000 0.000001 0.000000 0.000000 0.000000
    24 2.686395 -0.427337 0.044204 0.001045 0.043611 0.000046
    25 1.435260 0.000000 0.000001 0.000000 0.000000 1.098945
    26 1.482593 0.000000 -0.000001 0.000000 0.000000 1.308248
    27 2.046984 0.000001 0.000000 0.133514 0.097155 -0.118320
    28 -0.000005 0.000007 3.713254 -0.069953 3.062143 5.643898
    29 18.045723 0.000000 0.000000 0.000000 0.000000 -0.785764
    30 17.597597 0.000000 0.000000 -0.178655 0.144004 -0.196418
    31 0.000005 -0.000003 -3.713254 1.516557 2.528487 6.063211
    32 18.045721 0.000000 0.000000 0.000000 0.000000 -1.963022
    33 17.597597 0.000000 0.000000 -0.249458 0.002474 -0.212456
  time 20
    0 0.239254 8.914486 -33.937060 0.000000 -1.334349 -1.571017
    1 1.699267 -0.125004 0.000000 -1.570795 -1.570787 0.000000
    2 1.293670 0.684478 -0.000001 -0.069236 -0.008414 -0.120993
    3 5.309685 -0.003834 0.000000 0.000000 0.000000 0.050034
    4 4.826790 -0.004591 0.000000 -0.077804 -0.010007 -0.128818
    5 5.792767 -0.005304 0.000000 0.000000 0.000000 -0.043599
    6 6.662322 -0.001452 0.000000 0.000000 -0.000001 -0.261627
    7 -3.319131 -0.944190 4.339626 0.040830 -1.370639 -2.920952
    8 4.827512 0.000000 -0.000002 0.643312 0.751169 0.923493
    9 11.140032 0.000000 0.000000 0.000000 0.000000 -0.566123
    10 10.314563 -0.000001 0.000001 -1.569942 0.000000 -0.069778
    11 1.646836 0.445664 -1.699647 0.153911 0.442352 0.277231
    12 0.928312 0.000000 0.000000 0.000000 0.000000 0.000000
    13 0.928313 0.000000 -0.000001 0.000000 0.000000 0.000000
    14 2.979373 -0.388274 -0.044205 -0.000805 -0.043611 0.000046
    15 1.435262 -0.000001 -0.000001 0.000000 0.000000 0.793619
    16 1.482593 -0.000001 0.000001 0.000000 0.000000 1.465220
    17 -3.065217 -0.873840 -4.140396 -1.262809 0.981224 -4.085941
    18 4.972047 0.000000 0.000000 -0.554397 -0.931381 1.344634
    19 11.585358 0.000000 0.000001 0.000000 0.000000 -0.627283
    20 10.127058 0.000000 0.000001 1.569752 0.000000 -0.069778
    21 1.537458 0.109715 1.664489 -0.233165 -0.412999 0.435664
    22 0.928313 0.000000 0.000002 0.000000 0.000000 0.000000
    23 0.928311 0.000000 0.000001 0.000000 0.000000 0.000000
    24 2.686395 -0.427337 0.044204 0.001045 0.043611 0.000046
    25 1.435260 0.000000 0.000001 0.000000 0.000000 1.098945
    26 1.482593 0.000000 -0.000001 0.000000 0.000000 1.308248
    27 2.046984 0.000001 0.000000 0.134720 0.095149 -0.110352
    28 -0.000005 0.000007 3.713254 -0.067460 3.060033 5.673997
    29 18.045723 0.000000 0.000000 0.000000 0.000000 -0.700499
    30 17.597597 0.000000 0.000000 -0.178655 0.144004 -0.251663
    31 0.000005 -0.000003 -3.713254 1.516557 2.528487 6.063211
    32 18.045721 0.000000 0.000000 0.000000 0.000000 -1.963022
    33 17.597597 0.000000 0.000000 -0.249458 0.002474 -0.212456
  time 21
    0 0.239254 8.914486 -34.011281 0.000000 -1.334349 -1.571017
    1 1.785207 -0.125004 0.000000 -1.570795 -1.570787 0.000000
    2 1.293670 0.684478 -0.000001 -0.069236 -0.008414 -0.120993
    3 5.309685 -0.003834 0.000000 0.000000 0.000000 0.026135
    4 4.826790 -0.004591 0.000000 -0.077995 -0.008809 -0.113031
    5 5.792767 -0.005304 0.000000 0.000000 0.000000 -0.043599
    6 6.662322 -0.001452 0.000000 0.000000 -0.000001 -0.261627
    7 -3.319131 -0.944190 4.339626 0.040830 -1.370639 -2.920952
    8 4.827512 0.000000 -0.000002 0.651842 0.746053 0.931204
    9 11.140032 0.000000 0.000000 0.000000 0.000000 -0.566123
    10 10.314563 -0.000001 0.000001 -1.569942 0.000000 -0.069778
    11 1.646836 0.445664 -1.699647 0.153911 0.442352 0.277231
    12 0.928312 0.000000 0.000000 0.000000 0.000000 0.000000
    13 0.928313 0.000000 -0.000001 0.000000 0.000000 0.000000
    14 2.979373 -0.388274 -0.044205 -0.000805 -0.043611 0.000046
    15 1.435262 -0.000001 -0.000001 0.000000 0.000000 0.793619
    16 1.482593 -0.000001 0.000001 0.000000 0.000000 1.465220
    17 -3.065217 -0.873840 -4.140396 -1.262809 0.981224 -4.085941
    18 4.972047 0.000000 0.000000 -0.561525 -0.924632 1.351622
    19 11.585358 0.000000 0.000001 0.000000 0.000000 -0.627283
    20 10.127058 0.000000 0.000001 1.569752 0.000000 -0.069778
    21 1.537458 0.109715 1.664489 -0.233165 -0.412999 0.435664
    22 0.928313 0.000000 0.000002 0.000000 0.000000 0.000000
    23 0.928311 0.000000 0.000001 0.000000 0.000000 0.000000
    24 2.686395 -0.427337 0.044204 0.001045 0.043611 0.000046
    25 1.435260 0.000000 0.000001 0.000000 0.000000 1.098945
    26 1.482593 0.000000 -0.000001 0.000000 0.000000 1.308248
    27 2.046984 0.000001 0.000000 0.135668 0.093526 -0.102261
    28 -0.000005 0.000007 3.713254 -0.065734 3.058595 5.695374
    29 18.045723 0.000000 0.000000 0.000000 0.000000 -0.638475
    30 17.597597 0.000000 0.000000 -0.178655 0.144004 -0.292376
    31 0.000005 -0.000003 -3.713254 1.516557 2.528487 6.063211
    32 18.045721 0.000000 0.000000 0.000000 0.000000 -1.963022
    33 17.597597 0.000000 0.000000 -0.249458 0.002474 -0.212456
  time 22
    0 0.239254 8.914486 -34.011281 0.000000 -1.334349 -1.571017
    1 1.785207 -0.125004 0.000000 -1.570795 -1.570787 0.000000
    2 1.293670 0.684478 -0.000001 -0.069236 -0.008414 -0.120993
    3 5.309685 -0.003834 0.000000 0.000000 0.000000 0.026135
    4 4.826790 -0.004591 0.000000 -0.077995 -0.008809 -0.113031
    5 5.792767 -0.005304 0.000000 0.000000 0.000000 -0.043599
    6 6.662322 -0.001452 0.000000 0.000000 -0.000001 -0.261627
    7 -3.319131 -0.944190 4.339626 0.040830 -1.370639 -2.920952
    8 4.827512 0.000000 -0.000002 0.651842 0.746053 0.931204
    9 11.140032 0.000000 0.000000 0.000000 0.000000 -0.566123
    10 10.314563 -0.000001 0.000001 -1.569942 0.000000 -0.069778
    11 1.646836 0.445664 -1.699647 0.153911 0.442352 0.277231
    12 0.928312 0.000000 0.000000 0.000000 0.000000 0.000000
    13 0.928313 0.000000 -0.000001 0.000000 0.000000 0.000000
    14 2.979373 -0.388274 -0.044205 -0.000805 -0.043611 0.000046
    15 1.435262 -0.000001 -0.000001 0.000000 0.000000 0.793619
    16 1.482593 -0.000001 0.000001 0.000000 0.000000 1.465220
    17 -3.065217 -0.873840 -4.140396 -1.262809 0.981224 -4.085941
    18 4.972047 0.000000 0.000000 -0.561525 -0.924632 1.351622
    19 11.585358 0.000000 0.000001 0.000000 0.000000 -0.627283
    20 10.127058 0.000000 0.000001 1.569752 0.000000 -0.069778
    21 1.537458 0.109715 1.664489 -0.233165 -0.412999 0.435664
    22 0.928313 0.000000 0.000002 0.000000 0.000000 0.000000
    23 0.928311 0.000000 0.000001 0.000000 0.000000 0.000000
    24 2.686395 -0.427337 0.044204 0.001045 0.043611 0.000046
    25 1.435260 0.000000 0.000001 0.000000 0.000000 1.098945
    26 1.482593 0.000000 -0.000001 0.000000 0.000000 1.308248
    27 2.046984 0.000001 0.000000 0.135668 0.093526 -0.102261
    28 -0.000005 0.000007 3.713254 -0.065734 3.058595 5.695374
    29 18.045723 0.000000 0.000000 0.000000 0.000000 -0.638475
    30 17.597597 0.000000 0.000000 -0.178655 0.144004 -0.292376
    31 0.000005 -0.000003 -3.713254 1.516557 2.528487 6.063211
    32 18.045721 0.000000 0.000000 0.000000 0.000000 -1.963022
    33 17.597597 0.000000 0.000000 -0.249458 0.002474 -0.212456
  time 23
    0 0.239254 8.914486 -34.011281 0.000000 -1.334349 -1.571017
    1 1.785207 -0.125004 0.000000 -1.570795 -1.570787 0.000000
    2 1.293670 0.684478 -0.000001 -0.069236 -0.008414 -0.120993
    3 5.309685 -0.003834 0.000000 0.000000 0.000000 0.026135
    4 4.826790 -0.004591 0.000000 -0.077995 -0.008809 -0.113031
    5 5.792767 -0.005304 0.000000 0.000000 0.000000 -0.043599
    6 6.662322 -0.001452 0.000000 0.000000 -0.000001 -0.261627
    7 -3.319131 -0.944190 4.339626 0.040830 -1.370639 -2.920952
    8 4.827512 0.000000 -0.000002 0.651842 0.746053 0.931204
    9 11.140032 0.000000 0.000000 0.000000 0.000000 -0.566123
    10 10.314563 -0.000001 0.000001 -1.569942 0.000000 -0.069778
    11 1.646836 0.445664 -1.699647 0.153911 0.442352 0.277231
    12 0.928312 0.000000 0.000000 0.000000 0.000000 0.000000
    13 0.928313 0.000000 -0.000001 0.000000 0.000000 0.000000
    14 2.979373 -0.388274 -0.044205 -0.000805 -0.043611 0.000046
    15 1.435262 -0.000001 -0.000001 0.000000 0.000000 0.793619
    16 1.482593 -0.000001 0.000001 0.000000 0.000000 1.465220
    17 -3.065217 -0.873840 -4.140396 -1.262809 0.981224 -4.085941
    18 4.972047 0.000000 0.000000 -0.561525 -0.924632 1.351622
    19 11.585358 0.000000 0.000001 0.000000 0.000000 -0.627283
    20 10.127058 0.000000 0.000001 1.569752 0.000000 -0.069778
    21 1.537458 0.109715 1.664489 -0.233165 -0.412999 0.435664
    22 0.928313 0.000000 0.000002 0.000000 0.000000 0.000000
    23 0.928311 0.000000 0.000001 0.000000 0.000000 0.000000
    24 2.686395 -0.427337 0.044204 0.001045 0.043611 0.000046
    25 1.435260 0.000000 0.000001 0.000000 0.000000 1.098945
    26 1.482593 0.000000 -0.000001 0.000000 0.000000 1.308248
    27 2.046984 0.000001 0.000000 0.135668 0.093526 -0.102261
    28 -0.000005 0.000007 3.713254 -0.065734 3.058595 5.695374
    29 18.045723 0.000000 0.000000 0.000000 0.000000 -0.638475
    30 17.597597 0.000000 0.000000 -0.178655 0.144004 -0.292376
    31 0.000005 -0.000003 -3.713254 1.516557 2.528487 6.063211
    32 18.045721 0.000000 0.000000 0.000000 0.000000 -1.963022
    33 17.597597 0.000000 0.000000 -0.249458 0.002474 -0.212456
  time 24
    0 0.239254 8.914486 -34.011281 0.000000 -1.334349 -1.571017
    1 1.785207 -0.125004 0.000000 -1.570795 -1.570787 0.000000
    2 1.293670 0.684478 -0.000001 -0.069236 -0.008414 -0.120993
    3 5.309685 -0.003834 0.000000 0.000000 0.000000 0.026135
    4 4.826790 -0.004591 0.000000 -0.077995 -0.008809 -0.113031
    5 5.792767 -0.005304 0.000000 0.000000 0.000000 -0.043599
    6 6.662322 -0.001452 0.000000 0.000000 -0.000001 -0.261627
    7 -3.319131 -0.944190 4.339626 0.040830 -1.370639 -2.920952
    8 4.827512 0.000000 -0.000002 0.651842 0.746053 0.931204
    9 11.140032 0.000000 0.000000 0.000000 0.000000 -0.566123
    10 10.314563 -0.000001 0.000001 -1.569942 0.000000 -0.069778
    11 1.646836 0.445664 -1.699647 0.153911 0.442352 0.277231
    12 0.928312 0.000000 0.000000 0.000000 0.000000 0.000000
    13 0.928313 0.000000 -0.000001 0.000000 0.000000 0.000000
    14 2.979373 -0.388274 -0.044205 -0.000805 -0.043611 0.000046
    15 1.435262 -0.000001 -0.000001 0.000000 0.000000 0.793619
    16 1.482593 -0.000001 0.000001 0.000000 0.000000 1.465220
    17 -3.065217 -0.873840 -4.140396 -1.262809 0.981224 -4.085941
    18 4.972047 0.000000 0.000000 -0.561525 -0.924632 1.351622
    19 11.585358 0.000000 0.000001 0.000000 0.000000 -0.627283
    20 10.127058 0.000000 0.000001 1.569752 0.000000 -0.069778
    21 1.537458 0.109715 1.664489 -0.233165 -0.412999 0.435664
    22 0.928313 0.000000 0.000002 0.000000 0.000000 0.000000
    23 0.928311 0.000000 0.000001 0.000000 0.000000 0.000000
    24 2.686395 -0.427337 0.044204 0.001045 0.043611 0.000046
    25 1.435260 0.000000 0.000001 0.000000 0.000000 1.098945
    26 1.482593 0.000000 -0.000001 0.000000 0.000000 1.308248
    27 2.046984 0.000001 0.000000 0.135668 0.093526 -0.102261
    28 -0.000005 0.000007 3.713254 -0.065734 3.058595 5.695374
    29 18.045723 0.000000 0.000000 0.000000 0.000000 -0.638475
    30 17.597597 0.000000 0.000000 -0.178655 0.144004 -0.292376
    31 0.000005 -0.000003 -3.713254 1.516557 2.528487 6.063211
    32 18.045721 0.000000 0.000000 0.000000 0.000000 -1.963022
    33 17.597597 0.000000 0.000000 -0.249458 0.002474 -0.212456
end
