version 1
nodes
  0 "Bip01" -1
  1 "Bip01 Pelvis" 0
  2 "Bip01 Spine" 1
  3 "Bip01 Spine1" 2
  4 "Bip01 Spine2" 3
  5 "Bip01 Spine3" 4
  6 "Bip01 Neck" 5
  7 "Bip01 L Arm" 6
  8 "Bip01 L Arm1" 7
  9 "Bip01 L Arm2" 8
  10 "Bip01 L Hand" 9
  11 "Bip01 L Finger0" 10
  12 "Bip01 L Finger01" 11
  13 "Bip01 L Finger02" 12
  14 "Bip01 L Finger1" 10
  15 "Bip01 L Finger11" 14
  16 "Bip01 L Finger12" 15
  17 "Bip01 R Arm" 6
  18 "Bip01 R Arm1" 17
  19 "Bip01 R Arm2" 18
  20 "Bip01 R Hand" 19
  21 "Bip01 R Finger0" 20
  22 "Bip01 R Finger01" 21
  23 "Bip01 R Finger02" 22
  24 "Bip01 R Finger1" 20
  25 "Bip01 R Finger11" 24
  26 "Bip01 R Finger12" 25
  27 "Bip01 Head" 6
  28 "Bip01 L Leg" 1
  29 "Bip01 L Leg1" 28
  30 "Bip01 L Foot" 29
  31 "Bip01 R Leg" 1
  32 "Bip01 R Leg1" 31
  33 "Bip01 R Foot" 32
end
skeleton
  time 0
    0 0.235347 0.367350 2.884376 0.000000 0.000000 -1.571017
    1 0.675798 -0.007813 0.000000 -1.570795 -1.570787 0.000000
    2 1.293670 0.684478 -0.000001 -0.069775 0.000634 0.009520
    3 5.309685 -0.003834 0.000000 0.000000 0.000000 -0.069778
    4 4.826790 -0.004591 0.000000 -0.078491 0.000060 -0.000012
    5 5.792767 -0.005304 0.000000 0.000000 0.000000 0.017444
    6 6.662322 -0.001452 0.000000 0.000000 -0.000001 0.471000
    7 -3.108188 1.516823 4.339626 -0.000100 -1.370787 -3.613335
    8 4.827512 0.000000 -0.000002 0.484037 1.160483 0.758597
    9 11.140032 0.000000 0.000000 0.000000 0.000000 -0.287177
    10 10.314563 -0.000001 0.000001 -1.569942 0.000000 -0.069778
    11 1.646836 0.445664 -1.699647 0.153911 0.442352 0.277231
    12 0.928312 0.000000 0.000000 0.000000 0.000000 0.000000
    13 0.928313 0.000000 -0.000001 0.000000 0.000000 0.000000
    14 2.979373 -0.388274 -0.044205 -0.000805 -0.043611 0.000046
    15 1.435262 -0.000001 -0.000001 0.000000 0.000000 0.793619
    16 1.482593 -0.000001 0.000001 0.000000 0.000000 1.465220
    17 -2.869899 1.399667 -4.140396 0.000026 1.370769 -3.613362
    18 4.972047 0.000000 0.000000 -0.592760 -1.258886 0.836883
    19 11.585358 0.000000 0.000001 0.000000 0.000000 -1.290197
    20 10.127058 0.000000 0.000001 1.569752 0.000000 -0.069778
    21 1.537458 0.109715 1.664489 -0.233165 -0.412999 0.435664
    22 0.928313 0.000000 0.000002 0.000000 0.000000 0.000000
    23 0.928311 0.000000 0.000001 0.000000 0.000000 0.000000
    24 2.686395 -0.427337 0.044204 0.001045 0.043611 0.000046
    25 1.435260 0.000000 0.000001 0.000000 0.000000 0.915779
    26 1.482593 0.000000 -0.000001 0.000000 0.000000 1.526289
    27 2.046984 0.000001 0.000000 0.158502 -0.045229 -0.152263
    28 -0.000005 0.000007 3.713254 -0.055284 -3.106619 6.073155
    29 18.045723 0.000000 0.000000 0.000000 0.000000 -0.234872
    30 17.597597 0.000000 0.000000 -0.095566 -0.022579 0.023281
    31 0.000005 -0.000003 -3.713254 0.257957 3.091130 0.080576
    32 18.045721 0.000000 0.000000 0.000000 0.000000 -0.127551
    33 17.597597 0.000000 0.000000 -0.018087 0.069120 0.192706
  time 1
    0 0.239254 4.133090 10.329916 0.566807 -0.235457 -2.739613
    1 0.675798 -0.007813 0.000000 -1.570795 -1.570787 0.000000
    2 1.293670 0.684478 -0.000001 -0.069775 0.000634 0.009520
    3 5.309685 -0.003834 0.000000 0.000000 0.000000 -0.069778
    4 4.826790 -0.004591 0.000000 -0.078491 0.000060 -0.000012
    5 5.792767 -0.005304 0.000000 0.000000 0.000000 0.017444
    6 6.662322 -0.001452 0.000000 0.000000 -0.000001 0.471000
    7 -3.108188 1.516823 4.339626 -0.000100 -1.370787 -3.613335
    8 4.827512 0.000000 -0.000002 0.409821 0.583521 1.556907
    9 11.140032 0.000000 0.000000 0.000000 0.000000 -0.287177
    10 10.314563 -0.000001 0.000001 -1.569942 0.000000 -0.069778
    11 1.646836 0.445664 -1.699647 0.153911 0.442352 0.277231
    12 0.928312 0.000000 0.000000 0.000000 0.000000 0.000000
    13 0.928313 0.000000 -0.000001 0.000000 0.000000 0.000000
    14 2.979373 -0.388274 -0.044205 -0.000805 -0.043611 0.000046
    15 1.435262 -0.000001 -0.000001 0.000000 0.000000 0.793619
    16 1.482593 -0.000001 0.000001 0.000000 0.000000 1.465220
    17 -2.869899 1.399667 -4.140396 0.000026 1.370769 -3.613362
    18 4.972047 0.000000 0.000000 -0.520817 -0.715081 1.060775
    19 11.585358 0.000000 0.000001 0.000000 0.000000 -0.217414
    20 10.127058 0.000000 0.000001 1.569752 0.000000 -0.069778
    21 1.537458 0.109715 1.664489 -0.233165 -0.412999 0.435664
    22 0.928313 0.000000 0.000002 0.000000 0.000000 0.000000
    23 0.928311 0.000000 0.000001 0.000000 0.000000 0.000000
    24 2.686395 -0.427337 0.044204 0.001045 0.043611 0.000046
    25 1.435260 0.000000 0.000001 0.000000 0.000000 0.915779
    26 1.482593 0.000000 -0.000001 0.000000 0.000000 1.526289
    27 2.046984 0.000001 0.000000 0.141700 0.084557 -0.962258
    28 -0.000005 0.000007 3.713254 -0.497646 2.766082 0.347579
    29 18.045723 0.000000 0.000000 0.000000 0.000000 -0.601171
    30 17.597597 0.000000 0.000000 -0.126607 0.446505 -0.480486
    31 0.000005 -0.000003 -3.713254 0.257957 3.091130 0.080576
    32 18.045721 0.000000 0.000000 0.000000 0.000000 -0.554912
    33 17.597597 0.000000 0.000000 -0.068582 0.020067 -0.409125
  time 2
    0 0.239254 5.086244 13.833929 0.696246 0.049600 -3.234699
    1 0.675798 -0.007813 0.000000 -1.570795 -1.570787 0.000000
    2 1.293670 0.684478 -0.000001 -0.069775 0.000634 0.009520
    3 5.309685 -0.003834 0.000000 0.000000 0.000000 -0.069778
    4 4.826790 -0.004591 0.000000 -0.078491 0.000060 -0.000012
    5 5.792767 -0.005304 0.000000 0.000000 0.000000 0.017444
    6 6.662322 -0.001452 0.000000 0.000000 -0.000001 0.471000
    7 -3.108188 1.516823 4.339626 -0.000100 -1.370787 -3.613335
    8 4.827512 0.000000 -0.000002 0.408864 0.538241 1.635066
    9 11.140032 0.000000 0.000000 0.000000 0.000000 -0.287177
    10 10.314563 -0.000001 0.000001 -1.569942 0.000000 -0.069778
    11 1.646836 0.445664 -1.699647 0.153911 0.442352 0.277231
    12 0.928312 0.000000 0.000000 0.000000 0.000000 0.000000
    13 0.928313 0.000000 -0.000001 0.000000 0.000000 0.000000
    14 2.979373 -0.388274 -0.044205 -0.000805 -0.043611 0.000046
    15 1.435262 -0.000001 -0.000001 0.000000 0.000000 0.793619
    16 1.482593 -0.000001 0.000001 0.000000 0.000000 1.465220
    17 -2.869899 1.399667 -4.140396 0.000026 1.370769 -3.613362
    18 4.972047 0.000000 0.000000 -0.301516 -0.778235 0.765935
    19 11.585358 0.000000 0.000001 0.000000 0.000000 -0.217414
    20 10.127058 0.000000 0.000001 1.569752 0.000000 -0.069778
    21 1.537458 0.109715 1.664489 -0.233165 -0.412999 0.435664
    22 0.928313 0.000000 0.000002 0.000000 0.000000 0.000000
    23 0.928311 0.000000 0.000001 0.000000 0.000000 0.000000
    24 2.686395 -0.427337 0.044204 0.001045 0.043611 0.000046
    25 1.435260 0.000000 0.000001 0.000000 0.000000 0.915779
    26 1.482593 0.000000 -0.000001 0.000000 0.000000 1.526289
    27 2.046984 0.000001 0.000000 0.141700 0.084557 -0.962258
    28 -0.000005 0.000007 3.713254 -0.639731 2.774231 0.312016
    29 18.045723 0.000000 0.000000 0.000000 0.000000 -0.601171
    30 17.597597 0.000000 0.000000 -0.068681 0.565690 -0.484887
    31 0.000005 -0.000003 -3.713254 0.355908 3.087007 0.002730
    32 18.045721 0.000000 0.000000 0.000000 0.000000 -0.599939
    33 17.597597 0.000000 0.000000 -0.121526 -0.086459 -0.526489
  time 3
    0 0.239254 5.445630 16.525417 0.655960 0.330951 -3.615491
    1 0.675798 -0.007813 0.000000 -1.570795 -1.570787 0.000000
    2 1.293670 0.684478 -0.000001 -0.069775 0.000634 0.009520
    3 5.309685 -0.003834 0.000000 0.000000 0.000000 -0.069778
    4 4.826790 -0.004591 0.000000 -0.078491 0.000060 -0.000012
    5 5.792767 -0.005304 0.000000 0.000000 0.000000 0.017444
    6 6.662322 -0.001452 0.000000 0.000000 -0.000001 0.471000
    7 -3.108188 1.516823 4.339626 -0.000100 -1.370787 -3.613335
    8 4.827512 0.000000 -0.000002 0.430149 0.509077 1.700313
    9 11.140032 0.000000 0.000000 0.000000 0.000000 -0.287177
    10 10.314563 -0.000001 0.000001 -1.569942 0.000000 -0.069778
    11 1.646836 0.445664 -1.699647 0.153911 0.442352 0.277231
    12 0.928312 0.000000 0.000000 0.000000 0.000000 0.000000
    13 0.928313 0.000000 -0.000001 0.000000 0.000000 0.000000
    14 2.979373 -0.388274 -0.044205 -0.000805 -0.043611 0.000046
    15 1.435262 -0.000001 -0.000001 0.000000 0.000000 0.793619
    16 1.482593 -0.000001 0.000001 0.000000 0.000000 1.465220
    17 -2.869899 1.399667 -4.140396 0.000026 1.370769 -3.613362
    18 4.972047 0.000000 0.000000 -0.025279 -0.810777 0.393757
    19 11.585358 0.000000 0.000001 0.000000 0.000000 -0.217414
    20 10.127058 0.000000 0.000001 1.569752 0.000000 -0.069778
    21 1.537458 0.109715 1.664489 -0.233165 -0.412999 0.435664
    22 0.928313 0.000000 0.000002 0.000000 0.000000 0.000000
    23 0.928311 0.000000 0.000001 0.000000 0.000000 0.000000
    24 2.686395 -0.427337 0.044204 0.001045 0.043611 0.000046
    25 1.435260 0.000000 0.000001 0.000000 0.000000 0.915779
    26 1.482593 0.000000 -0.000001 0.000000 0.000000 1.526289
    27 2.046984 0.000001 0.000000 0.141700 0.084557 -0.962258
    28 -0.000005 0.000007 3.713254 -0.759190 2.827154 0.246640
    29 18.045723 0.000000 0.000000 0.000000 0.000000 -0.601171
    30 17.597597 0.000000 0.000000 -0.014986 0.652955 -0.535411
    31 0.000005 -0.000003 -3.713254 0.466318 3.072915 6.200976
    32 18.045721 0.000000 0.000000 0.000000 0.000000 -0.615525
    33 17.597597 0.000000 0.000000 -0.167861 -0.204209 -0.606672
  time 4
    0 0.239254 6.152683 18.177812 0.505231 0.560611 -3.982316
    1 0.675798 -0.007813 0.000000 -1.570795 -1.570787 0.000000
    2 1.293670 0.684478 -0.000001 -0.069775 0.000634 0.009520
    3 5.309685 -0.003834 0.000000 0.000000 0.000000 -0.069778
    4 4.826790 -0.004591 0.000000 -0.078491 0.000060 -0.000012
    5 5.792767 -0.005304 0.000000 0.000000 0.000000 0.017444
    6 6.662322 -0.001452 0.000000 0.000000 -0.000001 0.471000
    7 -3.108188 1.516823 4.339626 -0.000100 -1.370787 -3.613335
    8 4.827512 0.000000 -0.000002 0.451752 0.490829 1.744505
    9 11.140032 0.000000 0.000000 0.000000 0.000000 -0.287177
    10 10.314563 -0.000001 0.000001 -1.569942 0.000000 -0.069778
    11 1.646836 0.445664 -1.699647 0.153911 0.442352 0.277231
    12 0.928312 0.000000 0.000000 0.000000 0.000000 0.000000
    13 0.928313 0.000000 -0.000001 0.000000 0.000000 0.000000
    14 2.979373 -0.388274 -0.044205 -0.000805 -0.043611 0.000046
    15 1.435262 -0.000001 -0.000001 0.000000 0.000000 0.793619
    16 1.482593 -0.000001 0.000001 0.000000 0.000000 1.465220
    17 -2.869899 1.399667 -4.140396 0.000026 1.370769 -3.613362
    18 4.972047 0.000000 0.000000 0.217659 -0.786752 0.064109
    19 11.585358 0.000000 0.000001 0.000000 0.000000 -0.217414
    20 10.127058 0.000000 0.000001 1.569752 0.000000 -0.069778
    21 1.537458 0.109715 1.664489 -0.233165 -0.412999 0.435664
    22 0.928313 0.000000 0.000002 0.000000 0.000000 0.000000
    23 0.928311 0.000000 0.000001 0.000000 0.000000 0.000000
    24 2.686395 -0.427337 0.044204 0.001045 0.043611 0.000046
    25 1.435260 0.000000 0.000001 0.000000 0.000000 0.915779
    26 1.482593 0.000000 -0.000001 0.000000 0.000000 1.526289
    27 2.046984 0.000001 0.000000 0.141700 0.084557 -0.962258
    28 -0.000005 0.000007 3.713254 -0.843750 2.884966 0.194013
    29 18.045723 0.000000 0.000000 0.000000 0.000000 -0.601171
    30 17.597597 0.000000 0.000000 0.025253 0.715316 -0.586484
    31 0.000005 -0.000003 -3.713254 0.554205 3.054988 6.129457
    32 18.045721 0.000000 0.000000 0.000000 0.000000 -0.621350
    33 17.597597 0.000000 0.000000 -0.201513 -0.299040 -0.662513
  time 5
    0 0.239254 8.148837 18.654389 0.205459 0.739342 -4.461631
    1 0.675798 -0.007813 0.000000 -1.570795 -1.570787 0.000000
    2 1.293670 0.684478 -0.000001 -0.069775 0.000634 0.009520
    3 5.309685 -0.003834 0.000000 0.000000 0.000000 -0.069778
    4 4.826790 -0.004591 0.000000 -0.078491 0.000060 -0.000012
    5 5.792767 -0.005304 0.000000 0.000000 0.000000 0.017444
    6 6.662322 -0.001452 0.000000 0.000000 -0.000001 0.471000
    7 -3.108188 1.516823 4.339626 -0.000100 -1.370787 -3.613335
    8 4.827512 0.000000 -0.000002 0.469449 0.479999 1.773273
    9 11.140032 0.000000 0.000000 0.000000 0.000000 -0.287177
    10 10.314563 -0.000001 0.000001 -1.569942 0.000000 -0.069778
    11 1.646836 0.445664 -1.699647 0.153911 0.442352 0.277231
    12 0.928312 0.000000 0.000000 0.000000 0.000000 0.000000
    13 0.928313 0.000000 -0.000001 0.000000 0.000000 0.000000
    14 2.979373 -0.388274 -0.044205 -0.000805 -0.043611 0.000046
    15 1.435262 -0.000001 -0.000001 0.000000 0.000000 0.793619
    16 1.482593 -0.000001 0.000001 0.000000 0.000000 1.465220
    17 -2.869899 1.399667 -4.140396 0.000026 1.370769 -3.613362
    18 4.972047 0.000000 0.000000 0.398503 -0.729303 -0.192396
    19 11.585358 0.000000 0.000001 0.000000 0.000000 -0.217414
    20 10.127058 0.000000 0.000001 1.569752 0.000000 -0.069778
    21 1.537458 0.109715 1.664489 -0.233165 -0.412999 0.435664
    22 0.928313 0.000000 0.000002 0.000000 0.000000 0.000000
    23 0.928311 0.000000 0.000001 0.000000 0.000000 0.000000
    24 2.686395 -0.427337 0.044204 0.001045 0.043611 0.000046
    25 1.435260 0.000000 0.000001 0.000000 0.000000 0.915779
    26 1.482593 0.000000 -0.000001 0.000000 0.000000 1.526289
    27 2.046984 0.000001 0.000000 0.141700 0.084557 -0.962258
    28 -0.000005 0.000007 3.713254 -0.907794 2.942108 0.152697
    29 18.045723 0.000000 0.000000 0.000000 0.000000 -0.601171
    30 17.597597 0.000000 0.000000 0.058524 0.764486 -0.633844
    31 0.000005 -0.000003 -3.713254 0.618132 3.038019 6.071073
    32 18.045721 0.000000 0.000000 0.000000 0.000000 -0.624735
    33 17.597597 0.000000 0.000000 -0.224764 -0.369532 -0.704498
  time 6
    0 0.239254 12.148959 17.525448 -0.263894 0.821818 -5.098468
    1 0.675798 -0.007813 0.000000 -1.570795 -1.570787 0.000000
    2 1.293670 0.684478 -0.000001 -0.069775 0.000634 0.009520
    3 5.309685 -0.003834 0.000000 0.000000 0.000000 -0.069778
    4 4.826790 -0.004591 0.000000 -0.078491 0.000060 -0.000012
    5 5.792767 -0.005304 0.000000 0.000000 0.000000 0.017444
    6 6.662322 -0.001452 0.000000 0.000000 -0.000001 0.471000
    7 -3.108188 1.516823 4.339626 -0.000100 -1.370787 -3.613335
    8 4.827512 0.000000 -0.000002 0.484037 0.473945 1.791903
    9 11.140032 0.000000 0.000000 0.000000 0.000000 -0.287177
    10 10.314563 -0.000001 0.000001 -1.569942 0.000000 -0.069778
    11 1.646836 0.445664 -1.699647 0.153911 0.442352 0.277231
    12 0.928312 0.000000 0.000000 0.000000 0.000000 0.000000
    13 0.928313 0.000000 -0.000001 0.000000 0.000000 0.000000
    14 2.979373 -0.388274 -0.044205 -0.000805 -0.043611 0.000046
    15 1.435262 -0.000001 -0.000001 0.000000 0.000000 0.793619
    16 1.482593 -0.000001 0.000001 0.000000 0.000000 1.465220
    17 -2.869899 1.399667 -4.140396 0.000026 1.370769 -3.613362
    18 4.972047 0.000000 0.000000 0.533948 -0.653212 -0.399050
    19 11.585358 0.000000 0.000001 0.000000 0.000000 -0.217414
    20 10.127058 0.000000 0.000001 1.569752 0.000000 -0.069778
    21 1.537458 0.109715 1.664489 -0.233165 -0.412999 0.435664
    22 0.928313 0.000000 0.000002 0.000000 0.000000 0.000000
    23 0.928311 0.000000 0.000001 0.000000 0.000000 0.000000
    24 2.686395 -0.427337 0.044204 0.001045 0.043611 0.000046
    25 1.435260 0.000000 0.000001 0.000000 0.000000 0.915779
    26 1.482593 0.000000 -0.000001 0.000000 0.000000 1.526289
    27 2.046984 0.000001 0.000000 0.141700 0.084557 -0.962258
    28 -0.000005 0.000007 3.713254 -0.959758 3.000975 0.119818
    29 18.045723 0.000000 0.000000 0.000000 0.000000 -0.601171
    30 17.597597 0.000000 0.000000 0.090680 0.805682 -0.677582
    31 0.000005 -0.000003 -3.713254 0.661452 3.023927 6.020933
    32 18.045721 0.000000 0.000000 0.000000 0.000000 -0.629143
    33 17.597597 0.000000 0.000000 -0.239057 -0.419925 -0.739832
  time 7
    0 0.235347 17.492872 14.876930 -0.757776 0.716062 -5.728750
    1 0.675798 -0.007813 0.000000 -1.570795 -1.570787 0.000000
    2 1.293670 0.684478 -0.000001 -0.069775 0.000634 0.009520
    3 5.309685 -0.003834 0.000000 0.000000 0.000000 -0.069778
    4 4.826790 -0.004591 0.000000 -0.078491 0.000060 -0.000012
    5 5.792767 -0.005304 0.000000 0.000000 0.000000 0.017444
    6 6.662322 -0.001452 0.000000 0.000000 -0.000001 0.471000
    7 -3.108188 1.516823 4.339626 -0.000100 -1.370787 -3.613335
    8 4.827512 0.000000 -0.000002 0.496394 0.472239 1.802128
    9 11.140032 0.000000 0.000000 0.000000 0.000000 -0.287177
    10 10.314563 -0.000001 0.000001 -1.569942 0.000000 -0.069778
    11 1.646836 0.445664 -1.699647 0.153911 0.442352 0.277231
    12 0.928312 0.000000 0.000000 0.000000 0.000000 0.000000
    13 0.928313 0.000000 -0.000001 0.000000 0.000000 0.000000
    14 2.979373 -0.388274 -0.044205 -0.000805 -0.043611 0.000046
    15 1.435262 -0.000001 -0.000001 0.000000 0.000000 0.793619
    16 1.482593 -0.000001 0.000001 0.000000 0.000000 1.465220
    17 -2.869899 1.399667 -4.140396 0.000026 1.370769 -3.613362
    18 4.972047 0.000000 0.000000 0.643786 -0.557274 -0.585738
    19 11.585358 0.000000 0.000001 0.000000 0.000000 -0.217414
    20 10.127058 0.000000 0.000001 1.569752 0.000000 -0.069778
    21 1.537458 0.109715 1.664489 -0.233165 -0.412999 0.435664
    22 0.928313 0.000000 0.000002 0.000000 0.000000 0.000000
    23 0.928311 0.000000 0.000001 0.000000 0.000000 0.000000
    24 2.686395 -0.427337 0.044204 0.001045 0.043611 0.000046
    25 1.435260 0.000000 0.000001 0.000000 0.000000 0.915779
    26 1.482593 0.000000 -0.000001 0.000000 0.000000 1.526289
    27 2.046984 0.000001 0.000000 0.141700 0.084557 -0.962258
    28 -0.000005 0.000007 3.713254 -0.984206 3.044118 0.109657
    29 18.045723 0.000000 0.000000 0.000000 0.000000 -0.601171
    30 17.597597 0.000000 0.000000 0.122633 0.823647 -0.695829
    31 0.000005 -0.000003 -3.713254 0.679471 3.016737 5.976737
    32 18.045721 0.000000 0.000000 0.000000 0.000000 -0.637645
    33 17.597597 0.000000 0.000000 -0.241272 -0.446434 -0.772164
  time 8
    0 0.235347 23.051636 10.810399 -1.058016 0.417228 -6.127783
    1 0.675798 -0.007813 0.000000 -1.570795 -1.570787 0.000000
    2 1.293670 0.684478 -0.000001 -0.069775 0.000634 0.009520
    3 5.309685 -0.003834 0.000000 0.000000 0.000000 -0.069778
    4 4.826790 -0.004591 0.000000 -0.078491 0.000060 -0.000012
    5 5.792767 -0.005304 0.000000 0.000000 0.000000 0.017444
    6 6.662322 -0.001452 0.000000 0.000000 -0.000001 0.471000
    7 -3.108188 1.516823 4.339626 -0.000100 -1.370787 -3.613335
    8 4.827512 0.000000 -0.000002 0.504844 0.478208 1.798922
    9 11.140032 0.000000 0.000000 0.000000 0.000000 -0.287177
    10 10.314563 -0.000001 0.000001 -1.569942 0.000000 -0.069778
    11 1.646836 0.445664 -1.699647 0.153911 0.442352 0.277231
    12 0.928312 0.000000 0.000000 0.000000 0.000000 0.000000
    13 0.928313 0.000000 -0.000001 0.000000 0.000000 0.000000
    14 2.979373 -0.388274 -0.044205 -0.000805 -0.043611 0.000046
    15 1.435262 -0.000001 -0.000001 0.000000 0.000000 0.793619
    16 1.482593 -0.000001 0.000001 0.000000 0.000000 1.465220
    17 -2.869899 1.399667 -4.140396 0.000026 1.370769 -3.613362
    18 4.972047 0.000000 0.000000 0.735427 -0.433616 -0.769697
    19 11.585358 0.000000 0.000001 0.000000 0.000000 -0.217414
    20 10.127058 0.000000 0.000001 1.569752 0.000000 -0.069778
    21 1.537458 0.109715 1.664489 -0.233165 -0.412999 0.435664
    22 0.928313 0.000000 0.000002 0.000000 0.000000 0.000000
    23 0.928311 0.000000 0.000001 0.000000 0.000000 0.000000
    24 2.686395 -0.427337 0.044204 0.001045 0.043611 0.000046
    25 1.435260 0.000000 0.000001 0.000000 0.000000 0.915779
    26 1.482593 0.000000 -0.000001 0.000000 0.000000 1.526289
    27 2.046984 0.000001 0.000000 0.141700 0.084557 -0.962258
    28 -0.000005 0.000007 3.713254 -0.884784 3.006823 0.205708
    29 18.045723 0.000000 0.000000 0.000000 0.000000 -0.601171
    30 17.597597 0.000000 0.000000 0.154941 0.722502 -0.586301
    31 0.000005 -0.000003 -3.713254 0.660877 3.022872 5.943374
    32 18.045721 0.000000 0.000000 0.000000 0.000000 -0.646461
    33 17.597597 0.000000 0.000000 -0.231139 -0.436079 -0.795581
  time 9
    0 0.239254 27.692402 6.091505 -1.171884 0.019954 -0.028469
    1 0.675798 -0.007813 0.000000 -1.570795 -1.570787 0.000000
    2 1.293670 0.684478 -0.000001 -0.069775 0.000634 0.009520
    3 5.309685 -0.003834 0.000000 0.000000 0.000000 -0.069778
    4 4.826790 -0.004591 0.000000 -0.078491 0.000060 -0.000012
    5 5.792767 -0.005304 0.000000 0.000000 0.000000 0.017444
    6 6.662322 -0.001452 0.000000 0.000000 -0.000001 0.471000
    7 -3.108188 1.516823 4.339626 -0.000100 -1.370787 -3.613335
    8 4.827512 0.000000 -0.000002 0.499104 0.501317 1.762615
    9 11.140032 0.000000 0.000000 0.000000 0.000000 -0.287177
    10 10.314563 -0.000001 0.000001 -1.569942 0.000000 -0.069778
    11 1.646836 0.445664 -1.699647 0.153911 0.442352 0.277231
    12 0.928312 0.000000 0.000000 0.000000 0.000000 0.000000
    13 0.928313 0.000000 -0.000001 0.000000 0.000000 0.000000
    14 2.979373 -0.388274 -0.044205 -0.000805 -0.043611 0.000046
    15 1.435262 -0.000001 -0.000001 0.000000 0.000000 0.793619
    16 1.482593 -0.000001 0.000001 0.000000 0.000000 1.465220
    17 -2.869899 1.399667 -4.140396 0.000026 1.370769 -3.613362
    18 4.972047 0.000000 0.000000 0.802868 -0.284970 -0.947799
    19 11.585358 0.000000 0.000001 0.000000 0.000000 -0.217414
    20 10.127058 0.000000 0.000001 1.569752 0.000000 -0.069778
    21 1.537458 0.109715 1.664489 -0.233165 -0.412999 0.435664
    22 0.928313 0.000000 0.000002 0.000000 0.000000 0.000000
    23 0.928311 0.000000 0.000001 0.000000 0.000000 0.000000
    24 2.686395 -0.427337 0.044204 0.001045 0.043611 0.000046
    25 1.435260 0.000000 0.000001 0.000000 0.000000 0.915779
    26 1.482593 0.000000 -0.000001 0.000000 0.000000 1.526289
    27 2.046984 0.000001 0.000000 0.141700 0.084557 -0.962258
    28 -0.000005 0.000007 3.713254 -0.620556 2.932904 0.408258
    29 18.045723 0.000000 0.000000 0.000000 0.000000 -0.601171
    30 17.597597 0.000000 0.000000 0.118655 0.481574 -0.409606
    31 0.000005 -0.000003 -3.713254 0.623211 3.037444 5.919791
    32 18.045721 0.000000 0.000000 0.000000 0.000000 -0.651027
    33 17.597597 0.000000 0.000000 -0.218423 -0.403910 -0.807914
  time 10
    0 0.239254 31.704244 1.110884 -1.200022 -0.417988 -0.098300
    1 0.675798 -0.007813 0.000000 -1.570795 -1.570787 0.000000
    2 1.293670 0.684478 -0.000001 -0.069775 0.000634 0.009520
    3 5.309685 -0.003834 0.000000 0.000000 0.000000 -0.069778
    4 4.826790 -0.004591 0.000000 -0.078491 0.000060 -0.000012
    5 5.792767 -0.005304 0.000000 0.000000 0.000000 0.017444
    6 6.662322 -0.001452 0.000000 0.000000 -0.000001 0.471000
    7 -3.108188 1.516823 4.339626 -0.000100 -1.370787 -3.613335
    8 4.827512 0.000000 -0.000002 0.443541 0.560071 1.638878
    9 11.140032 0.000000 0.000000 0.000000 0.000000 -0.287177
    10 10.314563 -0.000001 0.000001 -1.569942 0.000000 -0.069778
    11 1.646836 0.445664 -1.699647 0.153911 0.442352 0.277231
    12 0.928312 0.000000 0.000000 0.000000 0.000000 0.000000
    13 0.928313 0.000000 -0.000001 0.000000 0.000000 0.000000
    14 2.979373 -0.388274 -0.044205 -0.000805 -0.043611 0.000046
    15 1.435262 -0.000001 -0.000001 0.000000 0.000000 0.793619
    16 1.482593 -0.000001 0.000001 0.000000 0.000000 1.465220
    17 -2.869899 1.399667 -4.140396 0.000026 1.370769 -3.613362
    18 4.972047 0.000000 0.000000 0.835510 -0.152875 -1.082507
    19 11.585358 0.000000 0.000001 0.000000 0.000000 -0.217414
    20 10.127058 0.000000 0.000001 1.569752 0.000000 -0.069778
    21 1.537458 0.109715 1.664489 -0.233165 -0.412999 0.435664
    22 0.928313 0.000000 0.000002 0.000000 0.000000 0.000000
    23 0.928311 0.000000 0.000001 0.000000 0.000000 0.000000
    24 2.686395 -0.427337 0.044204 0.001045 0.043611 0.000046
    25 1.435260 0.000000 0.000001 0.000000 0.000000 0.915779
    26 1.482593 0.000000 -0.000001 0.000000 0.000000 1.526289
    27 2.046984 0.000001 0.000000 0.141700 0.084557 -0.962258
    28 -0.000005 0.000007 3.713254 -0.470130 2.943738 0.444781
    29 18.045723 0.000000 0.000000 0.000000 0.000000 -0.601171
    30 17.597597 0.000000 0.000000 0.061413 0.345557 -0.407681
    31 0.000005 -0.000003 -3.713254 0.575003 3.057097 5.901671
    32 18.045721 0.000000 0.000000 0.000000 0.000000 -0.654648
    33 17.597597 0.000000 0.000000 -0.204533 -0.360143 -0.812579
  time 11
    0 0.235347 35.946560 -3.760358 -1.211184 -0.862201 -0.113501
    1 0.675798 -0.007813 0.000000 -1.570795 -1.570787 0.000000
    2 1.293670 0.684478 -0.000001 -0.069775 0.000634 0.009520
    3 5.309685 -0.003834 0.000000 0.000000 0.000000 -0.069778
    4 4.826790 -0.004591 0.000000 -0.078491 0.000060 -0.000012
    5 5.792767 -0.005304 0.000000 0.000000 0.000000 0.017444
    6 6.662322 -0.001452 0.000000 0.000000 -0.000001 0.471000
    7 -3.108188 1.516823 4.339626 -0.000100 -1.370787 -3.613335
    8 4.827512 0.000000 -0.000002 -0.484922 0.619166 0.317980
    9 11.140032 0.000000 0.000000 0.000000 0.000000 -0.287177
    10 10.314563 -0.000001 0.000001 -1.569942 0.000000 -0.069778
    11 1.646836 0.445664 -1.699647 0.153911 0.442352 0.277231
    12 0.928312 0.000000 0.000000 0.000000 0.000000 0.000000
    13 0.928313 0.000000 -0.000001 0.000000 0.000000 0.000000
    14 2.979373 -0.388274 -0.044205 -0.000805 -0.043611 0.000046
    15 1.435262 -0.000001 -0.000001 0.000000 0.000000 0.793619
    16 1.482593 -0.000001 0.000001 0.000000 0.000000 1.465220
    17 -2.869899 1.399667 -4.140396 0.000026 1.370769 -3.613362
    18 4.972047 0.000000 0.000000 0.828850 -0.213861 -1.030993
    19 11.585358 0.000000 0.000001 0.000000 0.000000 -0.217414
    20 10.127058 0.000000 0.000001 1.569752 0.000000 -0.069778
    21 1.537458 0.109715 1.664489 -0.233165 -0.412999 0.435664
    22 0.928313 0.000000 0.000002 0.000000 0.000000 0.000000
    23 0.928311 0.000000 0.000001 0.000000 0.000000 0.000000
    24 2.686395 -0.427337 0.044204 0.001045 0.043611 0.000046
    25 1.435260 0.000000 0.000001 0.000000 0.000000 0.915779
    26 1.482593 0.000000 -0.000001 0.000000 0.000000 1.526289
    27 2.046984 0.000001 0.000000 0.141700 0.084557 -0.962258
    28 -0.000005 0.000007 3.713254 -0.472623 3.000399 0.312974
    29 18.045723 0.000000 0.000000 0.000000 0.000000 -0.629889
    30 17.597597 0.000000 0.000000 0.050339 0.362168 -0.472508
    31 0.000005 -0.000003 -3.713254 0.515677 3.082118 5.886811
    32 18.045721 0.000000 0.000000 0.000000 0.000000 -0.658741
    33 17.597597 0.000000 0.000000 -0.188461 -0.304582 -0.810269
  time 12
    0 0.235347 40.122469 -8.295653 -1.271917 -1.320097 -0.046806
    1 0.675798 -0.007813 0.000000 -1.570795 -1.570787 0.000000
    2 1.293670 0.684478 -0.000001 -0.069775 0.000634 0.009520
    3 5.309685 -0.003834 0.000000 0.000000 0.000000 -0.069778
    4 4.826790 -0.004591 0.000000 -0.078491 0.000060 -0.000012
    5 5.792767 -0.005304 0.000000 0.000000 0.000000 0.017444
    6 6.662322 -0.001452 0.000000 0.000000 -0.000001 0.471000
    7 -3.108188 1.516823 4.339626 -0.000100 -1.370787 -3.613335
    8 4.827512 0.000000 -0.000002 -0.698962 0.002296 -0.679020
    9 11.140032 0.000000 0.000000 0.000000 0.000000 -0.287177
    10 10.314563 -0.000001 0.000001 -1.569942 0.000000 -0.069778
    11 1.646836 0.445664 -1.699647 0.153911 0.442352 0.277231
    12 0.928312 0.000000 0.000000 0.000000 0.000000 0.000000
    13 0.928313 0.000000 -0.000001 0.000000 0.000000 0.000000
    14 2.979373 -0.388274 -0.044205 -0.000805 -0.043611 0.000046
    15 1.435262 -0.000001 -0.000001 0.000000 0.000000 0.793619
    16 1.482593 -0.000001 0.000001 0.000000 0.000000 1.465220
    17 -2.869899 1.399667 -4.140396 0.000026 1.370769 -3.613362
    18 4.972047 0.000000 0.000000 0.705693 -0.534294 -0.690363
    19 11.585358 0.000000 0.000001 0.000000 0.000000 -0.217414
    20 10.127058 0.000000 0.000001 1.569752 0.000000 -0.069778
    21 1.537458 0.109715 1.664489 -0.233165 -0.412999 0.435664
    22 0.928313 0.000000 0.000002 0.000000 0.000000 0.000000
    23 0.928311 0.000000 0.000001 0.000000 0.000000 0.000000
    24 2.686395 -0.427337 0.044204 0.001045 0.043611 0.000046
    25 1.435260 0.000000 0.000001 0.000000 0.000000 0.915779
    26 1.482593 0.000000 -0.000001 0.000000 0.000000 1.526289
    27 2.046984 0.000001 0.000000 0.141700 0.084557 -0.962258
    28 -0.000005 0.000007 3.713254 -0.499563 3.070388 0.149342
    29 18.045723 0.000000 0.000000 0.000000 0.000000 -0.661271
    30 17.597597 0.000000 0.000000 0.048793 0.410575 -0.565395
    31 0.000005 -0.000003 -3.713254 0.441207 3.114425 5.874540
    32 18.045721 0.000000 0.000000 0.000000 0.000000 -0.665511
    33 17.597597 0.000000 0.000000 -0.168398 -0.234149 -0.798445
  time 13
    0 0.235347 43.903835 -12.881730 -1.015339 -1.817235 -0.278340
    1 0.675798 -0.007813 0.000000 -1.570795 -1.570787 0.000000
    2 1.293670 0.684478 -0.000001 -0.069775 0.000634 0.009520
    3 5.309685 -0.003834 0.000000 0.000000 0.000000 -0.069778
    4 4.826790 -0.004591 0.000000 -0.078491 0.000060 -0.000012
    5 5.792767 -0.005304 0.000000 0.000000 0.000000 0.017444
    6 6.662322 -0.001452 0.000000 0.000000 -0.000001 0.471000
    7 -3.108188 1.516823 4.339626 -0.000100 -1.370787 -3.613335
    8 4.827512 0.000000 -0.000002 -0.419714 0.238845 -0.600428
    9 11.140032 0.000000 0.000000 0.000000 0.000000 -0.589018
    10 10.314563 -0.000001 0.000001 -1.569942 0.000000 -0.069778
    11 1.646836 0.445664 -1.699647 0.153911 0.442352 0.277231
    12 0.928312 0.000000 0.000000 0.000000 0.000000 0.000000
    13 0.928313 0.000000 -0.000001 0.000000 0.000000 0.000000
    14 2.979373 -0.388274 -0.044205 -0.000805 -0.043611 0.000046
    15 1.435262 -0.000001 -0.000001 0.000000 0.000000 0.793619
    16 1.482593 -0.000001 0.000001 0.000000 0.000000 1.465220
    17 -2.869899 1.399667 -4.140396 0.000026 1.370769 -3.613362
    18 4.972047 0.000000 0.000000 0.705693 -0.534294 -0.690363
    19 11.585358 0.000000 0.000001 0.000000 0.000000 -0.217414
    20 10.127058 0.000000 0.000001 1.569752 0.000000 -0.069778
    21 1.537458 0.109715 1.664489 -0.233165 -0.412999 0.435664
    22 0.928313 0.000000 0.000002 0.000000 0.000000 0.000000
    23 0.928311 0.000000 0.000001 0.000000 0.000000 0.000000
    24 2.686395 -0.427337 0.044204 0.001045 0.043611 0.000046
    25 1.435260 0.000000 0.000001 0.000000 0.000000 0.915779
    26 1.482593 0.000000 -0.000001 0.000000 0.000000 1.526289
    27 2.046984 0.000001 0.000000 0.141700 0.084557 -0.962258
    28 -0.000005 0.000007 3.713254 -0.526312 3.150443 6.251070
    29 18.045723 0.000000 0.000000 0.000000 0.000000 -0.695244
    30 17.597597 0.000000 0.000000 0.048667 0.471705 -0.669238
    31 0.000005 -0.000003 -3.713254 0.353799 -3.130441 5.865337
    32 18.045721 0.000000 0.000000 0.000000 0.000000 -0.680546
    33 17.597597 0.000000 0.000000 -0.143570 -0.151212 -0.771979
  time 14
    0 0.243160 46.997679 -18.038137 -1.090938 -2.297175 -0.181052
    1 0.675798 -0.007813 0.000000 -1.570795 -1.570787 0.000000
    2 1.293670 0.684478 -0.000001 -0.069775 0.000634 0.009520
    3 5.309685 -0.003834 0.000000 0.000000 0.000000 -0.069778
    4 4.826790 -0.004591 0.000000 -0.078491 0.000060 -0.000012
    5 5.792767 -0.005304 0.000000 0.000000 0.000000 0.017444
    6 6.662322 -0.001452 0.000000 0.000000 -0.000001 0.471000
    7 -3.108188 1.516823 4.339626 -0.000100 -1.370787 -3.613335
    8 4.827512 0.000000 -0.000002 -0.024317 0.509163 -0.245855
    9 11.140032 0.000000 0.000000 0.000000 0.000000 -0.906799
    10 10.314563 -0.000001 0.000001 -1.569942 0.000000 -0.069778
    11 1.646836 0.445664 -1.699647 0.153911 0.442352 0.277231
    12 0.928312 0.000000 0.000000 0.000000 0.000000 0.000000
    13 0.928313 0.000000 -0.000001 0.000000 0.000000 0.000000
    14 2.979373 -0.388274 -0.044205 -0.000805 -0.043611 0.000046
    15 1.435262 -0.000001 -0.000001 0.000000 0.000000 0.793619
    16 1.482593 -0.000001 0.000001 0.000000 0.000000 1.465220
    17 -2.869899 1.399667 -4.140396 0.000026 1.370769 -3.613362
    18 4.972047 0.000000 0.000000 0.705693 -0.534294 -0.690363
    19 11.585358 0.000000 0.000001 0.000000 0.000000 -0.217414
    20 10.127058 0.000000 0.000001 1.569752 0.000000 -0.069778
    21 1.537458 0.109715 1.664489 -0.233165 -0.412999 0.435664
    22 0.928313 0.000000 0.000002 0.000000 0.000000 0.000000
    23 0.928311 0.000000 0.000001 0.000000 0.000000 0.000000
    24 2.686395 -0.427337 0.044204 0.001045 0.043611 0.000046
    25 1.435260 0.000000 0.000001 0.000000 0.000000 0.915779
    26 1.482593 0.000000 -0.000001 0.000000 0.000000 1.526289
    27 2.046984 0.000001 0.000000 0.141700 0.084557 -0.962258
    28 -0.000005 0.000007 3.713254 -0.544432 -3.035672 6.025609
    29 18.045723 0.000000 0.000000 0.000000 0.000000 -0.737136
    30 17.597597 0.000000 0.000000 0.045854 0.546445 -0.789861
    31 0.000005 -0.000003 -3.713254 0.277509 -3.097367 5.855750
    32 18.045721 0.000000 0.000000 0.000000 0.000000 -0.716835
    33 17.597597 0.000000 0.000000 -0.119849 -0.079497 -0.726715
  time 15
    0 0.243160 49.075867 -22.604683 -1.105758 -2.697965 -0.153689
    1 -3.199320 0.347667 0.000000 -1.570795 -1.570787 0.000000
    2 1.293670 0.684478 -0.000001 -0.069775 0.000634 0.009520
    3 5.309685 -0.003834 0.000000 0.000000 0.000000 0.340142
    4 4.826790 -0.004591 0.000000 -0.063518 0.046129 0.626512
    5 5.792767 -0.005304 0.000000 0.433576 -0.048118 0.102737
    6 6.662322 -0.001452 0.000000 0.000000 -0.000001 0.471000
    7 -3.108188 1.516823 4.339626 -0.000100 -1.370787 -3.613335
    8 4.827512 0.000000 -0.000002 -0.600193 0.455696 -0.946250
    9 11.140032 0.000000 0.000000 0.000000 0.000000 -1.261313
    10 10.314563 -0.000001 0.000001 -1.569942 0.000000 -0.069778
    11 1.646836 0.445664 -1.699647 0.153911 0.442352 0.277231
    12 0.928312 0.000000 0.000000 0.000000 0.000000 0.000000
    13 0.928313 0.000000 -0.000001 0.000000 0.000000 0.000000
    14 2.979373 -0.388274 -0.044205 -0.000805 -0.043611 0.000046
    15 1.435262 -0.000001 -0.000001 0.000000 0.000000 0.793619
    16 1.482593 -0.000001 0.000001 0.000000 0.000000 1.465220
    17 -2.869899 1.399667 -4.140396 0.000026 1.370769 -3.613362
    18 4.972047 0.000000 0.000000 1.486097 0.346738 -0.703474
    19 11.585358 0.000000 0.000001 0.000000 0.000000 -0.217414
    20 10.127058 0.000000 0.000001 1.569752 0.000000 -0.069778
    21 1.537458 0.109715 1.664489 -0.233165 -0.412999 0.435664
    22 0.928313 0.000000 0.000002 0.000000 0.000000 0.000000
    23 0.928311 0.000000 0.000001 0.000000 0.000000 0.000000
    24 2.686395 -0.427337 0.044204 0.001045 0.043611 0.000046
    25 1.435260 0.000000 0.000001 0.000000 0.000000 0.915779
    26 1.482593 0.000000 -0.000001 0.000000 0.000000 1.526289
    27 2.046984 0.000001 0.000000 -0.298349 -0.163361 -0.719369
    28 -0.000005 0.000007 3.713254 -0.537050 -2.962232 5.780018
    29 18.045723 0.000000 0.000000 0.000000 0.000000 -0.782729
    30 17.597597 0.000000 0.000000 0.032424 0.602407 -0.873166
    31 0.000005 -0.000003 -3.713254 0.268691 -3.114623 5.826606
    32 18.045721 0.000000 0.000000 0.000000 0.000000 -1.078309
    33 17.597597 0.000000 0.000000 -0.105187 -0.068846 -0.391250
  time 16
    0 0.239254 49.845422 -26.655588 -1.081418 -2.913562 -0.140293
    1 -4.957187 -2.007874 0.000000 -1.570795 -1.570787 0.000000
    2 1.293670 0.684478 -0.000001 0.106336 -0.060068 0.512169
    3 5.309685 -0.003834 0.000000 0.194301 -0.237918 0.300187
    4 4.826790 -0.004591 0.000000 -0.077270 -0.013543 -0.173885
    5 5.792767 -0.005304 0.000000 0.433576 -0.048118 0.102737
    6 6.662322 -0.001452 0.000000 0.000000 -0.000001 0.471000
    7 -3.108188 1.516823 4.339626 -0.000100 -1.370787 -3.613335
    8 4.827512 0.000000 -0.000002 0.470964 0.396942 -0.367425
    9 11.140032 0.000000 0.000000 0.000000 0.000000 -1.639085
    10 10.314563 -0.000001 0.000001 -1.569942 0.000000 -0.069778
    11 1.646836 0.445664 -1.699647 0.153911 0.442352 0.277231
    12 0.928312 0.000000 0.000000 0.000000 0.000000 0.000000
    13 0.928313 0.000000 -0.000001 0.000000 0.000000 0.000000
    14 2.979373 -0.388274 -0.044205 -0.000805 -0.043611 0.000046
    15 1.435262 -0.000001 -0.000001 0.000000 0.000000 0.793619
    16 1.482593 -0.000001 0.000001 0.000000 0.000000 1.465220
    17 -2.869899 1.399667 -4.140396 0.000026 1.370769 -3.613362
    18 4.972047 0.000000 0.000000 1.715247 -0.290755 -0.423476
    19 11.585358 0.000000 0.000001 0.000000 0.000000 -0.564962
    20 10.127058 0.000000 0.000001 1.569752 0.000000 -0.069778
    21 1.537458 0.109715 1.664489 -0.233165 -0.412999 0.435664
    22 0.928313 0.000000 0.000002 0.000000 0.000000 0.000000
    23 0.928311 0.000000 0.000001 0.000000 0.000000 0.000000
    24 2.686395 -0.427337 0.044204 0.001045 0.043611 0.000046
    25 1.435260 0.000000 0.000001 0.000000 0.000000 0.915779
    26 1.482593 0.000000 -0.000001 0.000000 0.000000 1.526289
    27 2.046984 0.000001 0.000000 -0.657230 0.329347 -0.618393
    28 -0.000005 0.000007 3.713254 -0.552965 3.017753 5.546984
    29 18.045723 0.000000 0.000000 0.000000 0.000000 -0.828915
    30 17.597597 0.000000 0.000000 -0.105753 0.583064 -0.366418
    31 0.000005 -0.000003 -3.713254 0.156077 2.914543 5.933979
    32 18.045721 0.000000 0.000000 0.000000 0.000000 -1.222993
    33 17.597597 0.000000 0.000000 0.088775 0.087699 -0.196983
  time 17
    0 0.239254 49.845422 -26.889970 -1.081418 -2.913562 -0.140293
    1 -4.957187 -2.007874 0.000000 -1.570795 -1.570787 0.000000
    2 1.293670 0.684478 -0.000001 0.106336 -0.060068 0.512169
    3 5.309685 -0.003834 0.000000 0.194301 -0.237918 0.300187
    4 4.826790 -0.004591 0.000000 -0.077270 -0.013543 -0.173885
    5 5.792767 -0.005304 0.000000 0.433576 -0.048118 0.102737
    6 6.662322 -0.001452 0.000000 0.000000 -0.000001 0.471000
    7 -3.108188 1.516823 4.339626 -0.000100 -1.370787 -3.613335
    8 4.827512 0.000000 -0.000002 0.470964 0.396942 -0.367425
    9 11.140032 0.000000 0.000000 0.000000 0.000000 -1.639085
    10 10.314563 -0.000001 0.000001 -1.569942 0.000000 -0.069778
    11 1.646836 0.445664 -1.699647 0.153911 0.442352 0.277231
    12 0.928312 0.000000 0.000000 0.000000 0.000000 0.000000
    13 0.928313 0.000000 -0.000001 0.000000 0.000000 0.000000
    14 2.979373 -0.388274 -0.044205 -0.000805 -0.043611 0.000046
    15 1.435262 -0.000001 -0.000001 0.000000 0.000000 0.793619
    16 1.482593 -0.000001 0.000001 0.000000 0.000000 1.465220
    17 -2.869899 1.399667 -4.140396 0.000026 1.370769 -3.613362
    18 4.972047 0.000000 0.000000 1.722844 -0.425421 -0.442910
    19 11.585358 0.000000 0.000001 0.000000 0.000000 -0.915450
    20 10.127058 0.000000 0.000001 1.569752 -0.095888 -0.069778
    21 1.537458 0.109715 1.664489 -0.233165 -0.412999 0.435664
    22 0.928313 0.000000 0.000002 0.000000 0.000000 0.000000
    23 0.928311 0.000000 0.000001 0.000000 0.000000 0.000000
    24 2.686395 -0.427337 0.044204 0.001045 0.043611 0.000046
    25 1.435260 0.000000 0.000001 0.000000 0.000000 0.915779
    26 1.482593 0.000000 -0.000001 0.000000 0.000000 1.526289
    27 2.046984 0.000001 0.000000 -0.683898 0.259306 -0.710488
    28 -0.000005 0.000007 3.713254 -0.651236 2.623517 5.384119
    29 18.045723 0.000000 0.000000 0.000000 0.000000 -0.856226
    30 17.597597 0.000000 0.000000 0.208838 0.173609 -0.464394
    31 0.000005 -0.000003 -3.713254 0.065506 2.641897 6.025055
    32 18.045721 0.000000 0.000000 0.000000 0.000000 -1.322414
    33 17.597597 0.000000 0.000000 0.271396 0.252983 -0.087425
  time 18
    0 0.239254 49.845422 -26.038382 -1.081418 -2.913562 -0.140293
    1 -4.437639 -1.796930 0.000000 -1.570795 -1.570787 0.000000
    2 1.293670 0.684478 -0.000001 0.106336 -0.060068 0.512169
    3 5.309685 -0.003834 0.000000 0.200563 -0.212607 0.170589
    4 4.826790 -0.004591 0.000000 -0.077270 -0.013543 -0.173885
    5 5.792767 -0.005304 0.000000 0.433576 -0.048118 0.102737
    6 6.662322 -0.001452 0.000000 0.000000 -0.000001 0.471000
    7 -3.108188 1.516823 4.339626 -0.000100 -1.370787 -3.613335
    8 4.827512 0.000000 -0.000002 0.840930 0.787752 0.139306
    9 11.140032 0.000000 0.000000 0.000000 0.000000 -1.909408
    10 10.314563 -0.000001 0.000001 -1.569942 0.000000 -0.069778
    11 1.646836 0.445664 -1.699647 0.153911 0.442352 0.277231
    12 0.928312 0.000000 0.000000 0.000000 0.000000 0.000000
    13 0.928313 0.000000 -0.000001 0.000000 0.000000 0.000000
    14 2.979373 -0.388274 -0.044205 -0.000805 -0.043611 0.000046
    15 1.435262 -0.000001 -0.000001 0.000000 0.000000 0.793619
    16 1.482593 -0.000001 0.000001 0.000000 0.000000 1.046586
    17 -2.869899 1.399667 -4.140396 0.000026 1.370769 -3.613362
    18 4.972047 0.000000 0.000000 1.621448 -0.639713 -0.404840
    19 11.585358 0.000000 0.000001 0.000000 0.000000 -1.230734
    20 10.127058 0.000000 0.000001 1.569752 -0.191303 -0.069778
    21 1.537458 0.109715 1.664489 -0.233165 -0.412999 0.435664
    22 0.928313 0.000000 0.000002 0.000000 0.000000 0.000000
    23 0.928311 0.000000 0.000001 0.000000 0.000000 0.000000
    24 2.686395 -0.427337 0.044204 0.001045 0.043611 0.000046
    25 1.435260 0.000000 0.000001 0.000000 0.000000 0.915779
    26 1.482593 0.000000 -0.000001 0.000000 0.000000 1.526289
    27 2.046984 0.000001 0.000000 -0.687302 0.237798 -0.678431
    28 -0.000005 0.000007 3.713254 -0.651236 2.623517 5.384119
    29 18.045723 0.000000 0.000000 0.000000 0.000000 -0.856226
    30 17.597597 0.000000 0.000000 0.162619 0.130567 -0.433814
    31 0.000005 -0.000003 -3.713254 0.069148 2.554946 6.031958
    32 18.045721 0.000000 0.000000 0.000000 0.000000 -1.322414
    33 17.597597 0.000000 0.000000 0.182149 0.265941 -0.110334
  time 19
    0 0.239254 49.845422 -26.698558 -1.081418 -2.913562 -0.140293
    1 -4.648583 -1.839900 0.000000 -1.570795 -1.570787 0.000000
    2 1.293670 0.684478 -0.000001 0.106336 -0.060068 0.512169
    3 5.309685 -0.003834 0.000000 0.197891 -0.225226 0.234655
    4 4.826790 -0.004591 0.000000 -0.077270 -0.013543 -0.173885
    5 5.792767 -0.005304 0.000000 0.435951 -0.011589 0.024130
    6 6.662322 -0.001452 0.000000 0.000000 -0.000001 0.471000
    7 -3.108188 1.516823 4.339626 -0.000100 -1.370787 -3.613335
    8 4.827512 0.000000 -0.000002 1.520756 1.005882 0.962832
    9 11.140032 0.000000 0.000000 0.000000 0.000000 -2.179732
    10 10.314563 -0.000001 0.000001 -1.569942 0.000000 -0.069778
    11 1.646836 0.445664 -1.699647 0.153911 0.442352 0.277231
    12 0.928312 0.000000 0.000000 0.000000 0.000000 0.000000
    13 0.928313 0.000000 -0.000001 0.000000 0.000000 0.000000
    14 2.979373 -0.388274 -0.044205 -0.000805 -0.043611 0.000046
    15 1.435262 -0.000001 -0.000001 0.000000 0.000000 0.793619
    16 1.482593 -0.000001 0.000001 0.000000 0.000000 0.627951
    17 -2.869899 1.399667 -4.140396 0.000026 1.370769 -3.613362
    18 4.972047 0.000000 0.000000 1.582240 -0.721428 -0.361713
    19 11.585358 0.000000 0.000001 0.000000 0.000000 -1.473323
    20 10.127058 0.000000 0.000001 1.569752 -0.266482 -0.069778
    21 1.537458 0.109715 1.664489 -0.233165 -0.412999 0.435664
    22 0.928313 0.000000 0.000002 0.000000 0.000000 0.000000
    23 0.928311 0.000000 0.000001 0.000000 0.000000 0.000000
    24 2.686395 -0.427337 0.044204 0.001045 0.043611 0.000046
    25 1.435260 0.000000 0.000001 0.000000 0.000000 0.915779
    26 1.482593 0.000000 -0.000001 0.000000 0.000000 1.526289
    27 2.046984 0.000001 0.000000 -0.710093 0.148668 -0.728980
    28 -0.000005 0.000007 3.713254 -0.651236 2.623517 5.384119
    29 18.045723 0.000000 0.000000 0.000000 0.000000 -0.856226
    30 17.597597 0.000000 0.000000 0.042636 0.156358 -0.388471
    31 0.000005 -0.000003 -3.713254 0.067231 2.597990 6.028411
    32 18.045721 0.000000 0.000000 0.000000 0.000000 -1.322414
    33 17.597597 0.000000 0.000000 0.226437 0.259787 -0.098833
  time 20
    0 0.239254 49.845422 -27.327483 -1.081418 -2.913562 -0.140293
    1 -4.863434 -1.890683 0.000000 -1.570795 -1.570787 0.000000
    2 1.293670 0.684478 -0.000001 0.106336 -0.060068 0.512169
    3 5.309685 -0.003834 0.000000 0.194301 -0.237918 0.300187
    4 4.826790 -0.004591 0.000000 -0.077270 -0.013543 -0.173885
    5 5.792767 -0.005304 0.000000 0.435753 0.018073 -0.039571
    6 6.662322 -0.001452 0.000000 0.000000 -0.000001 0.471000
    7 -3.108188 1.516823 4.339626 -0.000100 -1.370787 -3.613335
    8 4.827512 0.000000 -0.000002 1.415211 1.009293 0.996712
    9 11.140032 0.000000 0.000000 0.000000 0.000000 -2.179732
    10 10.314563 -0.000001 0.000001 -1.569942 0.418621 -0.069778
    11 1.646836 0.445664 -1.699647 0.153911 0.442352 0.277231
    12 0.928312 0.000000 0.000000 0.000000 0.000000 0.000000
    13 0.928313 0.000000 -0.000001 0.000000 0.000000 0.000000
    14 2.979373 -0.388274 -0.044205 -0.000805 -0.043611 0.000046
    15 1.435262 -0.000001 -0.000001 0.000000 0.000000 0.793619
    16 1.482593 -0.000001 0.000001 0.000000 0.000000 0.627951
    17 -2.869899 1.399667 -4.140396 0.000026 1.370769 -3.613362
    18 4.972047 0.000000 0.000000 1.560010 -0.771807 -0.331230
    19 11.585358 0.000000 0.000001 0.000000 0.000000 -1.656449
    20 10.127058 0.000000 0.000001 1.569752 -0.322558 -0.069778
    21 1.537458 0.109715 1.664489 -0.233165 -0.412999 0.435664
    22 0.928313 0.000000 0.000002 0.000000 0.000000 0.000000
    23 0.928311 0.000000 0.000001 0.000000 0.000000 0.000000
    24 2.686395 -0.427337 0.044204 0.001045 0.043611 0.000046
    25 1.435260 0.000000 0.000001 0.000000 0.000000 0.915779
    26 1.482593 0.000000 -0.000001 0.000000 0.000000 1.526289
    27 2.046984 0.000001 0.000000 -0.720648 0.076237 -0.771620
    28 -0.000005 0.000007 3.713254 -0.651236 2.623517 5.384119
    29 18.045723 0.000000 0.000000 0.000000 0.000000 -0.856226
    30 17.597597 0.000000 0.000000 -0.042860 0.179097 -0.358304
    31 0.000005 -0.000003 -3.713254 0.065506 2.641897 6.025055
    32 18.045721 0.000000 0.000000 0.000000 0.000000 -1.322414
    33 17.597597 0.000000 0.000000 0.271396 0.252983 -0.087425
end
