version 1
nodes
  0 "Bip01" -1
  1 "Bip01 Pelvis" 0
  2 "Bip01 Spine" 1
  3 "Bip01 Spine1" 2
  4 "Bip01 Spine2" 3
  5 "Bip01 Spine3" 4
  6 "Bip01 Neck" 5
  7 "Bip01 L Arm" 6
  8 "Bip01 L Arm1" 7
  9 "Bip01 L Arm2" 8
  10 "Bip01 L Hand" 9
  11 "Bip01 L Finger0" 10
  12 "Bip01 L Finger01" 11
  13 "Bip01 L Finger02" 12
  14 "Bip01 L Finger1" 10
  15 "Bip01 L Finger11" 14
  16 "Bip01 L Finger12" 15
  17 "Bip01 R Arm" 6
  18 "Bip01 R Arm1" 17
  19 "Bip01 R Arm2" 18
  20 "Bip01 R Hand" 19
  21 "Bip01 R Finger0" 20
  22 "Bip01 R Finger01" 21
  23 "Bip01 R Finger02" 22
  24 "Bip01 R Finger1" 20
  25 "Bip01 R Finger11" 24
  26 "Bip01 R Finger12" 25
  27 "Bip01 Head" 6
  28 "Bip01 L Leg" 1
  29 "Bip01 L Leg1" 28
  30 "Bip01 L Foot" 29
  31 "Bip01 R Leg" 1
  32 "Bip01 R Leg1" 31
  33 "Bip01 R Foot" 32
end
skeleton
  time 0
    0 0.235347 0.218908 0.481959 0.000000 0.000000 -1.571017
    1 -0.871124 0.199225 0.000000 -1.570795 -1.570787 0.000000
    2 1.293670 0.684478 -0.000001 -0.069017 -0.010236 -0.147092
    3 5.309685 -0.003834 0.000000 -0.016507 0.005537 0.322655
    4 4.826790 -0.004591 0.000000 -0.077404 0.012967 0.165196
    5 5.792767 -0.005304 0.000000 0.000000 0.000000 0.313999
    6 6.662322 -0.001452 0.000000 0.000000 -0.000001 0.366359
    7 -3.244910 1.192594 4.339626 -0.000100 -1.370787 -3.508701
    8 4.827512 0.000000 -0.000002 -0.934526 0.280970 -1.021029
    9 11.140032 0.000000 0.000000 0.000000 0.000000 -0.287177
    10 10.314563 -0.000001 0.000001 -1.569942 0.000000 -0.069778
    11 1.646836 0.445664 -1.699647 0.153911 0.442352 0.277231
    12 0.928312 0.000000 0.000000 0.000000 0.000000 0.000000
    13 0.928313 0.000000 -0.000001 0.000000 0.000000 0.000000
    14 2.979373 -0.388274 -0.044205 -0.000805 -0.043611 0.000046
    15 1.435262 -0.000001 -0.000001 0.000000 0.000000 0.130929
    16 1.482593 -0.000001 0.000001 0.000000 0.000000 0.374986
    17 -2.994903 1.094970 -4.140396 0.000026 1.370769 -3.508770
    18 4.972047 0.000000 0.000000 0.989340 -0.275649 -0.927832
    19 11.585358 0.000000 0.000001 0.000000 0.000000 -0.688298
    20 10.127058 0.000000 0.000001 1.569752 0.000000 -0.069778
    21 1.537458 0.109715 1.664489 -0.233165 -0.412999 0.435664
    22 0.928313 0.000000 0.000002 0.000000 0.000000 0.000000
    23 0.928311 0.000000 0.000001 0.000000 0.000000 0.000000
    24 2.686395 -0.427337 0.044204 0.001045 0.043611 0.000046
    25 1.435260 0.000000 0.000001 0.000000 0.000000 0.331445
    26 1.482593 0.000000 -0.000001 0.000000 0.000000 0.000000
    27 2.046984 0.000001 0.000000 0.044548 -0.176254 0.387410
    28 -0.000005 0.000007 3.713254 -0.042916 -3.099620 5.770528
    29 18.045723 0.000000 0.000000 0.000000 0.000000 -0.748905
    30 17.597597 0.000000 0.000000 -0.098886 -0.015368 0.234911
    31 0.000005 -0.000003 -3.713254 0.222783 3.006479 6.021220
    32 18.045721 0.000000 0.000000 0.000000 0.000000 -0.771938
    33 17.597597 0.000000 0.000000 -0.015268 0.069672 0.486139
  time 1
    0 0.231441 1.476759 -1.303252 0.000000 0.000000 -1.571017
    1 -1.515675 0.253914 0.000000 -1.570795 -1.570787 0.000000
    2 1.293670 0.684478 -0.000001 -0.069236 -0.008426 -0.121311
    3 5.309685 -0.003834 0.000000 -0.016081 0.006663 0.392921
    4 4.826790 -0.004591 0.000000 -0.072616 0.012176 0.165262
    5 5.792767 -0.005304 0.000000 0.000000 0.000000 0.371346
    6 6.662322 -0.001452 0.000000 0.000000 -0.000001 0.366359
    7 -3.244910 1.192594 4.339626 0.199275 -1.366884 -3.704074
    8 4.827512 0.000000 -0.000002 -0.701433 0.219403 -1.075272
    9 11.140032 0.000000 0.000000 0.000000 0.000000 -0.580686
    10 10.314563 -0.000001 0.000001 -1.569942 0.000000 -0.069778
    11 1.646836 0.445664 -1.699647 0.153911 0.442352 0.277231
    12 0.928312 0.000000 0.000000 0.000000 0.000000 0.000000
    13 0.928313 0.000000 -0.000001 0.000000 0.000000 0.000000
    14 2.979373 -0.388274 -0.044205 -0.000805 -0.043611 0.000046
    15 1.435262 -0.000001 -0.000001 0.000000 0.000000 0.130929
    16 1.482593 -0.000001 0.000001 0.000000 0.000000 0.374986
    17 -2.994903 1.094970 -4.140396 -0.419263 1.352418 -3.918996
    18 4.972047 0.000000 0.000000 1.008944 -0.156732 -0.843440
    19 11.585358 0.000000 0.000001 0.000000 0.000000 -0.688298
    20 10.127058 0.000000 0.000001 1.569752 0.000000 -0.069778
    21 1.537458 0.109715 1.664489 -0.233165 -0.412999 0.435664
    22 0.928313 0.000000 0.000002 0.000000 0.000000 0.000000
    23 0.928311 0.000000 0.000001 0.000000 0.000000 0.000000
    24 2.686395 -0.427337 0.044204 0.001045 0.043611 0.000046
    25 1.435260 0.000000 0.000001 0.000000 0.000000 0.331445
    26 1.482593 0.000000 -0.000001 0.000000 0.000000 0.000000
    27 2.046984 0.000001 0.000000 0.049976 -0.169055 0.233331
    28 -0.000005 0.000007 3.713254 -0.036972 -3.097223 5.607088
    29 18.045723 0.000000 0.000000 0.000000 0.000000 -0.943637
    30 17.597597 0.000000 0.000000 -0.100178 -0.011357 0.266454
    31 0.000005 -0.000003 -3.713254 0.254219 2.984813 5.895344
    32 18.045721 0.000000 0.000000 0.000000 0.000000 -1.322414
    33 17.597597 0.000000 0.000000 -0.109246 0.070698 0.508587
  time 2
    0 0.231441 2.918209 -2.943927 0.000000 0.000000 -1.571017
    1 -2.109443 0.292978 0.000000 -1.570795 -1.570787 0.000000
    2 1.293670 0.684478 -0.000001 -0.069589 -0.004807 -0.068828
    3 5.309685 -0.003834 0.000000 -0.015911 0.007083 0.417438
    4 4.826790 -0.004591 0.000000 -0.067161 0.011266 0.165306
    5 5.792767 -0.005304 0.000000 0.000000 0.000000 0.394787
    6 6.662322 -0.001452 0.000000 0.000000 -0.000001 0.366359
    7 -3.244910 1.192594 4.339626 0.411877 -1.353075 -3.911904
    8 4.827512 0.000000 -0.000002 -0.421706 0.325995 -1.040352
    9 11.140032 0.000000 0.000000 0.000000 0.000000 -0.920492
    10 10.314563 -0.000001 0.000001 -1.569942 0.000000 -0.069778
    11 1.646836 0.445664 -1.699647 0.153911 0.442352 0.277231
    12 0.928312 0.000000 0.000000 0.000000 0.000000 0.000000
    13 0.928313 0.000000 -0.000001 0.000000 0.000000 0.000000
    14 2.979373 -0.388274 -0.044205 -0.000805 -0.043611 0.000046
    15 1.435262 -0.000001 -0.000001 0.000000 0.000000 0.130929
    16 1.482593 -0.000001 0.000001 0.000000 0.000000 0.374986
    17 -2.994903 1.094970 -4.140396 -0.770534 1.295473 -4.259974
    18 4.972047 0.000000 0.000000 1.012508 -0.197389 -0.735022
    19 11.585358 0.000000 0.000001 0.000000 0.000000 -0.688298
    20 10.127058 0.000000 0.000001 1.569752 0.000000 -0.069778
    21 1.537458 0.109715 1.664489 -0.233165 -0.412999 0.435664
    22 0.928313 0.000000 0.000002 0.000000 0.000000 0.000000
    23 0.928311 0.000000 0.000001 0.000000 0.000000 0.000000
    24 2.686395 -0.427337 0.044204 0.001045 0.043611 0.000046
    25 1.435260 0.000000 0.000001 0.000000 0.000000 0.331445
    26 1.482593 0.000000 -0.000001 0.000000 0.000000 0.000000
    27 2.046984 0.000001 0.000000 0.053337 -0.161561 0.132477
    28 -0.000005 0.000007 3.713254 -0.032370 -3.096361 5.468283
    29 18.045723 0.000000 0.000000 0.000000 0.000000 -1.070425
    30 17.597597 0.000000 0.000000 -0.101774 -0.007394 0.254671
    31 0.000005 -0.000003 -3.713254 0.295815 2.967461 5.802734
    32 18.045721 0.000000 0.000000 0.000000 0.000000 -1.589347
    33 17.597597 0.000000 0.000000 -0.178027 0.022908 0.259263
  time 3
    0 0.231441 4.387004 -4.381471 0.000000 0.000000 -1.571017
    1 -2.734462 0.335948 0.000000 -1.570795 -1.570787 0.000000
    2 1.293670 0.684478 -0.000001 -0.069775 -0.000816 -0.011674
    3 5.309685 -0.003834 0.000000 -0.015724 0.007466 0.443739
    4 4.826790 -0.004591 0.000000 -0.061152 0.010271 0.165372
    5 5.792767 -0.005304 0.000000 0.000000 0.000000 0.419993
    6 6.662322 -0.001452 0.000000 0.000000 -0.000001 0.366359
    7 -3.244910 1.192594 4.339626 0.606650 -1.328858 -4.101720
    8 4.827512 0.000000 -0.000002 -0.094628 0.428494 -0.935245
    9 11.140032 0.000000 0.000000 0.000000 0.000000 -1.289425
    10 10.314563 -0.000001 0.000001 -1.569942 0.000000 -0.069778
    11 1.646836 0.445664 -1.699647 0.153911 0.442352 0.277231
    12 0.928312 0.000000 0.000000 0.000000 0.000000 0.000000
    13 0.928313 0.000000 -0.000001 0.000000 0.000000 0.000000
    14 2.979373 -0.388274 -0.044205 -0.000805 -0.043611 0.000046
    15 1.435262 -0.000001 -0.000001 0.000000 0.000000 0.130929
    16 1.482593 -0.000001 0.000001 0.000000 0.000000 0.374986
    17 -2.994903 1.094970 -4.140396 -1.002103 1.210660 -4.480460
    18 4.972047 0.000000 0.000000 1.016916 -0.244393 -0.621744
    19 11.585358 0.000000 0.000001 0.000000 0.000000 -0.688298
    20 10.127058 0.000000 0.000001 1.569752 0.000000 -0.069778
    21 1.537458 0.109715 1.664489 -0.233165 -0.412999 0.435664
    22 0.928313 0.000000 0.000002 0.000000 0.000000 0.000000
    23 0.928311 0.000000 0.000001 0.000000 0.000000 0.000000
    24 2.686395 -0.427337 0.044204 0.001045 0.043611 0.000046
    25 1.435260 0.000000 0.000001 0.000000 0.000000 0.331445
    26 1.482593 0.000000 -0.000001 0.000000 0.000000 0.000000
    27 2.046984 0.000001 0.000000 0.055749 -0.153418 0.023472
    28 -0.000005 0.000007 3.713254 -0.028727 -3.097319 5.351143
    29 18.045723 0.000000 0.000000 0.000000 0.000000 -1.144588
    30 17.597597 0.000000 0.000000 -0.104232 -0.003211 0.211942
    31 0.000005 -0.000003 -3.713254 0.333864 2.948576 5.720478
    32 18.045721 0.000000 0.000000 0.000000 0.000000 -1.641143
    33 17.597597 0.000000 0.000000 -0.198024 0.001330 0.045920
  time 4
    0 0.231441 5.703450 -5.803389 0.000000 0.000000 -1.571017
    1 -3.351669 0.367199 0.000000 -1.570795 -1.570787 0.000000
    2 1.293670 0.684478 -0.000001 -0.069674 0.003295 0.047321
    3 5.309685 -0.003834 0.000000 -0.015503 0.007934 0.471683
    4 4.826790 -0.004591 0.000000 -0.054953 0.009204 0.165416
    5 5.792767 -0.005304 0.000000 0.000000 0.000000 0.446611
    6 6.662322 -0.001452 0.000000 0.000000 -0.000001 0.366359
    7 -3.244910 1.192594 4.339626 0.767300 -1.296272 -4.256946
    8 4.827512 0.000000 -0.000002 0.272788 0.494837 -0.756052
    9 11.140032 0.000000 0.000000 0.000000 0.000000 -1.672051
    10 10.314563 -0.000001 0.000001 -1.569942 0.000000 -0.069778
    11 1.646836 0.445664 -1.699647 0.153911 0.442352 0.277231
    12 0.928312 0.000000 0.000000 0.000000 0.000000 0.000000
    13 0.928313 0.000000 -0.000001 0.000000 0.000000 0.000000
    14 2.979373 -0.388274 -0.044205 -0.000805 -0.043611 0.000046
    15 1.435262 -0.000001 -0.000001 0.000000 0.000000 0.130929
    16 1.482593 -0.000001 0.000001 0.000000 0.000000 0.374986
    17 -2.994903 1.094970 -4.140396 -1.148649 1.111230 -4.614936
    18 4.972047 0.000000 0.000000 1.022263 -0.293005 -0.508800
    19 11.585358 0.000000 0.000001 0.000000 0.000000 -0.688298
    20 10.127058 0.000000 0.000001 1.569752 0.000000 -0.069778
    21 1.537458 0.109715 1.664489 -0.233165 -0.412999 0.435664
    22 0.928313 0.000000 0.000002 0.000000 0.000000 0.000000
    23 0.928311 0.000000 0.000001 0.000000 0.000000 0.000000
    24 2.686395 -0.427337 0.044204 0.001045 0.043611 0.000046
    25 1.435260 0.000000 0.000001 0.000000 0.000000 0.331445
    26 1.482593 0.000000 -0.000001 0.000000 0.000000 0.000000
    27 2.046984 0.000001 0.000000 0.057171 -0.145157 -0.090278
    28 -0.000005 0.000007 3.713254 -0.025755 -3.099045 5.245507
    29 18.045723 0.000000 0.000000 0.000000 0.000000 -1.199062
    30 17.597597 0.000000 0.000000 -0.107222 0.000702 0.160868
    31 0.000005 -0.000003 -3.713254 0.401816 2.922116 5.651836
    32 18.045721 0.000000 0.000000 0.000000 0.000000 -1.778900
    33 17.597597 0.000000 0.000000 -0.256907 -0.035119 -0.039851
  time 5
    0 0.239254 6.715200 -7.451877 0.000000 0.000000 -1.571017
    1 -3.679804 0.398450 0.000000 -1.570795 -1.570787 0.000000
    2 1.293670 0.684478 -0.000001 -0.069556 0.005512 0.079129
    3 5.309685 -0.003834 0.000000 -0.015366 0.008162 0.488375
    4 4.826790 -0.004591 0.000000 -0.051558 0.008665 0.165460
    5 5.792767 -0.005304 0.000000 0.000000 0.000000 0.462266
    6 6.662322 -0.001452 0.000000 0.000000 -0.000001 0.366359
    7 -3.244910 1.192594 4.339626 0.839765 -1.276018 -4.326414
    8 4.827512 0.000000 -0.000002 0.481646 0.503279 -0.636648
    9 11.140032 0.000000 0.000000 0.000000 0.000000 -1.881804
    10 10.314563 -0.000001 0.000001 -1.569942 0.000000 -0.069778
    11 1.646836 0.445664 -1.699647 0.153911 0.442352 0.277231
    12 0.928312 0.000000 0.000000 0.000000 0.000000 0.000000
    13 0.928313 0.000000 -0.000001 0.000000 0.000000 0.000000
    14 2.979373 -0.388274 -0.044205 -0.000805 -0.043611 0.000046
    15 1.435262 -0.000001 -0.000001 0.000000 0.000000 0.130929
    16 1.482593 -0.000001 0.000001 0.000000 0.000000 0.374986
    17 -2.994903 1.094970 -4.140396 -1.205872 1.054075 -4.665508
    18 4.972047 0.000000 0.000000 1.025921 -0.316306 -0.448368
    19 11.585358 0.000000 0.000001 0.000000 0.000000 -0.688298
    20 10.127058 0.000000 0.000001 1.569752 0.000000 -0.069778
    21 1.537458 0.109715 1.664489 -0.233165 -0.412999 0.435664
    22 0.928313 0.000000 0.000002 0.000000 0.000000 0.000000
    23 0.928311 0.000000 0.000001 0.000000 0.000000 0.000000
    24 2.686395 -0.427337 0.044204 0.001045 0.043611 0.000046
    25 1.435260 0.000000 0.000001 0.000000 0.000000 0.331445
    26 1.482593 0.000000 -0.000001 0.000000 0.000000 0.000000
    27 2.046984 0.000001 0.000000 0.057559 -0.140702 -0.154452
    28 -0.000005 0.000007 3.713254 -0.022495 -3.099620 5.138336
    29 18.045723 0.000000 0.000000 0.000000 0.000000 -1.280627
    30 17.597597 0.000000 0.000000 -0.109452 0.003385 0.135377
    31 0.000005 -0.000003 -3.713254 0.464209 2.894890 5.594218
    32 18.045721 0.000000 0.000000 0.000000 0.000000 -1.908549
    33 17.597597 0.000000 0.000000 -0.294451 -0.071726 -0.107101
  time 6
    0 0.274411 7.328500 -9.291777 -0.003283 0.000000 -1.571017
    1 -3.679804 0.398450 0.000000 -1.570795 -1.570787 0.000000
    2 1.293670 0.684478 -0.000001 -0.069556 0.005512 0.079129
    3 5.309685 -0.003834 0.000000 -0.015366 0.008162 0.488375
    4 4.826790 -0.004591 0.000000 -0.051558 0.008665 0.165460
    5 5.792767 -0.005304 0.000000 0.000000 0.000000 0.462266
    6 6.662322 -0.001452 0.000000 0.000000 -0.000001 0.366359
    7 -3.244910 1.192594 4.339626 0.839765 -1.276018 -4.326414
    8 4.827512 0.000000 -0.000002 0.510503 0.505155 -0.602334
    9 11.140032 0.000000 0.000000 0.000000 0.000000 -1.930202
    10 10.314563 -0.000001 0.000001 -1.569942 0.000000 -0.069778
    11 1.646836 0.445664 -1.699647 0.153911 0.442352 0.277231
    12 0.928312 0.000000 0.000000 0.000000 0.000000 0.000000
    13 0.928313 0.000000 -0.000001 0.000000 0.000000 0.000000
    14 2.979373 -0.388274 -0.044205 -0.000805 -0.043611 0.000046
    15 1.435262 -0.000001 -0.000001 0.000000 0.000000 0.130929
    16 1.482593 -0.000001 0.000001 0.000000 0.000000 0.374986
    17 -2.994903 1.094970 -4.140396 -1.205872 1.054075 -4.665508
    18 4.972047 0.000000 0.000000 0.991685 -0.325064 -0.445240
    19 11.585358 0.000000 0.000001 0.000000 0.000000 -0.721623
    20 10.127058 0.000000 0.000001 1.569752 0.000000 -0.069778
    21 1.537458 0.109715 1.664489 -0.233165 -0.412999 0.435664
    22 0.928313 0.000000 0.000002 0.000000 0.000000 0.000000
    23 0.928311 0.000000 0.000001 0.000000 0.000000 0.000000
    24 2.686395 -0.427337 0.044204 0.001045 0.043611 0.000046
    25 1.435260 0.000000 0.000001 0.000000 0.000000 0.331445
    26 1.482593 0.000000 -0.000001 0.000000 0.000000 0.000000
    27 2.046984 0.000001 0.000000 0.015596 -0.151294 0.132112
    28 -0.000005 0.000007 3.713254 -0.018660 -3.094443 5.018320
    29 18.045723 0.000000 0.000000 0.000000 0.000000 -1.407932
    30 17.597597 0.000000 0.000000 -0.106260 0.007027 0.142896
    31 0.000005 -0.000003 -3.713254 0.523727 2.870540 5.552035
    32 18.045721 0.000000 0.000000 0.000000 0.000000 -2.021352
    33 17.597597 0.000000 0.000000 -0.313911 -0.104191 -0.165991
  time 7
    0 0.313475 7.668354 -11.135583 -0.006753 0.000000 -1.571017
    1 -3.679804 0.398450 0.000000 -1.570795 -1.570787 0.000000
    2 1.293670 0.684478 -0.000001 -0.069556 0.005512 0.079129
    3 5.309685 -0.003834 0.000000 -0.015366 0.008162 0.488375
    4 4.826790 -0.004591 0.000000 -0.051558 0.008665 0.165460
    5 5.792767 -0.005304 0.000000 0.000000 0.000000 0.462266
    6 6.662322 -0.001452 0.000000 0.000000 -0.000001 0.366359
    7 -3.244910 1.192594 4.339626 0.839765 -1.276018 -4.326414
    8 4.827512 0.000000 -0.000002 0.506039 0.500465 -0.583445
    9 11.140032 0.000000 0.000000 0.000000 0.000000 -1.953895
    10 10.314563 -0.000001 0.000001 -1.569942 0.000000 -0.069778
    11 1.646836 0.445664 -1.699647 0.153911 0.442352 0.277231
    12 0.928312 0.000000 0.000000 0.000000 0.000000 0.000000
    13 0.928313 0.000000 -0.000001 0.000000 0.000000 0.000000
    14 2.979373 -0.388274 -0.044205 -0.000805 -0.043611 0.000046
    15 1.435262 -0.000001 -0.000001 0.000000 0.000000 0.130929
    16 1.482593 -0.000001 0.000001 0.000000 0.000000 0.374986
    17 -2.994903 1.094970 -4.140396 -1.205872 1.054075 -4.665508
    18 4.972047 0.000000 0.000000 0.961669 -0.323939 -0.445572
    19 11.585358 0.000000 0.000001 0.000000 0.000000 -0.757726
    20 10.127058 0.000000 0.000001 1.569752 0.000000 -0.069778
    21 1.537458 0.109715 1.664489 -0.233165 -0.412999 0.435664
    22 0.928313 0.000000 0.000002 0.000000 0.000000 0.000000
    23 0.928311 0.000000 0.000001 0.000000 0.000000 0.000000
    24 2.686395 -0.427337 0.044204 0.001045 0.043611 0.000046
    25 1.435260 0.000000 0.000001 0.000000 0.000000 0.331445
    26 1.482593 0.000000 -0.000001 0.000000 0.000000 0.000000
    27 2.046984 0.000001 0.000000 -0.018698 -0.150822 0.359733
    28 -0.000005 0.000007 3.713254 -0.017318 -3.091279 4.923036
    29 18.045723 0.000000 0.000000 0.000000 0.000000 -1.510368
    30 17.597597 0.000000 0.000000 -0.104106 0.013351 0.150369
    31 0.000005 -0.000003 -3.713254 0.597526 2.849449 5.526247
    32 18.045721 0.000000 0.000000 0.000000 0.000000 -2.131242
    33 17.597597 0.000000 0.000000 -0.320319 -0.136498 -0.229823
  time 8
    0 0.325194 7.848047 -13.166895 -0.010411 0.000000 -1.571017
    1 -3.679804 0.398450 0.000000 -1.570795 -1.570787 0.000000
    2 1.293670 0.684478 -0.000001 -0.069556 0.005512 0.079129
    3 5.309685 -0.003834 0.000000 -0.015366 0.008162 0.488375
    4 4.826790 -0.004591 0.000000 -0.051558 0.008665 0.165460
    5 5.792767 -0.005304 0.000000 0.000000 0.000000 0.462266
    6 6.662322 -0.001452 0.000000 0.000000 -0.000001 0.366359
    7 -3.244910 1.192594 4.339626 0.839765 -1.276018 -4.326414
    8 4.827512 0.000000 -0.000002 0.501655 0.495689 -0.564122
    9 11.140032 0.000000 0.000000 0.000000 0.000000 -1.978312
    10 10.314563 -0.000001 0.000001 -1.569942 0.000000 -0.069778
    11 1.646836 0.445664 -1.699647 0.153911 0.442352 0.277231
    12 0.928312 0.000000 0.000000 0.000000 0.000000 0.000000
    13 0.928313 0.000000 -0.000001 0.000000 0.000000 0.000000
    14 2.979373 -0.388274 -0.044205 -0.000805 -0.043611 0.000046
    15 1.435262 -0.000001 -0.000001 0.000000 0.000000 0.130929
    16 1.482593 -0.000001 0.000001 0.000000 0.000000 0.374986
    17 -2.994903 1.094970 -4.140396 -1.205872 1.054075 -4.665508
    18 4.972047 0.000000 0.000000 0.930997 -0.322895 -0.445839
    19 11.585358 0.000000 0.000001 0.000000 0.000000 -0.794645
    20 10.127058 0.000000 0.000001 1.569752 0.000000 -0.069778
    21 1.537458 0.109715 1.664489 -0.233165 -0.412999 0.435664
    22 0.928313 0.000000 0.000002 0.000000 0.000000 0.000000
    23 0.928311 0.000000 0.000001 0.000000 0.000000 0.000000
    24 2.686395 -0.427337 0.044204 0.001045 0.043611 0.000046
    25 1.435260 0.000000 0.000001 0.000000 0.000000 0.331445
    26 1.482593 0.000000 -0.000001 0.000000 0.000000 0.000000
    27 2.046984 0.000001 0.000000 -0.018784 -0.149671 0.356509
    28 -0.000005 0.000007 3.713254 -0.013099 -3.086581 4.809059
    29 18.045723 0.000000 0.000000 0.000000 0.000000 -1.631975
    30 17.597597 0.000000 0.000000 -0.100989 0.018421 0.158347
    31 0.000005 -0.000003 -3.713254 0.696339 2.843218 5.539189
    32 18.045721 0.000000 0.000000 0.000000 0.000000 -2.244833
    33 17.597597 0.000000 0.000000 -0.308475 -0.190402 -0.321737
  time 9
    0 0.333007 7.980863 -15.565406 -0.014257 0.000000 -1.571017
    1 -3.679804 0.398450 0.000000 -1.570795 -1.570787 0.000000
    2 1.293670 0.684478 -0.000001 -0.069556 0.005512 0.079129
    3 5.309685 -0.003834 0.000000 -0.015366 0.008162 0.488375
    4 4.826790 -0.004591 0.000000 -0.051558 0.008665 0.165460
    5 5.792767 -0.005304 0.000000 0.000000 0.000000 0.462266
    6 6.662322 -0.001452 0.000000 0.000000 -0.000001 0.366359
    7 -3.244910 1.192594 4.339626 0.839765 -1.276018 -4.326414
    8 4.827512 0.000000 -0.000002 0.497111 0.490743 -0.544279
    9 11.140032 0.000000 0.000000 0.000000 0.000000 -2.003453
    10 10.314563 -0.000001 0.000001 -1.569942 0.000000 -0.069778
    11 1.646836 0.445664 -1.699647 0.153911 0.442352 0.277231
    12 0.928312 0.000000 0.000000 0.000000 0.000000 0.000000
    13 0.928313 0.000000 -0.000001 0.000000 0.000000 0.000000
    14 2.979373 -0.388274 -0.044205 -0.000805 -0.043611 0.000046
    15 1.435262 -0.000001 -0.000001 0.000000 0.000000 0.130929
    16 1.482593 -0.000001 0.000001 0.000000 0.000000 0.374986
    17 -2.994903 1.094970 -4.140396 -1.205872 1.054075 -4.665508
    18 4.972047 0.000000 0.000000 0.899387 -0.321931 -0.446038
    19 11.585358 0.000000 0.000001 0.000000 0.000000 -0.832545
    20 10.127058 0.000000 0.000001 1.569752 0.000000 -0.069778
    21 1.537458 0.109715 1.664489 -0.233165 -0.412999 0.435664
    22 0.928313 0.000000 0.000002 0.000000 0.000000 0.000000
    23 0.928311 0.000000 0.000001 0.000000 0.000000 0.000000
    24 2.686395 -0.427337 0.044204 0.001045 0.043611 0.000046
    25 1.435260 0.000000 0.000001 0.000000 0.000000 0.331445
    26 1.482593 0.000000 -0.000001 0.000000 0.000000 0.000000
    27 2.046984 0.000001 0.000000 -0.013399 -0.149081 0.315753
    28 -0.000005 0.000007 3.713254 -3.149612 -0.059054 1.532975
    29 18.045723 0.000000 0.000000 0.000000 0.000000 -1.762463
    30 17.597597 0.000000 0.000000 -0.098379 0.024426 0.154816
    31 0.000005 -0.000003 -3.713254 0.815567 2.858556 5.588658
    32 18.045721 0.000000 0.000000 0.000000 0.000000 -2.337877
    33 17.597597 0.000000 0.000000 -0.274085 -0.235175 -0.414575
  time 10
    0 0.336913 8.191807 -17.975636 -0.018103 0.000000 -1.571017
    1 -3.679804 0.398450 0.000000 -1.570795 -1.570787 0.000000
    2 1.293670 0.684478 -0.000001 -0.069556 0.005512 0.079129
    3 5.309685 -0.003834 0.000000 -0.015366 0.008162 0.488375
    4 4.826790 -0.004591 0.000000 -0.051558 0.008665 0.165460
    5 5.792767 -0.005304 0.000000 0.000000 0.000000 0.462266
    6 6.662322 -0.001452 0.000000 0.000000 -0.000001 0.366359
    7 -3.244910 1.192594 4.339626 0.839765 -1.276018 -4.326414
    8 4.827512 0.000000 -0.000002 0.492248 0.485456 -0.520796
    9 11.140032 0.000000 0.000000 0.000000 0.000000 -2.033593
    10 10.314563 -0.000001 0.000001 -1.569942 0.000000 -0.069778
    11 1.646836 0.445664 -1.699647 0.153911 0.442352 0.277231
    12 0.928312 0.000000 0.000000 0.000000 0.000000 0.000000
    13 0.928313 0.000000 -0.000001 0.000000 0.000000 0.000000
    14 2.979373 -0.388274 -0.044205 -0.000805 -0.043611 0.000046
    15 1.435262 -0.000001 -0.000001 0.000000 0.000000 0.130929
    16 1.482593 -0.000001 0.000001 0.000000 0.000000 0.374986
    17 -2.994903 1.094970 -4.140396 -1.205872 1.054075 -4.665508
    18 4.972047 0.000000 0.000000 0.862243 -0.320886 -0.446371
    19 11.585358 0.000000 0.000001 0.000000 0.000000 -0.877060
    20 10.127058 0.000000 0.000001 1.569752 0.000000 -0.069778
    21 1.537458 0.109715 1.664489 -0.233165 -0.412999 0.435664
    22 0.928313 0.000000 0.000002 0.000000 0.000000 0.000000
    23 0.928311 0.000000 0.000001 0.000000 0.000000 0.000000
    24 2.686395 -0.427337 0.044204 0.001045 0.043611 0.000046
    25 1.435260 0.000000 0.000001 0.000000 0.000000 0.331445
    26 1.482593 0.000000 -0.000001 0.000000 0.000000 0.000000
    27 2.046984 0.000001 0.000000 -0.002973 -0.148609 0.242577
    28 -0.000005 0.000007 3.713254 -3.144531 -0.062122 1.393499
    29 18.045723 0.000000 0.000000 0.000000 0.000000 -1.874225
    30 17.597597 0.000000 0.000000 -0.096352 0.031907 0.127537
    31 0.000005 -0.000003 -3.713254 0.945050 2.886550 5.645125
    32 18.045721 0.000000 0.000000 0.000000 0.000000 -2.356849
    33 17.597597 0.000000 0.000000 -0.259490 -0.210698 -0.415268
  time 11
    0 0.239254 8.402751 -19.350677 -0.017305 0.000000 -1.571017
    1 -3.679804 0.398450 0.000000 -1.570795 -1.570787 0.000000
    2 1.293670 0.684478 -0.000001 -0.069556 0.005512 0.079129
    3 5.309685 -0.003834 0.000000 -0.015366 0.008162 0.488375
    4 4.826790 -0.004591 0.000000 -0.051558 0.008665 0.165460
    5 5.792767 -0.005304 0.000000 0.000000 0.000000 0.462266
    6 6.662322 -0.001452 0.000000 0.000000 -0.000001 0.366359
    7 -3.244910 1.192594 4.339626 0.839765 -1.276018 -4.326414
    8 4.827512 0.000000 -0.000002 0.487306 0.479743 -0.495754
    9 11.140032 0.000000 0.000000 0.000000 0.000000 -2.065473
    10 10.314563 -0.000001 0.000001 -1.569942 0.000000 -0.069778
    11 1.646836 0.445664 -1.699647 0.153911 0.442352 0.277231
    12 0.928312 0.000000 0.000000 0.000000 0.000000 0.000000
    13 0.928313 0.000000 -0.000001 0.000000 0.000000 0.000000
    14 2.979373 -0.388274 -0.044205 -0.000805 -0.043611 0.000046
    15 1.435262 -0.000001 -0.000001 0.000000 0.000000 0.130929
    16 1.482593 -0.000001 0.000001 0.000000 0.000000 0.374986
    17 -2.994903 1.094970 -4.140396 -1.205872 1.054075 -4.665508
    18 4.972047 0.000000 0.000000 0.823035 -0.319922 -0.446704
    19 11.585358 0.000000 0.000001 0.000000 0.000000 -0.924189
    20 10.127058 0.000000 0.000001 1.569752 0.000000 -0.069778
    21 1.537458 0.109715 1.664489 -0.233165 -0.412999 0.435664
    22 0.928313 0.000000 0.000002 0.000000 0.000000 0.000000
    23 0.928311 0.000000 0.000001 0.000000 0.000000 0.000000
    24 2.686395 -0.427337 0.044204 0.001045 0.043611 0.000046
    25 1.435260 0.000000 0.000001 0.000000 0.000000 0.331445
    26 1.482593 0.000000 -0.000001 0.000000 0.000000 0.000000
    27 2.046984 0.000001 0.000000 0.011891 -0.151530 0.156686
    28 -0.000005 0.000007 3.713254 -3.140408 -0.066436 1.312115
    29 18.045723 0.000000 0.000000 0.000000 0.000000 -1.924851
    30 17.597597 0.000000 0.000000 -0.092500 0.033211 0.097278
    31 0.000005 -0.000003 -3.713254 1.074532 2.918953 5.695169
    32 18.045721 0.000000 0.000000 0.000000 0.000000 -2.303714
    33 17.597597 0.000000 0.000000 -0.285660 -0.140384 -0.308019
  time 12
    0 -0.077162 8.457440 -18.905351 0.040145 0.000000 -1.571017
    1 -3.679804 0.398450 0.000000 -1.570795 -1.570787 0.000000
    2 1.293670 0.684478 -0.000001 -0.069556 0.005512 0.079129
    3 5.309685 -0.003834 0.000000 -0.015366 0.008162 0.488375
    4 4.826790 -0.004591 0.000000 -0.051558 0.008665 0.165460
    5 5.792767 -0.005304 0.000000 0.000000 0.000000 0.462266
    6 6.662322 -0.001452 0.000000 0.000000 -0.000001 0.366359
    7 -3.244910 1.192594 4.339626 0.839765 -1.276018 -4.326414
    8 4.827512 0.000000 -0.000002 0.482204 0.473945 -0.469586
    9 11.140032 0.000000 0.000000 0.000000 0.000000 -2.099019
    10 10.314563 -0.000001 0.000001 -1.569942 0.000000 -0.069778
    11 1.646836 0.445664 -1.699647 0.153911 0.442352 0.277231
    12 0.928312 0.000000 0.000000 0.000000 0.000000 0.000000
    13 0.928313 0.000000 -0.000001 0.000000 0.000000 0.000000
    14 2.979373 -0.388274 -0.044205 -0.000805 -0.043611 0.000046
    15 1.435262 -0.000001 -0.000001 0.000000 0.000000 0.130929
    16 1.482593 -0.000001 0.000001 0.000000 0.000000 0.374986
    17 -2.994903 1.094970 -4.140396 -1.205872 1.054075 -4.665508
    18 4.972047 0.000000 0.000000 0.782045 -0.319038 -0.447037
    19 11.585358 0.000000 0.000001 0.000000 0.000000 -0.973034
    20 10.127058 0.000000 0.000001 1.569752 0.000000 -0.069778
    21 1.537458 0.109715 1.664489 -0.233165 -0.412999 0.435664
    22 0.928313 0.000000 0.000002 0.000000 0.000000 0.000000
    23 0.928311 0.000000 0.000001 0.000000 0.000000 0.000000
    24 2.686395 -0.427337 0.044204 0.001045 0.043611 0.000046
    25 1.435260 0.000000 0.000001 0.000000 0.000000 0.331445
    26 1.482593 0.000000 -0.000001 0.000000 0.000000 0.000000
    27 2.046984 0.000001 0.000000 0.065615 -0.189383 0.001147
    28 -0.000005 0.000007 3.713254 -3.161309 -0.054644 1.354485
    29 18.045723 0.000000 0.000000 0.000000 0.000000 -1.891396
    30 17.597597 0.000000 0.000000 -0.107932 -0.009216 0.102642
    31 0.000005 -0.000003 -3.713254 1.199031 2.957875 5.741186
    32 18.045721 0.000000 0.000000 0.000000 0.000000 -2.221847
    33 17.597597 0.000000 0.000000 -0.330250 -0.067347 -0.161326
  time 13
    0 -0.397484 8.476972 -18.335021 0.160062 0.000000 -1.571017
    1 -3.679804 0.398450 0.000000 -1.570795 -1.570787 0.000000
    2 1.293670 0.684478 -0.000001 -0.069556 0.005512 0.079129
    3 5.309685 -0.003834 0.000000 -0.015366 0.008162 0.488375
    4 4.826790 -0.004591 0.000000 -0.051558 0.008665 0.165460
    5 5.792767 -0.005304 0.000000 0.000000 0.000000 0.462266
    6 6.662322 -0.001452 0.000000 0.000000 -0.000001 0.366359
    7 -3.244910 1.192594 4.339626 0.839765 -1.276018 -4.326414
    8 4.827512 0.000000 -0.000002 0.477022 0.468316 -0.442551
    9 11.140032 0.000000 0.000000 0.000000 0.000000 -2.133796
    10 10.314563 -0.000001 0.000001 -1.569942 0.000000 -0.069778
    11 1.646836 0.445664 -1.699647 0.153911 0.442352 0.277231
    12 0.928312 0.000000 0.000000 0.000000 0.000000 0.000000
    13 0.928313 0.000000 -0.000001 0.000000 0.000000 0.000000
    14 2.979373 -0.388274 -0.044205 -0.000805 -0.043611 0.000046
    15 1.435262 -0.000001 -0.000001 0.000000 0.000000 0.130929
    16 1.482593 -0.000001 0.000001 0.000000 0.000000 0.374986
    17 -2.994903 1.094970 -4.140396 -1.205872 1.054075 -4.665508
    18 4.972047 0.000000 0.000000 0.739836 -0.318154 -0.447502
    19 11.585358 0.000000 0.000001 0.000000 0.000000 -1.023594
    20 10.127058 0.000000 0.000001 1.569752 0.000000 -0.069778
    21 1.537458 0.109715 1.664489 -0.233165 -0.412999 0.435664
    22 0.928313 0.000000 0.000002 0.000000 0.000000 0.000000
    23 0.928311 0.000000 0.000001 0.000000 0.000000 0.000000
    24 2.686395 -0.427337 0.044204 0.001045 0.043611 0.000046
    25 1.435260 0.000000 0.000001 0.000000 0.000000 0.331445
    26 1.482593 0.000000 -0.000001 0.000000 0.000000 0.000000
    27 2.046984 0.000001 0.000000 0.167722 -0.240070 -0.241012
    28 -0.000005 0.000007 3.713254 -3.211930 -0.008241 1.417368
    29 18.045723 0.000000 0.000000 0.000000 0.000000 -1.839364
    30 17.597597 0.000000 0.000000 -0.159473 -0.089394 0.115159
    31 0.000005 -0.000003 -3.713254 1.333881 3.010697 5.787011
    32 18.045721 0.000000 0.000000 0.000000 0.000000 -2.112665
    33 17.597597 0.000000 0.000000 -0.397186 0.014762 0.015806
  time 14
    0 -0.725619 8.500410 -17.799849 0.306431 0.000000 -1.571017
    1 -3.679804 0.398450 0.000000 -1.570795 -1.570787 0.000000
    2 1.293670 0.684478 -0.000001 -0.069556 0.005512 0.079129
    3 5.309685 -0.003834 0.000000 -0.015366 0.008162 0.488375
    4 4.826790 -0.004591 0.000000 -0.051558 0.008665 0.165460
    5 5.792767 -0.005304 0.000000 0.000000 0.000000 0.462266
    6 6.662322 -0.001452 0.000000 0.000000 -0.000001 0.366359
    7 -3.244910 1.192594 4.339626 0.839765 -1.276018 -4.326414
    8 4.827512 0.000000 -0.000002 0.471841 0.462603 -0.414996
    9 11.140032 0.000000 0.000000 0.000000 0.000000 -2.169444
    10 10.314563 -0.000001 0.000001 -1.569942 0.000000 -0.069778
    11 1.646836 0.445664 -1.699647 0.153911 0.442352 0.277231
    12 0.928312 0.000000 0.000000 0.000000 0.000000 0.000000
    13 0.928313 0.000000 -0.000001 0.000000 0.000000 0.000000
    14 2.979373 -0.388274 -0.044205 -0.000805 -0.043611 0.000046
    15 1.435262 -0.000001 -0.000001 0.000000 0.000000 0.130929
    16 1.482593 -0.000001 0.000001 0.000000 0.000000 0.374986
    17 -2.994903 1.094970 -4.140396 -1.205872 1.054075 -4.665508
    18 4.972047 0.000000 0.000000 0.696501 -0.317351 -0.447835
    19 11.585358 0.000000 0.000001 0.000000 0.000000 -1.075297
    20 10.127058 0.000000 0.000001 1.569752 0.000000 -0.069778
    21 1.537458 0.109715 1.664489 -0.233165 -0.412999 0.435664
    22 0.928313 0.000000 0.000002 0.000000 0.000000 0.000000
    23 0.928311 0.000000 0.000001 0.000000 0.000000 0.000000
    24 2.686395 -0.427337 0.044204 0.001045 0.043611 0.000046
    25 1.435260 0.000000 0.000001 0.000000 0.000000 0.331445
    26 1.482593 0.000000 -0.000001 0.000000 0.000000 0.000000
    27 2.046984 0.000001 0.000000 0.300374 -0.266977 -0.532199
    28 -0.000005 0.000007 3.713254 -3.271468 0.061269 1.471145
    29 18.045723 0.000000 0.000000 0.000000 0.000000 -1.781188
    30 17.597597 0.000000 0.000000 -0.231463 -0.182664 0.132764
    31 0.000005 -0.000003 -3.713254 1.464610 3.080584 5.826606
    32 18.045721 0.000000 0.000000 0.000000 0.000000 -1.983410
    33 17.597597 0.000000 0.000000 -0.483883 0.108291 0.179450
  time 15
    0 -1.049848 8.519942 -17.475620 0.461287 0.000000 -1.571017
    1 -3.679804 0.398450 0.000000 -1.570795 -1.570787 0.000000
    2 1.293670 0.684478 -0.000001 -0.069556 0.005512 0.079129
    3 5.309685 -0.003834 0.000000 -0.015366 0.008162 0.488375
    4 4.826790 -0.004591 0.000000 -0.051558 0.008665 0.165460
    5 5.792767 -0.005304 0.000000 0.000000 0.000000 0.462266
    6 6.662322 -0.001452 0.000000 0.000000 -0.000001 0.366359
    7 -3.244910 1.192594 4.339626 0.839765 -1.276018 -4.326414
    8 4.827512 0.000000 -0.000002 0.466659 0.456975 -0.387615
    9 11.140032 0.000000 0.000000 0.000000 0.000000 -2.204801
    10 10.314563 -0.000001 0.000001 -1.569942 0.000000 -0.069778
    11 1.646836 0.445664 -1.699647 0.153911 0.442352 0.277231
    12 0.928312 0.000000 0.000000 0.000000 0.000000 0.000000
    13 0.928313 0.000000 -0.000001 0.000000 0.000000 0.000000
    14 2.979373 -0.388274 -0.044205 -0.000805 -0.043611 0.000046
    15 1.435262 -0.000001 -0.000001 0.000000 0.000000 0.130929
    16 1.482593 -0.000001 0.000001 0.000000 0.000000 0.374986
    17 -2.994903 1.094970 -4.140396 -1.205872 1.054075 -4.665508
    18 4.972047 0.000000 0.000000 0.653728 -0.316467 -0.448235
    19 11.585358 0.000000 0.000001 0.000000 0.000000 -1.126265
    20 10.127058 0.000000 0.000001 1.569752 0.000000 -0.069778
    21 1.537458 0.109715 1.664489 -0.233165 -0.412999 0.435664
    22 0.928313 0.000000 0.000002 0.000000 0.000000 0.000000
    23 0.928311 0.000000 0.000001 0.000000 0.000000 0.000000
    24 2.686395 -0.427337 0.044204 0.001045 0.043611 0.000046
    25 1.435260 0.000000 0.000001 0.000000 0.000000 0.331445
    26 1.482593 0.000000 -0.000001 0.000000 0.000000 0.000000
    27 2.046984 0.000001 0.000000 0.442160 -0.254143 -0.839019
    28 -0.000005 0.000007 3.713254 -3.330334 0.140461 1.499232
    29 18.045723 0.000000 0.000000 0.000000 0.000000 -1.728786
    30 17.597597 0.000000 0.000000 -0.314196 -0.277780 0.156879
    31 0.000005 -0.000003 -3.713254 1.422631 -3.096600 5.834179
    32 18.045721 0.000000 0.000000 0.000000 0.000000 -1.810545
    33 17.597597 0.000000 0.000000 -0.485627 0.150696 0.112570
  time 16
    0 -1.389702 8.523849 -18.663157 0.549361 0.000000 -1.571017
    1 -3.679804 0.398450 0.000000 -1.570795 -1.570787 0.000000
    2 1.293670 0.684478 -0.000001 -0.069556 0.005512 0.079129
    3 5.309685 -0.003834 0.000000 -0.015366 0.008162 0.488375
    4 4.826790 -0.004591 0.000000 -0.051558 0.008665 0.165460
    5 5.792767 -0.005304 0.000000 0.000000 0.000000 0.462266
    6 6.662322 -0.001452 0.000000 0.000000 -0.000001 0.366359
    7 -3.244910 1.192594 4.339626 0.839765 -1.276018 -4.326414
    8 4.827512 0.000000 -0.000002 0.464587 0.454417 -0.374531
    9 11.140032 0.000000 0.000000 0.000000 0.000000 -2.221972
    10 10.314563 -0.000001 0.000001 -1.569942 0.000000 -0.069778
    11 1.646836 0.445664 -1.699647 0.153911 0.442352 0.277231
    12 0.928312 0.000000 0.000000 0.000000 0.000000 0.000000
    13 0.928313 0.000000 -0.000001 0.000000 0.000000 0.000000
    14 2.979373 -0.388274 -0.044205 -0.000805 -0.043611 0.000046
    15 1.435262 -0.000001 -0.000001 0.000000 0.000000 0.130929
    16 1.482593 -0.000001 0.000001 0.000000 0.000000 0.374986
    17 -2.994903 1.094970 -4.140396 -1.205872 1.054075 -4.665508
    18 4.972047 0.000000 0.000000 0.633374 -0.316306 -0.448368
    19 11.585358 0.000000 0.000001 0.000000 0.000000 -1.150606
    20 10.127058 0.000000 0.000001 1.569752 0.000000 -0.069778
    21 1.537458 0.109715 1.664489 -0.233165 -0.412999 0.435664
    22 0.928313 0.000000 0.000002 0.000000 0.000000 0.000000
    23 0.928311 0.000000 0.000001 0.000000 0.000000 0.000000
    24 2.686395 -0.427337 0.044204 0.001045 0.043611 0.000046
    25 1.435260 0.000000 0.000001 0.000000 0.000000 0.331445
    26 1.482593 0.000000 -0.000001 0.000000 0.000000 0.000000
    27 2.046984 0.000001 0.000000 0.517512 -0.228652 -1.009461
    28 -0.000005 0.000007 3.713254 -3.355645 0.154267 1.443825
    29 18.045723 0.000000 0.000000 0.000000 0.000000 -1.769494
    30 17.597597 0.000000 0.000000 -0.344933 -0.347745 0.170542
    31 0.000005 -0.000003 -3.713254 1.402217 -3.035629 5.841274
    32 18.045721 0.000000 0.000000 0.000000 0.000000 -1.714745
    33 17.597597 0.000000 0.000000 -0.484889 0.170696 0.078206
  time 17
    0 -1.803777 8.500410 -21.143701 0.667263 0.000000 -1.571017
    1 -3.679804 0.398450 0.000000 -1.570795 -1.570787 0.000000
    2 1.293670 0.684478 -0.000001 -0.069556 0.005512 0.079129
    3 5.309685 -0.003834 0.000000 -0.015366 0.008162 0.488375
    4 4.826790 -0.004591 0.000000 -0.051558 0.008665 0.165460
    5 5.792767 -0.005304 0.000000 0.000000 0.000000 0.462266
    6 6.662322 -0.001452 0.000000 0.000000 -0.000001 0.366359
    7 -3.244910 1.192594 4.339626 0.839765 -1.276018 -4.326414
    8 4.827512 0.000000 -0.000002 0.113513 0.466696 -0.347582
    9 11.140032 0.000000 0.000000 0.000000 0.000000 -2.447230
    10 10.314563 -0.000001 0.000001 -1.569942 0.000000 -0.069778
    11 1.646836 0.445664 -1.699647 0.153911 0.442352 0.277231
    12 0.928312 0.000000 0.000000 0.000000 0.000000 0.000000
    13 0.928313 0.000000 -0.000001 0.000000 0.000000 0.000000
    14 2.979373 -0.388274 -0.044205 -0.000805 -0.043611 0.000046
    15 1.435262 -0.000001 -0.000001 0.000000 0.000000 0.130929
    16 1.482593 -0.000001 0.000001 0.000000 0.000000 0.374986
    17 -2.994903 1.094970 -4.140396 -1.292902 0.934164 -4.738588
    18 4.972047 0.000000 0.000000 0.702222 -0.147251 -0.530963
    19 11.585358 0.000000 0.000001 0.000000 0.000000 -1.150606
    20 10.127058 0.000000 0.000001 1.569752 0.000000 -0.069778
    21 1.537458 0.109715 1.664489 -0.233165 -0.412999 0.435664
    22 0.928313 0.000000 0.000002 0.000000 0.000000 0.000000
    23 0.928311 0.000000 0.000001 0.000000 0.000000 0.000000
    24 2.686395 -0.427337 0.044204 0.001045 0.043611 0.000046
    25 1.435260 0.000000 0.000001 0.000000 0.000000 0.331445
    26 1.482593 0.000000 -0.000001 0.000000 0.000000 0.000000
    27 2.046984 0.000001 0.000000 0.517512 -0.228652 -1.009461
    28 -0.000005 0.000007 3.713254 -3.454203 0.078238 1.349212
    29 18.045723 0.000000 0.000000 0.000000 0.000000 -1.857794
    30 17.597597 0.000000 0.000000 -0.310066 -0.407350 0.159447
    31 0.000005 -0.000003 -3.713254 1.141239 -2.997857 5.820470
    32 18.045721 0.000000 0.000000 0.000000 0.000000 -1.714745
    33 17.597597 0.000000 0.000000 -0.427684 0.191425 0.236493
  time 18
    0 -2.217852 8.484785 -23.577369 0.770485 0.000000 -1.571017
    1 -3.679804 0.398450 0.000000 -1.570795 -1.570787 0.000000
    2 1.293670 0.684478 -0.000001 -0.069556 0.005512 0.079129
    3 5.309685 -0.003834 0.000000 -0.015366 0.008162 0.488375
    4 4.826790 -0.004591 0.000000 -0.051558 0.008665 0.165460
    5 5.792767 -0.005304 0.000000 0.000000 0.000000 0.462266
    6 6.662322 -0.001452 0.000000 0.000000 -0.000001 0.366359
    7 -3.244910 1.192594 4.339626 0.839765 -1.276018 -4.326414
    8 4.827512 0.000000 -0.000002 -0.200332 0.514535 -0.349142
    9 11.140032 0.000000 0.000000 0.000000 0.000000 -2.389702
    10 10.314563 -0.000001 0.000001 -1.569942 0.000000 -0.069778
    11 1.646836 0.445664 -1.699647 0.153911 0.442352 0.277231
    12 0.928312 0.000000 0.000000 0.000000 0.000000 0.000000
    13 0.928313 0.000000 -0.000001 0.000000 0.000000 0.000000
    14 2.979373 -0.388274 -0.044205 -0.000805 -0.043611 0.000046
    15 1.435262 -0.000001 -0.000001 0.000000 0.000000 0.130929
    16 1.482593 -0.000001 0.000001 0.000000 0.000000 0.374986
    17 -2.994903 1.094970 -4.140396 -1.356717 0.808601 -4.787627
    18 4.972047 0.000000 0.000000 0.735427 0.037955 -0.597385
    19 11.585358 0.000000 0.000001 0.000000 0.000000 -1.150606
    20 10.127058 0.000000 0.000001 1.569752 0.000000 -0.069778
    21 1.537458 0.109715 1.664489 -0.233165 -0.412999 0.435664
    22 0.928313 0.000000 0.000002 0.000000 0.000000 0.000000
    23 0.928311 0.000000 0.000001 0.000000 0.000000 0.000000
    24 2.686395 -0.427337 0.044204 0.001045 0.043611 0.000046
    25 1.435260 0.000000 0.000001 0.000000 0.000000 0.331445
    26 1.482593 0.000000 -0.000001 0.000000 0.000000 0.000000
    27 2.046984 0.000001 0.000000 0.517512 -0.228652 -1.009461
    28 -0.000005 0.000007 3.713254 -0.088936 -2.905762 4.731701
    29 18.045723 0.000000 0.000000 0.000000 0.000000 -1.846839
    30 17.597597 0.000000 0.000000 0.092403 -0.264196 -0.244511
    31 0.000005 -0.000003 -3.713254 0.874893 -2.959894 5.807911
    32 18.045721 0.000000 0.000000 0.000000 0.000000 -1.714745
    33 17.597597 0.000000 0.000000 -0.331055 0.194068 0.382031
  time 19
    0 -2.628021 8.461347 -25.807906 0.891856 0.000000 -1.571017
    1 -3.679804 0.398450 0.000000 -1.570795 -1.570787 0.000000
    2 1.293670 0.684478 -0.000001 -0.069556 0.005512 0.079129
    3 5.309685 -0.003834 0.000000 -0.015366 0.008162 0.488375
    4 4.826790 -0.004591 0.000000 -0.051558 0.008665 0.165460
    5 5.792767 -0.005304 0.000000 0.000000 0.000000 0.462266
    6 6.662322 -0.001452 0.000000 0.000000 -0.000001 0.366359
    7 -3.244910 1.192594 4.339626 0.839765 -1.276018 -4.326414
    8 4.827512 0.000000 -0.000002 -0.485480 0.556063 -0.365432
    9 11.140032 0.000000 0.000000 0.000000 0.000000 -2.318335
    10 10.314563 -0.000001 0.000001 -1.569942 0.000000 -0.069778
    11 1.646836 0.445664 -1.699647 0.153911 0.442352 0.277231
    12 0.928312 0.000000 0.000000 0.000000 0.000000 0.000000
    13 0.928313 0.000000 -0.000001 0.000000 0.000000 0.000000
    14 2.979373 -0.388274 -0.044205 -0.000805 -0.043611 0.000046
    15 1.435262 -0.000001 -0.000001 0.000000 0.000000 0.130929
    16 1.482593 -0.000001 0.000001 0.000000 0.000000 0.374986
    17 -2.994903 1.094970 -4.140396 -1.401999 0.691661 -4.818564
    18 4.972047 0.000000 0.000000 0.733270 0.212313 -0.653491
    19 11.585358 0.000000 0.000001 0.000000 0.000000 -1.150606
    20 10.127058 0.000000 0.000001 1.569752 0.000000 -0.069778
    21 1.537458 0.109715 1.664489 -0.233165 -0.412999 0.435664
    22 0.928313 0.000000 0.000002 0.000000 0.000000 0.000000
    23 0.928311 0.000000 0.000001 0.000000 0.000000 0.000000
    24 2.686395 -0.427337 0.044204 0.001045 0.043611 0.000046
    25 1.435260 0.000000 0.000001 0.000000 0.000000 0.331445
    26 1.482593 0.000000 -0.000001 0.000000 0.000000 0.000000
    27 2.046984 0.000001 0.000000 0.517512 -0.228652 -1.009461
    28 -0.000005 0.000007 3.713254 -6.226299 -2.665884 4.908945
    29 18.045723 0.000000 0.000000 0.000000 0.000000 -1.830852
    30 17.597597 0.000000 0.000000 0.288962 0.008897 -0.394660
    31 0.000005 -0.000003 -3.713254 0.628291 -2.923656 5.805418
    32 18.045721 0.000000 0.000000 0.000000 0.000000 -1.714745
    33 17.597597 0.000000 0.000000 -0.217081 0.176850 0.494315
  time 20
    0 -3.018658 8.434002 -27.776716 1.011634 0.000000 -1.571017
    1 -3.679804 0.398450 0.000000 -1.570795 -1.570787 0.000000
    2 1.293670 0.684478 -0.000001 -0.069556 0.005512 0.079129
    3 5.309685 -0.003834 0.000000 -0.015366 0.008162 0.488375
    4 4.826790 -0.004591 0.000000 -0.051558 0.008665 0.165460
    5 5.792767 -0.005304 0.000000 0.000000 0.000000 0.462266
    6 6.662322 -0.001452 0.000000 0.000000 -0.000001 0.366359
    7 -3.244910 1.192594 4.339626 0.839765 -1.276018 -4.326414
    8 4.827512 0.000000 -0.000002 -0.721283 0.588467 -0.395673
    9 11.140032 0.000000 0.000000 0.000000 0.000000 -2.253489
    10 10.314563 -0.000001 0.000001 -1.569942 0.000000 -0.069778
    11 1.646836 0.445664 -1.699647 0.153911 0.442352 0.277231
    12 0.928312 0.000000 0.000000 0.000000 0.000000 0.000000
    13 0.928313 0.000000 -0.000001 0.000000 0.000000 0.000000
    14 2.979373 -0.388274 -0.044205 -0.000805 -0.043611 0.000046
    15 1.435262 -0.000001 -0.000001 0.000000 0.000000 0.130929
    16 1.482593 -0.000001 0.000001 0.000000 0.000000 0.374986
    17 -2.994903 1.094970 -4.140396 -1.434958 0.588366 -4.838199
    18 4.972047 0.000000 0.000000 0.704192 0.363691 -0.707800
    19 11.585358 0.000000 0.000001 0.000000 0.000000 -1.150606
    20 10.127058 0.000000 0.000001 1.569752 0.000000 -0.069778
    21 1.537458 0.109715 1.664489 -0.233165 -0.412999 0.435664
    22 0.928313 0.000000 0.000002 0.000000 0.000000 0.000000
    23 0.928311 0.000000 0.000001 0.000000 0.000000 0.000000
    24 2.686395 -0.427337 0.044204 0.001045 0.043611 0.000046
    25 1.435260 0.000000 0.000001 0.000000 0.000000 0.331445
    26 1.482593 0.000000 -0.000001 0.000000 0.000000 0.000000
    27 2.046984 0.000001 0.000000 0.517512 -0.228652 -1.009461
    28 -0.000005 0.000007 3.713254 -6.168296 -2.661953 5.015061
    29 18.045723 0.000000 0.000000 0.000000 0.000000 -1.830852
    30 17.597597 0.000000 0.000000 0.262837 0.091659 -0.451969
    31 0.000005 -0.000003 -3.713254 0.410633 -2.892404 5.810787
    32 18.045721 0.000000 0.000000 0.000000 0.000000 -1.714745
    33 17.597597 0.000000 0.000000 -0.104683 0.147343 0.568170
  time 21
    0 -3.370231 8.414470 -29.386140 1.145105 0.000000 -1.571017
    1 -3.679804 0.398450 0.000000 -1.570795 -1.570787 0.000000
    2 1.293670 0.684478 -0.000001 -0.069556 0.005512 0.079129
    3 5.309685 -0.003834 0.000000 -0.015366 0.008162 0.488375
    4 4.826790 -0.004591 0.000000 -0.051558 0.008665 0.165460
    5 5.792767 -0.005304 0.000000 0.000000 0.000000 0.462266
    6 6.662322 -0.001452 0.000000 0.000000 -0.000001 0.366359
    7 -3.244910 1.192594 4.339626 0.839765 -1.276018 -4.326414
    8 4.827512 0.000000 -0.000002 -0.955969 0.616948 -0.448097
    9 11.140032 0.000000 0.000000 0.000000 0.000000 -2.183572
    10 10.314563 -0.000001 0.000001 -1.569942 0.000000 -0.069778
    11 1.646836 0.445664 -1.699647 0.153911 0.442352 0.277231
    12 0.928312 0.000000 0.000000 0.000000 0.000000 0.000000
    13 0.928313 0.000000 -0.000001 0.000000 0.000000 0.000000
    14 2.979373 -0.388274 -0.044205 -0.000805 -0.043611 0.000046
    15 1.435262 -0.000001 -0.000001 0.000000 0.000000 0.130929
    16 1.482593 -0.000001 0.000001 0.000000 0.000000 0.374986
    17 -2.994903 1.094970 -4.140396 -1.443173 0.560025 -4.842701
    18 4.972047 0.000000 0.000000 0.807652 0.392778 -0.733358
    19 11.585358 0.000000 0.000001 0.000000 0.000000 -1.150606
    20 10.127058 0.000000 0.000001 1.569752 0.000000 -0.069778
    21 1.537458 0.109715 1.664489 -0.233165 -0.412999 0.435664
    22 0.928313 0.000000 0.000002 0.000000 0.000000 0.000000
    23 0.928311 0.000000 0.000001 0.000000 0.000000 0.000000
    24 2.686395 -0.427337 0.044204 0.001045 0.043611 0.000046
    25 1.435260 0.000000 0.000001 0.000000 0.000000 0.331445
    26 1.482593 0.000000 -0.000001 0.000000 0.000000 0.000000
    27 2.046984 0.000001 0.000000 0.517512 -0.228652 -1.009461
    28 -0.000005 0.000007 3.713254 -6.125440 -2.680936 5.097692
    29 18.045723 0.000000 0.000000 0.000000 0.000000 -1.830852
    30 17.597597 0.000000 0.000000 0.220849 0.133373 -0.504876
    31 0.000005 -0.000003 -3.713254 0.230163 -2.867862 5.820374
    32 18.045721 0.000000 0.000000 0.000000 0.000000 -1.714745
    33 17.597597 0.000000 0.000000 -0.007451 0.115943 0.607707
  time 22
    0 -3.569456 8.402751 -30.487736 1.273371 0.000000 -1.571017
    1 -3.679804 0.398450 0.000000 -1.570795 -1.570787 0.000000
    2 1.293670 0.684478 -0.000001 -0.069556 0.005512 0.079129
    3 5.309685 -0.003834 0.000000 -0.015366 0.008162 0.488375
    4 4.826790 -0.004591 0.000000 -0.051558 0.008665 0.165460
    5 5.792767 -0.005304 0.000000 0.000000 0.000000 0.462266
    6 6.662322 -0.001452 0.000000 0.000000 -0.000001 0.366359
    7 -3.244910 1.192594 4.339626 0.839765 -1.276018 -4.326414
    8 4.827512 0.000000 -0.000002 -1.161161 0.639546 -0.544799
    9 11.140032 0.000000 0.000000 0.000000 0.000000 -2.108728
    10 10.314563 -0.000001 0.000001 -1.569942 0.000000 -0.069778
    11 1.646836 0.445664 -1.699647 0.153911 0.442352 0.277231
    12 0.928312 0.000000 0.000000 0.000000 0.000000 0.000000
    13 0.928313 0.000000 -0.000001 0.000000 0.000000 0.000000
    14 2.979373 -0.388274 -0.044205 -0.000805 -0.043611 0.000046
    15 1.435262 -0.000001 -0.000001 0.000000 0.000000 0.130929
    16 1.482593 -0.000001 0.000001 0.000000 0.000000 0.374986
    17 -2.994903 1.094970 -4.140396 -1.450529 0.533787 -4.846532
    18 4.972047 0.000000 0.000000 0.929965 0.422427 -0.756652
    19 11.585358 0.000000 0.000001 0.000000 0.000000 -1.150606
    20 10.127058 0.000000 0.000001 1.569752 0.000000 -0.069778
    21 1.537458 0.109715 1.664489 -0.233165 -0.412999 0.435664
    22 0.928313 0.000000 0.000002 0.000000 0.000000 0.000000
    23 0.928311 0.000000 0.000001 0.000000 0.000000 0.000000
    24 2.686395 -0.427337 0.044204 0.001045 0.043611 0.000046
    25 1.435260 0.000000 0.000001 0.000000 0.000000 0.331445
    26 1.482593 0.000000 -0.000001 0.000000 0.000000 0.000000
    27 2.046984 0.000001 0.000000 0.517512 -0.228652 -1.009461
    28 -0.000005 0.000007 3.713254 -6.095911 -2.695509 5.153865
    29 18.045723 0.000000 0.000000 0.000000 0.000000 -1.830852
    30 17.597597 0.000000 0.000000 0.189580 0.156579 -0.544121
    31 0.000005 -0.000003 -3.713254 0.105759 -2.852235 5.829577
    32 18.045721 0.000000 0.000000 0.000000 0.000000 -1.714745
    33 17.597597 0.000000 0.000000 0.060390 0.092413 0.622810
  time 23
    0 -3.686647 8.402751 -29.159571 1.351971 0.000000 -1.571017
    1 -3.656366 0.515641 0.000000 -1.570795 -1.570787 0.000000
    2 1.293670 0.684478 -0.000001 -0.069556 0.005512 0.079129
    3 5.309685 -0.003834 0.000000 -0.015366 0.008162 0.488375
    4 4.826790 -0.004591 0.000000 -0.051558 0.008665 0.165460
    5 5.792767 -0.005304 0.000000 0.000072 0.102145 0.462266
    6 6.662322 -0.001452 0.000000 0.000000 -0.000001 0.366359
    7 -3.244910 1.192594 4.339626 0.839765 -1.276018 -4.326414
    8 4.827512 0.000000 -0.000002 -1.165067 0.761573 -0.956041
    9 11.140032 0.000000 0.000000 0.000000 0.000000 -2.044461
    10 10.314563 -0.000001 0.000001 -1.569942 0.000000 -0.069778
    11 1.646836 0.445664 -1.699647 0.153911 0.442352 0.277231
    12 0.928312 0.000000 0.000000 0.000000 0.000000 0.000000
    13 0.928313 0.000000 -0.000001 0.000000 0.000000 0.000000
    14 2.979373 -0.388274 -0.044205 -0.000805 -0.043611 0.000046
    15 1.435262 -0.000001 -0.000001 0.000000 0.000000 0.130929
    16 1.482593 -0.000001 0.000001 0.000000 0.000000 0.374986
    17 -2.994903 1.094970 -4.140396 -1.456548 0.511966 -4.849501
    18 4.972047 0.000000 0.000000 0.934186 0.425400 -0.802309
    19 11.585358 0.000000 0.000001 0.000000 0.000000 -1.150606
    20 10.127058 0.000000 0.000001 1.569752 0.000000 -0.069778
    21 1.537458 0.109715 1.664489 -0.233165 -0.412999 0.435664
    22 0.928313 0.000000 0.000002 0.000000 0.000000 0.000000
    23 0.928311 0.000000 0.000001 0.000000 0.000000 0.000000
    24 2.686395 -0.427337 0.044204 0.001045 0.043611 0.000046
    25 1.435260 0.000000 0.000001 0.000000 0.000000 0.331445
    26 1.482593 0.000000 -0.000001 0.000000 0.000000 0.000000
    27 2.046984 0.000001 0.000000 0.551246 -0.039948 -0.853192
    28 -0.000005 0.000007 3.713254 -6.103581 -2.843923 5.187895
    29 18.045723 0.000000 0.000000 0.000000 0.000000 -1.830852
    30 17.597597 0.000000 0.000000 0.231847 0.050069 -0.558288
    31 0.000005 -0.000003 -3.713254 0.093204 -2.916850 5.837343
    32 18.045721 0.000000 0.000000 0.000000 0.000000 -1.714745
    33 17.597597 0.000000 0.000000 0.007144 0.131722 0.617868
  time 24
    0 -3.792119 8.402751 -27.870469 1.341888 0.000000 -1.571017
    1 -3.625115 0.644551 0.000000 -1.570795 -1.570787 0.000000
    2 1.293670 0.684478 -0.000001 -0.069556 0.005512 0.079129
    3 5.309685 -0.003834 0.000000 -0.015366 0.008162 0.488375
    4 4.826790 -0.004591 0.000000 -0.051558 0.008665 0.165460
    5 5.792767 -0.005304 0.000000 0.000162 0.217436 0.462287
    6 6.662322 -0.001452 0.000000 0.000000 -0.000001 0.366359
    7 -3.244910 1.192594 4.339626 0.839765 -1.276018 -4.326414
    8 4.827512 0.000000 -0.000002 -0.969442 0.870638 -1.348481
    9 11.140032 0.000000 0.000000 0.000000 0.000000 -2.002004
    10 10.314563 -0.000001 0.000001 -1.569942 0.000000 -0.069778
    11 1.646836 0.445664 -1.699647 0.153911 0.442352 0.277231
    12 0.928312 0.000000 0.000000 0.000000 0.000000 0.000000
    13 0.928313 0.000000 -0.000001 0.000000 0.000000 0.000000
    14 2.979373 -0.388274 -0.044205 -0.000805 -0.043611 0.000046
    15 1.435262 -0.000001 -0.000001 0.000000 0.000000 0.130929
    16 1.482593 -0.000001 0.000001 0.000000 0.000000 0.374986
    17 -2.994903 1.094970 -4.140396 -1.461133 0.494220 -4.851704
    18 4.972047 0.000000 0.000000 0.910174 0.412785 -0.846435
    19 11.585358 0.000000 0.000001 0.000000 0.000000 -1.150606
    20 10.127058 0.000000 0.000001 1.569752 0.000000 -0.069778
    21 1.537458 0.109715 1.664489 -0.233165 -0.412999 0.435664
    22 0.928313 0.000000 0.000002 0.000000 0.000000 0.000000
    23 0.928311 0.000000 0.000001 0.000000 0.000000 0.000000
    24 2.686395 -0.427337 0.044204 0.001045 0.043611 0.000046
    25 1.435260 0.000000 0.000001 0.000000 0.000000 0.331445
    26 1.482593 0.000000 -0.000001 0.000000 0.000000 0.000000
    27 2.046984 0.000001 0.000000 0.607383 0.158788 -0.651119
    28 -0.000005 0.000007 3.713254 -6.111251 -3.011512 5.215598
    29 18.045723 0.000000 0.000000 0.000000 0.000000 -1.830852
    30 17.597597 0.000000 0.000000 0.284604 -0.075095 -0.554850
    31 0.000005 -0.000003 -3.713254 0.097038 -2.992009 5.844725
    32 18.045721 0.000000 0.000000 0.000000 0.000000 -1.714745
    33 17.597597 0.000000 0.000000 -0.063247 0.160992 0.607660
  time 25
    0 -3.835089 8.402751 -27.292326 1.322519 0.000000 -1.571017
    1 -3.578238 0.757836 0.000000 -1.570795 -1.570787 0.000000
    2 1.293670 0.684478 -0.000001 -0.069556 0.005512 0.079129
    3 5.309685 -0.003834 0.000000 -0.015366 0.008162 0.488375
    4 4.826790 -0.004591 0.000000 -0.051558 0.008665 0.165460
    5 5.792767 -0.005304 0.000000 0.000252 0.322685 0.462287
    6 6.662322 -0.001452 0.000000 0.000000 -0.000001 0.366359
    7 -3.244910 1.192594 4.339626 0.839765 -1.276018 -4.326414
    8 4.827512 0.000000 -0.000002 -0.875296 0.823396 -1.275781
    9 11.140032 0.000000 0.000000 0.000000 0.000000 -1.951576
    10 10.314563 -0.000001 0.000001 -1.569942 0.000000 -0.069778
    11 1.646836 0.445664 -1.699647 0.153911 0.442352 0.277231
    12 0.928312 0.000000 0.000000 0.000000 0.000000 0.000000
    13 0.928313 0.000000 -0.000001 0.000000 0.000000 0.000000
    14 2.979373 -0.388274 -0.044205 -0.000805 -0.043611 0.000046
    15 1.435262 -0.000001 -0.000001 0.000000 0.000000 0.130929
    16 1.482593 -0.000001 0.000001 0.000000 0.000000 0.374986
    17 -2.994903 1.094970 -4.140396 -1.464955 0.479523 -4.853428
    18 4.972047 0.000000 0.000000 0.885411 0.393260 -0.882708
    19 11.585358 0.000000 0.000001 0.000000 0.000000 -1.150606
    20 10.127058 0.000000 0.000001 1.569752 0.000000 -0.069778
    21 1.537458 0.109715 1.664489 -0.233165 -0.412999 0.435664
    22 0.928313 0.000000 0.000002 0.000000 0.000000 0.000000
    23 0.928311 0.000000 0.000001 0.000000 0.000000 0.000000
    24 2.686395 -0.427337 0.044204 0.001045 0.043611 0.000046
    25 1.435260 0.000000 0.000001 0.000000 0.000000 0.331445
    26 1.482593 0.000000 -0.000001 0.000000 0.000000 0.000000
    27 2.046984 0.000001 0.000000 0.695617 0.386053 -0.385906
    28 -0.000005 0.000007 3.713254 -6.114319 3.106724 5.241385
    29 18.045723 0.000000 0.000000 0.000000 0.000000 -1.830852
    30 17.597597 0.000000 0.000000 0.330950 -0.197430 -0.537061
    31 0.000005 -0.000003 -3.713254 0.101542 -3.060458 5.851627
    32 18.045721 0.000000 0.000000 0.000000 0.000000 -1.714745
    33 17.597597 0.000000 0.000000 -0.128337 0.186731 0.596437
  time 26
    0 -3.835089 8.402751 -28.210323 1.301744 0.000000 -1.571017
    1 -3.546987 0.925810 0.000000 -1.570795 -1.570787 0.000000
    2 1.293670 0.684478 -0.000001 -0.069556 0.005512 0.079129
    3 5.309685 -0.003834 0.000000 -0.015366 0.008162 0.488375
    4 4.826790 -0.004591 0.000000 -0.051730 0.088446 0.161315
    5 5.792767 -0.005304 0.000000 0.000198 0.261156 0.462287
    6 6.662322 -0.001452 0.000000 0.000000 -0.000001 0.366359
    7 -3.244910 1.192594 4.339626 0.839765 -1.276018 -4.326414
    8 4.827512 0.000000 -0.000002 -0.687961 0.722688 -1.053090
    9 11.140032 0.000000 0.000000 0.000000 0.000000 -1.905713
    10 10.314563 -0.000001 0.000001 -1.569942 0.000000 -0.069778
    11 1.646836 0.445664 -1.699647 0.153911 0.442352 0.277231
    12 0.928312 0.000000 0.000000 0.000000 0.000000 0.000000
    13 0.928313 0.000000 -0.000001 0.000000 0.000000 0.000000
    14 2.979373 -0.388274 -0.044205 -0.000805 -0.043611 0.000046
    15 1.435262 -0.000001 -0.000001 0.000000 0.000000 0.130929
    16 1.482593 -0.000001 0.000001 0.000000 0.000000 0.374986
    17 -2.994903 1.094970 -4.140396 -1.468489 0.466615 -4.854961
    18 4.972047 0.000000 0.000000 0.946849 0.419373 -0.863540
    19 11.585358 0.000000 0.000001 0.000000 0.000000 -1.150606
    20 10.127058 0.000000 0.000001 1.569752 0.000000 -0.069778
    21 1.537458 0.109715 1.664489 -0.233165 -0.412999 0.435664
    22 0.928313 0.000000 0.000002 0.000000 0.000000 0.000000
    23 0.928311 0.000000 0.000001 0.000000 0.000000 0.000000
    24 2.686395 -0.427337 0.044204 0.001045 0.043611 0.000046
    25 1.435260 0.000000 0.000001 0.000000 0.000000 0.331445
    26 1.482593 0.000000 -0.000001 0.000000 0.000000 0.000000
    27 2.046984 0.000001 0.000000 0.607211 -0.002213 -0.687069
    28 -0.000005 0.000007 3.713254 -6.114031 3.081509 5.245698
    29 18.045723 0.000000 0.000000 0.000000 0.000000 -1.830852
    30 17.597597 0.000000 0.000000 0.312731 -0.215616 -0.533302
    31 0.000005 -0.000003 -3.713254 0.102117 -3.020769 5.847601
    32 18.045721 0.000000 0.000000 0.000000 0.000000 -1.714745
    33 17.597597 0.000000 0.000000 -0.091934 0.169138 0.602903
  time 27
    0 -3.835089 8.402751 -29.913500 1.281718 0.000000 -1.571017
    1 -3.515736 1.121128 0.000000 -1.570795 -1.570787 0.000000
    2 1.293670 0.684478 -0.000001 -0.069556 0.005512 0.079129
    3 5.309685 -0.003834 0.000000 -0.015366 0.008162 0.488375
    4 4.826790 -0.004591 0.000000 -0.052588 0.210941 0.154877
    5 5.792767 -0.005304 0.000000 0.000072 0.107562 0.462266
    6 6.662322 -0.001452 0.000000 0.000000 -0.000001 0.366359
    7 -3.244910 1.192594 4.339626 0.839765 -1.276018 -4.326414
    8 4.827512 0.000000 -0.000002 -0.545666 0.646880 -0.936892
    9 11.140032 0.000000 0.000000 0.000000 0.000000 -1.873616
    10 10.314563 -0.000001 0.000001 -1.569942 0.000000 -0.069778
    11 1.646836 0.445664 -1.699647 0.153911 0.442352 0.277231
    12 0.928312 0.000000 0.000000 0.000000 0.000000 0.000000
    13 0.928313 0.000000 -0.000001 0.000000 0.000000 0.000000
    14 2.979373 -0.388274 -0.044205 -0.000805 -0.043611 0.000046
    15 1.435262 -0.000001 -0.000001 0.000000 0.000000 0.130929
    16 1.482593 -0.000001 0.000001 0.000000 0.000000 0.374986
    17 -2.994903 1.094970 -4.140396 -1.471451 0.454942 -4.856493
    18 4.972047 0.000000 0.000000 1.059032 0.467181 -0.808099
    19 11.585358 0.000000 0.000001 0.000000 0.000000 -1.150606
    20 10.127058 0.000000 0.000001 1.569752 0.000000 -0.069778
    21 1.537458 0.109715 1.664489 -0.233165 -0.412999 0.435664
    22 0.928313 0.000000 0.000002 0.000000 0.000000 0.000000
    23 0.928311 0.000000 0.000001 0.000000 0.000000 0.000000
    24 2.686395 -0.427337 0.044204 0.001045 0.043611 0.000046
    25 1.435260 0.000000 0.000001 0.000000 0.000000 0.331445
    26 1.482593 0.000000 -0.000001 0.000000 0.000000 0.000000
    27 2.046984 0.000001 0.000000 0.585540 -0.364368 -0.942306
    28 -0.000005 0.000007 3.713254 -6.114415 3.131077 5.237263
    29 18.045723 0.000000 0.000000 0.000000 0.000000 -1.830852
    30 17.597597 0.000000 0.000000 0.348612 -0.179588 -0.540362
    31 0.000005 -0.000003 -3.713254 0.103843 -2.921643 5.837151
    32 18.045721 0.000000 0.000000 0.000000 0.000000 -1.714745
    33 17.597597 0.000000 0.000000 -0.001915 0.124385 0.616067
  time 28
    0 -3.835089 8.402751 -31.171351 1.273371 0.000000 -1.571017
    1 -3.484485 1.253945 0.000000 -1.570795 -1.570787 0.000000
    2 1.293670 0.684478 -0.000001 -0.069556 0.005512 0.079129
    3 5.309685 -0.003834 0.000000 -0.015366 0.008162 0.488375
    4 4.826790 -0.004591 0.000000 -0.053675 0.296079 0.150181
    5 5.792767 -0.005304 0.000000 0.000000 0.000000 0.462266
    6 6.662322 -0.001452 0.000000 0.000000 -0.000001 0.366359
    7 -3.244910 1.192594 4.339626 0.839765 -1.276018 -4.326414
    8 4.827512 0.000000 -0.000002 -0.525657 0.722261 -0.995034
    9 11.140032 0.000000 0.000000 0.000000 0.000000 -1.873616
    10 10.314563 -0.000001 0.000001 -1.569942 0.000000 -0.069778
    11 1.646836 0.445664 -1.699647 0.153911 0.442352 0.277231
    12 0.928312 0.000000 0.000000 0.000000 0.000000 0.000000
    13 0.928313 0.000000 -0.000001 0.000000 0.000000 0.000000
    14 2.979373 -0.388274 -0.044205 -0.000805 -0.043611 0.000046
    15 1.435262 -0.000001 -0.000001 0.000000 0.000000 0.130929
    16 1.482593 -0.000001 0.000001 0.000000 0.000000 0.374986
    17 -2.994903 1.094970 -4.140396 -1.473935 0.444636 -4.857451
    18 4.972047 0.000000 0.000000 1.149923 0.499241 -0.765903
    19 11.585358 0.000000 0.000001 0.000000 0.000000 -1.150606
    20 10.127058 0.000000 0.000001 1.569752 0.000000 -0.069778
    21 1.537458 0.109715 1.664489 -0.233165 -0.412999 0.435664
    22 0.928313 0.000000 0.000002 0.000000 0.000000 0.000000
    23 0.928311 0.000000 0.000001 0.000000 0.000000 0.000000
    24 2.686395 -0.427337 0.044204 0.001045 0.043611 0.000046
    25 1.435260 0.000000 0.000001 0.000000 0.000000 0.331445
    26 1.482593 0.000000 -0.000001 0.000000 0.000000 0.000000
    27 2.046984 0.000001 0.000000 0.588642 -0.540592 -1.051432
    28 -0.000005 0.000007 3.713254 -6.114415 -3.116207 5.231128
    29 18.045723 0.000000 0.000000 0.000000 0.000000 -1.830852
    30 17.597597 0.000000 0.000000 0.374129 -0.153526 -0.544626
    31 0.000005 -0.000003 -3.713254 0.105759 -2.852235 5.829577
    32 18.045721 0.000000 0.000000 0.000000 0.000000 -1.714745
    33 17.597597 0.000000 0.000000 0.060390 0.092413 0.622810
  time 29
    0 -3.835089 8.402751 -31.171351 1.273371 0.000000 -1.571017
    1 -3.484485 1.253945 0.000000 -1.570795 -1.570787 0.000000
    2 1.293670 0.684478 -0.000001 -0.069556 0.005512 0.079129
    3 5.309685 -0.003834 0.000000 -0.015366 0.008162 0.488375
    4 4.826790 -0.004591 0.000000 -0.053675 0.296079 0.150181
    5 5.792767 -0.005304 0.000000 0.000000 0.000000 0.462266
    6 6.662322 -0.001452 0.000000 0.000000 -0.000001 0.366359
    7 -3.244910 1.192594 4.339626 0.839765 -1.276018 -4.326414
    8 4.827512 0.000000 -0.000002 -0.640290 0.875839 -1.149965
    9 11.140032 0.000000 0.000000 0.000000 0.000000 -1.873616
    10 10.314563 -0.000001 0.000001 -1.569942 0.000000 -0.069778
    11 1.646836 0.445664 -1.699647 0.153911 0.442352 0.277231
    12 0.928312 0.000000 0.000000 0.000000 0.000000 0.000000
    13 0.928313 0.000000 -0.000001 0.000000 0.000000 0.000000
    14 2.979373 -0.388274 -0.044205 -0.000805 -0.043611 0.000046
    15 1.435262 -0.000001 -0.000001 0.000000 0.000000 0.130929
    16 1.482593 -0.000001 0.000001 0.000000 0.000000 0.374986
    17 -2.994903 1.094970 -4.140396 -1.473935 0.444636 -4.857451
    18 4.972047 0.000000 0.000000 1.149923 0.499241 -0.765903
    19 11.585358 0.000000 0.000001 0.000000 0.000000 -1.150606
    20 10.127058 0.000000 0.000001 1.569752 0.000000 -0.069778
    21 1.537458 0.109715 1.664489 -0.233165 -0.412999 0.435664
    22 0.928313 0.000000 0.000002 0.000000 0.000000 0.000000
    23 0.928311 0.000000 0.000001 0.000000 0.000000 0.000000
    24 2.686395 -0.427337 0.044204 0.001045 0.043611 0.000046
    25 1.435260 0.000000 0.000001 0.000000 0.000000 0.331445
    26 1.482593 0.000000 -0.000001 0.000000 0.000000 0.000000
    27 2.046984 0.000001 0.000000 0.516478 -0.272199 -0.871258
    28 -0.000005 0.000007 3.713254 -6.114415 -3.116207 5.231128
    29 18.045723 0.000000 0.000000 0.000000 0.000000 -1.830852
    30 17.597597 0.000000 0.000000 0.374129 -0.153526 -0.544626
    31 0.000005 -0.000003 -3.713254 0.105759 -2.852235 5.829577
    32 18.045721 0.000000 0.000000 0.000000 0.000000 -1.714745
    33 17.597597 0.000000 0.000000 0.060390 0.092413 0.622810
  time 30
    0 -3.835089 8.402751 -31.171351 1.273371 0.000000 -1.571017
    1 -3.484485 1.253945 0.000000 -1.570795 -1.570787 0.000000
    2 1.293670 0.684478 -0.000001 -0.069556 0.005512 0.079129
    3 5.309685 -0.003834 0.000000 -0.015366 0.008162 0.488375
    4 4.826790 -0.004591 0.000000 -0.053675 0.296079 0.150181
    5 5.792767 -0.005304 0.000000 0.000000 0.000000 0.462266
    6 6.662322 -0.001452 0.000000 0.000000 -0.000001 0.366359
    7 -3.244910 1.192594 4.339626 0.839765 -1.276018 -4.326414
    8 4.827512 0.000000 -0.000002 -0.771744 0.979447 -1.310008
    9 11.140032 0.000000 0.000000 0.000000 0.000000 -1.873616
    10 10.314563 -0.000001 0.000001 -1.569942 0.000000 -0.069778
    11 1.646836 0.445664 -1.699647 0.153911 0.442352 0.277231
    12 0.928312 0.000000 0.000000 0.000000 0.000000 0.000000
    13 0.928313 0.000000 -0.000001 0.000000 0.000000 0.000000
    14 2.979373 -0.388274 -0.044205 -0.000805 -0.043611 0.000046
    15 1.435262 -0.000001 -0.000001 0.000000 0.000000 0.130929
    16 1.482593 -0.000001 0.000001 0.000000 0.000000 0.374986
    17 -2.994903 1.094970 -4.140396 -1.473935 0.444636 -4.857451
    18 4.972047 0.000000 0.000000 1.149923 0.499241 -0.765903
    19 11.585358 0.000000 0.000001 0.000000 0.000000 -1.150606
    20 10.127058 0.000000 0.000001 1.569752 0.000000 -0.069778
    21 1.537458 0.109715 1.664489 -0.233165 -0.412999 0.435664
    22 0.928313 0.000000 0.000002 0.000000 0.000000 0.000000
    23 0.928311 0.000000 0.000001 0.000000 0.000000 0.000000
    24 2.686395 -0.427337 0.044204 0.001045 0.043611 0.000046
    25 1.435260 0.000000 0.000001 0.000000 0.000000 0.331445
    26 1.482593 0.000000 -0.000001 0.000000 0.000000 0.000000
    27 2.046984 0.000001 0.000000 0.510834 0.233402 -0.589743
    28 -0.000005 0.000007 3.713254 -6.114415 -3.116207 5.231128
    29 18.045723 0.000000 0.000000 0.000000 0.000000 -1.830852
    30 17.597597 0.000000 0.000000 0.374129 -0.153526 -0.544626
    31 0.000005 -0.000003 -3.713254 0.105759 -2.852235 5.829577
    32 18.045721 0.000000 0.000000 0.000000 0.000000 -1.714745
    33 17.597597 0.000000 0.000000 0.060390 0.092413 0.622810
  time 31
    0 -3.835089 8.402751 -31.171351 1.273371 0.000000 -1.571017
    1 -3.484485 1.253945 0.000000 -1.570795 -1.570787 0.000000
    2 1.293670 0.684478 -0.000001 -0.069556 0.005512 0.079129
    3 5.309685 -0.003834 0.000000 -0.015366 0.008162 0.488375
    4 4.826790 -0.004591 0.000000 -0.053675 0.296079 0.150181
    5 5.792767 -0.005304 0.000000 0.000000 0.000000 0.462266
    6 6.662322 -0.001452 0.000000 0.000000 -0.000001 0.366359
    7 -3.244910 1.192594 4.339626 0.839765 -1.276018 -4.326414
    8 4.827512 0.000000 -0.000002 -0.771744 0.979447 -1.310008
    9 11.140032 0.000000 0.000000 0.000000 0.000000 -1.873616
    10 10.314563 -0.000001 0.000001 -1.569942 0.000000 -0.069778
    11 1.646836 0.445664 -1.699647 0.153911 0.442352 0.277231
    12 0.928312 0.000000 0.000000 0.000000 0.000000 0.000000
    13 0.928313 0.000000 -0.000001 0.000000 0.000000 0.000000
    14 2.979373 -0.388274 -0.044205 -0.000805 -0.043611 0.000046
    15 1.435262 -0.000001 -0.000001 0.000000 0.000000 0.130929
    16 1.482593 -0.000001 0.000001 0.000000 0.000000 0.374986
    17 -2.994903 1.094970 -4.140396 -1.473935 0.444636 -4.857451
    18 4.972047 0.000000 0.000000 1.149923 0.499241 -0.765903
    19 11.585358 0.000000 0.000001 0.000000 0.000000 -1.150606
    20 10.127058 0.000000 0.000001 1.569752 0.000000 -0.069778
    21 1.537458 0.109715 1.664489 -0.233165 -0.412999 0.435664
    22 0.928313 0.000000 0.000002 0.000000 0.000000 0.000000
    23 0.928311 0.000000 0.000001 0.000000 0.000000 0.000000
    24 2.686395 -0.427337 0.044204 0.001045 0.043611 0.000046
    25 1.435260 0.000000 0.000001 0.000000 0.000000 0.331445
    26 1.482593 0.000000 -0.000001 0.000000 0.000000 0.000000
    27 2.046984 0.000001 0.000000 0.565205 0.475714 -0.435238
    28 -0.000005 0.000007 3.713254 -6.114415 -3.116207 5.231128
    29 18.045723 0.000000 0.000000 0.000000 0.000000 -1.830852
    30 17.597597 0.000000 0.000000 0.374129 -0.153526 -0.544626
    31 0.000005 -0.000003 -3.713254 0.105759 -2.852235 5.829577
    32 18.045721 0.000000 0.000000 0.000000 0.000000 -1.714745
    33 17.597597 0.000000 0.000000 0.060390 0.092413 0.622810
  time 32
    0 -3.835089 8.402751 -31.171351 1.273371 0.000000 -1.571017
    1 -3.484485 1.253945 0.000000 -1.570795 -1.570787 0.000000
    2 1.293670 0.684478 -0.000001 -0.069556 0.005512 0.079129
    3 5.309685 -0.003834 0.000000 -0.015366 0.008162 0.488375
    4 4.826790 -0.004591 0.000000 -0.053675 0.296079 0.150181
    5 5.792767 -0.005304 0.000000 0.000000 0.000000 0.462266
    6 6.662322 -0.001452 0.000000 0.000000 -0.000001 0.366359
    7 -3.244910 1.192594 4.339626 0.839765 -1.276018 -4.326414
    8 4.827512 0.000000 -0.000002 -0.771744 0.979447 -1.310008
    9 11.140032 0.000000 0.000000 0.000000 0.000000 -1.873616
    10 10.314563 -0.000001 0.000001 -1.569942 0.000000 -0.069778
    11 1.646836 0.445664 -1.699647 0.153911 0.442352 0.277231
    12 0.928312 0.000000 0.000000 0.000000 0.000000 0.000000
    13 0.928313 0.000000 -0.000001 0.000000 0.000000 0.000000
    14 2.979373 -0.388274 -0.044205 -0.000805 -0.043611 0.000046
    15 1.435262 -0.000001 -0.000001 0.000000 0.000000 0.130929
    16 1.482593 -0.000001 0.000001 0.000000 0.000000 0.374986
    17 -2.994903 1.094970 -4.140396 -1.473935 0.444636 -4.857451
    18 4.972047 0.000000 0.000000 1.149923 0.499241 -0.765903
    19 11.585358 0.000000 0.000001 0.000000 0.000000 -1.150606
    20 10.127058 0.000000 0.000001 1.569752 0.000000 -0.069778
    21 1.537458 0.109715 1.664489 -0.233165 -0.412999 0.435664
    22 0.928313 0.000000 0.000002 0.000000 0.000000 0.000000
    23 0.928311 0.000000 0.000001 0.000000 0.000000 0.000000
    24 2.686395 -0.427337 0.044204 0.001045 0.043611 0.000046
    25 1.435260 0.000000 0.000001 0.000000 0.000000 0.331445
    26 1.482593 0.000000 -0.000001 0.000000 0.000000 0.000000
    27 2.046984 0.000001 0.000000 0.582826 0.524129 -0.398680
    28 -0.000005 0.000007 3.713254 -6.114415 -3.116207 5.231128
    29 18.045723 0.000000 0.000000 0.000000 0.000000 -1.830852
    30 17.597597 0.000000 0.000000 0.374129 -0.153526 -0.544626
    31 0.000005 -0.000003 -3.713254 0.105759 -2.852235 5.829577
    32 18.045721 0.000000 0.000000 0.000000 0.000000 -1.714745
    33 17.597597 0.000000 0.000000 0.060390 0.092413 0.622810
  time 33
    0 -3.835089 8.402751 -31.171351 1.273371 0.000000 -1.571017
    1 -3.484485 1.253945 0.000000 -1.570795 -1.570787 0.000000
    2 1.293670 0.684478 -0.000001 -0.069556 0.005512 0.079129
    3 5.309685 -0.003834 0.000000 -0.015366 0.008162 0.488375
    4 4.826790 -0.004591 0.000000 -0.053675 0.296079 0.150181
    5 5.792767 -0.005304 0.000000 0.000000 0.000000 0.462266
    6 6.662322 -0.001452 0.000000 0.000000 -0.000001 0.366359
    7 -3.244910 1.192594 4.339626 0.839765 -1.276018 -4.326414
    8 4.827512 0.000000 -0.000002 -0.771744 0.979447 -1.310008
    9 11.140032 0.000000 0.000000 0.000000 0.000000 -1.873616
    10 10.314563 -0.000001 0.000001 -1.569942 0.000000 -0.069778
    11 1.646836 0.445664 -1.699647 0.153911 0.442352 0.277231
    12 0.928312 0.000000 0.000000 0.000000 0.000000 0.000000
    13 0.928313 0.000000 -0.000001 0.000000 0.000000 0.000000
    14 2.979373 -0.388274 -0.044205 -0.000805 -0.043611 0.000046
    15 1.435262 -0.000001 -0.000001 0.000000 0.000000 0.130929
    16 1.482593 -0.000001 0.000001 0.000000 0.000000 0.374986
    17 -2.994903 1.094970 -4.140396 -1.473935 0.444636 -4.857451
    18 4.972047 0.000000 0.000000 1.149923 0.499241 -0.765903
    19 11.585358 0.000000 0.000001 0.000000 0.000000 -1.150606
    20 10.127058 0.000000 0.000001 1.569752 0.000000 -0.069778
    21 1.537458 0.109715 1.664489 -0.233165 -0.412999 0.435664
    22 0.928313 0.000000 0.000002 0.000000 0.000000 0.000000
    23 0.928311 0.000000 0.000001 0.000000 0.000000 0.000000
    24 2.686395 -0.427337 0.044204 0.001045 0.043611 0.000046
    25 1.435260 0.000000 0.000001 0.000000 0.000000 0.331445
    26 1.482593 0.000000 -0.000001 0.000000 0.000000 0.000000
    27 2.046984 0.000001 0.000000 0.585023 0.528348 -0.394422
    28 -0.000005 0.000007 3.713254 -6.114415 -3.116207 5.231128
    29 18.045723 0.000000 0.000000 0.000000 0.000000 -1.830852
    30 17.597597 0.000000 0.000000 0.374129 -0.153526 -0.544626
    31 0.000005 -0.000003 -3.713254 0.105759 -2.852235 5.829577
    32 18.045721 0.000000 0.000000 0.000000 0.000000 -1.714745
    33 17.597597 0.000000 0.000000 0.060390 0.092413 0.622810
  time 34
    0 -3.835089 8.402751 -31.171351 1.273371 0.000000 -1.571017
    1 -3.484485 1.253945 0.000000 -1.570795 -1.570787 0.000000
    2 1.293670 0.684478 -0.000001 -0.069556 0.005512 0.079129
    3 5.309685 -0.003834 0.000000 -0.015366 0.008162 0.488375
    4 4.826790 -0.004591 0.000000 -0.053675 0.296079 0.150181
    5 5.792767 -0.005304 0.000000 0.000000 0.000000 0.462266
    6 6.662322 -0.001452 0.000000 0.000000 -0.000001 0.366359
    7 -3.244910 1.192594 4.339626 0.839765 -1.276018 -4.326414
    8 4.827512 0.000000 -0.000002 -0.771744 0.979447 -1.310008
    9 11.140032 0.000000 0.000000 0.000000 0.000000 -1.873616
    10 10.314563 -0.000001 0.000001 -1.569942 0.000000 -0.069778
    11 1.646836 0.445664 -1.699647 0.153911 0.442352 0.277231
    12 0.928312 0.000000 0.000000 0.000000 0.000000 0.000000
    13 0.928313 0.000000 -0.000001 0.000000 0.000000 0.000000
    14 2.979373 -0.388274 -0.044205 -0.000805 -0.043611 0.000046
    15 1.435262 -0.000001 -0.000001 0.000000 0.000000 0.130929
    16 1.482593 -0.000001 0.000001 0.000000 0.000000 0.374986
    17 -2.994903 1.094970 -4.140396 -1.473935 0.444636 -4.857451
    18 4.972047 0.000000 0.000000 1.149923 0.499241 -0.765903
    19 11.585358 0.000000 0.000001 0.000000 0.000000 -1.150606
    20 10.127058 0.000000 0.000001 1.569752 0.000000 -0.069778
    21 1.537458 0.109715 1.664489 -0.233165 -0.412999 0.435664
    22 0.928313 0.000000 0.000002 0.000000 0.000000 0.000000
    23 0.928311 0.000000 0.000001 0.000000 0.000000 0.000000
    24 2.686395 -0.427337 0.044204 0.001045 0.043611 0.000046
    25 1.435260 0.000000 0.000001 0.000000 0.000000 0.331445
    26 1.482593 0.000000 -0.000001 0.000000 0.000000 0.000000
    27 2.046984 0.000001 0.000000 0.579336 0.512239 -0.405797
    28 -0.000005 0.000007 3.713254 -6.114415 -3.116207 5.231128
    29 18.045723 0.000000 0.000000 0.000000 0.000000 -1.830852
    30 17.597597 0.000000 0.000000 0.374129 -0.153526 -0.544626
    31 0.000005 -0.000003 -3.713254 0.105759 -2.852235 5.829577
    32 18.045721 0.000000 0.000000 0.000000 0.000000 -1.714745
    33 17.597597 0.000000 0.000000 0.060390 0.092413 0.622810
  time 35
    0 -3.835089 8.402751 -31.171351 1.273371 0.000000 -1.571017
    1 -3.484485 1.253945 0.000000 -1.570795 -1.570787 0.000000
    2 1.293670 0.684478 -0.000001 -0.069556 0.005512 0.079129
    3 5.309685 -0.003834 0.000000 -0.015366 0.008162 0.488375
    4 4.826790 -0.004591 0.000000 -0.053675 0.296079 0.150181
    5 5.792767 -0.005304 0.000000 0.000000 0.000000 0.462266
    6 6.662322 -0.001452 0.000000 0.000000 -0.000001 0.366359
    7 -3.244910 1.192594 4.339626 0.839765 -1.276018 -4.326414
    8 4.827512 0.000000 -0.000002 -0.771744 0.979447 -1.310008
    9 11.140032 0.000000 0.000000 0.000000 0.000000 -1.873616
    10 10.314563 -0.000001 0.000001 -1.569942 0.000000 -0.069778
    11 1.646836 0.445664 -1.699647 0.153911 0.442352 0.277231
    12 0.928312 0.000000 0.000000 0.000000 0.000000 0.000000
    13 0.928313 0.000000 -0.000001 0.000000 0.000000 0.000000
    14 2.979373 -0.388274 -0.044205 -0.000805 -0.043611 0.000046
    15 1.435262 -0.000001 -0.000001 0.000000 0.000000 0.130929
    16 1.482593 -0.000001 0.000001 0.000000 0.000000 0.374986
    17 -2.994903 1.094970 -4.140396 -1.473935 0.444636 -4.857451
    18 4.972047 0.000000 0.000000 1.149923 0.499241 -0.765903
    19 11.585358 0.000000 0.000001 0.000000 0.000000 -1.150606
    20 10.127058 0.000000 0.000001 1.569752 0.000000 -0.069778
    21 1.537458 0.109715 1.664489 -0.233165 -0.412999 0.435664
    22 0.928313 0.000000 0.000002 0.000000 0.000000 0.000000
    23 0.928311 0.000000 0.000001 0.000000 0.000000 0.000000
    24 2.686395 -0.427337 0.044204 0.001045 0.043611 0.000046
    25 1.435260 0.000000 0.000001 0.000000 0.000000 0.331445
    26 1.482593 0.000000 -0.000001 0.000000 0.000000 0.000000
    27 2.046984 0.000001 0.000000 0.571107 0.487781 -0.423194
    28 -0.000005 0.000007 3.713254 -6.114415 -3.116207 5.231128
    29 18.045723 0.000000 0.000000 0.000000 0.000000 -1.830852
    30 17.597597 0.000000 0.000000 0.374129 -0.153526 -0.544626
    31 0.000005 -0.000003 -3.713254 0.105759 -2.852235 5.829577
    32 18.045721 0.000000 0.000000 0.000000 0.000000 -1.714745
    33 17.597597 0.000000 0.000000 0.060390 0.092413 0.622810
  time 36
    0 -3.835089 8.402751 -31.171351 1.273371 0.000000 -1.571017
    1 -3.484485 1.253945 0.000000 -1.570795 -1.570787 0.000000
    2 1.293670 0.684478 -0.000001 -0.069556 0.005512 0.079129
    3 5.309685 -0.003834 0.000000 -0.015366 0.008162 0.488375
    4 4.826790 -0.004591 0.000000 -0.053675 0.296079 0.150181
    5 5.792767 -0.005304 0.000000 0.000000 0.000000 0.462266
    6 6.662322 -0.001452 0.000000 0.000000 -0.000001 0.366359
    7 -3.244910 1.192594 4.339626 0.839765 -1.276018 -4.326414
    8 4.827512 0.000000 -0.000002 -0.771744 0.979447 -1.310008
    9 11.140032 0.000000 0.000000 0.000000 0.000000 -1.873616
    10 10.314563 -0.000001 0.000001 -1.569942 0.000000 -0.069778
    11 1.646836 0.445664 -1.699647 0.153911 0.442352 0.277231
    12 0.928312 0.000000 0.000000 0.000000 0.000000 0.000000
    13 0.928313 0.000000 -0.000001 0.000000 0.000000 0.000000
    14 2.979373 -0.388274 -0.044205 -0.000805 -0.043611 0.000046
    15 1.435262 -0.000001 -0.000001 0.000000 0.000000 0.130929
    16 1.482593 -0.000001 0.000001 0.000000 0.000000 0.374986
    17 -2.994903 1.094970 -4.140396 -1.473935 0.444636 -4.857451
    18 4.972047 0.000000 0.000000 1.149923 0.499241 -0.765903
    19 11.585358 0.000000 0.000001 0.000000 0.000000 -1.150606
    20 10.127058 0.000000 0.000001 1.569752 0.000000 -0.069778
    21 1.537458 0.109715 1.664489 -0.233165 -0.412999 0.435664
    22 0.928313 0.000000 0.000002 0.000000 0.000000 0.000000
    23 0.928311 0.000000 0.000001 0.000000 0.000000 0.000000
    24 2.686395 -0.427337 0.044204 0.001045 0.043611 0.000046
    25 1.435260 0.000000 0.000001 0.000000 0.000000 0.331445
    26 1.482593 0.000000 -0.000001 0.000000 0.000000 0.000000
    27 2.046984 0.000001 0.000000 0.562706 0.461021 -0.441686
    28 -0.000005 0.000007 3.713254 -6.114415 -3.116207 5.231128
    29 18.045723 0.000000 0.000000 0.000000 0.000000 -1.830852
    30 17.597597 0.000000 0.000000 0.374129 -0.153526 -0.544626
    31 0.000005 -0.000003 -3.713254 0.105759 -2.852235 5.829577
    32 18.045721 0.000000 0.000000 0.000000 0.000000 -1.714745
    33 17.597597 0.000000 0.000000 0.060390 0.092413 0.622810
  time 37
    0 -3.835089 8.402751 -31.171351 1.273371 0.000000 -1.571017
    1 -3.484485 1.253945 0.000000 -1.570795 -1.570787 0.000000
    2 1.293670 0.684478 -0.000001 -0.069556 0.005512 0.079129
    3 5.309685 -0.003834 0.000000 -0.015366 0.008162 0.488375
    4 4.826790 -0.004591 0.000000 -0.053675 0.296079 0.150181
    5 5.792767 -0.005304 0.000000 0.000000 0.000000 0.462266
    6 6.662322 -0.001452 0.000000 0.000000 -0.000001 0.366359
    7 -3.244910 1.192594 4.339626 0.839765 -1.276018 -4.326414
    8 4.827512 0.000000 -0.000002 -0.771744 0.979447 -1.310008
    9 11.140032 0.000000 0.000000 0.000000 0.000000 -1.873616
    10 10.314563 -0.000001 0.000001 -1.569942 0.000000 -0.069778
    11 1.646836 0.445664 -1.699647 0.153911 0.442352 0.277231
    12 0.928312 0.000000 0.000000 0.000000 0.000000 0.000000
    13 0.928313 0.000000 -0.000001 0.000000 0.000000 0.000000
    14 2.979373 -0.388274 -0.044205 -0.000805 -0.043611 0.000046
    15 1.435262 -0.000001 -0.000001 0.000000 0.000000 0.130929
    16 1.482593 -0.000001 0.000001 0.000000 0.000000 0.374986
    17 -2.994903 1.094970 -4.140396 -1.473935 0.444636 -4.857451
    18 4.972047 0.000000 0.000000 1.149923 0.499241 -0.765903
    19 11.585358 0.000000 0.000001 0.000000 0.000000 -1.150606
    20 10.127058 0.000000 0.000001 1.569752 0.000000 -0.069778
    21 1.537458 0.109715 1.664489 -0.233165 -0.412999 0.435664
    22 0.928313 0.000000 0.000002 0.000000 0.000000 0.000000
    23 0.928311 0.000000 0.000001 0.000000 0.000000 0.000000
    24 2.686395 -0.427337 0.044204 0.001045 0.043611 0.000046
    25 1.435260 0.000000 0.000001 0.000000 0.000000 0.331445
    26 1.482593 0.000000 -0.000001 0.000000 0.000000 0.000000
    27 2.046984 0.000001 0.000000 0.555339 0.435235 -0.459022
    28 -0.000005 0.000007 3.713254 -6.114415 -3.116207 5.231128
    29 18.045723 0.000000 0.000000 0.000000 0.000000 -1.830852
    30 17.597597 0.000000 0.000000 0.374129 -0.153526 -0.544626
    31 0.000005 -0.000003 -3.713254 0.105759 -2.852235 5.829577
    32 18.045721 0.000000 0.000000 0.000000 0.000000 -1.714745
    33 17.597597 0.000000 0.000000 0.060390 0.092413 0.622810
end
