version 1
nodes
  0 "Bip01" -1
  1 "Bip01 Pelvis" 0
  2 "Bip01 Spine" 1
  3 "Bip01 Spine1" 2
  4 "Bip01 Spine2" 3
  5 "Bip01 Spine3" 4
  6 "Bip01 Neck" 5
  7 "Bip01 L Arm" 6
  8 "Bip01 L Arm1" 7
  9 "Bip01 L Arm2" 8
  10 "Bip01 L Hand" 9
  11 "Bip01 L Finger0" 10
  12 "Bip01 L Finger01" 11
  13 "Bip01 L Finger02" 12
  14 "Bip01 L Finger1" 10
  15 "Bip01 L Finger11" 14
  16 "Bip01 L Finger12" 15
  17 "Bip01 R Arm" 6
  18 "Bip01 R Arm1" 17
  19 "Bip01 R Arm2" 18
  20 "Bip01 R Hand" 19
  21 "Bip01 R Finger0" 20
  22 "Bip01 R Finger01" 21
  23 "Bip01 R Finger02" 22
  24 "Bip01 R Finger1" 20
  25 "Bip01 R Finger11" 24
  26 "Bip01 R Finger12" 25
  27 "Bip01 Head" 6
  28 "Bip01 L Leg" 1
  29 "Bip01 L Leg1" 28
  30 "Bip01 L Foot" 29
  31 "Bip01 R Leg" 1
  32 "Bip01 R Leg1" 31
  33 "Bip01 R Foot" 32
end
skeleton
  time 0
    0 0.235347 0.218908 0.481959 0.000000 0.000000 -1.571017
    1 3.734485 -0.292978 0.000000 -1.570795 -1.570787 0.000000
    2 1.293670 0.684478 -0.000001 -0.069017 -0.010236 -0.147092
    3 5.309685 -0.003834 0.000000 0.000000 0.000000 -0.226755
    4 4.826790 -0.004591 0.000000 -0.077194 -0.014214 -0.182572
    5 5.792767 -0.005304 0.000000 0.000000 0.000000 -0.218027
    6 6.662322 -0.001452 0.000000 0.000000 -0.000001 -0.340150
    7 -3.233191 -1.205916 4.339626 -0.000100 -1.370787 -2.802329
    8 4.827512 0.000000 -0.000002 0.938185 0.392935 1.129201
    9 11.140032 0.000000 0.000000 0.000000 0.000000 -0.287177
    10 10.314563 -0.000001 0.000001 -1.569942 0.000000 -0.069778
    11 1.646836 0.445664 -1.699647 0.153911 0.442352 0.277231
    12 0.928312 0.000000 0.000000 0.000000 0.000000 0.000000
    13 0.928313 0.000000 -0.000001 0.000000 0.000000 0.000000
    14 2.979373 -0.388274 -0.044205 -0.000805 -0.043611 0.000046
    15 1.435262 -0.000001 -0.000001 0.000000 0.000000 0.793619
    16 1.482593 -0.000001 0.000001 0.000000 0.000000 1.465220
    17 -2.983184 -1.116035 -4.140396 0.000026 1.370769 -2.802391
    18 4.972047 0.000000 0.000000 -0.937282 -0.431045 1.114086
    19 11.585358 0.000000 0.000001 0.000000 0.000000 -0.688298
    20 10.127058 0.000000 0.000001 1.569752 0.000000 -0.069778
    21 1.537458 0.109715 1.664489 -0.233165 -0.412999 0.435664
    22 0.928313 0.000000 0.000002 0.000000 0.000000 0.000000
    23 0.928311 0.000000 0.000001 0.000000 0.000000 0.000000
    24 2.686395 -0.427337 0.044204 0.001045 0.043611 0.000046
    25 1.435260 0.000000 0.000001 0.000000 0.000000 0.331445
    26 1.482593 0.000000 -0.000001 0.000000 0.000000 0.000000
    27 2.046984 0.000001 0.000000 0.065012 0.147724 -0.186266
    28 -0.000005 0.000007 3.713254 -0.013099 -3.070091 5.457931
    29 18.045723 0.000000 0.000000 0.000000 0.000000 -1.442571
    30 17.597597 0.000000 0.000000 -0.040985 -0.094488 -0.160290
    31 0.000005 -0.000003 -3.713254 0.241664 3.034089 6.221012
    32 18.045721 0.000000 0.000000 0.000000 0.000000 -0.642604
    33 17.597597 0.000000 0.000000 -0.013390 0.089198 0.556207
  time 1
    0 0.235347 0.355631 0.337423 0.000000 0.000000 -1.571017
    1 2.906335 -0.242195 0.000000 -1.570795 -1.570787 0.000000
    2 1.293670 0.684478 -0.000001 -0.069421 -0.007012 -0.100602
    3 5.309685 -0.003834 0.000000 0.000000 0.000000 -0.134268
    4 4.826790 -0.004591 0.000000 -0.076946 -0.015556 -0.199924
    5 5.792767 -0.005304 0.000000 0.000000 0.000000 -0.218027
    6 6.662322 -0.001452 0.000000 0.000000 -0.000001 -0.320156
    7 -3.256630 -1.135602 4.339626 -0.000100 -1.370787 -2.822355
    8 4.827512 0.000000 -0.000002 0.869070 0.493728 1.070972
    9 11.140032 0.000000 0.000000 0.000000 0.000000 -0.287177
    10 10.314563 -0.000001 0.000001 -1.569942 0.000000 -0.069778
    11 1.646836 0.445664 -1.699647 0.153911 0.442352 0.277231
    12 0.928312 0.000000 0.000000 0.000000 0.000000 0.000000
    13 0.928313 0.000000 -0.000001 0.000000 0.000000 0.000000
    14 2.979373 -0.388274 -0.044205 -0.000805 -0.043611 0.000046
    15 1.435262 -0.000001 -0.000001 0.000000 0.000000 0.793619
    16 1.482593 -0.000001 0.000001 0.000000 0.000000 1.465220
    17 -3.006622 -1.053533 -4.140396 0.000026 1.370769 -2.822409
    18 4.972047 0.000000 0.000000 -0.884849 -0.542008 1.069627
    19 11.585358 0.000000 0.000001 0.000000 0.000000 -0.688298
    20 10.127058 0.000000 0.000001 1.569752 0.000000 -0.069778
    21 1.537458 0.109715 1.664489 -0.233165 -0.412999 0.435664
    22 0.928313 0.000000 0.000002 0.000000 0.000000 0.000000
    23 0.928311 0.000000 0.000001 0.000000 0.000000 0.000000
    24 2.686395 -0.427337 0.044204 0.001045 0.043611 0.000046
    25 1.435260 0.000000 0.000001 0.000000 0.000000 0.331445
    26 1.482593 0.000000 -0.000001 0.000000 0.000000 0.000000
    27 2.046984 0.000001 0.000000 0.055965 0.153595 -0.328058
    28 -0.000005 0.000007 3.713254 -0.019811 -3.073638 5.527045
    29 18.045723 0.000000 0.000000 0.000000 0.000000 -1.305051
    30 17.597597 0.000000 0.000000 -0.061484 -0.081715 -0.021099
    31 0.000005 -0.000003 -3.713254 0.236872 3.025365 6.164066
    32 18.045721 0.000000 0.000000 0.000000 0.000000 -0.704083
    33 17.597597 0.000000 0.000000 -0.014396 0.084129 0.560502
  time 2
    0 0.235347 0.496260 0.388206 0.000000 0.000000 -1.571017
    1 1.765675 -0.164068 0.000000 -1.570795 -1.570787 0.000000
    2 1.293670 0.684478 -0.000001 -0.069707 -0.002722 -0.039096
    3 5.309685 -0.003834 0.000000 0.000000 0.000000 -0.025177
    4 4.826790 -0.004591 0.000000 -0.076889 -0.015784 -0.202922
    5 5.792767 -0.005304 0.000000 0.000000 0.000000 -0.218027
    6 6.662322 -0.001452 0.000000 0.000000 -0.000001 -0.230810
    7 -3.350382 -0.846530 4.339626 -0.000100 -1.370787 -2.911562
    8 4.827512 0.000000 -0.000002 0.756590 0.626414 0.972450
    9 11.140032 0.000000 0.000000 0.000000 0.000000 -0.287177
    10 10.314563 -0.000001 0.000001 -1.569942 0.000000 -0.069778
    11 1.646836 0.445664 -1.699647 0.153911 0.442352 0.277231
    12 0.928312 0.000000 0.000000 0.000000 0.000000 0.000000
    13 0.928313 0.000000 -0.000001 0.000000 0.000000 0.000000
    14 2.979373 -0.388274 -0.044205 -0.000805 -0.043611 0.000046
    15 1.435262 -0.000001 -0.000001 0.000000 0.000000 0.793619
    16 1.482593 -0.000001 0.000001 0.000000 0.000000 1.465220
    17 -3.088656 -0.776181 -4.140396 0.000026 1.370769 -2.911676
    18 4.972047 0.000000 0.000000 -0.793677 -0.689771 0.988829
    19 11.585358 0.000000 0.000001 0.000000 0.000000 -0.688298
    20 10.127058 0.000000 0.000001 1.569752 0.000000 -0.069778
    21 1.537458 0.109715 1.664489 -0.233165 -0.412999 0.435664
    22 0.928313 0.000000 0.000002 0.000000 0.000000 0.000000
    23 0.928311 0.000000 0.000001 0.000000 0.000000 0.000000
    24 2.686395 -0.427337 0.044204 0.001045 0.043611 0.000046
    25 1.435260 0.000000 0.000001 0.000000 0.000000 0.331445
    26 1.482593 0.000000 -0.000001 0.000000 0.000000 0.000000
    27 2.046984 0.000001 0.000000 0.064452 0.151766 -0.451601
    28 -0.000005 0.000007 3.713254 -0.030644 -3.080541 5.653004
    29 18.045723 0.000000 0.000000 0.000000 0.000000 -1.055400
    30 17.597597 0.000000 0.000000 -0.082770 -0.058066 0.126666
    31 0.000005 -0.000003 -3.713254 0.232750 3.019805 6.110379
    32 18.045721 0.000000 0.000000 0.000000 0.000000 -0.736672
    33 17.597597 0.000000 0.000000 -0.015369 0.076891 0.539810
  time 3
    0 0.235347 0.632983 0.454614 0.000000 0.000000 -1.571017
    1 0.644547 -0.082034 0.000000 -1.570795 -1.570787 0.000000
    2 1.293670 0.684478 -0.000001 -0.069758 0.001353 0.019849
    3 5.309685 -0.003834 0.000000 0.000000 0.000000 0.078226
    4 4.826790 -0.004591 0.000000 -0.076851 -0.015940 -0.204929
    5 5.792767 -0.005304 0.000000 0.000000 0.000000 -0.218027
    6 6.662322 -0.001452 0.000000 0.000000 -0.000001 -0.140866
    7 -3.412884 -0.541834 4.339626 -0.000100 -1.370787 -3.001439
    8 4.827512 0.000000 -0.000002 0.621629 0.742471 0.849840
    9 11.140032 0.000000 0.000000 0.000000 0.000000 -0.287177
    10 10.314563 -0.000001 0.000001 -1.569942 0.000000 -0.069778
    11 1.646836 0.445664 -1.699647 0.153911 0.442352 0.277231
    12 0.928312 0.000000 0.000000 0.000000 0.000000 0.000000
    13 0.928313 0.000000 -0.000001 0.000000 0.000000 0.000000
    14 2.979373 -0.388274 -0.044205 -0.000805 -0.043611 0.000046
    15 1.435262 -0.000001 -0.000001 0.000000 0.000000 0.793619
    16 1.482593 -0.000001 0.000001 0.000000 0.000000 1.465220
    17 -3.151158 -0.494922 -4.140396 0.000026 1.370769 -3.001613
    18 4.972047 0.000000 0.000000 -0.677742 -0.824035 0.882407
    19 11.585358 0.000000 0.000001 0.000000 0.000000 -0.688298
    20 10.127058 0.000000 0.000001 1.569752 0.000000 -0.069778
    21 1.537458 0.109715 1.664489 -0.233165 -0.412999 0.435664
    22 0.928313 0.000000 0.000002 0.000000 0.000000 0.000000
    23 0.928311 0.000000 0.000001 0.000000 0.000000 0.000000
    24 2.686395 -0.427337 0.044204 0.001045 0.043611 0.000046
    25 1.435260 0.000000 0.000001 0.000000 0.000000 0.331445
    26 1.482593 0.000000 -0.000001 0.000000 0.000000 0.000000
    27 2.046984 0.000001 0.000000 0.073284 0.148019 -0.566628
    28 -0.000005 0.000007 3.713254 -0.041478 -3.089937 5.791617
    29 18.045723 0.000000 0.000000 0.000000 0.000000 -0.773182
    30 17.597597 0.000000 0.000000 -0.095921 -0.025876 0.279749
    31 0.000005 -0.000003 -3.713254 0.228821 3.015778 6.062540
    32 18.045721 0.000000 0.000000 0.000000 0.000000 -0.756902
    33 17.597597 0.000000 0.000000 -0.015906 0.069613 0.513067
  time 4
    0 0.235347 0.769706 0.528835 0.000000 0.000000 -1.571017
    1 -0.355484 -0.007813 0.000000 -1.570795 -1.570787 0.000000
    2 1.293670 0.684478 -0.000001 -0.069572 0.005068 0.072985
    3 5.309685 -0.003834 0.000000 0.000000 0.000000 0.171260
    4 4.826790 -0.004591 0.000000 -0.076793 -0.016071 -0.207001
    5 5.792767 -0.005304 0.000000 0.000000 0.000000 -0.218027
    6 6.662322 -0.001452 0.000000 0.000000 -0.000001 -0.059295
    7 -3.444135 -0.256669 4.339626 -0.000100 -1.370787 -3.083172
    8 4.827512 0.000000 -0.000002 0.470087 0.833629 0.708946
    9 11.140032 0.000000 0.000000 0.000000 0.000000 -0.287177
    10 10.314563 -0.000001 0.000001 -1.569942 0.000000 -0.069778
    11 1.646836 0.445664 -1.699647 0.153911 0.442352 0.277231
    12 0.928312 0.000000 0.000000 0.000000 0.000000 0.000000
    13 0.928313 0.000000 -0.000001 0.000000 0.000000 0.000000
    14 2.979373 -0.388274 -0.044205 -0.000805 -0.043611 0.000046
    15 1.435262 -0.000001 -0.000001 0.000000 0.000000 0.793619
    16 1.482593 -0.000001 0.000001 0.000000 0.000000 1.465220
    17 -3.182409 -0.237102 -4.140396 0.000026 1.370769 -3.083218
    18 4.972047 0.000000 0.000000 -0.537419 -0.934676 0.750028
    19 11.585358 0.000000 0.000001 0.000000 0.000000 -0.688298
    20 10.127058 0.000000 0.000001 1.569752 0.000000 -0.069778
    21 1.537458 0.109715 1.664489 -0.233165 -0.412999 0.435664
    22 0.928313 0.000000 0.000002 0.000000 0.000000 0.000000
    23 0.928311 0.000000 0.000001 0.000000 0.000000 0.000000
    24 2.686395 -0.427337 0.044204 0.001045 0.043611 0.000046
    25 1.435260 0.000000 0.000001 0.000000 0.000000 0.331445
    26 1.482593 0.000000 -0.000001 0.000000 0.000000 0.000000
    27 2.046984 0.000001 0.000000 0.080608 0.143387 -0.670645
    28 -0.000005 0.000007 3.713254 -0.042053 -3.093197 5.773691
    29 18.045723 0.000000 0.000000 0.000000 0.000000 -0.740245
    30 17.597597 0.000000 0.000000 -0.096504 -0.021619 0.229134
    31 0.000005 -0.000003 -3.713254 0.225658 3.013286 6.022563
    32 18.045721 0.000000 0.000000 0.000000 0.000000 -0.767215
    33 17.597597 0.000000 0.000000 -0.015940 0.062867 0.484107
  time 5
    0 0.235347 0.906429 0.599150 0.000000 0.000000 -1.571017
    1 -1.199259 0.039064 0.000000 -1.570795 -1.570787 0.000000
    2 1.293670 0.684478 -0.000001 -0.069269 0.008149 0.116981
    3 5.309685 -0.003834 0.000000 0.000000 0.000000 0.249245
    4 4.826790 -0.004591 0.000000 -0.076793 -0.016011 -0.206207
    5 5.792767 -0.005304 0.000000 0.000000 0.000000 -0.218027
    6 6.662322 -0.001452 0.000000 0.000000 -0.000001 0.008291
    7 -3.455854 -0.022286 4.339626 -0.000100 -1.370787 -3.150628
    8 4.827512 0.000000 -0.000002 0.313842 0.897755 0.561640
    9 11.140032 0.000000 0.000000 0.000000 0.000000 -0.287177
    10 10.314563 -0.000001 0.000001 -1.569942 0.000000 -0.069778
    11 1.646836 0.445664 -1.699647 0.153911 0.442352 0.277231
    12 0.928312 0.000000 0.000000 0.000000 0.000000 0.000000
    13 0.928313 0.000000 -0.000001 0.000000 0.000000 0.000000
    14 2.979373 -0.388274 -0.044205 -0.000805 -0.043611 0.000046
    15 1.435262 -0.000001 -0.000001 0.000000 0.000000 0.793619
    16 1.482593 -0.000001 0.000001 0.000000 0.000000 1.465220
    17 -3.186315 -0.026158 -4.140396 0.000026 1.370769 -3.150647
    18 4.972047 0.000000 0.000000 -0.378525 -1.017114 0.597750
    19 11.585358 0.000000 0.000001 0.000000 0.000000 -0.688298
    20 10.127058 0.000000 0.000001 1.569752 0.000000 -0.069778
    21 1.537458 0.109715 1.664489 -0.233165 -0.412999 0.435664
    22 0.928313 0.000000 0.000002 0.000000 0.000000 0.000000
    23 0.928311 0.000000 0.000001 0.000000 0.000000 0.000000
    24 2.686395 -0.427337 0.044204 0.001045 0.043611 0.000046
    25 1.435260 0.000000 0.000001 0.000000 0.000000 0.331445
    26 1.482593 0.000000 -0.000001 0.000000 0.000000 0.000000
    27 2.046984 0.000001 0.000000 0.087243 0.138047 -0.752277
    28 -0.000005 0.000007 3.713254 -0.042724 -3.096073 5.762475
    29 18.045723 0.000000 0.000000 0.000000 0.000000 -0.704644
    30 17.597597 0.000000 0.000000 -0.097137 -0.018050 0.182416
    31 0.000005 -0.000003 -3.713254 0.222974 3.012039 5.991022
    32 18.045721 0.000000 0.000000 0.000000 0.000000 -0.769970
    33 17.597597 0.000000 0.000000 -0.015570 0.057029 0.456210
  time 6
    0 0.235347 1.074403 0.610869 0.000000 0.000000 -1.571017
    1 -1.847717 0.093753 0.000000 -1.570795 -1.570787 0.000000
    2 1.293670 0.684478 -0.000001 -0.069084 0.009719 0.140000
    3 5.309685 -0.003834 0.000000 0.000000 0.000000 0.305238
    4 4.826790 -0.004591 0.000000 -0.077423 -0.012847 -0.165220
    5 5.792767 -0.005304 0.000000 0.000000 0.000000 -0.218027
    6 6.662322 -0.001452 0.000000 0.000000 -0.000001 0.043665
    7 -3.455854 0.094905 4.339626 -0.000100 -1.370787 -3.185985
    8 4.827512 0.000000 -0.000002 0.137508 0.946702 0.394578
    9 11.140032 0.000000 0.000000 0.000000 0.000000 -0.287177
    10 10.314563 -0.000001 0.000001 -1.569942 0.000000 -0.069778
    11 1.646836 0.445664 -1.699647 0.153911 0.442352 0.277231
    12 0.928312 0.000000 0.000000 0.000000 0.000000 0.000000
    13 0.928313 0.000000 -0.000001 0.000000 0.000000 0.000000
    14 2.979373 -0.388274 -0.044205 -0.000805 -0.043611 0.000046
    15 1.435262 -0.000001 -0.000001 0.000000 0.000000 0.793619
    16 1.482593 -0.000001 0.000001 0.000000 0.000000 1.465220
    17 -3.186315 0.091033 -4.140396 0.000026 1.370769 -3.186086
    18 4.972047 0.000000 0.000000 -0.176389 -1.078983 0.400879
    19 11.585358 0.000000 0.000001 0.000000 0.000000 -0.688298
    20 10.127058 0.000000 0.000001 1.569752 0.000000 -0.069778
    21 1.537458 0.109715 1.664489 -0.233165 -0.412999 0.435664
    22 0.928313 0.000000 0.000002 0.000000 0.000000 0.000000
    23 0.928311 0.000000 0.000001 0.000000 0.000000 0.000000
    24 2.686395 -0.427337 0.044204 0.001045 0.043611 0.000046
    25 1.435260 0.000000 0.000001 0.000000 0.000000 0.331445
    26 1.482593 0.000000 -0.000001 0.000000 0.000000 0.000000
    27 2.046984 0.000001 0.000000 0.106156 0.122587 -0.719308
    28 -0.000005 0.000007 3.713254 -0.043300 -3.098566 5.751452
    29 18.045723 0.000000 0.000000 0.000000 0.000000 -0.678887
    30 17.597597 0.000000 0.000000 -0.097796 -0.015073 0.145784
    31 0.000005 -0.000003 -3.713254 0.220195 3.010410 5.963219
    32 18.045721 0.000000 0.000000 0.000000 0.000000 -0.776425
    33 17.597597 0.000000 0.000000 -0.014899 0.052513 0.435332
  time 7
    0 0.243160 1.390818 -0.033682 0.000000 0.000000 -1.571017
    1 -2.429766 0.167974 0.000000 -1.570795 -1.570787 0.000000
    2 1.293670 0.684478 -0.000001 -0.069084 0.009719 0.140000
    3 5.309685 -0.003834 0.000000 0.000000 0.000000 0.339735
    4 4.826790 -0.004591 0.000000 -0.078243 -0.006316 -0.081348
    5 5.792767 -0.005304 0.000000 0.000000 0.000000 -0.088135
    6 6.662322 -0.001452 0.000000 0.000000 -0.000001 0.043665
    7 -3.455854 0.094905 4.339626 -0.000100 -1.370787 -3.185985
    8 4.827512 0.000000 -0.000002 -0.287224 0.991726 -0.007566
    9 11.140032 0.000000 0.000000 0.000000 0.000000 -0.287177
    10 10.314563 -0.000001 0.000001 -1.569942 0.000000 -0.069778
    11 1.646836 0.445664 -1.699647 0.153911 0.442352 0.277231
    12 0.928312 0.000000 0.000000 0.000000 0.000000 0.000000
    13 0.928313 0.000000 -0.000001 0.000000 0.000000 0.000000
    14 2.979373 -0.388274 -0.044205 -0.000805 -0.043611 0.000046
    15 1.435262 -0.000001 -0.000001 0.000000 0.000000 0.793619
    16 1.482593 -0.000001 0.000001 0.000000 0.000000 1.465220
    17 -3.186315 0.091033 -4.140396 0.000026 1.370769 -3.186086
    18 4.972047 0.000000 0.000000 0.357137 -1.116266 -0.125241
    19 11.585358 0.000000 0.000001 0.000000 0.000000 -0.688298
    20 10.127058 0.000000 0.000001 1.569752 0.000000 -0.069778
    21 1.537458 0.109715 1.664489 -0.233165 -0.412999 0.435664
    22 0.928313 0.000000 0.000002 0.000000 0.000000 0.000000
    23 0.928311 0.000000 0.000001 0.000000 0.000000 0.000000
    24 2.686395 -0.427337 0.044204 0.001045 0.043611 0.000046
    25 1.435260 0.000000 0.000001 0.000000 0.000000 0.331445
    26 1.482593 0.000000 -0.000001 0.000000 0.000000 0.000000
    27 2.046984 0.000001 0.000000 0.129981 0.095916 -0.730014
    28 -0.000005 0.000007 3.713254 -0.041478 -3.099141 5.686459
    29 18.045723 0.000000 0.000000 0.000000 0.000000 -0.749053
    30 17.597597 0.000000 0.000000 -0.098734 -0.011652 0.151103
    31 0.000005 -0.000003 -3.713254 0.210611 2.998426 5.890359
    32 18.045721 0.000000 0.000000 0.000000 0.000000 -0.870493
    33 17.597597 0.000000 0.000000 -0.013960 0.048805 0.456440
  time 8
    0 0.235347 0.613451 -1.049338 0.000000 0.000000 -1.571017
    1 -2.957125 0.238289 0.000000 -1.570795 -1.570787 0.000000
    2 1.293670 0.684478 -0.000001 -0.069084 0.009719 0.140000
    3 5.309685 -0.003834 0.000000 0.000000 0.000000 0.370223
    4 4.826790 -0.004591 0.000000 -0.078491 0.000168 0.001333
    5 5.792767 -0.005304 0.000000 0.000000 0.000000 0.045557
    6 6.662322 -0.001452 0.000000 0.000000 -0.000001 0.043665
    7 -3.455854 0.094905 4.339626 -0.000100 -1.370787 -3.185985
    8 4.827512 0.000000 -0.000002 -0.704781 0.939198 -0.401999
    9 11.140032 0.000000 0.000000 0.000000 0.000000 -0.287177
    10 10.314563 -0.000001 0.000001 -1.569942 0.000000 -0.069778
    11 1.646836 0.445664 -1.699647 0.153911 0.442352 0.277231
    12 0.928312 0.000000 0.000000 0.000000 0.000000 0.000000
    13 0.928313 0.000000 -0.000001 0.000000 0.000000 0.000000
    14 2.979373 -0.388274 -0.044205 -0.000805 -0.043611 0.000046
    15 1.435262 -0.000001 -0.000001 0.000000 0.000000 0.793619
    16 1.482593 -0.000001 0.000001 0.000000 0.000000 1.465220
    17 -3.186315 0.091033 -4.140396 0.000026 1.370769 -3.186086
    18 4.972047 0.000000 0.000000 0.836823 -1.030452 -0.598184
    19 11.585358 0.000000 0.000001 0.000000 0.000000 -0.688298
    20 10.127058 0.000000 0.000001 1.569752 0.000000 -0.069778
    21 1.537458 0.109715 1.664489 -0.233165 -0.412999 0.435664
    22 0.928313 0.000000 0.000002 0.000000 0.000000 0.000000
    23 0.928311 0.000000 0.000001 0.000000 0.000000 0.000000
    24 2.686395 -0.427337 0.044204 0.001045 0.043611 0.000046
    25 1.435260 0.000000 0.000001 0.000000 0.000000 0.331445
    26 1.482593 0.000000 -0.000001 0.000000 0.000000 0.000000
    27 2.046984 0.000001 0.000000 0.146611 0.066383 -0.752459
    28 -0.000005 0.000007 3.713254 -0.038794 -3.097607 5.614469
    29 18.045723 0.000000 0.000000 0.000000 0.000000 -0.895898
    30 17.597597 0.000000 0.000000 -0.099266 -0.010397 0.226017
    31 0.000005 -0.000003 -3.713254 0.199493 2.982800 5.837726
    32 18.045721 0.000000 0.000000 0.000000 0.000000 -0.995655
    33 17.597597 0.000000 0.000000 -0.013088 0.054445 0.527524
  time 9
    0 0.235347 -0.199074 -2.045462 0.000000 0.000000 -1.571017
    1 -3.402452 0.292978 0.000000 -1.570795 -1.570787 0.000000
    2 1.293670 0.684478 -0.000001 -0.069084 0.009719 0.140000
    3 5.309685 -0.003834 0.000000 0.000000 0.000000 0.397761
    4 4.826790 -0.004591 0.000000 -0.078243 0.006088 0.077025
    5 5.792767 -0.005304 0.000000 0.000000 0.000000 0.168535
    6 6.662322 -0.001452 0.000000 0.000000 -0.000001 0.043665
    7 -3.455854 0.094905 4.339626 -0.000100 -1.370787 -3.185985
    8 4.827512 0.000000 -0.000002 -1.002604 0.822117 -0.677460
    9 11.140032 0.000000 0.000000 0.000000 0.000000 -0.287177
    10 10.314563 -0.000001 0.000001 -1.569942 0.000000 -0.069778
    11 1.646836 0.445664 -1.699647 0.153911 0.442352 0.277231
    12 0.928312 0.000000 0.000000 0.000000 0.000000 0.000000
    13 0.928313 0.000000 -0.000001 0.000000 0.000000 0.000000
    14 2.979373 -0.388274 -0.044205 -0.000805 -0.043611 0.000046
    15 1.435262 -0.000001 -0.000001 0.000000 0.000000 0.793619
    16 1.482593 -0.000001 0.000001 0.000000 0.000000 1.465220
    17 -3.186315 0.091033 -4.140396 0.000026 1.370769 -3.186086
    18 4.972047 0.000000 0.000000 1.123941 -0.881404 -0.879380
    19 11.585358 0.000000 0.000001 0.000000 0.000000 -0.688298
    20 10.127058 0.000000 0.000001 1.569752 0.000000 -0.069778
    21 1.537458 0.109715 1.664489 -0.233165 -0.412999 0.435664
    22 0.928313 0.000000 0.000002 0.000000 0.000000 0.000000
    23 0.928311 0.000000 0.000001 0.000000 0.000000 0.000000
    24 2.686395 -0.427337 0.044204 0.001045 0.043611 0.000046
    25 1.435260 0.000000 0.000001 0.000000 0.000000 0.331445
    26 1.482593 0.000000 -0.000001 0.000000 0.000000 0.000000
    27 2.046984 0.000001 0.000000 0.155960 0.037204 -0.776487
    28 -0.000005 0.000007 3.713254 -0.036301 -3.096361 5.555611
    29 18.045723 0.000000 0.000000 0.000000 0.000000 -1.024758
    30 17.597597 0.000000 0.000000 -0.099671 -0.009535 0.296117
    31 0.000005 -0.000003 -3.713254 0.189334 2.969091 5.797461
    32 18.045721 0.000000 0.000000 0.000000 0.000000 -1.105388
    33 17.597597 0.000000 0.000000 -0.012651 0.061250 0.595559
  time 10
    0 0.235347 -1.007692 -2.986897 0.000000 0.000000 -1.571017
    1 -3.738399 0.347667 0.000000 -1.570795 -1.570787 0.000000
    2 1.293670 0.684478 -0.000001 -0.069084 0.009719 0.140000
    3 5.309685 -0.003834 0.000000 0.000000 0.000000 0.421553
    4 4.826790 -0.004591 0.000000 -0.077690 0.011242 0.142618
    5 5.792767 -0.005304 0.000000 0.000000 0.000000 0.275152
    6 6.662322 -0.001452 0.000000 0.000000 -0.000001 0.043665
    7 -3.455854 0.094905 4.339626 -0.000100 -1.370787 -3.185985
    8 4.827512 0.000000 -0.000002 -1.191852 0.687640 -0.846255
    9 11.140032 0.000000 0.000000 0.000000 0.000000 -0.287177
    10 10.314563 -0.000001 0.000001 -1.569942 0.000000 -0.069778
    11 1.646836 0.445664 -1.699647 0.153911 0.442352 0.277231
    12 0.928312 0.000000 0.000000 0.000000 0.000000 0.000000
    13 0.928313 0.000000 -0.000001 0.000000 0.000000 0.000000
    14 2.979373 -0.388274 -0.044205 -0.000805 -0.043611 0.000046
    15 1.435262 -0.000001 -0.000001 0.000000 0.000000 0.793619
    16 1.482593 -0.000001 0.000001 0.000000 0.000000 1.465220
    17 -3.186315 0.091033 -4.140396 0.000026 1.370769 -3.186086
    18 4.972047 0.000000 0.000000 1.285086 -0.724883 -1.035452
    19 11.585358 0.000000 0.000001 0.000000 0.000000 -0.688298
    20 10.127058 0.000000 0.000001 1.569752 0.000000 -0.069778
    21 1.537458 0.109715 1.664489 -0.233165 -0.412999 0.435664
    22 0.928313 0.000000 0.000002 0.000000 0.000000 0.000000
    23 0.928311 0.000000 0.000001 0.000000 0.000000 0.000000
    24 2.686395 -0.427337 0.044204 0.001045 0.043611 0.000046
    25 1.435260 0.000000 0.000001 0.000000 0.000000 0.331445
    26 1.482593 0.000000 -0.000001 0.000000 0.000000 0.000000
    27 2.046984 0.000001 0.000000 0.159493 0.010002 -0.791390
    28 -0.000005 0.000007 3.713254 -0.034288 -3.095114 5.509407
    29 18.045723 0.000000 0.000000 0.000000 0.000000 -1.136298
    30 17.597597 0.000000 0.000000 -0.099950 -0.009166 0.361449
    31 0.000005 -0.000003 -3.713254 0.180325 2.957395 5.769180
    32 18.045721 0.000000 0.000000 0.000000 0.000000 -1.198905
    33 17.597597 0.000000 0.000000 -0.012450 0.068765 0.659576
  time 11
    0 0.235347 -1.804592 -3.842392 0.000000 0.000000 -1.571017
    1 -3.855590 0.062502 0.000000 -1.570795 -1.570787 0.000000
    2 1.293670 0.684478 -0.000001 -0.069084 0.009719 0.140000
    3 5.309685 -0.003834 0.000000 0.075556 -0.034611 0.428142
    4 4.826790 -0.004591 0.000000 -0.032579 0.005453 0.164733
    5 5.792767 -0.005304 0.000000 0.000000 0.000000 0.310428
    6 6.662322 -0.001452 0.000000 0.000000 -0.000001 0.043665
    7 -3.455854 0.094905 4.339626 -0.000100 -1.370787 -3.185985
    8 4.827512 0.000000 -0.000002 -1.144978 0.601343 -0.922941
    9 11.140032 0.000000 0.000000 0.000000 0.000000 -0.287177
    10 10.314563 -0.000001 0.000001 -1.569942 0.000000 -0.069778
    11 1.646836 0.445664 -1.699647 0.153911 0.442352 0.277231
    12 0.928312 0.000000 0.000000 0.000000 0.000000 0.000000
    13 0.928313 0.000000 -0.000001 0.000000 0.000000 0.000000
    14 2.979373 -0.388274 -0.044205 -0.000805 -0.043611 0.000046
    15 1.435262 -0.000001 -0.000001 0.000000 0.000000 0.793619
    16 1.482593 -0.000001 0.000001 0.000000 0.000000 1.465220
    17 -3.186315 0.091033 -4.140396 0.000026 1.370769 -3.186086
    18 4.972047 0.000000 0.000000 0.958668 -0.676915 -0.917184
    19 11.585358 0.000000 0.000001 0.000000 0.000000 -0.688298
    20 10.127058 0.000000 0.000001 1.569752 0.000000 -0.069778
    21 1.537458 0.109715 1.664489 -0.233165 -0.412999 0.435664
    22 0.928313 0.000000 0.000002 0.000000 0.000000 0.000000
    23 0.928311 0.000000 0.000001 0.000000 0.000000 0.000000
    24 2.686395 -0.427337 0.044204 0.001045 0.043611 0.000046
    25 1.435260 0.000000 0.000001 0.000000 0.000000 0.331445
    26 1.482593 0.000000 -0.000001 0.000000 0.000000 0.000000
    27 2.046984 0.000001 0.000000 0.001551 0.031156 -0.267290
    28 -0.000005 0.000007 3.713254 -0.014538 -3.093005 5.477678
    29 18.045723 0.000000 0.000000 0.000000 0.000000 -1.233923
    30 17.597597 0.000000 0.000000 -0.111784 -0.023095 0.427560
    31 0.000005 -0.000003 -3.713254 0.201410 2.941002 5.760551
    32 18.045721 0.000000 0.000000 0.000000 0.000000 -1.277387
    33 17.597597 0.000000 0.000000 -0.039459 0.069258 0.724978
  time 12
    0 0.235347 -2.574146 -4.596321 0.000000 0.000000 -1.571017
    1 -3.898560 -0.207038 0.000000 -1.570795 -1.570787 0.000000
    2 1.293670 0.684478 -0.000001 -0.069084 0.009719 0.140000
    3 5.309685 -0.003834 0.000000 0.143624 -0.066395 0.429325
    4 4.826790 -0.004591 0.000000 0.009022 -0.001630 0.177697
    5 5.792767 -0.005304 0.000000 0.000000 0.000000 0.331336
    6 6.662322 -0.001452 0.000000 0.000000 -0.000001 0.043665
    7 -3.455854 0.094905 4.339626 -0.000100 -1.370787 -3.185985
    8 4.827512 0.000000 -0.000002 -1.082241 0.537900 -0.977531
    9 11.140032 0.000000 0.000000 0.000000 0.000000 -0.287177
    10 10.314563 -0.000001 0.000001 -1.569942 0.000000 -0.069778
    11 1.646836 0.445664 -1.699647 0.153911 0.442352 0.277231
    12 0.928312 0.000000 0.000000 0.000000 0.000000 0.000000
    13 0.928313 0.000000 -0.000001 0.000000 0.000000 0.000000
    14 2.979373 -0.388274 -0.044205 -0.000805 -0.043611 0.000046
    15 1.435262 -0.000001 -0.000001 0.000000 0.000000 0.793619
    16 1.482593 -0.000001 0.000001 0.000000 0.000000 1.465220
    17 -3.186315 0.091033 -4.140396 0.000026 1.370769 -3.186086
    18 4.972047 0.000000 0.000000 0.665547 -0.638427 -0.817950
    19 11.585358 0.000000 0.000001 0.000000 0.000000 -0.688298
    20 10.127058 0.000000 0.000001 1.569752 0.000000 -0.069778
    21 1.537458 0.109715 1.664489 -0.233165 -0.412999 0.435664
    22 0.928313 0.000000 0.000002 0.000000 0.000000 0.000000
    23 0.928311 0.000000 0.000001 0.000000 0.000000 0.000000
    24 2.686395 -0.427337 0.044204 0.001045 0.043611 0.000046
    25 1.435260 0.000000 0.000001 0.000000 0.000000 0.331445
    26 1.482593 0.000000 -0.000001 0.000000 0.000000 0.000000
    27 2.046984 0.000001 0.000000 -0.059799 0.133061 0.190690
    28 -0.000005 0.000007 3.713254 0.002336 -3.090320 5.457355
    29 18.045723 0.000000 0.000000 0.000000 0.000000 -1.315265
    30 17.597597 0.000000 0.000000 -0.120830 -0.036458 0.488903
    31 0.000005 -0.000003 -3.713254 0.219332 2.928156 5.762181
    32 18.045721 0.000000 0.000000 0.000000 0.000000 -1.340283
    33 17.597597 0.000000 0.000000 -0.061234 0.070954 0.785069
  time 13
    0 0.235347 -3.261667 -5.209621 0.000000 0.000000 -1.571017
    1 -3.906373 -0.347667 0.000000 -1.570795 -1.570787 0.000000
    2 1.293670 0.684478 -0.000001 -0.069084 0.009719 0.140000
    3 5.309685 -0.003834 0.000000 0.174238 -0.080752 0.429007
    4 4.826790 -0.004591 0.000000 0.042841 -0.007970 0.182945
    5 5.792767 -0.005304 0.000000 0.000000 0.000000 0.340160
    6 6.662322 -0.001452 0.000000 0.000000 -0.000001 0.043665
    7 -3.455854 0.094905 4.339626 -0.000100 -1.370787 -3.185985
    8 4.827512 0.000000 -0.000002 -1.043339 0.508395 -1.009938
    9 11.140032 0.000000 0.000000 0.000000 0.000000 -0.287177
    10 10.314563 -0.000001 0.000001 -1.569942 0.000000 -0.069778
    11 1.646836 0.445664 -1.699647 0.153911 0.442352 0.277231
    12 0.928312 0.000000 0.000000 0.000000 0.000000 0.000000
    13 0.928313 0.000000 -0.000001 0.000000 0.000000 0.000000
    14 2.979373 -0.388274 -0.044205 -0.000805 -0.043611 0.000046
    15 1.435262 -0.000001 -0.000001 0.000000 0.000000 0.793619
    16 1.482593 -0.000001 0.000001 0.000000 0.000000 1.465220
    17 -3.186315 0.091033 -4.140396 0.000026 1.370769 -3.186086
    18 4.972047 0.000000 0.000000 0.538825 -0.652649 -0.794788
    19 11.585358 0.000000 0.000001 0.000000 0.000000 -0.688298
    20 10.127058 0.000000 0.000001 1.569752 0.000000 -0.069778
    21 1.537458 0.109715 1.664489 -0.233165 -0.412999 0.435664
    22 0.928313 0.000000 0.000002 0.000000 0.000000 0.000000
    23 0.928311 0.000000 0.000001 0.000000 0.000000 0.000000
    24 2.686395 -0.427337 0.044204 0.001045 0.043611 0.000046
    25 1.435260 0.000000 0.000001 0.000000 0.000000 0.331445
    26 1.482593 0.000000 -0.000001 0.000000 0.000000 0.000000
    27 2.046984 0.000001 0.000000 -0.053078 0.137398 0.371168
    28 -0.000005 0.000007 3.713254 -0.012141 -3.069228 5.446044
    29 18.045723 0.000000 0.000000 0.000000 0.000000 -1.379510
    30 17.597597 0.000000 0.000000 -0.095110 -0.039313 0.540802
    31 0.000005 -0.000003 -3.713254 0.181666 2.954423 5.761510
    32 18.045721 0.000000 0.000000 0.000000 0.000000 -1.517871
    33 17.597597 0.000000 0.000000 -0.040130 0.057877 0.586044
  time 14
    0 0.235347 -3.339795 -9.295683 0.150308 0.205431 -1.329792
    1 -3.898560 -0.367199 0.000000 -1.570795 -1.570787 0.000000
    2 1.293670 0.684478 -0.000001 -0.069084 0.009719 0.140000
    3 5.309685 -0.003834 0.000000 0.175020 -0.081148 0.428937
    4 4.826790 -0.004591 0.000000 0.062125 -0.011529 0.182790
    5 5.792767 -0.005304 0.000000 0.008814 -0.003128 0.340098
    6 6.662322 -0.001452 0.000000 0.000000 -0.000001 0.043665
    7 -3.455854 0.094905 4.339626 -0.000100 -1.370787 -3.185985
    8 4.827512 0.000000 -0.000002 -1.026917 0.505666 -1.027875
    9 11.140032 0.000000 0.000000 0.000000 0.000000 -0.287177
    10 10.314563 -0.000001 0.000001 -1.569942 0.000000 -0.069778
    11 1.646836 0.445664 -1.699647 0.153911 0.442352 0.277231
    12 0.928312 0.000000 0.000000 0.000000 0.000000 0.000000
    13 0.928313 0.000000 -0.000001 0.000000 0.000000 0.000000
    14 2.979373 -0.388274 -0.044205 -0.000805 -0.043611 0.000046
    15 1.435262 -0.000001 -0.000001 0.000000 0.000000 0.793619
    16 1.482593 -0.000001 0.000001 0.000000 0.000000 1.465220
    17 -3.186315 0.091033 -4.140396 -0.516419 1.341771 -3.691327
    18 4.972047 0.000000 0.000000 0.520628 -0.513323 -0.614423
    19 11.585358 0.000000 0.000001 0.000000 0.000000 -0.732323
    20 10.127058 0.000000 0.000001 1.569752 0.000000 -0.069778
    21 1.537458 0.109715 1.664489 -0.233165 -0.412999 0.435664
    22 0.928313 0.000000 0.000002 0.000000 0.000000 0.000000
    23 0.928311 0.000000 0.000001 0.000000 0.000000 0.000000
    24 2.686395 -0.427337 0.044204 0.001045 0.043611 0.000046
    25 1.435260 0.000000 0.000001 0.000000 0.000000 0.331445
    26 1.482593 0.000000 -0.000001 0.000000 0.000000 0.000000
    27 2.046984 0.000001 0.000000 -0.047693 0.034254 0.365694
    28 -0.000005 0.000007 3.713254 -0.112617 3.124078 5.097596
    29 18.045723 0.000000 0.000000 0.000000 0.000000 -1.570098
    30 17.597597 0.000000 0.000000 0.101677 -0.043841 0.588621
    31 0.000005 -0.000003 -3.713254 0.056784 2.931032 5.465945
    32 18.045721 0.000000 0.000000 0.000000 0.000000 -1.868639
    33 17.597597 0.000000 0.000000 0.215365 0.178783 0.562304
  time 15
    0 0.235347 -3.378858 -13.412996 0.349155 0.361737 -1.052559
    1 -3.898560 -0.390637 0.000000 -1.570795 -1.570787 0.000000
    2 1.293670 0.684478 -0.000001 -0.069084 0.009719 0.140000
    3 5.309685 -0.003834 0.000000 0.173778 -0.080548 0.429043
    4 4.826790 -0.004591 0.000000 0.079578 -0.014789 0.182526
    5 5.792767 -0.005304 0.000000 0.017808 -0.006316 0.340098
    6 6.662322 -0.001452 0.000000 0.000000 -0.000001 0.043665
    7 -3.455854 0.094905 4.339626 -0.000100 -1.370787 -3.185985
    8 4.827512 0.000000 -0.000002 -1.013366 0.504131 -1.044338
    9 11.140032 0.000000 0.000000 0.000000 0.000000 -0.287177
    10 10.314563 -0.000001 0.000001 -1.569942 0.000000 -0.069778
    11 1.646836 0.445664 -1.699647 0.153911 0.442352 0.277231
    12 0.928312 0.000000 0.000000 0.000000 0.000000 0.000000
    13 0.928313 0.000000 -0.000001 0.000000 0.000000 0.000000
    14 2.979373 -0.388274 -0.044205 -0.000805 -0.043611 0.000046
    15 1.435262 -0.000001 -0.000001 0.000000 0.000000 0.793619
    16 1.482593 -0.000001 0.000001 0.000000 0.000000 1.465220
    17 -3.186315 0.091033 -4.140396 -0.846959 1.273784 -4.010562
    18 4.972047 0.000000 0.000000 0.528883 -0.390388 -0.448035
    19 11.585358 0.000000 0.000001 0.000000 0.000000 -0.775614
    20 10.127058 0.000000 0.000001 1.569752 0.000000 -0.069778
    21 1.537458 0.109715 1.664489 -0.233165 -0.412999 0.435664
    22 0.928313 0.000000 0.000002 0.000000 0.000000 0.000000
    23 0.928311 0.000000 0.000001 0.000000 0.000000 0.000000
    24 2.686395 -0.427337 0.044204 0.001045 0.043611 0.000046
    25 1.435260 0.000000 0.000001 0.000000 0.000000 0.331445
    26 1.482593 0.000000 -0.000001 0.000000 0.000000 0.000000
    27 2.046984 0.000001 0.000000 -0.039249 -0.097627 0.290205
    28 -0.000005 0.000007 3.713254 -5.911737 3.063101 4.798419
    29 18.045723 0.000000 0.000000 0.000000 0.000000 -1.553741
    30 17.597597 0.000000 0.000000 -0.154836 0.466537 0.162060
    31 0.000005 -0.000003 -3.713254 0.153105 -2.919630 5.146029
    32 18.045721 0.000000 0.000000 0.000000 0.000000 -1.887925
    33 17.597597 0.000000 0.000000 -0.351555 0.238782 0.206932
  time 16
    0 0.235347 -3.394484 -16.721691 0.565776 0.447634 -0.772856
    1 -3.898560 -0.398450 0.000000 -1.570795 -1.570787 0.000000
    2 1.293670 0.684478 -0.000001 -0.069084 0.009719 0.140000
    3 5.309685 -0.003834 0.000000 0.172349 -0.079889 0.429166
    4 4.826790 -0.004591 0.000000 0.097947 -0.018193 0.182261
    5 5.792767 -0.005304 0.000000 0.027305 -0.009696 0.340015
    6 6.662322 -0.001452 0.000000 0.000000 -0.000001 0.043665
    7 -3.455854 0.094905 4.339626 -0.000100 -1.370787 -3.185985
    8 4.827512 0.000000 -0.000002 -0.999335 0.502682 -1.061842
    9 11.140032 0.000000 0.000000 0.000000 0.000000 -0.287177
    10 10.314563 -0.000001 0.000001 -1.569942 0.000000 -0.069778
    11 1.646836 0.445664 -1.699647 0.153911 0.442352 0.277231
    12 0.928312 0.000000 0.000000 0.000000 0.000000 0.000000
    13 0.928313 0.000000 -0.000001 0.000000 0.000000 0.000000
    14 2.979373 -0.388274 -0.044205 -0.000805 -0.043611 0.000046
    15 1.435262 -0.000001 -0.000001 0.000000 0.000000 0.793619
    16 1.482593 -0.000001 0.000001 0.000000 0.000000 1.465220
    17 -3.186315 0.091033 -4.140396 -1.043468 1.187814 -4.196280
    18 4.972047 0.000000 0.000000 0.537512 -0.323538 -0.313526
    19 11.585358 0.000000 0.000001 0.000000 0.000000 -0.822498
    20 10.127058 0.000000 0.000001 1.569752 0.000000 -0.069778
    21 1.537458 0.109715 1.664489 -0.233165 -0.412999 0.435664
    22 0.928313 0.000000 0.000002 0.000000 0.000000 0.000000
    23 0.928311 0.000000 0.000001 0.000000 0.000000 0.000000
    24 2.686395 -0.427337 0.044204 0.001045 0.043611 0.000046
    25 1.435260 0.000000 0.000001 0.000000 0.000000 0.331445
    26 1.482593 0.000000 -0.000001 0.000000 0.000000 0.000000
    27 2.046984 0.000001 0.000000 -0.024902 -0.222545 0.195678
    28 -0.000005 0.000007 3.713254 -5.886331 -2.954850 4.808293
    29 18.045723 0.000000 0.000000 0.000000 0.000000 -1.313933
    30 17.597597 0.000000 0.000000 0.056623 0.324589 0.122769
    31 0.000005 -0.000003 -3.713254 0.220962 -2.862206 5.209111
    32 18.045721 0.000000 0.000000 0.000000 0.000000 -1.620677
    33 17.597597 0.000000 0.000000 -0.349039 0.127304 0.006614
  time 17
    0 0.235347 -3.402297 -19.335052 0.763216 0.472909 -0.526975
    1 -3.890748 -0.421888 0.000000 -1.570795 -1.570787 0.000000
    2 1.293670 0.684478 -0.000001 -0.069084 0.009719 0.140000
    3 5.309685 -0.003834 0.000000 0.171055 -0.079302 0.429255
    4 4.826790 -0.004591 0.000000 0.113836 -0.021129 0.181953
    5 5.792767 -0.005304 0.000000 0.035634 -0.012644 0.339911
    6 6.662322 -0.001452 0.000000 0.000000 -0.000001 0.043665
    7 -3.455854 0.094905 4.339626 -0.000100 -1.370787 -3.185985
    8 4.827512 0.000000 -0.000002 -0.987139 0.501658 -1.077005
    9 11.140032 0.000000 0.000000 0.000000 0.000000 -0.287177
    10 10.314563 -0.000001 0.000001 -1.569942 0.000000 -0.069778
    11 1.646836 0.445664 -1.699647 0.153911 0.442352 0.277231
    12 0.928312 0.000000 0.000000 0.000000 0.000000 0.000000
    13 0.928313 0.000000 -0.000001 0.000000 0.000000 0.000000
    14 2.979373 -0.388274 -0.044205 -0.000805 -0.043611 0.000046
    15 1.435262 -0.000001 -0.000001 0.000000 0.000000 0.793619
    16 1.482593 -0.000001 0.000001 0.000000 0.000000 1.465220
    17 -3.186315 0.091033 -4.140396 -1.151706 1.108469 -4.295125
    18 4.972047 0.000000 0.000000 0.501493 -0.451133 -0.325773
    19 11.585358 0.000000 0.000001 0.000000 0.000000 -0.873793
    20 10.127058 0.000000 0.000001 1.569752 0.000000 -0.069778
    21 1.537458 0.109715 1.664489 -0.233165 -0.412999 0.435664
    22 0.928313 0.000000 0.000002 0.000000 0.000000 0.000000
    23 0.928311 0.000000 0.000001 0.000000 0.000000 0.000000
    24 2.686395 -0.427337 0.044204 0.001045 0.043611 0.000046
    25 1.435260 0.000000 0.000001 0.000000 0.000000 0.331445
    26 1.482593 0.000000 -0.000001 0.000000 0.000000 0.000000
    27 2.046984 0.000001 0.000000 0.002714 -0.345161 0.088376
    28 -0.000005 0.000007 3.713254 -5.940116 -2.694550 4.879324
    29 18.045723 0.000000 0.000000 0.000000 0.000000 -1.131265
    30 17.597597 0.000000 0.000000 0.238334 0.106450 0.019751
    31 0.000005 -0.000003 -3.713254 0.267541 -2.839006 5.298269
    32 18.045721 0.000000 0.000000 0.000000 0.000000 -1.368464
    33 17.597597 0.000000 0.000000 -0.306865 0.014348 -0.151950
  time 18
    0 0.235347 -3.402297 -21.608559 0.937629 0.459226 -0.314823
    1 -3.886841 -0.433607 0.000000 -1.570795 -1.570787 0.000000
    2 1.293670 0.684478 -0.000001 -0.069084 0.009719 0.140000
    3 5.309685 -0.003834 0.000000 0.169949 -0.078823 0.429361
    4 4.826790 -0.004591 0.000000 0.127188 -0.023598 0.181622
    5 5.792767 -0.005304 0.000000 0.042595 -0.015113 0.339828
    6 6.662322 -0.001452 0.000000 0.000000 -0.000001 0.043665
    7 -3.455854 0.094905 4.339626 -0.000100 -1.370787 -3.185985
    8 4.827512 0.000000 -0.000002 -0.976935 0.500976 -1.089830
    9 11.140032 0.000000 0.000000 0.000000 0.000000 -0.287177
    10 10.314563 -0.000001 0.000001 -1.569942 0.000000 -0.069778
    11 1.646836 0.445664 -1.699647 0.153911 0.442352 0.277231
    12 0.928312 0.000000 0.000000 0.000000 0.000000 0.000000
    13 0.928313 0.000000 -0.000001 0.000000 0.000000 0.000000
    14 2.979373 -0.388274 -0.044205 -0.000805 -0.043611 0.000046
    15 1.435262 -0.000001 -0.000001 0.000000 0.000000 0.793619
    16 1.482593 -0.000001 0.000001 0.000000 0.000000 1.465220
    17 -3.186315 0.091033 -4.140396 -1.226507 1.029782 -4.360639
    18 4.972047 0.000000 0.000000 0.552051 -0.644293 -0.418950
    19 11.585358 0.000000 0.000001 0.000000 0.000000 -0.932439
    20 10.127058 0.000000 0.000001 1.569752 0.000000 -0.069778
    21 1.537458 0.109715 1.664489 -0.233165 -0.412999 0.435664
    22 0.928313 0.000000 0.000002 0.000000 0.000000 0.000000
    23 0.928311 0.000000 0.000001 0.000000 0.000000 0.000000
    24 2.686395 -0.427337 0.044204 0.001045 0.043611 0.000046
    25 1.435260 0.000000 0.000001 0.000000 0.000000 0.331445
    26 1.482593 0.000000 -0.000001 0.000000 0.000000 0.000000
    27 2.046984 0.000001 0.000000 0.051958 -0.470609 -0.040764
    28 -0.000005 0.000007 3.713254 -6.007132 -2.518620 4.974513
    29 18.045723 0.000000 0.000000 0.000000 0.000000 -1.139703
    30 17.597597 0.000000 0.000000 0.393437 0.059741 -0.239193
    31 0.000005 -0.000003 -3.713254 0.297827 -2.817436 5.385990
    32 18.045721 0.000000 0.000000 0.000000 0.000000 -1.155925
    33 17.597597 0.000000 0.000000 -0.260832 -0.080641 -0.284325
  time 19
    0 0.235347 -3.414016 -23.975819 1.019700 0.439937 -0.215730
    1 -3.886841 -0.441420 0.000000 -1.570795 -1.570787 0.000000
    2 1.293670 0.684478 -0.000001 -0.069084 0.009719 0.140000
    3 5.309685 -0.003834 0.000000 0.168945 -0.078355 0.429431
    4 4.826790 -0.004591 0.000000 0.138957 -0.025767 0.181357
    5 5.792767 -0.005304 0.000000 0.048747 -0.017282 0.339745
    6 6.662322 -0.001452 0.000000 0.000000 -0.000001 0.043665
    7 -3.455854 0.094905 4.339626 -0.000100 -1.370787 -3.185985
    8 4.827512 0.000000 -0.000002 -0.967927 0.500465 -1.101094
    9 11.140032 0.000000 0.000000 0.000000 0.000000 -0.287177
    10 10.314563 -0.000001 0.000001 -1.569942 0.000000 -0.069778
    11 1.646836 0.445664 -1.699647 0.153911 0.442352 0.277231
    12 0.928312 0.000000 0.000000 0.000000 0.000000 0.000000
    13 0.928313 0.000000 -0.000001 0.000000 0.000000 0.000000
    14 2.979373 -0.388274 -0.044205 -0.000805 -0.043611 0.000046
    15 1.435262 -0.000001 -0.000001 0.000000 0.000000 0.793619
    16 1.482593 -0.000001 0.000001 0.000000 0.000000 1.465220
    17 -3.186315 0.091033 -4.140396 -1.284495 0.948072 -4.409104
    18 4.972047 0.000000 0.000000 0.702691 -0.737096 -0.493692
    19 11.585358 0.000000 0.000001 0.000000 0.000000 -0.990840
    20 10.127058 0.000000 0.000001 1.569752 0.000000 -0.069778
    21 1.537458 0.109715 1.664489 -0.233165 -0.412999 0.435664
    22 0.928313 0.000000 0.000002 0.000000 0.000000 0.000000
    23 0.928311 0.000000 0.000001 0.000000 0.000000 0.000000
    24 2.686395 -0.427337 0.044204 0.001045 0.043611 0.000046
    25 1.435260 0.000000 0.000001 0.000000 0.000000 0.331445
    26 1.482593 0.000000 -0.000001 0.000000 0.000000 0.000000
    27 2.046984 0.000001 0.000000 0.123777 -0.587532 -0.189429
    28 -0.000005 0.000007 3.713254 -6.093418 -2.442496 5.111783
    29 18.045723 0.000000 0.000000 0.000000 0.000000 -1.216234
    30 17.597597 0.000000 0.000000 0.432942 0.095695 -0.448806
    31 0.000005 -0.000003 -3.713254 0.301373 -2.778610 5.473039
    32 18.045721 0.000000 0.000000 0.000000 0.000000 -1.000142
    33 17.597597 0.000000 0.000000 -0.200607 -0.145748 -0.400950
  time 20
    0 0.235347 -3.456986 -26.577461 1.021248 0.439367 -0.224470
    1 -3.886841 -0.453139 0.000000 -1.570795 -1.570787 0.000000
    2 1.293670 0.684478 -0.000001 -0.069084 0.009719 0.140000
    3 5.309685 -0.003834 0.000000 0.168009 -0.077948 0.429520
    4 4.826790 -0.004591 0.000000 0.150230 -0.027816 0.181049
    5 5.792767 -0.005304 0.000000 0.054629 -0.019343 0.339579
    6 6.662322 -0.001452 0.000000 0.000000 -0.000001 0.043665
    7 -3.455854 0.094905 4.339626 -0.000100 -1.370787 -3.185985
    8 4.827512 0.000000 -0.000002 -0.959238 0.499953 -1.111752
    9 11.140032 0.000000 0.000000 0.000000 0.000000 -0.287177
    10 10.314563 -0.000001 0.000001 -1.569942 0.000000 -0.069778
    11 1.646836 0.445664 -1.699647 0.153911 0.442352 0.277231
    12 0.928312 0.000000 0.000000 0.000000 0.000000 0.000000
    13 0.928313 0.000000 -0.000001 0.000000 0.000000 0.000000
    14 2.979373 -0.388274 -0.044205 -0.000805 -0.043611 0.000046
    15 1.435262 -0.000001 -0.000001 0.000000 0.000000 0.793619
    16 1.482593 -0.000001 0.000001 0.000000 0.000000 1.465220
    17 -3.186315 0.091033 -4.140396 -1.327293 0.871540 -4.442914
    18 4.972047 0.000000 0.000000 0.887662 -0.791654 -0.589332
    19 11.585358 0.000000 0.000001 0.000000 0.000000 -1.045239
    20 10.127058 0.000000 0.000001 1.569752 0.000000 -0.069778
    21 1.537458 0.109715 1.664489 -0.233165 -0.412999 0.435664
    22 0.928313 0.000000 0.000002 0.000000 0.000000 0.000000
    23 0.928311 0.000000 0.000001 0.000000 0.000000 0.000000
    24 2.686395 -0.427337 0.044204 0.001045 0.043611 0.000046
    25 1.435260 0.000000 0.000001 0.000000 0.000000 0.331445
    26 1.482593 0.000000 -0.000001 0.000000 0.000000 0.000000
    27 2.046984 0.000001 0.000000 0.166731 -0.646421 -0.278908
    28 -0.000005 0.000007 3.713254 -6.127070 -2.555436 5.312608
    29 18.045723 0.000000 0.000000 0.000000 0.000000 -1.267600
    30 17.597597 0.000000 0.000000 0.215300 -0.073619 -0.414329
    31 0.000005 -0.000003 -3.713254 0.154064 -2.657721 5.538134
    32 18.045721 0.000000 0.000000 0.000000 0.000000 -1.243932
    33 17.597597 0.000000 0.000000 -0.073447 0.025057 -0.349312
  time 21
    0 0.235347 -3.539020 -28.847061 1.039632 0.442788 -0.251642
    1 -3.879029 -0.460952 0.000000 -1.570795 -1.570787 0.000000
    2 1.293670 0.684478 -0.000001 -0.069084 0.009719 0.140000
    3 5.309685 -0.003834 0.000000 0.167091 -0.077492 0.429573
    4 4.826790 -0.004591 0.000000 0.161426 -0.029902 0.180696
    5 5.792767 -0.005304 0.000000 0.060493 -0.021428 0.339475
    6 6.662322 -0.001452 0.000000 0.000000 -0.000001 0.043665
    7 -3.455854 0.094905 4.339626 -0.000100 -1.370787 -3.185985
    8 4.827512 0.000000 -0.000002 -0.950628 0.499697 -1.122583
    9 11.140032 0.000000 0.000000 0.000000 0.000000 -0.287177
    10 10.314563 -0.000001 0.000001 -1.569942 0.000000 -0.069778
    11 1.646836 0.445664 -1.699647 0.153911 0.442352 0.277231
    12 0.928312 0.000000 0.000000 0.000000 0.000000 0.000000
    13 0.928313 0.000000 -0.000001 0.000000 0.000000 0.000000
    14 2.979373 -0.388274 -0.044205 -0.000805 -0.043611 0.000046
    15 1.435262 -0.000001 -0.000001 0.000000 0.000000 0.793619
    16 1.482593 -0.000001 0.000001 0.000000 0.000000 1.465220
    17 -3.186315 0.091033 -4.140396 -1.362353 0.795403 -4.468966
    18 4.972047 0.000000 0.000000 1.081168 -0.808447 -0.685704
    19 11.585358 0.000000 0.000001 0.000000 0.000000 -1.098494
    20 10.127058 0.000000 0.000001 1.569752 0.000000 -0.069778
    21 1.537458 0.109715 1.664489 -0.233165 -0.412999 0.435664
    22 0.928313 0.000000 0.000002 0.000000 0.000000 0.000000
    23 0.928311 0.000000 0.000001 0.000000 0.000000 0.000000
    24 2.686395 -0.427337 0.044204 0.001045 0.043611 0.000046
    25 1.435260 0.000000 0.000001 0.000000 0.000000 0.331445
    26 1.482593 0.000000 -0.000001 0.000000 0.000000 0.000000
    27 2.046984 0.000001 0.000000 -0.063720 -0.265679 0.008447
    28 -0.000005 0.000007 3.713254 -6.116524 -2.680552 5.384023
    29 18.045723 0.000000 0.000000 0.000000 0.000000 -1.338358
    30 17.597597 0.000000 0.000000 0.015016 -0.197848 -0.312548
    31 0.000005 -0.000003 -3.713254 6.249436 -2.604036 5.579742
    32 18.045721 0.000000 0.000000 0.000000 0.000000 -1.598635
    33 17.597597 0.000000 0.000000 -0.090726 0.253653 -0.209223
  time 22
    0 0.235347 -3.839810 -29.354889 1.132771 0.444308 -0.266274
    1 -3.875122 -0.464858 0.000000 -1.570795 -1.570787 0.000000
    2 1.293670 0.684478 -0.000001 -0.069084 0.009719 0.140000
    3 5.309685 -0.003834 0.000000 0.166274 -0.077145 0.429643
    4 4.826790 -0.004591 0.000000 0.171555 -0.031723 0.180409
    5 5.792767 -0.005304 0.000000 0.065727 -0.023286 0.339392
    6 6.662322 -0.001452 0.000000 0.000000 -0.000001 0.043665
    7 -3.455854 0.094905 4.339626 -0.000100 -1.370787 -3.185985
    8 4.827512 0.000000 -0.000002 -0.942896 0.499356 -1.132202
    9 11.140032 0.000000 0.000000 0.000000 0.000000 -0.287177
    10 10.314563 -0.000001 0.000001 -1.569942 0.000000 -0.069778
    11 1.646836 0.445664 -1.699647 0.153911 0.442352 0.277231
    12 0.928312 0.000000 0.000000 0.000000 0.000000 0.000000
    13 0.928313 0.000000 -0.000001 0.000000 0.000000 0.000000
    14 2.979373 -0.388274 -0.044205 -0.000805 -0.043611 0.000046
    15 1.435262 -0.000001 -0.000001 0.000000 0.000000 0.793619
    16 1.482593 -0.000001 0.000001 0.000000 0.000000 1.465220
    17 -3.186315 0.091033 -4.140396 -1.393497 0.715690 -4.490230
    18 4.972047 0.000000 0.000000 1.238562 -0.784904 -0.733824
    19 11.585358 0.000000 0.000001 0.000000 0.000000 -1.150606
    20 10.127058 0.000000 0.000001 1.569752 0.000000 -0.069778
    21 1.537458 0.109715 1.664489 -0.233165 -0.412999 0.435664
    22 0.928313 0.000000 0.000002 0.000000 0.000000 0.000000
    23 0.928311 0.000000 0.000001 0.000000 0.000000 0.000000
    24 2.686395 -0.427337 0.044204 0.001045 0.043611 0.000046
    25 1.435260 0.000000 0.000001 0.000000 0.000000 0.331445
    26 1.482593 0.000000 -0.000001 0.000000 0.000000 0.000000
    27 2.046984 0.000001 0.000000 -0.184093 0.280755 0.343735
    28 -0.000005 0.000007 3.713254 -6.125344 -2.714204 5.307815
    29 18.045723 0.000000 0.000000 0.000000 0.000000 -1.417776
    30 17.597597 0.000000 0.000000 -0.012047 -0.159162 -0.301682
    31 0.000005 -0.000003 -3.713254 6.201802 -2.680921 5.580796
    32 18.045721 0.000000 0.000000 0.000000 0.000000 -1.598635
    33 17.597597 0.000000 0.000000 -0.170344 0.233496 -0.260492
  time 23
    0 0.235347 -4.308574 -26.663401 1.244997 0.451815 -0.294396
    1 -3.859497 -0.390637 0.000000 -1.570795 -1.570787 0.000000
    2 1.293670 0.684478 -0.000001 -0.069101 0.023728 0.139029
    3 5.309685 -0.003834 0.000000 0.166274 -0.077145 0.429643
    4 4.826790 -0.004591 0.000000 0.171631 -0.044523 0.178204
    5 5.792767 -0.005304 0.000000 0.065727 -0.023286 0.339392
    6 6.662322 -0.001452 0.000000 0.000000 -0.000001 0.043665
    7 -3.455854 0.094905 4.339626 0.145693 -1.368687 -3.328850
    8 4.827512 0.000000 -0.000002 -0.956846 0.521868 -1.145806
    9 11.140032 0.000000 0.000000 0.000000 0.000000 -0.287177
    10 10.314563 -0.000001 0.000001 -1.604535 0.091986 -0.084700
    11 1.646836 0.445664 -1.699647 0.153911 0.442352 0.277231
    12 0.928312 0.000000 0.000000 0.000000 0.000000 0.000000
    13 0.928313 0.000000 -0.000001 0.000000 0.000000 0.000000
    14 2.979373 -0.388274 -0.044205 -0.000805 -0.043611 0.000046
    15 1.435262 -0.000001 -0.000001 0.000000 0.000000 0.793619
    16 1.482593 -0.000001 0.000001 0.000000 0.000000 1.465220
    17 -3.186315 0.091033 -4.140396 -1.418908 0.640710 -4.506225
    18 4.972047 0.000000 0.000000 1.162492 -0.682057 -0.486570
    19 11.585358 0.000000 0.000001 0.000000 0.000000 -1.188260
    20 10.127058 0.000000 0.000001 1.569752 0.000000 -0.069778
    21 1.537458 0.109715 1.664489 -0.233165 -0.412999 0.435664
    22 0.928313 0.000000 0.000002 0.000000 0.000000 0.000000
    23 0.928311 0.000000 0.000001 0.000000 0.000000 0.000000
    24 2.686395 -0.427337 0.044204 0.001045 0.043611 0.000046
    25 1.435260 0.000000 0.000001 0.000000 0.000000 0.331445
    26 1.482593 0.000000 -0.000001 0.000000 0.000000 0.000000
    27 2.046984 0.000001 0.000000 -0.181939 0.016404 0.461317
    28 -0.000005 0.000007 3.713254 -6.138383 -2.728490 5.201507
    29 18.045723 0.000000 0.000000 0.000000 0.000000 -1.494529
    30 17.597597 0.000000 0.000000 -0.022588 -0.103815 -0.321672
    31 0.000005 -0.000003 -3.713254 6.181771 -2.781006 5.566799
    32 18.045721 0.000000 0.000000 0.000000 0.000000 -1.598635
    33 17.597597 0.000000 0.000000 -0.250968 0.170775 -0.270238
  time 24
    0 0.235347 -4.652335 -24.893815 1.312671 0.459226 -0.314823
    1 -3.828246 -0.253914 0.000000 -1.570795 -1.570787 0.000000
    2 1.293670 0.684478 -0.000001 -0.069135 0.047734 0.137355
    3 5.309685 -0.003834 0.000000 0.166274 -0.077145 0.429643
    4 4.826790 -0.004591 0.000000 0.171822 -0.066383 0.174390
    5 5.792767 -0.005304 0.000000 0.065727 -0.023286 0.339392
    6 6.662322 -0.001452 0.000000 0.000000 -0.000001 0.043665
    7 -3.455854 0.094905 4.339626 0.379479 -1.355913 -3.557760
    8 4.827512 0.000000 -0.000002 -0.983312 0.559900 -1.170674
    9 11.140032 0.000000 0.000000 0.000000 0.000000 -0.287177
    10 10.314563 -0.000001 0.000001 -1.668509 0.247950 -0.118493
    11 1.646836 0.445664 -1.699647 0.153911 0.442352 0.277231
    12 0.928312 0.000000 0.000000 0.000000 0.000000 0.000000
    13 0.928313 0.000000 -0.000001 0.000000 0.000000 0.000000
    14 2.979373 -0.388274 -0.044205 -0.000805 -0.043611 0.000046
    15 1.435262 -0.000001 -0.000001 0.000000 0.000000 0.793619
    16 1.482593 -0.000001 0.000001 0.000000 0.000000 1.465220
    17 -3.186315 0.091033 -4.140396 -1.434480 0.590311 -4.515133
    18 4.972047 0.000000 0.000000 1.085296 -0.569166 -0.262279
    19 11.585358 0.000000 0.000001 0.000000 0.000000 -1.199205
    20 10.127058 0.000000 0.000001 1.569752 0.000000 -0.069778
    21 1.537458 0.109715 1.664489 -0.233165 -0.412999 0.435664
    22 0.928313 0.000000 0.000002 0.000000 0.000000 0.000000
    23 0.928311 0.000000 0.000001 0.000000 0.000000 0.000000
    24 2.686395 -0.427337 0.044204 0.001045 0.043611 0.000046
    25 1.435260 0.000000 0.000001 0.000000 0.000000 0.331445
    26 1.482593 0.000000 -0.000001 0.000000 0.000000 0.000000
    27 2.046984 0.000001 0.000000 -0.207660 -0.399359 0.543314
    28 -0.000005 0.000007 3.713254 -6.152764 -2.737406 5.085901
    29 18.045723 0.000000 0.000000 0.000000 0.000000 -1.570764
    30 17.597597 0.000000 0.000000 -0.034929 -0.044432 -0.350876
    31 0.000005 -0.000003 -3.713254 6.167970 -2.875723 5.550022
    32 18.045721 0.000000 0.000000 0.000000 0.000000 -1.598635
    33 17.597597 0.000000 0.000000 -0.320487 0.100855 -0.257166
  time 25
    0 0.235347 -4.628897 -26.518865 1.294099 0.461031 -0.319288
    1 -3.789182 -0.082034 0.000000 -1.570795 -1.570787 0.000000
    2 1.293670 0.684478 -0.000001 -0.069236 0.077264 0.135329
    3 5.309685 -0.003834 0.000000 0.166274 -0.077145 0.429643
    4 4.826790 -0.004591 0.000000 0.172146 -0.093276 0.169716
    5 5.792767 -0.005304 0.000000 0.065727 -0.023286 0.339392
    6 6.662322 -0.001452 0.000000 0.000000 -0.000001 0.043665
    7 -3.455854 0.094905 4.339626 0.618632 -1.326906 -3.790503
    8 4.827512 0.000000 -0.000002 -1.021337 0.605607 -1.204555
    9 11.140032 0.000000 0.000000 0.000000 0.000000 -0.287177
    10 10.314563 -0.000001 0.000001 -1.760252 0.436232 -0.177660
    11 1.646836 0.445664 -1.699647 0.153911 0.442352 0.277231
    12 0.928312 0.000000 0.000000 0.000000 0.000000 0.000000
    13 0.928313 0.000000 -0.000001 0.000000 0.000000 0.000000
    14 2.979373 -0.388274 -0.044205 -0.000805 -0.043611 0.000046
    15 1.435262 -0.000001 -0.000001 0.000000 0.000000 0.793619
    16 1.482593 -0.000001 0.000001 0.000000 0.000000 1.465220
    17 -3.186315 0.091033 -4.140396 -1.446135 0.549745 -4.521550
    18 4.972047 0.000000 0.000000 1.215300 -0.584272 -0.382744
    19 11.585358 0.000000 0.000001 0.000000 0.000000 -1.201166
    20 10.127058 0.000000 0.000001 1.569752 0.000000 -0.069778
    21 1.537458 0.109715 1.664489 -0.233165 -0.412999 0.435664
    22 0.928313 0.000000 0.000002 0.000000 0.000000 0.000000
    23 0.928311 0.000000 0.000001 0.000000 0.000000 0.000000
    24 2.686395 -0.427337 0.044204 0.001045 0.043611 0.000046
    25 1.435260 0.000000 0.000001 0.000000 0.000000 0.331445
    26 1.482593 0.000000 -0.000001 0.000000 0.000000 0.000000
    27 2.046984 0.000001 0.000000 -0.239800 -0.645624 0.598424
    28 -0.000005 0.000007 3.713254 -6.168679 -2.751212 4.970966
    29 18.045723 0.000000 0.000000 0.000000 0.000000 -1.648036
    30 17.597597 0.000000 0.000000 -0.059305 0.010792 -0.380127
    31 0.000005 -0.000003 -3.713254 6.150910 -2.930271 5.537751
    32 18.045721 0.000000 0.000000 0.000000 0.000000 -1.598635
    33 17.597597 0.000000 0.000000 -0.352965 0.039219 -0.236566
  time 26
    0 0.235347 -4.617177 -29.245511 1.230647 0.460081 -0.317103
    1 -3.750118 0.062502 0.000000 -1.570795 -1.570787 0.000000
    2 1.293670 0.684478 -0.000001 -0.069370 0.104816 0.133404
    3 5.309685 -0.003834 0.000000 0.166274 -0.077145 0.429643
    4 4.826790 -0.004591 0.000000 0.172623 -0.118444 0.165284
    5 5.792767 -0.005304 0.000000 0.065727 -0.023286 0.339392
    6 6.662322 -0.001452 0.000000 0.000000 -0.000001 0.043665
    7 -3.455854 0.094905 4.339626 0.790017 -1.290329 -3.956172
    8 4.827512 0.000000 -0.000002 -1.062710 0.646965 -1.240168
    9 11.140032 0.000000 0.000000 0.000000 0.000000 -0.287177
    10 10.314563 -0.000001 0.000001 -1.867255 0.606247 -0.257613
    11 1.646836 0.445664 -1.699647 0.153911 0.442352 0.277231
    12 0.928312 0.000000 0.000000 0.000000 0.000000 0.000000
    13 0.928313 0.000000 -0.000001 0.000000 0.000000 0.000000
    14 2.979373 -0.388274 -0.044205 -0.000805 -0.043611 0.000046
    15 1.435262 -0.000001 -0.000001 0.000000 0.000000 0.793619
    16 1.482593 -0.000001 0.000001 0.000000 0.000000 1.465220
    17 -3.186315 0.091033 -4.140396 -1.455019 0.517776 -4.526052
    18 4.972047 0.000000 0.000000 1.390704 -0.595922 -0.588334
    19 11.585358 0.000000 0.000001 0.000000 0.000000 -1.197245
    20 10.127058 0.000000 0.000001 1.569752 0.000000 -0.069778
    21 1.537458 0.109715 1.664489 -0.233165 -0.412999 0.435664
    22 0.928313 0.000000 0.000002 0.000000 0.000000 0.000000
    23 0.928311 0.000000 0.000001 0.000000 0.000000 0.000000
    24 2.686395 -0.427337 0.044204 0.001045 0.043611 0.000046
    25 1.435260 0.000000 0.000001 0.000000 0.000000 0.331445
    26 1.482593 0.000000 -0.000001 0.000000 0.000000 0.000000
    27 2.046984 0.000001 0.000000 -0.198569 -0.204223 0.494651
    28 -0.000005 0.000007 3.713254 -6.186128 -2.789945 4.880379
    29 18.045723 0.000000 0.000000 0.000000 0.000000 -1.713761
    30 17.597597 0.000000 0.000000 -0.109376 0.040422 -0.403692
    31 0.000005 -0.000003 -3.713254 6.126566 -2.786662 5.555487
    32 18.045721 0.000000 0.000000 0.000000 0.000000 -1.598635
    33 17.597597 0.000000 0.000000 -0.199030 0.010048 -0.239476
  time 27
    0 0.235347 -4.609365 -31.272916 1.181873 0.459226 -0.314823
    1 -3.726680 0.164068 0.000000 -1.570795 -1.570787 0.000000
    2 1.293670 0.684478 -0.000001 -0.069522 0.122841 0.132115
    3 5.309685 -0.003834 0.000000 0.166274 -0.077145 0.429643
    4 4.826790 -0.004591 0.000000 0.172928 -0.134875 0.162418
    5 5.792767 -0.005304 0.000000 0.065727 -0.023286 0.339392
    6 6.662322 -0.001452 0.000000 0.000000 -0.000001 0.043665
    7 -3.455854 0.094905 4.339626 0.879065 -1.263066 -4.041355
    8 4.827512 0.000000 -0.000002 -1.093162 0.672888 -1.265990
    9 11.140032 0.000000 0.000000 0.000000 0.000000 -0.287177
    10 10.314563 -0.000001 0.000001 -1.954354 0.712377 -0.328334
    11 1.646836 0.445664 -1.699647 0.153911 0.442352 0.277231
    12 0.928312 0.000000 0.000000 0.000000 0.000000 0.000000
    13 0.928313 0.000000 -0.000001 0.000000 0.000000 0.000000
    14 2.979373 -0.388274 -0.044205 -0.000805 -0.043611 0.000046
    15 1.435262 -0.000001 -0.000001 0.000000 0.000000 0.793619
    16 1.482593 -0.000001 0.000001 0.000000 0.000000 1.465220
    17 -3.186315 0.091033 -4.140396 -1.460847 0.495692 -4.528733
    18 4.972047 0.000000 0.000000 1.516206 -0.581138 -0.738283
    19 11.585358 0.000000 0.000001 0.000000 0.000000 -1.194305
    20 10.127058 0.000000 0.000001 1.569752 0.000000 -0.069778
    21 1.537458 0.109715 1.664489 -0.233165 -0.412999 0.435664
    22 0.928313 0.000000 0.000002 0.000000 0.000000 0.000000
    23 0.928311 0.000000 0.000001 0.000000 0.000000 0.000000
    24 2.686395 -0.427337 0.044204 0.001045 0.043611 0.000046
    25 1.435260 0.000000 0.000001 0.000000 0.000000 0.331445
    26 1.482593 0.000000 -0.000001 0.000000 0.000000 0.000000
    27 2.046984 0.000001 0.000000 -0.224031 0.423611 0.352981
    28 -0.000005 0.000007 3.713254 -6.198880 -2.828487 4.830340
    29 18.045723 0.000000 0.000000 0.000000 0.000000 -1.748252
    30 17.597597 0.000000 0.000000 -0.153873 0.046427 -0.421756
    31 0.000005 -0.000003 -3.713254 6.102989 -2.561471 5.593068
    32 18.045721 0.000000 0.000000 0.000000 0.000000 -1.598635
    33 17.597597 0.000000 0.000000 0.028416 0.012119 -0.264972
end
