version 1
nodes
  0 "Bip01" -1
  1 "Bip01 Pelvis" 0
  2 "Bip01 Spine" 1
  3 "Bip01 Spine1" 2
  4 "Bip01 Spine2" 3
  5 "Bip01 Spine3" 4
  6 "Bip01 Neck" 5
  7 "Bip01 L Arm" 6
  8 "Bip01 L Arm1" 7
  9 "Bip01 L Arm2" 8
  10 "Bip01 L Hand" 9
  11 "Bip01 L Finger0" 10
  12 "Bip01 L Finger01" 11
  13 "Bip01 L Finger02" 12
  14 "Bip01 L Finger1" 10
  15 "Bip01 L Finger11" 14
  16 "Bip01 L Finger12" 15
  17 "Bip01 R Arm" 6
  18 "Bip01 R Arm1" 17
  19 "Bip01 R Arm2" 18
  20 "Bip01 R Hand" 19
  21 "Bip01 R Finger0" 20
  22 "Bip01 R Finger01" 21
  23 "Bip01 R Finger02" 22
  24 "Bip01 R Finger1" 20
  25 "Bip01 R Finger11" 24
  26 "Bip01 R Finger12" 25
  27 "Bip01 Head" 6
  28 "Bip01 L Leg" 1
  29 "Bip01 L Leg1" 28
  30 "Bip01 L Foot" 29
  31 "Bip01 R Leg" 1
  32 "Bip01 R Leg1" 31
  33 "Bip01 R Foot" 32
end
skeleton
  time 0
    0 0.020497 2.621325 0.368674 0.000000 0.000000 -1.571017
    1 -0.382828 0.253914 0.000000 -1.570795 -1.570787 0.000000
    2 1.293670 0.684478 -0.000001 -0.001806 0.024543 -0.072042
    3 5.309685 -0.003834 0.000000 -0.010551 0.011949 0.007341
    4 4.826790 -0.004591 0.000000 0.144755 -0.018408 0.131969
    5 5.792767 -0.005304 0.000000 0.296096 0.025971 0.110171
    6 6.662322 -0.001452 0.000000 -0.091910 0.032655 0.231870
    7 -3.518356 0.356631 4.277124 -1.914669 -1.369929 -1.453016
    8 4.827512 0.000000 -0.000002 -0.678076 0.724393 -1.514763
    9 11.140032 0.000000 0.000000 0.000000 0.000000 -1.220377
    10 10.314563 -0.000001 0.000001 -1.446922 0.185565 -0.202046
    11 1.646836 0.445664 -1.699647 -0.392035 3.352851 -0.875707
    12 0.928312 0.000000 0.000000 0.000000 0.000000 0.593404
    13 0.928313 0.000000 -0.000001 0.000000 0.000000 1.204231
    14 2.979373 -0.388274 -0.044205 -0.030851 -0.030823 0.768363
    15 1.435262 -0.000001 -0.000001 0.000000 0.000000 1.204014
    16 1.482593 -0.000001 0.000001 0.000000 0.000000 0.445026
    17 -2.975371 1.071532 -4.156022 -1.200618 0.657615 -4.369930
    18 4.972047 0.000000 0.000000 -0.906610 -0.492754 -0.520381
    19 11.585358 0.000000 0.000001 0.000000 0.000000 -1.606053
    20 10.127058 0.000000 0.000001 2.053748 -0.253716 0.274320
    21 1.537458 0.109715 1.664489 -3.079588 0.031470 0.928526
    22 0.928313 0.000000 0.000002 0.000000 0.000000 0.061034
    23 0.928311 0.000000 0.000001 0.000000 0.000000 0.671897
    24 2.686395 -0.427337 0.044204 -0.001208 0.043611 -0.052337
    25 1.435260 0.000000 0.000001 0.000000 0.000000 1.186618
    26 1.482593 0.000000 -0.000001 0.000000 0.000000 1.684243
    27 2.046984 0.000001 0.000000 0.032269 0.404463 0.483701
    28 -0.000005 0.000007 3.713254 -0.099194 -3.042287 5.708507
    29 18.045723 0.000000 0.000000 0.000000 0.000000 -0.418207
    30 17.597597 0.000000 0.000000 -0.054820 -0.021816 -0.158365
    31 0.000005 -0.000003 -3.713254 0.809337 2.837466 6.178830
    32 18.045721 0.000000 0.000000 0.000000 0.000000 -0.780912
    33 17.597597 0.000000 0.000000 0.178492 0.123517 0.490481
  time 1
    0 -0.042005 2.566636 0.368674 0.000000 0.000000 -1.571017
    1 -0.382828 0.253914 0.000000 -1.570795 -1.570787 0.000000
    2 1.293670 0.684478 -0.000001 -0.000240 0.021104 -0.070770
    3 5.309685 -0.003834 0.000000 0.009972 0.013471 0.009585
    4 4.826790 -0.004591 0.000000 0.053561 -0.039202 0.131308
    5 5.792767 -0.005304 0.000000 0.127407 0.000935 0.093083
    6 6.662322 -0.001452 0.000000 -0.091910 0.032655 0.231870
    7 -3.518356 0.356631 4.277124 -1.874506 -1.409877 -1.496422
    8 4.827512 0.000000 -0.000002 -0.537854 0.770015 -1.139914
    9 11.140032 0.000000 0.000000 0.000000 0.000000 -1.157560
    10 10.314563 -0.000001 0.000001 -1.645857 0.220879 -0.056946
    11 1.646836 0.445664 -1.699647 -0.392035 3.352851 -0.875707
    12 0.928312 0.000000 0.000000 0.000000 0.000000 0.593404
    13 0.928313 0.000000 -0.000001 0.000000 0.000000 1.204231
    14 2.979373 -0.388274 -0.044205 -0.030851 -0.030823 0.768363
    15 1.435262 -0.000001 -0.000001 0.000000 0.000000 1.204014
    16 1.482593 -0.000001 0.000001 0.000000 0.000000 0.445026
    17 -2.975371 1.071532 -4.156022 -1.189727 0.920020 -4.473468
    18 4.972047 0.000000 0.000000 -0.783171 -0.600663 -0.834655
    19 11.585358 0.000000 0.000001 0.000000 0.000000 -1.497582
    20 10.127058 0.000000 0.000001 2.055220 -0.367098 0.373813
    21 1.537458 0.109715 1.664489 -3.079588 0.031470 0.928526
    22 0.928313 0.000000 0.000002 0.000000 0.000000 0.061034
    23 0.928311 0.000000 0.000001 0.000000 0.000000 0.671897
    24 2.686395 -0.427337 0.044204 -0.001208 0.043611 -0.052337
    25 1.435260 0.000000 0.000001 0.000000 0.000000 1.186618
    26 1.482593 0.000000 -0.000001 0.000000 0.000000 1.684243
    27 2.046984 0.000001 0.000000 0.157253 0.208678 0.534068
    28 -0.000005 0.000007 3.713254 -0.098619 -3.040178 5.707931
    29 18.045723 0.000000 0.000000 0.000000 0.000000 -0.422426
    30 17.597597 0.000000 0.000000 -0.054111 -0.023735 -0.154880
    31 0.000005 -0.000003 -3.713254 0.810104 2.839862 6.181131
    32 18.045721 0.000000 0.000000 0.000000 0.000000 -0.779731
    33 17.597597 0.000000 0.000000 0.178492 0.123517 0.492513
  time 2
    0 -0.127945 2.527572 0.368674 0.000000 0.000000 -1.571017
    1 -0.382828 0.253914 0.000000 -1.570795 -1.570787 0.000000
    2 1.293670 0.684478 -0.000001 0.001344 0.017604 -0.069514
    3 5.309685 -0.003834 0.000000 0.030529 0.014933 0.011952
    4 4.826790 -0.004591 0.000000 -0.037901 -0.059228 0.132278
    5 5.792767 -0.005304 0.000000 -0.040994 -0.025311 0.080314
    6 6.662322 -0.001452 0.000000 -0.091910 0.032655 0.231870
    7 -3.518356 0.356631 4.277124 -1.806451 -1.449441 -1.567040
    8 4.827512 0.000000 -0.000002 -0.395161 0.785535 -0.758219
    9 11.140032 0.000000 0.000000 0.000000 0.000000 -1.094743
    10 10.314563 -0.000001 0.000001 -1.853228 0.281485 0.063710
    11 1.646836 0.445664 -1.699647 -0.392035 3.352851 -0.875707
    12 0.928312 0.000000 0.000000 0.000000 0.000000 0.593404
    13 0.928313 0.000000 -0.000001 0.000000 0.000000 1.204231
    14 2.979373 -0.388274 -0.044205 -0.030851 -0.030823 0.768363
    15 1.435262 -0.000001 -0.000001 0.000000 0.000000 1.204014
    16 1.482593 -0.000001 0.000001 0.000000 0.000000 0.445026
    17 -2.975371 1.071532 -4.156022 -1.284686 1.189996 -4.636103
    18 4.972047 0.000000 0.000000 -0.533480 -0.675227 -1.218213
    19 11.585358 0.000000 0.000001 0.000000 0.000000 -1.389111
    20 10.127058 0.000000 0.000001 2.044842 -0.478022 0.480459
    21 1.537458 0.109715 1.664489 -3.079588 0.031470 0.928526
    22 0.928313 0.000000 0.000002 0.000000 0.000000 0.061034
    23 0.928311 0.000000 0.000001 0.000000 0.000000 0.671897
    24 2.686395 -0.427337 0.044204 -0.001208 0.043611 -0.052337
    25 1.435260 0.000000 0.000001 0.000000 0.000000 1.186618
    26 1.482593 0.000000 -0.000001 0.000000 0.000000 1.684243
    27 2.046984 0.000001 0.000000 0.271638 0.013631 0.538630
    28 -0.000005 0.000007 3.713254 -0.098044 -3.037877 5.707931
    29 18.045723 0.000000 0.000000 0.000000 0.000000 -0.424646
    30 17.597597 0.000000 0.000000 -0.053300 -0.025950 -0.152909
    31 0.000005 -0.000003 -3.713254 0.810775 2.842355 6.182856
    32 18.045721 0.000000 0.000000 0.000000 0.000000 -0.778944
    33 17.597597 0.000000 0.000000 0.178391 0.122926 0.494638
  time 3
    0 -0.159196 2.523666 0.368674 0.000000 0.000000 -1.571017
    1 -0.382828 0.253914 0.000000 -1.570795 -1.570787 0.000000
    2 1.293670 0.684478 -0.000001 -0.001469 0.014500 -0.067991
    3 5.309685 -0.003834 0.000000 0.030937 0.013854 0.013948
    4 4.826790 -0.004591 0.000000 -0.095696 -0.067102 0.136599
    5 5.792767 -0.005304 0.000000 -0.145881 -0.039525 0.080480
    6 6.662322 -0.001452 0.000000 -0.091910 0.032655 0.231870
    7 -3.518356 0.356631 4.277124 1.456196 -1.643946 -4.831281
    8 4.827512 0.000000 -0.000002 -0.323734 0.815295 -0.544972
    9 11.140032 0.000000 0.000000 0.000000 0.000000 -1.010117
    10 10.314563 -0.000001 0.000001 -2.096993 0.362324 0.169036
    11 1.646836 0.445664 -1.699647 -0.392035 3.352851 -0.875707
    12 0.928312 0.000000 0.000000 0.000000 0.000000 0.593404
    13 0.928313 0.000000 -0.000001 0.000000 0.000000 1.204231
    14 2.979373 -0.388274 -0.044205 -0.030851 -0.030823 0.768363
    15 1.435262 -0.000001 -0.000001 0.000000 0.000000 1.204014
    16 1.482593 -0.000001 0.000001 0.000000 0.000000 0.445026
    17 -2.975371 1.071532 -4.156022 -1.562301 1.346398 -4.935991
    18 4.972047 0.000000 0.000000 -0.254523 -0.653372 -1.469327
    19 11.585358 0.000000 0.000001 0.000000 0.000000 -1.252542
    20 10.127058 0.000000 0.000001 2.091474 -0.514145 0.536383
    21 1.537458 0.109715 1.664489 -3.079588 0.031470 0.928526
    22 0.928313 0.000000 0.000002 0.000000 0.000000 0.061034
    23 0.928311 0.000000 0.000001 0.000000 0.000000 0.671897
    24 2.686395 -0.427337 0.044204 -0.001208 0.043611 -0.052337
    25 1.435260 0.000000 0.000001 0.000000 0.000000 1.186618
    26 1.482593 0.000000 -0.000001 0.000000 0.000000 1.684243
    27 2.046984 0.000001 0.000000 0.343500 -0.114090 0.471657
    28 -0.000005 0.000007 3.713254 -0.097948 -3.037014 5.708123
    29 18.045723 0.000000 0.000000 0.000000 0.000000 -0.424276
    30 17.597597 0.000000 0.000000 -0.053021 -0.026811 -0.153230
    31 0.000005 -0.000003 -3.713254 0.811062 2.843122 6.182952
    32 18.045721 0.000000 0.000000 0.000000 0.000000 -0.778944
    33 17.597597 0.000000 0.000000 0.178324 0.122373 0.495377
  time 4
    0 -0.127945 2.547104 0.368674 0.000000 0.000000 -1.571017
    1 -0.382828 0.253914 0.000000 -1.570795 -1.570787 0.000000
    2 1.293670 0.684478 -0.000001 -0.009151 0.011816 -0.066166
    3 5.309685 -0.003834 0.000000 0.009853 0.010295 0.015414
    4 4.826790 -0.004591 0.000000 -0.117517 -0.062464 0.143037
    5 5.792767 -0.005304 0.000000 -0.183205 -0.040017 0.090903
    6 6.662322 -0.001452 0.000000 -0.091910 0.032655 0.231870
    7 -3.518356 0.356631 4.277124 -0.350251 -1.558285 -3.026064
    8 4.827512 0.000000 -0.000002 -0.340475 0.907135 -0.565941
    9 11.140032 0.000000 0.000000 0.000000 0.000000 -0.867746
    10 10.314563 -0.000001 0.000001 -2.421601 0.467237 0.263389
    11 1.646836 0.445664 -1.699647 -0.392035 3.352851 -0.875707
    12 0.928312 0.000000 0.000000 0.000000 0.000000 0.593404
    13 0.928313 0.000000 -0.000001 0.000000 0.000000 1.204231
    14 2.979373 -0.388274 -0.044205 -0.030851 -0.030823 0.768363
    15 1.435262 -0.000001 -0.000001 0.000000 0.000000 1.204014
    16 1.482593 -0.000001 0.000001 0.000000 0.000000 0.445026
    17 -2.975371 1.071532 -4.156022 -1.665762 1.336855 -5.042211
    18 4.972047 0.000000 0.000000 -0.019370 -0.579933 -1.477313
    19 11.585358 0.000000 0.000001 0.000000 0.000000 -1.062228
    20 10.127058 0.000000 0.000001 2.281230 -0.423742 0.495165
    21 1.537458 0.109715 1.664489 -3.079588 0.031470 0.928526
    22 0.928313 0.000000 0.000002 0.000000 0.000000 0.061034
    23 0.928311 0.000000 0.000001 0.000000 0.000000 0.671897
    24 2.686395 -0.427337 0.044204 -0.001208 0.043611 -0.052337
    25 1.435260 0.000000 0.000001 0.000000 0.000000 1.186618
    26 1.482593 0.000000 -0.000001 0.000000 0.000000 1.684243
    27 2.046984 0.000001 0.000000 0.386540 -0.149022 0.325973
    28 -0.000005 0.000007 3.713254 -0.097948 -3.037877 5.708411
    29 18.045723 0.000000 0.000000 0.000000 0.000000 -0.422426
    30 17.597597 0.000000 0.000000 -0.053376 -0.026024 -0.154697
    31 0.000005 -0.000003 -3.713254 0.810775 2.842259 6.181993
    32 18.045721 0.000000 0.000000 0.000000 0.000000 -0.779495
    33 17.597597 0.000000 0.000000 0.178324 0.122294 0.494592
  time 5
    0 -0.084975 2.578355 0.368674 0.000000 0.000000 -1.571017
    1 -0.382828 0.253914 0.000000 -1.570795 -1.570787 0.000000
    2 1.293670 0.684478 -0.000001 -0.018449 0.009263 -0.064157
    3 5.309685 -0.003834 0.000000 -0.018770 0.005872 0.016685
    4 4.826790 -0.004591 0.000000 -0.126539 -0.053331 0.149872
    5 5.792767 -0.005304 0.000000 -0.196624 -0.035654 0.104648
    6 6.662322 -0.001452 0.000000 -0.091910 0.032655 0.231870
    7 -3.518356 0.356631 4.277124 1.164132 -1.490335 -4.539993
    8 4.827512 0.000000 -0.000002 -0.450883 1.003494 -0.748514
    9 11.140032 0.000000 0.000000 0.000000 0.000000 -0.703639
    10 10.314563 -0.000001 0.000001 -2.802128 0.580674 0.310246
    11 1.646836 0.445664 -1.699647 -0.392035 3.352851 -0.875707
    12 0.928312 0.000000 0.000000 0.000000 0.000000 0.593404
    13 0.928313 0.000000 -0.000001 0.000000 0.000000 1.204231
    14 2.979373 -0.388274 -0.044205 -0.030851 -0.030823 0.768363
    15 1.435262 -0.000001 -0.000001 0.000000 0.000000 1.204014
    16 1.482593 -0.000001 0.000001 0.000000 0.000000 0.445026
    17 -2.975371 1.071532 -4.156022 -1.551984 1.237030 -4.923635
    18 4.972047 0.000000 0.000000 0.195335 -0.504565 -1.377614
    19 11.585358 0.000000 0.000001 0.000000 0.000000 -0.843816
    20 10.127058 0.000000 0.000001 2.508151 -0.243975 0.440992
    21 1.537458 0.109715 1.664489 -3.079588 0.031470 0.928526
    22 0.928313 0.000000 0.000002 0.000000 0.000000 0.061034
    23 0.928311 0.000000 0.000001 0.000000 0.000000 0.671897
    24 2.686395 -0.427337 0.044204 -0.001208 0.043611 -0.052337
    25 1.435260 0.000000 0.000001 0.000000 0.000000 1.186618
    26 1.482593 0.000000 -0.000001 0.000000 0.000000 1.684243
    27 2.046984 0.000001 0.000000 0.427081 -0.134949 0.158390
    28 -0.000005 0.000007 3.713254 -0.098331 -3.039315 5.708602
    29 18.045723 0.000000 0.000000 0.000000 0.000000 -0.420427
    30 17.597597 0.000000 0.000000 -0.053933 -0.024646 -0.156393
    31 0.000005 -0.000003 -3.713254 0.810391 2.840629 6.180651
    32 18.045721 0.000000 0.000000 0.000000 0.000000 -0.780046
    33 17.597597 0.000000 0.000000 0.178324 0.122531 0.493206
  time 6
    0 -0.022473 2.613512 0.368674 0.000000 0.000000 -1.571017
    1 -0.382828 0.253914 0.000000 -1.570795 -1.570787 0.000000
    2 1.293670 0.684478 -0.000001 -0.028859 0.006854 -0.061897
    3 5.309685 -0.003834 0.000000 -0.052481 0.001019 0.017869
    4 4.826790 -0.004591 0.000000 -0.126978 -0.041323 0.156928
    5 5.792767 -0.005304 0.000000 -0.193926 -0.028511 0.120656
    6 6.662322 -0.001452 0.000000 -0.091910 0.032655 0.231870
    7 -3.518356 0.356631 4.277124 1.194709 -1.429836 -4.569026
    8 4.827512 0.000000 -0.000002 -0.602584 1.021743 -0.963233
    9 11.140032 0.000000 0.000000 0.000000 0.000000 -0.604378
    10 10.314563 -0.000001 0.000001 -3.152516 0.659734 0.288705
    11 1.646836 0.445664 -1.699647 -0.392035 3.352851 -0.875707
    12 0.928312 0.000000 0.000000 0.000000 0.000000 0.593404
    13 0.928313 0.000000 -0.000001 0.000000 0.000000 1.204231
    14 2.979373 -0.388274 -0.044205 -0.030851 -0.030823 0.768363
    15 1.435262 -0.000001 -0.000001 0.000000 0.000000 1.204014
    16 1.482593 -0.000001 0.000001 0.000000 0.000000 0.445026
    17 -2.975371 1.071532 -4.156022 -1.477947 1.117224 -4.838774
    18 4.972047 0.000000 0.000000 0.387622 -0.458203 -1.299211
    19 11.585358 0.000000 0.000001 0.000000 0.000000 -0.646641
    20 10.127058 0.000000 0.000001 2.617474 -0.074422 0.431188
    21 1.537458 0.109715 1.664489 -3.079588 0.031470 0.928526
    22 0.928313 0.000000 0.000002 0.000000 0.000000 0.061034
    23 0.928311 0.000000 0.000001 0.000000 0.000000 0.671897
    24 2.686395 -0.427337 0.044204 -0.001208 0.043611 -0.052337
    25 1.435260 0.000000 0.000001 0.000000 0.000000 1.186618
    26 1.482593 0.000000 -0.000001 0.000000 0.000000 1.684243
    27 2.046984 0.000001 0.000000 0.452198 -0.127337 0.055772
    28 -0.000005 0.000007 3.713254 -0.098619 -3.041233 5.708698
    29 18.045723 0.000000 0.000000 0.000000 0.000000 -0.418355
    30 17.597597 0.000000 0.000000 -0.054668 -0.022874 -0.158090
    31 0.000005 -0.000003 -3.713254 0.809816 2.838520 6.179213
    32 18.045721 0.000000 0.000000 0.000000 0.000000 -0.780597
    33 17.597597 0.000000 0.000000 0.178357 0.123024 0.491405
  time 7
    0 0.051748 2.652576 0.368674 0.000000 0.000000 -1.571017
    1 -0.382828 0.253914 0.000000 -1.570795 -1.570787 0.000000
    2 1.293670 0.684478 -0.000001 -0.039808 0.004553 -0.059453
    3 5.309685 -0.003834 0.000000 -0.088744 -0.004027 0.018999
    4 4.826790 -0.004591 0.000000 -0.122953 -0.027840 0.164115
    5 5.792767 -0.005304 0.000000 -0.183025 -0.020386 0.137972
    6 6.662322 -0.001452 0.000000 -0.091910 0.032655 0.231870
    7 -3.518356 0.356631 4.277124 1.125311 -1.404436 -4.497737
    8 4.827512 0.000000 -0.000002 -0.685171 0.955144 -1.054303
    9 11.140032 0.000000 0.000000 0.000000 0.000000 -0.620680
    10 10.314563 -0.000001 0.000001 -3.398271 0.685306 0.226229
    11 1.646836 0.445664 -1.699647 -0.392035 3.352851 -0.875707
    12 0.928312 0.000000 0.000000 0.000000 0.000000 0.593404
    13 0.928313 0.000000 -0.000001 0.000000 0.000000 1.204231
    14 2.979373 -0.388274 -0.044205 -0.030851 -0.030823 0.768363
    15 1.435262 -0.000001 -0.000001 0.000000 0.000000 1.204014
    16 1.482593 -0.000001 0.000001 0.000000 0.000000 0.445026
    17 -2.975371 1.071532 -4.156022 -1.442887 0.999154 -4.788585
    18 4.972047 0.000000 0.000000 0.539951 -0.452740 -1.299544
    19 11.585358 0.000000 0.000001 0.000000 0.000000 -0.494472
    20 10.127058 0.000000 0.000001 2.544826 0.035651 0.439691
    21 1.537458 0.109715 1.664489 -3.079588 0.031470 0.928526
    22 0.928313 0.000000 0.000002 0.000000 0.000000 0.061034
    23 0.928311 0.000000 0.000001 0.000000 0.000000 0.671897
    24 2.686395 -0.427337 0.044204 -0.001208 0.043611 -0.052337
    25 1.435260 0.000000 0.000001 0.000000 0.000000 1.186618
    26 1.482593 0.000000 -0.000001 0.000000 0.000000 1.684243
    27 2.046984 0.000001 0.000000 0.467105 -0.154392 0.042633
    28 -0.000005 0.000007 3.713254 -0.099098 -3.043438 5.708698
    29 18.045723 0.000000 0.000000 0.000000 0.000000 -0.416579
    30 17.597597 0.000000 0.000000 -0.055479 -0.020831 -0.159694
    31 0.000005 -0.000003 -3.713254 0.809049 2.836219 6.177775
    32 18.045721 0.000000 0.000000 0.000000 0.000000 -0.781384
    33 17.597597 0.000000 0.000000 0.178391 0.123734 0.489373
  time 8
    0 0.125969 2.683827 0.368674 0.000000 0.000000 -1.571017
    1 -0.382828 0.253914 0.000000 -1.570795 -1.570787 0.000000
    2 1.293670 0.684478 -0.000001 -0.050723 0.002288 -0.056875
    3 5.309685 -0.003834 0.000000 -0.125041 -0.008952 0.020148
    4 4.826790 -0.004591 0.000000 -0.118814 -0.014322 0.171127
    5 5.792767 -0.005304 0.000000 -0.172017 -0.012632 0.155413
    6 6.662322 -0.001452 0.000000 -0.091910 0.032655 0.231870
    7 -3.518356 0.356631 4.277124 1.016710 -1.396601 -4.387642
    8 4.827512 0.000000 -0.000002 -0.722718 0.853327 -1.066867
    9 11.140032 0.000000 0.000000 0.000000 0.000000 -0.701756
    10 10.314563 -0.000001 0.000001 -3.575787 0.678187 0.157017
    11 1.646836 0.445664 -1.699647 -0.392035 3.352851 -0.875707
    12 0.928312 0.000000 0.000000 0.000000 0.000000 0.593404
    13 0.928313 0.000000 -0.000001 0.000000 0.000000 1.204231
    14 2.979373 -0.388274 -0.044205 -0.030851 -0.030823 0.768363
    15 1.435262 -0.000001 -0.000001 0.000000 0.000000 1.204014
    16 1.482593 -0.000001 0.000001 0.000000 0.000000 0.445026
    17 -2.975371 1.071532 -4.156022 -1.419768 0.862969 -4.740599
    18 4.972047 0.000000 0.000000 0.657574 -0.454748 -1.343937
    19 11.585358 0.000000 0.000001 0.000000 0.000000 -0.363539
    20 10.127058 0.000000 0.000001 2.371199 0.125487 0.434089
    21 1.537458 0.109715 1.664489 -3.079588 0.031470 0.928526
    22 0.928313 0.000000 0.000002 0.000000 0.000000 0.061034
    23 0.928311 0.000000 0.000001 0.000000 0.000000 0.671897
    24 2.686395 -0.427337 0.044204 -0.001208 0.043611 -0.052337
    25 1.435260 0.000000 0.000001 0.000000 0.000000 1.186618
    26 1.482593 0.000000 -0.000001 0.000000 0.000000 1.684243
    27 2.046984 0.000001 0.000000 0.482486 -0.199709 0.074203
    28 -0.000005 0.000007 3.713254 -0.099482 -3.045739 5.708602
    29 18.045723 0.000000 0.000000 0.000000 0.000000 -0.415024
    30 17.597597 0.000000 0.000000 -0.056366 -0.018690 -0.161024
    31 0.000005 -0.000003 -3.713254 0.808474 2.833823 6.176433
    32 18.045721 0.000000 0.000000 0.000000 0.000000 -0.781699
    33 17.597597 0.000000 0.000000 0.178458 0.124523 0.487248
  time 9
    0 0.200190 2.707265 0.368674 0.000000 0.000000 -1.571017
    1 -0.382828 0.253914 0.000000 -1.570795 -1.570787 0.000000
    2 1.293670 0.684478 -0.000001 -0.061100 0.000047 -0.054213
    3 5.309685 -0.003834 0.000000 -0.158803 -0.013531 0.021349
    4 4.826790 -0.004591 0.000000 -0.118852 -0.001942 0.177565
    5 5.792767 -0.005304 0.000000 -0.168869 -0.006292 0.171691
    6 6.662322 -0.001452 0.000000 -0.091910 0.032655 0.231870
    7 -3.518356 0.356631 4.277124 0.918365 -1.386872 -4.287895
    8 4.827512 0.000000 -0.000002 -0.748626 0.752448 -1.057856
    9 11.140032 0.000000 0.000000 0.000000 0.000000 -0.783048
    10 10.314563 -0.000001 0.000001 -3.747238 0.654020 0.096922
    11 1.646836 0.445664 -1.699647 -0.392035 3.352851 -0.875707
    12 0.928312 0.000000 0.000000 0.000000 0.000000 0.593404
    13 0.928313 0.000000 -0.000001 0.000000 0.000000 1.204231
    14 2.979373 -0.388274 -0.044205 -0.030851 -0.030823 0.768363
    15 1.435262 -0.000001 -0.000001 0.000000 0.000000 1.204014
    16 1.482593 -0.000001 0.000001 0.000000 0.000000 0.445026
    17 -2.975371 1.071532 -4.156022 -1.414132 0.727258 -4.702383
    18 4.972047 0.000000 0.000000 0.766662 -0.445830 -1.409494
    19 11.585358 0.000000 0.000001 0.000000 0.000000 -0.232606
    20 10.127058 0.000000 0.000001 2.193154 0.210405 0.410779
    21 1.537458 0.109715 1.664489 -3.079588 0.031470 0.928526
    22 0.928313 0.000000 0.000002 0.000000 0.000000 0.061034
    23 0.928311 0.000000 0.000001 0.000000 0.000000 0.671897
    24 2.686395 -0.427337 0.044204 -0.001208 0.043611 -0.052337
    25 1.435260 0.000000 0.000001 0.000000 0.000000 1.186618
    26 1.482593 0.000000 -0.000001 0.000000 0.000000 1.684243
    27 2.046984 0.000001 0.000000 0.503855 -0.257182 0.124021
    28 -0.000005 0.000007 3.713254 -0.099865 -3.047848 5.708602
    29 18.045723 0.000000 0.000000 0.000000 0.000000 -0.413544
    30 17.597597 0.000000 0.000000 -0.057202 -0.016721 -0.162308
    31 0.000005 -0.000003 -3.713254 0.807804 2.831522 6.175283
    32 18.045721 0.000000 0.000000 0.000000 0.000000 -0.782250
    33 17.597597 0.000000 0.000000 0.178525 0.125253 0.485308
  time 10
    0 0.200190 2.707265 0.368674 0.000000 0.000000 -1.571017
    1 -0.382828 0.253914 0.000000 -1.570795 -1.570787 0.000000
    2 1.293670 0.684478 -0.000001 -0.061032 -0.010523 -0.052221
    3 5.309685 -0.003834 0.000000 -0.144968 -0.006831 0.022408
    4 4.826790 -0.004591 0.000000 -0.099759 0.005765 0.184356
    5 5.792767 -0.005304 0.000000 -0.176855 -0.005333 0.178667
    6 6.662322 -0.001452 0.000000 -0.091910 0.032655 0.231870
    7 -3.518356 0.356631 4.277124 0.678828 -1.401154 -4.049116
    8 4.827512 0.000000 -0.000002 -0.663887 0.752278 -1.091043
    9 11.140032 0.000000 0.000000 0.000000 0.000000 -0.662196
    10 10.314563 -0.000001 0.000001 -3.787233 0.614584 0.029452
    11 1.646836 0.445664 -1.699647 -0.392035 3.352851 -0.875707
    12 0.928312 0.000000 0.000000 0.000000 0.000000 0.593404
    13 0.928313 0.000000 -0.000001 0.000000 0.000000 1.204231
    14 2.979373 -0.388274 -0.044205 -0.030851 -0.030823 0.768363
    15 1.435262 -0.000001 -0.000001 0.000000 0.000000 1.204014
    16 1.482593 -0.000001 0.000001 0.000000 0.000000 0.445026
    17 -2.975371 1.071532 -4.156022 -1.403145 0.725234 -4.686004
    18 4.972047 0.000000 0.000000 0.744432 -0.482148 -1.377480
    19 11.585358 0.000000 0.000001 0.000000 0.000000 -0.194870
    20 10.127058 0.000000 0.000001 2.209142 0.210594 0.399024
    21 1.537458 0.109715 1.664489 -3.079588 0.031470 0.928526
    22 0.928313 0.000000 0.000002 0.000000 0.000000 0.061034
    23 0.928311 0.000000 0.000001 0.000000 0.000000 0.671897
    24 2.686395 -0.427337 0.044204 -0.001208 0.043611 -0.052337
    25 1.435260 0.000000 0.000001 0.000000 0.000000 1.186618
    26 1.482593 0.000000 -0.000001 0.000000 0.000000 1.684243
    27 2.046984 0.000001 0.000000 0.473180 -0.265738 0.196955
    28 -0.000005 0.000007 3.713254 -0.099865 -3.047848 5.708602
    29 18.045723 0.000000 0.000000 0.000000 0.000000 -0.413544
    30 17.597597 0.000000 0.000000 -0.057202 -0.016721 -0.162308
    31 0.000005 -0.000003 -3.713254 0.807804 2.831522 6.175283
    32 18.045721 0.000000 0.000000 0.000000 0.000000 -0.782250
    33 17.597597 0.000000 0.000000 0.178492 0.125253 0.485308
end
