version 1
nodes
  0 "Bip01" -1
  1 "Bip01 Pelvis" 0
  2 "Bip01 Spine" 1
  3 "Bip01 Spine1" 2
  4 "Bip01 Spine2" 3
  5 "Bip01 Spine3" 4
  6 "Bip01 Neck" 5
  7 "Bip01 L Arm" 6
  8 "Bip01 L Arm1" 7
  9 "Bip01 L Arm2" 8
  10 "Bip01 L Hand" 9
  11 "Bip01 L Finger0" 10
  12 "Bip01 L Finger01" 11
  13 "Bip01 L Finger02" 12
  14 "Bip01 L Finger1" 10
  15 "Bip01 L Finger11" 14
  16 "Bip01 L Finger12" 15
  17 "Bip01 R Arm" 6
  18 "Bip01 R Arm1" 17
  19 "Bip01 R Arm2" 18
  20 "Bip01 R Hand" 19
  21 "Bip01 R Finger0" 20
  22 "Bip01 R Finger01" 21
  23 "Bip01 R Finger02" 22
  24 "Bip01 R Finger1" 20
  25 "Bip01 R Finger11" 24
  26 "Bip01 R Finger12" 25
  27 "Bip01 Head" 6
  28 "Bip01 L Leg" 1
  29 "Bip01 L Leg1" 28
  30 "Bip01 L Foot" 29
  31 "Bip01 R Leg" 1
  32 "Bip01 R Leg1" 31
  33 "Bip01 R Foot" 32
end
skeleton
  time 0
    0 0.450198 3.097902 0.368674 0.000000 0.000000 -1.571017
    1 -0.000004 0.000000 0.000000 -1.570795 -1.570787 0.000000
    2 1.293670 0.684478 -0.000001 -0.010262 -0.022376 -0.076964
    3 5.309685 -0.003834 0.000000 -0.025372 -0.054638 -0.071898
    4 4.826790 -0.004591 0.000000 -0.175560 -0.053607 -0.045211
    5 5.792767 -0.005304 0.000000 -0.196876 -0.017533 0.098585
    6 6.662322 -0.001452 0.000000 -0.129194 0.000013 0.320191
    7 -3.299600 0.473822 4.433379 1.331970 -0.995318 -4.723198
    8 4.827512 0.000000 -0.000002 -0.936758 -0.359350 -1.042085
    9 11.140032 0.000000 0.000000 0.000000 0.000000 -0.643938
    10 10.314563 -0.000001 0.000001 -3.223314 0.219942 0.330394
    11 1.646836 0.445664 -1.699647 1.049811 0.782103 0.524138
    12 0.928312 0.000000 0.000000 0.000000 0.000000 0.126060
    13 0.928313 0.000000 -0.000001 0.000000 0.000000 -0.007563
    14 2.979373 -0.388274 -0.044205 0.012725 -0.159646 0.533030
    15 1.435262 -0.000001 -0.000001 0.000000 0.000000 0.451638
    16 1.482593 -0.000001 0.000001 0.000000 0.000000 0.623036
    17 -3.045686 1.469982 -3.984141 -0.840463 1.216287 -4.279513
    18 4.972047 0.000000 0.000000 0.763848 -0.563863 -1.585266
    19 11.585358 0.000000 0.000001 0.000000 0.000000 -1.971570
    20 10.127058 0.000000 0.000001 2.215944 0.449842 1.204471
    21 1.537458 0.109715 1.664489 -0.283426 -0.440989 0.285820
    22 0.928313 0.000000 0.000002 0.000000 0.000000 0.425276
    23 0.928311 0.000000 0.000001 0.000000 0.000000 0.536770
    24 2.686395 -0.427337 0.044204 -0.081493 -0.128620 -0.228511
    25 1.435260 0.000000 0.000001 0.000000 0.000000 0.259343
    26 1.482593 0.000000 -0.000001 0.000000 0.000000 0.566486
    27 2.046984 0.000001 0.000000 0.247339 0.518907 -0.458961
    28 -0.000005 0.000007 3.713254 -0.099865 -3.047848 5.708602
    29 18.045723 0.000000 0.000000 0.000000 0.000000 -0.413544
    30 17.597597 0.000000 0.000000 -0.057202 -0.016721 -0.162308
    31 0.000005 -0.000003 -3.713254 0.436511 2.946371 6.090342
    32 18.045721 0.000000 0.000000 0.000000 0.000000 -0.782250
    33 17.597597 0.000000 0.000000 0.093506 0.083814 0.525122
  time 1
    0 0.450198 3.097902 0.368674 0.000000 0.000000 -1.571017
    1 -0.000004 0.000000 0.000000 -1.570795 -1.570787 0.000000
    2 1.293670 0.684478 -0.000001 -0.010262 -0.022376 -0.076964
    3 5.309685 -0.003834 0.000000 -0.112449 -0.054566 -0.071898
    4 4.826790 -0.004591 0.000000 -0.297312 -0.053511 -0.045233
    5 5.792767 -0.005304 0.000000 -0.363244 0.087691 0.058617
    6 6.662322 -0.001452 0.000000 -0.129194 0.000013 0.320191
    7 -3.299600 0.473822 4.433379 1.331970 -0.995318 -4.723198
    8 4.827512 0.000000 -0.000002 -1.164429 -0.046140 -0.442378
    9 11.140032 0.000000 0.000000 0.000000 0.000000 -1.594671
    10 10.314563 -0.000001 0.000001 -3.227769 0.233993 0.889718
    11 1.646836 0.445664 -1.699647 1.049811 0.782103 0.524138
    12 0.928312 0.000000 0.000000 0.000000 0.000000 0.126060
    13 0.928313 0.000000 -0.000001 0.000000 0.000000 -0.007563
    14 2.979373 -0.388274 -0.044205 0.012725 -0.159646 0.533030
    15 1.435262 -0.000001 -0.000001 0.000000 0.000000 0.451638
    16 1.482593 -0.000001 0.000001 0.000000 0.000000 0.623036
    17 -3.045686 1.469982 -3.984141 0.012732 1.330150 -3.447470
    18 4.972047 0.000000 0.000000 0.687496 -0.671049 -1.988192
    19 11.585358 0.000000 0.000001 0.000000 0.000000 -1.865713
    20 10.127058 0.000000 0.000001 2.215594 0.273196 1.037849
    21 1.537458 0.109715 1.664489 -0.283426 -0.440989 0.285820
    22 0.928313 0.000000 0.000002 0.000000 0.000000 0.425276
    23 0.928311 0.000000 0.000001 0.000000 0.000000 0.536770
    24 2.686395 -0.427337 0.044204 -0.081493 -0.128620 -0.228511
    25 1.435260 0.000000 0.000001 0.000000 0.000000 0.259343
    26 1.482593 0.000000 -0.000001 0.000000 0.000000 0.566486
    27 2.046984 0.000001 0.000000 0.672094 0.413137 -0.286512
    28 -0.000005 0.000007 3.713254 -0.099865 -3.047848 5.708602
    29 18.045723 0.000000 0.000000 0.000000 0.000000 -0.413544
    30 17.597597 0.000000 0.000000 -0.057202 -0.016721 -0.162308
    31 0.000005 -0.000003 -3.713254 0.436511 2.946371 6.090342
    32 18.045721 0.000000 0.000000 0.000000 0.000000 -0.782250
    33 17.597597 0.000000 0.000000 0.093506 0.083814 0.525122
  time 2
    0 0.450198 3.097902 0.368674 0.000000 0.000000 -1.571017
    1 -0.000004 0.000000 0.000000 -1.570795 -1.570787 0.000000
    2 1.293670 0.684478 -0.000001 -0.010262 -0.022376 -0.076964
    3 5.309685 -0.003834 0.000000 -0.106101 -0.054566 -0.071898
    4 4.826790 -0.004591 0.000000 -0.263379 -0.053535 -0.045233
    5 5.792767 -0.005304 0.000000 -0.300539 0.080584 0.062914
    6 6.662322 -0.001452 0.000000 -0.129194 0.000013 0.320191
    7 -3.299600 0.473822 4.433379 1.331970 -0.995318 -4.723198
    8 4.827512 0.000000 -0.000002 -1.118433 -0.126382 -0.593149
    9 11.140032 0.000000 0.000000 0.000000 0.000000 -1.428680
    10 10.314563 -0.000001 0.000001 -3.221513 0.217320 0.787469
    11 1.646836 0.445664 -1.699647 1.049811 0.782103 0.524138
    12 0.928312 0.000000 0.000000 0.000000 0.000000 0.126060
    13 0.928313 0.000000 -0.000001 0.000000 0.000000 -0.007563
    14 2.979373 -0.388274 -0.044205 0.012725 -0.159646 0.533030
    15 1.435262 -0.000001 -0.000001 0.000000 0.000000 0.451638
    16 1.482593 -0.000001 0.000001 0.000000 0.000000 0.623036
    17 -3.045686 1.469982 -3.984141 -0.067993 1.329625 -3.526872
    18 4.972047 0.000000 0.000000 0.692749 -0.640115 -1.926629
    19 11.585358 0.000000 0.000001 0.000000 0.000000 -1.889972
    20 10.127058 0.000000 0.000001 2.207109 0.334852 1.068662
    21 1.537458 0.109715 1.664489 -0.283426 -0.440989 0.285820
    22 0.928313 0.000000 0.000002 0.000000 0.000000 0.425276
    23 0.928311 0.000000 0.000001 0.000000 0.000000 0.536770
    24 2.686395 -0.427337 0.044204 -0.081493 -0.128620 -0.228511
    25 1.435260 0.000000 0.000001 0.000000 0.000000 0.259343
    26 1.482593 0.000000 -0.000001 0.000000 0.000000 0.566486
    27 2.046984 0.000001 0.000000 0.560035 0.425617 -0.330795
    28 -0.000005 0.000007 3.713254 -0.099865 -3.047848 5.708602
    29 18.045723 0.000000 0.000000 0.000000 0.000000 -0.413544
    30 17.597597 0.000000 0.000000 -0.057202 -0.016721 -0.162308
    31 0.000005 -0.000003 -3.713254 0.436511 2.946371 6.090342
    32 18.045721 0.000000 0.000000 0.000000 0.000000 -0.782250
    33 17.597597 0.000000 0.000000 0.093506 0.083814 0.525122
  time 3
    0 0.450198 3.097902 0.368674 0.000000 0.000000 -1.571017
    1 -0.000004 0.000000 0.000000 -1.570795 -1.570787 0.000000
    2 1.293670 0.684478 -0.000001 -0.010262 -0.022376 -0.076964
    3 5.309685 -0.003834 0.000000 -0.079793 -0.054590 -0.071898
    4 4.826790 -0.004591 0.000000 -0.208731 -0.053571 -0.045211
    5 5.792767 -0.005304 0.000000 -0.213982 0.048933 0.075684
    6 6.662322 -0.001452 0.000000 -0.129194 0.000013 0.320191
    7 -3.299600 0.473822 4.433379 1.331970 -0.995318 -4.723198
    8 4.827512 0.000000 -0.000002 -1.030345 -0.254549 -0.845735
    9 11.140032 0.000000 0.000000 0.000000 0.000000 -1.074890
    10 10.314563 -0.000001 0.000001 -3.218007 0.207952 0.568280
    11 1.646836 0.445664 -1.699647 1.049811 0.782103 0.524138
    12 0.928312 0.000000 0.000000 0.000000 0.000000 0.126060
    13 0.928313 0.000000 -0.000001 0.000000 0.000000 -0.007563
    14 2.979373 -0.388274 -0.044205 0.012725 -0.159646 0.533030
    15 1.435262 -0.000001 -0.000001 0.000000 0.000000 0.451638
    16 1.482593 -0.000001 0.000001 0.000000 0.000000 0.623036
    17 -3.045686 1.469982 -3.984141 -0.384489 1.311826 -3.836817
    18 4.972047 0.000000 0.000000 0.713572 -0.589173 -1.780739
    19 11.585358 0.000000 0.000001 0.000000 0.000000 -1.935059
    20 10.127058 0.000000 0.000001 2.198694 0.422418 1.133590
    21 1.537458 0.109715 1.664489 -0.283426 -0.440989 0.285820
    22 0.928313 0.000000 0.000002 0.000000 0.000000 0.425276
    23 0.928311 0.000000 0.000001 0.000000 0.000000 0.536770
    24 2.686395 -0.427337 0.044204 -0.081493 -0.128620 -0.228511
    25 1.435260 0.000000 0.000001 0.000000 0.000000 0.259343
    26 1.482593 0.000000 -0.000001 0.000000 0.000000 0.566486
    27 2.046984 0.000001 0.000000 0.374003 0.456802 -0.406101
    28 -0.000005 0.000007 3.713254 -0.099865 -3.047848 5.708602
    29 18.045723 0.000000 0.000000 0.000000 0.000000 -0.413544
    30 17.597597 0.000000 0.000000 -0.057202 -0.016721 -0.162308
    31 0.000005 -0.000003 -3.713254 0.436511 2.946371 6.090342
    32 18.045721 0.000000 0.000000 0.000000 0.000000 -0.782250
    33 17.597597 0.000000 0.000000 0.093506 0.083814 0.525122
  time 4
    0 0.450198 3.097902 0.368674 0.000000 0.000000 -1.571017
    1 -0.000004 0.000000 0.000000 -1.570795 -1.570787 0.000000
    2 1.293670 0.684478 -0.000001 -0.010262 -0.022376 -0.076964
    3 5.309685 -0.003834 0.000000 -0.053944 -0.054614 -0.071898
    4 4.826790 -0.004591 0.000000 -0.188645 -0.053595 -0.045211
    5 5.792767 -0.005304 0.000000 -0.197056 0.017354 0.086543
    6 6.662322 -0.001452 0.000000 -0.129194 0.000013 0.320191
    7 -3.299600 0.473822 4.433379 1.331970 -0.995318 -4.723198
    8 4.827512 0.000000 -0.000002 -0.974225 -0.311000 -0.948849
    9 11.140032 0.000000 0.000000 0.000000 0.000000 -0.863979
    10 10.314563 -0.000001 0.000001 -3.230896 0.212449 0.445186
    11 1.646836 0.445664 -1.699647 1.049811 0.782103 0.524138
    12 0.928312 0.000000 0.000000 0.000000 0.000000 0.126060
    13 0.928313 0.000000 -0.000001 0.000000 0.000000 -0.007563
    14 2.979373 -0.388274 -0.044205 0.012725 -0.159646 0.533030
    15 1.435262 -0.000001 -0.000001 0.000000 0.000000 0.451638
    16 1.482593 -0.000001 0.000001 0.000000 0.000000 0.623036
    17 -3.045686 1.469982 -3.984141 -0.636407 1.273889 -4.082493
    18 4.972047 0.000000 0.000000 0.735802 -0.572380 -1.682437
    19 11.585358 0.000000 0.000001 0.000000 0.000000 -1.954907
    20 10.127058 0.000000 0.000001 2.204795 0.444735 1.170956
    21 1.537458 0.109715 1.664489 -0.283426 -0.440989 0.285820
    22 0.928313 0.000000 0.000002 0.000000 0.000000 0.425276
    23 0.928311 0.000000 0.000001 0.000000 0.000000 0.536770
    24 2.686395 -0.427337 0.044204 -0.081493 -0.128620 -0.228511
    25 1.435260 0.000000 0.000001 0.000000 0.000000 0.259343
    26 1.482593 0.000000 -0.000001 0.000000 0.000000 0.566486
    27 2.046984 0.000001 0.000000 0.300245 0.485922 -0.436698
    28 -0.000005 0.000007 3.713254 -0.099865 -3.047848 5.708602
    29 18.045723 0.000000 0.000000 0.000000 0.000000 -0.413544
    30 17.597597 0.000000 0.000000 -0.057202 -0.016721 -0.162308
    31 0.000005 -0.000003 -3.713254 0.436511 2.946371 6.090342
    32 18.045721 0.000000 0.000000 0.000000 0.000000 -0.782250
    33 17.597597 0.000000 0.000000 0.093506 0.083814 0.525122
  time 5
    0 0.450198 3.097902 0.368674 0.000000 0.000000 -1.571017
    1 -0.000004 0.000000 0.000000 -1.570795 -1.570787 0.000000
    2 1.293670 0.684478 -0.000001 -0.010262 -0.022376 -0.076964
    3 5.309685 -0.003834 0.000000 -0.025372 -0.054638 -0.071898
    4 4.826790 -0.004591 0.000000 -0.175560 -0.053607 -0.045211
    5 5.792767 -0.005304 0.000000 -0.196876 -0.017533 0.098585
    6 6.662322 -0.001452 0.000000 -0.129194 0.000013 0.320191
    7 -3.299600 0.473822 4.433379 1.331970 -0.995318 -4.723198
    8 4.827512 0.000000 -0.000002 -0.914995 -0.364125 -1.035586
    9 11.140032 0.000000 0.000000 0.000000 0.000000 -0.643793
    10 10.314563 -0.000001 0.000001 -3.249188 0.219755 0.324646
    11 1.646836 0.445664 -1.699647 1.049811 0.782103 0.524138
    12 0.928312 0.000000 0.000000 0.000000 0.000000 0.126060
    13 0.928313 0.000000 -0.000001 0.000000 0.000000 -0.007563
    14 2.979373 -0.388274 -0.044205 0.012725 -0.159646 0.533030
    15 1.435262 -0.000001 -0.000001 0.000000 0.000000 0.451638
    16 1.482593 -0.000001 0.000001 0.000000 0.000000 0.623036
    17 -3.045686 1.469982 -3.984141 -0.840463 1.216287 -4.279513
    18 4.972047 0.000000 0.000000 0.763848 -0.563863 -1.585266
    19 11.585358 0.000000 0.000001 0.000000 0.000000 -1.971570
    20 10.127058 0.000000 0.000001 2.215944 0.449842 1.204471
    21 1.537458 0.109715 1.664489 -0.283426 -0.440989 0.285820
    22 0.928313 0.000000 0.000002 0.000000 0.000000 0.425276
    23 0.928311 0.000000 0.000001 0.000000 0.000000 0.536770
    24 2.686395 -0.427337 0.044204 -0.081493 -0.128620 -0.228511
    25 1.435260 0.000000 0.000001 0.000000 0.000000 0.259343
    26 1.482593 0.000000 -0.000001 0.000000 0.000000 0.566486
    27 2.046984 0.000001 0.000000 0.247339 0.518907 -0.458961
    28 -0.000005 0.000007 3.713254 -0.099865 -3.047848 5.708602
    29 18.045723 0.000000 0.000000 0.000000 0.000000 -0.413544
    30 17.597597 0.000000 0.000000 -0.057202 -0.016721 -0.162308
    31 0.000005 -0.000003 -3.713254 0.436511 2.946371 6.090342
    32 18.045721 0.000000 0.000000 0.000000 0.000000 -0.782250
    33 17.597597 0.000000 0.000000 0.093506 0.083814 0.525122
end
