version 1
nodes
  0 "Bip01" -1
  1 "Bip01 Pelvis" 0
  2 "Bip01 Spine" 1
  3 "Bip01 Spine1" 2
  4 "Bip01 Spine2" 3
  5 "Bip01 Spine3" 4
  6 "Bip01 Neck" 5
  7 "Bip01 L Arm" 6
  8 "Bip01 L Arm1" 7
  9 "Bip01 L Arm2" 8
  10 "Bip01 L Hand" 9
  11 "Bip01 L Finger0" 10
  12 "Bip01 L Finger01" 11
  13 "Bip01 L Finger02" 12
  14 "Bip01 L Finger1" 10
  15 "Bip01 L Finger11" 14
  16 "Bip01 L Finger12" 15
  17 "Bip01 R Arm" 6
  18 "Bip01 R Arm1" 17
  19 "Bip01 R Arm2" 18
  20 "Bip01 R Hand" 19
  21 "Bip01 R Finger0" 20
  22 "Bip01 R Finger01" 21
  23 "Bip01 R Finger02" 22
  24 "Bip01 R Finger1" 20
  25 "Bip01 R Finger11" 24
  26 "Bip01 R Finger12" 25
  27 "Bip01 Head" 6
  28 "Bip01 L Leg" 1
  29 "Bip01 L Leg1" 28
  30 "Bip01 L Foot" 29
  31 "Bip01 R Leg" 1
  32 "Bip01 R Leg1" 31
  33 "Bip01 R Foot" 32
end
skeleton
  time 0
    0 0.458010 3.203374 0.368674 0.000000 0.000000 -1.571017
    1 -0.140633 0.007813 0.000000 -1.570795 -1.570787 0.000000
    2 1.293670 0.684478 -0.000001 -0.062363 0.005584 -0.077014
    3 5.309685 -0.003834 0.000000 0.005411 0.003500 0.054274
    4 4.826790 -0.004591 0.000000 0.008450 -0.022291 0.090673
    5 5.792767 -0.005304 0.000000 -0.034267 -0.011421 0.102198
    6 6.662322 -0.001452 0.000000 -0.091910 0.032655 0.231870
    7 -3.518356 0.356631 4.277124 -1.341851 -1.131602 -2.052838
    8 4.827512 0.000000 -0.000002 2.119510 0.703501 0.674719
    9 11.140032 0.000000 0.000000 0.000000 0.000000 -1.741969
    10 10.314563 -0.000001 0.000001 -1.016637 -0.373471 0.774695
    11 1.646836 0.445664 -1.699647 -0.392035 3.352851 -0.875707
    12 0.928312 0.000000 0.000000 0.000000 0.000000 0.593404
    13 0.928313 0.000000 -0.000001 0.000000 0.000000 1.204231
    14 2.979373 -0.388274 -0.044205 -0.030851 -0.030823 0.768363
    15 1.435262 -0.000001 -0.000001 0.000000 0.000000 1.204014
    16 1.482593 -0.000001 0.000001 0.000000 0.000000 1.153221
    17 -2.975371 1.071532 -4.156022 0.466413 1.347660 -2.920871
    18 4.972047 0.000000 0.000000 -1.992422 -0.878672 0.548232
    19 11.585358 0.000000 0.000001 0.000000 0.000000 -1.579834
    20 10.127058 0.000000 0.000001 1.124044 0.670554 1.078517
    21 1.537458 0.109715 1.664489 -3.079588 0.031470 0.928526
    22 0.928313 0.000000 0.000002 0.000000 0.000000 0.061034
    23 0.928311 0.000000 0.000001 0.000000 0.000000 0.671897
    24 2.686395 -0.427337 0.044204 -0.001208 0.043611 -0.052337
    25 1.435260 0.000000 0.000001 0.000000 0.000000 1.186618
    26 1.482593 0.000000 -0.000001 0.000000 0.000000 1.684243
    27 2.046984 0.000001 0.000000 0.154409 0.006786 -0.059620
    28 -0.000005 0.000007 3.713254 -0.100057 -3.049861 5.714450
    29 18.045723 0.000000 0.000000 0.000000 0.000000 -0.388157
    30 17.597597 0.000000 0.000000 -0.058292 -0.015639 -0.181701
    31 0.000005 -0.000003 -3.713254 0.804737 2.829701 6.165120
    32 18.045721 0.000000 0.000000 0.000000 0.000000 -0.787839
    33 17.597597 0.000000 0.000000 0.180203 0.119790 0.482952
  time 1
    0 0.395509 3.574479 0.368674 0.000000 0.000000 -1.571017
    1 -0.140633 0.007813 0.000000 -1.570795 -1.570787 0.000000
    2 1.293670 0.684478 -0.000001 -0.062413 0.041909 0.082360
    3 5.309685 -0.003834 0.000000 0.003982 -0.033821 -0.011877
    4 4.826790 -0.004591 0.000000 0.012894 -0.047087 -0.114068
    5 5.792767 -0.005304 0.000000 -0.034375 -0.054470 -0.042374
    6 6.662322 -0.001452 0.000000 -0.091910 0.032655 0.231870
    7 -3.518356 0.356631 4.277124 1.492237 -1.968645 -4.857535
    8 4.827512 0.000000 -0.000002 2.393976 0.703672 0.544657
    9 11.140032 0.000000 0.000000 0.000000 0.000000 -1.963314
    10 10.314563 -0.000001 0.000001 -1.016258 -0.391269 0.728128
    11 1.646836 0.445664 -1.699647 -0.410237 3.351791 -0.808777
    12 0.928312 0.000000 0.000000 0.000000 0.000000 0.617012
    13 0.928313 0.000000 -0.000001 0.000000 0.000000 1.227913
    14 2.979373 -0.388274 -0.044205 -0.031965 -0.029697 0.804842
    15 1.435262 -0.000001 -0.000001 0.000000 0.000000 1.204808
    16 1.482593 -0.000001 0.000001 0.000000 0.000000 1.129661
    17 -2.975371 1.071532 -4.156022 -1.430850 1.618819 -4.807358
    18 4.972047 0.000000 0.000000 -2.390785 -0.609823 0.644405
    19 11.585358 0.000000 0.000001 0.000000 0.000000 -2.089924
    20 10.127058 0.000000 0.000001 1.151463 0.668568 1.030796
    21 1.537458 0.109715 1.664489 -3.079588 0.031470 0.928526
    22 0.928313 0.000000 0.000002 0.000000 0.000000 0.061034
    23 0.928311 0.000000 0.000001 0.000000 0.000000 0.671897
    24 2.686395 -0.427337 0.044204 -0.001208 0.043611 -0.052337
    25 1.435260 0.000000 0.000001 0.000000 0.000000 1.186618
    26 1.482593 0.000000 -0.000001 0.000000 0.000000 1.684243
    27 2.046984 0.000001 0.000000 0.172978 0.060276 0.128888
    28 -0.000005 0.000007 3.713254 -0.101112 -3.050628 5.726241
    29 18.045723 0.000000 0.000000 0.000000 0.000000 -0.344044
    30 17.597597 0.000000 0.000000 -0.058089 -0.016057 -0.213977
    31 0.000005 -0.000003 -3.713254 0.804066 2.828838 6.151219
    32 18.045721 0.000000 0.000000 0.000000 0.000000 -0.795711
    33 17.597597 0.000000 0.000000 0.179431 0.110145 0.480966
  time 2
    0 0.368164 3.879176 0.368674 0.000000 0.000000 -1.571017
    1 -0.140633 0.007813 0.000000 -1.570795 -1.570787 0.000000
    2 1.293670 0.684478 -0.000001 -0.058185 0.065567 0.212254
    3 5.309685 -0.003834 0.000000 0.004867 -0.056136 -0.073576
    4 4.826790 -0.004591 0.000000 0.018998 -0.061002 -0.257095
    5 5.792767 -0.005304 0.000000 -0.028313 -0.081747 -0.184495
    6 6.662322 -0.001452 0.000000 -0.091910 0.032655 0.231870
    7 -3.518356 0.356631 4.277124 -1.990297 -1.167913 -1.349916
    8 4.827512 0.000000 -0.000002 2.764261 0.842668 0.498386
    9 11.140032 0.000000 0.000000 0.000000 0.000000 -2.184731
    10 10.314563 -0.000001 0.000001 -1.015121 -0.408879 0.681155
    11 1.646836 0.445664 -1.699647 -0.428438 3.349582 -0.741951
    12 0.928312 0.000000 0.000000 0.000000 0.000000 0.640709
    13 0.928313 0.000000 -0.000001 0.000000 0.000000 1.251595
    14 2.979373 -0.388274 -0.044205 -0.033032 -0.028486 0.841278
    15 1.435262 -0.000001 -0.000001 0.000000 0.000000 1.205560
    16 1.482593 -0.000001 0.000001 0.000000 0.000000 1.106047
    17 -2.975371 1.071532 -4.156022 3.295206 1.411519 -0.082711
    18 4.972047 0.000000 0.000000 -2.473140 -0.595922 0.500579
    19 11.585358 0.000000 0.000001 0.000000 0.000000 -2.452174
    20 10.127058 0.000000 0.000001 1.262960 0.535422 1.024343
    21 1.537458 0.109715 1.664489 -3.079588 0.031470 0.928526
    22 0.928313 0.000000 0.000002 0.000000 0.000000 0.061034
    23 0.928311 0.000000 0.000001 0.000000 0.000000 0.671897
    24 2.686395 -0.427337 0.044204 -0.001208 0.043611 -0.052337
    25 1.435260 0.000000 0.000001 0.000000 0.000000 1.186618
    26 1.482593 0.000000 -0.000001 0.000000 0.000000 1.684243
    27 2.046984 0.000001 0.000000 0.175692 0.091402 0.274512
    28 -0.000005 0.000007 3.713254 -0.102358 -3.052162 5.738511
    29 18.045723 0.000000 0.000000 0.000000 0.000000 -0.302818
    30 17.597597 0.000000 0.000000 -0.058216 -0.015786 -0.242861
    31 0.000005 -0.000003 -3.713254 0.803299 2.827783 6.139811
    32 18.045721 0.000000 0.000000 0.000000 0.000000 -0.801536
    33 17.597597 0.000000 0.000000 0.178928 0.102630 0.478472
  time 3
    0 0.481449 4.121371 0.368674 0.000000 0.000000 -1.571017
    1 -0.140633 0.007813 0.000000 -1.570795 -1.570787 0.000000
    2 1.293670 0.684478 -0.000001 -0.055996 0.049543 0.272555
    3 5.309685 -0.003834 0.000000 0.005650 -0.028176 -0.137235
    4 4.826790 -0.004591 0.000000 0.016061 -0.042102 -0.207685
    5 5.792767 -0.005304 0.000000 -0.026802 -0.024209 -0.309591
    6 6.662322 -0.001452 0.000000 -0.091910 0.032655 0.231870
    7 -3.518356 0.356631 4.277124 -2.243349 -1.179297 -1.090823
    8 4.827512 0.000000 -0.000002 2.842702 1.239276 0.476723
    9 11.140032 0.000000 0.000000 0.000000 0.000000 -2.330942
    10 10.314563 -0.000001 0.000001 -1.135487 -0.332630 0.714658
    11 1.646836 0.445664 -1.699647 -0.392035 3.352851 -0.875707
    12 0.928312 0.000000 0.000000 0.000000 0.000000 0.593404
    13 0.928313 0.000000 -0.000001 0.000000 0.000000 1.204231
    14 2.979373 -0.388274 -0.044205 -0.030851 -0.030823 0.768363
    15 1.435262 -0.000001 -0.000001 0.000000 0.000000 1.204014
    16 1.482593 -0.000001 0.000001 0.000000 0.000000 1.153221
    17 -2.975371 1.071532 -4.156022 -2.257200 1.355389 -5.643232
    18 4.972047 0.000000 0.000000 -1.298970 -0.626455 -0.194193
    19 11.585358 0.000000 0.000001 0.000000 0.000000 -2.426527
    20 10.127058 0.000000 0.000001 1.626623 -0.120758 1.013439
    21 1.537458 0.109715 1.664489 -3.079588 0.031470 0.928526
    22 0.928313 0.000000 0.000002 0.000000 0.000000 0.061034
    23 0.928311 0.000000 0.000001 0.000000 0.000000 0.671897
    24 2.686395 -0.427337 0.044204 -0.001208 0.043611 -0.052337
    25 1.435260 0.000000 0.000001 0.000000 0.000000 1.186618
    26 1.482593 0.000000 -0.000001 0.000000 0.000000 1.684243
    27 2.046984 0.000001 0.000000 0.135151 0.015932 0.266725
    28 -0.000005 0.000007 3.713254 -0.103700 -3.057435 5.748672
    29 18.045723 0.000000 0.000000 0.000000 0.000000 -0.269659
    30 17.597597 0.000000 0.000000 -0.059888 -0.011873 -0.265509
    31 0.000005 -0.000003 -3.713254 0.801574 2.822894 6.130799
    32 18.045721 0.000000 0.000000 0.000000 0.000000 -0.805472
    33 17.597597 0.000000 0.000000 0.178894 0.099612 0.472930
  time 4
    0 0.524419 4.215123 0.368674 0.000000 0.000000 -1.571017
    1 -0.140633 0.007813 0.000000 -1.570795 -1.570787 0.000000
    2 1.293670 0.684478 -0.000001 -0.056872 0.026149 0.264419
    3 5.309685 -0.003834 0.000000 0.004510 0.004578 -0.165833
    4 4.826790 -0.004591 0.000000 0.012646 -0.020182 -0.108269
    5 5.792767 -0.005304 0.000000 -0.026532 -0.024497 -0.321052
    6 6.662322 -0.001452 0.000000 -0.091910 0.032655 0.231870
    7 -3.518356 0.356631 4.277124 -2.421636 -1.342903 -0.940101
    8 4.827512 0.000000 -0.000002 0.821798 0.869785 -1.003179
    9 11.140032 0.000000 0.000000 0.000000 0.000000 -2.343332
    10 10.314563 -0.000001 0.000001 -1.599607 0.117184 0.890357
    11 1.646836 0.445664 -1.699647 2.933650 -0.147575 1.538619
    12 0.928312 0.000000 0.000000 0.000000 0.000000 0.333836
    13 0.928313 0.000000 -0.000001 0.000000 0.000000 0.944760
    14 2.979373 -0.388274 -0.044205 -0.016433 -0.040411 0.368354
    15 1.435262 -0.000001 -0.000001 0.000000 0.000000 1.195488
    16 1.482593 -0.000001 0.000001 0.000000 0.000000 1.412009
    17 -2.975371 1.071532 -4.156022 -1.779636 1.257063 -5.162990
    18 4.972047 0.000000 0.000000 -0.245800 -0.079034 -0.638317
    19 11.585358 0.000000 0.000001 0.000000 0.000000 -2.140157
    20 10.127058 0.000000 0.000001 2.034604 -0.623556 0.766332
    21 1.537458 0.109715 1.664489 -3.079588 0.031470 0.928526
    22 0.928313 0.000000 0.000002 0.000000 0.000000 0.061034
    23 0.928311 0.000000 0.000001 0.000000 0.000000 0.671897
    24 2.686395 -0.427337 0.044204 -0.001208 0.043611 -0.052337
    25 1.435260 0.000000 0.000001 0.000000 0.000000 1.186618
    26 1.482593 0.000000 -0.000001 0.000000 0.000000 1.684243
    27 2.046984 0.000001 0.000000 0.134376 -0.000089 0.138499
    28 -0.000005 0.000007 3.713254 -0.104276 -3.059545 5.753177
    29 18.045723 0.000000 0.000000 0.000000 0.000000 -0.255522
    30 17.597597 0.000000 0.000000 -0.060496 -0.010397 -0.274862
    31 0.000005 -0.000003 -3.713254 0.800807 2.821168 6.127348
    32 18.045721 0.000000 0.000000 0.000000 0.000000 -0.806810
    33 17.597597 0.000000 0.000000 0.178861 0.098429 0.470713
  time 5
    0 0.524419 4.015899 0.368674 0.000000 0.000000 -1.571017
    1 -0.140633 0.007813 0.000000 -1.570795 -1.570787 0.000000
    2 1.293670 0.684478 -0.000001 -0.058607 0.017916 0.190725
    3 5.309685 -0.003834 0.000000 0.004493 0.010127 -0.134657
    4 4.826790 -0.004591 0.000000 0.011712 -0.016719 -0.060049
    5 5.792767 -0.005304 0.000000 -0.028870 -0.021644 -0.218650
    6 6.662322 -0.001452 0.000000 -0.091910 0.032655 0.231870
    7 -3.518356 0.356631 4.277124 -3.644625 -1.518573 -6.015594
    8 4.827512 0.000000 -0.000002 0.206383 -0.001030 -0.773469
    9 11.140032 0.000000 0.000000 0.000000 0.000000 -2.159517
    10 10.314563 -0.000001 0.000001 -1.953596 0.535430 0.856622
    11 1.646836 0.445664 -1.699647 3.031037 0.029368 0.802960
    12 0.928312 0.000000 0.000000 0.000000 0.000000 0.061070
    13 0.928313 0.000000 -0.000001 0.000000 0.000000 0.671882
    14 2.979373 -0.388274 -0.044205 0.001460 -0.043599 -0.052327
    15 1.435262 -0.000001 -0.000001 0.000000 0.000000 1.186628
    16 1.482593 -0.000001 0.000001 0.000000 0.000000 1.684153
    17 -2.975371 1.071532 -4.156022 -1.700632 1.211686 -5.081864
    18 4.972047 0.000000 0.000000 0.285288 0.044704 -0.882841
    19 11.585358 0.000000 0.000001 0.000000 0.000000 -1.534665
    20 10.127058 0.000000 0.000001 1.860135 -0.333149 0.812102
    21 1.537458 0.109715 1.664489 -3.079588 0.031470 0.928526
    22 0.928313 0.000000 0.000002 0.000000 0.000000 0.061034
    23 0.928311 0.000000 0.000001 0.000000 0.000000 0.671897
    24 2.686395 -0.427337 0.044204 -0.001208 0.043611 -0.052337
    25 1.435260 0.000000 0.000001 0.000000 0.000000 1.186618
    26 1.482593 0.000000 -0.000001 0.000000 0.000000 1.684243
    27 2.046984 0.000001 0.000000 0.137779 0.015165 -0.044474
    28 -0.000005 0.000007 3.713254 -0.103413 -3.057531 5.742728
    29 18.045723 0.000000 0.000000 0.000000 0.000000 -0.287275
    30 17.597597 0.000000 0.000000 -0.060167 -0.011209 -0.253726
    31 0.000005 -0.000003 -3.713254 0.801574 2.822415 6.134634
    32 18.045721 0.000000 0.000000 0.000000 0.000000 -0.803425
    33 17.597597 0.000000 0.000000 0.179062 0.102788 0.473114
  time 6
    0 0.493168 3.656513 0.368674 0.000000 0.000000 -1.571017
    1 -0.140633 0.007813 0.000000 -1.570795 -1.570787 0.000000
    2 1.293670 0.684478 -0.000001 -0.060342 0.012259 0.089207
    3 5.309685 -0.003834 0.000000 0.004867 0.009228 -0.082443
    4 4.826790 -0.004591 0.000000 0.010834 -0.017653 -0.017210
    5 5.792767 -0.005304 0.000000 -0.030975 -0.018552 -0.115272
    6 6.662322 -0.001452 0.000000 -0.091910 0.032655 0.231870
    7 -3.518356 0.356631 4.277124 1.665827 -1.440718 -5.044285
    8 4.827512 0.000000 -0.000002 -0.389581 -0.088947 -0.726938
    9 11.140032 0.000000 0.000000 0.000000 0.000000 -1.652054
    10 10.314563 -0.000001 0.000001 -1.538665 0.257318 0.799430
    11 1.646836 0.445664 -1.699647 3.033288 0.079544 0.625668
    12 0.928312 0.000000 0.000000 0.000000 0.000000 -0.005445
    13 0.928313 0.000000 -0.000001 0.000000 0.000000 0.605305
    14 2.979373 -0.388274 -0.044205 0.005918 -0.043227 -0.154990
    15 1.435262 -0.000001 -0.000001 0.000000 0.000000 1.184413
    16 1.482593 -0.000001 0.000001 0.000000 0.000000 1.750560
    17 -2.975371 1.071532 -4.156022 -1.603858 1.149456 -4.978517
    18 4.972047 0.000000 0.000000 0.636657 0.087128 -1.106866
    19 11.585358 0.000000 0.000001 0.000000 0.000000 -0.926558
    20 10.127058 0.000000 0.000001 1.664209 0.076975 0.787441
    21 1.537458 0.109715 1.664489 -3.079588 0.031470 0.928526
    22 0.928313 0.000000 0.000002 0.000000 0.000000 0.061034
    23 0.928311 0.000000 0.000001 0.000000 0.000000 0.671897
    24 2.686395 -0.427337 0.044204 -0.001208 0.043611 -0.052337
    25 1.435260 0.000000 0.000001 0.000000 0.000000 1.186618
    26 1.482593 0.000000 -0.000001 0.000000 0.000000 1.684243
    27 2.046984 0.000001 0.000000 0.138210 0.036260 -0.215403
    28 -0.000005 0.000007 3.713254 -0.101783 -3.053984 5.728062
    29 18.045723 0.000000 0.000000 0.000000 0.000000 -0.335902
    30 17.597597 0.000000 0.000000 -0.059331 -0.013079 -0.219983
    31 0.000005 -0.000003 -3.713254 0.802916 2.825387 6.147864
    32 18.045721 0.000000 0.000000 0.000000 0.000000 -0.796813
    33 17.597597 0.000000 0.000000 0.179498 0.110283 0.477548
  time 7
    0 0.461917 3.254157 0.368674 0.000000 0.000000 -1.571017
    1 -0.140633 0.007813 0.000000 -1.570795 -1.570787 0.000000
    2 1.293670 0.684478 -0.000001 -0.061757 0.008137 -0.014537
    3 5.309685 -0.003834 0.000000 0.005139 0.005825 -0.026431
    4 4.826790 -0.004591 0.000000 0.010033 -0.020302 0.018619
    5 5.792767 -0.005304 0.000000 -0.032396 -0.015951 -0.033446
    6 6.662322 -0.001452 0.000000 -0.091910 0.032655 0.231870
    7 -3.518356 0.356631 4.277124 1.538821 -1.343494 -4.916655
    8 4.827512 0.000000 -0.000002 -0.863099 -0.072660 -0.842183
    9 11.140032 0.000000 0.000000 0.000000 0.000000 -1.094525
    10 10.314563 -0.000001 0.000001 -1.123071 -0.064915 0.550977
    11 1.646836 0.445664 -1.699647 3.031037 0.029368 0.802960
    12 0.928312 0.000000 0.000000 0.000000 0.000000 0.061070
    13 0.928313 0.000000 -0.000001 0.000000 0.000000 0.671882
    14 2.979373 -0.388274 -0.044205 0.001460 -0.043599 -0.052327
    15 1.435262 -0.000001 -0.000001 0.000000 0.000000 1.186628
    16 1.482593 -0.000001 0.000001 0.000000 0.000000 1.684153
    17 -2.975371 1.071532 -4.156022 -1.443555 0.932166 -4.781402
    18 4.972047 0.000000 0.000000 0.674833 0.295475 -0.964571
    19 11.585358 0.000000 0.000001 0.000000 0.000000 -0.684541
    20 10.127058 0.000000 0.000001 1.871846 0.074422 0.593007
    21 1.537458 0.109715 1.664489 -3.079588 0.031470 0.928526
    22 0.928313 0.000000 0.000002 0.000000 0.000000 0.061034
    23 0.928311 0.000000 0.000001 0.000000 0.000000 0.671897
    24 2.686395 -0.427337 0.044204 -0.001208 0.043611 -0.052337
    25 1.435260 0.000000 0.000001 0.000000 0.000000 1.186618
    26 1.482593 0.000000 -0.000001 0.000000 0.000000 1.684243
    27 2.046984 0.000001 0.000000 0.135582 0.057296 -0.358959
    28 -0.000005 0.000007 3.713254 -0.100345 -3.050341 5.715792
    29 18.045723 0.000000 0.000000 0.000000 0.000000 -0.382606
    30 17.597597 0.000000 0.000000 -0.058444 -0.015294 -0.185873
    31 0.000005 -0.000003 -3.713254 0.804449 2.829125 6.163107
    32 18.045721 0.000000 0.000000 0.000000 0.000000 -0.788941
    33 17.597597 0.000000 0.000000 0.180102 0.118744 0.482306
  time 8
    0 0.438479 2.929928 0.368674 0.000000 0.000000 -1.571017
    1 -0.140633 0.007813 0.000000 -1.570795 -1.570787 0.000000
    2 1.293670 0.684478 -0.000001 -0.062447 0.004445 -0.094676
    3 5.309685 -0.003834 0.000000 0.005275 0.003679 0.016297
    4 4.826790 -0.004591 0.000000 0.009442 -0.021908 0.045893
    5 5.792767 -0.005304 0.000000 -0.033079 -0.014405 0.013748
    6 6.662322 -0.001452 0.000000 -0.091910 0.032655 0.231870
    7 -3.518356 0.356631 4.277124 1.428399 -1.206648 -4.798702
    8 4.827512 0.000000 -0.000002 -0.958042 -0.264781 -0.828925
    9 11.140032 0.000000 0.000000 0.000000 0.000000 -0.777832
    10 10.314563 -0.000001 0.000001 -1.421806 -0.096108 0.410638
    11 1.646836 0.445664 -1.699647 2.955980 -0.126904 1.429135
    12 0.928312 0.000000 0.000000 0.000000 0.000000 0.293936
    13 0.928313 0.000000 -0.000001 0.000000 0.000000 0.904768
    14 2.979373 -0.388274 -0.044205 -0.013904 -0.041370 0.306730
    15 1.435262 -0.000001 -0.000001 0.000000 0.000000 1.194192
    16 1.482593 -0.000001 0.000001 0.000000 0.000000 1.451864
    17 -2.975371 1.071532 -4.156022 -1.395312 0.723683 -4.673936
    18 4.972047 0.000000 0.000000 0.643692 0.488635 -0.786070
    19 11.585358 0.000000 0.000001 0.000000 0.000000 -0.593468
    20 10.127058 0.000000 0.000001 2.138668 0.031774 0.393972
    21 1.537458 0.109715 1.664489 -3.079588 0.031470 0.928526
    22 0.928313 0.000000 0.000002 0.000000 0.000000 0.061034
    23 0.928311 0.000000 0.000001 0.000000 0.000000 0.671897
    24 2.686395 -0.427337 0.044204 -0.001208 0.043611 -0.052337
    25 1.435260 0.000000 0.000001 0.000000 0.000000 1.186618
    26 1.482593 0.000000 -0.000001 0.000000 0.000000 1.684243
    27 2.046984 0.000001 0.000000 0.130584 0.073877 -0.474290
    28 -0.000005 0.000007 3.713254 -0.099194 -3.047752 5.708123
    29 18.045723 0.000000 0.000000 0.000000 0.000000 -0.415690
    30 17.597597 0.000000 0.000000 -0.057734 -0.017115 -0.160611
    31 0.000005 -0.000003 -3.713254 0.805599 2.832289 6.175570
    32 18.045721 0.000000 0.000000 0.000000 0.000000 -0.781699
    33 17.597597 0.000000 0.000000 0.180740 0.125529 0.485816
  time 9
    0 0.438479 2.883051 0.368674 0.000000 0.000000 -1.571017
    1 -0.140633 0.007813 0.000000 -1.570795 -1.570787 0.000000
    2 1.293670 0.684478 -0.000001 -0.062515 0.003510 -0.109676
    3 5.309685 -0.003834 0.000000 0.005309 0.003643 0.023875
    4 4.826790 -0.004591 0.000000 0.009480 -0.021896 0.044129
    5 5.792767 -0.005304 0.000000 -0.033187 -0.014154 0.021950
    6 6.662322 -0.001452 0.000000 -0.091910 0.032655 0.231870
    7 -3.518356 0.356631 4.277124 1.379418 -1.057945 -4.734025
    8 4.827512 0.000000 -0.000002 -0.911248 -0.449228 -0.827625
    9 11.140032 0.000000 0.000000 0.000000 0.000000 -0.522941
    10 10.314563 -0.000001 0.000001 -1.937958 -0.121399 0.320175
    11 1.646836 0.445664 -1.699647 -0.392035 3.352851 -0.875707
    12 0.928312 0.000000 0.000000 0.000000 0.000000 0.593404
    13 0.928313 0.000000 -0.000001 0.000000 0.000000 1.204231
    14 2.979373 -0.388274 -0.044205 -0.030851 -0.030823 0.768363
    15 1.435262 -0.000001 -0.000001 0.000000 0.000000 1.204014
    16 1.482593 -0.000001 0.000001 0.000000 0.000000 1.153221
    17 -2.975371 1.071532 -4.156022 -1.393210 0.696761 -4.662347
    18 4.972047 0.000000 0.000000 0.669111 0.570029 -0.767567
    19 11.585358 0.000000 0.000001 0.000000 0.000000 -0.569944
    20 10.127058 0.000000 0.000001 2.178077 0.028464 0.354855
    21 1.537458 0.109715 1.664489 -3.079588 0.031470 0.928526
    22 0.928313 0.000000 0.000002 0.000000 0.000000 0.061034
    23 0.928311 0.000000 0.000001 0.000000 0.000000 0.671897
    24 2.686395 -0.427337 0.044204 -0.001208 0.043611 -0.052337
    25 1.435260 0.000000 0.000001 0.000000 0.000000 1.186618
    26 1.482593 0.000000 -0.000001 0.000000 0.000000 1.684243
    27 2.046984 0.000001 0.000000 0.126319 0.081312 -0.532381
    28 -0.000005 0.000007 3.713254 -0.099098 -3.047464 5.707165
    29 18.045723 0.000000 0.000000 0.000000 0.000000 -0.420427
    30 17.597597 0.000000 0.000000 -0.057633 -0.017361 -0.156943
    31 0.000005 -0.000003 -3.713254 0.805887 2.832864 6.177392
    32 18.045721 0.000000 0.000000 0.000000 0.000000 -0.780597
    33 17.597597 0.000000 0.000000 0.180840 0.126594 0.486278
  time 10
    0 0.446291 2.949460 0.368674 0.000000 0.000000 -1.571017
    1 -0.140633 0.007813 0.000000 -1.570795 -1.570787 0.000000
    2 1.293670 0.684478 -0.000001 -0.062447 0.004445 -0.094676
    3 5.309685 -0.003834 0.000000 0.005275 0.003679 0.016297
    4 4.826790 -0.004591 0.000000 0.009823 -0.021692 0.026270
    5 5.792767 -0.005304 0.000000 -0.033025 -0.014513 0.010572
    6 6.662322 -0.001452 0.000000 -0.091910 0.032655 0.231870
    7 -3.518356 0.356631 4.277124 1.379418 -1.057945 -4.734025
    8 4.827512 0.000000 -0.000002 -0.929663 -0.496896 -0.822513
    9 11.140032 0.000000 0.000000 0.000000 0.000000 -0.525332
    10 10.314563 -0.000001 0.000001 -1.941654 -0.130485 0.323543
    11 1.646836 0.445664 -1.699647 -0.392035 3.352851 -0.875707
    12 0.928312 0.000000 0.000000 0.000000 0.000000 0.593404
    13 0.928313 0.000000 -0.000001 0.000000 0.000000 1.204231
    14 2.979373 -0.388274 -0.044205 -0.030851 -0.030823 0.768363
    15 1.435262 -0.000001 -0.000001 0.000000 0.000000 1.204014
    16 1.482593 -0.000001 0.000001 0.000000 0.000000 1.153221
    17 -2.975371 1.071532 -4.156022 -1.395312 0.723683 -4.673936
    18 4.972047 0.000000 0.000000 0.696125 0.604017 -0.784339
    19 11.585358 0.000000 0.000001 0.000000 0.000000 -0.587015
    20 10.127058 0.000000 0.000001 2.161668 0.015319 0.362208
    21 1.537458 0.109715 1.664489 -3.079588 0.031470 0.928526
    22 0.928313 0.000000 0.000002 0.000000 0.000000 0.061034
    23 0.928311 0.000000 0.000001 0.000000 0.000000 0.671897
    24 2.686395 -0.427337 0.044204 -0.001208 0.043611 -0.052337
    25 1.435260 0.000000 0.000001 0.000000 0.000000 1.186618
    26 1.482593 0.000000 -0.000001 0.000000 0.000000 1.684243
    27 2.046984 0.000001 0.000000 0.123519 0.084085 -0.552820
    28 -0.000005 0.000007 3.713254 -0.099194 -3.047944 5.708602
    29 18.045723 0.000000 0.000000 0.000000 0.000000 -0.413544
    30 17.597597 0.000000 0.000000 -0.057785 -0.016943 -0.162308
    31 0.000005 -0.000003 -3.713254 0.805599 2.832097 6.174707
    32 18.045721 0.000000 0.000000 0.000000 0.000000 -0.782250
    33 17.597597 0.000000 0.000000 0.180672 0.125095 0.485539
end
