version 1
nodes
  0 "Bip01" -1
  1 "Bip01 Pelvis" 0
  2 "Bip01 Spine" 1
  3 "Bip01 Spine1" 2
  4 "Bip01 Spine2" 3
  5 "Bip01 Spine3" 4
  6 "Bip01 Neck" 5
  7 "Bip01 L Arm" 6
  8 "Bip01 L Arm1" 7
  9 "Bip01 L Arm2" 8
  10 "Bip01 L Hand" 9
  11 "Bip01 L Finger0" 10
  12 "Bip01 L Finger01" 11
  13 "Bip01 L Finger02" 12
  14 "Bip01 L Finger1" 10
  15 "Bip01 L Finger11" 14
  16 "Bip01 L Finger12" 15
  17 "Bip01 R Arm" 6
  18 "Bip01 R Arm1" 17
  19 "Bip01 R Arm2" 18
  20 "Bip01 R Hand" 19
  21 "Bip01 R Finger0" 20
  22 "Bip01 R Finger01" 21
  23 "Bip01 R Finger02" 22
  24 "Bip01 R Finger1" 20
  25 "Bip01 R Finger11" 24
  26 "Bip01 R Finger12" 25
  27 "Bip01 Head" 6
  28 "Bip01 L Leg" 1
  29 "Bip01 L Leg1" 28
  30 "Bip01 L Foot" 29
  31 "Bip01 R Leg" 1
  32 "Bip01 R Leg1" 31
  33 "Bip01 R Foot" 32
end
skeleton
  time 0
    0 0.395509 2.672108 0.368674 0.000000 0.000000 -1.571017
    1 -0.425798 0.058596 0.000000 -1.570795 -1.570787 0.000000
    2 1.293670 0.684478 -0.000001 -0.062447 0.004445 -0.094676
    3 5.309685 -0.003834 0.000000 0.005275 0.003679 0.016297
    4 4.826790 -0.004591 0.000000 0.009823 -0.021692 0.026270
    5 5.792767 -0.005304 0.000000 -0.033025 -0.014513 0.010572
    6 6.662322 -0.001452 0.000000 -0.091910 0.032655 0.231870
    7 -3.518356 0.356631 4.277124 1.379418 -1.057945 -4.734025
    8 4.827512 0.000000 -0.000002 -0.929663 -0.496896 -0.822513
    9 11.140032 0.000000 0.000000 0.000000 0.000000 -0.525332
    10 10.314563 -0.000001 0.000001 -1.941654 -0.130485 0.323543
    11 1.646836 0.445664 -1.699647 -0.392035 3.352851 -0.875707
    12 0.928312 0.000000 0.000000 0.000000 0.000000 0.593404
    13 0.928313 0.000000 -0.000001 0.000000 0.000000 1.204231
    14 2.979373 -0.388274 -0.044205 -0.030851 -0.030823 0.768363
    15 1.435262 -0.000001 -0.000001 0.000000 0.000000 1.204014
    16 1.482593 -0.000001 0.000001 0.000000 0.000000 1.153221
    17 -2.975371 1.071532 -4.156022 -1.395312 0.723683 -4.673936
    18 4.972047 0.000000 0.000000 0.696125 0.604017 -0.784339
    19 11.585358 0.000000 0.000001 0.000000 0.000000 -0.587015
    20 10.127058 0.000000 0.000001 2.161668 0.015319 0.362208
    21 1.537458 0.109715 1.664489 -3.079588 0.031470 0.928526
    22 0.928313 0.000000 0.000002 0.000000 0.000000 0.061034
    23 0.928311 0.000000 0.000001 0.000000 0.000000 0.671897
    24 2.686395 -0.427337 0.044204 -0.001208 0.043611 -0.052337
    25 1.435260 0.000000 0.000001 0.000000 0.000000 1.186618
    26 1.482593 0.000000 -0.000001 0.000000 0.000000 1.684243
    27 2.046984 0.000001 0.000000 0.123519 0.084085 -0.552820
    28 -0.000005 0.000007 3.713254 -0.102262 -3.051395 5.731225
    29 18.045723 0.000000 0.000000 0.000000 0.000000 -0.326799
    30 17.597597 0.000000 0.000000 -0.057734 -0.015565 -0.226310
    31 0.000005 -0.000003 -3.713254 0.805887 2.827591 6.146713
    32 18.045721 0.000000 0.000000 0.000000 0.000000 -0.798230
    33 17.597597 0.000000 0.000000 0.177049 0.107147 0.479488
  time 1
    0 0.469730 2.726797 0.368674 0.000000 0.000000 -1.571017
    1 -0.425798 0.058596 0.000000 -1.570795 -1.570787 0.000000
    2 1.293670 0.684478 -0.000001 -0.062329 0.002696 -0.084598
    3 5.309685 -0.003834 0.000000 0.001004 0.011685 0.018893
    4 4.826790 -0.004591 0.000000 0.013734 -0.017593 0.049949
    5 5.792767 -0.005304 0.000000 0.000953 0.010043 0.048734
    6 6.662322 -0.001452 0.000000 -0.091910 0.032655 0.231870
    7 -3.518356 0.356631 4.277124 1.430891 -1.103038 -4.795732
    8 4.827512 0.000000 -0.000002 -0.781070 -0.165523 -1.032640
    9 11.140032 0.000000 0.000000 0.000000 0.000000 -0.744938
    10 10.314563 -0.000001 0.000001 -1.879386 -0.207016 0.258048
    11 1.646836 0.445664 -1.699647 -0.392035 3.352851 -0.875707
    12 0.928312 0.000000 0.000000 0.000000 0.000000 0.593404
    13 0.928313 0.000000 -0.000001 0.000000 0.000000 1.204231
    14 2.979373 -0.388274 -0.044205 -0.030731 -0.030955 0.764020
    15 1.435262 -0.000001 -0.000001 0.000000 0.000000 1.193148
    16 1.482593 -0.000001 0.000001 0.000000 0.000000 0.988567
    17 -2.975371 1.071532 -4.156022 -1.296436 0.862417 -4.583903
    18 4.972047 0.000000 0.000000 0.449248 0.123527 -0.948598
    19 11.585358 0.000000 0.000001 0.000000 0.000000 -0.956698
    20 10.127058 0.000000 0.000001 2.101081 0.030639 0.512123
    21 1.537458 0.109715 1.664489 -3.079588 0.031470 0.928526
    22 0.928313 0.000000 0.000002 0.000000 0.000000 0.061034
    23 0.928311 0.000000 0.000001 0.000000 0.000000 0.671897
    24 2.686395 -0.427337 0.044204 -0.001208 0.043611 -0.052337
    25 1.435260 0.000000 0.000001 0.000000 0.000000 1.186618
    26 1.482593 0.000000 -0.000001 0.000000 0.000000 1.684243
    27 2.046984 0.000001 0.000000 0.125716 0.019443 -0.303179
    28 -0.000005 0.000007 3.713254 -0.102646 -3.053984 5.732184
    29 18.045723 0.000000 0.000000 0.000000 0.000000 -0.322284
    30 17.597597 0.000000 0.000000 -0.058672 -0.013227 -0.229565
    31 0.000005 -0.000003 -3.713254 0.805024 2.824907 6.144796
    32 18.045721 0.000000 0.000000 0.000000 0.000000 -0.799017
    33 17.597597 0.000000 0.000000 0.177082 0.107640 0.476948
  time 2
    0 0.536138 2.789299 0.368674 0.000000 0.000000 -1.571017
    1 -0.425798 0.058596 0.000000 -1.570795 -1.570787 0.000000
    2 1.293670 0.684478 -0.000001 -0.062110 0.000514 -0.072829
    3 5.309685 -0.003834 0.000000 -0.005275 0.019211 0.021702
    4 4.826790 -0.004591 0.000000 0.014630 -0.012620 0.074732
    5 5.792767 -0.005304 0.000000 0.034842 0.035654 0.088909
    6 6.662322 -0.001452 0.000000 -0.091910 0.032655 0.231870
    7 -3.518356 0.356631 4.277124 1.497125 -1.147451 -4.870758
    8 4.827512 0.000000 -0.000002 -0.655118 0.193309 -1.145286
    9 11.140032 0.000000 0.000000 0.000000 0.000000 -0.975484
    10 10.314563 -0.000001 0.000001 -1.821857 -0.220317 0.172172
    11 1.646836 0.445664 -1.699647 -0.392035 3.352851 -0.875707
    12 0.928312 0.000000 0.000000 0.000000 0.000000 0.593404
    13 0.928313 0.000000 -0.000001 0.000000 0.000000 1.204231
    14 2.979373 -0.388274 -0.044205 -0.030503 -0.031195 0.756725
    15 1.435262 -0.000001 -0.000001 0.000000 0.000000 1.174968
    16 1.482593 -0.000001 0.000001 0.000000 0.000000 0.808580
    17 -2.975371 1.071532 -4.156022 -1.156005 0.992765 -4.456898
    18 4.972047 0.000000 0.000000 0.225820 -0.348607 -0.878382
    19 11.585358 0.000000 0.000001 0.000000 0.000000 -1.321644
    20 10.127058 0.000000 0.000001 2.021561 0.050119 0.655484
    21 1.537458 0.109715 1.664489 -3.079588 0.031470 0.928526
    22 0.928313 0.000000 0.000002 0.000000 0.000000 0.061034
    23 0.928311 0.000000 0.000001 0.000000 0.000000 0.671897
    24 2.686395 -0.427337 0.044204 -0.001208 0.043611 -0.052337
    25 1.435260 0.000000 0.000001 0.000000 0.000000 1.186618
    26 1.482593 0.000000 -0.000001 0.000000 0.000000 1.684243
    27 2.046984 0.000001 0.000000 0.095213 -0.039358 -0.033403
    28 -0.000005 0.000007 3.713254 -0.103029 -3.055901 5.733430
    29 18.045723 0.000000 0.000000 0.000000 0.000000 -0.317251
    30 17.597597 0.000000 0.000000 -0.059381 -0.011504 -0.233141
    31 0.000005 -0.000003 -3.713254 0.804449 2.822894 6.142975
    32 18.045721 0.000000 0.000000 0.000000 0.000000 -0.799568
    33 17.597597 0.000000 0.000000 0.177082 0.107778 0.475008
  time 3
    0 0.575202 2.832269 0.368674 0.000000 0.000000 -1.571017
    1 -0.425798 0.058596 0.000000 -1.570795 -1.570787 0.000000
    2 1.293670 0.684478 -0.000001 -0.062110 -0.000816 -0.064425
    3 5.309685 -0.003834 0.000000 -0.007419 0.027325 0.024970
    4 4.826790 -0.004591 0.000000 0.019284 -0.012596 0.098015
    5 5.792767 -0.005304 0.000000 0.067706 0.055944 0.130892
    6 6.662322 -0.001452 0.000000 -0.091910 0.032655 0.231870
    7 -3.518356 0.356631 4.277124 1.576204 -1.187488 -4.957090
    8 4.827512 0.000000 -0.000002 -0.508040 0.491426 -1.168941
    9 11.140032 0.000000 0.000000 0.000000 0.000000 -1.183933
    10 10.314563 -0.000001 0.000001 -1.687369 -0.212917 0.104528
    11 1.646836 0.445664 -1.699647 -0.392035 3.352851 -0.875707
    12 0.928312 0.000000 0.000000 0.000000 0.000000 0.593404
    13 0.928313 0.000000 -0.000001 0.000000 0.000000 1.204231
    14 2.979373 -0.388274 -0.044205 -0.030467 -0.031243 0.755292
    15 1.435262 -0.000001 -0.000001 0.000000 0.000000 1.171332
    16 1.482593 -0.000001 0.000001 0.000000 0.000000 0.659258
    17 -2.975371 1.071532 -4.156022 -1.010319 1.083204 -4.324817
    18 4.972047 0.000000 0.000000 -0.018526 -0.634410 -0.630397
    19 11.585358 0.000000 0.000001 0.000000 0.000000 -1.591187
    20 10.127058 0.000000 0.000001 1.944424 0.073098 0.756728
    21 1.537458 0.109715 1.664489 -3.079588 0.031470 0.928526
    22 0.928313 0.000000 0.000002 0.000000 0.000000 0.061034
    23 0.928311 0.000000 0.000001 0.000000 0.000000 0.671897
    24 2.686395 -0.427337 0.044204 -0.001208 0.043611 -0.052337
    25 1.435260 0.000000 0.000001 0.000000 0.000000 1.186618
    26 1.482593 0.000000 -0.000001 0.000000 0.000000 1.684243
    27 2.046984 0.000001 0.000000 0.032312 -0.065262 0.198841
    28 -0.000005 0.000007 3.713254 -0.103221 -3.057148 5.734676
    29 18.045723 0.000000 0.000000 0.000000 0.000000 -0.312736
    30 17.597597 0.000000 0.000000 -0.059812 -0.010520 -0.236305
    31 0.000005 -0.000003 -3.713254 0.804066 2.821648 6.141441
    32 18.045721 0.000000 0.000000 0.000000 0.000000 -0.800119
    33 17.597597 0.000000 0.000000 0.177082 0.107581 0.473715
  time 4
    0 0.586921 2.871332 0.368674 0.000000 0.000000 -1.571017
    1 -0.425798 0.058596 0.000000 -1.570795 -1.570787 0.000000
    2 1.293670 0.684478 -0.000001 -0.062632 -0.000193 -0.064358
    3 5.309685 -0.003834 0.000000 0.000698 0.036913 0.029068
    4 4.826790 -0.004591 0.000000 0.034582 -0.023070 0.117042
    5 5.792767 -0.005304 0.000000 0.098915 0.064693 0.173269
    6 6.662322 -0.001452 0.000000 -0.091910 0.032655 0.231870
    7 -3.518356 0.356631 4.277124 1.661897 -1.219984 -5.047830
    8 4.827512 0.000000 -0.000002 -0.327640 0.645259 -1.140693
    9 11.140032 0.000000 0.000000 0.000000 0.000000 -1.336737
    10 10.314563 -0.000001 0.000001 -1.392805 -0.250854 0.045304
    11 1.646836 0.445664 -1.699647 -0.392035 3.352851 -0.875707
    12 0.928312 0.000000 0.000000 0.000000 0.000000 0.593404
    13 0.928313 0.000000 -0.000001 0.000000 0.000000 1.204231
    14 2.979373 -0.388274 -0.044205 -0.030851 -0.030823 0.768363
    15 1.435262 -0.000001 -0.000001 0.000000 0.000000 1.204014
    16 1.482593 -0.000001 0.000001 0.000000 0.000000 0.586654
    17 -2.975371 1.071532 -4.156022 -0.997040 1.107444 -4.317059
    18 4.972047 0.000000 0.000000 -0.016462 -0.708492 -0.525106
    19 11.585358 0.000000 0.000001 0.000000 0.000000 -1.639950
    20 10.127058 0.000000 0.000001 1.898002 0.109032 0.769233
    21 1.537458 0.109715 1.664489 -3.079588 0.031470 0.928526
    22 0.928313 0.000000 0.000002 0.000000 0.000000 0.061034
    23 0.928311 0.000000 0.000001 0.000000 0.000000 0.671897
    24 2.686395 -0.427337 0.044204 -0.001208 0.043611 -0.052337
    25 1.435260 0.000000 0.000001 0.000000 0.000000 1.186618
    26 1.482593 0.000000 -0.000001 0.000000 0.000000 1.684243
    27 2.046984 0.000001 0.000000 -0.036534 -0.044403 0.332360
    28 -0.000005 0.000007 3.713254 -0.103509 -3.057723 5.735635
    29 18.045723 0.000000 0.000000 0.000000 0.000000 -0.309331
    30 17.597597 0.000000 0.000000 -0.059964 -0.010101 -0.238735
    31 0.000005 -0.000003 -3.713254 0.803874 2.821264 6.140482
    32 18.045721 0.000000 0.000000 0.000000 0.000000 -0.800670
    33 17.597597 0.000000 0.000000 0.177049 0.107226 0.473114
  time 5
    0 0.586921 2.883051 0.368674 0.000000 0.000000 -1.571017
    1 -0.425798 0.058596 0.000000 -1.570795 -1.570787 0.000000
    2 1.293670 0.684478 -0.000001 -0.062296 -0.001367 -0.059453
    3 5.309685 -0.003834 0.000000 -0.005956 0.035175 0.028379
    4 4.826790 -0.004591 0.000000 0.026666 -0.016623 0.118498
    5 5.792767 -0.005304 0.000000 0.097098 0.070002 0.170902
    6 6.662322 -0.001452 0.000000 -0.091910 0.032655 0.231870
    7 -3.518356 0.356631 4.277124 1.661801 -1.219984 -5.047734
    8 4.827512 0.000000 -0.000002 -0.321183 0.701966 -1.103174
    9 11.140032 0.000000 0.000000 0.000000 0.000000 -1.356662
    10 10.314563 -0.000001 0.000001 -1.510232 -0.208514 0.070271
    11 1.646836 0.445664 -1.699647 -0.392035 3.352851 -0.875707
    12 0.928312 0.000000 0.000000 0.000000 0.000000 0.593404
    13 0.928313 0.000000 -0.000001 0.000000 0.000000 1.204231
    14 2.979373 -0.388274 -0.044205 -0.030575 -0.031111 0.758766
    15 1.435262 -0.000001 -0.000001 0.000000 0.000000 1.179983
    16 1.482593 -0.000001 0.000001 0.000000 0.000000 0.547601
    17 -2.975371 1.071532 -4.156022 -1.054454 1.096954 -4.374527
    18 4.972047 0.000000 0.000000 0.051073 -0.725124 -0.574224
    19 11.585358 0.000000 0.000001 0.000000 0.000000 -1.550184
    20 10.127058 0.000000 0.000001 1.879490 0.138726 0.746674
    21 1.537458 0.109715 1.664489 -3.079588 0.031470 0.928526
    22 0.928313 0.000000 0.000002 0.000000 0.000000 0.061034
    23 0.928311 0.000000 0.000001 0.000000 0.000000 0.671897
    24 2.686395 -0.427337 0.044204 -0.001208 0.043611 -0.052337
    25 1.435260 0.000000 0.000001 0.000000 0.000000 1.186618
    26 1.482593 0.000000 -0.000001 0.000000 0.000000 1.684243
    27 2.046984 0.000001 0.000000 -0.036707 -0.060217 0.399150
    28 -0.000005 0.000007 3.713254 -0.103509 -3.057723 5.735635
    29 18.045723 0.000000 0.000000 0.000000 0.000000 -0.309331
    30 17.597597 0.000000 0.000000 -0.059964 -0.010101 -0.238735
    31 0.000005 -0.000003 -3.713254 0.803874 2.821264 6.140482
    32 18.045721 0.000000 0.000000 0.000000 0.000000 -0.800670
    33 17.597597 0.000000 0.000000 0.177049 0.107226 0.473114
  time 6
    0 0.512700 2.886958 0.368674 0.000000 0.000000 -1.571017
    1 -0.425798 0.058596 0.000000 -1.570795 -1.570787 0.000000
    2 1.293670 0.684478 -0.000001 -0.062077 -0.002110 -0.056406
    3 5.309685 -0.003834 0.000000 -0.010142 0.034084 0.028008
    4 4.826790 -0.004591 0.000000 -0.010739 -0.026845 0.121187
    5 5.792767 -0.005304 0.000000 0.046948 0.037188 0.163635
    6 6.662322 -0.001452 0.000000 -0.091910 0.032655 0.231870
    7 -3.518356 0.356631 4.277124 1.711165 -1.246478 -5.098614
    8 4.827512 0.000000 -0.000002 -0.211174 0.815295 -0.985243
    9 11.140032 0.000000 0.000000 0.000000 0.000000 -1.725884
    10 10.314563 -0.000001 0.000001 -1.565866 -0.198304 0.115212
    11 1.646836 0.445664 -1.699647 -0.392035 3.352851 -0.875707
    12 0.928312 0.000000 0.000000 0.000000 0.000000 0.593404
    13 0.928313 0.000000 -0.000001 0.000000 0.000000 1.204231
    14 2.979373 -0.388274 -0.044205 -0.031534 -0.030116 0.790815
    15 1.435262 -0.000001 -0.000001 0.000000 0.000000 1.186503
    16 1.482593 -0.000001 0.000001 0.000000 0.000000 0.540068
    17 -2.975371 1.071532 -4.156022 -1.088750 1.079129 -4.406709
    18 4.972047 0.000000 0.000000 0.105570 -0.750997 -0.734888
    19 11.585358 0.000000 0.000001 0.000000 0.000000 -1.369753
    20 10.127058 0.000000 0.000001 1.867218 0.152154 0.746324
    21 1.537458 0.109715 1.664489 -3.079588 0.031470 0.928526
    22 0.928313 0.000000 0.000002 0.000000 0.000000 0.061034
    23 0.928311 0.000000 0.000001 0.000000 0.000000 0.671897
    24 2.686395 -0.427337 0.044204 -0.001208 0.043611 -0.052337
    25 1.435260 0.000000 0.000001 0.000000 0.000000 1.186618
    26 1.482593 0.000000 -0.000001 0.000000 0.000000 1.684243
    27 2.046984 0.000001 0.000000 0.062772 -0.078568 0.408396
    28 -0.000005 0.000007 3.713254 -0.103125 -3.055518 5.736593
    29 18.045723 0.000000 0.000000 0.000000 0.000000 -0.307407
    30 17.597597 0.000000 0.000000 -0.059103 -0.012218 -0.239927
    31 0.000005 -0.000003 -3.713254 0.804641 2.823469 6.140578
    32 18.045721 0.000000 0.000000 0.000000 0.000000 -0.800985
    33 17.597597 0.000000 0.000000 0.176948 0.105589 0.475147
  time 7
    0 0.450198 2.926022 0.368674 0.000000 0.000000 -1.571017
    1 -0.425798 0.058596 0.000000 -1.570795 -1.570787 0.000000
    2 1.293670 0.684478 -0.000001 -0.061976 -0.002506 -0.054933
    3 5.309685 -0.003834 0.000000 -0.012150 0.033581 0.027814
    4 4.826790 -0.004591 0.000000 -0.047686 -0.036721 0.129654
    5 5.792767 -0.005304 0.000000 -0.006871 0.008329 0.163967
    6 6.662322 -0.001452 0.000000 -0.091910 0.032655 0.231870
    7 -3.518356 0.356631 4.277124 1.761776 -1.268891 -5.150068
    8 4.827512 0.000000 -0.000002 -0.080279 0.911484 -0.902925
    9 11.140032 0.000000 0.000000 0.000000 0.000000 -1.943317
    10 10.314563 -0.000001 0.000001 -1.615434 -0.167299 0.088445
    11 1.646836 0.445664 -1.699647 -0.392035 3.352851 -0.875707
    12 0.928312 0.000000 0.000000 0.000000 0.000000 0.593404
    13 0.928313 0.000000 -0.000001 0.000000 0.000000 1.204231
    14 2.979373 -0.388274 -0.044205 -0.030287 -0.031411 0.749907
    15 1.435262 -0.000001 -0.000001 0.000000 0.000000 1.157917
    16 1.482593 -0.000001 0.000001 0.000000 0.000000 0.511700
    17 -2.975371 1.071532 -4.156022 -1.103940 1.070795 -4.420693
    18 4.972047 0.000000 0.000000 0.145247 -0.746578 -0.876718
    19 11.585358 0.000000 0.000001 0.000000 0.000000 -1.222239
    20 10.127058 0.000000 0.000001 1.860205 0.161043 0.747724
    21 1.537458 0.109715 1.664489 -3.079588 0.031470 0.928526
    22 0.928313 0.000000 0.000002 0.000000 0.000000 0.061034
    23 0.928311 0.000000 0.000001 0.000000 0.000000 0.671897
    24 2.686395 -0.427337 0.044204 -0.001208 0.043611 -0.052337
    25 1.435260 0.000000 0.000001 0.000000 0.000000 1.186618
    26 1.482593 0.000000 -0.000001 0.000000 0.000000 1.684243
    27 2.046984 0.000001 0.000000 0.148593 -0.102820 0.411194
    28 -0.000005 0.000007 3.713254 -0.103029 -3.053984 5.738511
    29 18.045723 0.000000 0.000000 0.000000 0.000000 -0.302004
    30 17.597597 0.000000 0.000000 -0.058444 -0.013793 -0.243548
    31 0.000005 -0.000003 -3.713254 0.805024 2.825099 6.139715
    32 18.045721 0.000000 0.000000 0.000000 0.000000 -0.801536
    33 17.597597 0.000000 0.000000 0.176814 0.103715 0.476440
  time 8
    0 0.438479 3.004149 0.368674 0.000000 0.000000 -1.571017
    1 -0.425798 0.058596 0.000000 -1.570795 -1.570787 0.000000
    2 1.293670 0.684478 -0.000001 -0.061959 -0.002554 -0.054732
    3 5.309685 -0.003834 0.000000 -0.012405 0.033509 0.027761
    4 4.826790 -0.004591 0.000000 -0.076736 -0.039849 0.149475
    5 5.792767 -0.005304 0.000000 -0.054071 0.000527 0.178169
    6 6.662322 -0.001452 0.000000 -0.091910 0.032655 0.231870
    7 -3.518356 0.356631 4.277124 1.772319 -1.273061 -5.160704
    8 4.827512 0.000000 -0.000002 0.020962 0.987633 -0.976144
    9 11.140032 0.000000 0.000000 0.000000 0.000000 -1.655532
    10 10.314563 -0.000001 0.000001 -1.730113 -0.067631 -0.120293
    11 1.646836 0.445664 -1.699647 -0.392035 3.352851 -0.875707
    12 0.928312 0.000000 0.000000 0.000000 0.000000 0.593404
    13 0.928313 0.000000 -0.000001 0.000000 0.000000 1.204231
    14 2.979373 -0.388274 -0.044205 -0.021023 -0.038254 0.484826
    15 1.435262 -0.000001 -0.000001 0.000000 0.000000 1.008220
    16 1.482593 -0.000001 0.000001 0.000000 0.000000 0.394166
    17 -2.975371 1.071532 -4.156022 -1.083305 1.089462 -4.403261
    18 4.972047 0.000000 0.000000 0.125924 -0.721428 -0.917516
    19 11.585358 0.000000 0.000001 0.000000 0.000000 -1.216440
    20 10.127058 0.000000 0.000001 1.857681 0.165771 0.750375
    21 1.537458 0.109715 1.664489 -3.079588 0.031470 0.928526
    22 0.928313 0.000000 0.000002 0.000000 0.000000 0.061034
    23 0.928311 0.000000 0.000001 0.000000 0.000000 0.671897
    24 2.686395 -0.427337 0.044204 -0.001208 0.043611 -0.052337
    25 1.435260 0.000000 0.000001 0.000000 0.000000 1.186618
    26 1.482593 0.000000 -0.000001 0.000000 0.000000 1.684243
    27 2.046984 0.000001 0.000000 0.185041 -0.142148 0.416547
    28 -0.000005 0.000007 3.713254 -0.103413 -3.054367 5.741961
    29 18.045723 0.000000 0.000000 0.000000 0.000000 -0.290976
    30 17.597597 0.000000 0.000000 -0.058444 -0.013793 -0.251022
    31 0.000005 -0.000003 -3.713254 0.804928 2.825003 6.137031
    32 18.045721 0.000000 0.000000 0.000000 0.000000 -0.802953
    33 17.597597 0.000000 0.000000 0.176680 0.101861 0.475932
  time 9
    0 0.446291 3.109621 0.368674 0.000000 0.000000 -1.571017
    1 -0.425798 0.058596 0.000000 -1.570795 -1.570787 0.000000
    2 1.293670 0.684478 -0.000001 -0.062009 -0.002362 -0.055502
    3 5.309685 -0.003834 0.000000 -0.011333 0.033797 0.027867
    4 4.826790 -0.004591 0.000000 -0.106168 -0.042629 0.174610
    5 5.792767 -0.005304 0.000000 -0.104347 -0.003260 0.198309
    6 6.662322 -0.001452 0.000000 -0.091910 0.032655 0.231870
    7 -3.518356 0.356631 4.277124 1.767048 -1.270961 -5.155338
    8 4.827512 0.000000 -0.000002 0.106737 1.054488 -1.097541
    9 11.140032 0.000000 0.000000 0.000000 0.000000 -1.192410
    10 10.314563 -0.000001 0.000001 -1.878628 0.011896 -0.402307
    11 1.646836 0.445664 -1.699647 -0.392035 3.352851 -0.875707
    12 0.928312 0.000000 0.000000 0.000000 0.000000 0.593404
    13 0.928313 0.000000 -0.000001 0.000000 0.000000 1.204231
    14 2.979373 -0.388274 -0.044205 -0.007457 -0.043000 0.153909
    15 1.435262 -0.000001 -0.000001 0.000000 0.000000 0.825381
    16 1.482593 -0.000001 0.000001 0.000000 0.000000 0.254835
    17 -2.975371 1.071532 -4.156022 -1.052735 1.113175 -4.376826
    18 4.972047 0.000000 0.000000 0.105570 -0.678923 -0.953789
    19 11.585358 0.000000 0.000001 0.000000 0.000000 -1.237350
    20 10.127058 0.000000 0.000001 1.858733 0.166906 0.753727
    21 1.537458 0.109715 1.664489 -3.079588 0.031470 0.928526
    22 0.928313 0.000000 0.000002 0.000000 0.000000 0.061034
    23 0.928311 0.000000 0.000001 0.000000 0.000000 0.671897
    24 2.686395 -0.427337 0.044204 -0.001208 0.043611 -0.052337
    25 1.435260 0.000000 0.000001 0.000000 0.000000 1.186618
    26 1.482593 0.000000 -0.000001 0.000000 0.000000 1.684243
    27 2.046984 0.000001 0.000000 0.213002 -0.184220 0.411498
    28 -0.000005 0.000007 3.713254 -0.103796 -3.055230 5.746659
    29 18.045723 0.000000 0.000000 0.000000 0.000000 -0.276617
    30 17.597597 0.000000 0.000000 -0.058596 -0.013424 -0.260787
    31 0.000005 -0.000003 -3.713254 0.804641 2.824332 6.133579
    32 18.045721 0.000000 0.000000 0.000000 0.000000 -0.804606
    33 17.597597 0.000000 0.000000 0.176546 0.099770 0.474777
  time 10
    0 0.461917 3.215093 0.368674 0.000000 0.000000 -1.571017
    1 -0.425798 0.058596 0.000000 -1.570795 -1.570787 0.000000
    2 1.293670 0.684478 -0.000001 -0.062110 -0.001966 -0.056992
    3 5.309685 -0.003834 0.000000 -0.009325 0.034312 0.028061
    4 4.826790 -0.004591 0.000000 -0.131708 -0.043971 0.198930
    5 5.792767 -0.005304 0.000000 -0.150737 -0.003188 0.218345
    6 6.662322 -0.001452 0.000000 -0.091910 0.032655 0.231870
    7 -3.518356 0.356631 4.277124 1.761776 -1.268891 -5.150068
    8 4.827512 0.000000 -0.000002 0.140218 1.084419 -1.187398
    9 11.140032 0.000000 0.000000 0.000000 0.000000 -0.857820
    10 10.314563 -0.000001 0.000001 -1.970561 0.028102 -0.601115
    11 1.646836 0.445664 -1.699647 -0.392035 3.352851 -0.875707
    12 0.928312 0.000000 0.000000 0.000000 0.000000 0.593404
    13 0.928313 0.000000 -0.000001 0.000000 0.000000 1.204231
    14 2.979373 -0.388274 -0.044205 -0.000530 -0.043611 -0.006512
    15 1.435262 -0.000001 -0.000001 0.000000 0.000000 0.740878
    16 1.482593 -0.000001 0.000001 0.000000 0.000000 0.194999
    17 -2.975371 1.071532 -4.156022 -1.012420 1.139150 -4.340429
    18 4.972047 0.000000 0.000000 0.085215 -0.629187 -0.978215
    19 11.585358 0.000000 0.000001 0.000000 0.000000 -1.275004
    20 10.127058 0.000000 0.000001 1.862660 0.164447 0.757028
    21 1.537458 0.109715 1.664489 -3.079588 0.031470 0.928526
    22 0.928313 0.000000 0.000002 0.000000 0.000000 0.061034
    23 0.928311 0.000000 0.000001 0.000000 0.000000 0.671897
    24 2.686395 -0.427337 0.044204 -0.001208 0.043611 -0.052337
    25 1.435260 0.000000 0.000001 0.000000 0.000000 1.186618
    26 1.482593 0.000000 -0.000001 0.000000 0.000000 1.684243
    27 2.046984 0.000001 0.000000 0.229589 -0.222958 0.400549
    28 -0.000005 0.000007 3.713254 -0.104276 -3.056573 5.751260
    29 18.045723 0.000000 0.000000 0.000000 0.000000 -0.262406
    30 17.597597 0.000000 0.000000 -0.058900 -0.012735 -0.270231
    31 0.000005 -0.000003 -3.713254 0.804162 2.823373 6.130224
    32 18.045721 0.000000 0.000000 0.000000 0.000000 -0.806023
    33 17.597597 0.000000 0.000000 0.176445 0.098015 0.473391
  time 11
    0 0.489261 3.285408 0.368674 0.000000 0.000000 -1.571017
    1 -0.425798 0.058596 0.000000 -1.570795 -1.570787 0.000000
    2 1.293670 0.684478 -0.000001 -0.062262 -0.001511 -0.058867
    3 5.309685 -0.003834 0.000000 -0.006756 0.034947 0.028326
    4 4.826790 -0.004591 0.000000 -0.149371 -0.043276 0.216193
    5 5.792767 -0.005304 0.000000 -0.186479 -0.000180 0.232069
    6 6.662322 -0.001452 0.000000 -0.091910 0.032655 0.231870
    7 -3.518356 0.356631 4.277124 1.758517 -1.263983 -5.147002
    8 4.827512 0.000000 -0.000002 0.100200 1.082543 -1.236789
    9 11.140032 0.000000 0.000000 0.000000 0.000000 -0.725810
    10 10.314563 -0.000001 0.000001 -1.961368 0.008431 -0.687572
    11 1.646836 0.445664 -1.699647 -0.392035 3.352851 -0.875707
    12 0.928312 0.000000 0.000000 0.000000 0.000000 0.593404
    13 0.928313 0.000000 -0.000001 0.000000 0.000000 1.204231
    14 2.979373 -0.388274 -0.044205 -0.004796 -0.043359 0.092155
    15 1.435262 -0.000001 -0.000001 0.000000 0.000000 0.803315
    16 1.482593 -0.000001 0.000001 0.000000 0.000000 0.251469
    17 -2.975371 1.071532 -4.156022 -0.962075 1.164310 -4.294359
    18 4.972047 0.000000 0.000000 0.062422 -0.581379 -0.981676
    19 11.585358 0.000000 0.000001 0.000000 0.000000 -1.319602
    20 10.127058 0.000000 0.000001 1.868690 0.159530 0.759629
    21 1.537458 0.109715 1.664489 -3.079588 0.031470 0.928526
    22 0.928313 0.000000 0.000002 0.000000 0.000000 0.061034
    23 0.928311 0.000000 0.000001 0.000000 0.000000 0.671897
    24 2.686395 -0.427337 0.044204 -0.001208 0.043611 -0.052337
    25 1.435260 0.000000 0.000001 0.000000 0.000000 1.186618
    26 1.482593 0.000000 -0.000001 0.000000 0.000000 1.684243
    27 2.046984 0.000001 0.000000 0.232260 -0.252786 0.390147
    28 -0.000005 0.000007 3.713254 -0.104755 -3.057819 5.754519
    29 18.045723 0.000000 0.000000 0.000000 0.000000 -0.252562
    30 17.597597 0.000000 0.000000 -0.059305 -0.011873 -0.276742
    31 0.000005 -0.000003 -3.713254 0.803874 2.822319 6.127923
    32 18.045721 0.000000 0.000000 0.000000 0.000000 -0.807125
    33 17.597597 0.000000 0.000000 0.176411 0.097127 0.472098
  time 12
    0 0.520512 3.301033 0.368674 0.000000 0.000000 -1.571017
    1 -0.425798 0.058596 0.000000 -1.570795 -1.570787 0.000000
    2 1.293670 0.684478 -0.000001 -0.062397 -0.001056 -0.060809
    3 5.309685 -0.003834 0.000000 -0.004067 0.035642 0.028591
    4 4.826790 -0.004591 0.000000 -0.155036 -0.040280 0.220250
    5 5.792767 -0.005304 0.000000 -0.204718 0.004171 0.233481
    6 6.662322 -0.001452 0.000000 -0.091910 0.032655 0.231870
    7 -3.518356 0.356631 4.277124 1.753149 -1.255733 -5.142019
    8 4.827512 0.000000 -0.000002 0.003823 1.076318 -1.306802
    9 11.140032 0.000000 0.000000 0.000000 0.000000 -0.667847
    10 10.314563 -0.000001 0.000001 -1.906208 -0.019484 -0.730771
    11 1.646836 0.445664 -1.699647 -0.392035 3.352851 -0.875707
    12 0.928312 0.000000 0.000000 0.000000 0.000000 0.593404
    13 0.928313 0.000000 -0.000001 0.000000 0.000000 1.204231
    14 2.979373 -0.388274 -0.044205 -0.014372 -0.041190 0.317891
    15 1.435262 -0.000001 -0.000001 0.000000 0.000000 0.937592
    16 1.482593 -0.000001 0.000001 0.000000 0.000000 0.364248
    17 -2.975371 1.071532 -4.156022 -0.903705 1.185790 -4.239286
    18 4.972047 0.000000 0.000000 0.031938 -0.543615 -0.954255
    19 11.585358 0.000000 0.000001 0.000000 0.000000 -1.361258
    20 10.127058 0.000000 0.000001 1.875913 0.151870 0.760830
    21 1.537458 0.109715 1.664489 -3.079588 0.031470 0.928526
    22 0.928313 0.000000 0.000002 0.000000 0.000000 0.061034
    23 0.928311 0.000000 0.000001 0.000000 0.000000 0.671897
    24 2.686395 -0.427337 0.044204 -0.001208 0.043611 -0.052337
    25 1.435260 0.000000 0.000001 0.000000 0.000000 1.186618
    26 1.482593 0.000000 -0.000001 0.000000 0.000000 1.684243
    27 2.046984 0.000001 0.000000 0.218344 -0.269396 0.386741
    28 -0.000005 0.000007 3.713254 -0.104947 -3.058586 5.754711
    29 18.045723 0.000000 0.000000 0.000000 0.000000 -0.251600
    30 17.597597 0.000000 0.000000 -0.059609 -0.011160 -0.277429
    31 0.000005 -0.000003 -3.713254 0.803586 2.821552 6.127540
    32 18.045721 0.000000 0.000000 0.000000 0.000000 -0.807125
    33 17.597597 0.000000 0.000000 0.176445 0.097423 0.471313
  time 13
    0 0.575202 3.191655 0.368674 0.000000 0.000000 -1.571017
    1 -0.425798 0.058596 0.000000 -1.570795 -1.570787 0.000000
    2 1.293670 0.684478 -0.000001 -0.062515 -0.000708 -0.061914
    3 5.309685 -0.003834 0.000000 -0.001770 0.036996 0.029103
    4 4.826790 -0.004591 0.000000 -0.129400 -0.027732 0.188743
    5 5.792767 -0.005304 0.000000 -0.176496 0.017222 0.201714
    6 6.662322 -0.001452 0.000000 -0.091910 0.032655 0.231870
    7 -3.518356 0.356631 4.277124 1.752094 -1.254107 -5.141061
    8 4.827512 0.000000 -0.000002 -0.168605 1.080923 -1.501072
    9 11.140032 0.000000 0.000000 0.000000 0.000000 -0.683497
    10 10.314563 -0.000001 0.000001 -1.844319 -0.039998 -0.711204
    11 1.646836 0.445664 -1.699647 -0.392035 3.352851 -0.875707
    12 0.928312 0.000000 0.000000 0.000000 0.000000 0.593404
    13 0.928313 0.000000 -0.000001 0.000000 0.000000 1.204231
    14 2.979373 -0.388274 -0.044205 -0.024367 -0.036205 0.574851
    15 1.435262 -0.000001 -0.000001 0.000000 0.000000 1.088585
    16 1.482593 -0.000001 0.000001 0.000000 0.000000 0.489315
    17 -2.975371 1.071532 -4.156022 -0.840845 1.200723 -4.179231
    18 4.972047 0.000000 0.000000 -0.041037 -0.524813 -0.825537
    19 11.585358 0.000000 0.000001 0.000000 0.000000 -1.390010
    20 10.127058 0.000000 0.000001 1.883697 0.142603 0.759979
    21 1.537458 0.109715 1.664489 -3.079588 0.031470 0.928526
    22 0.928313 0.000000 0.000002 0.000000 0.000000 0.061034
    23 0.928311 0.000000 0.000001 0.000000 0.000000 0.671897
    24 2.686395 -0.427337 0.044204 -0.001208 0.043611 -0.052337
    25 1.435260 0.000000 0.000001 0.000000 0.000000 1.186618
    26 1.482593 0.000000 -0.000001 0.000000 0.000000 1.684243
    27 2.046984 0.000001 0.000000 0.133342 -0.264115 0.439357
    28 -0.000005 0.000007 3.713254 -0.104276 -3.058778 5.746946
    29 18.045723 0.000000 0.000000 0.000000 0.000000 -0.274026
    30 17.597597 0.000000 0.000000 -0.059964 -0.010225 -0.262667
    31 0.000005 -0.000003 -3.713254 0.803491 2.820785 6.132045
    32 18.045721 0.000000 0.000000 0.000000 0.000000 -0.804921
    33 17.597597 0.000000 0.000000 0.176646 0.101289 0.471405
  time 14
    0 0.649423 2.972898 0.368674 0.000000 0.000000 -1.571017
    1 -0.425798 0.058596 0.000000 -1.570795 -1.570787 0.000000
    2 1.293670 0.684478 -0.000001 -0.062616 -0.000504 -0.062533
    3 5.309685 -0.003834 0.000000 -0.000102 0.038219 0.029545
    4 4.826790 -0.004591 0.000000 -0.081486 -0.006639 0.133138
    5 5.792767 -0.005304 0.000000 -0.113988 0.038806 0.147523
    6 6.662322 -0.001452 0.000000 -0.091910 0.032655 0.231870
    7 -3.518356 0.356631 4.277124 1.761871 -1.268862 -5.150164
    8 4.827512 0.000000 -0.000002 -0.352831 1.062930 -1.774281
    9 11.140032 0.000000 0.000000 0.000000 0.000000 -0.772035
    10 10.314563 -0.000001 0.000001 -1.814938 -0.039998 -0.606457
    11 1.646836 0.445664 -1.699647 -0.392035 3.352851 -0.875707
    12 0.928312 0.000000 0.000000 0.000000 0.000000 0.593404
    13 0.928313 0.000000 -0.000001 0.000000 0.000000 1.204231
    14 2.979373 -0.388274 -0.044205 -0.030827 -0.030847 0.767364
    15 1.435262 -0.000001 -0.000001 0.000000 0.000000 1.201631
    16 1.482593 -0.000001 0.000001 0.000000 0.000000 0.582754
    17 -2.975371 1.071532 -4.156022 -0.736047 1.208583 -4.076651
    18 4.972047 0.000000 0.000000 -0.191772 -0.531562 -0.607967
    19 11.585358 0.000000 0.000001 0.000000 0.000000 -1.407407
    20 10.127058 0.000000 0.000001 1.887554 0.130688 0.760430
    21 1.537458 0.109715 1.664489 -3.079588 0.031470 0.928526
    22 0.928313 0.000000 0.000002 0.000000 0.000000 0.061034
    23 0.928311 0.000000 0.000001 0.000000 0.000000 0.671897
    24 2.686395 -0.427337 0.044204 -0.001208 0.043611 -0.052337
    25 1.435260 0.000000 0.000001 0.000000 0.000000 1.186618
    26 1.482593 0.000000 -0.000001 0.000000 0.000000 1.684243
    27 2.046984 0.000001 0.000000 0.007626 -0.234346 0.513203
    28 -0.000005 0.000007 3.713254 -0.103700 -3.058969 5.735539
    29 18.045723 0.000000 0.000000 0.000000 0.000000 -0.309183
    30 17.597597 0.000000 0.000000 -0.060471 -0.008896 -0.238918
    31 0.000005 -0.000003 -3.713254 0.803586 2.819922 6.140098
    32 18.045721 0.000000 0.000000 0.000000 0.000000 -0.800670
    33 17.597597 0.000000 0.000000 0.177082 0.107877 0.471913
  time 15
    0 0.692393 2.832269 0.368674 0.000000 0.000000 -1.571017
    1 -0.425798 0.058596 0.000000 -1.570795 -1.570787 0.000000
    2 1.293670 0.684478 -0.000001 -0.062632 -0.000193 -0.064358
    3 5.309685 -0.003834 0.000000 0.000698 0.036913 0.029068
    4 4.826790 -0.004591 0.000000 -0.047686 0.006807 0.096207
    5 5.792767 -0.005304 0.000000 -0.070908 0.050982 0.110440
    6 6.662322 -0.001452 0.000000 -0.091910 0.032655 0.231870
    7 -3.518356 0.356631 4.277124 1.864722 -1.353518 -5.250006
    8 4.827512 0.000000 -0.000002 -0.152502 0.926321 -1.767609
    9 11.140032 0.000000 0.000000 0.000000 0.000000 -1.184368
    10 10.314563 -0.000001 0.000001 -1.841097 0.047023 -0.150254
    11 1.646836 0.445664 -1.699647 -0.392035 3.352851 -0.875707
    12 0.928312 0.000000 0.000000 0.000000 0.000000 0.593404
    13 0.928313 0.000000 -0.000001 0.000000 0.000000 1.204231
    14 2.979373 -0.388274 -0.044205 -0.031821 -0.029853 0.800065
    15 1.435262 -0.000001 -0.000001 0.000000 0.000000 1.221859
    16 1.482593 -0.000001 0.000001 0.000000 0.000000 0.584998
    17 -2.975371 1.071532 -4.156022 -0.629720 1.202405 -3.971101
    18 4.972047 0.000000 0.000000 -0.314460 -0.535580 -0.460614
    19 11.585358 0.000000 0.000001 0.000000 0.000000 -1.411001
    20 10.127058 0.000000 0.000001 1.890429 0.117732 0.757578
    21 1.537458 0.109715 1.664489 -3.079588 0.031470 0.928526
    22 0.928313 0.000000 0.000002 0.000000 0.000000 0.061034
    23 0.928311 0.000000 0.000001 0.000000 0.000000 0.671897
    24 2.686395 -0.427337 0.044204 -0.001208 0.043611 -0.052337
    25 1.435260 0.000000 0.000001 0.000000 0.000000 1.186618
    26 1.482593 0.000000 -0.000001 0.000000 0.000000 1.684243
    27 2.046984 0.000001 0.000000 -0.041317 -0.206790 0.495016
    28 -0.000005 0.000007 3.713254 -0.103125 -3.058778 5.728733
    29 18.045723 0.000000 0.000000 0.000000 0.000000 -0.331166
    30 17.597597 0.000000 0.000000 -0.060674 -0.008403 -0.223513
    31 0.000005 -0.000003 -3.713254 0.803586 2.819826 6.145851
    32 18.045721 0.000000 0.000000 0.000000 0.000000 -0.797600
    33 17.597597 0.000000 0.000000 0.177384 0.112216 0.472606
  time 16
    0 0.680674 2.777580 0.368674 0.000000 0.000000 -1.571017
    1 -0.425798 0.058596 0.000000 -1.570795 -1.570787 0.000000
    2 1.293670 0.684478 -0.000001 -0.062616 0.000311 -0.067723
    3 5.309685 -0.003834 0.000000 0.001191 0.033185 0.027655
    4 4.826790 -0.004591 0.000000 -0.034315 0.007718 0.083419
    5 5.792767 -0.005304 0.000000 -0.057705 0.048046 0.094910
    6 6.662322 -0.001452 0.000000 -0.091910 0.032655 0.231870
    7 -3.518356 0.356631 4.277124 1.982429 -1.422887 -5.364030
    8 4.827512 0.000000 -0.000002 -0.078844 0.698555 -1.684165
    9 11.140032 0.000000 0.000000 0.000000 0.000000 -1.600322
    10 10.314563 -0.000001 0.000001 -1.838158 0.134513 0.330046
    11 1.646836 0.445664 -1.699647 -0.392035 3.352851 -0.875707
    12 0.928312 0.000000 0.000000 0.000000 0.000000 0.593404
    13 0.928313 0.000000 -0.000001 0.000000 0.000000 1.204231
    14 2.979373 -0.388274 -0.044205 -0.030851 -0.030823 0.768363
    15 1.435262 -0.000001 -0.000001 0.000000 0.000000 1.204014
    16 1.482593 -0.000001 0.000001 0.000000 0.000000 0.586654
    17 -2.975371 1.071532 -4.156022 -0.642903 1.181136 -3.979625
    18 4.972047 0.000000 0.000000 -0.262965 -0.499101 -0.494823
    19 11.585358 0.000000 0.000001 0.000000 0.000000 -1.385272
    20 10.127058 0.000000 0.000001 1.905926 0.103453 0.736619
    21 1.537458 0.109715 1.664489 -3.079588 0.031470 0.928526
    22 0.928313 0.000000 0.000002 0.000000 0.000000 0.061034
    23 0.928311 0.000000 0.000001 0.000000 0.000000 0.671897
    24 2.686395 -0.427337 0.044204 -0.001208 0.043611 -0.052337
    25 1.435260 0.000000 0.000001 0.000000 0.000000 1.186618
    26 1.482593 0.000000 -0.000001 0.000000 0.000000 1.684243
    27 2.046984 0.000001 0.000000 0.025290 -0.184810 0.318552
    28 -0.000005 0.000007 3.713254 -0.102933 -3.057819 5.726720
    29 18.045723 0.000000 0.000000 0.000000 0.000000 -0.338567
    30 17.597597 0.000000 0.000000 -0.060344 -0.009092 -0.218241
    31 0.000005 -0.000003 -3.713254 0.804066 2.820785 6.148152
    32 18.045721 0.000000 0.000000 0.000000 0.000000 -0.796498
    33 17.597597 0.000000 0.000000 0.177485 0.113222 0.473715
  time 17
    0 0.641610 2.746329 0.368674 0.000000 0.000000 -1.571017
    1 -0.425798 0.058596 0.000000 -1.570795 -1.570787 0.000000
    2 1.293670 0.684478 -0.000001 -0.062599 0.000922 -0.071724
    3 5.309685 -0.003834 0.000000 0.001770 0.028871 0.025977
    4 4.826790 -0.004591 0.000000 -0.024263 0.005501 0.072417
    5 5.792767 -0.005304 0.000000 -0.049628 0.041179 0.080148
    6 6.662322 -0.001452 0.000000 -0.091910 0.032655 0.231870
    7 -3.518356 0.356631 4.277124 1.764268 -1.394472 -5.145469
    8 4.827512 0.000000 -0.000002 -0.437490 0.536024 -1.530014
    9 11.140032 0.000000 0.000000 0.000000 0.000000 -1.652416
    10 10.314563 -0.000001 0.000001 -1.848015 0.115030 0.436999
    11 1.646836 0.445664 -1.699647 -0.392035 3.352851 -0.875707
    12 0.928312 0.000000 0.000000 0.000000 0.000000 0.593404
    13 0.928313 0.000000 -0.000001 0.000000 0.000000 1.204231
    14 2.979373 -0.388274 -0.044205 -0.030851 -0.030823 0.768363
    15 1.435262 -0.000001 -0.000001 0.000000 0.000000 1.204014
    16 1.482593 -0.000001 0.000001 0.000000 0.000000 0.673309
    17 -2.975371 1.071532 -4.156022 -0.891859 1.115279 -4.211318
    18 4.972047 0.000000 0.000000 0.058483 -0.261829 -0.696486
    19 11.585358 0.000000 0.000001 0.000000 0.000000 -1.325891
    20 10.127058 0.000000 0.000001 1.952278 0.091727 0.676994
    21 1.537458 0.109715 1.664489 -3.079588 0.031470 0.928526
    22 0.928313 0.000000 0.000002 0.000000 0.000000 0.061034
    23 0.928311 0.000000 0.000001 0.000000 0.000000 0.671897
    24 2.686395 -0.427337 0.044204 -0.001208 0.043611 -0.052337
    25 1.435260 0.000000 0.000001 0.000000 0.000000 1.186618
    26 1.482593 0.000000 -0.000001 0.000000 0.000000 1.684243
    27 2.046984 0.000001 0.000000 0.121580 -0.134123 0.066417
    28 -0.000005 0.000007 3.713254 -0.102550 -3.056573 5.725570
    29 18.045723 0.000000 0.000000 0.000000 0.000000 -0.343156
    30 17.597597 0.000000 0.000000 -0.059913 -0.010175 -0.214894
    31 0.000005 -0.000003 -3.713254 0.804449 2.822031 6.149781
    32 18.045721 0.000000 0.000000 0.000000 0.000000 -0.795711
    33 17.597597 0.000000 0.000000 0.177485 0.113517 0.475054
  time 18
    0 0.598640 2.726797 0.368674 0.000000 0.000000 -1.571017
    1 -0.425798 0.058596 0.000000 -1.570795 -1.570787 0.000000
    2 1.293670 0.684478 -0.000001 -0.062548 0.001605 -0.076110
    3 5.309685 -0.003834 0.000000 0.002416 0.024041 0.024139
    4 4.826790 -0.004591 0.000000 -0.016499 0.000983 0.062605
    5 5.792767 -0.005304 0.000000 -0.045149 0.031424 0.065967
    6 6.662322 -0.001452 0.000000 -0.091910 0.032655 0.231870
    7 -3.518356 0.356631 4.277124 1.574191 -1.322145 -4.953066
    8 4.827512 0.000000 -0.000002 -0.872027 0.404958 -1.222145
    9 11.140032 0.000000 0.000000 0.000000 0.000000 -1.578659
    10 10.314563 -0.000001 0.000001 -1.870951 0.060419 0.424805
    11 1.646836 0.445664 -1.699647 -0.392035 3.352851 -0.875707
    12 0.928312 0.000000 0.000000 0.000000 0.000000 0.593404
    13 0.928313 0.000000 -0.000001 0.000000 0.000000 1.204231
    14 2.979373 -0.388274 -0.044205 -0.030851 -0.030823 0.768363
    15 1.435262 -0.000001 -0.000001 0.000000 0.000000 1.204014
    16 1.482593 -0.000001 0.000001 0.000000 0.000000 0.787530
    17 -2.975371 1.071532 -4.156022 -1.143872 0.993843 -4.443872
    18 4.972047 0.000000 0.000000 0.335376 0.110751 -0.812758
    19 11.585358 0.000000 0.000001 0.000000 0.000000 -1.171598
    20 10.127058 0.000000 0.000001 2.012725 0.083689 0.595659
    21 1.537458 0.109715 1.664489 -3.079588 0.031470 0.928526
    22 0.928313 0.000000 0.000002 0.000000 0.000000 0.061034
    23 0.928311 0.000000 0.000001 0.000000 0.000000 0.671897
    24 2.686395 -0.427337 0.044204 -0.001208 0.043611 -0.052337
    25 1.435260 0.000000 0.000001 0.000000 0.000000 1.186618
    26 1.482593 0.000000 -0.000001 0.000000 0.000000 1.684243
    27 2.046984 0.000001 0.000000 0.179397 -0.065734 -0.146423
    28 -0.000005 0.000007 3.713254 -0.102358 -3.055134 5.724994
    29 18.045723 0.000000 0.000000 0.000000 0.000000 -0.345894
    30 17.597597 0.000000 0.000000 -0.059381 -0.011455 -0.212831
    31 0.000005 -0.000003 -3.713254 0.804928 2.823565 6.151028
    32 18.045721 0.000000 0.000000 0.000000 0.000000 -0.795396
    33 17.597597 0.000000 0.000000 0.177485 0.113281 0.476486
  time 19
    0 0.543951 2.707265 0.368674 0.000000 0.000000 -1.571017
    1 -0.425798 0.058596 0.000000 -1.570795 -1.570787 0.000000
    2 1.293670 0.684478 -0.000001 -0.062515 0.002300 -0.080764
    3 5.309685 -0.003834 0.000000 0.003131 0.018972 0.022179
    4 4.826790 -0.004591 0.000000 -0.010148 -0.004938 0.053587
    5 5.792767 -0.005304 0.000000 -0.042703 0.019775 0.052139
    6 6.662322 -0.001452 0.000000 -0.091910 0.032655 0.231870
    7 -3.518356 0.356631 4.277124 1.477763 -1.245798 -4.852456
    8 4.827512 0.000000 -0.000002 -1.155421 0.281311 -0.881869
    9 11.140032 0.000000 0.000000 0.000000 0.000000 -1.430492
    10 10.314563 -0.000001 0.000001 -1.893129 0.004965 0.400709
    11 1.646836 0.445664 -1.699647 -0.392035 3.352851 -0.875707
    12 0.928312 0.000000 0.000000 0.000000 0.000000 0.593404
    13 0.928313 0.000000 -0.000001 0.000000 0.000000 1.204231
    14 2.979373 -0.388274 -0.044205 -0.030851 -0.030823 0.768363
    15 1.435262 -0.000001 -0.000001 0.000000 0.000000 1.204014
    16 1.482593 -0.000001 0.000001 0.000000 0.000000 0.897157
    17 -2.975371 1.071532 -4.156022 -1.307136 0.847852 -4.592810
    18 4.972047 0.000000 0.000000 0.473260 0.349309 -0.868998
    19 11.585358 0.000000 0.000001 0.000000 0.000000 -0.786886
    20 10.127058 0.000000 0.000001 2.073873 0.077637 0.507871
    21 1.537458 0.109715 1.664489 -3.079588 0.031470 0.928526
    22 0.928313 0.000000 0.000002 0.000000 0.000000 0.061034
    23 0.928311 0.000000 0.000001 0.000000 0.000000 0.671897
    24 2.686395 -0.427337 0.044204 -0.001208 0.043611 -0.052337
    25 1.435260 0.000000 0.000001 0.000000 0.000000 1.186618
    26 1.482593 0.000000 -0.000001 0.000000 0.000000 1.684243
    27 2.046984 0.000001 0.000000 0.188014 -0.011005 -0.282254
    28 -0.000005 0.000007 3.713254 -0.101975 -3.053505 5.724803
    29 18.045723 0.000000 0.000000 0.000000 0.000000 -0.347449
    30 17.597597 0.000000 0.000000 -0.058748 -0.012956 -0.211685
    31 0.000005 -0.000003 -3.713254 0.805312 2.825195 6.151890
    32 18.045721 0.000000 0.000000 0.000000 0.000000 -0.795160
    33 17.597597 0.000000 0.000000 0.177485 0.112709 0.478057
  time 20
    0 0.493168 2.703358 0.368674 0.000000 0.000000 -1.571017
    1 -0.425798 0.058596 0.000000 -1.570795 -1.570787 0.000000
    2 1.293670 0.684478 -0.000001 -0.062498 0.003031 -0.085502
    3 5.309685 -0.003834 0.000000 0.003829 0.013746 0.020183
    4 4.826790 -0.004591 0.000000 -0.004139 -0.011313 0.044856
    5 5.792767 -0.005304 0.000000 -0.040706 0.007394 0.038477
    6 6.662322 -0.001452 0.000000 -0.091910 0.032655 0.231870
    7 -3.518356 0.356631 4.277124 1.429453 -1.182875 -4.798798
    8 4.827512 0.000000 -0.000002 -1.136528 0.029157 -0.727111
    9 11.140032 0.000000 0.000000 0.000000 0.000000 -1.128144
    10 10.314563 -0.000001 0.000001 -1.911515 -0.039249 0.385322
    11 1.646836 0.445664 -1.699647 -0.392035 3.352851 -0.875707
    12 0.928312 0.000000 0.000000 0.000000 0.000000 0.593404
    13 0.928313 0.000000 -0.000001 0.000000 0.000000 1.204231
    14 2.979373 -0.388274 -0.044205 -0.030851 -0.030823 0.768363
    15 1.435262 -0.000001 -0.000001 0.000000 0.000000 1.204014
    16 1.482593 -0.000001 0.000001 0.000000 0.000000 0.986376
    17 -2.975371 1.071532 -4.156022 -1.395312 0.723683 -4.673936
    18 4.972047 0.000000 0.000000 0.569779 0.515954 -0.890961
    19 11.585358 0.000000 0.000001 0.000000 0.000000 -0.446444
    20 10.127058 0.000000 0.000001 2.124853 0.069788 0.428687
    21 1.537458 0.109715 1.664489 -3.079588 0.031470 0.928526
    22 0.928313 0.000000 0.000002 0.000000 0.000000 0.061034
    23 0.928311 0.000000 0.000001 0.000000 0.000000 0.671897
    24 2.686395 -0.427337 0.044204 -0.001208 0.043611 -0.052337
    25 1.435260 0.000000 0.000001 0.000000 0.000000 1.186618
    26 1.482593 0.000000 -0.000001 0.000000 0.000000 1.684243
    27 2.046984 0.000001 0.000000 0.174874 0.030920 -0.385176
    28 -0.000005 0.000007 3.713254 -0.101783 -3.051779 5.724707
    29 18.045723 0.000000 0.000000 0.000000 0.000000 -0.348559
    30 17.597597 0.000000 0.000000 -0.058140 -0.014507 -0.210814
    31 0.000005 -0.000003 -3.713254 0.805887 2.827016 6.152753
    32 18.045721 0.000000 0.000000 0.000000 0.000000 -0.794845
    33 17.597597 0.000000 0.000000 0.177418 0.111999 0.479673
  time 21
    0 0.438479 2.691639 0.368674 0.000000 0.000000 -1.571017
    1 -0.425798 0.058596 0.000000 -1.570795 -1.570787 0.000000
    2 1.293670 0.684478 -0.000001 -0.062481 0.003762 -0.090223
    3 5.309685 -0.003834 0.000000 0.004561 0.008617 0.018205
    4 4.826790 -0.004591 0.000000 0.002213 -0.017270 0.035905
    5 5.792767 -0.005304 0.000000 -0.037936 -0.004422 0.024649
    6 6.662322 -0.001452 0.000000 -0.091910 0.032655 0.231870
    7 -3.518356 0.356631 4.277124 1.399739 -1.120513 -4.762483
    8 4.827512 0.000000 -0.000002 -1.008901 -0.273735 -0.745308
    9 11.140032 0.000000 0.000000 0.000000 0.000000 -0.759284
    10 10.314563 -0.000001 0.000001 -1.927533 -0.084773 0.354549
    11 1.646836 0.445664 -1.699647 -0.392035 3.352851 -0.875707
    12 0.928312 0.000000 0.000000 0.000000 0.000000 0.593404
    13 0.928313 0.000000 -0.000001 0.000000 0.000000 1.204231
    14 2.979373 -0.388274 -0.044205 -0.030851 -0.030823 0.768363
    15 1.435262 -0.000001 -0.000001 0.000000 0.000000 1.204014
    16 1.482593 -0.000001 0.000001 0.000000 0.000000 1.069932
    17 -2.975371 1.071532 -4.156022 -1.405438 0.705674 -4.683514
    18 4.972047 0.000000 0.000000 0.643504 0.587304 -0.846635
    19 11.585358 0.000000 0.000001 0.000000 0.000000 -0.462372
    20 10.127058 0.000000 0.000001 2.147994 0.044540 0.387669
    21 1.537458 0.109715 1.664489 -3.079588 0.031470 0.928526
    22 0.928313 0.000000 0.000002 0.000000 0.000000 0.061034
    23 0.928311 0.000000 0.000001 0.000000 0.000000 0.671897
    24 2.686395 -0.427337 0.044204 -0.001208 0.043611 -0.052337
    25 1.435260 0.000000 0.000001 0.000000 0.000000 1.186618
    26 1.482593 0.000000 -0.000001 0.000000 0.000000 1.684243
    27 2.046984 0.000001 0.000000 0.151049 0.061102 -0.470458
    28 -0.000005 0.000007 3.713254 -0.101399 -3.050149 5.724611
    29 18.045723 0.000000 0.000000 0.000000 0.000000 -0.349891
    30 17.597597 0.000000 0.000000 -0.057506 -0.016057 -0.209713
    31 0.000005 -0.000003 -3.713254 0.806366 2.828646 6.153616
    32 18.045721 0.000000 0.000000 0.000000 0.000000 -0.794766
    33 17.597597 0.000000 0.000000 0.177384 0.111368 0.481197
  time 22
    0 0.395509 2.672108 0.368674 0.000000 0.000000 -1.571017
    1 -0.425798 0.058596 0.000000 -1.570795 -1.570787 0.000000
    2 1.293670 0.684478 -0.000001 -0.062447 0.004445 -0.094676
    3 5.309685 -0.003834 0.000000 0.005275 0.003679 0.016297
    4 4.826790 -0.004591 0.000000 0.009823 -0.021692 0.026270
    5 5.792767 -0.005304 0.000000 -0.033025 -0.014513 0.010572
    6 6.662322 -0.001452 0.000000 -0.091910 0.032655 0.231870
    7 -3.518356 0.356631 4.277124 1.379418 -1.057945 -4.734025
    8 4.827512 0.000000 -0.000002 -0.929663 -0.496896 -0.822513
    9 11.140032 0.000000 0.000000 0.000000 0.000000 -0.525332
    10 10.314563 -0.000001 0.000001 -1.941654 -0.130485 0.323543
    11 1.646836 0.445664 -1.699647 -0.392035 3.352851 -0.875707
    12 0.928312 0.000000 0.000000 0.000000 0.000000 0.593404
    13 0.928313 0.000000 -0.000001 0.000000 0.000000 1.204231
    14 2.979373 -0.388274 -0.044205 -0.030851 -0.030823 0.768363
    15 1.435262 -0.000001 -0.000001 0.000000 0.000000 1.204014
    16 1.482593 -0.000001 0.000001 0.000000 0.000000 1.153221
    17 -2.975371 1.071532 -4.156022 -1.395312 0.723683 -4.673936
    18 4.972047 0.000000 0.000000 0.696125 0.604017 -0.784339
    19 11.585358 0.000000 0.000001 0.000000 0.000000 -0.587015
    20 10.127058 0.000000 0.000001 2.161668 0.015319 0.362208
    21 1.537458 0.109715 1.664489 -3.079588 0.031470 0.928526
    22 0.928313 0.000000 0.000002 0.000000 0.000000 0.061034
    23 0.928311 0.000000 0.000001 0.000000 0.000000 0.671897
    24 2.686395 -0.427337 0.044204 -0.001208 0.043611 -0.052337
    25 1.435260 0.000000 0.000001 0.000000 0.000000 1.186618
    26 1.482593 0.000000 -0.000001 0.000000 0.000000 1.684243
    27 2.046984 0.000001 0.000000 0.123519 0.084085 -0.552820
    28 -0.000005 0.000007 3.713254 -0.101112 -3.048519 5.724228
    29 18.045723 0.000000 0.000000 0.000000 0.000000 -0.352260
    30 17.597597 0.000000 0.000000 -0.056923 -0.017484 -0.208017
    31 0.000005 -0.000003 -3.713254 0.806941 2.830372 6.154767
    32 18.045721 0.000000 0.000000 0.000000 0.000000 -0.794294
    33 17.597597 0.000000 0.000000 0.177351 0.111013 0.482722
end
