version 1
nodes
  0 "Bip01" -1
  1 "Bip01 Pelvis" 0
  2 "Bip01 Spine" 1
  3 "Bip01 Spine1" 2
  4 "Bip01 Spine2" 3
  5 "Bip01 Spine3" 4
  6 "Bip01 Neck" 5
  7 "Bip01 L Arm" 6
  8 "Bip01 L Arm1" 7
  9 "Bip01 L Arm2" 8
  10 "Bip01 L Hand" 9
  11 "Bip01 L Finger0" 10
  12 "Bip01 L Finger01" 11
  13 "Bip01 L Finger02" 12
  14 "Bip01 L Finger1" 10
  15 "Bip01 L Finger11" 14
  16 "Bip01 L Finger12" 15
  17 "Bip01 R Arm" 6
  18 "Bip01 R Arm1" 17
  19 "Bip01 R Arm2" 18
  20 "Bip01 R Hand" 19
  21 "Bip01 R Finger0" 20
  22 "Bip01 R Finger01" 21
  23 "Bip01 R Finger02" 22
  24 "Bip01 R Finger1" 20
  25 "Bip01 R Finger11" 24
  26 "Bip01 R Finger12" 25
  27 "Bip01 Head" 6
  28 "Bip01 L Leg" 1
  29 "Bip01 L Leg1" 28
  30 "Bip01 L Foot" 29
  31 "Bip01 R Leg" 1
  32 "Bip01 R Leg1" 31
  33 "Bip01 R Foot" 32
end
skeleton
  time 0
    0 -0.362327 3.035400 1.540585 0.000000 0.000000 -1.571017
    1 -0.523457 0.285165 0.000000 -1.570795 -1.570787 0.000000
    2 1.293670 0.684478 -0.000001 -0.066490 0.055188 -0.081819
    3 5.309685 -0.003834 0.000000 -0.369696 -0.065795 0.016050
    4 4.826790 -0.004591 0.000000 -0.291284 -0.134108 0.004728
    5 5.792767 -0.005304 0.000000 -0.336407 -0.038794 -0.071753
    6 6.662322 -0.001452 0.000000 0.000000 -0.000001 0.724513
    7 -2.639423 2.243408 4.339626 1.172183 -1.089466 -4.993980
    8 4.827512 0.000000 -0.000002 0.175852 0.642616 0.967164
    9 11.140032 0.000000 0.000000 0.000000 0.000000 -2.166908
    10 10.314563 -0.000001 0.000001 -1.426355 0.153529 0.005588
    11 1.646836 0.445664 -1.699647 0.153911 0.442352 0.277231
    12 0.928312 0.000000 0.000000 0.000000 0.000000 0.000000
    13 0.928313 0.000000 -0.000001 0.000000 0.000000 0.000000
    14 2.979373 -0.388274 -0.044205 -0.018183 -0.039656 0.411911
    15 1.435262 -0.000001 -0.000001 0.000000 0.000000 0.570828
    16 1.482593 -0.000001 0.000001 0.000000 0.000000 0.530452
    17 -2.432386 2.063750 -4.140396 2.754400 1.358202 -1.104782
    18 4.972047 0.000000 0.000000 2.006397 0.773072 -0.251430
    19 11.585358 0.000000 0.000001 0.000000 0.000000 -2.647144
    20 10.127058 0.000000 0.000001 2.152482 -0.397075 0.344801
    21 1.537458 0.109715 1.664489 -0.344506 -0.327833 0.740676
    22 0.928313 0.000000 0.000002 0.000000 0.000000 0.000000
    23 0.928311 0.000000 0.000001 0.000000 0.000000 0.000000
    24 2.686395 -0.427337 0.044204 0.001045 0.043611 0.000046
    25 1.435260 0.000000 0.000001 0.000000 0.000000 1.037923
    26 1.482593 0.000000 -0.000001 0.000000 0.000000 1.142584
    27 2.046984 0.000001 0.000000 1.073583 -0.275356 -0.332681
    28 -0.000005 0.000007 3.713254 -0.106864 -3.056860 5.837054
    29 18.045723 0.000000 0.000000 0.000000 0.000000 -0.428717
    30 17.597597 0.000000 0.000000 -0.059027 -0.022603 -0.018898
    31 0.000005 -0.000003 -3.713254 0.559860 3.024023 -0.016635
    32 18.045721 0.000000 0.000000 0.000000 0.000000 -0.538460
    33 17.597597 0.000000 0.000000 0.061128 0.083025 0.463322
  time 1
    0 -0.252949 3.074464 1.540585 0.000000 0.000000 -1.571017
    1 -0.523457 0.285165 0.000000 -1.570795 -1.570787 0.000000
    2 1.293670 0.684478 -0.000001 -0.065951 0.035677 -0.067539
    3 5.309685 -0.003834 0.000000 -0.326779 -0.040604 0.020289
    4 4.826790 -0.004591 0.000000 -0.255425 -0.123214 0.036500
    5 5.792767 -0.005304 0.000000 -0.289351 0.010810 -0.006039
    6 6.662322 -0.001452 0.000000 0.000000 -0.000001 0.686946
    7 -2.717551 2.145748 4.339626 1.106620 -1.145559 -4.897683
    8 4.827512 0.000000 -0.000002 -0.141023 0.703672 0.516149
    9 11.140032 0.000000 0.000000 0.000000 0.000000 -2.120103
    10 10.314563 -0.000001 0.000001 -1.427114 0.021264 0.000304
    11 1.646836 0.445664 -1.699647 0.153911 0.442352 0.277231
    12 0.928312 0.000000 0.000000 0.000000 0.000000 0.000000
    13 0.928313 0.000000 -0.000001 0.000000 0.000000 0.000000
    14 2.979373 -0.388274 -0.044205 -0.018483 -0.039512 0.419945
    15 1.435262 -0.000001 -0.000001 0.000000 0.000000 0.491173
    16 1.482593 -0.000001 0.000001 0.000000 0.000000 0.466503
    17 -2.514419 1.977810 -4.140396 2.716569 1.393984 -1.106889
    18 4.972047 0.000000 0.000000 1.682699 0.696579 -0.413293
    19 11.585358 0.000000 0.000001 0.000000 0.000000 -2.424730
    20 10.127058 0.000000 0.000001 2.176044 -0.214471 0.554041
    21 1.537458 0.109715 1.664489 -0.344506 -0.327833 0.740676
    22 0.928313 0.000000 0.000002 0.000000 0.000000 0.000000
    23 0.928311 0.000000 0.000001 0.000000 0.000000 0.000000
    24 2.686395 -0.427337 0.044204 0.001045 0.043611 0.000046
    25 1.435260 0.000000 0.000001 0.000000 0.000000 1.037923
    26 1.482593 0.000000 -0.000001 0.000000 0.000000 1.142584
    27 2.046984 0.000001 0.000000 0.921070 -0.227059 -0.318082
    28 -0.000005 0.000007 3.713254 -0.107439 -3.060024 5.836383
    29 18.045723 0.000000 0.000000 0.000000 0.000000 -0.427681
    30 17.597597 0.000000 0.000000 -0.059888 -0.019478 -0.020182
    31 0.000005 -0.000003 -3.713254 0.558997 3.020284 -0.018936
    32 18.045721 0.000000 0.000000 0.000000 0.000000 -0.540900
    33 17.597597 0.000000 0.000000 0.061397 0.084997 0.461798
  time 2
    0 -0.139664 3.172123 1.540585 0.000000 0.000000 -1.571017
    1 -0.523457 0.285165 0.000000 -1.570795 -1.570787 0.000000
    2 1.293670 0.684478 -0.000001 -0.065985 0.014656 -0.052606
    3 5.309685 -0.003834 0.000000 -0.280764 -0.013674 0.026506
    4 4.826790 -0.004591 0.000000 -0.214987 -0.114645 0.069683
    5 5.792767 -0.005304 0.000000 -0.233841 0.057754 0.067337
    6 6.662322 -0.001452 0.000000 0.000000 -0.000001 0.647642
    7 -2.799584 2.032464 4.339626 1.022940 -1.199581 -4.781168
    8 4.827512 0.000000 -0.000002 -0.489944 0.675617 0.035066
    9 11.140032 0.000000 0.000000 0.000000 0.000000 -2.082355
    10 10.314563 -0.000001 0.000001 -1.431663 -0.109878 -0.006605
    11 1.646836 0.445664 -1.699647 0.153911 0.442352 0.277231
    12 0.928312 0.000000 0.000000 0.000000 0.000000 0.000000
    13 0.928313 0.000000 -0.000001 0.000000 0.000000 0.000000
    14 2.979373 -0.388274 -0.044205 -0.019022 -0.039285 0.433321
    15 1.435262 -0.000001 -0.000001 0.000000 0.000000 0.411643
    16 1.482593 -0.000001 0.000001 0.000000 0.000000 0.398974
    17 -2.588640 1.872338 -4.140396 2.659537 1.429476 -1.126428
    18 4.972047 0.000000 0.000000 1.446608 0.555807 -0.480381
    19 11.585358 0.000000 0.000001 0.000000 0.000000 -2.202479
    20 10.127058 0.000000 0.000001 2.245957 -0.045769 0.762731
    21 1.537458 0.109715 1.664489 -0.344506 -0.327833 0.740676
    22 0.928313 0.000000 0.000002 0.000000 0.000000 0.000000
    23 0.928311 0.000000 0.000001 0.000000 0.000000 0.000000
    24 2.686395 -0.427337 0.044204 0.001045 0.043611 0.000046
    25 1.435260 0.000000 0.000001 0.000000 0.000000 1.037856
    26 1.482593 0.000000 -0.000001 0.000000 0.000000 1.142584
    27 2.046984 0.000001 0.000000 0.771615 -0.159791 -0.321245
    28 -0.000005 0.000007 3.713254 -0.108110 -3.063380 5.835904
    29 18.045723 0.000000 0.000000 0.000000 0.000000 -0.423388
    30 17.597597 0.000000 0.000000 -0.060775 -0.016082 -0.024629
    31 0.000005 -0.000003 -3.713254 0.558230 3.015874 -0.023634
    32 18.045721 0.000000 0.000000 0.000000 0.000000 -0.545466
    33 17.597597 0.000000 0.000000 0.061531 0.086200 0.460182
  time 3
    0 -0.045911 3.308846 1.540585 0.000000 0.000000 -1.571017
    1 -0.523457 0.285165 0.000000 -1.570795 -1.570787 0.000000
    2 1.293670 0.684478 -0.000001 -0.066625 -0.005490 -0.037539
    3 5.309685 -0.003834 0.000000 -0.236367 0.012548 0.033784
    4 4.826790 -0.004591 0.000000 -0.175122 -0.109168 0.101322
    5 5.792767 -0.005304 0.000000 -0.176586 0.097063 0.142291
    6 6.662322 -0.001452 0.000000 0.000000 -0.000001 0.607825
    7 -2.877712 1.926992 4.339626 0.913188 -1.250499 -4.638207
    8 4.827512 0.000000 -0.000002 -0.762656 0.554016 -0.402519
    9 11.140032 0.000000 0.000000 0.000000 0.000000 -2.026131
    10 10.314563 -0.000001 0.000001 -1.440193 -0.242330 -0.015198
    11 1.646836 0.445664 -1.699647 0.153911 0.442352 0.277231
    12 0.928312 0.000000 0.000000 0.000000 0.000000 0.000000
    13 0.928313 0.000000 -0.000001 0.000000 0.000000 0.000000
    14 2.979373 -0.388274 -0.044205 -0.019118 -0.039225 0.435970
    15 1.435262 -0.000001 -0.000001 0.000000 0.000000 0.331863
    16 1.482593 -0.000001 0.000001 0.000000 0.000000 0.338551
    17 -2.662861 1.766866 -4.140396 2.519965 1.474800 -1.228338
    18 4.972047 0.000000 0.000000 1.256197 0.446853 -0.531362
    19 11.585358 0.000000 0.000001 0.000000 0.000000 -2.086739
    20 10.127058 0.000000 0.000001 2.344972 0.033476 0.972671
    21 1.537458 0.109715 1.664489 -0.344506 -0.327833 0.740676
    22 0.928313 0.000000 0.000002 0.000000 0.000000 0.000000
    23 0.928311 0.000000 0.000001 0.000000 0.000000 0.000000
    24 2.686395 -0.427337 0.044204 0.001045 0.043611 0.000046
    25 1.435260 0.000000 0.000001 0.000000 0.000000 1.037923
    26 1.482593 0.000000 -0.000001 0.000000 0.000000 1.142584
    27 2.046984 0.000001 0.000000 0.641031 -0.085265 -0.339797
    28 -0.000005 0.000007 3.713254 -0.108686 -3.066544 5.835712
    29 18.045723 0.000000 0.000000 0.000000 0.000000 -0.416208
    30 17.597597 0.000000 0.000000 -0.061611 -0.012956 -0.031644
    31 0.000005 -0.000003 -3.713254 0.557368 3.011656 6.253129
    32 18.045721 0.000000 0.000000 0.000000 0.000000 -0.551291
    33 17.597597 0.000000 0.000000 0.061531 0.086477 0.458473
  time 4
    0 0.032216 3.445569 1.540585 0.000000 0.000000 -1.571017
    1 -0.523457 0.285165 0.000000 -1.570795 -1.570787 0.000000
    2 1.293670 0.684478 -0.000001 -0.067703 -0.022484 -0.022974
    3 5.309685 -0.003834 0.000000 -0.198215 0.035906 0.040655
    4 4.826790 -0.004591 0.000000 -0.141017 -0.106723 0.128838
    5 5.792767 -0.005304 0.000000 -0.125626 0.126342 0.211327
    6 6.662322 -0.001452 0.000000 0.000000 -0.000001 0.568976
    7 -2.951933 1.809801 4.339626 0.766054 -1.296568 -4.458548
    8 4.827512 0.000000 -0.000002 -0.889645 0.371531 -0.760731
    9 11.140032 0.000000 0.000000 0.000000 0.000000 -1.923392
    10 10.314563 -0.000001 0.000001 -1.452988 -0.377780 -0.025824
    11 1.646836 0.445664 -1.699647 0.153911 0.442352 0.277231
    12 0.928312 0.000000 0.000000 0.000000 0.000000 0.000000
    13 0.928313 0.000000 -0.000001 0.000000 0.000000 0.000000
    14 2.979373 -0.388274 -0.044205 -0.018183 -0.039656 0.411911
    15 1.435262 -0.000001 -0.000001 0.000000 0.000000 0.252083
    16 1.482593 -0.000001 0.000001 0.000000 0.000000 0.295865
    17 -2.725363 1.669207 -4.140396 -1.334362 1.614140 -5.045468
    18 4.972047 0.000000 0.000000 1.028360 0.388921 -0.644373
    19 11.585358 0.000000 0.000001 0.000000 0.000000 -2.118757
    20 10.127058 0.000000 0.000001 2.444548 -0.000567 1.182862
    21 1.537458 0.109715 1.664489 -0.344506 -0.327833 0.740676
    22 0.928313 0.000000 0.000002 0.000000 0.000000 0.000000
    23 0.928311 0.000000 0.000001 0.000000 0.000000 0.000000
    24 2.686395 -0.427337 0.044204 0.001045 0.043611 0.000046
    25 1.435260 0.000000 0.000001 0.000000 0.000000 1.037856
    26 1.482593 0.000000 -0.000001 0.000000 0.000000 1.142584
    27 2.046984 0.000001 0.000000 0.540949 -0.015460 -0.363156
    28 -0.000005 0.000007 3.713254 -0.109165 -3.069324 5.835904
    29 18.045723 0.000000 0.000000 0.000000 0.000000 -0.407919
    30 17.597597 0.000000 0.000000 -0.062295 -0.010298 -0.039438
    31 0.000005 -0.000003 -3.713254 0.556697 3.007821 6.246609
    32 18.045721 0.000000 0.000000 0.000000 0.000000 -0.557195
    33 17.597597 0.000000 0.000000 0.061497 0.086260 0.456764
  time 5
    0 0.102531 3.558853 1.540585 0.000000 0.000000 -1.571017
    1 -0.523457 0.285165 0.000000 -1.570795 -1.570787 0.000000
    2 1.293670 0.684478 -0.000001 -0.068831 -0.034025 -0.009531
    3 5.309685 -0.003834 0.000000 -0.171141 0.054206 0.045230
    4 4.826790 -0.004591 0.000000 -0.118185 -0.106675 0.150049
    5 5.792767 -0.005304 0.000000 -0.090155 0.145313 0.266224
    6 6.662322 -0.001452 0.000000 0.000000 -0.000001 0.532292
    7 -3.014435 1.704329 4.339626 0.567255 -1.334890 -4.229446
    8 4.827512 0.000000 -0.000002 -0.742328 0.154680 -1.094249
    9 11.140032 0.000000 0.000000 0.000000 0.000000 -1.658575
    10 10.314563 -0.000001 0.000001 -1.474881 -0.549669 -0.045043
    11 1.646836 0.445664 -1.699647 0.153911 0.442352 0.277231
    12 0.928312 0.000000 0.000000 0.000000 0.000000 0.000000
    13 0.928313 0.000000 -0.000001 0.000000 0.000000 0.000000
    14 2.979373 -0.388274 -0.044205 -0.012514 -0.041789 0.272900
    15 1.435262 -0.000001 -0.000001 0.000000 0.000000 0.124409
    16 1.482593 -0.000001 0.000001 0.000000 0.000000 0.295063
    17 -2.783959 1.563735 -4.140396 0.360945 1.496490 -3.314623
    18 4.972047 0.000000 0.000000 0.750810 0.318696 -0.806103
    19 11.585358 0.000000 0.000001 0.000000 0.000000 -2.229842
    20 10.127058 0.000000 0.000001 2.524349 -0.103926 1.383798
    21 1.537458 0.109715 1.664489 -0.344506 -0.327833 0.740676
    22 0.928313 0.000000 0.000002 0.000000 0.000000 0.000000
    23 0.928311 0.000000 0.000001 0.000000 0.000000 0.000000
    24 2.686395 -0.427337 0.044204 0.001045 0.043611 0.000046
    25 1.435260 0.000000 0.000001 0.000000 0.000000 1.037923
    26 1.482593 0.000000 -0.000001 0.000000 0.000000 1.142584
    27 2.046984 0.000001 0.000000 0.482486 0.039653 -0.373497
    28 -0.000005 0.000007 3.713254 -0.109549 -3.071721 5.836095
    29 18.045723 0.000000 0.000000 0.000000 0.000000 -0.401406
    30 17.597597 0.000000 0.000000 -0.062929 -0.008034 -0.045352
    31 0.000005 -0.000003 -3.713254 0.555930 3.004754 6.241528
    32 18.045721 0.000000 0.000000 0.000000 0.000000 -0.561682
    33 17.597597 0.000000 0.000000 0.061464 0.086260 0.455332
  time 6
    0 0.168939 3.601823 1.540585 0.000000 0.000000 -1.571017
    1 -0.523457 0.285165 0.000000 -1.570795 -1.570787 0.000000
    2 1.293670 0.684478 -0.000001 -0.069674 -0.038567 0.002204
    3 5.309685 -0.003834 0.000000 -0.158276 0.066047 0.045919
    4 4.826790 -0.004591 0.000000 -0.110402 -0.107706 0.163851
    5 5.792767 -0.005304 0.000000 -0.076682 0.155943 0.300877
    6 6.662322 -0.001452 0.000000 0.000000 -0.000001 0.499197
    7 -3.069124 1.598857 4.339626 0.307110 -1.361265 -3.942470
    8 4.827512 0.000000 -0.000002 -0.447375 0.009118 -1.365811
    9 11.140032 0.000000 0.000000 0.000000 0.000000 -1.353546
    10 10.314563 -0.000001 0.000001 -1.496395 -0.674534 -0.054623
    11 1.646836 0.445664 -1.699647 0.153911 0.442352 0.277231
    12 0.928312 0.000000 0.000000 0.000000 0.000000 0.000000
    13 0.928313 0.000000 -0.000001 0.000000 0.000000 0.000000
    14 2.979373 -0.388274 -0.044205 -0.007505 -0.043000 0.155299
    15 1.435262 -0.000001 -0.000001 0.000000 0.000000 0.089973
    16 1.482593 -0.000001 0.000001 0.000000 0.000000 0.348541
    17 -2.834742 1.469982 -4.140396 0.076547 1.425480 -3.565951
    18 4.972047 0.000000 0.000000 0.470352 0.211429 -0.959247
    19 11.585358 0.000000 0.000001 0.000000 0.000000 -2.362653
    20 10.127058 0.000000 0.000001 2.570912 -0.232060 1.555822
    21 1.537458 0.109715 1.664489 -0.344506 -0.327833 0.740676
    22 0.928313 0.000000 0.000002 0.000000 0.000000 0.000000
    23 0.928311 0.000000 0.000001 0.000000 0.000000 0.000000
    24 2.686395 -0.427337 0.044204 0.001045 0.043611 0.000046
    25 1.435260 0.000000 0.000001 0.000000 0.000000 1.037923
    26 1.482593 0.000000 -0.000001 0.000000 0.000000 1.142584
    27 2.046984 0.000001 0.000000 0.471112 0.073169 -0.354761
    28 -0.000005 0.000007 3.713254 -0.110028 -3.073830 5.835999
    29 18.045723 0.000000 0.000000 0.000000 0.000000 -0.399333
    30 17.597597 0.000000 0.000000 -0.063512 -0.005992 -0.047369
    31 0.000005 -0.000003 -3.713254 0.555355 3.002261 6.239515
    32 18.045721 0.000000 0.000000 0.000000 0.000000 -0.563335
    33 17.597597 0.000000 0.000000 0.061565 0.087285 0.454131
  time 7
    0 0.243160 3.582292 1.540585 0.000000 0.000000 -1.571017
    1 -0.523457 0.285165 0.000000 -1.570795 -1.570787 0.000000
    2 1.293670 0.684478 -0.000001 -0.070095 -0.037800 0.011914
    3 5.309685 -0.003834 0.000000 -0.156540 0.072471 0.043464
    4 4.826790 -0.004591 0.000000 -0.114141 -0.107382 0.171590
    5 5.792767 -0.005304 0.000000 -0.080423 0.162140 0.318214
    6 6.662322 -0.001452 0.000000 0.000000 -0.000001 0.471000
    7 -3.108188 1.516823 4.339626 -0.000100 -1.370787 -3.613335
    8 4.827512 0.000000 -0.000002 -0.282680 0.002637 -1.390766
    9 11.140032 0.000000 0.000000 0.000000 0.000000 -1.273992
    10 10.314563 -0.000001 0.000001 -1.478388 -0.514354 -0.005386
    11 1.646836 0.445664 -1.699647 0.153911 0.442352 0.277231
    12 0.928312 0.000000 0.000000 0.000000 0.000000 0.000000
    13 0.928313 0.000000 -0.000001 0.000000 0.000000 0.000000
    14 2.979373 -0.388274 -0.044205 -0.018183 -0.039656 0.411911
    15 1.435262 -0.000001 -0.000001 0.000000 0.000000 0.570828
    16 1.482593 -0.000001 0.000001 0.000000 0.000000 0.530452
    17 -2.869899 1.399667 -4.140396 0.000026 1.370769 -3.613362
    18 4.972047 0.000000 0.000000 0.249738 0.091548 -1.048963
    19 11.585358 0.000000 0.000001 0.000000 0.000000 -2.459852
    20 10.127058 0.000000 0.000001 -0.549745 -2.802692 -1.454975
    21 1.537458 0.109715 1.664489 -0.344506 -0.327833 0.740676
    22 0.928313 0.000000 0.000002 0.000000 0.000000 0.000000
    23 0.928311 0.000000 0.000001 0.000000 0.000000 0.000000
    24 2.686395 -0.427337 0.044204 0.001045 0.043611 0.000046
    25 1.435260 0.000000 0.000001 0.000000 0.000000 1.037856
    26 1.482593 0.000000 -0.000001 0.000000 0.000000 1.142584
    27 2.046984 0.000001 0.000000 0.491576 0.082964 -0.309566
    28 -0.000005 0.000007 3.713254 -0.110220 -3.075747 5.835424
    29 18.045723 0.000000 0.000000 0.000000 0.000000 -0.401332
    30 17.597597 0.000000 0.000000 -0.064094 -0.003998 -0.045673
    31 0.000005 -0.000003 -3.713254 0.554972 3.000248 6.240090
    32 18.045721 0.000000 0.000000 0.000000 0.000000 -0.563020
    33 17.597597 0.000000 0.000000 0.061866 0.089356 0.453115
  time 8
    0 0.325194 3.531509 1.540585 0.000000 0.000000 -1.571017
    1 -0.523457 0.285165 0.000000 -1.570795 -1.570787 0.000000
    2 1.293670 0.684478 -0.000001 -0.069994 -0.034792 0.015597
    3 5.309685 -0.003834 0.000000 -0.161237 0.072794 0.040602
    4 4.826790 -0.004591 0.000000 -0.120874 -0.095038 0.171678
    5 5.792767 -0.005304 0.000000 -0.090442 0.167700 0.317861
    6 6.662322 -0.001452 0.000000 0.000000 -0.000001 0.459778
    7 -3.119907 1.485572 4.339626 -0.000100 -1.370787 -3.602220
    8 4.827512 0.000000 -0.000002 -0.251112 0.035126 -1.350387
    9 11.140032 0.000000 0.000000 0.000000 0.000000 -1.305002
    10 10.314563 -0.000001 0.000001 -1.517720 -0.549575 0.036942
    11 1.646836 0.445664 -1.699647 0.153911 0.442352 0.277231
    12 0.928312 0.000000 0.000000 0.000000 0.000000 0.000000
    13 0.928313 0.000000 -0.000001 0.000000 0.000000 0.000000
    14 2.979373 -0.388274 -0.044205 -0.018183 -0.039656 0.411911
    15 1.435262 -0.000001 -0.000001 0.000000 0.000000 0.570828
    16 1.482593 -0.000001 0.000001 0.000000 0.000000 0.530452
    17 -2.877712 1.368416 -4.140396 -0.016310 1.353155 -3.618055
    18 4.972047 0.000000 0.000000 0.138305 0.031928 -1.058214
    19 11.585358 0.000000 0.000001 0.000000 0.000000 -2.495465
    20 10.127058 0.000000 0.000001 -0.552550 -2.747845 -1.396900
    21 1.537458 0.109715 1.664489 -0.344506 -0.327833 0.740676
    22 0.928313 0.000000 0.000002 0.000000 0.000000 0.000000
    23 0.928311 0.000000 0.000001 0.000000 0.000000 0.000000
    24 2.686395 -0.427337 0.044204 0.001045 0.043611 0.000046
    25 1.435260 0.000000 0.000001 0.000000 0.000000 1.037856
    26 1.482593 0.000000 -0.000001 0.000000 0.000000 1.142584
    27 2.046984 0.000001 0.000000 0.503036 0.045052 -0.249589
    28 -0.000005 0.000007 3.713254 -0.110603 -3.077665 5.834753
    29 18.045723 0.000000 0.000000 0.000000 0.000000 -0.405846
    30 17.597597 0.000000 0.000000 -0.064652 -0.002079 -0.041638
    31 0.000005 -0.000003 -3.713254 0.554780 2.998522 6.242295
    32 18.045721 0.000000 0.000000 0.000000 0.000000 -0.561052
    33 17.597597 0.000000 0.000000 0.062202 0.092058 0.452191
  time 9
    0 0.395509 3.465100 1.540585 0.000000 0.000000 -1.571017
    1 -0.523457 0.285165 0.000000 -1.570795 -1.570787 0.000000
    2 1.293670 0.684478 -0.000001 -0.069640 -0.031952 0.013454
    3 5.309685 -0.003834 0.000000 -0.167584 0.069055 0.038995
    4 4.826790 -0.004591 0.000000 -0.125414 -0.069798 0.165703
    5 5.792767 -0.005304 0.000000 -0.098807 0.174316 0.306192
    6 6.662322 -0.001452 0.000000 0.000000 -0.000001 0.465389
    7 -3.116000 1.505104 4.339626 -0.000100 -1.370787 -3.607777
    8 4.827512 0.000000 -0.000002 -0.227117 0.090383 -1.314774
    9 11.140032 0.000000 0.000000 0.000000 0.000000 -1.336085
    10 10.314563 -0.000001 0.000001 -1.559611 -0.583297 0.081709
    11 1.646836 0.445664 -1.699647 0.153911 0.442352 0.277231
    12 0.928312 0.000000 0.000000 0.000000 0.000000 0.000000
    13 0.928313 0.000000 -0.000001 0.000000 0.000000 0.000000
    14 2.979373 -0.388274 -0.044205 -0.018183 -0.039656 0.411911
    15 1.435262 -0.000001 -0.000001 0.000000 0.000000 0.570828
    16 1.482593 -0.000001 0.000001 0.000000 0.000000 0.530452
    17 -2.877712 1.384042 -4.140396 -0.008476 1.361988 -3.615948
    18 4.972047 0.000000 0.000000 0.102005 0.036669 -1.025136
    19 11.585358 0.000000 0.000001 0.000000 0.000000 -2.501509
    20 10.127058 0.000000 0.000001 -0.573938 -2.726379 -1.393898
    21 1.537458 0.109715 1.664489 -0.344506 -0.327833 0.740676
    22 0.928313 0.000000 0.000002 0.000000 0.000000 0.000000
    23 0.928311 0.000000 0.000001 0.000000 0.000000 0.000000
    24 2.686395 -0.427337 0.044204 0.001045 0.043611 0.000046
    25 1.435260 0.000000 0.000001 0.000000 0.000000 1.037856
    26 1.482593 0.000000 -0.000001 0.000000 0.000000 1.142584
    27 2.046984 0.000001 0.000000 0.483218 -0.032041 -0.186327
    28 -0.000005 0.000007 3.713254 -0.110795 -3.079582 5.833986
    29 18.045723 0.000000 0.000000 0.000000 0.000000 -0.410879
    30 17.597597 0.000000 0.000000 -0.065184 -0.000159 -0.037191
    31 0.000005 -0.000003 -3.713254 0.554493 2.996988 6.245075
    32 18.045721 0.000000 0.000000 0.000000 0.000000 -0.558612
    33 17.597597 0.000000 0.000000 0.062571 0.094898 0.451314
  time 10
    0 0.469730 3.426037 1.540585 0.000000 0.000000 -1.571017
    1 -0.523457 0.285165 0.000000 -1.570795 -1.570787 0.000000
    2 1.293670 0.684478 -0.000001 -0.069455 -0.030670 0.011412
    3 5.309685 -0.003834 0.000000 -0.170766 0.066610 0.038518
    4 4.826790 -0.004591 0.000000 -0.126291 -0.043959 0.160874
    5 5.792767 -0.005304 0.000000 -0.101703 0.182058 0.298697
    6 6.662322 -0.001452 0.000000 0.000000 -0.000001 0.471000
    7 -3.108188 1.516823 4.339626 -0.000100 -1.370787 -3.613335
    8 4.827512 0.000000 -0.000002 -0.200332 0.140780 -1.291378
    9 11.140032 0.000000 0.000000 0.000000 0.000000 -1.367095
    10 10.314563 -0.000001 0.000001 -1.604061 -0.615427 0.129147
    11 1.646836 0.445664 -1.699647 0.153911 0.442352 0.277231
    12 0.928312 0.000000 0.000000 0.000000 0.000000 0.000000
    13 0.928313 0.000000 -0.000001 0.000000 0.000000 0.000000
    14 2.979373 -0.388274 -0.044205 -0.018183 -0.039656 0.411911
    15 1.435262 -0.000001 -0.000001 0.000000 0.000000 0.570828
    16 1.482593 -0.000001 0.000001 0.000000 0.000000 0.530452
    17 -2.869899 1.399667 -4.140396 0.000026 1.370769 -3.613362
    18 4.972047 0.000000 0.000000 0.073678 0.049605 -0.983473
    19 11.585358 0.000000 0.000001 0.000000 0.000000 -2.507717
    20 10.127058 0.000000 0.000001 -0.596237 -2.705385 -1.389797
    21 1.537458 0.109715 1.664489 -0.344506 -0.327833 0.740676
    22 0.928313 0.000000 0.000002 0.000000 0.000000 0.000000
    23 0.928311 0.000000 0.000001 0.000000 0.000000 0.000000
    24 2.686395 -0.427337 0.044204 0.001045 0.043611 0.000046
    25 1.435260 0.000000 0.000001 0.000000 0.000000 1.037856
    26 1.482593 0.000000 -0.000001 0.000000 0.000000 1.142584
    27 2.046984 0.000001 0.000000 0.446942 -0.102082 -0.128174
    28 -0.000005 0.000007 3.713254 -0.111178 -3.081500 5.833411
    29 18.045723 0.000000 0.000000 0.000000 0.000000 -0.414728
    30 17.597597 0.000000 0.000000 -0.065742 0.001711 -0.033752
    31 0.000005 -0.000003 -3.713254 0.554205 2.995263 6.246993
    32 18.045721 0.000000 0.000000 0.000000 0.000000 -0.556880
    33 17.597597 0.000000 0.000000 0.062873 0.097423 0.450390
end
