version 1
nodes
  0 "Bip01" -1
  1 "Bip01 Pelvis" 0
  2 "Bip01 Spine" 1
  3 "Bip01 Spine1" 2
  4 "Bip01 Spine2" 3
  5 "Bip01 Spine3" 4
  6 "Bip01 Neck" 5
  7 "Bip01 L Arm" 6
  8 "Bip01 L Arm1" 7
  9 "Bip01 L Arm2" 8
  10 "Bip01 L Hand" 9
  11 "Bip01 L Finger0" 10
  12 "Bip01 L Finger01" 11
  13 "Bip01 L Finger02" 12
  14 "Bip01 L Finger1" 10
  15 "Bip01 L Finger11" 14
  16 "Bip01 L Finger12" 15
  17 "Bip01 R Arm" 6
  18 "Bip01 R Arm1" 17
  19 "Bip01 R Arm2" 18
  20 "Bip01 R Hand" 19
  21 "Bip01 R Finger0" 20
  22 "Bip01 R Finger01" 21
  23 "Bip01 R Finger02" 22
  24 "Bip01 R Finger1" 20
  25 "Bip01 R Finger11" 24
  26 "Bip01 R Finger12" 25
  27 "Bip01 Head" 6
  28 "Bip01 L Leg" 1
  29 "Bip01 L Leg1" 28
  30 "Bip01 L Foot" 29
  31 "Bip01 R Leg" 1
  32 "Bip01 R Leg1" 31
  33 "Bip01 R Foot" 32
end
skeleton
  time 0
    0 0.282224 2.429913 0.368674 0.000000 0.000000 -1.571017
    1 -1.507863 -0.281259 0.000000 -1.570795 -1.570787 0.000000
    2 1.293670 0.684478 -0.000001 -0.551953 0.031363 -0.004057
    3 5.309685 -0.003834 0.000000 -0.205311 -0.043276 0.045512
    4 4.826790 -0.004591 0.000000 -0.067542 -0.104889 -0.099119
    5 5.792767 -0.005304 0.000000 -0.266398 -0.074940 -0.072895
    6 6.662322 -0.001452 0.000000 0.000000 -0.000001 0.471000
    7 -3.108188 1.516823 4.339626 -0.064417 -1.201976 -3.553352
    8 4.827512 0.000000 -0.000002 -0.173149 -0.008363 -0.255126
    9 11.140032 0.000000 0.000000 0.000000 0.000000 -0.843112
    10 10.314563 -0.000001 0.000001 -1.569942 -0.058545 -0.069778
    11 1.646836 0.445664 -1.699647 0.153911 0.442352 0.277231
    12 0.928312 0.000000 0.000000 0.000000 0.000000 0.000000
    13 0.928313 0.000000 -0.000001 0.000000 0.000000 0.000000
    14 2.979373 -0.388274 -0.044205 -0.038161 -0.021140 1.047514
    15 1.435262 -0.000001 -0.000001 0.000000 0.000000 0.924803
    16 1.482593 -0.000001 0.000001 0.000000 0.000000 1.326263
    17 -2.869899 1.399667 -4.140396 -1.424067 1.753453 -5.034836
    18 4.972047 0.000000 0.000000 0.847610 -0.333903 -0.468734
    19 11.585358 0.000000 0.000001 0.000000 0.000000 -1.829774
    20 10.127058 0.000000 0.000001 2.195538 0.447950 -0.520872
    21 1.537458 0.109715 1.664489 -0.264662 -0.055995 0.783079
    22 0.928313 0.000000 0.000002 0.000000 0.000000 -0.453501
    23 0.928311 0.000000 0.000001 0.000000 0.000000 0.000000
    24 2.686395 -0.427337 0.044204 0.016613 0.040339 0.366921
    25 1.435260 0.000000 0.000001 0.000000 0.000000 0.994402
    26 1.482593 0.000000 -0.000001 0.000000 0.000000 1.168644
    27 2.046984 0.000001 0.000000 0.995517 0.522772 -0.502028
    28 -0.000005 0.000007 3.713254 -0.101975 -3.041233 5.740619
    29 18.045723 0.000000 0.000000 0.000000 0.000000 -0.302374
    30 17.597597 0.000000 0.000000 -0.052869 -0.025507 -0.242448
    31 0.000005 -0.000003 -3.713254 0.808954 2.838616 6.143933
    32 18.045721 0.000000 0.000000 0.000000 0.000000 -0.800985
    33 17.597597 0.000000 0.000000 0.176277 0.096851 0.488172
  time 1
    0 0.250973 2.078339 0.368674 0.000000 0.000000 -1.571017
    1 -1.507863 -0.281259 0.000000 -1.570795 -1.570787 0.000000
    2 1.293670 0.684478 -0.000001 -0.492593 0.035665 0.034481
    3 5.309685 -0.003834 0.000000 -0.004271 -0.050935 0.100393
    4 4.826790 -0.004591 0.000000 0.185288 -0.077744 -0.190112
    5 5.792767 -0.005304 0.000000 0.061158 -0.031579 -0.210241
    6 6.662322 -0.001452 0.000000 0.000000 -0.000001 0.471000
    7 -3.108188 1.516823 4.339626 -0.064417 -1.201976 -3.553352
    8 4.827512 0.000000 -0.000002 0.185896 0.431990 -0.330859
    9 11.140032 0.000000 0.000000 0.000000 0.000000 -1.159661
    10 10.314563 -0.000001 0.000001 -1.569942 -0.036157 -0.069778
    11 1.646836 0.445664 -1.699647 0.153911 0.442352 0.277231
    12 0.928312 0.000000 0.000000 0.000000 0.000000 0.000000
    13 0.928313 0.000000 -0.000001 0.000000 0.000000 0.000000
    14 2.979373 -0.388274 -0.044205 -0.038161 -0.021140 1.047514
    15 1.435262 -0.000001 -0.000001 0.000000 0.000000 0.924803
    16 1.482593 -0.000001 0.000001 0.000000 0.000000 1.326263
    17 -2.869899 1.399667 -4.140396 -1.551888 1.657861 -5.165289
    18 4.972047 0.000000 0.000000 1.399896 0.512499 0.115955
    19 11.585358 0.000000 0.000001 0.000000 0.000000 -1.265693
    20 10.127058 0.000000 0.000001 2.305703 0.513294 -0.517071
    21 1.537458 0.109715 1.664489 -0.264662 -0.055995 0.783079
    22 0.928313 0.000000 0.000002 0.000000 0.000000 -0.453501
    23 0.928311 0.000000 0.000001 0.000000 0.000000 0.000000
    24 2.686395 -0.427337 0.044204 0.012598 0.041765 0.269950
    25 1.435260 0.000000 0.000001 0.000000 0.000000 1.031102
    26 1.482593 0.000000 -0.000001 0.000000 0.000000 1.168644
    27 2.046984 0.000001 0.000000 0.306492 0.209563 -0.241742
    28 -0.000005 0.000007 3.713254 -0.100345 -3.037589 5.727391
    29 18.045723 0.000000 0.000000 0.000000 0.000000 -0.348189
    30 17.597597 0.000000 0.000000 -0.052007 -0.027648 -0.210126
    31 0.000005 -0.000003 -3.713254 0.809912 2.841972 6.157259
    32 18.045721 0.000000 0.000000 0.000000 0.000000 -0.793979
    33 17.597597 0.000000 0.000000 0.177015 0.104287 0.492606
  time 2
    0 0.524419 2.578355 0.368674 0.000000 0.000000 -1.571017
    1 -1.507863 -0.281259 0.000000 -1.570795 -1.570787 0.000000
    2 1.293670 0.684478 -0.000001 -0.432659 0.036708 0.073119
    3 5.309685 -0.003834 0.000000 0.195696 -0.070409 0.152466
    4 4.826790 -0.004591 0.000000 0.421562 -0.079662 -0.120396
    5 5.792767 -0.005304 0.000000 0.177665 -0.002505 -0.072480
    6 6.662322 -0.001452 0.000000 0.000000 -0.000001 0.471000
    7 -3.108188 1.516823 4.339626 -0.064417 -1.201976 -3.553352
    8 4.827512 0.000000 -0.000002 0.229182 0.576443 -0.397753
    9 11.140032 0.000000 0.000000 0.000000 0.000000 -1.487368
    10 10.314563 -0.000001 0.000001 -1.569942 -0.013676 -0.069778
    11 1.646836 0.445664 -1.699647 0.153911 0.442352 0.277231
    12 0.928312 0.000000 0.000000 0.000000 0.000000 0.000000
    13 0.928313 0.000000 -0.000001 0.000000 0.000000 0.000000
    14 2.979373 -0.388274 -0.044205 -0.038161 -0.021140 1.047514
    15 1.435262 -0.000001 -0.000001 0.000000 0.000000 0.924803
    16 1.482593 -0.000001 0.000001 0.000000 0.000000 1.326263
    17 -2.869899 1.399667 -4.140396 -0.269851 1.546153 -3.883175
    18 4.972047 0.000000 0.000000 1.054623 0.122723 -1.008564
    19 11.585358 0.000000 0.000001 0.000000 0.000000 -1.288318
    20 10.127058 0.000000 0.000001 2.418813 0.571829 -0.515420
    21 1.537458 0.109715 1.664489 -0.264662 -0.055995 0.783079
    22 0.928313 0.000000 0.000002 0.000000 0.000000 -0.453501
    23 0.928311 0.000000 0.000001 0.000000 0.000000 0.000000
    24 2.686395 -0.427337 0.044204 0.008499 0.042784 0.172951
    25 1.435260 0.000000 0.000001 0.000000 0.000000 1.067735
    26 1.482593 0.000000 -0.000001 0.000000 0.000000 1.168644
    27 2.046984 0.000001 0.000000 -0.181336 0.199591 -0.184198
    28 -0.000005 0.000007 3.713254 -0.103413 -3.049094 5.743591
    29 18.045723 0.000000 0.000000 0.000000 0.000000 -0.288755
    30 17.597597 0.000000 0.000000 -0.055783 -0.018469 -0.252259
    31 0.000005 -0.000003 -3.713254 0.806174 2.830563 6.137989
    32 18.045721 0.000000 0.000000 0.000000 0.000000 -0.803189
    33 17.597597 0.000000 0.000000 0.176713 0.098567 0.480689
  time 3
    0 0.336913 3.328378 0.368674 0.000000 0.000000 -1.571017
    1 -1.507863 -0.281259 0.000000 -1.570795 -1.570787 0.000000
    2 1.293670 0.684478 -0.000001 -0.349278 0.037487 0.112025
    3 5.309685 -0.003834 0.000000 0.358549 -0.098106 0.188058
    4 4.826790 -0.004591 0.000000 0.597046 -0.105285 -0.032930
    5 5.792767 -0.005304 0.000000 0.237654 0.002445 0.128110
    6 6.662322 -0.001452 0.000000 0.000000 -0.000001 0.471000
    7 -3.108188 1.516823 4.339626 -0.064417 -1.201976 -3.553352
    8 4.827512 0.000000 -0.000002 0.181671 0.532101 -0.509705
    9 11.140032 0.000000 0.000000 0.000000 0.000000 -1.784571
    10 10.314563 -0.000001 0.000001 -1.569942 0.000000 -0.069778
    11 1.646836 0.445664 -1.699647 0.153911 0.442352 0.277231
    12 0.928312 0.000000 0.000000 0.000000 0.000000 0.000000
    13 0.928313 0.000000 -0.000001 0.000000 0.000000 0.000000
    14 2.979373 -0.388274 -0.044205 -0.038161 -0.021140 1.047514
    15 1.435262 -0.000001 -0.000001 0.000000 0.000000 0.924803
    16 1.482593 -0.000001 0.000001 0.000000 0.000000 1.326263
    17 -2.869899 1.399667 -4.140396 -1.216954 1.346582 -4.821917
    18 4.972047 0.000000 0.000000 1.480281 0.122964 -0.787800
    19 11.585358 0.000000 0.000001 0.000000 0.000000 -0.383142
    20 10.127058 0.000000 0.000001 1.775916 0.231588 -0.389916
    21 1.537458 0.109715 1.664489 -0.264662 -0.055995 0.783079
    22 0.928313 0.000000 0.000002 0.000000 0.000000 -0.453501
    23 0.928311 0.000000 0.000001 0.000000 0.000000 0.000000
    24 2.686395 -0.427337 0.044204 0.005971 0.043227 0.113528
    25 1.435260 0.000000 0.000001 0.000000 0.000000 1.090194
    26 1.482593 0.000000 -0.000001 0.000000 0.000000 1.168644
    27 2.046984 0.000001 0.000000 -0.538752 0.327105 -0.354640
    28 -0.000005 0.000007 3.713254 -0.108877 -3.053696 5.809446
    29 18.045723 0.000000 0.000000 0.000000 0.000000 -0.115487
    30 17.597597 0.000000 0.000000 -0.054972 -0.020807 -0.360000
    31 0.000005 -0.000003 -3.713254 0.805887 2.831714 6.111050
    32 18.045721 0.000000 0.000000 0.000000 0.000000 -0.815784
    33 17.597597 0.000000 0.000000 0.175539 0.077621 0.476255
  time 4
    0 -0.342795 3.996367 0.368674 0.000000 0.000000 -1.571017
    1 -1.507863 -0.281259 0.000000 -1.570795 -1.570787 0.000000
    2 1.293670 0.684478 -0.000001 -0.187468 0.036372 0.172896
    3 5.309685 -0.003834 0.000000 0.429545 -0.127971 0.193534
    4 4.826790 -0.004591 0.000000 0.617875 -0.132070 0.035530
    5 5.792767 -0.005304 0.000000 0.288703 -0.020110 0.390343
    6 6.662322 -0.001452 0.000000 0.000000 -0.000001 0.471000
    7 -3.108188 1.516823 4.339626 -0.071223 -1.197068 -3.547124
    8 4.827512 0.000000 -0.000002 -0.005664 0.350639 -0.608747
    9 11.140032 0.000000 0.000000 0.000000 0.000000 -2.026421
    10 10.314563 -0.000001 0.000001 -1.569942 0.005246 -0.069778
    11 1.646836 0.445664 -1.699647 0.153911 0.442352 0.277231
    12 0.928312 0.000000 0.000000 0.000000 0.000000 0.000000
    13 0.928313 0.000000 -0.000001 0.000000 0.000000 0.000000
    14 2.979373 -0.388274 -0.044205 -0.038161 -0.021140 1.047514
    15 1.435262 -0.000001 -0.000001 0.000000 0.000000 0.924803
    16 1.482593 -0.000001 0.000001 0.000000 0.000000 1.326263
    17 -2.869899 1.399667 -4.140396 -1.292233 1.049789 -4.865688
    18 4.972047 0.000000 0.000000 1.149360 -0.435384 -0.429732
    19 11.585358 0.000000 0.000001 0.000000 0.000000 -0.682989
    20 10.127058 0.000000 0.000001 2.190559 0.079339 -0.153414
    21 1.537458 0.109715 1.664489 -0.264662 -0.055995 0.783079
    22 0.928313 0.000000 0.000002 0.000000 0.000000 -0.453501
    23 0.928311 0.000000 0.000001 0.000000 0.000000 0.000000
    24 2.686395 -0.427337 0.044204 0.005084 0.043335 0.093078
    25 1.435260 0.000000 0.000001 0.000000 0.000000 1.097913
    26 1.482593 0.000000 -0.000001 0.000000 0.000000 1.168644
    27 2.046984 0.000001 0.000000 -0.722113 0.413668 -0.707994
    28 -0.000005 0.000007 3.713254 -0.110507 -3.039795 5.831877
    29 18.045723 0.000000 0.000000 0.000000 0.000000 -0.035181
    30 17.597597 0.000000 0.000000 -0.048181 -0.035597 -0.419922
    31 0.000005 -0.000003 -3.713254 0.810966 2.848682 6.089384
    32 18.045721 0.000000 0.000000 0.000000 0.000000 -0.824443
    33 17.597597 0.000000 0.000000 0.173593 0.048647 0.482906
  time 5
    0 -0.987346 4.320595 0.368674 0.000000 0.000000 -1.571017
    1 -1.507863 -0.281259 0.000000 -1.570795 -1.570787 0.000000
    2 1.293670 0.684478 -0.000001 -0.052610 0.027623 0.226216
    3 5.309685 -0.003834 0.000000 0.456295 -0.151557 0.190337
    4 4.826790 -0.004591 0.000000 0.589760 -0.151761 0.085998
    5 5.792767 -0.005304 0.000000 0.243158 -0.032970 0.612111
    6 6.662322 -0.001452 0.000000 0.000000 -0.000001 0.471000
    7 -3.108188 1.516823 4.339626 -0.085313 -1.186187 -3.534285
    8 4.827512 0.000000 -0.000002 -0.257330 0.209681 -0.531628
    9 11.140032 0.000000 0.000000 0.000000 0.000000 -2.212046
    10 10.314563 -0.000001 0.000001 -1.569942 0.008149 -0.069778
    11 1.646836 0.445664 -1.699647 0.153911 0.442352 0.277231
    12 0.928312 0.000000 0.000000 0.000000 0.000000 0.000000
    13 0.928313 0.000000 -0.000001 0.000000 0.000000 0.000000
    14 2.979373 -0.388274 -0.044205 -0.038161 -0.021140 1.047514
    15 1.435262 -0.000001 -0.000001 0.000000 0.000000 0.924803
    16 1.482593 -0.000001 0.000001 0.000000 0.000000 1.326263
    17 -2.869899 1.399667 -4.140396 -1.334554 0.811703 -4.863868
    18 4.972047 0.000000 0.000000 0.915895 -0.254598 -0.225807
    19 11.585358 0.000000 0.000001 0.000000 0.000000 -0.782557
    20 10.127058 0.000000 0.000001 2.647838 -0.087377 -0.047869
    21 1.537458 0.109715 1.664489 -0.264662 -0.055995 0.783079
    22 0.928313 0.000000 0.000002 0.000000 0.000000 -0.453501
    23 0.928311 0.000000 0.000001 0.000000 0.000000 0.000000
    24 2.686395 -0.427337 0.044204 0.004736 0.043371 0.085674
    25 1.435260 0.000000 0.000001 0.000000 0.000000 1.100775
    26 1.482593 0.000000 -0.000001 0.000000 0.000000 1.168644
    27 2.046984 0.000001 0.000000 -0.680667 0.484683 -0.952647
    28 -0.000005 0.000007 3.713254 -0.111370 -3.024167 5.840313
    29 18.045723 0.000000 0.000000 0.000000 0.000000 -0.001800
    30 17.597597 0.000000 0.000000 -0.040985 -0.050363 -0.446926
    31 0.000005 -0.000003 -3.713254 0.817292 2.866993 6.080851
    32 18.045721 0.000000 0.000000 0.000000 0.000000 -0.826096
    33 17.597597 0.000000 0.000000 0.171614 0.028351 0.492098
  time 6
    0 -1.104537 4.523727 0.368674 0.000000 0.000000 -1.571017
    1 -1.507863 -0.281259 0.000000 -1.570795 -1.570787 0.000000
    2 1.293670 0.684478 -0.000001 -0.034721 0.026545 0.249888
    3 5.309685 -0.003834 0.000000 0.481566 -0.163458 0.198462
    4 4.826790 -0.004591 0.000000 0.613965 -0.155692 0.088446
    5 5.792767 -0.005304 0.000000 -0.042199 0.040172 0.642757
    6 6.662322 -0.001452 0.000000 0.000000 -0.000001 0.471000
    7 -3.108188 1.516823 4.339626 -0.098828 -1.175246 -3.522211
    8 4.827512 0.000000 -0.000002 -0.458934 0.197317 -0.264225
    9 11.140032 0.000000 0.000000 0.000000 0.000000 -2.260735
    10 10.314563 -0.000001 0.000001 -1.569942 0.009274 -0.069778
    11 1.646836 0.445664 -1.699647 0.153911 0.442352 0.277231
    12 0.928312 0.000000 0.000000 0.000000 0.000000 0.000000
    13 0.928313 0.000000 -0.000001 0.000000 0.000000 0.000000
    14 2.979373 -0.388274 -0.044205 -0.038161 -0.021140 1.047514
    15 1.435262 -0.000001 -0.000001 0.000000 0.000000 0.924803
    16 1.482593 -0.000001 0.000001 0.000000 0.000000 1.326263
    17 -2.869899 1.399667 -4.140396 -1.344584 0.770611 -4.865018
    18 4.972047 0.000000 0.000000 0.847235 -0.213620 -0.422078
    19 11.585358 0.000000 0.000001 0.000000 0.000000 -0.652849
    20 10.127058 0.000000 0.000001 2.666701 -0.250217 0.040269
    21 1.537458 0.109715 1.664489 -0.264662 -0.055995 0.783079
    22 0.928313 0.000000 0.000002 0.000000 0.000000 -0.453501
    23 0.928311 0.000000 0.000001 0.000000 0.000000 0.000000
    24 2.686395 -0.427337 0.044204 0.004832 0.043359 0.087658
    25 1.435260 0.000000 0.000001 0.000000 0.000000 1.099976
    26 1.482593 0.000000 -0.000001 0.000000 0.000000 1.168644
    27 2.046984 0.000001 0.000000 -0.362543 0.560979 -0.823082
    28 -0.000005 0.000007 3.713254 -0.110891 -3.021291 5.835137
    29 18.045723 0.000000 0.000000 0.000000 0.000000 -0.001800
    30 17.597597 0.000000 0.000000 -0.039844 -0.052381 -0.452473
    31 0.000005 -0.000003 -3.713254 0.818250 2.869869 6.074332
    32 18.045721 0.000000 0.000000 0.000000 0.000000 -0.827749
    33 17.597597 0.000000 0.000000 0.171077 0.021271 0.491497
  time 7
    0 -0.913125 4.465131 0.368674 0.000000 0.000000 -1.571017
    1 -1.507863 -0.281259 0.000000 -1.570795 -1.570787 0.000000
    2 1.293670 0.684478 -0.000001 -0.077085 0.029469 0.228275
    3 5.309685 -0.003834 0.000000 0.458474 -0.156303 0.193021
    4 4.826790 -0.004591 0.000000 0.598820 -0.154961 0.082427
    5 5.792767 -0.005304 0.000000 -0.299658 0.090520 0.575008
    6 6.662322 -0.001452 0.000000 0.000000 -0.000001 0.471000
    7 -3.108188 1.516823 4.339626 -0.104675 -1.170249 -3.516846
    8 4.827512 0.000000 -0.000002 -0.469696 0.275939 -0.069868
    9 11.140032 0.000000 0.000000 0.000000 0.000000 -2.181761
    10 10.314563 -0.000001 0.000001 -1.569942 0.007868 -0.069778
    11 1.646836 0.445664 -1.699647 0.153911 0.442352 0.277231
    12 0.928312 0.000000 0.000000 0.000000 0.000000 0.000000
    13 0.928313 0.000000 -0.000001 0.000000 0.000000 0.000000
    14 2.979373 -0.388274 -0.044205 -0.038161 -0.021140 1.047514
    15 1.435262 -0.000001 -0.000001 0.000000 0.000000 0.924803
    16 1.482593 -0.000001 0.000001 0.000000 0.000000 1.326263
    17 -2.869899 1.399667 -4.140396 -1.337037 0.810310 -4.866646
    18 4.972047 0.000000 0.000000 0.664515 -0.313735 -0.744007
    19 11.585358 0.000000 0.000001 0.000000 0.000000 -0.505008
    20 10.127058 0.000000 0.000001 2.601766 -0.339580 0.102496
    21 1.537458 0.109715 1.664489 -0.264662 -0.055995 0.783079
    22 0.928313 0.000000 0.000002 0.000000 0.000000 -0.453501
    23 0.928311 0.000000 0.000001 0.000000 0.000000 0.000000
    24 2.686395 -0.427337 0.044204 0.005192 0.043323 0.095397
    25 1.435260 0.000000 0.000001 0.000000 0.000000 1.097048
    26 1.482593 0.000000 -0.000001 0.000000 0.000000 1.168644
    27 2.046984 0.000001 0.000000 -0.040455 0.520500 -0.606106
    28 -0.000005 0.000007 3.713254 -0.111083 -3.026564 5.836479
    29 18.045723 0.000000 0.000000 0.000000 0.000000 -0.001800
    30 17.597597 0.000000 0.000000 -0.042100 -0.047877 -0.450410
    31 0.000005 -0.000003 -3.713254 0.816238 2.864021 6.075387
    32 18.045721 0.000000 0.000000 0.000000 0.000000 -0.828064
    33 17.597597 0.000000 0.000000 0.171614 0.026438 0.488264
  time 8
    0 -0.596709 3.426037 0.368674 0.000000 0.000000 -1.571017
    1 -1.507863 -0.281259 0.000000 -1.570795 -1.570787 0.000000
    2 1.293670 0.684478 -0.000001 -0.176789 0.018599 0.097025
    3 5.309685 -0.003834 0.000000 0.323852 -0.115268 0.133619
    4 4.826790 -0.004591 0.000000 0.449525 -0.163614 0.115653
    5 5.792767 -0.005304 0.000000 -0.190490 0.039489 0.517765
    6 6.662322 -0.001452 0.000000 0.000000 -0.000001 0.471000
    7 -3.108188 1.516823 4.339626 -0.096432 -1.177227 -3.524319
    8 4.827512 0.000000 -0.000002 -0.075416 0.603561 -0.036507
    9 11.140032 0.000000 0.000000 0.000000 0.000000 -2.042288
    10 10.314563 -0.000001 0.000001 -1.569942 0.004965 -0.069778
    11 1.646836 0.445664 -1.699647 0.153911 0.442352 0.277231
    12 0.928312 0.000000 0.000000 0.000000 0.000000 0.000000
    13 0.928313 0.000000 -0.000001 0.000000 0.000000 0.000000
    14 2.979373 -0.388274 -0.044205 -0.038161 -0.021140 1.047514
    15 1.435262 -0.000001 -0.000001 0.000000 0.000000 0.924803
    16 1.482593 -0.000001 0.000001 0.000000 0.000000 1.326263
    17 -2.869899 1.399667 -4.140396 -1.271311 1.057939 -4.843659
    18 4.972047 0.000000 0.000000 0.101912 -0.540722 -1.082241
    19 11.585358 0.000000 0.000001 0.000000 0.000000 -0.546093
    20 10.127058 0.000000 0.000001 2.622804 -0.118394 -0.037064
    21 1.537458 0.109715 1.664489 -0.264662 -0.055995 0.783079
    22 0.928313 0.000000 0.000002 0.000000 0.000000 -0.453501
    23 0.928311 0.000000 0.000001 0.000000 0.000000 0.000000
    24 2.686395 -0.427337 0.044204 0.005587 0.043263 0.105231
    25 1.435260 0.000000 0.000001 0.000000 0.000000 1.093355
    26 1.482593 0.000000 -0.000001 0.000000 0.000000 1.168644
    27 2.046984 0.000001 0.000000 0.000129 0.404581 -0.529705
    28 -0.000005 0.000007 3.713254 -0.113384 -3.033850 5.863032
    29 18.045723 0.000000 0.000000 0.000000 0.000000 -0.001800
    30 17.597597 0.000000 0.000000 -0.044482 -0.044137 -0.423269
    31 0.000005 -0.000003 -3.713254 0.814992 2.858652 6.110475
    32 18.045721 0.000000 0.000000 0.000000 0.000000 -0.816650
    33 17.597597 0.000000 0.000000 0.172956 0.056733 0.496208
  time 9
    0 -0.319357 2.301002 0.368674 0.000000 0.000000 -1.571017
    1 -1.507863 -0.281259 0.000000 -1.570795 -1.570787 0.000000
    2 1.293670 0.684478 -0.000001 -0.260759 -0.004244 -0.020145
    3 5.309685 -0.003834 0.000000 0.166138 -0.077349 0.069305
    4 4.826790 -0.004591 0.000000 0.274270 -0.155955 0.132983
    5 5.792767 -0.005304 0.000000 -0.040436 -0.008797 0.429544
    6 6.662322 -0.001452 0.000000 0.000000 -0.000001 0.471000
    7 -3.108188 1.516823 4.339626 -0.064417 -1.201976 -3.553352
    8 4.827512 0.000000 -0.000002 0.167083 0.990788 -0.197504
    9 11.140032 0.000000 0.000000 0.000000 0.000000 -1.846229
    10 10.314563 -0.000001 0.000001 -1.569942 0.000000 -0.069778
    11 1.646836 0.445664 -1.699647 0.153911 0.442352 0.277231
    12 0.928312 0.000000 0.000000 0.000000 0.000000 0.000000
    13 0.928313 0.000000 -0.000001 0.000000 0.000000 0.000000
    14 2.979373 -0.388274 -0.044205 -0.038161 -0.021140 1.047514
    15 1.435262 -0.000001 -0.000001 0.000000 0.000000 0.924803
    16 1.482593 -0.000001 0.000001 0.000000 0.000000 1.326263
    17 -2.869899 1.399667 -4.140396 -1.038978 1.356914 -4.642041
    18 4.972047 0.000000 0.000000 -0.548769 -0.637704 -1.197981
    19 11.585358 0.000000 0.000001 0.000000 0.000000 -0.986021
    20 10.127058 0.000000 0.000001 2.612846 0.133714 -0.184677
    21 1.537458 0.109715 1.664489 -0.264662 -0.055995 0.783079
    22 0.928313 0.000000 0.000002 0.000000 0.000000 -0.453501
    23 0.928311 0.000000 0.000001 0.000000 0.000000 0.000000
    24 2.686395 -0.427337 0.044204 0.005971 0.043227 0.113528
    25 1.435260 0.000000 0.000001 0.000000 0.000000 1.090194
    26 1.482593 0.000000 -0.000001 0.000000 0.000000 1.168644
    27 2.046984 0.000001 0.000000 0.020809 0.250986 -0.481103
    28 -0.000005 0.000007 3.713254 -0.099865 -3.024550 5.744837
    29 18.045723 0.000000 0.000000 0.000000 0.000000 -0.300227
    30 17.597597 0.000000 0.000000 -0.046205 -0.041430 -0.242448
    31 0.000005 -0.000003 -3.713254 0.814417 2.856927 6.150261
    32 18.045721 0.000000 0.000000 0.000000 0.000000 -0.798466
    33 17.597597 0.000000 0.000000 0.175304 0.087897 0.503137
  time 10
    0 0.008778 1.957242 0.368674 0.000000 0.000000 -1.571017
    1 -1.507863 -0.281259 0.000000 -1.570795 -1.570787 0.000000
    2 1.293670 0.684478 -0.000001 -0.249204 -0.010943 -0.042059
    3 5.309685 -0.003834 0.000000 0.054591 -0.052780 0.037723
    4 4.826790 -0.004591 0.000000 0.143668 -0.123993 0.099514
    5 5.792767 -0.005304 0.000000 -0.062094 -0.009624 0.322948
    6 6.662322 -0.001452 0.000000 0.000000 -0.000001 0.471000
    7 -3.108188 1.516823 4.339626 0.030957 -1.259311 -3.642942
    8 4.827512 0.000000 -0.000002 -0.223929 0.790736 -0.874590
    9 11.140032 0.000000 0.000000 0.000000 0.000000 -1.576485
    10 10.314563 -0.000001 0.000001 -1.569942 -0.009648 -0.069778
    11 1.646836 0.445664 -1.699647 0.153911 0.442352 0.277231
    12 0.928312 0.000000 0.000000 0.000000 0.000000 0.000000
    13 0.928313 0.000000 -0.000001 0.000000 0.000000 0.000000
    14 2.979373 -0.388274 -0.044205 -0.038161 -0.021140 1.047514
    15 1.435262 -0.000001 -0.000001 0.000000 0.000000 0.924803
    16 1.482593 -0.000001 0.000001 0.000000 0.000000 1.326263
    17 -2.869899 1.399667 -4.140396 1.008842 1.319871 -2.618971
    18 4.972047 0.000000 0.000000 -0.880253 -0.813187 -0.488700
    19 11.585358 0.000000 0.000001 0.000000 0.000000 -1.765002
    20 10.127058 0.000000 0.000001 2.574418 -0.006998 -0.101792
    21 1.537458 0.109715 1.664489 -0.264662 -0.055995 0.783079
    22 0.928313 0.000000 0.000002 0.000000 0.000000 -0.453501
    23 0.928311 0.000000 0.000001 0.000000 0.000000 0.000000
    24 2.686395 -0.427337 0.044204 0.007852 0.042940 0.157697
    25 1.435260 0.000000 0.000001 0.000000 0.000000 1.073491
    26 1.482593 0.000000 -0.000001 0.000000 0.000000 1.168644
    27 2.046984 0.000001 0.000000 0.172935 0.138224 -0.476480
    28 -0.000005 0.000007 3.713254 -0.098811 -3.030399 5.726816
    29 18.045723 0.000000 0.000000 0.000000 0.000000 -0.355442
    30 17.597597 0.000000 0.000000 -0.049271 -0.034440 -0.204303
    31 0.000005 -0.000003 -3.713254 0.812404 2.849833 6.162244
    32 18.045721 0.000000 0.000000 0.000000 0.000000 -0.791775
    33 17.597597 0.000000 0.000000 0.176713 0.102117 0.499349
  time 11
    0 0.325194 1.773643 0.368674 0.000000 0.000000 -1.571017
    1 -1.507863 -0.281259 0.000000 -1.570795 -1.570787 0.000000
    2 1.293670 0.684478 -0.000001 -0.177985 -0.011147 -0.044838
    3 5.309685 -0.003834 0.000000 -0.051392 -0.029278 0.004798
    4 4.826790 -0.004591 0.000000 0.009289 -0.080057 0.045165
    5 5.792767 -0.005304 0.000000 -0.122389 -0.004027 0.205638
    6 6.662322 -0.001452 0.000000 0.000000 -0.000001 0.471000
    7 -3.108188 1.516823 4.339626 0.269152 -1.340242 -3.875781
    8 4.827512 0.000000 -0.000002 -0.235169 0.383640 -1.043992
    9 11.140032 0.000000 0.000000 0.000000 0.000000 -1.380064
    10 10.314563 -0.000001 0.000001 -1.569942 -0.024823 -0.069778
    11 1.646836 0.445664 -1.699647 0.153911 0.442352 0.277231
    12 0.928312 0.000000 0.000000 0.000000 0.000000 0.000000
    13 0.928313 0.000000 -0.000001 0.000000 0.000000 0.000000
    14 2.979373 -0.388274 -0.044205 -0.038161 -0.021140 1.047514
    15 1.435262 -0.000001 -0.000001 0.000000 0.000000 0.924803
    16 1.482593 -0.000001 0.000001 0.000000 0.000000 1.326263
    17 -2.869899 1.399667 -4.140396 1.323906 0.954145 -2.342071
    18 4.972047 0.000000 0.000000 -0.395314 -0.550043 -0.235257
    19 11.585358 0.000000 0.000001 0.000000 0.000000 -2.047124
    20 10.127058 0.000000 0.000001 2.499596 -0.156315 -0.010903
    21 1.537458 0.109715 1.664489 -0.264662 -0.055995 0.783079
    22 0.928313 0.000000 0.000002 0.000000 0.000000 -0.453501
    23 0.928311 0.000000 0.000001 0.000000 0.000000 0.000000
    24 2.686395 -0.427337 0.044204 0.010753 0.042305 0.225390
    25 1.435260 0.000000 0.000001 0.000000 0.000000 1.047938
    26 1.482593 0.000000 -0.000001 0.000000 0.000000 1.168644
    27 2.046984 0.000001 0.000000 0.358105 0.085590 -0.517600
    28 -0.000005 0.000007 3.713254 -0.099194 -3.037589 5.717517
    29 18.045723 0.000000 0.000000 0.000000 0.000000 -0.384530
    30 17.597597 0.000000 0.000000 -0.052565 -0.026861 -0.183581
    31 0.000005 -0.000003 -3.713254 0.810200 2.841972 6.168476
    32 18.045721 0.000000 0.000000 0.000000 0.000000 -0.787603
    33 17.597597 0.000000 0.000000 0.177720 0.112571 0.493622
  time 12
    0 0.579108 1.679890 0.368674 0.000000 0.000000 -1.571017
    1 -1.507863 -0.281259 0.000000 -1.570795 -1.570787 0.000000
    2 1.293670 0.684478 -0.000001 -0.082981 -0.005826 -0.040703
    3 5.309685 -0.003834 0.000000 -0.155757 -0.010546 -0.030900
    4 4.826790 -0.004591 0.000000 -0.126520 -0.035295 -0.023648
    5 5.792767 -0.005304 0.000000 -0.197200 -0.004063 0.082743
    6 6.662322 -0.001452 0.000000 0.000000 -0.000001 0.471000
    7 -3.108188 1.516823 4.339626 0.783691 -1.401036 -4.389846
    8 4.827512 0.000000 -0.000002 -0.245931 0.406919 -0.818354
    9 11.140032 0.000000 0.000000 0.000000 0.000000 -1.416725
    10 10.314563 -0.000001 0.000001 -1.569942 -0.042246 -0.069778
    11 1.646836 0.445664 -1.699647 0.153911 0.442352 0.277231
    12 0.928312 0.000000 0.000000 0.000000 0.000000 0.000000
    13 0.928313 0.000000 -0.000001 0.000000 0.000000 0.000000
    14 2.979373 -0.388274 -0.044205 -0.038161 -0.021140 1.047514
    15 1.435262 -0.000001 -0.000001 0.000000 0.000000 0.924803
    16 1.482593 -0.000001 0.000001 0.000000 0.000000 1.326263
    17 -2.869899 1.399667 -4.140396 1.382563 0.898461 -2.281346
    18 4.972047 0.000000 0.000000 0.123298 -0.490343 -0.639847
    19 11.585358 0.000000 0.000001 0.000000 0.000000 -1.921827
    20 10.127058 0.000000 0.000001 2.437746 0.028275 -0.110345
    21 1.537458 0.109715 1.664489 -0.264662 -0.055995 0.783079
    22 0.928313 0.000000 0.000002 0.000000 0.000000 -0.453501
    23 0.928311 0.000000 0.000001 0.000000 0.000000 0.000000
    24 2.686395 -0.427337 0.044204 0.013725 0.041442 0.296463
    25 1.435260 0.000000 0.000001 0.000000 0.000000 1.021087
    26 1.482593 0.000000 -0.000001 0.000000 0.000000 1.168644
    27 2.046984 0.000001 0.000000 0.562835 0.100253 -0.561701
    28 -0.000005 0.000007 3.713254 -0.099865 -3.044205 5.712245
    29 18.045723 0.000000 0.000000 0.000000 0.000000 -0.400665
    30 17.597597 0.000000 0.000000 -0.055327 -0.020241 -0.171935
    31 0.000005 -0.000003 -3.713254 0.808379 2.835165 6.171735
    32 18.045721 0.000000 0.000000 0.000000 0.000000 -0.784769
    33 17.597597 0.000000 0.000000 0.178357 0.120066 0.488172
  time 13
    0 0.735363 1.582231 0.368674 0.000000 0.000000 -1.571017
    1 -1.507863 -0.281259 0.000000 -1.570795 -1.570787 0.000000
    2 1.293670 0.684478 -0.000001 -0.000004 -0.000001 -0.040837
    3 5.309685 -0.003834 0.000000 -0.261773 0.000204 -0.069796
    4 4.826790 -0.004591 0.000000 -0.261757 -0.000180 -0.097355
    5 5.792767 -0.005304 0.000000 -0.261380 -0.014753 -0.038512
    6 6.662322 -0.001452 0.000000 0.000000 -0.000001 0.471000
    7 -3.108188 1.516823 4.339626 1.427248 -1.394412 -5.038344
    8 4.827512 0.000000 -0.000002 -0.157285 0.595374 -0.426174
    9 11.140032 0.000000 0.000000 0.000000 0.000000 -1.508886
    10 10.314563 -0.000001 0.000001 -1.569942 -0.058545 -0.069778
    11 1.646836 0.445664 -1.699647 0.153911 0.442352 0.277231
    12 0.928312 0.000000 0.000000 0.000000 0.000000 0.000000
    13 0.928313 0.000000 -0.000001 0.000000 0.000000 0.000000
    14 2.979373 -0.388274 -0.044205 -0.038161 -0.021140 1.047514
    15 1.435262 -0.000001 -0.000001 0.000000 0.000000 0.924803
    16 1.482593 -0.000001 0.000001 0.000000 0.000000 1.326263
    17 -2.869899 1.399667 -4.140396 1.270791 1.204745 -2.362472
    18 4.972047 0.000000 0.000000 0.436210 -0.642605 -0.789331
    19 11.585358 0.000000 0.000001 0.000000 0.000000 -2.021395
    20 10.127058 0.000000 0.000001 2.352686 0.275749 -0.245204
    21 1.537458 0.109715 1.664489 -0.264662 -0.055995 0.783079
    22 0.928313 0.000000 0.000002 0.000000 0.000000 -0.453501
    23 0.928311 0.000000 0.000001 0.000000 0.000000 0.000000
    24 2.686395 -0.427337 0.044204 0.016613 0.040339 0.366921
    25 1.435260 0.000000 0.000001 0.000000 0.000000 0.994402
    26 1.482593 0.000000 -0.000001 0.000000 0.000000 1.168644
    27 2.046984 0.000001 0.000000 0.769418 0.172625 -0.565533
    28 -0.000005 0.000007 3.713254 -0.100345 -3.047752 5.708602
    29 18.045723 0.000000 0.000000 0.000000 0.000000 -0.413544
    30 17.597597 0.000000 0.000000 -0.056847 -0.016574 -0.162308
    31 0.000005 -0.000003 -3.713254 0.807516 2.831618 6.175187
    32 18.045721 0.000000 0.000000 0.000000 0.000000 -0.782250
    33 17.597597 0.000000 0.000000 0.178794 0.125233 0.485354
end
