version 1
nodes
  0 "Bip01" -1
  1 "Bip01 Pelvis" 0
  2 "Bip01 Spine" 1
  3 "Bip01 Spine1" 2
  4 "Bip01 Spine2" 3
  5 "Bip01 Spine3" 4
  6 "Bip01 Neck" 5
  7 "Bip01 L Arm" 6
  8 "Bip01 L Arm1" 7
  9 "Bip01 L Arm2" 8
  10 "Bip01 L Hand" 9
  11 "Bip01 L Finger0" 10
  12 "Bip01 L Finger01" 11
  13 "Bip01 L Finger02" 12
  14 "Bip01 L Finger1" 10
  15 "Bip01 L Finger11" 14
  16 "Bip01 L Finger12" 15
  17 "Bip01 R Arm" 6
  18 "Bip01 R Arm1" 17
  19 "Bip01 R Arm2" 18
  20 "Bip01 R Hand" 19
  21 "Bip01 R Finger0" 20
  22 "Bip01 R Finger01" 21
  23 "Bip01 R Finger02" 22
  24 "Bip01 R Finger1" 20
  25 "Bip01 R Finger11" 24
  26 "Bip01 R Finger12" 25
  27 "Bip01 Head" 6
  28 "Bip01 L Leg" 1
  29 "Bip01 L Leg1" 28
  30 "Bip01 L Foot" 29
  31 "Bip01 R Leg" 1
  32 "Bip01 R Leg1" 31
  33 "Bip01 R Foot" 32
end
skeleton
  time 0
    0 0.407228 2.672108 0.368674 0.000000 0.000000 -1.571017
    1 -0.332045 -0.093753 0.000000 -1.570795 -1.570787 0.000000
    2 1.293670 0.684478 -0.000001 -0.000055 -0.085451 0.073889
    3 5.309685 -0.003834 0.000000 -0.043496 0.073202 0.051024
    4 4.826790 -0.004591 0.000000 -0.234042 0.048969 -0.086044
    5 5.792767 -0.005304 0.000000 -0.199412 0.115496 0.059053
    6 6.662322 -0.001452 0.000000 0.000000 -0.000001 0.471000
    7 -3.108188 1.516823 4.339626 0.139367 -1.189824 -3.742881
    8 4.827512 0.000000 -0.000002 1.026671 0.725502 -0.456328
    9 11.140032 0.000000 0.000000 0.000000 0.000000 -1.113798
    10 10.314563 -0.000001 0.000001 -1.063647 0.137698 -0.078778
    11 1.646836 0.445664 -1.699647 -0.161704 0.581044 -0.283978
    12 0.928312 0.000000 0.000000 0.000000 0.000000 0.000000
    13 0.928313 0.000000 -0.000001 0.000000 0.000000 0.000000
    14 2.979373 -0.388274 -0.044205 -0.001932 -0.043575 0.026189
    15 1.435262 -0.000001 -0.000001 0.000000 0.000000 0.784927
    16 1.482593 -0.000001 0.000001 0.000000 0.000000 0.540709
    17 -2.869899 1.399667 -4.140396 -1.429799 2.067939 -5.024013
    18 4.972047 0.000000 0.000000 -1.560480 -0.254839 -0.613891
    19 11.585358 0.000000 0.000001 0.000000 0.000000 -1.831326
    20 10.127058 0.000000 0.000001 1.663858 -0.105817 -0.762626
    21 1.537458 0.109715 1.664489 -0.264662 -0.055995 0.783079
    22 0.928313 0.000000 0.000002 0.000000 0.000000 -0.453501
    23 0.928311 0.000000 0.000001 0.000000 0.000000 0.000000
    24 2.686395 -0.427337 0.044204 -0.005762 0.043239 -0.157074
    25 1.435260 0.000000 0.000001 0.000000 0.000000 0.732613
    26 1.482593 0.000000 -0.000001 0.000000 0.000000 1.168644
    27 2.046984 0.000001 0.000000 -0.385980 0.137575 0.273417
    28 -0.000005 0.000007 3.713254 -0.099002 -3.043534 5.708123
    29 18.045723 0.000000 0.000000 0.000000 0.000000 -0.418947
    30 17.597597 0.000000 0.000000 -0.055606 -0.020757 -0.157860
    31 0.000005 -0.000003 -3.713254 0.808666 2.836315 6.178542
    32 18.045721 0.000000 0.000000 0.000000 0.000000 -0.780833
    33 17.597597 0.000000 0.000000 0.178928 0.124306 0.489511
  time 1
    0 0.040029 2.769767 0.368674 0.000000 0.000000 -1.571017
    1 -0.332045 -0.093753 0.000000 -1.570795 -1.570787 0.000000
    2 1.293670 0.684478 -0.000001 -0.000071 -0.054075 0.075078
    3 5.309685 -0.003834 0.000000 -0.035634 0.009504 0.058584
    4 4.826790 -0.004591 0.000000 -0.135027 -0.012056 -0.080642
    5 5.792767 -0.005304 0.000000 -0.097368 0.014549 0.083823
    6 6.662322 -0.001452 0.000000 0.000000 -0.000001 0.471000
    7 -3.108188 1.516823 4.339626 0.335482 -1.172999 -3.924265
    8 4.827512 0.000000 -0.000002 1.050825 0.541652 -0.399659
    9 11.140032 0.000000 0.000000 0.000000 0.000000 -1.340215
    10 10.314563 -0.000001 0.000001 -1.199271 0.135356 -0.087836
    11 1.646836 0.445664 -1.699647 -0.161704 0.581044 -0.283978
    12 0.928312 0.000000 0.000000 0.000000 0.000000 0.000000
    13 0.928313 0.000000 -0.000001 0.000000 0.000000 0.000000
    14 2.979373 -0.388274 -0.044205 -0.001932 -0.043575 0.026189
    15 1.435262 -0.000001 -0.000001 0.000000 0.000000 0.784927
    16 1.482593 -0.000001 0.000001 0.000000 0.000000 0.540709
    17 -2.869899 1.399667 -4.140396 -1.310288 1.933595 -4.906491
    18 4.972047 0.000000 0.000000 -1.637301 -0.322815 -0.557785
    19 11.585358 0.000000 0.000001 0.000000 0.000000 -1.844721
    20 10.127058 0.000000 0.000001 1.629217 -0.251351 -0.275116
    21 1.537458 0.109715 1.664489 -0.264662 -0.055995 0.783079
    22 0.928313 0.000000 0.000002 0.000000 0.000000 -0.453501
    23 0.928311 0.000000 0.000001 0.000000 0.000000 0.000000
    24 2.686395 -0.427337 0.044204 -0.005762 0.043239 -0.157074
    25 1.435260 0.000000 0.000001 0.000000 0.000000 0.732613
    26 1.482593 0.000000 -0.000001 0.000000 0.000000 1.168644
    27 2.046984 0.000001 0.000000 -0.346516 0.268098 0.019518
    28 -0.000005 0.000007 3.713254 -0.097564 -3.033946 5.714162
    29 18.045723 0.000000 0.000000 0.000000 0.000000 -0.400813
    30 17.597597 0.000000 0.000000 -0.051779 -0.030331 -0.171018
    31 0.000005 -0.000003 -3.713254 0.811350 2.846190 6.175474
    32 18.045721 0.000000 0.000000 0.000000 0.000000 -0.783667
    33 17.597597 0.000000 0.000000 0.177988 0.114642 0.497548
  time 2
    0 -0.350608 2.801018 0.368674 0.000000 0.000000 -1.571017
    1 -0.332045 -0.093753 0.000000 -1.570795 -1.570787 0.000000
    2 1.293670 0.684478 -0.000001 -0.000055 -0.022724 0.077120
    3 5.309685 -0.003834 0.000000 -0.028861 -0.054146 0.069553
    4 4.826790 -0.004591 0.000000 -0.036146 -0.073406 -0.081260
    5 5.792767 -0.005304 0.000000 0.001961 -0.088638 0.100537
    6 6.662322 -0.001452 0.000000 0.000000 -0.000001 0.471000
    7 -3.108188 1.516823 4.339626 0.587288 -1.133465 -4.155953
    8 4.827512 0.000000 -0.000002 0.967600 0.361213 -0.352695
    9 11.140032 0.000000 0.000000 0.000000 0.000000 -1.612205
    10 10.314563 -0.000001 0.000001 -1.456115 0.129268 -0.098113
    11 1.646836 0.445664 -1.699647 -0.161704 0.581044 -0.283978
    12 0.928312 0.000000 0.000000 0.000000 0.000000 0.000000
    13 0.928313 0.000000 -0.000001 0.000000 0.000000 0.000000
    14 2.979373 -0.388274 -0.044205 -0.001932 -0.043575 0.026189
    15 1.435262 -0.000001 -0.000001 0.000000 0.000000 0.784927
    16 1.482593 -0.000001 0.000001 0.000000 0.000000 0.540709
    17 -2.869899 1.399667 -4.140396 2.072685 1.334304 -1.528801
    18 4.972047 0.000000 0.000000 -1.634862 -0.398825 -0.476787
    19 11.585358 0.000000 0.000001 0.000000 0.000000 -1.859342
    20 10.127058 0.000000 0.000001 1.569191 -0.295418 0.153068
    21 1.537458 0.109715 1.664489 -0.264662 -0.055995 0.783079
    22 0.928313 0.000000 0.000002 0.000000 0.000000 -0.453501
    23 0.928311 0.000000 0.000001 0.000000 0.000000 0.000000
    24 2.686395 -0.427337 0.044204 -0.005762 0.043239 -0.157074
    25 1.435260 0.000000 0.000001 0.000000 0.000000 0.732613
    26 1.482593 0.000000 -0.000001 0.000000 0.000000 1.168644
    27 2.046984 0.000001 0.000000 -0.412605 0.375638 -0.268993
    28 -0.000005 0.000007 3.713254 -0.096126 -3.023783 5.719722
    29 18.045723 0.000000 0.000000 0.000000 0.000000 -0.387713
    30 17.597597 0.000000 0.000000 -0.047750 -0.040371 -0.179729
    31 0.000005 -0.000003 -3.713254 0.814512 2.857406 6.175283
    32 18.045721 0.000000 0.000000 0.000000 0.000000 -0.784533
    33 17.597597 0.000000 0.000000 0.177049 0.106299 0.506093
  time 3
    0 -0.510769 2.781486 0.368674 0.000000 0.000000 -1.571017
    1 -0.332045 -0.093753 0.000000 -1.570795 -1.570787 0.000000
    2 1.293670 0.684478 -0.000001 -0.000004 -0.003273 0.077505
    3 5.309685 -0.003834 0.000000 -0.023415 -0.087679 0.071796
    4 4.826790 -0.004591 0.000000 0.013619 -0.103978 -0.083729
    5 5.792767 -0.005304 0.000000 0.050240 -0.142089 0.103174
    6 6.662322 -0.001452 0.000000 0.000000 -0.000001 0.471000
    7 -3.108188 1.516823 4.339626 0.697711 -1.114156 -4.258383
    8 4.827512 0.000000 -0.000002 0.954527 0.303312 -0.368985
    9 11.140032 0.000000 0.000000 0.000000 0.000000 -1.671327
    10 10.314563 -0.000001 0.000001 -1.645194 0.127394 -0.099623
    11 1.646836 0.445664 -1.699647 -0.161704 0.581044 -0.283978
    12 0.928312 0.000000 0.000000 0.000000 0.000000 0.000000
    13 0.928313 0.000000 -0.000001 0.000000 0.000000 0.000000
    14 2.979373 -0.388274 -0.044205 -0.001932 -0.043575 0.026189
    15 1.435262 -0.000001 -0.000001 0.000000 0.000000 0.784927
    16 1.482593 -0.000001 0.000001 0.000000 0.000000 0.540709
    17 -2.869899 1.399667 -4.140396 2.940783 1.434103 -0.670897
    18 4.972047 0.000000 0.000000 -1.611506 -0.349169 -0.319849
    19 11.585358 0.000000 0.000001 0.000000 0.000000 -1.877475
    20 10.127058 0.000000 0.000001 1.646257 -0.122461 0.359557
    21 1.537458 0.109715 1.664489 -0.264662 -0.055995 0.783079
    22 0.928313 0.000000 0.000002 0.000000 0.000000 -0.453501
    23 0.928311 0.000000 0.000001 0.000000 0.000000 0.000000
    24 2.686395 -0.427337 0.044204 -0.005762 0.043239 -0.157074
    25 1.435260 0.000000 0.000001 0.000000 0.000000 0.732613
    26 1.482593 0.000000 -0.000001 0.000000 0.000000 1.168644
    27 2.046984 0.000001 0.000000 -0.439058 0.362214 -0.452696
    28 -0.000005 0.000007 3.713254 -0.095455 -3.019277 5.721639
    29 18.045723 0.000000 0.000000 0.000000 0.000000 -0.384530
    30 17.597597 0.000000 0.000000 -0.046002 -0.044776 -0.181609
    31 0.000005 -0.000003 -3.713254 0.816142 2.862391 6.176337
    32 18.045721 0.000000 0.000000 0.000000 0.000000 -0.783982
    33 17.597597 0.000000 0.000000 0.176613 0.103360 0.509880
  time 4
    0 -0.444361 2.781486 0.368674 0.000000 0.000000 -1.571017
    1 -0.332045 -0.093753 0.000000 -1.570795 -1.570787 0.000000
    2 1.293670 0.684478 -0.000001 -0.000004 0.003475 0.073889
    3 5.309685 -0.003834 0.000000 -0.017408 -0.089249 0.053708
    4 4.826790 -0.004591 0.000000 0.010853 -0.102169 -0.083200
    5 5.792767 -0.005304 0.000000 0.046157 -0.140879 0.092564
    6 6.662322 -0.001452 0.000000 0.000000 -0.000001 0.471000
    7 -3.108188 1.516823 4.339626 0.996485 -1.051440 -4.543538
    8 4.827512 0.000000 -0.000002 0.708600 0.412889 -0.371498
    9 11.140032 0.000000 0.000000 0.000000 0.000000 -1.616117
    10 10.314563 -0.000001 0.000001 -2.404731 0.135637 -0.102990
    11 1.646836 0.445664 -1.699647 -0.161704 0.581044 -0.283978
    12 0.928312 0.000000 0.000000 0.000000 0.000000 0.000000
    13 0.928313 0.000000 -0.000001 0.000000 0.000000 0.000000
    14 2.979373 -0.388274 -0.044205 -0.001932 -0.043575 0.026189
    15 1.435262 -0.000001 -0.000001 0.000000 0.000000 0.784927
    16 1.482593 -0.000001 0.000001 0.000000 0.000000 0.540709
    17 -2.869899 1.399667 -4.140396 3.674276 1.421589 0.055979
    18 4.972047 0.000000 0.000000 -1.508140 -0.320886 -0.250033
    19 11.585358 0.000000 0.000001 0.000000 0.000000 -1.859669
    20 10.127058 0.000000 0.000001 1.764767 0.134187 0.402676
    21 1.537458 0.109715 1.664489 -0.264662 -0.055995 0.783079
    22 0.928313 0.000000 0.000002 0.000000 0.000000 -0.453501
    23 0.928311 0.000000 0.000001 0.000000 0.000000 0.000000
    24 2.686395 -0.427337 0.044204 -0.005762 0.043239 -0.157074
    25 1.435260 0.000000 0.000001 0.000000 0.000000 0.732613
    26 1.482593 0.000000 -0.000001 0.000000 0.000000 1.168644
    27 2.046984 0.000001 0.000000 -0.329886 0.282171 -0.483110
    28 -0.000005 0.000007 3.713254 -0.095647 -3.020907 5.720681
    29 18.045723 0.000000 0.000000 0.000000 0.000000 -0.386677
    30 17.597597 0.000000 0.000000 -0.046661 -0.043128 -0.180234
    31 0.000005 -0.000003 -3.713254 0.815567 2.860474 6.176241
    32 18.045721 0.000000 0.000000 0.000000 0.000000 -0.783982
    33 17.597597 0.000000 0.000000 0.176814 0.104701 0.508494
  time 5
    0 -0.307638 2.789299 0.368674 0.000000 0.000000 -1.571017
    1 -0.332045 -0.093753 0.000000 -1.570795 -1.570787 0.000000
    2 1.293670 0.684478 -0.000001 -0.000038 0.005764 0.066138
    3 5.309685 -0.003834 0.000000 -0.010500 -0.079482 0.015378
    4 4.826790 -0.004591 0.000000 -0.010434 -0.088890 -0.081546
    5 5.792767 -0.005304 0.000000 0.024014 -0.120745 0.069808
    6 6.662322 -0.001452 0.000000 0.000000 -0.000001 0.471000
    7 -3.108188 1.516823 4.339626 1.207361 -0.966991 -4.751368
    8 4.827512 0.000000 -0.000002 0.452709 0.535171 -0.422015
    9 11.140032 0.000000 0.000000 0.000000 0.000000 -1.486498
    10 10.314563 -0.000001 0.000001 -3.137731 0.136761 -0.124590
    11 1.646836 0.445664 -1.699647 -0.161704 0.581044 -0.283978
    12 0.928312 0.000000 0.000000 0.000000 0.000000 0.000000
    13 0.928313 0.000000 -0.000001 0.000000 0.000000 0.000000
    14 2.979373 -0.388274 -0.044205 -0.001932 -0.043575 0.026189
    15 1.435262 -0.000001 -0.000001 0.000000 0.000000 0.784927
    16 1.482593 -0.000001 0.000001 0.000000 0.000000 0.540709
    17 -2.869899 1.399667 -4.140396 3.293677 1.489549 -0.320246
    18 4.972047 0.000000 0.000000 -1.141576 -0.474514 -0.429200
    19 11.585358 0.000000 0.000001 0.000000 0.000000 -1.766309
    20 10.127058 0.000000 0.000001 1.791063 0.448329 0.290727
    21 1.537458 0.109715 1.664489 -0.264662 -0.055995 0.783079
    22 0.928313 0.000000 0.000002 0.000000 0.000000 -0.453501
    23 0.928311 0.000000 0.000001 0.000000 0.000000 0.000000
    24 2.686395 -0.427337 0.044204 -0.005762 0.043239 -0.157074
    25 1.435260 0.000000 0.000001 0.000000 0.000000 0.732613
    26 1.482593 0.000000 -0.000001 0.000000 0.000000 1.168644
    27 2.046984 0.000001 0.000000 -0.165266 0.196818 -0.454885
    28 -0.000005 0.000007 3.713254 -0.096222 -3.024838 5.718764
    29 18.045723 0.000000 0.000000 0.000000 0.000000 -0.390377
    30 17.597597 0.000000 0.000000 -0.048181 -0.039313 -0.177896
    31 0.000005 -0.000003 -3.713254 0.814225 2.856160 6.175666
    32 18.045721 0.000000 0.000000 0.000000 0.000000 -0.784218
    33 17.597597 0.000000 0.000000 0.177150 0.107482 0.505215
  time 6
    0 -0.108413 2.789299 0.368674 0.000000 0.000000 -1.571017
    1 -0.332045 -0.093753 0.000000 -1.570795 -1.570787 0.000000
    2 1.293670 0.684478 -0.000001 -0.000055 0.005045 0.056244
    3 5.309685 -0.003834 0.000000 -0.004697 -0.061805 -0.033320
    4 4.826790 -0.004591 0.000000 -0.044081 -0.067917 -0.079694
    5 5.792767 -0.005304 0.000000 -0.011656 -0.089693 0.039972
    6 6.662322 -0.001452 0.000000 0.000000 -0.000001 0.471000
    7 -3.108188 1.516823 4.339626 1.301585 -0.899632 -4.845557
    8 4.827512 0.000000 -0.000002 0.226631 0.609189 -0.459361
    9 11.140032 0.000000 0.000000 0.000000 0.000000 -1.419116
    10 10.314563 -0.000001 0.000001 -3.520533 0.120837 -0.149963
    11 1.646836 0.445664 -1.699647 -0.161704 0.581044 -0.283978
    12 0.928312 0.000000 0.000000 0.000000 0.000000 0.000000
    13 0.928313 0.000000 -0.000001 0.000000 0.000000 0.000000
    14 2.979373 -0.388274 -0.044205 -0.001932 -0.043575 0.026189
    15 1.435262 -0.000001 -0.000001 0.000000 0.000000 0.784927
    16 1.482593 -0.000001 0.000001 0.000000 0.000000 0.540709
    17 -2.869899 1.399667 -4.140396 -1.456643 1.689882 -5.069317
    18 4.972047 0.000000 0.000000 -0.621744 -0.628062 -0.826868
    19 11.585358 0.000000 0.000001 0.000000 0.000000 -1.646321
    20 10.127058 0.000000 0.000001 1.693942 0.781005 0.045222
    21 1.537458 0.109715 1.664489 -0.264662 -0.055995 0.783079
    22 0.928313 0.000000 0.000002 0.000000 0.000000 -0.453501
    23 0.928311 0.000000 0.000001 0.000000 0.000000 0.000000
    24 2.686395 -0.427337 0.044204 -0.005762 0.043239 -0.157074
    25 1.435260 0.000000 0.000001 0.000000 0.000000 0.732613
    26 1.482593 0.000000 -0.000001 0.000000 0.000000 1.168644
    27 2.046984 0.000001 0.000000 0.014002 0.114562 -0.415043
    28 -0.000005 0.000007 3.713254 -0.097181 -3.030303 5.716367
    29 18.045723 0.000000 0.000000 0.000000 0.000000 -0.395336
    30 17.597597 0.000000 0.000000 -0.050335 -0.034022 -0.174732
    31 0.000005 -0.000003 -3.713254 0.812500 2.850312 6.175091
    32 18.045721 0.000000 0.000000 0.000000 0.000000 -0.784218
    33 17.597597 0.000000 0.000000 0.177619 0.111368 0.500689
  time 7
    0 0.125969 2.789299 0.368674 0.000000 0.000000 -1.571017
    1 -0.332045 -0.093753 0.000000 -1.570795 -1.570787 0.000000
    2 1.293670 0.684478 -0.000001 -0.000055 0.002851 0.044927
    3 5.309685 -0.003834 0.000000 -0.001089 -0.040053 -0.088855
    4 4.826790 -0.004591 0.000000 -0.083813 -0.043073 -0.078438
    5 5.792767 -0.005304 0.000000 -0.055672 -0.055285 0.004488
    6 6.662322 -0.001452 0.000000 0.000000 -0.000001 0.471000
    7 -3.108188 1.516823 4.339626 1.333888 -0.858206 -4.875261
    8 4.827512 0.000000 -0.000002 0.063212 0.648500 -0.446537
    9 11.140032 0.000000 0.000000 0.000000 0.000000 -1.432158
    10 10.314563 -0.000001 0.000001 -3.608864 0.105288 -0.177427
    11 1.646836 0.445664 -1.699647 -0.161704 0.581044 -0.283978
    12 0.928312 0.000000 0.000000 0.000000 0.000000 0.000000
    13 0.928313 0.000000 -0.000001 0.000000 0.000000 0.000000
    14 2.979373 -0.388274 -0.044205 -0.001932 -0.043575 0.026189
    15 1.435262 -0.000001 -0.000001 0.000000 0.000000 0.784927
    16 1.482593 -0.000001 0.000001 0.000000 0.000000 0.540709
    17 -2.869899 1.399667 -4.140396 1.362883 1.306095 -2.257688
    18 4.972047 0.000000 0.000000 -0.190927 -0.730588 -1.212689
    19 11.585358 0.000000 0.000001 0.000000 0.000000 -1.560720
    20 10.127058 0.000000 0.000001 1.479713 0.970890 -0.282370
    21 1.537458 0.109715 1.664489 -0.264662 -0.055995 0.783079
    22 0.928313 0.000000 0.000002 0.000000 0.000000 -0.453501
    23 0.928311 0.000000 0.000001 0.000000 0.000000 0.000000
    24 2.686395 -0.427337 0.044204 -0.005762 0.043239 -0.157074
    25 1.435260 0.000000 0.000001 0.000000 0.000000 0.732613
    26 1.482593 0.000000 -0.000001 0.000000 0.000000 1.168644
    27 2.046984 0.000001 0.000000 0.175218 0.043931 -0.405492
    28 -0.000005 0.000007 3.713254 -0.097948 -3.036343 5.713587
    29 18.045723 0.000000 0.000000 0.000000 0.000000 -0.401258
    30 17.597597 0.000000 0.000000 -0.052717 -0.027993 -0.170835
    31 0.000005 -0.000003 -3.713254 0.810679 2.843697 6.174707
    32 18.045721 0.000000 0.000000 0.000000 0.000000 -0.783982
    33 17.597597 0.000000 0.000000 0.178123 0.116003 0.495377
  time 8
    0 0.356445 2.777580 0.368674 0.000000 0.000000 -1.571017
    1 -0.332045 -0.093753 0.000000 -1.570795 -1.570787 0.000000
    2 1.293670 0.684478 -0.000001 -0.000021 0.000658 0.032907
    3 5.309685 -0.003834 0.000000 0.000102 -0.018181 -0.147781
    4 4.826790 -0.004591 0.000000 -0.123430 -0.018181 -0.078239
    5 5.792767 -0.005304 0.000000 -0.101883 -0.024197 -0.034318
    6 6.662322 -0.001452 0.000000 0.000000 -0.000001 0.471000
    7 -3.108188 1.516823 4.339626 1.367340 -0.810067 -4.906881
    8 4.827512 0.000000 -0.000002 -0.168525 0.682098 -0.492895
    9 11.140032 0.000000 0.000000 0.000000 0.000000 -1.389266
    10 10.314563 -0.000001 0.000001 -3.722880 0.080839 -0.202395
    11 1.646836 0.445664 -1.699647 -0.161704 0.581044 -0.283978
    12 0.928312 0.000000 0.000000 0.000000 0.000000 0.000000
    13 0.928313 0.000000 -0.000001 0.000000 0.000000 0.000000
    14 2.979373 -0.388274 -0.044205 -0.001932 -0.043575 0.026189
    15 1.435262 -0.000001 -0.000001 0.000000 0.000000 0.784927
    16 1.482593 -0.000001 0.000001 0.000000 0.000000 0.540709
    17 -2.869899 1.399667 -4.140396 1.276331 1.140544 -2.364675
    18 4.972047 0.000000 0.000000 -0.170198 -0.977582 -1.204836
    19 11.585358 0.000000 0.000001 0.000000 0.000000 -1.587838
    20 10.127058 0.000000 0.000001 1.463164 0.857886 -0.382012
    21 1.537458 0.109715 1.664489 -0.264662 -0.055995 0.783079
    22 0.928313 0.000000 0.000002 0.000000 0.000000 -0.453501
    23 0.928311 0.000000 0.000001 0.000000 0.000000 0.000000
    24 2.686395 -0.427337 0.044204 -0.005762 0.043239 -0.157074
    25 1.435260 0.000000 0.000001 0.000000 0.000000 0.732613
    26 1.482593 0.000000 -0.000001 0.000000 0.000000 1.168644
    27 2.046984 0.000001 0.000000 0.281892 0.002272 -0.431710
    28 -0.000005 0.000007 3.713254 -0.099098 -3.042479 5.710903
    29 18.045723 0.000000 0.000000 0.000000 0.000000 -0.407623
    30 17.597597 0.000000 0.000000 -0.055099 -0.021988 -0.166434
    31 0.000005 -0.000003 -3.713254 0.808762 2.837178 6.174803
    32 18.045721 0.000000 0.000000 0.000000 0.000000 -0.783352
    33 17.597597 0.000000 0.000000 0.178626 0.120815 0.490065
  time 9
    0 0.543951 2.758048 0.368674 0.000000 0.000000 -1.571017
    1 -0.332045 -0.093753 0.000000 -1.570795 -1.570787 0.000000
    2 1.293670 0.684478 -0.000001 -0.000004 -0.000001 0.020887
    3 5.309685 -0.003834 0.000000 0.000000 0.000000 -0.206636
    4 4.826790 -0.004591 0.000000 -0.156963 0.002816 -0.078768
    5 5.792767 -0.005304 0.000000 -0.143002 -0.001762 -0.073269
    6 6.662322 -0.001452 0.000000 0.000000 -0.000001 0.471000
    7 -3.108188 1.516823 4.339626 1.371174 -0.787121 -4.906115
    8 4.827512 0.000000 -0.000002 -0.361361 0.695656 -0.560396
    9 11.140032 0.000000 0.000000 0.000000 0.000000 -1.347460
    10 10.314563 -0.000001 0.000001 -3.648291 0.074563 -0.235897
    11 1.646836 0.445664 -1.699647 -0.161704 0.581044 -0.283978
    12 0.928312 0.000000 0.000000 0.000000 0.000000 0.000000
    13 0.928313 0.000000 -0.000001 0.000000 0.000000 0.000000
    14 2.979373 -0.388274 -0.044205 -0.001932 -0.043575 0.026189
    15 1.435262 -0.000001 -0.000001 0.000000 0.000000 0.784927
    16 1.482593 -0.000001 0.000001 0.000000 0.000000 0.540709
    17 -2.869899 1.399667 -4.140396 1.257130 0.989400 -2.412852
    18 4.972047 0.000000 0.000000 -0.589759 -1.140611 -0.726702
    19 11.585358 0.000000 0.000001 0.000000 0.000000 -1.637418
    20 10.127058 0.000000 0.000001 1.567087 0.659112 -0.360803
    21 1.537458 0.109715 1.664489 -0.264662 -0.055995 0.783079
    22 0.928313 0.000000 0.000002 0.000000 0.000000 -0.453501
    23 0.928311 0.000000 0.000001 0.000000 0.000000 0.000000
    24 2.686395 -0.427337 0.044204 -0.005762 0.043239 -0.157074
    25 1.435260 0.000000 0.000001 0.000000 0.000000 0.732613
    26 1.482593 0.000000 -0.000001 0.000000 0.000000 1.168644
    27 2.046984 0.000001 0.000000 0.331609 -0.013867 -0.466078
    28 -0.000005 0.000007 3.713254 -0.099865 -3.047848 5.708602
    29 18.045723 0.000000 0.000000 0.000000 0.000000 -0.413544
    30 17.597597 0.000000 0.000000 -0.057151 -0.016697 -0.162308
    31 0.000005 -0.000003 -3.713254 0.807324 2.831618 6.175091
    32 18.045721 0.000000 0.000000 0.000000 0.000000 -0.782250
    33 17.597597 0.000000 0.000000 0.178995 0.125233 0.485354
  time 10
    0 0.543951 2.758048 0.368674 0.000000 0.000000 -1.571017
    1 -0.332045 -0.093753 0.000000 -1.570795 -1.570787 0.000000
    2 1.293670 0.684478 -0.000001 -0.000004 -0.000001 0.009520
    3 5.309685 -0.003834 0.000000 0.000000 0.000000 -0.261658
    4 4.826790 -0.004591 0.000000 -0.156963 0.002816 -0.078768
    5 5.792767 -0.005304 0.000000 -0.142913 -0.006256 -0.104496
    6 6.662322 -0.001452 0.000000 0.000000 -0.000001 0.471000
    7 -3.108188 1.516823 4.339626 1.374338 -0.766068 -4.904773
    8 4.827512 0.000000 -0.000002 -0.467464 0.693951 -0.629716
    9 11.140032 0.000000 0.000000 0.000000 0.000000 -1.303119
    10 10.314563 -0.000001 0.000001 -3.574555 0.073252 -0.268819
    11 1.646836 0.445664 -1.699647 -0.161704 0.581044 -0.283978
    12 0.928312 0.000000 0.000000 0.000000 0.000000 0.000000
    13 0.928313 0.000000 -0.000001 0.000000 0.000000 0.000000
    14 2.979373 -0.388274 -0.044205 -0.001932 -0.043575 0.026189
    15 1.435262 -0.000001 -0.000001 0.000000 0.000000 0.784927
    16 1.482593 -0.000001 0.000001 0.000000 0.000000 0.540709
    17 -2.869899 1.399667 -4.140396 1.265154 0.977859 -2.406148
    18 4.972047 0.000000 0.000000 -0.549332 -1.105258 -0.793191
    19 11.585358 0.000000 0.000001 0.000000 0.000000 -1.551899
    20 10.127058 0.000000 0.000001 1.665401 0.666393 -0.282370
    21 1.537458 0.109715 1.664489 -0.264662 -0.055995 0.783079
    22 0.928313 0.000000 0.000002 0.000000 0.000000 -0.453501
    23 0.928311 0.000000 0.000001 0.000000 0.000000 0.000000
    24 2.686395 -0.427337 0.044204 -0.005762 0.043239 -0.157074
    25 1.435260 0.000000 0.000001 0.000000 0.000000 0.732613
    26 1.482593 0.000000 -0.000001 0.000000 0.000000 1.168644
    27 2.046984 0.000001 0.000000 0.298737 0.027173 -0.492478
    28 -0.000005 0.000007 3.713254 -0.099865 -3.047848 5.708602
    29 18.045723 0.000000 0.000000 0.000000 0.000000 -0.413544
    30 17.597597 0.000000 0.000000 -0.057151 -0.016697 -0.162308
    31 0.000005 -0.000003 -3.713254 0.807324 2.831618 6.175091
    32 18.045721 0.000000 0.000000 0.000000 0.000000 -0.782250
    33 17.597597 0.000000 0.000000 0.178995 0.125233 0.485354
end
