version 1
nodes
  0 "Bip01" -1
  1 "Bip01 Pelvis" 0
  2 "Bip01 Spine" 1
  3 "Bip01 Spine1" 2
  4 "Bip01 Spine2" 3
  5 "Bip01 Spine3" 4
  6 "Bip01 Neck" 5
  7 "Bip01 L Arm" 6
  8 "Bip01 L Arm1" 7
  9 "Bip01 L Arm2" 8
  10 "Bip01 L Hand" 9
  11 "Bip01 L Finger0" 10
  12 "Bip01 L Finger01" 11
  13 "Bip01 L Finger02" 12
  14 "Bip01 L Finger1" 10
  15 "Bip01 L Finger11" 14
  16 "Bip01 L Finger12" 15
  17 "Bip01 R Arm" 6
  18 "Bip01 R Arm1" 17
  19 "Bip01 R Arm2" 18
  20 "Bip01 R Hand" 19
  21 "Bip01 R Finger0" 20
  22 "Bip01 R Finger01" 21
  23 "Bip01 R Finger02" 22
  24 "Bip01 R Finger1" 20
  25 "Bip01 R Finger11" 24
  26 "Bip01 R Finger12" 25
  27 "Bip01 Head" 6
  28 "Bip01 L Leg" 1
  29 "Bip01 L Leg1" 28
  30 "Bip01 L Foot" 29
  31 "Bip01 R Leg" 1
  32 "Bip01 R Leg1" 31
  33 "Bip01 R Foot" 32
end
skeleton
  time 0
    0 0.418947 2.793205 0.368674 0.000000 0.000000 -1.571017
    1 -0.300794 0.031251 0.000000 -1.570795 -1.570787 0.000000
    2 1.293670 0.684478 -0.000001 -0.062447 0.004445 -0.094676
    3 5.309685 -0.003834 0.000000 0.005275 0.003679 0.016297
    4 4.826790 -0.004591 0.000000 0.009823 -0.021692 0.026270
    5 5.792767 -0.005304 0.000000 -0.033025 -0.014513 0.010572
    6 6.662322 -0.001452 0.000000 -0.091910 0.032655 0.231870
    7 -3.518356 0.356631 4.277124 1.379418 -1.057945 -4.734025
    8 4.827512 0.000000 -0.000002 -0.929663 -0.496896 -0.822513
    9 11.140032 0.000000 0.000000 0.000000 0.000000 -0.525332
    10 10.314563 -0.000001 0.000001 -1.941654 -0.130485 0.323543
    11 1.646836 0.445664 -1.699647 -0.392035 3.352851 -0.875707
    12 0.928312 0.000000 0.000000 0.000000 0.000000 0.593404
    13 0.928313 0.000000 -0.000001 0.000000 0.000000 1.204231
    14 2.979373 -0.388274 -0.044205 -0.030851 -0.030823 0.768363
    15 1.435262 -0.000001 -0.000001 0.000000 0.000000 1.204014
    16 1.482593 -0.000001 0.000001 0.000000 0.000000 1.153221
    17 -2.975371 1.071532 -4.156022 -1.395312 0.723683 -4.673936
    18 4.972047 0.000000 0.000000 0.696125 0.604017 -0.784339
    19 11.585358 0.000000 0.000001 0.000000 0.000000 -0.587015
    20 10.127058 0.000000 0.000001 2.161668 0.015319 0.362208
    21 1.537458 0.109715 1.664489 -3.079588 0.031470 0.928526
    22 0.928313 0.000000 0.000002 0.000000 0.000000 0.061034
    23 0.928311 0.000000 0.000001 0.000000 0.000000 0.671897
    24 2.686395 -0.427337 0.044204 -0.001208 0.043611 -0.052337
    25 1.435260 0.000000 0.000001 0.000000 0.000000 1.186618
    26 1.482593 0.000000 -0.000001 0.000000 0.000000 1.684243
    27 2.046984 0.000001 0.000000 0.123519 0.084085 -0.552820
    28 -0.000005 0.000007 3.713254 -0.099482 -3.047944 5.708602
    29 18.045723 0.000000 0.000000 0.000000 0.000000 -0.413544
    30 17.597597 0.000000 0.000000 -0.057506 -0.016845 -0.162308
    31 0.000005 -0.000003 -3.713254 0.807612 2.831522 6.175187
    32 18.045721 0.000000 0.000000 0.000000 0.000000 -0.782250
    33 17.597597 0.000000 0.000000 0.178693 0.125253 0.485308
  time 1
    0 0.426760 2.808830 0.368674 0.000000 0.000000 -1.571017
    1 -0.300794 0.031251 0.000000 -1.570795 -1.570787 0.000000
    2 1.293670 0.684478 -0.000001 -0.062397 -0.001415 -0.094425
    3 5.309685 -0.003834 0.000000 0.005275 0.007658 0.016315
    4 4.826790 -0.004591 0.000000 0.006619 -0.014274 0.050390
    5 5.792767 -0.005304 0.000000 -0.040167 -0.002792 0.044519
    6 6.662322 -0.001452 0.000000 -0.091910 0.032655 0.231870
    7 -3.518356 0.356631 4.277124 1.349799 -1.118207 -4.707100
    8 4.827512 0.000000 -0.000002 -0.856483 -0.287635 -0.941571
    9 11.140032 0.000000 0.000000 0.000000 0.000000 -0.732259
    10 10.314563 -0.000001 0.000001 -1.876069 -0.171046 0.435373
    11 1.646836 0.445664 -1.699647 -0.392035 3.352851 -0.875707
    12 0.928312 0.000000 0.000000 0.000000 0.000000 0.593404
    13 0.928313 0.000000 -0.000001 0.000000 0.000000 1.204231
    14 2.979373 -0.388274 -0.044205 -0.030851 -0.030823 0.768363
    15 1.435262 -0.000001 -0.000001 0.000000 0.000000 1.204014
    16 1.482593 -0.000001 0.000001 0.000000 0.000000 1.153221
    17 -2.975371 1.071532 -4.156022 -1.337324 0.859026 -4.634092
    18 4.972047 0.000000 0.000000 0.790299 0.170933 -0.795254
    19 11.585358 0.000000 0.000001 0.000000 0.000000 -1.038296
    20 10.127058 0.000000 0.000001 2.340414 0.088039 0.383267
    21 1.537458 0.109715 1.664489 -3.079588 0.031470 0.928526
    22 0.928313 0.000000 0.000002 0.000000 0.000000 0.061034
    23 0.928311 0.000000 0.000001 0.000000 0.000000 0.671897
    24 2.686395 -0.427337 0.044204 -0.001208 0.043611 -0.052337
    25 1.435260 0.000000 0.000001 0.000000 0.000000 1.186618
    26 1.482593 0.000000 -0.000001 0.000000 0.000000 1.684243
    27 2.046984 0.000001 0.000000 0.118737 0.023072 -0.395577
    28 -0.000005 0.000007 3.713254 -0.099674 -3.048231 5.708890
    29 18.045723 0.000000 0.000000 0.000000 0.000000 -0.412212
    30 17.597597 0.000000 0.000000 -0.057633 -0.016648 -0.163408
    31 0.000005 -0.000003 -3.713254 0.807612 2.831234 6.174707
    32 18.045721 0.000000 0.000000 0.000000 0.000000 -0.782565
    33 17.597597 0.000000 0.000000 0.178659 0.125036 0.485031
  time 2
    0 0.426760 2.832269 0.368674 0.000000 0.000000 -1.571017
    1 -0.300794 0.031251 0.000000 -1.570795 -1.570787 0.000000
    2 1.293670 0.684478 -0.000001 -0.062228 -0.008234 -0.094157
    3 5.309685 -0.003834 0.000000 0.005275 0.012368 0.016350
    4 4.826790 -0.004591 0.000000 0.005303 -0.005177 0.079428
    5 5.792767 -0.005304 0.000000 -0.043260 0.012308 0.083740
    6 6.662322 -0.001452 0.000000 -0.091910 0.032655 0.231870
    7 -3.518356 0.356631 4.277124 1.311170 -1.178853 -4.671264
    8 4.827512 0.000000 -0.000002 -0.786252 -0.070272 -1.052743
    9 11.140032 0.000000 0.000000 0.000000 0.000000 -0.942446
    10 10.314563 -0.000001 0.000001 -1.813138 -0.218631 0.548016
    11 1.646836 0.445664 -1.699647 -0.392035 3.352851 -0.875707
    12 0.928312 0.000000 0.000000 0.000000 0.000000 0.593404
    13 0.928313 0.000000 -0.000001 0.000000 0.000000 1.204231
    14 2.979373 -0.388274 -0.044205 -0.030851 -0.030823 0.768363
    15 1.435262 -0.000001 -0.000001 0.000000 0.000000 1.204014
    16 1.482593 -0.000001 0.000001 0.000000 0.000000 1.153221
    17 -2.975371 1.071532 -4.156022 -1.258033 0.992161 -4.572218
    18 4.972047 0.000000 0.000000 0.846860 -0.282801 -0.884372
    19 11.585358 0.000000 0.000001 0.000000 0.000000 -1.490312
    20 10.127058 0.000000 0.000001 2.523157 0.147142 0.430087
    21 1.537458 0.109715 1.664489 -3.079588 0.031470 0.928526
    22 0.928313 0.000000 0.000002 0.000000 0.000000 0.061034
    23 0.928311 0.000000 0.000001 0.000000 0.000000 0.671897
    24 2.686395 -0.427337 0.044204 -0.001208 0.043611 -0.052337
    25 1.435260 0.000000 0.000001 0.000000 0.000000 1.186618
    26 1.482593 0.000000 -0.000001 0.000000 0.000000 1.684243
    27 2.046984 0.000001 0.000000 0.089742 -0.035906 -0.227143
    28 -0.000005 0.000007 3.713254 -0.099769 -3.048519 5.709369
    29 18.045723 0.000000 0.000000 0.000000 0.000000 -0.409991
    30 17.597597 0.000000 0.000000 -0.057785 -0.016328 -0.165058
    31 0.000005 -0.000003 -3.713254 0.807324 2.830755 6.173749
    32 18.045721 0.000000 0.000000 0.000000 0.000000 -0.783116
    33 17.597597 0.000000 0.000000 0.178592 0.124740 0.484569
  time 3
    0 0.446291 2.855707 0.368674 0.000000 0.000000 -1.571017
    1 -0.300794 0.031251 0.000000 -1.570795 -1.570787 0.000000
    2 1.293670 0.684478 -0.000001 -0.062060 -0.015401 -0.093973
    3 5.309685 -0.003834 0.000000 0.005275 0.017294 0.016368
    4 4.826790 -0.004591 0.000000 0.004864 0.004267 0.107782
    5 5.792767 -0.005304 0.000000 -0.045491 0.027601 0.121362
    6 6.662322 -0.001452 0.000000 -0.091910 0.032655 0.231870
    7 -3.518356 0.356631 4.277124 1.259506 -1.238346 -4.622493
    8 4.827512 0.000000 -0.000002 -0.712912 0.138563 -1.145113
    9 11.140032 0.000000 0.000000 0.000000 0.000000 -1.151039
    10 10.314563 -0.000001 0.000001 -1.756272 -0.271368 0.657930
    11 1.646836 0.445664 -1.699647 -0.392035 3.352851 -0.875707
    12 0.928312 0.000000 0.000000 0.000000 0.000000 0.593404
    13 0.928313 0.000000 -0.000001 0.000000 0.000000 1.204231
    14 2.979373 -0.388274 -0.044205 -0.030851 -0.030823 0.768363
    15 1.435262 -0.000001 -0.000001 0.000000 0.000000 1.204014
    16 1.482593 -0.000001 0.000001 0.000000 0.000000 1.153221
    17 -2.975371 1.071532 -4.156022 -1.210840 1.051472 -4.532373
    18 4.972047 0.000000 0.000000 0.850424 -0.540883 -0.972890
    19 11.585358 0.000000 0.000001 0.000000 0.000000 -1.699495
    20 10.127058 0.000000 0.000001 2.598681 0.173998 0.489563
    21 1.537458 0.109715 1.664489 -3.079588 0.031470 0.928526
    22 0.928313 0.000000 0.000002 0.000000 0.000000 0.061034
    23 0.928311 0.000000 0.000001 0.000000 0.000000 0.671897
    24 2.686395 -0.427337 0.044204 -0.001208 0.043611 -0.052337
    25 1.435260 0.000000 0.000001 0.000000 0.000000 1.186618
    26 1.482593 0.000000 -0.000001 0.000000 0.000000 1.684243
    27 2.046984 0.000001 0.000000 0.042351 -0.079099 -0.064973
    28 -0.000005 0.000007 3.713254 -0.099865 -3.048903 5.709849
    29 18.045723 0.000000 0.000000 0.000000 0.000000 -0.407697
    30 17.597597 0.000000 0.000000 -0.057886 -0.015983 -0.166892
    31 0.000005 -0.000003 -3.713254 0.807324 2.830372 6.172790
    32 18.045721 0.000000 0.000000 0.000000 0.000000 -0.783667
    33 17.597597 0.000000 0.000000 0.178559 0.124326 0.484153
  time 4
    0 0.446291 2.875239 0.368674 0.000000 0.000000 -1.571017
    1 -0.300794 0.031251 0.000000 -1.570795 -1.570787 0.000000
    2 1.293670 0.684478 -0.000001 -0.061891 -0.022400 -0.093705
    3 5.309685 -0.003834 0.000000 0.005275 0.021824 0.016403
    4 4.826790 -0.004591 0.000000 0.004063 0.013087 0.129786
    5 5.792767 -0.005304 0.000000 -0.050420 0.040053 0.150700
    6 6.662322 -0.001452 0.000000 -0.091910 0.032655 0.231870
    7 -3.518356 0.356631 4.277124 1.188574 -1.294971 -4.554078
    8 4.827512 0.000000 -0.000002 -0.636942 0.324033 -1.208974
    9 11.140032 0.000000 0.000000 0.000000 0.000000 -1.352532
    10 10.314563 -0.000001 0.000001 -1.708504 -0.326541 0.762502
    11 1.646836 0.445664 -1.699647 -0.392035 3.352851 -0.875707
    12 0.928312 0.000000 0.000000 0.000000 0.000000 0.593404
    13 0.928313 0.000000 -0.000001 0.000000 0.000000 1.204231
    14 2.979373 -0.388274 -0.044205 -0.030851 -0.030823 0.768363
    15 1.435262 -0.000001 -0.000001 0.000000 0.000000 1.204014
    16 1.482593 -0.000001 0.000001 0.000000 0.000000 1.153221
    17 -2.975371 1.071532 -4.156022 -1.163743 1.099478 -4.491666
    18 4.972047 0.000000 0.000000 0.904077 -0.704153 -1.090294
    19 11.585358 0.000000 0.000001 0.000000 0.000000 -1.772925
    20 10.127058 0.000000 0.000001 2.663475 0.187710 0.538434
    21 1.537458 0.109715 1.664489 -3.079588 0.031470 0.928526
    22 0.928313 0.000000 0.000002 0.000000 0.000000 0.061034
    23 0.928311 0.000000 0.000001 0.000000 0.000000 0.671897
    24 2.686395 -0.427337 0.044204 -0.001208 0.043611 -0.052337
    25 1.435260 0.000000 0.000001 0.000000 0.000000 1.186618
    26 1.482593 0.000000 -0.000001 0.000000 0.000000 1.684243
    27 2.046984 0.000001 0.000000 -0.008832 -0.102761 0.070614
    28 -0.000005 0.000007 3.713254 -0.099865 -3.049094 5.710232
    29 18.045723 0.000000 0.000000 0.000000 0.000000 -0.405846
    30 17.597597 0.000000 0.000000 -0.057962 -0.015836 -0.168268
    31 0.000005 -0.000003 -3.713254 0.807228 2.830180 6.172023
    32 18.045721 0.000000 0.000000 0.000000 0.000000 -0.783982
    33 17.597597 0.000000 0.000000 0.178492 0.123971 0.483922
  time 5
    0 0.438479 2.883051 0.368674 0.000000 0.000000 -1.571017
    1 -0.300794 0.031251 0.000000 -1.570795 -1.570787 0.000000
    2 1.293670 0.684478 -0.000001 -0.061790 -0.028680 -0.093454
    3 5.309685 -0.003834 0.000000 0.005309 0.025395 0.016403
    4 4.826790 -0.004591 0.000000 0.001240 0.020242 0.139730
    5 5.792767 -0.005304 0.000000 -0.062310 0.046836 0.164694
    6 6.662322 -0.001452 0.000000 -0.091910 0.032655 0.231870
    7 -3.518356 0.356631 4.277124 1.088408 -1.346688 -4.456248
    8 4.827512 0.000000 -0.000002 -0.566472 0.472836 -1.239995
    9 11.140032 0.000000 0.000000 0.000000 0.000000 -1.542215
    10 10.314563 -0.000001 0.000001 -1.671731 -0.380965 0.859061
    11 1.646836 0.445664 -1.699647 -0.392035 3.352851 -0.875707
    12 0.928312 0.000000 0.000000 0.000000 0.000000 0.593404
    13 0.928313 0.000000 -0.000001 0.000000 0.000000 1.204231
    14 2.979373 -0.388274 -0.044205 -0.030851 -0.030823 0.768363
    15 1.435262 -0.000001 -0.000001 0.000000 0.000000 1.204014
    16 1.482593 -0.000001 0.000001 0.000000 0.000000 1.153221
    17 -2.975371 1.071532 -4.156022 -1.134223 1.125322 -4.465614
    18 4.972047 0.000000 0.000000 0.951726 -0.778155 -1.177482
    19 11.585358 0.000000 0.000001 0.000000 0.000000 -1.819972
    20 10.127058 0.000000 0.000001 2.699870 0.191965 0.563895
    21 1.537458 0.109715 1.664489 -3.079588 0.031470 0.928526
    22 0.928313 0.000000 0.000002 0.000000 0.000000 0.061034
    23 0.928311 0.000000 0.000001 0.000000 0.000000 0.671897
    24 2.686395 -0.427337 0.044204 -0.001208 0.043611 -0.052337
    25 1.435260 0.000000 0.000001 0.000000 0.000000 1.186618
    26 1.482593 0.000000 -0.000001 0.000000 0.000000 1.684243
    27 2.046984 0.000001 0.000000 -0.004955 -0.114857 0.122501
    28 -0.000005 0.000007 3.713254 -0.099865 -3.048903 5.710328
    29 18.045723 0.000000 0.000000 0.000000 0.000000 -0.405180
    30 17.597597 0.000000 0.000000 -0.057886 -0.016008 -0.168772
    31 0.000005 -0.000003 -3.713254 0.807228 2.830372 6.171927
    32 18.045721 0.000000 0.000000 0.000000 0.000000 -0.784218
    33 17.597597 0.000000 0.000000 0.178458 0.123715 0.484015
  time 6
    0 0.415040 2.863520 0.368674 0.000000 0.000000 -1.571017
    1 -0.300794 0.031251 0.000000 -1.570795 -1.570787 0.000000
    2 1.293670 0.684478 -0.000001 -0.061858 -0.033762 -0.093119
    3 5.309685 -0.003834 0.000000 0.005309 0.027529 0.016403
    4 4.826790 -0.004591 0.000000 -0.005017 0.024532 0.138848
    5 5.792767 -0.005304 0.000000 -0.084848 0.045314 0.164839
    6 6.662322 -0.001452 0.000000 -0.091910 0.032655 0.231870
    7 -3.518356 0.356631 4.277124 1.010096 -1.368599 -4.378827
    8 4.827512 0.000000 -0.000002 -0.457180 0.592987 -1.023022
    9 11.140032 0.000000 0.000000 0.000000 0.000000 -1.616117
    10 10.314563 -0.000001 0.000001 -1.663675 -0.393798 0.881125
    11 1.646836 0.445664 -1.699647 -0.392035 3.352851 -0.875707
    12 0.928312 0.000000 0.000000 0.000000 0.000000 0.593404
    13 0.928313 0.000000 -0.000001 0.000000 0.000000 1.204231
    14 2.979373 -0.388274 -0.044205 -0.030851 -0.030823 0.768363
    15 1.435262 -0.000001 -0.000001 0.000000 0.000000 1.204014
    16 1.482593 -0.000001 0.000001 0.000000 0.000000 1.153221
    17 -2.975371 1.071532 -4.156022 -1.100787 1.176351 -4.440137
    18 4.972047 0.000000 0.000000 0.992341 -0.797117 -1.286965
    19 11.585358 0.000000 0.000001 0.000000 0.000000 -1.858443
    20 10.127058 0.000000 0.000001 2.676168 0.410692 0.465703
    21 1.537458 0.109715 1.664489 -3.079588 0.031470 0.928526
    22 0.928313 0.000000 0.000002 0.000000 0.000000 0.061034
    23 0.928311 0.000000 0.000001 0.000000 0.000000 0.671897
    24 2.686395 -0.427337 0.044204 -0.001208 0.043611 -0.052337
    25 1.435260 0.000000 0.000001 0.000000 0.000000 1.186618
    26 1.482593 0.000000 -0.000001 0.000000 0.000000 1.684243
    27 2.046984 0.000001 0.000000 0.018310 -0.126629 0.148779
    28 -0.000005 0.000007 3.713254 -0.099769 -3.048231 5.710232
    29 18.045723 0.000000 0.000000 0.000000 0.000000 -0.406291
    30 17.597597 0.000000 0.000000 -0.057633 -0.016697 -0.167855
    31 0.000005 -0.000003 -3.713254 0.807516 2.831043 6.172502
    32 18.045721 0.000000 0.000000 0.000000 0.000000 -0.783903
    33 17.597597 0.000000 0.000000 0.178458 0.123596 0.484754
  time 7
    0 0.368164 2.812737 0.368674 0.000000 0.000000 -1.571017
    1 -0.300794 0.031251 0.000000 -1.570795 -1.570787 0.000000
    2 1.293670 0.684478 -0.000001 -0.062077 -0.037021 -0.092667
    3 5.309685 -0.003834 0.000000 0.005309 0.027601 0.016420
    4 4.826790 -0.004591 0.000000 -0.015984 0.024940 0.131021
    5 5.792767 -0.005304 0.000000 -0.131238 0.025995 0.150077
    6 6.662322 -0.001452 0.000000 -0.091910 0.032655 0.231870
    7 -3.518356 0.356631 4.277124 0.782637 -1.398611 -4.152791
    8 4.827512 0.000000 -0.000002 -0.213725 0.711176 -0.710647
    9 11.140032 0.000000 0.000000 0.000000 0.000000 -1.618218
    10 10.314563 -0.000001 0.000001 -1.669551 -0.380965 0.859061
    11 1.646836 0.445664 -1.699647 -0.392035 3.352851 -0.875707
    12 0.928312 0.000000 0.000000 0.000000 0.000000 0.593404
    13 0.928313 0.000000 -0.000001 0.000000 0.000000 1.204231
    14 2.979373 -0.388274 -0.044205 -0.030851 -0.030823 0.768363
    15 1.435262 -0.000001 -0.000001 0.000000 0.000000 1.204014
    16 1.482593 -0.000001 0.000001 0.000000 0.000000 1.153221
    17 -2.975371 1.071532 -4.156022 -1.059135 1.227013 -4.406135
    18 4.972047 0.000000 0.000000 1.064941 -0.839301 -1.443570
    19 11.585358 0.000000 0.000001 0.000000 0.000000 -1.896996
    20 10.127058 0.000000 0.000001 2.625819 0.625920 0.348552
    21 1.537458 0.109715 1.664489 -3.079588 0.031470 0.928526
    22 0.928313 0.000000 0.000002 0.000000 0.000000 0.061034
    23 0.928311 0.000000 0.000001 0.000000 0.000000 0.671897
    24 2.686395 -0.427337 0.044204 -0.001208 0.043611 -0.052337
    25 1.435260 0.000000 0.000001 0.000000 0.000000 1.186618
    26 1.482593 0.000000 -0.000001 0.000000 0.000000 1.684243
    27 2.046984 0.000001 0.000000 -0.032097 -0.156634 0.320681
    28 -0.000005 0.000007 3.713254 -0.099194 -3.046506 5.709657
    29 18.045723 0.000000 0.000000 0.000000 0.000000 -0.410213
    30 17.597597 0.000000 0.000000 -0.056999 -0.018321 -0.164737
    31 0.000005 -0.000003 -3.713254 0.808091 2.833056 6.174516
    32 18.045721 0.000000 0.000000 0.000000 0.000000 -0.782801
    33 17.597597 0.000000 0.000000 0.178458 0.123655 0.486463
  time 8
    0 0.223628 2.695546 0.368674 0.000000 0.000000 -1.571017
    1 -0.300794 0.031251 0.000000 -1.570795 -1.570787 0.000000
    2 1.293670 0.684478 -0.000001 -0.062515 -0.038004 -0.092031
    3 5.309685 -0.003834 0.000000 0.005275 0.019044 0.016368
    4 4.826790 -0.004591 0.000000 -0.040552 0.013830 0.103284
    5 5.792767 -0.005304 0.000000 -0.198926 -0.011349 0.123293
    6 6.662322 -0.001452 0.000000 -0.091910 0.032655 0.231870
    7 -3.518356 0.356631 4.277124 0.820978 -1.354051 -4.187190
    8 4.827512 0.000000 -0.000002 0.191795 0.572180 -0.344463
    9 11.140032 0.000000 0.000000 0.000000 0.000000 -1.709799
    10 10.314563 -0.000001 0.000001 -1.621026 -0.136668 0.818591
    11 1.646836 0.445664 -1.699647 -0.392035 3.352851 -0.875707
    12 0.928312 0.000000 0.000000 0.000000 0.000000 0.593404
    13 0.928313 0.000000 -0.000001 0.000000 0.000000 1.204231
    14 2.979373 -0.388274 -0.044205 -0.030851 -0.030823 0.768363
    15 1.435262 -0.000001 -0.000001 0.000000 0.000000 1.204014
    16 1.482593 -0.000001 0.000001 0.000000 0.000000 1.153221
    17 -2.975371 1.071532 -4.156022 -1.024075 1.246047 -4.373378
    18 4.972047 0.000000 0.000000 1.123378 -0.947612 -1.458878
    19 11.585358 0.000000 0.000001 0.000000 0.000000 -1.890135
    20 10.127058 0.000000 0.000001 2.241890 0.612965 0.114601
    21 1.537458 0.109715 1.664489 -3.079588 0.031470 0.928526
    22 0.928313 0.000000 0.000002 0.000000 0.000000 0.061034
    23 0.928311 0.000000 0.000001 0.000000 0.000000 0.671897
    24 2.686395 -0.427337 0.044204 -0.001208 0.043611 -0.052337
    25 1.435260 0.000000 0.000001 0.000000 0.000000 1.186618
    26 1.482593 0.000000 -0.000001 0.000000 0.000000 1.684243
    27 2.046984 0.000001 0.000000 -0.046874 -0.195372 0.523058
    28 -0.000005 0.000007 3.713254 -0.098331 -3.041904 5.708507
    29 18.045723 0.000000 0.000000 0.000000 0.000000 -0.418799
    30 17.597597 0.000000 0.000000 -0.055352 -0.022529 -0.157815
    31 0.000005 -0.000003 -3.713254 0.809625 2.837945 6.179213
    32 18.045721 0.000000 0.000000 0.000000 0.000000 -0.780597
    33 17.597597 0.000000 0.000000 0.178458 0.123399 0.490989
  time 9
    0 0.094718 2.543197 0.368674 0.000000 0.000000 -1.571017
    1 -0.300794 0.031251 0.000000 -1.570795 -1.570787 0.000000
    2 1.293670 0.684478 -0.000001 -0.064233 -0.027602 -0.090658
    3 5.309685 -0.003834 0.000000 0.005275 0.003440 0.016297
    4 4.826790 -0.004591 0.000000 -0.077633 -0.009767 0.056917
    5 5.792767 -0.005304 0.000000 -0.268359 -0.054134 0.096426
    6 6.662322 -0.001452 0.000000 -0.091910 0.032655 0.231870
    7 -3.518356 0.356631 4.277124 0.860278 -1.309253 -4.221397
    8 4.827512 0.000000 -0.000002 0.467935 0.687385 -0.427214
    9 11.140032 0.000000 0.000000 0.000000 0.000000 -1.522073
    10 10.314563 -0.000001 0.000001 -1.579988 0.062198 0.803088
    11 1.646836 0.445664 -1.699647 -0.392035 3.352851 -0.875707
    12 0.928312 0.000000 0.000000 0.000000 0.000000 0.593404
    13 0.928313 0.000000 -0.000001 0.000000 0.000000 1.204231
    14 2.979373 -0.388274 -0.044205 -0.030851 -0.030823 0.768363
    15 1.435262 -0.000001 -0.000001 0.000000 0.000000 1.204014
    16 1.482593 -0.000001 0.000001 0.000000 0.000000 1.153221
    17 -2.975371 1.071532 -4.156022 -0.985003 1.264661 -4.336407
    18 4.972047 0.000000 0.000000 1.176562 -1.083322 -1.488694
    19 11.585358 0.000000 0.000001 0.000000 0.000000 -1.883356
    20 10.127058 0.000000 0.000001 1.882014 0.532585 -0.093288
    21 1.537458 0.109715 1.664489 -3.079588 0.031470 0.928526
    22 0.928313 0.000000 0.000002 0.000000 0.000000 0.061034
    23 0.928311 0.000000 0.000001 0.000000 0.000000 0.671897
    24 2.686395 -0.427337 0.044204 -0.001208 0.043611 -0.052337
    25 1.435260 0.000000 0.000001 0.000000 0.000000 1.186618
    26 1.482593 0.000000 -0.000001 0.000000 0.000000 1.684243
    27 2.046984 0.000001 0.000000 -0.064926 -0.263053 0.740399
    28 -0.000005 0.000007 3.713254 -0.097181 -3.037494 5.706494
    29 18.045723 0.000000 0.000000 0.000000 0.000000 -0.431159
    30 17.597597 0.000000 0.000000 -0.053832 -0.026516 -0.147774
    31 0.000005 -0.000003 -3.713254 0.811062 2.842930 6.185541
    32 18.045721 0.000000 0.000000 0.000000 0.000000 -0.777212
    33 17.597597 0.000000 0.000000 0.178559 0.124444 0.495238
  time 10
    0 0.094718 2.398662 0.368674 0.000000 0.000000 -1.571017
    1 -0.300794 0.031251 0.000000 -1.570795 -1.570787 0.000000
    2 1.293670 0.684478 -0.000001 -0.066894 -0.007108 -0.088666
    3 5.309685 -0.003834 0.000000 0.005275 -0.007670 0.016244
    4 4.826790 -0.004591 0.000000 -0.114236 -0.036265 0.010681
    5 5.792767 -0.005304 0.000000 -0.321189 -0.087559 0.078217
    6 6.662322 -0.001452 0.000000 -0.091910 0.032655 0.231870
    7 -3.518356 0.356631 4.277124 0.889225 -1.264279 -4.244681
    8 4.827512 0.000000 -0.000002 0.694889 0.869444 -0.521143
    9 11.140032 0.000000 0.000000 0.000000 0.000000 -1.334129
    10 10.314563 -0.000001 0.000001 -1.541224 0.261533 0.795307
    11 1.646836 0.445664 -1.699647 -0.392035 3.352851 -0.875707
    12 0.928312 0.000000 0.000000 0.000000 0.000000 0.593404
    13 0.928313 0.000000 -0.000001 0.000000 0.000000 1.204231
    14 2.979373 -0.388274 -0.044205 -0.030851 -0.030823 0.768363
    15 1.435262 -0.000001 -0.000001 0.000000 0.000000 1.204014
    16 1.482593 -0.000001 0.000001 0.000000 0.000000 1.153221
    17 -2.975371 1.071532 -4.156022 -0.952044 1.279042 -4.305278
    18 4.972047 0.000000 0.000000 1.170371 -1.203605 -1.478645
    19 11.585358 0.000000 0.000001 0.000000 0.000000 -1.875024
    20 10.127058 0.000000 0.000001 1.620452 0.436886 -0.225695
    21 1.537458 0.109715 1.664489 -3.079588 0.031470 0.928526
    22 0.928313 0.000000 0.000002 0.000000 0.000000 0.061034
    23 0.928311 0.000000 0.000001 0.000000 0.000000 0.671897
    24 2.686395 -0.427337 0.044204 -0.001208 0.043611 -0.052337
    25 1.435260 0.000000 0.000001 0.000000 0.000000 1.186618
    26 1.482593 0.000000 -0.000001 0.000000 0.000000 1.684243
    27 2.046984 0.000001 0.000000 -0.011417 -0.335425 0.820328
    28 -0.000005 0.000007 3.713254 -0.096701 -3.036631 5.704001
    29 18.045723 0.000000 0.000000 0.000000 0.000000 -0.443890
    30 17.597597 0.000000 0.000000 -0.053604 -0.027156 -0.137688
    31 0.000005 -0.000003 -3.713254 0.811541 2.844368 6.191005
    32 18.045721 0.000000 0.000000 0.000000 0.000000 -0.773827
    33 17.597597 0.000000 0.000000 0.178861 0.127442 0.496486
  time 11
    0 0.145501 2.324441 0.368674 0.000000 0.000000 -1.571017
    1 -0.300794 0.031251 0.000000 -1.570795 -1.570787 0.000000
    2 1.293670 0.684478 -0.000001 -0.068882 0.008196 -0.087243
    3 5.309685 -0.003834 0.000000 0.005275 -0.011086 0.016209
    4 4.826790 -0.004591 0.000000 -0.139319 -0.053727 -0.018025
    5 5.792767 -0.005304 0.000000 -0.333870 -0.094163 0.077158
    6 6.662322 -0.001452 0.000000 -0.091910 0.032655 0.231870
    7 -3.518356 0.356631 4.277124 0.911367 -1.223148 -4.260491
    8 4.827512 0.000000 -0.000002 0.793897 1.035728 -0.722605
    9 11.140032 0.000000 0.000000 0.000000 0.000000 -1.168283
    10 10.314563 -0.000001 0.000001 -1.508432 0.453186 0.789791
    11 1.646836 0.445664 -1.699647 -0.392035 3.352851 -0.875707
    12 0.928312 0.000000 0.000000 0.000000 0.000000 0.593404
    13 0.928313 0.000000 -0.000001 0.000000 0.000000 1.204231
    14 2.979373 -0.388274 -0.044205 -0.030851 -0.030823 0.768363
    15 1.435262 -0.000001 -0.000001 0.000000 0.000000 1.204014
    16 1.482593 -0.000001 0.000001 0.000000 0.000000 1.153221
    17 -2.975371 1.071532 -4.156022 -0.939816 1.286613 -4.294072
    18 4.972047 0.000000 0.000000 1.106306 -1.275840 -1.417480
    19 11.585358 0.000000 0.000001 0.000000 0.000000 -1.860731
    20 10.127058 0.000000 0.000001 1.498226 0.415704 -0.284170
    21 1.537458 0.109715 1.664489 -3.079588 0.031470 0.928526
    22 0.928313 0.000000 0.000002 0.000000 0.000000 0.061034
    23 0.928311 0.000000 0.000001 0.000000 0.000000 0.671897
    24 2.686395 -0.427337 0.044204 -0.001208 0.043611 -0.052337
    25 1.435260 0.000000 0.000001 0.000000 0.000000 1.186618
    26 1.482593 0.000000 -0.000001 0.000000 0.000000 1.684243
    27 2.046984 0.000001 0.000000 -0.020163 -0.374340 0.875317
    28 -0.000005 0.000007 3.713254 -0.096701 -3.037685 5.702276
    29 18.045723 0.000000 0.000000 0.000000 0.000000 -0.451810
    30 17.597597 0.000000 0.000000 -0.054085 -0.025999 -0.131407
    31 0.000005 -0.000003 -3.713254 0.811350 2.843410 6.193785
    32 18.045721 0.000000 0.000000 0.000000 0.000000 -0.771859
    33 17.597597 0.000000 0.000000 0.179196 0.130243 0.495700
  time 12
    0 0.200190 2.312722 0.368674 0.000000 0.000000 -1.571017
    1 -0.300794 0.031251 0.000000 -1.570795 -1.570787 0.000000
    2 1.293670 0.684478 -0.000001 -0.069370 0.012127 -0.089503
    3 5.309685 -0.003834 0.000000 0.005275 -0.011685 0.016209
    4 4.826790 -0.004591 0.000000 -0.147292 -0.051690 -0.013968
    5 5.792767 -0.005304 0.000000 -0.321513 -0.086361 0.081871
    6 6.662322 -0.001452 0.000000 -0.091910 0.032655 0.231870
    7 -3.518356 0.356631 4.277124 0.925745 -1.202657 -4.271510
    8 4.827512 0.000000 -0.000002 0.735146 0.975695 -0.948936
    9 11.140032 0.000000 0.000000 0.000000 0.000000 -1.120174
    10 10.314563 -0.000001 0.000001 -1.517720 0.602781 0.755650
    11 1.646836 0.445664 -1.699647 -0.392035 3.352851 -0.875707
    12 0.928312 0.000000 0.000000 0.000000 0.000000 0.593404
    13 0.928313 0.000000 -0.000001 0.000000 0.000000 1.204231
    14 2.979373 -0.388274 -0.044205 -0.030851 -0.030823 0.768363
    15 1.435262 -0.000001 -0.000001 0.000000 0.000000 1.204014
    16 1.482593 -0.000001 0.000001 0.000000 0.000000 1.153221
    17 -2.975371 1.071532 -4.156022 -0.951089 1.284694 -4.305087
    18 4.972047 0.000000 0.000000 1.062034 -1.288615 -1.365367
    19 11.585358 0.000000 0.000001 0.000000 0.000000 -1.851337
    20 10.127058 0.000000 0.000001 1.473191 0.437737 -0.298477
    21 1.537458 0.109715 1.664489 -3.079588 0.031470 0.928526
    22 0.928313 0.000000 0.000002 0.000000 0.000000 0.061034
    23 0.928311 0.000000 0.000001 0.000000 0.000000 0.671897
    24 2.686395 -0.427337 0.044204 -0.001208 0.043611 -0.052337
    25 1.435260 0.000000 0.000001 0.000000 0.000000 1.186618
    26 1.482593 0.000000 -0.000001 0.000000 0.000000 1.684243
    27 2.046984 0.000001 0.000000 -0.051786 -0.372334 0.893748
    28 -0.000005 0.000007 3.713254 -0.097085 -3.038932 5.701605
    29 18.045723 0.000000 0.000000 0.000000 0.000000 -0.453734
    30 17.597597 0.000000 0.000000 -0.054541 -0.024720 -0.129940
    31 0.000005 -0.000003 -3.713254 0.810966 2.842163 6.194169
    32 18.045721 0.000000 0.000000 0.000000 0.000000 -0.771387
    33 17.597597 0.000000 0.000000 0.179330 0.131466 0.494592
  time 13
    0 0.262692 2.343973 0.368674 0.000000 0.000000 -1.571017
    1 -0.300794 0.031251 0.000000 -1.570795 -1.570787 0.000000
    2 1.293670 0.684478 -0.000001 -0.069219 0.010953 -0.092282
    3 5.309685 -0.003834 0.000000 0.005275 -0.010283 0.016209
    4 4.826790 -0.004591 0.000000 -0.142981 -0.037835 0.009645
    5 5.792767 -0.005304 0.000000 -0.268845 -0.064261 0.077531
    6 6.662322 -0.001452 0.000000 -0.091910 0.032655 0.231870
    7 -3.518356 0.356631 4.277124 0.926512 -1.255822 -4.280996
    8 4.827512 0.000000 -0.000002 0.586155 0.880188 -1.119811
    9 11.140032 0.000000 0.000000 0.000000 0.000000 -1.305510
    10 10.314563 -0.000001 0.000001 -1.688412 0.596973 0.592957
    11 1.646836 0.445664 -1.699647 -0.392035 3.352851 -0.875707
    12 0.928312 0.000000 0.000000 0.000000 0.000000 0.593404
    13 0.928313 0.000000 -0.000001 0.000000 0.000000 1.204231
    14 2.979373 -0.388274 -0.044205 -0.030851 -0.030823 0.768363
    15 1.435262 -0.000001 -0.000001 0.000000 0.000000 1.204014
    16 1.482593 -0.000001 0.000001 0.000000 0.000000 1.153221
    17 -2.975371 1.071532 -4.156022 -0.972583 1.276124 -4.325583
    18 4.972047 0.000000 0.000000 1.020106 -1.245468 -1.269395
    19 11.585358 0.000000 0.000001 0.000000 0.000000 -1.858280
    20 10.127058 0.000000 0.000001 1.483359 0.446248 -0.292474
    21 1.537458 0.109715 1.664489 -3.079588 0.031470 0.928526
    22 0.928313 0.000000 0.000002 0.000000 0.000000 0.061034
    23 0.928311 0.000000 0.000001 0.000000 0.000000 0.671897
    24 2.686395 -0.427337 0.044204 -0.001208 0.043611 -0.052337
    25 1.435260 0.000000 0.000001 0.000000 0.000000 1.186618
    26 1.482593 0.000000 -0.000001 0.000000 0.000000 1.684243
    27 2.046984 0.000001 0.000000 -0.100254 -0.328108 0.887057
    28 -0.000005 0.000007 3.713254 -0.097468 -3.040945 5.701413
    29 18.045723 0.000000 0.000000 0.000000 0.000000 -0.452550
    30 17.597597 0.000000 0.000000 -0.055251 -0.022751 -0.131040
    31 0.000005 -0.000003 -3.713254 0.810200 2.839862 6.192923
    32 18.045721 0.000000 0.000000 0.000000 0.000000 -0.771938
    33 17.597597 0.000000 0.000000 0.179364 0.132196 0.492791
  time 14
    0 0.325194 2.426006 0.368674 0.000000 0.000000 -1.571017
    1 -0.300794 0.031251 0.000000 -1.570795 -1.570787 0.000000
    2 1.293670 0.684478 -0.000001 -0.068882 0.008196 -0.087243
    3 5.309685 -0.003834 0.000000 0.005275 -0.007670 0.016244
    4 4.826790 -0.004591 0.000000 -0.132128 -0.026642 0.027019
    5 5.792767 -0.005304 0.000000 -0.205636 -0.036972 0.073130
    6 6.662322 -0.001452 0.000000 -0.091910 0.032655 0.231870
    7 -3.518356 0.356631 4.277124 0.927471 -1.312654 -4.289620
    8 4.827512 0.000000 -0.000002 0.448484 0.788349 -1.251086
    9 11.140032 0.000000 0.000000 0.000000 0.000000 -1.502510
    10 10.314563 -0.000001 0.000001 -1.845172 0.545734 0.448553
    11 1.646836 0.445664 -1.699647 -0.392035 3.352851 -0.875707
    12 0.928312 0.000000 0.000000 0.000000 0.000000 0.593404
    13 0.928313 0.000000 -0.000001 0.000000 0.000000 1.204231
    14 2.979373 -0.388274 -0.044205 -0.030851 -0.030823 0.768363
    15 1.435262 -0.000001 -0.000001 0.000000 0.000000 1.204014
    16 1.482593 -0.000001 0.000001 0.000000 0.000000 1.153221
    17 -2.975371 1.071532 -4.156022 -1.001243 1.262558 -4.352594
    18 4.972047 0.000000 0.000000 1.004535 -1.187214 -1.191125
    19 11.585358 0.000000 0.000001 0.000000 0.000000 -1.870777
    20 10.127058 0.000000 0.000001 1.526205 0.455988 -0.269264
    21 1.537458 0.109715 1.664489 -3.079588 0.031470 0.928526
    22 0.928313 0.000000 0.000002 0.000000 0.000000 0.061034
    23 0.928311 0.000000 0.000001 0.000000 0.000000 0.671897
    24 2.686395 -0.427337 0.044204 -0.001208 0.043611 -0.052337
    25 1.435260 0.000000 0.000001 0.000000 0.000000 1.186618
    26 1.482593 0.000000 -0.000001 0.000000 0.000000 1.684243
    27 2.046984 0.000001 0.000000 -0.124165 -0.276890 0.846849
    28 -0.000005 0.000007 3.713254 -0.098044 -3.043054 5.702276
    29 18.045723 0.000000 0.000000 0.000000 0.000000 -0.446332
    30 17.597597 0.000000 0.000000 -0.055910 -0.020905 -0.136221
    31 0.000005 -0.000003 -3.713254 0.809625 2.837562 6.189663
    32 18.045721 0.000000 0.000000 0.000000 0.000000 -0.773827
    33 17.597597 0.000000 0.000000 0.179330 0.131525 0.490758
  time 15
    0 0.348632 2.574448 0.368674 0.000000 0.000000 -1.571017
    1 -0.300794 0.031251 0.000000 -1.570795 -1.570787 0.000000
    2 1.293670 0.684478 -0.000001 -0.068562 0.004829 -0.071774
    3 5.309685 -0.003834 0.000000 0.005275 -0.002852 0.016262
    4 4.826790 -0.004591 0.000000 -0.117307 -0.021932 0.030525
    5 5.792767 -0.005304 0.000000 -0.194465 -0.029446 0.072445
    6 6.662322 -0.001452 0.000000 -0.091910 0.032655 0.231870
    7 -3.518356 0.356631 4.277124 0.927471 -1.312654 -4.289620
    8 4.827512 0.000000 -0.000002 0.439874 0.748355 -1.259838
    9 11.140032 0.000000 0.000000 0.000000 0.000000 -1.524536
    10 10.314563 -0.000001 0.000001 -1.844888 0.545734 0.448553
    11 1.646836 0.445664 -1.699647 -0.392035 3.352851 -0.875707
    12 0.928312 0.000000 0.000000 0.000000 0.000000 0.593404
    13 0.928313 0.000000 -0.000001 0.000000 0.000000 1.204231
    14 2.979373 -0.388274 -0.044205 -0.030851 -0.030823 0.768363
    15 1.435262 -0.000001 -0.000001 0.000000 0.000000 1.204014
    16 1.482593 -0.000001 0.000001 0.000000 0.000000 1.153221
    17 -2.975371 1.071532 -4.156022 -1.043850 1.237634 -4.392055
    18 4.972047 0.000000 0.000000 1.034363 -1.151941 -1.208097
    19 11.585358 0.000000 0.000001 0.000000 0.000000 -1.876985
    20 10.127058 0.000000 0.000001 1.615753 0.451827 -0.219442
    21 1.537458 0.109715 1.664489 -3.079588 0.031470 0.928526
    22 0.928313 0.000000 0.000002 0.000000 0.000000 0.061034
    23 0.928311 0.000000 0.000001 0.000000 0.000000 0.671897
    24 2.686395 -0.427337 0.044204 -0.001208 0.043611 -0.052337
    25 1.435260 0.000000 0.000001 0.000000 0.000000 1.186618
    26 1.482593 0.000000 -0.000001 0.000000 0.000000 1.684243
    27 2.046984 0.000001 0.000000 -0.008660 -0.271255 0.707247
    28 -0.000005 0.000007 3.713254 -0.098619 -3.044396 5.704864
    29 18.045723 0.000000 0.000000 0.000000 0.000000 -0.433158
    30 17.597597 0.000000 0.000000 -0.056290 -0.019847 -0.146765
    31 0.000005 -0.000003 -3.713254 0.808954 2.835740 6.183911
    32 18.045721 0.000000 0.000000 0.000000 0.000000 -0.777212
    33 17.597597 0.000000 0.000000 0.178995 0.128586 0.489142
  time 16
    0 0.356445 2.758048 0.368674 0.000000 0.000000 -1.571017
    1 -0.300794 0.031251 0.000000 -1.570795 -1.570787 0.000000
    2 1.293670 0.684478 -0.000001 -0.068242 0.000047 -0.051183
    3 5.309685 -0.003834 0.000000 0.005275 0.004267 0.016297
    4 4.826790 -0.004591 0.000000 -0.098538 -0.018193 0.030679
    5 5.792767 -0.005304 0.000000 -0.189663 -0.024916 0.071490
    6 6.662322 -0.001452 0.000000 -0.091910 0.032655 0.231870
    7 -3.518356 0.356631 4.277124 0.707392 -1.335097 -4.071442
    8 4.827512 0.000000 -0.000002 0.519511 0.472068 -1.096762
    9 11.140032 0.000000 0.000000 0.000000 0.000000 -1.666979
    10 10.314563 -0.000001 0.000001 -1.824511 0.153529 0.562938
    11 1.646836 0.445664 -1.699647 -0.392035 3.352851 -0.875707
    12 0.928312 0.000000 0.000000 0.000000 0.000000 0.593404
    13 0.928313 0.000000 -0.000001 0.000000 0.000000 1.204231
    14 2.979373 -0.388274 -0.044205 -0.030851 -0.030823 0.768363
    15 1.435262 -0.000001 -0.000001 0.000000 0.000000 1.204014
    16 1.482593 -0.000001 0.000001 0.000000 0.000000 1.153221
    17 -2.975371 1.071532 -4.156022 -1.151037 1.146643 -4.487548
    18 4.972047 0.000000 0.000000 1.054530 -1.155556 -1.249628
    19 11.585358 0.000000 0.000001 0.000000 0.000000 -1.844395
    20 10.127058 0.000000 0.000001 1.947089 0.334946 -0.040215
    21 1.537458 0.109715 1.664489 -3.079588 0.031470 0.928526
    22 0.928313 0.000000 0.000002 0.000000 0.000000 0.061034
    23 0.928311 0.000000 0.000001 0.000000 0.000000 0.671897
    24 2.686395 -0.427337 0.044204 -0.001208 0.043611 -0.052337
    25 1.435260 0.000000 0.000001 0.000000 0.000000 1.186618
    26 1.482593 0.000000 -0.000001 0.000000 0.000000 1.684243
    27 2.046984 0.000001 0.000000 0.172030 -0.249275 0.500004
    28 -0.000005 0.000007 3.713254 -0.099194 -3.045835 5.708507
    29 18.045723 0.000000 0.000000 0.000000 0.000000 -0.415542
    30 17.597597 0.000000 0.000000 -0.056645 -0.018813 -0.160611
    31 0.000005 -0.000003 -3.713254 0.808187 2.833823 6.176625
    32 18.045721 0.000000 0.000000 0.000000 0.000000 -0.781699
    33 17.597597 0.000000 0.000000 0.178659 0.124661 0.487248
  time 17
    0 0.368164 2.957272 0.368674 0.000000 0.000000 -1.571017
    1 -0.300794 0.031251 0.000000 -1.570795 -1.570787 0.000000
    2 1.293670 0.684478 -0.000001 -0.067972 -0.004855 -0.028884
    3 5.309685 -0.003834 0.000000 0.005275 0.011685 0.016350
    4 4.826790 -0.004591 0.000000 -0.078434 -0.015280 0.028915
    5 5.792767 -0.005304 0.000000 -0.164965 -0.012728 0.068583
    6 6.662322 -0.001452 0.000000 -0.091910 0.032655 0.231870
    7 -3.518356 0.356631 4.277124 0.405167 -1.344381 -3.773064
    8 4.827512 0.000000 -0.000002 0.507634 0.181712 -0.978224
    9 11.140032 0.000000 0.000000 0.000000 0.000000 -1.789860
    10 10.314563 -0.000001 0.000001 -1.857209 -0.314926 0.694103
    11 1.646836 0.445664 -1.699647 -0.392035 3.352851 -0.875707
    12 0.928312 0.000000 0.000000 0.000000 0.000000 0.593404
    13 0.928313 0.000000 -0.000001 0.000000 0.000000 1.204231
    14 2.979373 -0.388274 -0.044205 -0.030851 -0.030823 0.768363
    15 1.435262 -0.000001 -0.000001 0.000000 0.000000 1.204014
    16 1.482593 -0.000001 0.000001 0.000000 0.000000 1.153221
    17 -2.975371 1.071532 -4.156022 -1.230137 1.041245 -4.551721
    18 4.972047 0.000000 0.000000 1.053029 -1.159092 -1.255418
    19 11.585358 0.000000 0.000001 0.000000 0.000000 -1.805842
    20 10.127058 0.000000 0.000001 2.277303 0.147804 0.096043
    21 1.537458 0.109715 1.664489 -3.079588 0.031470 0.928526
    22 0.928313 0.000000 0.000002 0.000000 0.000000 0.061034
    23 0.928311 0.000000 0.000001 0.000000 0.000000 0.671897
    24 2.686395 -0.427337 0.044204 -0.001208 0.043611 -0.052337
    25 1.435260 0.000000 0.000001 0.000000 0.000000 1.186618
    26 1.482593 0.000000 -0.000001 0.000000 0.000000 1.684243
    27 2.046984 0.000001 0.000000 0.260953 -0.206672 0.356205
    28 -0.000005 0.000007 3.713254 -0.099865 -3.047464 5.712820
    29 18.045723 0.000000 0.000000 0.000000 0.000000 -0.396224
    30 17.597597 0.000000 0.000000 -0.057075 -0.017583 -0.175466
    31 0.000005 -0.000003 -3.713254 0.807516 2.831714 6.169147
    32 18.045721 0.000000 0.000000 0.000000 0.000000 -0.786107
    33 17.597597 0.000000 0.000000 0.178324 0.120657 0.485123
  time 18
    0 0.387696 3.136965 0.368674 0.000000 0.000000 -1.571017
    1 -0.300794 0.031251 0.000000 -1.570795 -1.570787 0.000000
    2 1.293670 0.684478 -0.000001 -0.067854 -0.008630 -0.008393
    3 5.309685 -0.003834 0.000000 0.005275 0.017186 0.016368
    4 4.826790 -0.004591 0.000000 -0.059455 -0.013159 0.026556
    5 5.792767 -0.005304 0.000000 -0.135430 0.001870 0.065178
    6 6.662322 -0.001452 0.000000 -0.091910 0.032655 0.231870
    7 -3.518356 0.356631 4.277124 0.112911 -1.333323 -3.486471
    8 4.827512 0.000000 -0.000002 0.414604 0.086290 -0.839497
    9 11.140032 0.000000 0.000000 0.000000 0.000000 -1.694874
    10 10.314563 -0.000001 0.000001 -1.969045 -0.767831 0.879035
    11 1.646836 0.445664 -1.699647 -0.392035 3.352851 -0.875707
    12 0.928312 0.000000 0.000000 0.000000 0.000000 0.593404
    13 0.928313 0.000000 -0.000001 0.000000 0.000000 1.204231
    14 2.979373 -0.388274 -0.044205 -0.030851 -0.030823 0.768363
    15 1.435262 -0.000001 -0.000001 0.000000 0.000000 1.204014
    16 1.482593 -0.000001 0.000001 0.000000 0.000000 1.153221
    17 -2.975371 1.071532 -4.156022 -1.284590 0.924226 -4.586585
    18 4.972047 0.000000 0.000000 1.037365 -1.164716 -1.250293
    19 11.585358 0.000000 0.000001 0.000000 0.000000 -1.762796
    20 10.127058 0.000000 0.000001 2.609550 -0.068937 0.154619
    21 1.537458 0.109715 1.664489 -3.079588 0.031470 0.928526
    22 0.928313 0.000000 0.000002 0.000000 0.000000 0.061034
    23 0.928311 0.000000 0.000001 0.000000 0.000000 0.671897
    24 2.686395 -0.427337 0.044204 -0.001208 0.043611 -0.052337
    25 1.435260 0.000000 0.000001 0.000000 0.000000 1.186618
    26 1.482593 0.000000 -0.000001 0.000000 0.000000 1.684243
    27 2.046984 0.000001 0.000000 0.240532 -0.180709 0.309306
    28 -0.000005 0.000007 3.713254 -0.100536 -3.049094 5.717326
    29 18.045723 0.000000 0.000000 0.000000 0.000000 -0.377425
    30 17.597597 0.000000 0.000000 -0.057506 -0.016426 -0.189587
    31 0.000005 -0.000003 -3.713254 0.806749 2.829892 6.162340
    32 18.045721 0.000000 0.000000 0.000000 0.000000 -0.789807
    33 17.597597 0.000000 0.000000 0.178055 0.117009 0.482999
  time 19
    0 0.395509 3.265876 0.368674 0.000000 0.000000 -1.571017
    1 -0.300794 0.031251 0.000000 -1.570795 -1.570787 0.000000
    2 1.293670 0.684478 -0.000001 -0.067821 -0.009960 0.006925
    3 5.309685 -0.003834 0.000000 0.005275 0.018636 0.016368
    4 4.826790 -0.004591 0.000000 -0.044176 -0.011817 0.024836
    5 5.792767 -0.005304 0.000000 -0.106577 0.014417 0.062105
    6 6.662322 -0.001452 0.000000 -0.091910 0.032655 0.231870
    7 -3.518356 0.356631 4.277124 -0.082054 -1.312949 -3.296655
    8 4.827512 0.000000 -0.000002 0.346845 0.179921 -0.807089
    9 11.140032 0.000000 0.000000 0.000000 0.000000 -1.595468
    10 10.314563 -0.000001 0.000001 -2.171108 -1.141303 1.161571
    11 1.646836 0.445664 -1.699647 -0.392035 3.352851 -0.875707
    12 0.928312 0.000000 0.000000 0.000000 0.000000 0.593404
    13 0.928313 0.000000 -0.000001 0.000000 0.000000 1.204231
    14 2.979373 -0.388274 -0.044205 -0.030851 -0.030823 0.768363
    15 1.435262 -0.000001 -0.000001 0.000000 0.000000 1.204014
    16 1.482593 -0.000001 0.000001 0.000000 0.000000 1.153221
    17 -2.975371 1.071532 -4.156022 -1.233959 0.878901 -4.512451
    18 4.972047 0.000000 0.000000 0.944692 -1.142058 -1.166034
    19 11.585358 0.000000 0.000001 0.000000 0.000000 -1.740334
    20 10.127058 0.000000 0.000001 2.764103 0.097779 0.056226
    21 1.537458 0.109715 1.664489 -3.079588 0.031470 0.928526
    22 0.928313 0.000000 0.000002 0.000000 0.000000 0.061034
    23 0.928311 0.000000 0.000001 0.000000 0.000000 0.671897
    24 2.686395 -0.427337 0.044204 -0.001208 0.043611 -0.052337
    25 1.435260 0.000000 0.000001 0.000000 0.000000 1.186618
    26 1.482593 0.000000 -0.000001 0.000000 0.000000 1.684243
    27 2.046984 0.000001 0.000000 0.183275 -0.163774 0.302493
    28 -0.000005 0.000007 3.713254 -0.101112 -3.050437 5.721160
    29 18.045723 0.000000 0.000000 0.000000 0.000000 -0.362400
    30 17.597597 0.000000 0.000000 -0.057861 -0.015565 -0.200773
    31 0.000005 -0.000003 -3.713254 0.806174 2.828454 6.157163
    32 18.045721 0.000000 0.000000 0.000000 0.000000 -0.792641
    33 17.597597 0.000000 0.000000 0.177888 0.114247 0.481382
  time 20
    0 0.356445 3.316658 0.368674 0.000000 0.000000 -1.571017
    1 -0.300794 0.031251 0.000000 -1.570795 -1.570787 0.000000
    2 1.293670 0.684478 -0.000001 -0.067804 -0.003896 0.011713
    3 5.309685 -0.003834 0.000000 0.006007 0.000707 0.016315
    4 4.826790 -0.004591 0.000000 -0.040781 -0.016287 0.024065
    5 5.792767 -0.005304 0.000000 -0.084183 0.020494 0.059738
    6 6.662322 -0.001452 0.000000 -0.091910 0.032655 0.231870
    7 -3.518356 0.356631 4.277124 -0.103333 -1.309401 -3.276054
    8 4.827512 0.000000 -0.000002 0.209333 0.359763 -0.953182
    9 11.140032 0.000000 0.000000 0.000000 0.000000 -1.494323
    10 10.314563 -0.000001 0.000001 -1.918529 -1.381665 1.039290
    11 1.646836 0.445664 -1.699647 -0.392035 3.352851 -0.875707
    12 0.928312 0.000000 0.000000 0.000000 0.000000 0.593404
    13 0.928313 0.000000 -0.000001 0.000000 0.000000 1.204231
    14 2.979373 -0.388274 -0.044205 -0.030851 -0.030823 0.768363
    15 1.435262 -0.000001 -0.000001 0.000000 0.000000 1.204014
    16 1.482593 -0.000001 0.000001 0.000000 0.000000 1.153221
    17 -2.975371 1.071532 -4.156022 -1.219438 0.878901 -4.495019
    18 4.972047 0.000000 0.000000 0.996093 -1.130648 -1.192922
    19 11.585358 0.000000 0.000001 0.000000 0.000000 -1.737884
    20 10.127058 0.000000 0.000001 2.778549 0.176268 0.019460
    21 1.537458 0.109715 1.664489 -3.079588 0.031470 0.928526
    22 0.928313 0.000000 0.000002 0.000000 0.000000 0.061034
    23 0.928311 0.000000 0.000001 0.000000 0.000000 0.671897
    24 2.686395 -0.427337 0.044204 -0.001208 0.043611 -0.052337
    25 1.435260 0.000000 0.000001 0.000000 0.000000 1.186618
    26 1.482593 0.000000 -0.000001 0.000000 0.000000 1.684243
    27 2.046984 0.000001 0.000000 0.138641 -0.140761 0.317822
    28 -0.000005 0.000007 3.713254 -0.101112 -3.049382 5.723269
    29 18.045723 0.000000 0.000000 0.000000 0.000000 -0.355294
    30 17.597597 0.000000 0.000000 -0.057354 -0.016697 -0.205816
    31 0.000005 -0.000003 -3.713254 0.806366 2.829509 6.155342
    32 18.045721 0.000000 0.000000 0.000000 0.000000 -0.793743
    33 17.597597 0.000000 0.000000 0.177720 0.112078 0.482121
  time 21
    0 0.325194 3.297127 0.368674 0.000000 0.000000 -1.571017
    1 -0.300794 0.031251 0.000000 -1.570795 -1.570787 0.000000
    2 1.293670 0.684478 -0.000001 -0.067787 0.006543 0.008415
    3 5.309685 -0.003834 0.000000 0.005258 -0.016491 0.016191
    4 4.826790 -0.004591 0.000000 -0.044329 -0.019727 0.023029
    5 5.792767 -0.005304 0.000000 -0.082402 0.003416 0.059572
    6 6.662322 -0.001452 0.000000 -0.091910 0.032655 0.231870
    7 -3.518356 0.356631 4.277124 -0.082054 -1.312949 -3.296655
    8 4.827512 0.000000 -0.000002 0.043681 0.493728 -1.111059
    9 11.140032 0.000000 0.000000 0.000000 0.000000 -1.408104
    10 10.314563 -0.000001 0.000001 -0.569862 -1.434497 -0.201233
    11 1.646836 0.445664 -1.699647 -0.392035 3.352851 -0.875707
    12 0.928312 0.000000 0.000000 0.000000 0.000000 0.593404
    13 0.928313 0.000000 -0.000001 0.000000 0.000000 1.204231
    14 2.979373 -0.388274 -0.044205 -0.030851 -0.030823 0.768363
    15 1.435262 -0.000001 -0.000001 0.000000 0.000000 1.204014
    16 1.482593 -0.000001 0.000001 0.000000 0.000000 1.153221
    17 -2.975371 1.071532 -4.156022 -1.207210 0.885080 -4.482472
    18 4.972047 0.000000 0.000000 1.089329 -1.129202 -1.279777
    19 11.585358 0.000000 0.000001 0.000000 0.000000 -1.740334
    20 10.127058 0.000000 0.000001 2.788436 0.246529 -0.012853
    21 1.537458 0.109715 1.664489 -3.079588 0.031470 0.928526
    22 0.928313 0.000000 0.000002 0.000000 0.000000 0.061034
    23 0.928311 0.000000 0.000001 0.000000 0.000000 0.671897
    24 2.686395 -0.427337 0.044204 -0.001208 0.043611 -0.052337
    25 1.435260 0.000000 0.000001 0.000000 0.000000 1.186618
    26 1.482593 0.000000 -0.000001 0.000000 0.000000 1.684243
    27 2.046984 0.000001 0.000000 0.138210 -0.119666 0.326581
    28 -0.000005 0.000007 3.713254 -0.101016 -3.048423 5.722981
    29 18.045723 0.000000 0.000000 0.000000 0.000000 -0.356997
    30 17.597597 0.000000 0.000000 -0.056999 -0.017558 -0.204533
    31 0.000005 -0.000003 -3.713254 0.806749 2.830563 6.156109
    32 18.045721 0.000000 0.000000 0.000000 0.000000 -0.793428
    33 17.597597 0.000000 0.000000 0.177720 0.111940 0.483045
  time 22
    0 0.375977 3.277595 0.368674 0.000000 0.000000 -1.571017
    1 -0.300794 0.031251 0.000000 -1.570795 -1.570787 0.000000
    2 1.293670 0.684478 -0.000001 -0.067821 0.010498 0.005569
    3 5.309685 -0.003834 0.000000 0.001310 -0.011757 0.016138
    4 4.826790 -0.004591 0.000000 -0.046694 -0.014849 0.021331
    5 5.792767 -0.005304 0.000000 -0.084920 -0.017845 0.059759
    6 6.662322 -0.001452 0.000000 -0.091910 0.032655 0.231870
    7 -3.518356 0.356631 4.277124 0.002009 -1.329449 -3.378580
    8 4.827512 0.000000 -0.000002 -0.050385 0.465161 -1.119637
    9 11.140032 0.000000 0.000000 0.000000 0.000000 -1.394048
    10 10.314563 -0.000001 0.000001 -0.751074 -1.220830 -0.070010
    11 1.646836 0.445664 -1.699647 -0.392035 3.352851 -0.875707
    12 0.928312 0.000000 0.000000 0.000000 0.000000 0.593404
    13 0.928313 0.000000 -0.000001 0.000000 0.000000 1.204231
    14 2.979373 -0.388274 -0.044205 -0.030851 -0.030823 0.768363
    15 1.435262 -0.000001 -0.000001 0.000000 0.000000 1.204014
    16 1.482593 -0.000001 0.000001 0.000000 0.000000 1.153221
    17 -2.975371 1.071532 -4.156022 -1.201573 0.894518 -4.478928
    18 4.972047 0.000000 0.000000 1.137166 -1.124059 -1.321641
    19 11.585358 0.000000 0.000001 0.000000 0.000000 -1.738783
    20 10.127058 0.000000 0.000001 2.746993 0.295702 -0.043016
    21 1.537458 0.109715 1.664489 -3.079588 0.031470 0.928526
    22 0.928313 0.000000 0.000002 0.000000 0.000000 0.061034
    23 0.928311 0.000000 0.000001 0.000000 0.000000 0.671897
    24 2.686395 -0.427337 0.044204 -0.001208 0.043611 -0.052337
    25 1.435260 0.000000 0.000001 0.000000 0.000000 1.186618
    26 1.482593 0.000000 -0.000001 0.000000 0.000000 1.684243
    27 2.046984 0.000001 0.000000 0.145793 -0.116834 0.318552
    28 -0.000005 0.000007 3.713254 -0.101112 -3.049765 5.721543
    29 18.045723 0.000000 0.000000 0.000000 0.000000 -0.361290
    30 17.597597 0.000000 0.000000 -0.057557 -0.016131 -0.201553
    31 0.000005 -0.000003 -3.713254 0.806174 2.829125 6.157067
    32 18.045721 0.000000 0.000000 0.000000 0.000000 -0.792798
    33 17.597597 0.000000 0.000000 0.177854 0.113656 0.481890
  time 23
    0 0.375977 3.273688 0.368674 0.000000 0.000000 -1.571017
    1 -0.300794 0.031251 0.000000 -1.570795 -1.570787 0.000000
    2 1.293670 0.684478 -0.000001 -0.067821 0.000838 0.006222
    3 5.309685 -0.003834 0.000000 -0.003727 -0.001007 0.016050
    4 4.826790 -0.004591 0.000000 -0.049994 -0.007646 0.019236
    5 5.792767 -0.005304 0.000000 -0.068911 -0.015077 0.057225
    6 6.662322 -0.001452 0.000000 -0.091910 0.032655 0.231870
    7 -3.518356 0.356631 4.277124 0.125468 -1.347604 -3.499023
    8 4.827512 0.000000 -0.000002 -0.146444 0.396942 -1.164262
    9 11.140032 0.000000 0.000000 0.000000 0.000000 -1.353619
    10 10.314563 -0.000001 0.000001 -0.972851 -0.932039 0.044026
    11 1.646836 0.445664 -1.699647 -0.392035 3.352851 -0.875707
    12 0.928312 0.000000 0.000000 0.000000 0.000000 0.593404
    13 0.928313 0.000000 -0.000001 0.000000 0.000000 1.204231
    14 2.979373 -0.388274 -0.044205 -0.030851 -0.030823 0.768363
    15 1.435262 -0.000001 -0.000001 0.000000 0.000000 1.204014
    16 1.482593 -0.000001 0.000001 0.000000 0.000000 1.153221
    17 -2.975371 1.071532 -4.156022 -1.207878 0.904272 -4.489463
    18 4.972047 0.000000 0.000000 1.136885 -1.107427 -1.295418
    19 11.585358 0.000000 0.000001 0.000000 0.000000 -1.724979
    20 10.127058 0.000000 0.000001 2.608288 0.307523 -0.073930
    21 1.537458 0.109715 1.664489 -3.079588 0.031470 0.928526
    22 0.928313 0.000000 0.000002 0.000000 0.000000 0.061034
    23 0.928311 0.000000 0.000001 0.000000 0.000000 0.671897
    24 2.686395 -0.427337 0.044204 -0.001208 0.043611 -0.052337
    25 1.435260 0.000000 0.000001 0.000000 0.000000 1.186618
    26 1.482593 0.000000 -0.000001 0.000000 0.000000 1.684243
    27 2.046984 0.000001 0.000000 0.129895 -0.121938 0.309671
    28 -0.000005 0.000007 3.713254 -0.101112 -3.049670 5.721543
    29 18.045723 0.000000 0.000000 0.000000 0.000000 -0.361364
    30 17.597597 0.000000 0.000000 -0.057506 -0.016205 -0.201415
    31 0.000005 -0.000003 -3.713254 0.806366 2.829221 6.157067
    32 18.045721 0.000000 0.000000 0.000000 0.000000 -0.792798
    33 17.597597 0.000000 0.000000 0.177888 0.113636 0.482029
  time 24
    0 0.329100 3.273688 0.368674 0.000000 0.000000 -1.571017
    1 -0.300794 0.031251 0.000000 -1.570795 -1.570787 0.000000
    2 1.293670 0.684478 -0.000001 -0.067821 -0.015281 0.007310
    3 5.309685 -0.003834 0.000000 -0.008696 0.010978 0.015891
    4 4.826790 -0.004591 0.000000 -0.052340 0.000168 0.016723
    5 5.792767 -0.005304 0.000000 -0.049358 -0.007958 0.054153
    6 6.662322 -0.001452 0.000000 -0.091910 0.032655 0.231870
    7 -3.518356 0.356631 4.277124 0.273082 -1.362300 -3.644188
    8 4.827512 0.000000 -0.000002 -0.249996 0.317126 -1.211920
    9 11.140032 0.000000 0.000000 0.000000 0.000000 -1.292975
    10 10.314563 -0.000001 0.000001 -0.859783 -0.949087 -0.286412
    11 1.646836 0.445664 -1.699647 -0.392035 3.352851 -0.875707
    12 0.928312 0.000000 0.000000 0.000000 0.000000 0.593404
    13 0.928313 0.000000 -0.000001 0.000000 0.000000 1.204231
    14 2.979373 -0.388274 -0.044205 -0.030851 -0.030823 0.768363
    15 1.435262 -0.000001 -0.000001 0.000000 0.000000 1.204014
    16 1.482593 -0.000001 0.000001 0.000000 0.000000 1.153221
    17 -2.975371 1.071532 -4.156022 -1.242174 0.918469 -4.534480
    18 4.972047 0.000000 0.000000 1.133977 -1.065485 -1.250759
    19 11.585358 0.000000 0.000001 0.000000 0.000000 -1.676461
    20 10.127058 0.000000 0.000001 2.257668 0.235938 -0.082233
    21 1.537458 0.109715 1.664489 -3.079588 0.031470 0.928526
    22 0.928313 0.000000 0.000002 0.000000 0.000000 0.061034
    23 0.928311 0.000000 0.000001 0.000000 0.000000 0.671897
    24 2.686395 -0.427337 0.044204 -0.001208 0.043611 -0.052337
    25 1.435260 0.000000 0.000001 0.000000 0.000000 1.186618
    26 1.482593 0.000000 -0.000001 0.000000 0.000000 1.684243
    27 2.046984 0.000001 0.000000 0.111628 -0.125154 0.300668
    28 -0.000005 0.000007 3.713254 -0.101016 -3.048327 5.722119
    29 18.045723 0.000000 0.000000 0.000000 0.000000 -0.360253
    30 17.597597 0.000000 0.000000 -0.056923 -0.017558 -0.202149
    31 0.000005 -0.000003 -3.713254 0.806749 2.830659 6.157163
    32 18.045721 0.000000 0.000000 0.000000 0.000000 -0.792877
    33 17.597597 0.000000 0.000000 0.177787 0.112650 0.483230
  time 25
    0 0.293943 3.273688 0.368674 0.000000 0.000000 -1.571017
    1 -0.300794 0.031251 0.000000 -1.570795 -1.570787 0.000000
    2 1.293670 0.684478 -0.000001 -0.067854 -0.027266 0.008114
    3 5.309685 -0.003834 0.000000 -0.012320 0.019463 0.015732
    4 4.826790 -0.004591 0.000000 -0.051882 0.007047 0.013878
    5 5.792767 -0.005304 0.000000 -0.031515 -0.007227 0.050021
    6 6.662322 -0.001452 0.000000 -0.091910 0.032655 0.231870
    7 -3.518356 0.356631 4.277124 0.433156 -1.371644 -3.802671
    8 4.827512 0.000000 -0.000002 -0.427845 0.236116 -1.262004
    9 11.140032 0.000000 0.000000 0.000000 0.000000 -1.214073
    10 10.314563 -0.000001 0.000001 -1.093691 -0.652240 -0.230904
    11 1.646836 0.445664 -1.699647 -0.392035 3.352851 -0.875707
    12 0.928312 0.000000 0.000000 0.000000 0.000000 0.593404
    13 0.928313 0.000000 -0.000001 0.000000 0.000000 1.204231
    14 2.979373 -0.388274 -0.044205 -0.030851 -0.030823 0.768363
    15 1.435262 -0.000001 -0.000001 0.000000 0.000000 1.204014
    16 1.482593 -0.000001 0.000001 0.000000 0.000000 1.153221
    17 -2.975371 1.071532 -4.156022 -1.297965 0.932823 -4.604687
    18 4.972047 0.000000 0.000000 1.141012 -1.011329 -1.200576
    19 11.585358 0.000000 0.000001 0.000000 0.000000 -1.611362
    20 10.127058 0.000000 0.000001 1.778441 0.118962 -0.023208
    21 1.537458 0.109715 1.664489 -3.079588 0.031470 0.928526
    22 0.928313 0.000000 0.000002 0.000000 0.000000 0.061034
    23 0.928311 0.000000 0.000001 0.000000 0.000000 0.671897
    24 2.686395 -0.427337 0.044204 -0.001208 0.043611 -0.052337
    25 1.435260 0.000000 0.000001 0.000000 0.000000 1.186618
    26 1.482593 0.000000 -0.000001 0.000000 0.000000 1.684243
    27 2.046984 0.000001 0.000000 0.096463 -0.121230 0.290814
    28 -0.000005 0.000007 3.713254 -0.100728 -3.047273 5.722502
    29 18.045723 0.000000 0.000000 0.000000 0.000000 -0.359513
    30 17.597597 0.000000 0.000000 -0.056493 -0.018616 -0.202653
    31 0.000005 -0.000003 -3.713254 0.807037 2.831810 6.157259
    32 18.045721 0.000000 0.000000 0.000000 0.000000 -0.792877
    33 17.597597 0.000000 0.000000 0.177720 0.111861 0.484246
  time 26
    0 0.293943 3.277595 0.368674 0.000000 0.000000 -1.571017
    1 -0.300794 0.031251 0.000000 -1.570795 -1.570787 0.000000
    2 1.293670 0.684478 -0.000001 -0.068023 -0.030718 0.010424
    3 5.309685 -0.003834 0.000000 -0.013818 0.022064 0.015679
    4 4.826790 -0.004591 0.000000 -0.045740 0.013758 0.008058
    5 5.792767 -0.005304 0.000000 -0.012555 -0.007454 0.044789
    6 6.662322 -0.001452 0.000000 -0.091910 0.032655 0.231870
    7 -3.518356 0.356631 4.277124 0.560257 -1.375163 -3.928864
    8 4.827512 0.000000 -0.000002 -0.369651 0.191689 -1.286699
    9 11.140032 0.000000 0.000000 0.000000 0.000000 -1.191251
    10 10.314563 -0.000001 0.000001 -1.338213 -0.320359 -0.212149
    11 1.646836 0.445664 -1.699647 -0.392035 3.352851 -0.875707
    12 0.928312 0.000000 0.000000 0.000000 0.000000 0.593404
    13 0.928313 0.000000 -0.000001 0.000000 0.000000 1.204231
    14 2.979373 -0.388274 -0.044205 -0.030851 -0.030823 0.768363
    15 1.435262 -0.000001 -0.000001 0.000000 0.000000 1.204014
    16 1.482593 -0.000001 0.000001 0.000000 0.000000 1.153221
    17 -2.975371 1.071532 -4.156022 -1.339521 0.935058 -4.654876
    18 4.972047 0.000000 0.000000 1.128162 -0.979189 -1.122840
    19 11.585358 0.000000 0.000001 0.000000 0.000000 -1.581630
    20 10.127058 0.000000 0.000001 1.406153 0.049268 0.051274
    21 1.537458 0.109715 1.664489 -3.079588 0.031470 0.928526
    22 0.928313 0.000000 0.000002 0.000000 0.000000 0.061034
    23 0.928311 0.000000 0.000001 0.000000 0.000000 0.671897
    24 2.686395 -0.427337 0.044204 -0.001208 0.043611 -0.052337
    25 1.435260 0.000000 0.000001 0.000000 0.000000 1.186618
    26 1.482593 0.000000 -0.000001 0.000000 0.000000 1.684243
    27 2.046984 0.000001 0.000000 0.075697 -0.113382 0.279500
    28 -0.000005 0.000007 3.713254 -0.100728 -3.047369 5.722694
    29 18.045723 0.000000 0.000000 0.000000 0.000000 -0.358847
    30 17.597597 0.000000 0.000000 -0.056543 -0.018493 -0.203157
    31 0.000005 -0.000003 -3.713254 0.807037 2.831618 6.157067
    32 18.045721 0.000000 0.000000 0.000000 0.000000 -0.793113
    33 17.597597 0.000000 0.000000 0.177720 0.111782 0.484153
  time 27
    0 0.317381 3.285408 0.368674 0.000000 0.000000 -1.571017
    1 -0.300794 0.031251 0.000000 -1.570795 -1.570787 0.000000
    2 1.293670 0.684478 -0.000001 -0.068158 -0.029939 0.012433
    3 5.309685 -0.003834 0.000000 -0.013631 0.021249 0.015679
    4 4.826790 -0.004591 0.000000 -0.035669 0.019882 0.001884
    5 5.792767 -0.005304 0.000000 0.002608 -0.008102 0.040927
    6 6.662322 -0.001452 0.000000 -0.091910 0.032655 0.231870
    7 -3.518356 0.356631 4.277124 0.570993 -1.375281 -3.939596
    8 4.827512 0.000000 -0.000002 -0.304283 0.285319 -1.264950
    9 11.140032 0.000000 0.000000 0.000000 0.000000 -1.382165
    10 10.314563 -0.000001 0.000001 -1.659031 -0.286637 -0.216156
    11 1.646836 0.445664 -1.699647 -0.392035 3.352851 -0.875707
    12 0.928312 0.000000 0.000000 0.000000 0.000000 0.593404
    13 0.928313 0.000000 -0.000001 0.000000 0.000000 1.204231
    14 2.979373 -0.388274 -0.044205 -0.030851 -0.030823 0.768363
    15 1.435262 -0.000001 -0.000001 0.000000 0.000000 1.204014
    16 1.482593 -0.000001 0.000001 0.000000 0.000000 1.153221
    17 -2.975371 1.071532 -4.156022 -1.332261 0.909372 -4.640413
    18 4.972047 0.000000 0.000000 1.054717 -1.008035 -0.994188
    19 11.585358 0.000000 0.000001 0.000000 0.000000 -1.657511
    20 10.127058 0.000000 0.000001 1.348020 0.025438 0.014308
    21 1.537458 0.109715 1.664489 -3.079588 0.031470 0.928526
    22 0.928313 0.000000 0.000002 0.000000 0.000000 0.061034
    23 0.928311 0.000000 0.000001 0.000000 0.000000 0.671897
    24 2.686395 -0.427337 0.044204 -0.001208 0.043611 -0.052337
    25 1.435260 0.000000 0.000001 0.000000 0.000000 1.186618
    26 1.482593 0.000000 -0.000001 0.000000 0.000000 1.684243
    27 2.046984 0.000001 0.000000 0.057214 -0.103351 0.261738
    28 -0.000005 0.000007 3.713254 -0.101016 -3.048040 5.722694
    29 18.045723 0.000000 0.000000 0.000000 0.000000 -0.358477
    30 17.597597 0.000000 0.000000 -0.056771 -0.017903 -0.203432
    31 0.000005 -0.000003 -3.713254 0.806749 2.831043 6.156684
    32 18.045721 0.000000 0.000000 0.000000 0.000000 -0.793192
    33 17.597597 0.000000 0.000000 0.177753 0.111999 0.483507
  time 28
    0 0.336913 3.265876 0.368674 0.000000 0.000000 -1.571017
    1 -0.300794 0.031251 0.000000 -1.570795 -1.570787 0.000000
    2 1.293670 0.684478 -0.000001 -0.067854 -0.027266 0.008114
    3 5.309685 -0.003834 0.000000 -0.012320 0.019463 0.015732
    4 4.826790 -0.004591 0.000000 -0.026456 0.021644 0.003207
    5 5.792767 -0.005304 0.000000 0.009408 -0.008653 0.041010
    6 6.662322 -0.001452 0.000000 -0.091910 0.032655 0.231870
    7 -3.518356 0.356631 4.277124 0.560257 -1.375163 -3.928864
    8 4.827512 0.000000 -0.000002 -0.254540 0.365391 -1.249700
    9 11.140032 0.000000 0.000000 0.000000 0.000000 -1.539969
    10 10.314563 -0.000001 0.000001 -1.893413 -0.320172 -0.245245
    11 1.646836 0.445664 -1.699647 -0.392035 3.352851 -0.875707
    12 0.928312 0.000000 0.000000 0.000000 0.000000 0.593404
    13 0.928313 0.000000 -0.000001 0.000000 0.000000 1.204231
    14 2.979373 -0.388274 -0.044205 -0.030851 -0.030823 0.768363
    15 1.435262 -0.000001 -0.000001 0.000000 0.000000 1.204014
    16 1.482593 -0.000001 0.000001 0.000000 0.000000 1.153221
    17 -2.975371 1.071532 -4.156022 -1.312390 0.877166 -4.607656
    18 4.972047 0.000000 0.000000 0.977052 -1.026435 -0.874255
    19 11.585358 0.000000 0.000001 0.000000 0.000000 -1.750953
    20 10.127058 0.000000 0.000001 1.411903 0.021561 -0.021757
    21 1.537458 0.109715 1.664489 -3.079588 0.031470 0.928526
    22 0.928313 0.000000 0.000002 0.000000 0.000000 0.061034
    23 0.928311 0.000000 0.000001 0.000000 0.000000 0.671897
    24 2.686395 -0.427337 0.044204 -0.001208 0.043611 -0.052337
    25 1.435260 0.000000 0.000001 0.000000 0.000000 1.186618
    26 1.482593 0.000000 -0.000001 0.000000 0.000000 1.684243
    27 2.046984 0.000001 0.000000 0.052001 -0.092995 0.231567
    28 -0.000005 0.000007 3.713254 -0.101016 -3.048327 5.721735
    29 18.045723 0.000000 0.000000 0.000000 0.000000 -0.361438
    30 17.597597 0.000000 0.000000 -0.056923 -0.017435 -0.201323
    31 0.000005 -0.000003 -3.713254 0.806749 2.830659 6.157547
    32 18.045721 0.000000 0.000000 0.000000 0.000000 -0.792641
    33 17.597597 0.000000 0.000000 0.177821 0.112945 0.483230
  time 29
    0 0.348632 3.203374 0.368674 0.000000 0.000000 -1.571017
    1 -0.300794 0.031251 0.000000 -1.570795 -1.570787 0.000000
    2 1.293670 0.684478 -0.000001 -0.067029 -0.023419 -0.004442
    3 5.309685 -0.003834 0.000000 -0.010176 0.017509 0.015838
    4 4.826790 -0.004591 0.000000 -0.019742 0.017713 0.010615
    5 5.792767 -0.005304 0.000000 0.003292 -0.009180 0.042152
    6 6.662322 -0.001452 0.000000 -0.091910 0.032655 0.231870
    7 -3.518356 0.356631 4.277124 0.528722 -1.377647 -3.897915
    8 4.827512 0.000000 -0.000002 -0.289855 0.309281 -1.257758
    9 11.140032 0.000000 0.000000 0.000000 0.000000 -1.606481
    10 10.314563 -0.000001 0.000001 -1.935589 -0.319048 -0.281129
    11 1.646836 0.445664 -1.699647 -0.392035 3.352851 -0.875707
    12 0.928312 0.000000 0.000000 0.000000 0.000000 0.593404
    13 0.928313 0.000000 -0.000001 0.000000 0.000000 1.204231
    14 2.979373 -0.388274 -0.044205 -0.030851 -0.030823 0.768363
    15 1.435262 -0.000001 -0.000001 0.000000 0.000000 1.204014
    16 1.482593 -0.000001 0.000001 0.000000 0.000000 1.153221
    17 -2.975371 1.071532 -4.156022 -1.312390 0.877166 -4.607656
    18 4.972047 0.000000 0.000000 1.044024 -0.898599 -0.907267
    19 11.585358 0.000000 0.000001 0.000000 0.000000 -1.701782
    20 10.127058 0.000000 0.000001 1.429153 0.034800 0.187233
    21 1.537458 0.109715 1.664489 -3.079588 0.031470 0.928526
    22 0.928313 0.000000 0.000002 0.000000 0.000000 0.061034
    23 0.928311 0.000000 0.000001 0.000000 0.000000 0.671897
    24 2.686395 -0.427337 0.044204 -0.001208 0.043611 -0.052337
    25 1.435260 0.000000 0.000001 0.000000 0.000000 1.186618
    26 1.482593 0.000000 -0.000001 0.000000 0.000000 1.684243
    27 2.046984 0.000001 0.000000 0.103916 -0.066029 0.134484
    28 -0.000005 0.000007 3.713254 -0.100728 -3.048423 5.719818
    29 18.045723 0.000000 0.000000 0.000000 0.000000 -0.368543
    30 17.597597 0.000000 0.000000 -0.057050 -0.017214 -0.196188
    31 0.000005 -0.000003 -3.713254 0.806749 2.830563 6.159656
    32 18.045721 0.000000 0.000000 0.000000 0.000000 -0.791460
    33 17.597597 0.000000 0.000000 0.177955 0.114583 0.483414
  time 30
    0 0.368164 3.129153 0.368674 0.000000 0.000000 -1.571017
    1 -0.300794 0.031251 0.000000 -1.570795 -1.570787 0.000000
    2 1.293670 0.684478 -0.000001 -0.065985 -0.018218 -0.021434
    3 5.309685 -0.003834 0.000000 -0.007249 0.014933 0.015944
    4 4.826790 -0.004591 0.000000 -0.013676 0.010594 0.016789
    5 5.792767 -0.005304 0.000000 -0.012070 -0.010175 0.039889
    6 6.662322 -0.001452 0.000000 -0.091910 0.032655 0.231870
    7 -3.518356 0.356631 4.277124 0.560257 -1.375163 -3.928864
    8 4.827512 0.000000 -0.000002 -0.372840 0.187169 -1.265643
    9 11.140032 0.000000 0.000000 0.000000 0.000000 -1.654083
    10 10.314563 -0.000001 0.000001 -1.906587 -0.317549 -0.245884
    11 1.646836 0.445664 -1.699647 -0.392035 3.352851 -0.875707
    12 0.928312 0.000000 0.000000 0.000000 0.000000 0.593404
    13 0.928313 0.000000 -0.000001 0.000000 0.000000 1.204231
    14 2.979373 -0.388274 -0.044205 -0.030851 -0.030823 0.768363
    15 1.435262 -0.000001 -0.000001 0.000000 0.000000 1.204014
    16 1.482593 -0.000001 0.000001 0.000000 0.000000 1.153221
    17 -2.975371 1.071532 -4.156022 -1.305798 0.894544 -4.604304
    18 4.972047 0.000000 0.000000 0.906985 -0.495084 -0.820612
    19 11.585358 0.000000 0.000001 0.000000 0.000000 -1.437629
    20 10.127058 0.000000 0.000001 1.572487 0.048606 0.269568
    21 1.537458 0.109715 1.664489 -3.079588 0.031470 0.928526
    22 0.928313 0.000000 0.000002 0.000000 0.000000 0.061034
    23 0.928311 0.000000 0.000001 0.000000 0.000000 0.671897
    24 2.686395 -0.427337 0.044204 -0.001208 0.043611 -0.052337
    25 1.435260 0.000000 0.000001 0.000000 0.000000 1.186618
    26 1.482593 0.000000 -0.000001 0.000000 0.000000 1.684243
    27 2.046984 0.000001 0.000000 0.164232 -0.022010 -0.007794
    28 -0.000005 0.000007 3.713254 -0.100536 -3.048327 5.717422
    29 18.045723 0.000000 0.000000 0.000000 0.000000 -0.377499
    30 17.597597 0.000000 0.000000 -0.057126 -0.017066 -0.189541
    31 0.000005 -0.000003 -3.713254 0.806749 2.830659 6.162532
    32 18.045721 0.000000 0.000000 0.000000 0.000000 -0.789807
    33 17.597597 0.000000 0.000000 0.178123 0.116634 0.483738
  time 31
    0 0.375977 3.043213 0.368674 0.000000 0.000000 -1.571017
    1 -0.300794 0.031251 0.000000 -1.570795 -1.570787 0.000000
    2 1.293670 0.684478 -0.000001 -0.064906 -0.012369 -0.040301
    3 5.309685 -0.003834 0.000000 -0.004033 0.012045 0.016050
    4 4.826790 -0.004591 0.000000 -0.007878 0.002109 0.020978
    5 5.792767 -0.005304 0.000000 -0.029428 -0.011637 0.034449
    6 6.662322 -0.001452 0.000000 -0.091910 0.032655 0.231870
    7 -3.518356 0.356631 4.277124 0.872834 -1.333056 -4.237016
    8 4.827512 0.000000 -0.000002 -0.497358 0.050475 -0.992435
    9 11.140032 0.000000 0.000000 0.000000 0.000000 -1.657560
    10 10.314563 -0.000001 0.000001 -1.924215 -0.281485 -0.132951
    11 1.646836 0.445664 -1.699647 -0.392035 3.352851 -0.875707
    12 0.928312 0.000000 0.000000 0.000000 0.000000 0.593404
    13 0.928313 0.000000 -0.000001 0.000000 0.000000 1.204231
    14 2.979373 -0.388274 -0.044205 -0.030851 -0.030823 0.768363
    15 1.435262 -0.000001 -0.000001 0.000000 0.000000 1.204014
    16 1.482593 -0.000001 0.000001 0.000000 0.000000 1.153221
    17 -2.975371 1.071532 -4.156022 -1.312199 0.890864 -4.611009
    18 4.972047 0.000000 0.000000 0.821722 -0.052037 -0.811294
    19 11.585358 0.000000 0.000001 0.000000 0.000000 -1.126265
    20 10.127058 0.000000 0.000001 1.751093 0.051443 0.319089
    21 1.537458 0.109715 1.664489 -3.079588 0.031470 0.928526
    22 0.928313 0.000000 0.000002 0.000000 0.000000 0.061034
    23 0.928311 0.000000 0.000001 0.000000 0.000000 0.671897
    24 2.686395 -0.427337 0.044204 -0.001208 0.043611 -0.052337
    25 1.435260 0.000000 0.000001 0.000000 0.000000 1.186618
    26 1.482593 0.000000 -0.000001 0.000000 0.000000 1.684243
    27 2.046984 0.000001 0.000000 0.180776 0.012923 -0.144172
    28 -0.000005 0.000007 3.713254 -0.100441 -3.048231 5.714929
    29 18.045723 0.000000 0.000000 0.000000 0.000000 -0.387121
    30 17.597597 0.000000 0.000000 -0.057151 -0.016918 -0.182343
    31 0.000005 -0.000003 -3.713254 0.807037 2.830755 6.165791
    32 18.045721 0.000000 0.000000 0.000000 0.000000 -0.787839
    33 17.597597 0.000000 0.000000 0.178257 0.118863 0.484153
  time 32
    0 0.395509 2.957272 0.368674 0.000000 0.000000 -1.571017
    1 -0.300794 0.031251 0.000000 -1.570795 -1.570787 0.000000
    2 1.293670 0.684478 -0.000001 -0.063997 -0.006724 -0.058549
    3 5.309685 -0.003834 0.000000 -0.000902 0.009228 0.016138
    4 4.826790 -0.004591 0.000000 -0.001927 -0.005860 0.022191
    5 5.792767 -0.005304 0.000000 -0.041462 -0.013363 0.025874
    6 6.662322 -0.001452 0.000000 -0.091910 0.032655 0.231870
    7 -3.518356 0.356631 4.277124 1.131829 -1.253427 -4.491126
    8 4.827512 0.000000 -0.000002 -0.657748 -0.132010 -0.806916
    9 11.140032 0.000000 0.000000 0.000000 0.000000 -1.327173
    10 10.314563 -0.000001 0.000001 -1.938147 -0.232120 0.017781
    11 1.646836 0.445664 -1.699647 -0.392035 3.352851 -0.875707
    12 0.928312 0.000000 0.000000 0.000000 0.000000 0.593404
    13 0.928313 0.000000 -0.000001 0.000000 0.000000 1.204231
    14 2.979373 -0.388274 -0.044205 -0.030851 -0.030823 0.768363
    15 1.435262 -0.000001 -0.000001 0.000000 0.000000 1.204014
    16 1.482593 -0.000001 0.000001 0.000000 0.000000 1.153221
    17 -2.975371 1.071532 -4.156022 -1.355857 0.812045 -4.645202
    18 4.972047 0.000000 0.000000 0.739085 0.290895 -0.835054
    19 11.585358 0.000000 0.000001 0.000000 0.000000 -0.779698
    20 10.127058 0.000000 0.000001 1.956135 0.051159 0.371212
    21 1.537458 0.109715 1.664489 -3.079588 0.031470 0.928526
    22 0.928313 0.000000 0.000002 0.000000 0.000000 0.061034
    23 0.928311 0.000000 0.000001 0.000000 0.000000 0.671897
    24 2.686395 -0.427337 0.044204 -0.001208 0.043611 -0.052337
    25 1.435260 0.000000 0.000001 0.000000 0.000000 1.186618
    26 1.482593 0.000000 -0.000001 0.000000 0.000000 1.684243
    27 2.046984 0.000001 0.000000 0.177157 0.045052 -0.285052
    28 -0.000005 0.000007 3.713254 -0.100249 -3.048231 5.712724
    29 18.045723 0.000000 0.000000 0.000000 0.000000 -0.396224
    30 17.597597 0.000000 0.000000 -0.057202 -0.016845 -0.175557
    31 0.000005 -0.000003 -3.713254 0.807037 2.830947 6.168859
    32 18.045721 0.000000 0.000000 0.000000 0.000000 -0.786107
    33 17.597597 0.000000 0.000000 0.178458 0.121012 0.484523
  time 33
    0 0.407228 2.875239 0.368674 0.000000 0.000000 -1.571017
    1 -0.300794 0.031251 0.000000 -1.570795 -1.570787 0.000000
    2 1.293670 0.684478 -0.000001 -0.063171 -0.001187 -0.076395
    3 5.309685 -0.003834 0.000000 0.002127 0.006520 0.016209
    4 4.826790 -0.004591 0.000000 0.004006 -0.013614 0.022896
    5 5.792767 -0.005304 0.000000 -0.040059 -0.014310 0.016800
    6 6.662322 -0.001452 0.000000 -0.091910 0.032655 0.231870
    7 -3.518356 0.356631 4.277124 1.284811 -1.158894 -4.640794
    8 4.827512 0.000000 -0.000002 -0.803072 -0.341528 -0.831525
    9 11.140032 0.000000 0.000000 0.000000 0.000000 -0.852024
    10 10.314563 -0.000001 0.000001 -1.944213 -0.181068 0.170894
    11 1.646836 0.445664 -1.699647 -0.392035 3.352851 -0.875707
    12 0.928312 0.000000 0.000000 0.000000 0.000000 0.593404
    13 0.928313 0.000000 -0.000001 0.000000 0.000000 1.204231
    14 2.979373 -0.388274 -0.044205 -0.030851 -0.030823 0.768363
    15 1.435262 -0.000001 -0.000001 0.000000 0.000000 1.204014
    16 1.482593 -0.000001 0.000001 0.000000 0.000000 1.153221
    17 -2.975371 1.071532 -4.156022 -1.395312 0.723683 -4.673936
    18 4.972047 0.000000 0.000000 0.646318 0.543031 -0.875720
    19 11.585358 0.000000 0.000001 0.000000 0.000000 -0.494227
    20 10.127058 0.000000 0.000001 2.140070 0.046431 0.400725
    21 1.537458 0.109715 1.664489 -3.079588 0.031470 0.928526
    22 0.928313 0.000000 0.000002 0.000000 0.000000 0.061034
    23 0.928311 0.000000 0.000001 0.000000 0.000000 0.671897
    24 2.686395 -0.427337 0.044204 -0.001208 0.043611 -0.052337
    25 1.435260 0.000000 0.000001 0.000000 0.000000 1.186618
    26 1.482593 0.000000 -0.000001 0.000000 0.000000 1.684243
    27 2.046984 0.000001 0.000000 0.153160 0.068537 -0.423924
    28 -0.000005 0.000007 3.713254 -0.099961 -3.048040 5.710616
    29 18.045723 0.000000 0.000000 0.000000 0.000000 -0.404810
    30 17.597597 0.000000 0.000000 -0.057278 -0.016771 -0.169001
    31 0.000005 -0.000003 -3.713254 0.807324 2.831234 6.172023
    32 18.045721 0.000000 0.000000 0.000000 0.000000 -0.784218
    33 17.597597 0.000000 0.000000 0.178592 0.123143 0.484846
  time 34
    0 0.418947 2.793205 0.368674 0.000000 0.000000 -1.571017
    1 -0.300794 0.031251 0.000000 -1.570795 -1.570787 0.000000
    2 1.293670 0.684478 -0.000001 -0.062447 0.004445 -0.094676
    3 5.309685 -0.003834 0.000000 0.005275 0.003679 0.016297
    4 4.826790 -0.004591 0.000000 0.009823 -0.021692 0.026270
    5 5.792767 -0.005304 0.000000 -0.033025 -0.014513 0.010572
    6 6.662322 -0.001452 0.000000 -0.091910 0.032655 0.231870
    7 -3.518356 0.356631 4.277124 1.379418 -1.057945 -4.734025
    8 4.827512 0.000000 -0.000002 -0.929663 -0.496896 -0.822513
    9 11.140032 0.000000 0.000000 0.000000 0.000000 -0.525332
    10 10.314563 -0.000001 0.000001 -1.941654 -0.130485 0.323543
    11 1.646836 0.445664 -1.699647 -0.392035 3.352851 -0.875707
    12 0.928312 0.000000 0.000000 0.000000 0.000000 0.593404
    13 0.928313 0.000000 -0.000001 0.000000 0.000000 1.204231
    14 2.979373 -0.388274 -0.044205 -0.030851 -0.030823 0.768363
    15 1.435262 -0.000001 -0.000001 0.000000 0.000000 1.204014
    16 1.482593 -0.000001 0.000001 0.000000 0.000000 1.153221
    17 -2.975371 1.071532 -4.156022 -1.395312 0.723683 -4.673936
    18 4.972047 0.000000 0.000000 0.696125 0.604017 -0.784339
    19 11.585358 0.000000 0.000001 0.000000 0.000000 -0.587015
    20 10.127058 0.000000 0.000001 2.161668 0.015319 0.362208
    21 1.537458 0.109715 1.664489 -3.079588 0.031470 0.928526
    22 0.928313 0.000000 0.000002 0.000000 0.000000 0.061034
    23 0.928311 0.000000 0.000001 0.000000 0.000000 0.671897
    24 2.686395 -0.427337 0.044204 -0.001208 0.043611 -0.052337
    25 1.435260 0.000000 0.000001 0.000000 0.000000 1.186618
    26 1.482593 0.000000 -0.000001 0.000000 0.000000 1.684243
    27 2.046984 0.000001 0.000000 0.123519 0.084085 -0.552820
    28 -0.000005 0.000007 3.713254 -0.099865 -3.047848 5.708602
    29 18.045723 0.000000 0.000000 0.000000 0.000000 -0.413544
    30 17.597597 0.000000 0.000000 -0.057278 -0.016771 -0.162308
    31 0.000005 -0.000003 -3.713254 0.807516 2.831522 6.175187
    32 18.045721 0.000000 0.000000 0.000000 0.000000 -0.782250
    33 17.597597 0.000000 0.000000 0.178794 0.125233 0.485354
end
