version 1
nodes
  0 "Bip01" -1
  1 "Bip01 Pelvis" 0
  2 "Bip01 Spine" 1
  3 "Bip01 Spine1" 2
  4 "Bip01 Spine2" 3
  5 "Bip01 Spine3" 4
  6 "Bip01 Neck" 5
  7 "Bip01 L Arm" 6
  8 "Bip01 L Arm1" 7
  9 "Bip01 L Arm2" 8
  10 "Bip01 L Hand" 9
  11 "Bip01 L Finger0" 10
  12 "Bip01 L Finger01" 11
  13 "Bip01 L Finger02" 12
  14 "Bip01 L Finger1" 10
  15 "Bip01 L Finger11" 14
  16 "Bip01 L Finger12" 15
  17 "Bip01 R Arm" 6
  18 "Bip01 R Arm1" 17
  19 "Bip01 R Arm2" 18
  20 "Bip01 R Hand" 19
  21 "Bip01 R Finger0" 20
  22 "Bip01 R Finger01" 21
  23 "Bip01 R Finger02" 22
  24 "Bip01 R Finger1" 20
  25 "Bip01 R Finger11" 24
  26 "Bip01 R Finger12" 25
  27 "Bip01 Head" 6
  28 "Bip01 L Leg" 1
  29 "Bip01 L Leg1" 28
  30 "Bip01 L Foot" 29
  31 "Bip01 R Leg" 1
  32 "Bip01 R Leg1" 31
  33 "Bip01 R Foot" 32
end
skeleton
  time 0
    0 0.387696 2.218969 0.368674 0.000000 0.000000 -1.571017
    1 -0.871124 0.058596 0.000000 -1.570795 -1.570787 0.000000
    2 1.293670 0.684478 -0.000001 -0.061032 -0.010523 -0.052221
    3 5.309685 -0.003834 0.000000 -0.144968 -0.006831 0.022408
    4 4.826790 -0.004591 0.000000 -0.099759 0.005765 0.184356
    5 5.792767 -0.005304 0.000000 -0.176855 -0.005333 0.178667
    6 6.662322 -0.001452 0.000000 -0.091910 0.032655 0.231870
    7 -3.518356 0.356631 4.277124 0.678828 -1.401154 -4.049116
    8 4.827512 0.000000 -0.000002 -0.663887 0.752278 -1.091043
    9 11.140032 0.000000 0.000000 0.000000 0.000000 -0.662196
    10 10.314563 -0.000001 0.000001 -3.787233 0.614584 0.029452
    11 1.646836 0.445664 -1.699647 -0.392035 3.352851 -0.875707
    12 0.928312 0.000000 0.000000 0.000000 0.000000 0.593404
    13 0.928313 0.000000 -0.000001 0.000000 0.000000 1.204231
    14 2.979373 -0.388274 -0.044205 -0.030851 -0.030823 0.768363
    15 1.435262 -0.000001 -0.000001 0.000000 0.000000 1.204014
    16 1.482593 -0.000001 0.000001 0.000000 0.000000 0.445026
    17 -2.975371 1.071532 -4.156022 -1.403145 0.725234 -4.686004
    18 4.972047 0.000000 0.000000 0.744432 -0.482148 -1.377480
    19 11.585358 0.000000 0.000001 0.000000 0.000000 -0.194870
    20 10.127058 0.000000 0.000001 2.209142 0.210594 0.399024
    21 1.537458 0.109715 1.664489 -3.079588 0.031470 0.928526
    22 0.928313 0.000000 0.000002 0.000000 0.000000 0.061034
    23 0.928311 0.000000 0.000001 0.000000 0.000000 0.671897
    24 2.686395 -0.427337 0.044204 -0.001208 0.043611 -0.052337
    25 1.435260 0.000000 0.000001 0.000000 0.000000 1.186618
    26 1.482593 0.000000 -0.000001 0.000000 0.000000 1.684243
    27 2.046984 0.000001 0.000000 0.473180 -0.265738 0.196955
    28 -0.000005 0.000007 3.713254 -0.099865 -3.047848 5.708602
    29 18.045723 0.000000 0.000000 0.000000 0.000000 -0.413544
    30 17.597597 0.000000 0.000000 -0.057202 -0.016721 -0.162308
    31 0.000005 -0.000003 -3.713254 0.807899 2.831522 6.175283
    32 18.045721 0.000000 0.000000 0.000000 0.000000 -0.782250
    33 17.597597 0.000000 0.000000 0.178424 0.125292 0.485216
  time 1
    0 0.387696 2.218969 0.368674 0.000000 0.000000 -1.571017
    1 -0.839873 0.039064 0.000000 -1.570795 -1.570787 0.000000
    2 1.293670 0.684478 -0.000001 -0.061032 -0.010523 -0.052221
    3 5.309685 -0.003834 0.000000 -0.145394 -0.005177 0.028061
    4 4.826790 -0.004591 0.000000 -0.098519 0.003787 0.169826
    5 5.792767 -0.005304 0.000000 -0.176999 -0.008401 0.161517
    6 6.662322 -0.001452 0.000000 -0.091910 0.032655 0.231870
    7 -3.518356 0.356631 4.277124 0.678828 -1.401154 -4.049116
    8 4.827512 0.000000 -0.000002 -0.655277 0.776069 -1.081598
    9 11.140032 0.000000 0.000000 0.000000 0.000000 -0.665239
    10 10.314563 -0.000001 0.000001 -3.787612 0.616270 0.032355
    11 1.646836 0.445664 -1.699647 -0.392035 3.352851 -0.875707
    12 0.928312 0.000000 0.000000 0.000000 0.000000 0.593404
    13 0.928313 0.000000 -0.000001 0.000000 0.000000 1.204231
    14 2.979373 -0.388274 -0.044205 -0.030851 -0.030823 0.768363
    15 1.435262 -0.000001 -0.000001 0.000000 0.000000 1.204014
    16 1.482593 -0.000001 0.000001 0.000000 0.000000 0.445026
    17 -2.975371 1.071532 -4.156022 -1.401904 0.724997 -4.683802
    18 4.972047 0.000000 0.000000 0.756907 -0.503681 -1.378945
    19 11.585358 0.000000 0.000001 0.000000 0.000000 -0.194870
    20 10.127058 0.000000 0.000001 2.209283 0.210405 0.399474
    21 1.537458 0.109715 1.664489 -3.079588 0.031470 0.928526
    22 0.928313 0.000000 0.000002 0.000000 0.000000 0.061034
    23 0.928311 0.000000 0.000001 0.000000 0.000000 0.671897
    24 2.686395 -0.427337 0.044204 -0.001208 0.043611 -0.052337
    25 1.435260 0.000000 0.000001 0.000000 0.000000 1.186618
    26 1.482593 0.000000 -0.000001 0.000000 0.000000 1.684243
    27 2.046984 0.000001 0.000000 0.470638 -0.268629 0.223355
    28 -0.000005 0.000007 3.713254 -0.099769 -3.047369 5.708123
    29 18.045723 0.000000 0.000000 0.000000 0.000000 -0.416060
    30 17.597597 0.000000 0.000000 -0.057075 -0.017214 -0.160290
    31 0.000005 -0.000003 -3.713254 0.808091 2.832097 6.176433
    32 18.045721 0.000000 0.000000 0.000000 0.000000 -0.781699
    33 17.597597 0.000000 0.000000 0.178458 0.125667 0.485862
  time 2
    0 0.387696 2.218969 0.368674 0.000000 0.000000 -1.571017
    1 -0.808622 0.031251 0.000000 -1.570795 -1.570787 0.000000
    2 1.293670 0.684478 -0.000001 -0.061032 -0.010523 -0.052221
    3 5.309685 -0.003834 0.000000 -0.145802 -0.003428 0.034119
    4 4.826790 -0.004591 0.000000 -0.097184 0.001738 0.154238
    5 5.792767 -0.005304 0.000000 -0.177089 -0.011637 0.143744
    6 6.662322 -0.001452 0.000000 -0.091910 0.032655 0.231870
    7 -3.518356 0.356631 4.277124 0.678828 -1.401154 -4.049116
    8 4.827512 0.000000 -0.000002 -0.645870 0.801737 -1.072066
    9 11.140032 0.000000 0.000000 0.000000 0.000000 -0.668065
    10 10.314563 -0.000001 0.000001 -3.788181 0.617113 0.035200
    11 1.646836 0.445664 -1.699647 -0.392035 3.352851 -0.875707
    12 0.928312 0.000000 0.000000 0.000000 0.000000 0.593404
    13 0.928313 0.000000 -0.000001 0.000000 0.000000 1.204231
    14 2.979373 -0.388274 -0.044205 -0.030851 -0.030823 0.768363
    15 1.435262 -0.000001 -0.000001 0.000000 0.000000 1.204014
    16 1.482593 -0.000001 0.000001 0.000000 0.000000 0.445026
    17 -2.975371 1.071532 -4.156022 -1.403145 0.725234 -4.686004
    18 4.972047 0.000000 0.000000 0.773884 -0.528107 -1.382139
    19 11.585358 0.000000 0.000001 0.000000 0.000000 -0.194870
    20 10.127058 0.000000 0.000001 2.209142 0.210594 0.399024
    21 1.537458 0.109715 1.664489 -3.079588 0.031470 0.928526
    22 0.928313 0.000000 0.000002 0.000000 0.000000 0.061034
    23 0.928311 0.000000 0.000001 0.000000 0.000000 0.671897
    24 2.686395 -0.427337 0.044204 -0.001208 0.043611 -0.052337
    25 1.435260 0.000000 0.000001 0.000000 0.000000 1.186618
    26 1.482593 0.000000 -0.000001 0.000000 0.000000 1.684243
    27 2.046984 0.000001 0.000000 0.467924 -0.271609 0.251336
    28 -0.000005 0.000007 3.713254 -0.099482 -3.046793 5.707644
    29 18.045723 0.000000 0.000000 0.000000 0.000000 -0.418799
    30 17.597597 0.000000 0.000000 -0.056873 -0.017706 -0.158227
    31 0.000005 -0.000003 -3.713254 0.808379 2.832768 6.177583
    32 18.045721 0.000000 0.000000 0.000000 0.000000 -0.781069
    33 17.597597 0.000000 0.000000 0.178458 0.126081 0.486417
  time 3
    0 0.387696 2.218969 0.368674 0.000000 0.000000 -1.571017
    1 -0.777371 0.019532 0.000000 -1.570795 -1.570787 0.000000
    2 1.293670 0.684478 -0.000001 -0.061032 -0.010523 -0.052221
    3 5.309685 -0.003834 0.000000 -0.146228 -0.001654 0.040196
    4 4.826790 -0.004591 0.000000 -0.095868 -0.000240 0.139179
    5 5.792767 -0.005304 0.000000 -0.177143 -0.014801 0.126262
    6 6.662322 -0.001452 0.000000 -0.090460 0.036490 0.273880
    7 -3.498824 0.497261 4.277124 0.678828 -1.401154 -4.091276
    8 4.827512 0.000000 -0.000002 -0.636384 0.828257 -1.063141
    9 11.140032 0.000000 0.000000 0.000000 0.000000 -0.670891
    10 10.314563 -0.000001 0.000001 -3.789129 0.616176 0.037639
    11 1.646836 0.445664 -1.699647 -0.392035 3.352851 -0.875707
    12 0.928312 0.000000 0.000000 0.000000 0.000000 0.593404
    13 0.928313 0.000000 -0.000001 0.000000 0.000000 1.204231
    14 2.979373 -0.388274 -0.044205 -0.030851 -0.030823 0.768363
    15 1.435262 -0.000001 -0.000001 0.000000 0.000000 1.204014
    16 1.482593 -0.000001 0.000001 0.000000 0.000000 0.445026
    17 -2.932401 1.192629 -4.156022 -1.410024 0.726522 -4.738396
    18 4.972047 0.000000 0.000000 0.797334 -0.555667 -1.388595
    19 11.585358 0.000000 0.000001 0.000000 0.000000 -0.195115
    20 10.127058 0.000000 0.000001 2.208511 0.211635 0.396773
    21 1.537458 0.109715 1.664489 -3.079588 0.031470 0.928526
    22 0.928313 0.000000 0.000002 0.000000 0.000000 0.061034
    23 0.928311 0.000000 0.000001 0.000000 0.000000 0.671897
    24 2.686395 -0.427337 0.044204 -0.001208 0.043611 -0.052337
    25 1.435260 0.000000 0.000001 0.000000 0.000000 1.186618
    26 1.482593 0.000000 -0.000001 0.000000 0.000000 1.684243
    27 2.046984 0.000001 0.000000 0.466114 -0.269632 0.227491
    28 -0.000005 0.000007 3.713254 -0.099290 -3.046218 5.707069
    29 18.045723 0.000000 0.000000 0.000000 0.000000 -0.421315
    30 17.597597 0.000000 0.000000 -0.056721 -0.018124 -0.156210
    31 0.000005 -0.000003 -3.713254 0.808474 2.833343 6.178734
    32 18.045721 0.000000 0.000000 0.000000 0.000000 -0.780360
    33 17.597597 0.000000 0.000000 0.178458 0.126456 0.486971
  time 4
    0 0.387696 2.218969 0.368674 0.000000 0.000000 -1.571017
    1 -0.757840 0.007813 0.000000 -1.570795 -1.570787 0.000000
    2 1.293670 0.684478 -0.000001 -0.061032 -0.010523 -0.052221
    3 5.309685 -0.003834 0.000000 -0.146585 0.000000 0.045830
    4 4.826790 -0.004591 0.000000 -0.094666 -0.001930 0.126281
    5 5.792767 -0.005304 0.000000 -0.177107 -0.017629 0.110088
    6 6.662322 -0.001452 0.000000 -0.088854 0.040242 0.315833
    7 -3.475386 0.645703 4.277124 0.678828 -1.401154 -4.133436
    8 4.827512 0.000000 -0.000002 -0.627137 0.852730 -1.054736
    9 11.140032 0.000000 0.000000 0.000000 0.000000 -0.674223
    10 10.314563 -0.000001 0.000001 -3.790171 0.614490 0.039962
    11 1.646836 0.445664 -1.699647 -0.392035 3.352851 -0.875707
    12 0.928312 0.000000 0.000000 0.000000 0.000000 0.593404
    13 0.928313 0.000000 -0.000001 0.000000 0.000000 1.204231
    14 2.979373 -0.388274 -0.044205 -0.030851 -0.030823 0.768363
    15 1.435262 -0.000001 -0.000001 0.000000 0.000000 1.204014
    16 1.482593 -0.000001 0.000001 0.000000 0.000000 0.445026
    17 -2.877712 1.317633 -4.156022 -1.418431 0.728021 -4.793183
    18 4.972047 0.000000 0.000000 0.821815 -0.581540 -1.396715
    19 11.585358 0.000000 0.000001 0.000000 0.000000 -0.195442
    20 10.127058 0.000000 0.000001 2.207810 0.212958 0.393972
    21 1.537458 0.109715 1.664489 -3.079588 0.031470 0.928526
    22 0.928313 0.000000 0.000002 0.000000 0.000000 0.061034
    23 0.928311 0.000000 0.000001 0.000000 0.000000 0.671897
    24 2.686395 -0.427337 0.044204 -0.001208 0.043611 -0.052337
    25 1.435260 0.000000 0.000001 0.000000 0.000000 1.186618
    26 1.482593 0.000000 -0.000001 0.000000 0.000000 1.684243
    27 2.046984 0.000001 0.000000 0.464649 -0.267272 0.200544
    28 -0.000005 0.000007 3.713254 -0.099194 -3.045835 5.706685
    29 18.045723 0.000000 0.000000 0.000000 0.000000 -0.423388
    30 17.597597 0.000000 0.000000 -0.056619 -0.018543 -0.154514
    31 0.000005 -0.000003 -3.713254 0.808762 2.833823 6.179693
    32 18.045721 0.000000 0.000000 0.000000 0.000000 -0.779731
    33 17.597597 0.000000 0.000000 0.178458 0.126752 0.487479
  time 5
    0 0.387696 2.218969 0.368674 0.000000 0.000000 -1.571017
    1 -0.746121 0.000000 0.000000 -1.570795 -1.570787 0.000000
    2 1.293670 0.684478 -0.000001 -0.061032 -0.010523 -0.052221
    3 5.309685 -0.003834 0.000000 -0.146908 0.001402 0.050688
    4 4.826790 -0.004591 0.000000 -0.093865 -0.003116 0.117131
    5 5.792767 -0.005304 0.000000 -0.177017 -0.019930 0.096052
    6 6.662322 -0.001452 0.000000 -0.087056 0.043953 0.357843
    7 -3.444135 0.794145 4.277124 0.678828 -1.401154 -4.175405
    8 4.827512 0.000000 -0.000002 -0.619165 0.872684 -1.047544
    9 11.140032 0.000000 0.000000 0.000000 0.000000 -0.677918
    10 10.314563 -0.000001 0.000001 -3.791024 0.612335 0.042110
    11 1.646836 0.445664 -1.699647 -0.392035 3.352851 -0.875707
    12 0.928312 0.000000 0.000000 0.000000 0.000000 0.593404
    13 0.928313 0.000000 -0.000001 0.000000 0.000000 1.204231
    14 2.979373 -0.388274 -0.044205 -0.030851 -0.030823 0.768363
    15 1.435262 -0.000001 -0.000001 0.000000 0.000000 1.204014
    16 1.482593 -0.000001 0.000001 0.000000 0.000000 0.445026
    17 -2.830835 1.427012 -4.156022 -1.427602 0.729519 -4.848927
    18 4.972047 0.000000 0.000000 0.844515 -0.603234 -1.405367
    19 11.585358 0.000000 0.000001 0.000000 0.000000 -0.195769
    20 10.127058 0.000000 0.000001 2.206968 0.214282 0.391020
    21 1.537458 0.109715 1.664489 -3.079588 0.031470 0.928526
    22 0.928313 0.000000 0.000002 0.000000 0.000000 0.061034
    23 0.928311 0.000000 0.000001 0.000000 0.000000 0.671897
    24 2.686395 -0.427337 0.044204 -0.001208 0.043611 -0.052337
    25 1.435260 0.000000 0.000001 0.000000 0.000000 1.186618
    26 1.482593 0.000000 -0.000001 0.000000 0.000000 1.684243
    27 2.046984 0.000001 0.000000 0.463831 -0.264410 0.168305
    28 -0.000005 0.000007 3.713254 -0.099194 -3.045547 5.706494
    29 18.045723 0.000000 0.000000 0.000000 0.000000 -0.424646
    30 17.597597 0.000000 0.000000 -0.056543 -0.018764 -0.153551
    31 0.000005 -0.000003 -3.713254 0.808762 2.834110 6.180268
    32 18.045721 0.000000 0.000000 0.000000 0.000000 -0.779495
    33 17.597597 0.000000 0.000000 0.178458 0.126949 0.487756
  time 6
    0 0.387696 2.218969 0.368674 0.000000 0.000000 -1.571017
    1 -0.734401 0.000000 0.000000 -1.570795 -1.570787 0.000000
    2 1.293670 0.684478 -0.000001 -0.061032 -0.010523 -0.052221
    3 5.309685 -0.003834 0.000000 -0.147164 0.002493 0.054327
    4 4.826790 -0.004591 0.000000 -0.093369 -0.003775 0.111751
    5 5.792767 -0.005304 0.000000 -0.176837 -0.021800 0.082515
    6 6.662322 -0.001452 0.000000 -0.085163 0.047581 0.399825
    7 -3.405072 0.938680 4.277124 0.678828 -1.401154 -4.217565
    8 4.827512 0.000000 -0.000002 -0.612310 0.890165 -1.041219
    9 11.140032 0.000000 0.000000 0.000000 0.000000 -0.681396
    10 10.314563 -0.000001 0.000001 -3.791782 0.609994 0.043968
    11 1.646836 0.445664 -1.699647 -0.392035 3.352851 -0.875707
    12 0.928312 0.000000 0.000000 0.000000 0.000000 0.593404
    13 0.928313 0.000000 -0.000001 0.000000 0.000000 1.204231
    14 2.979373 -0.388274 -0.044205 -0.030851 -0.030823 0.768363
    15 1.435262 -0.000001 -0.000001 0.000000 0.000000 1.204014
    16 1.482593 -0.000001 0.000001 0.000000 0.000000 0.445026
    17 -2.768333 1.544203 -4.156022 -1.436295 0.730913 -4.904288
    18 4.972047 0.000000 0.000000 0.865244 -0.622277 -1.414019
    19 11.585358 0.000000 0.000001 0.000000 0.000000 -0.196177
    20 10.127058 0.000000 0.000001 2.206127 0.215701 0.388119
    21 1.537458 0.109715 1.664489 -3.079588 0.031470 0.928526
    22 0.928313 0.000000 0.000002 0.000000 0.000000 0.061034
    23 0.928311 0.000000 0.000001 0.000000 0.000000 0.671897
    24 2.686395 -0.427337 0.044204 -0.001208 0.043611 -0.052337
    25 1.435260 0.000000 0.000001 0.000000 0.000000 1.186618
    26 1.482593 0.000000 -0.000001 0.000000 0.000000 1.684243
    27 2.046984 0.000001 0.000000 0.463228 -0.261342 0.132842
    28 -0.000005 0.000007 3.713254 -0.099098 -3.045355 5.706302
    29 18.045723 0.000000 0.000000 0.000000 0.000000 -0.425460
    30 17.597597 0.000000 0.000000 -0.056493 -0.018986 -0.152909
    31 0.000005 -0.000003 -3.713254 0.808954 2.834302 6.180651
    32 18.045721 0.000000 0.000000 0.000000 0.000000 -0.779180
    33 17.597597 0.000000 0.000000 0.178458 0.127087 0.487941
  time 7
    0 0.387696 2.218969 0.368674 0.000000 0.000000 -1.571017
    1 -0.722682 0.000000 0.000000 -1.570795 -1.570787 0.000000
    2 1.293670 0.684478 -0.000001 -0.061032 -0.010523 -0.052221
    3 5.309685 -0.003834 0.000000 -0.147283 0.003224 0.056800
    4 4.826790 -0.004591 0.000000 -0.093121 -0.004147 0.109061
    5 5.792767 -0.005304 0.000000 -0.176622 -0.023142 0.070078
    6 6.662322 -0.001452 0.000000 -0.083065 0.051127 0.441835
    7 -3.362102 1.079310 4.277124 0.678828 -1.401154 -4.259725
    8 4.827512 0.000000 -0.000002 -0.606411 0.904832 -1.035933
    9 11.140032 0.000000 0.000000 0.000000 0.000000 -0.684294
    10 10.314563 -0.000001 0.000001 -3.792446 0.607933 0.045304
    11 1.646836 0.445664 -1.699647 -0.392035 3.352851 -0.875707
    12 0.928312 0.000000 0.000000 0.000000 0.000000 0.593404
    13 0.928313 0.000000 -0.000001 0.000000 0.000000 1.204231
    14 2.979373 -0.388274 -0.044205 -0.030851 -0.030823 0.768363
    15 1.435262 -0.000001 -0.000001 0.000000 0.000000 1.204014
    16 1.482593 -0.000001 0.000001 0.000000 0.000000 0.445026
    17 -2.701925 1.661394 -4.156022 -1.443938 0.732017 -4.957829
    18 4.972047 0.000000 0.000000 0.882972 -0.638106 -1.422006
    19 11.585358 0.000000 0.000001 0.000000 0.000000 -0.196504
    20 10.127058 0.000000 0.000001 2.205496 0.216930 0.385668
    21 1.537458 0.109715 1.664489 -3.079588 0.031470 0.928526
    22 0.928313 0.000000 0.000002 0.000000 0.000000 0.061034
    23 0.928311 0.000000 0.000001 0.000000 0.000000 0.671897
    24 2.686395 -0.427337 0.044204 -0.001208 0.043611 -0.052337
    25 1.435260 0.000000 0.000001 0.000000 0.000000 1.186618
    26 1.482593 0.000000 -0.000001 0.000000 0.000000 1.684243
    27 2.046984 0.000001 0.000000 0.462797 -0.258185 0.094824
    28 -0.000005 0.000007 3.713254 -0.099098 -3.045163 5.706206
    29 18.045723 0.000000 0.000000 0.000000 0.000000 -0.426126
    30 17.597597 0.000000 0.000000 -0.056417 -0.019109 -0.152359
    31 0.000005 -0.000003 -3.713254 0.809049 2.834494 6.180939
    32 18.045721 0.000000 0.000000 0.000000 0.000000 -0.779180
    33 17.597597 0.000000 0.000000 0.178458 0.127166 0.488033
  time 8
    0 0.387696 2.218969 0.368674 0.000000 0.000000 -1.571017
    1 -0.722682 0.000000 0.000000 -1.570795 -1.570787 0.000000
    2 1.293670 0.684478 -0.000001 -0.061032 -0.010523 -0.052221
    3 5.309685 -0.003834 0.000000 -0.147402 0.003643 0.058319
    4 4.826790 -0.004591 0.000000 -0.093121 -0.004147 0.109061
    5 5.792767 -0.005304 0.000000 -0.176424 -0.023682 0.062811
    6 6.662322 -0.001452 0.000000 -0.083065 0.051127 0.441835
    7 -3.362102 1.079310 4.277124 0.678828 -1.401154 -4.259725
    8 4.827512 0.000000 -0.000002 -0.604099 0.912166 -1.034113
    9 11.140032 0.000000 0.000000 0.000000 0.000000 -0.685526
    10 10.314563 -0.000001 0.000001 -3.792825 0.606247 0.045652
    11 1.646836 0.445664 -1.699647 -0.392035 3.352851 -0.875707
    12 0.928312 0.000000 0.000000 0.000000 0.000000 0.593404
    13 0.928313 0.000000 -0.000001 0.000000 0.000000 1.204231
    14 2.979373 -0.388274 -0.044205 -0.030851 -0.030823 0.768363
    15 1.435262 -0.000001 -0.000001 0.000000 0.000000 1.204014
    16 1.482593 -0.000001 0.000001 0.000000 0.000000 0.445026
    17 -2.701925 1.661394 -4.156022 -1.449287 0.732753 -4.965779
    18 4.972047 0.000000 0.000000 0.893290 -0.646462 -1.426931
    19 11.585358 0.000000 0.000001 0.000000 0.000000 -0.196749
    20 10.127058 0.000000 0.000001 2.205005 0.217781 0.383967
    21 1.537458 0.109715 1.664489 -3.079588 0.031470 0.928526
    22 0.928313 0.000000 0.000002 0.000000 0.000000 0.061034
    23 0.928311 0.000000 0.000001 0.000000 0.000000 0.671897
    24 2.686395 -0.427337 0.044204 -0.001208 0.043611 -0.052337
    25 1.435260 0.000000 0.000001 0.000000 0.000000 1.186618
    26 1.482593 0.000000 -0.000001 0.000000 0.000000 1.684243
    27 2.046984 0.000001 0.000000 0.461246 -0.263938 0.109362
    28 -0.000005 0.000007 3.713254 -0.099002 -3.045259 5.706206
    29 18.045723 0.000000 0.000000 0.000000 0.000000 -0.426052
    30 17.597597 0.000000 0.000000 -0.056467 -0.019109 -0.152405
    31 0.000005 -0.000003 -3.713254 0.809049 2.834494 6.180939
    32 18.045721 0.000000 0.000000 0.000000 0.000000 -0.779180
    33 17.597597 0.000000 0.000000 0.178458 0.127166 0.488033
  time 9
    0 0.387696 2.218969 0.368674 0.000000 0.000000 -1.571017
    1 -0.734401 0.000000 0.000000 -1.570795 -1.570787 0.000000
    2 1.293670 0.684478 -0.000001 -0.061032 -0.010523 -0.052221
    3 5.309685 -0.003834 0.000000 -0.147402 0.003727 0.058584
    4 4.826790 -0.004591 0.000000 -0.093369 -0.003775 0.111751
    5 5.792767 -0.005304 0.000000 -0.176388 -0.022939 0.065012
    6 6.662322 -0.001452 0.000000 -0.083065 0.051127 0.441835
    7 -3.362102 1.079310 4.277124 0.678828 -1.401154 -4.259725
    8 4.827512 0.000000 -0.000002 -0.607367 0.908158 -1.038013
    9 11.140032 0.000000 0.000000 0.000000 0.000000 -0.684149
    10 10.314563 -0.000001 0.000001 -3.792920 0.604935 0.044258
    11 1.646836 0.445664 -1.699647 -0.392035 3.352851 -0.875707
    12 0.928312 0.000000 0.000000 0.000000 0.000000 0.593404
    13 0.928313 0.000000 -0.000001 0.000000 0.000000 1.204231
    14 2.979373 -0.388274 -0.044205 -0.030851 -0.030823 0.768363
    15 1.435262 -0.000001 -0.000001 0.000000 0.000000 1.204014
    16 1.482593 -0.000001 0.000001 0.000000 0.000000 0.445026
    17 -2.701925 1.661394 -4.156022 -1.452726 0.733226 -4.970663
    18 4.972047 0.000000 0.000000 0.894228 -0.644293 -1.427796
    19 11.585358 0.000000 0.000001 0.000000 0.000000 -0.196830
    20 10.127058 0.000000 0.000001 2.204724 0.218254 0.382867
    21 1.537458 0.109715 1.664489 -3.079588 0.031470 0.928526
    22 0.928313 0.000000 0.000002 0.000000 0.000000 0.061034
    23 0.928311 0.000000 0.000001 0.000000 0.000000 0.671897
    24 2.686395 -0.427337 0.044204 -0.001208 0.043611 -0.052337
    25 1.435260 0.000000 0.000001 0.000000 0.000000 1.186618
    26 1.482593 0.000000 -0.000001 0.000000 0.000000 1.684243
    27 2.046984 0.000001 0.000000 0.460772 -0.268334 0.112829
    28 -0.000005 0.000007 3.713254 -0.099098 -3.045451 5.706398
    29 18.045723 0.000000 0.000000 0.000000 0.000000 -0.425016
    30 17.597597 0.000000 0.000000 -0.056543 -0.018912 -0.153230
    31 0.000005 -0.000003 -3.713254 0.808954 2.834206 6.180460
    32 18.045721 0.000000 0.000000 0.000000 0.000000 -0.779495
    33 17.597597 0.000000 0.000000 0.178391 0.127008 0.487848
  time 10
    0 0.387696 2.218969 0.368674 0.000000 0.000000 -1.571017
    1 -0.757840 0.007813 0.000000 -1.570795 -1.570787 0.000000
    2 1.293670 0.684478 -0.000001 -0.061032 -0.010523 -0.052221
    3 5.309685 -0.003834 0.000000 -0.147317 0.003380 0.057329
    4 4.826790 -0.004591 0.000000 -0.093865 -0.003116 0.117131
    5 5.792767 -0.005304 0.000000 -0.176514 -0.020853 0.077760
    6 6.662322 -0.001452 0.000000 -0.083065 0.051127 0.441835
    7 -3.362102 1.079310 4.277124 0.678828 -1.401154 -4.259725
    8 4.827512 0.000000 -0.000002 -0.616455 0.892297 -1.048237
    9 11.140032 0.000000 0.000000 0.000000 0.000000 -0.679657
    10 10.314563 -0.000001 0.000001 -3.792920 0.603718 0.041065
    11 1.646836 0.445664 -1.699647 -0.392035 3.352851 -0.875707
    12 0.928312 0.000000 0.000000 0.000000 0.000000 0.593404
    13 0.928313 0.000000 -0.000001 0.000000 0.000000 1.204231
    14 2.979373 -0.388274 -0.044205 -0.030851 -0.030823 0.768363
    15 1.435262 -0.000001 -0.000001 0.000000 0.000000 1.204014
    16 1.482593 -0.000001 0.000001 0.000000 0.000000 0.445026
    17 -2.701925 1.661394 -4.156022 -1.454924 0.733489 -4.973920
    18 4.972047 0.000000 0.000000 0.886161 -0.631357 -1.424801
    19 11.585358 0.000000 0.000001 0.000000 0.000000 -0.196912
    20 10.127058 0.000000 0.000001 2.204514 0.218632 0.382167
    21 1.537458 0.109715 1.664489 -3.079588 0.031470 0.928526
    22 0.928313 0.000000 0.000002 0.000000 0.000000 0.061034
    23 0.928311 0.000000 0.000001 0.000000 0.000000 0.671897
    24 2.686395 -0.427337 0.044204 -0.001208 0.043611 -0.052337
    25 1.435260 0.000000 0.000001 0.000000 0.000000 1.186618
    26 1.482593 0.000000 -0.000001 0.000000 0.000000 1.684243
    27 2.046984 0.000001 0.000000 0.461375 -0.271373 0.104313
    28 -0.000005 0.000007 3.713254 -0.099194 -3.045835 5.706781
    29 18.045723 0.000000 0.000000 0.000000 0.000000 -0.423092
    30 17.597597 0.000000 0.000000 -0.056695 -0.018567 -0.154697
    31 0.000005 -0.000003 -3.713254 0.808762 2.833823 6.179597
    32 18.045721 0.000000 0.000000 0.000000 0.000000 -0.779967
    33 17.597597 0.000000 0.000000 0.178357 0.126713 0.487433
  time 11
    0 0.387696 2.218969 0.368674 0.000000 0.000000 -1.571017
    1 -0.796903 0.019532 0.000000 -1.570795 -1.570787 0.000000
    2 1.293670 0.684478 -0.000001 -0.061032 -0.010523 -0.052221
    3 5.309685 -0.003834 0.000000 -0.147164 0.002493 0.054327
    4 4.826790 -0.004591 0.000000 -0.094761 -0.001786 0.127383
    5 5.792767 -0.005304 0.000000 -0.176658 -0.017797 0.097215
    6 6.662322 -0.001452 0.000000 -0.083065 0.051127 0.441835
    7 -3.362102 1.079310 4.277124 0.678828 -1.401154 -4.259725
    8 4.827512 0.000000 -0.000002 -0.629130 0.866459 -1.062275
    9 11.140032 0.000000 0.000000 0.000000 0.000000 -0.673571
    10 10.314563 -0.000001 0.000001 -3.792541 0.602687 0.036710
    11 1.646836 0.445664 -1.699647 -0.392035 3.352851 -0.875707
    12 0.928312 0.000000 0.000000 0.000000 0.000000 0.593404
    13 0.928313 0.000000 -0.000001 0.000000 0.000000 1.204231
    14 2.979373 -0.388274 -0.044205 -0.030851 -0.030823 0.768363
    15 1.435262 -0.000001 -0.000001 0.000000 0.000000 1.204014
    16 1.482593 -0.000001 0.000001 0.000000 0.000000 0.445026
    17 -2.701925 1.661394 -4.156022 -1.455783 0.733594 -4.975261
    18 4.972047 0.000000 0.000000 0.870497 -0.608859 -1.419011
    19 11.585358 0.000000 0.000001 0.000000 0.000000 -0.196994
    20 10.127058 0.000000 0.000001 2.204444 0.218632 0.381867
    21 1.537458 0.109715 1.664489 -3.079588 0.031470 0.928526
    22 0.928313 0.000000 0.000002 0.000000 0.000000 0.061034
    23 0.928311 0.000000 0.000001 0.000000 0.000000 0.671897
    24 2.686395 -0.427337 0.044204 -0.001208 0.043611 -0.052337
    25 1.435260 0.000000 0.000001 0.000000 0.000000 1.186618
    26 1.482593 0.000000 -0.000001 0.000000 0.000000 1.684243
    27 2.046984 0.000001 0.000000 0.463098 -0.273143 0.085821
    28 -0.000005 0.000007 3.713254 -0.099194 -3.046410 5.707356
    29 18.045723 0.000000 0.000000 0.000000 0.000000 -0.420131
    30 17.597597 0.000000 0.000000 -0.056923 -0.018050 -0.157127
    31 0.000005 -0.000003 -3.713254 0.808666 2.833152 6.178350
    32 18.045721 0.000000 0.000000 0.000000 0.000000 -0.780597
    33 17.597597 0.000000 0.000000 0.178257 0.126239 0.486786
  time 12
    0 0.387696 2.218969 0.368674 0.000000 0.000000 -1.571017
    1 -0.808622 0.031251 0.000000 -1.570795 -1.570787 0.000000
    2 1.293670 0.684478 -0.000001 -0.061032 -0.010523 -0.052221
    3 5.309685 -0.003834 0.000000 -0.146551 -0.000216 0.045071
    4 4.826790 -0.004591 0.000000 -0.096154 0.000180 0.142420
    5 5.792767 -0.005304 0.000000 -0.176819 -0.014274 0.120303
    6 6.662322 -0.001452 0.000000 -0.083065 0.051127 0.441835
    7 -3.362102 1.079310 4.277124 0.678828 -1.401154 -4.259725
    8 4.827512 0.000000 -0.000002 -0.641566 0.838575 -1.075619
    9 11.140032 0.000000 0.000000 0.000000 0.000000 -0.667413
    10 10.314563 -0.000001 0.000001 -3.792067 0.601750 0.032181
    11 1.646836 0.445664 -1.699647 -0.392035 3.352851 -0.875707
    12 0.928312 0.000000 0.000000 0.000000 0.000000 0.593404
    13 0.928313 0.000000 -0.000001 0.000000 0.000000 1.204231
    14 2.979373 -0.388274 -0.044205 -0.030851 -0.030823 0.768363
    15 1.435262 -0.000001 -0.000001 0.000000 0.000000 1.204014
    16 1.482593 -0.000001 0.000001 0.000000 0.000000 0.445026
    17 -2.701925 1.661394 -4.156022 -1.455115 0.733515 -4.974495
    18 4.972047 0.000000 0.000000 0.852206 -0.583950 -1.412489
    19 11.585358 0.000000 0.000001 0.000000 0.000000 -0.196912
    20 10.127058 0.000000 0.000001 2.204514 0.218632 0.382067
    21 1.537458 0.109715 1.664489 -3.079588 0.031470 0.928526
    22 0.928313 0.000000 0.000002 0.000000 0.000000 0.061034
    23 0.928311 0.000000 0.000001 0.000000 0.000000 0.671897
    24 2.686395 -0.427337 0.044204 -0.001208 0.043611 -0.052337
    25 1.435260 0.000000 0.000001 0.000000 0.000000 1.186618
    26 1.482593 0.000000 -0.000001 0.000000 0.000000 1.684243
    27 2.046984 0.000001 0.000000 0.465080 -0.274825 0.065261
    28 -0.000005 0.000007 3.713254 -0.099290 -3.046793 5.707644
    29 18.045723 0.000000 0.000000 0.000000 0.000000 -0.418651
    30 17.597597 0.000000 0.000000 -0.057050 -0.017780 -0.158273
    31 0.000005 -0.000003 -3.713254 0.808474 2.832768 6.177583
    32 18.045721 0.000000 0.000000 0.000000 0.000000 -0.781069
    33 17.597597 0.000000 0.000000 0.178223 0.126022 0.486417
  time 13
    0 0.387696 2.218969 0.368674 0.000000 0.000000 -1.571017
    1 -0.808622 0.031251 0.000000 -1.570795 -1.570787 0.000000
    2 1.293670 0.684478 -0.000001 -0.061032 -0.010523 -0.052221
    3 5.309685 -0.003834 0.000000 -0.145632 -0.004231 0.031382
    4 4.826790 -0.004591 0.000000 -0.097565 0.002385 0.159088
    5 5.792767 -0.005304 0.000000 -0.176891 -0.010678 0.143682
    6 6.662322 -0.001452 0.000000 -0.085163 0.047581 0.399825
    7 -3.405072 0.938680 4.277124 0.678828 -1.401154 -4.217565
    8 4.827512 0.000000 -0.000002 -0.652009 0.812737 -1.086797
    9 11.140032 0.000000 0.000000 0.000000 0.000000 -0.661761
    10 10.314563 -0.000001 0.000001 -3.791498 0.601376 0.028117
    11 1.646836 0.445664 -1.699647 -0.392035 3.352851 -0.875707
    12 0.928312 0.000000 0.000000 0.000000 0.000000 0.593404
    13 0.928313 0.000000 -0.000001 0.000000 0.000000 1.204231
    14 2.979373 -0.388274 -0.044205 -0.030851 -0.030823 0.768363
    15 1.435262 -0.000001 -0.000001 0.000000 0.000000 1.204014
    16 1.482593 -0.000001 0.000001 0.000000 0.000000 0.445026
    17 -2.768333 1.544203 -4.156022 -1.453013 0.733252 -4.929190
    18 4.972047 0.000000 0.000000 0.833728 -0.560408 -1.406365
    19 11.585358 0.000000 0.000001 0.000000 0.000000 -0.196830
    20 10.127058 0.000000 0.000001 2.204654 0.218254 0.382717
    21 1.537458 0.109715 1.664489 -3.079588 0.031470 0.928526
    22 0.928313 0.000000 0.000002 0.000000 0.000000 0.061034
    23 0.928311 0.000000 0.000001 0.000000 0.000000 0.671897
    24 2.686395 -0.427337 0.044204 -0.001208 0.043611 -0.052337
    25 1.435260 0.000000 0.000001 0.000000 0.000000 1.186618
    26 1.482593 0.000000 -0.000001 0.000000 0.000000 1.684243
    27 2.046984 0.000001 0.000000 0.467708 -0.272081 0.080651
    28 -0.000005 0.000007 3.713254 -0.099290 -3.046793 5.707548
    29 18.045723 0.000000 0.000000 0.000000 0.000000 -0.418873
    30 17.597597 0.000000 0.000000 -0.057075 -0.017780 -0.158044
    31 0.000005 -0.000003 -3.713254 0.808474 2.832672 6.177679
    32 18.045721 0.000000 0.000000 0.000000 0.000000 -0.780912
    33 17.597597 0.000000 0.000000 0.178223 0.126141 0.486370
  time 14
    0 0.387696 2.218969 0.368674 0.000000 0.000000 -1.571017
    1 -0.828154 0.039064 0.000000 -1.570795 -1.570787 0.000000
    2 1.293670 0.684478 -0.000001 -0.061032 -0.010523 -0.052221
    3 5.309685 -0.003834 0.000000 -0.144968 -0.006831 0.022408
    4 4.826790 -0.004591 0.000000 -0.098862 0.004374 0.174169
    5 5.792767 -0.005304 0.000000 -0.176891 -0.007550 0.164175
    6 6.662322 -0.001452 0.000000 -0.087056 0.043953 0.357843
    7 -3.444135 0.794145 4.277124 0.678828 -1.401154 -4.175405
    8 4.827512 0.000000 -0.000002 -0.661096 0.786302 -1.096242
    9 11.140032 0.000000 0.000000 0.000000 0.000000 -0.657487
    10 10.314563 -0.000001 0.000001 -3.790835 0.601469 0.024923
    11 1.646836 0.445664 -1.699647 -0.392035 3.352851 -0.875707
    12 0.928312 0.000000 0.000000 0.000000 0.000000 0.593404
    13 0.928313 0.000000 -0.000001 0.000000 0.000000 1.204231
    14 2.979373 -0.388274 -0.044205 -0.030851 -0.030823 0.768363
    15 1.435262 -0.000001 -0.000001 0.000000 0.000000 1.204014
    16 1.482593 -0.000001 0.000001 0.000000 0.000000 0.445026
    17 -2.830835 1.427012 -4.156022 -1.449287 0.732753 -4.881492
    18 4.972047 0.000000 0.000000 0.813655 -0.535018 -1.400043
    19 11.585358 0.000000 0.000001 0.000000 0.000000 -0.196749
    20 10.127058 0.000000 0.000001 2.205005 0.217781 0.383967
    21 1.537458 0.109715 1.664489 -3.079588 0.031470 0.928526
    22 0.928313 0.000000 0.000002 0.000000 0.000000 0.061034
    23 0.928311 0.000000 0.000001 0.000000 0.000000 0.671897
    24 2.686395 -0.427337 0.044204 -0.001208 0.043611 -0.052337
    25 1.435260 0.000000 0.000001 0.000000 0.000000 1.186618
    26 1.482593 0.000000 -0.000001 0.000000 0.000000 1.684243
    27 2.046984 0.000001 0.000000 0.470509 -0.269042 0.095858
    28 -0.000005 0.000007 3.713254 -0.099386 -3.047177 5.707836
    29 18.045723 0.000000 0.000000 0.000000 0.000000 -0.417541
    30 17.597597 0.000000 0.000000 -0.057202 -0.017484 -0.159144
    31 0.000005 -0.000003 -3.713254 0.808474 2.832289 6.177104
    32 18.045721 0.000000 0.000000 0.000000 0.000000 -0.781384
    33 17.597597 0.000000 0.000000 0.178190 0.125943 0.486047
  time 15
    0 0.387696 2.218969 0.368674 0.000000 0.000000 -1.571017
    1 -0.859405 0.050783 0.000000 -1.570795 -1.570787 0.000000
    2 1.293670 0.684478 -0.000001 -0.061032 -0.010523 -0.052221
    3 5.309685 -0.003834 0.000000 -0.144815 -0.007550 0.019971
    4 4.826790 -0.004591 0.000000 -0.099759 0.005765 0.184356
    5 5.792767 -0.005304 0.000000 -0.176855 -0.005333 0.178667
    6 6.662322 -0.001452 0.000000 -0.088854 0.040242 0.315833
    7 -3.475386 0.645703 4.277124 0.678828 -1.401154 -4.133436
    8 4.827512 0.000000 -0.000002 -0.667235 0.763108 -1.101441
    9 11.140032 0.000000 0.000000 0.000000 0.000000 -0.655675
    10 10.314563 -0.000001 0.000001 -3.789887 0.603249 0.023646
    11 1.646836 0.445664 -1.699647 -0.392035 3.352851 -0.875707
    12 0.928312 0.000000 0.000000 0.000000 0.000000 0.593404
    13 0.928313 0.000000 -0.000001 0.000000 0.000000 1.204231
    14 2.979373 -0.388274 -0.044205 -0.030851 -0.030823 0.768363
    15 1.435262 -0.000001 -0.000001 0.000000 0.000000 1.204014
    16 1.482593 -0.000001 0.000001 0.000000 0.000000 0.445026
    17 -2.877712 1.317633 -4.156022 -1.440880 0.731570 -4.826801
    18 4.972047 0.000000 0.000000 0.791050 -0.510029 -1.393188
    19 11.585358 0.000000 0.000001 0.000000 0.000000 -0.196340
    20 10.127058 0.000000 0.000001 2.205776 0.216457 0.386669
    21 1.537458 0.109715 1.664489 -3.079588 0.031470 0.928526
    22 0.928313 0.000000 0.000002 0.000000 0.000000 0.061034
    23 0.928311 0.000000 0.000001 0.000000 0.000000 0.671897
    24 2.686395 -0.427337 0.044204 -0.001208 0.043611 -0.052337
    25 1.435260 0.000000 0.000001 0.000000 0.000000 1.186618
    26 1.482593 0.000000 -0.000001 0.000000 0.000000 1.684243
    27 2.046984 0.000001 0.000000 0.472792 -0.266210 0.115140
    28 -0.000005 0.000007 3.713254 -0.099482 -3.047656 5.708411
    29 18.045723 0.000000 0.000000 0.000000 0.000000 -0.414728
    30 17.597597 0.000000 0.000000 -0.057379 -0.017041 -0.161391
    31 0.000005 -0.000003 -3.713254 0.808187 2.831618 6.175954
    32 18.045721 0.000000 0.000000 0.000000 0.000000 -0.782014
    33 17.597597 0.000000 0.000000 0.178123 0.125509 0.485447
  time 16
    0 0.387696 2.218969 0.368674 0.000000 0.000000 -1.571017
    1 -0.871124 0.062502 0.000000 -1.570795 -1.570787 0.000000
    2 1.293670 0.684478 -0.000001 -0.061032 -0.010523 -0.052221
    3 5.309685 -0.003834 0.000000 -0.144764 -0.007778 0.019282
    4 4.826790 -0.004591 0.000000 -0.100064 0.006352 0.188677
    5 5.792767 -0.005304 0.000000 -0.176819 -0.004314 0.185270
    6 6.662322 -0.001452 0.000000 -0.090460 0.036490 0.273880
    7 -3.498824 0.497261 4.277124 0.678828 -1.401154 -4.091276
    8 4.827512 0.000000 -0.000002 -0.668988 0.750231 -1.101094
    9 11.140032 0.000000 0.000000 0.000000 0.000000 -0.656472
    10 10.314563 -0.000001 0.000001 -3.788844 0.606809 0.024459
    11 1.646836 0.445664 -1.699647 -0.392035 3.352851 -0.875707
    12 0.928312 0.000000 0.000000 0.000000 0.000000 0.593404
    13 0.928313 0.000000 -0.000001 0.000000 0.000000 1.204231
    14 2.979373 -0.388274 -0.044205 -0.030851 -0.030823 0.768363
    15 1.435262 -0.000001 -0.000001 0.000000 0.000000 1.204014
    16 1.482593 -0.000001 0.000001 0.000000 0.000000 0.445026
    17 -2.932401 1.192629 -4.156022 -1.427697 0.729519 -4.764927
    18 4.972047 0.000000 0.000000 0.769570 -0.492352 -1.386599
    19 11.585358 0.000000 0.000001 0.000000 0.000000 -0.195769
    20 10.127058 0.000000 0.000001 2.206968 0.214282 0.390970
    21 1.537458 0.109715 1.664489 -3.079588 0.031470 0.928526
    22 0.928313 0.000000 0.000002 0.000000 0.000000 0.061034
    23 0.928311 0.000000 0.000001 0.000000 0.000000 0.671897
    24 2.686395 -0.427337 0.044204 -0.001208 0.043611 -0.052337
    25 1.435260 0.000000 0.000001 0.000000 0.000000 1.186618
    26 1.482593 0.000000 -0.000001 0.000000 0.000000 1.684243
    27 2.046984 0.000001 0.000000 0.473826 -0.264882 0.146954
    28 -0.000005 0.000007 3.713254 -0.099674 -3.047944 5.708602
    29 18.045723 0.000000 0.000000 0.000000 0.000000 -0.413396
    30 17.597597 0.000000 0.000000 -0.057506 -0.016795 -0.162445
    31 0.000005 -0.000003 -3.713254 0.808187 2.831330 6.175283
    32 18.045721 0.000000 0.000000 0.000000 0.000000 -0.782250
    33 17.597597 0.000000 0.000000 0.178089 0.125312 0.485169
  time 17
    0 0.387696 2.218969 0.368674 0.000000 0.000000 -1.571017
    1 -0.875031 0.062502 0.000000 -1.570795 -1.570787 0.000000
    2 1.293670 0.684478 -0.000001 -0.061032 -0.010523 -0.052221
    3 5.309685 -0.003834 0.000000 -0.144781 -0.007610 0.019777
    4 4.826790 -0.004591 0.000000 -0.100121 0.006424 0.189184
    5 5.792767 -0.005304 0.000000 -0.176819 -0.004207 0.186059
    6 6.662322 -0.001452 0.000000 -0.091910 0.032655 0.231870
    7 -3.518356 0.356631 4.277124 0.678828 -1.401154 -4.049116
    8 4.827512 0.000000 -0.000002 -0.668032 0.745541 -1.097368
    9 11.140032 0.000000 0.000000 0.000000 0.000000 -0.659153
    10 10.314563 -0.000001 0.000001 -3.787802 0.610930 0.026607
    11 1.646836 0.445664 -1.699647 -0.392035 3.352851 -0.875707
    12 0.928312 0.000000 0.000000 0.000000 0.000000 0.593404
    13 0.928313 0.000000 -0.000001 0.000000 0.000000 1.204231
    14 2.979373 -0.388274 -0.044205 -0.030851 -0.030823 0.768363
    15 1.435262 -0.000001 -0.000001 0.000000 0.000000 1.204014
    16 1.482593 -0.000001 0.000001 0.000000 0.000000 0.445026
    17 -2.975371 1.071532 -4.156022 -1.413845 0.727179 -4.701904
    18 4.972047 0.000000 0.000000 0.751842 -0.481264 -1.380808
    19 11.585358 0.000000 0.000001 0.000000 0.000000 -0.195279
    20 10.127058 0.000000 0.000001 2.208161 0.212296 0.395522
    21 1.537458 0.109715 1.664489 -3.079588 0.031470 0.928526
    22 0.928313 0.000000 0.000002 0.000000 0.000000 0.061034
    23 0.928311 0.000000 0.000001 0.000000 0.000000 0.671897
    24 2.686395 -0.427337 0.044204 -0.001208 0.043611 -0.052337
    25 1.435260 0.000000 0.000001 0.000000 0.000000 1.186618
    26 1.482593 0.000000 -0.000001 0.000000 0.000000 1.684243
    27 2.046984 0.000001 0.000000 0.473955 -0.264587 0.187162
    28 -0.000005 0.000007 3.713254 -0.099674 -3.048040 5.708698
    29 18.045723 0.000000 0.000000 0.000000 0.000000 -0.412878
    30 17.597597 0.000000 0.000000 -0.057557 -0.016721 -0.162812
    31 0.000005 -0.000003 -3.713254 0.808187 2.831234 6.175091
    32 18.045721 0.000000 0.000000 0.000000 0.000000 -0.782486
    33 17.597597 0.000000 0.000000 0.178055 0.125233 0.485077
  time 18
    0 0.387696 2.218969 0.368674 0.000000 0.000000 -1.571017
    1 -0.871124 0.062502 0.000000 -1.570795 -1.570787 0.000000
    2 1.293670 0.684478 -0.000001 -0.061032 -0.010523 -0.052221
    3 5.309685 -0.003834 0.000000 -0.144866 -0.007311 0.020836
    4 4.826790 -0.004591 0.000000 -0.100026 0.006184 0.187597
    5 5.792767 -0.005304 0.000000 -0.176837 -0.004566 0.183609
    6 6.662322 -0.001452 0.000000 -0.091910 0.032655 0.231870
    7 -3.518356 0.356631 4.277124 0.678828 -1.401154 -4.049116
    8 4.827512 0.000000 -0.000002 -0.665879 0.746053 -1.093036
    9 11.140032 0.000000 0.000000 0.000000 0.000000 -0.661616
    10 10.314563 -0.000001 0.000001 -3.787138 0.614303 0.028755
    11 1.646836 0.445664 -1.699647 -0.392035 3.352851 -0.875707
    12 0.928312 0.000000 0.000000 0.000000 0.000000 0.593404
    13 0.928313 0.000000 -0.000001 0.000000 0.000000 1.204231
    14 2.979373 -0.388274 -0.044205 -0.030851 -0.030823 0.768363
    15 1.435262 -0.000001 -0.000001 0.000000 0.000000 1.204014
    16 1.482593 -0.000001 0.000001 0.000000 0.000000 0.445026
    17 -2.975371 1.071532 -4.156022 -1.403145 0.725234 -4.686004
    18 4.972047 0.000000 0.000000 0.740867 -0.476523 -1.377148
    19 11.585358 0.000000 0.000001 0.000000 0.000000 -0.194870
    20 10.127058 0.000000 0.000001 2.209142 0.210594 0.399024
    21 1.537458 0.109715 1.664489 -3.079588 0.031470 0.928526
    22 0.928313 0.000000 0.000002 0.000000 0.000000 0.061034
    23 0.928311 0.000000 0.000001 0.000000 0.000000 0.671897
    24 2.686395 -0.427337 0.044204 -0.001208 0.043611 -0.052337
    25 1.435260 0.000000 0.000001 0.000000 0.000000 1.186618
    26 1.482593 0.000000 -0.000001 0.000000 0.000000 1.684243
    27 2.046984 0.000001 0.000000 0.473783 -0.264941 0.190203
    28 -0.000005 0.000007 3.713254 -0.099674 -3.048040 5.708698
    29 18.045723 0.000000 0.000000 0.000000 0.000000 -0.413026
    30 17.597597 0.000000 0.000000 -0.057557 -0.016771 -0.162720
    31 0.000005 -0.000003 -3.713254 0.808187 2.831234 6.175187
    32 18.045721 0.000000 0.000000 0.000000 0.000000 -0.782250
    33 17.597597 0.000000 0.000000 0.178022 0.125233 0.485123
  time 19
    0 0.387696 2.218969 0.368674 0.000000 0.000000 -1.571017
    1 -0.871124 0.062502 0.000000 -1.570795 -1.570787 0.000000
    2 1.293670 0.684478 -0.000001 -0.061032 -0.010523 -0.052221
    3 5.309685 -0.003834 0.000000 -0.144951 -0.006975 0.021932
    4 4.826790 -0.004591 0.000000 -0.099797 0.005896 0.185458
    5 5.792767 -0.005304 0.000000 -0.176855 -0.005081 0.180266
    6 6.662322 -0.001452 0.000000 -0.091910 0.032655 0.231870
    7 -3.518356 0.356631 4.277124 0.678828 -1.401154 -4.049116
    8 4.827512 0.000000 -0.000002 -0.664365 0.749805 -1.091043
    9 11.140032 0.000000 0.000000 0.000000 0.000000 -0.662486
    10 10.314563 -0.000001 0.000001 -3.787044 0.615146 0.029568
    11 1.646836 0.445664 -1.699647 -0.392035 3.352851 -0.875707
    12 0.928312 0.000000 0.000000 0.000000 0.000000 0.593404
    13 0.928313 0.000000 -0.000001 0.000000 0.000000 1.204231
    14 2.979373 -0.388274 -0.044205 -0.030851 -0.030823 0.768363
    15 1.435262 -0.000001 -0.000001 0.000000 0.000000 1.204014
    16 1.482593 -0.000001 0.000001 0.000000 0.000000 0.445026
    17 -2.975371 1.071532 -4.156022 -1.401426 0.724918 -4.683227
    18 4.972047 0.000000 0.000000 0.740961 -0.479014 -1.376615
    19 11.585358 0.000000 0.000001 0.000000 0.000000 -0.194870
    20 10.127058 0.000000 0.000001 2.209283 0.210405 0.399624
    21 1.537458 0.109715 1.664489 -3.079588 0.031470 0.928526
    22 0.928313 0.000000 0.000002 0.000000 0.000000 0.061034
    23 0.928311 0.000000 0.000001 0.000000 0.000000 0.671897
    24 2.686395 -0.427337 0.044204 -0.001208 0.043611 -0.052337
    25 1.435260 0.000000 0.000001 0.000000 0.000000 1.186618
    26 1.482593 0.000000 -0.000001 0.000000 0.000000 1.684243
    27 2.046984 0.000001 0.000000 0.473309 -0.265443 0.194583
    28 -0.000005 0.000007 3.713254 -0.099482 -3.047944 5.708698
    29 18.045723 0.000000 0.000000 0.000000 0.000000 -0.413322
    30 17.597597 0.000000 0.000000 -0.057557 -0.016845 -0.162491
    31 0.000005 -0.000003 -3.713254 0.808187 2.831330 6.175378
    32 18.045721 0.000000 0.000000 0.000000 0.000000 -0.782250
    33 17.597597 0.000000 0.000000 0.178022 0.125292 0.485169
  time 20
    0 0.387696 2.218969 0.368674 0.000000 0.000000 -1.571017
    1 -0.871124 0.058596 0.000000 -1.570795 -1.570787 0.000000
    2 1.293670 0.684478 -0.000001 -0.061032 -0.010523 -0.052221
    3 5.309685 -0.003834 0.000000 -0.144968 -0.006831 0.022408
    4 4.826790 -0.004591 0.000000 -0.099759 0.005765 0.184356
    5 5.792767 -0.005304 0.000000 -0.176855 -0.005333 0.178667
    6 6.662322 -0.001452 0.000000 -0.091910 0.032655 0.231870
    7 -3.518356 0.356631 4.277124 0.678828 -1.401154 -4.049116
    8 4.827512 0.000000 -0.000002 -0.663887 0.752278 -1.091043
    9 11.140032 0.000000 0.000000 0.000000 0.000000 -0.662196
    10 10.314563 -0.000001 0.000001 -3.787233 0.614584 0.029452
    11 1.646836 0.445664 -1.699647 -0.392035 3.352851 -0.875707
    12 0.928312 0.000000 0.000000 0.000000 0.000000 0.593404
    13 0.928313 0.000000 -0.000001 0.000000 0.000000 1.204231
    14 2.979373 -0.388274 -0.044205 -0.030851 -0.030823 0.768363
    15 1.435262 -0.000001 -0.000001 0.000000 0.000000 1.204014
    16 1.482593 -0.000001 0.000001 0.000000 0.000000 0.445026
    17 -2.975371 1.071532 -4.156022 -1.403145 0.725234 -4.686004
    18 4.972047 0.000000 0.000000 0.744432 -0.482148 -1.377480
    19 11.585358 0.000000 0.000001 0.000000 0.000000 -0.194870
    20 10.127058 0.000000 0.000001 2.209142 0.210594 0.399024
    21 1.537458 0.109715 1.664489 -3.079588 0.031470 0.928526
    22 0.928313 0.000000 0.000002 0.000000 0.000000 0.061034
    23 0.928311 0.000000 0.000001 0.000000 0.000000 0.671897
    24 2.686395 -0.427337 0.044204 -0.001208 0.043611 -0.052337
    25 1.435260 0.000000 0.000001 0.000000 0.000000 1.186618
    26 1.482593 0.000000 -0.000001 0.000000 0.000000 1.684243
    27 2.046984 0.000001 0.000000 0.473180 -0.265738 0.196955
    28 -0.000005 0.000007 3.713254 -0.099865 -3.047848 5.708602
    29 18.045723 0.000000 0.000000 0.000000 0.000000 -0.413544
    30 17.597597 0.000000 0.000000 -0.057202 -0.016721 -0.162308
    31 0.000005 -0.000003 -3.713254 0.807899 2.831522 6.175283
    32 18.045721 0.000000 0.000000 0.000000 0.000000 -0.782250
    33 17.597597 0.000000 0.000000 0.178424 0.125292 0.485216
end
