version 1
nodes
  0 "Bip01" -1
  1 "Bip01 Pelvis" 0
  2 "Bip01 Spine" 1
  3 "Bip01 Spine1" 2
  4 "Bip01 Spine2" 3
  5 "Bip01 Spine3" 4
  6 "Bip01 Neck" 5
  7 "Bip01 L Arm" 6
  8 "Bip01 L Arm1" 7
  9 "Bip01 L Arm2" 8
  10 "Bip01 L Hand" 9
  11 "Bip01 L Finger0" 10
  12 "Bip01 L Finger01" 11
  13 "Bip01 L Finger02" 12
  14 "Bip01 L Finger1" 10
  15 "Bip01 L Finger11" 14
  16 "Bip01 L Finger12" 15
  17 "Bip01 R Arm" 6
  18 "Bip01 R Arm1" 17
  19 "Bip01 R Arm2" 18
  20 "Bip01 R Hand" 19
  21 "Bip01 R Finger0" 20
  22 "Bip01 R Finger01" 21
  23 "Bip01 R Finger02" 22
  24 "Bip01 R Finger1" 20
  25 "Bip01 R Finger11" 24
  26 "Bip01 R Finger12" 25
  27 "Bip01 Head" 6
  28 "Bip01 L Leg" 1
  29 "Bip01 L Leg1" 28
  30 "Bip01 L Foot" 29
  31 "Bip01 R Leg" 1
  32 "Bip01 R Leg1" 31
  33 "Bip01 R Foot" 32
end
skeleton
  time 0
    0 0.282224 2.492415 0.368674 0.000000 0.000000 -1.571017
    1 -0.546896 0.050783 0.000000 -1.570795 -1.570787 0.000000
    2 1.293670 0.684478 -0.000001 -0.000004 0.017485 0.009470
    3 5.309685 -0.003834 0.000000 -0.015537 -0.047375 -0.018871
    4 4.826790 -0.004591 0.000000 -0.091538 0.031915 0.051669
    5 5.792767 -0.005304 0.000000 -0.164912 0.055093 -0.049703
    6 6.662322 -0.001452 0.000000 0.000000 -0.000001 0.209256
    7 -3.393353 0.665235 4.339626 -1.263539 -1.547640 -2.088195
    8 4.827512 0.000000 -0.000002 0.540318 0.977315 -1.337217
    9 11.140032 0.000000 0.000000 0.000000 0.000000 -1.409408
    10 10.314563 -0.000001 0.000001 -3.838697 0.529998 0.692942
    11 1.646836 0.445664 -1.699647 0.153911 0.442352 0.277231
    12 0.928312 0.000000 0.000000 0.000000 0.000000 0.000000
    13 0.928313 0.000000 -0.000001 0.000000 0.000000 0.000000
    14 2.979373 -0.388274 -0.044205 0.001088 -0.043611 -0.043599
    15 1.435262 -0.000001 -0.000001 0.000000 0.000000 1.334445
    16 1.482593 -0.000001 0.000001 0.000000 0.000000 0.793674
    17 -3.131626 0.610580 -4.140396 -2.171221 1.280330 -5.542759
    18 4.972047 0.000000 0.000000 -0.850050 -0.977181 -0.386737
    19 11.585358 0.000000 0.000001 0.000000 0.000000 -1.505587
    20 10.127058 0.000000 0.000001 3.080713 -1.040489 0.774386
    21 1.537458 0.109715 1.664489 -0.264662 -0.055995 0.783079
    22 0.928313 0.000000 0.000002 0.000000 0.000000 -0.453501
    23 0.928311 0.000000 0.000001 0.000000 0.000000 0.000000
    24 2.686395 -0.427337 0.044204 -0.005762 0.043239 -0.157074
    25 1.435260 0.000000 0.000001 0.000000 0.000000 0.732613
    26 1.482593 0.000000 -0.000001 0.000000 0.000000 1.168644
    27 2.046984 0.000001 0.000000 0.042997 -0.290373 0.477619
    28 -0.000005 0.000007 3.713254 -0.099098 -3.044205 5.708698
    29 18.045723 0.000000 0.000000 0.000000 0.000000 -0.415838
    30 17.597597 0.000000 0.000000 -0.055910 -0.020241 -0.160290
    31 0.000005 -0.000003 -3.713254 0.808762 2.835453 6.177296
    32 18.045721 0.000000 0.000000 0.000000 0.000000 -0.781620
    33 17.597597 0.000000 0.000000 0.178559 0.123872 0.488726
  time 1
    0 0.243160 2.281471 0.368674 0.000000 0.000000 -1.571017
    1 -0.671900 -0.132817 0.000000 -1.570795 -1.570787 0.000000
    2 1.293670 0.684478 -0.000001 0.000047 0.016753 0.014693
    3 5.309685 -0.003834 0.000000 -0.034034 -0.042318 -0.000236
    4 4.826790 -0.004591 0.000000 -0.088238 -0.009516 0.022411
    5 5.792767 -0.005304 0.000000 -0.149406 -0.018181 -0.004648
    6 6.662322 -0.001452 0.000000 0.000000 -0.000001 0.209256
    7 -3.393353 0.665235 4.339626 0.386668 -1.542376 -3.738282
    8 4.827512 0.000000 -0.000002 0.736342 0.887181 -0.977704
    9 11.140032 0.000000 0.000000 0.000000 0.000000 -1.713422
    10 10.314563 -0.000001 0.000001 -3.523376 0.316612 1.158319
    11 1.646836 0.445664 -1.699647 0.188156 0.402776 0.338015
    12 0.928312 0.000000 0.000000 0.000000 0.000000 0.000000
    13 0.928313 0.000000 -0.000001 0.000000 0.000000 0.000000
    14 2.979373 -0.388274 -0.044205 0.001088 -0.043611 -0.043599
    15 1.435262 -0.000001 -0.000001 0.000000 0.000000 1.334445
    16 1.482593 -0.000001 0.000001 0.000000 0.000000 0.793674
    17 -3.131626 0.610580 -4.140396 -2.374322 1.331728 -5.740257
    18 4.972047 0.000000 0.000000 -0.695001 -1.036157 -0.529232
    19 11.585358 0.000000 0.000001 0.000000 0.000000 -1.619938
    20 10.127058 0.000000 0.000001 2.992006 -0.700720 0.898889
    21 1.537458 0.109715 1.664489 -0.264662 -0.055995 0.783079
    22 0.928313 0.000000 0.000002 0.000000 0.000000 -0.453501
    23 0.928311 0.000000 0.000001 0.000000 0.000000 0.000000
    24 2.686395 -0.427337 0.044204 -0.005762 0.043239 -0.157074
    25 1.435260 0.000000 0.000001 0.000000 0.000000 0.732613
    26 1.482593 0.000000 -0.000001 0.000000 0.000000 1.168644
    27 2.046984 0.000001 0.000000 0.127439 -0.190976 0.441061
    28 -0.000005 0.000007 3.713254 -0.097756 -3.037494 5.709082
    29 18.045723 0.000000 0.000000 0.000000 0.000000 -0.419687
    30 17.597597 0.000000 0.000000 -0.053452 -0.026590 -0.156806
    31 0.000005 -0.000003 -3.713254 0.810775 2.842738 6.181035
    32 18.045721 0.000000 0.000000 0.000000 0.000000 -0.780046
    33 17.597597 0.000000 0.000000 0.178290 0.121348 0.494869
  time 2
    0 0.200190 2.066620 0.368674 0.000000 0.000000 -1.571017
    1 -0.796903 -0.285165 0.000000 -1.570795 -1.570787 0.000000
    2 1.293670 0.684478 -0.000001 0.000148 0.016154 0.019933
    3 5.309685 -0.003834 0.000000 -0.051783 -0.037272 0.018293
    4 4.826790 -0.004591 0.000000 -0.083660 -0.050839 -0.007045
    5 5.792767 -0.005304 0.000000 -0.135610 -0.063998 0.036816
    6 6.662322 -0.001452 0.000000 0.000000 -0.000001 0.209256
    7 -3.393353 0.665235 4.339626 0.761549 -1.507810 -4.112260
    8 4.827512 0.000000 -0.000002 0.772134 0.791845 -0.754666
    9 11.140032 0.000000 0.000000 0.000000 0.000000 -1.946649
    10 10.314563 -0.000001 0.000001 -3.245776 0.055641 1.446778
    11 1.646836 0.445664 -1.699647 0.219492 0.361433 0.396372
    12 0.928312 0.000000 0.000000 0.000000 0.000000 0.000000
    13 0.928313 0.000000 -0.000001 0.000000 0.000000 0.000000
    14 2.979373 -0.388274 -0.044205 0.001088 -0.043611 -0.043599
    15 1.435262 -0.000001 -0.000001 0.000000 0.000000 1.334445
    16 1.482593 -0.000001 0.000001 0.000000 0.000000 0.793674
    17 -3.131626 0.610580 -4.140396 3.599188 1.369008 -6.043498
    18 4.972047 0.000000 0.000000 -0.552802 -1.070225 -0.669265
    19 11.585358 0.000000 0.000001 0.000000 0.000000 -1.735189
    20 10.127058 0.000000 0.000001 2.965990 -0.355277 0.971370
    21 1.537458 0.109715 1.664489 -0.264662 -0.055995 0.783079
    22 0.928313 0.000000 0.000002 0.000000 0.000000 -0.453501
    23 0.928311 0.000000 0.000001 0.000000 0.000000 0.000000
    24 2.686395 -0.427337 0.044204 -0.005762 0.043239 -0.157074
    25 1.435260 0.000000 0.000001 0.000000 0.000000 0.732613
    26 1.482593 0.000000 -0.000001 0.000000 0.000000 1.168644
    27 2.046984 0.000001 0.000000 0.190685 -0.111258 0.411254
    28 -0.000005 0.000007 3.713254 -0.096510 -3.031645 5.709273
    29 18.045723 0.000000 0.000000 0.000000 0.000000 -0.423980
    30 17.597597 0.000000 0.000000 -0.051349 -0.032127 -0.152909
    31 0.000005 -0.000003 -3.713254 0.812691 2.849066 6.184965
    32 18.045721 0.000000 0.000000 0.000000 0.000000 -0.778078
    33 17.597597 0.000000 0.000000 0.178089 0.119513 0.500181
  time 3
    0 0.168939 1.847864 0.368674 0.000000 0.000000 -1.571017
    1 -0.980503 -0.316416 0.000000 -1.570795 -1.570787 0.000000
    2 1.293670 0.684478 -0.000001 0.000249 0.015327 0.025156
    3 5.309685 -0.003834 0.000000 -0.070723 -0.031124 0.036716
    4 4.826790 -0.004591 0.000000 -0.076183 -0.070901 -0.013770
    5 5.792767 -0.005304 0.000000 -0.120032 -0.061829 0.074604
    6 6.662322 -0.001452 0.000000 0.000000 -0.000001 0.209256
    7 -3.393353 0.665235 4.339626 0.866220 -1.470760 -4.215457
    8 4.827512 0.000000 -0.000002 0.641319 0.767968 -0.691671
    9 11.140032 0.000000 0.000000 0.000000 0.000000 -2.044172
    10 10.314563 -0.000001 0.000001 -2.985141 -0.177884 1.550421
    11 1.646836 0.445664 -1.699647 0.247639 0.318412 0.452560
    12 0.928312 0.000000 0.000000 0.000000 0.000000 0.000000
    13 0.928313 0.000000 -0.000001 0.000000 0.000000 0.000000
    14 2.979373 -0.388274 -0.044205 0.001088 -0.043611 -0.043599
    15 1.435262 -0.000001 -0.000001 0.000000 0.000000 1.334445
    16 1.482593 -0.000001 0.000001 0.000000 0.000000 0.793674
    17 -3.131626 0.610580 -4.140396 3.390260 1.388831 0.034620
    18 4.972047 0.000000 0.000000 -0.495398 -1.044755 -0.684040
    19 11.585358 0.000000 0.000001 0.000000 0.000000 -1.833449
    20 10.127058 0.000000 0.000001 2.945865 -0.059008 1.001684
    21 1.537458 0.109715 1.664489 -0.264662 -0.055995 0.783079
    22 0.928313 0.000000 0.000002 0.000000 0.000000 -0.453501
    23 0.928311 0.000000 0.000001 0.000000 0.000000 0.000000
    24 2.686395 -0.427337 0.044204 -0.005762 0.043239 -0.157074
    25 1.435260 0.000000 0.000001 0.000000 0.000000 0.732613
    26 1.482593 0.000000 -0.000001 0.000000 0.000000 1.168644
    27 2.046984 0.000001 0.000000 0.208866 -0.079748 0.357847
    28 -0.000005 0.000007 3.713254 -0.096030 -3.029728 5.709369
    29 18.045723 0.000000 0.000000 0.000000 0.000000 -0.425460
    30 17.597597 0.000000 0.000000 -0.050614 -0.034022 -0.151625
    31 0.000005 -0.000003 -3.713254 0.813267 2.851271 6.186308
    32 18.045721 0.000000 0.000000 0.000000 0.000000 -0.777448
    33 17.597597 0.000000 0.000000 0.178022 0.118882 0.501982
  time 4
    0 0.125969 1.636920 0.368674 0.000000 0.000000 -1.571017
    1 -1.234417 -0.242195 0.000000 -1.570795 -1.570787 0.000000
    2 1.293670 0.684478 -0.000001 0.000266 0.013961 0.030396
    3 5.309685 -0.003834 0.000000 -0.092794 -0.022519 0.055051
    4 4.826790 -0.004591 0.000000 -0.066283 -0.068252 0.004089
    5 5.792767 -0.005304 0.000000 -0.103447 -0.050144 0.112538
    6 6.662322 -0.001452 0.000000 0.000000 -0.000001 0.209256
    7 -3.393353 0.665235 4.339626 0.914914 -1.433207 -4.262024
    8 4.827512 0.000000 -0.000002 0.478059 0.778030 -0.690718
    9 11.140032 0.000000 0.000000 0.000000 0.000000 -2.057576
    10 10.314563 -0.000001 0.000001 -2.805256 -0.274460 1.557737
    11 1.646836 0.445664 -1.699647 0.272877 0.273978 0.506630
    12 0.928312 0.000000 0.000000 0.000000 0.000000 0.000000
    13 0.928313 0.000000 -0.000001 0.000000 0.000000 0.000000
    14 2.979373 -0.388274 -0.044205 0.001088 -0.043611 -0.043599
    15 1.435262 -0.000001 -0.000001 0.000000 0.000000 1.334445
    16 1.482593 -0.000001 0.000001 0.000000 0.000000 0.793674
    17 -3.131626 0.610580 -4.140396 3.370867 1.398348 0.015943
    18 4.972047 0.000000 0.000000 -0.427675 -0.987064 -0.687301
    19 11.585358 0.000000 0.000001 0.000000 0.000000 -1.871349
    20 10.127058 0.000000 0.000001 2.929946 0.055604 1.000433
    21 1.537458 0.109715 1.664489 -0.264662 -0.055995 0.783079
    22 0.928313 0.000000 0.000002 0.000000 0.000000 -0.453501
    23 0.928311 0.000000 0.000001 0.000000 0.000000 0.000000
    24 2.686395 -0.427337 0.044204 -0.005762 0.043239 -0.157074
    25 1.435260 0.000000 0.000001 0.000000 0.000000 0.732613
    26 1.482593 0.000000 -0.000001 0.000000 0.000000 1.168644
    27 2.046984 0.000001 0.000000 0.206367 -0.071546 0.275485
    28 -0.000005 0.000007 3.713254 -0.096318 -3.030878 5.709849
    29 18.045723 0.000000 0.000000 0.000000 0.000000 -0.422426
    30 17.597597 0.000000 0.000000 -0.050994 -0.033038 -0.154009
    31 0.000005 -0.000003 -3.713254 0.812979 2.850024 6.184678
    32 18.045721 0.000000 0.000000 0.000000 0.000000 -0.778393
    33 17.597597 0.000000 0.000000 0.177988 0.118665 0.500873
  time 5
    0 0.086905 1.414257 0.368674 0.000000 0.000000 -1.571017
    1 -1.515675 -0.125004 0.000000 -1.570795 -1.570787 0.000000
    2 1.293670 0.684478 -0.000001 0.000266 0.012044 0.035636
    3 5.309685 -0.003834 0.000000 -0.117979 -0.011397 0.073121
    4 4.826790 -0.004591 0.000000 -0.055316 -0.057658 0.030966
    5 5.792767 -0.005304 0.000000 -0.085766 -0.032850 0.150243
    6 6.662322 -0.001452 0.000000 0.000000 -0.000001 0.209256
    7 -3.393353 0.665235 4.339626 0.943574 -1.395536 -4.287799
    8 4.827512 0.000000 -0.000002 0.250945 0.829024 -0.799377
    9 11.140032 0.000000 0.000000 0.000000 0.000000 -2.034535
    10 10.314563 -0.000001 0.000001 -2.569926 -0.483255 1.503854
    11 1.646836 0.445664 -1.699647 0.295487 0.228395 0.558997
    12 0.928312 0.000000 0.000000 0.000000 0.000000 0.000000
    13 0.928313 0.000000 -0.000001 0.000000 0.000000 0.000000
    14 2.979373 -0.388274 -0.044205 0.001088 -0.043611 -0.043599
    15 1.435262 -0.000001 -0.000001 0.000000 0.000000 1.334445
    16 1.482593 -0.000001 0.000001 0.000000 0.000000 0.793674
    17 -3.131626 0.610580 -4.140396 3.644088 1.424454 -5.995129
    18 4.972047 0.000000 0.000000 -0.462568 -0.923025 -0.496154
    19 11.585358 0.000000 0.000001 0.000000 0.000000 -1.953600
    20 10.127058 0.000000 0.000001 2.853161 0.273574 0.948060
    21 1.537458 0.109715 1.664489 -0.264662 -0.055995 0.783079
    22 0.928313 0.000000 0.000002 0.000000 0.000000 -0.453501
    23 0.928311 0.000000 0.000001 0.000000 0.000000 0.000000
    24 2.686395 -0.427337 0.044204 -0.005762 0.043239 -0.157074
    25 1.435260 0.000000 0.000001 0.000000 0.000000 0.732613
    26 1.482593 0.000000 -0.000001 0.000000 0.000000 1.168644
    27 2.046984 0.000001 0.000000 0.197277 -0.079453 0.182843
    28 -0.000005 0.000007 3.713254 -0.096893 -3.033275 5.710232
    29 18.045723 0.000000 0.000000 0.000000 0.000000 -0.418503
    30 17.597597 0.000000 0.000000 -0.051906 -0.030626 -0.157310
    31 0.000005 -0.000003 -3.713254 0.812116 2.847148 6.182185
    32 18.045721 0.000000 0.000000 0.000000 0.000000 -0.779731
    33 17.597597 0.000000 0.000000 0.178022 0.118882 0.498564
  time 6
    0 0.051748 1.203313 0.368674 0.000000 0.000000 -1.571017
    1 -1.793027 0.019532 0.000000 -1.570795 -1.570787 0.000000
    2 1.293670 0.684478 -0.000001 0.000266 0.009814 0.040859
    3 5.309685 -0.003834 0.000000 -0.144679 0.001258 0.090890
    4 4.826790 -0.004591 0.000000 -0.043280 -0.042174 0.063774
    5 5.792767 -0.005304 0.000000 -0.067166 -0.013842 0.187180
    6 6.662322 -0.001452 0.000000 0.000000 -0.000001 0.209256
    7 -3.393353 0.665235 4.339626 0.963128 -1.357924 -4.303801
    8 4.827512 0.000000 -0.000002 0.048942 0.873963 -0.933512
    9 11.140032 0.000000 0.000000 0.000000 0.000000 -1.982731
    10 10.314563 -0.000001 0.000001 -2.337250 -0.689053 1.350219
    11 1.646836 0.445664 -1.699647 0.315284 0.181752 0.609762
    12 0.928312 0.000000 0.000000 0.000000 0.000000 0.000000
    13 0.928313 0.000000 -0.000001 0.000000 0.000000 0.000000
    14 2.979373 -0.388274 -0.044205 0.001088 -0.043611 -0.043599
    15 1.435262 -0.000001 -0.000001 0.000000 0.000000 1.334445
    16 1.482593 -0.000001 0.000001 0.000000 0.000000 0.793674
    17 -3.131626 0.610580 -4.140396 -2.006716 1.411414 -5.363362
    18 4.972047 0.000000 0.000000 -0.487800 -0.853121 -0.245241
    19 11.585358 0.000000 0.000001 0.000000 0.000000 -2.026377
    20 10.127058 0.000000 0.000001 2.713404 0.451638 0.824557
    21 1.537458 0.109715 1.664489 -0.264662 -0.055995 0.783079
    22 0.928313 0.000000 0.000002 0.000000 0.000000 -0.453501
    23 0.928311 0.000000 0.000001 0.000000 0.000000 0.000000
    24 2.686395 -0.427337 0.044204 -0.005762 0.043239 -0.157074
    25 1.435260 0.000000 0.000001 0.000000 0.000000 0.732613
    26 1.482593 0.000000 -0.000001 0.000000 0.000000 1.168644
    27 2.046984 0.000001 0.000000 0.186118 -0.098837 0.085456
    28 -0.000005 0.000007 3.713254 -0.097564 -3.036727 5.710328
    29 18.045723 0.000000 0.000000 0.000000 0.000000 -0.414506
    30 17.597597 0.000000 0.000000 -0.053148 -0.027427 -0.160703
    31 0.000005 -0.000003 -3.713254 0.811062 2.843314 6.179405
    32 18.045721 0.000000 0.000000 0.000000 0.000000 -0.781148
    33 17.597597 0.000000 0.000000 0.178123 0.119592 0.495423
  time 7
    0 0.008778 0.988462 0.368674 0.000000 0.000000 -1.571017
    1 -2.070380 0.179693 0.000000 -1.570795 -1.570787 0.000000
    2 1.293670 0.684478 -0.000001 0.000215 0.007405 0.046049
    3 5.309685 -0.003834 0.000000 -0.172298 0.015208 0.108254
    4 4.826790 -0.004591 0.000000 -0.030462 -0.024892 0.099338
    5 5.792767 -0.005304 0.000000 -0.048189 0.002888 0.222705
    6 6.662322 -0.001452 0.000000 0.000000 -0.000001 0.209256
    7 -3.393353 0.665235 4.339626 0.977506 -1.320223 -4.314245
    8 4.827512 0.000000 -0.000002 -0.107383 0.891871 -1.012451
    9 11.140032 0.000000 0.000000 0.000000 0.000000 -1.943679
    10 10.314563 -0.000001 0.000001 -2.005060 -0.857569 1.010955
    11 1.646836 0.445664 -1.699647 0.332453 0.134138 0.659236
    12 0.928312 0.000000 0.000000 0.000000 0.000000 0.000000
    13 0.928313 0.000000 -0.000001 0.000000 0.000000 0.000000
    14 2.979373 -0.388274 -0.044205 0.001088 -0.043611 -0.043599
    15 1.435262 -0.000001 -0.000001 0.000000 0.000000 1.334445
    16 1.482593 -0.000001 0.000001 0.000000 0.000000 0.793674
    17 -3.131626 0.610580 -4.140396 -1.581312 1.344505 -4.933213
    18 4.972047 0.000000 0.000000 -0.412386 -0.796073 -0.087771
    19 11.585358 0.000000 0.000001 0.000000 0.000000 -2.070729
    20 10.127058 0.000000 0.000001 2.520212 0.613627 0.639478
    21 1.537458 0.109715 1.664489 -0.264662 -0.055995 0.783079
    22 0.928313 0.000000 0.000002 0.000000 0.000000 -0.453501
    23 0.928311 0.000000 0.000001 0.000000 0.000000 0.000000
    24 2.686395 -0.427337 0.044204 -0.005762 0.043239 -0.157074
    25 1.435260 0.000000 0.000001 0.000000 0.000000 0.732613
    26 1.482593 0.000000 -0.000001 0.000000 0.000000 1.168644
    27 2.046984 0.000001 0.000000 0.168325 -0.143328 0.071709
    28 -0.000005 0.000007 3.713254 -0.098523 -3.040562 5.710424
    29 18.045723 0.000000 0.000000 0.000000 0.000000 -0.411324
    30 17.597597 0.000000 0.000000 -0.054541 -0.023809 -0.163545
    31 0.000005 -0.000003 -3.713254 0.809816 2.839287 6.176816
    32 18.045721 0.000000 0.000000 0.000000 0.000000 -0.782250
    33 17.597597 0.000000 0.000000 0.178257 0.120776 0.491913
  time 8
    0 -0.030286 0.769706 0.368674 0.000000 0.000000 -1.571017
    1 -2.332106 0.347667 0.000000 -1.570795 -1.570787 0.000000
    2 1.293670 0.684478 -0.000001 0.000148 0.004913 0.051272
    3 5.309685 -0.003834 0.000000 -0.200240 0.030009 0.125211
    4 4.826790 -0.004591 0.000000 -0.017396 -0.008785 0.134505
    5 5.792767 -0.005304 0.000000 -0.029680 0.013686 0.255988
    6 6.662322 -0.001452 0.000000 0.000000 -0.000001 0.209256
    7 -3.393353 0.665235 4.339626 0.989296 -1.282611 -4.321240
    8 4.827512 0.000000 -0.000002 -0.235408 0.876692 -0.985589
    9 11.140032 0.000000 0.000000 0.000000 0.000000 -1.928029
    10 10.314563 -0.000001 0.000001 -1.465308 -0.874056 0.363432
    11 1.646836 0.445664 -1.699647 0.347183 0.085816 0.707575
    12 0.928312 0.000000 0.000000 0.000000 0.000000 0.000000
    13 0.928313 0.000000 -0.000001 0.000000 0.000000 0.000000
    14 2.979373 -0.388274 -0.044205 0.001088 -0.043611 -0.043599
    15 1.435262 -0.000001 -0.000001 0.000000 0.000000 1.334445
    16 1.482593 -0.000001 0.000001 0.000000 0.000000 0.793674
    17 -3.131626 0.610580 -4.140396 -1.350316 1.239738 -4.689740
    18 4.972047 0.000000 0.000000 -0.171980 -0.764897 -0.121181
    19 11.585358 0.000000 0.000001 0.000000 0.000000 -2.041080
    20 10.127058 0.000000 0.000001 2.195468 0.770603 0.303283
    21 1.537458 0.109715 1.664489 -0.264662 -0.055995 0.783079
    22 0.928313 0.000000 0.000002 0.000000 0.000000 -0.453501
    23 0.928311 0.000000 0.000001 0.000000 0.000000 0.000000
    24 2.686395 -0.427337 0.044204 -0.005762 0.043239 -0.157074
    25 1.435260 0.000000 0.000001 0.000000 0.000000 0.732613
    26 1.482593 0.000000 -0.000001 0.000000 0.000000 1.168644
    27 2.046984 0.000001 0.000000 0.149412 -0.184456 0.063801
    28 -0.000005 0.000007 3.713254 -0.099194 -3.044205 5.710232
    29 18.045723 0.000000 0.000000 0.000000 0.000000 -0.409325
    30 17.597597 0.000000 0.000000 -0.055859 -0.020314 -0.165288
    31 0.000005 -0.000003 -3.713254 0.808666 2.835357 6.174899
    32 18.045721 0.000000 0.000000 0.000000 0.000000 -0.783037
    33 17.597597 0.000000 0.000000 0.178391 0.122235 0.488495
  time 9
    0 -0.065443 0.558762 0.368674 0.000000 0.000000 -1.571017
    1 -2.566489 0.484390 0.000000 -1.570795 -1.570787 0.000000
    2 1.293670 0.684478 -0.000001 0.000047 0.002408 0.056512
    3 5.309685 -0.003834 0.000000 -0.227926 0.045302 0.141762
    4 4.826790 -0.004591 0.000000 -0.004902 0.003296 0.165945
    5 5.792767 -0.005304 0.000000 -0.013958 0.010223 0.275941
    6 6.662322 -0.001452 0.000000 0.000000 -0.000001 0.209256
    7 -3.393353 0.665235 4.339626 0.999264 -1.245088 -4.326031
    8 4.827512 0.000000 -0.000002 -0.352432 0.870382 -0.927360
    9 11.140032 0.000000 0.000000 0.000000 0.000000 -1.913103
    10 10.314563 -0.000001 0.000001 -1.183918 -0.713876 -0.085571
    11 1.646836 0.445664 -1.699647 0.359567 0.036876 0.755035
    12 0.928312 0.000000 0.000000 0.000000 0.000000 0.000000
    13 0.928313 0.000000 -0.000001 0.000000 0.000000 0.000000
    14 2.979373 -0.388274 -0.044205 0.001088 -0.043611 -0.043599
    15 1.435262 -0.000001 -0.000001 0.000000 0.000000 1.334445
    16 1.482593 -0.000001 0.000001 0.000000 0.000000 0.793674
    17 -3.131626 0.610580 -4.140396 -1.254211 1.137520 -4.576049
    18 4.972047 0.000000 0.000000 0.055294 -0.728178 -0.207371
    19 11.585358 0.000000 0.000001 0.000000 0.000000 -1.990438
    20 10.127058 0.000000 0.000001 1.857330 0.810887 -0.043117
    21 1.537458 0.109715 1.664489 -0.264662 -0.055995 0.783079
    22 0.928313 0.000000 0.000002 0.000000 0.000000 -0.453501
    23 0.928311 0.000000 0.000001 0.000000 0.000000 0.000000
    24 2.686395 -0.427337 0.044204 -0.005762 0.043239 -0.157074
    25 1.435260 0.000000 0.000001 0.000000 0.000000 0.732613
    26 1.482593 0.000000 -0.000001 0.000000 0.000000 1.168644
    27 2.046984 0.000001 0.000000 0.135108 -0.211717 0.074568
    28 -0.000005 0.000007 3.713254 -0.099769 -3.046985 5.709657
    29 18.045723 0.000000 0.000000 0.000000 0.000000 -0.409917
    30 17.597597 0.000000 0.000000 -0.056923 -0.017706 -0.165058
    31 0.000005 -0.000003 -3.713254 0.807804 2.832385 6.174228
    32 18.045721 0.000000 0.000000 0.000000 0.000000 -0.783116
    33 17.597597 0.000000 0.000000 0.178559 0.123872 0.486047
  time 10
    0 -0.104507 0.336099 0.368674 0.000000 0.000000 -1.571017
    1 -2.753994 0.558611 0.000000 -1.570795 -1.570787 0.000000
    2 1.293670 0.684478 -0.000001 -0.000004 -0.000001 0.061735
    3 5.309685 -0.003834 0.000000 -0.254813 0.060594 0.157924
    4 4.826790 -0.004591 0.000000 0.000000 0.000000 0.183143
    5 5.792767 -0.005304 0.000000 0.000000 0.000000 0.287817
    6 6.662322 -0.001452 0.000000 0.000000 -0.000001 0.209256
    7 -3.393353 0.665235 4.339626 1.008275 -1.207595 -4.328810
    8 4.827512 0.000000 -0.000002 -0.397632 0.917282 -0.819567
    9 11.140032 0.000000 0.000000 0.000000 0.000000 -1.914842
    10 10.314563 -0.000001 0.000001 -1.174440 -0.598097 -0.222426
    11 1.646836 0.445664 -1.699647 0.369513 -0.012682 0.801927
    12 0.928312 0.000000 0.000000 0.000000 0.000000 0.000000
    13 0.928313 0.000000 -0.000001 0.000000 0.000000 0.000000
    14 2.979373 -0.388274 -0.044205 0.001088 -0.043611 -0.043599
    15 1.435262 -0.000001 -0.000001 0.000000 0.000000 1.334445
    16 1.482593 -0.000001 0.000001 0.000000 0.000000 0.793674
    17 -3.131626 0.610580 -4.140396 -1.212846 1.046082 -4.514462
    18 4.972047 0.000000 0.000000 0.149092 -0.740551 -0.208702
    19 11.585358 0.000000 0.000001 0.000000 0.000000 -1.961768
    20 10.127058 0.000000 0.000001 1.667154 0.765213 -0.200784
    21 1.537458 0.109715 1.664489 -0.264662 -0.055995 0.783079
    22 0.928313 0.000000 0.000002 0.000000 0.000000 -0.453501
    23 0.928311 0.000000 0.000001 0.000000 0.000000 0.000000
    24 2.686395 -0.427337 0.044204 -0.005762 0.043239 -0.157074
    25 1.435260 0.000000 0.000001 0.000000 0.000000 0.732613
    26 1.482593 0.000000 -0.000001 0.000000 0.000000 1.168644
    27 2.046984 0.000001 0.000000 0.135237 -0.224787 0.105834
    28 -0.000005 0.000007 3.713254 -0.099865 -3.047848 5.708602
    29 18.045723 0.000000 0.000000 0.000000 0.000000 -0.413544
    30 17.597597 0.000000 0.000000 -0.057278 -0.016771 -0.162308
    31 0.000005 -0.000003 -3.713254 0.807612 2.831522 6.175187
    32 18.045721 0.000000 0.000000 0.000000 0.000000 -0.782250
    33 17.597597 0.000000 0.000000 0.178693 0.125253 0.485308
end
