version 1
nodes
  0 "Bip01" -1
  1 "Bip01 Pelvis" 0
  2 "Bip01 Spine" 1
  3 "Bip01 Spine1" 2
  4 "Bip01 Spine2" 3
  5 "Bip01 Spine3" 4
  6 "Bip01 Neck" 5
  7 "Bip01 L Arm" 6
  8 "Bip01 L Arm1" 7
  9 "Bip01 L Arm2" 8
  10 "Bip01 L Hand" 9
  11 "Bip01 L Finger0" 10
  12 "Bip01 L Finger01" 11
  13 "Bip01 L Finger02" 12
  14 "Bip01 L Finger1" 10
  15 "Bip01 L Finger11" 14
  16 "Bip01 L Finger12" 15
  17 "Bip01 R Arm" 6
  18 "Bip01 R Arm1" 17
  19 "Bip01 R Arm2" 18
  20 "Bip01 R Hand" 19
  21 "Bip01 R Finger0" 20
  22 "Bip01 R Finger01" 21
  23 "Bip01 R Finger02" 22
  24 "Bip01 R Finger1" 20
  25 "Bip01 R Finger11" 24
  26 "Bip01 R Finger12" 25
  27 "Bip01 Head" 6
  28 "Bip01 L Leg" 1
  29 "Bip01 L Leg1" 28
  30 "Bip01 L Foot" 29
  31 "Bip01 R Leg" 1
  32 "Bip01 R Leg1" 31
  33 "Bip01 R Foot" 32
end
skeleton
  time 0
    0 0.282224 2.492415 0.368674 0.000000 0.000000 -1.571017
    1 -0.546896 0.050783 0.000000 -1.570795 -1.570787 0.000000
    2 1.293670 0.684478 -0.000001 -0.000004 0.017485 0.009470
    3 5.309685 -0.003834 0.000000 -0.015537 -0.047375 -0.018871
    4 4.826790 -0.004591 0.000000 -0.091538 0.031915 0.051669
    5 5.792767 -0.005304 0.000000 -0.164912 0.055093 -0.049703
    6 6.662322 -0.001452 0.000000 0.000000 -0.000001 0.209256
    7 -3.393353 0.665235 4.339626 -0.854150 -1.218269 -2.528959
    8 4.827512 0.000000 -0.000002 0.801072 0.952074 0.370056
    9 11.140032 0.000000 0.000000 0.000000 0.000000 -1.535114
    10 10.314563 -0.000001 0.000001 -1.972551 0.013957 0.005995
    11 1.646836 0.445664 -1.699647 0.153911 0.442352 0.277231
    12 0.928312 0.000000 0.000000 0.000000 0.000000 0.000000
    13 0.928313 0.000000 -0.000001 0.000000 0.000000 0.000000
    14 2.979373 -0.388274 -0.044205 0.001088 -0.043611 -0.043599
    15 1.435262 -0.000001 -0.000001 0.000000 0.000000 1.334445
    16 1.482593 -0.000001 0.000001 0.000000 0.000000 0.793674
    17 -3.131626 0.610580 -4.140396 -2.171221 1.280330 -5.542759
    18 4.972047 0.000000 0.000000 -1.014666 -1.012052 -0.263344
    19 11.585358 0.000000 0.000001 0.000000 0.000000 -1.485167
    20 10.127058 0.000000 0.000001 3.106519 -0.477360 0.738520
    21 1.537458 0.109715 1.664489 -0.264662 -0.055995 0.783079
    22 0.928313 0.000000 0.000002 0.000000 0.000000 -0.453501
    23 0.928311 0.000000 0.000001 0.000000 0.000000 0.000000
    24 2.686395 -0.427337 0.044204 -0.005762 0.043239 -0.157074
    25 1.435260 0.000000 0.000001 0.000000 0.000000 0.732613
    26 1.482593 0.000000 -0.000001 0.000000 0.000000 1.168644
    27 2.046984 0.000001 0.000000 0.042997 -0.290373 0.477619
    28 -0.000005 0.000007 3.713254 -0.099098 -3.044205 5.708698
    29 18.045723 0.000000 0.000000 0.000000 0.000000 -0.415838
    30 17.597597 0.000000 0.000000 -0.055910 -0.020241 -0.160290
    31 0.000005 -0.000003 -3.713254 0.808762 2.835453 6.177296
    32 18.045721 0.000000 0.000000 0.000000 0.000000 -0.781620
    33 17.597597 0.000000 0.000000 0.178559 0.123872 0.488726
  time 1
    0 0.051748 2.410381 0.368674 0.000000 0.000000 -1.571017
    1 -0.546896 0.050783 0.000000 -1.570795 -1.570787 0.000000
    2 1.293670 0.684478 -0.000001 0.000047 0.016753 0.014743
    3 5.309685 -0.003834 0.000000 -0.054999 -0.046069 -0.013413
    4 4.826790 -0.004591 0.000000 -0.116106 -0.009252 -0.027109
    5 5.792767 -0.005304 0.000000 -0.164570 -0.014501 -0.007451
    6 6.662322 -0.001452 0.000000 0.000671 -0.018294 0.217914
    7 -3.307412 0.696486 4.398221 -0.759256 -1.277910 -2.626406
    8 4.827512 0.000000 -0.000002 0.836944 0.922314 0.412688
    9 11.140032 0.000000 0.000000 0.000000 0.000000 -1.544968
    10 10.314563 -0.000001 0.000001 -1.906018 -0.007306 0.016736
    11 1.646836 0.445664 -1.699647 0.207671 0.426892 0.375146
    12 0.928312 0.000000 0.000000 0.000000 0.000000 0.000000
    13 0.928313 0.000000 -0.000001 0.000000 0.000000 0.000000
    14 2.979373 -0.388274 -0.044205 -0.001237 -0.043611 0.010425
    15 1.435262 -0.000001 -0.000001 0.000000 0.000000 1.231136
    16 1.482593 -0.000001 0.000001 0.000000 0.000000 0.825889
    17 -3.198034 0.637925 -4.089613 3.766846 1.379314 -5.887280
    18 4.972047 0.000000 0.000000 -0.739461 -1.058012 -0.564241
    19 11.585358 0.000000 0.000001 0.000000 0.000000 -1.529845
    20 10.127058 0.000000 0.000001 2.968585 -0.218443 0.699203
    21 1.537458 0.109715 1.664489 -0.264662 -0.055995 0.783079
    22 0.928313 0.000000 0.000002 0.000000 0.000000 -0.453501
    23 0.928311 0.000000 0.000001 0.000000 0.000000 0.000000
    24 2.686395 -0.427337 0.044204 -0.005762 0.043239 -0.157074
    25 1.435260 0.000000 0.000001 0.000000 0.000000 0.732613
    26 1.482593 0.000000 -0.000001 0.000000 0.000000 1.168644
    27 2.046984 0.000001 0.000000 0.125673 -0.226823 0.476341
    28 -0.000005 0.000007 3.713254 -0.097756 -3.037494 5.709082
    29 18.045723 0.000000 0.000000 0.000000 0.000000 -0.419687
    30 17.597597 0.000000 0.000000 -0.053452 -0.026590 -0.156760
    31 0.000005 -0.000003 -3.713254 0.810775 2.842738 6.181035
    32 18.045721 0.000000 0.000000 0.000000 0.000000 -0.780046
    33 17.597597 0.000000 0.000000 0.178290 0.121348 0.494869
  time 2
    0 -0.147477 2.312722 0.368674 0.000000 0.000000 -1.571017
    1 -0.546896 0.050783 0.000000 -1.570795 -1.570787 0.000000
    2 1.293670 0.684478 -0.000001 0.000148 0.016154 0.019983
    3 5.309685 -0.003834 0.000000 -0.093832 -0.045517 -0.007849
    4 4.826790 -0.004591 0.000000 -0.135352 -0.051066 -0.106130
    5 5.792767 -0.005304 0.000000 -0.165631 -0.056627 0.031376
    6 6.662322 -0.001452 0.000000 0.001222 -0.036601 0.226658
    7 -3.213660 0.731643 4.456817 -0.619598 -1.334032 -2.767930
    8 4.827512 0.000000 -0.000002 0.887565 0.928027 0.468145
    9 11.140032 0.000000 0.000000 0.000000 0.000000 -1.544606
    10 10.314563 -0.000001 0.000001 -1.840433 -0.023231 0.019465
    11 1.646836 0.445664 -1.699647 0.256458 0.406839 0.471720
    12 0.928312 0.000000 0.000000 0.000000 0.000000 0.000000
    13 0.928313 0.000000 -0.000001 0.000000 0.000000 0.000000
    14 2.979373 -0.388274 -0.044205 -0.003586 -0.043479 0.064536
    15 1.435262 -0.000001 -0.000001 0.000000 0.000000 1.127869
    16 1.482593 -0.000001 0.000001 0.000000 0.000000 0.858211
    17 -3.268349 0.661363 -4.031018 3.015011 1.423508 -0.351949
    18 4.972047 0.000000 0.000000 -0.489207 -1.059298 -0.847167
    19 11.585358 0.000000 0.000001 0.000000 0.000000 -1.576321
    20 10.127058 0.000000 0.000001 2.805476 0.073571 0.831460
    21 1.537458 0.109715 1.664489 -0.264662 -0.055995 0.783079
    22 0.928313 0.000000 0.000002 0.000000 0.000000 -0.453501
    23 0.928311 0.000000 0.000001 0.000000 0.000000 0.000000
    24 2.686395 -0.427337 0.044204 -0.005762 0.043239 -0.157074
    25 1.435260 0.000000 0.000001 0.000000 0.000000 0.732613
    26 1.482593 0.000000 -0.000001 0.000000 0.000000 1.168644
    27 2.046984 0.000001 0.000000 0.183361 -0.184869 0.480417
    28 -0.000005 0.000007 3.713254 -0.096510 -3.031645 5.709273
    29 18.045723 0.000000 0.000000 0.000000 0.000000 -0.423980
    30 17.597597 0.000000 0.000000 -0.051349 -0.032127 -0.152909
    31 0.000005 -0.000003 -3.713254 0.812691 2.849066 6.184965
    32 18.045721 0.000000 0.000000 0.000000 0.000000 -0.778078
    33 17.597597 0.000000 0.000000 0.178089 0.119513 0.500181
  time 3
    0 -0.213885 2.281471 0.368674 0.000000 0.000000 -1.571017
    1 -0.546896 0.050783 0.000000 -1.570795 -1.570787 0.000000
    2 1.293670 0.684478 -0.000001 0.000249 0.015327 0.025223
    3 5.309685 -0.003834 0.000000 -0.117009 -0.043157 0.006900
    4 4.826790 -0.004591 0.000000 -0.152309 -0.068276 -0.139247
    5 5.792767 -0.005304 0.000000 -0.165091 -0.050755 0.066486
    6 6.662322 -0.001452 0.000000 0.001630 -0.054922 0.235345
    7 -3.131626 0.762894 4.511506 -0.402203 -1.383294 -2.986108
    8 4.827512 0.000000 -0.000002 0.893942 1.010145 0.450988
    9 11.140032 0.000000 0.000000 0.000000 0.000000 -1.549243
    10 10.314563 -0.000001 0.000001 -1.775606 -0.044401 0.018420
    11 1.646836 0.445664 -1.699647 0.299991 0.382811 0.566588
    12 0.928312 0.000000 0.000000 0.000000 0.000000 0.000000
    13 0.928313 0.000000 -0.000001 0.000000 0.000000 0.000000
    14 2.979373 -0.388274 -0.044205 -0.005935 -0.043227 0.118690
    15 1.435262 -0.000001 -0.000001 0.000000 0.000000 1.024560
    16 1.482593 -0.000001 0.000001 0.000000 0.000000 0.890426
    17 -3.334757 0.684801 -3.972422 2.380488 1.401687 -0.984195
    18 4.972047 0.000000 0.000000 -0.353855 -0.984492 -0.952125
    19 11.585358 0.000000 0.000001 0.000000 0.000000 -1.611607
    20 10.127058 0.000000 0.000001 2.616562 0.232628 0.694601
    21 1.537458 0.109715 1.664489 -0.264662 -0.055995 0.783079
    22 0.928313 0.000000 0.000002 0.000000 0.000000 -0.453501
    23 0.928311 0.000000 0.000001 0.000000 0.000000 0.000000
    24 2.686395 -0.427337 0.044204 -0.005762 0.043239 -0.157074
    25 1.435260 0.000000 0.000001 0.000000 0.000000 0.732613
    26 1.482593 0.000000 -0.000001 0.000000 0.000000 1.168644
    27 2.046984 0.000001 0.000000 0.185989 -0.170117 0.434552
    28 -0.000005 0.000007 3.713254 -0.096030 -3.029728 5.709369
    29 18.045723 0.000000 0.000000 0.000000 0.000000 -0.425460
    30 17.597597 0.000000 0.000000 -0.050614 -0.034022 -0.151625
    31 0.000005 -0.000003 -3.713254 0.813267 2.851271 6.186308
    32 18.045721 0.000000 0.000000 0.000000 0.000000 -0.777448
    33 17.597597 0.000000 0.000000 0.178022 0.118882 0.501982
  time 4
    0 -0.182634 2.324441 0.368674 0.000000 0.000000 -1.571017
    1 -0.546896 0.050783 0.000000 -1.570795 -1.570787 0.000000
    2 1.293670 0.684478 -0.000001 0.000266 0.013961 0.030463
    3 5.309685 -0.003834 0.000000 -0.126369 -0.037056 0.030710
    4 4.826790 -0.004591 0.000000 -0.170887 -0.059240 -0.124298
    5 5.792767 -0.005304 0.000000 -0.163688 -0.035259 0.101845
    6 6.662322 -0.001452 0.000000 0.001858 -0.073257 0.244003
    7 -3.045686 0.790238 4.570101 -0.061733 -1.418866 -3.326646
    8 4.827512 0.000000 -0.000002 0.763206 1.110598 0.278987
    9 11.140032 0.000000 0.000000 0.000000 0.000000 -1.574529
    10 10.314563 -0.000001 0.000001 -1.712296 -0.082057 0.015923
    11 1.646836 0.445664 -1.699647 0.338082 0.355426 0.659546
    12 0.928312 0.000000 0.000000 0.000000 0.000000 0.000000
    13 0.928313 0.000000 -0.000001 0.000000 0.000000 0.000000
    14 2.979373 -0.388274 -0.044205 -0.008260 -0.042832 0.172800
    15 1.435262 -0.000001 -0.000001 0.000000 0.000000 0.921293
    16 1.482593 -0.000001 0.000001 0.000000 0.000000 0.922748
    17 -3.405072 0.712146 -3.906014 2.067335 1.370769 -1.298928
    18 4.972047 0.000000 0.000000 -0.286696 -0.887029 -0.947133
    19 11.585358 0.000000 0.000001 0.000000 0.000000 -1.583101
    20 10.127058 0.000000 0.000001 2.423371 0.114895 0.494315
    21 1.537458 0.109715 1.664489 -0.264662 -0.055995 0.783079
    22 0.928313 0.000000 0.000002 0.000000 0.000000 -0.453501
    23 0.928311 0.000000 0.000001 0.000000 0.000000 0.000000
    24 2.686395 -0.427337 0.044204 -0.005762 0.043239 -0.157074
    25 1.435260 0.000000 0.000001 0.000000 0.000000 0.732613
    26 1.482593 0.000000 -0.000001 0.000000 0.000000 1.168644
    27 2.046984 0.000001 0.000000 0.170178 -0.155395 0.332603
    28 -0.000005 0.000007 3.713254 -0.096318 -3.030878 5.709849
    29 18.045723 0.000000 0.000000 0.000000 0.000000 -0.422426
    30 17.597597 0.000000 0.000000 -0.050994 -0.033038 -0.154009
    31 0.000005 -0.000003 -3.713254 0.812979 2.850024 6.184678
    32 18.045721 0.000000 0.000000 0.000000 0.000000 -0.778393
    33 17.597597 0.000000 0.000000 0.177988 0.118665 0.500873
  time 5
    0 -0.096694 2.386943 0.368674 0.000000 0.000000 -1.571017
    1 -0.546896 0.050783 0.000000 -1.570795 -1.570787 0.000000
    2 1.293670 0.684478 -0.000001 0.000266 0.012044 0.035686
    3 5.309685 -0.003834 0.000000 -0.133873 -0.027840 0.057012
    4 4.826790 -0.004591 0.000000 -0.189790 -0.041023 -0.093651
    5 5.792767 -0.005304 0.000000 -0.161350 -0.014118 0.137038
    6 6.662322 -0.001452 0.000000 0.001930 -0.091578 0.252747
    7 -2.951933 0.825396 4.624791 0.396349 -1.429688 -3.784370
    8 4.827512 0.000000 -0.000002 0.504764 1.163126 -0.015625
    9 11.140032 0.000000 0.000000 0.000000 0.000000 -1.635752
    10 10.314563 -0.000001 0.000001 -1.651070 -0.146597 0.010582
    11 1.646836 0.445664 -1.699647 0.369982 0.325303 0.750749
    12 0.928312 0.000000 0.000000 0.000000 0.000000 0.000000
    13 0.928313 0.000000 -0.000001 0.000000 0.000000 0.000000
    14 2.979373 -0.388274 -0.044205 -0.010561 -0.042341 0.226911
    15 1.435262 -0.000001 -0.000001 0.000000 0.000000 0.818067
    16 1.482593 -0.000001 0.000001 0.000000 0.000000 0.954963
    17 -3.463667 0.743397 -3.843512 -1.381078 1.772487 -4.755828
    18 4.972047 0.000000 0.000000 -0.327779 -0.806599 -0.761045
    19 11.585358 0.000000 0.000001 0.000000 0.000000 -1.644851
    20 10.127058 0.000000 0.000001 1.998911 0.311778 0.515624
    21 1.537458 0.109715 1.664489 -0.264662 -0.055995 0.783079
    22 0.928313 0.000000 0.000002 0.000000 0.000000 -0.453501
    23 0.928311 0.000000 0.000001 0.000000 0.000000 0.000000
    24 2.686395 -0.427337 0.044204 -0.005762 0.043239 -0.157074
    25 1.435260 0.000000 0.000001 0.000000 0.000000 0.732613
    26 1.482593 0.000000 -0.000001 0.000000 0.000000 1.168644
    27 2.046984 0.000001 0.000000 0.169014 -0.146308 0.211371
    28 -0.000005 0.000007 3.713254 -0.096893 -3.033275 5.710232
    29 18.045723 0.000000 0.000000 0.000000 0.000000 -0.418503
    30 17.597597 0.000000 0.000000 -0.051906 -0.030626 -0.157310
    31 0.000005 -0.000003 -3.713254 0.812116 2.847148 6.182185
    32 18.045721 0.000000 0.000000 0.000000 0.000000 -0.779731
    33 17.597597 0.000000 0.000000 0.178022 0.118882 0.498564
  time 6
    0 0.020497 2.449444 0.368674 0.000000 0.000000 -1.571017
    1 -0.546896 0.050783 0.000000 -1.570795 -1.570787 0.000000
    2 1.293670 0.684478 -0.000001 0.000266 0.009814 0.040926
    3 5.309685 -0.003834 0.000000 -0.139114 -0.016455 0.084902
    4 4.826790 -0.004591 0.000000 -0.208235 -0.017030 -0.052134
    5 5.792767 -0.005304 0.000000 -0.158166 0.008761 0.171608
    6 6.662322 -0.001452 0.000000 0.001834 -0.109899 0.261462
    7 -2.869899 0.852740 4.679480 0.830659 -1.410675 -4.217277
    8 4.827512 0.000000 -0.000002 0.391885 1.107443 -0.082432
    9 11.140032 0.000000 0.000000 0.000000 0.000000 -1.873327
    10 10.314563 -0.000001 0.000001 -1.591645 -0.353613 0.001117
    11 1.646836 0.445664 -1.699647 0.396064 0.293059 0.840091
    12 0.928312 0.000000 0.000000 0.000000 0.000000 0.000000
    13 0.928313 0.000000 -0.000001 0.000000 0.000000 0.000000
    14 2.979373 -0.388274 -0.044205 -0.012838 -0.041681 0.281021
    15 1.435262 -0.000001 -0.000001 0.000000 0.000000 0.714800
    16 1.482593 -0.000001 0.000001 0.000000 0.000000 0.987284
    17 -3.526169 0.766835 -3.781010 1.354381 1.388305 -2.035574
    18 4.972047 0.000000 0.000000 -0.419327 -0.810295 -0.537219
    19 11.585358 0.000000 0.000001 0.000000 0.000000 -1.847498
    20 10.127058 0.000000 0.000001 1.650956 0.402465 0.128157
    21 1.537458 0.109715 1.664489 -0.264662 -0.055995 0.783079
    22 0.928313 0.000000 0.000002 0.000000 0.000000 -0.453501
    23 0.928311 0.000000 0.000001 0.000000 0.000000 0.000000
    24 2.686395 -0.427337 0.044204 -0.005762 0.043239 -0.157074
    25 1.435260 0.000000 0.000001 0.000000 0.000000 0.732613
    26 1.482593 0.000000 -0.000001 0.000000 0.000000 1.168644
    27 2.046984 0.000001 0.000000 0.195424 -0.139876 0.078157
    28 -0.000005 0.000007 3.713254 -0.097564 -3.036727 5.710328
    29 18.045723 0.000000 0.000000 0.000000 0.000000 -0.414506
    30 17.597597 0.000000 0.000000 -0.053148 -0.027427 -0.160703
    31 0.000005 -0.000003 -3.713254 0.811062 2.843314 6.179405
    32 18.045721 0.000000 0.000000 0.000000 0.000000 -0.781148
    33 17.597597 0.000000 0.000000 0.178123 0.119592 0.495423
  time 7
    0 0.137688 2.515853 0.368674 0.000000 0.000000 -1.571017
    1 -0.546896 0.050783 0.000000 -1.570795 -1.570787 0.000000
    2 1.293670 0.684478 -0.000001 0.000215 0.007405 0.046166
    3 5.309685 -0.003834 0.000000 -0.142773 -0.003272 0.113606
    4 4.826790 -0.004591 0.000000 -0.225764 0.009384 -0.004885
    5 5.792767 -0.005304 0.000000 -0.154694 0.029506 0.204870
    6 6.662322 -0.001452 0.000000 0.001582 -0.128206 0.270206
    7 -2.776146 0.880085 4.730263 1.133075 -1.370166 -4.517380
    8 4.827512 0.000000 -0.000002 0.263461 0.991300 -0.201576
    9 11.140032 0.000000 0.000000 0.000000 0.000000 -2.125754
    10 10.314563 -0.000001 0.000001 -1.526724 -0.550980 -0.042140
    11 1.646836 0.445664 -1.699647 0.416329 0.259314 0.927937
    12 0.928312 0.000000 0.000000 0.000000 0.000000 0.000000
    13 0.928313 0.000000 -0.000001 0.000000 0.000000 0.000000
    14 2.979373 -0.388274 -0.044205 -0.015091 -0.040926 0.335219
    15 1.435262 -0.000001 -0.000001 0.000000 0.000000 0.611491
    16 1.482593 -0.000001 0.000001 0.000000 0.000000 1.019553
    17 -3.588671 0.798086 -3.718508 0.894109 1.377289 -2.511219
    18 4.972047 0.000000 0.000000 -0.413230 -0.829980 -0.388601
    19 11.585358 0.000000 0.000001 0.000000 0.000000 -2.014697
    20 10.127058 0.000000 0.000001 1.992319 0.174565 -0.051270
    21 1.537458 0.109715 1.664489 -0.264662 -0.055995 0.783079
    22 0.928313 0.000000 0.000002 0.000000 0.000000 -0.453501
    23 0.928311 0.000000 0.000001 0.000000 0.000000 0.000000
    24 2.686395 -0.427337 0.044204 -0.005762 0.043239 -0.157074
    25 1.435260 0.000000 0.000001 0.000000 0.000000 0.732613
    26 1.482593 0.000000 -0.000001 0.000000 0.000000 1.168644
    27 2.046984 0.000001 0.000000 0.237387 -0.171002 0.016355
    28 -0.000005 0.000007 3.713254 -0.098523 -3.040562 5.710424
    29 18.045723 0.000000 0.000000 0.000000 0.000000 -0.411324
    30 17.597597 0.000000 0.000000 -0.054541 -0.023809 -0.163545
    31 0.000005 -0.000003 -3.713254 0.809816 2.839287 6.176816
    32 18.045721 0.000000 0.000000 0.000000 0.000000 -0.782250
    33 17.597597 0.000000 0.000000 0.178257 0.120776 0.491913
  time 8
    0 0.274411 2.558823 0.368674 0.000000 0.000000 -1.571017
    1 -0.546896 0.050783 0.000000 -1.570795 -1.570787 0.000000
    2 1.293670 0.684478 -0.000001 0.000148 0.004913 0.051406
    3 5.309685 -0.003834 0.000000 -0.145462 0.011206 0.142397
    4 4.826790 -0.004591 0.000000 -0.242378 0.034947 0.043159
    5 5.792767 -0.005304 0.000000 -0.151655 0.044343 0.235931
    6 6.662322 -0.001452 0.000000 0.001163 -0.146527 0.278950
    7 -2.678487 0.907429 4.777139 1.325452 -1.318213 -4.706621
    8 4.827512 0.000000 -0.000002 0.065045 0.626670 -0.650772
    9 11.140032 0.000000 0.000000 0.000000 0.000000 -2.169226
    10 10.314563 -0.000001 0.000001 -1.465214 -0.511076 -0.086152
    11 1.646836 0.445664 -1.699647 0.430590 0.224685 1.014388
    12 0.928312 0.000000 0.000000 0.000000 0.000000 0.000000
    13 0.928313 0.000000 -0.000001 0.000000 0.000000 0.000000
    14 2.979373 -0.388274 -0.044205 -0.017272 -0.040076 0.389286
    15 1.435262 -0.000001 -0.000001 0.000000 0.000000 0.508182
    16 1.482593 -0.000001 0.000001 0.000000 0.000000 1.051821
    17 -3.651173 0.829337 -3.656006 0.470711 1.329099 -2.950084
    18 4.972047 0.000000 0.000000 -0.202934 -0.856094 -0.408168
    19 11.585358 0.000000 0.000001 0.000000 0.000000 -2.017147
    20 10.127058 0.000000 0.000001 1.837555 0.096266 -0.139008
    21 1.537458 0.109715 1.664489 -0.264662 -0.055995 0.783079
    22 0.928313 0.000000 0.000002 0.000000 0.000000 -0.453501
    23 0.928311 0.000000 0.000001 0.000000 0.000000 0.000000
    24 2.686395 -0.427337 0.044204 -0.005762 0.043239 -0.157074
    25 1.435260 0.000000 0.000001 0.000000 0.000000 0.732613
    26 1.482593 0.000000 -0.000001 0.000000 0.000000 1.168644
    27 2.046984 0.000001 0.000000 0.294213 -0.196936 -0.043318
    28 -0.000005 0.000007 3.713254 -0.099194 -3.044205 5.710232
    29 18.045723 0.000000 0.000000 0.000000 0.000000 -0.409325
    30 17.597597 0.000000 0.000000 -0.055859 -0.020314 -0.165288
    31 0.000005 -0.000003 -3.713254 0.808666 2.835357 6.174899
    32 18.045721 0.000000 0.000000 0.000000 0.000000 -0.783037
    33 17.597597 0.000000 0.000000 0.178391 0.122235 0.488495
  time 9
    0 0.368164 2.574448 0.368674 0.000000 0.000000 -1.571017
    1 -0.546896 0.050783 0.000000 -1.570795 -1.570787 0.000000
    2 1.293670 0.684478 -0.000001 0.000047 0.002408 0.056629
    3 5.309685 -0.003834 0.000000 -0.148065 0.026462 0.170536
    4 4.826790 -0.004591 0.000000 -0.258763 0.056435 0.086814
    5 5.792767 -0.005304 0.000000 -0.151169 0.044846 0.253704
    6 6.662322 -0.001452 0.000000 0.000563 -0.164834 0.287779
    7 -2.584734 0.938680 4.824015 1.451787 -1.260612 -4.829077
    8 4.827512 0.000000 -0.000002 0.106578 0.286087 -0.918089
    9 11.140032 0.000000 0.000000 0.000000 0.000000 -2.091049
    10 10.314563 -0.000001 0.000001 -1.416309 -0.393892 -0.103222
    11 1.646836 0.445664 -1.699647 0.439128 0.189791 1.099858
    12 0.928312 0.000000 0.000000 0.000000 0.000000 0.000000
    13 0.928313 0.000000 -0.000001 0.000000 0.000000 0.000000
    14 2.979373 -0.388274 -0.044205 -0.019405 -0.039081 0.443396
    15 1.435262 -0.000001 -0.000001 0.000000 0.000000 0.404873
    16 1.482593 -0.000001 0.000001 0.000000 0.000000 1.084090
    17 -3.713675 0.852775 -3.581785 0.251275 1.260376 -3.182159
    18 4.972047 0.000000 0.000000 0.009051 -0.892733 -0.488168
    19 11.585358 0.000000 0.000001 0.000000 0.000000 -1.981698
    20 10.127058 0.000000 0.000001 1.653550 0.049646 -0.153014
    21 1.537458 0.109715 1.664489 -0.264662 -0.055995 0.783079
    22 0.928313 0.000000 0.000002 0.000000 0.000000 -0.453501
    23 0.928311 0.000000 0.000001 0.000000 0.000000 0.000000
    24 2.686395 -0.427337 0.044204 -0.005762 0.043239 -0.157074
    25 1.435260 0.000000 0.000001 0.000000 0.000000 0.732613
    26 1.482593 0.000000 -0.000001 0.000000 0.000000 1.168644
    27 2.046984 0.000001 0.000000 0.361638 -0.210537 -0.084134
    28 -0.000005 0.000007 3.713254 -0.099769 -3.046985 5.709657
    29 18.045723 0.000000 0.000000 0.000000 0.000000 -0.409917
    30 17.597597 0.000000 0.000000 -0.056923 -0.017706 -0.165058
    31 0.000005 -0.000003 -3.713254 0.807804 2.832385 6.174228
    32 18.045721 0.000000 0.000000 0.000000 0.000000 -0.783116
    33 17.597597 0.000000 0.000000 0.178559 0.123872 0.486047
  time 10
    0 0.395509 2.547104 0.368674 0.000000 0.000000 -1.571017
    1 -0.546896 0.050783 0.000000 -1.570795 -1.570787 0.000000
    2 1.293670 0.684478 -0.000001 -0.000004 -0.000001 0.061869
    3 5.309685 -0.003834 0.000000 -0.151333 0.041862 0.197420
    4 4.826790 -0.004591 0.000000 -0.281289 0.061661 0.113360
    5 5.792767 -0.005304 0.000000 -0.152158 0.038602 0.263338
    6 6.662322 -0.001452 0.000000 -0.000144 -0.183155 0.296580
    7 -2.483168 0.962119 4.870892 1.539780 -1.199877 -4.912343
    8 4.827512 0.000000 -0.000002 -0.244017 0.665725 -1.080991
    9 11.140032 0.000000 0.000000 0.000000 0.000000 -1.736390
    10 10.314563 -0.000001 0.000001 -1.373375 -0.276239 -0.099913
    11 1.646836 0.445664 -1.699647 0.441755 0.155162 1.184501
    12 0.928312 0.000000 0.000000 0.000000 0.000000 0.000000
    13 0.928313 0.000000 -0.000001 0.000000 0.000000 0.000000
    14 2.979373 -0.388274 -0.044205 -0.021491 -0.037954 0.497507
    15 1.435262 -0.000001 -0.000001 0.000000 0.000000 0.301731
    16 1.482593 -0.000001 0.000001 0.000000 0.000000 1.116358
    17 -3.768364 0.884026 -3.515377 0.144375 1.191889 -3.300160
    18 4.972047 0.000000 0.000000 0.038410 -0.943434 -0.426404
    19 11.585358 0.000000 0.000001 0.000000 0.000000 -1.968303
    20 10.127058 0.000000 0.000001 1.569752 0.000000 -0.069778
    21 1.537458 0.109715 1.664489 -0.264662 -0.055995 0.783079
    22 0.928313 0.000000 0.000002 0.000000 0.000000 -0.453501
    23 0.928311 0.000000 0.000001 0.000000 0.000000 0.000000
    24 2.686395 -0.427337 0.044204 -0.005762 0.043239 -0.157074
    25 1.435260 0.000000 0.000001 0.000000 0.000000 0.732613
    26 1.482593 0.000000 -0.000001 0.000000 0.000000 1.168644
    27 2.046984 0.000001 0.000000 0.435913 -0.215110 -0.098733
    28 -0.000005 0.000007 3.713254 -0.099865 -3.047848 5.708602
    29 18.045723 0.000000 0.000000 0.000000 0.000000 -0.413544
    30 17.597597 0.000000 0.000000 -0.057278 -0.016771 -0.162308
    31 0.000005 -0.000003 -3.713254 0.807612 2.831522 6.175187
    32 18.045721 0.000000 0.000000 0.000000 0.000000 -0.782250
    33 17.597597 0.000000 0.000000 0.178693 0.125253 0.485308
end
