version 1
nodes
  0 "Bip01" -1
  1 "Bip01 Pelvis" 0
  2 "Bip01 Spine" 1
  3 "Bip01 Spine1" 2
  4 "Bip01 Spine2" 3
  5 "Bip01 Spine3" 4
  6 "Bip01 Neck" 5
  7 "Bip01 L Arm" 6
  8 "Bip01 L Arm1" 7
  9 "Bip01 L Arm2" 8
  10 "Bip01 L Hand" 9
  11 "Bip01 L Finger0" 10
  12 "Bip01 L Finger01" 11
  13 "Bip01 L Finger02" 12
  14 "Bip01 L Finger1" 10
  15 "Bip01 L Finger11" 14
  16 "Bip01 L Finger12" 15
  17 "Bip01 R Arm" 6
  18 "Bip01 R Arm1" 17
  19 "Bip01 R Arm2" 18
  20 "Bip01 R Hand" 19
  21 "Bip01 R Finger0" 20
  22 "Bip01 R Finger01" 21
  23 "Bip01 R Finger02" 22
  24 "Bip01 R Finger1" 20
  25 "Bip01 R Finger11" 24
  26 "Bip01 R Finger12" 25
  27 "Bip01 Head" 6
  28 "Bip01 L Leg" 1
  29 "Bip01 L Leg1" 28
  30 "Bip01 L Foot" 29
  31 "Bip01 R Leg" 1
  32 "Bip01 R Leg1" 31
  33 "Bip01 R Foot" 32
end
skeleton
  time 0
    0 0.450198 3.097902 0.368674 0.000000 0.000000 -1.571017
    1 -0.000004 0.000000 0.000000 -1.570795 -1.570787 0.000000
    2 1.293670 0.684478 -0.000001 -0.010262 -0.022376 -0.076964
    3 5.309685 -0.003834 0.000000 -0.028555 -0.024041 0.137717
    4 4.826790 -0.004591 0.000000 -0.139300 0.025276 0.197122
    5 5.792767 -0.005304 0.000000 -0.152320 0.058509 0.308995
    6 6.662322 -0.001452 0.000000 -0.016647 0.002267 0.459408
    7 -3.131626 1.411351 4.351345 1.249920 -1.014124 -4.796307
    8 4.827512 0.000000 -0.000002 -0.654560 0.388415 -1.061148
    9 11.140032 0.000000 0.000000 0.000000 0.000000 -0.597061
    10 10.314563 -0.000001 0.000001 -3.754630 0.270619 0.133444
    11 1.646836 0.445664 -1.699647 1.779178 0.852067 1.503347
    12 0.928312 0.000000 0.000000 0.000000 0.000000 0.265318
    13 0.928313 0.000000 -0.000001 0.000000 0.000000 0.131550
    14 2.979373 -0.388274 -0.044205 0.060604 0.119811 0.758635
    15 1.435262 -0.000001 -0.000001 0.000000 0.000000 0.541908
    16 1.482593 -0.000001 0.000001 0.000000 0.000000 0.485308
    17 -2.869899 1.427012 -4.128677 -0.077928 1.364828 -3.678013
    18 4.972047 0.000000 0.000000 0.066174 -0.705439 -1.070727
    19 11.585358 0.000000 0.000001 0.000000 0.000000 -2.158290
    20 10.127058 0.000000 0.000001 -0.706261 3.061608 -1.468180
    21 1.537458 0.109715 1.664489 -0.233165 -0.412999 0.435664
    22 0.928313 0.000000 0.000002 0.000000 0.000000 0.564525
    23 0.928311 0.000000 0.000001 0.000000 0.000000 0.675983
    24 2.686395 -0.427337 0.044204 0.012610 -0.131652 -0.088153
    25 1.435260 0.000000 0.000001 0.000000 0.000000 0.398456
    26 1.482593 0.000000 -0.000001 0.000000 0.000000 0.705679
    27 2.046984 0.000001 0.000000 0.422816 0.285151 -0.066129
    28 -0.000005 0.000007 3.713254 -0.099865 -3.047848 5.708602
    29 18.045723 0.000000 0.000000 0.000000 0.000000 -0.413544
    30 17.597597 0.000000 0.000000 -0.057202 -0.016721 -0.162308
    31 0.000005 -0.000003 -3.713254 0.436511 2.946371 6.090342
    32 18.045721 0.000000 0.000000 0.000000 0.000000 -0.782250
    33 17.597597 0.000000 0.000000 0.093506 0.083814 0.525122
  time 1
    0 0.450198 3.097902 0.368674 0.000000 0.000000 -1.571017
    1 -0.000004 0.000000 0.000000 -1.570795 -1.570787 0.000000
    2 1.293670 0.684478 -0.000001 -0.010262 -0.022376 -0.076964
    3 5.309685 -0.003834 0.000000 -0.098171 -0.023981 0.137717
    4 4.826790 -0.004591 0.000000 -0.259392 0.025371 0.197100
    5 5.792767 -0.005304 0.000000 -0.289764 0.058617 0.308933
    6 6.662322 -0.001452 0.000000 -0.016647 0.002267 0.459408
    7 -3.131626 1.411351 4.351345 1.249920 -1.014124 -4.796307
    8 4.827512 0.000000 -0.000002 -0.542398 0.700346 -0.461614
    9 11.140032 0.000000 0.000000 0.000000 0.000000 -1.474253
    10 10.314563 -0.000001 0.000001 -3.730273 0.160835 0.561312
    11 1.646836 0.445664 -1.699647 1.779178 0.852067 1.503347
    12 0.928312 0.000000 0.000000 0.000000 0.000000 0.265318
    13 0.928313 0.000000 -0.000001 0.000000 0.000000 0.131550
    14 2.979373 -0.388274 -0.044205 0.060604 0.119811 0.758635
    15 1.435262 -0.000001 -0.000001 0.000000 0.000000 0.541908
    16 1.482593 -0.000001 0.000001 0.000000 0.000000 0.485308
    17 -2.869899 1.427012 -4.128677 0.994990 1.204955 -2.636787
    18 4.972047 0.000000 0.000000 0.042725 -0.664702 -1.501207
    19 11.585358 0.000000 0.000001 0.000000 0.000000 -2.115735
    20 10.127058 0.000000 0.000001 2.349320 -0.118111 1.549269
    21 1.537458 0.109715 1.664489 -0.233165 -0.412999 0.435664
    22 0.928313 0.000000 0.000002 0.000000 0.000000 0.564525
    23 0.928311 0.000000 0.000001 0.000000 0.000000 0.675983
    24 2.686395 -0.427337 0.044204 0.012610 -0.131652 -0.088153
    25 1.435260 0.000000 0.000001 0.000000 0.000000 0.398456
    26 1.482593 0.000000 -0.000001 0.000000 0.000000 0.705679
    27 2.046984 0.000001 0.000000 0.599068 0.105180 -0.093320
    28 -0.000005 0.000007 3.713254 -0.099865 -3.047848 5.708602
    29 18.045723 0.000000 0.000000 0.000000 0.000000 -0.413544
    30 17.597597 0.000000 0.000000 -0.057202 -0.016721 -0.162308
    31 0.000005 -0.000003 -3.713254 0.436511 2.946371 6.090342
    32 18.045721 0.000000 0.000000 0.000000 0.000000 -0.782250
    33 17.597597 0.000000 0.000000 0.093506 0.083814 0.525122
  time 2
    0 0.450198 3.097902 0.368674 0.000000 0.000000 -1.571017
    1 -0.000004 0.000000 0.000000 -1.570795 -1.570787 0.000000
    2 1.293670 0.684478 -0.000001 -0.010262 -0.022376 -0.076964
    3 5.309685 -0.003834 0.000000 -0.093100 -0.023981 0.137717
    4 4.826790 -0.004591 0.000000 -0.227309 0.025347 0.197122
    5 5.792767 -0.005304 0.000000 -0.256397 0.058593 0.308933
    6 6.662322 -0.001452 0.000000 -0.016647 0.002267 0.459408
    7 -3.131626 1.411351 4.351345 1.249920 -1.014124 -4.796307
    8 4.827512 0.000000 -0.000002 -0.586003 0.615840 -0.579372
    9 11.140032 0.000000 0.000000 0.000000 0.000000 -1.370138
    10 10.314563 -0.000001 0.000001 -3.713118 0.182474 0.525487
    11 1.646836 0.445664 -1.699647 1.779178 0.852067 1.503347
    12 0.928312 0.000000 0.000000 0.000000 0.000000 0.265318
    13 0.928313 0.000000 -0.000001 0.000000 0.000000 0.131550
    14 2.979373 -0.388274 -0.044205 0.060604 0.119811 0.758635
    15 1.435262 -0.000001 -0.000001 0.000000 0.000000 0.541908
    16 1.482593 -0.000001 0.000001 0.000000 0.000000 0.485308
    17 -2.869899 1.427012 -4.128677 0.955822 1.223911 -2.673566
    18 4.972047 0.000000 0.000000 0.052667 -0.674344 -1.457746
    19 11.585358 0.000000 0.000001 0.000000 0.000000 -2.116715
    20 10.127058 0.000000 0.000001 2.364467 -0.046715 1.541516
    21 1.537458 0.109715 1.664489 -0.233165 -0.412999 0.435664
    22 0.928313 0.000000 0.000002 0.000000 0.000000 0.564525
    23 0.928311 0.000000 0.000001 0.000000 0.000000 0.675983
    24 2.686395 -0.427337 0.044204 0.012610 -0.131652 -0.088153
    25 1.435260 0.000000 0.000001 0.000000 0.000000 0.398456
    26 1.482593 0.000000 -0.000001 0.000000 0.000000 0.705679
    27 2.046984 0.000001 0.000000 0.486191 0.142679 -0.139914
    28 -0.000005 0.000007 3.713254 -0.099865 -3.047848 5.708602
    29 18.045723 0.000000 0.000000 0.000000 0.000000 -0.413544
    30 17.597597 0.000000 0.000000 -0.057202 -0.016721 -0.162308
    31 0.000005 -0.000003 -3.713254 0.436511 2.946371 6.090342
    32 18.045721 0.000000 0.000000 0.000000 0.000000 -0.782250
    33 17.597597 0.000000 0.000000 0.093506 0.083814 0.525122
  time 3
    0 0.450198 3.097902 0.368674 0.000000 0.000000 -1.571017
    1 -0.000004 0.000000 0.000000 -1.570795 -1.570787 0.000000
    2 1.293670 0.684478 -0.000001 -0.010262 -0.022376 -0.076964
    3 5.309685 -0.003834 0.000000 -0.072050 -0.024005 0.137717
    4 4.826790 -0.004591 0.000000 -0.174359 0.025299 0.197122
    5 5.792767 -0.005304 0.000000 -0.198261 0.058545 0.308995
    6 6.662322 -0.001452 0.000000 -0.016647 0.002267 0.459408
    7 -3.131626 1.411351 4.351345 1.249920 -1.014124 -4.796307
    8 4.827512 0.000000 -0.000002 -0.632717 0.486736 -0.799204
    9 11.140032 0.000000 0.000000 0.000000 0.000000 -1.089743
    10 10.314563 -0.000001 0.000001 -3.703451 0.222097 0.393451
    11 1.646836 0.445664 -1.699647 1.779178 0.852067 1.503347
    12 0.928312 0.000000 0.000000 0.000000 0.000000 0.265318
    13 0.928313 0.000000 -0.000001 0.000000 0.000000 0.131550
    14 2.979373 -0.388274 -0.044205 0.060604 0.119811 0.758635
    15 1.435262 -0.000001 -0.000001 0.000000 0.000000 0.541908
    16 1.482593 -0.000001 0.000001 0.000000 0.000000 0.485308
    17 -2.869899 1.427012 -4.128677 0.740875 1.295579 -2.878823
    18 4.972047 0.000000 0.000000 0.065236 -0.690654 -1.321175
    19 11.585358 0.000000 0.000001 0.000000 0.000000 -2.126353
    20 10.127058 0.000000 0.000001 2.392516 0.055982 1.569228
    21 1.537458 0.109715 1.664489 -0.233165 -0.412999 0.435664
    22 0.928313 0.000000 0.000002 0.000000 0.000000 0.564525
    23 0.928311 0.000000 0.000001 0.000000 0.000000 0.675983
    24 2.686395 -0.427337 0.044204 0.012610 -0.131652 -0.088153
    25 1.435260 0.000000 0.000001 0.000000 0.000000 0.398456
    26 1.482593 0.000000 -0.000001 0.000000 0.000000 0.705679
    27 2.046984 0.000001 0.000000 0.399422 0.208619 -0.135717
    28 -0.000005 0.000007 3.713254 -0.099865 -3.047848 5.708602
    29 18.045723 0.000000 0.000000 0.000000 0.000000 -0.413544
    30 17.597597 0.000000 0.000000 -0.057202 -0.016721 -0.162308
    31 0.000005 -0.000003 -3.713254 0.436511 2.946371 6.090342
    32 18.045721 0.000000 0.000000 0.000000 0.000000 -0.782250
    33 17.597597 0.000000 0.000000 0.093506 0.083814 0.525122
  time 4
    0 0.450198 3.097902 0.368674 0.000000 0.000000 -1.571017
    1 -0.000004 0.000000 0.000000 -1.570795 -1.570787 0.000000
    2 1.293670 0.684478 -0.000001 -0.010262 -0.022376 -0.076964
    3 5.309685 -0.003834 0.000000 -0.051409 -0.024017 0.137717
    4 4.826790 -0.004591 0.000000 -0.153682 0.025287 0.197122
    5 5.792767 -0.005304 0.000000 -0.172430 0.058521 0.308995
    6 6.662322 -0.001452 0.000000 -0.016647 0.002267 0.459408
    7 -3.131626 1.411351 4.351345 1.249920 -1.014124 -4.796307
    8 4.827512 0.000000 -0.000002 -0.642363 0.436936 -0.925021
    9 11.140032 0.000000 0.000000 0.000000 0.000000 -0.868543
    10 10.314563 -0.000001 0.000001 -3.723923 0.245983 0.276976
    11 1.646836 0.445664 -1.699647 1.779178 0.852067 1.503347
    12 0.928312 0.000000 0.000000 0.000000 0.000000 0.265318
    13 0.928313 0.000000 -0.000001 0.000000 0.000000 0.131550
    14 2.979373 -0.388274 -0.044205 0.060604 0.119811 0.758635
    15 1.435262 -0.000001 -0.000001 0.000000 0.000000 0.541908
    16 1.482593 -0.000001 0.000001 0.000000 0.000000 0.485308
    17 -2.869899 1.427012 -4.128677 0.413583 1.347134 -3.196718
    18 4.972047 0.000000 0.000000 0.066925 -0.698689 -1.202640
    19 11.585358 0.000000 0.000001 0.000000 0.000000 -2.139504
    20 10.127058 0.000000 0.000001 -0.728070 3.062270 -1.523754
    21 1.537458 0.109715 1.664489 -0.233165 -0.412999 0.435664
    22 0.928313 0.000000 0.000002 0.000000 0.000000 0.564525
    23 0.928311 0.000000 0.000001 0.000000 0.000000 0.675983
    24 2.686395 -0.427337 0.044204 0.012610 -0.131652 -0.088153
    25 1.435260 0.000000 0.000001 0.000000 0.000000 0.398456
    26 1.482593 0.000000 -0.000001 0.000000 0.000000 0.705679
    27 2.046984 0.000001 0.000000 0.405238 0.248390 -0.101227
    28 -0.000005 0.000007 3.713254 -0.099865 -3.047848 5.708602
    29 18.045723 0.000000 0.000000 0.000000 0.000000 -0.413544
    30 17.597597 0.000000 0.000000 -0.057202 -0.016721 -0.162308
    31 0.000005 -0.000003 -3.713254 0.436511 2.946371 6.090342
    32 18.045721 0.000000 0.000000 0.000000 0.000000 -0.782250
    33 17.597597 0.000000 0.000000 0.093506 0.083814 0.525122
  time 5
    0 0.450198 3.097902 0.368674 0.000000 0.000000 -1.571017
    1 -0.000004 0.000000 0.000000 -1.570795 -1.570787 0.000000
    2 1.293670 0.684478 -0.000001 -0.010262 -0.022376 -0.076964
    3 5.309685 -0.003834 0.000000 -0.028555 -0.024041 0.137717
    4 4.826790 -0.004591 0.000000 -0.139300 0.025276 0.197122
    5 5.792767 -0.005304 0.000000 -0.152320 0.058509 0.308995
    6 6.662322 -0.001452 0.000000 -0.016647 0.002267 0.459408
    7 -3.131626 1.411351 4.351345 1.249920 -1.014124 -4.796307
    8 4.827512 0.000000 -0.000002 -0.654560 0.388415 -1.061148
    9 11.140032 0.000000 0.000000 0.000000 0.000000 -0.597061
    10 10.314563 -0.000001 0.000001 -3.754630 0.270619 0.133444
    11 1.646836 0.445664 -1.699647 1.779178 0.852067 1.503347
    12 0.928312 0.000000 0.000000 0.000000 0.000000 0.265318
    13 0.928313 0.000000 -0.000001 0.000000 0.000000 0.131550
    14 2.979373 -0.388274 -0.044205 0.060604 0.119811 0.758635
    15 1.435262 -0.000001 -0.000001 0.000000 0.000000 0.541908
    16 1.482593 -0.000001 0.000001 0.000000 0.000000 0.485308
    17 -2.869899 1.427012 -4.128677 -0.077928 1.364828 -3.678013
    18 4.972047 0.000000 0.000000 0.066174 -0.705439 -1.070727
    19 11.585358 0.000000 0.000001 0.000000 0.000000 -2.158290
    20 10.127058 0.000000 0.000001 -0.706261 3.061608 -1.468180
    21 1.537458 0.109715 1.664489 -0.233165 -0.412999 0.435664
    22 0.928313 0.000000 0.000002 0.000000 0.000000 0.564525
    23 0.928311 0.000000 0.000001 0.000000 0.000000 0.675983
    24 2.686395 -0.427337 0.044204 0.012610 -0.131652 -0.088153
    25 1.435260 0.000000 0.000001 0.000000 0.000000 0.398456
    26 1.482593 0.000000 -0.000001 0.000000 0.000000 0.705679
    27 2.046984 0.000001 0.000000 0.422816 0.285151 -0.066129
    28 -0.000005 0.000007 3.713254 -0.099865 -3.047848 5.708602
    29 18.045723 0.000000 0.000000 0.000000 0.000000 -0.413544
    30 17.597597 0.000000 0.000000 -0.057202 -0.016721 -0.162308
    31 0.000005 -0.000003 -3.713254 0.436511 2.946371 6.090342
    32 18.045721 0.000000 0.000000 0.000000 0.000000 -0.782250
    33 17.597597 0.000000 0.000000 0.093506 0.083814 0.525122
end
