version 1
nodes
  0 "Bip01" -1
  1 "Bip01 Pelvis" 0
  2 "Bip01 Spine" 1
  3 "Bip01 Spine1" 2
  4 "Bip01 Spine2" 3
  5 "Bip01 Spine3" 4
  6 "Bip01 Neck" 5
  7 "Bip01 L Arm" 6
  8 "Bip01 L Arm1" 7
  9 "Bip01 L Arm2" 8
  10 "Bip01 L Hand" 9
  11 "Bip01 L Finger0" 10
  12 "Bip01 L Finger01" 11
  13 "Bip01 L Finger02" 12
  14 "Bip01 L Finger1" 10
  15 "Bip01 L Finger11" 14
  16 "Bip01 L Finger12" 15
  17 "Bip01 R Arm" 6
  18 "Bip01 R Arm1" 17
  19 "Bip01 R Arm2" 18
  20 "Bip01 R Hand" 19
  21 "Bip01 R Finger0" 20
  22 "Bip01 R Finger01" 21
  23 "Bip01 R Finger02" 22
  24 "Bip01 R Finger1" 20
  25 "Bip01 R Finger11" 24
  26 "Bip01 R Finger12" 25
  27 "Bip01 Head" 6
  28 "Bip01 L Leg" 1
  29 "Bip01 L Leg1" 28
  30 "Bip01 L Foot" 29
  31 "Bip01 R Leg" 1
  32 "Bip01 R Leg1" 31
  33 "Bip01 R Foot" 32
end
skeleton
  time 0
    0 0.317381 3.511977 1.540585 0.000000 0.000000 -1.571017
    1 0.144532 -0.312510 0.000000 -1.570795 -1.570787 0.000000
    2 1.293670 0.684478 -0.000001 0.000282 0.059910 0.010424
    3 5.309685 -0.003834 0.000000 -0.073735 -0.061805 -0.006012
    4 4.826790 -0.004591 0.000000 -0.424595 -0.136984 0.019016
    5 5.792767 -0.005304 0.000000 -0.403411 -0.109575 0.026580
    6 6.662322 -0.001452 0.000000 0.000072 0.095988 0.471000
    7 -3.506637 1.516823 4.031023 1.069046 -1.466561 -4.689949
    8 4.827512 0.000000 -0.000002 0.746466 0.815295 0.062967
    9 11.140032 0.000000 0.000000 0.000000 0.000000 -1.359342
    10 10.314563 -0.000001 0.000001 -2.374592 -0.055454 -0.193801
    11 1.646836 0.445664 -1.699647 0.993049 1.047208 -0.378175
    12 0.928312 0.000000 0.000000 0.000000 0.000000 1.029733
    13 0.928313 0.000000 -0.000001 0.000000 0.000000 0.410081
    14 2.979373 -0.388274 -0.044205 -0.270039 -0.127227 0.519437
    15 1.435262 -0.000001 -0.000001 0.000000 0.000000 0.767708
    16 1.482593 -0.000001 0.000001 0.000000 0.000000 0.495031
    17 -2.471449 1.399667 -4.390404 1.479910 1.231798 -2.170816
    18 4.972047 0.000000 0.000000 -1.688421 -0.784181 -0.330897
    19 11.585358 0.000000 0.000001 0.000000 0.000000 -1.711501
    20 10.127058 0.000000 0.000001 2.003399 -0.738830 -0.387565
    21 1.537458 0.109715 1.664489 -3.078535 -0.186288 0.914916
    22 0.928313 0.000000 0.000002 0.000000 0.000000 0.061034
    23 0.928311 0.000000 0.000001 0.000000 0.000000 0.671897
    24 2.686395 -0.427337 0.044204 0.006330 0.043192 0.122300
    25 1.435260 0.000000 0.000001 0.000000 0.000000 1.186618
    26 1.482593 0.000000 -0.000001 0.000000 0.000000 1.404984
    27 2.046984 0.000001 0.000000 -0.353668 -0.160086 0.325912
    28 -0.000005 0.000007 3.713254 -0.109165 -3.069516 5.839163
    29 18.045723 0.000000 0.000000 0.000000 0.000000 -0.379201
    30 17.597597 0.000000 0.000000 -0.062498 -0.010544 -0.064791
    31 0.000005 -0.000003 -3.713254 0.556793 3.005616 6.229353
    32 18.045721 0.000000 0.000000 0.000000 0.000000 -0.571915
    33 17.597597 0.000000 0.000000 0.059686 0.078962 0.455655
  time 1
    0 0.262692 3.519790 1.540585 0.000000 0.000000 -1.571017
    1 0.144532 -0.312510 0.000000 -1.570795 -1.570787 0.000000
    2 1.293670 0.684478 -0.000001 -0.000172 0.055140 0.003309
    3 5.309685 -0.003834 0.000000 -0.087246 -0.065028 0.002608
    4 4.826790 -0.004591 0.000000 -0.357625 -0.127348 0.029908
    5 5.792767 -0.005304 0.000000 -0.298668 -0.143731 0.053800
    6 6.662322 -0.001452 0.000000 0.000683 0.123201 0.462740
    7 -3.627735 1.497291 3.925551 0.916927 -1.458193 -4.531848
    8 4.827512 0.000000 -0.000002 0.698237 0.715610 -0.013112
    9 11.140032 0.000000 0.000000 0.000000 0.000000 -1.398902
    10 10.314563 -0.000001 0.000001 -2.437903 -0.020421 -0.188576
    11 1.646836 0.445664 -1.699647 0.993049 1.047208 -0.378175
    12 0.928312 0.000000 0.000000 0.000000 0.000000 1.029733
    13 0.928313 0.000000 -0.000001 0.000000 0.000000 0.410081
    14 2.979373 -0.388274 -0.044205 -0.269620 -0.128102 0.516267
    15 1.435262 -0.000001 -0.000001 0.000000 0.000000 0.756257
    16 1.482593 -0.000001 0.000001 0.000000 0.000000 0.495031
    17 -2.358165 1.384042 -4.456812 1.438544 1.361357 -2.195814
    18 4.972047 0.000000 0.000000 -1.522585 -0.528027 -0.482377
    19 11.585358 0.000000 0.000001 0.000000 0.000000 -1.807557
    20 10.127058 0.000000 0.000001 1.749900 -0.757270 0.021011
    21 1.537458 0.109715 1.664489 -3.078535 -0.186288 0.914916
    22 0.928313 0.000000 0.000002 0.000000 0.000000 0.061034
    23 0.928311 0.000000 0.000001 0.000000 0.000000 0.671897
    24 2.686395 -0.427337 0.044204 0.006330 0.043192 0.122300
    25 1.435260 0.000000 0.000001 0.000000 0.000000 1.186618
    26 1.482593 0.000000 -0.000001 0.000000 0.000000 1.404984
    27 2.046984 0.000001 0.000000 -0.091724 -0.045583 0.343795
    28 -0.000005 0.000007 3.713254 -0.108877 -3.068173 5.839642
    29 18.045723 0.000000 0.000000 0.000000 0.000000 -0.377721
    30 17.597597 0.000000 0.000000 -0.062143 -0.011923 -0.065937
    31 0.000005 -0.000003 -3.713254 0.557272 3.006863 6.229065
    32 18.045721 0.000000 0.000000 0.000000 0.000000 -0.571994
    33 17.597597 0.000000 0.000000 0.059484 0.077601 0.456256
  time 2
    0 0.231441 3.508071 1.540585 0.000000 0.000000 -1.571017
    1 0.144532 -0.312510 0.000000 -1.570795 -1.570787 0.000000
    2 1.293670 0.684478 -0.000001 -0.000678 0.049627 -0.003739
    3 5.309685 -0.003834 0.000000 -0.100724 -0.067389 0.011263
    4 4.826790 -0.004591 0.000000 -0.292810 -0.114633 0.040204
    5 5.792767 -0.005304 0.000000 -0.195868 -0.170828 0.073753
    6 6.662322 -0.001452 0.000000 0.001115 0.150428 0.454395
    7 -3.741019 1.473853 3.827891 0.814460 -1.450594 -4.423957
    8 4.827512 0.000000 -0.000002 0.630398 0.647135 -0.114059
    9 11.140032 0.000000 0.000000 0.000000 0.000000 -1.431796
    10 10.314563 -0.000001 0.000001 -2.498844 0.014707 -0.191827
    11 1.646836 0.445664 -1.699647 0.993049 1.047208 -0.378175
    12 0.928312 0.000000 0.000000 0.000000 0.000000 1.029733
    13 0.928313 0.000000 -0.000001 0.000000 0.000000 0.410081
    14 2.979373 -0.388274 -0.044205 -0.268937 -0.129553 0.510926
    15 1.435262 -0.000001 -0.000001 0.000000 0.000000 0.737117
    16 1.482593 -0.000001 0.000001 0.000000 0.000000 0.495031
    17 -2.248786 1.348884 -4.523220 1.261142 1.487630 -2.351840
    18 4.972047 0.000000 0.000000 -1.507671 -0.236037 -0.544340
    19 11.585358 0.000000 0.000001 0.000000 0.000000 -1.908677
    20 10.127058 0.000000 0.000001 1.515196 -0.701855 0.416281
    21 1.537458 0.109715 1.664489 -3.078535 -0.186288 0.914916
    22 0.928313 0.000000 0.000002 0.000000 0.000000 0.061034
    23 0.928311 0.000000 0.000001 0.000000 0.000000 0.671897
    24 2.686395 -0.427337 0.044204 0.006330 0.043192 0.122300
    25 1.435260 0.000000 0.000001 0.000000 0.000000 1.186618
    26 1.482593 0.000000 -0.000001 0.000000 0.000000 1.404984
    27 2.046984 0.000001 0.000000 0.161346 -0.000620 0.356569
    28 -0.000005 0.000007 3.713254 -0.108782 -3.067215 5.839738
    29 18.045723 0.000000 0.000000 0.000000 0.000000 -0.378239
    30 17.597597 0.000000 0.000000 -0.061915 -0.012858 -0.065479
    31 0.000005 -0.000003 -3.713254 0.557560 3.008013 6.229736
    32 18.045721 0.000000 0.000000 0.000000 0.000000 -0.571443
    33 17.597597 0.000000 0.000000 0.059350 0.077029 0.456764
  time 3
    0 0.274411 3.449475 1.540585 0.000000 0.000000 -1.571017
    1 0.144532 -0.312510 0.000000 -1.570795 -1.570787 0.000000
    2 1.293670 0.684478 -0.000001 -0.000998 0.041598 -0.010854
    3 5.309685 -0.003834 0.000000 -0.114065 -0.067102 0.019830
    4 4.826790 -0.004591 0.000000 -0.231162 -0.088326 0.046863
    5 5.792767 -0.005304 0.000000 -0.089525 -0.169222 0.082411
    6 6.662322 -0.001452 0.000000 0.001270 0.177669 0.445993
    7 -3.858210 1.446508 3.722419 0.682183 -1.435011 -4.285883
    8 4.827512 0.000000 -0.000002 0.532824 0.664702 -0.231471
    9 11.140032 0.000000 0.000000 0.000000 0.000000 -1.422956
    10 10.314563 -0.000001 0.000001 -2.565187 0.048522 -0.185498
    11 1.646836 0.445664 -1.699647 0.993049 1.047208 -0.378175
    12 0.928312 0.000000 0.000000 0.000000 0.000000 1.029733
    13 0.928313 0.000000 -0.000001 0.000000 0.000000 0.410081
    14 2.979373 -0.388274 -0.044205 -0.268805 -0.129840 0.509883
    15 1.435262 -0.000001 -0.000001 0.000000 0.000000 0.733314
    16 1.482593 -0.000001 0.000001 0.000000 0.000000 0.495031
    17 -2.131595 1.325446 -4.589629 -0.492632 1.546048 -4.085079
    18 4.972047 0.000000 0.000000 -1.435071 -0.084498 -0.490897
    19 11.585358 0.000000 0.000001 0.000000 0.000000 -1.967404
    20 10.127058 0.000000 0.000001 1.420248 -0.584217 0.637677
    21 1.537458 0.109715 1.664489 -3.078535 -0.186288 0.914916
    22 0.928313 0.000000 0.000002 0.000000 0.000000 0.061034
    23 0.928311 0.000000 0.000001 0.000000 0.000000 0.671897
    24 2.686395 -0.427337 0.044204 0.006330 0.043192 0.122300
    25 1.435260 0.000000 0.000001 0.000000 0.000000 1.186618
    26 1.482593 0.000000 -0.000001 0.000000 0.000000 1.404984
    27 2.046984 0.000001 0.000000 0.175218 -0.012421 0.295680
    28 -0.000005 0.000007 3.713254 -0.108782 -3.067886 5.838971
    29 18.045723 0.000000 0.000000 0.000000 0.000000 -0.383124
    30 17.597597 0.000000 0.000000 -0.062118 -0.012095 -0.061444
    31 0.000005 -0.000003 -3.713254 0.557272 3.007534 6.232133
    32 18.045721 0.000000 0.000000 0.000000 0.000000 -0.569475
    33 17.597597 0.000000 0.000000 0.059652 0.078745 0.456625
  time 4
    0 0.336913 3.394786 1.540585 0.000000 0.000000 -1.571017
    1 0.144532 -0.312510 0.000000 -1.570795 -1.570787 0.000000
    2 1.293670 0.684478 -0.000001 -0.001149 0.033256 -0.017885
    3 5.309685 -0.003834 0.000000 -0.127356 -0.066419 0.028485
    4 4.826790 -0.004591 0.000000 -0.177792 -0.059228 0.054293
    5 5.792767 -0.005304 0.000000 0.002195 -0.152588 0.089595
    6 6.662322 -0.001452 0.000000 0.001222 0.204896 0.437591
    7 -3.971495 1.423070 3.609135 0.508880 -1.398404 -4.106224
    8 4.827512 0.000000 -0.000002 0.386623 0.783659 -0.362313
    9 11.140032 0.000000 0.000000 0.000000 0.000000 -1.321667
    10 10.314563 -0.000001 0.000001 -2.642904 0.084211 -0.151705
    11 1.646836 0.445664 -1.699647 0.993049 1.047208 -0.378175
    12 0.928312 0.000000 0.000000 0.000000 0.000000 1.029733
    13 0.928313 0.000000 -0.000001 0.000000 0.000000 0.410081
    14 2.979373 -0.388274 -0.044205 -0.270039 -0.127227 0.519437
    15 1.435262 -0.000001 -0.000001 0.000000 0.000000 0.767708
    16 1.482593 -0.000001 0.000001 0.000000 0.000000 0.495031
    17 -2.018311 1.298101 -4.644318 -1.225552 1.524121 -4.804964
    18 4.972047 0.000000 0.000000 -0.997032 -0.202692 -0.376288
    19 11.585358 0.000000 0.000001 0.000000 0.000000 -1.941185
    20 10.127058 0.000000 0.000001 1.501241 -0.448896 0.614117
    21 1.537458 0.109715 1.664489 -3.078535 -0.186288 0.914916
    22 0.928313 0.000000 0.000002 0.000000 0.000000 0.061034
    23 0.928311 0.000000 0.000001 0.000000 0.000000 0.671897
    24 2.686395 -0.427337 0.044204 0.006330 0.043192 0.122300
    25 1.435260 0.000000 0.000001 0.000000 0.000000 1.186618
    26 1.482593 0.000000 -0.000001 0.000000 0.000000 1.404984
    27 2.046984 0.000001 0.000000 0.177631 -0.078804 0.214169
    28 -0.000005 0.000007 3.713254 -0.108973 -3.069612 5.838012
    29 18.045723 0.000000 0.000000 0.000000 0.000000 -0.388453
    30 17.597597 0.000000 0.000000 -0.062574 -0.010372 -0.056859
    31 0.000005 -0.000003 -3.713254 0.556985 3.006000 6.234530
    32 18.045721 0.000000 0.000000 0.000000 0.000000 -0.567507
    33 17.597597 0.000000 0.000000 0.060088 0.081329 0.455932
  time 5
    0 0.418947 3.359629 1.540585 0.000000 0.000000 -1.571017
    1 0.144532 -0.312510 0.000000 -1.570795 -1.570787 0.000000
    2 1.293670 0.684478 -0.000001 -0.001352 0.028139 -0.025000
    3 5.309685 -0.003834 0.000000 -0.140714 -0.068792 0.037529
    4 4.826790 -0.004591 0.000000 -0.158622 -0.037716 0.064766
    5 5.792767 -0.005304 0.000000 0.019643 -0.111433 0.103174
    6 6.662322 -0.001452 0.000000 0.000959 0.232123 0.429189
    7 -4.080873 1.395726 3.499756 0.361266 -1.337226 -3.951573
    8 4.827512 0.000000 -0.000002 0.153611 0.947555 -0.494975
    9 11.140032 0.000000 0.000000 0.000000 0.000000 -1.167269
    10 10.314563 -0.000001 0.000001 -2.728771 0.128706 -0.089810
    11 1.646836 0.445664 -1.699647 0.993049 1.047208 -0.378175
    12 0.928312 0.000000 0.000000 0.000000 0.000000 1.029733
    13 0.928313 0.000000 -0.000001 0.000000 0.000000 0.410081
    14 2.979373 -0.388274 -0.044205 -0.272568 -0.121619 0.539848
    15 1.435262 -0.000001 -0.000001 0.000000 0.000000 0.841220
    16 1.482593 -0.000001 0.000001 0.000000 0.000000 0.495031
    17 -1.901119 1.274663 -4.699007 -1.661655 1.525488 -5.233676
    18 4.972047 0.000000 0.000000 -0.363611 -0.490745 -0.508866
    19 11.585358 0.000000 0.000001 0.000000 0.000000 -1.821116
    20 10.127058 0.000000 0.000001 1.673676 -0.303551 0.497316
    21 1.537458 0.109715 1.664489 -3.078535 -0.186288 0.914916
    22 0.928313 0.000000 0.000002 0.000000 0.000000 0.061034
    23 0.928311 0.000000 0.000001 0.000000 0.000000 0.671897
    24 2.686395 -0.427337 0.044204 0.006330 0.043192 0.122300
    25 1.435260 0.000000 0.000001 0.000000 0.000000 1.186618
    26 1.482593 0.000000 -0.000001 0.000000 0.000000 1.404984
    27 2.046984 0.000001 0.000000 0.257119 -0.239096 0.097683
    28 -0.000005 0.000007 3.713254 -0.109357 -3.071817 5.837150
    29 18.045723 0.000000 0.000000 0.000000 0.000000 -0.392302
    30 17.597597 0.000000 0.000000 -0.063132 -0.008108 -0.053558
    31 0.000005 -0.000003 -3.713254 0.556409 3.003891 6.235968
    32 18.045721 0.000000 0.000000 0.000000 0.000000 -0.566405
    33 17.597597 0.000000 0.000000 0.060558 0.083972 0.454962
  time 6
    0 0.500981 3.316658 1.540585 0.000000 0.000000 -1.571017
    1 0.144532 -0.312510 0.000000 -1.570795 -1.570787 0.000000
    2 1.293670 0.684478 -0.000001 -0.001352 0.020481 -0.032048
    3 5.309685 -0.003834 0.000000 -0.153885 -0.068504 0.046449
    4 4.826790 -0.004591 0.000000 -0.163963 -0.006819 0.073012
    5 5.792767 -0.005304 0.000000 -0.064180 -0.074820 0.115237
    6 6.662322 -0.001452 0.000000 0.000419 0.259350 0.420673
    7 -4.186345 1.364475 3.382565 0.266372 -1.261558 -3.849431
    8 4.827512 0.000000 -0.000002 -0.175780 1.057472 -0.645053
    9 11.140032 0.000000 0.000000 0.000000 0.000000 -1.021927
    10 10.314563 -0.000001 0.000001 -2.814449 0.185471 -0.015721
    11 1.646836 0.445664 -1.699647 0.993049 1.047208 -0.378175
    12 0.928312 0.000000 0.000000 0.000000 0.000000 1.029733
    13 0.928313 0.000000 -0.000001 0.000000 0.000000 0.410081
    14 2.979373 -0.388274 -0.044205 -0.275624 -0.114332 0.565818
    15 1.435262 -0.000001 -0.000001 0.000000 0.000000 0.935126
    16 1.482593 -0.000001 0.000001 0.000000 0.000000 0.495031
    17 -1.783928 1.255131 -4.749790 -2.282994 1.508294 -5.848393
    18 4.972047 0.000000 0.000000 0.100129 -0.703269 -0.898415
    19 11.585358 0.000000 0.000001 0.000000 0.000000 -1.684547
    20 10.127058 0.000000 0.000001 1.831314 -0.175227 0.467754
    21 1.537458 0.109715 1.664489 -3.078535 -0.186288 0.914916
    22 0.928313 0.000000 0.000002 0.000000 0.000000 0.061034
    23 0.928311 0.000000 0.000001 0.000000 0.000000 0.671897
    24 2.686395 -0.427337 0.044204 0.006330 0.043192 0.122300
    25 1.435260 0.000000 0.000001 0.000000 0.000000 1.186618
    26 1.482593 0.000000 -0.000001 0.000000 0.000000 1.404984
    27 2.046984 0.000001 0.000000 0.298651 -0.357523 0.153402
    28 -0.000005 0.000007 3.713254 -0.109932 -3.074022 5.836287
    29 18.045723 0.000000 0.000000 0.000000 0.000000 -0.396521
    30 17.597597 0.000000 0.000000 -0.063714 -0.005893 -0.049936
    31 0.000005 -0.000003 -3.713254 0.555834 3.001782 6.237789
    32 18.045721 0.000000 0.000000 0.000000 0.000000 -0.564988
    33 17.597597 0.000000 0.000000 0.061028 0.086772 0.453900
  time 7
    0 0.586921 3.265876 1.540585 0.000000 0.000000 -1.571017
    1 0.144532 -0.312510 0.000000 -1.570795 -1.570787 0.000000
    2 1.293670 0.684478 -0.000001 -0.001234 0.012475 -0.039096
    3 5.309685 -0.003834 0.000000 -0.166971 -0.067761 0.055475
    4 4.826790 -0.004591 0.000000 -0.173252 0.025599 0.080729
    5 5.792767 -0.005304 0.000000 -0.164786 -0.037248 0.124227
    6 6.662322 -0.001452 0.000000 -0.000324 0.286577 0.412072
    7 -4.284005 1.341036 3.265374 0.205793 -1.176340 -3.781496
    8 4.827512 0.000000 -0.000002 -0.514417 1.057643 -0.838543
    9 11.140032 0.000000 0.000000 0.000000 0.000000 -0.910711
    10 10.314563 -0.000001 0.000001 -2.895293 0.255725 0.065103
    11 1.646836 0.445664 -1.699647 0.993049 1.047208 -0.378175
    12 0.928312 0.000000 0.000000 0.000000 0.000000 1.029733
    13 0.928313 0.000000 -0.000001 0.000000 0.000000 0.410081
    14 2.979373 -0.388274 -0.044205 -0.278884 -0.105955 0.595566
    15 1.435262 -0.000001 -0.000001 0.000000 0.000000 1.042572
    16 1.482593 -0.000001 0.000001 0.000000 0.000000 0.495031
    17 -1.666737 1.231693 -4.796666 3.732932 1.468859 0.175704
    18 4.972047 0.000000 0.000000 0.187081 -0.827088 -1.124237
    19 11.585358 0.000000 0.000001 0.000000 0.000000 -1.628188
    20 10.127058 0.000000 0.000001 1.924229 -0.085959 0.560644
    21 1.537458 0.109715 1.664489 -3.078535 -0.186288 0.914916
    22 0.928313 0.000000 0.000002 0.000000 0.000000 0.061034
    23 0.928311 0.000000 0.000001 0.000000 0.000000 0.671897
    24 2.686395 -0.427337 0.044204 0.006330 0.043192 0.122300
    25 1.435260 0.000000 0.000001 0.000000 0.000000 1.186618
    26 1.482593 0.000000 -0.000001 0.000000 0.000000 1.404984
    27 2.046984 0.000001 0.000000 0.362844 -0.482883 0.168974
    28 -0.000005 0.000007 3.713254 -0.110220 -3.076131 5.835424
    29 18.045723 0.000000 0.000000 0.000000 0.000000 -0.400961
    30 17.597597 0.000000 0.000000 -0.064246 -0.003703 -0.046039
    31 0.000005 -0.000003 -3.713254 0.555259 2.999864 6.239803
    32 18.045721 0.000000 0.000000 0.000000 0.000000 -0.563335
    33 17.597597 0.000000 0.000000 0.061464 0.089553 0.452930
  time 8
    0 0.649423 3.222906 1.540585 0.000000 0.000000 -1.571017
    1 0.144532 -0.312510 0.000000 -1.570795 -1.570787 0.000000
    2 1.293670 0.684478 -0.000001 -0.001099 0.006626 -0.046194
    3 5.309685 -0.003834 0.000000 -0.180126 -0.069043 0.064731
    4 4.826790 -0.004591 0.000000 -0.181073 0.051606 0.089923
    5 5.792767 -0.005304 0.000000 -0.243554 -0.007802 0.132657
    6 6.662322 -0.001452 0.000000 -0.001318 0.313790 0.403385
    7 -4.381664 1.309785 3.144277 0.165822 -1.086184 -3.734449
    8 4.827512 0.000000 -0.000002 -0.736110 0.980641 -0.975191
    9 11.140032 0.000000 0.000000 0.000000 0.000000 -0.818913
    10 10.314563 -0.000001 0.000001 -2.968176 0.338719 0.147147
    11 1.646836 0.445664 -1.699647 0.993049 1.047208 -0.378175
    12 0.928312 0.000000 0.000000 0.000000 0.000000 1.029733
    13 0.928313 0.000000 -0.000001 0.000000 0.000000 0.410081
    14 2.979373 -0.388274 -0.044205 -0.282072 -0.096894 0.627050
    15 1.435262 -0.000001 -0.000001 0.000000 0.000000 1.156873
    16 1.482593 -0.000001 0.000001 0.000000 0.000000 0.495031
    17 -1.541734 1.212161 -4.843543 3.593169 1.426794 0.043240
    18 4.972047 0.000000 0.000000 0.112792 -0.920695 -1.149395
    19 11.585358 0.000000 0.000001 0.000000 0.000000 -1.670090
    20 10.127058 0.000000 0.000001 1.966233 -0.018724 0.698003
    21 1.537458 0.109715 1.664489 -3.078535 -0.186288 0.914916
    22 0.928313 0.000000 0.000002 0.000000 0.000000 0.061034
    23 0.928311 0.000000 0.000001 0.000000 0.000000 0.671897
    24 2.686395 -0.427337 0.044204 0.006330 0.043192 0.122300
    25 1.435260 0.000000 0.000001 0.000000 0.000000 1.186618
    26 1.482593 0.000000 -0.000001 0.000000 0.000000 1.404984
    27 2.046984 0.000001 0.000000 0.427555 -0.577058 0.159424
    28 -0.000005 0.000007 3.713254 -0.110603 -3.077665 5.834849
    29 18.045723 0.000000 0.000000 0.000000 0.000000 -0.404440
    30 17.597597 0.000000 0.000000 -0.064652 -0.002153 -0.042922
    31 0.000005 -0.000003 -3.713254 0.554972 2.998426 6.241432
    32 18.045721 0.000000 0.000000 0.000000 0.000000 -0.561839
    33 17.597597 0.000000 0.000000 0.061866 0.091684 0.452191
  time 9
    0 0.661142 3.215093 1.540585 0.000000 0.000000 -1.571017
    1 0.144532 -0.312510 0.000000 -1.570795 -1.570787 0.000000
    2 1.293670 0.684478 -0.000001 -0.001217 0.006399 -0.053242
    3 5.309685 -0.003834 0.000000 -0.193722 -0.075815 0.074587
    4 4.826790 -0.004591 0.000000 -0.184792 0.060378 0.103394
    5 5.792767 -0.005304 0.000000 -0.263520 -0.002864 0.147108
    6 6.662322 -0.001452 0.000000 -0.002625 0.340976 0.394527
    7 -4.475417 1.270722 3.023179 0.139079 -0.995436 -3.700433
    8 4.827512 0.000000 -0.000002 -0.813595 0.882576 -1.045725
    9 11.140032 0.000000 0.000000 0.000000 0.000000 -0.738779
    10 10.314563 -0.000001 0.000001 -3.030729 0.431454 0.225822
    11 1.646836 0.445664 -1.699647 0.993049 1.047208 -0.378175
    12 0.928312 0.000000 0.000000 0.000000 0.000000 1.029733
    13 0.928313 0.000000 -0.000001 0.000000 0.000000 0.410081
    14 2.979373 -0.388274 -0.044205 -0.284996 -0.087762 0.658535
    15 1.435262 -0.000001 -0.000001 0.000000 0.000000 1.271131
    16 1.482593 -0.000001 0.000001 0.000000 0.000000 0.495031
    17 -1.416730 1.192629 -4.890419 3.509292 1.380076 -0.033863
    18 4.972047 0.000000 0.000000 -0.022747 -0.987064 -1.028863
    19 11.585358 0.000000 0.000001 0.000000 0.000000 -1.761408
    20 10.127058 0.000000 0.000001 1.993231 0.031774 0.856771
    21 1.537458 0.109715 1.664489 -3.078535 -0.186288 0.914916
    22 0.928313 0.000000 0.000002 0.000000 0.000000 0.061034
    23 0.928311 0.000000 0.000001 0.000000 0.000000 0.671897
    24 2.686395 -0.427337 0.044204 0.006330 0.043192 0.122300
    25 1.435260 0.000000 0.000001 0.000000 0.000000 1.186618
    26 1.482593 0.000000 -0.000001 0.000000 0.000000 1.404984
    27 2.046984 0.000001 0.000000 0.465942 -0.600425 0.150239
    28 -0.000005 0.000007 3.713254 -0.110603 -3.077953 5.834753
    29 18.045723 0.000000 0.000000 0.000000 0.000000 -0.405106
    30 17.597597 0.000000 0.000000 -0.064677 -0.001857 -0.042372
    31 0.000005 -0.000003 -3.713254 0.554972 2.998139 6.241816
    32 18.045721 0.000000 0.000000 0.000000 0.000000 -0.561603
    33 17.597597 0.000000 0.000000 0.061900 0.092058 0.452006
  time 10
    0 0.649423 3.222906 1.540585 0.000000 0.000000 -1.571017
    1 0.144532 -0.312510 0.000000 -1.570795 -1.570787 0.000000
    2 1.293670 0.684478 -0.000001 -0.001469 0.008592 -0.060340
    3 5.309685 -0.003834 0.000000 -0.207625 -0.084875 0.084726
    4 4.826790 -0.004591 0.000000 -0.187692 0.061745 0.118740
    5 5.792767 -0.005304 0.000000 -0.260372 -0.009815 0.164673
    6 6.662322 -0.001452 0.000000 -0.004183 0.368161 0.385641
    7 -4.569170 1.239471 2.898175 0.120388 -0.908207 -3.675137
    8 4.827512 0.000000 -0.000002 -0.796695 0.814698 -1.015137
    9 11.140032 0.000000 0.000000 0.000000 0.000000 -0.719000
    10 10.314563 -0.000001 0.000001 -3.082666 0.529998 0.297008
    11 1.646836 0.445664 -1.699647 0.993049 1.047208 -0.378175
    12 0.928312 0.000000 0.000000 0.000000 0.000000 1.029733
    13 0.928313 0.000000 -0.000001 0.000000 0.000000 0.410081
    14 2.979373 -0.388274 -0.044205 -0.287441 -0.079085 0.688066
    15 1.435262 -0.000001 -0.000001 0.000000 0.000000 1.378619
    16 1.482593 -0.000001 0.000001 0.000000 0.000000 0.495031
    17 -1.299539 1.180910 -4.921670 3.461240 1.332622 -0.075432
    18 4.972047 0.000000 0.000000 -0.116733 -1.041621 -0.918914
    19 11.585358 0.000000 0.000001 0.000000 0.000000 -1.849867
    20 10.127058 0.000000 0.000001 2.041336 0.067141 1.010137
    21 1.537458 0.109715 1.664489 -3.078535 -0.186288 0.914916
    22 0.928313 0.000000 0.000002 0.000000 0.000000 0.061034
    23 0.928311 0.000000 0.000001 0.000000 0.000000 0.671897
    24 2.686395 -0.427337 0.044204 0.006330 0.043192 0.122300
    25 1.435260 0.000000 0.000001 0.000000 0.000000 1.186618
    26 1.482593 0.000000 -0.000001 0.000000 0.000000 1.404984
    27 2.046984 0.000001 0.000000 0.487268 -0.600602 0.155896
    28 -0.000005 0.000007 3.713254 -0.110603 -3.077665 5.834849
    29 18.045723 0.000000 0.000000 0.000000 0.000000 -0.404440
    30 17.597597 0.000000 0.000000 -0.064652 -0.002153 -0.042922
    31 0.000005 -0.000003 -3.713254 0.554972 2.998426 6.241432
    32 18.045721 0.000000 0.000000 0.000000 0.000000 -0.561839
    33 17.597597 0.000000 0.000000 0.061866 0.091684 0.452191
end
