version 1
nodes
  0 "Bip01" -1
  1 "Bip01 Pelvis" 0
  2 "Bip01 Spine" 1
  3 "Bip01 Spine1" 2
  4 "Bip01 Spine2" 3
  5 "Bip01 Spine3" 4
  6 "Bip01 Neck" 5
  7 "Bip01 L Arm" 6
  8 "Bip01 L Arm1" 7
  9 "Bip01 L Arm2" 8
  10 "Bip01 L Hand" 9
  11 "Bip01 L Finger0" 10
  12 "Bip01 L Finger01" 11
  13 "Bip01 L Finger02" 12
  14 "Bip01 L Finger1" 10
  15 "Bip01 L Finger11" 14
  16 "Bip01 L Finger12" 15
  17 "Bip01 R Arm" 6
  18 "Bip01 R Arm1" 17
  19 "Bip01 R Arm2" 18
  20 "Bip01 R Hand" 19
  21 "Bip01 R Finger0" 20
  22 "Bip01 R Finger01" 21
  23 "Bip01 R Finger02" 22
  24 "Bip01 R Finger1" 20
  25 "Bip01 R Finger11" 24
  26 "Bip01 R Finger12" 25
  27 "Bip01 Head" 6
  28 "Bip01 L Leg" 1
  29 "Bip01 L Leg1" 28
  30 "Bip01 L Foot" 29
  31 "Bip01 R Leg" 1
  32 "Bip01 R Leg1" 31
  33 "Bip01 R Foot" 32
end
skeleton
  time 0
    0 0.356445 2.429913 1.540585 0.000000 0.000000 -1.571017
    1 0.875023 -0.136723 0.000000 -1.570795 -1.570787 0.000000
    2 1.293670 0.684478 -0.000001 -0.066625 -0.063064 -0.073934
    3 5.309685 -0.003834 0.000000 -0.173489 0.003823 0.000400
    4 4.826790 -0.004591 0.000000 -0.109182 0.134012 -0.149345
    5 5.792767 -0.005304 0.000000 -0.157788 0.136457 -0.051468
    6 6.662322 -0.001452 0.000000 0.000000 -0.000001 0.471000
    7 -3.108188 1.516823 4.339626 -0.000100 -1.370787 -3.613335
    8 4.827512 0.000000 -0.000002 -0.955013 -0.267681 -1.664668
    9 11.140032 0.000000 0.000000 0.000000 0.000000 -1.010842
    10 10.314563 -0.000001 0.000001 -1.010382 0.076718 -0.129119
    11 1.646836 0.445664 -1.699647 0.153911 0.442352 0.277231
    12 0.928312 0.000000 0.000000 0.000000 0.000000 0.000000
    13 0.928313 0.000000 -0.000001 0.000000 0.000000 0.000000
    14 2.979373 -0.388274 -0.044205 -0.018183 -0.039656 0.411911
    15 1.435262 -0.000001 -0.000001 0.000000 0.000000 0.570828
    16 1.482593 -0.000001 0.000001 0.000000 0.000000 0.530452
    17 -2.869899 1.399667 -4.140396 0.000026 1.370769 -3.613362
    18 4.972047 0.000000 0.000000 0.273000 0.070576 -1.204570
    19 11.585358 0.000000 0.000001 0.000000 0.000000 -2.122269
    20 10.127058 0.000000 0.000001 2.693629 0.093902 1.200269
    21 1.537458 0.109715 1.664489 -0.344506 -0.327833 0.740676
    22 0.928313 0.000000 0.000002 0.000000 0.000000 0.000000
    23 0.928311 0.000000 0.000001 0.000000 0.000000 0.000000
    24 2.686395 -0.427337 0.044204 0.001045 0.043611 0.000046
    25 1.435260 0.000000 0.000001 0.000000 0.000000 1.037923
    26 1.482593 0.000000 -0.000001 0.000000 0.000000 1.142584
    27 2.046984 0.000001 0.000000 0.558182 0.241486 -0.631714
    28 -0.000005 0.000007 3.713254 -0.111178 -3.081500 5.833411
    29 18.045723 0.000000 0.000000 0.000000 0.000000 -0.414728
    30 17.597597 0.000000 0.000000 -0.065691 0.001711 -0.033752
    31 0.000005 -0.000003 -3.713254 0.554109 2.995263 6.246993
    32 18.045721 0.000000 0.000000 0.000000 0.000000 -0.556880
    33 17.597597 0.000000 0.000000 0.062940 0.097403 0.450390
  time 1
    0 0.356445 2.429913 1.540585 0.000000 0.000000 -1.571017
    1 0.898461 -0.144536 0.000000 -1.570795 -1.570787 0.000000
    2 1.293670 0.684478 -0.000001 -0.066625 -0.063064 -0.073934
    3 5.309685 -0.003834 0.000000 -0.173914 0.005489 0.006052
    4 4.826790 -0.004591 0.000000 -0.107331 0.132562 -0.163610
    5 5.792767 -0.005304 0.000000 -0.157249 0.133412 -0.068535
    6 6.662322 -0.001452 0.000000 0.000000 -0.000001 0.471000
    7 -3.108188 1.516823 4.339626 -0.000100 -1.370787 -3.613335
    8 4.827512 0.000000 -0.000002 -0.957723 -0.243122 -1.666748
    9 11.140032 0.000000 0.000000 0.000000 0.000000 -0.997438
    10 10.314563 -0.000001 0.000001 -1.010003 0.076343 -0.140906
    11 1.646836 0.445664 -1.699647 0.153911 0.442352 0.277231
    12 0.928312 0.000000 0.000000 0.000000 0.000000 0.000000
    13 0.928313 0.000000 -0.000001 0.000000 0.000000 0.000000
    14 2.979373 -0.388274 -0.044205 -0.018183 -0.039656 0.411911
    15 1.435262 -0.000001 -0.000001 0.000000 0.000000 0.570828
    16 1.482593 -0.000001 0.000001 0.000000 0.000000 0.530452
    17 -2.869899 1.399667 -4.140396 0.000026 1.369192 -3.613362
    18 4.972047 0.000000 0.000000 0.262589 0.050168 -1.194120
    19 11.585358 0.000000 0.000001 0.000000 0.000000 -2.122188
    20 10.127058 0.000000 0.000001 2.693559 0.093713 1.200719
    21 1.537458 0.109715 1.664489 -0.344506 -0.327833 0.740676
    22 0.928313 0.000000 0.000002 0.000000 0.000000 0.000000
    23 0.928311 0.000000 0.000001 0.000000 0.000000 0.000000
    24 2.686395 -0.427337 0.044204 0.001045 0.043611 0.000046
    25 1.435260 0.000000 0.000001 0.000000 0.000000 1.037856
    26 1.482593 0.000000 -0.000001 0.000000 0.000000 1.142584
    27 2.046984 0.000001 0.000000 0.551892 0.239450 -0.608235
    28 -0.000005 0.000007 3.713254 -0.111083 -3.081021 5.833315
    29 18.045723 0.000000 0.000000 0.000000 0.000000 -0.416357
    30 17.597597 0.000000 0.000000 -0.065615 0.001268 -0.032240
    31 0.000005 -0.000003 -3.713254 0.554205 2.995934 6.248239
    32 18.045721 0.000000 0.000000 0.000000 0.000000 -0.555778
    33 17.597597 0.000000 0.000000 0.062907 0.097502 0.450667
  time 2
    0 0.356445 2.429913 1.540585 0.000000 0.000000 -1.571017
    1 0.929712 -0.164068 0.000000 -1.570795 -1.570787 0.000000
    2 1.293670 0.684478 -0.000001 -0.066625 -0.063064 -0.073934
    3 5.309685 -0.003834 0.000000 -0.174391 0.007251 0.012111
    4 4.826790 -0.004591 0.000000 -0.105405 0.131040 -0.178934
    5 5.792767 -0.005304 0.000000 -0.156583 0.130273 -0.086225
    6 6.662322 -0.001452 0.000000 0.000000 -0.000001 0.471000
    7 -3.108188 1.516823 4.339626 -0.000100 -1.370787 -3.613335
    8 4.827512 0.000000 -0.000002 -0.961071 -0.217113 -1.668654
    9 11.140032 0.000000 0.000000 0.000000 0.000000 -0.983672
    10 10.314563 -0.000001 0.000001 -1.009340 0.075500 -0.152634
    11 1.646836 0.445664 -1.699647 0.153911 0.442352 0.277231
    12 0.928312 0.000000 0.000000 0.000000 0.000000 0.000000
    13 0.928313 0.000000 -0.000001 0.000000 0.000000 0.000000
    14 2.979373 -0.388274 -0.044205 -0.018183 -0.039656 0.411911
    15 1.435262 -0.000001 -0.000001 0.000000 0.000000 0.570828
    16 1.482593 -0.000001 0.000001 0.000000 0.000000 0.530452
    17 -2.869899 1.399667 -4.140396 0.000026 1.370769 -3.613362
    18 4.972047 0.000000 0.000000 0.253209 0.026866 -1.182473
    19 11.585358 0.000000 0.000001 0.000000 0.000000 -2.122269
    20 10.127058 0.000000 0.000001 2.693629 0.093902 1.200269
    21 1.537458 0.109715 1.664489 -0.344506 -0.327833 0.740676
    22 0.928313 0.000000 0.000002 0.000000 0.000000 0.000000
    23 0.928311 0.000000 0.000001 0.000000 0.000000 0.000000
    24 2.686395 -0.427337 0.044204 0.001045 0.043611 0.000046
    25 1.435260 0.000000 0.000001 0.000000 0.000000 1.037923
    26 1.482593 0.000000 -0.000001 0.000000 0.000000 1.142584
    27 2.046984 0.000001 0.000000 0.545214 0.237385 -0.583356
    28 -0.000005 0.000007 3.713254 -0.110891 -3.080541 5.833315
    29 18.045723 0.000000 0.000000 0.000000 0.000000 -0.418133
    30 17.597597 0.000000 0.000000 -0.065488 0.000776 -0.030589
    31 0.000005 -0.000003 -3.713254 0.554493 2.996605 6.249581
    32 18.045721 0.000000 0.000000 0.000000 0.000000 -0.554676
    33 17.597597 0.000000 0.000000 0.062873 0.097620 0.450990
  time 3
    0 0.356445 2.429913 1.540585 0.000000 0.000000 -1.571017
    1 0.953150 -0.175787 0.000000 -1.570795 -1.570787 0.000000
    2 1.293670 0.684478 -0.000001 -0.066625 -0.063064 -0.073934
    3 5.309685 -0.003834 0.000000 -0.174816 0.009000 0.018152
    4 4.826790 -0.004591 0.000000 -0.103459 0.129565 -0.193750
    5 5.792767 -0.005304 0.000000 -0.155918 0.127180 -0.103541
    6 6.662322 -0.001452 0.000000 0.002289 0.003353 0.512868
    7 -3.057405 1.653546 4.331813 0.001626 -1.366736 -3.656836
    8 4.827512 0.000000 -0.000002 -0.964898 -0.190934 -1.669001
    9 11.140032 0.000000 0.000000 0.000000 0.000000 -0.972514
    10 10.314563 -0.000001 0.000001 -1.008392 0.073814 -0.162215
    11 1.646836 0.445664 -1.699647 0.153911 0.442352 0.277231
    12 0.928312 0.000000 0.000000 0.000000 0.000000 0.000000
    13 0.928313 0.000000 -0.000001 0.000000 0.000000 0.000000
    14 2.979373 -0.388274 -0.044205 -0.018183 -0.039656 0.411911
    15 1.435262 -0.000001 -0.000001 0.000000 0.000000 0.570828
    16 1.482593 -0.000001 0.000001 0.000000 0.000000 0.530452
    17 -2.799584 1.501233 -4.148209 0.001841 1.382626 -3.653302
    18 4.972047 0.000000 0.000000 0.247112 0.000833 -1.170626
    19 11.585358 0.000000 0.000001 0.000000 0.000000 -2.122514
    20 10.127058 0.000000 0.000001 2.693909 0.095037 1.198218
    21 1.537458 0.109715 1.664489 -0.344506 -0.327833 0.740676
    22 0.928313 0.000000 0.000002 0.000000 0.000000 0.000000
    23 0.928311 0.000000 0.000001 0.000000 0.000000 0.000000
    24 2.686395 -0.427337 0.044204 0.001045 0.043611 0.000046
    25 1.435260 0.000000 0.000001 0.000000 0.000000 1.037856
    26 1.482593 0.000000 -0.000001 0.000000 0.000000 1.142584
    27 2.046984 0.000001 0.000000 0.538450 0.234464 -0.610729
    28 -0.000005 0.000007 3.713254 -0.110699 -3.080062 5.833219
    29 18.045723 0.000000 0.000000 0.000000 0.000000 -0.419687
    30 17.597597 0.000000 0.000000 -0.065412 0.000333 -0.029076
    31 0.000005 -0.000003 -3.713254 0.554780 2.997180 6.250828
    32 18.045721 0.000000 0.000000 0.000000 0.000000 -0.553574
    33 17.597597 0.000000 0.000000 0.062839 0.097699 0.451314
  time 4
    0 0.356445 2.429913 1.540585 0.000000 0.000000 -1.571017
    1 0.972682 -0.187506 0.000000 -1.570795 -1.570787 0.000000
    2 1.293670 0.684478 -0.000001 -0.066625 -0.063064 -0.073934
    3 5.309685 -0.003834 0.000000 -0.175225 0.010642 0.023804
    4 4.826790 -0.004591 0.000000 -0.101838 0.128379 -0.206450
    5 5.792767 -0.005304 0.000000 -0.155198 0.124412 -0.119715
    6 6.662322 -0.001452 0.000000 0.004770 0.006624 0.554821
    7 -3.006622 1.790269 4.312281 0.002488 -1.362626 -3.699667
    8 4.827512 0.000000 -0.000002 -0.968565 -0.167484 -1.668828
    9 11.140032 0.000000 0.000000 0.000000 0.000000 -0.963964
    10 10.314563 -0.000001 0.000001 -1.007539 0.071940 -0.169357
    11 1.646836 0.445664 -1.699647 0.153911 0.442352 0.277231
    12 0.928312 0.000000 0.000000 0.000000 0.000000 0.000000
    13 0.928313 0.000000 -0.000001 0.000000 0.000000 0.000000
    14 2.979373 -0.388274 -0.044205 -0.018183 -0.039656 0.411911
    15 1.435262 -0.000001 -0.000001 0.000000 0.000000 0.570828
    16 1.482593 -0.000001 0.000001 0.000000 0.000000 0.530452
    17 -2.725363 1.606705 -4.163834 0.003083 1.396323 -3.694104
    18 4.972047 0.000000 0.000000 0.242891 -0.024075 -1.160177
    19 11.585358 0.000000 0.000001 0.000000 0.000000 -2.122841
    20 10.127058 0.000000 0.000001 2.694400 0.096455 1.195667
    21 1.537458 0.109715 1.664489 -0.344506 -0.327833 0.740676
    22 0.928313 0.000000 0.000002 0.000000 0.000000 0.000000
    23 0.928311 0.000000 0.000001 0.000000 0.000000 0.000000
    24 2.686395 -0.427337 0.044204 0.001045 0.043611 0.000046
    25 1.435260 0.000000 0.000001 0.000000 0.000000 1.037856
    26 1.482593 0.000000 -0.000001 0.000000 0.000000 1.142584
    27 2.046984 0.000001 0.000000 0.532591 0.231809 -0.640595
    28 -0.000005 0.000007 3.713254 -0.110699 -3.079678 5.833219
    29 18.045723 0.000000 0.000000 0.000000 0.000000 -0.420945
    30 17.597597 0.000000 0.000000 -0.065336 -0.000012 -0.027930
    31 0.000005 -0.000003 -3.713254 0.554780 2.997659 6.251786
    32 18.045721 0.000000 0.000000 0.000000 0.000000 -0.552708
    33 17.597597 0.000000 0.000000 0.062839 0.097778 0.451498
  time 5
    0 0.356445 2.429913 1.540585 0.000000 0.000000 -1.571017
    1 0.984401 -0.187506 0.000000 -1.570795 -1.570787 0.000000
    2 1.293670 0.684478 -0.000001 -0.066625 -0.063064 -0.073934
    3 5.309685 -0.003834 0.000000 -0.175599 0.012068 0.028644
    4 4.826790 -0.004591 0.000000 -0.100617 0.127504 -0.215446
    5 5.792767 -0.005304 0.000000 -0.154623 0.122219 -0.133647
    6 6.662322 -0.001452 0.000000 0.007359 0.009840 0.596774
    7 -2.940214 1.919179 4.300562 0.002488 -1.358515 -3.741539
    8 4.827512 0.000000 -0.000002 -0.971514 -0.148553 -1.667528
    9 11.140032 0.000000 0.000000 0.000000 0.000000 -0.959038
    10 10.314563 -0.000001 0.000001 -1.006591 0.070161 -0.173479
    11 1.646836 0.445664 -1.699647 0.153911 0.442352 0.277231
    12 0.928312 0.000000 0.000000 0.000000 0.000000 0.000000
    13 0.928313 0.000000 -0.000001 0.000000 0.000000 0.000000
    14 2.979373 -0.388274 -0.044205 -0.018183 -0.039656 0.411911
    15 1.435262 -0.000001 -0.000001 0.000000 0.000000 0.570828
    16 1.482593 -0.000001 0.000001 0.000000 0.000000 0.530452
    17 -2.639423 1.712177 -4.171647 0.003370 1.410757 -3.735482
    18 4.972047 0.000000 0.000000 0.240921 -0.045448 -1.152390
    19 11.585358 0.000000 0.000001 0.000000 0.000000 -2.123168
    20 10.127058 0.000000 0.000001 2.694821 0.098158 1.192866
    21 1.537458 0.109715 1.664489 -0.344506 -0.327833 0.740676
    22 0.928313 0.000000 0.000002 0.000000 0.000000 0.000000
    23 0.928311 0.000000 0.000001 0.000000 0.000000 0.000000
    24 2.686395 -0.427337 0.044204 0.001045 0.043611 0.000046
    25 1.435260 0.000000 0.000001 0.000000 0.000000 1.037923
    26 1.482593 0.000000 -0.000001 0.000000 0.000000 1.142584
    27 2.046984 0.000001 0.000000 0.528412 0.229596 -0.675207
    28 -0.000005 0.000007 3.713254 -0.110699 -3.079391 5.833124
    29 18.045723 0.000000 0.000000 0.000000 0.000000 -0.421686
    30 17.597597 0.000000 0.000000 -0.065311 -0.000282 -0.027196
    31 0.000005 -0.000003 -3.713254 0.554972 2.998043 6.252362
    32 18.045721 0.000000 0.000000 0.000000 0.000000 -0.552157
    33 17.597597 0.000000 0.000000 0.062806 0.097798 0.451683
  time 6
    0 0.356445 2.429913 1.540585 0.000000 0.000000 -1.571017
    1 0.992214 -0.199225 0.000000 -1.570795 -1.570787 0.000000
    2 1.293670 0.684478 -0.000001 -0.066625 -0.063064 -0.073934
    3 5.309685 -0.003834 0.000000 -0.175854 0.013123 0.032265
    4 4.826790 -0.004591 0.000000 -0.099950 0.127037 -0.220737
    5 5.792767 -0.005304 0.000000 -0.154029 0.120433 -0.147039
    6 6.662322 -0.001452 0.000000 0.010055 0.012905 0.638670
    7 -2.869899 2.055902 4.288843 0.001722 -1.354405 -3.782741
    8 4.827512 0.000000 -0.000002 -0.974065 -0.132181 -1.665535
    9 11.140032 0.000000 0.000000 0.000000 0.000000 -0.957009
    10 10.314563 -0.000001 0.000001 -1.005833 0.068474 -0.175337
    11 1.646836 0.445664 -1.699647 0.153911 0.442352 0.277231
    12 0.928312 0.000000 0.000000 0.000000 0.000000 0.000000
    13 0.928313 0.000000 -0.000001 0.000000 0.000000 0.000000
    14 2.979373 -0.388274 -0.044205 -0.018183 -0.039656 0.411911
    15 1.435262 -0.000001 -0.000001 0.000000 0.000000 0.570828
    16 1.482593 -0.000001 0.000001 0.000000 0.000000 0.530452
    17 -2.549577 1.805929 -4.187273 0.002605 1.424796 -3.778295
    18 4.972047 0.000000 0.000000 0.239796 -0.064089 -1.146267
    19 11.585358 0.000000 0.000001 0.000000 0.000000 -2.123576
    20 10.127058 0.000000 0.000001 2.695242 0.099481 1.190215
    21 1.537458 0.109715 1.664489 -0.344506 -0.327833 0.740676
    22 0.928313 0.000000 0.000002 0.000000 0.000000 0.000000
    23 0.928311 0.000000 0.000001 0.000000 0.000000 0.000000
    24 2.686395 -0.427337 0.044204 0.001045 0.043611 0.000046
    25 1.435260 0.000000 0.000001 0.000000 0.000000 1.037856
    26 1.482593 0.000000 -0.000001 0.000000 0.000000 1.142584
    27 2.046984 0.000001 0.000000 0.525310 0.227590 -0.712252
    28 -0.000005 0.000007 3.713254 -0.110603 -3.079295 5.833124
    29 18.045723 0.000000 0.000000 0.000000 0.000000 -0.422204
    30 17.597597 0.000000 0.000000 -0.065260 -0.000455 -0.026784
    31 0.000005 -0.000003 -3.713254 0.554972 2.998235 6.252745
    32 18.045721 0.000000 0.000000 0.000000 0.000000 -0.551842
    33 17.597597 0.000000 0.000000 0.062772 0.097798 0.451775
  time 7
    0 0.356445 2.429913 1.540585 0.000000 0.000000 -1.571017
    1 1.003933 -0.199225 0.000000 -1.570795 -1.570787 0.000000
    2 1.293670 0.684478 -0.000001 -0.066625 -0.063064 -0.073934
    3 5.309685 -0.003834 0.000000 -0.176024 0.013854 0.034773
    4 4.826790 -0.004591 0.000000 -0.099568 0.126785 -0.223405
    5 5.792767 -0.005304 0.000000 -0.153417 0.119187 -0.159476
    6 6.662322 -0.001452 0.000000 0.012907 0.015846 0.680680
    7 -2.799584 2.180906 4.269311 0.000092 -1.350354 -3.822985
    8 4.827512 0.000000 -0.000002 -0.976297 -0.118281 -1.663455
    9 11.140032 0.000000 0.000000 0.000000 0.000000 -0.956647
    10 10.314563 -0.000001 0.000001 -1.005170 0.066976 -0.176034
    11 1.646836 0.445664 -1.699647 0.153911 0.442352 0.277231
    12 0.928312 0.000000 0.000000 0.000000 0.000000 0.000000
    13 0.928313 0.000000 -0.000001 0.000000 0.000000 0.000000
    14 2.979373 -0.388274 -0.044205 -0.018183 -0.039656 0.411911
    15 1.435262 -0.000001 -0.000001 0.000000 0.000000 0.570828
    16 1.482593 -0.000001 0.000001 0.000000 0.000000 0.530452
    17 -2.455824 1.903589 -4.202898 0.000313 1.437337 -3.822354
    18 4.972047 0.000000 0.000000 0.238670 -0.079918 -1.141675
    19 11.585358 0.000000 0.000001 0.000000 0.000000 -2.123821
    20 10.127058 0.000000 0.000001 2.695662 0.100805 1.187964
    21 1.537458 0.109715 1.664489 -0.344506 -0.327833 0.740676
    22 0.928313 0.000000 0.000002 0.000000 0.000000 0.000000
    23 0.928311 0.000000 0.000001 0.000000 0.000000 0.000000
    24 2.686395 -0.427337 0.044204 0.001045 0.043611 0.000046
    25 1.435260 0.000000 0.000001 0.000000 0.000000 1.037856
    26 1.482593 0.000000 -0.000001 0.000000 0.000000 1.142584
    27 2.046984 0.000001 0.000000 0.523242 0.225554 -0.751669
    28 -0.000005 0.000007 3.713254 -0.110603 -3.079103 5.833124
    29 18.045723 0.000000 0.000000 0.000000 0.000000 -0.422500
    30 17.597597 0.000000 0.000000 -0.065260 -0.000578 -0.026463
    31 0.000005 -0.000003 -3.713254 0.555068 2.998426 6.253033
    32 18.045721 0.000000 0.000000 0.000000 0.000000 -0.551606
    33 17.597597 0.000000 0.000000 0.062739 0.097837 0.451914
  time 8
    0 0.356445 2.429913 1.540585 0.000000 0.000000 -1.571017
    1 1.003933 -0.199225 0.000000 -1.570795 -1.570787 0.000000
    2 1.293670 0.684478 -0.000001 -0.066625 -0.063064 -0.073934
    3 5.309685 -0.003834 0.000000 -0.176127 0.014322 0.036257
    4 4.826790 -0.004591 0.000000 -0.099568 0.126785 -0.223405
    5 5.792767 -0.005304 0.000000 -0.153148 0.118707 -0.166660
    6 6.662322 -0.001452 0.000000 0.012907 0.015846 0.680680
    7 -2.799584 2.180906 4.269311 0.000092 -1.350354 -3.822985
    8 4.827512 0.000000 -0.000002 -0.977493 -0.111118 -1.661462
    9 11.140032 0.000000 0.000000 0.000000 0.000000 -0.958603
    10 10.314563 -0.000001 0.000001 -1.004696 0.066039 -0.174815
    11 1.646836 0.445664 -1.699647 0.153911 0.442352 0.277231
    12 0.928312 0.000000 0.000000 0.000000 0.000000 0.000000
    13 0.928313 0.000000 -0.000001 0.000000 0.000000 0.000000
    14 2.979373 -0.388274 -0.044205 -0.018183 -0.039656 0.411911
    15 1.435262 -0.000001 -0.000001 0.000000 0.000000 0.570828
    16 1.482593 -0.000001 0.000001 0.000000 0.000000 0.530452
    17 -2.455824 1.903589 -4.202898 0.000408 1.443304 -3.822354
    18 4.972047 0.000000 0.000000 0.239139 -0.088435 -1.139944
    19 11.585358 0.000000 0.000001 0.000000 0.000000 -2.123985
    20 10.127058 0.000000 0.000001 2.695873 0.101656 1.186363
    21 1.537458 0.109715 1.664489 -0.344506 -0.327833 0.740676
    22 0.928313 0.000000 0.000002 0.000000 0.000000 0.000000
    23 0.928311 0.000000 0.000001 0.000000 0.000000 0.000000
    24 2.686395 -0.427337 0.044204 0.001045 0.043611 0.000046
    25 1.435260 0.000000 0.000001 0.000000 0.000000 1.037856
    26 1.482593 0.000000 -0.000001 0.000000 0.000000 1.142584
    27 2.046984 0.000001 0.000000 0.522768 0.222338 -0.736766
    28 -0.000005 0.000007 3.713254 -0.110507 -3.079103 5.833124
    29 18.045723 0.000000 0.000000 0.000000 0.000000 -0.422426
    30 17.597597 0.000000 0.000000 -0.065260 -0.000627 -0.026463
    31 0.000005 -0.000003 -3.713254 0.555259 2.998426 6.253033
    32 18.045721 0.000000 0.000000 0.000000 0.000000 -0.551606
    33 17.597597 0.000000 0.000000 0.062705 0.097798 0.451914
  time 9
    0 0.356445 2.429913 1.540585 0.000000 0.000000 -1.571017
    1 0.992214 -0.199225 0.000000 -1.570795 -1.570787 0.000000
    2 1.293670 0.684478 -0.000001 -0.066625 -0.063064 -0.073934
    3 5.309685 -0.003834 0.000000 -0.176127 0.014382 0.036522
    4 4.826790 -0.004591 0.000000 -0.099950 0.127037 -0.220737
    5 5.792767 -0.005304 0.000000 -0.153237 0.119414 -0.164459
    6 6.662322 -0.001452 0.000000 0.012907 0.015846 0.680680
    7 -2.799584 2.180906 4.269311 0.000092 -1.350354 -3.822985
    8 4.827512 0.000000 -0.000002 -0.977174 -0.114785 -1.659729
    9 11.140032 0.000000 0.000000 0.000000 0.000000 -0.963964
    10 10.314563 -0.000001 0.000001 -1.004506 0.065477 -0.170750
    11 1.646836 0.445664 -1.699647 0.153911 0.442352 0.277231
    12 0.928312 0.000000 0.000000 0.000000 0.000000 0.000000
    13 0.928313 0.000000 -0.000001 0.000000 0.000000 0.000000
    14 2.979373 -0.388274 -0.044205 -0.018183 -0.039656 0.411911
    15 1.435262 -0.000001 -0.000001 0.000000 0.000000 0.570828
    16 1.482593 -0.000001 0.000001 0.000000 0.000000 0.530452
    17 -2.455824 1.903589 -4.202898 0.000408 1.447064 -3.822258
    18 4.972047 0.000000 0.000000 0.243172 -0.086667 -1.142274
    19 11.585358 0.000000 0.000001 0.000000 0.000000 -2.124148
    20 10.127058 0.000000 0.000001 2.696083 0.102318 1.185363
    21 1.537458 0.109715 1.664489 -0.344506 -0.327833 0.740676
    22 0.928313 0.000000 0.000002 0.000000 0.000000 0.000000
    23 0.928311 0.000000 0.000001 0.000000 0.000000 0.000000
    24 2.686395 -0.427337 0.044204 0.001045 0.043611 0.000046
    25 1.435260 0.000000 0.000001 0.000000 0.000000 1.037923
    26 1.482593 0.000000 -0.000001 0.000000 0.000000 1.142584
    27 2.046984 0.000001 0.000000 0.524707 0.219742 -0.731778
    28 -0.000005 0.000007 3.713254 -0.110603 -3.079295 5.833219
    29 18.045723 0.000000 0.000000 0.000000 0.000000 -0.421834
    30 17.597597 0.000000 0.000000 -0.065336 -0.000430 -0.027059
    31 0.000005 -0.000003 -3.713254 0.555068 2.998139 6.252553
    32 18.045721 0.000000 0.000000 0.000000 0.000000 -0.552157
    33 17.597597 0.000000 0.000000 0.062638 0.097758 0.451729
  time 10
    0 0.356445 2.429913 1.540585 0.000000 0.000000 -1.571017
    1 0.972682 -0.187506 0.000000 -1.570795 -1.570787 0.000000
    2 1.293670 0.684478 -0.000001 -0.066625 -0.063064 -0.073934
    3 5.309685 -0.003834 0.000000 -0.176041 0.014034 0.035268
    4 4.826790 -0.004591 0.000000 -0.100617 0.127504 -0.215446
    5 5.792767 -0.005304 0.000000 -0.153849 0.121440 -0.151856
    6 6.662322 -0.001452 0.000000 0.012907 0.015846 0.680680
    7 -2.799584 2.180906 4.269311 0.000092 -1.350354 -3.822985
    8 4.827512 0.000000 -0.000002 -0.975420 -0.129793 -1.657823
    9 11.140032 0.000000 0.000000 0.000000 0.000000 -0.973166
    10 10.314563 -0.000001 0.000001 -1.004506 0.065383 -0.163318
    11 1.646836 0.445664 -1.699647 0.153911 0.442352 0.277231
    12 0.928312 0.000000 0.000000 0.000000 0.000000 0.000000
    13 0.928313 0.000000 -0.000001 0.000000 0.000000 0.000000
    14 2.979373 -0.388274 -0.044205 -0.018183 -0.039656 0.411911
    15 1.435262 -0.000001 -0.000001 0.000000 0.000000 0.570828
    16 1.482593 -0.000001 0.000001 0.000000 0.000000 0.530452
    17 -2.455824 1.903589 -4.202898 0.000408 1.449535 -3.822258
    18 4.972047 0.000000 0.000000 0.251614 -0.074053 -1.148796
    19 11.585358 0.000000 0.000001 0.000000 0.000000 -2.124230
    20 10.127058 0.000000 0.000001 2.696153 0.102697 1.184712
    21 1.537458 0.109715 1.664489 -0.344506 -0.327833 0.740676
    22 0.928313 0.000000 0.000002 0.000000 0.000000 0.000000
    23 0.928311 0.000000 0.000001 0.000000 0.000000 0.000000
    24 2.686395 -0.427337 0.044204 0.001045 0.043611 0.000046
    25 1.435260 0.000000 0.000001 0.000000 0.000000 1.037856
    26 1.482593 0.000000 -0.000001 0.000000 0.000000 1.142584
    27 2.046984 0.000001 0.000000 0.528929 0.217824 -0.737860
    28 -0.000005 0.000007 3.713254 -0.110603 -3.079678 5.833219
    29 18.045723 0.000000 0.000000 0.000000 0.000000 -0.420649
    30 17.597597 0.000000 0.000000 -0.065412 -0.000085 -0.028205
    31 0.000005 -0.000003 -3.713254 0.555068 2.997659 6.251595
    32 18.045721 0.000000 0.000000 0.000000 0.000000 -0.553023
    33 17.597597 0.000000 0.000000 0.062605 0.097699 0.451498
  time 11
    0 0.356445 2.429913 1.540585 0.000000 0.000000 -1.571017
    1 0.941431 -0.175787 0.000000 -1.570795 -1.570787 0.000000
    2 1.293670 0.684478 -0.000001 -0.066625 -0.063064 -0.073934
    3 5.309685 -0.003834 0.000000 -0.175854 0.013123 0.032265
    4 4.826790 -0.004591 0.000000 -0.101933 0.128475 -0.205392
    5 5.792767 -0.005304 0.000000 -0.154730 0.124340 -0.132442
    6 6.662322 -0.001452 0.000000 0.012907 0.015846 0.680680
    7 -2.799584 2.180906 4.269311 0.000092 -1.350354 -3.822985
    8 4.827512 0.000000 -0.000002 -0.972232 -0.154693 -1.655917
    9 11.140032 0.000000 0.000000 0.000000 0.000000 -0.985990
    10 10.314563 -0.000001 0.000001 -1.004790 0.065664 -0.152634
    11 1.646836 0.445664 -1.699647 0.153911 0.442352 0.277231
    12 0.928312 0.000000 0.000000 0.000000 0.000000 0.000000
    13 0.928313 0.000000 -0.000001 0.000000 0.000000 0.000000
    14 2.979373 -0.388274 -0.044205 -0.018183 -0.039656 0.411911
    15 1.435262 -0.000001 -0.000001 0.000000 0.000000 0.570828
    16 1.482593 -0.000001 0.000001 0.000000 0.000000 0.530452
    17 -2.455824 1.903589 -4.202898 0.000408 1.450482 -3.822258
    18 4.972047 0.000000 0.000000 0.263620 -0.052439 -1.159046
    19 11.585358 0.000000 0.000001 0.000000 0.000000 -2.124230
    20 10.127058 0.000000 0.000001 2.696153 0.102697 1.184462
    21 1.537458 0.109715 1.664489 -0.344506 -0.327833 0.740676
    22 0.928313 0.000000 0.000002 0.000000 0.000000 0.000000
    23 0.928311 0.000000 0.000001 0.000000 0.000000 0.000000
    24 2.686395 -0.427337 0.044204 0.001045 0.043611 0.000046
    25 1.435260 0.000000 0.000001 0.000000 0.000000 1.037856
    26 1.482593 0.000000 -0.000001 0.000000 0.000000 1.142584
    27 2.046984 0.000001 0.000000 0.535693 0.216703 -0.752946
    28 -0.000005 0.000007 3.713254 -0.110699 -3.080158 5.833315
    29 18.045723 0.000000 0.000000 0.000000 0.000000 -0.418799
    30 17.597597 0.000000 0.000000 -0.065564 0.000358 -0.029993
    31 0.000005 -0.000003 -3.713254 0.554972 2.996988 6.250157
    32 18.045721 0.000000 0.000000 0.000000 0.000000 -0.554125
    33 17.597597 0.000000 0.000000 0.062538 0.097561 0.451221
  time 12
    0 0.356445 2.429913 1.540585 0.000000 0.000000 -1.571017
    1 0.921899 -0.167974 0.000000 -1.570795 -1.570787 0.000000
    2 1.293670 0.684478 -0.000001 -0.066625 -0.063064 -0.073934
    3 5.309685 -0.003834 0.000000 -0.175174 0.010451 0.023027
    4 4.826790 -0.004591 0.000000 -0.103898 0.129901 -0.190575
    5 5.792767 -0.005304 0.000000 -0.155738 0.127792 -0.109500
    6 6.662322 -0.001452 0.000000 0.012907 0.015846 0.680680
    7 -2.799584 2.180906 4.269311 0.000092 -1.350354 -3.822985
    8 4.827512 0.000000 -0.000002 -0.969043 -0.181895 -1.654617
    9 11.140032 0.000000 0.000000 0.000000 0.000000 -0.998452
    10 10.314563 -0.000001 0.000001 -1.005170 0.066226 -0.142299
    11 1.646836 0.445664 -1.699647 0.153911 0.442352 0.277231
    12 0.928312 0.000000 0.000000 0.000000 0.000000 0.000000
    13 0.928313 0.000000 -0.000001 0.000000 0.000000 0.000000
    14 2.979373 -0.388274 -0.044205 -0.018183 -0.039656 0.411911
    15 1.435262 -0.000001 -0.000001 0.000000 0.000000 0.570828
    16 1.482593 -0.000001 0.000001 0.000000 0.000000 0.530452
    17 -2.455824 1.903589 -4.202898 0.000408 1.449930 -3.822258
    18 4.972047 0.000000 0.000000 0.274876 -0.027771 -1.169495
    19 11.585358 0.000000 0.000001 0.000000 0.000000 -2.124230
    20 10.127058 0.000000 0.000001 2.696153 0.102697 1.184612
    21 1.537458 0.109715 1.664489 -0.344506 -0.327833 0.740676
    22 0.928313 0.000000 0.000002 0.000000 0.000000 0.000000
    23 0.928311 0.000000 0.000001 0.000000 0.000000 0.000000
    24 2.686395 -0.427337 0.044204 0.001045 0.043611 0.000046
    25 1.435260 0.000000 0.000001 0.000000 0.000000 1.037856
    26 1.482593 0.000000 -0.000001 0.000000 0.000000 1.142584
    27 2.046984 0.000001 0.000000 0.542759 0.215346 -0.769856
    28 -0.000005 0.000007 3.713254 -0.110699 -3.080541 5.833315
    29 18.045723 0.000000 0.000000 0.000000 0.000000 -0.417911
    30 17.597597 0.000000 0.000000 -0.065691 0.000702 -0.030772
    31 0.000005 -0.000003 -3.713254 0.554972 2.996509 6.249581
    32 18.045721 0.000000 0.000000 0.000000 0.000000 -0.554676
    33 17.597597 0.000000 0.000000 0.062504 0.097561 0.450990
  time 13
    0 0.356445 2.429913 1.540585 0.000000 0.000000 -1.571017
    1 0.929712 -0.164068 0.000000 -1.570795 -1.570787 0.000000
    2 1.293670 0.684478 -0.000001 -0.066625 -0.063064 -0.073934
    3 5.309685 -0.003834 0.000000 -0.174170 0.006448 0.009337
    4 4.826790 -0.004591 0.000000 -0.105996 0.131507 -0.174215
    5 5.792767 -0.005304 0.000000 -0.156601 0.131219 -0.086225
    6 6.662322 -0.001452 0.000000 0.010055 0.012905 0.638670
    7 -2.869899 2.055902 4.288843 0.001722 -1.354405 -3.782741
    8 4.827512 0.000000 -0.000002 -0.966572 -0.206795 -1.654270
    9 11.140032 0.000000 0.000000 0.000000 0.000000 -1.008451
    10 10.314563 -0.000001 0.000001 -1.005549 0.066882 -0.134112
    11 1.646836 0.445664 -1.699647 0.153911 0.442352 0.277231
    12 0.928312 0.000000 0.000000 0.000000 0.000000 0.000000
    13 0.928313 0.000000 -0.000001 0.000000 0.000000 0.000000
    14 2.979373 -0.388274 -0.044205 -0.018183 -0.039656 0.411911
    15 1.435262 -0.000001 -0.000001 0.000000 0.000000 0.570828
    16 1.482593 -0.000001 0.000001 0.000000 0.000000 0.530452
    17 -2.549577 1.805929 -4.187273 0.003083 1.443436 -3.777816
    18 4.972047 0.000000 0.000000 0.283787 -0.004068 -1.178680
    19 11.585358 0.000000 0.000001 0.000000 0.000000 -2.124148
    20 10.127058 0.000000 0.000001 2.696083 0.102318 1.185213
    21 1.537458 0.109715 1.664489 -0.344506 -0.327833 0.740676
    22 0.928313 0.000000 0.000002 0.000000 0.000000 0.000000
    23 0.928311 0.000000 0.000001 0.000000 0.000000 0.000000
    24 2.686395 -0.427337 0.044204 0.001045 0.043611 0.000046
    25 1.435260 0.000000 0.000001 0.000000 0.000000 1.037856
    26 1.482593 0.000000 -0.000001 0.000000 0.000000 1.142584
    27 2.046984 0.000001 0.000000 0.547670 0.220568 -0.752399
    28 -0.000005 0.000007 3.713254 -0.110699 -3.080541 5.833219
    29 18.045723 0.000000 0.000000 0.000000 0.000000 -0.418207
    30 17.597597 0.000000 0.000000 -0.065691 0.000751 -0.030543
    31 0.000005 -0.000003 -3.713254 0.554972 2.996509 6.249773
    32 18.045721 0.000000 0.000000 0.000000 0.000000 -0.554676
    33 17.597597 0.000000 0.000000 0.062504 0.097699 0.450990
  time 14
    0 0.356445 2.429913 1.540585 0.000000 0.000000 -1.571017
    1 0.917993 -0.156255 0.000000 -1.570795 -1.570787 0.000000
    2 1.293670 0.684478 -0.000001 -0.066625 -0.063064 -0.073934
    3 5.309685 -0.003834 0.000000 -0.173489 0.003823 0.000400
    4 4.826790 -0.004591 0.000000 -0.107923 0.132957 -0.159399
    5 5.792767 -0.005304 0.000000 -0.157357 0.134275 -0.065836
    6 6.662322 -0.001452 0.000000 0.007359 0.009840 0.596774
    7 -2.940214 1.919179 4.300562 0.002488 -1.358515 -3.741539
    8 4.827512 0.000000 -0.000002 -0.963383 -0.233060 -1.654097
    9 11.140032 0.000000 0.000000 0.000000 0.000000 -1.018015
    10 10.314563 -0.000001 0.000001 -1.006307 0.068100 -0.125519
    11 1.646836 0.445664 -1.699647 0.153911 0.442352 0.277231
    12 0.928312 0.000000 0.000000 0.000000 0.000000 0.000000
    13 0.928313 0.000000 -0.000001 0.000000 0.000000 0.000000
    14 2.979373 -0.388274 -0.044205 -0.018183 -0.039656 0.411911
    15 1.435262 -0.000001 -0.000001 0.000000 0.000000 0.570828
    16 1.482593 -0.000001 0.000001 0.000000 0.000000 0.530452
    17 -2.639423 1.712177 -4.171647 0.004038 1.435181 -3.735003
    18 4.972047 0.000000 0.000000 0.291854 0.020760 -1.188463
    19 11.585358 0.000000 0.000001 0.000000 0.000000 -2.123985
    20 10.127058 0.000000 0.000001 2.695873 0.101656 1.186363
    21 1.537458 0.109715 1.664489 -0.344506 -0.327833 0.740676
    22 0.928313 0.000000 0.000002 0.000000 0.000000 0.000000
    23 0.928311 0.000000 0.000001 0.000000 0.000000 0.000000
    24 2.686395 -0.427337 0.044204 0.001045 0.043611 0.000046
    25 1.435260 0.000000 0.000001 0.000000 0.000000 1.037856
    26 1.482593 0.000000 -0.000001 0.000000 0.000000 1.142584
    27 2.046984 0.000001 0.000000 0.553271 0.226498 -0.734941
    28 -0.000005 0.000007 3.713254 -0.110699 -3.080829 5.833315
    29 18.045723 0.000000 0.000000 0.000000 0.000000 -0.417393
    30 17.597597 0.000000 0.000000 -0.065767 0.001047 -0.031277
    31 0.000005 -0.000003 -3.713254 0.554780 2.996125 6.249006
    32 18.045721 0.000000 0.000000 0.000000 0.000000 -0.555227
    33 17.597597 0.000000 0.000000 0.062437 0.097699 0.450805
  time 15
    0 0.356445 2.429913 1.540585 0.000000 0.000000 -1.571017
    1 0.886742 -0.136723 0.000000 -1.570795 -1.570787 0.000000
    2 1.293670 0.684478 -0.000001 -0.066625 -0.063064 -0.073934
    3 5.309685 -0.003834 0.000000 -0.173302 0.003128 -0.002073
    4 4.826790 -0.004591 0.000000 -0.109182 0.134012 -0.149345
    5 5.792767 -0.005304 0.000000 -0.157788 0.136457 -0.051468
    6 6.662322 -0.001452 0.000000 0.004770 0.006624 0.554821
    7 -3.006622 1.790269 4.312281 0.002488 -1.362626 -3.699667
    8 4.827512 0.000000 -0.000002 -0.959716 -0.256936 -1.655137
    9 11.140032 0.000000 0.000000 0.000000 0.000000 -1.024246
    10 10.314563 -0.000001 0.000001 -1.007349 0.070161 -0.119190
    11 1.646836 0.445664 -1.699647 0.153911 0.442352 0.277231
    12 0.928312 0.000000 0.000000 0.000000 0.000000 0.000000
    13 0.928313 0.000000 -0.000001 0.000000 0.000000 0.000000
    14 2.979373 -0.388274 -0.044205 -0.018183 -0.039656 0.411911
    15 1.435262 -0.000001 -0.000001 0.000000 0.000000 0.570828
    16 1.482593 -0.000001 0.000001 0.000000 0.000000 0.530452
    17 -2.725363 1.606705 -4.163834 0.003465 1.421589 -3.693530
    18 4.972047 0.000000 0.000000 0.295418 0.044704 -1.197781
    19 11.585358 0.000000 0.000001 0.000000 0.000000 -2.123740
    20 10.127058 0.000000 0.000001 2.695522 0.100333 1.188864
    21 1.537458 0.109715 1.664489 -0.344506 -0.327833 0.740676
    22 0.928313 0.000000 0.000002 0.000000 0.000000 0.000000
    23 0.928311 0.000000 0.000001 0.000000 0.000000 0.000000
    24 2.686395 -0.427337 0.044204 0.001045 0.043611 0.000046
    25 1.435260 0.000000 0.000001 0.000000 0.000000 1.037856
    26 1.482593 0.000000 -0.000001 0.000000 0.000000 1.142584
    27 2.046984 0.000001 0.000000 0.558096 0.232753 -0.713347
    28 -0.000005 0.000007 3.713254 -0.110795 -3.081308 5.833315
    29 18.045723 0.000000 0.000000 0.000000 0.000000 -0.415542
    30 17.597597 0.000000 0.000000 -0.065919 0.001490 -0.032973
    31 0.000005 -0.000003 -3.713254 0.554780 2.995359 6.247664
    32 18.045721 0.000000 0.000000 0.000000 0.000000 -0.556329
    33 17.597597 0.000000 0.000000 0.062370 0.097581 0.450482
  time 16
    0 0.356445 2.429913 1.540585 0.000000 0.000000 -1.571017
    1 0.867210 -0.136723 0.000000 -1.570795 -1.570787 0.000000
    2 1.293670 0.684478 -0.000001 -0.066625 -0.063064 -0.073934
    3 5.309685 -0.003834 0.000000 -0.173251 0.002912 -0.002762
    4 4.826790 -0.004591 0.000000 -0.109716 0.134419 -0.145090
    5 5.792767 -0.005304 0.000000 -0.157986 0.137439 -0.044886
    6 6.662322 -0.001452 0.000000 0.002289 0.003353 0.512868
    7 -3.057405 1.653546 4.331813 0.001626 -1.366736 -3.656836
    8 4.827512 0.000000 -0.000002 -0.957006 -0.269727 -1.657996
    9 11.140032 0.000000 0.000000 0.000000 0.000000 -1.023449
    10 10.314563 -0.000001 0.000001 -1.008581 0.072690 -0.119016
    11 1.646836 0.445664 -1.699647 0.153911 0.442352 0.277231
    12 0.928312 0.000000 0.000000 0.000000 0.000000 0.000000
    13 0.928313 0.000000 -0.000001 0.000000 0.000000 0.000000
    14 2.979373 -0.388274 -0.044205 -0.018183 -0.039656 0.411911
    15 1.435262 -0.000001 -0.000001 0.000000 0.000000 0.570828
    16 1.482593 -0.000001 0.000001 0.000000 0.000000 0.530452
    17 -2.799584 1.501233 -4.148209 0.002032 1.402633 -3.653015
    18 4.972047 0.000000 0.000000 0.291197 0.061497 -1.203571
    19 11.585358 0.000000 0.000001 0.000000 0.000000 -2.123168
    20 10.127058 0.000000 0.000001 2.694821 0.098158 1.192866
    21 1.537458 0.109715 1.664489 -0.344506 -0.327833 0.740676
    22 0.928313 0.000000 0.000002 0.000000 0.000000 0.000000
    23 0.928311 0.000000 0.000001 0.000000 0.000000 0.000000
    24 2.686395 -0.427337 0.044204 0.001045 0.043611 0.000046
    25 1.435260 0.000000 0.000001 0.000000 0.000000 1.037856
    26 1.482593 0.000000 -0.000001 0.000000 0.000000 1.142584
    27 2.046984 0.000001 0.000000 0.560121 0.237857 -0.680742
    28 -0.000005 0.000007 3.713254 -0.110795 -3.081596 5.833411
    29 18.045723 0.000000 0.000000 0.000000 0.000000 -0.414654
    30 17.597597 0.000000 0.000000 -0.065995 0.001711 -0.033890
    31 0.000005 -0.000003 -3.713254 0.554684 2.994975 6.246993
    32 18.045721 0.000000 0.000000 0.000000 0.000000 -0.556880
    33 17.597597 0.000000 0.000000 0.062303 0.097541 0.450297
  time 17
    0 0.356445 2.429913 1.540585 0.000000 0.000000 -1.571017
    1 0.867210 -0.132817 0.000000 -1.570795 -1.570787 0.000000
    2 1.293670 0.684478 -0.000001 -0.066625 -0.063064 -0.073934
    3 5.309685 -0.003834 0.000000 -0.173285 0.003056 -0.002268
    4 4.826790 -0.004591 0.000000 -0.109792 0.134467 -0.144583
    5 5.792767 -0.005304 0.000000 -0.158022 0.137571 -0.044035
    6 6.662322 -0.001452 0.000000 0.000000 -0.000001 0.471000
    7 -3.108188 1.516823 4.339626 -0.000100 -1.370787 -3.613335
    8 4.827512 0.000000 -0.000002 -0.955172 -0.274673 -1.661462
    9 11.140032 0.000000 0.000000 0.000000 0.000000 -1.019029
    10 10.314563 -0.000001 0.000001 -1.009719 0.075125 -0.122209
    11 1.646836 0.445664 -1.699647 0.153911 0.442352 0.277231
    12 0.928312 0.000000 0.000000 0.000000 0.000000 0.000000
    13 0.928313 0.000000 -0.000001 0.000000 0.000000 0.000000
    14 2.979373 -0.388274 -0.044205 -0.018183 -0.039656 0.411911
    15 1.435262 -0.000001 -0.000001 0.000000 0.000000 0.570828
    16 1.482593 -0.000001 0.000001 0.000000 0.000000 0.530452
    17 -2.869899 1.399667 -4.140396 0.000026 1.382810 -3.613362
    18 4.972047 0.000000 0.000000 0.283224 0.071862 -1.206500
    19 11.585358 0.000000 0.000001 0.000000 0.000000 -2.122678
    20 10.127058 0.000000 0.000001 2.694120 0.095793 1.197068
    21 1.537458 0.109715 1.664489 -0.344506 -0.327833 0.740676
    22 0.928313 0.000000 0.000002 0.000000 0.000000 0.000000
    23 0.928311 0.000000 0.000001 0.000000 0.000000 0.000000
    24 2.686395 -0.427337 0.044204 0.001045 0.043611 0.000046
    25 1.435260 0.000000 0.000001 0.000000 0.000000 1.037923
    26 1.482593 0.000000 -0.000001 0.000000 0.000000 1.142584
    27 2.046984 0.000001 0.000000 0.560379 0.242194 -0.640535
    28 -0.000005 0.000007 3.713254 -0.110795 -3.081692 5.833411
    29 18.045723 0.000000 0.000000 0.000000 0.000000 -0.414358
    30 17.597597 0.000000 0.000000 -0.066046 0.001785 -0.034119
    31 0.000005 -0.000003 -3.713254 0.554780 2.994879 6.246801
    32 18.045721 0.000000 0.000000 0.000000 0.000000 -0.557195
    33 17.597597 0.000000 0.000000 0.062303 0.097502 0.450205
  time 18
    0 0.356445 2.429913 1.540585 0.000000 0.000000 -1.571017
    1 0.867210 -0.136723 0.000000 -1.570795 -1.570787 0.000000
    2 1.293670 0.684478 -0.000001 -0.066625 -0.063064 -0.073934
    3 5.309685 -0.003834 0.000000 -0.173353 0.003392 -0.001172
    4 4.826790 -0.004591 0.000000 -0.109544 0.134311 -0.146170
    5 5.792767 -0.005304 0.000000 -0.157932 0.137212 -0.046485
    6 6.662322 -0.001452 0.000000 0.000000 -0.000001 0.471000
    7 -3.108188 1.516823 4.339626 -0.000100 -1.370787 -3.613335
    8 4.827512 0.000000 -0.000002 -0.954216 -0.273906 -1.664322
    9 11.140032 0.000000 0.000000 0.000000 0.000000 -1.013885
    10 10.314563 -0.000001 0.000001 -1.010477 0.076905 -0.126390
    11 1.646836 0.445664 -1.699647 0.153911 0.442352 0.277231
    12 0.928312 0.000000 0.000000 0.000000 0.000000 0.000000
    13 0.928313 0.000000 -0.000001 0.000000 0.000000 0.000000
    14 2.979373 -0.388274 -0.044205 -0.018183 -0.039656 0.411911
    15 1.435262 -0.000001 -0.000001 0.000000 0.000000 0.570828
    16 1.482593 -0.000001 0.000001 0.000000 0.000000 0.530452
    17 -2.869899 1.399667 -4.140396 0.000026 1.370769 -3.613362
    18 4.972047 0.000000 0.000000 0.275439 0.076040 -1.207032
    19 11.585358 0.000000 0.000001 0.000000 0.000000 -2.122269
    20 10.127058 0.000000 0.000001 2.693629 0.093902 1.200269
    21 1.537458 0.109715 1.664489 -0.344506 -0.327833 0.740676
    22 0.928313 0.000000 0.000002 0.000000 0.000000 0.000000
    23 0.928311 0.000000 0.000001 0.000000 0.000000 0.000000
    24 2.686395 -0.427337 0.044204 0.001045 0.043611 0.000046
    25 1.435260 0.000000 0.000001 0.000000 0.000000 1.037923
    26 1.482593 0.000000 -0.000001 0.000000 0.000000 1.142584
    27 2.046984 0.000001 0.000000 0.559647 0.242017 -0.637919
    28 -0.000005 0.000007 3.713254 -0.110795 -3.081692 5.833411
    29 18.045723 0.000000 0.000000 0.000000 0.000000 -0.414358
    30 17.597597 0.000000 0.000000 -0.066046 0.001760 -0.034073
    31 0.000005 -0.000003 -3.713254 0.554780 2.994975 6.246897
    32 18.045721 0.000000 0.000000 0.000000 0.000000 -0.557195
    33 17.597597 0.000000 0.000000 0.062269 0.097502 0.450297
  time 19
    0 0.356445 2.429913 1.540585 0.000000 0.000000 -1.571017
    1 0.867210 -0.136723 0.000000 -1.570795 -1.570787 0.000000
    2 1.293670 0.684478 -0.000001 -0.066625 -0.063064 -0.073934
    3 5.309685 -0.003834 0.000000 -0.173455 0.003679 -0.000113
    4 4.826790 -0.004591 0.000000 -0.109296 0.134120 -0.148265
    5 5.792767 -0.005304 0.000000 -0.157842 0.136684 -0.049807
    6 6.662322 -0.001452 0.000000 0.000000 -0.000001 0.471000
    7 -3.108188 1.516823 4.339626 -0.000100 -1.370787 -3.613335
    8 4.827512 0.000000 -0.000002 -0.954455 -0.270154 -1.665015
    9 11.140032 0.000000 0.000000 0.000000 0.000000 -1.011132
    10 10.314563 -0.000001 0.000001 -1.010572 0.077092 -0.128712
    11 1.646836 0.445664 -1.699647 0.153911 0.442352 0.277231
    12 0.928312 0.000000 0.000000 0.000000 0.000000 0.000000
    13 0.928313 0.000000 -0.000001 0.000000 0.000000 0.000000
    14 2.979373 -0.388274 -0.044205 -0.018183 -0.039656 0.411911
    15 1.435262 -0.000001 -0.000001 0.000000 0.000000 0.570828
    16 1.482593 -0.000001 0.000001 0.000000 0.000000 0.530452
    17 -2.869899 1.399667 -4.140396 0.000026 1.368666 -3.613362
    18 4.972047 0.000000 0.000000 0.272625 0.073630 -1.205701
    19 11.585358 0.000000 0.000001 0.000000 0.000000 -2.122188
    20 10.127058 0.000000 0.000001 2.693488 0.093713 1.200869
    21 1.537458 0.109715 1.664489 -0.344506 -0.327833 0.740676
    22 0.928313 0.000000 0.000002 0.000000 0.000000 0.000000
    23 0.928311 0.000000 0.000001 0.000000 0.000000 0.000000
    24 2.686395 -0.427337 0.044204 0.001045 0.043611 0.000046
    25 1.435260 0.000000 0.000001 0.000000 0.000000 1.037856
    26 1.482593 0.000000 -0.000001 0.000000 0.000000 1.142584
    27 2.046984 0.000001 0.000000 0.558699 0.241663 -0.633783
    28 -0.000005 0.000007 3.713254 -0.110795 -3.081596 5.833411
    29 18.045723 0.000000 0.000000 0.000000 0.000000 -0.414580
    30 17.597597 0.000000 0.000000 -0.066046 0.001711 -0.033890
    31 0.000005 -0.000003 -3.713254 0.554780 2.994975 6.246993
    32 18.045721 0.000000 0.000000 0.000000 0.000000 -0.556880
    33 17.597597 0.000000 0.000000 0.062202 0.097502 0.450297
  time 20
    0 0.356445 2.429913 1.540585 0.000000 0.000000 -1.571017
    1 0.875023 -0.136723 0.000000 -1.570795 -1.570787 0.000000
    2 1.293670 0.684478 -0.000001 -0.066625 -0.063064 -0.073934
    3 5.309685 -0.003834 0.000000 -0.173489 0.003823 0.000400
    4 4.826790 -0.004591 0.000000 -0.109182 0.134012 -0.149345
    5 5.792767 -0.005304 0.000000 -0.157788 0.136457 -0.051468
    6 6.662322 -0.001452 0.000000 0.000000 -0.000001 0.471000
    7 -3.108188 1.516823 4.339626 -0.000100 -1.370787 -3.613335
    8 4.827512 0.000000 -0.000002 -0.955013 -0.267681 -1.664668
    9 11.140032 0.000000 0.000000 0.000000 0.000000 -1.010842
    10 10.314563 -0.000001 0.000001 -1.010382 0.076718 -0.129119
    11 1.646836 0.445664 -1.699647 0.153911 0.442352 0.277231
    12 0.928312 0.000000 0.000000 0.000000 0.000000 0.000000
    13 0.928313 0.000000 -0.000001 0.000000 0.000000 0.000000
    14 2.979373 -0.388274 -0.044205 -0.018183 -0.039656 0.411911
    15 1.435262 -0.000001 -0.000001 0.000000 0.000000 0.570828
    16 1.482593 -0.000001 0.000001 0.000000 0.000000 0.530452
    17 -2.869899 1.399667 -4.140396 0.000026 1.370769 -3.613362
    18 4.972047 0.000000 0.000000 0.273000 0.070576 -1.204570
    19 11.585358 0.000000 0.000001 0.000000 0.000000 -2.122269
    20 10.127058 0.000000 0.000001 2.693629 0.093902 1.200269
    21 1.537458 0.109715 1.664489 -0.344506 -0.327833 0.740676
    22 0.928313 0.000000 0.000002 0.000000 0.000000 0.000000
    23 0.928311 0.000000 0.000001 0.000000 0.000000 0.000000
    24 2.686395 -0.427337 0.044204 0.001045 0.043611 0.000046
    25 1.435260 0.000000 0.000001 0.000000 0.000000 1.037923
    26 1.482593 0.000000 -0.000001 0.000000 0.000000 1.142584
    27 2.046984 0.000001 0.000000 0.558182 0.241486 -0.631714
    28 -0.000005 0.000007 3.713254 -0.111178 -3.081500 5.833411
    29 18.045723 0.000000 0.000000 0.000000 0.000000 -0.414728
    30 17.597597 0.000000 0.000000 -0.065691 0.001711 -0.033752
    31 0.000005 -0.000003 -3.713254 0.554109 2.995263 6.246993
    32 18.045721 0.000000 0.000000 0.000000 0.000000 -0.556880
    33 17.597597 0.000000 0.000000 0.062940 0.097403 0.450390
end
