version 1
nodes
  0 "Bip01" -1
  1 "Bip01 Pelvis" 0
  2 "Bip01 Spine" 1
  3 "Bip01 Spine1" 2
  4 "Bip01 Spine2" 3
  5 "Bip01 Spine3" 4
  6 "Bip01 Neck" 5
  7 "Bip01 L Arm" 6
  8 "Bip01 L Arm1" 7
  9 "Bip01 L Arm2" 8
  10 "Bip01 L Hand" 9
  11 "Bip01 L Finger0" 10
  12 "Bip01 L Finger01" 11
  13 "Bip01 L Finger02" 12
  14 "Bip01 L Finger1" 10
  15 "Bip01 L Finger11" 14
  16 "Bip01 L Finger12" 15
  17 "Bip01 R Arm" 6
  18 "Bip01 R Arm1" 17
  19 "Bip01 R Arm2" 18
  20 "Bip01 R Hand" 19
  21 "Bip01 R Finger0" 20
  22 "Bip01 R Finger01" 21
  23 "Bip01 R Finger02" 22
  24 "Bip01 R Finger1" 20
  25 "Bip01 R Finger11" 24
  26 "Bip01 R Finger12" 25
  27 "Bip01 Head" 6
  28 "Bip01 L Leg" 1
  29 "Bip01 L Leg1" 28
  30 "Bip01 L Foot" 29
  31 "Bip01 R Leg" 1
  32 "Bip01 R Leg1" 31
  33 "Bip01 R Foot" 32
end
skeleton
  time 0
    0 0.461917 3.328378 0.368674 0.000000 0.000000 -1.571017
    1 0.218753 -0.007813 0.000000 -1.570795 -1.570787 0.000000
    2 1.293670 0.684478 -0.000001 -0.062447 0.004445 -0.094676
    3 5.309685 -0.003834 0.000000 0.005275 0.003679 0.016297
    4 4.826790 -0.004591 0.000000 0.009823 -0.021692 0.026270
    5 5.792767 -0.005304 0.000000 -0.033025 -0.014513 0.010572
    6 6.662322 -0.001452 0.000000 -0.091910 0.032655 0.231870
    7 -3.518356 0.356631 4.277124 1.379418 -1.057945 -4.734025
    8 4.827512 0.000000 -0.000002 -0.929663 -0.496896 -0.822513
    9 11.140032 0.000000 0.000000 0.000000 0.000000 -0.525332
    10 10.314563 -0.000001 0.000001 -1.941654 -0.130485 0.323543
    11 1.646836 0.445664 -1.699647 -0.392035 3.352851 -0.875707
    12 0.928312 0.000000 0.000000 0.000000 0.000000 0.593404
    13 0.928313 0.000000 -0.000001 0.000000 0.000000 1.204231
    14 2.979373 -0.388274 -0.044205 -0.030851 -0.030823 0.768363
    15 1.435262 -0.000001 -0.000001 0.000000 0.000000 1.204014
    16 1.482593 -0.000001 0.000001 0.000000 0.000000 1.153221
    17 -2.975371 1.071532 -4.156022 -1.395312 0.723683 -4.673936
    18 4.972047 0.000000 0.000000 0.696125 0.604017 -0.784339
    19 11.585358 0.000000 0.000001 0.000000 0.000000 -0.587015
    20 10.127058 0.000000 0.000001 2.161668 0.015319 0.362208
    21 1.537458 0.109715 1.664489 -3.079588 0.031470 0.928526
    22 0.928313 0.000000 0.000002 0.000000 0.000000 0.061034
    23 0.928311 0.000000 0.000001 0.000000 0.000000 0.671897
    24 2.686395 -0.427337 0.044204 -0.001208 0.043611 -0.052337
    25 1.435260 0.000000 0.000001 0.000000 0.000000 1.186618
    26 1.482593 0.000000 -0.000001 0.000000 0.000000 1.684243
    27 2.046984 0.000001 0.000000 0.123519 0.084085 -0.552820
    28 -0.000005 0.000007 3.713254 -0.099865 -3.047848 5.708602
    29 18.045723 0.000000 0.000000 0.000000 0.000000 -0.413544
    30 17.597597 0.000000 0.000000 -0.057202 -0.016721 -0.162308
    31 0.000005 -0.000003 -3.713254 0.807516 2.831522 6.175187
    32 18.045721 0.000000 0.000000 0.000000 0.000000 -0.782250
    33 17.597597 0.000000 0.000000 0.178760 0.125233 0.485354
  time 1
    0 0.461917 3.328378 0.368674 0.000000 0.000000 -1.571017
    1 0.273442 -0.007813 0.000000 -1.570795 -1.570787 0.000000
    2 1.293670 0.684478 -0.000001 -0.062447 0.004445 -0.094676
    3 5.309685 -0.003834 0.000000 0.005275 0.003679 0.016297
    4 4.826790 -0.004591 0.000000 0.010033 -0.021596 0.016370
    5 5.792767 -0.005304 0.000000 -0.010523 -0.015280 -0.008489
    6 6.662322 -0.001452 0.000000 -0.091910 0.032655 0.231870
    7 -3.518356 0.356631 4.277124 1.306378 -1.184235 -4.666761
    8 4.827512 0.000000 -0.000002 -0.930540 -0.346900 -0.892093
    9 11.140032 0.000000 0.000000 0.000000 0.000000 -0.811740
    10 10.314563 -0.000001 0.000001 -1.915401 -0.185939 0.157308
    11 1.646836 0.445664 -1.699647 -0.392035 3.352851 -0.875707
    12 0.928312 0.000000 0.000000 0.000000 0.000000 0.593404
    13 0.928313 0.000000 -0.000001 0.000000 0.000000 1.204231
    14 2.979373 -0.388274 -0.044205 -0.030851 -0.030823 0.768363
    15 1.435262 -0.000001 -0.000001 0.000000 0.000000 1.204014
    16 1.482593 -0.000001 0.000001 0.000000 0.000000 1.153221
    17 -2.975371 1.071532 -4.156022 -1.395312 0.723683 -4.673936
    18 4.972047 0.000000 0.000000 0.698283 0.578706 -0.756985
    19 11.585358 0.000000 0.000001 0.000000 0.000000 -0.587015
    20 10.127058 0.000000 0.000001 2.161668 0.015319 0.362208
    21 1.537458 0.109715 1.664489 -3.079588 0.031470 0.928526
    22 0.928313 0.000000 0.000002 0.000000 0.000000 0.061034
    23 0.928311 0.000000 0.000001 0.000000 0.000000 0.671897
    24 2.686395 -0.427337 0.044204 -0.001208 0.043611 -0.052337
    25 1.435260 0.000000 0.000001 0.000000 0.000000 1.186618
    26 1.482593 0.000000 -0.000001 0.000000 0.000000 1.684243
    27 2.046984 0.000001 0.000000 0.101159 0.077152 -0.548622
    28 -0.000005 0.000007 3.713254 -0.099769 -3.047464 5.707452
    29 18.045723 0.000000 0.000000 0.000000 0.000000 -0.418725
    30 17.597597 0.000000 0.000000 -0.057126 -0.017041 -0.158273
    31 0.000005 -0.000003 -3.713254 0.807804 2.832097 6.177296
    32 18.045721 0.000000 0.000000 0.000000 0.000000 -0.781069
    33 17.597597 0.000000 0.000000 0.178794 0.126377 0.485862
  time 2
    0 0.461917 3.328378 0.368674 0.000000 0.000000 -1.571017
    1 0.324225 -0.007813 0.000000 -1.570795 -1.570787 0.000000
    2 1.293670 0.684478 -0.000001 -0.062447 0.004445 -0.094676
    3 5.309685 -0.003834 0.000000 0.005275 0.003679 0.016297
    4 4.826790 -0.004591 0.000000 0.010262 -0.021500 0.006470
    5 5.792767 -0.005304 0.000000 0.003004 -0.015568 -0.019971
    6 6.662322 -0.001452 0.000000 -0.091910 0.032655 0.231870
    7 -3.518356 0.356631 4.277124 1.333121 -1.145884 -4.691673
    8 4.827512 0.000000 -0.000002 -0.924561 -0.361738 -0.890534
    9 11.140032 0.000000 0.000000 0.000000 0.000000 -0.724144
    10 10.314563 -0.000001 0.000001 -1.924500 -0.169453 0.208461
    11 1.646836 0.445664 -1.699647 -0.392035 3.352851 -0.875707
    12 0.928312 0.000000 0.000000 0.000000 0.000000 0.593404
    13 0.928313 0.000000 -0.000001 0.000000 0.000000 1.204231
    14 2.979373 -0.388274 -0.044205 -0.030851 -0.030823 0.768363
    15 1.435262 -0.000001 -0.000001 0.000000 0.000000 1.204014
    16 1.482593 -0.000001 0.000001 0.000000 0.000000 1.153221
    17 -2.975371 1.071532 -4.156022 -1.395312 0.723683 -4.673936
    18 4.972047 0.000000 0.000000 0.698939 0.559583 -0.740479
    19 11.585358 0.000000 0.000001 0.000000 0.000000 -0.587015
    20 10.127058 0.000000 0.000001 2.161668 0.015319 0.362208
    21 1.537458 0.109715 1.664489 -3.079588 0.031470 0.928526
    22 0.928313 0.000000 0.000002 0.000000 0.000000 0.061034
    23 0.928311 0.000000 0.000001 0.000000 0.000000 0.671897
    24 2.686395 -0.427337 0.044204 -0.001208 0.043611 -0.052337
    25 1.435260 0.000000 0.000001 0.000000 0.000000 1.186618
    26 1.482593 0.000000 -0.000001 0.000000 0.000000 1.684243
    27 2.046984 0.000001 0.000000 0.087200 0.073287 -0.551421
    28 -0.000005 0.000007 3.713254 -0.099482 -3.047081 5.706589
    29 18.045723 0.000000 0.000000 0.000000 0.000000 -0.422944
    30 17.597597 0.000000 0.000000 -0.057075 -0.017287 -0.154926
    31 0.000005 -0.000003 -3.713254 0.808091 2.832481 6.179021
    32 18.045721 0.000000 0.000000 0.000000 0.000000 -0.780046
    33 17.597597 0.000000 0.000000 0.178794 0.127363 0.486232
  time 3
    0 0.461917 3.328378 0.368674 0.000000 0.000000 -1.571017
    1 0.328131 -0.007813 0.000000 -1.570795 -1.570787 0.000000
    2 1.293670 0.684478 -0.000001 -0.062447 0.004445 -0.094676
    3 5.309685 -0.003834 0.000000 0.005275 0.003679 0.016297
    4 4.826790 -0.004591 0.000000 0.010396 -0.021452 0.001972
    5 5.792767 -0.005304 0.000000 -0.000899 -0.015484 -0.016628
    6 6.662322 -0.001452 0.000000 -0.091910 0.032655 0.231870
    7 -3.518356 0.356631 4.277124 1.353633 -1.110785 -4.710550
    8 4.827512 0.000000 -0.000002 -0.923285 -0.394142 -0.873290
    9 11.140032 0.000000 0.000000 0.000000 0.000000 -0.644517
    10 10.314563 -0.000001 0.000001 -1.931892 -0.154091 0.254680
    11 1.646836 0.445664 -1.699647 -0.392035 3.352851 -0.875707
    12 0.928312 0.000000 0.000000 0.000000 0.000000 0.593404
    13 0.928313 0.000000 -0.000001 0.000000 0.000000 1.204231
    14 2.979373 -0.388274 -0.044205 -0.030851 -0.030823 0.768363
    15 1.435262 -0.000001 -0.000001 0.000000 0.000000 1.204014
    16 1.482593 -0.000001 0.000001 0.000000 0.000000 1.153221
    17 -2.975371 1.071532 -4.156022 -1.395312 0.723683 -4.673936
    18 4.972047 0.000000 0.000000 0.698001 0.557816 -0.744672
    19 11.585358 0.000000 0.000001 0.000000 0.000000 -0.587015
    20 10.127058 0.000000 0.000001 2.161668 0.015319 0.362208
    21 1.537458 0.109715 1.664489 -3.079588 0.031470 0.928526
    22 0.928313 0.000000 0.000002 0.000000 0.000000 0.061034
    23 0.928311 0.000000 0.000001 0.000000 0.000000 0.671897
    24 2.686395 -0.427337 0.044204 -0.001208 0.043611 -0.052337
    25 1.435260 0.000000 0.000001 0.000000 0.000000 1.186618
    26 1.482593 0.000000 -0.000001 0.000000 0.000000 1.684243
    27 2.046984 0.000001 0.000000 0.090388 0.075175 -0.558720
    28 -0.000005 0.000007 3.713254 -0.099386 -3.047081 5.706398
    29 18.045723 0.000000 0.000000 0.000000 0.000000 -0.423980
    30 17.597597 0.000000 0.000000 -0.057050 -0.017337 -0.154147
    31 0.000005 -0.000003 -3.713254 0.808187 2.832577 6.179501
    32 18.045721 0.000000 0.000000 0.000000 0.000000 -0.779731
    33 17.597597 0.000000 0.000000 0.178760 0.127580 0.486324
  time 4
    0 0.461917 3.328378 0.368674 0.000000 0.000000 -1.571017
    1 0.304693 -0.007813 0.000000 -1.570795 -1.570787 0.000000
    2 1.293670 0.684478 -0.000001 -0.062447 0.004445 -0.094676
    3 5.309685 -0.003834 0.000000 0.005275 0.003679 0.016297
    4 4.826790 -0.004591 0.000000 0.010262 -0.021500 0.006470
    5 5.792767 -0.005304 0.000000 -0.010523 -0.015280 -0.008489
    6 6.662322 -0.001452 0.000000 -0.091910 0.032655 0.231870
    7 -3.518356 0.356631 4.277124 1.368011 -1.082606 -4.723868
    8 4.827512 0.000000 -0.000002 -0.924401 -0.433794 -0.853447
    9 11.140032 0.000000 0.000000 0.000000 0.000000 -0.580903
    10 10.314563 -0.000001 0.000001 -1.937294 -0.141539 0.291608
    11 1.646836 0.445664 -1.699647 -0.392035 3.352851 -0.875707
    12 0.928312 0.000000 0.000000 0.000000 0.000000 0.593404
    13 0.928313 0.000000 -0.000001 0.000000 0.000000 1.204231
    14 2.979373 -0.388274 -0.044205 -0.030851 -0.030823 0.768363
    15 1.435262 -0.000001 -0.000001 0.000000 0.000000 1.204014
    16 1.482593 -0.000001 0.000001 0.000000 0.000000 1.153221
    17 -2.975371 1.071532 -4.156022 -1.395312 0.723683 -4.673936
    18 4.972047 0.000000 0.000000 0.697345 0.568904 -0.756053
    19 11.585358 0.000000 0.000001 0.000000 0.000000 -0.587015
    20 10.127058 0.000000 0.000001 2.161668 0.015319 0.362208
    21 1.537458 0.109715 1.664489 -3.079588 0.031470 0.928526
    22 0.928313 0.000000 0.000002 0.000000 0.000000 0.061034
    23 0.928311 0.000000 0.000001 0.000000 0.000000 0.671897
    24 2.686395 -0.427337 0.044204 -0.001208 0.043611 -0.052337
    25 1.435260 0.000000 0.000001 0.000000 0.000000 1.186618
    26 1.482593 0.000000 -0.000001 0.000000 0.000000 1.684243
    27 2.046984 0.000001 0.000000 0.098272 0.080161 -0.579098
    28 -0.000005 0.000007 3.713254 -0.099482 -3.047273 5.706877
    29 18.045723 0.000000 0.000000 0.000000 0.000000 -0.421686
    30 17.597597 0.000000 0.000000 -0.057126 -0.017214 -0.155889
    31 0.000005 -0.000003 -3.713254 0.808187 2.832385 6.178542
    32 18.045721 0.000000 0.000000 0.000000 0.000000 -0.780360
    33 17.597597 0.000000 0.000000 0.178659 0.127087 0.486139
  time 5
    0 0.461917 3.328378 0.368674 0.000000 0.000000 -1.571017
    1 0.261723 -0.007813 0.000000 -1.570795 -1.570787 0.000000
    2 1.293670 0.684478 -0.000001 -0.062447 0.004445 -0.094676
    3 5.309685 -0.003834 0.000000 0.005275 0.003679 0.016297
    4 4.826790 -0.004591 0.000000 0.010033 -0.021596 0.016370
    5 5.792767 -0.005304 0.000000 -0.022359 -0.014957 0.001477
    6 6.662322 -0.001452 0.000000 -0.091910 0.032655 0.231870
    7 -3.518356 0.356631 4.277124 1.376542 -1.064303 -4.731534
    8 4.827512 0.000000 -0.000002 -0.926634 -0.471485 -0.835251
    9 11.140032 0.000000 0.000000 0.000000 0.000000 -0.539677
    10 10.314563 -0.000001 0.000001 -1.940612 -0.133389 0.315414
    11 1.646836 0.445664 -1.699647 -0.392035 3.352851 -0.875707
    12 0.928312 0.000000 0.000000 0.000000 0.000000 0.593404
    13 0.928313 0.000000 -0.000001 0.000000 0.000000 1.204231
    14 2.979373 -0.388274 -0.044205 -0.030851 -0.030823 0.768363
    15 1.435262 -0.000001 -0.000001 0.000000 0.000000 1.204014
    16 1.482593 -0.000001 0.000001 0.000000 0.000000 1.153221
    17 -2.975371 1.071532 -4.156022 -1.395312 0.723683 -4.673936
    18 4.972047 0.000000 0.000000 0.696688 0.586902 -0.770828
    19 11.585358 0.000000 0.000001 0.000000 0.000000 -0.587015
    20 10.127058 0.000000 0.000001 2.161668 0.015319 0.362208
    21 1.537458 0.109715 1.664489 -3.079588 0.031470 0.928526
    22 0.928313 0.000000 0.000002 0.000000 0.000000 0.061034
    23 0.928311 0.000000 0.000001 0.000000 0.000000 0.671897
    24 2.686395 -0.427337 0.044204 -0.001208 0.043611 -0.052337
    25 1.435260 0.000000 0.000001 0.000000 0.000000 1.186618
    26 1.482593 0.000000 -0.000001 0.000000 0.000000 1.684243
    27 2.046984 0.000001 0.000000 0.111326 0.082551 -0.566384
    28 -0.000005 0.000007 3.713254 -0.099674 -3.047560 5.707740
    29 18.045723 0.000000 0.000000 0.000000 0.000000 -0.417615
    30 17.597597 0.000000 0.000000 -0.057202 -0.016992 -0.159144
    31 0.000005 -0.000003 -3.713254 0.808091 2.831905 6.176912
    32 18.045721 0.000000 0.000000 0.000000 0.000000 -0.781384
    33 17.597597 0.000000 0.000000 0.178492 0.126160 0.485631
  time 6
    0 0.461917 3.328378 0.368674 0.000000 0.000000 -1.571017
    1 0.218753 -0.007813 0.000000 -1.570795 -1.570787 0.000000
    2 1.293670 0.684478 -0.000001 -0.062447 0.004445 -0.094676
    3 5.309685 -0.003834 0.000000 0.005275 0.003679 0.016297
    4 4.826790 -0.004591 0.000000 0.009823 -0.021692 0.026270
    5 5.792767 -0.005304 0.000000 -0.033025 -0.014513 0.010572
    6 6.662322 -0.001452 0.000000 -0.091910 0.032655 0.231870
    7 -3.518356 0.356631 4.277124 1.379418 -1.057945 -4.734025
    8 4.827512 0.000000 -0.000002 -0.929663 -0.496896 -0.822513
    9 11.140032 0.000000 0.000000 0.000000 0.000000 -0.525332
    10 10.314563 -0.000001 0.000001 -1.941654 -0.130485 0.323543
    11 1.646836 0.445664 -1.699647 -0.392035 3.352851 -0.875707
    12 0.928312 0.000000 0.000000 0.000000 0.000000 0.593404
    13 0.928313 0.000000 -0.000001 0.000000 0.000000 1.204231
    14 2.979373 -0.388274 -0.044205 -0.030851 -0.030823 0.768363
    15 1.435262 -0.000001 -0.000001 0.000000 0.000000 1.204014
    16 1.482593 -0.000001 0.000001 0.000000 0.000000 1.153221
    17 -2.975371 1.071532 -4.156022 -1.395312 0.723683 -4.673936
    18 4.972047 0.000000 0.000000 0.696125 0.604017 -0.784339
    19 11.585358 0.000000 0.000001 0.000000 0.000000 -0.587015
    20 10.127058 0.000000 0.000001 2.161668 0.015319 0.362208
    21 1.537458 0.109715 1.664489 -3.079588 0.031470 0.928526
    22 0.928313 0.000000 0.000002 0.000000 0.000000 0.061034
    23 0.928311 0.000000 0.000001 0.000000 0.000000 0.671897
    24 2.686395 -0.427337 0.044204 -0.001208 0.043611 -0.052337
    25 1.435260 0.000000 0.000001 0.000000 0.000000 1.186618
    26 1.482593 0.000000 -0.000001 0.000000 0.000000 1.684243
    27 2.046984 0.000001 0.000000 0.123519 0.084085 -0.552820
    28 -0.000005 0.000007 3.713254 -0.099769 -3.047848 5.708602
    29 18.045723 0.000000 0.000000 0.000000 0.000000 -0.413544
    30 17.597597 0.000000 0.000000 -0.057303 -0.016771 -0.162308
    31 0.000005 -0.000003 -3.713254 0.807899 2.831426 6.175283
    32 18.045721 0.000000 0.000000 0.000000 0.000000 -0.782250
    33 17.597597 0.000000 0.000000 0.178324 0.125292 0.485216
end
