version 1
nodes
  0 "Bip01" -1
  1 "Bip01 Pelvis" 0
  2 "Bip01 Spine" 1
  3 "Bip01 Spine1" 2
  4 "Bip01 Spine2" 3
  5 "Bip01 Spine3" 4
  6 "Bip01 Neck" 5
  7 "Bip01 L Arm" 6
  8 "Bip01 L Arm1" 7
  9 "Bip01 L Arm2" 8
  10 "Bip01 L Hand" 9
  11 "Bip01 L Finger0" 10
  12 "Bip01 L Finger01" 11
  13 "Bip01 L Finger02" 12
  14 "Bip01 L Finger1" 10
  15 "Bip01 L Finger11" 14
  16 "Bip01 L Finger12" 15
  17 "Bip01 R Arm" 6
  18 "Bip01 R Arm1" 17
  19 "Bip01 R Arm2" 18
  20 "Bip01 R Hand" 19
  21 "Bip01 R Finger0" 20
  22 "Bip01 R Finger01" 21
  23 "Bip01 R Finger02" 22
  24 "Bip01 R Finger1" 20
  25 "Bip01 R Finger11" 24
  26 "Bip01 R Finger12" 25
  27 "Bip01 Head" 6
  28 "Bip01 L Leg" 1
  29 "Bip01 L Leg1" 28
  30 "Bip01 L Foot" 29
  31 "Bip01 R Leg" 1
  32 "Bip01 R Leg1" 31
  33 "Bip01 R Foot" 32
end
skeleton
  time 0
    0 0.340819 -0.347516 1.540585 0.000000 0.000000 -1.571017
    1 -3.433703 0.000000 0.000000 -1.570795 -1.570787 0.000000
    2 1.293670 0.684478 -0.000001 0.008620 -0.023083 -0.052773
    3 5.309685 -0.003834 0.000000 0.094615 0.026965 0.163400
    4 4.826790 -0.004591 0.000000 0.186509 0.047267 0.236787
    5 5.792767 -0.005304 0.000000 0.093842 0.057250 0.203022
    6 6.662322 -0.001452 0.000000 0.000000 -0.000001 0.471000
    7 -3.108188 1.516823 4.339626 -0.257753 -1.364193 -3.360853
    8 4.827512 0.000000 -0.000002 1.190648 0.937492 0.297443
    9 11.140032 0.000000 0.000000 0.000000 0.000000 -0.944185
    10 10.314563 -0.000001 0.000001 -1.642256 0.083181 -0.332921
    11 1.646836 0.445664 -1.699647 0.400567 0.460373 0.766655
    12 0.928312 0.000000 0.000000 0.000000 0.000000 -0.636658
    13 0.928313 0.000000 -0.000001 0.000000 0.000000 0.000000
    14 2.979373 -0.388274 -0.044205 -0.023121 -0.037007 0.541151
    15 1.435262 -0.000001 -0.000001 0.000000 0.000000 1.700791
    16 1.482593 -0.000001 0.000001 0.000000 0.000000 1.229725
    17 -2.869899 1.399667 -4.140396 0.672666 1.317189 -2.956405
    18 4.972047 0.000000 0.000000 0.760940 -1.149370 -0.615288
    19 11.585358 0.000000 0.000001 0.000000 0.000000 -1.088856
    20 10.127058 0.000000 0.000001 1.537144 -0.014847 -0.019606
    21 1.537458 0.109715 1.664489 -0.264662 -0.055995 0.783079
    22 0.928313 0.000000 0.000002 0.000000 0.000000 -0.453501
    23 0.928311 0.000000 0.000001 0.000000 0.000000 0.000000
    24 2.686395 -0.427337 0.044204 -0.005762 0.043239 -0.157074
    25 1.435260 0.000000 0.000001 0.000000 0.000000 0.732613
    26 1.482593 0.000000 -0.000001 0.000000 0.000000 1.168644
    27 2.046984 0.000001 0.000000 -0.354443 0.134064 -0.058161
    28 -0.000005 0.000007 3.713254 -0.111178 -3.081500 5.833411
    29 18.045723 0.000000 0.000000 0.000000 0.000000 -0.414728
    30 17.597597 0.000000 0.000000 -0.065691 0.001711 -0.033752
    31 0.000005 -0.000003 -3.713254 0.553822 2.995359 6.246993
    32 18.045721 0.000000 0.000000 0.000000 0.000000 -0.556880
    33 17.597597 0.000000 0.000000 0.063276 0.097344 0.450436
  time 1
    0 0.352539 -0.347516 1.540585 0.000000 0.000000 -1.571017
    1 -3.433703 0.000000 0.000000 -1.570795 -1.570787 0.000000
    2 1.293670 0.684478 -0.000001 0.008620 -0.023083 -0.052773
    3 5.309685 -0.003834 0.000000 0.094615 0.026965 0.163400
    4 4.826790 -0.004591 0.000000 0.132014 0.047315 0.236809
    5 5.792767 -0.005304 0.000000 -0.015218 0.057334 0.203022
    6 6.662322 -0.001452 0.000000 0.000000 -0.000001 0.471000
    7 -3.108188 1.516823 4.339626 -0.257753 -1.364193 -3.360853
    8 4.827512 0.000000 -0.000002 1.204997 0.916259 0.482355
    9 11.140032 0.000000 0.000000 0.000000 0.000000 -0.981715
    10 10.314563 -0.000001 0.000001 -1.642256 0.083181 -0.332921
    11 1.646836 0.445664 -1.699647 0.400567 0.460373 0.766655
    12 0.928312 0.000000 0.000000 0.000000 0.000000 -0.636658
    13 0.928313 0.000000 -0.000001 0.000000 0.000000 0.000000
    14 2.979373 -0.388274 -0.044205 -0.023121 -0.037007 0.541151
    15 1.435262 -0.000001 -0.000001 0.000000 0.000000 1.700791
    16 1.482593 -0.000001 0.000001 0.000000 0.000000 1.229725
    17 -2.869899 1.399667 -4.140396 1.150803 1.109284 -2.505280
    18 4.972047 0.000000 0.000000 -0.739930 -1.159012 0.525803
    19 11.585358 0.000000 0.000001 0.000000 0.000000 -1.637009
    20 10.127058 0.000000 0.000001 1.537144 -0.014847 -0.019606
    21 1.537458 0.109715 1.664489 -0.264662 -0.055995 0.783079
    22 0.928313 0.000000 0.000002 0.000000 0.000000 -0.453501
    23 0.928311 0.000000 0.000001 0.000000 0.000000 0.000000
    24 2.686395 -0.427337 0.044204 -0.005762 0.043239 -0.157074
    25 1.435260 0.000000 0.000001 0.000000 0.000000 0.732613
    26 1.482593 0.000000 -0.000001 0.000000 0.000000 1.168644
    27 2.046984 0.000001 0.000000 -0.299943 0.140820 -0.066494
    28 -0.000005 0.000007 3.713254 -0.111178 -3.081500 5.833411
    29 18.045723 0.000000 0.000000 0.000000 0.000000 -0.414728
    30 17.597597 0.000000 0.000000 -0.065691 0.001711 -0.033752
    31 0.000005 -0.000003 -3.713254 0.553822 2.995359 6.246993
    32 18.045721 0.000000 0.000000 0.000000 0.000000 -0.556880
    33 17.597597 0.000000 0.000000 0.063276 0.097344 0.450390
  time 2
    0 0.360351 -0.347516 1.540585 0.000000 0.000000 -1.571017
    1 -3.433703 0.000000 0.000000 -1.570795 -1.570787 0.000000
    2 1.293670 0.684478 -0.000001 0.008620 -0.023083 -0.052773
    3 5.309685 -0.003834 0.000000 0.094615 0.026965 0.163400
    4 4.826790 -0.004591 0.000000 0.099282 0.047339 0.236809
    5 5.792767 -0.005304 0.000000 -0.080675 0.057382 0.203022
    6 6.662322 -0.001452 0.000000 0.000000 -0.000001 0.471000
    7 -3.108188 1.516823 4.339626 -0.257753 -1.364193 -3.360853
    8 4.827512 0.000000 -0.000002 1.234254 0.888460 0.614844
    9 11.140032 0.000000 0.000000 0.000000 0.000000 -1.019391
    10 10.314563 -0.000001 0.000001 -1.642256 0.083181 -0.332921
    11 1.646836 0.445664 -1.699647 0.400567 0.460373 0.766655
    12 0.928312 0.000000 0.000000 0.000000 0.000000 -0.636658
    13 0.928313 0.000000 -0.000001 0.000000 0.000000 0.000000
    14 2.979373 -0.388274 -0.044205 -0.023121 -0.037007 0.541151
    15 1.435262 -0.000001 -0.000001 0.000000 0.000000 1.700791
    16 1.482593 -0.000001 0.000001 0.000000 0.000000 1.229725
    17 -2.869899 1.399667 -4.140396 1.132556 1.125138 -2.521755
    18 4.972047 0.000000 0.000000 -0.565559 -1.206659 0.256920
    19 11.585358 0.000000 0.000001 0.000000 0.000000 -1.543078
    20 10.127058 0.000000 0.000001 1.537144 -0.014847 -0.019606
    21 1.537458 0.109715 1.664489 -0.264662 -0.055995 0.783079
    22 0.928313 0.000000 0.000002 0.000000 0.000000 -0.453501
    23 0.928311 0.000000 0.000001 0.000000 0.000000 0.000000
    24 2.686395 -0.427337 0.044204 -0.005762 0.043239 -0.157074
    25 1.435260 0.000000 0.000001 0.000000 0.000000 0.732613
    26 1.482593 0.000000 -0.000001 0.000000 0.000000 1.168644
    27 2.046984 0.000001 0.000000 -0.204299 0.087773 -0.052625
    28 -0.000005 0.000007 3.713254 -0.111178 -3.081500 5.833411
    29 18.045723 0.000000 0.000000 0.000000 0.000000 -0.414728
    30 17.597597 0.000000 0.000000 -0.065691 0.001711 -0.033752
    31 0.000005 -0.000003 -3.713254 0.553822 2.995359 6.246993
    32 18.045721 0.000000 0.000000 0.000000 0.000000 -0.556880
    33 17.597597 0.000000 0.000000 0.063242 0.097344 0.450390
  time 3
    0 0.360351 -0.347516 1.540585 0.000000 0.000000 -1.571017
    1 -3.433703 0.000000 0.000000 -1.570795 -1.570787 0.000000
    2 1.293670 0.684478 -0.000001 0.008620 -0.023083 -0.052773
    3 5.309685 -0.003834 0.000000 0.094615 0.026965 0.163400
    4 4.826790 -0.004591 0.000000 0.111833 0.047327 0.236809
    5 5.792767 -0.005304 0.000000 -0.055546 0.057370 0.203022
    6 6.662322 -0.001452 0.000000 0.000000 -0.000001 0.471000
    7 -3.108188 1.516823 4.339626 -0.257753 -1.364193 -3.360853
    8 4.827512 0.000000 -0.000002 1.260879 0.862707 0.604532
    9 11.140032 0.000000 0.000000 0.000000 0.000000 -1.036490
    10 10.314563 -0.000001 0.000001 -1.642256 0.083181 -0.332921
    11 1.646836 0.445664 -1.699647 0.400567 0.460373 0.766655
    12 0.928312 0.000000 0.000000 0.000000 0.000000 -0.636658
    13 0.928313 0.000000 -0.000001 0.000000 0.000000 0.000000
    14 2.979373 -0.388274 -0.044205 -0.023121 -0.037007 0.541151
    15 1.435262 -0.000001 -0.000001 0.000000 0.000000 1.700791
    16 1.482593 -0.000001 0.000001 0.000000 0.000000 1.229725
    17 -2.869899 1.399667 -4.140396 1.046386 1.186105 -2.600582
    18 4.972047 0.000000 0.000000 0.097878 -1.255190 -0.327104
    19 11.585358 0.000000 0.000001 0.000000 0.000000 -1.330873
    20 10.127058 0.000000 0.000001 1.537144 -0.014847 -0.019606
    21 1.537458 0.109715 1.664489 -0.264662 -0.055995 0.783079
    22 0.928313 0.000000 0.000002 0.000000 0.000000 -0.453501
    23 0.928311 0.000000 0.000001 0.000000 0.000000 0.000000
    24 2.686395 -0.427337 0.044204 -0.005762 0.043239 -0.157074
    25 1.435260 0.000000 0.000001 0.000000 0.000000 0.732613
    26 1.482593 0.000000 -0.000001 0.000000 0.000000 1.168644
    27 2.046984 0.000001 0.000000 -0.217181 0.086121 -0.051104
    28 -0.000005 0.000007 3.713254 -0.111178 -3.081500 5.833411
    29 18.045723 0.000000 0.000000 0.000000 0.000000 -0.414728
    30 17.597597 0.000000 0.000000 -0.065691 0.001711 -0.033752
    31 0.000005 -0.000003 -3.713254 0.553918 2.995263 6.246993
    32 18.045721 0.000000 0.000000 0.000000 0.000000 -0.556880
    33 17.597597 0.000000 0.000000 0.063209 0.097344 0.450390
  time 4
    0 0.352539 -0.347516 1.540585 0.000000 0.000000 -1.571017
    1 -3.433703 0.000000 0.000000 -1.570795 -1.570787 0.000000
    2 1.293670 0.684478 -0.000001 0.008620 -0.023083 -0.052773
    3 5.309685 -0.003834 0.000000 0.094615 0.026965 0.163400
    4 4.826790 -0.004591 0.000000 0.140006 0.047303 0.236809
    5 5.792767 -0.005304 0.000000 0.000720 0.057322 0.203022
    6 6.662322 -0.001452 0.000000 0.000000 -0.000001 0.471000
    7 -3.108188 1.516823 4.339626 -0.257753 -1.364193 -3.360853
    8 4.827512 0.000000 -0.000002 1.250038 0.876095 0.505578
    9 11.140032 0.000000 0.000000 0.000000 0.000000 -1.013957
    10 10.314563 -0.000001 0.000001 -1.642256 0.083181 -0.332921
    11 1.646836 0.445664 -1.699647 0.400567 0.460373 0.766655
    12 0.928312 0.000000 0.000000 0.000000 0.000000 -0.636658
    13 0.928313 0.000000 -0.000001 0.000000 0.000000 0.000000
    14 2.979373 -0.388274 -0.044205 -0.023121 -0.037007 0.541151
    15 1.435262 -0.000001 -0.000001 0.000000 0.000000 1.700791
    16 1.482593 -0.000001 0.000001 0.000000 0.000000 1.229725
    17 -2.869899 1.399667 -4.140396 0.930984 1.243471 -2.708718
    18 4.972047 0.000000 0.000000 0.619117 -1.179581 -0.716586
    19 11.585358 0.000000 0.000001 0.000000 0.000000 -1.153220
    20 10.127058 0.000000 0.000001 1.537144 -0.014847 -0.019606
    21 1.537458 0.109715 1.664489 -0.264662 -0.055995 0.783079
    22 0.928313 0.000000 0.000002 0.000000 0.000000 -0.453501
    23 0.928311 0.000000 0.000001 0.000000 0.000000 0.000000
    24 2.686395 -0.427337 0.044204 -0.005762 0.043239 -0.157074
    25 1.435260 0.000000 0.000001 0.000000 0.000000 0.732613
    26 1.482593 0.000000 -0.000001 0.000000 0.000000 1.168644
    27 2.046984 0.000001 0.000000 -0.266640 0.102023 -0.052564
    28 -0.000005 0.000007 3.713254 -0.111178 -3.081500 5.833411
    29 18.045723 0.000000 0.000000 0.000000 0.000000 -0.414728
    30 17.597597 0.000000 0.000000 -0.065691 0.001711 -0.033752
    31 0.000005 -0.000003 -3.713254 0.553918 2.995263 6.246993
    32 18.045721 0.000000 0.000000 0.000000 0.000000 -0.556880
    33 17.597597 0.000000 0.000000 0.063175 0.097344 0.450390
  time 5
    0 0.348632 -0.347516 1.540585 0.000000 0.000000 -1.571017
    1 -3.433703 0.000000 0.000000 -1.570795 -1.570787 0.000000
    2 1.293670 0.684478 -0.000001 0.008620 -0.023083 -0.052773
    3 5.309685 -0.003834 0.000000 0.094615 0.026965 0.163400
    4 4.826790 -0.004591 0.000000 0.169609 0.047279 0.236787
    5 5.792767 -0.005304 0.000000 0.059989 0.057274 0.203022
    6 6.662322 -0.001452 0.000000 0.000000 -0.000001 0.471000
    7 -3.108188 1.516823 4.339626 -0.257753 -1.364193 -3.360853
    8 4.827512 0.000000 -0.000002 1.215122 0.913275 0.376209
    9 11.140032 0.000000 0.000000 0.000000 0.000000 -0.970992
    10 10.314563 -0.000001 0.000001 -1.642256 0.083181 -0.332921
    11 1.646836 0.445664 -1.699647 0.400567 0.460373 0.766655
    12 0.928312 0.000000 0.000000 0.000000 0.000000 -0.636658
    13 0.928313 0.000000 -0.000001 0.000000 0.000000 0.000000
    14 2.979373 -0.388274 -0.044205 -0.023121 -0.037007 0.541151
    15 1.435262 -0.000001 -0.000001 0.000000 0.000000 1.700791
    16 1.482593 -0.000001 0.000001 0.000000 0.000000 1.229725
    17 -2.869899 1.399667 -4.140396 0.789788 1.290452 -2.843385
    18 4.972047 0.000000 0.000000 0.745745 -1.145031 -0.694489
    19 11.585358 0.000000 0.000001 0.000000 0.000000 -1.094819
    20 10.127058 0.000000 0.000001 1.537144 -0.014847 -0.019606
    21 1.537458 0.109715 1.664489 -0.264662 -0.055995 0.783079
    22 0.928313 0.000000 0.000002 0.000000 0.000000 -0.453501
    23 0.928311 0.000000 0.000001 0.000000 0.000000 0.000000
    24 2.686395 -0.427337 0.044204 -0.005762 0.043239 -0.157074
    25 1.435260 0.000000 0.000001 0.000000 0.000000 0.732613
    26 1.482593 0.000000 -0.000001 0.000000 0.000000 1.168644
    27 2.046984 0.000001 0.000000 -0.322562 0.122410 -0.055788
    28 -0.000005 0.000007 3.713254 -0.111178 -3.081500 5.833411
    29 18.045723 0.000000 0.000000 0.000000 0.000000 -0.414728
    30 17.597597 0.000000 0.000000 -0.065691 0.001711 -0.033752
    31 0.000005 -0.000003 -3.713254 0.553918 2.995263 6.246993
    32 18.045721 0.000000 0.000000 0.000000 0.000000 -0.556880
    33 17.597597 0.000000 0.000000 0.063175 0.097344 0.450390
  time 6
    0 0.340819 -0.347516 1.540585 0.000000 0.000000 -1.571017
    1 -3.433703 0.000000 0.000000 -1.570795 -1.570787 0.000000
    2 1.293670 0.684478 -0.000001 0.008620 -0.023083 -0.052773
    3 5.309685 -0.003834 0.000000 0.094615 0.026965 0.163400
    4 4.826790 -0.004591 0.000000 0.186509 0.047267 0.236787
    5 5.792767 -0.005304 0.000000 0.093842 0.057250 0.203022
    6 6.662322 -0.001452 0.000000 0.000000 -0.000001 0.471000
    7 -3.108188 1.516823 4.339626 -0.257753 -1.364193 -3.360853
    8 4.827512 0.000000 -0.000002 1.190648 0.937492 0.297443
    9 11.140032 0.000000 0.000000 0.000000 0.000000 -0.944185
    10 10.314563 -0.000001 0.000001 -1.642256 0.083181 -0.332921
    11 1.646836 0.445664 -1.699647 0.400567 0.460373 0.766655
    12 0.928312 0.000000 0.000000 0.000000 0.000000 -0.636658
    13 0.928313 0.000000 -0.000001 0.000000 0.000000 0.000000
    14 2.979373 -0.388274 -0.044205 -0.023121 -0.037007 0.541151
    15 1.435262 -0.000001 -0.000001 0.000000 0.000000 1.700791
    16 1.482593 -0.000001 0.000001 0.000000 0.000000 1.229725
    17 -2.869899 1.399667 -4.140396 0.672666 1.317189 -2.956405
    18 4.972047 0.000000 0.000000 0.760940 -1.149370 -0.615288
    19 11.585358 0.000000 0.000001 0.000000 0.000000 -1.088856
    20 10.127058 0.000000 0.000001 1.537144 -0.014847 -0.019606
    21 1.537458 0.109715 1.664489 -0.264662 -0.055995 0.783079
    22 0.928313 0.000000 0.000002 0.000000 0.000000 -0.453501
    23 0.928311 0.000000 0.000001 0.000000 0.000000 0.000000
    24 2.686395 -0.427337 0.044204 -0.005762 0.043239 -0.157074
    25 1.435260 0.000000 0.000001 0.000000 0.000000 0.732613
    26 1.482593 0.000000 -0.000001 0.000000 0.000000 1.168644
    27 2.046984 0.000001 0.000000 -0.354443 0.134064 -0.058161
    28 -0.000005 0.000007 3.713254 -0.111178 -3.081500 5.833411
    29 18.045723 0.000000 0.000000 0.000000 0.000000 -0.414728
    30 17.597597 0.000000 0.000000 -0.065691 0.001711 -0.033752
    31 0.000005 -0.000003 -3.713254 0.553918 2.995263 6.246993
    32 18.045721 0.000000 0.000000 0.000000 0.000000 -0.556880
    33 17.597597 0.000000 0.000000 0.063175 0.097364 0.450390
end
