version 1
nodes
  0 "Bip01" -1
  1 "Bip01 Pelvis" 0
  2 "Bip01 Spine" 1
  3 "Bip01 Spine1" 2
  4 "Bip01 Spine2" 3
  5 "Bip01 Spine3" 4
  6 "Bip01 Neck" 5
  7 "Bip01 L Arm" 6
  8 "Bip01 L Arm1" 7
  9 "Bip01 L Arm2" 8
  10 "Bip01 L Hand" 9
  11 "Bip01 L Finger0" 10
  12 "Bip01 L Finger01" 11
  13 "Bip01 L Finger02" 12
  14 "Bip01 L Finger1" 10
  15 "Bip01 L Finger11" 14
  16 "Bip01 L Finger12" 15
  17 "Bip01 R Arm" 6
  18 "Bip01 R Arm1" 17
  19 "Bip01 R Arm2" 18
  20 "Bip01 R Hand" 19
  21 "Bip01 R Finger0" 20
  22 "Bip01 R Finger01" 21
  23 "Bip01 R Finger02" 22
  24 "Bip01 R Finger1" 20
  25 "Bip01 R Finger11" 24
  26 "Bip01 R Finger12" 25
  27 "Bip01 Head" 6
  28 "Bip01 L Leg" 1
  29 "Bip01 L Leg1" 28
  30 "Bip01 L Foot" 29
  31 "Bip01 R Leg" 1
  32 "Bip01 R Leg1" 31
  33 "Bip01 R Foot" 32
end
skeleton
  time 0
    0 0.293943 0.179844 0.368674 0.000000 0.000000 -1.571017
    1 -2.812590 0.218757 0.000000 -1.570795 -1.570787 0.000000
    2 1.293670 0.684478 -0.000001 -0.000004 -0.000001 0.254575
    3 5.309685 -0.003834 0.000000 0.000000 0.000000 0.025712
    4 4.826790 -0.004591 0.000000 -0.168751 0.044391 0.158074
    5 5.792767 -0.005304 0.000000 -0.191030 0.036373 0.237426
    6 6.662322 -0.001452 0.000000 0.000000 -0.000001 0.471000
    7 -3.108188 1.516823 4.339626 1.021694 -1.200350 -4.603233
    8 4.827512 0.000000 -0.000002 -0.212449 0.604754 -1.361045
    9 11.140032 0.000000 0.000000 0.000000 0.000000 -0.604378
    10 10.314563 -0.000001 0.000001 -3.960389 0.010210 -0.303947
    11 1.646836 0.445664 -1.699647 -0.161704 0.581044 -0.283978
    12 0.928312 0.000000 0.000000 0.000000 0.000000 0.000000
    13 0.928313 0.000000 -0.000001 0.000000 0.000000 0.000000
    14 2.979373 -0.388274 -0.044205 -0.000805 -0.043611 0.000046
    15 1.435262 -0.000001 -0.000001 0.000000 0.000000 0.706400
    16 1.482593 -0.000001 0.000001 0.000000 0.000000 0.732610
    17 -2.869899 1.399667 -4.140396 0.820358 1.281881 -2.814267
    18 4.972047 0.000000 0.000000 -0.716762 -0.937970 -0.047571
    19 11.585358 0.000000 0.000001 0.000000 0.000000 -1.850275
    20 10.127058 0.000000 0.000001 1.686438 0.299012 0.168525
    21 1.537458 0.109715 1.664489 -0.264662 -0.055995 0.783079
    22 0.928313 0.000000 0.000002 0.000000 0.000000 -0.453501
    23 0.928311 0.000000 0.000001 0.000000 0.000000 0.000000
    24 2.686395 -0.427337 0.044204 -0.005762 0.043239 -0.157074
    25 1.435260 0.000000 0.000001 0.000000 0.000000 0.732613
    26 1.482593 0.000000 -0.000001 0.000000 0.000000 1.168644
    27 2.046984 0.000001 0.000000 0.295937 -0.215818 -0.197276
    28 -0.000005 0.000007 3.713254 -0.099674 -3.049094 5.706014
    29 18.045723 0.000000 0.000000 0.000000 0.000000 -0.424202
    30 17.597597 0.000000 0.000000 -0.058089 -0.015491 -0.154101
    31 0.000005 -0.000003 -3.713254 0.806749 2.830755 6.178638
    32 18.045721 0.000000 0.000000 0.000000 0.000000 -0.779731
    33 17.597597 0.000000 0.000000 0.179666 0.128665 0.484615
  time 1
    0 0.293943 0.179844 0.368674 0.000000 0.000000 -1.571017
    1 -2.789152 0.218757 0.000000 -1.570795 -1.570787 0.000000
    2 1.293670 0.684478 -0.000001 -0.000004 -0.000001 0.254575
    3 5.309685 -0.003834 0.000000 -0.000391 0.001654 0.031382
    4 4.826790 -0.004591 0.000000 -0.167473 0.042449 0.143633
    5 5.792767 -0.005304 0.000000 -0.191318 0.033317 0.220255
    6 6.662322 -0.001452 0.000000 0.000000 -0.000001 0.471000
    7 -3.108188 1.516823 4.339626 1.021694 -1.200350 -4.603233
    8 4.827512 0.000000 -0.000002 -0.225603 0.630507 -1.374823
    9 11.140032 0.000000 0.000000 0.000000 0.000000 -0.577426
    10 10.314563 -0.000001 0.000001 -3.958683 0.007868 -0.321134
    11 1.646836 0.445664 -1.699647 -0.161704 0.581044 -0.283978
    12 0.928312 0.000000 0.000000 0.000000 0.000000 0.000000
    13 0.928313 0.000000 -0.000001 0.000000 0.000000 0.000000
    14 2.979373 -0.388274 -0.044205 -0.000805 -0.043611 0.000046
    15 1.435262 -0.000001 -0.000001 0.000000 0.000000 0.706400
    16 1.482593 -0.000001 0.000001 0.000000 0.000000 0.732610
    17 -2.869899 1.399667 -4.140396 0.816346 1.280777 -2.818386
    18 4.972047 0.000000 0.000000 -0.756157 -0.929373 -0.008903
    19 11.585358 0.000000 0.000001 0.000000 0.000000 -1.850194
    20 10.127058 0.000000 0.000001 1.686649 0.298823 0.169025
    21 1.537458 0.109715 1.664489 -0.264662 -0.055995 0.783079
    22 0.928313 0.000000 0.000002 0.000000 0.000000 -0.453501
    23 0.928311 0.000000 0.000001 0.000000 0.000000 0.000000
    24 2.686395 -0.427337 0.044204 -0.005762 0.043239 -0.157074
    25 1.435260 0.000000 0.000001 0.000000 0.000000 0.732613
    26 1.482593 0.000000 -0.000001 0.000000 0.000000 1.168644
    27 2.046984 0.000001 0.000000 0.292835 -0.217765 -0.170755
    28 -0.000005 0.000007 3.713254 -0.099386 -3.048807 5.705535
    29 18.045723 0.000000 0.000000 0.000000 0.000000 -0.426497
    30 17.597597 0.000000 0.000000 -0.058064 -0.015639 -0.152313
    31 0.000005 -0.000003 -3.713254 0.806749 2.830947 6.179693
    32 18.045721 0.000000 0.000000 0.000000 0.000000 -0.779180
    33 17.597597 0.000000 0.000000 0.179699 0.129158 0.484846
  time 2
    0 0.293943 0.179844 0.368674 0.000000 0.000000 -1.571017
    1 -2.765713 0.218757 0.000000 -1.570795 -1.570787 0.000000
    2 1.293670 0.684478 -0.000001 -0.000004 -0.000001 0.254575
    3 5.309685 -0.003834 0.000000 -0.000783 0.003428 0.037423
    4 4.826790 -0.004591 0.000000 -0.166042 0.040400 0.128067
    5 5.792767 -0.005304 0.000000 -0.191605 0.030093 0.202482
    6 6.662322 -0.001452 0.000000 0.000000 -0.000001 0.471000
    7 -3.108188 1.516823 4.339626 1.021694 -1.200350 -4.603233
    8 4.827512 0.000000 -0.000002 -0.241785 0.657112 -1.391980
    9 11.140032 0.000000 0.000000 0.000000 0.000000 -0.547720
    10 10.314563 -0.000001 0.000001 -3.956978 0.005246 -0.339366
    11 1.646836 0.445664 -1.699647 -0.161704 0.581044 -0.283978
    12 0.928312 0.000000 0.000000 0.000000 0.000000 0.000000
    13 0.928313 0.000000 -0.000001 0.000000 0.000000 0.000000
    14 2.979373 -0.388274 -0.044205 -0.000805 -0.043611 0.000046
    15 1.435262 -0.000001 -0.000001 0.000000 0.000000 0.706400
    16 1.482593 -0.000001 0.000001 0.000000 0.000000 0.732610
    17 -2.869899 1.399667 -4.140396 0.820358 1.281881 -2.814267
    18 4.972047 0.000000 0.000000 -0.797992 -0.921740 0.032295
    19 11.585358 0.000000 0.000001 0.000000 0.000000 -1.850275
    20 10.127058 0.000000 0.000001 1.686438 0.299012 0.168525
    21 1.537458 0.109715 1.664489 -0.264662 -0.055995 0.783079
    22 0.928313 0.000000 0.000002 0.000000 0.000000 -0.453501
    23 0.928311 0.000000 0.000001 0.000000 0.000000 0.000000
    24 2.686395 -0.427337 0.044204 -0.005762 0.043239 -0.157074
    25 1.435260 0.000000 0.000001 0.000000 0.000000 0.732613
    26 1.482593 0.000000 -0.000001 0.000000 0.000000 1.168644
    27 2.046984 0.000001 0.000000 0.289474 -0.219860 -0.143199
    28 -0.000005 0.000007 3.713254 -0.099290 -3.048615 5.704960
    29 18.045723 0.000000 0.000000 0.000000 0.000000 -0.429013
    30 17.597597 0.000000 0.000000 -0.058013 -0.015836 -0.150296
    31 0.000005 -0.000003 -3.713254 0.807037 2.831234 6.180747
    32 18.045721 0.000000 0.000000 0.000000 0.000000 -0.778629
    33 17.597597 0.000000 0.000000 0.179733 0.129730 0.485169
  time 3
    0 0.293943 0.179844 0.368674 0.000000 0.000000 -1.571017
    1 -2.734462 0.210944 0.000000 -1.570795 -1.570787 0.000000
    2 1.293670 0.684478 -0.000001 -0.000004 -0.000001 0.254575
    3 5.309685 -0.003834 0.000000 -0.001191 0.005177 0.043464
    4 4.826790 -0.004591 0.000000 -0.164707 0.038483 0.113052
    5 5.792767 -0.005304 0.000000 -0.191821 0.026953 0.185000
    6 6.662322 -0.001452 0.000000 0.002289 0.003353 0.512868
    7 -3.057405 1.653546 4.331813 1.012876 -1.197807 -4.636961
    8 4.827512 0.000000 -0.000002 -0.259642 0.683291 -1.411649
    9 11.140032 0.000000 0.000000 0.000000 0.000000 -0.519246
    10 10.314563 -0.000001 0.000001 -3.955366 0.002154 -0.356379
    11 1.646836 0.445664 -1.699647 -0.161704 0.581044 -0.283978
    12 0.928312 0.000000 0.000000 0.000000 0.000000 0.000000
    13 0.928313 0.000000 -0.000001 0.000000 0.000000 0.000000
    14 2.979373 -0.388274 -0.044205 -0.000805 -0.043611 0.000046
    15 1.435262 -0.000001 -0.000001 0.000000 0.000000 0.706400
    16 1.482593 -0.000001 0.000001 0.000000 0.000000 0.732610
    17 -2.799584 1.501233 -4.148209 0.851501 1.289637 -2.824707
    18 4.972047 0.000000 0.000000 -0.841233 -0.917561 0.075024
    19 11.585358 0.000000 0.000001 0.000000 0.000000 -1.850521
    20 10.127058 0.000000 0.000001 1.685597 0.299863 0.166174
    21 1.537458 0.109715 1.664489 -0.264662 -0.055995 0.783079
    22 0.928313 0.000000 0.000002 0.000000 0.000000 -0.453501
    23 0.928311 0.000000 0.000001 0.000000 0.000000 0.000000
    24 2.686395 -0.427337 0.044204 -0.005762 0.043239 -0.157074
    25 1.435260 0.000000 0.000001 0.000000 0.000000 0.732613
    26 1.482593 0.000000 -0.000001 0.000000 0.000000 1.168644
    27 2.046984 0.000001 0.000000 0.284649 -0.221984 -0.166861
    28 -0.000005 0.000007 3.713254 -0.099194 -3.048327 5.704481
    29 18.045723 0.000000 0.000000 0.000000 0.000000 -0.431456
    30 17.597597 0.000000 0.000000 -0.057962 -0.016057 -0.148416
    31 0.000005 -0.000003 -3.713254 0.807037 2.831522 6.181706
    32 18.045721 0.000000 0.000000 0.000000 0.000000 -0.778078
    33 17.597597 0.000000 0.000000 0.179767 0.130243 0.485447
  time 4
    0 0.293943 0.179844 0.368674 0.000000 0.000000 -1.571017
    1 -2.714931 0.210944 0.000000 -1.570795 -1.570787 0.000000
    2 1.293670 0.684478 -0.000001 -0.000004 -0.000001 0.254575
    3 5.309685 -0.003834 0.000000 -0.001549 0.006831 0.049134
    4 4.826790 -0.004591 0.000000 -0.163467 0.036817 0.100220
    5 5.792767 -0.005304 0.000000 -0.191965 0.024137 0.168805
    6 6.662322 -0.001452 0.000000 0.004770 0.006624 0.554821
    7 -3.006622 1.790269 4.312281 1.003865 -1.195323 -4.670402
    8 4.827512 0.000000 -0.000002 -0.277419 0.706230 -1.430886
    9 11.140032 0.000000 0.000000 0.000000 0.000000 -0.494177
    10 10.314563 -0.000001 0.000001 -3.953850 -0.000656 -0.371011
    11 1.646836 0.445664 -1.699647 -0.161704 0.581044 -0.283978
    12 0.928312 0.000000 0.000000 0.000000 0.000000 0.000000
    13 0.928313 0.000000 -0.000001 0.000000 0.000000 0.000000
    14 2.979373 -0.388274 -0.044205 -0.000805 -0.043611 0.000046
    15 1.435262 -0.000001 -0.000001 0.000000 0.000000 0.706400
    16 1.482593 -0.000001 0.000001 0.000000 0.000000 0.732610
    17 -2.725363 1.606705 -4.163834 0.888854 1.298365 -2.828539
    18 4.972047 0.000000 0.000000 -0.880816 -0.914829 0.113825
    19 11.585358 0.000000 0.000001 0.000000 0.000000 -1.850847
    20 10.127058 0.000000 0.000001 1.684545 0.301092 0.163222
    21 1.537458 0.109715 1.664489 -0.264662 -0.055995 0.783079
    22 0.928313 0.000000 0.000002 0.000000 0.000000 -0.453501
    23 0.928311 0.000000 0.000001 0.000000 0.000000 0.000000
    24 2.686395 -0.427337 0.044204 -0.005762 0.043239 -0.157074
    25 1.435260 0.000000 0.000001 0.000000 0.000000 0.732613
    26 1.482593 0.000000 -0.000001 0.000000 0.000000 1.168644
    27 2.046984 0.000001 0.000000 0.280168 -0.223902 -0.193809
    28 -0.000005 0.000007 3.713254 -0.099194 -3.048231 5.704097
    29 18.045723 0.000000 0.000000 0.000000 0.000000 -0.433380
    30 17.597597 0.000000 0.000000 -0.057937 -0.016205 -0.146811
    31 0.000005 -0.000003 -3.713254 0.807228 2.831810 6.182569
    32 18.045721 0.000000 0.000000 0.000000 0.000000 -0.777527
    33 17.597597 0.000000 0.000000 0.179767 0.130677 0.485724
  time 5
    0 0.293943 0.179844 0.368674 0.000000 0.000000 -1.571017
    1 -2.703211 0.210944 0.000000 -1.570795 -1.570787 0.000000
    2 1.293670 0.684478 -0.000001 -0.000004 -0.000001 0.254575
    3 5.309685 -0.003834 0.000000 -0.001872 0.008257 0.053956
    4 4.826790 -0.004591 0.000000 -0.162628 0.035630 0.091092
    5 5.792767 -0.005304 0.000000 -0.192001 0.021836 0.154727
    6 6.662322 -0.001452 0.000000 0.007359 0.009840 0.596774
    7 -2.940214 1.919179 4.300562 0.994664 -1.192987 -4.703746
    8 4.827512 0.000000 -0.000002 -0.292166 0.724479 -1.446569
    9 11.140032 0.000000 0.000000 0.000000 0.000000 -0.475701
    10 10.314563 -0.000001 0.000001 -3.952713 -0.003560 -0.381578
    11 1.646836 0.445664 -1.699647 -0.161704 0.581044 -0.283978
    12 0.928312 0.000000 0.000000 0.000000 0.000000 0.000000
    13 0.928313 0.000000 -0.000001 0.000000 0.000000 0.000000
    14 2.979373 -0.388274 -0.044205 -0.000805 -0.043611 0.000046
    15 1.435262 -0.000001 -0.000001 0.000000 0.000000 0.706400
    16 1.482593 -0.000001 0.000001 0.000000 0.000000 0.732610
    17 -2.639423 1.712177 -4.171647 0.930697 1.307251 -2.828060
    18 4.972047 0.000000 0.000000 -0.913645 -0.913785 0.145439
    19 11.585358 0.000000 0.000001 0.000000 0.000000 -1.851174
    20 10.127058 0.000000 0.000001 1.683353 0.302227 0.160121
    21 1.537458 0.109715 1.664489 -0.264662 -0.055995 0.783079
    22 0.928313 0.000000 0.000002 0.000000 0.000000 -0.453501
    23 0.928311 0.000000 0.000001 0.000000 0.000000 0.000000
    24 2.686395 -0.427337 0.044204 -0.005762 0.043239 -0.157074
    25 1.435260 0.000000 0.000001 0.000000 0.000000 0.732613
    26 1.482593 0.000000 -0.000001 0.000000 0.000000 1.168644
    27 2.046984 0.000001 0.000000 0.276678 -0.225495 -0.226048
    28 -0.000005 0.000007 3.713254 -0.099098 -3.048231 5.703810
    29 18.045723 0.000000 0.000000 0.000000 0.000000 -0.434638
    30 17.597597 0.000000 0.000000 -0.057937 -0.016279 -0.145848
    31 0.000005 -0.000003 -3.713254 0.807324 2.831905 6.183144
    32 18.045721 0.000000 0.000000 0.000000 0.000000 -0.777212
    33 17.597597 0.000000 0.000000 0.179767 0.130973 0.485816
  time 6
    0 0.293943 0.179844 0.368674 0.000000 0.000000 -1.571017
    1 -2.691492 0.210944 0.000000 -1.570795 -1.570787 0.000000
    2 1.293670 0.684478 -0.000001 -0.000004 -0.000001 0.254575
    3 5.309685 -0.003834 0.000000 -0.002093 0.009360 0.057594
    4 4.826790 -0.004591 0.000000 -0.162113 0.034959 0.085734
    5 5.792767 -0.005304 0.000000 -0.191929 0.019954 0.141232
    6 6.662322 -0.001452 0.000000 0.010055 0.012905 0.638670
    7 -2.869899 2.055902 4.288843 0.985270 -1.190799 -4.737091
    8 4.827512 0.000000 -0.000002 -0.304762 0.739743 -1.459654
    9 11.140032 0.000000 0.000000 0.000000 0.000000 -0.461935
    10 10.314563 -0.000001 0.000001 -3.951670 -0.006182 -0.389359
    11 1.646836 0.445664 -1.699647 -0.161704 0.581044 -0.283978
    12 0.928312 0.000000 0.000000 0.000000 0.000000 0.000000
    13 0.928313 0.000000 -0.000001 0.000000 0.000000 0.000000
    14 2.979373 -0.388274 -0.044205 -0.000805 -0.043611 0.000046
    15 1.435262 -0.000001 -0.000001 0.000000 0.000000 0.706400
    16 1.482593 -0.000001 0.000001 0.000000 0.000000 0.732610
    17 -2.549577 1.805929 -4.187273 0.973687 1.315586 -2.826336
    18 4.972047 0.000000 0.000000 -0.941691 -0.913383 0.172527
    19 11.585358 0.000000 0.000001 0.000000 0.000000 -1.851501
    20 10.127058 0.000000 0.000001 1.682301 0.303267 0.157070
    21 1.537458 0.109715 1.664489 -0.264662 -0.055995 0.783079
    22 0.928313 0.000000 0.000002 0.000000 0.000000 -0.453501
    23 0.928311 0.000000 0.000001 0.000000 0.000000 0.000000
    24 2.686395 -0.427337 0.044204 -0.005762 0.043239 -0.157074
    25 1.435260 0.000000 0.000001 0.000000 0.000000 0.732613
    26 1.482593 0.000000 -0.000001 0.000000 0.000000 1.168644
    27 2.046984 0.000001 0.000000 0.273749 -0.227000 -0.261328
    28 -0.000005 0.000007 3.713254 -0.099002 -3.048136 5.703714
    29 18.045723 0.000000 0.000000 0.000000 0.000000 -0.435452
    30 17.597597 0.000000 0.000000 -0.057962 -0.016352 -0.145161
    31 0.000005 -0.000003 -3.713254 0.807324 2.832001 6.183431
    32 18.045721 0.000000 0.000000 0.000000 0.000000 -0.776976
    33 17.597597 0.000000 0.000000 0.179767 0.131170 0.485908
  time 7
    0 0.293943 0.179844 0.368674 0.000000 0.000000 -1.571017
    1 -2.683680 0.210944 0.000000 -1.570795 -1.570787 0.000000
    2 1.293670 0.684478 -0.000001 -0.000004 -0.000001 0.254575
    3 5.309685 -0.003834 0.000000 -0.002246 0.010067 0.060103
    4 4.826790 -0.004591 0.000000 -0.161865 0.034611 0.083044
    5 5.792767 -0.005304 0.000000 -0.191767 0.018576 0.128816
    6 6.662322 -0.001452 0.000000 0.012907 0.015846 0.680680
    7 -2.799584 2.180906 4.269311 0.975876 -1.188670 -4.770149
    8 4.827512 0.000000 -0.000002 -0.315683 0.752448 -1.470398
    9 11.140032 0.000000 0.000000 0.000000 0.000000 -0.450922
    10 10.314563 -0.000001 0.000001 -3.950722 -0.008431 -0.395687
    11 1.646836 0.445664 -1.699647 -0.161704 0.581044 -0.283978
    12 0.928312 0.000000 0.000000 0.000000 0.000000 0.000000
    13 0.928313 0.000000 -0.000001 0.000000 0.000000 0.000000
    14 2.979373 -0.388274 -0.044205 -0.000805 -0.043611 0.000046
    15 1.435262 -0.000001 -0.000001 0.000000 0.000000 0.706400
    16 1.482593 -0.000001 0.000001 0.000000 0.000000 0.732610
    17 -2.455824 1.903589 -4.202898 1.014383 1.322815 -2.827102
    18 4.972047 0.000000 0.000000 -0.965328 -0.912821 0.194757
    19 11.585358 0.000000 0.000001 0.000000 0.000000 -1.851746
    20 10.127058 0.000000 0.000001 1.681319 0.304307 0.154469
    21 1.537458 0.109715 1.664489 -0.264662 -0.055995 0.783079
    22 0.928313 0.000000 0.000002 0.000000 0.000000 -0.453501
    23 0.928311 0.000000 0.000001 0.000000 0.000000 0.000000
    24 2.686395 -0.427337 0.044204 -0.005762 0.043239 -0.157074
    25 1.435260 0.000000 0.000001 0.000000 0.000000 0.732613
    26 1.482593 0.000000 -0.000001 0.000000 0.000000 1.168644
    27 2.046984 0.000001 0.000000 0.271207 -0.228475 -0.299529
    28 -0.000005 0.000007 3.713254 -0.099002 -3.048040 5.703522
    29 18.045723 0.000000 0.000000 0.000000 0.000000 -0.436044
    30 17.597597 0.000000 0.000000 -0.057962 -0.016402 -0.144748
    31 0.000005 -0.000003 -3.713254 0.807324 2.832097 6.183719
    32 18.045721 0.000000 0.000000 0.000000 0.000000 -0.776897
    33 17.597597 0.000000 0.000000 0.179767 0.131308 0.485955
  time 8
    0 0.293943 0.179844 0.368674 0.000000 0.000000 -1.571017
    1 -2.683680 0.210944 0.000000 -1.570795 -1.570787 0.000000
    2 1.293670 0.684478 -0.000001 -0.000004 -0.000001 0.254575
    3 5.309685 -0.003834 0.000000 -0.002331 0.010510 0.061586
    4 4.826790 -0.004591 0.000000 -0.161865 0.034611 0.083044
    5 5.792767 -0.005304 0.000000 -0.191587 0.018073 0.121611
    6 6.662322 -0.001452 0.000000 0.012907 0.015846 0.680680
    7 -2.799584 2.180906 4.269311 0.975876 -1.188670 -4.770149
    8 4.827512 0.000000 -0.000002 -0.320865 0.758418 -1.475771
    9 11.140032 0.000000 0.000000 0.000000 0.000000 -0.447082
    10 10.314563 -0.000001 0.000001 -3.950248 -0.009836 -0.397778
    11 1.646836 0.445664 -1.699647 -0.161704 0.581044 -0.283978
    12 0.928312 0.000000 0.000000 0.000000 0.000000 0.000000
    13 0.928313 0.000000 -0.000001 0.000000 0.000000 0.000000
    14 2.979373 -0.388274 -0.044205 -0.000805 -0.043611 0.000046
    15 1.435262 -0.000001 -0.000001 0.000000 0.000000 0.706400
    16 1.482593 -0.000001 0.000001 0.000000 0.000000 0.732610
    17 -2.455824 1.903589 -4.202898 1.034540 1.325918 -2.806126
    18 4.972047 0.000000 0.000000 -0.977428 -0.913705 0.206204
    19 11.585358 0.000000 0.000001 0.000000 0.000000 -1.851909
    20 10.127058 0.000000 0.000001 1.680618 0.304969 0.152668
    21 1.537458 0.109715 1.664489 -0.264662 -0.055995 0.783079
    22 0.928313 0.000000 0.000002 0.000000 0.000000 -0.453501
    23 0.928311 0.000000 0.000001 0.000000 0.000000 0.000000
    24 2.686395 -0.427337 0.044204 -0.005762 0.043239 -0.157074
    25 1.435260 0.000000 0.000001 0.000000 0.000000 0.732613
    26 1.482593 0.000000 -0.000001 0.000000 0.000000 1.168644
    27 2.046984 0.000001 0.000000 0.270518 -0.232576 -0.284383
    28 -0.000005 0.000007 3.713254 -0.099002 -3.048136 5.703618
    29 18.045723 0.000000 0.000000 0.000000 0.000000 -0.435970
    30 17.597597 0.000000 0.000000 -0.058013 -0.016352 -0.144748
    31 0.000005 -0.000003 -3.713254 0.807324 2.832097 6.183719
    32 18.045721 0.000000 0.000000 0.000000 0.000000 -0.776897
    33 17.597597 0.000000 0.000000 0.179767 0.131308 0.485955
  time 9
    0 0.293943 0.179844 0.368674 0.000000 0.000000 -1.571017
    1 -2.695399 0.210944 0.000000 -1.570795 -1.570787 0.000000
    2 1.293670 0.684478 -0.000001 -0.000004 -0.000001 0.254575
    3 5.309685 -0.003834 0.000000 -0.002365 0.010594 0.061851
    4 4.826790 -0.004591 0.000000 -0.162113 0.034959 0.085734
    5 5.792767 -0.005304 0.000000 -0.191515 0.018792 0.123729
    6 6.662322 -0.001452 0.000000 0.012907 0.015846 0.680680
    7 -2.799584 2.180906 4.269311 0.975876 -1.188670 -4.770149
    8 4.827512 0.000000 -0.000002 -0.316640 0.754410 -1.471785
    9 11.140032 0.000000 0.000000 0.000000 0.000000 -0.454907
    10 10.314563 -0.000001 0.000001 -3.950533 -0.009929 -0.392842
    11 1.646836 0.445664 -1.699647 -0.161704 0.581044 -0.283978
    12 0.928312 0.000000 0.000000 0.000000 0.000000 0.000000
    13 0.928313 0.000000 -0.000001 0.000000 0.000000 0.000000
    14 2.979373 -0.388274 -0.044205 -0.000805 -0.043611 0.000046
    15 1.435262 -0.000001 -0.000001 0.000000 0.000000 0.706400
    16 1.482593 -0.000001 0.000001 0.000000 0.000000 0.732610
    17 -2.455824 1.903589 -4.202898 1.047437 1.327784 -2.792813
    18 4.972047 0.000000 0.000000 -0.972738 -0.918284 0.201745
    19 11.585358 0.000000 0.000001 0.000000 0.000000 -1.852072
    20 10.127058 0.000000 0.000001 1.680197 0.305442 0.151517
    21 1.537458 0.109715 1.664489 -0.264662 -0.055995 0.783079
    22 0.928313 0.000000 0.000002 0.000000 0.000000 -0.453501
    23 0.928311 0.000000 0.000001 0.000000 0.000000 0.000000
    24 2.686395 -0.427337 0.044204 -0.005762 0.043239 -0.157074
    25 1.435260 0.000000 0.000001 0.000000 0.000000 0.732613
    26 1.482593 0.000000 -0.000001 0.000000 0.000000 1.168644
    27 2.046984 0.000001 0.000000 0.270819 -0.235969 -0.280489
    28 -0.000005 0.000007 3.713254 -0.099002 -3.048231 5.703810
    29 18.045723 0.000000 0.000000 0.000000 0.000000 -0.435008
    30 17.597597 0.000000 0.000000 -0.058089 -0.016279 -0.145528
    31 0.000005 -0.000003 -3.713254 0.807324 2.831905 6.183240
    32 18.045721 0.000000 0.000000 0.000000 0.000000 -0.776976
    33 17.597597 0.000000 0.000000 0.179733 0.131091 0.485770
  time 10
    0 0.293943 0.179844 0.368674 0.000000 0.000000 -1.571017
    1 -2.714931 0.218757 0.000000 -1.570795 -1.570787 0.000000
    2 1.293670 0.684478 -0.000001 -0.000004 -0.000001 0.254575
    3 5.309685 -0.003834 0.000000 -0.002280 0.010247 0.060633
    4 4.826790 -0.004591 0.000000 -0.162628 0.035630 0.091092
    5 5.792767 -0.005304 0.000000 -0.191533 0.020853 0.136498
    6 6.662322 -0.001452 0.000000 0.012907 0.015846 0.680680
    7 -2.799584 2.180906 4.269311 0.975876 -1.188670 -4.770149
    8 4.827512 0.000000 -0.000002 -0.303486 0.739316 -1.459480
    9 11.140032 0.000000 0.000000 0.000000 0.000000 -0.474687
    10 10.314563 -0.000001 0.000001 -3.951575 -0.008712 -0.380591
    11 1.646836 0.445664 -1.699647 -0.161704 0.581044 -0.283978
    12 0.928312 0.000000 0.000000 0.000000 0.000000 0.000000
    13 0.928313 0.000000 -0.000001 0.000000 0.000000 0.000000
    14 2.979373 -0.388274 -0.044205 -0.000805 -0.043611 0.000046
    15 1.435262 -0.000001 -0.000001 0.000000 0.000000 0.706400
    16 1.482593 -0.000001 0.000001 0.000000 0.000000 0.732610
    17 -2.455824 1.903589 -4.202898 1.056131 1.329046 -2.784097
    18 4.972047 0.000000 0.000000 -0.950227 -0.927766 0.180980
    19 11.585358 0.000000 0.000001 0.000000 0.000000 -1.852154
    20 10.127058 0.000000 0.000001 1.679917 0.305631 0.150767
    21 1.537458 0.109715 1.664489 -0.264662 -0.055995 0.783079
    22 0.928313 0.000000 0.000002 0.000000 0.000000 -0.453501
    23 0.928311 0.000000 0.000001 0.000000 0.000000 0.000000
    24 2.686395 -0.427337 0.044204 -0.005762 0.043239 -0.157074
    25 1.435260 0.000000 0.000001 0.000000 0.000000 0.732613
    26 1.482593 0.000000 -0.000001 0.000000 0.000000 1.168644
    27 2.046984 0.000001 0.000000 0.272413 -0.238624 -0.288519
    28 -0.000005 0.000007 3.713254 -0.099002 -3.048423 5.704097
    29 18.045723 0.000000 0.000000 0.000000 0.000000 -0.433158
    30 17.597597 0.000000 0.000000 -0.058216 -0.016057 -0.146995
    31 0.000005 -0.000003 -3.713254 0.807324 2.831522 6.182473
    32 18.045721 0.000000 0.000000 0.000000 0.000000 -0.777527
    33 17.597597 0.000000 0.000000 0.179666 0.130736 0.485493
  time 11
    0 0.293943 0.179844 0.368674 0.000000 0.000000 -1.571017
    1 -2.746182 0.218757 0.000000 -1.570795 -1.570787 0.000000
    2 1.293670 0.684478 -0.000001 -0.000004 -0.000001 0.254575
    3 5.309685 -0.003834 0.000000 -0.002093 0.009360 0.057594
    4 4.826790 -0.004591 0.000000 -0.163601 0.036937 0.101300
    5 5.792767 -0.005304 0.000000 -0.191533 0.023921 0.155952
    6 6.662322 -0.001452 0.000000 0.012907 0.015846 0.680680
    7 -2.799584 2.180906 4.269311 0.975876 -1.188670 -4.770149
    8 4.827512 0.000000 -0.000002 -0.283158 0.714757 -1.439984
    9 11.140032 0.000000 0.000000 0.000000 0.000000 -0.505190
    10 10.314563 -0.000001 0.000001 -3.953281 -0.006744 -0.361837
    11 1.646836 0.445664 -1.699647 -0.161704 0.581044 -0.283978
    12 0.928312 0.000000 0.000000 0.000000 0.000000 0.000000
    13 0.928313 0.000000 -0.000001 0.000000 0.000000 0.000000
    14 2.979373 -0.388274 -0.044205 -0.000805 -0.043611 0.000046
    15 1.435262 -0.000001 -0.000001 0.000000 0.000000 0.706400
    16 1.482593 -0.000001 0.000001 0.000000 0.000000 0.732610
    17 -2.455824 1.903589 -4.202898 1.059570 1.329493 -2.780361
    18 4.972047 0.000000 0.000000 -0.911769 -0.940381 0.144774
    19 11.585358 0.000000 0.000001 0.000000 0.000000 -1.852154
    20 10.127058 0.000000 0.000001 1.679847 0.305820 0.150467
    21 1.537458 0.109715 1.664489 -0.264662 -0.055995 0.783079
    22 0.928313 0.000000 0.000002 0.000000 0.000000 -0.453501
    23 0.928311 0.000000 0.000001 0.000000 0.000000 0.000000
    24 2.686395 -0.427337 0.044204 -0.005762 0.043239 -0.157074
    25 1.435260 0.000000 0.000001 0.000000 0.000000 0.732613
    26 1.482593 0.000000 -0.000001 0.000000 0.000000 1.168644
    27 2.046984 0.000001 0.000000 0.275386 -0.240542 -0.306585
    28 -0.000005 0.000007 3.713254 -0.099098 -3.048807 5.704672
    29 18.045723 0.000000 0.000000 0.000000 0.000000 -0.430345
    30 17.597597 0.000000 0.000000 -0.058368 -0.015836 -0.149241
    31 0.000005 -0.000003 -3.713254 0.807037 2.831139 6.181226
    32 18.045721 0.000000 0.000000 0.000000 0.000000 -0.778314
    33 17.597597 0.000000 0.000000 0.179565 0.130164 0.485077
  time 12
    0 0.293943 0.179844 0.368674 0.000000 0.000000 -1.571017
    1 -2.765713 0.218757 0.000000 -1.570795 -1.570787 0.000000
    2 1.293670 0.684478 -0.000001 -0.000004 -0.000001 0.254575
    3 5.309685 -0.003834 0.000000 -0.001515 0.006604 0.048339
    4 4.826790 -0.004591 0.000000 -0.164974 0.038890 0.116271
    5 5.792767 -0.005304 0.000000 -0.191479 0.027493 0.179041
    6 6.662322 -0.001452 0.000000 0.012907 0.015846 0.680680
    7 -2.799584 2.180906 4.269311 0.975876 -1.188670 -4.770149
    8 4.827512 0.000000 -0.000002 -0.262193 0.687470 -1.418841
    9 11.140032 0.000000 0.000000 0.000000 0.000000 -0.538011
    10 10.314563 -0.000001 0.000001 -3.955366 -0.003841 -0.341456
    11 1.646836 0.445664 -1.699647 -0.161704 0.581044 -0.283978
    12 0.928312 0.000000 0.000000 0.000000 0.000000 0.000000
    13 0.928313 0.000000 -0.000001 0.000000 0.000000 0.000000
    14 2.979373 -0.388274 -0.044205 -0.000805 -0.043611 0.000046
    15 1.435262 -0.000001 -0.000001 0.000000 0.000000 0.706400
    16 1.482593 -0.000001 0.000001 0.000000 0.000000 0.732610
    17 -2.455824 1.903589 -4.202898 1.057468 1.329178 -2.782660
    18 4.972047 0.000000 0.000000 -0.868434 -0.952513 0.103643
    19 11.585358 0.000000 0.000001 0.000000 0.000000 -1.852154
    20 10.127058 0.000000 0.000001 1.679917 0.305631 0.150617
    21 1.537458 0.109715 1.664489 -0.264662 -0.055995 0.783079
    22 0.928313 0.000000 0.000002 0.000000 0.000000 -0.453501
    23 0.928311 0.000000 0.000001 0.000000 0.000000 0.000000
    24 2.686395 -0.427337 0.044204 -0.005762 0.043239 -0.157074
    25 1.435260 0.000000 0.000001 0.000000 0.000000 0.732613
    26 1.482593 0.000000 -0.000001 0.000000 0.000000 1.168644
    27 2.046984 0.000001 0.000000 0.279048 -0.241840 -0.326598
    28 -0.000005 0.000007 3.713254 -0.099098 -3.048807 5.704960
    29 18.045723 0.000000 0.000000 0.000000 0.000000 -0.428939
    30 17.597597 0.000000 0.000000 -0.058368 -0.015786 -0.150433
    31 0.000005 -0.000003 -3.713254 0.807037 2.831043 6.180651
    32 18.045721 0.000000 0.000000 0.000000 0.000000 -0.778629
    33 17.597597 0.000000 0.000000 0.179532 0.129809 0.484939
  time 13
    0 0.293943 0.179844 0.368674 0.000000 0.000000 -1.571017
    1 -2.757901 0.218757 0.000000 -1.570795 -1.570787 0.000000
    2 1.293670 0.684478 -0.000001 -0.000004 -0.000001 0.254575
    3 5.309685 -0.003834 0.000000 -0.000596 0.002613 0.034685
    4 4.826790 -0.004591 0.000000 -0.166500 0.041035 0.132895
    5 5.792767 -0.005304 0.000000 -0.191353 0.031040 0.202420
    6 6.662322 -0.001452 0.000000 0.010055 0.012905 0.638670
    7 -2.869899 2.055902 4.288843 0.985270 -1.190799 -4.737091
    8 4.827512 0.000000 -0.000002 -0.244177 0.662058 -1.400211
    9 11.140032 0.000000 0.000000 0.000000 0.000000 -0.567137
    10 10.314563 -0.000001 0.000001 -3.957262 -0.000937 -0.323399
    11 1.646836 0.445664 -1.699647 -0.161704 0.581044 -0.283978
    12 0.928312 0.000000 0.000000 0.000000 0.000000 0.000000
    13 0.928313 0.000000 -0.000001 0.000000 0.000000 0.000000
    14 2.979373 -0.388274 -0.044205 -0.000805 -0.043611 0.000046
    15 1.435262 -0.000001 -0.000001 0.000000 0.000000 0.706400
    16 1.482593 -0.000001 0.000001 0.000000 0.000000 0.732610
    17 -2.549577 1.805929 -4.187273 1.035591 1.325655 -2.762546
    18 4.972047 0.000000 0.000000 -0.826882 -0.961673 0.063643
    19 11.585358 0.000000 0.000001 0.000000 0.000000 -1.852072
    20 10.127058 0.000000 0.000001 1.680127 0.305442 0.151367
    21 1.537458 0.109715 1.664489 -0.264662 -0.055995 0.783079
    22 0.928313 0.000000 0.000002 0.000000 0.000000 -0.453501
    23 0.928311 0.000000 0.000001 0.000000 0.000000 0.000000
    24 2.686395 -0.427337 0.044204 -0.005762 0.043239 -0.157074
    25 1.435260 0.000000 0.000001 0.000000 0.000000 0.732613
    26 1.482593 0.000000 -0.000001 0.000000 0.000000 1.168644
    27 2.046984 0.000001 0.000000 0.284046 -0.235497 -0.311573
    28 -0.000005 0.000007 3.713254 -0.099002 -3.048615 5.704960
    29 18.045723 0.000000 0.000000 0.000000 0.000000 -0.429087
    30 17.597597 0.000000 0.000000 -0.058317 -0.016057 -0.150250
    31 0.000005 -0.000003 -3.713254 0.807228 2.831234 6.180843
    32 18.045721 0.000000 0.000000 0.000000 0.000000 -0.778629
    33 17.597597 0.000000 0.000000 0.179532 0.129730 0.485169
  time 14
    0 0.293943 0.179844 0.368674 0.000000 0.000000 -1.571017
    1 -2.777433 0.210944 0.000000 -1.570795 -1.570787 0.000000
    2 1.293670 0.684478 -0.000001 -0.000004 -0.000001 0.254575
    3 5.309685 -0.003834 0.000000 0.000000 0.000000 0.025712
    4 4.826790 -0.004591 0.000000 -0.167816 0.043037 0.147888
    5 5.792767 -0.005304 0.000000 -0.191192 0.034156 0.222975
    6 6.662322 -0.001452 0.000000 0.007359 0.009840 0.596774
    7 -2.940214 1.919179 4.300562 0.994664 -1.192987 -4.703746
    8 4.827512 0.000000 -0.000002 -0.228154 0.635282 -1.383401
    9 11.140032 0.000000 0.000000 0.000000 0.000000 -0.593583
    10 10.314563 -0.000001 0.000001 -3.959252 0.002154 -0.306851
    11 1.646836 0.445664 -1.699647 -0.161704 0.581044 -0.283978
    12 0.928312 0.000000 0.000000 0.000000 0.000000 0.000000
    13 0.928313 0.000000 -0.000001 0.000000 0.000000 0.000000
    14 2.979373 -0.388274 -0.044205 -0.000805 -0.043611 0.000046
    15 1.435262 -0.000001 -0.000001 0.000000 0.000000 0.706400
    16 1.482593 -0.000001 0.000001 0.000000 0.000000 0.732610
    17 -2.639423 1.712177 -4.171647 1.007409 1.321133 -2.748658
    18 4.972047 0.000000 0.000000 -0.782421 -0.968503 0.020648
    19 11.585358 0.000000 0.000001 0.000000 0.000000 -1.851909
    20 10.127058 0.000000 0.000001 1.680618 0.304969 0.152668
    21 1.537458 0.109715 1.664489 -0.264662 -0.055995 0.783079
    22 0.928313 0.000000 0.000002 0.000000 0.000000 -0.453501
    23 0.928311 0.000000 0.000001 0.000000 0.000000 0.000000
    24 2.686395 -0.427337 0.044204 -0.005762 0.043239 -0.157074
    25 1.435260 0.000000 0.000001 0.000000 0.000000 0.732613
    26 1.482593 0.000000 -0.000001 0.000000 0.000000 1.168644
    27 2.046984 0.000001 0.000000 0.288871 -0.229242 -0.296792
    28 -0.000005 0.000007 3.713254 -0.099002 -3.048711 5.705247
    29 18.045723 0.000000 0.000000 0.000000 0.000000 -0.427829
    30 17.597597 0.000000 0.000000 -0.058368 -0.016057 -0.151258
    31 0.000005 -0.000003 -3.713254 0.807228 2.831139 6.180268
    32 18.045721 0.000000 0.000000 0.000000 0.000000 -0.778944
    33 17.597597 0.000000 0.000000 0.179465 0.129395 0.485123
  time 15
    0 0.293943 0.179844 0.368674 0.000000 0.000000 -1.571017
    1 -2.800871 0.218757 0.000000 -1.570795 -1.570787 0.000000
    2 1.293670 0.684478 -0.000001 -0.000004 -0.000001 0.254575
    3 5.309685 -0.003834 0.000000 0.000153 -0.000695 0.023274
    4 4.826790 -0.004591 0.000000 -0.168751 0.044391 0.158074
    5 5.792767 -0.005304 0.000000 -0.191030 0.036373 0.237426
    6 6.662322 -0.001452 0.000000 0.004770 0.006624 0.554821
    7 -3.006622 1.790269 4.312281 1.003865 -1.195323 -4.670402
    8 4.827512 0.000000 -0.000002 -0.216435 0.611747 -1.370490
    9 11.140032 0.000000 0.000000 0.000000 0.000000 -0.612131
    10 10.314563 -0.000001 0.000001 -3.960769 0.005246 -0.295702
    11 1.646836 0.445664 -1.699647 -0.161704 0.581044 -0.283978
    12 0.928312 0.000000 0.000000 0.000000 0.000000 0.000000
    13 0.928313 0.000000 -0.000001 0.000000 0.000000 0.000000
    14 2.979373 -0.388274 -0.044205 -0.000805 -0.043611 0.000046
    15 1.435262 -0.000001 -0.000001 0.000000 0.000000 0.706400
    16 1.482593 -0.000001 0.000001 0.000000 0.000000 0.732610
    17 -2.725363 1.606705 -4.163834 0.963465 1.313535 -2.751148
    18 4.972047 0.000000 0.000000 -0.741150 -0.968664 -0.019951
    19 11.585358 0.000000 0.000001 0.000000 0.000000 -1.851664
    20 10.127058 0.000000 0.000001 1.681670 0.303929 0.155519
    21 1.537458 0.109715 1.664489 -0.264662 -0.055995 0.783079
    22 0.928313 0.000000 0.000002 0.000000 0.000000 -0.453501
    23 0.928311 0.000000 0.000001 0.000000 0.000000 0.000000
    24 2.686395 -0.427337 0.044204 -0.005762 0.043239 -0.157074
    25 1.435260 0.000000 0.000001 0.000000 0.000000 0.732613
    26 1.482593 0.000000 -0.000001 0.000000 0.000000 1.168644
    27 2.046984 0.000001 0.000000 0.292878 -0.223607 -0.277874
    28 -0.000005 0.000007 3.713254 -0.099098 -3.048998 5.705727
    29 18.045723 0.000000 0.000000 0.000000 0.000000 -0.425312
    30 17.597597 0.000000 0.000000 -0.058520 -0.015786 -0.153230
    31 0.000005 -0.000003 -3.713254 0.807037 2.830755 6.179213
    32 18.045721 0.000000 0.000000 0.000000 0.000000 -0.779495
    33 17.597597 0.000000 0.000000 0.179397 0.128902 0.484754
  time 16
    0 0.293943 0.179844 0.368674 0.000000 0.000000 -1.571017
    1 -2.812590 0.218757 0.000000 -1.570795 -1.570787 0.000000
    2 1.293670 0.684478 -0.000001 -0.000004 -0.000001 0.254575
    3 5.309685 -0.003834 0.000000 0.000187 -0.000911 0.022567
    4 4.826790 -0.004591 0.000000 -0.169075 0.044942 0.162374
    5 5.792767 -0.005304 0.000000 -0.190940 0.037416 0.243987
    6 6.662322 -0.001452 0.000000 0.002289 0.003353 0.512868
    7 -3.057405 1.653546 4.331813 1.012876 -1.197807 -4.636961
    8 4.827512 0.000000 -0.000002 -0.210775 0.599808 -1.362865
    9 11.140032 0.000000 0.000000 0.000000 0.000000 -0.617855
    10 10.314563 -0.000001 0.000001 -3.961337 0.007868 -0.293148
    11 1.646836 0.445664 -1.699647 -0.161704 0.581044 -0.283978
    12 0.928312 0.000000 0.000000 0.000000 0.000000 0.000000
    13 0.928313 0.000000 -0.000001 0.000000 0.000000 0.000000
    14 2.979373 -0.388274 -0.044205 -0.000805 -0.043611 0.000046
    15 1.435262 -0.000001 -0.000001 0.000000 0.000000 0.706400
    16 1.482593 -0.000001 0.000001 0.000000 0.000000 0.732610
    17 -2.799584 1.501233 -4.148209 0.906050 1.302440 -2.767718
    18 4.972047 0.000000 0.000000 -0.717137 -0.960548 -0.044443
    19 11.585358 0.000000 0.000001 0.000000 0.000000 -1.851174
    20 10.127058 0.000000 0.000001 1.683353 0.302227 0.160071
    21 1.537458 0.109715 1.664489 -0.264662 -0.055995 0.783079
    22 0.928313 0.000000 0.000002 0.000000 0.000000 -0.453501
    23 0.928311 0.000000 0.000001 0.000000 0.000000 0.000000
    24 2.686395 -0.427337 0.044204 -0.005762 0.043239 -0.157074
    25 1.435260 0.000000 0.000001 0.000000 0.000000 0.732613
    26 1.482593 0.000000 -0.000001 0.000000 0.000000 1.168644
    27 2.046984 0.000001 0.000000 0.295290 -0.218975 -0.246730
    28 -0.000005 0.000007 3.713254 -0.099098 -3.049190 5.706014
    29 18.045723 0.000000 0.000000 0.000000 0.000000 -0.424054
    30 17.597597 0.000000 0.000000 -0.058596 -0.015688 -0.154147
    31 0.000005 -0.000003 -3.713254 0.807037 2.830659 6.178734
    32 18.045721 0.000000 0.000000 0.000000 0.000000 -0.779731
    33 17.597597 0.000000 0.000000 0.179330 0.128665 0.484569
  time 17
    0 0.293943 0.179844 0.368674 0.000000 0.000000 -1.571017
    1 -2.820403 0.218757 0.000000 -1.570795 -1.570787 0.000000
    2 1.293670 0.684478 -0.000001 -0.000004 -0.000001 0.254575
    3 5.309685 -0.003834 0.000000 0.000153 -0.000743 0.023080
    4 4.826790 -0.004591 0.000000 -0.169132 0.045014 0.162903
    5 5.792767 -0.005304 0.000000 -0.190922 0.037548 0.244859
    6 6.662322 -0.001452 0.000000 0.000000 -0.000001 0.471000
    7 -3.108188 1.516823 4.339626 1.021694 -1.200350 -4.603233
    8 4.827512 0.000000 -0.000002 -0.208862 0.596227 -1.358879
    9 11.140032 0.000000 0.000000 0.000000 0.000000 -0.616043
    10 10.314563 -0.000001 0.000001 -3.961242 0.009929 -0.295528
    11 1.646836 0.445664 -1.699647 -0.161704 0.581044 -0.283978
    12 0.928312 0.000000 0.000000 0.000000 0.000000 0.000000
    13 0.928313 0.000000 -0.000001 0.000000 0.000000 0.000000
    14 2.979373 -0.388274 -0.044205 -0.000805 -0.043611 0.000046
    15 1.435262 -0.000001 -0.000001 0.000000 0.000000 0.706400
    16 1.482593 -0.000001 0.000001 0.000000 0.000000 0.732610
    17 -2.869899 1.399667 -4.140396 0.850833 1.289952 -2.782468
    18 4.972047 0.000000 0.000000 -0.706913 -0.949460 -0.055891
    19 11.585358 0.000000 0.000001 0.000000 0.000000 -1.850602
    20 10.127058 0.000000 0.000001 1.685106 0.300336 0.164873
    21 1.537458 0.109715 1.664489 -0.264662 -0.055995 0.783079
    22 0.928313 0.000000 0.000002 0.000000 0.000000 -0.453501
    23 0.928311 0.000000 0.000001 0.000000 0.000000 0.000000
    24 2.686395 -0.427337 0.044204 -0.005762 0.043239 -0.157074
    25 1.435260 0.000000 0.000001 0.000000 0.000000 0.732613
    26 1.482593 0.000000 -0.000001 0.000000 0.000000 1.168644
    27 2.046984 0.000001 0.000000 0.297014 -0.214992 -0.206948
    28 -0.000005 0.000007 3.713254 -0.099098 -3.049190 5.706110
    29 18.045723 0.000000 0.000000 0.000000 0.000000 -0.423610
    30 17.597597 0.000000 0.000000 -0.058646 -0.015639 -0.154514
    31 0.000005 -0.000003 -3.713254 0.807037 2.830563 6.178542
    32 18.045721 0.000000 0.000000 0.000000 0.000000 -0.779967
    33 17.597597 0.000000 0.000000 0.179330 0.128586 0.484523
  time 18
    0 0.293943 0.179844 0.368674 0.000000 0.000000 -1.571017
    1 -2.820403 0.218757 0.000000 -1.570795 -1.570787 0.000000
    2 1.293670 0.684478 -0.000001 -0.000004 -0.000001 0.254575
    3 5.309685 -0.003834 0.000000 0.000068 -0.000431 0.024139
    4 4.826790 -0.004591 0.000000 -0.169018 0.044798 0.161271
    5 5.792767 -0.005304 0.000000 -0.190958 0.037140 0.242326
    6 6.662322 -0.001452 0.000000 0.000000 -0.000001 0.471000
    7 -3.108188 1.516823 4.339626 1.021694 -1.200350 -4.603233
    8 4.827512 0.000000 -0.000002 -0.209261 0.598018 -1.357753
    9 11.140032 0.000000 0.000000 0.000000 0.000000 -0.610827
    10 10.314563 -0.000001 0.000001 -3.960863 0.010866 -0.299941
    11 1.646836 0.445664 -1.699647 -0.161704 0.581044 -0.283978
    12 0.928312 0.000000 0.000000 0.000000 0.000000 0.000000
    13 0.928313 0.000000 -0.000001 0.000000 0.000000 0.000000
    14 2.979373 -0.388274 -0.044205 -0.000805 -0.043611 0.000046
    15 1.435262 -0.000001 -0.000001 0.000000 0.000000 0.706400
    16 1.482593 -0.000001 0.000001 0.000000 0.000000 0.732610
    17 -2.869899 1.399667 -4.140396 0.820358 1.281881 -2.814267
    18 4.972047 0.000000 0.000000 -0.706350 -0.939818 -0.057688
    19 11.585358 0.000000 0.000001 0.000000 0.000000 -1.850275
    20 10.127058 0.000000 0.000001 1.686438 0.299012 0.168525
    21 1.537458 0.109715 1.664489 -0.264662 -0.055995 0.783079
    22 0.928313 0.000000 0.000002 0.000000 0.000000 -0.453501
    23 0.928311 0.000000 0.000001 0.000000 0.000000 0.000000
    24 2.686395 -0.427337 0.044204 -0.005762 0.043239 -0.157074
    25 1.435260 0.000000 0.000001 0.000000 0.000000 0.732613
    26 1.482593 0.000000 -0.000001 0.000000 0.000000 1.168644
    27 2.046984 0.000001 0.000000 0.296669 -0.215228 -0.203967
    28 -0.000005 0.000007 3.713254 -0.099002 -3.049190 5.706110
    29 18.045723 0.000000 0.000000 0.000000 0.000000 -0.423684
    30 17.597597 0.000000 0.000000 -0.058672 -0.015639 -0.154468
    31 0.000005 -0.000003 -3.713254 0.807037 2.830563 6.178638
    32 18.045721 0.000000 0.000000 0.000000 0.000000 -0.779967
    33 17.597597 0.000000 0.000000 0.179297 0.128606 0.484523
  time 19
    0 0.293943 0.179844 0.368674 0.000000 0.000000 -1.571017
    1 -2.820403 0.218757 0.000000 -1.570795 -1.570787 0.000000
    2 1.293670 0.684478 -0.000001 -0.000004 -0.000001 0.254575
    3 5.309685 -0.003834 0.000000 0.000017 -0.000144 0.025235
    4 4.826790 -0.004591 0.000000 -0.168808 0.044535 0.159133
    5 5.792767 -0.005304 0.000000 -0.191012 0.036649 0.239066
    6 6.662322 -0.001452 0.000000 0.000000 -0.000001 0.471000
    7 -3.108188 1.516823 4.339626 1.021694 -1.200350 -4.603233
    8 4.827512 0.000000 -0.000002 -0.211174 0.602281 -1.359486
    9 11.140032 0.000000 0.000000 0.000000 0.000000 -0.606045
    10 10.314563 -0.000001 0.000001 -3.960579 0.010679 -0.303135
    11 1.646836 0.445664 -1.699647 -0.161704 0.581044 -0.283978
    12 0.928312 0.000000 0.000000 0.000000 0.000000 0.000000
    13 0.928313 0.000000 -0.000001 0.000000 0.000000 0.000000
    14 2.979373 -0.388274 -0.044205 -0.000805 -0.043611 0.000046
    15 1.435262 -0.000001 -0.000001 0.000000 0.000000 0.706400
    16 1.482593 -0.000001 0.000001 0.000000 0.000000 0.732610
    17 -2.869899 1.399667 -4.140396 0.815008 1.280383 -2.819727
    18 4.972047 0.000000 0.000000 -0.712260 -0.937086 -0.052030
    19 11.585358 0.000000 0.000001 0.000000 0.000000 -1.850194
    20 10.127058 0.000000 0.000001 1.686719 0.298823 0.169175
    21 1.537458 0.109715 1.664489 -0.264662 -0.055995 0.783079
    22 0.928313 0.000000 0.000002 0.000000 0.000000 -0.453501
    23 0.928311 0.000000 0.000001 0.000000 0.000000 0.000000
    24 2.686395 -0.427337 0.044204 -0.005762 0.043239 -0.157074
    25 1.435260 0.000000 0.000001 0.000000 0.000000 0.732613
    26 1.482593 0.000000 -0.000001 0.000000 0.000000 1.168644
    27 2.046984 0.000001 0.000000 0.296152 -0.215641 -0.199466
    28 -0.000005 0.000007 3.713254 -0.099002 -3.049190 5.706014
    29 18.045723 0.000000 0.000000 0.000000 0.000000 -0.423980
    30 17.597597 0.000000 0.000000 -0.058722 -0.015688 -0.154193
    31 0.000005 -0.000003 -3.713254 0.807037 2.830563 6.178734
    32 18.045721 0.000000 0.000000 0.000000 0.000000 -0.779731
    33 17.597597 0.000000 0.000000 0.179297 0.128665 0.484523
  time 20
    0 0.293943 0.179844 0.368674 0.000000 0.000000 -1.571017
    1 -2.812590 0.218757 0.000000 -1.570795 -1.570787 0.000000
    2 1.293670 0.684478 -0.000001 -0.000004 -0.000001 0.254575
    3 5.309685 -0.003834 0.000000 0.000000 0.000000 0.025712
    4 4.826790 -0.004591 0.000000 -0.168751 0.044391 0.158074
    5 5.792767 -0.005304 0.000000 -0.191030 0.036373 0.237426
    6 6.662322 -0.001452 0.000000 0.000000 -0.000001 0.471000
    7 -3.108188 1.516823 4.339626 1.021694 -1.200350 -4.603233
    8 4.827512 0.000000 -0.000002 -0.212449 0.604754 -1.361045
    9 11.140032 0.000000 0.000000 0.000000 0.000000 -0.604378
    10 10.314563 -0.000001 0.000001 -3.960389 0.010210 -0.303947
    11 1.646836 0.445664 -1.699647 -0.161704 0.581044 -0.283978
    12 0.928312 0.000000 0.000000 0.000000 0.000000 0.000000
    13 0.928313 0.000000 -0.000001 0.000000 0.000000 0.000000
    14 2.979373 -0.388274 -0.044205 -0.000805 -0.043611 0.000046
    15 1.435262 -0.000001 -0.000001 0.000000 0.000000 0.706400
    16 1.482593 -0.000001 0.000001 0.000000 0.000000 0.732610
    17 -2.869899 1.399667 -4.140396 0.820358 1.281881 -2.814267
    18 4.972047 0.000000 0.000000 -0.716762 -0.937970 -0.047571
    19 11.585358 0.000000 0.000001 0.000000 0.000000 -1.850275
    20 10.127058 0.000000 0.000001 1.686438 0.299012 0.168525
    21 1.537458 0.109715 1.664489 -0.264662 -0.055995 0.783079
    22 0.928313 0.000000 0.000002 0.000000 0.000000 -0.453501
    23 0.928311 0.000000 0.000001 0.000000 0.000000 0.000000
    24 2.686395 -0.427337 0.044204 -0.005762 0.043239 -0.157074
    25 1.435260 0.000000 0.000001 0.000000 0.000000 0.732613
    26 1.482593 0.000000 -0.000001 0.000000 0.000000 1.168644
    27 2.046984 0.000001 0.000000 0.295937 -0.215818 -0.197276
    28 -0.000005 0.000007 3.713254 -0.099674 -3.049094 5.706014
    29 18.045723 0.000000 0.000000 0.000000 0.000000 -0.424202
    30 17.597597 0.000000 0.000000 -0.058089 -0.015491 -0.154101
    31 0.000005 -0.000003 -3.713254 0.806749 2.830755 6.178638
    32 18.045721 0.000000 0.000000 0.000000 0.000000 -0.779731
    33 17.597597 0.000000 0.000000 0.179666 0.128665 0.484615
end
