version 1
nodes
  0 "Bip01" -1
  1 "Bip01 Pelvis" 0
  2 "Bip01 Spine" 1
  3 "Bip01 Spine1" 2
  4 "Bip01 Spine2" 3
  5 "Bip01 Spine3" 4
  6 "Bip01 Neck" 5
  7 "Bip01 L Arm" 6
  8 "Bip01 L Arm1" 7
  9 "Bip01 L Arm2" 8
  10 "Bip01 L Hand" 9
  11 "Bip01 L Finger0" 10
  12 "Bip01 L Finger01" 11
  13 "Bip01 L Finger02" 12
  14 "Bip01 L Finger1" 10
  15 "Bip01 L Finger11" 14
  16 "Bip01 L Finger12" 15
  17 "Bip01 R Arm" 6
  18 "Bip01 R Arm1" 17
  19 "Bip01 R Arm2" 18
  20 "Bip01 R Hand" 19
  21 "Bip01 R Finger0" 20
  22 "Bip01 R Finger01" 21
  23 "Bip01 R Finger02" 22
  24 "Bip01 R Finger1" 20
  25 "Bip01 R Finger11" 24
  26 "Bip01 R Finger12" 25
  27 "Bip01 Head" 6
  28 "Bip01 L Leg" 1
  29 "Bip01 L Leg1" 28
  30 "Bip01 L Foot" 29
  31 "Bip01 R Leg" 1
  32 "Bip01 R Leg1" 31
  33 "Bip01 R Foot" 32
end
skeleton
  time 0
    0 -0.288106 2.347879 0.368674 0.000000 0.000000 -1.571017
    1 -2.101631 0.972686 0.000000 -1.570795 -1.570787 0.000000
    2 1.293670 0.684478 -0.000001 0.009985 0.022374 0.077907
    3 5.309685 -0.003834 0.000000 -0.271031 0.001163 0.111769
    4 4.826790 -0.004591 0.000000 -0.335747 0.126318 0.153687
    5 5.792767 -0.005304 0.000000 -0.513622 0.218527 0.090529
    6 6.662322 -0.001452 0.000000 0.000000 -0.000001 0.471000
    7 -3.108188 1.516823 4.339626 -0.425783 -1.216879 -3.211377
    8 4.827512 0.000000 -0.000002 -0.920814 0.511721 -0.250187
    9 11.140032 0.000000 0.000000 0.000000 0.000000 -1.450706
    10 10.314563 -0.000001 0.000001 -1.721678 0.223596 -0.085107
    11 1.646836 0.445664 -1.699647 0.153911 0.442352 0.277231
    12 0.928312 0.000000 0.000000 0.000000 0.000000 0.000000
    13 0.928313 0.000000 -0.000001 0.000000 0.000000 0.000000
    14 2.979373 -0.388274 -0.044205 -0.038161 -0.021140 1.047514
    15 1.435262 -0.000001 -0.000001 0.000000 0.000000 0.924803
    16 1.482593 -0.000001 0.000001 0.000000 0.000000 1.326263
    17 -2.869899 1.399667 -4.140396 2.176146 1.283800 -1.417600
    18 4.972047 0.000000 0.000000 1.920384 -0.739668 -0.254825
    19 11.585358 0.000000 0.000001 0.000000 0.000000 -1.454782
    20 10.127058 0.000000 0.000001 1.920372 0.264118 0.270318
    21 1.537458 0.109715 1.664489 -0.264662 -0.055995 0.783079
    22 0.928313 0.000000 0.000002 0.000000 0.000000 -0.453501
    23 0.928311 0.000000 0.000001 0.000000 0.000000 0.000000
    24 2.686395 -0.427337 0.044204 0.005971 0.043227 0.113528
    25 1.435260 0.000000 0.000001 0.000000 0.000000 1.090194
    26 1.482593 0.000000 -0.000001 0.000000 0.000000 1.168644
    27 2.046984 0.000001 0.000000 0.826072 -0.745051 -0.390042
    28 -0.000005 0.000007 3.713254 -0.109549 -3.092909 5.707069
    29 18.045723 0.000000 0.000000 0.000000 0.000000 -0.398593
    30 17.597597 0.000000 0.000000 -0.073369 0.026321 -0.174182
    31 0.000005 -0.000003 -3.713254 0.501588 2.855393 6.097916
    32 18.045721 0.000000 0.000000 0.000000 0.000000 -0.847035
    33 17.597597 0.000000 0.000000 0.073375 0.147619 0.545537
  time 1
    0 -0.506863 2.652576 0.368674 0.000000 0.000000 -1.571017
    1 -2.101631 0.972686 0.000000 -1.570795 -1.570787 0.000000
    2 1.293670 0.684478 -0.000001 0.010339 0.025239 0.082042
    3 5.309685 -0.003834 0.000000 -0.236775 -0.010570 0.113235
    4 4.826790 -0.004591 0.000000 -0.257408 0.071680 0.183959
    5 5.792767 -0.005304 0.000000 -0.360114 0.122770 0.138885
    6 6.662322 -0.001452 0.000000 0.000000 -0.000001 0.471000
    7 -3.108188 1.516823 4.339626 -0.364150 -1.220221 -3.269539
    8 4.827512 0.000000 -0.000002 -1.069008 0.255047 -0.630063
    9 11.140032 0.000000 0.000000 0.000000 0.000000 -1.241026
    10 10.314563 -0.000001 0.000001 -1.721678 0.223596 -0.085107
    11 1.646836 0.445664 -1.699647 0.153911 0.442352 0.277231
    12 0.928312 0.000000 0.000000 0.000000 0.000000 0.000000
    13 0.928313 0.000000 -0.000001 0.000000 0.000000 0.000000
    14 2.979373 -0.388274 -0.044205 -0.038161 -0.021140 1.047514
    15 1.435262 -0.000001 -0.000001 0.000000 0.000000 0.924803
    16 1.482593 -0.000001 0.000001 0.000000 0.000000 1.326263
    17 -2.869899 1.399667 -4.140396 2.417459 1.286824 -1.175563
    18 4.972047 0.000000 0.000000 2.093818 -0.517662 -0.040649
    19 11.585358 0.000000 0.000001 0.000000 0.000000 -1.187934
    20 10.127058 0.000000 0.000001 1.938183 0.432820 0.294429
    21 1.537458 0.109715 1.664489 -0.264662 -0.055995 0.783079
    22 0.928313 0.000000 0.000002 0.000000 0.000000 -0.453501
    23 0.928311 0.000000 0.000001 0.000000 0.000000 0.000000
    24 2.686395 -0.427337 0.044204 0.005971 0.043227 0.113528
    25 1.435260 0.000000 0.000001 0.000000 0.000000 1.090194
    26 1.482593 0.000000 -0.000001 0.000000 0.000000 1.168644
    27 2.046984 0.000001 0.000000 0.614061 -0.641966 -0.233165
    28 -0.000005 0.000007 3.713254 -0.109261 -3.088882 5.716655
    29 18.045723 0.000000 0.000000 0.000000 0.000000 -0.362252
    30 17.597597 0.000000 0.000000 -0.071418 0.021620 -0.201323
    31 0.000005 -0.000003 -3.713254 0.502259 2.859611 6.084878
    32 18.045721 0.000000 0.000000 0.000000 0.000000 -0.856245
    33 17.597597 0.000000 0.000000 0.072167 0.137087 0.545722
  time 2
    0 -0.952189 3.000243 0.368674 0.000000 0.000000 -1.571017
    1 -2.101631 0.972686 0.000000 -1.570795 -1.570787 0.000000
    2 1.293670 0.684478 -0.000001 0.010911 0.029697 0.088521
    3 5.309685 -0.003834 0.000000 -0.183121 -0.029123 0.114719
    4 4.826790 -0.004591 0.000000 -0.143153 -0.011769 0.221728
    5 5.792767 -0.005304 0.000000 -0.142517 -0.026114 0.181138
    6 6.662322 -0.001452 0.000000 0.000000 -0.000001 0.471000
    7 -3.108188 1.516823 4.339626 -0.213756 -1.214987 -3.412595
    8 4.827512 0.000000 -0.000002 -1.038556 0.030521 -1.081944
    9 11.140032 0.000000 0.000000 0.000000 0.000000 -1.118797
    10 10.314563 -0.000001 0.000001 -1.721678 0.223596 -0.085107
    11 1.646836 0.445664 -1.699647 0.153911 0.442352 0.277231
    12 0.928312 0.000000 0.000000 0.000000 0.000000 0.000000
    13 0.928313 0.000000 -0.000001 0.000000 0.000000 0.000000
    14 2.979373 -0.388274 -0.044205 -0.038161 -0.021140 1.047514
    15 1.435262 -0.000001 -0.000001 0.000000 0.000000 0.924803
    16 1.482593 -0.000001 0.000001 0.000000 0.000000 1.326263
    17 -2.869899 1.399667 -4.140396 2.740452 1.270866 -0.856807
    18 4.972047 0.000000 0.000000 2.030035 -0.155447 0.390230
    19 11.585358 0.000000 0.000001 0.000000 0.000000 -1.021552
    20 10.127058 0.000000 0.000001 1.965742 0.648994 0.324642
    21 1.537458 0.109715 1.664489 -0.264662 -0.055995 0.783079
    22 0.928313 0.000000 0.000002 0.000000 0.000000 -0.453501
    23 0.928311 0.000000 0.000001 0.000000 0.000000 0.000000
    24 2.686395 -0.427337 0.044204 0.005971 0.043227 0.113528
    25 1.435260 0.000000 0.000001 0.000000 0.000000 1.090194
    26 1.482593 0.000000 -0.000001 0.000000 0.000000 1.168644
    27 2.046984 0.000001 0.000000 0.378268 -0.442493 -0.056457
    28 -0.000005 0.000007 3.713254 -0.108206 -3.079103 5.732088
    29 18.045723 0.000000 0.000000 0.000000 0.000000 -0.312144
    30 17.597597 0.000000 0.000000 -0.066932 0.011014 -0.237084
    31 0.000005 -0.000003 -3.713254 0.505421 2.870061 6.070689
    32 18.045721 0.000000 0.000000 0.000000 0.000000 -0.867423
    33 17.597597 0.000000 0.000000 0.070254 0.119888 0.549648
  time 3
    0 -1.420953 3.168216 0.368674 0.000000 0.000000 -1.571017
    1 -2.101631 0.972686 0.000000 -1.570795 -1.570787 0.000000
    2 1.293670 0.684478 -0.000001 0.011720 0.035090 0.096389
    3 5.309685 -0.003834 0.000000 -0.118098 -0.051630 0.115178
    4 4.826790 -0.004591 0.000000 -0.024968 -0.084384 0.252948
    5 5.792767 -0.005304 0.000000 0.047973 -0.142713 0.186848
    6 6.662322 -0.001452 0.000000 0.000000 -0.000001 0.471000
    7 -3.108188 1.516823 4.339626 0.066998 -1.165991 -3.674946
    8 4.827512 0.000000 -0.000002 -0.747031 0.091066 -1.166429
    9 11.140032 0.000000 0.000000 0.000000 0.000000 -1.513813
    10 10.314563 -0.000001 0.000001 -1.721678 0.223596 -0.085107
    11 1.646836 0.445664 -1.699647 0.153911 0.442352 0.277231
    12 0.928312 0.000000 0.000000 0.000000 0.000000 0.000000
    13 0.928313 0.000000 -0.000001 0.000000 0.000000 0.000000
    14 2.979373 -0.388274 -0.044205 -0.038161 -0.021140 1.047514
    15 1.435262 -0.000001 -0.000001 0.000000 0.000000 0.924803
    16 1.482593 -0.000001 0.000001 0.000000 0.000000 1.326263
    17 -2.869899 1.399667 -4.140396 3.012240 1.266712 -0.595327
    18 4.972047 0.000000 0.000000 1.656904 0.056756 0.374390
    19 11.585358 0.000000 0.000001 0.000000 0.000000 -1.556718
    20 10.127058 0.000000 0.000001 1.950034 0.744598 0.287326
    21 1.537458 0.109715 1.664489 -0.264662 -0.055995 0.783079
    22 0.928313 0.000000 0.000002 0.000000 0.000000 -0.453501
    23 0.928311 0.000000 0.000001 0.000000 0.000000 0.000000
    24 2.686395 -0.427337 0.044204 0.005971 0.043227 0.113528
    25 1.435260 0.000000 0.000001 0.000000 0.000000 1.090194
    26 1.482593 0.000000 -0.000001 0.000000 0.000000 1.168644
    27 2.046984 0.000001 0.000000 0.211408 -0.228652 0.064592
    28 -0.000005 0.000007 3.713254 -0.107439 -3.067982 5.744166
    29 18.045723 0.000000 0.000000 0.000000 0.000000 -0.278541
    30 17.597597 0.000000 0.000000 -0.062017 -0.000356 -0.259916
    31 0.000005 -0.000003 -3.713254 0.509926 2.881948 6.064266
    32 18.045721 0.000000 0.000000 0.000000 0.000000 -0.873563
    33 17.597597 0.000000 0.000000 0.068510 0.105293 0.555884
  time 4
    0 -1.725650 3.215093 0.368674 0.000000 0.000000 -1.571017
    1 -2.101631 0.972686 0.000000 -1.570795 -1.570787 0.000000
    2 1.293670 0.684478 -0.000001 0.012950 0.043239 0.108359
    3 5.309685 -0.003834 0.000000 -0.019178 -0.085762 0.113094
    4 4.826790 -0.004591 0.000000 0.114141 -0.120325 0.282537
    5 5.792767 -0.005304 0.000000 0.169750 -0.148154 0.162410
    6 6.662322 -0.001452 0.000000 0.000000 -0.000001 0.471000
    7 -3.108188 1.516823 4.339626 0.264263 -1.102920 -3.850293
    8 4.827512 0.000000 -0.000002 -0.484763 0.188704 -1.131942
    9 11.140032 0.000000 0.000000 0.000000 0.000000 -1.954764
    10 10.314563 -0.000001 0.000001 -1.721678 0.223596 -0.085107
    11 1.646836 0.445664 -1.699647 0.153911 0.442352 0.277231
    12 0.928312 0.000000 0.000000 0.000000 0.000000 0.000000
    13 0.928313 0.000000 -0.000001 0.000000 0.000000 0.000000
    14 2.979373 -0.388274 -0.044205 -0.038161 -0.021140 1.047514
    15 1.435262 -0.000001 -0.000001 0.000000 0.000000 0.924803
    16 1.482593 -0.000001 0.000001 0.000000 0.000000 1.326263
    17 -2.869899 1.399667 -4.140396 3.333227 1.328310 -0.285669
    18 4.972047 0.000000 0.000000 0.999564 0.335087 0.005274
    19 11.585358 0.000000 0.000001 0.000000 0.000000 -1.697207
    20 10.127058 0.000000 0.000001 1.846601 0.547337 0.109249
    21 1.537458 0.109715 1.664489 -0.264662 -0.055995 0.783079
    22 0.928313 0.000000 0.000002 0.000000 0.000000 -0.453501
    23 0.928311 0.000000 0.000001 0.000000 0.000000 0.000000
    24 2.686395 -0.427337 0.044204 0.005971 0.043227 0.113528
    25 1.435260 0.000000 0.000001 0.000000 0.000000 1.090194
    26 1.482593 0.000000 -0.000001 0.000000 0.000000 1.168644
    27 2.046984 0.000001 0.000000 0.026798 -0.012362 0.134545
    28 -0.000005 0.000007 3.713254 -0.106864 -3.060408 5.750589
    29 18.045723 0.000000 0.000000 0.000000 0.000000 -0.262554
    30 17.597597 0.000000 0.000000 -0.058672 -0.008034 -0.270369
    31 0.000005 -0.000003 -3.713254 0.513376 2.890097 6.062636
    32 18.045721 0.000000 0.000000 0.000000 0.000000 -0.875846
    33 17.597597 0.000000 0.000000 0.067302 0.096555 0.560687
  time 5
    0 -1.874092 3.265876 0.368674 0.000000 0.000000 -1.571017
    1 -2.101631 0.972686 0.000000 -1.570795 -1.570787 0.000000
    2 1.293670 0.684478 -0.000001 0.014146 0.050526 0.119057
    3 5.309685 -0.003834 0.000000 0.069430 -0.115927 0.108360
    4 4.826790 -0.004591 0.000000 0.224295 -0.132765 0.314573
    5 5.792767 -0.005304 0.000000 0.234056 -0.108568 0.154811
    6 6.662322 -0.001452 0.000000 0.000000 -0.000001 0.471000
    7 -3.108188 1.516823 4.339626 0.291485 -1.090383 -3.873481
    8 4.827512 0.000000 -0.000002 -0.472327 0.234837 -1.288346
    9 11.140032 0.000000 0.000000 0.000000 0.000000 -2.042433
    10 10.314563 -0.000001 0.000001 -1.727270 0.219755 -0.110422
    11 1.646836 0.445664 -1.699647 0.153911 0.442352 0.277231
    12 0.928312 0.000000 0.000000 0.000000 0.000000 0.000000
    13 0.928313 0.000000 -0.000001 0.000000 0.000000 0.000000
    14 2.979373 -0.388274 -0.044205 -0.038161 -0.021140 1.047514
    15 1.435262 -0.000001 -0.000001 0.000000 0.000000 0.924803
    16 1.482593 -0.000001 0.000001 0.000000 0.000000 1.326263
    17 -2.869899 1.399667 -4.140396 3.833050 1.367273 0.209419
    18 4.972047 0.000000 0.000000 0.347758 0.217536 0.123343
    19 11.585358 0.000000 0.000001 0.000000 0.000000 -2.300250
    20 10.127058 0.000000 0.000001 1.792396 0.282274 -0.043217
    21 1.537458 0.109715 1.664489 -0.264662 -0.055995 0.783079
    22 0.928313 0.000000 0.000002 0.000000 0.000000 -0.453501
    23 0.928311 0.000000 0.000001 0.000000 0.000000 0.000000
    24 2.686395 -0.427337 0.044204 0.005971 0.043227 0.113528
    25 1.435260 0.000000 0.000001 0.000000 0.000000 1.090194
    26 1.482593 0.000000 -0.000001 0.000000 0.000000 1.168644
    27 2.046984 0.000001 0.000000 -0.174960 0.200830 0.050054
    28 -0.000005 0.000007 3.713254 -0.106864 -3.056956 5.755669
    29 18.045723 0.000000 0.000000 0.000000 0.000000 -0.249675
    30 17.597597 0.000000 0.000000 -0.057075 -0.011652 -0.278576
    31 0.000005 -0.000003 -3.713254 0.515101 2.894027 6.061006
    32 18.045721 0.000000 0.000000 0.000000 0.000000 -0.877263
    33 17.597597 0.000000 0.000000 0.066664 0.091940 0.562627
  time 6
    0 -1.819403 3.394786 0.368674 0.000000 0.000000 -1.571017
    1 -2.101631 0.972686 0.000000 -1.570795 -1.570787 0.000000
    2 1.293670 0.684478 -0.000001 0.014449 0.052228 0.121518
    3 5.309685 -0.003834 0.000000 0.082618 -0.122219 0.107265
    4 4.826790 -0.004591 0.000000 0.225669 -0.122039 0.352584
    5 5.792767 -0.005304 0.000000 0.234650 -0.092929 0.210268
    6 6.662322 -0.001452 0.000000 0.000000 -0.000001 0.471000
    7 -3.108188 1.516823 4.339626 0.276628 -1.124742 -3.863995
    8 4.827512 0.000000 -0.000002 -0.529962 0.140098 -1.438511
    9 11.140032 0.000000 0.000000 0.000000 0.000000 -1.991788
    10 10.314563 -0.000001 0.000001 -1.721678 0.223596 -0.085107
    11 1.646836 0.445664 -1.699647 0.153911 0.442352 0.277231
    12 0.928312 0.000000 0.000000 0.000000 0.000000 0.000000
    13 0.928313 0.000000 -0.000001 0.000000 0.000000 0.000000
    14 2.979373 -0.388274 -0.044205 -0.038161 -0.021140 1.047514
    15 1.435262 -0.000001 -0.000001 0.000000 0.000000 0.924803
    16 1.482593 -0.000001 0.000001 0.000000 0.000000 1.326263
    17 -2.869899 1.399667 -4.140396 -1.940416 1.354653 -5.561723
    18 4.972047 0.000000 0.000000 0.134272 0.313553 0.055789
    19 11.585358 0.000000 0.000001 0.000000 0.000000 -2.360366
    20 10.127058 0.000000 0.000001 1.793938 0.026951 -0.162468
    21 1.537458 0.109715 1.664489 -0.264662 -0.055995 0.783079
    22 0.928313 0.000000 0.000002 0.000000 0.000000 -0.453501
    23 0.928311 0.000000 0.000001 0.000000 0.000000 0.000000
    24 2.686395 -0.427337 0.044204 0.005971 0.043227 0.113528
    25 1.435260 0.000000 0.000001 0.000000 0.000000 1.090194
    26 1.482593 0.000000 -0.000001 0.000000 0.000000 1.168644
    27 2.046984 0.000001 0.000000 -0.284563 0.267626 -0.176716
    28 -0.000005 0.000007 3.713254 -0.107919 -3.059641 5.763626
    29 18.045723 0.000000 0.000000 0.000000 0.000000 -0.226583
    30 17.597597 0.000000 0.000000 -0.057658 -0.009880 -0.293522
    31 0.000005 -0.000003 -3.713254 0.513951 2.892110 6.055638
    32 18.045721 0.000000 0.000000 0.000000 0.000000 -0.879703
    33 17.597597 0.000000 0.000000 0.066832 0.091033 0.559579
  time 7
    0 -1.620178 3.511977 0.368674 0.000000 0.000000 -1.571017
    1 -2.101631 0.972686 0.000000 -1.570795 -1.570787 0.000000
    2 1.293670 0.684478 -0.000001 0.014146 0.050526 0.119057
    3 5.309685 -0.003834 0.000000 0.069430 -0.115927 0.108360
    4 4.826790 -0.004591 0.000000 0.186509 -0.093276 0.384642
    5 5.792767 -0.005304 0.000000 0.191785 -0.067533 0.261220
    6 6.662322 -0.001452 0.000000 0.000000 -0.000001 0.471000
    7 -3.108188 1.516823 4.339626 0.285638 -1.194081 -3.879997
    8 4.827512 0.000000 -0.000002 -0.460927 0.018668 -1.545611
    9 11.140032 0.000000 0.000000 0.000000 0.000000 -1.922740
    10 10.314563 -0.000001 0.000001 -1.695046 0.239426 0.030846
    11 1.646836 0.445664 -1.699647 0.153911 0.442352 0.277231
    12 0.928312 0.000000 0.000000 0.000000 0.000000 0.000000
    13 0.928313 0.000000 -0.000001 0.000000 0.000000 0.000000
    14 2.979373 -0.388274 -0.044205 -0.038161 -0.021140 1.047514
    15 1.435262 -0.000001 -0.000001 0.000000 0.000000 0.924803
    16 1.482593 -0.000001 0.000001 0.000000 0.000000 1.326263
    17 -2.869899 1.399667 -4.140396 -1.644172 1.361068 -5.259249
    18 4.972047 0.000000 0.000000 0.152188 -0.076463 -0.018686
    19 11.585358 0.000000 0.000001 0.000000 0.000000 -2.347951
    20 10.127058 0.000000 0.000001 1.888816 -0.135038 -0.213890
    21 1.537458 0.109715 1.664489 -0.264662 -0.055995 0.783079
    22 0.928313 0.000000 0.000002 0.000000 0.000000 -0.453501
    23 0.928311 0.000000 0.000001 0.000000 0.000000 0.000000
    24 2.686395 -0.427337 0.044204 0.005971 0.043227 0.113528
    25 1.435260 0.000000 0.000001 0.000000 0.000000 1.090194
    26 1.482593 0.000000 -0.000001 0.000000 0.000000 1.168644
    27 2.046984 0.000001 0.000000 -0.310886 0.260545 -0.379944
    28 -0.000005 0.000007 3.713254 -0.108973 -3.066256 5.769090
    29 18.045723 0.000000 0.000000 0.000000 0.000000 -0.209189
    30 17.597597 0.000000 0.000000 -0.059989 -0.004343 -0.304708
    31 0.000005 -0.000003 -3.713254 0.510980 2.886070 6.050556
    32 18.045721 0.000000 0.000000 0.000000 0.000000 -0.881356
    33 17.597597 0.000000 0.000000 0.067537 0.094267 0.554036
  time 8
    0 -1.323294 3.519790 0.368674 0.000000 0.000000 -1.571017
    1 -2.101631 0.972686 0.000000 -1.570795 -1.570787 0.000000
    2 1.293670 0.684478 -0.000001 0.013388 0.045852 0.112226
    3 5.309685 -0.003834 0.000000 0.061857 -0.100707 0.109737
    4 4.826790 -0.004591 0.000000 0.162552 -0.053295 0.405809
    5 5.792767 -0.005304 0.000000 0.118197 -0.012620 0.233398
    6 6.662322 -0.001452 0.000000 0.000000 -0.000001 0.471000
    7 -3.108188 1.516823 4.339626 0.301838 -1.274894 -3.902897
    8 4.827512 0.000000 -0.000002 -0.362716 -0.017061 -1.617444
    9 11.140032 0.000000 0.000000 0.000000 0.000000 -1.836448
    10 10.314563 -0.000001 0.000001 -1.660832 0.254133 0.170662
    11 1.646836 0.445664 -1.699647 0.153911 0.442352 0.277231
    12 0.928312 0.000000 0.000000 0.000000 0.000000 0.000000
    13 0.928313 0.000000 -0.000001 0.000000 0.000000 0.000000
    14 2.979373 -0.388274 -0.044205 -0.038161 -0.021140 1.047514
    15 1.435262 -0.000001 -0.000001 0.000000 0.000000 0.924803
    16 1.482593 -0.000001 0.000001 0.000000 0.000000 1.326263
    17 -2.869899 1.399667 -4.140396 -1.344107 1.380497 -4.953327
    18 4.972047 0.000000 0.000000 0.275251 -0.535018 -0.049035
    19 11.585358 0.000000 0.000001 0.000000 0.000000 -2.356609
    20 10.127058 0.000000 0.000001 2.025978 -0.257876 -0.248405
    21 1.537458 0.109715 1.664489 -0.264662 -0.055995 0.783079
    22 0.928313 0.000000 0.000002 0.000000 0.000000 -0.453501
    23 0.928311 0.000000 0.000001 0.000000 0.000000 0.000000
    24 2.686395 -0.427337 0.044204 0.005971 0.043227 0.113528
    25 1.435260 0.000000 0.000001 0.000000 0.000000 1.090194
    26 1.482593 0.000000 -0.000001 0.000000 0.000000 1.168644
    27 2.046984 0.000001 0.000000 -0.282279 0.214225 -0.433717
    28 -0.000005 0.000007 3.713254 -0.109549 -3.074309 5.764680
    29 18.045723 0.000000 0.000000 0.000000 0.000000 -0.218219
    30 17.597597 0.000000 0.000000 -0.063385 0.003458 -0.299161
    31 0.000005 -0.000003 -3.713254 0.507338 2.877826 6.050173
    32 18.045721 0.000000 0.000000 0.000000 0.000000 -0.880018
    33 17.597597 0.000000 0.000000 0.068610 0.102078 0.548447
  time 9
    0 -0.983440 3.383067 0.368674 0.000000 0.000000 -1.571017
    1 -2.101631 0.972686 0.000000 -1.570795 -1.570787 0.000000
    2 1.293670 0.684478 -0.000001 0.012293 0.039105 0.102282
    3 5.309685 -0.003834 0.000000 0.047086 -0.078403 0.111663
    4 4.826790 -0.004591 0.000000 0.106912 -0.012368 0.393351
    5 5.792767 -0.005304 0.000000 0.020830 0.030537 0.190170
    6 6.662322 -0.001452 0.000000 0.000000 -0.000001 0.471000
    7 -3.108188 1.516823 4.339626 0.335003 -1.362182 -3.941704
    8 4.827512 0.000000 -0.000002 -0.242024 -0.008705 -1.635121
    9 11.140032 0.000000 0.000000 0.000000 0.000000 -1.740375
    10 10.314563 -0.000001 0.000001 -1.621216 0.264811 0.324646
    11 1.646836 0.445664 -1.699647 0.153911 0.442352 0.277231
    12 0.928312 0.000000 0.000000 0.000000 0.000000 0.000000
    13 0.928313 0.000000 -0.000001 0.000000 0.000000 0.000000
    14 2.979373 -0.388274 -0.044205 -0.038161 -0.021140 1.047514
    15 1.435262 -0.000001 -0.000001 0.000000 0.000000 0.924803
    16 1.482593 -0.000001 0.000001 0.000000 0.000000 1.326263
    17 -2.869899 1.399667 -4.140396 -1.000479 1.384466 -4.605836
    18 4.972047 0.000000 0.000000 0.252552 -0.526420 -0.222279
    19 11.585358 0.000000 0.000001 0.000000 0.000000 -2.122351
    20 10.127058 0.000000 0.000001 2.177236 -0.369746 -0.296276
    21 1.537458 0.109715 1.664489 -0.264662 -0.055995 0.783079
    22 0.928313 0.000000 0.000002 0.000000 0.000000 -0.453501
    23 0.928311 0.000000 0.000001 0.000000 0.000000 0.000000
    24 2.686395 -0.427337 0.044204 0.005971 0.043227 0.113528
    25 1.435260 0.000000 0.000001 0.000000 0.000000 1.090194
    26 1.482593 0.000000 -0.000001 0.000000 0.000000 1.168644
    27 2.046984 0.000001 0.000000 -0.151609 0.115034 -0.357864
    28 -0.000005 0.000007 3.713254 -0.109644 -3.081883 5.751835
    29 18.045723 0.000000 0.000000 0.000000 0.000000 -0.251452
    30 17.597597 0.000000 0.000000 -0.067059 0.011703 -0.277934
    31 0.000005 -0.000003 -3.713254 0.503888 2.869102 6.055158
    32 18.045721 0.000000 0.000000 0.000000 0.000000 -0.875295
    33 17.597597 0.000000 0.000000 0.069818 0.113024 0.544013
  time 10
    0 -0.721713 3.054932 0.368674 0.000000 0.000000 -1.571017
    1 -2.101631 0.972686 0.000000 -1.570795 -1.570787 0.000000
    2 1.293670 0.684478 -0.000001 0.011130 0.031063 0.090563
    3 5.309685 -0.003834 0.000000 0.020574 -0.051198 0.113659
    4 4.826790 -0.004591 0.000000 -0.027334 0.005765 0.307187
    5 5.792767 -0.005304 0.000000 -0.083787 0.024556 0.189547
    6 6.662322 -0.001452 0.000000 0.000000 -0.000001 0.471000
    7 -3.108188 1.516823 4.339626 0.421750 -1.450505 -4.032348
    8 4.827512 0.000000 -0.000002 -0.079960 0.052863 -1.567620
    9 11.140032 0.000000 0.000000 0.000000 0.000000 -1.641838
    10 10.314563 -0.000001 0.000001 -1.579514 0.269495 0.482578
    11 1.646836 0.445664 -1.699647 0.153911 0.442352 0.277231
    12 0.928312 0.000000 0.000000 0.000000 0.000000 0.000000
    13 0.928313 0.000000 -0.000001 0.000000 0.000000 0.000000
    14 2.979373 -0.388274 -0.044205 -0.038161 -0.021140 1.047514
    15 1.435262 -0.000001 -0.000001 0.000000 0.000000 0.924803
    16 1.482593 -0.000001 0.000001 0.000000 0.000000 1.326263
    17 -2.869899 1.399667 -4.140396 -0.677008 1.367325 -4.280279
    18 4.972047 0.000000 0.000000 0.206028 -0.491790 -0.610297
    19 11.585358 0.000000 0.000001 0.000000 0.000000 -1.641747
    20 10.127058 0.000000 0.000001 2.342518 -0.472348 -0.363755
    21 1.537458 0.109715 1.664489 -0.264662 -0.055995 0.783079
    22 0.928313 0.000000 0.000002 0.000000 0.000000 -0.453501
    23 0.928311 0.000000 0.000001 0.000000 0.000000 0.000000
    24 2.686395 -0.427337 0.044204 0.005971 0.043227 0.113528
    25 1.435260 0.000000 0.000001 0.000000 0.000000 1.090194
    26 1.482593 0.000000 -0.000001 0.000000 0.000000 1.168644
    27 2.046984 0.000001 0.000000 0.082978 -0.007789 -0.232374
    28 -0.000005 0.000007 3.713254 -0.109357 -3.085814 5.732567
    29 18.045723 0.000000 0.000000 0.000000 0.000000 -0.308369
    30 17.597597 0.000000 0.000000 -0.069517 0.017264 -0.239697
    31 0.000005 -0.000003 -3.713254 0.502546 2.863637 6.068580
    32 18.045721 0.000000 0.000000 0.000000 0.000000 -0.866872
    33 17.597597 0.000000 0.000000 0.070959 0.125095 0.544244
  time 11
    0 -0.542020 2.621325 0.368674 0.000000 0.000000 -1.571017
    1 -2.101631 0.972686 0.000000 -1.570795 -1.570787 0.000000
    2 1.293670 0.684478 -0.000001 0.009985 0.022374 0.077907
    3 5.309685 -0.003834 0.000000 -0.010261 -0.021536 0.114984
    4 4.826790 -0.004591 0.000000 -0.188970 0.001378 0.195181
    5 5.792767 -0.005304 0.000000 -0.193458 0.005034 0.202067
    6 6.662322 -0.001452 0.000000 0.000000 -0.000001 0.471000
    7 -3.108188 1.516823 4.339626 0.881461 -1.530697 -4.494575
    8 4.827512 0.000000 -0.000002 0.063371 0.169688 -1.471265
    9 11.140032 0.000000 0.000000 0.000000 0.000000 -1.548228
    10 10.314563 -0.000001 0.000001 -1.539424 0.267903 0.634066
    11 1.646836 0.445664 -1.699647 0.153911 0.442352 0.277231
    12 0.928312 0.000000 0.000000 0.000000 0.000000 0.000000
    13 0.928313 0.000000 -0.000001 0.000000 0.000000 0.000000
    14 2.979373 -0.388274 -0.044205 -0.038161 -0.021140 1.047514
    15 1.435262 -0.000001 -0.000001 0.000000 0.000000 0.924803
    16 1.482593 -0.000001 0.000001 0.000000 0.000000 1.326263
    17 -2.869899 1.399667 -4.140396 -0.677008 1.367325 -4.280279
    18 4.972047 0.000000 0.000000 0.056138 -0.552052 -0.843973
    19 11.585358 0.000000 0.000001 0.000000 0.000000 -1.622634
    20 10.127058 0.000000 0.000001 2.342518 -0.472348 -0.363755
    21 1.537458 0.109715 1.664489 -0.264662 -0.055995 0.783079
    22 0.928313 0.000000 0.000002 0.000000 0.000000 -0.453501
    23 0.928311 0.000000 0.000001 0.000000 0.000000 0.000000
    24 2.686395 -0.427337 0.044204 0.005971 0.043227 0.113528
    25 1.435260 0.000000 0.000001 0.000000 0.000000 1.090194
    26 1.482593 0.000000 -0.000001 0.000000 0.000000 1.168644
    27 2.046984 0.000001 0.000000 0.340743 -0.168996 -0.143929
    28 -0.000005 0.000007 3.713254 -0.108877 -3.087540 5.715792
    29 18.045723 0.000000 0.000000 0.000000 0.000000 -0.365730
    30 17.597597 0.000000 0.000000 -0.070987 0.020464 -0.198756
    31 0.000005 -0.000003 -3.713254 0.502834 2.860857 6.086220
    32 18.045721 0.000000 0.000000 0.000000 0.000000 -0.856009
    33 17.597597 0.000000 0.000000 0.072066 0.136594 0.547062
end
