version 1
nodes
  0 "Bip01" -1
  1 "Bip01 Pelvis" 0
  2 "Bip01 Spine" 1
  3 "Bip01 Spine1" 2
  4 "Bip01 Spine2" 3
  5 "Bip01 Spine3" 4
  6 "Bip01 Neck" 5
  7 "Bip01 L Arm" 6
  8 "Bip01 L Arm1" 7
  9 "Bip01 L Arm2" 8
  10 "Bip01 L Hand" 9
  11 "Bip01 L Finger0" 10
  12 "Bip01 L Finger01" 11
  13 "Bip01 L Finger02" 12
  14 "Bip01 L Finger1" 10
  15 "Bip01 L Finger11" 14
  16 "Bip01 L Finger12" 15
  17 "Bip01 R Arm" 6
  18 "Bip01 R Arm1" 17
  19 "Bip01 R Arm2" 18
  20 "Bip01 R Hand" 19
  21 "Bip01 R Finger0" 20
  22 "Bip01 R Finger01" 21
  23 "Bip01 R Finger02" 22
  24 "Bip01 R Finger1" 20
  25 "Bip01 R Finger11" 24
  26 "Bip01 R Finger12" 25
  27 "Bip01 Head" 6
  28 "Bip01 L Leg" 1
  29 "Bip01 L Leg1" 28
  30 "Bip01 L Foot" 29
  31 "Bip01 R Leg" 1
  32 "Bip01 R Leg1" 31
  33 "Bip01 R Foot" 32
end
skeleton
  time 0
    0 0.125969 2.758048 0.239764 0.000000 0.000000 -1.571017
    1 0.687517 0.070315 0.000000 -1.570795 -1.570787 0.000000
    2 1.293670 0.684478 -0.000001 -0.001571 -0.078812 -0.060206
    3 5.309685 -0.003834 0.000000 -0.200206 0.051869 0.050441
    4 4.826790 -0.004591 0.000000 -0.161121 0.120913 0.007595
    5 5.792767 -0.005304 0.000000 -0.110912 0.103247 0.069559
    6 6.662322 -0.001452 0.000000 -0.112955 0.218447 0.161094
    7 -4.276192 0.102717 3.534914 -3.831442 -1.451067 -5.800770
    8 4.827512 0.000000 -0.000002 -1.456831 -0.251138 -1.069987
    9 11.140032 0.000000 0.000000 0.000000 0.000000 -1.134375
    10 10.314563 -0.000001 0.000001 -3.147398 0.809234 0.988949
    11 1.646836 0.445664 -1.699647 0.993049 1.047208 -0.378175
    12 0.928312 0.000000 0.000000 0.000000 0.000000 1.029733
    13 0.928313 0.000000 -0.000001 0.000000 0.000000 0.410081
    14 2.979373 -0.388274 -0.044205 -0.287441 -0.079085 0.688066
    15 1.435262 -0.000001 -0.000001 0.000000 0.000000 1.378619
    16 1.482593 -0.000001 0.000001 0.000000 0.000000 0.495031
    17 -2.198004 0.989498 -4.644318 -1.808774 1.393563 -5.108587
    18 4.972047 0.000000 0.000000 0.813374 -0.264561 -1.887095
    19 11.585358 0.000000 0.000001 0.000000 0.000000 -1.928933
    20 10.127058 0.000000 0.000001 1.722622 0.388375 0.950562
    21 1.537458 0.109715 1.664489 -3.078535 -0.186288 0.914916
    22 0.928313 0.000000 0.000002 0.000000 0.000000 0.061034
    23 0.928311 0.000000 0.000001 0.000000 0.000000 0.671897
    24 2.686395 -0.427337 0.044204 0.006330 0.043192 0.122300
    25 1.435260 0.000000 0.000001 0.000000 0.000000 1.186618
    26 1.482593 0.000000 -0.000001 0.000000 0.000000 1.404984
    27 2.046984 0.000001 0.000000 0.781309 0.354189 -0.143807
    28 -0.000005 0.000007 3.713254 -0.353068 -2.880834 5.736881
    29 18.045723 0.000000 0.000000 0.000000 0.000000 -0.524122
    30 17.597597 0.000000 0.000000 -0.289490 -0.019576 -0.070155
    31 0.000005 -0.000003 -3.713254 0.803874 2.821073 6.123034
    32 18.045721 0.000000 0.000000 0.000000 0.000000 -0.810195
    33 17.597597 0.000000 0.000000 -0.277843 0.095865 0.473022
  time 1
    0 0.125969 2.758048 0.239764 0.000000 0.000000 -1.571017
    1 0.718768 0.058596 0.000000 -1.570795 -1.570787 0.000000
    2 1.293670 0.684478 -0.000001 -0.001571 -0.078812 -0.060206
    3 5.309685 -0.003834 0.000000 -0.200563 0.053535 0.056058
    4 4.826790 -0.004591 0.000000 -0.159576 0.119211 -0.006781
    5 5.792767 -0.005304 0.000000 -0.110714 0.100179 0.052409
    6 6.662322 -0.001452 0.000000 -0.112955 0.218447 0.161094
    7 -4.276192 0.102717 3.534914 -3.831442 -1.451067 -5.800770
    8 4.827512 0.000000 -0.000002 -1.448939 -0.228796 -1.085410
    9 11.140032 0.000000 0.000000 0.000000 0.000000 -1.122347
    10 10.314563 -0.000001 0.000001 -3.148820 0.806612 0.976117
    11 1.646836 0.445664 -1.699647 0.993049 1.047208 -0.378175
    12 0.928312 0.000000 0.000000 0.000000 0.000000 1.029733
    13 0.928313 0.000000 -0.000001 0.000000 0.000000 0.410081
    14 2.979373 -0.388274 -0.044205 -0.287441 -0.079085 0.688066
    15 1.435262 -0.000001 -0.000001 0.000000 0.000000 1.378619
    16 1.482593 -0.000001 0.000001 0.000000 0.000000 0.495031
    17 -2.198004 0.989498 -4.644318 -1.800080 1.393957 -5.099584
    18 4.972047 0.000000 0.000000 0.820596 -0.287461 -1.880572
    19 11.585358 0.000000 0.000001 0.000000 0.000000 -1.928933
    20 10.127058 0.000000 0.000001 1.722622 0.388186 0.950962
    21 1.537458 0.109715 1.664489 -3.078535 -0.186288 0.914916
    22 0.928313 0.000000 0.000002 0.000000 0.000000 0.061034
    23 0.928311 0.000000 0.000001 0.000000 0.000000 0.671897
    24 2.686395 -0.427337 0.044204 0.006330 0.043192 0.122300
    25 1.435260 0.000000 0.000001 0.000000 0.000000 1.186618
    26 1.482593 0.000000 -0.000001 0.000000 0.000000 1.404984
    27 2.046984 0.000001 0.000000 0.770926 0.351121 -0.123551
    28 -0.000005 0.000007 3.713254 -0.352780 -2.880163 5.737073
    29 18.045723 0.000000 0.000000 0.000000 0.000000 -0.525380
    30 17.597597 0.000000 0.000000 -0.289211 -0.020265 -0.069009
    31 0.000005 -0.000003 -3.713254 0.804162 2.821648 6.124088
    32 18.045721 0.000000 0.000000 0.000000 0.000000 -0.809880
    33 17.597597 0.000000 0.000000 -0.277809 0.096200 0.473715
  time 2
    0 0.125969 2.758048 0.239764 0.000000 0.000000 -1.571017
    1 0.750019 0.039064 0.000000 -1.570795 -1.570787 0.000000
    2 1.293670 0.684478 -0.000001 -0.001571 -0.078812 -0.060206
    3 5.309685 -0.003834 0.000000 -0.200937 0.055345 0.062099
    4 4.826790 -0.004591 0.000000 -0.157859 0.117377 -0.022148
    5 5.792767 -0.005304 0.000000 -0.110499 0.096955 0.034719
    6 6.662322 -0.001452 0.000000 -0.112955 0.218447 0.161094
    7 -4.276192 0.102717 3.534914 -3.831442 -1.451067 -5.800770
    8 4.827512 0.000000 -0.000002 -1.441127 -0.205516 -1.101614
    9 11.140032 0.000000 0.000000 0.000000 0.000000 -1.107784
    10 10.314563 -0.000001 0.000001 -3.150431 0.803895 0.961485
    11 1.646836 0.445664 -1.699647 0.993049 1.047208 -0.378175
    12 0.928312 0.000000 0.000000 0.000000 0.000000 1.029733
    13 0.928313 0.000000 -0.000001 0.000000 0.000000 0.410081
    14 2.979373 -0.388274 -0.044205 -0.287441 -0.079085 0.688066
    15 1.435262 -0.000001 -0.000001 0.000000 0.000000 1.378619
    16 1.482593 -0.000001 0.000001 0.000000 0.000000 0.495031
    17 -2.198004 0.989498 -4.644318 -1.808774 1.393563 -5.108587
    18 4.972047 0.000000 0.000000 0.831008 -0.311726 -1.874250
    19 11.585358 0.000000 0.000001 0.000000 0.000000 -1.928933
    20 10.127058 0.000000 0.000001 1.722622 0.388375 0.950562
    21 1.537458 0.109715 1.664489 -3.078535 -0.186288 0.914916
    22 0.928313 0.000000 0.000002 0.000000 0.000000 0.061034
    23 0.928311 0.000000 0.000001 0.000000 0.000000 0.671897
    24 2.686395 -0.427337 0.044204 0.006330 0.043192 0.122300
    25 1.435260 0.000000 0.000001 0.000000 0.000000 1.186618
    26 1.482593 0.000000 -0.000001 0.000000 0.000000 1.404984
    27 2.046984 0.000001 0.000000 0.759983 0.348023 -0.102261
    28 -0.000005 0.000007 3.713254 -0.352685 -2.879396 5.737169
    29 18.045723 0.000000 0.000000 0.000000 0.000000 -0.526712
    30 17.597597 0.000000 0.000000 -0.288983 -0.021028 -0.067725
    31 0.000005 -0.000003 -3.713254 0.804353 2.822223 6.125143
    32 18.045721 0.000000 0.000000 0.000000 0.000000 -0.809329
    33 17.597597 0.000000 0.000000 -0.277776 0.096575 0.474454
  time 3
    0 0.125969 2.758048 0.239764 0.000000 0.000000 -1.571017
    1 0.773457 0.027345 0.000000 -1.570795 -1.570787 0.000000
    2 1.293670 0.684478 -0.000001 -0.001571 -0.078812 -0.060206
    3 5.309685 -0.003834 0.000000 -0.201295 0.057131 0.068140
    4 4.826790 -0.004591 0.000000 -0.156238 0.115651 -0.037009
    5 5.792767 -0.005304 0.000000 -0.110193 0.093815 0.017319
    6 6.662322 -0.001452 0.000000 -0.111720 0.222364 0.203303
    7 -4.268379 0.251159 3.542726 -3.767221 -1.453787 -5.905882
    8 4.827512 0.000000 -0.000002 -1.433793 -0.183516 -1.117384
    9 11.140032 0.000000 0.000000 0.000000 0.000000 -1.090975
    10 10.314563 -0.000001 0.000001 -3.152327 0.801460 0.945517
    11 1.646836 0.445664 -1.699647 0.993049 1.047208 -0.378175
    12 0.928312 0.000000 0.000000 0.000000 0.000000 1.029733
    13 0.928313 0.000000 -0.000001 0.000000 0.000000 0.410081
    14 2.979373 -0.388274 -0.044205 -0.287441 -0.079085 0.688066
    15 1.435262 -0.000001 -0.000001 0.000000 0.000000 1.378619
    16 1.482593 -0.000001 0.000001 0.000000 0.000000 0.495031
    17 -2.155033 1.114502 -4.632599 -1.827975 1.384651 -5.170078
    18 4.972047 0.000000 0.000000 0.846203 -0.336233 -1.869524
    19 11.585358 0.000000 0.000001 0.000000 0.000000 -1.929178
    20 10.127058 0.000000 0.000001 1.722622 0.389604 0.948461
    21 1.537458 0.109715 1.664489 -3.078535 -0.186288 0.914916
    22 0.928313 0.000000 0.000002 0.000000 0.000000 0.061034
    23 0.928311 0.000000 0.000001 0.000000 0.000000 0.671897
    24 2.686395 -0.427337 0.044204 0.006330 0.043192 0.122300
    25 1.435260 0.000000 0.000001 0.000000 0.000000 1.186618
    26 1.482593 0.000000 -0.000001 0.000000 0.000000 1.404984
    27 2.046984 0.000001 0.000000 0.760069 0.351416 -0.127749
    28 -0.000005 0.000007 3.713254 -0.352589 -2.878725 5.737360
    29 18.045723 0.000000 0.000000 0.000000 0.000000 -0.527897
    30 17.597597 0.000000 0.000000 -0.288730 -0.021766 -0.066625
    31 0.000005 -0.000003 -3.713254 0.804449 2.822798 6.126197
    32 18.045721 0.000000 0.000000 0.000000 0.000000 -0.809014
    33 17.597597 0.000000 0.000000 -0.277742 0.096930 0.475193
  time 4
    0 0.125969 2.758048 0.239764 0.000000 0.000000 -1.571017
    1 0.800802 0.007813 0.000000 -1.570795 -1.570787 0.000000
    2 1.293670 0.684478 -0.000001 -0.001571 -0.078812 -0.060206
    3 5.309685 -0.003834 0.000000 -0.201618 0.058772 0.073757
    4 4.826790 -0.004591 0.000000 -0.154750 0.114189 -0.049753
    5 5.792767 -0.005304 0.000000 -0.109815 0.091023 0.001124
    6 6.662322 -0.001452 0.000000 -0.110342 0.226254 0.245484
    7 -4.252754 0.399601 3.542726 -3.699740 -1.455650 -6.014253
    8 4.827512 0.000000 -0.000002 -1.427655 -0.164158 -1.131162
    9 11.140032 0.000000 0.000000 0.000000 0.000000 -1.074963
    10 10.314563 -0.000001 0.000001 -3.153938 0.799493 0.931001
    11 1.646836 0.445664 -1.699647 0.993049 1.047208 -0.378175
    12 0.928312 0.000000 0.000000 0.000000 0.000000 1.029733
    13 0.928313 0.000000 -0.000001 0.000000 0.000000 0.410081
    14 2.979373 -0.388274 -0.044205 -0.287441 -0.079085 0.688066
    15 1.435262 -0.000001 -0.000001 0.000000 0.000000 1.378619
    16 1.482593 -0.000001 0.000001 0.000000 0.000000 0.495031
    17 -2.112063 1.243412 -4.620880 -1.852527 1.375370 -5.237220
    18 4.972047 0.000000 0.000000 0.862149 -0.358088 -1.866396
    19 11.585358 0.000000 0.000001 0.000000 0.000000 -1.929505
    20 10.127058 0.000000 0.000001 1.722692 0.391212 0.945859
    21 1.537458 0.109715 1.664489 -3.078535 -0.186288 0.914916
    22 0.928313 0.000000 0.000002 0.000000 0.000000 0.061034
    23 0.928311 0.000000 0.000001 0.000000 0.000000 0.671897
    24 2.686395 -0.427337 0.044204 0.006330 0.043192 0.122300
    25 1.435260 0.000000 0.000001 0.000000 0.000000 1.186618
    26 1.482593 0.000000 -0.000001 0.000000 0.000000 1.404984
    27 2.046984 0.000001 0.000000 0.761318 0.355281 -0.155304
    28 -0.000005 0.000007 3.713254 -0.352493 -2.878150 5.737552
    29 18.045723 0.000000 0.000000 0.000000 0.000000 -0.528859
    30 17.597597 0.000000 0.000000 -0.288553 -0.022332 -0.065708
    31 0.000005 -0.000003 -3.713254 0.804737 2.823373 6.127060
    32 18.045721 0.000000 0.000000 0.000000 0.000000 -0.808542
    33 17.597597 0.000000 0.000000 -0.277742 0.097186 0.475747
  time 5
    0 0.125969 2.758048 0.239764 0.000000 0.000000 -1.571017
    1 0.812521 0.000000 0.000000 -1.570795 -1.570787 0.000000
    2 1.293670 0.684478 -0.000001 -0.001571 -0.078812 -0.060206
    3 5.309685 -0.003834 0.000000 -0.201890 0.060235 0.078579
    4 4.826790 -0.004591 0.000000 -0.153720 0.113170 -0.058771
    5 5.792767 -0.005304 0.000000 -0.109473 0.088746 -0.012870
    6 6.662322 -0.001452 0.000000 -0.108808 0.230075 0.287722
    7 -4.229316 0.548043 3.554446 -3.629768 -1.456655 0.157976
    8 4.827512 0.000000 -0.000002 -1.422951 -0.149406 -1.141560
    9 11.140032 0.000000 0.000000 0.000000 0.000000 -1.061632
    10 10.314563 -0.000001 0.000001 -3.155170 0.798181 0.919563
    11 1.646836 0.445664 -1.699647 0.993049 1.047208 -0.378175
    12 0.928312 0.000000 0.000000 0.000000 0.000000 1.029733
    13 0.928313 0.000000 -0.000001 0.000000 0.000000 0.410081
    14 2.979373 -0.388274 -0.044205 -0.287441 -0.079085 0.688066
    15 1.435262 -0.000001 -0.000001 0.000000 0.000000 1.378619
    16 1.482593 -0.000001 0.000001 0.000000 0.000000 0.495031
    17 -2.061281 1.368416 -4.605254 -1.876792 1.366011 -5.304457
    18 4.972047 0.000000 0.000000 0.877157 -0.375765 -1.865464
    19 11.585358 0.000000 0.000001 0.000000 0.000000 -1.929832
    20 10.127058 0.000000 0.000001 1.722762 0.392725 0.943108
    21 1.537458 0.109715 1.664489 -3.078535 -0.186288 0.914916
    22 0.928313 0.000000 0.000002 0.000000 0.000000 0.061034
    23 0.928311 0.000000 0.000001 0.000000 0.000000 0.671897
    24 2.686395 -0.427337 0.044204 0.006330 0.043192 0.122300
    25 1.435260 0.000000 0.000001 0.000000 0.000000 1.186618
    26 1.482593 0.000000 -0.000001 0.000000 0.000000 1.404984
    27 2.046984 0.000001 0.000000 0.764937 0.359972 -0.186692
    28 -0.000005 0.000007 3.713254 -0.352397 -2.877766 5.737648
    29 18.045723 0.000000 0.000000 0.000000 0.000000 -0.529451
    30 17.597597 0.000000 0.000000 -0.288401 -0.022726 -0.065158
    31 0.000005 -0.000003 -3.713254 0.804737 2.823661 6.127635
    32 18.045721 0.000000 0.000000 0.000000 0.000000 -0.808463
    33 17.597597 0.000000 0.000000 -0.277742 0.097344 0.476117
  time 6
    0 0.125969 2.758048 0.239764 0.000000 0.000000 -1.571017
    1 0.824240 0.000000 0.000000 -1.570795 -1.570787 0.000000
    2 1.293670 0.684478 -0.000001 -0.001571 -0.078812 -0.060206
    3 5.309685 -0.003834 0.000000 -0.202112 0.061289 0.082200
    4 4.826790 -0.004591 0.000000 -0.153148 0.112571 -0.064084
    5 5.792767 -0.005304 0.000000 -0.109132 0.086900 -0.026324
    6 6.662322 -0.001452 0.000000 -0.107094 0.233827 0.330074
    7 -4.205877 0.696486 3.562258 -3.559220 -1.456744 0.046444
    8 4.827512 0.000000 -0.000002 -1.419284 -0.136871 -1.149792
    9 11.140032 0.000000 0.000000 0.000000 0.000000 -1.050981
    10 10.314563 -0.000001 0.000001 -3.156118 0.797244 0.910447
    11 1.646836 0.445664 -1.699647 0.993049 1.047208 -0.378175
    12 0.928312 0.000000 0.000000 0.000000 0.000000 1.029733
    13 0.928313 0.000000 -0.000001 0.000000 0.000000 0.410081
    14 2.979373 -0.388274 -0.044205 -0.287441 -0.079085 0.688066
    15 1.435262 -0.000001 -0.000001 0.000000 0.000000 1.378619
    16 1.482593 -0.000001 0.000001 0.000000 0.000000 0.495031
    17 -2.006591 1.477794 -4.593535 -1.896185 1.356835 -5.366523
    18 4.972047 0.000000 0.000000 0.891039 -0.390710 -1.865731
    19 11.585358 0.000000 0.000001 0.000000 0.000000 -1.930158
    20 10.127058 0.000000 0.000001 1.722833 0.394238 0.940407
    21 1.537458 0.109715 1.664489 -3.078535 -0.186288 0.914916
    22 0.928313 0.000000 0.000002 0.000000 0.000000 0.061034
    23 0.928311 0.000000 0.000001 0.000000 0.000000 0.671897
    24 2.686395 -0.427337 0.044204 0.006330 0.043192 0.122300
    25 1.435260 0.000000 0.000001 0.000000 0.000000 1.186618
    26 1.482593 0.000000 -0.000001 0.000000 0.000000 1.404984
    27 2.046984 0.000001 0.000000 0.770021 0.365194 -0.220452
    28 -0.000005 0.000007 3.713254 -0.352397 -2.877479 5.737744
    29 18.045723 0.000000 0.000000 0.000000 0.000000 -0.529821
    30 17.597597 0.000000 0.000000 -0.288325 -0.022972 -0.064791
    31 0.000005 -0.000003 -3.713254 0.804928 2.823949 6.128019
    32 18.045721 0.000000 0.000000 0.000000 0.000000 -0.808227
    33 17.597597 0.000000 0.000000 -0.277742 0.097423 0.476440
  time 7
    0 0.125969 2.758048 0.239764 0.000000 0.000000 -1.571017
    1 0.832053 0.000000 0.000000 -1.570795 -1.570787 0.000000
    2 1.293670 0.684478 -0.000001 -0.001571 -0.078812 -0.060206
    3 5.309685 -0.003834 0.000000 -0.202214 0.062020 0.084690
    4 4.826790 -0.004591 0.000000 -0.152843 0.112308 -0.066752
    5 5.792767 -0.005304 0.000000 -0.108736 0.085594 -0.038699
    6 6.662322 -0.001452 0.000000 -0.105249 0.237497 0.372397
    7 -4.170720 0.844928 3.566165 -3.489055 -1.455975 -0.064514
    8 4.827512 0.000000 -0.000002 -1.416414 -0.126041 -1.156204
    9 11.140032 0.000000 0.000000 0.000000 0.000000 -1.042794
    10 10.314563 -0.000001 0.000001 -3.156876 0.796495 0.903363
    11 1.646836 0.445664 -1.699647 0.993049 1.047208 -0.378175
    12 0.928312 0.000000 0.000000 0.000000 0.000000 1.029733
    13 0.928313 0.000000 -0.000001 0.000000 0.000000 0.410081
    14 2.979373 -0.388274 -0.044205 -0.287441 -0.079085 0.688066
    15 1.435262 -0.000001 -0.000001 0.000000 0.000000 1.378619
    16 1.482593 -0.000001 0.000001 0.000000 0.000000 0.495031
    17 -1.944090 1.594985 -4.581816 -1.906503 1.348291 -5.419681
    18 4.972047 0.000000 0.000000 0.902576 -0.403405 -1.866396
    19 11.585358 0.000000 0.000001 0.000000 0.000000 -1.930403
    20 10.127058 0.000000 0.000001 1.722833 0.395562 0.938106
    21 1.537458 0.109715 1.664489 -3.078535 -0.186288 0.914916
    22 0.928313 0.000000 0.000002 0.000000 0.000000 0.061034
    23 0.928311 0.000000 0.000001 0.000000 0.000000 0.671897
    24 2.686395 -0.427337 0.044204 0.006330 0.043192 0.122300
    25 1.435260 0.000000 0.000001 0.000000 0.000000 1.186618
    26 1.482593 0.000000 -0.000001 0.000000 0.000000 1.404984
    27 2.046984 0.000001 0.000000 0.776053 0.370770 -0.256036
    28 -0.000005 0.000007 3.713254 -0.352205 -2.877287 5.737840
    29 18.045723 0.000000 0.000000 0.000000 0.000000 -0.530043
    30 17.597597 0.000000 0.000000 -0.288223 -0.023218 -0.064562
    31 0.000005 -0.000003 -3.713254 0.805024 2.824140 6.128211
    32 18.045721 0.000000 0.000000 0.000000 0.000000 -0.808227
    33 17.597597 0.000000 0.000000 -0.277742 0.097482 0.476671
  time 8
    0 0.125969 2.758048 0.239764 0.000000 0.000000 -1.571017
    1 0.832053 0.000000 0.000000 -1.570795 -1.570787 0.000000
    2 1.293670 0.684478 -0.000001 -0.001571 -0.078812 -0.060206
    3 5.309685 -0.003834 0.000000 -0.202299 0.062500 0.086192
    4 4.826790 -0.004591 0.000000 -0.152843 0.112308 -0.066752
    5 5.792767 -0.005304 0.000000 -0.108448 0.085103 -0.045945
    6 6.662322 -0.001452 0.000000 -0.105249 0.237497 0.372397
    7 -4.170720 0.844928 3.566165 -3.489055 -1.455975 -0.064514
    8 4.827512 0.000000 -0.000002 -1.415219 -0.120754 -1.158890
    9 11.140032 0.000000 0.000000 0.000000 0.000000 -1.039243
    10 10.314563 -0.000001 0.000001 -3.157350 0.796308 0.900344
    11 1.646836 0.445664 -1.699647 0.993049 1.047208 -0.378175
    12 0.928312 0.000000 0.000000 0.000000 0.000000 1.029733
    13 0.928313 0.000000 -0.000001 0.000000 0.000000 0.410081
    14 2.979373 -0.388274 -0.044205 -0.287441 -0.079085 0.688066
    15 1.435262 -0.000001 -0.000001 0.000000 0.000000 1.378619
    16 1.482593 -0.000001 0.000001 0.000000 0.000000 0.495031
    17 -1.944090 1.594985 -4.581816 -1.931150 1.346214 -5.445063
    18 4.972047 0.000000 0.000000 0.909799 -0.409512 -1.867794
    19 11.585358 0.000000 0.000001 0.000000 0.000000 -1.930567
    20 10.127058 0.000000 0.000001 1.722903 0.396602 0.936505
    21 1.537458 0.109715 1.664489 -3.078535 -0.186288 0.914916
    22 0.928313 0.000000 0.000002 0.000000 0.000000 0.061034
    23 0.928311 0.000000 0.000001 0.000000 0.000000 0.671897
    24 2.686395 -0.427337 0.044204 0.006330 0.043192 0.122300
    25 1.435260 0.000000 0.000001 0.000000 0.000000 1.186618
    26 1.482593 0.000000 -0.000001 0.000000 0.000000 1.404984
    27 2.046984 0.000001 0.000000 0.772175 0.365194 -0.243506
    28 -0.000005 0.000007 3.713254 -0.352205 -2.877287 5.737840
    29 18.045723 0.000000 0.000000 0.000000 0.000000 -0.529969
    30 17.597597 0.000000 0.000000 -0.288223 -0.023218 -0.064608
    31 0.000005 -0.000003 -3.713254 0.805024 2.824140 6.128211
    32 18.045721 0.000000 0.000000 0.000000 0.000000 -0.808227
    33 17.597597 0.000000 0.000000 -0.277742 0.097423 0.476671
  time 9
    0 0.125969 2.758048 0.239764 0.000000 0.000000 -1.571017
    1 0.820334 0.000000 0.000000 -1.570795 -1.570787 0.000000
    2 1.293670 0.684478 -0.000001 -0.001571 -0.078812 -0.060206
    3 5.309685 -0.003834 0.000000 -0.202333 0.062572 0.086457
    4 4.826790 -0.004591 0.000000 -0.153148 0.112571 -0.064084
    5 5.792767 -0.005304 0.000000 -0.108520 0.085822 -0.043765
    6 6.662322 -0.001452 0.000000 -0.105249 0.237497 0.372397
    7 -4.170720 0.844928 3.566165 -3.489055 -1.455975 -0.064514
    8 4.827512 0.000000 -0.000002 -1.416096 -0.124506 -1.155857
    9 11.140032 0.000000 0.000000 0.000000 0.000000 -1.041924
    10 10.314563 -0.000001 0.000001 -3.157350 0.796776 0.902608
    11 1.646836 0.445664 -1.699647 0.993049 1.047208 -0.378175
    12 0.928312 0.000000 0.000000 0.000000 0.000000 1.029733
    13 0.928313 0.000000 -0.000001 0.000000 0.000000 0.410081
    14 2.979373 -0.388274 -0.044205 -0.287441 -0.079085 0.688066
    15 1.435262 -0.000001 -0.000001 0.000000 0.000000 1.378619
    16 1.482593 -0.000001 0.000001 0.000000 0.000000 0.495031
    17 -1.944090 1.594985 -4.581816 -1.946244 1.344899 -5.460771
    18 4.972047 0.000000 0.000000 0.911299 -0.405173 -1.869591
    19 11.585358 0.000000 0.000001 0.000000 0.000000 -1.930648
    20 10.127058 0.000000 0.000001 1.722903 0.397075 0.935505
    21 1.537458 0.109715 1.664489 -3.078535 -0.186288 0.914916
    22 0.928313 0.000000 0.000002 0.000000 0.000000 0.061034
    23 0.928311 0.000000 0.000001 0.000000 0.000000 0.671897
    24 2.686395 -0.427337 0.044204 0.006330 0.043192 0.122300
    25 1.435260 0.000000 0.000001 0.000000 0.000000 1.186618
    26 1.482593 0.000000 -0.000001 0.000000 0.000000 1.404984
    27 2.046984 0.000001 0.000000 0.772261 0.361093 -0.239856
    28 -0.000005 0.000007 3.713254 -0.352397 -2.877479 5.737840
    29 18.045723 0.000000 0.000000 0.000000 0.000000 -0.529451
    30 17.597597 0.000000 0.000000 -0.288325 -0.022948 -0.065158
    31 0.000005 -0.000003 -3.713254 0.804928 2.823949 6.127827
    32 18.045721 0.000000 0.000000 0.000000 0.000000 -0.808227
    33 17.597597 0.000000 0.000000 -0.277742 0.097265 0.476394
  time 10
    0 0.125969 2.758048 0.239764 0.000000 0.000000 -1.571017
    1 0.792989 0.007813 0.000000 -1.570795 -1.570787 0.000000
    2 1.293670 0.684478 -0.000001 -0.001571 -0.078812 -0.060206
    3 5.309685 -0.003834 0.000000 -0.202265 0.062176 0.085238
    4 4.826790 -0.004591 0.000000 -0.153720 0.113170 -0.058771
    5 5.792767 -0.005304 0.000000 -0.108880 0.087859 -0.031079
    6 6.662322 -0.001452 0.000000 -0.105249 0.237497 0.372397
    7 -4.170720 0.844928 3.566165 -3.489055 -1.455975 -0.064514
    8 4.827512 0.000000 -0.000002 -1.419523 -0.138235 -1.147019
    9 11.140032 0.000000 0.000000 0.000000 0.000000 -1.050401
    10 10.314563 -0.000001 0.000001 -3.156781 0.798087 0.910157
    11 1.646836 0.445664 -1.699647 0.993049 1.047208 -0.378175
    12 0.928312 0.000000 0.000000 0.000000 0.000000 1.029733
    13 0.928313 0.000000 -0.000001 0.000000 0.000000 0.410081
    14 2.979373 -0.388274 -0.044205 -0.287441 -0.079085 0.688066
    15 1.435262 -0.000001 -0.000001 0.000000 0.000000 1.378619
    16 1.482593 -0.000001 0.000001 0.000000 0.000000 0.495031
    17 -1.944090 1.594985 -4.581816 -1.956179 1.344006 -5.470828
    18 4.972047 0.000000 0.000000 0.907641 -0.389987 -1.872453
    19 11.585358 0.000000 0.000001 0.000000 0.000000 -1.930730
    20 10.127058 0.000000 0.000001 1.722903 0.397453 0.934855
    21 1.537458 0.109715 1.664489 -3.078535 -0.186288 0.914916
    22 0.928313 0.000000 0.000002 0.000000 0.000000 0.061034
    23 0.928311 0.000000 0.000001 0.000000 0.000000 0.671897
    24 2.686395 -0.427337 0.044204 0.006330 0.043192 0.122300
    25 1.435260 0.000000 0.000001 0.000000 0.000000 1.186618
    26 1.482593 0.000000 -0.000001 0.000000 0.000000 1.404984
    27 2.046984 0.000001 0.000000 0.776613 0.358467 -0.245635
    28 -0.000005 0.000007 3.713254 -0.352493 -2.878054 5.737648
    29 18.045723 0.000000 0.000000 0.000000 0.000000 -0.528415
    30 17.597597 0.000000 0.000000 -0.288502 -0.022456 -0.066075
    31 0.000005 -0.000003 -3.713254 0.804737 2.823469 6.126964
    32 18.045721 0.000000 0.000000 0.000000 0.000000 -0.808542
    33 17.597597 0.000000 0.000000 -0.277742 0.096989 0.475839
  time 11
    0 0.125969 2.758048 0.239764 0.000000 0.000000 -1.571017
    1 0.761738 0.019532 0.000000 -1.570795 -1.570787 0.000000
    2 1.293670 0.684478 -0.000001 -0.001571 -0.078812 -0.060206
    3 5.309685 -0.003834 0.000000 -0.202112 0.061289 0.082200
    4 4.826790 -0.004591 0.000000 -0.154922 0.114309 -0.048695
    5 5.792767 -0.005304 0.000000 -0.109365 0.090867 -0.011645
    6 6.662322 -0.001452 0.000000 -0.105249 0.237497 0.372397
    7 -4.170720 0.844928 3.566165 -3.489055 -1.455975 -0.064514
    8 4.827512 0.000000 -0.000002 -1.425263 -0.160577 -1.132462
    9 11.140032 0.000000 0.000000 0.000000 0.000000 -1.063950
    10 10.314563 -0.000001 0.000001 -3.155833 0.800242 0.922815
    11 1.646836 0.445664 -1.699647 0.993049 1.047208 -0.378175
    12 0.928312 0.000000 0.000000 0.000000 0.000000 1.029733
    13 0.928313 0.000000 -0.000001 0.000000 0.000000 0.410081
    14 2.979373 -0.388274 -0.044205 -0.287441 -0.079085 0.688066
    15 1.435262 -0.000001 -0.000001 0.000000 0.000000 1.378619
    16 1.482593 -0.000001 0.000001 0.000000 0.000000 0.495031
    17 -1.944090 1.594985 -4.581816 -1.960192 1.343611 -5.474755
    18 4.972047 0.000000 0.000000 0.899574 -0.365721 -1.876246
    19 11.585358 0.000000 0.000001 0.000000 0.000000 -1.930730
    20 10.127058 0.000000 0.000001 1.722903 0.397642 0.934555
    21 1.537458 0.109715 1.664489 -3.078535 -0.186288 0.914916
    22 0.928313 0.000000 0.000002 0.000000 0.000000 0.061034
    23 0.928311 0.000000 0.000001 0.000000 0.000000 0.671897
    24 2.686395 -0.427337 0.044204 0.006330 0.043192 0.122300
    25 1.435260 0.000000 0.000001 0.000000 0.000000 1.186618
    26 1.482593 0.000000 -0.000001 0.000000 0.000000 1.404984
    27 2.046984 0.000001 0.000000 0.784583 0.357346 -0.259078
    28 -0.000005 0.000007 3.713254 -0.352589 -2.878821 5.737456
    29 18.045723 0.000000 0.000000 0.000000 0.000000 -0.526935
    30 17.597597 0.000000 0.000000 -0.288781 -0.021668 -0.067496
    31 0.000005 -0.000003 -3.713254 0.804449 2.822798 6.125718
    32 18.045721 0.000000 0.000000 0.000000 0.000000 -0.809093
    33 17.597597 0.000000 0.000000 -0.277776 0.096555 0.475100
  time 12
    0 0.125969 2.758048 0.239764 0.000000 0.000000 -1.571017
    1 0.750019 0.031251 0.000000 -1.570795 -1.570787 0.000000
    2 1.293670 0.684478 -0.000001 -0.001571 -0.078812 -0.060206
    3 5.309685 -0.003834 0.000000 -0.201567 0.058569 0.072979
    4 4.826790 -0.004591 0.000000 -0.156562 0.116047 -0.033834
    5 5.792767 -0.005304 0.000000 -0.109905 0.094403 0.011381
    6 6.662322 -0.001452 0.000000 -0.105249 0.237497 0.372397
    7 -4.170720 0.844928 3.566165 -3.489055 -1.455975 -0.064514
    8 4.827512 0.000000 -0.000002 -1.432438 -0.184368 -1.117038
    9 11.140032 0.000000 0.000000 0.000000 0.000000 -1.078513
    10 10.314563 -0.000001 0.000001 -3.154696 0.802490 0.936111
    11 1.646836 0.445664 -1.699647 0.993049 1.047208 -0.378175
    12 0.928312 0.000000 0.000000 0.000000 0.000000 1.029733
    13 0.928313 0.000000 -0.000001 0.000000 0.000000 0.410081
    14 2.979373 -0.388274 -0.044205 -0.287441 -0.079085 0.688066
    15 1.435262 -0.000001 -0.000001 0.000000 0.000000 1.378619
    16 1.482593 -0.000001 0.000001 0.000000 0.000000 0.495031
    17 -1.944090 1.594985 -4.581816 -1.957708 1.343821 -5.472360
    18 4.972047 0.000000 0.000000 0.888788 -0.339367 -1.879774
    19 11.585358 0.000000 0.000001 0.000000 0.000000 -1.930730
    20 10.127058 0.000000 0.000001 1.722903 0.397642 0.934755
    21 1.537458 0.109715 1.664489 -3.078535 -0.186288 0.914916
    22 0.928313 0.000000 0.000002 0.000000 0.000000 0.061034
    23 0.928311 0.000000 0.000001 0.000000 0.000000 0.671897
    24 2.686395 -0.427337 0.044204 0.006330 0.043192 0.122300
    25 1.435260 0.000000 0.000001 0.000000 0.000000 1.186618
    26 1.482593 0.000000 -0.000001 0.000000 0.000000 1.404984
    27 2.046984 0.000001 0.000000 0.792898 0.356048 -0.274650
    28 -0.000005 0.000007 3.713254 -0.352685 -2.879300 5.737360
    29 18.045723 0.000000 0.000000 0.000000 0.000000 -0.526416
    30 17.597597 0.000000 0.000000 -0.288933 -0.021176 -0.068046
    31 0.000005 -0.000003 -3.713254 0.804449 2.822319 6.125143
    32 18.045721 0.000000 0.000000 0.000000 0.000000 -0.809329
    33 17.597597 0.000000 0.000000 -0.277776 0.096417 0.474546
  time 13
    0 0.125969 2.758048 0.239764 0.000000 0.000000 -1.571017
    1 0.750019 0.039064 0.000000 -1.570795 -1.570787 0.000000
    2 1.293670 0.684478 -0.000001 -0.001571 -0.078812 -0.060206
    3 5.309685 -0.003834 0.000000 -0.200750 0.054530 0.059361
    4 4.826790 -0.004591 0.000000 -0.158431 0.117928 -0.017386
    5 5.792767 -0.005304 0.000000 -0.110409 0.097926 0.034636
    6 6.662322 -0.001452 0.000000 -0.107094 0.233827 0.330074
    7 -4.205877 0.696486 3.562258 -3.559220 -1.456744 0.046444
    8 4.827512 0.000000 -0.000002 -1.440011 -0.205516 -1.103174
    9 11.140032 0.000000 0.000000 0.000000 0.000000 -1.091845
    10 10.314563 -0.000001 0.000001 -3.153654 0.804176 0.947724
    11 1.646836 0.445664 -1.699647 0.993049 1.047208 -0.378175
    12 0.928312 0.000000 0.000000 0.000000 0.000000 1.029733
    13 0.928313 0.000000 -0.000001 0.000000 0.000000 0.410081
    14 2.979373 -0.388274 -0.044205 -0.287441 -0.079085 0.688066
    15 1.435262 -0.000001 -0.000001 0.000000 0.000000 1.378619
    16 1.482593 -0.000001 0.000001 0.000000 0.000000 0.495031
    17 -2.006591 1.477794 -4.593535 -1.975286 1.350157 -5.447457
    18 4.972047 0.000000 0.000000 0.876969 -0.315422 -1.882236
    19 11.585358 0.000000 0.000001 0.000000 0.000000 -1.930648
    20 10.127058 0.000000 0.000001 1.722903 0.397264 0.935355
    21 1.537458 0.109715 1.664489 -3.078535 -0.186288 0.914916
    22 0.928313 0.000000 0.000002 0.000000 0.000000 0.061034
    23 0.928311 0.000000 0.000001 0.000000 0.000000 0.671897
    24 2.686395 -0.427337 0.044204 0.006330 0.043192 0.122300
    25 1.435260 0.000000 0.000001 0.000000 0.000000 1.186618
    26 1.482593 0.000000 -0.000001 0.000000 0.000000 1.404984
    27 2.046984 0.000001 0.000000 0.793932 0.356048 -0.257740
    28 -0.000005 0.000007 3.713254 -0.352685 -2.879396 5.737169
    29 18.045723 0.000000 0.000000 0.000000 0.000000 -0.526861
    30 17.597597 0.000000 0.000000 -0.288983 -0.021028 -0.067588
    31 0.000005 -0.000003 -3.713254 0.804353 2.822223 6.125239
    32 18.045721 0.000000 0.000000 0.000000 0.000000 -0.809329
    33 17.597597 0.000000 0.000000 -0.277776 0.096634 0.474454
  time 14
    0 0.125969 2.758048 0.239764 0.000000 0.000000 -1.571017
    1 0.738300 0.050783 0.000000 -1.570795 -1.570787 0.000000
    2 1.293670 0.684478 -0.000001 -0.001571 -0.078812 -0.060206
    3 5.309685 -0.003834 0.000000 -0.200206 0.051869 0.050441
    4 4.826790 -0.004591 0.000000 -0.160053 0.119690 -0.002525
    5 5.792767 -0.005304 0.000000 -0.110714 0.101030 0.055170
    6 6.662322 -0.001452 0.000000 -0.108808 0.230075 0.287722
    7 -4.229316 0.548043 3.554446 -3.629768 -1.456655 0.157976
    8 4.827512 0.000000 -0.000002 -1.447663 -0.228199 -1.088183
    9 11.140032 0.000000 0.000000 0.000000 0.000000 -1.105538
    10 10.314563 -0.000001 0.000001 -3.152137 0.806424 0.960962
    11 1.646836 0.445664 -1.699647 0.993049 1.047208 -0.378175
    12 0.928312 0.000000 0.000000 0.000000 0.000000 1.029733
    13 0.928313 0.000000 -0.000001 0.000000 0.000000 0.410081
    14 2.979373 -0.388274 -0.044205 -0.287441 -0.079085 0.688066
    15 1.435262 -0.000001 -0.000001 0.000000 0.000000 1.378619
    16 1.482593 -0.000001 0.000001 0.000000 0.000000 0.495031
    17 -2.061281 1.368416 -4.605254 -1.984552 1.357414 -5.414605
    18 4.972047 0.000000 0.000000 0.864119 -0.290996 -1.885697
    19 11.585358 0.000000 0.000001 0.000000 0.000000 -1.930567
    20 10.127058 0.000000 0.000001 1.722903 0.396602 0.936505
    21 1.537458 0.109715 1.664489 -3.078535 -0.186288 0.914916
    22 0.928313 0.000000 0.000002 0.000000 0.000000 0.061034
    23 0.928311 0.000000 0.000001 0.000000 0.000000 0.671897
    24 2.686395 -0.427337 0.044204 0.006330 0.043192 0.122300
    25 1.435260 0.000000 0.000001 0.000000 0.000000 1.186618
    26 1.482593 0.000000 -0.000001 0.000000 0.000000 1.404984
    27 2.046984 0.000001 0.000000 0.795612 0.356874 -0.240343
    28 -0.000005 0.000007 3.713254 -0.352780 -2.879876 5.737073
    29 18.045723 0.000000 0.000000 0.000000 0.000000 -0.526268
    30 17.597597 0.000000 0.000000 -0.289135 -0.020536 -0.068138
    31 0.000005 -0.000003 -3.713254 0.804162 2.821744 6.124664
    32 18.045721 0.000000 0.000000 0.000000 0.000000 -0.809565
    33 17.597597 0.000000 0.000000 -0.277776 0.096516 0.473992
  time 15
    0 0.125969 2.758048 0.239764 0.000000 0.000000 -1.571017
    1 0.707049 0.070315 0.000000 -1.570795 -1.570787 0.000000
    2 1.293670 0.684478 -0.000001 -0.001571 -0.078812 -0.060206
    3 5.309685 -0.003834 0.000000 -0.200036 0.051150 0.047968
    4 4.826790 -0.004591 0.000000 -0.161121 0.120913 0.007595
    5 5.792767 -0.005304 0.000000 -0.110912 0.103247 0.069559
    6 6.662322 -0.001452 0.000000 -0.110342 0.226254 0.245484
    7 -4.252754 0.399601 3.542726 -3.699740 -1.455650 -6.014253
    8 4.827512 0.000000 -0.000002 -1.454360 -0.248238 -1.074406
    9 11.140032 0.000000 0.000000 0.000000 0.000000 -1.118290
    10 10.314563 -0.000001 0.000001 -3.150242 0.808672 0.974607
    11 1.646836 0.445664 -1.699647 0.993049 1.047208 -0.378175
    12 0.928312 0.000000 0.000000 0.000000 0.000000 1.029733
    13 0.928313 0.000000 -0.000001 0.000000 0.000000 0.410081
    14 2.979373 -0.388274 -0.044205 -0.287441 -0.079085 0.688066
    15 1.435262 -0.000001 -0.000001 0.000000 0.000000 1.378619
    16 1.482593 -0.000001 0.000001 0.000000 0.000000 0.495031
    17 -2.112063 1.243412 -4.620880 -1.970413 1.366931 -5.357615
    18 4.972047 0.000000 0.000000 0.849111 -0.270186 -1.889358
    19 11.585358 0.000000 0.000001 0.000000 0.000000 -1.930240
    20 10.127058 0.000000 0.000001 1.722833 0.395089 0.939057
    21 1.537458 0.109715 1.664489 -3.078535 -0.186288 0.914916
    22 0.928313 0.000000 0.000002 0.000000 0.000000 0.061034
    23 0.928311 0.000000 0.000001 0.000000 0.000000 0.671897
    24 2.686395 -0.427337 0.044204 0.006330 0.043192 0.122300
    25 1.435260 0.000000 0.000001 0.000000 0.000000 1.186618
    26 1.482593 0.000000 -0.000001 0.000000 0.000000 1.404984
    27 2.046984 0.000001 0.000000 0.796474 0.357818 -0.219053
    28 -0.000005 0.000007 3.713254 -0.352876 -2.880547 5.736881
    29 18.045723 0.000000 0.000000 0.000000 0.000000 -0.524862
    30 17.597597 0.000000 0.000000 -0.289414 -0.019847 -0.069467
    31 0.000005 -0.000003 -3.713254 0.804066 2.821264 6.123513
    32 18.045721 0.000000 0.000000 0.000000 0.000000 -0.809959
    33 17.597597 0.000000 0.000000 -0.277843 0.096082 0.473299
  time 16
    0 0.125969 2.758048 0.239764 0.000000 0.000000 -1.571017
    1 0.687517 0.070315 0.000000 -1.570795 -1.570787 0.000000
    2 1.293670 0.684478 -0.000001 -0.001571 -0.078812 -0.060206
    3 5.309685 -0.003834 0.000000 -0.199984 0.050946 0.047297
    4 4.826790 -0.004591 0.000000 -0.161617 0.121428 0.011806
    5 5.792767 -0.005304 0.000000 -0.111002 0.104290 0.076182
    6 6.662322 -0.001452 0.000000 -0.111720 0.222364 0.203303
    7 -4.268379 0.251159 3.542726 -3.767221 -1.453787 -5.905882
    8 4.827512 0.000000 -0.000002 -1.458106 -0.257618 -1.067387
    9 11.140032 0.000000 0.000000 0.000000 0.000000 -1.127854
    10 10.314563 -0.000001 0.000001 -3.148725 0.809703 0.984071
    11 1.646836 0.445664 -1.699647 0.993049 1.047208 -0.378175
    12 0.928312 0.000000 0.000000 0.000000 0.000000 1.029733
    13 0.928313 0.000000 -0.000001 0.000000 0.000000 0.410081
    14 2.979373 -0.388274 -0.044205 -0.287441 -0.079085 0.688066
    15 1.435262 -0.000001 -0.000001 0.000000 0.000000 1.378619
    16 1.482593 -0.000001 0.000001 0.000000 0.000000 0.495031
    17 -2.155033 1.114502 -4.632599 -1.927711 1.378577 -5.271509
    18 4.972047 0.000000 0.000000 0.833540 -0.259660 -1.890489
    19 11.585358 0.000000 0.000001 0.000000 0.000000 -1.929832
    20 10.127058 0.000000 0.000001 1.722762 0.392725 0.943058
    21 1.537458 0.109715 1.664489 -3.078535 -0.186288 0.914916
    22 0.928313 0.000000 0.000002 0.000000 0.000000 0.061034
    23 0.928311 0.000000 0.000001 0.000000 0.000000 0.671897
    24 2.686395 -0.427337 0.044204 0.006330 0.043192 0.122300
    25 1.435260 0.000000 0.000001 0.000000 0.000000 1.186618
    26 1.482593 0.000000 -0.000001 0.000000 0.000000 1.404984
    27 2.046984 0.000001 0.000000 0.792338 0.357051 -0.188456
    28 -0.000005 0.000007 3.713254 -0.353068 -2.880834 5.736881
    29 18.045723 0.000000 0.000000 0.000000 0.000000 -0.524122
    30 17.597597 0.000000 0.000000 -0.289516 -0.019478 -0.070155
    31 0.000005 -0.000003 -3.713254 0.803874 2.820977 6.122842
    32 18.045721 0.000000 0.000000 0.000000 0.000000 -0.810195
    33 17.597597 0.000000 0.000000 -0.277843 0.095904 0.472930
  time 17
    0 0.125969 2.758048 0.239764 0.000000 0.000000 -1.571017
    1 0.683611 0.070315 0.000000 -1.570795 -1.570787 0.000000
    2 1.293670 0.684478 -0.000001 -0.001571 -0.078812 -0.060206
    3 5.309685 -0.003834 0.000000 -0.200036 0.051090 0.047773
    4 4.826790 -0.004591 0.000000 -0.161636 0.121488 0.012335
    5 5.792767 -0.005304 0.000000 -0.111002 0.104422 0.076992
    6 6.662322 -0.001452 0.000000 -0.112955 0.218447 0.161094
    7 -4.276192 0.102717 3.534914 -3.831442 -1.451067 -5.800770
    8 4.827512 0.000000 -0.000002 -1.459382 -0.259494 -1.065221
    9 11.140032 0.000000 0.000000 0.000000 0.000000 -1.134302
    10 10.314563 -0.000001 0.000001 -3.147588 0.810077 0.989820
    11 1.646836 0.445664 -1.699647 0.993049 1.047208 -0.378175
    12 0.928312 0.000000 0.000000 0.000000 0.000000 1.029733
    13 0.928313 0.000000 -0.000001 0.000000 0.000000 0.410081
    14 2.979373 -0.388274 -0.044205 -0.287441 -0.079085 0.688066
    15 1.435262 -0.000001 -0.000001 0.000000 0.000000 1.378619
    16 1.482593 -0.000001 0.000001 0.000000 0.000000 0.495031
    17 -2.198004 0.989498 -4.644318 -1.873066 1.390329 -5.173813
    18 4.972047 0.000000 0.000000 0.819940 -0.256848 -1.889890
    19 11.585358 0.000000 0.000001 0.000000 0.000000 -1.929342
    20 10.127058 0.000000 0.000001 1.722692 0.390266 0.947310
    21 1.537458 0.109715 1.664489 -3.078535 -0.186288 0.914916
    22 0.928313 0.000000 0.000002 0.000000 0.000000 0.061034
    23 0.928311 0.000000 0.000001 0.000000 0.000000 0.671897
    24 2.686395 -0.427337 0.044204 0.006330 0.043192 0.122300
    25 1.435260 0.000000 0.000001 0.000000 0.000000 1.186618
    26 1.482593 0.000000 -0.000001 0.000000 0.000000 1.404984
    27 2.046984 0.000001 0.000000 0.784928 0.355340 -0.151593
    28 -0.000005 0.000007 3.713254 -0.353068 -2.881026 5.736785
    29 18.045723 0.000000 0.000000 0.000000 0.000000 -0.523826
    30 17.597597 0.000000 0.000000 -0.289566 -0.019404 -0.070384
    31 0.000005 -0.000003 -3.713254 0.803874 2.820881 6.122746
    32 18.045721 0.000000 0.000000 0.000000 0.000000 -0.810195
    33 17.597597 0.000000 0.000000 -0.277843 0.095825 0.472791
  time 18
    0 0.125969 2.758048 0.239764 0.000000 0.000000 -1.571017
    1 0.687517 0.070315 0.000000 -1.570795 -1.570787 0.000000
    2 1.293670 0.684478 -0.000001 -0.001571 -0.078812 -0.060206
    3 5.309685 -0.003834 0.000000 -0.200104 0.051438 0.048869
    4 4.826790 -0.004591 0.000000 -0.161464 0.121272 0.010770
    5 5.792767 -0.005304 0.000000 -0.110984 0.104014 0.074542
    6 6.662322 -0.001452 0.000000 -0.112955 0.218447 0.161094
    7 -4.276192 0.102717 3.534914 -3.831442 -1.451067 -5.800770
    8 4.827512 0.000000 -0.000002 -1.458983 -0.257022 -1.066174
    9 11.140032 0.000000 0.000000 0.000000 0.000000 -1.137345
    10 10.314563 -0.000001 0.000001 -3.146924 0.809796 0.992142
    11 1.646836 0.445664 -1.699647 0.993049 1.047208 -0.378175
    12 0.928312 0.000000 0.000000 0.000000 0.000000 1.029733
    13 0.928313 0.000000 -0.000001 0.000000 0.000000 0.410081
    14 2.979373 -0.388274 -0.044205 -0.287441 -0.079085 0.688066
    15 1.435262 -0.000001 -0.000001 0.000000 0.000000 1.378619
    16 1.482593 -0.000001 0.000001 0.000000 0.000000 0.495031
    17 -2.198004 0.989498 -4.644318 -1.808774 1.393563 -5.108587
    18 4.972047 0.000000 0.000000 0.811122 -0.258696 -1.888493
    19 11.585358 0.000000 0.000001 0.000000 0.000000 -1.928933
    20 10.127058 0.000000 0.000001 1.722622 0.388375 0.950562
    21 1.537458 0.109715 1.664489 -3.078535 -0.186288 0.914916
    22 0.928313 0.000000 0.000002 0.000000 0.000000 0.061034
    23 0.928311 0.000000 0.000001 0.000000 0.000000 0.671897
    24 2.686395 -0.427337 0.044204 0.006330 0.043192 0.122300
    25 1.435260 0.000000 0.000001 0.000000 0.000000 1.186618
    26 1.482593 0.000000 -0.000001 0.000000 0.000000 1.404984
    27 2.046984 0.000001 0.000000 0.783851 0.355015 -0.149100
    28 -0.000005 0.000007 3.713254 -0.353068 -2.880930 5.736881
    29 18.045723 0.000000 0.000000 0.000000 0.000000 -0.523900
    30 17.597597 0.000000 0.000000 -0.289516 -0.019429 -0.070384
    31 0.000005 -0.000003 -3.713254 0.803874 2.820881 6.122746
    32 18.045721 0.000000 0.000000 0.000000 0.000000 -0.810195
    33 17.597597 0.000000 0.000000 -0.277843 0.095825 0.472837
  time 19
    0 0.125969 2.758048 0.239764 0.000000 0.000000 -1.571017
    1 0.687517 0.070315 0.000000 -1.570795 -1.570787 0.000000
    2 1.293670 0.684478 -0.000001 -0.001571 -0.078812 -0.060206
    3 5.309685 -0.003834 0.000000 -0.200155 0.051725 0.049928
    4 4.826790 -0.004591 0.000000 -0.161274 0.121020 0.008631
    5 5.792767 -0.005304 0.000000 -0.110930 0.103523 0.071220
    6 6.662322 -0.001452 0.000000 -0.112955 0.218447 0.161094
    7 -4.276192 0.102717 3.534914 -3.831442 -1.451067 -5.800770
    8 4.827512 0.000000 -0.000002 -1.457708 -0.253099 -1.068427
    9 11.140032 0.000000 0.000000 0.000000 0.000000 -1.136041
    10 10.314563 -0.000001 0.000001 -3.147019 0.809422 0.990749
    11 1.646836 0.445664 -1.699647 0.993049 1.047208 -0.378175
    12 0.928312 0.000000 0.000000 0.000000 0.000000 1.029733
    13 0.928313 0.000000 -0.000001 0.000000 0.000000 0.410081
    14 2.979373 -0.388274 -0.044205 -0.287441 -0.079085 0.688066
    15 1.435262 -0.000001 -0.000001 0.000000 0.000000 1.378619
    16 1.482593 -0.000001 0.000001 0.000000 0.000000 0.495031
    17 -2.198004 0.989498 -4.644318 -1.797119 1.394062 -5.096614
    18 4.972047 0.000000 0.000000 0.810747 -0.262392 -1.887428
    19 11.585358 0.000000 0.000001 0.000000 0.000000 -1.928852
    20 10.127058 0.000000 0.000001 1.722622 0.388091 0.951112
    21 1.537458 0.109715 1.664489 -3.078535 -0.186288 0.914916
    22 0.928313 0.000000 0.000002 0.000000 0.000000 0.061034
    23 0.928311 0.000000 0.000001 0.000000 0.000000 0.671897
    24 2.686395 -0.427337 0.044204 0.006330 0.043192 0.122300
    25 1.435260 0.000000 0.000001 0.000000 0.000000 1.186618
    26 1.482593 0.000000 -0.000001 0.000000 0.000000 1.404984
    27 2.046984 0.000001 0.000000 0.782084 0.354484 -0.145571
    28 -0.000005 0.000007 3.713254 -0.353068 -2.880834 5.736881
    29 18.045723 0.000000 0.000000 0.000000 0.000000 -0.524048
    30 17.597597 0.000000 0.000000 -0.289516 -0.019552 -0.070293
    31 0.000005 -0.000003 -3.713254 0.803874 2.820977 6.122842
    32 18.045721 0.000000 0.000000 0.000000 0.000000 -0.810195
    33 17.597597 0.000000 0.000000 -0.277843 0.095845 0.472930
  time 20
    0 0.125969 2.758048 0.239764 0.000000 0.000000 -1.571017
    1 0.687517 0.070315 0.000000 -1.570795 -1.570787 0.000000
    2 1.293670 0.684478 -0.000001 -0.001571 -0.078812 -0.060206
    3 5.309685 -0.003834 0.000000 -0.200206 0.051869 0.050441
    4 4.826790 -0.004591 0.000000 -0.161121 0.120913 0.007595
    5 5.792767 -0.005304 0.000000 -0.110912 0.103247 0.069559
    6 6.662322 -0.001452 0.000000 -0.112955 0.218447 0.161094
    7 -4.276192 0.102717 3.534914 -3.831442 -1.451067 -5.800770
    8 4.827512 0.000000 -0.000002 -1.456831 -0.251138 -1.069987
    9 11.140032 0.000000 0.000000 0.000000 0.000000 -1.134375
    10 10.314563 -0.000001 0.000001 -3.147398 0.809234 0.988949
    11 1.646836 0.445664 -1.699647 0.993049 1.047208 -0.378175
    12 0.928312 0.000000 0.000000 0.000000 0.000000 1.029733
    13 0.928313 0.000000 -0.000001 0.000000 0.000000 0.410081
    14 2.979373 -0.388274 -0.044205 -0.287441 -0.079085 0.688066
    15 1.435262 -0.000001 -0.000001 0.000000 0.000000 1.378619
    16 1.482593 -0.000001 0.000001 0.000000 0.000000 0.495031
    17 -2.198004 0.989498 -4.644318 -1.808774 1.393563 -5.108587
    18 4.972047 0.000000 0.000000 0.813374 -0.264561 -1.887095
    19 11.585358 0.000000 0.000001 0.000000 0.000000 -1.928933
    20 10.127058 0.000000 0.000001 1.722622 0.388375 0.950562
    21 1.537458 0.109715 1.664489 -3.078535 -0.186288 0.914916
    22 0.928313 0.000000 0.000002 0.000000 0.000000 0.061034
    23 0.928311 0.000000 0.000001 0.000000 0.000000 0.671897
    24 2.686395 -0.427337 0.044204 0.006330 0.043192 0.122300
    25 1.435260 0.000000 0.000001 0.000000 0.000000 1.186618
    26 1.482593 0.000000 -0.000001 0.000000 0.000000 1.404984
    27 2.046984 0.000001 0.000000 0.781309 0.354189 -0.143807
    28 -0.000005 0.000007 3.713254 -0.353068 -2.880834 5.736881
    29 18.045723 0.000000 0.000000 0.000000 0.000000 -0.524122
    30 17.597597 0.000000 0.000000 -0.289490 -0.019576 -0.070155
    31 0.000005 -0.000003 -3.713254 0.803874 2.821073 6.123034
    32 18.045721 0.000000 0.000000 0.000000 0.000000 -0.810195
    33 17.597597 0.000000 0.000000 -0.277843 0.095865 0.473022
end
