version 1
nodes
  0 "Bip01" -1
  1 "Bip01 Pelvis" 0
  2 "Bip01 Spine" 1
  3 "Bip01 Spine1" 2
  4 "Bip01 Spine2" 3
  5 "Bip01 Spine3" 4
  6 "Bip01 Neck" 5
  7 "Bip01 L Arm" 6
  8 "Bip01 L Arm1" 7
  9 "Bip01 L Arm2" 8
  10 "Bip01 L Hand" 9
  11 "Bip01 L Finger0" 10
  12 "Bip01 L Finger01" 11
  13 "Bip01 L Finger02" 12
  14 "Bip01 L Finger1" 10
  15 "Bip01 L Finger11" 14
  16 "Bip01 L Finger12" 15
  17 "Bip01 R Arm" 6
  18 "Bip01 R Arm1" 17
  19 "Bip01 R Arm2" 18
  20 "Bip01 R Hand" 19
  21 "Bip01 R Finger0" 20
  22 "Bip01 R Finger01" 21
  23 "Bip01 R Finger02" 22
  24 "Bip01 R Finger1" 20
  25 "Bip01 R Finger11" 24
  26 "Bip01 R Finger12" 25
  27 "Bip01 Head" 6
  28 "Bip01 L Leg" 1
  29 "Bip01 L Leg1" 28
  30 "Bip01 L Foot" 29
  31 "Bip01 R Leg" 1
  32 "Bip01 R Leg1" 31
  33 "Bip01 R Foot" 32
end
skeleton
  time 0
    0 0.145501 1.836145 0.239764 0.000000 0.000000 -1.571017
    1 -0.218761 0.058596 0.000000 -1.570795 -1.570787 0.000000
    2 1.293670 0.684478 -0.000001 -0.001486 -0.013831 -0.060290
    3 5.309685 -0.003834 0.000000 -0.242187 -0.028200 0.074852
    4 4.826790 -0.004591 0.000000 -0.424500 0.063518 0.163344
    5 5.792767 -0.005304 0.000000 -0.036461 -0.150371 0.235412
    6 6.662322 -0.001452 0.000000 -0.112955 0.218447 0.161094
    7 -4.276192 0.102717 3.534914 0.233207 -1.236040 -3.566575
    8 4.827512 0.000000 -0.000002 -0.427207 0.488867 -0.680493
    9 11.140032 0.000000 0.000000 0.000000 0.000000 -1.584165
    10 10.314563 -0.000001 0.000001 -3.695490 0.429487 0.806572
    11 1.646836 0.445664 -1.699647 0.993049 1.047208 -0.378175
    12 0.928312 0.000000 0.000000 0.000000 0.000000 1.029733
    13 0.928313 0.000000 -0.000001 0.000000 0.000000 0.410081
    14 2.979373 -0.388274 -0.044205 -0.287441 -0.079085 0.688066
    15 1.435262 -0.000001 -0.000001 0.000000 0.000000 1.378619
    16 1.482593 -0.000001 0.000001 0.000000 0.000000 0.495031
    17 -2.198004 0.989498 -4.644318 -1.364742 1.394851 -4.657749
    18 4.972047 0.000000 0.000000 0.205090 -0.280229 -1.500741
    19 11.585358 0.000000 0.000001 0.000000 0.000000 -2.070321
    20 10.127058 0.000000 0.000001 -0.684243 -2.802219 -1.445471
    21 1.537458 0.109715 1.664489 -3.078535 -0.186288 0.914916
    22 0.928313 0.000000 0.000002 0.000000 0.000000 0.061034
    23 0.928311 0.000000 0.000001 0.000000 0.000000 0.671897
    24 2.686395 -0.427337 0.044204 0.006330 0.043192 0.122300
    25 1.435260 0.000000 0.000001 0.000000 0.000000 1.186618
    26 1.482593 0.000000 -0.000001 0.000000 0.000000 1.404984
    27 2.046984 0.000001 0.000000 0.659686 -0.024016 0.411863
    28 -0.000005 0.000007 3.713254 -0.353068 -2.880834 5.736881
    29 18.045723 0.000000 0.000000 0.000000 0.000000 -0.524122
    30 17.597597 0.000000 0.000000 -0.289490 -0.019576 -0.070155
    31 0.000005 -0.000003 -3.713254 0.803778 2.821073 6.122938
    32 18.045721 0.000000 0.000000 0.000000 0.000000 -0.810195
    33 17.597597 0.000000 0.000000 -0.277641 0.095845 0.473022
  time 1
    0 0.145501 1.836145 0.239764 0.000000 0.000000 -1.571017
    1 -0.218761 0.062502 0.000000 -1.570795 -1.570787 0.000000
    2 1.293670 0.684478 -0.000001 -0.001486 -0.013831 -0.060290
    3 5.309685 -0.003834 0.000000 -0.249113 -0.028188 0.074852
    4 4.826790 -0.004591 0.000000 -0.431729 0.063518 0.163344
    5 5.792767 -0.005304 0.000000 -0.071483 -0.150347 0.235412
    6 6.662322 -0.001452 0.000000 -0.112955 0.218447 0.161094
    7 -4.276192 0.102717 3.534914 0.233207 -1.236040 -3.566575
    8 4.827512 0.000000 -0.000002 -0.395480 0.527752 -0.643580
    9 11.140032 0.000000 0.000000 0.000000 0.000000 -1.799931
    10 10.314563 -0.000001 0.000001 -3.656726 0.352208 0.998529
    11 1.646836 0.445664 -1.699647 0.993049 1.047208 -0.378175
    12 0.928312 0.000000 0.000000 0.000000 0.000000 1.029733
    13 0.928313 0.000000 -0.000001 0.000000 0.000000 0.410081
    14 2.979373 -0.388274 -0.044205 -0.287441 -0.079085 0.688066
    15 1.435262 -0.000001 -0.000001 0.000000 0.000000 1.378619
    16 1.482593 -0.000001 0.000001 0.000000 0.000000 0.495031
    17 -2.198004 0.989498 -4.644318 0.386357 1.528380 -2.947498
    18 4.972047 0.000000 0.000000 0.200213 -0.329885 -1.604900
    19 11.585358 0.000000 0.000001 0.000000 0.000000 -2.203051
    20 10.127058 0.000000 0.000001 -0.684243 -2.802219 -1.445471
    21 1.537458 0.109715 1.664489 -3.078535 -0.186288 0.914916
    22 0.928313 0.000000 0.000002 0.000000 0.000000 0.061034
    23 0.928311 0.000000 0.000001 0.000000 0.000000 0.671897
    24 2.686395 -0.427337 0.044204 0.006330 0.043192 0.122300
    25 1.435260 0.000000 0.000001 0.000000 0.000000 1.186618
    26 1.482593 0.000000 -0.000001 0.000000 0.000000 1.404984
    27 2.046984 0.000001 0.000000 0.696823 -0.054434 0.416851
    28 -0.000005 0.000007 3.713254 -0.353068 -2.880834 5.736881
    29 18.045723 0.000000 0.000000 0.000000 0.000000 -0.524122
    30 17.597597 0.000000 0.000000 -0.289490 -0.019576 -0.070155
    31 0.000005 -0.000003 -3.713254 0.803778 2.821073 6.122938
    32 18.045721 0.000000 0.000000 0.000000 0.000000 -0.810195
    33 17.597597 0.000000 0.000000 -0.277641 0.095845 0.473022
  time 2
    0 0.145501 1.836145 0.239764 0.000000 0.000000 -1.571017
    1 -0.214854 0.070315 0.000000 -1.570795 -1.570787 0.000000
    2 1.293670 0.684478 -0.000001 -0.001486 -0.013831 -0.060290
    3 5.309685 -0.003834 0.000000 -0.253282 -0.028188 0.074852
    4 4.826790 -0.004591 0.000000 -0.436078 0.063518 0.163344
    5 5.792767 -0.005304 0.000000 -0.092511 -0.150335 0.235412
    6 6.662322 -0.001452 0.000000 -0.112955 0.218447 0.161094
    7 -4.276192 0.102717 3.534914 0.233207 -1.236040 -3.566575
    8 4.827512 0.000000 -0.000002 -0.398349 0.527752 -0.592023
    9 11.140032 0.000000 0.000000 0.000000 0.000000 -1.834564
    10 10.314563 -0.000001 0.000001 -3.650566 0.368507 1.009213
    11 1.646836 0.445664 -1.699647 0.993049 1.047208 -0.378175
    12 0.928312 0.000000 0.000000 0.000000 0.000000 1.029733
    13 0.928313 0.000000 -0.000001 0.000000 0.000000 0.410081
    14 2.979373 -0.388274 -0.044205 -0.287441 -0.079085 0.688066
    15 1.435262 -0.000001 -0.000001 0.000000 0.000000 1.378619
    16 1.482593 -0.000001 0.000001 0.000000 0.000000 0.495031
    17 -2.198004 0.989498 -4.644318 0.252039 1.530221 -3.080536
    18 4.972047 0.000000 0.000000 0.204902 -0.329162 -1.639575
    19 11.585358 0.000000 0.000001 0.000000 0.000000 -2.177485
    20 10.127058 0.000000 0.000001 -0.681858 -2.804205 -1.454424
    21 1.537458 0.109715 1.664489 -3.078535 -0.186288 0.914916
    22 0.928313 0.000000 0.000002 0.000000 0.000000 0.061034
    23 0.928311 0.000000 0.000001 0.000000 0.000000 0.671897
    24 2.686395 -0.427337 0.044204 0.006330 0.043192 0.122300
    25 1.435260 0.000000 0.000001 0.000000 0.000000 1.186618
    26 1.482593 0.000000 -0.000001 0.000000 0.000000 1.404984
    27 2.046984 0.000001 0.000000 0.719140 -0.072667 0.419284
    28 -0.000005 0.000007 3.713254 -0.353068 -2.880834 5.736881
    29 18.045723 0.000000 0.000000 0.000000 0.000000 -0.524122
    30 17.597597 0.000000 0.000000 -0.289490 -0.019576 -0.070155
    31 0.000005 -0.000003 -3.713254 0.803778 2.821073 6.122938
    32 18.045721 0.000000 0.000000 0.000000 0.000000 -0.810195
    33 17.597597 0.000000 0.000000 -0.277641 0.095845 0.473022
  time 3
    0 0.145501 1.836145 0.239764 0.000000 0.000000 -1.571017
    1 -0.214854 0.062502 0.000000 -1.570795 -1.570787 0.000000
    2 1.293670 0.684478 -0.000001 -0.001486 -0.013831 -0.060290
    3 5.309685 -0.003834 0.000000 -0.252074 -0.028188 0.074852
    4 4.826790 -0.004591 0.000000 -0.434800 0.063518 0.163344
    5 5.792767 -0.005304 0.000000 -0.086359 -0.150335 0.235412
    6 6.662322 -0.001452 0.000000 -0.112955 0.218447 0.161094
    7 -4.276192 0.102717 3.534914 0.233207 -1.236040 -3.566575
    8 4.827512 0.000000 -0.000002 -0.421786 0.505325 -0.606580
    9 11.140032 0.000000 0.000000 0.000000 0.000000 -1.766023
    10 10.314563 -0.000001 0.000001 -3.650945 0.405320 0.955272
    11 1.646836 0.445664 -1.699647 0.993049 1.047208 -0.378175
    12 0.928312 0.000000 0.000000 0.000000 0.000000 1.029733
    13 0.928313 0.000000 -0.000001 0.000000 0.000000 0.410081
    14 2.979373 -0.388274 -0.044205 -0.287441 -0.079085 0.688066
    15 1.435262 -0.000001 -0.000001 0.000000 0.000000 1.378619
    16 1.482593 -0.000001 0.000001 0.000000 0.000000 0.495031
    17 -2.198004 0.989498 -4.644318 -0.690573 1.519941 -4.014010
    18 4.972047 0.000000 0.000000 0.213063 -0.313173 -1.628061
    19 11.585358 0.000000 0.000001 0.000000 0.000000 -2.122596
    20 10.127058 0.000000 0.000001 -0.679123 -2.806664 -1.464729
    21 1.537458 0.109715 1.664489 -3.078535 -0.186288 0.914916
    22 0.928313 0.000000 0.000002 0.000000 0.000000 0.061034
    23 0.928311 0.000000 0.000001 0.000000 0.000000 0.671897
    24 2.686395 -0.427337 0.044204 0.006330 0.043192 0.122300
    25 1.435260 0.000000 0.000001 0.000000 0.000000 1.186618
    26 1.482593 0.000000 -0.000001 0.000000 0.000000 1.404984
    27 2.046984 0.000001 0.000000 0.712721 -0.067386 0.418615
    28 -0.000005 0.000007 3.713254 -0.353068 -2.880834 5.736881
    29 18.045723 0.000000 0.000000 0.000000 0.000000 -0.524122
    30 17.597597 0.000000 0.000000 -0.289490 -0.019576 -0.070155
    31 0.000005 -0.000003 -3.713254 0.803778 2.821073 6.122938
    32 18.045721 0.000000 0.000000 0.000000 0.000000 -0.810195
    33 17.597597 0.000000 0.000000 -0.277641 0.095845 0.473022
  time 4
    0 0.145501 1.836145 0.239764 0.000000 0.000000 -1.571017
    1 -0.218761 0.062502 0.000000 -1.570795 -1.570787 0.000000
    2 1.293670 0.684478 -0.000001 -0.001486 -0.013831 -0.060290
    3 5.309685 -0.003834 0.000000 -0.249113 -0.028188 0.074852
    4 4.826790 -0.004591 0.000000 -0.431729 0.063518 0.163344
    5 5.792767 -0.005304 0.000000 -0.071483 -0.150347 0.235412
    6 6.662322 -0.001452 0.000000 -0.112955 0.218447 0.161094
    7 -4.276192 0.102717 3.534914 0.233207 -1.236040 -3.566575
    8 4.827512 0.000000 -0.000002 -0.439962 0.484263 -0.639681
    9 11.140032 0.000000 0.000000 0.000000 0.000000 -1.681180
    10 10.314563 -0.000001 0.000001 -3.657200 0.433047 0.893028
    11 1.646836 0.445664 -1.699647 0.993049 1.047208 -0.378175
    12 0.928312 0.000000 0.000000 0.000000 0.000000 1.029733
    13 0.928313 0.000000 -0.000001 0.000000 0.000000 0.410081
    14 2.979373 -0.388274 -0.044205 -0.287441 -0.079085 0.688066
    15 1.435262 -0.000001 -0.000001 0.000000 0.000000 1.378619
    16 1.482593 -0.000001 0.000001 0.000000 0.000000 0.495031
    17 -2.198004 0.989498 -4.644318 -1.115595 1.482924 -4.428930
    18 4.972047 0.000000 0.000000 0.217847 -0.296781 -1.598511
    19 11.585358 0.000000 0.000001 0.000000 0.000000 -2.077917
    20 10.127058 0.000000 0.000001 -0.677861 -2.807704 -1.469681
    21 1.537458 0.109715 1.664489 -3.078535 -0.186288 0.914916
    22 0.928313 0.000000 0.000002 0.000000 0.000000 0.061034
    23 0.928311 0.000000 0.000001 0.000000 0.000000 0.671897
    24 2.686395 -0.427337 0.044204 0.006330 0.043192 0.122300
    25 1.435260 0.000000 0.000001 0.000000 0.000000 1.186618
    26 1.482593 0.000000 -0.000001 0.000000 0.000000 1.404984
    27 2.046984 0.000001 0.000000 0.696823 -0.054434 0.416851
    28 -0.000005 0.000007 3.713254 -0.353068 -2.880834 5.736881
    29 18.045723 0.000000 0.000000 0.000000 0.000000 -0.524122
    30 17.597597 0.000000 0.000000 -0.289490 -0.019576 -0.070155
    31 0.000005 -0.000003 -3.713254 0.803778 2.821073 6.122938
    32 18.045721 0.000000 0.000000 0.000000 0.000000 -0.810195
    33 17.597597 0.000000 0.000000 -0.277641 0.095845 0.473022
  time 5
    0 0.145501 1.836145 0.239764 0.000000 0.000000 -1.571017
    1 -0.218761 0.058596 0.000000 -1.570795 -1.570787 0.000000
    2 1.293670 0.684478 -0.000001 -0.001486 -0.013831 -0.060290
    3 5.309685 -0.003834 0.000000 -0.245471 -0.028188 0.074852
    4 4.826790 -0.004591 0.000000 -0.427933 0.063518 0.163344
    5 5.792767 -0.005304 0.000000 -0.053136 -0.150359 0.235412
    6 6.662322 -0.001452 0.000000 -0.112955 0.218447 0.161094
    7 -4.276192 0.102717 3.534914 0.233207 -1.236040 -3.566575
    8 4.827512 0.000000 -0.000002 -0.438128 0.481960 -0.666889
    9 11.140032 0.000000 0.000000 0.000000 0.000000 -1.623507
    10 10.314563 -0.000001 0.000001 -3.673691 0.435482 0.846229
    11 1.646836 0.445664 -1.699647 0.993049 1.047208 -0.378175
    12 0.928312 0.000000 0.000000 0.000000 0.000000 1.029733
    13 0.928313 0.000000 -0.000001 0.000000 0.000000 0.410081
    14 2.979373 -0.388274 -0.044205 -0.287441 -0.079085 0.688066
    15 1.435262 -0.000001 -0.000001 0.000000 0.000000 1.378619
    16 1.482593 -0.000001 0.000001 0.000000 0.000000 0.495031
    17 -2.198004 0.989498 -4.644318 -1.274655 1.441885 -4.578443
    18 4.972047 0.000000 0.000000 0.213344 -0.287139 -1.551989
    19 11.585358 0.000000 0.000001 0.000000 0.000000 -2.068442
    20 10.127058 0.000000 0.000001 -0.680175 -2.805718 -1.460627
    21 1.537458 0.109715 1.664489 -3.078535 -0.186288 0.914916
    22 0.928313 0.000000 0.000002 0.000000 0.000000 0.061034
    23 0.928311 0.000000 0.000001 0.000000 0.000000 0.671897
    24 2.686395 -0.427337 0.044204 0.006330 0.043192 0.122300
    25 1.435260 0.000000 0.000001 0.000000 0.000000 1.186618
    26 1.482593 0.000000 -0.000001 0.000000 0.000000 1.404984
    27 2.046984 0.000001 0.000000 0.677393 -0.038443 0.414357
    28 -0.000005 0.000007 3.713254 -0.353068 -2.880834 5.736881
    29 18.045723 0.000000 0.000000 0.000000 0.000000 -0.524122
    30 17.597597 0.000000 0.000000 -0.289490 -0.019576 -0.070155
    31 0.000005 -0.000003 -3.713254 0.803778 2.821073 6.122938
    32 18.045721 0.000000 0.000000 0.000000 0.000000 -0.810195
    33 17.597597 0.000000 0.000000 -0.277641 0.095845 0.473022
  time 6
    0 0.145501 1.836145 0.239764 0.000000 0.000000 -1.571017
    1 -0.218761 0.058596 0.000000 -1.570795 -1.570787 0.000000
    2 1.293670 0.684478 -0.000001 -0.001486 -0.013831 -0.060290
    3 5.309685 -0.003834 0.000000 -0.242187 -0.028200 0.074852
    4 4.826790 -0.004591 0.000000 -0.424500 0.063518 0.163344
    5 5.792767 -0.005304 0.000000 -0.036461 -0.150371 0.235412
    6 6.662322 -0.001452 0.000000 -0.112955 0.218447 0.161094
    7 -4.276192 0.102717 3.534914 0.233207 -1.236040 -3.566575
    8 4.827512 0.000000 -0.000002 -0.427207 0.488867 -0.680493
    9 11.140032 0.000000 0.000000 0.000000 0.000000 -1.584165
    10 10.314563 -0.000001 0.000001 -3.695490 0.429487 0.806572
    11 1.646836 0.445664 -1.699647 0.993049 1.047208 -0.378175
    12 0.928312 0.000000 0.000000 0.000000 0.000000 1.029733
    13 0.928313 0.000000 -0.000001 0.000000 0.000000 0.410081
    14 2.979373 -0.388274 -0.044205 -0.287441 -0.079085 0.688066
    15 1.435262 -0.000001 -0.000001 0.000000 0.000000 1.378619
    16 1.482593 -0.000001 0.000001 0.000000 0.000000 0.495031
    17 -2.198004 0.989498 -4.644318 -1.364742 1.394851 -4.657749
    18 4.972047 0.000000 0.000000 0.205090 -0.280229 -1.500741
    19 11.585358 0.000000 0.000001 0.000000 0.000000 -2.070321
    20 10.127058 0.000000 0.000001 -0.684243 -2.802219 -1.445471
    21 1.537458 0.109715 1.664489 -3.078535 -0.186288 0.914916
    22 0.928313 0.000000 0.000002 0.000000 0.000000 0.061034
    23 0.928311 0.000000 0.000001 0.000000 0.000000 0.671897
    24 2.686395 -0.427337 0.044204 0.006330 0.043192 0.122300
    25 1.435260 0.000000 0.000001 0.000000 0.000000 1.186618
    26 1.482593 0.000000 -0.000001 0.000000 0.000000 1.404984
    27 2.046984 0.000001 0.000000 0.659686 -0.024016 0.411863
    28 -0.000005 0.000007 3.713254 -0.353068 -2.880834 5.736881
    29 18.045723 0.000000 0.000000 0.000000 0.000000 -0.524122
    30 17.597597 0.000000 0.000000 -0.289490 -0.019576 -0.070155
    31 0.000005 -0.000003 -3.713254 0.803778 2.821073 6.122938
    32 18.045721 0.000000 0.000000 0.000000 0.000000 -0.810195
    33 17.597597 0.000000 0.000000 -0.277641 0.095845 0.473022
end
