version 1
nodes
  0 "Bip01" -1
  1 "Bip01 Pelvis" 0
  2 "Bip01 Spine" 1
  3 "Bip01 Spine1" 2
  4 "Bip01 Spine2" 3
  5 "Bip01 Spine3" 4
  6 "Bip01 Neck" 5
  7 "Bip01 L Arm" 6
  8 "Bip01 L Arm1" 7
  9 "Bip01 L Arm2" 8
  10 "Bip01 L Hand" 9
  11 "Bip01 L Finger0" 10
  12 "Bip01 L Finger01" 11
  13 "Bip01 L Finger02" 12
  14 "Bip01 L Finger1" 10
  15 "Bip01 L Finger11" 14
  16 "Bip01 L Finger12" 15
  17 "Bip01 R Arm" 6
  18 "Bip01 R Arm1" 17
  19 "Bip01 R Arm2" 18
  20 "Bip01 R Hand" 19
  21 "Bip01 R Finger0" 20
  22 "Bip01 R Finger01" 21
  23 "Bip01 R Finger02" 22
  24 "Bip01 R Finger1" 20
  25 "Bip01 R Finger11" 24
  26 "Bip01 R Finger12" 25
  27 "Bip01 Head" 6
  28 "Bip01 L Leg" 1
  29 "Bip01 L Leg1" 28
  30 "Bip01 L Foot" 29
  31 "Bip01 R Leg" 1
  32 "Bip01 R Leg1" 31
  33 "Bip01 R Foot" 32
end
skeleton
  time 0
    0 0.254879 -0.281108 0.368674 0.000000 0.000000 -1.571017
    1 -3.386826 0.207038 0.000000 -1.570795 -1.570787 0.000000
    2 1.293670 0.684478 -0.000001 -0.000004 -0.000001 0.131529
    3 5.309685 -0.003834 0.000000 0.000000 0.000000 0.174510
    4 4.826790 -0.004591 0.000000 -0.166920 0.050875 0.254844
    5 5.792767 -0.005304 0.000000 -0.151403 -0.005992 0.288025
    6 6.662322 -0.001452 0.000000 -0.005309 -0.005334 0.494497
    7 -3.108188 1.516823 4.339626 1.238993 -1.024532 -4.799756
    8 4.827512 0.000000 -0.000002 -0.541441 0.220341 -1.017043
    9 11.140032 0.000000 0.000000 0.070821 -0.105579 -0.701031
    10 10.314563 -0.000001 0.000001 -3.988822 0.203081 -0.504208
    11 1.646836 0.445664 -1.699647 -0.161704 0.581044 -0.283978
    12 0.928312 0.000000 0.000000 0.000000 0.000000 0.000000
    13 0.928313 0.000000 -0.000001 0.000000 0.000000 0.000000
    14 2.979373 -0.388274 -0.044205 -0.000805 -0.043611 0.000046
    15 1.435262 -0.000001 -0.000001 0.000000 0.000000 0.872146
    16 1.482593 -0.000001 0.000001 0.000000 0.000000 0.907041
    17 -2.869899 1.399667 -4.140396 -1.163265 1.764468 -4.903713
    18 4.972047 0.000000 0.000000 1.036708 -0.754693 -1.693019
    19 11.585358 0.000000 0.000001 0.386603 -0.383573 -1.601969
    20 10.127058 0.000000 0.000001 1.960763 0.596700 0.774136
    21 1.537458 0.109715 1.664489 -0.264662 -0.055995 0.783079
    22 0.928313 0.000000 0.000002 0.000000 0.000000 -0.453501
    23 0.928311 0.000000 0.000001 0.000000 0.000000 0.000000
    24 2.686395 -0.427337 0.044204 -0.005762 0.043239 -0.157074
    25 1.435260 0.000000 0.000001 0.000000 0.000000 0.732613
    26 1.482593 0.000000 -0.000001 0.000000 0.000000 1.168644
    27 2.046984 0.000001 0.000000 0.254835 0.315598 -0.043866
    28 -0.000005 0.000007 3.713254 -0.099865 -3.047848 5.708602
    29 18.045723 0.000000 0.000000 0.000000 0.000000 -0.413544
    30 17.597597 0.000000 0.000000 -0.057202 -0.016721 -0.162308
    31 0.000005 -0.000003 -3.713254 0.807612 2.831522 6.175187
    32 18.045721 0.000000 0.000000 0.000000 0.000000 -0.782250
    33 17.597597 0.000000 0.000000 0.178693 0.125253 0.485308
  time 1
    0 0.254879 -0.281108 0.368674 0.000000 0.000000 -1.571017
    1 -3.359482 0.199225 0.000000 -1.570795 -1.570787 0.000000
    2 1.293670 0.684478 -0.000001 -0.000004 -0.000001 0.131529
    3 5.309685 -0.003834 0.000000 -0.000136 0.001690 0.180145
    4 4.826790 -0.004591 0.000000 -0.165718 0.048885 0.240380
    5 5.792767 -0.005304 0.000000 -0.151421 -0.009060 0.270874
    6 6.662322 -0.001452 0.000000 -0.005309 -0.005334 0.494497
    7 -3.108188 1.516823 4.339626 1.238993 -1.024532 -4.799756
    8 4.827512 0.000000 -0.000002 -0.536499 0.243194 -1.020683
    9 11.140032 0.000000 0.000000 0.070821 -0.102708 -0.678643
    10 10.314563 -0.000001 0.000001 -3.988822 0.203081 -0.504208
    11 1.646836 0.445664 -1.699647 -0.161704 0.581044 -0.283978
    12 0.928312 0.000000 0.000000 0.000000 0.000000 0.000000
    13 0.928313 0.000000 -0.000001 0.000000 0.000000 0.000000
    14 2.979373 -0.388274 -0.044205 -0.000805 -0.043611 0.000046
    15 1.435262 -0.000001 -0.000001 0.000000 0.000000 0.872146
    16 1.482593 -0.000001 0.000001 0.000000 0.000000 0.907041
    17 -2.869899 1.399667 -4.140396 -1.167086 1.765730 -4.907736
    18 4.972047 0.000000 0.000000 1.025077 -0.771566 -1.689159
    19 11.585358 0.000000 0.000001 0.386603 -0.383732 -1.593147
    20 10.127058 0.000000 0.000001 1.963428 0.597362 0.774786
    21 1.537458 0.109715 1.664489 -0.264662 -0.055995 0.783079
    22 0.928313 0.000000 0.000002 0.000000 0.000000 -0.453501
    23 0.928311 0.000000 0.000001 0.000000 0.000000 0.000000
    24 2.686395 -0.427337 0.044204 -0.005762 0.043239 -0.157074
    25 1.435260 0.000000 0.000001 0.000000 0.000000 0.732613
    26 1.482593 0.000000 -0.000001 0.000000 0.000000 1.168644
    27 2.046984 0.000001 0.000000 0.252164 0.314743 -0.017588
    28 -0.000005 0.000007 3.713254 -0.099865 -3.047656 5.708123
    29 18.045723 0.000000 0.000000 0.000000 0.000000 -0.415986
    30 17.597597 0.000000 0.000000 -0.057151 -0.016918 -0.160428
    31 0.000005 -0.000003 -3.713254 0.807804 2.831810 6.176241
    32 18.045721 0.000000 0.000000 0.000000 0.000000 -0.781699
    33 17.597597 0.000000 0.000000 0.178659 0.125746 0.485631
  time 2
    0 0.254879 -0.281108 0.368674 0.000000 0.000000 -1.571017
    1 -3.328231 0.199225 0.000000 -1.570795 -1.570787 0.000000
    2 1.293670 0.684478 -0.000001 -0.000004 -0.000001 0.131529
    3 5.309685 -0.003834 0.000000 -0.000272 0.003500 0.186221
    4 4.826790 -0.004591 0.000000 -0.164402 0.046812 0.224836
    5 5.792767 -0.005304 0.000000 -0.151385 -0.012284 0.253102
    6 6.662322 -0.001452 0.000000 -0.005309 -0.005334 0.494497
    7 -3.108188 1.516823 4.339626 1.238993 -1.024532 -4.799756
    8 4.827512 0.000000 -0.000002 -0.531477 0.269458 -1.024149
    9 11.140032 0.000000 0.000000 0.070821 -0.100087 -0.658718
    10 10.314563 -0.000001 0.000001 -3.988822 0.203081 -0.504208
    11 1.646836 0.445664 -1.699647 -0.161704 0.581044 -0.283978
    12 0.928312 0.000000 0.000000 0.000000 0.000000 0.000000
    13 0.928313 0.000000 -0.000001 0.000000 0.000000 0.000000
    14 2.979373 -0.388274 -0.044205 -0.000805 -0.043611 0.000046
    15 1.435262 -0.000001 -0.000001 0.000000 0.000000 0.872146
    16 1.482593 -0.000001 0.000001 0.000000 0.000000 0.907041
    17 -2.869899 1.399667 -4.140396 -1.163265 1.764468 -4.903713
    18 4.972047 0.000000 0.000000 1.009319 -0.792136 -1.679176
    19 11.585358 0.000000 0.000001 0.386603 -0.383823 -1.588900
    20 10.127058 0.000000 0.000001 1.970510 0.598875 0.776436
    21 1.537458 0.109715 1.664489 -0.264662 -0.055995 0.783079
    22 0.928313 0.000000 0.000002 0.000000 0.000000 -0.453501
    23 0.928311 0.000000 0.000001 0.000000 0.000000 0.000000
    24 2.686395 -0.427337 0.044204 -0.005762 0.043239 -0.157074
    25 1.435260 0.000000 0.000001 0.000000 0.000000 0.732613
    26 1.482593 0.000000 -0.000001 0.000000 0.000000 1.168644
    27 2.046984 0.000001 0.000000 0.249407 0.313858 0.010028
    28 -0.000005 0.000007 3.713254 -0.099674 -3.047369 5.707548
    29 18.045723 0.000000 0.000000 0.000000 0.000000 -0.418577
    30 17.597597 0.000000 0.000000 -0.057126 -0.017140 -0.158411
    31 0.000005 -0.000003 -3.713254 0.807899 2.832193 6.177296
    32 18.045721 0.000000 0.000000 0.000000 0.000000 -0.781148
    33 17.597597 0.000000 0.000000 0.178659 0.126298 0.485908
  time 3
    0 0.254879 -0.281108 0.368674 0.000000 0.000000 -1.571017
    1 -3.304792 0.187506 0.000000 -1.570795 -1.570787 0.000000
    2 1.293670 0.684478 -0.000001 -0.000004 -0.000001 0.131529
    3 5.309685 -0.003834 0.000000 -0.000408 0.005297 0.192280
    4 4.826790 -0.004591 0.000000 -0.163105 0.044786 0.209822
    5 5.792767 -0.005304 0.000000 -0.151295 -0.015436 0.235661
    6 6.662322 -0.001452 0.000000 -0.003008 -0.001966 0.536365
    7 -3.057405 1.653546 4.331813 1.231708 -1.022580 -4.835592
    8 4.827512 0.000000 -0.000002 -0.526694 0.297257 -1.024409
    9 11.140032 0.000000 0.000000 0.070821 -0.098514 -0.646474
    10 10.314563 -0.000001 0.000001 -3.988822 0.203081 -0.504208
    11 1.646836 0.445664 -1.699647 -0.161704 0.581044 -0.283978
    12 0.928312 0.000000 0.000000 0.000000 0.000000 0.000000
    13 0.928313 0.000000 -0.000001 0.000000 0.000000 0.000000
    14 2.979373 -0.388274 -0.044205 -0.000805 -0.043611 0.000046
    15 1.435262 -0.000001 -0.000001 0.000000 0.000000 0.872146
    16 1.482593 -0.000001 0.000001 0.000000 0.000000 0.907041
    17 -2.799584 1.501233 -4.148209 -1.132313 1.755477 -4.914440
    18 4.972047 0.000000 0.000000 0.987651 -0.815276 -1.656614
    19 11.585358 0.000000 0.000001 0.386603 -0.383777 -1.590942
    20 10.127058 0.000000 0.000001 1.980538 0.601144 0.778737
    21 1.537458 0.109715 1.664489 -0.264662 -0.055995 0.783079
    22 0.928313 0.000000 0.000002 0.000000 0.000000 -0.453501
    23 0.928311 0.000000 0.000001 0.000000 0.000000 0.000000
    24 2.686395 -0.427337 0.044204 -0.005762 0.043239 -0.157074
    25 1.435260 0.000000 0.000001 0.000000 0.000000 0.732613
    26 1.482593 0.000000 -0.000001 0.000000 0.000000 1.168644
    27 2.046984 0.000001 0.000000 0.244625 0.312383 -0.014121
    28 -0.000005 0.000007 3.713254 -0.099482 -3.047177 5.706973
    29 18.045723 0.000000 0.000000 0.000000 0.000000 -0.421093
    30 17.597597 0.000000 0.000000 -0.057075 -0.017337 -0.156393
    31 0.000005 -0.000003 -3.713254 0.808187 2.832481 6.178350
    32 18.045721 0.000000 0.000000 0.000000 0.000000 -0.780518
    33 17.597597 0.000000 0.000000 0.178659 0.126870 0.486186
  time 4
    0 0.254879 -0.281108 0.368674 0.000000 0.000000 -1.571017
    1 -3.285261 0.187506 0.000000 -1.570795 -1.570787 0.000000
    2 1.293670 0.684478 -0.000001 -0.000004 -0.000001 0.131529
    3 5.309685 -0.003834 0.000000 -0.000511 0.007023 0.197897
    4 4.826790 -0.004591 0.000000 -0.161922 0.043109 0.196989
    5 5.792767 -0.005304 0.000000 -0.151151 -0.018265 0.219466
    6 6.662322 -0.001452 0.000000 -0.000539 0.001291 0.578318
    7 -3.006622 1.790269 4.312281 1.224519 -1.020747 -4.871237
    8 4.827512 0.000000 -0.000002 -0.522389 0.322925 -1.022676
    9 11.140032 0.000000 0.000000 0.070821 -0.097765 -0.640677
    10 10.314563 -0.000001 0.000001 -3.988822 0.203081 -0.504208
    11 1.646836 0.445664 -1.699647 -0.161704 0.581044 -0.283978
    12 0.928312 0.000000 0.000000 0.000000 0.000000 0.000000
    13 0.928313 0.000000 -0.000001 0.000000 0.000000 0.000000
    14 2.979373 -0.388274 -0.044205 -0.000805 -0.043611 0.000046
    15 1.435262 -0.000001 -0.000001 0.000000 0.000000 0.872146
    16 1.482593 -0.000001 0.000001 0.000000 0.000000 0.907041
    17 -2.725363 1.606705 -4.163834 -1.094673 1.745303 -4.918176
    18 4.972047 0.000000 0.000000 0.965233 -0.837051 -1.631655
    19 11.585358 0.000000 0.000001 0.386603 -0.383686 -1.596088
    20 10.127058 0.000000 0.000001 1.991968 0.603697 0.781389
    21 1.537458 0.109715 1.664489 -0.264662 -0.055995 0.783079
    22 0.928313 0.000000 0.000002 0.000000 0.000000 -0.453501
    23 0.928311 0.000000 0.000001 0.000000 0.000000 0.000000
    24 2.686395 -0.427337 0.044204 -0.005762 0.043239 -0.157074
    25 1.435260 0.000000 0.000001 0.000000 0.000000 0.732613
    26 1.482593 0.000000 -0.000001 0.000000 0.000000 1.168644
    27 2.046984 0.000001 0.000000 0.240230 0.311025 -0.041311
    28 -0.000005 0.000007 3.713254 -0.099386 -3.046985 5.706589
    29 18.045723 0.000000 0.000000 0.000000 0.000000 -0.423092
    30 17.597597 0.000000 0.000000 -0.057050 -0.017484 -0.154834
    31 0.000005 -0.000003 -3.713254 0.808187 2.832672 6.179213
    32 18.045721 0.000000 0.000000 0.000000 0.000000 -0.780046
    33 17.597597 0.000000 0.000000 0.178659 0.127304 0.486417
  time 5
    0 0.254879 -0.281108 0.368674 0.000000 0.000000 -1.571017
    1 -3.265729 0.187506 0.000000 -1.570795 -1.570787 0.000000
    2 1.293670 0.684478 -0.000001 -0.000004 -0.000001 0.131529
    3 5.309685 -0.003834 0.000000 -0.000613 0.008449 0.202772
    4 4.826790 -0.004591 0.000000 -0.161121 0.041886 0.187861
    5 5.792767 -0.005304 0.000000 -0.150971 -0.020566 0.205409
    6 6.662322 -0.001452 0.000000 0.002037 0.004493 0.620271
    7 -2.940214 1.919179 4.300562 1.217139 -1.019032 -4.906785
    8 4.827512 0.000000 -0.000002 -0.517845 0.346887 -1.017217
    9 11.140032 0.000000 0.000000 0.070821 -0.098439 -0.646039
    10 10.314563 -0.000001 0.000001 -3.988822 0.203081 -0.504208
    11 1.646836 0.445664 -1.699647 -0.161704 0.581044 -0.283978
    12 0.928312 0.000000 0.000000 0.000000 0.000000 0.000000
    13 0.928313 0.000000 -0.000001 0.000000 0.000000 0.000000
    14 2.979373 -0.388274 -0.044205 -0.000805 -0.043611 0.000046
    15 1.435262 -0.000001 -0.000001 0.000000 0.000000 0.872146
    16 1.482593 -0.000001 0.000001 0.000000 0.000000 0.907041
    17 -2.639423 1.712177 -4.171647 -1.051684 1.734813 -4.916643
    18 4.972047 0.000000 0.000000 0.942440 -0.856817 -1.605233
    19 11.585358 0.000000 0.000001 0.386603 -0.383505 -1.605808
    20 10.127058 0.000000 0.000001 2.003469 0.606251 0.784090
    21 1.537458 0.109715 1.664489 -0.264662 -0.055995 0.783079
    22 0.928313 0.000000 0.000002 0.000000 0.000000 -0.453501
    23 0.928311 0.000000 0.000001 0.000000 0.000000 0.000000
    24 2.686395 -0.427337 0.044204 -0.005762 0.043239 -0.157074
    25 1.435260 0.000000 0.000001 0.000000 0.000000 0.732613
    26 1.482593 0.000000 -0.000001 0.000000 0.000000 1.168644
    27 2.046984 0.000001 0.000000 0.236568 0.309698 -0.073733
    28 -0.000005 0.000007 3.713254 -0.099290 -3.046889 5.706302
    29 18.045723 0.000000 0.000000 0.000000 0.000000 -0.424424
    30 17.597597 0.000000 0.000000 -0.057050 -0.017558 -0.153780
    31 0.000005 -0.000003 -3.713254 0.808379 2.832768 6.179788
    32 18.045721 0.000000 0.000000 0.000000 0.000000 -0.779731
    33 17.597597 0.000000 0.000000 0.178592 0.127600 0.486555
  time 6
    0 0.254879 -0.281108 0.368674 0.000000 0.000000 -1.571017
    1 -3.261822 0.187506 0.000000 -1.570795 -1.570787 0.000000
    2 1.293670 0.684478 -0.000001 -0.000004 -0.000001 0.131529
    3 5.309685 -0.003834 0.000000 -0.000681 0.009564 0.206393
    4 4.826790 -0.004591 0.000000 -0.160625 0.041191 0.182504
    5 5.792767 -0.005304 0.000000 -0.150719 -0.022411 0.191934
    6 6.662322 -0.001452 0.000000 0.004746 0.007558 0.662167
    7 -2.869899 2.055902 4.288843 1.209662 -1.017495 -4.942238
    8 4.827512 0.000000 -0.000002 -0.513859 0.367693 -1.012018
    9 11.140032 0.000000 0.000000 0.070821 -0.099238 -0.652125
    10 10.314563 -0.000001 0.000001 -3.988822 0.203081 -0.504208
    11 1.646836 0.445664 -1.699647 -0.161704 0.581044 -0.283978
    12 0.928312 0.000000 0.000000 0.000000 0.000000 0.000000
    13 0.928313 0.000000 -0.000001 0.000000 0.000000 0.000000
    14 2.979373 -0.388274 -0.044205 -0.000805 -0.043611 0.000046
    15 1.435262 -0.000001 -0.000001 0.000000 0.000000 0.872146
    16 1.482593 -0.000001 0.000001 0.000000 0.000000 0.907041
    17 -2.545670 1.809836 -4.187273 -1.006402 1.724980 -4.913004
    18 4.972047 0.000000 0.000000 0.921899 -0.873369 -1.581206
    19 11.585358 0.000000 0.000001 0.386603 -0.383346 -1.613077
    20 10.127058 0.000000 0.000001 2.013496 0.608520 0.786391
    21 1.537458 0.109715 1.664489 -0.264662 -0.055995 0.783079
    22 0.928313 0.000000 0.000002 0.000000 0.000000 -0.453501
    23 0.928311 0.000000 0.000001 0.000000 0.000000 0.000000
    24 2.686395 -0.427337 0.044204 -0.005762 0.043239 -0.157074
    25 1.435260 0.000000 0.000001 0.000000 0.000000 0.732613
    26 1.482593 0.000000 -0.000001 0.000000 0.000000 1.168644
    27 2.046984 0.000001 0.000000 0.233509 0.308400 -0.109318
    28 -0.000005 0.000007 3.713254 -0.099290 -3.046793 5.706110
    29 18.045723 0.000000 0.000000 0.000000 0.000000 -0.425312
    30 17.597597 0.000000 0.000000 -0.057075 -0.017583 -0.153046
    31 0.000005 -0.000003 -3.713254 0.808474 2.832864 6.180076
    32 18.045721 0.000000 0.000000 0.000000 0.000000 -0.779495
    33 17.597597 0.000000 0.000000 0.178559 0.127817 0.486647
  time 7
    0 0.254879 -0.281108 0.368674 0.000000 0.000000 -1.571017
    1 -3.254010 0.187506 0.000000 -1.570795 -1.570787 0.000000
    2 1.293670 0.684478 -0.000001 -0.000004 -0.000001 0.131529
    3 5.309685 -0.003834 0.000000 -0.000732 0.010319 0.208883
    4 4.826790 -0.004591 0.000000 -0.160377 0.040843 0.179858
    5 5.792767 -0.005304 0.000000 -0.150395 -0.023729 0.179497
    6 6.662322 -0.001452 0.000000 0.007598 0.010499 0.704177
    7 -2.799584 2.180906 4.269311 1.202090 -1.016046 -4.977499
    8 4.827512 0.000000 -0.000002 -0.510431 0.383895 -1.006299
    9 11.140032 0.000000 0.000000 0.070821 -0.100162 -0.659153
    10 10.314563 -0.000001 0.000001 -3.988822 0.203081 -0.504208
    11 1.646836 0.445664 -1.699647 -0.161704 0.581044 -0.283978
    12 0.928312 0.000000 0.000000 0.000000 0.000000 0.000000
    13 0.928313 0.000000 -0.000001 0.000000 0.000000 0.000000
    14 2.979373 -0.388274 -0.044205 -0.000805 -0.043611 0.000046
    15 1.435262 -0.000001 -0.000001 0.000000 0.000000 0.872146
    16 1.482593 -0.000001 0.000001 0.000000 0.000000 0.907041
    17 -2.455824 1.907495 -4.198992 -0.963030 1.716383 -4.910992
    18 4.972047 0.000000 0.000000 0.903889 -0.886627 -1.559576
    19 11.585358 0.000000 0.000001 0.386603 -0.383187 -1.620918
    20 10.127058 0.000000 0.000001 2.020509 0.610128 0.788041
    21 1.537458 0.109715 1.664489 -0.264662 -0.055995 0.783079
    22 0.928313 0.000000 0.000002 0.000000 0.000000 -0.453501
    23 0.928311 0.000000 0.000001 0.000000 0.000000 0.000000
    24 2.686395 -0.427337 0.044204 -0.005762 0.043239 -0.157074
    25 1.435260 0.000000 0.000001 0.000000 0.000000 0.732613
    26 1.482593 0.000000 -0.000001 0.000000 0.000000 1.168644
    27 2.046984 0.000001 0.000000 0.230968 0.306983 -0.147640
    28 -0.000005 0.000007 3.713254 -0.099194 -3.046793 5.706014
    29 18.045723 0.000000 0.000000 0.000000 0.000000 -0.425904
    30 17.597597 0.000000 0.000000 -0.057075 -0.017657 -0.152588
    31 0.000005 -0.000003 -3.713254 0.808474 2.832960 6.180364
    32 18.045721 0.000000 0.000000 0.000000 0.000000 -0.779180
    33 17.597597 0.000000 0.000000 0.178559 0.127955 0.486694
  time 8
    0 0.254879 -0.281108 0.368674 0.000000 0.000000 -1.571017
    1 -3.254010 0.187506 0.000000 -1.570795 -1.570787 0.000000
    2 1.293670 0.684478 -0.000001 -0.000004 -0.000001 0.131529
    3 5.309685 -0.003834 0.000000 -0.000766 0.010750 0.210385
    4 4.826790 -0.004591 0.000000 -0.160377 0.040843 0.179858
    5 5.792767 -0.005304 0.000000 -0.150180 -0.024233 0.172231
    6 6.662322 -0.001452 0.000000 0.007598 0.010499 0.704177
    7 -2.799584 2.180906 4.269311 1.202090 -1.016046 -4.977499
    8 4.827512 0.000000 -0.000002 -0.508199 0.392679 -1.001966
    9 11.140032 0.000000 0.000000 0.070821 -0.101061 -0.666036
    10 10.314563 -0.000001 0.000001 -3.988822 0.203081 -0.504208
    11 1.646836 0.445664 -1.699647 -0.161704 0.581044 -0.283978
    12 0.928312 0.000000 0.000000 0.000000 0.000000 0.000000
    13 0.928313 0.000000 -0.000001 0.000000 0.000000 0.000000
    14 2.979373 -0.388274 -0.044205 -0.000805 -0.043611 0.000046
    15 1.435262 -0.000001 -0.000001 0.000000 0.000000 0.872146
    16 1.482593 -0.000001 0.000001 0.000000 0.000000 0.907041
    17 -2.455824 1.903589 -4.198992 -0.940580 1.712571 -4.888101
    18 4.972047 0.000000 0.000000 0.896292 -0.892010 -1.550657
    19 11.585358 0.000000 0.000001 0.386603 -0.383119 -1.624594
    20 10.127058 0.000000 0.000001 2.023244 0.610695 0.788692
    21 1.537458 0.109715 1.664489 -0.264662 -0.055995 0.783079
    22 0.928313 0.000000 0.000002 0.000000 0.000000 -0.453501
    23 0.928311 0.000000 0.000001 0.000000 0.000000 0.000000
    24 2.686395 -0.427337 0.044204 -0.005762 0.043239 -0.157074
    25 1.435260 0.000000 0.000001 0.000000 0.000000 0.732613
    26 1.482593 0.000000 -0.000001 0.000000 0.000000 1.168644
    27 2.046984 0.000001 0.000000 0.230924 0.303590 -0.132615
    28 -0.000005 0.000007 3.713254 -0.099194 -3.046793 5.706014
    29 18.045723 0.000000 0.000000 0.000000 0.000000 -0.425904
    30 17.597597 0.000000 0.000000 -0.057126 -0.017632 -0.152680
    31 0.000005 -0.000003 -3.713254 0.808474 2.832864 6.180364
    32 18.045721 0.000000 0.000000 0.000000 0.000000 -0.779180
    33 17.597597 0.000000 0.000000 0.178458 0.127955 0.486647
  time 9
    0 0.254879 -0.281108 0.368674 0.000000 0.000000 -1.571017
    1 -3.265729 0.187506 0.000000 -1.570795 -1.570787 0.000000
    2 1.293670 0.684478 -0.000001 -0.000004 -0.000001 0.131529
    3 5.309685 -0.003834 0.000000 -0.000766 0.010822 0.210650
    4 4.826790 -0.004591 0.000000 -0.160625 0.041191 0.182504
    5 5.792767 -0.005304 0.000000 -0.150162 -0.023526 0.174411
    6 6.662322 -0.001452 0.000000 0.007598 0.010499 0.704177
    7 -2.799584 2.180906 4.269311 1.202090 -1.016046 -4.977499
    8 4.827512 0.000000 -0.000002 -0.507880 0.389012 -0.998760
    9 11.140032 0.000000 0.000000 0.070821 -0.102234 -0.675093
    10 10.314563 -0.000001 0.000001 -3.988822 0.203081 -0.504208
    11 1.646836 0.445664 -1.699647 -0.161704 0.581044 -0.283978
    12 0.928312 0.000000 0.000000 0.000000 0.000000 0.000000
    13 0.928313 0.000000 -0.000001 0.000000 0.000000 0.000000
    14 2.979373 -0.388274 -0.044205 -0.000805 -0.043611 0.000046
    15 1.435262 -0.000001 -0.000001 0.000000 0.000000 0.872146
    16 1.482593 -0.000001 0.000001 0.000000 0.000000 0.907041
    17 -2.455824 1.907495 -4.198992 -0.926155 1.710336 -4.873446
    18 4.972047 0.000000 0.000000 0.897886 -0.888475 -1.548794
    19 11.585358 0.000000 0.000001 0.386603 -0.383051 -1.627943
    20 10.127058 0.000000 0.000001 2.021981 0.610412 0.788392
    21 1.537458 0.109715 1.664489 -0.264662 -0.055995 0.783079
    22 0.928313 0.000000 0.000002 0.000000 0.000000 -0.453501
    23 0.928311 0.000000 0.000001 0.000000 0.000000 0.000000
    24 2.686395 -0.427337 0.044204 -0.005762 0.043239 -0.157074
    25 1.435260 0.000000 0.000001 0.000000 0.000000 0.732613
    26 1.482593 0.000000 -0.000001 0.000000 0.000000 1.168644
    27 2.046984 0.000001 0.000000 0.231786 0.300434 -0.128539
    28 -0.000005 0.000007 3.713254 -0.099194 -3.046889 5.706206
    29 18.045723 0.000000 0.000000 0.000000 0.000000 -0.424868
    30 17.597597 0.000000 0.000000 -0.057202 -0.017558 -0.153413
    31 0.000005 -0.000003 -3.713254 0.808474 2.832672 6.179980
    32 18.045721 0.000000 0.000000 0.000000 0.000000 -0.779495
    33 17.597597 0.000000 0.000000 0.178391 0.127758 0.486463
  time 10
    0 0.254879 -0.281108 0.368674 0.000000 0.000000 -1.571017
    1 -3.285261 0.199225 0.000000 -1.570795 -1.570787 0.000000
    2 1.293670 0.684478 -0.000001 -0.000004 -0.000001 0.131529
    3 5.309685 -0.003834 0.000000 -0.000732 0.010475 0.209396
    4 4.826790 -0.004591 0.000000 -0.161121 0.041886 0.187861
    5 5.792767 -0.005304 0.000000 -0.150395 -0.021464 0.187117
    6 6.662322 -0.001452 0.000000 0.007598 0.010499 0.704177
    7 -2.799584 2.180906 4.269311 1.202090 -1.016046 -4.977499
    8 4.827512 0.000000 -0.000002 -0.509156 0.373577 -0.995554
    9 11.140032 0.000000 0.000000 0.070821 -0.104206 -0.690163
    10 10.314563 -0.000001 0.000001 -3.988822 0.203081 -0.504208
    11 1.646836 0.445664 -1.699647 -0.161704 0.581044 -0.283978
    12 0.928312 0.000000 0.000000 0.000000 0.000000 0.000000
    13 0.928313 0.000000 -0.000001 0.000000 0.000000 0.000000
    14 2.979373 -0.388274 -0.044205 -0.000805 -0.043611 0.000046
    15 1.435262 -0.000001 -0.000001 0.000000 0.000000 0.872146
    16 1.482593 -0.000001 0.000001 0.000000 0.000000 0.907041
    17 -2.451918 1.903589 -4.202898 -0.916506 1.708838 -4.863581
    18 4.972047 0.000000 0.000000 0.907266 -0.876583 -1.551989
    19 11.585358 0.000000 0.000001 0.386603 -0.382960 -1.632844
    20 10.127058 0.000000 0.000001 2.018615 0.609655 0.787591
    21 1.537458 0.109715 1.664489 -0.264662 -0.055995 0.783079
    22 0.928313 0.000000 0.000002 0.000000 0.000000 -0.453501
    23 0.928311 0.000000 0.000001 0.000000 0.000000 0.000000
    24 2.686395 -0.427337 0.044204 -0.005762 0.043239 -0.157074
    25 1.435260 0.000000 0.000001 0.000000 0.000000 0.732613
    26 1.482593 0.000000 -0.000001 0.000000 0.000000 1.168644
    27 2.046984 0.000001 0.000000 0.233509 0.297454 -0.136325
    28 -0.000005 0.000007 3.713254 -0.099194 -3.047177 5.706589
    29 18.045723 0.000000 0.000000 0.000000 0.000000 -0.423018
    30 17.597597 0.000000 0.000000 -0.057278 -0.017361 -0.154880
    31 0.000005 -0.000003 -3.713254 0.808474 2.832385 6.179213
    32 18.045721 0.000000 0.000000 0.000000 0.000000 -0.780046
    33 17.597597 0.000000 0.000000 0.178324 0.127383 0.486186
  time 11
    0 0.254879 -0.281108 0.368674 0.000000 0.000000 -1.571017
    1 -3.320418 0.207038 0.000000 -1.570795 -1.570787 0.000000
    2 1.293670 0.684478 -0.000001 -0.000004 -0.000001 0.131529
    3 5.309685 -0.003834 0.000000 -0.000681 0.009564 0.206393
    4 4.826790 -0.004591 0.000000 -0.162056 0.043228 0.198070
    5 5.792767 -0.005304 0.000000 -0.150719 -0.018432 0.206634
    6 6.662322 -0.001452 0.000000 0.007598 0.010499 0.704177
    7 -2.799584 2.180906 4.269311 1.202090 -1.016046 -4.977499
    8 4.827512 0.000000 -0.000002 -0.512185 0.348933 -0.991395
    9 11.140032 0.000000 0.000000 0.070821 -0.106928 -0.712189
    10 10.314563 -0.000001 0.000001 -3.988822 0.203081 -0.504208
    11 1.646836 0.445664 -1.699647 -0.161704 0.581044 -0.283978
    12 0.928312 0.000000 0.000000 0.000000 0.000000 0.000000
    13 0.928313 0.000000 -0.000001 0.000000 0.000000 0.000000
    14 2.979373 -0.388274 -0.044205 -0.000805 -0.043611 0.000046
    15 1.435262 -0.000001 -0.000001 0.000000 0.000000 0.872146
    16 1.482593 -0.000001 0.000001 0.000000 0.000000 0.907041
    17 -2.455824 1.907495 -4.202898 -0.912589 1.708207 -4.859654
    18 4.972047 0.000000 0.000000 0.923399 -0.857862 -1.560042
    19 11.585358 0.000000 0.000001 0.386603 -0.382824 -1.639296
    20 10.127058 0.000000 0.000001 2.013496 0.608520 0.786391
    21 1.537458 0.109715 1.664489 -0.264662 -0.055995 0.783079
    22 0.928313 0.000000 0.000002 0.000000 0.000000 -0.453501
    23 0.928311 0.000000 0.000001 0.000000 0.000000 0.000000
    24 2.686395 -0.427337 0.044204 -0.005762 0.043239 -0.157074
    25 1.435260 0.000000 0.000001 0.000000 0.000000 0.732613
    26 1.482593 0.000000 -0.000001 0.000000 0.000000 1.168644
    27 2.046984 0.000001 0.000000 0.236439 0.294857 -0.154209
    28 -0.000005 0.000007 3.713254 -0.099290 -3.047560 5.707165
    29 18.045723 0.000000 0.000000 0.000000 0.000000 -0.420057
    30 17.597597 0.000000 0.000000 -0.057430 -0.017066 -0.157264
    31 0.000005 -0.000003 -3.713254 0.808474 2.831905 6.177967
    32 18.045721 0.000000 0.000000 0.000000 0.000000 -0.780597
    33 17.597597 0.000000 0.000000 0.178190 0.126811 0.485770
  time 12
    0 0.254879 -0.281108 0.368674 0.000000 0.000000 -1.571017
    1 -3.336043 0.199225 0.000000 -1.570795 -1.570787 0.000000
    2 1.293670 0.684478 -0.000001 -0.000004 -0.000001 0.131529
    3 5.309685 -0.003834 0.000000 -0.000511 0.006759 0.197155
    4 4.826790 -0.004591 0.000000 -0.163391 0.045242 0.213041
    5 5.792767 -0.005304 0.000000 -0.151007 -0.014885 0.229660
    6 6.662322 -0.001452 0.000000 0.007598 0.010499 0.704177
    7 -2.799584 2.180906 4.269311 1.202090 -1.016046 -4.977499
    8 4.827512 0.000000 -0.000002 -0.517686 0.319599 -0.991481
    9 11.140032 0.000000 0.000000 0.070821 -0.108401 -0.724289
    10 10.314563 -0.000001 0.000001 -3.988822 0.203081 -0.504208
    11 1.646836 0.445664 -1.699647 -0.161704 0.581044 -0.283978
    12 0.928312 0.000000 0.000000 0.000000 0.000000 0.000000
    13 0.928313 0.000000 -0.000001 0.000000 0.000000 0.000000
    14 2.979373 -0.388274 -0.044205 -0.000805 -0.043611 0.000046
    15 1.435262 -0.000001 -0.000001 0.000000 0.000000 0.872146
    16 1.482593 -0.000001 0.000001 0.000000 0.000000 0.907041
    17 -2.455824 1.903589 -4.198992 -0.914978 1.708601 -4.862049
    18 4.972047 0.000000 0.000000 0.943097 -0.836408 -1.572155
    19 11.585358 0.000000 0.000001 0.386603 -0.382779 -1.641583
    20 10.127058 0.000000 0.000001 2.007045 0.607102 0.784890
    21 1.537458 0.109715 1.664489 -0.264662 -0.055995 0.783079
    22 0.928313 0.000000 0.000002 0.000000 0.000000 -0.453501
    23 0.928311 0.000000 0.000001 0.000000 0.000000 0.000000
    24 2.686395 -0.427337 0.044204 -0.005762 0.043239 -0.157074
    25 1.435260 0.000000 0.000001 0.000000 0.000000 0.732613
    26 1.482593 0.000000 -0.000001 0.000000 0.000000 1.168644
    27 2.046984 0.000001 0.000000 0.240187 0.292704 -0.174039
    28 -0.000005 0.000007 3.713254 -0.099290 -3.047656 5.707548
    29 18.045723 0.000000 0.000000 0.000000 0.000000 -0.418503
    30 17.597597 0.000000 0.000000 -0.057455 -0.017066 -0.158411
    31 0.000005 -0.000003 -3.713254 0.808474 2.831810 6.177392
    32 18.045721 0.000000 0.000000 0.000000 0.000000 -0.781148
    33 17.597597 0.000000 0.000000 0.178123 0.126456 0.485631
  time 13
    0 0.254879 -0.281108 0.368674 0.000000 0.000000 -1.571017
    1 -3.328231 0.187506 0.000000 -1.570795 -1.570787 0.000000
    2 1.293670 0.684478 -0.000001 -0.000004 -0.000001 0.131529
    3 5.309685 -0.003834 0.000000 -0.000221 0.002685 0.183448
    4 4.826790 -0.004591 0.000000 -0.164783 0.047459 0.229643
    5 5.792767 -0.005304 0.000000 -0.151223 -0.011313 0.253081
    6 6.662322 -0.001452 0.000000 0.004746 0.007558 0.662167
    7 -2.869899 2.055902 4.288843 1.209662 -1.017495 -4.942238
    8 4.827512 0.000000 -0.000002 -0.524302 0.290691 -0.997287
    9 11.140032 0.000000 0.000000 0.070821 -0.108276 -0.723347
    10 10.314563 -0.000001 0.000001 -3.988822 0.203081 -0.504208
    11 1.646836 0.445664 -1.699647 -0.161704 0.581044 -0.283978
    12 0.928312 0.000000 0.000000 0.000000 0.000000 0.000000
    13 0.928313 0.000000 -0.000001 0.000000 0.000000 0.000000
    14 2.979373 -0.388274 -0.044205 -0.000805 -0.043611 0.000046
    15 1.435262 -0.000001 -0.000001 0.000000 0.000000 0.872146
    16 1.482593 -0.000001 0.000001 0.000000 0.000000 0.907041
    17 -2.549577 1.805929 -4.187273 -0.939147 1.712781 -4.844138
    18 4.972047 0.000000 0.000000 0.965046 -0.814393 -1.589859
    19 11.585358 0.000000 0.000001 0.386603 -0.382847 -1.638480
    20 10.127058 0.000000 0.000001 1.999752 0.605494 0.783189
    21 1.537458 0.109715 1.664489 -0.264662 -0.055995 0.783079
    22 0.928313 0.000000 0.000002 0.000000 0.000000 -0.453501
    23 0.928311 0.000000 0.000001 0.000000 0.000000 0.000000
    24 2.686395 -0.427337 0.044204 -0.005762 0.043239 -0.157074
    25 1.435260 0.000000 0.000001 0.000000 0.000000 0.732613
    26 1.482593 0.000000 -0.000001 0.000000 0.000000 1.168644
    27 2.046984 0.000001 0.000000 0.244711 0.297896 -0.158771
    28 -0.000005 0.000007 3.713254 -0.099290 -3.047369 5.707548
    29 18.045723 0.000000 0.000000 0.000000 0.000000 -0.418651
    30 17.597597 0.000000 0.000000 -0.057430 -0.017287 -0.158273
    31 0.000005 -0.000003 -3.713254 0.808474 2.832001 6.177488
    32 18.045721 0.000000 0.000000 0.000000 0.000000 -0.781148
    33 17.597597 0.000000 0.000000 0.178022 0.126377 0.485862
  time 14
    0 0.254879 -0.281108 0.368674 0.000000 0.000000 -1.571017
    1 -3.339950 0.187506 0.000000 -1.570795 -1.570787 0.000000
    2 1.293670 0.684478 -0.000001 -0.000004 -0.000001 0.131529
    3 5.309685 -0.003834 0.000000 0.000000 0.000000 0.174510
    4 4.826790 -0.004591 0.000000 -0.166042 0.049460 0.244658
    5 5.792767 -0.005304 0.000000 -0.151349 -0.008185 0.273594
    6 6.662322 -0.001452 0.000000 0.002037 0.004493 0.620271
    7 -2.940214 1.919179 4.300562 1.217139 -1.019032 -4.906785
    8 4.827512 0.000000 -0.000002 -0.530998 0.261954 -1.000060
    9 11.140032 0.000000 0.000000 0.070821 -0.108925 -0.728708
    10 10.314563 -0.000001 0.000001 -3.988822 0.203081 -0.504208
    11 1.646836 0.445664 -1.699647 -0.161704 0.581044 -0.283978
    12 0.928312 0.000000 0.000000 0.000000 0.000000 0.000000
    13 0.928313 0.000000 -0.000001 0.000000 0.000000 0.000000
    14 2.979373 -0.388274 -0.044205 -0.000805 -0.043611 0.000046
    15 1.435262 -0.000001 -0.000001 0.000000 0.000000 0.872146
    16 1.482593 -0.000001 0.000001 0.000000 0.000000 0.907041
    17 -2.639423 1.712177 -4.171647 -0.969813 1.718250 -4.832836
    18 4.972047 0.000000 0.000000 0.986807 -0.792457 -1.608760
    19 11.585358 0.000000 0.000001 0.386603 -0.382870 -1.637908
    20 10.127058 0.000000 0.000001 1.991968 0.603697 0.781389
    21 1.537458 0.109715 1.664489 -0.264662 -0.055995 0.783079
    22 0.928313 0.000000 0.000002 0.000000 0.000000 -0.453501
    23 0.928311 0.000000 0.000001 0.000000 0.000000 0.000000
    24 2.686395 -0.427337 0.044204 -0.005762 0.043239 -0.157074
    25 1.435260 0.000000 0.000001 0.000000 0.000000 0.732613
    26 1.482593 0.000000 -0.000001 0.000000 0.000000 1.168644
    27 2.046984 0.000001 0.000000 0.248976 0.303000 -0.143929
    28 -0.000005 0.000007 3.713254 -0.099290 -3.047464 5.707836
    29 18.045723 0.000000 0.000000 0.000000 0.000000 -0.417319
    30 17.597597 0.000000 0.000000 -0.057430 -0.017287 -0.159327
    31 0.000005 -0.000003 -3.713254 0.808666 2.831905 6.177008
    32 18.045721 0.000000 0.000000 0.000000 0.000000 -0.781463
    33 17.597597 0.000000 0.000000 0.177955 0.126022 0.485770
  time 15
    0 0.254879 -0.281108 0.368674 0.000000 0.000000 -1.571017
    1 -3.371201 0.199225 0.000000 -1.570795 -1.570787 0.000000
    2 1.293670 0.684478 -0.000001 -0.000004 -0.000001 0.131529
    3 5.309685 -0.003834 0.000000 0.000051 -0.000707 0.172055
    4 4.826790 -0.004591 0.000000 -0.166920 0.050875 0.254844
    5 5.792767 -0.005304 0.000000 -0.151403 -0.005992 0.288025
    6 6.662322 -0.001452 0.000000 -0.000539 0.001291 0.578318
    7 -3.006622 1.790269 4.312281 1.224519 -1.020747 -4.871237
    8 4.827512 0.000000 -0.000002 -0.536579 0.238930 -1.001013
    9 11.140032 0.000000 0.000000 0.070821 -0.110023 -0.737765
    10 10.314563 -0.000001 0.000001 -3.988822 0.203081 -0.504208
    11 1.646836 0.445664 -1.699647 -0.161704 0.581044 -0.283978
    12 0.928312 0.000000 0.000000 0.000000 0.000000 0.000000
    13 0.928313 0.000000 -0.000001 0.000000 0.000000 0.000000
    14 2.979373 -0.388274 -0.044205 -0.000805 -0.043611 0.000046
    15 1.435262 -0.000001 -0.000001 0.000000 0.000000 0.872146
    16 1.482593 -0.000001 0.000001 0.000000 0.000000 0.907041
    17 -2.721457 1.610611 -4.163834 -1.016910 1.727267 -4.838678
    18 4.972047 0.000000 0.000000 1.007161 -0.773414 -1.631855
    19 11.585358 0.000000 0.000001 0.386603 -0.382915 -1.634804
    20 10.127058 0.000000 0.000001 1.984255 0.601995 0.779638
    21 1.537458 0.109715 1.664489 -0.264662 -0.055995 0.783079
    22 0.928313 0.000000 0.000002 0.000000 0.000000 -0.453501
    23 0.928311 0.000000 0.000001 0.000000 0.000000 0.000000
    24 2.686395 -0.427337 0.044204 -0.005762 0.043239 -0.157074
    25 1.435260 0.000000 0.000001 0.000000 0.000000 0.732613
    26 1.482593 0.000000 -0.000001 0.000000 0.000000 1.168644
    27 2.046984 0.000001 0.000000 0.252294 0.307750 -0.124646
    28 -0.000005 0.000007 3.713254 -0.099290 -3.047752 5.708411
    29 18.045723 0.000000 0.000000 0.000000 0.000000 -0.414654
    30 17.597597 0.000000 0.000000 -0.057582 -0.017066 -0.161391
    31 0.000005 -0.000003 -3.713254 0.808474 2.831522 6.175954
    32 18.045721 0.000000 0.000000 0.000000 0.000000 -0.782014
    33 17.597597 0.000000 0.000000 0.177854 0.125529 0.485400
  time 16
    0 0.254879 -0.281108 0.368674 0.000000 0.000000 -1.571017
    1 -3.382920 0.199225 0.000000 -1.570795 -1.570787 0.000000
    2 1.293670 0.684478 -0.000001 -0.000004 -0.000001 0.131529
    3 5.309685 -0.003834 0.000000 0.000068 -0.000935 0.171366
    4 4.826790 -0.004591 0.000000 -0.167263 0.051462 0.259144
    5 5.792767 -0.005304 0.000000 -0.151421 -0.004950 0.294648
    6 6.662322 -0.001452 0.000000 -0.003008 -0.001966 0.536365
    7 -3.057405 1.653546 4.331813 1.231708 -1.022580 -4.835592
    8 4.827512 0.000000 -0.000002 -0.539767 0.226395 -1.004739
    9 11.140032 0.000000 0.000000 0.070821 -0.109674 -0.734794
    10 10.314563 -0.000001 0.000001 -3.988822 0.203081 -0.504208
    11 1.646836 0.445664 -1.699647 -0.161704 0.581044 -0.283978
    12 0.928312 0.000000 0.000000 0.000000 0.000000 0.000000
    13 0.928313 0.000000 -0.000001 0.000000 0.000000 0.000000
    14 2.979373 -0.388274 -0.044205 -0.000805 -0.043611 0.000046
    15 1.435262 -0.000001 -0.000001 0.000000 0.000000 0.872146
    16 1.482593 -0.000001 0.000001 0.000000 0.000000 0.907041
    17 -2.799584 1.501233 -4.148209 -1.077095 1.740570 -4.857643
    18 4.972047 0.000000 0.000000 1.021982 -0.761924 -1.656347
    19 11.585358 0.000000 0.000001 0.386603 -0.383074 -1.626799
    20 10.127058 0.000000 0.000001 1.976962 0.600388 0.777937
    21 1.537458 0.109715 1.664489 -0.264662 -0.055995 0.783079
    22 0.928313 0.000000 0.000002 0.000000 0.000000 -0.453501
    23 0.928311 0.000000 0.000001 0.000000 0.000000 0.000000
    24 2.686395 -0.427337 0.044204 -0.005762 0.043239 -0.157074
    25 1.435260 0.000000 0.000001 0.000000 0.000000 0.732613
    26 1.482593 0.000000 -0.000001 0.000000 0.000000 1.168644
    27 2.046984 0.000001 0.000000 0.254362 0.311969 -0.093320
    28 -0.000005 0.000007 3.713254 -0.099386 -3.047944 5.708698
    29 18.045723 0.000000 0.000000 0.000000 0.000000 -0.413396
    30 17.597597 0.000000 0.000000 -0.057658 -0.016943 -0.162445
    31 0.000005 -0.000003 -3.713254 0.808474 2.831330 6.175474
    32 18.045721 0.000000 0.000000 0.000000 0.000000 -0.782250
    33 17.597597 0.000000 0.000000 0.177787 0.125292 0.485216
  time 17
    0 0.254879 -0.281108 0.368674 0.000000 0.000000 -1.571017
    1 -3.394639 0.207038 0.000000 -1.570795 -1.570787 0.000000
    2 1.293670 0.684478 -0.000001 -0.000004 -0.000001 0.131529
    3 5.309685 -0.003834 0.000000 0.000051 -0.000791 0.171843
    4 4.826790 -0.004591 0.000000 -0.167282 0.051534 0.259673
    5 5.792767 -0.005304 0.000000 -0.151421 -0.004818 0.295458
    6 6.662322 -0.001452 0.000000 -0.005309 -0.005334 0.494497
    7 -3.108188 1.516823 4.339626 1.238993 -1.024532 -4.799756
    8 4.827512 0.000000 -0.000002 -0.541601 0.219488 -1.011064
    9 11.140032 0.000000 0.000000 0.070821 -0.108026 -0.721246
    10 10.314563 -0.000001 0.000001 -3.988822 0.203081 -0.504208
    11 1.646836 0.445664 -1.699647 -0.161704 0.581044 -0.283978
    12 0.928312 0.000000 0.000000 0.000000 0.000000 0.000000
    13 0.928313 0.000000 -0.000001 0.000000 0.000000 0.000000
    14 2.979373 -0.388274 -0.044205 -0.000805 -0.043611 0.000046
    15 1.435262 -0.000001 -0.000001 0.000000 0.000000 0.872146
    16 1.482593 -0.000001 0.000001 0.000000 0.000000 0.907041
    17 -2.869899 1.399667 -4.140396 -1.133077 1.755162 -4.872680
    18 4.972047 0.000000 0.000000 1.032768 -0.755175 -1.679708
    19 11.585358 0.000000 0.000001 0.386603 -0.383323 -1.614956
    20 10.127058 0.000000 0.000001 1.970510 0.598875 0.776436
    21 1.537458 0.109715 1.664489 -0.264662 -0.055995 0.783079
    22 0.928313 0.000000 0.000002 0.000000 0.000000 -0.453501
    23 0.928311 0.000000 0.000001 0.000000 0.000000 0.000000
    24 2.686395 -0.427337 0.044204 -0.005762 0.043239 -0.157074
    25 1.435260 0.000000 0.000001 0.000000 0.000000 0.732613
    26 1.482593 0.000000 -0.000001 0.000000 0.000000 1.168644
    27 2.046984 0.000001 0.000000 0.255783 0.315952 -0.053538
    28 -0.000005 0.000007 3.713254 -0.099290 -3.048040 5.708698
    29 18.045723 0.000000 0.000000 0.000000 0.000000 -0.412952
    30 17.597597 0.000000 0.000000 -0.057709 -0.016918 -0.162812
    31 0.000005 -0.000003 -3.713254 0.808474 2.831234 6.175283
    32 18.045721 0.000000 0.000000 0.000000 0.000000 -0.782486
    33 17.597597 0.000000 0.000000 0.177720 0.125214 0.485123
  time 18
    0 0.254879 -0.281108 0.368674 0.000000 0.000000 -1.571017
    1 -3.394639 0.207038 0.000000 -1.570795 -1.570787 0.000000
    2 1.293670 0.684478 -0.000001 -0.000004 -0.000001 0.131529
    3 5.309685 -0.003834 0.000000 0.000017 -0.000443 0.172938
    4 4.826790 -0.004591 0.000000 -0.167187 0.051294 0.258041
    5 5.792767 -0.005304 0.000000 -0.151421 -0.005213 0.293008
    6 6.662322 -0.001452 0.000000 -0.005309 -0.005334 0.494497
    7 -3.108188 1.516823 4.339626 1.238993 -1.024532 -4.799756
    8 4.827512 0.000000 -0.000002 -0.541999 0.217527 -1.015830
    9 11.140032 0.000000 0.000000 0.070821 -0.106478 -0.708421
    10 10.314563 -0.000001 0.000001 -3.988822 0.203081 -0.504208
    11 1.646836 0.445664 -1.699647 -0.161704 0.581044 -0.283978
    12 0.928312 0.000000 0.000000 0.000000 0.000000 0.000000
    13 0.928313 0.000000 -0.000001 0.000000 0.000000 0.000000
    14 2.979373 -0.388274 -0.044205 -0.000805 -0.043611 0.000046
    15 1.435262 -0.000001 -0.000001 0.000000 0.000000 0.872146
    16 1.482593 -0.000001 0.000001 0.000000 0.000000 0.907041
    17 -2.869899 1.399667 -4.140396 -1.163265 1.764468 -4.903713
    18 4.972047 0.000000 0.000000 1.037365 -0.753407 -1.692687
    19 11.585358 0.000000 0.000001 0.386603 -0.383482 -1.605971
    20 10.127058 0.000000 0.000001 1.965391 0.597740 0.775236
    21 1.537458 0.109715 1.664489 -0.264662 -0.055995 0.783079
    22 0.928313 0.000000 0.000002 0.000000 0.000000 -0.453501
    23 0.928311 0.000000 0.000001 0.000000 0.000000 0.000000
    24 2.686395 -0.427337 0.044204 -0.005762 0.043239 -0.157074
    25 1.435260 0.000000 0.000001 0.000000 0.000000 0.732613
    26 1.482593 0.000000 -0.000001 0.000000 0.000000 1.168644
    27 2.046984 0.000001 0.000000 0.255525 0.315834 -0.050557
    28 -0.000005 0.000007 3.713254 -0.099290 -3.048040 5.708698
    29 18.045723 0.000000 0.000000 0.000000 0.000000 -0.413026
    30 17.597597 0.000000 0.000000 -0.057734 -0.016918 -0.162674
    31 0.000005 -0.000003 -3.713254 0.808666 2.831234 6.175283
    32 18.045721 0.000000 0.000000 0.000000 0.000000 -0.782250
    33 17.597597 0.000000 0.000000 0.177686 0.125233 0.485123
  time 19
    0 0.254879 -0.281108 0.368674 0.000000 0.000000 -1.571017
    1 -3.386826 0.207038 0.000000 -1.570795 -1.570787 0.000000
    2 1.293670 0.684478 -0.000001 -0.000004 -0.000001 0.131529
    3 5.309685 -0.003834 0.000000 0.000000 -0.000144 0.174015
    4 4.826790 -0.004591 0.000000 -0.167015 0.050994 0.255902
    5 5.792767 -0.005304 0.000000 -0.151403 -0.005717 0.289686
    6 6.662322 -0.001452 0.000000 -0.005309 -0.005334 0.494497
    7 -3.108188 1.516823 4.339626 1.238993 -1.024532 -4.799756
    8 4.827512 0.000000 -0.000002 -0.541680 0.219147 -1.017130
    9 11.140032 0.000000 0.000000 0.070821 -0.105804 -0.702915
    10 10.314563 -0.000001 0.000001 -3.988822 0.203081 -0.504208
    11 1.646836 0.445664 -1.699647 -0.161704 0.581044 -0.283978
    12 0.928312 0.000000 0.000000 0.000000 0.000000 0.000000
    13 0.928313 0.000000 -0.000001 0.000000 0.000000 0.000000
    14 2.979373 -0.388274 -0.044205 -0.000805 -0.043611 0.000046
    15 1.435262 -0.000001 -0.000001 0.000000 0.000000 0.872146
    16 1.482593 -0.000001 0.000001 0.000000 0.000000 0.907041
    17 -2.869899 1.399667 -4.140396 -1.168424 1.766151 -4.908981
    18 4.972047 0.000000 0.000000 1.037552 -0.754050 -1.694950
    19 11.585358 0.000000 0.000001 0.386603 -0.383550 -1.602541
    20 10.127058 0.000000 0.000001 1.961955 0.596983 0.774436
    21 1.537458 0.109715 1.664489 -0.264662 -0.055995 0.783079
    22 0.928313 0.000000 0.000002 0.000000 0.000000 -0.453501
    23 0.928311 0.000000 0.000001 0.000000 0.000000 0.000000
    24 2.686395 -0.427337 0.044204 -0.005762 0.043239 -0.157074
    25 1.435260 0.000000 0.000001 0.000000 0.000000 0.732613
    26 1.482593 0.000000 -0.000001 0.000000 0.000000 1.168644
    27 2.046984 0.000001 0.000000 0.255094 0.315657 -0.046056
    28 -0.000005 0.000007 3.713254 -0.099290 -3.048040 5.708698
    29 18.045723 0.000000 0.000000 0.000000 0.000000 -0.413322
    30 17.597597 0.000000 0.000000 -0.057734 -0.016918 -0.162491
    31 0.000005 -0.000003 -3.713254 0.808666 2.831234 6.175474
    32 18.045721 0.000000 0.000000 0.000000 0.000000 -0.782250
    33 17.597597 0.000000 0.000000 0.177586 0.125312 0.485123
  time 20
    0 0.254879 -0.281108 0.368674 0.000000 0.000000 -1.571017
    1 -3.386826 0.207038 0.000000 -1.570795 -1.570787 0.000000
    2 1.293670 0.684478 -0.000001 -0.000004 -0.000001 0.131529
    3 5.309685 -0.003834 0.000000 0.000000 0.000000 0.174510
    4 4.826790 -0.004591 0.000000 -0.166920 0.050875 0.254844
    5 5.792767 -0.005304 0.000000 -0.151403 -0.005992 0.288025
    6 6.662322 -0.001452 0.000000 -0.005309 -0.005334 0.494497
    7 -3.108188 1.516823 4.339626 1.238993 -1.024532 -4.799756
    8 4.827512 0.000000 -0.000002 -0.541441 0.220341 -1.017043
    9 11.140032 0.000000 0.000000 0.070821 -0.105579 -0.701031
    10 10.314563 -0.000001 0.000001 -3.988822 0.203081 -0.504208
    11 1.646836 0.445664 -1.699647 -0.161704 0.581044 -0.283978
    12 0.928312 0.000000 0.000000 0.000000 0.000000 0.000000
    13 0.928313 0.000000 -0.000001 0.000000 0.000000 0.000000
    14 2.979373 -0.388274 -0.044205 -0.000805 -0.043611 0.000046
    15 1.435262 -0.000001 -0.000001 0.000000 0.000000 0.872146
    16 1.482593 -0.000001 0.000001 0.000000 0.000000 0.907041
    17 -2.869899 1.399667 -4.140396 -1.163265 1.764468 -4.903713
    18 4.972047 0.000000 0.000000 1.036708 -0.754693 -1.693019
    19 11.585358 0.000000 0.000001 0.386603 -0.383573 -1.601969
    20 10.127058 0.000000 0.000001 1.960763 0.596700 0.774136
    21 1.537458 0.109715 1.664489 -0.264662 -0.055995 0.783079
    22 0.928313 0.000000 0.000002 0.000000 0.000000 -0.453501
    23 0.928311 0.000000 0.000001 0.000000 0.000000 0.000000
    24 2.686395 -0.427337 0.044204 -0.005762 0.043239 -0.157074
    25 1.435260 0.000000 0.000001 0.000000 0.000000 0.732613
    26 1.482593 0.000000 -0.000001 0.000000 0.000000 1.168644
    27 2.046984 0.000001 0.000000 0.254835 0.315598 -0.043866
    28 -0.000005 0.000007 3.713254 -0.099865 -3.047848 5.708602
    29 18.045723 0.000000 0.000000 0.000000 0.000000 -0.413544
    30 17.597597 0.000000 0.000000 -0.057202 -0.016721 -0.162308
    31 0.000005 -0.000003 -3.713254 0.807612 2.831522 6.175187
    32 18.045721 0.000000 0.000000 0.000000 0.000000 -0.782250
    33 17.597597 0.000000 0.000000 0.178693 0.125253 0.485308
end
