version 1
nodes
  0 "Bip01" -1
  1 "Bip01 Pelvis" 0
  2 "Bip01 Spine" 1
  3 "Bip01 Spine1" 2
  4 "Bip01 Spine2" 3
  5 "Bip01 Spine3" 4
  6 "Bip01 Neck" 5
  7 "Bip01 L Arm" 6
  8 "Bip01 L Arm1" 7
  9 "Bip01 L Arm2" 8
  10 "Bip01 L Hand" 9
  11 "Bip01 L Finger0" 10
  12 "Bip01 L Finger01" 11
  13 "Bip01 L Finger02" 12
  14 "Bip01 L Finger1" 10
  15 "Bip01 L Finger11" 14
  16 "Bip01 L Finger12" 15
  17 "Bip01 R Arm" 6
  18 "Bip01 R Arm1" 17
  19 "Bip01 R Arm2" 18
  20 "Bip01 R Hand" 19
  21 "Bip01 R Finger0" 20
  22 "Bip01 R Finger01" 21
  23 "Bip01 R Finger02" 22
  24 "Bip01 R Finger1" 20
  25 "Bip01 R Finger11" 24
  26 "Bip01 R Finger12" 25
  27 "Bip01 Head" 6
  28 "Bip01 L Leg" 1
  29 "Bip01 L Leg1" 28
  30 "Bip01 L Foot" 29
  31 "Bip01 R Leg" 1
  32 "Bip01 R Leg1" 31
  33 "Bip01 R Foot" 32
end
skeleton
  time 0
    0 0.461917 3.328378 0.368674 0.000000 0.000000 -1.571017
    1 0.218753 -0.007813 0.000000 -1.570795 -1.570787 0.000000
    2 1.293670 0.684478 -0.000001 -0.062447 0.004445 -0.094676
    3 5.309685 -0.003834 0.000000 0.005275 0.003679 0.016297
    4 4.826790 -0.004591 0.000000 0.009823 -0.021692 0.026270
    5 5.792767 -0.005304 0.000000 -0.033025 -0.014513 0.010572
    6 6.662322 -0.001452 0.000000 -0.091910 0.032655 0.231870
    7 -3.518356 0.356631 4.277124 1.379418 -1.057945 -4.734025
    8 4.827512 0.000000 -0.000002 -0.929663 -0.496896 -0.822513
    9 11.140032 0.000000 0.000000 0.000000 0.000000 -0.525332
    10 10.314563 -0.000001 0.000001 -1.941654 -0.130485 0.323543
    11 1.646836 0.445664 -1.699647 -0.392035 3.352851 -0.875707
    12 0.928312 0.000000 0.000000 0.000000 0.000000 0.593404
    13 0.928313 0.000000 -0.000001 0.000000 0.000000 1.204231
    14 2.979373 -0.388274 -0.044205 -0.030851 -0.030823 0.768363
    15 1.435262 -0.000001 -0.000001 0.000000 0.000000 1.204014
    16 1.482593 -0.000001 0.000001 0.000000 0.000000 1.153221
    17 -2.975371 1.071532 -4.156022 -1.395312 0.723683 -4.673936
    18 4.972047 0.000000 0.000000 0.696125 0.604017 -0.784339
    19 11.585358 0.000000 0.000001 0.000000 0.000000 -0.587015
    20 10.127058 0.000000 0.000001 2.161668 0.015319 0.362208
    21 1.537458 0.109715 1.664489 -3.079588 0.031470 0.928526
    22 0.928313 0.000000 0.000002 0.000000 0.000000 0.061034
    23 0.928311 0.000000 0.000001 0.000000 0.000000 0.671897
    24 2.686395 -0.427337 0.044204 -0.001208 0.043611 -0.052337
    25 1.435260 0.000000 0.000001 0.000000 0.000000 1.186618
    26 1.482593 0.000000 -0.000001 0.000000 0.000000 1.684243
    27 2.046984 0.000001 0.000000 0.123519 0.084085 -0.552820
    28 -0.000005 0.000007 3.713254 -0.099865 -3.047848 5.708602
    29 18.045723 0.000000 0.000000 0.000000 0.000000 -0.413544
    30 17.597597 0.000000 0.000000 -0.057202 -0.016721 -0.162308
    31 0.000005 -0.000003 -3.713254 0.807516 2.831522 6.175187
    32 18.045721 0.000000 0.000000 0.000000 0.000000 -0.782250
    33 17.597597 0.000000 0.000000 0.178760 0.125233 0.485354
  time 1
    0 0.461917 3.328378 0.368674 0.000000 0.000000 -1.571017
    1 0.253910 -0.007813 0.000000 -1.570795 -1.570787 0.000000
    2 1.293670 0.684478 -0.000001 -0.062447 0.004445 -0.094676
    3 5.309685 -0.003834 0.000000 0.004867 0.005333 0.021932
    4 4.826790 -0.004591 0.000000 0.011330 -0.023466 0.011718
    5 5.792767 -0.005304 0.000000 -0.032684 -0.017557 -0.006579
    6 6.662322 -0.001452 0.000000 -0.091910 0.032655 0.231870
    7 -3.518356 0.356631 4.277124 1.379418 -1.057945 -4.734025
    8 4.827512 0.000000 -0.000002 -0.922727 -0.471400 -0.824333
    9 11.140032 0.000000 0.000000 0.000000 0.000000 -0.525332
    10 10.314563 -0.000001 0.000001 -1.941654 -0.130485 0.323543
    11 1.646836 0.445664 -1.699647 -0.392035 3.352851 -0.875707
    12 0.928312 0.000000 0.000000 0.000000 0.000000 0.593404
    13 0.928313 0.000000 -0.000001 0.000000 0.000000 1.204231
    14 2.979373 -0.388274 -0.044205 -0.030851 -0.030823 0.768363
    15 1.435262 -0.000001 -0.000001 0.000000 0.000000 1.204014
    16 1.482593 -0.000001 0.000001 0.000000 0.000000 1.153221
    17 -2.975371 1.071532 -4.156022 -1.393879 0.723420 -4.671925
    18 4.972047 0.000000 0.000000 0.696501 0.580072 -0.779547
    19 11.585358 0.000000 0.000001 0.000000 0.000000 -0.587015
    20 10.127058 0.000000 0.000001 2.161809 0.015036 0.362658
    21 1.537458 0.109715 1.664489 -3.079588 0.031470 0.928526
    22 0.928313 0.000000 0.000002 0.000000 0.000000 0.061034
    23 0.928311 0.000000 0.000001 0.000000 0.000000 0.671897
    24 2.686395 -0.427337 0.044204 -0.001208 0.043611 -0.052337
    25 1.435260 0.000000 0.000001 0.000000 0.000000 1.186618
    26 1.482593 0.000000 -0.000001 0.000000 0.000000 1.684243
    27 2.046984 0.000001 0.000000 0.122485 0.083554 -0.526785
    28 -0.000005 0.000007 3.713254 -0.099769 -3.047656 5.707931
    29 18.045723 0.000000 0.000000 0.000000 0.000000 -0.416875
    30 17.597597 0.000000 0.000000 -0.057151 -0.016918 -0.159740
    31 0.000005 -0.000003 -3.713254 0.807612 2.831905 6.176529
    32 18.045721 0.000000 0.000000 0.000000 0.000000 -0.781463
    33 17.597597 0.000000 0.000000 0.178794 0.126002 0.485631
  time 2
    0 0.461917 3.328378 0.368674 0.000000 0.000000 -1.571017
    1 0.292974 -0.007813 0.000000 -1.570795 -1.570787 0.000000
    2 1.293670 0.684478 -0.000001 -0.062447 0.004445 -0.094676
    3 5.309685 -0.003834 0.000000 0.004441 0.007131 0.028008
    4 4.826790 -0.004591 0.000000 0.013028 -0.025276 -0.003914
    5 5.792767 -0.005304 0.000000 -0.032216 -0.020757 -0.024414
    6 6.662322 -0.001452 0.000000 -0.091910 0.032655 0.231870
    7 -3.518356 0.356631 4.277124 1.399834 -1.060074 -4.757500
    8 4.827512 0.000000 -0.000002 -0.920256 -0.430212 -0.823813
    9 11.140032 0.000000 0.000000 0.000000 0.000000 -0.524607
    10 10.314563 -0.000001 0.000001 -1.941654 -0.130485 0.323543
    11 1.646836 0.445664 -1.699647 -0.392035 3.352851 -0.875707
    12 0.928312 0.000000 0.000000 0.000000 0.000000 0.593404
    13 0.928313 0.000000 -0.000001 0.000000 0.000000 1.204231
    14 2.979373 -0.388274 -0.044205 -0.030851 -0.030823 0.768363
    15 1.435262 -0.000001 -0.000001 0.000000 0.000000 1.204014
    16 1.482593 -0.000001 0.000001 0.000000 0.000000 1.153221
    17 -2.975371 1.071532 -4.156022 -1.395312 0.723683 -4.673936
    18 4.972047 0.000000 0.000000 0.699033 0.551066 -0.773424
    19 11.585358 0.000000 0.000001 0.000000 0.000000 -0.587015
    20 10.127058 0.000000 0.000001 2.161668 0.015319 0.362208
    21 1.537458 0.109715 1.664489 -3.079588 0.031470 0.928526
    22 0.928313 0.000000 0.000002 0.000000 0.000000 0.061034
    23 0.928311 0.000000 0.000001 0.000000 0.000000 0.671897
    24 2.686395 -0.427337 0.044204 -0.001208 0.043611 -0.052337
    25 1.435260 0.000000 0.000001 0.000000 0.000000 1.186618
    26 1.482593 0.000000 -0.000001 0.000000 0.000000 1.684243
    27 2.046984 0.000001 0.000000 0.121408 0.083023 -0.499169
    28 -0.000005 0.000007 3.713254 -0.099674 -3.047369 5.707165
    29 18.045723 0.000000 0.000000 0.000000 0.000000 -0.420279
    30 17.597597 0.000000 0.000000 -0.057151 -0.017066 -0.156989
    31 0.000005 -0.000003 -3.713254 0.807899 2.832193 6.177871
    32 18.045721 0.000000 0.000000 0.000000 0.000000 -0.780597
    33 17.597597 0.000000 0.000000 0.178827 0.126791 0.485955
  time 3
    0 0.461917 3.328378 0.368674 0.000000 0.000000 -1.571017
    1 0.324225 -0.007813 0.000000 -1.570795 -1.570787 0.000000
    2 1.293670 0.684478 -0.000001 -0.062447 0.004445 -0.094676
    3 5.309685 -0.003834 0.000000 0.003999 0.008905 0.034049
    4 4.826790 -0.004591 0.000000 0.014611 -0.027025 -0.018996
    5 5.792767 -0.005304 0.000000 -0.031730 -0.023873 -0.041834
    6 6.662322 -0.001452 0.000000 -0.090460 0.036490 0.273880
    7 -3.498824 0.497261 4.277124 1.419484 -1.061848 -4.822082
    8 4.827512 0.000000 -0.000002 -0.917785 -0.390560 -0.823466
    9 11.140032 0.000000 0.000000 0.000000 0.000000 -0.523955
    10 10.314563 -0.000001 0.000001 -1.941654 -0.130485 0.323543
    11 1.646836 0.445664 -1.699647 -0.392035 3.352851 -0.875707
    12 0.928312 0.000000 0.000000 0.000000 0.000000 0.593404
    13 0.928313 0.000000 -0.000001 0.000000 0.000000 1.204231
    14 2.979373 -0.388274 -0.044205 -0.030851 -0.030823 0.768363
    15 1.435262 -0.000001 -0.000001 0.000000 0.000000 1.204014
    16 1.482593 -0.000001 0.000001 0.000000 0.000000 1.153221
    17 -2.932401 1.192629 -4.156022 -1.402095 0.725023 -4.726328
    18 4.972047 0.000000 0.000000 0.705036 0.515954 -0.765371
    19 11.585358 0.000000 0.000001 0.000000 0.000000 -0.587260
    20 10.127058 0.000000 0.000001 2.161107 0.016360 0.360107
    21 1.537458 0.109715 1.664489 -3.079588 0.031470 0.928526
    22 0.928313 0.000000 0.000002 0.000000 0.000000 0.061034
    23 0.928311 0.000000 0.000001 0.000000 0.000000 0.671897
    24 2.686395 -0.427337 0.044204 -0.001208 0.043611 -0.052337
    25 1.435260 0.000000 0.000001 0.000000 0.000000 1.186618
    26 1.482593 0.000000 -0.000001 0.000000 0.000000 1.684243
    27 2.046984 0.000001 0.000000 0.118435 0.082315 -0.524473
    28 -0.000005 0.000007 3.713254 -0.099482 -3.047177 5.706494
    29 18.045723 0.000000 0.000000 0.000000 0.000000 -0.423536
    30 17.597597 0.000000 0.000000 -0.057075 -0.017214 -0.154514
    31 0.000005 -0.000003 -3.713254 0.807899 2.832481 6.179213
    32 18.045721 0.000000 0.000000 0.000000 0.000000 -0.779967
    33 17.597597 0.000000 0.000000 0.178861 0.127521 0.486232
  time 4
    0 0.461917 3.328378 0.368674 0.000000 0.000000 -1.571017
    1 0.355476 -0.007813 0.000000 -1.570795 -1.570787 0.000000
    2 1.293670 0.684478 -0.000001 -0.062447 0.004445 -0.094676
    3 5.309685 -0.003834 0.000000 0.003608 0.010534 0.039683
    4 4.826790 -0.004591 0.000000 0.016061 -0.028511 -0.031960
    5 5.792767 -0.005304 0.000000 -0.031263 -0.026690 -0.058091
    6 6.662322 -0.001452 0.000000 -0.088854 0.040242 0.315833
    7 -3.475386 0.645703 4.277124 1.437025 -1.063238 -4.884268
    8 4.827512 0.000000 -0.000002 -0.915792 -0.355257 -0.823380
    9 11.140032 0.000000 0.000000 0.000000 0.000000 -0.523303
    10 10.314563 -0.000001 0.000001 -1.941654 -0.130485 0.323543
    11 1.646836 0.445664 -1.699647 -0.392035 3.352851 -0.875707
    12 0.928312 0.000000 0.000000 0.000000 0.000000 0.593404
    13 0.928313 0.000000 -0.000001 0.000000 0.000000 1.204231
    14 2.979373 -0.388274 -0.044205 -0.030851 -0.030823 0.768363
    15 1.435262 -0.000001 -0.000001 0.000000 0.000000 1.204014
    16 1.482593 -0.000001 0.000001 0.000000 0.000000 1.153221
    17 -2.877712 1.317633 -4.156022 -1.410406 0.726601 -4.781018
    18 4.972047 0.000000 0.000000 0.711415 0.481725 -0.757917
    19 11.585358 0.000000 0.000001 0.000000 0.000000 -0.587587
    20 10.127058 0.000000 0.000001 2.160266 0.017589 0.357456
    21 1.537458 0.109715 1.664489 -3.079588 0.031470 0.928526
    22 0.928313 0.000000 0.000002 0.000000 0.000000 0.061034
    23 0.928311 0.000000 0.000001 0.000000 0.000000 0.671897
    24 2.686395 -0.427337 0.044204 -0.001208 0.043611 -0.052337
    25 1.435260 0.000000 0.000001 0.000000 0.000000 1.186618
    26 1.482593 0.000000 -0.000001 0.000000 0.000000 1.684243
    27 2.046984 0.000001 0.000000 0.115721 0.081607 -0.552820
    28 -0.000005 0.000007 3.713254 -0.099386 -3.046985 5.705918
    29 18.045723 0.000000 0.000000 0.000000 0.000000 -0.426200
    30 17.597597 0.000000 0.000000 -0.057075 -0.017337 -0.152405
    31 0.000005 -0.000003 -3.713254 0.808187 2.832672 6.180268
    32 18.045721 0.000000 0.000000 0.000000 0.000000 -0.779180
    33 17.597597 0.000000 0.000000 0.178894 0.128172 0.486417
  time 5
    0 0.461917 3.328378 0.368674 0.000000 0.000000 -1.571017
    1 0.371101 -0.007813 0.000000 -1.570795 -1.570787 0.000000
    2 1.293670 0.684478 -0.000001 -0.062447 0.004445 -0.094676
    3 5.309685 -0.003834 0.000000 0.003284 0.011985 0.044541
    4 4.826790 -0.004591 0.000000 0.017072 -0.029578 -0.041110
    5 5.792767 -0.005304 0.000000 -0.030741 -0.028955 -0.072127
    6 6.662322 -0.001452 0.000000 -0.087056 0.043953 0.357843
    7 -3.444135 0.794145 4.277124 1.451787 -1.064273 -4.943196
    8 4.827512 0.000000 -0.000002 -0.914676 -0.327202 -0.823206
    9 11.140032 0.000000 0.000000 0.000000 0.000000 -0.522723
    10 10.314563 -0.000001 0.000001 -1.941654 -0.130485 0.323543
    11 1.646836 0.445664 -1.699647 -0.392035 3.352851 -0.875707
    12 0.928312 0.000000 0.000000 0.000000 0.000000 0.593404
    13 0.928313 0.000000 -0.000001 0.000000 0.000000 1.204231
    14 2.979373 -0.388274 -0.044205 -0.030851 -0.030823 0.768363
    15 1.435262 -0.000001 -0.000001 0.000000 0.000000 1.204014
    16 1.482593 -0.000001 0.000001 0.000000 0.000000 1.153221
    17 -2.830835 1.427012 -4.156022 -1.419577 0.728178 -4.836858
    18 4.972047 0.000000 0.000000 0.717699 0.451674 -0.751860
    19 11.585358 0.000000 0.000001 0.000000 0.000000 -0.587914
    20 10.127058 0.000000 0.000001 2.159424 0.018913 0.354655
    21 1.537458 0.109715 1.664489 -3.079588 0.031470 0.928526
    22 0.928313 0.000000 0.000002 0.000000 0.000000 0.061034
    23 0.928311 0.000000 0.000001 0.000000 0.000000 0.671897
    24 2.686395 -0.427337 0.044204 -0.001208 0.043611 -0.052337
    25 1.435260 0.000000 0.000001 0.000000 0.000000 1.186618
    26 1.482593 0.000000 -0.000001 0.000000 0.000000 1.684243
    27 2.046984 0.000001 0.000000 0.113265 0.080869 -0.586275
    28 -0.000005 0.000007 3.713254 -0.099290 -3.046985 5.705535
    29 18.045723 0.000000 0.000000 0.000000 0.000000 -0.427903
    30 17.597597 0.000000 0.000000 -0.057075 -0.017361 -0.151075
    31 0.000005 -0.000003 -3.713254 0.808187 2.832768 6.180939
    32 18.045721 0.000000 0.000000 0.000000 0.000000 -0.778865
    33 17.597597 0.000000 0.000000 0.178894 0.128586 0.486555
  time 6
    0 0.461917 3.328378 0.368674 0.000000 0.000000 -1.571017
    1 0.386727 -0.007813 0.000000 -1.570795 -1.570787 0.000000
    2 1.293670 0.684478 -0.000001 -0.062447 0.004445 -0.094676
    3 5.309685 -0.003834 0.000000 0.003046 0.013027 0.048180
    4 4.826790 -0.004591 0.000000 0.017663 -0.030165 -0.046512
    5 5.792767 -0.005304 0.000000 -0.030255 -0.030717 -0.085602
    6 6.662322 -0.001452 0.000000 -0.085163 0.047581 0.399825
    7 -3.405072 0.938680 4.277124 1.462714 -1.064953 -4.997813
    8 4.827512 0.000000 -0.000002 -0.913640 -0.304604 -0.823206
    9 11.140032 0.000000 0.000000 0.000000 0.000000 -0.522289
    10 10.314563 -0.000001 0.000001 -1.941654 -0.130485 0.323543
    11 1.646836 0.445664 -1.699647 -0.392035 3.352851 -0.875707
    12 0.928312 0.000000 0.000000 0.000000 0.000000 0.593404
    13 0.928313 0.000000 -0.000001 0.000000 0.000000 1.204231
    14 2.979373 -0.388274 -0.044205 -0.030851 -0.030823 0.768363
    15 1.435262 -0.000001 -0.000001 0.000000 0.000000 1.204014
    16 1.482593 -0.000001 0.000001 0.000000 0.000000 1.153221
    17 -2.768333 1.544203 -4.156022 -1.428366 0.729624 -4.892124
    18 4.972047 0.000000 0.000000 0.723139 0.425159 -0.747135
    19 11.585358 0.000000 0.000001 0.000000 0.000000 -0.588322
    20 10.127058 0.000000 0.000001 2.158653 0.020237 0.351904
    21 1.537458 0.109715 1.664489 -3.079588 0.031470 0.928526
    22 0.928313 0.000000 0.000002 0.000000 0.000000 0.061034
    23 0.928311 0.000000 0.000001 0.000000 0.000000 0.671897
    24 2.686395 -0.427337 0.044204 -0.001208 0.043611 -0.052337
    25 1.435260 0.000000 0.000001 0.000000 0.000000 1.186618
    26 1.482593 0.000000 -0.000001 0.000000 0.000000 1.684243
    27 2.046984 0.000001 0.000000 0.111068 0.079925 -0.623077
    28 -0.000005 0.000007 3.713254 -0.099290 -3.046985 5.705247
    29 18.045723 0.000000 0.000000 0.000000 0.000000 -0.429087
    30 17.597597 0.000000 0.000000 -0.057075 -0.017361 -0.150158
    31 0.000005 -0.000003 -3.713254 0.808187 2.832864 6.181418
    32 18.045721 0.000000 0.000000 0.000000 0.000000 -0.778550
    33 17.597597 0.000000 0.000000 0.178894 0.128882 0.486555
  time 7
    0 0.461917 3.328378 0.368674 0.000000 0.000000 -1.571017
    1 0.390633 -0.007813 0.000000 -1.570795 -1.570787 0.000000
    2 1.293670 0.684478 -0.000001 -0.062447 0.004445 -0.094676
    3 5.309685 -0.003834 0.000000 0.002876 0.013758 0.050653
    4 4.826790 -0.004591 0.000000 0.017949 -0.030489 -0.049224
    5 5.792767 -0.005304 0.000000 -0.029806 -0.032047 -0.098101
    6 6.662322 -0.001452 0.000000 -0.083065 0.051127 0.441835
    7 -3.362102 1.079310 4.277124 1.469520 -1.065367 -5.047830
    8 4.827512 0.000000 -0.000002 -0.912603 -0.287464 -0.823206
    9 11.140032 0.000000 0.000000 0.000000 0.000000 -0.521999
    10 10.314563 -0.000001 0.000001 -1.941654 -0.130485 0.323543
    11 1.646836 0.445664 -1.699647 -0.392035 3.352851 -0.875707
    12 0.928312 0.000000 0.000000 0.000000 0.000000 0.593404
    13 0.928313 0.000000 -0.000001 0.000000 0.000000 1.204231
    14 2.979373 -0.388274 -0.044205 -0.030851 -0.030823 0.768363
    15 1.435262 -0.000001 -0.000001 0.000000 0.000000 1.204014
    16 1.482593 -0.000001 0.000001 0.000000 0.000000 1.153221
    17 -2.701925 1.661394 -4.156022 -1.435722 0.730807 -4.945569
    18 4.972047 0.000000 0.000000 0.727267 0.402741 -0.743474
    19 11.585358 0.000000 0.000001 0.000000 0.000000 -0.588567
    20 10.127058 0.000000 0.000001 2.157952 0.021371 0.349603
    21 1.537458 0.109715 1.664489 -3.079588 0.031470 0.928526
    22 0.928313 0.000000 0.000002 0.000000 0.000000 0.061034
    23 0.928311 0.000000 0.000001 0.000000 0.000000 0.671897
    24 2.686395 -0.427337 0.044204 -0.001208 0.043611 -0.052337
    25 1.435260 0.000000 0.000001 0.000000 0.000000 1.186618
    26 1.482593 0.000000 -0.000001 0.000000 0.000000 1.684243
    27 2.046984 0.000001 0.000000 0.109043 0.078922 -0.662190
    28 -0.000005 0.000007 3.713254 -0.099194 -3.046985 5.705056
    29 18.045723 0.000000 0.000000 0.000000 0.000000 -0.429901
    30 17.597597 0.000000 0.000000 -0.057126 -0.017361 -0.149516
    31 0.000005 -0.000003 -3.713254 0.808379 2.832864 6.181802
    32 18.045721 0.000000 0.000000 0.000000 0.000000 -0.778393
    33 17.597597 0.000000 0.000000 0.178861 0.129099 0.486647
  time 8
    0 0.461917 3.328378 0.368674 0.000000 0.000000 -1.571017
    1 0.390633 0.000000 0.000000 -1.570795 -1.570787 0.000000
    2 1.293670 0.684478 -0.000001 -0.062447 0.004445 -0.094676
    3 5.309685 -0.003834 0.000000 0.002791 0.014226 0.052172
    4 4.826790 -0.004591 0.000000 0.017949 -0.030489 -0.049224
    5 5.792767 -0.005304 0.000000 -0.029536 -0.032490 -0.105306
    6 6.662322 -0.001452 0.000000 -0.083065 0.051127 0.441835
    7 -3.362102 1.079310 4.277124 1.471820 -1.065485 -5.050513
    8 4.827512 0.000000 -0.000002 -0.912364 -0.280131 -0.823033
    9 11.140032 0.000000 0.000000 0.000000 0.000000 -0.521926
    10 10.314563 -0.000001 0.000001 -1.941654 -0.130485 0.323543
    11 1.646836 0.445664 -1.699647 -0.392035 3.352851 -0.875707
    12 0.928312 0.000000 0.000000 0.000000 0.000000 0.593404
    13 0.928313 0.000000 -0.000001 0.000000 0.000000 1.204231
    14 2.979373 -0.388274 -0.044205 -0.030851 -0.030823 0.768363
    15 1.435262 -0.000001 -0.000001 0.000000 0.000000 1.204014
    16 1.482593 -0.000001 0.000001 0.000000 0.000000 1.153221
    17 -2.701925 1.661394 -4.156022 -1.441263 0.731596 -4.953423
    18 4.972047 0.000000 0.000000 0.729987 0.390367 -0.741544
    19 11.585358 0.000000 0.000001 0.000000 0.000000 -0.588812
    20 10.127058 0.000000 0.000001 2.157391 0.022223 0.347952
    21 1.537458 0.109715 1.664489 -3.079588 0.031470 0.928526
    22 0.928313 0.000000 0.000002 0.000000 0.000000 0.061034
    23 0.928311 0.000000 0.000001 0.000000 0.000000 0.671897
    24 2.686395 -0.427337 0.044204 -0.001208 0.043611 -0.052337
    25 1.435260 0.000000 0.000001 0.000000 0.000000 1.186618
    26 1.482593 0.000000 -0.000001 0.000000 0.000000 1.684243
    27 2.046984 0.000001 0.000000 0.111154 0.078450 -0.646800
    28 -0.000005 0.000007 3.713254 -0.099194 -3.046985 5.705056
    29 18.045723 0.000000 0.000000 0.000000 0.000000 -0.429975
    30 17.597597 0.000000 0.000000 -0.057151 -0.017287 -0.149516
    31 0.000005 -0.000003 -3.713254 0.808379 2.832768 6.181802
    32 18.045721 0.000000 0.000000 0.000000 0.000000 -0.778393
    33 17.597597 0.000000 0.000000 0.178827 0.129158 0.486555
  time 9
    0 0.461917 3.328378 0.368674 0.000000 0.000000 -1.571017
    1 0.378914 0.000000 0.000000 -1.570795 -1.570787 0.000000
    2 1.293670 0.684478 -0.000001 -0.062447 0.004445 -0.094676
    3 5.309685 -0.003834 0.000000 0.002791 0.014298 0.052437
    4 4.826790 -0.004591 0.000000 0.017663 -0.030165 -0.046512
    5 5.792767 -0.005304 0.000000 -0.029608 -0.031783 -0.103167
    6 6.662322 -0.001452 0.000000 -0.083065 0.051127 0.441835
    7 -3.362102 1.079310 4.277124 1.472395 -1.065544 -5.050992
    8 4.827512 0.000000 -0.000002 -0.914038 -0.283797 -0.822860
    9 11.140032 0.000000 0.000000 0.000000 0.000000 -0.520984
    10 10.314563 -0.000001 0.000001 -1.941654 -0.130485 0.323543
    11 1.646836 0.445664 -1.699647 -0.392035 3.352851 -0.875707
    12 0.928312 0.000000 0.000000 0.000000 0.000000 0.593404
    13 0.928313 0.000000 -0.000001 0.000000 0.000000 1.204231
    14 2.979373 -0.388274 -0.044205 -0.030851 -0.030823 0.768363
    15 1.435262 -0.000001 -0.000001 0.000000 0.000000 1.204014
    16 1.482593 -0.000001 0.000001 0.000000 0.000000 1.153221
    17 -2.701925 1.661394 -4.156022 -1.444511 0.732096 -4.958595
    18 4.972047 0.000000 0.000000 0.731487 0.391251 -0.741677
    19 11.585358 0.000000 0.000001 0.000000 0.000000 -0.588975
    20 10.127058 0.000000 0.000001 2.157110 0.022695 0.346952
    21 1.537458 0.109715 1.664489 -3.079588 0.031470 0.928526
    22 0.928313 0.000000 0.000002 0.000000 0.000000 0.061034
    23 0.928311 0.000000 0.000001 0.000000 0.000000 0.671897
    24 2.686395 -0.427337 0.044204 -0.001208 0.043611 -0.052337
    25 1.435260 0.000000 0.000001 0.000000 0.000000 1.186618
    26 1.482593 0.000000 -0.000001 0.000000 0.000000 1.684243
    27 2.046984 0.000001 0.000000 0.113308 0.078273 -0.642177
    28 -0.000005 0.000007 3.713254 -0.099290 -3.047177 5.705247
    29 18.045723 0.000000 0.000000 0.000000 0.000000 -0.428865
    30 17.597597 0.000000 0.000000 -0.057202 -0.017189 -0.150341
    31 0.000005 -0.000003 -3.713254 0.808379 2.832577 6.181322
    32 18.045721 0.000000 0.000000 0.000000 0.000000 -0.778629
    33 17.597597 0.000000 0.000000 0.178760 0.128961 0.486417
  time 10
    0 0.461917 3.328378 0.368674 0.000000 0.000000 -1.571017
    1 0.359382 0.000000 0.000000 -1.570795 -1.570787 0.000000
    2 1.293670 0.684478 -0.000001 -0.062447 0.004445 -0.094676
    3 5.309685 -0.003834 0.000000 0.002859 0.013914 0.051183
    4 4.826790 -0.004591 0.000000 0.017072 -0.029578 -0.041110
    5 5.792767 -0.005304 0.000000 -0.030057 -0.029770 -0.090419
    6 6.662322 -0.001452 0.000000 -0.083065 0.051127 0.441835
    7 -3.362102 1.079310 4.277124 1.472395 -1.065544 -5.051088
    8 4.827512 0.000000 -0.000002 -0.918343 -0.299232 -0.821907
    9 11.140032 0.000000 0.000000 0.000000 0.000000 -0.520188
    10 10.314563 -0.000001 0.000001 -1.941654 -0.130485 0.323543
    11 1.646836 0.445664 -1.699647 -0.392035 3.352851 -0.875707
    12 0.928312 0.000000 0.000000 0.000000 0.000000 0.593404
    13 0.928313 0.000000 -0.000001 0.000000 0.000000 1.204231
    14 2.979373 -0.388274 -0.044205 -0.030851 -0.030823 0.768363
    15 1.435262 -0.000001 -0.000001 0.000000 0.000000 1.204014
    16 1.482593 -0.000001 0.000001 0.000000 0.000000 1.153221
    17 -2.701925 1.661394 -4.156022 -1.446708 0.732411 -4.961756
    18 4.972047 0.000000 0.000000 0.732519 0.405312 -0.743141
    19 11.585358 0.000000 0.000001 0.000000 0.000000 -0.588975
    20 10.127058 0.000000 0.000001 2.156900 0.023074 0.346301
    21 1.537458 0.109715 1.664489 -3.079588 0.031470 0.928526
    22 0.928313 0.000000 0.000002 0.000000 0.000000 0.061034
    23 0.928311 0.000000 0.000001 0.000000 0.000000 0.671897
    24 2.686395 -0.427337 0.044204 -0.001208 0.043611 -0.052337
    25 1.435260 0.000000 0.000001 0.000000 0.000000 1.186618
    26 1.482593 0.000000 -0.000001 0.000000 0.000000 1.684243
    27 2.046984 0.000001 0.000000 0.115850 0.078450 -0.649355
    28 -0.000005 0.000007 3.713254 -0.099290 -3.047369 5.705727
    29 18.045723 0.000000 0.000000 0.000000 0.000000 -0.426571
    30 17.597597 0.000000 0.000000 -0.057278 -0.016992 -0.152175
    31 0.000005 -0.000003 -3.713254 0.808187 2.832289 6.180364
    32 18.045721 0.000000 0.000000 0.000000 0.000000 -0.779180
    33 17.597597 0.000000 0.000000 0.178693 0.128468 0.486139
  time 11
    0 0.461917 3.328378 0.368674 0.000000 0.000000 -1.571017
    1 0.316412 0.000000 0.000000 -1.570795 -1.570787 0.000000
    2 1.293670 0.684478 -0.000001 -0.062447 0.004445 -0.094676
    3 5.309685 -0.003834 0.000000 0.003046 0.013027 0.048180
    4 4.826790 -0.004591 0.000000 0.015908 -0.028391 -0.030857
    5 5.792767 -0.005304 0.000000 -0.030795 -0.026798 -0.070902
    6 6.662322 -0.001452 0.000000 -0.083065 0.051127 0.441835
    7 -3.362102 1.079310 4.277124 1.472204 -1.065544 -5.050800
    8 4.827512 0.000000 -0.000002 -0.924880 -0.324644 -0.820520
    9 11.140032 0.000000 0.000000 0.000000 0.000000 -0.519535
    10 10.314563 -0.000001 0.000001 -1.941654 -0.130485 0.323543
    11 1.646836 0.445664 -1.699647 -0.392035 3.352851 -0.875707
    12 0.928312 0.000000 0.000000 0.000000 0.000000 0.593404
    13 0.928313 0.000000 -0.000001 0.000000 0.000000 1.204231
    14 2.979373 -0.388274 -0.044205 -0.030851 -0.030823 0.768363
    15 1.435262 -0.000001 -0.000001 0.000000 0.000000 1.204014
    16 1.482593 -0.000001 0.000001 0.000000 0.000000 1.153221
    17 -2.701925 1.661394 -4.156022 -1.447568 0.732516 -4.963097
    18 4.972047 0.000000 0.000000 0.732801 0.430783 -0.746336
    19 11.585358 0.000000 0.000001 0.000000 0.000000 -0.589139
    20 10.127058 0.000000 0.000001 2.156830 0.023074 0.346001
    21 1.537458 0.109715 1.664489 -3.079588 0.031470 0.928526
    22 0.928313 0.000000 0.000002 0.000000 0.000000 0.061034
    23 0.928311 0.000000 0.000001 0.000000 0.000000 0.671897
    24 2.686395 -0.427337 0.044204 -0.001208 0.043611 -0.052337
    25 1.435260 0.000000 0.000001 0.000000 0.000000 1.186618
    26 1.482593 0.000000 -0.000001 0.000000 0.000000 1.684243
    27 2.046984 0.000001 0.000000 0.118737 0.078922 -0.666448
    28 -0.000005 0.000007 3.713254 -0.099482 -3.047752 5.706494
    29 18.045723 0.000000 0.000000 0.000000 0.000000 -0.423092
    30 17.597597 0.000000 0.000000 -0.057430 -0.016771 -0.154880
    31 0.000005 -0.000003 -3.713254 0.808187 2.831810 6.179021
    32 18.045721 0.000000 0.000000 0.000000 0.000000 -0.780046
    33 17.597597 0.000000 0.000000 0.178559 0.127718 0.485724
  time 12
    0 0.461917 3.328378 0.368674 0.000000 0.000000 -1.571017
    1 0.292974 0.000000 0.000000 -1.570795 -1.570787 0.000000
    2 1.293670 0.684478 -0.000001 -0.062447 0.004445 -0.094676
    3 5.309685 -0.003834 0.000000 0.003659 0.010331 0.038924
    4 4.826790 -0.004591 0.000000 0.014306 -0.026678 -0.015776
    5 5.792767 -0.005304 0.000000 -0.031515 -0.023298 -0.047855
    6 6.662322 -0.001452 0.000000 -0.083065 0.051127 0.441835
    7 -3.362102 1.079310 4.277124 1.471916 -1.065485 -5.050609
    8 4.827512 0.000000 -0.000002 -0.931177 -0.352699 -0.819047
    9 11.140032 0.000000 0.000000 0.000000 0.000000 -0.519101
    10 10.314563 -0.000001 0.000001 -1.941654 -0.130485 0.323543
    11 1.646836 0.445664 -1.699647 -0.392035 3.352851 -0.875707
    12 0.928312 0.000000 0.000000 0.000000 0.000000 0.593404
    13 0.928313 0.000000 -0.000001 0.000000 0.000000 1.204231
    14 2.979373 -0.388274 -0.044205 -0.030851 -0.030823 0.768363
    15 1.435262 -0.000001 -0.000001 0.000000 0.000000 1.204014
    16 1.482593 -0.000001 0.000001 0.000000 0.000000 1.153221
    17 -2.701925 1.661394 -4.156022 -1.446995 0.732437 -4.962330
    18 4.972047 0.000000 0.000000 0.733270 0.460432 -0.749997
    19 11.585358 0.000000 0.000001 0.000000 0.000000 -0.588975
    20 10.127058 0.000000 0.000001 2.156900 0.023074 0.346151
    21 1.537458 0.109715 1.664489 -3.079588 0.031470 0.928526
    22 0.928313 0.000000 0.000002 0.000000 0.000000 0.061034
    23 0.928311 0.000000 0.000001 0.000000 0.000000 0.671897
    24 2.686395 -0.427337 0.044204 -0.001208 0.043611 -0.052337
    25 1.435260 0.000000 0.000001 0.000000 0.000000 1.186618
    26 1.482593 0.000000 -0.000001 0.000000 0.000000 1.684243
    27 2.046984 0.000001 0.000000 0.121235 0.080456 -0.685609
    28 -0.000005 0.000007 3.713254 -0.099482 -3.047752 5.706973
    29 18.045723 0.000000 0.000000 0.000000 0.000000 -0.420871
    30 17.597597 0.000000 0.000000 -0.057379 -0.016845 -0.156577
    31 0.000005 -0.000003 -3.713254 0.808187 2.831810 6.178063
    32 18.045721 0.000000 0.000000 0.000000 0.000000 -0.780597
    33 17.597597 0.000000 0.000000 0.178458 0.127107 0.485631
  time 13
    0 0.461917 3.328378 0.368674 0.000000 0.000000 -1.571017
    1 0.292974 -0.007813 0.000000 -1.570795 -1.570787 0.000000
    2 1.293670 0.684478 -0.000001 -0.062447 0.004445 -0.094676
    3 5.309685 -0.003834 0.000000 0.004612 0.006328 0.025235
    4 4.826790 -0.004591 0.000000 0.012513 -0.024712 0.000936
    5 5.792767 -0.005304 0.000000 -0.032180 -0.019811 -0.024435
    6 6.662322 -0.001452 0.000000 -0.085163 0.047581 0.399825
    7 -3.405072 0.938680 4.277124 1.471820 -1.065485 -5.008257
    8 4.827512 0.000000 -0.000002 -0.935960 -0.378707 -0.817661
    9 11.140032 0.000000 0.000000 0.000000 0.000000 -0.518811
    10 10.314563 -0.000001 0.000001 -1.941654 -0.130485 0.323543
    11 1.646836 0.445664 -1.699647 -0.392035 3.352851 -0.875707
    12 0.928312 0.000000 0.000000 0.000000 0.000000 0.593404
    13 0.928313 0.000000 -0.000001 0.000000 0.000000 1.204231
    14 2.979373 -0.388274 -0.044205 -0.030851 -0.030823 0.768363
    15 1.435262 -0.000001 -0.000001 0.000000 0.000000 1.204014
    16 1.482593 -0.000001 0.000001 0.000000 0.000000 1.153221
    17 -2.768333 1.544203 -4.156022 -1.444988 0.732122 -4.916931
    18 4.972047 0.000000 0.000000 0.733551 0.489197 -0.753457
    19 11.585358 0.000000 0.000001 0.000000 0.000000 -0.588975
    20 10.127058 0.000000 0.000001 2.157040 0.022695 0.346801
    21 1.537458 0.109715 1.664489 -3.079588 0.031470 0.928526
    22 0.928313 0.000000 0.000002 0.000000 0.000000 0.061034
    23 0.928311 0.000000 0.000001 0.000000 0.000000 0.671897
    24 2.686395 -0.427337 0.044204 -0.001208 0.043611 -0.052337
    25 1.435260 0.000000 0.000001 0.000000 0.000000 1.186618
    26 1.482593 0.000000 -0.000001 0.000000 0.000000 1.684243
    27 2.046984 0.000001 0.000000 0.121623 0.082610 -0.669732
    28 -0.000005 0.000007 3.713254 -0.099386 -3.047369 5.707165
    29 18.045723 0.000000 0.000000 0.000000 0.000000 -0.420279
    30 17.597597 0.000000 0.000000 -0.057278 -0.017214 -0.156989
    31 0.000005 -0.000003 -3.713254 0.808187 2.832097 6.178063
    32 18.045721 0.000000 0.000000 0.000000 0.000000 -0.780597
    33 17.597597 0.000000 0.000000 0.178424 0.126791 0.485955
  time 14
    0 0.461917 3.328378 0.368674 0.000000 0.000000 -1.571017
    1 0.273442 -0.019532 0.000000 -1.570795 -1.570787 0.000000
    2 1.293670 0.684478 -0.000001 -0.062447 0.004445 -0.094676
    3 5.309685 -0.003834 0.000000 0.005275 0.003679 0.016297
    4 4.826790 -0.004591 0.000000 0.010930 -0.022939 0.016061
    5 5.792767 -0.005304 0.000000 -0.032738 -0.016719 -0.003921
    6 6.662322 -0.001452 0.000000 -0.087056 0.043953 0.357843
    7 -3.444135 0.794145 4.277124 1.443256 -1.063711 -4.933519
    8 4.827512 0.000000 -0.000002 -0.937395 -0.429189 -0.820693
    9 11.140032 0.000000 0.000000 0.000000 0.000000 -0.510551
    10 10.314563 -0.000001 0.000001 -1.941654 -0.130485 0.323543
    11 1.646836 0.445664 -1.699647 -0.392035 3.352851 -0.875707
    12 0.928312 0.000000 0.000000 0.000000 0.000000 0.593404
    13 0.928313 0.000000 -0.000001 0.000000 0.000000 1.204231
    14 2.979373 -0.388274 -0.044205 -0.030851 -0.030823 0.768363
    15 1.435262 -0.000001 -0.000001 0.000000 0.000000 1.204014
    16 1.482593 -0.000001 0.000001 0.000000 0.000000 1.153221
    17 -2.830835 1.427012 -4.156022 -1.441263 0.731596 -4.869328
    18 4.972047 0.000000 0.000000 0.731581 0.520614 -0.758449
    19 11.585358 0.000000 0.000001 0.000000 0.000000 -0.588812
    20 10.127058 0.000000 0.000001 2.157391 0.022223 0.347952
    21 1.537458 0.109715 1.664489 -3.079588 0.031470 0.928526
    22 0.928313 0.000000 0.000002 0.000000 0.000000 0.061034
    23 0.928311 0.000000 0.000001 0.000000 0.000000 0.671897
    24 2.686395 -0.427337 0.044204 -0.001208 0.043611 -0.052337
    25 1.435260 0.000000 0.000001 0.000000 0.000000 1.186618
    26 1.482593 0.000000 -0.000001 0.000000 0.000000 1.684243
    27 2.046984 0.000001 0.000000 0.122442 0.084026 -0.654404
    28 -0.000005 0.000007 3.713254 -0.099386 -3.047369 5.707644
    29 18.045723 0.000000 0.000000 0.000000 0.000000 -0.418133
    30 17.597597 0.000000 0.000000 -0.057278 -0.017263 -0.158731
    31 0.000005 -0.000003 -3.713254 0.808187 2.832097 6.177200
    32 18.045721 0.000000 0.000000 0.000000 0.000000 -0.781148
    33 17.597597 0.000000 0.000000 0.178324 0.126219 0.485862
  time 15
    0 0.461917 3.328378 0.368674 0.000000 0.000000 -1.571017
    1 0.238285 -0.007813 0.000000 -1.570795 -1.570787 0.000000
    2 1.293670 0.684478 -0.000001 -0.062447 0.004445 -0.094676
    3 5.309685 -0.003834 0.000000 0.005462 0.002960 0.013842
    4 4.826790 -0.004591 0.000000 0.009823 -0.021692 0.026270
    5 5.792767 -0.005304 0.000000 -0.033025 -0.014513 0.010572
    6 6.662322 -0.001452 0.000000 -0.088854 0.040242 0.315833
    7 -3.475386 0.645703 4.277124 1.417184 -1.061641 -4.861655
    8 4.827512 0.000000 -0.000002 -0.938910 -0.472934 -0.823986
    9 11.140032 0.000000 0.000000 0.000000 0.000000 -0.502944
    10 10.314563 -0.000001 0.000001 -1.941654 -0.130485 0.323543
    11 1.646836 0.445664 -1.699647 -0.392035 3.352851 -0.875707
    12 0.928312 0.000000 0.000000 0.000000 0.000000 0.593404
    13 0.928313 0.000000 -0.000001 0.000000 0.000000 1.204231
    14 2.979373 -0.388274 -0.044205 -0.030851 -0.030823 0.768363
    15 1.435262 -0.000001 -0.000001 0.000000 0.000000 1.204014
    16 1.482593 -0.000001 0.000001 0.000000 0.000000 1.153221
    17 -2.877712 1.317633 -4.156022 -1.432665 0.730360 -4.814637
    18 4.972047 0.000000 0.000000 0.725015 0.553557 -0.765437
    19 11.585358 0.000000 0.000001 0.000000 0.000000 -0.588485
    20 10.127058 0.000000 0.000001 2.158162 0.020993 0.350553
    21 1.537458 0.109715 1.664489 -3.079588 0.031470 0.928526
    22 0.928313 0.000000 0.000002 0.000000 0.000000 0.061034
    23 0.928311 0.000000 0.000001 0.000000 0.000000 0.671897
    24 2.686395 -0.427337 0.044204 -0.001208 0.043611 -0.052337
    25 1.435260 0.000000 0.000001 0.000000 0.000000 1.186618
    26 1.482593 0.000000 -0.000001 0.000000 0.000000 1.684243
    27 2.046984 0.000001 0.000000 0.123174 0.084439 -0.634513
    28 -0.000005 0.000007 3.713254 -0.099482 -3.047656 5.708411
    29 18.045723 0.000000 0.000000 0.000000 0.000000 -0.414802
    30 17.597597 0.000000 0.000000 -0.057379 -0.017041 -0.161345
    31 0.000005 -0.000003 -3.713254 0.808187 2.831714 6.175858
    32 18.045721 0.000000 0.000000 0.000000 0.000000 -0.782014
    33 17.597597 0.000000 0.000000 0.178223 0.125509 0.485493
  time 16
    0 0.461917 3.328378 0.368674 0.000000 0.000000 -1.571017
    1 0.218753 -0.007813 0.000000 -1.570795 -1.570787 0.000000
    2 1.293670 0.684478 -0.000001 -0.062447 0.004445 -0.094676
    3 5.309685 -0.003834 0.000000 0.005514 0.002768 0.013153
    4 4.826790 -0.004591 0.000000 0.009423 -0.021201 0.030613
    5 5.792767 -0.005304 0.000000 -0.033169 -0.013519 0.017153
    6 6.662322 -0.001452 0.000000 -0.090460 0.036490 0.273880
    7 -3.498824 0.497261 4.277124 1.396767 -1.059749 -4.796211
    8 4.827512 0.000000 -0.000002 -0.937953 -0.500393 -0.827452
    9 11.140032 0.000000 0.000000 0.000000 0.000000 -0.496858
    10 10.314563 -0.000001 0.000001 -1.941654 -0.130485 0.323543
    11 1.646836 0.445664 -1.699647 -0.392035 3.352851 -0.875707
    12 0.928312 0.000000 0.000000 0.000000 0.000000 0.593404
    13 0.928313 0.000000 -0.000001 0.000000 0.000000 1.204231
    14 2.979373 -0.388274 -0.044205 -0.030851 -0.030823 0.768363
    15 1.435262 -0.000001 -0.000001 0.000000 0.000000 1.204014
    16 1.482593 -0.000001 0.000001 0.000000 0.000000 1.153221
    17 -2.932401 1.192629 -4.156022 -1.419577 0.728231 -4.752763
    18 4.972047 0.000000 0.000000 0.714885 0.580555 -0.773224
    19 11.585358 0.000000 0.000001 0.000000 0.000000 -0.587914
    20 10.127058 0.000000 0.000001 2.159424 0.018913 0.354605
    21 1.537458 0.109715 1.664489 -3.079588 0.031470 0.928526
    22 0.928313 0.000000 0.000002 0.000000 0.000000 0.061034
    23 0.928311 0.000000 0.000001 0.000000 0.000000 0.671897
    24 2.686395 -0.427337 0.044204 -0.001208 0.043611 -0.052337
    25 1.435260 0.000000 0.000001 0.000000 0.000000 1.186618
    26 1.482593 0.000000 -0.000001 0.000000 0.000000 1.684243
    27 2.046984 0.000001 0.000000 0.123648 0.084557 -0.602821
    28 -0.000005 0.000007 3.713254 -0.099674 -3.047848 5.708698
    29 18.045723 0.000000 0.000000 0.000000 0.000000 -0.413100
    30 17.597597 0.000000 0.000000 -0.057430 -0.016918 -0.162674
    31 0.000005 -0.000003 -3.713254 0.808187 2.831426 6.175283
    32 18.045721 0.000000 0.000000 0.000000 0.000000 -0.782250
    33 17.597597 0.000000 0.000000 0.178123 0.125154 0.485216
  time 17
    0 0.461917 3.328378 0.368674 0.000000 0.000000 -1.571017
    1 0.210940 -0.007813 0.000000 -1.570795 -1.570787 0.000000
    2 1.293670 0.684478 -0.000001 -0.062447 0.004445 -0.094676
    3 5.309685 -0.003834 0.000000 0.005462 0.002912 0.013630
    4 4.826790 -0.004591 0.000000 0.009366 -0.021141 0.031120
    5 5.792767 -0.005304 0.000000 -0.033187 -0.013399 0.017922
    6 6.662322 -0.001452 0.000000 -0.091910 0.032655 0.231870
    7 -3.518356 0.356631 4.277124 1.383923 -1.058418 -4.739103
    8 4.827512 0.000000 -0.000002 -0.936120 -0.513354 -0.830312
    9 11.140032 0.000000 0.000000 0.000000 0.000000 -0.493090
    10 10.314563 -0.000001 0.000001 -1.941654 -0.130485 0.323543
    11 1.646836 0.445664 -1.699647 -0.392035 3.352851 -0.875707
    12 0.928312 0.000000 0.000000 0.000000 0.000000 0.593404
    13 0.928313 0.000000 -0.000001 0.000000 0.000000 1.204231
    14 2.979373 -0.388274 -0.044205 -0.030851 -0.030823 0.768363
    15 1.435262 -0.000001 -0.000001 0.000000 0.000000 1.204014
    16 1.482593 -0.000001 0.000001 0.000000 0.000000 1.153221
    17 -2.975371 1.071532 -4.156022 -1.405820 0.725707 -4.689740
    18 4.972047 0.000000 0.000000 0.704005 0.600160 -0.780545
    19 11.585358 0.000000 0.000001 0.000000 0.000000 -0.587423
    20 10.127058 0.000000 0.000001 2.160687 0.016832 0.358907
    21 1.537458 0.109715 1.664489 -3.079588 0.031470 0.928526
    22 0.928313 0.000000 0.000002 0.000000 0.000000 0.061034
    23 0.928311 0.000000 0.000001 0.000000 0.000000 0.671897
    24 2.686395 -0.427337 0.044204 -0.001208 0.043611 -0.052337
    25 1.435260 0.000000 0.000001 0.000000 0.000000 1.186618
    26 1.482593 0.000000 -0.000001 0.000000 0.000000 1.684243
    27 2.046984 0.000001 0.000000 0.123691 0.084498 -0.562552
    28 -0.000005 0.000007 3.713254 -0.099674 -3.047944 5.708794
    29 18.045723 0.000000 0.000000 0.000000 0.000000 -0.412582
    30 17.597597 0.000000 0.000000 -0.057506 -0.016845 -0.163041
    31 0.000005 -0.000003 -3.713254 0.808187 2.831330 6.175091
    32 18.045721 0.000000 0.000000 0.000000 0.000000 -0.782565
    33 17.597597 0.000000 0.000000 0.178123 0.125095 0.485169
  time 18
    0 0.461917 3.328378 0.368674 0.000000 0.000000 -1.571017
    1 0.218753 -0.007813 0.000000 -1.570795 -1.570787 0.000000
    2 1.293670 0.684478 -0.000001 -0.062447 0.004445 -0.094676
    3 5.309685 -0.003834 0.000000 0.005394 0.003248 0.014725
    4 4.826790 -0.004591 0.000000 0.009499 -0.021333 0.029533
    5 5.792767 -0.005304 0.000000 -0.033133 -0.013746 0.015492
    6 6.662322 -0.001452 0.000000 -0.091910 0.032655 0.231870
    7 -3.518356 0.356631 4.277124 1.379418 -1.057945 -4.734025
    8 4.827512 0.000000 -0.000002 -0.934526 -0.514207 -0.831525
    9 11.140032 0.000000 0.000000 0.000000 0.000000 -0.491713
    10 10.314563 -0.000001 0.000001 -1.941654 -0.130485 0.323543
    11 1.646836 0.445664 -1.699647 -0.392035 3.352851 -0.875707
    12 0.928312 0.000000 0.000000 0.000000 0.000000 0.593404
    13 0.928313 0.000000 -0.000001 0.000000 0.000000 1.204231
    14 2.979373 -0.388274 -0.044205 -0.030851 -0.030823 0.768363
    15 1.435262 -0.000001 -0.000001 0.000000 0.000000 1.204014
    16 1.482593 -0.000001 0.000001 0.000000 0.000000 1.153221
    17 -2.975371 1.071532 -4.156022 -1.395312 0.723683 -4.673936
    18 4.972047 0.000000 0.000000 0.695844 0.610686 -0.785737
    19 11.585358 0.000000 0.000001 0.000000 0.000000 -0.587015
    20 10.127058 0.000000 0.000001 2.161668 0.015319 0.362208
    21 1.537458 0.109715 1.664489 -3.079588 0.031470 0.928526
    22 0.928313 0.000000 0.000002 0.000000 0.000000 0.061034
    23 0.928311 0.000000 0.000001 0.000000 0.000000 0.671897
    24 2.686395 -0.427337 0.044204 -0.001208 0.043611 -0.052337
    25 1.435260 0.000000 0.000001 0.000000 0.000000 1.186618
    26 1.482593 0.000000 -0.000001 0.000000 0.000000 1.684243
    27 2.046984 0.000001 0.000000 0.123648 0.084321 -0.559572
    28 -0.000005 0.000007 3.713254 -0.099674 -3.047944 5.708794
    29 18.045723 0.000000 0.000000 0.000000 0.000000 -0.412804
    30 17.597597 0.000000 0.000000 -0.057506 -0.016845 -0.162858
    31 0.000005 -0.000003 -3.713254 0.808187 2.831330 6.175091
    32 18.045721 0.000000 0.000000 0.000000 0.000000 -0.782486
    33 17.597597 0.000000 0.000000 0.178055 0.125154 0.485169
  time 19
    0 0.461917 3.328378 0.368674 0.000000 0.000000 -1.571017
    1 0.218753 -0.007813 0.000000 -1.570795 -1.570787 0.000000
    2 1.293670 0.684478 -0.000001 -0.062447 0.004445 -0.094676
    3 5.309685 -0.003834 0.000000 0.005309 0.003535 0.015785
    4 4.826790 -0.004591 0.000000 0.009747 -0.021572 0.027372
    5 5.792767 -0.005304 0.000000 -0.033061 -0.014286 0.012170
    6 6.662322 -0.001452 0.000000 -0.091910 0.032655 0.231870
    7 -3.518356 0.356631 4.277124 1.379322 -1.057945 -4.733929
    8 4.827512 0.000000 -0.000002 -0.931257 -0.502354 -0.825199
    9 11.140032 0.000000 0.000000 0.000000 0.000000 -0.515406
    10 10.314563 -0.000001 0.000001 -1.941654 -0.130485 0.323543
    11 1.646836 0.445664 -1.699647 -0.392035 3.352851 -0.875707
    12 0.928312 0.000000 0.000000 0.000000 0.000000 0.593404
    13 0.928313 0.000000 -0.000001 0.000000 0.000000 1.204231
    14 2.979373 -0.388274 -0.044205 -0.030851 -0.030823 0.768363
    15 1.435262 -0.000001 -0.000001 0.000000 0.000000 1.204014
    16 1.482593 -0.000001 0.000001 0.000000 0.000000 1.153221
    17 -2.975371 1.071532 -4.156022 -1.393306 0.723315 -4.671159
    18 4.972047 0.000000 0.000000 0.694531 0.608677 -0.785870
    19 11.585358 0.000000 0.000001 0.000000 0.000000 -0.587015
    20 10.127058 0.000000 0.000001 2.161879 0.015036 0.362808
    21 1.537458 0.109715 1.664489 -3.079588 0.031470 0.928526
    22 0.928313 0.000000 0.000002 0.000000 0.000000 0.061034
    23 0.928311 0.000000 0.000001 0.000000 0.000000 0.671897
    24 2.686395 -0.427337 0.044204 -0.001208 0.043611 -0.052337
    25 1.435260 0.000000 0.000001 0.000000 0.000000 1.186618
    26 1.482593 0.000000 -0.000001 0.000000 0.000000 1.684243
    27 2.046984 0.000001 0.000000 0.123605 0.084144 -0.555192
    28 -0.000005 0.000007 3.713254 -0.099482 -3.047944 5.708698
    29 18.045723 0.000000 0.000000 0.000000 0.000000 -0.413248
    30 17.597597 0.000000 0.000000 -0.057506 -0.016845 -0.162491
    31 0.000005 -0.000003 -3.713254 0.808187 2.831330 6.175283
    32 18.045721 0.000000 0.000000 0.000000 0.000000 -0.782250
    33 17.597597 0.000000 0.000000 0.178022 0.125233 0.485169
  time 20
    0 0.461917 3.328378 0.368674 0.000000 0.000000 -1.571017
    1 0.218753 -0.007813 0.000000 -1.570795 -1.570787 0.000000
    2 1.293670 0.684478 -0.000001 -0.062447 0.004445 -0.094676
    3 5.309685 -0.003834 0.000000 0.005275 0.003679 0.016297
    4 4.826790 -0.004591 0.000000 0.009823 -0.021692 0.026270
    5 5.792767 -0.005304 0.000000 -0.033025 -0.014513 0.010572
    6 6.662322 -0.001452 0.000000 -0.091910 0.032655 0.231870
    7 -3.518356 0.356631 4.277124 1.379418 -1.057945 -4.734025
    8 4.827512 0.000000 -0.000002 -0.929663 -0.496896 -0.822513
    9 11.140032 0.000000 0.000000 0.000000 0.000000 -0.525332
    10 10.314563 -0.000001 0.000001 -1.941654 -0.130485 0.323543
    11 1.646836 0.445664 -1.699647 -0.392035 3.352851 -0.875707
    12 0.928312 0.000000 0.000000 0.000000 0.000000 0.593404
    13 0.928313 0.000000 -0.000001 0.000000 0.000000 1.204231
    14 2.979373 -0.388274 -0.044205 -0.030851 -0.030823 0.768363
    15 1.435262 -0.000001 -0.000001 0.000000 0.000000 1.204014
    16 1.482593 -0.000001 0.000001 0.000000 0.000000 1.153221
    17 -2.975371 1.071532 -4.156022 -1.395312 0.723683 -4.673936
    18 4.972047 0.000000 0.000000 0.696125 0.604017 -0.784339
    19 11.585358 0.000000 0.000001 0.000000 0.000000 -0.587015
    20 10.127058 0.000000 0.000001 2.161668 0.015319 0.362208
    21 1.537458 0.109715 1.664489 -3.079588 0.031470 0.928526
    22 0.928313 0.000000 0.000002 0.000000 0.000000 0.061034
    23 0.928311 0.000000 0.000001 0.000000 0.000000 0.671897
    24 2.686395 -0.427337 0.044204 -0.001208 0.043611 -0.052337
    25 1.435260 0.000000 0.000001 0.000000 0.000000 1.186618
    26 1.482593 0.000000 -0.000001 0.000000 0.000000 1.684243
    27 2.046984 0.000001 0.000000 0.123519 0.084085 -0.552820
    28 -0.000005 0.000007 3.713254 -0.099865 -3.047848 5.708602
    29 18.045723 0.000000 0.000000 0.000000 0.000000 -0.413544
    30 17.597597 0.000000 0.000000 -0.057202 -0.016721 -0.162308
    31 0.000005 -0.000003 -3.713254 0.807516 2.831522 6.175187
    32 18.045721 0.000000 0.000000 0.000000 0.000000 -0.782250
    33 17.597597 0.000000 0.000000 0.178760 0.125233 0.485354
end
