version 1
nodes
  0 "Bip01" -1
  1 "Bip01 Pelvis" 0
  2 "Bip01 Spine" 1
  3 "Bip01 Spine1" 2
  4 "Bip01 Spine2" 3
  5 "Bip01 Spine3" 4
  6 "Bip01 Neck" 5
  7 "Bip01 L Arm" 6
  8 "Bip01 L Arm1" 7
  9 "Bip01 L Arm2" 8
  10 "Bip01 L Hand" 9
  11 "Bip01 L Finger0" 10
  12 "Bip01 L Finger01" 11
  13 "Bip01 L Finger02" 12
  14 "Bip01 L Finger1" 10
  15 "Bip01 L Finger11" 14
  16 "Bip01 L Finger12" 15
  17 "Bip01 R Arm" 6
  18 "Bip01 R Arm1" 17
  19 "Bip01 R Arm2" 18
  20 "Bip01 R Hand" 19
  21 "Bip01 R Finger0" 20
  22 "Bip01 R Finger01" 21
  23 "Bip01 R Finger02" 22
  24 "Bip01 R Finger1" 20
  25 "Bip01 R Finger11" 24
  26 "Bip01 R Finger12" 25
  27 "Bip01 Head" 6
  28 "Bip01 L Leg" 1
  29 "Bip01 L Leg1" 28
  30 "Bip01 L Foot" 29
  31 "Bip01 R Leg" 1
  32 "Bip01 R Leg1" 31
  33 "Bip01 R Foot" 32
end
skeleton
  time 0
    0 0.395509 2.164280 0.368674 0.000000 0.000000 -1.571017
    1 -0.875031 -0.105472 0.000000 -1.570795 -1.570787 0.000000
    2 1.293670 0.684478 -0.000001 -0.044289 0.047925 -0.009213
    3 5.309685 -0.003834 0.000000 -0.381046 -0.025779 0.041097
    4 4.826790 -0.004591 0.000000 -0.314841 -0.132094 0.004199
    5 5.792767 -0.005304 0.000000 -0.349268 -0.071296 0.017922
    6 6.662322 -0.001452 0.000000 0.000000 -0.000001 0.471000
    7 -3.108188 1.516823 4.339626 1.427248 -1.394412 -5.038344
    8 4.827512 0.000000 -0.000002 0.481008 0.690710 0.709813
    9 11.140032 0.000000 0.000000 0.000000 0.000000 -1.910495
    10 10.314563 -0.000001 0.000001 -1.569942 0.000000 -0.069778
    11 1.646836 0.445664 -1.699647 0.153911 0.442352 0.277231
    12 0.928312 0.000000 0.000000 0.000000 0.000000 0.000000
    13 0.928313 0.000000 -0.000001 0.000000 0.000000 0.000000
    14 2.979373 -0.388274 -0.044205 -0.038161 -0.021140 1.047514
    15 1.435262 -0.000001 -0.000001 0.000000 0.000000 0.924803
    16 1.482593 -0.000001 0.000001 0.000000 0.000000 1.326263
    17 -2.869899 1.399667 -4.140396 1.270791 1.204745 -2.362472
    18 4.972047 0.000000 0.000000 -1.571454 -0.948174 0.365538
    19 11.585358 0.000000 0.000001 0.000000 0.000000 -1.471444
    20 10.127058 0.000000 0.000001 1.700183 0.452395 -0.574245
    21 1.537458 0.109715 1.664489 -0.264662 -0.055995 0.783079
    22 0.928313 0.000000 0.000002 0.000000 0.000000 -0.453501
    23 0.928311 0.000000 0.000001 0.000000 0.000000 0.000000
    24 2.686395 -0.427337 0.044204 0.005971 0.043227 0.113528
    25 1.435260 0.000000 0.000001 0.000000 0.000000 1.090194
    26 1.482593 0.000000 -0.000001 0.000000 0.000000 1.168644
    27 2.046984 0.000001 0.000000 0.304769 -0.431901 0.148170
    28 -0.000005 0.000007 3.713254 -0.099290 -3.042863 5.709178
    29 18.045723 0.000000 0.000000 0.000000 0.000000 -0.414802
    30 17.597597 0.000000 0.000000 -0.054972 -0.021274 -0.161024
    31 0.000005 -0.000003 -3.713254 0.809049 2.836795 6.177296
    32 18.045721 0.000000 0.000000 0.000000 0.000000 -0.781699
    33 17.597597 0.000000 0.000000 0.178559 0.122926 0.489881
  time 1
    0 0.418947 2.156467 0.368674 0.000000 0.000000 -1.571017
    1 -0.875031 -0.105472 0.000000 -1.570795 -1.570787 0.000000
    2 1.293670 0.684478 -0.000001 -0.039741 0.040052 -0.007740
    3 5.309685 -0.003834 0.000000 -0.371567 -0.020230 0.043675
    4 4.826790 -0.004591 0.000000 -0.311866 -0.115076 0.022014
    5 5.792767 -0.005304 0.000000 -0.342810 -0.062608 0.028428
    6 6.662322 -0.001452 0.000000 0.000000 -0.000001 0.471000
    7 -3.108188 1.516823 4.339626 1.427248 -1.394412 -5.038344
    8 4.827512 0.000000 -0.000002 0.168518 0.741789 0.483049
    9 11.140032 0.000000 0.000000 0.000000 0.000000 -1.856880
    10 10.314563 -0.000001 0.000001 -1.569942 0.002435 -0.069778
    11 1.646836 0.445664 -1.699647 0.153911 0.442352 0.277231
    12 0.928312 0.000000 0.000000 0.000000 0.000000 0.000000
    13 0.928313 0.000000 -0.000001 0.000000 0.000000 0.000000
    14 2.979373 -0.388274 -0.044205 -0.038161 -0.021140 1.047514
    15 1.435262 -0.000001 -0.000001 0.000000 0.000000 0.924803
    16 1.482593 -0.000001 0.000001 0.000000 0.000000 1.326263
    17 -2.869899 1.399667 -4.140396 1.270791 1.204745 -2.362472
    18 4.972047 0.000000 0.000000 -1.109121 -0.852639 -0.677252
    19 11.585358 0.000000 0.000001 0.000000 0.000000 -1.441631
    20 10.127058 0.000000 0.000001 2.132497 0.183738 -0.332191
    21 1.537458 0.109715 1.664489 -0.264662 -0.055995 0.783079
    22 0.928313 0.000000 0.000002 0.000000 0.000000 -0.453501
    23 0.928311 0.000000 0.000001 0.000000 0.000000 0.000000
    24 2.686395 -0.427337 0.044204 0.005491 0.043275 0.102968
    25 1.435260 0.000000 0.000001 0.000000 0.000000 1.094220
    26 1.482593 0.000000 -0.000001 0.000000 0.000000 1.168644
    27 2.046984 0.000001 0.000000 0.553185 -0.356107 -0.012052
    28 -0.000005 0.000007 3.713254 -0.099386 -3.043438 5.708794
    29 18.045723 0.000000 0.000000 0.000000 0.000000 -0.415986
    30 17.597597 0.000000 0.000000 -0.055200 -0.020684 -0.160107
    31 0.000005 -0.000003 -3.713254 0.808762 2.836219 6.177488
    32 18.045721 0.000000 0.000000 0.000000 0.000000 -0.781463
    33 17.597597 0.000000 0.000000 0.178659 0.123537 0.489373
  time 2
    0 0.458010 2.152560 0.368674 0.000000 0.000000 -1.571017
    1 -0.875031 -0.105472 0.000000 -1.570795 -1.570787 0.000000
    2 1.293670 0.684478 -0.000001 -0.033491 0.030943 -0.008979
    3 5.309685 -0.003834 0.000000 -0.356133 -0.015184 0.037723
    4 4.826790 -0.004591 0.000000 -0.304369 -0.092102 0.028541
    5 5.792767 -0.005304 0.000000 -0.331586 -0.052205 0.031667
    6 6.662322 -0.001452 0.000000 0.000000 -0.000001 0.471000
    7 -3.108188 1.516823 4.339626 1.427248 -1.394412 -5.038344
    8 4.827512 0.000000 -0.000002 -0.119818 0.753386 0.220065
    9 11.140032 0.000000 0.000000 0.000000 0.000000 -1.789208
    10 10.314563 -0.000001 0.000001 -1.569942 0.000000 -0.069778
    11 1.646836 0.445664 -1.699647 0.153911 0.442352 0.277231
    12 0.928312 0.000000 0.000000 0.000000 0.000000 0.000000
    13 0.928313 0.000000 -0.000001 0.000000 0.000000 0.000000
    14 2.979373 -0.388274 -0.044205 -0.038161 -0.021140 1.047514
    15 1.435262 -0.000001 -0.000001 0.000000 0.000000 0.924803
    16 1.482593 -0.000001 0.000001 0.000000 0.000000 1.326263
    17 -2.869899 1.399667 -4.140396 1.270791 1.204745 -2.362472
    18 4.972047 0.000000 0.000000 -0.895636 -0.614242 -1.236982
    19 11.585358 0.000000 0.000001 0.000000 0.000000 -1.443755
    20 10.127058 0.000000 0.000001 2.387678 -0.015225 -0.252207
    21 1.537458 0.109715 1.664489 -0.264662 -0.055995 0.783079
    22 0.928313 0.000000 0.000002 0.000000 0.000000 -0.453501
    23 0.928311 0.000000 0.000001 0.000000 0.000000 0.000000
    24 2.686395 -0.427337 0.044204 0.005971 0.043227 0.113528
    25 1.435260 0.000000 0.000001 0.000000 0.000000 1.090194
    26 1.482593 0.000000 -0.000001 0.000000 0.000000 1.168644
    27 2.046984 0.000001 0.000000 0.773597 -0.240719 -0.169173
    28 -0.000005 0.000007 3.713254 -0.099674 -3.044396 5.708315
    29 18.045723 0.000000 0.000000 0.000000 0.000000 -0.417467
    30 17.597597 0.000000 0.000000 -0.055606 -0.019699 -0.159098
    31 0.000005 -0.000003 -3.713254 0.808474 2.835165 6.177679
    32 18.045721 0.000000 0.000000 0.000000 0.000000 -0.781148
    33 17.597597 0.000000 0.000000 0.178726 0.124464 0.488449
  time 3
    0 0.543951 2.156467 0.368674 0.000000 0.000000 -1.571017
    1 -0.875031 -0.105472 0.000000 -1.570795 -1.570787 0.000000
    2 1.293670 0.684478 -0.000001 -0.020942 0.017700 -0.019626
    3 5.309685 -0.003834 0.000000 -0.320108 -0.010391 0.001495
    4 4.826790 -0.004591 0.000000 -0.285829 -0.044750 -0.002812
    5 5.792767 -0.005304 0.000000 -0.304640 -0.033677 0.009014
    6 6.662322 -0.001452 0.000000 0.000000 -0.000001 0.471000
    7 -3.108188 1.516823 4.339626 1.427248 -1.394412 -5.038344
    8 4.827512 0.000000 -0.000002 -0.282680 0.775216 -0.059990
    9 11.140032 0.000000 0.000000 0.000000 0.000000 -1.697555
    10 10.314563 -0.000001 0.000001 -1.569942 -0.011896 -0.069778
    11 1.646836 0.445664 -1.699647 0.153911 0.442352 0.277231
    12 0.928312 0.000000 0.000000 0.000000 0.000000 0.000000
    13 0.928313 0.000000 -0.000001 0.000000 0.000000 0.000000
    14 2.979373 -0.388274 -0.044205 -0.038161 -0.021140 1.047514
    15 1.435262 -0.000001 -0.000001 0.000000 0.000000 0.924803
    16 1.482593 -0.000001 0.000001 0.000000 0.000000 1.326263
    17 -2.869899 1.399667 -4.140396 1.270791 1.204745 -2.362472
    18 4.972047 0.000000 0.000000 -0.512938 -0.465837 -1.192922
    19 11.585358 0.000000 0.000001 0.000000 0.000000 -1.544956
    20 10.127058 0.000000 0.000001 2.328002 0.205110 -0.310232
    21 1.537458 0.109715 1.664489 -0.264662 -0.055995 0.783079
    22 0.928313 0.000000 0.000002 0.000000 0.000000 -0.453501
    23 0.928311 0.000000 0.000001 0.000000 0.000000 0.000000
    24 2.686395 -0.427337 0.044204 0.008188 0.042880 0.164989
    25 1.435260 0.000000 0.000001 0.000000 0.000000 1.070763
    26 1.482593 0.000000 -0.000001 0.000000 0.000000 1.168644
    27 2.046984 0.000001 0.000000 0.914478 -0.089425 -0.281767
    28 -0.000005 0.000007 3.713254 -0.100057 -3.047081 5.707548
    29 18.045723 0.000000 0.000000 0.000000 0.000000 -0.418651
    30 17.597597 0.000000 0.000000 -0.056569 -0.017140 -0.158273
    31 0.000005 -0.000003 -3.713254 0.807804 2.832385 6.177296
    32 18.045721 0.000000 0.000000 0.000000 0.000000 -0.781069
    33 17.597597 0.000000 0.000000 0.178894 0.126239 0.486047
  time 4
    0 0.629891 2.195530 0.368674 0.000000 0.000000 -1.571017
    1 -0.875031 -0.105472 0.000000 -1.570795 -1.570787 0.000000
    2 1.293670 0.684478 -0.000001 -0.008191 0.005488 -0.030876
    3 5.309685 -0.003834 0.000000 -0.284951 -0.003715 -0.036729
    4 4.826790 -0.004591 0.000000 -0.272153 -0.000384 -0.039699
    5 5.792767 -0.005304 0.000000 -0.279152 -0.015412 -0.015403
    6 6.662322 -0.001452 0.000000 0.000000 -0.000001 0.471000
    7 -3.108188 1.516823 4.339626 1.427248 -1.394412 -5.038344
    8 4.827512 0.000000 -0.000002 -0.317198 0.765154 -0.283894
    9 11.140032 0.000000 0.000000 0.000000 0.000000 -1.613871
    10 10.314563 -0.000001 0.000001 -1.569942 -0.026790 -0.069778
    11 1.646836 0.445664 -1.699647 0.153911 0.442352 0.277231
    12 0.928312 0.000000 0.000000 0.000000 0.000000 0.000000
    13 0.928313 0.000000 -0.000001 0.000000 0.000000 0.000000
    14 2.979373 -0.388274 -0.044205 -0.038161 -0.021140 1.047514
    15 1.435262 -0.000001 -0.000001 0.000000 0.000000 0.924803
    16 1.482593 -0.000001 0.000001 0.000000 0.000000 1.326263
    17 -2.869899 1.399667 -4.140396 1.270791 1.204745 -2.362472
    18 4.972047 0.000000 0.000000 -0.005581 -0.380907 -1.042907
    19 11.585358 0.000000 0.000001 0.000000 0.000000 -1.692062
    20 10.127058 0.000000 0.000001 2.160897 0.491923 -0.411625
    21 1.537458 0.109715 1.664489 -0.264662 -0.055995 0.783079
    22 0.928313 0.000000 0.000002 0.000000 0.000000 -0.453501
    23 0.928311 0.000000 0.000001 0.000000 0.000000 0.000000
    24 2.686395 -0.427337 0.044204 0.010908 0.042257 0.229664
    25 1.435260 0.000000 0.000001 0.000000 0.000000 1.046341
    26 1.482593 0.000000 -0.000001 0.000000 0.000000 1.168644
    27 2.046984 0.000001 0.000000 0.829432 -0.047914 -0.352085
    28 -0.000005 0.000007 3.713254 -0.100536 -3.049286 5.707644
    29 18.045723 0.000000 0.000000 0.000000 0.000000 -0.416653
    30 17.597597 0.000000 0.000000 -0.057430 -0.014950 -0.160061
    31 0.000005 -0.000003 -3.713254 0.807037 2.829988 6.175858
    32 18.045721 0.000000 0.000000 0.000000 0.000000 -0.781620
    33 17.597597 0.000000 0.000000 0.178928 0.126949 0.483922
  time 5
    0 0.610359 2.207250 0.368674 0.000000 0.000000 -1.571017
    1 -0.875031 -0.105472 0.000000 -1.570795 -1.570787 0.000000
    2 1.293670 0.684478 -0.000001 -0.003423 0.003415 -0.038359
    3 5.309685 -0.003834 0.000000 -0.270452 -0.002529 -0.061211
    4 4.826790 -0.004591 0.000000 -0.266564 0.003775 -0.080444
    5 5.792767 -0.005304 0.000000 -0.268233 -0.013938 -0.035543
    6 6.662322 -0.001452 0.000000 0.000000 -0.000001 0.471000
    7 -3.108188 1.516823 4.339626 1.427248 -1.394412 -5.038344
    8 4.827512 0.000000 -0.000002 -0.232458 0.704866 -0.356854
    9 11.140032 0.000000 0.000000 0.000000 0.000000 -1.557647
    10 10.314563 -0.000001 0.000001 -1.569942 -0.042996 -0.069778
    11 1.646836 0.445664 -1.699647 0.153911 0.442352 0.277231
    12 0.928312 0.000000 0.000000 0.000000 0.000000 0.000000
    13 0.928313 0.000000 -0.000001 0.000000 0.000000 0.000000
    14 2.979373 -0.388274 -0.044205 -0.038161 -0.021140 1.047514
    15 1.435262 -0.000001 -0.000001 0.000000 0.000000 0.924803
    16 1.482593 -0.000001 0.000001 0.000000 0.000000 1.326263
    17 -2.869899 1.399667 -4.140396 1.270791 1.204745 -2.362472
    18 4.972047 0.000000 0.000000 0.225163 -0.470658 -0.814356
    19 11.585358 0.000000 0.000001 0.000000 0.000000 -1.877557
    20 10.127058 0.000000 0.000001 2.247220 0.421283 -0.347648
    21 1.537458 0.109715 1.664489 -0.264662 -0.055995 0.783079
    22 0.928313 0.000000 0.000002 0.000000 0.000000 -0.453501
    23 0.928311 0.000000 0.000001 0.000000 0.000000 0.000000
    24 2.686395 -0.427337 0.044204 0.013857 0.041394 0.299620
    25 1.435260 0.000000 0.000001 0.000000 0.000000 1.019889
    26 1.482593 0.000000 -0.000001 0.000000 0.000000 1.168644
    27 2.046984 0.000001 0.000000 0.799619 0.047324 -0.434812
    28 -0.000005 0.000007 3.713254 -0.100536 -3.048903 5.708123
    29 18.045723 0.000000 0.000000 0.000000 0.000000 -0.414802
    30 17.597597 0.000000 0.000000 -0.057278 -0.015368 -0.161391
    31 0.000005 -0.000003 -3.713254 0.807037 2.830372 6.175283
    32 18.045721 0.000000 0.000000 0.000000 0.000000 -0.782014
    33 17.597597 0.000000 0.000000 0.178861 0.126239 0.484246
  time 6
    0 0.567389 2.215062 0.368674 0.000000 0.000000 -1.571017
    1 -0.875031 -0.105472 0.000000 -1.570795 -1.570787 0.000000
    2 1.293670 0.684478 -0.000001 -0.000004 -0.000001 -0.040837
    3 5.309685 -0.003834 0.000000 -0.261773 0.000204 -0.069796
    4 4.826790 -0.004591 0.000000 -0.261757 -0.000180 -0.097355
    5 5.792767 -0.005304 0.000000 -0.261380 -0.014753 -0.038512
    6 6.662322 -0.001452 0.000000 0.000000 -0.000001 0.471000
    7 -3.108188 1.516823 4.339626 1.427248 -1.394412 -5.038344
    8 4.827512 0.000000 -0.000002 -0.157285 0.595374 -0.426174
    9 11.140032 0.000000 0.000000 0.000000 0.000000 -1.508886
    10 10.314563 -0.000001 0.000001 -1.569942 -0.058545 -0.069778
    11 1.646836 0.445664 -1.699647 0.153911 0.442352 0.277231
    12 0.928312 0.000000 0.000000 0.000000 0.000000 0.000000
    13 0.928313 0.000000 -0.000001 0.000000 0.000000 0.000000
    14 2.979373 -0.388274 -0.044205 -0.038161 -0.021140 1.047514
    15 1.435262 -0.000001 -0.000001 0.000000 0.000000 0.924803
    16 1.482593 -0.000001 0.000001 0.000000 0.000000 1.326263
    17 -2.869899 1.399667 -4.140396 1.270791 1.204745 -2.362472
    18 4.972047 0.000000 0.000000 0.436210 -0.642605 -0.789331
    19 11.585358 0.000000 0.000001 0.000000 0.000000 -2.021395
    20 10.127058 0.000000 0.000001 2.352686 0.275749 -0.245204
    21 1.537458 0.109715 1.664489 -0.264662 -0.055995 0.783079
    22 0.928313 0.000000 0.000002 0.000000 0.000000 -0.453501
    23 0.928311 0.000000 0.000001 0.000000 0.000000 0.000000
    24 2.686395 -0.427337 0.044204 0.016613 0.040339 0.366921
    25 1.435260 0.000000 0.000001 0.000000 0.000000 0.994402
    26 1.482593 0.000000 -0.000001 0.000000 0.000000 1.168644
    27 2.046984 0.000001 0.000000 0.769418 0.172625 -0.565533
    28 -0.000005 0.000007 3.713254 -0.100345 -3.047752 5.708602
    29 18.045723 0.000000 0.000000 0.000000 0.000000 -0.413544
    30 17.597597 0.000000 0.000000 -0.056797 -0.016574 -0.162308
    31 0.000005 -0.000003 -3.713254 0.807516 2.831522 6.175187
    32 18.045721 0.000000 0.000000 0.000000 0.000000 -0.782250
    33 17.597597 0.000000 0.000000 0.178794 0.125233 0.485354
end
