version 1
nodes
  0 "Bip01" -1
  1 "Bip01 Pelvis" 0
  2 "Bip01 Spine" 1
  3 "Bip01 Spine1" 2
  4 "Bip01 Spine2" 3
  5 "Bip01 Spine3" 4
  6 "Bip01 Neck" 5
  7 "Bip01 L Arm" 6
  8 "Bip01 L Arm1" 7
  9 "Bip01 L Arm2" 8
  10 "Bip01 L Hand" 9
  11 "Bip01 L Finger0" 10
  12 "Bip01 L Finger01" 11
  13 "Bip01 L Finger02" 12
  14 "Bip01 L Finger1" 10
  15 "Bip01 L Finger11" 14
  16 "Bip01 L Finger12" 15
  17 "Bip01 R Arm" 6
  18 "Bip01 R Arm1" 17
  19 "Bip01 R Arm2" 18
  20 "Bip01 R Hand" 19
  21 "Bip01 R Finger0" 20
  22 "Bip01 R Finger01" 21
  23 "Bip01 R Finger02" 22
  24 "Bip01 R Finger1" 20
  25 "Bip01 R Finger11" 24
  26 "Bip01 R Finger12" 25
  27 "Bip01 Head" 6
  28 "Bip01 L Leg" 1
  29 "Bip01 L Leg1" 28
  30 "Bip01 L Foot" 29
  31 "Bip01 R Leg" 1
  32 "Bip01 R Leg1" 31
  33 "Bip01 R Foot" 32
end
skeleton
  time 0
    0 0.340819 -0.347516 1.540585 0.000000 0.000000 -1.571017
    1 -3.433703 0.000000 0.000000 -1.570795 -1.570787 0.000000
    2 1.293670 0.684478 -0.000001 -0.000038 -0.042474 0.035686
    3 5.309685 -0.003834 0.000000 0.053025 0.018037 -0.104664
    4 4.826790 -0.004591 0.000000 0.192632 0.075946 -0.100596
    5 5.792767 -0.005304 0.000000 0.153597 0.064321 -0.088135
    6 6.662322 -0.001452 0.000000 0.000000 -0.000001 0.095957
    7 -3.444135 0.282410 4.339626 -0.257753 -1.364193 -2.985821
    8 4.827512 0.000000 -0.000002 0.765359 1.088768 -0.192651
    9 11.140032 0.000000 0.000000 0.000000 0.000000 -0.782179
    10 10.314563 -0.000001 0.000001 -1.642256 0.083181 -0.332921
    11 1.646836 0.445664 -1.699647 0.400567 0.460373 0.766655
    12 0.928312 0.000000 0.000000 0.000000 0.000000 -0.636658
    13 0.928313 0.000000 -0.000001 0.000000 0.000000 0.000000
    14 2.979373 -0.388274 -0.044205 -0.023121 -0.037007 0.541151
    15 1.435262 -0.000001 -0.000001 0.000000 0.000000 1.700791
    16 1.482593 -0.000001 0.000001 0.000000 0.000000 1.229725
    17 -3.182409 0.251194 -4.140396 0.672666 1.317189 -2.581521
    18 4.972047 0.000000 0.000000 0.811122 -0.804590 -0.593525
    19 11.585358 0.000000 0.000001 0.000000 0.000000 -1.577873
    20 10.127058 0.000000 0.000001 1.537144 -0.014847 -0.019606
    21 1.537458 0.109715 1.664489 -0.264662 -0.055995 0.783079
    22 0.928313 0.000000 0.000002 0.000000 0.000000 -0.453501
    23 0.928311 0.000000 0.000001 0.000000 0.000000 0.000000
    24 2.686395 -0.427337 0.044204 -0.005762 0.043239 -0.157074
    25 1.435260 0.000000 0.000001 0.000000 0.000000 0.732613
    26 1.482593 0.000000 -0.000001 0.000000 0.000000 1.168644
    27 2.046984 0.000001 0.000000 -0.387789 -0.177788 -0.154939
    28 -0.000005 0.000007 3.713254 -0.111178 -3.081500 5.833411
    29 18.045723 0.000000 0.000000 0.000000 0.000000 -0.414728
    30 17.597597 0.000000 0.000000 -0.065691 0.001711 -0.033752
    31 0.000005 -0.000003 -3.713254 0.554109 2.995263 6.246993
    32 18.045721 0.000000 0.000000 0.000000 0.000000 -0.556880
    33 17.597597 0.000000 0.000000 0.062940 0.097403 0.450390
  time 1
    0 0.352539 -0.347516 1.540585 0.000000 0.000000 -1.571017
    1 -3.433703 0.000000 0.000000 -1.570795 -1.570787 0.000000
    2 1.293670 0.684478 -0.000001 -0.000038 -0.042474 0.035686
    3 5.309685 -0.003834 0.000000 0.053025 0.018037 -0.104664
    4 4.826790 -0.004591 0.000000 0.141093 0.057934 -0.101456
    5 5.792767 -0.005304 0.000000 0.049124 0.033173 -0.086993
    6 6.662322 -0.001452 0.000000 0.000000 -0.000001 0.095957
    7 -3.444135 0.282410 4.339626 -0.257753 -1.364193 -2.985821
    8 4.827512 0.000000 -0.000002 0.793578 1.007758 -0.018744
    9 11.140032 0.000000 0.000000 0.000000 0.000000 -0.819782
    10 10.314563 -0.000001 0.000001 -1.642256 0.083181 -0.332921
    11 1.646836 0.445664 -1.699647 0.400567 0.460373 0.766655
    12 0.928312 0.000000 0.000000 0.000000 0.000000 -0.636658
    13 0.928313 0.000000 -0.000001 0.000000 0.000000 0.000000
    14 2.979373 -0.388274 -0.044205 -0.023121 -0.037007 0.541151
    15 1.435262 -0.000001 -0.000001 0.000000 0.000000 1.700791
    16 1.482593 -0.000001 0.000001 0.000000 0.000000 1.229725
    17 -3.182409 0.251194 -4.140396 1.150803 1.109284 -2.130109
    18 4.972047 0.000000 0.000000 -0.057546 -1.056164 -0.112529
    19 11.585358 0.000000 0.000001 0.000000 0.000000 -2.126027
    20 10.127058 0.000000 0.000001 1.537144 -0.014847 -0.019606
    21 1.537458 0.109715 1.664489 -0.264662 -0.055995 0.783079
    22 0.928313 0.000000 0.000002 0.000000 0.000000 -0.453501
    23 0.928311 0.000000 0.000001 0.000000 0.000000 0.000000
    24 2.686395 -0.427337 0.044204 -0.005762 0.043239 -0.157074
    25 1.435260 0.000000 0.000001 0.000000 0.000000 0.732613
    26 1.482593 0.000000 -0.000001 0.000000 0.000000 1.168644
    27 2.046984 0.000001 0.000000 -0.342552 -0.177847 -0.167774
    28 -0.000005 0.000007 3.713254 -0.111178 -3.081500 5.833411
    29 18.045723 0.000000 0.000000 0.000000 0.000000 -0.414728
    30 17.597597 0.000000 0.000000 -0.065691 0.001711 -0.033752
    31 0.000005 -0.000003 -3.713254 0.554109 2.995263 6.246993
    32 18.045721 0.000000 0.000000 0.000000 0.000000 -0.556880
    33 17.597597 0.000000 0.000000 0.062940 0.097403 0.450390
  time 2
    0 0.360351 -0.347516 1.540585 0.000000 0.000000 -1.571017
    1 -3.433703 0.000000 0.000000 -1.570795 -1.570787 0.000000
    2 1.293670 0.684478 -0.000001 -0.000038 -0.042474 0.035686
    3 5.309685 -0.003834 0.000000 0.053025 0.018037 -0.104664
    4 4.826790 -0.004591 0.000000 0.110212 0.047099 -0.101522
    5 5.792767 -0.005304 0.000000 -0.013491 0.014597 -0.084730
    6 6.662322 -0.001452 0.000000 0.000000 -0.000001 0.095957
    7 -3.444135 0.282410 4.339626 -0.257753 -1.364193 -2.985821
    8 4.827512 0.000000 -0.000002 0.833517 0.951477 0.106986
    9 11.140032 0.000000 0.000000 0.000000 0.000000 -0.857458
    10 10.314563 -0.000001 0.000001 -1.642256 0.083181 -0.332921
    11 1.646836 0.445664 -1.699647 0.400567 0.460373 0.766655
    12 0.928312 0.000000 0.000000 0.000000 0.000000 -0.636658
    13 0.928313 0.000000 -0.000001 0.000000 0.000000 0.000000
    14 2.979373 -0.388274 -0.044205 -0.023121 -0.037007 0.541151
    15 1.435262 -0.000001 -0.000001 0.000000 0.000000 1.700791
    16 1.482593 -0.000001 0.000001 0.000000 0.000000 1.229725
    17 -3.182409 0.251194 -4.140396 1.132556 1.125138 -2.146583
    18 4.972047 0.000000 0.000000 0.111573 -1.094973 -0.362511
    19 11.585358 0.000000 0.000001 0.000000 0.000000 -2.032095
    20 10.127058 0.000000 0.000001 1.537144 -0.014847 -0.019606
    21 1.537458 0.109715 1.664489 -0.264662 -0.055995 0.783079
    22 0.928313 0.000000 0.000002 0.000000 0.000000 -0.453501
    23 0.928311 0.000000 0.000001 0.000000 0.000000 0.000000
    24 2.686395 -0.427337 0.044204 -0.005762 0.043239 -0.157074
    25 1.435260 0.000000 0.000001 0.000000 0.000000 0.732613
    26 1.482593 0.000000 -0.000001 0.000000 0.000000 1.168644
    27 2.046984 0.000001 0.000000 -0.241781 -0.132500 -0.186692
    28 -0.000005 0.000007 3.713254 -0.111178 -3.081500 5.833411
    29 18.045723 0.000000 0.000000 0.000000 0.000000 -0.414728
    30 17.597597 0.000000 0.000000 -0.065691 0.001711 -0.033752
    31 0.000005 -0.000003 -3.713254 0.554109 2.995263 6.246993
    32 18.045721 0.000000 0.000000 0.000000 0.000000 -0.556880
    33 17.597597 0.000000 0.000000 0.062940 0.097403 0.450390
  time 3
    0 0.360351 -0.347516 1.540585 0.000000 0.000000 -1.571017
    1 -3.433703 0.000000 0.000000 -1.570795 -1.570787 0.000000
    2 1.293670 0.684478 -0.000001 -0.000038 -0.042474 0.035686
    3 5.309685 -0.003834 0.000000 0.053025 0.018037 -0.104664
    4 4.826790 -0.004591 0.000000 0.122038 0.051246 -0.101588
    5 5.792767 -0.005304 0.000000 0.010523 0.021692 -0.085705
    6 6.662322 -0.001452 0.000000 0.000000 -0.000001 0.095957
    7 -3.444135 0.282410 4.339626 -0.257753 -1.364193 -2.985821
    8 4.827512 0.000000 -0.000002 0.887007 0.950027 0.117384
    9 11.140032 0.000000 0.000000 0.000000 0.000000 -0.874557
    10 10.314563 -0.000001 0.000001 -1.642256 0.083181 -0.332921
    11 1.646836 0.445664 -1.699647 0.400567 0.460373 0.766655
    12 0.928312 0.000000 0.000000 0.000000 0.000000 -0.636658
    13 0.928313 0.000000 -0.000001 0.000000 0.000000 0.000000
    14 2.979373 -0.388274 -0.044205 -0.023121 -0.037007 0.541151
    15 1.435262 -0.000001 -0.000001 0.000000 0.000000 1.700791
    16 1.482593 -0.000001 0.000001 0.000000 0.000000 1.229725
    17 -3.182409 0.251194 -4.140396 1.046386 1.186105 -2.225506
    18 4.972047 0.000000 0.000000 0.539576 -1.017114 -0.693558
    19 11.585358 0.000000 0.000001 0.000000 0.000000 -1.820054
    20 10.127058 0.000000 0.000001 1.537144 -0.014847 -0.019606
    21 1.537458 0.109715 1.664489 -0.264662 -0.055995 0.783079
    22 0.928313 0.000000 0.000002 0.000000 0.000000 -0.453501
    23 0.928311 0.000000 0.000001 0.000000 0.000000 0.000000
    24 2.686395 -0.427337 0.044204 -0.005762 0.043239 -0.157074
    25 1.435260 0.000000 0.000001 0.000000 0.000000 0.732613
    26 1.482593 0.000000 -0.000001 0.000000 0.000000 1.168644
    27 2.046984 0.000001 0.000000 -0.252337 -0.132943 -0.183772
    28 -0.000005 0.000007 3.713254 -0.111178 -3.081500 5.833411
    29 18.045723 0.000000 0.000000 0.000000 0.000000 -0.414728
    30 17.597597 0.000000 0.000000 -0.065691 0.001711 -0.033752
    31 0.000005 -0.000003 -3.713254 0.554109 2.995263 6.246993
    32 18.045721 0.000000 0.000000 0.000000 0.000000 -0.556880
    33 17.597597 0.000000 0.000000 0.062940 0.097403 0.450390
  time 4
    0 0.352539 -0.347516 1.540585 0.000000 0.000000 -1.571017
    1 -3.433703 0.000000 0.000000 -1.570795 -1.570787 0.000000
    2 1.293670 0.684478 -0.000001 -0.000038 -0.042474 0.035686
    3 5.309685 -0.003834 0.000000 0.053025 0.018037 -0.104664
    4 4.826790 -0.004591 0.000000 0.148608 0.060570 -0.101412
    5 5.792767 -0.005304 0.000000 0.064432 0.037727 -0.087367
    6 6.662322 -0.001452 0.000000 0.000000 -0.000001 0.095957
    7 -3.444135 0.282410 4.339626 -0.257753 -1.364193 -2.985821
    8 4.827512 0.000000 -0.000002 0.878158 0.992664 0.031860
    9 11.140032 0.000000 0.000000 0.000000 0.000000 -0.852024
    10 10.314563 -0.000001 0.000001 -1.642256 0.083181 -0.332921
    11 1.646836 0.445664 -1.699647 0.400567 0.460373 0.766655
    12 0.928312 0.000000 0.000000 0.000000 0.000000 -0.636658
    13 0.928313 0.000000 -0.000001 0.000000 0.000000 0.000000
    14 2.979373 -0.388274 -0.044205 -0.023121 -0.037007 0.541151
    15 1.435262 -0.000001 -0.000001 0.000000 0.000000 1.700791
    16 1.482593 -0.000001 0.000001 0.000000 0.000000 1.229725
    17 -3.182409 0.251194 -4.140396 0.930984 1.243471 -2.333642
    18 4.972047 0.000000 0.000000 0.778387 -0.879395 -0.794655
    19 11.585358 0.000000 0.000001 0.000000 0.000000 -1.642319
    20 10.127058 0.000000 0.000001 1.537144 -0.014847 -0.019606
    21 1.537458 0.109715 1.664489 -0.264662 -0.055995 0.783079
    22 0.928313 0.000000 0.000002 0.000000 0.000000 -0.453501
    23 0.928311 0.000000 0.000001 0.000000 0.000000 0.000000
    24 2.686395 -0.427337 0.044204 -0.005762 0.043239 -0.157074
    25 1.435260 0.000000 0.000001 0.000000 0.000000 0.732613
    26 1.482593 0.000000 -0.000001 0.000000 0.000000 1.168644
    27 2.046984 0.000001 0.000000 -0.300374 -0.148727 -0.173857
    28 -0.000005 0.000007 3.713254 -0.111178 -3.081500 5.833411
    29 18.045723 0.000000 0.000000 0.000000 0.000000 -0.414728
    30 17.597597 0.000000 0.000000 -0.065691 0.001711 -0.033752
    31 0.000005 -0.000003 -3.713254 0.554109 2.995263 6.246993
    32 18.045721 0.000000 0.000000 0.000000 0.000000 -0.556880
    33 17.597597 0.000000 0.000000 0.062940 0.097403 0.450390
  time 5
    0 0.348632 -0.347516 1.540585 0.000000 0.000000 -1.571017
    1 -3.433703 0.000000 0.000000 -1.570795 -1.570787 0.000000
    2 1.293670 0.684478 -0.000001 -0.000038 -0.042474 0.035686
    3 5.309685 -0.003834 0.000000 0.053025 0.018037 -0.104664
    4 4.826790 -0.004591 0.000000 0.176609 0.070386 -0.100971
    5 5.792767 -0.005304 0.000000 0.121201 0.054674 -0.088135
    6 6.662322 -0.001452 0.000000 0.000000 -0.000001 0.095957
    7 -3.444135 0.282410 4.339626 -0.257753 -1.364193 -2.985821
    8 4.827512 0.000000 -0.000002 0.815740 1.053209 -0.102968
    9 11.140032 0.000000 0.000000 0.000000 0.000000 -0.809059
    10 10.314563 -0.000001 0.000001 -1.642256 0.083181 -0.332921
    11 1.646836 0.445664 -1.699647 0.400567 0.460373 0.766655
    12 0.928312 0.000000 0.000000 0.000000 0.000000 -0.636658
    13 0.928313 0.000000 -0.000001 0.000000 0.000000 0.000000
    14 2.979373 -0.388274 -0.044205 -0.023121 -0.037007 0.541151
    15 1.435262 -0.000001 -0.000001 0.000000 0.000000 1.700791
    16 1.482593 -0.000001 0.000001 0.000000 0.000000 1.229725
    17 -3.182409 0.251194 -4.140396 0.789788 1.290452 -2.468309
    18 4.972047 0.000000 0.000000 0.819002 -0.816321 -0.692160
    19 11.585358 0.000000 0.000001 0.000000 0.000000 -1.583918
    20 10.127058 0.000000 0.000001 1.537144 -0.014847 -0.019606
    21 1.537458 0.109715 1.664489 -0.264662 -0.055995 0.783079
    22 0.928313 0.000000 0.000002 0.000000 0.000000 -0.453501
    23 0.928311 0.000000 0.000001 0.000000 0.000000 0.000000
    24 2.686395 -0.427337 0.044204 -0.005762 0.043239 -0.157074
    25 1.435260 0.000000 0.000001 0.000000 0.000000 0.732613
    26 1.482593 0.000000 -0.000001 0.000000 0.000000 1.168644
    27 2.046984 0.000001 0.000000 -0.355908 -0.167462 -0.161934
    28 -0.000005 0.000007 3.713254 -0.111178 -3.081500 5.833411
    29 18.045723 0.000000 0.000000 0.000000 0.000000 -0.414728
    30 17.597597 0.000000 0.000000 -0.065691 0.001711 -0.033752
    31 0.000005 -0.000003 -3.713254 0.554109 2.995263 6.246993
    32 18.045721 0.000000 0.000000 0.000000 0.000000 -0.556880
    33 17.597597 0.000000 0.000000 0.062940 0.097403 0.450390
  time 6
    0 0.340819 -0.347516 1.540585 0.000000 0.000000 -1.571017
    1 -3.433703 0.000000 0.000000 -1.570795 -1.570787 0.000000
    2 1.293670 0.684478 -0.000001 -0.000038 -0.042474 0.035686
    3 5.309685 -0.003834 0.000000 0.053025 0.018037 -0.104664
    4 4.826790 -0.004591 0.000000 0.192632 0.075946 -0.100596
    5 5.792767 -0.005304 0.000000 0.153597 0.064321 -0.088135
    6 6.662322 -0.001452 0.000000 0.000000 -0.000001 0.095957
    7 -3.444135 0.282410 4.339626 -0.257753 -1.364193 -2.985821
    8 4.827512 0.000000 -0.000002 0.765359 1.088768 -0.192651
    9 11.140032 0.000000 0.000000 0.000000 0.000000 -0.782179
    10 10.314563 -0.000001 0.000001 -1.642256 0.083181 -0.332921
    11 1.646836 0.445664 -1.699647 0.400567 0.460373 0.766655
    12 0.928312 0.000000 0.000000 0.000000 0.000000 -0.636658
    13 0.928313 0.000000 -0.000001 0.000000 0.000000 0.000000
    14 2.979373 -0.388274 -0.044205 -0.023121 -0.037007 0.541151
    15 1.435262 -0.000001 -0.000001 0.000000 0.000000 1.700791
    16 1.482593 -0.000001 0.000001 0.000000 0.000000 1.229725
    17 -3.182409 0.251194 -4.140396 0.672666 1.317189 -2.581521
    18 4.972047 0.000000 0.000000 0.811122 -0.804590 -0.593525
    19 11.585358 0.000000 0.000001 0.000000 0.000000 -1.577873
    20 10.127058 0.000000 0.000001 1.537144 -0.014847 -0.019606
    21 1.537458 0.109715 1.664489 -0.264662 -0.055995 0.783079
    22 0.928313 0.000000 0.000002 0.000000 0.000000 -0.453501
    23 0.928311 0.000000 0.000001 0.000000 0.000000 0.000000
    24 2.686395 -0.427337 0.044204 -0.005762 0.043239 -0.157074
    25 1.435260 0.000000 0.000001 0.000000 0.000000 0.732613
    26 1.482593 0.000000 -0.000001 0.000000 0.000000 1.168644
    27 2.046984 0.000001 0.000000 -0.387789 -0.177788 -0.154939
    28 -0.000005 0.000007 3.713254 -0.111178 -3.081500 5.833411
    29 18.045723 0.000000 0.000000 0.000000 0.000000 -0.414728
    30 17.597597 0.000000 0.000000 -0.065691 0.001711 -0.033752
    31 0.000005 -0.000003 -3.713254 0.554109 2.995263 6.246993
    32 18.045721 0.000000 0.000000 0.000000 0.000000 -0.556880
    33 17.597597 0.000000 0.000000 0.062940 0.097403 0.450390
end
