version 1
nodes
  0 "Bip01" -1
  1 "Bip01 Pelvis" 0
  2 "Bip01 Spine" 1
  3 "Bip01 Spine1" 2
  4 "Bip01 Spine2" 3
  5 "Bip01 Spine3" 4
  6 "Bip01 Neck" 5
  7 "Bip01 L Arm" 6
  8 "Bip01 L Arm1" 7
  9 "Bip01 L Arm2" 8
  10 "Bip01 L Hand" 9
  11 "Bip01 L Finger0" 10
  12 "Bip01 L Finger01" 11
  13 "Bip01 L Finger02" 12
  14 "Bip01 L Finger1" 10
  15 "Bip01 L Finger11" 14
  16 "Bip01 L Finger12" 15
  17 "Bip01 R Arm" 6
  18 "Bip01 R Arm1" 17
  19 "Bip01 R Arm2" 18
  20 "Bip01 R Hand" 19
  21 "Bip01 R Finger0" 20
  22 "Bip01 R Finger01" 21
  23 "Bip01 R Finger02" 22
  24 "Bip01 R Finger1" 20
  25 "Bip01 R Finger11" 24
  26 "Bip01 R Finger12" 25
  27 "Bip01 Head" 6
  28 "Bip01 L Leg" 1
  29 "Bip01 L Leg1" 28
  30 "Bip01 L Foot" 29
  31 "Bip01 R Leg" 1
  32 "Bip01 R Leg1" 31
  33 "Bip01 R Foot" 32
end
skeleton
  time 0
    0 0.262692 3.035400 1.540585 0.000000 0.000000 -1.571017
    1 -0.027349 0.082034 0.000000 -1.570795 -1.570787 0.000000
    2 1.293670 0.684478 -0.000001 0.008620 -0.023083 -0.052773
    3 5.309685 -0.003834 0.000000 0.094615 0.026965 0.163400
    4 4.826790 -0.004591 0.000000 0.186509 0.047267 0.236787
    5 5.792767 -0.005304 0.000000 0.093842 0.057250 0.203022
    6 6.662322 -0.001452 0.000000 0.000000 -0.000001 0.471000
    7 -3.108188 1.516823 4.339626 -0.257753 -1.364193 -3.360853
    8 4.827512 0.000000 -0.000002 1.190648 0.937492 0.297443
    9 11.140032 0.000000 0.000000 0.000000 0.000000 -0.944185
    10 10.314563 -0.000001 0.000001 -1.642256 0.083181 -0.332921
    11 1.646836 0.445664 -1.699647 0.400567 0.460373 0.766655
    12 0.928312 0.000000 0.000000 0.000000 0.000000 -0.636658
    13 0.928313 0.000000 -0.000001 0.000000 0.000000 0.000000
    14 2.979373 -0.388274 -0.044205 -0.023121 -0.037007 0.541151
    15 1.435262 -0.000001 -0.000001 0.000000 0.000000 1.700791
    16 1.482593 -0.000001 0.000001 0.000000 0.000000 1.229725
    17 -2.869899 1.399667 -4.140396 0.672666 1.317189 -2.956405
    18 4.972047 0.000000 0.000000 0.760940 -1.149370 -0.615288
    19 11.585358 0.000000 0.000001 0.000000 0.000000 -1.088856
    20 10.127058 0.000000 0.000001 1.537144 -0.014847 -0.019606
    21 1.537458 0.109715 1.664489 -0.264662 -0.055995 0.783079
    22 0.928313 0.000000 0.000002 0.000000 0.000000 -0.453501
    23 0.928311 0.000000 0.000001 0.000000 0.000000 0.000000
    24 2.686395 -0.427337 0.044204 -0.005762 0.043239 -0.157074
    25 1.435260 0.000000 0.000001 0.000000 0.000000 0.732613
    26 1.482593 0.000000 -0.000001 0.000000 0.000000 1.168644
    27 2.046984 0.000001 0.000000 -0.354443 0.134064 -0.058161
    28 -0.000005 0.000007 3.713254 -0.111178 -3.081500 5.833411
    29 18.045723 0.000000 0.000000 0.000000 0.000000 -0.414728
    30 17.597597 0.000000 0.000000 -0.065691 0.001711 -0.033752
    31 0.000005 -0.000003 -3.713254 0.554109 2.995263 6.246993
    32 18.045721 0.000000 0.000000 0.000000 0.000000 -0.556880
    33 17.597597 0.000000 0.000000 0.062940 0.097403 0.450390
  time 1
    0 0.243160 3.011962 1.540585 0.000000 0.000000 -1.571017
    1 -0.027349 0.082034 0.000000 -1.570795 -1.570787 0.000000
    2 1.293670 0.684478 -0.000001 0.008620 -0.023083 -0.052773
    3 5.309685 -0.003834 0.000000 0.094462 0.028655 0.169017
    4 4.826790 -0.004591 0.000000 0.187634 0.045278 0.222323
    5 5.792767 -0.005304 0.000000 0.093590 0.054182 0.185851
    6 6.662322 -0.001452 0.000000 0.000000 -0.000001 0.471000
    7 -3.108188 1.516823 4.339626 -0.257753 -1.364193 -3.360853
    8 4.827512 0.000000 -0.000002 1.222615 0.928027 0.322399
    9 11.140032 0.000000 0.000000 0.000000 0.000000 -0.936287
    10 10.314563 -0.000001 0.000001 -1.642256 0.083181 -0.332921
    11 1.646836 0.445664 -1.699647 0.400567 0.460373 0.766655
    12 0.928312 0.000000 0.000000 0.000000 0.000000 -0.636658
    13 0.928313 0.000000 -0.000001 0.000000 0.000000 0.000000
    14 2.979373 -0.388274 -0.044205 -0.023121 -0.037007 0.541151
    15 1.435262 -0.000001 -0.000001 0.000000 0.000000 1.700791
    16 1.482593 -0.000001 0.000001 0.000000 0.000000 1.229725
    17 -2.869899 1.399667 -4.140396 0.668844 1.315927 -2.960428
    18 4.972047 0.000000 0.000000 0.712540 -1.164315 -0.563309
    19 11.585358 0.000000 0.000001 0.000000 0.000000 -1.088774
    20 10.127058 0.000000 0.000001 1.537285 -0.015036 -0.019206
    21 1.537458 0.109715 1.664489 -0.264662 -0.055995 0.783079
    22 0.928313 0.000000 0.000002 0.000000 0.000000 -0.453501
    23 0.928311 0.000000 0.000001 0.000000 0.000000 0.000000
    24 2.686395 -0.427337 0.044204 -0.005762 0.043239 -0.157074
    25 1.435260 0.000000 0.000001 0.000000 0.000000 0.732613
    26 1.482593 0.000000 -0.000001 0.000000 0.000000 1.168644
    27 2.046984 0.000001 0.000000 -0.353840 0.141735 -0.032673
    28 -0.000005 0.000007 3.713254 -0.111083 -3.080733 5.833411
    29 18.045723 0.000000 0.000000 0.000000 0.000000 -0.416208
    30 17.597597 0.000000 0.000000 -0.065463 0.001071 -0.032377
    31 0.000005 -0.000003 -3.713254 0.554397 2.996125 6.248239
    32 18.045721 0.000000 0.000000 0.000000 0.000000 -0.555778
    33 17.597597 0.000000 0.000000 0.062873 0.097285 0.450805
  time 2
    0 0.219722 2.988523 1.540585 0.000000 0.000000 -1.571017
    1 -0.027349 0.082034 0.000000 -1.570795 -1.570787 0.000000
    2 1.293670 0.684478 -0.000001 0.008620 -0.023083 -0.052773
    3 5.309685 -0.003834 0.000000 0.094292 0.030501 0.175093
    4 4.826790 -0.004591 0.000000 0.188874 0.043133 0.206757
    5 5.792767 -0.005304 0.000000 0.093410 0.050958 0.168078
    6 6.662322 -0.001452 0.000000 0.000000 -0.000001 0.471000
    7 -3.108188 1.516823 4.339626 -0.266667 -1.370994 -3.351655
    8 4.827512 0.000000 -0.000002 1.262952 0.920011 0.356279
    9 11.140032 0.000000 0.000000 0.000000 0.000000 -0.924622
    10 10.314563 -0.000001 0.000001 -1.642256 0.083181 -0.332921
    11 1.646836 0.445664 -1.699647 0.400567 0.460373 0.766655
    12 0.928312 0.000000 0.000000 0.000000 0.000000 -0.636658
    13 0.928313 0.000000 -0.000001 0.000000 0.000000 0.000000
    14 2.979373 -0.388274 -0.044205 -0.023121 -0.037007 0.541151
    15 1.435262 -0.000001 -0.000001 0.000000 0.000000 1.700791
    16 1.482593 -0.000001 0.000001 0.000000 0.000000 1.229725
    17 -2.869899 1.399667 -4.140396 0.672666 1.317189 -2.956405
    18 4.972047 0.000000 0.000000 0.658981 -1.182393 -0.505472
    19 11.585358 0.000000 0.000001 0.000000 0.000000 -1.088856
    20 10.127058 0.000000 0.000001 1.537144 -0.014847 -0.019606
    21 1.537458 0.109715 1.664489 -0.264662 -0.055995 0.783079
    22 0.928313 0.000000 0.000002 0.000000 0.000000 -0.453501
    23 0.928311 0.000000 0.000001 0.000000 0.000000 0.000000
    24 2.686395 -0.427337 0.044204 -0.005762 0.043239 -0.157074
    25 1.435260 0.000000 0.000001 0.000000 0.000000 0.732613
    26 1.482593 0.000000 -0.000001 0.000000 0.000000 1.168644
    27 2.046984 0.000001 0.000000 -0.353108 0.149819 -0.005970
    28 -0.000005 0.000007 3.713254 -0.111083 -3.080062 5.833315
    29 18.045723 0.000000 0.000000 0.000000 0.000000 -0.417837
    30 17.597597 0.000000 0.000000 -0.065184 0.000358 -0.030864
    31 0.000005 -0.000003 -3.713254 0.554684 2.996988 6.249581
    32 18.045721 0.000000 0.000000 0.000000 0.000000 -0.554676
    33 17.597597 0.000000 0.000000 0.062839 0.097206 0.451267
  time 3
    0 0.200190 2.957272 1.540585 0.000000 0.000000 -1.571017
    1 -0.027349 0.082034 0.000000 -1.570795 -1.570787 0.000000
    2 1.293670 0.684478 -0.000001 0.008620 -0.023083 -0.052773
    3 5.309685 -0.003834 0.000000 0.094121 0.032286 0.181134
    4 4.826790 -0.004591 0.000000 0.190114 0.041047 0.191764
    5 5.792767 -0.005304 0.000000 0.093302 0.047831 0.150596
    6 6.662322 -0.001452 0.000000 0.002289 0.003353 0.512868
    7 -3.057405 1.653546 4.331813 -0.270214 -1.374956 -3.389886
    8 4.827512 0.000000 -0.000002 1.302172 0.913189 0.388686
    9 11.140032 0.000000 0.000000 0.000000 0.000000 -0.911291
    10 10.314563 -0.000001 0.000001 -1.642256 0.083181 -0.332921
    11 1.646836 0.445664 -1.699647 0.400567 0.460373 0.766655
    12 0.928312 0.000000 0.000000 0.000000 0.000000 -0.636658
    13 0.928313 0.000000 -0.000001 0.000000 0.000000 0.000000
    14 2.979373 -0.388274 -0.044205 -0.023121 -0.037007 0.541151
    15 1.435262 -0.000001 -0.000001 0.000000 0.000000 1.700791
    16 1.482593 -0.000001 0.000001 0.000000 0.000000 1.229725
    17 -2.799584 1.501233 -4.148209 0.703618 1.326181 -2.967133
    18 4.972047 0.000000 0.000000 0.602983 -1.205373 -0.444507
    19 11.585358 0.000000 0.000001 0.000000 0.000000 -1.089101
    20 10.127058 0.000000 0.000001 1.536163 -0.014185 -0.021707
    21 1.537458 0.109715 1.664489 -0.264662 -0.055995 0.783079
    22 0.928313 0.000000 0.000002 0.000000 0.000000 -0.453501
    23 0.928311 0.000000 0.000001 0.000000 0.000000 0.000000
    24 2.686395 -0.427337 0.044204 -0.005762 0.043239 -0.157074
    25 1.435260 0.000000 0.000001 0.000000 0.000000 0.732613
    26 1.482593 0.000000 -0.000001 0.000000 0.000000 1.168644
    27 2.046984 0.000001 0.000000 -0.357761 0.151530 -0.031578
    28 -0.000005 0.000007 3.713254 -0.110891 -3.079295 5.833315
    29 18.045723 0.000000 0.000000 0.000000 0.000000 -0.419317
    30 17.597597 0.000000 0.000000 -0.064956 -0.000233 -0.029443
    31 0.000005 -0.000003 -3.713254 0.554780 2.997851 6.250828
    32 18.045721 0.000000 0.000000 0.000000 0.000000 -0.553731
    33 17.597597 0.000000 0.000000 0.062772 0.097068 0.451683
  time 4
    0 0.176752 2.937741 1.540585 0.000000 0.000000 -1.571017
    1 -0.027349 0.082034 0.000000 -1.570795 -1.570787 0.000000
    2 1.293670 0.684478 -0.000001 0.008620 -0.023083 -0.052773
    3 5.309685 -0.003834 0.000000 0.094002 0.033988 0.186768
    4 4.826790 -0.004591 0.000000 0.191163 0.039309 0.178888
    5 5.792767 -0.005304 0.000000 0.093248 0.044966 0.134401
    6 6.662322 -0.001452 0.000000 0.004770 0.006624 0.554821
    7 -3.006622 1.790269 4.312281 -0.275390 -1.379243 -3.426202
    8 4.827512 0.000000 -0.000002 1.337806 0.908158 0.417974
    9 11.140032 0.000000 0.000000 0.000000 0.000000 -0.897597
    10 10.314563 -0.000001 0.000001 -1.642256 0.083181 -0.332921
    11 1.646836 0.445664 -1.699647 0.400567 0.460373 0.766655
    12 0.928312 0.000000 0.000000 0.000000 0.000000 -0.636658
    13 0.928313 0.000000 -0.000001 0.000000 0.000000 0.000000
    14 2.979373 -0.388274 -0.044205 -0.023121 -0.037007 0.541151
    15 1.435262 -0.000001 -0.000001 0.000000 0.000000 1.700791
    16 1.482593 -0.000001 0.000001 0.000000 0.000000 1.229725
    17 -2.725363 1.606705 -4.163834 0.741258 1.336355 -2.970868
    18 4.972047 0.000000 0.000000 0.546329 -1.227469 -0.383343
    19 11.585358 0.000000 0.000001 0.000000 0.000000 -1.089346
    20 10.127058 0.000000 0.000001 1.534970 -0.013334 -0.024308
    21 1.537458 0.109715 1.664489 -0.264662 -0.055995 0.783079
    22 0.928313 0.000000 0.000002 0.000000 0.000000 -0.453501
    23 0.928311 0.000000 0.000001 0.000000 0.000000 0.000000
    24 2.686395 -0.427337 0.044204 -0.005762 0.043239 -0.157074
    25 1.435260 0.000000 0.000001 0.000000 0.000000 0.732613
    26 1.482593 0.000000 -0.000001 0.000000 0.000000 1.168644
    27 2.046984 0.000001 0.000000 -0.362586 0.152120 -0.060290
    28 -0.000005 0.000007 3.713254 -0.110891 -3.078720 5.833315
    29 18.045723 0.000000 0.000000 0.000000 0.000000 -0.420427
    30 17.597597 0.000000 0.000000 -0.064753 -0.000799 -0.028343
    31 0.000005 -0.000003 -3.713254 0.554972 2.998618 6.251690
    32 18.045721 0.000000 0.000000 0.000000 0.000000 -0.552708
    33 17.597597 0.000000 0.000000 0.062739 0.096989 0.452006
  time 5
    0 0.168939 2.926022 1.540585 0.000000 0.000000 -1.571017
    1 -0.027349 0.082034 0.000000 -1.570795 -1.570787 0.000000
    2 1.293670 0.684478 -0.000001 0.008620 -0.023083 -0.052773
    3 5.309685 -0.003834 0.000000 0.093883 0.035438 0.191626
    4 4.826790 -0.004591 0.000000 0.191926 0.038075 0.169804
    5 5.792767 -0.005304 0.000000 0.093284 0.042665 0.120324
    6 6.662322 -0.001452 0.000000 0.007359 0.009840 0.596774
    7 -2.940214 1.919179 4.300562 -0.281524 -1.383413 -3.461654
    8 4.827512 0.000000 -0.000002 1.367461 0.906112 0.442063
    9 11.140032 0.000000 0.000000 0.000000 0.000000 -0.884483
    10 10.314563 -0.000001 0.000001 -1.642256 0.083181 -0.332921
    11 1.646836 0.445664 -1.699647 0.400567 0.460373 0.766655
    12 0.928312 0.000000 0.000000 0.000000 0.000000 -0.636658
    13 0.928313 0.000000 -0.000001 0.000000 0.000000 0.000000
    14 2.979373 -0.388274 -0.044205 -0.023121 -0.037007 0.541151
    15 1.435262 -0.000001 -0.000001 0.000000 0.000000 1.700791
    16 1.482593 -0.000001 0.000001 0.000000 0.000000 1.229725
    17 -2.639423 1.712177 -4.171647 0.784151 1.346845 -2.969335
    18 4.972047 0.000000 0.000000 0.495397 -1.246432 -0.328635
    19 11.585358 0.000000 0.000001 0.000000 0.000000 -1.089673
    20 10.127058 0.000000 0.000001 1.533638 -0.012293 -0.027110
    21 1.537458 0.109715 1.664489 -0.264662 -0.055995 0.783079
    22 0.928313 0.000000 0.000002 0.000000 0.000000 -0.453501
    23 0.928311 0.000000 0.000001 0.000000 0.000000 0.000000
    24 2.686395 -0.427337 0.044204 -0.005762 0.043239 -0.157074
    25 1.435260 0.000000 0.000001 0.000000 0.000000 0.732613
    26 1.482593 0.000000 -0.000001 0.000000 0.000000 1.168644
    27 2.046984 0.000001 0.000000 -0.367627 0.150704 -0.093745
    28 -0.000005 0.000007 3.713254 -0.110795 -3.078336 5.833411
    29 18.045723 0.000000 0.000000 0.000000 0.000000 -0.421093
    30 17.597597 0.000000 0.000000 -0.064601 -0.001168 -0.027747
    31 0.000005 -0.000003 -3.713254 0.555259 2.999097 6.252266
    32 18.045721 0.000000 0.000000 0.000000 0.000000 -0.552393
    33 17.597597 0.000000 0.000000 0.062672 0.096851 0.452191
  time 6
    0 0.157220 2.918209 1.540585 0.000000 0.000000 -1.571017
    1 -0.027349 0.082034 0.000000 -1.570795 -1.570787 0.000000
    2 1.293670 0.684478 -0.000001 0.008620 -0.023083 -0.052773
    3 5.309685 -0.003834 0.000000 0.093798 0.036529 0.195265
    4 4.826790 -0.004591 0.000000 0.192422 0.037380 0.164402
    5 5.792767 -0.005304 0.000000 0.093428 0.040832 0.106849
    6 6.662322 -0.001452 0.000000 0.010055 0.012905 0.638670
    7 -2.869899 2.055902 4.288843 -0.287850 -1.386961 -3.496724
    8 4.827512 0.000000 -0.000002 1.393369 0.904832 0.463292
    9 11.140032 0.000000 0.000000 0.000000 0.000000 -0.873035
    10 10.314563 -0.000001 0.000001 -1.642256 0.083181 -0.332921
    11 1.646836 0.445664 -1.699647 0.400567 0.460373 0.766655
    12 0.928312 0.000000 0.000000 0.000000 0.000000 -0.636658
    13 0.928313 0.000000 -0.000001 0.000000 0.000000 0.000000
    14 2.979373 -0.388274 -0.044205 -0.023121 -0.037007 0.541151
    15 1.435262 -0.000001 -0.000001 0.000000 0.000000 1.700791
    16 1.482593 -0.000001 0.000001 0.000000 0.000000 1.229725
    17 -2.549577 1.805929 -4.187273 0.829433 1.356677 -2.965696
    18 4.972047 0.000000 0.000000 0.446715 -1.262502 -0.277254
    19 11.585358 0.000000 0.000001 0.000000 0.000000 -1.090000
    20 10.127058 0.000000 0.000001 1.532376 -0.011442 -0.029811
    21 1.537458 0.109715 1.664489 -0.264662 -0.055995 0.783079
    22 0.928313 0.000000 0.000002 0.000000 0.000000 -0.453501
    23 0.928311 0.000000 0.000001 0.000000 0.000000 0.000000
    24 2.686395 -0.427337 0.044204 -0.005762 0.043239 -0.157074
    25 1.435260 0.000000 0.000001 0.000000 0.000000 0.732613
    26 1.482593 0.000000 -0.000001 0.000000 0.000000 1.168644
    27 2.046984 0.000001 0.000000 -0.372667 0.147783 -0.130060
    28 -0.000005 0.000007 3.713254 -0.110795 -3.078048 5.833411
    29 18.045723 0.000000 0.000000 0.000000 0.000000 -0.421538
    30 17.597597 0.000000 0.000000 -0.064525 -0.001439 -0.027380
    31 0.000005 -0.000003 -3.713254 0.555259 2.999385 6.252649
    32 18.045721 0.000000 0.000000 0.000000 0.000000 -0.552078
    33 17.597597 0.000000 0.000000 0.062638 0.096772 0.452422
  time 7
    0 0.149407 2.914302 1.540585 0.000000 0.000000 -1.571017
    1 -0.027349 0.082034 0.000000 -1.570795 -1.570787 0.000000
    2 1.293670 0.684478 -0.000001 0.008620 -0.023083 -0.052773
    3 5.309685 -0.003834 0.000000 0.093747 0.037284 0.197738
    4 4.826790 -0.004591 0.000000 0.192651 0.036996 0.161734
    5 5.792767 -0.005304 0.000000 0.093644 0.039441 0.094412
    6 6.662322 -0.001452 0.000000 0.012907 0.015846 0.680680
    7 -2.799584 2.180906 4.269311 -0.293889 -1.389504 -3.532560
    8 4.827512 0.000000 -0.000002 1.415530 0.903212 0.481835
    9 11.140032 0.000000 0.000000 0.000000 0.000000 -0.864631
    10 10.314563 -0.000001 0.000001 -1.642256 0.083181 -0.332921
    11 1.646836 0.445664 -1.699647 0.400567 0.460373 0.766655
    12 0.928312 0.000000 0.000000 0.000000 0.000000 -0.636658
    13 0.928313 0.000000 -0.000001 0.000000 0.000000 0.000000
    14 2.979373 -0.388274 -0.044205 -0.023121 -0.037007 0.541151
    15 1.435262 -0.000001 -0.000001 0.000000 0.000000 1.700791
    16 1.482593 -0.000001 0.000001 0.000000 0.000000 1.229725
    17 -2.455824 1.903589 -4.202898 0.872900 1.365274 -2.963684
    18 4.972047 0.000000 0.000000 0.401692 -1.274715 -0.230133
    19 11.585358 0.000000 0.000001 0.000000 0.000000 -1.090326
    20 10.127058 0.000000 0.000001 1.531324 -0.010591 -0.032112
    21 1.537458 0.109715 1.664489 -0.264662 -0.055995 0.783079
    22 0.928313 0.000000 0.000002 0.000000 0.000000 -0.453501
    23 0.928311 0.000000 0.000001 0.000000 0.000000 0.000000
    24 2.686395 -0.427337 0.044204 -0.005762 0.043239 -0.157074
    25 1.435260 0.000000 0.000001 0.000000 0.000000 0.732613
    26 1.482593 0.000000 -0.000001 0.000000 0.000000 1.168644
    27 2.046984 0.000001 0.000000 -0.377837 0.143800 -0.168930
    28 -0.000005 0.000007 3.713254 -0.110699 -3.077857 5.833411
    29 18.045723 0.000000 0.000000 0.000000 0.000000 -0.421834
    30 17.597597 0.000000 0.000000 -0.064449 -0.001636 -0.027059
    31 0.000005 -0.000003 -3.713254 0.555355 2.999673 6.252937
    32 18.045721 0.000000 0.000000 0.000000 0.000000 -0.551842
    33 17.597597 0.000000 0.000000 0.062605 0.096713 0.452514
  time 8
    0 0.149407 2.918209 1.540585 0.000000 0.000000 -1.571017
    1 -0.027349 0.082034 0.000000 -1.570795 -1.570787 0.000000
    2 1.293670 0.684478 -0.000001 0.008620 -0.023083 -0.052773
    3 5.309685 -0.003834 0.000000 0.093713 0.037727 0.199257
    4 4.826790 -0.004591 0.000000 0.192651 0.036996 0.161734
    5 5.792767 -0.005304 0.000000 0.093878 0.038938 0.087228
    6 6.662322 -0.001452 0.000000 0.012907 0.015846 0.680680
    7 -2.799584 2.180906 4.269311 -0.302516 -1.394531 -3.523745
    8 4.827512 0.000000 -0.000002 1.428444 0.903724 0.492753
    9 11.140032 0.000000 0.000000 0.000000 0.000000 -0.860139
    10 10.314563 -0.000001 0.000001 -1.642256 0.083181 -0.332921
    11 1.646836 0.445664 -1.699647 0.400567 0.460373 0.766655
    12 0.928312 0.000000 0.000000 0.000000 0.000000 -0.636658
    13 0.928313 0.000000 -0.000001 0.000000 0.000000 0.000000
    14 2.979373 -0.388274 -0.044205 -0.023121 -0.037007 0.541151
    15 1.435262 -0.000001 -0.000001 0.000000 0.000000 1.700791
    16 1.482593 -0.000001 0.000001 0.000000 0.000000 1.229725
    17 -2.455824 1.903589 -4.202898 0.895255 1.369087 -2.940793
    18 4.972047 0.000000 0.000000 0.377773 -1.281705 -0.205174
    19 11.585358 0.000000 0.000001 0.000000 0.000000 -1.090490
    20 10.127058 0.000000 0.000001 1.530553 -0.010024 -0.033712
    21 1.537458 0.109715 1.664489 -0.264662 -0.055995 0.783079
    22 0.928313 0.000000 0.000002 0.000000 0.000000 -0.453501
    23 0.928311 0.000000 0.000001 0.000000 0.000000 0.000000
    24 2.686395 -0.427337 0.044204 -0.005762 0.043239 -0.157074
    25 1.435260 0.000000 0.000001 0.000000 0.000000 0.732613
    26 1.482593 0.000000 -0.000001 0.000000 0.000000 1.168644
    27 2.046984 0.000001 0.000000 -0.375037 0.146957 -0.153783
    28 -0.000005 0.000007 3.713254 -0.110699 -3.077857 5.833411
    29 18.045723 0.000000 0.000000 0.000000 0.000000 -0.421686
    30 17.597597 0.000000 0.000000 -0.064475 -0.001660 -0.027196
    31 0.000005 -0.000003 -3.713254 0.555355 2.999673 6.252841
    32 18.045721 0.000000 0.000000 0.000000 0.000000 -0.551842
    33 17.597597 0.000000 0.000000 0.062538 0.096693 0.452514
  time 9
    0 0.157220 2.926022 1.540585 0.000000 0.000000 -1.571017
    1 -0.027349 0.082034 0.000000 -1.570795 -1.570787 0.000000
    2 1.293670 0.684478 -0.000001 0.008620 -0.023083 -0.052773
    3 5.309685 -0.003834 0.000000 0.093713 0.037811 0.199522
    4 4.826790 -0.004591 0.000000 0.192422 0.037380 0.164402
    5 5.792767 -0.005304 0.000000 0.093914 0.039633 0.089346
    6 6.662322 -0.001452 0.000000 0.012907 0.015846 0.680680
    7 -2.799584 2.180906 4.269311 -0.308651 -1.397961 -3.517516
    8 4.827512 0.000000 -0.000002 1.427328 0.906794 0.492580
    9 11.140032 0.000000 0.000000 0.000000 0.000000 -0.862602
    10 10.314563 -0.000001 0.000001 -1.642256 0.083181 -0.332921
    11 1.646836 0.445664 -1.699647 0.400567 0.460373 0.766655
    12 0.928312 0.000000 0.000000 0.000000 0.000000 -0.636658
    13 0.928313 0.000000 -0.000001 0.000000 0.000000 0.000000
    14 2.979373 -0.388274 -0.044205 -0.023121 -0.037007 0.541151
    15 1.435262 -0.000001 -0.000001 0.000000 0.000000 1.700791
    16 1.482593 -0.000001 0.000001 0.000000 0.000000 1.229725
    17 -2.455824 1.903589 -4.202898 0.909680 1.371321 -2.926139
    18 4.972047 0.000000 0.000000 0.391093 -1.283312 -0.218485
    19 11.585358 0.000000 0.000001 0.000000 0.000000 -1.090571
    20 10.127058 0.000000 0.000001 1.530132 -0.009646 -0.034713
    21 1.537458 0.109715 1.664489 -0.264662 -0.055995 0.783079
    22 0.928313 0.000000 0.000002 0.000000 0.000000 -0.453501
    23 0.928311 0.000000 0.000001 0.000000 0.000000 0.000000
    24 2.686395 -0.427337 0.044204 -0.005762 0.043239 -0.157074
    25 1.435260 0.000000 0.000001 0.000000 0.000000 0.732613
    26 1.482593 0.000000 -0.000001 0.000000 0.000000 1.168644
    27 2.046984 0.000001 0.000000 -0.372409 0.147429 -0.149221
    28 -0.000005 0.000007 3.713254 -0.110699 -3.078048 5.833411
    29 18.045723 0.000000 0.000000 0.000000 0.000000 -0.421093
    30 17.597597 0.000000 0.000000 -0.064601 -0.001488 -0.027792
    31 0.000005 -0.000003 -3.713254 0.555355 2.999385 6.252362
    32 18.045721 0.000000 0.000000 0.000000 0.000000 -0.552157
    33 17.597597 0.000000 0.000000 0.062504 0.096654 0.452330
  time 10
    0 0.168939 2.941647 1.540585 0.000000 0.000000 -1.571017
    1 -0.027349 0.082034 0.000000 -1.570795 -1.570787 0.000000
    2 1.293670 0.684478 -0.000001 0.008620 -0.023083 -0.052773
    3 5.309685 -0.003834 0.000000 0.093713 0.037464 0.198268
    4 4.826790 -0.004591 0.000000 0.191926 0.038075 0.169804
    5 5.792767 -0.005304 0.000000 0.093842 0.041730 0.102115
    6 6.662322 -0.001452 0.000000 0.012907 0.015846 0.680680
    7 -2.799584 2.180906 4.269311 -0.312197 -1.399912 -3.513875
    8 4.827512 0.000000 -0.000002 1.410667 0.912933 0.480449
    9 11.140032 0.000000 0.000000 0.000000 0.000000 -0.872238
    10 10.314563 -0.000001 0.000001 -1.642256 0.083181 -0.332921
    11 1.646836 0.445664 -1.699647 0.400567 0.460373 0.766655
    12 0.928312 0.000000 0.000000 0.000000 0.000000 -0.636658
    13 0.928313 0.000000 -0.000001 0.000000 0.000000 0.000000
    14 2.979373 -0.388274 -0.044205 -0.023121 -0.037007 0.541151
    15 1.435262 -0.000001 -0.000001 0.000000 0.000000 1.700791
    16 1.482593 -0.000001 0.000001 0.000000 0.000000 1.229725
    17 -2.455824 1.903589 -4.202898 0.919329 1.372820 -2.916273
    18 4.972047 0.000000 0.000000 0.444183 -1.279857 -0.272795
    19 11.585358 0.000000 0.000001 0.000000 0.000000 -1.090735
    20 10.127058 0.000000 0.000001 1.529711 -0.009551 -0.035363
    21 1.537458 0.109715 1.664489 -0.264662 -0.055995 0.783079
    22 0.928313 0.000000 0.000002 0.000000 0.000000 -0.453501
    23 0.928311 0.000000 0.000001 0.000000 0.000000 0.000000
    24 2.686395 -0.427337 0.044204 -0.005762 0.043239 -0.157074
    25 1.435260 0.000000 0.000001 0.000000 0.000000 0.732613
    26 1.482593 0.000000 -0.000001 0.000000 0.000000 1.168644
    27 2.046984 0.000001 0.000000 -0.369996 0.145157 -0.156277
    28 -0.000005 0.000007 3.713254 -0.110699 -3.078528 5.833411
    29 18.045723 0.000000 0.000000 0.000000 0.000000 -0.419909
    30 17.597597 0.000000 0.000000 -0.064753 -0.001070 -0.028893
    31 0.000005 -0.000003 -3.713254 0.555259 2.998714 6.251403
    32 18.045721 0.000000 0.000000 0.000000 0.000000 -0.553180
    33 17.597597 0.000000 0.000000 0.062470 0.096693 0.452099
  time 11
    0 0.188471 2.972898 1.540585 0.000000 0.000000 -1.571017
    1 -0.027349 0.082034 0.000000 -1.570795 -1.570787 0.000000
    2 1.293670 0.684478 -0.000001 0.008620 -0.023083 -0.052773
    3 5.309685 -0.003834 0.000000 0.093798 0.036529 0.195265
    4 4.826790 -0.004591 0.000000 0.191106 0.039453 0.179990
    5 5.792767 -0.005304 0.000000 0.093698 0.044786 0.121549
    6 6.662322 -0.001452 0.000000 0.012907 0.015846 0.680680
    7 -2.799584 2.180906 4.269311 -0.312485 -1.400090 -3.513588
    8 4.827512 0.000000 -0.000002 1.380454 0.923166 0.457487
    9 11.140032 0.000000 0.000000 0.000000 0.000000 -0.885570
    10 10.314563 -0.000001 0.000001 -1.642256 0.083181 -0.332921
    11 1.646836 0.445664 -1.699647 0.400567 0.460373 0.766655
    12 0.928312 0.000000 0.000000 0.000000 0.000000 -0.636658
    13 0.928313 0.000000 -0.000001 0.000000 0.000000 0.000000
    14 2.979373 -0.388274 -0.044205 -0.023121 -0.037007 0.541151
    15 1.435262 -0.000001 -0.000001 0.000000 0.000000 1.700791
    16 1.482593 -0.000001 0.000001 0.000000 0.000000 1.229725
    17 -2.455824 1.903589 -4.202898 0.923246 1.373451 -2.912346
    18 4.972047 0.000000 0.000000 0.526069 -1.269974 -0.356987
    19 11.585358 0.000000 0.000001 0.000000 0.000000 -1.090735
    20 10.127058 0.000000 0.000001 1.529641 -0.009362 -0.035663
    21 1.537458 0.109715 1.664489 -0.264662 -0.055995 0.783079
    22 0.928313 0.000000 0.000002 0.000000 0.000000 -0.453501
    23 0.928311 0.000000 0.000001 0.000000 0.000000 0.000000
    24 2.686395 -0.427337 0.044204 -0.005762 0.043239 -0.157074
    25 1.435260 0.000000 0.000001 0.000000 0.000000 0.732613
    26 1.482593 0.000000 -0.000001 0.000000 0.000000 1.168644
    27 2.046984 0.000001 0.000000 -0.367885 0.140112 -0.172884
    28 -0.000005 0.000007 3.713254 -0.110795 -3.079295 5.833411
    29 18.045723 0.000000 0.000000 0.000000 0.000000 -0.418133
    30 17.597597 0.000000 0.000000 -0.065032 -0.000381 -0.030543
    31 0.000005 -0.000003 -3.713254 0.555068 2.997755 6.249965
    32 18.045721 0.000000 0.000000 0.000000 0.000000 -0.554361
    33 17.597597 0.000000 0.000000 0.062437 0.096713 0.451683
  time 12
    0 0.208003 2.988523 1.540585 0.000000 0.000000 -1.571017
    1 -0.027349 0.082034 0.000000 -1.570795 -1.570787 0.000000
    2 1.293670 0.684478 -0.000001 0.008620 -0.023083 -0.052773
    3 5.309685 -0.003834 0.000000 0.094002 0.033773 0.186009
    4 4.826790 -0.004591 0.000000 0.189847 0.041515 0.194983
    5 5.792767 -0.005304 0.000000 0.093626 0.048358 0.144637
    6 6.662322 -0.001452 0.000000 0.012907 0.015846 0.680680
    7 -2.799584 2.180906 4.269311 -0.309417 -1.398375 -3.516846
    8 4.827512 0.000000 -0.000002 1.342429 0.932546 0.428372
    9 11.140032 0.000000 0.000000 0.000000 0.000000 -0.899336
    10 10.314563 -0.000001 0.000001 -1.642256 0.083181 -0.332921
    11 1.646836 0.445664 -1.699647 0.400567 0.460373 0.766655
    12 0.928312 0.000000 0.000000 0.000000 0.000000 -0.636658
    13 0.928313 0.000000 -0.000001 0.000000 0.000000 0.000000
    14 2.979373 -0.388274 -0.044205 -0.023121 -0.037007 0.541151
    15 1.435262 -0.000001 -0.000001 0.000000 0.000000 1.700791
    16 1.482593 -0.000001 0.000001 0.000000 0.000000 1.229725
    17 -2.455824 1.903589 -4.202898 0.920857 1.373030 -2.914741
    18 4.972047 0.000000 0.000000 0.611238 -1.257038 -0.445572
    19 11.585358 0.000000 0.000001 0.000000 0.000000 -1.090735
    20 10.127058 0.000000 0.000001 1.529711 -0.009362 -0.035463
    21 1.537458 0.109715 1.664489 -0.264662 -0.055995 0.783079
    22 0.928313 0.000000 0.000002 0.000000 0.000000 -0.453501
    23 0.928311 0.000000 0.000001 0.000000 0.000000 0.000000
    24 2.686395 -0.427337 0.044204 -0.005762 0.043239 -0.157074
    25 1.435260 0.000000 0.000001 0.000000 0.000000 0.732613
    26 1.482593 0.000000 -0.000001 0.000000 0.000000 1.168644
    27 2.046984 0.000001 0.000000 -0.364266 0.135657 -0.192045
    28 -0.000005 0.000007 3.713254 -0.110795 -3.079870 5.833411
    29 18.045723 0.000000 0.000000 0.000000 0.000000 -0.417467
    30 17.597597 0.000000 0.000000 -0.065260 0.000111 -0.031231
    31 0.000005 -0.000003 -3.713254 0.554972 2.997084 6.249390
    32 18.045721 0.000000 0.000000 0.000000 0.000000 -0.554912
    33 17.597597 0.000000 0.000000 0.062437 0.096969 0.451314
  time 13
    0 0.219722 2.980711 1.540585 0.000000 0.000000 -1.571017
    1 -0.027349 0.082034 0.000000 -1.570795 -1.570787 0.000000
    2 1.293670 0.684478 -0.000001 0.008620 -0.023083 -0.052773
    3 5.309685 -0.003834 0.000000 0.094343 0.029674 0.172320
    4 4.826790 -0.004591 0.000000 0.188512 0.043792 0.211607
    5 5.792767 -0.005304 0.000000 0.093626 0.051905 0.168016
    6 6.662322 -0.001452 0.000000 0.010055 0.012905 0.638670
    7 -2.869899 2.055902 4.288843 -0.307692 -1.398552 -3.476794
    8 4.827512 0.000000 -0.000002 1.302332 0.939965 0.397265
    9 11.140032 0.000000 0.000000 0.000000 0.000000 -0.910566
    10 10.314563 -0.000001 0.000001 -1.642256 0.083181 -0.332921
    11 1.646836 0.445664 -1.699647 0.400567 0.460373 0.766655
    12 0.928312 0.000000 0.000000 0.000000 0.000000 -0.636658
    13 0.928313 0.000000 -0.000001 0.000000 0.000000 0.000000
    14 2.979373 -0.388274 -0.044205 -0.023121 -0.037007 0.541151
    15 1.435262 -0.000001 -0.000001 0.000000 0.000000 1.700791
    16 1.482593 -0.000001 0.000001 0.000000 0.000000 1.229725
    17 -2.549577 1.805929 -4.187273 0.896783 1.368850 -2.896926
    18 4.972047 0.000000 0.000000 0.684963 -1.242254 -0.523043
    19 11.585358 0.000000 0.000001 0.000000 0.000000 -1.090735
    20 10.127058 0.000000 0.000001 1.530062 -0.009646 -0.034863
    21 1.537458 0.109715 1.664489 -0.264662 -0.055995 0.783079
    22 0.928313 0.000000 0.000002 0.000000 0.000000 -0.453501
    23 0.928311 0.000000 0.000001 0.000000 0.000000 0.000000
    24 2.686395 -0.427337 0.044204 -0.005762 0.043239 -0.157074
    25 1.435260 0.000000 0.000001 0.000000 0.000000 0.732613
    26 1.482593 0.000000 -0.000001 0.000000 0.000000 1.168644
    27 2.046984 0.000001 0.000000 -0.360992 0.134064 -0.176472
    28 -0.000005 0.000007 3.713254 -0.110795 -3.080158 5.833315
    29 18.045723 0.000000 0.000000 0.000000 0.000000 -0.417985
    30 17.597597 0.000000 0.000000 -0.065387 0.000407 -0.030727
    31 0.000005 -0.000003 -3.713254 0.554972 2.996892 6.249677
    32 18.045721 0.000000 0.000000 0.000000 0.000000 -0.554676
    33 17.597597 0.000000 0.000000 0.062437 0.097344 0.451221
  time 14
    0 0.243160 2.992430 1.540585 0.000000 0.000000 -1.571017
    1 -0.027349 0.082034 0.000000 -1.570795 -1.570787 0.000000
    2 1.293670 0.684478 -0.000001 0.008620 -0.023083 -0.052773
    3 5.309685 -0.003834 0.000000 0.094615 0.026965 0.163400
    4 4.826790 -0.004591 0.000000 0.187291 0.045853 0.226578
    5 5.792767 -0.005304 0.000000 0.093716 0.055033 0.188571
    6 6.662322 -0.001452 0.000000 0.007359 0.009840 0.596774
    7 -2.940214 1.919179 4.300562 -0.300982 -1.395299 -3.442012
    8 4.827512 0.000000 -0.000002 1.259843 0.948493 0.362171
    9 11.140032 0.000000 0.000000 0.000000 0.000000 -0.918898
    10 10.314563 -0.000001 0.000001 -1.642256 0.083181 -0.332921
    11 1.646836 0.445664 -1.699647 0.400567 0.460373 0.766655
    12 0.928312 0.000000 0.000000 0.000000 0.000000 -0.636658
    13 0.928313 0.000000 -0.000001 0.000000 0.000000 0.000000
    14 2.979373 -0.388274 -0.044205 -0.023121 -0.037007 0.541151
    15 1.435262 -0.000001 -0.000001 0.000000 0.000000 1.700791
    16 1.482593 -0.000001 0.000001 0.000000 0.000000 1.229725
    17 -2.639423 1.712177 -4.171647 0.866022 1.363408 -2.885719
    18 4.972047 0.000000 0.000000 0.747621 -1.222568 -0.589731
    19 11.585358 0.000000 0.000001 0.000000 0.000000 -1.090490
    20 10.127058 0.000000 0.000001 1.530553 -0.010024 -0.033712
    21 1.537458 0.109715 1.664489 -0.264662 -0.055995 0.783079
    22 0.928313 0.000000 0.000002 0.000000 0.000000 -0.453501
    23 0.928311 0.000000 0.000001 0.000000 0.000000 0.000000
    24 2.686395 -0.427337 0.044204 -0.005762 0.043239 -0.157074
    25 1.435260 0.000000 0.000001 0.000000 0.000000 0.732613
    26 1.482593 0.000000 -0.000001 0.000000 0.000000 1.168644
    27 2.046984 0.000001 0.000000 -0.358579 0.131143 -0.160779
    28 -0.000005 0.000007 3.713254 -0.110795 -3.080637 5.833315
    29 18.045723 0.000000 0.000000 0.000000 0.000000 -0.417319
    30 17.597597 0.000000 0.000000 -0.065615 0.000899 -0.031323
    31 0.000005 -0.000003 -3.713254 0.554972 2.996317 6.249102
    32 18.045721 0.000000 0.000000 0.000000 0.000000 -0.555227
    33 17.597597 0.000000 0.000000 0.062437 0.097561 0.450898
  time 15
    0 0.254879 3.023681 1.540585 0.000000 0.000000 -1.571017
    1 -0.027349 0.082034 0.000000 -1.570795 -1.570787 0.000000
    2 1.293670 0.684478 -0.000001 0.008620 -0.023083 -0.052773
    3 5.309685 -0.003834 0.000000 0.094700 0.026222 0.160927
    4 4.826790 -0.004591 0.000000 0.186509 0.047267 0.236787
    5 5.792767 -0.005304 0.000000 0.093842 0.057250 0.203022
    6 6.662322 -0.001452 0.000000 0.004770 0.006624 0.554821
    7 -3.006622 1.790269 4.312281 -0.289863 -1.388735 -3.411350
    8 4.827512 0.000000 -0.000002 1.221977 0.954121 0.329417
    9 11.140032 0.000000 0.000000 0.000000 0.000000 -0.926796
    10 10.314563 -0.000001 0.000001 -1.642256 0.083181 -0.332921
    11 1.646836 0.445664 -1.699647 0.400567 0.460373 0.766655
    12 0.928312 0.000000 0.000000 0.000000 0.000000 -0.636658
    13 0.928313 0.000000 -0.000001 0.000000 0.000000 0.000000
    14 2.979373 -0.388274 -0.044205 -0.023121 -0.037007 0.541151
    15 1.435262 -0.000001 -0.000001 0.000000 0.000000 1.700791
    16 1.482593 -0.000001 0.000001 0.000000 0.000000 1.229725
    17 -2.725363 1.606705 -4.163834 0.819021 1.354390 -2.891466
    18 4.972047 0.000000 0.000000 0.786547 -1.197579 -0.632726
    19 11.585358 0.000000 0.000001 0.000000 0.000000 -1.090163
    20 10.127058 0.000000 0.000001 1.531745 -0.010969 -0.031161
    21 1.537458 0.109715 1.664489 -0.264662 -0.055995 0.783079
    22 0.928313 0.000000 0.000002 0.000000 0.000000 -0.453501
    23 0.928311 0.000000 0.000001 0.000000 0.000000 0.000000
    24 2.686395 -0.427337 0.044204 -0.005762 0.043239 -0.157074
    25 1.435260 0.000000 0.000001 0.000000 0.000000 0.732613
    26 1.482593 0.000000 -0.000001 0.000000 0.000000 1.168644
    27 2.046984 0.000001 0.000000 -0.357502 0.128222 -0.140279
    28 -0.000005 0.000007 3.713254 -0.110795 -3.081308 5.833315
    29 18.045723 0.000000 0.000000 0.000000 0.000000 -0.415616
    30 17.597597 0.000000 0.000000 -0.065894 0.001490 -0.032973
    31 0.000005 -0.000003 -3.713254 0.554780 2.995359 6.247760
    32 18.045721 0.000000 0.000000 0.000000 0.000000 -0.556329
    33 17.597597 0.000000 0.000000 0.062370 0.097581 0.450482
  time 16
    0 0.262692 3.043213 1.540585 0.000000 0.000000 -1.571017
    1 -0.027349 0.082034 0.000000 -1.570795 -1.570787 0.000000
    2 1.293670 0.684478 -0.000001 0.008620 -0.023083 -0.052773
    3 5.309685 -0.003834 0.000000 0.094700 0.026043 0.160238
    4 4.826790 -0.004591 0.000000 0.186223 0.047866 0.241064
    5 5.792767 -0.005304 0.000000 0.093896 0.058269 0.209604
    6 6.662322 -0.001452 0.000000 0.002289 0.003353 0.512868
    7 -3.057405 1.653546 4.331813 -0.278553 -1.380722 -3.381359
    8 4.827512 0.000000 -0.000002 1.198859 0.951818 0.308795
    9 11.140032 0.000000 0.000000 0.000000 0.000000 -0.934186
    10 10.314563 -0.000001 0.000001 -1.642256 0.083181 -0.332921
    11 1.646836 0.445664 -1.699647 0.400567 0.460373 0.766655
    12 0.928312 0.000000 0.000000 0.000000 0.000000 -0.636658
    13 0.928313 0.000000 -0.000001 0.000000 0.000000 0.000000
    14 2.979373 -0.388274 -0.044205 -0.023121 -0.037007 0.541151
    15 1.435262 -0.000001 -0.000001 0.000000 0.000000 1.700791
    16 1.482593 -0.000001 0.000001 0.000000 0.000000 1.229725
    17 -2.799584 1.501233 -4.148209 0.758740 1.341087 -2.910335
    18 4.972047 0.000000 0.000000 0.794614 -1.174519 -0.644639
    19 11.585358 0.000000 0.000001 0.000000 0.000000 -1.089673
    20 10.127058 0.000000 0.000001 1.533638 -0.012293 -0.027110
    21 1.537458 0.109715 1.664489 -0.264662 -0.055995 0.783079
    22 0.928313 0.000000 0.000002 0.000000 0.000000 -0.453501
    23 0.928311 0.000000 0.000001 0.000000 0.000000 0.000000
    24 2.686395 -0.427337 0.044204 -0.005762 0.043239 -0.157074
    25 1.435260 0.000000 0.000001 0.000000 0.000000 0.732613
    26 1.482593 0.000000 -0.000001 0.000000 0.000000 1.168644
    27 2.046984 0.000001 0.000000 -0.356080 0.128724 -0.107979
    28 -0.000005 0.000007 3.713254 -0.110795 -3.081692 5.833411
    29 18.045723 0.000000 0.000000 0.000000 0.000000 -0.414728
    30 17.597597 0.000000 0.000000 -0.065995 0.001785 -0.033752
    31 0.000005 -0.000003 -3.713254 0.554684 2.994975 6.247089
    32 18.045721 0.000000 0.000000 0.000000 0.000000 -0.556880
    33 17.597597 0.000000 0.000000 0.062336 0.097581 0.450297
  time 17
    0 0.262692 3.043213 1.540585 0.000000 0.000000 -1.571017
    1 -0.027349 0.082034 0.000000 -1.570795 -1.570787 0.000000
    2 1.293670 0.684478 -0.000001 0.008620 -0.023083 -0.052773
    3 5.309685 -0.003834 0.000000 0.094700 0.026174 0.160715
    4 4.826790 -0.004591 0.000000 0.186185 0.047938 0.241593
    5 5.792767 -0.005304 0.000000 0.093914 0.058425 0.210455
    6 6.662322 -0.001452 0.000000 0.000000 -0.000001 0.471000
    7 -3.108188 1.516823 4.339626 -0.269543 -1.373152 -3.348780
    8 4.827512 0.000000 -0.000002 1.187858 0.945252 0.298310
    9 11.140032 0.000000 0.000000 0.000000 0.000000 -0.940562
    10 10.314563 -0.000001 0.000001 -1.642256 0.083181 -0.332921
    11 1.646836 0.445664 -1.699647 0.400567 0.460373 0.766655
    12 0.928312 0.000000 0.000000 0.000000 0.000000 -0.636658
    13 0.928313 0.000000 -0.000001 0.000000 0.000000 0.000000
    14 2.979373 -0.388274 -0.044205 -0.023121 -0.037007 0.541151
    15 1.435262 -0.000001 -0.000001 0.000000 0.000000 1.700791
    16 1.482593 -0.000001 0.000001 0.000000 0.000000 1.229725
    17 -2.869899 1.399667 -4.140396 0.702854 1.326496 -2.925372
    18 4.972047 0.000000 0.000000 0.786360 -1.156280 -0.639714
    19 11.585358 0.000000 0.000001 0.000000 0.000000 -1.089183
    20 10.127058 0.000000 0.000001 1.535602 -0.013806 -0.022908
    21 1.537458 0.109715 1.664489 -0.264662 -0.055995 0.783079
    22 0.928313 0.000000 0.000002 0.000000 0.000000 -0.453501
    23 0.928311 0.000000 0.000001 0.000000 0.000000 0.000000
    24 2.686395 -0.427337 0.044204 -0.005762 0.043239 -0.157074
    25 1.435260 0.000000 0.000001 0.000000 0.000000 0.732613
    26 1.482593 0.000000 -0.000001 0.000000 0.000000 1.168644
    27 2.046984 0.000001 0.000000 -0.354357 0.131615 -0.067528
    28 -0.000005 0.000007 3.713254 -0.110795 -3.081788 5.833411
    29 18.045723 0.000000 0.000000 0.000000 0.000000 -0.414358
    30 17.597597 0.000000 0.000000 -0.066046 0.001859 -0.034073
    31 0.000005 -0.000003 -3.713254 0.554684 2.994783 6.246801
    32 18.045721 0.000000 0.000000 0.000000 0.000000 -0.557195
    33 17.597597 0.000000 0.000000 0.062303 0.097561 0.450159
  time 18
    0 0.262692 3.043213 1.540585 0.000000 0.000000 -1.571017
    1 -0.027349 0.082034 0.000000 -1.570795 -1.570787 0.000000
    2 1.293670 0.684478 -0.000001 0.008620 -0.023083 -0.052773
    3 5.309685 -0.003834 0.000000 0.094666 0.026522 0.161810
    4 4.826790 -0.004591 0.000000 0.186280 0.047747 0.240006
    5 5.792767 -0.005304 0.000000 0.093878 0.058017 0.207922
    6 6.662322 -0.001452 0.000000 0.000000 -0.000001 0.471000
    7 -3.108188 1.516823 4.339626 -0.257753 -1.364193 -3.360853
    8 4.827512 0.000000 -0.000002 1.185387 0.937492 0.295364
    9 11.140032 0.000000 0.000000 0.000000 0.000000 -0.945996
    10 10.314563 -0.000001 0.000001 -1.642256 0.083181 -0.332921
    11 1.646836 0.445664 -1.699647 0.400567 0.460373 0.766655
    12 0.928312 0.000000 0.000000 0.000000 0.000000 -0.636658
    13 0.928313 0.000000 -0.000001 0.000000 0.000000 0.000000
    14 2.979373 -0.388274 -0.044205 -0.023121 -0.037007 0.541151
    15 1.435262 -0.000001 -0.000001 0.000000 0.000000 1.700791
    16 1.482593 -0.000001 0.000001 0.000000 0.000000 1.229725
    17 -2.869899 1.399667 -4.140396 0.672666 1.317189 -2.956405
    18 4.972047 0.000000 0.000000 0.772759 -1.145191 -0.628067
    19 11.585358 0.000000 0.000001 0.000000 0.000000 -1.088856
    20 10.127058 0.000000 0.000001 1.537144 -0.014847 -0.019606
    21 1.537458 0.109715 1.664489 -0.264662 -0.055995 0.783079
    22 0.928313 0.000000 0.000002 0.000000 0.000000 -0.453501
    23 0.928311 0.000000 0.000001 0.000000 0.000000 0.000000
    24 2.686395 -0.427337 0.044204 -0.005762 0.043239 -0.157074
    25 1.435260 0.000000 0.000001 0.000000 0.000000 0.732613
    26 1.482593 0.000000 -0.000001 0.000000 0.000000 1.168644
    27 2.046984 0.000001 0.000000 -0.354443 0.132323 -0.064608
    28 -0.000005 0.000007 3.713254 -0.110795 -3.081692 5.833411
    29 18.045723 0.000000 0.000000 0.000000 0.000000 -0.414432
    30 17.597597 0.000000 0.000000 -0.066046 0.001785 -0.034073
    31 0.000005 -0.000003 -3.713254 0.554780 2.994879 6.246897
    32 18.045721 0.000000 0.000000 0.000000 0.000000 -0.557195
    33 17.597597 0.000000 0.000000 0.062269 0.097561 0.450205
  time 19
    0 0.262692 3.043213 1.540585 0.000000 0.000000 -1.571017
    1 -0.027349 0.082034 0.000000 -1.570795 -1.570787 0.000000
    2 1.293670 0.684478 -0.000001 0.008620 -0.023083 -0.052773
    3 5.309685 -0.003834 0.000000 0.094615 0.026822 0.162905
    4 4.826790 -0.004591 0.000000 0.186471 0.047447 0.237845
    5 5.792767 -0.005304 0.000000 0.093860 0.057502 0.204662
    6 6.662322 -0.001452 0.000000 0.000000 -0.000001 0.471000
    7 -3.108188 1.516823 4.339626 -0.255548 -1.362359 -3.363153
    8 4.827512 0.000000 -0.000002 1.188576 0.935019 0.297097
    9 11.140032 0.000000 0.000000 0.000000 0.000000 -0.946431
    10 10.314563 -0.000001 0.000001 -1.642256 0.083181 -0.332921
    11 1.646836 0.445664 -1.699647 0.400567 0.460373 0.766655
    12 0.928312 0.000000 0.000000 0.000000 0.000000 -0.636658
    13 0.928313 0.000000 -0.000001 0.000000 0.000000 0.000000
    14 2.979373 -0.388274 -0.044205 -0.023121 -0.037007 0.541151
    15 1.435262 -0.000001 -0.000001 0.000000 0.000000 1.700791
    16 1.482593 -0.000001 0.000001 0.000000 0.000000 1.229725
    17 -2.869899 1.399667 -4.140396 0.667507 1.315507 -2.961673
    18 4.972047 0.000000 0.000000 0.763567 -1.145754 -0.618616
    19 11.585358 0.000000 0.000001 0.000000 0.000000 -1.088774
    20 10.127058 0.000000 0.000001 1.537355 -0.015225 -0.019056
    21 1.537458 0.109715 1.664489 -0.264662 -0.055995 0.783079
    22 0.928313 0.000000 0.000002 0.000000 0.000000 -0.453501
    23 0.928311 0.000000 0.000001 0.000000 0.000000 0.000000
    24 2.686395 -0.427337 0.044204 -0.005762 0.043239 -0.157074
    25 1.435260 0.000000 0.000001 0.000000 0.000000 0.732613
    26 1.482593 0.000000 -0.000001 0.000000 0.000000 1.168644
    27 2.046984 0.000001 0.000000 -0.354443 0.133474 -0.060350
    28 -0.000005 0.000007 3.713254 -0.110795 -3.081596 5.833411
    29 18.045723 0.000000 0.000000 0.000000 0.000000 -0.414654
    30 17.597597 0.000000 0.000000 -0.066046 0.001711 -0.033890
    31 0.000005 -0.000003 -3.713254 0.554780 2.994975 6.246993
    32 18.045721 0.000000 0.000000 0.000000 0.000000 -0.556880
    33 17.597597 0.000000 0.000000 0.062202 0.097541 0.450297
  time 20
    0 0.262692 3.035400 1.540585 0.000000 0.000000 -1.571017
    1 -0.027349 0.082034 0.000000 -1.570795 -1.570787 0.000000
    2 1.293670 0.684478 -0.000001 0.008620 -0.023083 -0.052773
    3 5.309685 -0.003834 0.000000 0.094615 0.026965 0.163400
    4 4.826790 -0.004591 0.000000 0.186509 0.047267 0.236787
    5 5.792767 -0.005304 0.000000 0.093842 0.057250 0.203022
    6 6.662322 -0.001452 0.000000 0.000000 -0.000001 0.471000
    7 -3.108188 1.516823 4.339626 -0.257753 -1.364193 -3.360853
    8 4.827512 0.000000 -0.000002 1.190648 0.937492 0.297443
    9 11.140032 0.000000 0.000000 0.000000 0.000000 -0.944185
    10 10.314563 -0.000001 0.000001 -1.642256 0.083181 -0.332921
    11 1.646836 0.445664 -1.699647 0.400567 0.460373 0.766655
    12 0.928312 0.000000 0.000000 0.000000 0.000000 -0.636658
    13 0.928313 0.000000 -0.000001 0.000000 0.000000 0.000000
    14 2.979373 -0.388274 -0.044205 -0.023121 -0.037007 0.541151
    15 1.435262 -0.000001 -0.000001 0.000000 0.000000 1.700791
    16 1.482593 -0.000001 0.000001 0.000000 0.000000 1.229725
    17 -2.869899 1.399667 -4.140396 0.672666 1.317189 -2.956405
    18 4.972047 0.000000 0.000000 0.760940 -1.149370 -0.615288
    19 11.585358 0.000000 0.000001 0.000000 0.000000 -1.088856
    20 10.127058 0.000000 0.000001 1.537144 -0.014847 -0.019606
    21 1.537458 0.109715 1.664489 -0.264662 -0.055995 0.783079
    22 0.928313 0.000000 0.000002 0.000000 0.000000 -0.453501
    23 0.928311 0.000000 0.000001 0.000000 0.000000 0.000000
    24 2.686395 -0.427337 0.044204 -0.005762 0.043239 -0.157074
    25 1.435260 0.000000 0.000001 0.000000 0.000000 0.732613
    26 1.482593 0.000000 -0.000001 0.000000 0.000000 1.168644
    27 2.046984 0.000001 0.000000 -0.354443 0.134064 -0.058161
    28 -0.000005 0.000007 3.713254 -0.111178 -3.081500 5.833411
    29 18.045723 0.000000 0.000000 0.000000 0.000000 -0.414728
    30 17.597597 0.000000 0.000000 -0.065691 0.001711 -0.033752
    31 0.000005 -0.000003 -3.713254 0.554109 2.995263 6.246993
    32 18.045721 0.000000 0.000000 0.000000 0.000000 -0.556880
    33 17.597597 0.000000 0.000000 0.062940 0.097403 0.450390
end
