version 1
nodes
  0 "Bip01" -1
  1 "Bip01 Pelvis" 0
  2 "Bip01 Spine" 1
  3 "Bip01 Spine1" 2
  4 "Bip01 Spine2" 3
  5 "Bip01 Spine3" 4
  6 "Bip01 Neck" 5
  7 "Bip01 L Arm" 6
  8 "Bip01 L Arm1" 7
  9 "Bip01 L Arm2" 8
  10 "Bip01 L Hand" 9
  11 "Bip01 L Finger0" 10
  12 "Bip01 L Finger01" 11
  13 "Bip01 L Finger02" 12
  14 "Bip01 L Finger1" 10
  15 "Bip01 L Finger11" 14
  16 "Bip01 L Finger12" 15
  17 "Bip01 R Arm" 6
  18 "Bip01 R Arm1" 17
  19 "Bip01 R Arm2" 18
  20 "Bip01 R Hand" 19
  21 "Bip01 R Finger0" 20
  22 "Bip01 R Finger01" 21
  23 "Bip01 R Finger02" 22
  24 "Bip01 R Finger1" 20
  25 "Bip01 R Finger11" 24
  26 "Bip01 R Finger12" 25
  27 "Bip01 Head" 6
  28 "Bip01 L Leg" 1
  29 "Bip01 L Leg1" 28
  30 "Bip01 L Foot" 29
  31 "Bip01 R Leg" 1
  32 "Bip01 R Leg1" 31
  33 "Bip01 R Foot" 32
end
skeleton
  time 0
    0 0.407228 3.051025 1.540585 0.000000 0.000000 -1.571017
    1 -0.023442 -0.062502 0.000000 -1.570795 -1.570787 0.000000
    2 1.293670 0.684478 -0.000001 -0.001469 0.008592 -0.060340
    3 5.309685 -0.003834 0.000000 -0.207625 -0.084875 0.084726
    4 4.826790 -0.004591 0.000000 -0.187692 0.061745 0.118740
    5 5.792767 -0.005304 0.000000 -0.260372 -0.009815 0.164673
    6 6.662322 -0.001452 0.000000 -0.004183 0.368161 0.385641
    7 -4.569170 1.239471 2.898175 0.120388 -0.908207 -3.675137
    8 4.827512 0.000000 -0.000002 -0.796695 0.814698 -1.015137
    9 11.140032 0.000000 0.000000 0.000000 0.000000 -0.719000
    10 10.314563 -0.000001 0.000001 -3.082666 0.529998 0.297008
    11 1.646836 0.445664 -1.699647 0.993049 1.047208 -0.378175
    12 0.928312 0.000000 0.000000 0.000000 0.000000 1.029733
    13 0.928313 0.000000 -0.000001 0.000000 0.000000 0.410081
    14 2.979373 -0.388274 -0.044205 -0.287441 -0.079085 0.688066
    15 1.435262 -0.000001 -0.000001 0.000000 0.000000 1.378619
    16 1.482593 -0.000001 0.000001 0.000000 0.000000 0.495031
    17 -1.299539 1.180910 -4.921670 3.461240 1.332622 -0.075432
    18 4.972047 0.000000 0.000000 -0.116733 -1.041621 -0.918914
    19 11.585358 0.000000 0.000001 0.000000 0.000000 -1.849867
    20 10.127058 0.000000 0.000001 2.041336 0.067141 1.010137
    21 1.537458 0.109715 1.664489 -3.078535 -0.186288 0.914916
    22 0.928313 0.000000 0.000002 0.000000 0.000000 0.061034
    23 0.928311 0.000000 0.000001 0.000000 0.000000 0.671897
    24 2.686395 -0.427337 0.044204 0.006330 0.043192 0.122300
    25 1.435260 0.000000 0.000001 0.000000 0.000000 1.186618
    26 1.482593 0.000000 -0.000001 0.000000 0.000000 1.404984
    27 2.046984 0.000001 0.000000 0.487268 -0.600602 0.155896
    28 -0.000005 0.000007 3.713254 -0.111178 -3.081500 5.833411
    29 18.045723 0.000000 0.000000 0.000000 0.000000 -0.414728
    30 17.597597 0.000000 0.000000 -0.065691 0.001711 -0.033752
    31 0.000005 -0.000003 -3.713254 0.554109 2.995263 6.246993
    32 18.045721 0.000000 0.000000 0.000000 0.000000 -0.556880
    33 17.597597 0.000000 0.000000 0.062940 0.097403 0.450390
  time 1
    0 0.395509 3.051025 1.540585 0.000000 0.000000 -1.571017
    1 -0.000004 -0.082034 0.000000 -1.570795 -1.570787 0.000000
    2 1.293670 0.684478 -0.000001 -0.001469 0.008592 -0.060340
    3 5.309685 -0.003834 0.000000 -0.207931 -0.083173 0.090396
    4 4.826790 -0.004591 0.000000 -0.186299 0.059851 0.104298
    5 5.792767 -0.005304 0.000000 -0.260480 -0.012883 0.147523
    6 6.662322 -0.001452 0.000000 -0.004183 0.368161 0.385641
    7 -4.569170 1.239471 2.898175 0.120388 -0.908207 -3.675137
    8 4.827512 0.000000 -0.000002 -0.792869 0.837552 -1.008725
    9 11.140032 0.000000 0.000000 0.000000 0.000000 -0.703422
    10 10.314563 -0.000001 0.000001 -3.082477 0.529061 0.285221
    11 1.646836 0.445664 -1.699647 0.993049 1.047208 -0.378175
    12 0.928312 0.000000 0.000000 0.000000 0.000000 1.029733
    13 0.928313 0.000000 -0.000001 0.000000 0.000000 0.410081
    14 2.979373 -0.388274 -0.044205 -0.287441 -0.079085 0.688066
    15 1.435262 -0.000001 -0.000001 0.000000 0.000000 1.378619
    16 1.482593 -0.000001 0.000001 0.000000 0.000000 0.495031
    17 -1.299539 1.177004 -4.921670 3.463246 1.334173 -0.073229
    18 4.972047 0.000000 0.000000 -0.157723 -1.056968 -0.879047
    19 11.585358 0.000000 0.000001 0.000000 0.000000 -1.849785
    20 10.127058 0.000000 0.000001 2.041336 0.066951 1.010587
    21 1.537458 0.109715 1.664489 -3.078535 -0.186288 0.914916
    22 0.928313 0.000000 0.000002 0.000000 0.000000 0.061034
    23 0.928311 0.000000 0.000001 0.000000 0.000000 0.671897
    24 2.686395 -0.427337 0.044204 0.006330 0.043192 0.122300
    25 1.435260 0.000000 0.000001 0.000000 0.000000 1.186618
    26 1.482593 0.000000 -0.000001 0.000000 0.000000 1.404984
    27 2.046984 0.000001 0.000000 0.472318 -0.601251 0.187222
    28 -0.000005 0.000007 3.713254 -0.111178 -3.080829 5.833411
    29 18.045723 0.000000 0.000000 0.000000 0.000000 -0.416134
    30 17.597597 0.000000 0.000000 -0.065463 0.001120 -0.032423
    31 0.000005 -0.000003 -3.713254 0.554205 2.996125 6.248143
    32 18.045721 0.000000 0.000000 0.000000 0.000000 -0.556014
    33 17.597597 0.000000 0.000000 0.062940 0.097285 0.450805
  time 2
    0 0.395509 3.054932 1.540585 0.000000 0.000000 -1.571017
    1 0.019528 -0.101566 0.000000 -1.570795 -1.570787 0.000000
    2 1.293670 0.684478 -0.000001 -0.001469 0.008592 -0.060340
    3 5.309685 -0.003834 0.000000 -0.208255 -0.081375 0.096490
    4 4.826790 -0.004591 0.000000 -0.184869 0.057898 0.088754
    5 5.792767 -0.005304 0.000000 -0.260534 -0.016107 0.129750
    6 6.662322 -0.001452 0.000000 -0.004183 0.368161 0.385641
    7 -4.569170 1.239471 2.898175 0.120388 -0.908207 -3.675137
    8 4.827512 0.000000 -0.000002 -0.789281 0.861769 -1.002746
    9 11.140032 0.000000 0.000000 0.000000 0.000000 -0.686468
    10 10.314563 -0.000001 0.000001 -3.082477 0.527562 0.272389
    11 1.646836 0.445664 -1.699647 0.993049 1.047208 -0.378175
    12 0.928312 0.000000 0.000000 0.000000 0.000000 1.029733
    13 0.928313 0.000000 -0.000001 0.000000 0.000000 0.410081
    14 2.979373 -0.388274 -0.044205 -0.287441 -0.079085 0.688066
    15 1.435262 -0.000001 -0.000001 0.000000 0.000000 1.378619
    16 1.482593 -0.000001 0.000001 0.000000 0.000000 0.495031
    17 -1.299539 1.180910 -4.921670 3.461240 1.332622 -0.075432
    18 4.972047 0.000000 0.000000 -0.200964 -1.074243 -0.836119
    19 11.585358 0.000000 0.000001 0.000000 0.000000 -1.849867
    20 10.127058 0.000000 0.000001 2.041336 0.067141 1.010137
    21 1.537458 0.109715 1.664489 -3.078535 -0.186288 0.914916
    22 0.928313 0.000000 0.000002 0.000000 0.000000 0.061034
    23 0.928311 0.000000 0.000001 0.000000 0.000000 0.671897
    24 2.686395 -0.427337 0.044204 0.006330 0.043192 0.122300
    25 1.435260 0.000000 0.000001 0.000000 0.000000 1.186618
    26 1.482593 0.000000 -0.000001 0.000000 0.000000 1.404984
    27 2.046984 0.000001 0.000000 0.456679 -0.601546 0.220252
    28 -0.000005 0.000007 3.713254 -0.111083 -3.080158 5.833411
    29 18.045723 0.000000 0.000000 0.000000 0.000000 -0.417467
    30 17.597597 0.000000 0.000000 -0.065184 0.000481 -0.031139
    31 0.000005 -0.000003 -3.713254 0.554493 2.996988 6.249294
    32 18.045721 0.000000 0.000000 0.000000 0.000000 -0.554912
    33 17.597597 0.000000 0.000000 0.062907 0.097147 0.451221
  time 3
    0 0.395509 3.054932 1.540585 0.000000 0.000000 -1.571017
    1 0.050779 -0.113285 0.000000 -1.570795 -1.570787 0.000000
    2 1.293670 0.684478 -0.000001 -0.001469 0.008592 -0.060340
    3 5.309685 -0.003834 0.000000 -0.208527 -0.079602 0.102566
    4 4.826790 -0.004591 0.000000 -0.183419 0.055968 0.073806
    5 5.792767 -0.005304 0.000000 -0.260516 -0.019259 0.112268
    6 6.662322 -0.001452 0.000000 -0.001989 0.371749 0.428306
    7 -4.526200 1.384007 2.898175 0.099013 -0.912169 -3.698134
    8 4.827512 0.000000 -0.000002 -0.786013 0.886499 -0.997720
    9 11.140032 0.000000 0.000000 0.000000 0.000000 -0.670528
    10 10.314563 -0.000001 0.000001 -3.082856 0.525314 0.259847
    11 1.646836 0.445664 -1.699647 0.993049 1.047208 -0.378175
    12 0.928312 0.000000 0.000000 0.000000 0.000000 1.029733
    13 0.928313 0.000000 -0.000001 0.000000 0.000000 0.410081
    14 2.979373 -0.388274 -0.044205 -0.287441 -0.079085 0.688066
    15 1.435262 -0.000001 -0.000001 0.000000 0.000000 1.378619
    16 1.482593 -0.000001 0.000001 0.000000 0.000000 0.495031
    17 -1.233130 1.286382 -4.917764 3.506618 1.322842 -0.071696
    18 4.972047 0.000000 0.000000 -0.241954 -1.093928 -0.794788
    19 11.585358 0.000000 0.000001 0.000000 0.000000 -1.850030
    20 10.127058 0.000000 0.000001 2.041406 0.068464 1.008036
    21 1.537458 0.109715 1.664489 -3.078535 -0.186288 0.914916
    22 0.928313 0.000000 0.000002 0.000000 0.000000 0.061034
    23 0.928311 0.000000 0.000001 0.000000 0.000000 0.671897
    24 2.686395 -0.427337 0.044204 0.006330 0.043192 0.122300
    25 1.435260 0.000000 0.000001 0.000000 0.000000 1.186618
    26 1.482593 0.000000 -0.000001 0.000000 0.000000 1.404984
    27 2.046984 0.000001 0.000000 0.461763 -0.603021 0.193549
    28 -0.000005 0.000007 3.713254 -0.111083 -3.079487 5.833411
    29 18.045723 0.000000 0.000000 0.000000 0.000000 -0.418799
    30 17.597597 0.000000 0.000000 -0.064956 -0.000085 -0.029856
    31 0.000005 -0.000003 -3.713254 0.554684 2.997659 6.250348
    32 18.045721 0.000000 0.000000 0.000000 0.000000 -0.554046
    33 17.597597 0.000000 0.000000 0.062907 0.097048 0.451591
  time 4
    0 0.387696 3.054932 1.540585 0.000000 0.000000 -1.571017
    1 0.070311 -0.132817 0.000000 -1.570795 -1.570787 0.000000
    2 1.293670 0.684478 -0.000001 -0.001469 0.008592 -0.060340
    3 5.309685 -0.003834 0.000000 -0.208833 -0.077924 0.108218
    4 4.826790 -0.004591 0.000000 -0.182141 0.054362 0.060952
    5 5.792767 -0.005304 0.000000 -0.260462 -0.022124 0.096073
    6 6.662322 -0.001452 0.000000 0.000312 0.375226 0.471057
    7 -4.475417 1.516823 2.905988 0.077541 -0.916398 -3.721034
    8 4.827512 0.000000 -0.000002 -0.783063 0.908926 -0.993301
    9 11.140032 0.000000 0.000000 0.000000 0.000000 -0.657197
    10 10.314563 -0.000001 0.000001 -3.083519 0.522878 0.248932
    11 1.646836 0.445664 -1.699647 0.993049 1.047208 -0.378175
    12 0.928312 0.000000 0.000000 0.000000 0.000000 1.029733
    13 0.928313 0.000000 -0.000001 0.000000 0.000000 0.410081
    14 2.979373 -0.388274 -0.044205 -0.287441 -0.079085 0.688066
    15 1.435262 -0.000001 -0.000001 0.000000 0.000000 1.378619
    16 1.482593 -0.000001 0.000001 0.000000 0.000000 0.495031
    17 -1.158909 1.399667 -4.902138 3.546454 1.311484 -0.073803
    18 4.972047 0.000000 0.000000 -0.279661 -1.112730 -0.756918
    19 11.585358 0.000000 0.000001 0.000000 0.000000 -1.850357
    20 10.127058 0.000000 0.000001 2.041406 0.069977 1.005435
    21 1.537458 0.109715 1.664489 -3.078535 -0.186288 0.914916
    22 0.928313 0.000000 0.000002 0.000000 0.000000 0.061034
    23 0.928311 0.000000 0.000001 0.000000 0.000000 0.671897
    24 2.686395 -0.427337 0.044204 0.006330 0.043192 0.122300
    25 1.435260 0.000000 0.000001 0.000000 0.000000 1.186618
    26 1.482593 0.000000 -0.000001 0.000000 0.000000 1.404984
    27 2.046984 0.000001 0.000000 0.468656 -0.604172 0.163256
    28 -0.000005 0.000007 3.713254 -0.110891 -3.078815 5.833411
    29 18.045723 0.000000 0.000000 0.000000 0.000000 -0.420205
    30 17.597597 0.000000 0.000000 -0.064677 -0.000725 -0.028572
    31 0.000005 -0.000003 -3.713254 0.554780 2.998522 6.251499
    32 18.045721 0.000000 0.000000 0.000000 0.000000 -0.553023
    33 17.597597 0.000000 0.000000 0.062907 0.096930 0.452006
  time 5
    0 0.387696 3.054932 1.540585 0.000000 0.000000 -1.571017
    1 0.082030 -0.144536 0.000000 -1.570795 -1.570787 0.000000
    2 1.293670 0.684478 -0.000001 -0.001469 0.008592 -0.060340
    3 5.309685 -0.003834 0.000000 -0.209021 -0.076486 0.113094
    4 4.826790 -0.004591 0.000000 -0.181206 0.053260 0.051846
    5 5.792767 -0.005304 0.000000 -0.260336 -0.024425 0.082058
    6 6.662322 -0.001452 0.000000 0.002780 0.378607 0.513893
    7 -4.428540 1.653546 2.909895 0.056262 -0.920922 -3.743935
    8 4.827512 0.000000 -0.000002 -0.780114 0.927515 -0.989315
    9 11.140032 0.000000 0.000000 0.000000 0.000000 -0.648502
    10 10.314563 -0.000001 0.000001 -3.084088 0.520537 0.241093
    11 1.646836 0.445664 -1.699647 0.993049 1.047208 -0.378175
    12 0.928312 0.000000 0.000000 0.000000 0.000000 1.029733
    13 0.928313 0.000000 -0.000001 0.000000 0.000000 0.410081
    14 2.979373 -0.388274 -0.044205 -0.287441 -0.079085 0.688066
    15 1.435262 -0.000001 -0.000001 0.000000 0.000000 1.378619
    16 1.482593 -0.000001 0.000001 0.000000 0.000000 0.495031
    17 -1.084688 1.501233 -4.882606 3.582374 1.299680 -0.080029
    18 4.972047 0.000000 0.000000 -0.309676 -1.128800 -0.726702
    19 11.585358 0.000000 0.000001 0.000000 0.000000 -1.850684
    20 10.127058 0.000000 0.000001 2.041476 0.071490 1.002634
    21 1.537458 0.109715 1.664489 -3.078535 -0.186288 0.914916
    22 0.928313 0.000000 0.000002 0.000000 0.000000 0.061034
    23 0.928311 0.000000 0.000001 0.000000 0.000000 0.671897
    24 2.686395 -0.427337 0.044204 0.006330 0.043192 0.122300
    25 1.435260 0.000000 0.000001 0.000000 0.000000 1.186618
    26 1.482593 0.000000 -0.000001 0.000000 0.000000 1.404984
    27 2.046984 0.000001 0.000000 0.478996 -0.604880 0.126455
    28 -0.000005 0.000007 3.713254 -0.110891 -3.078815 5.833411
    29 18.045723 0.000000 0.000000 0.000000 0.000000 -0.420205
    30 17.597597 0.000000 0.000000 -0.064677 -0.000725 -0.028572
    31 0.000005 -0.000003 -3.713254 0.554780 2.998522 6.251499
    32 18.045721 0.000000 0.000000 0.000000 0.000000 -0.553023
    33 17.597597 0.000000 0.000000 0.062907 0.096930 0.452006
  time 6
    0 0.387696 3.054932 1.540585 0.000000 0.000000 -1.571017
    1 0.093749 -0.144536 0.000000 -1.570795 -1.570787 0.000000
    2 1.293670 0.684478 -0.000001 -0.001469 0.008592 -0.060340
    3 5.309685 -0.003834 0.000000 -0.209191 -0.075383 0.116750
    4 4.826790 -0.004591 0.000000 -0.180653 0.052576 0.046510
    5 5.792767 -0.005304 0.000000 -0.260157 -0.026246 0.068562
    6 6.662322 -0.001452 0.000000 0.005453 0.381892 0.556786
    7 -4.366038 1.790269 2.917707 0.034983 -0.925771 -3.766835
    8 4.827512 0.000000 -0.000002 -0.777085 0.943717 -0.985069
    9 11.140032 0.000000 0.000000 0.000000 0.000000 -0.642416
    10 10.314563 -0.000001 0.000001 -3.084656 0.518382 0.234996
    11 1.646836 0.445664 -1.699647 0.993049 1.047208 -0.378175
    12 0.928312 0.000000 0.000000 0.000000 0.000000 1.029733
    13 0.928313 0.000000 -0.000001 0.000000 0.000000 0.410081
    14 2.979373 -0.388274 -0.044205 -0.287441 -0.079085 0.688066
    15 1.435262 -0.000001 -0.000001 0.000000 0.000000 1.378619
    16 1.482593 -0.000001 0.000001 0.000000 0.000000 0.495031
    17 -1.010467 1.610611 -4.863074 3.616384 1.288428 -0.088362
    18 4.972047 0.000000 0.000000 -0.335565 -1.142781 -0.701012
    19 11.585358 0.000000 0.000001 0.000000 0.000000 -1.851092
    20 10.127058 0.000000 0.000001 2.041476 0.073004 0.999933
    21 1.537458 0.109715 1.664489 -3.078535 -0.186288 0.914916
    22 0.928313 0.000000 0.000002 0.000000 0.000000 0.061034
    23 0.928311 0.000000 0.000001 0.000000 0.000000 0.671897
    24 2.686395 -0.427337 0.044204 0.006330 0.043192 0.122300
    25 1.435260 0.000000 0.000001 0.000000 0.000000 1.186618
    26 1.482593 0.000000 -0.000001 0.000000 0.000000 1.404984
    27 2.046984 0.000001 0.000000 0.491361 -0.605293 0.085943
    28 -0.000005 0.000007 3.713254 -0.110891 -3.078815 5.833411
    29 18.045723 0.000000 0.000000 0.000000 0.000000 -0.420205
    30 17.597597 0.000000 0.000000 -0.064677 -0.000725 -0.028572
    31 0.000005 -0.000003 -3.713254 0.554780 2.998522 6.251499
    32 18.045721 0.000000 0.000000 0.000000 0.000000 -0.553023
    33 17.597597 0.000000 0.000000 0.062907 0.096930 0.452006
  time 7
    0 0.395509 3.054932 1.540585 0.000000 0.000000 -1.571017
    1 0.101562 -0.156255 0.000000 -1.570795 -1.570787 0.000000
    2 1.293670 0.684478 -0.000001 -0.001469 0.008592 -0.060340
    3 5.309685 -0.003834 0.000000 -0.209327 -0.074640 0.119223
    4 4.826790 -0.004591 0.000000 -0.180386 0.052277 0.043820
    5 5.792767 -0.005304 0.000000 -0.259887 -0.027612 0.056084
    6 6.662322 -0.001452 0.000000 0.008233 0.385053 0.599736
    7 -4.303537 1.926992 2.929426 0.013703 -0.930857 -3.789640
    8 4.827512 0.000000 -0.000002 -0.774534 0.957532 -0.981170
    9 11.140032 0.000000 0.000000 0.000000 0.000000 -0.637852
    10 10.314563 -0.000001 0.000001 -3.085225 0.516509 0.229945
    11 1.646836 0.445664 -1.699647 0.993049 1.047208 -0.378175
    12 0.928312 0.000000 0.000000 0.000000 0.000000 1.029733
    13 0.928313 0.000000 -0.000001 0.000000 0.000000 0.410081
    14 2.979373 -0.388274 -0.044205 -0.287441 -0.079085 0.688066
    15 1.435262 -0.000001 -0.000001 0.000000 0.000000 1.378619
    16 1.482593 -0.000001 0.000001 0.000000 0.000000 0.495031
    17 -0.920621 1.712177 -4.847449 3.650488 1.278726 -0.096599
    18 4.972047 0.000000 0.000000 -0.358545 -1.154271 -0.678583
    19 11.585358 0.000000 0.000001 0.000000 0.000000 -1.851337
    20 10.127058 0.000000 0.000001 2.041476 0.074517 0.997582
    21 1.537458 0.109715 1.664489 -3.078535 -0.186288 0.914916
    22 0.928313 0.000000 0.000002 0.000000 0.000000 0.061034
    23 0.928311 0.000000 0.000001 0.000000 0.000000 0.671897
    24 2.686395 -0.427337 0.044204 0.006330 0.043192 0.122300
    25 1.435260 0.000000 0.000001 0.000000 0.000000 1.186618
    26 1.482593 0.000000 -0.000001 0.000000 0.000000 1.404984
    27 2.046984 0.000001 0.000000 0.505406 -0.605293 0.041963
    28 -0.000005 0.000007 3.713254 -0.110891 -3.078815 5.833411
    29 18.045723 0.000000 0.000000 0.000000 0.000000 -0.420205
    30 17.597597 0.000000 0.000000 -0.064677 -0.000725 -0.028572
    31 0.000005 -0.000003 -3.713254 0.554780 2.998522 6.251499
    32 18.045721 0.000000 0.000000 0.000000 0.000000 -0.553023
    33 17.597597 0.000000 0.000000 0.062907 0.096930 0.452006
  time 8
    0 0.395509 3.054932 1.540585 0.000000 0.000000 -1.571017
    1 0.101562 -0.156255 0.000000 -1.570795 -1.570787 0.000000
    2 1.293670 0.684478 -0.000001 -0.001469 0.008592 -0.060340
    3 5.309685 -0.003834 0.000000 -0.209361 -0.074209 0.120760
    4 4.826790 -0.004591 0.000000 -0.180386 0.052277 0.043820
    5 5.792767 -0.005304 0.000000 -0.259689 -0.028152 0.048817
    6 6.662322 -0.001452 0.000000 0.008233 0.385053 0.599736
    7 -4.303537 1.926992 2.929426 0.013703 -0.930857 -3.789640
    8 4.827512 0.000000 -0.000002 -0.773019 0.964524 -0.978917
    9 11.140032 0.000000 0.000000 0.000000 0.000000 -0.636837
    10 10.314563 -0.000001 0.000001 -3.085509 0.515291 0.227971
    11 1.646836 0.445664 -1.699647 0.993049 1.047208 -0.378175
    12 0.928312 0.000000 0.000000 0.000000 0.000000 1.029733
    13 0.928313 0.000000 -0.000001 0.000000 0.000000 0.410081
    14 2.979373 -0.388274 -0.044205 -0.287441 -0.079085 0.688066
    15 1.435262 -0.000001 -0.000001 0.000000 0.000000 1.378619
    16 1.482593 -0.000001 0.000001 0.000000 0.000000 0.495031
    17 -0.920621 1.712177 -4.851355 3.641031 1.273521 -0.106465
    18 4.972047 0.000000 0.000000 -0.368394 -1.160860 -0.669065
    19 11.585358 0.000000 0.000001 0.000000 0.000000 -1.851501
    20 10.127058 0.000000 0.000001 2.041476 0.075368 0.995981
    21 1.537458 0.109715 1.664489 -3.078535 -0.186288 0.914916
    22 0.928313 0.000000 0.000002 0.000000 0.000000 0.061034
    23 0.928311 0.000000 0.000001 0.000000 0.000000 0.671897
    24 2.686395 -0.427337 0.044204 0.006330 0.043192 0.122300
    25 1.435260 0.000000 0.000001 0.000000 0.000000 1.186618
    26 1.482593 0.000000 -0.000001 0.000000 0.000000 1.404984
    27 2.046984 0.000001 0.000000 0.496789 -0.610987 0.059178
    28 -0.000005 0.000007 3.713254 -0.110891 -3.078815 5.833411
    29 18.045723 0.000000 0.000000 0.000000 0.000000 -0.420205
    30 17.597597 0.000000 0.000000 -0.064677 -0.000725 -0.028572
    31 0.000005 -0.000003 -3.713254 0.554780 2.998522 6.251499
    32 18.045721 0.000000 0.000000 0.000000 0.000000 -0.553023
    33 17.597597 0.000000 0.000000 0.062907 0.096930 0.452006
  time 9
    0 0.395509 3.054932 1.540585 0.000000 0.000000 -1.571017
    1 0.085936 -0.144536 0.000000 -1.570795 -1.570787 0.000000
    2 1.293670 0.684478 -0.000001 -0.001469 0.008592 -0.060340
    3 5.309685 -0.003834 0.000000 -0.209395 -0.074137 0.121007
    4 4.826790 -0.004591 0.000000 -0.180653 0.052576 0.046510
    5 5.792767 -0.005304 0.000000 -0.259653 -0.027433 0.050997
    6 6.662322 -0.001452 0.000000 0.008233 0.385053 0.599736
    7 -4.303537 1.926992 2.929426 0.013703 -0.930857 -3.789640
    8 4.827512 0.000000 -0.000002 -0.773418 0.961284 -0.980217
    9 11.140032 0.000000 0.000000 0.000000 0.000000 -0.641982
    10 10.314563 -0.000001 0.000001 -3.085794 0.514916 0.231164
    11 1.646836 0.445664 -1.699647 0.993049 1.047208 -0.378175
    12 0.928312 0.000000 0.000000 0.000000 0.000000 1.029733
    13 0.928313 0.000000 -0.000001 0.000000 0.000000 0.410081
    14 2.979373 -0.388274 -0.044205 -0.287441 -0.079085 0.688066
    15 1.435262 -0.000001 -0.000001 0.000000 0.000000 1.378619
    16 1.482593 -0.000001 0.000001 0.000000 0.000000 0.495031
    17 -0.920621 1.712177 -4.851355 3.635299 1.270235 -0.112499
    18 4.972047 0.000000 0.000000 -0.354887 -1.161181 -0.681910
    19 11.585358 0.000000 0.000001 0.000000 0.000000 -1.851664
    20 10.127058 0.000000 0.000001 2.041546 0.076030 0.994981
    21 1.537458 0.109715 1.664489 -3.078535 -0.186288 0.914916
    22 0.928313 0.000000 0.000002 0.000000 0.000000 0.061034
    23 0.928311 0.000000 0.000001 0.000000 0.000000 0.671897
    24 2.686395 -0.427337 0.044204 0.006330 0.043192 0.122300
    25 1.435260 0.000000 0.000001 0.000000 0.000000 1.186618
    26 1.482593 0.000000 -0.000001 0.000000 0.000000 1.404984
    27 2.046984 0.000001 0.000000 0.494506 -0.615796 0.063193
    28 -0.000005 0.000007 3.713254 -0.110891 -3.078815 5.833411
    29 18.045723 0.000000 0.000000 0.000000 0.000000 -0.420205
    30 17.597597 0.000000 0.000000 -0.064677 -0.000725 -0.028572
    31 0.000005 -0.000003 -3.713254 0.554780 2.998522 6.251499
    32 18.045721 0.000000 0.000000 0.000000 0.000000 -0.553023
    33 17.597597 0.000000 0.000000 0.062907 0.096930 0.452006
  time 10
    0 0.395509 3.054932 1.540585 0.000000 0.000000 -1.571017
    1 0.070311 -0.136723 0.000000 -1.570795 -1.570787 0.000000
    2 1.293670 0.684478 -0.000001 -0.001469 0.008592 -0.060340
    3 5.309685 -0.003834 0.000000 -0.209327 -0.074484 0.119753
    4 4.826790 -0.004591 0.000000 -0.181206 0.053260 0.051846
    5 5.792767 -0.005304 0.000000 -0.259815 -0.025323 0.063745
    6 6.662322 -0.001452 0.000000 0.008233 0.385053 0.599736
    7 -4.303537 1.926992 2.929426 0.013703 -0.930857 -3.789640
    8 4.827512 0.000000 -0.000002 -0.776208 0.947043 -0.985936
    9 11.140032 0.000000 0.000000 0.000000 0.000000 -0.653067
    10 10.314563 -0.000001 0.000001 -3.086173 0.515291 0.239467
    11 1.646836 0.445664 -1.699647 0.993049 1.047208 -0.378175
    12 0.928312 0.000000 0.000000 0.000000 0.000000 1.029733
    13 0.928313 0.000000 -0.000001 0.000000 0.000000 0.410081
    14 2.979373 -0.388274 -0.044205 -0.287441 -0.079085 0.688066
    15 1.435262 -0.000001 -0.000001 0.000000 0.000000 1.378619
    16 1.482593 -0.000001 0.000001 0.000000 0.000000 0.495031
    17 -0.920621 1.712177 -4.851355 3.631573 1.268105 -0.116330
    18 4.972047 0.000000 0.000000 -0.316430 -1.154833 -0.718582
    19 11.585358 0.000000 0.000001 0.000000 0.000000 -1.851746
    20 10.127058 0.000000 0.000001 2.041546 0.076313 0.994330
    21 1.537458 0.109715 1.664489 -3.078535 -0.186288 0.914916
    22 0.928313 0.000000 0.000002 0.000000 0.000000 0.061034
    23 0.928311 0.000000 0.000001 0.000000 0.000000 0.671897
    24 2.686395 -0.427337 0.044204 0.006330 0.043192 0.122300
    25 1.435260 0.000000 0.000001 0.000000 0.000000 1.186618
    26 1.482593 0.000000 -0.000001 0.000000 0.000000 1.404984
    27 2.046984 0.000001 0.000000 0.498771 -0.619779 0.052913
    28 -0.000005 0.000007 3.713254 -0.110891 -3.078815 5.833411
    29 18.045723 0.000000 0.000000 0.000000 0.000000 -0.420205
    30 17.597597 0.000000 0.000000 -0.064677 -0.000725 -0.028572
    31 0.000005 -0.000003 -3.713254 0.554780 2.998522 6.251499
    32 18.045721 0.000000 0.000000 0.000000 0.000000 -0.553023
    33 17.597597 0.000000 0.000000 0.062907 0.096930 0.452006
  time 11
    0 0.395509 3.054932 1.540585 0.000000 0.000000 -1.571017
    1 0.031247 -0.125004 0.000000 -1.570795 -1.570787 0.000000
    2 1.293670 0.684478 -0.000001 -0.001469 0.008592 -0.060340
    3 5.309685 -0.003834 0.000000 -0.209191 -0.075383 0.116750
    4 4.826790 -0.004591 0.000000 -0.182217 0.054518 0.062032
    5 5.792767 -0.005304 0.000000 -0.260049 -0.022267 0.083200
    6 6.662322 -0.001452 0.000000 0.008233 0.385053 0.599736
    7 -4.303537 1.926992 2.929426 0.013703 -0.930857 -3.789640
    8 4.827512 0.000000 -0.000002 -0.779954 0.923507 -0.993474
    9 11.140032 0.000000 0.000000 0.000000 0.000000 -0.670456
    10 10.314563 -0.000001 0.000001 -3.086457 0.516509 0.252822
    11 1.646836 0.445664 -1.699647 0.993049 1.047208 -0.378175
    12 0.928312 0.000000 0.000000 0.000000 0.000000 1.029733
    13 0.928313 0.000000 -0.000001 0.000000 0.000000 0.410081
    14 2.979373 -0.388274 -0.044205 -0.287441 -0.079085 0.688066
    15 1.435262 -0.000001 -0.000001 0.000000 0.000000 1.378619
    16 1.482593 -0.000001 0.000001 0.000000 0.000000 0.495031
    17 -0.920621 1.712177 -4.847449 3.630045 1.267211 -0.117958
    18 4.972047 0.000000 0.000000 -0.259400 -1.142138 -0.772892
    19 11.585358 0.000000 0.000001 0.000000 0.000000 -1.851746
    20 10.127058 0.000000 0.000001 2.041546 0.076502 0.994030
    21 1.537458 0.109715 1.664489 -3.078535 -0.186288 0.914916
    22 0.928313 0.000000 0.000002 0.000000 0.000000 0.061034
    23 0.928311 0.000000 0.000001 0.000000 0.000000 0.671897
    24 2.686395 -0.427337 0.044204 0.006330 0.043192 0.122300
    25 1.435260 0.000000 0.000001 0.000000 0.000000 1.186618
    26 1.482593 0.000000 -0.000001 0.000000 0.000000 1.404984
    27 2.046984 0.000001 0.000000 0.509197 -0.622995 0.030528
    28 -0.000005 0.000007 3.713254 -0.110891 -3.078815 5.833411
    29 18.045723 0.000000 0.000000 0.000000 0.000000 -0.420205
    30 17.597597 0.000000 0.000000 -0.064677 -0.000725 -0.028572
    31 0.000005 -0.000003 -3.713254 0.554780 2.998522 6.251499
    32 18.045721 0.000000 0.000000 0.000000 0.000000 -0.553023
    33 17.597597 0.000000 0.000000 0.062907 0.096930 0.452006
  time 12
    0 0.395509 3.054932 1.540585 0.000000 0.000000 -1.571017
    1 0.019528 -0.105472 0.000000 -1.570795 -1.570787 0.000000
    2 1.293670 0.684478 -0.000001 -0.001469 0.008592 -0.060340
    3 5.309685 -0.003834 0.000000 -0.208782 -0.078152 0.107459
    4 4.826790 -0.004591 0.000000 -0.183705 0.056376 0.077003
    5 5.792767 -0.005304 0.000000 -0.260229 -0.018756 0.106309
    6 6.662322 -0.001452 0.000000 0.008233 0.385053 0.599736
    7 -4.303537 1.926992 2.929426 0.013703 -0.930857 -3.789640
    8 4.827512 0.000000 -0.000002 -0.785295 0.897840 -1.002053
    9 11.140032 0.000000 0.000000 0.000000 0.000000 -0.686758
    10 10.314563 -0.000001 0.000001 -3.086647 0.517820 0.265305
    11 1.646836 0.445664 -1.699647 0.993049 1.047208 -0.378175
    12 0.928312 0.000000 0.000000 0.000000 0.000000 1.029733
    13 0.928313 0.000000 -0.000001 0.000000 0.000000 0.410081
    14 2.979373 -0.388274 -0.044205 -0.287441 -0.079085 0.688066
    15 1.435262 -0.000001 -0.000001 0.000000 0.000000 1.378619
    16 1.482593 -0.000001 0.000001 0.000000 0.000000 0.495031
    17 -0.920621 1.716083 -4.847449 3.630904 1.267763 -0.117000
    18 4.972047 0.000000 0.000000 -0.204247 -1.125506 -0.826402
    19 11.585358 0.000000 0.000001 0.000000 0.000000 -1.851746
    20 10.127058 0.000000 0.000001 2.041546 0.076313 0.994180
    21 1.537458 0.109715 1.664489 -3.078535 -0.186288 0.914916
    22 0.928313 0.000000 0.000002 0.000000 0.000000 0.061034
    23 0.928311 0.000000 0.000001 0.000000 0.000000 0.671897
    24 2.686395 -0.427337 0.044204 0.006330 0.043192 0.122300
    25 1.435260 0.000000 0.000001 0.000000 0.000000 1.186618
    26 1.482593 0.000000 -0.000001 0.000000 0.000000 1.404984
    27 2.046984 0.000001 0.000000 0.520916 -0.626742 0.005405
    28 -0.000005 0.000007 3.713254 -0.110891 -3.078815 5.833411
    29 18.045723 0.000000 0.000000 0.000000 0.000000 -0.420205
    30 17.597597 0.000000 0.000000 -0.064677 -0.000725 -0.028572
    31 0.000005 -0.000003 -3.713254 0.554780 2.998522 6.251499
    32 18.045721 0.000000 0.000000 0.000000 0.000000 -0.553023
    33 17.597597 0.000000 0.000000 0.062907 0.096930 0.452006
  time 13
    0 0.395509 3.054932 1.540585 0.000000 0.000000 -1.571017
    1 0.027341 -0.101566 0.000000 -1.570795 -1.570787 0.000000
    2 1.293670 0.684478 -0.000001 -0.001469 0.008592 -0.060340
    3 5.309685 -0.003834 0.000000 -0.208085 -0.082190 0.093717
    4 4.826790 -0.004591 0.000000 -0.185288 0.058509 0.093605
    5 5.792767 -0.005304 0.000000 -0.260336 -0.015161 0.129688
    6 6.662322 -0.001452 0.000000 0.005453 0.381892 0.556786
    7 -4.366038 1.790269 2.917707 0.034983 -0.925771 -3.766835
    8 4.827512 0.000000 -0.000002 -0.791832 0.873793 -1.011064
    9 11.140032 0.000000 0.000000 0.000000 0.000000 -0.698858
    10 10.314563 -0.000001 0.000001 -3.086647 0.519038 0.274712
    11 1.646836 0.445664 -1.699647 0.993049 1.047208 -0.378175
    12 0.928312 0.000000 0.000000 0.000000 0.000000 1.029733
    13 0.928313 0.000000 -0.000001 0.000000 0.000000 0.410081
    14 2.979373 -0.388274 -0.044205 -0.287441 -0.079085 0.688066
    15 1.435262 -0.000001 -0.000001 0.000000 0.000000 1.378619
    16 1.482593 -0.000001 0.000001 0.000000 0.000000 0.495031
    17 -1.010467 1.606705 -4.863074 3.588488 1.271707 -0.117288
    18 4.972047 0.000000 0.000000 -0.159786 -1.107507 -0.869730
    19 11.585358 0.000000 0.000001 0.000000 0.000000 -1.851664
    20 10.127058 0.000000 0.000001 2.041546 0.076030 0.994831
    21 1.537458 0.109715 1.664489 -3.078535 -0.186288 0.914916
    22 0.928313 0.000000 0.000002 0.000000 0.000000 0.061034
    23 0.928311 0.000000 0.000001 0.000000 0.000000 0.671897
    24 2.686395 -0.427337 0.044204 0.006330 0.043192 0.122300
    25 1.435260 0.000000 0.000001 0.000000 0.000000 1.186618
    26 1.482593 0.000000 -0.000001 0.000000 0.000000 1.404984
    27 2.046984 0.000001 0.000000 0.520011 -0.622464 0.022681
    28 -0.000005 0.000007 3.713254 -0.110891 -3.078815 5.833411
    29 18.045723 0.000000 0.000000 0.000000 0.000000 -0.420205
    30 17.597597 0.000000 0.000000 -0.064677 -0.000725 -0.028572
    31 0.000005 -0.000003 -3.713254 0.554780 2.998522 6.251499
    32 18.045721 0.000000 0.000000 0.000000 0.000000 -0.553023
    33 17.597597 0.000000 0.000000 0.062907 0.096930 0.452006
  time 14
    0 0.395509 3.054932 1.540585 0.000000 0.000000 -1.571017
    1 0.007809 -0.082034 0.000000 -1.570795 -1.570787 0.000000
    2 1.293670 0.684478 -0.000001 -0.001469 0.008592 -0.060340
    3 5.309685 -0.003834 0.000000 -0.207625 -0.084875 0.084726
    4 4.826790 -0.004591 0.000000 -0.186757 0.060402 0.108554
    5 5.792767 -0.005304 0.000000 -0.260390 -0.012045 0.150222
    6 6.662322 -0.001452 0.000000 0.002780 0.378607 0.513893
    7 -4.428540 1.653546 2.909895 0.056262 -0.920922 -3.743935
    8 4.827512 0.000000 -0.000002 -0.796376 0.848722 -1.017996
    9 11.140032 0.000000 0.000000 0.000000 0.000000 -0.711972
    10 10.314563 -0.000001 0.000001 -3.086457 0.520818 0.285628
    11 1.646836 0.445664 -1.699647 0.993049 1.047208 -0.378175
    12 0.928312 0.000000 0.000000 0.000000 0.000000 1.029733
    13 0.928313 0.000000 -0.000001 0.000000 0.000000 0.410081
    14 2.979373 -0.388274 -0.044205 -0.287441 -0.079085 0.688066
    15 1.435262 -0.000001 -0.000001 0.000000 0.000000 1.378619
    16 1.482593 -0.000001 0.000001 0.000000 0.000000 0.495031
    17 -1.084688 1.501233 -4.886513 3.547792 1.277386 -0.116138
    18 4.972047 0.000000 0.000000 -0.118234 -1.088063 -0.910062
    19 11.585358 0.000000 0.000001 0.000000 0.000000 -1.851501
    20 10.127058 0.000000 0.000001 2.041476 0.075368 0.995981
    21 1.537458 0.109715 1.664489 -3.078535 -0.186288 0.914916
    22 0.928313 0.000000 0.000002 0.000000 0.000000 0.061034
    23 0.928311 0.000000 0.000001 0.000000 0.000000 0.671897
    24 2.686395 -0.427337 0.044204 0.006330 0.043192 0.122300
    25 1.435260 0.000000 0.000001 0.000000 0.000000 1.186618
    26 1.482593 0.000000 -0.000001 0.000000 0.000000 1.404984
    27 2.046984 0.000001 0.000000 0.519537 -0.617124 0.039409
    28 -0.000005 0.000007 3.713254 -0.110891 -3.078815 5.833411
    29 18.045723 0.000000 0.000000 0.000000 0.000000 -0.420205
    30 17.597597 0.000000 0.000000 -0.064677 -0.000725 -0.028572
    31 0.000005 -0.000003 -3.713254 0.554780 2.998522 6.251499
    32 18.045721 0.000000 0.000000 0.000000 0.000000 -0.553023
    33 17.597597 0.000000 0.000000 0.062907 0.096930 0.452006
  time 15
    0 0.395509 3.054932 1.540585 0.000000 0.000000 -1.571017
    1 -0.003910 -0.070315 0.000000 -1.570795 -1.570787 0.000000
    2 1.293670 0.684478 -0.000001 -0.001469 0.008592 -0.060340
    3 5.309685 -0.003834 0.000000 -0.207506 -0.085606 0.082253
    4 4.826790 -0.004591 0.000000 -0.187692 0.061745 0.118740
    5 5.792767 -0.005304 0.000000 -0.260372 -0.009815 0.164673
    6 6.662322 -0.001452 0.000000 0.000312 0.375226 0.471057
    7 -4.475417 1.516823 2.905988 0.077541 -0.916398 -3.721034
    8 4.827512 0.000000 -0.000002 -0.798608 0.825954 -1.021896
    9 11.140032 0.000000 0.000000 0.000000 0.000000 -0.723274
    10 10.314563 -0.000001 0.000001 -3.085889 0.523440 0.295905
    11 1.646836 0.445664 -1.699647 0.993049 1.047208 -0.378175
    12 0.928312 0.000000 0.000000 0.000000 0.000000 1.029733
    13 0.928313 0.000000 -0.000001 0.000000 0.000000 0.410081
    14 2.979373 -0.388274 -0.044205 -0.287441 -0.079085 0.688066
    15 1.435262 -0.000001 -0.000001 0.000000 0.000000 1.378619
    16 1.482593 -0.000001 0.000001 0.000000 0.000000 0.495031
    17 -1.158909 1.399667 -4.898232 3.512063 1.288112 -0.109434
    18 4.972047 0.000000 0.000000 -0.089719 -1.068377 -0.938814
    19 11.585358 0.000000 0.000001 0.000000 0.000000 -1.851256
    20 10.127058 0.000000 0.000001 2.041476 0.073949 0.998532
    21 1.537458 0.109715 1.664489 -3.078535 -0.186288 0.914916
    22 0.928313 0.000000 0.000002 0.000000 0.000000 0.061034
    23 0.928311 0.000000 0.000001 0.000000 0.000000 0.671897
    24 2.686395 -0.427337 0.044204 0.006330 0.043192 0.122300
    25 1.435260 0.000000 0.000001 0.000000 0.000000 1.186618
    26 1.482593 0.000000 -0.000001 0.000000 0.000000 1.404984
    27 2.046984 0.000001 0.000000 0.516780 -0.610987 0.061429
    28 -0.000005 0.000007 3.713254 -0.110891 -3.078815 5.833411
    29 18.045723 0.000000 0.000000 0.000000 0.000000 -0.420205
    30 17.597597 0.000000 0.000000 -0.064677 -0.000725 -0.028572
    31 0.000005 -0.000003 -3.713254 0.554780 2.998522 6.251499
    32 18.045721 0.000000 0.000000 0.000000 0.000000 -0.553023
    33 17.597597 0.000000 0.000000 0.062907 0.096930 0.452006
  time 16
    0 0.395509 3.051025 1.540585 0.000000 0.000000 -1.571017
    1 -0.023442 -0.062502 0.000000 -1.570795 -1.570787 0.000000
    2 1.293670 0.684478 -0.000001 -0.001469 0.008592 -0.060340
    3 5.309685 -0.003834 0.000000 -0.207472 -0.085810 0.081564
    4 4.826790 -0.004591 0.000000 -0.188054 0.062308 0.122995
    5 5.792767 -0.005304 0.000000 -0.260354 -0.008809 0.171255
    6 6.662322 -0.001452 0.000000 -0.001989 0.371749 0.428306
    7 -4.526200 1.384007 2.898175 0.099013 -0.912169 -3.698134
    8 4.827512 0.000000 -0.000002 -0.799405 0.813334 -1.022242
    9 11.140032 0.000000 0.000000 0.000000 0.000000 -0.726462
    10 10.314563 -0.000001 0.000001 -3.084846 0.526157 0.300260
    11 1.646836 0.445664 -1.699647 0.993049 1.047208 -0.378175
    12 0.928312 0.000000 0.000000 0.000000 0.000000 1.029733
    13 0.928313 0.000000 -0.000001 0.000000 0.000000 0.410081
    14 2.979373 -0.388274 -0.044205 -0.287441 -0.079085 0.688066
    15 1.435262 -0.000001 -0.000001 0.000000 0.000000 1.378619
    16 1.482593 -0.000001 0.000001 0.000000 0.000000 0.495031
    17 -1.229224 1.286382 -4.913857 3.480346 1.304044 -0.098802
    18 4.972047 0.000000 0.000000 -0.085216 -1.052950 -0.945137
    19 11.585358 0.000000 0.000001 0.000000 0.000000 -1.850684
    20 10.127058 0.000000 0.000001 2.041476 0.071490 1.002584
    21 1.537458 0.109715 1.664489 -3.078535 -0.186288 0.914916
    22 0.928313 0.000000 0.000002 0.000000 0.000000 0.061034
    23 0.928311 0.000000 0.000001 0.000000 0.000000 0.671897
    24 2.686395 -0.427337 0.044204 0.006330 0.043192 0.122300
    25 1.435260 0.000000 0.000001 0.000000 0.000000 1.186618
    26 1.482593 0.000000 -0.000001 0.000000 0.000000 1.404984
    27 2.046984 0.000001 0.000000 0.507000 -0.605588 0.098048
    28 -0.000005 0.000007 3.713254 -0.110891 -3.078815 5.833411
    29 18.045723 0.000000 0.000000 0.000000 0.000000 -0.420205
    30 17.597597 0.000000 0.000000 -0.064677 -0.000725 -0.028572
    31 0.000005 -0.000003 -3.713254 0.554780 2.998522 6.251499
    32 18.045721 0.000000 0.000000 0.000000 0.000000 -0.553023
    33 17.597597 0.000000 0.000000 0.062907 0.096930 0.452006
  time 17
    0 0.395509 3.051025 1.540585 0.000000 0.000000 -1.571017
    1 -0.027349 -0.062502 0.000000 -1.570795 -1.570787 0.000000
    2 1.293670 0.684478 -0.000001 -0.001469 0.008592 -0.060340
    3 5.309685 -0.003834 0.000000 -0.207472 -0.085666 0.082059
    4 4.826790 -0.004591 0.000000 -0.188092 0.062380 0.123525
    5 5.792767 -0.005304 0.000000 -0.260354 -0.008677 0.172106
    6 6.662322 -0.001452 0.000000 -0.004183 0.368161 0.385641
    7 -4.569170 1.239471 2.898175 0.120388 -0.908207 -3.675137
    8 4.827512 0.000000 -0.000002 -0.798847 0.808303 -1.019989
    9 11.140032 0.000000 0.000000 0.000000 0.000000 -0.725448
    10 10.314563 -0.000001 0.000001 -3.083709 0.528592 0.301131
    11 1.646836 0.445664 -1.699647 0.993049 1.047208 -0.378175
    12 0.928312 0.000000 0.000000 0.000000 0.000000 1.029733
    13 0.928313 0.000000 -0.000001 0.000000 0.000000 0.410081
    14 2.979373 -0.388274 -0.044205 -0.287441 -0.079085 0.688066
    15 1.435262 -0.000001 -0.000001 0.000000 0.000000 1.378619
    16 1.482593 -0.000001 0.000001 0.000000 0.000000 0.495031
    17 -1.299539 1.177004 -4.921670 3.446337 1.321159 -0.090661
    18 4.972047 0.000000 0.000000 -0.094034 -1.042505 -0.939014
    19 11.585358 0.000000 0.000001 0.000000 0.000000 -1.850275
    20 10.127058 0.000000 0.000001 2.041406 0.069126 1.006836
    21 1.537458 0.109715 1.664489 -3.078535 -0.186288 0.914916
    22 0.928313 0.000000 0.000002 0.000000 0.000000 0.061034
    23 0.928311 0.000000 0.000001 0.000000 0.000000 0.671897
    24 2.686395 -0.427337 0.044204 0.006330 0.043192 0.122300
    25 1.435260 0.000000 0.000001 0.000000 0.000000 1.186618
    26 1.482593 0.000000 -0.000001 0.000000 0.000000 1.404984
    27 2.046984 0.000001 0.000000 0.492567 -0.600307 0.144399
    28 -0.000005 0.000007 3.713254 -0.110891 -3.078815 5.833411
    29 18.045723 0.000000 0.000000 0.000000 0.000000 -0.420205
    30 17.597597 0.000000 0.000000 -0.064677 -0.000725 -0.028572
    31 0.000005 -0.000003 -3.713254 0.554780 2.998522 6.251499
    32 18.045721 0.000000 0.000000 0.000000 0.000000 -0.553023
    33 17.597597 0.000000 0.000000 0.062907 0.096930 0.452006
  time 18
    0 0.395509 3.051025 1.540585 0.000000 0.000000 -1.571017
    1 -0.027349 -0.062502 0.000000 -1.570795 -1.570787 0.000000
    2 1.293670 0.684478 -0.000001 -0.001469 0.008592 -0.060340
    3 5.309685 -0.003834 0.000000 -0.207540 -0.085318 0.083154
    4 4.826790 -0.004591 0.000000 -0.187997 0.062140 0.121937
    5 5.792767 -0.005304 0.000000 -0.260372 -0.009036 0.169594
    6 6.662322 -0.001452 0.000000 -0.004183 0.368161 0.385641
    7 -4.569170 1.239471 2.898175 0.120388 -0.908207 -3.675137
    8 4.827512 0.000000 -0.000002 -0.797811 0.808558 -1.017130
    9 11.140032 0.000000 0.000000 0.000000 0.000000 -0.722332
    10 10.314563 -0.000001 0.000001 -3.082666 0.530279 0.299853
    11 1.646836 0.445664 -1.699647 0.993049 1.047208 -0.378175
    12 0.928312 0.000000 0.000000 0.000000 0.000000 1.029733
    13 0.928313 0.000000 -0.000001 0.000000 0.000000 0.410081
    14 2.979373 -0.388274 -0.044205 -0.287441 -0.079085 0.688066
    15 1.435262 -0.000001 -0.000001 0.000000 0.000000 1.378619
    16 1.482593 -0.000001 0.000001 0.000000 0.000000 0.495031
    17 -1.299539 1.177004 -4.921670 3.461240 1.332622 -0.075432
    18 4.972047 0.000000 0.000000 -0.107165 -1.037282 -0.928365
    19 11.585358 0.000000 0.000001 0.000000 0.000000 -1.849867
    20 10.127058 0.000000 0.000001 2.041336 0.067141 1.010137
    21 1.537458 0.109715 1.664489 -3.078535 -0.186288 0.914916
    22 0.928313 0.000000 0.000002 0.000000 0.000000 0.061034
    23 0.928311 0.000000 0.000001 0.000000 0.000000 0.671897
    24 2.686395 -0.427337 0.044204 0.006330 0.043192 0.122300
    25 1.435260 0.000000 0.000001 0.000000 0.000000 1.186618
    26 1.482593 0.000000 -0.000001 0.000000 0.000000 1.404984
    27 2.046984 0.000001 0.000000 0.490973 -0.600366 0.147988
    28 -0.000005 0.000007 3.713254 -0.110891 -3.078815 5.833411
    29 18.045723 0.000000 0.000000 0.000000 0.000000 -0.420205
    30 17.597597 0.000000 0.000000 -0.064677 -0.000725 -0.028572
    31 0.000005 -0.000003 -3.713254 0.554780 2.998522 6.251499
    32 18.045721 0.000000 0.000000 0.000000 0.000000 -0.553023
    33 17.597597 0.000000 0.000000 0.062907 0.096930 0.452006
  time 19
    0 0.407228 3.051025 1.540585 0.000000 0.000000 -1.571017
    1 -0.023442 -0.062502 0.000000 -1.570795 -1.570787 0.000000
    2 1.293670 0.684478 -0.000001 -0.001469 0.008592 -0.060340
    3 5.309685 -0.003834 0.000000 -0.207574 -0.085019 0.084213
    4 4.826790 -0.004591 0.000000 -0.187787 0.061864 0.119798
    5 5.792767 -0.005304 0.000000 -0.260372 -0.009576 0.166272
    6 6.662322 -0.001452 0.000000 -0.004183 0.368161 0.385641
    7 -4.569170 1.239471 2.898175 0.120388 -0.908207 -3.675137
    8 4.827512 0.000000 -0.000002 -0.796934 0.812140 -1.015484
    9 11.140032 0.000000 0.000000 0.000000 0.000000 -0.719869
    10 10.314563 -0.000001 0.000001 -3.082477 0.530372 0.297879
    11 1.646836 0.445664 -1.699647 0.993049 1.047208 -0.378175
    12 0.928312 0.000000 0.000000 0.000000 0.000000 1.029733
    13 0.928313 0.000000 -0.000001 0.000000 0.000000 0.410081
    14 2.979373 -0.388274 -0.044205 -0.287441 -0.079085 0.688066
    15 1.435262 -0.000001 -0.000001 0.000000 0.000000 1.378619
    16 1.482593 -0.000001 0.000001 0.000000 0.000000 0.495031
    17 -1.299539 1.180910 -4.925576 3.463915 1.334725 -0.072463
    18 4.972047 0.000000 0.000000 -0.115138 -1.038889 -0.920911
    19 11.585358 0.000000 0.000001 0.000000 0.000000 -1.849785
    20 10.127058 0.000000 0.000001 2.041336 0.066762 1.010737
    21 1.537458 0.109715 1.664489 -3.078535 -0.186288 0.914916
    22 0.928313 0.000000 0.000002 0.000000 0.000000 0.061034
    23 0.928311 0.000000 0.000001 0.000000 0.000000 0.671897
    24 2.686395 -0.427337 0.044204 0.006330 0.043192 0.122300
    25 1.435260 0.000000 0.000001 0.000000 0.000000 1.186618
    26 1.482593 0.000000 -0.000001 0.000000 0.000000 1.404984
    27 2.046984 0.000001 0.000000 0.488474 -0.600543 0.153280
    28 -0.000005 0.000007 3.713254 -0.110891 -3.078815 5.833411
    29 18.045723 0.000000 0.000000 0.000000 0.000000 -0.420205
    30 17.597597 0.000000 0.000000 -0.064677 -0.000725 -0.028572
    31 0.000005 -0.000003 -3.713254 0.554780 2.998522 6.251499
    32 18.045721 0.000000 0.000000 0.000000 0.000000 -0.553023
    33 17.597597 0.000000 0.000000 0.062907 0.096930 0.452006
  time 20
    0 0.407228 3.051025 1.540585 0.000000 0.000000 -1.571017
    1 -0.023442 -0.062502 0.000000 -1.570795 -1.570787 0.000000
    2 1.293670 0.684478 -0.000001 -0.001469 0.008592 -0.060340
    3 5.309685 -0.003834 0.000000 -0.207625 -0.084875 0.084726
    4 4.826790 -0.004591 0.000000 -0.187692 0.061745 0.118740
    5 5.792767 -0.005304 0.000000 -0.260372 -0.009815 0.164673
    6 6.662322 -0.001452 0.000000 -0.004183 0.368161 0.385641
    7 -4.569170 1.239471 2.898175 0.120388 -0.908207 -3.675137
    8 4.827512 0.000000 -0.000002 -0.796695 0.814698 -1.015137
    9 11.140032 0.000000 0.000000 0.000000 0.000000 -0.719000
    10 10.314563 -0.000001 0.000001 -3.082666 0.529998 0.297008
    11 1.646836 0.445664 -1.699647 0.993049 1.047208 -0.378175
    12 0.928312 0.000000 0.000000 0.000000 0.000000 1.029733
    13 0.928313 0.000000 -0.000001 0.000000 0.000000 0.410081
    14 2.979373 -0.388274 -0.044205 -0.287441 -0.079085 0.688066
    15 1.435262 -0.000001 -0.000001 0.000000 0.000000 1.378619
    16 1.482593 -0.000001 0.000001 0.000000 0.000000 0.495031
    17 -1.299539 1.180910 -4.921670 3.461240 1.332622 -0.075432
    18 4.972047 0.000000 0.000000 -0.116733 -1.041621 -0.918914
    19 11.585358 0.000000 0.000001 0.000000 0.000000 -1.849867
    20 10.127058 0.000000 0.000001 2.041336 0.067141 1.010137
    21 1.537458 0.109715 1.664489 -3.078535 -0.186288 0.914916
    22 0.928313 0.000000 0.000002 0.000000 0.000000 0.061034
    23 0.928311 0.000000 0.000001 0.000000 0.000000 0.671897
    24 2.686395 -0.427337 0.044204 0.006330 0.043192 0.122300
    25 1.435260 0.000000 0.000001 0.000000 0.000000 1.186618
    26 1.482593 0.000000 -0.000001 0.000000 0.000000 1.404984
    27 2.046984 0.000001 0.000000 0.487268 -0.600602 0.155896
    28 -0.000005 0.000007 3.713254 -0.111178 -3.081500 5.833411
    29 18.045723 0.000000 0.000000 0.000000 0.000000 -0.414728
    30 17.597597 0.000000 0.000000 -0.065691 0.001711 -0.033752
    31 0.000005 -0.000003 -3.713254 0.554109 2.995263 6.246993
    32 18.045721 0.000000 0.000000 0.000000 0.000000 -0.556880
    33 17.597597 0.000000 0.000000 0.062940 0.097403 0.450390
end
