version 1
nodes
  0 "Bip01" -1
  1 "Bip01 Pelvis" 0
  2 "Bip01 Spine" 1
  3 "Bip01 Spine1" 2
  4 "Bip01 Spine2" 3
  5 "Bip01 Spine3" 4
  6 "Bip01 Neck" 5
  7 "Bip01 L Arm" 6
  8 "Bip01 L Arm1" 7
  9 "Bip01 L Arm2" 8
  10 "Bip01 L Hand" 9
  11 "Bip01 L Finger0" 10
  12 "Bip01 L Finger01" 11
  13 "Bip01 L Finger02" 12
  14 "Bip01 L Finger1" 10
  15 "Bip01 L Finger11" 14
  16 "Bip01 L Finger12" 15
  17 "Bip01 R Arm" 6
  18 "Bip01 R Arm1" 17
  19 "Bip01 R Arm2" 18
  20 "Bip01 R Hand" 19
  21 "Bip01 R Finger0" 20
  22 "Bip01 R Finger01" 21
  23 "Bip01 R Finger02" 22
  24 "Bip01 R Finger1" 20
  25 "Bip01 R Finger11" 24
  26 "Bip01 R Finger12" 25
  27 "Bip01 Head" 6
  28 "Bip01 L Leg" 1
  29 "Bip01 L Leg1" 28
  30 "Bip01 L Foot" 29
  31 "Bip01 R Leg" 1
  32 "Bip01 R Leg1" 31
  33 "Bip01 R Foot" 32
end
skeleton
  time 0
    0 0.157220 3.636981 1.540585 0.000000 0.000000 -1.571017
    1 0.992214 -0.253914 0.000000 -1.570795 -1.570787 0.000000
    2 1.293670 0.684478 -0.000001 0.000266 0.025358 0.010374
    3 5.309685 -0.003834 0.000000 -0.073616 -0.036146 -0.007902
    4 4.826790 -0.004591 0.000000 -0.072158 -0.017042 -0.196087
    5 5.792767 -0.005304 0.000000 -0.109042 0.070673 -0.155157
    6 6.662322 -0.001452 0.000000 0.004698 0.139666 0.354824
    7 -3.108188 1.516823 4.339626 1.238993 -1.024532 -4.799756
    8 4.827512 0.000000 -0.000002 -0.448332 -0.129708 -1.025188
    9 11.140032 0.000000 0.000000 0.070821 -0.105579 -0.701031
    10 10.314563 -0.000001 0.000001 -3.988822 0.203081 -0.504208
    11 1.646836 0.445664 -1.699647 -0.161704 0.581044 -0.283978
    12 0.928312 0.000000 0.000000 0.000000 0.000000 0.000000
    13 0.928313 0.000000 -0.000001 0.000000 0.000000 0.000000
    14 2.979373 -0.388274 -0.044205 -0.000805 -0.043611 0.000046
    15 1.435262 -0.000001 -0.000001 0.000000 0.000000 0.872146
    16 1.482593 -0.000001 0.000001 0.000000 0.000000 0.907041
    17 -2.869899 1.399667 -4.140396 -1.163265 1.764468 -4.903713
    18 4.972047 0.000000 0.000000 1.143169 -0.508663 -1.754117
    19 11.585358 0.000000 0.000001 0.386603 -0.383573 -1.601969
    20 10.127058 0.000000 0.000001 1.960763 0.596700 0.774136
    21 1.537458 0.109715 1.664489 -0.264662 -0.055995 0.783079
    22 0.928313 0.000000 0.000002 0.000000 0.000000 -0.453501
    23 0.928311 0.000000 0.000001 0.000000 0.000000 0.000000
    24 2.686395 -0.427337 0.044204 -0.005762 0.043239 -0.157074
    25 1.435260 0.000000 0.000001 0.000000 0.000000 0.732613
    26 1.482593 0.000000 -0.000001 0.000000 0.000000 1.168644
    27 2.046984 0.000001 0.000000 0.224290 0.419126 -0.350990
    28 -0.000005 0.000007 3.713254 -0.108302 -3.067502 5.834370
    29 18.045723 0.000000 0.000000 0.000000 0.000000 -0.437229
    30 17.597597 0.000000 0.000000 -0.062219 -0.012021 -0.011838
    31 0.000005 -0.000003 -3.713254 0.557847 3.012710 -0.015293
    32 18.045721 0.000000 0.000000 0.000000 0.000000 -0.537909
    33 17.597597 0.000000 0.000000 0.062403 0.093360 0.458196
  time 1
    0 0.157220 3.636981 1.540585 0.000000 0.000000 -1.571017
    1 1.023465 -0.261727 0.000000 -1.570795 -1.570787 0.000000
    2 1.293670 0.684478 -0.000001 0.000266 0.025358 0.010374
    3 5.309685 -0.003834 0.000000 -0.074075 -0.034504 -0.002232
    4 4.826790 -0.004591 0.000000 -0.070327 -0.018420 -0.210727
    5 5.792767 -0.005304 0.000000 -0.108394 0.067665 -0.172349
    6 6.662322 -0.001452 0.000000 0.004698 0.139666 0.354824
    7 -3.108188 1.516823 4.339626 1.238993 -1.024532 -4.799756
    8 4.827512 0.000000 -0.000002 -0.443389 -0.106855 -1.028828
    9 11.140032 0.000000 0.000000 0.070821 -0.102708 -0.678643
    10 10.314563 -0.000001 0.000001 -3.988822 0.203081 -0.504208
    11 1.646836 0.445664 -1.699647 -0.161704 0.581044 -0.283978
    12 0.928312 0.000000 0.000000 0.000000 0.000000 0.000000
    13 0.928313 0.000000 -0.000001 0.000000 0.000000 0.000000
    14 2.979373 -0.388274 -0.044205 -0.000805 -0.043611 0.000046
    15 1.435262 -0.000001 -0.000001 0.000000 0.000000 0.872146
    16 1.482593 -0.000001 0.000001 0.000000 0.000000 0.907041
    17 -2.869899 1.399667 -4.140396 -1.167086 1.765730 -4.907736
    18 4.972047 0.000000 0.000000 1.131538 -0.525456 -1.750190
    19 11.585358 0.000000 0.000001 0.386603 -0.383732 -1.593147
    20 10.127058 0.000000 0.000001 1.963428 0.597362 0.774786
    21 1.537458 0.109715 1.664489 -0.264662 -0.055995 0.783079
    22 0.928313 0.000000 0.000002 0.000000 0.000000 -0.453501
    23 0.928311 0.000000 0.000001 0.000000 0.000000 0.000000
    24 2.686395 -0.427337 0.044204 -0.005762 0.043239 -0.157074
    25 1.435260 0.000000 0.000001 0.000000 0.000000 0.732613
    26 1.482593 0.000000 -0.000001 0.000000 0.000000 1.168644
    27 2.046984 0.000001 0.000000 0.221619 0.418270 -0.324712
    28 -0.000005 0.000007 3.713254 -0.108302 -3.067215 5.834370
    29 18.045723 0.000000 0.000000 0.000000 0.000000 -0.439005
    30 17.597597 0.000000 0.000000 -0.062143 -0.012292 -0.010050
    31 0.000005 -0.000003 -3.713254 0.557943 3.013286 -0.013855
    32 18.045721 0.000000 0.000000 0.000000 0.000000 -0.536492
    33 17.597597 0.000000 0.000000 0.062437 0.093695 0.458288
  time 2
    0 0.157220 3.636981 1.540585 0.000000 0.000000 -1.571017
    1 1.054716 -0.261727 0.000000 -1.570795 -1.570787 0.000000
    2 1.293670 0.684478 -0.000001 0.000266 0.025358 0.010374
    3 5.309685 -0.003834 0.000000 -0.074569 -0.032754 0.003844
    4 4.826790 -0.004591 0.000000 -0.068286 -0.019858 -0.226426
    5 5.792767 -0.005304 0.000000 -0.107711 0.064513 -0.190163
    6 6.662322 -0.001452 0.000000 0.004698 0.139666 0.354824
    7 -3.108188 1.516823 4.339626 1.238993 -1.024532 -4.799756
    8 4.827512 0.000000 -0.000002 -0.438367 -0.080505 -1.032294
    9 11.140032 0.000000 0.000000 0.070821 -0.100087 -0.658718
    10 10.314563 -0.000001 0.000001 -3.988822 0.203081 -0.504208
    11 1.646836 0.445664 -1.699647 -0.161704 0.581044 -0.283978
    12 0.928312 0.000000 0.000000 0.000000 0.000000 0.000000
    13 0.928313 0.000000 -0.000001 0.000000 0.000000 0.000000
    14 2.979373 -0.388274 -0.044205 -0.000805 -0.043611 0.000046
    15 1.435262 -0.000001 -0.000001 0.000000 0.000000 0.872146
    16 1.482593 -0.000001 0.000001 0.000000 0.000000 0.907041
    17 -2.869899 1.399667 -4.140396 -1.163265 1.764468 -4.903713
    18 4.972047 0.000000 0.000000 1.115780 -0.546106 -1.740274
    19 11.585358 0.000000 0.000001 0.386603 -0.383823 -1.588900
    20 10.127058 0.000000 0.000001 1.970510 0.598875 0.776436
    21 1.537458 0.109715 1.664489 -0.264662 -0.055995 0.783079
    22 0.928313 0.000000 0.000002 0.000000 0.000000 -0.453501
    23 0.928311 0.000000 0.000001 0.000000 0.000000 0.000000
    24 2.686395 -0.427337 0.044204 -0.005762 0.043239 -0.157074
    25 1.435260 0.000000 0.000001 0.000000 0.000000 0.732613
    26 1.482593 0.000000 -0.000001 0.000000 0.000000 1.168644
    27 2.046984 0.000001 0.000000 0.218861 0.417385 -0.297096
    28 -0.000005 0.000007 3.713254 -0.108206 -3.066927 5.834370
    29 18.045723 0.000000 0.000000 0.000000 0.000000 -0.440781
    30 17.597597 0.000000 0.000000 -0.062118 -0.012587 -0.008307
    31 0.000005 -0.000003 -3.713254 0.558135 3.013861 -0.012321
    32 18.045721 0.000000 0.000000 0.000000 0.000000 -0.535154
    33 17.597597 0.000000 0.000000 0.062437 0.094050 0.458473
  time 3
    0 0.157220 3.636981 1.540585 0.000000 0.000000 -1.571017
    1 1.085967 -0.273446 0.000000 -1.570795 -1.570787 0.000000
    2 1.293670 0.684478 -0.000001 0.000266 0.025358 0.010374
    3 5.309685 -0.003834 0.000000 -0.075028 -0.030968 0.009903
    4 4.826790 -0.004591 0.000000 -0.066321 -0.021213 -0.241551
    5 5.792767 -0.005304 0.000000 -0.106955 0.061445 -0.207687
    6 6.662322 -0.001452 0.000000 0.007023 0.143047 0.396948
    7 -3.057405 1.653546 4.331813 1.231708 -1.022580 -4.835592
    8 4.827512 0.000000 -0.000002 -0.433584 -0.052791 -1.032554
    9 11.140032 0.000000 0.000000 0.070821 -0.098514 -0.646474
    10 10.314563 -0.000001 0.000001 -3.988822 0.203081 -0.504208
    11 1.646836 0.445664 -1.699647 -0.161704 0.581044 -0.283978
    12 0.928312 0.000000 0.000000 0.000000 0.000000 0.000000
    13 0.928313 0.000000 -0.000001 0.000000 0.000000 0.000000
    14 2.979373 -0.388274 -0.044205 -0.000805 -0.043611 0.000046
    15 1.435262 -0.000001 -0.000001 0.000000 0.000000 0.872146
    16 1.482593 -0.000001 0.000001 0.000000 0.000000 0.907041
    17 -2.799584 1.501233 -4.148209 -1.132313 1.755477 -4.914440
    18 4.972047 0.000000 0.000000 1.094206 -0.569166 -1.717645
    19 11.585358 0.000000 0.000001 0.386603 -0.383777 -1.590942
    20 10.127058 0.000000 0.000001 1.980538 0.601144 0.778737
    21 1.537458 0.109715 1.664489 -0.264662 -0.055995 0.783079
    22 0.928313 0.000000 0.000002 0.000000 0.000000 -0.453501
    23 0.928311 0.000000 0.000001 0.000000 0.000000 0.000000
    24 2.686395 -0.427337 0.044204 -0.005762 0.043239 -0.157074
    25 1.435260 0.000000 0.000001 0.000000 0.000000 0.732613
    26 1.482593 0.000000 -0.000001 0.000000 0.000000 1.168644
    27 2.046984 0.000001 0.000000 0.214079 0.415910 -0.321245
    28 -0.000005 0.000007 3.713254 -0.108110 -3.066735 5.834370
    29 18.045723 0.000000 0.000000 0.000000 0.000000 -0.442558
    30 17.597597 0.000000 0.000000 -0.062067 -0.012858 -0.006611
    31 0.000005 -0.000003 -3.713254 0.558230 3.014340 -0.010883
    32 18.045721 0.000000 0.000000 0.000000 0.000000 -0.533737
    33 17.597597 0.000000 0.000000 0.062504 0.094366 0.458565
  time 4
    0 0.157220 3.636981 1.540585 0.000000 0.000000 -1.571017
    1 1.109405 -0.273446 0.000000 -1.570795 -1.570787 0.000000
    2 1.293670 0.684478 -0.000001 0.000266 0.025358 0.010374
    3 5.309685 -0.003834 0.000000 -0.075437 -0.029314 0.015573
    4 4.826790 -0.004591 0.000000 -0.064624 -0.022363 -0.254559
    5 5.792767 -0.005304 0.000000 -0.106236 0.058689 -0.223965
    6 6.662322 -0.001452 0.000000 0.009492 0.146332 0.439129
    7 -3.006622 1.790269 4.312281 1.224519 -1.020747 -4.871237
    8 4.827512 0.000000 -0.000002 -0.429280 -0.027124 -1.030734
    9 11.140032 0.000000 0.000000 0.070821 -0.097765 -0.640677
    10 10.314563 -0.000001 0.000001 -3.988822 0.203081 -0.504208
    11 1.646836 0.445664 -1.699647 -0.161704 0.581044 -0.283978
    12 0.928312 0.000000 0.000000 0.000000 0.000000 0.000000
    13 0.928313 0.000000 -0.000001 0.000000 0.000000 0.000000
    14 2.979373 -0.388274 -0.044205 -0.000805 -0.043611 0.000046
    15 1.435262 -0.000001 -0.000001 0.000000 0.000000 0.872146
    16 1.482593 -0.000001 0.000001 0.000000 0.000000 0.907041
    17 -2.721457 1.606705 -4.163834 -1.094673 1.745303 -4.918176
    18 4.972047 0.000000 0.000000 1.071789 -0.590941 -1.692753
    19 11.585358 0.000000 0.000001 0.386603 -0.383686 -1.596088
    20 10.127058 0.000000 0.000001 1.991968 0.603697 0.781389
    21 1.537458 0.109715 1.664489 -0.264662 -0.055995 0.783079
    22 0.928313 0.000000 0.000002 0.000000 0.000000 -0.453501
    23 0.928311 0.000000 0.000001 0.000000 0.000000 0.000000
    24 2.686395 -0.427337 0.044204 -0.005762 0.043239 -0.157074
    25 1.435260 0.000000 0.000001 0.000000 0.000000 0.732613
    26 1.482593 0.000000 -0.000001 0.000000 0.000000 1.168644
    27 2.046984 0.000001 0.000000 0.209685 0.414553 -0.348435
    28 -0.000005 0.000007 3.713254 -0.108110 -3.066544 5.834370
    29 18.045723 0.000000 0.000000 0.000000 0.000000 -0.443964
    30 17.597597 0.000000 0.000000 -0.062017 -0.013030 -0.005236
    31 0.000005 -0.000003 -3.713254 0.558422 3.014724 -0.009637
    32 18.045721 0.000000 0.000000 0.000000 0.000000 -0.532556
    33 17.597597 0.000000 0.000000 0.062504 0.094642 0.458657
  time 5
    0 0.157220 3.636981 1.540585 0.000000 0.000000 -1.571017
    1 1.128937 -0.273446 0.000000 -1.570795 -1.570787 0.000000
    2 1.293670 0.684478 -0.000001 0.000266 0.025358 0.010374
    3 5.309685 -0.003834 0.000000 -0.075794 -0.027900 0.020412
    4 4.826790 -0.004591 0.000000 -0.063422 -0.023154 -0.263776
    5 5.792767 -0.005304 0.000000 -0.105570 0.056471 -0.238042
    6 6.662322 -0.001452 0.000000 0.012092 0.149507 0.481282
    7 -2.940214 1.919179 4.300562 1.217139 -1.019032 -4.906785
    8 4.827512 0.000000 -0.000002 -0.424736 -0.003076 -1.025362
    9 11.140032 0.000000 0.000000 0.070821 -0.098439 -0.646039
    10 10.314563 -0.000001 0.000001 -3.988822 0.203081 -0.504208
    11 1.646836 0.445664 -1.699647 -0.161704 0.581044 -0.283978
    12 0.928312 0.000000 0.000000 0.000000 0.000000 0.000000
    13 0.928313 0.000000 -0.000001 0.000000 0.000000 0.000000
    14 2.979373 -0.388274 -0.044205 -0.000805 -0.043611 0.000046
    15 1.435262 -0.000001 -0.000001 0.000000 0.000000 0.872146
    16 1.482593 -0.000001 0.000001 0.000000 0.000000 0.907041
    17 -2.639423 1.712177 -4.171647 -1.051684 1.734813 -4.916643
    18 4.972047 0.000000 0.000000 1.048902 -0.610787 -1.666331
    19 11.585358 0.000000 0.000001 0.386603 -0.383505 -1.605808
    20 10.127058 0.000000 0.000001 2.003469 0.606251 0.784090
    21 1.537458 0.109715 1.664489 -0.264662 -0.055995 0.783079
    22 0.928313 0.000000 0.000002 0.000000 0.000000 -0.453501
    23 0.928311 0.000000 0.000001 0.000000 0.000000 0.000000
    24 2.686395 -0.427337 0.044204 -0.005762 0.043239 -0.157074
    25 1.435260 0.000000 0.000001 0.000000 0.000000 0.732613
    26 1.482593 0.000000 -0.000001 0.000000 0.000000 1.168644
    27 2.046984 0.000001 0.000000 0.206023 0.413225 -0.380857
    28 -0.000005 0.000007 3.713254 -0.108110 -3.066352 5.834370
    29 18.045723 0.000000 0.000000 0.000000 0.000000 -0.444778
    30 17.597597 0.000000 0.000000 -0.062017 -0.013178 -0.004456
    31 0.000005 -0.000003 -3.713254 0.558422 3.015011 -0.008966
    32 18.045721 0.000000 0.000000 0.000000 0.000000 -0.532005
    33 17.597597 0.000000 0.000000 0.062504 0.094839 0.458657
  time 6
    0 0.157220 3.636981 1.540585 0.000000 0.000000 -1.571017
    1 1.140656 -0.281259 0.000000 -1.570795 -1.570787 0.000000
    2 1.293670 0.684478 -0.000001 0.000266 0.025358 0.010374
    3 5.309685 -0.003834 0.000000 -0.076066 -0.026833 0.024087
    4 4.826790 -0.004591 0.000000 -0.062678 -0.023610 -0.269199
    5 5.792767 -0.005304 0.000000 -0.104922 0.054734 -0.251600
    6 6.662322 -0.001452 0.000000 0.014849 0.152572 0.523463
    7 -2.869899 2.055902 4.288843 1.209662 -1.017495 -4.942238
    8 4.827512 0.000000 -0.000002 -0.420750 0.017645 -1.020163
    9 11.140032 0.000000 0.000000 0.070821 -0.099238 -0.652125
    10 10.314563 -0.000001 0.000001 -3.988822 0.203081 -0.504208
    11 1.646836 0.445664 -1.699647 -0.161704 0.581044 -0.283978
    12 0.928312 0.000000 0.000000 0.000000 0.000000 0.000000
    13 0.928313 0.000000 -0.000001 0.000000 0.000000 0.000000
    14 2.979373 -0.388274 -0.044205 -0.000805 -0.043611 0.000046
    15 1.435262 -0.000001 -0.000001 0.000000 0.000000 0.872146
    16 1.482593 -0.000001 0.000001 0.000000 0.000000 0.907041
    17 -2.545670 1.809836 -4.187273 -1.006402 1.724980 -4.913004
    18 4.972047 0.000000 0.000000 1.028360 -0.627339 -1.642304
    19 11.585358 0.000000 0.000001 0.386603 -0.383346 -1.613077
    20 10.127058 0.000000 0.000001 2.013496 0.608520 0.786391
    21 1.537458 0.109715 1.664489 -0.264662 -0.055995 0.783079
    22 0.928313 0.000000 0.000002 0.000000 0.000000 -0.453501
    23 0.928311 0.000000 0.000001 0.000000 0.000000 0.000000
    24 2.686395 -0.427337 0.044204 -0.005762 0.043239 -0.157074
    25 1.435260 0.000000 0.000001 0.000000 0.000000 0.732613
    26 1.482593 0.000000 -0.000001 0.000000 0.000000 1.168644
    27 2.046984 0.000001 0.000000 0.202964 0.411927 -0.416442
    28 -0.000005 0.000007 3.713254 -0.108110 -3.066352 5.834370
    29 18.045723 0.000000 0.000000 0.000000 0.000000 -0.445296
    30 17.597597 0.000000 0.000000 -0.062017 -0.013252 -0.003906
    31 0.000005 -0.000003 -3.713254 0.558518 3.015107 -0.008486
    32 18.045721 0.000000 0.000000 0.000000 0.000000 -0.531454
    33 17.597597 0.000000 0.000000 0.062470 0.094938 0.458704
  time 7
    0 0.157220 3.636981 1.540585 0.000000 0.000000 -1.571017
    1 1.140656 -0.281259 0.000000 -1.570795 -1.570787 0.000000
    2 1.293670 0.684478 -0.000001 0.000266 0.025358 0.010374
    3 5.309685 -0.003834 0.000000 -0.076253 -0.026114 0.026559
    4 4.826790 -0.004591 0.000000 -0.062335 -0.023849 -0.271911
    5 5.792767 -0.005304 0.000000 -0.104365 0.053475 -0.264099
    6 6.662322 -0.001452 0.000000 0.017701 0.155527 0.565701
    7 -2.799584 2.180906 4.269311 1.202090 -1.016046 -4.977499
    8 4.827512 0.000000 -0.000002 -0.417322 0.033932 -1.014444
    9 11.140032 0.000000 0.000000 0.070821 -0.100162 -0.659153
    10 10.314563 -0.000001 0.000001 -3.988822 0.203081 -0.504208
    11 1.646836 0.445664 -1.699647 -0.161704 0.581044 -0.283978
    12 0.928312 0.000000 0.000000 0.000000 0.000000 0.000000
    13 0.928313 0.000000 -0.000001 0.000000 0.000000 0.000000
    14 2.979373 -0.388274 -0.044205 -0.000805 -0.043611 0.000046
    15 1.435262 -0.000001 -0.000001 0.000000 0.000000 0.872146
    16 1.482593 -0.000001 0.000001 0.000000 0.000000 0.907041
    17 -2.455824 1.907495 -4.198992 -0.963030 1.716383 -4.910992
    18 4.972047 0.000000 0.000000 1.010444 -0.640597 -1.620674
    19 11.585358 0.000000 0.000001 0.386603 -0.383187 -1.620918
    20 10.127058 0.000000 0.000001 2.020509 0.610128 0.788041
    21 1.537458 0.109715 1.664489 -0.264662 -0.055995 0.783079
    22 0.928313 0.000000 0.000002 0.000000 0.000000 -0.453501
    23 0.928311 0.000000 0.000001 0.000000 0.000000 0.000000
    24 2.686395 -0.427337 0.044204 -0.005762 0.043239 -0.157074
    25 1.435260 0.000000 0.000001 0.000000 0.000000 0.732613
    26 1.482593 0.000000 -0.000001 0.000000 0.000000 1.168644
    27 2.046984 0.000001 0.000000 0.200422 0.410511 -0.454764
    28 -0.000005 0.000007 3.713254 -0.108015 -3.066256 5.834370
    29 18.045723 0.000000 0.000000 0.000000 0.000000 -0.445666
    30 17.597597 0.000000 0.000000 -0.062017 -0.013325 -0.003539
    31 0.000005 -0.000003 -3.713254 0.558518 3.015203 -0.008199
    32 18.045721 0.000000 0.000000 0.000000 0.000000 -0.531218
    33 17.597597 0.000000 0.000000 0.062437 0.095037 0.458750
  time 8
    0 0.157220 3.636981 1.540585 0.000000 0.000000 -1.571017
    1 1.140656 -0.281259 0.000000 -1.570795 -1.570787 0.000000
    2 1.293670 0.684478 -0.000001 0.000266 0.025358 0.010374
    3 5.309685 -0.003834 0.000000 -0.076373 -0.025695 0.028078
    4 4.826790 -0.004591 0.000000 -0.062335 -0.023849 -0.271911
    5 5.792767 -0.005304 0.000000 -0.104023 0.053020 -0.271366
    6 6.662322 -0.001452 0.000000 0.017701 0.155527 0.565701
    7 -2.799584 2.180906 4.269311 1.202090 -1.016046 -4.977499
    8 4.827512 0.000000 -0.000002 -0.415090 0.042715 -1.010025
    9 11.140032 0.000000 0.000000 0.070821 -0.101061 -0.666036
    10 10.314563 -0.000001 0.000001 -3.988822 0.203081 -0.504208
    11 1.646836 0.445664 -1.699647 -0.161704 0.581044 -0.283978
    12 0.928312 0.000000 0.000000 0.000000 0.000000 0.000000
    13 0.928313 0.000000 -0.000001 0.000000 0.000000 0.000000
    14 2.979373 -0.388274 -0.044205 -0.000805 -0.043611 0.000046
    15 1.435262 -0.000001 -0.000001 0.000000 0.000000 0.872146
    16 1.482593 -0.000001 0.000001 0.000000 0.000000 0.907041
    17 -2.455824 1.903589 -4.198992 -0.940580 1.712571 -4.888101
    18 4.972047 0.000000 0.000000 1.002847 -0.645980 -1.611755
    19 11.585358 0.000000 0.000001 0.386603 -0.383119 -1.624594
    20 10.127058 0.000000 0.000001 2.023244 0.610695 0.788692
    21 1.537458 0.109715 1.664489 -0.264662 -0.055995 0.783079
    22 0.928313 0.000000 0.000002 0.000000 0.000000 -0.453501
    23 0.928311 0.000000 0.000001 0.000000 0.000000 0.000000
    24 2.686395 -0.427337 0.044204 -0.005762 0.043239 -0.157074
    25 1.435260 0.000000 0.000001 0.000000 0.000000 0.732613
    26 1.482593 0.000000 -0.000001 0.000000 0.000000 1.168644
    27 2.046984 0.000001 0.000000 0.200379 0.407118 -0.439739
    28 -0.000005 0.000007 3.713254 -0.108015 -3.066256 5.834370
    29 18.045723 0.000000 0.000000 0.000000 0.000000 -0.445666
    30 17.597597 0.000000 0.000000 -0.062017 -0.013325 -0.003539
    31 0.000005 -0.000003 -3.713254 0.558710 3.015203 -0.008199
    32 18.045721 0.000000 0.000000 0.000000 0.000000 -0.531218
    33 17.597597 0.000000 0.000000 0.062437 0.094997 0.458750
  time 9
    0 0.157220 3.636981 1.540585 0.000000 0.000000 -1.571017
    1 1.128937 -0.273446 0.000000 -1.570795 -1.570787 0.000000
    2 1.293670 0.684478 -0.000001 0.000266 0.025358 0.010374
    3 5.309685 -0.003834 0.000000 -0.076390 -0.025587 0.028326
    4 4.826790 -0.004591 0.000000 -0.062678 -0.023610 -0.269199
    5 5.792767 -0.005304 0.000000 -0.104185 0.053727 -0.269186
    6 6.662322 -0.001452 0.000000 0.017701 0.155527 0.565701
    7 -2.799584 2.180906 4.269311 1.202090 -1.016046 -4.977499
    8 4.827512 0.000000 -0.000002 -0.414771 0.038963 -1.006905
    9 11.140032 0.000000 0.000000 0.070821 -0.102234 -0.675093
    10 10.314563 -0.000001 0.000001 -3.988822 0.203081 -0.504208
    11 1.646836 0.445664 -1.699647 -0.161704 0.581044 -0.283978
    12 0.928312 0.000000 0.000000 0.000000 0.000000 0.000000
    13 0.928313 0.000000 -0.000001 0.000000 0.000000 0.000000
    14 2.979373 -0.388274 -0.044205 -0.000805 -0.043611 0.000046
    15 1.435262 -0.000001 -0.000001 0.000000 0.000000 0.872146
    16 1.482593 -0.000001 0.000001 0.000000 0.000000 0.907041
    17 -2.455824 1.907495 -4.198992 -0.926155 1.710336 -4.873446
    18 4.972047 0.000000 0.000000 1.004347 -0.642445 -1.609892
    19 11.585358 0.000000 0.000001 0.386603 -0.383051 -1.627943
    20 10.127058 0.000000 0.000001 2.021981 0.610412 0.788392
    21 1.537458 0.109715 1.664489 -0.264662 -0.055995 0.783079
    22 0.928313 0.000000 0.000002 0.000000 0.000000 -0.453501
    23 0.928311 0.000000 0.000001 0.000000 0.000000 0.000000
    24 2.686395 -0.427337 0.044204 -0.005762 0.043239 -0.157074
    25 1.435260 0.000000 0.000001 0.000000 0.000000 0.732613
    26 1.482593 0.000000 -0.000001 0.000000 0.000000 1.168644
    27 2.046984 0.000001 0.000000 0.201240 0.403961 -0.435664
    28 -0.000005 0.000007 3.713254 -0.108015 -3.066352 5.834370
    29 18.045723 0.000000 0.000000 0.000000 0.000000 -0.445000
    30 17.597597 0.000000 0.000000 -0.062067 -0.013227 -0.004227
    31 0.000005 -0.000003 -3.713254 0.558710 3.015011 -0.008774
    32 18.045721 0.000000 0.000000 0.000000 0.000000 -0.531769
    33 17.597597 0.000000 0.000000 0.062336 0.094918 0.458657
  time 10
    0 0.157220 3.636981 1.540585 0.000000 0.000000 -1.571017
    1 1.109405 -0.273446 0.000000 -1.570795 -1.570787 0.000000
    2 1.293670 0.684478 -0.000001 0.000266 0.025358 0.010374
    3 5.309685 -0.003834 0.000000 -0.076287 -0.025983 0.027107
    4 4.826790 -0.004591 0.000000 -0.063422 -0.023154 -0.263776
    5 5.792767 -0.005304 0.000000 -0.104832 0.055728 -0.256417
    6 6.662322 -0.001452 0.000000 0.017701 0.155527 0.565701
    7 -2.799584 2.180906 4.269311 1.202090 -1.016046 -4.977499
    8 4.827512 0.000000 -0.000002 -0.416047 0.023529 -1.003699
    9 11.140032 0.000000 0.000000 0.070821 -0.104206 -0.690163
    10 10.314563 -0.000001 0.000001 -3.988822 0.203081 -0.504208
    11 1.646836 0.445664 -1.699647 -0.161704 0.581044 -0.283978
    12 0.928312 0.000000 0.000000 0.000000 0.000000 0.000000
    13 0.928313 0.000000 -0.000001 0.000000 0.000000 0.000000
    14 2.979373 -0.388274 -0.044205 -0.000805 -0.043611 0.000046
    15 1.435262 -0.000001 -0.000001 0.000000 0.000000 0.872146
    16 1.482593 -0.000001 0.000001 0.000000 0.000000 0.907041
    17 -2.451918 1.903589 -4.202898 -0.916506 1.708838 -4.863581
    18 4.972047 0.000000 0.000000 1.013821 -0.630473 -1.613086
    19 11.585358 0.000000 0.000001 0.386603 -0.382960 -1.632844
    20 10.127058 0.000000 0.000001 2.018615 0.609655 0.787591
    21 1.537458 0.109715 1.664489 -0.264662 -0.055995 0.783079
    22 0.928313 0.000000 0.000002 0.000000 0.000000 -0.453501
    23 0.928311 0.000000 0.000001 0.000000 0.000000 0.000000
    24 2.686395 -0.427337 0.044204 -0.005762 0.043239 -0.157074
    25 1.435260 0.000000 0.000001 0.000000 0.000000 0.732613
    26 1.482593 0.000000 -0.000001 0.000000 0.000000 1.168644
    27 2.046984 0.000001 0.000000 0.202964 0.400981 -0.443450
    28 -0.000005 0.000007 3.713254 -0.108110 -3.066639 5.834370
    29 18.045723 0.000000 0.000000 0.000000 0.000000 -0.443816
    30 17.597597 0.000000 0.000000 -0.062143 -0.012956 -0.005373
    31 0.000005 -0.000003 -3.713254 0.558518 3.014532 -0.009829
    32 18.045721 0.000000 0.000000 0.000000 0.000000 -0.532871
    33 17.597597 0.000000 0.000000 0.062269 0.094721 0.458565
  time 11
    0 0.157220 3.636981 1.540585 0.000000 0.000000 -1.571017
    1 1.078154 -0.261727 0.000000 -1.570795 -1.570787 0.000000
    2 1.293670 0.684478 -0.000001 0.000266 0.025358 0.010374
    3 5.309685 -0.003834 0.000000 -0.076066 -0.026833 0.024087
    4 4.826790 -0.004591 0.000000 -0.064757 -0.022267 -0.253501
    5 5.792767 -0.005304 0.000000 -0.105768 0.058629 -0.236817
    6 6.662322 -0.001452 0.000000 0.017701 0.155527 0.565701
    7 -2.799584 2.180906 4.269311 1.202090 -1.016046 -4.977499
    8 4.827512 0.000000 -0.000002 -0.419076 -0.001115 -0.999540
    9 11.140032 0.000000 0.000000 0.070821 -0.106928 -0.712189
    10 10.314563 -0.000001 0.000001 -3.988822 0.203081 -0.504208
    11 1.646836 0.445664 -1.699647 -0.161704 0.581044 -0.283978
    12 0.928312 0.000000 0.000000 0.000000 0.000000 0.000000
    13 0.928313 0.000000 -0.000001 0.000000 0.000000 0.000000
    14 2.979373 -0.388274 -0.044205 -0.000805 -0.043611 0.000046
    15 1.435262 -0.000001 -0.000001 0.000000 0.000000 0.872146
    16 1.482593 -0.000001 0.000001 0.000000 0.000000 0.907041
    17 -2.455824 1.907495 -4.202898 -0.912589 1.708207 -4.859654
    18 4.972047 0.000000 0.000000 1.029861 -0.611832 -1.621140
    19 11.585358 0.000000 0.000001 0.386603 -0.382824 -1.639296
    20 10.127058 0.000000 0.000001 2.013496 0.608520 0.786391
    21 1.537458 0.109715 1.664489 -0.264662 -0.055995 0.783079
    22 0.928313 0.000000 0.000002 0.000000 0.000000 -0.453501
    23 0.928311 0.000000 0.000001 0.000000 0.000000 0.000000
    24 2.686395 -0.427337 0.044204 -0.005762 0.043239 -0.157074
    25 1.435260 0.000000 0.000001 0.000000 0.000000 0.732613
    26 1.482593 0.000000 -0.000001 0.000000 0.000000 1.168644
    27 2.046984 0.000001 0.000000 0.205893 0.398385 -0.461333
    28 -0.000005 0.000007 3.713254 -0.108110 -3.067023 5.834274
    29 18.045723 0.000000 0.000000 0.000000 0.000000 -0.441892
    30 17.597597 0.000000 0.000000 -0.062270 -0.012612 -0.007253
    31 0.000005 -0.000003 -3.713254 0.558422 3.013957 -0.011362
    32 18.045721 0.000000 0.000000 0.000000 0.000000 -0.534288
    33 17.597597 0.000000 0.000000 0.062168 0.094405 0.458380
  time 12
    0 0.157220 3.636981 1.540585 0.000000 0.000000 -1.571017
    1 1.054716 -0.261727 0.000000 -1.570795 -1.570787 0.000000
    2 1.293670 0.684478 -0.000001 0.000266 0.025358 0.010374
    3 5.309685 -0.003834 0.000000 -0.075386 -0.029566 0.014795
    4 4.826790 -0.004591 0.000000 -0.066760 -0.020925 -0.238310
    5 5.792767 -0.005304 0.000000 -0.106775 0.062032 -0.213708
    6 6.662322 -0.001452 0.000000 0.017701 0.155527 0.565701
    7 -2.799584 2.180906 4.269311 1.202090 -1.016046 -4.977499
    8 4.827512 0.000000 -0.000002 -0.424576 -0.030449 -0.999627
    9 11.140032 0.000000 0.000000 0.070821 -0.108401 -0.724289
    10 10.314563 -0.000001 0.000001 -3.988822 0.203081 -0.504208
    11 1.646836 0.445664 -1.699647 -0.161704 0.581044 -0.283978
    12 0.928312 0.000000 0.000000 0.000000 0.000000 0.000000
    13 0.928313 0.000000 -0.000001 0.000000 0.000000 0.000000
    14 2.979373 -0.388274 -0.044205 -0.000805 -0.043611 0.000046
    15 1.435262 -0.000001 -0.000001 0.000000 0.000000 0.872146
    16 1.482593 -0.000001 0.000001 0.000000 0.000000 0.907041
    17 -2.455824 1.903589 -4.202898 -0.914978 1.708601 -4.862049
    18 4.972047 0.000000 0.000000 1.049558 -0.590378 -1.633253
    19 11.585358 0.000000 0.000001 0.386603 -0.382779 -1.641583
    20 10.127058 0.000000 0.000001 2.007045 0.607102 0.784890
    21 1.537458 0.109715 1.664489 -0.264662 -0.055995 0.783079
    22 0.928313 0.000000 0.000002 0.000000 0.000000 -0.453501
    23 0.928311 0.000000 0.000001 0.000000 0.000000 0.000000
    24 2.686395 -0.427337 0.044204 -0.005762 0.043239 -0.157074
    25 1.435260 0.000000 0.000001 0.000000 0.000000 0.732613
    26 1.482593 0.000000 -0.000001 0.000000 0.000000 1.168644
    27 2.046984 0.000001 0.000000 0.209641 0.396231 -0.481224
    28 -0.000005 0.000007 3.713254 -0.108110 -3.067119 5.834370
    29 18.045723 0.000000 0.000000 0.000000 0.000000 -0.440781
    30 17.597597 0.000000 0.000000 -0.062295 -0.012513 -0.008307
    31 0.000005 -0.000003 -3.713254 0.558422 3.013669 -0.012321
    32 18.045721 0.000000 0.000000 0.000000 0.000000 -0.535154
    33 17.597597 0.000000 0.000000 0.062101 0.094188 0.458380
  time 13
    0 0.157220 3.636981 1.540585 0.000000 0.000000 -1.571017
    1 1.058622 -0.261727 0.000000 -1.570795 -1.570787 0.000000
    2 1.293670 0.684478 -0.000001 0.000266 0.025358 0.010374
    3 5.309685 -0.003834 0.000000 -0.074348 -0.033545 0.001071
    4 4.826790 -0.004591 0.000000 -0.068916 -0.019403 -0.221553
    5 5.792767 -0.005304 0.000000 -0.107747 0.065472 -0.190246
    6 6.662322 -0.001452 0.000000 0.014849 0.152572 0.523463
    7 -2.869899 2.055902 4.288843 1.209662 -1.017495 -4.942238
    8 4.827512 0.000000 -0.000002 -0.431193 -0.059272 -1.005345
    9 11.140032 0.000000 0.000000 0.070821 -0.108276 -0.723347
    10 10.314563 -0.000001 0.000001 -3.988822 0.203081 -0.504208
    11 1.646836 0.445664 -1.699647 -0.161704 0.581044 -0.283978
    12 0.928312 0.000000 0.000000 0.000000 0.000000 0.000000
    13 0.928313 0.000000 -0.000001 0.000000 0.000000 0.000000
    14 2.979373 -0.388274 -0.044205 -0.000805 -0.043611 0.000046
    15 1.435262 -0.000001 -0.000001 0.000000 0.000000 0.872146
    16 1.482593 -0.000001 0.000001 0.000000 0.000000 0.907041
    17 -2.549577 1.805929 -4.187273 -0.939147 1.712781 -4.844138
    18 4.972047 0.000000 0.000000 1.071601 -0.568363 -1.650956
    19 11.585358 0.000000 0.000001 0.386603 -0.382847 -1.638480
    20 10.127058 0.000000 0.000001 1.999752 0.605494 0.783189
    21 1.537458 0.109715 1.664489 -0.264662 -0.055995 0.783079
    22 0.928313 0.000000 0.000002 0.000000 0.000000 -0.453501
    23 0.928311 0.000000 0.000001 0.000000 0.000000 0.000000
    24 2.686395 -0.427337 0.044204 -0.005762 0.043239 -0.157074
    25 1.435260 0.000000 0.000001 0.000000 0.000000 0.732613
    26 1.482593 0.000000 -0.000001 0.000000 0.000000 1.168644
    27 2.046984 0.000001 0.000000 0.214165 0.401424 -0.465956
    28 -0.000005 0.000007 3.713254 -0.108110 -3.067023 5.834370
    29 18.045723 0.000000 0.000000 0.000000 0.000000 -0.440855
    30 17.597597 0.000000 0.000000 -0.062295 -0.012661 -0.008216
    31 0.000005 -0.000003 -3.713254 0.558518 3.013765 -0.012225
    32 18.045721 0.000000 0.000000 0.000000 0.000000 -0.535154
    33 17.597597 0.000000 0.000000 0.062034 0.094129 0.458380
  time 14
    0 0.157220 3.636981 1.540585 0.000000 0.000000 -1.571017
    1 1.042997 -0.261727 0.000000 -1.570795 -1.570787 0.000000
    2 1.293670 0.684478 -0.000001 0.000266 0.025358 0.010374
    3 5.309685 -0.003834 0.000000 -0.073616 -0.036146 -0.007902
    4 4.826790 -0.004591 0.000000 -0.070861 -0.018013 -0.206384
    5 5.792767 -0.005304 0.000000 -0.108502 0.068516 -0.169629
    6 6.662322 -0.001452 0.000000 0.012092 0.149507 0.481282
    7 -2.940214 1.919179 4.300562 1.217139 -1.019032 -4.906785
    8 4.827512 0.000000 -0.000002 -0.437889 -0.088009 -1.008205
    9 11.140032 0.000000 0.000000 0.070821 -0.108925 -0.728708
    10 10.314563 -0.000001 0.000001 -3.988822 0.203081 -0.504208
    11 1.646836 0.445664 -1.699647 -0.161704 0.581044 -0.283978
    12 0.928312 0.000000 0.000000 0.000000 0.000000 0.000000
    13 0.928313 0.000000 -0.000001 0.000000 0.000000 0.000000
    14 2.979373 -0.388274 -0.044205 -0.000805 -0.043611 0.000046
    15 1.435262 -0.000001 -0.000001 0.000000 0.000000 0.872146
    16 1.482593 -0.000001 0.000001 0.000000 0.000000 0.907041
    17 -2.639423 1.712177 -4.171647 -0.969813 1.718250 -4.832836
    18 4.972047 0.000000 0.000000 1.093268 -0.546427 -1.669858
    19 11.585358 0.000000 0.000001 0.386603 -0.382870 -1.637908
    20 10.127058 0.000000 0.000001 1.991968 0.603697 0.781389
    21 1.537458 0.109715 1.664489 -0.264662 -0.055995 0.783079
    22 0.928313 0.000000 0.000002 0.000000 0.000000 -0.453501
    23 0.928311 0.000000 0.000001 0.000000 0.000000 0.000000
    24 2.686395 -0.427337 0.044204 -0.005762 0.043239 -0.157074
    25 1.435260 0.000000 0.000001 0.000000 0.000000 0.732613
    26 1.482593 0.000000 -0.000001 0.000000 0.000000 1.168644
    27 2.046984 0.000001 0.000000 0.218430 0.406528 -0.451053
    28 -0.000005 0.000007 3.713254 -0.108110 -3.067119 5.834370
    29 18.045723 0.000000 0.000000 0.000000 0.000000 -0.439819
    30 17.597597 0.000000 0.000000 -0.062346 -0.012538 -0.009224
    31 0.000005 -0.000003 -3.713254 0.558518 3.013477 -0.012992
    32 18.045721 0.000000 0.000000 0.000000 0.000000 -0.535941
    33 17.597597 0.000000 0.000000 0.061967 0.093912 0.458380
  time 15
    0 0.157220 3.636981 1.540585 0.000000 0.000000 -1.571017
    1 1.011746 -0.253914 0.000000 -1.570795 -1.570787 0.000000
    2 1.293670 0.684478 -0.000001 0.000266 0.025358 0.010374
    3 5.309685 -0.003834 0.000000 -0.073412 -0.036865 -0.010375
    4 4.826790 -0.004591 0.000000 -0.072158 -0.017042 -0.196087
    5 5.792767 -0.005304 0.000000 -0.109042 0.070673 -0.155157
    6 6.662322 -0.001452 0.000000 0.009492 0.146332 0.439129
    7 -3.006622 1.790269 4.312281 1.224519 -1.020747 -4.871237
    8 4.827512 0.000000 -0.000002 -0.443469 -0.111118 -1.009158
    9 11.140032 0.000000 0.000000 0.070821 -0.110023 -0.737765
    10 10.314563 -0.000001 0.000001 -3.988822 0.203081 -0.504208
    11 1.646836 0.445664 -1.699647 -0.161704 0.581044 -0.283978
    12 0.928312 0.000000 0.000000 0.000000 0.000000 0.000000
    13 0.928313 0.000000 -0.000001 0.000000 0.000000 0.000000
    14 2.979373 -0.388274 -0.044205 -0.000805 -0.043611 0.000046
    15 1.435262 -0.000001 -0.000001 0.000000 0.000000 0.872146
    16 1.482593 -0.000001 0.000001 0.000000 0.000000 0.907041
    17 -2.721457 1.610611 -4.163834 -1.016910 1.727267 -4.838678
    18 4.972047 0.000000 0.000000 1.113623 -0.527384 -1.692953
    19 11.585358 0.000000 0.000001 0.386603 -0.382915 -1.634804
    20 10.127058 0.000000 0.000001 1.984255 0.601995 0.779638
    21 1.537458 0.109715 1.664489 -0.264662 -0.055995 0.783079
    22 0.928313 0.000000 0.000002 0.000000 0.000000 -0.453501
    23 0.928311 0.000000 0.000001 0.000000 0.000000 0.000000
    24 2.686395 -0.427337 0.044204 -0.005762 0.043239 -0.157074
    25 1.435260 0.000000 0.000001 0.000000 0.000000 0.732613
    26 1.482593 0.000000 -0.000001 0.000000 0.000000 1.168644
    27 2.046984 0.000001 0.000000 0.221748 0.411278 -0.431770
    28 -0.000005 0.000007 3.713254 -0.108110 -3.067406 5.834370
    29 18.045723 0.000000 0.000000 0.000000 0.000000 -0.437969
    30 17.597597 0.000000 0.000000 -0.062422 -0.012218 -0.011058
    31 0.000005 -0.000003 -3.713254 0.558422 3.012902 -0.014526
    32 18.045721 0.000000 0.000000 0.000000 0.000000 -0.537358
    33 17.597597 0.000000 0.000000 0.061866 0.093577 0.458196
  time 16
    0 0.157220 3.636981 1.540585 0.000000 0.000000 -1.571017
    1 0.992214 -0.253914 0.000000 -1.570795 -1.570787 0.000000
    2 1.293670 0.684478 -0.000001 0.000266 0.025358 0.010374
    3 5.309685 -0.003834 0.000000 -0.073378 -0.037032 -0.011046
    4 4.826790 -0.004591 0.000000 -0.072692 -0.016647 -0.191788
    5 5.792767 -0.005304 0.000000 -0.109257 0.071656 -0.148534
    6 6.662322 -0.001452 0.000000 0.007023 0.143047 0.396948
    7 -3.057405 1.653546 4.331813 1.231708 -1.022580 -4.835592
    8 4.827512 0.000000 -0.000002 -0.446658 -0.123568 -1.012884
    9 11.140032 0.000000 0.000000 0.070821 -0.109674 -0.734794
    10 10.314563 -0.000001 0.000001 -3.988822 0.203081 -0.504208
    11 1.646836 0.445664 -1.699647 -0.161704 0.581044 -0.283978
    12 0.928312 0.000000 0.000000 0.000000 0.000000 0.000000
    13 0.928313 0.000000 -0.000001 0.000000 0.000000 0.000000
    14 2.979373 -0.388274 -0.044205 -0.000805 -0.043611 0.000046
    15 1.435262 -0.000001 -0.000001 0.000000 0.000000 0.872146
    16 1.482593 -0.000001 0.000001 0.000000 0.000000 0.907041
    17 -2.799584 1.501233 -4.148209 -1.077095 1.740570 -4.857643
    18 4.972047 0.000000 0.000000 1.128537 -0.515894 -1.717445
    19 11.585358 0.000000 0.000001 0.386603 -0.383074 -1.626799
    20 10.127058 0.000000 0.000001 1.976962 0.600388 0.777937
    21 1.537458 0.109715 1.664489 -0.264662 -0.055995 0.783079
    22 0.928313 0.000000 0.000002 0.000000 0.000000 -0.453501
    23 0.928311 0.000000 0.000001 0.000000 0.000000 0.000000
    24 2.686395 -0.427337 0.044204 -0.005762 0.043239 -0.157074
    25 1.435260 0.000000 0.000001 0.000000 0.000000 0.732613
    26 1.482593 0.000000 -0.000001 0.000000 0.000000 1.168644
    27 2.046984 0.000001 0.000000 0.223816 0.415497 -0.400444
    28 -0.000005 0.000007 3.713254 -0.108110 -3.067598 5.834370
    29 18.045723 0.000000 0.000000 0.000000 0.000000 -0.437081
    30 17.597597 0.000000 0.000000 -0.062447 -0.012070 -0.011929
    31 0.000005 -0.000003 -3.713254 0.558422 3.012615 -0.015389
    32 18.045721 0.000000 0.000000 0.000000 0.000000 -0.538145
    33 17.597597 0.000000 0.000000 0.061799 0.093419 0.458057
  time 17
    0 0.157220 3.636981 1.540585 0.000000 0.000000 -1.571017
    1 0.984401 -0.253914 0.000000 -1.570795 -1.570787 0.000000
    2 1.293670 0.684478 -0.000001 0.000266 0.025358 0.010374
    3 5.309685 -0.003834 0.000000 -0.073395 -0.036925 -0.010570
    4 4.826790 -0.004591 0.000000 -0.072769 -0.016599 -0.191259
    5 5.792767 -0.005304 0.000000 -0.109293 0.071788 -0.147724
    6 6.662322 -0.001452 0.000000 0.004698 0.139666 0.354824
    7 -3.108188 1.516823 4.339626 1.238993 -1.024532 -4.799756
    8 4.827512 0.000000 -0.000002 -0.448491 -0.130475 -1.019210
    9 11.140032 0.000000 0.000000 0.070821 -0.108026 -0.721246
    10 10.314563 -0.000001 0.000001 -3.988822 0.203081 -0.504208
    11 1.646836 0.445664 -1.699647 -0.161704 0.581044 -0.283978
    12 0.928312 0.000000 0.000000 0.000000 0.000000 0.000000
    13 0.928313 0.000000 -0.000001 0.000000 0.000000 0.000000
    14 2.979373 -0.388274 -0.044205 -0.000805 -0.043611 0.000046
    15 1.435262 -0.000001 -0.000001 0.000000 0.000000 0.872146
    16 1.482593 -0.000001 0.000001 0.000000 0.000000 0.907041
    17 -2.869899 1.399667 -4.140396 -1.133077 1.755162 -4.872680
    18 4.972047 0.000000 0.000000 1.139230 -0.509145 -1.740806
    19 11.585358 0.000000 0.000001 0.386603 -0.383323 -1.614956
    20 10.127058 0.000000 0.000001 1.970510 0.598875 0.776436
    21 1.537458 0.109715 1.664489 -0.264662 -0.055995 0.783079
    22 0.928313 0.000000 0.000002 0.000000 0.000000 -0.453501
    23 0.928311 0.000000 0.000001 0.000000 0.000000 0.000000
    24 2.686395 -0.427337 0.044204 -0.005762 0.043239 -0.157074
    25 1.435260 0.000000 0.000001 0.000000 0.000000 0.732613
    26 1.482593 0.000000 -0.000001 0.000000 0.000000 1.168644
    27 2.046984 0.000001 0.000000 0.225237 0.419480 -0.360662
    28 -0.000005 0.000007 3.713254 -0.108110 -3.067694 5.834370
    29 18.045723 0.000000 0.000000 0.000000 0.000000 -0.436785
    30 17.597597 0.000000 0.000000 -0.062498 -0.012021 -0.012250
    31 0.000005 -0.000003 -3.713254 0.558422 3.012423 -0.015581
    32 18.045721 0.000000 0.000000 0.000000 0.000000 -0.538381
    33 17.597597 0.000000 0.000000 0.061766 0.093399 0.458057
  time 18
    0 0.157220 3.636981 1.540585 0.000000 0.000000 -1.571017
    1 0.992214 -0.253914 0.000000 -1.570795 -1.570787 0.000000
    2 1.293670 0.684478 -0.000001 0.000266 0.025358 0.010374
    3 5.309685 -0.003834 0.000000 -0.073480 -0.036601 -0.009474
    4 4.826790 -0.004591 0.000000 -0.072578 -0.016754 -0.192846
    5 5.792767 -0.005304 0.000000 -0.109204 0.071416 -0.150195
    6 6.662322 -0.001452 0.000000 0.004698 0.139666 0.354824
    7 -3.108188 1.516823 4.339626 1.238993 -1.024532 -4.799756
    8 4.827512 0.000000 -0.000002 -0.448890 -0.132437 -1.023975
    9 11.140032 0.000000 0.000000 0.070821 -0.106478 -0.708421
    10 10.314563 -0.000001 0.000001 -3.988822 0.203081 -0.504208
    11 1.646836 0.445664 -1.699647 -0.161704 0.581044 -0.283978
    12 0.928312 0.000000 0.000000 0.000000 0.000000 0.000000
    13 0.928313 0.000000 -0.000001 0.000000 0.000000 0.000000
    14 2.979373 -0.388274 -0.044205 -0.000805 -0.043611 0.000046
    15 1.435262 -0.000001 -0.000001 0.000000 0.000000 0.872146
    16 1.482593 -0.000001 0.000001 0.000000 0.000000 0.907041
    17 -2.869899 1.399667 -4.140396 -1.163265 1.764468 -4.903713
    18 4.972047 0.000000 0.000000 1.143826 -0.507377 -1.753784
    19 11.585358 0.000000 0.000001 0.386603 -0.383482 -1.605971
    20 10.127058 0.000000 0.000001 1.965391 0.597740 0.775236
    21 1.537458 0.109715 1.664489 -0.264662 -0.055995 0.783079
    22 0.928313 0.000000 0.000002 0.000000 0.000000 -0.453501
    23 0.928311 0.000000 0.000001 0.000000 0.000000 0.000000
    24 2.686395 -0.427337 0.044204 -0.005762 0.043239 -0.157074
    25 1.435260 0.000000 0.000001 0.000000 0.000000 0.732613
    26 1.482593 0.000000 -0.000001 0.000000 0.000000 1.168644
    27 2.046984 0.000001 0.000000 0.224979 0.419362 -0.357681
    28 -0.000005 0.000007 3.713254 -0.108110 -3.067694 5.834370
    29 18.045723 0.000000 0.000000 0.000000 0.000000 -0.436859
    30 17.597597 0.000000 0.000000 -0.062498 -0.012021 -0.012204
    31 0.000005 -0.000003 -3.713254 0.558518 3.012423 -0.015485
    32 18.045721 0.000000 0.000000 0.000000 0.000000 -0.538224
    33 17.597597 0.000000 0.000000 0.061699 0.093419 0.458057
  time 19
    0 0.157220 3.636981 1.540585 0.000000 0.000000 -1.571017
    1 0.992214 -0.253914 0.000000 -1.570795 -1.570787 0.000000
    2 1.293670 0.684478 -0.000001 0.000266 0.025358 0.010374
    3 5.309685 -0.003834 0.000000 -0.073582 -0.036265 -0.008379
    4 4.826790 -0.004591 0.000000 -0.072311 -0.016958 -0.195007
    5 5.792767 -0.005304 0.000000 -0.109096 0.070913 -0.153496
    6 6.662322 -0.001452 0.000000 0.004698 0.139666 0.354824
    7 -3.108188 1.516823 4.339626 1.238993 -1.024532 -4.799756
    8 4.827512 0.000000 -0.000002 -0.448571 -0.130816 -1.025188
    9 11.140032 0.000000 0.000000 0.070821 -0.105804 -0.702915
    10 10.314563 -0.000001 0.000001 -3.988822 0.203081 -0.504208
    11 1.646836 0.445664 -1.699647 -0.161704 0.581044 -0.283978
    12 0.928312 0.000000 0.000000 0.000000 0.000000 0.000000
    13 0.928313 0.000000 -0.000001 0.000000 0.000000 0.000000
    14 2.979373 -0.388274 -0.044205 -0.000805 -0.043611 0.000046
    15 1.435262 -0.000001 -0.000001 0.000000 0.000000 0.872146
    16 1.482593 -0.000001 0.000001 0.000000 0.000000 0.907041
    17 -2.869899 1.399667 -4.140396 -1.168424 1.766151 -4.908981
    18 4.972047 0.000000 0.000000 1.144107 -0.508020 -1.756047
    19 11.585358 0.000000 0.000001 0.386603 -0.383550 -1.602541
    20 10.127058 0.000000 0.000001 1.961955 0.596983 0.774436
    21 1.537458 0.109715 1.664489 -0.264662 -0.055995 0.783079
    22 0.928313 0.000000 0.000002 0.000000 0.000000 -0.453501
    23 0.928311 0.000000 0.000001 0.000000 0.000000 0.000000
    24 2.686395 -0.427337 0.044204 -0.005762 0.043239 -0.157074
    25 1.435260 0.000000 0.000001 0.000000 0.000000 0.732613
    26 1.482593 0.000000 -0.000001 0.000000 0.000000 1.168644
    27 2.046984 0.000001 0.000000 0.224548 0.419185 -0.353180
    28 -0.000005 0.000007 3.713254 -0.108110 -3.067598 5.834370
    29 18.045723 0.000000 0.000000 0.000000 0.000000 -0.437081
    30 17.597597 0.000000 0.000000 -0.062498 -0.012070 -0.011929
    31 0.000005 -0.000003 -3.713254 0.558518 3.012519 -0.015293
    32 18.045721 0.000000 0.000000 0.000000 0.000000 -0.538145
    33 17.597597 0.000000 0.000000 0.061699 0.093478 0.458057
  time 20
    0 0.157220 3.636981 1.540585 0.000000 0.000000 -1.571017
    1 0.992214 -0.253914 0.000000 -1.570795 -1.570787 0.000000
    2 1.293670 0.684478 -0.000001 0.000266 0.025358 0.010374
    3 5.309685 -0.003834 0.000000 -0.073616 -0.036146 -0.007902
    4 4.826790 -0.004591 0.000000 -0.072158 -0.017042 -0.196087
    5 5.792767 -0.005304 0.000000 -0.109042 0.070673 -0.155157
    6 6.662322 -0.001452 0.000000 0.004698 0.139666 0.354824
    7 -3.108188 1.516823 4.339626 1.238993 -1.024532 -4.799756
    8 4.827512 0.000000 -0.000002 -0.448332 -0.129708 -1.025188
    9 11.140032 0.000000 0.000000 0.070821 -0.105579 -0.701031
    10 10.314563 -0.000001 0.000001 -3.988822 0.203081 -0.504208
    11 1.646836 0.445664 -1.699647 -0.161704 0.581044 -0.283978
    12 0.928312 0.000000 0.000000 0.000000 0.000000 0.000000
    13 0.928313 0.000000 -0.000001 0.000000 0.000000 0.000000
    14 2.979373 -0.388274 -0.044205 -0.000805 -0.043611 0.000046
    15 1.435262 -0.000001 -0.000001 0.000000 0.000000 0.872146
    16 1.482593 -0.000001 0.000001 0.000000 0.000000 0.907041
    17 -2.869899 1.399667 -4.140396 -1.163265 1.764468 -4.903713
    18 4.972047 0.000000 0.000000 1.143169 -0.508663 -1.754117
    19 11.585358 0.000000 0.000001 0.386603 -0.383573 -1.601969
    20 10.127058 0.000000 0.000001 1.960763 0.596700 0.774136
    21 1.537458 0.109715 1.664489 -0.264662 -0.055995 0.783079
    22 0.928313 0.000000 0.000002 0.000000 0.000000 -0.453501
    23 0.928311 0.000000 0.000001 0.000000 0.000000 0.000000
    24 2.686395 -0.427337 0.044204 -0.005762 0.043239 -0.157074
    25 1.435260 0.000000 0.000001 0.000000 0.000000 0.732613
    26 1.482593 0.000000 -0.000001 0.000000 0.000000 1.168644
    27 2.046984 0.000001 0.000000 0.224290 0.419126 -0.350990
    28 -0.000005 0.000007 3.713254 -0.108302 -3.067502 5.834370
    29 18.045723 0.000000 0.000000 0.000000 0.000000 -0.437229
    30 17.597597 0.000000 0.000000 -0.062219 -0.012021 -0.011838
    31 0.000005 -0.000003 -3.713254 0.557847 3.012710 -0.015293
    32 18.045721 0.000000 0.000000 0.000000 0.000000 -0.537909
    33 17.597597 0.000000 0.000000 0.062403 0.093360 0.458196
end
