version 1
nodes
  0 "Bip01" -1
  1 "Bip01 Pelvis" 0
  2 "Bip01 Spine" 1
  3 "Bip01 Spine1" 2
  4 "Bip01 Spine2" 3
  5 "Bip01 Spine3" 4
  6 "Bip01 Neck" 5
  7 "Bip01 L Arm" 6
  8 "Bip01 L Arm1" 7
  9 "Bip01 L Arm2" 8
  10 "Bip01 L Hand" 9
  11 "Bip01 L Finger0" 10
  12 "Bip01 L Finger01" 11
  13 "Bip01 L Finger02" 12
  14 "Bip01 L Finger1" 10
  15 "Bip01 L Finger11" 14
  16 "Bip01 L Finger12" 15
  17 "Bip01 R Arm" 6
  18 "Bip01 R Arm1" 17
  19 "Bip01 R Arm2" 18
  20 "Bip01 R Hand" 19
  21 "Bip01 R Finger0" 20
  22 "Bip01 R Finger01" 21
  23 "Bip01 R Finger02" 22
  24 "Bip01 R Finger1" 20
  25 "Bip01 R Finger11" 24
  26 "Bip01 R Finger12" 25
  27 "Bip01 Head" 6
  28 "Bip01 L Leg" 1
  29 "Bip01 L Leg1" 28
  30 "Bip01 L Foot" 29
  31 "Bip01 R Leg" 1
  32 "Bip01 R Leg1" 31
  33 "Bip01 R Foot" 32
end
skeleton
  time 0
    0 0.567389 3.738546 0.368674 0.000000 0.000000 -1.571017
    1 0.632828 -0.113285 0.000000 -1.570795 -1.570787 0.000000
    2 1.293670 0.684478 -0.000001 -0.000004 -0.000001 -0.040837
    3 5.309685 -0.003834 0.000000 -0.261773 0.000204 -0.069796
    4 4.826790 -0.004591 0.000000 -0.261757 -0.000180 -0.097355
    5 5.792767 -0.005304 0.000000 -0.261380 -0.014753 -0.038512
    6 6.662322 -0.001452 0.000000 0.000000 -0.000001 0.471000
    7 -3.108188 1.516823 4.339626 1.427248 -1.394412 -5.038344
    8 4.827512 0.000000 -0.000002 -0.157285 0.595374 -0.426174
    9 11.140032 0.000000 0.000000 0.000000 0.000000 -1.508886
    10 10.314563 -0.000001 0.000001 -1.569942 -0.058545 -0.069778
    11 1.646836 0.445664 -1.699647 0.153911 0.442352 0.277231
    12 0.928312 0.000000 0.000000 0.000000 0.000000 0.000000
    13 0.928313 0.000000 -0.000001 0.000000 0.000000 0.000000
    14 2.979373 -0.388274 -0.044205 -0.038161 -0.021140 1.047514
    15 1.435262 -0.000001 -0.000001 0.000000 0.000000 0.924803
    16 1.482593 -0.000001 0.000001 0.000000 0.000000 1.326263
    17 -2.869899 1.399667 -4.140396 1.270791 1.204745 -2.362472
    18 4.972047 0.000000 0.000000 0.436210 -0.642605 -0.789331
    19 11.585358 0.000000 0.000001 0.000000 0.000000 -2.021395
    20 10.127058 0.000000 0.000001 2.352686 0.275749 -0.245204
    21 1.537458 0.109715 1.664489 -0.264662 -0.055995 0.783079
    22 0.928313 0.000000 0.000002 0.000000 0.000000 -0.453501
    23 0.928311 0.000000 0.000001 0.000000 0.000000 0.000000
    24 2.686395 -0.427337 0.044204 0.016613 0.040339 0.366921
    25 1.435260 0.000000 0.000001 0.000000 0.000000 0.994402
    26 1.482593 0.000000 -0.000001 0.000000 0.000000 1.168644
    27 2.046984 0.000001 0.000000 0.769418 0.172625 -0.565533
    28 -0.000005 0.000007 3.713254 -0.100345 -3.047752 5.708602
    29 18.045723 0.000000 0.000000 0.000000 0.000000 -0.413544
    30 17.597597 0.000000 0.000000 -0.056797 -0.016574 -0.162308
    31 0.000005 -0.000003 -3.713254 0.807516 2.831522 6.175187
    32 18.045721 0.000000 0.000000 0.000000 0.000000 -0.782250
    33 17.597597 0.000000 0.000000 0.178794 0.125233 0.485354
  time 1
    0 0.489261 3.590104 0.368674 0.000000 0.000000 -1.571017
    1 0.460948 0.144536 0.000000 -1.570795 -1.570787 0.000000
    2 1.293670 0.684478 -0.000001 0.021086 -0.000373 -0.061261
    3 5.309685 -0.003834 0.000000 -0.264122 0.008162 -0.050860
    4 4.826790 -0.004591 0.000000 -0.269978 0.021452 -0.032710
    5 5.792767 -0.005304 0.000000 -0.194106 0.022411 0.059489
    6 6.662322 -0.001452 0.000000 0.000000 -0.000001 0.471000
    7 -3.108188 1.516823 4.339626 1.478722 -1.390421 -5.090565
    8 4.827512 0.000000 -0.000002 -0.236524 0.532869 -0.602854
    9 11.140032 0.000000 0.000000 0.000000 0.000000 -1.499757
    10 10.314563 -0.000001 0.000001 -1.569942 -0.058545 -0.069778
    11 1.646836 0.445664 -1.699647 0.153911 0.442352 0.277231
    12 0.928312 0.000000 0.000000 0.000000 0.000000 0.000000
    13 0.928313 0.000000 -0.000001 0.000000 0.000000 0.000000
    14 2.979373 -0.388274 -0.044205 -0.038161 -0.021140 1.047514
    15 1.435262 -0.000001 -0.000001 0.000000 0.000000 0.924803
    16 1.482593 -0.000001 0.000001 0.000000 0.000000 1.326263
    17 -2.869899 1.399667 -4.140396 1.103514 1.313009 -2.523574
    18 4.972047 0.000000 0.000000 0.497460 -0.912098 -0.765105
    19 11.585358 0.000000 0.000001 0.000000 0.000000 -2.094743
    20 10.127058 0.000000 0.000001 2.357595 0.268278 -0.235349
    21 1.537458 0.109715 1.664489 -0.264662 -0.055995 0.783079
    22 0.928313 0.000000 0.000002 0.000000 0.000000 -0.453501
    23 0.928311 0.000000 0.000001 0.000000 0.000000 0.000000
    24 2.686395 -0.427337 0.044204 0.016613 0.040339 0.366921
    25 1.435260 0.000000 0.000001 0.000000 0.000000 0.994402
    26 1.482593 0.000000 -0.000001 0.000000 0.000000 1.168644
    27 2.046984 0.000001 0.000000 0.691912 0.110225 -0.721498
    28 -0.000005 0.000007 3.713254 -0.101208 -3.052833 5.707644
    29 18.045723 0.000000 0.000000 0.000000 0.000000 -0.414210
    30 17.597597 0.000000 0.000000 -0.058748 -0.011652 -0.162124
    31 0.000005 -0.000003 -3.713254 0.805887 2.826249 6.173845
    32 18.045721 0.000000 0.000000 0.000000 0.000000 -0.782250
    33 17.597597 0.000000 0.000000 0.179028 0.128251 0.480597
  time 2
    0 0.407228 3.445569 0.368674 0.000000 0.000000 -1.571017
    1 0.265629 0.390637 0.000000 -1.570795 -1.570787 0.000000
    2 1.293670 0.684478 -0.000001 0.042226 -0.000301 -0.081735
    3 5.309685 -0.003834 0.000000 -0.266317 0.016167 -0.031960
    4 4.826790 -0.004591 0.000000 -0.276826 0.043624 0.031936
    5 5.792767 -0.005304 0.000000 -0.123414 0.052780 0.160043
    6 6.662322 -0.001452 0.000000 0.000000 -0.000001 0.471000
    7 -3.108188 1.516823 4.339626 1.527702 -1.385985 -5.140486
    8 4.827512 0.000000 -0.000002 -0.290413 0.447595 -0.756399
    9 11.140032 0.000000 0.000000 0.000000 0.000000 -1.490555
    10 10.314563 -0.000001 0.000001 -1.569942 -0.058545 -0.069778
    11 1.646836 0.445664 -1.699647 0.153911 0.442352 0.277231
    12 0.928312 0.000000 0.000000 0.000000 0.000000 0.000000
    13 0.928313 0.000000 -0.000001 0.000000 0.000000 0.000000
    14 2.979373 -0.388274 -0.044205 -0.038161 -0.021140 1.047514
    15 1.435262 -0.000001 -0.000001 0.000000 0.000000 0.924803
    16 1.482593 -0.000001 0.000001 0.000000 0.000000 1.326263
    17 -2.869899 1.399667 -4.140396 0.826950 1.325760 -2.801529
    18 4.972047 0.000000 0.000000 0.664797 -0.793662 -0.916385
    19 11.585358 0.000000 0.000001 0.000000 0.000000 -2.028501
    20 10.127058 0.000000 0.000001 2.360119 0.264496 -0.230297
    21 1.537458 0.109715 1.664489 -0.264662 -0.055995 0.783079
    22 0.928313 0.000000 0.000002 0.000000 0.000000 -0.453501
    23 0.928311 0.000000 0.000001 0.000000 0.000000 0.000000
    24 2.686395 -0.427337 0.044204 0.016613 0.040339 0.366921
    25 1.435260 0.000000 0.000001 0.000000 0.000000 0.994402
    26 1.482593 0.000000 -0.000001 0.000000 0.000000 1.168644
    27 2.046984 0.000001 0.000000 0.618757 0.037558 -0.869555
    28 -0.000005 0.000007 3.713254 -0.102262 -3.057723 5.707260
    29 18.045723 0.000000 0.000000 0.000000 0.000000 -0.412582
    30 17.597597 0.000000 0.000000 -0.060547 -0.007025 -0.163591
    31 0.000005 -0.000003 -3.713254 0.804449 2.821264 6.172023
    32 18.045721 0.000000 0.000000 0.000000 0.000000 -0.782486
    33 17.597597 0.000000 0.000000 0.179230 0.130578 0.475978
  time 3
    0 0.368164 3.351816 0.368674 0.000000 0.000000 -1.571017
    1 0.117187 0.421888 0.000000 -1.570795 -1.570787 0.000000
    2 1.293670 0.684478 -0.000001 0.001546 0.000418 -0.087059
    3 5.309685 -0.003834 0.000000 -0.261365 0.014993 -0.014579
    4 4.826790 -0.004591 0.000000 -0.260880 0.040592 0.056255
    5 5.792767 -0.005304 0.000000 -0.094328 0.056411 0.196108
    6 6.662322 -0.001452 0.000000 0.000000 -0.000001 0.471000
    7 -3.108188 1.516823 4.339626 1.549269 -1.383856 -5.162333
    8 4.827512 0.000000 -0.000002 -0.222892 0.417323 -0.768963
    9 11.140032 0.000000 0.000000 0.000000 0.000000 -1.489831
    10 10.314563 -0.000001 0.000001 -1.569942 -0.058545 -0.069778
    11 1.646836 0.445664 -1.699647 0.153911 0.442352 0.277231
    12 0.928312 0.000000 0.000000 0.000000 0.000000 0.000000
    13 0.928313 0.000000 -0.000001 0.000000 0.000000 0.000000
    14 2.979373 -0.388274 -0.044205 -0.038161 -0.021140 1.047514
    15 1.435262 -0.000001 -0.000001 0.000000 0.000000 0.924803
    16 1.482593 -0.000001 0.000001 0.000000 0.000000 1.326263
    17 -2.869899 1.399667 -4.140396 0.671137 1.315691 -2.958129
    18 4.972047 0.000000 0.000000 0.700346 -0.636258 -1.022674
    19 11.585358 0.000000 0.000001 0.000000 0.000000 -1.921337
    20 10.127058 0.000000 0.000001 2.360470 0.263834 -0.229447
    21 1.537458 0.109715 1.664489 -0.264662 -0.055995 0.783079
    22 0.928313 0.000000 0.000002 0.000000 0.000000 -0.453501
    23 0.928311 0.000000 0.000001 0.000000 0.000000 0.000000
    24 2.686395 -0.427337 0.044204 0.016613 0.040339 0.366921
    25 1.435260 0.000000 0.000001 0.000000 0.000000 0.994402
    26 1.482593 0.000000 -0.000001 0.000000 0.000000 1.168644
    27 2.046984 0.000001 0.000000 0.605358 0.016522 -0.896076
    28 -0.000005 0.000007 3.713254 -0.102358 -3.057723 5.708698
    29 18.045723 0.000000 0.000000 0.000000 0.000000 -0.406735
    30 17.597597 0.000000 0.000000 -0.060547 -0.007099 -0.168038
    31 0.000005 -0.000003 -3.713254 0.804449 2.821168 6.169914
    32 18.045721 0.000000 0.000000 0.000000 0.000000 -0.783667
    33 17.597597 0.000000 0.000000 0.179096 0.129119 0.475747
  time 4
    0 0.368164 3.308846 0.368674 0.000000 0.000000 -1.571017
    1 0.085936 0.000000 0.000000 -1.570795 -1.570787 0.000000
    2 1.293670 0.684478 -0.000001 -0.142021 0.003714 -0.067539
    3 5.309685 -0.003834 0.000000 -0.242714 -0.004350 0.000241
    4 4.826790 -0.004591 0.000000 -0.200567 -0.009540 0.002237
    5 5.792767 -0.005304 0.000000 -0.187126 -0.010403 0.041446
    6 6.662322 -0.001452 0.000000 0.000000 -0.000001 0.471000
    7 -3.108188 1.516823 4.339626 1.427248 -1.394412 -5.038344
    8 4.827512 0.000000 -0.000002 0.157915 0.468572 -0.447404
    9 11.140032 0.000000 0.000000 0.000000 0.000000 -1.533303
    10 10.314563 -0.000001 0.000001 -1.569942 -0.058545 -0.069778
    11 1.646836 0.445664 -1.699647 0.153911 0.442352 0.277231
    12 0.928312 0.000000 0.000000 0.000000 0.000000 0.000000
    13 0.928313 0.000000 -0.000001 0.000000 0.000000 0.000000
    14 2.979373 -0.388274 -0.044205 -0.038161 -0.021140 1.047514
    15 1.435262 -0.000001 -0.000001 0.000000 0.000000 0.924803
    16 1.482593 -0.000001 0.000001 0.000000 0.000000 1.326263
    17 -2.869899 1.399667 -4.140396 1.080205 1.334935 -2.544933
    18 4.972047 0.000000 0.000000 0.701472 -0.507859 -1.172024
    19 11.585358 0.000000 0.000001 0.000000 0.000000 -1.747522
    20 10.127058 0.000000 0.000001 2.352686 0.275749 -0.245204
    21 1.537458 0.109715 1.664489 -0.264662 -0.055995 0.783079
    22 0.928313 0.000000 0.000002 0.000000 0.000000 -0.453501
    23 0.928311 0.000000 0.000001 0.000000 0.000000 0.000000
    24 2.686395 -0.427337 0.044204 0.016613 0.040339 0.366921
    25 1.435260 0.000000 0.000001 0.000000 0.000000 0.994402
    26 1.482593 0.000000 -0.000001 0.000000 0.000000 1.168644
    27 2.046984 0.000001 0.000000 0.732367 0.107865 -0.614196
    28 -0.000005 0.000007 3.713254 -0.100249 -3.045930 5.712149
    29 18.045723 0.000000 0.000000 0.000000 0.000000 -0.399925
    30 17.597597 0.000000 0.000000 -0.055986 -0.018641 -0.172577
    31 0.000005 -0.000003 -3.713254 0.807899 2.833343 6.170873
    32 18.045721 0.000000 0.000000 0.000000 0.000000 -0.785084
    33 17.597597 0.000000 0.000000 0.178391 0.120776 0.486555
  time 5
    0 0.360351 3.265876 0.368674 0.000000 0.000000 -1.571017
    1 -0.109382 -0.570330 0.000000 -1.570795 -1.570787 0.000000
    2 1.293670 0.684478 -0.000001 -0.347189 0.014285 -0.034375
    3 5.309685 -0.003834 0.000000 -0.217461 -0.033329 0.012782
    4 4.826790 -0.004591 0.000000 -0.111890 -0.076941 -0.098105
    5 5.792767 -0.005304 0.000000 -0.282048 -0.097854 -0.124034
    6 6.662322 -0.001452 0.000000 0.000000 -0.000001 0.471000
    7 -3.108188 1.516823 4.339626 0.877148 -1.404555 -4.483748
    8 4.827512 0.000000 -0.000002 0.400414 0.377074 -0.074374
    9 11.140032 0.000000 0.000000 0.000000 0.000000 -1.382165
    10 10.314563 -0.000001 0.000001 -1.569942 -0.058545 -0.069778
    11 1.646836 0.445664 -1.699647 0.153911 0.442352 0.277231
    12 0.928312 0.000000 0.000000 0.000000 0.000000 0.000000
    13 0.928313 0.000000 -0.000001 0.000000 0.000000 0.000000
    14 2.979373 -0.388274 -0.044205 -0.038161 -0.021140 1.047514
    15 1.435262 -0.000001 -0.000001 0.000000 0.000000 0.924803
    16 1.482593 -0.000001 0.000001 0.000000 0.000000 1.326263
    17 -2.869899 1.399667 -4.140396 1.262384 1.298628 -2.361993
    18 4.972047 0.000000 0.000000 0.590414 -0.348607 -1.152923
    19 11.585358 0.000000 0.000001 0.000000 0.000000 -1.585633
    20 10.127058 0.000000 0.000001 2.325758 0.313669 -0.297276
    21 1.537458 0.109715 1.664489 -0.264662 -0.055995 0.783079
    22 0.928313 0.000000 0.000002 0.000000 0.000000 -0.453501
    23 0.928311 0.000000 0.000001 0.000000 0.000000 0.000000
    24 2.686395 -0.427337 0.044204 0.016613 0.040339 0.366921
    25 1.435260 0.000000 0.000001 0.000000 0.000000 0.994402
    26 1.482593 0.000000 -0.000001 0.000000 0.000000 1.168644
    27 2.046984 0.000001 0.000000 0.932487 0.219978 -0.288701
    28 -0.000005 0.000007 3.713254 -0.098427 -3.031453 5.723173
    29 18.045723 0.000000 0.000000 0.000000 0.000000 -0.368173
    30 17.597597 0.000000 0.000000 -0.050132 -0.033185 -0.195088
    31 0.000005 -0.000003 -3.713254 0.812212 2.848586 6.165791
    32 18.045721 0.000000 0.000000 0.000000 0.000000 -0.789807
    33 17.597597 0.000000 0.000000 0.176814 0.105569 0.498656
  time 6
    0 0.356445 3.230718 0.368674 0.000000 0.000000 -1.571017
    1 -0.554708 -0.746117 0.000000 -1.570795 -1.570787 0.000000
    2 1.293670 0.684478 -0.000001 -0.551953 0.031363 -0.004057
    3 5.309685 -0.003834 0.000000 -0.198878 -0.054794 0.024228
    4 4.826790 -0.004591 0.000000 -0.041353 -0.121188 -0.172694
    5 5.792767 -0.005304 0.000000 -0.292319 -0.107765 -0.137301
    6 6.662322 -0.001452 0.000000 0.000000 -0.000001 0.471000
    7 -3.108188 1.516823 4.339626 0.362129 -1.358841 -3.968054
    8 4.827512 0.000000 -0.000002 0.295507 0.194673 0.041565
    9 11.140032 0.000000 0.000000 0.000000 0.000000 -1.194076
    10 10.314563 -0.000001 0.000001 -1.569942 -0.058545 -0.069778
    11 1.646836 0.445664 -1.699647 0.153911 0.442352 0.277231
    12 0.928312 0.000000 0.000000 0.000000 0.000000 0.000000
    13 0.928313 0.000000 -0.000001 0.000000 0.000000 0.000000
    14 2.979373 -0.388274 -0.044205 -0.038161 -0.021140 1.047514
    15 1.435262 -0.000001 -0.000001 0.000000 0.000000 0.924803
    16 1.482593 -0.000001 0.000001 0.000000 0.000000 1.326263
    17 -2.869899 1.399667 -4.140396 1.248627 1.420300 -2.368219
    18 4.972047 0.000000 0.000000 0.673989 -0.249375 -0.786336
    19 11.585358 0.000000 0.000001 0.000000 0.000000 -1.640685
    20 10.127058 0.000000 0.000001 2.287401 0.360668 -0.367156
    21 1.537458 0.109715 1.664489 -0.264662 -0.055995 0.783079
    22 0.928313 0.000000 0.000002 0.000000 0.000000 -0.453501
    23 0.928311 0.000000 0.000001 0.000000 0.000000 0.000000
    24 2.686395 -0.427337 0.044204 0.016613 0.040339 0.366921
    25 1.435260 0.000000 0.000001 0.000000 0.000000 0.994402
    26 1.482593 0.000000 -0.000001 0.000000 0.000000 1.168644
    27 2.046984 0.000001 0.000000 1.057944 0.354779 -0.229028
    28 -0.000005 0.000007 3.713254 -0.099865 -3.029728 5.739757
    29 18.045723 0.000000 0.000000 0.000000 0.000000 -0.312366
    30 17.597597 0.000000 0.000000 -0.048663 -0.036286 -0.234654
    31 0.000005 -0.000003 -3.713254 0.812787 2.850887 6.150932
    32 18.045721 0.000000 0.000000 0.000000 0.000000 -0.798151
    33 17.597597 0.000000 0.000000 0.175673 0.092827 0.498795
  time 7
    0 0.356445 3.191655 0.368674 0.000000 0.000000 -1.571017
    1 -0.660180 -0.632832 0.000000 -1.570795 -1.570787 0.000000
    2 1.293670 0.684478 -0.000001 -0.551953 0.031363 -0.004057
    3 5.309685 -0.003834 0.000000 -0.198589 -0.053463 0.035144
    4 4.826790 -0.004591 0.000000 -0.040800 -0.121464 -0.153666
    5 5.792767 -0.005304 0.000000 -0.279601 -0.091167 -0.105181
    6 6.662322 -0.001452 0.000000 0.000000 -0.000001 0.471000
    7 -3.108188 1.516823 4.339626 0.091057 -1.286130 -3.700721
    8 4.827512 0.000000 -0.000002 0.078677 0.104113 -0.101235
    9 11.140032 0.000000 0.000000 0.000000 0.000000 -1.019319
    10 10.314563 -0.000001 0.000001 -1.569942 -0.058545 -0.069778
    11 1.646836 0.445664 -1.699647 0.153911 0.442352 0.277231
    12 0.928312 0.000000 0.000000 0.000000 0.000000 0.000000
    13 0.928313 0.000000 -0.000001 0.000000 0.000000 0.000000
    14 2.979373 -0.388274 -0.044205 -0.038161 -0.021140 1.047514
    15 1.435262 -0.000001 -0.000001 0.000000 0.000000 0.924803
    16 1.482593 -0.000001 0.000001 0.000000 0.000000 1.326263
    17 -2.869899 1.399667 -4.140396 1.501118 1.419985 -2.113060
    18 4.972047 0.000000 0.000000 0.747808 -0.268739 -0.577086
    19 11.585358 0.000000 0.000001 0.000000 0.000000 -1.732003
    20 10.127058 0.000000 0.000001 2.243854 0.405775 -0.442038
    21 1.537458 0.109715 1.664489 -0.264662 -0.055995 0.783079
    22 0.928313 0.000000 0.000002 0.000000 0.000000 -0.453501
    23 0.928311 0.000000 0.000001 0.000000 0.000000 0.000000
    24 2.686395 -0.427337 0.044204 0.016613 0.040339 0.366921
    25 1.435260 0.000000 0.000001 0.000000 0.000000 0.994402
    26 1.482593 0.000000 -0.000001 0.000000 0.000000 1.168644
    27 2.046984 0.000001 0.000000 1.013526 0.445532 -0.347158
    28 -0.000005 0.000007 3.713254 -0.100536 -3.033275 5.740715
    29 18.045723 0.000000 0.000000 0.000000 0.000000 -0.307037
    30 17.597597 0.000000 0.000000 -0.049980 -0.033062 -0.238643
    31 0.000005 -0.000003 -3.713254 0.811637 2.847148 6.148152
    32 18.045721 0.000000 0.000000 0.000000 0.000000 -0.799332
    33 17.597597 0.000000 0.000000 0.175875 0.093557 0.495516
  time 8
    0 0.356445 3.152591 0.368674 0.000000 0.000000 -1.571017
    1 -0.789091 -0.359386 0.000000 -1.570795 -1.570787 0.000000
    2 1.293670 0.684478 -0.000001 -0.551953 0.031363 -0.004057
    3 5.309685 -0.003834 0.000000 -0.205311 -0.043276 0.045512
    4 4.826790 -0.004591 0.000000 -0.067542 -0.104889 -0.099119
    5 5.792767 -0.005304 0.000000 -0.266398 -0.074940 -0.072895
    6 6.662322 -0.001452 0.000000 0.000000 -0.000001 0.471000
    7 -3.108188 1.516823 4.339626 -0.064417 -1.201976 -3.553352
    8 4.827512 0.000000 -0.000002 -0.173149 -0.008363 -0.255126
    9 11.140032 0.000000 0.000000 0.000000 0.000000 -0.843112
    10 10.314563 -0.000001 0.000001 -1.569942 -0.058545 -0.069778
    11 1.646836 0.445664 -1.699647 0.153911 0.442352 0.277231
    12 0.928312 0.000000 0.000000 0.000000 0.000000 0.000000
    13 0.928313 0.000000 -0.000001 0.000000 0.000000 0.000000
    14 2.979373 -0.388274 -0.044205 -0.038161 -0.021140 1.047514
    15 1.435262 -0.000001 -0.000001 0.000000 0.000000 0.924803
    16 1.482593 -0.000001 0.000001 0.000000 0.000000 1.326263
    17 -2.869899 1.399667 -4.140396 -1.424067 1.753453 -5.034836
    18 4.972047 0.000000 0.000000 0.847610 -0.333903 -0.468734
    19 11.585358 0.000000 0.000001 0.000000 0.000000 -1.829774
    20 10.127058 0.000000 0.000001 2.195538 0.447950 -0.520872
    21 1.537458 0.109715 1.664489 -0.264662 -0.055995 0.783079
    22 0.928313 0.000000 0.000002 0.000000 0.000000 -0.453501
    23 0.928311 0.000000 0.000001 0.000000 0.000000 0.000000
    24 2.686395 -0.427337 0.044204 0.016613 0.040339 0.366921
    25 1.435260 0.000000 0.000001 0.000000 0.000000 0.994402
    26 1.482593 0.000000 -0.000001 0.000000 0.000000 1.168644
    27 2.046984 0.000001 0.000000 0.995517 0.522772 -0.502028
    28 -0.000005 0.000007 3.713254 -0.101783 -3.041233 5.740619
    29 18.045723 0.000000 0.000000 0.000000 0.000000 -0.302374
    30 17.597597 0.000000 0.000000 -0.053021 -0.025606 -0.242448
    31 0.000005 -0.000003 -3.713254 0.808762 2.838616 6.143933
    32 18.045721 0.000000 0.000000 0.000000 0.000000 -0.800985
    33 17.597597 0.000000 0.000000 0.176411 0.096831 0.488264
end
