version 1
nodes
  0 "Bip01" -1
  1 "Bip01 Pelvis" 0
  2 "Bip01 Spine" 1
  3 "Bip01 Spine1" 2
  4 "Bip01 Spine2" 3
  5 "Bip01 Spine3" 4
  6 "Bip01 Neck" 5
  7 "Bip01 L Arm" 6
  8 "Bip01 L Arm1" 7
  9 "Bip01 L Arm2" 8
  10 "Bip01 L Hand" 9
  11 "Bip01 L Finger0" 10
  12 "Bip01 L Finger01" 11
  13 "Bip01 L Finger02" 12
  14 "Bip01 L Finger1" 10
  15 "Bip01 L Finger11" 14
  16 "Bip01 L Finger12" 15
  17 "Bip01 R Arm" 6
  18 "Bip01 R Arm1" 17
  19 "Bip01 R Arm2" 18
  20 "Bip01 R Hand" 19
  21 "Bip01 R Finger0" 20
  22 "Bip01 R Finger01" 21
  23 "Bip01 R Finger02" 22
  24 "Bip01 R Finger1" 20
  25 "Bip01 R Finger11" 24
  26 "Bip01 R Finger12" 25
  27 "Bip01 Head" 6
  28 "Bip01 L Leg" 1
  29 "Bip01 L Leg1" 28
  30 "Bip01 L Foot" 29
  31 "Bip01 R Leg" 1
  32 "Bip01 R Leg1" 31
  33 "Bip01 R Foot" 32
end
skeleton
  time 0
    0 0.305662 4.090120 0.368674 0.000000 0.000000 -1.571017
    1 0.992214 0.156255 0.000000 -1.570795 -1.570787 0.000000
    2 1.293670 0.684478 -0.000001 0.000047 0.073776 0.047840
    3 5.309685 -0.003834 0.000000 -0.000017 -0.074808 -0.064567
    4 4.826790 -0.004591 0.000000 -0.174225 -0.007634 -0.140195
    5 5.792767 -0.005304 0.000000 -0.135592 -0.033054 -0.221183
    6 6.662322 -0.001452 0.000000 -0.016179 0.004411 0.589853
    7 -2.928495 1.801988 4.351345 1.009329 -1.216554 -4.710550
    8 4.827512 0.000000 -0.000002 0.019607 0.744603 -1.689364
    9 11.140032 0.000000 0.000000 0.000000 0.000000 -1.512871
    10 10.314563 -0.000001 0.000001 -0.504277 -0.357079 0.237841
    11 1.646836 0.445664 -1.699647 -0.161704 0.581044 -0.283978
    12 0.928312 0.000000 0.000000 0.000000 0.000000 0.000000
    13 0.928313 0.000000 -0.000001 0.000000 0.000000 0.000000
    14 2.979373 -0.388274 -0.044205 -0.041673 -0.012835 1.254620
    15 1.435262 -0.000001 -0.000001 0.000000 0.000000 0.872146
    16 1.482593 -0.000001 0.000001 0.000000 0.000000 0.907041
    17 -2.670674 1.786398 -4.128677 0.802780 1.264871 -2.951903
    18 4.972047 0.000000 0.000000 -1.611319 -0.196103 0.528599
    19 11.585358 0.000000 0.000001 0.000000 0.000000 -1.915374
    20 10.127058 0.000000 0.000001 1.272637 0.452395 -1.380993
    21 1.537458 0.109715 1.664489 -0.264662 -0.055995 0.783079
    22 0.928313 0.000000 0.000002 0.000000 0.000000 -0.453501
    23 0.928311 0.000000 0.000001 0.000000 0.000000 0.000000
    24 2.686395 -0.427337 0.044204 -0.005762 0.043239 -0.157074
    25 1.435260 0.000000 0.000001 0.000000 0.000000 0.732613
    26 1.482593 0.000000 -0.000001 0.000000 0.000000 1.168644
    27 2.046984 0.000001 0.000000 0.314979 0.240719 -0.760975
    28 -0.000005 0.000007 3.713254 -0.099865 -3.047848 5.708602
    29 18.045723 0.000000 0.000000 0.000000 0.000000 -0.413544
    30 17.597597 0.000000 0.000000 -0.057202 -0.016721 -0.162308
    31 0.000005 -0.000003 -3.713254 0.807324 2.831618 6.175091
    32 18.045721 0.000000 0.000000 0.000000 0.000000 -0.782250
    33 17.597597 0.000000 0.000000 0.178995 0.125233 0.485354
  time 1
    0 0.305662 4.058869 0.368674 0.000000 0.000000 -1.571017
    1 0.992214 0.156255 0.000000 -1.570795 -1.570787 0.000000
    2 1.293670 0.684478 -0.000001 0.000047 0.073776 0.047840
    3 5.309685 -0.003834 0.000000 -0.000596 -0.073190 -0.058897
    4 4.826790 -0.004591 0.000000 -0.172451 -0.009096 -0.154747
    5 5.792767 -0.005304 0.000000 -0.134494 -0.035966 -0.238395
    6 6.662322 -0.001452 0.000000 -0.016179 0.004411 0.589853
    7 -2.928495 1.801988 4.351345 1.009329 -1.216554 -4.710550
    8 4.827512 0.000000 -0.000002 0.001511 0.766689 -1.698289
    9 11.140032 0.000000 0.000000 0.000000 0.000000 -1.512871
    10 10.314563 -0.000001 0.000001 -0.504277 -0.357079 0.237841
    11 1.646836 0.445664 -1.699647 -0.161704 0.581044 -0.283978
    12 0.928312 0.000000 0.000000 0.000000 0.000000 0.000000
    13 0.928313 0.000000 -0.000001 0.000000 0.000000 0.000000
    14 2.979373 -0.388274 -0.044205 -0.041673 -0.012835 1.254620
    15 1.435262 -0.000001 -0.000001 0.000000 0.000000 0.872146
    16 1.482593 -0.000001 0.000001 0.000000 0.000000 0.907041
    17 -2.670674 1.786398 -4.128677 0.799150 1.263715 -2.955735
    18 4.972047 0.000000 0.000000 -1.626702 -0.176016 0.537717
    19 11.585358 0.000000 0.000001 0.000000 0.000000 -1.915374
    20 10.127058 0.000000 0.000001 1.272847 0.452489 -1.380493
    21 1.537458 0.109715 1.664489 -0.264662 -0.055995 0.783079
    22 0.928313 0.000000 0.000002 0.000000 0.000000 -0.453501
    23 0.928311 0.000000 0.000001 0.000000 0.000000 0.000000
    24 2.686395 -0.427337 0.044204 -0.005762 0.043239 -0.157074
    25 1.435260 0.000000 0.000001 0.000000 0.000000 0.732613
    26 1.482593 0.000000 -0.000001 0.000000 0.000000 1.168644
    27 2.046984 0.000001 0.000000 0.314505 0.237680 -0.735367
    28 -0.000005 0.000007 3.713254 -0.099865 -3.047656 5.708027
    29 18.045723 0.000000 0.000000 0.000000 0.000000 -0.416505
    30 17.597597 0.000000 0.000000 -0.057151 -0.016918 -0.159969
    31 0.000005 -0.000003 -3.713254 0.807324 2.831905 6.176337
    32 18.045721 0.000000 0.000000 0.000000 0.000000 -0.781620
    33 17.597597 0.000000 0.000000 0.179028 0.125884 0.485631
  time 2
    0 0.305662 4.027618 0.368674 0.000000 0.000000 -1.571017
    1 0.992214 0.156255 0.000000 -1.570795 -1.570787 0.000000
    2 1.293670 0.684478 -0.000001 0.000047 0.073776 0.047840
    3 5.309685 -0.003834 0.000000 -0.001174 -0.071440 -0.052803
    4 4.826790 -0.004591 0.000000 -0.170563 -0.010630 -0.170335
    5 5.792767 -0.005304 0.000000 -0.133325 -0.038974 -0.256189
    6 6.662322 -0.001452 0.000000 -0.016179 0.004411 0.589853
    7 -2.928495 1.801988 4.351345 1.009329 -1.216554 -4.710550
    8 4.827512 0.000000 -0.000002 -0.018259 0.789628 -1.708167
    9 11.140032 0.000000 0.000000 0.000000 0.000000 -1.512871
    10 10.314563 -0.000001 0.000001 -0.504277 -0.357079 0.237841
    11 1.646836 0.445664 -1.699647 -0.161704 0.581044 -0.283978
    12 0.928312 0.000000 0.000000 0.000000 0.000000 0.000000
    13 0.928313 0.000000 -0.000001 0.000000 0.000000 0.000000
    14 2.979373 -0.388274 -0.044205 -0.041673 -0.012835 1.254620
    15 1.435262 -0.000001 -0.000001 0.000000 0.000000 0.872146
    16 1.482593 -0.000001 0.000001 0.000000 0.000000 0.907041
    17 -2.670674 1.786398 -4.128677 0.802780 1.264871 -2.951903
    18 4.972047 0.000000 0.000000 -1.644711 -0.156170 0.547101
    19 11.585358 0.000000 0.000001 0.000000 0.000000 -1.915374
    20 10.127058 0.000000 0.000001 1.272637 0.452395 -1.380993
    21 1.537458 0.109715 1.664489 -0.264662 -0.055995 0.783079
    22 0.928313 0.000000 0.000002 0.000000 0.000000 -0.453501
    23 0.928311 0.000000 0.000001 0.000000 0.000000 0.000000
    24 2.686395 -0.427337 0.044204 -0.005762 0.043239 -0.157074
    25 1.435260 0.000000 0.000001 0.000000 0.000000 0.732613
    26 1.482593 0.000000 -0.000001 0.000000 0.000000 1.168644
    27 2.046984 0.000001 0.000000 0.313945 0.234464 -0.708419
    28 -0.000005 0.000007 3.713254 -0.099674 -3.047369 5.707356
    29 18.045723 0.000000 0.000000 0.000000 0.000000 -0.419539
    30 17.597597 0.000000 0.000000 -0.057075 -0.017066 -0.157631
    31 0.000005 -0.000003 -3.713254 0.807612 2.832289 6.177488
    32 18.045721 0.000000 0.000000 0.000000 0.000000 -0.780912
    33 17.597597 0.000000 0.000000 0.179062 0.126574 0.485955
  time 3
    0 0.293943 3.996367 0.368674 0.000000 0.000000 -1.571017
    1 0.992214 0.156255 0.000000 -1.570795 -1.570787 0.000000
    2 1.293670 0.684478 -0.000001 0.000047 0.073776 0.047840
    3 5.309685 -0.003834 0.000000 -0.001719 -0.069702 -0.046709
    4 4.826790 -0.004591 0.000000 -0.168636 -0.012092 -0.185438
    5 5.792767 -0.005304 0.000000 -0.132174 -0.041862 -0.273692
    6 6.662322 -0.001452 0.000000 -0.013507 0.007490 0.631806
    7 -2.862086 1.934805 4.339626 1.002236 -1.214159 -4.745906
    8 4.827512 0.000000 -0.000002 -0.038188 0.811714 -1.718565
    9 11.140032 0.000000 0.000000 0.000000 0.000000 -1.512871
    10 10.314563 -0.000001 0.000001 -0.504277 -0.357079 0.237841
    11 1.646836 0.445664 -1.699647 -0.161704 0.581044 -0.283978
    12 0.928312 0.000000 0.000000 0.000000 0.000000 0.000000
    13 0.928313 0.000000 -0.000001 0.000000 0.000000 0.000000
    14 2.979373 -0.388274 -0.044205 -0.041673 -0.012835 1.254620
    15 1.435262 -0.000001 -0.000001 0.000000 0.000000 0.872146
    16 1.482593 -0.000001 0.000001 0.000000 0.000000 0.907041
    17 -2.588640 1.891870 -4.140396 0.830580 1.272154 -2.965696
    18 4.972047 0.000000 0.000000 -1.666097 -0.139618 0.556352
    19 11.585358 0.000000 0.000001 0.000000 0.000000 -1.915619
    20 10.127058 0.000000 0.000001 1.271655 0.451544 -1.383594
    21 1.537458 0.109715 1.664489 -0.264662 -0.055995 0.783079
    22 0.928313 0.000000 0.000002 0.000000 0.000000 -0.453501
    23 0.928311 0.000000 0.000001 0.000000 0.000000 0.000000
    24 2.686395 -0.427337 0.044204 -0.005762 0.043239 -0.157074
    25 1.435260 0.000000 0.000001 0.000000 0.000000 0.732613
    26 1.482593 0.000000 -0.000001 0.000000 0.000000 1.168644
    27 2.046984 0.000001 0.000000 0.310843 0.228888 -0.734576
    28 -0.000005 0.000007 3.713254 -0.099482 -3.047177 5.706685
    29 18.045723 0.000000 0.000000 0.000000 0.000000 -0.422352
    30 17.597597 0.000000 0.000000 -0.057075 -0.017214 -0.155430
    31 0.000005 -0.000003 -3.713254 0.807612 2.832481 6.178734
    32 18.045721 0.000000 0.000000 0.000000 0.000000 -0.780046
    33 17.597597 0.000000 0.000000 0.179096 0.127186 0.486232
  time 4
    0 0.293943 3.972928 0.368674 0.000000 0.000000 -1.571017
    1 0.992214 0.156255 0.000000 -1.570795 -1.570787 0.000000
    2 1.293670 0.684478 -0.000001 0.000047 0.073776 0.047840
    3 5.309685 -0.003834 0.000000 -0.002246 -0.068084 -0.041022
    4 4.826790 -0.004591 0.000000 -0.167015 -0.013351 -0.198358
    5 5.792767 -0.005304 0.000000 -0.131041 -0.044499 -0.289970
    6 6.662322 -0.001452 0.000000 -0.010654 0.010444 0.673702
    7 -2.795678 2.063715 4.339626 0.994759 -1.211823 -4.780976
    8 4.827512 0.000000 -0.000002 -0.056443 0.831156 -1.728530
    9 11.140032 0.000000 0.000000 0.000000 0.000000 -1.512871
    10 10.314563 -0.000001 0.000001 -0.504277 -0.357079 0.237841
    11 1.646836 0.445664 -1.699647 -0.161704 0.581044 -0.283978
    12 0.928312 0.000000 0.000000 0.000000 0.000000 0.000000
    13 0.928313 0.000000 -0.000001 0.000000 0.000000 0.000000
    14 2.979373 -0.388274 -0.044205 -0.041673 -0.012835 1.254620
    15 1.435262 -0.000001 -0.000001 0.000000 0.000000 0.872146
    16 1.482593 -0.000001 0.000001 0.000000 0.000000 0.907041
    17 -2.490981 1.985622 -4.140396 0.864112 1.280514 -2.973550
    18 4.972047 0.000000 0.000000 -1.686920 -0.125878 0.564006
    19 11.585358 0.000000 0.000001 0.000000 0.000000 -1.915946
    20 10.127058 0.000000 0.000001 1.270393 0.450504 -1.386745
    21 1.537458 0.109715 1.664489 -0.264662 -0.055995 0.783079
    22 0.928313 0.000000 0.000002 0.000000 0.000000 -0.453501
    23 0.928311 0.000000 0.000001 0.000000 0.000000 0.000000
    24 2.686395 -0.427337 0.044204 -0.005762 0.043239 -0.157074
    25 1.435260 0.000000 0.000001 0.000000 0.000000 0.732613
    26 1.482593 0.000000 -0.000001 0.000000 0.000000 1.168644
    27 2.046984 0.000001 0.000000 0.308043 0.223725 -0.763409
    28 -0.000005 0.000007 3.713254 -0.099386 -3.046985 5.706206
    29 18.045723 0.000000 0.000000 0.000000 0.000000 -0.424646
    30 17.597597 0.000000 0.000000 -0.057050 -0.017337 -0.153597
    31 0.000005 -0.000003 -3.713254 0.807899 2.832768 6.179597
    32 18.045721 0.000000 0.000000 0.000000 0.000000 -0.779495
    33 17.597597 0.000000 0.000000 0.179096 0.127718 0.486417
  time 5
    0 0.293943 3.965116 0.368674 0.000000 0.000000 -1.571017
    1 0.992214 0.156255 0.000000 -1.570795 -1.570787 0.000000
    2 1.293670 0.684478 -0.000001 0.000047 0.073776 0.047840
    3 5.309685 -0.003834 0.000000 -0.002672 -0.066694 -0.036146
    4 4.826790 -0.004591 0.000000 -0.165813 -0.014202 -0.207530
    5 5.792767 -0.005304 0.000000 -0.130015 -0.046560 -0.304047
    6 6.662322 -0.001452 0.000000 -0.007706 0.013290 0.715684
    7 -2.713644 2.188719 4.324000 0.987283 -1.209605 -4.815950
    8 4.827512 0.000000 -0.000002 -0.070952 0.846335 -1.736415
    9 11.140032 0.000000 0.000000 0.000000 0.000000 -1.512871
    10 10.314563 -0.000001 0.000001 -0.504277 -0.357079 0.237841
    11 1.646836 0.445664 -1.699647 -0.161704 0.581044 -0.283978
    12 0.928312 0.000000 0.000000 0.000000 0.000000 0.000000
    13 0.928313 0.000000 -0.000001 0.000000 0.000000 0.000000
    14 2.979373 -0.388274 -0.044205 -0.041673 -0.012835 1.254620
    15 1.435262 -0.000001 -0.000001 0.000000 0.000000 0.872146
    16 1.482593 -0.000001 0.000001 0.000000 0.000000 0.907041
    17 -2.397228 2.079375 -4.156022 0.901273 1.289058 -2.977573
    18 4.972047 0.000000 0.000000 -1.705024 -0.116236 0.569663
    19 11.585358 0.000000 0.000001 0.000000 0.000000 -1.916191
    20 10.127058 0.000000 0.000001 1.269060 0.449463 -1.390097
    21 1.537458 0.109715 1.664489 -0.264662 -0.055995 0.783079
    22 0.928313 0.000000 0.000002 0.000000 0.000000 -0.453501
    23 0.928311 0.000000 0.000001 0.000000 0.000000 0.000000
    24 2.686395 -0.427337 0.044204 -0.005762 0.043239 -0.157074
    25 1.435260 0.000000 0.000001 0.000000 0.000000 0.732613
    26 1.482593 0.000000 -0.000001 0.000000 0.000000 1.168644
    27 2.046984 0.000001 0.000000 0.305415 0.219270 -0.797473
    28 -0.000005 0.000007 3.713254 -0.099386 -3.046985 5.705918
    29 18.045723 0.000000 0.000000 0.000000 0.000000 -0.426052
    30 17.597597 0.000000 0.000000 -0.057050 -0.017411 -0.152542
    31 0.000005 -0.000003 -3.713254 0.807899 2.832864 6.180172
    32 18.045721 0.000000 0.000000 0.000000 0.000000 -0.779180
    33 17.597597 0.000000 0.000000 0.179096 0.128034 0.486555
  time 6
    0 0.293943 3.953397 0.368674 0.000000 0.000000 -1.571017
    1 0.992214 0.156255 0.000000 -1.570795 -1.570787 0.000000
    2 1.293670 0.684478 -0.000001 0.000047 0.073776 0.047840
    3 5.309685 -0.003834 0.000000 -0.002995 -0.065676 -0.032472
    4 4.826790 -0.004591 0.000000 -0.165165 -0.014681 -0.212932
    5 5.792767 -0.005304 0.000000 -0.129170 -0.048190 -0.317543
    6 6.662322 -0.001452 0.000000 -0.004638 0.016025 0.757637
    7 -2.627704 2.309816 4.312281 0.979615 -1.207476 -4.850636
    8 4.827512 0.000000 -0.000002 -0.083149 0.859040 -1.743260
    9 11.140032 0.000000 0.000000 0.000000 0.000000 -1.512871
    10 10.314563 -0.000001 0.000001 -0.504277 -0.357079 0.237841
    11 1.646836 0.445664 -1.699647 -0.161704 0.581044 -0.283978
    12 0.928312 0.000000 0.000000 0.000000 0.000000 0.000000
    13 0.928313 0.000000 -0.000001 0.000000 0.000000 0.000000
    14 2.979373 -0.388274 -0.044205 -0.041673 -0.012835 1.254620
    15 1.435262 -0.000001 -0.000001 0.000000 0.000000 0.872146
    16 1.482593 -0.000001 0.000001 0.000000 0.000000 0.907041
    17 -2.295663 2.165315 -4.163834 0.939200 1.297130 -2.980925
    18 4.972047 0.000000 0.000000 -1.721157 -0.108683 0.574122
    19 11.585358 0.000000 0.000001 0.000000 0.000000 -1.916518
    20 10.127058 0.000000 0.000001 1.267798 0.448518 -1.393398
    21 1.537458 0.109715 1.664489 -0.264662 -0.055995 0.783079
    22 0.928313 0.000000 0.000002 0.000000 0.000000 -0.453501
    23 0.928311 0.000000 0.000001 0.000000 0.000000 0.000000
    24 2.686395 -0.427337 0.044204 -0.005762 0.043239 -0.157074
    25 1.435260 0.000000 0.000001 0.000000 0.000000 0.732613
    26 1.482593 0.000000 -0.000001 0.000000 0.000000 1.168644
    27 2.046984 0.000001 0.000000 0.302959 0.215287 -0.834456
    28 -0.000005 0.000007 3.713254 -0.099290 -3.046889 5.705727
    29 18.045723 0.000000 0.000000 0.000000 0.000000 -0.426867
    30 17.597597 0.000000 0.000000 -0.057050 -0.017435 -0.151854
    31 0.000005 -0.000003 -3.713254 0.807899 2.832960 6.180555
    32 18.045721 0.000000 0.000000 0.000000 0.000000 -0.778944
    33 17.597597 0.000000 0.000000 0.179096 0.128251 0.486647
  time 7
    0 0.293943 3.945584 0.368674 0.000000 0.000000 -1.571017
    1 0.992214 0.156255 0.000000 -1.570795 -1.570787 0.000000
    2 1.293670 0.684478 -0.000001 0.000047 0.073776 0.047840
    3 5.309685 -0.003834 0.000000 -0.003233 -0.064933 -0.029964
    4 4.826790 -0.004591 0.000000 -0.164783 -0.014957 -0.215622
    5 5.792767 -0.005304 0.000000 -0.128360 -0.049377 -0.330063
    6 6.662322 -0.001452 0.000000 -0.001450 0.018608 0.799590
    7 -2.541764 2.427007 4.300562 0.971659 -1.205436 -4.885226
    8 4.827512 0.000000 -0.000002 -0.093512 0.869359 -1.748806
    9 11.140032 0.000000 0.000000 0.000000 0.000000 -1.512871
    10 10.314563 -0.000001 0.000001 -0.504277 -0.357079 0.237841
    11 1.646836 0.445664 -1.699647 -0.161704 0.581044 -0.283978
    12 0.928312 0.000000 0.000000 0.000000 0.000000 0.000000
    13 0.928313 0.000000 -0.000001 0.000000 0.000000 0.000000
    14 2.979373 -0.388274 -0.044205 -0.041673 -0.012835 1.254620
    15 1.435262 -0.000001 -0.000001 0.000000 0.000000 0.872146
    16 1.482593 -0.000001 0.000001 0.000000 0.000000 0.907041
    17 -2.198004 2.251256 -4.171647 0.974737 1.304070 -2.986672
    18 4.972047 0.000000 0.000000 -1.734851 -0.102657 0.577450
    19 11.585358 0.000000 0.000001 0.000000 0.000000 -1.916763
    20 10.127058 0.000000 0.000001 1.266676 0.447667 -1.396149
    21 1.537458 0.109715 1.664489 -0.264662 -0.055995 0.783079
    22 0.928313 0.000000 0.000002 0.000000 0.000000 -0.453501
    23 0.928311 0.000000 0.000001 0.000000 0.000000 0.000000
    24 2.686395 -0.427337 0.044204 -0.005762 0.043239 -0.157074
    25 1.435260 0.000000 0.000001 0.000000 0.000000 0.732613
    26 1.482593 0.000000 -0.000001 0.000000 0.000000 1.168644
    27 2.046984 0.000001 0.000000 0.300934 0.211599 -0.873813
    28 -0.000005 0.000007 3.713254 -0.099290 -3.046889 5.705631
    29 18.045723 0.000000 0.000000 0.000000 0.000000 -0.427459
    30 17.597597 0.000000 0.000000 -0.057050 -0.017484 -0.151442
    31 0.000005 -0.000003 -3.713254 0.808091 2.832960 6.180843
    32 18.045721 0.000000 0.000000 0.000000 0.000000 -0.778944
    33 17.597597 0.000000 0.000000 0.179028 0.128389 0.486647
  time 8
    0 0.293943 3.945584 0.368674 0.000000 0.000000 -1.571017
    1 0.992214 0.156255 0.000000 -1.570795 -1.570787 0.000000
    2 1.293670 0.684478 -0.000001 0.000047 0.073776 0.047840
    3 5.309685 -0.003834 0.000000 -0.003369 -0.064489 -0.028445
    4 4.826790 -0.004591 0.000000 -0.164783 -0.014957 -0.215622
    5 5.792767 -0.005304 0.000000 -0.128019 -0.049748 -0.337330
    6 6.662322 -0.001452 0.000000 -0.001450 0.018608 0.799590
    7 -2.541764 2.427007 4.300562 0.971659 -1.205436 -4.885226
    8 4.827512 0.000000 -0.000002 -0.098215 0.874134 -1.751319
    9 11.140032 0.000000 0.000000 0.000000 0.000000 -1.512871
    10 10.314563 -0.000001 0.000001 -0.504277 -0.357079 0.237841
    11 1.646836 0.445664 -1.699647 -0.161704 0.581044 -0.283978
    12 0.928312 0.000000 0.000000 0.000000 0.000000 0.000000
    13 0.928313 0.000000 -0.000001 0.000000 0.000000 0.000000
    14 2.979373 -0.388274 -0.044205 -0.041673 -0.012835 1.254620
    15 1.435262 -0.000001 -0.000001 0.000000 0.000000 0.872146
    16 1.482593 -0.000001 0.000001 0.000000 0.000000 0.907041
    17 -2.198004 2.251256 -4.171647 0.993080 1.307357 -2.967611
    18 4.972047 0.000000 0.000000 -1.742355 -0.100729 0.578781
    19 11.585358 0.000000 0.000001 0.000000 0.000000 -1.917008
    20 10.127058 0.000000 0.000001 1.265905 0.446910 -1.398100
    21 1.537458 0.109715 1.664489 -0.264662 -0.055995 0.783079
    22 0.928313 0.000000 0.000002 0.000000 0.000000 -0.453501
    23 0.928311 0.000000 0.000001 0.000000 0.000000 0.000000
    24 2.686395 -0.427337 0.044204 -0.005762 0.043239 -0.157074
    25 1.435260 0.000000 0.000001 0.000000 0.000000 0.732613
    26 1.482593 0.000000 -0.000001 0.000000 0.000000 1.168644
    27 2.046984 0.000001 0.000000 0.303045 0.210183 -0.858180
    28 -0.000005 0.000007 3.713254 -0.099290 -3.046889 5.705631
    29 18.045723 0.000000 0.000000 0.000000 0.000000 -0.427385
    30 17.597597 0.000000 0.000000 -0.057075 -0.017435 -0.151488
    31 0.000005 -0.000003 -3.713254 0.808091 2.832960 6.180747
    32 18.045721 0.000000 0.000000 0.000000 0.000000 -0.778944
    33 17.597597 0.000000 0.000000 0.178995 0.128389 0.486647
  time 9
    0 0.305662 3.957303 0.368674 0.000000 0.000000 -1.571017
    1 0.992214 0.156255 0.000000 -1.570795 -1.570787 0.000000
    2 1.293670 0.684478 -0.000001 0.000047 0.073776 0.047840
    3 5.309685 -0.003834 0.000000 -0.003369 -0.064417 -0.028215
    4 4.826790 -0.004591 0.000000 -0.165165 -0.014681 -0.212932
    5 5.792767 -0.005304 0.000000 -0.128253 -0.049101 -0.335129
    6 6.662322 -0.001452 0.000000 -0.001450 0.018608 0.799590
    7 -2.541764 2.427007 4.300562 0.971659 -1.205436 -4.885226
    8 4.827512 0.000000 -0.000002 -0.094070 0.869700 -1.748979
    9 11.140032 0.000000 0.000000 0.000000 0.000000 -1.512871
    10 10.314563 -0.000001 0.000001 -0.504277 -0.357079 0.237841
    11 1.646836 0.445664 -1.699647 -0.161704 0.581044 -0.283978
    12 0.928312 0.000000 0.000000 0.000000 0.000000 0.000000
    13 0.928313 0.000000 -0.000001 0.000000 0.000000 0.000000
    14 2.979373 -0.388274 -0.044205 -0.041673 -0.012835 1.254620
    15 1.435262 -0.000001 -0.000001 0.000000 0.000000 0.872146
    16 1.482593 -0.000001 0.000001 0.000000 0.000000 0.907041
    17 -2.198004 2.251256 -4.171647 1.004925 1.309355 -2.955543
    18 4.972047 0.000000 0.000000 -1.741605 -0.106192 0.577583
    19 11.585358 0.000000 0.000001 0.000000 0.000000 -1.917171
    20 10.127058 0.000000 0.000001 1.265414 0.446626 -1.399351
    21 1.537458 0.109715 1.664489 -0.264662 -0.055995 0.783079
    22 0.928313 0.000000 0.000002 0.000000 0.000000 -0.453501
    23 0.928311 0.000000 0.000001 0.000000 0.000000 0.000000
    24 2.686395 -0.427337 0.044204 -0.005762 0.043239 -0.157074
    25 1.435260 0.000000 0.000001 0.000000 0.000000 0.732613
    26 1.482593 0.000000 -0.000001 0.000000 0.000000 1.168644
    27 2.046984 0.000001 0.000000 0.305501 0.209563 -0.853253
    28 -0.000005 0.000007 3.713254 -0.099290 -3.046985 5.705823
    29 18.045723 0.000000 0.000000 0.000000 0.000000 -0.426348
    30 17.597597 0.000000 0.000000 -0.057126 -0.017361 -0.152359
    31 0.000005 -0.000003 -3.713254 0.808091 2.832768 6.180364
    32 18.045721 0.000000 0.000000 0.000000 0.000000 -0.779180
    33 17.597597 0.000000 0.000000 0.178961 0.128172 0.486463
  time 10
    0 0.305662 3.976835 0.368674 0.000000 0.000000 -1.571017
    1 0.992214 0.156255 0.000000 -1.570795 -1.570787 0.000000
    2 1.293670 0.684478 -0.000001 0.000047 0.073776 0.047840
    3 5.309685 -0.003834 0.000000 -0.003250 -0.064801 -0.029434
    4 4.826790 -0.004591 0.000000 -0.165813 -0.014202 -0.207530
    5 5.792767 -0.005304 0.000000 -0.129206 -0.047207 -0.322360
    6 6.662322 -0.001452 0.000000 -0.001450 0.018608 0.799590
    7 -2.541764 2.427007 4.300562 0.971659 -1.205436 -4.885226
    8 4.827512 0.000000 -0.000002 -0.080677 0.855544 -1.741441
    9 11.140032 0.000000 0.000000 0.000000 0.000000 -1.512871
    10 10.314563 -0.000001 0.000001 -0.504277 -0.357079 0.237841
    11 1.646836 0.445664 -1.699647 -0.161704 0.581044 -0.283978
    12 0.928312 0.000000 0.000000 0.000000 0.000000 0.000000
    13 0.928313 0.000000 -0.000001 0.000000 0.000000 0.000000
    14 2.979373 -0.388274 -0.044205 -0.041673 -0.012835 1.254620
    15 1.435262 -0.000001 -0.000001 0.000000 0.000000 0.872146
    16 1.482593 -0.000001 0.000001 0.000000 0.000000 0.907041
    17 -2.198004 2.251256 -4.171647 1.012568 1.310669 -2.947498
    18 4.972047 0.000000 0.000000 -1.732507 -0.119932 0.573523
    19 11.585358 0.000000 0.000001 0.000000 0.000000 -1.917253
    20 10.127058 0.000000 0.000001 1.265063 0.446248 -1.400151
    21 1.537458 0.109715 1.664489 -0.264662 -0.055995 0.783079
    22 0.928313 0.000000 0.000002 0.000000 0.000000 -0.453501
    23 0.928311 0.000000 0.000001 0.000000 0.000000 0.000000
    24 2.686395 -0.427337 0.044204 -0.005762 0.043239 -0.157074
    25 1.435260 0.000000 0.000001 0.000000 0.000000 0.732613
    26 1.482593 0.000000 -0.000001 0.000000 0.000000 1.168644
    27 2.046984 0.000001 0.000000 0.308129 0.209888 -0.860005
    28 -0.000005 0.000007 3.713254 -0.099386 -3.047273 5.706302
    29 18.045723 0.000000 0.000000 0.000000 0.000000 -0.424350
    30 17.597597 0.000000 0.000000 -0.057202 -0.017189 -0.153826
    31 0.000005 -0.000003 -3.713254 0.807899 2.832481 6.179501
    32 18.045721 0.000000 0.000000 0.000000 0.000000 -0.779731
    33 17.597597 0.000000 0.000000 0.178894 0.127758 0.486232
  time 11
    0 0.305662 4.015899 0.368674 0.000000 0.000000 -1.571017
    1 0.992214 0.156255 0.000000 -1.570795 -1.570787 0.000000
    2 1.293670 0.684478 -0.000001 0.000047 0.073776 0.047840
    3 5.309685 -0.003834 0.000000 -0.002995 -0.065676 -0.032472
    4 4.826790 -0.004591 0.000000 -0.167168 -0.013243 -0.197278
    5 5.792767 -0.005304 0.000000 -0.130555 -0.044487 -0.302822
    6 6.662322 -0.001452 0.000000 -0.001450 0.018608 0.799590
    7 -2.541764 2.427007 4.300562 0.971659 -1.205436 -4.885226
    8 4.827512 0.000000 -0.000002 -0.059552 0.833032 -1.729916
    9 11.140032 0.000000 0.000000 0.000000 0.000000 -1.512871
    10 10.314563 -0.000001 0.000001 -0.504277 -0.357079 0.237841
    11 1.646836 0.445664 -1.699647 -0.161704 0.581044 -0.283978
    12 0.928312 0.000000 0.000000 0.000000 0.000000 0.000000
    13 0.928313 0.000000 -0.000001 0.000000 0.000000 0.000000
    14 2.979373 -0.388274 -0.044205 -0.041673 -0.012835 1.254620
    15 1.435262 -0.000001 -0.000001 0.000000 0.000000 0.872146
    16 1.482593 -0.000001 0.000001 0.000000 0.000000 0.907041
    17 -2.198004 2.251256 -4.171647 1.015721 1.311195 -2.944337
    18 4.972047 0.000000 0.000000 -1.716373 -0.140823 0.566868
    19 11.585358 0.000000 0.000001 0.000000 0.000000 -1.917253
    20 10.127058 0.000000 0.000001 1.264923 0.446248 -1.400451
    21 1.537458 0.109715 1.664489 -0.264662 -0.055995 0.783079
    22 0.928313 0.000000 0.000002 0.000000 0.000000 -0.453501
    23 0.928311 0.000000 0.000001 0.000000 0.000000 0.000000
    24 2.686395 -0.427337 0.044204 -0.005762 0.043239 -0.157074
    25 1.435260 0.000000 0.000001 0.000000 0.000000 0.732613
    26 1.482593 0.000000 -0.000001 0.000000 0.000000 1.168644
    27 2.046984 0.000001 0.000000 0.311188 0.211422 -0.876307
    28 -0.000005 0.000007 3.713254 -0.099482 -3.047560 5.706877
    29 18.045723 0.000000 0.000000 0.000000 0.000000 -0.421241
    30 17.597597 0.000000 0.000000 -0.057303 -0.016918 -0.156256
    31 0.000005 -0.000003 -3.713254 0.807899 2.832001 6.178255
    32 18.045721 0.000000 0.000000 0.000000 0.000000 -0.780518
    33 17.597597 0.000000 0.000000 0.178794 0.127146 0.485816
  time 12
    0 0.305662 4.027618 0.368674 0.000000 0.000000 -1.571017
    1 0.992214 0.156255 0.000000 -1.570795 -1.570787 0.000000
    2 1.293670 0.684478 -0.000001 0.000047 0.073776 0.047840
    3 5.309685 -0.003834 0.000000 -0.002178 -0.068312 -0.041781
    4 4.826790 -0.004591 0.000000 -0.169075 -0.011805 -0.182219
    5 5.792767 -0.005304 0.000000 -0.132084 -0.041275 -0.279713
    6 6.662322 -0.001452 0.000000 -0.001450 0.018608 0.799590
    7 -2.541764 2.427007 4.300562 0.971659 -1.205436 -4.885226
    8 4.827512 0.000000 -0.000002 -0.037072 0.809326 -1.717872
    9 11.140032 0.000000 0.000000 0.000000 0.000000 -1.512871
    10 10.314563 -0.000001 0.000001 -0.504277 -0.357079 0.237841
    11 1.646836 0.445664 -1.699647 -0.161704 0.581044 -0.283978
    12 0.928312 0.000000 0.000000 0.000000 0.000000 0.000000
    13 0.928313 0.000000 -0.000001 0.000000 0.000000 0.000000
    14 2.979373 -0.388274 -0.044205 -0.041673 -0.012835 1.254620
    15 1.435262 -0.000001 -0.000001 0.000000 0.000000 0.872146
    16 1.482593 -0.000001 0.000001 0.000000 0.000000 0.907041
    17 -2.198004 2.251256 -4.171647 1.013905 1.310880 -2.946348
    18 4.972047 0.000000 0.000000 -1.698270 -0.162678 0.559347
    19 11.585358 0.000000 0.000001 0.000000 0.000000 -1.917253
    20 10.127058 0.000000 0.000001 1.264993 0.446248 -1.400251
    21 1.537458 0.109715 1.664489 -0.264662 -0.055995 0.783079
    22 0.928313 0.000000 0.000002 0.000000 0.000000 -0.453501
    23 0.928311 0.000000 0.000001 0.000000 0.000000 0.000000
    24 2.686395 -0.427337 0.044204 -0.005762 0.043239 -0.157074
    25 1.435260 0.000000 0.000001 0.000000 0.000000 0.732613
    26 1.482593 0.000000 -0.000001 0.000000 0.000000 1.168644
    27 2.046984 0.000001 0.000000 0.314161 0.213782 -0.894494
    28 -0.000005 0.000007 3.713254 -0.099482 -3.047656 5.707260
    29 18.045723 0.000000 0.000000 0.000000 0.000000 -0.419539
    30 17.597597 0.000000 0.000000 -0.057354 -0.016943 -0.157631
    31 0.000005 -0.000003 -3.713254 0.807899 2.831905 6.177583
    32 18.045721 0.000000 0.000000 0.000000 0.000000 -0.780912
    33 17.597597 0.000000 0.000000 0.178693 0.126713 0.485770
  time 13
    0 0.293943 4.027618 0.368674 0.000000 0.000000 -1.571017
    1 0.992214 0.156255 0.000000 -1.570795 -1.570787 0.000000
    2 1.293670 0.684478 -0.000001 0.000047 0.073776 0.047840
    3 5.309685 -0.003834 0.000000 -0.000902 -0.072219 -0.055576
    4 4.826790 -0.004591 0.000000 -0.171116 -0.010187 -0.165506
    5 5.792767 -0.005304 0.000000 -0.133541 -0.037991 -0.256251
    6 6.662322 -0.001452 0.000000 -0.004638 0.016025 0.757637
    7 -2.627704 2.309816 4.312281 0.979615 -1.207476 -4.850636
    8 4.827512 0.000000 -0.000002 -0.016984 0.787837 -1.707300
    9 11.140032 0.000000 0.000000 0.000000 0.000000 -1.512871
    10 10.314563 -0.000001 0.000001 -0.504277 -0.357079 0.237841
    11 1.646836 0.445664 -1.699647 -0.161704 0.581044 -0.283978
    12 0.928312 0.000000 0.000000 0.000000 0.000000 0.000000
    13 0.928313 0.000000 -0.000001 0.000000 0.000000 0.000000
    14 2.979373 -0.388274 -0.044205 -0.041673 -0.012835 1.254620
    15 1.435262 -0.000001 -0.000001 0.000000 0.000000 0.872146
    16 1.482593 -0.000001 0.000001 0.000000 0.000000 0.907041
    17 -2.295663 2.165315 -4.163834 0.995181 1.307751 -2.922882
    18 4.972047 0.000000 0.000000 -1.680824 -0.181882 0.551893
    19 11.585358 0.000000 0.000001 0.000000 0.000000 -1.917171
    20 10.127058 0.000000 0.000001 1.265414 0.446437 -1.399501
    21 1.537458 0.109715 1.664489 -0.264662 -0.055995 0.783079
    22 0.928313 0.000000 0.000002 0.000000 0.000000 -0.453501
    23 0.928311 0.000000 0.000001 0.000000 0.000000 0.000000
    24 2.686395 -0.427337 0.044204 -0.005762 0.043239 -0.157074
    25 1.435260 0.000000 0.000001 0.000000 0.000000 0.732613
    26 1.482593 0.000000 -0.000001 0.000000 0.000000 1.168644
    27 2.046984 0.000001 0.000000 0.314419 0.220686 -0.878314
    28 -0.000005 0.000007 3.713254 -0.099386 -3.047369 5.707356
    29 18.045723 0.000000 0.000000 0.000000 0.000000 -0.419613
    30 17.597597 0.000000 0.000000 -0.057227 -0.017214 -0.157539
    31 0.000005 -0.000003 -3.713254 0.807899 2.832193 6.177679
    32 18.045721 0.000000 0.000000 0.000000 0.000000 -0.780912
    33 17.597597 0.000000 0.000000 0.178693 0.126574 0.485955
  time 14
    0 0.293943 4.047150 0.368674 0.000000 0.000000 -1.571017
    1 0.992214 0.156255 0.000000 -1.570795 -1.570787 0.000000
    2 1.293670 0.684478 -0.000001 0.000047 0.073776 0.047840
    3 5.309685 -0.003834 0.000000 -0.000017 -0.074808 -0.064567
    4 4.826790 -0.004591 0.000000 -0.172985 -0.008689 -0.150425
    5 5.792767 -0.005304 0.000000 -0.134728 -0.035139 -0.235696
    6 6.662322 -0.001452 0.000000 -0.007706 0.013290 0.715684
    7 -2.713644 2.188719 4.324000 0.987283 -1.209605 -4.815950
    8 4.827512 0.000000 -0.000002 0.002547 0.765751 -1.697596
    9 11.140032 0.000000 0.000000 0.000000 0.000000 -1.512871
    10 10.314563 -0.000001 0.000001 -0.504277 -0.357079 0.237841
    11 1.646836 0.445664 -1.699647 -0.161704 0.581044 -0.283978
    12 0.928312 0.000000 0.000000 0.000000 0.000000 0.000000
    13 0.928313 0.000000 -0.000001 0.000000 0.000000 0.000000
    14 2.979373 -0.388274 -0.044205 -0.041673 -0.012835 1.254620
    15 1.435262 -0.000001 -0.000001 0.000000 0.000000 0.872146
    16 1.482593 -0.000001 0.000001 0.000000 0.000000 0.907041
    17 -2.397228 2.079375 -4.156022 0.970916 1.303545 -2.905067
    18 4.972047 0.000000 0.000000 -1.661501 -0.200362 0.543573
    19 11.585358 0.000000 0.000001 0.000000 0.000000 -1.917008
    20 10.127058 0.000000 0.000001 1.265905 0.446910 -1.398100
    21 1.537458 0.109715 1.664489 -0.264662 -0.055995 0.783079
    22 0.928313 0.000000 0.000002 0.000000 0.000000 -0.453501
    23 0.928311 0.000000 0.000001 0.000000 0.000000 0.000000
    24 2.686395 -0.427337 0.044204 -0.005762 0.043239 -0.157074
    25 1.435260 0.000000 0.000001 0.000000 0.000000 0.732613
    26 1.482593 0.000000 -0.000001 0.000000 0.000000 1.168644
    27 2.046984 0.000001 0.000000 0.314850 0.227531 -0.862438
    28 -0.000005 0.000007 3.713254 -0.099482 -3.047369 5.707740
    29 18.045723 0.000000 0.000000 0.000000 0.000000 -0.417911
    30 17.597597 0.000000 0.000000 -0.057278 -0.017214 -0.158915
    31 0.000005 -0.000003 -3.713254 0.807899 2.832097 6.177008
    32 18.045721 0.000000 0.000000 0.000000 0.000000 -0.781148
    33 17.597597 0.000000 0.000000 0.178592 0.126160 0.485862
  time 15
    0 0.305662 4.078400 0.368674 0.000000 0.000000 -1.571017
    1 0.992214 0.156255 0.000000 -1.570795 -1.570787 0.000000
    2 1.293670 0.684478 -0.000001 0.000047 0.073776 0.047840
    3 5.309685 -0.003834 0.000000 0.000153 -0.075503 -0.067075
    4 4.826790 -0.004591 0.000000 -0.174225 -0.007634 -0.140195
    5 5.792767 -0.005304 0.000000 -0.135592 -0.033054 -0.221183
    6 6.662322 -0.001452 0.000000 -0.010654 0.010444 0.673702
    7 -2.795678 2.063715 4.339626 0.994759 -1.211823 -4.780976
    8 4.827512 0.000000 -0.000002 0.018012 0.746735 -1.690230
    9 11.140032 0.000000 0.000000 0.000000 0.000000 -1.512871
    10 10.314563 -0.000001 0.000001 -0.504277 -0.357079 0.237841
    11 1.646836 0.445664 -1.699647 -0.161704 0.581044 -0.283978
    12 0.928312 0.000000 0.000000 0.000000 0.000000 0.000000
    13 0.928313 0.000000 -0.000001 0.000000 0.000000 0.000000
    14 2.979373 -0.388274 -0.044205 -0.041673 -0.012835 1.254620
    15 1.435262 -0.000001 -0.000001 0.000000 0.000000 0.872146
    16 1.482593 -0.000001 0.000001 0.000000 0.000000 0.907041
    17 -2.490981 1.985622 -4.140396 0.932321 1.296236 -2.902768
    18 4.972047 0.000000 0.000000 -1.641053 -0.213057 0.535121
    19 11.585358 0.000000 0.000001 0.000000 0.000000 -1.916681
    20 10.127058 0.000000 0.000001 1.267097 0.447950 -1.394999
    21 1.537458 0.109715 1.664489 -0.264662 -0.055995 0.783079
    22 0.928313 0.000000 0.000002 0.000000 0.000000 -0.453501
    23 0.928311 0.000000 0.000001 0.000000 0.000000 0.000000
    24 2.686395 -0.427337 0.044204 -0.005762 0.043239 -0.157074
    25 1.435260 0.000000 0.000001 0.000000 0.000000 0.732613
    26 1.482593 0.000000 -0.000001 0.000000 0.000000 1.168644
    27 2.046984 0.000001 0.000000 0.315152 0.233579 -0.842486
    28 -0.000005 0.000007 3.713254 -0.099674 -3.047752 5.708315
    29 18.045723 0.000000 0.000000 0.000000 0.000000 -0.414802
    30 17.597597 0.000000 0.000000 -0.057354 -0.016992 -0.161345
    31 0.000005 -0.000003 -3.713254 0.807899 2.831714 6.175858
    32 18.045721 0.000000 0.000000 0.000000 0.000000 -0.782014
    33 17.597597 0.000000 0.000000 0.178492 0.125509 0.485493
  time 16
    0 0.305662 4.094026 0.368674 0.000000 0.000000 -1.571017
    1 0.992214 0.156255 0.000000 -1.570795 -1.570787 0.000000
    2 1.293670 0.684478 -0.000001 0.000047 0.073776 0.047840
    3 5.309685 -0.003834 0.000000 0.000238 -0.075707 -0.067764
    4 4.826790 -0.004591 0.000000 -0.174759 -0.007215 -0.135895
    5 5.792767 -0.005304 0.000000 -0.135933 -0.032119 -0.214601
    6 6.662322 -0.001452 0.000000 -0.013507 0.007490 0.631806
    7 -2.862086 1.934805 4.339626 1.002236 -1.214159 -4.745906
    8 4.827512 0.000000 -0.000002 0.024868 0.738037 -1.686938
    9 11.140032 0.000000 0.000000 0.000000 0.000000 -1.512871
    10 10.314563 -0.000001 0.000001 -0.504277 -0.357079 0.237841
    11 1.646836 0.445664 -1.699647 -0.161704 0.581044 -0.283978
    12 0.928312 0.000000 0.000000 0.000000 0.000000 0.000000
    13 0.928313 0.000000 -0.000001 0.000000 0.000000 0.000000
    14 2.979373 -0.388274 -0.044205 -0.041673 -0.012835 1.254620
    15 1.435262 -0.000001 -0.000001 0.000000 0.000000 0.872146
    16 1.482593 -0.000001 0.000001 0.000000 0.000000 0.907041
    17 -2.588640 1.891870 -4.140396 0.880925 1.285246 -2.913304
    18 4.972047 0.000000 0.000000 -1.624544 -0.214182 0.529663
    19 11.585358 0.000000 0.000001 0.000000 0.000000 -1.916191
    20 10.127058 0.000000 0.000001 1.269060 0.449463 -1.390147
    21 1.537458 0.109715 1.664489 -0.264662 -0.055995 0.783079
    22 0.928313 0.000000 0.000002 0.000000 0.000000 -0.453501
    23 0.928311 0.000000 0.000001 0.000000 0.000000 0.000000
    24 2.686395 -0.427337 0.044204 -0.005762 0.043239 -0.157074
    25 1.435260 0.000000 0.000001 0.000000 0.000000 0.732613
    26 1.482593 0.000000 -0.000001 0.000000 0.000000 1.168644
    27 2.046984 0.000001 0.000000 0.315195 0.238152 -0.810612
    28 -0.000005 0.000007 3.713254 -0.099674 -3.047848 5.708698
    29 18.045723 0.000000 0.000000 0.000000 0.000000 -0.413248
    30 17.597597 0.000000 0.000000 -0.057430 -0.016845 -0.162491
    31 0.000005 -0.000003 -3.713254 0.807899 2.831522 6.175187
    32 18.045721 0.000000 0.000000 0.000000 0.000000 -0.782250
    33 17.597597 0.000000 0.000000 0.178458 0.125214 0.485308
  time 17
    0 0.305662 4.101839 0.368674 0.000000 0.000000 -1.571017
    1 0.992214 0.156255 0.000000 -1.570795 -1.570787 0.000000
    2 1.293670 0.684478 -0.000001 0.000047 0.073776 0.047840
    3 5.309685 -0.003834 0.000000 0.000187 -0.075563 -0.067252
    4 4.826790 -0.004591 0.000000 -0.174855 -0.007167 -0.135366
    5 5.792767 -0.005304 0.000000 -0.135969 -0.032011 -0.213750
    6 6.662322 -0.001452 0.000000 -0.016179 0.004411 0.589853
    7 -2.928495 1.801988 4.351345 1.009329 -1.216554 -4.710550
    8 4.827512 0.000000 -0.000002 0.026064 0.736502 -1.686504
    9 11.140032 0.000000 0.000000 0.000000 0.000000 -1.512871
    10 10.314563 -0.000001 0.000001 -0.504277 -0.357079 0.237841
    11 1.646836 0.445664 -1.699647 -0.161704 0.581044 -0.283978
    12 0.928312 0.000000 0.000000 0.000000 0.000000 0.000000
    13 0.928313 0.000000 -0.000001 0.000000 0.000000 0.000000
    14 2.979373 -0.388274 -0.044205 -0.041673 -0.012835 1.254620
    15 1.435262 -0.000001 -0.000001 0.000000 0.000000 0.872146
    16 1.482593 -0.000001 0.000001 0.000000 0.000000 0.907041
    17 -2.670674 1.786398 -4.128677 0.831058 1.273126 -2.922403
    18 4.972047 0.000000 0.000000 -1.613007 -0.208558 0.526802
    19 11.585358 0.000000 0.000001 0.000000 0.000000 -1.915701
    20 10.127058 0.000000 0.000001 1.271094 0.451165 -1.384995
    21 1.537458 0.109715 1.664489 -0.264662 -0.055995 0.783079
    22 0.928313 0.000000 0.000002 0.000000 0.000000 -0.453501
    23 0.928311 0.000000 0.000001 0.000000 0.000000 0.000000
    24 2.686395 -0.427337 0.044204 -0.005762 0.043239 -0.157074
    25 1.435260 0.000000 0.000001 0.000000 0.000000 0.732613
    26 1.482593 0.000000 -0.000001 0.000000 0.000000 1.168644
    27 2.046984 0.000001 0.000000 0.315195 0.241840 -0.770526
    28 -0.000005 0.000007 3.713254 -0.099674 -3.047944 5.708794
    29 18.045723 0.000000 0.000000 0.000000 0.000000 -0.412730
    30 17.597597 0.000000 0.000000 -0.057455 -0.016795 -0.162904
    31 0.000005 -0.000003 -3.713254 0.807899 2.831426 6.174995
    32 18.045721 0.000000 0.000000 0.000000 0.000000 -0.782486
    33 17.597597 0.000000 0.000000 0.178391 0.125095 0.485216
  time 18
    0 0.305662 4.101839 0.368674 0.000000 0.000000 -1.571017
    1 0.992214 0.156255 0.000000 -1.570795 -1.570787 0.000000
    2 1.293670 0.684478 -0.000001 0.000047 0.073776 0.047840
    3 5.309685 -0.003834 0.000000 0.000068 -0.075227 -0.066192
    4 4.826790 -0.004591 0.000000 -0.174664 -0.007323 -0.136954
    5 5.792767 -0.005304 0.000000 -0.135825 -0.032334 -0.216200
    6 6.662322 -0.001452 0.000000 -0.016179 0.004411 0.589853
    7 -2.928495 1.801988 4.351345 1.009329 -1.216554 -4.710550
    8 4.827512 0.000000 -0.000002 0.024071 0.738975 -1.687457
    9 11.140032 0.000000 0.000000 0.000000 0.000000 -1.512871
    10 10.314563 -0.000001 0.000001 -0.504277 -0.357079 0.237841
    11 1.646836 0.445664 -1.699647 -0.161704 0.581044 -0.283978
    12 0.928312 0.000000 0.000000 0.000000 0.000000 0.000000
    13 0.928313 0.000000 -0.000001 0.000000 0.000000 0.000000
    14 2.979373 -0.388274 -0.044205 -0.041673 -0.012835 1.254620
    15 1.435262 -0.000001 -0.000001 0.000000 0.000000 0.872146
    16 1.482593 -0.000001 0.000001 0.000000 0.000000 0.907041
    17 -2.670674 1.786398 -4.128677 0.802780 1.264871 -2.951903
    18 4.972047 0.000000 0.000000 -1.607004 -0.200924 0.526269
    19 11.585358 0.000000 0.000001 0.000000 0.000000 -1.915374
    20 10.127058 0.000000 0.000001 1.272637 0.452395 -1.380993
    21 1.537458 0.109715 1.664489 -0.264662 -0.055995 0.783079
    22 0.928313 0.000000 0.000002 0.000000 0.000000 -0.453501
    23 0.928311 0.000000 0.000001 0.000000 0.000000 0.000000
    24 2.686395 -0.427337 0.044204 -0.005762 0.043239 -0.157074
    25 1.435260 0.000000 0.000001 0.000000 0.000000 0.732613
    26 1.482593 0.000000 -0.000001 0.000000 0.000000 1.168644
    27 2.046984 0.000001 0.000000 0.315195 0.241486 -0.767606
    28 -0.000005 0.000007 3.713254 -0.099674 -3.047944 5.708794
    29 18.045723 0.000000 0.000000 0.000000 0.000000 -0.412952
    30 17.597597 0.000000 0.000000 -0.057506 -0.016795 -0.162812
    31 0.000005 -0.000003 -3.713254 0.807899 2.831426 6.175091
    32 18.045721 0.000000 0.000000 0.000000 0.000000 -0.782486
    33 17.597597 0.000000 0.000000 0.178357 0.125154 0.485216
  time 19
    0 0.305662 4.094026 0.368674 0.000000 0.000000 -1.571017
    1 0.992214 0.156255 0.000000 -1.570795 -1.570787 0.000000
    2 1.293670 0.684478 -0.000001 0.000047 0.073776 0.047840
    3 5.309685 -0.003834 0.000000 0.000000 -0.074940 -0.065079
    4 4.826790 -0.004591 0.000000 -0.174397 -0.007526 -0.139137
    5 5.792767 -0.005304 0.000000 -0.135645 -0.032838 -0.219522
    6 6.662322 -0.001452 0.000000 -0.016179 0.004411 0.589853
    7 -2.928495 1.801988 4.351345 1.009329 -1.216554 -4.710550
    8 4.827512 0.000000 -0.000002 0.021121 0.742557 -1.688671
    9 11.140032 0.000000 0.000000 0.000000 0.000000 -1.512871
    10 10.314563 -0.000001 0.000001 -0.504277 -0.357079 0.237841
    11 1.646836 0.445664 -1.699647 -0.161704 0.581044 -0.283978
    12 0.928312 0.000000 0.000000 0.000000 0.000000 0.000000
    13 0.928313 0.000000 -0.000001 0.000000 0.000000 0.000000
    14 2.979373 -0.388274 -0.044205 -0.041673 -0.012835 1.254620
    15 1.435262 -0.000001 -0.000001 0.000000 0.000000 0.872146
    16 1.482593 -0.000001 0.000001 0.000000 0.000000 0.907041
    17 -2.670674 1.786398 -4.128677 0.797908 1.263320 -2.957076
    18 4.972047 0.000000 0.000000 -1.608411 -0.196827 0.527467
    19 11.585358 0.000000 0.000001 0.000000 0.000000 -1.915293
    20 10.127058 0.000000 0.000001 1.272917 0.452489 -1.380292
    21 1.537458 0.109715 1.664489 -0.264662 -0.055995 0.783079
    22 0.928313 0.000000 0.000002 0.000000 0.000000 -0.453501
    23 0.928311 0.000000 0.000001 0.000000 0.000000 0.000000
    24 2.686395 -0.427337 0.044204 -0.005762 0.043239 -0.157074
    25 1.435260 0.000000 0.000001 0.000000 0.000000 0.732613
    26 1.482593 0.000000 -0.000001 0.000000 0.000000 1.168644
    27 2.046984 0.000001 0.000000 0.315022 0.240955 -0.763287
    28 -0.000005 0.000007 3.713254 -0.099674 -3.047944 5.708698
    29 18.045723 0.000000 0.000000 0.000000 0.000000 -0.413322
    30 17.597597 0.000000 0.000000 -0.057506 -0.016845 -0.162491
    31 0.000005 -0.000003 -3.713254 0.807899 2.831426 6.175283
    32 18.045721 0.000000 0.000000 0.000000 0.000000 -0.782250
    33 17.597597 0.000000 0.000000 0.178324 0.125233 0.485216
  time 20
    0 0.305662 4.090120 0.368674 0.000000 0.000000 -1.571017
    1 0.992214 0.156255 0.000000 -1.570795 -1.570787 0.000000
    2 1.293670 0.684478 -0.000001 0.000047 0.073776 0.047840
    3 5.309685 -0.003834 0.000000 -0.000017 -0.074808 -0.064567
    4 4.826790 -0.004591 0.000000 -0.174225 -0.007634 -0.140195
    5 5.792767 -0.005304 0.000000 -0.135592 -0.033054 -0.221183
    6 6.662322 -0.001452 0.000000 -0.016179 0.004411 0.589853
    7 -2.928495 1.801988 4.351345 1.009329 -1.216554 -4.710550
    8 4.827512 0.000000 -0.000002 0.019607 0.744603 -1.689364
    9 11.140032 0.000000 0.000000 0.000000 0.000000 -1.512871
    10 10.314563 -0.000001 0.000001 -0.504277 -0.357079 0.237841
    11 1.646836 0.445664 -1.699647 -0.161704 0.581044 -0.283978
    12 0.928312 0.000000 0.000000 0.000000 0.000000 0.000000
    13 0.928313 0.000000 -0.000001 0.000000 0.000000 0.000000
    14 2.979373 -0.388274 -0.044205 -0.041673 -0.012835 1.254620
    15 1.435262 -0.000001 -0.000001 0.000000 0.000000 0.872146
    16 1.482593 -0.000001 0.000001 0.000000 0.000000 0.907041
    17 -2.670674 1.786398 -4.128677 0.802780 1.264871 -2.951903
    18 4.972047 0.000000 0.000000 -1.611319 -0.196103 0.528599
    19 11.585358 0.000000 0.000001 0.000000 0.000000 -1.915374
    20 10.127058 0.000000 0.000001 1.272637 0.452395 -1.380993
    21 1.537458 0.109715 1.664489 -0.264662 -0.055995 0.783079
    22 0.928313 0.000000 0.000002 0.000000 0.000000 -0.453501
    23 0.928311 0.000000 0.000001 0.000000 0.000000 0.000000
    24 2.686395 -0.427337 0.044204 -0.005762 0.043239 -0.157074
    25 1.435260 0.000000 0.000001 0.000000 0.000000 0.732613
    26 1.482593 0.000000 -0.000001 0.000000 0.000000 1.168644
    27 2.046984 0.000001 0.000000 0.314979 0.240719 -0.760975
    28 -0.000005 0.000007 3.713254 -0.099865 -3.047848 5.708602
    29 18.045723 0.000000 0.000000 0.000000 0.000000 -0.413544
    30 17.597597 0.000000 0.000000 -0.057202 -0.016721 -0.162308
    31 0.000005 -0.000003 -3.713254 0.807324 2.831618 6.175091
    32 18.045721 0.000000 0.000000 0.000000 0.000000 -0.782250
    33 17.597597 0.000000 0.000000 0.178995 0.125233 0.485354
end
