version 1
nodes
  0 "Bip01" -1
  1 "Bip01 Pelvis" 0
  2 "Bip01 Spine" 1
  3 "Bip01 Spine1" 2
  4 "Bip01 Spine2" 3
  5 "Bip01 Spine3" 4
  6 "Bip01 Neck" 5
  7 "Bip01 L Arm" 6
  8 "Bip01 L Arm1" 7
  9 "Bip01 L Arm2" 8
  10 "Bip01 L Hand" 9
  11 "Bip01 L Finger0" 10
  12 "Bip01 L Finger01" 11
  13 "Bip01 L Finger02" 12
  14 "Bip01 L Finger1" 10
  15 "Bip01 L Finger11" 14
  16 "Bip01 L Finger12" 15
  17 "Bip01 R Arm" 6
  18 "Bip01 R Arm1" 17
  19 "Bip01 R Arm2" 18
  20 "Bip01 R Hand" 19
  21 "Bip01 R Finger0" 20
  22 "Bip01 R Finger01" 21
  23 "Bip01 R Finger02" 22
  24 "Bip01 R Finger1" 20
  25 "Bip01 R Finger11" 24
  26 "Bip01 R Finger12" 25
  27 "Bip01 Head" 6
  28 "Bip01 L Leg" 1
  29 "Bip01 L Leg1" 28
  30 "Bip01 L Foot" 29
  31 "Bip01 R Leg" 1
  32 "Bip01 R Leg1" 31
  33 "Bip01 R Foot" 32
end
skeleton
  time 0
    0 0.157220 3.636981 1.540585 0.000000 0.000000 -1.571017
    1 0.992214 -0.253914 0.000000 -1.570795 -1.570787 0.000000
    2 1.293670 0.684478 -0.000001 0.000266 0.025358 0.010374
    3 5.309685 -0.003834 0.000000 -0.073616 -0.036146 -0.007902
    4 4.826790 -0.004591 0.000000 -0.145976 -0.046332 -0.193419
    5 5.792767 -0.005304 0.000000 -0.172017 -0.069786 -0.070196
    6 6.662322 -0.001452 0.000000 0.000072 0.095988 0.471000
    7 -3.506637 1.516823 4.031023 1.299476 -1.381225 -4.925853
    8 4.827512 0.000000 -0.000002 -1.298673 0.574056 -1.615624
    9 11.140032 0.000000 0.000000 0.000000 0.000000 -0.999032
    10 10.314563 -0.000001 0.000001 -3.049115 0.302187 -0.161518
    11 1.646836 0.445664 -1.699647 0.993049 1.047208 -0.378175
    12 0.928312 0.000000 0.000000 0.000000 0.000000 1.029733
    13 0.928313 0.000000 -0.000001 0.000000 0.000000 0.410081
    14 2.979373 -0.388274 -0.044205 -0.270039 -0.127227 0.519437
    15 1.435262 -0.000001 -0.000001 0.000000 0.000000 0.767708
    16 1.482593 -0.000001 0.000001 0.000000 0.000000 0.495031
    17 -2.471449 1.399667 -4.390404 0.432117 1.255170 -3.213288
    18 4.972047 0.000000 0.000000 -0.530478 -1.058896 -0.328102
    19 11.585358 0.000000 0.000001 0.000000 0.000000 -2.015269
    20 10.127058 0.000000 0.000001 1.760770 0.483885 0.138212
    21 1.537458 0.109715 1.664489 -3.078535 -0.186288 0.914916
    22 0.928313 0.000000 0.000002 0.000000 0.000000 0.061034
    23 0.928311 0.000000 0.000001 0.000000 0.000000 0.671897
    24 2.686395 -0.427337 0.044204 0.006330 0.043192 0.122300
    25 1.435260 0.000000 0.000001 0.000000 0.000000 1.186618
    26 1.482593 0.000000 -0.000001 0.000000 0.000000 1.404984
    27 2.046984 0.000001 0.000000 0.359312 0.202748 -0.431041
    28 -0.000005 0.000007 3.713254 -0.108302 -3.067502 5.834370
    29 18.045723 0.000000 0.000000 0.000000 0.000000 -0.437229
    30 17.597597 0.000000 0.000000 -0.062219 -0.012021 -0.011838
    31 0.000005 -0.000003 -3.713254 0.557847 3.012710 -0.015293
    32 18.045721 0.000000 0.000000 0.000000 0.000000 -0.537909
    33 17.597597 0.000000 0.000000 0.062403 0.093360 0.458196
  time 1
    0 0.157220 3.636981 1.540585 0.000000 0.000000 -1.571017
    1 1.023465 -0.261727 0.000000 -1.570795 -1.570787 0.000000
    2 1.293670 0.684478 -0.000001 0.000266 0.025358 0.010374
    3 5.309685 -0.003834 0.000000 -0.074075 -0.034504 -0.002232
    4 4.826790 -0.004591 0.000000 -0.144164 -0.047723 -0.208060
    5 5.792767 -0.005304 0.000000 -0.171351 -0.072794 -0.087367
    6 6.662322 -0.001452 0.000000 0.000072 0.095988 0.471000
    7 -3.506637 1.516823 4.031023 1.299476 -1.381225 -4.925853
    8 4.827512 0.000000 -0.000002 -1.309992 0.598700 -1.622210
    9 11.140032 0.000000 0.000000 0.000000 0.000000 -0.989540
    10 10.314563 -0.000001 0.000001 -3.049021 0.302280 -0.171447
    11 1.646836 0.445664 -1.699647 0.993049 1.047208 -0.378175
    12 0.928312 0.000000 0.000000 0.000000 0.000000 1.029733
    13 0.928313 0.000000 -0.000001 0.000000 0.000000 0.410081
    14 2.979373 -0.388274 -0.044205 -0.270039 -0.127227 0.519437
    15 1.435262 -0.000001 -0.000001 0.000000 0.000000 0.767708
    16 1.482593 -0.000001 0.000001 0.000000 0.000000 0.495031
    17 -2.471449 1.399667 -4.390404 0.430015 1.253672 -3.215491
    18 4.972047 0.000000 0.000000 -0.579910 -1.057852 -0.276255
    19 11.585358 0.000000 0.000001 0.000000 0.000000 -2.015187
    20 10.127058 0.000000 0.000001 1.760980 0.483885 0.138762
    21 1.537458 0.109715 1.664489 -3.078535 -0.186288 0.914916
    22 0.928313 0.000000 0.000002 0.000000 0.000000 0.061034
    23 0.928311 0.000000 0.000001 0.000000 0.000000 0.671897
    24 2.686395 -0.427337 0.044204 0.006330 0.043192 0.122300
    25 1.435260 0.000000 0.000001 0.000000 0.000000 1.186618
    26 1.482593 0.000000 -0.000001 0.000000 0.000000 1.404984
    27 2.046984 0.000001 0.000000 0.357114 0.199119 -0.405797
    28 -0.000005 0.000007 3.713254 -0.108302 -3.067215 5.834370
    29 18.045723 0.000000 0.000000 0.000000 0.000000 -0.439005
    30 17.597597 0.000000 0.000000 -0.062143 -0.012292 -0.010050
    31 0.000005 -0.000003 -3.713254 0.557943 3.013286 -0.013855
    32 18.045721 0.000000 0.000000 0.000000 0.000000 -0.536492
    33 17.597597 0.000000 0.000000 0.062437 0.093695 0.458288
  time 2
    0 0.157220 3.636981 1.540585 0.000000 0.000000 -1.571017
    1 1.054716 -0.261727 0.000000 -1.570795 -1.570787 0.000000
    2 1.293670 0.684478 -0.000001 0.000266 0.025358 0.010374
    3 5.309685 -0.003834 0.000000 -0.074569 -0.032754 0.003844
    4 4.826790 -0.004591 0.000000 -0.142123 -0.049161 -0.223758
    5 5.792767 -0.005304 0.000000 -0.170686 -0.075946 -0.105202
    6 6.662322 -0.001452 0.000000 0.000072 0.095988 0.471000
    7 -3.506637 1.516823 4.031023 1.299476 -1.381225 -4.925853
    8 4.827512 0.000000 -0.000002 -1.322428 0.624708 -1.630095
    9 11.140032 0.000000 0.000000 0.000000 0.000000 -0.980556
    10 10.314563 -0.000001 0.000001 -3.048831 0.301906 -0.181085
    11 1.646836 0.445664 -1.699647 0.993049 1.047208 -0.378175
    12 0.928312 0.000000 0.000000 0.000000 0.000000 1.029733
    13 0.928313 0.000000 -0.000001 0.000000 0.000000 0.410081
    14 2.979373 -0.388274 -0.044205 -0.270039 -0.127227 0.519437
    15 1.435262 -0.000001 -0.000001 0.000000 0.000000 0.767708
    16 1.482593 -0.000001 0.000001 0.000000 0.000000 0.495031
    17 -2.471449 1.399667 -4.386497 0.432117 1.255170 -3.213288
    18 4.972047 0.000000 0.000000 -0.632719 -1.058012 -0.220948
    19 11.585358 0.000000 0.000001 0.000000 0.000000 -2.015269
    20 10.127058 0.000000 0.000001 1.760770 0.483885 0.138212
    21 1.537458 0.109715 1.664489 -3.078535 -0.186288 0.914916
    22 0.928313 0.000000 0.000002 0.000000 0.000000 0.061034
    23 0.928311 0.000000 0.000001 0.000000 0.000000 0.671897
    24 2.686395 -0.427337 0.044204 0.006330 0.043192 0.122300
    25 1.435260 0.000000 0.000001 0.000000 0.000000 1.186618
    26 1.482593 0.000000 -0.000001 0.000000 0.000000 1.404984
    27 2.046984 0.000001 0.000000 0.354917 0.195372 -0.379154
    28 -0.000005 0.000007 3.713254 -0.108206 -3.066927 5.834370
    29 18.045723 0.000000 0.000000 0.000000 0.000000 -0.440781
    30 17.597597 0.000000 0.000000 -0.062118 -0.012587 -0.008307
    31 0.000005 -0.000003 -3.713254 0.558135 3.013861 -0.012321
    32 18.045721 0.000000 0.000000 0.000000 0.000000 -0.535154
    33 17.597597 0.000000 0.000000 0.062437 0.094050 0.458473
  time 3
    0 0.157220 3.636981 1.540585 0.000000 0.000000 -1.571017
    1 1.085967 -0.273446 0.000000 -1.570795 -1.570787 0.000000
    2 1.293670 0.684478 -0.000001 0.000266 0.025358 0.010374
    3 5.309685 -0.003834 0.000000 -0.075028 -0.030968 0.009903
    4 4.826790 -0.004591 0.000000 -0.140139 -0.050503 -0.238883
    5 5.792767 -0.005304 0.000000 -0.169912 -0.079014 -0.122726
    6 6.662322 -0.001452 0.000000 0.002397 0.099369 0.513124
    7 -3.455854 1.653546 4.019303 1.283661 -1.383679 -4.952299
    8 4.827512 0.000000 -0.000002 -1.334944 0.651228 -1.639193
    9 11.140032 0.000000 0.000000 0.000000 0.000000 -0.974108
    10 10.314563 -0.000001 0.000001 -3.048736 0.300313 -0.189040
    11 1.646836 0.445664 -1.699647 0.993049 1.047208 -0.378175
    12 0.928312 0.000000 0.000000 0.000000 0.000000 1.029733
    13 0.928313 0.000000 -0.000001 0.000000 0.000000 0.410081
    14 2.979373 -0.388274 -0.044205 -0.270039 -0.127227 0.519437
    15 1.435262 -0.000001 -0.000001 0.000000 0.000000 0.767708
    16 1.482593 -0.000001 0.000001 0.000000 0.000000 0.495031
    17 -2.389416 1.501233 -4.402123 0.435460 1.265529 -3.251025
    18 4.972047 0.000000 0.000000 -0.686465 -1.061467 -0.165108
    19 11.585358 0.000000 0.000001 0.000000 0.000000 -2.015514
    20 10.127058 0.000000 0.000001 1.759648 0.484736 0.135560
    21 1.537458 0.109715 1.664489 -3.078535 -0.186288 0.914916
    22 0.928313 0.000000 0.000002 0.000000 0.000000 0.061034
    23 0.928311 0.000000 0.000001 0.000000 0.000000 0.671897
    24 2.686395 -0.427337 0.044204 0.006330 0.043192 0.122300
    25 1.435260 0.000000 0.000001 0.000000 0.000000 1.186618
    26 1.482593 0.000000 -0.000001 0.000000 0.000000 1.404984
    27 2.046984 0.000001 0.000000 0.353754 0.191802 -0.404702
    28 -0.000005 0.000007 3.713254 -0.108110 -3.066735 5.834370
    29 18.045723 0.000000 0.000000 0.000000 0.000000 -0.442558
    30 17.597597 0.000000 0.000000 -0.062067 -0.012858 -0.006611
    31 0.000005 -0.000003 -3.713254 0.558230 3.014340 -0.010883
    32 18.045721 0.000000 0.000000 0.000000 0.000000 -0.533737
    33 17.597597 0.000000 0.000000 0.062504 0.094366 0.458565
  time 4
    0 0.157220 3.636981 1.540585 0.000000 0.000000 -1.571017
    1 1.109405 -0.273446 0.000000 -1.570795 -1.570787 0.000000
    2 1.293670 0.684478 -0.000001 0.000266 0.025358 0.010374
    3 5.309685 -0.003834 0.000000 -0.075437 -0.029314 0.015573
    4 4.826790 -0.004591 0.000000 -0.138461 -0.051666 -0.251891
    5 5.792767 -0.005304 0.000000 -0.169211 -0.081783 -0.139004
    6 6.662322 -0.001452 0.000000 0.004866 0.102640 0.555305
    7 -3.393353 1.790269 4.007584 1.268228 -1.386310 -4.978937
    8 4.827512 0.000000 -0.000002 -1.346503 0.675020 -1.647858
    9 11.140032 0.000000 0.000000 0.000000 0.000000 -0.969688
    10 10.314563 -0.000001 0.000001 -3.048452 0.298346 -0.195137
    11 1.646836 0.445664 -1.699647 0.993049 1.047208 -0.378175
    12 0.928312 0.000000 0.000000 0.000000 0.000000 1.029733
    13 0.928313 0.000000 -0.000001 0.000000 0.000000 0.410081
    14 2.979373 -0.388274 -0.044205 -0.270039 -0.127227 0.519437
    15 1.435262 -0.000001 -0.000001 0.000000 0.000000 0.767708
    16 1.482593 -0.000001 0.000001 0.000000 0.000000 0.495031
    17 -2.311288 1.610611 -4.406029 0.441288 1.277386 -3.286464
    18 4.972047 0.000000 0.000000 -0.736178 -1.065324 -0.114060
    19 11.585358 0.000000 0.000001 0.000000 0.000000 -2.015841
    20 10.127058 0.000000 0.000001 1.758385 0.485587 0.132309
    21 1.537458 0.109715 1.664489 -3.078535 -0.186288 0.914916
    22 0.928313 0.000000 0.000002 0.000000 0.000000 0.061034
    23 0.928311 0.000000 0.000001 0.000000 0.000000 0.671897
    24 2.686395 -0.427337 0.044204 0.006330 0.043192 0.122300
    25 1.435260 0.000000 0.000001 0.000000 0.000000 1.186618
    26 1.482593 0.000000 -0.000001 0.000000 0.000000 1.404984
    27 2.046984 0.000001 0.000000 0.352763 0.188675 -0.432865
    28 -0.000005 0.000007 3.713254 -0.108110 -3.066544 5.834370
    29 18.045723 0.000000 0.000000 0.000000 0.000000 -0.443964
    30 17.597597 0.000000 0.000000 -0.062017 -0.013030 -0.005236
    31 0.000005 -0.000003 -3.713254 0.558422 3.014724 -0.009637
    32 18.045721 0.000000 0.000000 0.000000 0.000000 -0.532556
    33 17.597597 0.000000 0.000000 0.062504 0.094642 0.458657
  time 5
    0 0.157220 3.636981 1.540585 0.000000 0.000000 -1.571017
    1 1.128937 -0.273446 0.000000 -1.570795 -1.570787 0.000000
    2 1.293670 0.684478 -0.000001 0.000266 0.025358 0.010374
    3 5.309685 -0.003834 0.000000 -0.075794 -0.027900 0.020412
    4 4.826790 -0.004591 0.000000 -0.137259 -0.052457 -0.261108
    5 5.792767 -0.005304 0.000000 -0.168527 -0.084000 -0.153081
    6 6.662322 -0.001452 0.000000 0.007454 0.105815 0.597486
    7 -3.330851 1.926992 3.999772 1.252700 -1.388942 -5.005766
    8 4.827512 0.000000 -0.000002 -1.355830 0.694377 -1.655310
    9 11.140032 0.000000 0.000000 0.000000 0.000000 -0.967949
    10 10.314563 -0.000001 0.000001 -3.048168 0.296379 -0.198853
    11 1.646836 0.445664 -1.699647 0.993049 1.047208 -0.378175
    12 0.928312 0.000000 0.000000 0.000000 0.000000 1.029733
    13 0.928313 0.000000 -0.000001 0.000000 0.000000 0.410081
    14 2.979373 -0.388274 -0.044205 -0.270039 -0.127227 0.519437
    15 1.435262 -0.000001 -0.000001 0.000000 0.000000 0.767708
    16 1.482593 -0.000001 0.000001 0.000000 0.000000 0.495031
    17 -2.229254 1.716083 -4.406029 0.448070 1.289795 -3.320466
    18 4.972047 0.000000 0.000000 -0.777262 -1.069663 -0.072330
    19 11.585358 0.000000 0.000001 0.000000 0.000000 -2.016167
    20 10.127058 0.000000 0.000001 1.756843 0.486627 0.128808
    21 1.537458 0.109715 1.664489 -3.078535 -0.186288 0.914916
    22 0.928313 0.000000 0.000002 0.000000 0.000000 0.061034
    23 0.928311 0.000000 0.000001 0.000000 0.000000 0.671897
    24 2.686395 -0.427337 0.044204 0.006330 0.043192 0.122300
    25 1.435260 0.000000 0.000001 0.000000 0.000000 1.186618
    26 1.482593 0.000000 -0.000001 0.000000 0.000000 1.404984
    27 2.046984 0.000001 0.000000 0.352418 0.186403 -0.466200
    28 -0.000005 0.000007 3.713254 -0.108110 -3.066352 5.834370
    29 18.045723 0.000000 0.000000 0.000000 0.000000 -0.444778
    30 17.597597 0.000000 0.000000 -0.062017 -0.013178 -0.004456
    31 0.000005 -0.000003 -3.713254 0.558422 3.015011 -0.008966
    32 18.045721 0.000000 0.000000 0.000000 0.000000 -0.532005
    33 17.597597 0.000000 0.000000 0.062504 0.094839 0.458657
  time 6
    0 0.157220 3.636981 1.540585 0.000000 0.000000 -1.571017
    1 1.140656 -0.281259 0.000000 -1.570795 -1.570787 0.000000
    2 1.293670 0.684478 -0.000001 0.000266 0.025358 0.010374
    3 5.309685 -0.003834 0.000000 -0.076066 -0.026833 0.024087
    4 4.826790 -0.004591 0.000000 -0.136496 -0.052912 -0.266532
    5 5.792767 -0.005304 0.000000 -0.167879 -0.085738 -0.166639
    6 6.662322 -0.001452 0.000000 0.010223 0.108880 0.639667
    7 -3.264442 2.055902 3.995865 1.237459 -1.391692 -5.032595
    8 4.827512 0.000000 -0.000002 -1.363722 0.711005 -1.661982
    9 11.140032 0.000000 0.000000 0.000000 0.000000 -0.967587
    10 10.314563 -0.000001 0.000001 -3.047978 0.294412 -0.201233
    11 1.646836 0.445664 -1.699647 0.993049 1.047208 -0.378175
    12 0.928312 0.000000 0.000000 0.000000 0.000000 1.029733
    13 0.928313 0.000000 -0.000001 0.000000 0.000000 0.410081
    14 2.979373 -0.388274 -0.044205 -0.270039 -0.127227 0.519437
    15 1.435262 -0.000001 -0.000001 0.000000 0.000000 0.767708
    16 1.482593 -0.000001 0.000001 0.000000 0.000000 0.495031
    17 -2.135502 1.805929 -4.413842 0.454471 1.301783 -3.355042
    18 4.972047 0.000000 0.000000 -0.812906 -1.073680 -0.036323
    19 11.585358 0.000000 0.000001 0.000000 0.000000 -2.016494
    20 10.127058 0.000000 0.000001 1.755440 0.487667 0.125456
    21 1.537458 0.109715 1.664489 -3.078535 -0.186288 0.914916
    22 0.928313 0.000000 0.000002 0.000000 0.000000 0.061034
    23 0.928311 0.000000 0.000001 0.000000 0.000000 0.671897
    24 2.686395 -0.427337 0.044204 0.006330 0.043192 0.122300
    25 1.435260 0.000000 0.000001 0.000000 0.000000 1.186618
    26 1.482593 0.000000 -0.000001 0.000000 0.000000 1.404984
    27 2.046984 0.000001 0.000000 0.352461 0.184633 -0.502393
    28 -0.000005 0.000007 3.713254 -0.108110 -3.066352 5.834370
    29 18.045723 0.000000 0.000000 0.000000 0.000000 -0.445296
    30 17.597597 0.000000 0.000000 -0.062017 -0.013252 -0.003906
    31 0.000005 -0.000003 -3.713254 0.558518 3.015107 -0.008486
    32 18.045721 0.000000 0.000000 0.000000 0.000000 -0.531454
    33 17.597597 0.000000 0.000000 0.062470 0.094938 0.458704
  time 7
    0 0.157220 3.636981 1.540585 0.000000 0.000000 -1.571017
    1 1.140656 -0.281259 0.000000 -1.570795 -1.570787 0.000000
    2 1.293670 0.684478 -0.000001 0.000266 0.025358 0.010374
    3 5.309685 -0.003834 0.000000 -0.076253 -0.026114 0.026559
    4 4.826790 -0.004591 0.000000 -0.136172 -0.053152 -0.269243
    5 5.792767 -0.005304 0.000000 -0.167340 -0.086984 -0.179138
    6 6.662322 -0.001452 0.000000 0.013063 0.111835 0.681905
    7 -3.182409 2.180906 3.984146 1.222410 -1.394501 -5.059807
    8 4.827512 0.000000 -0.000002 -1.370577 0.724905 -1.667528
    9 11.140032 0.000000 0.000000 0.000000 0.000000 -0.967877
    10 10.314563 -0.000001 0.000001 -3.047694 0.292632 -0.203033
    11 1.646836 0.445664 -1.699647 0.993049 1.047208 -0.378175
    12 0.928312 0.000000 0.000000 0.000000 0.000000 1.029733
    13 0.928313 0.000000 -0.000001 0.000000 0.000000 0.410081
    14 2.979373 -0.388274 -0.044205 -0.270039 -0.127227 0.519437
    15 1.435262 -0.000001 -0.000001 0.000000 0.000000 0.767708
    16 1.482593 -0.000001 0.000001 0.000000 0.000000 0.495031
    17 -2.045655 1.903589 -4.413842 0.458770 1.312273 -3.391822
    18 4.972047 0.000000 0.000000 -0.843296 -1.076814 -0.006107
    19 11.585358 0.000000 0.000001 0.000000 0.000000 -2.016739
    20 10.127058 0.000000 0.000001 1.754248 0.488329 0.122555
    21 1.537458 0.109715 1.664489 -3.078535 -0.186288 0.914916
    22 0.928313 0.000000 0.000002 0.000000 0.000000 0.061034
    23 0.928311 0.000000 0.000001 0.000000 0.000000 0.671897
    24 2.686395 -0.427337 0.044204 0.006330 0.043192 0.122300
    25 1.435260 0.000000 0.000001 0.000000 0.000000 1.186618
    26 1.482593 0.000000 -0.000001 0.000000 0.000000 1.404984
    27 2.046984 0.000001 0.000000 0.352806 0.183305 -0.541140
    28 -0.000005 0.000007 3.713254 -0.108015 -3.066256 5.834370
    29 18.045723 0.000000 0.000000 0.000000 0.000000 -0.445666
    30 17.597597 0.000000 0.000000 -0.062017 -0.013325 -0.003539
    31 0.000005 -0.000003 -3.713254 0.558518 3.015203 -0.008199
    32 18.045721 0.000000 0.000000 0.000000 0.000000 -0.531218
    33 17.597597 0.000000 0.000000 0.062437 0.095037 0.458750
  time 8
    0 0.157220 3.636981 1.540585 0.000000 0.000000 -1.571017
    1 1.140656 -0.281259 0.000000 -1.570795 -1.570787 0.000000
    2 1.293670 0.684478 -0.000001 0.000266 0.025358 0.010374
    3 5.309685 -0.003834 0.000000 -0.076373 -0.025695 0.028078
    4 4.826790 -0.004591 0.000000 -0.136172 -0.053152 -0.269243
    5 5.792767 -0.005304 0.000000 -0.166980 -0.087452 -0.186405
    6 6.662322 -0.001452 0.000000 0.013063 0.111835 0.681905
    7 -3.182409 2.180906 3.984146 1.222410 -1.394501 -5.059807
    8 4.827512 0.000000 -0.000002 -1.373846 0.731897 -1.670561
    9 11.140032 0.000000 0.000000 0.000000 0.000000 -0.969181
    10 10.314563 -0.000001 0.000001 -3.047504 0.291508 -0.203208
    11 1.646836 0.445664 -1.699647 0.993049 1.047208 -0.378175
    12 0.928312 0.000000 0.000000 0.000000 0.000000 1.029733
    13 0.928313 0.000000 -0.000001 0.000000 0.000000 0.410081
    14 2.979373 -0.388274 -0.044205 -0.270039 -0.127227 0.519437
    15 1.435262 -0.000001 -0.000001 0.000000 0.000000 0.767708
    16 1.482593 -0.000001 0.000001 0.000000 0.000000 0.495031
    17 -2.045655 1.903589 -4.413842 0.468896 1.317610 -3.381286
    18 4.972047 0.000000 0.000000 -0.858679 -1.079546 0.008868
    19 11.585358 0.000000 0.000001 0.000000 0.000000 -2.016902
    20 10.127058 0.000000 0.000001 1.753407 0.488991 0.120504
    21 1.537458 0.109715 1.664489 -3.078535 -0.186288 0.914916
    22 0.928313 0.000000 0.000002 0.000000 0.000000 0.061034
    23 0.928311 0.000000 0.000001 0.000000 0.000000 0.671897
    24 2.686395 -0.427337 0.044204 0.006330 0.043192 0.122300
    25 1.435260 0.000000 0.000001 0.000000 0.000000 1.186618
    26 1.482593 0.000000 -0.000001 0.000000 0.000000 1.404984
    27 2.046984 0.000001 0.000000 0.354357 0.179942 -0.526055
    28 -0.000005 0.000007 3.713254 -0.108015 -3.066256 5.834370
    29 18.045723 0.000000 0.000000 0.000000 0.000000 -0.445666
    30 17.597597 0.000000 0.000000 -0.062017 -0.013325 -0.003539
    31 0.000005 -0.000003 -3.713254 0.558710 3.015203 -0.008199
    32 18.045721 0.000000 0.000000 0.000000 0.000000 -0.531218
    33 17.597597 0.000000 0.000000 0.062437 0.094997 0.458750
  time 9
    0 0.157220 3.636981 1.540585 0.000000 0.000000 -1.571017
    1 1.128937 -0.273446 0.000000 -1.570795 -1.570787 0.000000
    2 1.293670 0.684478 -0.000001 0.000266 0.025358 0.010374
    3 5.309685 -0.003834 0.000000 -0.076390 -0.025587 0.028326
    4 4.826790 -0.004591 0.000000 -0.136496 -0.052912 -0.266532
    5 5.792767 -0.005304 0.000000 -0.167160 -0.086732 -0.184225
    6 6.662322 -0.001452 0.000000 0.013063 0.111835 0.681905
    7 -3.182409 2.180906 3.984146 1.222410 -1.394501 -5.059807
    8 4.827512 0.000000 -0.000002 -1.371295 0.728145 -1.669174
    9 11.140032 0.000000 0.000000 0.000000 0.000000 -0.972804
    10 10.314563 -0.000001 0.000001 -3.047409 0.290759 -0.200362
    11 1.646836 0.445664 -1.699647 0.993049 1.047208 -0.378175
    12 0.928312 0.000000 0.000000 0.000000 0.000000 1.029733
    13 0.928313 0.000000 -0.000001 0.000000 0.000000 0.410081
    14 2.979373 -0.388274 -0.044205 -0.270039 -0.127227 0.519437
    15 1.435262 -0.000001 -0.000001 0.000000 0.000000 0.767708
    16 1.482593 -0.000001 0.000001 0.000000 0.000000 0.495031
    17 -2.045655 1.907495 -4.413842 0.475584 1.320949 -3.374486
    18 4.972047 0.000000 0.000000 -0.851175 -1.083483 0.000748
    19 11.585358 0.000000 0.000001 0.000000 0.000000 -2.016984
    20 10.127058 0.000000 0.000001 1.752916 0.489275 0.119253
    21 1.537458 0.109715 1.664489 -3.078535 -0.186288 0.914916
    22 0.928313 0.000000 0.000002 0.000000 0.000000 0.061034
    23 0.928311 0.000000 0.000001 0.000000 0.000000 0.671897
    24 2.686395 -0.427337 0.044204 0.006330 0.043192 0.122300
    25 1.435260 0.000000 0.000001 0.000000 0.000000 1.186618
    26 1.482593 0.000000 -0.000001 0.000000 0.000000 1.404984
    27 2.046984 0.000001 0.000000 0.356770 0.178024 -0.521432
    28 -0.000005 0.000007 3.713254 -0.108015 -3.066352 5.834370
    29 18.045723 0.000000 0.000000 0.000000 0.000000 -0.445000
    30 17.597597 0.000000 0.000000 -0.062067 -0.013227 -0.004227
    31 0.000005 -0.000003 -3.713254 0.558710 3.015011 -0.008774
    32 18.045721 0.000000 0.000000 0.000000 0.000000 -0.531769
    33 17.597597 0.000000 0.000000 0.062336 0.094918 0.458657
  time 10
    0 0.157220 3.636981 1.540585 0.000000 0.000000 -1.571017
    1 1.109405 -0.273446 0.000000 -1.570795 -1.570787 0.000000
    2 1.293670 0.684478 -0.000001 0.000266 0.025358 0.010374
    3 5.309685 -0.003834 0.000000 -0.076287 -0.025983 0.027107
    4 4.826790 -0.004591 0.000000 -0.137259 -0.052457 -0.261108
    5 5.792767 -0.005304 0.000000 -0.167808 -0.084731 -0.171456
    6 6.662322 -0.001452 0.000000 0.013063 0.111835 0.681905
    7 -3.182409 2.180906 3.984146 1.222410 -1.394501 -5.059807
    8 4.827512 0.000000 -0.000002 -1.362526 0.713052 -1.663542
    9 11.140032 0.000000 0.000000 0.000000 0.000000 -0.979469
    10 10.314563 -0.000001 0.000001 -3.047409 0.290290 -0.194266
    11 1.646836 0.445664 -1.699647 0.993049 1.047208 -0.378175
    12 0.928312 0.000000 0.000000 0.000000 0.000000 1.029733
    13 0.928313 0.000000 -0.000001 0.000000 0.000000 0.410081
    14 2.979373 -0.388274 -0.044205 -0.270039 -0.127227 0.519437
    15 1.435262 -0.000001 -0.000001 0.000000 0.000000 0.767708
    16 1.482593 -0.000001 0.000001 0.000000 0.000000 0.495031
    17 -2.045655 1.903589 -4.413842 0.479978 1.323157 -3.369793
    18 4.972047 0.000000 0.000000 -0.818909 -1.089188 -0.032463
    19 11.585358 0.000000 0.000001 0.000000 0.000000 -2.017147
    20 10.127058 0.000000 0.000001 1.752495 0.489464 0.118403
    21 1.537458 0.109715 1.664489 -3.078535 -0.186288 0.914916
    22 0.928313 0.000000 0.000002 0.000000 0.000000 0.061034
    23 0.928311 0.000000 0.000001 0.000000 0.000000 0.671897
    24 2.686395 -0.427337 0.044204 0.006330 0.043192 0.122300
    25 1.435260 0.000000 0.000001 0.000000 0.000000 1.186618
    26 1.482593 0.000000 -0.000001 0.000000 0.000000 1.404984
    27 2.046984 0.000001 0.000000 0.360044 0.177493 -0.528245
    28 -0.000005 0.000007 3.713254 -0.108110 -3.066639 5.834370
    29 18.045723 0.000000 0.000000 0.000000 0.000000 -0.443816
    30 17.597597 0.000000 0.000000 -0.062143 -0.012956 -0.005373
    31 0.000005 -0.000003 -3.713254 0.558518 3.014532 -0.009829
    32 18.045721 0.000000 0.000000 0.000000 0.000000 -0.532871
    33 17.597597 0.000000 0.000000 0.062269 0.094721 0.458565
  time 11
    0 0.157220 3.636981 1.540585 0.000000 0.000000 -1.571017
    1 1.078154 -0.261727 0.000000 -1.570795 -1.570787 0.000000
    2 1.293670 0.684478 -0.000001 0.000266 0.025358 0.010374
    3 5.309685 -0.003834 0.000000 -0.076066 -0.026833 0.024087
    4 4.826790 -0.004591 0.000000 -0.138575 -0.051570 -0.250833
    5 5.792767 -0.005304 0.000000 -0.168743 -0.081843 -0.151856
    6 6.662322 -0.001452 0.000000 0.013063 0.111835 0.681905
    7 -3.182409 2.180906 3.984146 1.222410 -1.394501 -5.059807
    8 4.827512 0.000000 -0.000002 -1.348735 0.688323 -1.654617
    9 11.140032 0.000000 0.000000 0.000000 0.000000 -0.988526
    10 10.314563 -0.000001 0.000001 -3.047599 0.290197 -0.184860
    11 1.646836 0.445664 -1.699647 0.993049 1.047208 -0.378175
    12 0.928312 0.000000 0.000000 0.000000 0.000000 1.029733
    13 0.928313 0.000000 -0.000001 0.000000 0.000000 0.410081
    14 2.979373 -0.388274 -0.044205 -0.270039 -0.127227 0.519437
    15 1.435262 -0.000001 -0.000001 0.000000 0.000000 0.767708
    16 1.482593 -0.000001 0.000001 0.000000 0.000000 0.495031
    17 -2.045655 1.903589 -4.413842 0.481698 1.324025 -3.367973
    18 4.972047 0.000000 0.000000 -0.764881 -1.095375 -0.087771
    19 11.585358 0.000000 0.000001 0.000000 0.000000 -2.017147
    20 10.127058 0.000000 0.000001 1.752355 0.489653 0.118053
    21 1.537458 0.109715 1.664489 -3.078535 -0.186288 0.914916
    22 0.928313 0.000000 0.000002 0.000000 0.000000 0.061034
    23 0.928311 0.000000 0.000001 0.000000 0.000000 0.671897
    24 2.686395 -0.427337 0.044204 0.006330 0.043192 0.122300
    25 1.435260 0.000000 0.000001 0.000000 0.000000 1.186618
    26 1.482593 0.000000 -0.000001 0.000000 0.000000 1.404984
    27 2.046984 0.000001 0.000000 0.364309 0.178614 -0.544608
    28 -0.000005 0.000007 3.713254 -0.108110 -3.067023 5.834274
    29 18.045723 0.000000 0.000000 0.000000 0.000000 -0.441892
    30 17.597597 0.000000 0.000000 -0.062270 -0.012612 -0.007253
    31 0.000005 -0.000003 -3.713254 0.558422 3.013957 -0.011362
    32 18.045721 0.000000 0.000000 0.000000 0.000000 -0.534288
    33 17.597597 0.000000 0.000000 0.062168 0.094405 0.458380
  time 12
    0 0.157220 3.636981 1.540585 0.000000 0.000000 -1.571017
    1 1.054716 -0.261727 0.000000 -1.570795 -1.570787 0.000000
    2 1.293670 0.684478 -0.000001 0.000266 0.025358 0.010374
    3 5.309685 -0.003834 0.000000 -0.075386 -0.029566 0.014795
    4 4.826790 -0.004591 0.000000 -0.140597 -0.050215 -0.235642
    5 5.792767 -0.005304 0.000000 -0.169732 -0.078427 -0.128747
    6 6.662322 -0.001452 0.000000 0.013063 0.111835 0.681905
    7 -3.182409 2.180906 3.984146 1.222410 -1.394501 -5.059807
    8 4.827512 0.000000 -0.000002 -1.334226 0.660864 -1.645172
    9 11.140032 0.000000 0.000000 0.000000 0.000000 -0.997438
    10 10.314563 -0.000001 0.000001 -3.047788 0.290478 -0.175105
    11 1.646836 0.445664 -1.699647 0.993049 1.047208 -0.378175
    12 0.928312 0.000000 0.000000 0.000000 0.000000 1.029733
    13 0.928313 0.000000 -0.000001 0.000000 0.000000 0.410081
    14 2.979373 -0.388274 -0.044205 -0.270039 -0.127227 0.519437
    15 1.435262 -0.000001 -0.000001 0.000000 0.000000 0.767708
    16 1.482593 -0.000001 0.000001 0.000000 0.000000 0.495031
    17 -2.045655 1.907495 -4.409936 0.480742 1.323499 -3.369218
    18 4.972047 0.000000 0.000000 -0.704943 -1.099392 -0.149068
    19 11.585358 0.000000 0.000001 0.000000 0.000000 -2.017147
    20 10.127058 0.000000 0.000001 1.752495 0.489653 0.118253
    21 1.537458 0.109715 1.664489 -3.078535 -0.186288 0.914916
    22 0.928313 0.000000 0.000002 0.000000 0.000000 0.061034
    23 0.928311 0.000000 0.000001 0.000000 0.000000 0.671897
    24 2.686395 -0.427337 0.044204 0.006330 0.043192 0.122300
    25 1.435260 0.000000 0.000001 0.000000 0.000000 1.186618
    26 1.482593 0.000000 -0.000001 0.000000 0.000000 1.404984
    27 2.046984 0.000001 0.000000 0.368876 0.180237 -0.562735
    28 -0.000005 0.000007 3.713254 -0.108110 -3.067119 5.834370
    29 18.045723 0.000000 0.000000 0.000000 0.000000 -0.440781
    30 17.597597 0.000000 0.000000 -0.062295 -0.012513 -0.008307
    31 0.000005 -0.000003 -3.713254 0.558422 3.013669 -0.012321
    32 18.045721 0.000000 0.000000 0.000000 0.000000 -0.535154
    33 17.597597 0.000000 0.000000 0.062101 0.094188 0.458380
  time 13
    0 0.157220 3.636981 1.540585 0.000000 0.000000 -1.571017
    1 1.058622 -0.261727 0.000000 -1.570795 -1.570787 0.000000
    2 1.293670 0.684478 -0.000001 0.000266 0.025358 0.010374
    3 5.309685 -0.003834 0.000000 -0.074348 -0.033545 0.001071
    4 4.826790 -0.004591 0.000000 -0.142733 -0.048693 -0.218885
    5 5.792767 -0.005304 0.000000 -0.170722 -0.075000 -0.105285
    6 6.662322 -0.001452 0.000000 0.010223 0.108880 0.639667
    7 -3.264442 2.055902 3.995865 1.237459 -1.391692 -5.032595
    8 4.827512 0.000000 -0.000002 -1.321711 0.635282 -1.636767
    9 11.140032 0.000000 0.000000 0.000000 0.000000 -1.004756
    10 10.314563 -0.000001 0.000001 -3.048073 0.291040 -0.166512
    11 1.646836 0.445664 -1.699647 0.993049 1.047208 -0.378175
    12 0.928312 0.000000 0.000000 0.000000 0.000000 1.029733
    13 0.928313 0.000000 -0.000001 0.000000 0.000000 0.410081
    14 2.979373 -0.388274 -0.044205 -0.270039 -0.127227 0.519437
    15 1.435262 -0.000001 -0.000001 0.000000 0.000000 0.767708
    16 1.482593 -0.000001 0.000001 0.000000 0.000000 0.495031
    17 -2.135502 1.809836 -4.413842 0.486188 1.318372 -3.322094
    18 4.972047 0.000000 0.000000 -0.649227 -1.100437 -0.206173
    19 11.585358 0.000000 0.000001 0.000000 0.000000 -2.016984
    20 10.127058 0.000000 0.000001 1.752846 0.489275 0.119053
    21 1.537458 0.109715 1.664489 -3.078535 -0.186288 0.914916
    22 0.928313 0.000000 0.000002 0.000000 0.000000 0.061034
    23 0.928311 0.000000 0.000001 0.000000 0.000000 0.671897
    24 2.686395 -0.427337 0.044204 0.006330 0.043192 0.122300
    25 1.435260 0.000000 0.000001 0.000000 0.000000 1.186618
    26 1.482593 0.000000 -0.000001 0.000000 0.000000 1.404984
    27 2.046984 0.000001 0.000000 0.367928 0.186167 -0.546493
    28 -0.000005 0.000007 3.713254 -0.108110 -3.067023 5.834370
    29 18.045723 0.000000 0.000000 0.000000 0.000000 -0.440855
    30 17.597597 0.000000 0.000000 -0.062295 -0.012661 -0.008216
    31 0.000005 -0.000003 -3.713254 0.558518 3.013765 -0.012225
    32 18.045721 0.000000 0.000000 0.000000 0.000000 -0.535154
    33 17.597597 0.000000 0.000000 0.062034 0.094129 0.458380
  time 14
    0 0.157220 3.636981 1.540585 0.000000 0.000000 -1.571017
    1 1.042997 -0.261727 0.000000 -1.570795 -1.570787 0.000000
    2 1.293670 0.684478 -0.000001 0.000266 0.025358 0.010374
    3 5.309685 -0.003834 0.000000 -0.073616 -0.036146 -0.007902
    4 4.826790 -0.004591 0.000000 -0.144698 -0.047303 -0.203716
    5 5.792767 -0.005304 0.000000 -0.171459 -0.071943 -0.084647
    6 6.662322 -0.001452 0.000000 0.007454 0.105815 0.597486
    7 -3.330851 1.926992 3.999772 1.252700 -1.388972 -5.005766
    8 4.827512 0.000000 -0.000002 -1.309275 0.608847 -1.628362
    9 11.140032 0.000000 0.000000 0.000000 0.000000 -1.011132
    10 10.314563 -0.000001 0.000001 -3.048452 0.292164 -0.158325
    11 1.646836 0.445664 -1.699647 0.993049 1.047208 -0.378175
    12 0.928312 0.000000 0.000000 0.000000 0.000000 1.029733
    13 0.928313 0.000000 -0.000001 0.000000 0.000000 0.410081
    14 2.979373 -0.388274 -0.044205 -0.270039 -0.127227 0.519437
    15 1.435262 -0.000001 -0.000001 0.000000 0.000000 0.767708
    16 1.482593 -0.000001 0.000001 0.000000 0.000000 0.495031
    17 -2.229254 1.712177 -4.406029 0.487716 1.311537 -3.279185
    18 4.972047 0.000000 0.000000 -0.592010 -1.098669 -0.264808
    19 11.585358 0.000000 0.000001 0.000000 0.000000 -2.016902
    20 10.127058 0.000000 0.000001 1.753407 0.488991 0.120504
    21 1.537458 0.109715 1.664489 -3.078535 -0.186288 0.914916
    22 0.928313 0.000000 0.000002 0.000000 0.000000 0.061034
    23 0.928311 0.000000 0.000001 0.000000 0.000000 0.671897
    24 2.686395 -0.427337 0.044204 0.006330 0.043192 0.122300
    25 1.435260 0.000000 0.000001 0.000000 0.000000 1.186618
    26 1.482593 0.000000 -0.000001 0.000000 0.000000 1.404984
    27 2.046984 0.000001 0.000000 0.366937 0.192274 -0.530800
    28 -0.000005 0.000007 3.713254 -0.108110 -3.067119 5.834370
    29 18.045723 0.000000 0.000000 0.000000 0.000000 -0.439819
    30 17.597597 0.000000 0.000000 -0.062346 -0.012538 -0.009224
    31 0.000005 -0.000003 -3.713254 0.558518 3.013477 -0.012992
    32 18.045721 0.000000 0.000000 0.000000 0.000000 -0.535941
    33 17.597597 0.000000 0.000000 0.061967 0.093912 0.458380
  time 15
    0 0.157220 3.636981 1.540585 0.000000 0.000000 -1.571017
    1 1.011746 -0.253914 0.000000 -1.570795 -1.570787 0.000000
    2 1.293670 0.684478 -0.000001 0.000266 0.025358 0.010374
    3 5.309685 -0.003834 0.000000 -0.073412 -0.036865 -0.010375
    4 4.826790 -0.004591 0.000000 -0.145976 -0.046332 -0.193419
    5 5.792767 -0.005304 0.000000 -0.172017 -0.069786 -0.070196
    6 6.662322 -0.001452 0.000000 0.004866 0.102640 0.555305
    7 -3.393353 1.790269 4.007584 1.268228 -1.386310 -4.978937
    8 4.827512 0.000000 -0.000002 -1.299310 0.584971 -1.621343
    9 11.140032 0.000000 0.000000 0.000000 0.000000 -1.013885
    10 10.314563 -0.000001 0.000001 -3.048736 0.294131 -0.152925
    11 1.646836 0.445664 -1.699647 0.993049 1.047208 -0.378175
    12 0.928312 0.000000 0.000000 0.000000 0.000000 1.029733
    13 0.928313 0.000000 -0.000001 0.000000 0.000000 0.410081
    14 2.979373 -0.388274 -0.044205 -0.270039 -0.127227 0.519437
    15 1.435262 -0.000001 -0.000001 0.000000 0.000000 0.767708
    16 1.482593 -0.000001 0.000001 0.000000 0.000000 0.495031
    17 -2.311288 1.606705 -4.406029 0.479978 1.299995 -3.245949
    18 4.972047 0.000000 0.000000 -0.543235 -1.091518 -0.314858
    19 11.585358 0.000000 0.000001 0.000000 0.000000 -2.016657
    20 10.127058 0.000000 0.000001 1.754739 0.488140 0.123705
    21 1.537458 0.109715 1.664489 -3.078535 -0.186288 0.914916
    22 0.928313 0.000000 0.000002 0.000000 0.000000 0.061034
    23 0.928311 0.000000 0.000001 0.000000 0.000000 0.671897
    24 2.686395 -0.427337 0.044204 0.006330 0.043192 0.122300
    25 1.435260 0.000000 0.000001 0.000000 0.000000 1.186618
    26 1.482593 0.000000 -0.000001 0.000000 0.000000 1.404984
    27 2.046984 0.000001 0.000000 0.365559 0.197821 -0.511152
    28 -0.000005 0.000007 3.713254 -0.108110 -3.067406 5.834370
    29 18.045723 0.000000 0.000000 0.000000 0.000000 -0.437969
    30 17.597597 0.000000 0.000000 -0.062422 -0.012218 -0.011058
    31 0.000005 -0.000003 -3.713254 0.558422 3.012902 -0.014526
    32 18.045721 0.000000 0.000000 0.000000 0.000000 -0.537358
    33 17.597597 0.000000 0.000000 0.061866 0.093577 0.458196
  time 16
    0 0.157220 3.636981 1.540585 0.000000 0.000000 -1.571017
    1 0.992214 -0.253914 0.000000 -1.570795 -1.570787 0.000000
    2 1.293670 0.684478 -0.000001 0.000266 0.025358 0.010374
    3 5.309685 -0.003834 0.000000 -0.073378 -0.037032 -0.011046
    4 4.826790 -0.004591 0.000000 -0.146510 -0.045949 -0.189120
    5 5.792767 -0.005304 0.000000 -0.172233 -0.068816 -0.063552
    6 6.662322 -0.001452 0.000000 0.002397 0.099369 0.513124
    7 -3.455854 1.653546 4.019303 1.283661 -1.383679 -4.952299
    8 4.827512 0.000000 -0.000002 -1.295085 0.571839 -1.616924
    9 11.140032 0.000000 0.000000 0.000000 0.000000 -1.011421
    10 10.314563 -0.000001 0.000001 -3.048926 0.297035 -0.152750
    11 1.646836 0.445664 -1.699647 0.993049 1.047208 -0.378175
    12 0.928312 0.000000 0.000000 0.000000 0.000000 1.029733
    13 0.928313 0.000000 -0.000001 0.000000 0.000000 0.410081
    14 2.979373 -0.388274 -0.044205 -0.270039 -0.127227 0.519437
    15 1.435262 -0.000001 -0.000001 0.000000 0.000000 0.767708
    16 1.482593 -0.000001 0.000001 0.000000 0.000000 0.495031
    17 -2.389416 1.505139 -4.402123 0.463929 1.283538 -3.221333
    18 4.972047 0.000000 0.000000 -0.519598 -1.079867 -0.339084
    19 11.585358 0.000000 0.000001 0.000000 0.000000 -2.016167
    20 10.127058 0.000000 0.000001 1.756843 0.486627 0.128808
    21 1.537458 0.109715 1.664489 -3.078535 -0.186288 0.914916
    22 0.928313 0.000000 0.000002 0.000000 0.000000 0.061034
    23 0.928311 0.000000 0.000001 0.000000 0.000000 0.671897
    24 2.686395 -0.427337 0.044204 0.006330 0.043192 0.122300
    25 1.435260 0.000000 0.000001 0.000000 0.000000 1.186618
    26 1.482593 0.000000 -0.000001 0.000000 0.000000 1.404984
    27 2.046984 0.000001 0.000000 0.363060 0.201450 -0.479703
    28 -0.000005 0.000007 3.713254 -0.108110 -3.067598 5.834370
    29 18.045723 0.000000 0.000000 0.000000 0.000000 -0.437081
    30 17.597597 0.000000 0.000000 -0.062447 -0.012070 -0.011929
    31 0.000005 -0.000003 -3.713254 0.558422 3.012615 -0.015389
    32 18.045721 0.000000 0.000000 0.000000 0.000000 -0.538145
    33 17.597597 0.000000 0.000000 0.061799 0.093419 0.458057
  time 17
    0 0.157220 3.636981 1.540585 0.000000 0.000000 -1.571017
    1 0.984401 -0.253914 0.000000 -1.570795 -1.570787 0.000000
    2 1.293670 0.684478 -0.000001 0.000266 0.025358 0.010374
    3 5.309685 -0.003834 0.000000 -0.073395 -0.036925 -0.010570
    4 4.826790 -0.004591 0.000000 -0.146586 -0.045901 -0.188591
    5 5.792767 -0.005304 0.000000 -0.172269 -0.068684 -0.062763
    6 6.662322 -0.001452 0.000000 0.000072 0.095988 0.471000
    7 -3.506637 1.516823 4.031023 1.299476 -1.381225 -4.925853
    8 4.827512 0.000000 -0.000002 -1.294527 0.567063 -1.614671
    9 11.140032 0.000000 0.000000 0.000000 0.000000 -1.006350
    10 10.314563 -0.000001 0.000001 -3.049115 0.299938 -0.155538
    11 1.646836 0.445664 -1.699647 0.993049 1.047208 -0.378175
    12 0.928312 0.000000 0.000000 0.000000 0.000000 1.029733
    13 0.928313 0.000000 -0.000001 0.000000 0.000000 0.410081
    14 2.979373 -0.388274 -0.044205 -0.270039 -0.127227 0.519437
    15 1.435262 -0.000001 -0.000001 0.000000 0.000000 0.767708
    16 1.482593 -0.000001 0.000001 0.000000 0.000000 0.495031
    17 -2.471449 1.399667 -4.390404 0.448166 1.266081 -3.196622
    18 4.972047 0.000000 0.000000 -0.513688 -1.067654 -0.345540
    19 11.585358 0.000000 0.000001 0.000000 0.000000 -2.015677
    20 10.127058 0.000000 0.000001 1.759017 0.485114 0.134110
    21 1.537458 0.109715 1.664489 -3.078535 -0.186288 0.914916
    22 0.928313 0.000000 0.000002 0.000000 0.000000 0.061034
    23 0.928311 0.000000 0.000001 0.000000 0.000000 0.671897
    24 2.686395 -0.427337 0.044204 0.006330 0.043192 0.122300
    25 1.435260 0.000000 0.000001 0.000000 0.000000 1.186618
    26 1.482593 0.000000 -0.000001 0.000000 0.000000 1.404984
    27 2.046984 0.000001 0.000000 0.360001 0.204046 -0.440286
    28 -0.000005 0.000007 3.713254 -0.108110 -3.067694 5.834370
    29 18.045723 0.000000 0.000000 0.000000 0.000000 -0.436785
    30 17.597597 0.000000 0.000000 -0.062498 -0.012021 -0.012250
    31 0.000005 -0.000003 -3.713254 0.558422 3.012423 -0.015581
    32 18.045721 0.000000 0.000000 0.000000 0.000000 -0.538381
    33 17.597597 0.000000 0.000000 0.061766 0.093399 0.458057
  time 18
    0 0.157220 3.636981 1.540585 0.000000 0.000000 -1.571017
    1 0.992214 -0.253914 0.000000 -1.570795 -1.570787 0.000000
    2 1.293670 0.684478 -0.000001 0.000266 0.025358 0.010374
    3 5.309685 -0.003834 0.000000 -0.073480 -0.036601 -0.009474
    4 4.826790 -0.004591 0.000000 -0.146415 -0.046057 -0.190178
    5 5.792767 -0.005304 0.000000 -0.172179 -0.069043 -0.065213
    6 6.662322 -0.001452 0.000000 0.000072 0.095988 0.471000
    7 -3.506637 1.516823 4.031023 1.299476 -1.381225 -4.925853
    8 4.827512 0.000000 -0.000002 -1.295882 0.567660 -1.613978
    9 11.140032 0.000000 0.000000 0.000000 0.000000 -1.001205
    10 10.314563 -0.000001 0.000001 -3.049210 0.302187 -0.159254
    11 1.646836 0.445664 -1.699647 0.993049 1.047208 -0.378175
    12 0.928312 0.000000 0.000000 0.000000 0.000000 1.029733
    13 0.928313 0.000000 -0.000001 0.000000 0.000000 0.410081
    14 2.979373 -0.388274 -0.044205 -0.270039 -0.127227 0.519437
    15 1.435262 -0.000001 -0.000001 0.000000 0.000000 0.767708
    16 1.482593 -0.000001 0.000001 0.000000 0.000000 0.495031
    17 -2.471449 1.399667 -4.390404 0.432117 1.255170 -3.213288
    18 4.972047 0.000000 0.000000 -0.517722 -1.058575 -0.341347
    19 11.585358 0.000000 0.000001 0.000000 0.000000 -2.015269
    20 10.127058 0.000000 0.000001 1.760770 0.483885 0.138212
    21 1.537458 0.109715 1.664489 -3.078535 -0.186288 0.914916
    22 0.928313 0.000000 0.000002 0.000000 0.000000 0.061034
    23 0.928311 0.000000 0.000001 0.000000 0.000000 0.671897
    24 2.686395 -0.427337 0.044204 0.006330 0.043192 0.122300
    25 1.435260 0.000000 0.000001 0.000000 0.000000 1.186618
    26 1.482593 0.000000 -0.000001 0.000000 0.000000 1.404984
    27 2.046984 0.000001 0.000000 0.359699 0.203633 -0.437428
    28 -0.000005 0.000007 3.713254 -0.108110 -3.067694 5.834370
    29 18.045723 0.000000 0.000000 0.000000 0.000000 -0.436859
    30 17.597597 0.000000 0.000000 -0.062498 -0.012021 -0.012204
    31 0.000005 -0.000003 -3.713254 0.558518 3.012423 -0.015485
    32 18.045721 0.000000 0.000000 0.000000 0.000000 -0.538224
    33 17.597597 0.000000 0.000000 0.061699 0.093419 0.458057
  time 19
    0 0.157220 3.636981 1.540585 0.000000 0.000000 -1.571017
    1 0.992214 -0.253914 0.000000 -1.570795 -1.570787 0.000000
    2 1.293670 0.684478 -0.000001 0.000266 0.025358 0.010374
    3 5.309685 -0.003834 0.000000 -0.073582 -0.036265 -0.008379
    4 4.826790 -0.004591 0.000000 -0.146148 -0.046261 -0.192339
    5 5.792767 -0.005304 0.000000 -0.172071 -0.069559 -0.068535
    6 6.662322 -0.001452 0.000000 0.000072 0.095988 0.471000
    7 -3.506637 1.516823 4.031023 1.299476 -1.381225 -4.925853
    8 4.827512 0.000000 -0.000002 -1.297716 0.571498 -1.614844
    9 11.140032 0.000000 0.000000 0.000000 0.000000 -0.998887
    10 10.314563 -0.000001 0.000001 -3.049115 0.302561 -0.161286
    11 1.646836 0.445664 -1.699647 0.993049 1.047208 -0.378175
    12 0.928312 0.000000 0.000000 0.000000 0.000000 1.029733
    13 0.928313 0.000000 -0.000001 0.000000 0.000000 0.410081
    14 2.979373 -0.388274 -0.044205 -0.270039 -0.127227 0.519437
    15 1.435262 -0.000001 -0.000001 0.000000 0.000000 0.767708
    16 1.482593 -0.000001 0.000001 0.000000 0.000000 0.495031
    17 -2.471449 1.399667 -4.390404 0.429346 1.253225 -3.216257
    18 4.972047 0.000000 0.000000 -0.525788 -1.057128 -0.332961
    19 11.585358 0.000000 0.000001 0.000000 0.000000 -2.015187
    20 10.127058 0.000000 0.000001 1.761050 0.483790 0.138962
    21 1.537458 0.109715 1.664489 -3.078535 -0.186288 0.914916
    22 0.928313 0.000000 0.000002 0.000000 0.000000 0.061034
    23 0.928311 0.000000 0.000001 0.000000 0.000000 0.671897
    24 2.686395 -0.427337 0.044204 0.006330 0.043192 0.122300
    25 1.435260 0.000000 0.000001 0.000000 0.000000 1.186618
    26 1.482593 0.000000 -0.000001 0.000000 0.000000 1.404984
    27 2.046984 0.000001 0.000000 0.359484 0.203043 -0.433170
    28 -0.000005 0.000007 3.713254 -0.108110 -3.067598 5.834370
    29 18.045723 0.000000 0.000000 0.000000 0.000000 -0.437081
    30 17.597597 0.000000 0.000000 -0.062498 -0.012070 -0.011929
    31 0.000005 -0.000003 -3.713254 0.558518 3.012519 -0.015293
    32 18.045721 0.000000 0.000000 0.000000 0.000000 -0.538145
    33 17.597597 0.000000 0.000000 0.061699 0.093478 0.458057
  time 20
    0 0.157220 3.636981 1.540585 0.000000 0.000000 -1.571017
    1 0.992214 -0.253914 0.000000 -1.570795 -1.570787 0.000000
    2 1.293670 0.684478 -0.000001 0.000266 0.025358 0.010374
    3 5.309685 -0.003834 0.000000 -0.073616 -0.036146 -0.007902
    4 4.826790 -0.004591 0.000000 -0.145976 -0.046332 -0.193419
    5 5.792767 -0.005304 0.000000 -0.172017 -0.069786 -0.070196
    6 6.662322 -0.001452 0.000000 0.000072 0.095988 0.471000
    7 -3.506637 1.516823 4.031023 1.299476 -1.381225 -4.925853
    8 4.827512 0.000000 -0.000002 -1.298673 0.574056 -1.615624
    9 11.140032 0.000000 0.000000 0.000000 0.000000 -0.999032
    10 10.314563 -0.000001 0.000001 -3.049115 0.302187 -0.161518
    11 1.646836 0.445664 -1.699647 0.993049 1.047208 -0.378175
    12 0.928312 0.000000 0.000000 0.000000 0.000000 1.029733
    13 0.928313 0.000000 -0.000001 0.000000 0.000000 0.410081
    14 2.979373 -0.388274 -0.044205 -0.270039 -0.127227 0.519437
    15 1.435262 -0.000001 -0.000001 0.000000 0.000000 0.767708
    16 1.482593 -0.000001 0.000001 0.000000 0.000000 0.495031
    17 -2.471449 1.399667 -4.390404 0.432117 1.255170 -3.213288
    18 4.972047 0.000000 0.000000 -0.530478 -1.058896 -0.328102
    19 11.585358 0.000000 0.000001 0.000000 0.000000 -2.015269
    20 10.127058 0.000000 0.000001 1.760770 0.483885 0.138212
    21 1.537458 0.109715 1.664489 -3.078535 -0.186288 0.914916
    22 0.928313 0.000000 0.000002 0.000000 0.000000 0.061034
    23 0.928311 0.000000 0.000001 0.000000 0.000000 0.671897
    24 2.686395 -0.427337 0.044204 0.006330 0.043192 0.122300
    25 1.435260 0.000000 0.000001 0.000000 0.000000 1.186618
    26 1.482593 0.000000 -0.000001 0.000000 0.000000 1.404984
    27 2.046984 0.000001 0.000000 0.359312 0.202748 -0.431041
    28 -0.000005 0.000007 3.713254 -0.108302 -3.067502 5.834370
    29 18.045723 0.000000 0.000000 0.000000 0.000000 -0.437229
    30 17.597597 0.000000 0.000000 -0.062219 -0.012021 -0.011838
    31 0.000005 -0.000003 -3.713254 0.557847 3.012710 -0.015293
    32 18.045721 0.000000 0.000000 0.000000 0.000000 -0.537909
    33 17.597597 0.000000 0.000000 0.062403 0.093360 0.458196
end
