version 1
nodes
  0 "Bip01" -1
  1 "Bip01 Pelvis" 0
  2 "Bip01 Spine" 1
  3 "Bip01 Spine1" 2
  4 "Bip01 Spine2" 3
  5 "Bip01 Spine3" 4
  6 "Bip01 Neck" 5
  7 "Bip01 L Arm" 6
  8 "Bip01 L Arm1" 7
  9 "Bip01 L Arm2" 8
  10 "Bip01 L Hand" 9
  11 "Bip01 L Finger0" 10
  12 "Bip01 L Finger01" 11
  13 "Bip01 L Finger02" 12
  14 "Bip01 L Finger1" 10
  15 "Bip01 L Finger11" 14
  16 "Bip01 L Finger12" 15
  17 "Bip01 R Arm" 6
  18 "Bip01 R Arm1" 17
  19 "Bip01 R Arm2" 18
  20 "Bip01 R Hand" 19
  21 "Bip01 R Finger0" 20
  22 "Bip01 R Finger01" 21
  23 "Bip01 R Finger02" 22
  24 "Bip01 R Finger1" 20
  25 "Bip01 R Finger11" 24
  26 "Bip01 R Finger12" 25
  27 "Bip01 Head" 6
  28 "Bip01 L Leg" 1
  29 "Bip01 L Leg1" 28
  30 "Bip01 L Foot" 29
  31 "Bip01 R Leg" 1
  32 "Bip01 R Leg1" 31
  33 "Bip01 R Foot" 32
end
skeleton
  time 0
    0 0.469730 5.234686 0.368674 0.000000 0.000000 -1.571017
    1 2.132874 -0.007813 0.000000 -1.570795 -1.570787 0.000000
    2 1.293670 0.684478 -0.000001 -0.000004 -0.000001 0.009520
    3 5.309685 -0.003834 0.000000 0.000000 0.000000 -0.261658
    4 4.826790 -0.004591 0.000000 -0.156963 0.002816 -0.078768
    5 5.792767 -0.005304 0.000000 -0.142913 -0.006256 -0.104496
    6 6.662322 -0.001452 0.000000 0.000000 -0.000001 0.471000
    7 -3.108188 1.516823 4.339626 1.374338 -0.766068 -4.904773
    8 4.827512 0.000000 -0.000002 -0.467464 0.693951 -0.629716
    9 11.140032 0.000000 0.000000 0.000000 0.000000 -1.303119
    10 10.314563 -0.000001 0.000001 -3.574555 0.073252 -0.268819
    11 1.646836 0.445664 -1.699647 -0.161704 0.581044 -0.283978
    12 0.928312 0.000000 0.000000 0.000000 0.000000 0.000000
    13 0.928313 0.000000 -0.000001 0.000000 0.000000 0.000000
    14 2.979373 -0.388274 -0.044205 -0.001932 -0.043575 0.026189
    15 1.435262 -0.000001 -0.000001 0.000000 0.000000 0.784927
    16 1.482593 -0.000001 0.000001 0.000000 0.000000 0.540709
    17 -2.869899 1.399667 -4.140396 1.265154 0.977859 -2.406148
    18 4.972047 0.000000 0.000000 -0.549332 -1.105258 -0.793191
    19 11.585358 0.000000 0.000001 0.000000 0.000000 -1.551899
    20 10.127058 0.000000 0.000001 1.665401 0.666393 -0.282370
    21 1.537458 0.109715 1.664489 -0.264662 -0.055995 0.783079
    22 0.928313 0.000000 0.000002 0.000000 0.000000 -0.453501
    23 0.928311 0.000000 0.000001 0.000000 0.000000 0.000000
    24 2.686395 -0.427337 0.044204 -0.005762 0.043239 -0.157074
    25 1.435260 0.000000 0.000001 0.000000 0.000000 0.732613
    26 1.482593 0.000000 -0.000001 0.000000 0.000000 1.168644
    27 2.046984 0.000001 0.000000 0.298737 0.027173 -0.492478
    28 -0.000005 0.000007 3.713254 -0.099865 -3.047848 5.708602
    29 18.045723 0.000000 0.000000 0.000000 0.000000 -0.413544
    30 17.597597 0.000000 0.000000 -0.057202 -0.016721 -0.162308
    31 0.000005 -0.000003 -3.713254 0.807324 2.831618 6.175091
    32 18.045721 0.000000 0.000000 0.000000 0.000000 -0.782250
    33 17.597597 0.000000 0.000000 0.178995 0.125233 0.485354
  time 1
    0 0.469730 5.234686 0.368674 0.000000 0.000000 -1.571017
    1 2.164125 -0.019532 0.000000 -1.570795 -1.570787 0.000000
    2 1.293670 0.684478 -0.000001 -0.000004 -0.000001 0.009520
    3 5.309685 -0.003834 0.000000 -0.000817 0.001438 -0.256006
    4 4.826790 -0.004591 0.000000 -0.155246 0.001258 -0.093254
    5 5.792767 -0.005304 0.000000 -0.142139 -0.009216 -0.121646
    6 6.662322 -0.001452 0.000000 0.000000 -0.000001 0.471000
    7 -3.108188 1.516823 4.339626 1.374338 -0.766068 -4.904773
    8 4.827512 0.000000 -0.000002 -0.462362 0.724052 -0.626423
    9 11.140032 0.000000 0.000000 0.000000 0.000000 -1.289135
    10 10.314563 -0.000001 0.000001 -3.570195 0.070535 -0.284032
    11 1.646836 0.445664 -1.699647 -0.161704 0.581044 -0.283978
    12 0.928312 0.000000 0.000000 0.000000 0.000000 0.000000
    13 0.928313 0.000000 -0.000001 0.000000 0.000000 0.000000
    14 2.979373 -0.388274 -0.044205 -0.001932 -0.043575 0.026189
    15 1.435262 -0.000001 -0.000001 0.000000 0.000000 0.784927
    16 1.482593 -0.000001 0.000001 0.000000 0.000000 0.540709
    17 -2.869899 1.399667 -4.140396 1.262766 0.977333 -2.408925
    18 4.972047 0.000000 0.000000 -0.606830 -1.107106 -0.736353
    19 11.585358 0.000000 0.000001 0.000000 0.000000 -1.551817
    20 10.127058 0.000000 0.000001 1.665682 0.666204 -0.281719
    21 1.537458 0.109715 1.664489 -0.264662 -0.055995 0.783079
    22 0.928313 0.000000 0.000002 0.000000 0.000000 -0.453501
    23 0.928311 0.000000 0.000001 0.000000 0.000000 0.000000
    24 2.686395 -0.427337 0.044204 -0.005762 0.043239 -0.157074
    25 1.435260 0.000000 0.000001 0.000000 0.000000 0.732613
    26 1.482593 0.000000 -0.000001 0.000000 0.000000 1.168644
    27 2.046984 0.000001 0.000000 0.297660 0.025196 -0.466564
    28 -0.000005 0.000007 3.713254 -0.099865 -3.047560 5.708027
    29 18.045723 0.000000 0.000000 0.000000 0.000000 -0.416357
    30 17.597597 0.000000 0.000000 -0.057151 -0.016918 -0.160107
    31 0.000005 -0.000003 -3.713254 0.807324 2.832001 6.176241
    32 18.045721 0.000000 0.000000 0.000000 0.000000 -0.781699
    33 17.597597 0.000000 0.000000 0.179028 0.125825 0.485631
  time 2
    0 0.469730 5.234686 0.368674 0.000000 0.000000 -1.571017
    1 2.195375 -0.019532 0.000000 -1.570795 -1.570787 0.000000
    2 1.293670 0.684478 -0.000001 -0.000004 -0.000001 0.009520
    3 5.309685 -0.003834 0.000000 -0.001719 0.003032 -0.249947
    4 4.826790 -0.004591 0.000000 -0.153415 -0.000372 -0.108820
    5 5.792767 -0.005304 0.000000 -0.141384 -0.012344 -0.139419
    6 6.662322 -0.001452 0.000000 0.000000 -0.000001 0.471000
    7 -3.108188 1.516823 4.339626 1.374338 -0.766068 -4.904773
    8 4.827512 0.000000 -0.000002 -0.456702 0.756456 -0.622871
    9 11.140032 0.000000 0.000000 0.000000 0.000000 -1.275152
    10 10.314563 -0.000001 0.000001 -3.565457 0.066976 -0.299186
    11 1.646836 0.445664 -1.699647 -0.161704 0.581044 -0.283978
    12 0.928312 0.000000 0.000000 0.000000 0.000000 0.000000
    13 0.928313 0.000000 -0.000001 0.000000 0.000000 0.000000
    14 2.979373 -0.388274 -0.044205 -0.001932 -0.043575 0.026189
    15 1.435262 -0.000001 -0.000001 0.000000 0.000000 0.784927
    16 1.482593 -0.000001 0.000001 0.000000 0.000000 0.540709
    17 -2.869899 1.399667 -4.140396 1.265154 0.977859 -2.406148
    18 4.972047 0.000000 0.000000 -0.665923 -1.109516 -0.678117
    19 11.585358 0.000000 0.000001 0.000000 0.000000 -1.551899
    20 10.127058 0.000000 0.000001 1.665401 0.666393 -0.282370
    21 1.537458 0.109715 1.664489 -0.264662 -0.055995 0.783079
    22 0.928313 0.000000 0.000002 0.000000 0.000000 -0.453501
    23 0.928311 0.000000 0.000001 0.000000 0.000000 0.000000
    24 2.686395 -0.427337 0.044204 -0.005762 0.043239 -0.157074
    25 1.435260 0.000000 0.000001 0.000000 0.000000 0.732613
    26 1.482593 0.000000 -0.000001 0.000000 0.000000 1.168644
    27 2.046984 0.000001 0.000000 0.296540 0.023072 -0.439435
    28 -0.000005 0.000007 3.713254 -0.099769 -3.047273 5.707356
    29 18.045723 0.000000 0.000000 0.000000 0.000000 -0.419317
    30 17.597597 0.000000 0.000000 -0.057050 -0.017140 -0.157815
    31 0.000005 -0.000003 -3.713254 0.807612 2.832289 6.177488
    32 18.045721 0.000000 0.000000 0.000000 0.000000 -0.780912
    33 17.597597 0.000000 0.000000 0.179028 0.126456 0.486047
  time 3
    0 0.469730 5.234686 0.368674 0.000000 0.000000 -1.571017
    1 2.218814 -0.019532 0.000000 -1.570795 -1.570787 0.000000
    2 1.293670 0.684478 -0.000001 -0.000004 -0.000001 0.009520
    3 5.309685 -0.003834 0.000000 -0.002638 0.004614 -0.243888
    4 4.826790 -0.004591 0.000000 -0.151622 -0.001942 -0.123857
    5 5.792767 -0.005304 0.000000 -0.140502 -0.015376 -0.156860
    6 6.662322 -0.001452 0.000000 0.002289 0.003353 0.512868
    7 -3.057405 1.653546 4.331813 1.368970 -0.764619 -4.943005
    8 4.827512 0.000000 -0.000002 -0.449767 0.789116 -0.618538
    9 11.140032 0.000000 0.000000 0.000000 0.000000 -1.264573
    10 10.314563 -0.000001 0.000001 -3.560054 0.062198 -0.312018
    11 1.646836 0.445664 -1.699647 -0.161704 0.581044 -0.283978
    12 0.928312 0.000000 0.000000 0.000000 0.000000 0.000000
    13 0.928313 0.000000 -0.000001 0.000000 0.000000 0.000000
    14 2.979373 -0.388274 -0.044205 -0.001932 -0.043575 0.026189
    15 1.435262 -0.000001 -0.000001 0.000000 0.000000 0.784927
    16 1.482593 -0.000001 0.000001 0.000000 0.000000 0.540709
    17 -2.799584 1.501233 -4.148209 1.283401 0.981224 -2.428943
    18 4.972047 0.000000 0.000000 -0.721077 -1.114418 -0.623541
    19 11.585358 0.000000 0.000001 0.000000 0.000000 -1.552144
    20 10.127058 0.000000 0.000001 1.663928 0.666866 -0.285371
    21 1.537458 0.109715 1.664489 -0.264662 -0.055995 0.783079
    22 0.928313 0.000000 0.000002 0.000000 0.000000 -0.453501
    23 0.928311 0.000000 0.000001 0.000000 0.000000 0.000000
    24 2.686395 -0.427337 0.044204 -0.005762 0.043239 -0.157074
    25 1.435260 0.000000 0.000001 0.000000 0.000000 0.732613
    26 1.482593 0.000000 -0.000001 0.000000 0.000000 1.168644
    27 2.046984 0.000001 0.000000 0.293567 0.018086 -0.464740
    28 -0.000005 0.000007 3.713254 -0.099674 -3.047081 5.706781
    29 18.045723 0.000000 0.000000 0.000000 0.000000 -0.421982
    30 17.597597 0.000000 0.000000 -0.056999 -0.017337 -0.155660
    31 0.000005 -0.000003 -3.713254 0.807804 2.832577 6.178638
    32 18.045721 0.000000 0.000000 0.000000 0.000000 -0.780282
    33 17.597597 0.000000 0.000000 0.179062 0.127028 0.486324
  time 4
    0 0.469730 5.234686 0.368674 0.000000 0.000000 -1.571017
    1 2.242252 -0.027345 0.000000 -1.570795 -1.570787 0.000000
    2 1.293670 0.684478 -0.000001 -0.000004 -0.000001 0.009520
    3 5.309685 -0.003834 0.000000 -0.003454 0.006100 -0.238254
    4 4.826790 -0.004591 0.000000 -0.150077 -0.003272 -0.136799
    5 5.792767 -0.005304 0.000000 -0.139711 -0.018121 -0.173117
    6 6.662322 -0.001452 0.000000 0.004770 0.006624 0.554821
    7 -3.006622 1.790269 4.312281 1.363602 -0.763289 -4.981140
    8 4.827512 0.000000 -0.000002 -0.442831 0.819047 -0.613946
    9 11.140032 0.000000 0.000000 0.000000 0.000000 -1.256459
    10 10.314563 -0.000001 0.000001 -3.554842 0.057515 -0.322353
    11 1.646836 0.445664 -1.699647 -0.161704 0.581044 -0.283978
    12 0.928312 0.000000 0.000000 0.000000 0.000000 0.000000
    13 0.928313 0.000000 -0.000001 0.000000 0.000000 0.000000
    14 2.979373 -0.388274 -0.044205 -0.001932 -0.043575 0.026189
    15 1.435262 -0.000001 -0.000001 0.000000 0.000000 0.784927
    16 1.482593 -0.000001 0.000001 0.000000 0.000000 0.540709
    17 -2.725363 1.606705 -4.163834 1.304227 0.984983 -2.448195
    18 4.972047 0.000000 0.000000 -0.770133 -1.119480 -0.575555
    19 11.585358 0.000000 0.000001 0.000000 0.000000 -1.552389
    20 10.127058 0.000000 0.000001 1.662175 0.667245 -0.289072
    21 1.537458 0.109715 1.664489 -0.264662 -0.055995 0.783079
    22 0.928313 0.000000 0.000002 0.000000 0.000000 -0.453501
    23 0.928311 0.000000 0.000001 0.000000 0.000000 0.000000
    24 2.686395 -0.427337 0.044204 -0.005762 0.043239 -0.157074
    25 1.435260 0.000000 0.000001 0.000000 0.000000 0.732613
    26 1.482593 0.000000 -0.000001 0.000000 0.000000 1.168644
    27 2.046984 0.000001 0.000000 0.290853 0.013336 -0.493025
    28 -0.000005 0.000007 3.713254 -0.099482 -3.046889 5.706398
    29 18.045723 0.000000 0.000000 0.000000 0.000000 -0.424128
    30 17.597597 0.000000 0.000000 -0.056923 -0.017435 -0.153963
    31 0.000005 -0.000003 -3.713254 0.807899 2.832864 6.179501
    32 18.045721 0.000000 0.000000 0.000000 0.000000 -0.779731
    33 17.597597 0.000000 0.000000 0.179096 0.127521 0.486555
  time 5
    0 0.469730 5.234686 0.368674 0.000000 0.000000 -1.571017
    1 2.261784 -0.027345 0.000000 -1.570795 -1.570787 0.000000
    2 1.293670 0.684478 -0.000001 -0.000004 -0.000001 0.009520
    3 5.309685 -0.003834 0.000000 -0.004152 0.007383 -0.233414
    4 4.826790 -0.004591 0.000000 -0.148971 -0.004195 -0.145927
    5 5.792767 -0.005304 0.000000 -0.138937 -0.020314 -0.187132
    6 6.662322 -0.001452 0.000000 0.007359 0.009840 0.596774
    7 -2.940214 1.919179 4.300562 1.358234 -0.762106 -5.019372
    8 4.827512 0.000000 -0.000002 -0.436374 0.842924 -0.609266
    9 11.140032 0.000000 0.000000 0.000000 0.000000 -1.251967
    10 10.314563 -0.000001 0.000001 -3.550387 0.053112 -0.329379
    11 1.646836 0.445664 -1.699647 -0.161704 0.581044 -0.283978
    12 0.928312 0.000000 0.000000 0.000000 0.000000 0.000000
    13 0.928313 0.000000 -0.000001 0.000000 0.000000 0.000000
    14 2.979373 -0.388274 -0.044205 -0.001932 -0.043575 0.026189
    15 1.435262 -0.000001 -0.000001 0.000000 0.000000 0.784927
    16 1.482593 -0.000001 0.000001 0.000000 0.000000 0.540709
    17 -2.639423 1.712177 -4.171647 1.326486 0.988822 -2.466010
    18 4.972047 0.000000 0.000000 -0.808497 -1.124783 -0.538217
    19 11.585358 0.000000 0.000001 0.000000 0.000000 -1.552634
    20 10.127058 0.000000 0.000001 1.660282 0.667906 -0.293074
    21 1.537458 0.109715 1.664489 -0.264662 -0.055995 0.783079
    22 0.928313 0.000000 0.000002 0.000000 0.000000 -0.453501
    23 0.928311 0.000000 0.000001 0.000000 0.000000 0.000000
    24 2.686395 -0.427337 0.044204 -0.005762 0.043239 -0.157074
    25 1.435260 0.000000 0.000001 0.000000 0.000000 0.732613
    26 1.482593 0.000000 -0.000001 0.000000 0.000000 1.168644
    27 2.046984 0.000001 0.000000 0.288656 0.009117 -0.526420
    28 -0.000005 0.000007 3.713254 -0.099482 -3.046793 5.706110
    29 18.045723 0.000000 0.000000 0.000000 0.000000 -0.425460
    30 17.597597 0.000000 0.000000 -0.056873 -0.017509 -0.153001
    31 0.000005 -0.000003 -3.713254 0.807899 2.833056 6.180076
    32 18.045721 0.000000 0.000000 0.000000 0.000000 -0.779495
    33 17.597597 0.000000 0.000000 0.179062 0.127817 0.486694
  time 6
    0 0.469730 5.234686 0.368674 0.000000 0.000000 -1.571017
    1 2.265690 -0.031251 0.000000 -1.570795 -1.570787 0.000000
    2 1.293670 0.684478 -0.000001 -0.000004 -0.000001 0.009520
    3 5.309685 -0.003834 0.000000 -0.004680 0.008341 -0.229757
    4 4.826790 -0.004591 0.000000 -0.148284 -0.004734 -0.151329
    5 5.792767 -0.005304 0.000000 -0.138290 -0.022028 -0.200669
    6 6.662322 -0.001452 0.000000 0.010055 0.012905 0.638670
    7 -2.869899 2.055902 4.288843 1.352771 -0.761101 -5.057507
    8 4.827512 0.000000 -0.000002 -0.430077 0.863304 -0.604587
    9 11.140032 0.000000 0.000000 0.000000 0.000000 -1.249286
    10 10.314563 -0.000001 0.000001 -3.546407 0.049272 -0.334431
    11 1.646836 0.445664 -1.699647 -0.161704 0.581044 -0.283978
    12 0.928312 0.000000 0.000000 0.000000 0.000000 0.000000
    13 0.928313 0.000000 -0.000001 0.000000 0.000000 0.000000
    14 2.979373 -0.388274 -0.044205 -0.001932 -0.043575 0.026189
    15 1.435262 -0.000001 -0.000001 0.000000 0.000000 0.784927
    16 1.482593 -0.000001 0.000001 0.000000 0.000000 0.540709
    17 -2.549577 1.805929 -4.187273 1.348267 0.992424 -2.484496
    18 4.972047 0.000000 0.000000 -0.840670 -1.129523 -0.507003
    19 11.585358 0.000000 0.000001 0.000000 0.000000 -1.552961
    20 10.127058 0.000000 0.000001 1.658389 0.668379 -0.296926
    21 1.537458 0.109715 1.664489 -0.264662 -0.055995 0.783079
    22 0.928313 0.000000 0.000002 0.000000 0.000000 -0.453501
    23 0.928311 0.000000 0.000001 0.000000 0.000000 0.000000
    24 2.686395 -0.427337 0.044204 -0.005762 0.043239 -0.157074
    25 1.435260 0.000000 0.000001 0.000000 0.000000 0.732613
    26 1.482593 0.000000 -0.000001 0.000000 0.000000 1.168644
    27 2.046984 0.000001 0.000000 0.286760 0.005075 -0.562795
    28 -0.000005 0.000007 3.713254 -0.099386 -3.046697 5.705918
    29 18.045723 0.000000 0.000000 0.000000 0.000000 -0.426274
    30 17.597597 0.000000 0.000000 -0.056847 -0.017583 -0.152359
    31 0.000005 -0.000003 -3.713254 0.808091 2.833056 6.180364
    32 18.045721 0.000000 0.000000 0.000000 0.000000 -0.779180
    33 17.597597 0.000000 0.000000 0.179028 0.127975 0.486740
  time 7
    0 0.469730 5.234686 0.368674 0.000000 0.000000 -1.571017
    1 2.273503 -0.031251 0.000000 -1.570795 -1.570787 0.000000
    2 1.293670 0.684478 -0.000001 -0.000004 -0.000001 0.009520
    3 5.309685 -0.003834 0.000000 -0.005020 0.009012 -0.227285
    4 4.826790 -0.004591 0.000000 -0.147979 -0.005010 -0.154019
    5 5.792767 -0.005304 0.000000 -0.137624 -0.023250 -0.213127
    6 6.662322 -0.001452 0.000000 0.012907 0.015846 0.680680
    7 -2.799584 2.180906 4.269311 1.347307 -0.760214 -5.095643
    8 4.827512 0.000000 -0.000002 -0.424656 0.880274 -0.600428
    9 11.140032 0.000000 0.000000 0.000000 0.000000 -1.247185
    10 10.314563 -0.000001 0.000001 -3.543089 0.045993 -0.338669
    11 1.646836 0.445664 -1.699647 -0.161704 0.581044 -0.283978
    12 0.928312 0.000000 0.000000 0.000000 0.000000 0.000000
    13 0.928313 0.000000 -0.000001 0.000000 0.000000 0.000000
    14 2.979373 -0.388274 -0.044205 -0.001932 -0.043575 0.026189
    15 1.435262 -0.000001 -0.000001 0.000000 0.000000 0.784927
    16 1.482593 -0.000001 0.000001 0.000000 0.000000 0.540709
    17 -2.455824 1.903589 -4.202898 1.368137 0.995631 -2.505280
    18 4.972047 0.000000 0.000000 -0.867965 -1.133541 -0.480847
    19 11.585358 0.000000 0.000001 0.000000 0.000000 -1.553288
    20 10.127058 0.000000 0.000001 1.656846 0.668947 -0.300227
    21 1.537458 0.109715 1.664489 -0.264662 -0.055995 0.783079
    22 0.928313 0.000000 0.000002 0.000000 0.000000 -0.453501
    23 0.928311 0.000000 0.000001 0.000000 0.000000 0.000000
    24 2.686395 -0.427337 0.044204 -0.005762 0.043239 -0.157074
    25 1.435260 0.000000 0.000001 0.000000 0.000000 0.732613
    26 1.482593 0.000000 -0.000001 0.000000 0.000000 1.168644
    27 2.046984 0.000001 0.000000 0.285209 0.001210 -0.601848
    28 -0.000005 0.000007 3.713254 -0.099386 -3.046602 5.705823
    29 18.045723 0.000000 0.000000 0.000000 0.000000 -0.426867
    30 17.597597 0.000000 0.000000 -0.056847 -0.017632 -0.151946
    31 0.000005 -0.000003 -3.713254 0.808091 2.833152 6.180651
    32 18.045721 0.000000 0.000000 0.000000 0.000000 -0.778944
    33 17.597597 0.000000 0.000000 0.178995 0.128093 0.486832
  time 8
    0 0.469730 5.234686 0.368674 0.000000 0.000000 -1.571017
    1 2.273503 -0.031251 0.000000 -1.570795 -1.570787 0.000000
    2 1.293670 0.684478 -0.000001 -0.000004 -0.000001 0.009520
    3 5.309685 -0.003834 0.000000 -0.005258 0.009432 -0.225765
    4 4.826790 -0.004591 0.000000 -0.147979 -0.005010 -0.154019
    5 5.792767 -0.005304 0.000000 -0.137300 -0.023718 -0.220373
    6 6.662322 -0.001452 0.000000 0.012907 0.015846 0.680680
    7 -2.799584 2.180906 4.269311 1.347307 -0.760214 -5.095643
    8 4.827512 0.000000 -0.000002 -0.421388 0.888801 -0.597655
    9 11.140032 0.000000 0.000000 0.000000 0.000000 -1.247764
    10 10.314563 -0.000001 0.000001 -3.541194 0.043932 -0.339772
    11 1.646836 0.445664 -1.699647 -0.161704 0.581044 -0.283978
    12 0.928312 0.000000 0.000000 0.000000 0.000000 0.000000
    13 0.928313 0.000000 -0.000001 0.000000 0.000000 0.000000
    14 2.979373 -0.388274 -0.044205 -0.001932 -0.043575 0.026189
    15 1.435262 -0.000001 -0.000001 0.000000 0.000000 0.784927
    16 1.482593 -0.000001 0.000001 0.000000 0.000000 0.540709
    17 -2.455824 1.903589 -4.202898 1.377213 0.996761 -2.494457
    18 4.972047 0.000000 0.000000 -0.880159 -1.136594 -0.469466
    19 11.585358 0.000000 0.000001 0.000000 0.000000 -1.553451
    20 10.127058 0.000000 0.000001 1.655724 0.669325 -0.302528
    21 1.537458 0.109715 1.664489 -0.264662 -0.055995 0.783079
    22 0.928313 0.000000 0.000002 0.000000 0.000000 -0.453501
    23 0.928311 0.000000 0.000001 0.000000 0.000000 0.000000
    24 2.686395 -0.427337 0.044204 -0.005762 0.043239 -0.157074
    25 1.435260 0.000000 0.000001 0.000000 0.000000 0.732613
    26 1.482593 0.000000 -0.000001 0.000000 0.000000 1.168644
    27 2.046984 0.000001 0.000000 0.286286 -0.000089 -0.586519
    28 -0.000005 0.000007 3.713254 -0.099386 -3.046602 5.705823
    29 18.045723 0.000000 0.000000 0.000000 0.000000 -0.426719
    30 17.597597 0.000000 0.000000 -0.056797 -0.017632 -0.151992
    31 0.000005 -0.000003 -3.713254 0.808187 2.833152 6.180555
    32 18.045721 0.000000 0.000000 0.000000 0.000000 -0.779180
    33 17.597597 0.000000 0.000000 0.178995 0.128093 0.486832
  time 9
    0 0.469730 5.234686 0.368674 0.000000 0.000000 -1.571017
    1 2.261784 -0.027345 0.000000 -1.570795 -1.570787 0.000000
    2 1.293670 0.684478 -0.000001 -0.000004 -0.000001 0.009520
    3 5.309685 -0.003834 0.000000 -0.005275 0.009504 -0.225501
    4 4.826790 -0.004591 0.000000 -0.148284 -0.004734 -0.151329
    5 5.792767 -0.005304 0.000000 -0.137462 -0.022986 -0.218193
    6 6.662322 -0.001452 0.000000 0.012907 0.015846 0.680680
    7 -2.799584 2.180906 4.269311 1.347307 -0.760214 -5.095643
    8 4.827512 0.000000 -0.000002 -0.420989 0.884367 -0.597309
    9 11.140032 0.000000 0.000000 0.000000 0.000000 -1.253416
    10 10.314563 -0.000001 0.000001 -3.541289 0.043277 -0.335127
    11 1.646836 0.445664 -1.699647 -0.161704 0.581044 -0.283978
    12 0.928312 0.000000 0.000000 0.000000 0.000000 0.000000
    13 0.928313 0.000000 -0.000001 0.000000 0.000000 0.000000
    14 2.979373 -0.388274 -0.044205 -0.001932 -0.043575 0.026189
    15 1.435262 -0.000001 -0.000001 0.000000 0.000000 0.784927
    16 1.482593 -0.000001 0.000001 0.000000 0.000000 0.540709
    17 -2.455824 1.903589 -4.202898 1.382849 0.997471 -2.487753
    18 4.972047 0.000000 0.000000 -0.867309 -1.139728 -0.482111
    19 11.585358 0.000000 0.000001 0.000000 0.000000 -1.553533
    20 10.127058 0.000000 0.000001 1.654953 0.669514 -0.303979
    21 1.537458 0.109715 1.664489 -0.264662 -0.055995 0.783079
    22 0.928313 0.000000 0.000002 0.000000 0.000000 -0.453501
    23 0.928311 0.000000 0.000001 0.000000 0.000000 0.000000
    24 2.686395 -0.427337 0.044204 -0.005762 0.043239 -0.157074
    25 1.435260 0.000000 0.000001 0.000000 0.000000 0.732613
    26 1.482593 0.000000 -0.000001 0.000000 0.000000 1.168644
    27 2.046984 0.000001 0.000000 0.287837 -0.000974 -0.581957
    28 -0.000005 0.000007 3.713254 -0.099482 -3.046793 5.706014
    29 18.045723 0.000000 0.000000 0.000000 0.000000 -0.425756
    30 17.597597 0.000000 0.000000 -0.056847 -0.017509 -0.152726
    31 0.000005 -0.000003 -3.713254 0.808187 2.832960 6.180172
    32 18.045721 0.000000 0.000000 0.000000 0.000000 -0.779416
    33 17.597597 0.000000 0.000000 0.178894 0.127876 0.486647
  time 10
    0 0.469730 5.234686 0.368674 0.000000 0.000000 -1.571017
    1 2.242252 -0.019532 0.000000 -1.570795 -1.570787 0.000000
    2 1.293670 0.684478 -0.000001 -0.000004 -0.000001 0.009520
    3 5.309685 -0.003834 0.000000 -0.005105 0.009144 -0.226755
    4 4.826790 -0.004591 0.000000 -0.148971 -0.004195 -0.145927
    5 5.792767 -0.005304 0.000000 -0.138218 -0.021045 -0.205424
    6 6.662322 -0.001452 0.000000 0.012907 0.015846 0.680680
    7 -2.799584 2.180906 4.269311 1.347307 -0.760214 -5.095643
    8 4.827512 0.000000 -0.000002 -0.423939 0.866289 -0.599388
    9 11.140032 0.000000 0.000000 0.000000 0.000000 -1.265081
    10 10.314563 -0.000001 0.000001 -3.543374 0.044026 -0.324328
    11 1.646836 0.445664 -1.699647 -0.161704 0.581044 -0.283978
    12 0.928312 0.000000 0.000000 0.000000 0.000000 0.000000
    13 0.928313 0.000000 -0.000001 0.000000 0.000000 0.000000
    14 2.979373 -0.388274 -0.044205 -0.001932 -0.043575 0.026189
    15 1.435262 -0.000001 -0.000001 0.000000 0.000000 0.784927
    16 1.482593 -0.000001 0.000001 0.000000 0.000000 0.540709
    17 -2.455824 1.903589 -4.202898 1.386575 0.997918 -2.483251
    18 4.972047 0.000000 0.000000 -0.826882 -1.143183 -0.521645
    19 11.585358 0.000000 0.000001 0.000000 0.000000 -1.553614
    20 10.127058 0.000000 0.000001 1.654532 0.669703 -0.304929
    21 1.537458 0.109715 1.664489 -0.264662 -0.055995 0.783079
    22 0.928313 0.000000 0.000002 0.000000 0.000000 -0.453501
    23 0.928311 0.000000 0.000001 0.000000 0.000000 0.000000
    24 2.686395 -0.427337 0.044204 -0.005762 0.043239 -0.157074
    25 1.435260 0.000000 0.000001 0.000000 0.000000 0.732613
    26 1.482593 0.000000 -0.000001 0.000000 0.000000 1.168644
    27 2.046984 0.000001 0.000000 0.290034 -0.001269 -0.589013
    28 -0.000005 0.000007 3.713254 -0.099674 -3.046985 5.706398
    29 18.045723 0.000000 0.000000 0.000000 0.000000 -0.423832
    30 17.597597 0.000000 0.000000 -0.056923 -0.017337 -0.154284
    31 0.000005 -0.000003 -3.713254 0.808091 2.832672 6.179405
    32 18.045721 0.000000 0.000000 0.000000 0.000000 -0.779731
    33 17.597597 0.000000 0.000000 0.178861 0.127521 0.486370
  time 11
    0 0.469730 5.234686 0.368674 0.000000 0.000000 -1.571017
    1 2.211001 -0.007813 0.000000 -1.570795 -1.570787 0.000000
    2 1.293670 0.684478 -0.000001 -0.000004 -0.000001 0.009520
    3 5.309685 -0.003834 0.000000 -0.004680 0.008341 -0.229757
    4 4.826790 -0.004591 0.000000 -0.150230 -0.003164 -0.135697
    5 5.792767 -0.005304 0.000000 -0.139207 -0.018169 -0.185907
    6 6.662322 -0.001452 0.000000 0.012907 0.015846 0.680680
    7 -2.799584 2.180906 4.269311 1.347307 -0.760214 -5.095643
    8 4.827512 0.000000 -0.000002 -0.429359 0.836187 -0.603201
    9 11.140032 0.000000 0.000000 0.000000 0.000000 -1.281238
    10 10.314563 -0.000001 0.000001 -3.547354 0.046180 -0.308128
    11 1.646836 0.445664 -1.699647 -0.161704 0.581044 -0.283978
    12 0.928312 0.000000 0.000000 0.000000 0.000000 0.000000
    13 0.928313 0.000000 -0.000001 0.000000 0.000000 0.000000
    14 2.979373 -0.388274 -0.044205 -0.001932 -0.043575 0.026189
    15 1.435262 -0.000001 -0.000001 0.000000 0.000000 0.784927
    16 1.482593 -0.000001 0.000001 0.000000 0.000000 0.540709
    17 -2.455824 1.903589 -4.202898 1.388008 0.998129 -2.481335
    18 4.972047 0.000000 0.000000 -0.762723 -1.146075 -0.584141
    19 11.585358 0.000000 0.000001 0.000000 0.000000 -1.553696
    20 10.127058 0.000000 0.000001 1.654392 0.669703 -0.305329
    21 1.537458 0.109715 1.664489 -0.264662 -0.055995 0.783079
    22 0.928313 0.000000 0.000002 0.000000 0.000000 -0.453501
    23 0.928311 0.000000 0.000001 0.000000 0.000000 0.000000
    24 2.686395 -0.427337 0.044204 -0.005762 0.043239 -0.157074
    25 1.435260 0.000000 0.000001 0.000000 0.000000 0.732613
    26 1.482593 0.000000 -0.000001 0.000000 0.000000 1.168644
    27 2.046984 0.000001 0.000000 0.292964 -0.000738 -0.606045
    28 -0.000005 0.000007 3.713254 -0.099769 -3.047369 5.706973
    29 18.045723 0.000000 0.000000 0.000000 0.000000 -0.420871
    30 17.597597 0.000000 0.000000 -0.056999 -0.017041 -0.156577
    31 0.000005 -0.000003 -3.713254 0.807899 2.832193 6.178159
    32 18.045721 0.000000 0.000000 0.000000 0.000000 -0.780597
    33 17.597597 0.000000 0.000000 0.178760 0.126929 0.485955
  time 12
    0 0.469730 5.234686 0.368674 0.000000 0.000000 -1.571017
    1 2.195375 -0.019532 0.000000 -1.570795 -1.570787 0.000000
    2 1.293670 0.684478 -0.000001 -0.000004 -0.000001 0.009520
    3 5.309685 -0.003834 0.000000 -0.003318 0.005896 -0.239031
    4 4.826790 -0.004591 0.000000 -0.152042 -0.001606 -0.120660
    5 5.792767 -0.005304 0.000000 -0.140340 -0.014801 -0.162881
    6 6.662322 -0.001452 0.000000 0.012907 0.015846 0.680680
    7 -2.799584 2.180906 4.269311 1.347307 -0.760214 -5.095643
    8 4.827512 0.000000 -0.000002 -0.436295 0.802333 -0.608920
    9 11.140032 0.000000 0.000000 0.000000 0.000000 -1.295873
    10 10.314563 -0.000001 0.000001 -3.552377 0.049365 -0.291812
    11 1.646836 0.445664 -1.699647 -0.161704 0.581044 -0.283978
    12 0.928312 0.000000 0.000000 0.000000 0.000000 0.000000
    13 0.928313 0.000000 -0.000001 0.000000 0.000000 0.000000
    14 2.979373 -0.388274 -0.044205 -0.001932 -0.043575 0.026189
    15 1.435262 -0.000001 -0.000001 0.000000 0.000000 0.784927
    16 1.482593 -0.000001 0.000001 0.000000 0.000000 0.540709
    17 -2.455824 1.903589 -4.202898 1.387148 0.997997 -2.482580
    18 4.972047 0.000000 0.000000 -0.693688 -1.146316 -0.650629
    19 11.585358 0.000000 0.000001 0.000000 0.000000 -1.553614
    20 10.127058 0.000000 0.000001 1.654462 0.669703 -0.305079
    21 1.537458 0.109715 1.664489 -0.264662 -0.055995 0.783079
    22 0.928313 0.000000 0.000002 0.000000 0.000000 -0.453501
    23 0.928311 0.000000 0.000001 0.000000 0.000000 0.000000
    24 2.686395 -0.427337 0.044204 -0.005762 0.043239 -0.157074
    25 1.435260 0.000000 0.000001 0.000000 0.000000 0.732613
    26 1.482593 0.000000 -0.000001 0.000000 0.000000 1.168644
    27 2.046984 0.000001 0.000000 0.295247 0.000266 -0.624902
    28 -0.000005 0.000007 3.713254 -0.099865 -3.047464 5.707356
    29 18.045723 0.000000 0.000000 0.000000 0.000000 -0.419317
    30 17.597597 0.000000 0.000000 -0.057050 -0.016992 -0.157860
    31 0.000005 -0.000003 -3.713254 0.807899 2.832097 6.177488
    32 18.045721 0.000000 0.000000 0.000000 0.000000 -0.780912
    33 17.597597 0.000000 0.000000 0.178693 0.126574 0.485862
  time 13
    0 0.469730 5.234686 0.368674 0.000000 0.000000 -1.571017
    1 2.195375 -0.019532 0.000000 -1.570795 -1.570787 0.000000
    2 1.293670 0.684478 -0.000001 -0.000004 -0.000001 0.009520
    3 5.309685 -0.003834 0.000000 -0.001344 0.002337 -0.252703
    4 4.826790 -0.004591 0.000000 -0.153987 0.000132 -0.103992
    5 5.792767 -0.005304 0.000000 -0.141456 -0.011373 -0.139440
    6 6.662322 -0.001452 0.000000 0.010055 0.012905 0.638670
    7 -2.869899 2.055902 4.288843 1.352771 -0.761101 -5.057507
    8 4.827512 0.000000 -0.000002 -0.443549 0.770185 -0.615679
    9 11.140032 0.000000 0.000000 0.000000 0.000000 -1.306234
    10 10.314563 -0.000001 0.000001 -3.557685 0.053112 -0.278225
    11 1.646836 0.445664 -1.699647 -0.161704 0.581044 -0.283978
    12 0.928312 0.000000 0.000000 0.000000 0.000000 0.000000
    13 0.928313 0.000000 -0.000001 0.000000 0.000000 0.000000
    14 2.979373 -0.388274 -0.044205 -0.001932 -0.043575 0.026189
    15 1.435262 -0.000001 -0.000001 0.000000 0.000000 0.784927
    16 1.482593 -0.000001 0.000001 0.000000 0.000000 0.540709
    17 -2.549577 1.805929 -4.187273 1.376449 0.996314 -2.450973
    18 4.972047 0.000000 0.000000 -0.632062 -1.144147 -0.709797
    19 11.585358 0.000000 0.000001 0.000000 0.000000 -1.553614
    20 10.127058 0.000000 0.000001 1.654882 0.669514 -0.304179
    21 1.537458 0.109715 1.664489 -0.264662 -0.055995 0.783079
    22 0.928313 0.000000 0.000002 0.000000 0.000000 -0.453501
    23 0.928311 0.000000 0.000001 0.000000 0.000000 0.000000
    24 2.686395 -0.427337 0.044204 -0.005762 0.043239 -0.157074
    25 1.435260 0.000000 0.000001 0.000000 0.000000 0.732613
    26 1.482593 0.000000 -0.000001 0.000000 0.000000 1.168644
    27 2.046984 0.000001 0.000000 0.295635 0.006491 -0.609147
    28 -0.000005 0.000007 3.713254 -0.099769 -3.047273 5.707356
    29 18.045723 0.000000 0.000000 0.000000 0.000000 -0.419391
    30 17.597597 0.000000 0.000000 -0.056974 -0.017140 -0.157723
    31 0.000005 -0.000003 -3.713254 0.808091 2.832193 6.177583
    32 18.045721 0.000000 0.000000 0.000000 0.000000 -0.780912
    33 17.597597 0.000000 0.000000 0.178659 0.126476 0.485955
  time 14
    0 0.469730 5.234686 0.368674 0.000000 0.000000 -1.571017
    1 2.179750 -0.019532 0.000000 -1.570795 -1.570787 0.000000
    2 1.293670 0.684478 -0.000001 -0.000004 -0.000001 0.009520
    3 5.309685 -0.003834 0.000000 0.000000 0.000000 -0.261658
    4 4.826790 -0.004591 0.000000 -0.155742 0.001738 -0.088955
    5 5.792767 -0.005304 0.000000 -0.142319 -0.008365 -0.118947
    6 6.662322 -0.001452 0.000000 0.007359 0.009840 0.596774
    7 -2.940214 1.919179 4.300562 1.358234 -0.762106 -5.019372
    8 4.827512 0.000000 -0.000002 -0.450803 0.737184 -0.621138
    9 11.140032 0.000000 0.000000 0.000000 0.000000 -1.316450
    10 10.314563 -0.000001 0.000001 -3.563182 0.057421 -0.264987
    11 1.646836 0.445664 -1.699647 -0.161704 0.581044 -0.283978
    12 0.928312 0.000000 0.000000 0.000000 0.000000 0.000000
    13 0.928313 0.000000 -0.000001 0.000000 0.000000 0.000000
    14 2.979373 -0.388274 -0.044205 -0.001932 -0.043575 0.026189
    15 1.435262 -0.000001 -0.000001 0.000000 0.000000 0.784927
    16 1.482593 -0.000001 0.000001 0.000000 0.000000 0.540709
    17 -2.639423 1.712177 -4.171647 1.362883 0.994264 -2.422622
    18 4.972047 0.000000 0.000000 -0.571656 -1.139326 -0.768233
    19 11.585358 0.000000 0.000001 0.000000 0.000000 -1.553451
    20 10.127058 0.000000 0.000001 1.655724 0.669325 -0.302528
    21 1.537458 0.109715 1.664489 -0.264662 -0.055995 0.783079
    22 0.928313 0.000000 0.000002 0.000000 0.000000 -0.453501
    23 0.928311 0.000000 0.000001 0.000000 0.000000 0.000000
    24 2.686395 -0.427337 0.044204 -0.005762 0.043239 -0.157074
    25 1.435260 0.000000 0.000001 0.000000 0.000000 0.732613
    26 1.482593 0.000000 -0.000001 0.000000 0.000000 1.168644
    27 2.046984 0.000001 0.000000 0.296626 0.012864 -0.593636
    28 -0.000005 0.000007 3.713254 -0.099865 -3.047369 5.707740
    29 18.045723 0.000000 0.000000 0.000000 0.000000 -0.417763
    30 17.597597 0.000000 0.000000 -0.056999 -0.017115 -0.159007
    31 0.000005 -0.000003 -3.713254 0.807899 2.832097 6.177008
    32 18.045721 0.000000 0.000000 0.000000 0.000000 -0.781148
    33 17.597597 0.000000 0.000000 0.178559 0.126101 0.485862
  time 15
    0 0.469730 5.234686 0.368674 0.000000 0.000000 -1.571017
    1 2.144593 -0.019532 0.000000 -1.570795 -1.570787 0.000000
    2 1.293670 0.684478 -0.000001 -0.000004 -0.000001 0.009520
    3 5.309685 -0.003834 0.000000 0.000357 -0.000611 -0.264096
    4 4.826790 -0.004591 0.000000 -0.156963 0.002816 -0.078768
    5 5.792767 -0.005304 0.000000 -0.142913 -0.006256 -0.104496
    6 6.662322 -0.001452 0.000000 0.004770 0.006624 0.554821
    7 -3.006622 1.790269 4.312281 1.363602 -0.763289 -4.981140
    8 4.827512 0.000000 -0.000002 -0.457818 0.708021 -0.625210
    9 11.140032 0.000000 0.000000 0.000000 0.000000 -1.322753
    10 10.314563 -0.000001 0.000001 -3.568584 0.062479 -0.255639
    11 1.646836 0.445664 -1.699647 -0.161704 0.581044 -0.283978
    12 0.928312 0.000000 0.000000 0.000000 0.000000 0.000000
    13 0.928313 0.000000 -0.000001 0.000000 0.000000 0.000000
    14 2.979373 -0.388274 -0.044205 -0.001932 -0.043575 0.026189
    15 1.435262 -0.000001 -0.000001 0.000000 0.000000 0.784927
    16 1.482593 -0.000001 0.000001 0.000000 0.000000 0.540709
    17 -2.725363 1.606705 -4.163834 1.341484 0.991162 -2.403657
    18 4.972047 0.000000 0.000000 -0.526539 -1.130809 -0.812958
    19 11.585358 0.000000 0.000001 0.000000 0.000000 -1.553124
    20 10.127058 0.000000 0.000001 1.657407 0.668758 -0.298877
    21 1.537458 0.109715 1.664489 -0.264662 -0.055995 0.783079
    22 0.928313 0.000000 0.000002 0.000000 0.000000 -0.453501
    23 0.928311 0.000000 0.000001 0.000000 0.000000 0.000000
    24 2.686395 -0.427337 0.044204 -0.005762 0.043239 -0.157074
    25 1.435260 0.000000 0.000001 0.000000 0.000000 0.732613
    26 1.482593 0.000000 -0.000001 0.000000 0.000000 1.168644
    27 2.046984 0.000001 0.000000 0.297832 0.018794 -0.573805
    28 -0.000005 0.000007 3.713254 -0.099865 -3.047656 5.708411
    29 18.045723 0.000000 0.000000 0.000000 0.000000 -0.414802
    30 17.597597 0.000000 0.000000 -0.057075 -0.016845 -0.161391
    31 0.000005 -0.000003 -3.713254 0.807899 2.831714 6.175762
    32 18.045721 0.000000 0.000000 0.000000 0.000000 -0.782014
    33 17.597597 0.000000 0.000000 0.178458 0.125509 0.485447
  time 16
    0 0.469730 5.234686 0.368674 0.000000 0.000000 -1.571017
    1 2.132874 -0.007813 0.000000 -1.570795 -1.570787 0.000000
    2 1.293670 0.684478 -0.000001 -0.000004 -0.000001 0.009520
    3 5.309685 -0.003834 0.000000 0.000459 -0.000815 -0.264784
    4 4.826790 -0.004591 0.000000 -0.157459 0.003320 -0.074425
    5 5.792767 -0.005304 0.000000 -0.143128 -0.005237 -0.097852
    6 6.662322 -0.001452 0.000000 0.002289 0.003353 0.512868
    7 -3.057405 1.653546 4.331813 1.368970 -0.764619 -4.943005
    8 4.827512 0.000000 -0.000002 -0.463319 0.691989 -0.628156
    9 11.140032 0.000000 0.000000 0.000000 0.000000 -1.320290
    10 10.314563 -0.000001 0.000001 -3.572280 0.067444 -0.255116
    11 1.646836 0.445664 -1.699647 -0.161704 0.581044 -0.283978
    12 0.928312 0.000000 0.000000 0.000000 0.000000 0.000000
    13 0.928313 0.000000 -0.000001 0.000000 0.000000 0.000000
    14 2.979373 -0.388274 -0.044205 -0.001932 -0.043575 0.026189
    15 1.435262 -0.000001 -0.000001 0.000000 0.000000 0.784927
    16 1.482593 -0.000001 0.000001 0.000000 0.000000 0.540709
    17 -2.799584 1.501233 -4.148209 1.312347 0.986587 -2.394079
    18 4.972047 0.000000 0.000000 -0.513876 -1.120444 -0.826202
    19 11.585358 0.000000 0.000001 0.000000 0.000000 -1.552634
    20 10.127058 0.000000 0.000001 1.660212 0.667906 -0.293124
    21 1.537458 0.109715 1.664489 -0.264662 -0.055995 0.783079
    22 0.928313 0.000000 0.000002 0.000000 0.000000 -0.453501
    23 0.928311 0.000000 0.000001 0.000000 0.000000 0.000000
    24 2.686395 -0.427337 0.044204 -0.005762 0.043239 -0.157074
    25 1.435260 0.000000 0.000001 0.000000 0.000000 0.732613
    26 1.482593 0.000000 -0.000001 0.000000 0.000000 1.168644
    27 2.046984 0.000001 0.000000 0.298608 0.023662 -0.542114
    28 -0.000005 0.000007 3.713254 -0.099961 -3.047848 5.708698
    29 18.045723 0.000000 0.000000 0.000000 0.000000 -0.413248
    30 17.597597 0.000000 0.000000 -0.057126 -0.016697 -0.162491
    31 0.000005 -0.000003 -3.713254 0.807899 2.831426 6.175187
    32 18.045721 0.000000 0.000000 0.000000 0.000000 -0.782250
    33 17.597597 0.000000 0.000000 0.178391 0.125214 0.485216
  time 17
    0 0.469730 5.234686 0.368674 0.000000 0.000000 -1.571017
    1 2.125061 -0.007813 0.000000 -1.570795 -1.570787 0.000000
    2 1.293670 0.684478 -0.000001 -0.000004 -0.000001 0.009520
    3 5.309685 -0.003834 0.000000 0.000391 -0.000659 -0.264308
    4 4.826790 -0.004591 0.000000 -0.157516 0.003380 -0.073896
    5 5.792767 -0.005304 0.000000 -0.143164 -0.005105 -0.097063
    6 6.662322 -0.001452 0.000000 0.000000 -0.000001 0.471000
    7 -3.108188 1.516823 4.339626 1.374338 -0.766068 -4.904773
    8 4.827512 0.000000 -0.000002 -0.467065 0.685679 -0.630063
    9 11.140032 0.000000 0.000000 0.000000 0.000000 -1.313479
    10 10.314563 -0.000001 0.000001 -3.574650 0.071566 -0.259471
    11 1.646836 0.445664 -1.699647 -0.161704 0.581044 -0.283978
    12 0.928312 0.000000 0.000000 0.000000 0.000000 0.000000
    13 0.928313 0.000000 -0.000001 0.000000 0.000000 0.000000
    14 2.979373 -0.388274 -0.044205 -0.001932 -0.043575 0.026189
    15 1.435262 -0.000001 -0.000001 0.000000 0.000000 0.784927
    16 1.482593 -0.000001 0.000001 0.000000 0.000000 0.540709
    17 -2.869899 1.399667 -4.140396 1.282254 0.981382 -2.385459
    18 4.972047 0.000000 0.000000 -0.520629 -1.110963 -0.820612
    19 11.585358 0.000000 0.000001 0.000000 0.000000 -1.552144
    20 10.127058 0.000000 0.000001 1.663157 0.667055 -0.287022
    21 1.537458 0.109715 1.664489 -0.264662 -0.055995 0.783079
    22 0.928313 0.000000 0.000002 0.000000 0.000000 -0.453501
    23 0.928311 0.000000 0.000001 0.000000 0.000000 0.000000
    24 2.686395 -0.427337 0.044204 -0.005762 0.043239 -0.157074
    25 1.435260 0.000000 0.000001 0.000000 0.000000 0.732613
    26 1.482593 0.000000 -0.000001 0.000000 0.000000 1.168644
    27 2.046984 0.000001 0.000000 0.299039 0.027940 -0.502028
    28 -0.000005 0.000007 3.713254 -0.099961 -3.047944 5.708794
    29 18.045723 0.000000 0.000000 0.000000 0.000000 -0.412804
    30 17.597597 0.000000 0.000000 -0.057126 -0.016648 -0.162858
    31 0.000005 -0.000003 -3.713254 0.807899 2.831426 6.174995
    32 18.045721 0.000000 0.000000 0.000000 0.000000 -0.782486
    33 17.597597 0.000000 0.000000 0.178357 0.125115 0.485169
  time 18
    0 0.469730 5.234686 0.368674 0.000000 0.000000 -1.571017
    1 2.125061 -0.007813 0.000000 -1.570795 -1.570787 0.000000
    2 1.293670 0.684478 -0.000001 -0.000004 -0.000001 0.009520
    3 5.309685 -0.003834 0.000000 0.000221 -0.000384 -0.263212
    4 4.826790 -0.004591 0.000000 -0.157306 0.003200 -0.075527
    5 5.792767 -0.005304 0.000000 -0.143056 -0.005513 -0.099513
    6 6.662322 -0.001452 0.000000 0.000000 -0.000001 0.471000
    7 -3.108188 1.516823 4.339626 1.374338 -0.766068 -4.904773
    8 4.827512 0.000000 -0.000002 -0.468979 0.686020 -0.630756
    9 11.140032 0.000000 0.000000 0.000000 0.000000 -1.306234
    10 10.314563 -0.000001 0.000001 -3.575787 0.074095 -0.265219
    11 1.646836 0.445664 -1.699647 -0.161704 0.581044 -0.283978
    12 0.928312 0.000000 0.000000 0.000000 0.000000 0.000000
    13 0.928313 0.000000 -0.000001 0.000000 0.000000 0.000000
    14 2.979373 -0.388274 -0.044205 -0.001932 -0.043575 0.026189
    15 1.435262 -0.000001 -0.000001 0.000000 0.000000 0.784927
    16 1.482593 -0.000001 0.000001 0.000000 0.000000 0.540709
    17 -2.869899 1.399667 -4.140396 1.265154 0.977859 -2.406148
    18 4.972047 0.000000 0.000000 -0.535168 -1.104294 -0.807101
    19 11.585358 0.000000 0.000001 0.000000 0.000000 -1.551899
    20 10.127058 0.000000 0.000001 1.665401 0.666393 -0.282370
    21 1.537458 0.109715 1.664489 -0.264662 -0.055995 0.783079
    22 0.928313 0.000000 0.000002 0.000000 0.000000 -0.453501
    23 0.928311 0.000000 0.000001 0.000000 0.000000 0.000000
    24 2.686395 -0.427337 0.044204 -0.005762 0.043239 -0.157074
    25 1.435260 0.000000 0.000001 0.000000 0.000000 0.732613
    26 1.482593 0.000000 -0.000001 0.000000 0.000000 1.168644
    27 2.046984 0.000001 0.000000 0.298909 0.027704 -0.499108
    28 -0.000005 0.000007 3.713254 -0.099961 -3.047848 5.708794
    29 18.045723 0.000000 0.000000 0.000000 0.000000 -0.412952
    30 17.597597 0.000000 0.000000 -0.057126 -0.016648 -0.162812
    31 0.000005 -0.000003 -3.713254 0.807899 2.831426 6.175091
    32 18.045721 0.000000 0.000000 0.000000 0.000000 -0.782486
    33 17.597597 0.000000 0.000000 0.178324 0.125154 0.485169
  time 19
    0 0.469730 5.234686 0.368674 0.000000 0.000000 -1.571017
    1 2.132874 -0.007813 0.000000 -1.570795 -1.570787 0.000000
    2 1.293670 0.684478 -0.000001 -0.000004 -0.000001 0.009520
    3 5.309685 -0.003834 0.000000 0.000051 -0.000120 -0.262153
    4 4.826790 -0.004591 0.000000 -0.157058 0.002936 -0.077666
    5 5.792767 -0.005304 0.000000 -0.142949 -0.005980 -0.102856
    6 6.662322 -0.001452 0.000000 0.000000 -0.000001 0.471000
    7 -3.108188 1.516823 4.339626 1.374338 -0.766068 -4.904773
    8 4.827512 0.000000 -0.000002 -0.468421 0.690710 -0.630409
    9 11.140032 0.000000 0.000000 0.000000 0.000000 -1.303046
    10 10.314563 -0.000001 0.000001 -3.575219 0.074095 -0.268355
    11 1.646836 0.445664 -1.699647 -0.161704 0.581044 -0.283978
    12 0.928312 0.000000 0.000000 0.000000 0.000000 0.000000
    13 0.928313 0.000000 -0.000001 0.000000 0.000000 0.000000
    14 2.979373 -0.388274 -0.044205 -0.001932 -0.043575 0.026189
    15 1.435262 -0.000001 -0.000001 0.000000 0.000000 0.784927
    16 1.482593 -0.000001 0.000001 0.000000 0.000000 0.540709
    17 -2.869899 1.399667 -4.140396 1.262002 0.977175 -2.409979
    18 4.972047 0.000000 0.000000 -0.545955 -1.103570 -0.796652
    19 11.585358 0.000000 0.000001 0.000000 0.000000 -1.551817
    20 10.127058 0.000000 0.000001 1.665822 0.666204 -0.281519
    21 1.537458 0.109715 1.664489 -0.264662 -0.055995 0.783079
    22 0.928313 0.000000 0.000002 0.000000 0.000000 -0.453501
    23 0.928311 0.000000 0.000001 0.000000 0.000000 0.000000
    24 2.686395 -0.427337 0.044204 -0.005762 0.043239 -0.157074
    25 1.435260 0.000000 0.000001 0.000000 0.000000 0.732613
    26 1.482593 0.000000 -0.000001 0.000000 0.000000 1.168644
    27 2.046984 0.000001 0.000000 0.298737 0.027350 -0.494607
    28 -0.000005 0.000007 3.713254 -0.099961 -3.047848 5.708698
    29 18.045723 0.000000 0.000000 0.000000 0.000000 -0.413322
    30 17.597597 0.000000 0.000000 -0.057075 -0.016697 -0.162491
    31 0.000005 -0.000003 -3.713254 0.807899 2.831426 6.175283
    32 18.045721 0.000000 0.000000 0.000000 0.000000 -0.782250
    33 17.597597 0.000000 0.000000 0.178290 0.125233 0.485216
  time 20
    0 0.469730 5.234686 0.368674 0.000000 0.000000 -1.571017
    1 2.132874 -0.007813 0.000000 -1.570795 -1.570787 0.000000
    2 1.293670 0.684478 -0.000001 -0.000004 -0.000001 0.009520
    3 5.309685 -0.003834 0.000000 0.000000 0.000000 -0.261658
    4 4.826790 -0.004591 0.000000 -0.156963 0.002816 -0.078768
    5 5.792767 -0.005304 0.000000 -0.142913 -0.006256 -0.104496
    6 6.662322 -0.001452 0.000000 0.000000 -0.000001 0.471000
    7 -3.108188 1.516823 4.339626 1.374338 -0.766068 -4.904773
    8 4.827512 0.000000 -0.000002 -0.467464 0.693951 -0.629716
    9 11.140032 0.000000 0.000000 0.000000 0.000000 -1.303119
    10 10.314563 -0.000001 0.000001 -3.574555 0.073252 -0.268819
    11 1.646836 0.445664 -1.699647 -0.161704 0.581044 -0.283978
    12 0.928312 0.000000 0.000000 0.000000 0.000000 0.000000
    13 0.928313 0.000000 -0.000001 0.000000 0.000000 0.000000
    14 2.979373 -0.388274 -0.044205 -0.001932 -0.043575 0.026189
    15 1.435262 -0.000001 -0.000001 0.000000 0.000000 0.784927
    16 1.482593 -0.000001 0.000001 0.000000 0.000000 0.540709
    17 -2.869899 1.399667 -4.140396 1.265154 0.977859 -2.406148
    18 4.972047 0.000000 0.000000 -0.549332 -1.105258 -0.793191
    19 11.585358 0.000000 0.000001 0.000000 0.000000 -1.551899
    20 10.127058 0.000000 0.000001 1.665401 0.666393 -0.282370
    21 1.537458 0.109715 1.664489 -0.264662 -0.055995 0.783079
    22 0.928313 0.000000 0.000002 0.000000 0.000000 -0.453501
    23 0.928311 0.000000 0.000001 0.000000 0.000000 0.000000
    24 2.686395 -0.427337 0.044204 -0.005762 0.043239 -0.157074
    25 1.435260 0.000000 0.000001 0.000000 0.000000 0.732613
    26 1.482593 0.000000 -0.000001 0.000000 0.000000 1.168644
    27 2.046984 0.000001 0.000000 0.298737 0.027173 -0.492478
    28 -0.000005 0.000007 3.713254 -0.099865 -3.047848 5.708602
    29 18.045723 0.000000 0.000000 0.000000 0.000000 -0.413544
    30 17.597597 0.000000 0.000000 -0.057202 -0.016721 -0.162308
    31 0.000005 -0.000003 -3.713254 0.807324 2.831618 6.175091
    32 18.045721 0.000000 0.000000 0.000000 0.000000 -0.782250
    33 17.597597 0.000000 0.000000 0.178995 0.125233 0.485354
end
