version 1
nodes
  0 "Bip01" -1
  1 "Bip01 Pelvis" 0
  2 "Bip01 Spine" 1
  3 "Bip01 Spine1" 2
  4 "Bip01 Spine2" 3
  5 "Bip01 Spine3" 4
  6 "Bip01 Neck" 5
  7 "Bip01 L Arm" 6
  8 "Bip01 L Arm1" 7
  9 "Bip01 L Arm2" 8
  10 "Bip01 L Hand" 9
  11 "Bip01 L Finger0" 10
  12 "Bip01 L Finger01" 11
  13 "Bip01 L Finger02" 12
  14 "Bip01 L Finger1" 10
  15 "Bip01 L Finger11" 14
  16 "Bip01 L Finger12" 15
  17 "Bip01 R Arm" 6
  18 "Bip01 R Arm1" 17
  19 "Bip01 R Arm2" 18
  20 "Bip01 R Hand" 19
  21 "Bip01 R Finger0" 20
  22 "Bip01 R Finger01" 21
  23 "Bip01 R Finger02" 22
  24 "Bip01 R Finger1" 20
  25 "Bip01 R Finger11" 24
  26 "Bip01 R Finger12" 25
  27 "Bip01 Head" 6
  28 "Bip01 L Leg" 1
  29 "Bip01 L Leg1" 28
  30 "Bip01 L Foot" 29
  31 "Bip01 R Leg" 1
  32 "Bip01 R Leg1" 31
  33 "Bip01 R Foot" 32
end
skeleton
  time 0
    0 0.461917 3.328378 0.368674 0.000000 0.000000 -1.571017
    1 0.218753 -0.007813 0.000000 -1.570795 -1.570787 0.000000
    2 1.293670 0.684478 -0.000001 -0.062447 0.004445 -0.094676
    3 5.309685 -0.003834 0.000000 0.005275 0.003679 0.016297
    4 4.826790 -0.004591 0.000000 0.009823 -0.021692 0.026270
    5 5.792767 -0.005304 0.000000 -0.033025 -0.014513 0.010572
    6 6.662322 -0.001452 0.000000 -0.091910 0.032655 0.231870
    7 -3.518356 0.356631 4.277124 1.379418 -1.057945 -4.734025
    8 4.827512 0.000000 -0.000002 -0.929663 -0.496896 -0.822513
    9 11.140032 0.000000 0.000000 0.000000 0.000000 -0.525332
    10 10.314563 -0.000001 0.000001 -1.941654 -0.130485 0.323543
    11 1.646836 0.445664 -1.699647 -0.392035 3.352851 -0.875707
    12 0.928312 0.000000 0.000000 0.000000 0.000000 0.593404
    13 0.928313 0.000000 -0.000001 0.000000 0.000000 1.204231
    14 2.979373 -0.388274 -0.044205 -0.030851 -0.030823 0.768363
    15 1.435262 -0.000001 -0.000001 0.000000 0.000000 1.204014
    16 1.482593 -0.000001 0.000001 0.000000 0.000000 1.153221
    17 -2.975371 1.071532 -4.156022 -1.395312 0.723683 -4.673936
    18 4.972047 0.000000 0.000000 0.696125 0.604017 -0.784339
    19 11.585358 0.000000 0.000001 0.000000 0.000000 -0.587015
    20 10.127058 0.000000 0.000001 2.161668 0.015319 0.362208
    21 1.537458 0.109715 1.664489 -3.079588 0.031470 0.928526
    22 0.928313 0.000000 0.000002 0.000000 0.000000 0.061034
    23 0.928311 0.000000 0.000001 0.000000 0.000000 0.671897
    24 2.686395 -0.427337 0.044204 -0.001208 0.043611 -0.052337
    25 1.435260 0.000000 0.000001 0.000000 0.000000 1.186618
    26 1.482593 0.000000 -0.000001 0.000000 0.000000 1.684243
    27 2.046984 0.000001 0.000000 0.123519 0.084085 -0.552820
    28 -0.000005 0.000007 3.713254 -0.099865 -3.047848 5.708602
    29 18.045723 0.000000 0.000000 0.000000 0.000000 -0.413544
    30 17.597597 0.000000 0.000000 -0.057202 -0.016721 -0.162308
    31 0.000005 -0.000003 -3.713254 0.807899 2.831522 6.175283
    32 18.045721 0.000000 0.000000 0.000000 0.000000 -0.782250
    33 17.597597 0.000000 0.000000 0.178424 0.125292 0.485216
  time 1
    0 0.461917 3.328378 0.368674 0.000000 0.000000 -1.571017
    1 0.273442 -0.007813 0.000000 -1.570795 -1.570787 0.000000
    2 1.293670 0.684478 -0.000001 -0.062447 0.004445 -0.094676
    3 5.309685 -0.003834 0.000000 0.005275 0.003679 0.016297
    4 4.826790 -0.004591 0.000000 0.010033 -0.021596 0.016370
    5 5.792767 -0.005304 0.000000 -0.049107 -0.015053 -0.008489
    6 6.662322 -0.001452 0.000000 -0.091910 0.032655 0.231870
    7 -3.518356 0.356631 4.277124 1.379418 -1.057945 -4.734025
    8 4.827512 0.000000 -0.000002 -0.926554 -0.469353 -0.805356
    9 11.140032 0.000000 0.000000 0.000000 0.000000 -0.525332
    10 10.314563 -0.000001 0.000001 -1.941654 -0.130485 0.323543
    11 1.646836 0.445664 -1.699647 -0.392035 3.352851 -0.875707
    12 0.928312 0.000000 0.000000 0.000000 0.000000 0.593404
    13 0.928313 0.000000 -0.000001 0.000000 0.000000 1.204231
    14 2.979373 -0.388274 -0.044205 -0.030851 -0.030823 0.768363
    15 1.435262 -0.000001 -0.000001 0.000000 0.000000 1.204014
    16 1.482593 -0.000001 0.000001 0.000000 0.000000 1.153221
    17 -2.975371 1.071532 -4.156022 -1.342483 0.848405 -4.637923
    18 4.972047 0.000000 0.000000 0.704567 0.474091 -0.832392
    19 11.585358 0.000000 0.000001 0.000000 0.000000 -0.855578
    20 10.127058 0.000000 0.000001 2.111249 0.085486 0.209442
    21 1.537458 0.109715 1.664489 -3.079588 0.031470 0.928526
    22 0.928313 0.000000 0.000002 0.000000 0.000000 0.061034
    23 0.928311 0.000000 0.000001 0.000000 0.000000 0.671897
    24 2.686395 -0.427337 0.044204 -0.001208 0.043611 -0.052337
    25 1.435260 0.000000 0.000001 0.000000 0.000000 1.186618
    26 1.482593 0.000000 -0.000001 0.000000 0.000000 1.684243
    27 2.046984 0.000001 0.000000 0.128775 0.088894 -0.545338
    28 -0.000005 0.000007 3.713254 -0.099769 -3.047464 5.707452
    29 18.045723 0.000000 0.000000 0.000000 0.000000 -0.418725
    30 17.597597 0.000000 0.000000 -0.057126 -0.017041 -0.158273
    31 0.000005 -0.000003 -3.713254 0.808091 2.832001 6.177392
    32 18.045721 0.000000 0.000000 0.000000 0.000000 -0.781069
    33 17.597597 0.000000 0.000000 0.178492 0.126436 0.485816
  time 2
    0 0.461917 3.328378 0.368674 0.000000 0.000000 -1.571017
    1 0.324225 -0.007813 0.000000 -1.570795 -1.570787 0.000000
    2 1.293670 0.684478 -0.000001 -0.062447 0.004445 -0.094676
    3 5.309685 -0.003834 0.000000 0.005275 0.003679 0.016297
    4 4.826790 -0.004591 0.000000 0.010262 -0.021500 0.006470
    5 5.792767 -0.005304 0.000000 -0.058730 -0.015496 -0.019971
    6 6.662322 -0.001452 0.000000 -0.091910 0.032655 0.231870
    7 -3.518356 0.356631 4.277124 1.379418 -1.057945 -4.734025
    8 4.827512 0.000000 -0.000002 -0.924083 -0.448887 -0.794872
    9 11.140032 0.000000 0.000000 0.000000 0.000000 -0.525332
    10 10.314563 -0.000001 0.000001 -1.941654 -0.130485 0.323543
    11 1.646836 0.445664 -1.699647 -0.392035 3.352851 -0.875707
    12 0.928312 0.000000 0.000000 0.000000 0.000000 0.593404
    13 0.928313 0.000000 -0.000001 0.000000 0.000000 1.204231
    14 2.979373 -0.388274 -0.044205 -0.030851 -0.030823 0.768363
    15 1.435262 -0.000001 -0.000001 0.000000 0.000000 1.204014
    16 1.482593 -0.000001 0.000001 0.000000 0.000000 1.153221
    17 -2.975371 1.071532 -4.156022 -1.346782 0.839439 -4.640988
    18 4.972047 0.000000 0.000000 0.698939 0.458986 -0.838049
    19 11.585358 0.000000 0.000001 0.000000 0.000000 -0.836302
    20 10.127058 0.000000 0.000001 2.115246 0.080663 0.220597
    21 1.537458 0.109715 1.664489 -3.079588 0.031470 0.928526
    22 0.928313 0.000000 0.000002 0.000000 0.000000 0.061034
    23 0.928311 0.000000 0.000001 0.000000 0.000000 0.671897
    24 2.686395 -0.427337 0.044204 -0.001208 0.043611 -0.052337
    25 1.435260 0.000000 0.000001 0.000000 0.000000 1.186618
    26 1.482593 0.000000 -0.000001 0.000000 0.000000 1.684243
    27 2.046984 0.000001 0.000000 0.127569 0.092405 -0.545763
    28 -0.000005 0.000007 3.713254 -0.099482 -3.047081 5.706589
    29 18.045723 0.000000 0.000000 0.000000 0.000000 -0.422944
    30 17.597597 0.000000 0.000000 -0.057075 -0.017287 -0.154926
    31 0.000005 -0.000003 -3.713254 0.808379 2.832481 6.179117
    32 18.045721 0.000000 0.000000 0.000000 0.000000 -0.780046
    33 17.597597 0.000000 0.000000 0.178559 0.127383 0.486232
  time 3
    0 0.461917 3.328378 0.368674 0.000000 0.000000 -1.571017
    1 0.328131 -0.007813 0.000000 -1.570795 -1.570787 0.000000
    2 1.293670 0.684478 -0.000001 -0.062447 0.004445 -0.094676
    3 5.309685 -0.003834 0.000000 0.005275 0.003679 0.016297
    4 4.826790 -0.004591 0.000000 0.010396 -0.021452 0.001972
    5 5.792767 -0.005304 0.000000 -0.055924 -0.015352 -0.016628
    6 6.662322 -0.001452 0.000000 -0.091910 0.032655 0.231870
    7 -3.518356 0.356631 4.277124 1.379418 -1.057945 -4.734025
    8 4.827512 0.000000 -0.000002 -0.923923 -0.447608 -0.797644
    9 11.140032 0.000000 0.000000 0.000000 0.000000 -0.525332
    10 10.314563 -0.000001 0.000001 -1.941654 -0.130485 0.323543
    11 1.646836 0.445664 -1.699647 -0.392035 3.352851 -0.875707
    12 0.928312 0.000000 0.000000 0.000000 0.000000 0.593404
    13 0.928313 0.000000 -0.000001 0.000000 0.000000 1.204231
    14 2.979373 -0.388274 -0.044205 -0.030851 -0.030823 0.768363
    15 1.435262 -0.000001 -0.000001 0.000000 0.000000 1.204014
    16 1.482593 -0.000001 0.000001 0.000000 0.000000 1.153221
    17 -2.975371 1.071532 -4.156022 -1.357195 0.816593 -4.648459
    18 4.972047 0.000000 0.000000 0.697532 0.476582 -0.828532
    19 11.585358 0.000000 0.000001 0.000000 0.000000 -0.786967
    20 10.127058 0.000000 0.000001 2.125204 0.068275 0.248959
    21 1.537458 0.109715 1.664489 -3.079588 0.031470 0.928526
    22 0.928313 0.000000 0.000002 0.000000 0.000000 0.061034
    23 0.928311 0.000000 0.000001 0.000000 0.000000 0.671897
    24 2.686395 -0.427337 0.044204 -0.001208 0.043611 -0.052337
    25 1.435260 0.000000 0.000001 0.000000 0.000000 1.186618
    26 1.482593 0.000000 -0.000001 0.000000 0.000000 1.684243
    27 2.046984 0.000001 0.000000 0.133471 0.092405 -0.553610
    28 -0.000005 0.000007 3.713254 -0.099386 -3.047081 5.706398
    29 18.045723 0.000000 0.000000 0.000000 0.000000 -0.423980
    30 17.597597 0.000000 0.000000 -0.057075 -0.017337 -0.154147
    31 0.000005 -0.000003 -3.713254 0.808379 2.832577 6.179501
    32 18.045721 0.000000 0.000000 0.000000 0.000000 -0.779731
    33 17.597597 0.000000 0.000000 0.178525 0.127600 0.486324
  time 4
    0 0.461917 3.328378 0.368674 0.000000 0.000000 -1.571017
    1 0.304693 -0.007813 0.000000 -1.570795 -1.570787 0.000000
    2 1.293670 0.684478 -0.000001 -0.062447 0.004445 -0.094676
    3 5.309685 -0.003834 0.000000 0.005275 0.003679 0.016297
    4 4.826790 -0.004591 0.000000 0.010262 -0.021500 0.006470
    5 5.792767 -0.005304 0.000000 -0.049107 -0.015053 -0.008489
    6 6.662322 -0.001452 0.000000 -0.091910 0.032655 0.231870
    7 -3.518356 0.356631 4.277124 1.379418 -1.057945 -4.734025
    8 4.827512 0.000000 -0.000002 -0.925278 -0.459632 -0.805010
    9 11.140032 0.000000 0.000000 0.000000 0.000000 -0.525332
    10 10.314563 -0.000001 0.000001 -1.941654 -0.130485 0.323543
    11 1.646836 0.445664 -1.699647 -0.392035 3.352851 -0.875707
    12 0.928312 0.000000 0.000000 0.000000 0.000000 0.593404
    13 0.928313 0.000000 -0.000001 0.000000 0.000000 1.204231
    14 2.979373 -0.388274 -0.044205 -0.030851 -0.030823 0.768363
    15 1.435262 -0.000001 -0.000001 0.000000 0.000000 1.204014
    16 1.482593 -0.000001 0.000001 0.000000 0.000000 1.153221
    17 -2.975371 1.071532 -4.156022 -1.370665 0.785702 -4.657749
    18 4.972047 0.000000 0.000000 0.697720 0.514507 -0.813956
    19 11.585358 0.000000 0.000001 0.000000 0.000000 -0.720398
    20 10.127058 0.000000 0.000001 2.138037 0.050970 0.286926
    21 1.537458 0.109715 1.664489 -3.079588 0.031470 0.928526
    22 0.928313 0.000000 0.000002 0.000000 0.000000 0.061034
    23 0.928311 0.000000 0.000001 0.000000 0.000000 0.671897
    24 2.686395 -0.427337 0.044204 -0.001208 0.043611 -0.052337
    25 1.435260 0.000000 0.000001 0.000000 0.000000 1.186618
    26 1.482593 0.000000 -0.000001 0.000000 0.000000 1.684243
    27 2.046984 0.000001 0.000000 0.134936 0.092936 -0.575570
    28 -0.000005 0.000007 3.713254 -0.099482 -3.047273 5.706877
    29 18.045723 0.000000 0.000000 0.000000 0.000000 -0.421686
    30 17.597597 0.000000 0.000000 -0.057126 -0.017214 -0.155889
    31 0.000005 -0.000003 -3.713254 0.808379 2.832289 6.178638
    32 18.045721 0.000000 0.000000 0.000000 0.000000 -0.780360
    33 17.597597 0.000000 0.000000 0.178458 0.127087 0.486047
  time 5
    0 0.461917 3.328378 0.368674 0.000000 0.000000 -1.571017
    1 0.261723 -0.007813 0.000000 -1.570795 -1.570787 0.000000
    2 1.293670 0.684478 -0.000001 -0.062447 0.004445 -0.094676
    3 5.309685 -0.003834 0.000000 0.005275 0.003679 0.016297
    4 4.826790 -0.004591 0.000000 0.010033 -0.021596 0.016370
    5 5.792767 -0.005304 0.000000 -0.040652 -0.014717 0.001477
    6 6.662322 -0.001452 0.000000 -0.091910 0.032655 0.231870
    7 -3.518356 0.356631 4.277124 1.379418 -1.057945 -4.734025
    8 4.827512 0.000000 -0.000002 -0.927590 -0.478648 -0.814108
    9 11.140032 0.000000 0.000000 0.000000 0.000000 -0.525332
    10 10.314563 -0.000001 0.000001 -1.941654 -0.130485 0.323543
    11 1.646836 0.445664 -1.699647 -0.392035 3.352851 -0.875707
    12 0.928312 0.000000 0.000000 0.000000 0.000000 0.593404
    13 0.928313 0.000000 -0.000001 0.000000 0.000000 1.204231
    14 2.979373 -0.388274 -0.044205 -0.030851 -0.030823 0.768363
    15 1.435262 -0.000001 -0.000001 0.000000 0.000000 1.204014
    16 1.482593 -0.000001 0.000001 0.000000 0.000000 1.153221
    17 -2.975371 1.071532 -4.156022 -1.384039 0.752734 -4.666848
    18 4.972047 0.000000 0.000000 0.697532 0.561431 -0.798049
    19 11.585358 0.000000 0.000001 0.000000 0.000000 -0.649500
    20 10.127058 0.000000 0.000001 2.151010 0.032246 0.327143
    21 1.537458 0.109715 1.664489 -3.079588 0.031470 0.928526
    22 0.928313 0.000000 0.000002 0.000000 0.000000 0.061034
    23 0.928311 0.000000 0.000001 0.000000 0.000000 0.671897
    24 2.686395 -0.427337 0.044204 -0.001208 0.043611 -0.052337
    25 1.435260 0.000000 0.000001 0.000000 0.000000 1.186618
    26 1.482593 0.000000 -0.000001 0.000000 0.000000 1.684243
    27 2.046984 0.000001 0.000000 0.128818 0.088304 -0.564864
    28 -0.000005 0.000007 3.713254 -0.099674 -3.047560 5.707740
    29 18.045723 0.000000 0.000000 0.000000 0.000000 -0.417615
    30 17.597597 0.000000 0.000000 -0.057202 -0.016992 -0.159144
    31 0.000005 -0.000003 -3.713254 0.808187 2.831810 6.176912
    32 18.045721 0.000000 0.000000 0.000000 0.000000 -0.781384
    33 17.597597 0.000000 0.000000 0.178324 0.126180 0.485631
  time 6
    0 0.461917 3.328378 0.368674 0.000000 0.000000 -1.571017
    1 0.218753 -0.007813 0.000000 -1.570795 -1.570787 0.000000
    2 1.293670 0.684478 -0.000001 -0.062447 0.004445 -0.094676
    3 5.309685 -0.003834 0.000000 0.005275 0.003679 0.016297
    4 4.826790 -0.004591 0.000000 0.009823 -0.021692 0.026270
    5 5.792767 -0.005304 0.000000 -0.033025 -0.014513 0.010572
    6 6.662322 -0.001452 0.000000 -0.091910 0.032655 0.231870
    7 -3.518356 0.356631 4.277124 1.379418 -1.057945 -4.734025
    8 4.827512 0.000000 -0.000002 -0.929663 -0.496896 -0.822513
    9 11.140032 0.000000 0.000000 0.000000 0.000000 -0.525332
    10 10.314563 -0.000001 0.000001 -1.941654 -0.130485 0.323543
    11 1.646836 0.445664 -1.699647 -0.392035 3.352851 -0.875707
    12 0.928312 0.000000 0.000000 0.000000 0.000000 0.593404
    13 0.928313 0.000000 -0.000001 0.000000 0.000000 1.204231
    14 2.979373 -0.388274 -0.044205 -0.030851 -0.030823 0.768363
    15 1.435262 -0.000001 -0.000001 0.000000 0.000000 1.204014
    16 1.482593 -0.000001 0.000001 0.000000 0.000000 1.153221
    17 -2.975371 1.071532 -4.156022 -1.395312 0.723683 -4.673936
    18 4.972047 0.000000 0.000000 0.696125 0.604017 -0.784339
    19 11.585358 0.000000 0.000001 0.000000 0.000000 -0.587015
    20 10.127058 0.000000 0.000001 2.161668 0.015319 0.362208
    21 1.537458 0.109715 1.664489 -3.079588 0.031470 0.928526
    22 0.928313 0.000000 0.000002 0.000000 0.000000 0.061034
    23 0.928311 0.000000 0.000001 0.000000 0.000000 0.671897
    24 2.686395 -0.427337 0.044204 -0.001208 0.043611 -0.052337
    25 1.435260 0.000000 0.000001 0.000000 0.000000 1.186618
    26 1.482593 0.000000 -0.000001 0.000000 0.000000 1.684243
    27 2.046984 0.000001 0.000000 0.123519 0.084085 -0.552820
    28 -0.000005 0.000007 3.713254 -0.099769 -3.047848 5.708602
    29 18.045723 0.000000 0.000000 0.000000 0.000000 -0.413544
    30 17.597597 0.000000 0.000000 -0.057303 -0.016771 -0.162308
    31 0.000005 -0.000003 -3.713254 0.808091 2.831426 6.175378
    32 18.045721 0.000000 0.000000 0.000000 0.000000 -0.782250
    33 17.597597 0.000000 0.000000 0.178190 0.125312 0.485216
end
