version 1
nodes
  0 "Bip01" -1
  1 "Bip01 Pelvis" 0
  2 "Bip01 Spine" 1
  3 "Bip01 Spine1" 2
  4 "Bip01 Spine2" 3
  5 "Bip01 Spine3" 4
  6 "Bip01 Neck" 5
  7 "Bip01 L Arm" 6
  8 "Bip01 L Arm1" 7
  9 "Bip01 L Arm2" 8
  10 "Bip01 L Hand" 9
  11 "Bip01 L Finger0" 10
  12 "Bip01 L Finger01" 11
  13 "Bip01 L Finger02" 12
  14 "Bip01 L Finger1" 10
  15 "Bip01 L Finger11" 14
  16 "Bip01 L Finger12" 15
  17 "Bip01 R Arm" 6
  18 "Bip01 R Arm1" 17
  19 "Bip01 R Arm2" 18
  20 "Bip01 R Hand" 19
  21 "Bip01 R Finger0" 20
  22 "Bip01 R Finger01" 21
  23 "Bip01 R Finger02" 22
  24 "Bip01 R Finger1" 20
  25 "Bip01 R Finger11" 24
  26 "Bip01 R Finger12" 25
  27 "Bip01 Head" 6
  28 "Bip01 L Leg" 1
  29 "Bip01 L Leg1" 28
  30 "Bip01 L Foot" 29
  31 "Bip01 R Leg" 1
  32 "Bip01 R Leg1" 31
  33 "Bip01 R Foot" 32
end
skeleton
  time 0
    0 0.407228 2.343973 0.368674 0.000000 0.000000 -1.571017
    1 -0.746121 0.039064 0.000000 -1.570795 -1.570787 0.000000
    2 1.293670 0.684478 -0.000001 -0.062447 0.004445 -0.094676
    3 5.309685 -0.003834 0.000000 0.005275 0.003679 0.016297
    4 4.826790 -0.004591 0.000000 0.004597 -0.023418 0.258769
    5 5.792767 -0.005304 0.000000 -0.035454 -0.006867 0.232443
    6 6.662322 -0.001452 0.000000 -0.091910 0.032655 0.231870
    7 -3.518356 0.356631 4.277124 1.379418 -1.057945 -4.734025
    8 4.827512 0.000000 -0.000002 -0.570857 0.463626 -0.728497
    9 11.140032 0.000000 0.000000 0.000000 0.000000 -0.379193
    10 10.314563 -0.000001 0.000001 -2.156512 -0.007868 0.280634
    11 1.646836 0.445664 -1.699647 -0.392035 3.352851 -0.875707
    12 0.928312 0.000000 0.000000 0.000000 0.000000 0.593404
    13 0.928313 0.000000 -0.000001 0.000000 0.000000 1.204231
    14 2.979373 -0.388274 -0.044205 -0.030851 -0.030823 0.768363
    15 1.435262 -0.000001 -0.000001 0.000000 0.000000 1.204014
    16 1.482593 -0.000001 0.000001 0.000000 0.000000 1.153221
    17 -2.975371 1.071532 -4.156022 -1.395312 0.723683 -4.673936
    18 4.972047 0.000000 0.000000 0.164569 -0.337519 -0.636520
    19 11.585358 0.000000 0.000001 0.000000 0.000000 -0.525837
    20 10.127058 0.000000 0.000001 2.414465 0.033476 0.453447
    21 1.537458 0.109715 1.664489 -3.079588 0.031470 0.928526
    22 0.928313 0.000000 0.000002 0.000000 0.000000 0.061034
    23 0.928311 0.000000 0.000001 0.000000 0.000000 0.671897
    24 2.686395 -0.427337 0.044204 -0.001208 0.043611 -0.052337
    25 1.435260 0.000000 0.000001 0.000000 0.000000 1.186618
    26 1.482593 0.000000 -0.000001 0.000000 0.000000 1.684243
    27 2.046984 0.000001 0.000000 0.157554 -0.039122 0.151273
    28 -0.000005 0.000007 3.713254 -0.099865 -3.047848 5.708602
    29 18.045723 0.000000 0.000000 0.000000 0.000000 -0.413544
    30 17.597597 0.000000 0.000000 -0.057202 -0.016721 -0.162308
    31 0.000005 -0.000003 -3.713254 0.807516 2.831522 6.175187
    32 18.045721 0.000000 0.000000 0.000000 0.000000 -0.782250
    33 17.597597 0.000000 0.000000 0.178760 0.125233 0.485354
  time 1
    0 0.407228 2.312722 0.368674 0.000000 0.000000 -1.571017
    1 -0.746121 0.039064 0.000000 -1.570795 -1.570787 0.000000
    2 1.293670 0.684478 -0.000001 -0.062447 0.004445 -0.094676
    3 5.309685 -0.003834 0.000000 0.004867 0.005333 0.021932
    4 4.826790 -0.004591 0.000000 0.005627 -0.025431 0.244195
    5 5.792767 -0.005304 0.000000 -0.035760 -0.009935 0.215293
    6 6.662322 -0.001452 0.000000 -0.091910 0.032655 0.231870
    7 -3.518356 0.356631 4.277124 1.379418 -1.057945 -4.734025
    8 4.827512 0.000000 -0.000002 -0.560892 0.488270 -0.722085
    9 11.140032 0.000000 0.000000 0.000000 0.000000 -0.379193
    10 10.314563 -0.000001 0.000001 -2.156512 -0.007868 0.280634
    11 1.646836 0.445664 -1.699647 -0.392035 3.352851 -0.875707
    12 0.928312 0.000000 0.000000 0.000000 0.000000 0.593404
    13 0.928313 0.000000 -0.000001 0.000000 0.000000 1.204231
    14 2.979373 -0.388274 -0.044205 -0.030851 -0.030823 0.768363
    15 1.435262 -0.000001 -0.000001 0.000000 0.000000 1.204014
    16 1.482593 -0.000001 0.000001 0.000000 0.000000 1.153221
    17 -2.975371 1.071532 -4.156022 -1.393879 0.723420 -4.671925
    18 4.972047 0.000000 0.000000 0.161286 -0.361543 -0.631595
    19 11.585358 0.000000 0.000001 0.000000 0.000000 -0.525837
    20 10.127058 0.000000 0.000001 2.414535 0.033287 0.453898
    21 1.537458 0.109715 1.664489 -3.079588 0.031470 0.928526
    22 0.928313 0.000000 0.000002 0.000000 0.000000 0.061034
    23 0.928311 0.000000 0.000001 0.000000 0.000000 0.671897
    24 2.686395 -0.427337 0.044204 -0.001208 0.043611 -0.052337
    25 1.435260 0.000000 0.000001 0.000000 0.000000 1.186618
    26 1.482593 0.000000 -0.000001 0.000000 0.000000 1.684243
    27 2.046984 0.000001 0.000000 0.157210 -0.038827 0.177551
    28 -0.000005 0.000007 3.713254 -0.099769 -3.047656 5.707931
    29 18.045723 0.000000 0.000000 0.000000 0.000000 -0.416579
    30 17.597597 0.000000 0.000000 -0.057151 -0.016918 -0.159923
    31 0.000005 -0.000003 -3.713254 0.807612 2.831905 6.176433
    32 18.045721 0.000000 0.000000 0.000000 0.000000 -0.781620
    33 17.597597 0.000000 0.000000 0.178794 0.125904 0.485631
  time 2
    0 0.395509 2.273658 0.368674 0.000000 0.000000 -1.571017
    1 -0.746121 0.039064 0.000000 -1.570795 -1.570787 0.000000
    2 1.293670 0.684478 -0.000001 -0.062447 0.004445 -0.094676
    3 5.309685 -0.003834 0.000000 0.004441 0.007131 0.028008
    4 4.826790 -0.004591 0.000000 0.006848 -0.027601 0.228585
    5 5.792767 -0.005304 0.000000 -0.035993 -0.013147 0.197582
    6 6.662322 -0.001452 0.000000 -0.091910 0.032655 0.231870
    7 -3.518356 0.356631 4.277124 1.399834 -1.060074 -4.757500
    8 4.827512 0.000000 -0.000002 -0.553399 0.528775 -0.714373
    9 11.140032 0.000000 0.000000 0.000000 0.000000 -0.378541
    10 10.314563 -0.000001 0.000001 -2.156512 -0.007868 0.280634
    11 1.646836 0.445664 -1.699647 -0.392035 3.352851 -0.875707
    12 0.928312 0.000000 0.000000 0.000000 0.000000 0.593404
    13 0.928313 0.000000 -0.000001 0.000000 0.000000 1.204231
    14 2.979373 -0.388274 -0.044205 -0.030851 -0.030823 0.768363
    15 1.435262 -0.000001 -0.000001 0.000000 0.000000 1.204014
    16 1.482593 -0.000001 0.000001 0.000000 0.000000 1.153221
    17 -2.975371 1.071532 -4.156022 -1.395312 0.723683 -4.673936
    18 4.972047 0.000000 0.000000 0.159223 -0.390549 -0.626603
    19 11.585358 0.000000 0.000001 0.000000 0.000000 -0.525837
    20 10.127058 0.000000 0.000001 2.414465 0.033476 0.453447
    21 1.537458 0.109715 1.664489 -3.079588 0.031470 0.928526
    22 0.928313 0.000000 0.000002 0.000000 0.000000 0.061034
    23 0.928311 0.000000 0.000001 0.000000 0.000000 0.671897
    24 2.686395 -0.427337 0.044204 -0.001208 0.043611 -0.052337
    25 1.435260 0.000000 0.000001 0.000000 0.000000 1.186618
    26 1.482593 0.000000 -0.000001 0.000000 0.000000 1.684243
    27 2.046984 0.000001 0.000000 0.156822 -0.038532 0.205228
    28 -0.000005 0.000007 3.713254 -0.099674 -3.047369 5.707260
    29 18.045723 0.000000 0.000000 0.000000 0.000000 -0.419761
    30 17.597597 0.000000 0.000000 -0.057126 -0.017115 -0.157448
    31 0.000005 -0.000003 -3.713254 0.807899 2.832193 6.177679
    32 18.045721 0.000000 0.000000 0.000000 0.000000 -0.780833
    33 17.597597 0.000000 0.000000 0.178794 0.126614 0.485955
  time 3
    0 0.395509 2.246313 0.368674 0.000000 0.000000 -1.571017
    1 -0.746121 0.039064 0.000000 -1.570795 -1.570787 0.000000
    2 1.293670 0.684478 -0.000001 -0.062447 0.004445 -0.094676
    3 5.309685 -0.003834 0.000000 0.003999 0.008905 0.034049
    4 4.826790 -0.004591 0.000000 0.007973 -0.029698 0.213482
    5 5.792767 -0.005304 0.000000 -0.036209 -0.016287 0.180100
    6 6.662322 -0.001452 0.000000 -0.090460 0.036490 0.273880
    7 -3.498824 0.497261 4.277124 1.419484 -1.061848 -4.822082
    8 4.827512 0.000000 -0.000002 -0.545507 0.567831 -0.707008
    9 11.140032 0.000000 0.000000 0.000000 0.000000 -0.377817
    10 10.314563 -0.000001 0.000001 -2.156512 -0.007868 0.280634
    11 1.646836 0.445664 -1.699647 -0.392035 3.352851 -0.875707
    12 0.928312 0.000000 0.000000 0.000000 0.000000 0.593404
    13 0.928313 0.000000 -0.000001 0.000000 0.000000 1.204231
    14 2.979373 -0.388274 -0.044205 -0.030851 -0.030823 0.768363
    15 1.435262 -0.000001 -0.000001 0.000000 0.000000 1.204014
    16 1.482593 -0.000001 0.000001 0.000000 0.000000 1.153221
    17 -2.932401 1.192629 -4.156022 -1.402095 0.725023 -4.726328
    18 4.972047 0.000000 0.000000 0.159598 -0.426305 -0.621944
    19 11.585358 0.000000 0.000001 0.000000 0.000000 -0.526082
    20 10.127058 0.000000 0.000001 2.413904 0.034610 0.451346
    21 1.537458 0.109715 1.664489 -3.079588 0.031470 0.928526
    22 0.928313 0.000000 0.000002 0.000000 0.000000 0.061034
    23 0.928311 0.000000 0.000001 0.000000 0.000000 0.671897
    24 2.686395 -0.427337 0.044204 -0.001208 0.043611 -0.052337
    25 1.435260 0.000000 0.000001 0.000000 0.000000 1.186618
    26 1.482593 0.000000 -0.000001 0.000000 0.000000 1.684243
    27 2.046984 0.000001 0.000000 0.155012 -0.036260 0.180410
    28 -0.000005 0.000007 3.713254 -0.099482 -3.047177 5.706589
    29 18.045723 0.000000 0.000000 0.000000 0.000000 -0.422870
    30 17.597597 0.000000 0.000000 -0.057075 -0.017287 -0.155064
    31 0.000005 -0.000003 -3.713254 0.807899 2.832481 6.179021
    32 18.045721 0.000000 0.000000 0.000000 0.000000 -0.780046
    33 17.597597 0.000000 0.000000 0.178861 0.127304 0.486232
  time 4
    0 0.395509 2.218969 0.368674 0.000000 0.000000 -1.571017
    1 -0.746121 0.039064 0.000000 -1.570795 -1.570787 0.000000
    2 1.293670 0.684478 -0.000001 -0.062447 0.004445 -0.094676
    3 5.309685 -0.003834 0.000000 0.003608 0.010534 0.039683
    4 4.826790 -0.004591 0.000000 0.009003 -0.031472 0.200539
    5 5.792767 -0.005304 0.000000 -0.036335 -0.019127 0.163905
    6 6.662322 -0.001452 0.000000 -0.088854 0.040242 0.315833
    7 -3.475386 0.645703 4.277124 1.437025 -1.063238 -4.884268
    8 4.827512 0.000000 -0.000002 -0.538253 0.602452 -0.700249
    9 11.140032 0.000000 0.000000 0.000000 0.000000 -0.377092
    10 10.314563 -0.000001 0.000001 -2.156512 -0.007868 0.280634
    11 1.646836 0.445664 -1.699647 -0.392035 3.352851 -0.875707
    12 0.928312 0.000000 0.000000 0.000000 0.000000 0.593404
    13 0.928313 0.000000 -0.000001 0.000000 0.000000 1.204231
    14 2.979373 -0.388274 -0.044205 -0.030851 -0.030823 0.768363
    15 1.435262 -0.000001 -0.000001 0.000000 0.000000 1.204014
    16 1.482593 -0.000001 0.000001 0.000000 0.000000 1.153221
    17 -2.877712 1.317633 -4.156022 -1.410406 0.726601 -4.781018
    18 4.972047 0.000000 0.000000 0.160723 -0.460935 -0.618084
    19 11.585358 0.000000 0.000001 0.000000 0.000000 -0.526409
    20 10.127058 0.000000 0.000001 2.413273 0.036029 0.448695
    21 1.537458 0.109715 1.664489 -3.079588 0.031470 0.928526
    22 0.928313 0.000000 0.000002 0.000000 0.000000 0.061034
    23 0.928311 0.000000 0.000001 0.000000 0.000000 0.671897
    24 2.686395 -0.427337 0.044204 -0.001208 0.043611 -0.052337
    25 1.435260 0.000000 0.000001 0.000000 0.000000 1.186618
    26 1.482593 0.000000 -0.000001 0.000000 0.000000 1.684243
    27 2.046984 0.000001 0.000000 0.153246 -0.034106 0.152368
    28 -0.000005 0.000007 3.713254 -0.099386 -3.046985 5.706110
    29 18.045723 0.000000 0.000000 0.000000 0.000000 -0.425312
    30 17.597597 0.000000 0.000000 -0.057050 -0.017411 -0.153046
    31 0.000005 -0.000003 -3.713254 0.808187 2.832768 6.179980
    32 18.045721 0.000000 0.000000 0.000000 0.000000 -0.779495
    33 17.597597 0.000000 0.000000 0.178861 0.127896 0.486463
  time 5
    0 0.395509 2.199437 0.368674 0.000000 0.000000 -1.571017
    1 -0.746121 0.039064 0.000000 -1.570795 -1.570787 0.000000
    2 1.293670 0.684478 -0.000001 -0.062447 0.004445 -0.094676
    3 5.309685 -0.003834 0.000000 0.003284 0.011985 0.044541
    4 4.826790 -0.004591 0.000000 0.009747 -0.032718 0.191389
    5 5.792767 -0.005304 0.000000 -0.036371 -0.021440 0.149890
    6 6.662322 -0.001452 0.000000 -0.087056 0.043953 0.357843
    7 -3.444135 0.794145 4.277124 1.451787 -1.064273 -4.943196
    8 4.827512 0.000000 -0.000002 -0.532513 0.630081 -0.695050
    9 11.140032 0.000000 0.000000 0.000000 0.000000 -0.376512
    10 10.314563 -0.000001 0.000001 -2.156512 -0.007868 0.280634
    11 1.646836 0.445664 -1.699647 -0.392035 3.352851 -0.875707
    12 0.928312 0.000000 0.000000 0.000000 0.000000 0.593404
    13 0.928313 0.000000 -0.000001 0.000000 0.000000 1.204231
    14 2.979373 -0.388274 -0.044205 -0.030851 -0.030823 0.768363
    15 1.435262 -0.000001 -0.000001 0.000000 0.000000 1.204014
    16 1.482593 -0.000001 0.000001 0.000000 0.000000 1.153221
    17 -2.830835 1.427012 -4.156022 -1.419577 0.728178 -4.836858
    18 4.972047 0.000000 0.000000 0.162506 -0.491629 -0.615422
    19 11.585358 0.000000 0.000001 0.000000 0.000000 -0.526735
    20 10.127058 0.000000 0.000001 2.412502 0.037353 0.445844
    21 1.537458 0.109715 1.664489 -3.079588 0.031470 0.928526
    22 0.928313 0.000000 0.000002 0.000000 0.000000 0.061034
    23 0.928311 0.000000 0.000001 0.000000 0.000000 0.671897
    24 2.686395 -0.427337 0.044204 -0.001208 0.043611 -0.052337
    25 1.435260 0.000000 0.000001 0.000000 0.000000 1.186618
    26 1.482593 0.000000 -0.000001 0.000000 0.000000 1.684243
    27 2.046984 0.000001 0.000000 0.151566 -0.032159 0.119338
    28 -0.000005 0.000007 3.713254 -0.099290 -3.046889 5.705727
    29 18.045723 0.000000 0.000000 0.000000 0.000000 -0.427015
    30 17.597597 0.000000 0.000000 -0.057050 -0.017435 -0.151809
    31 0.000005 -0.000003 -3.713254 0.808187 2.832864 6.180651
    32 18.045721 0.000000 0.000000 0.000000 0.000000 -0.778944
    33 17.597597 0.000000 0.000000 0.178861 0.128310 0.486555
  time 6
    0 0.395509 2.187718 0.368674 0.000000 0.000000 -1.571017
    1 -0.746121 0.039064 0.000000 -1.570795 -1.570787 0.000000
    2 1.293670 0.684478 -0.000001 -0.062447 0.004445 -0.094676
    3 5.309685 -0.003834 0.000000 0.003046 0.013027 0.048180
    4 4.826790 -0.004591 0.000000 0.010243 -0.033449 0.186009
    5 5.792767 -0.005304 0.000000 -0.036281 -0.023286 0.136394
    6 6.662322 -0.001452 0.000000 -0.085163 0.047581 0.399825
    7 -3.405072 0.938680 4.277124 1.462714 -1.064953 -4.997813
    8 4.827512 0.000000 -0.000002 -0.527730 0.652337 -0.690978
    9 11.140032 0.000000 0.000000 0.000000 0.000000 -0.376150
    10 10.314563 -0.000001 0.000001 -2.156512 -0.007868 0.280634
    11 1.646836 0.445664 -1.699647 -0.392035 3.352851 -0.875707
    12 0.928312 0.000000 0.000000 0.000000 0.000000 0.593404
    13 0.928313 0.000000 -0.000001 0.000000 0.000000 1.204231
    14 2.979373 -0.388274 -0.044205 -0.030851 -0.030823 0.768363
    15 1.435262 -0.000001 -0.000001 0.000000 0.000000 1.204014
    16 1.482593 -0.000001 0.000001 0.000000 0.000000 1.153221
    17 -2.768333 1.544203 -4.156022 -1.428366 0.729624 -4.892124
    18 4.972047 0.000000 0.000000 0.164194 -0.518466 -0.613292
    19 11.585358 0.000000 0.000001 0.000000 0.000000 -0.527144
    20 10.127058 0.000000 0.000001 2.411801 0.038866 0.443143
    21 1.537458 0.109715 1.664489 -3.079588 0.031470 0.928526
    22 0.928313 0.000000 0.000002 0.000000 0.000000 0.061034
    23 0.928311 0.000000 0.000001 0.000000 0.000000 0.671897
    24 2.686395 -0.427337 0.044204 -0.001208 0.043611 -0.052337
    25 1.435260 0.000000 0.000001 0.000000 0.000000 1.186618
    26 1.482593 0.000000 -0.000001 0.000000 0.000000 1.684243
    27 2.046984 0.000001 0.000000 0.149670 -0.030507 0.083084
    28 -0.000005 0.000007 3.713254 -0.099290 -3.046889 5.705535
    29 18.045723 0.000000 0.000000 0.000000 0.000000 -0.428125
    30 17.597597 0.000000 0.000000 -0.057075 -0.017435 -0.150983
    31 0.000005 -0.000003 -3.713254 0.808187 2.832864 6.181131
    32 18.045721 0.000000 0.000000 0.000000 0.000000 -0.778629
    33 17.597597 0.000000 0.000000 0.178861 0.128586 0.486647
  time 7
    0 0.407228 2.183811 0.368674 0.000000 0.000000 -1.571017
    1 -0.746121 0.039064 0.000000 -1.570795 -1.570787 0.000000
    2 1.293670 0.684478 -0.000001 -0.062447 0.004445 -0.094676
    3 5.309685 -0.003834 0.000000 0.002876 0.013758 0.050653
    4 4.826790 -0.004591 0.000000 0.010453 -0.033809 0.183297
    5 5.792767 -0.005304 0.000000 -0.036101 -0.024664 0.123916
    6 6.662322 -0.001452 0.000000 -0.083065 0.051127 0.441835
    7 -3.362102 1.079310 4.277124 1.469520 -1.065367 -5.047830
    8 4.827512 0.000000 -0.000002 -0.523585 0.669136 -0.687512
    9 11.140032 0.000000 0.000000 0.000000 0.000000 -0.375860
    10 10.314563 -0.000001 0.000001 -2.156512 -0.007868 0.280634
    11 1.646836 0.445664 -1.699647 -0.392035 3.352851 -0.875707
    12 0.928312 0.000000 0.000000 0.000000 0.000000 0.593404
    13 0.928313 0.000000 -0.000001 0.000000 0.000000 1.204231
    14 2.979373 -0.388274 -0.044205 -0.030851 -0.030823 0.768363
    15 1.435262 -0.000001 -0.000001 0.000000 0.000000 1.204014
    16 1.482593 -0.000001 0.000001 0.000000 0.000000 1.153221
    17 -2.701925 1.661394 -4.156022 -1.435722 0.730807 -4.945569
    18 4.972047 0.000000 0.000000 0.165319 -0.541124 -0.611628
    19 11.585358 0.000000 0.000001 0.000000 0.000000 -0.527307
    20 10.127058 0.000000 0.000001 2.411240 0.039906 0.440792
    21 1.537458 0.109715 1.664489 -3.079588 0.031470 0.928526
    22 0.928313 0.000000 0.000002 0.000000 0.000000 0.061034
    23 0.928311 0.000000 0.000001 0.000000 0.000000 0.671897
    24 2.686395 -0.427337 0.044204 -0.001208 0.043611 -0.052337
    25 1.435260 0.000000 0.000001 0.000000 0.000000 1.186618
    26 1.482593 0.000000 -0.000001 0.000000 0.000000 1.684243
    27 2.046984 0.000001 0.000000 0.147861 -0.029002 0.044092
    28 -0.000005 0.000007 3.713254 -0.099194 -3.046889 5.705343
    29 18.045723 0.000000 0.000000 0.000000 0.000000 -0.428939
    30 17.597597 0.000000 0.000000 -0.057075 -0.017435 -0.150296
    31 0.000005 -0.000003 -3.713254 0.808379 2.832960 6.181418
    32 18.045721 0.000000 0.000000 0.000000 0.000000 -0.778629
    33 17.597597 0.000000 0.000000 0.178827 0.128803 0.486694
  time 8
    0 0.407228 2.183811 0.368674 0.000000 0.000000 -1.571017
    1 -0.746121 0.039064 0.000000 -1.570795 -1.570787 0.000000
    2 1.293670 0.684478 -0.000001 -0.062447 0.004445 -0.094676
    3 5.309685 -0.003834 0.000000 0.002791 0.014226 0.052172
    4 4.826790 -0.004591 0.000000 0.010453 -0.033809 0.183297
    5 5.792767 -0.005304 0.000000 -0.035939 -0.025216 0.116649
    6 6.662322 -0.001452 0.000000 -0.083065 0.051127 0.441835
    7 -3.362102 1.079310 4.277124 1.471820 -1.065485 -5.050513
    8 4.827512 0.000000 -0.000002 -0.521990 0.676470 -0.686212
    9 11.140032 0.000000 0.000000 0.000000 0.000000 -0.375788
    10 10.314563 -0.000001 0.000001 -2.156512 -0.007868 0.280634
    11 1.646836 0.445664 -1.699647 -0.392035 3.352851 -0.875707
    12 0.928312 0.000000 0.000000 0.000000 0.000000 0.593404
    13 0.928313 0.000000 -0.000001 0.000000 0.000000 1.204231
    14 2.979373 -0.388274 -0.044205 -0.030851 -0.030823 0.768363
    15 1.435262 -0.000001 -0.000001 0.000000 0.000000 1.204014
    16 1.482593 -0.000001 0.000001 0.000000 0.000000 1.153221
    17 -2.701925 1.661394 -4.156022 -1.441263 0.731596 -4.953423
    18 4.972047 0.000000 0.000000 0.166257 -0.553819 -0.610763
    19 11.585358 0.000000 0.000001 0.000000 0.000000 -0.527552
    20 10.127058 0.000000 0.000001 2.410749 0.040757 0.439141
    21 1.537458 0.109715 1.664489 -3.079588 0.031470 0.928526
    22 0.928313 0.000000 0.000002 0.000000 0.000000 0.061034
    23 0.928311 0.000000 0.000001 0.000000 0.000000 0.671897
    24 2.686395 -0.427337 0.044204 -0.001208 0.043611 -0.052337
    25 1.435260 0.000000 0.000001 0.000000 0.000000 1.186618
    26 1.482593 0.000000 -0.000001 0.000000 0.000000 1.684243
    27 2.046984 0.000001 0.000000 0.148636 -0.031510 0.059300
    28 -0.000005 0.000007 3.713254 -0.099194 -3.046889 5.705343
    29 18.045723 0.000000 0.000000 0.000000 0.000000 -0.428939
    30 17.597597 0.000000 0.000000 -0.057126 -0.017411 -0.150296
    31 0.000005 -0.000003 -3.713254 0.808379 2.832864 6.181418
    32 18.045721 0.000000 0.000000 0.000000 0.000000 -0.778629
    33 17.597597 0.000000 0.000000 0.178794 0.128862 0.486647
  time 9
    0 0.407228 2.195530 0.368674 0.000000 0.000000 -1.571017
    1 -0.746121 0.039064 0.000000 -1.570795 -1.570787 0.000000
    2 1.293670 0.684478 -0.000001 -0.062447 0.004445 -0.094676
    3 5.309685 -0.003834 0.000000 0.002791 0.014298 0.052437
    4 4.826790 -0.004591 0.000000 0.010243 -0.033449 0.186009
    5 5.792767 -0.005304 0.000000 -0.035886 -0.024497 0.118829
    6 6.662322 -0.001452 0.000000 -0.083065 0.051127 0.441835
    7 -3.362102 1.079310 4.277124 1.472395 -1.065544 -5.050992
    8 4.827512 0.000000 -0.000002 -0.524541 0.673059 -0.688205
    9 11.140032 0.000000 0.000000 0.000000 0.000000 -0.374846
    10 10.314563 -0.000001 0.000001 -2.156512 -0.007868 0.280634
    11 1.646836 0.445664 -1.699647 -0.392035 3.352851 -0.875707
    12 0.928312 0.000000 0.000000 0.000000 0.000000 0.593404
    13 0.928313 0.000000 -0.000001 0.000000 0.000000 1.204231
    14 2.979373 -0.388274 -0.044205 -0.030851 -0.030823 0.768363
    15 1.435262 -0.000001 -0.000001 0.000000 0.000000 1.204014
    16 1.482593 -0.000001 0.000001 0.000000 0.000000 1.153221
    17 -2.701925 1.661394 -4.156022 -1.444511 0.732096 -4.958595
    18 4.972047 0.000000 0.000000 0.168040 -0.553096 -0.611828
    19 11.585358 0.000000 0.000001 0.000000 0.000000 -0.527634
    20 10.127058 0.000000 0.000001 2.410538 0.041325 0.438141
    21 1.537458 0.109715 1.664489 -3.079588 0.031470 0.928526
    22 0.928313 0.000000 0.000002 0.000000 0.000000 0.061034
    23 0.928311 0.000000 0.000001 0.000000 0.000000 0.671897
    24 2.686395 -0.427337 0.044204 -0.001208 0.043611 -0.052337
    25 1.435260 0.000000 0.000001 0.000000 0.000000 1.186618
    26 1.482593 0.000000 -0.000001 0.000000 0.000000 1.684243
    27 2.046984 0.000001 0.000000 0.149713 -0.033929 0.063558
    28 -0.000005 0.000007 3.713254 -0.099290 -3.047081 5.705535
    29 18.045723 0.000000 0.000000 0.000000 0.000000 -0.427829
    30 17.597597 0.000000 0.000000 -0.057202 -0.017287 -0.151167
    31 0.000005 -0.000003 -3.713254 0.808379 2.832672 6.180939
    32 18.045721 0.000000 0.000000 0.000000 0.000000 -0.778865
    33 17.597597 0.000000 0.000000 0.178760 0.128645 0.486417
  time 10
    0 0.415040 2.218969 0.368674 0.000000 0.000000 -1.571017
    1 -0.746121 0.039064 0.000000 -1.570795 -1.570787 0.000000
    2 1.293670 0.684478 -0.000001 -0.062447 0.004445 -0.094676
    3 5.309685 -0.003834 0.000000 0.002859 0.013914 0.051183
    4 4.826790 -0.004591 0.000000 0.009766 -0.032718 0.191389
    5 5.792767 -0.005304 0.000000 -0.035904 -0.022387 0.131577
    6 6.662322 -0.001452 0.000000 -0.083065 0.051127 0.441835
    7 -3.362102 1.079310 4.277124 1.472395 -1.065544 -5.051088
    8 4.827512 0.000000 -0.000002 -0.532274 0.658391 -0.693924
    9 11.140032 0.000000 0.000000 0.000000 0.000000 -0.374049
    10 10.314563 -0.000001 0.000001 -2.156512 -0.007868 0.280634
    11 1.646836 0.445664 -1.699647 -0.392035 3.352851 -0.875707
    12 0.928312 0.000000 0.000000 0.000000 0.000000 0.593404
    13 0.928313 0.000000 -0.000001 0.000000 0.000000 1.204231
    14 2.979373 -0.388274 -0.044205 -0.030851 -0.030823 0.768363
    15 1.435262 -0.000001 -0.000001 0.000000 0.000000 1.204014
    16 1.482593 -0.000001 0.000001 0.000000 0.000000 1.153221
    17 -2.701925 1.661394 -4.156022 -1.446708 0.732411 -4.961756
    18 4.972047 0.000000 0.000000 0.171229 -0.539035 -0.614956
    19 11.585358 0.000000 0.000001 0.000000 0.000000 -0.527715
    20 10.127058 0.000000 0.000001 2.410328 0.041703 0.437440
    21 1.537458 0.109715 1.664489 -3.079588 0.031470 0.928526
    22 0.928313 0.000000 0.000002 0.000000 0.000000 0.061034
    23 0.928311 0.000000 0.000001 0.000000 0.000000 0.671897
    24 2.686395 -0.427337 0.044204 -0.001208 0.043611 -0.052337
    25 1.435260 0.000000 0.000001 0.000000 0.000000 1.186618
    26 1.482593 0.000000 -0.000001 0.000000 0.000000 1.684243
    27 2.046984 0.000001 0.000000 0.151006 -0.036201 0.056137
    28 -0.000005 0.000007 3.713254 -0.099290 -3.047369 5.705918
    29 18.045723 0.000000 0.000000 0.000000 0.000000 -0.425608
    30 17.597597 0.000000 0.000000 -0.057278 -0.017115 -0.152909
    31 0.000005 -0.000003 -3.713254 0.808187 2.832289 6.180076
    32 18.045721 0.000000 0.000000 0.000000 0.000000 -0.779416
    33 17.597597 0.000000 0.000000 0.178659 0.128172 0.486139
  time 11
    0 0.418947 2.258032 0.368674 0.000000 0.000000 -1.571017
    1 -0.746121 0.039064 0.000000 -1.570795 -1.570787 0.000000
    2 1.293670 0.684478 -0.000001 -0.062447 0.004445 -0.094676
    3 5.309685 -0.003834 0.000000 0.003046 0.013027 0.048180
    4 4.826790 -0.004591 0.000000 0.008965 -0.031328 0.201642
    5 5.792767 -0.005304 0.000000 -0.035904 -0.019331 0.151032
    6 6.662322 -0.001452 0.000000 -0.083065 0.051127 0.441835
    7 -3.362102 1.079310 4.277124 1.472204 -1.065544 -5.050800
    8 4.827512 0.000000 -0.000002 -0.544072 0.633918 -0.702329
    9 11.140032 0.000000 0.000000 0.000000 0.000000 -0.373325
    10 10.314563 -0.000001 0.000001 -2.156512 -0.007868 0.280634
    11 1.646836 0.445664 -1.699647 -0.392035 3.352851 -0.875707
    12 0.928312 0.000000 0.000000 0.000000 0.000000 0.593404
    13 0.928313 0.000000 -0.000001 0.000000 0.000000 1.204231
    14 2.979373 -0.388274 -0.044205 -0.030851 -0.030823 0.768363
    15 1.435262 -0.000001 -0.000001 0.000000 0.000000 1.204014
    16 1.482593 -0.000001 0.000001 0.000000 0.000000 1.153221
    17 -2.701925 1.661394 -4.156022 -1.447568 0.732516 -4.963097
    18 4.972047 0.000000 0.000000 0.175168 -0.513645 -0.619481
    19 11.585358 0.000000 0.000001 0.000000 0.000000 -0.527797
    20 10.127058 0.000000 0.000001 2.410258 0.041797 0.437190
    21 1.537458 0.109715 1.664489 -3.079588 0.031470 0.928526
    22 0.928313 0.000000 0.000002 0.000000 0.000000 0.061034
    23 0.928311 0.000000 0.000001 0.000000 0.000000 0.671897
    24 2.686395 -0.427337 0.044204 -0.001208 0.043611 -0.052337
    25 1.435260 0.000000 0.000001 0.000000 0.000000 1.186618
    26 1.482593 0.000000 -0.000001 0.000000 0.000000 1.684243
    27 2.046984 0.000001 0.000000 0.152384 -0.038384 0.038679
    28 -0.000005 0.000007 3.713254 -0.099482 -3.047656 5.706685
    29 18.045723 0.000000 0.000000 0.000000 0.000000 -0.422204
    30 17.597597 0.000000 0.000000 -0.057379 -0.016845 -0.155522
    31 0.000005 -0.000003 -3.713254 0.808187 2.831905 6.178638
    32 18.045721 0.000000 0.000000 0.000000 0.000000 -0.780282
    33 17.597597 0.000000 0.000000 0.178559 0.127442 0.485770
  time 12
    0 0.415040 2.273658 0.368674 0.000000 0.000000 -1.571017
    1 -0.746121 0.039064 0.000000 -1.570795 -1.570787 0.000000
    2 1.293670 0.684478 -0.000001 -0.062447 0.004445 -0.094676
    3 5.309685 -0.003834 0.000000 0.003659 0.010331 0.038924
    4 4.826790 -0.004591 0.000000 0.007725 -0.029230 0.216701
    5 5.792767 -0.005304 0.000000 -0.035904 -0.015808 0.174120
    6 6.662322 -0.001452 0.000000 -0.083065 0.051127 0.441835
    7 -3.362102 1.079310 4.277124 1.471916 -1.065485 -5.050609
    8 4.827512 0.000000 -0.000002 -0.555471 0.606716 -0.709694
    9 11.140032 0.000000 0.000000 0.000000 0.000000 -0.372890
    10 10.314563 -0.000001 0.000001 -2.156512 -0.007868 0.280634
    11 1.646836 0.445664 -1.699647 -0.392035 3.352851 -0.875707
    12 0.928312 0.000000 0.000000 0.000000 0.000000 0.593404
    13 0.928313 0.000000 -0.000001 0.000000 0.000000 1.204231
    14 2.979373 -0.388274 -0.044205 -0.030851 -0.030823 0.768363
    15 1.435262 -0.000001 -0.000001 0.000000 0.000000 1.204014
    16 1.482593 -0.000001 0.000001 0.000000 0.000000 1.153221
    17 -2.701925 1.661394 -4.156022 -1.446995 0.732437 -4.962330
    18 4.972047 0.000000 0.000000 0.179577 -0.484317 -0.625072
    19 11.585358 0.000000 0.000001 0.000000 0.000000 -0.527715
    20 10.127058 0.000000 0.000001 2.410328 0.041703 0.437340
    21 1.537458 0.109715 1.664489 -3.079588 0.031470 0.928526
    22 0.928313 0.000000 0.000002 0.000000 0.000000 0.061034
    23 0.928311 0.000000 0.000001 0.000000 0.000000 0.671897
    24 2.686395 -0.427337 0.044204 -0.001208 0.043611 -0.052337
    25 1.435260 0.000000 0.000001 0.000000 0.000000 1.186618
    26 1.482593 0.000000 -0.000001 0.000000 0.000000 1.684243
    27 2.046984 0.000001 0.000000 0.154840 -0.040007 0.019092
    28 -0.000005 0.000007 3.713254 -0.099482 -3.047656 5.707165
    29 18.045723 0.000000 0.000000 0.000000 0.000000 -0.420131
    30 17.597597 0.000000 0.000000 -0.057379 -0.016869 -0.157127
    31 0.000005 -0.000003 -3.713254 0.808187 2.831810 6.177871
    32 18.045721 0.000000 0.000000 0.000000 0.000000 -0.780597
    33 17.597597 0.000000 0.000000 0.178458 0.126929 0.485631
  time 13
    0 0.395509 2.273658 0.368674 0.000000 0.000000 -1.571017
    1 -0.746121 0.039064 0.000000 -1.570795 -1.570787 0.000000
    2 1.293670 0.684478 -0.000001 -0.062447 0.004445 -0.094676
    3 5.309685 -0.003834 0.000000 0.004612 0.006328 0.025235
    4 4.826790 -0.004591 0.000000 0.006428 -0.026929 0.233413
    5 5.792767 -0.005304 0.000000 -0.035778 -0.012200 0.197520
    6 6.662322 -0.001452 0.000000 -0.085163 0.047581 0.399825
    7 -3.405072 0.938680 4.277124 1.471820 -1.065485 -5.008257
    8 4.827512 0.000000 -0.000002 -0.564719 0.581304 -0.714893
    9 11.140032 0.000000 0.000000 0.000000 0.000000 -0.372672
    10 10.314563 -0.000001 0.000001 -2.156512 -0.007868 0.280634
    11 1.646836 0.445664 -1.699647 -0.392035 3.352851 -0.875707
    12 0.928312 0.000000 0.000000 0.000000 0.000000 0.593404
    13 0.928313 0.000000 -0.000001 0.000000 0.000000 1.204231
    14 2.979373 -0.388274 -0.044205 -0.030851 -0.030823 0.768363
    15 1.435262 -0.000001 -0.000001 0.000000 0.000000 1.204014
    16 1.482593 -0.000001 0.000001 0.000000 0.000000 1.153221
    17 -2.768333 1.544203 -4.156022 -1.444988 0.732122 -4.916931
    18 4.972047 0.000000 0.000000 0.183329 -0.455632 -0.630862
    19 11.585358 0.000000 0.000001 0.000000 0.000000 -0.527634
    20 10.127058 0.000000 0.000001 2.410468 0.041514 0.437991
    21 1.537458 0.109715 1.664489 -3.079588 0.031470 0.928526
    22 0.928313 0.000000 0.000002 0.000000 0.000000 0.061034
    23 0.928311 0.000000 0.000001 0.000000 0.000000 0.671897
    24 2.686395 -0.427337 0.044204 -0.001208 0.043611 -0.052337
    25 1.435260 0.000000 0.000001 0.000000 0.000000 1.186618
    26 1.482593 0.000000 -0.000001 0.000000 0.000000 1.684243
    27 2.046984 0.000001 0.000000 0.156520 -0.039063 0.034603
    28 -0.000005 0.000007 3.713254 -0.099386 -3.047369 5.707260
    29 18.045723 0.000000 0.000000 0.000000 0.000000 -0.419835
    30 17.597597 0.000000 0.000000 -0.057278 -0.017214 -0.157448
    31 0.000005 -0.000003 -3.713254 0.808187 2.832097 6.177871
    32 18.045721 0.000000 0.000000 0.000000 0.000000 -0.780833
    33 17.597597 0.000000 0.000000 0.178391 0.126653 0.485955
  time 14
    0 0.395509 2.293190 0.368674 0.000000 0.000000 -1.571017
    1 -0.746121 0.039064 0.000000 -1.570795 -1.570787 0.000000
    2 1.293670 0.684478 -0.000001 -0.062447 0.004445 -0.094676
    3 5.309685 -0.003834 0.000000 0.005275 0.003679 0.016297
    4 4.826790 -0.004591 0.000000 0.005341 -0.024820 0.248538
    5 5.792767 -0.005304 0.000000 -0.035616 -0.009084 0.217992
    6 6.662322 -0.001452 0.000000 -0.087056 0.043953 0.357843
    7 -3.444135 0.794145 4.277124 1.443256 -1.063711 -4.933519
    8 4.827512 0.000000 -0.000002 -0.570538 0.531163 -0.723992
    9 11.140032 0.000000 0.000000 0.000000 0.000000 -0.364413
    10 10.314563 -0.000001 0.000001 -2.156512 -0.007868 0.280634
    11 1.646836 0.445664 -1.699647 -0.392035 3.352851 -0.875707
    12 0.928312 0.000000 0.000000 0.000000 0.000000 0.593404
    13 0.928313 0.000000 -0.000001 0.000000 0.000000 1.204231
    14 2.979373 -0.388274 -0.044205 -0.030851 -0.030823 0.768363
    15 1.435262 -0.000001 -0.000001 0.000000 0.000000 1.204014
    16 1.482593 -0.000001 0.000001 0.000000 0.000000 1.153221
    17 -2.830835 1.427012 -4.156022 -1.441263 0.731596 -4.869328
    18 4.972047 0.000000 0.000000 0.185299 -0.424296 -0.635521
    19 11.585358 0.000000 0.000001 0.000000 0.000000 -0.527552
    20 10.127058 0.000000 0.000001 2.410749 0.040757 0.439141
    21 1.537458 0.109715 1.664489 -3.079588 0.031470 0.928526
    22 0.928313 0.000000 0.000002 0.000000 0.000000 0.061034
    23 0.928311 0.000000 0.000001 0.000000 0.000000 0.671897
    24 2.686395 -0.427337 0.044204 -0.001208 0.043611 -0.052337
    25 1.435260 0.000000 0.000001 0.000000 0.000000 1.186618
    26 1.482593 0.000000 -0.000001 0.000000 0.000000 1.684243
    27 2.046984 0.000001 0.000000 0.157770 -0.038709 0.049810
    28 -0.000005 0.000007 3.713254 -0.099386 -3.047369 5.707740
    29 18.045723 0.000000 0.000000 0.000000 0.000000 -0.417911
    30 17.597597 0.000000 0.000000 -0.057278 -0.017287 -0.158915
    31 0.000005 -0.000003 -3.713254 0.808187 2.832097 6.177104
    32 18.045721 0.000000 0.000000 0.000000 0.000000 -0.781148
    33 17.597597 0.000000 0.000000 0.178324 0.126160 0.485862
  time 15
    0 0.395509 2.332253 0.368674 0.000000 0.000000 -1.571017
    1 -0.746121 0.039064 0.000000 -1.570795 -1.570787 0.000000
    2 1.293670 0.684478 -0.000001 -0.062447 0.004445 -0.094676
    3 5.309685 -0.003834 0.000000 0.005462 0.002960 0.013842
    4 4.826790 -0.004591 0.000000 0.004597 -0.023418 0.258769
    5 5.792767 -0.005304 0.000000 -0.035454 -0.006867 0.232443
    6 6.662322 -0.001452 0.000000 -0.088854 0.040242 0.315833
    7 -3.475386 0.645703 4.277124 1.417184 -1.061641 -4.861655
    8 4.827512 0.000000 -0.000002 -0.575082 0.487503 -0.732743
    9 11.140032 0.000000 0.000000 0.000000 0.000000 -0.356660
    10 10.314563 -0.000001 0.000001 -2.156512 -0.007868 0.280634
    11 1.646836 0.445664 -1.699647 -0.392035 3.352851 -0.875707
    12 0.928312 0.000000 0.000000 0.000000 0.000000 0.593404
    13 0.928313 0.000000 -0.000001 0.000000 0.000000 1.204231
    14 2.979373 -0.388274 -0.044205 -0.030851 -0.030823 0.768363
    15 1.435262 -0.000001 -0.000001 0.000000 0.000000 1.204014
    16 1.482593 -0.000001 0.000001 0.000000 0.000000 1.153221
    17 -2.877712 1.317633 -4.156022 -1.432665 0.730360 -4.814637
    18 4.972047 0.000000 0.000000 0.183329 -0.390710 -0.638184
    19 11.585358 0.000000 0.000001 0.000000 0.000000 -0.527307
    20 10.127058 0.000000 0.000001 2.411450 0.039528 0.441742
    21 1.537458 0.109715 1.664489 -3.079588 0.031470 0.928526
    22 0.928313 0.000000 0.000002 0.000000 0.000000 0.061034
    23 0.928311 0.000000 0.000001 0.000000 0.000000 0.671897
    24 2.686395 -0.427337 0.044204 -0.001208 0.043611 -0.052337
    25 1.435260 0.000000 0.000001 0.000000 0.000000 1.186618
    26 1.482593 0.000000 -0.000001 0.000000 0.000000 1.684243
    27 2.046984 0.000001 0.000000 0.157942 -0.038886 0.069580
    28 -0.000005 0.000007 3.713254 -0.099482 -3.047656 5.708411
    29 18.045723 0.000000 0.000000 0.000000 0.000000 -0.414728
    30 17.597597 0.000000 0.000000 -0.057379 -0.017041 -0.161391
    31 0.000005 -0.000003 -3.713254 0.808187 2.831714 6.175858
    32 18.045721 0.000000 0.000000 0.000000 0.000000 -0.782014
    33 17.597597 0.000000 0.000000 0.178223 0.125509 0.485447
  time 16
    0 0.407228 2.347879 0.368674 0.000000 0.000000 -1.571017
    1 -0.746121 0.039064 0.000000 -1.570795 -1.570787 0.000000
    2 1.293670 0.684478 -0.000001 -0.062447 0.004445 -0.094676
    3 5.309685 -0.003834 0.000000 0.005514 0.002768 0.013153
    4 4.826790 -0.004591 0.000000 0.004273 -0.022807 0.263046
    5 5.792767 -0.005304 0.000000 -0.035364 -0.005848 0.239087
    6 6.662322 -0.001452 0.000000 -0.090460 0.036490 0.273880
    7 -3.498824 0.497261 4.277124 1.396767 -1.059749 -4.796211
    8 4.827512 0.000000 -0.000002 -0.575640 0.459960 -0.738029
    9 11.140032 0.000000 0.000000 0.000000 0.000000 -0.350719
    10 10.314563 -0.000001 0.000001 -2.156512 -0.007868 0.280634
    11 1.646836 0.445664 -1.699647 -0.392035 3.352851 -0.875707
    12 0.928312 0.000000 0.000000 0.000000 0.000000 0.593404
    13 0.928313 0.000000 -0.000001 0.000000 0.000000 1.204231
    14 2.979373 -0.388274 -0.044205 -0.030851 -0.030823 0.768363
    15 1.435262 -0.000001 -0.000001 0.000000 0.000000 1.204014
    16 1.482593 -0.000001 0.000001 0.000000 0.000000 1.153221
    17 -2.932401 1.192629 -4.156022 -1.419577 0.728231 -4.752763
    18 4.972047 0.000000 0.000000 0.177795 -0.362829 -0.639049
    19 11.585358 0.000000 0.000001 0.000000 0.000000 -0.526735
    20 10.127058 0.000000 0.000001 2.412502 0.037353 0.445844
    21 1.537458 0.109715 1.664489 -3.079588 0.031470 0.928526
    22 0.928313 0.000000 0.000002 0.000000 0.000000 0.061034
    23 0.928311 0.000000 0.000001 0.000000 0.000000 0.671897
    24 2.686395 -0.427337 0.044204 -0.001208 0.043611 -0.052337
    25 1.435260 0.000000 0.000001 0.000000 0.000000 1.186618
    26 1.482593 0.000000 -0.000001 0.000000 0.000000 1.684243
    27 2.046984 0.000001 0.000000 0.157942 -0.039004 0.101271
    28 -0.000005 0.000007 3.713254 -0.099674 -3.047848 5.708698
    29 18.045723 0.000000 0.000000 0.000000 0.000000 -0.413174
    30 17.597597 0.000000 0.000000 -0.057455 -0.016869 -0.162537
    31 0.000005 -0.000003 -3.713254 0.808187 2.831426 6.175283
    32 18.045721 0.000000 0.000000 0.000000 0.000000 -0.782250
    33 17.597597 0.000000 0.000000 0.178123 0.125214 0.485216
  time 17
    0 0.407228 2.347879 0.368674 0.000000 0.000000 -1.571017
    1 -0.746121 0.039064 0.000000 -1.570795 -1.570787 0.000000
    2 1.293670 0.684478 -0.000001 -0.062447 0.004445 -0.094676
    3 5.309685 -0.003834 0.000000 0.005462 0.002912 0.013630
    4 4.826790 -0.004591 0.000000 0.004235 -0.022735 0.263597
    5 5.792767 -0.005304 0.000000 -0.035364 -0.005741 0.239876
    6 6.662322 -0.001452 0.000000 -0.091910 0.032655 0.231870
    7 -3.518356 0.356631 4.277124 1.383923 -1.058418 -4.739103
    8 4.827512 0.000000 -0.000002 -0.574205 0.446742 -0.740455
    9 11.140032 0.000000 0.000000 0.000000 0.000000 -0.346952
    10 10.314563 -0.000001 0.000001 -2.156512 -0.007868 0.280634
    11 1.646836 0.445664 -1.699647 -0.392035 3.352851 -0.875707
    12 0.928312 0.000000 0.000000 0.000000 0.000000 0.593404
    13 0.928313 0.000000 -0.000001 0.000000 0.000000 1.204231
    14 2.979373 -0.388274 -0.044205 -0.030851 -0.030823 0.768363
    15 1.435262 -0.000001 -0.000001 0.000000 0.000000 1.204014
    16 1.482593 -0.000001 0.000001 0.000000 0.000000 1.153221
    17 -2.975371 1.071532 -4.156022 -1.405820 0.725707 -4.689740
    18 4.972047 0.000000 0.000000 0.170947 -0.342259 -0.638716
    19 11.585358 0.000000 0.000001 0.000000 0.000000 -0.526245
    20 10.127058 0.000000 0.000001 2.413624 0.035178 0.450146
    21 1.537458 0.109715 1.664489 -3.079588 0.031470 0.928526
    22 0.928313 0.000000 0.000002 0.000000 0.000000 0.061034
    23 0.928311 0.000000 0.000001 0.000000 0.000000 0.671897
    24 2.686395 -0.427337 0.044204 -0.001208 0.043611 -0.052337
    25 1.435260 0.000000 0.000001 0.000000 0.000000 1.186618
    26 1.482593 0.000000 -0.000001 0.000000 0.000000 1.684243
    27 2.046984 0.000001 0.000000 0.157942 -0.039063 0.141601
    28 -0.000005 0.000007 3.713254 -0.099674 -3.047944 5.708794
    29 18.045723 0.000000 0.000000 0.000000 0.000000 -0.412730
    30 17.597597 0.000000 0.000000 -0.057506 -0.016845 -0.162904
    31 0.000005 -0.000003 -3.713254 0.808187 2.831330 6.175091
    32 18.045721 0.000000 0.000000 0.000000 0.000000 -0.782486
    33 17.597597 0.000000 0.000000 0.178123 0.125095 0.485169
  time 18
    0 0.407228 2.347879 0.368674 0.000000 0.000000 -1.571017
    1 -0.746121 0.039064 0.000000 -1.570795 -1.570787 0.000000
    2 1.293670 0.684478 -0.000001 -0.062447 0.004445 -0.094676
    3 5.309685 -0.003834 0.000000 0.005394 0.003248 0.014725
    4 4.826790 -0.004591 0.000000 0.004349 -0.022939 0.262010
    5 5.792767 -0.005304 0.000000 -0.035400 -0.006100 0.237426
    6 6.662322 -0.001452 0.000000 -0.091910 0.032655 0.231870
    7 -3.518356 0.356631 4.277124 1.379418 -1.057945 -4.734025
    8 4.827512 0.000000 -0.000002 -0.572451 0.445804 -0.740455
    9 11.140032 0.000000 0.000000 0.000000 0.000000 -0.345647
    10 10.314563 -0.000001 0.000001 -2.156512 -0.007868 0.280634
    11 1.646836 0.445664 -1.699647 -0.392035 3.352851 -0.875707
    12 0.928312 0.000000 0.000000 0.000000 0.000000 0.593404
    13 0.928313 0.000000 -0.000001 0.000000 0.000000 1.204231
    14 2.979373 -0.388274 -0.044205 -0.030851 -0.030823 0.768363
    15 1.435262 -0.000001 -0.000001 0.000000 0.000000 1.204014
    16 1.482593 -0.000001 0.000001 0.000000 0.000000 1.153221
    17 -2.975371 1.071532 -4.156022 -1.395312 0.723683 -4.673936
    18 4.972047 0.000000 0.000000 0.165226 -0.331091 -0.637718
    19 11.585358 0.000000 0.000001 0.000000 0.000000 -0.525837
    20 10.127058 0.000000 0.000001 2.414465 0.033476 0.453447
    21 1.537458 0.109715 1.664489 -3.079588 0.031470 0.928526
    22 0.928313 0.000000 0.000002 0.000000 0.000000 0.061034
    23 0.928311 0.000000 0.000001 0.000000 0.000000 0.671897
    24 2.686395 -0.427337 0.044204 -0.001208 0.043611 -0.052337
    25 1.435260 0.000000 0.000001 0.000000 0.000000 1.186618
    26 1.482593 0.000000 -0.000001 0.000000 0.000000 1.684243
    27 2.046984 0.000001 0.000000 0.157813 -0.039122 0.144521
    28 -0.000005 0.000007 3.713254 -0.099674 -3.047944 5.708794
    29 18.045723 0.000000 0.000000 0.000000 0.000000 -0.412878
    30 17.597597 0.000000 0.000000 -0.057506 -0.016845 -0.162858
    31 0.000005 -0.000003 -3.713254 0.808187 2.831330 6.175187
    32 18.045721 0.000000 0.000000 0.000000 0.000000 -0.782486
    33 17.597597 0.000000 0.000000 0.178055 0.125154 0.485169
  time 19
    0 0.407228 2.347879 0.368674 0.000000 0.000000 -1.571017
    1 -0.746121 0.039064 0.000000 -1.570795 -1.570787 0.000000
    2 1.293670 0.684478 -0.000001 -0.062447 0.004445 -0.094676
    3 5.309685 -0.003834 0.000000 0.005309 0.003535 0.015785
    4 4.826790 -0.004591 0.000000 0.004521 -0.023238 0.259849
    5 5.792767 -0.005304 0.000000 -0.035436 -0.006615 0.234104
    6 6.662322 -0.001452 0.000000 -0.091910 0.032655 0.231870
    7 -3.518356 0.356631 4.277124 1.379322 -1.057945 -4.733929
    8 4.827512 0.000000 -0.000002 -0.571415 0.457913 -0.732223
    9 11.140032 0.000000 0.000000 0.000000 0.000000 -0.369195
    10 10.314563 -0.000001 0.000001 -2.156512 -0.007868 0.280634
    11 1.646836 0.445664 -1.699647 -0.392035 3.352851 -0.875707
    12 0.928312 0.000000 0.000000 0.000000 0.000000 0.593404
    13 0.928313 0.000000 -0.000001 0.000000 0.000000 1.204231
    14 2.979373 -0.388274 -0.044205 -0.030851 -0.030823 0.768363
    15 1.435262 -0.000001 -0.000001 0.000000 0.000000 1.204014
    16 1.482593 -0.000001 0.000001 0.000000 0.000000 1.153221
    17 -2.975371 1.071532 -4.156022 -1.393306 0.723315 -4.671159
    18 4.972047 0.000000 0.000000 0.163819 -0.332778 -0.636852
    19 11.585358 0.000000 0.000001 0.000000 0.000000 -0.525837
    20 10.127058 0.000000 0.000001 2.414605 0.033287 0.454048
    21 1.537458 0.109715 1.664489 -3.079588 0.031470 0.928526
    22 0.928313 0.000000 0.000002 0.000000 0.000000 0.061034
    23 0.928311 0.000000 0.000001 0.000000 0.000000 0.671897
    24 2.686395 -0.427337 0.044204 -0.001208 0.043611 -0.052337
    25 1.435260 0.000000 0.000001 0.000000 0.000000 1.186618
    26 1.482593 0.000000 -0.000001 0.000000 0.000000 1.684243
    27 2.046984 0.000001 0.000000 0.157597 -0.039122 0.149083
    28 -0.000005 0.000007 3.713254 -0.099482 -3.047944 5.708698
    29 18.045723 0.000000 0.000000 0.000000 0.000000 -0.413322
    30 17.597597 0.000000 0.000000 -0.057506 -0.016845 -0.162491
    31 0.000005 -0.000003 -3.713254 0.808187 2.831330 6.175283
    32 18.045721 0.000000 0.000000 0.000000 0.000000 -0.782250
    33 17.597597 0.000000 0.000000 0.178022 0.125253 0.485169
  time 20
    0 0.407228 2.343973 0.368674 0.000000 0.000000 -1.571017
    1 -0.746121 0.039064 0.000000 -1.570795 -1.570787 0.000000
    2 1.293670 0.684478 -0.000001 -0.062447 0.004445 -0.094676
    3 5.309685 -0.003834 0.000000 0.005275 0.003679 0.016297
    4 4.826790 -0.004591 0.000000 0.004597 -0.023418 0.258769
    5 5.792767 -0.005304 0.000000 -0.035454 -0.006867 0.232443
    6 6.662322 -0.001452 0.000000 -0.091910 0.032655 0.231870
    7 -3.518356 0.356631 4.277124 1.379418 -1.057945 -4.734025
    8 4.827512 0.000000 -0.000002 -0.570857 0.463626 -0.728497
    9 11.140032 0.000000 0.000000 0.000000 0.000000 -0.379193
    10 10.314563 -0.000001 0.000001 -2.156512 -0.007868 0.280634
    11 1.646836 0.445664 -1.699647 -0.392035 3.352851 -0.875707
    12 0.928312 0.000000 0.000000 0.000000 0.000000 0.593404
    13 0.928313 0.000000 -0.000001 0.000000 0.000000 1.204231
    14 2.979373 -0.388274 -0.044205 -0.030851 -0.030823 0.768363
    15 1.435262 -0.000001 -0.000001 0.000000 0.000000 1.204014
    16 1.482593 -0.000001 0.000001 0.000000 0.000000 1.153221
    17 -2.975371 1.071532 -4.156022 -1.395312 0.723683 -4.673936
    18 4.972047 0.000000 0.000000 0.164569 -0.337519 -0.636520
    19 11.585358 0.000000 0.000001 0.000000 0.000000 -0.525837
    20 10.127058 0.000000 0.000001 2.414465 0.033476 0.453447
    21 1.537458 0.109715 1.664489 -3.079588 0.031470 0.928526
    22 0.928313 0.000000 0.000002 0.000000 0.000000 0.061034
    23 0.928311 0.000000 0.000001 0.000000 0.000000 0.671897
    24 2.686395 -0.427337 0.044204 -0.001208 0.043611 -0.052337
    25 1.435260 0.000000 0.000001 0.000000 0.000000 1.186618
    26 1.482593 0.000000 -0.000001 0.000000 0.000000 1.684243
    27 2.046984 0.000001 0.000000 0.157554 -0.039122 0.151273
    28 -0.000005 0.000007 3.713254 -0.099865 -3.047848 5.708602
    29 18.045723 0.000000 0.000000 0.000000 0.000000 -0.413544
    30 17.597597 0.000000 0.000000 -0.057202 -0.016721 -0.162308
    31 0.000005 -0.000003 -3.713254 0.807516 2.831522 6.175187
    32 18.045721 0.000000 0.000000 0.000000 0.000000 -0.782250
    33 17.597597 0.000000 0.000000 0.178760 0.125233 0.485354
end
