version 1
nodes
  0 "Bip01" -1
  1 "Bip01 Pelvis" 0
  2 "Bip01 Spine" 1
  3 "Bip01 Spine1" 2
  4 "Bip01 Spine2" 3
  5 "Bip01 Spine3" 4
  6 "Bip01 Neck" 5
  7 "Bip01 L Arm" 6
  8 "Bip01 L Arm1" 7
  9 "Bip01 L Arm2" 8
  10 "Bip01 L Hand" 9
  11 "Bip01 L Finger0" 10
  12 "Bip01 L Finger01" 11
  13 "Bip01 L Finger02" 12
  14 "Bip01 L Finger1" 10
  15 "Bip01 L Finger11" 14
  16 "Bip01 L Finger12" 15
  17 "Bip01 R Arm" 6
  18 "Bip01 R Arm1" 17
  19 "Bip01 R Arm2" 18
  20 "Bip01 R Hand" 19
  21 "Bip01 R Finger0" 20
  22 "Bip01 R Finger01" 21
  23 "Bip01 R Finger02" 22
  24 "Bip01 R Finger1" 20
  25 "Bip01 R Finger11" 24
  26 "Bip01 R Finger12" 25
  27 "Bip01 Head" 6
  28 "Bip01 L Leg" 1
  29 "Bip01 L Leg1" 28
  30 "Bip01 L Foot" 29
  31 "Bip01 R Leg" 1
  32 "Bip01 R Leg1" 31
  33 "Bip01 R Foot" 32
end
skeleton
  time 0
    0 0.450198 3.097902 0.368674 0.000000 0.000000 -1.571017
    1 -0.000004 0.000000 0.000000 -1.570795 -1.570787 0.000000
    2 1.293670 0.684478 -0.000001 -0.006018 0.027024 0.052193
    3 5.309685 -0.003834 0.000000 -0.013154 -0.052744 0.057577
    4 4.826790 -0.004591 0.000000 -0.046923 -0.011937 0.270697
    5 5.792767 -0.005304 0.000000 -0.083427 0.050203 0.398213
    6 6.662322 -0.001452 0.000000 -0.016647 0.002267 0.459408
    7 -3.131626 1.411351 4.351345 1.267557 -0.989463 -4.810871
    8 4.827512 0.000000 -0.000002 -1.037600 0.641848 -1.347615
    9 11.140032 0.000000 0.000000 0.000000 0.000000 -0.648575
    10 10.314563 -0.000001 0.000001 -2.712280 0.365415 0.639233
    11 1.646836 0.445664 -1.699647 -0.161704 0.581044 -0.283978
    12 0.928312 0.000000 0.000000 0.000000 0.000000 0.000000
    13 0.928313 0.000000 -0.000001 0.000000 0.000000 0.000000
    14 2.979373 -0.388274 -0.044205 -0.028262 -0.033220 0.687154
    15 1.435262 -0.000001 -0.000001 0.000000 0.000000 1.101624
    16 1.482593 -0.000001 0.000001 0.000000 0.000000 0.587188
    17 -2.869899 1.430918 -4.128677 1.035400 1.188892 -2.597900
    18 4.972047 0.000000 0.000000 -1.056219 -0.804590 -0.018220
    19 11.585358 0.000000 0.000001 0.000000 0.000000 -1.969283
    20 10.127058 0.000000 0.000001 1.827177 0.701099 0.099695
    21 1.537458 0.109715 1.664489 -0.499886 0.546206 0.269294
    22 0.928313 0.000000 0.000002 0.000000 0.000000 -0.715299
    23 0.928311 0.000000 0.000001 0.000000 0.000000 -0.261715
    24 2.686395 -0.427337 0.044204 -0.189186 -0.032755 -0.338529
    25 1.435260 0.000000 0.000001 0.000000 0.000000 0.470891
    26 1.482593 0.000000 -0.000001 0.000000 0.000000 0.907015
    27 2.046984 0.000001 0.000000 0.161561 -0.006255 -0.384507
    28 -0.000005 0.000007 3.713254 -0.099865 -3.047848 5.708602
    29 18.045723 0.000000 0.000000 0.000000 0.000000 -0.413544
    30 17.597597 0.000000 0.000000 -0.057202 -0.016721 -0.162308
    31 0.000005 -0.000003 -3.713254 0.807324 2.831618 6.175091
    32 18.045721 0.000000 0.000000 0.000000 0.000000 -0.782250
    33 17.597597 0.000000 0.000000 0.178995 0.125233 0.485354
  time 1
    0 0.450198 3.097902 0.368674 0.000000 0.000000 -1.571017
    1 -0.000004 0.000000 0.000000 -1.570795 -1.570787 0.000000
    2 1.293670 0.684478 -0.000001 -0.007500 0.016502 0.021155
    3 5.309685 -0.003834 0.000000 -0.012950 -0.033832 0.042775
    4 4.826790 -0.004591 0.000000 0.000000 -0.003943 0.230018
    5 5.792767 -0.005304 0.000000 -0.034968 0.033233 0.339579
    6 6.662322 -0.001452 0.000000 -0.016647 0.002267 0.459408
    7 -3.131626 1.411351 4.351345 1.256342 -0.990528 -4.798511
    8 4.827512 0.000000 -0.000002 -0.340156 0.717230 -1.022762
    9 11.140032 0.000000 0.000000 0.000000 0.000000 -0.831375
    10 10.314563 -0.000001 0.000001 -2.324645 0.380778 0.710303
    11 1.646836 0.445664 -1.699647 -0.161704 0.581044 -0.283978
    12 0.928312 0.000000 0.000000 0.000000 0.000000 0.000000
    13 0.928313 0.000000 -0.000001 0.000000 0.000000 0.000000
    14 2.979373 -0.388274 -0.044205 -0.033379 -0.028091 0.853872
    15 1.435262 -0.000001 -0.000001 0.000000 0.000000 0.968768
    16 1.482593 -0.000001 0.000001 0.000000 0.000000 0.561545
    17 -2.869899 1.427012 -4.128677 0.996519 1.210213 -2.634200
    18 4.972047 0.000000 0.000000 -1.013072 -0.894019 0.027037
    19 11.585358 0.000000 0.000001 0.000000 0.000000 -1.940940
    20 10.127058 0.000000 0.000001 2.035445 0.641712 0.098645
    21 1.537458 0.109715 1.664489 -0.499886 0.546206 0.269294
    22 0.928313 0.000000 0.000002 0.000000 0.000000 -0.715299
    23 0.928311 0.000000 0.000001 0.000000 0.000000 -0.261715
    24 2.686395 -0.427337 0.044204 -0.189186 -0.032755 -0.338529
    25 1.435260 0.000000 0.000001 0.000000 0.000000 0.470891
    26 1.482593 0.000000 -0.000001 0.000000 0.000000 0.907015
    27 2.046984 0.000001 0.000000 0.083710 0.015519 -0.293264
    28 -0.000005 0.000007 3.713254 -0.099865 -3.047848 5.708602
    29 18.045723 0.000000 0.000000 0.000000 0.000000 -0.413544
    30 17.597597 0.000000 0.000000 -0.057202 -0.016721 -0.162308
    31 0.000005 -0.000003 -3.713254 0.807324 2.831618 6.175091
    32 18.045721 0.000000 0.000000 0.000000 0.000000 -0.782250
    33 17.597597 0.000000 0.000000 0.178995 0.125233 0.485354
  time 2
    0 0.450198 3.097902 0.368674 0.000000 0.000000 -1.571017
    1 -0.000004 0.000000 0.000000 -1.570795 -1.570787 0.000000
    2 1.293670 0.684478 -0.000001 -0.009370 -0.003165 -0.036501
    3 5.309685 -0.003834 0.000000 -0.013324 0.001294 0.015308
    4 4.826790 -0.004591 0.000000 0.086159 0.015868 0.155649
    5 5.792767 -0.005304 0.000000 0.057219 0.009468 0.228830
    6 6.662322 -0.001452 0.000000 -0.016647 0.002267 0.459408
    7 -3.131626 1.411351 4.351345 1.245223 -0.991474 -4.785863
    8 4.827512 0.000000 -0.000002 0.366694 0.740425 -0.846775
    9 11.140032 0.000000 0.000000 0.000000 0.000000 -1.013957
    10 10.314563 -0.000001 0.000001 -1.936441 0.370005 0.782301
    11 1.646836 0.445664 -1.699647 -0.161704 0.581044 -0.283978
    12 0.928312 0.000000 0.000000 0.000000 0.000000 0.000000
    13 0.928313 0.000000 -0.000001 0.000000 0.000000 0.000000
    14 2.979373 -0.388274 -0.044205 -0.037586 -0.022159 1.020676
    15 1.435262 -0.000001 -0.000001 0.000000 0.000000 0.835954
    16 1.482593 -0.000001 0.000001 0.000000 0.000000 0.535901
    17 -2.869899 1.430918 -4.128677 0.901656 1.252042 -2.724042
    18 4.972047 0.000000 0.000000 -0.805308 -1.060342 0.009600
    19 11.585358 0.000000 0.000001 0.000000 0.000000 -1.882866
    20 10.127058 0.000000 0.000001 2.442585 0.526817 0.054375
    21 1.537458 0.109715 1.664489 -0.499886 0.546206 0.269294
    22 0.928313 0.000000 0.000002 0.000000 0.000000 -0.715299
    23 0.928311 0.000000 0.000001 0.000000 0.000000 -0.261715
    24 2.686395 -0.427337 0.044204 -0.189186 -0.032755 -0.338529
    25 1.435260 0.000000 0.000001 0.000000 0.000000 0.470891
    26 1.482593 0.000000 -0.000001 0.000000 0.000000 0.907015
    27 2.046984 0.000001 0.000000 -0.078239 0.082492 -0.094475
    28 -0.000005 0.000007 3.713254 -0.099865 -3.047848 5.708602
    29 18.045723 0.000000 0.000000 0.000000 0.000000 -0.413544
    30 17.597597 0.000000 0.000000 -0.057202 -0.016721 -0.162308
    31 0.000005 -0.000003 -3.713254 0.807324 2.831618 6.175091
    32 18.045721 0.000000 0.000000 0.000000 0.000000 -0.782250
    33 17.597597 0.000000 0.000000 0.178995 0.125233 0.485354
  time 3
    0 0.450198 3.097902 0.368674 0.000000 0.000000 -1.571017
    1 -0.000004 0.000000 0.000000 -1.570795 -1.570787 0.000000
    2 1.293670 0.684478 -0.000001 -0.009909 -0.013783 -0.067539
    3 5.309685 -0.003834 0.000000 -0.013937 0.020242 0.000506
    4 4.826790 -0.004591 0.000000 0.131861 0.029159 0.116337
    5 5.792767 -0.005304 0.000000 0.107782 0.000959 0.168431
    6 6.662322 -0.001452 0.000000 -0.016647 0.002267 0.459408
    7 -3.131626 1.411351 4.351345 1.261518 -0.998038 -4.806080
    8 4.827512 0.000000 -0.000002 0.843242 0.601599 -0.892093
    9 11.140032 0.000000 0.000000 0.000000 0.000000 -1.200814
    10 10.314563 -0.000001 0.000001 -1.604914 0.344807 0.835139
    11 1.646836 0.445664 -1.699647 -0.161704 0.581044 -0.283978
    12 0.928312 0.000000 0.000000 0.000000 0.000000 0.000000
    13 0.928313 0.000000 -0.000001 0.000000 0.000000 0.000000
    14 2.979373 -0.388274 -0.044205 -0.040522 -0.016142 1.173801
    15 1.435262 -0.000001 -0.000001 0.000000 0.000000 0.713881
    16 1.482593 -0.000001 0.000001 0.000000 0.000000 0.512341
    17 -2.869899 1.427012 -4.128677 0.844910 1.271654 -2.778062
    18 4.972047 0.000000 0.000000 -0.661890 -1.121649 -0.021348
    19 11.585358 0.000000 0.000001 0.000000 0.000000 -1.853788
    20 10.127058 0.000000 0.000001 2.639633 0.477549 0.015059
    21 1.537458 0.109715 1.664489 -0.499886 0.546206 0.269294
    22 0.928313 0.000000 0.000002 0.000000 0.000000 -0.715299
    23 0.928311 0.000000 0.000001 0.000000 0.000000 -0.261715
    24 2.686395 -0.427337 0.044204 -0.189186 -0.032755 -0.338529
    25 1.435260 0.000000 0.000001 0.000000 0.000000 0.470891
    26 1.482593 0.000000 -0.000001 0.000000 0.000000 0.907015
    27 2.046984 0.000001 0.000000 -0.179914 0.125508 -0.064365
    28 -0.000005 0.000007 3.713254 -0.099865 -3.047848 5.708602
    29 18.045723 0.000000 0.000000 0.000000 0.000000 -0.413544
    30 17.597597 0.000000 0.000000 -0.057202 -0.016721 -0.162308
    31 0.000005 -0.000003 -3.713254 0.807324 2.831618 6.175091
    32 18.045721 0.000000 0.000000 0.000000 0.000000 -0.782250
    33 17.597597 0.000000 0.000000 0.178995 0.125233 0.485354
  time 4
    0 0.450198 3.097902 0.368674 0.000000 0.000000 -1.571017
    1 -0.000004 0.000000 0.000000 -1.570795 -1.570787 0.000000
    2 1.293670 0.684478 -0.000001 -0.010128 -0.020854 -0.085887
    3 5.309685 -0.003834 0.000000 -0.014260 0.020230 0.001919
    4 4.826790 -0.004591 0.000000 0.107751 0.033593 0.091047
    5 5.792767 -0.005304 0.000000 0.088626 0.032982 0.147274
    6 6.662322 -0.001452 0.000000 -0.016647 0.002267 0.459408
    7 -3.131626 1.411351 4.351345 1.435875 -1.024296 -5.011611
    8 4.827512 0.000000 -0.000002 0.947990 0.568428 -1.049104
    9 11.140032 0.000000 0.000000 0.000000 0.000000 -1.409190
    10 10.314563 -0.000001 0.000001 -1.552313 0.363448 0.833223
    11 1.646836 0.445664 -1.699647 -0.161704 0.581044 -0.283978
    12 0.928312 0.000000 0.000000 0.000000 0.000000 0.000000
    13 0.928313 0.000000 -0.000001 0.000000 0.000000 0.000000
    14 2.979373 -0.388274 -0.044205 -0.041673 -0.012835 1.254620
    15 1.435262 -0.000001 -0.000001 0.000000 0.000000 0.649480
    16 1.482593 -0.000001 0.000001 0.000000 0.000000 0.499946
    17 -2.869899 1.427012 -4.128677 0.838987 1.273547 -2.783809
    18 4.972047 0.000000 0.000000 -0.767226 -1.091357 0.039483
    19 11.585358 0.000000 0.000001 0.000000 0.000000 -1.851011
    20 10.127058 0.000000 0.000001 2.658707 0.473104 0.010757
    21 1.537458 0.109715 1.664489 -0.499886 0.546206 0.269294
    22 0.928313 0.000000 0.000002 0.000000 0.000000 -0.715299
    23 0.928311 0.000000 0.000001 0.000000 0.000000 -0.261715
    24 2.686395 -0.427337 0.044204 -0.189186 -0.032755 -0.338529
    25 1.435260 0.000000 0.000001 0.000000 0.000000 0.470891
    26 1.482593 0.000000 -0.000001 0.000000 0.000000 0.907015
    27 2.046984 0.000001 0.000000 -0.169962 0.075765 -0.097334
    28 -0.000005 0.000007 3.713254 -0.099865 -3.047848 5.708602
    29 18.045723 0.000000 0.000000 0.000000 0.000000 -0.413544
    30 17.597597 0.000000 0.000000 -0.057202 -0.016721 -0.162308
    31 0.000005 -0.000003 -3.713254 0.807324 2.831618 6.175091
    32 18.045721 0.000000 0.000000 0.000000 0.000000 -0.782250
    33 17.597597 0.000000 0.000000 0.178995 0.125233 0.485354
  time 5
    0 0.450198 3.097902 0.368674 0.000000 0.000000 -1.571017
    1 -0.000004 0.000000 0.000000 -1.570795 -1.570787 0.000000
    2 1.293670 0.684478 -0.000001 -0.010161 -0.023587 -0.092935
    3 5.309685 -0.003834 0.000000 -0.014396 0.020194 0.002449
    4 4.826790 -0.004591 0.000000 0.098500 0.035127 0.081346
    5 5.792767 -0.005304 0.000000 0.080837 0.064405 0.140879
    6 6.662322 -0.001452 0.000000 -0.016647 0.002267 0.459408
    7 -3.131626 1.411351 4.351345 1.587419 -1.030328 -5.188779
    8 4.827512 0.000000 -0.000002 0.819407 0.320622 -1.116258
    9 11.140032 0.000000 0.000000 0.000000 0.000000 -1.639664
    10 10.314563 -0.000001 0.000001 -1.775227 0.364666 0.786075
    11 1.646836 0.445664 -1.699647 -0.161704 0.581044 -0.283978
    12 0.928312 0.000000 0.000000 0.000000 0.000000 0.000000
    13 0.928313 0.000000 -0.000001 0.000000 0.000000 0.000000
    14 2.979373 -0.388274 -0.044205 -0.042068 -0.011516 1.285496
    15 1.435262 -0.000001 -0.000001 0.000000 0.000000 0.624823
    16 1.482593 -0.000001 0.000001 0.000000 0.000000 0.495192
    17 -2.869899 1.427012 -4.128677 0.818925 1.279673 -2.803253
    18 4.972047 0.000000 0.000000 -0.701661 -1.080108 -0.033994
    19 11.585358 0.000000 0.000001 0.000000 0.000000 -1.840229
    20 10.127058 0.000000 0.000001 2.717331 0.482088 0.012207
    21 1.537458 0.109715 1.664489 -0.499886 0.546206 0.269294
    22 0.928313 0.000000 0.000002 0.000000 0.000000 -0.715299
    23 0.928311 0.000000 0.000001 0.000000 0.000000 -0.261715
    24 2.686395 -0.427337 0.044204 -0.189186 -0.032755 -0.338529
    25 1.435260 0.000000 0.000001 0.000000 0.000000 0.470891
    26 1.482593 0.000000 -0.000001 0.000000 0.000000 0.907015
    27 2.046984 0.000001 0.000000 -0.184998 0.035316 -0.128904
    28 -0.000005 0.000007 3.713254 -0.099865 -3.047848 5.708602
    29 18.045723 0.000000 0.000000 0.000000 0.000000 -0.413544
    30 17.597597 0.000000 0.000000 -0.057202 -0.016721 -0.162308
    31 0.000005 -0.000003 -3.713254 0.807324 2.831618 6.175091
    32 18.045721 0.000000 0.000000 0.000000 0.000000 -0.782250
    33 17.597597 0.000000 0.000000 0.178995 0.125233 0.485354
  time 6
    0 0.450198 3.097902 0.368674 0.000000 0.000000 -1.571017
    1 -0.000004 0.000000 0.000000 -1.570795 -1.570787 0.000000
    2 1.293670 0.684478 -0.000001 -0.010262 -0.024989 -0.092868
    3 5.309685 -0.003834 0.000000 -0.014464 0.020194 0.002714
    4 4.826790 -0.004591 0.000000 0.073379 0.026282 0.074798
    5 5.792767 -0.005304 0.000000 0.041642 0.044583 0.135875
    6 6.662322 -0.001452 0.000000 -0.016647 0.002267 0.459408
    7 -3.131626 1.411351 4.351345 1.426482 -1.024739 -5.000879
    8 4.827512 0.000000 -0.000002 0.683011 0.242426 -1.021549
    9 11.140032 0.000000 0.000000 0.000000 0.000000 -1.661256
    10 10.314563 -0.000001 0.000001 -2.465578 0.195307 0.705774
    11 1.646836 0.445664 -1.699647 -0.161704 0.581044 -0.283978
    12 0.928312 0.000000 0.000000 0.000000 0.000000 0.000000
    13 0.928313 0.000000 -0.000001 0.000000 0.000000 0.000000
    14 2.979373 -0.388274 -0.044205 -0.042428 -0.010066 1.319934
    15 1.435262 -0.000001 -0.000001 0.000000 0.000000 0.597324
    16 1.482593 -0.000001 0.000001 0.000000 0.000000 0.489849
    17 -2.869899 1.427012 -4.128677 0.813289 1.281277 -2.808425
    18 4.972047 0.000000 0.000000 -0.731019 -1.111846 -0.069135
    19 11.585358 0.000000 0.000001 0.000000 0.000000 -1.837370
    20 10.127058 0.000000 0.000001 2.732688 0.484547 0.012708
    21 1.537458 0.109715 1.664489 -0.499886 0.546206 0.269294
    22 0.928313 0.000000 0.000002 0.000000 0.000000 -0.715299
    23 0.928311 0.000000 0.000001 0.000000 0.000000 -0.261715
    24 2.686395 -0.427337 0.044204 -0.189186 -0.032755 -0.338529
    25 1.435260 0.000000 0.000001 0.000000 0.000000 0.470891
    26 1.482593 0.000000 -0.000001 0.000000 0.000000 0.907015
    27 2.046984 0.000001 0.000000 -0.135237 0.034962 -0.157616
    28 -0.000005 0.000007 3.713254 -0.099865 -3.047848 5.708602
    29 18.045723 0.000000 0.000000 0.000000 0.000000 -0.413544
    30 17.597597 0.000000 0.000000 -0.057202 -0.016721 -0.162308
    31 0.000005 -0.000003 -3.713254 0.807324 2.831618 6.175091
    32 18.045721 0.000000 0.000000 0.000000 0.000000 -0.782250
    33 17.597597 0.000000 0.000000 0.178995 0.125233 0.485354
  time 7
    0 0.450198 3.097902 0.368674 0.000000 0.000000 -1.571017
    1 -0.000004 0.000000 0.000000 -1.570795 -1.570787 0.000000
    2 1.293670 0.684478 -0.000001 -0.010465 -0.027578 -0.092717
    3 5.309685 -0.003834 0.000000 -0.014601 0.020194 0.003243
    4 4.826790 -0.004591 0.000000 0.026914 0.009492 0.063245
    5 5.792767 -0.005304 0.000000 -0.030813 0.007263 0.128629
    6 6.662322 -0.001452 0.000000 -0.016647 0.002267 0.459408
    7 -3.131626 1.411351 4.351345 1.291041 -1.007086 -4.841629
    8 4.827512 0.000000 -0.000002 0.589822 0.218976 -0.861506
    9 11.140032 0.000000 0.000000 0.000000 0.000000 -1.640027
    10 10.314563 -0.000001 0.000001 -2.969124 0.088146 0.728244
    11 1.646836 0.445664 -1.699647 -0.161704 0.581044 -0.283978
    12 0.928312 0.000000 0.000000 0.000000 0.000000 0.000000
    13 0.928313 0.000000 -0.000001 0.000000 0.000000 0.000000
    14 2.979373 -0.388274 -0.044205 -0.042632 -0.009131 1.341952
    15 1.435262 -0.000001 -0.000001 0.000000 0.000000 0.579855
    16 1.482593 -0.000001 0.000001 0.000000 0.000000 0.486483
    17 -2.869899 1.427012 -4.128677 0.804691 1.283722 -2.816758
    18 4.972047 0.000000 0.000000 -0.787299 -1.191955 -0.141614
    19 11.585358 0.000000 0.000001 0.000000 0.000000 -1.787219
    20 10.127058 0.000000 0.000001 2.588162 0.497786 -0.006751
    21 1.537458 0.109715 1.664489 -0.499886 0.546206 0.269294
    22 0.928313 0.000000 0.000002 0.000000 0.000000 -0.715299
    23 0.928311 0.000000 0.000001 0.000000 0.000000 -0.261715
    24 2.686395 -0.427337 0.044204 -0.189186 -0.032755 -0.338529
    25 1.435260 0.000000 0.000001 0.000000 0.000000 0.470891
    26 1.482593 0.000000 -0.000001 0.000000 0.000000 0.907015
    27 2.046984 0.000001 0.000000 -0.010900 0.046586 -0.172519
    28 -0.000005 0.000007 3.713254 -0.099865 -3.047848 5.708602
    29 18.045723 0.000000 0.000000 0.000000 0.000000 -0.413544
    30 17.597597 0.000000 0.000000 -0.057202 -0.016721 -0.162308
    31 0.000005 -0.000003 -3.713254 0.807324 2.831618 6.175091
    32 18.045721 0.000000 0.000000 0.000000 0.000000 -0.782250
    33 17.597597 0.000000 0.000000 0.178995 0.125233 0.485354
  time 8
    0 0.450198 3.097902 0.368674 0.000000 0.000000 -1.571017
    1 -0.000004 0.000000 0.000000 -1.570795 -1.570787 0.000000
    2 1.293670 0.684478 -0.000001 -0.010566 -0.028980 -0.092617
    3 5.309685 -0.003834 0.000000 -0.014686 0.020182 0.003544
    4 4.826790 -0.004591 0.000000 0.001965 0.000216 0.057358
    5 5.792767 -0.005304 0.000000 -0.069702 -0.012979 0.125930
    6 6.662322 -0.001452 0.000000 -0.016647 0.002267 0.459408
    7 -3.131626 1.411351 4.351345 1.259314 -1.001084 -4.804164
    8 4.827512 0.000000 -0.000002 0.555942 0.209340 -0.776848
    9 11.140032 0.000000 0.000000 0.000000 0.000000 -1.634883
    10 10.314563 -0.000001 0.000001 -3.134319 0.083181 0.740612
    11 1.646836 0.445664 -1.699647 -0.161704 0.581044 -0.283978
    12 0.928312 0.000000 0.000000 0.000000 0.000000 0.000000
    13 0.928313 0.000000 -0.000001 0.000000 0.000000 0.000000
    14 2.979373 -0.388274 -0.044205 -0.042691 -0.008856 1.348770
    15 1.435262 -0.000001 -0.000001 0.000000 0.000000 0.574380
    16 1.482593 -0.000001 0.000001 0.000000 0.000000 0.485415
    17 -2.869899 1.427012 -4.128677 0.795902 1.286245 -2.825186
    18 4.972047 0.000000 0.000000 -0.783171 -1.251012 -0.215490
    19 11.585358 0.000000 0.000001 0.000000 0.000000 -1.737149
    20 10.127058 0.000000 0.000001 2.442585 0.508377 -0.028210
    21 1.537458 0.109715 1.664489 -0.499886 0.546206 0.269294
    22 0.928313 0.000000 0.000002 0.000000 0.000000 -0.715299
    23 0.928311 0.000000 0.000001 0.000000 0.000000 -0.261715
    24 2.686395 -0.427337 0.044204 -0.189186 -0.032755 -0.338529
    25 1.435260 0.000000 0.000001 0.000000 0.000000 0.470891
    26 1.482593 0.000000 -0.000001 0.000000 0.000000 0.907015
    27 2.046984 0.000001 0.000000 0.074835 0.060099 -0.205427
    28 -0.000005 0.000007 3.713254 -0.099865 -3.047848 5.708602
    29 18.045723 0.000000 0.000000 0.000000 0.000000 -0.413544
    30 17.597597 0.000000 0.000000 -0.057202 -0.016721 -0.162308
    31 0.000005 -0.000003 -3.713254 0.807324 2.831618 6.175091
    32 18.045721 0.000000 0.000000 0.000000 0.000000 -0.782250
    33 17.597597 0.000000 0.000000 0.178995 0.125233 0.485354
  time 9
    0 0.450198 3.097902 0.368674 0.000000 0.000000 -1.571017
    1 -0.000004 0.000000 0.000000 -1.570795 -1.570787 0.000000
    2 1.293670 0.684478 -0.000001 -0.010566 -0.029711 -0.094542
    3 5.309685 -0.003834 0.000000 -0.014720 0.020182 0.003703
    4 4.826790 -0.004591 0.000000 -0.017949 -0.000204 0.054668
    5 5.792767 -0.005304 0.000000 -0.093932 -0.014022 0.123563
    6 6.662322 -0.001452 0.000000 -0.016647 0.002267 0.459408
    7 -3.131626 1.411351 4.351345 1.244073 -0.998127 -4.786150
    8 4.827512 0.000000 -0.000002 0.381521 0.258970 -0.679280
    9 11.140032 0.000000 0.000000 0.000000 0.000000 -1.598873
    10 10.314563 -0.000001 0.000001 -3.530200 0.256662 0.690793
    11 1.646836 0.445664 -1.699647 -0.161704 0.581044 -0.283978
    12 0.928312 0.000000 0.000000 0.000000 0.000000 0.000000
    13 0.928313 0.000000 -0.000001 0.000000 0.000000 0.000000
    14 2.979373 -0.388274 -0.044205 -0.042811 -0.008280 1.361668
    15 1.435262 -0.000001 -0.000001 0.000000 0.000000 0.564141
    16 1.482593 -0.000001 0.000001 0.000000 0.000000 0.483438
    17 -2.869899 1.427012 -4.128677 0.791698 1.287376 -2.829401
    18 4.972047 0.000000 0.000000 -0.649133 -1.285080 -0.387736
    19 11.585358 0.000000 0.000001 0.000000 0.000000 -1.706601
    20 10.127058 0.000000 0.000001 2.458854 0.542325 -0.014904
    21 1.537458 0.109715 1.664489 -0.499886 0.546206 0.269294
    22 0.928313 0.000000 0.000002 0.000000 0.000000 -0.715299
    23 0.928311 0.000000 0.000001 0.000000 0.000000 -0.261715
    24 2.686395 -0.427337 0.044204 -0.189186 -0.032755 -0.338529
    25 1.435260 0.000000 0.000001 0.000000 0.000000 0.470891
    26 1.482593 0.000000 -0.000001 0.000000 0.000000 0.907015
    27 2.046984 0.000001 0.000000 0.145103 0.058476 -0.244114
    28 -0.000005 0.000007 3.713254 -0.099865 -3.047848 5.708602
    29 18.045723 0.000000 0.000000 0.000000 0.000000 -0.413544
    30 17.597597 0.000000 0.000000 -0.057202 -0.016721 -0.162308
    31 0.000005 -0.000003 -3.713254 0.807324 2.831618 6.175091
    32 18.045721 0.000000 0.000000 0.000000 0.000000 -0.782250
    33 17.597597 0.000000 0.000000 0.178995 0.125233 0.485354
  time 10
    0 0.450198 3.097902 0.368674 0.000000 0.000000 -1.571017
    1 -0.000004 0.000000 0.000000 -1.570795 -1.570787 0.000000
    2 1.293670 0.684478 -0.000001 -0.010566 -0.030442 -0.096417
    3 5.309685 -0.003834 0.000000 -0.014771 0.020182 0.003844
    4 4.826790 -0.004591 0.000000 -0.037882 -0.000671 0.052022
    5 5.792767 -0.005304 0.000000 -0.118071 -0.015101 0.121196
    6 6.662322 -0.001452 0.000000 -0.016647 0.002267 0.459408
    7 -3.131626 1.411351 4.351345 1.259218 -1.001409 -4.804068
    8 4.827512 0.000000 -0.000002 0.244727 0.337762 -0.585091
    9 11.140032 0.000000 0.000000 0.000000 0.000000 -1.601626
    10 10.314563 -0.000001 0.000001 -3.799933 0.395672 0.589996
    11 1.646836 0.445664 -1.699647 -0.161704 0.581044 -0.283978
    12 0.928312 0.000000 0.000000 0.000000 0.000000 0.000000
    13 0.928313 0.000000 -0.000001 0.000000 0.000000 0.000000
    14 2.979373 -0.388274 -0.044205 -0.042847 -0.008149 1.365490
    15 1.435262 -0.000001 -0.000001 0.000000 0.000000 0.561049
    16 1.482593 -0.000001 0.000001 0.000000 0.000000 0.482850
    17 -2.869899 1.427012 -4.128677 0.787877 1.288428 -2.833040
    18 4.972047 0.000000 0.000000 -0.570530 -1.275438 -0.487369
    19 11.585358 0.000000 0.000001 0.000000 0.000000 -1.680463
    20 10.127058 0.000000 0.000001 2.428841 0.561427 -0.071529
    21 1.537458 0.109715 1.664489 -0.499886 0.546206 0.269294
    22 0.928313 0.000000 0.000002 0.000000 0.000000 -0.715299
    23 0.928311 0.000000 0.000001 0.000000 0.000000 -0.261715
    24 2.686395 -0.427337 0.044204 -0.189186 -0.032755 -0.338529
    25 1.435260 0.000000 0.000001 0.000000 0.000000 0.470891
    26 1.482593 0.000000 -0.000001 0.000000 0.000000 0.907015
    27 2.046984 0.000001 0.000000 0.216621 0.059833 -0.273251
    28 -0.000005 0.000007 3.713254 -0.099865 -3.047848 5.708602
    29 18.045723 0.000000 0.000000 0.000000 0.000000 -0.413544
    30 17.597597 0.000000 0.000000 -0.057202 -0.016721 -0.162308
    31 0.000005 -0.000003 -3.713254 0.807324 2.831618 6.175091
    32 18.045721 0.000000 0.000000 0.000000 0.000000 -0.782250
    33 17.597597 0.000000 0.000000 0.178995 0.125233 0.485354
  time 11
    0 0.450198 3.097902 0.368674 0.000000 0.000000 -1.571017
    1 -0.000004 0.000000 0.000000 -1.570795 -1.570787 0.000000
    2 1.293670 0.684478 -0.000001 -0.010582 -0.028237 -0.096484
    3 5.309685 -0.003834 0.000000 -0.014771 0.011709 0.011386
    4 4.826790 -0.004591 0.000000 -0.054057 -0.003991 0.053169
    5 5.792767 -0.005304 0.000000 -0.116884 -0.014705 0.118746
    6 6.662322 -0.001452 0.000000 -0.016647 0.002267 0.459408
    7 -3.131626 1.411351 4.351345 1.259218 -1.001320 -4.804068
    8 4.827512 0.000000 -0.000002 0.193469 0.349530 -0.535527
    9 11.140032 0.000000 0.000000 0.000000 0.000000 -1.689657
    10 10.314563 -0.000001 0.000001 -3.840971 0.346306 0.612989
    11 1.646836 0.445664 -1.699647 -0.161704 0.581044 -0.283978
    12 0.928312 0.000000 0.000000 0.000000 0.000000 0.000000
    13 0.928313 0.000000 -0.000001 0.000000 0.000000 0.000000
    14 2.979373 -0.388274 -0.044205 -0.042811 -0.008292 1.361451
    15 1.435262 -0.000001 -0.000001 0.000000 0.000000 0.564308
    16 1.482593 -0.000001 0.000001 0.000000 0.000000 0.483492
    17 -2.869899 1.427012 -4.132583 0.791603 1.287455 -2.829592
    18 4.972047 0.000000 0.000000 -0.792457 -1.100678 -0.219351
    19 11.585358 0.000000 0.000001 0.000000 0.000000 -1.710113
    20 10.127058 0.000000 0.000001 2.256967 0.457501 -0.339094
    21 1.537458 0.109715 1.664489 -0.499886 0.546206 0.269294
    22 0.928313 0.000000 0.000002 0.000000 0.000000 -0.715299
    23 0.928311 0.000000 0.000001 0.000000 0.000000 -0.261715
    24 2.686395 -0.427337 0.044204 -0.189186 -0.032755 -0.338529
    25 1.435260 0.000000 0.000001 0.000000 0.000000 0.470891
    26 1.482593 0.000000 -0.000001 0.000000 0.000000 0.907015
    27 2.046984 0.000001 0.000000 0.251604 0.072136 -0.295332
    28 -0.000005 0.000007 3.713254 -0.099865 -3.047848 5.708602
    29 18.045723 0.000000 0.000000 0.000000 0.000000 -0.413544
    30 17.597597 0.000000 0.000000 -0.057202 -0.016721 -0.162308
    31 0.000005 -0.000003 -3.713254 0.807324 2.831618 6.175091
    32 18.045721 0.000000 0.000000 0.000000 0.000000 -0.782250
    33 17.597597 0.000000 0.000000 0.178995 0.125233 0.485354
  time 12
    0 0.450198 3.097902 0.368674 0.000000 0.000000 -1.571017
    1 -0.000004 0.000000 0.000000 -1.570795 -1.570787 0.000000
    2 1.293670 0.684478 -0.000001 -0.010633 -0.022963 -0.096484
    3 5.309685 -0.003834 0.000000 -0.015009 -0.008509 0.029421
    4 4.826790 -0.004591 0.000000 -0.093369 -0.011781 0.056299
    5 5.792767 -0.005304 0.000000 -0.115733 -0.012943 0.114095
    6 6.662322 -0.001452 0.000000 -0.016647 0.002267 0.459408
    7 -3.131626 1.411351 4.351345 1.259314 -1.001172 -4.804068
    8 4.827512 0.000000 -0.000002 0.164612 0.328468 -0.463520
    9 11.140032 0.000000 0.000000 0.000000 0.000000 -1.804061
    10 10.314563 -0.000001 0.000001 -3.805715 0.252447 0.671168
    11 1.646836 0.445664 -1.699647 -0.161704 0.581044 -0.283978
    12 0.928312 0.000000 0.000000 0.000000 0.000000 0.000000
    13 0.928313 0.000000 -0.000001 0.000000 0.000000 0.000000
    14 2.979373 -0.388274 -0.044205 -0.042739 -0.008592 1.354416
    15 1.435262 -0.000001 -0.000001 0.000000 0.000000 0.569908
    16 1.482593 -0.000001 0.000001 0.000000 0.000000 0.484560
    17 -2.869899 1.427012 -4.128677 0.796857 1.285956 -2.824420
    18 4.972047 0.000000 0.000000 -0.899951 -0.910973 -0.091032
    19 11.585358 0.000000 0.000001 0.000000 0.000000 -1.750871
    20 10.127058 0.000000 0.000001 2.125695 0.306766 -0.573795
    21 1.537458 0.109715 1.664489 -0.499886 0.546206 0.269294
    22 0.928313 0.000000 0.000002 0.000000 0.000000 -0.715299
    23 0.928311 0.000000 0.000001 0.000000 0.000000 -0.261715
    24 2.686395 -0.427337 0.044204 -0.189186 -0.032755 -0.338529
    25 1.435260 0.000000 0.000001 0.000000 0.000000 0.470891
    26 1.482593 0.000000 -0.000001 0.000000 0.000000 0.907015
    27 2.046984 0.000001 0.000000 0.301882 0.087301 -0.309201
    28 -0.000005 0.000007 3.713254 -0.099865 -3.047848 5.708602
    29 18.045723 0.000000 0.000000 0.000000 0.000000 -0.413544
    30 17.597597 0.000000 0.000000 -0.057202 -0.016721 -0.162308
    31 0.000005 -0.000003 -3.713254 0.807324 2.831618 6.175091
    32 18.045721 0.000000 0.000000 0.000000 0.000000 -0.782250
    33 17.597597 0.000000 0.000000 0.178995 0.125233 0.485354
  time 13
    0 0.450198 3.097902 0.368674 0.000000 0.000000 -1.571017
    1 -0.000004 0.000000 0.000000 -1.570795 -1.570787 0.000000
    2 1.293670 0.684478 -0.000001 -0.010667 -0.016731 -0.096233
    3 5.309685 -0.003834 0.000000 -0.015775 -0.032694 0.050918
    4 4.826790 -0.004591 0.000000 -0.141951 -0.020877 0.060841
    5 5.792767 -0.005304 0.000000 -0.118269 -0.008881 0.111479
    6 6.662322 -0.001452 0.000000 -0.016647 0.002267 0.459408
    7 -3.131626 1.411351 4.351345 1.259314 -1.001025 -4.804164
    8 4.827512 0.000000 -0.000002 0.149545 0.315932 -0.383889
    9 11.140032 0.000000 0.000000 0.000000 0.000000 -1.930637
    10 10.314563 -0.000001 0.000001 -3.746290 0.132546 0.738115
    11 1.646836 0.445664 -1.699647 -0.161704 0.581044 -0.283978
    12 0.928312 0.000000 0.000000 0.000000 0.000000 0.000000
    13 0.928313 0.000000 -0.000001 0.000000 0.000000 0.000000
    14 2.979373 -0.388274 -0.044205 -0.042667 -0.009000 1.345383
    15 1.435262 -0.000001 -0.000001 0.000000 0.000000 0.577097
    16 1.482593 -0.000001 0.000001 0.000000 0.000000 0.485949
    17 -2.869899 1.427012 -4.128677 0.800869 1.284852 -2.820493
    18 4.972047 0.000000 0.000000 -0.939440 -0.802019 -0.068137
    19 11.585358 0.000000 0.000001 0.000000 0.000000 -1.779132
    20 10.127058 0.000000 0.000001 2.066230 0.205204 -0.702451
    21 1.537458 0.109715 1.664489 -0.499886 0.546206 0.269294
    22 0.928313 0.000000 0.000002 0.000000 0.000000 -0.715299
    23 0.928311 0.000000 0.000001 0.000000 0.000000 -0.261715
    24 2.686395 -0.427337 0.044204 -0.189186 -0.032755 -0.338529
    25 1.435260 0.000000 0.000001 0.000000 0.000000 0.470891
    26 1.482593 0.000000 -0.000001 0.000000 0.000000 0.907015
    27 2.046984 0.000001 0.000000 0.361940 0.102613 -0.322340
    28 -0.000005 0.000007 3.713254 -0.099865 -3.047848 5.708602
    29 18.045723 0.000000 0.000000 0.000000 0.000000 -0.413544
    30 17.597597 0.000000 0.000000 -0.057202 -0.016721 -0.162308
    31 0.000005 -0.000003 -3.713254 0.807324 2.831618 6.175091
    32 18.045721 0.000000 0.000000 0.000000 0.000000 -0.782250
    33 17.597597 0.000000 0.000000 0.178995 0.125233 0.485354
  time 14
    0 0.450198 3.097902 0.368674 0.000000 0.000000 -1.571017
    1 -0.000004 0.000000 0.000000 -1.570795 -1.570787 0.000000
    2 1.293670 0.684478 -0.000001 -0.010684 -0.011566 -0.095513
    3 5.309685 -0.003834 0.000000 -0.016813 -0.052900 0.068881
    4 4.826790 -0.004591 0.000000 -0.186013 -0.028344 0.065736
    5 5.792767 -0.005304 0.000000 -0.128145 -0.001558 0.114988
    6 6.662322 -0.001452 0.000000 -0.016647 0.002267 0.459408
    7 -3.131626 1.411351 4.351345 1.259506 -1.000877 -4.804260
    8 4.827512 0.000000 -0.000002 0.141972 0.354391 -0.312056
    9 11.140032 0.000000 0.000000 0.000000 0.000000 -2.055112
    10 10.314563 -0.000001 0.000001 -3.706673 0.010023 0.799314
    11 1.646836 0.445664 -1.699647 -0.161704 0.581044 -0.283978
    12 0.928312 0.000000 0.000000 0.000000 0.000000 0.000000
    13 0.928313 0.000000 -0.000001 0.000000 0.000000 0.000000
    14 2.979373 -0.388274 -0.044205 -0.042572 -0.009431 1.335264
    15 1.435262 -0.000001 -0.000001 0.000000 0.000000 0.585204
    16 1.482593 -0.000001 0.000001 0.000000 0.000000 0.487498
    17 -2.869899 1.427012 -4.128677 0.802398 1.284431 -2.819056
    18 4.972047 0.000000 0.000000 -0.941879 -0.780726 -0.110000
    19 11.585358 0.000000 0.000001 0.000000 0.000000 -1.788444
    20 10.127058 0.000000 0.000001 2.050872 0.174471 -0.739967
    21 1.537458 0.109715 1.664489 -0.499886 0.546206 0.269294
    22 0.928313 0.000000 0.000002 0.000000 0.000000 -0.715299
    23 0.928311 0.000000 0.000001 0.000000 0.000000 -0.261715
    24 2.686395 -0.427337 0.044204 -0.189186 -0.032755 -0.338529
    25 1.435260 0.000000 0.000001 0.000000 0.000000 0.470891
    26 1.482593 0.000000 -0.000001 0.000000 0.000000 0.907015
    27 2.046984 0.000001 0.000000 0.420188 0.109163 -0.331281
    28 -0.000005 0.000007 3.713254 -0.099865 -3.047848 5.708602
    29 18.045723 0.000000 0.000000 0.000000 0.000000 -0.413544
    30 17.597597 0.000000 0.000000 -0.057202 -0.016721 -0.162308
    31 0.000005 -0.000003 -3.713254 0.807324 2.831618 6.175091
    32 18.045721 0.000000 0.000000 0.000000 0.000000 -0.782250
    33 17.597597 0.000000 0.000000 0.178995 0.125233 0.485354
  time 15
    0 0.450198 3.097902 0.368674 0.000000 0.000000 -1.571017
    1 -0.000004 0.000000 0.000000 -1.570795 -1.570787 0.000000
    2 1.293670 0.684478 -0.000001 -0.010566 -0.010739 -0.091060
    3 5.309685 -0.003834 0.000000 -0.017034 -0.057945 0.073085
    4 4.826790 -0.004591 0.000000 -0.223208 -0.029854 0.072946
    5 5.792767 -0.005304 0.000000 -0.190562 0.032898 0.159607
    6 6.662322 -0.001452 0.000000 -0.016647 0.002267 0.459408
    7 -3.131626 1.411351 4.351345 1.259793 -1.000492 -4.804547
    8 4.827512 0.000000 -0.000002 0.224001 0.721920 -0.263358
    9 11.140032 0.000000 0.000000 0.000000 0.000000 -2.195237
    10 10.314563 -0.000001 0.000001 -3.682031 -0.170109 0.892505
    11 1.646836 0.445664 -1.699647 -0.161704 0.581044 -0.283978
    12 0.928312 0.000000 0.000000 0.000000 0.000000 0.000000
    13 0.928313 0.000000 -0.000001 0.000000 0.000000 0.000000
    14 2.979373 -0.388274 -0.044205 -0.042380 -0.010342 1.314028
    15 1.435262 -0.000001 -0.000001 0.000000 0.000000 0.602088
    16 1.482593 -0.000001 0.000001 0.000000 0.000000 0.490757
    17 -2.869899 1.427012 -4.132583 0.812238 1.281566 -2.809574
    18 4.972047 0.000000 0.000000 -0.992624 -0.718696 -0.161181
    19 11.585358 0.000000 0.000001 0.000000 0.000000 -1.828304
    20 10.127058 0.000000 0.000001 2.040845 0.185346 -0.757224
    21 1.537458 0.109715 1.664489 -0.499886 0.546206 0.269294
    22 0.928313 0.000000 0.000002 0.000000 0.000000 -0.715299
    23 0.928311 0.000000 0.000001 0.000000 0.000000 -0.261715
    24 2.686395 -0.427337 0.044204 -0.189186 -0.032755 -0.338529
    25 1.435260 0.000000 0.000001 0.000000 0.000000 0.470891
    26 1.482593 0.000000 -0.000001 0.000000 0.000000 0.907015
    27 2.046984 0.000001 0.000000 0.515832 0.070366 -0.371003
    28 -0.000005 0.000007 3.713254 -0.099865 -3.047848 5.708602
    29 18.045723 0.000000 0.000000 0.000000 0.000000 -0.413544
    30 17.597597 0.000000 0.000000 -0.057202 -0.016721 -0.162308
    31 0.000005 -0.000003 -3.713254 0.807324 2.831618 6.175091
    32 18.045721 0.000000 0.000000 0.000000 0.000000 -0.782250
    33 17.597597 0.000000 0.000000 0.178995 0.125233 0.485354
  time 16
    0 0.450198 3.097902 0.368674 0.000000 0.000000 -1.571017
    1 -0.000004 0.000000 0.000000 -1.570795 -1.570787 0.000000
    2 1.293670 0.684478 -0.000001 -0.010448 -0.012777 -0.087812
    3 5.309685 -0.003834 0.000000 -0.016949 -0.057814 0.072697
    4 4.826790 -0.004591 0.000000 -0.226069 -0.029147 0.077355
    5 5.792767 -0.005304 0.000000 -0.186101 0.027241 0.139654
    6 6.662322 -0.001452 0.000000 -0.016647 0.002267 0.459408
    7 -3.131626 1.411351 4.351345 1.259985 -1.000226 -4.804739
    8 4.827512 0.000000 -0.000002 0.148589 0.707083 -0.184766
    9 11.140032 0.000000 0.000000 0.000000 0.000000 -2.217480
    10 10.314563 -0.000001 0.000001 -3.670753 -0.182942 0.917705
    11 1.646836 0.445664 -1.699647 -0.161704 0.581044 -0.283978
    12 0.928312 0.000000 0.000000 0.000000 0.000000 0.000000
    13 0.928313 0.000000 -0.000001 0.000000 0.000000 0.000000
    14 2.979373 -0.388274 -0.044205 -0.042224 -0.010905 1.300001
    15 1.435262 -0.000001 -0.000001 0.000000 0.000000 0.613288
    16 1.482593 -0.000001 0.000001 0.000000 0.000000 0.492948
    17 -2.869899 1.430918 -4.128677 0.818829 1.279752 -2.803348
    18 4.972047 0.000000 0.000000 -0.988778 -0.729463 -0.163311
    19 11.585358 0.000000 0.000001 0.000000 0.000000 -1.828712
    20 10.127058 0.000000 0.000001 2.045894 0.153005 -0.758875
    21 1.537458 0.109715 1.664489 -0.499886 0.546206 0.269294
    22 0.928313 0.000000 0.000002 0.000000 0.000000 -0.715299
    23 0.928311 0.000000 0.000001 0.000000 0.000000 -0.261715
    24 2.686395 -0.427337 0.044204 -0.189186 -0.032755 -0.338529
    25 1.435260 0.000000 0.000001 0.000000 0.000000 0.470891
    26 1.482593 0.000000 -0.000001 0.000000 0.000000 0.907015
    27 2.046984 0.000001 0.000000 0.510403 0.060040 -0.330552
    28 -0.000005 0.000007 3.713254 -0.099865 -3.047848 5.708602
    29 18.045723 0.000000 0.000000 0.000000 0.000000 -0.413544
    30 17.597597 0.000000 0.000000 -0.057202 -0.016721 -0.162308
    31 0.000005 -0.000003 -3.713254 0.807324 2.831618 6.175091
    32 18.045721 0.000000 0.000000 0.000000 0.000000 -0.782250
    33 17.597597 0.000000 0.000000 0.178995 0.125233 0.485354
  time 17
    0 0.450198 3.097902 0.368674 0.000000 0.000000 -1.571017
    1 -0.000004 0.000000 0.000000 -1.570795 -1.570787 0.000000
    2 1.293670 0.684478 -0.000001 -0.010246 -0.012010 -0.077349
    3 5.309685 -0.003834 0.000000 -0.016592 -0.056639 0.070877
    4 4.826790 -0.004591 0.000000 -0.212183 -0.026378 0.091466
    5 5.792767 -0.005304 0.000000 -0.167646 0.020110 0.133612
    6 6.662322 -0.001452 0.000000 -0.016647 0.002267 0.459408
    7 -3.131626 1.411351 4.351345 1.260560 -0.999457 -4.805122
    8 4.827512 0.000000 -0.000002 0.001909 0.663849 -0.184593
    9 11.140032 0.000000 0.000000 0.000000 0.000000 -2.118654
    10 10.314563 -0.000001 0.000001 -3.600524 -0.143412 0.893260
    11 1.646836 0.445664 -1.699647 -0.161704 0.581044 -0.283978
    12 0.928312 0.000000 0.000000 0.000000 0.000000 0.000000
    13 0.928313 0.000000 -0.000001 0.000000 0.000000 0.000000
    14 2.979373 -0.388274 -0.044205 -0.041673 -0.012835 1.254620
    15 1.435262 -0.000001 -0.000001 0.000000 0.000000 0.649480
    16 1.482593 -0.000001 0.000001 0.000000 0.000000 0.499946
    17 -2.869899 1.427012 -4.128677 0.838987 1.273547 -2.783809
    18 4.972047 0.000000 0.000000 -0.980993 -0.747542 -0.148403
    19 11.585358 0.000000 0.000001 0.000000 0.000000 -1.831979
    20 10.127058 0.000000 0.000001 2.024716 0.152910 -0.704301
    21 1.537458 0.109715 1.664489 -0.499886 0.546206 0.269294
    22 0.928313 0.000000 0.000002 0.000000 0.000000 -0.715299
    23 0.928311 0.000000 0.000001 0.000000 0.000000 -0.261715
    24 2.686395 -0.427337 0.044204 -0.189186 -0.032755 -0.338529
    25 1.435260 0.000000 0.000001 0.000000 0.000000 0.470891
    26 1.482593 0.000000 -0.000001 0.000000 0.000000 0.907015
    27 2.046984 0.000001 0.000000 0.473912 0.054493 -0.306707
    28 -0.000005 0.000007 3.713254 -0.099865 -3.047848 5.708602
    29 18.045723 0.000000 0.000000 0.000000 0.000000 -0.413544
    30 17.597597 0.000000 0.000000 -0.057202 -0.016721 -0.162308
    31 0.000005 -0.000003 -3.713254 0.807324 2.831618 6.175091
    32 18.045721 0.000000 0.000000 0.000000 0.000000 -0.782250
    33 17.597597 0.000000 0.000000 0.178995 0.125233 0.485354
  time 18
    0 0.450198 3.097902 0.368674 0.000000 0.000000 -1.571017
    1 -0.000004 0.000000 0.000000 -1.570795 -1.570787 0.000000
    2 1.293670 0.684478 -0.000001 -0.009892 -0.005706 -0.054933
    3 5.309685 -0.003834 0.000000 -0.015996 -0.055884 0.068511
    4 4.826790 -0.004591 0.000000 -0.184373 -0.021728 0.122290
    5 5.792767 -0.005304 0.000000 -0.152356 0.025371 0.174224
    6 6.662322 -0.001452 0.000000 -0.016647 0.002267 0.459408
    7 -3.131626 1.411351 4.351345 1.261710 -0.997713 -4.806272
    8 4.827512 0.000000 -0.000002 -0.202883 0.706230 -0.344116
    9 11.140032 0.000000 0.000000 0.000000 0.000000 -1.871443
    10 10.314563 -0.000001 0.000001 -3.439404 -0.076437 0.822539
    11 1.646836 0.445664 -1.699647 -0.161704 0.581044 -0.283978
    12 0.928312 0.000000 0.000000 0.000000 0.000000 0.000000
    13 0.928313 0.000000 -0.000001 0.000000 0.000000 0.000000
    14 2.979373 -0.388274 -0.044205 -0.040223 -0.016837 1.156430
    15 1.435262 -0.000001 -0.000001 0.000000 0.000000 0.727714
    16 1.482593 -0.000001 0.000001 0.000000 0.000000 0.515012
    17 -2.869899 1.427012 -4.128677 0.880256 1.259850 -2.744348
    18 4.972047 0.000000 0.000000 -0.988590 -0.751961 -0.125973
    19 11.585358 0.000000 0.000001 0.000000 0.000000 -1.854768
    20 10.127058 0.000000 0.000001 1.962586 0.226859 -0.567843
    21 1.537458 0.109715 1.664489 -0.499886 0.546206 0.269294
    22 0.928313 0.000000 0.000002 0.000000 0.000000 -0.715299
    23 0.928311 0.000000 0.000001 0.000000 0.000000 -0.261715
    24 2.686395 -0.427337 0.044204 -0.189186 -0.032755 -0.338529
    25 1.435260 0.000000 0.000001 0.000000 0.000000 0.470891
    26 1.482593 0.000000 -0.000001 0.000000 0.000000 0.907015
    27 2.046984 0.000001 0.000000 0.423764 0.042426 -0.335418
    28 -0.000005 0.000007 3.713254 -0.099865 -3.047848 5.708602
    29 18.045723 0.000000 0.000000 0.000000 0.000000 -0.413544
    30 17.597597 0.000000 0.000000 -0.057202 -0.016721 -0.162308
    31 0.000005 -0.000003 -3.713254 0.807324 2.831618 6.175091
    32 18.045721 0.000000 0.000000 0.000000 0.000000 -0.782250
    33 17.597597 0.000000 0.000000 0.178995 0.125233 0.485354
  time 19
    0 0.450198 3.097902 0.368674 0.000000 0.000000 -1.571017
    1 -0.000004 0.000000 0.000000 -1.570795 -1.570787 0.000000
    2 1.293670 0.684478 -0.000001 -0.009269 0.001929 -0.029453
    3 5.309685 -0.003834 0.000000 -0.015298 -0.055105 0.065879
    4 4.826790 -0.004591 0.000000 -0.152061 -0.017533 0.157435
    5 5.792767 -0.005304 0.000000 -0.136041 0.032131 0.225529
    6 6.662322 -0.001452 0.000000 -0.016647 0.002267 0.459408
    7 -3.131626 1.411351 4.351345 1.263052 -0.995761 -4.807326
    8 4.827512 0.000000 -0.000002 -0.433106 0.734882 -0.570100
    9 11.140032 0.000000 0.000000 0.000000 0.000000 -1.583223
    10 10.314563 -0.000001 0.000001 -3.261604 0.013957 0.752341
    11 1.646836 0.445664 -1.699647 -0.161704 0.581044 -0.283978
    12 0.928312 0.000000 0.000000 0.000000 0.000000 0.000000
    13 0.928313 0.000000 -0.000001 0.000000 0.000000 0.000000
    14 2.979373 -0.388274 -0.044205 -0.038089 -0.021236 1.044865
    15 1.435262 -0.000001 -0.000001 0.000000 0.000000 0.816605
    16 1.482593 -0.000001 0.000001 0.000000 0.000000 0.532215
    17 -2.869899 1.430918 -4.128677 0.922959 1.243707 -2.703833
    18 4.972047 0.000000 0.000000 -1.000315 -0.758550 -0.100217
    19 11.585358 0.000000 0.000001 0.000000 0.000000 -1.881641
    20 10.127058 0.000000 0.000001 1.902911 0.327476 -0.413376
    21 1.537458 0.109715 1.664489 -0.499886 0.546206 0.269294
    22 0.928313 0.000000 0.000002 0.000000 0.000000 -0.715299
    23 0.928311 0.000000 0.000001 0.000000 0.000000 -0.261715
    24 2.686395 -0.427337 0.044204 -0.189186 -0.032755 -0.338529
    25 1.435260 0.000000 0.000001 0.000000 0.000000 0.470891
    26 1.482593 0.000000 -0.000001 0.000000 0.000000 0.907015
    27 2.046984 0.000001 0.000000 0.363749 0.023839 -0.355248
    28 -0.000005 0.000007 3.713254 -0.099865 -3.047848 5.708602
    29 18.045723 0.000000 0.000000 0.000000 0.000000 -0.413544
    30 17.597597 0.000000 0.000000 -0.057202 -0.016721 -0.162308
    31 0.000005 -0.000003 -3.713254 0.807324 2.831618 6.175091
    32 18.045721 0.000000 0.000000 0.000000 0.000000 -0.782250
    33 17.597597 0.000000 0.000000 0.178995 0.125233 0.485354
  time 20
    0 0.450198 3.097902 0.368674 0.000000 0.000000 -1.571017
    1 -0.000004 0.000000 0.000000 -1.570795 -1.570787 0.000000
    2 1.293670 0.684478 -0.000001 -0.008409 0.010330 -0.002249
    3 5.309685 -0.003834 0.000000 -0.014601 -0.054326 0.063105
    4 4.826790 -0.004591 0.000000 -0.117059 -0.014358 0.195093
    5 5.792767 -0.005304 0.000000 -0.118899 0.039166 0.282938
    6 6.662322 -0.001452 0.000000 -0.016647 0.002267 0.459408
    7 -3.131626 1.411351 4.351345 1.264586 -0.993662 -4.808572
    8 4.827512 0.000000 -0.000002 -0.665720 0.733006 -0.836291
    9 11.140032 0.000000 0.000000 0.000000 0.000000 -1.271674
    10 10.314563 -0.000001 0.000001 -3.077264 0.123554 0.693639
    11 1.646836 0.445664 -1.699647 -0.161704 0.581044 -0.283978
    12 0.928312 0.000000 0.000000 0.000000 0.000000 0.000000
    13 0.928313 0.000000 -0.000001 0.000000 0.000000 0.000000
    14 2.979373 -0.388274 -0.044205 -0.035309 -0.025598 0.925657
    15 1.435262 -0.000001 -0.000001 0.000000 0.000000 0.911597
    16 1.482593 -0.000001 0.000001 0.000000 0.000000 0.550539
    17 -2.869899 1.430918 -4.132583 0.964229 1.225935 -2.664659
    18 4.972047 0.000000 0.000000 -1.015886 -0.769317 -0.072796
    19 11.585358 0.000000 0.000001 0.000000 0.000000 -1.910800
    20 10.127058 0.000000 0.000001 1.855928 0.447477 -0.248205
    21 1.537458 0.109715 1.664489 -0.499886 0.546206 0.269294
    22 0.928313 0.000000 0.000002 0.000000 0.000000 -0.715299
    23 0.928311 0.000000 0.000001 0.000000 0.000000 -0.261715
    24 2.686395 -0.427337 0.044204 -0.189186 -0.032755 -0.338529
    25 1.435260 0.000000 0.000001 0.000000 0.000000 0.470891
    26 1.482593 0.000000 -0.000001 0.000000 0.000000 0.907015
    27 2.046984 0.000001 0.000000 0.297272 0.006373 -0.367779
    28 -0.000005 0.000007 3.713254 -0.099865 -3.047848 5.708602
    29 18.045723 0.000000 0.000000 0.000000 0.000000 -0.413544
    30 17.597597 0.000000 0.000000 -0.057202 -0.016721 -0.162308
    31 0.000005 -0.000003 -3.713254 0.807324 2.831618 6.175091
    32 18.045721 0.000000 0.000000 0.000000 0.000000 -0.782250
    33 17.597597 0.000000 0.000000 0.178995 0.125233 0.485354
  time 21
    0 0.450198 3.097902 0.368674 0.000000 0.000000 -1.571017
    1 -0.000004 0.000000 0.000000 -1.570795 -1.570787 0.000000
    2 1.293670 0.684478 -0.000001 -0.007315 0.018899 0.025407
    3 5.309685 -0.003834 0.000000 -0.013886 -0.053535 0.060315
    4 4.826790 -0.004591 0.000000 -0.081371 -0.012476 0.233479
    5 5.792767 -0.005304 0.000000 -0.101199 0.045470 0.342029
    6 6.662322 -0.001452 0.000000 -0.016647 0.002267 0.459408
    7 -3.131626 1.411351 4.351345 1.266024 -0.991533 -4.809817
    8 4.827512 0.000000 -0.000002 -0.872187 0.698385 -1.105427
    9 11.140032 0.000000 0.000000 0.000000 0.000000 -0.954256
    10 10.314563 -0.000001 0.000001 -2.892924 0.244297 0.654620
    11 1.646836 0.445664 -1.699647 -0.161704 0.581044 -0.283978
    12 0.928312 0.000000 0.000000 0.000000 0.000000 0.000000
    13 0.928313 0.000000 -0.000001 0.000000 0.000000 0.000000
    14 2.979373 -0.388274 -0.044205 -0.031965 -0.029709 0.804451
    15 1.435262 -0.000001 -0.000001 0.000000 0.000000 1.008136
    16 1.482593 -0.000001 0.000001 0.000000 0.000000 0.569184
    17 -2.869899 1.430918 -4.128677 1.002060 1.207295 -2.628933
    18 4.972047 0.000000 0.000000 -1.034927 -0.784904 -0.044909
    19 11.585358 0.000000 0.000001 0.000000 0.000000 -1.940613
    20 10.127058 0.000000 0.000001 1.829211 0.576179 -0.076331
    21 1.537458 0.109715 1.664489 -0.499886 0.546206 0.269294
    22 0.928313 0.000000 0.000002 0.000000 0.000000 -0.715299
    23 0.928311 0.000000 0.000001 0.000000 0.000000 -0.261715
    24 2.686395 -0.427337 0.044204 -0.189186 -0.032755 -0.338529
    25 1.435260 0.000000 0.000001 0.000000 0.000000 0.470891
    26 1.482593 0.000000 -0.000001 0.000000 0.000000 0.907015
    27 2.046984 0.000001 0.000000 0.228210 -0.004485 -0.375991
    28 -0.000005 0.000007 3.713254 -0.099865 -3.047848 5.708602
    29 18.045723 0.000000 0.000000 0.000000 0.000000 -0.413544
    30 17.597597 0.000000 0.000000 -0.057202 -0.016721 -0.162308
    31 0.000005 -0.000003 -3.713254 0.807324 2.831618 6.175091
    32 18.045721 0.000000 0.000000 0.000000 0.000000 -0.782250
    33 17.597597 0.000000 0.000000 0.178995 0.125233 0.485354
  time 22
    0 0.450198 3.097902 0.368674 0.000000 0.000000 -1.571017
    1 -0.000004 0.000000 0.000000 -1.570795 -1.570787 0.000000
    2 1.293670 0.684478 -0.000001 -0.006018 0.027024 0.052193
    3 5.309685 -0.003834 0.000000 -0.013154 -0.052744 0.057577
    4 4.826790 -0.004591 0.000000 -0.046923 -0.011937 0.270697
    5 5.792767 -0.005304 0.000000 -0.083427 0.050203 0.398213
    6 6.662322 -0.001452 0.000000 -0.016647 0.002267 0.459408
    7 -3.131626 1.411351 4.351345 1.267557 -0.989463 -4.810871
    8 4.827512 0.000000 -0.000002 -1.037600 0.641848 -1.347615
    9 11.140032 0.000000 0.000000 0.000000 0.000000 -0.648575
    10 10.314563 -0.000001 0.000001 -2.712280 0.365415 0.639233
    11 1.646836 0.445664 -1.699647 -0.161704 0.581044 -0.283978
    12 0.928312 0.000000 0.000000 0.000000 0.000000 0.000000
    13 0.928313 0.000000 -0.000001 0.000000 0.000000 0.000000
    14 2.979373 -0.388274 -0.044205 -0.028262 -0.033220 0.687154
    15 1.435262 -0.000001 -0.000001 0.000000 0.000000 1.101624
    16 1.482593 -0.000001 0.000001 0.000000 0.000000 0.587188
    17 -2.869899 1.430918 -4.128677 1.035400 1.188892 -2.597900
    18 4.972047 0.000000 0.000000 -1.056219 -0.804590 -0.018220
    19 11.585358 0.000000 0.000001 0.000000 0.000000 -1.969283
    20 10.127058 0.000000 0.000001 1.827177 0.701099 0.099695
    21 1.537458 0.109715 1.664489 -0.499886 0.546206 0.269294
    22 0.928313 0.000000 0.000002 0.000000 0.000000 -0.715299
    23 0.928311 0.000000 0.000001 0.000000 0.000000 -0.261715
    24 2.686395 -0.427337 0.044204 -0.189186 -0.032755 -0.338529
    25 1.435260 0.000000 0.000001 0.000000 0.000000 0.470891
    26 1.482593 0.000000 -0.000001 0.000000 0.000000 0.907015
    27 2.046984 0.000001 0.000000 0.161561 -0.006255 -0.384507
    28 -0.000005 0.000007 3.713254 -0.099865 -3.047848 5.708602
    29 18.045723 0.000000 0.000000 0.000000 0.000000 -0.413544
    30 17.597597 0.000000 0.000000 -0.057202 -0.016721 -0.162308
    31 0.000005 -0.000003 -3.713254 0.807324 2.831618 6.175091
    32 18.045721 0.000000 0.000000 0.000000 0.000000 -0.782250
    33 17.597597 0.000000 0.000000 0.178995 0.125233 0.485354
end
