version 1
nodes
  0 "Bip01" -1
  1 "Bip01 Pelvis" 0
  2 "Bip01 Spine" 1
  3 "Bip01 Spine1" 2
  4 "Bip01 Spine2" 3
  5 "Bip01 Spine3" 4
  6 "Bip01 Neck" 5
  7 "Bip01 L Arm" 6
  8 "Bip01 L Arm1" 7
  9 "Bip01 L Arm2" 8
  10 "Bip01 L Hand" 9
  11 "Bip01 L Finger0" 10
  12 "Bip01 L Finger01" 11
  13 "Bip01 L Finger02" 12
  14 "Bip01 L Finger1" 10
  15 "Bip01 L Finger11" 14
  16 "Bip01 L Finger12" 15
  17 "Bip01 R Arm" 6
  18 "Bip01 R Arm1" 17
  19 "Bip01 R Arm2" 18
  20 "Bip01 R Hand" 19
  21 "Bip01 R Finger0" 20
  22 "Bip01 R Finger01" 21
  23 "Bip01 R Finger02" 22
  24 "Bip01 R Finger1" 20
  25 "Bip01 R Finger11" 24
  26 "Bip01 R Finger12" 25
  27 "Bip01 Head" 6
  28 "Bip01 L Leg" 1
  29 "Bip01 L Leg1" 28
  30 "Bip01 L Foot" 29
  31 "Bip01 R Leg" 1
  32 "Bip01 R Leg1" 31
  33 "Bip01 R Foot" 32
end
skeleton
  time 0
    0 0.157220 3.636981 1.540585 0.000000 0.000000 -1.571017
    1 0.992214 -0.253914 0.000000 -1.570795 -1.570787 0.000000
    2 1.293670 0.684478 -0.000001 0.000266 0.025358 0.010374
    3 5.309685 -0.003834 0.000000 -0.073616 -0.036146 -0.007902
    4 4.826790 -0.004591 0.000000 -0.145976 -0.046332 -0.193419
    5 5.792767 -0.005304 0.000000 -0.172017 -0.069786 -0.070196
    6 6.662322 -0.001452 0.000000 0.000072 0.095988 0.471000
    7 -3.506637 1.516823 4.031023 1.299476 -1.381225 -4.925853
    8 4.827512 0.000000 -0.000002 -1.298673 0.574056 -1.615624
    9 11.140032 0.000000 0.000000 0.000000 0.000000 -0.999032
    10 10.314563 -0.000001 0.000001 -3.049115 0.302187 -0.161518
    11 1.646836 0.445664 -1.699647 0.993049 1.047208 -0.378175
    12 0.928312 0.000000 0.000000 0.000000 0.000000 1.029733
    13 0.928313 0.000000 -0.000001 0.000000 0.000000 0.410081
    14 2.979373 -0.388274 -0.044205 -0.270039 -0.127227 0.519437
    15 1.435262 -0.000001 -0.000001 0.000000 0.000000 0.767708
    16 1.482593 -0.000001 0.000001 0.000000 0.000000 0.495031
    17 -2.471449 1.399667 -4.390404 0.432117 1.255170 -3.213288
    18 4.972047 0.000000 0.000000 -0.530478 -1.058896 -0.328102
    19 11.585358 0.000000 0.000001 0.000000 0.000000 -2.015269
    20 10.127058 0.000000 0.000001 1.760770 0.483885 0.138212
    21 1.537458 0.109715 1.664489 -3.078535 -0.186288 0.914916
    22 0.928313 0.000000 0.000002 0.000000 0.000000 0.061034
    23 0.928311 0.000000 0.000001 0.000000 0.000000 0.671897
    24 2.686395 -0.427337 0.044204 0.006330 0.043192 0.122300
    25 1.435260 0.000000 0.000001 0.000000 0.000000 1.186618
    26 1.482593 0.000000 -0.000001 0.000000 0.000000 1.404984
    27 2.046984 0.000001 0.000000 0.359312 0.202748 -0.431041
    28 -0.000005 0.000007 3.713254 -0.108302 -3.067502 5.834370
    29 18.045723 0.000000 0.000000 0.000000 0.000000 -0.437229
    30 17.597597 0.000000 0.000000 -0.062219 -0.012021 -0.011838
    31 0.000005 -0.000003 -3.713254 0.557847 3.012710 -0.015293
    32 18.045721 0.000000 0.000000 0.000000 0.000000 -0.537909
    33 17.597597 0.000000 0.000000 0.062403 0.093360 0.458196
  time 1
    0 0.157220 3.636981 1.540585 0.000000 0.000000 -1.571017
    1 0.960963 -0.285165 0.000000 -1.570795 -1.570787 0.000000
    2 1.293670 0.684478 -0.000001 0.000266 0.025358 0.010374
    3 5.309685 -0.003834 0.000000 -0.090156 -0.037632 -0.006595
    4 4.826790 -0.004591 0.000000 -0.162094 -0.049832 -0.190377
    5 5.792767 -0.005304 0.000000 -0.250209 -0.074604 -0.064237
    6 6.662322 -0.001452 0.000000 0.000072 0.095988 0.471000
    7 -3.506637 1.516823 4.031023 1.299476 -1.381225 -4.925853
    8 4.827512 0.000000 -0.000002 -1.211143 0.944144 -1.570479
    9 11.140032 0.000000 0.000000 0.000000 0.000000 -1.604380
    10 10.314563 -0.000001 0.000001 -2.951685 0.102852 0.188255
    11 1.646836 0.445664 -1.699647 0.993049 1.047208 -0.378175
    12 0.928312 0.000000 0.000000 0.000000 0.000000 1.029733
    13 0.928313 0.000000 -0.000001 0.000000 0.000000 0.410081
    14 2.979373 -0.388274 -0.044205 -0.270039 -0.127227 0.519437
    15 1.435262 -0.000001 -0.000001 0.000000 0.000000 0.767708
    16 1.482593 -0.000001 0.000001 0.000000 0.000000 0.495031
    17 -2.471449 1.399667 -4.390404 0.619072 1.222807 -3.042416
    18 4.972047 0.000000 0.000000 -1.075542 -0.861718 0.061779
    19 11.585358 0.000000 0.000001 0.000000 0.000000 -2.257123
    20 10.127058 0.000000 0.000001 1.741766 0.475185 0.087790
    21 1.537458 0.109715 1.664489 -3.078535 -0.186288 0.914916
    22 0.928313 0.000000 0.000002 0.000000 0.000000 0.061034
    23 0.928311 0.000000 0.000001 0.000000 0.000000 0.671897
    24 2.686395 -0.427337 0.044204 0.006330 0.043192 0.122300
    25 1.435260 0.000000 0.000001 0.000000 0.000000 1.186618
    26 1.482593 0.000000 -0.000001 0.000000 0.000000 1.404984
    27 2.046984 0.000001 0.000000 0.403170 0.215110 -0.406040
    28 -0.000005 0.000007 3.713254 -0.108206 -3.067598 5.834370
    29 18.045723 0.000000 0.000000 0.000000 0.000000 -0.437229
    30 17.597597 0.000000 0.000000 -0.062346 -0.012021 -0.011838
    31 0.000005 -0.000003 -3.713254 0.557847 3.012710 -0.015293
    32 18.045721 0.000000 0.000000 0.000000 0.000000 -0.537909
    33 17.597597 0.000000 0.000000 0.062336 0.093360 0.458196
  time 2
    0 0.157220 3.636981 1.540585 0.000000 0.000000 -1.571017
    1 0.941431 -0.304697 0.000000 -1.570795 -1.570787 0.000000
    2 1.293670 0.684478 -0.000001 0.000266 0.025358 0.010374
    3 5.309685 -0.003834 0.000000 -0.100111 -0.038495 -0.005765
    4 4.826790 -0.004591 0.000000 -0.171726 -0.051857 -0.188503
    5 5.792767 -0.005304 0.000000 -0.297157 -0.077289 -0.060479
    6 6.662322 -0.001452 0.000000 0.000072 0.095988 0.471000
    7 -3.506637 1.516823 4.031023 1.299476 -1.381225 -4.925853
    8 4.827512 0.000000 -0.000002 -1.173995 0.949089 -1.471611
    9 11.140032 0.000000 0.000000 0.000000 0.000000 -1.702047
    10 10.314563 -0.000001 0.000001 -2.942776 0.118683 0.244287
    11 1.646836 0.445664 -1.699647 0.993049 1.047208 -0.378175
    12 0.928312 0.000000 0.000000 0.000000 0.000000 1.029733
    13 0.928313 0.000000 -0.000001 0.000000 0.000000 0.410081
    14 2.979373 -0.388274 -0.044205 -0.270039 -0.127227 0.519437
    15 1.435262 -0.000001 -0.000001 0.000000 0.000000 0.767708
    16 1.482593 -0.000001 0.000001 0.000000 0.000000 0.495031
    17 -2.471449 1.399667 -4.386497 0.613818 1.223911 -3.047109
    18 4.972047 0.000000 0.000000 -1.030987 -0.920695 -0.042247
    19 11.585358 0.000000 0.000001 0.000000 0.000000 -2.214159
    20 10.127058 0.000000 0.000001 1.737418 0.476698 0.079086
    21 1.537458 0.109715 1.664489 -3.078535 -0.186288 0.914916
    22 0.928313 0.000000 0.000002 0.000000 0.000000 0.061034
    23 0.928311 0.000000 0.000001 0.000000 0.000000 0.671897
    24 2.686395 -0.427337 0.044204 0.006330 0.043192 0.122300
    25 1.435260 0.000000 0.000001 0.000000 0.000000 1.186618
    26 1.482593 0.000000 -0.000001 0.000000 0.000000 1.404984
    27 2.046984 0.000001 0.000000 0.475592 0.221158 -0.390042
    28 -0.000005 0.000007 3.713254 -0.108110 -3.067598 5.834370
    29 18.045723 0.000000 0.000000 0.000000 0.000000 -0.437229
    30 17.597597 0.000000 0.000000 -0.062422 -0.012070 -0.011838
    31 0.000005 -0.000003 -3.713254 0.557943 3.012710 -0.015293
    32 18.045721 0.000000 0.000000 0.000000 0.000000 -0.537909
    33 17.597597 0.000000 0.000000 0.062303 0.093399 0.458196
  time 3
    0 0.157220 3.636981 1.540585 0.000000 0.000000 -1.571017
    1 0.949244 -0.292978 0.000000 -1.570795 -1.570787 0.000000
    2 1.293670 0.684478 -0.000001 0.000266 0.025358 0.010374
    3 5.309685 -0.003834 0.000000 -0.097218 -0.038255 -0.006012
    4 4.826790 -0.004591 0.000000 -0.168903 -0.051258 -0.189054
    5 5.792767 -0.005304 0.000000 -0.283505 -0.076522 -0.061538
    6 6.662322 -0.001452 0.000000 0.000072 0.095988 0.471000
    7 -3.506637 1.516823 4.031023 1.299476 -1.381225 -4.925853
    8 4.827512 0.000000 -0.000002 -1.210984 0.819815 -1.475424
    9 11.140032 0.000000 0.000000 0.000000 0.000000 -1.554242
    10 10.314563 -0.000001 0.000001 -2.970451 0.203175 0.158121
    11 1.646836 0.445664 -1.699647 0.993049 1.047208 -0.378175
    12 0.928312 0.000000 0.000000 0.000000 0.000000 1.029733
    13 0.928313 0.000000 -0.000001 0.000000 0.000000 0.410081
    14 2.979373 -0.388274 -0.044205 -0.270039 -0.127227 0.519437
    15 1.435262 -0.000001 -0.000001 0.000000 0.000000 0.767708
    16 1.482593 -0.000001 0.000001 0.000000 0.000000 0.495031
    17 -2.471449 1.399667 -4.390404 0.574364 1.232061 -3.083027
    18 4.972047 0.000000 0.000000 -0.824818 -1.011490 -0.208302
    19 11.585358 0.000000 0.000001 0.000000 0.000000 -2.118839
    20 10.127058 0.000000 0.000001 1.736016 0.480102 0.078686
    21 1.537458 0.109715 1.664489 -3.078535 -0.186288 0.914916
    22 0.928313 0.000000 0.000002 0.000000 0.000000 0.061034
    23 0.928311 0.000000 0.000001 0.000000 0.000000 0.671897
    24 2.686395 -0.427337 0.044204 0.006330 0.043192 0.122300
    25 1.435260 0.000000 0.000001 0.000000 0.000000 1.186618
    26 1.482593 0.000000 -0.000001 0.000000 0.000000 1.404984
    27 2.046984 0.000001 0.000000 0.468484 0.219506 -0.394787
    28 -0.000005 0.000007 3.713254 -0.108110 -3.067598 5.834370
    29 18.045723 0.000000 0.000000 0.000000 0.000000 -0.437229
    30 17.597597 0.000000 0.000000 -0.062523 -0.012095 -0.011838
    31 0.000005 -0.000003 -3.713254 0.558135 3.012710 -0.015293
    32 18.045721 0.000000 0.000000 0.000000 0.000000 -0.537909
    33 17.597597 0.000000 0.000000 0.062202 0.093399 0.458196
  time 4
    0 0.157220 3.636981 1.540585 0.000000 0.000000 -1.571017
    1 0.960963 -0.285165 0.000000 -1.570795 -1.570787 0.000000
    2 1.293670 0.684478 -0.000001 0.000266 0.025358 0.010374
    3 5.309685 -0.003834 0.000000 -0.090156 -0.037632 -0.006595
    4 4.826790 -0.004591 0.000000 -0.162094 -0.049832 -0.190377
    5 5.792767 -0.005304 0.000000 -0.250209 -0.074604 -0.064237
    6 6.662322 -0.001452 0.000000 0.000072 0.095988 0.471000
    7 -3.506637 1.516823 4.031023 1.299476 -1.381225 -4.925853
    8 4.827512 0.000000 -0.000002 -1.256502 0.677919 -1.522648
    9 11.140032 0.000000 0.000000 0.000000 0.000000 -1.333984
    10 10.314563 -0.000001 0.000001 -2.998694 0.274460 0.032297
    11 1.646836 0.445664 -1.699647 0.993049 1.047208 -0.378175
    12 0.928312 0.000000 0.000000 0.000000 0.000000 1.029733
    13 0.928313 0.000000 -0.000001 0.000000 0.000000 0.410081
    14 2.979373 -0.388274 -0.044205 -0.270039 -0.127227 0.519437
    15 1.435262 -0.000001 -0.000001 0.000000 0.000000 0.767708
    16 1.482593 -0.000001 0.000001 0.000000 0.000000 0.495031
    17 -2.471449 1.399667 -4.390404 0.529177 1.240395 -3.124116
    18 4.972047 0.000000 0.000000 -0.599326 -1.058896 -0.371363
    19 11.585358 0.000000 0.000001 0.000000 0.000000 -2.039609
    20 10.127058 0.000000 0.000001 1.737909 0.482939 0.085439
    21 1.537458 0.109715 1.664489 -3.078535 -0.186288 0.914916
    22 0.928313 0.000000 0.000002 0.000000 0.000000 0.061034
    23 0.928311 0.000000 0.000001 0.000000 0.000000 0.671897
    24 2.686395 -0.427337 0.044204 0.006330 0.043192 0.122300
    25 1.435260 0.000000 0.000001 0.000000 0.000000 1.186618
    26 1.482593 0.000000 -0.000001 0.000000 0.000000 1.404984
    27 2.046984 0.000001 0.000000 0.437507 0.215110 -0.406040
    28 -0.000005 0.000007 3.713254 -0.108015 -3.067598 5.834370
    29 18.045723 0.000000 0.000000 0.000000 0.000000 -0.437229
    30 17.597597 0.000000 0.000000 -0.062650 -0.012095 -0.011838
    31 0.000005 -0.000003 -3.713254 0.558135 3.012710 -0.015293
    32 18.045721 0.000000 0.000000 0.000000 0.000000 -0.537909
    33 17.597597 0.000000 0.000000 0.062168 0.093419 0.458149
  time 5
    0 0.157220 3.636981 1.540585 0.000000 0.000000 -1.571017
    1 0.980495 -0.261727 0.000000 -1.570795 -1.570787 0.000000
    2 1.293670 0.684478 -0.000001 0.000266 0.025358 0.010374
    3 5.309685 -0.003834 0.000000 -0.081495 -0.036853 -0.007266
    4 4.826790 -0.004591 0.000000 -0.153644 -0.047986 -0.191964
    5 5.792767 -0.005304 0.000000 -0.209125 -0.072135 -0.067393
    6 6.662322 -0.001452 0.000000 0.000072 0.095988 0.471000
    7 -3.506637 1.516823 4.031023 1.299476 -1.381225 -4.925853
    8 4.827512 0.000000 -0.000002 -1.283207 0.610297 -1.575852
    9 11.140032 0.000000 0.000000 0.000000 0.000000 -1.150822
    10 10.314563 -0.000001 0.000001 -3.023336 0.296754 -0.074771
    11 1.646836 0.445664 -1.699647 0.993049 1.047208 -0.378175
    12 0.928312 0.000000 0.000000 0.000000 0.000000 1.029733
    13 0.928313 0.000000 -0.000001 0.000000 0.000000 0.410081
    14 2.979373 -0.388274 -0.044205 -0.270039 -0.127227 0.519437
    15 1.435262 -0.000001 -0.000001 0.000000 0.000000 0.767708
    16 1.482593 -0.000001 0.000001 0.000000 0.000000 0.495031
    17 -2.471449 1.399667 -4.390404 0.483990 1.247783 -3.165589
    18 4.972047 0.000000 0.000000 -0.533105 -1.061146 -0.377087
    19 11.585358 0.000000 0.000001 0.000000 0.000000 -2.018209
    20 10.127058 0.000000 0.000001 1.747446 0.483885 0.107748
    21 1.537458 0.109715 1.664489 -3.078535 -0.186288 0.914916
    22 0.928313 0.000000 0.000002 0.000000 0.000000 0.061034
    23 0.928311 0.000000 0.000001 0.000000 0.000000 0.671897
    24 2.686395 -0.427337 0.044204 0.006330 0.043192 0.122300
    25 1.435260 0.000000 0.000001 0.000000 0.000000 1.186618
    26 1.482593 0.000000 -0.000001 0.000000 0.000000 1.404984
    27 2.046984 0.000001 0.000000 0.396578 0.208914 -0.419361
    28 -0.000005 0.000007 3.713254 -0.107919 -3.067694 5.834370
    29 18.045723 0.000000 0.000000 0.000000 0.000000 -0.437229
    30 17.597597 0.000000 0.000000 -0.062777 -0.012144 -0.011838
    31 0.000005 -0.000003 -3.713254 0.558135 3.012710 -0.015293
    32 18.045721 0.000000 0.000000 0.000000 0.000000 -0.537909
    33 17.597597 0.000000 0.000000 0.062101 0.093419 0.458149
  time 6
    0 0.157220 3.636981 1.540585 0.000000 0.000000 -1.571017
    1 0.992214 -0.253914 0.000000 -1.570795 -1.570787 0.000000
    2 1.293670 0.684478 -0.000001 0.000266 0.025358 0.010374
    3 5.309685 -0.003834 0.000000 -0.073616 -0.036146 -0.007902
    4 4.826790 -0.004591 0.000000 -0.145976 -0.046332 -0.193419
    5 5.792767 -0.005304 0.000000 -0.172017 -0.069786 -0.070196
    6 6.662322 -0.001452 0.000000 0.000072 0.095988 0.471000
    7 -3.506637 1.516823 4.031023 1.299476 -1.381225 -4.925853
    8 4.827512 0.000000 -0.000002 -1.298673 0.574056 -1.615624
    9 11.140032 0.000000 0.000000 0.000000 0.000000 -0.999032
    10 10.314563 -0.000001 0.000001 -3.049115 0.302187 -0.161518
    11 1.646836 0.445664 -1.699647 0.993049 1.047208 -0.378175
    12 0.928312 0.000000 0.000000 0.000000 0.000000 1.029733
    13 0.928313 0.000000 -0.000001 0.000000 0.000000 0.410081
    14 2.979373 -0.388274 -0.044205 -0.270039 -0.127227 0.519437
    15 1.435262 -0.000001 -0.000001 0.000000 0.000000 0.767708
    16 1.482593 -0.000001 0.000001 0.000000 0.000000 0.495031
    17 -2.471449 1.399667 -4.390404 0.432117 1.255170 -3.213288
    18 4.972047 0.000000 0.000000 -0.530478 -1.058896 -0.328102
    19 11.585358 0.000000 0.000001 0.000000 0.000000 -2.015269
    20 10.127058 0.000000 0.000001 1.760770 0.483885 0.138212
    21 1.537458 0.109715 1.664489 -3.078535 -0.186288 0.914916
    22 0.928313 0.000000 0.000002 0.000000 0.000000 0.061034
    23 0.928311 0.000000 0.000001 0.000000 0.000000 0.671897
    24 2.686395 -0.427337 0.044204 0.006330 0.043192 0.122300
    25 1.435260 0.000000 0.000001 0.000000 0.000000 1.186618
    26 1.482593 0.000000 -0.000001 0.000000 0.000000 1.404984
    27 2.046984 0.000001 0.000000 0.359312 0.202748 -0.431041
    28 -0.000005 0.000007 3.713254 -0.107631 -3.067694 5.834370
    29 18.045723 0.000000 0.000000 0.000000 0.000000 -0.437229
    30 17.597597 0.000000 0.000000 -0.062878 -0.012169 -0.011838
    31 0.000005 -0.000003 -3.713254 0.558135 3.012615 -0.015293
    32 18.045721 0.000000 0.000000 0.000000 0.000000 -0.537909
    33 17.597597 0.000000 0.000000 0.062068 0.093419 0.458149
end
