version 1
nodes
  0 "Bip01" -1
  1 "Bip01 Pelvis" 0
  2 "Bip01 Spine" 1
  3 "Bip01 Spine1" 2
  4 "Bip01 Spine2" 3
  5 "Bip01 Spine3" 4
  6 "Bip01 Neck" 5
  7 "Bip01 L Arm" 6
  8 "Bip01 L Arm1" 7
  9 "Bip01 L Arm2" 8
  10 "Bip01 L Hand" 9
  11 "Bip01 L Finger0" 10
  12 "Bip01 L Finger01" 11
  13 "Bip01 L Finger02" 12
  14 "Bip01 L Finger1" 10
  15 "Bip01 L Finger11" 14
  16 "Bip01 L Finger12" 15
  17 "Bip01 R Arm" 6
  18 "Bip01 R Arm1" 17
  19 "Bip01 R Arm2" 18
  20 "Bip01 R Hand" 19
  21 "Bip01 R Finger0" 20
  22 "Bip01 R Finger01" 21
  23 "Bip01 R Finger02" 22
  24 "Bip01 R Finger1" 20
  25 "Bip01 R Finger11" 24
  26 "Bip01 R Finger12" 25
  27 "Bip01 Head" 6
  28 "Bip01 L Leg" 1
  29 "Bip01 L Leg1" 28
  30 "Bip01 L Foot" 29
  31 "Bip01 R Leg" 1
  32 "Bip01 R Leg1" 31
  33 "Bip01 R Foot" 32
end
skeleton
  time 0
    0 0.348632 3.426037 0.368674 0.000000 0.000000 -1.571017
    1 0.324225 0.113285 0.000000 -1.570795 -1.570787 0.000000
    2 1.293670 0.684478 -0.000001 -0.056518 -0.017522 -0.005547
    3 5.309685 -0.003834 0.000000 -0.120736 0.048070 -0.090868
    4 4.826790 -0.004591 0.000000 -0.132643 -0.000863 -0.041066
    5 5.792767 -0.005304 0.000000 -0.065188 0.074077 -0.055641
    6 6.662322 -0.001452 0.000000 -0.091910 0.032655 0.231870
    7 -3.518356 0.356631 4.277124 1.692282 -1.064066 -5.091619
    8 4.827512 0.000000 -0.000002 -1.241356 0.086461 -0.821560
    9 11.140032 0.000000 0.000000 0.000000 0.000000 -1.045185
    10 10.314563 -0.000001 0.000001 -3.909684 0.493559 0.099302
    11 1.646836 0.445664 -1.699647 -0.392035 3.352851 -0.875707
    12 0.928312 0.000000 0.000000 0.000000 0.000000 0.593404
    13 0.928313 0.000000 -0.000001 0.000000 0.000000 1.204231
    14 2.979373 -0.388274 -0.044205 -0.025050 -0.035713 0.593829
    15 1.435262 -0.000001 -0.000001 0.000000 0.000000 0.767708
    16 1.482593 -0.000001 0.000001 0.000000 0.000000 0.445026
    17 -2.975371 1.071532 -4.156022 -1.513771 0.739141 -4.851130
    18 4.972047 0.000000 0.000000 1.012320 0.306241 -1.473320
    19 11.585358 0.000000 0.000001 0.000000 0.000000 -0.385919
    20 10.127058 0.000000 0.000001 1.841412 0.337689 0.337798
    21 1.537458 0.109715 1.664489 -3.079588 0.031470 0.928526
    22 0.928313 0.000000 0.000002 0.000000 0.000000 0.061034
    23 0.928311 0.000000 0.000001 0.000000 0.000000 0.671897
    24 2.686395 -0.427337 0.044204 -0.001208 0.043611 -0.052337
    25 1.435260 0.000000 0.000001 0.000000 0.000000 1.186618
    26 1.482593 0.000000 -0.000001 0.000000 0.000000 1.684243
    27 2.046984 0.000001 0.000000 0.327689 0.060630 -0.336574
    28 -0.000005 0.000007 3.713254 -0.099865 -3.047848 5.708602
    29 18.045723 0.000000 0.000000 0.000000 0.000000 -0.413544
    30 17.597597 0.000000 0.000000 -0.057202 -0.016721 -0.162308
    31 0.000005 -0.000003 -3.713254 0.807516 2.831522 6.175187
    32 18.045721 0.000000 0.000000 0.000000 0.000000 -0.782250
    33 17.597597 0.000000 0.000000 0.178760 0.125233 0.485354
  time 1
    0 0.348632 3.426037 0.368674 0.000000 0.000000 -1.571017
    1 0.347663 0.179693 0.000000 -1.570795 -1.570787 0.000000
    2 1.293670 0.684478 -0.000001 -0.056215 -0.017534 -0.005597
    3 5.309685 -0.003834 0.000000 -0.124293 0.047926 -0.091381
    4 4.826790 -0.004591 0.000000 -0.132643 0.009696 -0.042477
    5 5.792767 -0.005304 0.000000 -0.091378 0.106375 -0.058652
    6 6.662322 -0.001452 0.000000 -0.091910 0.032655 0.231870
    7 -3.518356 0.356631 4.277124 1.692282 -1.064066 -5.091619
    8 4.827512 0.000000 -0.000002 -1.248849 0.292823 -0.782047
    9 11.140032 0.000000 0.000000 0.000000 0.000000 -1.394048
    10 10.314563 -0.000001 0.000001 -3.699849 0.373003 -0.046437
    11 1.646836 0.445664 -1.699647 -0.392035 3.352851 -0.875707
    12 0.928312 0.000000 0.000000 0.000000 0.000000 0.593404
    13 0.928313 0.000000 -0.000001 0.000000 0.000000 1.204231
    14 2.979373 -0.388274 -0.044205 -0.025050 -0.035713 0.593829
    15 1.435262 -0.000001 -0.000001 0.000000 0.000000 0.767708
    16 1.482593 -0.000001 0.000001 0.000000 0.000000 0.445026
    17 -2.975371 1.071532 -4.156022 -1.503645 0.811598 -4.844808
    18 4.972047 0.000000 0.000000 0.976958 0.005413 -1.457480
    19 11.585358 0.000000 0.000001 0.000000 0.000000 -0.922638
    20 10.127058 0.000000 0.000001 1.606777 0.447288 0.127857
    21 1.537458 0.109715 1.664489 -3.079588 0.031470 0.928526
    22 0.928313 0.000000 0.000002 0.000000 0.000000 0.061034
    23 0.928311 0.000000 0.000001 0.000000 0.000000 0.671897
    24 2.686395 -0.427337 0.044204 -0.001208 0.043611 -0.052337
    25 1.435260 0.000000 0.000001 0.000000 0.000000 1.186618
    26 1.482593 0.000000 -0.000001 0.000000 0.000000 1.684243
    27 2.046984 0.000001 0.000000 0.359699 0.029887 -0.361635
    28 -0.000005 0.000007 3.713254 -0.100057 -3.049382 5.707452
    29 18.045723 0.000000 0.000000 0.000000 0.000000 -0.417467
    30 17.597597 0.000000 0.000000 -0.057886 -0.015146 -0.159373
    31 0.000005 -0.000003 -3.713254 0.807228 2.829988 6.176145
    32 18.045721 0.000000 0.000000 0.000000 0.000000 -0.781463
    33 17.597597 0.000000 0.000000 0.178861 0.127166 0.483922
  time 2
    0 0.348632 3.426037 0.368674 0.000000 0.000000 -1.571017
    1 0.359382 0.187506 0.000000 -1.570795 -1.570787 0.000000
    2 1.293670 0.684478 -0.000001 -0.055895 -0.017534 -0.005614
    3 5.309685 -0.003834 0.000000 -0.127849 0.047807 -0.091893
    4 4.826790 -0.004591 0.000000 -0.132643 0.016011 -0.043315
    5 5.792767 -0.005304 0.000000 -0.089957 0.104625 -0.058465
    6 6.662322 -0.001452 0.000000 -0.091910 0.032655 0.231870
    7 -3.518356 0.356631 4.277124 1.692282 -1.064066 -5.091619
    8 4.827512 0.000000 -0.000002 -1.246857 0.325824 -0.781181
    9 11.140032 0.000000 0.000000 0.000000 0.000000 -1.412885
    10 10.314563 -0.000001 0.000001 -3.693310 0.361481 -0.064146
    11 1.646836 0.445664 -1.699647 -0.392035 3.352851 -0.875707
    12 0.928312 0.000000 0.000000 0.000000 0.000000 0.593404
    13 0.928313 0.000000 -0.000001 0.000000 0.000000 1.204231
    14 2.979373 -0.388274 -0.044205 -0.025050 -0.035713 0.593829
    15 1.435262 -0.000001 -0.000001 0.000000 0.000000 0.767708
    16 1.482593 -0.000001 0.000001 0.000000 0.000000 0.445026
    17 -2.975371 1.071532 -4.156022 -1.503167 0.815752 -4.844425
    18 4.972047 0.000000 0.000000 0.970861 -0.022227 -1.454352
    19 11.585358 0.000000 0.000001 0.000000 0.000000 -0.943384
    20 10.127058 0.000000 0.000001 1.592402 0.452017 0.114902
    21 1.537458 0.109715 1.664489 -3.079588 0.031470 0.928526
    22 0.928313 0.000000 0.000002 0.000000 0.000000 0.061034
    23 0.928311 0.000000 0.000001 0.000000 0.000000 0.671897
    24 2.686395 -0.427337 0.044204 -0.001208 0.043611 -0.052337
    25 1.435260 0.000000 0.000001 0.000000 0.000000 1.186618
    26 1.482593 0.000000 -0.000001 0.000000 0.000000 1.684243
    27 2.046984 0.000001 0.000000 0.360389 0.034490 -0.384507
    28 -0.000005 0.000007 3.713254 -0.100057 -3.049765 5.707165
    29 18.045723 0.000000 0.000000 0.000000 0.000000 -0.418577
    30 17.597597 0.000000 0.000000 -0.058089 -0.014777 -0.158548
    31 0.000005 -0.000003 -3.713254 0.807228 2.829605 6.176529
    32 18.045721 0.000000 0.000000 0.000000 0.000000 -0.781148
    33 17.597597 0.000000 0.000000 0.178794 0.127679 0.483599
  time 3
    0 0.348632 3.426037 0.368674 0.000000 0.000000 -1.571017
    1 0.355476 0.179693 0.000000 -1.570795 -1.570787 0.000000
    2 1.293670 0.684478 -0.000001 -0.055760 -0.017534 -0.005614
    3 5.309685 -0.003834 0.000000 -0.129449 0.047747 -0.092105
    4 4.826790 -0.004591 0.000000 -0.132643 0.013902 -0.043072
    5 5.792767 -0.005304 0.000000 -0.086197 0.100047 -0.058008
    6 6.662322 -0.001452 0.000000 -0.091910 0.032655 0.231870
    7 -3.518356 0.356631 4.277124 1.692282 -1.064066 -5.091619
    8 4.827512 0.000000 -0.000002 -1.241197 0.325824 -0.782047
    9 11.140032 0.000000 0.000000 0.000000 0.000000 -1.372456
    10 10.314563 -0.000001 0.000001 -3.725249 0.357828 -0.075120
    11 1.646836 0.445664 -1.699647 -0.392035 3.352851 -0.875707
    12 0.928312 0.000000 0.000000 0.000000 0.000000 0.593404
    13 0.928313 0.000000 -0.000001 0.000000 0.000000 1.204231
    14 2.979373 -0.388274 -0.044205 -0.025050 -0.035713 0.593829
    15 1.435262 -0.000001 -0.000001 0.000000 0.000000 0.767708
    16 1.482593 -0.000001 0.000001 0.000000 0.000000 0.445026
    17 -2.975371 1.071532 -4.156022 -1.503740 0.810678 -4.844904
    18 4.972047 0.000000 0.000000 0.976583 -0.011862 -1.453553
    19 11.585358 0.000000 0.000001 0.000000 0.000000 -0.894050
    20 10.127058 0.000000 0.000001 1.610003 0.446248 0.130808
    21 1.537458 0.109715 1.664489 -3.079588 0.031470 0.928526
    22 0.928313 0.000000 0.000002 0.000000 0.000000 0.061034
    23 0.928311 0.000000 0.000001 0.000000 0.000000 0.671897
    24 2.686395 -0.427337 0.044204 -0.001208 0.043611 -0.052337
    25 1.435260 0.000000 0.000001 0.000000 0.000000 1.186618
    26 1.482593 0.000000 -0.000001 0.000000 0.000000 1.684243
    27 2.046984 0.000001 0.000000 0.354702 0.049389 -0.406587
    28 -0.000005 0.000007 3.713254 -0.099961 -3.049478 5.707260
    29 18.045723 0.000000 0.000000 0.000000 0.000000 -0.418133
    30 17.597597 0.000000 0.000000 -0.058013 -0.015073 -0.158823
    31 0.000005 -0.000003 -3.713254 0.807324 2.829892 6.176433
    32 18.045721 0.000000 0.000000 0.000000 0.000000 -0.781148
    33 17.597597 0.000000 0.000000 0.178693 0.127383 0.483876
  time 4
    0 0.348632 3.426037 0.368674 0.000000 0.000000 -1.571017
    1 0.347663 0.164068 0.000000 -1.570795 -1.570787 0.000000
    2 1.293670 0.684478 -0.000001 -0.055810 -0.017534 -0.005614
    3 5.309685 -0.003834 0.000000 -0.125535 0.047878 -0.091575
    4 4.826790 -0.004591 0.000000 -0.132643 0.008964 -0.042389
    5 5.792767 -0.005304 0.000000 -0.081071 0.093708 -0.057344
    6 6.662322 -0.001452 0.000000 -0.091910 0.032655 0.231870
    7 -3.518356 0.356631 4.277124 1.692282 -1.064066 -5.091619
    8 4.827512 0.000000 -0.000002 -1.235856 0.300583 -0.791319
    9 11.140032 0.000000 0.000000 0.000000 0.000000 -1.294569
    10 10.314563 -0.000001 0.000001 -3.773585 0.362699 -0.082494
    11 1.646836 0.445664 -1.699647 -0.392035 3.352851 -0.875707
    12 0.928312 0.000000 0.000000 0.000000 0.000000 0.593404
    13 0.928313 0.000000 -0.000001 0.000000 0.000000 1.204231
    14 2.979373 -0.388274 -0.044205 -0.025050 -0.035713 0.593829
    15 1.435262 -0.000001 -0.000001 0.000000 0.000000 0.767708
    16 1.482593 -0.000001 0.000001 0.000000 0.000000 0.445026
    17 -2.975371 1.071532 -4.156022 -1.505269 0.800556 -4.845862
    18 4.972047 0.000000 0.000000 0.986526 0.023251 -1.449893
    19 11.585358 0.000000 0.000001 0.000000 0.000000 -0.808858
    20 10.127058 0.000000 0.000001 1.644925 0.433671 0.162372
    21 1.537458 0.109715 1.664489 -3.079588 0.031470 0.928526
    22 0.928313 0.000000 0.000002 0.000000 0.000000 0.061034
    23 0.928311 0.000000 0.000001 0.000000 0.000000 0.671897
    24 2.686395 -0.427337 0.044204 -0.001208 0.043611 -0.052337
    25 1.435260 0.000000 0.000001 0.000000 0.000000 1.186618
    26 1.482593 0.000000 -0.000001 0.000000 0.000000 1.684243
    27 2.046984 0.000001 0.000000 0.346344 0.050392 -0.383777
    28 -0.000005 0.000007 3.713254 -0.099865 -3.048998 5.707740
    29 18.045723 0.000000 0.000000 0.000000 0.000000 -0.416653
    30 17.597597 0.000000 0.000000 -0.057861 -0.015589 -0.159923
    31 0.000005 -0.000003 -3.713254 0.807612 2.830276 6.176145
    32 18.045721 0.000000 0.000000 0.000000 0.000000 -0.781620
    33 17.597597 0.000000 0.000000 0.178525 0.126752 0.484246
  time 5
    0 0.348632 3.426037 0.368674 0.000000 0.000000 -1.571017
    1 0.328131 0.136723 0.000000 -1.570795 -1.570787 0.000000
    2 1.293670 0.684478 -0.000001 -0.055962 -0.017534 -0.005614
    3 5.309685 -0.003834 0.000000 -0.120736 0.048070 -0.090868
    4 4.826790 -0.004591 0.000000 -0.132643 0.003356 -0.041639
    5 5.792767 -0.005304 0.000000 -0.075279 0.086565 -0.056721
    6 6.662322 -0.001452 0.000000 -0.091910 0.032655 0.231870
    7 -3.518356 0.356631 4.277124 1.692282 -1.064066 -5.091619
    8 4.827512 0.000000 -0.000002 -1.230674 0.259908 -0.803797
    9 11.140032 0.000000 0.000000 0.000000 0.000000 -1.213349
    10 10.314563 -0.000001 0.000001 -3.817656 0.376281 -0.078952
    11 1.646836 0.445664 -1.699647 -0.392035 3.352851 -0.875707
    12 0.928312 0.000000 0.000000 0.000000 0.000000 0.593404
    13 0.928313 0.000000 -0.000001 0.000000 0.000000 1.204231
    14 2.979373 -0.388274 -0.044205 -0.025050 -0.035713 0.593829
    15 1.435262 -0.000001 -0.000001 0.000000 0.000000 0.767708
    16 1.482593 -0.000001 0.000001 0.000000 0.000000 0.445026
    17 -2.975371 1.071532 -4.156022 -1.506989 0.789330 -4.846819
    18 4.972047 0.000000 0.000000 0.997969 0.069291 -1.446232
    19 11.585358 0.000000 0.000001 0.000000 0.000000 -0.721705
    20 10.127058 0.000000 0.000001 1.682581 0.418446 0.196337
    21 1.537458 0.109715 1.664489 -3.079588 0.031470 0.928526
    22 0.928313 0.000000 0.000002 0.000000 0.000000 0.061034
    23 0.928311 0.000000 0.000001 0.000000 0.000000 0.671897
    24 2.686395 -0.427337 0.044204 -0.001208 0.043611 -0.052337
    25 1.435260 0.000000 0.000001 0.000000 0.000000 1.186618
    26 1.482593 0.000000 -0.000001 0.000000 0.000000 1.684243
    27 2.046984 0.000001 0.000000 0.336650 0.053077 -0.361027
    28 -0.000005 0.000007 3.713254 -0.099769 -3.048519 5.708123
    29 18.045723 0.000000 0.000000 0.000000 0.000000 -0.415024
    30 17.597597 0.000000 0.000000 -0.057658 -0.016131 -0.161207
    31 0.000005 -0.000003 -3.713254 0.807804 2.830755 6.175666
    32 18.045721 0.000000 0.000000 0.000000 0.000000 -0.782014
    33 17.597597 0.000000 0.000000 0.178357 0.126022 0.484661
  time 6
    0 0.348632 3.426037 0.368674 0.000000 0.000000 -1.571017
    1 0.324225 0.113285 0.000000 -1.570795 -1.570787 0.000000
    2 1.293670 0.684478 -0.000001 -0.056130 -0.017534 -0.005597
    3 5.309685 -0.003834 0.000000 -0.119970 0.048106 -0.090762
    4 4.826790 -0.004591 0.000000 -0.132643 -0.000863 -0.041066
    5 5.792767 -0.005304 0.000000 -0.069684 0.079674 -0.056119
    6 6.662322 -0.001452 0.000000 -0.091910 0.032655 0.231870
    7 -3.518356 0.356631 4.277124 1.692282 -1.064066 -5.091619
    8 4.827512 0.000000 -0.000002 -1.228920 0.202859 -0.812115
    9 11.140032 0.000000 0.000000 0.000000 0.000000 -1.143431
    10 10.314563 -0.000001 0.000001 -3.855188 0.404570 -0.045740
    11 1.646836 0.445664 -1.699647 -0.392035 3.352851 -0.875707
    12 0.928312 0.000000 0.000000 0.000000 0.000000 0.593404
    13 0.928313 0.000000 -0.000001 0.000000 0.000000 1.204231
    14 2.979373 -0.388274 -0.044205 -0.025050 -0.035713 0.593829
    15 1.435262 -0.000001 -0.000001 0.000000 0.000000 0.767708
    16 1.482593 -0.000001 0.000001 0.000000 0.000000 0.445026
    17 -2.975371 1.071532 -4.156022 -1.508804 0.775422 -4.848160
    18 4.972047 0.000000 0.000000 1.009131 0.135177 -1.449360
    19 11.585358 0.000000 0.000001 0.000000 0.000000 -0.625405
    20 10.127058 0.000000 0.000001 1.728302 0.398304 0.237304
    21 1.537458 0.109715 1.664489 -3.079588 0.031470 0.928526
    22 0.928313 0.000000 0.000002 0.000000 0.000000 0.061034
    23 0.928311 0.000000 0.000001 0.000000 0.000000 0.671897
    24 2.686395 -0.427337 0.044204 -0.001208 0.043611 -0.052337
    25 1.435260 0.000000 0.000001 0.000000 0.000000 1.186618
    26 1.482593 0.000000 -0.000001 0.000000 0.000000 1.684243
    27 2.046984 0.000001 0.000000 0.331566 0.055260 -0.336999
    28 -0.000005 0.000007 3.713254 -0.099674 -3.048040 5.708507
    29 18.045723 0.000000 0.000000 0.000000 0.000000 -0.413840
    30 17.597597 0.000000 0.000000 -0.057506 -0.016648 -0.162124
    31 0.000005 -0.000003 -3.713254 0.808091 2.831234 6.175474
    32 18.045721 0.000000 0.000000 0.000000 0.000000 -0.782250
    33 17.597597 0.000000 0.000000 0.178223 0.125470 0.485077
  time 7
    0 0.348632 3.426037 0.368674 0.000000 0.000000 -1.571017
    1 0.324225 0.113285 0.000000 -1.570795 -1.570787 0.000000
    2 1.293670 0.684478 -0.000001 -0.056333 -0.017534 -0.005547
    3 5.309685 -0.003834 0.000000 -0.120379 0.048082 -0.090815
    4 4.826790 -0.004591 0.000000 -0.132643 -0.001558 -0.041000
    5 5.792767 -0.005304 0.000000 -0.065188 0.074077 -0.055641
    6 6.662322 -0.001452 0.000000 -0.091910 0.032655 0.231870
    7 -3.518356 0.356631 4.277124 1.692282 -1.064066 -5.091619
    8 4.827512 0.000000 -0.000002 -1.233065 0.135920 -0.819394
    9 11.140032 0.000000 0.000000 0.000000 0.000000 -1.079745
    10 10.314563 -0.000001 0.000001 -3.887886 0.448128 0.017840
    11 1.646836 0.445664 -1.699647 -0.392035 3.352851 -0.875707
    12 0.928312 0.000000 0.000000 0.000000 0.000000 0.593404
    13 0.928313 0.000000 -0.000001 0.000000 0.000000 1.204231
    14 2.979373 -0.388274 -0.044205 -0.025050 -0.035713 0.593829
    15 1.435262 -0.000001 -0.000001 0.000000 0.000000 0.767708
    16 1.482593 -0.000001 0.000001 0.000000 0.000000 0.445026
    17 -2.975371 1.071532 -4.156022 -1.511287 0.757308 -4.849693
    18 4.972047 0.000000 0.000000 1.015134 0.222839 -1.458478
    19 11.585358 0.000000 0.000001 0.000000 0.000000 -0.505499
    20 10.127058 0.000000 0.000001 1.786014 0.369273 0.288776
    21 1.537458 0.109715 1.664489 -3.079588 0.031470 0.928526
    22 0.928313 0.000000 0.000002 0.000000 0.000000 0.061034
    23 0.928311 0.000000 0.000001 0.000000 0.000000 0.671897
    24 2.686395 -0.427337 0.044204 -0.001208 0.043611 -0.052337
    25 1.435260 0.000000 0.000001 0.000000 0.000000 1.186618
    26 1.482593 0.000000 -0.000001 0.000000 0.000000 1.684243
    27 2.046984 0.000001 0.000000 0.326956 0.061220 -0.336634
    28 -0.000005 0.000007 3.713254 -0.099482 -3.047848 5.708698
    29 18.045723 0.000000 0.000000 0.000000 0.000000 -0.413396
    30 17.597597 0.000000 0.000000 -0.057506 -0.016918 -0.162445
    31 0.000005 -0.000003 -3.713254 0.808187 2.831426 6.175378
    32 18.045721 0.000000 0.000000 0.000000 0.000000 -0.782250
    33 17.597597 0.000000 0.000000 0.178089 0.125233 0.485216
  time 8
    0 0.348632 3.426037 0.368674 0.000000 0.000000 -1.571017
    1 0.324225 0.113285 0.000000 -1.570795 -1.570787 0.000000
    2 1.293670 0.684478 -0.000001 -0.056518 -0.017522 -0.005547
    3 5.309685 -0.003834 0.000000 -0.120736 0.048070 -0.090868
    4 4.826790 -0.004591 0.000000 -0.132643 -0.000863 -0.041066
    5 5.792767 -0.005304 0.000000 -0.065188 0.074077 -0.055641
    6 6.662322 -0.001452 0.000000 -0.091910 0.032655 0.231870
    7 -3.518356 0.356631 4.277124 1.692282 -1.064066 -5.091619
    8 4.827512 0.000000 -0.000002 -1.241356 0.086461 -0.821560
    9 11.140032 0.000000 0.000000 0.000000 0.000000 -1.045185
    10 10.314563 -0.000001 0.000001 -3.909684 0.493559 0.099302
    11 1.646836 0.445664 -1.699647 -0.392035 3.352851 -0.875707
    12 0.928312 0.000000 0.000000 0.000000 0.000000 0.593404
    13 0.928313 0.000000 -0.000001 0.000000 0.000000 1.204231
    14 2.979373 -0.388274 -0.044205 -0.025050 -0.035713 0.593829
    15 1.435262 -0.000001 -0.000001 0.000000 0.000000 0.767708
    16 1.482593 -0.000001 0.000001 0.000000 0.000000 0.445026
    17 -2.975371 1.071532 -4.156022 -1.513771 0.739141 -4.851130
    18 4.972047 0.000000 0.000000 1.012320 0.306241 -1.473320
    19 11.585358 0.000000 0.000001 0.000000 0.000000 -0.385919
    20 10.127058 0.000000 0.000001 1.841412 0.337689 0.337798
    21 1.537458 0.109715 1.664489 -3.079588 0.031470 0.928526
    22 0.928313 0.000000 0.000002 0.000000 0.000000 0.061034
    23 0.928311 0.000000 0.000001 0.000000 0.000000 0.671897
    24 2.686395 -0.427337 0.044204 -0.001208 0.043611 -0.052337
    25 1.435260 0.000000 0.000001 0.000000 0.000000 1.186618
    26 1.482593 0.000000 -0.000001 0.000000 0.000000 1.684243
    27 2.046984 0.000001 0.000000 0.327689 0.060630 -0.336574
    28 -0.000005 0.000007 3.713254 -0.099482 -3.047944 5.708602
    29 18.045723 0.000000 0.000000 0.000000 0.000000 -0.413544
    30 17.597597 0.000000 0.000000 -0.057557 -0.016869 -0.162308
    31 0.000005 -0.000003 -3.713254 0.808187 2.831330 6.175378
    32 18.045721 0.000000 0.000000 0.000000 0.000000 -0.782250
    33 17.597597 0.000000 0.000000 0.178022 0.125312 0.485216
end
