version 1
nodes
  0 "Bip01" -1
  1 "Bip01 Pelvis" 0
  2 "Bip01 Spine" 1
  3 "Bip01 Spine1" 2
  4 "Bip01 Spine2" 3
  5 "Bip01 Spine3" 4
  6 "Bip01 Neck" 5
  7 "Bip01 L Arm" 6
  8 "Bip01 L Arm1" 7
  9 "Bip01 L Arm2" 8
  10 "Bip01 L Hand" 9
  11 "Bip01 L Finger0" 10
  12 "Bip01 L Finger01" 11
  13 "Bip01 L Finger02" 12
  14 "Bip01 L Finger1" 10
  15 "Bip01 L Finger11" 14
  16 "Bip01 L Finger12" 15
  17 "Bip01 R Arm" 6
  18 "Bip01 R Arm1" 17
  19 "Bip01 R Arm2" 18
  20 "Bip01 R Hand" 19
  21 "Bip01 R Finger0" 20
  22 "Bip01 R Finger01" 21
  23 "Bip01 R Finger02" 22
  24 "Bip01 R Finger1" 20
  25 "Bip01 R Finger11" 24
  26 "Bip01 R Finger12" 25
  27 "Bip01 Head" 6
  28 "Bip01 L Leg" 1
  29 "Bip01 L Leg1" 28
  30 "Bip01 L Foot" 29
  31 "Bip01 R Leg" 1
  32 "Bip01 R Leg1" 31
  33 "Bip01 R Foot" 32
end
skeleton
  time 0
    0 0.438479 2.261939 0.368674 0.000000 0.000000 -1.571017
    1 -0.828154 0.007813 0.000000 -1.570795 -1.570787 0.000000
    2 1.293670 0.684478 -0.000001 -0.008628 -0.002146 0.012433
    3 5.309685 -0.003834 0.000000 -0.010772 -0.028463 0.079904
    4 4.826790 -0.004591 0.000000 -0.079101 0.045889 0.167290
    5 5.792767 -0.005304 0.000000 -0.250353 0.014969 0.122836
    6 6.662322 -0.001452 0.000000 -0.016179 0.004411 0.589853
    7 -2.928495 1.801988 4.351345 1.009329 -1.216554 -4.710550
    8 4.827512 0.000000 -0.000002 0.582647 0.403679 -1.567273
    9 11.140032 0.000000 0.000000 0.000000 0.000000 -1.013233
    10 10.314563 -0.000001 0.000001 -1.986010 -0.357079 0.237841
    11 1.646836 0.445664 -1.699647 -0.161704 0.581044 -0.283978
    12 0.928312 0.000000 0.000000 0.000000 0.000000 0.000000
    13 0.928313 0.000000 -0.000001 0.000000 0.000000 0.000000
    14 2.979373 -0.388274 -0.044205 -0.041673 -0.012835 1.254620
    15 1.435262 -0.000001 -0.000001 0.000000 0.000000 0.872146
    16 1.482593 -0.000001 0.000001 0.000000 0.000000 0.907041
    17 -2.670674 1.786398 -4.128677 -1.190396 1.722746 -4.917793
    18 4.972047 0.000000 0.000000 -1.291278 -0.697725 0.418183
    19 11.585358 0.000000 0.000001 0.000000 0.000000 -2.315769
    20 10.127058 0.000000 0.000001 2.022472 0.337878 0.382467
    21 1.537458 0.109715 1.664489 -0.264662 -0.055995 0.783079
    22 0.928313 0.000000 0.000002 0.000000 0.000000 -0.453501
    23 0.928311 0.000000 0.000001 0.000000 0.000000 0.000000
    24 2.686395 -0.427337 0.044204 0.035177 0.025790 0.915446
    25 1.435260 0.000000 0.000001 0.000000 0.000000 1.335014
    26 1.482593 0.000000 -0.000001 0.000000 0.000000 1.168644
    27 2.046984 0.000001 0.000000 0.308948 -0.185518 -0.174708
    28 -0.000005 0.000007 3.713254 -0.099865 -3.047848 5.708602
    29 18.045723 0.000000 0.000000 0.000000 0.000000 -0.413544
    30 17.597597 0.000000 0.000000 -0.057202 -0.016721 -0.162308
    31 0.000005 -0.000003 -3.713254 0.807324 2.831618 6.175091
    32 18.045721 0.000000 0.000000 0.000000 0.000000 -0.782250
    33 17.597597 0.000000 0.000000 0.178995 0.125233 0.485354
  time 1
    0 0.438479 2.261939 0.368674 0.000000 0.000000 -1.571017
    1 -0.828154 0.007813 0.000000 -1.570795 -1.570787 0.000000
    2 1.293670 0.684478 -0.000001 -0.008628 -0.002146 0.012433
    3 5.309685 -0.003834 0.000000 -0.010772 -0.028463 0.079904
    4 4.826790 -0.004591 0.000000 -0.090756 0.045901 0.167290
    5 5.792767 -0.005304 0.000000 -0.261668 0.014981 0.122836
    6 6.662322 -0.001452 0.000000 -0.016179 0.004411 0.589853
    7 -2.928495 1.801988 4.351345 1.009329 -1.216554 -4.710550
    8 4.827512 0.000000 -0.000002 0.554109 0.438300 -1.612765
    9 11.140032 0.000000 0.000000 0.000000 0.000000 -1.087208
    10 10.314563 -0.000001 0.000001 -1.979470 -0.387335 0.395193
    11 1.646836 0.445664 -1.699647 -0.161704 0.581044 -0.283978
    12 0.928312 0.000000 0.000000 0.000000 0.000000 0.000000
    13 0.928313 0.000000 -0.000001 0.000000 0.000000 0.000000
    14 2.979373 -0.388274 -0.044205 -0.041673 -0.012835 1.254620
    15 1.435262 -0.000001 -0.000001 0.000000 0.000000 0.872146
    16 1.482593 -0.000001 0.000001 0.000000 0.000000 0.907041
    17 -2.670674 1.786398 -4.128677 -1.275801 1.763916 -5.001792
    18 4.972047 0.000000 0.000000 -1.364347 -0.533732 0.422842
    19 11.585358 0.000000 0.000001 0.000000 0.000000 -2.323610
    20 10.127058 0.000000 0.000001 1.953120 0.369084 0.193635
    21 1.537458 0.109715 1.664489 -0.264662 -0.055995 0.783079
    22 0.928313 0.000000 0.000002 0.000000 0.000000 -0.453501
    23 0.928311 0.000000 0.000001 0.000000 0.000000 0.000000
    24 2.686395 -0.427337 0.044204 0.035177 0.025790 0.915446
    25 1.435260 0.000000 0.000001 0.000000 0.000000 1.335014
    26 1.482593 0.000000 -0.000001 0.000000 0.000000 1.168644
    27 2.046984 0.000001 0.000000 0.309680 -0.195962 -0.178966
    28 -0.000005 0.000007 3.713254 -0.099865 -3.047944 5.708602
    29 18.045723 0.000000 0.000000 0.000000 0.000000 -0.413618
    30 17.597597 0.000000 0.000000 -0.057202 -0.016697 -0.162308
    31 0.000005 -0.000003 -3.713254 0.807324 2.831618 6.175187
    32 18.045721 0.000000 0.000000 0.000000 0.000000 -0.782250
    33 17.597597 0.000000 0.000000 0.178995 0.125253 0.485354
  time 2
    0 0.438479 2.261939 0.368674 0.000000 0.000000 -1.571017
    1 -0.828154 0.007813 0.000000 -1.570795 -1.570787 0.000000
    2 1.293670 0.684478 -0.000001 -0.008628 -0.002146 0.012433
    3 5.309685 -0.003834 0.000000 -0.010772 -0.028463 0.079904
    4 4.826790 -0.004591 0.000000 -0.097737 0.045901 0.167290
    5 5.792767 -0.005304 0.000000 -0.268431 0.014981 0.122836
    6 6.662322 -0.001452 0.000000 -0.016179 0.004411 0.589853
    7 -2.928495 1.801988 4.351345 1.009329 -1.216554 -4.710550
    8 4.827512 0.000000 -0.000002 0.556261 0.425083 -1.588589
    9 11.140032 0.000000 0.000000 0.000000 0.000000 -1.119522
    10 10.314563 -0.000001 0.000001 -1.971319 -0.383681 0.416502
    11 1.646836 0.445664 -1.699647 -0.161704 0.581044 -0.283978
    12 0.928312 0.000000 0.000000 0.000000 0.000000 0.000000
    13 0.928313 0.000000 -0.000001 0.000000 0.000000 0.000000
    14 2.979373 -0.388274 -0.044205 -0.041673 -0.012835 1.254620
    15 1.435262 -0.000001 -0.000001 0.000000 0.000000 0.872146
    16 1.482593 -0.000001 0.000001 0.000000 0.000000 0.907041
    17 -2.670674 1.786398 -4.128677 -1.266917 1.758474 -4.993076
    18 4.972047 0.000000 0.000000 -1.353373 -0.543133 0.408067
    19 11.585358 0.000000 0.000001 0.000000 0.000000 -2.328184
    20 10.127058 0.000000 0.000001 1.955784 0.368233 0.200688
    21 1.537458 0.109715 1.664489 -0.264662 -0.055995 0.783079
    22 0.928313 0.000000 0.000002 0.000000 0.000000 -0.453501
    23 0.928311 0.000000 0.000001 0.000000 0.000000 0.000000
    24 2.686395 -0.427337 0.044204 0.035177 0.025790 0.915446
    25 1.435260 0.000000 0.000001 0.000000 0.000000 1.335014
    26 1.482593 0.000000 -0.000001 0.000000 0.000000 1.168644
    27 2.046984 0.000001 0.000000 0.324888 -0.202217 -0.181765
    28 -0.000005 0.000007 3.713254 -0.099865 -3.047944 5.708602
    29 18.045723 0.000000 0.000000 0.000000 0.000000 -0.413618
    30 17.597597 0.000000 0.000000 -0.057202 -0.016648 -0.162262
    31 0.000005 -0.000003 -3.713254 0.807228 2.831522 6.175187
    32 18.045721 0.000000 0.000000 0.000000 0.000000 -0.782250
    33 17.597597 0.000000 0.000000 0.178995 0.125292 0.485308
  time 3
    0 0.438479 2.261939 0.368674 0.000000 0.000000 -1.571017
    1 -0.828154 0.007813 0.000000 -1.570795 -1.570787 0.000000
    2 1.293670 0.684478 -0.000001 -0.008628 -0.002146 0.012433
    3 5.309685 -0.003834 0.000000 -0.010772 -0.028463 0.079904
    4 4.826790 -0.004591 0.000000 -0.096745 0.045901 0.167290
    5 5.792767 -0.005304 0.000000 -0.267496 0.014981 0.122836
    6 6.662322 -0.001452 0.000000 -0.016179 0.004411 0.589853
    7 -2.928495 1.801988 4.351345 1.009329 -1.216554 -4.710550
    8 4.827512 0.000000 -0.000002 0.560008 0.403850 -1.569440
    9 11.140032 0.000000 0.000000 0.000000 0.000000 -1.123652
    10 10.314563 -0.000001 0.000001 -1.963074 -0.370380 0.395483
    11 1.646836 0.445664 -1.699647 -0.161704 0.581044 -0.283978
    12 0.928312 0.000000 0.000000 0.000000 0.000000 0.000000
    13 0.928313 0.000000 -0.000001 0.000000 0.000000 0.000000
    14 2.979373 -0.388274 -0.044205 -0.041673 -0.012835 1.254620
    15 1.435262 -0.000001 -0.000001 0.000000 0.000000 0.872146
    16 1.482593 -0.000001 0.000001 0.000000 0.000000 0.907041
    17 -2.670674 1.786398 -4.128677 -1.244085 1.746118 -4.970663
    18 4.972047 0.000000 0.000000 -1.331987 -0.577683 0.406270
    19 11.585358 0.000000 0.000001 0.000000 0.000000 -2.332595
    20 10.127058 0.000000 0.000001 1.969108 0.363315 0.235954
    21 1.537458 0.109715 1.664489 -0.264662 -0.055995 0.783079
    22 0.928313 0.000000 0.000002 0.000000 0.000000 -0.453501
    23 0.928311 0.000000 0.000001 0.000000 0.000000 0.000000
    24 2.686395 -0.427337 0.044204 0.035177 0.025790 0.915446
    25 1.435260 0.000000 0.000001 0.000000 0.000000 1.335014
    26 1.482593 0.000000 -0.000001 0.000000 0.000000 1.168644
    27 2.046984 0.000001 0.000000 0.326138 -0.201391 -0.181400
    28 -0.000005 0.000007 3.713254 -0.099865 -3.047944 5.708602
    29 18.045723 0.000000 0.000000 0.000000 0.000000 -0.413618
    30 17.597597 0.000000 0.000000 -0.057202 -0.016648 -0.162262
    31 0.000005 -0.000003 -3.713254 0.807228 2.831522 6.175187
    32 18.045721 0.000000 0.000000 0.000000 0.000000 -0.782250
    33 17.597597 0.000000 0.000000 0.178995 0.125292 0.485308
  time 4
    0 0.438479 2.261939 0.368674 0.000000 0.000000 -1.571017
    1 -0.828154 0.007813 0.000000 -1.570795 -1.570787 0.000000
    2 1.293670 0.684478 -0.000001 -0.008628 -0.002146 0.012433
    3 5.309685 -0.003834 0.000000 -0.010772 -0.028463 0.079904
    4 4.826790 -0.004591 0.000000 -0.094246 0.045901 0.167290
    5 5.792767 -0.005304 0.000000 -0.265049 0.014981 0.122836
    6 6.662322 -0.001452 0.000000 -0.016179 0.004411 0.589853
    7 -2.928495 1.801988 4.351345 1.009329 -1.216554 -4.710550
    8 4.827512 0.000000 -0.000002 0.564631 0.382616 -1.552023
    9 11.140032 0.000000 0.000000 0.000000 0.000000 -1.118652
    10 10.314563 -0.000001 0.000001 -1.957577 -0.355673 0.362794
    11 1.646836 0.445664 -1.699647 -0.161704 0.581044 -0.283978
    12 0.928312 0.000000 0.000000 0.000000 0.000000 0.000000
    13 0.928313 0.000000 -0.000001 0.000000 0.000000 0.000000
    14 2.979373 -0.388274 -0.044205 -0.041673 -0.012835 1.254620
    15 1.435262 -0.000001 -0.000001 0.000000 0.000000 0.872146
    16 1.482593 -0.000001 0.000001 0.000000 0.000000 0.907041
    17 -2.670674 1.786398 -4.128677 -1.214375 1.732368 -4.941642
    18 4.972047 0.000000 0.000000 -1.306943 -0.620027 0.404539
    19 11.585358 0.000000 0.000001 0.000000 0.000000 -2.335780
    20 10.127058 0.000000 0.000001 1.985868 0.356318 0.281123
    21 1.537458 0.109715 1.664489 -0.264662 -0.055995 0.783079
    22 0.928313 0.000000 0.000002 0.000000 0.000000 -0.453501
    23 0.928311 0.000000 0.000001 0.000000 0.000000 0.000000
    24 2.686395 -0.427337 0.044204 0.035177 0.025790 0.915446
    25 1.435260 0.000000 0.000001 0.000000 0.000000 1.335014
    26 1.482593 0.000000 -0.000001 0.000000 0.000000 1.168644
    27 2.046984 0.000001 0.000000 0.324501 -0.199178 -0.180305
    28 -0.000005 0.000007 3.713254 -0.099865 -3.047944 5.708602
    29 18.045723 0.000000 0.000000 0.000000 0.000000 -0.413618
    30 17.597597 0.000000 0.000000 -0.057202 -0.016697 -0.162262
    31 0.000005 -0.000003 -3.713254 0.807324 2.831618 6.175187
    32 18.045721 0.000000 0.000000 0.000000 0.000000 -0.782250
    33 17.597597 0.000000 0.000000 0.178995 0.125292 0.485308
  time 5
    0 0.438479 2.261939 0.368674 0.000000 0.000000 -1.571017
    1 -0.828154 0.007813 0.000000 -1.570795 -1.570787 0.000000
    2 1.293670 0.684478 -0.000001 -0.008628 -0.002146 0.012433
    3 5.309685 -0.003834 0.000000 -0.010772 -0.028463 0.079904
    4 4.826790 -0.004591 0.000000 -0.090756 0.045901 0.167290
    5 5.792767 -0.005304 0.000000 -0.261668 0.014981 0.122836
    6 6.662322 -0.001452 0.000000 -0.016179 0.004411 0.589853
    7 -2.928495 1.801988 4.351345 1.009329 -1.216554 -4.710550
    8 4.827512 0.000000 -0.000002 0.568378 0.369911 -1.544138
    9 11.140032 0.000000 0.000000 0.000000 0.000000 -1.104814
    10 10.314563 -0.000001 0.000001 -1.956724 -0.345463 0.329930
    11 1.646836 0.445664 -1.699647 -0.161704 0.581044 -0.283978
    12 0.928312 0.000000 0.000000 0.000000 0.000000 0.000000
    13 0.928313 0.000000 -0.000001 0.000000 0.000000 0.000000
    14 2.979373 -0.388274 -0.044205 -0.041673 -0.012835 1.254620
    15 1.435262 -0.000001 -0.000001 0.000000 0.000000 0.872146
    16 1.482593 -0.000001 0.000001 0.000000 0.000000 0.907041
    17 -2.670674 1.786398 -4.128677 -1.190396 1.722746 -4.917793
    18 4.972047 0.000000 0.000000 -1.288558 -0.653212 0.405072
    19 11.585358 0.000000 0.000001 0.000000 0.000000 -2.336352
    20 10.127058 0.000000 0.000001 1.999401 0.350076 0.318039
    21 1.537458 0.109715 1.664489 -0.264662 -0.055995 0.783079
    22 0.928313 0.000000 0.000002 0.000000 0.000000 -0.453501
    23 0.928311 0.000000 0.000001 0.000000 0.000000 0.000000
    24 2.686395 -0.427337 0.044204 0.035177 0.025790 0.915446
    25 1.435260 0.000000 0.000001 0.000000 0.000000 1.335014
    26 1.482593 0.000000 -0.000001 0.000000 0.000000 1.168644
    27 2.046984 0.000001 0.000000 0.321054 -0.195962 -0.178966
    28 -0.000005 0.000007 3.713254 -0.099865 -3.047944 5.708602
    29 18.045723 0.000000 0.000000 0.000000 0.000000 -0.413618
    30 17.597597 0.000000 0.000000 -0.057202 -0.016697 -0.162308
    31 0.000005 -0.000003 -3.713254 0.807324 2.831618 6.175187
    32 18.045721 0.000000 0.000000 0.000000 0.000000 -0.782250
    33 17.597597 0.000000 0.000000 0.178995 0.125253 0.485354
  time 6
    0 0.438479 2.261939 0.368674 0.000000 0.000000 -1.571017
    1 -0.828154 0.007813 0.000000 -1.570795 -1.570787 0.000000
    2 1.293670 0.684478 -0.000001 -0.008628 -0.002146 0.012433
    3 5.309685 -0.003834 0.000000 -0.010772 -0.028463 0.079904
    4 4.826790 -0.004591 0.000000 -0.086712 0.045889 0.167290
    5 5.792767 -0.005304 0.000000 -0.257692 0.014981 0.122836
    6 6.662322 -0.001452 0.000000 -0.016179 0.004411 0.589853
    7 -2.928495 1.801988 4.351345 1.009329 -1.216554 -4.710550
    8 4.827512 0.000000 -0.000002 0.572444 0.373918 -1.548297
    9 11.140032 0.000000 0.000000 0.000000 0.000000 -1.079310
    10 10.314563 -0.000001 0.000001 -1.963168 -0.344901 0.299331
    11 1.646836 0.445664 -1.699647 -0.161704 0.581044 -0.283978
    12 0.928312 0.000000 0.000000 0.000000 0.000000 0.000000
    13 0.928313 0.000000 -0.000001 0.000000 0.000000 0.000000
    14 2.979373 -0.388274 -0.044205 -0.041673 -0.012835 1.254620
    15 1.435262 -0.000001 -0.000001 0.000000 0.000000 0.872146
    16 1.482593 -0.000001 0.000001 0.000000 0.000000 0.907041
    17 -2.670674 1.786398 -4.128677 -1.183327 1.720195 -4.910896
    18 4.972047 0.000000 0.000000 -1.284149 -0.671772 0.409065
    19 11.585358 0.000000 0.000001 0.000000 0.000000 -2.331942
    20 10.127058 0.000000 0.000001 2.008027 0.345726 0.341899
    21 1.537458 0.109715 1.664489 -0.264662 -0.055995 0.783079
    22 0.928313 0.000000 0.000002 0.000000 0.000000 -0.453501
    23 0.928311 0.000000 0.000001 0.000000 0.000000 0.000000
    24 2.686395 -0.427337 0.044204 0.035177 0.025790 0.915446
    25 1.435260 0.000000 0.000001 0.000000 0.000000 1.335014
    26 1.482593 0.000000 -0.000001 0.000000 0.000000 1.168644
    27 2.046984 0.000001 0.000000 0.316703 -0.192333 -0.177507
    28 -0.000005 0.000007 3.713254 -0.099865 -3.047848 5.708602
    29 18.045723 0.000000 0.000000 0.000000 0.000000 -0.413544
    30 17.597597 0.000000 0.000000 -0.057202 -0.016697 -0.162308
    31 0.000005 -0.000003 -3.713254 0.807324 2.831618 6.175187
    32 18.045721 0.000000 0.000000 0.000000 0.000000 -0.782250
    33 17.597597 0.000000 0.000000 0.178995 0.125233 0.485354
  time 7
    0 0.438479 2.261939 0.368674 0.000000 0.000000 -1.571017
    1 -0.828154 0.007813 0.000000 -1.570795 -1.570787 0.000000
    2 1.293670 0.684478 -0.000001 -0.008628 -0.002146 0.012433
    3 5.309685 -0.003834 0.000000 -0.010772 -0.028463 0.079904
    4 4.826790 -0.004591 0.000000 -0.082630 0.045889 0.167290
    5 5.792767 -0.005304 0.000000 -0.253807 0.014981 0.122836
    6 6.662322 -0.001452 0.000000 -0.016179 0.004411 0.589853
    7 -2.928495 1.801988 4.351345 1.009329 -1.216554 -4.710550
    8 4.827512 0.000000 -0.000002 0.577705 0.388756 -1.558262
    9 11.140032 0.000000 0.000000 0.000000 0.000000 -1.045547
    10 10.314563 -0.000001 0.000001 -1.974731 -0.350896 0.267744
    11 1.646836 0.445664 -1.699647 -0.161704 0.581044 -0.283978
    12 0.928312 0.000000 0.000000 0.000000 0.000000 0.000000
    13 0.928313 0.000000 -0.000001 0.000000 0.000000 0.000000
    14 2.979373 -0.388274 -0.044205 -0.041673 -0.012835 1.254620
    15 1.435262 -0.000001 -0.000001 0.000000 0.000000 0.872146
    16 1.482593 -0.000001 0.000001 0.000000 0.000000 0.907041
    17 -2.670674 1.786398 -4.128677 -1.186957 1.721457 -4.914440
    18 4.972047 0.000000 0.000000 -1.287808 -0.684789 0.414190
    19 11.585358 0.000000 0.000001 0.000000 0.000000 -2.323855
    20 10.127058 0.000000 0.000001 2.015320 0.341849 0.362208
    21 1.537458 0.109715 1.664489 -0.264662 -0.055995 0.783079
    22 0.928313 0.000000 0.000002 0.000000 0.000000 -0.453501
    23 0.928311 0.000000 0.000001 0.000000 0.000000 0.000000
    24 2.686395 -0.427337 0.044204 0.035177 0.025790 0.915446
    25 1.435260 0.000000 0.000001 0.000000 0.000000 1.335014
    26 1.482593 0.000000 -0.000001 0.000000 0.000000 1.168644
    27 2.046984 0.000001 0.000000 0.312265 -0.188734 -0.176047
    28 -0.000005 0.000007 3.713254 -0.099865 -3.047848 5.708602
    29 18.045723 0.000000 0.000000 0.000000 0.000000 -0.413544
    30 17.597597 0.000000 0.000000 -0.057202 -0.016697 -0.162308
    31 0.000005 -0.000003 -3.713254 0.807324 2.831618 6.175187
    32 18.045721 0.000000 0.000000 0.000000 0.000000 -0.782250
    33 17.597597 0.000000 0.000000 0.178995 0.125233 0.485354
  time 8
    0 0.438479 2.261939 0.368674 0.000000 0.000000 -1.571017
    1 -0.828154 0.007813 0.000000 -1.570795 -1.570787 0.000000
    2 1.293670 0.684478 -0.000001 -0.008628 -0.002146 0.012433
    3 5.309685 -0.003834 0.000000 -0.010772 -0.028463 0.079904
    4 4.826790 -0.004591 0.000000 -0.079101 0.045889 0.167290
    5 5.792767 -0.005304 0.000000 -0.250353 0.014969 0.122836
    6 6.662322 -0.001452 0.000000 -0.016179 0.004411 0.589853
    7 -2.928495 1.801988 4.351345 1.009329 -1.216554 -4.710550
    8 4.827512 0.000000 -0.000002 0.582647 0.403679 -1.567273
    9 11.140032 0.000000 0.000000 0.000000 0.000000 -1.013233
    10 10.314563 -0.000001 0.000001 -1.986010 -0.357079 0.237841
    11 1.646836 0.445664 -1.699647 -0.161704 0.581044 -0.283978
    12 0.928312 0.000000 0.000000 0.000000 0.000000 0.000000
    13 0.928313 0.000000 -0.000001 0.000000 0.000000 0.000000
    14 2.979373 -0.388274 -0.044205 -0.041673 -0.012835 1.254620
    15 1.435262 -0.000001 -0.000001 0.000000 0.000000 0.872146
    16 1.482593 -0.000001 0.000001 0.000000 0.000000 0.907041
    17 -2.670674 1.786398 -4.128677 -1.190396 1.722746 -4.917793
    18 4.972047 0.000000 0.000000 -1.291278 -0.697725 0.418183
    19 11.585358 0.000000 0.000001 0.000000 0.000000 -2.315769
    20 10.127058 0.000000 0.000001 2.022472 0.337878 0.382467
    21 1.537458 0.109715 1.664489 -0.264662 -0.055995 0.783079
    22 0.928313 0.000000 0.000002 0.000000 0.000000 -0.453501
    23 0.928311 0.000000 0.000001 0.000000 0.000000 0.000000
    24 2.686395 -0.427337 0.044204 0.035177 0.025790 0.915446
    25 1.435260 0.000000 0.000001 0.000000 0.000000 1.335014
    26 1.482593 0.000000 -0.000001 0.000000 0.000000 1.168644
    27 2.046984 0.000001 0.000000 0.308948 -0.185518 -0.174708
    28 -0.000005 0.000007 3.713254 -0.099865 -3.047848 5.708602
    29 18.045723 0.000000 0.000000 0.000000 0.000000 -0.413544
    30 17.597597 0.000000 0.000000 -0.057202 -0.016721 -0.162308
    31 0.000005 -0.000003 -3.713254 0.807324 2.831618 6.175091
    32 18.045721 0.000000 0.000000 0.000000 0.000000 -0.782250
    33 17.597597 0.000000 0.000000 0.178995 0.125233 0.485354
end
