version 1
nodes
  0 "Bip01" -1
  1 "Bip01 Pelvis" 0
  2 "Bip01 Spine" 1
  3 "Bip01 Spine1" 2
  4 "Bip01 Spine2" 3
  5 "Bip01 Spine3" 4
  6 "Bip01 Neck" 5
  7 "Bip01 L Arm" 6
  8 "Bip01 L Arm1" 7
  9 "Bip01 L Arm2" 8
  10 "Bip01 L Hand" 9
  11 "Bip01 L Finger0" 10
  12 "Bip01 L Finger01" 11
  13 "Bip01 L Finger02" 12
  14 "Bip01 L Finger1" 10
  15 "Bip01 L Finger11" 14
  16 "Bip01 L Finger12" 15
  17 "Bip01 R Arm" 6
  18 "Bip01 R Arm1" 17
  19 "Bip01 R Arm2" 18
  20 "Bip01 R Hand" 19
  21 "Bip01 R Finger0" 20
  22 "Bip01 R Finger01" 21
  23 "Bip01 R Finger02" 22
  24 "Bip01 R Finger1" 20
  25 "Bip01 R Finger11" 24
  26 "Bip01 R Finger12" 25
  27 "Bip01 Head" 6
  28 "Bip01 L Leg" 1
  29 "Bip01 L Leg1" 28
  30 "Bip01 L Foot" 29
  31 "Bip01 R Leg" 1
  32 "Bip01 R Leg1" 31
  33 "Bip01 R Foot" 32
end
skeleton
  time 0
    0 0.458010 3.203374 0.368674 0.000000 0.000000 -1.571017
    1 -0.140633 0.007813 0.000000 -1.570795 -1.570787 0.000000
    2 1.293670 0.684478 -0.000001 -0.062363 0.005584 -0.077014
    3 5.309685 -0.003834 0.000000 0.005411 0.003500 0.054274
    4 4.826790 -0.004591 0.000000 0.008450 -0.022291 0.090651
    5 5.792767 -0.005304 0.000000 -0.034267 -0.011421 0.102198
    6 6.662322 -0.001452 0.000000 -0.091910 0.032655 0.231870
    7 -3.518356 0.356631 4.277124 -1.341851 -1.131602 -2.052838
    8 4.827512 0.000000 -0.000002 2.119510 0.703501 0.674719
    9 11.140032 0.000000 0.000000 0.000000 0.000000 -1.741969
    10 10.314563 -0.000001 0.000001 -1.016637 -0.373471 0.774695
    11 1.646836 0.445664 -1.699647 -0.392035 3.352851 -0.875707
    12 0.928312 0.000000 0.000000 0.000000 0.000000 0.593404
    13 0.928313 0.000000 -0.000001 0.000000 0.000000 1.204231
    14 2.979373 -0.388274 -0.044205 -0.030851 -0.030823 0.768363
    15 1.435262 -0.000001 -0.000001 0.000000 0.000000 1.204014
    16 1.482593 -0.000001 0.000001 0.000000 0.000000 1.153221
    17 -2.975371 1.071532 -4.156022 0.466413 1.347660 -2.920871
    18 4.972047 0.000000 0.000000 -1.992422 -0.878672 0.548232
    19 11.585358 0.000000 0.000001 0.000000 0.000000 -1.579834
    20 10.127058 0.000000 0.000001 1.124044 0.670554 1.078517
    21 1.537458 0.109715 1.664489 -3.079588 0.031470 0.928526
    22 0.928313 0.000000 0.000002 0.000000 0.000000 0.061034
    23 0.928311 0.000000 0.000001 0.000000 0.000000 0.671897
    24 2.686395 -0.427337 0.044204 -0.001208 0.043611 -0.052337
    25 1.435260 0.000000 0.000001 0.000000 0.000000 1.186618
    26 1.482593 0.000000 -0.000001 0.000000 0.000000 1.684243
    27 2.046984 0.000001 0.000000 0.154409 0.006786 -0.059620
    28 -0.000005 0.000007 3.713254 -0.100728 -3.049670 5.714450
    29 18.045723 0.000000 0.000000 0.000000 0.000000 -0.388157
    30 17.597597 0.000000 0.000000 -0.057633 -0.015442 -0.181701
    31 0.000005 -0.000003 -3.713254 0.806653 2.829221 6.165696
    32 18.045721 0.000000 0.000000 0.000000 0.000000 -0.787839
    33 17.597597 0.000000 0.000000 0.178257 0.119947 0.482675
  time 1
    0 0.395509 3.574479 0.368674 0.000000 0.000000 -1.571017
    1 -0.140633 0.007813 0.000000 -1.570795 -1.570787 0.000000
    2 1.293670 0.684478 -0.000001 -0.062413 0.041909 0.082360
    3 5.309685 -0.003834 0.000000 0.003982 -0.033821 -0.011877
    4 4.826790 -0.004591 0.000000 0.011788 -0.047375 -0.090895
    5 5.792767 -0.005304 0.000000 -0.035580 -0.053691 -0.020199
    6 6.662322 -0.001452 0.000000 -0.091910 0.032655 0.231870
    7 -3.518356 0.356631 4.277124 1.492237 -1.968645 -4.857535
    8 4.827512 0.000000 -0.000002 2.383054 0.595118 0.504365
    9 11.140032 0.000000 0.000000 0.000000 0.000000 -1.948823
    10 10.314563 -0.000001 0.000001 -1.041090 -0.380497 0.735967
    11 1.646836 0.445664 -1.699647 -0.410237 3.351791 -0.808777
    12 0.928312 0.000000 0.000000 0.000000 0.000000 0.617012
    13 0.928313 0.000000 -0.000001 0.000000 0.000000 1.227913
    14 2.979373 -0.388274 -0.044205 -0.031965 -0.029697 0.804842
    15 1.435262 -0.000001 -0.000001 0.000000 0.000000 1.204808
    16 1.482593 -0.000001 0.000001 0.000000 0.000000 1.129661
    17 -2.975371 1.071532 -4.156022 -1.430850 1.618819 -4.807358
    18 4.972047 0.000000 0.000000 -2.423520 -0.503521 0.649263
    19 11.585358 0.000000 0.000001 0.000000 0.000000 -2.083798
    20 10.127058 0.000000 0.000001 1.180073 0.677457 1.036949
    21 1.537458 0.109715 1.664489 -3.079588 0.031470 0.928526
    22 0.928313 0.000000 0.000002 0.000000 0.000000 0.061034
    23 0.928311 0.000000 0.000001 0.000000 0.000000 0.671897
    24 2.686395 -0.427337 0.044204 -0.001208 0.043611 -0.052337
    25 1.435260 0.000000 0.000001 0.000000 0.000000 1.186618
    26 1.482593 0.000000 -0.000001 0.000000 0.000000 1.684243
    27 2.046984 0.000001 0.000000 0.180733 0.043164 0.208087
    28 -0.000005 0.000007 3.713254 -0.101783 -3.050437 5.726241
    29 18.045723 0.000000 0.000000 0.000000 0.000000 -0.344044
    30 17.597597 0.000000 0.000000 -0.057455 -0.015786 -0.213977
    31 0.000005 -0.000003 -3.713254 0.806078 2.828358 6.151699
    32 18.045721 0.000000 0.000000 0.000000 0.000000 -0.795711
    33 17.597597 0.000000 0.000000 0.177485 0.110283 0.480782
  time 2
    0 0.368164 3.879176 0.368674 0.000000 0.000000 -1.571017
    1 -0.140633 0.007813 0.000000 -1.570795 -1.570787 0.000000
    2 1.293670 0.684478 -0.000001 -0.058185 0.065567 0.212254
    3 5.309685 -0.003834 0.000000 0.004867 -0.056136 -0.073576
    4 4.826790 -0.004591 0.000000 0.016156 -0.061817 -0.210507
    5 5.792767 -0.005304 0.000000 -0.031892 -0.080417 -0.139959
    6 6.662322 -0.001452 0.000000 -0.091910 0.032655 0.231870
    7 -3.518356 0.356631 4.277124 -1.990297 -1.167913 -1.349916
    8 4.827512 0.000000 -0.000002 2.640700 0.635282 0.292504
    9 11.140032 0.000000 0.000000 0.000000 0.000000 -2.155460
    10 10.314563 -0.000001 0.000001 -1.064973 -0.387428 0.696890
    11 1.646836 0.445664 -1.699647 -0.428438 3.349582 -0.741951
    12 0.928312 0.000000 0.000000 0.000000 0.000000 0.640709
    13 0.928313 0.000000 -0.000001 0.000000 0.000000 1.251595
    14 2.979373 -0.388274 -0.044205 -0.033032 -0.028486 0.841278
    15 1.435262 -0.000001 -0.000001 0.000000 0.000000 1.205560
    16 1.482593 -0.000001 0.000001 0.000000 0.000000 1.106047
    17 -2.975371 1.071532 -4.156022 3.295206 1.411519 -0.082711
    18 4.972047 0.000000 0.000000 -2.511597 -0.364275 0.496718
    19 11.585358 0.000000 0.000001 0.000000 0.000000 -2.439841
    20 10.127058 0.000000 0.000001 1.319409 0.551687 1.037449
    21 1.537458 0.109715 1.664489 -3.079588 0.031470 0.928526
    22 0.928313 0.000000 0.000002 0.000000 0.000000 0.061034
    23 0.928311 0.000000 0.000001 0.000000 0.000000 0.671897
    24 2.686395 -0.427337 0.044204 -0.001208 0.043611 -0.052337
    25 1.435260 0.000000 0.000001 0.000000 0.000000 1.186618
    26 1.482593 0.000000 -0.000001 0.000000 0.000000 1.684243
    27 2.046984 0.000001 0.000000 0.197406 0.054198 0.434552
    28 -0.000005 0.000007 3.713254 -0.103029 -3.052066 5.738511
    29 18.045723 0.000000 0.000000 0.000000 0.000000 -0.302818
    30 17.597597 0.000000 0.000000 -0.057582 -0.015565 -0.242861
    31 0.000005 -0.000003 -3.713254 0.805312 2.827208 6.140386
    32 18.045721 0.000000 0.000000 0.000000 0.000000 -0.801536
    33 17.597597 0.000000 0.000000 0.177015 0.102768 0.478287
  time 3
    0 0.481449 4.121371 0.368674 0.000000 0.000000 -1.571017
    1 -0.140633 0.007813 0.000000 -1.570795 -1.570787 0.000000
    2 1.293670 0.684478 -0.000001 -0.055996 0.049543 0.272555
    3 5.309685 -0.003834 0.000000 0.005650 -0.028176 -0.137235
    4 4.826790 -0.004591 0.000000 0.013085 -0.043121 -0.137902
    5 5.792767 -0.005304 0.000000 -0.028367 -0.022339 -0.242984
    6 6.662322 -0.001452 0.000000 -0.091910 0.032655 0.231870
    7 -3.518356 0.356631 4.277124 -2.243349 -1.179297 -1.090823
    8 4.827512 0.000000 -0.000002 2.440132 0.881894 -0.006266
    9 11.140032 0.000000 0.000000 0.000000 0.000000 -2.287108
    10 10.314563 -0.000001 0.000001 -1.206569 -0.297971 0.733354
    11 1.646836 0.445664 -1.699647 -0.392035 3.352851 -0.875707
    12 0.928312 0.000000 0.000000 0.000000 0.000000 0.593404
    13 0.928313 0.000000 -0.000001 0.000000 0.000000 1.204231
    14 2.979373 -0.388274 -0.044205 -0.030851 -0.030823 0.768363
    15 1.435262 -0.000001 -0.000001 0.000000 0.000000 1.204014
    16 1.482593 -0.000001 0.000001 0.000000 0.000000 1.153221
    17 -2.975371 1.071532 -4.156022 -2.257200 1.355389 -5.643232
    18 4.972047 0.000000 0.000000 -1.539188 -0.435947 0.188168
    19 11.585358 0.000000 0.000001 0.000000 0.000000 -2.408230
    20 10.127058 0.000000 0.000001 1.698640 -0.103453 1.037499
    21 1.537458 0.109715 1.664489 -3.079588 0.031470 0.928526
    22 0.928313 0.000000 0.000002 0.000000 0.000000 0.061034
    23 0.928311 0.000000 0.000001 0.000000 0.000000 0.671897
    24 2.686395 -0.427337 0.044204 -0.001208 0.043611 -0.052337
    25 1.435260 0.000000 0.000001 0.000000 0.000000 1.186618
    26 1.482593 0.000000 -0.000001 0.000000 0.000000 1.684243
    27 2.046984 0.000001 0.000000 0.142303 -0.024842 0.509250
    28 -0.000005 0.000007 3.713254 -0.104371 -3.057340 5.748672
    29 18.045723 0.000000 0.000000 0.000000 0.000000 -0.269659
    30 17.597597 0.000000 0.000000 -0.059255 -0.011578 -0.265509
    31 0.000005 -0.000003 -3.713254 0.803586 2.822319 6.131278
    32 18.045721 0.000000 0.000000 0.000000 0.000000 -0.805472
    33 17.597597 0.000000 0.000000 0.176948 0.099711 0.472699
  time 4
    0 0.524419 4.215123 0.368674 0.000000 0.000000 -1.571017
    1 -0.140633 0.007813 0.000000 -1.570795 -1.570787 0.000000
    2 1.293670 0.684478 -0.000001 -0.056872 0.026149 0.264419
    3 5.309685 -0.003834 0.000000 0.004510 0.004578 -0.165833
    4 4.826790 -0.004591 0.000000 0.010758 -0.021297 -0.015335
    5 5.792767 -0.005304 0.000000 -0.028583 -0.022064 -0.232270
    6 6.662322 -0.001452 0.000000 -0.091910 0.032655 0.231870
    7 -3.518356 0.356631 4.277124 -2.421636 -1.342903 -0.940101
    8 4.827512 0.000000 -0.000002 1.269967 0.569025 -0.379556
    9 11.140032 0.000000 0.000000 0.000000 0.000000 -2.285007
    10 10.314563 -0.000001 0.000001 -1.686611 0.169078 0.890880
    11 1.646836 0.445664 -1.699647 2.933650 -0.147575 1.538619
    12 0.928312 0.000000 0.000000 0.000000 0.000000 0.333836
    13 0.928313 0.000000 -0.000001 0.000000 0.000000 0.944760
    14 2.979373 -0.388274 -0.044205 -0.016433 -0.040411 0.368354
    15 1.435262 -0.000001 -0.000001 0.000000 0.000000 1.195488
    16 1.482593 -0.000001 0.000001 0.000000 0.000000 1.412009
    17 -2.975371 1.071532 -4.156022 -1.779636 1.257063 -5.162990
    18 4.972047 0.000000 0.000000 -0.412104 -0.318797 -0.199584
    19 11.585358 0.000000 0.000001 0.000000 0.000000 -2.115653
    20 10.127058 0.000000 0.000001 2.107252 -0.614194 0.812802
    21 1.537458 0.109715 1.664489 -3.079588 0.031470 0.928526
    22 0.928313 0.000000 0.000002 0.000000 0.000000 0.061034
    23 0.928311 0.000000 0.000001 0.000000 0.000000 0.671897
    24 2.686395 -0.427337 0.044204 -0.001208 0.043611 -0.052337
    25 1.435260 0.000000 0.000001 0.000000 0.000000 1.186618
    26 1.482593 0.000000 -0.000001 0.000000 0.000000 1.684243
    27 2.046984 0.000001 0.000000 0.131446 -0.051041 0.462716
    28 -0.000005 0.000007 3.713254 -0.104947 -3.059449 5.753177
    29 18.045723 0.000000 0.000000 0.000000 0.000000 -0.255522
    30 17.597597 0.000000 0.000000 -0.059888 -0.010151 -0.274862
    31 0.000005 -0.000003 -3.713254 0.802916 2.820593 6.127923
    32 18.045721 0.000000 0.000000 0.000000 0.000000 -0.806810
    33 17.597597 0.000000 0.000000 0.176948 0.098547 0.470482
  time 5
    0 0.524419 4.015899 0.368674 0.000000 0.000000 -1.571017
    1 -0.140633 0.007813 0.000000 -1.570795 -1.570787 0.000000
    2 1.293670 0.684478 -0.000001 -0.058607 0.017916 0.190725
    3 5.309685 -0.003834 0.000000 0.004493 0.010127 -0.134657
    4 4.826790 -0.004591 0.000000 0.009690 -0.017989 0.056167
    5 5.792767 -0.005304 0.000000 -0.031119 -0.018312 -0.107631
    6 6.662322 -0.001452 0.000000 -0.091910 0.032655 0.231870
    7 -3.518356 0.356631 4.277124 -3.644625 -1.518573 -6.015594
    8 4.827512 0.000000 -0.000002 0.274860 0.204991 -0.149846
    9 11.140032 0.000000 0.000000 0.000000 0.000000 -2.086484
    10 10.314563 -0.000001 0.000001 -2.076616 0.596317 0.830029
    11 1.646836 0.445664 -1.699647 3.031037 0.029368 0.802960
    12 0.928312 0.000000 0.000000 0.000000 0.000000 0.061070
    13 0.928313 0.000000 -0.000001 0.000000 0.000000 0.671882
    14 2.979373 -0.388274 -0.044205 0.001460 -0.043599 -0.052327
    15 1.435262 -0.000001 -0.000001 0.000000 0.000000 1.186628
    16 1.482593 -0.000001 0.000001 0.000000 0.000000 1.684153
    17 -2.975371 1.071532 -4.156022 -1.700632 1.211686 -5.081864
    18 4.972047 0.000000 0.000000 0.074147 -0.413609 -0.612493
    19 11.585358 0.000000 0.000001 0.000000 0.000000 -1.503953
    20 10.127058 0.000000 0.000001 1.970160 -0.313196 0.858472
    21 1.537458 0.109715 1.664489 -3.079588 0.031470 0.928526
    22 0.928313 0.000000 0.000002 0.000000 0.000000 0.061034
    23 0.928311 0.000000 0.000001 0.000000 0.000000 0.671897
    24 2.686395 -0.427337 0.044204 -0.001208 0.043611 -0.052337
    25 1.435260 0.000000 0.000001 0.000000 0.000000 1.186618
    26 1.482593 0.000000 -0.000001 0.000000 0.000000 1.684243
    27 2.046984 0.000001 0.000000 0.136659 -0.050156 0.359611
    28 -0.000005 0.000007 3.713254 -0.104084 -3.057435 5.742728
    29 18.045723 0.000000 0.000000 0.000000 0.000000 -0.287275
    30 17.597597 0.000000 0.000000 -0.059533 -0.010963 -0.253726
    31 0.000005 -0.000003 -3.713254 0.803586 2.821839 6.135113
    32 18.045721 0.000000 0.000000 0.000000 0.000000 -0.803425
    33 17.597597 0.000000 0.000000 0.177150 0.102906 0.472930
  time 6
    0 0.493168 3.656513 0.368674 0.000000 0.000000 -1.571017
    1 -0.140633 0.007813 0.000000 -1.570795 -1.570787 0.000000
    2 1.293670 0.684478 -0.000001 -0.060342 0.012259 0.089207
    3 5.309685 -0.003834 0.000000 0.004867 0.009228 -0.082443
    4 4.826790 -0.004591 0.000000 0.008259 -0.019020 0.122246
    5 5.792767 -0.005304 0.000000 -0.033133 -0.014286 0.017901
    6 6.662322 -0.001452 0.000000 -0.091910 0.032655 0.231870
    7 -3.518356 0.356631 4.277124 1.665827 -1.440718 -5.044285
    8 4.827512 0.000000 -0.000002 -0.273752 0.467890 -0.339264
    9 11.140032 0.000000 0.000000 0.000000 0.000000 -1.564313
    10 10.314563 -0.000001 0.000001 -1.667372 0.334972 0.805120
    11 1.646836 0.445664 -1.699647 3.033288 0.079544 0.625668
    12 0.928312 0.000000 0.000000 0.000000 0.000000 -0.005445
    13 0.928313 0.000000 -0.000001 0.000000 0.000000 0.605305
    14 2.979373 -0.388274 -0.044205 0.005918 -0.043227 -0.154990
    15 1.435262 -0.000001 -0.000001 0.000000 0.000000 1.184413
    16 1.482593 -0.000001 0.000001 0.000000 0.000000 1.750560
    17 -2.975371 1.071532 -4.156022 -1.603858 1.149456 -4.978517
    18 4.972047 0.000000 0.000000 0.323651 -0.485603 -1.021742
    19 11.585358 0.000000 0.000001 0.000000 0.000000 -0.889802
    20 10.127058 0.000000 0.000001 1.818341 0.110735 0.834161
    21 1.537458 0.109715 1.664489 -3.079588 0.031470 0.928526
    22 0.928313 0.000000 0.000002 0.000000 0.000000 0.061034
    23 0.928311 0.000000 0.000001 0.000000 0.000000 0.671897
    24 2.686395 -0.427337 0.044204 -0.001208 0.043611 -0.052337
    25 1.435260 0.000000 0.000001 0.000000 0.000000 1.186618
    26 1.482593 0.000000 -0.000001 0.000000 0.000000 1.684243
    27 2.046984 0.000001 0.000000 0.144069 -0.044344 0.266665
    28 -0.000005 0.000007 3.713254 -0.102454 -3.053888 5.728062
    29 18.045723 0.000000 0.000000 0.000000 0.000000 -0.335902
    30 17.597597 0.000000 0.000000 -0.058722 -0.012809 -0.219983
    31 0.000005 -0.000003 -3.713254 0.804928 2.824811 6.148439
    32 18.045721 0.000000 0.000000 0.000000 0.000000 -0.796813
    33 17.597597 0.000000 0.000000 0.177552 0.110441 0.477364
  time 7
    0 0.461917 3.254157 0.368674 0.000000 0.000000 -1.571017
    1 -0.140633 0.007813 0.000000 -1.570795 -1.570787 0.000000
    2 1.293670 0.684478 -0.000001 -0.061757 0.008137 -0.014537
    3 5.309685 -0.003834 0.000000 0.005139 0.005825 -0.026431
    4 4.826790 -0.004591 0.000000 0.006657 -0.021644 0.181357
    5 5.792767 -0.005304 0.000000 -0.034447 -0.010738 0.121902
    6 6.662322 -0.001452 0.000000 -0.091910 0.032655 0.231870
    7 -3.518356 0.356631 4.277124 1.538821 -1.343494 -4.916655
    8 4.827512 0.000000 -0.000002 -0.694020 0.625732 -0.809256
    9 11.140032 0.000000 0.000000 0.000000 0.000000 -0.992294
    10 10.314563 -0.000001 0.000001 -1.276609 0.015362 0.593131
    11 1.646836 0.445664 -1.699647 3.031037 0.029368 0.802960
    12 0.928312 0.000000 0.000000 0.000000 0.000000 0.061070
    13 0.928313 0.000000 -0.000001 0.000000 0.000000 0.671882
    14 2.979373 -0.388274 -0.044205 0.001460 -0.043599 -0.052327
    15 1.435262 -0.000001 -0.000001 0.000000 0.000000 1.186628
    16 1.482593 -0.000001 0.000001 0.000000 0.000000 1.684153
    17 -2.975371 1.071532 -4.156022 -1.443555 0.932166 -4.781402
    18 4.972047 0.000000 0.000000 0.295230 -0.369739 -0.893290
    19 11.585358 0.000000 0.000001 0.000000 0.000000 -0.641659
    20 10.127058 0.000000 0.000001 2.052205 0.102508 0.653584
    21 1.537458 0.109715 1.664489 -3.079588 0.031470 0.928526
    22 0.928313 0.000000 0.000002 0.000000 0.000000 0.061034
    23 0.928311 0.000000 0.000001 0.000000 0.000000 0.671897
    24 2.686395 -0.427337 0.044204 -0.001208 0.043611 -0.052337
    25 1.435260 0.000000 0.000001 0.000000 0.000000 1.186618
    26 1.482593 0.000000 -0.000001 0.000000 0.000000 1.684243
    27 2.046984 0.000001 0.000000 0.151695 -0.038709 0.198537
    28 -0.000005 0.000007 3.713254 -0.101016 -3.050245 5.715792
    29 18.045723 0.000000 0.000000 0.000000 0.000000 -0.382606
    30 17.597597 0.000000 0.000000 -0.057785 -0.015023 -0.185873
    31 0.000005 -0.000003 -3.713254 0.806462 2.828550 6.163586
    32 18.045721 0.000000 0.000000 0.000000 0.000000 -0.788941
    33 17.597597 0.000000 0.000000 0.178156 0.118922 0.482075
  time 8
    0 0.438479 2.929928 0.368674 0.000000 0.000000 -1.571017
    1 -0.140633 0.007813 0.000000 -1.570795 -1.570787 0.000000
    2 1.293670 0.684478 -0.000001 -0.062447 0.004445 -0.094676
    3 5.309685 -0.003834 0.000000 0.005275 0.003679 0.016297
    4 4.826790 -0.004591 0.000000 0.005188 -0.023250 0.231870
    5 5.792767 -0.005304 0.000000 -0.035112 -0.008329 0.191312
    6 6.662322 -0.001452 0.000000 -0.091910 0.032655 0.231870
    7 -3.518356 0.356631 4.277124 1.428399 -1.206648 -4.798702
    8 4.827512 0.000000 -0.000002 -0.720246 0.517178 -0.846602
    9 11.140032 0.000000 0.000000 0.000000 0.000000 -0.660892
    10 10.314563 -0.000001 0.000001 -1.596668 0.005808 0.429567
    11 1.646836 0.445664 -1.699647 2.955980 -0.126904 1.429135
    12 0.928312 0.000000 0.000000 0.000000 0.000000 0.293936
    13 0.928313 0.000000 -0.000001 0.000000 0.000000 0.904768
    14 2.979373 -0.388274 -0.044205 -0.013904 -0.041370 0.306730
    15 1.435262 -0.000001 -0.000001 0.000000 0.000000 1.194192
    16 1.482593 -0.000001 0.000001 0.000000 0.000000 1.451864
    17 -2.975371 1.071532 -4.156022 -1.395312 0.723683 -4.673936
    18 4.972047 0.000000 0.000000 0.226382 -0.267132 -0.669531
    19 11.585358 0.000000 0.000001 0.000000 0.000000 -0.544460
    20 10.127058 0.000000 0.000001 2.341606 0.045864 0.468254
    21 1.537458 0.109715 1.664489 -3.079588 0.031470 0.928526
    22 0.928313 0.000000 0.000002 0.000000 0.000000 0.061034
    23 0.928311 0.000000 0.000001 0.000000 0.000000 0.671897
    24 2.686395 -0.427337 0.044204 -0.001208 0.043611 -0.052337
    25 1.435260 0.000000 0.000001 0.000000 0.000000 1.186618
    26 1.482593 0.000000 -0.000001 0.000000 0.000000 1.684243
    27 2.046984 0.000001 0.000000 0.156693 -0.035906 0.155531
    28 -0.000005 0.000007 3.713254 -0.099865 -3.047656 5.708123
    29 18.045723 0.000000 0.000000 0.000000 0.000000 -0.415690
    30 17.597597 0.000000 0.000000 -0.057075 -0.016845 -0.160657
    31 0.000005 -0.000003 -3.713254 0.807612 2.831810 6.176050
    32 18.045721 0.000000 0.000000 0.000000 0.000000 -0.781699
    33 17.597597 0.000000 0.000000 0.178794 0.125726 0.485539
  time 9
    0 0.438479 2.883051 0.368674 0.000000 0.000000 -1.571017
    1 -0.140633 0.007813 0.000000 -1.570795 -1.570787 0.000000
    2 1.293670 0.684478 -0.000001 -0.062515 0.003510 -0.109676
    3 5.309685 -0.003834 0.000000 0.005309 0.003643 0.023875
    4 4.826790 -0.004591 0.000000 0.004673 -0.023382 0.253367
    5 5.792767 -0.005304 0.000000 -0.035382 -0.007275 0.221750
    6 6.662322 -0.001452 0.000000 -0.091910 0.032655 0.231870
    7 -3.518356 0.356631 4.277124 1.379418 -1.057945 -4.734025
    8 4.827512 0.000000 -0.000002 -0.593736 0.416299 -0.744441
    9 11.140032 0.000000 0.000000 0.000000 0.000000 -0.391438
    10 10.314563 -0.000001 0.000001 -2.131396 -0.010960 0.282028
    11 1.646836 0.445664 -1.699647 -0.392035 3.352851 -0.875707
    12 0.928312 0.000000 0.000000 0.000000 0.000000 0.593404
    13 0.928313 0.000000 -0.000001 0.000000 0.000000 1.204231
    14 2.979373 -0.388274 -0.044205 -0.030851 -0.030823 0.768363
    15 1.435262 -0.000001 -0.000001 0.000000 0.000000 1.204014
    16 1.482593 -0.000001 0.000001 0.000000 0.000000 1.153221
    17 -2.975371 1.071532 -4.156022 -1.393210 0.696761 -4.662347
    18 4.972047 0.000000 0.000000 0.196742 -0.278783 -0.637052
    19 11.585358 0.000000 0.000001 0.000000 0.000000 -0.514728
    20 10.127058 0.000000 0.000001 2.406331 0.042365 0.438091
    21 1.537458 0.109715 1.664489 -3.079588 0.031470 0.928526
    22 0.928313 0.000000 0.000002 0.000000 0.000000 0.061034
    23 0.928311 0.000000 0.000001 0.000000 0.000000 0.671897
    24 2.686395 -0.427337 0.044204 -0.001208 0.043611 -0.052337
    25 1.435260 0.000000 0.000001 0.000000 0.000000 1.186618
    26 1.482593 0.000000 -0.000001 0.000000 0.000000 1.684243
    27 2.046984 0.000001 0.000000 0.157856 -0.036555 0.143000
    28 -0.000005 0.000007 3.713254 -0.099769 -3.047273 5.707165
    29 18.045723 0.000000 0.000000 0.000000 0.000000 -0.420427
    30 17.597597 0.000000 0.000000 -0.056974 -0.017115 -0.156943
    31 0.000005 -0.000003 -3.713254 0.807804 2.832289 6.177967
    32 18.045721 0.000000 0.000000 0.000000 0.000000 -0.780597
    33 17.597597 0.000000 0.000000 0.178894 0.126752 0.486047
  time 10
    0 0.446291 2.949460 0.368674 0.000000 0.000000 -1.571017
    1 -0.140633 0.007813 0.000000 -1.570795 -1.570787 0.000000
    2 1.293670 0.684478 -0.000001 -0.062447 0.004445 -0.094676
    3 5.309685 -0.003834 0.000000 0.005275 0.003679 0.016297
    4 4.826790 -0.004591 0.000000 0.004597 -0.023418 0.258769
    5 5.792767 -0.005304 0.000000 -0.035454 -0.006867 0.232443
    6 6.662322 -0.001452 0.000000 -0.091910 0.032655 0.231870
    7 -3.518356 0.356631 4.277124 1.379418 -1.057945 -4.734025
    8 4.827512 0.000000 -0.000002 -0.570857 0.463626 -0.728497
    9 11.140032 0.000000 0.000000 0.000000 0.000000 -0.379193
    10 10.314563 -0.000001 0.000001 -2.156512 -0.007868 0.280634
    11 1.646836 0.445664 -1.699647 -0.392035 3.352851 -0.875707
    12 0.928312 0.000000 0.000000 0.000000 0.000000 0.593404
    13 0.928313 0.000000 -0.000001 0.000000 0.000000 1.204231
    14 2.979373 -0.388274 -0.044205 -0.030851 -0.030823 0.768363
    15 1.435262 -0.000001 -0.000001 0.000000 0.000000 1.204014
    16 1.482593 -0.000001 0.000001 0.000000 0.000000 1.153221
    17 -2.975371 1.071532 -4.156022 -1.395312 0.723683 -4.673936
    18 4.972047 0.000000 0.000000 0.164569 -0.337519 -0.636520
    19 11.585358 0.000000 0.000001 0.000000 0.000000 -0.525837
    20 10.127058 0.000000 0.000001 2.414465 0.033476 0.453447
    21 1.537458 0.109715 1.664489 -3.079588 0.031470 0.928526
    22 0.928313 0.000000 0.000002 0.000000 0.000000 0.061034
    23 0.928311 0.000000 0.000001 0.000000 0.000000 0.671897
    24 2.686395 -0.427337 0.044204 -0.001208 0.043611 -0.052337
    25 1.435260 0.000000 0.000001 0.000000 0.000000 1.186618
    26 1.482593 0.000000 -0.000001 0.000000 0.000000 1.684243
    27 2.046984 0.000001 0.000000 0.157554 -0.039122 0.151273
    28 -0.000005 0.000007 3.713254 -0.099961 -3.047848 5.708602
    29 18.045723 0.000000 0.000000 0.000000 0.000000 -0.413544
    30 17.597597 0.000000 0.000000 -0.057126 -0.016697 -0.162308
    31 0.000005 -0.000003 -3.713254 0.807612 2.831522 6.175187
    32 18.045721 0.000000 0.000000 0.000000 0.000000 -0.782250
    33 17.597597 0.000000 0.000000 0.178760 0.125233 0.485354
end
