version 1
nodes
  0 "Bip01" -1
  1 "Bip01 Pelvis" 0
  2 "Bip01 Spine" 1
  3 "Bip01 Spine1" 2
  4 "Bip01 Spine2" 3
  5 "Bip01 Spine3" 4
  6 "Bip01 Neck" 5
  7 "Bip01 L Arm" 6
  8 "Bip01 L Arm1" 7
  9 "Bip01 L Arm2" 8
  10 "Bip01 L Hand" 9
  11 "Bip01 L Finger0" 10
  12 "Bip01 L Finger01" 11
  13 "Bip01 L Finger02" 12
  14 "Bip01 L Finger1" 10
  15 "Bip01 L Finger11" 14
  16 "Bip01 L Finger12" 15
  17 "Bip01 R Arm" 6
  18 "Bip01 R Arm1" 17
  19 "Bip01 R Arm2" 18
  20 "Bip01 R Hand" 19
  21 "Bip01 R Finger0" 20
  22 "Bip01 R Finger01" 21
  23 "Bip01 R Finger02" 22
  24 "Bip01 R Finger1" 20
  25 "Bip01 R Finger11" 24
  26 "Bip01 R Finger12" 25
  27 "Bip01 Head" 6
  28 "Bip01 L Leg" 1
  29 "Bip01 L Leg1" 28
  30 "Bip01 L Foot" 29
  31 "Bip01 R Leg" 1
  32 "Bip01 R Leg1" 31
  33 "Bip01 R Foot" 32
end
skeleton
  time 0
    0 0.438479 2.261939 0.368674 0.000000 0.000000 -1.571017
    1 -0.828154 0.007813 0.000000 -1.570795 -1.570787 0.000000
    2 1.293670 0.684478 -0.000001 -0.008628 -0.002146 0.012433
    3 5.309685 -0.003834 0.000000 -0.010772 -0.028463 0.079904
    4 4.826790 -0.004591 0.000000 -0.079101 0.045889 0.167290
    5 5.792767 -0.005304 0.000000 -0.250353 0.014969 0.122836
    6 6.662322 -0.001452 0.000000 -0.016179 0.004411 0.589853
    7 -2.928495 1.801988 4.351345 1.009329 -1.216554 -4.710550
    8 4.827512 0.000000 -0.000002 0.582647 0.403679 -1.567273
    9 11.140032 0.000000 0.000000 0.000000 0.000000 -1.013233
    10 10.314563 -0.000001 0.000001 -1.986010 -0.357079 0.237841
    11 1.646836 0.445664 -1.699647 -0.161704 0.581044 -0.283978
    12 0.928312 0.000000 0.000000 0.000000 0.000000 0.000000
    13 0.928313 0.000000 -0.000001 0.000000 0.000000 0.000000
    14 2.979373 -0.388274 -0.044205 -0.041673 -0.012835 1.254620
    15 1.435262 -0.000001 -0.000001 0.000000 0.000000 0.872146
    16 1.482593 -0.000001 0.000001 0.000000 0.000000 0.907041
    17 -2.670674 1.786398 -4.128677 -1.190396 1.722746 -4.917793
    18 4.972047 0.000000 0.000000 -1.291278 -0.697725 0.418183
    19 11.585358 0.000000 0.000001 0.000000 0.000000 -2.315769
    20 10.127058 0.000000 0.000001 2.022472 0.337878 0.382467
    21 1.537458 0.109715 1.664489 -0.264662 -0.055995 0.783079
    22 0.928313 0.000000 0.000002 0.000000 0.000000 -0.453501
    23 0.928311 0.000000 0.000001 0.000000 0.000000 0.000000
    24 2.686395 -0.427337 0.044204 0.035177 0.025790 0.915446
    25 1.435260 0.000000 0.000001 0.000000 0.000000 1.335014
    26 1.482593 0.000000 -0.000001 0.000000 0.000000 1.168644
    27 2.046984 0.000001 0.000000 0.308948 -0.185518 -0.174708
    28 -0.000005 0.000007 3.713254 -0.099865 -3.047848 5.708602
    29 18.045723 0.000000 0.000000 0.000000 0.000000 -0.413544
    30 17.597597 0.000000 0.000000 -0.057202 -0.016721 -0.162308
    31 0.000005 -0.000003 -3.713254 0.807324 2.831618 6.175091
    32 18.045721 0.000000 0.000000 0.000000 0.000000 -0.782250
    33 17.597597 0.000000 0.000000 0.178995 0.125233 0.485354
  time 1
    0 0.438479 2.261939 0.368674 0.000000 0.000000 -1.571017
    1 -0.796903 0.000000 0.000000 -1.570795 -1.570787 0.000000
    2 1.293670 0.684478 -0.000001 -0.008628 -0.002146 0.012433
    3 5.309685 -0.003834 0.000000 -0.011095 -0.026822 0.085574
    4 4.826790 -0.004591 0.000000 -0.077900 0.043936 0.152827
    5 5.792767 -0.005304 0.000000 -0.250317 0.011901 0.105686
    6 6.662322 -0.001452 0.000000 -0.016179 0.004411 0.589853
    7 -2.928495 1.801988 4.351345 1.009329 -1.216554 -4.710550
    8 4.827512 0.000000 -0.000002 0.571327 0.435401 -1.573426
    9 11.140032 0.000000 0.000000 0.000000 0.000000 -0.999467
    10 10.314563 -0.000001 0.000001 -1.984114 -0.362418 0.230758
    11 1.646836 0.445664 -1.699647 -0.161704 0.581044 -0.283978
    12 0.928312 0.000000 0.000000 0.000000 0.000000 0.000000
    13 0.928313 0.000000 -0.000001 0.000000 0.000000 0.000000
    14 2.979373 -0.388274 -0.044205 -0.041673 -0.012835 1.254620
    15 1.435262 -0.000001 -0.000001 0.000000 0.000000 0.872146
    16 1.482593 -0.000001 0.000001 0.000000 0.000000 0.907041
    17 -2.670674 1.786398 -4.128677 -1.200331 1.722193 -4.927754
    18 4.972047 0.000000 0.000000 -1.315478 -0.679486 0.434156
    19 11.585358 0.000000 0.000001 0.000000 0.000000 -2.315769
    20 10.127058 0.000000 0.000001 2.022613 0.337689 0.382967
    21 1.537458 0.109715 1.664489 -0.264662 -0.055995 0.783079
    22 0.928313 0.000000 0.000002 0.000000 0.000000 -0.453501
    23 0.928311 0.000000 0.000001 0.000000 0.000000 0.000000
    24 2.686395 -0.427337 0.044204 0.035177 0.025790 0.915446
    25 1.435260 0.000000 0.000001 0.000000 0.000000 1.335014
    26 1.482593 0.000000 -0.000001 0.000000 0.000000 1.168644
    27 2.046984 0.000001 0.000000 0.305372 -0.188321 -0.148491
    28 -0.000005 0.000007 3.713254 -0.099865 -3.047560 5.708027
    29 18.045723 0.000000 0.000000 0.000000 0.000000 -0.416431
    30 17.597597 0.000000 0.000000 -0.057151 -0.016918 -0.160061
    31 0.000005 -0.000003 -3.713254 0.807324 2.832001 6.176337
    32 18.045721 0.000000 0.000000 0.000000 0.000000 -0.781620
    33 17.597597 0.000000 0.000000 0.179028 0.125864 0.485631
  time 2
    0 0.438479 2.261939 0.368674 0.000000 0.000000 -1.571017
    1 -0.765652 0.000000 0.000000 -1.570795 -1.570787 0.000000
    2 1.293670 0.684478 -0.000001 -0.008628 -0.002146 0.012433
    3 5.309685 -0.003834 0.000000 -0.011401 -0.025024 0.091650
    4 4.826790 -0.004591 0.000000 -0.076469 0.041874 0.137305
    5 5.792767 -0.005304 0.000000 -0.250245 0.008677 0.087934
    6 6.662322 -0.001452 0.000000 -0.016179 0.004411 0.589853
    7 -2.928495 1.801988 4.351345 1.009329 -1.216554 -4.710550
    8 4.827512 0.000000 -0.000002 0.558254 0.467890 -1.581224
    9 11.140032 0.000000 0.000000 0.000000 0.000000 -0.985555
    10 10.314563 -0.000001 0.000001 -1.982598 -0.367570 0.224022
    11 1.646836 0.445664 -1.699647 -0.161704 0.581044 -0.283978
    12 0.928312 0.000000 0.000000 0.000000 0.000000 0.000000
    13 0.928313 0.000000 -0.000001 0.000000 0.000000 0.000000
    14 2.979373 -0.388274 -0.044205 -0.041673 -0.012835 1.254620
    15 1.435262 -0.000001 -0.000001 0.000000 0.000000 0.872146
    16 1.482593 -0.000001 0.000001 0.000000 0.000000 0.907041
    17 -2.670674 1.786398 -4.128677 -1.190396 1.722746 -4.917793
    18 4.972047 0.000000 0.000000 -1.342586 -0.661809 0.451727
    19 11.585358 0.000000 0.000001 0.000000 0.000000 -2.315769
    20 10.127058 0.000000 0.000001 2.022472 0.337878 0.382467
    21 1.537458 0.109715 1.664489 -0.264662 -0.055995 0.783079
    22 0.928313 0.000000 0.000002 0.000000 0.000000 -0.453501
    23 0.928311 0.000000 0.000001 0.000000 0.000000 0.000000
    24 2.686395 -0.427337 0.044204 0.035177 0.025790 0.915446
    25 1.435260 0.000000 0.000001 0.000000 0.000000 1.335014
    26 1.482593 0.000000 -0.000001 0.000000 0.000000 1.168644
    27 2.046984 0.000001 0.000000 0.301451 -0.191212 -0.120753
    28 -0.000005 0.000007 3.713254 -0.099674 -3.047273 5.707356
    29 18.045723 0.000000 0.000000 0.000000 0.000000 -0.419539
    30 17.597597 0.000000 0.000000 -0.057075 -0.017140 -0.157631
    31 0.000005 -0.000003 -3.713254 0.807612 2.832289 6.177583
    32 18.045721 0.000000 0.000000 0.000000 0.000000 -0.780912
    33 17.597597 0.000000 0.000000 0.179062 0.126515 0.486047
  time 3
    0 0.438479 2.261939 0.368674 0.000000 0.000000 -1.571017
    1 -0.734401 0.000000 0.000000 -1.570795 -1.570787 0.000000
    2 1.293670 0.684478 -0.000001 -0.008628 -0.002146 0.012433
    3 5.309685 -0.003834 0.000000 -0.011708 -0.023202 0.097708
    4 4.826790 -0.004591 0.000000 -0.075153 0.039933 0.122312
    5 5.792767 -0.005304 0.000000 -0.250101 0.005525 0.070431
    6 6.662322 -0.001452 0.000000 -0.013507 0.007490 0.631806
    7 -2.862086 1.934805 4.339626 1.002236 -1.214159 -4.745906
    8 4.827512 0.000000 -0.000002 0.543905 0.498503 -1.590409
    9 11.140032 0.000000 0.000000 0.000000 0.000000 -0.974035
    10 10.314563 -0.000001 0.000001 -1.981839 -0.371785 0.219145
    11 1.646836 0.445664 -1.699647 -0.161704 0.581044 -0.283978
    12 0.928312 0.000000 0.000000 0.000000 0.000000 0.000000
    13 0.928313 0.000000 -0.000001 0.000000 0.000000 0.000000
    14 2.979373 -0.388274 -0.044205 -0.041673 -0.012835 1.254620
    15 1.435262 -0.000001 -0.000001 0.000000 0.000000 0.872146
    16 1.482593 -0.000001 0.000001 0.000000 0.000000 0.907041
    17 -2.588640 1.891870 -4.140396 -1.125817 1.727820 -4.894997
    18 4.972047 0.000000 0.000000 -1.372977 -0.647426 0.470962
    19 11.585358 0.000000 0.000001 0.000000 0.000000 -2.316096
    20 10.127058 0.000000 0.000001 2.021841 0.339012 0.380166
    21 1.537458 0.109715 1.664489 -0.264662 -0.055995 0.783079
    22 0.928313 0.000000 0.000002 0.000000 0.000000 -0.453501
    23 0.928311 0.000000 0.000001 0.000000 0.000000 0.000000
    24 2.686395 -0.427337 0.044204 0.035177 0.025790 0.915446
    25 1.435260 0.000000 0.000001 0.000000 0.000000 1.335014
    26 1.482593 0.000000 -0.000001 0.000000 0.000000 1.168644
    27 2.046984 0.000001 0.000000 0.295247 -0.193307 -0.144537
    28 -0.000005 0.000007 3.713254 -0.099482 -3.047081 5.706685
    29 18.045723 0.000000 0.000000 0.000000 0.000000 -0.422500
    30 17.597597 0.000000 0.000000 -0.056999 -0.017337 -0.155293
    31 0.000005 -0.000003 -3.713254 0.807804 2.832672 6.178830
    32 18.045721 0.000000 0.000000 0.000000 0.000000 -0.780046
    33 17.597597 0.000000 0.000000 0.179096 0.127166 0.486324
  time 4
    0 0.438479 2.261939 0.368674 0.000000 0.000000 -1.571017
    1 -0.714870 0.000000 0.000000 -1.570795 -1.570787 0.000000
    2 1.293670 0.684478 -0.000001 -0.008628 -0.002146 0.012433
    3 5.309685 -0.003834 0.000000 -0.011997 -0.021524 0.103361
    4 4.826790 -0.004591 0.000000 -0.073932 0.038267 0.109436
    5 5.792767 -0.005304 0.000000 -0.249958 0.002685 0.054236
    6 6.662322 -0.001452 0.000000 -0.010654 0.010444 0.673702
    7 -2.795678 2.063715 4.339626 0.994759 -1.211823 -4.780976
    8 4.827512 0.000000 -0.000002 0.530114 0.525279 -1.599507
    9 11.140032 0.000000 0.000000 0.000000 0.000000 -0.964544
    10 10.314563 -0.000001 0.000001 -1.981365 -0.375345 0.215719
    11 1.646836 0.445664 -1.699647 -0.161704 0.581044 -0.283978
    12 0.928312 0.000000 0.000000 0.000000 0.000000 0.000000
    13 0.928313 0.000000 -0.000001 0.000000 0.000000 0.000000
    14 2.979373 -0.388274 -0.044205 -0.041673 -0.012835 1.254620
    15 1.435262 -0.000001 -0.000001 0.000000 0.000000 0.872146
    16 1.482593 -0.000001 0.000001 0.000000 0.000000 0.907041
    17 -2.490981 1.985622 -4.140396 -1.055410 1.734261 -4.866167
    18 4.972047 0.000000 0.000000 -1.401491 -0.635374 0.488266
    19 11.585358 0.000000 0.000001 0.000000 0.000000 -2.316341
    20 10.127058 0.000000 0.000001 2.021070 0.340336 0.377265
    21 1.537458 0.109715 1.664489 -0.264662 -0.055995 0.783079
    22 0.928313 0.000000 0.000002 0.000000 0.000000 -0.453501
    23 0.928311 0.000000 0.000001 0.000000 0.000000 0.000000
    24 2.686395 -0.427337 0.044204 0.035177 0.025790 0.915446
    25 1.435260 0.000000 0.000001 0.000000 0.000000 1.335014
    26 1.482593 0.000000 -0.000001 0.000000 0.000000 1.168644
    27 2.046984 0.000001 0.000000 0.289517 -0.195136 -0.171424
    28 -0.000005 0.000007 3.713254 -0.099386 -3.046889 5.706206
    29 18.045723 0.000000 0.000000 0.000000 0.000000 -0.424942
    30 17.597597 0.000000 0.000000 -0.056999 -0.017484 -0.153413
    31 0.000005 -0.000003 -3.713254 0.807899 2.832864 6.179788
    32 18.045721 0.000000 0.000000 0.000000 0.000000 -0.779495
    33 17.597597 0.000000 0.000000 0.179096 0.127738 0.486555
  time 5
    0 0.438479 2.261939 0.368674 0.000000 0.000000 -1.571017
    1 -0.691431 0.000000 0.000000 -1.570795 -1.570787 0.000000
    2 1.293670 0.684478 -0.000001 -0.008628 -0.002146 0.012433
    3 5.309685 -0.003834 0.000000 -0.012201 -0.020086 0.108201
    4 4.826790 -0.004591 0.000000 -0.073112 0.037068 0.100330
    5 5.792767 -0.005304 0.000000 -0.249724 0.000384 0.040242
    6 6.662322 -0.001452 0.000000 -0.007706 0.013290 0.715684
    7 -2.713644 2.188719 4.324000 0.987283 -1.209605 -4.815950
    8 4.827512 0.000000 -0.000002 0.518635 0.545574 -1.607219
    9 11.140032 0.000000 0.000000 0.000000 0.000000 -0.958313
    10 10.314563 -0.000001 0.000001 -1.981365 -0.377874 0.214094
    11 1.646836 0.445664 -1.699647 -0.161704 0.581044 -0.283978
    12 0.928312 0.000000 0.000000 0.000000 0.000000 0.000000
    13 0.928313 0.000000 -0.000001 0.000000 0.000000 0.000000
    14 2.979373 -0.388274 -0.044205 -0.041673 -0.012835 1.254620
    15 1.435262 -0.000001 -0.000001 0.000000 0.000000 0.872146
    16 1.482593 -0.000001 0.000001 0.000000 0.000000 0.907041
    17 -2.397228 2.079375 -4.156022 -0.986722 1.741754 -4.838774
    18 4.972047 0.000000 0.000000 -1.425504 -0.627018 0.502243
    19 11.585358 0.000000 0.000001 0.000000 0.000000 -2.316667
    20 10.127058 0.000000 0.000001 2.020158 0.341660 0.374163
    21 1.537458 0.109715 1.664489 -0.264662 -0.055995 0.783079
    22 0.928313 0.000000 0.000002 0.000000 0.000000 -0.453501
    23 0.928311 0.000000 0.000001 0.000000 0.000000 0.000000
    24 2.686395 -0.427337 0.044204 0.035177 0.025790 0.915446
    25 1.435260 0.000000 0.000001 0.000000 0.000000 1.335014
    26 1.482593 0.000000 -0.000001 0.000000 0.000000 1.168644
    27 2.046984 0.000001 0.000000 0.284692 -0.196611 -0.203480
    28 -0.000005 0.000007 3.713254 -0.099290 -3.046793 5.705823
    29 18.045723 0.000000 0.000000 0.000000 0.000000 -0.426497
    30 17.597597 0.000000 0.000000 -0.056999 -0.017558 -0.152175
    31 0.000005 -0.000003 -3.713254 0.807899 2.833056 6.180460
    32 18.045721 0.000000 0.000000 0.000000 0.000000 -0.779180
    33 17.597597 0.000000 0.000000 0.179096 0.128093 0.486694
  time 6
    0 0.438479 2.261939 0.368674 0.000000 0.000000 -1.571017
    1 -0.683619 0.000000 0.000000 -1.570795 -1.570787 0.000000
    2 1.293670 0.684478 -0.000001 -0.008628 -0.002146 0.012433
    3 5.309685 -0.003834 0.000000 -0.012405 -0.019032 0.111839
    4 4.826790 -0.004591 0.000000 -0.072597 0.036385 0.094972
    5 5.792767 -0.005304 0.000000 -0.249436 -0.001402 0.026746
    6 6.662322 -0.001452 0.000000 -0.004638 0.016025 0.757637
    7 -2.627704 2.309816 4.312281 0.979615 -1.207476 -4.850636
    8 4.827512 0.000000 -0.000002 0.508431 0.562373 -1.613978
    9 11.140032 0.000000 0.000000 0.000000 0.000000 -0.953893
    10 10.314563 -0.000001 0.000001 -1.981365 -0.380028 0.213455
    11 1.646836 0.445664 -1.699647 -0.161704 0.581044 -0.283978
    12 0.928312 0.000000 0.000000 0.000000 0.000000 0.000000
    13 0.928313 0.000000 -0.000001 0.000000 0.000000 0.000000
    14 2.979373 -0.388274 -0.044205 -0.041673 -0.012835 1.254620
    15 1.435262 -0.000001 -0.000001 0.000000 0.000000 0.872146
    16 1.482593 -0.000001 0.000001 0.000000 0.000000 0.907041
    17 -2.295663 2.165315 -4.163834 -0.924818 1.749614 -4.818564
    18 4.972047 0.000000 0.000000 -1.446140 -0.620429 0.513823
    19 11.585358 0.000000 0.000001 0.000000 0.000000 -2.316994
    20 10.127058 0.000000 0.000001 2.019317 0.342984 0.371212
    21 1.537458 0.109715 1.664489 -0.264662 -0.055995 0.783079
    22 0.928313 0.000000 0.000002 0.000000 0.000000 -0.453501
    23 0.928311 0.000000 0.000001 0.000000 0.000000 0.000000
    24 2.686395 -0.427337 0.044204 0.035177 0.025790 0.915446
    25 1.435260 0.000000 0.000001 0.000000 0.000000 1.335014
    26 1.482593 0.000000 -0.000001 0.000000 0.000000 1.168644
    27 2.046984 0.000001 0.000000 0.280470 -0.198057 -0.238883
    28 -0.000005 0.000007 3.713254 -0.099290 -3.046697 5.705631
    29 18.045723 0.000000 0.000000 0.000000 0.000000 -0.427533
    30 17.597597 0.000000 0.000000 -0.056999 -0.017558 -0.151396
    31 0.000005 -0.000003 -3.713254 0.808091 2.833152 6.180843
    32 18.045721 0.000000 0.000000 0.000000 0.000000 -0.778944
    33 17.597597 0.000000 0.000000 0.179096 0.128330 0.486786
  time 7
    0 0.438479 2.261939 0.368674 0.000000 0.000000 -1.571017
    1 -0.671900 0.000000 0.000000 -1.570795 -1.570787 0.000000
    2 1.293670 0.684478 -0.000001 -0.008628 -0.002146 0.012433
    3 5.309685 -0.003834 0.000000 -0.012525 -0.018277 0.114348
    4 4.826790 -0.004591 0.000000 -0.072349 0.036074 0.092282
    5 5.792767 -0.005304 0.000000 -0.249076 -0.002756 0.014350
    6 6.662322 -0.001452 0.000000 -0.001450 0.018608 0.799590
    7 -2.541764 2.427007 4.300562 0.971659 -1.205436 -4.885226
    8 4.827512 0.000000 -0.000002 0.499662 0.576102 -1.619957
    9 11.140032 0.000000 0.000000 0.000000 0.000000 -0.950198
    10 10.314563 -0.000001 0.000001 -1.981460 -0.381902 0.213107
    11 1.646836 0.445664 -1.699647 -0.161704 0.581044 -0.283978
    12 0.928312 0.000000 0.000000 0.000000 0.000000 0.000000
    13 0.928313 0.000000 -0.000001 0.000000 0.000000 0.000000
    14 2.979373 -0.388274 -0.044205 -0.041673 -0.012835 1.254620
    15 1.435262 -0.000001 -0.000001 0.000000 0.000000 0.872146
    16 1.482593 -0.000001 0.000001 0.000000 0.000000 0.907041
    17 -2.198004 2.251256 -4.171647 -0.873995 1.757107 -4.809178
    18 4.972047 0.000000 0.000000 -1.463211 -0.614805 0.523008
    19 11.585358 0.000000 0.000001 0.000000 0.000000 -2.317239
    20 10.127058 0.000000 0.000001 2.018545 0.344213 0.368661
    21 1.537458 0.109715 1.664489 -0.264662 -0.055995 0.783079
    22 0.928313 0.000000 0.000002 0.000000 0.000000 -0.453501
    23 0.928311 0.000000 0.000001 0.000000 0.000000 0.000000
    24 2.686395 -0.427337 0.044204 0.035177 0.025790 0.915446
    25 1.435260 0.000000 0.000001 0.000000 0.000000 1.335014
    26 1.482593 0.000000 -0.000001 0.000000 0.000000 1.168644
    27 2.046984 0.000001 0.000000 0.276765 -0.199414 -0.276961
    28 -0.000005 0.000007 3.713254 -0.099290 -3.046697 5.705439
    29 18.045723 0.000000 0.000000 0.000000 0.000000 -0.428347
    30 17.597597 0.000000 0.000000 -0.056999 -0.017632 -0.150708
    31 0.000005 -0.000003 -3.713254 0.808091 2.833152 6.181226
    32 18.045721 0.000000 0.000000 0.000000 0.000000 -0.778629
    33 17.597597 0.000000 0.000000 0.179062 0.128527 0.486832
  time 8
    0 0.438479 2.261939 0.368674 0.000000 0.000000 -1.571017
    1 -0.679712 0.000000 0.000000 -1.570795 -1.570787 0.000000
    2 1.293670 0.684478 -0.000001 -0.008628 -0.002146 0.012433
    3 5.309685 -0.003834 0.000000 -0.012576 -0.017809 0.115867
    4 4.826790 -0.004591 0.000000 -0.072349 0.036074 0.092282
    5 5.792767 -0.005304 0.000000 -0.248860 -0.003284 0.007083
    6 6.662322 -0.001452 0.000000 -0.001450 0.018608 0.799590
    7 -2.541764 2.427007 4.300562 0.971659 -1.205436 -4.885226
    8 4.827512 0.000000 -0.000002 0.495038 0.582157 -1.623076
    9 11.140032 0.000000 0.000000 0.000000 0.000000 -0.949184
    10 10.314563 -0.000001 0.000001 -1.981650 -0.382745 0.213687
    11 1.646836 0.445664 -1.699647 -0.161704 0.581044 -0.283978
    12 0.928312 0.000000 0.000000 0.000000 0.000000 0.000000
    13 0.928313 0.000000 -0.000001 0.000000 0.000000 0.000000
    14 2.979373 -0.388274 -0.044205 -0.041673 -0.012835 1.254620
    15 1.435262 -0.000001 -0.000001 0.000000 0.000000 0.872146
    16 1.482593 -0.000001 0.000001 0.000000 0.000000 0.907041
    17 -2.198004 2.251256 -4.171647 -0.850207 1.760998 -4.784945
    18 4.972047 0.000000 0.000000 -1.472216 -0.613117 0.527800
    19 11.585358 0.000000 0.000001 0.000000 0.000000 -2.317484
    20 10.127058 0.000000 0.000001 2.018054 0.344875 0.366860
    21 1.537458 0.109715 1.664489 -0.264662 -0.055995 0.783079
    22 0.928313 0.000000 0.000002 0.000000 0.000000 -0.453501
    23 0.928311 0.000000 0.000001 0.000000 0.000000 0.000000
    24 2.686395 -0.427337 0.044204 0.035177 0.025790 0.915446
    25 1.435260 0.000000 0.000001 0.000000 0.000000 1.335014
    26 1.482593 0.000000 -0.000001 0.000000 0.000000 1.168644
    27 2.046984 0.000001 0.000000 0.275903 -0.203692 -0.261998
    28 -0.000005 0.000007 3.713254 -0.099194 -3.046697 5.705439
    29 18.045723 0.000000 0.000000 0.000000 0.000000 -0.428347
    30 17.597597 0.000000 0.000000 -0.056999 -0.017558 -0.150708
    31 0.000005 -0.000003 -3.713254 0.808187 2.833152 6.181131
    32 18.045721 0.000000 0.000000 0.000000 0.000000 -0.778629
    33 17.597597 0.000000 0.000000 0.179028 0.128547 0.486786
  time 9
    0 0.438479 2.261939 0.368674 0.000000 0.000000 -1.571017
    1 -0.691431 0.000000 0.000000 -1.570795 -1.570787 0.000000
    2 1.293670 0.684478 -0.000001 -0.008628 -0.002146 0.012433
    3 5.309685 -0.003834 0.000000 -0.012576 -0.017737 0.116132
    4 4.826790 -0.004591 0.000000 -0.072597 0.036385 0.094972
    5 5.792767 -0.005304 0.000000 -0.248860 -0.002565 0.009263
    6 6.662322 -0.001452 0.000000 -0.001450 0.018608 0.799590
    7 -2.541764 2.427007 4.300562 0.971659 -1.205436 -4.885226
    8 4.827512 0.000000 -0.000002 0.497270 0.575847 -1.621863
    9 11.140032 0.000000 0.000000 0.000000 0.000000 -0.952951
    10 10.314563 -0.000001 0.000001 -1.982218 -0.381621 0.216126
    11 1.646836 0.445664 -1.699647 -0.161704 0.581044 -0.283978
    12 0.928312 0.000000 0.000000 0.000000 0.000000 0.000000
    13 0.928313 0.000000 -0.000001 0.000000 0.000000 0.000000
    14 2.979373 -0.388274 -0.044205 -0.041673 -0.012835 1.254620
    15 1.435262 -0.000001 -0.000001 0.000000 0.000000 0.872146
    16 1.482593 -0.000001 0.000001 0.000000 0.000000 0.907041
    17 -2.198004 2.251256 -4.171647 -0.835782 1.763496 -4.770387
    18 4.972047 0.000000 0.000000 -1.470621 -0.618420 0.527134
    19 11.585358 0.000000 0.000001 0.000000 0.000000 -2.317566
    20 10.127058 0.000000 0.000001 2.017774 0.345348 0.365710
    21 1.537458 0.109715 1.664489 -0.264662 -0.055995 0.783079
    22 0.928313 0.000000 0.000002 0.000000 0.000000 -0.453501
    23 0.928311 0.000000 0.000001 0.000000 0.000000 0.000000
    24 2.686395 -0.427337 0.044204 0.035177 0.025790 0.915446
    25 1.435260 0.000000 0.000001 0.000000 0.000000 1.335014
    26 1.482593 0.000000 -0.000001 0.000000 0.000000 1.168644
    27 2.046984 0.000001 0.000000 0.276678 -0.206790 -0.258105
    28 -0.000005 0.000007 3.713254 -0.099290 -3.046889 5.705727
    29 18.045723 0.000000 0.000000 0.000000 0.000000 -0.427237
    30 17.597597 0.000000 0.000000 -0.057075 -0.017484 -0.151625
    31 0.000005 -0.000003 -3.713254 0.808091 2.832960 6.180747
    32 18.045721 0.000000 0.000000 0.000000 0.000000 -0.778944
    33 17.597597 0.000000 0.000000 0.178995 0.128330 0.486647
  time 10
    0 0.438479 2.261939 0.368674 0.000000 0.000000 -1.571017
    1 -0.714870 0.007813 0.000000 -1.570795 -1.570787 0.000000
    2 1.293670 0.684478 -0.000001 -0.008628 -0.002146 0.012433
    3 5.309685 -0.003834 0.000000 -0.012542 -0.018133 0.114878
    4 4.826790 -0.004591 0.000000 -0.073112 0.037068 0.100330
    5 5.792767 -0.005304 0.000000 -0.249112 -0.000467 0.021950
    6 6.662322 -0.001452 0.000000 -0.001450 0.018608 0.799590
    7 -2.541764 2.427007 4.300562 0.971659 -1.205436 -4.885226
    8 4.827512 0.000000 -0.000002 0.506597 0.555722 -1.616317
    9 11.140032 0.000000 0.000000 0.000000 0.000000 -0.962081
    10 10.314563 -0.000001 0.000001 -1.983451 -0.378061 0.220945
    11 1.646836 0.445664 -1.699647 -0.161704 0.581044 -0.283978
    12 0.928312 0.000000 0.000000 0.000000 0.000000 0.000000
    13 0.928313 0.000000 -0.000001 0.000000 0.000000 0.000000
    14 2.979373 -0.388274 -0.044205 -0.041673 -0.012835 1.254620
    15 1.435262 -0.000001 -0.000001 0.000000 0.000000 0.872146
    16 1.482593 -0.000001 0.000001 0.000000 0.000000 0.907041
    17 -2.198004 2.251256 -4.171647 -0.826611 1.765099 -4.761096
    18 4.972047 0.000000 0.000000 -1.458052 -0.631598 0.520812
    19 11.585358 0.000000 0.000001 0.000000 0.000000 -2.317648
    20 10.127058 0.000000 0.000001 2.017564 0.345726 0.364959
    21 1.537458 0.109715 1.664489 -0.264662 -0.055995 0.783079
    22 0.928313 0.000000 0.000002 0.000000 0.000000 -0.453501
    23 0.928311 0.000000 0.000001 0.000000 0.000000 0.000000
    24 2.686395 -0.427337 0.044204 0.035177 0.025790 0.915446
    25 1.435260 0.000000 0.000001 0.000000 0.000000 1.335014
    26 1.482593 0.000000 -0.000001 0.000000 0.000000 1.168644
    27 2.046984 0.000001 0.000000 0.278919 -0.208678 -0.266134
    28 -0.000005 0.000007 3.713254 -0.099386 -3.047177 5.706110
    29 18.045723 0.000000 0.000000 0.000000 0.000000 -0.425090
    30 17.597597 0.000000 0.000000 -0.057151 -0.017287 -0.153276
    31 0.000005 -0.000003 -3.713254 0.808091 2.832577 6.179788
    32 18.045721 0.000000 0.000000 0.000000 0.000000 -0.779495
    33 17.597597 0.000000 0.000000 0.178894 0.127896 0.486324
  time 11
    0 0.438479 2.261939 0.368674 0.000000 0.000000 -1.571017
    1 -0.746121 0.007813 0.000000 -1.570795 -1.570787 0.000000
    2 1.293670 0.684478 -0.000001 -0.008628 -0.002146 0.012433
    3 5.309685 -0.003834 0.000000 -0.012405 -0.019032 0.111839
    4 4.826790 -0.004591 0.000000 -0.074066 0.038411 0.110494
    5 5.792767 -0.005304 0.000000 -0.249508 0.002541 0.041446
    6 6.662322 -0.001452 0.000000 -0.001450 0.018608 0.799590
    7 -2.541764 2.427007 4.300562 0.971659 -1.205436 -4.885226
    8 4.827512 0.000000 -0.000002 0.521265 0.524171 -1.607046
    9 11.140032 0.000000 0.000000 0.000000 0.000000 -0.976209
    10 10.314563 -0.000001 0.000001 -1.985157 -0.372628 0.227855
    11 1.646836 0.445664 -1.699647 -0.161704 0.581044 -0.283978
    12 0.928312 0.000000 0.000000 0.000000 0.000000 0.000000
    13 0.928313 0.000000 -0.000001 0.000000 0.000000 0.000000
    14 2.979373 -0.388274 -0.044205 -0.041673 -0.012835 1.254620
    15 1.435262 -0.000001 -0.000001 0.000000 0.000000 0.872146
    16 1.482593 -0.000001 0.000001 0.000000 0.000000 0.907041
    17 -2.198004 2.251256 -4.171647 -0.822885 1.765809 -4.757265
    18 4.972047 0.000000 0.000000 -1.435728 -0.651444 0.508832
    19 11.585358 0.000000 0.000001 0.000000 0.000000 -2.317648
    20 10.127058 0.000000 0.000001 2.017423 0.345916 0.364709
    21 1.537458 0.109715 1.664489 -0.264662 -0.055995 0.783079
    22 0.928313 0.000000 0.000002 0.000000 0.000000 -0.453501
    23 0.928311 0.000000 0.000001 0.000000 0.000000 0.000000
    24 2.686395 -0.427337 0.044204 0.035177 0.025790 0.915446
    25 1.435260 0.000000 0.000001 0.000000 0.000000 1.335014
    26 1.482593 0.000000 -0.000001 0.000000 0.000000 1.168644
    27 2.046984 0.000001 0.000000 0.282710 -0.209445 -0.284018
    28 -0.000005 0.000007 3.713254 -0.099482 -3.047464 5.706781
    29 18.045723 0.000000 0.000000 0.000000 0.000000 -0.421686
    30 17.597597 0.000000 0.000000 -0.057278 -0.016992 -0.155889
    31 0.000005 -0.000003 -3.713254 0.807899 2.832097 6.178446
    32 18.045721 0.000000 0.000000 0.000000 0.000000 -0.780360
    33 17.597597 0.000000 0.000000 0.178794 0.127186 0.485908
  time 12
    0 0.438479 2.261939 0.368674 0.000000 0.000000 -1.571017
    1 -0.765652 0.007813 0.000000 -1.570795 -1.570787 0.000000
    2 1.293670 0.684478 -0.000001 -0.008628 -0.002146 0.012433
    3 5.309685 -0.003834 0.000000 -0.011946 -0.021752 0.102584
    4 4.826790 -0.004591 0.000000 -0.075420 0.040328 0.125509
    5 5.792767 -0.005304 0.000000 -0.249850 0.006052 0.064472
    6 6.662322 -0.001452 0.000000 -0.001450 0.018608 0.799590
    7 -2.541764 2.427007 4.300562 0.971659 -1.205436 -4.885226
    8 4.827512 0.000000 -0.000002 0.537049 0.489720 -1.596561
    9 11.140032 0.000000 0.000000 0.000000 0.000000 -0.992294
    10 10.314563 -0.000001 0.000001 -1.987052 -0.366633 0.235809
    11 1.646836 0.445664 -1.699647 -0.161704 0.581044 -0.283978
    12 0.928312 0.000000 0.000000 0.000000 0.000000 0.000000
    13 0.928313 0.000000 -0.000001 0.000000 0.000000 0.000000
    14 2.979373 -0.388274 -0.044205 -0.041673 -0.012835 1.254620
    15 1.435262 -0.000001 -0.000001 0.000000 0.000000 0.872146
    16 1.482593 -0.000001 0.000001 0.000000 0.000000 0.907041
    17 -2.198004 2.251256 -4.171647 -0.825178 1.765415 -4.759564
    18 4.972047 0.000000 0.000000 -1.410309 -0.672335 0.494389
    19 11.585358 0.000000 0.000001 0.000000 0.000000 -2.317648
    20 10.127058 0.000000 0.000001 2.017564 0.345726 0.364859
    21 1.537458 0.109715 1.664489 -0.264662 -0.055995 0.783079
    22 0.928313 0.000000 0.000002 0.000000 0.000000 -0.453501
    23 0.928311 0.000000 0.000001 0.000000 0.000000 0.000000
    24 2.686395 -0.427337 0.044204 0.035177 0.025790 0.915446
    25 1.435260 0.000000 0.000001 0.000000 0.000000 1.335014
    26 1.482593 0.000000 -0.000001 0.000000 0.000000 1.168644
    27 2.046984 0.000001 0.000000 0.287622 -0.209563 -0.304213
    28 -0.000005 0.000007 3.713254 -0.099482 -3.047560 5.707260
    29 18.045723 0.000000 0.000000 0.000000 0.000000 -0.419761
    30 17.597597 0.000000 0.000000 -0.057303 -0.016992 -0.157448
    31 0.000005 -0.000003 -3.713254 0.807899 2.832001 6.177679
    32 18.045721 0.000000 0.000000 0.000000 0.000000 -0.780833
    33 17.597597 0.000000 0.000000 0.178693 0.126732 0.485816
  time 13
    0 0.438479 2.261939 0.368674 0.000000 0.000000 -1.571017
    1 -0.765652 0.000000 0.000000 -1.570795 -1.570787 0.000000
    2 1.293670 0.684478 -0.000001 -0.008628 -0.002146 0.012433
    3 5.309685 -0.003834 0.000000 -0.011248 -0.025839 0.088877
    4 4.826790 -0.004591 0.000000 -0.076946 0.042509 0.142133
    5 5.792767 -0.005304 0.000000 -0.250101 0.009636 0.087851
    6 6.662322 -0.001452 0.000000 -0.004638 0.016025 0.757637
    7 -2.627704 2.309816 4.312281 0.979615 -1.207476 -4.850636
    8 4.827512 0.000000 -0.000002 0.551398 0.458254 -1.586943
    9 11.140032 0.000000 0.000000 0.000000 0.000000 -1.007364
    10 10.314563 -0.000001 0.000001 -1.988663 -0.361013 0.243183
    11 1.646836 0.445664 -1.699647 -0.161704 0.581044 -0.283978
    12 0.928312 0.000000 0.000000 0.000000 0.000000 0.000000
    13 0.928313 0.000000 -0.000001 0.000000 0.000000 0.000000
    14 2.979373 -0.388274 -0.044205 -0.041673 -0.012835 1.254620
    15 1.435262 -0.000001 -0.000001 0.000000 0.000000 0.872146
    16 1.482593 -0.000001 0.000001 0.000000 0.000000 0.907041
    17 -2.295663 2.165315 -4.163834 -0.847437 1.761445 -4.739641
    18 4.972047 0.000000 0.000000 -1.385546 -0.690494 0.479281
    19 11.585358 0.000000 0.000001 0.000000 0.000000 -2.317566
    20 10.127058 0.000000 0.000001 2.017774 0.345537 0.365560
    21 1.537458 0.109715 1.664489 -0.264662 -0.055995 0.783079
    22 0.928313 0.000000 0.000002 0.000000 0.000000 -0.453501
    23 0.928311 0.000000 0.000001 0.000000 0.000000 0.000000
    24 2.686395 -0.427337 0.044204 0.035177 0.025790 0.915446
    25 1.435260 0.000000 0.000001 0.000000 0.000000 1.335014
    26 1.482593 0.000000 -0.000001 0.000000 0.000000 1.168644
    27 2.046984 0.000001 0.000000 0.294084 -0.203161 -0.289066
    28 -0.000005 0.000007 3.713254 -0.099386 -3.047273 5.707356
    29 18.045723 0.000000 0.000000 0.000000 0.000000 -0.419613
    30 17.597597 0.000000 0.000000 -0.057227 -0.017263 -0.157539
    31 0.000005 -0.000003 -3.713254 0.807899 2.832289 6.177679
    32 18.045721 0.000000 0.000000 0.000000 0.000000 -0.780912
    33 17.597597 0.000000 0.000000 0.178659 0.126535 0.486047
  time 14
    0 0.438479 2.261939 0.368674 0.000000 0.000000 -1.571017
    1 -0.785184 0.000000 0.000000 -1.570795 -1.570787 0.000000
    2 1.293670 0.684478 -0.000001 -0.008628 -0.002146 0.012433
    3 5.309685 -0.003834 0.000000 -0.010772 -0.028463 0.079904
    4 4.826790 -0.004591 0.000000 -0.078243 0.044523 0.157126
    5 5.792767 -0.005304 0.000000 -0.250263 0.012764 0.108406
    6 6.662322 -0.001452 0.000000 -0.007706 0.013290 0.715684
    7 -2.713644 2.188719 4.324000 0.987283 -1.209605 -4.815950
    8 4.827512 0.000000 -0.000002 0.564870 0.426618 -1.578538
    9 11.140032 0.000000 0.000000 0.000000 0.000000 -1.020333
    10 10.314563 -0.000001 0.000001 -1.989990 -0.355767 0.248815
    11 1.646836 0.445664 -1.699647 -0.161704 0.581044 -0.283978
    12 0.928312 0.000000 0.000000 0.000000 0.000000 0.000000
    13 0.928313 0.000000 -0.000001 0.000000 0.000000 0.000000
    14 2.979373 -0.388274 -0.044205 -0.041673 -0.012835 1.254620
    15 1.435262 -0.000001 -0.000001 0.000000 0.000000 0.872146
    16 1.482593 -0.000001 0.000001 0.000000 0.000000 0.907041
    17 -2.397228 2.079375 -4.156022 -0.877816 1.756292 -4.728052
    18 4.972047 0.000000 0.000000 -1.357594 -0.707447 0.461977
    19 11.585358 0.000000 0.000001 0.000000 0.000000 -2.317484
    20 10.127058 0.000000 0.000001 2.018054 0.344875 0.366860
    21 1.537458 0.109715 1.664489 -0.264662 -0.055995 0.783079
    22 0.928313 0.000000 0.000002 0.000000 0.000000 -0.453501
    23 0.928311 0.000000 0.000001 0.000000 0.000000 0.000000
    24 2.686395 -0.427337 0.044204 0.035177 0.025790 0.915446
    25 1.435260 0.000000 0.000001 0.000000 0.000000 1.335014
    26 1.482593 0.000000 -0.000001 0.000000 0.000000 1.168644
    27 2.046984 0.000001 0.000000 0.300202 -0.196995 -0.274407
    28 -0.000005 0.000007 3.713254 -0.099386 -3.047369 5.707740
    29 18.045723 0.000000 0.000000 0.000000 0.000000 -0.417837
    30 17.597597 0.000000 0.000000 -0.057227 -0.017263 -0.158961
    31 0.000005 -0.000003 -3.713254 0.807899 2.832193 6.177008
    32 18.045721 0.000000 0.000000 0.000000 0.000000 -0.781148
    33 17.597597 0.000000 0.000000 0.178592 0.126101 0.485908
  time 15
    0 0.438479 2.261939 0.368674 0.000000 0.000000 -1.571017
    1 -0.820342 0.000000 0.000000 -1.570795 -1.570787 0.000000
    2 1.293670 0.684478 -0.000001 -0.008628 -0.002146 0.012433
    3 5.309685 -0.003834 0.000000 -0.010636 -0.029194 0.077466
    4 4.826790 -0.004591 0.000000 -0.079101 0.045889 0.167290
    5 5.792767 -0.005304 0.000000 -0.250353 0.014969 0.122836
    6 6.662322 -0.001452 0.000000 -0.010654 0.010444 0.673702
    7 -2.795678 2.063715 4.339626 0.994759 -1.211823 -4.780976
    8 4.827512 0.000000 -0.000002 0.575951 0.401206 -1.572472
    9 11.140032 0.000000 0.000000 0.000000 0.000000 -1.027144
    10 10.314563 -0.000001 0.000001 -1.990369 -0.352301 0.250557
    11 1.646836 0.445664 -1.699647 -0.161704 0.581044 -0.283978
    12 0.928312 0.000000 0.000000 0.000000 0.000000 0.000000
    13 0.928313 0.000000 -0.000001 0.000000 0.000000 0.000000
    14 2.979373 -0.388274 -0.044205 -0.041673 -0.012835 1.254620
    15 1.435262 -0.000001 -0.000001 0.000000 0.000000 0.872146
    16 1.482593 -0.000001 0.000001 0.000000 0.000000 0.907041
    17 -2.490981 1.985622 -4.140396 -0.932173 1.748090 -4.740887
    18 4.972047 0.000000 0.000000 -1.328235 -0.717973 0.443408
    19 11.585358 0.000000 0.000001 0.000000 0.000000 -2.317157
    20 10.127058 0.000000 0.000001 2.018896 0.343741 0.369661
    21 1.537458 0.109715 1.664489 -0.264662 -0.055995 0.783079
    22 0.928313 0.000000 0.000002 0.000000 0.000000 -0.453501
    23 0.928311 0.000000 0.000001 0.000000 0.000000 0.000000
    24 2.686395 -0.427337 0.044204 0.035177 0.025790 0.915446
    25 1.435260 0.000000 0.000001 0.000000 0.000000 1.335014
    26 1.482593 0.000000 -0.000001 0.000000 0.000000 1.168644
    27 2.046984 0.000001 0.000000 0.304984 -0.191507 -0.255489
    28 -0.000005 0.000007 3.713254 -0.099674 -3.047752 5.708315
    29 18.045723 0.000000 0.000000 0.000000 0.000000 -0.414802
    30 17.597597 0.000000 0.000000 -0.057354 -0.016992 -0.161345
    31 0.000005 -0.000003 -3.713254 0.807899 2.831714 6.175762
    32 18.045721 0.000000 0.000000 0.000000 0.000000 -0.782014
    33 17.597597 0.000000 0.000000 0.178492 0.125509 0.485493
  time 16
    0 0.438479 2.261939 0.368674 0.000000 0.000000 -1.571017
    1 -0.832061 0.007813 0.000000 -1.570795 -1.570787 0.000000
    2 1.293670 0.684478 -0.000001 -0.008628 -0.002146 0.012433
    3 5.309685 -0.003834 0.000000 -0.010585 -0.029398 0.076759
    4 4.826790 -0.004591 0.000000 -0.079502 0.046440 0.171590
    5 5.792767 -0.005304 0.000000 -0.250371 0.015975 0.129418
    6 6.662322 -0.001452 0.000000 -0.013507 0.007490 0.631806
    7 -2.862086 1.934805 4.339626 1.002236 -1.214159 -4.745906
    8 4.827512 0.000000 -0.000002 0.582328 0.390973 -1.568660
    9 11.140032 0.000000 0.000000 0.000000 0.000000 -1.026564
    10 10.314563 -0.000001 0.000001 -1.989421 -0.352114 0.248061
    11 1.646836 0.445664 -1.699647 -0.161704 0.581044 -0.283978
    12 0.928312 0.000000 0.000000 0.000000 0.000000 0.000000
    13 0.928313 0.000000 -0.000001 0.000000 0.000000 0.000000
    14 2.979373 -0.388274 -0.044205 -0.041673 -0.012835 1.254620
    15 1.435262 -0.000001 -0.000001 0.000000 0.000000 0.872146
    16 1.482593 -0.000001 0.000001 0.000000 0.000000 0.907041
    17 -2.588640 1.891870 -4.140396 -1.018057 1.737389 -4.785903
    18 4.972047 0.000000 0.000000 -1.305911 -0.717250 0.428632
    19 11.585358 0.000000 0.000001 0.000000 0.000000 -2.316667
    20 10.127058 0.000000 0.000001 2.020158 0.341660 0.374163
    21 1.537458 0.109715 1.664489 -0.264662 -0.055995 0.783079
    22 0.928313 0.000000 0.000002 0.000000 0.000000 -0.453501
    23 0.928311 0.000000 0.000001 0.000000 0.000000 0.000000
    24 2.686395 -0.427337 0.044204 0.035177 0.025790 0.915446
    25 1.435260 0.000000 0.000001 0.000000 0.000000 1.335014
    26 1.482593 0.000000 -0.000001 0.000000 0.000000 1.168644
    27 2.046984 0.000001 0.000000 0.308086 -0.187406 -0.224284
    28 -0.000005 0.000007 3.713254 -0.099674 -3.047848 5.708698
    29 18.045723 0.000000 0.000000 0.000000 0.000000 -0.413248
    30 17.597597 0.000000 0.000000 -0.057430 -0.016845 -0.162491
    31 0.000005 -0.000003 -3.713254 0.807899 2.831522 6.175187
    32 18.045721 0.000000 0.000000 0.000000 0.000000 -0.782250
    33 17.597597 0.000000 0.000000 0.178458 0.125214 0.485308
  time 17
    0 0.438479 2.261939 0.368674 0.000000 0.000000 -1.571017
    1 -0.839873 0.007813 0.000000 -1.570795 -1.570787 0.000000
    2 1.293670 0.684478 -0.000001 -0.008628 -0.002146 0.012433
    3 5.309685 -0.003834 0.000000 -0.010636 -0.029254 0.077272
    4 4.826790 -0.004591 0.000000 -0.079521 0.046512 0.172097
    5 5.792767 -0.005304 0.000000 -0.250371 0.016095 0.130269
    6 6.662322 -0.001452 0.000000 -0.016179 0.004411 0.589853
    7 -2.928495 1.801988 4.351345 1.009329 -1.216554 -4.710550
    8 4.827512 0.000000 -0.000002 0.585198 0.390717 -1.566580
    9 11.140032 0.000000 0.000000 0.000000 0.000000 -1.022072
    10 10.314563 -0.000001 0.000001 -1.987810 -0.353613 0.243706
    11 1.646836 0.445664 -1.699647 -0.161704 0.581044 -0.283978
    12 0.928312 0.000000 0.000000 0.000000 0.000000 0.000000
    13 0.928313 0.000000 -0.000001 0.000000 0.000000 0.000000
    14 2.979373 -0.388274 -0.044205 -0.041673 -0.012835 1.254620
    15 1.435262 -0.000001 -0.000001 0.000000 0.000000 0.872146
    16 1.482593 -0.000001 0.000001 0.000000 0.000000 0.907041
    17 -2.670674 1.786398 -4.128677 -1.119607 1.727636 -4.846053
    18 4.972047 0.000000 0.000000 -1.291372 -0.710340 0.418582
    19 11.585358 0.000000 0.000001 0.000000 0.000000 -2.316177
    20 10.127058 0.000000 0.000001 2.021491 0.339580 0.378865
    21 1.537458 0.109715 1.664489 -0.264662 -0.055995 0.783079
    22 0.928313 0.000000 0.000002 0.000000 0.000000 -0.453501
    23 0.928311 0.000000 0.000001 0.000000 0.000000 0.000000
    24 2.686395 -0.427337 0.044204 0.035177 0.025790 0.915446
    25 1.435260 0.000000 0.000001 0.000000 0.000000 1.335014
    26 1.482593 0.000000 -0.000001 0.000000 0.000000 1.168644
    27 2.046984 0.000001 0.000000 0.310154 -0.184338 -0.184563
    28 -0.000005 0.000007 3.713254 -0.099674 -3.047944 5.708794
    29 18.045723 0.000000 0.000000 0.000000 0.000000 -0.412804
    30 17.597597 0.000000 0.000000 -0.057455 -0.016795 -0.162858
    31 0.000005 -0.000003 -3.713254 0.807899 2.831426 6.174995
    32 18.045721 0.000000 0.000000 0.000000 0.000000 -0.782486
    33 17.597597 0.000000 0.000000 0.178391 0.125095 0.485169
  time 18
    0 0.438479 2.261939 0.368674 0.000000 0.000000 -1.571017
    1 -0.839873 0.007813 0.000000 -1.570795 -1.570787 0.000000
    2 1.293670 0.684478 -0.000001 -0.008628 -0.002146 0.012433
    3 5.309685 -0.003834 0.000000 -0.010687 -0.028955 0.078331
    4 4.826790 -0.004591 0.000000 -0.079426 0.046296 0.170532
    5 5.792767 -0.005304 0.000000 -0.250371 0.015736 0.127757
    6 6.662322 -0.001452 0.000000 -0.016179 0.004411 0.589853
    7 -2.928495 1.801988 4.351345 1.009329 -1.216554 -4.710550
    8 4.827512 0.000000 -0.000002 0.585597 0.395919 -1.565800
    9 11.140032 0.000000 0.000000 0.000000 0.000000 -1.016638
    10 10.314563 -0.000001 0.000001 -1.986294 -0.355767 0.239351
    11 1.646836 0.445664 -1.699647 -0.161704 0.581044 -0.283978
    12 0.928312 0.000000 0.000000 0.000000 0.000000 0.000000
    13 0.928313 0.000000 -0.000001 0.000000 0.000000 0.000000
    14 2.979373 -0.388274 -0.044205 -0.041673 -0.012835 1.254620
    15 1.435262 -0.000001 -0.000001 0.000000 0.000000 0.872146
    16 1.482593 -0.000001 0.000001 0.000000 0.000000 0.907041
    17 -2.670674 1.786398 -4.128677 -1.190396 1.722746 -4.917793
    18 4.972047 0.000000 0.000000 -1.284900 -0.701984 0.413924
    19 11.585358 0.000000 0.000001 0.000000 0.000000 -2.315769
    20 10.127058 0.000000 0.000001 2.022472 0.337878 0.382467
    21 1.537458 0.109715 1.664489 -0.264662 -0.055995 0.783079
    22 0.928313 0.000000 0.000002 0.000000 0.000000 -0.453501
    23 0.928311 0.000000 0.000001 0.000000 0.000000 0.000000
    24 2.686395 -0.427337 0.044204 0.035177 0.025790 0.915446
    25 1.435260 0.000000 0.000001 0.000000 0.000000 1.335014
    26 1.482593 0.000000 -0.000001 0.000000 0.000000 1.168644
    27 2.046984 0.000001 0.000000 0.309723 -0.184751 -0.181400
    28 -0.000005 0.000007 3.713254 -0.099674 -3.047944 5.708794
    29 18.045723 0.000000 0.000000 0.000000 0.000000 -0.412952
    30 17.597597 0.000000 0.000000 -0.057506 -0.016795 -0.162812
    31 0.000005 -0.000003 -3.713254 0.807899 2.831426 6.175091
    32 18.045721 0.000000 0.000000 0.000000 0.000000 -0.782486
    33 17.597597 0.000000 0.000000 0.178357 0.125154 0.485169
  time 19
    0 0.438479 2.261939 0.368674 0.000000 0.000000 -1.571017
    1 -0.832061 0.007813 0.000000 -1.570795 -1.570787 0.000000
    2 1.293670 0.684478 -0.000001 -0.008628 -0.002146 0.012433
    3 5.309685 -0.003834 0.000000 -0.010755 -0.028607 0.079427
    4 4.826790 -0.004591 0.000000 -0.079235 0.046033 0.168371
    5 5.792767 -0.005304 0.000000 -0.250353 0.015208 0.124497
    6 6.662322 -0.001452 0.000000 -0.016179 0.004411 0.589853
    7 -2.928495 1.801988 4.351345 1.009329 -1.216554 -4.710550
    8 4.827512 0.000000 -0.000002 0.584002 0.401377 -1.566580
    9 11.140032 0.000000 0.000000 0.000000 0.000000 -1.013595
    10 10.314563 -0.000001 0.000001 -1.985915 -0.356891 0.237667
    11 1.646836 0.445664 -1.699647 -0.161704 0.581044 -0.283978
    12 0.928312 0.000000 0.000000 0.000000 0.000000 0.000000
    13 0.928313 0.000000 -0.000001 0.000000 0.000000 0.000000
    14 2.979373 -0.388274 -0.044205 -0.041673 -0.012835 1.254620
    15 1.435262 -0.000001 -0.000001 0.000000 0.000000 0.872146
    16 1.482593 -0.000001 0.000001 0.000000 0.000000 0.907041
    17 -2.670674 1.786398 -4.128677 -1.203579 1.721957 -4.931202
    18 4.972047 0.000000 0.000000 -1.287432 -0.697966 0.415654
    19 11.585358 0.000000 0.000001 0.000000 0.000000 -2.315687
    20 10.127058 0.000000 0.000001 2.022683 0.337499 0.383117
    21 1.537458 0.109715 1.664489 -0.264662 -0.055995 0.783079
    22 0.928313 0.000000 0.000002 0.000000 0.000000 -0.453501
    23 0.928311 0.000000 0.000001 0.000000 0.000000 0.000000
    24 2.686395 -0.427337 0.044204 0.035177 0.025790 0.915446
    25 1.435260 0.000000 0.000001 0.000000 0.000000 1.335014
    26 1.482593 0.000000 -0.000001 0.000000 0.000000 1.168644
    27 2.046984 0.000001 0.000000 0.309163 -0.185282 -0.177081
    28 -0.000005 0.000007 3.713254 -0.099674 -3.047944 5.708698
    29 18.045723 0.000000 0.000000 0.000000 0.000000 -0.413322
    30 17.597597 0.000000 0.000000 -0.057506 -0.016845 -0.162491
    31 0.000005 -0.000003 -3.713254 0.807899 2.831426 6.175283
    32 18.045721 0.000000 0.000000 0.000000 0.000000 -0.782250
    33 17.597597 0.000000 0.000000 0.178324 0.125233 0.485216
  time 20
    0 0.438479 2.261939 0.368674 0.000000 0.000000 -1.571017
    1 -0.828154 0.007813 0.000000 -1.570795 -1.570787 0.000000
    2 1.293670 0.684478 -0.000001 -0.008628 -0.002146 0.012433
    3 5.309685 -0.003834 0.000000 -0.010772 -0.028463 0.079904
    4 4.826790 -0.004591 0.000000 -0.079101 0.045889 0.167290
    5 5.792767 -0.005304 0.000000 -0.250353 0.014969 0.122836
    6 6.662322 -0.001452 0.000000 -0.016179 0.004411 0.589853
    7 -2.928495 1.801988 4.351345 1.009329 -1.216554 -4.710550
    8 4.827512 0.000000 -0.000002 0.582647 0.403679 -1.567273
    9 11.140032 0.000000 0.000000 0.000000 0.000000 -1.013233
    10 10.314563 -0.000001 0.000001 -1.986010 -0.357079 0.237841
    11 1.646836 0.445664 -1.699647 -0.161704 0.581044 -0.283978
    12 0.928312 0.000000 0.000000 0.000000 0.000000 0.000000
    13 0.928313 0.000000 -0.000001 0.000000 0.000000 0.000000
    14 2.979373 -0.388274 -0.044205 -0.041673 -0.012835 1.254620
    15 1.435262 -0.000001 -0.000001 0.000000 0.000000 0.872146
    16 1.482593 -0.000001 0.000001 0.000000 0.000000 0.907041
    17 -2.670674 1.786398 -4.128677 -1.190396 1.722746 -4.917793
    18 4.972047 0.000000 0.000000 -1.291278 -0.697725 0.418183
    19 11.585358 0.000000 0.000001 0.000000 0.000000 -2.315769
    20 10.127058 0.000000 0.000001 2.022472 0.337878 0.382467
    21 1.537458 0.109715 1.664489 -0.264662 -0.055995 0.783079
    22 0.928313 0.000000 0.000002 0.000000 0.000000 -0.453501
    23 0.928311 0.000000 0.000001 0.000000 0.000000 0.000000
    24 2.686395 -0.427337 0.044204 0.035177 0.025790 0.915446
    25 1.435260 0.000000 0.000001 0.000000 0.000000 1.335014
    26 1.482593 0.000000 -0.000001 0.000000 0.000000 1.168644
    27 2.046984 0.000001 0.000000 0.308948 -0.185518 -0.174708
    28 -0.000005 0.000007 3.713254 -0.099865 -3.047848 5.708602
    29 18.045723 0.000000 0.000000 0.000000 0.000000 -0.413544
    30 17.597597 0.000000 0.000000 -0.057202 -0.016721 -0.162308
    31 0.000005 -0.000003 -3.713254 0.807324 2.831618 6.175091
    32 18.045721 0.000000 0.000000 0.000000 0.000000 -0.782250
    33 17.597597 0.000000 0.000000 0.178995 0.125233 0.485354
end
