version 1
nodes
  0 "Bip01" -1
  1 "Bip01 Pelvis" 0
  2 "Bip01 Spine" 1
  3 "Bip01 Spine1" 2
  4 "Bip01 Spine2" 3
  5 "Bip01 Spine3" 4
  6 "Bip01 Neck" 5
  7 "Bip01 L Arm" 6
  8 "Bip01 L Arm1" 7
  9 "Bip01 L Arm2" 8
  10 "Bip01 L Hand" 9
  11 "Bip01 L Finger0" 10
  12 "Bip01 L Finger01" 11
  13 "Bip01 L Finger02" 12
  14 "Bip01 L Finger1" 10
  15 "Bip01 L Finger11" 14
  16 "Bip01 L Finger12" 15
  17 "Bip01 R Arm" 6
  18 "Bip01 R Arm1" 17
  19 "Bip01 R Arm2" 18
  20 "Bip01 R Hand" 19
  21 "Bip01 R Finger0" 20
  22 "Bip01 R Finger01" 21
  23 "Bip01 R Finger02" 22
  24 "Bip01 R Finger1" 20
  25 "Bip01 R Finger11" 24
  26 "Bip01 R Finger12" 25
  27 "Bip01 Head" 6
  28 "Bip01 L Leg" 1
  29 "Bip01 L Leg1" 28
  30 "Bip01 L Foot" 29
  31 "Bip01 R Leg" 1
  32 "Bip01 R Leg1" 31
  33 "Bip01 R Foot" 32
end
skeleton
  time 0
    0 0.524419 4.672169 0.368674 0.000000 0.000000 -1.571017
    1 1.566450 -0.070315 0.000000 -1.570795 -1.570787 0.000000
    2 1.293670 0.684478 -0.000001 -0.000004 -0.000001 -0.147611
    3 5.309685 -0.003834 0.000000 -0.261773 0.000204 -0.069796
    4 4.826790 -0.004591 0.000000 0.000000 0.000000 -0.095944
    5 5.792767 -0.005304 0.000000 0.000000 0.000000 0.017444
    6 6.662322 -0.001452 0.000000 0.000000 -0.000001 0.209256
    7 -3.393353 0.665235 4.339626 1.008275 -1.207595 -4.328810
    8 4.827512 0.000000 -0.000002 -0.632877 0.992238 -1.279334
    9 11.140032 0.000000 0.000000 0.000000 0.000000 -1.932956
    10 10.314563 -0.000001 0.000001 -1.068291 -0.403165 -0.135215
    11 1.646836 0.445664 -1.699647 0.153911 0.442352 0.277231
    12 0.928312 0.000000 0.000000 0.000000 0.000000 0.000000
    13 0.928313 0.000000 -0.000001 0.000000 0.000000 0.000000
    14 2.979373 -0.388274 -0.044205 0.001088 -0.043611 -0.043599
    15 1.435262 -0.000001 -0.000001 0.000000 0.000000 1.334445
    16 1.482593 -0.000001 0.000001 0.000000 0.000000 0.793674
    17 -3.131626 0.610580 -4.140396 -1.212846 1.046082 -4.514462
    18 4.972047 0.000000 0.000000 -0.261839 -1.053593 0.466502
    19 11.585358 0.000000 0.000001 0.000000 0.000000 -2.415418
    20 10.127058 0.000000 0.000001 1.510287 0.765213 -0.200784
    21 1.537458 0.109715 1.664489 -0.264662 -0.055995 0.783079
    22 0.928313 0.000000 0.000002 0.000000 0.000000 -0.453501
    23 0.928311 0.000000 0.000001 0.000000 0.000000 0.000000
    24 2.686395 -0.427337 0.044204 -0.005762 0.043239 -0.157074
    25 1.435260 0.000000 0.000001 0.000000 0.000000 0.732613
    26 1.482593 0.000000 -0.000001 0.000000 0.000000 1.168644
    27 2.046984 0.000001 0.000000 0.258541 0.041482 -0.287120
    28 -0.000005 0.000007 3.713254 -0.099482 -3.047944 5.708602
    29 18.045723 0.000000 0.000000 0.000000 0.000000 -0.413544
    30 17.597597 0.000000 0.000000 -0.057557 -0.016869 -0.162308
    31 0.000005 -0.000003 -3.713254 0.807516 2.831522 6.175187
    32 18.045721 0.000000 0.000000 0.000000 0.000000 -0.782250
    33 17.597597 0.000000 0.000000 0.178760 0.125233 0.485354
  time 1
    0 0.524419 4.672169 0.368674 0.000000 0.000000 -1.571017
    1 1.418008 -0.031251 0.000000 -1.570795 -1.570787 0.000000
    2 1.293670 0.684478 -0.000001 -0.000004 -0.000001 -0.147611
    3 5.309685 -0.003834 0.000000 -0.261688 0.007167 -0.043812
    4 4.826790 -0.004591 0.000000 0.044081 -0.000024 -0.095944
    5 5.792767 -0.005304 0.000000 0.002536 0.000995 0.021680
    6 6.662322 -0.001452 0.000000 0.000000 -0.000001 0.209256
    7 -3.393353 0.665235 4.339626 1.066553 -1.173531 -4.383139
    8 4.827512 0.000000 -0.000002 -0.497039 0.374601 -0.939405
    9 11.140032 0.000000 0.000000 0.000000 0.000000 -1.701757
    10 10.314563 -0.000001 0.000001 -1.267889 -0.391550 -0.183814
    11 1.646836 0.445664 -1.699647 0.153911 0.442352 0.277231
    12 0.928312 0.000000 0.000000 0.000000 0.000000 0.000000
    13 0.928313 0.000000 -0.000001 0.000000 0.000000 0.000000
    14 2.979373 -0.388274 -0.044205 0.001088 -0.043611 -0.043599
    15 1.435262 -0.000001 -0.000001 0.000000 0.000000 1.334445
    16 1.482593 -0.000001 0.000001 0.000000 0.000000 0.793674
    17 -3.131626 0.610580 -4.140396 -1.207592 1.052155 -4.509865
    18 4.972047 0.000000 0.000000 0.883441 -0.992527 -0.872858
    19 11.585358 0.000000 0.000001 0.000000 0.000000 -1.852154
    20 10.127058 0.000000 0.000001 1.604954 0.699302 -0.117399
    21 1.537458 0.109715 1.664489 -0.264662 -0.055995 0.783079
    22 0.928313 0.000000 0.000002 0.000000 0.000000 -0.453501
    23 0.928311 0.000000 0.000001 0.000000 0.000000 0.000000
    24 2.686395 -0.427337 0.044204 -0.005762 0.043239 -0.157074
    25 1.435260 0.000000 0.000001 0.000000 0.000000 0.732613
    26 1.482593 0.000000 -0.000001 0.000000 0.000000 1.168644
    27 2.046984 0.000001 0.000000 0.212054 0.036378 -0.320150
    28 -0.000005 0.000007 3.713254 -0.100249 -3.049861 5.711670
    29 18.045723 0.000000 0.000000 0.000000 0.000000 -0.399259
    30 17.597597 0.000000 0.000000 -0.058165 -0.015245 -0.173311
    31 0.000005 -0.000003 -3.713254 0.806749 2.829221 6.169435
    32 18.045721 0.000000 0.000000 0.000000 0.000000 -0.785320
    33 17.597597 0.000000 0.000000 0.178559 0.122728 0.482999
  time 2
    0 0.524419 4.672169 0.368674 0.000000 0.000000 -1.571017
    1 1.257847 0.007813 0.000000 -1.570795 -1.570787 0.000000
    2 1.293670 0.684478 -0.000001 -0.000004 -0.000001 -0.147611
    3 5.309685 -0.003834 0.000000 -0.261365 0.014621 -0.015886
    4 4.826790 -0.004591 0.000000 0.091347 -0.000072 -0.095944
    5 5.792767 -0.005304 0.000000 0.006817 0.002637 0.028864
    6 6.662322 -0.001452 0.000000 0.000000 -0.000001 0.209256
    7 -3.393353 0.665235 4.339626 1.115055 -1.139053 -4.427694
    8 4.827512 0.000000 -0.000002 -0.468341 -0.060636 -0.787766
    9 11.140032 0.000000 0.000000 0.000000 0.000000 -1.365356
    10 10.314563 -0.000001 0.000001 -1.459622 -0.480820 -0.244084
    11 1.646836 0.445664 -1.699647 0.153911 0.442352 0.277231
    12 0.928312 0.000000 0.000000 0.000000 0.000000 0.000000
    13 0.928313 0.000000 -0.000001 0.000000 0.000000 0.000000
    14 2.979373 -0.388274 -0.044205 0.001088 -0.043611 -0.043599
    15 1.435262 -0.000001 -0.000001 0.000000 0.000000 1.334445
    16 1.482593 -0.000001 0.000001 0.000000 0.000000 0.793674
    17 -3.131626 0.610580 -4.140396 -1.212846 1.046082 -4.514462
    18 4.972047 0.000000 0.000000 1.042336 -0.426465 -1.162573
    19 11.585358 0.000000 0.000001 0.000000 0.000000 -1.362974
    20 10.127058 0.000000 0.000001 1.686508 0.629608 -0.047618
    21 1.537458 0.109715 1.664489 -0.264662 -0.055995 0.783079
    22 0.928313 0.000000 0.000002 0.000000 0.000000 -0.453501
    23 0.928311 0.000000 0.000001 0.000000 0.000000 0.000000
    24 2.686395 -0.427337 0.044204 -0.005762 0.043239 -0.157074
    25 1.435260 0.000000 0.000001 0.000000 0.000000 0.732613
    26 1.482593 0.000000 -0.000001 0.000000 0.000000 1.168644
    27 2.046984 0.000001 0.000000 0.161216 0.027173 -0.357864
    28 -0.000005 0.000007 3.713254 -0.100920 -3.052162 5.715408
    29 18.045723 0.000000 0.000000 0.000000 0.000000 -0.382828
    30 17.597597 0.000000 0.000000 -0.058874 -0.013498 -0.185827
    31 0.000005 -0.000003 -3.713254 0.805791 2.826825 6.163203
    32 18.045721 0.000000 0.000000 0.000000 0.000000 -0.788705
    33 17.597597 0.000000 0.000000 0.178324 0.119947 0.480412
  time 3
    0 0.524419 4.672169 0.368674 0.000000 0.000000 -1.571017
    1 1.121124 0.039064 0.000000 -1.570795 -1.570787 0.000000
    2 1.293670 0.684478 -0.000001 -0.000004 -0.000001 -0.147611
    3 5.309685 -0.003834 0.000000 -0.260957 0.021093 0.008260
    4 4.826790 -0.004591 0.000000 0.132204 -0.000096 -0.095944
    5 5.792767 -0.005304 0.000000 0.007717 0.002936 0.030255
    6 6.662322 -0.001452 0.000000 0.000000 -0.000001 0.209256
    7 -3.393353 0.665235 4.339626 1.153300 -1.107148 -4.461901
    8 4.827512 0.000000 -0.000002 -0.312255 -0.366172 -0.974845
    9 11.140032 0.000000 0.000000 0.000000 0.000000 -0.724361
    10 10.314563 -0.000001 0.000001 -1.643298 -0.394454 -0.277703
    11 1.646836 0.445664 -1.699647 0.153911 0.442352 0.277231
    12 0.928312 0.000000 0.000000 0.000000 0.000000 0.000000
    13 0.928313 0.000000 -0.000001 0.000000 0.000000 0.000000
    14 2.979373 -0.388274 -0.044205 0.001088 -0.043611 -0.043599
    15 1.435262 -0.000001 -0.000001 0.000000 0.000000 1.334445
    16 1.482593 -0.000001 0.000001 0.000000 0.000000 0.793674
    17 -3.131626 0.610580 -4.140396 -1.268446 0.972837 -4.561682
    18 4.972047 0.000000 0.000000 1.024608 -0.030825 -1.181608
    19 11.585358 0.000000 0.000001 0.000000 0.000000 -0.843245
    20 10.127058 0.000000 0.000001 1.751443 0.563319 0.006605
    21 1.537458 0.109715 1.664489 -0.264662 -0.055995 0.783079
    22 0.928313 0.000000 0.000002 0.000000 0.000000 -0.453501
    23 0.928311 0.000000 0.000001 0.000000 0.000000 0.000000
    24 2.686395 -0.427337 0.044204 -0.005762 0.043239 -0.157074
    25 1.435260 0.000000 0.000001 0.000000 0.000000 0.732613
    26 1.482593 0.000000 -0.000001 0.000000 0.000000 1.168644
    27 2.046984 0.000001 0.000000 0.120460 0.018381 -0.385115
    28 -0.000005 0.000007 3.713254 -0.101399 -3.053984 5.718955
    29 18.045723 0.000000 0.000000 0.000000 0.000000 -0.368247
    30 17.597597 0.000000 0.000000 -0.059457 -0.012070 -0.196693
    31 0.000005 -0.000003 -3.713254 0.805024 2.824715 6.157930
    32 18.045721 0.000000 0.000000 0.000000 0.000000 -0.791460
    33 17.597597 0.000000 0.000000 0.178156 0.117581 0.478195
  time 4
    0 0.524419 4.672169 0.368674 0.000000 0.000000 -1.571017
    1 1.054716 0.062502 0.000000 -1.570795 -1.570787 0.000000
    2 1.293670 0.684478 -0.000001 -0.000004 -0.000001 -0.147611
    3 5.309685 -0.003834 0.000000 -0.260616 0.025000 0.022868
    4 4.826790 -0.004591 0.000000 0.156982 -0.000120 -0.095944
    5 5.792767 -0.005304 0.000000 0.000000 0.000000 0.017444
    6 6.662322 -0.001452 0.000000 0.000000 -0.000001 0.209256
    7 -3.393353 0.665235 4.339626 1.167103 -1.094374 -4.474262
    8 4.827512 0.000000 -0.000002 -0.257808 -0.417507 -1.060628
    9 11.140032 0.000000 0.000000 0.000000 0.000000 -0.541127
    10 10.314563 -0.000001 0.000001 -1.722626 -0.399231 -0.297096
    11 1.646836 0.445664 -1.699647 0.153911 0.442352 0.277231
    12 0.928312 0.000000 0.000000 0.000000 0.000000 0.000000
    13 0.928313 0.000000 -0.000001 0.000000 0.000000 0.000000
    14 2.979373 -0.388274 -0.044205 0.001088 -0.043611 -0.043599
    15 1.435262 -0.000001 -0.000001 0.000000 0.000000 1.334445
    16 1.482593 -0.000001 0.000001 0.000000 0.000000 0.793674
    17 -3.131626 0.610580 -4.140396 -1.304079 0.915051 -4.590416
    18 4.972047 0.000000 0.000000 1.008944 0.135097 -1.169362
    19 11.585358 0.000000 0.000001 0.000000 0.000000 -0.605393
    20 10.127058 0.000000 0.000001 1.781246 0.529370 0.030815
    21 1.537458 0.109715 1.664489 -0.264662 -0.055995 0.783079
    22 0.928313 0.000000 0.000002 0.000000 0.000000 -0.453501
    23 0.928311 0.000000 0.000001 0.000000 0.000000 0.000000
    24 2.686395 -0.427337 0.044204 -0.005762 0.043239 -0.157074
    25 1.435260 0.000000 0.000001 0.000000 0.000000 0.732613
    26 1.482593 0.000000 -0.000001 0.000000 0.000000 1.168644
    27 2.046984 0.000001 0.000000 0.103399 0.016758 -0.387609
    28 -0.000005 0.000007 3.713254 -0.101783 -3.054943 5.720872
    29 18.045723 0.000000 0.000000 0.000000 0.000000 -0.360697
    30 17.597597 0.000000 0.000000 -0.059761 -0.011381 -0.202149
    31 0.000005 -0.000003 -3.713254 0.804737 2.823853 6.155342
    32 18.045721 0.000000 0.000000 0.000000 0.000000 -0.792877
    33 17.597597 0.000000 0.000000 0.178089 0.116377 0.477179
  time 5
    0 0.524419 4.672169 0.368674 0.000000 0.000000 -1.571017
    1 1.066435 0.050783 0.000000 -1.570795 -1.570787 0.000000
    2 1.293670 0.684478 -0.000001 -0.000004 -0.000001 -0.147611
    3 5.309685 -0.003834 0.000000 -0.260497 0.026234 0.027602
    4 4.826790 -0.004591 0.000000 0.164974 -0.000120 -0.095944
    5 5.792767 -0.005304 0.000000 -0.021405 -0.008821 -0.018393
    6 6.662322 -0.001452 0.000000 0.000000 -0.000001 0.209256
    7 -3.393353 0.665235 4.339626 1.163173 -1.098071 -4.470716
    8 4.827512 0.000000 -0.000002 -0.280607 -0.302728 -0.984723
    9 11.140032 0.000000 0.000000 0.000000 0.000000 -0.650966
    10 10.314563 -0.000001 0.000001 -1.719593 -0.377780 -0.290535
    11 1.646836 0.445664 -1.699647 0.153911 0.442352 0.277231
    12 0.928312 0.000000 0.000000 0.000000 0.000000 0.000000
    13 0.928313 0.000000 -0.000001 0.000000 0.000000 0.000000
    14 2.979373 -0.388274 -0.044205 0.001088 -0.043611 -0.043599
    15 1.435262 -0.000001 -0.000001 0.000000 0.000000 1.334445
    16 1.482593 -0.000001 0.000001 0.000000 0.000000 0.793674
    17 -3.131626 0.610580 -4.140396 -1.301500 0.919573 -4.588309
    18 4.972047 0.000000 0.000000 0.987182 -0.200844 -1.032923
    19 11.585358 0.000000 0.000001 0.000000 0.000000 -0.848636
    20 10.127058 0.000000 0.000001 1.747937 0.379675 -0.029161
    21 1.537458 0.109715 1.664489 -0.264662 -0.055995 0.783079
    22 0.928313 0.000000 0.000002 0.000000 0.000000 -0.453501
    23 0.928311 0.000000 0.000001 0.000000 0.000000 0.000000
    24 2.686395 -0.427337 0.044204 -0.005762 0.043239 -0.157074
    25 1.435260 0.000000 0.000001 0.000000 0.000000 0.732613
    26 1.482593 0.000000 -0.000001 0.000000 0.000000 1.168644
    27 2.046984 0.000001 0.000000 0.115462 0.026524 -0.356100
    28 -0.000005 0.000007 3.713254 -0.101687 -3.054655 5.720585
    29 18.045723 0.000000 0.000000 0.000000 0.000000 -0.362104
    30 17.597597 0.000000 0.000000 -0.059660 -0.011603 -0.201186
    31 0.000005 -0.000003 -3.713254 0.804737 2.824140 6.155821
    32 18.045721 0.000000 0.000000 0.000000 0.000000 -0.792641
    33 17.597597 0.000000 0.000000 0.178123 0.116515 0.477456
  time 6
    0 0.524419 4.672169 0.368674 0.000000 0.000000 -1.571017
    1 1.128937 0.031251 0.000000 -1.570795 -1.570787 0.000000
    2 1.293670 0.684478 -0.000001 -0.000004 -0.000001 -0.147611
    3 5.309685 -0.003834 0.000000 -0.260497 0.026019 0.026701
    4 4.826790 -0.004591 0.000000 0.163429 -0.000120 -0.095944
    5 5.792767 -0.005304 0.000000 -0.052272 -0.023118 -0.070736
    6 6.662322 -0.001452 0.000000 0.000000 -0.000001 0.209256
    7 -3.393353 0.665235 4.339626 1.148987 -1.110963 -4.458164
    8 4.827512 0.000000 -0.000002 -0.315603 0.026940 -0.747647
    9 11.140032 0.000000 0.000000 0.000000 0.000000 -1.031346
    10 10.314563 -0.000001 0.000001 -1.705851 -0.296754 -0.266903
    11 1.646836 0.445664 -1.699647 0.153911 0.442352 0.277231
    12 0.928312 0.000000 0.000000 0.000000 0.000000 0.000000
    13 0.928313 0.000000 -0.000001 0.000000 0.000000 0.000000
    14 2.979373 -0.388274 -0.044205 0.001088 -0.043611 -0.043599
    15 1.435262 -0.000001 -0.000001 0.000000 0.000000 1.334445
    16 1.482593 -0.000001 0.000001 0.000000 0.000000 0.793674
    17 -3.131626 0.610580 -4.140396 -1.291946 0.935899 -4.580742
    18 4.972047 0.000000 0.000000 0.868715 -0.634490 -0.841177
    19 11.585358 0.000000 0.000001 0.000000 0.000000 -1.181889
    20 10.127058 0.000000 0.000001 1.717223 0.207852 -0.093738
    21 1.537458 0.109715 1.664489 -0.264662 -0.055995 0.783079
    22 0.928313 0.000000 0.000002 0.000000 0.000000 -0.453501
    23 0.928311 0.000000 0.000001 0.000000 0.000000 0.000000
    24 2.686395 -0.427337 0.044204 -0.005762 0.043239 -0.157074
    25 1.435260 0.000000 0.000001 0.000000 0.000000 0.732613
    26 1.482593 0.000000 -0.000001 0.000000 0.000000 1.168644
    27 2.046984 0.000001 0.000000 0.147042 0.042987 -0.301354
    28 -0.000005 0.000007 3.713254 -0.101303 -3.053600 5.718955
    29 18.045723 0.000000 0.000000 0.000000 0.000000 -0.368691
    30 17.597597 0.000000 0.000000 -0.059305 -0.012464 -0.196280
    31 0.000005 -0.000003 -3.713254 0.805216 2.825195 6.158218
    32 18.045721 0.000000 0.000000 0.000000 0.000000 -0.791460
    33 17.597597 0.000000 0.000000 0.178156 0.117442 0.478657
  time 7
    0 0.524419 4.672169 0.368674 0.000000 0.000000 -1.571017
    1 1.214877 0.000000 0.000000 -1.570795 -1.570787 0.000000
    2 1.293670 0.684478 -0.000001 -0.000004 -0.000001 -0.147611
    3 5.309685 -0.003834 0.000000 -0.260667 0.024556 0.021296
    4 4.826790 -0.004591 0.000000 0.154331 -0.000120 -0.095944
    5 5.792767 -0.005304 0.000000 -0.083823 -0.039861 -0.125072
    6 6.662322 -0.001452 0.000000 0.000000 -0.000001 0.209256
    7 -3.393353 0.665235 4.339626 1.124736 -1.131484 -4.436222
    8 4.827512 0.000000 -0.000002 -0.238756 0.484774 -0.386748
    9 11.140032 0.000000 0.000000 0.000000 0.000000 -1.601554
    10 10.314563 -0.000001 0.000001 -1.667656 -0.187625 -0.227478
    11 1.646836 0.445664 -1.699647 0.153911 0.442352 0.277231
    12 0.928312 0.000000 0.000000 0.000000 0.000000 0.000000
    13 0.928313 0.000000 -0.000001 0.000000 0.000000 0.000000
    14 2.979373 -0.388274 -0.044205 0.001088 -0.043611 -0.043599
    15 1.435262 -0.000001 -0.000001 0.000000 0.000000 1.334445
    16 1.482593 -0.000001 0.000001 0.000000 0.000000 0.793674
    17 -3.131626 0.610580 -4.140396 -1.281056 0.953724 -4.571834
    18 4.972047 0.000000 0.000000 0.582442 -0.981600 -0.500015
    19 11.585358 0.000000 0.000001 0.000000 0.000000 -1.509426
    20 10.127058 0.000000 0.000001 1.696045 0.057306 -0.148362
    21 1.537458 0.109715 1.664489 -0.264662 -0.055995 0.783079
    22 0.928313 0.000000 0.000002 0.000000 0.000000 -0.453501
    23 0.928311 0.000000 0.000001 0.000000 0.000000 0.000000
    24 2.686395 -0.427337 0.044204 -0.005762 0.043239 -0.157074
    25 1.435260 0.000000 0.000001 0.000000 0.000000 0.732613
    26 1.482593 0.000000 -0.000001 0.000000 0.000000 1.168644
    27 2.046984 0.000001 0.000000 0.188574 0.059922 -0.238518
    28 -0.000005 0.000007 3.713254 -0.100920 -3.052066 5.716751
    29 18.045723 0.000000 0.000000 0.000000 0.000000 -0.377795
    30 17.597597 0.000000 0.000000 -0.058798 -0.013694 -0.189541
    31 0.000005 -0.000003 -3.713254 0.805791 2.826825 6.161573
    32 18.045721 0.000000 0.000000 0.000000 0.000000 -0.789807
    33 17.597597 0.000000 0.000000 0.178223 0.118724 0.480366
  time 8
    0 0.524419 4.672169 0.368674 0.000000 0.000000 -1.571017
    1 1.308630 -0.039064 0.000000 -1.570795 -1.570787 0.000000
    2 1.293670 0.684478 -0.000001 -0.000004 -0.000001 -0.147611
    3 5.309685 -0.003834 0.000000 -0.260837 0.022219 0.012570
    4 4.826790 -0.004591 0.000000 0.139567 -0.000108 -0.095944
    5 5.792767 -0.005304 0.000000 -0.107998 -0.054218 -0.167594
    6 6.662322 -0.001452 0.000000 0.000000 -0.000001 0.209256
    7 -3.393353 0.665235 4.339626 1.097514 -1.152300 -4.411597
    8 4.827512 0.000000 -0.000002 -0.023680 0.862025 -0.009472
    9 11.140032 0.000000 0.000000 0.000000 0.000000 -2.067284
    10 10.314563 -0.000001 0.000001 -1.597806 -0.154840 -0.187182
    11 1.646836 0.445664 -1.699647 0.153911 0.442352 0.277231
    12 0.928312 0.000000 0.000000 0.000000 0.000000 0.000000
    13 0.928313 0.000000 -0.000001 0.000000 0.000000 0.000000
    14 2.979373 -0.388274 -0.044205 0.001088 -0.043611 -0.043599
    15 1.435262 -0.000001 -0.000001 0.000000 0.000000 1.334445
    16 1.482593 -0.000001 0.000001 0.000000 0.000000 0.793674
    17 -3.131626 0.610580 -4.140396 -1.269496 0.971312 -4.562544
    18 4.972047 0.000000 0.000000 0.258461 -1.131130 -0.046706
    19 11.585358 0.000000 0.000001 0.000000 0.000000 -1.817685
    20 10.127058 0.000000 0.000001 1.682020 -0.082649 -0.197833
    21 1.537458 0.109715 1.664489 -0.264662 -0.055995 0.783079
    22 0.928313 0.000000 0.000002 0.000000 0.000000 -0.453501
    23 0.928311 0.000000 0.000001 0.000000 0.000000 0.000000
    24 2.686395 -0.427337 0.044204 -0.005762 0.043239 -0.157074
    25 1.435260 0.000000 0.000001 0.000000 0.000000 0.732613
    26 1.482593 0.000000 -0.000001 0.000000 0.000000 1.168644
    27 2.046984 0.000001 0.000000 0.229632 0.072874 -0.183529
    28 -0.000005 0.000007 3.713254 -0.100536 -3.050437 5.714642
    29 18.045723 0.000000 0.000000 0.000000 0.000000 -0.387047
    30 17.597597 0.000000 0.000000 -0.058292 -0.015023 -0.182618
    31 0.000005 -0.000003 -3.713254 0.806366 2.828550 6.165025
    32 18.045721 0.000000 0.000000 0.000000 0.000000 -0.788075
    33 17.597597 0.000000 0.000000 0.178324 0.120007 0.482121
  time 9
    0 0.524419 4.672169 0.368674 0.000000 0.000000 -1.571017
    1 1.382851 -0.062502 0.000000 -1.570795 -1.570787 0.000000
    2 1.293670 0.684478 -0.000001 -0.000004 -0.000001 -0.147611
    3 5.309685 -0.003834 0.000000 -0.261076 0.019319 0.001671
    4 4.826790 -0.004591 0.000000 0.121084 -0.000096 -0.095944
    5 5.792767 -0.005304 0.000000 -0.117694 -0.060342 -0.184765
    6 6.662322 -0.001452 0.000000 0.000000 -0.000001 0.209256
    7 -3.393353 0.665235 4.339626 1.077193 -1.166405 -4.393008
    8 4.827512 0.000000 -0.000002 -0.147082 1.106675 -0.179480
    9 11.140032 0.000000 0.000000 0.000000 0.000000 -2.115321
    10 10.314563 -0.000001 0.000001 -1.488150 -0.349304 -0.185382
    11 1.646836 0.445664 -1.699647 0.153911 0.442352 0.277231
    12 0.928312 0.000000 0.000000 0.000000 0.000000 0.000000
    13 0.928313 0.000000 -0.000001 0.000000 0.000000 0.000000
    14 2.979373 -0.388274 -0.044205 0.001088 -0.043611 -0.043599
    15 1.435262 -0.000001 -0.000001 0.000000 0.000000 1.334445
    16 1.482593 -0.000001 0.000001 0.000000 0.000000 0.793674
    17 -3.131626 0.610580 -4.140396 -1.256313 0.990636 -4.551337
    18 4.972047 0.000000 0.000000 -0.004925 -1.163190 0.323541
    19 11.585358 0.000000 0.000001 0.000000 0.000000 -2.070076
    20 10.127058 0.000000 0.000001 1.658739 -0.090120 -0.222394
    21 1.537458 0.109715 1.664489 -0.264662 -0.055995 0.783079
    22 0.928313 0.000000 0.000002 0.000000 0.000000 -0.453501
    23 0.928311 0.000000 0.000001 0.000000 0.000000 0.000000
    24 2.686395 -0.427337 0.044204 -0.005762 0.043239 -0.157074
    25 1.435260 0.000000 0.000001 0.000000 0.000000 0.732613
    26 1.482593 0.000000 -0.000001 0.000000 0.000000 1.168644
    27 2.046984 0.000001 0.000000 0.259230 0.079335 -0.153114
    28 -0.000005 0.000007 3.713254 -0.100057 -3.049094 5.712916
    29 18.045723 0.000000 0.000000 0.000000 0.000000 -0.394448
    30 17.597597 0.000000 0.000000 -0.057861 -0.016057 -0.176933
    31 0.000005 -0.000003 -3.713254 0.806941 2.829988 6.167996
    32 18.045721 0.000000 0.000000 0.000000 0.000000 -0.786501
    33 17.597597 0.000000 0.000000 0.178424 0.121111 0.483507
  time 10
    0 0.524419 4.672169 0.368674 0.000000 0.000000 -1.571017
    1 1.445353 -0.070315 0.000000 -1.570795 -1.570787 0.000000
    2 1.293670 0.684478 -0.000001 -0.000004 -0.000001 -0.147611
    3 5.309685 -0.003834 0.000000 -0.261399 0.014405 -0.016716
    4 4.826790 -0.004591 0.000000 0.089955 -0.000060 -0.095944
    5 5.792767 -0.005304 0.000000 -0.096846 -0.047387 -0.147828
    6 6.662322 -0.001452 0.000000 0.000000 -0.000001 0.209256
    7 -3.393353 0.665235 4.339626 1.055818 -1.180332 -4.373173
    8 4.827512 0.000000 -0.000002 -0.710760 1.172933 -0.910030
    9 11.140032 0.000000 0.000000 0.000000 0.000000 -2.023160
    10 10.314563 -0.000001 0.000001 -1.330347 -0.557537 -0.215981
    11 1.646836 0.445664 -1.699647 0.153911 0.442352 0.277231
    12 0.928312 0.000000 0.000000 0.000000 0.000000 0.000000
    13 0.928313 0.000000 -0.000001 0.000000 0.000000 0.000000
    14 2.979373 -0.388274 -0.044205 0.001088 -0.043611 -0.043599
    15 1.435262 -0.000001 -0.000001 0.000000 0.000000 1.334445
    16 1.482593 -0.000001 0.000001 0.000000 0.000000 0.793674
    17 -3.131626 0.610580 -4.140396 -1.242747 1.009144 -4.539940
    18 4.972047 0.000000 0.000000 -0.177608 -1.139004 0.480279
    19 11.585358 0.000000 0.000001 0.000000 0.000000 -2.214649
    20 10.127058 0.000000 0.000001 1.614982 0.130215 -0.210589
    21 1.537458 0.109715 1.664489 -0.264662 -0.055995 0.783079
    22 0.928313 0.000000 0.000002 0.000000 0.000000 -0.453501
    23 0.928311 0.000000 0.000001 0.000000 0.000000 0.000000
    24 2.686395 -0.427337 0.044204 -0.005762 0.043239 -0.157074
    25 1.435260 0.000000 0.000001 0.000000 0.000000 0.732613
    26 1.482593 0.000000 -0.000001 0.000000 0.000000 1.168644
    27 2.046984 0.000001 0.000000 0.267545 0.075234 -0.172519
    28 -0.000005 0.000007 3.713254 -0.099865 -3.048423 5.711574
    29 18.045723 0.000000 0.000000 0.000000 0.000000 -0.400665
    30 17.597597 0.000000 0.000000 -0.057658 -0.016623 -0.172165
    31 0.000005 -0.000003 -3.713254 0.807228 2.830755 6.170393
    32 18.045721 0.000000 0.000000 0.000000 0.000000 -0.785084
    33 17.597597 0.000000 0.000000 0.178492 0.122294 0.484430
  time 11
    0 0.524419 4.672169 0.368674 0.000000 0.000000 -1.571017
    1 1.503948 -0.070315 0.000000 -1.570795 -1.570787 0.000000
    2 1.293670 0.684478 -0.000001 -0.000004 -0.000001 -0.147611
    3 5.309685 -0.003834 0.000000 -0.261654 0.007311 -0.043283
    4 4.826790 -0.004591 0.000000 0.044939 -0.000036 -0.095944
    5 5.792767 -0.005304 0.000000 -0.049340 -0.021680 -0.065732
    6 6.662322 -0.001452 0.000000 0.000000 -0.000001 0.209256
    7 -3.393353 0.665235 4.339626 1.032717 -1.194081 -4.351806
    8 4.827512 0.000000 -0.000002 -0.761540 1.091155 -1.172494
    9 11.140032 0.000000 0.000000 0.000000 0.000000 -1.980992
    10 10.314563 -0.000001 0.000001 -1.195670 -0.512481 -0.192234
    11 1.646836 0.445664 -1.699647 0.153911 0.442352 0.277231
    12 0.928312 0.000000 0.000000 0.000000 0.000000 0.000000
    13 0.928313 0.000000 -0.000001 0.000000 0.000000 0.000000
    14 2.979373 -0.388274 -0.044205 0.001088 -0.043611 -0.043599
    15 1.435262 -0.000001 -0.000001 0.000000 0.000000 1.334445
    16 1.482593 -0.000001 0.000001 0.000000 0.000000 0.793674
    17 -3.131626 0.610580 -4.140396 -1.228322 1.027679 -4.527680
    18 4.972047 0.000000 0.000000 -0.220849 -1.098830 0.473158
    19 11.585358 0.000000 0.000001 0.000000 0.000000 -2.315034
    20 10.127058 0.000000 0.000001 1.565965 0.447667 -0.196783
    21 1.537458 0.109715 1.664489 -0.264662 -0.055995 0.783079
    22 0.928313 0.000000 0.000002 0.000000 0.000000 -0.453501
    23 0.928311 0.000000 0.000001 0.000000 0.000000 0.000000
    24 2.686395 -0.427337 0.044204 -0.005762 0.043239 -0.157074
    25 1.435260 0.000000 0.000001 0.000000 0.000000 0.732613
    26 1.482593 0.000000 -0.000001 0.000000 0.000000 1.168644
    27 2.046984 0.000001 0.000000 0.262547 0.060335 -0.230245
    28 -0.000005 0.000007 3.713254 -0.099769 -3.048136 5.710040
    29 18.045723 0.000000 0.000000 0.000000 0.000000 -0.407105
    30 17.597597 0.000000 0.000000 -0.057582 -0.016795 -0.167259
    31 0.000005 -0.000003 -3.713254 0.807324 2.831234 6.172790
    32 18.045721 0.000000 0.000000 0.000000 0.000000 -0.783667
    33 17.597597 0.000000 0.000000 0.178659 0.123734 0.484939
  time 12
    0 0.524419 4.672169 0.368674 0.000000 0.000000 -1.571017
    1 1.566450 -0.070315 0.000000 -1.570795 -1.570787 0.000000
    2 1.293670 0.684478 -0.000001 -0.000004 -0.000001 -0.147611
    3 5.309685 -0.003834 0.000000 -0.261773 0.000204 -0.069796
    4 4.826790 -0.004591 0.000000 0.000000 0.000000 -0.095944
    5 5.792767 -0.005304 0.000000 0.000000 0.000000 0.017444
    6 6.662322 -0.001452 0.000000 0.000000 -0.000001 0.209256
    7 -3.393353 0.665235 4.339626 1.008275 -1.207595 -4.328810
    8 4.827512 0.000000 -0.000002 -0.632877 0.992238 -1.279334
    9 11.140032 0.000000 0.000000 0.000000 0.000000 -1.932956
    10 10.314563 -0.000001 0.000001 -1.068291 -0.403165 -0.135215
    11 1.646836 0.445664 -1.699647 0.153911 0.442352 0.277231
    12 0.928312 0.000000 0.000000 0.000000 0.000000 0.000000
    13 0.928313 0.000000 -0.000001 0.000000 0.000000 0.000000
    14 2.979373 -0.388274 -0.044205 0.001088 -0.043611 -0.043599
    15 1.435262 -0.000001 -0.000001 0.000000 0.000000 1.334445
    16 1.482593 -0.000001 0.000001 0.000000 0.000000 0.793674
    17 -3.131626 0.610580 -4.140396 -1.212846 1.046082 -4.514462
    18 4.972047 0.000000 0.000000 -0.261839 -1.053593 0.466502
    19 11.585358 0.000000 0.000001 0.000000 0.000000 -2.415418
    20 10.127058 0.000000 0.000001 1.510287 0.765213 -0.200784
    21 1.537458 0.109715 1.664489 -0.264662 -0.055995 0.783079
    22 0.928313 0.000000 0.000002 0.000000 0.000000 -0.453501
    23 0.928311 0.000000 0.000001 0.000000 0.000000 0.000000
    24 2.686395 -0.427337 0.044204 -0.005762 0.043239 -0.157074
    25 1.435260 0.000000 0.000001 0.000000 0.000000 0.732613
    26 1.482593 0.000000 -0.000001 0.000000 0.000000 1.168644
    27 2.046984 0.000001 0.000000 0.258541 0.041482 -0.287120
    28 -0.000005 0.000007 3.713254 -0.099482 -3.047944 5.708602
    29 18.045723 0.000000 0.000000 0.000000 0.000000 -0.413544
    30 17.597597 0.000000 0.000000 -0.057557 -0.016869 -0.162308
    31 0.000005 -0.000003 -3.713254 0.807516 2.831522 6.175187
    32 18.045721 0.000000 0.000000 0.000000 0.000000 -0.782250
    33 17.597597 0.000000 0.000000 0.178760 0.125233 0.485354
end
