version 1
nodes
  0 "Bip01" -1
  1 "Bip01 Pelvis" 0
  2 "Bip01 Spine" 1
  3 "Bip01 Spine1" 2
  4 "Bip01 Spine2" 3
  5 "Bip01 Spine3" 4
  6 "Bip01 Neck" 5
  7 "Bip01 L Arm" 6
  8 "Bip01 L Arm1" 7
  9 "Bip01 L Arm2" 8
  10 "Bip01 L Hand" 9
  11 "Bip01 L Finger0" 10
  12 "Bip01 L Finger01" 11
  13 "Bip01 L Finger02" 12
  14 "Bip01 L Finger1" 10
  15 "Bip01 L Finger11" 14
  16 "Bip01 L Finger12" 15
  17 "Bip01 R Arm" 6
  18 "Bip01 R Arm1" 17
  19 "Bip01 R Arm2" 18
  20 "Bip01 R Hand" 19
  21 "Bip01 R Finger0" 20
  22 "Bip01 R Finger01" 21
  23 "Bip01 R Finger02" 22
  24 "Bip01 R Finger1" 20
  25 "Bip01 R Finger11" 24
  26 "Bip01 R Finger12" 25
  27 "Bip01 Head" 6
  28 "Bip01 L Leg" 1
  29 "Bip01 L Leg1" 28
  30 "Bip01 L Foot" 29
  31 "Bip01 R Leg" 1
  32 "Bip01 R Leg1" 31
  33 "Bip01 R Foot" 32
end
skeleton
  time 0
    0 0.157220 3.636981 1.540585 0.000000 0.000000 -1.571017
    1 0.992214 -0.253914 0.000000 -1.570795 -1.570787 0.000000
    2 1.293670 0.684478 -0.000001 0.000266 0.025358 0.010374
    3 5.309685 -0.003834 0.000000 -0.073616 -0.036146 -0.007902
    4 4.826790 -0.004591 0.000000 -0.072158 -0.017042 -0.196087
    5 5.792767 -0.005304 0.000000 -0.109042 0.070673 -0.155157
    6 6.662322 -0.001452 0.000000 0.004698 0.139666 0.354824
    7 -3.108188 1.516823 4.339626 1.238993 -1.024532 -4.799756
    8 4.827512 0.000000 -0.000002 -0.481096 -0.149577 -1.051443
    9 11.140032 0.000000 0.000000 0.070821 -0.093846 -0.610682
    10 10.314563 -0.000001 0.000001 -3.988822 0.203081 -0.504208
    11 1.646836 0.445664 -1.699647 -0.161704 0.581044 -0.283978
    12 0.928312 0.000000 0.000000 0.000000 0.000000 0.000000
    13 0.928313 0.000000 -0.000001 0.000000 0.000000 0.000000
    14 2.979373 -0.388274 -0.044205 -0.000805 -0.043611 0.000046
    15 1.435262 -0.000001 -0.000001 0.000000 0.000000 0.872146
    16 1.482593 -0.000001 0.000001 0.000000 0.000000 0.907041
    17 -2.869899 1.399667 -4.140396 -1.163265 1.764468 -4.903713
    18 4.972047 0.000000 0.000000 1.133789 -0.611189 -1.767561
    19 11.585358 0.000000 0.000001 0.386603 -0.382733 -1.488597
    20 10.127058 0.000000 0.000001 1.838187 0.648048 0.537534
    21 1.537458 0.109715 1.664489 -0.264662 -0.055995 0.783079
    22 0.928313 0.000000 0.000002 0.000000 0.000000 -0.453501
    23 0.928311 0.000000 0.000001 0.000000 0.000000 0.000000
    24 2.686395 -0.427337 0.044204 -0.005762 0.043239 -0.157074
    25 1.435260 0.000000 0.000001 0.000000 0.000000 0.732613
    26 1.482593 0.000000 -0.000001 0.000000 0.000000 1.168644
    27 2.046984 0.000001 0.000000 0.213950 0.400686 -0.292229
    28 -0.000005 0.000007 3.713254 -0.108302 -3.067502 5.834370
    29 18.045723 0.000000 0.000000 0.000000 0.000000 -0.437229
    30 17.597597 0.000000 0.000000 -0.062219 -0.012021 -0.011838
    31 0.000005 -0.000003 -3.713254 0.557847 3.012710 -0.015293
    32 18.045721 0.000000 0.000000 0.000000 0.000000 -0.537909
    33 17.597597 0.000000 0.000000 0.062403 0.093360 0.458196
  time 1
    0 0.157220 3.636981 1.540585 0.000000 0.000000 -1.571017
    1 1.023465 -0.261727 0.000000 -1.570795 -1.570787 0.000000
    2 1.293670 0.684478 -0.000001 0.000266 0.025358 0.010374
    3 5.309685 -0.003834 0.000000 -0.074075 -0.034504 -0.002232
    4 4.826790 -0.004591 0.000000 -0.070327 -0.018420 -0.210727
    5 5.792767 -0.005304 0.000000 -0.108394 0.067665 -0.172349
    6 6.662322 -0.001452 0.000000 0.004698 0.139666 0.354824
    7 -3.108188 1.516823 4.339626 1.238993 -1.024532 -4.799756
    8 4.827512 0.000000 -0.000002 -0.481096 -0.149577 -1.051443
    9 11.140032 0.000000 0.000000 0.070821 -0.093846 -0.610682
    10 10.314563 -0.000001 0.000001 -3.429074 0.321296 -0.579574
    11 1.646836 0.445664 -1.699647 -0.161704 0.581044 -0.283978
    12 0.928312 0.000000 0.000000 0.000000 0.000000 0.000000
    13 0.928313 0.000000 -0.000001 0.000000 0.000000 0.000000
    14 2.979373 -0.388274 -0.044205 -0.000805 -0.043611 0.000046
    15 1.435262 -0.000001 -0.000001 0.000000 0.000000 0.872146
    16 1.482593 -0.000001 0.000001 0.000000 0.000000 0.907041
    17 -2.869899 1.399667 -4.140396 -1.163265 1.764468 -4.903713
    18 4.972047 0.000000 0.000000 1.133789 -0.611189 -1.767561
    19 11.585358 0.000000 0.000001 0.386603 -0.382733 -1.488597
    20 10.127058 0.000000 0.000001 1.838187 0.648048 0.537534
    21 1.537458 0.109715 1.664489 -0.264662 -0.055995 0.783079
    22 0.928313 0.000000 0.000002 0.000000 0.000000 -0.453501
    23 0.928311 0.000000 0.000001 0.000000 0.000000 0.000000
    24 2.686395 -0.427337 0.044204 -0.005762 0.043239 -0.157074
    25 1.435260 0.000000 0.000001 0.000000 0.000000 0.732613
    26 1.482593 0.000000 -0.000001 0.000000 0.000000 1.168644
    27 2.046984 0.000001 0.000000 0.213950 0.400686 -0.292229
    28 -0.000005 0.000007 3.713254 -0.108302 -3.067215 5.834370
    29 18.045723 0.000000 0.000000 0.000000 0.000000 -0.439005
    30 17.597597 0.000000 0.000000 -0.062143 -0.012292 -0.010050
    31 0.000005 -0.000003 -3.713254 0.557943 3.013286 -0.013855
    32 18.045721 0.000000 0.000000 0.000000 0.000000 -0.536492
    33 17.597597 0.000000 0.000000 0.062437 0.093695 0.458288
  time 2
    0 0.157220 3.636981 1.540585 0.000000 0.000000 -1.571017
    1 1.054716 -0.261727 0.000000 -1.570795 -1.570787 0.000000
    2 1.293670 0.684478 -0.000001 0.000266 0.025358 0.010374
    3 5.309685 -0.003834 0.000000 -0.074569 -0.032754 0.003844
    4 4.826790 -0.004591 0.000000 -0.068286 -0.019858 -0.226426
    5 5.792767 -0.005304 0.000000 -0.107711 0.064513 -0.190163
    6 6.662322 -0.001452 0.000000 0.004698 0.139666 0.354824
    7 -3.108188 1.516823 4.339626 1.238993 -1.024532 -4.799756
    8 4.827512 0.000000 -0.000002 -0.481096 -0.149577 -1.051443
    9 11.140032 0.000000 0.000000 0.070821 -0.093846 -0.610682
    10 10.314563 -0.000001 0.000001 -2.850938 0.439604 -0.654882
    11 1.646836 0.445664 -1.699647 -0.161704 0.581044 -0.283978
    12 0.928312 0.000000 0.000000 0.000000 0.000000 0.000000
    13 0.928313 0.000000 -0.000001 0.000000 0.000000 0.000000
    14 2.979373 -0.388274 -0.044205 -0.000805 -0.043611 0.000046
    15 1.435262 -0.000001 -0.000001 0.000000 0.000000 0.872146
    16 1.482593 -0.000001 0.000001 0.000000 0.000000 0.907041
    17 -2.869899 1.399667 -4.140396 -1.163265 1.764468 -4.903713
    18 4.972047 0.000000 0.000000 1.133789 -0.611189 -1.767561
    19 11.585358 0.000000 0.000001 0.386603 -0.382733 -1.488597
    20 10.127058 0.000000 0.000001 1.838187 0.648048 0.537534
    21 1.537458 0.109715 1.664489 -0.264662 -0.055995 0.783079
    22 0.928313 0.000000 0.000002 0.000000 0.000000 -0.453501
    23 0.928311 0.000000 0.000001 0.000000 0.000000 0.000000
    24 2.686395 -0.427337 0.044204 -0.005762 0.043239 -0.157074
    25 1.435260 0.000000 0.000001 0.000000 0.000000 0.732613
    26 1.482593 0.000000 -0.000001 0.000000 0.000000 1.168644
    27 2.046984 0.000001 0.000000 0.213950 0.400686 -0.292229
    28 -0.000005 0.000007 3.713254 -0.108206 -3.066927 5.834370
    29 18.045723 0.000000 0.000000 0.000000 0.000000 -0.440781
    30 17.597597 0.000000 0.000000 -0.062118 -0.012587 -0.008307
    31 0.000005 -0.000003 -3.713254 0.558135 3.013861 -0.012321
    32 18.045721 0.000000 0.000000 0.000000 0.000000 -0.535154
    33 17.597597 0.000000 0.000000 0.062437 0.094050 0.458473
  time 3
    0 0.157220 3.636981 1.540585 0.000000 0.000000 -1.571017
    1 1.085967 -0.273446 0.000000 -1.570795 -1.570787 0.000000
    2 1.293670 0.684478 -0.000001 0.000266 0.025358 0.010374
    3 5.309685 -0.003834 0.000000 -0.075028 -0.030968 0.009903
    4 4.826790 -0.004591 0.000000 -0.066321 -0.021213 -0.241551
    5 5.792767 -0.005304 0.000000 -0.106955 0.061445 -0.207687
    6 6.662322 -0.001452 0.000000 0.007023 0.143047 0.396948
    7 -3.108188 1.516823 4.339626 1.238993 -1.024532 -4.799756
    8 4.827512 0.000000 -0.000002 -0.474718 -0.119219 -1.050144
    9 11.140032 0.000000 0.000000 0.070821 -0.092123 -0.598220
    10 10.314563 -0.000001 0.000001 -2.815776 0.434827 -0.642631
    11 1.646836 0.445664 -1.699647 -0.161704 0.581044 -0.283978
    12 0.928312 0.000000 0.000000 0.000000 0.000000 0.000000
    13 0.928313 0.000000 -0.000001 0.000000 0.000000 0.000000
    14 2.979373 -0.388274 -0.044205 -0.000805 -0.043611 0.000046
    15 1.435262 -0.000001 -0.000001 0.000000 0.000000 0.872146
    16 1.482593 -0.000001 0.000001 0.000000 0.000000 0.907041
    17 -2.869899 1.399667 -4.140396 -1.163265 1.764468 -4.903713
    18 4.972047 0.000000 0.000000 1.133789 -0.611189 -1.767561
    19 11.585358 0.000000 0.000001 0.386603 -0.382733 -1.488597
    20 10.127058 0.000000 0.000001 1.838187 0.648048 0.537534
    21 1.537458 0.109715 1.664489 -0.264662 -0.055995 0.783079
    22 0.928313 0.000000 0.000002 0.000000 0.000000 -0.453501
    23 0.928311 0.000000 0.000001 0.000000 0.000000 0.000000
    24 2.686395 -0.427337 0.044204 -0.005762 0.043239 -0.157074
    25 1.435260 0.000000 0.000001 0.000000 0.000000 0.732613
    26 1.482593 0.000000 -0.000001 0.000000 0.000000 1.168644
    27 2.046984 0.000001 0.000000 0.213950 0.400686 -0.292229
    28 -0.000005 0.000007 3.713254 -0.108110 -3.066735 5.834370
    29 18.045723 0.000000 0.000000 0.000000 0.000000 -0.442558
    30 17.597597 0.000000 0.000000 -0.062067 -0.012858 -0.006611
    31 0.000005 -0.000003 -3.713254 0.558230 3.014340 -0.010883
    32 18.045721 0.000000 0.000000 0.000000 0.000000 -0.533737
    33 17.597597 0.000000 0.000000 0.062504 0.094366 0.458565
  time 4
    0 0.157220 3.636981 1.540585 0.000000 0.000000 -1.571017
    1 1.109405 -0.273446 0.000000 -1.570795 -1.570787 0.000000
    2 1.293670 0.684478 -0.000001 0.000266 0.025358 0.010374
    3 5.309685 -0.003834 0.000000 -0.075437 -0.029314 0.015573
    4 4.826790 -0.004591 0.000000 -0.064624 -0.022363 -0.254559
    5 5.792767 -0.005304 0.000000 -0.106236 0.058689 -0.223965
    6 6.662322 -0.001452 0.000000 0.009492 0.146332 0.439129
    7 -3.108188 1.516823 4.339626 1.238993 -1.024532 -4.799756
    8 4.827512 0.000000 -0.000002 -0.463319 -0.061318 -1.066174
    9 11.140032 0.000000 0.000000 0.070821 -0.083610 -0.536707
    10 10.314563 -0.000001 0.000001 -2.784026 0.421900 -0.609767
    11 1.646836 0.445664 -1.699647 -0.161704 0.581044 -0.283978
    12 0.928312 0.000000 0.000000 0.000000 0.000000 0.000000
    13 0.928313 0.000000 -0.000001 0.000000 0.000000 0.000000
    14 2.979373 -0.388274 -0.044205 -0.000805 -0.043611 0.000046
    15 1.435262 -0.000001 -0.000001 0.000000 0.000000 0.872146
    16 1.482593 -0.000001 0.000001 0.000000 0.000000 0.907041
    17 -2.869899 1.399667 -4.140396 -1.163265 1.764468 -4.903713
    18 4.972047 0.000000 0.000000 1.132476 -0.611108 -1.760307
    19 11.585358 0.000000 0.000001 0.386603 -0.382938 -1.501421
    20 10.127058 0.000000 0.000001 1.838187 0.648048 0.537534
    21 1.537458 0.109715 1.664489 -0.264662 -0.055995 0.783079
    22 0.928313 0.000000 0.000002 0.000000 0.000000 -0.453501
    23 0.928311 0.000000 0.000001 0.000000 0.000000 0.000000
    24 2.686395 -0.427337 0.044204 -0.005762 0.043239 -0.157074
    25 1.435260 0.000000 0.000001 0.000000 0.000000 0.732613
    26 1.482593 0.000000 -0.000001 0.000000 0.000000 1.168644
    27 2.046984 0.000001 0.000000 0.213950 0.400686 -0.292229
    28 -0.000005 0.000007 3.713254 -0.108110 -3.066544 5.834370
    29 18.045723 0.000000 0.000000 0.000000 0.000000 -0.443964
    30 17.597597 0.000000 0.000000 -0.062017 -0.013030 -0.005236
    31 0.000005 -0.000003 -3.713254 0.558422 3.014724 -0.009637
    32 18.045721 0.000000 0.000000 0.000000 0.000000 -0.532556
    33 17.597597 0.000000 0.000000 0.062504 0.094642 0.458657
  time 5
    0 0.157220 3.636981 1.540585 0.000000 0.000000 -1.571017
    1 1.128937 -0.273446 0.000000 -1.570795 -1.570787 0.000000
    2 1.293670 0.684478 -0.000001 0.000266 0.025358 0.010374
    3 5.309685 -0.003834 0.000000 -0.075794 -0.027900 0.020412
    4 4.826790 -0.004591 0.000000 -0.063422 -0.023154 -0.263776
    5 5.792767 -0.005304 0.000000 -0.105570 0.056471 -0.238042
    6 6.662322 -0.001452 0.000000 0.012092 0.149507 0.481282
    7 -3.108188 1.516823 4.339626 1.238993 -1.024532 -4.799756
    8 4.827512 0.000000 -0.000002 -0.461884 -0.022775 -1.126656
    9 11.140032 0.000000 0.000000 0.070821 -0.060442 -0.378903
    10 10.314563 -0.000001 0.000001 -2.755688 0.403165 -0.562213
    11 1.646836 0.445664 -1.699647 -0.161704 0.581044 -0.283978
    12 0.928312 0.000000 0.000000 0.000000 0.000000 0.000000
    13 0.928313 0.000000 -0.000001 0.000000 0.000000 0.000000
    14 2.979373 -0.388274 -0.044205 -0.000805 -0.043611 0.000046
    15 1.435262 -0.000001 -0.000001 0.000000 0.000000 0.872146
    16 1.482593 -0.000001 0.000001 0.000000 0.000000 0.907041
    17 -2.869899 1.399667 -4.140396 -1.163265 1.764468 -4.903713
    18 4.972047 0.000000 0.000000 1.184253 -0.537749 -1.791588
    19 11.585358 0.000000 0.000001 0.386603 -0.379920 -1.433137
    20 10.127058 0.000000 0.000001 1.838187 0.648048 0.537534
    21 1.537458 0.109715 1.664489 -0.264662 -0.055995 0.783079
    22 0.928313 0.000000 0.000002 0.000000 0.000000 -0.453501
    23 0.928311 0.000000 0.000001 0.000000 0.000000 0.000000
    24 2.686395 -0.427337 0.044204 -0.005762 0.043239 -0.157074
    25 1.435260 0.000000 0.000001 0.000000 0.000000 0.732613
    26 1.482593 0.000000 -0.000001 0.000000 0.000000 1.168644
    27 2.046984 0.000001 0.000000 0.213950 0.400686 -0.292229
    28 -0.000005 0.000007 3.713254 -0.108110 -3.066352 5.834370
    29 18.045723 0.000000 0.000000 0.000000 0.000000 -0.444778
    30 17.597597 0.000000 0.000000 -0.062017 -0.013178 -0.004456
    31 0.000005 -0.000003 -3.713254 0.558422 3.015011 -0.008966
    32 18.045721 0.000000 0.000000 0.000000 0.000000 -0.532005
    33 17.597597 0.000000 0.000000 0.062504 0.094839 0.458657
  time 6
    0 0.157220 3.636981 1.540585 0.000000 0.000000 -1.571017
    1 1.140656 -0.281259 0.000000 -1.570795 -1.570787 0.000000
    2 1.293670 0.684478 -0.000001 0.000266 0.025358 0.010374
    3 5.309685 -0.003834 0.000000 -0.076066 -0.026833 0.024087
    4 4.826790 -0.004591 0.000000 -0.062678 -0.023610 -0.269199
    5 5.792767 -0.005304 0.000000 -0.104922 0.054734 -0.251600
    6 6.662322 -0.001452 0.000000 0.014849 0.152572 0.523463
    7 -3.108188 1.516823 4.339626 1.238993 -1.024532 -4.799756
    8 4.827512 0.000000 -0.000002 -0.384877 0.266900 -0.794612
    9 11.140032 0.000000 0.000000 0.070821 -0.126276 -0.880498
    10 10.314563 -0.000001 0.000001 -2.731141 0.380965 -0.505834
    11 1.646836 0.445664 -1.699647 -0.161704 0.581044 -0.283978
    12 0.928312 0.000000 0.000000 0.000000 0.000000 0.000000
    13 0.928313 0.000000 -0.000001 0.000000 0.000000 0.000000
    14 2.979373 -0.388274 -0.044205 -0.000805 -0.043611 0.000046
    15 1.435262 -0.000001 -0.000001 0.000000 0.000000 0.872146
    16 1.482593 -0.000001 0.000001 0.000000 0.000000 0.907041
    17 -2.869899 1.399667 -4.140396 -1.163265 1.764468 -4.903713
    18 4.972047 0.000000 0.000000 1.271580 -0.393040 -1.840639
    19 11.585358 0.000000 0.000001 0.386603 -0.367508 -1.285623
    20 10.127058 0.000000 0.000001 1.838187 0.648048 0.537534
    21 1.537458 0.109715 1.664489 -0.264662 -0.055995 0.783079
    22 0.928313 0.000000 0.000002 0.000000 0.000000 -0.453501
    23 0.928311 0.000000 0.000001 0.000000 0.000000 0.000000
    24 2.686395 -0.427337 0.044204 -0.005762 0.043239 -0.157074
    25 1.435260 0.000000 0.000001 0.000000 0.000000 0.732613
    26 1.482593 0.000000 -0.000001 0.000000 0.000000 1.168644
    27 2.046984 0.000001 0.000000 0.213950 0.400686 -0.292229
    28 -0.000005 0.000007 3.713254 -0.108110 -3.066352 5.834370
    29 18.045723 0.000000 0.000000 0.000000 0.000000 -0.445296
    30 17.597597 0.000000 0.000000 -0.062017 -0.013252 -0.003906
    31 0.000005 -0.000003 -3.713254 0.558518 3.015107 -0.008486
    32 18.045721 0.000000 0.000000 0.000000 0.000000 -0.531454
    33 17.597597 0.000000 0.000000 0.062470 0.094938 0.458704
  time 7
    0 0.157220 3.636981 1.540585 0.000000 0.000000 -1.571017
    1 1.140656 -0.281259 0.000000 -1.570795 -1.570787 0.000000
    2 1.293670 0.684478 -0.000001 0.000266 0.025358 0.010374
    3 5.309685 -0.003834 0.000000 -0.076253 -0.026114 0.026559
    4 4.826790 -0.004591 0.000000 -0.062335 -0.023849 -0.271911
    5 5.792767 -0.005304 0.000000 -0.104365 0.053475 -0.264099
    6 6.662322 -0.001452 0.000000 0.017701 0.155527 0.565701
    7 -3.108188 1.516823 4.339626 1.238993 -1.024532 -4.799756
    8 4.827512 0.000000 -0.000002 -0.168446 0.540117 -0.354254
    9 11.140032 0.000000 0.000000 0.070821 -0.157283 -1.285078
    10 10.314563 -0.000001 0.000001 -2.710480 0.357641 -0.446493
    11 1.646836 0.445664 -1.699647 -0.161704 0.581044 -0.283978
    12 0.928312 0.000000 0.000000 0.000000 0.000000 0.000000
    13 0.928313 0.000000 -0.000001 0.000000 0.000000 0.000000
    14 2.979373 -0.388274 -0.044205 -0.000805 -0.043611 0.000046
    15 1.435262 -0.000001 -0.000001 0.000000 0.000000 0.872146
    16 1.482593 -0.000001 0.000001 0.000000 0.000000 0.907041
    17 -2.869899 1.399667 -4.140396 -1.163265 1.764468 -4.903713
    18 4.972047 0.000000 0.000000 1.322981 -0.304254 -1.825731
    19 11.585358 0.000000 0.000001 0.386603 -0.365239 -1.266510
    20 10.127058 0.000000 0.000001 1.838187 0.648048 0.537534
    21 1.537458 0.109715 1.664489 -0.264662 -0.055995 0.783079
    22 0.928313 0.000000 0.000002 0.000000 0.000000 -0.453501
    23 0.928311 0.000000 0.000001 0.000000 0.000000 0.000000
    24 2.686395 -0.427337 0.044204 -0.005762 0.043239 -0.157074
    25 1.435260 0.000000 0.000001 0.000000 0.000000 0.732613
    26 1.482593 0.000000 -0.000001 0.000000 0.000000 1.168644
    27 2.046984 0.000001 0.000000 0.213950 0.400686 -0.292229
    28 -0.000005 0.000007 3.713254 -0.108015 -3.066256 5.834370
    29 18.045723 0.000000 0.000000 0.000000 0.000000 -0.445666
    30 17.597597 0.000000 0.000000 -0.062017 -0.013325 -0.003539
    31 0.000005 -0.000003 -3.713254 0.558518 3.015203 -0.008199
    32 18.045721 0.000000 0.000000 0.000000 0.000000 -0.531218
    33 17.597597 0.000000 0.000000 0.062437 0.095037 0.458750
  time 8
    0 0.157220 3.636981 1.540585 0.000000 0.000000 -1.571017
    1 1.140656 -0.281259 0.000000 -1.570795 -1.570787 0.000000
    2 1.293670 0.684478 -0.000001 0.000266 0.025358 0.010374
    3 5.309685 -0.003834 0.000000 -0.076373 -0.025695 0.028078
    4 4.826790 -0.004591 0.000000 -0.062335 -0.023849 -0.271911
    5 5.792767 -0.005304 0.000000 -0.104023 0.053020 -0.271366
    6 6.662322 -0.001452 0.000000 0.017701 0.155527 0.565701
    7 -3.108188 1.516823 4.339626 1.238993 -1.024532 -4.799756
    8 4.827512 0.000000 -0.000002 0.221131 0.779992 0.094248
    9 11.140032 0.000000 0.000000 0.070821 -0.164024 -1.560690
    10 10.314563 -0.000001 0.000001 -2.694083 0.335440 -0.390113
    11 1.646836 0.445664 -1.699647 -0.161704 0.581044 -0.283978
    12 0.928312 0.000000 0.000000 0.000000 0.000000 0.000000
    13 0.928313 0.000000 -0.000001 0.000000 0.000000 0.000000
    14 2.979373 -0.388274 -0.044205 -0.000805 -0.043611 0.000046
    15 1.435262 -0.000001 -0.000001 0.000000 0.000000 0.872146
    16 1.482593 -0.000001 0.000001 0.000000 0.000000 0.907041
    17 -2.869899 1.399667 -4.140396 -1.163265 1.764468 -4.903713
    18 4.972047 0.000000 0.000000 1.341647 -0.298710 -1.738743
    19 11.585358 0.000000 0.000001 0.386603 -0.378717 -1.409368
    20 10.127058 0.000000 0.000001 1.838187 0.648048 0.537534
    21 1.537458 0.109715 1.664489 -0.264662 -0.055995 0.783079
    22 0.928313 0.000000 0.000002 0.000000 0.000000 -0.453501
    23 0.928311 0.000000 0.000001 0.000000 0.000000 0.000000
    24 2.686395 -0.427337 0.044204 -0.005762 0.043239 -0.157074
    25 1.435260 0.000000 0.000001 0.000000 0.000000 0.732613
    26 1.482593 0.000000 -0.000001 0.000000 0.000000 1.168644
    27 2.046984 0.000001 0.000000 0.216966 0.394933 -0.269480
    28 -0.000005 0.000007 3.713254 -0.108015 -3.066256 5.834370
    29 18.045723 0.000000 0.000000 0.000000 0.000000 -0.445666
    30 17.597597 0.000000 0.000000 -0.062017 -0.013325 -0.003539
    31 0.000005 -0.000003 -3.713254 0.558710 3.015203 -0.008199
    32 18.045721 0.000000 0.000000 0.000000 0.000000 -0.531218
    33 17.597597 0.000000 0.000000 0.062437 0.094997 0.458750
  time 9
    0 0.157220 3.636981 1.540585 0.000000 0.000000 -1.571017
    1 1.128937 -0.273446 0.000000 -1.570795 -1.570787 0.000000
    2 1.293670 0.684478 -0.000001 0.000266 0.025358 0.010374
    3 5.309685 -0.003834 0.000000 -0.076390 -0.025587 0.028326
    4 4.826790 -0.004591 0.000000 -0.062678 -0.023610 -0.269199
    5 5.792767 -0.005304 0.000000 -0.104185 0.053727 -0.269186
    6 6.662322 -0.001452 0.000000 0.017701 0.155527 0.565701
    7 -3.108188 1.516823 4.339626 1.238993 -1.024532 -4.799756
    8 4.827512 0.000000 -0.000002 0.799876 0.836528 0.815006
    9 11.140032 0.000000 0.000000 0.049222 -0.089601 -1.327970
    10 10.314563 -0.000001 0.000001 -2.682047 0.316706 -0.342559
    11 1.646836 0.445664 -1.699647 -0.161704 0.581044 -0.283978
    12 0.928312 0.000000 0.000000 0.000000 0.000000 0.000000
    13 0.928313 0.000000 -0.000001 0.000000 0.000000 0.000000
    14 2.979373 -0.388274 -0.044205 -0.000805 -0.043611 0.000046
    15 1.435262 -0.000001 -0.000001 0.000000 0.000000 0.872146
    16 1.482593 -0.000001 0.000001 0.000000 0.000000 0.907041
    17 -2.869899 1.399667 -4.140396 -1.163265 1.764468 -4.903713
    18 4.972047 0.000000 0.000000 1.357311 -0.304977 -1.627662
    19 11.585358 0.000000 0.000001 0.386603 -0.383732 -1.553696
    20 10.127058 0.000000 0.000001 1.838187 0.648048 0.537534
    21 1.537458 0.109715 1.664489 -0.264662 -0.055995 0.783079
    22 0.928313 0.000000 0.000002 0.000000 0.000000 -0.453501
    23 0.928311 0.000000 0.000001 0.000000 0.000000 0.000000
    24 2.686395 -0.427337 0.044204 -0.005762 0.043239 -0.157074
    25 1.435260 0.000000 0.000001 0.000000 0.000000 0.732613
    26 1.482593 0.000000 -0.000001 0.000000 0.000000 1.168644
    27 2.046984 0.000001 0.000000 0.224074 0.380476 -0.215281
    28 -0.000005 0.000007 3.713254 -0.108015 -3.066352 5.834370
    29 18.045723 0.000000 0.000000 0.000000 0.000000 -0.445000
    30 17.597597 0.000000 0.000000 -0.062067 -0.013227 -0.004227
    31 0.000005 -0.000003 -3.713254 0.558710 3.015011 -0.008774
    32 18.045721 0.000000 0.000000 0.000000 0.000000 -0.531769
    33 17.597597 0.000000 0.000000 0.062336 0.094918 0.458657
  time 10
    0 0.157220 3.636981 1.540585 0.000000 0.000000 -1.571017
    1 1.109405 -0.273446 0.000000 -1.570795 -1.570787 0.000000
    2 1.293670 0.684478 -0.000001 0.000266 0.025358 0.010374
    3 5.309685 -0.003834 0.000000 -0.076287 -0.025983 0.027107
    4 4.826790 -0.004591 0.000000 -0.063422 -0.023154 -0.263776
    5 5.792767 -0.005304 0.000000 -0.104832 0.055728 -0.256417
    6 6.662322 -0.001452 0.000000 0.017701 0.155527 0.565701
    7 -3.108188 1.516823 4.339626 1.238993 -1.024532 -4.799756
    8 4.827512 0.000000 -0.000002 1.394166 0.862963 1.561586
    9 11.140032 0.000000 0.000000 0.009114 0.048558 -0.895713
    10 10.314563 -0.000001 0.000001 -2.674654 0.303779 -0.309696
    11 1.646836 0.445664 -1.699647 -0.161704 0.581044 -0.283978
    12 0.928312 0.000000 0.000000 0.000000 0.000000 0.000000
    13 0.928313 0.000000 -0.000001 0.000000 0.000000 0.000000
    14 2.979373 -0.388274 -0.044205 -0.000805 -0.043611 0.000046
    15 1.435262 -0.000001 -0.000001 0.000000 0.000000 0.872146
    16 1.482593 -0.000001 0.000001 0.000000 0.000000 0.907041
    17 -2.869899 1.399667 -4.140396 -1.163265 1.764468 -4.903713
    18 4.972047 0.000000 0.000000 1.358156 -0.317913 -1.519776
    19 11.585358 0.000000 0.000001 0.386603 -0.382597 -1.651630
    20 10.127058 0.000000 0.000001 1.838187 0.648048 0.537534
    21 1.537458 0.109715 1.664489 -0.264662 -0.055995 0.783079
    22 0.928313 0.000000 0.000002 0.000000 0.000000 -0.453501
    23 0.928311 0.000000 0.000001 0.000000 0.000000 0.000000
    24 2.686395 -0.427337 0.044204 -0.005762 0.043239 -0.157074
    25 1.435260 0.000000 0.000001 0.000000 0.000000 0.732613
    26 1.482593 0.000000 -0.000001 0.000000 0.000000 1.168644
    27 2.046984 0.000001 0.000000 0.232605 0.361447 -0.150559
    28 -0.000005 0.000007 3.713254 -0.108110 -3.066639 5.834370
    29 18.045723 0.000000 0.000000 0.000000 0.000000 -0.443816
    30 17.597597 0.000000 0.000000 -0.062143 -0.012956 -0.005373
    31 0.000005 -0.000003 -3.713254 0.558518 3.014532 -0.009829
    32 18.045721 0.000000 0.000000 0.000000 0.000000 -0.532871
    33 17.597597 0.000000 0.000000 0.062269 0.094721 0.458565
  time 11
    0 0.157220 3.636981 1.540585 0.000000 0.000000 -1.571017
    1 1.078154 -0.261727 0.000000 -1.570795 -1.570787 0.000000
    2 1.293670 0.684478 -0.000001 0.000266 0.025358 0.010374
    3 5.309685 -0.003834 0.000000 -0.076066 -0.026833 0.024087
    4 4.826790 -0.004591 0.000000 -0.064757 -0.022267 -0.253501
    5 5.792767 -0.005304 0.000000 -0.105768 0.058629 -0.236817
    6 6.662322 -0.001452 0.000000 0.017701 0.155527 0.565701
    7 -3.108188 1.516823 4.339626 1.238993 -1.024532 -4.799756
    8 4.827512 0.000000 -0.000002 -1.474448 2.272111 -1.235836
    9 11.140032 0.000000 0.000000 -0.012423 0.122980 -0.662921
    10 10.314563 -0.000001 0.000001 -2.672190 0.298908 -0.297444
    11 1.646836 0.445664 -1.699647 -0.161704 0.581044 -0.283978
    12 0.928312 0.000000 0.000000 0.000000 0.000000 0.000000
    13 0.928313 0.000000 -0.000001 0.000000 0.000000 0.000000
    14 2.979373 -0.388274 -0.044205 -0.000805 -0.043611 0.000046
    15 1.435262 -0.000001 -0.000001 0.000000 0.000000 0.872146
    16 1.482593 -0.000001 0.000001 0.000000 0.000000 0.907041
    17 -2.869899 1.399667 -4.140396 -1.163265 1.764468 -4.903713
    18 4.972047 0.000000 0.000000 1.342022 -0.330367 -1.433187
    19 11.585358 0.000000 0.000001 0.386603 -0.380737 -1.693042
    20 10.127058 0.000000 0.000001 1.838187 0.648048 0.537534
    21 1.537458 0.109715 1.664489 -0.264662 -0.055995 0.783079
    22 0.928313 0.000000 0.000002 0.000000 0.000000 -0.453501
    23 0.928311 0.000000 0.000001 0.000000 0.000000 0.000000
    24 2.686395 -0.427337 0.044204 -0.005762 0.043239 -0.157074
    25 1.435260 0.000000 0.000001 0.000000 0.000000 0.732613
    26 1.482593 0.000000 -0.000001 0.000000 0.000000 1.168644
    27 2.046984 0.000001 0.000000 0.239756 0.342063 -0.096361
    28 -0.000005 0.000007 3.713254 -0.108110 -3.067023 5.834274
    29 18.045723 0.000000 0.000000 0.000000 0.000000 -0.441892
    30 17.597597 0.000000 0.000000 -0.062270 -0.012612 -0.007253
    31 0.000005 -0.000003 -3.713254 0.558422 3.013957 -0.011362
    32 18.045721 0.000000 0.000000 0.000000 0.000000 -0.534288
    33 17.597597 0.000000 0.000000 0.062168 0.094405 0.458380
  time 12
    0 0.157220 3.636981 1.540585 0.000000 0.000000 -1.571017
    1 1.054716 -0.261727 0.000000 -1.570795 -1.570787 0.000000
    2 1.293670 0.684478 -0.000001 0.000266 0.025358 0.010374
    3 5.309685 -0.003834 0.000000 -0.075386 -0.029566 0.014795
    4 4.826790 -0.004591 0.000000 -0.066760 -0.020925 -0.238310
    5 5.792767 -0.005304 0.000000 -0.106775 0.062032 -0.213708
    6 6.662322 -0.001452 0.000000 0.017701 0.155527 0.565701
    7 -3.108188 1.516823 4.339626 1.238993 -1.024532 -4.799756
    8 4.827512 0.000000 -0.000002 1.487514 0.838831 1.723189
    9 11.140032 0.000000 0.000000 0.009114 0.048908 -0.887671
    10 10.314563 -0.000001 0.000001 -2.673896 0.304997 -0.312773
    11 1.646836 0.445664 -1.699647 -0.161704 0.581044 -0.283978
    12 0.928312 0.000000 0.000000 0.000000 0.000000 0.000000
    13 0.928313 0.000000 -0.000001 0.000000 0.000000 0.000000
    14 2.979373 -0.388274 -0.044205 -0.000805 -0.043611 0.000046
    15 1.435262 -0.000001 -0.000001 0.000000 0.000000 0.872146
    16 1.482593 -0.000001 0.000001 0.000000 0.000000 0.907041
    17 -2.869899 1.399667 -4.140396 -1.163265 1.764468 -4.903713
    18 4.972047 0.000000 0.000000 1.322418 -0.337036 -1.378213
    19 11.585358 0.000000 0.000001 0.386603 -0.380464 -1.697779
    20 10.127058 0.000000 0.000001 1.838187 0.648048 0.537534
    21 1.537458 0.109715 1.664489 -0.264662 -0.055995 0.783079
    22 0.928313 0.000000 0.000002 0.000000 0.000000 -0.453501
    23 0.928311 0.000000 0.000001 0.000000 0.000000 0.000000
    24 2.686395 -0.427337 0.044204 -0.005762 0.043239 -0.157074
    25 1.435260 0.000000 0.000001 0.000000 0.000000 0.732613
    26 1.482593 0.000000 -0.000001 0.000000 0.000000 1.168644
    27 2.046984 0.000001 0.000000 0.242729 0.326544 -0.073611
    28 -0.000005 0.000007 3.713254 -0.108110 -3.067119 5.834370
    29 18.045723 0.000000 0.000000 0.000000 0.000000 -0.440781
    30 17.597597 0.000000 0.000000 -0.062295 -0.012513 -0.008307
    31 0.000005 -0.000003 -3.713254 0.558422 3.013669 -0.012321
    32 18.045721 0.000000 0.000000 0.000000 0.000000 -0.535154
    33 17.597597 0.000000 0.000000 0.062101 0.094188 0.458380
  time 13
    0 0.157220 3.636981 1.540585 0.000000 0.000000 -1.571017
    1 1.058622 -0.261727 0.000000 -1.570795 -1.570787 0.000000
    2 1.293670 0.684478 -0.000001 0.000266 0.025358 0.010374
    3 5.309685 -0.003834 0.000000 -0.074348 -0.033545 0.001071
    4 4.826790 -0.004591 0.000000 -0.068916 -0.019403 -0.221553
    5 5.792767 -0.005304 0.000000 -0.107747 0.065472 -0.190246
    6 6.662322 -0.001452 0.000000 0.014849 0.152572 0.523463
    7 -3.108188 1.516823 4.339626 1.238993 -1.024532 -4.799756
    8 4.827512 0.000000 -0.000002 1.090444 0.773170 1.312120
    9 11.140032 0.000000 0.000000 0.049222 -0.088628 -1.341374
    10 10.314563 -0.000001 0.000001 -2.679677 0.320921 -0.353301
    11 1.646836 0.445664 -1.699647 -0.161704 0.581044 -0.283978
    12 0.928312 0.000000 0.000000 0.000000 0.000000 0.000000
    13 0.928313 0.000000 -0.000001 0.000000 0.000000 0.000000
    14 2.979373 -0.388274 -0.044205 -0.000805 -0.043611 0.000046
    15 1.435262 -0.000001 -0.000001 0.000000 0.000000 0.872146
    16 1.482593 -0.000001 0.000001 0.000000 0.000000 0.907041
    17 -2.869899 1.399667 -4.140396 -1.163265 1.764468 -4.903713
    18 4.972047 0.000000 0.000000 1.258166 -0.369096 -1.339278
    19 11.585358 0.000000 0.000001 0.386603 -0.382189 -1.666251
    20 10.127058 0.000000 0.000001 1.838187 0.648048 0.537534
    21 1.537458 0.109715 1.664489 -0.264662 -0.055995 0.783079
    22 0.928313 0.000000 0.000002 0.000000 0.000000 -0.453501
    23 0.928311 0.000000 0.000001 0.000000 0.000000 0.000000
    24 2.686395 -0.427337 0.044204 -0.005762 0.043239 -0.157074
    25 1.435260 0.000000 0.000001 0.000000 0.000000 0.732613
    26 1.482593 0.000000 -0.000001 0.000000 0.000000 1.168644
    27 2.046984 0.000001 0.000000 0.213217 0.313563 -0.076835
    28 -0.000005 0.000007 3.713254 -0.108110 -3.067023 5.834370
    29 18.045723 0.000000 0.000000 0.000000 0.000000 -0.440855
    30 17.597597 0.000000 0.000000 -0.062295 -0.012661 -0.008216
    31 0.000005 -0.000003 -3.713254 0.558518 3.013765 -0.012225
    32 18.045721 0.000000 0.000000 0.000000 0.000000 -0.535154
    33 17.597597 0.000000 0.000000 0.062034 0.094129 0.458380
  time 14
    0 0.157220 3.636981 1.540585 0.000000 0.000000 -1.571017
    1 1.042997 -0.261727 0.000000 -1.570795 -1.570787 0.000000
    2 1.293670 0.684478 -0.000001 0.000266 0.025358 0.010374
    3 5.309685 -0.003834 0.000000 -0.073616 -0.036146 -0.007902
    4 4.826790 -0.004591 0.000000 -0.070861 -0.018013 -0.206384
    5 5.792767 -0.005304 0.000000 -0.108502 0.068516 -0.169629
    6 6.662322 -0.001452 0.000000 0.012092 0.149507 0.481282
    7 -3.108188 1.516823 4.339626 1.238993 -1.024532 -4.799756
    8 4.827512 0.000000 -0.000002 0.688033 0.712370 0.877048
    9 11.140032 0.000000 0.000000 0.070821 -0.162701 -1.693063
    10 10.314563 -0.000001 0.000001 -2.690387 0.343402 -0.410552
    11 1.646836 0.445664 -1.699647 -0.161704 0.581044 -0.283978
    12 0.928312 0.000000 0.000000 0.000000 0.000000 0.000000
    13 0.928313 0.000000 -0.000001 0.000000 0.000000 0.000000
    14 2.979373 -0.388274 -0.044205 -0.000805 -0.043611 0.000046
    15 1.435262 -0.000001 -0.000001 0.000000 0.000000 0.872146
    16 1.482593 -0.000001 0.000001 0.000000 0.000000 0.907041
    17 -2.869899 1.399667 -4.140396 -1.163265 1.764468 -4.903713
    18 4.972047 0.000000 0.000000 1.164462 -0.423251 -1.318180
    19 11.585358 0.000000 0.000001 0.386603 -0.383641 -1.598702
    20 10.127058 0.000000 0.000001 1.838187 0.648048 0.537534
    21 1.537458 0.109715 1.664489 -0.264662 -0.055995 0.783079
    22 0.928313 0.000000 0.000002 0.000000 0.000000 -0.453501
    23 0.928311 0.000000 0.000001 0.000000 0.000000 0.000000
    24 2.686395 -0.427337 0.044204 -0.005762 0.043239 -0.157074
    25 1.435260 0.000000 0.000001 0.000000 0.000000 0.732613
    26 1.482593 0.000000 -0.000001 0.000000 0.000000 1.168644
    27 2.046984 0.000001 0.000000 0.139459 0.299991 -0.085898
    28 -0.000005 0.000007 3.713254 -0.108110 -3.067119 5.834370
    29 18.045723 0.000000 0.000000 0.000000 0.000000 -0.439819
    30 17.597597 0.000000 0.000000 -0.062346 -0.012538 -0.009224
    31 0.000005 -0.000003 -3.713254 0.558518 3.013477 -0.012992
    32 18.045721 0.000000 0.000000 0.000000 0.000000 -0.535941
    33 17.597597 0.000000 0.000000 0.061967 0.093912 0.458380
  time 15
    0 0.157220 3.636981 1.540585 0.000000 0.000000 -1.571017
    1 1.011746 -0.253914 0.000000 -1.570795 -1.570787 0.000000
    2 1.293670 0.684478 -0.000001 0.000266 0.025358 0.010374
    3 5.309685 -0.003834 0.000000 -0.073412 -0.036865 -0.010375
    4 4.826790 -0.004591 0.000000 -0.072158 -0.017042 -0.196087
    5 5.792767 -0.005304 0.000000 -0.109042 0.070673 -0.155157
    6 6.662322 -0.001452 0.000000 0.009492 0.146332 0.439129
    7 -3.108188 1.516823 4.339626 1.238993 -1.024532 -4.799756
    8 4.827512 0.000000 -0.000002 0.329945 0.689005 0.389813
    9 11.140032 0.000000 0.000000 0.070821 -0.160728 -1.768704
    10 10.314563 -0.000001 0.000001 -2.707068 0.369256 -0.476163
    11 1.646836 0.445664 -1.699647 -0.161704 0.581044 -0.283978
    12 0.928312 0.000000 0.000000 0.000000 0.000000 0.000000
    13 0.928313 0.000000 -0.000001 0.000000 0.000000 0.000000
    14 2.979373 -0.388274 -0.044205 -0.000805 -0.043611 0.000046
    15 1.435262 -0.000001 -0.000001 0.000000 0.000000 0.872146
    16 1.482593 -0.000001 0.000001 0.000000 0.000000 0.907041
    17 -2.869899 1.399667 -4.140396 -1.163265 1.764468 -4.903713
    18 4.972047 0.000000 0.000000 1.114373 -0.459810 -1.333221
    19 11.585358 0.000000 0.000001 0.386603 -0.383369 -1.530091
    20 10.127058 0.000000 0.000001 1.838187 0.648048 0.537534
    21 1.537458 0.109715 1.664489 -0.264662 -0.055995 0.783079
    22 0.928313 0.000000 0.000002 0.000000 0.000000 -0.453501
    23 0.928311 0.000000 0.000001 0.000000 0.000000 0.000000
    24 2.686395 -0.427337 0.044204 -0.005762 0.043239 -0.157074
    25 1.435260 0.000000 0.000001 0.000000 0.000000 0.732613
    26 1.482593 0.000000 -0.000001 0.000000 0.000000 1.168644
    27 2.046984 0.000001 0.000000 0.043557 0.287128 -0.099463
    28 -0.000005 0.000007 3.713254 -0.108110 -3.067406 5.834370
    29 18.045723 0.000000 0.000000 0.000000 0.000000 -0.437969
    30 17.597597 0.000000 0.000000 -0.062422 -0.012218 -0.011058
    31 0.000005 -0.000003 -3.713254 0.558422 3.012902 -0.014526
    32 18.045721 0.000000 0.000000 0.000000 0.000000 -0.537358
    33 17.597597 0.000000 0.000000 0.061866 0.093577 0.458196
  time 16
    0 0.157220 3.636981 1.540585 0.000000 0.000000 -1.571017
    1 0.992214 -0.253914 0.000000 -1.570795 -1.570787 0.000000
    2 1.293670 0.684478 -0.000001 0.000266 0.025358 0.010374
    3 5.309685 -0.003834 0.000000 -0.073378 -0.037032 -0.011046
    4 4.826790 -0.004591 0.000000 -0.072692 -0.016647 -0.191788
    5 5.792767 -0.005304 0.000000 -0.109257 0.071656 -0.148534
    6 6.662322 -0.001452 0.000000 0.007023 0.143047 0.396948
    7 -3.108188 1.516823 4.339626 1.238993 -1.024532 -4.799756
    8 4.827512 0.000000 -0.000002 -0.143813 0.529628 -0.373751
    9 11.140032 0.000000 0.000000 0.070821 -0.163874 -1.539389
    10 10.314563 -0.000001 0.000001 -2.730477 0.395109 -0.541775
    11 1.646836 0.445664 -1.699647 -0.161704 0.581044 -0.283978
    12 0.928312 0.000000 0.000000 0.000000 0.000000 0.000000
    13 0.928313 0.000000 -0.000001 0.000000 0.000000 0.000000
    14 2.979373 -0.388274 -0.044205 -0.000805 -0.043611 0.000046
    15 1.435262 -0.000001 -0.000001 0.000000 0.000000 0.872146
    16 1.482593 -0.000001 0.000001 0.000000 0.000000 0.907041
    17 -2.869899 1.399667 -4.140396 -1.163265 1.764468 -4.903713
    18 4.972047 0.000000 0.000000 1.106682 -0.510832 -1.416415
    19 11.585358 0.000000 0.000001 0.386603 -0.383891 -1.564069
    20 10.127058 0.000000 0.000001 1.838187 0.648048 0.537534
    21 1.537458 0.109715 1.664489 -0.264662 -0.055995 0.783079
    22 0.928313 0.000000 0.000002 0.000000 0.000000 -0.453501
    23 0.928311 0.000000 0.000001 0.000000 0.000000 0.000000
    24 2.686395 -0.427337 0.044204 -0.005762 0.043239 -0.157074
    25 1.435260 0.000000 0.000001 0.000000 0.000000 0.732613
    26 1.482593 0.000000 -0.000001 0.000000 0.000000 1.168644
    27 2.046984 0.000001 0.000000 -0.052346 0.276329 -0.116313
    28 -0.000005 0.000007 3.713254 -0.108110 -3.067598 5.834370
    29 18.045723 0.000000 0.000000 0.000000 0.000000 -0.437081
    30 17.597597 0.000000 0.000000 -0.062447 -0.012070 -0.011929
    31 0.000005 -0.000003 -3.713254 0.558422 3.012615 -0.015389
    32 18.045721 0.000000 0.000000 0.000000 0.000000 -0.538145
    33 17.597597 0.000000 0.000000 0.061799 0.093419 0.458057
  time 17
    0 0.157220 3.636981 1.540585 0.000000 0.000000 -1.571017
    1 0.984401 -0.253914 0.000000 -1.570795 -1.570787 0.000000
    2 1.293670 0.684478 -0.000001 0.000266 0.025358 0.010374
    3 5.309685 -0.003834 0.000000 -0.073395 -0.036925 -0.010570
    4 4.826790 -0.004591 0.000000 -0.072769 -0.016599 -0.191259
    5 5.792767 -0.005304 0.000000 -0.109293 0.071788 -0.147724
    6 6.662322 -0.001452 0.000000 0.004698 0.139666 0.354824
    7 -3.108188 1.516823 4.339626 1.238993 -1.024532 -4.799756
    8 4.827512 0.000000 -0.000002 -0.395878 0.197231 -0.935245
    9 11.140032 0.000000 0.000000 0.070821 -0.130195 -0.919695
    10 10.314563 -0.000001 0.000001 -2.761754 0.417591 -0.599025
    11 1.646836 0.445664 -1.699647 -0.161704 0.581044 -0.283978
    12 0.928312 0.000000 0.000000 0.000000 0.000000 0.000000
    13 0.928313 0.000000 -0.000001 0.000000 0.000000 0.000000
    14 2.979373 -0.388274 -0.044205 -0.000805 -0.043611 0.000046
    15 1.435262 -0.000001 -0.000001 0.000000 0.000000 0.872146
    16 1.482593 -0.000001 0.000001 0.000000 0.000000 0.907041
    17 -2.869899 1.399667 -4.140396 -1.163265 1.764468 -4.903713
    18 4.972047 0.000000 0.000000 1.108464 -0.577522 -1.564701
    19 11.585358 0.000000 0.000001 0.386603 -0.382960 -1.632517
    20 10.127058 0.000000 0.000001 1.838187 0.648048 0.537534
    21 1.537458 0.109715 1.664489 -0.264662 -0.055995 0.783079
    22 0.928313 0.000000 0.000002 0.000000 0.000000 -0.453501
    23 0.928311 0.000000 0.000001 0.000000 0.000000 0.000000
    24 2.686395 -0.427337 0.044204 -0.005762 0.043239 -0.157074
    25 1.435260 0.000000 0.000001 0.000000 0.000000 0.732613
    26 1.482593 0.000000 -0.000001 0.000000 0.000000 1.168644
    27 2.046984 0.000001 0.000000 -0.126104 0.268865 -0.135291
    28 -0.000005 0.000007 3.713254 -0.108110 -3.067694 5.834370
    29 18.045723 0.000000 0.000000 0.000000 0.000000 -0.436785
    30 17.597597 0.000000 0.000000 -0.062498 -0.012021 -0.012250
    31 0.000005 -0.000003 -3.713254 0.558422 3.012423 -0.015581
    32 18.045721 0.000000 0.000000 0.000000 0.000000 -0.538381
    33 17.597597 0.000000 0.000000 0.061766 0.093399 0.458057
  time 18
    0 0.157220 3.636981 1.540585 0.000000 0.000000 -1.571017
    1 0.992214 -0.253914 0.000000 -1.570795 -1.570787 0.000000
    2 1.293670 0.684478 -0.000001 0.000266 0.025358 0.010374
    3 5.309685 -0.003834 0.000000 -0.073480 -0.036601 -0.009474
    4 4.826790 -0.004591 0.000000 -0.072578 -0.016754 -0.192846
    5 5.792767 -0.005304 0.000000 -0.109204 0.071416 -0.150195
    6 6.662322 -0.001452 0.000000 0.004698 0.139666 0.354824
    7 -3.108188 1.516823 4.339626 1.238993 -1.024532 -4.799756
    8 4.827512 0.000000 -0.000002 -0.462203 -0.146933 -1.294585
    9 11.140032 0.000000 0.000000 0.070821 -0.019598 -0.120390
    10 10.314563 -0.000001 0.000001 -2.801560 0.433609 -0.639553
    11 1.646836 0.445664 -1.699647 -0.161704 0.581044 -0.283978
    12 0.928312 0.000000 0.000000 0.000000 0.000000 0.000000
    13 0.928313 0.000000 -0.000001 0.000000 0.000000 0.000000
    14 2.979373 -0.388274 -0.044205 -0.000805 -0.043611 0.000046
    15 1.435262 -0.000001 -0.000001 0.000000 0.000000 0.872146
    16 1.482593 -0.000001 0.000001 0.000000 0.000000 0.907041
    17 -2.869899 1.399667 -4.140396 -1.163265 1.764468 -4.903713
    18 4.972047 0.000000 0.000000 1.115030 -0.606046 -1.668993
    19 11.585358 0.000000 0.000001 0.386603 -0.383028 -1.629903
    20 10.127058 0.000000 0.000001 1.838187 0.648048 0.537534
    21 1.537458 0.109715 1.664489 -0.264662 -0.055995 0.783079
    22 0.928313 0.000000 0.000002 0.000000 0.000000 -0.453501
    23 0.928311 0.000000 0.000001 0.000000 0.000000 0.000000
    24 2.686395 -0.427337 0.044204 -0.005762 0.043239 -0.157074
    25 1.435260 0.000000 0.000001 0.000000 0.000000 0.732613
    26 1.482593 0.000000 -0.000001 0.000000 0.000000 1.168644
    27 2.046984 0.000001 0.000000 -0.155615 0.266092 -0.155182
    28 -0.000005 0.000007 3.713254 -0.108110 -3.067694 5.834370
    29 18.045723 0.000000 0.000000 0.000000 0.000000 -0.436859
    30 17.597597 0.000000 0.000000 -0.062498 -0.012021 -0.012204
    31 0.000005 -0.000003 -3.713254 0.558518 3.012423 -0.015485
    32 18.045721 0.000000 0.000000 0.000000 0.000000 -0.538224
    33 17.597597 0.000000 0.000000 0.061699 0.093419 0.458057
  time 19
    0 0.157220 3.636981 1.540585 0.000000 0.000000 -1.571017
    1 0.992214 -0.253914 0.000000 -1.570795 -1.570787 0.000000
    2 1.293670 0.684478 -0.000001 0.000266 0.025358 0.010374
    3 5.309685 -0.003834 0.000000 -0.073582 -0.036265 -0.008379
    4 4.826790 -0.004591 0.000000 -0.072311 -0.016958 -0.195007
    5 5.792767 -0.005304 0.000000 -0.109096 0.070913 -0.153496
    6 6.662322 -0.001452 0.000000 0.004698 0.139666 0.354824
    7 -3.108188 1.516823 4.339626 1.238993 -1.024532 -4.799756
    8 4.827512 0.000000 -0.000002 -0.461724 -0.241075 -1.312521
    9 11.140032 0.000000 0.000000 0.070821 0.000000 -0.000045
    10 10.314563 -0.000001 0.000001 -2.850938 0.439604 -0.654882
    11 1.646836 0.445664 -1.699647 -0.161704 0.581044 -0.283978
    12 0.928312 0.000000 0.000000 0.000000 0.000000 0.000000
    13 0.928313 0.000000 -0.000001 0.000000 0.000000 0.000000
    14 2.979373 -0.388274 -0.044205 -0.000805 -0.043611 0.000046
    15 1.435262 -0.000001 -0.000001 0.000000 0.000000 0.872146
    16 1.482593 -0.000001 0.000001 0.000000 0.000000 0.907041
    17 -2.869899 1.399667 -4.140396 -1.163265 1.764468 -4.903713
    18 4.972047 0.000000 0.000000 1.120189 -0.607894 -1.699475
    19 11.585358 0.000000 0.000001 0.386603 -0.383891 -1.585551
    20 10.127058 0.000000 0.000001 1.838187 0.648048 0.537534
    21 1.537458 0.109715 1.664489 -0.264662 -0.055995 0.783079
    22 0.928313 0.000000 0.000002 0.000000 0.000000 -0.453501
    23 0.928311 0.000000 0.000001 0.000000 0.000000 0.000000
    24 2.686395 -0.427337 0.044204 -0.005762 0.043239 -0.157074
    25 1.435260 0.000000 0.000001 0.000000 0.000000 0.732613
    26 1.482593 0.000000 -0.000001 0.000000 0.000000 1.168644
    27 2.046984 0.000001 0.000000 -0.117186 0.280076 -0.182069
    28 -0.000005 0.000007 3.713254 -0.108110 -3.067598 5.834370
    29 18.045723 0.000000 0.000000 0.000000 0.000000 -0.437081
    30 17.597597 0.000000 0.000000 -0.062498 -0.012070 -0.011929
    31 0.000005 -0.000003 -3.713254 0.558518 3.012519 -0.015293
    32 18.045721 0.000000 0.000000 0.000000 0.000000 -0.538145
    33 17.597597 0.000000 0.000000 0.061699 0.093478 0.458057
  time 20
    0 0.157220 3.636981 1.540585 0.000000 0.000000 -1.571017
    1 0.992214 -0.253914 0.000000 -1.570795 -1.570787 0.000000
    2 1.293670 0.684478 -0.000001 0.000266 0.025358 0.010374
    3 5.309685 -0.003834 0.000000 -0.073616 -0.036146 -0.007902
    4 4.826790 -0.004591 0.000000 -0.072158 -0.017042 -0.196087
    5 5.792767 -0.005304 0.000000 -0.109042 0.070673 -0.155157
    6 6.662322 -0.001452 0.000000 0.004698 0.139666 0.354824
    7 -3.108188 1.516823 4.339626 1.238993 -1.024532 -4.799756
    8 4.827512 0.000000 -0.000002 -0.468979 -0.210036 -1.212787
    9 11.140032 0.000000 0.000000 0.070821 -0.034053 -0.210087
    10 10.314563 -0.000001 0.000001 -3.059351 0.402697 -0.631366
    11 1.646836 0.445664 -1.699647 -0.161704 0.581044 -0.283978
    12 0.928312 0.000000 0.000000 0.000000 0.000000 0.000000
    13 0.928313 0.000000 -0.000001 0.000000 0.000000 0.000000
    14 2.979373 -0.388274 -0.044205 -0.000805 -0.043611 0.000046
    15 1.435262 -0.000001 -0.000001 0.000000 0.000000 0.872146
    16 1.482593 -0.000001 0.000001 0.000000 0.000000 0.907041
    17 -2.869899 1.399667 -4.140396 -1.163265 1.764468 -4.903713
    18 4.972047 0.000000 0.000000 1.125254 -0.609501 -1.726563
    19 11.585358 0.000000 0.000001 0.386603 -0.383641 -1.546917
    20 10.127058 0.000000 0.000001 1.838187 0.648048 0.537534
    21 1.537458 0.109715 1.664489 -0.264662 -0.055995 0.783079
    22 0.928313 0.000000 0.000002 0.000000 0.000000 -0.453501
    23 0.928311 0.000000 0.000001 0.000000 0.000000 0.000000
    24 2.686395 -0.427337 0.044204 -0.005762 0.043239 -0.157074
    25 1.435260 0.000000 0.000001 0.000000 0.000000 0.732613
    26 1.482593 0.000000 -0.000001 0.000000 0.000000 1.168644
    27 2.046984 0.000001 0.000000 -0.025505 0.313474 -0.217714
    28 -0.000005 0.000007 3.713254 -0.108302 -3.067502 5.834370
    29 18.045723 0.000000 0.000000 0.000000 0.000000 -0.437229
    30 17.597597 0.000000 0.000000 -0.062219 -0.012021 -0.011838
    31 0.000005 -0.000003 -3.713254 0.557847 3.012710 -0.015293
    32 18.045721 0.000000 0.000000 0.000000 0.000000 -0.537909
    33 17.597597 0.000000 0.000000 0.062403 0.093360 0.458196
  time 21
    0 0.157220 3.636981 1.540585 0.000000 0.000000 -1.571017
    1 0.992214 -0.253914 0.000000 -1.570795 -1.570787 0.000000
    2 1.293670 0.684478 -0.000001 0.000266 0.025358 0.010374
    3 5.309685 -0.003834 0.000000 -0.073616 -0.036146 -0.007902
    4 4.826790 -0.004591 0.000000 -0.072158 -0.017042 -0.196087
    5 5.792767 -0.005304 0.000000 -0.109042 0.070673 -0.155157
    6 6.662322 -0.001452 0.000000 0.004698 0.139666 0.354824
    7 -3.108188 1.516823 4.339626 1.238993 -1.024532 -4.799756
    8 4.827512 0.000000 -0.000002 -0.475037 -0.177035 -1.127956
    9 11.140032 0.000000 0.000000 0.070821 -0.064761 -0.407450
    10 10.314563 -0.000001 0.000001 -3.447081 0.321296 -0.579574
    11 1.646836 0.445664 -1.699647 -0.161704 0.581044 -0.283978
    12 0.928312 0.000000 0.000000 0.000000 0.000000 0.000000
    13 0.928313 0.000000 -0.000001 0.000000 0.000000 0.000000
    14 2.979373 -0.388274 -0.044205 -0.000805 -0.043611 0.000046
    15 1.435262 -0.000001 -0.000001 0.000000 0.000000 0.872146
    16 1.482593 -0.000001 0.000001 0.000000 0.000000 0.907041
    17 -2.869899 1.399667 -4.140396 -1.163265 1.764468 -4.903713
    18 4.972047 0.000000 0.000000 1.129850 -0.610626 -1.748327
    19 11.585358 0.000000 0.000001 0.386603 -0.383165 -1.516205
    20 10.127058 0.000000 0.000001 1.838187 0.648048 0.537534
    21 1.537458 0.109715 1.664489 -0.264662 -0.055995 0.783079
    22 0.928313 0.000000 0.000002 0.000000 0.000000 -0.453501
    23 0.928311 0.000000 0.000001 0.000000 0.000000 0.000000
    24 2.686395 -0.427337 0.044204 -0.005762 0.043239 -0.157074
    25 1.435260 0.000000 0.000001 0.000000 0.000000 0.732613
    26 1.482593 0.000000 -0.000001 0.000000 0.000000 1.168644
    27 2.046984 0.000001 0.000000 0.083839 0.353304 -0.253542
    28 -0.000005 0.000007 3.713254 -0.108302 -3.067502 5.834370
    29 18.045723 0.000000 0.000000 0.000000 0.000000 -0.437229
    30 17.597597 0.000000 0.000000 -0.062219 -0.012021 -0.011838
    31 0.000005 -0.000003 -3.713254 0.557847 3.012710 -0.015293
    32 18.045721 0.000000 0.000000 0.000000 0.000000 -0.537909
    33 17.597597 0.000000 0.000000 0.062403 0.093360 0.458196
  time 22
    0 0.157220 3.636981 1.540585 0.000000 0.000000 -1.571017
    1 0.992214 -0.253914 0.000000 -1.570795 -1.570787 0.000000
    2 1.293670 0.684478 -0.000001 0.000266 0.025358 0.010374
    3 5.309685 -0.003834 0.000000 -0.073616 -0.036146 -0.007902
    4 4.826790 -0.004591 0.000000 -0.072158 -0.017042 -0.196087
    5 5.792767 -0.005304 0.000000 -0.109042 0.070673 -0.155157
    6 6.662322 -0.001452 0.000000 0.004698 0.139666 0.354824
    7 -3.108188 1.516823 4.339626 1.238993 -1.024532 -4.799756
    8 4.827512 0.000000 -0.000002 -0.479262 -0.156143 -1.071460
    9 11.140032 0.000000 0.000000 0.070821 -0.086006 -0.554023
    10 10.314563 -0.000001 0.000001 -3.821163 0.239988 -0.527723
    11 1.646836 0.445664 -1.699647 -0.161704 0.581044 -0.283978
    12 0.928312 0.000000 0.000000 0.000000 0.000000 0.000000
    13 0.928313 0.000000 -0.000001 0.000000 0.000000 0.000000
    14 2.979373 -0.388274 -0.044205 -0.000805 -0.043611 0.000046
    15 1.435262 -0.000001 -0.000001 0.000000 0.000000 0.872146
    16 1.482593 -0.000001 0.000001 0.000000 0.000000 0.907041
    17 -2.869899 1.399667 -4.140396 -1.163265 1.764468 -4.903713
    18 4.972047 0.000000 0.000000 1.132945 -0.611189 -1.762570
    19 11.585358 0.000000 0.000001 0.386603 -0.382847 -1.495948
    20 10.127058 0.000000 0.000001 1.838187 0.648048 0.537534
    21 1.537458 0.109715 1.664489 -0.264662 -0.055995 0.783079
    22 0.928313 0.000000 0.000002 0.000000 0.000000 -0.453501
    23 0.928311 0.000000 0.000001 0.000000 0.000000 0.000000
    24 2.686395 -0.427337 0.044204 -0.005762 0.043239 -0.157074
    25 1.435260 0.000000 0.000001 0.000000 0.000000 0.732613
    26 1.482593 0.000000 -0.000001 0.000000 0.000000 1.168644
    27 2.046984 0.000001 0.000000 0.175520 0.386702 -0.281159
    28 -0.000005 0.000007 3.713254 -0.108302 -3.067502 5.834370
    29 18.045723 0.000000 0.000000 0.000000 0.000000 -0.437229
    30 17.597597 0.000000 0.000000 -0.062219 -0.012021 -0.011838
    31 0.000005 -0.000003 -3.713254 0.557847 3.012710 -0.015293
    32 18.045721 0.000000 0.000000 0.000000 0.000000 -0.537909
    33 17.597597 0.000000 0.000000 0.062403 0.093360 0.458196
  time 23
    0 0.157220 3.636981 1.540585 0.000000 0.000000 -1.571017
    1 0.992214 -0.253914 0.000000 -1.570795 -1.570787 0.000000
    2 1.293670 0.684478 -0.000001 0.000266 0.025358 0.010374
    3 5.309685 -0.003834 0.000000 -0.073616 -0.036146 -0.007902
    4 4.826790 -0.004591 0.000000 -0.072158 -0.017042 -0.196087
    5 5.792767 -0.005304 0.000000 -0.109042 0.070673 -0.155157
    6 6.662322 -0.001452 0.000000 0.004698 0.139666 0.354824
    7 -3.108188 1.516823 4.339626 1.238993 -1.024532 -4.799756
    8 4.827512 0.000000 -0.000002 -0.481096 -0.149577 -1.051443
    9 11.140032 0.000000 0.000000 0.070821 -0.093846 -0.610682
    10 10.314563 -0.000001 0.000001 -3.988822 0.203081 -0.504208
    11 1.646836 0.445664 -1.699647 -0.161704 0.581044 -0.283978
    12 0.928312 0.000000 0.000000 0.000000 0.000000 0.000000
    13 0.928313 0.000000 -0.000001 0.000000 0.000000 0.000000
    14 2.979373 -0.388274 -0.044205 -0.000805 -0.043611 0.000046
    15 1.435262 -0.000001 -0.000001 0.000000 0.000000 0.872146
    16 1.482593 -0.000001 0.000001 0.000000 0.000000 0.907041
    17 -2.869899 1.399667 -4.140396 -1.163265 1.764468 -4.903713
    18 4.972047 0.000000 0.000000 1.133789 -0.611189 -1.767561
    19 11.585358 0.000000 0.000001 0.386603 -0.382733 -1.488597
    20 10.127058 0.000000 0.000001 1.838187 0.648048 0.537534
    21 1.537458 0.109715 1.664489 -0.264662 -0.055995 0.783079
    22 0.928313 0.000000 0.000002 0.000000 0.000000 -0.453501
    23 0.928311 0.000000 0.000001 0.000000 0.000000 0.000000
    24 2.686395 -0.427337 0.044204 -0.005762 0.043239 -0.157074
    25 1.435260 0.000000 0.000001 0.000000 0.000000 0.732613
    26 1.482593 0.000000 -0.000001 0.000000 0.000000 1.168644
    27 2.046984 0.000001 0.000000 0.213950 0.400686 -0.292229
    28 -0.000005 0.000007 3.713254 -0.108302 -3.067502 5.834370
    29 18.045723 0.000000 0.000000 0.000000 0.000000 -0.437229
    30 17.597597 0.000000 0.000000 -0.062219 -0.012021 -0.011838
    31 0.000005 -0.000003 -3.713254 0.557847 3.012710 -0.015293
    32 18.045721 0.000000 0.000000 0.000000 0.000000 -0.537909
    33 17.597597 0.000000 0.000000 0.062403 0.093360 0.458196
end
