version 1
nodes
  0 "Bip01" -1
  1 "Bip01 Pelvis" 0
  2 "Bip01 Spine" 1
  3 "Bip01 Spine1" 2
  4 "Bip01 Spine2" 3
  5 "Bip01 Spine3" 4
  6 "Bip01 Neck" 5
  7 "Bip01 L Arm" 6
  8 "Bip01 L Arm1" 7
  9 "Bip01 L Arm2" 8
  10 "Bip01 L Hand" 9
  11 "Bip01 L Finger0" 10
  12 "Bip01 L Finger01" 11
  13 "Bip01 L Finger02" 12
  14 "Bip01 L Finger1" 10
  15 "Bip01 L Finger11" 14
  16 "Bip01 L Finger12" 15
  17 "Bip01 R Arm" 6
  18 "Bip01 R Arm1" 17
  19 "Bip01 R Arm2" 18
  20 "Bip01 R Hand" 19
  21 "Bip01 R Finger0" 20
  22 "Bip01 R Finger01" 21
  23 "Bip01 R Finger02" 22
  24 "Bip01 R Finger1" 20
  25 "Bip01 R Finger11" 24
  26 "Bip01 R Finger12" 25
  27 "Bip01 Head" 6
  28 "Bip01 L Leg" 1
  29 "Bip01 L Leg1" 28
  30 "Bip01 L Foot" 29
  31 "Bip01 R Leg" 1
  32 "Bip01 R Leg1" 31
  33 "Bip01 R Foot" 32
end
skeleton
  time 0
    0 0.395509 2.672108 0.368674 0.000000 0.000000 -1.571017
    1 -0.425798 0.058596 0.000000 -1.570795 -1.570787 0.000000
    2 1.293670 0.684478 -0.000001 -0.061032 -0.010523 -0.052221
    3 5.309685 -0.003834 0.000000 -0.144968 -0.006831 0.022408
    4 4.826790 -0.004591 0.000000 -0.099759 0.005765 0.184356
    5 5.792767 -0.005304 0.000000 -0.176855 -0.005333 0.178667
    6 6.662322 -0.001452 0.000000 -0.091910 0.032655 0.231870
    7 -3.518356 0.356631 4.277124 0.678828 -1.401154 -4.049116
    8 4.827512 0.000000 -0.000002 -0.663887 0.752278 -1.091043
    9 11.140032 0.000000 0.000000 0.000000 0.000000 -0.662196
    10 10.314563 -0.000001 0.000001 -3.787233 0.614584 0.029452
    11 1.646836 0.445664 -1.699647 -0.392035 3.352851 -0.875707
    12 0.928312 0.000000 0.000000 0.000000 0.000000 0.593404
    13 0.928313 0.000000 -0.000001 0.000000 0.000000 1.204231
    14 2.979373 -0.388274 -0.044205 -0.030851 -0.030823 0.768363
    15 1.435262 -0.000001 -0.000001 0.000000 0.000000 1.204014
    16 1.482593 -0.000001 0.000001 0.000000 0.000000 0.445026
    17 -2.975371 1.071532 -4.156022 -1.403145 0.725234 -4.686004
    18 4.972047 0.000000 0.000000 0.744432 -0.482148 -1.377480
    19 11.585358 0.000000 0.000001 0.000000 0.000000 -0.194870
    20 10.127058 0.000000 0.000001 2.209142 0.210594 0.399024
    21 1.537458 0.109715 1.664489 -3.079588 0.031470 0.928526
    22 0.928313 0.000000 0.000002 0.000000 0.000000 0.061034
    23 0.928311 0.000000 0.000001 0.000000 0.000000 0.671897
    24 2.686395 -0.427337 0.044204 -0.001208 0.043611 -0.052337
    25 1.435260 0.000000 0.000001 0.000000 0.000000 1.186618
    26 1.482593 0.000000 -0.000001 0.000000 0.000000 1.684243
    27 2.046984 0.000001 0.000000 0.473180 -0.265738 0.196955
    28 -0.000005 0.000007 3.713254 -0.099865 -3.047848 5.708602
    29 18.045723 0.000000 0.000000 0.000000 0.000000 -0.413544
    30 17.597597 0.000000 0.000000 -0.057227 -0.016771 -0.162308
    31 0.000005 -0.000003 -3.713254 0.807899 2.831426 6.175283
    32 18.045721 0.000000 0.000000 0.000000 0.000000 -0.782250
    33 17.597597 0.000000 0.000000 0.178324 0.125292 0.485216
  time 1
    0 0.469730 2.726797 0.368674 0.000000 0.000000 -1.571017
    1 -0.425798 0.058596 0.000000 -1.570795 -1.570787 0.000000
    2 1.293670 0.684478 -0.000001 -0.061352 -0.008031 -0.054213
    3 5.309685 -0.003834 0.000000 -0.106425 0.003763 0.023504
    4 4.826790 -0.004591 0.000000 -0.066779 -0.002085 0.162440
    5 5.792767 -0.005304 0.000000 -0.101037 0.008665 0.167933
    6 6.662322 -0.001452 0.000000 -0.091910 0.032655 0.231870
    7 -3.518356 0.356631 4.277124 1.115534 -1.370994 -4.485664
    8 4.827512 0.000000 -0.000002 -0.566313 0.743239 -1.050230
    9 11.140032 0.000000 0.000000 0.000000 0.000000 -0.842895
    10 10.314563 -0.000001 0.000001 -3.150431 0.318017 0.262402
    11 1.646836 0.445664 -1.699647 -0.392035 3.352851 -0.875707
    12 0.928312 0.000000 0.000000 0.000000 0.000000 0.593404
    13 0.928313 0.000000 -0.000001 0.000000 0.000000 1.204231
    14 2.979373 -0.388274 -0.044205 -0.030731 -0.030955 0.764020
    15 1.435262 -0.000001 -0.000001 0.000000 0.000000 1.193148
    16 1.482593 -0.000001 0.000001 0.000000 0.000000 0.481729
    17 -2.975371 1.071532 -4.156022 -1.304079 0.864179 -4.593577
    18 4.972047 0.000000 0.000000 0.518940 -0.651765 -1.122507
    19 11.585358 0.000000 0.000001 0.000000 0.000000 -0.675883
    20 10.127058 0.000000 0.000001 2.133689 0.171350 0.536633
    21 1.537458 0.109715 1.664489 -3.079588 0.031470 0.928526
    22 0.928313 0.000000 0.000002 0.000000 0.000000 0.061034
    23 0.928311 0.000000 0.000001 0.000000 0.000000 0.671897
    24 2.686395 -0.427337 0.044204 -0.001208 0.043611 -0.052337
    25 1.435260 0.000000 0.000001 0.000000 0.000000 1.186618
    26 1.482593 0.000000 -0.000001 0.000000 0.000000 1.684243
    27 2.046984 0.000001 0.000000 0.335487 -0.209563 0.249511
    28 -0.000005 0.000007 3.713254 -0.100345 -3.050341 5.708986
    29 18.045723 0.000000 0.000000 0.000000 0.000000 -0.410139
    30 17.597597 0.000000 0.000000 -0.058216 -0.014433 -0.165058
    31 0.000005 -0.000003 -3.713254 0.807228 2.828742 6.173365
    32 18.045721 0.000000 0.000000 0.000000 0.000000 -0.783116
    33 17.597597 0.000000 0.000000 0.178324 0.125805 0.482814
  time 2
    0 0.536138 2.789299 0.368674 0.000000 0.000000 -1.571017
    1 -0.425798 0.058596 0.000000 -1.570795 -1.570787 0.000000
    2 1.293670 0.684478 -0.000001 -0.061571 -0.005574 -0.055502
    3 5.309685 -0.003834 0.000000 -0.066554 0.014513 0.024440
    4 4.826790 -0.004591 0.000000 -0.032369 -0.006160 0.138363
    5 5.792767 -0.005304 0.000000 -0.022683 0.030213 0.156015
    6 6.662322 -0.001452 0.000000 -0.091910 0.032655 0.231870
    7 -3.518356 0.356631 4.277124 1.408174 -1.306976 -4.781551
    8 4.827512 0.000000 -0.000002 -0.492814 0.711943 -1.051877
    9 11.140032 0.000000 0.000000 0.000000 0.000000 -1.031346
    10 10.314563 -0.000001 0.000001 -2.565851 0.028008 0.256828
    11 1.646836 0.445664 -1.699647 -0.392035 3.352851 -0.875707
    12 0.928312 0.000000 0.000000 0.000000 0.000000 0.593404
    13 0.928313 0.000000 -0.000001 0.000000 0.000000 1.204231
    14 2.979373 -0.388274 -0.044205 -0.030503 -0.031195 0.756725
    15 1.435262 -0.000001 -0.000001 0.000000 0.000000 1.174968
    16 1.482593 -0.000001 0.000001 0.000000 0.000000 0.519339
    17 -2.975371 1.071532 -4.156022 -1.161259 0.994238 -4.463411
    18 4.972047 0.000000 0.000000 0.192427 -0.750434 -0.800845
    19 11.585358 0.000000 0.000001 0.000000 0.000000 -1.161306
    20 10.127058 0.000000 0.000001 2.039162 0.131160 0.667189
    21 1.537458 0.109715 1.664489 -3.079588 0.031470 0.928526
    22 0.928313 0.000000 0.000002 0.000000 0.000000 0.061034
    23 0.928311 0.000000 0.000001 0.000000 0.000000 0.671897
    24 2.686395 -0.427337 0.044204 -0.001208 0.043611 -0.052337
    25 1.435260 0.000000 0.000001 0.000000 0.000000 1.186618
    26 1.482593 0.000000 -0.000001 0.000000 0.000000 1.684243
    27 2.046984 0.000001 0.000000 0.193916 -0.151589 0.291544
    28 -0.000005 0.000007 3.713254 -0.100632 -3.052258 5.709561
    29 18.045723 0.000000 0.000000 0.000000 0.000000 -0.406513
    30 17.597597 0.000000 0.000000 -0.058900 -0.012735 -0.167901
    31 0.000005 -0.000003 -3.713254 0.806653 2.826729 6.171448
    32 18.045721 0.000000 0.000000 0.000000 0.000000 -0.783982
    33 17.597597 0.000000 0.000000 0.178257 0.125943 0.480920
  time 3
    0 0.575202 2.832269 0.368674 0.000000 0.000000 -1.571017
    1 -0.425798 0.058596 0.000000 -1.570795 -1.570787 0.000000
    2 1.293670 0.684478 -0.000001 -0.061942 -0.002985 -0.058164
    3 5.309685 -0.003834 0.000000 -0.029457 0.025539 0.026012
    4 4.826790 -0.004591 0.000000 0.001984 -0.011122 0.120724
    5 5.792767 -0.005304 0.000000 0.047218 0.052504 0.154624
    6 6.662322 -0.001452 0.000000 -0.091910 0.032655 0.231870
    7 -3.518356 0.356631 4.277124 1.566140 -1.245709 -4.945688
    8 4.827512 0.000000 -0.000002 -0.425931 0.673911 -1.092429
    9 11.140032 0.000000 0.000000 0.000000 0.000000 -1.204002
    10 10.314563 -0.000001 0.000001 -1.965064 -0.148283 0.154056
    11 1.646836 0.445664 -1.699647 -0.392035 3.352851 -0.875707
    12 0.928312 0.000000 0.000000 0.000000 0.000000 0.593404
    13 0.928313 0.000000 -0.000001 0.000000 0.000000 1.204231
    14 2.979373 -0.388274 -0.044205 -0.030467 -0.031243 0.755292
    15 1.435262 -0.000001 -0.000001 0.000000 0.000000 1.171332
    16 1.482593 -0.000001 0.000001 0.000000 0.000000 0.555187
    17 -2.975371 1.071532 -4.156022 -1.012516 1.083914 -4.327308
    18 4.972047 0.000000 0.000000 -0.067020 -0.753970 -0.544207
    19 11.585358 0.000000 0.000001 0.000000 0.000000 -1.533521
    20 10.127058 0.000000 0.000001 1.950315 0.102318 0.759929
    21 1.537458 0.109715 1.664489 -3.079588 0.031470 0.928526
    22 0.928313 0.000000 0.000002 0.000000 0.000000 0.061034
    23 0.928311 0.000000 0.000001 0.000000 0.000000 0.671897
    24 2.686395 -0.427337 0.044204 -0.001208 0.043611 -0.052337
    25 1.435260 0.000000 0.000001 0.000000 0.000000 1.186618
    26 1.482593 0.000000 -0.000001 0.000000 0.000000 1.684243
    27 2.046984 0.000001 0.000000 0.063806 -0.096801 0.318612
    28 -0.000005 0.000007 3.713254 -0.101016 -3.053409 5.710136
    29 18.045723 0.000000 0.000000 0.000000 0.000000 -0.403182
    30 17.597597 0.000000 0.000000 -0.059331 -0.011652 -0.170514
    31 0.000005 -0.000003 -3.713254 0.806174 2.825482 6.170010
    32 18.045721 0.000000 0.000000 0.000000 0.000000 -0.784690
    33 17.597597 0.000000 0.000000 0.178223 0.125726 0.479765
  time 4
    0 0.586921 2.871332 0.368674 0.000000 0.000000 -1.571017
    1 -0.425798 0.058596 0.000000 -1.570795 -1.570787 0.000000
    2 1.293670 0.684478 -0.000001 -0.062632 -0.000193 -0.064358
    3 5.309685 -0.003834 0.000000 0.000698 0.036913 0.029068
    4 4.826790 -0.004591 0.000000 0.034582 -0.023070 0.117042
    5 5.792767 -0.005304 0.000000 0.098915 0.064693 0.173269
    6 6.662322 -0.001452 0.000000 -0.091910 0.032655 0.231870
    7 -3.518356 0.356631 4.277124 1.661897 -1.219984 -5.047830
    8 4.827512 0.000000 -0.000002 -0.327640 0.645259 -1.140693
    9 11.140032 0.000000 0.000000 0.000000 0.000000 -1.336737
    10 10.314563 -0.000001 0.000001 -1.392805 -0.250854 0.045304
    11 1.646836 0.445664 -1.699647 -0.392035 3.352851 -0.875707
    12 0.928312 0.000000 0.000000 0.000000 0.000000 0.593404
    13 0.928313 0.000000 -0.000001 0.000000 0.000000 1.204231
    14 2.979373 -0.388274 -0.044205 -0.030851 -0.030823 0.768363
    15 1.435262 -0.000001 -0.000001 0.000000 0.000000 1.204014
    16 1.482593 -0.000001 0.000001 0.000000 0.000000 0.586654
    17 -2.975371 1.071532 -4.156022 -0.997040 1.107444 -4.317059
    18 4.972047 0.000000 0.000000 -0.016462 -0.708492 -0.525106
    19 11.585358 0.000000 0.000001 0.000000 0.000000 -1.639950
    20 10.127058 0.000000 0.000001 1.898002 0.109032 0.769233
    21 1.537458 0.109715 1.664489 -3.079588 0.031470 0.928526
    22 0.928313 0.000000 0.000002 0.000000 0.000000 0.061034
    23 0.928311 0.000000 0.000001 0.000000 0.000000 0.671897
    24 2.686395 -0.427337 0.044204 -0.001208 0.043611 -0.052337
    25 1.435260 0.000000 0.000001 0.000000 0.000000 1.186618
    26 1.482593 0.000000 -0.000001 0.000000 0.000000 1.684243
    27 2.046984 0.000001 0.000000 -0.036534 -0.044403 0.332360
    28 -0.000005 0.000007 3.713254 -0.101112 -3.053888 5.710711
    29 18.045723 0.000000 0.000000 0.000000 0.000000 -0.400591
    30 17.597597 0.000000 0.000000 -0.059533 -0.011234 -0.172531
    31 0.000005 -0.000003 -3.713254 0.806078 2.824907 6.168859
    32 18.045721 0.000000 0.000000 0.000000 0.000000 -0.785084
    33 17.597597 0.000000 0.000000 0.178190 0.125371 0.479211
  time 5
    0 0.586921 2.883051 0.368674 0.000000 0.000000 -1.571017
    1 -0.425798 0.058596 0.000000 -1.570795 -1.570787 0.000000
    2 1.293670 0.684478 -0.000001 -0.062363 -0.000552 -0.061780
    3 5.309685 -0.003834 0.000000 0.002246 0.035858 0.028008
    4 4.826790 -0.004591 0.000000 0.033342 -0.016838 0.108973
    5 5.792767 -0.005304 0.000000 0.104653 0.071848 0.161164
    6 6.662322 -0.001452 0.000000 -0.091910 0.032655 0.231870
    7 -3.518356 0.356631 4.277124 1.659596 -1.198103 -5.046393
    8 4.827512 0.000000 -0.000002 -0.367579 0.633406 -1.153518
    9 11.140032 0.000000 0.000000 0.000000 0.000000 -1.349851
    10 10.314563 -0.000001 0.000001 -1.402661 -0.224907 0.048323
    11 1.646836 0.445664 -1.699647 -0.392035 3.352851 -0.875707
    12 0.928312 0.000000 0.000000 0.000000 0.000000 0.593404
    13 0.928313 0.000000 -0.000001 0.000000 0.000000 1.204231
    14 2.979373 -0.388274 -0.044205 -0.030575 -0.031111 0.758766
    15 1.435262 -0.000001 -0.000001 0.000000 0.000000 1.179983
    16 1.482593 -0.000001 0.000001 0.000000 0.000000 0.586654
    17 -2.975371 1.071532 -4.156022 -1.053499 1.096665 -4.373665
    18 4.972047 0.000000 0.000000 0.067863 -0.673058 -0.602976
    19 11.585358 0.000000 0.000001 0.000000 0.000000 -1.572074
    20 10.127058 0.000000 0.000001 1.876124 0.127662 0.745323
    21 1.537458 0.109715 1.664489 -3.079588 0.031470 0.928526
    22 0.928313 0.000000 0.000002 0.000000 0.000000 0.061034
    23 0.928311 0.000000 0.000001 0.000000 0.000000 0.671897
    24 2.686395 -0.427337 0.044204 -0.001208 0.043611 -0.052337
    25 1.435260 0.000000 0.000001 0.000000 0.000000 1.186618
    26 1.482593 0.000000 -0.000001 0.000000 0.000000 1.684243
    27 2.046984 0.000001 0.000000 -0.047564 -0.051779 0.349696
    28 -0.000005 0.000007 3.713254 -0.101112 -3.053888 5.710711
    29 18.045723 0.000000 0.000000 0.000000 0.000000 -0.400591
    30 17.597597 0.000000 0.000000 -0.059533 -0.011234 -0.172531
    31 0.000005 -0.000003 -3.713254 0.806078 2.824907 6.168859
    32 18.045721 0.000000 0.000000 0.000000 0.000000 -0.785084
    33 17.597597 0.000000 0.000000 0.178190 0.125371 0.479211
  time 6
    0 0.512700 2.886958 0.368674 0.000000 0.000000 -1.571017
    1 -0.425798 0.058596 0.000000 -1.570795 -1.570787 0.000000
    2 1.293670 0.684478 -0.000001 -0.062195 -0.000804 -0.060206
    3 5.309685 -0.003834 0.000000 0.003199 0.035211 0.027337
    4 4.826790 -0.004591 0.000000 0.000267 -0.027756 0.103659
    5 5.792767 -0.005304 0.000000 0.059611 0.039549 0.145696
    6 6.662322 -0.001452 0.000000 -0.091910 0.032655 0.231870
    7 -3.518356 0.356631 4.277124 1.702347 -1.211143 -5.091427
    8 4.827512 0.000000 -0.000002 -0.314328 0.704013 -1.096848
    9 11.140032 0.000000 0.000000 0.000000 0.000000 -1.716175
    10 10.314563 -0.000001 0.000001 -1.389867 -0.226687 0.081303
    11 1.646836 0.445664 -1.699647 -0.392035 3.352851 -0.875707
    12 0.928312 0.000000 0.000000 0.000000 0.000000 0.593404
    13 0.928313 0.000000 -0.000001 0.000000 0.000000 1.204231
    14 2.979373 -0.388274 -0.044205 -0.031534 -0.030116 0.790815
    15 1.435262 -0.000001 -0.000001 0.000000 0.000000 1.186503
    16 1.482593 -0.000001 0.000001 0.000000 0.000000 0.603269
    17 -2.975371 1.071532 -4.156022 -1.087317 1.078761 -4.405177
    18 4.972047 0.000000 0.000000 0.138962 -0.656506 -0.780945
    19 11.585358 0.000000 0.000001 0.000000 0.000000 -1.405774
    20 10.127058 0.000000 0.000001 1.859504 0.133714 0.743172
    21 1.537458 0.109715 1.664489 -3.079588 0.031470 0.928526
    22 0.928313 0.000000 0.000002 0.000000 0.000000 0.061034
    23 0.928311 0.000000 0.000001 0.000000 0.000000 0.671897
    24 2.686395 -0.427337 0.044204 -0.001208 0.043611 -0.052337
    25 1.435260 0.000000 0.000001 0.000000 0.000000 1.186618
    26 1.482593 0.000000 -0.000001 0.000000 0.000000 1.684243
    27 2.046984 0.000001 0.000000 0.046573 -0.054965 0.321350
    28 -0.000005 0.000007 3.713254 -0.100728 -3.051683 5.711382
    29 18.045723 0.000000 0.000000 0.000000 0.000000 -0.399111
    30 17.597597 0.000000 0.000000 -0.058646 -0.013375 -0.173494
    31 0.000005 -0.000003 -3.713254 0.806653 2.827208 6.168955
    32 18.045721 0.000000 0.000000 0.000000 0.000000 -0.785556
    33 17.597597 0.000000 0.000000 0.178123 0.123754 0.481197
  time 7
    0 0.450198 2.926022 0.368674 0.000000 0.000000 -1.571017
    1 -0.425798 0.058596 0.000000 -1.570795 -1.570787 0.000000
    2 1.293670 0.684478 -0.000001 -0.062093 -0.000924 -0.059436
    3 5.309685 -0.003834 0.000000 0.003659 0.034875 0.027019
    4 4.826790 -0.004591 0.000000 -0.034162 -0.038602 0.105820
    5 5.792767 -0.005304 0.000000 0.008724 0.010007 0.139633
    6 6.662322 -0.001452 0.000000 -0.091910 0.032655 0.231870
    7 -3.518356 0.356631 4.277124 1.744426 -1.227229 -5.135120
    8 4.827512 0.000000 -0.000002 -0.253902 0.781868 -1.088010
    9 11.140032 0.000000 0.000000 0.000000 0.000000 -1.933535
    10 10.314563 -0.000001 0.000001 -1.405410 -0.203924 0.050065
    11 1.646836 0.445664 -1.699647 -0.392035 3.352851 -0.875707
    12 0.928312 0.000000 0.000000 0.000000 0.000000 0.593404
    13 0.928313 0.000000 -0.000001 0.000000 0.000000 1.204231
    14 2.979373 -0.388274 -0.044205 -0.030287 -0.031411 0.749907
    15 1.435262 -0.000001 -0.000001 0.000000 0.000000 1.157917
    16 1.482593 -0.000001 0.000001 0.000000 0.000000 0.586654
    17 -2.975371 1.071532 -4.156022 -1.102411 1.070348 -4.418969
    18 4.972047 0.000000 0.000000 0.192709 -0.621152 -0.931493
    19 11.585358 0.000000 0.000001 0.000000 0.000000 -1.265775
    20 10.127058 0.000000 0.000001 1.847583 0.138915 0.742572
    21 1.537458 0.109715 1.664489 -3.079588 0.031470 0.928526
    22 0.928313 0.000000 0.000002 0.000000 0.000000 0.061034
    23 0.928311 0.000000 0.000001 0.000000 0.000000 0.671897
    24 2.686395 -0.427337 0.044204 -0.001208 0.043611 -0.052337
    25 1.435260 0.000000 0.000001 0.000000 0.000000 1.186618
    26 1.482593 0.000000 -0.000001 0.000000 0.000000 1.684243
    27 2.046984 0.000001 0.000000 0.132308 -0.061987 0.298721
    28 -0.000005 0.000007 3.713254 -0.100536 -3.050053 5.712629
    29 18.045723 0.000000 0.000000 0.000000 0.000000 -0.395188
    30 17.597597 0.000000 0.000000 -0.057962 -0.014999 -0.176383
    31 0.000005 -0.000003 -3.713254 0.807037 2.828838 6.168092
    32 18.045721 0.000000 0.000000 0.000000 0.000000 -0.786186
    33 17.597597 0.000000 0.000000 0.178022 0.121880 0.482629
  time 8
    0 0.438479 3.004149 0.368674 0.000000 0.000000 -1.571017
    1 -0.425798 0.058596 0.000000 -1.570795 -1.570787 0.000000
    2 1.293670 0.684478 -0.000001 -0.062077 -0.000936 -0.059319
    3 5.309685 -0.003834 0.000000 0.003727 0.034827 0.026983
    4 4.826790 -0.004591 0.000000 -0.062736 -0.042737 0.121121
    5 5.792767 -0.005304 0.000000 -0.037828 0.000923 0.149350
    6 6.662322 -0.001452 0.000000 -0.091910 0.032655 0.231870
    7 -3.518356 0.356631 4.277124 1.753245 -1.230570 -5.143936
    8 4.827512 0.000000 -0.000002 -0.235009 0.853668 -1.237309
    9 11.140032 0.000000 0.000000 0.000000 0.000000 -1.648286
    10 10.314563 -0.000001 0.000001 -1.516014 -0.111376 -0.154550
    11 1.646836 0.445664 -1.699647 -0.392035 3.352851 -0.875707
    12 0.928312 0.000000 0.000000 0.000000 0.000000 0.593404
    13 0.928313 0.000000 -0.000001 0.000000 0.000000 1.204231
    14 2.979373 -0.388274 -0.044205 -0.021023 -0.038254 0.484826
    15 1.435262 -0.000001 -0.000001 0.000000 0.000000 1.008220
    16 1.482593 -0.000001 0.000001 0.000000 0.000000 0.470670
    17 -2.975371 1.071532 -4.156022 -1.081681 1.088962 -4.401441
    18 4.972047 0.000000 0.000000 0.186424 -0.579853 -0.983140
    19 11.585358 0.000000 0.000001 0.000000 0.000000 -1.261854
    20 10.127058 0.000000 0.000001 1.840150 0.142603 0.743172
    21 1.537458 0.109715 1.664489 -3.079588 0.031470 0.928526
    22 0.928313 0.000000 0.000002 0.000000 0.000000 0.061034
    23 0.928311 0.000000 0.000001 0.000000 0.000000 0.671897
    24 2.686395 -0.427337 0.044204 -0.001208 0.043611 -0.052337
    25 1.435260 0.000000 0.000001 0.000000 0.000000 1.186618
    26 1.482593 0.000000 -0.000001 0.000000 0.000000 1.684243
    27 2.046984 0.000001 0.000000 0.176037 -0.091225 0.288928
    28 -0.000005 0.000007 3.713254 -0.100632 -3.050245 5.714546
    29 18.045723 0.000000 0.000000 0.000000 0.000000 -0.387269
    30 17.597597 0.000000 0.000000 -0.057937 -0.015023 -0.182434
    31 0.000005 -0.000003 -3.713254 0.806941 2.828550 6.165312
    32 18.045721 0.000000 0.000000 0.000000 0.000000 -0.787839
    33 17.597597 0.000000 0.000000 0.177854 0.120026 0.482213
  time 9
    0 0.446291 3.109621 0.368674 0.000000 0.000000 -1.571017
    1 -0.425798 0.058596 0.000000 -1.570795 -1.570787 0.000000
    2 1.293670 0.684478 -0.000001 -0.062144 -0.000876 -0.059754
    3 5.309685 -0.003834 0.000000 0.003488 0.035019 0.027160
    4 4.826790 -0.004591 0.000000 -0.092911 -0.046572 0.143633
    5 5.792767 -0.005304 0.000000 -0.089237 -0.004758 0.167061
    6 6.662322 -0.001452 0.000000 -0.091910 0.032655 0.231870
    7 -3.518356 0.356631 4.277124 1.749986 -1.231960 -5.140486
    8 4.827512 0.000000 -0.000002 -0.234690 0.925128 -1.434092
    9 11.140032 0.000000 0.000000 0.000000 0.000000 -1.188932
    10 10.314563 -0.000001 0.000001 -1.679598 -0.035595 -0.427158
    11 1.646836 0.445664 -1.699647 -0.392035 3.352851 -0.875707
    12 0.928312 0.000000 0.000000 0.000000 0.000000 0.593404
    13 0.928313 0.000000 -0.000001 0.000000 0.000000 1.204231
    14 2.979373 -0.388274 -0.044205 -0.007457 -0.043000 0.153909
    15 1.435262 -0.000001 -0.000001 0.000000 0.000000 0.825381
    16 1.482593 -0.000001 0.000001 0.000000 0.000000 0.325088
    17 -2.975371 1.071532 -4.156022 -1.051206 1.112729 -4.375102
    18 4.972047 0.000000 0.000000 0.174324 -0.532125 -1.025669
    19 11.585358 0.000000 0.000001 0.000000 0.000000 -1.280477
    20 10.127058 0.000000 0.000001 1.836994 0.144778 0.744623
    21 1.537458 0.109715 1.664489 -3.079588 0.031470 0.928526
    22 0.928313 0.000000 0.000002 0.000000 0.000000 0.061034
    23 0.928311 0.000000 0.000001 0.000000 0.000000 0.671897
    24 2.686395 -0.427337 0.044204 -0.001208 0.043611 -0.052337
    25 1.435260 0.000000 0.000001 0.000000 0.000000 1.186618
    26 1.482593 0.000000 -0.000001 0.000000 0.000000 1.684243
    27 2.046984 0.000001 0.000000 0.214553 -0.127927 0.277675
    28 -0.000005 0.000007 3.713254 -0.101112 -3.050916 5.717134
    29 18.045723 0.000000 0.000000 0.000000 0.000000 -0.376907
    30 17.597597 0.000000 0.000000 -0.058140 -0.014630 -0.190091
    31 0.000005 -0.000003 -3.713254 0.806653 2.827783 6.161765
    32 18.045721 0.000000 0.000000 0.000000 0.000000 -0.789807
    33 17.597597 0.000000 0.000000 0.177686 0.117955 0.481197
  time 10
    0 0.461917 3.215093 0.368674 0.000000 0.000000 -1.571017
    1 -0.425798 0.058596 0.000000 -1.570795 -1.570787 0.000000
    2 1.293670 0.684478 -0.000001 -0.062211 -0.000732 -0.060491
    3 5.309685 -0.003834 0.000000 0.003012 0.035331 0.027478
    4 4.826790 -0.004591 0.000000 -0.120378 -0.048681 0.167379
    5 5.792767 -0.005304 0.000000 -0.138146 -0.006496 0.186848
    6 6.662322 -0.001452 0.000000 -0.091910 0.032655 0.231870
    7 -3.518356 0.356631 4.277124 1.748069 -1.236336 -5.138091
    8 4.827512 0.000000 -0.000002 -0.238915 0.963074 -1.554449
    9 11.140032 0.000000 0.000000 0.000000 0.000000 -0.858472
    10 10.314563 -0.000001 0.000001 -1.799585 -0.016955 -0.617605
    11 1.646836 0.445664 -1.699647 -0.392035 3.352851 -0.875707
    12 0.928312 0.000000 0.000000 0.000000 0.000000 0.593404
    13 0.928313 0.000000 -0.000001 0.000000 0.000000 1.204231
    14 2.979373 -0.388274 -0.044205 -0.000530 -0.043611 -0.006512
    15 1.435262 -0.000001 -0.000001 0.000000 0.000000 0.740878
    16 1.482593 -0.000001 0.000001 0.000000 0.000000 0.253499
    17 -2.975371 1.071532 -4.156022 -1.010987 1.138730 -4.338897
    18 4.972047 0.000000 0.000000 0.157347 -0.487210 -1.051958
    19 11.585358 0.000000 0.000001 0.000000 0.000000 -1.312414
    20 10.127058 0.000000 0.000001 1.837976 0.145440 0.746574
    21 1.537458 0.109715 1.664489 -3.079588 0.031470 0.928526
    22 0.928313 0.000000 0.000002 0.000000 0.000000 0.061034
    23 0.928311 0.000000 0.000001 0.000000 0.000000 0.671897
    24 2.686395 -0.427337 0.044204 -0.001208 0.043611 -0.052337
    25 1.435260 0.000000 0.000001 0.000000 0.000000 1.186618
    26 1.482593 0.000000 -0.000001 0.000000 0.000000 1.684243
    27 2.046984 0.000001 0.000000 0.242126 -0.167167 0.268550
    28 -0.000005 0.000007 3.713254 -0.101303 -3.051971 5.719626
    29 18.045723 0.000000 0.000000 0.000000 0.000000 -0.367137
    30 17.597597 0.000000 0.000000 -0.058444 -0.013867 -0.197335
    31 0.000005 -0.000003 -3.713254 0.806174 2.826729 6.158314
    32 18.045721 0.000000 0.000000 0.000000 0.000000 -0.791775
    33 17.597597 0.000000 0.000000 0.177552 0.116239 0.479996
  time 11
    0 0.489261 3.285408 0.368674 0.000000 0.000000 -1.571017
    1 -0.425798 0.058596 0.000000 -1.570795 -1.570787 0.000000
    2 1.293670 0.684478 -0.000001 -0.062312 -0.000600 -0.061462
    3 5.309685 -0.003834 0.000000 0.002416 0.035714 0.027867
    4 4.826790 -0.004591 0.000000 -0.140635 -0.048190 0.186186
    5 5.792767 -0.005304 0.000000 -0.177071 -0.004686 0.202482
    6 6.662322 -0.001452 0.000000 -0.091910 0.032655 0.231870
    7 -3.518356 0.356631 4.277124 1.748260 -1.239648 -5.138186
    8 4.827512 0.000000 -0.000002 -0.249677 0.971687 -1.570913
    9 11.140032 0.000000 0.000000 0.000000 0.000000 -0.730447
    10 10.314563 -0.000001 0.000001 -1.827544 -0.029038 -0.699242
    11 1.646836 0.445664 -1.699647 -0.392035 3.352851 -0.875707
    12 0.928312 0.000000 0.000000 0.000000 0.000000 0.593404
    13 0.928313 0.000000 -0.000001 0.000000 0.000000 1.204231
    14 2.979373 -0.388274 -0.044205 -0.004796 -0.043359 0.092155
    15 1.435262 -0.000001 -0.000001 0.000000 0.000000 0.803315
    16 1.482593 -0.000001 0.000001 0.000000 0.000000 0.295170
    17 -2.975371 1.071532 -4.156022 -0.961120 1.163969 -4.293114
    18 4.972047 0.000000 0.000000 0.133428 -0.453061 -1.053556
    19 11.585358 0.000000 0.000001 0.000000 0.000000 -1.349251
    20 10.127058 0.000000 0.000001 1.842885 0.144399 0.748625
    21 1.537458 0.109715 1.664489 -3.079588 0.031470 0.928526
    22 0.928313 0.000000 0.000002 0.000000 0.000000 0.061034
    23 0.928311 0.000000 0.000001 0.000000 0.000000 0.671897
    24 2.686395 -0.427337 0.044204 -0.001208 0.043611 -0.052337
    25 1.435260 0.000000 0.000001 0.000000 0.000000 1.186618
    26 1.482593 0.000000 -0.000001 0.000000 0.000000 1.684243
    27 2.046984 0.000001 0.000000 0.253198 -0.203810 0.267395
    28 -0.000005 0.000007 3.713254 -0.101687 -3.053025 5.721256
    29 18.045723 0.000000 0.000000 0.000000 0.000000 -0.360549
    30 17.597597 0.000000 0.000000 -0.058798 -0.013030 -0.202286
    31 0.000005 -0.000003 -3.713254 0.805791 2.825578 6.155917
    32 18.045721 0.000000 0.000000 0.000000 0.000000 -0.792877
    33 17.597597 0.000000 0.000000 0.177485 0.115352 0.478796
  time 12
    0 0.520512 3.301033 0.368674 0.000000 0.000000 -1.571017
    1 -0.425798 0.058596 0.000000 -1.570795 -1.570787 0.000000
    2 1.293670 0.684478 -0.000001 -0.062430 -0.000444 -0.062533
    3 5.309685 -0.003834 0.000000 0.001804 0.036158 0.028290
    4 4.826790 -0.004591 0.000000 -0.149238 -0.044679 0.194035
    5 5.792767 -0.005304 0.000000 -0.198800 -0.000419 0.207922
    6 6.662322 -0.001452 0.000000 -0.091910 0.032655 0.231870
    7 -3.518356 0.356631 4.277124 1.746823 -1.240121 -5.136558
    8 4.827512 0.000000 -0.000002 -0.281723 0.978765 -1.574292
    9 11.140032 0.000000 0.000000 0.000000 0.000000 -0.675310
    10 10.314563 -0.000001 0.000001 -1.813422 -0.047398 -0.738726
    11 1.646836 0.445664 -1.699647 -0.392035 3.352851 -0.875707
    12 0.928312 0.000000 0.000000 0.000000 0.000000 0.593404
    13 0.928313 0.000000 -0.000001 0.000000 0.000000 1.204231
    14 2.979373 -0.388274 -0.044205 -0.014372 -0.041190 0.317891
    15 1.435262 -0.000001 -0.000001 0.000000 0.000000 0.937592
    16 1.482593 -0.000001 0.000001 0.000000 0.000000 0.392296
    17 -2.975371 1.071532 -4.156022 -0.902941 1.185553 -4.238519
    18 4.972047 0.000000 0.000000 0.097034 -0.437393 -1.020012
    19 11.585358 0.000000 0.000001 0.000000 0.000000 -1.382168
    20 10.127058 0.000000 0.000001 1.851510 0.141468 0.750375
    21 1.537458 0.109715 1.664489 -3.079588 0.031470 0.928526
    22 0.928313 0.000000 0.000002 0.000000 0.000000 0.061034
    23 0.928311 0.000000 0.000001 0.000000 0.000000 0.671897
    24 2.686395 -0.427337 0.044204 -0.001208 0.043611 -0.052337
    25 1.435260 0.000000 0.000001 0.000000 0.000000 1.186618
    26 1.482593 0.000000 -0.000001 0.000000 0.000000 1.684243
    27 2.046984 0.000001 0.000000 0.242729 -0.232576 0.280899
    28 -0.000005 0.000007 3.713254 -0.101783 -3.053888 5.721256
    29 18.045723 0.000000 0.000000 0.000000 0.000000 -0.359883
    30 17.597597 0.000000 0.000000 -0.059153 -0.012292 -0.202699
    31 0.000005 -0.000003 -3.713254 0.805599 2.824715 6.155533
    32 18.045721 0.000000 0.000000 0.000000 0.000000 -0.793113
    33 17.597597 0.000000 0.000000 0.177485 0.115648 0.478010
  time 13
    0 0.575202 3.191655 0.368674 0.000000 0.000000 -1.571017
    1 -0.425798 0.058596 0.000000 -1.570795 -1.570787 0.000000
    2 1.293670 0.684478 -0.000001 -0.062531 -0.000408 -0.062751
    3 5.309685 -0.003834 0.000000 0.001174 0.037248 0.028962
    4 4.826790 -0.004591 0.000000 -0.126482 -0.030537 0.168591
    5 5.792767 -0.005304 0.000000 -0.173779 0.014082 0.182280
    6 6.662322 -0.001452 0.000000 -0.091910 0.032655 0.231870
    7 -3.518356 0.356631 4.277124 1.748931 -1.246271 -5.138186
    8 4.827512 0.000000 -0.000002 -0.370289 0.999230 -1.682692
    9 11.140032 0.000000 0.000000 0.000000 0.000000 -0.691685
    10 10.314563 -0.000001 0.000001 -1.791339 -0.057796 -0.715500
    11 1.646836 0.445664 -1.699647 -0.392035 3.352851 -0.875707
    12 0.928312 0.000000 0.000000 0.000000 0.000000 0.593404
    13 0.928313 0.000000 -0.000001 0.000000 0.000000 1.204231
    14 2.979373 -0.388274 -0.044205 -0.024367 -0.036205 0.574851
    15 1.435262 -0.000001 -0.000001 0.000000 0.000000 1.088585
    16 1.482593 -0.000001 0.000001 0.000000 0.000000 0.503365
    17 -2.975371 1.071532 -4.156022 -0.840367 1.200565 -4.178752
    18 4.972047 0.000000 0.000000 0.012709 -0.449285 -0.882508
    19 11.585358 0.000000 0.000001 0.000000 0.000000 -1.402262
    20 10.127058 0.000000 0.000001 1.863642 0.136551 0.751376
    21 1.537458 0.109715 1.664489 -3.079588 0.031470 0.928526
    22 0.928313 0.000000 0.000002 0.000000 0.000000 0.061034
    23 0.928311 0.000000 0.000001 0.000000 0.000000 0.671897
    24 2.686395 -0.427337 0.044204 -0.001208 0.043611 -0.052337
    25 1.435260 0.000000 0.000001 0.000000 0.000000 1.186618
    26 1.482593 0.000000 -0.000001 0.000000 0.000000 1.684243
    27 2.046984 0.000001 0.000000 0.154840 -0.247888 0.358212
    28 -0.000005 0.000007 3.713254 -0.101687 -3.054463 5.717038
    29 18.045723 0.000000 0.000000 0.000000 0.000000 -0.375204
    30 17.597597 0.000000 0.000000 -0.059533 -0.011357 -0.191558
    31 0.000005 -0.000003 -3.713254 0.805599 2.824140 6.160135
    32 18.045721 0.000000 0.000000 0.000000 0.000000 -0.790122
    33 17.597597 0.000000 0.000000 0.177753 0.119513 0.477964
  time 14
    0 0.649423 2.972898 0.368674 0.000000 0.000000 -1.571017
    1 -0.425798 0.058596 0.000000 -1.570795 -1.570787 0.000000
    2 1.293670 0.684478 -0.000001 -0.062616 -0.000420 -0.062751
    3 5.309685 -0.003834 0.000000 0.000647 0.038279 0.029527
    4 4.826790 -0.004591 0.000000 -0.080742 -0.007634 0.121628
    5 5.792767 -0.005304 0.000000 -0.113611 0.037644 0.136435
    6 6.662322 -0.001452 0.000000 -0.091910 0.032655 0.231870
    7 -3.518356 0.356631 4.277124 1.761009 -1.266703 -5.149397
    8 4.827512 0.000000 -0.000002 -0.455427 1.013301 -1.862318
    9 11.140032 0.000000 0.000000 0.000000 0.000000 -0.778049
    10 10.314563 -0.000001 0.000001 -1.794656 -0.048148 -0.607386
    11 1.646836 0.445664 -1.699647 -0.392035 3.352851 -0.875707
    12 0.928312 0.000000 0.000000 0.000000 0.000000 0.593404
    13 0.928313 0.000000 -0.000001 0.000000 0.000000 1.204231
    14 2.979373 -0.388274 -0.044205 -0.030827 -0.030847 0.767364
    15 1.435262 -0.000001 -0.000001 0.000000 0.000000 1.201631
    16 1.482593 -0.000001 0.000001 0.000000 0.000000 0.586654
    17 -2.975371 1.071532 -4.156022 -0.735951 1.208478 -4.076555
    18 4.972047 0.000000 0.000000 -0.156503 -0.494521 -0.647834
    19 11.585358 0.000000 0.000001 0.000000 0.000000 -1.412472
    20 10.127058 0.000000 0.000001 1.875492 0.128324 0.755277
    21 1.537458 0.109715 1.664489 -3.079588 0.031470 0.928526
    22 0.928313 0.000000 0.000002 0.000000 0.000000 0.061034
    23 0.928311 0.000000 0.000001 0.000000 0.000000 0.671897
    24 2.686395 -0.427337 0.044204 -0.001208 0.043611 -0.052337
    25 1.435260 0.000000 0.000001 0.000000 0.000000 1.186618
    26 1.482593 0.000000 -0.000001 0.000000 0.000000 1.684243
    27 2.046984 0.000001 0.000000 0.019344 -0.234287 0.467947
    28 -0.000005 0.000007 3.713254 -0.101303 -3.055134 5.710520
    29 18.045723 0.000000 0.000000 0.000000 0.000000 -0.400517
    30 17.597597 0.000000 0.000000 -0.060040 -0.010101 -0.172669
    31 0.000005 -0.000003 -3.713254 0.805791 2.823661 6.168476
    32 18.045721 0.000000 0.000000 0.000000 0.000000 -0.785084
    33 17.597597 0.000000 0.000000 0.178223 0.126042 0.478057
  time 15
    0 0.692393 2.832269 0.368674 0.000000 0.000000 -1.571017
    1 -0.425798 0.058596 0.000000 -1.570795 -1.570787 0.000000
    2 1.293670 0.684478 -0.000001 -0.062632 -0.000193 -0.064358
    3 5.309685 -0.003834 0.000000 0.000698 0.036913 0.029068
    4 4.826790 -0.004591 0.000000 -0.047686 0.006807 0.096207
    5 5.792767 -0.005304 0.000000 -0.070908 0.050982 0.110440
    6 6.662322 -0.001452 0.000000 -0.091910 0.032655 0.231870
    7 -3.518356 0.356631 4.277124 1.864722 -1.353518 -5.250006
    8 4.827512 0.000000 -0.000002 -0.152502 0.926321 -1.767609
    9 11.140032 0.000000 0.000000 0.000000 0.000000 -1.184368
    10 10.314563 -0.000001 0.000001 -1.841097 0.047023 -0.150254
    11 1.646836 0.445664 -1.699647 -0.392035 3.352851 -0.875707
    12 0.928312 0.000000 0.000000 0.000000 0.000000 0.593404
    13 0.928313 0.000000 -0.000001 0.000000 0.000000 1.204231
    14 2.979373 -0.388274 -0.044205 -0.031821 -0.029853 0.800065
    15 1.435262 -0.000001 -0.000001 0.000000 0.000000 1.221859
    16 1.482593 -0.000001 0.000001 0.000000 0.000000 0.584998
    17 -2.975371 1.071532 -4.156022 -0.629720 1.202405 -3.971101
    18 4.972047 0.000000 0.000000 -0.314460 -0.535580 -0.460614
    19 11.585358 0.000000 0.000001 0.000000 0.000000 -1.411001
    20 10.127058 0.000000 0.000001 1.890429 0.117732 0.757578
    21 1.537458 0.109715 1.664489 -3.079588 0.031470 0.928526
    22 0.928313 0.000000 0.000002 0.000000 0.000000 0.061034
    23 0.928311 0.000000 0.000001 0.000000 0.000000 0.671897
    24 2.686395 -0.427337 0.044204 -0.001208 0.043611 -0.052337
    25 1.435260 0.000000 0.000001 0.000000 0.000000 1.186618
    26 1.482593 0.000000 -0.000001 0.000000 0.000000 1.684243
    27 2.046984 0.000001 0.000000 -0.041317 -0.206790 0.495016
    28 -0.000005 0.000007 3.713254 -0.101112 -3.055326 5.706589
    29 18.045723 0.000000 0.000000 0.000000 0.000000 -0.417023
    30 17.597597 0.000000 0.000000 -0.060192 -0.009585 -0.159969
    31 0.000005 -0.000003 -3.713254 0.805887 2.823757 6.174516
    32 18.045721 0.000000 0.000000 0.000000 0.000000 -0.781463
    33 17.597597 0.000000 0.000000 0.178559 0.130381 0.478380
  time 16
    0 0.680674 2.777580 0.368674 0.000000 0.000000 -1.571017
    1 -0.425798 0.058596 0.000000 -1.570795 -1.570787 0.000000
    2 1.293670 0.684478 -0.000001 -0.062616 0.000311 -0.067723
    3 5.309685 -0.003834 0.000000 0.001191 0.033185 0.027655
    4 4.826790 -0.004591 0.000000 -0.034124 0.008341 0.101719
    5 5.792767 -0.005304 0.000000 -0.056823 0.049077 0.112351
    6 6.662322 -0.001452 0.000000 -0.091910 0.032655 0.231870
    7 -3.518356 0.356631 4.277124 1.982429 -1.422887 -5.364030
    8 4.827512 0.000000 -0.000002 0.040811 0.739572 -1.561814
    9 11.140032 0.000000 0.000000 0.000000 0.000000 -1.588875
    10 10.314563 -0.000001 0.000001 -1.855503 0.144630 0.328594
    11 1.646836 0.445664 -1.699647 -0.392035 3.352851 -0.875707
    12 0.928312 0.000000 0.000000 0.000000 0.000000 0.593404
    13 0.928313 0.000000 -0.000001 0.000000 0.000000 1.204231
    14 2.979373 -0.388274 -0.044205 -0.030851 -0.030823 0.768363
    15 1.435262 -0.000001 -0.000001 0.000000 0.000000 1.204014
    16 1.482593 -0.000001 0.000001 0.000000 0.000000 0.586654
    17 -2.975371 1.071532 -4.156022 -0.642903 1.181136 -3.979625
    18 4.972047 0.000000 0.000000 -0.325528 -0.550766 -0.424275
    19 11.585358 0.000000 0.000001 0.000000 0.000000 -1.380371
    20 10.127058 0.000000 0.000001 1.926052 0.105628 0.745073
    21 1.537458 0.109715 1.664489 -3.079588 0.031470 0.928526
    22 0.928313 0.000000 0.000002 0.000000 0.000000 0.061034
    23 0.928311 0.000000 0.000001 0.000000 0.000000 0.671897
    24 2.686395 -0.427337 0.044204 -0.001208 0.043611 -0.052337
    25 1.435260 0.000000 0.000001 0.000000 0.000000 1.186618
    26 1.482593 0.000000 -0.000001 0.000000 0.000000 1.684243
    27 2.046984 0.000001 0.000000 0.003619 -0.183777 0.420318
    28 -0.000005 0.000007 3.713254 -0.100920 -3.054367 5.705439
    29 18.045723 0.000000 0.000000 0.000000 0.000000 -0.422648
    30 17.597597 0.000000 0.000000 -0.059888 -0.010298 -0.155614
    31 0.000005 -0.000003 -3.713254 0.806366 2.824715 6.176816
    32 18.045721 0.000000 0.000000 0.000000 0.000000 -0.780282
    33 17.597597 0.000000 0.000000 0.178693 0.131367 0.479350
  time 17
    0 0.641610 2.746329 0.368674 0.000000 0.000000 -1.571017
    1 -0.425798 0.058596 0.000000 -1.570795 -1.570787 0.000000
    2 1.293670 0.684478 -0.000001 -0.062599 0.000922 -0.071724
    3 5.309685 -0.003834 0.000000 0.001770 0.028871 0.025977
    4 4.826790 -0.004591 0.000000 -0.023996 0.006604 0.118079
    5 5.792767 -0.005304 0.000000 -0.047775 0.043300 0.123812
    6 6.662322 -0.001452 0.000000 -0.091910 0.032655 0.231870
    7 -3.518356 0.356631 4.277124 1.764268 -1.394472 -5.145469
    8 4.827512 0.000000 -0.000002 -0.241227 0.690795 -1.347615
    9 11.140032 0.000000 0.000000 0.000000 0.000000 -1.623652
    10 10.314563 -0.000001 0.000001 -1.891328 0.140227 0.432644
    11 1.646836 0.445664 -1.699647 -0.392035 3.352851 -0.875707
    12 0.928312 0.000000 0.000000 0.000000 0.000000 0.593404
    13 0.928313 0.000000 -0.000001 0.000000 0.000000 1.204231
    14 2.979373 -0.388274 -0.044205 -0.030851 -0.030823 0.768363
    15 1.435262 -0.000001 -0.000001 0.000000 0.000000 1.204014
    16 1.482593 -0.000001 0.000001 0.000000 0.000000 0.673309
    17 -2.975371 1.071532 -4.156022 -0.891859 1.115279 -4.211318
    18 4.972047 0.000000 0.000000 -0.052762 -0.426465 -0.581012
    19 11.585358 0.000000 0.000001 0.000000 0.000000 -1.313802
    20 10.127058 0.000000 0.000001 2.002487 0.096550 0.697703
    21 1.537458 0.109715 1.664489 -3.079588 0.031470 0.928526
    22 0.928313 0.000000 0.000002 0.000000 0.000000 0.061034
    23 0.928311 0.000000 0.000001 0.000000 0.000000 0.671897
    24 2.686395 -0.427337 0.044204 -0.001208 0.043611 -0.052337
    25 1.435260 0.000000 0.000001 0.000000 0.000000 1.186618
    26 1.482593 0.000000 -0.000001 0.000000 0.000000 1.684243
    27 2.046984 0.000001 0.000000 0.075481 -0.160912 0.336314
    28 -0.000005 0.000007 3.713254 -0.100536 -3.053217 5.704864
    29 18.045723 0.000000 0.000000 0.000000 0.000000 -0.426126
    30 17.597597 0.000000 0.000000 -0.059457 -0.011307 -0.152817
    31 0.000005 -0.000003 -3.713254 0.806749 2.826058 6.178542
    32 18.045721 0.000000 0.000000 0.000000 0.000000 -0.779416
    33 17.597597 0.000000 0.000000 0.178726 0.131643 0.480597
  time 18
    0 0.598640 2.726797 0.368674 0.000000 0.000000 -1.571017
    1 -0.425798 0.058596 0.000000 -1.570795 -1.570787 0.000000
    2 1.293670 0.684478 -0.000001 -0.062548 0.001605 -0.076110
    3 5.309685 -0.003834 0.000000 0.002416 0.024041 0.024139
    4 4.826790 -0.004591 0.000000 -0.016404 0.002265 0.142332
    5 5.792767 -0.005304 0.000000 -0.042649 0.034743 0.142104
    6 6.662322 -0.001452 0.000000 -0.091910 0.032655 0.231870
    7 -3.518356 0.356631 4.277124 1.574191 -1.322145 -4.953066
    8 4.827512 0.000000 -0.000002 -0.710202 0.733432 -1.183672
    9 11.140032 0.000000 0.000000 0.000000 0.000000 -1.528521
    10 10.314563 -0.000001 0.000001 -1.946488 0.103976 0.415515
    11 1.646836 0.445664 -1.699647 -0.392035 3.352851 -0.875707
    12 0.928312 0.000000 0.000000 0.000000 0.000000 0.593404
    13 0.928313 0.000000 -0.000001 0.000000 0.000000 1.204231
    14 2.979373 -0.388274 -0.044205 -0.030851 -0.030823 0.768363
    15 1.435262 -0.000001 -0.000001 0.000000 0.000000 1.204014
    16 1.482593 -0.000001 0.000001 0.000000 0.000000 0.787530
    17 -2.975371 1.071532 -4.156022 -1.143872 0.993843 -4.443872
    18 4.972047 0.000000 0.000000 0.189050 -0.207834 -0.701478
    19 11.585358 0.000000 0.000001 0.000000 0.000000 -1.150606
    20 10.127058 0.000000 0.000001 2.100450 0.090592 0.631024
    21 1.537458 0.109715 1.664489 -3.079588 0.031470 0.928526
    22 0.928313 0.000000 0.000002 0.000000 0.000000 0.061034
    23 0.928311 0.000000 0.000001 0.000000 0.000000 0.671897
    24 2.686395 -0.427337 0.044204 -0.001208 0.043611 -0.052337
    25 1.435260 0.000000 0.000001 0.000000 0.000000 1.186618
    26 1.482593 0.000000 -0.000001 0.000000 0.000000 1.684243
    27 2.046984 0.000001 0.000000 0.124553 -0.143682 0.302189
    28 -0.000005 0.000007 3.713254 -0.100345 -3.051779 5.704672
    29 18.045723 0.000000 0.000000 0.000000 0.000000 -0.428199
    30 17.597597 0.000000 0.000000 -0.058900 -0.012661 -0.151167
    31 0.000005 -0.000003 -3.713254 0.807037 2.827687 6.179788
    32 18.045721 0.000000 0.000000 0.000000 0.000000 -0.778865
    33 17.597597 0.000000 0.000000 0.178760 0.131387 0.482029
  time 19
    0 0.543951 2.707265 0.368674 0.000000 0.000000 -1.571017
    1 -0.425798 0.058596 0.000000 -1.570795 -1.570787 0.000000
    2 1.293670 0.684478 -0.000001 -0.062515 0.002300 -0.080764
    3 5.309685 -0.003834 0.000000 0.003131 0.018972 0.022179
    4 4.826790 -0.004591 0.000000 -0.010663 -0.003679 0.171502
    5 5.792767 -0.005304 0.000000 -0.040203 0.024449 0.164756
    6 6.662322 -0.001452 0.000000 -0.091910 0.032655 0.231870
    7 -3.518356 0.356631 4.277124 1.477763 -1.245798 -4.852456
    8 4.827512 0.000000 -0.000002 -1.092285 0.745882 -1.119984
    9 11.140032 0.000000 0.000000 0.000000 0.000000 -1.356372
    10 10.314563 -0.000001 0.000001 -2.004207 0.069036 0.384800
    11 1.646836 0.445664 -1.699647 -0.392035 3.352851 -0.875707
    12 0.928312 0.000000 0.000000 0.000000 0.000000 0.593404
    13 0.928313 0.000000 -0.000001 0.000000 0.000000 1.204231
    14 2.979373 -0.388274 -0.044205 -0.030851 -0.030823 0.768363
    15 1.435262 -0.000001 -0.000001 0.000000 0.000000 1.204014
    16 1.482593 -0.000001 0.000001 0.000000 0.000000 0.897157
    17 -2.975371 1.071532 -4.156022 -1.307136 0.847852 -4.592810
    18 4.972047 0.000000 0.000000 0.237826 -0.123709 -0.747667
    19 11.585358 0.000000 0.000001 0.000000 0.000000 -0.755684
    20 10.127058 0.000000 0.000001 2.203813 0.086337 0.558843
    21 1.537458 0.109715 1.664489 -3.079588 0.031470 0.928526
    22 0.928313 0.000000 0.000002 0.000000 0.000000 0.061034
    23 0.928311 0.000000 0.000001 0.000000 0.000000 0.671897
    24 2.686395 -0.427337 0.044204 -0.001208 0.043611 -0.052337
    25 1.435260 0.000000 0.000001 0.000000 0.000000 1.186618
    26 1.482593 0.000000 -0.000001 0.000000 0.000000 1.684243
    27 2.046984 0.000001 0.000000 0.140278 -0.127514 0.308576
    28 -0.000005 0.000007 3.713254 -0.099961 -3.050149 5.704672
    29 18.045723 0.000000 0.000000 0.000000 0.000000 -0.429383
    30 17.597597 0.000000 0.000000 -0.058292 -0.014162 -0.150112
    31 0.000005 -0.000003 -3.713254 0.807612 2.829317 6.180651
    32 18.045721 0.000000 0.000000 0.000000 0.000000 -0.778629
    33 17.597597 0.000000 0.000000 0.178760 0.130815 0.483507
  time 20
    0 0.493168 2.703358 0.368674 0.000000 0.000000 -1.571017
    1 -0.425798 0.058596 0.000000 -1.570795 -1.570787 0.000000
    2 1.293670 0.684478 -0.000001 -0.062498 0.003031 -0.085502
    3 5.309685 -0.003834 0.000000 0.003829 0.013746 0.020183
    4 4.826790 -0.004591 0.000000 -0.005894 -0.010510 0.202590
    5 5.792767 -0.005304 0.000000 -0.039141 0.013447 0.189090
    6 6.662322 -0.001452 0.000000 -0.091910 0.032655 0.231870
    7 -3.518356 0.356631 4.277124 1.429453 -1.182875 -4.798798
    8 4.827512 0.000000 -0.000002 -1.006430 0.667857 -0.981170
    9 11.140032 0.000000 0.000000 0.000000 0.000000 -1.029028
    10 10.314563 -0.000001 0.000001 -2.059272 0.045337 0.361052
    11 1.646836 0.445664 -1.699647 -0.392035 3.352851 -0.875707
    12 0.928312 0.000000 0.000000 0.000000 0.000000 0.593404
    13 0.928313 0.000000 -0.000001 0.000000 0.000000 1.204231
    14 2.979373 -0.388274 -0.044205 -0.030851 -0.030823 0.768363
    15 1.435262 -0.000001 -0.000001 0.000000 0.000000 1.204014
    16 1.482593 -0.000001 0.000001 0.000000 0.000000 0.986376
    17 -2.975371 1.071532 -4.156022 -1.395312 0.723683 -4.673936
    18 4.972047 0.000000 0.000000 0.213720 -0.116959 -0.752925
    19 11.585358 0.000000 0.000001 0.000000 0.000000 -0.404787
    20 10.127058 0.000000 0.000001 2.298831 0.080001 0.494865
    21 1.537458 0.109715 1.664489 -3.079588 0.031470 0.928526
    22 0.928313 0.000000 0.000002 0.000000 0.000000 0.061034
    23 0.928311 0.000000 0.000001 0.000000 0.000000 0.671897
    24 2.686395 -0.427337 0.044204 -0.001208 0.043611 -0.052337
    25 1.435260 0.000000 0.000001 0.000000 0.000000 1.186618
    26 1.482593 0.000000 -0.000001 0.000000 0.000000 1.684243
    27 2.046984 0.000001 0.000000 0.149972 -0.102259 0.275546
    28 -0.000005 0.000007 3.713254 -0.099769 -3.048423 5.704768
    29 18.045723 0.000000 0.000000 0.000000 0.000000 -0.430197
    30 17.597597 0.000000 0.000000 -0.057658 -0.015712 -0.149379
    31 0.000005 -0.000003 -3.713254 0.808091 2.831043 6.181418
    32 18.045721 0.000000 0.000000 0.000000 0.000000 -0.778393
    33 17.597597 0.000000 0.000000 0.178726 0.130105 0.485123
  time 21
    0 0.438479 2.691639 0.368674 0.000000 0.000000 -1.571017
    1 -0.425798 0.058596 0.000000 -1.570795 -1.570787 0.000000
    2 1.293670 0.684478 -0.000001 -0.062481 0.003762 -0.090223
    3 5.309685 -0.003834 0.000000 0.004561 0.008617 0.018205
    4 4.826790 -0.004591 0.000000 -0.001202 -0.017366 0.232664
    5 5.792767 -0.005304 0.000000 -0.038134 0.002709 0.212552
    6 6.662322 -0.001452 0.000000 -0.091910 0.032655 0.231870
    7 -3.518356 0.356631 4.277124 1.399739 -1.120513 -4.762483
    8 4.827512 0.000000 -0.000002 -0.744321 0.549156 -0.812635
    9 11.140032 0.000000 0.000000 0.000000 0.000000 -0.635533
    10 10.314563 -0.000001 0.000001 -2.110830 0.019859 0.321104
    11 1.646836 0.445664 -1.699647 -0.392035 3.352851 -0.875707
    12 0.928312 0.000000 0.000000 0.000000 0.000000 0.593404
    13 0.928313 0.000000 -0.000001 0.000000 0.000000 1.204231
    14 2.979373 -0.388274 -0.044205 -0.030851 -0.030823 0.768363
    15 1.435262 -0.000001 -0.000001 0.000000 0.000000 1.204014
    16 1.482593 -0.000001 0.000001 0.000000 0.000000 1.069932
    17 -2.975371 1.071532 -4.156022 -1.405438 0.705674 -4.683514
    18 4.972047 0.000000 0.000000 0.189332 -0.205986 -0.701810
    19 11.585358 0.000000 0.000001 0.000000 0.000000 -0.410668
    20 10.127058 0.000000 0.000001 2.363555 0.058346 0.467453
    21 1.537458 0.109715 1.664489 -3.079588 0.031470 0.928526
    22 0.928313 0.000000 0.000002 0.000000 0.000000 0.061034
    23 0.928311 0.000000 0.000001 0.000000 0.000000 0.671897
    24 2.686395 -0.427337 0.044204 -0.001208 0.043611 -0.052337
    25 1.435260 0.000000 0.000001 0.000000 0.000000 1.186618
    26 1.482593 0.000000 -0.000001 0.000000 0.000000 1.684243
    27 2.046984 0.000001 0.000000 0.155357 -0.070484 0.213805
    28 -0.000005 0.000007 3.713254 -0.099290 -3.046889 5.704768
    29 18.045723 0.000000 0.000000 0.000000 0.000000 -0.431159
    30 17.597597 0.000000 0.000000 -0.057050 -0.017287 -0.148462
    31 0.000005 -0.000003 -3.713254 0.808474 2.832864 6.182377
    32 18.045721 0.000000 0.000000 0.000000 0.000000 -0.778078
    33 17.597597 0.000000 0.000000 0.178726 0.129474 0.486647
  time 22
    0 0.395509 2.672108 0.368674 0.000000 0.000000 -1.571017
    1 -0.425798 0.058596 0.000000 -1.570795 -1.570787 0.000000
    2 1.293670 0.684478 -0.000001 -0.062447 0.004445 -0.094676
    3 5.309685 -0.003834 0.000000 0.005275 0.003679 0.016297
    4 4.826790 -0.004591 0.000000 0.004597 -0.023418 0.258769
    5 5.792767 -0.005304 0.000000 -0.035454 -0.006867 0.232443
    6 6.662322 -0.001452 0.000000 -0.091910 0.032655 0.231870
    7 -3.518356 0.356631 4.277124 1.379418 -1.057945 -4.734025
    8 4.827512 0.000000 -0.000002 -0.570857 0.463626 -0.728497
    9 11.140032 0.000000 0.000000 0.000000 0.000000 -0.379193
    10 10.314563 -0.000001 0.000001 -2.156512 -0.007868 0.280634
    11 1.646836 0.445664 -1.699647 -0.392035 3.352851 -0.875707
    12 0.928312 0.000000 0.000000 0.000000 0.000000 0.593404
    13 0.928313 0.000000 -0.000001 0.000000 0.000000 1.204231
    14 2.979373 -0.388274 -0.044205 -0.030851 -0.030823 0.768363
    15 1.435262 -0.000001 -0.000001 0.000000 0.000000 1.204014
    16 1.482593 -0.000001 0.000001 0.000000 0.000000 1.153221
    17 -2.975371 1.071532 -4.156022 -1.395312 0.723683 -4.673936
    18 4.972047 0.000000 0.000000 0.164569 -0.337519 -0.636520
    19 11.585358 0.000000 0.000001 0.000000 0.000000 -0.525837
    20 10.127058 0.000000 0.000001 2.414465 0.033476 0.453447
    21 1.537458 0.109715 1.664489 -3.079588 0.031470 0.928526
    22 0.928313 0.000000 0.000002 0.000000 0.000000 0.061034
    23 0.928311 0.000000 0.000001 0.000000 0.000000 0.671897
    24 2.686395 -0.427337 0.044204 -0.001208 0.043611 -0.052337
    25 1.435260 0.000000 0.000001 0.000000 0.000000 1.186618
    26 1.482593 0.000000 -0.000001 0.000000 0.000000 1.684243
    27 2.046984 0.000001 0.000000 0.157554 -0.039122 0.151273
    28 -0.000005 0.000007 3.713254 -0.099098 -3.045355 5.704672
    29 18.045723 0.000000 0.000000 0.000000 0.000000 -0.432936
    30 17.597597 0.000000 0.000000 -0.056467 -0.018715 -0.147086
    31 0.000005 -0.000003 -3.713254 0.808954 2.834494 6.183527
    32 18.045721 0.000000 0.000000 0.000000 0.000000 -0.777527
    33 17.597597 0.000000 0.000000 0.178726 0.129099 0.488172
end
