version 1
nodes
  0 "Bip01" -1
  1 "Bip01 Pelvis" 0
  2 "Bip01 Spine" 1
  3 "Bip01 Spine1" 2
  4 "Bip01 Spine2" 3
  5 "Bip01 Spine3" 4
  6 "Bip01 Neck" 5
  7 "Bip01 L Arm" 6
  8 "Bip01 L Arm1" 7
  9 "Bip01 L Arm2" 8
  10 "Bip01 L Hand" 9
  11 "Bip01 L Finger0" 10
  12 "Bip01 L Finger01" 11
  13 "Bip01 L Finger02" 12
  14 "Bip01 L Finger1" 10
  15 "Bip01 L Finger11" 14
  16 "Bip01 L Finger12" 15
  17 "Bip01 R Arm" 6
  18 "Bip01 R Arm1" 17
  19 "Bip01 R Arm2" 18
  20 "Bip01 R Hand" 19
  21 "Bip01 R Finger0" 20
  22 "Bip01 R Finger01" 21
  23 "Bip01 R Finger02" 22
  24 "Bip01 R Finger1" 20
  25 "Bip01 R Finger11" 24
  26 "Bip01 R Finger12" 25
  27 "Bip01 Head" 6
  28 "Bip01 L Leg" 1
  29 "Bip01 L Leg1" 28
  30 "Bip01 L Foot" 29
  31 "Bip01 R Leg" 1
  32 "Bip01 R Leg1" 31
  33 "Bip01 R Foot" 32
end
skeleton
  time 0
    0 0.469730 2.578355 0.368674 0.000000 0.000000 -1.571017
    1 -0.332045 -0.093753 0.000000 -1.570795 -1.570787 0.000000
    2 1.293670 0.684478 -0.000001 -0.000055 -0.085451 0.073889
    3 5.309685 -0.003834 0.000000 -0.043496 0.073202 0.051024
    4 4.826790 -0.004591 0.000000 -0.234042 0.048969 -0.086044
    5 5.792767 -0.005304 0.000000 -0.199412 0.115496 0.059053
    6 6.662322 -0.001452 0.000000 0.000000 -0.000001 0.471000
    7 -3.108188 1.516823 4.339626 0.139367 -1.189824 -3.742881
    8 4.827512 0.000000 -0.000002 1.026671 0.725502 -0.456328
    9 11.140032 0.000000 0.000000 0.000000 0.000000 -1.113798
    10 10.314563 -0.000001 0.000001 -1.063647 0.137698 -0.078778
    11 1.646836 0.445664 -1.699647 -0.161704 0.581044 -0.283978
    12 0.928312 0.000000 0.000000 0.000000 0.000000 0.000000
    13 0.928313 0.000000 -0.000001 0.000000 0.000000 0.000000
    14 2.979373 -0.388274 -0.044205 -0.001932 -0.043575 0.026189
    15 1.435262 -0.000001 -0.000001 0.000000 0.000000 0.784927
    16 1.482593 -0.000001 0.000001 0.000000 0.000000 0.540709
    17 -2.869899 1.399667 -4.140396 -1.429799 2.067939 -5.024013
    18 4.972047 0.000000 0.000000 -1.560480 -0.254839 -0.613891
    19 11.585358 0.000000 0.000001 0.000000 0.000000 -1.831326
    20 10.127058 0.000000 0.000001 1.663858 -0.105817 -0.762626
    21 1.537458 0.109715 1.664489 -0.264662 -0.055995 0.783079
    22 0.928313 0.000000 0.000002 0.000000 0.000000 -0.453501
    23 0.928311 0.000000 0.000001 0.000000 0.000000 0.000000
    24 2.686395 -0.427337 0.044204 -0.005762 0.043239 -0.157074
    25 1.435260 0.000000 0.000001 0.000000 0.000000 0.732613
    26 1.482593 0.000000 -0.000001 0.000000 0.000000 1.168644
    27 2.046984 0.000001 0.000000 -0.385980 0.137575 0.273417
    28 -0.000005 0.000007 3.713254 -0.098331 -3.044876 5.705535
    29 18.045723 0.000000 0.000000 0.000000 0.000000 -0.429457
    30 17.597597 0.000000 0.000000 -0.056847 -0.019675 -0.149745
    31 0.000005 -0.000003 -3.713254 0.808091 2.835357 6.182089
    32 18.045721 0.000000 0.000000 0.000000 0.000000 -0.778393
    33 17.597597 0.000000 0.000000 0.179632 0.127738 0.488726
  time 1
    0 0.102531 2.672108 0.368674 0.000000 0.000000 -1.571017
    1 -0.332045 -0.093753 0.000000 -1.570795 -1.570787 0.000000
    2 1.293670 0.684478 -0.000001 0.000131 -0.054075 0.070474
    3 5.309685 -0.003834 0.000000 -0.035685 0.009288 0.053178
    4 4.826790 -0.004591 0.000000 -0.134684 -0.012728 -0.085096
    5 5.792767 -0.005304 0.000000 -0.096414 0.014142 0.077428
    6 6.662322 -0.001452 0.000000 0.000000 -0.000001 0.471000
    7 -3.108188 1.516823 4.339626 0.356953 -1.170190 -3.944099
    8 4.827512 0.000000 -0.000002 1.051782 0.544722 -0.396540
    9 11.140032 0.000000 0.000000 0.000000 0.000000 -1.353329
    10 10.314563 -0.000001 0.000001 -1.192068 0.134420 -0.088358
    11 1.646836 0.445664 -1.699647 -0.161704 0.581044 -0.283978
    12 0.928312 0.000000 0.000000 0.000000 0.000000 0.000000
    13 0.928313 0.000000 -0.000001 0.000000 0.000000 0.000000
    14 2.979373 -0.388274 -0.044205 -0.001956 -0.043575 0.026667
    15 1.435262 -0.000001 -0.000001 0.000000 0.000000 0.786431
    16 1.482593 -0.000001 0.000001 0.000000 0.000000 0.537130
    17 -2.869899 1.399667 -4.140396 -1.315447 1.939931 -4.911088
    18 4.972047 0.000000 0.000000 -1.651840 -0.347884 -0.565439
    19 11.585358 0.000000 0.000001 0.000000 0.000000 -1.839085
    20 10.127058 0.000000 0.000001 1.635037 -0.245678 -0.283720
    21 1.537458 0.109715 1.664489 -0.264662 -0.055995 0.783079
    22 0.928313 0.000000 0.000002 0.000000 0.000000 -0.453501
    23 0.928311 0.000000 0.000001 0.000000 0.000000 0.000000
    24 2.686395 -0.427337 0.044204 -0.005762 0.043239 -0.157074
    25 1.435260 0.000000 0.000001 0.000000 0.000000 0.732613
    26 1.482593 0.000000 -0.000001 0.000000 0.000000 1.168644
    27 2.046984 0.000001 0.000000 -0.356296 0.256739 0.012826
    28 -0.000005 0.000007 3.713254 -0.096797 -3.035288 5.711287
    29 18.045723 0.000000 0.000000 0.000000 0.000000 -0.412138
    30 17.597597 0.000000 0.000000 -0.053072 -0.029199 -0.162445
    31 0.000005 -0.000003 -3.713254 0.810775 2.845327 6.178926
    32 18.045721 0.000000 0.000000 0.000000 0.000000 -0.781463
    33 17.597597 0.000000 0.000000 0.178693 0.118093 0.496855
  time 2
    0 -0.284200 2.703358 0.368674 0.000000 0.000000 -1.571017
    1 -0.332045 -0.093753 0.000000 -1.570795 -1.570787 0.000000
    2 1.293670 0.684478 -0.000001 0.000148 -0.022724 0.064849
    3 5.309685 -0.003834 0.000000 -0.028095 -0.054578 0.055157
    4 4.826790 -0.004591 0.000000 -0.034372 -0.073945 -0.093298
    5 5.792767 -0.005304 0.000000 0.006170 -0.088087 0.083304
    6 6.662322 -0.001452 0.000000 0.000000 -0.000001 0.471000
    7 -3.108188 1.516823 4.339626 0.633585 -1.120898 -4.197826
    8 4.827512 0.000000 -0.000002 0.976290 0.363515 -0.340390
    9 11.140032 0.000000 0.000000 0.000000 0.000000 -1.647055
    10 10.314563 -0.000001 0.000001 -1.436876 0.126270 -0.098752
    11 1.646836 0.445664 -1.699647 -0.161704 0.581044 -0.283978
    12 0.928312 0.000000 0.000000 0.000000 0.000000 0.000000
    13 0.928313 0.000000 -0.000001 0.000000 0.000000 0.000000
    14 2.979373 -0.388274 -0.044205 -0.001980 -0.043575 0.027492
    15 1.435262 -0.000001 -0.000001 0.000000 0.000000 0.788855
    16 1.482593 -0.000001 0.000001 0.000000 0.000000 0.531093
    17 -2.869899 1.399667 -4.140396 2.038007 1.318793 -1.562420
    18 4.972047 0.000000 0.000000 -1.671068 -0.475077 -0.500281
    19 11.585358 0.000000 0.000001 0.000000 0.000000 -1.844395
    20 10.127058 0.000000 0.000001 1.585880 -0.281612 0.129008
    21 1.537458 0.109715 1.664489 -0.264662 -0.055995 0.783079
    22 0.928313 0.000000 0.000002 0.000000 0.000000 -0.453501
    23 0.928311 0.000000 0.000001 0.000000 0.000000 0.000000
    24 2.686395 -0.427337 0.044204 -0.005762 0.043239 -0.157074
    25 1.435260 0.000000 0.000001 0.000000 0.000000 0.732613
    26 1.482593 0.000000 -0.000001 0.000000 0.000000 1.168644
    27 2.046984 0.000001 0.000000 -0.435439 0.343568 -0.283653
    28 -0.000005 0.000007 3.713254 -0.095359 -3.025126 5.716463
    29 18.045723 0.000000 0.000000 0.000000 0.000000 -0.399555
    30 17.597597 0.000000 0.000000 -0.049043 -0.039313 -0.170973
    31 0.000005 -0.000003 -3.713254 0.813842 2.856256 6.178734
    32 18.045721 0.000000 0.000000 0.000000 0.000000 -0.782250
    33 17.597597 0.000000 0.000000 0.177787 0.109770 0.505446
  time 3
    0 -0.444361 2.691639 0.368674 0.000000 0.000000 -1.571017
    1 -0.332045 -0.093753 0.000000 -1.570795 -1.570787 0.000000
    2 1.293670 0.684478 -0.000001 0.000013 -0.003273 0.063694
    3 5.309685 -0.003834 0.000000 -0.022037 -0.088075 0.055545
    4 4.826790 -0.004591 0.000000 0.016042 -0.103918 -0.097289
    5 5.792767 -0.005304 0.000000 0.056014 -0.140495 0.083656
    6 6.662322 -0.001452 0.000000 0.000000 -0.000001 0.471000
    7 -3.108188 1.516823 4.339626 0.744104 -1.097804 -4.299968
    8 4.827512 0.000000 -0.000002 0.964890 0.304847 -0.353734
    9 11.140032 0.000000 0.000000 0.000000 0.000000 -1.710741
    10 10.314563 -0.000001 0.000001 -1.623395 0.124022 -0.099855
    11 1.646836 0.445664 -1.699647 -0.161704 0.581044 -0.283978
    12 0.928312 0.000000 0.000000 0.000000 0.000000 0.000000
    13 0.928313 0.000000 -0.000001 0.000000 0.000000 0.000000
    14 2.979373 -0.388274 -0.044205 -0.001980 -0.043575 0.027622
    15 1.435262 -0.000001 -0.000001 0.000000 0.000000 0.789315
    16 1.482593 -0.000001 0.000001 0.000000 0.000000 0.529917
    17 -2.869899 1.399667 -4.140396 2.803121 1.428845 -0.807193
    18 4.972047 0.000000 0.000000 -1.647619 -0.439482 -0.357054
    19 11.585358 0.000000 0.000001 0.000000 0.000000 -1.860567
    20 10.127058 0.000000 0.000001 1.660352 -0.105155 0.334646
    21 1.537458 0.109715 1.664489 -0.264662 -0.055995 0.783079
    22 0.928313 0.000000 0.000002 0.000000 0.000000 -0.453501
    23 0.928311 0.000000 0.000001 0.000000 0.000000 0.000000
    24 2.686395 -0.427337 0.044204 -0.005762 0.043239 -0.157074
    25 1.435260 0.000000 0.000001 0.000000 0.000000 0.732613
    26 1.482593 0.000000 -0.000001 0.000000 0.000000 1.168644
    27 2.046984 0.000001 0.000000 -0.458790 0.328285 -0.467294
    28 -0.000005 0.000007 3.713254 -0.094688 -3.020524 5.718284
    29 18.045723 0.000000 0.000000 0.000000 0.000000 -0.396521
    30 17.597597 0.000000 0.000000 -0.047294 -0.043718 -0.172715
    31 0.000005 -0.000003 -3.713254 0.815279 2.861241 6.179693
    32 18.045721 0.000000 0.000000 0.000000 0.000000 -0.781935
    33 17.597597 0.000000 0.000000 0.177384 0.106792 0.509280
  time 4
    0 -0.381859 2.683827 0.368674 0.000000 0.000000 -1.571017
    1 -0.332045 -0.093753 0.000000 -1.570795 -1.570787 0.000000
    2 1.293670 0.684478 -0.000001 -0.000004 0.003475 0.073889
    3 5.309685 -0.003834 0.000000 -0.017408 -0.089249 0.053708
    4 4.826790 -0.004591 0.000000 0.010853 -0.102169 -0.083200
    5 5.792767 -0.005304 0.000000 0.046157 -0.140879 0.092564
    6 6.662322 -0.001452 0.000000 0.000000 -0.000001 0.471000
    7 -3.108188 1.516823 4.339626 0.996485 -1.051440 -4.543538
    8 4.827512 0.000000 -0.000002 0.708600 0.412889 -0.371498
    9 11.140032 0.000000 0.000000 0.000000 0.000000 -1.616117
    10 10.314563 -0.000001 0.000001 -2.404731 0.135637 -0.102990
    11 1.646836 0.445664 -1.699647 -0.161704 0.581044 -0.283978
    12 0.928312 0.000000 0.000000 0.000000 0.000000 0.000000
    13 0.928313 0.000000 -0.000001 0.000000 0.000000 0.000000
    14 2.979373 -0.388274 -0.044205 -0.001932 -0.043575 0.026189
    15 1.435262 -0.000001 -0.000001 0.000000 0.000000 0.784927
    16 1.482593 -0.000001 0.000001 0.000000 0.000000 0.540709
    17 -2.869899 1.399667 -4.140396 3.674276 1.421589 0.055979
    18 4.972047 0.000000 0.000000 -1.508140 -0.320886 -0.250033
    19 11.585358 0.000000 0.000001 0.000000 0.000000 -1.859669
    20 10.127058 0.000000 0.000001 1.764767 0.134187 0.402676
    21 1.537458 0.109715 1.664489 -0.264662 -0.055995 0.783079
    22 0.928313 0.000000 0.000002 0.000000 0.000000 -0.453501
    23 0.928311 0.000000 0.000001 0.000000 0.000000 0.000000
    24 2.686395 -0.427337 0.044204 -0.005762 0.043239 -0.157074
    25 1.435260 0.000000 0.000001 0.000000 0.000000 0.732613
    26 1.482593 0.000000 -0.000001 0.000000 0.000000 1.168644
    27 2.046984 0.000001 0.000000 -0.329886 0.282171 -0.483110
    28 -0.000005 0.000007 3.713254 -0.094784 -3.022249 5.717326
    29 18.045723 0.000000 0.000000 0.000000 0.000000 -0.398593
    30 17.597597 0.000000 0.000000 -0.047953 -0.042069 -0.171385
    31 0.000005 -0.000003 -3.713254 0.814704 2.859419 6.179597
    32 18.045721 0.000000 0.000000 0.000000 0.000000 -0.781935
    33 17.597597 0.000000 0.000000 0.177552 0.108133 0.507848
  time 5
    0 -0.233417 2.691639 0.368674 0.000000 0.000000 -1.571017
    1 -0.332045 -0.093753 0.000000 -1.570795 -1.570787 0.000000
    2 1.293670 0.684478 -0.000001 0.000114 0.005764 0.095619
    3 5.309685 -0.003834 0.000000 -0.013239 -0.079050 0.050087
    4 4.826790 -0.004591 0.000000 -0.015088 -0.088231 -0.052509
    5 5.792767 -0.005304 0.000000 0.012465 -0.122794 0.111562
    6 6.662322 -0.001452 0.000000 0.000000 -0.000001 0.471000
    7 -3.108188 1.516823 4.339626 1.162023 -1.018027 -4.713520
    8 4.827512 0.000000 -0.000002 0.445454 0.535342 -0.484490
    9 11.140032 0.000000 0.000000 0.000000 0.000000 -1.402380
    10 10.314563 -0.000001 0.000001 -3.185309 0.136761 -0.132022
    11 1.646836 0.445664 -1.699647 -0.161704 0.581044 -0.283978
    12 0.928312 0.000000 0.000000 0.000000 0.000000 0.000000
    13 0.928313 0.000000 -0.000001 0.000000 0.000000 0.000000
    14 2.979373 -0.388274 -0.044205 -0.001788 -0.043587 0.023019
    15 1.435262 -0.000001 -0.000001 0.000000 0.000000 0.775482
    16 1.482593 -0.000001 0.000001 0.000000 0.000000 0.563789
    17 -2.869899 1.399667 -4.140396 3.740479 1.473644 0.124845
    18 4.972047 0.000000 0.000000 -1.089986 -0.317351 -0.285440
    19 11.585358 0.000000 0.000001 0.000000 0.000000 -1.802248
    20 10.127058 0.000000 0.000001 1.788328 0.403600 0.341949
    21 1.537458 0.109715 1.664489 -0.264662 -0.055995 0.783079
    22 0.928313 0.000000 0.000002 0.000000 0.000000 -0.453501
    23 0.928311 0.000000 0.000001 0.000000 0.000000 0.000000
    24 2.686395 -0.427337 0.044204 -0.005762 0.043239 -0.157074
    25 1.435260 0.000000 0.000001 0.000000 0.000000 0.732613
    26 1.482593 0.000000 -0.000001 0.000000 0.000000 1.168644
    27 2.046984 0.000001 0.000000 -0.138899 0.224728 -0.412549
    28 -0.000005 0.000007 3.713254 -0.095455 -3.026180 5.715600
    29 18.045723 0.000000 0.000000 0.000000 0.000000 -0.402072
    30 17.597597 0.000000 0.000000 -0.049474 -0.038230 -0.169185
    31 0.000005 -0.000003 -3.713254 0.813554 2.855105 6.179117
    32 18.045721 0.000000 0.000000 0.000000 0.000000 -0.782014
    33 17.597597 0.000000 0.000000 0.177921 0.110914 0.504661
  time 6
    0 -0.042005 2.695546 0.368674 0.000000 0.000000 -1.571017
    1 -0.332045 -0.093753 0.000000 -1.570795 -1.570787 0.000000
    2 1.293670 0.684478 -0.000001 0.000249 0.005045 0.123393
    3 5.309685 -0.003834 0.000000 -0.009564 -0.061217 0.045601
    4 4.826790 -0.004591 0.000000 -0.053141 -0.064058 -0.013792
    5 5.792767 -0.005304 0.000000 -0.034860 -0.090663 0.134754
    6 6.662322 -0.001452 0.000000 0.000000 -0.000001 0.471000
    7 -3.108188 1.516823 4.339626 1.219918 -1.019978 -4.778389
    8 4.827512 0.000000 -0.000002 0.220414 0.602964 -0.627810
    9 11.140032 0.000000 0.000000 0.000000 0.000000 -1.227622
    10 10.314563 -0.000001 0.000001 -3.628293 0.112594 -0.164770
    11 1.646836 0.445664 -1.699647 -0.161704 0.581044 -0.283978
    12 0.928312 0.000000 0.000000 0.000000 0.000000 0.000000
    13 0.928313 0.000000 -0.000001 0.000000 0.000000 0.000000
    14 2.979373 -0.388274 -0.044205 -0.001620 -0.043599 0.018980
    15 1.435262 -0.000001 -0.000001 0.000000 0.000000 0.763446
    16 1.482593 -0.000001 0.000001 0.000000 0.000000 0.593279
    17 -2.869899 1.399667 -4.140396 2.127807 1.544996 -1.485317
    18 4.972047 0.000000 0.000000 -0.580942 -0.395049 -0.446837
    19 11.585358 0.000000 0.000001 0.000000 0.000000 -1.728001
    20 10.127058 0.000000 0.000001 1.741065 0.685023 0.196087
    21 1.537458 0.109715 1.664489 -0.264662 -0.055995 0.783079
    22 0.928313 0.000000 0.000002 0.000000 0.000000 -0.453501
    23 0.928311 0.000000 0.000001 0.000000 0.000000 0.000000
    24 2.686395 -0.427337 0.044204 -0.005762 0.043239 -0.157074
    25 1.435260 0.000000 0.000001 0.000000 0.000000 0.732613
    26 1.482593 0.000000 -0.000001 0.000000 0.000000 1.168644
    27 2.046984 0.000001 0.000000 0.049847 0.118663 -0.318142
    28 -0.000005 0.000007 3.713254 -0.096222 -3.031453 5.713300
    29 18.045723 0.000000 0.000000 0.000000 0.000000 -0.406809
    30 17.597597 0.000000 0.000000 -0.051577 -0.032964 -0.166067
    31 0.000005 -0.000003 -3.713254 0.811925 2.849257 6.178542
    32 18.045721 0.000000 0.000000 0.000000 0.000000 -0.782014
    33 17.597597 0.000000 0.000000 0.178357 0.114800 0.499996
  time 7
    0 0.188471 2.691639 0.368674 0.000000 0.000000 -1.571017
    1 -0.332045 -0.093753 0.000000 -1.570795 -1.570787 0.000000
    2 1.293670 0.684478 -0.000001 0.000232 0.002839 0.155184
    3 5.309685 -0.003834 0.000000 -0.006262 -0.039561 0.040567
    4 4.826790 -0.004591 0.000000 -0.095677 -0.032275 0.029246
    5 5.792767 -0.005304 0.000000 -0.087888 -0.049748 0.159607
    6 6.662322 -0.001452 0.000000 0.000000 -0.000001 0.471000
    7 -3.108188 1.516823 4.339626 1.203432 -1.056733 -4.768232
    8 4.827512 0.000000 -0.000002 0.052769 0.629484 -0.755186
    9 11.140032 0.000000 0.000000 0.000000 0.000000 -1.117783
    10 10.314563 -0.000001 0.000001 -3.784769 0.086272 -0.198737
    11 1.646836 0.445664 -1.699647 -0.161704 0.581044 -0.283978
    12 0.928312 0.000000 0.000000 0.000000 0.000000 0.000000
    13 0.928313 0.000000 -0.000001 0.000000 0.000000 0.000000
    14 2.979373 -0.388274 -0.044205 -0.001405 -0.043599 0.014377
    15 1.435262 -0.000001 -0.000001 0.000000 0.000000 0.749613
    16 1.482593 -0.000001 0.000001 0.000000 0.000000 0.627097
    17 -2.869899 1.399667 -4.140396 1.064824 1.455819 -2.551446
    18 4.972047 0.000000 0.000000 -0.215034 -0.523688 -0.632260
    19 11.585358 0.000000 0.000001 0.000000 0.000000 -1.695084
    20 10.127058 0.000000 0.000001 1.652428 0.838122 0.047923
    21 1.537458 0.109715 1.664489 -0.264662 -0.055995 0.783079
    22 0.928313 0.000000 0.000002 0.000000 0.000000 -0.453501
    23 0.928311 0.000000 0.000001 0.000000 0.000000 0.000000
    24 2.686395 -0.427337 0.044204 -0.005762 0.043239 -0.157074
    25 1.435260 0.000000 0.000001 0.000000 0.000000 0.732613
    26 1.482593 0.000000 -0.000001 0.000000 0.000000 1.168644
    27 2.046984 0.000001 0.000000 0.189909 -0.025993 -0.259504
    28 -0.000005 0.000007 3.713254 -0.097277 -3.037685 5.710711
    29 18.045723 0.000000 0.000000 0.000000 0.000000 -0.412582
    30 17.597597 0.000000 0.000000 -0.053959 -0.026910 -0.162308
    31 0.000005 -0.000003 -3.713254 0.809912 2.842738 6.178159
    32 18.045721 0.000000 0.000000 0.000000 0.000000 -0.781699
    33 17.597597 0.000000 0.000000 0.178861 0.119435 0.494730
  time 8
    0 0.415040 2.676014 0.368674 0.000000 0.000000 -1.571017
    1 -0.332045 -0.093753 0.000000 -1.570795 -1.570787 0.000000
    2 1.293670 0.684478 -0.000001 0.000047 0.000658 0.188984
    3 5.309685 -0.003834 0.000000 -0.003148 -0.017905 0.035321
    4 4.826790 -0.004591 0.000000 -0.135657 0.003152 0.073409
    5 5.792767 -0.005304 0.000000 -0.139189 -0.006232 0.184397
    6 6.662322 -0.001452 0.000000 0.000000 -0.000001 0.471000
    7 -3.108188 1.516823 4.339626 1.190587 -1.092866 -4.761333
    8 4.827512 0.000000 -0.000002 -0.141422 0.629143 -0.968952
    9 11.140032 0.000000 0.000000 0.000000 0.000000 -0.944185
    10 10.314563 -0.000001 0.000001 -3.969962 0.046087 -0.225910
    11 1.646836 0.445664 -1.699647 -0.161704 0.581044 -0.283978
    12 0.928312 0.000000 0.000000 0.000000 0.000000 0.000000
    13 0.928313 0.000000 -0.000001 0.000000 0.000000 0.000000
    14 2.979373 -0.388274 -0.044205 -0.001189 -0.043611 0.009426
    15 1.435262 -0.000001 -0.000001 0.000000 0.000000 0.734902
    16 1.482593 -0.000001 0.000001 0.000000 0.000000 0.662944
    17 -2.869899 1.399667 -4.140396 0.959834 1.342691 -2.665808
    18 4.972047 0.000000 0.000000 -0.294012 -0.784744 -0.552460
    19 11.585358 0.000000 0.000001 0.000000 0.000000 -1.777907
    20 10.127058 0.000000 0.000001 1.620171 0.671216 0.020461
    21 1.537458 0.109715 1.664489 -0.264662 -0.055995 0.783079
    22 0.928313 0.000000 0.000002 0.000000 0.000000 -0.453501
    23 0.928311 0.000000 0.000001 0.000000 0.000000 0.000000
    24 2.686395 -0.427337 0.044204 -0.005762 0.043239 -0.157074
    25 1.435260 0.000000 0.000001 0.000000 0.000000 0.732613
    26 1.482593 0.000000 -0.000001 0.000000 0.000000 1.168644
    27 2.046984 0.000001 0.000000 0.262892 -0.151117 -0.241316
    28 -0.000005 0.000007 3.713254 -0.098331 -3.043821 5.708123
    29 18.045723 0.000000 0.000000 0.000000 0.000000 -0.418651
    30 17.597597 0.000000 0.000000 -0.056341 -0.020881 -0.158044
    31 0.000005 -0.000003 -3.713254 0.808187 2.836219 6.178255
    32 18.045721 0.000000 0.000000 0.000000 0.000000 -0.780912
    33 17.597597 0.000000 0.000000 0.179330 0.124287 0.489373
  time 9
    0 0.618172 2.660388 0.368674 0.000000 0.000000 -1.571017
    1 -0.332045 -0.093753 0.000000 -1.570795 -1.570787 0.000000
    2 1.293670 0.684478 -0.000001 -0.000004 -0.000001 0.222784
    3 5.309685 -0.003834 0.000000 0.000000 0.000000 0.030163
    4 4.826790 -0.004591 0.000000 -0.167358 0.036901 0.116447
    5 5.792767 -0.005304 0.000000 -0.182539 0.032790 0.208524
    6 6.662322 -0.001452 0.000000 0.000000 -0.000001 0.471000
    7 -3.108188 1.516823 4.339626 1.114672 -1.149432 -4.690715
    8 4.827512 0.000000 -0.000002 -0.242742 0.610468 -1.185405
    9 11.140032 0.000000 0.000000 0.000000 0.000000 -0.771746
    10 10.314563 -0.000001 0.000001 -3.967024 0.026041 -0.265335
    11 1.646836 0.445664 -1.699647 -0.161704 0.581044 -0.283978
    12 0.928312 0.000000 0.000000 0.000000 0.000000 0.000000
    13 0.928313 0.000000 -0.000001 0.000000 0.000000 0.000000
    14 2.979373 -0.388274 -0.044205 -0.000997 -0.043611 0.004562
    15 1.435262 -0.000001 -0.000001 0.000000 0.000000 0.720233
    16 1.482593 -0.000001 0.000001 0.000000 0.000000 0.698792
    17 -2.869899 1.399667 -4.140396 0.928404 1.244549 -2.711208
    18 4.972047 0.000000 0.000000 -0.749404 -0.962155 -0.140083
    19 11.585358 0.000000 0.000001 0.000000 0.000000 -1.883356
    20 10.127058 0.000000 0.000001 1.617857 0.392347 0.052825
    21 1.537458 0.109715 1.664489 -0.264662 -0.055995 0.783079
    22 0.928313 0.000000 0.000002 0.000000 0.000000 -0.453501
    23 0.928311 0.000000 0.000001 0.000000 0.000000 0.000000
    24 2.686395 -0.427337 0.044204 -0.005762 0.043239 -0.157074
    25 1.435260 0.000000 0.000001 0.000000 0.000000 0.732613
    26 1.482593 0.000000 -0.000001 0.000000 0.000000 1.168644
    27 2.046984 0.000001 0.000000 0.291973 -0.228770 -0.226899
    28 -0.000005 0.000007 3.713254 -0.099194 -3.049094 5.706014
    29 18.045723 0.000000 0.000000 0.000000 0.000000 -0.424202
    30 17.597597 0.000000 0.000000 -0.058444 -0.015639 -0.154101
    31 0.000005 -0.000003 -3.713254 0.806749 2.830755 6.178638
    32 18.045721 0.000000 0.000000 0.000000 0.000000 -0.779731
    33 17.597597 0.000000 0.000000 0.179699 0.128665 0.484615
  time 10
    0 0.618172 2.660388 0.368674 0.000000 0.000000 -1.571017
    1 -0.332045 -0.093753 0.000000 -1.570795 -1.570787 0.000000
    2 1.293670 0.684478 -0.000001 -0.000004 -0.000001 0.254575
    3 5.309685 -0.003834 0.000000 0.000000 0.000000 0.025712
    4 4.826790 -0.004591 0.000000 -0.168751 0.044391 0.158074
    5 5.792767 -0.005304 0.000000 -0.191030 0.036373 0.237426
    6 6.662322 -0.001452 0.000000 0.000000 -0.000001 0.471000
    7 -3.108188 1.516823 4.339626 1.021694 -1.200350 -4.603233
    8 4.827512 0.000000 -0.000002 -0.212449 0.604754 -1.361045
    9 11.140032 0.000000 0.000000 0.000000 0.000000 -0.604378
    10 10.314563 -0.000001 0.000001 -3.960389 0.010210 -0.303947
    11 1.646836 0.445664 -1.699647 -0.161704 0.581044 -0.283978
    12 0.928312 0.000000 0.000000 0.000000 0.000000 0.000000
    13 0.928313 0.000000 -0.000001 0.000000 0.000000 0.000000
    14 2.979373 -0.388274 -0.044205 -0.000805 -0.043611 0.000046
    15 1.435262 -0.000001 -0.000001 0.000000 0.000000 0.706400
    16 1.482593 -0.000001 0.000001 0.000000 0.000000 0.732610
    17 -2.869899 1.399667 -4.140396 0.820358 1.281881 -2.814267
    18 4.972047 0.000000 0.000000 -0.716762 -0.937970 -0.047571
    19 11.585358 0.000000 0.000001 0.000000 0.000000 -1.850275
    20 10.127058 0.000000 0.000001 1.686438 0.299012 0.168525
    21 1.537458 0.109715 1.664489 -0.264662 -0.055995 0.783079
    22 0.928313 0.000000 0.000002 0.000000 0.000000 -0.453501
    23 0.928311 0.000000 0.000001 0.000000 0.000000 0.000000
    24 2.686395 -0.427337 0.044204 -0.005762 0.043239 -0.157074
    25 1.435260 0.000000 0.000001 0.000000 0.000000 0.732613
    26 1.482593 0.000000 -0.000001 0.000000 0.000000 1.168644
    27 2.046984 0.000001 0.000000 0.295937 -0.215818 -0.197276
    28 -0.000005 0.000007 3.713254 -0.099194 -3.049094 5.706014
    29 18.045723 0.000000 0.000000 0.000000 0.000000 -0.424202
    30 17.597597 0.000000 0.000000 -0.058444 -0.015639 -0.154101
    31 0.000005 -0.000003 -3.713254 0.806749 2.830755 6.178638
    32 18.045721 0.000000 0.000000 0.000000 0.000000 -0.779731
    33 17.597597 0.000000 0.000000 0.179699 0.128665 0.484615
end
