version 1
nodes
  0 "Bip01" -1
  1 "Bip01 Pelvis" 0
  2 "Bip01 Spine" 1
  3 "Bip01 Spine1" 2
  4 "Bip01 Spine2" 3
  5 "Bip01 Spine3" 4
  6 "Bip01 Neck" 5
  7 "Bip01 L Arm" 6
  8 "Bip01 L Arm1" 7
  9 "Bip01 L Arm2" 8
  10 "Bip01 L Hand" 9
  11 "Bip01 L Finger0" 10
  12 "Bip01 L Finger01" 11
  13 "Bip01 L Finger02" 12
  14 "Bip01 L Finger1" 10
  15 "Bip01 L Finger11" 14
  16 "Bip01 L Finger12" 15
  17 "Bip01 R Arm" 6
  18 "Bip01 R Arm1" 17
  19 "Bip01 R Arm2" 18
  20 "Bip01 R Hand" 19
  21 "Bip01 R Finger0" 20
  22 "Bip01 R Finger01" 21
  23 "Bip01 R Finger02" 22
  24 "Bip01 R Finger1" 20
  25 "Bip01 R Finger11" 24
  26 "Bip01 R Finger12" 25
  27 "Bip01 Head" 6
  28 "Bip01 L Leg" 1
  29 "Bip01 L Leg1" 28
  30 "Bip01 L Foot" 29
  31 "Bip01 R Leg" 1
  32 "Bip01 R Leg1" 31
  33 "Bip01 R Foot" 32
end
skeleton
  time 0
    0 0.407228 2.343973 0.368674 0.000000 0.000000 -1.571017
    1 -0.746121 0.039064 0.000000 -1.570795 -1.570787 0.000000
    2 1.293670 0.684478 -0.000001 -0.062447 0.004445 -0.094676
    3 5.309685 -0.003834 0.000000 0.005275 0.003679 0.016297
    4 4.826790 -0.004591 0.000000 0.004597 -0.023418 0.258769
    5 5.792767 -0.005304 0.000000 -0.035454 -0.006867 0.232443
    6 6.662322 -0.001452 0.000000 -0.091910 0.032655 0.231870
    7 -3.518356 0.356631 4.277124 1.379418 -1.057945 -4.734025
    8 4.827512 0.000000 -0.000002 -0.570857 0.463626 -0.728497
    9 11.140032 0.000000 0.000000 0.000000 0.000000 -0.379193
    10 10.314563 -0.000001 0.000001 -2.156512 -0.007868 0.280634
    11 1.646836 0.445664 -1.699647 -0.392035 3.352851 -0.875707
    12 0.928312 0.000000 0.000000 0.000000 0.000000 0.593404
    13 0.928313 0.000000 -0.000001 0.000000 0.000000 1.204231
    14 2.979373 -0.388274 -0.044205 -0.030851 -0.030823 0.768363
    15 1.435262 -0.000001 -0.000001 0.000000 0.000000 1.204014
    16 1.482593 -0.000001 0.000001 0.000000 0.000000 1.153221
    17 -2.975371 1.071532 -4.156022 -1.395312 0.723683 -4.673936
    18 4.972047 0.000000 0.000000 0.164569 -0.337519 -0.636520
    19 11.585358 0.000000 0.000001 0.000000 0.000000 -0.525837
    20 10.127058 0.000000 0.000001 2.414465 0.033476 0.453447
    21 1.537458 0.109715 1.664489 -3.079588 0.031470 0.928526
    22 0.928313 0.000000 0.000002 0.000000 0.000000 0.061034
    23 0.928311 0.000000 0.000001 0.000000 0.000000 0.671897
    24 2.686395 -0.427337 0.044204 -0.001208 0.043611 -0.052337
    25 1.435260 0.000000 0.000001 0.000000 0.000000 1.186618
    26 1.482593 0.000000 -0.000001 0.000000 0.000000 1.684243
    27 2.046984 0.000001 0.000000 0.157554 -0.039122 0.151273
    28 -0.000005 0.000007 3.713254 -0.100057 -3.047848 5.708602
    29 18.045723 0.000000 0.000000 0.000000 0.000000 -0.413544
    30 17.597597 0.000000 0.000000 -0.056999 -0.016648 -0.162308
    31 0.000005 -0.000003 -3.713254 0.807516 2.831522 6.175187
    32 18.045721 0.000000 0.000000 0.000000 0.000000 -0.782250
    33 17.597597 0.000000 0.000000 0.178760 0.125233 0.485354
  time 1
    0 0.407228 2.343973 0.368674 0.000000 0.000000 -1.571017
    1 -0.710963 0.039064 0.000000 -1.570795 -1.570787 0.000000
    2 1.293670 0.684478 -0.000001 -0.062447 0.004445 -0.094676
    3 5.309685 -0.003834 0.000000 0.005275 0.003679 0.016297
    4 4.826790 -0.004591 0.000000 0.004769 -0.023370 0.250809
    5 5.792767 -0.005304 0.000000 -0.057075 -0.007299 0.217743
    6 6.662322 -0.001452 0.000000 -0.091910 0.032655 0.231870
    7 -3.518356 0.356631 4.277124 1.379418 -1.057945 -4.734025
    8 4.827512 0.000000 -0.000002 -0.566951 0.484433 -0.703282
    9 11.140032 0.000000 0.000000 0.000000 0.000000 -0.379193
    10 10.314563 -0.000001 0.000001 -2.156512 -0.007868 0.280634
    11 1.646836 0.445664 -1.699647 -0.392035 3.352851 -0.875707
    12 0.928312 0.000000 0.000000 0.000000 0.000000 0.593404
    13 0.928313 0.000000 -0.000001 0.000000 0.000000 1.204231
    14 2.979373 -0.388274 -0.044205 -0.030851 -0.030823 0.768363
    15 1.435262 -0.000001 -0.000001 0.000000 0.000000 1.204014
    16 1.482593 -0.000001 0.000001 0.000000 0.000000 1.153221
    17 -2.975371 1.071532 -4.156022 -1.345826 0.841254 -4.640317
    18 4.972047 0.000000 0.000000 0.070677 -0.405896 -0.638450
    19 11.585358 0.000000 0.000001 0.000000 0.000000 -0.780596
    20 10.127058 0.000000 0.000001 2.403736 0.077164 0.367861
    21 1.537458 0.109715 1.664489 -3.079588 0.031470 0.928526
    22 0.928313 0.000000 0.000002 0.000000 0.000000 0.061034
    23 0.928311 0.000000 0.000001 0.000000 0.000000 0.671897
    24 2.686395 -0.427337 0.044204 -0.001208 0.043611 -0.052337
    25 1.435260 0.000000 0.000001 0.000000 0.000000 1.186618
    26 1.482593 0.000000 -0.000001 0.000000 0.000000 1.684243
    27 2.046984 0.000001 0.000000 0.177329 -0.046527 0.153280
    28 -0.000005 0.000007 3.713254 -0.099961 -3.047464 5.707740
    29 18.045723 0.000000 0.000000 0.000000 0.000000 -0.417393
    30 17.597597 0.000000 0.000000 -0.056923 -0.016845 -0.159327
    31 0.000005 -0.000003 -3.713254 0.807612 2.832001 6.176721
    32 18.045721 0.000000 0.000000 0.000000 0.000000 -0.781384
    33 17.597597 0.000000 0.000000 0.178827 0.126101 0.485724
  time 2
    0 0.407228 2.343973 0.368674 0.000000 0.000000 -1.571017
    1 -0.671900 0.039064 0.000000 -1.570795 -1.570787 0.000000
    2 1.293670 0.684478 -0.000001 -0.062447 0.004445 -0.094676
    3 5.309685 -0.003834 0.000000 0.005275 0.003679 0.016297
    4 4.826790 -0.004591 0.000000 0.004921 -0.023334 0.242850
    5 5.792767 -0.005304 0.000000 -0.070062 -0.007682 0.208898
    6 6.662322 -0.001452 0.000000 -0.091910 0.032655 0.231870
    7 -3.518356 0.356631 4.277124 1.379418 -1.057945 -4.734025
    8 4.827512 0.000000 -0.000002 -0.563603 0.499868 -0.687338
    9 11.140032 0.000000 0.000000 0.000000 0.000000 -0.379193
    10 10.314563 -0.000001 0.000001 -2.156512 -0.007868 0.280634
    11 1.646836 0.445664 -1.699647 -0.392035 3.352851 -0.875707
    12 0.928312 0.000000 0.000000 0.000000 0.000000 0.593404
    13 0.928313 0.000000 -0.000001 0.000000 0.000000 1.204231
    14 2.979373 -0.388274 -0.044205 -0.030851 -0.030823 0.768363
    15 1.435262 -0.000001 -0.000001 0.000000 0.000000 1.204014
    16 1.482593 -0.000001 0.000001 0.000000 0.000000 1.153221
    17 -2.975371 1.071532 -4.156022 -1.349839 0.832867 -4.643191
    18 4.972047 0.000000 0.000000 0.068707 -0.420278 -0.646170
    19 11.585358 0.000000 0.000001 0.000000 0.000000 -0.762218
    20 10.127058 0.000000 0.000001 2.404648 0.074044 0.374063
    21 1.537458 0.109715 1.664489 -3.079588 0.031470 0.928526
    22 0.928313 0.000000 0.000002 0.000000 0.000000 0.061034
    23 0.928311 0.000000 0.000001 0.000000 0.000000 0.671897
    24 2.686395 -0.427337 0.044204 -0.001208 0.043611 -0.052337
    25 1.435260 0.000000 0.000001 0.000000 0.000000 1.186618
    26 1.482593 0.000000 -0.000001 0.000000 0.000000 1.684243
    27 2.046984 0.000001 0.000000 0.189522 -0.049802 0.149509
    28 -0.000005 0.000007 3.713254 -0.099865 -3.047273 5.707069
    29 18.045723 0.000000 0.000000 0.000000 0.000000 -0.420649
    30 17.597597 0.000000 0.000000 -0.056847 -0.017066 -0.156760
    31 0.000005 -0.000003 -3.713254 0.807899 2.832289 6.178063
    32 18.045721 0.000000 0.000000 0.000000 0.000000 -0.780597
    33 17.597597 0.000000 0.000000 0.178861 0.126811 0.486047
  time 3
    0 0.407228 2.343973 0.368674 0.000000 0.000000 -1.571017
    1 -0.667993 0.039064 0.000000 -1.570795 -1.570787 0.000000
    2 1.293670 0.684478 -0.000001 -0.062447 0.004445 -0.094676
    3 5.309685 -0.003834 0.000000 0.005275 0.003679 0.016297
    4 4.826790 -0.004591 0.000000 0.005055 -0.023298 0.239234
    5 5.792767 -0.005304 0.000000 -0.066303 -0.007550 0.211493
    6 6.662322 -0.001452 0.000000 -0.091910 0.032655 0.231870
    7 -3.518356 0.356631 4.277124 1.379418 -1.057945 -4.734025
    8 4.827512 0.000000 -0.000002 -0.563204 0.501062 -0.690978
    9 11.140032 0.000000 0.000000 0.000000 0.000000 -0.379193
    10 10.314563 -0.000001 0.000001 -2.156512 -0.007868 0.280634
    11 1.646836 0.445664 -1.699647 -0.392035 3.352851 -0.875707
    12 0.928312 0.000000 0.000000 0.000000 0.000000 0.593404
    13 0.928313 0.000000 -0.000001 0.000000 0.000000 1.204231
    14 2.979373 -0.388274 -0.044205 -0.030851 -0.030823 0.768363
    15 1.435262 -0.000001 -0.000001 0.000000 0.000000 1.204014
    16 1.482593 -0.000001 0.000001 0.000000 0.000000 1.153221
    17 -2.975371 1.071532 -4.156022 -1.359678 0.811256 -4.650183
    18 4.972047 0.000000 0.000000 0.085403 -0.413529 -0.645172
    19 11.585358 0.000000 0.000001 0.000000 0.000000 -0.715497
    20 10.127058 0.000000 0.000001 2.406822 0.066006 0.389870
    21 1.537458 0.109715 1.664489 -3.079588 0.031470 0.928526
    22 0.928313 0.000000 0.000002 0.000000 0.000000 0.061034
    23 0.928311 0.000000 0.000001 0.000000 0.000000 0.671897
    24 2.686395 -0.427337 0.044204 -0.001208 0.043611 -0.052337
    25 1.435260 0.000000 0.000001 0.000000 0.000000 1.186618
    26 1.482593 0.000000 -0.000001 0.000000 0.000000 1.684243
    27 2.046984 0.000001 0.000000 0.186291 -0.047088 0.142270
    28 -0.000005 0.000007 3.713254 -0.099865 -3.047177 5.706877
    29 18.045723 0.000000 0.000000 0.000000 0.000000 -0.421464
    30 17.597597 0.000000 0.000000 -0.056797 -0.017066 -0.156164
    31 0.000005 -0.000003 -3.713254 0.807899 2.832385 6.178446
    32 18.045721 0.000000 0.000000 0.000000 0.000000 -0.780360
    33 17.597597 0.000000 0.000000 0.178861 0.127008 0.486139
  time 4
    0 0.407228 2.343973 0.368674 0.000000 0.000000 -1.571017
    1 -0.683619 0.039064 0.000000 -1.570795 -1.570787 0.000000
    2 1.293670 0.684478 -0.000001 -0.062447 0.004445 -0.094676
    3 5.309685 -0.003834 0.000000 0.005275 0.003679 0.016297
    4 4.826790 -0.004591 0.000000 0.004921 -0.023334 0.242850
    5 5.792767 -0.005304 0.000000 -0.057075 -0.007299 0.217743
    6 6.662322 -0.001452 0.000000 -0.091910 0.032655 0.231870
    7 -3.518356 0.356631 4.277124 1.379418 -1.057945 -4.734025
    8 4.827512 0.000000 -0.000002 -0.565038 0.492108 -0.701809
    9 11.140032 0.000000 0.000000 0.000000 0.000000 -0.379193
    10 10.314563 -0.000001 0.000001 -2.156512 -0.007868 0.280634
    11 1.646836 0.445664 -1.699647 -0.392035 3.352851 -0.875707
    12 0.928312 0.000000 0.000000 0.000000 0.000000 0.593404
    13 0.928313 0.000000 -0.000001 0.000000 0.000000 1.204231
    14 2.979373 -0.388274 -0.044205 -0.030851 -0.030823 0.768363
    15 1.435262 -0.000001 -0.000001 0.000000 0.000000 1.204014
    16 1.482593 -0.000001 0.000001 0.000000 0.000000 1.153221
    17 -2.975371 1.071532 -4.156022 -1.372098 0.782179 -4.658707
    18 4.972047 0.000000 0.000000 0.111948 -0.392558 -0.643308
    19 11.585358 0.000000 0.000001 0.000000 0.000000 -0.652196
    20 10.127058 0.000000 0.000001 2.409557 0.055320 0.411079
    21 1.537458 0.109715 1.664489 -3.079588 0.031470 0.928526
    22 0.928313 0.000000 0.000002 0.000000 0.000000 0.061034
    23 0.928311 0.000000 0.000001 0.000000 0.000000 0.671897
    24 2.686395 -0.427337 0.044204 -0.001208 0.043611 -0.052337
    25 1.435260 0.000000 0.000001 0.000000 0.000000 1.186618
    26 1.482593 0.000000 -0.000001 0.000000 0.000000 1.684243
    27 2.046984 0.000001 0.000000 0.178579 -0.041010 0.124204
    28 -0.000005 0.000007 3.713254 -0.099865 -3.047369 5.707260
    29 18.045723 0.000000 0.000000 0.000000 0.000000 -0.419761
    30 17.597597 0.000000 0.000000 -0.056847 -0.016992 -0.157494
    31 0.000005 -0.000003 -3.713254 0.807899 2.832193 6.177679
    32 18.045721 0.000000 0.000000 0.000000 0.000000 -0.780833
    33 17.597597 0.000000 0.000000 0.178794 0.126614 0.485955
  time 5
    0 0.407228 2.343973 0.368674 0.000000 0.000000 -1.571017
    1 -0.714870 0.039064 0.000000 -1.570795 -1.570787 0.000000
    2 1.293670 0.684478 -0.000001 -0.062447 0.004445 -0.094676
    3 5.309685 -0.003834 0.000000 0.005275 0.003679 0.016297
    4 4.826790 -0.004591 0.000000 0.004769 -0.023370 0.250809
    5 5.792767 -0.005304 0.000000 -0.045743 -0.007047 0.225446
    6 6.662322 -0.001452 0.000000 -0.091910 0.032655 0.231870
    7 -3.518356 0.356631 4.277124 1.379418 -1.057945 -4.734025
    8 4.827512 0.000000 -0.000002 -0.568146 0.477697 -0.715760
    9 11.140032 0.000000 0.000000 0.000000 0.000000 -0.379193
    10 10.314563 -0.000001 0.000001 -2.156512 -0.007868 0.280634
    11 1.646836 0.445664 -1.699647 -0.392035 3.352851 -0.875707
    12 0.928312 0.000000 0.000000 0.000000 0.000000 0.593404
    13 0.928313 0.000000 -0.000001 0.000000 0.000000 1.204231
    14 2.979373 -0.388274 -0.044205 -0.030851 -0.030823 0.768363
    15 1.435262 -0.000001 -0.000001 0.000000 0.000000 1.204014
    16 1.482593 -0.000001 0.000001 0.000000 0.000000 1.153221
    17 -2.975371 1.071532 -4.156022 -1.384899 0.751051 -4.667136
    18 4.972047 0.000000 0.000000 0.140557 -0.364275 -0.640180
    19 11.585358 0.000000 0.000001 0.000000 0.000000 -0.584973
    20 10.127058 0.000000 0.000001 2.412291 0.043689 0.433639
    21 1.537458 0.109715 1.664489 -3.079588 0.031470 0.928526
    22 0.928313 0.000000 0.000002 0.000000 0.000000 0.061034
    23 0.928311 0.000000 0.000001 0.000000 0.000000 0.671897
    24 2.686395 -0.427337 0.044204 -0.001208 0.043611 -0.052337
    25 1.435260 0.000000 0.000001 0.000000 0.000000 1.186618
    26 1.482593 0.000000 -0.000001 0.000000 0.000000 1.684243
    27 2.046984 0.000001 0.000000 0.167593 -0.040007 0.137404
    28 -0.000005 0.000007 3.713254 -0.099961 -3.047560 5.707931
    29 18.045723 0.000000 0.000000 0.000000 0.000000 -0.416579
    30 17.597597 0.000000 0.000000 -0.056923 -0.016795 -0.159923
    31 0.000005 -0.000003 -3.713254 0.807804 2.831810 6.176433
    32 18.045721 0.000000 0.000000 0.000000 0.000000 -0.781620
    33 17.597597 0.000000 0.000000 0.178726 0.125943 0.485631
  time 6
    0 0.407228 2.343973 0.368674 0.000000 0.000000 -1.571017
    1 -0.746121 0.039064 0.000000 -1.570795 -1.570787 0.000000
    2 1.293670 0.684478 -0.000001 -0.062447 0.004445 -0.094676
    3 5.309685 -0.003834 0.000000 0.005275 0.003679 0.016297
    4 4.826790 -0.004591 0.000000 0.004597 -0.023418 0.258769
    5 5.792767 -0.005304 0.000000 -0.035454 -0.006867 0.232443
    6 6.662322 -0.001452 0.000000 -0.091910 0.032655 0.231870
    7 -3.518356 0.356631 4.277124 1.379418 -1.057945 -4.734025
    8 4.827512 0.000000 -0.000002 -0.570857 0.463626 -0.728497
    9 11.140032 0.000000 0.000000 0.000000 0.000000 -0.379193
    10 10.314563 -0.000001 0.000001 -2.156512 -0.007868 0.280634
    11 1.646836 0.445664 -1.699647 -0.392035 3.352851 -0.875707
    12 0.928312 0.000000 0.000000 0.000000 0.000000 0.593404
    13 0.928313 0.000000 -0.000001 0.000000 0.000000 1.204231
    14 2.979373 -0.388274 -0.044205 -0.030851 -0.030823 0.768363
    15 1.435262 -0.000001 -0.000001 0.000000 0.000000 1.204014
    16 1.482593 -0.000001 0.000001 0.000000 0.000000 1.153221
    17 -2.975371 1.071532 -4.156022 -1.395312 0.723683 -4.673936
    18 4.972047 0.000000 0.000000 0.164569 -0.337519 -0.636520
    19 11.585358 0.000000 0.000001 0.000000 0.000000 -0.525837
    20 10.127058 0.000000 0.000001 2.414465 0.033476 0.453447
    21 1.537458 0.109715 1.664489 -3.079588 0.031470 0.928526
    22 0.928313 0.000000 0.000002 0.000000 0.000000 0.061034
    23 0.928311 0.000000 0.000001 0.000000 0.000000 0.671897
    24 2.686395 -0.427337 0.044204 -0.001208 0.043611 -0.052337
    25 1.435260 0.000000 0.000001 0.000000 0.000000 1.186618
    26 1.482593 0.000000 -0.000001 0.000000 0.000000 1.684243
    27 2.046984 0.000001 0.000000 0.157554 -0.039122 0.151273
    28 -0.000005 0.000007 3.713254 -0.100057 -3.047848 5.708602
    29 18.045723 0.000000 0.000000 0.000000 0.000000 -0.413544
    30 17.597597 0.000000 0.000000 -0.056999 -0.016648 -0.162308
    31 0.000005 -0.000003 -3.713254 0.807612 2.831522 6.175283
    32 18.045721 0.000000 0.000000 0.000000 0.000000 -0.782250
    33 17.597597 0.000000 0.000000 0.178659 0.125253 0.485308
end
