version 1
nodes
  0 "Bip01" -1
  1 "Bip01 Pelvis" 0
  2 "Bip01 Spine" 1
  3 "Bip01 Spine1" 2
  4 "Bip01 Spine2" 3
  5 "Bip01 Spine3" 4
  6 "Bip01 Neck" 5
  7 "Bip01 L Arm" 6
  8 "Bip01 L Arm1" 7
  9 "Bip01 L Arm2" 8
  10 "Bip01 L Hand" 9
  11 "Bip01 L Finger0" 10
  12 "Bip01 L Finger01" 11
  13 "Bip01 L Finger02" 12
  14 "Bip01 L Finger1" 10
  15 "Bip01 L Finger11" 14
  16 "Bip01 L Finger12" 15
  17 "Bip01 R Arm" 6
  18 "Bip01 R Arm1" 17
  19 "Bip01 R Arm2" 18
  20 "Bip01 R Hand" 19
  21 "Bip01 R Finger0" 20
  22 "Bip01 R Finger01" 21
  23 "Bip01 R Finger02" 22
  24 "Bip01 R Finger1" 20
  25 "Bip01 R Finger11" 24
  26 "Bip01 R Finger12" 25
  27 "Bip01 Head" 6
  28 "Bip01 L Leg" 1
  29 "Bip01 L Leg1" 28
  30 "Bip01 L Foot" 29
  31 "Bip01 R Leg" 1
  32 "Bip01 R Leg1" 31
  33 "Bip01 R Foot" 32
end
skeleton
  time 0
    0 0.293943 0.179844 0.368674 0.000000 0.000000 -1.571017
    1 -2.812590 0.218757 0.000000 -1.570795 -1.570787 0.000000
    2 1.293670 0.684478 -0.000001 -0.000004 -0.000001 0.254575
    3 5.309685 -0.003834 0.000000 0.000000 0.000000 0.025712
    4 4.826790 -0.004591 0.000000 -0.168751 0.044391 0.158074
    5 5.792767 -0.005304 0.000000 -0.191030 0.036373 0.237426
    6 6.662322 -0.001452 0.000000 0.000000 -0.000001 0.471000
    7 -3.108188 1.516823 4.339626 1.021694 -1.200350 -4.603233
    8 4.827512 0.000000 -0.000002 -0.212449 0.604754 -1.361045
    9 11.140032 0.000000 0.000000 0.000000 0.000000 -0.604378
    10 10.314563 -0.000001 0.000001 -3.960389 0.010210 -0.303947
    11 1.646836 0.445664 -1.699647 -0.161704 0.581044 -0.283978
    12 0.928312 0.000000 0.000000 0.000000 0.000000 0.000000
    13 0.928313 0.000000 -0.000001 0.000000 0.000000 0.000000
    14 2.979373 -0.388274 -0.044205 -0.000805 -0.043611 0.000046
    15 1.435262 -0.000001 -0.000001 0.000000 0.000000 0.706400
    16 1.482593 -0.000001 0.000001 0.000000 0.000000 0.732610
    17 -2.869899 1.399667 -4.140396 0.820358 1.281881 -2.814267
    18 4.972047 0.000000 0.000000 -0.716762 -0.937970 -0.047571
    19 11.585358 0.000000 0.000001 0.000000 0.000000 -1.850275
    20 10.127058 0.000000 0.000001 1.686438 0.299012 0.168525
    21 1.537458 0.109715 1.664489 -0.264662 -0.055995 0.783079
    22 0.928313 0.000000 0.000002 0.000000 0.000000 -0.453501
    23 0.928311 0.000000 0.000001 0.000000 0.000000 0.000000
    24 2.686395 -0.427337 0.044204 -0.005762 0.043239 -0.157074
    25 1.435260 0.000000 0.000001 0.000000 0.000000 0.732613
    26 1.482593 0.000000 -0.000001 0.000000 0.000000 1.168644
    27 2.046984 0.000001 0.000000 0.295937 -0.215818 -0.197276
    28 -0.000005 0.000007 3.713254 -0.099674 -3.049094 5.706014
    29 18.045723 0.000000 0.000000 0.000000 0.000000 -0.424202
    30 17.597597 0.000000 0.000000 -0.058089 -0.015491 -0.154101
    31 0.000005 -0.000003 -3.713254 0.807037 2.830659 6.178734
    32 18.045721 0.000000 0.000000 0.000000 0.000000 -0.779731
    33 17.597597 0.000000 0.000000 0.179330 0.128724 0.484523
  time 1
    0 0.293943 0.179844 0.368674 0.000000 0.000000 -1.571017
    1 -2.906343 -0.007813 0.000000 -1.570795 -1.570787 0.000000
    2 1.293670 0.684478 -0.000001 -0.000004 -0.000001 0.254575
    3 5.309685 -0.003834 0.000000 0.000000 0.000000 0.025712
    4 4.826790 -0.004591 0.000000 -0.273545 -0.008713 0.172979
    5 5.792767 -0.005304 0.000000 -0.397457 -0.060498 0.278038
    6 6.662322 -0.001452 0.000000 0.000000 -0.000001 0.471000
    7 -3.108188 1.516823 4.339626 1.021694 -1.200350 -4.603233
    8 4.827512 0.000000 -0.000002 0.067915 0.919414 -1.195110
    9 11.140032 0.000000 0.000000 0.000000 0.000000 -1.192410
    10 10.314563 -0.000001 0.000001 -3.501577 -0.775325 -0.235026
    11 1.646836 0.445664 -1.699647 -0.161704 0.581044 -0.283978
    12 0.928312 0.000000 0.000000 0.000000 0.000000 0.000000
    13 0.928313 0.000000 -0.000001 0.000000 0.000000 0.000000
    14 2.979373 -0.388274 -0.044205 -0.000805 -0.043611 0.000046
    15 1.435262 -0.000001 -0.000001 0.000000 0.000000 0.706400
    16 1.482593 -0.000001 0.000001 0.000000 0.000000 0.732610
    17 -2.869899 1.399667 -4.140396 1.314449 0.896174 -2.366303
    18 4.972047 0.000000 0.000000 -1.061941 -0.376488 -0.470464
    19 11.585358 0.000000 0.000001 0.000000 0.000000 -1.766145
    20 10.127058 0.000000 0.000001 1.368286 0.534098 -0.565492
    21 1.537458 0.109715 1.664489 -0.264662 -0.055995 0.783079
    22 0.928313 0.000000 0.000002 0.000000 0.000000 -0.453501
    23 0.928311 0.000000 0.000001 0.000000 0.000000 0.000000
    24 2.686395 -0.427337 0.044204 -0.005762 0.043239 -0.157074
    25 1.435260 0.000000 0.000001 0.000000 0.000000 0.732613
    26 1.482593 0.000000 -0.000001 0.000000 0.000000 1.168644
    27 2.046984 0.000001 0.000000 0.363620 -0.260014 -0.323070
    28 -0.000005 0.000007 3.713254 -0.098619 -3.043246 5.710232
    29 18.045723 0.000000 0.000000 0.000000 0.000000 -0.410139
    30 17.597597 0.000000 0.000000 -0.055758 -0.021397 -0.164554
    31 0.000005 -0.000003 -3.713254 0.808666 2.836507 6.175474
    32 18.045721 0.000000 0.000000 0.000000 0.000000 -0.782801
    33 17.597597 0.000000 0.000000 0.178693 0.121861 0.489511
  time 2
    0 0.293943 0.179844 0.368674 0.000000 0.000000 -1.571017
    1 -2.914155 -0.019532 0.000000 -1.570795 -1.570787 0.000000
    2 1.293670 0.684478 -0.000001 -0.000004 -0.000001 0.254575
    3 5.309685 -0.003834 0.000000 0.000000 0.000000 0.025712
    4 4.826790 -0.004591 0.000000 -0.264218 -0.010367 0.173398
    5 5.792767 -0.005304 0.000000 -0.377958 -0.063650 0.279076
    6 6.662322 -0.001452 0.000000 0.000000 -0.000001 0.471000
    7 -3.108188 1.516823 4.339626 1.021694 -1.200350 -4.603233
    8 4.827512 0.000000 -0.000002 0.063770 0.832265 -1.150831
    9 11.140032 0.000000 0.000000 0.000000 0.000000 -1.273340
    10 10.314563 -0.000001 0.000001 -3.504610 -0.686055 -0.109958
    11 1.646836 0.445664 -1.699647 -0.161704 0.581044 -0.283978
    12 0.928312 0.000000 0.000000 0.000000 0.000000 0.000000
    13 0.928313 0.000000 -0.000001 0.000000 0.000000 0.000000
    14 2.979373 -0.388274 -0.044205 -0.000805 -0.043611 0.000046
    15 1.435262 -0.000001 -0.000001 0.000000 0.000000 0.706400
    16 1.482593 -0.000001 0.000001 0.000000 0.000000 0.732610
    17 -2.869899 1.399667 -4.140396 1.325053 0.875799 -2.358066
    18 4.972047 0.000000 0.000000 -0.980617 -0.454748 -0.571761
    19 11.585358 0.000000 0.000001 0.000000 0.000000 -1.696554
    20 10.127058 0.000000 0.000001 1.423544 0.558590 -0.605809
    21 1.537458 0.109715 1.664489 -0.264662 -0.055995 0.783079
    22 0.928313 0.000000 0.000002 0.000000 0.000000 -0.453501
    23 0.928311 0.000000 0.000001 0.000000 0.000000 0.000000
    24 2.686395 -0.427337 0.044204 -0.005762 0.043239 -0.157074
    25 1.435260 0.000000 0.000001 0.000000 0.000000 0.732613
    26 1.482593 0.000000 -0.000001 0.000000 0.000000 1.168644
    27 2.046984 0.000001 0.000000 0.406832 -0.223017 -0.303969
    28 -0.000005 0.000007 3.713254 -0.098619 -3.042958 5.710328
    29 18.045723 0.000000 0.000000 0.000000 0.000000 -0.409621
    30 17.597597 0.000000 0.000000 -0.055631 -0.021693 -0.164921
    31 0.000005 -0.000003 -3.713254 0.808762 2.836795 6.175378
    32 18.045721 0.000000 0.000000 0.000000 0.000000 -0.782801
    33 17.597597 0.000000 0.000000 0.178659 0.121565 0.489788
  time 3
    0 0.293943 0.179844 0.368674 0.000000 0.000000 -1.571017
    1 -2.906343 -0.007813 0.000000 -1.570795 -1.570787 0.000000
    2 1.293670 0.684478 -0.000001 -0.000004 -0.000001 0.254575
    3 5.309685 -0.003834 0.000000 0.000000 0.000000 0.025712
    4 4.826790 -0.004591 0.000000 -0.241481 -0.006867 0.172053
    5 5.792767 -0.005304 0.000000 -0.331856 -0.057730 0.275131
    6 6.662322 -0.001452 0.000000 0.000000 -0.000001 0.471000
    7 -3.108188 1.516823 4.339626 1.021694 -1.200350 -4.603233
    8 4.827512 0.000000 -0.000002 -0.010606 0.685935 -1.130642
    9 11.140032 0.000000 0.000000 0.000000 0.000000 -1.283846
    10 10.314563 -0.000001 0.000001 -3.570195 -0.449252 0.020743
    11 1.646836 0.445664 -1.699647 -0.161704 0.581044 -0.283978
    12 0.928312 0.000000 0.000000 0.000000 0.000000 0.000000
    13 0.928313 0.000000 -0.000001 0.000000 0.000000 0.000000
    14 2.979373 -0.388274 -0.044205 -0.000805 -0.043611 0.000046
    15 1.435262 -0.000001 -0.000001 0.000000 0.000000 0.706400
    16 1.482593 -0.000001 0.000001 0.000000 0.000000 0.732610
    17 -2.869899 1.399667 -4.140396 1.306806 0.910161 -2.372337
    18 4.972047 0.000000 0.000000 -0.822942 -0.612233 -0.649631
    19 11.585358 0.000000 0.000001 0.000000 0.000000 -1.626064
    20 10.127058 0.000000 0.000001 1.553062 0.567669 -0.535629
    21 1.537458 0.109715 1.664489 -0.264662 -0.055995 0.783079
    22 0.928313 0.000000 0.000002 0.000000 0.000000 -0.453501
    23 0.928311 0.000000 0.000001 0.000000 0.000000 0.000000
    24 2.686395 -0.427337 0.044204 -0.005762 0.043239 -0.157074
    25 1.435260 0.000000 0.000001 0.000000 0.000000 0.732613
    26 1.482593 0.000000 -0.000001 0.000000 0.000000 1.168644
    27 2.046984 0.000001 0.000000 0.407866 -0.190091 -0.274772
    28 -0.000005 0.000007 3.713254 -0.098619 -3.043150 5.710136
    29 18.045723 0.000000 0.000000 0.000000 0.000000 -0.410583
    30 17.597597 0.000000 0.000000 -0.055707 -0.021471 -0.164187
    31 0.000005 -0.000003 -3.713254 0.808666 2.836603 6.175666
    32 18.045721 0.000000 0.000000 0.000000 0.000000 -0.782565
    33 17.597597 0.000000 0.000000 0.178693 0.121939 0.489604
  time 4
    0 0.293943 0.179844 0.368674 0.000000 0.000000 -1.571017
    1 -2.894624 0.007813 0.000000 -1.570795 -1.570787 0.000000
    2 1.293670 0.684478 -0.000001 -0.000004 -0.000001 0.254575
    3 5.309685 -0.003834 0.000000 0.000000 0.000000 0.025712
    4 4.826790 -0.004591 0.000000 -0.212851 -0.000216 0.169826
    5 5.792767 -0.005304 0.000000 -0.273917 -0.045817 0.268840
    6 6.662322 -0.001452 0.000000 0.000000 -0.000001 0.471000
    7 -3.108188 1.516823 4.339626 1.021694 -1.200350 -4.603233
    8 4.827512 0.000000 -0.000002 -0.122848 0.522465 -1.175007
    9 11.140032 0.000000 0.000000 0.000000 0.000000 -1.181035
    10 10.314563 -0.000001 0.000001 -3.620143 -0.177041 0.066671
    11 1.646836 0.445664 -1.699647 -0.161704 0.581044 -0.283978
    12 0.928312 0.000000 0.000000 0.000000 0.000000 0.000000
    13 0.928313 0.000000 -0.000001 0.000000 0.000000 0.000000
    14 2.979373 -0.388274 -0.044205 -0.000805 -0.043611 0.000046
    15 1.435262 -0.000001 -0.000001 0.000000 0.000000 0.706400
    16 1.482593 -0.000001 0.000001 0.000000 0.000000 0.732610
    17 -2.869899 1.399667 -4.140396 1.270886 0.969078 -2.401263
    18 4.972047 0.000000 0.000000 -0.601015 -0.760880 -0.748266
    19 11.585358 0.000000 0.000001 0.000000 0.000000 -1.563988
    20 10.127058 0.000000 0.000001 1.695835 0.552538 -0.420479
    21 1.537458 0.109715 1.664489 -0.264662 -0.055995 0.783079
    22 0.928313 0.000000 0.000002 0.000000 0.000000 -0.453501
    23 0.928311 0.000000 0.000001 0.000000 0.000000 0.000000
    24 2.686395 -0.427337 0.044204 -0.005762 0.043239 -0.157074
    25 1.435260 0.000000 0.000001 0.000000 0.000000 0.732613
    26 1.482593 0.000000 -0.000001 0.000000 0.000000 1.168644
    27 2.046984 0.000001 0.000000 0.390116 -0.158847 -0.244236
    28 -0.000005 0.000007 3.713254 -0.098715 -3.043725 5.709561
    29 18.045723 0.000000 0.000000 0.000000 0.000000 -0.412508
    30 17.597597 0.000000 0.000000 -0.055960 -0.020905 -0.162858
    31 0.000005 -0.000003 -3.713254 0.808474 2.836028 6.176145
    32 18.045721 0.000000 0.000000 0.000000 0.000000 -0.782250
    33 17.597597 0.000000 0.000000 0.178794 0.122709 0.489142
  time 5
    0 0.293943 0.179844 0.368674 0.000000 0.000000 -1.571017
    1 -2.875092 0.039064 0.000000 -1.570795 -1.570787 0.000000
    2 1.293670 0.684478 -0.000001 -0.000004 -0.000001 0.254575
    3 5.309685 -0.003834 0.000000 0.000000 0.000000 0.025712
    4 4.826790 -0.004591 0.000000 -0.185555 0.007634 0.167533
    5 5.792767 -0.005304 0.000000 -0.219181 -0.031472 0.262466
    6 6.662322 -0.001452 0.000000 0.000000 -0.000001 0.471000
    7 -3.108188 1.516823 4.339626 1.021694 -1.200350 -4.603233
    8 4.827512 0.000000 -0.000002 -0.209261 0.400524 -1.272055
    9 11.140032 0.000000 0.000000 0.000000 0.000000 -0.981643
    10 10.314563 -0.000001 0.000001 -3.645732 0.012177 0.012614
    11 1.646836 0.445664 -1.699647 -0.161704 0.581044 -0.283978
    12 0.928312 0.000000 0.000000 0.000000 0.000000 0.000000
    13 0.928313 0.000000 -0.000001 0.000000 0.000000 0.000000
    14 2.979373 -0.388274 -0.044205 -0.000805 -0.043611 0.000046
    15 1.435262 -0.000001 -0.000001 0.000000 0.000000 0.706400
    16 1.482593 -0.000001 0.000001 0.000000 0.000000 0.732610
    17 -2.869899 1.399667 -4.140396 1.232291 1.022605 -2.433732
    18 4.972047 0.000000 0.000000 -0.398785 -0.843720 -0.834322
    19 11.585358 0.000000 0.000001 0.000000 0.000000 -1.518982
    20 10.127058 0.000000 0.000001 1.789871 0.523885 -0.326939
    21 1.537458 0.109715 1.664489 -0.264662 -0.055995 0.783079
    22 0.928313 0.000000 0.000002 0.000000 0.000000 -0.453501
    23 0.928311 0.000000 0.000001 0.000000 0.000000 0.000000
    24 2.686395 -0.427337 0.044204 -0.005762 0.043239 -0.157074
    25 1.435260 0.000000 0.000001 0.000000 0.000000 0.732613
    26 1.482593 0.000000 -0.000001 0.000000 0.000000 1.168644
    27 2.046984 0.000001 0.000000 0.376459 -0.129550 -0.217958
    28 -0.000005 0.000007 3.713254 -0.098811 -3.044492 5.708986
    29 18.045723 0.000000 0.000000 0.000000 0.000000 -0.414506
    30 17.597597 0.000000 0.000000 -0.056265 -0.020118 -0.161345
    31 0.000005 -0.000003 -3.713254 0.808379 2.835261 6.176625
    32 18.045721 0.000000 0.000000 0.000000 0.000000 -0.781935
    33 17.597597 0.000000 0.000000 0.178861 0.123655 0.488449
  time 6
    0 0.293943 0.179844 0.368674 0.000000 0.000000 -1.571017
    1 -2.863373 0.070315 0.000000 -1.570795 -1.570787 0.000000
    2 1.293670 0.684478 -0.000001 -0.000004 -0.000001 0.254575
    3 5.309685 -0.003834 0.000000 0.000000 0.000000 0.025712
    4 4.826790 -0.004591 0.000000 -0.167072 0.014693 0.165681
    5 5.792767 -0.005304 0.000000 -0.182414 -0.018420 0.257462
    6 6.662322 -0.001452 0.000000 0.000000 -0.000001 0.471000
    7 -3.108188 1.516823 4.339626 1.021694 -1.200350 -4.603233
    8 4.827512 0.000000 -0.000002 -0.230067 0.372639 -1.359486
    9 11.140032 0.000000 0.000000 0.000000 0.000000 -0.755226
    10 10.314563 -0.000001 0.000001 -3.697196 0.072596 -0.127493
    11 1.646836 0.445664 -1.699647 -0.161704 0.581044 -0.283978
    12 0.928312 0.000000 0.000000 0.000000 0.000000 0.000000
    13 0.928313 0.000000 -0.000001 0.000000 0.000000 0.000000
    14 2.979373 -0.388274 -0.044205 -0.000805 -0.043611 0.000046
    15 1.435262 -0.000001 -0.000001 0.000000 0.000000 0.706400
    16 1.482593 -0.000001 0.000001 0.000000 0.000000 0.732610
    17 -2.869899 1.399667 -4.140396 1.190830 1.070348 -2.469554
    18 4.972047 0.000000 0.000000 -0.328811 -0.901732 -0.810961
    19 11.585358 0.000000 0.000001 0.000000 0.000000 -1.493253
    20 10.127058 0.000000 0.000001 1.799829 0.489748 -0.267013
    21 1.537458 0.109715 1.664489 -0.264662 -0.055995 0.783079
    22 0.928313 0.000000 0.000002 0.000000 0.000000 -0.453501
    23 0.928311 0.000000 0.000001 0.000000 0.000000 0.000000
    24 2.686395 -0.427337 0.044204 -0.005762 0.043239 -0.157074
    25 1.435260 0.000000 0.000001 0.000000 0.000000 0.732613
    26 1.482593 0.000000 -0.000001 0.000000 0.000000 1.168644
    27 2.046984 0.000001 0.000000 0.317263 -0.130789 -0.207313
    28 -0.000005 0.000007 3.713254 -0.099002 -3.045259 5.708411
    29 18.045723 0.000000 0.000000 0.000000 0.000000 -0.416282
    30 17.597597 0.000000 0.000000 -0.056569 -0.019330 -0.160061
    31 0.000005 -0.000003 -3.713254 0.808091 2.834494 6.177008
    32 18.045721 0.000000 0.000000 0.000000 0.000000 -0.781463
    33 17.597597 0.000000 0.000000 0.178928 0.124523 0.487848
  time 7
    0 0.293943 0.179844 0.368674 0.000000 0.000000 -1.571017
    1 -2.859466 0.105472 0.000000 -1.570795 -1.570787 0.000000
    2 1.293670 0.684478 -0.000001 -0.000004 -0.000001 0.254575
    3 5.309685 -0.003834 0.000000 0.000000 0.000000 0.025712
    4 4.826790 -0.004591 0.000000 -0.160682 0.021309 0.164005
    5 5.792767 -0.005304 0.000000 -0.170434 -0.006196 0.253164
    6 6.662322 -0.001452 0.000000 0.000000 -0.000001 0.471000
    7 -3.108188 1.516823 4.339626 1.021694 -1.200350 -4.603233
    8 4.827512 0.000000 -0.000002 -0.211413 0.420478 -1.380022
    9 11.140032 0.000000 0.000000 0.000000 0.000000 -0.600104
    10 10.314563 -0.000001 0.000001 -3.777471 0.062386 -0.266497
    11 1.646836 0.445664 -1.699647 -0.161704 0.581044 -0.283978
    12 0.928312 0.000000 0.000000 0.000000 0.000000 0.000000
    13 0.928313 0.000000 -0.000001 0.000000 0.000000 0.000000
    14 2.979373 -0.388274 -0.044205 -0.000805 -0.043611 0.000046
    15 1.435262 -0.000001 -0.000001 0.000000 0.000000 0.706400
    16 1.482593 -0.000001 0.000001 0.000000 0.000000 0.732610
    17 -2.869899 1.399667 -4.140396 1.131696 1.125795 -2.522425
    18 4.972047 0.000000 0.000000 -0.367831 -0.970110 -0.693358
    19 11.585358 0.000000 0.000001 0.000000 0.000000 -1.492845
    20 10.127058 0.000000 0.000001 1.760980 0.446248 -0.201985
    21 1.537458 0.109715 1.664489 -0.264662 -0.055995 0.783079
    22 0.928313 0.000000 0.000002 0.000000 0.000000 -0.453501
    23 0.928311 0.000000 0.000001 0.000000 0.000000 0.000000
    24 2.686395 -0.427337 0.044204 -0.005762 0.043239 -0.157074
    25 1.435260 0.000000 0.000001 0.000000 0.000000 0.732613
    26 1.482593 0.000000 -0.000001 0.000000 0.000000 1.168644
    27 2.046984 0.000001 0.000000 0.293136 -0.142738 -0.202203
    28 -0.000005 0.000007 3.713254 -0.099194 -3.046122 5.707931
    29 18.045723 0.000000 0.000000 0.000000 0.000000 -0.417911
    30 17.597597 0.000000 0.000000 -0.056873 -0.018543 -0.158777
    31 0.000005 -0.000003 -3.713254 0.807899 2.833727 6.177296
    32 18.045721 0.000000 0.000000 0.000000 0.000000 -0.781148
    33 17.597597 0.000000 0.000000 0.179028 0.125371 0.487156
  time 8
    0 0.293943 0.179844 0.368674 0.000000 0.000000 -1.571017
    1 -2.839934 0.144536 0.000000 -1.570795 -1.570787 0.000000
    2 1.293670 0.684478 -0.000001 -0.000004 -0.000001 0.254575
    3 5.309685 -0.003834 0.000000 0.000000 0.000000 0.025712
    4 4.826790 -0.004591 0.000000 -0.161884 0.028823 0.162131
    5 5.792767 -0.005304 0.000000 -0.174067 0.007658 0.248160
    6 6.662322 -0.001452 0.000000 0.000000 -0.000001 0.471000
    7 -3.108188 1.516823 4.339626 1.021694 -1.200350 -4.603233
    8 4.827512 0.000000 -0.000002 -0.193158 0.487844 -1.355673
    9 11.140032 0.000000 0.000000 0.000000 0.000000 -0.545256
    10 10.314563 -0.000001 0.000001 -3.846374 0.040841 -0.337508
    11 1.646836 0.445664 -1.699647 -0.161704 0.581044 -0.283978
    12 0.928312 0.000000 0.000000 0.000000 0.000000 0.000000
    13 0.928313 0.000000 -0.000001 0.000000 0.000000 0.000000
    14 2.979373 -0.388274 -0.044205 -0.000805 -0.043611 0.000046
    15 1.435262 -0.000001 -0.000001 0.000000 0.000000 0.706400
    16 1.482593 -0.000001 0.000001 0.000000 0.000000 0.732610
    17 -2.869899 1.399667 -4.140396 1.055271 1.180584 -2.592249
    18 4.972047 0.000000 0.000000 -0.457128 -1.014945 -0.532028
    19 11.585358 0.000000 0.000001 0.000000 0.000000 -1.533358
    20 10.127058 0.000000 0.000001 1.723884 0.401141 -0.116448
    21 1.537458 0.109715 1.664489 -0.264662 -0.055995 0.783079
    22 0.928313 0.000000 0.000002 0.000000 0.000000 -0.453501
    23 0.928311 0.000000 0.000001 0.000000 0.000000 0.000000
    24 2.686395 -0.427337 0.044204 -0.005762 0.043239 -0.157074
    25 1.435260 0.000000 0.000001 0.000000 0.000000 0.732613
    26 1.482593 0.000000 -0.000001 0.000000 0.000000 1.168644
    27 2.046984 0.000001 0.000000 0.289905 -0.165013 -0.199831
    28 -0.000005 0.000007 3.713254 -0.099194 -3.047081 5.707260
    29 18.045723 0.000000 0.000000 0.000000 0.000000 -0.419909
    30 17.597597 0.000000 0.000000 -0.057278 -0.017558 -0.157310
    31 0.000005 -0.000003 -3.713254 0.807612 2.832672 6.177775
    32 18.045721 0.000000 0.000000 0.000000 0.000000 -0.780833
    33 17.597597 0.000000 0.000000 0.179096 0.126456 0.486324
  time 9
    0 0.293943 0.179844 0.368674 0.000000 0.000000 -1.571017
    1 -2.828215 0.179693 0.000000 -1.570795 -1.570787 0.000000
    2 1.293670 0.684478 -0.000001 -0.000004 -0.000001 0.254575
    3 5.309685 -0.003834 0.000000 0.000000 0.000000 0.025712
    4 4.826790 -0.004591 0.000000 -0.166023 0.036709 0.160059
    5 5.792767 -0.005304 0.000000 -0.184050 0.022195 0.242762
    6 6.662322 -0.001452 0.000000 0.000000 -0.000001 0.471000
    7 -3.108188 1.516823 4.339626 1.021694 -1.200350 -4.603233
    8 4.827512 0.000000 -0.000002 -0.194752 0.547792 -1.340076
    9 11.140032 0.000000 0.000000 0.000000 0.000000 -0.573368
    10 10.314563 -0.000001 0.000001 -3.902197 0.026978 -0.327057
    11 1.646836 0.445664 -1.699647 -0.161704 0.581044 -0.283978
    12 0.928312 0.000000 0.000000 0.000000 0.000000 0.000000
    13 0.928313 0.000000 -0.000001 0.000000 0.000000 0.000000
    14 2.979373 -0.388274 -0.044205 -0.000805 -0.043611 0.000046
    15 1.435262 -0.000001 -0.000001 0.000000 0.000000 0.706400
    16 1.482593 -0.000001 0.000001 0.000000 0.000000 0.732610
    17 -2.869899 1.399667 -4.140396 0.956013 1.232797 -2.685156
    18 4.972047 0.000000 0.000000 -0.587132 -0.996384 -0.303543
    19 11.585358 0.000000 0.000001 0.000000 0.000000 -1.668783
    20 10.127058 0.000000 0.000001 1.707055 0.351022 0.015809
    21 1.537458 0.109715 1.664489 -0.264662 -0.055995 0.783079
    22 0.928313 0.000000 0.000002 0.000000 0.000000 -0.453501
    23 0.928311 0.000000 0.000001 0.000000 0.000000 0.000000
    24 2.686395 -0.427337 0.044204 -0.005762 0.043239 -0.157074
    25 1.435260 0.000000 0.000001 0.000000 0.000000 0.732613
    26 1.482593 0.000000 -0.000001 0.000000 0.000000 1.168644
    27 2.046984 0.000001 0.000000 0.295032 -0.191448 -0.198797
    28 -0.000005 0.000007 3.713254 -0.099386 -3.048136 5.706589
    29 18.045723 0.000000 0.000000 0.000000 0.000000 -0.422056
    30 17.597597 0.000000 0.000000 -0.057709 -0.016500 -0.155660
    31 0.000005 -0.000003 -3.713254 0.807324 2.831618 6.178255
    32 18.045721 0.000000 0.000000 0.000000 0.000000 -0.780360
    33 17.597597 0.000000 0.000000 0.179230 0.127600 0.485447
  time 10
    0 0.293943 0.179844 0.368674 0.000000 0.000000 -1.571017
    1 -2.812590 0.218757 0.000000 -1.570795 -1.570787 0.000000
    2 1.293670 0.684478 -0.000001 -0.000004 -0.000001 0.254575
    3 5.309685 -0.003834 0.000000 0.000000 0.000000 0.025712
    4 4.826790 -0.004591 0.000000 -0.168751 0.044391 0.158074
    5 5.792767 -0.005304 0.000000 -0.191030 0.036373 0.237426
    6 6.662322 -0.001452 0.000000 0.000000 -0.000001 0.471000
    7 -3.108188 1.516823 4.339626 1.021694 -1.200350 -4.603233
    8 4.827512 0.000000 -0.000002 -0.212449 0.604754 -1.361045
    9 11.140032 0.000000 0.000000 0.000000 0.000000 -0.604378
    10 10.314563 -0.000001 0.000001 -3.960389 0.010210 -0.303947
    11 1.646836 0.445664 -1.699647 -0.161704 0.581044 -0.283978
    12 0.928312 0.000000 0.000000 0.000000 0.000000 0.000000
    13 0.928313 0.000000 -0.000001 0.000000 0.000000 0.000000
    14 2.979373 -0.388274 -0.044205 -0.000805 -0.043611 0.000046
    15 1.435262 -0.000001 -0.000001 0.000000 0.000000 0.706400
    16 1.482593 -0.000001 0.000001 0.000000 0.000000 0.732610
    17 -2.869899 1.399667 -4.140396 0.820358 1.281881 -2.814267
    18 4.972047 0.000000 0.000000 -0.716762 -0.937970 -0.047571
    19 11.585358 0.000000 0.000001 0.000000 0.000000 -1.850275
    20 10.127058 0.000000 0.000001 1.686438 0.299012 0.168525
    21 1.537458 0.109715 1.664489 -0.264662 -0.055995 0.783079
    22 0.928313 0.000000 0.000002 0.000000 0.000000 -0.453501
    23 0.928311 0.000000 0.000001 0.000000 0.000000 0.000000
    24 2.686395 -0.427337 0.044204 -0.005762 0.043239 -0.157074
    25 1.435260 0.000000 0.000001 0.000000 0.000000 0.732613
    26 1.482593 0.000000 -0.000001 0.000000 0.000000 1.168644
    27 2.046984 0.000001 0.000000 0.295937 -0.215818 -0.197276
    28 -0.000005 0.000007 3.713254 -0.099674 -3.049094 5.706014
    29 18.045723 0.000000 0.000000 0.000000 0.000000 -0.424202
    30 17.597597 0.000000 0.000000 -0.058089 -0.015491 -0.154101
    31 0.000005 -0.000003 -3.713254 0.807037 2.830659 6.178734
    32 18.045721 0.000000 0.000000 0.000000 0.000000 -0.779731
    33 17.597597 0.000000 0.000000 0.179330 0.128724 0.484523
end
