version 1
nodes
  0 "Bip01" -1
  1 "Bip01 Pelvis" 0
  2 "Bip01 Spine" 1
  3 "Bip01 Spine1" 2
  4 "Bip01 Spine2" 3
  5 "Bip01 Spine3" 4
  6 "Bip01 Neck" 5
  7 "Bip01 L Arm" 6
  8 "Bip01 L Arm1" 7
  9 "Bip01 L Arm2" 8
  10 "Bip01 L Hand" 9
  11 "Bip01 L Finger0" 10
  12 "Bip01 L Finger01" 11
  13 "Bip01 L Finger02" 12
  14 "Bip01 L Finger1" 10
  15 "Bip01 L Finger11" 14
  16 "Bip01 L Finger12" 15
  17 "Bip01 R Arm" 6
  18 "Bip01 R Arm1" 17
  19 "Bip01 R Arm2" 18
  20 "Bip01 R Hand" 19
  21 "Bip01 R Finger0" 20
  22 "Bip01 R Finger01" 21
  23 "Bip01 R Finger02" 22
  24 "Bip01 R Finger1" 20
  25 "Bip01 R Finger11" 24
  26 "Bip01 R Finger12" 25
  27 "Bip01 Head" 6
  28 "Bip01 L Leg" 1
  29 "Bip01 L Leg1" 28
  30 "Bip01 L Foot" 29
  31 "Bip01 R Leg" 1
  32 "Bip01 R Leg1" 31
  33 "Bip01 R Foot" 32
end
skeleton
  time 0
    0 0.254879 -0.281108 0.368674 0.000000 0.000000 -1.571017
    1 -3.382920 0.207038 0.000000 -1.570795 -1.570787 0.000000
    2 1.293670 0.684478 -0.000001 -0.000004 -0.000001 0.034347
    3 5.309685 -0.003834 0.000000 0.000000 0.000000 0.109667
    4 4.826790 -0.004591 0.000000 -0.166920 0.050875 0.084323
    5 5.792767 -0.005304 0.000000 -0.143128 0.007790 0.196980
    6 6.662322 -0.001452 0.000000 0.000000 -0.000001 0.471000
    7 -3.108188 1.516823 4.339626 -0.497002 -1.183969 -3.211090
    8 4.827512 0.000000 -0.000002 0.044478 1.184360 -0.067788
    9 11.140032 0.000000 0.000000 0.115080 -0.175308 -0.293771
    10 10.314563 -0.000001 0.000001 1.463469 -0.267060 -1.032526
    11 1.646836 0.445664 -1.699647 0.325979 0.616202 0.091573
    12 0.928312 0.000000 0.000000 0.000000 0.000000 0.000000
    13 0.928313 0.000000 -0.000001 0.000000 0.000000 0.000000
    14 2.979373 -0.388274 -0.044205 -0.000805 -0.043611 0.000046
    15 1.435262 -0.000001 -0.000001 0.272733 -0.008065 0.399315
    16 1.482593 -0.000001 0.000001 0.096344 -0.092317 0.394807
    17 -2.869899 1.399667 -4.140396 -1.945289 0.772320 -5.597736
    18 4.972047 0.000000 0.000000 1.385545 -0.274846 -1.774749
    19 11.585358 0.000000 0.000001 -0.437744 -0.684464 0.252490
    20 10.127058 0.000000 0.000001 1.099571 -0.185535 0.253461
    21 1.537458 0.109715 1.664489 -0.264662 -0.055995 0.783079
    22 0.928313 0.000000 0.000002 0.000000 0.000000 -0.453501
    23 0.928311 0.000000 0.000001 0.000000 0.000000 0.000000
    24 2.686395 -0.427337 0.044204 -0.005762 0.043239 -0.157074
    25 1.435260 0.000000 0.000001 0.012033 -0.011913 0.044202
    26 1.482593 0.000000 -0.000001 0.000000 0.000000 1.168644
    27 2.046984 0.000001 0.000000 0.265606 -0.161856 -0.235659
    28 -0.000005 0.000007 3.713254 -0.099865 -3.047848 5.708602
    29 18.045723 0.000000 0.000000 0.000000 0.000000 -0.413544
    30 17.597597 0.000000 0.000000 -0.057202 -0.016721 -0.162308
    31 0.000005 -0.000003 -3.713254 0.807612 2.831522 6.175187
    32 18.045721 0.000000 0.000000 0.000000 0.000000 -0.782250
    33 17.597597 0.000000 0.000000 0.178693 0.125253 0.485308
  time 1
    0 0.254879 -0.281108 0.368674 0.000000 0.000000 -1.571017
    1 -3.382920 0.207038 0.000000 -1.570795 -1.570787 0.000000
    2 1.293670 0.684478 -0.000001 -0.000004 -0.000001 0.034347
    3 5.309685 -0.003834 0.000000 0.000000 0.000000 0.107106
    4 4.826790 -0.004591 0.000000 -0.166920 0.050875 0.081919
    5 5.792767 -0.005304 0.000000 -0.142966 0.008365 0.193492
    6 6.662322 -0.001452 0.000000 0.000000 -0.000001 0.471000
    7 -3.108188 1.516823 4.339626 -0.484637 -1.182964 -3.222396
    8 4.827512 0.000000 -0.000002 0.134080 1.142575 -0.095083
    9 11.140032 0.000000 0.000000 0.160432 -0.207015 -0.326809
    10 10.314563 -0.000001 0.000001 1.317039 -0.391737 -0.920986
    11 1.646836 0.445664 -1.699647 0.325979 0.616202 0.091573
    12 0.928312 0.000000 0.000000 0.000000 0.000000 0.000000
    13 0.928313 0.000000 -0.000001 0.000000 0.000000 0.000000
    14 2.979373 -0.388274 -0.044205 -0.000805 -0.043611 0.000046
    15 1.435262 -0.000001 -0.000001 0.272733 -0.008065 0.399315
    16 1.482593 -0.000001 0.000001 0.096344 -0.092317 0.394807
    17 -2.869899 1.399667 -4.140396 -1.949205 0.779944 -5.601376
    18 4.972047 0.000000 0.000000 1.369599 -0.280069 -1.761039
    19 11.585358 0.000000 0.000001 -0.406496 -0.693676 0.195151
    20 10.127058 0.000000 0.000001 1.112403 -0.166906 0.238755
    21 1.537458 0.109715 1.664489 -0.264662 -0.055995 0.783079
    22 0.928313 0.000000 0.000002 0.000000 0.000000 -0.453501
    23 0.928311 0.000000 0.000001 0.000000 0.000000 0.000000
    24 2.686395 -0.427337 0.044204 -0.005762 0.043239 -0.157074
    25 1.435260 0.000000 0.000001 0.012033 -0.011913 0.044202
    26 1.482593 0.000000 -0.000001 0.000000 0.000000 1.168644
    27 2.046984 0.000001 0.000000 0.265606 -0.161856 -0.235659
    28 -0.000005 0.000007 3.713254 -0.099865 -3.047848 5.708602
    29 18.045723 0.000000 0.000000 0.000000 0.000000 -0.413544
    30 17.597597 0.000000 0.000000 -0.057202 -0.016721 -0.162308
    31 0.000005 -0.000003 -3.713254 0.807612 2.831522 6.175187
    32 18.045721 0.000000 0.000000 0.000000 0.000000 -0.782250
    33 17.597597 0.000000 0.000000 0.178693 0.125253 0.485308
  time 2
    0 0.254879 -0.281108 0.368674 0.000000 0.000000 -1.571017
    1 -3.382920 0.207038 0.000000 -1.570795 -1.570787 0.000000
    2 1.293670 0.684478 -0.000001 -0.000004 -0.000001 0.034347
    3 5.309685 -0.003834 0.000000 0.000000 0.000000 0.099740
    4 4.826790 -0.004591 0.000000 -0.166920 0.050875 0.074996
    5 5.792767 -0.005304 0.000000 -0.142553 0.010043 0.183609
    6 6.662322 -0.001452 0.000000 0.000000 -0.000001 0.471000
    7 -3.108188 1.516823 4.339626 -0.449171 -1.180125 -3.254878
    8 4.827512 0.000000 -0.000002 0.331300 1.042379 -0.164143
    9 11.140032 0.000000 0.000000 0.205784 -0.255348 -0.372383
    10 10.314563 -0.000001 0.000001 1.114882 -0.561097 -0.757016
    11 1.646836 0.445664 -1.699647 0.325979 0.616202 0.091573
    12 0.928312 0.000000 0.000000 0.000000 0.000000 0.000000
    13 0.928313 0.000000 -0.000001 0.000000 0.000000 0.000000
    14 2.979373 -0.388274 -0.044205 -0.000805 -0.043611 0.000046
    15 1.435262 -0.000001 -0.000001 0.272733 -0.008065 0.399315
    16 1.482593 -0.000001 0.000001 0.096344 -0.092317 0.394807
    17 -2.869899 1.399667 -4.140396 -1.960000 0.801765 -5.611720
    18 4.972047 0.000000 0.000000 1.324013 -0.294933 -1.721971
    19 11.585358 0.000000 0.000001 -0.329103 -0.713961 0.051068
    20 10.127058 0.000000 0.000001 1.145853 -0.140333 0.218346
    21 1.537458 0.109715 1.664489 -0.264662 -0.055995 0.783079
    22 0.928313 0.000000 0.000002 0.000000 0.000000 -0.453501
    23 0.928311 0.000000 0.000001 0.000000 0.000000 0.000000
    24 2.686395 -0.427337 0.044204 -0.005762 0.043239 -0.157074
    25 1.435260 0.000000 0.000001 0.012033 -0.011913 0.044202
    26 1.482593 0.000000 -0.000001 0.000000 0.000000 1.168644
    27 2.046984 0.000001 0.000000 0.265606 -0.161856 -0.235659
    28 -0.000005 0.000007 3.713254 -0.099865 -3.047848 5.708602
    29 18.045723 0.000000 0.000000 0.000000 0.000000 -0.413544
    30 17.597597 0.000000 0.000000 -0.057202 -0.016721 -0.162308
    31 0.000005 -0.000003 -3.713254 0.807612 2.831522 6.175187
    32 18.045721 0.000000 0.000000 0.000000 0.000000 -0.782250
    33 17.597597 0.000000 0.000000 0.178693 0.125253 0.485308
  time 3
    0 0.254879 -0.281108 0.368674 0.000000 0.000000 -1.571017
    1 -3.382920 0.207038 0.000000 -1.570795 -1.570787 0.000000
    2 1.293670 0.684478 -0.000001 -0.000004 -0.000001 0.034347
    3 5.309685 -0.003834 0.000000 0.000000 0.000000 0.088082
    4 4.826790 -0.004591 0.000000 -0.166920 0.050875 0.064082
    5 5.792767 -0.005304 0.000000 -0.141833 0.012704 0.167953
    6 6.662322 -0.001452 0.000000 0.000000 -0.000001 0.471000
    7 -3.108188 1.516823 4.339626 -0.393097 -1.175601 -3.306141
    8 4.827512 0.000000 -0.000002 0.528440 0.921546 -0.255040
    9 11.140032 0.000000 0.000000 0.158653 -0.290125 -0.381439
    10 10.314563 -0.000001 0.000001 1.038208 -0.614677 -0.680604
    11 1.646836 0.445664 -1.699647 0.325979 0.616202 0.091573
    12 0.928312 0.000000 0.000000 0.000000 0.000000 0.000000
    13 0.928313 0.000000 -0.000001 0.000000 0.000000 0.000000
    14 2.979373 -0.388274 -0.044205 -0.000805 -0.043611 0.000046
    15 1.435262 -0.000001 -0.000001 0.272733 -0.008065 0.399315
    16 1.482593 -0.000001 0.000001 0.096344 -0.092317 0.394807
    17 -2.869899 1.399667 -4.140396 -1.977196 0.836232 -5.628099
    18 4.972047 0.000000 0.000000 1.252069 -0.318556 -1.660274
    19 11.585358 0.000000 0.000001 -0.230242 -0.734245 -0.138266
    20 10.127058 0.000000 0.000001 1.192485 -0.133241 0.210293
    21 1.537458 0.109715 1.664489 -0.264662 -0.055995 0.783079
    22 0.928313 0.000000 0.000002 0.000000 0.000000 -0.453501
    23 0.928311 0.000000 0.000001 0.000000 0.000000 0.000000
    24 2.686395 -0.427337 0.044204 -0.005762 0.043239 -0.157074
    25 1.435260 0.000000 0.000001 0.012033 -0.011913 0.044202
    26 1.482593 0.000000 -0.000001 0.000000 0.000000 1.168644
    27 2.046984 0.000001 0.000000 0.265606 -0.161856 -0.235659
    28 -0.000005 0.000007 3.713254 -0.099865 -3.047848 5.708602
    29 18.045723 0.000000 0.000000 0.000000 0.000000 -0.413544
    30 17.597597 0.000000 0.000000 -0.057202 -0.016721 -0.162308
    31 0.000005 -0.000003 -3.713254 0.807612 2.831522 6.175187
    32 18.045721 0.000000 0.000000 0.000000 0.000000 -0.782250
    33 17.597597 0.000000 0.000000 0.178693 0.125253 0.485308
  time 4
    0 0.254879 -0.281108 0.368674 0.000000 0.000000 -1.571017
    1 -3.382920 0.207038 0.000000 -1.570795 -1.570787 0.000000
    2 1.293670 0.684478 -0.000001 -0.000004 -0.000001 0.034347
    3 5.309685 -0.003834 0.000000 0.000000 0.000000 0.072714
    4 4.826790 -0.004591 0.000000 -0.166920 0.050875 0.049663
    5 5.792767 -0.005304 0.000000 -0.140952 0.016179 0.147294
    6 6.662322 -0.001452 0.000000 0.000000 -0.000001 0.471000
    7 -3.108188 1.516823 4.339626 -0.319099 -1.169628 -3.373885
    8 4.827512 0.000000 -0.000002 0.618121 0.818024 -0.348275
    9 11.140032 0.000000 0.000000 0.084149 -0.308275 -0.394481
    10 10.314563 -0.000001 0.000001 1.017357 -0.623670 -0.612786
    11 1.646836 0.445664 -1.699647 0.325979 0.616202 0.091573
    12 0.928312 0.000000 0.000000 0.000000 0.000000 0.000000
    13 0.928313 0.000000 -0.000001 0.000000 0.000000 0.000000
    14 2.979373 -0.388274 -0.044205 -0.000805 -0.043611 0.000046
    15 1.435262 -0.000001 -0.000001 0.272733 -0.008065 0.399315
    16 1.482593 -0.000001 0.000001 0.096344 -0.092317 0.394807
    17 -2.869899 1.399667 -4.140396 -1.999742 0.881714 -5.649841
    18 4.972047 0.000000 0.000000 1.157051 -0.349732 -1.578810
    19 11.585358 0.000000 0.000001 -0.134469 -0.743503 -0.331030
    20 10.127058 0.000000 0.000001 1.264012 -0.122082 0.207942
    21 1.537458 0.109715 1.664489 -0.264662 -0.055995 0.783079
    22 0.928313 0.000000 0.000002 0.000000 0.000000 -0.453501
    23 0.928311 0.000000 0.000001 0.000000 0.000000 0.000000
    24 2.686395 -0.427337 0.044204 -0.005762 0.043239 -0.157074
    25 1.435260 0.000000 0.000001 0.012033 -0.011913 0.044202
    26 1.482593 0.000000 -0.000001 0.000000 0.000000 1.168644
    27 2.046984 0.000001 0.000000 0.265606 -0.161856 -0.235659
    28 -0.000005 0.000007 3.713254 -0.099865 -3.047848 5.708602
    29 18.045723 0.000000 0.000000 0.000000 0.000000 -0.413544
    30 17.597597 0.000000 0.000000 -0.057202 -0.016721 -0.162308
    31 0.000005 -0.000003 -3.713254 0.807612 2.831522 6.175187
    32 18.045721 0.000000 0.000000 0.000000 0.000000 -0.782250
    33 17.597597 0.000000 0.000000 0.178693 0.125253 0.485308
  time 5
    0 0.254879 -0.281108 0.368674 0.000000 0.000000 -1.571017
    1 -3.382920 0.207038 0.000000 -1.570795 -1.570787 0.000000
    2 1.293670 0.684478 -0.000001 -0.000004 -0.000001 0.034347
    3 5.309685 -0.003834 0.000000 0.000000 0.000000 0.054168
    4 4.826790 -0.004591 0.000000 -0.166920 0.050875 0.032245
    5 5.792767 -0.005304 0.000000 -0.139837 0.020422 0.122338
    6 6.662322 -0.001452 0.000000 0.000000 -0.000001 0.471000
    7 -3.108188 1.516823 4.339626 -0.229764 -1.162443 -3.455618
    8 4.827512 0.000000 -0.000002 0.578821 0.737611 -0.468286
    9 11.140032 0.000000 0.000000 0.033304 -0.305529 -0.451357
    10 10.314563 -0.000001 0.000001 1.078108 -0.508266 -0.506414
    11 1.646836 0.445664 -1.699647 0.325979 0.616202 0.091573
    12 0.928312 0.000000 0.000000 0.000000 0.000000 0.000000
    13 0.928313 0.000000 -0.000001 0.000000 0.000000 0.000000
    14 2.979373 -0.388274 -0.044205 -0.000805 -0.043611 0.000046
    15 1.435262 -0.000001 -0.000001 0.272733 -0.008065 0.399315
    16 1.482593 -0.000001 0.000001 0.096344 -0.092317 0.394807
    17 -2.869899 1.399667 -4.140396 -2.027064 0.936688 -5.675893
    18 4.972047 0.000000 0.000000 1.042336 -0.387255 -1.480375
    19 11.585358 0.000000 0.000001 -0.025919 -0.737241 -0.549524
    20 10.127058 0.000000 0.000001 1.364990 -0.094470 0.235453
    21 1.537458 0.109715 1.664489 -0.264662 -0.055995 0.783079
    22 0.928313 0.000000 0.000002 0.000000 0.000000 -0.453501
    23 0.928311 0.000000 0.000001 0.000000 0.000000 0.000000
    24 2.686395 -0.427337 0.044204 -0.005762 0.043239 -0.157074
    25 1.435260 0.000000 0.000001 0.012033 -0.011913 0.044202
    26 1.482593 0.000000 -0.000001 0.000000 0.000000 1.168644
    27 2.046984 0.000001 0.000000 0.265606 -0.161856 -0.235659
    28 -0.000005 0.000007 3.713254 -0.099865 -3.047848 5.708602
    29 18.045723 0.000000 0.000000 0.000000 0.000000 -0.413544
    30 17.597597 0.000000 0.000000 -0.057202 -0.016721 -0.162308
    31 0.000005 -0.000003 -3.713254 0.807612 2.831522 6.175187
    32 18.045721 0.000000 0.000000 0.000000 0.000000 -0.782250
    33 17.597597 0.000000 0.000000 0.178693 0.125253 0.485308
  time 6
    0 0.254879 -0.281108 0.368674 0.000000 0.000000 -1.571017
    1 -3.382920 0.207038 0.000000 -1.570795 -1.570787 0.000000
    2 1.293670 0.684478 -0.000001 -0.000004 -0.000001 0.034347
    3 5.309685 -0.003834 0.000000 0.000000 0.000000 0.032954
    4 4.826790 -0.004591 0.000000 -0.166920 0.050875 0.012335
    5 5.792767 -0.005304 0.000000 -0.138559 0.025252 0.093809
    6 6.662322 -0.001452 0.000000 0.000000 -0.000001 0.471000
    7 -3.108188 1.516823 4.339626 -0.127584 -1.154193 -3.549232
    8 4.827512 0.000000 -0.000002 0.514888 0.689772 -0.594363
    9 11.140032 0.000000 0.000000 -0.013297 -0.302733 -0.513449
    10 10.314563 -0.000001 0.000001 1.203592 -0.323450 -0.405965
    11 1.646836 0.445664 -1.699647 0.325979 0.616202 0.091573
    12 0.928312 0.000000 0.000000 0.000000 0.000000 0.000000
    13 0.928313 0.000000 -0.000001 0.000000 0.000000 0.000000
    14 2.979373 -0.388274 -0.044205 -0.000805 -0.043611 0.000046
    15 1.435262 -0.000001 -0.000001 0.272733 -0.008065 0.399315
    16 1.482593 -0.000001 0.000001 0.096344 -0.092317 0.394807
    17 -2.869899 1.399667 -4.140396 -2.058494 0.999548 -5.705777
    18 4.972047 0.000000 0.000000 0.911018 -0.430322 -1.367763
    19 11.585358 0.000000 0.000001 0.100981 -0.718884 -0.804855
    20 10.127058 0.000000 0.000001 1.479923 -0.060332 0.286575
    21 1.537458 0.109715 1.664489 -0.264662 -0.055995 0.783079
    22 0.928313 0.000000 0.000002 0.000000 0.000000 -0.453501
    23 0.928311 0.000000 0.000001 0.000000 0.000000 0.000000
    24 2.686395 -0.427337 0.044204 -0.005762 0.043239 -0.157074
    25 1.435260 0.000000 0.000001 0.012033 -0.011913 0.044202
    26 1.482593 0.000000 -0.000001 0.000000 0.000000 1.168644
    27 2.046984 0.000001 0.000000 0.265606 -0.161856 -0.235659
    28 -0.000005 0.000007 3.713254 -0.099865 -3.047848 5.708602
    29 18.045723 0.000000 0.000000 0.000000 0.000000 -0.413544
    30 17.597597 0.000000 0.000000 -0.057202 -0.016721 -0.162308
    31 0.000005 -0.000003 -3.713254 0.807612 2.831522 6.175187
    32 18.045721 0.000000 0.000000 0.000000 0.000000 -0.782250
    33 17.597597 0.000000 0.000000 0.178693 0.125253 0.485308
  time 7
    0 0.254879 -0.281108 0.368674 0.000000 0.000000 -1.571017
    1 -3.382920 0.207038 0.000000 -1.570795 -1.570787 0.000000
    2 1.293670 0.684478 -0.000001 -0.000004 -0.000001 0.034347
    3 5.309685 -0.003834 0.000000 0.000000 0.000000 0.009585
    4 4.826790 -0.004591 0.000000 -0.166920 0.050875 -0.009581
    5 5.792767 -0.005304 0.000000 -0.137174 0.030561 0.062395
    6 6.662322 -0.001452 0.000000 0.000000 -0.000001 0.471000
    7 -3.108188 1.516823 4.339626 -0.015244 -1.145115 -3.651949
    8 4.827512 0.000000 -0.000002 0.474312 0.681330 -0.662643
    9 11.140032 0.000000 0.000000 -0.050096 -0.312444 -0.551922
    10 10.314563 -0.000001 0.000001 1.360447 -0.186408 -0.338785
    11 1.646836 0.445664 -1.699647 0.325979 0.616202 0.091573
    12 0.928312 0.000000 0.000000 0.000000 0.000000 0.000000
    13 0.928313 0.000000 -0.000001 0.000000 0.000000 0.000000
    14 2.979373 -0.388274 -0.044205 -0.000805 -0.043611 0.000046
    15 1.435262 -0.000001 -0.000001 0.272733 -0.008065 0.399315
    16 1.482593 -0.000001 0.000001 0.096344 -0.092317 0.394807
    17 -2.869899 1.399667 -4.140396 -2.092885 1.068745 -5.738629
    18 4.972047 0.000000 0.000000 0.766568 -0.477728 -1.243837
    19 11.585358 0.000000 0.000001 0.206382 -0.688888 -1.038950
    20 10.127058 0.000000 0.000001 1.598643 -0.021182 0.314087
    21 1.537458 0.109715 1.664489 -0.264662 -0.055995 0.783079
    22 0.928313 0.000000 0.000002 0.000000 0.000000 -0.453501
    23 0.928311 0.000000 0.000001 0.000000 0.000000 0.000000
    24 2.686395 -0.427337 0.044204 -0.005762 0.043239 -0.157074
    25 1.435260 0.000000 0.000001 0.012033 -0.011913 0.044202
    26 1.482593 0.000000 -0.000001 0.000000 0.000000 1.168644
    27 2.046984 0.000001 0.000000 0.265606 -0.161856 -0.235659
    28 -0.000005 0.000007 3.713254 -0.099865 -3.047848 5.708602
    29 18.045723 0.000000 0.000000 0.000000 0.000000 -0.413544
    30 17.597597 0.000000 0.000000 -0.057202 -0.016721 -0.162308
    31 0.000005 -0.000003 -3.713254 0.807612 2.831522 6.175187
    32 18.045721 0.000000 0.000000 0.000000 0.000000 -0.782250
    33 17.597597 0.000000 0.000000 0.178693 0.125253 0.485308
  time 8
    0 0.254879 -0.281108 0.368674 0.000000 0.000000 -1.571017
    1 -3.382920 0.207038 0.000000 -1.570795 -1.570787 0.000000
    2 1.293670 0.684478 -0.000001 -0.000004 -0.000001 0.034347
    3 5.309685 -0.003834 0.000000 0.000000 0.000000 -0.015356
    4 4.826790 -0.004591 0.000000 -0.166920 0.050875 -0.032996
    5 5.792767 -0.005304 0.000000 -0.135681 0.036229 0.028864
    6 6.662322 -0.001452 0.000000 0.000000 -0.000001 0.471000
    7 -3.108188 1.516823 4.339626 0.104860 -1.135446 -3.761949
    8 4.827512 0.000000 -0.000002 0.420902 0.676896 -0.746954
    9 11.140032 0.000000 0.000000 -0.101472 -0.328946 -0.568586
    10 10.314563 -0.000001 0.000001 1.535688 -0.068849 -0.309521
    11 1.646836 0.445664 -1.699647 0.325979 0.616202 0.091573
    12 0.928312 0.000000 0.000000 0.000000 0.000000 0.000000
    13 0.928313 0.000000 -0.000001 0.000000 0.000000 0.000000
    14 2.979373 -0.388274 -0.044205 -0.000805 -0.043611 0.000046
    15 1.435262 -0.000001 -0.000001 0.272733 -0.008065 0.399315
    16 1.482593 -0.000001 0.000001 0.096344 -0.092317 0.394807
    17 -2.869899 1.399667 -4.140396 -2.129569 1.142647 -5.773876
    18 4.972047 0.000000 0.000000 0.612270 -0.528268 -1.111459
    19 11.585358 0.000000 0.000001 0.250408 -0.647820 -1.193815
    20 10.127058 0.000000 0.000001 1.733491 0.041703 0.288626
    21 1.537458 0.109715 1.664489 -0.264662 -0.055995 0.783079
    22 0.928313 0.000000 0.000002 0.000000 0.000000 -0.453501
    23 0.928311 0.000000 0.000001 0.000000 0.000000 0.000000
    24 2.686395 -0.427337 0.044204 -0.005762 0.043239 -0.157074
    25 1.435260 0.000000 0.000001 0.012033 -0.011913 0.044202
    26 1.482593 0.000000 -0.000001 0.000000 0.000000 1.168644
    27 2.046984 0.000001 0.000000 0.265606 -0.161856 -0.235659
    28 -0.000005 0.000007 3.713254 -0.099865 -3.047848 5.708602
    29 18.045723 0.000000 0.000000 0.000000 0.000000 -0.413544
    30 17.597597 0.000000 0.000000 -0.057202 -0.016721 -0.162308
    31 0.000005 -0.000003 -3.713254 0.807612 2.831522 6.175187
    32 18.045721 0.000000 0.000000 0.000000 0.000000 -0.782250
    33 17.597597 0.000000 0.000000 0.178693 0.125253 0.485308
  time 9
    0 0.254879 -0.281108 0.368674 0.000000 0.000000 -1.571017
    1 -3.382920 0.207038 0.000000 -1.570795 -1.570787 0.000000
    2 1.293670 0.684478 -0.000001 -0.000004 -0.000001 0.034347
    3 5.309685 -0.003834 0.000000 0.000000 0.000000 -0.041357
    4 4.826790 -0.004591 0.000000 -0.166920 0.050875 -0.057426
    5 5.792767 -0.005304 0.000000 -0.134153 0.042162 -0.006101
    6 6.662322 -0.001452 0.000000 0.000000 -0.000001 0.471000
    7 -3.108188 1.516823 4.339626 0.230139 -1.125333 -3.876643
    8 4.827512 0.000000 -0.000002 0.324125 0.661291 -0.934725
    9 11.140032 0.000000 0.000000 -0.227383 -0.343826 -0.448531
    10 10.314563 -0.000001 0.000001 -4.570938 0.016299 -0.324560
    11 1.646836 0.445664 -1.699647 0.325979 0.616202 0.091573
    12 0.928312 0.000000 0.000000 0.000000 0.000000 0.000000
    13 0.928313 0.000000 -0.000001 0.000000 0.000000 0.000000
    14 2.979373 -0.388274 -0.044205 -0.000805 -0.043611 0.000046
    15 1.435262 -0.000001 -0.000001 0.272733 -0.008065 0.399315
    16 1.482593 -0.000001 0.000001 0.096344 -0.092317 0.394807
    17 -2.869899 1.399667 -4.140396 -2.167973 1.219704 -5.810464
    18 4.972047 0.000000 0.000000 0.451405 -0.580977 -0.973489
    19 11.585358 0.000000 0.000001 0.245472 -0.596019 -1.287828
    20 10.127058 0.000000 0.000001 1.841763 0.180334 0.149266
    21 1.537458 0.109715 1.664489 -0.264662 -0.055995 0.783079
    22 0.928313 0.000000 0.000002 0.000000 0.000000 -0.453501
    23 0.928311 0.000000 0.000001 0.000000 0.000000 0.000000
    24 2.686395 -0.427337 0.044204 -0.005762 0.043239 -0.157074
    25 1.435260 0.000000 0.000001 0.012033 -0.011913 0.044202
    26 1.482593 0.000000 -0.000001 0.000000 0.000000 1.168644
    27 2.046984 0.000001 0.000000 0.265606 -0.161856 -0.235659
    28 -0.000005 0.000007 3.713254 -0.099865 -3.047848 5.708602
    29 18.045723 0.000000 0.000000 0.000000 0.000000 -0.413544
    30 17.597597 0.000000 0.000000 -0.057202 -0.016721 -0.162308
    31 0.000005 -0.000003 -3.713254 0.807612 2.831522 6.175187
    32 18.045721 0.000000 0.000000 0.000000 0.000000 -0.782250
    33 17.597597 0.000000 0.000000 0.178693 0.125253 0.485308
  time 10
    0 0.254879 -0.281108 0.368674 0.000000 0.000000 -1.571017
    1 -3.382920 0.207038 0.000000 -1.570795 -1.570787 0.000000
    2 1.293670 0.684478 -0.000001 -0.000004 -0.000001 0.034347
    3 5.309685 -0.003834 0.000000 0.000000 0.000000 -0.067923
    4 4.826790 -0.004591 0.000000 -0.166920 0.050875 -0.082340
    5 5.792767 -0.005304 0.000000 -0.132570 0.048190 -0.041813
    6 6.662322 -0.001452 0.000000 0.000000 -0.000001 0.471000
    7 -3.108188 1.516823 4.339626 0.357912 -1.115014 -3.993637
    8 4.827512 0.000000 -0.000002 0.214674 0.650632 -1.119897
    9 11.140032 0.000000 0.000000 -0.315496 -0.357083 -0.328548
    10 10.314563 -0.000001 0.000001 -4.413610 0.074750 -0.339540
    11 1.646836 0.445664 -1.699647 0.325979 0.616202 0.091573
    12 0.928312 0.000000 0.000000 0.000000 0.000000 0.000000
    13 0.928313 0.000000 -0.000001 0.000000 0.000000 0.000000
    14 2.979373 -0.388274 -0.044205 -0.000805 -0.043611 0.000046
    15 1.435262 -0.000001 -0.000001 0.272733 -0.008065 0.399315
    16 1.482593 -0.000001 0.000001 0.096344 -0.092317 0.394807
    17 -2.869899 1.399667 -4.140396 -2.207046 1.298365 -5.847914
    18 4.972047 0.000000 0.000000 0.287164 -0.634892 -0.832658
    19 11.585358 0.000000 0.000001 0.231846 -0.535278 -1.377022
    20 10.127058 0.000000 0.000001 1.976681 0.307617 0.054876
    21 1.537458 0.109715 1.664489 -0.264662 -0.055995 0.783079
    22 0.928313 0.000000 0.000002 0.000000 0.000000 -0.453501
    23 0.928311 0.000000 0.000001 0.000000 0.000000 0.000000
    24 2.686395 -0.427337 0.044204 -0.005762 0.043239 -0.157074
    25 1.435260 0.000000 0.000001 0.012033 -0.011913 0.044202
    26 1.482593 0.000000 -0.000001 0.000000 0.000000 1.168644
    27 2.046984 0.000001 0.000000 0.265606 -0.161856 -0.235659
    28 -0.000005 0.000007 3.713254 -0.099865 -3.047848 5.708602
    29 18.045723 0.000000 0.000000 0.000000 0.000000 -0.413544
    30 17.597597 0.000000 0.000000 -0.057202 -0.016721 -0.162308
    31 0.000005 -0.000003 -3.713254 0.807612 2.831522 6.175187
    32 18.045721 0.000000 0.000000 0.000000 0.000000 -0.782250
    33 17.597597 0.000000 0.000000 0.178693 0.125253 0.485308
  time 11
    0 0.254879 -0.281108 0.368674 0.000000 0.000000 -1.571017
    1 -3.382920 0.207038 0.000000 -1.570795 -1.570787 0.000000
    2 1.293670 0.684478 -0.000001 -0.000004 -0.000001 0.034347
    3 5.309685 -0.003834 0.000000 0.000000 0.000000 -0.094419
    4 4.826790 -0.004591 0.000000 -0.166920 0.050875 -0.107233
    5 5.792767 -0.005304 0.000000 -0.131005 0.054230 -0.077483
    6 6.662322 -0.001452 0.000000 0.000000 -0.000001 0.471000
    7 -3.108188 1.516823 4.339626 0.485684 -1.104694 -4.110631
    8 4.827512 0.000000 -0.000002 0.104505 0.650632 -1.216859
    9 11.140032 0.000000 0.000000 -0.260000 -0.366395 -0.374556
    10 10.314563 -0.000001 0.000001 -4.308124 0.106412 -0.299418
    11 1.646836 0.445664 -1.699647 0.325979 0.616202 0.091573
    12 0.928312 0.000000 0.000000 0.000000 0.000000 0.000000
    13 0.928313 0.000000 -0.000001 0.000000 0.000000 0.000000
    14 2.979373 -0.388274 -0.044205 -0.000805 -0.043611 0.000046
    15 1.435262 -0.000001 -0.000001 0.272733 -0.008065 0.399315
    16 1.482593 -0.000001 0.000001 0.096344 -0.092317 0.394807
    17 -2.869899 1.399667 -4.140396 -2.246214 1.376947 -5.885269
    18 4.972047 0.000000 0.000000 0.123016 -0.688726 -0.691827
    19 11.585358 0.000000 0.000001 0.211287 -0.468184 -1.461071
    20 10.127058 0.000000 0.000001 2.077379 0.425539 -0.032662
    21 1.537458 0.109715 1.664489 -0.264662 -0.055995 0.783079
    22 0.928313 0.000000 0.000002 0.000000 0.000000 -0.453501
    23 0.928311 0.000000 0.000001 0.000000 0.000000 0.000000
    24 2.686395 -0.427337 0.044204 -0.005762 0.043239 -0.157074
    25 1.435260 0.000000 0.000001 0.012033 -0.011913 0.044202
    26 1.482593 0.000000 -0.000001 0.000000 0.000000 1.168644
    27 2.046984 0.000001 0.000000 0.265606 -0.161856 -0.235659
    28 -0.000005 0.000007 3.713254 -0.099865 -3.047848 5.708602
    29 18.045723 0.000000 0.000000 0.000000 0.000000 -0.413544
    30 17.597597 0.000000 0.000000 -0.057202 -0.016721 -0.162308
    31 0.000005 -0.000003 -3.713254 0.807612 2.831522 6.175187
    32 18.045721 0.000000 0.000000 0.000000 0.000000 -0.782250
    33 17.597597 0.000000 0.000000 0.178693 0.125253 0.485308
  time 12
    0 0.254879 -0.281108 0.368674 0.000000 0.000000 -1.571017
    1 -3.382920 0.207038 0.000000 -1.570795 -1.570787 0.000000
    2 1.293670 0.684478 -0.000001 -0.000004 -0.000001 0.034347
    3 5.309685 -0.003834 0.000000 0.000000 0.000000 -0.120455
    4 4.826790 -0.004591 0.000000 -0.166920 0.050875 -0.131640
    5 5.792767 -0.005304 0.000000 -0.129458 0.060163 -0.112469
    6 6.662322 -0.001452 0.000000 0.000000 -0.000001 0.471000
    7 -3.108188 1.516823 4.339626 0.611060 -1.094581 -4.225326
    8 4.827512 0.000000 -0.000002 0.018092 0.650717 -1.250913
    9 11.140032 0.000000 0.000000 -0.194548 -0.370489 -0.453748
    10 10.314563 -0.000001 0.000001 -4.234009 0.115030 -0.259239
    11 1.646836 0.445664 -1.699647 0.325979 0.616202 0.091573
    12 0.928312 0.000000 0.000000 0.000000 0.000000 0.000000
    13 0.928313 0.000000 -0.000001 0.000000 0.000000 0.000000
    14 2.979373 -0.388274 -0.044205 -0.000805 -0.043611 0.000046
    15 1.435262 -0.000001 -0.000001 0.272733 -0.008065 0.399315
    16 1.482593 -0.000001 0.000001 0.096344 -0.092317 0.394807
    17 -2.869899 1.399667 -4.140396 -2.284522 1.454031 -5.921857
    18 4.972047 0.000000 0.000000 -0.037942 -0.741355 -0.553791
    19 11.585358 0.000000 0.000001 0.185489 -0.397255 -1.539075
    20 10.127058 0.000000 0.000001 2.094069 0.508471 -0.131004
    21 1.537458 0.109715 1.664489 -0.264662 -0.055995 0.783079
    22 0.928313 0.000000 0.000002 0.000000 0.000000 -0.453501
    23 0.928311 0.000000 0.000001 0.000000 0.000000 0.000000
    24 2.686395 -0.427337 0.044204 -0.005762 0.043239 -0.157074
    25 1.435260 0.000000 0.000001 0.012033 -0.011913 0.044202
    26 1.482593 0.000000 -0.000001 0.000000 0.000000 1.168644
    27 2.046984 0.000001 0.000000 0.265606 -0.161856 -0.235659
    28 -0.000005 0.000007 3.713254 -0.099865 -3.047848 5.708602
    29 18.045723 0.000000 0.000000 0.000000 0.000000 -0.413544
    30 17.597597 0.000000 0.000000 -0.057202 -0.016721 -0.162308
    31 0.000005 -0.000003 -3.713254 0.807612 2.831522 6.175187
    32 18.045721 0.000000 0.000000 0.000000 0.000000 -0.782250
    33 17.597597 0.000000 0.000000 0.178693 0.125253 0.485308
  time 13
    0 0.254879 -0.281108 0.368674 0.000000 0.000000 -1.571017
    1 -3.382920 0.207038 0.000000 -1.570795 -1.570787 0.000000
    2 1.293670 0.684478 -0.000001 -0.000004 -0.000001 0.034347
    3 5.309685 -0.003834 0.000000 0.000000 0.000000 -0.145414
    4 4.826790 -0.004591 0.000000 -0.166920 0.050875 -0.155055
    5 5.792767 -0.005304 0.000000 -0.127965 0.065831 -0.146021
    6 6.662322 -0.001452 0.000000 0.000000 -0.000001 0.471000
    7 -3.108188 1.516823 4.339626 0.731163 -1.084912 -4.335229
    8 4.827512 0.000000 -0.000002 -0.027108 0.652934 -1.239215
    9 11.140032 0.000000 0.000000 -0.178598 -0.355310 -0.527143
    10 10.314563 -0.000001 0.000001 -4.171362 0.114561 -0.264348
    11 1.646836 0.445664 -1.699647 0.325979 0.616202 0.091573
    12 0.928312 0.000000 0.000000 0.000000 0.000000 0.000000
    13 0.928313 0.000000 -0.000001 0.000000 0.000000 0.000000
    14 2.979373 -0.388274 -0.044205 -0.000805 -0.043611 0.000046
    15 1.435262 -0.000001 -0.000001 0.272733 -0.008065 0.399315
    16 1.482593 -0.000001 0.000001 0.096344 -0.092317 0.394807
    17 -2.869899 1.399667 -4.140396 -2.321302 1.527933 -5.957104
    18 4.972047 0.000000 0.000000 -0.192053 -0.791975 -0.421413
    19 11.585358 0.000000 0.000001 0.156209 -0.325056 -1.610463
    20 10.127058 0.000000 0.000001 2.060550 0.505918 -0.150663
    21 1.537458 0.109715 1.664489 -0.264662 -0.055995 0.783079
    22 0.928313 0.000000 0.000002 0.000000 0.000000 -0.453501
    23 0.928311 0.000000 0.000001 0.000000 0.000000 0.000000
    24 2.686395 -0.427337 0.044204 -0.005762 0.043239 -0.157074
    25 1.435260 0.000000 0.000001 0.012033 -0.011913 0.044202
    26 1.482593 0.000000 -0.000001 0.000000 0.000000 1.168644
    27 2.046984 0.000001 0.000000 0.265606 -0.161856 -0.235659
    28 -0.000005 0.000007 3.713254 -0.099865 -3.047848 5.708602
    29 18.045723 0.000000 0.000000 0.000000 0.000000 -0.413544
    30 17.597597 0.000000 0.000000 -0.057202 -0.016721 -0.162308
    31 0.000005 -0.000003 -3.713254 0.807612 2.831522 6.175187
    32 18.045721 0.000000 0.000000 0.000000 0.000000 -0.782250
    33 17.597597 0.000000 0.000000 0.178693 0.125253 0.485308
  time 14
    0 0.254879 -0.281108 0.368674 0.000000 0.000000 -1.571017
    1 -3.382920 0.207038 0.000000 -1.570795 -1.570787 0.000000
    2 1.293670 0.684478 -0.000001 -0.000004 -0.000001 0.034347
    3 5.309685 -0.003834 0.000000 0.000000 0.000000 -0.168765
    4 4.826790 -0.004591 0.000000 -0.166920 0.050875 -0.176971
    5 5.792767 -0.005304 0.000000 -0.126580 0.071153 -0.177435
    6 6.662322 -0.001452 0.000000 0.000000 -0.000001 0.471000
    7 -3.108188 1.516823 4.339626 0.843599 -1.075835 -4.438234
    8 4.827512 0.000000 -0.000002 -0.059473 0.658306 -1.211573
    9 11.140032 0.000000 0.000000 -0.169453 -0.320358 -0.605610
    10 10.314563 -0.000001 0.000001 -4.114685 0.113250 -0.276425
    11 1.646836 0.445664 -1.699647 0.325979 0.616202 0.091573
    12 0.928312 0.000000 0.000000 0.000000 0.000000 0.000000
    13 0.928313 0.000000 -0.000001 0.000000 0.000000 0.000000
    14 2.979373 -0.388274 -0.044205 -0.000805 -0.043611 0.000046
    15 1.435262 -0.000001 -0.000001 0.272733 -0.008065 0.399315
    16 1.482593 -0.000001 0.000001 0.096344 -0.092317 0.394807
    17 -2.869899 1.399667 -4.140396 0.785680 1.544444 -2.848461
    18 4.972047 0.000000 0.000000 -0.336409 -0.839381 -0.297487
    19 11.585358 0.000000 0.000001 0.125204 -0.254218 -1.674500
    20 10.127058 0.000000 0.000001 2.003679 0.495138 -0.154765
    21 1.537458 0.109715 1.664489 -0.264662 -0.055995 0.783079
    22 0.928313 0.000000 0.000002 0.000000 0.000000 -0.453501
    23 0.928311 0.000000 0.000001 0.000000 0.000000 0.000000
    24 2.686395 -0.427337 0.044204 -0.005762 0.043239 -0.157074
    25 1.435260 0.000000 0.000001 0.012033 -0.011913 0.044202
    26 1.482593 0.000000 -0.000001 0.000000 0.000000 1.168644
    27 2.046984 0.000001 0.000000 0.265606 -0.161856 -0.235659
    28 -0.000005 0.000007 3.713254 -0.099865 -3.047848 5.708602
    29 18.045723 0.000000 0.000000 0.000000 0.000000 -0.413544
    30 17.597597 0.000000 0.000000 -0.057202 -0.016721 -0.162308
    31 0.000005 -0.000003 -3.713254 0.807612 2.831522 6.175187
    32 18.045721 0.000000 0.000000 0.000000 0.000000 -0.782250
    33 17.597597 0.000000 0.000000 0.178693 0.125253 0.485308
  time 15
    0 0.254879 -0.281108 0.368674 0.000000 0.000000 -1.571017
    1 -3.382920 0.207038 0.000000 -1.570795 -1.570787 0.000000
    2 1.293670 0.684478 -0.000001 -0.000004 -0.000001 0.034347
    3 5.309685 -0.003834 0.000000 0.000000 0.000000 -0.189997
    4 4.826790 -0.004591 0.000000 -0.166920 0.050875 -0.196903
    5 5.792767 -0.005304 0.000000 -0.125321 0.075970 -0.205963
    6 6.662322 -0.001452 0.000000 0.000000 -0.000001 0.471000
    7 -3.108188 1.516823 4.339626 0.945778 -1.067585 -4.531657
    8 4.827512 0.000000 -0.000002 -0.083467 0.665043 -1.179599
    9 11.140032 0.000000 0.000000 -0.165270 -0.281562 -0.676614
    10 10.314563 -0.000001 0.000001 -4.064264 0.110814 -0.290825
    11 1.646836 0.445664 -1.699647 0.325979 0.616202 0.091573
    12 0.928312 0.000000 0.000000 0.000000 0.000000 0.000000
    13 0.928313 0.000000 -0.000001 0.000000 0.000000 0.000000
    14 2.979373 -0.388274 -0.044205 -0.000805 -0.043611 0.000046
    15 1.435262 -0.000001 -0.000001 0.272733 -0.008065 0.399315
    16 1.482593 -0.000001 0.000001 0.096344 -0.092317 0.394807
    17 -2.869899 1.399667 -4.140396 0.754441 1.481583 -2.878344
    18 4.972047 0.000000 0.000000 -0.467727 -0.882368 -0.185008
    19 11.585358 0.000000 0.000001 0.094168 -0.187192 -1.730533
    20 10.127058 0.000000 0.000001 1.956205 0.469984 -0.111146
    21 1.537458 0.109715 1.664489 -0.264662 -0.055995 0.783079
    22 0.928313 0.000000 0.000002 0.000000 0.000000 -0.453501
    23 0.928311 0.000000 0.000001 0.000000 0.000000 0.000000
    24 2.686395 -0.427337 0.044204 -0.005762 0.043239 -0.157074
    25 1.435260 0.000000 0.000001 0.012033 -0.011913 0.044202
    26 1.482593 0.000000 -0.000001 0.000000 0.000000 1.168644
    27 2.046984 0.000001 0.000000 0.265606 -0.161856 -0.235659
    28 -0.000005 0.000007 3.713254 -0.099865 -3.047848 5.708602
    29 18.045723 0.000000 0.000000 0.000000 0.000000 -0.413544
    30 17.597597 0.000000 0.000000 -0.057202 -0.016721 -0.162308
    31 0.000005 -0.000003 -3.713254 0.807612 2.831522 6.175187
    32 18.045721 0.000000 0.000000 0.000000 0.000000 -0.782250
    33 17.597597 0.000000 0.000000 0.178693 0.125253 0.485308
  time 16
    0 0.254879 -0.281108 0.368674 0.000000 0.000000 -1.571017
    1 -3.382920 0.207038 0.000000 -1.570795 -1.570787 0.000000
    2 1.293670 0.684478 -0.000001 -0.000004 -0.000001 0.034347
    3 5.309685 -0.003834 0.000000 0.000000 0.000000 -0.208526
    4 4.826790 -0.004591 0.000000 -0.166920 0.050875 -0.214299
    5 5.792767 -0.005304 0.000000 -0.124187 0.080213 -0.230920
    6 6.662322 -0.001452 0.000000 0.000000 -0.000001 0.471000
    7 -3.108188 1.516823 4.339626 1.035114 -1.060399 -4.613486
    8 4.827512 0.000000 -0.000002 -0.103556 0.671353 -1.154644
    9 11.140032 0.000000 0.000000 -0.164271 -0.254874 -0.727114
    10 10.314563 -0.000001 0.000001 -4.020383 0.107348 -0.302844
    11 1.646836 0.445664 -1.699647 0.325979 0.616202 0.091573
    12 0.928312 0.000000 0.000000 0.000000 0.000000 0.000000
    13 0.928313 0.000000 -0.000001 0.000000 0.000000 0.000000
    14 2.979373 -0.388274 -0.044205 -0.000805 -0.043611 0.000046
    15 1.435262 -0.000001 -0.000001 0.272733 -0.008065 0.399315
    16 1.482593 -0.000001 0.000001 0.096344 -0.092317 0.394807
    17 -2.869899 1.399667 -4.140396 0.727023 1.426610 -2.904588
    18 4.972047 0.000000 0.000000 -0.582443 -0.920052 -0.086506
    19 11.585358 0.000000 0.000001 0.064888 -0.126610 -1.777907
    20 10.127058 0.000000 0.000001 1.908801 0.443033 -0.052721
    21 1.537458 0.109715 1.664489 -0.264662 -0.055995 0.783079
    22 0.928313 0.000000 0.000002 0.000000 0.000000 -0.453501
    23 0.928311 0.000000 0.000001 0.000000 0.000000 0.000000
    24 2.686395 -0.427337 0.044204 -0.005762 0.043239 -0.157074
    25 1.435260 0.000000 0.000001 0.012033 -0.011913 0.044202
    26 1.482593 0.000000 -0.000001 0.000000 0.000000 1.168644
    27 2.046984 0.000001 0.000000 0.265606 -0.161856 -0.235659
    28 -0.000005 0.000007 3.713254 -0.099865 -3.047848 5.708602
    29 18.045723 0.000000 0.000000 0.000000 0.000000 -0.413544
    30 17.597597 0.000000 0.000000 -0.057202 -0.016721 -0.162308
    31 0.000005 -0.000003 -3.713254 0.807612 2.831522 6.175187
    32 18.045721 0.000000 0.000000 0.000000 0.000000 -0.782250
    33 17.597597 0.000000 0.000000 0.178693 0.125253 0.485308
  time 17
    0 0.254879 -0.281108 0.368674 0.000000 0.000000 -1.571017
    1 -3.382920 0.207038 0.000000 -1.570795 -1.570787 0.000000
    2 1.293670 0.684478 -0.000001 -0.000004 -0.000001 0.034347
    3 5.309685 -0.003834 0.000000 0.000000 0.000000 -0.223911
    4 4.826790 -0.004591 0.000000 -0.166920 0.050875 -0.228719
    5 5.792767 -0.005304 0.000000 -0.123306 0.083688 -0.251579
    6 6.662322 -0.001452 0.000000 0.000000 -0.000001 0.471000
    7 -3.108188 1.516823 4.339626 1.109112 -1.054426 -4.681229
    8 4.827512 0.000000 -0.000002 -0.119978 0.678090 -1.137834
    9 11.140032 0.000000 0.000000 -0.165177 -0.243040 -0.754936
    10 10.314563 -0.000001 0.000001 -3.980387 0.101353 -0.312715
    11 1.646836 0.445664 -1.699647 0.325979 0.616202 0.091573
    12 0.928312 0.000000 0.000000 0.000000 0.000000 0.000000
    13 0.928313 0.000000 -0.000001 0.000000 0.000000 0.000000
    14 2.979373 -0.388274 -0.044205 -0.000805 -0.043611 0.000046
    15 1.435262 -0.000001 -0.000001 0.272733 -0.008065 0.399315
    16 1.482593 -0.000001 0.000001 0.096344 -0.092317 0.394807
    17 -2.869899 1.399667 -4.140396 0.704478 1.381101 -2.926139
    18 4.972047 0.000000 0.000000 -0.677460 -0.951147 -0.005042
    19 11.585358 0.000000 0.000001 0.039090 -0.075081 -1.815970
    20 10.127058 0.000000 0.000001 1.854596 0.421283 -0.024258
    21 1.537458 0.109715 1.664489 -0.264662 -0.055995 0.783079
    22 0.928313 0.000000 0.000002 0.000000 0.000000 -0.453501
    23 0.928311 0.000000 0.000001 0.000000 0.000000 0.000000
    24 2.686395 -0.427337 0.044204 -0.005762 0.043239 -0.157074
    25 1.435260 0.000000 0.000001 0.012033 -0.011913 0.044202
    26 1.482593 0.000000 -0.000001 0.000000 0.000000 1.168644
    27 2.046984 0.000001 0.000000 0.265606 -0.161856 -0.235659
    28 -0.000005 0.000007 3.713254 -0.099865 -3.047848 5.708602
    29 18.045723 0.000000 0.000000 0.000000 0.000000 -0.413544
    30 17.597597 0.000000 0.000000 -0.057202 -0.016721 -0.162308
    31 0.000005 -0.000003 -3.713254 0.807612 2.831522 6.175187
    32 18.045721 0.000000 0.000000 0.000000 0.000000 -0.782250
    33 17.597597 0.000000 0.000000 0.178693 0.125253 0.485308
  time 18
    0 0.254879 -0.281108 0.368674 0.000000 0.000000 -1.571017
    1 -3.382920 0.207038 0.000000 -1.570795 -1.570787 0.000000
    2 1.293670 0.684478 -0.000001 -0.000004 -0.000001 0.034347
    3 5.309685 -0.003834 0.000000 0.000000 0.000000 -0.235516
    4 4.826790 -0.004591 0.000000 -0.166920 0.050875 -0.239633
    5 5.792767 -0.005304 0.000000 -0.122586 0.086349 -0.267214
    6 6.662322 -0.001452 0.000000 0.000000 -0.000001 0.471000
    7 -3.108188 1.516823 4.339626 1.165090 -1.049902 -4.732492
    8 4.827512 0.000000 -0.000002 -0.130740 0.685679 -1.123623
    9 11.140032 0.000000 0.000000 -0.167143 -0.236923 -0.769282
    10 10.314563 -0.000001 0.000001 -3.944846 0.093298 -0.322470
    11 1.646836 0.445664 -1.699647 0.325979 0.616202 0.091573
    12 0.928312 0.000000 0.000000 0.000000 0.000000 0.000000
    13 0.928313 0.000000 -0.000001 0.000000 0.000000 0.000000
    14 2.979373 -0.388274 -0.044205 -0.000805 -0.043611 0.000046
    15 1.435262 -0.000001 -0.000001 0.272733 -0.008065 0.399315
    16 1.482593 -0.000001 0.000001 0.096344 -0.092317 0.394807
    17 -2.869899 1.399667 -4.140396 0.687378 1.346661 -2.942421
    18 4.972047 0.000000 0.000000 -0.749404 -0.974770 0.056588
    19 11.585358 0.000000 0.000001 0.018531 -0.035079 -1.843904
    20 10.127058 0.000000 0.000001 1.795271 0.399250 0.000002
    21 1.537458 0.109715 1.664489 -0.264662 -0.055995 0.783079
    22 0.928313 0.000000 0.000002 0.000000 0.000000 -0.453501
    23 0.928311 0.000000 0.000001 0.000000 0.000000 0.000000
    24 2.686395 -0.427337 0.044204 -0.005762 0.043239 -0.157074
    25 1.435260 0.000000 0.000001 0.012033 -0.011913 0.044202
    26 1.482593 0.000000 -0.000001 0.000000 0.000000 1.168644
    27 2.046984 0.000001 0.000000 0.265606 -0.161856 -0.235659
    28 -0.000005 0.000007 3.713254 -0.099865 -3.047848 5.708602
    29 18.045723 0.000000 0.000000 0.000000 0.000000 -0.413544
    30 17.597597 0.000000 0.000000 -0.057202 -0.016721 -0.162308
    31 0.000005 -0.000003 -3.713254 0.807612 2.831522 6.175187
    32 18.045721 0.000000 0.000000 0.000000 0.000000 -0.782250
    33 17.597597 0.000000 0.000000 0.178693 0.125253 0.485308
  time 19
    0 0.254879 -0.281108 0.368674 0.000000 0.000000 -1.571017
    1 -3.382920 0.207038 0.000000 -1.570795 -1.570787 0.000000
    2 1.293670 0.684478 -0.000001 -0.000004 -0.000001 0.034347
    3 5.309685 -0.003834 0.000000 0.000000 0.000000 -0.242917
    4 4.826790 -0.004591 0.000000 -0.166920 0.050875 -0.246556
    5 5.792767 -0.005304 0.000000 -0.122173 0.088027 -0.277138
    6 6.662322 -0.001452 0.000000 0.000000 -0.000001 0.471000
    7 -3.108188 1.516823 4.339626 1.200556 -1.047034 -4.764974
    8 4.827512 0.000000 -0.000002 -0.136559 0.691904 -1.113832
    9 11.140032 0.000000 0.000000 -0.169141 -0.234651 -0.774644
    10 10.314563 -0.000001 0.000001 -3.919541 0.086178 -0.329902
    11 1.646836 0.445664 -1.699647 0.325979 0.616202 0.091573
    12 0.928312 0.000000 0.000000 0.000000 0.000000 0.000000
    13 0.928313 0.000000 -0.000001 0.000000 0.000000 0.000000
    14 2.979373 -0.388274 -0.044205 -0.000805 -0.043611 0.000046
    15 1.435262 -0.000001 -0.000001 0.272733 -0.008065 0.399315
    16 1.482593 -0.000001 0.000001 0.096344 -0.092317 0.394807
    17 -2.869899 1.399667 -4.140396 0.676487 1.324813 -2.952861
    18 4.972047 0.000000 0.000000 -0.794990 -0.989715 0.095722
    19 11.585358 0.000000 0.000001 0.004905 -0.009167 -1.861221
    20 10.127058 0.000000 0.000001 1.747446 0.382323 0.016809
    21 1.537458 0.109715 1.664489 -0.264662 -0.055995 0.783079
    22 0.928313 0.000000 0.000002 0.000000 0.000000 -0.453501
    23 0.928311 0.000000 0.000001 0.000000 0.000000 0.000000
    24 2.686395 -0.427337 0.044204 -0.005762 0.043239 -0.157074
    25 1.435260 0.000000 0.000001 0.012033 -0.011913 0.044202
    26 1.482593 0.000000 -0.000001 0.000000 0.000000 1.168644
    27 2.046984 0.000001 0.000000 0.265606 -0.161856 -0.235659
    28 -0.000005 0.000007 3.713254 -0.099865 -3.047848 5.708602
    29 18.045723 0.000000 0.000000 0.000000 0.000000 -0.413544
    30 17.597597 0.000000 0.000000 -0.057202 -0.016721 -0.162308
    31 0.000005 -0.000003 -3.713254 0.807612 2.831522 6.175187
    32 18.045721 0.000000 0.000000 0.000000 0.000000 -0.782250
    33 17.597597 0.000000 0.000000 0.178693 0.125253 0.485308
  time 20
    0 0.254879 -0.281108 0.368674 0.000000 0.000000 -1.571017
    1 -3.382920 0.207038 0.000000 -1.570795 -1.570787 0.000000
    2 1.293670 0.684478 -0.000001 -0.000004 -0.000001 0.034347
    3 5.309685 -0.003834 0.000000 0.000000 0.000000 -0.245460
    4 4.826790 -0.004591 0.000000 -0.166920 0.050875 -0.248981
    5 5.792767 -0.005304 0.000000 -0.122011 0.088602 -0.280606
    6 6.662322 -0.001452 0.000000 0.000000 -0.000001 0.471000
    7 -3.108188 1.516823 4.339626 1.213017 -1.046029 -4.776281
    8 4.827512 0.000000 -0.000002 -0.138392 0.694462 -1.110192
    9 11.140032 0.000000 0.000000 -0.170046 -0.234327 -0.775513
    10 10.314563 -0.000001 0.000001 -3.909874 0.083181 -0.332921
    11 1.646836 0.445664 -1.699647 0.325979 0.616202 0.091573
    12 0.928312 0.000000 0.000000 0.000000 0.000000 0.000000
    13 0.928313 0.000000 -0.000001 0.000000 0.000000 0.000000
    14 2.979373 -0.388274 -0.044205 -0.000805 -0.043611 0.000046
    15 1.435262 -0.000001 -0.000001 0.272733 -0.008065 0.399315
    16 1.482593 -0.000001 0.000001 0.096344 -0.092317 0.394807
    17 -2.869899 1.399667 -4.140396 0.672666 1.317189 -2.956405
    18 4.972047 0.000000 0.000000 -0.810936 -0.994938 0.109300
    19 11.585358 0.000000 0.000001 0.000000 0.000000 -1.867102
    20 10.127058 0.000000 0.000001 1.727741 0.375420 0.023112
    21 1.537458 0.109715 1.664489 -0.264662 -0.055995 0.783079
    22 0.928313 0.000000 0.000002 0.000000 0.000000 -0.453501
    23 0.928311 0.000000 0.000001 0.000000 0.000000 0.000000
    24 2.686395 -0.427337 0.044204 -0.005762 0.043239 -0.157074
    25 1.435260 0.000000 0.000001 0.012033 -0.011913 0.044202
    26 1.482593 0.000000 -0.000001 0.000000 0.000000 1.168644
    27 2.046984 0.000001 0.000000 0.265606 -0.161856 -0.235659
    28 -0.000005 0.000007 3.713254 -0.099865 -3.047848 5.708602
    29 18.045723 0.000000 0.000000 0.000000 0.000000 -0.413544
    30 17.597597 0.000000 0.000000 -0.057202 -0.016721 -0.162308
    31 0.000005 -0.000003 -3.713254 0.807612 2.831522 6.175187
    32 18.045721 0.000000 0.000000 0.000000 0.000000 -0.782250
    33 17.597597 0.000000 0.000000 0.178693 0.125253 0.485308
end
