version 1
nodes
  0 "Bip01" -1
  1 "Bip01 Pelvis" 0
  2 "Bip01 Spine" 1
  3 "Bip01 Spine1" 2
  4 "Bip01 Spine2" 3
  5 "Bip01 Spine3" 4
  6 "Bip01 Neck" 5
  7 "Bip01 L Arm" 6
  8 "Bip01 L Arm1" 7
  9 "Bip01 L Arm2" 8
  10 "Bip01 L Hand" 9
  11 "Bip01 L Finger0" 10
  12 "Bip01 L Finger01" 11
  13 "Bip01 L Finger02" 12
  14 "Bip01 L Finger1" 10
  15 "Bip01 L Finger11" 14
  16 "Bip01 L Finger12" 15
  17 "Bip01 R Arm" 6
  18 "Bip01 R Arm1" 17
  19 "Bip01 R Arm2" 18
  20 "Bip01 R Hand" 19
  21 "Bip01 R Finger0" 20
  22 "Bip01 R Finger01" 21
  23 "Bip01 R Finger02" 22
  24 "Bip01 R Finger1" 20
  25 "Bip01 R Finger11" 24
  26 "Bip01 R Finger12" 25
  27 "Bip01 Head" 6
  28 "Bip01 L Leg" 1
  29 "Bip01 L Leg1" 28
  30 "Bip01 L Foot" 29
  31 "Bip01 R Leg" 1
  32 "Bip01 R Leg1" 31
  33 "Bip01 R Foot" 32
end
skeleton
  time 0
    0 0.383789 3.570572 -0.021963 0.034282 0.000000 -1.562181
    1 0.863304 0.000000 0.000000 -1.570795 -1.570787 0.000000
    2 1.293670 0.684478 -0.000001 -0.016512 -0.016144 0.074927
    3 5.309685 -0.003834 0.000000 0.008815 0.005573 -0.069760
    4 4.826790 -0.004591 0.000000 0.001183 -0.004003 0.093914
    5 5.792767 -0.005304 0.000000 -0.012358 0.000000 0.017444
    6 6.662322 -0.001452 0.000000 0.000000 -0.000001 0.471000
    7 -3.108188 1.516823 4.339626 -0.034415 -1.318154 -3.580277
    8 4.827512 0.000000 -0.000002 0.181432 1.193143 0.209407
    9 11.140032 0.000000 0.000000 0.021318 0.104656 -0.600393
    10 10.314563 -0.000001 0.000001 -1.589560 -0.012271 -0.040979
    11 1.646836 0.445664 -1.699647 0.153911 0.442352 0.277231
    12 0.928312 0.000000 0.000000 0.000000 0.000000 0.000000
    13 0.928313 0.000000 -0.000001 0.000000 0.000000 0.000000
    14 2.979373 -0.388274 -0.044205 -0.000805 -0.043611 0.000046
    15 1.435262 -0.000001 -0.000001 0.160677 0.467725 0.965801
    16 1.482593 -0.000001 0.000001 0.000000 0.000000 0.104659
    17 -2.869899 1.399667 -4.140396 -0.144227 1.315770 -3.752914
    18 4.972047 0.000000 0.000000 -0.251427 -1.185205 0.265705
    19 11.585358 0.000000 0.000001 -0.016684 -0.029973 -0.607925
    20 10.127058 0.000000 0.000001 1.569752 0.000000 -0.069778
    21 1.537458 0.109715 1.664489 -0.233165 -0.412999 0.435664
    22 0.928313 0.000000 0.000002 0.000000 0.000000 0.000000
    23 0.928311 0.000000 0.000001 0.000000 0.000000 0.000000
    24 2.686395 -0.427337 0.044204 0.001045 0.043611 0.000046
    25 1.435260 0.000000 0.000001 0.000000 0.000000 1.064075
    26 1.482593 0.000000 -0.000001 0.000000 0.000000 1.229759
    27 2.046984 0.000001 0.000000 0.002068 0.019443 -0.386210
    28 -0.000005 0.000007 3.713254 -0.117698 3.128104 5.943937
    29 18.045723 0.000000 0.000000 0.000000 0.000000 -0.855930
    30 17.597597 0.000000 0.000000 0.046412 0.009635 0.513248
    31 0.000005 -0.000003 -3.713254 0.070969 3.066971 5.683089
    32 18.045721 0.000000 0.000000 0.000000 0.000000 -1.446867
    33 17.597597 0.000000 0.000000 -0.044995 0.043716 0.120699
  time 1
    0 0.309568 -0.879230 0.231951 0.035408 -0.000285 -1.546695
    1 0.863304 0.000000 0.000000 -1.570795 -1.570787 0.000000
    2 1.293670 0.684478 -0.000001 -0.016512 -0.016144 0.074927
    3 5.309685 -0.003834 0.000000 0.008815 0.005573 -0.069760
    4 4.826790 -0.004591 0.000000 0.001183 -0.004003 0.093914
    5 5.792767 -0.005304 0.000000 -0.012358 0.000000 0.017444
    6 6.662322 -0.001452 0.000000 0.000000 -0.000001 0.471000
    7 -3.108188 1.516823 4.339626 0.107639 -1.304818 -3.717681
    8 4.827512 0.000000 -0.000002 0.052928 1.188964 0.070333
    9 11.140032 0.000000 0.000000 0.021318 0.104656 -0.600393
    10 10.314563 -0.000001 0.000001 -1.589560 -0.012271 -0.040979
    11 1.646836 0.445664 -1.699647 0.153911 0.442352 0.277231
    12 0.928312 0.000000 0.000000 0.000000 0.000000 0.000000
    13 0.928313 0.000000 -0.000001 0.000000 0.000000 0.000000
    14 2.979373 -0.388274 -0.044205 -0.000805 -0.043611 0.000046
    15 1.435262 -0.000001 -0.000001 0.160677 0.467725 0.965801
    16 1.482593 -0.000001 0.000001 0.000000 0.000000 0.104659
    17 -2.869899 1.399667 -4.140396 -0.017361 1.300547 -3.631847
    18 4.972047 0.000000 0.000000 -0.369801 -1.149852 0.394822
    19 11.585358 0.000000 0.000001 -0.016684 -0.029973 -0.607925
    20 10.127058 0.000000 0.000001 1.569752 0.000000 -0.069778
    21 1.537458 0.109715 1.664489 -0.233165 -0.412999 0.435664
    22 0.928313 0.000000 0.000002 0.000000 0.000000 0.000000
    23 0.928311 0.000000 0.000001 0.000000 0.000000 0.000000
    24 2.686395 -0.427337 0.044204 0.001045 0.043611 0.000046
    25 1.435260 0.000000 0.000001 0.000000 0.000000 1.064075
    26 1.482593 0.000000 -0.000001 0.000000 0.000000 1.229759
    27 2.046984 0.000001 0.000000 0.002068 0.019443 -0.386210
    28 -0.000005 0.000007 3.713254 -0.110220 3.128967 6.128562
    29 18.045723 0.000000 0.000000 0.000000 0.000000 -0.776660
    30 17.597597 0.000000 0.000000 0.063212 -0.009880 0.558637
    31 0.000005 -0.000003 -3.713254 0.135375 3.078475 5.586453
    32 18.045721 0.000000 0.000000 0.000000 0.000000 -0.835621
    33 17.597597 0.000000 0.000000 -0.095926 0.008214 0.002965
  time 2
    0 0.247067 -5.329032 0.450708 0.037002 -0.000950 -1.529593
    1 0.863304 0.000000 0.000000 -1.570795 -1.570787 0.000000
    2 1.293670 0.684478 -0.000001 -0.016512 -0.016144 0.074927
    3 5.309685 -0.003834 0.000000 0.008815 0.005573 -0.069760
    4 4.826790 -0.004591 0.000000 0.001183 -0.004003 0.093914
    5 5.792767 -0.005304 0.000000 -0.012358 0.000000 0.017444
    6 6.662322 -0.001452 0.000000 0.000000 -0.000001 0.471000
    7 -3.108188 1.516823 4.339626 0.419929 -1.275397 -4.020083
    8 4.827512 0.000000 -0.000002 -0.203601 1.165088 -0.208942
    9 11.140032 0.000000 0.000000 0.021318 0.104656 -0.600393
    10 10.314563 -0.000001 0.000001 -1.589560 -0.012271 -0.040979
    11 1.646836 0.445664 -1.699647 0.153911 0.442352 0.277231
    12 0.928312 0.000000 0.000000 0.000000 0.000000 0.000000
    13 0.928313 0.000000 -0.000001 0.000000 0.000000 0.000000
    14 2.979373 -0.388274 -0.044205 -0.000805 -0.043611 0.000046
    15 1.435262 -0.000001 -0.000001 0.160677 0.467725 0.965801
    16 1.482593 -0.000001 0.000001 0.000000 0.000000 0.104659
    17 -2.869899 1.399667 -4.140396 0.261974 1.267001 -3.365291
    18 4.972047 0.000000 0.000000 -0.533761 -1.063878 0.583240
    19 11.585358 0.000000 0.000001 -0.016684 -0.029973 -0.607925
    20 10.127058 0.000000 0.000001 1.569752 0.000000 -0.069778
    21 1.537458 0.109715 1.664489 -0.233165 -0.412999 0.435664
    22 0.928313 0.000000 0.000002 0.000000 0.000000 0.000000
    23 0.928311 0.000000 0.000001 0.000000 0.000000 0.000000
    24 2.686395 -0.427337 0.044204 0.001045 0.043611 0.000046
    25 1.435260 0.000000 0.000001 0.000000 0.000000 1.064075
    26 1.482593 0.000000 -0.000001 0.000000 0.000000 1.229759
    27 2.046984 0.000001 0.000000 0.002068 0.019443 -0.386210
    28 -0.000005 0.000007 3.713254 -0.101975 3.135678 0.009676
    29 18.045723 0.000000 0.000000 0.000000 0.000000 -0.705014
    30 17.597597 0.000000 0.000000 0.081634 -0.022259 0.486244
    31 0.000005 -0.000003 -3.713254 0.178791 3.083269 5.533245
    32 18.045721 0.000000 0.000000 0.000000 0.000000 -0.338201
    33 17.597597 0.000000 0.000000 -0.144341 0.026201 -0.085531
  time 3
    0 0.165033 -9.778835 0.556180 0.037378 -0.001425 -1.515722
    1 0.863304 0.000000 0.000000 -1.570795 -1.570787 0.000000
    2 1.293670 0.684478 -0.000001 -0.016512 -0.016144 0.074927
    3 5.309685 -0.003834 0.000000 0.008815 0.005573 -0.069760
    4 4.826790 -0.004591 0.000000 0.001183 -0.004003 0.093914
    5 5.792767 -0.005304 0.000000 -0.012358 0.000000 0.017444
    6 6.662322 -0.001452 0.000000 0.000000 -0.000001 0.471000
    7 -3.108188 1.516823 4.339626 0.732314 -1.245946 -4.322390
    8 4.827512 0.000000 -0.000002 -0.419873 1.129358 -0.447144
    9 11.140032 0.000000 0.000000 0.021318 0.104656 -0.600393
    10 10.314563 -0.000001 0.000001 -1.589560 -0.012271 -0.040979
    11 1.646836 0.445664 -1.699647 0.153911 0.442352 0.277231
    12 0.928312 0.000000 0.000000 0.000000 0.000000 0.000000
    13 0.928313 0.000000 -0.000001 0.000000 0.000000 0.000000
    14 2.979373 -0.388274 -0.044205 -0.000805 -0.043611 0.000046
    15 1.435262 -0.000001 -0.000001 0.160677 0.467725 0.965801
    16 1.482593 -0.000001 0.000001 0.000000 0.000000 0.104659
    17 -2.869899 1.399667 -4.140396 0.541214 1.233454 -3.098735
    18 4.972047 0.000000 0.000000 -0.618461 -0.985858 0.691326
    19 11.585358 0.000000 0.000001 -0.016684 -0.029973 -0.607925
    20 10.127058 0.000000 0.000001 1.569752 0.000000 -0.069778
    21 1.537458 0.109715 1.664489 -0.233165 -0.412999 0.435664
    22 0.928313 0.000000 0.000002 0.000000 0.000000 0.000000
    23 0.928311 0.000000 0.000001 0.000000 0.000000 0.000000
    24 2.686395 -0.427337 0.044204 0.001045 0.043611 0.000046
    25 1.435260 0.000000 0.000001 0.000000 0.000000 1.064075
    26 1.482593 0.000000 -0.000001 0.000000 0.000000 1.229759
    27 2.046984 0.000001 0.000000 0.002068 0.019443 -0.386210
    28 -0.000005 0.000007 3.713254 -0.090374 3.145458 0.171773
    29 18.045723 0.000000 0.000000 0.000000 0.000000 -0.602652
    30 17.597597 0.000000 0.000000 0.098054 -0.027304 0.321195
    31 0.000005 -0.000003 -3.713254 0.155789 3.083556 5.627101
    32 18.045721 0.000000 0.000000 0.000000 0.000000 -0.141327
    33 17.597597 0.000000 0.000000 -0.065093 0.058331 -0.071490
  time 4
    0 0.082999 -14.232544 0.419457 0.034235 -0.001520 -1.510117
    1 0.863304 0.000000 0.000000 -1.570795 -1.570787 0.000000
    2 1.293670 0.684478 -0.000001 -0.016512 -0.016144 0.074927
    3 5.309685 -0.003834 0.000000 0.008815 0.005573 -0.069760
    4 4.826790 -0.004591 0.000000 0.001183 -0.004003 0.093914
    5 5.792767 -0.005304 0.000000 -0.012358 0.000000 0.017444
    6 6.662322 -0.001452 0.000000 0.000000 -0.000001 0.471000
    7 -3.108188 1.516823 4.339626 0.874272 -1.232581 -4.459793
    8 4.827512 0.000000 -0.000002 -0.508917 1.111451 -0.545232
    9 11.140032 0.000000 0.000000 0.021318 0.104656 -0.600393
    10 10.314563 -0.000001 0.000001 -1.589560 -0.012271 -0.040979
    11 1.646836 0.445664 -1.699647 0.153911 0.442352 0.277231
    12 0.928312 0.000000 0.000000 0.000000 0.000000 0.000000
    13 0.928313 0.000000 -0.000001 0.000000 0.000000 0.000000
    14 2.979373 -0.388274 -0.044205 -0.000805 -0.043611 0.000046
    15 1.435262 -0.000001 -0.000001 0.160677 0.467725 0.965801
    16 1.482593 -0.000001 0.000001 0.000000 0.000000 0.104659
    17 -2.869899 1.399667 -4.140396 0.668080 1.218179 -2.977573
    18 4.972047 0.000000 0.000000 -0.644537 -0.956290 0.727067
    19 11.585358 0.000000 0.000001 -0.016684 -0.029973 -0.607925
    20 10.127058 0.000000 0.000001 1.569752 0.000000 -0.069778
    21 1.537458 0.109715 1.664489 -0.233165 -0.412999 0.435664
    22 0.928313 0.000000 0.000002 0.000000 0.000000 0.000000
    23 0.928311 0.000000 0.000001 0.000000 0.000000 0.000000
    24 2.686395 -0.427337 0.044204 0.001045 0.043611 0.000046
    25 1.435260 0.000000 0.000001 0.000000 0.000000 1.064075
    26 1.482593 0.000000 -0.000001 0.000000 0.000000 1.229759
    27 2.046984 0.000001 0.000000 0.002068 0.019443 -0.386210
    28 -0.000005 0.000007 3.713254 -0.085101 -3.119850 0.238875
    29 18.045723 0.000000 0.000000 0.000000 0.000000 -0.615382
    30 17.597597 0.000000 0.000000 0.108595 -0.001562 -0.008353
    31 0.000005 -0.000003 -3.713254 0.114577 3.077708 5.733708
    32 18.045721 0.000000 0.000000 0.000000 0.000000 -0.141642
    33 17.597597 0.000000 0.000000 0.041165 0.074307 -0.028627
  time 5
    0 -0.010754 -18.678440 0.165543 0.025512 -0.001140 -1.515627
    1 0.863304 0.000000 0.000000 -1.570795 -1.570787 0.000000
    2 1.293670 0.684478 -0.000001 -0.016512 -0.016144 0.074927
    3 5.309685 -0.003834 0.000000 0.008815 0.005573 -0.069760
    4 4.826790 -0.004591 0.000000 0.001183 -0.004003 0.093914
    5 5.792767 -0.005304 0.000000 -0.012358 0.000000 0.017444
    6 6.662322 -0.001452 0.000000 0.000000 -0.000001 0.471000
    7 -3.108188 1.516823 4.339626 0.770655 -1.245946 -4.359184
    8 4.827512 0.000000 -0.000002 -0.457340 1.122877 -0.488216
    9 11.140032 0.000000 0.000000 0.021318 0.104656 -0.600393
    10 10.314563 -0.000001 0.000001 -1.589560 -0.012271 -0.040979
    11 1.646836 0.445664 -1.699647 0.153911 0.442352 0.277231
    12 0.928312 0.000000 0.000000 0.000000 0.000000 0.000000
    13 0.928313 0.000000 -0.000001 0.000000 0.000000 0.000000
    14 2.979373 -0.388274 -0.044205 -0.000805 -0.043611 0.000046
    15 1.435262 -0.000001 -0.000001 0.160677 0.467725 0.965801
    16 1.482593 -0.000001 0.000001 0.000000 0.000000 0.104659
    17 -2.869899 1.399667 -4.140396 0.580669 1.233454 -3.060806
    18 4.972047 0.000000 0.000000 -0.633281 -0.978707 0.709097
    19 11.585358 0.000000 0.000001 -0.016684 -0.029973 -0.607925
    20 10.127058 0.000000 0.000001 1.569752 0.000000 -0.069778
    21 1.537458 0.109715 1.664489 -0.233165 -0.412999 0.435664
    22 0.928313 0.000000 0.000002 0.000000 0.000000 0.000000
    23 0.928311 0.000000 0.000001 0.000000 0.000000 0.000000
    24 2.686395 -0.427337 0.044204 0.001045 0.043611 0.000046
    25 1.435260 0.000000 0.000001 0.000000 0.000000 1.064075
    26 1.482593 0.000000 -0.000001 0.000000 0.000000 1.229759
    27 2.046984 0.000001 0.000000 0.002068 0.019443 -0.386210
    28 -0.000005 0.000007 3.713254 -0.098044 -3.098566 0.114354
    29 18.045723 0.000000 0.000000 0.000000 0.000000 -0.954666
    30 17.597597 0.000000 0.000000 0.091541 0.035968 -0.298840
    31 0.000005 -0.000003 -3.713254 0.100680 3.074640 5.647713
    32 18.045721 0.000000 0.000000 0.000000 0.000000 -0.542317
    33 17.597597 0.000000 0.000000 0.039588 0.052591 -0.032276
  time 6
    0 -0.159196 -23.128242 -0.244626 0.012709 -0.000475 -1.529593
    1 0.863304 0.000000 0.000000 -1.570795 -1.570787 0.000000
    2 1.293670 0.684478 -0.000001 -0.016512 -0.016144 0.074927
    3 5.309685 -0.003834 0.000000 0.008815 0.005573 -0.069760
    4 4.826790 -0.004591 0.000000 0.001183 -0.004003 0.093914
    5 5.792767 -0.005304 0.000000 -0.012358 0.000000 0.017444
    6 6.662322 -0.001452 0.000000 0.000000 -0.000001 0.471000
    7 -3.108188 1.516823 4.339626 0.522300 -1.275397 -4.118105
    8 4.827512 0.000000 -0.000002 -0.316958 1.154258 -0.332245
    9 11.140032 0.000000 0.000000 0.021318 0.104656 -0.600393
    10 10.314563 -0.000001 0.000001 -1.589560 -0.012271 -0.040979
    11 1.646836 0.445664 -1.699647 0.153911 0.442352 0.277231
    12 0.928312 0.000000 0.000000 0.000000 0.000000 0.000000
    13 0.928313 0.000000 -0.000001 0.000000 0.000000 0.000000
    14 2.979373 -0.388274 -0.044205 -0.000805 -0.043611 0.000046
    15 1.435262 -0.000001 -0.000001 0.160677 0.467725 0.965801
    16 1.482593 -0.000001 0.000001 0.000000 0.000000 0.104659
    17 -2.869899 1.399667 -4.140396 0.367346 1.267001 -3.264147
    18 4.972047 0.000000 0.000000 -0.587132 -1.040978 0.645403
    19 11.585358 0.000000 0.000001 -0.016684 -0.029973 -0.607925
    20 10.127058 0.000000 0.000001 1.569752 0.000000 -0.069778
    21 1.537458 0.109715 1.664489 -0.233165 -0.412999 0.435664
    22 0.928313 0.000000 0.000002 0.000000 0.000000 0.000000
    23 0.928311 0.000000 0.000001 0.000000 0.000000 0.000000
    24 2.686395 -0.427337 0.044204 0.001045 0.043611 0.000046
    25 1.435260 0.000000 0.000001 0.000000 0.000000 1.064075
    26 1.482593 0.000000 -0.000001 0.000000 0.000000 1.229759
    27 2.046984 0.000001 0.000000 0.002068 0.019443 -0.386210
    28 -0.000005 0.000007 3.713254 -0.108494 -3.073351 6.178313
    29 18.045723 0.000000 0.000000 0.000000 0.000000 -1.385802
    30 17.597597 0.000000 0.000000 0.043979 0.062743 -0.503914
    31 0.000005 -0.000003 -3.713254 0.104130 3.089404 5.644454
    32 18.045721 0.000000 0.000000 0.000000 0.000000 -0.826647
    33 17.597597 0.000000 0.000000 0.032240 0.001448 0.179081
  time 7
    0 -0.334982 -27.578044 -0.510259 0.000000 0.000000 -1.546695
    1 0.863304 0.000000 0.000000 -1.570795 -1.570787 0.000000
    2 1.293670 0.684478 -0.000001 -0.016512 -0.016144 0.074927
    3 5.309685 -0.003834 0.000000 0.008815 0.005573 -0.069760
    4 4.826790 -0.004591 0.000000 0.001183 -0.004003 0.093914
    5 5.792767 -0.005304 0.000000 -0.012358 0.000000 0.017444
    6 6.662322 -0.001452 0.000000 0.000000 -0.000001 0.471000
    7 -3.108188 1.516823 4.339626 0.222663 -1.304818 -3.828063
    8 4.827512 0.000000 -0.000002 -0.088250 1.188879 -0.081479
    9 11.140032 0.000000 0.000000 0.021318 0.104656 -0.600393
    10 10.314563 -0.000001 0.000001 -1.589560 -0.012271 -0.040979
    11 1.646836 0.445664 -1.699647 0.153911 0.442352 0.277231
    12 0.928312 0.000000 0.000000 0.000000 0.000000 0.000000
    13 0.928313 0.000000 -0.000001 0.000000 0.000000 0.000000
    14 2.979373 -0.388274 -0.044205 -0.000805 -0.043611 0.000046
    15 1.435262 -0.000001 -0.000001 0.160677 0.467725 0.965801
    16 1.482593 -0.000001 0.000001 0.000000 0.000000 0.104659
    17 -2.869899 1.399667 -4.140396 0.101290 1.300547 -3.517965
    18 4.972047 0.000000 0.000000 -0.465288 -1.124702 0.500579
    19 11.585358 0.000000 0.000001 -0.016684 -0.029973 -0.607925
    20 10.127058 0.000000 0.000001 1.569752 0.000000 -0.069778
    21 1.537458 0.109715 1.664489 -0.233165 -0.412999 0.435664
    22 0.928313 0.000000 0.000002 0.000000 0.000000 0.000000
    23 0.928311 0.000000 0.000001 0.000000 0.000000 0.000000
    24 2.686395 -0.427337 0.044204 0.001045 0.043611 0.000046
    25 1.435260 0.000000 0.000001 0.000000 0.000000 1.064075
    26 1.482593 0.000000 -0.000001 0.000000 0.000000 1.229759
    27 2.046984 0.000001 0.000000 0.002068 0.019443 -0.386210
    28 -0.000005 0.000007 3.713254 -0.091620 -3.054080 5.867058
    29 18.045723 0.000000 0.000000 0.000000 0.000000 -1.677716
    30 17.597597 0.000000 0.000000 0.051555 0.063801 -0.231537
    31 0.000005 -0.000003 -3.713254 0.112277 3.110207 5.736105
    32 18.045721 0.000000 0.000000 0.000000 0.000000 -0.948975
    33 17.597597 0.000000 0.000000 0.017545 -0.016697 0.401985
  time 8
    0 -0.417016 -32.031753 -0.201656 -0.008770 0.000000 -1.562181
    1 0.863304 0.000000 0.000000 -1.570795 -1.570787 0.000000
    2 1.293670 0.684478 -0.000001 -0.016512 -0.016144 0.074927
    3 5.309685 -0.003834 0.000000 0.008815 0.005573 -0.069760
    4 4.826790 -0.004591 0.000000 0.001183 -0.004003 0.093914
    5 5.792767 -0.005304 0.000000 -0.012358 0.000000 0.017444
    6 6.662322 -0.001452 0.000000 0.000000 -0.000001 0.471000
    7 -3.108188 1.516823 4.339626 -0.034415 -1.318154 -3.580277
    8 4.827512 0.000000 -0.000002 0.182389 1.192972 0.210100
    9 11.140032 0.000000 0.000000 0.021318 0.104656 -0.600393
    10 10.314563 -0.000001 0.000001 -1.589560 -0.012271 -0.040979
    11 1.646836 0.445664 -1.699647 0.153911 0.442352 0.277231
    12 0.928312 0.000000 0.000000 0.000000 0.000000 0.000000
    13 0.928313 0.000000 -0.000001 0.000000 0.000000 0.000000
    14 2.979373 -0.388274 -0.044205 -0.000805 -0.043611 0.000046
    15 1.435262 -0.000001 -0.000001 0.160677 0.467725 0.965801
    16 1.482593 -0.000001 0.000001 0.000000 0.000000 0.104659
    17 -2.869899 1.399667 -4.140396 -0.144227 1.315770 -3.752914
    18 4.972047 0.000000 0.000000 -0.252084 -1.185446 0.266370
    19 11.585358 0.000000 0.000001 -0.016684 -0.029973 -0.607925
    20 10.127058 0.000000 0.000001 1.569752 0.000000 -0.069778
    21 1.537458 0.109715 1.664489 -0.233165 -0.412999 0.435664
    22 0.928313 0.000000 0.000002 0.000000 0.000000 0.000000
    23 0.928311 0.000000 0.000001 0.000000 0.000000 0.000000
    24 2.686395 -0.427337 0.044204 0.001045 0.043611 0.000046
    25 1.435260 0.000000 0.000001 0.000000 0.000000 1.064075
    26 1.482593 0.000000 -0.000001 0.000000 0.000000 1.229759
    27 2.046984 0.000001 0.000000 0.002068 0.019443 -0.386210
    28 -0.000005 0.000007 3.713254 -0.075801 -3.047560 5.694607
    29 18.045723 0.000000 0.000000 0.000000 0.000000 -1.491125
    30 17.597597 0.000000 0.000000 0.077478 0.035402 -0.043472
    31 0.000005 -0.000003 -3.713254 0.115440 -3.155079 5.906752
    32 18.045721 0.000000 0.000000 0.000000 0.000000 -0.915756
    33 17.597597 0.000000 0.000000 0.001943 -0.015474 0.530018
  time 9
    0 -0.393578 -36.477649 0.231951 -0.012709 0.000000 -1.577667
    1 0.859397 0.000000 0.000000 -1.570795 -1.570787 0.000000
    2 1.293670 0.684478 -0.000001 -0.016512 -0.016144 0.074927
    3 5.309685 -0.003834 0.000000 0.008815 0.005573 -0.069760
    4 4.826790 -0.004591 0.000000 0.001183 -0.004003 0.093914
    5 5.792767 -0.005304 0.000000 -0.012358 0.000000 0.017444
    6 6.662322 -0.001452 0.000000 0.000000 -0.000001 0.471000
    7 -3.108188 1.516823 4.339626 -0.263312 -1.298283 -3.362099
    8 4.827512 0.000000 -0.000002 0.435330 1.136180 0.486428
    9 11.140032 0.000000 0.000000 0.021318 0.104656 -0.600393
    10 10.314563 -0.000001 0.000001 -1.589560 -0.012271 -0.040979
    11 1.646836 0.445664 -1.699647 0.153911 0.442352 0.277231
    12 0.928312 0.000000 0.000000 0.000000 0.000000 0.000000
    13 0.928313 0.000000 -0.000001 0.000000 0.000000 0.000000
    14 2.979373 -0.388274 -0.044205 -0.000805 -0.043611 0.000046
    15 1.435262 -0.000001 -0.000001 0.160677 0.467725 0.965801
    16 1.482593 -0.000001 0.000001 0.000000 0.000000 0.104659
    17 -2.869899 1.399667 -4.140396 -0.399488 1.293370 -3.998494
    18 4.972047 0.000000 0.000000 0.038691 -1.188419 -0.047505
    19 11.585358 0.000000 0.000001 -0.016684 -0.029973 -0.607925
    20 10.127058 0.000000 0.000001 1.569752 0.000000 -0.069778
    21 1.537458 0.109715 1.664489 -0.233165 -0.412999 0.435664
    22 0.928313 0.000000 0.000002 0.000000 0.000000 0.000000
    23 0.928311 0.000000 0.000001 0.000000 0.000000 0.000000
    24 2.686395 -0.427337 0.044204 0.001045 0.043611 0.000046
    25 1.435260 0.000000 0.000001 0.000000 0.000000 1.064075
    26 1.482593 0.000000 -0.000001 0.000000 0.000000 1.229759
    27 2.046984 0.000001 0.000000 0.002068 0.019443 -0.386210
    28 -0.000005 0.000007 3.713254 -0.089703 -3.080925 5.576317
    29 18.045723 0.000000 0.000000 0.000000 0.000000 -0.929501
    30 17.597597 0.000000 0.000000 0.067215 0.004098 0.077151
    31 0.000005 -0.000003 -3.713254 0.113235 -3.146643 6.101751
    32 18.045721 0.000000 0.000000 0.000000 0.000000 -0.813580
    33 17.597597 0.000000 0.000000 -0.013960 0.000324 0.562211
  time 10
    0 -0.319357 -40.931358 0.474146 -0.014069 -0.000095 -1.594959
    1 0.863304 0.000000 0.000000 -1.570795 -1.570787 0.000000
    2 1.293670 0.684478 -0.000001 -0.016512 -0.016144 0.074927
    3 5.309685 -0.003834 0.000000 0.008815 0.005573 -0.069760
    4 4.826790 -0.004591 0.000000 0.001183 -0.004003 0.093914
    5 5.792767 -0.005304 0.000000 -0.012358 0.000000 0.017444
    6 6.662322 -0.001452 0.000000 0.000000 -0.000001 0.471000
    7 -3.108188 1.516823 4.339626 -0.500932 -1.254432 -3.137214
    8 4.827512 0.000000 -0.000002 0.586553 1.037262 0.665968
    9 11.140032 0.000000 0.000000 0.021318 0.104656 -0.600393
    10 10.314563 -0.000001 0.000001 -1.589560 -0.012271 -0.040979
    11 1.646836 0.445664 -1.699647 0.153911 0.442352 0.277231
    12 0.928312 0.000000 0.000000 0.000000 0.000000 0.000000
    13 0.928313 0.000000 -0.000001 0.000000 0.000000 0.000000
    14 2.979373 -0.388274 -0.044205 -0.000805 -0.043611 0.000046
    15 1.435262 -0.000001 -0.000001 0.160677 0.467725 0.965801
    16 1.482593 -0.000001 0.000001 0.000000 0.000000 0.104659
    17 -2.869899 1.399667 -4.140396 -0.686848 1.243997 -4.275586
    18 4.972047 0.000000 0.000000 0.301421 -1.141013 -0.338152
    19 11.585358 0.000000 0.000001 -0.016684 -0.029973 -0.607925
    20 10.127058 0.000000 0.000001 1.569752 0.000000 -0.069778
    21 1.537458 0.109715 1.664489 -0.233165 -0.412999 0.435664
    22 0.928313 0.000000 0.000002 0.000000 0.000000 0.000000
    23 0.928311 0.000000 0.000001 0.000000 0.000000 0.000000
    24 2.686395 -0.427337 0.044204 0.001045 0.043611 0.000046
    25 1.435260 0.000000 0.000001 0.000000 0.000000 1.064075
    26 1.482593 0.000000 -0.000001 0.000000 0.000000 1.229759
    27 2.046984 0.000001 0.000000 0.002068 0.019443 -0.386210
    28 -0.000005 0.000007 3.713254 -0.108973 -3.110646 5.521485
    29 18.045723 0.000000 0.000000 0.000000 0.000000 -0.410361
    30 17.597597 0.000000 0.000000 0.063896 -0.007764 0.135744
    31 0.000005 -0.000003 -3.713254 0.107005 -3.148848 -0.001200
    32 18.045721 0.000000 0.000000 0.000000 0.000000 -0.713293
    33 17.597597 0.000000 0.000000 -0.030568 0.021073 0.502906
  time 11
    0 -0.225604 -45.377254 0.556180 -0.012709 -0.000285 -1.609020
    1 0.863304 0.000000 0.000000 -1.570795 -1.570787 0.000000
    2 1.293670 0.684478 -0.000001 -0.016512 -0.016144 0.074927
    3 5.309685 -0.003834 0.000000 0.008815 0.005573 -0.069760
    4 4.826790 -0.004591 0.000000 0.001183 -0.004003 0.093914
    5 5.792767 -0.005304 0.000000 -0.012358 0.000000 0.017444
    6 6.662322 -0.001452 0.000000 0.000000 -0.000001 0.471000
    7 -3.108188 1.516823 4.339626 -0.687366 -1.210611 -2.961387
    8 4.827512 0.000000 -0.000002 0.636137 0.956338 0.739620
    9 11.140032 0.000000 0.000000 0.021318 0.104656 -0.600393
    10 10.314563 -0.000001 0.000001 -1.589560 -0.012271 -0.040979
    11 1.646836 0.445664 -1.699647 0.153911 0.442352 0.277231
    12 0.928312 0.000000 0.000000 0.000000 0.000000 0.000000
    13 0.928313 0.000000 -0.000001 0.000000 0.000000 0.000000
    14 2.979373 -0.388274 -0.044205 -0.000805 -0.043611 0.000046
    15 1.435262 -0.000001 -0.000001 0.160677 0.467725 0.965801
    16 1.482593 -0.000001 0.000001 0.000000 0.000000 0.104659
    17 -2.869899 1.399667 -4.140396 -0.921474 1.194623 -4.502202
    18 4.972047 0.000000 0.000000 0.446152 -1.090634 -0.505472
    19 11.585358 0.000000 0.000001 -0.016684 -0.029973 -0.607925
    20 10.127058 0.000000 0.000001 1.569752 0.000000 -0.069778
    21 1.537458 0.109715 1.664489 -0.233165 -0.412999 0.435664
    22 0.928313 0.000000 0.000002 0.000000 0.000000 0.000000
    23 0.928311 0.000000 0.000001 0.000000 0.000000 0.000000
    24 2.686395 -0.427337 0.044204 0.001045 0.043611 0.000046
    25 1.435260 0.000000 0.000001 0.000000 0.000000 1.064075
    26 1.482593 0.000000 -0.000001 0.000000 0.000000 1.229759
    27 2.046984 0.000001 0.000000 0.002068 0.019443 -0.386210
    28 -0.000005 0.000007 3.713254 -0.119040 -3.113234 5.623575
    29 18.045723 0.000000 0.000000 0.000000 0.000000 -0.184246
    30 17.597597 0.000000 0.000000 0.050314 -0.017632 0.052165
    31 0.000005 -0.000003 -3.713254 0.092629 3.116534 0.096682
    32 18.045721 0.000000 0.000000 0.000000 0.000000 -0.721873
    33 17.597597 0.000000 0.000000 -0.051705 0.038410 0.292703
  time 12
    0 -0.112319 -49.827056 0.423363 -0.008629 -0.000190 -1.614720
    1 0.859397 0.000000 0.000000 -1.570795 -1.570787 0.000000
    2 1.293670 0.684478 -0.000001 -0.016512 -0.016144 0.074927
    3 5.309685 -0.003834 0.000000 0.008815 0.005573 -0.069760
    4 4.826790 -0.004591 0.000000 0.001183 -0.004003 0.093914
    5 5.792767 -0.005304 0.000000 -0.012358 0.000000 0.017444
    6 6.662322 -0.001452 0.000000 0.000000 -0.000001 0.471000
    7 -3.108188 1.516823 4.339626 -0.762707 -1.190681 -2.890386
    8 4.827512 0.000000 -0.000002 0.644587 0.925383 0.757904
    9 11.140032 0.000000 0.000000 0.021318 0.104656 -0.600393
    10 10.314563 -0.000001 0.000001 -1.589560 -0.012271 -0.040979
    11 1.646836 0.445664 -1.699647 0.153911 0.442352 0.277231
    12 0.928312 0.000000 0.000000 0.000000 0.000000 0.000000
    13 0.928313 0.000000 -0.000001 0.000000 0.000000 0.000000
    14 2.979373 -0.388274 -0.044205 -0.000805 -0.043611 0.000046
    15 1.435262 -0.000001 -0.000001 0.160677 0.467725 0.965801
    16 1.482593 -0.000001 0.000001 0.000000 0.000000 0.104659
    17 -2.869899 1.399667 -4.140396 -1.018534 1.172171 -4.595971
    18 4.972047 0.000000 0.000000 0.493614 -1.070707 -0.561578
    19 11.585358 0.000000 0.000001 -0.016684 -0.029973 -0.607925
    20 10.127058 0.000000 0.000001 1.569752 0.000000 -0.069778
    21 1.537458 0.109715 1.664489 -0.233165 -0.412999 0.435664
    22 0.928313 0.000000 0.000002 0.000000 0.000000 0.000000
    23 0.928311 0.000000 0.000001 0.000000 0.000000 0.000000
    24 2.686395 -0.427337 0.044204 0.001045 0.043611 0.000046
    25 1.435260 0.000000 0.000001 0.000000 0.000000 1.064075
    26 1.482593 0.000000 -0.000001 0.000000 0.000000 1.229759
    27 2.046984 0.000001 0.000000 0.002068 0.019443 -0.386210
    28 -0.000005 0.000007 3.713254 -0.119328 -3.109879 5.744166
    29 18.045723 0.000000 0.000000 0.000000 0.000000 -0.141022
    30 17.597597 0.000000 0.000000 0.027204 -0.022259 -0.056401
    31 0.000005 -0.000003 -3.713254 0.084866 3.088925 0.084890
    32 18.045721 0.000000 0.000000 0.000000 0.000000 -0.817201
    33 17.597597 0.000000 0.000000 -0.074420 0.016261 -0.211763
  time 13
    0 -0.006847 -54.280765 0.165543 -0.000985 0.000000 -1.609020
    1 0.859397 0.000000 0.000000 -1.570795 -1.570787 0.000000
    2 1.293670 0.684478 -0.000001 -0.016512 -0.016144 0.074927
    3 5.309685 -0.003834 0.000000 0.008815 0.005573 -0.069760
    4 4.826790 -0.004591 0.000000 0.001183 -0.004003 0.093914
    5 5.792767 -0.005304 0.000000 -0.012358 0.000000 0.017444
    6 6.662322 -0.001452 0.000000 0.000000 -0.000001 0.471000
    7 -3.108188 1.516823 4.339626 -0.648929 -1.210611 -2.998086
    8 4.827512 0.000000 -0.000002 0.621469 0.962477 0.722117
    9 11.140032 0.000000 0.000000 0.021318 0.104656 -0.600393
    10 10.314563 -0.000001 0.000001 -1.589560 -0.012271 -0.040979
    11 1.646836 0.445664 -1.699647 0.153911 0.442352 0.277231
    12 0.928312 0.000000 0.000000 0.000000 0.000000 0.000000
    13 0.928313 0.000000 -0.000001 0.000000 0.000000 0.000000
    14 2.979373 -0.388274 -0.044205 -0.000805 -0.043611 0.000046
    15 1.435262 -0.000001 -0.000001 0.160677 0.467725 0.965801
    16 1.482593 -0.000001 0.000001 0.000000 0.000000 0.104659
    17 -2.869899 1.399667 -4.140396 -0.881924 1.194623 -4.464273
    18 4.972047 0.000000 0.000000 0.409571 -1.095214 -0.465539
    19 11.585358 0.000000 0.000001 -0.016684 -0.029973 -0.607925
    20 10.127058 0.000000 0.000001 1.569752 0.000000 -0.069778
    21 1.537458 0.109715 1.664489 -0.233165 -0.412999 0.435664
    22 0.928313 0.000000 0.000002 0.000000 0.000000 0.000000
    23 0.928311 0.000000 0.000001 0.000000 0.000000 0.000000
    24 2.686395 -0.427337 0.044204 0.001045 0.043611 0.000046
    25 1.435260 0.000000 0.000001 0.000000 0.000000 1.064075
    26 1.482593 0.000000 -0.000001 0.000000 0.000000 1.229759
    27 2.046984 0.000001 0.000000 0.002068 0.019443 -0.386210
    28 -0.000005 0.000007 3.713254 -0.083375 -3.116494 5.668437
    29 18.045723 0.000000 0.000000 0.000000 0.000000 -0.495700
    30 17.597597 0.000000 0.000000 -0.015746 -0.011578 -0.021649
    31 0.000005 -0.000003 -3.713254 0.109306 3.072627 0.050857
    32 18.045721 0.000000 0.000000 0.000000 0.000000 -1.039186
    33 17.597597 0.000000 0.000000 -0.041741 0.059041 -0.165991
  time 14
    0 0.114250 -58.730567 -0.244626 0.009989 0.000000 -1.594959
    1 0.859397 0.000000 0.000000 -1.570795 -1.570787 0.000000
    2 1.293670 0.684478 -0.000001 -0.016512 -0.016144 0.074927
    3 5.309685 -0.003834 0.000000 0.008815 0.005573 -0.069760
    4 4.826790 -0.004591 0.000000 0.001183 -0.004003 0.093914
    5 5.792767 -0.005304 0.000000 -0.012358 0.000000 0.017444
    6 6.662322 -0.001452 0.000000 0.000000 -0.000001 0.471000
    7 -3.108188 1.516823 4.339626 -0.398561 -1.254432 -3.235332
    8 4.827512 0.000000 -0.000002 0.530353 1.057217 0.601326
    9 11.140032 0.000000 0.000000 0.021318 0.104656 -0.600393
    10 10.314563 -0.000001 0.000001 -1.589560 -0.012271 -0.040979
    11 1.646836 0.445664 -1.699647 0.153911 0.442352 0.277231
    12 0.928312 0.000000 0.000000 0.000000 0.000000 0.000000
    13 0.928313 0.000000 -0.000001 0.000000 0.000000 0.000000
    14 2.979373 -0.388274 -0.044205 -0.000805 -0.043611 0.000046
    15 1.435262 -0.000001 -0.000001 0.160677 0.467725 0.965801
    16 1.482593 -0.000001 0.000001 0.000000 0.000000 0.104659
    17 -2.869899 1.399667 -4.140396 -0.581381 1.243997 -4.174442
    18 4.972047 0.000000 0.000000 0.188675 -1.146718 -0.216023
    19 11.585358 0.000000 0.000001 -0.016684 -0.029973 -0.607925
    20 10.127058 0.000000 0.000001 1.569752 0.000000 -0.069778
    21 1.537458 0.109715 1.664489 -0.233165 -0.412999 0.435664
    22 0.928313 0.000000 0.000002 0.000000 0.000000 0.000000
    23 0.928311 0.000000 0.000001 0.000000 0.000000 0.000000
    24 2.686395 -0.427337 0.044204 0.001045 0.043611 0.000046
    25 1.435260 0.000000 0.000001 0.000000 0.000000 1.064075
    26 1.482593 0.000000 -0.000001 0.000000 0.000000 1.229759
    27 2.046984 0.000001 0.000000 0.002068 0.019443 -0.386210
    28 -0.000005 0.000007 3.713254 -0.101687 -3.123110 5.660385
    29 18.045723 0.000000 0.000000 0.000000 0.000000 -0.787244
    30 17.597597 0.000000 0.000000 0.000344 0.026321 0.161647
    31 0.000005 -0.000003 -3.713254 0.132883 3.056905 6.234051
    32 18.045721 0.000000 0.000000 0.000000 0.000000 -1.310370
    33 17.597597 0.000000 0.000000 0.000333 0.105983 0.009524
  time 15
    0 0.262692 -63.172557 -0.510259 0.022605 0.000000 -1.577762
    1 0.859397 0.000000 0.000000 -1.570795 -1.570787 0.000000
    2 1.293670 0.684478 -0.000001 -0.016512 -0.016144 0.074927
    3 5.309685 -0.003834 0.000000 0.008815 0.005573 -0.069760
    4 4.826790 -0.004591 0.000000 0.001183 -0.004003 0.093914
    5 5.792767 -0.005304 0.000000 -0.012358 0.000000 0.017444
    6 6.662322 -0.001452 0.000000 0.000000 -0.000001 0.471000
    7 -3.108188 1.516823 4.339626 -0.148193 -1.298283 -3.472482
    8 4.827512 0.000000 -0.000002 0.330503 1.155793 0.371443
    9 11.140032 0.000000 0.000000 0.021318 0.104656 -0.600393
    10 10.314563 -0.000001 0.000001 -1.589560 -0.012271 -0.040979
    11 1.646836 0.445664 -1.699647 0.153911 0.442352 0.277231
    12 0.928312 0.000000 0.000000 0.000000 0.000000 0.000000
    13 0.928313 0.000000 -0.000001 0.000000 0.000000 0.000000
    14 2.979373 -0.388274 -0.044205 -0.000805 -0.043611 0.000046
    15 1.435262 -0.000001 -0.000001 0.160677 0.467725 0.965801
    16 1.482593 -0.000001 0.000001 0.000000 0.000000 0.104659
    17 -2.869899 1.399667 -4.140396 -0.280837 1.293370 -3.884707
    18 4.972047 0.000000 0.000000 -0.100881 -1.180867 0.102578
    19 11.585358 0.000000 0.000001 -0.016684 -0.029973 -0.607925
    20 10.127058 0.000000 0.000001 1.569752 0.000000 -0.069778
    21 1.537458 0.109715 1.664489 -0.233165 -0.412999 0.435664
    22 0.928313 0.000000 0.000002 0.000000 0.000000 0.000000
    23 0.928311 0.000000 0.000001 0.000000 0.000000 0.000000
    24 2.686395 -0.427337 0.044204 0.001045 0.043611 0.000046
    25 1.435260 0.000000 0.000001 0.000000 0.000000 1.064075
    26 1.482593 0.000000 -0.000001 0.000000 0.000000 1.229759
    27 2.046984 0.000001 0.000000 0.002068 0.019443 -0.386210
    28 -0.000005 0.000007 3.713254 -0.113575 3.146512 5.746467
    29 18.045723 0.000000 0.000000 0.000000 0.000000 -0.921507
    30 17.597597 0.000000 0.000000 0.023505 0.026321 0.385564
    31 0.000005 -0.000003 -3.713254 0.100392 3.046360 5.933788
    32 18.045721 0.000000 0.000000 0.000000 0.000000 -1.561166
    33 17.597597 0.000000 0.000000 -0.014363 0.081644 0.181621
  time 16
    0 0.383789 -67.626266 -0.021963 0.034282 0.000000 -1.562181
    1 0.863304 0.000000 0.000000 -1.570795 -1.570787 0.000000
    2 1.293670 0.684478 -0.000001 -0.016512 -0.016144 0.074927
    3 5.309685 -0.003834 0.000000 0.008815 0.005573 -0.069760
    4 4.826790 -0.004591 0.000000 0.001183 -0.004003 0.093914
    5 5.792767 -0.005304 0.000000 -0.012358 0.000000 0.017444
    6 6.662322 -0.001452 0.000000 0.000000 -0.000001 0.471000
    7 -3.108188 1.516823 4.339626 -0.034415 -1.318154 -3.580277
    8 4.827512 0.000000 -0.000002 0.181432 1.193143 0.209407
    9 11.140032 0.000000 0.000000 0.021318 0.104656 -0.600393
    10 10.314563 -0.000001 0.000001 -1.589560 -0.012271 -0.040979
    11 1.646836 0.445664 -1.699647 0.153911 0.442352 0.277231
    12 0.928312 0.000000 0.000000 0.000000 0.000000 0.000000
    13 0.928313 0.000000 -0.000001 0.000000 0.000000 0.000000
    14 2.979373 -0.388274 -0.044205 -0.000805 -0.043611 0.000046
    15 1.435262 -0.000001 -0.000001 0.160677 0.467725 0.965801
    16 1.482593 -0.000001 0.000001 0.000000 0.000000 0.104659
    17 -2.869899 1.399667 -4.140396 -0.144227 1.315770 -3.752914
    18 4.972047 0.000000 0.000000 -0.251427 -1.185205 0.265705
    19 11.585358 0.000000 0.000001 -0.016684 -0.029973 -0.607925
    20 10.127058 0.000000 0.000001 1.569752 0.000000 -0.069778
    21 1.537458 0.109715 1.664489 -0.233165 -0.412999 0.435664
    22 0.928313 0.000000 0.000002 0.000000 0.000000 0.000000
    23 0.928311 0.000000 0.000001 0.000000 0.000000 0.000000
    24 2.686395 -0.427337 0.044204 0.001045 0.043611 0.000046
    25 1.435260 0.000000 0.000001 0.000000 0.000000 1.064075
    26 1.482593 0.000000 -0.000001 0.000000 0.000000 1.229759
    27 2.046984 0.000001 0.000000 0.002068 0.019443 -0.386210
    28 -0.000005 0.000007 3.713254 -0.117698 3.128104 5.943937
    29 18.045723 0.000000 0.000000 0.000000 0.000000 -0.855930
    30 17.597597 0.000000 0.000000 0.046412 0.009635 0.513248
    31 0.000005 -0.000003 -3.713254 0.070969 3.066971 5.683089
    32 18.045721 0.000000 0.000000 0.000000 0.000000 -1.446867
    33 17.597597 0.000000 0.000000 -0.044995 0.043716 0.120699
end
